<svg width="24" height="24" viewBox="0 0 24 24" fill="none" xmlns="http://www.w3.org/2000/svg">
<path d="M10 7.25C8.48079 7.25 7.25 8.48079 7.25 10V14C7.25 14.4142 7.58579 14.75 8 14.75C8.41421 14.75 8.75 14.4142 8.75 14V10C8.75 9.93994 8.75452 9.88091 8.7627 9.82312L14.9697 16.0303C15.2626 16.3232 15.7374 16.3232 16.0303 16.0303C16.3232 15.7374 16.3232 15.2626 16.0303 14.9697L9.82324 8.76257C9.88099 8.75441 9.93999 8.75 10 8.75H14C14.4142 8.75 14.75 8.41421 14.75 8C14.75 7.58579 14.4142 7.25 14 7.25H10Z" fill="currentColor"/>
<path fill-rule="evenodd" clip-rule="evenodd" d="M12 2.25C6.61522 2.25 2.25 6.61522 2.25 12C2.25 17.3848 6.61522 21.75 12 21.75C17.3848 21.75 21.75 17.3848 21.75 12C21.75 6.61522 17.3848 2.25 12 2.25ZM12 3.75C16.5563 3.75 20.25 7.44365 20.25 12C20.25 16.5563 16.5563 20.25 12 20.25C7.44365 20.25 3.75 16.5563 3.75 12C3.75 7.44365 7.44365 3.75 12 3.75Z" fill="currentColor"/>
</svg>
