<svg width="24" height="24" viewBox="0 0 24 24" fill="none" xmlns="http://www.w3.org/2000/svg">
<path d="M10.7622 16.8228C11.4451 17.5056 12.5537 17.5056 13.2366 16.8228L16.5291 13.5303C16.8219 13.2374 16.8219 12.7625 16.5291 12.4696C16.2362 12.1768 15.7613 12.1767 15.4684 12.4696L12.75 15.188V7C12.75 6.58579 12.4142 6.25 12 6.25C11.5858 6.25 11.25 6.58579 11.25 7V15.1893L8.53027 12.4696C8.2374 12.1768 7.7626 12.1768 7.46973 12.4696C7.17684 12.7625 7.17685 13.2374 7.46973 13.5303L10.7622 16.8228Z" fill="currentColor"/>
<path fill-rule="evenodd" clip-rule="evenodd" d="M12 21.75C17.3848 21.75 21.75 17.3848 21.75 12C21.75 6.61522 17.3848 2.25 12 2.25C6.61522 2.25 2.25 6.61522 2.25 12C2.25 17.3848 6.61522 21.75 12 21.75ZM12 20.25C7.44365 20.25 3.75 16.5563 3.75 12C3.75 7.44365 7.44365 3.75 12 3.75C16.5563 3.75 20.25 7.44365 20.25 12C20.25 16.5563 16.5563 20.25 12 20.25Z" fill="currentColor"/>
</svg>
