<svg width="24" height="24" viewBox="0 0 24 24" fill="none" xmlns="http://www.w3.org/2000/svg">
<path d="M10.7622 7.17727C11.4451 6.49438 12.5537 6.49438 13.2366 7.17727L16.529 10.4698C16.8219 10.7626 16.8219 11.2375 16.529 11.5304C16.2362 11.8233 15.7613 11.8233 15.4684 11.5304L12.75 8.81204V17C12.75 17.4142 12.4142 17.75 12 17.75C11.5858 17.75 11.25 17.4142 11.25 17V8.8107L8.53026 11.5304C8.23738 11.8232 7.76259 11.8232 7.46972 11.5304C7.17683 11.2375 7.17685 10.7626 7.46972 10.4698L10.7622 7.17727Z" fill="currentColor"/>
<path fill-rule="evenodd" clip-rule="evenodd" d="M6.2235 2.96707C10.0601 2.48689 13.9412 2.48689 17.7778 2.96707L17.7779 2.96695C19.4793 3.17944 20.8216 4.51988 21.0343 6.22305L21.0779 6.58291C21.514 10.3024 21.4995 14.0612 21.0343 17.7781C20.8217 19.4795 19.4812 20.8215 17.7781 21.0341L17.7782 21.0342C13.9413 21.5144 10.06 21.5144 6.22313 21.0342C4.52173 20.8216 3.17956 19.4811 2.96703 17.7779L2.96715 17.7777C2.48697 13.9411 2.48696 10.0599 2.96715 6.22329C3.17967 4.5218 4.52018 3.17959 6.2235 2.96707ZM17.5919 4.45535C13.8788 3.99059 10.1225 3.9906 6.40941 4.45535L6.40917 4.45547C5.38754 4.58294 4.58309 5.38826 4.45556 6.40921L4.45543 6.40933C4.0052 10.0064 3.99123 13.6439 4.41332 17.2436L4.45543 17.5918L4.45556 17.5921C4.58303 18.6137 5.38831 19.4183 6.40929 19.5458C10.1224 20.0106 13.8788 20.0106 17.5919 19.5458L17.5922 19.5457C18.6138 19.4182 19.4184 18.613 19.5459 17.5921V17.5918C20.0106 13.8787 20.0106 10.1225 19.5459 6.40933L19.5458 6.40908C19.4183 5.38749 18.6131 4.58301 17.5922 4.45547L17.5919 4.45535Z" fill="currentColor"/>
</svg>
