<svg width="24" height="24" viewBox="0 0 24 24" fill="none" xmlns="http://www.w3.org/2000/svg">
<path d="M7.96969 7.96975C8.26257 7.67687 8.73734 7.67688 9.03023 7.96975L15.2373 14.1768C15.2454 14.119 15.25 14.06 15.25 14V10C15.25 9.58583 15.5858 9.25005 16 9.25003C16.4142 9.25003 16.75 9.58581 16.75 10V14C16.75 15.5192 15.5192 16.75 14 16.75H9.99996C9.58576 16.75 9.24996 16.4142 9.24996 16C9.24996 15.5858 9.58576 15.25 9.99996 15.25H14C14.06 15.25 14.119 15.2455 14.1767 15.2373L7.96969 9.0303C7.67682 8.73741 7.67682 8.26264 7.96969 7.96975Z" fill="currentColor"/>
<path fill-rule="evenodd" clip-rule="evenodd" d="M6.22225 2.96707C10.0589 2.48689 13.94 2.48689 17.7766 2.96707L17.7767 2.96695C19.4781 3.17944 20.8204 4.51988 21.033 6.22305L21.0766 6.58291C21.5128 10.3024 21.4983 14.0612 21.033 17.7781C20.8205 19.4795 19.48 20.8215 17.7768 21.0341L17.7769 21.0342C13.9401 21.5144 10.0587 21.5144 6.22188 21.0342C4.52048 20.8216 3.17831 19.4811 2.96578 17.7779L2.9659 17.7777C2.48572 13.9411 2.4857 10.0599 2.9659 6.22329C3.17842 4.5218 4.51892 3.17959 6.22225 2.96707ZM17.5907 4.45535C13.8775 3.99059 10.1213 3.9906 6.40816 4.45535L6.40792 4.45547C5.38628 4.58294 4.58183 5.38826 4.4543 6.40921L4.45418 6.40933C4.00395 10.0064 3.98998 13.6439 4.41207 17.2436L4.45418 17.5918L4.4543 17.5921C4.58178 18.6137 5.38706 19.4183 6.40804 19.5458C10.1212 20.0106 13.8775 20.0106 17.5907 19.5458L17.5909 19.5457C18.6125 19.4182 19.4171 18.613 19.5446 17.5921V17.5918C20.0094 13.8787 20.0094 10.1225 19.5446 6.40933L19.5445 6.40908C19.417 5.38749 18.6118 4.58301 17.5909 4.45547L17.5907 4.45535Z" fill="currentColor"/>
</svg>
