<svg width="24" height="24" viewBox="0 0 24 24" fill="none" xmlns="http://www.w3.org/2000/svg">
<path d="M15 6.25C15.4142 6.25 15.75 6.58579 15.75 7C15.75 7.41421 15.4142 7.75 15 7.75H9C8.93994 7.75 8.88091 7.7544 8.82312 7.76257L17.5303 16.4697C17.8232 16.7626 17.8232 17.2374 17.5303 17.5303C17.2374 17.8232 16.7626 17.8232 16.4697 17.5303L7.76257 8.82312C7.7544 8.88091 7.75 8.93994 7.75 9V15C7.75 15.4142 7.41421 15.75 7 15.75C6.58579 15.75 6.25 15.4142 6.25 15V9C6.25 7.48079 7.48079 6.25 9 6.25H15Z" fill="currentColor"/>
</svg>
