<svg width="24" height="24" viewBox="0 0 24 24" fill="none" xmlns="http://www.w3.org/2000/svg">
<path d="M11.5303 7.46973C11.2374 7.17684 10.7626 7.17684 10.4697 7.46973L7.17712 10.7622C6.49428 11.4451 6.49428 12.5537 7.17712 13.2366L10.4697 16.5291C10.7626 16.8219 11.2374 16.8219 11.5303 16.5291C11.8232 16.2362 11.8232 15.7613 11.5303 15.4684L8.81189 12.75H17C17.4142 12.75 17.75 12.4142 17.75 12C17.75 11.5858 17.4142 11.25 17 11.25H8.81067L11.5303 8.53027C11.8232 8.23738 11.8232 7.76262 11.5303 7.46973Z" fill="currentColor"/>
<path fill-rule="evenodd" clip-rule="evenodd" d="M12 2.25C6.61522 2.25 2.25 6.61522 2.25 12C2.25 17.3848 6.61522 21.75 12 21.75C17.3848 21.75 21.75 17.3848 21.75 12C21.75 6.61522 17.3848 2.25 12 2.25ZM12 3.75C16.5563 3.75 20.25 7.44365 20.25 12C20.25 16.5563 16.5563 20.25 12 20.25C7.44365 20.25 3.75 16.5563 3.75 12C3.75 7.44365 7.44365 3.75 12 3.75Z" fill="currentColor"/>
</svg>
