<svg width="24" height="24" viewBox="0 0 24 24" fill="none" xmlns="http://www.w3.org/2000/svg">
<path d="M16.0303 7.96975C15.7374 7.67687 15.2626 7.67688 14.9698 7.96975L8.76272 14.1768C8.75456 14.119 8.75003 14.06 8.75003 14V10C8.75003 9.58583 8.41422 9.25005 8.00003 9.25003C7.58581 9.25003 7.25003 9.58581 7.25003 10V14C7.25003 15.5192 8.48081 16.75 10 16.75H14C14.4142 16.75 14.75 16.4142 14.75 16C14.75 15.5858 14.4142 15.25 14 15.25H10C9.94002 15.25 9.88101 15.2455 9.82327 15.2373L16.0303 9.0303C16.3232 8.73741 16.3232 8.26264 16.0303 7.96975Z" fill="currentColor"/>
<path fill-rule="evenodd" clip-rule="evenodd" d="M17.7777 2.96707C13.9411 2.48689 10.06 2.48689 6.22341 2.96707L6.22329 2.96695C4.52191 3.17944 3.17961 4.51988 2.96695 6.22305L2.92337 6.58291C2.48722 10.3024 2.50172 14.0612 2.96695 17.7781C3.17951 19.4795 4.51999 20.8215 6.22317 21.0341L6.22305 21.0342C10.0599 21.5144 13.9413 21.5144 17.7781 21.0342C19.4795 20.8216 20.8217 19.4811 21.0342 17.7779L21.0341 17.7777C21.5143 13.9411 21.5143 10.0599 21.0341 6.22329C20.8216 4.5218 19.4811 3.17959 17.7777 2.96707ZM6.40933 4.45535C10.1225 3.99059 13.8787 3.9906 17.5918 4.45535L17.5921 4.45547C18.6137 4.58294 19.4182 5.38826 19.5457 6.40921L19.5458 6.40933C19.996 10.0064 20.01 13.6439 19.5879 17.2436L19.5458 17.5918L19.5457 17.5921C19.4182 18.6137 18.6129 19.4183 17.5919 19.5458C13.8788 20.0106 10.1225 20.0106 6.40933 19.5458L6.40908 19.5457C5.38747 19.4182 4.58287 18.613 4.45535 17.5921V17.5918C3.9906 13.8787 3.99059 10.1225 4.45535 6.40933L4.45547 6.40908C4.58296 5.38749 5.38817 4.58301 6.40908 4.45547L6.40933 4.45535Z" fill="currentColor"/>
</svg>
