<svg width="24" height="24" viewBox="0 0 24 24" fill="none" xmlns="http://www.w3.org/2000/svg">
<path d="M14.0001 7.24991C15.5192 7.24995 16.7501 8.48073 16.7501 9.99991V13.9999C16.7501 14.4141 16.4143 14.7499 16.0001 14.7499C15.5859 14.7499 15.2501 14.4141 15.2501 13.9999V9.99991C15.2501 9.93986 15.2456 9.88081 15.2374 9.82303L9.03035 16.0302C8.73747 16.3231 8.2627 16.3231 7.9698 16.0302C7.67691 15.7373 7.67691 15.2625 7.9698 14.9696L14.1768 8.76248C14.1191 8.75432 14.0601 8.74991 14.0001 8.74991H10.0001C9.58586 8.74991 9.25008 8.41412 9.25008 7.99991C9.25009 7.58571 9.58587 7.24991 10.0001 7.24991H14.0001Z" fill="currentColor"/>
<path fill-rule="evenodd" clip-rule="evenodd" d="M6.22347 2.96707C10.0601 2.48689 13.9412 2.48689 17.7778 2.96707L17.7779 2.96695C19.4793 3.17944 20.8216 4.51985 21.0343 6.22305L21.0778 6.58292C21.514 10.3025 21.4995 14.0612 21.0343 17.7781C20.8217 19.4795 19.4812 20.8215 17.778 21.0341L17.7782 21.0342C13.9413 21.5145 10.0599 21.5145 6.2231 21.0342C4.52171 20.8216 3.17954 19.4811 2.967 17.7779L2.96712 17.7777C2.48693 13.9411 2.48692 10.06 2.96712 6.2233C3.17961 4.52177 4.52012 3.1796 6.22347 2.96707ZM17.5919 4.45535C13.8787 3.9906 10.1225 3.9906 6.40938 4.45535L6.40914 4.45547C5.38748 4.58295 4.58303 5.38823 4.45552 6.40921L4.4554 6.40933C4.00517 10.0064 3.9912 13.6439 4.41329 17.2436L4.4554 17.5918L4.45552 17.5921C4.58301 18.6137 5.38829 19.4183 6.40926 19.5458C10.1224 20.0106 13.8787 20.0106 17.5919 19.5458L17.5921 19.5457C18.6137 19.4182 19.4183 18.613 19.5459 17.5921V17.5918C20.0106 13.8787 20.0106 10.1225 19.5459 6.40933L19.5457 6.40909C19.4183 5.38746 18.6131 4.58301 17.5921 4.45547L17.5919 4.45535Z" fill="currentColor"/>
</svg>
