<svg width="24" height="24" viewBox="0 0 24 24" fill="none" xmlns="http://www.w3.org/2000/svg">
<path d="M10.4697 5.46844C10.7625 5.17555 11.2374 5.17556 11.5303 5.46844C11.8232 5.76133 11.8232 6.23611 11.5303 6.52899L6.94402 11.1153C6.90136 11.1579 6.86264 11.2031 6.82744 11.2499H18C18.4142 11.25 18.75 11.5858 18.75 11.9999C18.75 12.4141 18.4142 12.7499 18 12.7499H6.82829C6.86326 12.7964 6.90173 12.8411 6.94402 12.8834L11.5303 17.4697C11.8232 17.7626 11.8232 18.2374 11.5303 18.5303C11.2374 18.8232 10.7625 18.8232 10.4697 18.5303L5.88347 13.944C4.80933 12.8699 4.80933 11.1288 5.88347 10.0546L10.4697 5.46844Z" fill="currentColor"/>
</svg>
