<svg width="24" height="24" viewBox="0 0 24 24" fill="none" xmlns="http://www.w3.org/2000/svg">
<path d="M6.46978 6.46967C6.76267 6.17678 7.23743 6.17678 7.53032 6.46967L16.2374 15.1767C16.2455 15.1189 16.25 15.06 16.2501 14.9999V8.99994C16.2501 8.58573 16.5858 8.24994 17.0001 8.24994C17.4142 8.24997 17.7501 8.58575 17.7501 8.99994V14.9999C17.75 16.5191 16.5192 17.7499 15.0001 17.7499H9.00005C8.58586 17.7499 8.25008 17.4141 8.25005 16.9999C8.25005 16.5857 8.58584 16.2499 9.00005 16.2499H15.0001C15.0601 16.2499 15.1191 16.2454 15.1768 16.2372L6.46978 7.53022C6.17688 7.23732 6.17688 6.76256 6.46978 6.46967Z" fill="currentColor"/>
</svg>
