<svg width="24" height="24" viewBox="0 0 24 24" fill="none" xmlns="http://www.w3.org/2000/svg">
<path d="M10.7622 7.17725C11.4451 6.49435 12.5537 6.49435 13.2366 7.17725L16.5291 10.4697C16.8219 10.7626 16.8219 11.2375 16.5291 11.5304C16.2362 11.8232 15.7613 11.8233 15.4684 11.5304L12.75 8.81201V17C12.75 17.4142 12.4142 17.75 12 17.75C11.5858 17.75 11.25 17.4142 11.25 17V8.81067L8.53027 11.5304C8.2374 11.8232 7.7626 11.8232 7.46973 11.5304C7.17684 11.2375 7.17685 10.7626 7.46973 10.4697L10.7622 7.17725Z" fill="currentColor"/>
<path fill-rule="evenodd" clip-rule="evenodd" d="M12 2.25C17.3848 2.25 21.75 6.61522 21.75 12C21.75 17.3848 17.3848 21.75 12 21.75C6.61522 21.75 2.25 17.3848 2.25 12C2.25 6.61522 6.61522 2.25 12 2.25ZM12 3.75C7.44365 3.75 3.75 7.44365 3.75 12C3.75 16.5563 7.44365 20.25 12 20.25C16.5563 20.25 20.25 16.5563 20.25 12C20.25 7.44365 16.5563 3.75 12 3.75Z" fill="currentColor"/>
</svg>
