<svg width="24" height="24" viewBox="0 0 24 24" fill="none" xmlns="http://www.w3.org/2000/svg">
<path d="M10.0559 5.88348C11.13 4.80934 12.8712 4.80935 13.9453 5.88348L18.5316 10.4697C18.8245 10.7626 18.8245 11.2374 18.5316 11.5303C18.2387 11.8232 17.7638 11.8232 17.4709 11.5303L12.8846 6.94403C12.842 6.90136 12.7969 6.86254 12.75 6.82733V18.0001C12.75 18.4142 12.4142 18.7501 12 18.7501C11.5858 18.7501 11.25 18.4142 11.25 18.0001V6.82831C11.2036 6.86327 11.1589 6.90174 11.1166 6.94403L6.53027 11.5303C6.23739 11.8232 5.76261 11.8232 5.46973 11.5303C5.17684 11.2374 5.17684 10.7626 5.46973 10.4697L10.0559 5.88348Z" fill="currentColor"/>
</svg>
