<svg width="24" height="24" viewBox="0 0 24 24" fill="none" xmlns="http://www.w3.org/2000/svg">
<path d="M12 5.25C12.4142 5.25 12.75 5.58579 12.75 6V17.1715C12.7964 17.1366 12.8411 17.0982 12.8834 17.0559L17.4697 12.4697C17.7626 12.1768 18.2375 12.1768 18.5303 12.4697C18.8232 12.7626 18.8232 13.2374 18.5303 13.5303L13.944 18.1166C12.8699 19.1907 11.1288 19.1907 10.0546 18.1166L5.46846 13.5303C5.17557 13.2374 5.17557 12.7626 5.46846 12.4697C5.76135 12.1768 6.23611 12.1768 6.52901 12.4697L11.1153 17.0559C11.1579 17.0985 11.2031 17.1372 11.25 17.1724V6C11.25 5.5858 11.5858 5.25002 12 5.25Z" fill="currentColor"/>
</svg>
