<svg width="24" height="24" viewBox="0 0 24 24" fill="none" xmlns="http://www.w3.org/2000/svg">
<path d="M12.4697 7.46975C12.7626 7.17687 13.2373 7.17688 13.5302 7.46975L16.8228 10.7622C17.5057 11.4451 17.5057 12.5537 16.8228 13.2366L13.5302 16.5291C13.2373 16.8219 12.7626 16.8219 12.4697 16.5291C12.1768 16.2362 12.1768 15.7613 12.4697 15.4684L15.1881 12.75H6.99996C6.58576 12.75 6.24996 12.4142 6.24996 12C6.24996 11.5858 6.58576 11.25 6.99996 11.25H15.1893L12.4697 8.5303C12.1768 8.23741 12.1768 7.76264 12.4697 7.46975Z" fill="currentColor"/>
<path fill-rule="evenodd" clip-rule="evenodd" d="M6.22225 2.96707C10.0589 2.48689 13.94 2.48689 17.7766 2.96707L17.7767 2.96695C19.4781 3.17944 20.8204 4.51988 21.033 6.22305L21.0766 6.58291C21.5128 10.3024 21.4983 14.0612 21.033 17.7781C20.8205 19.4795 19.48 20.8215 17.7768 21.0341L17.7769 21.0342C13.9401 21.5144 10.0587 21.5144 6.22188 21.0342C4.52048 20.8216 3.17831 19.4811 2.96578 17.7779L2.9659 17.7777C2.48572 13.9411 2.4857 10.0599 2.9659 6.22329C3.17842 4.5218 4.51892 3.17959 6.22225 2.96707ZM17.5907 4.45535C13.8775 3.99059 10.1213 3.9906 6.40816 4.45535L6.40792 4.45547C5.38628 4.58294 4.58183 5.38826 4.4543 6.40921L4.45418 6.40933C4.00395 10.0064 3.98998 13.6439 4.41207 17.2436L4.45418 17.5918L4.4543 17.5921C4.58178 18.6137 5.38706 19.4183 6.40804 19.5458C10.1212 20.0106 13.8775 20.0106 17.5907 19.5458L17.5909 19.5457C18.6125 19.4182 19.4171 18.613 19.5446 17.5921V17.5918C20.0094 13.8787 20.0094 10.1225 19.5446 6.40933L19.5445 6.40908C19.417 5.38749 18.6118 4.58301 17.5909 4.45547L17.5907 4.45535Z" fill="currentColor"/>
</svg>
