<svg width="24" height="24" viewBox="0 0 24 24" fill="none" xmlns="http://www.w3.org/2000/svg">
<path d="M15 6.25C16.5192 6.25 17.75 7.48079 17.75 9V15C17.75 15.4142 17.4142 15.75 17 15.75C16.5858 15.75 16.25 15.4142 16.25 15V9C16.25 8.93994 16.2455 8.88091 16.2373 8.82312L7.53027 17.5303C7.23738 17.8232 6.76262 17.8232 6.46973 17.5303C6.17684 17.2374 6.17684 16.7626 6.46973 16.4697L15.1768 7.76257C15.119 7.75441 15.06 7.75 15 7.75H9C8.58579 7.75 8.25 7.41421 8.25 7C8.25 6.58579 8.58579 6.25 9 6.25H15Z" fill="currentColor"/>
</svg>
