<svg width="24" height="24" viewBox="0 0 24 24" fill="none" xmlns="http://www.w3.org/2000/svg">
<path d="M9.99993 7.24991C8.48076 7.24995 7.24995 8.48073 7.24993 9.99991V13.9999C7.24993 14.4141 7.58576 14.7499 7.99993 14.7499C8.41415 14.7499 8.74993 14.4141 8.74993 13.9999V9.99991C8.74993 9.93986 8.75446 9.88081 8.76263 9.82303L14.9697 16.0302C15.2625 16.3231 15.7373 16.3231 16.0302 16.0302C16.3231 15.7373 16.3231 15.2625 16.0302 14.9696L9.82318 8.76248C9.88091 8.75432 9.93993 8.74991 9.99993 8.74991H13.9999C14.4141 8.74991 14.7499 8.41412 14.7499 7.99991C14.7499 7.58571 14.4141 7.24991 13.9999 7.24991H9.99993Z" fill="currentColor"/>
<path fill-rule="evenodd" clip-rule="evenodd" d="M17.7765 2.96707C13.9399 2.48689 10.0588 2.48689 6.22222 2.96707L6.2221 2.96695C4.52069 3.17944 3.1784 4.51985 2.96575 6.22305L2.92217 6.58292C2.48602 10.3025 2.50052 14.0612 2.96575 17.7781C3.17833 19.4795 4.5188 20.8215 6.22198 21.0341L6.22186 21.0342C10.0587 21.5145 13.9401 21.5145 17.7769 21.0342C19.4783 20.8216 20.8205 19.4811 21.033 17.7779L21.0329 17.7777C21.5131 13.9411 21.5131 10.06 21.0329 6.2233C20.8204 4.52177 19.4799 3.1796 17.7765 2.96707ZM6.40814 4.45535C10.1213 3.9906 13.8775 3.9906 17.5906 4.45535L17.5909 4.45547C18.6125 4.58295 19.417 5.38823 19.5445 6.40921L19.5446 6.40933C19.9948 10.0064 20.0088 13.6439 19.5867 17.2436L19.5446 17.5918L19.5445 17.5921C19.417 18.6137 18.6117 19.4183 17.5908 19.5458C13.8776 20.0106 10.1213 20.0106 6.40814 19.5458L6.40789 19.5457C5.38627 19.4182 4.58169 18.613 4.45416 17.5921V17.5918C3.9894 13.8787 3.9894 10.1225 4.45416 6.40933L4.45428 6.40909C4.58175 5.38746 5.38695 4.58301 6.40789 4.45547L6.40814 4.45535Z" fill="currentColor"/>
</svg>
