<svg width="24" height="24" viewBox="0 0 24 24" fill="none" xmlns="http://www.w3.org/2000/svg">
<path d="M12.4697 5.46967C12.7626 5.17678 13.2374 5.17678 13.5303 5.46967L18.1166 10.0558C19.1907 11.13 19.1907 12.8711 18.1166 13.9453L13.5303 18.5316C13.2374 18.8244 12.7626 18.8244 12.4697 18.5316C12.1768 18.2387 12.1768 17.7638 12.4697 17.4709L17.0559 12.8846C17.0986 12.8419 17.1374 12.7968 17.1726 12.7499H6C5.58579 12.7499 5.25 12.4142 5.25 11.9999C5.25 11.5857 5.58579 11.2499 6 11.2499H17.1715C17.1366 11.2035 17.0982 11.1588 17.0559 11.1165L12.4697 6.53021C12.1768 6.23732 12.1768 5.76256 12.4697 5.46967Z" fill="currentColor"/>
</svg>
