<svg width="24" height="24" viewBox="0 0 24 24" fill="none" xmlns="http://www.w3.org/2000/svg">
<path d="M14 7.25C15.5192 7.25 16.75 8.48079 16.75 10V14C16.75 14.4142 16.4142 14.75 16 14.75C15.5858 14.75 15.25 14.4142 15.25 14V10C15.25 9.93994 15.2455 9.88091 15.2373 9.82312L9.03027 16.0303C8.73738 16.3232 8.26262 16.3232 7.96973 16.0303C7.67684 15.7374 7.67683 15.2626 7.96973 14.9697L14.1768 8.76257C14.119 8.75441 14.06 8.75 14 8.75H10C9.58579 8.75 9.25 8.41421 9.25 8C9.25 7.58579 9.58579 7.25 10 7.25H14Z" fill="currentColor"/>
<path fill-rule="evenodd" clip-rule="evenodd" d="M12 2.25C17.3848 2.25 21.75 6.61522 21.75 12C21.75 17.3848 17.3848 21.75 12 21.75C6.61522 21.75 2.25 17.3848 2.25 12C2.25 6.61522 6.61522 2.25 12 2.25ZM12 3.75C7.44365 3.75 3.75 7.44365 3.75 12C3.75 16.5563 7.44365 20.25 12 20.25C16.5563 20.25 20.25 16.5563 20.25 12C20.25 7.44365 16.5563 3.75 12 3.75Z" fill="currentColor"/>
</svg>
