<svg width="24" height="24" viewBox="0 0 24 24" fill="none" xmlns="http://www.w3.org/2000/svg">
<path d="M9.99998 10.25C10.4142 10.25 10.75 10.5858 10.75 11V15C10.75 15.4142 10.4142 15.75 9.99998 15.75C9.58578 15.75 9.24998 15.4142 9.24998 15V11C9.24998 10.5858 9.58578 10.25 9.99998 10.25Z" fill="currentColor"/>
<path d="M14 10.25C14.4142 10.25 14.75 10.5858 14.75 11V15C14.75 15.4142 14.4142 15.75 14 15.75C13.5858 15.75 13.25 15.4142 13.25 15V11C13.25 10.5858 13.5858 10.25 14 10.25Z" fill="currentColor"/>
<path fill-rule="evenodd" clip-rule="evenodd" d="M13.4387 1.25C14.7005 1.25 15.8004 2.10945 16.1063 3.33313L16.6705 5.58997C17.8349 5.75285 18.993 5.97672 20.1398 6.26196C20.4872 6.32746 20.75 6.63234 20.75 6.99878C20.75 7.41298 20.4142 7.74878 20 7.74878H19.995C19.9337 7.74878 19.8726 7.74118 19.8131 7.72632C19.4719 7.64103 19.1295 7.56161 18.7864 7.48767C19.0032 10.9336 18.8124 14.3908 18.2171 17.7871L18.1551 18.1329C17.8779 19.6426 16.703 20.8246 15.2031 21.1243L15.203 21.1241C13.1005 21.5448 10.9371 21.5471 8.83397 21.1311C8.82034 21.1292 8.80671 21.127 8.7932 21.1243C7.31557 20.8293 6.15387 19.6795 5.8535 18.2035L5.83983 18.1329C5.19603 14.6259 4.98434 11.0511 5.20848 7.48853C4.86537 7.56254 4.52314 7.64217 4.18199 7.72754C3.78019 7.82805 3.37299 7.58381 3.27244 7.18201C3.17193 6.7802 3.41618 6.37302 3.81798 6.27246C4.97846 5.98207 6.15059 5.75448 7.32933 5.5896L7.89366 3.33313C8.19958 2.10945 9.29943 1.25001 10.5613 1.25H13.4387ZM17.2635 7.19763C13.7764 6.62015 10.2179 6.62022 6.73143 7.19824C6.47434 10.7661 6.67035 14.3495 7.31517 17.8621L7.33226 17.9459C7.52327 18.8002 8.20175 19.4688 9.06871 19.6492C9.07652 19.6505 9.08437 19.6518 9.09215 19.6533C11.0125 20.0376 12.9887 20.0376 14.909 19.6533H14.9093C15.8119 19.473 16.5145 18.7624 16.6798 17.8621L16.7397 17.5282C17.3367 14.1224 17.5125 10.6527 17.2635 7.19763ZM10.5613 2.75C9.98812 2.75001 9.48794 3.1406 9.34886 3.6969L8.92174 5.40527C10.9695 5.21757 13.0303 5.21772 15.0782 5.40552L14.6511 3.6969C14.512 3.14059 14.0119 2.75 13.4387 2.75H10.5613Z" fill="currentColor"/>
</svg>
