<svg width="24" height="24" viewBox="0 0 24 24" fill="none" xmlns="http://www.w3.org/2000/svg">
<path d="M10.9994 14.7495C10.8006 14.7495 10.6094 14.6707 10.4694 14.5295L8.46938 12.5295C8.17688 12.237 8.17688 11.762 8.46938 11.4682C8.76188 11.1757 9.23688 11.1757 9.53063 11.4682L11.0006 12.9382L15.4706 8.46822C15.7631 8.17572 16.2381 8.17572 16.5319 8.46822C16.8244 8.76072 16.8244 9.23572 16.5319 9.52947L11.5319 14.5295C11.3906 14.6707 11.2006 14.7495 11.0019 14.7495H10.9994Z" fill="currentColor"/>
<path d="M11.9994 21.3932C10.0694 21.3932 8.13813 21.2732 6.22188 21.0332C4.51813 20.8207 3.17938 19.4807 2.96563 17.777C2.48688 13.9445 2.48688 10.0557 2.96688 6.22197C3.17938 4.51822 4.51813 3.17947 6.22188 2.96697C10.0556 2.48822 13.9431 2.48822 17.7769 2.96697C19.4806 3.17947 20.8194 4.51947 21.0331 6.22322C21.5119 10.057 21.5119 13.9445 21.0331 17.7782C20.8206 19.482 19.4806 20.8207 17.7769 21.0345C15.8594 21.2745 13.9294 21.3945 11.9994 21.3945V21.3932ZM17.5919 19.5457C18.6144 19.4182 19.4181 18.6145 19.5456 17.592C20.0094 13.882 20.0094 10.1195 19.5456 6.40822C19.4181 5.38572 18.6144 4.58197 17.5919 4.45447C13.8819 3.99072 10.1194 3.99072 6.40813 4.45447C5.38563 4.58197 4.58188 5.38572 4.45438 6.40822C3.99063 10.1182 3.99063 13.8807 4.45438 17.592C4.58188 18.6145 5.38563 19.4182 6.40813 19.5457C10.1181 20.0095 13.8806 20.0095 17.5919 19.5457Z" fill="currentColor"/>
</svg>
