<svg width="24" height="24" viewBox="0 0 24 24" fill="none" xmlns="http://www.w3.org/2000/svg">
<path d="M20.25 12C20.25 7.44365 16.5563 3.75 12 3.75C7.44365 3.75 3.75 7.44365 3.75 12C3.75 16.5563 7.44365 20.25 12 20.25C16.5563 20.25 20.25 16.5563 20.25 12ZM21.75 12C21.75 17.3848 17.3848 21.75 12 21.75C6.61522 21.75 2.25 17.3848 2.25 12C2.25 6.61522 6.61522 2.25 12 2.25C17.3848 2.25 21.75 6.61522 21.75 12Z" fill="currentColor"/>
<path d="M14.9697 8.96973C15.2626 8.67683 15.7374 8.67683 16.0303 8.96973C16.3232 9.26262 16.3232 9.73738 16.0303 10.0303L11.0303 15.0303C10.7374 15.3232 10.2626 15.3232 9.96973 15.0303L7.96973 13.0303C7.67683 12.7374 7.67683 12.2626 7.96973 11.9697C8.26262 11.6768 8.73738 11.6768 9.03027 11.9697L10.5 13.4395L14.9697 8.96973Z" fill="currentColor"/>
</svg>
