<svg width="24" height="24" viewBox="0 0 24 24" fill="none" xmlns="http://www.w3.org/2000/svg">
<path d="M16 15.2463C16 13.4538 14.5462 12 12.7537 12H12.245C10.4525 12 8.99872 13.4538 8.99872 15.2463C8.99872 15.6925 9.29498 16.085 9.72373 16.2075C11.5375 16.7263 13.46 16.7263 15.2737 16.2075C15.7025 16.085 15.9987 15.6925 15.9987 15.2463H16Z" fill="currentColor"/>
<path d="M12.5 11C13.6045 11 14.5 10.1046 14.5 9.00002C14.5 7.89545 13.6045 7.00002 12.5 7.00002C11.3954 7.00002 10.5 7.89545 10.5 9.00002C10.5 10.1046 11.3954 11 12.5 11Z" fill="currentColor"/>
<path fill-rule="evenodd" clip-rule="evenodd" d="M4.6725 9.56253C4.58834 11.1862 4.58834 12.8135 4.67245 14.4375C4.69836 14.9379 4.73226 15.438 4.77414 15.9375H6.27948C6.23621 15.438 6.20119 14.9379 6.17442 14.4375C6.08755 12.8136 6.08759 11.1862 6.17453 9.56253H4.6725Z" fill="currentColor"/>
<path fill-rule="evenodd" clip-rule="evenodd" d="M16.8741 2.91623C13.9747 2.46958 11.0239 2.46969 8.12449 2.91635C6.46701 3.17115 5.18107 4.49442 4.97324 6.15695C4.92513 6.54172 4.88179 6.92695 4.84323 7.31253C4.81823 7.56239 4.79525 7.81239 4.77426 8.06253H6.27968C6.30136 7.81238 6.32511 7.56238 6.35094 7.31253C6.38437 6.98906 6.42127 6.66586 6.46165 6.34299C6.58633 5.34568 7.35806 4.5516 8.35288 4.39877C11.1009 3.97543 13.8977 3.97544 16.6457 4.39877C17.6388 4.55149 18.4109 5.34524 18.537 6.34299C19.0067 10.1012 19.0067 13.9026 18.537 17.6595C18.4123 18.6568 17.6406 19.4509 16.6457 19.6037C13.8977 20.0271 11.1008 20.0271 8.35276 19.6037C7.35936 19.451 6.58723 18.6569 6.46152 17.6588C6.45231 17.585 6.44327 17.5113 6.43442 17.4375H4.92408C4.93991 17.5738 4.95634 17.7101 4.97336 17.8463C5.18267 19.508 6.46803 20.8314 8.12449 21.0863C11.0239 21.5329 13.9746 21.5328 16.874 21.0861C18.5316 20.8314 19.8177 19.5082 20.0255 17.8455L20.0696 17.4817C20.5102 13.7197 20.4954 9.91681 20.0254 6.15634L20.0147 6.0787C19.7758 4.4534 18.5048 3.16701 16.8741 2.91623Z" fill="currentColor"/>
</svg>
