<svg width="24" height="24" viewBox="0 0 24 24" fill="none" xmlns="http://www.w3.org/2000/svg">
<path d="M12 15C13.6569 15 15 13.6569 15 12C15 10.3431 13.6569 9 12 9C10.3431 9 9 10.3431 9 12C9 13.6569 10.3431 15 12 15Z" fill="currentColor"/>
<path fill-rule="evenodd" clip-rule="evenodd" d="M12 2.25C12.4142 2.25 12.75 2.58579 12.75 3V4.28589C16.4315 4.63942 19.3605 7.56851 19.714 11.25H21C21.4142 11.25 21.75 11.5858 21.75 12C21.75 12.4142 21.4142 12.75 21 12.75H19.714C19.3605 16.4315 16.4315 19.3605 12.75 19.714V21C12.75 21.4142 12.4142 21.75 12 21.75C11.5858 21.75 11.25 21.4142 11.25 21V19.714C7.56852 19.3605 4.63954 16.4315 4.28601 12.75H3C2.58579 12.75 2.25 12.4142 2.25 12C2.25 11.5858 2.58579 11.25 3 11.25H4.28601C4.63954 7.56851 7.56851 4.63942 11.25 4.28589V3C11.25 2.58579 11.5858 2.25 12 2.25ZM12 5.75C8.54822 5.75 5.75 8.54822 5.75 12C5.75 15.4518 8.54822 18.25 12 18.25C15.4518 18.25 18.25 15.4518 18.25 12C18.25 8.54822 15.4518 5.75 12 5.75Z" fill="currentColor"/>
</svg>
