<svg width="24" height="24" viewBox="0 0 24 24" fill="none" xmlns="http://www.w3.org/2000/svg">
<path d="M16.4697 6.46967C16.7626 6.17678 17.2374 6.17678 17.5303 6.46967C17.8232 6.76256 17.8232 7.23732 17.5303 7.53021L13.0605 11.9999L17.5303 16.4697C17.8232 16.7626 17.8232 17.2373 17.5303 17.5302C17.2374 17.8231 16.7626 17.8231 16.4697 17.5302L12 13.0605L7.53027 17.5302C7.23737 17.8231 6.76261 17.8231 6.46972 17.5302C6.17683 17.2373 6.17683 16.7626 6.46972 16.4697L10.9394 11.9999L6.46972 7.53021C6.17683 7.23732 6.17683 6.76256 6.46972 6.46967C6.76261 6.17678 7.23737 6.17678 7.53027 6.46967L12 10.9394L16.4697 6.46967Z" fill="currentColor"/>
</svg>
