<svg width="24" height="24" viewBox="0 0 24 24" fill="none" xmlns="http://www.w3.org/2000/svg">
<path d="M14.4697 8.46968C14.7626 8.17679 15.2374 8.17679 15.5303 8.46968C15.8232 8.76257 15.8232 9.23733 15.5303 9.53022L13.0605 12L15.5303 14.4697C15.8232 14.7626 15.8232 15.2373 15.5303 15.5302C15.2374 15.8231 14.7626 15.8231 14.4697 15.5302L12 13.0605L9.53027 15.5302C9.23738 15.8231 8.76262 15.8231 8.46972 15.5302C8.17684 15.2373 8.17683 14.7626 8.46972 14.4697L10.9394 12L8.46972 9.53022C8.17684 9.23733 8.17683 8.76257 8.46972 8.46968C8.76261 8.17679 9.23738 8.17679 9.53027 8.46968L12 10.9394L14.4697 8.46968Z" fill="currentColor"/>
<path d="M6.22346 2.96707C10.0601 2.48689 13.9412 2.48689 17.7778 2.96707L17.7779 2.96695C19.4793 3.17943 20.8216 4.51985 21.0342 6.22305L21.0778 6.58292C21.514 10.3025 21.4995 14.0612 21.0342 17.7781C20.8217 19.4795 19.4812 20.8215 17.778 21.0341L17.7781 21.0342C13.9413 21.5145 10.0599 21.5145 6.22309 21.0342C4.52169 20.8216 3.17952 19.4811 2.96699 17.7779L2.96711 17.7777C2.48692 13.9411 2.48691 10.06 2.96711 6.2233C3.1796 4.52177 4.52011 3.1796 6.22346 2.96707ZM17.5919 4.45535C13.8787 3.9906 10.1225 3.9906 6.40937 4.45535L6.40913 4.45547C5.38747 4.58295 4.58302 5.38823 4.45551 6.40921L4.45539 6.40933C4.00516 10.0064 3.99118 13.6439 4.41328 17.2436L4.45539 17.5918L4.45551 17.5921C4.58299 18.6137 5.38827 19.4183 6.40925 19.5458C10.1224 20.0106 13.8787 20.0106 17.5919 19.5458L17.5921 19.5457C18.6138 19.4182 19.4183 18.613 19.5458 17.5921V17.5918C20.0106 13.8787 20.0106 10.1225 19.5458 6.40933L19.5457 6.40909C19.4183 5.38745 18.6131 4.583 17.5921 4.45547L17.5919 4.45535Z" fill="currentColor"/>
</svg>
