<svg width="24" height="24" viewBox="0 0 24 24" fill="none" xmlns="http://www.w3.org/2000/svg">
<path d="M10.615 5.35621C10.9704 5.1436 11.431 5.25942 11.6437 5.61488C11.8563 5.97035 11.7405 6.43094 11.385 6.64356L10.7225 7.0398L10.7224 7.03968C8.96608 8.09095 7.47743 9.5318 6.36643 11.2499H18C18.4142 11.2499 18.75 11.5857 18.75 11.9999C18.75 12.4141 18.4142 12.7499 18 12.7499H6.36643C7.47734 14.4678 8.96721 15.9086 10.7225 16.96L11.385 17.3562C11.7405 17.5688 11.8563 18.0294 11.6437 18.3849C11.431 18.7404 10.9704 18.8562 10.615 18.6436L9.95249 18.2473L9.95212 18.2471C7.96965 17.0597 6.29143 15.426 5.05015 13.4767C4.47592 12.5758 4.4758 11.4238 5.05002 10.523C6.2912 8.5738 7.96827 6.94007 9.95225 5.75257L9.95249 5.75245L10.615 5.35621Z" fill="currentColor"/>
</svg>
