<svg width="24" height="24" viewBox="0 0 24 24" fill="none" xmlns="http://www.w3.org/2000/svg">
<path d="M16.4698 6.46966C16.7627 6.17679 17.2374 6.17677 17.5303 6.46966C17.8232 6.76254 17.8232 7.23731 17.5303 7.5302L8.53031 16.5302C8.51881 16.5417 8.50683 16.5526 8.49479 16.5632C10.4823 16.9894 12.545 16.9211 14.5015 16.3628L14.7928 16.2791C15.1908 16.1647 15.6063 16.3946 15.7207 16.7927C15.8352 17.1907 15.6053 17.6063 15.2072 17.7208L14.9161 17.8045L14.9146 17.8049C12.6884 18.4403 10.3392 18.5104 8.07975 18.0084L8.07938 18.0082C7.03839 17.7763 6.22366 16.9636 5.99162 15.9202C5.48953 13.6608 5.5595 11.3115 6.19499 9.08526L6.19547 9.08392L6.27921 8.79266C6.39368 8.39461 6.80914 8.16469 7.20719 8.27911C7.60527 8.39358 7.83521 8.80912 7.72074 9.20721L7.637 9.49847C7.07877 11.4549 7.01029 13.5175 7.43656 15.5051C7.44717 15.493 7.45825 15.4812 7.46977 15.4697L16.4698 6.46966Z" fill="currentColor"/>
</svg>
