<svg width="24" height="24" viewBox="0 0 24 24" fill="none" xmlns="http://www.w3.org/2000/svg">
<path d="M8.07975 5.99169C10.2686 5.50529 12.5417 5.5558 14.7056 6.1372L14.9146 6.19506L14.9161 6.19555L15.2072 6.27929C15.6053 6.39376 15.8352 6.8092 15.7207 7.20727C15.6063 7.60534 15.1908 7.83527 14.7928 7.72082L14.5015 7.63708C12.545 7.07881 10.4822 7.01029 8.49454 7.43664C8.50666 7.4473 8.51874 7.45827 8.53031 7.46984L17.5303 16.4698C17.8232 16.7627 17.8232 17.2375 17.5303 17.5304C17.2374 17.8233 16.7627 17.8232 16.4698 17.5304L7.46976 8.53039C7.45819 8.51882 7.44722 8.50674 7.43656 8.49462C7.01022 10.4823 7.07872 12.545 7.637 14.5016L7.72074 14.7928C7.83519 15.1909 7.60526 15.6064 7.20719 15.7208C6.80913 15.8353 6.39368 15.6053 6.27921 15.2073L6.19547 14.9161L6.19498 14.9147C5.5595 12.6885 5.48952 10.3392 5.99162 8.07983L5.99174 8.07946C6.22365 7.03849 7.03641 6.22375 8.07975 5.99169Z" fill="currentColor"/>
</svg>
