<svg width="24" height="24" viewBox="0 0 24 24" fill="none" xmlns="http://www.w3.org/2000/svg">
<path d="M9.08532 6.19508C11.3115 5.55959 13.6607 5.48962 15.9202 5.99171L15.9205 5.99183C16.929 6.21649 17.7251 6.9862 17.9849 7.98267L18.0084 8.07972C18.5105 10.3391 18.4404 12.6885 17.8049 14.9147L17.8046 14.9161L17.7208 15.2073C17.6063 15.6054 17.1908 15.8353 16.7927 15.7208C16.3947 15.6064 16.1647 15.1909 16.2792 14.7929L16.3629 14.5016C16.9212 12.5451 16.9895 10.4825 16.5632 8.49488C16.5526 8.50692 16.5418 8.5189 16.5303 8.5304L7.53027 17.5304C7.23738 17.8233 6.76261 17.8233 6.46972 17.5304C6.17683 17.2375 6.17685 16.7628 6.46972 16.4699L15.4697 7.46986C15.4812 7.45834 15.4931 7.44726 15.5051 7.43665C13.5176 7.01037 11.4549 7.07871 9.49841 7.63697L9.49853 7.63709L9.20727 7.72083C8.80919 7.8353 8.39364 7.60536 8.27917 7.20728C8.16475 6.80923 8.39467 6.39377 8.79272 6.2793L9.08398 6.19556L9.08532 6.19508Z" fill="currentColor"/>
</svg>
