<svg width="24" height="24" viewBox="0 0 24 24" fill="none" xmlns="http://www.w3.org/2000/svg">
<path d="M10.5231 5.05012C11.424 4.47589 12.576 4.47577 13.4769 5.04999L13.4768 5.05012C15.3651 6.25251 16.9573 7.86385 18.1346 9.76716L18.2473 9.95222L18.2474 9.95246L18.6437 10.6149C18.8563 10.9704 18.7405 11.431 18.385 11.6436C18.0295 11.8562 17.5689 11.7404 17.3563 11.385L16.9601 10.7225C15.9088 8.96618 14.4681 7.47727 12.75 6.36628V17.9999C12.75 18.4142 12.4142 18.7499 12 18.7499C11.5858 18.7499 11.25 18.4142 11.25 17.9999V6.36628C9.53209 7.47718 8.09119 8.96705 7.03979 10.7224L6.64367 11.385C6.43105 11.7404 5.97046 11.8562 5.61498 11.6436C5.25953 11.431 5.1437 10.9704 5.35632 10.6149L5.75256 9.95246L5.7528 9.95209C6.94016 7.96965 8.57375 6.29139 10.5231 5.05012Z" fill="currentColor"/>
</svg>
