<svg width="24" height="24" viewBox="0 0 24 24" fill="none" xmlns="http://www.w3.org/2000/svg">
<path d="M16.0576 3.63602C18.5874 3.22196 20.778 5.41252 20.3639 7.94229C19.7258 11.8477 18.6991 15.681 17.299 19.3827V19.383C16.3914 21.7807 13.4009 22.5827 11.4164 20.9591L11.4159 20.9588C10.7977 20.4523 10.1937 19.9319 9.60096 19.4059C9.45143 19.2732 9.361 19.0863 9.34986 18.8868C9.33872 18.6871 9.40779 18.4913 9.54163 18.3428C9.98253 17.8537 10.25 17.2082 10.25 16.4999C10.25 14.9816 9.01828 13.7499 7.5 13.7499C6.79018 13.7499 6.14511 14.0176 5.65772 14.4578C5.50937 14.5918 5.31362 14.661 5.11402 14.6501C4.91441 14.6391 4.72746 14.5489 4.59461 14.3996C4.06655 13.8058 3.54732 13.2018 3.04114 12.584L3.04078 12.5835C1.41751 10.5993 2.21879 7.60718 4.61731 6.70084C8.31895 5.30196 12.1523 4.27531 16.0576 3.63602ZM11.75 16.4999C11.75 17.3205 11.5166 18.0879 11.1134 18.7381C11.5268 19.098 11.944 19.4523 12.3666 19.7985C13.557 20.772 15.3511 20.2915 15.896 18.8521C17.2608 15.2439 18.2616 11.5072 18.8835 7.70023V7.69998C19.1319 6.18231 17.8176 4.86797 16.2999 5.11637C12.4928 5.73958 8.75595 6.74041 5.14759 8.10404C3.70886 8.64767 3.22769 10.4426 4.20142 11.6333L4.38636 11.8577C4.67341 12.204 4.96525 12.5466 5.26111 12.8864C5.91109 12.4831 6.67881 12.2499 7.5 12.2499C9.84671 12.2499 11.75 14.1532 11.75 16.4999Z" fill="currentColor"/>
</svg>
