<svg width="24" height="24" viewBox="0 0 24 24" fill="none" xmlns="http://www.w3.org/2000/svg">
<path d="M19.6575 11.25C20.0717 11.25 20.4075 11.5858 20.4075 12C20.4075 13.5284 20.3064 15.057 20.1032 16.5752L20.0612 16.8787C19.8253 18.5283 18.5287 19.8255 16.8793 20.0601L16.8792 20.0599C13.7439 20.5079 10.5631 20.522 7.42606 20.1019L7.12259 20.0599C5.47296 19.8241 4.1757 18.5275 3.94119 16.8781L3.94131 16.8779C3.71007 15.2602 3.595 13.63 3.595 12C3.595 11.5858 3.93079 11.25 4.345 11.25C4.75921 11.25 5.095 11.5858 5.095 12C5.095 13.4622 5.19168 14.9243 5.38602 16.3761L5.42618 16.6664L5.4263 16.6669C5.56679 17.655 6.34452 18.4334 7.33487 18.5751C10.4294 19.0175 13.5718 19.0175 16.6676 18.5751L16.6681 18.575C17.6562 18.4345 18.4347 17.6567 18.5763 16.6664C18.7975 15.1193 18.9075 13.5597 18.9075 12C18.9075 11.5858 19.2433 11.25 19.6575 11.25Z" fill="currentColor"/>
<path d="M12 3.25C12.4142 3.25002 12.75 3.5858 12.75 4V12.1893L15.4696 9.46973C15.7625 9.17684 16.2374 9.17684 16.5303 9.46973C16.8232 9.76262 16.8232 10.2374 16.5303 10.5303L13.2378 13.8229C12.5549 14.5057 11.4463 14.5057 10.7635 13.8229L7.47098 10.5303C7.17809 10.2374 7.17809 9.76262 7.47098 9.46973C7.76387 9.17684 8.23863 9.17684 8.53152 9.46973L11.25 12.1881V4C11.25 3.58579 11.5858 3.25 12 3.25Z" fill="currentColor"/>
</svg>
