<svg width="24" height="24" viewBox="0 0 24 24" fill="none" xmlns="http://www.w3.org/2000/svg">
<path d="M15.25 15V9C15.25 8.58579 15.5858 8.25 16 8.25C16.4142 8.25 16.75 8.58579 16.75 9V15C16.75 15.4142 16.4142 15.75 16 15.75C15.5858 15.75 15.25 15.4142 15.25 15Z" fill="currentColor"/>
<path d="M20.25 12C20.25 7.44365 16.5563 3.75 12 3.75C7.44365 3.75 3.75 7.44365 3.75 12C3.75 16.5563 7.44365 20.25 12 20.25C16.5563 20.25 20.25 16.5563 20.25 12ZM21.75 12C21.75 17.3848 17.3848 21.75 12 21.75C6.61522 21.75 2.25 17.3848 2.25 12C2.25 6.61522 6.61522 2.25 12 2.25C17.3848 2.25 21.75 6.61522 21.75 12Z" fill="currentColor"/>
<path d="M13.8625 11.2762L13.835 11.25C12.3775 9.85875 10.6025 8.845 8.665 8.295L8.6125 8.28C8.07 8.12625 7.50625 8.4525 7.37 9C6.8775 10.9688 6.8775 13.0287 7.37 14.9987C7.50625 15.5462 8.07 15.8725 8.6125 15.7188L8.665 15.7037C10.6038 15.155 12.3787 14.14 13.835 12.7487L13.8625 12.7225C14.275 12.3287 14.275 11.67 13.8625 11.2762Z" fill="currentColor"/>
</svg>
