<svg width="24" height="24" viewBox="0 0 24 24" fill="none" xmlns="http://www.w3.org/2000/svg">
<path fill-rule="evenodd" clip-rule="evenodd" d="M21.7105 8.73852C21.7393 8.65276 21.7533 8.56135 21.7493 8.46801C21.7378 8.19562 21.5793 7.9509 21.3354 7.82898L13.6766 4.00024C12.6534 3.4887 11.4556 3.47278 10.4216 3.95239L2.6634 7.82898C2.41953 7.9509 2.26104 8.19562 2.24946 8.46801C2.23789 8.74042 2.37507 8.99773 2.60773 9.13989L4.96013 10.5773L4.40088 15.6102C4.27877 16.7007 4.81772 17.7579 5.76916 18.3024C9.62418 20.5052 14.3535 20.5088 18.2115 18.3137C18.2134 18.3127 18.2153 18.3118 18.2172 18.3108L18.2199 18.3094C18.2245 18.3071 18.2292 18.3047 18.2338 18.3021C19.186 17.7572 19.7219 16.6996 19.6017 15.6108L19.0422 10.5751L19.9722 10.0068C20.0008 10.4644 20.1204 10.9169 20.3292 11.3353C20.5386 11.7542 20.5386 12.2456 20.3292 12.6644C20.144 13.0349 20.2942 13.4854 20.6646 13.6707C21.0351 13.8558 21.4856 13.7057 21.6708 13.3353C22.0783 12.5205 22.091 11.5673 21.7091 10.7438L21.6708 10.6644C21.4397 10.2009 21.402 9.66556 21.5653 9.17578L21.7105 8.73852ZM5.8916 15.7765L6.37342 11.4408L10.0441 13.6837C11.2441 14.4165 12.7548 14.4164 13.9548 13.6836L17.6288 11.4387L18.1107 15.776C18.165 16.2682 17.9253 16.7447 17.499 16.994L17.4879 17C14.1404 18.9129 10.0443 18.9427 6.67334 17.0896L6.5133 17C6.08001 16.7518 5.83624 16.2708 5.8916 15.7765ZM4.54462 8.56555L10.8258 12.4036C11.5233 12.8295 12.3963 12.8428 13.1048 12.4435L13.1728 12.4036L19.4539 8.56555L13.0058 5.34192C12.3918 5.03491 11.6732 5.02531 11.0527 5.31311L4.54462 8.56555Z" fill="currentColor"/>
</svg>
