<svg width="24" height="24" viewBox="0 0 24 24" fill="none" xmlns="http://www.w3.org/2000/svg">
<path fill-rule="evenodd" clip-rule="evenodd" d="M17.8745 18.0217C16.772 18.1595 15.6658 18.2584 14.558 18.3184L13.4563 19.9713C12.7636 21.0092 11.2366 21.011 10.5443 19.9705L9.44321 18.3183C8.33549 18.2584 7.22936 18.1595 6.12691 18.0217C4.4818 17.8154 3.1662 16.5532 2.89278 14.9174C2.46042 12.3245 2.46029 9.67575 2.89266 7.08284C3.16603 5.44731 4.48021 4.18458 6.12691 3.97834C10.0275 3.49062 13.9738 3.49062 17.8743 3.97834C19.5195 4.18459 20.8351 5.44683 21.1085 7.08259C21.5408 9.67551 21.5408 12.3242 21.1085 14.9171C20.8351 16.5526 19.5212 17.8154 17.8745 18.0217ZM15.6063 16.7454C16.3014 16.6906 16.9955 16.6199 17.6881 16.5333L17.7342 16.5271C18.7008 16.3858 19.4674 15.6367 19.629 14.6701C20.0341 12.2407 20.034 9.7593 19.629 7.32991L19.6208 7.28401C19.4401 6.32472 18.66 5.58854 17.6882 5.46663C13.9112 4.99435 10.09 4.99448 6.31307 5.46675C5.32489 5.59061 4.53638 6.34803 4.37227 7.32991C3.9672 9.7593 3.9672 12.2407 4.37227 14.6701L4.38033 14.716C4.561 15.6754 5.34139 16.4114 6.31331 16.5333C7.00585 16.6199 7.69989 16.6906 8.39486 16.7454C9.01943 16.7947 9.64475 16.8312 10.2704 16.8548C11.4235 16.8984 12.5778 16.8984 13.7308 16.8548C14.3565 16.8312 14.9818 16.7947 15.6063 16.7454Z" fill="currentColor"/>
<path d="M11.25 12.6V11.8C11.25 11.6519 11.2939 11.5071 11.3761 11.3839L12.5314 9.65148L12.5692 9.59215C12.7526 9.29261 12.85 8.94915 12.85 8.59996C12.8499 8.13044 12.4695 7.74999 12 7.74999C11.5305 7.75 11.15 8.13045 11.15 8.59996C11.15 9.01418 10.8142 9.34996 10.4 9.34996C9.98579 9.34996 9.65 9.01418 9.65 8.59996C9.65002 7.30202 10.702 6.25 12 6.24999C13.2979 6.24999 14.3499 7.30201 14.35 8.59996C14.35 9.27 14.1508 9.92415 13.7811 10.4811L13.7803 10.4824L12.75 12.0272V12.6C12.75 13.0142 12.4142 13.35 12 13.35C11.5858 13.3499 11.25 13.0142 11.25 12.6Z" fill="currentColor"/>
<path d="M12 16.125C12.6213 16.125 13.125 15.6213 13.125 15C13.125 14.3787 12.6213 13.875 12 13.875C11.3787 13.875 10.875 14.3787 10.875 15C10.875 15.6213 11.3787 16.125 12 16.125Z" fill="currentColor"/>
</svg>
