<svg width="24" height="24" viewBox="0 0 24 24" fill="none" xmlns="http://www.w3.org/2000/svg">
<path d="M12.015 3.25C12.9103 3.25001 13.7759 3.57033 14.4556 4.15308C16.7997 6.16224 19.1439 8.1714 21.4881 10.1805C21.8025 10.4501 21.839 10.9235 21.5695 11.238C21.2999 11.5525 20.8265 11.589 20.512 11.3195L19.7512 10.6674V18C19.7512 19.5192 18.5205 20.75 17.0012 20.75H15.0012C14.587 20.75 14.2512 20.4142 14.2512 20V14C14.2512 13.3092 13.692 12.75 13.0012 12.75H11.0012C10.3105 12.75 9.75124 13.3092 9.75124 14V20C9.75124 20.4142 9.41545 20.75 9.00124 20.75H7.00124C5.48203 20.75 4.25124 19.5192 4.25124 18V10.6653L3.48805 11.3195C3.17355 11.589 2.70011 11.5525 2.43056 11.238C2.16102 10.9235 2.19748 10.4501 2.51198 10.1805L9.54445 4.15308C10.2241 3.57033 11.0897 3.25 11.985 3.25H12.015Z" fill="currentColor"/>
</svg>
