<svg width="24" height="24" viewBox="0 0 24 24" fill="none" xmlns="http://www.w3.org/2000/svg">
<path d="M6.22221 2.96585C10.0588 2.48567 13.9399 2.48567 17.7765 2.96585L17.7766 2.96573C19.4781 3.17821 20.8203 4.51863 21.033 6.22183L21.0766 6.5817C21.5127 10.3012 21.4982 14.0599 21.033 17.7769C20.8204 19.4783 19.48 20.8203 17.7768 21.0329L17.7769 21.033C13.94 21.5132 10.0587 21.5132 6.22184 21.033C4.52044 20.8204 3.17827 19.4799 2.96574 17.7766L2.96586 17.7765C2.48567 13.9399 2.48566 10.0587 2.96586 6.22208C3.17835 4.52055 4.51886 3.17838 6.22221 2.96585ZM17.5906 4.45413C13.8775 3.98937 10.1213 3.98937 6.40812 4.45413L6.40787 4.45425C5.38622 4.58173 4.58177 5.38701 4.45426 6.40799L4.45414 6.40811C4.00391 10.0052 3.98993 13.6427 4.41203 17.2423L4.45414 17.5906L4.45426 17.5909C4.58173 18.6125 5.38702 19.4171 6.408 19.5446C10.1211 20.0093 13.8775 20.0093 17.5906 19.5446L17.5909 19.5445C18.6125 19.417 19.4171 18.6118 19.5446 17.5909V17.5906C20.0094 13.8775 20.0094 10.1213 19.5446 6.40811L19.5445 6.40787C19.417 5.38623 18.6118 4.58178 17.5909 4.45425L17.5906 4.45413Z" fill="currentColor"/>
<path d="M11.25 16V11C11.25 10.5858 11.5858 10.25 12 10.25C12.4142 10.25 12.75 10.5858 12.75 11V16C12.75 16.4142 12.4142 16.75 12 16.75C11.5858 16.75 11.25 16.4142 11.25 16Z" fill="currentColor"/>
<path d="M12 9.125C12.6213 9.125 13.125 8.62132 13.125 8C13.125 7.37868 12.6213 6.875 12 6.875C11.3787 6.875 10.875 7.37868 10.875 8C10.875 8.62132 11.3787 9.125 12 9.125Z" fill="currentColor"/>
</svg>
