<svg width="24" height="24" viewBox="0 0 24 24" fill="none" xmlns="http://www.w3.org/2000/svg">
<path d="M12 11.25H9C8.58625 11.25 8.25 11.5863 8.25 12C8.25 12.4138 8.58625 12.75 9 12.75H12C12.4138 12.75 12.75 12.4138 12.75 12C12.75 11.5863 12.4138 11.25 12 11.25Z" fill="currentColor"/>
<path d="M15 7.25001H9C8.58625 7.25001 8.25 7.58626 8.25 8.00001C8.25 8.41376 8.58625 8.75001 9 8.75001H15C15.4138 8.75001 15.75 8.41376 15.75 8.00001C15.75 7.58626 15.4138 7.25001 15 7.25001Z" fill="currentColor"/>
<path d="M20.015 5.20501C19.8162 3.51751 18.5025 2.17126 16.8213 1.93126C13.6225 1.47376 10.3788 1.47376 7.18 1.93126C5.4975 2.17126 4.185 3.51751 3.98625 5.20501C3.495 9.37876 3.46875 13.6138 3.90875 17.7938L4.255 21.0775C4.28625 21.3775 4.495 21.6288 4.7825 21.7163C5.07125 21.8038 5.38375 21.71 5.57625 21.4788L7.46875 19.2075L9.15 21.4488C9.29125 21.6375 9.51375 21.7488 9.75 21.7488C9.98625 21.7488 10.2088 21.6375 10.35 21.4488L12 19.2488L13.65 21.4488C13.7913 21.6375 14.0138 21.7488 14.25 21.7488C14.4863 21.7488 14.7088 21.6375 14.85 21.4488L16.5313 19.2075L18.4238 21.4788C18.5688 21.6525 18.7813 21.7488 19 21.7488C19.0725 21.7488 19.1463 21.7388 19.2175 21.7163C19.5063 21.6288 19.7138 21.3775 19.745 21.0775L20.0912 17.7938C20.5312 13.6138 20.505 9.37876 20.0138 5.20501H20.015ZM18.6 17.6375L18.44 19.1563L17.0763 17.52C16.93 17.3438 16.7113 17.245 16.4813 17.25C16.2525 17.2563 16.0375 17.3663 15.9 17.55L14.25 19.75L12.6 17.55C12.4588 17.3613 12.2363 17.25 12 17.25C11.7638 17.25 11.5413 17.3613 11.4 17.55L9.75 19.75L8.1 17.55C7.9625 17.3663 7.74875 17.2563 7.51875 17.25C7.28875 17.245 7.07 17.3438 6.92375 17.52L5.56 19.1563L5.4 17.6375C4.97125 13.5688 4.99625 9.44501 5.475 5.38126C5.59375 4.36876 6.3825 3.56126 7.39125 3.41626C10.4488 2.98001 13.55 2.97876 16.6088 3.41626C17.6175 3.56001 18.4063 4.36876 18.525 5.38126C19.0025 9.44501 19.0288 13.5688 18.6 17.6375Z" fill="currentColor"/>
</svg>
