<svg width="24" height="24" viewBox="0 0 24 24" fill="none" xmlns="http://www.w3.org/2000/svg">
<path fill-rule="evenodd" clip-rule="evenodd" d="M12 2.24878C14.1567 2.24878 16.0067 2.9999 17.5028 4.49597C19.0106 6.00373 19.75 7.93723 19.75 10.2325C19.75 12.0951 18.8877 13.8429 17.9089 15.3792C16.9924 16.7994 15.7173 18.3194 14.0969 19.9396L13.939 20.0967C12.8642 21.1611 11.1345 21.1612 10.0597 20.0967C10.0514 20.0884 10.0434 20.08 10.0355 20.0714C8.35083 18.4017 7.03109 16.8378 6.09082 15.3788C4.90397 13.5377 4.25 11.8144 4.25 10.2325C4.25 7.93723 4.98944 6.00373 6.49719 4.49597C7.99326 2.9999 9.84331 2.24878 12 2.24878ZM12 8C10.8954 8 10 8.89544 10 10C10 11.1046 10.8954 12 12 12C13.1046 12 14 11.1046 14 10C14 8.89544 13.1046 8 12 8Z" fill="currentColor"/>
</svg>
