<svg width="24" height="24" viewBox="0 0 24 24" fill="none" xmlns="http://www.w3.org/2000/svg">
<path fill-rule="evenodd" clip-rule="evenodd" d="M18.25 10C18.25 9.33714 18.1647 8.70637 18.0022 8.11836L19.1857 6.93485C19.5529 7.86698 19.75 8.90059 19.75 10C19.75 12.7187 18.4059 15.6208 16.8628 17.807C16.0845 18.9096 15.2313 19.8654 14.4247 20.5544C14.0217 20.8987 13.6167 21.1882 13.2262 21.3951C12.8461 21.5966 12.4232 21.75 12 21.75C11.5768 21.75 11.1541 21.5965 10.7739 21.3951C10.3834 21.1883 9.9784 20.8989 9.57545 20.5547C8.93859 20.0107 8.27268 19.3005 7.63755 18.483L8.70723 17.4133C9.32579 18.2285 9.96551 18.9152 10.5496 19.4141C10.8966 19.7105 11.2104 19.9289 11.4761 20.0697C11.7522 20.216 11.9232 20.25 12 20.25C12.0768 20.25 12.2477 20.216 12.5238 20.0697C12.7895 19.9289 13.1033 19.7104 13.4503 19.4139C14.1437 18.8216 14.9155 17.9646 15.6372 16.942C17.0941 14.8779 18.25 12.2801 18.25 10Z" fill="currentColor"/>
<path fill-rule="evenodd" clip-rule="evenodd" d="M12 2.25C14.2418 2.25001 16.1426 3.04865 17.5006 4.37878L18.9397 2.9397C19.2326 2.64682 19.7074 2.64683 20.0003 2.9397C20.2498 3.18925 20.2903 3.58781 20.0958 3.88208L4.00027 20.0002C3.70738 20.2931 3.23262 20.2931 2.93972 20.0002C2.64685 19.7073 2.64684 19.2326 2.93972 18.9397L5.96328 15.9161C4.97107 14.0815 4.25003 11.9917 4.25003 10C4.25003 5.59751 7.41044 2.25 12 2.25ZM12 3.75C8.26212 3.75 5.75003 6.40249 5.75003 10C5.75003 11.5443 6.27998 13.2341 7.07449 14.8051L10.5244 11.3551C10.1988 10.9993 10 10.5253 10 10.005C10 8.90044 10.8955 8.005 12 8.005C12.5204 8.00501 12.9942 8.20375 13.35 8.52942L16.4398 5.43958C15.3495 4.37891 13.8201 3.75001 12 3.75Z" fill="currentColor"/>
</svg>
