<svg width="24" height="24" viewBox="0 0 24 24" fill="none" xmlns="http://www.w3.org/2000/svg">
<path d="M16 12.125C16.6213 12.125 17.125 11.6213 17.125 11C17.125 10.3787 16.6213 9.875 16 9.875C15.3787 9.875 14.875 10.3787 14.875 11C14.875 11.6213 15.3787 12.125 16 12.125Z" fill="currentColor"/>
<path d="M12 12.125C12.6213 12.125 13.125 11.6213 13.125 11C13.125 10.3787 12.6213 9.875 12 9.875C11.3787 9.875 10.875 10.3787 10.875 11C10.875 11.6213 11.3787 12.125 12 12.125Z" fill="currentColor"/>
<path d="M7.99998 12.125C8.6213 12.125 9.12498 11.6213 9.12498 11C9.12498 10.3787 8.6213 9.875 7.99998 9.875C7.37866 9.875 6.87498 10.3787 6.87498 11C6.87498 11.6213 7.37866 12.125 7.99998 12.125Z" fill="currentColor"/>
<path fill-rule="evenodd" clip-rule="evenodd" d="M17.8744 18.0217C16.7719 18.1595 15.6657 18.2584 14.558 18.3184L13.4563 19.9713C12.7636 21.0092 11.2366 21.011 10.5443 19.9705L9.44319 18.3183C8.33547 18.2584 7.22934 18.1595 6.12688 18.0217C4.48178 17.8154 3.16618 16.5532 2.89275 14.9174C2.46039 12.3245 2.46027 9.67575 2.89263 7.08284C3.16601 5.44731 4.48018 4.18458 6.12688 3.97834C10.0274 3.49062 13.9738 3.49062 17.8743 3.97834C19.5194 4.18459 20.835 5.44683 21.1085 7.08259C21.5408 9.67551 21.5408 12.3242 21.1085 14.9171C20.8351 16.5526 19.5211 17.8154 17.8744 18.0217ZM15.6063 16.7454C16.3013 16.6906 16.9954 16.6199 17.688 16.5333L17.7342 16.5271C18.7008 16.3858 19.4674 15.6367 19.629 14.6701C20.034 12.2407 20.034 9.7593 19.629 7.32991L19.6208 7.28401C19.4401 6.32472 18.66 5.58854 17.6882 5.46663C13.9112 4.99435 10.09 4.99448 6.31304 5.46675C5.32487 5.59061 4.53636 6.34803 4.37225 7.32991C3.96718 9.7593 3.96718 12.2407 4.37225 14.6701L4.3803 14.716C4.56098 15.6754 5.34137 16.4114 6.31329 16.5333C7.00583 16.6199 7.69986 16.6906 8.39484 16.7454C9.0194 16.7947 9.64472 16.8312 10.2704 16.8548C11.4235 16.8984 12.5778 16.8984 13.7308 16.8548C14.3565 16.8312 14.9818 16.7947 15.6063 16.7454Z" fill="currentColor"/>
</svg>
