<svg width="24" height="24" viewBox="0 0 24 24" fill="none" xmlns="http://www.w3.org/2000/svg">
<path d="M8.25 10.8824V13.8824C8.25 14.2961 8.58625 14.6324 9 14.6324C9.41375 14.6324 9.75 14.2961 9.75 13.8824V10.8824C9.75 9.64235 10.7587 8.63235 12 8.63235C13.2413 8.63235 14.25 9.6411 14.25 10.8824V13.8824C14.25 14.2961 14.5863 14.6324 15 14.6324C15.4137 14.6324 15.75 14.2961 15.75 13.8824V10.8824C15.75 8.81485 14.0675 7.13235 12 7.13235C9.9325 7.13235 8.25 8.81485 8.25 10.8824Z" fill="currentColor"/>
<path d="M20.0925 4.42235C18.1288 4.17735 16.1325 3.5411 14.16 2.53235C12.8075 1.8411 11.1925 1.8411 9.84 2.53235C7.8675 3.5411 5.87125 4.17735 3.9075 4.42235C3.5325 4.46985 3.25 4.7886 3.25 5.1661V14.3811C3.25 16.0299 4.085 17.5349 5.4825 18.4086L10.5425 21.5711C10.985 21.8474 11.4925 21.9861 12 21.9861C12.5075 21.9861 13.015 21.8474 13.4575 21.5711L18.5175 18.4086C19.915 17.5349 20.75 16.0286 20.75 14.3811V5.16735C20.75 4.7886 20.4688 4.46985 20.0925 4.4236V4.42235ZM19.25 14.3824C19.25 15.5099 18.6788 16.5411 17.7225 17.1386L12.6625 20.3011C12.26 20.5524 11.74 20.5524 11.3375 20.3011L6.2775 17.1386C5.32125 16.5411 4.75 15.5111 4.75 14.3824V5.8161C6.6725 5.4986 8.6125 4.84485 10.5225 3.8686C11.4475 3.3961 12.5512 3.3961 13.4762 3.8686C15.3875 4.8461 17.3263 5.49985 19.2487 5.8161V14.3824H19.25Z" fill="currentColor"/>
</svg>
