<svg width="24" height="24" viewBox="0 0 24 24" fill="none" xmlns="http://www.w3.org/2000/svg">
<path fill-rule="evenodd" clip-rule="evenodd" d="M19.9997 3.99964C20.6318 3.36761 20.6318 3.36757 19.9997 3.99964V3.99964Z" fill="currentColor"/>
<path fill-rule="evenodd" clip-rule="evenodd" d="M18.9397 2.93964L16.4818 5.39754C15.4279 4.08797 13.8117 3.24991 12 3.24991C8.82454 3.24991 6.25001 5.82445 6.25001 8.99991V9.85868C6.25 11.7581 5.68759 13.6158 4.63355 15.1963L4.63257 15.1978C4.38424 15.5721 4.25001 16.0124 4.25001 16.4637C4.25001 16.8051 4.32495 17.1291 4.45929 17.4201L2.93973 18.9396C2.64684 19.2325 2.64684 19.7073 2.93973 20.0002C3.23263 20.2931 3.70739 20.2931 4.00028 20.0002L19.9997 3.99964C20.2926 3.70675 20.2932 3.23253 20.0003 2.93964C19.7074 2.64675 19.2326 2.64675 18.9397 2.93964ZM5.94105 15.9383L15.4127 6.46665C14.6381 5.42489 13.3978 4.74991 12 4.74991C9.65297 4.74991 7.75001 6.65288 7.75001 8.99991V9.85868C7.75 12.0182 7.1211 14.131 5.94105 15.9383Z" fill="currentColor"/>
<path fill-rule="evenodd" clip-rule="evenodd" d="M7.37177 18.7487L8.87177 17.2487H17.465C17.8983 17.2487 18.25 16.8969 18.25 16.4637C18.25 16.309 18.2036 16.1563 18.1184 16.0285C16.9022 14.2048 16.2523 12.0618 16.25 9.87045L17.7192 8.40125C17.7396 8.59803 17.75 8.79776 17.75 8.99991V9.85868C17.75 11.6987 18.2778 13.4996 19.269 15.0473L19.3665 15.1963C19.6162 15.571 19.75 16.0134 19.75 16.4637C19.75 17.7254 18.7267 18.7487 17.465 18.7487L14.25 18.7499C14.25 19.9924 13.2425 20.9999 12 20.9999C10.7575 20.9999 9.75001 19.9924 9.75001 18.7499L7.37177 18.7487Z" fill="currentColor"/>
</svg>
