<svg width="24" height="24" viewBox="0 0 24 24" fill="none" xmlns="http://www.w3.org/2000/svg">
<path fill-rule="evenodd" clip-rule="evenodd" d="M6.85303 2.26443C10.2513 1.58504 13.7488 1.58503 17.1471 2.26443C17.5532 2.34566 17.8167 2.74085 17.7355 3.147C17.6543 3.55312 17.2592 3.81653 16.853 3.73538C16.4861 3.66201 16.1179 3.59711 15.7488 3.54055V6.42861C15.7488 7.55448 16.1971 8.63637 16.9941 9.43337L18.2366 10.6758C18.5655 11.0047 18.7488 11.4508 18.7488 11.9136V14.1524C18.7488 15.0063 18.1325 15.7378 17.287 15.8783C15.7844 16.1288 14.2682 16.2714 12.75 16.3069V20.9999C12.75 21.4141 12.4142 21.7499 12 21.7499C11.5858 21.7499 11.25 21.4141 11.25 20.9999V16.3069C9.73138 16.2715 8.21468 16.129 6.71167 15.8784C5.86833 15.7381 5.25 15.0072 5.25 14.1524V11.9136C5.25001 11.4508 5.43327 11.0047 5.76221 10.6758L7.005 9.43301C7.80269 8.63638 8.25 7.55605 8.25 6.42861V3.5408C7.88129 3.59731 7.51351 3.6621 7.14697 3.73538C6.74084 3.81654 6.34575 3.55312 6.26453 3.147C6.18334 2.74083 6.44686 2.34563 6.85303 2.26443ZM14.2488 3.35732C12.7523 3.22078 11.2465 3.22082 9.75 3.35745V6.42861C9.75 7.95352 9.1448 9.41557 8.06519 10.4939L8.06531 10.494L6.82288 11.7365C6.77684 11.7825 6.75001 11.8464 6.75 11.9136V14.1524C6.75 14.2749 6.83903 14.379 6.95801 14.3988H6.95837C10.2955 14.9552 13.7033 14.9552 17.0404 14.3988L17.041 14.3987C17.1602 14.379 17.2488 14.2757 17.2488 14.1524V11.9136C17.2488 11.8464 17.2219 11.7825 17.1759 11.7365L15.9335 10.494C14.8555 9.41605 14.2488 7.95275 14.2488 6.42861V3.35732Z" fill="currentColor"/>
</svg>
