<svg width="24" height="24" viewBox="0 0 24 24" fill="none" xmlns="http://www.w3.org/2000/svg">
<path fill-rule="evenodd" clip-rule="evenodd" d="M6.85305 2.26443C10.2513 1.58504 13.7488 1.58503 17.1471 2.26443C17.5532 2.34566 17.8167 2.74085 17.7355 3.147C17.6543 3.55312 17.2592 3.81653 16.853 3.73538C16.4587 3.65654 16.063 3.58741 15.6662 3.52798L15.0691 6.81033V6.81069C14.9212 7.62219 15.2305 8.44815 15.8695 8.9634L15.9324 9.01235L15.9325 9.01248L17.8988 10.4875L17.8991 10.4877C18.4788 10.9231 18.7302 11.671 18.5313 12.3682L18.5311 12.3683L18.1349 13.7559C17.7979 14.9353 16.7187 15.7499 15.4912 15.7499H12.75V20.9999C12.75 21.4141 12.4142 21.7499 12 21.7499C11.5858 21.7499 11.25 21.4141 11.25 20.9999V15.7499H8.50869C7.28183 15.7499 6.20221 14.9371 5.86513 13.7558L5.46877 12.3683C5.26989 11.6711 5.52111 10.9231 6.10085 10.4877L6.10121 10.4875L8.0674 9.01248L8.06765 9.01235C8.74906 8.50153 9.08365 7.64837 8.93093 6.81069L8.9308 6.81033L8.33364 3.52798C7.9369 3.5874 7.54124 3.65656 7.14699 3.73538C6.74085 3.81654 6.34577 3.55312 6.26454 3.147C6.18335 2.74083 6.44688 2.34563 6.85305 2.26443ZM14.1738 3.35061C12.7274 3.22306 11.2726 3.22305 9.82607 3.35061L10.4066 6.54189C10.6613 7.93913 10.1033 9.36093 8.9673 10.2125L8.96718 10.2124L7.00148 11.687C6.91878 11.7492 6.88269 11.8565 6.91127 11.9567L7.30739 13.3439L7.30751 13.3441C7.46046 13.8802 7.95065 14.2499 8.50869 14.2499H15.4912C16.0488 14.2499 16.5395 13.8795 16.6925 13.3439L17.0888 11.9564C17.1172 11.8564 17.0811 11.7495 16.9987 11.6874L15.0326 10.2124C13.8966 9.36075 13.3387 7.93893 13.5934 6.54165L14.1738 3.35061Z" fill="currentColor"/>
</svg>
