<svg width="24" height="24" viewBox="0 0 24 24" fill="none" xmlns="http://www.w3.org/2000/svg">
<path d="M20.25 12C20.25 7.44365 16.5563 3.75 12 3.75C7.44365 3.75 3.75 7.44365 3.75 12C3.75 16.5563 7.44365 20.25 12 20.25C16.5563 20.25 20.25 16.5563 20.25 12ZM21.75 12C21.75 17.3848 17.3848 21.75 12 21.75C6.61522 21.75 2.25 17.3848 2.25 12C2.25 6.61522 6.61522 2.25 12 2.25C17.3848 2.25 21.75 6.61522 21.75 12Z" fill="currentColor"/>
<path d="M15.8625 11.2762L15.835 11.25C14.3775 9.85875 12.6025 8.845 10.665 8.295L10.6125 8.28C10.07 8.12625 9.50625 8.4525 9.37 9C8.8775 10.9688 8.8775 13.0287 9.37 14.9987C9.50625 15.5462 10.07 15.8725 10.6125 15.7188L10.665 15.7037C12.6038 15.155 14.3787 14.14 15.835 12.7487L15.8625 12.7225C16.275 12.3287 16.275 11.67 15.8625 11.2762Z" fill="currentColor"/>
</svg>
