<svg width="24" height="24" viewBox="0 0 24 24" fill="none" xmlns="http://www.w3.org/2000/svg">
<path d="M16 11.25H12.75V8C12.75 7.58625 12.4137 7.25 12 7.25C11.5863 7.25 11.25 7.58625 11.25 8V11.25H8C7.58625 11.25 7.25 11.5863 7.25 12C7.25 12.4137 7.58625 12.75 8 12.75H11.25V16C11.25 16.4137 11.5863 16.75 12 16.75C12.4137 16.75 12.75 16.4137 12.75 16V12.75H16C16.4137 12.75 16.75 12.4137 16.75 12C16.75 11.5863 16.4137 11.25 16 11.25Z" fill="currentColor"/>
<path d="M12 2.25C6.62375 2.25 2.25 6.62375 2.25 12C2.25 17.3762 6.62375 21.75 12 21.75C17.3762 21.75 21.75 17.3762 21.75 12C21.75 6.62375 17.3762 2.25 12 2.25ZM12 20.25C7.45125 20.25 3.75 16.5487 3.75 12C3.75 7.45125 7.45125 3.75 12 3.75C16.5487 3.75 20.25 7.45125 20.25 12C20.25 16.5487 16.5487 20.25 12 20.25Z" fill="currentColor"/>
</svg>
