<svg width="24" height="24" viewBox="0 0 24 24" fill="none" xmlns="http://www.w3.org/2000/svg">
<path d="M21.0338 6.22249C20.8213 4.51874 19.4813 3.17999 17.7775 2.96624C13.9438 2.48749 10.0563 2.48749 6.22251 2.96624C4.51876 3.17874 3.18001 4.51874 2.96626 6.22249C2.48751 10.0562 2.48751 13.9437 2.96626 17.7775C3.17876 19.4812 4.51876 20.82 6.22251 21.0337C8.14001 21.2737 10.07 21.3937 12 21.3937C13.93 21.3937 15.8613 21.2737 17.7775 21.0337C19.4813 20.82 20.82 19.4812 21.0338 17.7775C21.5125 13.9437 21.5125 10.0562 21.0338 6.22249ZM19.545 17.5912C19.4175 18.6137 18.6138 19.4175 17.5913 19.545C13.8813 20.0087 10.1188 20.0087 6.40751 19.545C5.38501 19.4175 4.58126 18.6137 4.45376 17.5912C3.99001 13.8812 3.99001 10.1187 4.45376 6.40749C4.58126 5.38499 5.38501 4.58124 6.40751 4.45374C8.26251 4.22249 10.1313 4.10624 11.9988 4.10624C13.8663 4.10624 15.735 4.22249 17.59 4.45374C18.6125 4.58124 19.4163 5.38499 19.5438 6.40749C20.0075 10.1175 20.0075 13.88 19.5438 17.5912H19.545Z" fill="currentColor"/>
<path d="M16 11.25H12.75V7.99999C12.75 7.58624 12.4138 7.24999 12 7.24999C11.5863 7.24999 11.25 7.58624 11.25 7.99999V11.25H8.00001C7.58626 11.25 7.25001 11.5862 7.25001 12C7.25001 12.4137 7.58626 12.75 8.00001 12.75H11.25V16C11.25 16.4137 11.5863 16.75 12 16.75C12.4138 16.75 12.75 16.4137 12.75 16V12.75H16C16.4138 12.75 16.75 12.4137 16.75 12C16.75 11.5862 16.4138 11.25 16 11.25Z" fill="currentColor"/>
</svg>
