<svg width="24" height="24" viewBox="0 0 24 24" fill="none" xmlns="http://www.w3.org/2000/svg">
<path d="M8.75 15V9C8.75 8.58579 8.41421 8.25 8 8.25C7.58579 8.25 7.25 8.58579 7.25 9V15C7.25 15.4142 7.58579 15.75 8 15.75C8.41421 15.75 8.75 15.4142 8.75 15Z" fill="currentColor"/>
<path d="M3.75 12C3.75 7.44365 7.44365 3.75 12 3.75C16.5563 3.75 20.25 7.44365 20.25 12C20.25 16.5563 16.5563 20.25 12 20.25C7.44365 20.25 3.75 16.5563 3.75 12ZM2.25 12C2.25 17.3848 6.61522 21.75 12 21.75C17.3848 21.75 21.75 17.3848 21.75 12C21.75 6.61522 17.3848 2.25 12 2.25C6.61522 2.25 2.25 6.61522 2.25 12Z" fill="currentColor"/>
<path d="M10.1375 11.2762L10.165 11.25C11.6225 9.85875 13.3975 8.845 15.335 8.295L15.3875 8.28C15.93 8.12625 16.4938 8.4525 16.63 9C17.1225 10.9688 17.1225 13.0287 16.63 14.9987C16.4938 15.5462 15.93 15.8725 15.3875 15.7188L15.335 15.7037C13.3962 15.155 11.6213 14.14 10.165 12.7487L10.1375 12.7225C9.725 12.3287 9.725 11.67 10.1375 11.2762Z" fill="currentColor"/>
</svg>
