<svg width="24" height="24" viewBox="0 0 24 24" fill="none" xmlns="http://www.w3.org/2000/svg">
<path d="M11.25 14V13C11.25 12.8519 11.2938 12.7072 11.376 12.584L12.8214 10.4158C13.1011 9.99719 13.25 9.50484 13.25 9C13.25 8.30921 12.6908 7.75 12 7.75C11.3092 7.75 10.75 8.30921 10.75 9C10.75 9.41421 10.4142 9.75 10 9.75C9.58579 9.75 9.25 9.41421 9.25 9C9.25 7.48079 10.4808 6.25 12 6.25C13.5192 6.25 14.75 7.48079 14.75 9C14.75 9.79986 14.514 10.5822 14.069 11.2484L12.75 13.2271V14C12.75 14.4142 12.4142 14.75 12 14.75C11.5858 14.75 11.25 14.4142 11.25 14Z" fill="currentColor"/>
<path d="M12 18.125C12.6213 18.125 13.125 17.6213 13.125 17C13.125 16.3787 12.6213 15.875 12 15.875C11.3787 15.875 10.875 16.3787 10.875 17C10.875 17.6213 11.3787 18.125 12 18.125Z" fill="currentColor"/>
<path d="M20.25 12C20.25 7.44365 16.5563 3.75 12 3.75C7.44365 3.75 3.75 7.44365 3.75 12C3.75 16.5563 7.44365 20.25 12 20.25C16.5563 20.25 20.25 16.5563 20.25 12ZM21.75 12C21.75 17.3848 17.3848 21.75 12 21.75C6.61522 21.75 2.25 17.3848 2.25 12C2.25 6.61522 6.61522 2.25 12 2.25C17.3848 2.25 21.75 6.61522 21.75 12Z" fill="currentColor"/>
</svg>
