<svg width="24" height="24" viewBox="0 0 24 24" fill="none" xmlns="http://www.w3.org/2000/svg">
<path fill-rule="evenodd" clip-rule="evenodd" d="M12.2819 1.25001C12.3282 1.25016 12.3742 1.25214 12.4197 1.25587C12.4341 1.25704 12.4485 1.25863 12.4628 1.26014C12.4706 1.26098 12.4785 1.26164 12.4864 1.26259C13.1513 1.34226 13.7214 1.79802 13.9376 2.4463L14.2714 3.44618L14.2725 3.44972C14.4579 3.93002 14.9203 4.24998 15.4389 4.25001C15.4595 4.25002 15.4801 4.25105 15.5004 4.2527C17.3248 4.31958 18.8451 5.69599 19.0813 7.51857C19.0817 7.52146 19.0821 7.52446 19.0824 7.52736L19.085 7.5486C19.1237 7.84662 19.1936 8.4376 19.1232 7.84742C19.5326 11.187 19.5022 14.5817 19.0442 17.9146C18.8208 19.5411 17.5646 20.8336 15.9453 21.1024C13.3339 21.5372 10.667 21.5371 8.05557 21.1023C6.43713 20.832 5.18044 19.5402 4.95694 17.9147C4.54395 14.9091 4.48108 11.8663 4.76907 8.84877C4.76878 8.85363 4.7686 8.85856 4.76834 8.86342C4.77607 8.723 4.79378 8.5831 4.80801 8.44325C4.83963 8.14209 4.87449 7.84064 4.91384 7.5392L4.91519 7.52736L4.91629 7.51869C5.15222 5.69684 6.66928 4.32295 8.49038 4.25294C8.51167 4.25112 8.53332 4.25002 8.55508 4.25001C9.09313 4.24999 9.57077 3.90562 9.74124 3.39503L10.0573 2.44655C10.2884 1.75326 10.9243 1.27996 11.6481 1.25136C11.662 1.25079 11.6761 1.25074 11.6901 1.2505C11.6992 1.25036 11.7084 1.25001 11.7176 1.25001C11.7235 1.25001 12.2809 1.24998 12.2819 1.25001ZM6.11111 11.3655C6.04324 13.4839 6.15395 15.6066 6.44302 17.7103L6.4573 17.8012C6.62423 18.7326 7.36085 19.4654 8.30178 19.6227C10.7502 20.0304 13.2508 20.0304 15.6992 19.6227C16.67 19.4615 17.4242 18.6864 17.5583 17.7105C17.8475 15.6057 17.9581 13.4821 17.89 11.3627C17.8909 11.3622 17.8917 11.3616 17.8925 11.3611C17.4808 11.6071 16.9992 11.7494 16.4838 11.7499L16.4826 11.75H14V12C14 12.5525 13.5525 13 13 13H11C10.4475 13 10 12.5525 10 12V11.75H7.51626C6.99669 11.75 6.51139 11.6059 6.09732 11.3569C6.10195 11.3597 6.10646 11.3627 6.11111 11.3655ZM8.63626 5.75001C7.50433 5.75011 6.54915 6.58925 6.40383 7.71132C6.40298 7.71868 6.40223 7.72606 6.40127 7.73341C6.35126 8.11644 6.30842 8.5021 6.27029 8.89076C6.19928 9.61406 6.77515 10.2499 7.51626 10.25H16.4813C17.2208 10.2499 17.7977 9.61439 17.7273 8.89003C17.6892 8.50284 17.6463 8.11721 17.5963 7.73304C17.5931 7.70837 17.5897 7.68372 17.5863 7.65907C17.4185 6.56421 16.4754 5.75008 15.3614 5.75001H8.63626ZM19.226 8.81324C19.2256 8.80735 19.2252 8.80145 19.2248 8.79554L19.2204 8.74501C19.2226 8.7678 19.2243 8.79055 19.226 8.81324ZM11.72 2.75001C11.6124 2.75003 11.5168 2.81891 11.4828 2.92091L11.4827 2.92116L11.149 3.92116L11.1488 3.9214C11.0951 4.08237 11.2151 4.24998 11.3863 4.25001H12.6112C12.7776 4.24998 12.8955 4.09165 12.8527 3.93495C12.8449 3.91344 12.8373 3.89179 12.83 3.87001L12.5136 2.92091C12.4795 2.81891 12.3839 2.75003 12.2763 2.75001H11.72Z" fill="currentColor"/>
</svg>
