<svg width="24" height="24" viewBox="0 0 24 24" fill="none" xmlns="http://www.w3.org/2000/svg">
<path d="M11.25 4.34253C11.25 3.92832 11.5858 3.59253 12 3.59253C13.5284 3.59253 15.057 3.69362 16.5752 3.89685L16.8787 3.93884C18.5283 4.17473 19.8255 5.47133 20.0601 7.12073L20.0599 7.12085C20.5079 10.2561 20.522 13.437 20.1019 16.574L20.0599 16.8774C19.8241 18.5271 18.5275 19.8243 16.8781 20.0588L16.8779 20.0587C15.2603 20.29 13.63 20.405 12 20.405C11.5858 20.405 11.25 20.0692 11.25 19.655C11.25 19.2408 11.5858 18.905 12 18.905C13.4622 18.905 14.9243 18.8083 16.3761 18.614L16.6664 18.5739L16.6669 18.5737C17.655 18.4332 18.4334 17.6555 18.5751 16.6652C19.0175 13.5706 19.0175 10.4283 18.5751 7.3324L18.575 7.33191C18.4345 6.34383 17.6567 5.56534 16.6664 5.42371C15.1193 5.20252 13.5597 5.09253 12 5.09253C11.5858 5.09253 11.25 4.75674 11.25 4.34253Z" fill="currentColor"/>
<path d="M3.25 12C3.25002 11.5858 3.5858 11.25 4 11.25L12.1893 11.25L9.46973 8.5304C9.17684 8.2375 9.17684 7.76262 9.46973 7.46973C9.76262 7.17685 10.2374 7.17686 10.5303 7.46973L13.8229 10.7622C14.5057 11.4451 14.5057 12.5537 13.8229 13.2366L10.5303 16.5291C10.2374 16.8219 9.76262 16.8219 9.46973 16.5291C9.17684 16.2362 9.17684 15.7614 9.46973 15.4685L12.1881 12.75L4 12.75C3.58579 12.75 3.25 12.4142 3.25 12Z" fill="currentColor"/>
</svg>
