<svg width="24" height="24" viewBox="0 0 24 24" fill="none" xmlns="http://www.w3.org/2000/svg">
<path d="M11.9999 7.53865C12.2534 7.53865 12.4898 7.66668 12.6282 7.87898L13.5568 9.30293L15.1979 9.74581C15.4427 9.81186 15.6374 9.99706 15.7158 10.2381C15.7941 10.4792 15.7454 10.7436 15.5862 10.9409L14.5185 12.2641L14.6053 13.9616C14.6182 14.2148 14.5023 14.4574 14.2972 14.6065C14.0921 14.7556 13.8256 14.791 13.5887 14.7005L11.9999 14.0938L10.4113 14.7005C10.1744 14.791 9.90792 14.7556 9.70282 14.6065C9.49773 14.4574 9.38179 14.2148 9.39472 13.9616L9.48139 12.2641L8.41376 10.9409C8.25459 10.7436 8.20591 10.4792 8.28424 10.2381C8.36258 9.99705 8.55735 9.81185 8.80207 9.74581L10.4431 9.30293L11.3718 7.87898C11.5102 7.6667 11.7465 7.53867 11.9999 7.53865Z" fill="currentColor"/>
<path d="M12 21.9737C11.4925 21.9737 10.985 21.8349 10.5425 21.5587L5.4825 18.3962C4.085 17.5224 3.25 16.0174 3.25 14.3687V5.15365C3.25 4.7749 3.53125 4.45615 3.9075 4.4099C5.87125 4.1649 7.8675 3.52865 9.84 2.5199C11.1925 1.82865 12.8075 1.82865 14.16 2.5199C16.1325 3.52865 18.1288 4.1649 20.0925 4.4099C20.4675 4.4574 20.75 4.77615 20.75 5.15365V14.3687C20.75 16.0174 19.915 17.5224 18.5175 18.3962L13.4575 21.5587C13.015 21.8349 12.5075 21.9737 12 21.9737ZM4.75 5.8024V14.3687C4.75 15.4962 5.32125 16.5274 6.2775 17.1249L11.3375 20.2874C11.74 20.5387 12.26 20.5387 12.6625 20.2874L17.7225 17.1249C18.6788 16.5274 19.25 15.4974 19.25 14.3687V5.8024C17.3275 5.4849 15.3875 4.83115 13.4775 3.8549C12.5525 3.3824 11.4487 3.3824 10.5237 3.8549C8.6125 4.8324 6.67375 5.48615 4.75125 5.8024H4.75Z" fill="currentColor"/>
</svg>
