<svg width="24" height="24" viewBox="0 0 24 24" fill="none" xmlns="http://www.w3.org/2000/svg">
<path d="M19 7.25C19.9667 7.25001 20.75 8.03329 20.75 9V14.5C20.75 14.9142 20.4142 15.25 20 15.25C19.5858 15.25 19.25 14.9142 19.25 14.5V9.81055L14.2378 14.8229C13.5549 15.5057 12.4463 15.5057 11.7634 14.8229L9.17712 12.2366C9.08002 12.1395 8.9212 12.1395 8.8241 12.2366L3.53149 17.5291C3.2386 17.8219 2.76384 17.8219 2.47095 17.5291C2.17806 17.2362 2.17806 16.7613 2.47095 16.4684L7.76343 11.1759C8.44632 10.493 9.55491 10.493 10.2378 11.1759L12.8241 13.7622C12.9212 13.8593 13.08 13.8593 13.1771 13.7622L18.1893 8.75H14C13.5858 8.75 13.25 8.41421 13.25 8C13.25 7.58579 13.5858 7.25 14 7.25H19Z" fill="currentColor"/>
</svg>
