<svg width="24" height="24" viewBox="0 0 24 24" fill="none" xmlns="http://www.w3.org/2000/svg">
<path d="M19.6575 11.2501C20.0717 11.2501 20.4075 11.5858 20.4075 12.0001C20.4075 13.5284 20.3064 15.057 20.1032 16.5753L20.0612 16.8787C19.8253 18.5283 18.5287 19.8256 16.8793 20.0601L16.8792 20.06C13.7439 20.508 10.5631 20.5221 7.42606 20.102L7.12259 20.06C5.47297 19.8241 4.17572 18.5275 3.94119 16.8781L3.94131 16.878C3.71007 15.2603 3.595 13.6301 3.595 12.0001C3.595 11.5858 3.93079 11.2501 4.345 11.2501C4.75921 11.2501 5.095 11.5858 5.095 12.0001C5.095 13.4623 5.19168 14.9244 5.38602 16.3762L5.42618 16.6664L5.4263 16.6669C5.5668 17.655 6.34453 18.4335 7.33487 18.5751C10.4294 19.0176 13.5718 19.0176 16.6676 18.5751L16.6681 18.575C17.6562 18.4345 18.4347 17.6568 18.5763 16.6664C18.7975 15.1194 18.9075 13.5598 18.9075 12.0001C18.9075 11.5858 19.2433 11.2501 19.6575 11.2501Z" fill="currentColor"/>
<path d="M10.7622 4.17719C11.4451 3.49433 12.5537 3.49431 13.2366 4.17719L16.5291 7.46967C16.822 7.76255 16.8219 8.23744 16.5291 8.53033C16.2362 8.8232 15.7613 8.82322 15.4684 8.53033L12.75 5.81195V14.0001C12.75 14.4142 12.4142 14.75 12 14.7501C11.5858 14.7501 11.2501 14.4143 11.25 14.0001V5.81061L8.5303 8.53033C8.23742 8.82317 7.76264 8.82317 7.46976 8.53033C7.17687 8.23744 7.17687 7.76256 7.46976 7.46967L10.7622 4.17719Z" fill="currentColor"/>
</svg>
