<svg width="24" height="24" viewBox="0 0 24 24" fill="none" xmlns="http://www.w3.org/2000/svg">
<path fill-rule="evenodd" clip-rule="evenodd" d="M12.0012 5.75122C13.7961 5.75122 15.2512 7.2063 15.2512 9.00122C15.2512 10.7961 13.7961 12.2512 12.0012 12.2512C10.2063 12.2512 8.75122 10.7961 8.75122 9.00122C8.75122 7.20631 10.2063 5.75124 12.0012 5.75122ZM12.0012 7.25122C11.0347 7.25124 10.2512 8.03473 10.2512 9.00122C10.2512 9.96771 11.0347 10.7512 12.0012 10.7512C12.9677 10.7512 13.7512 9.96772 13.7512 9.00122C13.7512 8.03472 12.9677 7.25122 12.0012 7.25122Z" fill="currentColor"/>
<path fill-rule="evenodd" clip-rule="evenodd" d="M12 2.25C17.3848 2.25 21.75 6.61522 21.75 12C21.75 15.3318 20.0787 18.273 17.5288 20.0316C17.4602 20.0999 17.3785 20.155 17.2877 20.1927C15.7645 21.1779 13.9491 21.75 12 21.75C10.0509 21.75 8.23544 21.1779 6.71216 20.1927C6.62139 20.155 6.53968 20.0999 6.47107 20.0316C3.92127 18.273 2.25 15.3317 2.25 12C2.25 6.61522 6.61522 2.25 12 2.25ZM12 14.7526C9.65296 14.7526 7.75 16.6555 7.75 19.0026V19.0724C8.99129 19.8199 10.4454 20.25 12 20.25C13.5546 20.25 15.0087 19.8199 16.25 19.0724V19.0026C16.25 16.6555 14.347 14.7526 12 14.7526ZM12 3.75C7.44365 3.75 3.75 7.44365 3.75 12C3.75 14.3638 4.74426 16.4954 6.33728 17.9995C6.81184 15.3022 9.16667 13.2526 12 13.2526C14.8333 13.2526 17.188 15.3022 17.6626 17.9995C19.2557 16.4954 20.25 14.3639 20.25 12C20.25 7.44365 16.5563 3.75 12 3.75Z" fill="currentColor"/>
</svg>
