<svg width="24" height="24" viewBox="0 0 24 24" fill="none" xmlns="http://www.w3.org/2000/svg">
<path fill-rule="evenodd" clip-rule="evenodd" d="M12.0012 5.75125C13.7961 5.75125 15.2512 7.20634 15.2512 9.00125C15.2512 10.7962 13.7961 12.2512 12.0012 12.2512C10.2063 12.2512 8.75119 10.7962 8.75119 9.00125C8.75121 7.20635 10.2063 5.75127 12.0012 5.75125ZM12.0012 7.25125C11.0347 7.25127 10.2512 8.03478 10.2512 9.00125C10.2512 9.96773 11.0347 10.7512 12.0012 10.7512C12.9677 10.7512 13.7512 9.96775 13.7512 9.00125C13.7512 8.03476 12.9677 7.25125 12.0012 7.25125Z" fill="currentColor"/>
<path fill-rule="evenodd" clip-rule="evenodd" d="M6.22348 2.96707C10.0601 2.48689 13.9412 2.48689 17.7778 2.96707L17.7779 2.96695C19.4793 3.17944 20.8216 4.51988 21.0343 6.22305L21.0779 6.58291C21.514 10.3024 21.4995 14.0612 21.0343 17.7781C20.8217 19.4795 19.4812 20.8215 17.7781 21.0341L17.7782 21.0342C13.9413 21.5144 10.06 21.5144 6.22312 21.0342C4.52172 20.8216 3.17955 19.4811 2.96701 17.7779L2.96714 17.7777C2.48696 13.9411 2.48694 10.0599 2.96714 6.22329C3.17966 4.5218 4.52016 3.17959 6.22348 2.96707ZM12 14.7526C9.65294 14.7526 7.74997 16.6556 7.74997 19.0026V19.6931C10.577 19.9613 13.4229 19.9613 16.25 19.6933V19.0026C16.25 16.6556 14.347 14.7526 12 14.7526ZM17.5919 4.45535C13.8788 3.99059 10.1225 3.9906 6.4094 4.45535L6.40915 4.45547C5.38752 4.58294 4.58307 5.38826 4.45554 6.40921L4.45542 6.40933C4.00519 10.0064 3.99122 13.6439 4.4133 17.2436L4.45542 17.5918L4.45554 17.5921C4.57631 18.56 5.30542 19.333 6.24997 19.52V19.0026C6.24997 15.8271 8.82452 13.2526 12 13.2526C15.1754 13.2526 17.75 15.8271 17.75 19.0026V19.5202C18.6957 19.3336 19.425 18.5598 19.5459 17.5921V17.5918C20.0106 13.8787 20.0106 10.1225 19.5459 6.40933L19.5457 6.40908C19.4183 5.38749 18.6131 4.58301 17.5921 4.45547L17.5919 4.45535Z" fill="currentColor"/>
</svg>
