<svg width="24" height="24" viewBox="0 0 24 24" fill="none" xmlns="http://www.w3.org/2000/svg">
<path fill-rule="evenodd" clip-rule="evenodd" d="M12.0012 4.75121C13.7961 4.75121 15.2512 6.20628 15.2512 8.00121C15.2512 9.79613 13.7961 11.2512 12.0012 11.2512C10.2063 11.2512 8.75123 9.79612 8.75122 8.00121C8.75122 6.20629 10.2063 4.75123 12.0012 4.75121ZM12.0012 6.25121C11.0347 6.25123 10.2512 7.03472 10.2512 8.00121C10.2512 8.96769 11.0347 9.75119 12.0012 9.75121C12.9677 9.75121 13.7512 8.9677 13.7512 8.00121C13.7512 7.03471 12.9677 6.25121 12.0012 6.25121Z" fill="currentColor"/>
<path fill-rule="evenodd" clip-rule="evenodd" d="M9.4729 2.83312C11.0689 2.05595 12.9311 2.05595 14.5271 2.83312L14.5273 2.83324C16.3947 3.74337 18.2494 4.30952 20.0934 4.54076C20.4685 4.58784 20.75 4.90682 20.75 5.2849V13.9462C20.75 15.9283 19.7294 17.7714 18.0474 18.8223L18.0472 18.8221L17.4034 19.2245C17.3969 19.2287 17.3903 19.2328 17.3837 19.2368L14.5175 21.0284L14.5173 21.0283C12.9766 21.9915 11.0232 21.9916 9.48254 21.0283L6.61499 19.2361C6.60992 19.233 6.60497 19.2298 6.59998 19.2267L5.95264 18.8221C4.27064 17.7712 3.25 15.9283 3.25 13.9462V5.2849C3.25003 4.90663 3.53175 4.58749 3.9071 4.54064C5.75074 4.31063 7.60514 3.74461 9.47229 2.83336L9.4729 2.83312ZM12 13.7537C9.65298 13.7537 7.75003 15.6566 7.75 18.0037V18.1766L10.2775 19.7565C11.3317 20.4156 12.6682 20.4156 13.7224 19.7565L16.25 18.1766V18.0037C16.25 15.6566 14.347 13.7537 12 13.7537ZM13.759 4.12951C12.603 3.60702 11.2742 3.62443 10.1296 4.18175L10.1295 4.18163C8.34602 5.05198 6.55237 5.63815 4.75 5.93395V13.9462C4.75 15.2271 5.32647 16.4292 6.30188 17.2302C6.67973 14.4205 9.08685 12.2537 12 12.2537C14.9131 12.2537 17.3201 14.4205 17.698 17.2302C18.6735 16.4292 19.25 15.2271 19.25 13.9462V5.93358C17.4477 5.63692 15.6539 5.05103 13.8704 4.18175L13.759 4.12951Z" fill="currentColor"/>
</svg>
