<svg width="24" height="24" viewBox="0 0 24 24" fill="none" xmlns="http://www.w3.org/2000/svg">
<path d="M15 2.25C17.0711 2.25 18.75 3.92893 18.75 6C18.75 8.07107 17.0711 9.75 15 9.75C14.3167 9.75 13.6761 9.56711 13.1244 9.2478C13.8292 8.35428 14.25 7.22641 14.25 6C14.25 4.77361 13.8294 3.64547 13.1248 2.75183C13.6764 2.43267 14.3169 2.25 15 2.25Z" fill="currentColor"/>
<path d="M15 11.25C18.7255 11.25 21.75 14.2745 21.75 18V20C21.75 20.4142 21.4142 20.75 21 20.75H17.1218C17.2048 20.5154 17.25 20.263 17.25 20V18C17.25 15.2685 15.9202 12.8456 13.8732 11.3439C14.2396 11.2822 14.6161 11.25 15 11.25Z" fill="currentColor"/>
<path d="M9 11.25C12.7255 11.25 15.75 14.2745 15.75 18V20C15.75 20.4142 15.4142 20.75 15 20.75H3C2.58579 20.75 2.25 20.4142 2.25 20V18C2.25 14.2745 5.27454 11.25 9 11.25Z" fill="currentColor"/>
<path d="M9 2.25C11.0711 2.25 12.75 3.92893 12.75 6C12.75 8.07107 11.0711 9.75 9 9.75C6.92893 9.75 5.25 8.07107 5.25 6C5.25 3.92893 6.92893 2.25 9 2.25Z" fill="currentColor"/>
</svg>
