<svg width="24" height="24" viewBox="0 0 24 24" fill="none" xmlns="http://www.w3.org/2000/svg">
<path d="M14.4697 9.46972C14.7626 9.17683 15.2374 9.17683 15.5303 9.46972C15.8232 9.76261 15.8232 10.2374 15.5303 10.5303L11.5303 14.5303C11.2374 14.8232 10.7626 14.8232 10.4697 14.5303L8.96972 13.0303C8.67683 12.7374 8.67683 12.2626 8.96972 11.9697C9.26261 11.6768 9.73737 11.6768 10.0303 11.9697L11 12.9394L14.4697 9.46972Z" fill="currentColor"/>
<path d="M13.2046 3.39058C14.7672 2.49495 16.7537 3.31857 17.2262 5.05562L17.5537 6.26082L17.5541 6.26192C17.5767 6.34578 17.6424 6.4132 17.7303 6.43745L18.9354 6.76497C20.6464 7.22891 21.4701 9.16297 20.6415 10.7132L20.6007 10.7867L19.9795 11.8704C19.9361 11.9461 19.9352 12.0409 19.9795 12.1195L20.6007 13.2032C21.4963 14.7658 20.6727 16.7524 18.9357 17.2249H18.9354L17.7305 17.5524L17.7292 17.5528C17.6452 17.5755 17.5776 17.6416 17.5536 17.7298L17.2263 18.9335L17.2264 18.9337C16.7553 20.672 14.7667 21.4947 13.2046 20.5994L12.1207 19.9782C12.0447 19.9347 11.9493 19.9339 11.8706 19.9788L10.7879 20.5994C9.22532 21.4951 7.23887 20.6714 6.76634 18.9344L6.76622 18.9342L6.43871 17.7292L6.43846 17.728C6.41574 17.6439 6.3497 17.5764 6.26146 17.5523L5.0576 17.2251C3.31926 16.7539 2.4965 14.7653 3.39183 13.2032L4.01305 12.1195C4.05638 12.0438 4.05736 11.949 4.01305 11.8704L3.39183 10.7867C2.49619 9.22406 3.31983 7.2376 5.05687 6.76509L5.05699 6.76497L6.26207 6.43745L6.26317 6.43721C6.34706 6.41455 6.41447 6.34876 6.43871 6.26082L6.76622 5.05574C7.23025 3.34492 9.16428 2.52119 10.7145 3.34981L10.7879 3.39058L11.8717 4.01179C11.9473 4.05515 12.0422 4.05609 12.1207 4.01179L13.2046 3.39058ZM10.042 4.69197C9.33158 4.28483 8.42772 4.65954 8.21385 5.44868L8.21373 5.44917L7.88622 6.65425L7.88609 6.65486C7.72266 7.25407 7.25517 7.72305 6.65428 7.88533L6.65416 7.88521L5.45042 8.21236L5.45055 8.21248C4.66018 8.4275 4.28633 9.3309 4.6931 10.0407L5.31444 11.1245L5.31505 11.1257C5.62257 11.6644 5.62336 12.3265 5.31444 12.8654L4.69322 13.9493C4.29248 14.6486 4.64926 15.5352 5.41319 15.7668L5.44994 15.7773L5.45042 15.7775L6.6555 16.1051L6.65611 16.1052C7.25492 16.2685 7.72364 16.7355 7.88622 17.3358L8.21361 18.5406C8.42861 19.331 9.33214 19.7049 10.042 19.298L11.1257 18.6768L11.1269 18.6761C11.6488 18.3782 12.2864 18.3683 12.8158 18.6488L12.8667 18.6768L13.9505 19.298C14.6609 19.7052 15.5647 19.3305 15.7785 18.5413L15.7788 18.5408L16.1063 17.3358L16.1064 17.3352C16.2647 16.7547 16.7084 16.2964 17.2822 16.1208L17.3382 16.1047L18.5419 15.7775L18.5786 15.7669C19.3438 15.5343 19.6998 14.6479 19.2993 13.9492L18.6781 12.8654L18.6774 12.8643C18.3698 12.3256 18.3692 11.6636 18.6781 11.1246L19.2993 10.0407C19.7064 9.33034 19.3317 8.42648 18.5426 8.2126L18.5421 8.21248L17.337 7.88496L17.3364 7.88484C16.7372 7.72142 16.2682 7.25392 16.1059 6.65303L15.7788 5.44929L15.7682 5.41255C15.5355 4.64741 14.6492 4.29138 13.9504 4.69185L12.8667 5.31319L12.8656 5.3138C12.3269 5.62131 11.6648 5.62209 11.1258 5.31319L10.042 4.69197Z" fill="currentColor"/>
</svg>
