<svg width="24" height="24" viewBox="0 0 24 24" fill="none" xmlns="http://www.w3.org/2000/svg">
<path fill-rule="evenodd" clip-rule="evenodd" d="M16.2113 15.2019C16.1744 15.4825 16.1327 15.7627 16.0861 16.0422C15.8265 17.6034 14.6139 18.8328 13.0579 19.1156C10.7055 19.5429 8.29461 19.5429 5.94104 19.1156C4.38486 18.8328 3.17205 17.6031 2.9126 16.0418C2.46657 13.3654 2.46662 10.6333 2.91272 7.95797C3.17232 6.39685 4.38488 5.1675 5.94092 4.88472L6.16162 4.84591C8.44396 4.45777 10.7777 4.47074 13.0577 4.88472C14.6138 5.16751 15.8264 6.39693 16.0859 7.95809C16.1325 8.23772 16.1743 8.51796 16.2111 8.79867C17.1273 8.27651 18.1066 7.86482 19.1289 7.57531L19.1815 7.56017L19.183 7.55981C20.1324 7.29074 21.1185 7.86079 21.3575 8.81945C21.8798 10.9085 21.8798 13.0931 21.3577 15.1811C21.119 16.1403 20.1326 16.7108 19.183 16.4416L19.1815 16.4413L19.1289 16.4263C18.107 16.1361 17.1277 15.7242 16.2113 15.2019ZM16.372 10.4566C16.4367 11.4848 16.4368 12.516 16.3721 13.5441C17.2974 14.1457 18.3064 14.6144 19.3696 14.9338L19.5398 14.9836L19.5919 14.9985C19.7272 15.0369 19.8684 14.9548 19.9022 14.819C20.3648 12.9698 20.3649 11.0331 19.9022 9.18249C19.8685 9.04693 19.728 8.96494 19.5929 9.00268L19.541 9.01745C19.5408 9.01753 19.5413 9.01735 19.541 9.01745L19.5398 9.0179C18.4138 9.33661 17.346 9.82293 16.372 10.4566ZM14.9167 12.4248C14.9053 13.0436 14.8691 13.662 14.808 14.2785C14.7576 14.7857 14.6905 15.2921 14.6064 15.7959C14.4557 16.7028 13.7684 17.4237 12.8766 17.6222L12.7897 17.6397C10.6146 18.0349 8.38548 18.0349 6.20911 17.6397C5.27529 17.47 4.54789 16.7318 4.39233 15.7956L4.35425 15.5598C3.9738 13.1219 3.98655 10.6379 4.39233 8.2043C4.54789 7.26813 5.27529 6.53025 6.20911 6.36055C8.38414 5.96543 10.6133 5.96529 12.7897 6.36043C13.7235 6.53014 14.4509 7.26851 14.6064 8.20467C14.6905 8.70874 14.7576 9.21491 14.8079 9.72232C14.8691 10.3391 14.9053 10.9577 14.9167 11.5766C14.9219 11.8593 14.9219 12.1421 14.9167 12.4248Z" fill="currentColor"/>
</svg>
