<svg width="24" height="24" viewBox="0 0 24 24" fill="none" xmlns="http://www.w3.org/2000/svg">
<path d="M6.22343 2.96707C10.0601 2.48689 13.9411 2.48689 17.7777 2.96707L17.7779 2.96695C19.4793 3.17943 20.8216 4.51985 21.0342 6.22305C21.499 10.0611 21.5146 13.9402 21.0342 17.7781C20.8217 19.4795 19.4812 20.8215 17.778 21.0341L17.7781 21.0342C13.9413 21.5145 10.0599 21.5145 6.22306 21.0342C4.52166 20.8216 3.17949 19.4811 2.96696 17.7779L2.96708 17.7777C2.48689 13.9411 2.48688 10.06 2.96708 6.2233C3.17957 4.52177 4.52008 3.1796 6.22343 2.96707ZM17.5918 4.45535C13.8787 3.9906 10.1225 3.9906 6.40934 4.45535L6.4091 4.45547C5.38744 4.58295 4.58299 5.38823 4.45548 6.40921L4.45536 6.40933C3.99045 10.1237 4.00618 13.8773 4.45536 17.5918L4.45548 17.5921C4.58295 18.6137 5.38824 19.4183 6.40922 19.5458C10.1224 20.0106 13.8787 20.0106 17.5918 19.5458L17.5921 19.5457C18.6137 19.4182 19.4183 18.613 19.5458 17.5921V17.5918C20.0106 13.8787 20.0106 10.1225 19.5458 6.40933L19.5457 6.40909C19.4182 5.38745 18.613 4.583 17.5921 4.45547L17.5918 4.45535Z" fill="currentColor"/>
<path d="M11.25 13V7.99997C11.25 7.58575 11.5858 7.24997 12 7.24997C12.4142 7.24997 12.75 7.58575 12.75 7.99997V13C12.75 13.4142 12.4142 13.75 12 13.75C11.5858 13.75 11.25 13.4142 11.25 13Z" fill="currentColor"/>
<path d="M12 17.125C12.6213 17.125 13.125 16.6213 13.125 16C13.125 15.3786 12.6213 14.875 12 14.875C11.3787 14.875 10.875 15.3786 10.875 16C10.875 16.6213 11.3787 17.125 12 17.125Z" fill="currentColor"/>
</svg>
