<svg width="24" height="24" viewBox="0 0 24 24" fill="none" xmlns="http://www.w3.org/2000/svg">
<path d="M11.25 14.0001V9.0001C11.25 8.58589 11.5858 8.2501 12 8.2501C12.4142 8.2501 12.75 8.58589 12.75 9.0001V14.0001C12.75 14.4143 12.4142 14.7501 12 14.7501C11.5858 14.7501 11.25 14.4143 11.25 14.0001Z" fill="currentColor"/>
<path d="M12 18.1251C12.6213 18.1251 13.125 17.6214 13.125 17.0001C13.125 16.3788 12.6213 15.8751 12 15.8751C11.3787 15.8751 10.875 16.3788 10.875 17.0001C10.875 17.6214 11.3787 18.1251 12 18.1251Z" fill="currentColor"/>
<path d="M8.9358 3.99159C10.4064 1.90575 13.4727 1.87375 14.994 3.89369L15.0653 3.99134L15.0654 3.99159C17.6131 7.60459 19.8385 11.4345 21.7163 15.4363L21.897 15.8241L21.8971 15.8242C22.9845 18.1771 21.4143 20.8976 18.8328 21.132C18.8309 21.1321 18.8291 21.1322 18.8273 21.1323C14.2836 21.5448 9.71215 21.5447 5.16847 21.132C2.58694 20.8976 1.01677 18.1771 2.10414 15.8242L2.10426 15.8241C4.01951 11.6818 6.30593 7.72114 8.9358 3.99159ZM13.797 4.79762C12.8836 3.58478 11.0438 3.60487 10.1618 4.85597L10.1616 4.85609C7.58406 8.51148 5.34294 12.3933 3.46571 16.4534C2.81311 17.8655 3.75563 19.4976 5.30409 19.6382L5.72182 19.6749C10.0391 20.0424 14.3803 20.0302 18.6959 19.6382L18.6994 19.638C20.2465 19.496 21.1877 17.8649 20.5354 16.4535C18.6582 12.3935 16.4172 8.51164 13.8397 4.85633L13.797 4.79762Z" fill="currentColor"/>
</svg>
