<svg width="24" height="24" viewBox="0 0 24 24" fill="none" xmlns="http://www.w3.org/2000/svg">
<path d="M11.2507 13.2366V8.23664C11.2507 7.82243 11.5864 7.48664 12.0007 7.48664C12.4149 7.48664 12.7507 7.82243 12.7507 8.23664V13.2366C12.7507 13.6509 12.4149 13.9866 12.0007 13.9866C11.5864 13.9866 11.2507 13.6509 11.2507 13.2366Z" fill="currentColor"/>
<path d="M12.0007 17.3616C12.622 17.3616 13.1257 16.858 13.1257 16.2366C13.1257 15.6153 12.622 15.1116 12.0007 15.1116C11.3793 15.1116 10.8757 15.6153 10.8757 16.2366C10.8757 16.858 11.3793 17.3616 12.0007 17.3616Z" fill="currentColor"/>
<path d="M8.95557 4.86743C10.4522 2.78662 13.549 2.78606 15.0447 4.86767L15.2603 5.16968C17.407 8.19595 19.266 11.4155 20.8131 14.7867L20.9668 15.1244L21.0143 15.2343C21.9707 17.54 20.4396 20.1358 17.9375 20.396C17.9326 20.3966 17.9277 20.3975 17.9227 20.3979C13.9844 20.7917 10.0169 20.7917 6.0785 20.3979C3.5271 20.1432 1.97858 17.4604 3.03333 15.1243C4.66134 11.5163 6.64508 8.08055 8.95545 4.86755L8.95557 4.86743ZM13.8265 5.74304C12.9437 4.51427 11.1295 4.49451 10.2161 5.68567L10.1733 5.74328C7.92126 8.87523 5.98749 12.2243 4.40052 15.7413V15.7416C3.76783 17.1429 4.69669 18.7526 6.22767 18.9054C10.0664 19.2891 13.9337 19.2891 17.7725 18.9054L17.8438 18.8971C19.3321 18.7023 20.2225 17.1221 19.5995 15.7413C18.0125 12.2256 16.0788 8.8764 13.8267 5.74316L13.8265 5.74304Z" fill="currentColor"/>
</svg>
