<svg width="24" height="24" viewBox="0 0 24 24" fill="none" xmlns="http://www.w3.org/2000/svg">
<g clip-path="url(#clip0_6369_6301)">
<path d="M11.0787 16.85C10.9971 16.85 10.9216 16.8066 10.8804 16.7361L8.52984 12.7089C8.50934 12.6738 8.49854 12.6339 8.49854 12.5932V12.3256C8.49854 12.1988 8.60133 12.096 8.72813 12.096H8.78352C9.24124 12.096 9.62554 12.0536 9.93644 11.9689C10.256 11.8841 10.5064 11.7443 10.6878 11.5494C10.8218 11.4053 10.9158 11.2219 10.9696 10.9991C11.0016 10.8669 10.8934 10.7486 10.7574 10.7486H8.72813C8.60133 10.7486 8.49854 10.6458 8.49854 10.519V10.1647C8.49854 10.0379 8.60133 9.93508 8.72813 9.93508H10.7206C10.8648 9.93508 10.9747 9.80273 10.9271 9.66657C10.8595 9.47302 10.7624 9.30829 10.636 9.17241C10.4546 8.96903 10.2085 8.82073 9.89758 8.72751C9.59531 8.6343 9.22396 8.58769 8.78352 8.58769H8.72813C8.60133 8.58769 8.49854 8.48489 8.49854 8.35809V8.00377C8.49854 7.87696 8.60133 7.77417 8.72813 7.77417H13.6319C13.7587 7.77417 13.8615 7.87696 13.8615 8.00377V8.35809C13.8615 8.48489 13.7587 8.58769 13.6319 8.58769H12.0611C11.8448 8.58769 11.7278 8.88499 11.8468 9.06557C11.8671 9.09632 11.8866 9.1277 11.9055 9.15969C12.0047 9.32849 12.0761 9.51967 12.1196 9.73324C12.1428 9.84742 12.2395 9.93508 12.356 9.93508H13.6319C13.7587 9.93508 13.8615 10.0379 13.8615 10.1647V10.519C13.8615 10.6458 13.7587 10.7486 13.6319 10.7486H12.3857C12.2676 10.7486 12.1699 10.8386 12.1497 10.955C12.0595 11.4757 11.827 11.8899 11.4521 12.1977C11.1098 12.4776 10.6733 12.6737 10.1426 12.786C9.97991 12.8204 9.8925 13.0054 9.9799 13.1469L12.0517 16.4997C12.1462 16.6527 12.0362 16.85 11.8564 16.85H11.0787Z" fill="currentColor"/>
<path d="M18.0865 18.4328L18.7372 19.0177V19.0177L18.0865 18.4328ZM11.9524 21.5689L12.0455 22.439V22.439L11.9524 21.5689ZM5.29379 19.8013L4.78145 20.5106L5.29379 19.8013ZM1.52294 14.0356L0.667742 14.2207V14.2207L1.52294 14.0356ZM2.57233 7.22673L3.33212 7.66072V7.66072L2.57233 7.22673ZM7.90417 2.86399L7.62916 2.03333H7.62917L7.90417 2.86399ZM14.786 3.18318L14.4353 3.98482H14.4353L14.786 3.18318ZM20.4879 7.65892C20.6877 8.09892 20.493 8.6176 20.053 8.81741C19.613 9.01723 19.0943 8.82252 18.8945 8.38252L20.4879 7.65892ZM21.4274 11.9999C21.4274 14.591 20.4692 17.0905 18.7372 19.0177L17.4357 17.8479C18.8789 16.242 19.6774 14.1591 19.6774 11.9999H21.4274ZM18.7372 19.0177C17.0053 20.9448 14.6218 22.1634 12.0455 22.439L11.8593 20.6989C14.0062 20.4692 15.9924 19.4538 17.4357 17.8479L18.7372 19.0177ZM12.0455 22.439C9.46914 22.7146 6.88187 22.0277 4.78145 20.5106L5.80614 19.0919C7.55644 20.3562 9.71244 20.9286 11.8593 20.6989L12.0455 22.439ZM4.78145 20.5106C2.68102 18.9934 1.21583 16.7531 0.667742 14.2207L2.37814 13.8505C2.83487 15.9608 4.05583 17.8277 5.80614 19.0919L4.78145 20.5106ZM0.667742 14.2207C0.119658 11.6883 0.527407 9.04263 1.81254 6.79274L3.33212 7.66072C2.2612 9.53558 1.92142 11.7402 2.37814 13.8505L0.667742 14.2207ZM1.81254 6.79274C3.09768 4.54286 5.16941 2.84768 7.62916 2.03333L8.17917 3.69466C6.12943 4.37326 4.40303 5.78587 3.33212 7.66072L1.81254 6.79274ZM7.62917 2.03333C10.0889 1.21899 12.7629 1.34301 15.1368 2.38154L14.4353 3.98482C12.4572 3.1194 10.2289 3.01606 8.17917 3.69466L7.62917 2.03333ZM15.1367 2.38154C17.5106 3.42007 19.4165 5.29974 20.4879 7.65892L18.8945 8.38252C18.0017 6.41658 16.4135 4.85024 14.4353 3.98482L15.1367 2.38154Z" fill="currentColor"/>
<path d="M18.021 14.6213L19.967 12.286C20.2165 11.9866 20.6793 11.9959 20.9166 12.3051L22.6939 14.6213" stroke="currentColor" stroke-width="1.75" stroke-linecap="round"/>
</g>
<defs>
<clipPath id="clip0_6369_6301">
<rect width="24" height="24" fill="currentColor"/>
</clipPath>
</defs>
</svg>
