<svg width="24" height="24" viewBox="0 0 24 24" fill="none" xmlns="http://www.w3.org/2000/svg">
<g clip-path="url(#clip0_5992_160839)">
<path d="M11.5843 11.1557C11.9105 10.7191 12.5081 10.6971 12.9204 11.1072C13.3326 11.5173 13.4045 12.2041 13.0783 12.6407C12.7521 13.0772 12.1545 13.0973 11.7422 12.6872C11.33 12.2772 11.259 11.5913 11.5843 11.1557Z" fill="currentColor" stroke="currentColor" stroke-width="0.075"/>
<path d="M10.3583 9.93822C11.2178 8.78518 12.7984 8.72883 13.8869 9.81229C14.9753 10.8957 15.1642 12.7079 14.3038 13.86C13.4452 15.0121 11.8646 15.0685 10.7742 13.985C9.68482 12.9025 9.49788 11.0903 10.3574 9.93917L10.3583 9.93822ZM13.0795 12.6421C13.4057 12.2055 13.3338 11.5187 12.9215 11.1086C12.5093 10.6985 11.9107 10.7196 11.5855 11.1571C11.2602 11.5946 11.3302 12.2795 11.7434 12.6887C12.1566 13.0978 12.7552 13.0787 13.0795 12.6421Z" fill="currentColor" stroke="currentColor" stroke-width="0.075"/>
<path d="M7.90678 7.50095C9.83469 4.91687 13.3775 4.78992 15.8213 7.21916C18.2651 9.64839 18.684 13.7114 16.757 16.2964C14.83 18.8795 11.2863 19.0055 8.84247 16.5763C6.39964 14.148 5.98077 10.085 7.90678 7.50095ZM15.5308 15.0785C16.9245 13.2099 16.6226 10.2723 14.855 8.51644C13.0884 6.76152 10.5267 6.85222 9.13298 8.72078C7.74024 10.5884 8.04219 13.526 9.80974 15.2818C11.5773 17.0377 14.139 16.947 15.5318 15.0794" fill="currentColor"/>
<path d="M15.5308 15.0785C16.9245 13.2099 16.6226 10.2723 14.855 8.51644C13.0884 6.76153 10.5267 6.85222 9.13298 8.72078C7.74024 10.5884 8.04219 13.526 9.80974 15.2818C11.5773 17.0377 14.139 16.947 15.5318 15.0794M7.90678 7.50095C9.83469 4.91687 13.3775 4.78992 15.8213 7.21916C18.2651 9.64839 18.684 13.7114 16.757 16.2964C14.83 18.8795 11.2863 19.0055 8.84247 16.5763C6.39964 14.148 5.98077 10.085 7.90678 7.50095Z" stroke="currentColor" stroke-width="0.075"/>
<path d="M7.50403 17.4765C5.67793 15.4297 4.83377 12.5519 5.23535 9.84113C5.59556 7.23148 7.33917 4.71684 9.93757 3.95781C5.55863 4.95787 3.7422 9.49349 4.72851 13.5955C5.77672 18.0885 10.1236 21.5781 14.7273 19.8383C12.3554 20.5924 9.41757 19.6913 7.50403 17.4765Z" fill="currentColor" stroke="currentColor" stroke-width="0.075"/>
<path d="M6.68204 6.28447C9.14321 2.98392 13.6681 2.82356 16.7881 5.92427C19.9091 9.02592 20.4439 14.2152 17.9828 17.5158C15.5225 20.8154 10.9976 20.9757 7.87665 17.8741C4.75569 14.7724 4.22086 9.58311 6.68204 6.28447ZM16.7575 16.2969C18.6854 13.7128 18.2656 9.64889 15.8218 7.21965C13.379 4.79136 9.83518 4.91737 7.90728 7.50145C5.98031 10.0846 6.39917 14.1475 8.84296 16.5768C11.2868 19.006 14.8305 18.88 16.7575 16.2969Z" fill="currentColor" stroke="currentColor" stroke-width="0.075"/>
<path d="M15.9922 10.2282C14.8531 7.35947 11.2268 6.01729 9.132 8.72022C6.92882 11.6473 9.13188 16.7894 13.0024 16.5266C15.9904 16.2158 17.0792 12.7327 15.9922 10.2282ZM14.3046 13.8609C13.4461 15.013 11.8655 15.0693 10.7751 13.9859C9.68566 12.9034 9.49872 11.0912 10.3582 9.94005C11.2177 8.78701 12.7983 8.73066 13.8868 9.81412C14.9771 10.8976 15.1641 12.7098 14.3037 13.8619" fill="currentColor"/>
<path d="M14.3046 13.8609C13.4461 15.013 11.8655 15.0693 10.7751 13.9859C9.68566 12.9034 9.49872 11.0912 10.3582 9.94005C11.2177 8.78701 12.7983 8.73066 13.8868 9.81412C14.9771 10.8976 15.1641 12.7098 14.3037 13.8619M15.9922 10.2282C14.8531 7.35947 11.2268 6.01729 9.132 8.72022C6.92882 11.6473 9.13188 16.7894 13.0024 16.5266C15.9904 16.2158 17.0792 12.7327 15.9922 10.2282Z" stroke="currentColor" stroke-width="0.075"/>
<path fill-rule="evenodd" clip-rule="evenodd" d="M22.8664 10.055C22.1705 10.5872 21.4463 10.8441 20.694 10.8235C20.1607 10.8105 19.6133 10.6566 19.0507 10.365C16.6713 11.0295 15.4811 11.3612 15.4811 11.3612C15.3586 11.3276 15.274 11.2268 15.2697 11.1064C15.2654 10.9872 15.3413 10.8734 15.4605 10.8203C15.4605 10.8203 16.6106 10.585 18.9119 10.1157C19.0984 9.7612 19.313 9.46527 19.5569 9.22787C20.2778 8.52652 21.2491 8.33682 22.474 8.65877C22.5965 8.64685 22.7081 8.71406 22.7417 8.82137C22.7753 8.92869 22.7222 9.04793 22.6149 9.10755C22.4046 9.32001 22.371 9.4566 22.5141 9.5173C22.7732 9.69291 22.9032 9.7818 22.9032 9.7818C22.9704 9.86418 22.9542 9.98342 22.8664 10.055Z" fill="currentColor" stroke="currentColor" stroke-width="0.075"/>
<path fill-rule="evenodd" clip-rule="evenodd" d="M22.8666 10.055C22.1707 10.5872 21.4465 10.8441 20.6942 10.8235C21.3587 10.5514 21.9452 10.0398 22.2931 9.40565C21.8086 9.02625 21.1712 8.84847 20.5197 8.91351C20.1707 8.94928 19.8487 9.05985 19.5571 9.22787C20.278 8.52652 21.2493 8.33682 22.4742 8.65877C22.5967 8.64685 22.7083 8.71406 22.7419 8.82137C22.7755 8.92869 22.7224 9.04793 22.6151 9.10755C22.4048 9.32001 22.3712 9.4566 22.5143 9.5173C22.7734 9.69291 22.9034 9.7818 22.9034 9.7818C22.9706 9.86418 22.9544 9.98342 22.8666 10.055Z" fill="currentColor" stroke="currentColor" stroke-width="0.075"/>
<path fill-rule="evenodd" clip-rule="evenodd" d="M13.929 11.7113L12.3583 11.8967C12.3334 11.8598 12.3269 11.8208 12.3388 11.7796L13.8174 11.2344L13.9279 11.7113H13.929Z" fill="currentColor" stroke="currentColor" stroke-width="0.075"/>
<path fill-rule="evenodd" clip-rule="evenodd" d="M13.9286 11.7116C13.8039 11.5729 13.7356 11.4081 13.818 11.2346C14.3882 10.9062 15.3443 10.6796 15.7107 10.7653C15.6467 10.9691 15.7052 11.1262 15.8331 11.2639C15.4028 11.5078 14.4142 11.7756 13.9296 11.7116H13.9286Z" fill="currentColor" stroke="currentColor" stroke-width="0.075"/>
<circle cx="19.5" cy="17.25" r="2.84477" fill="currentColor" stroke="currentColor" stroke-width="0.310458"/>
<path d="M19.3743 15.798C19.3561 15.7981 19.3379 15.7989 19.3198 15.8006C19.3132 15.8011 19.3067 15.8018 19.3001 15.8025C19.2924 15.8034 19.2847 15.8043 19.2771 15.8055L19.2662 15.8073C18.9381 15.8615 18.6877 16.1465 18.6877 16.49C18.6877 16.7357 18.8158 16.9513 19.0087 17.0742C19.0113 17.0763 19.0143 17.0783 19.0174 17.0802L19.0179 17.0803L18.9725 17.0947C18.9035 17.1183 18.8367 17.1478 18.7729 17.183L18.7256 17.2104C18.7207 17.2134 18.716 17.2164 18.7112 17.2194C18.6746 17.2424 18.6393 17.2672 18.6052 17.2937L18.6004 17.2975C18.3086 17.5279 18.1214 17.8847 18.1214 18.2853C18.1214 18.3394 18.1249 18.3935 18.1318 18.4471H20.6372V18.2859C20.6372 17.7164 20.2589 17.2354 19.74 17.0801C19.9385 16.9587 20.0708 16.7399 20.0708 16.49C20.0708 16.1238 19.7864 15.8242 19.4264 15.7997C19.4218 15.7993 19.4172 15.7989 19.4126 15.7987C19.4015 15.7982 19.3904 15.7979 19.3793 15.7979L19.3743 15.798ZM19.3786 17.1846C19.9868 17.1846 20.4799 17.6777 20.4799 18.2859C20.4799 18.2872 20.4798 18.2885 20.4798 18.2898H18.2775C18.2775 18.2885 18.2774 18.2872 18.2774 18.2859C18.2774 17.6777 18.7704 17.1846 19.3786 17.1846ZM19.3786 15.9551C19.674 15.9551 19.9135 16.1946 19.9135 16.49C19.9135 16.7854 19.674 17.0249 19.3786 17.0249C19.0832 17.0249 18.8437 16.7854 18.8437 16.49C18.8437 16.1946 19.0832 15.9551 19.3786 15.9551Z" fill="currentColor" stroke="currentColor" stroke-width="0.0204708"/>
<path d="M18.5007 16.0361C18.1879 16.0361 17.9343 16.2897 17.9343 16.6025C17.9343 16.7969 18.0323 16.9683 18.1815 17.0703C17.7822 17.2026 17.4937 17.5783 17.492 18.0218H17.4919V18.1791H17.9678C17.9717 18.1264 17.9785 18.0738 17.9883 18.0218H17.6415C17.6436 17.5501 18.0265 17.1684 18.4988 17.1684L18.4882 17.1685L18.5004 17.1688C18.5026 17.1688 18.5049 17.1687 18.5072 17.1687L18.514 17.1685C18.583 17.1151 18.6568 17.0682 18.7344 17.0284C18.7175 17.0086 18.7014 16.988 18.6864 16.9668C18.6289 16.9963 18.5653 17.0116 18.5007 17.0115C18.2748 17.0115 18.0917 16.8284 18.0917 16.6025C18.0917 16.3766 18.2748 16.1935 18.5007 16.1935C18.5261 16.1935 18.5514 16.196 18.5763 16.2007C18.5938 16.15 18.616 16.101 18.6427 16.0544C18.6203 16.0486 18.5976 16.0442 18.5746 16.0411L18.5712 16.0407C18.5613 16.0394 18.5513 16.0385 18.5413 16.0377C18.5392 16.0376 18.5372 16.0374 18.5351 16.0373C18.5237 16.0366 18.5123 16.0361 18.5007 16.0361Z" fill="currentColor" stroke="currentColor" stroke-width="0.0204708"/>
<path d="M20.2192 16.0361C20.5318 16.0361 20.7852 16.2897 20.7852 16.6025C20.7852 16.7969 20.6873 16.9683 20.5382 17.0703C20.9373 17.2026 21.2256 17.5783 21.2273 18.0218H21.2274V18.1791H20.7518C20.7479 18.1264 20.741 18.0738 20.7313 18.0218H21.078C21.0758 17.5501 20.6931 17.1684 20.2211 17.1684L20.2317 17.1685L20.2195 17.1688C20.2172 17.1688 20.2149 17.1687 20.2127 17.1687L20.2059 17.1685C20.1369 17.1151 20.0632 17.0682 19.9856 17.0284C20.0025 17.0086 20.0185 16.988 20.0336 16.9668C20.091 16.9963 20.1546 17.0116 20.2191 17.0115C20.4449 17.0115 20.628 16.8284 20.628 16.6025C20.628 16.3766 20.4449 16.1935 20.2191 16.1935C20.1938 16.1935 20.1685 16.196 20.1436 16.2007C20.1261 16.15 20.1039 16.101 20.0772 16.0544C20.0996 16.0486 20.1223 16.0442 20.1453 16.0411L20.1487 16.0407C20.1585 16.0394 20.1685 16.0385 20.1786 16.0377C20.1806 16.0376 20.1827 16.0374 20.1848 16.0373C20.1961 16.0366 20.2076 16.0361 20.2192 16.0361Z" fill="currentColor" stroke="currentColor" stroke-width="0.0204708"/>
</g>
<defs>
<clipPath id="clip0_5992_160839">
<rect width="24" height="24" fill="currentColor"/>
</clipPath>
</defs>
</svg>
