<svg width="24" height="24" viewBox="0 0 24 24" fill="none" xmlns="http://www.w3.org/2000/svg">
<g clip-path="url(#clip0_5991_159869)">
<path d="M22.7285 14.1609C22.7184 14.1761 22.7032 14.1888 22.6829 14.2015L15.4724 18.3913L15.4673 19.8395L22.6778 15.6497C22.6778 15.6497 22.6778 15.6497 22.6803 15.6497C22.6905 15.6446 22.7006 15.637 22.7082 15.6294C22.7133 15.6243 22.7184 15.6192 22.7209 15.6141C22.7209 15.6141 22.7209 15.6116 22.7234 15.6091C22.7234 15.6091 22.726 15.604 22.7285 15.6015C22.7285 15.5964 22.7336 15.5939 22.7336 15.5888C22.7336 15.5837 22.7361 15.5812 22.7361 15.5761C22.7361 15.571 22.7361 15.5685 22.7361 15.5634L22.7412 14.1152C22.7412 14.1305 22.7361 14.1457 22.726 14.1609H22.7285Z" fill="currentColor" stroke="currentColor" stroke-width="0.075"/>
<path d="M12.4547 9.54259C11.1359 9.49948 9.7917 9.77339 8.78735 10.3567C7.78301 10.9401 7.3138 11.7212 7.39243 12.4846C7.40511 12.6089 7.12866 12.6901 6.97902 12.6038L3.15945 10.3973C3.07576 10.3491 3.07576 10.2705 3.15945 10.2223L8.5388 7.09766C8.6225 7.04948 8.75692 7.04948 8.84315 7.09766L12.6627 9.30419C12.8124 9.39042 12.6729 9.55274 12.4598 9.54513L12.4547 9.54259ZM5.54351 10.7524L6.88772 9.97122C6.97141 9.92303 6.97141 9.84187 6.88772 9.79368L6.09134 9.33462C6.00764 9.28643 5.87069 9.28643 5.78699 9.33462L4.44279 10.1158C4.35656 10.1665 4.35909 10.2451 4.44279 10.2933L5.23916 10.7524C5.32286 10.8006 5.45982 10.8031 5.54605 10.7524" fill="currentColor"/>
<path d="M5.54351 10.7524L6.88772 9.97122C6.97141 9.92303 6.97141 9.84187 6.88772 9.79368L6.09134 9.33462C6.00764 9.28643 5.87069 9.28643 5.78699 9.33462L4.44279 10.1158C4.35656 10.1665 4.35909 10.2451 4.44279 10.2933L5.23916 10.7524C5.32286 10.8006 5.45982 10.8031 5.54605 10.7524M12.4547 9.54259C11.1359 9.49948 9.7917 9.77339 8.78735 10.3567C7.78301 10.9401 7.3138 11.7212 7.39243 12.4846C7.40511 12.6089 7.12866 12.6901 6.97902 12.6038L3.15945 10.3973C3.07576 10.3491 3.07576 10.2705 3.15945 10.2223L8.5388 7.09766C8.6225 7.04948 8.75692 7.04948 8.84315 7.09766L12.6627 9.30419C12.8124 9.39042 12.6729 9.55274 12.4598 9.54513L12.4547 9.54259Z" stroke="currentColor" stroke-width="0.075"/>
<path d="M14.7556 12.0003L14.4437 12.1829L13.5205 11.6503C13.5332 11.7289 13.5205 11.8075 13.4875 11.8836C13.452 11.9622 13.3861 12.0358 13.2846 12.1119L13.9288 12.4847L13.6169 12.6673L12.9828 12.3021C12.7216 12.4263 12.4451 12.4821 12.1535 12.4669C11.8669 12.4517 11.5777 12.3807 11.281 12.2488L10.6774 13.6792L10.1777 13.3901L10.8625 11.9216L11.0756 11.7974L11.1846 11.8608C11.3571 11.9597 11.5194 12.0332 11.669 12.0814C11.8212 12.1321 11.9709 12.155 12.1129 12.1524C12.2549 12.1499 12.3995 12.1119 12.5415 12.0434L11.593 11.4955L11.9049 11.3129L12.8484 11.8582C12.9473 11.7745 12.998 11.6934 13.0056 11.6097C13.0158 11.526 12.9777 11.4372 12.8966 11.351C12.818 11.2648 12.6962 11.1734 12.5314 11.0771L12.4223 11.0137L12.7343 10.8311L14.7556 11.9977V12.0003Z" fill="currentColor" stroke="currentColor" stroke-width="0.075"/>
<path d="M14.8443 10.775C16.3153 11.6247 16.3204 13.0069 14.8519 13.8591C13.3835 14.7138 11.0019 14.7138 9.52838 13.8642C8.05483 13.0145 8.05229 11.6348 9.52331 10.7826C10.9943 9.93047 13.3733 9.92793 14.8443 10.775ZM14.4436 12.1801L14.7556 11.9975L12.7342 10.8308L12.4222 11.0134L12.5313 11.0768C12.6961 11.1732 12.8204 11.2645 12.8965 11.3508C12.9777 11.4395 13.0132 11.5258 13.0056 11.6095C12.9979 11.6931 12.9472 11.7743 12.8483 11.858L11.9048 11.3127L11.5929 11.4953L12.5414 12.0431C12.3994 12.1116 12.2548 12.1471 12.1128 12.1522C11.9682 12.1573 11.8211 12.1319 11.669 12.0812C11.5193 12.033 11.357 11.9595 11.1845 11.8605L11.0755 11.7971L10.8624 11.9214L10.1777 13.3899L10.6773 13.679L11.2809 12.2486C11.5777 12.3779 11.8668 12.4515 12.1534 12.4667C12.4451 12.4819 12.724 12.4261 12.9827 12.3018L13.6168 12.6671L13.9287 12.4845L13.2845 12.1116C13.386 12.0381 13.4519 11.962 13.4874 11.8834C13.5229 11.8073 13.5356 11.7287 13.5204 11.65L14.4436 12.1826" fill="currentColor"/>
<path d="M14.4436 12.1801L14.7556 11.9975L12.7342 10.8308L12.4222 11.0134L12.5313 11.0768C12.6961 11.1732 12.8204 11.2645 12.8965 11.3508C12.9777 11.4395 13.0132 11.5258 13.0056 11.6095C12.9979 11.6931 12.9472 11.7743 12.8483 11.858L11.9048 11.3127L11.5929 11.4953L12.5414 12.0431C12.3994 12.1116 12.2548 12.1471 12.1128 12.1522C11.9682 12.1573 11.8211 12.1319 11.669 12.0812C11.5193 12.033 11.357 11.9595 11.1845 11.8605L11.0755 11.7971L10.8624 11.9214L10.1777 13.3899L10.6773 13.679L11.2809 12.2486C11.5777 12.3779 11.8668 12.4515 12.1534 12.4667C12.4451 12.4819 12.724 12.4261 12.9827 12.3018L13.6168 12.6671L13.9287 12.4845L13.2845 12.1116C13.386 12.0381 13.4519 11.962 13.4874 11.8834C13.5229 11.8073 13.5356 11.7287 13.5204 11.65L14.4436 12.1826M14.8443 10.775C16.3153 11.6247 16.3204 13.0069 14.8519 13.8591C13.3835 14.7138 11.0019 14.7138 9.52838 13.8642C8.05483 13.0145 8.05229 11.6348 9.52331 10.7826C10.9943 9.93047 13.3733 9.92793 14.8443 10.775Z" stroke="currentColor" stroke-width="0.075"/>
<path d="M15.2112 10.5617C16.8851 11.528 16.8877 13.0979 15.2188 14.0693C13.5475 15.0407 10.8362 15.0432 9.16232 14.0769C7.48587 13.1081 7.48333 11.5407 9.15471 10.5693C10.8261 9.59793 13.5373 9.59539 15.2112 10.5617ZM9.52754 13.8639C10.9986 14.7135 13.3826 14.711 14.8511 13.8588C16.317 13.0066 16.3145 11.6244 14.8435 10.7747C13.3725 9.9251 10.9884 9.92764 9.52246 10.7823C8.05652 11.6371 8.05906 13.0168 9.52754 13.8639Z" fill="currentColor" stroke="currentColor" stroke-width="0.075"/>
<path d="M21.9476 14.0291C22.0313 14.0773 22.0313 14.1559 21.9476 14.2041L15.4701 17.9678C15.3864 18.016 15.252 18.016 15.1657 17.9678L2.05594 10.3997C1.97224 10.3515 1.97224 10.2729 2.05594 10.2247L8.53348 6.46095C8.61717 6.41276 8.75159 6.41276 8.83782 6.46095L21.9476 14.0291ZM9.16246 14.0773C10.8364 15.0436 13.5476 15.041 15.219 14.0696C16.8878 13.0983 16.8853 11.5283 15.2114 10.562C13.5349 9.5932 10.8237 9.59827 9.15485 10.5696C7.48601 11.541 7.48855 13.111 9.16246 14.0773ZM6.97623 12.6037C7.12587 12.6899 7.40485 12.6088 7.38963 12.4845C7.31355 11.7211 7.77768 10.9425 8.78456 10.3566C9.79145 9.77073 11.1331 9.49936 12.452 9.54247C12.665 9.55008 12.807 9.3903 12.6549 9.30153L8.83529 7.095C8.75159 7.04682 8.61463 7.04682 8.53094 7.095L3.15159 10.2196C3.06789 10.2678 3.06789 10.3465 3.15159 10.3946L6.97116 12.6012M15.4701 17.3312L20.8494 14.2066C20.9331 14.1584 20.9331 14.0798 20.8494 14.0316L17.3976 12.0381C17.2454 11.9494 16.969 12.0331 16.9817 12.1548C17.0578 12.9182 16.5936 13.6968 15.5867 14.2827C14.5799 14.8686 13.2357 15.1399 11.9168 15.0968C11.7038 15.0892 11.5617 15.249 11.7139 15.3378L15.1657 17.3312C15.2494 17.3794 15.3864 17.3794 15.4701 17.3312Z" fill="currentColor"/>
<path d="M6.97623 12.6037C7.12587 12.6899 7.40485 12.6088 7.38963 12.4845C7.31355 11.7211 7.77768 10.9425 8.78456 10.3566C9.79145 9.77073 11.1331 9.49936 12.452 9.54247C12.665 9.55008 12.807 9.3903 12.6549 9.30153L8.83529 7.095C8.75159 7.04682 8.61463 7.04682 8.53094 7.095L3.15159 10.2196C3.06789 10.2678 3.06789 10.3465 3.15159 10.3946L6.97116 12.6012M21.9476 14.0291C22.0313 14.0773 22.0313 14.1559 21.9476 14.2041L15.4701 17.9678C15.3864 18.016 15.252 18.016 15.1657 17.9678L2.05594 10.3997C1.97224 10.3515 1.97224 10.2729 2.05594 10.2247L8.53348 6.46095C8.61717 6.41276 8.75159 6.41276 8.83782 6.46095L21.9476 14.0291ZM9.16246 14.0773C10.8364 15.0436 13.5476 15.041 15.219 14.0696C16.8878 13.0983 16.8853 11.5283 15.2114 10.562C13.5349 9.5932 10.8237 9.59827 9.15485 10.5696C7.48601 11.541 7.48855 13.111 9.16246 14.0773ZM15.4701 17.3312L20.8494 14.2066C20.9331 14.1584 20.9331 14.0798 20.8494 14.0316L17.3976 12.0381C17.2454 11.9494 16.969 12.0331 16.9817 12.1548C17.0578 12.9182 16.5936 13.6968 15.5867 14.2827C14.5799 14.8686 13.2357 15.1399 11.9168 15.0968C11.7038 15.0892 11.5617 15.249 11.7139 15.3378L15.1657 17.3312C15.2494 17.3794 15.3864 17.3794 15.4701 17.3312Z" stroke="currentColor" stroke-width="0.075"/>
<path d="M19.7462 14.0317C19.8299 14.0799 19.8299 14.1611 19.7462 14.2092L19.3175 14.4578C19.2339 14.506 19.0994 14.506 19.0132 14.4578L18.2168 13.9987C18.1331 13.9505 18.1331 13.8719 18.2168 13.8237L18.6454 13.5752C18.7291 13.527 18.8661 13.5245 18.9498 13.5752L19.7462 14.0342V14.0317Z" fill="currentColor" stroke="currentColor" stroke-width="0.075"/>
<path d="M20.8469 14.0319C20.9306 14.0801 20.9306 14.1587 20.8469 14.2069L15.4676 17.3315C15.3839 17.3797 15.2495 17.3797 15.1632 17.3315L11.7114 15.3381C11.5618 15.2518 11.7013 15.0895 11.9143 15.0971C13.2332 15.1402 14.5774 14.8663 15.5842 14.283C16.5911 13.6997 17.0553 12.921 16.9792 12.1551C16.9665 12.0308 17.2429 11.9497 17.3951 12.0384L20.8469 14.0319ZM19.315 14.458L19.7437 14.2094C19.8274 14.1613 19.8274 14.0801 19.7437 14.0319L18.9473 13.5729C18.8636 13.5247 18.7266 13.5247 18.6429 13.5729L18.2143 13.8214C18.1306 13.8696 18.1306 13.9482 18.2143 13.9964L19.0107 14.4555C19.0944 14.5036 19.2314 14.5036 19.315 14.4555" fill="currentColor"/>
<path d="M19.315 14.458L19.7437 14.2094C19.8274 14.1613 19.8274 14.0801 19.7437 14.0319L18.9473 13.5729C18.8636 13.5247 18.7266 13.5247 18.6429 13.5729L18.2143 13.8214C18.1306 13.8696 18.1306 13.9482 18.2143 13.9964L19.0107 14.4555C19.0944 14.5036 19.2314 14.5036 19.315 14.4555M20.8469 14.0319C20.9306 14.0801 20.9306 14.1587 20.8469 14.2069L15.4676 17.3315C15.3839 17.3797 15.2495 17.3797 15.1632 17.3315L11.7114 15.3381C11.5618 15.2518 11.7013 15.0895 11.9143 15.0971C13.2332 15.1402 14.5774 14.8663 15.5842 14.283C16.5911 13.6997 17.0553 12.921 16.9792 12.1551C16.9665 12.0308 17.2429 11.9497 17.3951 12.0384L20.8469 14.0319Z" stroke="currentColor" stroke-width="0.075"/>
<path d="M22.6807 14.029C22.7644 14.0772 22.7644 14.1558 22.6807 14.204L15.4702 18.3938C15.384 18.4446 15.2496 18.4446 15.1659 18.3938L1.32058 10.3996C1.23689 10.3514 1.23689 10.2728 1.32058 10.2221L8.5311 6.03224C8.61479 5.98405 8.74921 5.98405 8.83545 6.03224L22.6807 14.0264V14.029ZM15.4702 17.9703L21.9478 14.2065C22.0315 14.1583 22.0315 14.0797 21.9478 14.0315L8.83798 6.46339C8.75429 6.41521 8.61733 6.41521 8.53363 6.46339L2.05609 10.2272C1.9724 10.2754 1.9724 10.354 2.05609 10.4022L15.1659 17.9703C15.2496 18.0185 15.3865 18.0185 15.4702 17.9703Z" fill="currentColor" stroke="currentColor" stroke-width="0.075"/>
<path d="M6.88743 9.79304C6.97113 9.84122 6.97113 9.92238 6.88743 9.97057L5.54323 10.7517C5.457 10.8025 5.32004 10.7999 5.23635 10.7517L4.43997 10.2927C4.35627 10.2445 4.35627 10.1659 4.43997 10.1151L5.78417 9.33397C5.86787 9.28579 6.00483 9.28325 6.08852 9.33397L6.8849 9.79304H6.88743Z" fill="currentColor" stroke="currentColor" stroke-width="0.075"/>
<path d="M15.404 18.4189C15.404 18.4189 15.3964 18.4189 15.3939 18.4214C15.3711 18.4265 15.3457 18.429 15.3203 18.429C15.3203 18.429 15.3203 18.429 15.3178 18.429C15.2924 18.429 15.2645 18.4265 15.2392 18.4214C15.2392 18.4214 15.2392 18.4214 15.2366 18.4214C15.2113 18.4163 15.1885 18.4062 15.1682 18.3935L1.32287 10.3993C1.27976 10.374 1.25947 10.3435 1.25947 10.3105L1.25439 11.7587C1.25439 11.7917 1.27468 11.8221 1.3178 11.8475L15.1631 19.8417C15.1631 19.8417 15.1834 19.8519 15.1935 19.8569C15.2011 19.8595 15.2113 19.862 15.2189 19.8645C15.224 19.8645 15.2265 19.8645 15.2316 19.8671C15.2316 19.8671 15.2316 19.8671 15.2341 19.8671C15.2341 19.8671 15.2392 19.8671 15.2417 19.8671C15.2493 19.8671 15.2569 19.8696 15.262 19.8696C15.2696 19.8696 15.2747 19.8696 15.2823 19.8696C15.2899 19.8696 15.2975 19.8696 15.3026 19.8696C15.3051 19.8696 15.3077 19.8696 15.3102 19.8696C15.3102 19.8696 15.3102 19.8696 15.3127 19.8696C15.3153 19.8696 15.3203 19.8696 15.3229 19.8696C15.3305 19.8696 15.3381 19.8696 15.3457 19.8696C15.3559 19.8696 15.3635 19.8696 15.3736 19.8645C15.3787 19.8645 15.3812 19.8645 15.3863 19.862C15.3888 19.862 15.3939 19.862 15.3964 19.8595C15.4015 19.8595 15.4091 19.8569 15.4142 19.8544C15.4319 19.8493 15.4472 19.8417 15.4624 19.8341L15.4674 18.3859C15.4472 18.3986 15.4243 18.4062 15.4015 18.4113L15.404 18.4189Z" fill="currentColor" stroke="currentColor" stroke-width="0.075"/>
<path d="M22.73 12.2947C22.7198 12.3099 22.7046 12.3226 22.6843 12.3353L15.4738 16.5251L15.4688 17.9733L22.6793 13.7834C22.6793 13.7834 22.6793 13.7834 22.6818 13.7834C22.6919 13.7784 22.7021 13.7708 22.7097 13.7632C22.7148 13.7581 22.7198 13.753 22.7224 13.7479C22.7224 13.7479 22.7224 13.7454 22.7249 13.7429C22.7249 13.7429 22.7274 13.7378 22.73 13.7353C22.73 13.7302 22.7351 13.7276 22.7351 13.7226C22.7351 13.7175 22.7376 13.715 22.7376 13.7099C22.7376 13.7048 22.7376 13.7023 22.7376 13.6972L22.7427 12.249C22.7427 12.2642 22.7376 12.2795 22.7274 12.2947H22.73Z" fill="currentColor" stroke="currentColor" stroke-width="0.075"/>
<path d="M12.4552 7.67638C11.1364 7.63327 9.79219 7.90718 8.78784 8.49051C7.78349 9.07384 7.31429 9.85501 7.39291 10.6184C7.4056 10.7427 7.12915 10.8238 6.97951 10.7376L3.15994 8.53109C3.07624 8.4829 3.07624 8.40428 3.15994 8.35609L8.53929 5.23145C8.62299 5.18327 8.75741 5.18327 8.84364 5.23145L12.6632 7.43798C12.8128 7.52421 12.6734 7.68653 12.4603 7.67892L12.4552 7.67638Z" fill="currentColor" stroke="currentColor" stroke-width="0.075"/>
<path d="M15.2117 8.69549C16.8856 9.66179 16.8882 11.2317 15.2193 12.2031C13.548 13.1745 10.8367 13.177 9.16281 12.2107C7.48636 11.2419 7.48382 9.67447 9.1552 8.7031C10.8266 7.73172 13.5378 7.72918 15.2117 8.69549Z" fill="currentColor" stroke="currentColor" stroke-width="0.075"/>
<path d="M14.7561 10.134L14.4442 10.3167L13.521 9.78405C13.5337 9.86267 13.521 9.94129 13.488 10.0174C13.4525 10.096 13.3866 10.1696 13.2851 10.2456L13.9293 10.6185L13.6174 10.8011L12.9833 10.4359C12.7221 10.5601 12.4456 10.6159 12.1539 10.6007C11.8674 10.5855 11.5782 10.5145 11.2815 10.3826L10.6779 11.813L10.1782 11.5239L10.863 10.0554L11.076 9.93115L11.1851 9.99455C11.3576 10.0935 11.5199 10.167 11.6695 10.2152C11.8217 10.2659 11.9713 10.2888 12.1134 10.2862C12.2554 10.2837 12.4 10.2456 12.542 10.1772L11.5934 9.62934L11.9054 9.44673L12.8489 9.99202C12.9478 9.90832 12.9985 9.82716 13.0061 9.74347C13.0163 9.65977 12.9782 9.571 12.8971 9.48477C12.8184 9.39854 12.6967 9.30724 12.5318 9.21086L12.4228 9.14745L12.7347 8.96484L14.7561 10.1315V10.134Z" fill="currentColor" stroke="currentColor" stroke-width="0.075"/>
<path d="M21.9481 12.1629C22.0318 12.211 22.0318 12.2897 21.9481 12.3379L15.4706 16.1016C15.3869 16.1498 15.2524 16.1498 15.1662 16.1016L2.05642 8.53351C1.97273 8.48532 1.97273 8.40669 2.05642 8.3585L8.53396 4.59474C8.61766 4.54655 8.75208 4.54655 8.83831 4.59474L21.9481 12.1629ZM9.16295 12.2136C10.8369 13.1799 13.5481 13.1773 15.2195 12.206C16.8883 11.2346 16.8858 9.66466 15.2119 8.69836C13.5354 7.72952 10.8242 7.73459 9.15534 8.70597C7.4865 9.67735 7.48904 11.2473 9.16295 12.2136ZM6.97672 10.7375C7.12635 10.8237 7.40534 10.7426 7.39012 10.6183C7.31403 9.85488 7.77817 9.07626 8.78505 8.49039C9.79193 7.90452 11.1336 7.63314 12.4524 7.67626C12.6655 7.68387 12.8075 7.52408 12.6553 7.43532L8.83578 5.22879C8.75208 5.18061 8.61512 5.18061 8.53143 5.22879L3.15208 8.35343C3.06838 8.40162 3.06838 8.48024 3.15208 8.52843L6.97164 10.735M15.4706 15.465L20.8499 12.3404C20.9336 12.2922 20.9336 12.2136 20.8499 12.1654L17.3981 10.1719C17.2459 10.0831 16.9695 10.1668 16.9822 10.2886C17.0582 11.052 16.5941 11.8306 15.5872 12.4165C14.5803 13.0023 13.2361 13.2737 11.9173 13.2306C11.7043 13.223 11.5622 13.3828 11.7144 13.4716L15.1662 15.465C15.2499 15.5132 15.3869 15.5132 15.4706 15.465Z" fill="currentColor"/>
<path d="M6.97672 10.7375C7.12635 10.8237 7.40534 10.7426 7.39012 10.6183C7.31403 9.85488 7.77817 9.07626 8.78505 8.49039C9.79193 7.90452 11.1336 7.63314 12.4524 7.67626C12.6655 7.68387 12.8075 7.52408 12.6553 7.43532L8.83578 5.22879C8.75208 5.18061 8.61512 5.18061 8.53143 5.22879L3.15208 8.35343C3.06838 8.40162 3.06838 8.48024 3.15208 8.52843L6.97164 10.735M21.9481 12.1629C22.0318 12.211 22.0318 12.2897 21.9481 12.3379L15.4706 16.1016C15.3869 16.1498 15.2524 16.1498 15.1662 16.1016L2.05642 8.53351C1.97273 8.48532 1.97273 8.40669 2.05642 8.3585L8.53396 4.59474C8.61766 4.54655 8.75208 4.54655 8.83831 4.59474L21.9481 12.1629ZM9.16295 12.2136C10.8369 13.1799 13.5481 13.1773 15.2195 12.206C16.8883 11.2346 16.8858 9.66466 15.2119 8.69836C13.5354 7.72952 10.8242 7.73459 9.15534 8.70597C7.4865 9.67735 7.48904 11.2473 9.16295 12.2136ZM15.4706 15.465L20.8499 12.3404C20.9336 12.2922 20.9336 12.2136 20.8499 12.1654L17.3981 10.1719C17.2459 10.0831 16.9695 10.1668 16.9822 10.2886C17.0582 11.052 16.5941 11.8306 15.5872 12.4165C14.5803 13.0023 13.2361 13.2737 11.9173 13.2306C11.7043 13.223 11.5622 13.3828 11.7144 13.4716L15.1662 15.465C15.2499 15.5132 15.3869 15.5132 15.4706 15.465Z" stroke="currentColor" stroke-width="0.075"/>
<path d="M20.8472 12.1657C20.9309 12.2139 20.9309 12.2925 20.8472 12.3407L15.4678 15.4653C15.3841 15.5135 15.2497 15.5135 15.1635 15.4653L11.7117 13.4719C11.562 13.3856 11.7015 13.2233 11.9146 13.2309C13.2334 13.274 14.5776 13.0001 15.5845 12.4168C16.5914 11.8335 17.0555 11.0548 16.9794 10.2889C16.9667 10.1646 17.2432 10.0834 17.3954 10.1722L20.8472 12.1657Z" fill="currentColor" stroke="currentColor" stroke-width="0.075"/>
<path d="M22.6812 12.1628C22.7649 12.211 22.7649 12.2896 22.6812 12.3378L15.4707 16.5276C15.3845 16.5783 15.2501 16.5783 15.1664 16.5276L1.32107 8.53342C1.23738 8.48523 1.23738 8.4066 1.32107 8.35588L8.53158 4.16602C8.61528 4.11784 8.7497 4.11784 8.83593 4.16602L22.6812 12.1602V12.1628ZM15.4707 16.1041L21.9483 12.3403C22.032 12.2921 22.032 12.2135 21.9483 12.1653L8.83847 4.59718C8.75478 4.54899 8.61782 4.54899 8.53412 4.59718L2.05658 8.36095C1.97289 8.40914 1.97289 8.48776 2.05658 8.53595L15.1664 16.1041C15.2501 16.1523 15.387 16.1523 15.4707 16.1041Z" fill="currentColor" stroke="currentColor" stroke-width="0.075"/>
<path d="M15.4053 16.5527C15.4053 16.5527 15.3977 16.5527 15.3951 16.5552C15.3723 16.5603 15.3469 16.5628 15.3216 16.5628C15.3216 16.5628 15.3216 16.5628 15.319 16.5628C15.2937 16.5628 15.2658 16.5603 15.2404 16.5552C15.2404 16.5552 15.2404 16.5552 15.2379 16.5552C15.2125 16.5501 15.1897 16.54 15.1694 16.5273L1.32409 8.53311C1.28098 8.50774 1.26069 8.47731 1.26069 8.44434L1.25562 9.89253C1.25562 9.9255 1.27591 9.95593 1.31902 9.98129L15.1643 17.9755C15.1643 17.9755 15.1846 17.9856 15.1948 17.9907C15.2024 17.9933 15.2125 17.9958 15.2201 17.9983C15.2252 17.9983 15.2277 17.9983 15.2328 18.0009C15.2328 18.0009 15.2328 18.0009 15.2353 18.0009C15.2353 18.0009 15.2404 18.0009 15.2429 18.0009C15.2506 18.0009 15.2582 18.0034 15.2632 18.0034C15.2708 18.0034 15.2759 18.0034 15.2835 18.0034C15.2911 18.0034 15.2987 18.0034 15.3038 18.0034C15.3063 18.0034 15.3089 18.0034 15.3114 18.0034C15.3114 18.0034 15.3114 18.0034 15.314 18.0034C15.3165 18.0034 15.3216 18.0034 15.3241 18.0034C15.3317 18.0034 15.3393 18.0034 15.3469 18.0034C15.3571 18.0034 15.3647 18.0034 15.3748 17.9983C15.3799 17.9983 15.3824 17.9983 15.3875 17.9958C15.39 17.9958 15.3951 17.9958 15.3977 17.9933C15.4027 17.9933 15.4103 17.9907 15.4154 17.9882C15.4332 17.9831 15.4484 17.9755 15.4636 17.9679L15.4687 16.5197C15.4484 16.5324 15.4256 16.54 15.4027 16.5451L15.4053 16.5527Z" fill="currentColor" stroke="currentColor" stroke-width="0.075"/>
<circle cx="20.6245" cy="17.625" r="2.84477" fill="currentColor" stroke="currentColor" stroke-width="0.310458"/>
<path d="M20.4988 16.173C20.4806 16.1731 20.4624 16.1739 20.4443 16.1756C20.4378 16.1761 20.4312 16.1768 20.4247 16.1775C20.4169 16.1784 20.4092 16.1793 20.4016 16.1805L20.3907 16.1823C20.0626 16.2365 19.8122 16.5215 19.8122 16.865C19.8122 17.1107 19.9403 17.3263 20.1332 17.4492C20.1358 17.4513 20.1388 17.4533 20.1419 17.4552L20.1424 17.4553L20.097 17.4697C20.028 17.4933 19.9612 17.5228 19.8974 17.558L19.8501 17.5854C19.8452 17.5884 19.8405 17.5914 19.8357 17.5944C19.7992 17.6174 19.7638 17.6422 19.7297 17.6687L19.7249 17.6725C19.4332 17.9029 19.2459 18.2597 19.2459 18.6603C19.2459 18.7144 19.2494 18.7685 19.2563 18.8221H21.7617V18.6609C21.7617 18.0914 21.3835 17.6104 20.8645 17.4551C21.063 17.3337 21.1953 17.1149 21.1953 16.865C21.1953 16.4988 20.9109 16.1992 20.5509 16.1747C20.5463 16.1743 20.5417 16.1739 20.5371 16.1737C20.5261 16.1732 20.515 16.1729 20.5038 16.1729L20.4988 16.173ZM20.5031 17.5596C21.1113 17.5596 21.6044 18.0527 21.6044 18.6609C21.6044 18.6622 21.6043 18.6635 21.6043 18.6648H19.402C19.402 18.6635 19.4019 18.6622 19.4019 18.6609C19.4019 18.0527 19.8949 17.5596 20.5031 17.5596ZM20.5031 16.3301C20.7986 16.3301 21.038 16.5696 21.038 16.865C21.038 17.1604 20.7986 17.3999 20.5031 17.3999C20.2077 17.3999 19.9683 17.1604 19.9683 16.865C19.9683 16.5696 20.2077 16.3301 20.5031 16.3301Z" fill="currentColor" stroke="currentColor" stroke-width="0.0204708"/>
<path d="M19.6252 16.4111C19.3124 16.4111 19.0588 16.6647 19.0588 16.9775C19.0588 17.1719 19.1568 17.3433 19.306 17.4453C18.9067 17.5776 18.6182 17.9533 18.6165 18.3968H18.6164V18.5541H19.0923C19.0962 18.5014 19.1031 18.4488 19.1128 18.3968H18.766C18.7681 17.9251 19.1511 17.5434 19.6233 17.5434L19.6127 17.5435L19.6249 17.5438C19.6272 17.5438 19.6294 17.5437 19.6317 17.5437L19.6385 17.5435C19.7075 17.4901 19.7813 17.4432 19.8589 17.4034C19.842 17.3836 19.826 17.363 19.8109 17.3418C19.7534 17.3713 19.6898 17.3866 19.6252 17.3865C19.3993 17.3865 19.2162 17.2034 19.2162 16.9775C19.2162 16.7516 19.3993 16.5685 19.6252 16.5685C19.6506 16.5685 19.6759 16.571 19.7008 16.5757C19.7183 16.525 19.7405 16.476 19.7672 16.4294C19.7448 16.4236 19.7221 16.4192 19.6991 16.4161L19.6957 16.4157C19.6859 16.4144 19.6759 16.4135 19.6658 16.4127C19.6637 16.4126 19.6617 16.4124 19.6596 16.4123C19.6482 16.4116 19.6368 16.4111 19.6252 16.4111Z" fill="currentColor" stroke="currentColor" stroke-width="0.0204708"/>
<path d="M21.3437 16.4111C21.6563 16.4111 21.9097 16.6647 21.9097 16.9775C21.9097 17.1719 21.8119 17.3433 21.6627 17.4453C22.0619 17.5776 22.3502 17.9533 22.3519 18.3968H22.352V18.5541H21.8763C21.8724 18.5014 21.8656 18.4488 21.8558 18.3968H22.2025C22.2003 17.9251 21.8176 17.5434 21.3456 17.5434L21.3562 17.5435L21.344 17.5438C21.3417 17.5438 21.3395 17.5437 21.3372 17.5437L21.3304 17.5435C21.2614 17.4901 21.1877 17.4432 21.1101 17.4034C21.127 17.3836 21.143 17.363 21.1581 17.3418C21.2155 17.3713 21.2791 17.3866 21.3436 17.3865C21.5694 17.3865 21.7525 17.2034 21.7525 16.9775C21.7525 16.7516 21.5694 16.5685 21.3436 16.5685C21.3183 16.5685 21.293 16.571 21.2681 16.5757C21.2507 16.525 21.2284 16.476 21.2017 16.4294C21.2241 16.4236 21.2469 16.4192 21.2698 16.4161L21.2732 16.4157C21.2831 16.4144 21.293 16.4135 21.3031 16.4127C21.3051 16.4126 21.3072 16.4124 21.3093 16.4123C21.3207 16.4116 21.3321 16.4111 21.3437 16.4111Z" fill="currentColor" stroke="currentColor" stroke-width="0.0204708"/>
</g>
<defs>
<clipPath id="clip0_5991_159869">
<rect width="24" height="24" fill="currentColor"/>
</clipPath>
</defs>
</svg>
