<svg width="24" height="24" viewBox="0 0 24 24" fill="none" xmlns="http://www.w3.org/2000/svg">
<g clip-path="url(#clip0_5995_162851)">
<path d="M14.5173 17.7537C14.26 17.3484 13.9051 16.9851 13.5132 16.758C13.1213 16.531 12.7664 16.4856 12.5091 16.5949C12.4855 16.605 12.462 16.6167 12.4401 16.6302L11.7842 17.0086L13.9303 20.105L14.5863 19.7266C14.8015 19.6022 14.9327 19.3532 14.9327 18.9983C14.9327 18.6065 14.7746 18.1607 14.5173 17.7554V17.7537Z" fill="black" stroke="black" stroke-width="0.075"/>
<path d="M14.2785 19.3764C14.2785 19.7683 14.1204 20.0307 13.8631 20.14C13.6058 20.2493 13.2509 20.2023 12.859 19.9769C12.4671 19.7515 12.1122 19.3865 11.8549 18.9829C11.5976 18.5775 11.4395 18.1318 11.4395 17.7399C11.4395 17.348 11.5976 17.0857 11.8549 16.9763C12.1122 16.867 12.4671 16.9141 12.859 17.1395C13.2509 17.3649 13.6058 17.7298 13.8631 18.1352C14.1204 18.5405 14.2785 18.9862 14.2785 19.3781V19.3764Z" fill="black" stroke="black" stroke-width="0.075"/>
<path d="M13.9188 19.1682C13.9188 19.7535 13.4445 19.9537 12.8592 19.6156C12.2739 19.2775 11.7996 18.5291 11.7996 17.9438C11.7996 17.3585 12.2739 17.1583 12.8592 17.4964C13.4445 17.8344 13.9188 18.5829 13.9188 19.1682Z" fill="#EBF7FF" stroke="black" stroke-width="0.075"/>
<path d="M13.8951 18.9324C13.7976 18.4177 13.404 17.8442 12.9247 17.5381C12.4537 17.2992 12.082 17.4775 12.082 17.9569C12.082 18.4362 12.4891 19.1006 12.9903 19.3899C13.4915 19.6792 13.8985 19.5076 13.8985 19.0064C13.8985 18.9828 13.8968 18.9576 13.8951 18.9324ZM13.1215 18.8601C12.8709 18.7154 12.6673 18.3942 12.6673 18.1436C12.6673 17.893 12.8709 17.8072 13.1215 17.9518C13.3721 18.0965 13.5756 18.4177 13.5756 18.6683C13.5756 18.9189 13.3721 19.0047 13.1215 18.8601Z" fill="#017AFF" stroke="black" stroke-width="0.075"/>
<path d="M5.60934 12.6102C5.35201 12.2048 4.99712 11.8415 4.60523 11.6145C4.21335 11.3874 3.85846 11.342 3.60113 11.4513C3.57758 11.4614 3.55403 11.4732 3.53217 11.4866L2.87622 11.8651L5.02235 14.9615L5.6783 14.5831C5.89358 14.4586 6.02477 14.2097 6.02477 13.8548C6.02477 13.4629 5.86667 13.0172 5.60934 12.6119V12.6102Z" fill="black" stroke="black" stroke-width="0.075"/>
<path d="M5.36887 14.2316C5.36887 14.6235 5.21076 14.8859 4.95343 14.9952C4.6961 15.1045 4.34121 15.0574 3.94933 14.8321C3.55744 14.605 3.20255 14.2417 2.94522 13.8364C2.68789 13.431 2.52979 12.9853 2.52979 12.5934C2.52979 12.2015 2.68789 11.9392 2.94522 11.8298C3.20255 11.7205 3.55744 11.7676 3.94933 11.993C4.34121 12.2184 4.6961 12.5833 4.95343 12.9887C5.21076 13.394 5.36887 13.8397 5.36887 14.2316Z" fill="black" stroke="black" stroke-width="0.075"/>
<path d="M5.00789 14.0247C5.00789 14.61 4.53359 14.8101 3.94828 14.472C3.36297 14.134 2.88867 13.3855 2.88867 12.8002C2.88867 12.2149 3.36297 12.0148 3.94828 12.3528C4.53359 12.6909 5.00789 13.4393 5.00789 14.0247Z" fill="#EBF7FF" stroke="black" stroke-width="0.075"/>
<path d="M4.98401 13.7879C4.88646 13.2749 4.49289 12.6997 4.01354 12.3935C3.5426 12.1547 3.1709 12.333 3.1709 12.8123C3.1709 13.2917 3.57792 13.9561 4.07914 14.2453C4.58035 14.5346 4.98737 14.3631 4.98737 13.8619C4.98737 13.8383 4.98569 13.8131 4.98401 13.7879ZM4.21032 13.7155C3.95972 13.5709 3.75621 13.2496 3.75621 12.999C3.75621 12.7484 3.95972 12.6627 4.21032 12.8073C4.46093 12.9519 4.66444 13.2732 4.66444 13.5238C4.66444 13.7744 4.46093 13.8602 4.21032 13.7155Z" fill="#017AFF" stroke="black" stroke-width="0.075"/>
<path d="M22.1981 15.6376C22.1981 15.4273 22.0686 15.3903 22.0686 15.3903V13.7723L22.0653 13.7689C22.0653 13.6108 22.0114 13.4511 21.8836 13.33C21.6229 13.0794 21.3336 12.9028 21.1873 12.8069L18.6055 11.1283L16.4039 8.24216C16.2609 7.99155 16.0524 7.78468 15.8035 7.64003L9.58036 4.04745C9.01692 3.72116 8.32229 3.72116 7.75716 4.04745C5.93564 5.10034 4.50433 5.92448 4.14608 6.13135C3.91566 6.26422 3.72728 6.45596 3.59273 6.6847L2.38175 8.78037C1.91754 8.90652 1.7998 9.53219 1.7998 9.81307V11.2511C1.7998 12.0921 2.0975 12.1257 2.37502 12.2872C2.4238 11.9626 2.58526 11.7406 2.82409 11.6396C3.1117 11.5185 3.50864 11.5707 3.94762 11.823C4.3866 12.0769 4.78521 12.484 5.07282 12.9381C5.36043 13.3905 5.53703 13.8917 5.53703 14.3307V14.3694C5.53367 14.4249 5.56394 14.477 5.61272 14.5056L11.2757 17.7753C11.2724 17.7282 11.269 17.6828 11.269 17.639C11.269 17.2001 11.4456 16.904 11.7332 16.7846C12.0208 16.6618 12.4194 16.714 12.8584 16.968C13.2974 17.2202 13.6943 17.6273 13.9819 18.0814C14.2696 18.5355 14.4478 19.035 14.4478 19.474C14.4478 19.4858 14.4478 19.4976 14.4478 19.511C14.4478 19.5682 14.4731 19.622 14.5235 19.6506L14.8767 19.8541C15.3443 20.1249 15.9212 20.1249 16.3905 19.8541L21.8971 16.6753C22.0854 16.566 22.1998 16.3658 22.1998 16.1505C22.1998 16.0732 22.1998 15.7132 22.1998 15.6409L22.1981 15.6376Z" fill="#017AFF" stroke="black" stroke-width="0.075"/>
<path d="M2.87475 11.8632C2.7671 11.9271 2.67964 12.0213 2.6191 12.1441L2.37354 12.2854C2.42231 11.9608 2.58378 11.7388 2.82261 11.6378C2.97062 11.5756 3.14554 11.5605 3.34232 11.5924L2.87307 11.8632H2.87475ZM12.2548 16.7374C12.058 16.7055 11.8814 16.7206 11.7351 16.7845C11.4475 16.9056 11.2709 17.2 11.2709 17.6389C11.2709 17.6827 11.2743 17.7281 11.2776 17.7752L11.4441 17.6793C11.4576 17.3564 11.5854 17.1276 11.7889 17.0099L12.2582 16.7374H12.2548ZM21.5777 14.4214L17.1105 16.9998V17.908L21.5844 15.3246L21.5777 14.4197V14.4214Z" fill="#EBF7FF" stroke="black" stroke-width="0.075"/>
<path d="M5.97614 14.2615L10.5224 16.9071V16.6246L5.961 13.9705C5.97109 14.068 5.97614 14.1639 5.97614 14.2615ZM4.10416 6.42204L10.9748 10.388C11.1581 10.494 11.3381 10.6201 11.4626 10.7933C11.5517 10.9178 11.7216 10.9464 11.8528 10.8707L16.1921 8.36466C16.3149 8.29402 16.3418 8.12919 16.251 8.01986C16.1265 7.86849 15.9752 7.73898 15.8036 7.64143L9.57881 4.04717C9.01537 3.72256 8.32242 3.72256 7.75897 4.04717C5.93577 5.09837 4.50446 5.92419 4.14621 6.13275C4.12939 6.14284 4.11257 6.15293 4.09744 6.16302C4.00157 6.22525 4.00493 6.36654 4.10416 6.42204ZM22.0671 15.39C22.0671 15.5969 22.0687 15.8038 21.7643 15.9787L16.8481 18.8161C16.5235 19.0045 16.145 19.0617 15.7885 18.9877C15.5648 18.9422 15.2166 18.8464 15.2166 18.8464C15.2166 18.8464 15.4151 19.2147 15.7885 19.2904C16.145 19.3627 16.5235 19.3055 16.8481 19.1188L21.7643 16.2798C21.9628 16.1654 22.1966 15.9367 22.1966 15.6356C22.1966 15.4254 22.0671 15.3884 22.0671 15.3884V15.39ZM16.8094 16.6969L21.2766 14.1185C22.3715 13.4861 22.1966 13.2002 18.6074 11.128C19.0884 11.7268 18.794 12.0682 18.3618 12.3172L14.5287 14.5323C13.2387 15.2773 12.0781 14.5323 12.0781 14.5323C12.0781 14.5323 15.3271 17.4032 16.8111 16.6986L16.8094 16.6969Z" fill="#EBF7FF" stroke="black" stroke-width="0.075"/>
<path d="M11.0928 15.9115L11.3955 16.0864C11.4796 16.1352 11.5469 16.1066 11.5469 16.0225C11.5469 15.9384 11.4796 15.8325 11.3955 15.7837L11.0928 15.6088C11.0087 15.56 10.9414 15.5886 10.9414 15.6727C10.9414 15.7568 11.0087 15.8627 11.0928 15.9115Z" fill="#017AFF" stroke="black" stroke-width="0.075"/>
<path d="M16.1404 8.74414L11.801 11.2502L12.7698 14.0775C12.8135 14.2037 12.896 14.3079 13.0019 14.3803L17.6541 11.8927C17.9821 11.7178 18.0763 11.2889 17.8509 10.9929L16.1404 8.74414Z" fill="#EBF7FF" stroke="black" stroke-width="0.075"/>
<path d="M10.4605 10.735L4.34336 7.20468C4.19199 7.11722 3.99857 7.17609 3.9212 7.3325C3.9212 7.3325 3.76815 7.64534 3.59323 8.00191C3.31235 8.57376 3.52259 9.26503 4.07425 9.58459L11.8784 14.0905L10.8608 11.2194C10.7885 11.0159 10.6455 10.8444 10.4588 10.7367L10.4605 10.735Z" fill="#EBF7FF" stroke="black" stroke-width="0.075"/>
<path d="M11.7724 13.7899L8.22189 11.7396L8.52632 9.61874L8.24376 9.45559L7.93933 11.5748L5.39795 10.1065L5.97149 8.14202L5.70238 7.9856L5.12885 9.95008L4.22734 9.43037C3.67567 9.11248 3.52598 8.64827 3.89768 7.84768C4.06419 7.48775 4.22565 7.17828 4.22565 7.17828C4.22902 7.17323 4.23238 7.16987 4.23406 7.16482C4.1096 7.148 3.98178 7.21023 3.92291 7.32965C3.92291 7.32965 3.76985 7.64249 3.59493 7.99905C3.31405 8.5709 3.52429 9.26217 4.07596 9.58174L11.8801 14.0876L11.7741 13.7865L11.7724 13.7899Z" fill="#017AFF" stroke="black" stroke-width="0.075"/>
<path d="M17.1102 17L16.8478 17.1513C16.5232 17.3397 16.1447 17.3969 15.7882 17.3229C15.361 17.2354 15.361 18.1437 15.7882 18.2311C16.1447 18.3035 16.5232 18.2463 16.8478 18.0596L17.1102 17.9082C17.3608 17.7636 17.5643 17.4423 17.5643 17.1917C17.5643 16.9411 17.3608 16.8553 17.1102 17Z" fill="#017AFF" stroke="black" stroke-width="0.075"/>
<path d="M17.3142 17.2114C16.8214 16.9271 16.5742 17.4788 16.9711 17.7075C17.0131 17.7311 17.0737 17.726 17.1427 17.6873C17.2688 17.615 17.3697 17.4552 17.3697 17.3291C17.3697 17.2719 17.3495 17.2315 17.3142 17.213V17.2114Z" fill="#EBF7FF" stroke="black" stroke-width="0.075"/>
<path d="M16.2881 18.1181C16.4967 17.997 16.6666 17.7296 16.6666 17.521C16.6666 17.4268 16.6313 17.3595 16.5741 17.3259C16.5522 17.3124 16.5303 17.304 16.5068 17.2939C16.2966 17.3545 16.0779 17.3663 15.8643 17.3343C15.612 17.5193 15.5616 17.8978 16.0022 18.1517C16.0712 18.1921 16.1738 18.1837 16.2881 18.1181Z" fill="#EBF7FF" stroke="black" stroke-width="0.075"/>
<path d="M21.7636 14.3145L21.5012 14.4659C21.2506 14.6105 21.0471 14.9318 21.0471 15.1824C21.0471 15.433 21.2506 15.5188 21.5012 15.3741L21.7636 15.2228C21.9621 15.1084 22.0664 14.9032 22.0664 14.6963V13.7881C22.0664 13.995 21.9621 14.2002 21.7636 14.3145Z" fill="#017AFF" stroke="black" stroke-width="0.075"/>
<path d="M21.7632 14.3144L21.5008 14.4658C21.3545 14.5499 21.225 14.6962 21.1426 14.8526C21.1964 14.9233 21.2704 14.9905 21.3747 15.0511C21.4436 15.0914 21.5462 15.083 21.6606 15.0174C21.8692 14.8963 22.039 14.6289 22.039 14.4204C22.039 14.3262 22.0037 14.2589 21.9465 14.2253C21.9314 14.2169 21.9163 14.2118 21.9028 14.2051C21.8624 14.2471 21.817 14.2858 21.7632 14.3161V14.3144Z" fill="#EBF7FF" stroke="black" stroke-width="0.075"/>
<path d="M21.1764 14.792C21.0974 14.9198 21.0486 15.0594 21.0486 15.1822C21.0486 15.2663 21.0738 15.3302 21.1125 15.3739C21.1411 15.3706 21.173 15.3605 21.2067 15.3403C21.3328 15.268 21.4337 15.1082 21.4337 14.982C21.4337 14.9249 21.4136 14.8862 21.3782 14.866C21.3042 14.8239 21.2386 14.8021 21.1764 14.792Z" fill="#EBF7FF" stroke="black" stroke-width="0.075"/>
<circle cx="20.925" cy="3.675" r="1.8" fill="#DF3C27"/>
</g>
<defs>
<clipPath id="clip0_5995_162851">
<rect width="24" height="24" fill="white"/>
</clipPath>
</defs>
</svg>
