<svg width="24" height="24" viewBox="0 0 24 24" fill="none" xmlns="http://www.w3.org/2000/svg">
<g clip-path="url(#clip0_5991_159084)">
<path d="M17.4891 12.5694L9.5791 6.98636L13.4604 6.38574L21.3704 11.9688L17.4891 12.5694Z" fill="#EBF7FF" stroke="black" stroke-width="0.075"/>
<path d="M10.1194 21.9445L2.20947 16.3615L2.21892 9.7207L10.1289 15.3038L10.1194 21.9445Z" fill="#EBF7FF" stroke="black" stroke-width="0.075"/>
<path d="M10.129 15.3038L2.21899 9.72077L5.6508 6.05664L13.5608 11.6397L10.129 15.3038Z" fill="#EBF7FF" stroke="black" stroke-width="0.075"/>
<path d="M13.5054 8.36462L17.4301 7.91699L17.4887 12.5689L21.37 11.9683L21.4229 16.1235L10.1189 21.9445L10.1283 15.3038L13.5602 11.6397L13.5054 8.36462Z" fill="#EBF7FF" stroke="black" stroke-width="0.075"/>
<path d="M9.52096 2.33398L17.4309 7.91705L13.5062 8.36468L5.59619 2.78161" fill="#EBF7FF"/>
<path d="M9.52096 2.33398L17.4309 7.91705L13.5062 8.36468L5.59619 2.78161" stroke="black" stroke-width="0.075"/>
<path d="M5.59619 2.78223L13.5062 8.36529L13.5609 11.6403L5.65096 6.05727L5.59619 2.78223Z" fill="#EBF7FF" stroke="black" stroke-width="0.075"/>
<path d="M5.69173 5.94434L13.4412 11.4179L9.54851 15.4748L1.79907 10.0013L5.69173 5.94434Z" fill="#017AFF" stroke="black" stroke-width="0.075"/>
<path d="M13.4415 11.418L13.6001 11.6314L9.70748 15.6903L9.54883 15.4749L13.4415 11.418Z" fill="#017AFF" stroke="black" stroke-width="0.075"/>
<path d="M9.54851 15.4745L9.70716 15.6898L1.95773 10.2144L1.79907 10.001L9.54851 15.4745Z" fill="#017AFF" stroke="black" stroke-width="0.075"/>
<path d="M9.79959 2.05469L17.8965 7.80396L13.492 8.07216L5.39697 2.32289" fill="#017AFF"/>
<path d="M9.79959 2.05469L17.8965 7.80396L13.492 8.07216L5.39697 2.32289L9.79959 2.05469Z" stroke="black" stroke-width="0.075"/>
<path d="M17.898 7.80371L17.8376 8.15879L13.4331 8.42699L13.4935 8.07191L17.898 7.80371Z" fill="#017AFF" stroke="black" stroke-width="0.075"/>
<path d="M5.39809 2.32324L13.4932 8.07252L13.4327 8.4276L5.33765 2.67832" fill="#017AFF"/>
<path d="M5.39809 2.32324L13.4932 8.07252L13.4327 8.4276L5.33765 2.67832L5.39809 2.32324Z" stroke="black" stroke-width="0.075"/>
<path d="M17.4377 8.47852L22.1992 11.8253L17.7966 12.3995L17.485 12.1804L17.4377 8.47852Z" fill="#017AFF" stroke="black" stroke-width="0.075"/>
<path d="M22.1995 11.8252L22.156 12.1765L17.7534 12.7526L17.7969 12.3994L22.1995 11.8252Z" fill="#017AFF" stroke="black" stroke-width="0.075"/>
<path d="M17.7963 12.3988L17.7528 12.752L17.4884 12.5688L17.4846 12.1797L17.7963 12.3988Z" fill="#017AFF" stroke="black" stroke-width="0.075"/>
<path d="M14.7899 12.3493L14.55 12.1774L16.3085 11.2803L16.5483 11.454L14.7899 12.3493Z" fill="#017AFF" stroke="black" stroke-width="0.075"/>
<path d="M16.5486 11.4545L16.3087 11.2808L16.269 9.46191L16.5108 9.63379L16.5486 11.4545Z" fill="#017AFF" stroke="black" stroke-width="0.075"/>
<path d="M14.6028 10.4527L16.652 9.4082L16.6974 11.5292L14.6481 12.5737L14.6028 10.4527ZM16.5482 11.4537L16.5085 9.63485L14.7501 10.532L14.7898 12.3508L16.5482 11.4537Z" fill="#017AFF" stroke="black" stroke-width="0.075"/>
<path d="M14.6028 10.4536L14.3611 10.2818L16.4122 9.2373L16.6521 9.40918L14.6028 10.4536Z" fill="#017AFF" stroke="black" stroke-width="0.075"/>
<path d="M14.6482 12.5742L14.4064 12.4023L14.3611 10.2812L14.6028 10.4531L14.6482 12.5742Z" fill="#017AFF" stroke="black" stroke-width="0.075"/>
<path d="M14.7899 17.6785L14.55 17.5066L16.3085 16.6113L16.5483 16.7832L14.7899 17.6785Z" fill="#017AFF" stroke="black" stroke-width="0.075"/>
<path d="M16.5486 16.7837L16.3087 16.6118L16.269 14.793L16.5108 14.9648L16.5486 16.7837Z" fill="#017AFF" stroke="black" stroke-width="0.075"/>
<path d="M14.6028 15.7818L16.652 14.7373L16.6974 16.8583L14.6481 17.9028L14.6028 15.7818ZM16.5482 16.7828L16.5085 14.964L14.7501 15.8611L14.7898 17.6799L16.5482 16.7828Z" fill="#017AFF" stroke="black" stroke-width="0.075"/>
<path d="M14.6028 15.7818L14.3611 15.6099L16.4122 14.5654L16.6521 14.7373L14.6028 15.7818Z" fill="#017AFF" stroke="black" stroke-width="0.075"/>
<path d="M14.6482 17.9052L14.4064 17.7314L14.3611 15.6104L14.6028 15.7822L14.6482 17.9052Z" fill="#017AFF" stroke="black" stroke-width="0.075"/>
<path d="M6.60427 17.3753L6.87651 17.2165L8.45764 18.1953L8.18729 18.3541L6.60427 17.3753Z" fill="#017AFF" stroke="black" stroke-width="0.075"/>
<path d="M6.58962 15.554L6.86186 15.3952L6.87717 17.2163L6.60493 17.3751L6.58962 15.554Z" fill="#017AFF" stroke="black" stroke-width="0.075"/>
<path d="M6.45557 15.3223L8.30086 16.4633L8.31782 18.5847L6.47252 17.4437L6.45557 15.3223ZM8.18679 18.3544L8.17148 16.5333L6.58846 15.5545L6.60377 17.3756L8.18679 18.3544Z" fill="#017AFF" stroke="black" stroke-width="0.075"/>
<path d="M6.45559 15.3216L6.72783 15.1628L8.57312 16.3038L8.30089 16.4626L6.45559 15.3216Z" fill="#017AFF" stroke="black" stroke-width="0.075"/>
<path d="M8.30129 16.4622L8.57353 16.3034L8.59046 18.4268L8.31823 18.5856L8.30129 16.4622Z" fill="#017AFF" stroke="black" stroke-width="0.075"/>
<path d="M2.85168 13.1201L4.6233 14.3553L4.61952 18.0629L2.8479 16.8503L2.85168 13.1201Z" fill="#017AFF" stroke="black" stroke-width="0.075"/>
<path d="M2.85229 13.1202L2.98451 13.0371L4.75424 14.2723L4.62392 14.3554L2.85229 13.1202Z" fill="#017AFF" stroke="black" stroke-width="0.075"/>
<path d="M4.62341 14.3556L4.75373 14.2725L4.74995 17.98L4.61963 18.0631L4.62341 14.3556Z" fill="#017AFF" stroke="black" stroke-width="0.075"/>
<path d="M4.27734 16.0372C4.30642 16.0289 4.33447 16.0277 4.36458 16.0264C4.46179 16.0224 4.51836 16.2318 4.43628 16.2865C4.40166 16.3051 4.35107 16.31 4.35107 16.31C4.39022 16.2364 4.3245 16.1536 4.3245 16.1536C4.39307 16.1045 4.30374 16.0754 4.27734 16.0372Z" fill="#EBF7FF" stroke="black" stroke-width="0.075"/>
<path d="M4.30829 16.0389C4.36495 16.054 4.41028 16.1276 4.41028 16.2032C4.41028 16.2787 4.36495 16.3278 4.30829 16.3127C4.25163 16.2976 4.2063 16.224 4.2063 16.1484C4.2063 16.0729 4.25163 16.0238 4.30829 16.0389Z" fill="#EBF7FF" stroke="black" stroke-width="0.075"/>
<circle cx="20.6248" cy="16.125" r="2.84477" fill="#223466" stroke="white" stroke-width="0.310458"/>
<path d="M20.4983 14.672C20.4801 14.6721 20.4619 14.673 20.4438 14.6746C20.4373 14.6752 20.4307 14.6758 20.4242 14.6766C20.4164 14.6774 20.4087 14.6784 20.4011 14.6795L20.3902 14.6813C20.0621 14.7356 19.8117 15.0205 19.8117 15.3641C19.8117 15.6097 19.9399 15.8253 20.1328 15.9482C20.1353 15.9503 20.1383 15.9523 20.1414 15.9542L20.1419 15.9544L20.0965 15.9687C20.0275 15.9923 19.9607 16.0219 19.8969 16.057L19.8496 16.0845C19.8448 16.0874 19.84 16.0904 19.8353 16.0935C19.7987 16.1164 19.7633 16.1412 19.7292 16.1678L19.7244 16.1715C19.4327 16.402 19.2454 16.7587 19.2454 17.1593C19.2454 17.2134 19.2489 17.2675 19.2558 17.3211H21.7612V17.1599C21.7612 16.5904 21.383 16.1094 20.864 15.9542C21.0625 15.8327 21.1949 15.6139 21.1949 15.3641C21.1949 14.9978 20.9104 14.6982 20.5504 14.6737C20.5458 14.6734 20.5412 14.673 20.5366 14.6727C20.5256 14.6722 20.5145 14.6719 20.5033 14.6719L20.4983 14.672ZM20.5026 16.0586C21.1108 16.0586 21.6039 16.5517 21.6039 17.1599C21.6039 17.1612 21.6038 17.1625 21.6038 17.1638H19.4015C19.4015 17.1625 19.4014 17.1612 19.4014 17.1599C19.4014 16.5517 19.8944 16.0586 20.5026 16.0586ZM20.5027 14.8292C20.7981 14.8292 21.0375 15.0686 21.0375 15.3641C21.0375 15.6595 20.7981 15.8989 20.5027 15.8989C20.2072 15.8989 19.9678 15.6595 19.9678 15.3641C19.9678 15.0686 20.2072 14.8292 20.5027 14.8292Z" fill="white" stroke="white" stroke-width="0.0204708"/>
<path d="M19.6254 14.9102C19.3127 14.9102 19.0591 15.1637 19.0591 15.4765C19.0591 15.6709 19.157 15.8424 19.3063 15.9443C18.9069 16.0766 18.6185 16.4523 18.6168 16.8958H18.6167V17.0532H19.0926C19.0965 17.0004 19.1033 16.9479 19.1131 16.8958H18.7662C18.7684 16.4241 19.1513 16.0424 19.6235 16.0424L19.6129 16.0425L19.6251 16.0428C19.6274 16.0428 19.6297 16.0428 19.6319 16.0427L19.6387 16.0425C19.7077 15.9891 19.7815 15.9422 19.8591 15.9024C19.8422 15.8826 19.8262 15.8621 19.8111 15.8408C19.7537 15.8703 19.69 15.8856 19.6255 15.8855C19.3996 15.8855 19.2164 15.7024 19.2164 15.4765C19.2164 15.2506 19.3996 15.0675 19.6255 15.0675C19.6508 15.0676 19.6762 15.07 19.7011 15.0748C19.7185 15.024 19.7407 14.975 19.7675 14.9284C19.7451 14.9226 19.7223 14.9182 19.6994 14.9151L19.696 14.9147C19.6861 14.9134 19.6761 14.9125 19.6661 14.9118C19.664 14.9116 19.6619 14.9114 19.6599 14.9113C19.6485 14.9106 19.637 14.9102 19.6254 14.9102Z" fill="#1FD8AD" stroke="#1FD8AD" stroke-width="0.0204708"/>
<path d="M21.3437 14.9102C21.6563 14.9102 21.9097 15.1637 21.9097 15.4765C21.9097 15.6709 21.8119 15.8424 21.6627 15.9443C22.0619 16.0766 22.3502 16.4523 22.3519 16.8958H22.352V17.0532H21.8763C21.8724 17.0004 21.8656 16.9479 21.8558 16.8958H22.2025C22.2003 16.4241 21.8176 16.0424 21.3456 16.0424L21.3562 16.0425L21.344 16.0428C21.3417 16.0428 21.3395 16.0428 21.3372 16.0427L21.3304 16.0425C21.2614 15.9891 21.1877 15.9422 21.1101 15.9024C21.127 15.8826 21.143 15.8621 21.1581 15.8408C21.2155 15.8703 21.2791 15.8856 21.3436 15.8855C21.5694 15.8855 21.7525 15.7024 21.7525 15.4765C21.7525 15.2506 21.5694 15.0675 21.3436 15.0675C21.3183 15.0676 21.293 15.07 21.2681 15.0748C21.2507 15.024 21.2284 14.975 21.2017 14.9284C21.2241 14.9226 21.2469 14.9182 21.2698 14.9151L21.2732 14.9147C21.2831 14.9134 21.293 14.9125 21.3031 14.9118C21.3051 14.9116 21.3072 14.9114 21.3093 14.9113C21.3207 14.9106 21.3321 14.9102 21.3437 14.9102Z" fill="#1FD8AD" stroke="#1FD8AD" stroke-width="0.0204708"/>
</g>
<defs>
<clipPath id="clip0_5991_159084">
<rect width="24" height="24" fill="white"/>
</clipPath>
</defs>
</svg>
