<svg width="24" height="24" viewBox="0 0 24 24" fill="none" xmlns="http://www.w3.org/2000/svg">
<g clip-path="url(#clip0_5994_161383)">
<path d="M17.4896 12.5684L9.57959 6.98538L13.4609 6.38477L21.3709 11.9678L17.4896 12.5684Z" fill="currentColor" stroke="currentColor" stroke-width="0.075"/>
<path d="M10.1199 21.9445L2.20996 16.3615L2.21941 9.7207L10.1294 15.3038L10.1199 21.9445Z" fill="currentColor" stroke="currentColor" stroke-width="0.075"/>
<path d="M10.1297 15.3038L2.21973 9.72077L5.65154 6.05664L13.5615 11.6397L10.1297 15.3038Z" fill="currentColor" stroke="currentColor" stroke-width="0.075"/>
<path d="M13.5056 8.36462L17.4304 7.91699L17.4889 12.5689L21.3703 11.9683L21.4232 16.1235L10.1191 21.9445L10.1286 15.3038L13.5604 11.6397L13.5056 8.36462Z" fill="currentColor" stroke="currentColor" stroke-width="0.075"/>
<path d="M9.5212 2.33398L17.4312 7.91705L13.5064 8.36468L5.59644 2.78161" fill="currentColor"/>
<path d="M9.5212 2.33398L17.4312 7.91705L13.5064 8.36468L5.59644 2.78161" stroke="currentColor" stroke-width="0.075"/>
<path d="M5.59644 2.78125L13.5064 8.36432L13.5612 11.6394L5.65121 6.0563L5.59644 2.78125Z" fill="currentColor" stroke="currentColor" stroke-width="0.075"/>
<path d="M5.69247 5.94336L13.4419 11.4169L9.54924 15.4739L1.7998 10.0003L5.69247 5.94336Z" fill="currentColor" stroke="currentColor" stroke-width="0.075"/>
<path d="M13.4425 11.417L13.6011 11.6304L9.70846 15.6893L9.5498 15.474L13.4425 11.417Z" fill="currentColor" stroke="currentColor" stroke-width="0.075"/>
<path d="M9.54924 15.4735L9.70789 15.6888L1.95846 10.2134L1.7998 10L9.54924 15.4735Z" fill="currentColor" stroke="currentColor" stroke-width="0.075"/>
<path d="M9.80008 2.05469L17.897 7.80396L13.4925 8.07216L5.39746 2.32289" fill="currentColor"/>
<path d="M9.80008 2.05469L17.897 7.80396L13.4925 8.07216L5.39746 2.32289L9.80008 2.05469Z" stroke="currentColor" stroke-width="0.075"/>
<path d="M17.8983 7.80371L17.8379 8.15879L13.4333 8.42699L13.4938 8.07191L17.8983 7.80371Z" fill="currentColor" stroke="currentColor" stroke-width="0.075"/>
<path d="M5.39833 2.32324L13.4934 8.07252L13.433 8.4276L5.33789 2.67832" fill="currentColor"/>
<path d="M5.39833 2.32324L13.4934 8.07252L13.433 8.4276L5.33789 2.67832L5.39833 2.32324Z" stroke="currentColor" stroke-width="0.075"/>
<path d="M17.4385 8.47852L22.1999 11.8253L17.7973 12.3995L17.4857 12.1804L17.4385 8.47852Z" fill="currentColor" stroke="currentColor" stroke-width="0.075"/>
<path d="M22.2004 11.8252L22.157 12.1765L17.7544 12.7526L17.7978 12.3994L22.2004 11.8252Z" fill="currentColor" stroke="currentColor" stroke-width="0.075"/>
<path d="M17.7975 12.3998L17.754 12.7529L17.4896 12.5697L17.4858 12.1807L17.7975 12.3998Z" fill="currentColor" stroke="currentColor" stroke-width="0.075"/>
<path d="M14.7906 12.3503L14.5508 12.1784L16.3092 11.2812L16.5491 11.455L14.7906 12.3503Z" fill="currentColor" stroke="currentColor" stroke-width="0.075"/>
<path d="M16.5495 11.4545L16.3097 11.2808L16.27 9.46191L16.5118 9.63379L16.5495 11.4545Z" fill="currentColor" stroke="currentColor" stroke-width="0.075"/>
<path d="M14.604 10.4536L16.6533 9.40918L16.6986 11.5302L14.6493 12.5747L14.604 10.4536ZM16.5494 11.4547L16.5097 9.63583L14.7513 10.533L14.791 12.3518L16.5494 11.4547Z" fill="currentColor" stroke="currentColor" stroke-width="0.075"/>
<path d="M14.6038 10.4536L14.3621 10.2818L16.4132 9.2373L16.6531 9.40918L14.6038 10.4536Z" fill="currentColor" stroke="currentColor" stroke-width="0.075"/>
<path d="M14.6491 12.5751L14.4074 12.4033L14.3621 10.2822L14.6038 10.4541L14.6491 12.5751Z" fill="currentColor" stroke="currentColor" stroke-width="0.075"/>
<path d="M14.7906 17.6785L14.5508 17.5066L16.3092 16.6113L16.5491 16.7832L14.7906 17.6785Z" fill="currentColor" stroke="currentColor" stroke-width="0.075"/>
<path d="M16.5495 16.7827L16.3097 16.6108L16.27 14.792L16.5118 14.9639L16.5495 16.7827Z" fill="currentColor" stroke="currentColor" stroke-width="0.075"/>
<path d="M14.604 15.7818L16.6533 14.7373L16.6986 16.8583L14.6493 17.9028L14.604 15.7818ZM16.5494 16.7828L16.5097 14.964L14.7513 15.8611L14.791 17.6799L16.5494 16.7828Z" fill="currentColor" stroke="currentColor" stroke-width="0.075"/>
<path d="M14.6038 15.7818L14.3621 15.6099L16.4132 14.5654L16.6531 14.7373L14.6038 15.7818Z" fill="currentColor" stroke="currentColor" stroke-width="0.075"/>
<path d="M14.6491 17.9052L14.4074 17.7314L14.3621 15.6104L14.6038 15.7822L14.6491 17.9052Z" fill="currentColor" stroke="currentColor" stroke-width="0.075"/>
<path d="M6.60501 17.3743L6.87724 17.2155L8.45837 18.1943L8.18803 18.3532L6.60501 17.3743Z" fill="currentColor" stroke="currentColor" stroke-width="0.075"/>
<path d="M6.59011 15.553L6.86235 15.3942L6.87766 17.2153L6.60542 17.3741L6.59011 15.553Z" fill="currentColor" stroke="currentColor" stroke-width="0.075"/>
<path d="M6.45679 15.3213L8.30208 16.4623L8.31904 18.5838L6.47374 17.4427L6.45679 15.3213ZM8.18801 18.3535L8.1727 16.5324L6.58968 15.5535L6.60499 17.3746L8.18801 18.3535Z" fill="currentColor" stroke="currentColor" stroke-width="0.075"/>
<path d="M6.45657 15.3216L6.7288 15.1628L8.5741 16.3038L8.30187 16.4626L6.45657 15.3216Z" fill="currentColor" stroke="currentColor" stroke-width="0.075"/>
<path d="M8.30252 16.4622L8.57475 16.3034L8.59168 18.4268L8.31945 18.5856L8.30252 16.4622Z" fill="currentColor" stroke="currentColor" stroke-width="0.075"/>
<path d="M2.85192 13.1201L4.62354 14.3553L4.61977 18.0629L2.84814 16.8503L2.85192 13.1201Z" fill="currentColor" stroke="currentColor" stroke-width="0.075"/>
<path d="M2.85205 13.1202L2.98426 13.0371L4.754 14.2723L4.62367 14.3554L2.85205 13.1202Z" fill="currentColor" stroke="currentColor" stroke-width="0.075"/>
<path d="M4.62365 14.3556L4.75397 14.2725L4.7502 17.98L4.61987 18.0631L4.62365 14.3556Z" fill="currentColor" stroke="currentColor" stroke-width="0.075"/>
<path d="M4.27686 16.0372C4.30593 16.0289 4.33399 16.0277 4.3641 16.0264C4.4613 16.0224 4.51787 16.2318 4.43579 16.2865C4.40117 16.3051 4.35059 16.31 4.35059 16.31C4.38974 16.2364 4.32401 16.1536 4.32401 16.1536C4.39258 16.1045 4.30325 16.0754 4.27686 16.0372Z" fill="currentColor" stroke="currentColor" stroke-width="0.075"/>
<path d="M4.30805 16.0379C4.36471 16.053 4.41004 16.1267 4.41004 16.2022C4.41004 16.2778 4.36471 16.3269 4.30805 16.3118C4.25138 16.2966 4.20605 16.223 4.20605 16.1474C4.20605 16.0719 4.25138 16.0228 4.30805 16.0379Z" fill="currentColor" stroke="currentColor" stroke-width="0.075"/>
<circle cx="20.55" cy="4.425" r="1.8" fill="currentColor"/>
</g>
<defs>
<clipPath id="clip0_5994_161383">
<rect width="24" height="24" fill="currentColor"/>
</clipPath>
</defs>
</svg>
