<svg width="24" height="24" viewBox="0 0 24 24" fill="none" xmlns="http://www.w3.org/2000/svg">
<g clip-path="url(#clip0_5991_159232)">
<path d="M5.7604 15.0309H5.75973V8.77344H18.2388L18.239 15.2246C18.239 15.2275 18.2366 15.2299 18.2336 15.2299C18.1717 16.0853 17.5777 16.9242 16.4497 17.5647C14.0458 18.9297 10.0699 18.9297 7.61454 17.5647C6.37328 16.8747 5.75521 15.9541 5.76036 15.0309H5.7604Z" fill="currentColor" stroke="currentColor" stroke-width="0.075"/>
<path d="M12.0128 3.67969L22.1995 9.47743L12.0128 15.1623L1.79946 9.42099L12.0128 3.67969Z" fill="currentColor" stroke="currentColor" stroke-width="0.075"/>
<circle cx="18.7495" cy="17.25" r="2.84477" fill="currentColor" stroke="currentColor" stroke-width="0.310458"/>
<path d="M18.6221 15.797C18.6039 15.7971 18.5857 15.798 18.5676 15.7996C18.561 15.8002 18.5545 15.8008 18.5479 15.8016C18.5402 15.8024 18.5325 15.8034 18.5249 15.8045L18.514 15.8063C18.1859 15.8606 17.9355 16.1455 17.9355 16.4891C17.9355 16.7347 18.0636 16.9503 18.2565 17.0732C18.2591 17.0753 18.2621 17.0773 18.2652 17.0792L18.2657 17.0794L18.2203 17.0937C18.1513 17.1173 18.0845 17.1469 18.0207 17.182L17.9734 17.2095C17.9685 17.2124 17.9638 17.2154 17.959 17.2185C17.9224 17.2414 17.8871 17.2662 17.853 17.2928L17.8482 17.2965C17.5564 17.527 17.3692 17.8837 17.3692 18.2843C17.3692 18.3384 17.3727 18.3925 17.3796 18.4461H19.885V18.2849C19.885 17.7154 19.5067 17.2344 18.9878 17.0792C19.1863 16.9577 19.3186 16.7389 19.3186 16.4891C19.3186 16.1228 19.0342 15.8232 18.6742 15.7987C18.6696 15.7984 18.665 15.798 18.6604 15.7977C18.6494 15.7972 18.6382 15.7969 18.6271 15.7969L18.6221 15.797ZM18.6264 17.1836C19.2346 17.1836 19.7277 17.6767 19.7277 18.2849C19.7277 18.2862 19.7276 18.2875 19.7276 18.2888H17.5253C17.5253 18.2875 17.5252 18.2862 17.5252 18.2849C17.5252 17.6767 18.0182 17.1836 18.6264 17.1836ZM18.6264 15.9542C18.9218 15.9542 19.1613 16.1936 19.1613 16.4891C19.1613 16.7845 18.9218 17.0239 18.6264 17.0239C18.331 17.0239 18.0915 16.7845 18.0915 16.4891C18.0915 16.1936 18.331 15.9542 18.6264 15.9542Z" fill="currentColor" stroke="currentColor" stroke-width="0.0204708"/>
<path d="M17.7492 16.0352C17.4364 16.0352 17.1829 16.2887 17.1829 16.6015C17.1829 16.7959 17.2808 16.9674 17.43 17.0693C17.0307 17.2016 16.7422 17.5773 16.7405 18.0208H16.7404V18.1782H17.2163C17.2202 18.1254 17.2271 18.0729 17.2368 18.0208H16.89C16.8921 17.5491 17.2751 17.1674 17.7473 17.1674L17.7367 17.1675L17.7489 17.1678C17.7512 17.1678 17.7534 17.1678 17.7557 17.1677L17.7625 17.1675C17.8315 17.1141 17.9053 17.0672 17.9829 17.0274C17.966 17.0076 17.95 16.9871 17.9349 16.9658C17.8775 16.9953 17.8138 17.0106 17.7493 17.0105C17.5234 17.0105 17.3402 16.8274 17.3402 16.6015C17.3402 16.3756 17.5234 16.1925 17.7493 16.1925C17.7746 16.1926 17.7999 16.195 17.8249 16.1998C17.8423 16.149 17.8645 16.1 17.8913 16.0534C17.8688 16.0476 17.8461 16.0432 17.8231 16.0401L17.8198 16.0397C17.8099 16.0384 17.7999 16.0375 17.7898 16.0368C17.7878 16.0366 17.7857 16.0364 17.7836 16.0363C17.7723 16.0356 17.7608 16.0352 17.7492 16.0352Z" fill="currentColor" stroke="currentColor" stroke-width="0.0204708"/>
<path d="M19.4675 16.0352C19.7801 16.0352 20.0335 16.2887 20.0335 16.6015C20.0335 16.7959 19.9356 16.9674 19.7865 17.0693C20.1856 17.2016 20.4739 17.5773 20.4756 18.0208H20.4757V18.1782H20.0001C19.9962 18.1254 19.9893 18.0729 19.9796 18.0208H20.3263C20.3241 17.5491 19.9414 17.1674 19.4694 17.1674L19.48 17.1675L19.4678 17.1678C19.4655 17.1678 19.4632 17.1678 19.461 17.1677L19.4542 17.1675C19.3852 17.1141 19.3115 17.0672 19.2339 17.0274C19.2508 17.0076 19.2668 16.9871 19.2819 16.9658C19.3393 16.9953 19.4029 17.0106 19.4674 17.0105C19.6932 17.0105 19.8763 16.8274 19.8763 16.6015C19.8763 16.3756 19.6932 16.1925 19.4674 16.1925C19.4421 16.1926 19.4168 16.195 19.3919 16.1998C19.3744 16.149 19.3522 16.1 19.3255 16.0534C19.3479 16.0476 19.3706 16.0432 19.3936 16.0401L19.3969 16.0397C19.4068 16.0384 19.4168 16.0375 19.4269 16.0368C19.4289 16.0366 19.431 16.0364 19.433 16.0363C19.4444 16.0356 19.4559 16.0352 19.4675 16.0352Z" fill="currentColor" stroke="currentColor" stroke-width="0.0204708"/>
<path d="M22.1995 9.5127V10.1716L12.0128 15.8564V15.1434L22.1995 9.5127Z" fill="currentColor" stroke="currentColor" stroke-width="0.075"/>
<path d="M12.0129 15.8562V15.1432L1.79964 9.45605V10.1149L12.0129 15.8562Z" fill="currentColor" stroke="currentColor" stroke-width="0.075"/>
<path d="M11.668 9.87032L7.18325 12.4185L6.73585 12.1694L11.4359 9.45605L11.668 9.87032Z" fill="currentColor" stroke="currentColor" stroke-width="0.075"/>
<path d="M7.01855 12.4932V18.2155L6.57119 17.9049V12.2441L7.01855 12.4932Z" fill="currentColor" stroke="currentColor" stroke-width="0.075"/>
<path d="M7.01835 12.4931L7.18335 12.419L6.73595 12.1699L6.57099 12.2441L7.01835 12.4931Z" fill="currentColor" stroke="currentColor" stroke-width="0.075"/>
<path d="M7.01835 18.2153L7.18335 18.1412V12.4189L7.01835 12.493V18.2153Z" fill="currentColor" stroke="currentColor" stroke-width="0.075"/>
<path d="M7.01855 18.2149L6.74067 20.3213L6.2601 19.9966L6.57119 17.9043L7.01855 18.2149Z" fill="currentColor" stroke="currentColor" stroke-width="0.075"/>
<path d="M7.18358 18.1416L7.62646 19.8774L6.74069 20.3221L7.01858 18.2157L7.18358 18.1416Z" fill="currentColor" stroke="currentColor" stroke-width="0.075"/>
<path d="M12.5523 9.10563C12.8874 9.29725 12.8868 9.61227 12.5509 9.80573C12.2151 9.99915 11.6669 9.99915 11.3325 9.80573C10.9981 9.61224 10.9987 9.29725 11.3339 9.10563C11.6689 8.91401 12.2173 8.91401 12.5523 9.10563Z" fill="currentColor" stroke="currentColor" stroke-width="0.075"/>
</g>
<defs>
<clipPath id="clip0_5991_159232">
<rect width="24" height="24" fill="currentColor"/>
</clipPath>
</defs>
</svg>
