<svg width="24" height="24" viewBox="0 0 24 24" fill="none" xmlns="http://www.w3.org/2000/svg">
<g clip-path="url(#clip0_5991_160306)">
<path d="M18.4534 16.7571H17.7818C17.4772 16.3978 17.0711 16.0542 16.5478 15.7574C14.0019 14.2892 9.83925 14.2892 7.29327 15.7574C6.77783 16.0542 6.36391 16.3978 6.05933 16.7571H5.40331V18.1707H5.41112C5.28616 19.225 5.91094 20.2949 7.30108 21.0993C9.84706 22.5676 14.0097 22.5676 16.5556 21.0993C17.938 20.3027 18.5627 19.225 18.4456 18.1707H18.469V16.7571H18.4534Z" fill="currentColor" stroke="currentColor" stroke-width="0.075"/>
<path d="M18.4222 16.7571H17.7818C17.4772 16.3978 17.0711 16.0542 16.5478 15.7574C14.0018 14.2892 9.83925 14.2892 7.29327 15.7574C6.77783 16.0542 6.36391 16.3978 6.05933 16.7571H5.40331L5.41112 18.1707C5.28616 19.225 5.91094 20.2949 7.30108 21.0993C9.84706 22.5676 14.0097 22.5676 16.5556 21.0993C17.938 20.3027 18.5627 19.225 18.4456 18.1707L18.4222 16.7571Z" stroke="currentColor" stroke-width="0.075" stroke-miterlimit="10"/>
<path d="M16.5398 13.8834C13.9938 12.4152 9.8312 12.4152 7.28522 13.8834C4.73924 15.3517 4.73924 17.7571 7.28522 19.2253C9.8312 20.6936 13.9938 20.6936 16.5398 19.2253C19.0858 17.7571 19.0858 15.3517 16.5398 13.8834Z" fill="currentColor" stroke="currentColor" stroke-width="0.075"/>
<path d="M16.5398 13.8834C13.9938 12.4152 9.8312 12.4152 7.28522 13.8834C4.73924 15.3517 4.73924 17.7571 7.28522 19.2253C9.8312 20.6936 13.9938 20.6936 16.5398 19.2253C19.0858 17.7571 19.0858 15.3517 16.5398 13.8834Z" stroke="currentColor" stroke-width="0.075" stroke-miterlimit="10"/>
<path d="M15.5638 14.3278C13.5567 13.172 10.2766 13.172 8.26949 14.3278C6.26238 15.4837 6.26238 17.3815 8.26949 18.5373C10.2766 19.6932 13.5567 19.6932 15.5638 18.5373C17.5709 17.3815 17.5709 15.4915 15.5638 14.3278Z" fill="currentColor" stroke="currentColor" stroke-width="0.075"/>
<path d="M15.5638 14.3278C13.5567 13.172 10.2766 13.172 8.26949 14.3278C6.26238 15.4837 6.26238 17.3815 8.26949 18.5373C10.2766 19.6932 13.5567 19.6932 15.5638 18.5373C17.5709 17.3815 17.5709 15.4915 15.5638 14.3278Z" stroke="currentColor" stroke-width="0.075" stroke-miterlimit="10"/>
<path d="M11.9163 20.7803V21.8424" stroke="currentColor" stroke-width="0.075" stroke-miterlimit="10"/>
<path d="M13.1509 20.7109V21.7731" stroke="currentColor" stroke-width="0.075" stroke-miterlimit="10"/>
<path d="M14.3843 20.4912V21.5533" stroke="currentColor" stroke-width="0.075" stroke-miterlimit="10"/>
<path d="M15.6187 20.125V21.1871" stroke="currentColor" stroke-width="0.075" stroke-miterlimit="10"/>
<path d="M16.8521 19.5371V20.5992" stroke="currentColor" stroke-width="0.075" stroke-miterlimit="10"/>
<path d="M17.7974 18.6094V19.6715" stroke="currentColor" stroke-width="0.075" stroke-miterlimit="10"/>
<path d="M10.7212 20.7109V21.7731" stroke="currentColor" stroke-width="0.075" stroke-miterlimit="10"/>
<path d="M9.47998 20.4912V21.5533" stroke="currentColor" stroke-width="0.075" stroke-miterlimit="10"/>
<path d="M8.24609 20.125V21.1871" stroke="currentColor" stroke-width="0.075" stroke-miterlimit="10"/>
<path d="M7.01221 19.5371V20.5992" stroke="currentColor" stroke-width="0.075" stroke-miterlimit="10"/>
<path d="M6.06689 18.6094V19.6715" stroke="currentColor" stroke-width="0.075" stroke-miterlimit="10"/>
<path d="M18.4685 14.1663H17.7969C17.4923 13.807 17.0862 13.4634 16.563 13.1666C14.017 11.6984 9.85439 11.6984 7.30841 13.1666C6.79296 13.4634 6.37904 13.807 6.07446 14.1663H5.41845V15.5798H5.42625C5.3013 16.6342 5.92608 17.7041 7.31622 18.5085C9.8622 19.9768 14.0248 19.9768 16.5708 18.5085C17.9531 17.7119 18.5779 16.6342 18.4607 15.5798H18.4842V14.1663H18.4685Z" fill="currentColor" stroke="currentColor" stroke-width="0.075"/>
<path d="M18.4373 14.1663H17.7969C17.4923 13.807 17.0862 13.4634 16.563 13.1666C14.017 11.6984 9.85439 11.6984 7.30841 13.1666C6.79296 13.4634 6.37904 13.807 6.07446 14.1663H5.41845L5.42625 15.5798C5.3013 16.6342 5.92608 17.7041 7.31622 18.5085C9.8622 19.9768 14.0248 19.9768 16.5708 18.5085C17.9531 17.7119 18.5779 16.6342 18.4607 15.5798L18.4373 14.1663Z" stroke="currentColor" stroke-width="0.075" stroke-miterlimit="10"/>
<path d="M16.5632 11.2916C14.0172 9.82337 9.85463 9.82337 7.30865 11.2916C4.76268 12.7599 4.76268 15.1653 7.30865 16.6335C9.85463 18.1018 14.0172 18.1018 16.5632 16.6335C19.1092 15.1653 19.1092 12.7599 16.5632 11.2916Z" fill="currentColor" stroke="currentColor" stroke-width="0.075"/>
<path d="M16.5632 11.2916C14.0172 9.82337 9.85463 9.82337 7.30865 11.2916C4.76268 12.7599 4.76268 15.1653 7.30865 16.6335C9.85463 18.1018 14.0172 18.1018 16.5632 16.6335C19.1092 15.1653 19.1092 12.7599 16.5632 11.2916Z" stroke="currentColor" stroke-width="0.075" stroke-miterlimit="10"/>
<path d="M15.5872 11.738C13.5801 10.5821 10.3 10.5821 8.29293 11.738C6.28582 12.8938 6.28582 14.7916 8.29293 15.9475C10.3 17.1033 13.5801 17.1033 15.5872 15.9475C17.5943 14.7916 17.5943 12.8938 15.5872 11.738Z" fill="currentColor" stroke="currentColor" stroke-width="0.075"/>
<path d="M15.5872 11.738C13.5801 10.5821 10.3 10.5821 8.29293 11.738C6.28582 12.8938 6.28582 14.7916 8.29293 15.9475C10.3 17.1033 13.5801 17.1033 15.5872 15.9475C17.5943 14.7916 17.5943 12.8938 15.5872 11.738Z" stroke="currentColor" stroke-width="0.075" stroke-miterlimit="10"/>
<path d="M11.9395 18.1875V19.2496" stroke="currentColor" stroke-width="0.075" stroke-miterlimit="10"/>
<path d="M13.1743 18.1191V19.1813" stroke="currentColor" stroke-width="0.075" stroke-miterlimit="10"/>
<path d="M14.4072 17.8984V18.9606" stroke="currentColor" stroke-width="0.075" stroke-miterlimit="10"/>
<path d="M15.6416 17.5322V18.5944" stroke="currentColor" stroke-width="0.075" stroke-miterlimit="10"/>
<path d="M16.875 16.9463V18.0084" stroke="currentColor" stroke-width="0.075" stroke-miterlimit="10"/>
<path d="M17.8208 16.0088V17.0709" stroke="currentColor" stroke-width="0.075" stroke-miterlimit="10"/>
<path d="M10.7368 18.1191V19.1813" stroke="currentColor" stroke-width="0.075" stroke-miterlimit="10"/>
<path d="M9.50293 17.8984V18.9606" stroke="currentColor" stroke-width="0.075" stroke-miterlimit="10"/>
<path d="M8.2688 17.5322V18.5944" stroke="currentColor" stroke-width="0.075" stroke-miterlimit="10"/>
<path d="M7.03564 16.9463V18.0084" stroke="currentColor" stroke-width="0.075" stroke-miterlimit="10"/>
<path d="M6.09033 16.0088V17.0709" stroke="currentColor" stroke-width="0.075" stroke-miterlimit="10"/>
<path d="M15.8582 9.27236C15.6733 9.22773 12.9569 8.6921 12.9696 8.76861C12.8038 7.42954 13.2247 6.40291 14.347 5.57396C15.2333 4.92355 16.2982 4.5537 17.2547 4.00532C18.1155 3.50795 18.9381 2.7874 19.2314 1.85642C19.2569 1.7799 19.3717 1.7799 19.3908 1.8628L19.7479 3.16362C20.0412 4.24763 20.3409 5.35715 20.2452 6.47943C20.1496 7.59533 19.5821 8.74311 18.5618 9.21497C17.7138 9.60394 16.7445 9.48917 15.8582 9.27236Z" stroke="currentColor" stroke-width="0.075" stroke-miterlimit="10"/>
<path d="M8.85045 4.39571C8.00237 3.94935 7.04589 3.79631 6.1213 3.54125C5.32423 3.32444 4.51442 3.06938 3.92778 2.521C3.85126 2.45085 3.72373 2.50824 3.73648 2.61665C3.79387 3.12677 3.74923 3.61776 3.74923 4.15339C3.74923 5.08437 3.88952 6.0281 4.29124 6.86981C4.68658 7.71151 5.35612 8.44482 6.21057 8.80828C7.05865 9.17175 10.9356 9.36304 11.4011 9.01233C11.8602 8.66799 11.4584 7.57123 11.2671 7.08024C10.808 5.90057 9.98547 4.9951 8.85045 4.39571Z" stroke="currentColor" stroke-width="0.075" stroke-miterlimit="10"/>
<path d="M8.85045 4.39571C8.00237 3.94935 7.04589 3.79631 6.1213 3.54125C5.32423 3.32444 4.51442 3.06938 3.92778 2.521C3.85126 2.45085 3.72373 2.50824 3.73648 2.61665C3.79387 3.12677 3.74923 3.61776 3.74923 4.15339C3.74923 5.08437 3.88952 6.0281 4.29124 6.86981C4.68658 7.71151 5.35612 8.44482 6.21057 8.80828C7.05865 9.17175 10.9356 9.36304 11.4011 9.01233C11.8602 8.66799 11.4584 7.57123 11.2671 7.08024C10.808 5.90057 9.98547 4.9951 8.85045 4.39571Z" fill="currentColor" stroke="currentColor" stroke-width="0.075"/>
<path d="M15.8582 9.27236C15.6733 9.22773 12.9569 8.6921 12.9696 8.76861C12.8038 7.42954 13.2247 6.40291 14.347 5.57396C15.2333 4.92355 16.2982 4.5537 17.2547 4.00532C18.1155 3.50795 18.9381 2.7874 19.2314 1.85642C19.2569 1.7799 19.3717 1.7799 19.3908 1.8628L19.7479 3.16362C20.0412 4.24763 20.3409 5.35715 20.2452 6.47943C20.1496 7.59533 19.5821 8.74311 18.5618 9.21497C17.7138 9.60394 16.7445 9.48917 15.8582 9.27236Z" fill="currentColor" stroke="currentColor" stroke-width="0.075"/>
<path fill-rule="evenodd" clip-rule="evenodd" d="M5.00304 4.42169C5.04447 4.34995 5.13621 4.32538 5.20795 4.36681L9.40367 6.78989C9.40368 6.78989 9.40369 6.7899 9.4037 6.7899C11.1846 7.81789 12.278 9.71668 12.278 11.7724V14.0033C12.278 14.0862 12.2108 14.1533 12.128 14.1533C12.0451 14.1533 11.978 14.0862 11.978 14.0033V11.7724C11.978 9.82357 10.9416 8.02396 9.2537 7.04971L9.25367 7.04969L5.05792 4.6266C4.98618 4.58517 4.96161 4.49343 5.00304 4.42169Z" fill="currentColor" stroke="currentColor" stroke-width="0.075" stroke-miterlimit="10" stroke-linecap="round"/>
<path fill-rule="evenodd" clip-rule="evenodd" d="M18.9587 4.47087C19.001 4.54209 18.9776 4.63413 18.9064 4.67644L14.7744 7.13142L14.7742 7.13154C13.2258 8.04818 12.278 9.71432 12.278 11.5171V14.0024C12.278 14.0853 12.2109 14.1524 12.128 14.1524C12.0452 14.1524 11.978 14.0853 11.978 14.0024V11.5171C11.978 9.60866 12.9815 7.84421 14.6214 6.87338L18.7531 4.41853C18.8243 4.37621 18.9164 4.39965 18.9587 4.47087Z" fill="currentColor" stroke="currentColor" stroke-width="0.075" stroke-miterlimit="10" stroke-linecap="round"/>
<circle cx="19.8748" cy="16.875" r="2.84477" fill="currentColor" stroke="currentColor" stroke-width="0.310458"/>
<path d="M19.7491 15.423C19.7309 15.4231 19.7127 15.4239 19.6946 15.4256C19.688 15.4261 19.6814 15.4268 19.6749 15.4275C19.6672 15.4284 19.6595 15.4293 19.6518 15.4305L19.641 15.4323C19.3128 15.4865 19.0625 15.7715 19.0625 16.115C19.0625 16.3607 19.1906 16.5763 19.3835 16.6992C19.3861 16.7013 19.389 16.7033 19.3921 16.7052L19.3926 16.7053L19.3473 16.7197C19.2782 16.7433 19.2114 16.7728 19.1476 16.808L19.1003 16.8354C19.0955 16.8384 19.0908 16.8414 19.086 16.8444C19.0494 16.8674 19.014 16.8922 18.98 16.9187L18.9751 16.9225C18.6834 17.1529 18.4961 17.5097 18.4961 17.9103C18.4961 17.9644 18.4996 18.0185 18.5065 18.0721H21.012V17.9109C21.012 17.3414 20.6337 16.8604 20.1147 16.7051C20.3132 16.5837 20.4456 16.3649 20.4456 16.115C20.4456 15.7488 20.1611 15.4492 19.8011 15.4247C19.7966 15.4243 19.792 15.4239 19.7874 15.4237C19.7763 15.4232 19.7652 15.4229 19.754 15.4229L19.7491 15.423ZM19.7534 16.8096C20.3616 16.8096 20.8546 17.3027 20.8546 17.9109C20.8546 17.9122 20.8545 17.9135 20.8545 17.9148H18.6522C18.6522 17.9135 18.6521 17.9122 18.6521 17.9109C18.6521 17.3027 19.1452 16.8096 19.7534 16.8096ZM19.7534 15.5801C20.0488 15.5801 20.2883 15.8196 20.2883 16.115C20.2883 16.4104 20.0488 16.6499 19.7534 16.6499C19.458 16.6499 19.2185 16.4104 19.2185 16.115C19.2185 15.8196 19.458 15.5801 19.7534 15.5801Z" fill="currentColor" stroke="currentColor" stroke-width="0.0204708"/>
<path d="M18.8754 15.6611C18.5627 15.6611 18.3091 15.9147 18.3091 16.2275C18.3091 16.4219 18.407 16.5933 18.5563 16.6953C18.1569 16.8276 17.8685 17.2033 17.8668 17.6468H17.8667V17.8041H18.3426C18.3465 17.7514 18.3533 17.6988 18.3631 17.6468H18.0162C18.0184 17.1751 18.4013 16.7934 18.8735 16.7934L18.8629 16.7935L18.8751 16.7938C18.8774 16.7938 18.8797 16.7937 18.8819 16.7937L18.8887 16.7935C18.9577 16.7401 19.0315 16.6932 19.1091 16.6534C19.0922 16.6336 19.0762 16.613 19.0611 16.5918C19.0037 16.6213 18.94 16.6366 18.8755 16.6365C18.6496 16.6365 18.4664 16.4534 18.4664 16.2275C18.4664 16.0016 18.6496 15.8185 18.8755 15.8185C18.9008 15.8185 18.9262 15.821 18.9511 15.8257C18.9685 15.775 18.9907 15.726 19.0175 15.6794C18.9951 15.6736 18.9723 15.6692 18.9494 15.6661L18.946 15.6657C18.9361 15.6644 18.9261 15.6635 18.9161 15.6627C18.914 15.6626 18.9119 15.6624 18.9099 15.6623C18.8985 15.6616 18.887 15.6611 18.8754 15.6611Z" fill="currentColor" stroke="currentColor" stroke-width="0.0204708"/>
<path d="M20.5939 15.6611C20.9065 15.6611 21.16 15.9147 21.16 16.2275C21.16 16.4219 21.0621 16.5933 20.913 16.6953C21.3121 16.8276 21.6004 17.2033 21.6021 17.6468H21.6022V17.8041H21.1265C21.1227 17.7514 21.1158 17.6988 21.106 17.6468H21.4527C21.4506 17.1751 21.0678 16.7934 20.5959 16.7934L20.6064 16.7935L20.5942 16.7938C20.592 16.7938 20.5897 16.7937 20.5874 16.7937L20.5806 16.7935C20.5117 16.7401 20.4379 16.6932 20.3604 16.6534C20.3773 16.6336 20.3933 16.613 20.4083 16.5918C20.4658 16.6213 20.5294 16.6366 20.5939 16.6365C20.8197 16.6365 21.0027 16.4534 21.0027 16.2275C21.0027 16.0016 20.8197 15.8185 20.5939 15.8185C20.5685 15.8185 20.5432 15.821 20.5183 15.8257C20.5009 15.775 20.4787 15.726 20.452 15.6794C20.4744 15.6736 20.4971 15.6692 20.52 15.6661L20.5234 15.6657C20.5333 15.6644 20.5433 15.6635 20.5533 15.6627C20.5554 15.6626 20.5575 15.6624 20.5595 15.6623C20.5709 15.6616 20.5824 15.6611 20.5939 15.6611Z" fill="currentColor" stroke="currentColor" stroke-width="0.0204708"/>
</g>
<defs>
<clipPath id="clip0_5991_160306">
<rect width="24" height="24" fill="currentColor"/>
</clipPath>
</defs>
</svg>
