<svg width="24" height="24" viewBox="0 0 24 24" fill="none" xmlns="http://www.w3.org/2000/svg">
<g clip-path="url(#clip0_5991_159702)">
<ellipse cx="12.0194" cy="8.52379" rx="3.04698" ry="1.72887" fill="currentColor"/>
<path d="M18.2511 16.8432C18.2687 17.0014 18.295 17.2124 18.3038 17.3706C18.3126 17.5464 18.3214 17.7925 18.3038 17.9419C18.2863 18.1968 18.2511 18.5396 18.1984 18.7857C18.1632 18.979 18.0929 19.2515 18.0138 19.4361C17.961 19.5503 17.9083 19.6997 17.8556 19.8052C17.7765 19.9546 17.671 20.1568 17.5831 20.2974C17.3722 20.6402 17.1173 20.9127 17.0382 21.0006C16.9239 21.1236 16.713 21.3258 16.4053 21.5631C16.1329 21.774 15.834 21.9498 15.7022 22.0201C15.3242 22.2223 15.0781 22.319 14.9727 22.3629C14.8672 22.4069 14.7266 22.4596 14.6123 22.4948C14.498 22.5299 14.3574 22.5826 14.2432 22.609C14.1377 22.6442 13.9883 22.6793 13.874 22.7057C13.3994 22.8112 12.8984 22.8727 12.3974 22.8903C11.6767 22.9166 11.0878 22.8375 10.9208 22.8112C10.7362 22.776 10.4901 22.7409 10.1737 22.6618C9.89244 22.5914 9.70786 22.5387 9.4266 22.4332C9.30355 22.3893 9.14534 22.3278 9.03108 22.275C8.91682 22.2311 8.77619 22.1608 8.67072 22.108C8.5213 22.0289 8.32793 21.9234 8.1873 21.8268C7.98515 21.6949 7.73026 21.5016 7.54568 21.3521C7.42263 21.2555 7.27321 21.106 7.16774 20.9918C7.04469 20.8599 6.88648 20.6841 6.7898 20.5347C6.65796 20.3414 6.49096 20.0689 6.38549 19.858C6.28881 19.6646 6.19213 19.3921 6.12181 19.1812C6.06908 19.0405 6.02513 18.8296 5.99876 18.6802C5.95481 18.4253 5.93723 18.0825 5.91966 17.8276C5.91087 17.687 5.91966 17.5112 5.92845 17.3794C5.93724 17.1508 5.98118 16.852 6.01634 16.6235C6.04271 16.4741 6.08665 16.2719 6.12181 16.1225C6.17455 15.9115 6.26244 15.6303 6.33275 15.4281C6.38549 15.2875 6.4646 15.1117 6.51733 14.9711C6.59644 14.7865 6.72828 14.5404 6.82496 14.3558C6.89527 14.2328 6.99196 14.0746 7.07106 13.9515C7.17653 13.7845 7.33474 13.5736 7.449 13.4154C7.52811 13.3099 7.64237 13.1693 7.73026 13.0638C7.85331 12.9144 8.02031 12.7386 8.15215 12.6068C8.2752 12.4837 8.45099 12.3167 8.58283 12.2024C8.82893 11.9827 9.19808 11.7015 9.40902 11.5696C9.57602 11.4641 9.80454 11.3147 9.98033 11.218C10.0946 11.1565 10.2528 11.0686 10.3758 11.0159C10.6044 10.9104 10.7098 10.8577 10.9559 10.7698C11.1845 10.6907 11.3339 10.6467 11.5009 10.6028C11.8788 10.5061 12.3183 10.5061 12.705 10.6028C12.9951 10.6731 13.2939 10.7786 13.584 10.9016C13.6982 10.9456 13.8476 11.0159 13.9531 11.0686C14.3193 11.2721 14.6861 11.4722 15.0254 11.719C15.166 11.8157 15.333 11.9476 15.4649 12.053C15.5967 12.1585 15.7725 12.3167 15.8956 12.431L16.1944 12.7298C16.3262 12.8616 16.4844 13.055 16.6075 13.1956C16.6954 13.3011 16.8096 13.4505 16.8887 13.556C17.0118 13.7142 17.1612 13.9339 17.2579 14.1097C17.3282 14.2328 17.4337 14.391 17.4952 14.5228C17.5919 14.7074 17.7149 14.9623 17.794 15.1557C17.9171 15.4369 18.0314 15.8237 18.1105 16.1137C18.1632 16.3246 18.2247 16.6235 18.2511 16.8432Z" fill="currentColor" stroke="currentColor" stroke-width="0.075" stroke-linecap="round" stroke-linejoin="round"/>
<path d="M12.3124 22.8828C12.8085 22.8654 13.3046 22.8045 13.7745 22.7001C13.8877 22.6739 14.0356 22.6391 14.1401 22.6043C14.2532 22.5782 14.3925 22.526 14.5056 22.4912C14.6187 22.4564 14.758 22.4042 14.8624 22.3606C14.9669 22.3171 15.2105 22.2214 15.5848 22.0212C15.7153 21.9516 16.0112 21.7775 16.281 21.5687C16.5856 21.3337 16.7945 21.1335 16.9076 21.0117C16.986 20.9246 17.2383 20.6548 17.4472 20.3241C13.7832 23.257 10.6066 21.9864 9.32729 20.3589C7.56928 18.1223 9.56227 12.9788 10.9373 12.5349C12.7476 12.9701 14.1836 12.065 13.496 11.2904C13.3742 11.1511 13.2175 10.9858 13.0261 10.803C12.8868 10.7595 12.7476 10.716 12.6083 10.6812C12.2254 10.5854 11.7902 10.5854 11.416 10.6812C11.2507 10.7247 11.1027 10.7682 10.8764 10.8465C10.6327 10.9336 10.5283 10.9858 10.302 11.0902C10.1802 11.1424 10.0235 11.2295 9.91039 11.2904C9.73633 11.3861 9.51005 11.5341 9.3447 11.6385C9.13582 11.7691 8.77029 12.0475 8.52661 12.2651C8.39606 12.3783 8.222 12.5436 8.10016 12.6655C7.96962 12.796 7.80426 12.9701 7.68242 13.118C7.59539 13.2225 7.48225 13.3617 7.40392 13.4661C7.29078 13.6228 7.13412 13.8317 7.02969 13.997C6.95136 14.1189 6.85563 14.2755 6.786 14.3974C6.69027 14.5801 6.55972 14.8238 6.4814 15.0066C6.42918 15.1458 6.35085 15.3199 6.29863 15.4591C6.22901 15.6593 6.14198 15.9378 6.08976 16.1467C6.05495 16.2946 6.01143 16.4948 5.98532 16.6427C5.95051 16.869 5.907 17.1649 5.89829 17.3912C5.88959 17.5218 5.88089 17.6958 5.88959 17.8351C5.907 18.0875 5.9244 18.4269 5.96792 18.6793C5.99403 18.8272 6.03754 19.0361 6.08976 19.1753C6.15939 19.3842 6.25512 19.654 6.35085 19.8455C6.45529 20.0543 6.62065 20.3241 6.75119 20.5156C6.84693 20.6635 7.00358 20.8376 7.12542 20.9682C7.22986 21.0813 7.37781 21.2292 7.49965 21.325C7.68242 21.4729 7.9348 21.6644 8.13497 21.7949C8.27422 21.8907 8.46569 21.9951 8.61364 22.0734C8.71808 22.1257 8.85733 22.1953 8.97046 22.2388C9.0836 22.291 9.24026 22.3519 9.3621 22.3954C9.6406 22.4999 9.82336 22.5521 10.1019 22.6217C10.4152 22.7001 10.6589 22.7349 10.8416 22.7697C11.0157 22.8306 11.6075 22.9089 12.3124 22.8828Z" fill="currentColor" stroke="currentColor" stroke-width="0.075" stroke-linecap="round" stroke-linejoin="round"/>
<path d="M14.6911 15.0652L14.7594 15.4068L13.6537 15.5829C13.8793 15.7081 14.0653 15.912 14.1673 16.2189L14.8982 16.1019L14.9665 16.4435L14.2424 16.5593C14.3138 17.2665 13.8568 17.7966 13.0058 17.9597C13.6371 18.4293 14.3449 19.0345 15.047 19.6468L14.404 19.75C13.7549 19.1916 13.1484 18.6766 12.3822 18.0942L12.2993 17.6713L12.6675 17.6134C13.3916 17.4976 13.7197 17.1298 13.6737 16.6512L12.146 16.895L12.0777 16.5533L13.5852 16.3132C13.4127 15.9331 13.0191 15.791 12.4349 15.8837L11.9588 15.959L11.8706 15.5166L14.6911 15.0652Z" fill="currentColor" stroke="currentColor" stroke-width="0.075" stroke-miterlimit="10"/>
<path d="M10.3186 11.0782C10.0813 10.8672 9.8616 10.6211 9.80008 10.542C9.26393 9.91799 8.9563 9.29395 8.86841 9.11817C9.00904 9.40821 9.27272 9.68947 9.65945 9.91799C10.9075 10.6739 12.973 10.6915 14.2826 9.96194C14.7221 9.71584 15.0209 9.417 15.1704 9.0918C14.977 9.49611 14.7485 9.83889 14.6869 9.93557C14.52 10.1817 14.4496 10.2696 14.3354 10.419C14.2475 10.5245 14.1069 10.6915 14.0453 10.753C13.852 10.9551 13.3334 11.4913 12.639 11.7462C12.2699 11.878 11.804 11.878 11.4349 11.7462C11.0128 11.582 10.6642 11.3744 10.3186 11.0782Z" fill="currentColor" stroke="currentColor" stroke-width="0.075" stroke-linecap="round" stroke-linejoin="round"/>
<path d="M9.85295 7.19533C10.0727 7.07228 10.3715 6.92286 10.9165 6.79981C11.2768 6.72071 11.6899 6.67676 12.0942 6.67676C12.6567 6.68555 13.0962 6.78223 13.2544 6.81739C13.3247 6.83497 13.4126 6.86133 13.4829 6.87891C13.606 6.92286 13.773 6.9756 13.896 7.02833C13.9136 7.03712 14.0806 7.10744 14.3091 7.23928C14.274 7.2217 14.23 7.21291 14.1685 7.24806C13.0347 6.57129 11.1713 6.54492 9.99358 7.20412C8.81581 7.86332 8.78065 8.94441 9.90568 9.62119C11.0395 10.298 12.9029 10.3243 14.0806 9.66513C15.2584 9.00593 15.2935 7.92484 14.1685 7.24806C14.23 7.21291 14.274 7.2217 14.3091 7.23928C14.3531 7.26564 14.4058 7.3008 14.4498 7.32717C14.5289 7.37991 14.6256 7.45901 14.7047 7.52053C14.775 7.58206 14.8629 7.66995 14.9156 7.74027C14.9332 7.76664 15.1266 7.97758 15.232 8.26763C15.4693 8.89167 15.1529 9.56845 14.3004 10.0431C12.9995 10.7726 10.934 10.7462 9.67716 9.99913C8.89491 9.53329 8.62244 8.88288 8.84218 8.294C8.93007 8.07426 9.05312 7.87211 9.22891 7.67874C9.46622 7.41506 9.76506 7.24807 9.85295 7.19533Z" fill="currentColor"/>
<path d="M14.3091 7.23928C14.0806 7.10744 13.9136 7.03712 13.896 7.02833C13.773 6.9756 13.606 6.92286 13.4829 6.87891C13.4126 6.86133 13.3247 6.83497 13.2544 6.81739C13.0962 6.78223 12.6567 6.68555 12.0942 6.67676C11.6899 6.67676 11.2768 6.72071 10.9165 6.79981C10.3715 6.92286 10.0727 7.07228 9.85295 7.19533C9.76506 7.24807 9.46622 7.41506 9.22891 7.67874C9.05312 7.87211 8.93007 8.07426 8.84218 8.294C8.62244 8.88288 8.89491 9.53329 9.67716 9.99913C10.934 10.7462 12.9995 10.7726 14.3004 10.0431C15.1529 9.56845 15.4693 8.89167 15.232 8.26763C15.1265 7.97758 14.9332 7.76664 14.9156 7.74027C14.8629 7.66995 14.775 7.58206 14.7047 7.52053C14.6256 7.45901 14.5289 7.37991 14.4498 7.32717C14.4058 7.3008 14.3531 7.26564 14.3091 7.23928ZM14.3091 7.23928C14.274 7.2217 14.23 7.21291 14.1685 7.24806M14.1685 7.24806C13.0347 6.57129 11.1713 6.54492 9.99358 7.20412C8.81581 7.86332 8.78065 8.94441 9.90568 9.62119C11.0395 10.298 12.9028 10.3243 14.0806 9.66513C15.2584 9.00593 15.2935 7.92484 14.1685 7.24806Z" stroke="currentColor" stroke-width="0.075" stroke-linecap="round" stroke-linejoin="round"/>
<mask id="mask0_5991_159702" style="mask-type:luminance" maskUnits="userSpaceOnUse" x="12" y="3" width="4" height="5">
<path d="M12.6364 7.05352L12.0875 6.5155C13.0661 5.50964 14.0396 4.50894 15.035 3.48592L15.5839 4.02394C14.5885 5.04697 13.6151 6.04766 12.6364 7.05352Z" fill="currentColor" stroke="currentColor" stroke-width="0.075"/>
</mask>
<g mask="url(#mask0_5991_159702)">
<path d="M12.6364 7.05352L12.0875 6.5155C13.0661 5.50964 14.0396 4.50894 15.035 3.48592L15.5839 4.02394C14.5885 5.04697 13.6151 6.04766 12.6364 7.05352Z" fill="currentColor" stroke="currentColor" stroke-width="0.075"/>
</g>
<mask id="mask1_5991_159702" style="mask-type:luminance" maskUnits="userSpaceOnUse" x="14" y="2" width="4" height="2">
<path d="M14.9002 3.42886L14.3513 2.89084C15.2836 2.62841 16.132 2.38943 16.9932 2.14653L17.5421 2.68456C16.6811 2.92684 15.8319 3.16628 14.9002 3.42886Z" fill="currentColor" stroke="currentColor" stroke-width="0.075"/>
</mask>
<g mask="url(#mask1_5991_159702)">
<path d="M14.9005 3.42886L14.3515 2.89084C15.2838 2.62841 16.1323 2.38943 16.9934 2.14653L17.5424 2.68456C16.6814 2.92684 15.8321 3.16628 14.9005 3.42886Z" fill="currentColor" stroke="currentColor" stroke-width="0.075"/>
</g>
<mask id="mask2_5991_159702" style="mask-type:luminance" maskUnits="userSpaceOnUse" x="10" y="5" width="3" height="3">
<path d="M11.5384 6.11127L10.9895 5.57324C11.3688 5.89812 11.7369 6.21365 12.089 6.51539L12.6379 7.05342C12.2858 6.75168 11.9178 6.43615 11.5384 6.11127Z" fill="currentColor" stroke="currentColor" stroke-width="0.075"/>
</mask>
<g mask="url(#mask2_5991_159702)">
<path d="M11.5384 6.11127L10.9895 5.57324C11.3688 5.89812 11.7369 6.21365 12.089 6.51539L12.6379 7.05342C12.2858 6.75168 11.9178 6.43615 11.5384 6.11127Z" fill="currentColor" stroke="currentColor" stroke-width="0.075"/>
</g>
<mask id="mask3_5991_159702" style="mask-type:luminance" maskUnits="userSpaceOnUse" x="5" y="5" width="7" height="7">
<path d="M6.44953 10.9756L5.90059 10.4376C7.60181 8.81038 9.28436 7.20045 10.9857 5.57261L11.5347 6.11063C9.83329 7.73847 8.15075 9.3484 6.44953 10.9756Z" fill="currentColor" stroke="currentColor" stroke-width="0.075"/>
</mask>
<g mask="url(#mask3_5991_159702)">
<path d="M6.44929 10.9756L5.90035 10.4376C7.60157 8.81038 9.28411 7.20045 10.9855 5.57261L11.5344 6.11063C9.83305 7.73847 8.15051 9.3484 6.44929 10.9756Z" fill="currentColor" stroke="currentColor" stroke-width="0.075"/>
</g>
<mask id="mask4_5991_159702" style="mask-type:luminance" maskUnits="userSpaceOnUse" x="5" y="10" width="3" height="2">
<path d="M6.98107 11.6063L6.43213 11.0683C6.25321 10.856 6.08309 10.6525 5.8999 10.4365L6.44884 10.9745C6.63187 11.1911 6.80214 11.394 6.98107 11.6063Z" fill="currentColor" stroke="currentColor" stroke-width="0.075"/>
</mask>
<g mask="url(#mask4_5991_159702)">
<path d="M6.98132 11.6063L6.43238 11.0683C6.25345 10.856 6.08333 10.6525 5.90015 10.4365L6.44908 10.9745C6.63211 11.1911 6.80239 11.394 6.98132 11.6063Z" fill="currentColor" stroke="currentColor" stroke-width="0.075"/>
</g>
<path d="M17.5427 2.68535C17.3282 3.53851 17.1153 4.38556 16.8896 5.2832C16.6698 5.04042 16.4716 4.82197 16.2649 4.59419C14.9149 5.98314 13.6209 7.31558 12.3198 8.65532C11.9112 8.30546 11.5281 7.97766 11.1328 7.63899C9.74974 8.96176 8.37633 10.2747 6.98287 11.6078C6.80378 11.3961 6.63305 11.1924 6.45064 10.976C8.15186 9.34879 9.8344 7.73886 11.5358 6.11101C11.9151 6.43589 12.2832 6.75142 12.6353 7.05316C13.6139 6.04731 14.5874 5.04661 15.5828 4.02359C15.3878 3.85396 15.1646 3.66027 14.9006 3.43027C15.8329 3.16784 16.6814 2.92886 17.5425 2.68596L17.5427 2.68535Z" fill="currentColor" stroke="currentColor" stroke-width="0.075"/>
<circle cx="18.3752" cy="13.875" r="2.84477" fill="currentColor" stroke="currentColor" stroke-width="0.310458"/>
<path d="M18.2488 12.422C18.2306 12.4221 18.2124 12.423 18.1943 12.4246C18.1878 12.4252 18.1812 12.4258 18.1747 12.4266C18.1669 12.4274 18.1592 12.4284 18.1516 12.4295L18.1407 12.4313C17.8126 12.4856 17.5622 12.7705 17.5622 13.1141C17.5622 13.3597 17.6903 13.5753 17.8832 13.6982C17.8858 13.7003 17.8888 13.7023 17.8919 13.7042L17.8924 13.7044L17.847 13.7187C17.778 13.7423 17.7112 13.7719 17.6474 13.807L17.6001 13.8345C17.5952 13.8374 17.5905 13.8404 17.5857 13.8435C17.5492 13.8664 17.5138 13.8912 17.4797 13.9178L17.4749 13.9215C17.1832 14.152 16.9959 14.5087 16.9959 14.9093C16.9959 14.9634 16.9994 15.0175 17.0063 15.0711H19.5117V14.9099C19.5117 14.3404 19.1335 13.8594 18.6145 13.7042C18.813 13.5827 18.9453 13.3639 18.9453 13.1141C18.9453 12.7478 18.6609 12.4482 18.3009 12.4237C18.2963 12.4234 18.2917 12.423 18.2871 12.4227C18.2761 12.4222 18.265 12.4219 18.2538 12.4219L18.2488 12.422ZM18.2531 13.8086C18.8613 13.8086 19.3544 14.3017 19.3544 14.9099C19.3544 14.9112 19.3543 14.9125 19.3543 14.9138H17.152C17.152 14.9125 17.1519 14.9112 17.1519 14.9099C17.1519 14.3017 17.6449 13.8086 18.2531 13.8086ZM18.2531 12.5792C18.5486 12.5792 18.788 12.8186 18.788 13.1141C18.788 13.4095 18.5486 13.6489 18.2531 13.6489C17.9577 13.6489 17.7183 13.4095 17.7183 13.1141C17.7183 12.8186 17.9577 12.5792 18.2531 12.5792Z" fill="currentColor" stroke="currentColor" stroke-width="0.0204708"/>
<path d="M17.3759 12.6602C17.0632 12.6602 16.8096 12.9137 16.8096 13.2265C16.8096 13.4209 16.9075 13.5924 17.0567 13.6943C16.6574 13.8266 16.3689 14.2023 16.3672 14.6458H16.3672V14.8032H16.843C16.8469 14.7504 16.8538 14.6979 16.8636 14.6458H16.5167C16.5188 14.1741 16.9018 13.7924 17.374 13.7924L17.3634 13.7925L17.3756 13.7928C17.3779 13.7928 17.3802 13.7928 17.3824 13.7927L17.3892 13.7925C17.4582 13.7391 17.532 13.6922 17.6096 13.6524C17.5927 13.6326 17.5767 13.6121 17.5616 13.5908C17.5042 13.6203 17.4405 13.6356 17.376 13.6355C17.1501 13.6355 16.9669 13.4524 16.9669 13.2265C16.9669 13.0006 17.1501 12.8175 17.376 12.8175C17.4013 12.8176 17.4266 12.82 17.4516 12.8248C17.469 12.774 17.4912 12.725 17.518 12.6784C17.4955 12.6726 17.4728 12.6682 17.4498 12.6651L17.4465 12.6647C17.4366 12.6634 17.4266 12.6625 17.4165 12.6618C17.4145 12.6616 17.4124 12.6614 17.4104 12.6613C17.399 12.6606 17.3875 12.6602 17.3759 12.6602Z" fill="currentColor" stroke="currentColor" stroke-width="0.0204708"/>
<path d="M19.0942 12.6602C19.4068 12.6602 19.6602 12.9137 19.6602 13.2265C19.6602 13.4209 19.5623 13.5924 19.4132 13.6943C19.8123 13.8266 20.1006 14.2023 20.1023 14.6458H20.1024V14.8032H19.6268C19.6229 14.7504 19.616 14.6979 19.6063 14.6458H19.953C19.9508 14.1741 19.5681 13.7924 19.0961 13.7924L19.1067 13.7925L19.0945 13.7928C19.0922 13.7928 19.0899 13.7928 19.0877 13.7927L19.0809 13.7925C19.0119 13.7391 18.9382 13.6922 18.8606 13.6524C18.8775 13.6326 18.8935 13.6121 18.9086 13.5908C18.966 13.6203 19.0296 13.6356 19.0941 13.6355C19.3199 13.6355 19.503 13.4524 19.503 13.2265C19.503 13.0006 19.3199 12.8175 19.0941 12.8175C19.0688 12.8176 19.0435 12.82 19.0186 12.8248C19.0011 12.774 18.9789 12.725 18.9522 12.6784C18.9746 12.6726 18.9973 12.6682 19.0203 12.6651L19.0237 12.6647C19.0335 12.6634 19.0435 12.6625 19.0536 12.6618C19.0556 12.6616 19.0577 12.6614 19.0598 12.6613C19.0711 12.6606 19.0826 12.6602 19.0942 12.6602Z" fill="currentColor" stroke="currentColor" stroke-width="0.0204708"/>
</g>
<defs>
<clipPath id="clip0_5991_159702">
<rect width="24" height="24" fill="currentColor"/>
</clipPath>
</defs>
</svg>
