<svg width="24" height="24" viewBox="0 0 24 24" fill="none" xmlns="http://www.w3.org/2000/svg">
<g clip-path="url(#clip0_5995_162059)">
<ellipse cx="12.0196" cy="8.52379" rx="3.04698" ry="1.72887" fill="currentColor"/>
<path d="M18.2509 16.8432C18.2684 17.0014 18.2948 17.2124 18.3036 17.3706C18.3124 17.5464 18.3212 17.7925 18.3036 17.9419C18.286 18.1968 18.2509 18.5396 18.1981 18.7857C18.163 18.979 18.0926 19.2515 18.0135 19.4361C17.9608 19.5503 17.9081 19.6997 17.8553 19.8052C17.7762 19.9546 17.6708 20.1568 17.5829 20.2974C17.3719 20.6402 17.117 20.9127 17.0379 21.0006C16.9237 21.1236 16.7127 21.3258 16.4051 21.5631C16.1326 21.774 15.8338 21.9498 15.7019 22.0201C15.324 22.2223 15.0779 22.319 14.9724 22.3629C14.867 22.4069 14.7263 22.4596 14.6121 22.4948C14.4978 22.5299 14.3572 22.5826 14.2429 22.609C14.1374 22.6442 13.988 22.6793 13.8738 22.7057C13.3991 22.8112 12.8981 22.8727 12.3972 22.8903C11.6764 22.9166 11.0875 22.8375 10.9205 22.8112C10.736 22.776 10.4899 22.7409 10.1735 22.6618C9.89219 22.5914 9.70762 22.5387 9.42636 22.4332C9.30331 22.3893 9.1451 22.3278 9.03084 22.275C8.91658 22.2311 8.77595 22.1608 8.67047 22.108C8.52106 22.0289 8.32769 21.9234 8.18706 21.8268C7.98491 21.6949 7.73001 21.5016 7.54544 21.3521C7.42239 21.2555 7.27297 21.106 7.1675 20.9918C7.04445 20.8599 6.88624 20.6841 6.78956 20.5347C6.65772 20.3414 6.49072 20.0689 6.38525 19.858C6.28856 19.6646 6.19188 19.3921 6.12157 19.1812C6.06883 19.0405 6.02488 18.8296 5.99852 18.6802C5.95457 18.4253 5.93699 18.0825 5.91941 17.8276C5.91062 17.687 5.91941 17.5112 5.9282 17.3794C5.93699 17.1508 5.98094 16.852 6.0161 16.6235C6.04246 16.4741 6.08641 16.2719 6.12157 16.1225C6.1743 15.9115 6.2622 15.6303 6.33251 15.4281C6.38525 15.2875 6.46435 15.1117 6.51709 14.9711C6.59619 14.7865 6.72803 14.5404 6.82471 14.3558C6.89503 14.2328 6.99171 14.0746 7.07082 13.9515C7.17629 13.7845 7.3345 13.5736 7.44876 13.4154C7.52786 13.3099 7.64212 13.1693 7.73002 13.0638C7.85307 12.9144 8.02006 12.7386 8.1519 12.6068C8.27495 12.4837 8.45074 12.3167 8.58258 12.2024C8.82868 11.9827 9.19783 11.7015 9.40878 11.5696C9.57577 11.4641 9.8043 11.3147 9.98008 11.218C10.0943 11.1565 10.2526 11.0686 10.3756 11.0159C10.6041 10.9104 10.7096 10.8577 10.9557 10.7698C11.1842 10.6907 11.3336 10.6467 11.5006 10.6028C11.8786 10.5061 12.318 10.5061 12.7048 10.6028C12.9948 10.6731 13.2937 10.7786 13.5837 10.9016C13.698 10.9456 13.8474 11.0159 13.9529 11.0686C14.3191 11.2721 14.6858 11.4722 15.0252 11.719C15.1658 11.8157 15.3328 11.9476 15.4646 12.053C15.5965 12.1585 15.7723 12.3167 15.8953 12.431L16.1941 12.7298C16.326 12.8616 16.4842 13.055 16.6072 13.1956C16.6951 13.3011 16.8094 13.4505 16.8885 13.556C17.0116 13.7142 17.161 13.9339 17.2577 14.1097C17.328 14.2328 17.4334 14.391 17.495 14.5228C17.5917 14.7074 17.7147 14.9623 17.7938 15.1557C17.9169 15.4369 18.0311 15.8237 18.1102 16.1137C18.163 16.3246 18.2245 16.6235 18.2509 16.8432Z" fill="currentColor" stroke="currentColor" stroke-width="0.075" stroke-linecap="round" stroke-linejoin="round"/>
<path d="M12.3122 22.8828C12.8083 22.8654 13.3043 22.8045 13.7743 22.7001C13.8874 22.6739 14.0354 22.6391 14.1398 22.6043C14.253 22.5782 14.3922 22.526 14.5053 22.4912C14.6185 22.4564 14.7577 22.4042 14.8622 22.3606C14.9666 22.3171 15.2103 22.2214 15.5845 22.0212C15.7151 21.9516 16.011 21.7775 16.2808 21.5687C16.5854 21.3337 16.7942 21.1335 16.9074 21.0117C16.9857 20.9246 17.2381 20.6548 17.447 20.3241C13.783 23.257 10.6064 21.9864 9.32704 20.3589C7.56903 18.1223 9.56203 12.9788 10.9371 12.5349C12.7473 12.9701 14.1833 12.065 13.4958 11.2904C13.374 11.1511 13.2173 10.9858 13.0258 10.803C12.8866 10.7595 12.7473 10.716 12.6081 10.6812C12.2252 10.5854 11.79 10.5854 11.4158 10.6812C11.2504 10.7247 11.1025 10.7682 10.8762 10.8465C10.6325 10.9336 10.5281 10.9858 10.3018 11.0902C10.1799 11.1424 10.0233 11.2295 9.91015 11.2904C9.73609 11.3861 9.50981 11.5341 9.34445 11.6385C9.13558 11.7691 8.77005 12.0475 8.52637 12.2651C8.39582 12.3783 8.22176 12.5436 8.09992 12.6655C7.96937 12.796 7.80401 12.9701 7.68217 13.118C7.59514 13.2225 7.482 13.3617 7.40367 13.4661C7.29054 13.6228 7.13388 13.8317 7.02944 13.997C6.95112 14.1189 6.85538 14.2755 6.78576 14.3974C6.69003 14.5801 6.55948 14.8238 6.48115 15.0066C6.42894 15.1458 6.35061 15.3199 6.29839 15.4591C6.22877 15.6593 6.14174 15.9378 6.08952 16.1467C6.0547 16.2946 6.01119 16.4948 5.98508 16.6427C5.95027 16.869 5.90675 17.1649 5.89805 17.3912C5.88935 17.5218 5.88064 17.6958 5.88935 17.8351C5.90675 18.0875 5.92416 18.4269 5.96768 18.6793C5.99378 18.8272 6.0373 19.0361 6.08952 19.1753C6.15914 19.3842 6.25487 19.654 6.35061 19.8455C6.45504 20.0543 6.6204 20.3241 6.75095 20.5156C6.84668 20.6635 7.00334 20.8376 7.12518 20.9682C7.22961 21.0813 7.37757 21.2292 7.49941 21.325C7.68217 21.4729 7.93456 21.6644 8.13473 21.7949C8.27398 21.8907 8.46544 21.9951 8.6134 22.0734C8.71783 22.1257 8.85708 22.1953 8.97022 22.2388C9.08336 22.291 9.24001 22.3519 9.36186 22.3954C9.64035 22.4999 9.82312 22.5521 10.1016 22.6217C10.4149 22.7001 10.6586 22.7349 10.8414 22.7697C11.0154 22.8306 11.6072 22.9089 12.3122 22.8828Z" fill="currentColor" stroke="currentColor" stroke-width="0.075" stroke-linecap="round" stroke-linejoin="round"/>
<path d="M14.6909 15.0652L14.7592 15.4068L13.6535 15.5829C13.8791 15.7081 14.0651 15.912 14.1671 16.2189L14.8979 16.1019L14.9663 16.4435L14.2421 16.5593C14.3136 17.2665 13.8566 17.7966 13.0055 17.9597C13.6369 18.4293 14.3446 19.0345 15.0468 19.6468L14.4037 19.75C13.7547 19.1916 13.1482 18.6766 12.382 18.0942L12.2991 17.6713L12.6672 17.6134C13.3914 17.4976 13.7195 17.1298 13.6734 16.6512L12.1457 16.895L12.0774 16.5533L13.5849 16.3132C13.4125 15.9331 13.0188 15.791 12.4347 15.8837L11.9585 15.959L11.8704 15.5166L14.6909 15.0652Z" fill="currentColor" stroke="currentColor" stroke-width="0.075" stroke-miterlimit="10"/>
<path d="M10.3191 11.0772C10.0818 10.8663 9.86209 10.6202 9.80057 10.5411C9.26442 9.91702 8.95679 9.29298 8.8689 9.11719C9.00953 9.40724 9.27321 9.68849 9.65994 9.91702C10.908 10.6729 12.9735 10.6905 14.2831 9.96096C14.7226 9.71486 15.0214 9.41603 15.1709 9.09082C14.9775 9.49513 14.749 9.83791 14.6874 9.9346C14.5204 10.1807 14.4501 10.2686 14.3359 10.418C14.248 10.5235 14.1073 10.6905 14.0458 10.752C13.8524 10.9542 13.3339 11.4903 12.6395 11.7452C12.2704 11.877 11.8045 11.877 11.4354 11.7452C11.0132 11.581 10.6647 11.3734 10.3191 11.0772Z" fill="currentColor" stroke="currentColor" stroke-width="0.075" stroke-linecap="round" stroke-linejoin="round"/>
<path d="M9.85271 7.19533C10.0724 7.07228 10.3713 6.92286 10.9162 6.79981C11.2766 6.72071 11.6897 6.67676 12.094 6.67676C12.6565 6.68555 13.096 6.78223 13.2542 6.81739C13.3245 6.83497 13.4124 6.86133 13.4827 6.87891C13.6058 6.92286 13.7727 6.9756 13.8958 7.02833C13.9134 7.03712 14.0804 7.10744 14.3089 7.23928C14.2737 7.2217 14.2298 7.21291 14.1683 7.24806C13.0344 6.57129 11.1711 6.54492 9.99333 7.20412C8.81556 7.86332 8.78041 8.94441 9.90544 9.62119C11.0393 10.298 12.9026 10.3243 14.0804 9.66513C15.2581 9.00593 15.2933 7.92484 14.1683 7.24806C14.2298 7.21291 14.2737 7.2217 14.3089 7.23928C14.3528 7.26564 14.4056 7.3008 14.4495 7.32717C14.5286 7.37991 14.6253 7.45901 14.7044 7.52053C14.7747 7.58206 14.8626 7.66995 14.9154 7.74027C14.9329 7.76664 15.1263 7.97758 15.2318 8.26763C15.4691 8.89167 15.1527 9.56845 14.3001 10.0431C12.9993 10.7726 10.9338 10.7462 9.67692 9.99913C8.89467 9.53329 8.6222 8.88288 8.84193 8.294C8.92983 8.07426 9.05288 7.87211 9.22866 7.67874C9.46597 7.41506 9.76481 7.24807 9.85271 7.19533Z" fill="currentColor"/>
<path d="M14.3089 7.23928C14.0804 7.10744 13.9134 7.03712 13.8958 7.02833C13.7727 6.9756 13.6058 6.92286 13.4827 6.87891C13.4124 6.86133 13.3245 6.83497 13.2542 6.81739C13.096 6.78223 12.6565 6.68555 12.094 6.67676C11.6897 6.67676 11.2766 6.72071 10.9162 6.79981C10.3713 6.92286 10.0724 7.07228 9.85271 7.19533C9.76481 7.24807 9.46597 7.41506 9.22866 7.67874C9.05288 7.87211 8.92983 8.07426 8.84193 8.294C8.6222 8.88288 8.89467 9.53329 9.67692 9.99913C10.9338 10.7462 12.9993 10.7726 14.3001 10.0431C15.1527 9.56845 15.4691 8.89167 15.2318 8.26763C15.1263 7.97758 14.9329 7.76664 14.9154 7.74027C14.8626 7.66995 14.7747 7.58206 14.7044 7.52053C14.6253 7.45901 14.5286 7.37991 14.4495 7.32717C14.4056 7.3008 14.3528 7.26564 14.3089 7.23928ZM14.3089 7.23928C14.2737 7.2217 14.2298 7.21291 14.1683 7.24806M14.1683 7.24806C13.0344 6.57129 11.1711 6.54492 9.99333 7.20412C8.81556 7.86332 8.78041 8.94441 9.90544 9.62119C11.0393 10.298 12.9026 10.3243 14.0804 9.66513C15.2581 9.00593 15.2933 7.92484 14.1683 7.24806Z" stroke="currentColor" stroke-width="0.075" stroke-linecap="round" stroke-linejoin="round"/>
<mask id="mask0_5995_162059" style="mask-type:luminance" maskUnits="userSpaceOnUse" x="12" y="3" width="4" height="5">
<path d="M12.6345 7.05157L12.0855 6.51354C13.0642 5.50769 14.0377 4.50699 15.033 3.48397L15.582 4.02199C14.5866 5.04501 13.6131 6.04571 12.6345 7.05157Z" fill="currentColor" stroke="currentColor" stroke-width="0.075"/>
</mask>
<g mask="url(#mask0_5995_162059)">
<path d="M12.6342 7.05157L12.0853 6.51354C13.0639 5.50769 14.0374 4.50699 15.0328 3.48397L15.5817 4.02199C14.5863 5.04501 13.6129 6.04571 12.6342 7.05157Z" fill="currentColor" stroke="currentColor" stroke-width="0.075"/>
</g>
<mask id="mask1_5995_162059" style="mask-type:luminance" maskUnits="userSpaceOnUse" x="14" y="2" width="4" height="2">
<path d="M14.9012 3.42886L14.3523 2.89084C15.2845 2.62841 16.133 2.38943 16.9942 2.14653L17.5431 2.68456C16.6821 2.92684 15.8329 3.16628 14.9012 3.42886Z" fill="currentColor" stroke="currentColor" stroke-width="0.075"/>
</mask>
<g mask="url(#mask1_5995_162059)">
<path d="M14.9017 3.42886L14.3527 2.89084C15.285 2.62841 16.1335 2.38943 16.9946 2.14653L17.5436 2.68456C16.6826 2.92684 15.8334 3.16628 14.9017 3.42886Z" fill="currentColor" stroke="currentColor" stroke-width="0.075"/>
</g>
<mask id="mask2_5995_162059" style="mask-type:luminance" maskUnits="userSpaceOnUse" x="10" y="5" width="3" height="3">
<path d="M11.536 6.10931L10.9871 5.57129C11.3664 5.89617 11.7344 6.2117 12.0866 6.51344L12.6355 7.05146C12.2834 6.74972 11.9153 6.43419 11.536 6.10931Z" fill="currentColor" stroke="currentColor" stroke-width="0.075"/>
</mask>
<g mask="url(#mask2_5995_162059)">
<path d="M11.5365 6.10931L10.9875 5.57129C11.3669 5.89617 11.7349 6.2117 12.087 6.51344L12.636 7.05146C12.2839 6.74972 11.9158 6.43419 11.5365 6.10931Z" fill="currentColor" stroke="currentColor" stroke-width="0.075"/>
</g>
<mask id="mask3_5995_162059" style="mask-type:luminance" maskUnits="userSpaceOnUse" x="5" y="5" width="7" height="7">
<path d="M6.44929 10.9747L5.90035 10.4366C7.60157 8.8094 9.28411 7.19948 10.9855 5.57163L11.5344 6.10965C9.83305 7.7375 8.15051 9.34743 6.44929 10.9747Z" fill="currentColor" stroke="currentColor" stroke-width="0.075"/>
</mask>
<g mask="url(#mask3_5995_162059)">
<path d="M6.44953 10.9747L5.90059 10.4366C7.60181 8.8094 9.28436 7.19948 10.9857 5.57163L11.5347 6.10965C9.83329 7.7375 8.15075 9.34743 6.44953 10.9747Z" fill="currentColor" stroke="currentColor" stroke-width="0.075"/>
</g>
<mask id="mask4_5995_162059" style="mask-type:luminance" maskUnits="userSpaceOnUse" x="5" y="10" width="3" height="2">
<path d="M6.98278 11.6053L6.43384 11.0673C6.25491 10.855 6.0848 10.6515 5.90161 10.4355L6.45055 10.9736C6.63358 11.1901 6.80385 11.393 6.98278 11.6053Z" fill="currentColor" stroke="currentColor" stroke-width="0.075"/>
</mask>
<g mask="url(#mask4_5995_162059)">
<path d="M6.98327 11.6043L6.43433 11.0663C6.2554 10.8541 6.08528 10.6505 5.9021 10.4346L6.45104 10.9726C6.63407 11.1891 6.80434 11.3921 6.98327 11.6043Z" fill="currentColor" stroke="currentColor" stroke-width="0.075"/>
</g>
<path d="M17.5422 2.68438C17.3277 3.53753 17.1148 4.38459 16.8891 5.28222C16.6693 5.03944 16.4711 4.821 16.2644 4.59321C14.9144 5.98216 13.6204 7.3146 12.3193 8.65434C11.9107 8.30448 11.5276 7.97669 11.1323 7.63801C9.74925 8.96079 8.37585 10.2737 6.98238 11.6068C6.8033 11.3951 6.63257 11.1914 6.45015 10.975C8.15137 9.34781 9.83391 7.73788 11.5353 6.11004C11.9146 6.43492 12.2827 6.75045 12.6348 7.05219C13.6135 6.04633 14.5869 5.04564 15.5823 4.02261C15.3873 3.85298 15.1641 3.65929 14.9001 3.42929C15.8324 3.16686 16.6809 2.92788 17.542 2.68499L17.5422 2.68438Z" fill="currentColor" stroke="currentColor" stroke-width="0.075"/>
<circle cx="21.3" cy="5.175" r="1.8" fill="currentColor"/>
</g>
<defs>
<clipPath id="clip0_5995_162059">
<rect width="24" height="24" fill="currentColor"/>
</clipPath>
</defs>
</svg>
