<svg width="24" height="24" viewBox="0 0 24 24" fill="none" xmlns="http://www.w3.org/2000/svg">
<g clip-path="url(#clip0_5995_162368)">
<path d="M15.3224 19.3237L15.2799 20.3852C15.2799 20.8522 14.9827 21.3193 14.3458 21.6589C13.1145 22.3807 11.119 22.3807 9.84522 21.6589C9.20834 21.3193 8.91113 20.8098 8.91113 20.3427L8.95359 19.2812C8.95359 19.7483 9.2508 20.2153 9.88768 20.5975C11.119 21.3193 13.1145 21.3193 14.3883 20.5975C14.9827 20.2578 15.3224 19.7908 15.3224 19.3237Z" fill="currentColor" stroke="currentColor" stroke-width="0.075"/>
<path d="M15.3222 19.3232L15.2798 20.3847C15.2798 20.3847 15.2798 20.3847 15.2798 20.4272L15.3222 19.3232Z" fill="currentColor" stroke="currentColor" stroke-width="0.075"/>
<path d="M14.3882 18.0072C15.6195 18.729 15.6195 19.8754 14.3882 20.5972C13.1569 21.319 11.1614 21.319 9.88759 20.5972C8.65629 19.8754 8.65629 18.729 9.88759 18.0072C11.1189 17.2854 13.1145 17.2854 14.3882 18.0072Z" fill="currentColor" stroke="currentColor" stroke-width="0.075"/>
<path d="M12.9023 14.7373V19.4927C12.9023 19.6201 12.8173 19.7474 12.69 19.8324C12.3927 20.0022 11.8832 20.0022 11.5436 19.8324C11.3737 19.7474 11.2888 19.6201 11.2888 19.4927V14.7373C11.2888 14.8647 11.3737 14.9921 11.5436 15.077C12.0106 15.3317 12.9023 15.1194 12.9023 14.7373Z" fill="currentColor" stroke="currentColor" stroke-width="0.075"/>
<path d="M12.902 14.7373V19.4927C12.8595 19.153 12.8595 20.8938 12.902 14.7373Z" fill="currentColor" stroke="currentColor" stroke-width="0.075"/>
<path d="M12.6476 15.0347C12.3504 15.2045 11.8409 15.2045 11.5012 15.0347C11.204 14.8649 11.204 14.5677 11.5012 14.3978C12.2655 13.9732 13.4119 14.6101 12.6476 15.0347Z" fill="currentColor" stroke="currentColor" stroke-width="0.075"/>
<path d="M7.67969 12.9119L8.95345 12.1476C9.03837 12.1052 9.16574 12.1052 9.29312 12.1901C9.37804 12.2325 9.46295 12.3175 9.50541 12.4024C11.2038 14.4404 14.2183 16.5209 16.4686 15.2047C15.7044 15.4594 14.2608 17.455 10.949 15.5443C10.0149 14.9924 9.08083 14.2281 8.18919 13.1666C8.10427 13.0817 8.06182 12.9968 7.9769 12.9543C7.89198 12.8694 7.7646 12.8694 7.67969 12.9119ZM13.6664 3.40112C14.9401 2.72178 14.9401 2.46703 15.2798 2.67932L14.006 3.44358C13.8787 3.35866 13.7513 3.35866 13.6664 3.40112Z" fill="currentColor" stroke="currentColor" stroke-width="0.075"/>
<path d="M17.1478 16.3509L15.8741 17.1152C19.4831 14.9923 17.7847 7.85919 14.2606 3.65577C14.1757 3.57085 14.1333 3.5284 14.0483 3.48594L15.3221 2.72168C15.407 2.76414 15.4919 2.8066 15.5344 2.89151C19.3132 7.34968 20.587 14.3554 17.1478 16.3509Z" fill="currentColor" stroke="currentColor" stroke-width="0.075"/>
<path d="M14.0059 3.44394L15.3221 2.67969L14.0059 3.44394Z" fill="currentColor" stroke="currentColor" stroke-width="0.075"/>
<path d="M14.2183 3.5709C14.2183 3.61336 14.2183 3.61336 14.2183 3.5709V3.5709Z" fill="currentColor"/>
<path d="M14.2183 3.5709L15.492 2.80664M14.2183 3.5709C14.2183 3.61336 14.2183 3.61336 14.2183 3.5709Z" stroke="currentColor" stroke-width="0.075"/>
<path d="M14.2183 3.61352C19.6106 9.98233 18.8039 18.6864 12.987 17.4126C12.3077 17.2852 11.6284 16.988 10.949 16.6059C9.84509 15.969 8.74116 15.0349 7.76461 13.8461C7.55232 13.5913 7.4674 13.2092 7.55232 12.9969C7.63723 12.8695 7.80707 12.8695 7.9769 12.9544C8.06182 12.9969 8.14674 13.0818 8.1892 13.1667C9.08083 14.1857 10.0149 14.9925 10.949 15.5444C17.148 19.1534 19.1011 10.7466 13.7513 4.37778C13.2418 3.69844 13.6664 2.97664 14.2183 3.61352Z" fill="currentColor" stroke="currentColor" stroke-width="0.075"/>
<path d="M19.0162 9.21794C18.8463 13.0392 15.6619 16.0538 11.7982 15.9689C7.93445 15.884 4.83496 12.742 4.83496 8.87827C4.83496 4.03798 9.59034 0.641279 14.1759 2.16979C17.148 3.1888 19.1436 6.03354 19.0162 9.21794Z" fill="currentColor" stroke="currentColor" stroke-width="0.075"/>
<path d="M16.0017 10.7891C15.9593 10.7467 15.9168 10.7467 15.8744 10.7891C15.7894 10.8316 15.6621 10.7467 15.5771 10.7891C15.5771 10.7891 15.5347 10.8316 15.5347 10.7891C15.4073 10.5344 15.4922 10.7467 15.4073 10.7042C15.3648 10.6618 15.195 10.6193 15.1526 10.6618C15.1101 10.6618 15.0676 10.7891 15.0252 10.7891C14.9827 10.8316 14.9827 10.7891 14.9827 10.7891C15.0252 10.7467 15.0676 10.7891 15.0676 10.6618C15.0676 10.5768 14.8553 10.6618 14.7704 10.7042C14.7704 10.6193 15.0252 10.4919 14.8978 10.3645C14.7704 10.2796 14.8978 10.1523 14.6855 10.0673C14.2185 9.85504 14.1335 9.98242 14.0486 9.98242C14.0062 9.98242 13.9637 9.8975 13.9212 9.8975C13.8788 9.8975 13.8788 9.8975 13.8788 9.85504C13.8788 9.81258 13.6665 9.64275 13.624 9.68521C13.5816 9.68521 13.5816 9.60029 13.5816 9.60029C13.5816 9.60029 13.4542 9.55783 13.4117 9.51537L13.4542 9.47291C13.4542 9.43045 13.3693 9.47291 13.2419 9.47291C13.1145 9.55783 13.0296 9.47291 12.9022 9.47291C12.7749 9.47291 12.7749 9.51537 12.7324 9.43045C12.6899 9.38799 12.6475 9.43045 12.5626 9.38799V9.34554C12.5201 9.34554 12.4777 9.34553 12.5201 9.38799C12.4777 9.38799 12.3927 9.47291 12.3927 9.47291C12.3927 9.51537 12.4352 9.55783 12.4352 9.60029C12.4352 9.64275 12.3927 9.68521 12.3503 9.64275C12.3078 9.60029 12.3503 9.51537 12.3503 9.47291V9.43045C12.3503 9.38799 12.3927 9.34554 12.3927 9.30308C12.3503 9.30308 12.3078 9.34553 12.2654 9.38799C12.138 9.34553 11.8832 9.47291 11.8408 9.51537C11.7983 9.55783 11.7983 9.60029 11.7134 9.77012C11.6285 9.85504 11.6285 9.60029 11.2888 9.68521C11.2039 9.72766 11.0765 9.72766 11.0341 9.60029C10.9491 9.43045 10.9067 9.55783 10.8642 9.34554C10.8642 9.09078 11.0765 8.79357 10.3123 8.83603C10.3972 8.28407 10.6095 8.28407 10.567 8.19915C10.5246 8.11423 10.2698 8.11423 10.1849 8.19915C10.0575 8.28407 10.1 8.41144 10.0575 8.4539C9.97259 8.53882 9.93013 8.41144 9.84521 8.4539C9.76029 8.49636 9.71783 8.49636 9.63292 8.41144C9.50554 8.28407 9.37816 8.07177 9.46308 7.9444C9.50554 7.85948 9.42062 7.81702 9.46308 7.7321C9.46308 7.64719 9.548 7.56227 9.548 7.47735C9.548 7.43489 9.548 7.39243 9.59046 7.34998C9.67538 7.26506 9.76029 7.26506 9.80275 7.2226L9.84521 7.18014C9.88767 7.13768 9.93013 7.18014 9.97259 7.13768H10.015C10.1 7.13768 10.1849 7.26506 10.2698 7.26506C10.3123 7.26506 10.3972 7.2226 10.3972 7.18014C10.3972 7.13768 10.3547 7.13768 10.3972 7.13768C10.5246 7.09522 10.6095 7.09522 10.7368 7.13768C10.7793 7.13768 10.8218 7.18014 10.8642 7.18014C11.119 7.13768 10.9916 7.2226 11.119 7.60473C11.2039 7.81702 11.3313 7.7321 11.3313 7.68965C11.3313 7.60473 11.2888 7.68964 11.3313 7.51981C11.3737 7.30752 10.9916 7.13768 11.5011 6.84047C11.6285 6.75555 11.7983 6.67064 11.9257 6.54326C11.8832 6.37342 11.9681 6.24605 11.9681 6.20359C11.9681 6.16113 11.9681 6.16113 11.9681 6.11867L12.0106 6.07621C12.0531 6.03375 12.0106 5.90638 12.1804 5.90638C12.2229 5.90638 12.3503 5.90638 12.3927 5.86392C12.3927 5.82146 12.3503 5.82146 12.3078 5.779C12.2654 5.73654 12.3078 5.69408 12.3503 5.65163C12.4352 5.60917 12.4352 5.65163 12.5626 5.52425C12.605 5.48179 12.7749 5.35441 12.8173 5.39687C12.7749 5.43933 12.7324 5.43933 12.7324 5.48179C12.605 5.56671 12.6899 5.65163 12.7749 5.60917C12.8598 5.56671 12.9022 5.48179 12.9872 5.43933C13.0296 5.39687 13.1995 5.39687 13.157 5.31196C13.0721 5.35441 12.9872 5.35441 12.9022 5.35441C12.8598 5.22704 12.7749 5.14212 12.6899 5.09966C12.6899 5.0572 12.7324 5.0572 12.7749 5.01474C12.8598 4.84491 12.4777 4.97229 12.3927 5.01474C12.3503 5.01474 12.3927 4.97229 12.4352 4.97229C12.605 4.92983 12.4777 4.84491 12.6475 4.80245C12.7749 4.80245 12.9872 4.84491 13.2419 4.67507C13.1145 5.35441 13.1995 5.01474 13.4967 5.0572C13.4967 5.09966 13.4967 5.09966 13.5391 5.09966C13.5816 5.09966 13.5816 5.09966 13.624 5.09966C13.9212 5.0572 13.5816 4.97229 13.5816 4.88737C13.5391 4.75999 13.5391 4.84491 13.4542 4.84491C13.4117 4.84491 13.3693 4.80245 13.3693 4.75999C13.3693 4.71753 13.4117 4.67507 13.3693 4.63262C13.3693 4.63262 13.3268 4.63262 13.3268 4.59016C13.2844 4.5477 13.3268 4.50524 13.2844 4.50524C13.2419 4.46278 13.1995 4.50524 13.157 4.46278C13.1145 4.42032 13.157 4.42032 13.0721 4.37786C12.9872 4.37786 12.9447 4.3354 12.9022 4.29295C12.7749 4.29295 12.8173 4.16557 12.7749 4.12311L12.605 3.91082C12.4777 3.78344 12.5626 4.03819 12.4352 4.03819C12.3927 4.03819 12.3503 4.03819 12.3078 3.99573C12.3503 3.8259 12.0106 3.69852 11.8408 3.69852C11.7559 3.69852 11.7559 3.74098 11.7559 3.78344C11.7559 3.91082 11.6709 3.95328 11.6709 3.99573C11.6709 4.03819 11.6709 4.03819 11.7134 4.03819C11.9257 4.3354 11.586 4.25049 11.586 4.37786C11.586 4.42032 11.586 4.42032 11.586 4.46278C11.7134 4.75999 11.4162 4.80245 11.3737 4.59016C11.3737 4.50524 11.3737 4.42032 11.3737 4.37786C11.1614 4.37786 10.9916 4.16557 10.7368 4.16557C10.7793 4.12311 10.7793 4.03819 10.6944 3.99573H10.6519C10.6519 3.78344 10.8642 3.74098 10.9067 3.74098C10.9491 3.74098 10.9916 3.69852 11.2463 3.52869C11.2888 3.57115 11.2463 3.65606 11.2888 3.69852C11.3313 3.74098 11.4162 3.61361 11.5011 3.65606L11.5436 3.69852C11.586 3.69852 11.6709 3.57115 11.4586 3.57115C11.4162 3.52869 11.4586 3.48623 11.5011 3.44377C11.586 3.35885 11.5436 3.35885 11.5436 3.27394C11.5436 3.18902 11.6709 3.1041 11.8408 3.27394C11.9257 3.40131 11.8408 3.40131 11.8408 3.44377C11.8408 3.48623 11.8832 3.48623 11.7983 3.52869C11.7983 3.52869 11.7559 3.57115 11.7983 3.57115C11.8832 3.52869 11.9681 3.65606 12.0531 3.61361C12.0531 3.69852 12.2654 3.74098 12.3503 3.74098C12.3078 3.69852 12.2654 3.65606 12.2229 3.61361C12.2654 3.61361 12.3503 3.61361 12.3927 3.65606C12.5626 3.74098 12.4777 3.48623 12.2229 3.40131C12.3078 3.35885 12.3503 3.40131 12.4352 3.44377C12.4352 3.40131 12.4777 3.31639 12.5201 3.31639C12.4352 3.31639 12.2654 3.23148 12.138 3.1041C12.138 3.01918 11.9681 2.97672 11.7559 2.84935C11.7134 2.72197 11.8408 2.67951 11.9681 2.63705C12.138 2.5946 12.138 2.67951 12.1804 2.67951C12.2229 2.72197 12.2654 2.67951 12.3078 2.67951C12.3503 2.67951 12.3927 2.67951 12.7749 2.93427C12.7324 3.01918 12.9872 2.93427 12.9872 3.1041C12.9872 3.14656 12.9447 3.14656 12.9447 3.18902C12.9447 3.40131 13.709 3.78344 13.7939 3.74098C13.8363 3.69852 13.7514 3.69852 13.7514 3.65606C13.709 3.65606 13.7514 3.65606 13.6665 3.52869C13.5391 3.40131 13.5816 3.31639 13.6665 3.31639H13.709C13.7939 3.27394 13.709 3.18902 13.709 3.1041C13.709 3.06164 13.7514 3.06164 13.7939 3.06164C13.8363 3.01918 13.8363 2.93427 13.7939 2.89181C13.7514 2.93427 13.6665 2.89181 13.624 2.84935C13.6665 2.84935 13.6665 2.84935 13.709 2.84935C13.709 2.76443 13.5816 2.80689 13.5391 2.76443C13.4967 2.72197 13.5391 2.67951 13.4542 2.67951C13.2844 2.67951 13.2419 2.55214 13.1995 2.50968C13.157 2.46722 13.0721 2.46722 12.9022 2.3823C12.8173 2.29738 12.7324 2.3823 12.6899 2.33984C12.6475 2.33984 12.6475 2.33984 12.605 2.33984C12.5201 2.3823 12.3927 2.33984 12.3503 2.3823C12.3078 2.42476 12.3503 2.42476 12.3078 2.42476C12.2654 2.42476 12.2229 2.46722 12.0531 2.55214C12.0531 2.50968 12.0531 2.46722 12.0955 2.46722C12.0531 2.46722 11.7983 2.42476 11.586 2.55214C11.5436 2.5946 11.4586 2.55214 11.5011 2.63705C11.5011 2.67951 11.5011 2.67951 11.4586 2.63705C11.3737 2.55214 10.7793 2.67951 10.6944 2.67951C10.6944 2.76443 10.7368 2.80689 10.7793 2.84935C10.8218 2.89181 10.8642 2.97672 10.6944 2.84935C10.6519 2.80689 10.6519 2.76443 10.567 2.76443V2.72197C10.4396 2.76443 10.2698 2.76443 10.2273 2.80689C10.1849 2.84935 10.2698 2.93427 10.3972 2.84935V2.89181C10.3972 2.93427 10.4821 2.97672 10.4396 2.97672C10.4396 3.01918 10.3972 2.97672 10.3547 2.97672L10.3123 3.01918C10.3123 3.06164 10.3123 3.06164 10.3123 3.1041C10.1424 3.01918 10.0575 2.89181 10.015 2.93427C10.015 2.89181 10.015 2.89181 10.015 2.84935C9.46308 2.80689 9.80275 2.80689 9.63292 2.72197C9.59046 2.72197 9.59046 2.63705 9.63292 2.5946C9.76029 2.46722 9.33571 2.46722 9.08095 2.67951C9.08095 2.67951 9.08095 2.67951 9.03849 2.67951C8.74128 2.67951 8.99604 2.84935 8.78374 2.84935C8.65637 2.84935 8.35915 2.97672 8.3167 3.18902C8.3167 3.27394 8.3167 3.23148 7.93457 3.35885C8.61391 3.44377 8.27424 3.1041 8.52899 3.31639C8.57145 3.31639 8.57145 3.31639 8.61391 3.31639C8.69882 3.44377 8.74128 3.57115 8.61391 3.61361C8.69882 3.78344 8.48653 4.03819 8.48653 4.12311C8.44407 4.3354 8.44407 4.20803 8.40161 4.3354C8.35916 4.42032 8.52899 4.71753 8.40161 4.67507C8.35916 4.67507 8.35915 4.67507 8.3167 4.71753C8.3167 4.75999 8.27424 4.75999 8.27424 4.80245C8.27424 4.84491 8.27424 4.84491 8.23178 4.88737C8.18932 4.92983 8.18932 4.88737 8.14686 4.97229C7.80719 5.52425 7.97703 5.35441 7.89211 5.48179C7.89211 5.52425 7.76473 5.73654 7.72227 5.73654C7.67982 5.779 7.67982 6.03375 7.72227 6.16113C7.76473 6.28851 7.89211 6.37342 7.89211 6.58572C7.89211 7.05276 8.01949 6.96785 7.89211 7.05276C7.84965 7.05276 7.89211 7.09522 7.89211 7.13768C7.93457 7.13768 7.93457 7.18014 7.97703 7.18014C8.06194 7.26506 7.93457 7.26506 8.1044 7.51981C8.14686 7.56227 8.14686 7.64719 8.18932 7.68965C8.23178 7.64719 8.23178 7.51981 8.18932 7.47735C8.1044 7.39243 8.23178 7.30752 8.14686 7.18014C8.1044 7.09522 8.1044 7.09522 8.1044 7.0103C8.1044 6.84047 7.89211 6.79801 8.1044 6.54326C8.1044 6.62818 8.18932 6.62818 8.18932 6.79801C8.27424 7.34997 8.48653 7.47735 8.52899 7.68965C8.65637 8.15669 8.27424 7.98686 8.78374 8.36898C9.46308 8.92095 9.42062 8.70865 9.548 8.70865C9.76029 8.70865 10.0575 9.26062 10.3972 9.09078C10.3972 9.21816 10.5246 9.30308 10.567 9.43045C10.567 9.47291 10.567 9.51537 10.6095 9.51537C10.6519 9.55783 10.6944 9.51537 10.6944 9.47291C10.9491 9.6852 10.8218 9.64275 10.9067 9.68521C11.2463 9.81258 11.1614 9.77012 11.2039 9.85504C11.2039 9.85504 11.2463 9.8975 11.2888 9.85504L11.2463 9.81258C11.2463 9.77012 11.2463 9.77012 11.2888 9.77012C11.3313 9.77012 11.4162 9.55783 11.5011 9.72766C11.6709 10.1523 11.586 10.0673 11.6285 10.2372C11.7134 10.407 11.5011 10.3221 11.4162 10.5344C11.3737 10.6193 11.3313 10.6193 11.2888 10.6193C11.2463 10.6618 11.2888 10.7891 11.2039 10.7891C11.2463 10.8741 11.0765 10.8741 11.2463 11.0439C11.3737 11.1713 11.119 11.0863 11.119 11.3411C11.119 11.5534 11.3313 11.5534 11.4162 11.6808C11.5436 11.9355 11.5436 12.0204 11.6285 12.1478C11.7134 12.2327 11.6709 12.2327 11.6709 12.3176C11.7134 12.5724 12.3503 12.5724 12.3927 12.9121C12.3927 12.997 12.3927 13.1668 12.3927 13.2517C12.2654 13.3367 12.3503 13.464 12.3078 13.549C12.2654 13.6339 12.2654 13.5914 12.2654 13.7188C12.2654 13.8037 12.1804 13.9311 12.2229 14.016C12.2229 14.0585 12.2229 14.1009 12.2229 14.1434C12.2229 14.1858 12.0531 14.483 12.0106 14.568C11.9257 14.8652 12.1804 14.7378 11.9257 15.035C11.8832 15.035 11.8408 15.2473 11.9257 15.3747C12.0531 15.587 12.2229 15.587 12.2654 15.6294C12.3078 15.587 12.3078 15.587 12.3503 15.587C12.3927 15.587 12.4777 15.587 12.5201 15.587C12.5201 15.587 12.5201 15.5445 12.4777 15.5445C12.3927 15.5021 12.4352 15.587 12.3503 15.4171C12.3927 15.3747 12.4352 15.4171 12.4777 15.3322C12.4777 15.3322 12.605 15.2898 12.6475 15.2048C12.605 15.2048 12.5201 15.1624 12.5201 15.1199C12.5201 15.035 12.6899 15.1199 12.7324 15.035C12.7749 14.9925 12.7749 14.9501 12.8598 14.9501C12.8598 14.9501 12.8598 14.9501 12.8173 14.9076V14.8652C12.7749 14.8652 12.7749 14.8227 12.8173 14.7803C12.8598 14.7803 12.9022 14.7803 12.9022 14.7803C12.9872 14.7803 13.0721 14.6953 13.0721 14.6529C13.0721 14.5255 13.4967 14.6529 13.624 14.3981H13.5816C13.6665 14.3132 13.4967 14.3132 13.4967 14.2707C13.8788 14.1858 13.4967 14.6529 14.6006 13.6339C14.6855 13.549 14.6006 13.464 14.6855 13.4216C14.643 13.2093 15.3224 13.0394 15.4498 12.9121C16.0866 12.1903 15.6196 12.4026 16.1291 11.6383C16.2565 11.4685 16.3414 11.3411 16.3414 11.1288C16.4263 11.0014 16.3414 11.0014 16.0017 10.7891Z" fill="currentColor"/>
<path d="M19.0164 9.21858C19.0164 9.17612 18.9739 8.96383 18.9739 8.92137H19.0164C19.0164 8.794 18.9739 8.66662 18.889 8.5817C18.8041 8.62416 18.7616 8.75154 18.7192 8.83645C18.6342 8.92137 18.5493 8.92137 18.4644 9.04875C18.4644 9.04875 18.4644 9.09121 18.4219 9.09121C18.3795 9.13367 18.337 9.09121 18.2946 9.04875C18.2521 8.96383 18.2946 8.794 18.1672 8.794C18.0823 8.794 18.0398 8.83646 17.9974 8.70908C17.9549 8.5817 17.9124 8.49678 17.87 8.41187C17.7851 8.32695 17.7001 8.24203 17.7001 8.11466C17.7001 8.0722 17.7001 7.98728 17.7001 7.94482C17.7001 7.52023 17.4878 7.30794 17.4454 7.22302C17.4454 7.18056 17.4454 7.1381 17.4454 7.09565C17.4454 6.16155 17.6152 6.58614 17.4029 5.82188C17.3605 5.69451 17.3605 5.52467 17.2331 5.43976C17.0208 5.31238 17.1482 5.3973 17.0633 5.26992C17.0208 5.22746 16.9783 5.185 16.8934 5.14254C16.8085 4.97271 16.7661 4.80287 16.6811 4.63304C16.8085 4.6755 16.9359 4.50566 16.7661 4.33583C16.6811 4.20845 16.6387 4.25091 16.5538 4.25091C16.4688 4.25091 16.4688 4.20845 16.1292 3.65649C16.2141 3.78386 16.2141 3.91124 16.2141 4.08108C16.1292 3.9537 16.0018 3.86878 15.9169 3.74141C15.8744 3.82632 15.9169 3.9537 16.0018 3.99616C15.832 4.12353 15.747 3.78386 15.7046 3.74141C15.5772 3.57157 15.3225 3.48665 15.3225 3.31682C15.5347 3.40174 15.747 3.52911 16.0018 3.65649C16.1292 3.48665 15.7895 3.31682 15.747 3.2319C15.6197 3.01961 15.6621 3.2319 15.4074 3.14698C14.728 2.84977 14.7705 2.46764 14.3459 2.59502C14.261 2.34027 14.261 2.25535 14.261 2.21289C17.1482 3.18944 19.1437 6.03418 19.0164 9.21858Z" fill="currentColor"/>
<path d="M13.666 3.40112C14.9398 2.72178 14.9398 2.46703 15.2794 2.67932L14.0057 3.44358C13.8783 3.35866 13.7509 3.35866 13.666 3.40112ZM15.5342 2.89162C15.4493 2.8067 15.4068 2.76424 15.3219 2.72178L14.0481 3.48604C14.1331 3.5285 14.218 3.57096 14.2604 3.65588C17.8694 7.90175 19.2706 14.5678 16.2135 16.903V16.9455L17.1901 16.3935C20.7566 14.2281 19.0583 7.09503 15.5342 2.89162Z" fill="currentColor" stroke="currentColor" stroke-width="0.075"/>
<path d="M14.0061 3.44297L15.3223 2.67871L14.0061 3.44297Z" fill="currentColor" stroke="currentColor" stroke-width="0.075"/>
<path d="M14.2185 3.56992C14.2185 3.61238 14.2185 3.61238 14.2185 3.56992V3.56992Z" fill="currentColor"/>
<path d="M14.2185 3.56992L15.4923 2.80566M14.2185 3.56992C14.2185 3.61238 14.2185 3.61238 14.2185 3.56992Z" stroke="currentColor" stroke-width="0.075"/>
<path d="M14.2182 3.61365C13.6662 2.93431 13.2416 3.65611 13.7936 4.33545C16.3411 7.35002 18.2517 12.9546 15.7891 15.4596C16.0863 15.8842 16.2137 16.3513 16.1713 16.8608C19.2707 14.568 17.8271 7.90199 14.2182 3.61365Z" fill="currentColor" stroke="currentColor" stroke-width="0.075"/>
<path d="M16.4929 4.04712C16.1108 3.66499 15.6862 4.25942 15.3466 4.47171C15.1343 4.59909 15.1767 4.93876 15.5164 5.10859C15.7711 5.23597 15.941 4.93876 16.4505 4.64154C16.6203 4.47171 16.6628 4.21696 16.4929 4.04712Z" fill="currentColor" stroke="currentColor" stroke-width="0.075"/>
<circle cx="20.925" cy="2.55" r="1.8" fill="currentColor"/>
</g>
<defs>
<clipPath id="clip0_5995_162368">
<rect width="24" height="24" fill="currentColor"/>
</clipPath>
</defs>
</svg>
