<svg width="24" height="24" viewBox="0 0 24 24" fill="none" xmlns="http://www.w3.org/2000/svg">
<g clip-path="url(#clip0_2457_7344)">
<g clip-path="url(#clip1_2457_7344)">
<path d="M5.41699 10.1719C4.83887 10.1719 4.37272 10.0104 4.01856 9.6875C3.65658 9.36458 3.47559 8.96354 3.47559 8.48438H4.39356C4.40137 8.72396 4.49512 8.92969 4.67481 9.10156C4.85449 9.27344 5.10189 9.35938 5.41699 9.35938C5.77116 9.35938 6.03288 9.25521 6.20215 9.04688C6.37142 8.84635 6.45606 8.58203 6.45606 8.25391C6.45606 7.94141 6.37142 7.6849 6.20215 7.48438C6.02246 7.28125 5.76335 7.17969 5.42481 7.17969C5.02897 7.17969 4.71257 7.34245 4.47559 7.66797H3.56152L3.77637 4.5H7.04981V5.32422H4.5459L4.44043 6.79688H4.47559C4.73861 6.54167 5.10059 6.41406 5.56152 6.41406C6.12142 6.41406 6.56413 6.58464 6.88965 6.92578C7.22038 7.27214 7.38574 7.70964 7.38574 8.23828C7.38574 8.82161 7.21517 9.28776 6.87402 9.63672C6.53288 9.99349 6.0472 10.1719 5.41699 10.1719ZM8.2334 10.1016V9.36719L10.1123 7.33984C10.4326 6.98568 10.6462 6.73047 10.7529 6.57422C10.8597 6.40495 10.9131 6.21745 10.9131 6.01172C10.9131 5.77214 10.8376 5.58073 10.6865 5.4375C10.5355 5.29427 10.3219 5.22266 10.0459 5.22266C9.76465 5.22266 9.54069 5.30208 9.37402 5.46094C9.20475 5.63021 9.12012 5.86719 9.12012 6.17188H8.21387C8.21387 5.63802 8.37923 5.20964 8.70996 4.88672C9.03809 4.56641 9.4834 4.40625 10.0459 4.40625C10.598 4.40625 11.0355 4.55208 11.3584 4.84375C11.6839 5.13802 11.8467 5.51693 11.8467 5.98047C11.8467 6.27995 11.7725 6.54948 11.624 6.78906C11.4652 7.05729 11.2061 7.38281 10.8467 7.76562L9.47168 9.23828V9.26953H11.9365V10.1016H8.2334ZM13.8584 10.1016L12.5225 4.58203V4.5H13.4912L14.4248 8.73438H14.4599L15.5459 4.5H16.5537L17.6591 8.73438H17.6904L18.6123 4.5H19.5771V4.58203L18.2334 10.1016H17.1396L16.0732 5.95703H16.042L14.956 10.1016H13.8584Z" fill="currentColor"/>
</g>
<path d="M8.99268 21.5888L15.6166 14.9648M15.6166 14.9648H8.99268M15.6166 14.9648V21.5888" stroke="currentColor" stroke-width="1.75" stroke-linecap="round" stroke-linejoin="round"/>
</g>
<defs>
<clipPath id="clip0_2457_7344">
<rect width="24" height="24" fill="currentColor"/>
</clipPath>
<clipPath id="clip1_2457_7344">
<rect width="17" height="7" fill="currentColor" transform="translate(3 4)"/>
</clipPath>
</defs>
</svg>
