<svg width="24" height="24" viewBox="0 0 24 24" fill="none" xmlns="http://www.w3.org/2000/svg">
<g clip-path="url(#clip0_2457_7361)">
<g clip-path="url(#clip1_2457_7361)">
<path d="M6.29638 9.19043C5.71826 9.19043 5.25211 9.02897 4.89795 8.70605C4.53597 8.38313 4.35498 7.98209 4.35498 7.50293H5.27295C5.28076 7.74251 5.37451 7.94825 5.5542 8.12011C5.73388 8.292 5.98128 8.37793 6.29638 8.37793C6.65055 8.37793 6.91227 8.27376 7.08154 8.06543C7.25081 7.8649 7.33545 7.60058 7.33545 7.27246C7.33545 6.95996 7.25081 6.70345 7.08154 6.50293C6.90185 6.2998 6.64274 6.19824 6.3042 6.19824C5.90836 6.19824 5.59196 6.361 5.35498 6.68652H4.44092L4.65576 3.51855H7.9292V4.34277H5.42529L5.31982 5.81543H5.35498C5.618 5.56022 5.97998 5.43261 6.44091 5.43261C7.00081 5.43261 7.44352 5.60319 7.76904 5.94433C8.09977 6.29069 8.26513 6.72819 8.26513 7.25683C8.26513 7.84016 8.09456 8.30631 7.75341 8.65527C7.41227 9.01204 6.92659 9.19043 6.29638 9.19043ZM9.11279 9.12011V8.38574L10.9917 6.35839C11.312 6.00423 11.5256 5.74902 11.6323 5.59277C11.7391 5.4235 11.7925 5.236 11.7925 5.03027C11.7925 4.79069 11.717 4.59928 11.5659 4.45605C11.4149 4.31282 11.2013 4.24121 10.9253 4.24121C10.644 4.24121 10.4201 4.32063 10.2534 4.47949C10.0841 4.64876 9.99951 4.88574 9.99951 5.19043H9.09326C9.09326 4.65657 9.25862 4.22819 9.58935 3.90527C9.91748 3.58496 10.3628 3.4248 10.9253 3.4248C11.4774 3.4248 11.9149 3.57064 12.2378 3.8623C12.5633 4.15657 12.7261 4.53548 12.7261 4.99902C12.7261 5.2985 12.6519 5.56803 12.5034 5.80761C12.3446 6.07584 12.0855 6.40136 11.7261 6.78417L10.3511 8.25683V8.28808H12.8159V9.12011H9.11279ZM14.7378 9.12011L13.4019 3.60059V3.51855H14.3706L15.3042 7.75293H15.3393L16.4253 3.51855H17.4331L18.5385 7.75293H18.5698L19.4917 3.51855H20.4565V3.60059L19.1128 9.12011H18.019L16.9526 4.97558H16.9214L15.8354 9.12011H14.7378Z" fill="currentColor"/>
</g>
<path d="M14.8364 13.0185L8.24453 19.6104M8.24453 19.6104L14.8364 19.6104M8.24453 19.6104L8.24453 13.0185" stroke="currentColor" stroke-width="1.75" stroke-linecap="round" stroke-linejoin="round"/>
</g>
<defs>
<clipPath id="clip0_2457_7361">
<rect width="24" height="24" fill="currentColor"/>
</clipPath>
<clipPath id="clip1_2457_7361">
<rect width="17" height="7" fill="currentColor" transform="translate(3.87939 3.01855)"/>
</clipPath>
</defs>
</svg>
