<svg width="24" height="24" viewBox="0 0 24 24" fill="none" xmlns="http://www.w3.org/2000/svg">
<g clip-path="url(#clip0_3396_60449)">
<g filter="url(#filter0_d_3396_60449)">
<g clip-path="url(#clip1_3396_60449)">
<path d="M0 12C0 5.37258 5.37258 0 12 0C18.6274 0 24 5.37258 24 12C24 18.6274 18.6274 24 12 24C5.37258 24 0 18.6274 0 12Z" fill="#ED1C24"/>
<g clip-path="url(#clip2_3396_60449)">
<path d="M17.3346 9.6389C18.4059 9.20182 19.3543 9.25038 20.5142 7.80771C20.0857 7.36205 19.6143 6.91639 18.6687 6.625H18.663L18.3602 6.94782C17.1232 8.1191 16.0062 7.87913 14.7949 8.72188C14.7949 8.72188 16.7261 8.80758 17.3346 9.64462" fill="white"/>
<path d="M13.7465 9.71484C14.6692 9.84626 15.6148 9.81483 16.8404 10.7918C19.0744 12.5773 17.8831 14.0657 20.1171 15.8512L20.5456 16.1712C20.4314 16.1512 19.2801 15.9912 18.2974 17.1482C16.6861 15.5398 17.5403 14.1429 15.4777 12.4945C14.4664 11.6889 13.6722 11.5403 12.8952 11.4632C12.8952 11.4632 12.8009 10.4947 13.7465 9.71484Z" fill="white"/>
<path d="M15.4861 14.6641C16.2975 15.9668 16.1432 17.0552 17.2888 18.2836C17.2888 18.2836 17.5402 18.555 17.5859 18.5864C17.3116 19.5377 16.6346 20.0405 16.1718 20.449C15.0519 19.3063 14.9919 18.2493 14.5605 17.1866C14.5605 17.1866 15.2747 16.8924 15.4833 14.6641" fill="white"/>
<path d="M7.01032 5.77691C8.24444 7.03104 7.98448 8.15947 8.82437 9.38217C8.82437 9.38217 8.96435 7.351 9.75568 6.86535C9.33288 5.80548 9.31574 4.7799 7.88449 3.63433L7.86735 3.61719C7.43598 4.06285 6.94461 4.62277 6.6875 5.57694C6.6875 5.57694 6.85605 5.62265 7.01317 5.77406" fill="white"/>
<path d="M7.02785 14.4365C5.95656 14.8735 4.9224 14.8735 3.76826 16.3191L3.75684 16.3362C4.19964 16.7704 4.68815 17.2075 5.63945 17.4732C5.63945 17.4732 5.77372 17.3275 5.9337 17.1675C7.18212 15.9563 8.31054 16.2134 9.52753 15.3678C9.52753 15.3678 7.30781 15.1107 7.02785 14.4336" fill="white"/>
<path d="M11.43 12.5931C11.3757 13.2616 11.3557 13.6187 10.5815 14.3386C9.64736 14.2472 8.69605 14.2358 7.4762 13.2616C5.25363 11.4847 6.4449 9.99629 4.22233 8.21938L3.67383 7.82514C3.78524 7.85085 4.95938 7.98226 5.94211 6.82812C7.67332 8.47077 6.74487 9.88488 8.83603 11.5561C9.85304 12.3674 10.6529 12.5131 11.43 12.5903" fill="white"/>
<path d="M14.4751 13.6254C14.3809 14.5738 14.3866 15.4908 13.3953 16.7307C11.6184 18.9533 10.13 17.762 8.35306 19.9846L7.99597 20.4731V20.4616C8.01882 20.3474 8.16737 19.1989 7.00466 18.2248H6.99609C8.6216 16.5421 10.0329 17.442 11.6898 15.3651C12.5068 14.3453 12.6468 13.5425 12.7239 12.7598C13.2353 12.8169 13.9552 12.7969 14.4723 13.6225" fill="white"/>
<path d="M11.598 11.2967C11.6751 10.5282 11.8237 9.73402 12.6264 8.72843C14.2862 6.65441 15.6889 7.5343 17.3144 5.87451C16.166 4.88321 16.3145 3.71764 16.3374 3.60623V3.59766L15.9831 4.08902C14.1977 6.32302 12.7093 5.13175 10.9238 7.36575C9.84392 8.71701 9.94677 9.68545 9.8125 10.731C10.021 10.8682 10.6038 11.1881 11.5923 11.2995" fill="white"/>
</g>
</g>
</g>
</g>
<defs>
<filter id="filter0_d_3396_60449" x="-6" y="-5" width="36" height="36" filterUnits="userSpaceOnUse" color-interpolation-filters="sRGB">
<feFlood flood-opacity="0" result="BackgroundImageFix"/>
<feColorMatrix in="SourceAlpha" type="matrix" values="0 0 0 0 0 0 0 0 0 0 0 0 0 0 0 0 0 0 127 0" result="hardAlpha"/>
<feOffset dy="1"/>
<feGaussianBlur stdDeviation="3"/>
<feComposite in2="hardAlpha" operator="out"/>
<feColorMatrix type="matrix" values="0 0 0 0 0 0 0 0 0 0 0 0 0 0 0 0 0 0 0.08 0"/>
<feBlend mode="normal" in2="BackgroundImageFix" result="effect1_dropShadow_3396_60449"/>
<feBlend mode="normal" in="SourceGraphic" in2="effect1_dropShadow_3396_60449" result="shape"/>
</filter>
<clipPath id="clip0_3396_60449">
<rect width="24" height="24" fill="white"/>
</clipPath>
<clipPath id="clip1_3396_60449">
<path d="M0 12C0 5.37258 5.37258 0 12 0C18.6274 0 24 5.37258 24 12C24 18.6274 18.6274 24 12 24C5.37258 24 0 18.6274 0 12Z" fill="white"/>
</clipPath>
<clipPath id="clip2_3396_60449">
<rect width="16.875" height="16.875" fill="white" transform="translate(3.6709 3.59766)"/>
</clipPath>
</defs>
</svg>
