<svg width="16" height="16" viewBox="0 0 16 16" fill="none" xmlns="http://www.w3.org/2000/svg">
<g clip-path="url(#clip0_3396_54086)">
<mask id="mask0_3396_54086" style="mask-type:luminance" maskUnits="userSpaceOnUse" x="0" y="0" width="16" height="16">
<path d="M16 0H0V16H16V0Z" fill="currentColor"/>
</mask>
<g mask="url(#mask0_3396_54086)">
<g filter="url(#filter0_d_3396_54086)">
<path d="M7.99999 15.75C12.2802 15.75 15.75 12.2802 15.75 8C15.75 3.7198 12.2802 0.25 7.99999 0.25C3.71979 0.25 0.25 3.7198 0.25 8C0.25 12.2802 3.71979 15.75 7.99999 15.75Z" fill="currentColor"/>
<mask id="mask1_3396_54086" style="mask-type:luminance" maskUnits="userSpaceOnUse" x="3" y="3" width="10" height="10">
<path d="M12.5625 3.25H3.8125V12.75H12.5625V3.25Z" fill="currentColor"/>
</mask>
<g mask="url(#mask1_3396_54086)">
<path d="M3.81445 9.95484L8.92133 7.99932L3.81445 5.98792V3.25024L12.5614 6.88192V9.11677L3.81445 12.7484V9.95484Z" fill="currentColor"/>
</g>
</g>
</g>
</g>
<defs>
<filter id="filter0_d_3396_54086" x="-5.95" y="-4.91667" width="27.9" height="27.9" filterUnits="userSpaceOnUse" color-interpolation-filters="sRGB">
<feFlood flood-opacity="0" result="BackgroundImageFix"/>
<feColorMatrix in="SourceAlpha" type="matrix" values="0 0 0 0 0 0 0 0 0 0 0 0 0 0 0 0 0 0 127 0" result="hardAlpha"/>
<feOffset dy="1.03333"/>
<feGaussianBlur stdDeviation="3.1"/>
<feComposite in2="hardAlpha" operator="out"/>
<feColorMatrix type="matrix" values="0 0 0 0 0 0 0 0 0 0 0 0 0 0 0 0 0 0 0.08 0"/>
<feBlend mode="normal" in2="BackgroundImageFix" result="effect1_dropShadow_3396_54086"/>
<feBlend mode="normal" in="SourceGraphic" in2="effect1_dropShadow_3396_54086" result="shape"/>
</filter>
<clipPath id="clip0_3396_54086">
<rect width="16" height="16" fill="currentColor"/>
</clipPath>
</defs>
</svg>
