<svg width="16" height="16" viewBox="0 0 16 16" fill="none" xmlns="http://www.w3.org/2000/svg">
<g clip-path="url(#clip0_3396_63790)">
<path d="M15.5 7.75C15.5 3.46979 12.0302 0 7.75 0C3.46979 0 0 3.46979 0 7.75C0 12.0302 3.46979 15.5 7.75 15.5C12.0302 15.5 15.5 12.0302 15.5 7.75Z" fill="url(#paint0_linear_3396_63790)"/>
<mask id="mask0_3396_63790" style="mask-type:luminance" maskUnits="userSpaceOnUse" x="2" y="5" width="12" height="5">
<path d="M13.8125 5.875H2.1875V9.62891H13.8125V5.875Z" fill="currentColor"/>
</mask>
<g mask="url(#mask0_3396_63790)">
<mask id="mask1_3396_63790" style="mask-type:luminance" maskUnits="userSpaceOnUse" x="2" y="5" width="12" height="5">
<path d="M13.1079 6.23392C13.1079 6.39747 13.2427 6.53704 13.4307 6.53704C13.6084 6.53704 13.7485 6.39747 13.7485 6.23392C13.7485 6.06979 13.6084 5.94141 13.4307 5.94141C13.2427 5.94141 13.1079 6.06979 13.1079 6.23392ZM6.77904 6.2337V6.9778C6.60161 6.90333 6.33301 6.83421 6.07434 6.83421C5.38096 6.83421 4.98269 7.21558 4.92309 7.83129C4.90711 8.01039 4.90711 8.36265 4.92309 8.53642C4.98269 9.1462 5.42331 9.55879 6.14979 9.55879C6.67141 9.55879 7.10699 9.34477 7.24721 9.25C7.33349 9.19597 7.34984 9.14109 7.34984 9.05165V6.2337C7.34984 6.085 7.22546 5.96563 7.06411 5.96563C6.90871 5.96563 6.77904 6.085 6.77904 6.2337ZM5.49284 8.47122C5.47739 8.31753 5.48241 8.02524 5.49284 7.89068C5.51514 7.5289 5.70866 7.33992 6.11734 7.33992C6.39766 7.33992 6.66639 7.4296 6.77904 7.49422V8.87313C6.67139 8.94809 6.39211 9.05165 6.16049 9.05165C5.74599 9.05165 5.52581 8.85342 5.49284 8.47122ZM10.4735 7.10679C10.3932 7.15678 10.3599 7.20655 10.3599 7.31011V9.25998C10.3599 9.40902 10.4946 9.52852 10.6457 9.52852C10.8066 9.52852 10.9309 9.40902 10.9309 9.25998V7.47961C11.0537 7.40977 11.3071 7.33992 11.5701 7.33992C11.9043 7.33992 12.1953 7.50906 12.1953 7.9061V9.25998C12.1953 9.40902 12.3292 9.52852 12.4798 9.52852C12.6471 9.52852 12.7653 9.40902 12.7653 9.25998V7.88104C12.7653 7.21083 12.3668 6.83421 11.587 6.83421C11.0222 6.83421 10.6293 6.998 10.4735 7.10679ZM8.04259 6.98243C7.89746 7.04239 7.85381 7.14159 7.85381 7.22626C7.85381 7.37995 8.01039 7.49422 8.24704 7.42449C8.39784 7.37484 8.61311 7.31546 8.83356 7.31546C9.25254 7.31546 9.43061 7.45941 9.43061 7.79671V7.96016C9.18289 7.9061 8.99941 7.87653 8.74704 7.87653C7.99416 7.87653 7.65501 8.26859 7.65501 8.69997C7.65501 9.18633 8.02044 9.55879 8.75759 9.55879C9.31731 9.55879 9.72651 9.37434 9.87741 9.28052C9.95776 9.23051 9.97914 9.1766 9.97914 9.08694V7.79671C9.97914 7.12662 9.55399 6.83421 8.86549 6.83421C8.53819 6.83421 8.19876 6.91294 8.04259 6.98243ZM8.21461 8.68062C8.21461 8.44211 8.45101 8.30767 8.77921 8.30767C9.02181 8.30767 9.19384 8.33771 9.43061 8.39188V8.94332C9.37641 8.98241 9.17799 9.09713 8.80639 9.09713C8.42461 9.09713 8.21461 8.94809 8.21461 8.68062ZM2.64774 6.98243C2.50276 7.04239 2.45898 7.14159 2.45898 7.22626C2.45898 7.37995 2.61529 7.49422 2.85221 7.42449C3.00286 7.37484 3.21854 7.31546 3.43846 7.31546C3.85849 7.31546 4.03579 7.45941 4.03579 7.79671V7.96016C3.78806 7.9061 3.60534 7.87653 3.35246 7.87653C2.62496 7.87653 2.28399 8.2427 2.26172 8.65613V8.74725C2.28477 9.20997 2.65006 9.55879 3.36289 9.55879C3.92311 9.55879 4.33141 9.37434 4.48271 9.28052C4.56319 9.23051 4.58444 9.1766 4.58444 9.08694V7.79671C4.58444 7.12662 4.15926 6.83421 3.47091 6.83421C3.14271 6.83421 2.80406 6.91294 2.64774 6.98243ZM2.82029 8.68062C2.82029 8.44211 3.05656 8.30767 3.38476 8.30767C3.62671 8.30767 3.79939 8.33771 4.03579 8.39188V8.94332C3.98221 8.98241 3.78251 9.09713 3.41144 9.09713C3.02979 9.09713 2.82029 8.94809 2.82029 8.68062ZM13.1455 7.14716V9.27054C13.1455 9.41949 13.2802 9.53908 13.4307 9.53908C13.5919 9.53908 13.7166 9.41949 13.7166 9.27054V7.14716C13.7166 6.99846 13.5869 6.87908 13.4307 6.87908C13.2692 6.87908 13.1455 6.99846 13.1455 7.14716Z" fill="currentColor"/>
</mask>
<g mask="url(#mask1_3396_63790)">
<path d="M13.1079 6.23392C13.1079 6.39747 13.2427 6.53704 13.4307 6.53704C13.6084 6.53704 13.7485 6.39747 13.7485 6.23392C13.7485 6.06979 13.6084 5.94141 13.4307 5.94141C13.2427 5.94141 13.1079 6.06979 13.1079 6.23392ZM6.77904 6.2337V6.9778C6.60161 6.90333 6.33301 6.83421 6.07434 6.83421C5.38096 6.83421 4.98269 7.21558 4.92309 7.83129C4.90711 8.01039 4.90711 8.36265 4.92309 8.53642C4.98269 9.1462 5.42331 9.55879 6.14979 9.55879C6.67141 9.55879 7.10699 9.34477 7.24721 9.25C7.33349 9.19597 7.34984 9.14109 7.34984 9.05165V6.2337C7.34984 6.085 7.22546 5.96563 7.06411 5.96563C6.90871 5.96563 6.77904 6.085 6.77904 6.2337ZM5.49284 8.47122C5.47739 8.31753 5.48241 8.02524 5.49284 7.89068C5.51514 7.5289 5.70866 7.33992 6.11734 7.33992C6.39766 7.33992 6.66639 7.4296 6.77904 7.49422V8.87313C6.67139 8.94809 6.39211 9.05165 6.16049 9.05165C5.74599 9.05165 5.52581 8.85342 5.49284 8.47122ZM10.4735 7.10679C10.3932 7.15678 10.3599 7.20655 10.3599 7.31011V9.25998C10.3599 9.40902 10.4946 9.52852 10.6457 9.52852C10.8066 9.52852 10.9309 9.40902 10.9309 9.25998V7.47961C11.0537 7.40977 11.3071 7.33992 11.5701 7.33992C11.9043 7.33992 12.1953 7.50906 12.1953 7.9061V9.25998C12.1953 9.40902 12.3292 9.52852 12.4798 9.52852C12.6471 9.52852 12.7653 9.40902 12.7653 9.25998V7.88104C12.7653 7.21083 12.3668 6.83421 11.587 6.83421C11.0222 6.83421 10.6293 6.998 10.4735 7.10679ZM8.04259 6.98243C7.89746 7.04239 7.85381 7.14159 7.85381 7.22626C7.85381 7.37995 8.01039 7.49422 8.24704 7.42449C8.39784 7.37484 8.61311 7.31546 8.83356 7.31546C9.25254 7.31546 9.43061 7.45941 9.43061 7.79671V7.96016C9.18289 7.9061 8.99941 7.87653 8.74704 7.87653C7.99416 7.87653 7.65501 8.26859 7.65501 8.69997C7.65501 9.18633 8.02044 9.55879 8.75759 9.55879C9.31731 9.55879 9.72651 9.37434 9.87741 9.28052C9.95776 9.23051 9.97914 9.1766 9.97914 9.08694V7.79671C9.97914 7.12662 9.55399 6.83421 8.86549 6.83421C8.53819 6.83421 8.19876 6.91294 8.04259 6.98243ZM8.21461 8.68062C8.21461 8.44211 8.45101 8.30767 8.77921 8.30767C9.02181 8.30767 9.19384 8.33771 9.43061 8.39188V8.94332C9.37641 8.98241 9.17799 9.09713 8.80639 9.09713C8.42461 9.09713 8.21461 8.94809 8.21461 8.68062ZM2.64774 6.98243C2.50276 7.04239 2.45898 7.14159 2.45898 7.22626C2.45898 7.37995 2.61529 7.49422 2.85221 7.42449C3.00286 7.37484 3.21854 7.31546 3.43846 7.31546C3.85849 7.31546 4.03579 7.45941 4.03579 7.79671V7.96016C3.78806 7.9061 3.60534 7.87653 3.35246 7.87653C2.62496 7.87653 2.28399 8.2427 2.26172 8.65613V8.74725C2.28477 9.20997 2.65006 9.55879 3.36289 9.55879C3.92311 9.55879 4.33141 9.37434 4.48271 9.28052C4.56319 9.23051 4.58444 9.1766 4.58444 9.08694V7.79671C4.58444 7.12662 4.15926 6.83421 3.47091 6.83421C3.14271 6.83421 2.80406 6.91294 2.64774 6.98243ZM2.82029 8.68062C2.82029 8.44211 3.05656 8.30767 3.38476 8.30767C3.62671 8.30767 3.79939 8.33771 4.03579 8.39188V8.94332C3.98221 8.98241 3.78251 9.09713 3.41144 9.09713C3.02979 9.09713 2.82029 8.94809 2.82029 8.68062ZM13.1455 7.14716V9.27054C13.1455 9.41949 13.2802 9.53908 13.4307 9.53908C13.5919 9.53908 13.7166 9.41949 13.7166 9.27054V7.14716C13.7166 6.99846 13.5869 6.87908 13.4307 6.87908C13.2692 6.87908 13.1455 6.99846 13.1455 7.14716Z" fill="currentColor"/>
</g>
</g>
</g>
<defs>
<linearGradient id="paint0_linear_3396_63790" x1="-7.26705" y1="3.90227" x2="21.8192" y2="4.77105" gradientUnits="userSpaceOnUse">
<stop stop-color="#00B16B"/>
<stop offset="0.350006" stop-color="#006DB6"/>
<stop offset="0.649994" stop-color="#8E278F"/>
<stop offset="0.899994" stop-color="#F04C23"/>
<stop offset="1" stop-color="#F04C23"/>
</linearGradient>
<clipPath id="clip0_3396_63790">
<rect width="16" height="15.5" fill="currentColor"/>
</clipPath>
</defs>
</svg>
