<svg width="24" height="24" viewBox="0 0 24 24" fill="none" xmlns="http://www.w3.org/2000/svg">
<g clip-path="url(#clip0_3396_50640)">
<mask id="mask0_3396_50640" style="mask-type:luminance" maskUnits="userSpaceOnUse" x="0" y="0" width="24" height="24">
<path d="M24 12C24 5.37258 18.6274 0 12 0C5.37258 0 0 5.37258 0 12C0 18.6274 5.37258 24 12 24C18.6274 24 24 18.6274 24 12Z" fill="currentColor"/>
</mask>
<g mask="url(#mask0_3396_50640)">
<path d="M24 12C24 5.37258 18.6274 0 12 0C5.37258 0 0 5.37258 0 12C0 18.6274 5.37258 24 12 24C18.6274 24 24 18.6274 24 12Z" fill="currentColor"/>
<mask id="mask1_3396_50640" style="mask-type:luminance" maskUnits="userSpaceOnUse" x="-1" y="-1" width="26" height="26">
<path d="M24.7742 -0.774194H-0.774194V24.7742H24.7742V-0.774194Z" fill="currentColor"/>
</mask>
<g mask="url(#mask1_3396_50640)">
<path d="M24.7742 -0.774194H-0.774194V24.7742H24.7742V-0.774194Z" fill="currentColor"/>
<path d="M32.128 15.2552L26.691 17.7608L20.7218 10.3212L27.3875 -0.543347H32.128V15.2552Z" fill="currentColor"/>
<path d="M20.7234 10.3212L11.997 -0.543347H27.3891L20.7234 10.3212Z" fill="currentColor"/>
<path d="M18.3241 14.2301L20.7137 10.3312L11.997 -0.533266V12.479H12.055C14.3576 12.4693 16.5053 13.1175 18.3241 14.2301Z" fill="currentColor"/>
<path d="M12.055 12.4693H11.997V24.5334L18.3241 14.23C16.4957 13.1174 14.3576 12.4693 12.055 12.4693Z" fill="currentColor"/>
<path d="M23.0061 19.4635L26.692 17.7608L20.7229 10.3211L18.3236 14.2296C20.3552 15.4679 21.9902 17.2867 23.0061 19.4635Z" fill="currentColor"/>
<path d="M18.3241 14.2303L11.997 24.5434L23.0066 19.4643C21.9908 17.2875 20.3558 15.4687 18.3241 14.2303Z" fill="currentColor"/>
<path d="M26.6911 17.7616L23.005 19.4643C23.721 21.0026 24.1273 22.7246 24.1273 24.5434H32.1281L26.6911 17.7616Z" fill="currentColor"/>
<path d="M11.997 24.5333H24.1192C24.1192 22.7241 23.7225 21.0021 23.0066 19.4541L11.997 24.5333Z" fill="currentColor"/>
<path d="M-8.12702 15.2552L-2.68995 17.7608L3.27923 10.3212L-3.38652 -0.543347H-8.12702V15.2552Z" fill="currentColor"/>
<path d="M3.28066 10.3212L11.9974 -0.543347H-3.38508L3.28066 10.3212Z" fill="currentColor"/>
<path d="M5.66884 14.2301L3.27923 10.3312L11.996 -0.533266V12.479H11.9379C9.64506 12.4693 7.49733 13.1175 5.66884 14.2301Z" fill="currentColor"/>
<path d="M11.9368 12.4693H11.9949V24.5334L5.67742 14.23C7.49623 13.1174 9.64396 12.4693 11.9368 12.4693Z" fill="currentColor"/>
<path d="M0.996481 19.4635L-2.68952 17.7608L3.27967 10.3211L5.66929 14.2199C3.63761 15.4679 2.00263 17.2867 0.996481 19.4635Z" fill="currentColor"/>
<path d="M5.66979 14.2303L11.9969 24.5434L0.996976 19.4643C2.00313 17.2875 3.63811 15.4687 5.66979 14.2303Z" fill="currentColor"/>
<path d="M-2.68995 17.7616L0.996046 19.4643C0.28013 21.0026 -0.126201 22.7246 -0.126201 24.5434H-8.12702L-2.68995 17.7616Z" fill="currentColor"/>
<path d="M11.9952 24.5333H-0.127016C-0.127016 22.7241 0.26964 21.0021 0.99523 19.4541L11.9952 24.5333Z" fill="currentColor"/>
</g>
</g>
</g>
<defs>
<clipPath id="clip0_3396_50640">
<rect width="23.25" height="23.25" fill="currentColor" transform="scale(1.03226)"/>
</clipPath>
</defs>
</svg>
