<svg width="24" height="24" viewBox="0 0 24 24" fill="none" xmlns="http://www.w3.org/2000/svg">
<g clip-path="url(#clip0_2275_37401)">
<path d="M11.9956 1.99902L14.0076 7.23011C14.2896 7.96334 14.4306 8.32995 14.6499 8.63833C14.8442 8.91164 15.083 9.15044 15.3563 9.34478C15.6647 9.56405 16.0313 9.70506 16.7645 9.98707L21.9956 11.999L16.7645 14.011C16.0313 14.293 15.6647 14.434 15.3563 14.6533C15.083 14.8476 14.8442 15.0864 14.6499 15.3597C14.4306 15.6681 14.2896 16.0347 14.0076 16.7679L11.9956 21.999L9.98365 16.7679C9.70164 16.0347 9.56063 15.6681 9.34136 15.3597C9.14702 15.0864 8.90823 14.8476 8.63491 14.6533C8.32654 14.434 7.95992 14.293 7.22669 14.011L1.99561 11.999L7.22669 9.98707C7.95992 9.70506 8.32653 9.56405 8.63491 9.34478C8.90822 9.15044 9.14702 8.91164 9.34136 8.63833C9.56063 8.32995 9.70164 7.96334 9.98365 7.23011L11.9956 1.99902Z" stroke="#5E6063" stroke-width="1.75" stroke-linecap="round" stroke-linejoin="round"/>
</g>
<defs>
<clipPath id="clip0_2275_37401">
<rect width="24" height="24" fill="white"/>
</clipPath>
</defs>
</svg>
