<svg width="24" height="24" viewBox="0 0 24 24" fill="none" xmlns="http://www.w3.org/2000/svg">
<g clip-path="url(#clip0_6031_2144)">
<path d="M14.9295 19.5023C14.9236 19.4727 14.9207 19.4431 14.9147 19.4106C14.9059 19.3632 14.8999 19.3159 14.897 19.2686C14.897 19.236 14.897 19.2035 14.897 19.171C14.897 19.1236 14.897 19.0763 14.9059 19.0319C14.9088 18.9994 14.9147 18.9668 14.9207 18.9343C14.9295 18.887 14.9384 18.8426 14.9532 18.7953C14.9621 18.7627 14.9709 18.7302 14.9828 18.6976C14.9976 18.6503 15.0183 18.6059 15.039 18.5616C15.0538 18.532 15.0656 18.5024 15.0804 18.4728C15.1041 18.4255 15.1336 18.3811 15.1632 18.3338C15.181 18.3072 15.1958 18.2835 15.2135 18.2569C15.2638 18.1888 15.3171 18.1237 15.3792 18.0616L15.1751 17.748C15.1751 17.748 15.1662 17.7569 15.1603 17.7628C15.11 17.8161 15.0627 17.8693 15.0212 17.9255C15.0183 17.9315 15.0153 17.9374 15.0094 17.9433C14.9917 17.967 14.9769 17.9936 14.9591 18.0202C14.9295 18.0646 14.8999 18.1119 14.8763 18.1592C14.8615 18.1888 14.8467 18.2184 14.8349 18.248C14.8142 18.2924 14.7964 18.3397 14.7787 18.3841C14.7668 18.4166 14.758 18.4492 14.7491 18.4817C14.7372 18.529 14.7254 18.5734 14.7165 18.6207C14.7106 18.6533 14.7047 18.6858 14.7017 18.7184C14.6958 18.7657 14.6958 18.813 14.6929 18.8574C14.6929 18.8899 14.6929 18.9225 14.6929 18.955C14.6929 19.0023 14.7017 19.0497 14.7106 19.097C14.7165 19.1266 14.7195 19.1591 14.7254 19.1887C14.7372 19.239 14.755 19.2893 14.7727 19.3396C14.7816 19.3632 14.7875 19.3899 14.7964 19.4135C14.826 19.4875 14.8644 19.5585 14.9088 19.6265L15.1129 19.9401C15.0686 19.8721 15.0331 19.8011 15.0005 19.7271C14.9917 19.7034 14.9828 19.6768 14.9769 19.6532C14.9591 19.6029 14.9414 19.5526 14.9295 19.5023Z" fill="currentColor" stroke="currentColor" stroke-width="0.075"/>
<path d="M17.5833 17.7984C17.5714 17.7806 17.5596 17.7658 17.5478 17.751C17.53 17.7274 17.5093 17.7067 17.4915 17.683C17.4797 17.6682 17.4649 17.6564 17.4501 17.6445C17.4324 17.6268 17.4176 17.6091 17.3998 17.5943C17.391 17.5854 17.3821 17.5765 17.3732 17.5676C17.3614 17.5558 17.3466 17.5469 17.3318 17.5381C17.3022 17.5144 17.2726 17.4907 17.2401 17.47C17.2283 17.4641 17.2194 17.4552 17.2076 17.4463C17.1957 17.4404 17.1839 17.4345 17.1721 17.4286C17.1336 17.4049 17.0922 17.3842 17.0508 17.3665C17.0301 17.3576 17.0094 17.3458 16.9857 17.3369C16.9354 17.3162 16.8851 17.3014 16.8348 17.2866C16.82 17.2836 16.8082 17.2777 16.7934 17.2718C16.7283 17.2541 16.6603 17.2422 16.5922 17.2334C16.5745 17.2334 16.5567 17.2334 16.539 17.2304C16.4887 17.2274 16.4355 17.2245 16.3852 17.2245C16.3763 17.2245 16.3674 17.2245 16.3585 17.2245C16.3171 17.2245 16.2757 17.2274 16.2343 17.2334C16.2018 17.2363 16.1692 17.2422 16.1367 17.2452C16.1248 17.2452 16.11 17.2511 16.0982 17.2541C16.0686 17.26 16.042 17.2659 16.0124 17.2718C15.9976 17.2748 15.9799 17.2777 15.9651 17.2836C15.9503 17.2866 15.9355 17.2925 15.9207 17.2984C15.9 17.3044 15.8763 17.3132 15.8556 17.3191C15.8408 17.3251 15.829 17.328 15.8142 17.331C15.7935 17.3398 15.7699 17.3487 15.7491 17.3576C15.7314 17.3635 15.7136 17.3724 15.6959 17.3813C15.69 17.3842 15.6811 17.3872 15.6752 17.3901C15.6308 17.4108 15.5894 17.4345 15.545 17.4582L14.3203 15.9229L14.5244 16.2364L15.7491 17.7718C15.7994 17.7422 15.8497 17.7185 15.9 17.6948C15.9178 17.686 15.9355 17.68 15.9533 17.6741C15.9888 17.6593 16.0243 17.6445 16.0598 17.6327C16.0805 17.6238 16.1041 17.6179 16.1248 17.612C16.1574 17.6031 16.187 17.5943 16.2195 17.5854C16.2491 17.5795 16.2757 17.5736 16.3053 17.5676C16.3497 17.5588 16.397 17.5499 16.4414 17.5469C16.4917 17.541 16.542 17.541 16.5922 17.541C16.6455 17.541 16.6958 17.541 16.7461 17.5469C16.7638 17.5469 16.7816 17.5469 16.7993 17.5499C16.8674 17.5588 16.9354 17.5706 17.0005 17.5883C17.0153 17.5913 17.0301 17.5972 17.0419 17.6031C17.0922 17.6179 17.1425 17.6357 17.1928 17.6534C17.2135 17.6623 17.2342 17.6741 17.2578 17.683C17.2993 17.7008 17.3377 17.7215 17.3791 17.7451C17.4028 17.757 17.4235 17.7718 17.4442 17.7865C17.4768 17.8073 17.5063 17.8309 17.5359 17.8546C17.5596 17.8723 17.5803 17.8901 17.604 17.9108C17.6217 17.9256 17.6395 17.9433 17.6543 17.9611C17.6868 17.9966 17.7223 18.0291 17.7519 18.0676C17.7785 18.1001 17.8022 18.1356 17.8258 18.1711L17.6217 17.8575C17.6099 17.8398 17.598 17.822 17.5833 17.8043V17.7984Z" fill="currentColor" stroke="currentColor" stroke-width="0.075"/>
<path d="M8.2027 19.4785C8.19087 19.4607 8.17903 19.443 8.1672 19.4252C8.13762 19.3868 8.10804 19.3483 8.0755 19.3128C8.06366 19.298 8.04887 19.2892 8.03704 19.2744C8.02521 19.2625 8.01633 19.2537 8.0045 19.2418C7.98971 19.227 7.97491 19.2123 7.96012 19.1975C7.90983 19.1531 7.85363 19.1117 7.79446 19.0762C7.79446 19.0762 7.79446 19.0762 7.7915 19.0762L7.99562 19.3897C8.0755 19.44 8.14353 19.4962 8.20862 19.5584C8.22045 19.5672 8.22932 19.5791 8.24116 19.5909C8.30328 19.656 8.36244 19.7211 8.40978 19.795L8.20566 19.4815L8.2027 19.4785Z" fill="currentColor" stroke="currentColor" stroke-width="0.075"/>
<path d="M18.707 11.7598C18.7396 11.9491 18.8076 12.1207 18.9082 12.2715L19.1123 12.5851C19.0147 12.4342 18.9437 12.2597 18.9112 12.0733L18.707 11.7598Z" fill="currentColor" stroke="currentColor" stroke-width="0.075"/>
<path d="M19.3936 10.6837C19.3936 10.6837 19.4202 10.66 19.435 10.6452C19.4942 10.589 19.5592 10.5358 19.6273 10.4884C19.6332 10.4855 19.6362 10.4825 19.6421 10.4795C19.716 10.4293 19.7959 10.3819 19.8787 10.3435C19.8787 10.3435 19.8817 10.3435 19.8846 10.3435C19.9675 10.305 20.0503 10.2725 20.1391 10.2488C20.145 10.2488 20.1509 10.2458 20.1568 10.2429C20.2485 10.2163 20.3432 10.1985 20.4408 10.1896C20.497 10.1837 20.5503 10.1837 20.6035 10.1837C20.6479 10.1837 20.6893 10.1837 20.7307 10.1896C20.7603 10.1896 20.7928 10.1956 20.8224 10.1985C20.8638 10.2044 20.9052 10.2133 20.9467 10.2222C20.9762 10.2281 21.0029 10.234 21.0324 10.2429C21.0739 10.2547 21.1153 10.2695 21.1567 10.2843C21.1804 10.2932 21.207 10.302 21.2306 10.3109C21.275 10.3316 21.3194 10.3553 21.3638 10.379C21.3786 10.3878 21.3963 10.3967 21.4111 10.4056C21.4673 10.4411 21.5235 10.4825 21.5738 10.5239C21.6182 10.5624 21.6626 10.6038 21.701 10.6482C21.7099 10.657 21.7158 10.6689 21.7247 10.6777C21.7602 10.7192 21.7927 10.7606 21.8223 10.805L21.6182 10.4914C21.6063 10.4736 21.5945 10.4559 21.5827 10.4381C21.5649 10.4115 21.5442 10.3878 21.5235 10.3642C21.5146 10.3553 21.5058 10.3435 21.4969 10.3346C21.4969 10.3316 21.491 10.3287 21.488 10.3257C21.4525 10.2843 21.4111 10.2458 21.3697 10.2103C21.3194 10.166 21.2661 10.1275 21.207 10.092C21.207 10.092 21.207 10.092 21.2011 10.0891C21.1863 10.0802 21.1715 10.0743 21.1567 10.0654C21.1153 10.0417 21.0709 10.0151 21.0236 9.99735C20.9999 9.98552 20.9762 9.9796 20.9496 9.97073C20.9082 9.95593 20.8697 9.94114 20.8254 9.92635C20.7987 9.91748 20.7692 9.91156 20.7396 9.90564C20.6982 9.89677 20.6568 9.88789 20.6153 9.88198C20.5858 9.87902 20.5532 9.87606 20.5236 9.8731C20.4822 9.87015 20.4378 9.86719 20.3964 9.86719C20.3816 9.86719 20.3668 9.86719 20.3521 9.86719C20.3136 9.86719 20.2722 9.87015 20.2337 9.87606C20.1982 9.87902 20.1657 9.88494 20.1302 9.89085C20.071 9.89973 20.0148 9.91452 19.9586 9.92931C19.9556 9.92931 19.9527 9.92931 19.9497 9.92931C19.9438 9.92931 19.9379 9.93227 19.932 9.93523C19.8906 9.94706 19.8491 9.95889 19.8077 9.97664C19.7634 9.99439 19.719 10.0121 19.6776 10.0328C19.6776 10.0328 19.6746 10.0328 19.6717 10.0328C19.6273 10.0536 19.5829 10.0772 19.5415 10.1009C19.506 10.1216 19.4735 10.1423 19.438 10.166C19.432 10.1689 19.4291 10.1719 19.4232 10.1748C19.4202 10.1748 19.4172 10.1778 19.4143 10.1808C19.3699 10.2103 19.3285 10.2429 19.2871 10.2784C19.2664 10.2961 19.2486 10.3139 19.2309 10.3316C19.2161 10.3435 19.2043 10.3553 19.1895 10.3701C19.1776 10.3819 19.1658 10.3908 19.154 10.4026C19.1096 10.447 19.0711 10.4943 19.0327 10.5446C19.0268 10.5535 19.0208 10.5594 19.0149 10.5653C19.0149 10.5653 19.0149 10.5653 19.012 10.5683C18.9617 10.6334 18.9203 10.7044 18.8818 10.7754C18.87 10.7961 18.8611 10.8168 18.8493 10.8375C18.8226 10.8937 18.796 10.9499 18.7753 11.0091C18.7664 11.0327 18.7576 11.0534 18.7516 11.0771C18.728 11.157 18.7073 11.2369 18.6954 11.3197L16.2549 11.5682L16.459 11.8818L18.8996 11.6333C18.9114 11.5504 18.9321 11.4676 18.9558 11.3877C18.9617 11.3641 18.9706 11.3404 18.9794 11.3197C19.0001 11.2605 19.0238 11.2043 19.0534 11.1481C19.0652 11.1274 19.0741 11.1067 19.0859 11.086C19.1244 11.012 19.1688 10.941 19.219 10.8759C19.225 10.8671 19.2309 10.8612 19.2368 10.8552C19.2841 10.7931 19.3374 10.7369 19.3906 10.6837H19.3936Z" fill="currentColor" stroke="currentColor" stroke-width="0.075"/>
<path d="M7.38292 18.9013C7.29713 18.8776 7.21134 18.8658 7.12555 18.8569C7.09893 18.8569 7.0723 18.8569 7.04568 18.854C7.01018 18.854 6.97172 18.8481 6.93622 18.851C6.89481 18.851 6.85635 18.854 6.81494 18.8599C6.7824 18.8628 6.74986 18.8688 6.71731 18.8717C6.69661 18.8747 6.6759 18.8806 6.65223 18.8865C6.62857 18.8924 6.6049 18.8954 6.57828 18.9013C6.56644 18.9043 6.55461 18.9072 6.54278 18.9102C6.50728 18.9191 6.47178 18.9309 6.43924 18.9427C6.42741 18.9457 6.41557 18.9516 6.40374 18.9546C6.40078 18.9546 6.39782 18.9546 6.39487 18.9575C6.34753 18.9753 6.3002 18.996 6.25583 19.0167C6.24991 19.0196 6.24104 19.0256 6.23512 19.0285C6.22033 19.0344 6.2085 19.0433 6.19371 19.0492C6.17004 19.0611 6.14637 19.0729 6.12271 19.0847C6.102 19.0965 6.08425 19.1113 6.06354 19.1232C6.04875 19.132 6.03396 19.1409 6.02213 19.1498C6.01325 19.1557 6.00438 19.1616 5.9955 19.1675C5.95113 19.1971 5.90971 19.2297 5.87126 19.2652C5.86534 19.2681 5.86238 19.274 5.85647 19.277C5.81801 19.3095 5.77955 19.345 5.74405 19.3835C5.73814 19.3894 5.73518 19.3953 5.72926 19.3983C5.7056 19.4249 5.68489 19.4515 5.66122 19.4782C5.64347 19.5018 5.62276 19.5225 5.60501 19.5462C5.60206 19.5521 5.5991 19.558 5.59318 19.564C5.54585 19.629 5.50148 19.6971 5.46006 19.771C5.1879 20.2769 5.22044 20.836 5.4926 21.2531L5.69672 21.5667C5.42456 21.1496 5.39202 20.5905 5.66418 20.0846C5.70264 20.0106 5.74701 19.9426 5.79434 19.8775C5.81505 19.8479 5.83872 19.8213 5.86238 19.7947C5.88605 19.7681 5.90676 19.7414 5.93042 19.7148C5.97184 19.6734 6.01325 19.632 6.05763 19.5935C6.06354 19.5906 6.0665 19.5847 6.07242 19.5817C6.12271 19.5403 6.173 19.5018 6.22625 19.4663C6.24104 19.4575 6.25583 19.4486 6.26766 19.4397C6.30908 19.4131 6.35345 19.3894 6.39782 19.3657C6.41262 19.3598 6.42445 19.351 6.43924 19.345C6.49545 19.3184 6.55165 19.2918 6.61082 19.2711C6.62265 19.2652 6.63448 19.2622 6.64632 19.2593C6.69365 19.2445 6.74098 19.2297 6.78831 19.2178C6.81198 19.2119 6.83564 19.206 6.86227 19.203C6.91552 19.1912 6.96876 19.1823 7.02201 19.1764C7.09893 19.1675 7.17584 19.1705 7.25276 19.1735C7.27938 19.1735 7.30601 19.1735 7.33263 19.1764C7.41842 19.1853 7.50717 19.1971 7.59 19.2208L8.723 17.0968L8.51888 16.7832L7.38588 18.9072L7.38292 18.9013Z" fill="currentColor" stroke="currentColor" stroke-width="0.075"/>
<path d="M14.4443 8.46515C14.5005 8.50065 14.5567 8.53911 14.61 8.57757C14.6425 8.60123 14.678 8.6249 14.7105 8.64856C14.7697 8.69294 14.8289 8.74027 14.8851 8.7876C14.9087 8.80831 14.9324 8.82606 14.9561 8.84677C15.0774 8.95326 15.1927 9.06568 15.3022 9.18401C15.3199 9.20176 15.3377 9.22246 15.3554 9.24021C15.4471 9.34375 15.5359 9.45025 15.6187 9.56266C15.6661 9.62774 15.7134 9.69282 15.7578 9.76086L15.5536 9.44729C15.5152 9.38812 15.4738 9.32896 15.4324 9.27275C15.4264 9.26388 15.4176 9.25796 15.4116 9.24909C15.3288 9.13667 15.243 9.03018 15.1484 8.92664C15.1424 8.91776 15.1365 8.90889 15.1277 8.90297C15.1188 8.89114 15.104 8.88227 15.0951 8.87043C14.9857 8.7521 14.8703 8.63969 14.749 8.53319C14.749 8.53319 14.7431 8.52728 14.7401 8.52432C14.7194 8.50657 14.6958 8.48882 14.675 8.47107C14.6188 8.42374 14.5597 8.37641 14.5005 8.33203C14.468 8.30837 14.4325 8.2847 14.3999 8.26103C14.3467 8.22258 14.2905 8.18412 14.2343 8.14862C14.2195 8.13975 14.2076 8.12791 14.1929 8.11904C14.1781 8.11016 14.1633 8.10425 14.1485 8.09537C14.0213 8.01846 13.8941 7.9445 13.758 7.87942L13.3498 7.71376C13.1959 7.65755 13.0391 7.60726 12.8794 7.56585C12.8261 7.55106 12.7699 7.54218 12.7167 7.53035C12.6072 7.50668 12.4978 7.48006 12.3854 7.46527C12.3203 7.45639 12.2522 7.45048 12.1842 7.4416C12.0807 7.42977 11.9771 7.41793 11.8706 7.41202C11.7967 7.40906 11.7227 7.41202 11.6488 7.40906C11.5748 7.40906 11.5008 7.40314 11.4269 7.4061C11.3707 7.4061 11.3174 7.40906 11.2612 7.41498L11.4653 7.72855C11.5955 7.71968 11.7227 7.72263 11.8529 7.72559C11.9268 7.72559 12.0008 7.72559 12.0747 7.72855C12.1812 7.73447 12.2818 7.7463 12.3854 7.75813C12.4534 7.76701 12.5214 7.76997 12.5865 7.7818C12.6989 7.79955 12.8084 7.82321 12.9178 7.84688C12.9711 7.85871 13.0273 7.86759 13.0776 7.88238C13.2373 7.92379 13.3941 7.97408 13.548 8.03029L13.9562 8.19595C14.0893 8.26103 14.2195 8.33499 14.3467 8.4119C14.3763 8.42965 14.4058 8.4474 14.4325 8.46515H14.4443Z" fill="currentColor" stroke="currentColor" stroke-width="0.075"/>
<path d="M6.4098 10.8643C6.1761 11.4204 6.04298 12.0091 6.01636 12.6215L6.02227 12.8936L6.03115 13.0593C6.07848 13.8669 6.32993 14.6005 6.73817 15.2218L6.94229 15.5353C6.53405 14.9141 6.2826 14.1804 6.23527 13.3728L6.22639 13.2072L6.22048 12.935C6.2471 12.3227 6.38318 11.734 6.61392 11.1778L6.4098 10.8643Z" fill="currentColor" stroke="currentColor" stroke-width="0.075"/>
<path d="M9.40945 8.26954C9.40945 8.26954 9.41537 8.26954 9.41537 8.26658C9.54553 8.20446 9.67569 8.15121 9.81177 8.09796C9.84727 8.08317 9.87981 8.07134 9.91531 8.0595C10.0603 8.00626 10.2052 7.95892 10.3561 7.91751C10.362 7.91751 10.365 7.91751 10.3709 7.91455C10.5395 7.87018 10.7081 7.83172 10.8827 7.80214C10.93 7.79326 10.9744 7.78439 11.0187 7.77847L10.9625 5.14268L10.7584 4.8291L10.8146 7.4649C10.785 7.46786 10.7584 7.47377 10.7288 7.47969C10.7111 7.47969 10.6933 7.48856 10.6756 7.49152C10.504 7.5211 10.3324 7.5566 10.1638 7.60393C10.1608 7.60393 10.1579 7.60393 10.152 7.60393C10.152 7.60393 10.152 7.60393 10.149 7.60393C10.0011 7.64535 9.85319 7.69268 9.70823 7.74593C9.69048 7.75185 9.67274 7.75776 9.65499 7.76368C9.63724 7.7696 9.61949 7.77847 9.6047 7.78439C9.47157 7.83468 9.33845 7.89088 9.20829 7.95301C9.20829 7.95301 9.20533 7.95301 9.20237 7.95301C9.07221 8.01513 8.94501 8.08317 8.82076 8.15417C8.80597 8.16304 8.78822 8.16896 8.77343 8.17783C8.75568 8.18671 8.74089 8.19854 8.72314 8.21037C8.60481 8.28137 8.4924 8.35237 8.37998 8.42928C8.37111 8.4352 8.36519 8.43816 8.35632 8.44408C8.3504 8.44703 8.34744 8.44999 8.34153 8.45591L8.23799 8.53578C8.19065 8.57128 8.14628 8.60382 8.10191 8.63932L7.97174 8.74582C7.97174 8.74582 7.96879 8.74878 7.96583 8.75173C7.9392 8.7754 7.91258 8.80202 7.88596 8.82569C7.77058 8.92627 7.65817 9.02685 7.55463 9.1363C7.55167 9.13926 7.54576 9.14518 7.5428 9.14814C7.4363 9.26055 7.33276 9.37592 7.23514 9.49425C7.21148 9.52384 7.18781 9.55342 7.16414 9.583C7.13752 9.6185 7.10794 9.65104 7.08131 9.68654C7.03398 9.74866 6.99257 9.8167 6.94523 9.88178C6.91565 9.92616 6.88311 9.97053 6.85353 10.0149C6.76182 10.1569 6.67603 10.3019 6.59616 10.4498L5.03125 9.88474L5.23537 10.1983L6.80028 10.7633C6.87719 10.6154 6.96594 10.4705 7.05765 10.3285C7.08723 10.2841 7.11977 10.2397 7.14935 10.1954C7.22035 10.0948 7.29135 9.9942 7.36826 9.89657C7.39193 9.86699 7.41559 9.83741 7.43926 9.80783C7.53984 9.68358 7.64634 9.56525 7.75875 9.44988C7.86525 9.34042 7.97766 9.23984 8.09007 9.13926C8.11966 9.11264 8.14628 9.08602 8.17586 9.05939L8.30603 8.95289C8.3504 8.9174 8.39477 8.88485 8.44211 8.84936L8.54564 8.76948C8.54564 8.76948 8.57227 8.75173 8.5841 8.74286C8.69651 8.66594 8.81189 8.59199 8.92726 8.52395C8.9598 8.5062 8.99234 8.48549 9.02192 8.46774C9.14617 8.39674 9.27337 8.3287 9.40353 8.26658L9.40945 8.26954Z" fill="currentColor" stroke="currentColor" stroke-width="0.075"/>
<path d="M4.14367 8.40242C4.22946 8.41721 4.31821 8.43792 4.40104 8.4675C4.48979 8.50004 4.57262 8.54146 4.64953 8.58879C4.68207 8.6095 4.71166 8.6302 4.7442 8.65091C4.76786 8.66866 4.79449 8.68641 4.81815 8.70416C4.86549 8.74262 4.90986 8.78403 4.95127 8.82841L4.95719 8.83432C5.00452 8.88757 5.0489 8.94378 5.08735 9.00294L4.88324 8.68937C4.8714 8.67162 4.85957 8.65387 4.84774 8.63612C4.81815 8.59766 4.78857 8.5592 4.75603 8.52371C4.75603 8.52371 4.75011 8.52075 4.75011 8.51779C4.71462 8.48229 4.67912 8.44383 4.64066 8.41129C4.63178 8.40538 4.62291 8.39946 4.61699 8.39354C4.59333 8.37284 4.5667 8.35804 4.54304 8.3403C4.51937 8.3255 4.49866 8.3048 4.475 8.29001C4.46612 8.28409 4.45725 8.28113 4.44837 8.27817C4.37146 8.23084 4.28863 8.18942 4.19988 8.15688C4.11409 8.1273 4.0283 8.10659 3.94251 8.0918C3.92476 8.0918 3.90997 8.08589 3.89222 8.08293C3.80939 8.07109 3.7236 8.06518 3.64077 8.06814C3.63486 8.06814 3.62894 8.06814 3.62302 8.06814C3.58161 8.06814 3.54315 8.07109 3.50174 8.07701C3.46919 8.07997 3.43665 8.08589 3.40411 8.08884C3.37749 8.0918 3.35382 8.10068 3.3272 8.10659C3.30649 8.11251 3.28283 8.11547 3.26212 8.12139C3.25028 8.12139 3.24141 8.12434 3.22958 8.1273C3.17929 8.14209 3.12604 8.15688 3.07575 8.17759C3.07575 8.17759 3.06983 8.17759 3.06687 8.18055C3.0225 8.1983 2.98108 8.21605 2.93671 8.23676C2.92192 8.24267 2.90713 8.25155 2.89234 8.26042C2.87755 8.2693 2.86275 8.27521 2.84796 8.28409C2.83317 8.29296 2.81838 8.29888 2.80359 8.30775C2.76513 8.33142 2.72668 8.35509 2.68822 8.38171C2.68526 8.38171 2.6823 8.38467 2.67934 8.38763C2.63497 8.41721 2.59355 8.44975 2.55214 8.48525C2.54326 8.49117 2.53439 8.50004 2.52847 8.50892C2.51072 8.52371 2.49593 8.5385 2.48114 8.55329C2.46339 8.57104 2.44268 8.58583 2.42493 8.60654C2.4131 8.61837 2.40127 8.63612 2.38944 8.64795C2.36577 8.67458 2.34506 8.69824 2.3214 8.72487C2.30956 8.73966 2.29477 8.75445 2.28294 8.76924C2.27406 8.77812 2.27111 8.78995 2.26223 8.80178C2.20307 8.88461 2.14686 8.97336 2.10249 9.06802C1.87174 9.55909 1.91907 10.0827 2.17644 10.4761L2.38056 10.7897C2.12319 10.3963 2.07586 9.87267 2.3066 9.3816C2.35098 9.28693 2.40719 9.19819 2.46635 9.11535C2.4841 9.08873 2.50185 9.06506 2.52256 9.03844C2.54326 9.01182 2.56693 8.98519 2.5906 8.96153C2.62018 8.92899 2.64976 8.89644 2.6823 8.86686C2.69709 8.85207 2.71484 8.83728 2.72963 8.82249C2.77992 8.77812 2.83021 8.7367 2.88346 8.7012C2.88642 8.7012 2.88938 8.69824 2.89234 8.69528C2.94263 8.65979 2.99883 8.62724 3.05208 8.59766C3.06687 8.58879 3.08166 8.58287 3.09646 8.574C3.15266 8.54441 3.20887 8.51779 3.26803 8.49708C3.27099 8.49708 3.27395 8.49708 3.27691 8.49412C3.33903 8.47046 3.40115 8.45271 3.46328 8.43792C3.48399 8.432 3.50765 8.42904 3.52836 8.42313C3.58457 8.41129 3.64373 8.39946 3.7029 8.39354C3.75023 8.38763 3.7946 8.38763 3.84193 8.38763C3.92476 8.38763 4.01055 8.39059 4.09338 8.40242C4.11113 8.40242 4.12592 8.40833 4.14367 8.41129V8.40242Z" fill="currentColor" stroke="currentColor" stroke-width="0.075"/>
<path d="M11.424 2.1193C11.4566 2.1193 11.4862 2.12521 11.5187 2.12817C11.5601 2.13409 11.6015 2.14296 11.643 2.15184C11.6725 2.15775 11.6992 2.16367 11.7287 2.17254C11.7702 2.18438 11.8116 2.19917 11.853 2.21692C11.8767 2.22579 11.9033 2.23467 11.9269 2.24354C11.9713 2.26425 12.0157 2.28791 12.0601 2.31158C12.0749 2.32046 12.0926 2.32933 12.1104 2.33821C12.1666 2.3737 12.2228 2.41512 12.2731 2.45653C12.3174 2.49499 12.3618 2.53937 12.4003 2.58374C12.4091 2.59261 12.4151 2.60445 12.4239 2.61332C12.4594 2.65474 12.492 2.69615 12.5216 2.74053L12.3174 2.42695C12.3056 2.4092 12.2938 2.39145 12.2819 2.3737C12.2642 2.34708 12.2405 2.32341 12.2198 2.29975C12.2109 2.29087 12.205 2.27904 12.1961 2.27017C12.1961 2.27017 12.1902 2.26425 12.1873 2.26129C12.1488 2.21988 12.1104 2.18142 12.0689 2.14592C12.0187 2.10155 11.9624 2.06309 11.9062 2.02759C11.9062 2.02759 11.9062 2.02759 11.9033 2.02463C11.8885 2.01576 11.8737 2.00984 11.8589 2.00097C11.8145 1.9773 11.7731 1.95068 11.7258 1.92997C11.7021 1.91813 11.6785 1.91222 11.6518 1.90334C11.6104 1.88855 11.572 1.87376 11.5276 1.85897C11.501 1.85009 11.4714 1.84714 11.4418 1.83826C11.4004 1.82939 11.359 1.82051 11.3175 1.8146C11.288 1.81164 11.2554 1.80868 11.2258 1.80572C11.1844 1.80276 11.1401 1.7998 11.0986 1.7998C11.0838 1.7998 11.0691 1.7998 11.0543 1.7998C11.0128 1.7998 10.9714 1.80276 10.93 1.80868C10.8975 1.81164 10.8649 1.81755 10.8324 1.82051C10.7732 1.82939 10.7141 1.84418 10.6579 1.85897C10.646 1.86193 10.6372 1.86489 10.6253 1.86784C10.6135 1.8708 10.6046 1.87376 10.5928 1.87968C10.5632 1.88855 10.5336 1.89743 10.507 1.9063C10.4597 1.92405 10.4123 1.94476 10.368 1.96547C10.3561 1.97138 10.3443 1.9773 10.3325 1.98617C10.3236 1.99209 10.3117 1.99505 10.3029 2.00097C10.2822 2.0128 10.2585 2.02167 10.2378 2.03646C10.1934 2.06309 10.152 2.08971 10.1106 2.1193C10.0958 2.12817 10.084 2.14 10.0692 2.15184C10.0573 2.16071 10.0485 2.16959 10.0366 2.1755C10.0189 2.19029 10.0011 2.20213 9.98338 2.21692C9.93901 2.25537 9.89463 2.29679 9.85322 2.33821C9.8473 2.34412 9.84138 2.35004 9.83843 2.35595C9.82363 2.37075 9.8118 2.38554 9.79997 2.40033C9.77039 2.43583 9.73785 2.46837 9.71122 2.50387C9.69643 2.52457 9.6846 2.54528 9.67276 2.56599C9.65206 2.59557 9.63135 2.62811 9.6136 2.66065C9.58402 2.71094 9.55739 2.76419 9.53077 2.8204C9.51598 2.85294 9.50119 2.88548 9.48639 2.92098C9.46273 2.98014 9.44794 3.04227 9.43315 3.10735C9.42723 3.13693 9.4154 3.16651 9.40948 3.1961C9.39173 3.29076 9.38286 3.38542 9.38581 3.48305C9.39173 3.75225 9.4716 3.99778 9.60473 4.2019L9.80884 4.51547C9.67572 4.31135 9.59585 4.06582 9.58993 3.79662C9.58993 3.699 9.59881 3.60433 9.6136 3.50967C9.61952 3.48009 9.62839 3.4505 9.63727 3.42092C9.65206 3.3588 9.66981 3.29668 9.69051 3.23455C9.70235 3.20201 9.71714 3.16947 9.73489 3.13397C9.75855 3.08072 9.78518 3.02748 9.81772 2.97423C9.83547 2.94169 9.85618 2.9121 9.87688 2.87956C9.91534 2.82336 9.95971 2.76715 10.0041 2.7139C10.0159 2.69911 10.0278 2.68432 10.0425 2.66953C10.1047 2.60445 10.1727 2.54232 10.2437 2.48612C10.2555 2.47724 10.2644 2.46837 10.2762 2.46245C10.3502 2.4092 10.4271 2.35891 10.5099 2.31454C10.5188 2.30862 10.5307 2.30271 10.5395 2.29975C10.6224 2.25833 10.7111 2.22283 10.7999 2.19325C10.8117 2.19029 10.8206 2.18733 10.8324 2.18142C10.93 2.15184 11.0306 2.13113 11.1371 2.1193C11.1933 2.11338 11.2495 2.11338 11.3028 2.11338C11.3471 2.11338 11.3885 2.11338 11.43 2.1193H11.424Z" fill="currentColor" stroke="currentColor" stroke-width="0.075"/>
<path d="M11.1311 2.12249C12.0008 2.03079 12.7226 2.63427 12.7403 3.46554C12.7551 4.22285 12.1812 4.90916 11.421 5.09553L11.4772 7.73132C12.2197 7.68399 12.9267 7.79345 13.5598 8.03011L13.968 8.19577C15.3732 8.88208 16.3524 10.231 16.4648 11.8877L18.9053 11.6392C19.0029 10.8996 19.6478 10.2695 20.4406 10.1896C21.3104 10.1009 22.0292 10.7014 22.044 11.5386C22.0588 12.3699 21.3666 13.1183 20.4969 13.207C19.7011 13.2869 19.0384 12.7929 18.9172 12.074L16.4796 12.3255C16.4648 12.9467 16.3287 13.5561 16.092 14.1211L15.9027 14.5382C15.5595 15.1802 15.0892 15.76 14.5242 16.2392L15.7489 17.7746C15.9678 17.6474 16.2044 17.5734 16.4411 17.5468C16.944 17.4935 17.441 17.671 17.7546 18.0645C18.2604 18.6975 18.1007 19.656 17.3907 20.2033C17.1215 20.4104 16.8138 20.5287 16.5062 20.5612C16.0033 20.6145 15.5063 20.437 15.1898 20.0435C14.7283 19.4637 14.8259 18.6206 15.3791 18.0615L14.1514 16.5262C13.4355 17.035 12.5954 17.39 11.6842 17.5261L11.2287 17.5793C10.4773 17.6207 9.7673 17.5083 9.12832 17.2687L7.99827 19.3898C8.61655 19.7773 8.82362 20.576 8.44793 21.2771C8.16985 21.8007 7.64033 22.135 7.09009 22.1912C6.82977 22.2178 6.56352 22.1853 6.31799 22.0788C5.54885 21.7504 5.25894 20.86 5.67013 20.0879C5.94821 19.5673 6.47478 19.233 7.02501 19.1768C7.21434 19.1561 7.40958 19.1709 7.59595 19.2182L8.72896 17.0942C7.31196 16.4079 6.33574 15.0441 6.24108 13.3757L6.2322 13.21L6.22628 12.9378C6.25291 12.3255 6.38899 11.7368 6.61973 11.1806L5.05482 10.6156C4.76491 11.0653 4.2768 11.3552 3.76798 11.4084C3.53428 11.4321 3.29762 11.4084 3.06984 11.3256C2.28294 11.0416 1.93979 10.1719 2.30957 9.38202C2.57285 8.81996 3.12604 8.45314 3.70586 8.39101C3.93956 8.36735 4.17918 8.39101 4.40401 8.47384C5.1199 8.73417 5.46602 9.47669 5.24415 10.2015L6.80906 10.7665C7.1463 10.1216 7.61666 9.53881 8.18168 9.06253L8.31185 8.95604C8.35622 8.92054 8.40059 8.888 8.44793 8.8525L8.55146 8.77263C9.27032 8.26381 10.1105 7.91473 11.0186 7.77866L10.9624 5.14286C10.1962 5.11919 9.59868 4.55417 9.58093 3.79686C9.56318 2.96559 10.2554 2.2142 11.1281 2.12249H11.1311Z" fill="currentColor" stroke="currentColor" stroke-width="0.075"/>
<path d="M10.0346 14.6205L9.96655 14.517L9.73877 13.8721L9.80681 13.9756L10.0346 14.6205Z" fill="currentColor" stroke="currentColor" stroke-width="0.075"/>
<path d="M7.36638 14.9019L7.29834 14.7954V14.748L7.36638 14.8516V14.9019Z" fill="currentColor" stroke="currentColor" stroke-width="0.075"/>
<path d="M8.65031 13.4013L8.58228 13.2978L9.49637 13.2031L9.56737 13.3067L8.65031 13.4013Z" fill="currentColor" stroke="currentColor" stroke-width="0.075"/>
<path d="M9.56729 13.3067L9.4963 13.2032L9.02002 11.8838L9.08806 11.9873L9.56729 13.3067Z" fill="currentColor" stroke="currentColor" stroke-width="0.075"/>
<path d="M9.60878 11.1416L10.9459 14.4726V14.5229L10.0348 14.6175L9.80698 13.9726L8.44027 14.1176L8.23911 14.8069L7.36938 14.8986V14.8483L8.5586 11.2511L9.61173 11.1416H9.60878ZM8.6503 13.4017L9.56736 13.3041L9.09108 11.9877H9.07037L8.6503 13.4017Z" fill="currentColor" stroke="currentColor" stroke-width="0.075"/>
<path d="M7.36638 14.8512L7.29834 14.7476L8.48755 11.1504L8.55559 11.2539L7.36638 14.8512Z" fill="currentColor" stroke="currentColor" stroke-width="0.075"/>
<path d="M8.55534 11.254L8.4873 11.1505L9.54044 11.0381L9.60848 11.1416L8.55534 11.254Z" fill="currentColor" stroke="currentColor" stroke-width="0.075"/>
<path d="M12.1198 10.8779L12.1938 14.3923L11.3625 14.4811L11.2886 10.9667L12.1198 10.8779Z" fill="currentColor" stroke="currentColor" stroke-width="0.075"/>
<path d="M11.3625 14.4812L11.2944 14.3747L11.2205 10.8604L11.2885 10.9668L11.3625 14.4812Z" fill="currentColor" stroke="currentColor" stroke-width="0.075"/>
<path d="M11.2885 10.9667L11.2205 10.8602L12.0517 10.7744L12.1198 10.878L11.2885 10.9667Z" fill="currentColor" stroke="currentColor" stroke-width="0.075"/>
<path d="M13.7089 12.1648L13.6409 12.0612L15.2768 11.8896L15.3448 11.9932L13.7089 12.1648Z" fill="currentColor" stroke="currentColor" stroke-width="0.075"/>
<path d="M15.4777 10.5264L15.4925 11.2304L13.6939 11.4198L13.7087 12.1652L15.3446 11.9937L15.3594 12.6977L13.7235 12.8693L13.7501 14.2301L12.9277 14.3159L12.8538 10.8015L15.4777 10.5264Z" fill="currentColor" stroke="currentColor" stroke-width="0.075"/>
<path d="M12.9276 14.3162L12.8596 14.2126L12.7856 10.6982L12.8537 10.8018L12.9276 14.3162Z" fill="currentColor" stroke="currentColor" stroke-width="0.075"/>
<path d="M12.8537 10.8015L12.7856 10.698L15.4096 10.4229L15.4776 10.5264L12.8537 10.8015Z" fill="currentColor" stroke="currentColor" stroke-width="0.075"/>
<path d="M14.9295 19.5023C14.9236 19.4727 14.9207 19.4431 14.9147 19.4106C14.9059 19.3632 14.8999 19.3159 14.897 19.2686C14.897 19.236 14.897 19.2035 14.897 19.171C14.897 19.1236 14.897 19.0763 14.9059 19.0319C14.9088 18.9994 14.9147 18.9668 14.9207 18.9343C14.9295 18.887 14.9384 18.8426 14.9532 18.7953C14.9621 18.7627 14.9709 18.7302 14.9828 18.6976C14.9976 18.6503 15.0183 18.6059 15.039 18.5616C15.0538 18.532 15.0656 18.5024 15.0804 18.4728C15.1041 18.4255 15.1336 18.3811 15.1632 18.3338C15.181 18.3072 15.1958 18.2835 15.2135 18.2569C15.2638 18.1888 15.3171 18.1237 15.3792 18.0616L15.1751 17.748C15.1751 17.748 15.1662 17.7569 15.1603 17.7628C15.11 17.8161 15.0627 17.8693 15.0212 17.9255C15.0183 17.9315 15.0153 17.9374 15.0094 17.9433C14.9917 17.967 14.9769 17.9936 14.9591 18.0202C14.9295 18.0646 14.8999 18.1119 14.8763 18.1592C14.8615 18.1888 14.8467 18.2184 14.8349 18.248C14.8142 18.2924 14.7964 18.3397 14.7787 18.3841C14.7668 18.4166 14.758 18.4492 14.7491 18.4817C14.7372 18.529 14.7254 18.5734 14.7165 18.6207C14.7106 18.6533 14.7047 18.6858 14.7017 18.7184C14.6958 18.7657 14.6958 18.813 14.6929 18.8574C14.6929 18.8899 14.6929 18.9225 14.6929 18.955C14.6929 19.0023 14.7017 19.0497 14.7106 19.097C14.7165 19.1266 14.7195 19.1591 14.7254 19.1887C14.7372 19.239 14.755 19.2893 14.7727 19.3396C14.7816 19.3632 14.7875 19.3899 14.7964 19.4135C14.826 19.4875 14.8644 19.5585 14.9088 19.6265L15.1129 19.9401C15.0686 19.8721 15.0331 19.8011 15.0005 19.7271C14.9917 19.7034 14.9828 19.6768 14.9769 19.6532C14.9591 19.6029 14.9414 19.5526 14.9295 19.5023Z" fill="currentColor" stroke="currentColor" stroke-width="0.075"/>
<path d="M17.5833 17.7984C17.5714 17.7806 17.5596 17.7658 17.5478 17.751C17.53 17.7274 17.5093 17.7067 17.4915 17.683C17.4797 17.6682 17.4649 17.6564 17.4501 17.6445C17.4324 17.6268 17.4176 17.6091 17.3998 17.5943C17.391 17.5854 17.3821 17.5765 17.3732 17.5676C17.3614 17.5558 17.3466 17.5469 17.3318 17.5381C17.3022 17.5144 17.2726 17.4907 17.2401 17.47C17.2283 17.4641 17.2194 17.4552 17.2076 17.4463C17.1957 17.4404 17.1839 17.4345 17.1721 17.4286C17.1336 17.4049 17.0922 17.3842 17.0508 17.3665C17.0301 17.3576 17.0094 17.3458 16.9857 17.3369C16.9354 17.3162 16.8851 17.3014 16.8348 17.2866C16.82 17.2836 16.8082 17.2777 16.7934 17.2718C16.7283 17.2541 16.6603 17.2422 16.5922 17.2334C16.5745 17.2334 16.5567 17.2334 16.539 17.2304C16.4887 17.2274 16.4355 17.2245 16.3852 17.2245C16.3763 17.2245 16.3674 17.2245 16.3585 17.2245C16.3171 17.2245 16.2757 17.2274 16.2343 17.2334C16.2018 17.2363 16.1692 17.2422 16.1367 17.2452C16.1248 17.2452 16.11 17.2511 16.0982 17.2541C16.0686 17.26 16.042 17.2659 16.0124 17.2718C15.9976 17.2748 15.9799 17.2777 15.9651 17.2836C15.9503 17.2866 15.9355 17.2925 15.9207 17.2984C15.9 17.3044 15.8763 17.3132 15.8556 17.3191C15.8408 17.3251 15.829 17.328 15.8142 17.331C15.7935 17.3398 15.7699 17.3487 15.7491 17.3576C15.7314 17.3635 15.7136 17.3724 15.6959 17.3813C15.69 17.3842 15.6811 17.3872 15.6752 17.3901C15.6308 17.4108 15.5894 17.4345 15.545 17.4582L14.3203 15.9229L14.5244 16.2364L15.7491 17.7718C15.7994 17.7422 15.8497 17.7185 15.9 17.6948C15.9178 17.686 15.9355 17.68 15.9533 17.6741C15.9888 17.6593 16.0243 17.6445 16.0598 17.6327C16.0805 17.6238 16.1041 17.6179 16.1248 17.612C16.1574 17.6031 16.187 17.5943 16.2195 17.5854C16.2491 17.5795 16.2757 17.5736 16.3053 17.5676C16.3497 17.5588 16.397 17.5499 16.4414 17.5469C16.4917 17.541 16.542 17.541 16.5922 17.541C16.6455 17.541 16.6958 17.541 16.7461 17.5469C16.7638 17.5469 16.7816 17.5469 16.7993 17.5499C16.8674 17.5588 16.9354 17.5706 17.0005 17.5883C17.0153 17.5913 17.0301 17.5972 17.0419 17.6031C17.0922 17.6179 17.1425 17.6357 17.1928 17.6534C17.2135 17.6623 17.2342 17.6741 17.2578 17.683C17.2993 17.7008 17.3377 17.7215 17.3791 17.7451C17.4028 17.757 17.4235 17.7718 17.4442 17.7865C17.4768 17.8073 17.5063 17.8309 17.5359 17.8546C17.5596 17.8723 17.5803 17.8901 17.604 17.9108C17.6217 17.9256 17.6395 17.9433 17.6543 17.9611C17.6868 17.9966 17.7223 18.0291 17.7519 18.0676C17.7785 18.1001 17.8022 18.1356 17.8258 18.1711L17.6217 17.8575C17.6099 17.8398 17.598 17.822 17.5833 17.8043V17.7984Z" fill="currentColor" stroke="currentColor" stroke-width="0.075"/>
<path d="M8.2027 19.4785C8.19087 19.4607 8.17903 19.443 8.1672 19.4252C8.13762 19.3868 8.10804 19.3483 8.0755 19.3128C8.06366 19.298 8.04887 19.2892 8.03704 19.2744C8.02521 19.2625 8.01633 19.2537 8.0045 19.2418C7.98971 19.227 7.97491 19.2123 7.96012 19.1975C7.90983 19.1531 7.85363 19.1117 7.79446 19.0762C7.79446 19.0762 7.79446 19.0762 7.7915 19.0762L7.99562 19.3897C8.0755 19.44 8.14353 19.4962 8.20862 19.5584C8.22045 19.5672 8.22932 19.5791 8.24116 19.5909C8.30328 19.656 8.36244 19.7211 8.40978 19.795L8.20566 19.4815L8.2027 19.4785Z" fill="currentColor" stroke="currentColor" stroke-width="0.075"/>
<path d="M18.707 11.7598C18.7396 11.9491 18.8076 12.1207 18.9082 12.2715L19.1123 12.5851C19.0147 12.4342 18.9437 12.2597 18.9112 12.0733L18.707 11.7598Z" fill="currentColor" stroke="currentColor" stroke-width="0.075"/>
<path d="M19.3936 10.6837C19.3936 10.6837 19.4202 10.66 19.435 10.6452C19.4942 10.589 19.5592 10.5358 19.6273 10.4884C19.6332 10.4855 19.6362 10.4825 19.6421 10.4795C19.716 10.4293 19.7959 10.3819 19.8787 10.3435C19.8787 10.3435 19.8817 10.3435 19.8846 10.3435C19.9675 10.305 20.0503 10.2725 20.1391 10.2488C20.145 10.2488 20.1509 10.2458 20.1568 10.2429C20.2485 10.2163 20.3432 10.1985 20.4408 10.1896C20.497 10.1837 20.5503 10.1837 20.6035 10.1837C20.6479 10.1837 20.6893 10.1837 20.7307 10.1896C20.7603 10.1896 20.7928 10.1956 20.8224 10.1985C20.8638 10.2044 20.9052 10.2133 20.9467 10.2222C20.9762 10.2281 21.0029 10.234 21.0324 10.2429C21.0739 10.2547 21.1153 10.2695 21.1567 10.2843C21.1804 10.2932 21.207 10.302 21.2306 10.3109C21.275 10.3316 21.3194 10.3553 21.3638 10.379C21.3786 10.3878 21.3963 10.3967 21.4111 10.4056C21.4673 10.4411 21.5235 10.4825 21.5738 10.5239C21.6182 10.5624 21.6626 10.6038 21.701 10.6482C21.7099 10.657 21.7158 10.6689 21.7247 10.6777C21.7602 10.7192 21.7927 10.7606 21.8223 10.805L21.6182 10.4914C21.6063 10.4736 21.5945 10.4559 21.5827 10.4381C21.5649 10.4115 21.5442 10.3878 21.5235 10.3642C21.5146 10.3553 21.5058 10.3435 21.4969 10.3346C21.4969 10.3316 21.491 10.3287 21.488 10.3257C21.4525 10.2843 21.4111 10.2458 21.3697 10.2103C21.3194 10.166 21.2661 10.1275 21.207 10.092C21.207 10.092 21.207 10.092 21.2011 10.0891C21.1863 10.0802 21.1715 10.0743 21.1567 10.0654C21.1153 10.0417 21.0709 10.0151 21.0236 9.99735C20.9999 9.98552 20.9762 9.9796 20.9496 9.97073C20.9082 9.95593 20.8697 9.94114 20.8254 9.92635C20.7987 9.91748 20.7692 9.91156 20.7396 9.90564C20.6982 9.89677 20.6568 9.88789 20.6153 9.88198C20.5858 9.87902 20.5532 9.87606 20.5236 9.8731C20.4822 9.87015 20.4378 9.86719 20.3964 9.86719C20.3816 9.86719 20.3668 9.86719 20.3521 9.86719C20.3136 9.86719 20.2722 9.87015 20.2337 9.87606C20.1982 9.87902 20.1657 9.88494 20.1302 9.89085C20.071 9.89973 20.0148 9.91452 19.9586 9.92931C19.9556 9.92931 19.9527 9.92931 19.9497 9.92931C19.9438 9.92931 19.9379 9.93227 19.932 9.93523C19.8906 9.94706 19.8491 9.95889 19.8077 9.97664C19.7634 9.99439 19.719 10.0121 19.6776 10.0328C19.6776 10.0328 19.6746 10.0328 19.6717 10.0328C19.6273 10.0536 19.5829 10.0772 19.5415 10.1009C19.506 10.1216 19.4735 10.1423 19.438 10.166C19.432 10.1689 19.4291 10.1719 19.4232 10.1748C19.4202 10.1748 19.4172 10.1778 19.4143 10.1808C19.3699 10.2103 19.3285 10.2429 19.2871 10.2784C19.2664 10.2961 19.2486 10.3139 19.2309 10.3316C19.2161 10.3435 19.2043 10.3553 19.1895 10.3701C19.1776 10.3819 19.1658 10.3908 19.154 10.4026C19.1096 10.447 19.0711 10.4943 19.0327 10.5446C19.0268 10.5535 19.0208 10.5594 19.0149 10.5653C19.0149 10.5653 19.0149 10.5653 19.012 10.5683C18.9617 10.6334 18.9203 10.7044 18.8818 10.7754C18.87 10.7961 18.8611 10.8168 18.8493 10.8375C18.8226 10.8937 18.796 10.9499 18.7753 11.0091C18.7664 11.0327 18.7576 11.0534 18.7516 11.0771C18.728 11.157 18.7073 11.2369 18.6954 11.3197L16.2549 11.5682L16.459 11.8818L18.8996 11.6333C18.9114 11.5504 18.9321 11.4676 18.9558 11.3877C18.9617 11.3641 18.9706 11.3404 18.9794 11.3197C19.0001 11.2605 19.0238 11.2043 19.0534 11.1481C19.0652 11.1274 19.0741 11.1067 19.0859 11.086C19.1244 11.012 19.1688 10.941 19.219 10.8759C19.225 10.8671 19.2309 10.8612 19.2368 10.8552C19.2841 10.7931 19.3374 10.7369 19.3906 10.6837H19.3936Z" fill="currentColor" stroke="currentColor" stroke-width="0.075"/>
<path d="M7.38292 18.9013C7.29713 18.8776 7.21134 18.8658 7.12555 18.8569C7.09893 18.8569 7.0723 18.8569 7.04568 18.854C7.01018 18.854 6.97172 18.8481 6.93622 18.851C6.89481 18.851 6.85635 18.854 6.81494 18.8599C6.7824 18.8628 6.74986 18.8688 6.71731 18.8717C6.69661 18.8747 6.6759 18.8806 6.65223 18.8865C6.62857 18.8924 6.6049 18.8954 6.57828 18.9013C6.56644 18.9043 6.55461 18.9072 6.54278 18.9102C6.50728 18.9191 6.47178 18.9309 6.43924 18.9427C6.42741 18.9457 6.41557 18.9516 6.40374 18.9546C6.40078 18.9546 6.39782 18.9546 6.39487 18.9575C6.34753 18.9753 6.3002 18.996 6.25583 19.0167C6.24991 19.0196 6.24104 19.0256 6.23512 19.0285C6.22033 19.0344 6.2085 19.0433 6.19371 19.0492C6.17004 19.0611 6.14637 19.0729 6.12271 19.0847C6.102 19.0965 6.08425 19.1113 6.06354 19.1232C6.04875 19.132 6.03396 19.1409 6.02213 19.1498C6.01325 19.1557 6.00438 19.1616 5.9955 19.1675C5.95113 19.1971 5.90971 19.2297 5.87126 19.2652C5.86534 19.2681 5.86238 19.274 5.85647 19.277C5.81801 19.3095 5.77955 19.345 5.74405 19.3835C5.73814 19.3894 5.73518 19.3953 5.72926 19.3983C5.7056 19.4249 5.68489 19.4515 5.66122 19.4782C5.64347 19.5018 5.62276 19.5225 5.60501 19.5462C5.60206 19.5521 5.5991 19.558 5.59318 19.564C5.54585 19.629 5.50148 19.6971 5.46006 19.771C5.1879 20.2769 5.22044 20.836 5.4926 21.2531L5.69672 21.5667C5.42456 21.1496 5.39202 20.5905 5.66418 20.0846C5.70264 20.0106 5.74701 19.9426 5.79434 19.8775C5.81505 19.8479 5.83872 19.8213 5.86238 19.7947C5.88605 19.7681 5.90676 19.7414 5.93042 19.7148C5.97184 19.6734 6.01325 19.632 6.05763 19.5935C6.06354 19.5906 6.0665 19.5847 6.07242 19.5817C6.12271 19.5403 6.173 19.5018 6.22625 19.4663C6.24104 19.4575 6.25583 19.4486 6.26766 19.4397C6.30908 19.4131 6.35345 19.3894 6.39782 19.3657C6.41262 19.3598 6.42445 19.351 6.43924 19.345C6.49545 19.3184 6.55165 19.2918 6.61082 19.2711C6.62265 19.2652 6.63448 19.2622 6.64632 19.2593C6.69365 19.2445 6.74098 19.2297 6.78831 19.2178C6.81198 19.2119 6.83564 19.206 6.86227 19.203C6.91552 19.1912 6.96876 19.1823 7.02201 19.1764C7.09893 19.1675 7.17584 19.1705 7.25276 19.1735C7.27938 19.1735 7.30601 19.1735 7.33263 19.1764C7.41842 19.1853 7.50717 19.1971 7.59 19.2208L8.723 17.0968L8.51888 16.7832L7.38588 18.9072L7.38292 18.9013Z" fill="currentColor" stroke="currentColor" stroke-width="0.075"/>
<path d="M14.4443 8.46515C14.5005 8.50065 14.5567 8.53911 14.61 8.57757C14.6425 8.60123 14.678 8.6249 14.7105 8.64856C14.7697 8.69294 14.8289 8.74027 14.8851 8.7876C14.9087 8.80831 14.9324 8.82606 14.9561 8.84677C15.0774 8.95326 15.1927 9.06568 15.3022 9.18401C15.3199 9.20176 15.3377 9.22246 15.3554 9.24021C15.4471 9.34375 15.5359 9.45025 15.6187 9.56266C15.6661 9.62774 15.7134 9.69282 15.7578 9.76086L15.5536 9.44729C15.5152 9.38812 15.4738 9.32896 15.4324 9.27275C15.4264 9.26388 15.4176 9.25796 15.4116 9.24909C15.3288 9.13667 15.243 9.03018 15.1484 8.92664C15.1424 8.91776 15.1365 8.90889 15.1277 8.90297C15.1188 8.89114 15.104 8.88227 15.0951 8.87043C14.9857 8.7521 14.8703 8.63969 14.749 8.53319C14.749 8.53319 14.7431 8.52728 14.7401 8.52432C14.7194 8.50657 14.6958 8.48882 14.675 8.47107C14.6188 8.42374 14.5597 8.37641 14.5005 8.33203C14.468 8.30837 14.4325 8.2847 14.3999 8.26103C14.3467 8.22258 14.2905 8.18412 14.2343 8.14862C14.2195 8.13975 14.2076 8.12791 14.1929 8.11904C14.1781 8.11016 14.1633 8.10425 14.1485 8.09537C14.0213 8.01846 13.8941 7.9445 13.758 7.87942L13.3498 7.71376C13.1959 7.65755 13.0391 7.60726 12.8794 7.56585C12.8261 7.55106 12.7699 7.54218 12.7167 7.53035C12.6072 7.50668 12.4978 7.48006 12.3854 7.46527C12.3203 7.45639 12.2522 7.45048 12.1842 7.4416C12.0807 7.42977 11.9771 7.41793 11.8706 7.41202C11.7967 7.40906 11.7227 7.41202 11.6488 7.40906C11.5748 7.40906 11.5008 7.40314 11.4269 7.4061C11.3707 7.4061 11.3174 7.40906 11.2612 7.41498L11.4653 7.72855C11.5955 7.71968 11.7227 7.72263 11.8529 7.72559C11.9268 7.72559 12.0008 7.72559 12.0747 7.72855C12.1812 7.73447 12.2818 7.7463 12.3854 7.75813C12.4534 7.76701 12.5214 7.76997 12.5865 7.7818C12.6989 7.79955 12.8084 7.82321 12.9178 7.84688C12.9711 7.85871 13.0273 7.86759 13.0776 7.88238C13.2373 7.92379 13.3941 7.97408 13.548 8.03029L13.9562 8.19595C14.0893 8.26103 14.2195 8.33499 14.3467 8.4119C14.3763 8.42965 14.4058 8.4474 14.4325 8.46515H14.4443Z" fill="currentColor" stroke="currentColor" stroke-width="0.075"/>
<path d="M6.4098 10.8643C6.1761 11.4204 6.04298 12.0091 6.01636 12.6215L6.02227 12.8936L6.03115 13.0593C6.07848 13.8669 6.32993 14.6005 6.73817 15.2218L6.94229 15.5353C6.53405 14.9141 6.2826 14.1804 6.23527 13.3728L6.22639 13.2072L6.22048 12.935C6.2471 12.3227 6.38318 11.734 6.61392 11.1778L6.4098 10.8643Z" fill="currentColor" stroke="currentColor" stroke-width="0.075"/>
<path d="M9.40945 8.26954C9.40945 8.26954 9.41537 8.26954 9.41537 8.26658C9.54553 8.20446 9.67569 8.15121 9.81177 8.09796C9.84727 8.08317 9.87981 8.07134 9.91531 8.0595C10.0603 8.00626 10.2052 7.95892 10.3561 7.91751C10.362 7.91751 10.365 7.91751 10.3709 7.91455C10.5395 7.87018 10.7081 7.83172 10.8827 7.80214C10.93 7.79326 10.9744 7.78439 11.0187 7.77847L10.9625 5.14268L10.7584 4.8291L10.8146 7.4649C10.785 7.46786 10.7584 7.47377 10.7288 7.47969C10.7111 7.47969 10.6933 7.48856 10.6756 7.49152C10.504 7.5211 10.3324 7.5566 10.1638 7.60393C10.1608 7.60393 10.1579 7.60393 10.152 7.60393C10.152 7.60393 10.152 7.60393 10.149 7.60393C10.0011 7.64535 9.85319 7.69268 9.70823 7.74593C9.69048 7.75185 9.67274 7.75776 9.65499 7.76368C9.63724 7.7696 9.61949 7.77847 9.6047 7.78439C9.47157 7.83468 9.33845 7.89088 9.20829 7.95301C9.20829 7.95301 9.20533 7.95301 9.20237 7.95301C9.07221 8.01513 8.94501 8.08317 8.82076 8.15417C8.80597 8.16304 8.78822 8.16896 8.77343 8.17783C8.75568 8.18671 8.74089 8.19854 8.72314 8.21037C8.60481 8.28137 8.4924 8.35237 8.37998 8.42928C8.37111 8.4352 8.36519 8.43816 8.35632 8.44408C8.3504 8.44703 8.34744 8.44999 8.34153 8.45591L8.23799 8.53578C8.19065 8.57128 8.14628 8.60382 8.10191 8.63932L7.97174 8.74582C7.97174 8.74582 7.96879 8.74878 7.96583 8.75173C7.9392 8.7754 7.91258 8.80202 7.88596 8.82569C7.77058 8.92627 7.65817 9.02685 7.55463 9.1363C7.55167 9.13926 7.54576 9.14518 7.5428 9.14814C7.4363 9.26055 7.33276 9.37592 7.23514 9.49425C7.21148 9.52384 7.18781 9.55342 7.16414 9.583C7.13752 9.6185 7.10794 9.65104 7.08131 9.68654C7.03398 9.74866 6.99257 9.8167 6.94523 9.88178C6.91565 9.92616 6.88311 9.97053 6.85353 10.0149C6.76182 10.1569 6.67603 10.3019 6.59616 10.4498L5.03125 9.88474L5.23537 10.1983L6.80028 10.7633C6.87719 10.6154 6.96594 10.4705 7.05765 10.3285C7.08723 10.2841 7.11977 10.2397 7.14935 10.1954C7.22035 10.0948 7.29135 9.9942 7.36826 9.89657C7.39193 9.86699 7.41559 9.83741 7.43926 9.80783C7.53984 9.68358 7.64634 9.56525 7.75875 9.44988C7.86525 9.34042 7.97766 9.23984 8.09007 9.13926C8.11966 9.11264 8.14628 9.08602 8.17586 9.05939L8.30603 8.95289C8.3504 8.9174 8.39477 8.88485 8.44211 8.84936L8.54564 8.76948C8.54564 8.76948 8.57227 8.75173 8.5841 8.74286C8.69651 8.66594 8.81189 8.59199 8.92726 8.52395C8.9598 8.5062 8.99234 8.48549 9.02192 8.46774C9.14617 8.39674 9.27337 8.3287 9.40353 8.26658L9.40945 8.26954Z" fill="currentColor" stroke="currentColor" stroke-width="0.075"/>
<path d="M4.14367 8.40242C4.22946 8.41721 4.31821 8.43792 4.40104 8.4675C4.48979 8.50004 4.57262 8.54146 4.64953 8.58879C4.68207 8.6095 4.71166 8.6302 4.7442 8.65091C4.76786 8.66866 4.79449 8.68641 4.81815 8.70416C4.86549 8.74262 4.90986 8.78403 4.95127 8.82841L4.95719 8.83432C5.00452 8.88757 5.0489 8.94378 5.08735 9.00294L4.88324 8.68937C4.8714 8.67162 4.85957 8.65387 4.84774 8.63612C4.81815 8.59766 4.78857 8.5592 4.75603 8.52371C4.75603 8.52371 4.75011 8.52075 4.75011 8.51779C4.71462 8.48229 4.67912 8.44383 4.64066 8.41129C4.63178 8.40538 4.62291 8.39946 4.61699 8.39354C4.59333 8.37284 4.5667 8.35804 4.54304 8.3403C4.51937 8.3255 4.49866 8.3048 4.475 8.29001C4.46612 8.28409 4.45725 8.28113 4.44837 8.27817C4.37146 8.23084 4.28863 8.18942 4.19988 8.15688C4.11409 8.1273 4.0283 8.10659 3.94251 8.0918C3.92476 8.0918 3.90997 8.08589 3.89222 8.08293C3.80939 8.07109 3.7236 8.06518 3.64077 8.06814C3.63486 8.06814 3.62894 8.06814 3.62302 8.06814C3.58161 8.06814 3.54315 8.07109 3.50174 8.07701C3.46919 8.07997 3.43665 8.08589 3.40411 8.08884C3.37749 8.0918 3.35382 8.10068 3.3272 8.10659C3.30649 8.11251 3.28283 8.11547 3.26212 8.12139C3.25028 8.12139 3.24141 8.12434 3.22958 8.1273C3.17929 8.14209 3.12604 8.15688 3.07575 8.17759C3.07575 8.17759 3.06983 8.17759 3.06687 8.18055C3.0225 8.1983 2.98108 8.21605 2.93671 8.23676C2.92192 8.24267 2.90713 8.25155 2.89234 8.26042C2.87755 8.2693 2.86275 8.27521 2.84796 8.28409C2.83317 8.29296 2.81838 8.29888 2.80359 8.30775C2.76513 8.33142 2.72668 8.35509 2.68822 8.38171C2.68526 8.38171 2.6823 8.38467 2.67934 8.38763C2.63497 8.41721 2.59355 8.44975 2.55214 8.48525C2.54326 8.49117 2.53439 8.50004 2.52847 8.50892C2.51072 8.52371 2.49593 8.5385 2.48114 8.55329C2.46339 8.57104 2.44268 8.58583 2.42493 8.60654C2.4131 8.61837 2.40127 8.63612 2.38944 8.64795C2.36577 8.67458 2.34506 8.69824 2.3214 8.72487C2.30956 8.73966 2.29477 8.75445 2.28294 8.76924C2.27406 8.77812 2.27111 8.78995 2.26223 8.80178C2.20307 8.88461 2.14686 8.97336 2.10249 9.06802C1.87174 9.55909 1.91907 10.0827 2.17644 10.4761L2.38056 10.7897C2.12319 10.3963 2.07586 9.87267 2.3066 9.3816C2.35098 9.28693 2.40719 9.19819 2.46635 9.11535C2.4841 9.08873 2.50185 9.06506 2.52256 9.03844C2.54326 9.01182 2.56693 8.98519 2.5906 8.96153C2.62018 8.92899 2.64976 8.89644 2.6823 8.86686C2.69709 8.85207 2.71484 8.83728 2.72963 8.82249C2.77992 8.77812 2.83021 8.7367 2.88346 8.7012C2.88642 8.7012 2.88938 8.69824 2.89234 8.69528C2.94263 8.65979 2.99883 8.62724 3.05208 8.59766C3.06687 8.58879 3.08166 8.58287 3.09646 8.574C3.15266 8.54441 3.20887 8.51779 3.26803 8.49708C3.27099 8.49708 3.27395 8.49708 3.27691 8.49412C3.33903 8.47046 3.40115 8.45271 3.46328 8.43792C3.48399 8.432 3.50765 8.42904 3.52836 8.42313C3.58457 8.41129 3.64373 8.39946 3.7029 8.39354C3.75023 8.38763 3.7946 8.38763 3.84193 8.38763C3.92476 8.38763 4.01055 8.39059 4.09338 8.40242C4.11113 8.40242 4.12592 8.40833 4.14367 8.41129V8.40242Z" fill="currentColor" stroke="currentColor" stroke-width="0.075"/>
<path d="M11.424 2.1193C11.4566 2.1193 11.4862 2.12521 11.5187 2.12817C11.5601 2.13409 11.6015 2.14296 11.643 2.15184C11.6725 2.15775 11.6992 2.16367 11.7287 2.17254C11.7702 2.18438 11.8116 2.19917 11.853 2.21692C11.8767 2.22579 11.9033 2.23467 11.9269 2.24354C11.9713 2.26425 12.0157 2.28791 12.0601 2.31158C12.0749 2.32046 12.0926 2.32933 12.1104 2.33821C12.1666 2.3737 12.2228 2.41512 12.2731 2.45653C12.3174 2.49499 12.3618 2.53937 12.4003 2.58374C12.4091 2.59261 12.4151 2.60445 12.4239 2.61332C12.4594 2.65474 12.492 2.69615 12.5216 2.74053L12.3174 2.42695C12.3056 2.4092 12.2938 2.39145 12.2819 2.3737C12.2642 2.34708 12.2405 2.32341 12.2198 2.29975C12.2109 2.29087 12.205 2.27904 12.1961 2.27017C12.1961 2.27017 12.1902 2.26425 12.1873 2.26129C12.1488 2.21988 12.1104 2.18142 12.0689 2.14592C12.0187 2.10155 11.9624 2.06309 11.9062 2.02759C11.9062 2.02759 11.9062 2.02759 11.9033 2.02463C11.8885 2.01576 11.8737 2.00984 11.8589 2.00097C11.8145 1.9773 11.7731 1.95068 11.7258 1.92997C11.7021 1.91813 11.6785 1.91222 11.6518 1.90334C11.6104 1.88855 11.572 1.87376 11.5276 1.85897C11.501 1.85009 11.4714 1.84714 11.4418 1.83826C11.4004 1.82939 11.359 1.82051 11.3175 1.8146C11.288 1.81164 11.2554 1.80868 11.2258 1.80572C11.1844 1.80276 11.1401 1.7998 11.0986 1.7998C11.0838 1.7998 11.0691 1.7998 11.0543 1.7998C11.0128 1.7998 10.9714 1.80276 10.93 1.80868C10.8975 1.81164 10.8649 1.81755 10.8324 1.82051C10.7732 1.82939 10.7141 1.84418 10.6579 1.85897C10.646 1.86193 10.6372 1.86489 10.6253 1.86784C10.6135 1.8708 10.6046 1.87376 10.5928 1.87968C10.5632 1.88855 10.5336 1.89743 10.507 1.9063C10.4597 1.92405 10.4123 1.94476 10.368 1.96547C10.3561 1.97138 10.3443 1.9773 10.3325 1.98617C10.3236 1.99209 10.3117 1.99505 10.3029 2.00097C10.2822 2.0128 10.2585 2.02167 10.2378 2.03646C10.1934 2.06309 10.152 2.08971 10.1106 2.1193C10.0958 2.12817 10.084 2.14 10.0692 2.15184C10.0573 2.16071 10.0485 2.16959 10.0366 2.1755C10.0189 2.19029 10.0011 2.20213 9.98338 2.21692C9.93901 2.25537 9.89463 2.29679 9.85322 2.33821C9.8473 2.34412 9.84138 2.35004 9.83843 2.35595C9.82363 2.37075 9.8118 2.38554 9.79997 2.40033C9.77039 2.43583 9.73785 2.46837 9.71122 2.50387C9.69643 2.52457 9.6846 2.54528 9.67276 2.56599C9.65206 2.59557 9.63135 2.62811 9.6136 2.66065C9.58402 2.71094 9.55739 2.76419 9.53077 2.8204C9.51598 2.85294 9.50119 2.88548 9.48639 2.92098C9.46273 2.98014 9.44794 3.04227 9.43315 3.10735C9.42723 3.13693 9.4154 3.16651 9.40948 3.1961C9.39173 3.29076 9.38286 3.38542 9.38581 3.48305C9.39173 3.75225 9.4716 3.99778 9.60473 4.2019L9.80884 4.51547C9.67572 4.31135 9.59585 4.06582 9.58993 3.79662C9.58993 3.699 9.59881 3.60433 9.6136 3.50967C9.61952 3.48009 9.62839 3.4505 9.63727 3.42092C9.65206 3.3588 9.66981 3.29668 9.69051 3.23455C9.70235 3.20201 9.71714 3.16947 9.73489 3.13397C9.75855 3.08072 9.78518 3.02748 9.81772 2.97423C9.83547 2.94169 9.85618 2.9121 9.87688 2.87956C9.91534 2.82336 9.95971 2.76715 10.0041 2.7139C10.0159 2.69911 10.0278 2.68432 10.0425 2.66953C10.1047 2.60445 10.1727 2.54232 10.2437 2.48612C10.2555 2.47724 10.2644 2.46837 10.2762 2.46245C10.3502 2.4092 10.4271 2.35891 10.5099 2.31454C10.5188 2.30862 10.5307 2.30271 10.5395 2.29975C10.6224 2.25833 10.7111 2.22283 10.7999 2.19325C10.8117 2.19029 10.8206 2.18733 10.8324 2.18142C10.93 2.15184 11.0306 2.13113 11.1371 2.1193C11.1933 2.11338 11.2495 2.11338 11.3028 2.11338C11.3471 2.11338 11.3885 2.11338 11.43 2.1193H11.424Z" fill="currentColor" stroke="currentColor" stroke-width="0.075"/>
<path d="M11.1311 2.12249C12.0008 2.03079 12.7226 2.63427 12.7403 3.46554C12.7551 4.22285 12.1812 4.90916 11.421 5.09553L11.4772 7.73132C12.2197 7.68399 12.9267 7.79345 13.5598 8.03011L13.968 8.19577C15.3732 8.88208 16.3524 10.231 16.4648 11.8877L18.9053 11.6392C19.0029 10.8996 19.6478 10.2695 20.4406 10.1896C21.3104 10.1009 22.0292 10.7014 22.044 11.5386C22.0588 12.3699 21.3666 13.1183 20.4969 13.207C19.7011 13.2869 19.0384 12.7929 18.9172 12.074L16.4796 12.3255C16.4648 12.9467 16.3287 13.5561 16.092 14.1211L15.9027 14.5382C15.5595 15.1802 15.0892 15.76 14.5242 16.2392L15.7489 17.7746C15.9678 17.6474 16.2044 17.5734 16.4411 17.5468C16.944 17.4935 17.441 17.671 17.7546 18.0645C18.2604 18.6975 18.1007 19.656 17.3907 20.2033C17.1215 20.4104 16.8138 20.5287 16.5062 20.5612C16.0033 20.6145 15.5063 20.437 15.1898 20.0435C14.7283 19.4637 14.8259 18.6206 15.3791 18.0615L14.1514 16.5262C13.4355 17.035 12.5954 17.39 11.6842 17.5261L11.2287 17.5793C10.4773 17.6207 9.7673 17.5083 9.12832 17.2687L7.99827 19.3898C8.61655 19.7773 8.82362 20.576 8.44793 21.2771C8.16985 21.8007 7.64033 22.135 7.09009 22.1912C6.82977 22.2178 6.56352 22.1853 6.31799 22.0788C5.54885 21.7504 5.25894 20.86 5.67013 20.0879C5.94821 19.5673 6.47478 19.233 7.02501 19.1768C7.21434 19.1561 7.40958 19.1709 7.59595 19.2182L8.72896 17.0942C7.31196 16.4079 6.33574 15.0441 6.24108 13.3757L6.2322 13.21L6.22628 12.9378C6.25291 12.3255 6.38899 11.7368 6.61973 11.1806L5.05482 10.6156C4.76491 11.0653 4.2768 11.3552 3.76798 11.4084C3.53428 11.4321 3.29762 11.4084 3.06984 11.3256C2.28294 11.0416 1.93979 10.1719 2.30957 9.38202C2.57285 8.81996 3.12604 8.45314 3.70586 8.39101C3.93956 8.36735 4.17918 8.39101 4.40401 8.47384C5.1199 8.73417 5.46602 9.47669 5.24415 10.2015L6.80906 10.7665C7.1463 10.1216 7.61666 9.53881 8.18168 9.06253L8.31185 8.95604C8.35622 8.92054 8.40059 8.888 8.44793 8.8525L8.55146 8.77263C9.27032 8.26381 10.1105 7.91473 11.0186 7.77866L10.9624 5.14286C10.1962 5.11919 9.59868 4.55417 9.58093 3.79686C9.56318 2.96559 10.2554 2.2142 11.1281 2.12249H11.1311Z" fill="currentColor" stroke="currentColor" stroke-width="0.075"/>
<path d="M11.3084 8.77032C13.5677 8.51712 15.4374 10.0631 15.4837 12.2225C15.5299 14.3819 13.7357 16.3369 11.4764 16.5901C9.21714 16.8433 7.34498 15.2949 7.29873 13.1379C7.25247 10.9809 9.04673 9.02351 11.3084 8.77032Z" fill="currentColor" stroke="currentColor" stroke-width="0.075"/>
<path d="M13.0123 10.1445L13.0219 10.6355L11.6668 10.779C11.9123 10.9735 12.0526 11.2222 12.094 11.5506L13.0378 11.4518L13.0474 11.9428L12.1164 12.0416C12.0685 12.8132 11.5584 13.2596 10.8251 13.4477L12.2439 15.721L11.5138 15.7975L10.1109 13.403L10.1045 13.0651C10.7422 13.0173 11.45 12.8419 11.4787 12.1054L10.0886 12.252L10.079 11.761L11.4596 11.6144C11.3448 10.9257 10.6625 10.8523 10.0599 10.9448L10.0503 10.4538L13.0123 10.1445Z" fill="currentColor" stroke="currentColor" stroke-width="0.075"/>
<circle cx="20.9248" cy="2.55" r="1.8" fill="currentColor"/>
</g>
<defs>
<clipPath id="clip0_6031_2144">
<rect width="24" height="24" fill="currentColor"/>
</clipPath>
</defs>
</svg>
