<svg width="24" height="24" viewBox="0 0 24 24" fill="none" xmlns="http://www.w3.org/2000/svg">
<g clip-path="url(#clip0_4017_2706)">
<path d="M15.1601 21.4812C14.9689 21.7835 13.5384 22.1987 11.538 22.1987C9.53764 22.1987 8.12884 21.8387 7.91601 21.4812C7.79005 21.235 6.89863 19.7698 6.89863 19.7698C6.89863 19.7698 10.7567 20.1763 11.538 20.1763C12.3345 20.1763 16.223 19.7031 16.223 19.7031C16.223 19.7031 15.4988 20.9455 15.1601 21.4812Z" fill="#017AFF" stroke="black" stroke-width="0.12"/>
<ellipse cx="11.5381" cy="19.6183" rx="4.70372" ry="0.931787" fill="#F6FAFF" stroke="black" stroke-width="0.12"/>
<path fill-rule="evenodd" clip-rule="evenodd" d="M15.6997 2.20605C15.4724 2.69133 15.2508 3.14817 15.0353 3.59257L15.0353 3.59258C14.2905 5.12829 13.6177 6.51549 13.0283 8.41436C12.3247 10.6817 11.7394 13.6773 11.2755 18.5433C10.9454 16.9128 10.5744 15.4945 10.1644 14.2163C10.1675 14.215 10.1705 14.2135 10.1735 14.212C10.7505 13.9149 11.179 13.4846 11.4381 12.9369C11.6966 12.3906 11.7815 11.7387 11.6912 11.0047C11.6841 10.947 11.6482 10.8969 11.5959 10.8717C11.5435 10.8465 11.4819 10.8496 11.4324 10.8801C10.6691 11.3492 10.226 11.8398 10.0099 12.3826C9.89535 12.6705 9.84759 12.9658 9.84488 13.2695C9.15323 11.3189 8.36189 9.68436 7.47908 8.06587L7.17937 8.22935C8.42158 10.5067 9.48028 12.813 10.3339 16.0073C9.98573 15.4797 9.54844 15.0348 9.02663 14.6796C8.12073 14.0628 6.97029 13.7227 5.60995 13.6771C5.55188 13.6752 5.4968 13.7029 5.46378 13.7507C5.43076 13.7985 5.42432 13.8599 5.44669 13.9135C6.08396 15.4408 6.84419 16.371 7.74782 16.9061C8.62603 17.4261 9.61724 17.5593 10.7104 17.5356C10.8716 18.2463 11.0241 18.9993 11.1678 19.802C11.1828 19.8863 11.258 19.9464 11.3436 19.9425C11.4291 19.9386 11.4985 19.8719 11.5058 19.7866C11.6293 18.3484 11.7621 17.0634 11.904 15.9069C13.522 15.7227 14.6145 15.2582 15.3752 14.5495C16.1424 13.8347 16.5515 12.8903 16.8385 11.7981C16.8522 11.7459 16.8404 11.6904 16.8068 11.6482C16.7731 11.6061 16.7216 11.5823 16.6677 11.5841C15.485 11.6238 14.4487 11.9983 13.6001 12.6942C12.9758 13.2062 12.4582 13.888 12.0579 14.7281C12.4328 12.0269 12.8659 10.0896 13.3544 8.51555C13.9354 6.64342 14.5946 5.28421 15.337 3.75309L15.3371 3.75303L15.3372 3.75277L15.3373 3.75249C15.554 3.30561 15.7778 2.84408 16.0089 2.35088L15.6997 2.20605ZM15.1425 14.2997C14.4851 14.9122 13.5338 15.3456 12.0875 15.5402C12.4975 14.4207 13.0844 13.5587 13.8166 12.9582C14.5472 12.359 15.4304 12.0135 16.4463 11.9378C16.1711 12.901 15.7909 13.6955 15.1425 14.2997ZM5.86948 14.0317C6.46432 15.3643 7.14865 16.1545 7.92177 16.6123C8.6844 17.0639 9.55392 17.2044 10.5556 17.1965C10.1963 16.2433 9.61549 15.4935 8.83449 14.9617C8.05178 14.4288 7.05912 14.109 5.86948 14.0317ZM10.3271 12.5089C10.4869 12.1075 10.8035 11.716 11.3777 11.3223C11.4114 11.8891 11.3238 12.3803 11.1295 12.7909C10.9363 13.1993 10.6337 13.536 10.2239 13.7913C10.157 13.3178 10.1718 12.8992 10.3271 12.5089Z" fill="#017AFF"/>
<path d="M15.0353 3.59257L15.0871 3.62326L15.0893 3.61875L15.0353 3.59257ZM15.6997 2.20605L15.7252 2.15172C15.7108 2.14497 15.6943 2.14422 15.6793 2.14964C15.6643 2.15505 15.6521 2.16619 15.6454 2.1806L15.6997 2.20605ZM15.0353 3.59258L14.9835 3.56188L14.9813 3.56639L15.0353 3.59258ZM13.0283 8.41436L12.971 8.39657L13.0283 8.41436ZM11.2755 18.5433L11.2167 18.5552C11.2226 18.5843 11.249 18.6047 11.2787 18.6032C11.3084 18.6016 11.3324 18.5786 11.3353 18.549L11.2755 18.5433ZM10.1644 14.2163L10.1401 14.1615C10.1121 14.1739 10.0979 14.2055 10.1073 14.2347L10.1644 14.2163ZM10.1735 14.212L10.201 14.2653L10.201 14.2653L10.1735 14.212ZM11.4381 12.9369L11.4923 12.9625V12.9625L11.4381 12.9369ZM11.6912 11.0047L11.6317 11.012V11.012L11.6912 11.0047ZM11.5959 10.8717L11.5698 10.9257H11.5698L11.5959 10.8717ZM11.4324 10.8801L11.401 10.8289V10.8289L11.4324 10.8801ZM10.0099 12.3826L9.95419 12.3605V12.3605L10.0099 12.3826ZM9.84488 13.2695L9.78833 13.2895C9.79806 13.317 9.82608 13.3335 9.85479 13.3287C9.8835 13.3239 9.90462 13.2991 9.90488 13.27L9.84488 13.2695ZM7.47908 8.06587L7.53175 8.03714C7.51588 8.00805 7.47943 7.99733 7.45034 8.0132L7.47908 8.06587ZM7.17937 8.22935L7.15064 8.17668C7.13667 8.1843 7.12629 8.19715 7.1218 8.21242C7.11731 8.22769 7.11907 8.24411 7.12669 8.25808L7.17937 8.22935ZM10.3339 16.0073L10.2838 16.0404C10.3 16.0649 10.3316 16.0741 10.3584 16.062C10.3853 16.05 10.3994 16.0203 10.3918 15.9918L10.3339 16.0073ZM9.02663 14.6796L9.06039 14.63V14.63L9.02663 14.6796ZM5.60995 13.6771L5.60794 13.7371H5.60794L5.60995 13.6771ZM5.46378 13.7507L5.41441 13.7166H5.41441L5.46378 13.7507ZM5.44669 13.9135L5.50207 13.8904H5.50207L5.44669 13.9135ZM7.74782 16.9061L7.71725 16.9577V16.9577L7.74782 16.9061ZM10.7104 17.5356L10.7689 17.5223C10.7626 17.4945 10.7376 17.475 10.7091 17.4756L10.7104 17.5356ZM11.1678 19.802L11.2268 19.7915V19.7915L11.1678 19.802ZM11.3436 19.9425L11.3408 19.8825H11.3408L11.3436 19.9425ZM11.5058 19.7866L11.5656 19.7917V19.7917L11.5058 19.7866ZM11.904 15.9069L11.8972 15.8473C11.8697 15.8504 11.8479 15.872 11.8445 15.8996L11.904 15.9069ZM15.3752 14.5495L15.3343 14.5056V14.5056L15.3752 14.5495ZM16.8385 11.7981L16.8965 11.8133V11.8133L16.8385 11.7981ZM16.8068 11.6482L16.7599 11.6856V11.6856L16.8068 11.6482ZM16.6677 11.5841L16.6697 11.6441V11.6441L16.6677 11.5841ZM13.6001 12.6942L13.6382 12.7406V12.7406L13.6001 12.6942ZM12.0579 14.7281L11.9984 14.7199C11.9944 14.7492 12.0123 14.7771 12.0406 14.7856C12.069 14.7941 12.0993 14.7807 12.112 14.7539L12.0579 14.7281ZM13.3544 8.51555L13.4117 8.53334V8.53334L13.3544 8.51555ZM15.337 3.75309L15.2831 3.72678L15.2831 3.72691L15.337 3.75309ZM15.3371 3.75303L15.391 3.77933L15.391 3.77931L15.3371 3.75303ZM15.3372 3.75277L15.2833 3.72646L15.2833 3.72649L15.3372 3.75277ZM15.3373 3.75249L15.3913 3.7788L15.3913 3.77867L15.3373 3.75249ZM16.0089 2.35088L16.0632 2.37633C16.0773 2.34632 16.0643 2.3106 16.0343 2.29654L16.0089 2.35088ZM12.0875 15.5402L12.0311 15.5195C12.0239 15.5393 12.0275 15.5613 12.0407 15.5777C12.0539 15.5941 12.0746 15.6024 12.0955 15.5996L12.0875 15.5402ZM15.1425 14.2997L15.1834 14.3436V14.3436L15.1425 14.2997ZM13.8166 12.9582L13.8547 13.0046V13.0046L13.8166 12.9582ZM16.4463 11.9378L16.504 11.9543C16.5093 11.9355 16.5052 11.9152 16.4928 11.9C16.4804 11.8848 16.4614 11.8766 16.4418 11.878L16.4463 11.9378ZM7.92177 16.6123L7.95234 16.5607V16.5607L7.92177 16.6123ZM5.86948 14.0317L5.87337 13.9718C5.8524 13.9704 5.83224 13.9801 5.82023 13.9974C5.80822 14.0146 5.80612 14.0369 5.81469 14.0561L5.86948 14.0317ZM10.5556 17.1965L10.556 17.2565C10.5757 17.2563 10.594 17.2466 10.605 17.2304C10.6161 17.2143 10.6186 17.1937 10.6117 17.1753L10.5556 17.1965ZM8.83449 14.9617L8.80072 15.0113V15.0113L8.83449 14.9617ZM11.3777 11.3223L11.4376 11.3187C11.4363 11.2971 11.4235 11.2779 11.4041 11.2684C11.3846 11.2589 11.3616 11.2606 11.3438 11.2728L11.3777 11.3223ZM10.3271 12.5089L10.2714 12.4867V12.4867L10.3271 12.5089ZM11.1295 12.7909L11.1838 12.8165V12.8165L11.1295 12.7909ZM10.2239 13.7913L10.1645 13.7997C10.1673 13.8198 10.1801 13.8371 10.1985 13.8457C10.2169 13.8543 10.2384 13.853 10.2556 13.8422L10.2239 13.7913ZM15.0893 3.61875C15.3048 3.17439 15.5265 2.7172 15.7541 2.23151L15.6454 2.1806C15.4183 2.66545 15.1969 3.12194 14.9813 3.56638L15.0893 3.61875ZM15.0869 3.62317L15.0869 3.62316L14.9837 3.56198L14.9837 3.56199L15.0869 3.62317ZM13.0856 8.43214C13.6735 6.53805 14.3444 5.15448 15.0893 3.61876L14.9813 3.56639C14.2365 5.10211 13.5618 6.49293 12.971 8.39657L13.0856 8.43214ZM11.3353 18.549C11.7989 13.6852 12.3836 10.694 13.0856 8.43214L12.971 8.39657C12.2657 10.6693 11.6799 13.6694 11.2158 18.5376L11.3353 18.549ZM10.1073 14.2347C10.5165 15.5105 10.887 16.9267 11.2167 18.5552L11.3343 18.5314C11.0038 16.899 10.6323 15.4785 10.2215 14.198L10.1073 14.2347ZM10.1461 14.1586C10.1441 14.1596 10.1421 14.1606 10.1401 14.1615L10.1887 14.2712C10.1928 14.2694 10.1969 14.2674 10.201 14.2653L10.1461 14.1586ZM11.3839 12.9112C11.1308 13.446 10.7123 13.8671 10.1461 14.1586L10.201 14.2653C10.7886 13.9628 11.2271 13.5231 11.4923 12.9625L11.3839 12.9112ZM11.6317 11.012C11.7208 11.7374 11.6365 12.3773 11.3839 12.9112L11.4923 12.9625C11.7567 12.4039 11.8421 11.7401 11.7508 10.9973L11.6317 11.012ZM11.5698 10.9257C11.6038 10.9421 11.6271 10.9746 11.6317 11.012L11.7508 10.9973C11.7412 10.9194 11.6926 10.8517 11.6219 10.8176L11.5698 10.9257ZM11.4638 10.9312C11.4959 10.9114 11.5359 10.9094 11.5698 10.9257L11.6219 10.8176C11.5511 10.7836 11.4679 10.7878 11.401 10.8289L11.4638 10.9312ZM10.0657 12.4048C10.2754 11.8778 10.7075 11.396 11.4638 10.9312L11.401 10.8289C10.6308 11.3023 10.1766 11.8018 9.95419 12.3605L10.0657 12.4048ZM9.90488 13.27C9.90754 12.9724 9.9543 12.6847 10.0657 12.4048L9.95419 12.3605C9.83641 12.6564 9.78765 12.9592 9.78488 13.269L9.90488 13.27ZM7.4264 8.0946C8.30821 9.71125 9.09804 11.3428 9.78833 13.2895L9.90143 13.2494C9.20841 11.295 8.41556 9.65747 7.53175 8.03714L7.4264 8.0946ZM7.2081 8.28202L7.50781 8.11855L7.45034 8.0132L7.15064 8.17668L7.2081 8.28202ZM10.3918 15.9918C9.53671 12.7918 8.4759 10.481 7.23204 8.20062L7.12669 8.25808C8.36726 10.5325 9.42385 12.8343 10.2759 16.0228L10.3918 15.9918ZM8.99286 14.7291C9.50816 15.08 9.93993 15.5192 10.2838 16.0404L10.3839 15.9743C10.0315 15.4402 9.58872 14.9897 9.06039 14.63L8.99286 14.7291ZM5.60794 13.7371C6.95953 13.7824 8.0983 14.1201 8.99286 14.7291L9.06039 14.63C8.14317 14.0055 6.98105 13.6631 5.61195 13.6172L5.60794 13.7371ZM5.51315 13.7848C5.53456 13.7538 5.57028 13.7358 5.60794 13.7371L5.61196 13.6172C5.53347 13.6145 5.45904 13.652 5.41441 13.7166L5.51315 13.7848ZM5.50207 13.8904C5.48756 13.8556 5.49173 13.8158 5.51315 13.7848L5.41441 13.7166C5.36978 13.7812 5.36108 13.8641 5.39132 13.9366L5.50207 13.8904ZM7.77839 16.8545C6.88942 16.3281 6.13621 15.4102 5.50207 13.8904L5.39132 13.9366C6.0317 15.4714 6.79895 16.414 7.71725 16.9577L7.77839 16.8545ZM10.7091 17.4756C9.62103 17.4992 8.6428 17.3663 7.77839 16.8545L7.71725 16.9577C8.60927 17.4859 9.61346 17.6194 10.7117 17.5956L10.7091 17.4756ZM11.2268 19.7915C11.083 18.9879 10.9303 18.234 10.7689 17.5223L10.6519 17.5489C10.8129 18.2586 10.9652 19.0108 11.1087 19.8126L11.2268 19.7915ZM11.3408 19.8825C11.2854 19.8851 11.2366 19.8461 11.2268 19.7915L11.1087 19.8126C11.1291 19.9265 11.2307 20.0077 11.3463 20.0024L11.3408 19.8825ZM11.4461 19.7814C11.4413 19.8368 11.3963 19.88 11.3408 19.8825L11.3463 20.0024C11.4619 19.9971 11.5557 19.907 11.5656 19.7917L11.4461 19.7814ZM11.8445 15.8996C11.7024 17.057 11.5696 18.3426 11.4461 19.7814L11.5656 19.7917C11.689 18.3541 11.8218 17.0699 11.9636 15.9142L11.8445 15.8996ZM15.3343 14.5056C14.586 15.2028 13.5071 15.6641 11.8972 15.8473L11.9108 15.9665C13.5369 15.7814 14.6431 15.3136 15.4161 14.5934L15.3343 14.5056ZM16.7805 11.7828C16.4947 12.8704 16.0894 13.802 15.3343 14.5056L15.4161 14.5934C16.1953 13.8674 16.6083 12.9102 16.8965 11.8133L16.7805 11.7828ZM16.7599 11.6856C16.7817 11.713 16.7893 11.749 16.7805 11.7828L16.8965 11.8133C16.915 11.7428 16.8992 11.6677 16.8537 11.6108L16.7599 11.6856ZM16.6697 11.6441C16.7046 11.6429 16.7381 11.6583 16.7599 11.6856L16.8537 11.6108C16.8082 11.5538 16.7385 11.5217 16.6657 11.5241L16.6697 11.6441ZM13.6382 12.7406C14.4758 12.0537 15.499 11.6833 16.6697 11.6441L16.6657 11.5241C15.4709 11.5642 14.4217 11.9428 13.5621 12.6478L13.6382 12.7406ZM12.112 14.7539C12.5091 13.9206 13.0216 13.2463 13.6382 12.7406L13.5621 12.6478C12.93 13.1662 12.4073 13.8554 12.0037 14.7023L12.112 14.7539ZM13.2971 8.49777C12.8074 10.0757 12.3737 12.0163 11.9984 14.7199L12.1173 14.7364C12.4919 12.0375 12.9244 10.1035 13.4117 8.53334L13.2971 8.49777ZM15.2831 3.72691C14.5406 5.25803 13.8796 6.62086 13.2971 8.49777L13.4117 8.53334C13.9912 6.66598 14.6485 5.31039 15.391 3.77927L15.2831 3.72691ZM15.2831 3.72672L15.2831 3.72678L15.391 3.77939L15.391 3.77933L15.2831 3.72672ZM15.2833 3.72649L15.2831 3.72675L15.391 3.77931L15.3911 3.77906L15.2833 3.72649ZM15.2834 3.72618L15.2833 3.72646L15.3911 3.77909L15.3913 3.7788L15.2834 3.72618ZM15.9546 2.32542C15.7237 2.81821 15.5001 3.27939 15.2833 3.72631L15.3913 3.77867C15.608 3.33183 15.832 2.86995 16.0632 2.37633L15.9546 2.32542ZM15.6743 2.26039L15.9834 2.40521L16.0343 2.29654L15.7252 2.15172L15.6743 2.26039ZM12.0955 15.5996C13.55 15.404 14.5143 14.967 15.1834 14.3436L15.1016 14.2558C14.4559 14.8573 13.5176 15.2873 12.0795 15.4807L12.0955 15.5996ZM13.7786 12.9118C13.0366 13.5204 12.4441 14.3921 12.0311 15.5195L12.1438 15.5608C12.5509 14.4494 13.1323 13.597 13.8547 13.0046L13.7786 12.9118ZM16.4418 11.878C15.4145 11.9545 14.5193 12.3043 13.7786 12.9118L13.8547 13.0046C14.5751 12.4138 15.4464 12.0725 16.4507 11.9977L16.4418 11.878ZM15.1834 14.3436C15.843 13.729 16.2273 12.9227 16.504 11.9543L16.3886 11.9214C16.1149 12.8793 15.7388 13.6621 15.1016 14.2558L15.1834 14.3436ZM7.95234 16.5607C7.193 16.1111 6.51573 15.3323 5.92427 14.0072L5.81469 14.0561C6.4129 15.3963 7.1043 16.198 7.8912 16.664L7.95234 16.5607ZM10.5551 17.1365C9.55891 17.1444 8.70179 17.0045 7.95234 16.5607L7.8912 16.664C8.66701 17.1233 9.54894 17.2644 10.556 17.2565L10.5551 17.1365ZM8.80072 15.0113C9.57085 15.5357 10.1442 16.2753 10.4994 17.2177L10.6117 17.1753C10.2483 16.2114 9.66014 15.4513 8.86826 14.9122L8.80072 15.0113ZM5.86558 14.0915C7.04673 14.1684 8.02853 14.4856 8.80072 15.0113L8.86826 14.9122C8.07502 14.3721 7.0715 14.0497 5.87337 13.9718L5.86558 14.0915ZM11.3438 11.2728C10.7627 11.6713 10.4367 12.0714 10.2714 12.4867L10.3829 12.5311C10.5371 12.1437 10.8444 11.7607 11.4116 11.3718L11.3438 11.2728ZM11.1838 12.8165C11.383 12.3954 11.4718 11.8938 11.4376 11.3187L11.3178 11.3259C11.351 11.8845 11.2645 12.3653 11.0753 12.7652L11.1838 12.8165ZM10.2556 13.8422C10.6747 13.5812 10.9853 13.2359 11.1838 12.8165L11.0753 12.7652C10.8872 13.1627 10.5927 13.4909 10.1922 13.7404L10.2556 13.8422ZM10.2714 12.4867C10.1108 12.8902 10.0968 13.3203 10.1645 13.7997L10.2833 13.7829C10.2172 13.3153 10.2328 12.9082 10.3829 12.5311L10.2714 12.4867Z" fill="black"/>
<path d="M7.50358 6.03817C8.77489 5.76638 10.0912 6.65465 10.4443 8.02189C10.7971 9.38913 10.053 10.7177 8.78166 10.9895C7.51064 11.261 6.19401 10.3727 5.84124 9.00578C5.48818 7.63825 6.23284 6.30997 7.50387 6.03817H7.50358Z" fill="#017AFF" stroke="black" stroke-width="0.12"/>
<path d="M8.78146 10.9889C7.51044 11.2604 6.19381 10.3721 5.84075 9.00515C5.54211 7.84803 6.02934 6.71894 6.95613 6.23438L6.63661 6.40141C5.70982 6.88597 5.22259 8.01506 5.52122 9.17188C5.87399 10.5391 7.19092 11.4274 8.46194 11.1556C8.6576 11.1137 8.8406 11.047 9.00919 10.9588L9.32871 10.7917C9.16012 10.88 8.97712 10.9467 8.78146 10.9886V10.9889Z" fill="#017AFF" stroke="black" stroke-width="0.12"/>
<path d="M7.40176 7.44302L8.8346 7.13965L8.76134 7.40643L8.37298 7.49024C8.40416 7.5168 8.43241 7.54601 8.45771 7.57877C8.49155 7.62185 8.52214 7.67409 8.54745 7.73164L8.96906 7.64251L8.88786 7.92582L8.61365 7.98366C8.65631 8.37881 8.42829 8.68247 8.02756 8.80376L9.20091 9.86055L8.81754 9.94141L7.69186 8.92004L7.63302 8.68188C7.68597 8.67215 7.74158 8.66241 7.7969 8.6506C7.97196 8.61342 8.14702 8.55499 8.24205 8.40448C8.27735 8.34841 8.30325 8.27936 8.31178 8.19318C8.3156 8.15836 8.31178 8.1079 8.29648 8.05094L7.44619 8.23037L7.52474 7.94854L8.20527 7.80453C8.07199 7.61448 7.87398 7.60739 7.65273 7.64546L7.32173 7.71717L7.40146 7.44272L7.40176 7.44302Z" fill="#E8F4FD" stroke="black" stroke-width="0.06"/>
<path d="M12.6882 2.34285C14.5635 1.21659 16.7983 1.89543 17.6798 3.85857C18.5613 5.8217 17.7561 8.32575 15.8808 9.45201C14.0055 10.5783 11.7707 9.89981 10.8892 7.93668C10.0078 5.97354 10.8129 3.46911 12.6882 2.34285Z" fill="#017AFF" stroke="black" stroke-width="0.12"/>
<path d="M18.5664 5.75994C18.5664 5.75182 18.5664 5.7441 18.5664 5.73598C18.5664 5.6788 18.5652 5.622 18.5629 5.56482C18.5629 5.55709 18.5621 5.54975 18.5617 5.54203C18.559 5.48446 18.5554 5.42727 18.5504 5.37009C18.5496 5.36314 18.5492 5.35618 18.5484 5.34923C18.5433 5.29127 18.5367 5.2337 18.5292 5.17614C18.5292 5.17382 18.5288 5.1715 18.5284 5.16918C18.5277 5.16416 18.5269 5.15914 18.5261 5.15373C18.5198 5.10852 18.5128 5.0637 18.5054 5.0185C18.5046 5.01309 18.5038 5.00768 18.5026 5.00227C18.4944 4.95475 18.485 4.90761 18.4752 4.86086C18.4733 4.8512 18.4709 4.84115 18.469 4.8315C18.4588 4.78474 18.4478 4.73799 18.4361 4.69163C18.4345 4.68468 18.4326 4.67811 18.4306 4.67115C18.4193 4.62711 18.4068 4.58345 18.3939 4.53979C18.3927 4.53515 18.3915 4.5309 18.3899 4.52626C18.3892 4.52395 18.3884 4.52202 18.388 4.5197C18.3766 4.48261 18.3649 4.44551 18.3528 4.40881C18.35 4.4007 18.3469 4.39258 18.3442 4.38447C18.3344 4.35549 18.3242 4.32651 18.3136 4.29792C18.3093 4.28594 18.3046 4.27397 18.3 4.26199C18.2902 4.23572 18.28 4.20983 18.2694 4.18356C18.2651 4.17235 18.2604 4.16115 18.2561 4.15033C18.2413 4.11401 18.2256 4.07808 18.2096 4.04215C18.1861 3.98999 18.1615 3.93899 18.136 3.88876C18.1302 3.87755 18.1247 3.86596 18.1188 3.85476C18.1133 3.84433 18.1086 3.83389 18.1032 3.82385C18.0836 3.78637 18.0632 3.74967 18.0421 3.71335C18.0378 3.70601 18.0335 3.69867 18.0292 3.69133C18.001 3.64264 17.9721 3.59473 17.9424 3.54798C17.9412 3.54644 17.9404 3.54489 17.9392 3.54335C17.9216 3.5163 17.904 3.48964 17.886 3.46298C17.8778 3.45062 17.8688 3.43903 17.8602 3.42705C17.8457 3.40619 17.8308 3.38532 17.8156 3.36484C17.796 3.33819 17.7765 3.3123 17.7565 3.28641C17.7412 3.26671 17.7256 3.247 17.7099 3.2273C17.7021 3.21764 17.6951 3.20759 17.6873 3.19832C17.672 3.18016 17.6563 3.16239 17.6411 3.14462C17.6294 3.13071 17.6176 3.1168 17.6055 3.10327C17.5738 3.06773 17.5417 3.03334 17.5092 2.99934C17.5045 2.99432 17.4998 2.98891 17.4948 2.98389C17.494 2.98311 17.4932 2.98234 17.4924 2.98157C17.456 2.94448 17.4193 2.90893 17.3817 2.87377C17.3703 2.86334 17.359 2.85329 17.3477 2.84325C17.3308 2.82818 17.3144 2.81273 17.2976 2.79766C17.2854 2.78723 17.2729 2.77718 17.2608 2.76675C17.2491 2.7567 17.2373 2.74666 17.2252 2.737C17.19 2.70802 17.1544 2.67982 17.1184 2.65238C17.1133 2.64852 17.1086 2.64466 17.1035 2.64079C17.1023 2.64002 17.1012 2.63886 17.1 2.63809C17.0605 2.60872 17.0202 2.58013 16.9795 2.5527C16.9681 2.54497 16.9564 2.53725 16.9447 2.52952C16.9286 2.51909 16.913 2.50788 16.8969 2.49784C16.8801 2.48702 16.8625 2.47697 16.8453 2.46654C16.8335 2.45959 16.8222 2.45224 16.8105 2.44529C16.769 2.42056 16.7271 2.39661 16.6849 2.37381C16.6829 2.37265 16.681 2.37188 16.6794 2.37111C16.6727 2.36763 16.6657 2.36415 16.6591 2.36068C16.6207 2.34058 16.582 2.32127 16.5429 2.30272C16.5292 2.29615 16.5155 2.28997 16.5018 2.28379C16.4885 2.27761 16.4752 2.27104 16.4619 2.26524C16.44 2.25558 16.4176 2.2467 16.3957 2.23742C16.3832 2.2324 16.3711 2.22699 16.3586 2.22197C16.314 2.2042 16.2694 2.18681 16.224 2.17097C16.2197 2.16942 16.2158 2.16788 16.2115 2.16672L15.6825 1.98242C15.7322 1.99981 15.7811 2.01835 15.8296 2.03806C15.8421 2.04308 15.8542 2.04849 15.8668 2.05351C15.9024 2.0682 15.9376 2.08365 15.9724 2.09988C15.9861 2.10606 15.9998 2.11263 16.0135 2.1192C16.0526 2.13774 16.091 2.15706 16.1293 2.17715C16.1359 2.18063 16.143 2.18411 16.1496 2.18758C16.1939 2.21115 16.2377 2.23627 16.2811 2.26177C16.2928 2.26872 16.3042 2.27567 16.3155 2.28263C16.3492 2.30311 16.3824 2.32436 16.4153 2.34599C16.4266 2.35372 16.4384 2.36106 16.4497 2.36879C16.4916 2.39738 16.5331 2.42636 16.5741 2.45688C16.5792 2.46074 16.5839 2.46461 16.589 2.46847C16.625 2.4959 16.6606 2.52411 16.6958 2.55309C16.7076 2.56275 16.7193 2.57279 16.7314 2.58284C16.7608 2.60756 16.7897 2.63345 16.8187 2.65934C16.83 2.66977 16.8414 2.67982 16.8527 2.69025C16.8911 2.72618 16.929 2.7625 16.9658 2.80036C16.9709 2.80538 16.9752 2.81079 16.9803 2.81582C17.0127 2.84982 17.0452 2.8842 17.0765 2.91975C17.0886 2.93327 17.1004 2.94718 17.1121 2.96109C17.1356 2.98814 17.1587 3.01595 17.1814 3.04377C17.197 3.06309 17.2123 3.0828 17.2279 3.1025C17.2479 3.12839 17.2678 3.15466 17.287 3.18093C17.3019 3.20141 17.3167 3.22189 17.3316 3.24314C17.3582 3.28139 17.3848 3.32003 17.4106 3.35944C17.4118 3.36098 17.4126 3.36253 17.4138 3.36407C17.4439 3.41082 17.4725 3.45873 17.5006 3.50741C17.5049 3.51476 17.5092 3.5221 17.5135 3.52944C17.5398 3.5758 17.5652 3.62294 17.5902 3.67085C17.5961 3.68205 17.6016 3.69326 17.6074 3.70446C17.6329 3.75469 17.6575 3.80569 17.681 3.85785C17.697 3.89378 17.7127 3.92971 17.7276 3.96603C17.7323 3.97724 17.7366 3.98844 17.7409 3.99926C17.7514 4.02515 17.7616 4.05142 17.7714 4.07731C17.7761 4.08928 17.7804 4.10126 17.7851 4.11324C17.7956 4.14183 17.8058 4.17081 17.8156 4.19978C17.8183 4.2079 17.8215 4.21601 17.8242 4.22451C17.8363 4.26122 17.8485 4.29831 17.8594 4.3354C17.8614 4.34197 17.8633 4.34892 17.8653 4.35549C17.8782 4.39915 17.8903 4.44281 17.9021 4.48686C17.904 4.49381 17.9056 4.50038 17.9075 4.50733C17.9193 4.5537 17.9302 4.60045 17.9404 4.6472C17.9424 4.65686 17.9447 4.6669 17.9467 4.67656C17.9564 4.7237 17.9658 4.77084 17.974 4.81797C17.9748 4.82338 17.9756 4.82879 17.9768 4.8342C17.9846 4.87902 17.9913 4.92422 17.9975 4.96904C17.9987 4.97638 17.9995 4.98372 18.0006 4.99107C18.0085 5.04863 18.0147 5.1062 18.0198 5.16416C18.0206 5.17111 18.021 5.17807 18.0218 5.18502C18.0269 5.2422 18.0304 5.29977 18.0331 5.35696C18.0331 5.36468 18.0339 5.37202 18.0343 5.37975C18.0366 5.43655 18.0378 5.49373 18.0378 5.55091C18.0378 5.55903 18.0378 5.56675 18.0378 5.57487C18.0378 5.63166 18.0363 5.68846 18.0339 5.74525C18.0335 5.75569 18.0331 5.7665 18.0327 5.77694C18.0316 5.7978 18.0304 5.81866 18.0292 5.83953C18.0284 5.85382 18.0276 5.86773 18.0265 5.88203C18.0249 5.90405 18.0229 5.92646 18.021 5.94848C18.0198 5.96123 18.019 5.97398 18.0179 5.98712C18.0155 6.01339 18.0124 6.03967 18.0096 6.06594C18.0089 6.07444 18.0077 6.08333 18.0069 6.09183C18.0026 6.1266 17.9983 6.16176 17.9932 6.19653C17.9932 6.19924 17.9924 6.20155 17.992 6.20426C17.9842 6.2599 17.9748 6.31553 17.965 6.37078C17.9643 6.37503 17.9635 6.3789 17.9631 6.38315C17.9529 6.43724 17.942 6.49133 17.9302 6.54542C17.9287 6.55315 17.9271 6.56049 17.9251 6.56822C17.9146 6.61419 17.9036 6.65979 17.8919 6.70538C17.8895 6.71465 17.8868 6.72392 17.8844 6.7332C17.8719 6.77995 17.859 6.82708 17.8453 6.87345C17.8324 6.91633 17.8191 6.95883 17.805 7.00095C17.8015 7.01138 17.798 7.02181 17.7945 7.03224C17.7804 7.07436 17.7655 7.11647 17.7502 7.1582C17.7499 7.15936 17.7491 7.1609 17.7487 7.16206C17.7342 7.2007 17.7193 7.23895 17.7041 7.2772C17.6998 7.28802 17.6955 7.29845 17.6912 7.30927C17.6771 7.34327 17.663 7.37766 17.6481 7.41127C17.6458 7.41707 17.6434 7.42286 17.6407 7.42827C17.6239 7.46614 17.6067 7.50361 17.5891 7.5407C17.5844 7.55036 17.5797 7.56002 17.575 7.56968C17.5609 7.59905 17.5464 7.62802 17.5319 7.657C17.5268 7.66705 17.5218 7.67671 17.5167 7.68675C17.4979 7.72307 17.4787 7.75939 17.4592 7.79493C17.4568 7.79918 17.4545 7.80305 17.4521 7.8073C17.4345 7.83937 17.4161 7.87105 17.3977 7.90273C17.3919 7.91316 17.3856 7.92321 17.3793 7.93364C17.3625 7.96184 17.3453 7.98966 17.3281 8.01748C17.3234 8.02521 17.3187 8.03294 17.3136 8.04066C17.2917 8.07505 17.2694 8.10944 17.2467 8.14344C17.2416 8.15116 17.2361 8.15851 17.2311 8.16623C17.2123 8.19405 17.1927 8.22187 17.1732 8.2493C17.1665 8.25857 17.1599 8.26823 17.1532 8.27751C17.1286 8.31151 17.1039 8.34512 17.0781 8.37835C17.0773 8.37912 17.0769 8.37989 17.0761 8.38105C17.0499 8.41505 17.0233 8.44828 16.9963 8.48151C16.9893 8.4904 16.9818 8.4989 16.9748 8.50778C16.9486 8.53946 16.9216 8.57115 16.8946 8.60244C16.8926 8.60437 16.8911 8.60669 16.8891 8.60862C16.8582 8.64378 16.8265 8.67856 16.794 8.71256C16.787 8.72028 16.7796 8.72801 16.7725 8.73574C16.7404 8.76935 16.708 8.80258 16.6747 8.83542C16.6708 8.83928 16.6669 8.84276 16.6634 8.84663C16.625 8.8841 16.5863 8.92081 16.5468 8.95674C16.544 8.95944 16.5413 8.96176 16.5385 8.96447C16.4986 9.0004 16.4579 9.03556 16.4165 9.07033C16.409 9.07651 16.4016 9.08308 16.3938 9.08926C16.3754 9.10433 16.357 9.11901 16.3386 9.1337C16.3288 9.14142 16.3191 9.14954 16.3089 9.15727C16.2846 9.1762 16.2604 9.19474 16.2357 9.21329C16.231 9.21677 16.2267 9.22024 16.2224 9.22372C16.1935 9.24536 16.1637 9.26661 16.134 9.28747C16.125 9.29365 16.116 9.29983 16.1074 9.30602C16.0863 9.3207 16.0651 9.33499 16.0436 9.34929C16.0362 9.35431 16.0287 9.35895 16.0217 9.36358C15.9759 9.39372 15.9298 9.42309 15.8824 9.45129C14.9008 10.0409 13.8209 10.1359 12.8882 9.811L13.4172 9.9953C14.3499 10.3202 15.4301 10.2252 16.4114 9.63559C16.4583 9.60738 16.5049 9.57802 16.5507 9.54788C16.555 9.54518 16.5593 9.54247 16.5636 9.53977C16.5667 9.53784 16.5698 9.53552 16.573 9.5332C16.5941 9.5189 16.6152 9.50461 16.636 9.49031C16.645 9.48413 16.654 9.47795 16.663 9.47177C16.6927 9.4509 16.722 9.42965 16.7514 9.40802C16.7561 9.40454 16.7604 9.40106 16.7647 9.39759C16.7893 9.37904 16.8136 9.36049 16.8379 9.34156C16.8476 9.33384 16.8574 9.32572 16.8676 9.31799C16.886 9.30331 16.9044 9.28824 16.9228 9.27356C16.9263 9.27047 16.9302 9.26777 16.9337 9.26468C16.9376 9.2612 16.9415 9.25772 16.9454 9.25463C16.9869 9.21986 17.0276 9.1847 17.0675 9.14877C17.0703 9.14606 17.073 9.14374 17.0757 9.14104C17.1152 9.10511 17.1544 9.0684 17.1923 9.03092C17.1951 9.02822 17.1978 9.0259 17.2001 9.02358C17.2013 9.02242 17.2025 9.02126 17.2037 9.0201C17.2369 8.98726 17.2694 8.95404 17.3015 8.92042C17.3089 8.91269 17.316 8.90497 17.3234 8.89724C17.3555 8.86285 17.3872 8.82847 17.4181 8.79331C17.4181 8.79331 17.4189 8.79253 17.4193 8.79215C17.4208 8.7906 17.4224 8.78867 17.4236 8.78674C17.4509 8.75583 17.4775 8.72415 17.5038 8.69247C17.5108 8.68397 17.5182 8.67508 17.5253 8.66619C17.5523 8.63296 17.5789 8.59974 17.6051 8.56574C17.6059 8.56496 17.6063 8.56419 17.607 8.56342C17.607 8.56342 17.607 8.56342 17.607 8.56303C17.6325 8.5298 17.6575 8.49619 17.6822 8.46219C17.6888 8.45292 17.6959 8.44326 17.7025 8.43399C17.7221 8.40655 17.7412 8.37912 17.7604 8.3513C17.7639 8.34589 17.7682 8.34048 17.7718 8.33508C17.7733 8.33276 17.7745 8.33044 17.7761 8.32812C17.7988 8.29412 17.8211 8.26012 17.843 8.22535C17.8481 8.21762 17.8528 8.20989 17.8574 8.20178C17.8747 8.17396 17.8919 8.14614 17.9087 8.11794C17.9122 8.11214 17.9157 8.10673 17.9189 8.10132C17.9216 8.09669 17.9244 8.09166 17.9271 8.08703C17.9455 8.05535 17.9639 8.02366 17.9815 7.99198C17.9838 7.98773 17.9862 7.98387 17.9885 7.97962C18.0081 7.94369 18.0273 7.90775 18.046 7.87105C18.048 7.86757 18.0499 7.86371 18.0519 7.86023C18.055 7.85405 18.0582 7.84787 18.0613 7.8413C18.0762 7.81232 18.0902 7.78334 18.1043 7.75398C18.109 7.74432 18.1137 7.73466 18.1184 7.72461C18.136 7.68714 18.1532 7.64966 18.1701 7.61218C18.1708 7.61102 18.1712 7.60948 18.172 7.60832C18.174 7.60407 18.1755 7.59943 18.1775 7.59518C18.1924 7.56157 18.2064 7.52757 18.2205 7.49318C18.2248 7.48236 18.2291 7.47193 18.2334 7.46111C18.2487 7.42286 18.2636 7.38422 18.278 7.34559C18.278 7.34443 18.2788 7.34366 18.2792 7.3425C18.2792 7.3425 18.2792 7.34211 18.2792 7.34172C18.2945 7.3 18.3093 7.25788 18.3234 7.21577C18.3269 7.20534 18.3305 7.1949 18.334 7.18447C18.3633 7.09599 18.3895 7.00674 18.4134 6.91672C18.4158 6.90745 18.4185 6.89818 18.4208 6.8889C18.4326 6.84331 18.4435 6.79772 18.4541 6.75174C18.4549 6.74865 18.4557 6.74595 18.4565 6.74286C18.4576 6.73822 18.4584 6.73358 18.4592 6.72895C18.4709 6.67485 18.4823 6.62115 18.4921 6.56667C18.4928 6.56281 18.4936 6.55856 18.494 6.55469C18.5042 6.49944 18.5132 6.44381 18.521 6.38778C18.521 6.38624 18.5218 6.38431 18.5218 6.38276C18.5218 6.38199 18.5218 6.38122 18.5218 6.38044C18.5269 6.34567 18.5312 6.3109 18.5355 6.27574C18.5367 6.26724 18.5374 6.25835 18.5382 6.24985C18.5414 6.22358 18.5441 6.1973 18.5464 6.17103C18.5476 6.15828 18.5488 6.14553 18.5496 6.13239C18.5515 6.11037 18.5535 6.08796 18.555 6.06594C18.5562 6.05164 18.557 6.03773 18.5578 6.02344C18.559 6.00257 18.5601 5.98171 18.5613 5.96085C18.5613 5.95467 18.5621 5.94887 18.5625 5.94269C18.5625 5.93805 18.5625 5.9338 18.5625 5.92917C18.5648 5.87237 18.566 5.81557 18.5664 5.75878V5.75994Z" fill="#017AFF" stroke="black" stroke-width="0.12"/>
<path d="M13.8922 3.5635L14.3195 3.31738L16.4064 4.6519L15.9964 4.89724L15.4291 4.53753C15.4342 4.60824 15.4338 4.67817 15.4244 4.74926C15.413 4.84315 15.3864 4.94515 15.3477 5.04676L15.962 5.4397L15.5226 5.69547L15.1231 5.44009C15.01 5.58459 14.8817 5.69857 14.7424 5.78086C14.3586 6.00882 13.8915 6.00148 13.4306 5.76077L13.5663 8.47925L13.008 8.12186L12.8867 5.50422L13.1031 5.13717C13.4165 5.3489 13.7803 5.61666 14.1696 5.51968C14.2381 5.50268 14.3081 5.47486 14.3786 5.43313C14.4216 5.40763 14.465 5.37672 14.5085 5.34002C14.5546 5.30099 14.611 5.23377 14.6618 5.1449L13.4235 4.35169L13.8574 4.09398L14.8489 4.7284C14.9181 4.33237 14.6884 4.08664 14.3766 3.86989L13.8922 3.5635Z" fill="#E8F4FD" stroke="black" stroke-width="0.06"/>
</g>
<defs>
<clipPath id="clip0_4017_2706">
<rect width="24" height="24" fill="white"/>
</clipPath>
</defs>
</svg>
