<svg width="24" height="24" viewBox="0 0 24 24" fill="none" xmlns="http://www.w3.org/2000/svg">
<g clip-path="url(#clip0_3396_58006)">
<g filter="url(#filter0_d_3396_58006)">
<g clip-path="url(#clip1_3396_58006)">
<path d="M0 12C0 5.37258 5.37258 0 12 0C18.6274 0 24 5.37258 24 12C24 18.6274 18.6274 24 12 24C5.37258 24 0 18.6274 0 12Z" fill="currentColor"/>
<path d="M10.9449 18.1231C11.7219 17.8302 12.3388 17.4226 12.9333 17.0288L13.095 16.924C13.7247 16.5091 14.3396 16.0242 14.9718 15.4462C16.3712 14.1663 17.2112 12.9104 17.6922 11.3778C17.8885 10.7542 18.1632 9.54338 17.826 8.40601C17.5892 7.59403 17.0877 6.88193 16.3994 6.38012C16.3191 6.30958 15.4488 5.5817 13.806 5.5817C12.3035 5.5817 10.6573 6.18712 8.9118 7.38424L8.85725 7.42099L8.84832 7.42685C8.79563 7.46029 8.74372 7.49493 8.69262 7.53071C8.64994 7.56483 8.60487 7.59593 8.55775 7.62377C8.20209 7.87544 7.86336 8.14965 7.54369 8.4447C6.80633 9.19069 5.96534 10.4373 6.01691 11.4978C6.03922 11.946 6.21873 12.3133 6.54997 12.5857C6.84749 12.8291 7.22088 12.9525 7.65824 12.9525C8.5518 12.9525 9.53163 12.4441 10.202 12.014C10.2442 11.9822 10.2863 11.9513 10.3295 11.9244C10.447 11.8441 10.5625 11.7633 10.6801 11.68L10.7941 11.5987C11.7462 10.9315 12.733 10.2399 13.8422 9.83727C14.1313 9.73342 14.3832 9.68494 14.6143 9.68494C14.7288 9.68494 14.8414 9.69474 14.9485 9.72217C15.1096 9.75737 15.2599 9.82974 15.3872 9.93335C15.5145 10.037 15.6151 10.1689 15.6809 10.3183C15.9373 10.8688 15.8763 11.7339 15.5262 12.5269C15.0482 13.6055 14.227 14.6708 13.0875 15.6897C12.5054 16.2094 11.9693 16.6105 11.4918 16.8809L11.4487 16.9054C11.2255 17.0342 10.9746 17.1792 10.7088 17.2826L10.6726 17.2968C10.5943 17.3276 10.5268 17.356 10.4649 17.3766C9.35014 17.6886 10.029 16.6615 10.029 16.6615C10.2744 16.3568 10.5249 16.1109 10.7907 15.8547C10.9409 15.7063 11.0966 15.554 11.2538 15.3889L11.2885 15.3512C11.4829 15.1474 11.7502 14.8692 11.7348 14.47C11.711 13.9376 11.1973 13.6055 10.7113 13.5913H10.6766C10.211 13.5913 9.76965 13.8783 9.48056 14.1168C9.16665 14.3902 8.89663 14.7092 8.67973 15.0627C8.3837 15.555 7.7589 16.8113 8.36783 17.8145C8.6113 18.2152 9.01742 18.4189 9.57527 18.4189C9.96453 18.4189 10.4247 18.32 10.9449 18.1231Z" fill="currentColor"/>
</g>
</g>
</g>
<defs>
<filter id="filter0_d_3396_58006" x="-6" y="-5" width="36" height="36" filterUnits="userSpaceOnUse" color-interpolation-filters="sRGB">
<feFlood flood-opacity="0" result="BackgroundImageFix"/>
<feColorMatrix in="SourceAlpha" type="matrix" values="0 0 0 0 0 0 0 0 0 0 0 0 0 0 0 0 0 0 127 0" result="hardAlpha"/>
<feOffset dy="1"/>
<feGaussianBlur stdDeviation="3"/>
<feComposite in2="hardAlpha" operator="out"/>
<feColorMatrix type="matrix" values="0 0 0 0 0 0 0 0 0 0 0 0 0 0 0 0 0 0 0.08 0"/>
<feBlend mode="normal" in2="BackgroundImageFix" result="effect1_dropShadow_3396_58006"/>
<feBlend mode="normal" in="SourceGraphic" in2="effect1_dropShadow_3396_58006" result="shape"/>
</filter>
<clipPath id="clip0_3396_58006">
<rect width="24" height="24" fill="currentColor"/>
</clipPath>
<clipPath id="clip1_3396_58006">
<path d="M0 12C0 5.37258 5.37258 0 12 0C18.6274 0 24 5.37258 24 12C24 18.6274 18.6274 24 12 24C5.37258 24 0 18.6274 0 12Z" fill="currentColor"/>
</clipPath>
</defs>
</svg>
