<svg width="24" height="24" viewBox="0 0 24 24" fill="none" xmlns="http://www.w3.org/2000/svg">
<g clip-path="url(#clip0_3396_50199)">
<path d="M24 12C24 5.37258 18.6274 0 12 0C5.37258 0 0 5.37258 0 12C0 18.6274 5.37258 24 12 24C18.6274 24 24 18.6274 24 12Z" fill="currentColor"/>
<path d="M5.62789 15.5261C5.5542 15.5176 5.43904 15.4521 5.35729 15.3865C4.57943 14.6245 5.5782 13.7484 6.73361 13.2406V11.7911C7.00376 11.9632 7.15144 11.9711 7.15935 11.9957L8.04386 11.1195L7.74896 10.3657C10.3374 9.47294 11.3774 9.12881 13.4825 8.77694L13.1051 8.42429L13.7199 8.07258C15.1367 8.53979 16.4723 8.66223 16.2425 9.84986C16.3 9.04721 15.3006 8.73577 13.7772 8.31007L13.4825 8.48996L14.0474 8.95698C11.525 9.39104 9.97688 9.88267 8.13398 10.5214L8.3877 11.1768L7.46243 12.0858C7.61831 12.1268 9.23164 12.6672 10.9103 11.4962C10.9103 11.4962 10.9434 11.4714 10.9434 11.4634C10.8947 11.3815 10.7795 11.2911 10.6405 11.1686C11.132 11.2014 11.4509 11.6353 11.3938 12.0858H11.1645C11.1807 11.9383 11.1479 11.7827 11.0992 11.6764C9.79684 12.6265 8.28968 12.7659 7.00376 12.3152V13.4372C6.3813 13.6584 5.26706 14.3459 5.27558 15.01C5.31641 15.3292 5.48036 15.4438 5.62789 15.5261Z" fill="currentColor"/>
<path d="M10.9467 15.1505C9.55338 15.8548 8.21898 16.42 6.16308 16.5019C3.48487 16.4443 3.06722 14.6667 4.33657 12.8078C5.53241 10.9323 7.43276 9.23646 10.4551 8.17978C11.3311 7.86939 12.6172 7.51674 13.8621 7.50036C15.6477 7.48378 17.3844 8.04092 17.2694 9.75287C17.2038 11.0634 15.3123 12.9142 14.3126 14.2413C13.8866 14.8225 13.8127 15.1995 14.5415 15.1669C17.1877 14.9944 19.5873 14.0775 21.815 13.1272C20.3083 14.1511 12.5186 18.0086 12.4864 15.3799C12.4943 15.0436 12.6497 14.6916 12.9036 14.315C13.1497 13.9381 13.4935 13.5449 13.8457 13.1436C14.3781 12.5376 15.6967 11.0879 16.1389 10.2194C16.8841 8.57327 15.2135 8.49122 13.7719 7.98366L13.1572 8.33537L13.5345 8.68798C11.4294 9.03999 10.3894 9.38398 7.80105 10.2769L8.09595 11.0306L7.2114 11.9068C7.18695 11.8823 7.05581 11.8744 6.78555 11.7021V13.1517C5.63028 13.6596 4.63132 14.5357 5.40922 15.2975C5.49108 15.3632 5.60625 15.4286 5.67993 15.4372C7.09668 16.2398 10.9542 15.1505 10.9467 15.1505Z" fill="currentColor"/>
</g>
<defs>
<clipPath id="clip0_3396_50199">
<rect width="23.25" height="23.25" fill="currentColor" transform="scale(1.03226)"/>
</clipPath>
</defs>
</svg>
