<svg width="60" height="60" viewBox="0 0 60 60" fill="none" xmlns="http://www.w3.org/2000/svg">
<g clip-path="url(#clip0_3396_57077)">
<path d="M59.9869 59.9733H0.0136719V0H59.9869V59.9733Z" fill="white"/>
<path d="M59.9869 32.4841V0.0263672H0.0136719V59.9996H59.9869V42.5019C59.8534 42.5019 59.9869 32.4841 59.9869 32.4841Z" fill="#006FCF"/>
<path d="M52.6405 29.1449H57.1819V18.5928H52.2398V20.0621L51.3048 18.5928H47.0306V20.4628L46.2291 18.5928H38.3485C38.0813 18.5928 37.8142 18.7263 37.547 18.7263C37.2799 18.7263 37.1463 18.8599 36.8792 18.9935C36.612 19.1271 36.4785 19.1271 36.2113 19.2606V18.5928H13.6379L12.97 20.3292L12.3022 18.5928H6.95935V20.4628L6.15792 18.5928H1.88366L0.0136719 23.1342V29.1449H3.0858L3.62008 27.6756H4.68865L5.22293 29.1449H28.7314V27.8092L29.6664 29.1449H36.2113V28.3434C36.3449 28.477 36.612 28.477 36.7456 28.6106C36.8792 28.7441 37.1463 28.7441 37.2799 28.8777C37.547 29.0113 37.8142 29.0113 38.0813 29.0113H42.8899L43.4242 27.542H44.4927L45.027 29.0113H51.572V27.6756L52.6405 29.1449ZM59.9869 42.5019V32.6177H23.255L22.32 33.9534L21.385 32.6177H10.6993V43.1698H21.385L22.32 41.8341L23.255 43.1698H29.9335V40.8991H29.6664C30.6014 40.8991 31.4028 40.7655 32.0706 40.4984V43.3034H36.8792V41.9676L37.8142 43.3034H57.7162C58.5176 43.0362 59.3191 42.9026 59.9869 42.5019Z" fill="white"/>
<path d="M57.7162 39.964H54.1098V41.4333H57.5826C59.0519 41.4333 59.9869 40.4983 59.9869 39.1626C59.9869 37.8269 59.1855 37.159 57.8498 37.159H56.2469C55.8462 37.159 55.5791 36.8919 55.5791 36.4912C55.5791 36.0904 55.8462 35.8233 56.2469 35.8233H59.3191L59.9869 34.354H56.3805C54.9112 34.354 53.9762 35.289 53.9762 36.4912C53.9762 37.8269 54.7777 38.4947 56.1134 38.4947H57.7162C58.1169 38.4947 58.3841 38.7619 58.3841 39.1626C58.5176 39.6969 58.2505 39.964 57.7162 39.964ZM51.1713 39.964H47.5648V41.4333H51.0377C52.507 41.4333 53.442 40.4983 53.442 39.1626C53.442 37.8269 52.6405 37.159 51.3048 37.159H49.702C49.3013 37.159 49.0341 36.8919 49.0341 36.4912C49.0341 36.0904 49.3013 35.8233 49.702 35.8233H52.7741L53.442 34.354H49.8355C48.3663 34.354 47.4313 35.289 47.4313 36.4912C47.4313 37.8269 48.2327 38.4947 49.5684 38.4947H51.1713C51.572 38.4947 51.8391 38.7619 51.8391 39.1626C51.9727 39.6969 51.572 39.964 51.1713 39.964ZM46.4963 35.6897V34.2205H40.8863V41.2997H46.4963V39.8304H42.4892V38.3612H46.3627V36.8919H42.4892V35.5562H46.4963V35.6897ZM37.4135 35.6897C38.0813 35.6897 38.3485 36.0904 38.3485 36.4912C38.3485 36.8919 38.0813 37.2926 37.4135 37.2926H35.4099V35.5562L37.4135 35.6897ZM35.4099 38.7619H36.2113L38.3485 41.2997H40.352L37.9478 38.6283C39.1499 38.3611 39.8177 37.5597 39.8177 36.4912C39.8177 35.1555 38.8828 34.2205 37.4135 34.2205H33.6735V41.2997H35.2763L35.4099 38.7619ZM31.1356 36.6247C31.1356 37.159 30.8685 37.5597 30.2007 37.5597H28.0635V35.6897H30.0671C30.7349 35.6897 31.1356 36.0904 31.1356 36.6247ZM26.4607 34.2205V41.2997H28.0635V38.8954H30.2007C31.6699 38.8954 32.7385 37.9604 32.7385 36.4912C32.7385 35.1555 31.8035 34.0869 30.3342 34.0869L26.4607 34.2205ZM24.0564 41.2997H26.06L23.255 37.6933L26.06 34.2205H24.0564L22.32 36.4912L20.5836 34.2205H18.58L21.385 37.6933L18.58 41.1661H20.5836L22.32 38.8954L24.0564 41.2997ZM18.0457 35.6897V34.2205H12.4357V41.2997H18.0457V39.8304H14.0386V38.3612H17.9121V36.8919H14.0386V35.5562H18.0457V35.6897ZM50.5034 23.1341L53.3084 27.4083H55.312V20.3291H53.7091V25.0041L53.3084 24.3362L50.7705 20.3291H48.6334V27.4083H50.2363V22.5998L50.5034 23.1341ZM43.5577 23.0005L44.092 21.5312L44.6263 23.0005L45.2941 24.6034H42.8899L43.5577 23.0005ZM46.3627 27.4083H48.0991L45.027 20.3291H42.8899L39.8177 27.4083H41.5542L42.222 25.9391H45.6949L46.3627 27.4083ZM38.8828 27.4083L39.5506 25.9391H39.1499C37.9478 25.9391 37.2799 25.1376 37.2799 23.9355V23.8019C37.2799 22.5998 37.9478 21.7984 39.1499 21.7984H40.8863V20.3291H39.0163C36.8792 20.3291 35.6771 21.7984 35.6771 23.8019V23.9355C35.6771 26.0726 36.8792 27.4083 38.8828 27.4083ZM32.8721 27.4083H34.4749V20.4627H32.8721V27.4083ZM29.3992 21.7984C30.0671 21.7984 30.3342 22.1991 30.3342 22.5998C30.3342 23.0005 30.0671 23.4012 29.3992 23.4012H27.3957V21.6648L29.3992 21.7984ZM27.3957 24.8705H28.1971L30.3342 27.4083H32.3378L29.9335 24.7369C31.1356 24.4698 31.8035 23.6684 31.8035 22.5998C31.8035 21.2641 30.8685 20.3291 29.3992 20.3291H25.6593V27.4083H27.2621L27.3957 24.8705ZM24.4571 21.7984V20.3291H18.8471V27.4083H24.4571V25.9391H20.45V24.4698H24.3235V23.0005H20.45V21.6648H24.4571V21.7984ZM12.3022 27.4083H13.7715L15.775 21.6648V27.4083H17.3779V20.3291H14.7065L13.1036 25.1376L11.5008 20.3291H8.82934V27.4083H10.4322V21.6648L12.3022 27.4083ZM3.62008 23.0005L4.15436 21.5312L4.68865 23.0005L5.3565 24.6034H2.95223L3.62008 23.0005ZM6.42507 27.4083H8.16149L5.08936 20.3291H3.0858L0.0136719 27.4083H1.75009L2.41794 25.9391H5.89078L6.42507 27.4083Z" fill="#006FCF"/>
</g>
<defs>
<clipPath id="clip0_3396_57077">
<rect width="60" height="60" fill="white"/>
</clipPath>
</defs>
</svg>
