<svg width="24" height="24" viewBox="0 0 24 24" fill="none" xmlns="http://www.w3.org/2000/svg">
<g clip-path="url(#clip0_3323_37366)">
<g filter="url(#filter0_d_3323_37366)">
<path d="M0 12C0 5.37258 5.37258 0 12 0C18.6274 0 24 5.37258 24 12C24 18.6274 18.6274 24 12 24C5.37258 24 0 18.6274 0 12Z" fill="#FBFAF8"/>
<path fill-rule="evenodd" clip-rule="evenodd" d="M10.3175 11.6983H11.8232L9.57196 6.81738H7.83273L5.57422 11.6983H7.05008L7.48678 10.7014H9.88078L10.3175 11.6983ZM15.8431 11.6983H14.6765L13.2914 8.08628V11.6983H11.9658V6.81738H14.0964L15.2785 9.92716L16.4532 6.81738H18.5614V11.6983H17.2364V8.08628L15.8431 11.6983ZM12.6704 12.8573V13.952H9.71923V14.7471H12.6027V15.8135H9.71923V16.6436H12.6704V17.7383H8.3787V12.8573H12.6704ZM18.5811 17.7383H16.9021L15.6523 16.2248L14.41 17.7383H12.7763L14.8766 15.3044L12.7689 12.8573H14.4473L15.6896 14.3564L16.9319 12.8573H18.5662L16.4579 15.2768L18.5811 17.7383ZM8.67612 7.96787L7.94564 9.64133H9.41405L8.67612 7.96787Z" fill="#006FAC"/>
</g>
</g>
<defs>
<filter id="filter0_d_3323_37366" x="-6" y="-5" width="36" height="36" filterUnits="userSpaceOnUse" color-interpolation-filters="sRGB">
<feFlood flood-opacity="0" result="BackgroundImageFix"/>
<feColorMatrix in="SourceAlpha" type="matrix" values="0 0 0 0 0 0 0 0 0 0 0 0 0 0 0 0 0 0 127 0" result="hardAlpha"/>
<feOffset dy="1"/>
<feGaussianBlur stdDeviation="3"/>
<feComposite in2="hardAlpha" operator="out"/>
<feColorMatrix type="matrix" values="0 0 0 0 0 0 0 0 0 0 0 0 0 0 0 0 0 0 0.08 0"/>
<feBlend mode="normal" in2="BackgroundImageFix" result="effect1_dropShadow_3323_37366"/>
<feBlend mode="normal" in="SourceGraphic" in2="effect1_dropShadow_3323_37366" result="shape"/>
</filter>
<clipPath id="clip0_3323_37366">
<rect width="24" height="24" fill="white"/>
</clipPath>
</defs>
</svg>
