<svg width="163" height="40" viewBox="0 0 163 40" fill="none" xmlns="http://www.w3.org/2000/svg">
<path d="M29.937 0H0V25.0313L14.9685 39.9998V9.93706L29.937 24.9056V0Z" fill="#009286"/>
<path d="M29.9372 25.0318L14.9688 40.0003V9.9375L29.9372 25.0318Z" fill="#F3C000"/>
<path d="M156.477 2.13965C150.439 2.13965 150.438 6.54116 150.438 11.1952C150.438 15.8493 150.439 20.2508 156.477 20.2508C162.515 20.2508 162.516 15.8493 162.516 11.1952C162.516 6.54116 162.515 2.13965 156.477 2.13965ZM45.1568 2.51553L40.376 20.0002H43.899L44.9062 16.1014H49.9376L50.9425 20.0002H54.8413L50.0629 2.51553H45.1568ZM57.8607 2.51553V20.0002H64.2752C65.7847 20.0002 69.685 19.7496 69.685 15.3471C69.685 12.9572 69.0566 11.322 66.4151 10.9446C68.4276 10.5673 69.4344 9.0559 69.4344 7.04333C69.4344 3.26976 67.1703 2.51553 64.403 2.51553H57.8607ZM73.9622 2.51553V20.0002H77.3574V7.17107H77.4827L82.2636 20.0002H87.0444V2.51553H83.6467V14.5905L78.9936 2.51553H73.9622ZM101.131 2.51553L96.3506 20.0002H99.8736L100.881 16.1014H105.912L106.917 20.0002H110.816L105.912 2.51553H101.131ZM113.71 2.51553V20.0002H117.233V6.54215H117.358L120.503 20.0002H124.023L127.421 6.54215V20.0002H130.942V2.51553H125.281L122.39 14.4652L119.621 2.51553H113.71ZM135.722 2.64082V20.0002H139.371V12.7037H140.376C143.143 12.7037 143.019 14.4666 143.019 16.605C143.019 17.7371 142.892 18.8682 143.395 20.0002H146.918C146.541 19.2455 146.54 15.9756 146.54 14.8435C146.54 11.6989 144.15 11.4458 143.395 11.4458C145.785 11.0685 146.665 9.43521 146.665 7.17107C146.665 4.15222 145.031 2.64083 142.515 2.64083L135.722 2.64082ZM156.477 4.90594C158.49 4.90594 158.742 6.79223 158.742 11.3205C158.742 15.8488 158.615 17.7351 156.477 17.7351C154.465 17.7351 154.212 15.8488 154.212 11.3205C154.212 6.79223 154.465 4.90594 156.477 4.90594ZM61.5089 5.15653H63.7741C65.0319 5.15653 65.9114 6.16379 65.9114 7.42165C65.9114 9.05686 64.7794 9.68677 64.0247 9.68677H61.5089V5.15653ZM139.371 5.15653H141.004C142.137 5.15653 142.891 5.78644 142.891 7.42165C142.891 8.55372 142.514 9.93736 141.004 9.93736H139.371V5.15653ZM47.2942 5.9132L49.181 13.4603H45.6604L47.2942 5.9132ZM103.269 5.9132L105.156 13.4603H101.635L103.269 5.9132ZM92.8497 7.56906L90.5379 9.88331L92.8522 12.1951L95.164 9.88086L92.8497 7.56906ZM61.5089 12.3278H63.6463C65.5331 12.3278 66.0367 13.3341 66.0367 14.8435C66.0367 17.2334 64.2757 17.3592 63.521 17.3592H61.5089V12.3278Z" fill="#868686"/>
</svg>
