<svg width="24" height="24" viewBox="0 0 24 24" fill="none" xmlns="http://www.w3.org/2000/svg">
<g clip-path="url(#clip0_4017_3125)">
<path d="M12.0365 1.79883L18.642 5.54215V18.4328L12.0365 22.1762L5.35853 18.4328V5.54215L12.0365 1.79883Z" fill="#017AFF" stroke="black" stroke-width="0.0864"/>
<path d="M5.35853 6.24123L12.041 2.49345V1.81934L5.35853 5.56266V6.24123ZM18.642 6.24123L12.0365 2.49345V1.81934L18.642 5.56712V6.24123Z" fill="white"/>
<path d="M5.35795 6.01562L12.0404 9.83707V22.1987L5.35795 18.451V6.01562Z" fill="white" stroke="black" stroke-width="0.0864"/>
<path d="M18.642 6.01562L12.0365 9.83707V22.1987L18.642 18.451V6.01562Z" fill="#017AFF" stroke="black" stroke-width="0.0864"/>
<path d="M5.35853 7.43945L12.041 11.2609V11.935L5.35853 8.11356V7.43945ZM18.642 7.43945L12.0365 11.2609V11.935L18.642 8.11356V7.43945ZM5.35853 9.31223L12.041 13.1337V13.8078L5.35853 9.98634V9.31223Z" fill="white" stroke="black" stroke-width="0.0864"/>
<path d="M18.642 9.30957L12.0365 13.131V13.8051L18.642 9.98368V9.30957ZM5.35853 9.30957L12.041 13.131V13.8051L5.35853 9.98368V9.30957Z" fill="white" stroke="black" stroke-width="0.0864"/>
<path d="M18.642 9.30957L12.0365 13.131V13.8051L18.642 9.98368V9.30957ZM5.35853 11.1846L12.041 15.0016V15.6757L5.35853 11.8542V11.1823V11.1846Z" fill="white" stroke="black" stroke-width="0.0864"/>
<path d="M18.642 11.1868L12.0365 15.0038V15.6779L18.642 11.8564V11.1846V11.1868ZM5.35853 13.0596L12.041 16.881V17.5551L5.35853 13.7337V13.0596Z" fill="white" stroke="black" stroke-width="0.0864"/>
<path d="M18.642 13.0585L12.0365 16.8799V17.5541L18.642 13.7326V13.0585ZM5.35853 14.9313L12.041 18.7527V19.4268L5.35853 15.6054V14.9313ZM18.642 14.9313L12.0365 18.7527V19.4268L18.642 15.6054V14.9313ZM5.35853 16.8063L12.041 20.6277V21.2996L5.35853 17.4804V16.8063ZM18.642 16.8063L12.0365 20.6277V21.2996L18.642 17.4782V16.8063ZM5.35853 5.56738L12.041 9.38437V10.0585L5.35853 6.24149V5.56738ZM18.642 5.56738L12.0365 9.38437V10.0585L18.642 6.24149V5.56738Z" fill="white" stroke="black" stroke-width="0.0864"/>
<path d="M7.71089 17.5557L9.61047 18.6003V20.8503L7.71089 19.8012V17.5557Z" fill="#017AFF" stroke="black" stroke-width="0.0864"/>
</g>
<defs>
<clipPath id="clip0_4017_3125">
<rect width="24" height="24" fill="white"/>
</clipPath>
</defs>
</svg>
