<svg width="16" height="16" viewBox="0 0 16 16" fill="none" xmlns="http://www.w3.org/2000/svg">
<g clip-path="url(#clip0_3396_55363)">
<path d="M15.5 7.75C15.5 3.46979 12.0302 0 7.75 0C3.46979 0 0 3.46979 0 7.75C0 12.0302 3.46979 15.5 7.75 15.5C12.0302 15.5 15.5 12.0302 15.5 7.75Z" fill="currentColor"/>
<path d="M10.2916 7.58878L9.91662 9.05517H5.97265L6.09762 8.57087H6.1254C6.3615 8.57087 6.5698 8.40943 6.63922 8.19417C6.63922 8.18071 7.1114 6.36452 7.1114 6.36452C7.1253 6.33761 7.1253 6.29726 7.1253 6.27036C7.1253 6.09545 6.97252 5.94747 6.792 5.94747H6.76422L6.86142 5.57077H9.00007L8.90285 5.94747H8.87507C8.62512 5.94747 8.4168 6.10891 8.34737 6.33761L7.8752 8.15382V8.16727C7.8752 8.19417 7.8752 8.20764 7.8752 8.23455C7.8752 8.40943 8.02797 8.5574 8.2085 8.5574H8.5418C9.13895 8.54396 9.63887 8.14036 9.77775 7.60222V7.57534H10.2916V7.58878ZM8.0002 4.38689C8.764 3.78149 9.74997 3.41826 10.8054 3.41826C11.0276 3.41826 11.2498 3.4317 11.472 3.47207C12.7774 4.46761 13.6245 6.01475 13.6245 7.75022C12.5969 5.75912 10.4582 4.38689 8.0002 4.38689ZM12.4163 11.127C11.3887 12.3916 9.79165 13.2122 8.0002 13.2122C10.0555 12.2167 11.472 10.1449 11.472 7.76366C12.0969 8.50359 12.4719 9.45878 12.4719 10.4812C12.4719 10.6965 12.458 10.9117 12.4163 11.127ZM5.18107 7.75022C5.18107 6.24345 6.44482 5.01919 7.9863 5.01919C9.54167 5.01919 10.7915 6.24345 10.7915 7.75022C10.7915 9.25699 9.5278 10.4678 7.9863 10.4678C6.44482 10.4812 5.18107 9.25699 5.18107 7.75022ZM5.18107 12.0822C4.95887 12.0822 4.73667 12.0687 4.51447 12.0284C3.20907 11.0328 2.37584 9.48569 2.37584 7.75022C3.4035 9.74129 5.54215 11.1135 8.0002 11.1135C7.2364 11.7189 6.2504 12.0822 5.18107 12.0822ZM3.58405 4.38689C4.6117 3.12228 6.20872 2.30163 8.0002 2.30163C5.94487 3.29717 4.52837 5.36898 4.52837 7.75022C3.90345 7.01029 3.5285 6.0551 3.5285 5.01919C3.5285 4.8174 3.54237 4.60214 3.58405 4.38689ZM8.0002 1.21191C4.2784 1.21191 1.25098 4.14472 1.25098 7.75022C1.25098 11.3557 4.2784 14.2885 8.0002 14.2885C11.722 14.2885 14.7494 11.3557 14.7494 7.75022C14.7494 4.14472 11.722 1.21191 8.0002 1.21191Z" fill="currentColor"/>
</g>
<defs>
<clipPath id="clip0_3396_55363">
<rect width="16" height="15.5" fill="currentColor"/>
</clipPath>
</defs>
</svg>
