<svg width="116" height="60" viewBox="0 0 116 60" fill="none" xmlns="http://www.w3.org/2000/svg">
<g clip-path="url(#clip0_3396_56988)">
<path d="M115.887 51.002H0V60.0003H115.887V51.002Z" fill="#EF6719"/>
<path d="M115.605 51.2842H0.282227V59.7184H115.605V51.2842Z" fill="#EF6719"/>
<path d="M115.887 0H0V51.0016H115.887V0Z" fill="#612E87"/>
<path fill-rule="evenodd" clip-rule="evenodd" d="M24.5303 26.3082H28.8353L26.6807 21.1855L24.5303 26.3082Z" fill="#EF6719"/>
<path fill-rule="evenodd" clip-rule="evenodd" d="M49.1493 26.0425C49.1493 30.744 46.5083 33.0498 42.3423 33.0498C38.1763 33.0498 35.6211 30.7195 35.6211 26.1529V18.8552C35.6211 17.9026 36.3774 17.1463 37.33 17.1463C38.2826 17.1463 39.0348 17.9026 39.0348 18.8552V26.0629C39.0348 28.5936 40.2981 29.9018 42.3832 29.9018C44.4682 29.9018 45.7315 28.6385 45.7315 26.1733V18.8552C45.7315 17.9026 46.4837 17.1463 47.4404 17.1463C48.3971 17.1463 49.1493 17.9026 49.1493 18.8552V26.0425ZM32.7838 32.9394C31.9866 32.9394 31.451 32.4734 31.1403 31.762L30.0978 29.3213H23.2662L22.1788 31.8724C21.8885 32.5388 21.312 32.9354 20.6048 32.9354C19.7176 32.9354 19.0308 32.224 19.0308 31.3368C19.0308 31.0956 19.1207 30.8503 19.2311 30.605L24.6399 18.3851C25.016 17.5388 25.7029 17.0318 26.635 17.0318H26.8353C27.7675 17.0318 28.4339 17.5429 28.81 18.3851L34.2229 30.605C34.3333 30.8503 34.4028 31.0711 34.4028 31.2919C34.4028 32.2036 33.6914 32.9354 32.7838 32.9354V32.9394ZM34.9343 5.04492C23.6383 5.04492 14.4805 14.2027 14.4805 25.4987C14.4805 36.7947 23.6383 45.9525 34.9343 45.9525C46.2303 45.9525 55.3881 36.7947 55.3881 25.4987C55.3881 14.2027 46.2262 5.04492 34.9302 5.04492H34.9343Z" fill="#EF6719"/>
<path fill-rule="evenodd" clip-rule="evenodd" d="M64.3947 13.05L63.4831 10.875L62.5714 13.05H64.3988H64.3947ZM60.3187 14.8774L62.6163 9.69346C62.7758 9.33369 63.066 9.12109 63.4626 9.12109H63.5485C63.945 9.12109 64.2271 9.33777 64.3866 9.69346L66.6842 14.8774C66.7333 14.9796 66.7619 15.0737 66.7619 15.1677C66.7619 15.552 66.4593 15.8627 66.075 15.8627C65.7357 15.8627 65.5109 15.6665 65.38 15.3639L64.9385 14.3296H62.0399L61.5779 15.413C61.4553 15.6951 61.21 15.8668 60.9115 15.8668C60.5354 15.8668 60.2451 15.5643 60.2451 15.1881C60.2451 15.0859 60.2819 14.9796 60.331 14.8774H60.3187Z" fill="white"/>
<path fill-rule="evenodd" clip-rule="evenodd" d="M67.2726 12.9847V9.88983C67.2726 9.48509 67.5915 9.1662 67.9963 9.1662C68.401 9.1662 68.7199 9.48509 68.7199 9.88983V12.9479C68.7199 14.019 69.2555 14.575 70.1426 14.575C71.0298 14.575 71.5654 14.0395 71.5654 12.9929V9.88574C71.5654 9.481 71.8843 9.16211 72.289 9.16211C72.6937 9.16211 73.0126 9.481 73.0126 9.88574V12.9356C73.0126 14.9307 71.8924 15.9078 70.1222 15.9078C68.352 15.9078 67.2686 14.9184 67.2686 12.9806L67.2726 12.9847Z" fill="white"/>
<path fill-rule="evenodd" clip-rule="evenodd" d="M60.4985 23.6386C60.3391 23.5241 60.2246 23.3197 60.2246 23.0908C60.2246 22.7146 60.5271 22.4244 60.9033 22.4244C61.0913 22.4244 61.2222 22.4898 61.3162 22.5552C61.815 22.9231 62.3587 23.148 63.0006 23.148C63.5934 23.148 63.9531 22.915 63.9531 22.5266V22.5102C63.9531 22.1423 63.7283 21.9542 62.6244 21.6721C61.2998 21.3328 60.4413 20.9649 60.4413 19.6566V19.6402C60.4413 18.4465 61.402 17.6533 62.7471 17.6533C63.5484 17.6533 64.2434 17.8618 64.8362 18.2379C64.9957 18.332 65.1551 18.5282 65.1551 18.8103C65.1551 19.1864 64.8526 19.4808 64.4765 19.4808C64.3375 19.4808 64.223 19.444 64.1085 19.3786C63.6302 19.0965 63.1764 18.937 62.7267 18.937C62.1706 18.937 61.8804 19.1905 61.8804 19.5135V19.5339C61.8804 19.9673 62.1625 20.1063 63.3031 20.4007C64.64 20.7482 65.3922 21.2306 65.3922 22.3753V22.3958C65.3922 23.704 64.3947 24.4358 62.972 24.4358C62.1052 24.4358 61.2303 24.1742 60.4985 23.6468V23.6386Z" fill="white"/>
<path fill-rule="evenodd" clip-rule="evenodd" d="M66.2756 18.4338C66.2756 18.029 66.5945 17.7101 66.9992 17.7101H67.1586C67.4694 17.7101 67.686 17.8696 67.8169 18.0863L69.5667 20.9358L71.3246 18.074C71.4759 17.8287 71.6844 17.7061 71.9747 17.7061H72.1341C72.5389 17.7061 72.8577 18.029 72.8577 18.4297V23.6627C72.8577 24.0675 72.5389 24.3863 72.1341 24.3863C71.7294 24.3863 71.4187 24.0552 71.4187 23.6627V20.3798L70.1472 22.3381C69.9959 22.563 69.8079 22.7061 69.5462 22.7061C69.2846 22.7061 69.0965 22.5671 68.9452 22.3381L67.6942 20.4084V23.6832C67.6942 24.0797 67.3753 24.3904 66.9788 24.3904C66.5822 24.3904 66.2715 24.0797 66.2715 23.6832V18.4338H66.2756Z" fill="white"/>
<path fill-rule="evenodd" clip-rule="evenodd" d="M77.7758 21.5783L76.8641 19.4033L75.9524 21.5783H77.7799H77.7758ZM73.6997 23.4058L75.9974 18.2218C76.1568 17.8661 76.4471 17.6494 76.8437 17.6494H76.9295C77.3261 17.6494 77.6082 17.8661 77.7676 18.2218L80.0652 23.4058C80.1143 23.508 80.1388 23.602 80.1388 23.696C80.1388 24.0803 79.8363 24.3951 79.452 24.3951C79.1127 24.3951 78.8878 24.1989 78.757 23.8963L78.3154 22.862H75.4168L74.9549 23.9454C74.8322 24.2275 74.5869 24.3992 74.2885 24.3992C73.9123 24.3992 73.6221 24.0967 73.6221 23.7206C73.6221 23.6183 73.6589 23.512 73.7079 23.4098L73.6997 23.4058Z" fill="white"/>
<path fill-rule="evenodd" clip-rule="evenodd" d="M80.8994 18.4141C80.8994 18.0093 81.2183 17.6904 81.623 17.6904C82.0278 17.6904 82.3467 18.0093 82.3467 18.4141V23.0175H85.0286C85.3965 23.0175 85.6868 23.3078 85.6868 23.6757C85.6868 24.0437 85.3925 24.3339 85.0286 24.3339H81.623C81.2183 24.3339 80.8994 24.015 80.8994 23.6103V18.4141Z" fill="white"/>
<path fill-rule="evenodd" clip-rule="evenodd" d="M86.3496 18.4141C86.3496 18.0093 86.6685 17.6904 87.0732 17.6904C87.478 17.6904 87.7969 18.0093 87.7969 18.4141V23.0175H90.4788C90.8467 23.0175 91.137 23.3078 91.137 23.6757C91.137 24.0437 90.8467 24.3339 90.4788 24.3339H87.0732C86.6685 24.3339 86.3496 24.015 86.3496 23.6103V18.4141Z" fill="white"/>
<path fill-rule="evenodd" clip-rule="evenodd" d="M60.2334 26.999C60.2334 26.5943 60.5523 26.2754 60.957 26.2754H64.6447C65.0126 26.2754 65.3029 26.5657 65.3029 26.9336C65.3029 27.3016 65.0126 27.5918 64.6447 27.5918H61.6807V28.9941H64.2195C64.5874 28.9941 64.8777 29.2844 64.8777 29.6523C64.8777 30.0203 64.5874 30.3106 64.2195 30.3106H61.6807V32.1912C61.6807 32.5959 61.3618 32.9148 60.957 32.9148C60.5523 32.9148 60.2334 32.5959 60.2334 32.1912V26.9949V26.999Z" fill="white"/>
<path fill-rule="evenodd" clip-rule="evenodd" d="M66.0957 26.9424C66.0957 26.5376 66.4146 26.2188 66.8193 26.2188C67.2241 26.2188 67.543 26.5376 67.543 26.9424V32.1959C67.543 32.6006 67.2241 32.9195 66.8193 32.9195C66.4146 32.9195 66.0957 32.6006 66.0957 32.1959V26.9424Z" fill="white"/>
<path fill-rule="evenodd" clip-rule="evenodd" d="M68.8184 26.9626C68.8184 26.5579 69.1372 26.239 69.542 26.239H69.6933C70.0408 26.239 70.2493 26.4066 70.4455 26.6642L73.2419 30.3355V26.9381C73.2419 26.5456 73.5608 26.2227 73.9574 26.2227C74.3539 26.2227 74.6728 26.5415 74.6728 26.9381V32.1793C74.6728 32.5841 74.3539 32.903 73.9492 32.903H73.9001C73.5526 32.903 73.3441 32.7353 73.1479 32.4819L70.2493 28.6797V32.2079C70.2493 32.6045 69.9304 32.9234 69.5338 32.9234C69.1372 32.9234 68.8184 32.6045 68.8184 32.2079V26.9667V26.9626Z" fill="white"/>
<path fill-rule="evenodd" clip-rule="evenodd" d="M79.5834 30.1027L78.6717 27.9277L77.76 30.1027H79.5875H79.5834ZM75.5074 31.9302L77.805 26.7462C77.9644 26.3905 78.2547 26.1738 78.6513 26.1738H78.7371C79.1337 26.1738 79.4158 26.3905 79.5752 26.7462L81.8729 31.9302C81.9178 32.0324 81.9465 32.1264 81.9465 32.2204C81.9465 32.6088 81.6439 32.9154 81.2596 32.9154C80.9203 32.9154 80.6954 32.7192 80.5646 32.4167L80.1231 31.3823H77.2245L76.7625 32.4657C76.6398 32.7478 76.3945 32.9154 76.0961 32.9154C75.72 32.9154 75.4297 32.6129 75.4297 32.2368C75.4297 32.1305 75.4665 32.0283 75.5155 31.9261L75.5074 31.9302Z" fill="white"/>
<path fill-rule="evenodd" clip-rule="evenodd" d="M82.7061 26.9626C82.7061 26.5579 83.0249 26.239 83.4297 26.239H83.581C83.9285 26.239 84.137 26.4066 84.3332 26.6642L87.1296 30.3355V26.9381C87.1296 26.5456 87.4485 26.2227 87.8451 26.2227C88.2416 26.2227 88.5605 26.5415 88.5605 26.9381V32.1793C88.5605 32.5841 88.2416 32.903 87.8369 32.903H87.7878C87.4403 32.903 87.2318 32.7353 87.0356 32.4819L84.137 28.6797V32.2079C84.137 32.6045 83.8181 32.9234 83.4215 32.9234C83.0249 32.9234 82.7061 32.6045 82.7061 32.2079V26.9667V26.9626Z" fill="white"/>
<path fill-rule="evenodd" clip-rule="evenodd" d="M89.4727 29.5871V29.5667C89.4727 27.6942 90.8831 26.1611 92.9068 26.1611C93.8962 26.1611 94.5626 26.4228 95.1104 26.8275C95.2617 26.9379 95.3925 27.1464 95.3925 27.3999C95.3925 27.7965 95.0736 28.1072 94.6771 28.1072C94.4808 28.1072 94.35 28.0336 94.2437 27.9682C93.839 27.6656 93.4179 27.498 92.8987 27.498C91.7907 27.498 90.9894 28.4179 90.9894 29.5503V29.5667C90.9894 30.6951 91.7703 31.6395 92.8987 31.6395C93.5119 31.6395 93.9166 31.4514 94.3296 31.1203C94.444 31.0262 94.5912 30.9608 94.7629 30.9608C95.1309 30.9608 95.4416 31.2633 95.4416 31.6272C95.4416 31.8521 95.3271 32.0319 95.1963 32.1464C94.6035 32.6656 93.9085 32.9723 92.8537 32.9723C90.9158 32.9723 89.4767 31.4759 89.4767 29.5871H89.4727Z" fill="white"/>
<path fill-rule="evenodd" clip-rule="evenodd" d="M96.3291 32.138V26.999C96.3291 26.5943 96.648 26.2754 97.0527 26.2754H100.761C101.117 26.2754 101.411 26.5657 101.411 26.9254C101.411 27.2852 101.121 27.5632 100.761 27.5632H97.7682V28.9001H100.282C100.638 28.9001 100.933 29.1904 100.933 29.5501C100.933 29.9099 100.642 30.192 100.282 30.192H97.7682V31.5738H100.753C101.108 31.5738 101.403 31.8641 101.403 32.2239C101.403 32.5837 101.112 32.8617 100.753 32.8617H97.0527C96.648 32.8617 96.3291 32.5428 96.3291 32.138Z" fill="white"/>
<path fill-rule="evenodd" clip-rule="evenodd" d="M63.3689 40.1673C64.0067 40.1673 64.3951 39.9425 64.3951 39.4519V39.4355C64.3951 38.994 64.064 38.7201 63.3199 38.7201H61.6437V40.1673H63.3649H63.3689ZM62.9846 37.514C63.6224 37.514 64.0272 37.3055 64.0272 36.819V36.8027C64.0272 36.3693 63.6878 36.124 63.0746 36.124H61.6437V37.5181H62.9806L62.9846 37.514ZM60.2373 35.5762C60.2373 35.1714 60.5562 34.8525 60.9609 34.8525H63.2954C64.0476 34.8525 64.6404 35.061 65.0165 35.4372C65.3191 35.7397 65.4663 36.1036 65.4663 36.5574V36.5778C65.4663 37.3219 65.0697 37.7348 64.5995 38.0005C65.36 38.2908 65.8342 38.7364 65.8342 39.6195V39.6399C65.8342 40.846 64.8571 41.447 63.3689 41.447H60.9609C60.5562 41.447 60.2373 41.1281 60.2373 40.7233V35.5843V35.5762Z" fill="white"/>
<path fill-rule="evenodd" clip-rule="evenodd" d="M70.3598 38.63L69.4481 36.4551L68.5364 38.63H70.3639H70.3598ZM66.2837 40.4575L68.5814 35.2735C68.7408 34.9179 69.0352 34.7012 69.4276 34.7012H69.5135C69.9101 34.7012 70.1922 34.9179 70.3516 35.2735L72.6492 40.4575C72.6983 40.5597 72.7228 40.6537 72.7228 40.7478C72.7228 41.1321 72.4203 41.4469 72.036 41.4469C71.6966 41.4469 71.4718 41.2506 71.341 40.9481L70.8994 39.9138H68.0008L67.5388 40.9972C67.4162 41.2793 67.1709 41.451 66.8725 41.451C66.4963 41.451 66.2061 41.1484 66.2061 40.7723C66.2061 40.6701 66.2428 40.5638 66.2919 40.4616L66.2837 40.4575Z" fill="white"/>
<path fill-rule="evenodd" clip-rule="evenodd" d="M73.4834 35.491C73.4834 35.0862 73.8023 34.7673 74.207 34.7673H74.3583C74.7058 34.7673 74.9143 34.939 75.1105 35.1925L77.9069 38.8638V35.4664C77.9069 35.0699 78.2258 34.751 78.6224 34.751C79.019 34.751 79.3379 35.0699 79.3379 35.4664V40.7076C79.3379 41.1124 79.019 41.4313 78.6142 41.4313H78.5652C78.2177 41.4313 78.0092 41.2596 77.8129 41.0061L74.9143 37.204V40.7322C74.9143 41.1287 74.5954 41.4476 74.1989 41.4476C73.8023 41.4476 73.4834 41.1287 73.4834 40.7322V35.491Z" fill="white"/>
<path fill-rule="evenodd" clip-rule="evenodd" d="M80.5392 35.4697C80.5392 35.065 80.8581 34.7461 81.2629 34.7461C81.6676 34.7461 81.9865 35.065 81.9865 35.4697V37.6815L84.6603 35.0282C84.8401 34.8483 85.0159 34.7461 85.2735 34.7461C85.6782 34.7461 85.9399 35.0568 85.9399 35.4166C85.9399 35.6414 85.8377 35.8131 85.6742 35.9603L83.8222 37.6938L85.8459 40.2367C85.9603 40.3798 86.0421 40.527 86.0421 40.7436C86.0421 41.1484 85.7314 41.4509 85.3062 41.4509C85.0241 41.4509 84.8565 41.3078 84.693 41.1034L82.8123 38.6382L81.9824 39.4109V40.7273C81.9824 41.132 81.6635 41.4509 81.2588 41.4509C80.854 41.4509 80.5352 41.132 80.5352 40.7273V35.4738L80.5392 35.4697Z" fill="white"/>
<path fill-rule="evenodd" clip-rule="evenodd" d="M52.2607 54.2434H51.6311V57.3423C51.6311 57.4322 51.5984 57.514 51.5371 57.5794C51.4717 57.6448 51.3981 57.6816 51.3041 57.6816C51.21 57.6816 51.1364 57.6489 51.0669 57.5794C51.0015 57.514 50.9688 57.4322 50.9688 57.3423V54.2434H50.5968H49.9672V57.3423C49.9672 57.4363 49.9345 57.514 49.8691 57.5794C49.8036 57.6448 49.726 57.6816 49.6319 57.6816C49.5379 57.6816 49.4643 57.6489 49.3948 57.5794C49.3253 57.5099 49.2967 57.4322 49.2967 57.3423V55.9155C49.2967 55.7969 49.2313 55.6988 49.1005 55.617C48.9696 55.5353 48.8143 55.4985 48.6344 55.4985C48.4913 55.4985 48.3605 55.5435 48.2378 55.6334C48.1193 55.7233 48.0334 55.8378 47.9803 55.985C47.9598 56.0381 47.9271 56.0831 47.8821 56.1158C47.8372 56.1526 47.784 56.169 47.7268 56.169C47.6696 56.169 47.6164 56.1526 47.5673 56.1158C47.5183 56.079 47.4856 56.0381 47.4651 55.985C47.412 55.8378 47.318 55.7233 47.1871 55.6334C47.0522 55.5435 46.9009 55.4985 46.7333 55.4985C46.5248 55.4985 46.349 55.5721 46.2019 55.7192C46.0547 55.8664 45.9811 56.0463 45.9811 56.2548C45.9811 56.4879 46.071 56.6841 46.2468 56.8476C46.4267 57.0112 46.6393 57.0929 46.8887 57.0929C46.9786 57.0929 47.0563 57.1256 47.1258 57.1951C47.1912 57.2605 47.2239 57.3423 47.2239 57.4322C47.2239 57.5018 47.1749 57.5631 47.0808 57.608C46.9868 57.6571 46.8682 57.6816 46.7292 57.6816C46.3368 57.6816 46.0015 57.5426 45.7235 57.2646C45.4455 56.9866 45.3065 56.6514 45.3065 56.2589C45.3065 55.8869 45.4455 55.5721 45.7235 55.3104C46.0015 55.0488 46.3327 54.9139 46.7292 54.9139C46.9296 54.9139 47.1176 54.9507 47.2893 55.0283C47.461 55.1019 47.6082 55.2123 47.7227 55.3513C47.8167 55.2164 47.9516 55.1101 48.1152 55.0324C48.2828 54.9547 48.4668 54.9139 48.6712 54.9139C48.7775 54.9139 48.8838 54.922 48.986 54.9425C49.0882 54.9629 49.1904 54.9874 49.2926 55.0283V54.2475H44.6319V57.3464C44.6319 57.4404 44.6033 57.5181 44.5502 57.5835C44.4929 57.6489 44.4275 57.6857 44.3458 57.6857C44.2436 57.6857 44.1577 57.653 44.0841 57.5835C44.0105 57.5181 43.9737 57.4363 43.9737 57.3464V56.9212C43.8838 57.0275 43.753 57.1134 43.5853 57.1747C43.4177 57.236 43.2256 57.2687 43.013 57.2687C42.6368 57.2687 42.3139 57.1542 42.044 56.9212C41.7742 56.6923 41.6434 56.4143 41.6434 56.0913C41.6434 55.9686 41.6638 55.8501 41.7047 55.7315C41.7456 55.617 41.8028 55.5107 41.8846 55.4208H40.9852C40.8952 55.4208 40.8175 55.3922 40.748 55.3309C40.6826 55.2736 40.6499 55.2 40.6499 55.1224C40.6499 55.0447 40.6826 54.9752 40.748 54.9179C40.8135 54.8607 40.8911 54.8321 40.9852 54.8321H43.3155C43.4054 54.8321 43.4831 54.8607 43.5485 54.9179C43.6139 54.9752 43.6426 55.0447 43.6426 55.1224C43.6426 55.2 43.6099 55.2736 43.5485 55.3309C43.4831 55.3881 43.4095 55.4208 43.3155 55.4208H42.9803C42.8004 55.4208 42.645 55.4862 42.5142 55.617C42.3834 55.7479 42.318 55.9073 42.318 56.0872C42.318 56.2466 42.3915 56.3856 42.5387 56.5001C42.6859 56.6146 42.8617 56.6718 43.0702 56.6718C43.3196 56.6718 43.5322 56.6064 43.7121 56.4756C43.892 56.3448 43.9778 56.1853 43.9778 56.0054V54.2434H40.4864C40.1307 54.2025 40.1103 53.7323 40.4864 53.6547H50.3433H50.748L50.7399 53.6465L49.4316 52.4159C49.3989 52.3791 49.3417 52.3178 49.2558 52.236C49.17 52.1542 49.1291 52.0929 49.1291 52.0561C49.1291 51.9662 49.1618 51.8885 49.2272 51.8231C49.2926 51.7577 49.3703 51.725 49.4643 51.725C49.5461 51.725 49.6646 51.8027 49.82 51.9539C49.9754 52.1093 50.0612 52.191 50.0694 52.1992L51.578 53.6506L51.5902 53.6587H52.2689C52.5428 53.7446 52.5346 54.2066 52.2689 54.2475L52.2607 54.2434ZM66.1855 53.6547C66.5371 53.7078 66.4512 54.2311 66.1855 54.2434H65.5559V57.3423C65.5559 57.4363 65.5232 57.514 65.4578 57.5794C65.3924 57.6448 65.3106 57.6816 65.2247 57.6816C65.1389 57.6816 65.0571 57.6489 64.9876 57.5794C64.9222 57.514 64.8895 57.4322 64.8895 57.3423V54.2434H63.7407C63.8593 54.3824 63.9451 54.5418 64.0064 54.7217C64.0678 54.9016 64.0964 55.0897 64.0964 55.29C64.0964 55.6947 63.9369 56.0381 63.6221 56.3243C63.3073 56.6105 62.923 56.7536 62.4774 56.7536C62.1585 56.7536 61.8846 56.6555 61.6557 56.4592C61.4267 56.263 61.3122 56.03 61.3122 55.756C61.3122 55.5475 61.3858 55.3677 61.533 55.2205C61.6802 55.0733 61.856 54.9997 62.0645 54.9997C62.2239 54.9997 62.3588 55.0406 62.4733 55.1224C62.5878 55.2041 62.645 55.3022 62.645 55.4208C62.645 55.523 62.6123 55.6089 62.5469 55.6825C62.4815 55.756 62.3997 55.7928 62.3098 55.7928C62.2239 55.7928 62.1503 55.7847 62.0849 55.7724C62.0195 55.7601 61.9664 55.7397 61.9173 55.7111C61.9173 55.8296 61.9705 55.9278 62.0808 56.0095C62.1871 56.0913 62.322 56.1322 62.4774 56.1322C62.7431 56.1322 62.968 56.0463 63.1561 55.8746C63.3441 55.7029 63.4341 55.4944 63.4341 55.2532C63.4341 54.9752 63.3482 54.7381 63.1806 54.5418C63.0089 54.3456 62.8045 54.2475 62.5673 54.2475H61.0465H60.6745V57.3464C60.6745 57.4363 60.6417 57.5181 60.5804 57.5835C60.515 57.6489 60.4373 57.6857 60.3474 57.6857C60.2575 57.6857 60.1798 57.653 60.1103 57.5835C60.0449 57.5181 60.0121 57.4363 60.0121 57.3464V54.2475H59.6401H59.0105V57.3464C59.0105 57.4404 58.9778 57.5181 58.9165 57.5835C58.8552 57.6489 58.7775 57.6857 58.6875 57.6857C58.5976 57.6857 58.5199 57.653 58.4504 57.5835C58.385 57.5181 58.3523 57.4363 58.3523 57.3464V55.9032H57.6205C57.5306 55.9032 57.4529 55.8746 57.3834 55.8174C57.318 55.7642 57.2852 55.6947 57.2852 55.613C57.2852 55.5312 57.318 55.4617 57.3834 55.4045C57.4488 55.3472 57.5306 55.3145 57.6205 55.3145H58.3523V54.2434H58.0171C57.9271 54.2434 57.8494 54.2148 57.784 54.1575C57.7227 54.1003 57.69 54.0349 57.69 53.9531C57.69 53.8713 57.7227 53.8018 57.784 53.7446C57.8494 53.6833 57.9271 53.6547 58.0171 53.6547H59.3866H61.3081H66.1937H66.1855ZM56.766 53.7773C56.488 53.5811 56.1569 53.4829 55.7685 53.4829C55.4373 53.4829 55.1552 53.5361 54.9222 53.6383C54.6892 53.7446 54.5706 53.8713 54.5706 54.0226C54.5706 54.1371 54.6156 54.2188 54.7055 54.2802C54.7955 54.3415 54.8854 54.3415 54.9754 54.2883C55.098 54.2188 55.2247 54.1657 55.3597 54.1289C55.4946 54.0921 55.6295 54.0717 55.7685 54.0717C55.9729 54.0717 56.1528 54.1207 56.3 54.2188C56.4472 54.317 56.5207 54.4396 56.5207 54.5786C56.5207 54.7381 56.4553 54.8771 56.3245 54.9874C56.1937 55.1019 56.0342 55.1551 55.8503 55.1551C55.7317 55.1551 55.6336 55.1796 55.5559 55.2327C55.4741 55.2859 55.4373 55.3431 55.4373 55.4126C55.4373 55.5026 55.4782 55.5802 55.5559 55.6457C55.6336 55.7111 55.7358 55.7438 55.8503 55.7438C56.0792 55.7438 56.2754 55.801 56.439 55.9196C56.6025 56.034 56.6843 56.173 56.6843 56.3325C56.6843 56.541 56.6025 56.7209 56.439 56.8681C56.2754 57.0152 56.0792 57.0888 55.8503 57.0888C55.6009 57.0888 55.376 57.0316 55.1798 56.913C54.9835 56.7945 54.8486 56.6391 54.7791 56.447C54.7423 56.3407 54.6851 56.2507 54.6033 56.1853C54.5256 56.1199 54.4398 56.0831 54.358 56.0831C54.2763 56.0831 54.2108 56.1117 54.1495 56.169C54.0923 56.2262 54.0637 56.2957 54.0637 56.3734C54.0637 56.7332 54.2395 57.0398 54.587 57.2973C54.9345 57.5508 55.3556 57.6776 55.8503 57.6776C56.2632 57.6776 56.6189 57.5549 56.9091 57.3096C57.1994 57.0643 57.3466 56.7699 57.3466 56.4184C57.3466 56.2303 57.2812 56.0463 57.1544 55.8664C57.0277 55.6865 56.856 55.5312 56.6352 55.4045C56.8069 55.3063 56.9377 55.1796 57.0359 55.0161C57.1299 54.8525 57.179 54.6767 57.179 54.4887C57.179 54.2107 57.04 53.9735 56.7619 53.7773H56.766ZM63.152 51.8149C63.0866 51.8803 63.0539 51.958 63.0539 52.0479C63.0539 52.0847 63.0947 52.1461 63.1806 52.2278C63.2664 52.3096 63.3237 52.3709 63.3564 52.4077L64.6974 53.6669H65.5355L63.9942 52.191C63.9942 52.191 63.9001 52.097 63.7407 51.9457C63.5853 51.7945 63.4668 51.7168 63.385 51.7168C63.2951 51.7168 63.2174 51.7495 63.1479 51.8149H63.152ZM69.0146 55.8542C68.9901 55.9278 68.9778 56.0054 68.9778 56.0831C68.9778 56.2426 69.0432 56.3816 69.174 56.496C69.3049 56.6105 69.4602 56.6677 69.6401 56.6677C69.7628 56.6677 69.8731 56.6596 69.9713 56.6391C70.0694 56.6187 70.1512 56.5941 70.2125 56.5533L69.1127 55.6579C69.0678 55.7111 69.035 55.7765 69.0146 55.846V55.8542ZM74.914 52.2319C74.9795 52.2973 75.0121 52.375 75.0121 52.465C75.0121 52.5549 74.9795 52.6367 74.914 52.7021C74.8486 52.7716 74.7709 52.8043 74.6769 52.8043C74.5829 52.8043 74.5093 52.7716 74.4439 52.7021C74.3826 52.6367 74.3498 52.5549 74.3498 52.465C74.3498 52.375 74.3826 52.2973 74.4439 52.2319C74.5093 52.1665 74.587 52.1338 74.6769 52.1338C74.7669 52.1338 74.8445 52.1665 74.914 52.2319ZM72.4978 51.8149C72.5633 51.7495 72.6409 51.7168 72.735 51.7168C72.8167 51.7168 72.9353 51.7945 73.0906 51.9457C73.246 52.1011 73.3319 52.1829 73.3441 52.191L74.8527 53.6424L74.865 53.6506H75.4373C75.7848 53.716 75.7685 54.2352 75.4373 54.2393H74.8731V55.3268C74.8731 55.4085 74.8486 55.474 74.8036 55.5271C74.7587 55.5803 74.7055 55.6007 74.6483 55.5843C74.5461 55.5598 74.4316 55.5353 74.3008 55.5189C74.17 55.5026 74.0269 55.4944 73.8756 55.4944C73.5363 55.4944 73.246 55.568 73.0048 55.7152C72.7677 55.8623 72.645 56.0422 72.645 56.2507C72.645 56.4838 72.7431 56.68 72.9353 56.8435C73.1315 57.0071 73.3646 57.0888 73.6426 57.0888C73.7611 57.0888 73.8715 57.0725 73.9737 57.0357C74.0759 56.9989 74.1659 56.9498 74.2395 56.8885C74.174 56.8517 74.125 56.7945 74.0882 56.7209C74.0514 56.6473 74.035 56.5614 74.035 56.4715C74.035 56.2957 74.0964 56.1444 74.2272 56.0218C74.3539 55.8991 74.5093 55.8378 74.6892 55.8378C74.8691 55.8378 75.0244 55.8991 75.1512 56.0218C75.2779 56.1444 75.3433 56.2957 75.3433 56.4715C75.3433 56.8027 75.1757 57.0888 74.8445 57.326C74.5134 57.5631 74.1127 57.6816 73.6467 57.6816C73.1806 57.6816 72.7922 57.5426 72.4651 57.2646C72.1422 56.9866 71.9786 56.6514 71.9786 56.2589C71.9786 55.8869 72.1626 55.5721 72.5306 55.3104C72.8985 55.0488 73.3482 54.9139 73.8756 54.9139H74.2108V54.2475H72.9557H71.3041V57.3464C71.3041 57.4404 71.2713 57.5181 71.21 57.5835C71.1446 57.6489 71.0669 57.6857 70.977 57.6857C70.8871 57.6857 70.8094 57.653 70.7399 57.5835C70.6745 57.5181 70.6417 57.4363 70.6417 57.3464V56.9294C70.5518 57.0357 70.421 57.1215 70.2452 57.1788C70.0735 57.2401 69.8732 57.2687 69.6442 57.2687C69.2763 57.2687 68.9655 57.1542 68.7039 56.9212C68.4422 56.6923 68.3114 56.4143 68.3114 56.0913C68.3114 55.7192 68.4504 55.4045 68.7243 55.1428C69.0023 54.8811 69.3335 54.7462 69.7219 54.7462C69.8813 54.7462 70.0162 54.7871 70.1307 54.8648C70.2452 54.9466 70.3024 55.0447 70.3024 55.1632C70.3024 55.2327 70.2697 55.2941 70.2084 55.3431C70.143 55.3922 70.0653 55.4208 69.9754 55.4208H69.4643L70.5314 56.2589C70.5641 56.2139 70.5886 56.1731 70.609 56.1363C70.6295 56.0954 70.6377 56.0545 70.6377 56.0095V54.2475H67.9884C67.6491 54.2107 67.6532 53.7119 67.9884 53.6587H74.0146L74.0064 53.6506L72.6982 52.42C72.6655 52.3832 72.6082 52.3219 72.5224 52.2401C72.4365 52.1583 72.3956 52.097 72.3956 52.0602C72.3956 51.9703 72.4283 51.8926 72.4938 51.8272L72.4978 51.8149ZM74.5175 56.6391C74.5665 56.6882 74.6197 56.7127 74.6851 56.7127C74.7505 56.7127 74.8036 56.6882 74.8527 56.6391C74.9018 56.5901 74.9263 56.5369 74.9263 56.4715C74.9263 56.4061 74.9018 56.3489 74.8527 56.2998C74.8036 56.2507 74.7505 56.2262 74.6851 56.2262C74.6197 56.2262 74.5665 56.2507 74.5175 56.2998C74.4684 56.3489 74.4439 56.4061 74.4439 56.4715C74.4439 56.5369 74.4684 56.5901 74.5175 56.6391ZM74.2926 58.4829C74.3744 58.5729 74.4153 58.6833 74.4153 58.8141C74.4153 58.9449 74.3744 59.0512 74.2926 59.1412C74.2108 59.2311 74.1086 59.272 73.9942 59.272C73.8797 59.272 73.7775 59.227 73.6998 59.1412C73.6221 59.0512 73.5812 58.9449 73.5812 58.8141C73.5812 58.6833 73.6221 58.577 73.6998 58.4829C73.7816 58.393 73.8797 58.3439 73.9942 58.3439C74.1086 58.3439 74.2108 58.3889 74.2926 58.4829Z" fill="white"/>
</g>
<defs>
<clipPath id="clip0_3396_56988">
<rect width="115.887" height="60" fill="white"/>
</clipPath>
</defs>
</svg>
