<svg width="153" height="48" viewBox="0 0 153 48" fill="none" xmlns="http://www.w3.org/2000/svg">
<path d="M126.364 14.0407C128.621 14.0407 131.19 16.0001 131.19 18.7061C131.19 20.2311 130.704 21.4087 129.989 22.4844C129.53 23.17 129.181 23.9593 129.037 24.5306C128.882 25.1757 128.541 26.7375 130.451 26.7635C131.693 26.7948 134.75 25.7136 137.22 22.7357C139.12 20.3438 140.249 17.3105 140.249 14.0019C140.249 6.27001 134.04 0 126.364 0C118.686 0 112.465 6.27001 112.465 14.0019C112.465 17.3105 113.593 20.3438 115.495 22.7357C117.968 25.7136 121.024 26.7948 122.264 26.7635C124.174 26.7375 123.828 25.1757 123.68 24.5306C123.54 23.9593 123.188 23.17 122.726 22.4844C122.013 21.4087 121.525 20.2311 121.525 18.7061C121.53 16.0001 124.096 14.0407 126.364 14.0407ZM150.926 28.1924C150.357 27.721 149.358 27.0333 147.309 26.7172C144.464 26.2921 141.926 26.9592 140.397 27.5655C138.388 28.3606 135.913 30.1682 134.203 32.5231C132.399 35.0111 131.465 38.7673 132.36 42.6822C132.614 43.7839 132.887 44.405 133.296 45.1775C133.83 46.2274 135.238 47.6933 136.471 47.9576C137.445 48.1592 138.207 47.5989 138.58 47.1756C141.064 44.2978 150.479 33.1534 151.499 31.7303C152.501 30.3162 151.846 28.9574 150.926 28.1924ZM112.325 27.5655C110.797 26.9592 108.26 26.2921 105.416 26.7172C103.366 27.0333 102.358 27.721 101.796 28.1924C100.876 28.9574 100.216 30.3162 101.223 31.7303C102.238 33.1534 111.65 44.2978 114.135 47.1756C114.508 47.5989 115.27 48.1592 116.246 47.9576C117.486 47.6933 118.889 46.2274 119.421 45.1775C119.835 44.405 120.103 43.7839 120.364 42.6822C121.257 38.7673 120.309 35.0111 118.521 32.5231C116.809 30.1682 114.331 28.3606 112.325 27.5655Z" fill="currentColor"/>
<path d="M95.7618 37.7582H84.159L88.9205 31.4885H76.0296L71.4363 37.5254C69.719 39.9246 69.5528 42.346 69.5528 44.0265V44.9765C69.5528 46.0744 70.2329 46.6715 71.2422 46.6715H95.7618C96.7506 46.6715 97.418 46.126 97.418 45.0098V39.4257C97.418 38.3017 96.7506 37.7582 95.7618 37.7582ZM29.7116 15.6086C29.5268 14.5587 28.8151 14.041 27.8892 14.041H24.6101C21.1978 14.041 18.1866 15.8506 16.4992 18.5845C16.4992 18.5845 13.3698 23.5883 9.86317 29.2203H32.1257L29.7116 15.6086ZM66.3809 15.703C66.3809 14.5862 65.7155 14.041 64.7192 14.041H58.0444C57.0556 14.041 56.3882 14.5862 56.3882 15.703V28.3536L50.0611 16.9801C48.7967 14.8841 46.6674 14.0873 44.1831 14.041H39.2496C38.2698 14.041 37.6007 14.5862 37.6007 15.703V29.2278H45.8929L47.1683 31.4885H37.6007V45.0098C37.6007 46.126 38.2698 46.6807 39.2496 46.6807H45.9409C46.9352 46.6807 47.5934 46.126 47.5934 45.0098L47.5896 32.2795L53.976 43.7454C55.2274 45.8304 57.3642 46.6272 59.8317 46.6807H64.7192C65.7155 46.6807 66.3809 46.126 66.3809 45.0098V31.4885H58.148L56.8761 29.2278H66.3809V15.703ZM32.5213 31.4885H21.5268C21.8077 33.0263 23.8356 44.4608 23.9557 45.1262C24.1425 46.1558 24.7838 46.6807 25.7246 46.6807H33.2885C33.9814 46.6807 34.3309 46.4627 34.6563 46.0672C34.8781 45.7916 34.9705 45.3738 34.8669 44.762L32.5213 31.4885ZM0.242157 44.6346C-0.0572586 45.1465 -0.0572586 45.6844 0.125679 46.0336C0.336411 46.4422 0.80587 46.6807 1.31242 46.6807H9.16826C10.1588 46.6807 11.0445 46.1465 11.5379 45.348L20.207 31.4885H8.44729C4.41032 37.9598 0.343742 44.4849 0.242157 44.6346ZM71.4623 22.9432H82.5158L77.7488 29.2203H90.636L95.3365 23.0374C96.7876 21.1261 97.1238 19.4146 97.1238 17.9006V15.7473C97.1238 14.6436 96.4567 14.041 95.4401 14.041H71.4623C70.4732 14.041 69.8116 14.5862 69.8116 15.703V21.2871C69.8116 22.3998 70.4732 22.9432 71.4623 22.9432Z" fill="currentColor"/>
</svg>
