<svg width="16" height="16" viewBox="0 0 16 16" fill="none" xmlns="http://www.w3.org/2000/svg">
<g clip-path="url(#clip0_3396_71997)">
<path d="M15.5 7.75C15.5 3.46979 12.0302 0 7.75 0C3.46979 0 0 3.46979 0 7.75C0 12.0302 3.46979 15.5 7.75 15.5C12.0302 15.5 15.5 12.0302 15.5 7.75Z" fill="currentColor"/>
<path fill-rule="evenodd" clip-rule="evenodd" d="M7.59777 2.64403C7.55092 2.65478 7.42885 2.70281 7.29455 2.76338C7.17093 2.81915 7.04625 2.87503 7.0175 2.88755C6.9412 2.92082 6.75762 3.00198 6.66725 3.04243C6.57432 3.08398 6.25368 3.22658 6.14973 3.27253C6.10948 3.29033 5.99655 3.34046 5.8988 3.38396C5.80103 3.42743 5.69047 3.47659 5.6531 3.49318C5.61572 3.5098 5.54985 3.53935 5.50673 3.55884C5.4636 3.57831 5.40477 3.60452 5.37602 3.61706C5.34728 3.62958 5.25788 3.66923 5.17738 3.7052C5.09688 3.74114 4.99917 3.78473 4.96027 3.80207C4.87525 3.84 4.8762 3.84169 5.01532 3.90069C5.06995 3.92382 5.14758 3.95787 5.18782 3.97637C5.2281 3.99483 5.2869 4.02125 5.31853 4.03508C5.35015 4.04891 5.40898 4.07482 5.44923 4.09267C5.8668 4.27778 6.03235 4.35128 6.07652 4.37111C6.10527 4.38407 6.15938 4.40839 6.19678 4.42519C6.3686 4.50248 6.4275 4.52846 6.43093 4.52846C6.43298 4.52846 6.48815 4.553 6.55355 4.583C6.65637 4.63018 6.94928 4.76082 7.09593 4.82493C7.1218 4.83621 7.19163 4.8676 7.25113 4.8946C7.31058 4.92163 7.36073 4.94374 7.36248 4.94374C7.3659 4.94374 7.45468 4.98315 7.70928 5.0976C7.90098 5.18377 7.93755 5.21414 7.93755 5.28692C7.93755 5.355 7.90248 5.39612 7.80525 5.44199C7.4791 5.59593 6.9657 5.81581 6.94447 5.81065C6.9313 5.80746 6.8741 5.78389 6.8174 5.75829C6.7607 5.73272 6.70018 5.70566 6.68292 5.69823C6.636 5.67796 6.03613 5.41221 5.94585 5.37169C5.9027 5.35234 5.8486 5.32822 5.8256 5.31812C5.8026 5.30799 5.74615 5.28288 5.70015 5.26232C5.61115 5.22255 5.52398 5.18397 5.43875 5.14662C5.41 5.13403 5.34885 5.10664 5.30285 5.08574C5.1807 5.03023 4.7641 4.84595 4.7108 4.82381C4.66602 4.80521 4.47048 4.71875 4.33573 4.65796C4.19663 4.59519 3.98382 4.50003 3.9332 4.47797C3.90445 4.46545 3.85035 4.44188 3.81297 4.42563C3.7756 4.4094 3.73683 4.3917 3.72685 4.38635C3.71688 4.38095 3.70392 4.37654 3.6981 4.37654C3.69105 4.37654 3.6875 4.6489 3.6875 5.19528V6.01402L3.82082 6.07253C4.05035 6.17333 4.1385 6.21232 4.26777 6.27032C4.36327 6.31317 4.44433 6.34918 4.71213 6.46797C5.03725 6.61215 5.08888 6.63658 5.08393 6.64409C5.07893 6.6517 5.03307 6.67451 4.94215 6.71459C4.77767 6.78715 4.65475 6.84206 4.4978 6.91321C4.4104 6.95283 4.3003 7.00207 4.03672 7.11941C3.89812 7.18109 3.76287 7.24186 3.73612 7.25445L3.6875 7.27732V8.09681C3.6875 8.74839 3.69017 8.91523 3.70057 8.91111C3.71902 8.90387 3.95875 8.79743 4.05868 8.75214C4.14618 8.71247 4.19805 8.68949 4.29393 8.64783C4.32555 8.6341 4.382 8.60906 4.41938 8.59222C4.50035 8.55568 5.25327 8.22156 5.3133 8.19552C5.37127 8.17033 5.96492 7.90652 6.06085 7.86326C6.10397 7.84382 6.16277 7.81754 6.19152 7.80487C6.2203 7.79221 6.40393 7.71059 6.59965 7.6235L6.9555 7.46516L7.10672 7.53188C7.1899 7.56857 7.2815 7.60926 7.31025 7.62229C7.3878 7.6575 7.50023 7.70727 7.67935 7.78567C7.89678 7.88082 7.95917 7.93762 7.93775 8.02081C7.91787 8.09792 7.89663 8.11076 7.49845 8.28598C7.40642 8.3265 7.30058 8.37331 7.2632 8.39007C7.22583 8.40683 7.16465 8.43395 7.12727 8.45035C7.0899 8.46675 7.0311 8.49334 6.9966 8.50944C6.96207 8.52553 6.90562 8.55067 6.87112 8.56529C6.80895 8.59167 6.52618 8.71627 6.39543 8.77493C6.35803 8.79169 6.30392 8.81579 6.27517 8.82848C6.21592 8.85456 6.0986 8.90695 5.99812 8.95209C5.96075 8.9689 5.8243 9.02935 5.69493 9.08638C5.56553 9.14347 5.43145 9.20283 5.39695 9.21828C5.36245 9.23375 5.30362 9.26013 5.26625 9.27689C5.22887 9.29362 5.16535 9.32176 5.1251 9.3394C4.86105 9.45511 4.87022 9.44761 4.9506 9.48219C5.02627 9.51474 5.0858 9.54116 5.1826 9.58507C5.31352 9.64448 5.37257 9.67076 5.63217 9.78524C5.76157 9.84227 5.90507 9.90604 5.95107 9.92694C5.99707 9.94784 6.05822 9.97504 6.08697 9.98737C6.11572 9.9997 6.1675 10.0226 6.202 10.0384C6.2365 10.0541 6.28825 10.077 6.317 10.0894C6.34575 10.1017 6.40692 10.1289 6.45292 10.1498C6.49892 10.1706 6.62125 10.2253 6.72475 10.2712C6.94155 10.3675 6.9678 10.3792 7.24752 10.5042C7.28778 10.5222 7.34657 10.5483 7.3782 10.5621C7.40982 10.5759 7.45922 10.5976 7.48797 10.6103C7.62832 10.672 7.82763 10.6727 7.96488 10.6121C8.0978 10.5534 8.5082 10.3718 8.57533 10.342C8.66375 10.3027 8.73705 10.2704 8.80013 10.243C8.826 10.2317 8.8895 10.2034 8.94125 10.1802C8.993 10.1569 9.05652 10.1286 9.0824 10.1173C9.10827 10.106 9.1671 10.0797 9.2131 10.0588C9.29445 10.0219 9.44125 9.957 9.56857 9.90171C9.629 9.87545 9.67903 9.85313 9.82473 9.7873C9.8621 9.77044 9.92092 9.74438 9.95542 9.72942C9.98992 9.71447 10.1616 9.63845 10.337 9.56049C10.6391 9.42617 10.6826 9.40699 10.7892 9.36073C10.8136 9.35013 10.8783 9.32118 10.933 9.29641C10.9876 9.27163 11.1381 9.20464 11.2675 9.14754C11.6181 8.9928 11.7106 8.95151 11.8439 8.89007C11.8877 8.86987 11.9271 8.85333 11.9315 8.85333C11.9635 8.85333 12.1495 8.73843 12.2055 8.68406C12.3388 8.55461 12.3494 8.3682 12.2321 8.21669C12.1838 8.1543 12.0597 8.08966 11.5599 7.86656C11.287 7.74474 11.0294 7.6298 10.9876 7.6111C10.9458 7.59243 10.9099 7.57714 10.9079 7.57714C10.9059 7.57714 10.8507 7.55276 10.7853 7.52299C10.6387 7.45622 10.5994 7.43864 10.3632 7.33413C10.2596 7.28836 10.1263 7.22859 10.0668 7.20132C10.0073 7.17405 9.95638 7.15174 9.9536 7.15174C9.95085 7.15174 9.91248 7.13527 9.86835 7.11512C9.73518 7.05436 9.66533 7.02304 9.6104 6.99943C9.58165 6.98708 9.46167 6.93397 9.34377 6.88136C9.2259 6.82878 9.10827 6.77633 9.0824 6.76482C9.05652 6.75329 9.00712 6.73118 8.97262 6.71571C8.93812 6.70023 8.8899 6.67948 8.86545 6.66955C8.80787 6.64622 8.80922 6.64102 8.88115 6.60914C8.9142 6.59449 8.993 6.55962 9.05627 6.5316C9.11952 6.5036 9.20185 6.46708 9.23922 6.45042C9.2766 6.43378 9.33307 6.40881 9.3647 6.39493C9.43345 6.36475 9.53485 6.31949 9.62085 6.28057C9.65535 6.26495 9.7118 6.23993 9.7463 6.22494C9.86975 6.17137 10.1769 6.0346 10.2831 5.9859C10.3426 5.95863 10.3938 5.93632 10.3968 5.93632C10.3999 5.93632 10.4359 5.92078 10.4769 5.90176C10.5178 5.88275 10.5772 5.85592 10.6089 5.84216C10.6405 5.82838 10.6969 5.80348 10.7343 5.78685C10.8226 5.74754 11.0152 5.66229 11.095 5.62722C11.1295 5.61206 11.193 5.58372 11.2362 5.56428C11.2793 5.5448 11.324 5.52536 11.3355 5.52104C11.3677 5.50896 11.8765 5.28208 11.9943 5.22727C12.2302 5.11754 12.308 5.02456 12.3077 4.85258C12.3073 4.64537 12.2185 4.56276 11.7955 4.37598C11.7553 4.35821 11.6965 4.33224 11.6648 4.31827C11.6332 4.30429 11.5156 4.25196 11.4035 4.20195C11.2913 4.15193 11.0984 4.06639 10.9748 4.01185C10.8512 3.95734 10.7194 3.89916 10.682 3.88257C10.6447 3.86598 10.56 3.82852 10.4938 3.79931C10.4277 3.7701 10.3343 3.72852 10.2863 3.70687C10.2383 3.68524 10.1972 3.66754 10.195 3.66754C10.1928 3.66754 10.1451 3.64654 10.0889 3.62082C9.93967 3.55254 9.86785 3.52024 9.80905 3.49495C9.7803 3.48263 9.66737 3.43271 9.55812 3.38408C9.3704 3.30048 9.09043 3.17631 8.95173 3.11508C8.9172 3.09987 8.84502 3.06754 8.7913 3.04322C8.7376 3.01893 8.69212 2.99907 8.69032 2.99907C8.68852 2.99907 8.64307 2.97919 8.58935 2.95487C8.53565 2.93056 8.46815 2.90033 8.4394 2.88767C8.41065 2.87503 8.2954 2.82378 8.18325 2.77384C7.83305 2.61777 7.77175 2.60419 7.59777 2.64403ZM3.6875 12.236V12.8758L4.37495 12.8717C4.88418 12.8688 5.07323 12.8645 5.1042 12.8552C5.1272 12.8482 5.17017 12.836 5.19967 12.8279C5.41822 12.7684 5.51343 12.5387 5.38913 12.371C5.35815 12.3292 5.24055 12.2465 5.21162 12.2462C5.16247 12.2456 5.17303 12.2259 5.23765 12.1975C5.51843 12.0742 5.51068 11.7565 5.22443 11.6565C5.07563 11.6045 5.0856 11.6052 4.36448 11.6005L3.6875 11.5962V12.236ZM6.18422 11.6159C6.17552 11.6256 6.12225 11.7088 6.06582 11.8007C6.00937 11.8926 5.943 11.9998 5.9183 12.0387C5.89357 12.0777 5.85415 12.1416 5.83065 12.1805C5.80718 12.2195 5.77997 12.2639 5.7702 12.279C5.68097 12.4175 5.41263 12.8569 5.41263 12.8646C5.41263 12.8706 5.50485 12.8743 5.6522 12.8743H5.89177L5.94337 12.7857C5.97175 12.737 6.01268 12.6675 6.03435 12.6313C6.05603 12.5951 6.08672 12.5426 6.10258 12.5148C6.1184 12.4869 6.17715 12.3866 6.23312 12.292C6.3368 12.1166 6.38127 12.0401 6.42155 11.9678C6.43397 11.9456 6.45082 11.9262 6.45898 11.9248C6.47128 11.9227 6.72997 12.35 6.72997 12.3724C6.72997 12.3755 6.65775 12.3781 6.5695 12.3781C6.40805 12.3781 6.3557 12.3863 6.31848 12.4175C6.2986 12.4341 6.22812 12.5322 6.22812 12.5432C6.22812 12.5466 6.21637 12.5661 6.202 12.5866C6.18762 12.6072 6.17585 12.6279 6.17585 12.6327C6.17585 12.6375 6.33557 12.6414 6.53082 12.6414H6.88582L6.91592 12.6844C6.9325 12.7081 6.96427 12.7605 6.98657 12.8009L7.02713 12.8743H7.27062C7.40455 12.8743 7.51413 12.8715 7.51413 12.8681C7.51413 12.8622 7.38333 12.6493 7.3313 12.5705C7.31227 12.5416 6.96085 11.9766 6.92327 11.9144C6.91747 11.9048 6.89217 11.8628 6.8671 11.821C6.84203 11.7792 6.80058 11.712 6.77503 11.6716L6.7285 11.5982H6.46425C6.22557 11.5982 6.1985 11.5999 6.18422 11.6159ZM8.46555 12.0364C8.46555 12.6599 8.51827 12.6047 7.9185 12.6088C7.6895 12.6104 7.5037 12.615 7.50557 12.6189C7.5502 12.7134 7.63985 12.8343 7.6814 12.856C7.73392 12.8835 8.56742 12.8786 8.64192 12.8504C8.71572 12.8224 8.74043 12.8074 8.77995 12.7663C8.87768 12.6647 8.87852 12.6588 8.87852 12.0843V11.6032L8.67205 11.6005L8.46555 11.5977V12.0364ZM9.6304 11.6059C9.6211 11.612 9.49373 11.81 9.41708 11.9375C9.40243 11.9618 9.33705 12.0679 9.2703 12.1755C9.26512 12.1838 9.19185 12.3023 9.10747 12.4388C9.0231 12.5753 8.92882 12.7272 8.898 12.7764C8.86715 12.8256 8.84192 12.8678 8.84192 12.8703C8.84192 12.8727 8.95092 12.8735 9.08415 12.872L9.32635 12.8693L9.36457 12.8085C9.38557 12.7751 9.41955 12.7181 9.44005 12.6819C9.46055 12.6457 9.53783 12.5134 9.6118 12.3879C9.68578 12.2624 9.7769 12.1063 9.81427 12.0411C9.8905 11.908 9.8979 11.9042 9.93948 11.978C9.95515 12.0058 9.9859 12.0582 10.0078 12.0944C10.0296 12.1307 10.0602 12.1831 10.0757 12.2109C10.0911 12.2388 10.1162 12.2821 10.1314 12.3071C10.1753 12.3796 10.178 12.3781 10.0051 12.3781C9.82655 12.3782 9.78872 12.3859 9.74442 12.4311C9.70997 12.4663 9.61562 12.6124 9.61562 12.6306C9.61562 12.638 9.72343 12.6414 9.96325 12.6416C10.1544 12.6416 10.3157 12.645 10.3217 12.6491C10.3337 12.6574 10.3793 12.7275 10.4304 12.8161L10.464 12.8743H10.7037C10.9677 12.8743 10.9625 12.8758 10.918 12.8125C10.9041 12.7926 10.8835 12.7608 10.8723 12.7418C10.8611 12.7228 10.7545 12.55 10.6353 12.3578C10.516 12.1656 10.4095 11.9932 10.3984 11.9747C10.3874 11.9562 10.37 11.9288 10.3599 11.9139C10.3497 11.899 10.336 11.8777 10.3294 11.8666C10.2662 11.7604 10.1843 11.6302 10.1717 11.6159C10.1552 11.5972 9.6577 11.588 9.6304 11.6059ZM11.9018 11.6049C11.898 11.6086 11.8948 11.8103 11.8948 12.0531C11.8948 12.6637 11.9528 12.6038 11.3548 12.611L10.9349 12.6161L10.9973 12.7123C11.1114 12.8882 11.0681 12.8768 11.6021 12.8721C12.1026 12.8677 12.1414 12.86 12.2388 12.7459C12.31 12.6625 12.3131 12.6357 12.3131 12.0883V11.5982H12.1109C11.9997 11.5982 11.9057 11.6012 11.9018 11.6049ZM4.87338 11.8712C4.9905 11.8975 5.0166 11.9942 4.92122 12.0484C4.88735 12.0676 4.86283 12.0695 4.5919 12.0742C4.25003 12.0801 4.27075 12.0738 4.1966 12.1945C4.10118 12.35 4.10647 12.3556 4.10605 12.0987C4.10587 11.9756 4.10885 11.872 4.1127 11.8682C4.1233 11.858 4.82655 11.8607 4.87338 11.8712ZM4.92423 12.3707C4.99028 12.4194 4.9979 12.5059 4.94078 12.5582C4.8892 12.6053 4.86132 12.6094 4.5837 12.6102C4.2597 12.6112 4.27562 12.6059 4.18947 12.7417C4.15375 12.798 4.12032 12.8465 4.11515 12.8496C4.10965 12.853 4.10573 12.7475 4.10573 12.5961V12.3368L4.49602 12.3397L4.88628 12.3426L4.92423 12.3707Z" fill="currentColor"/>
</g>
<defs>
<clipPath id="clip0_3396_71997">
<rect width="16" height="15.5" fill="currentColor"/>
</clipPath>
</defs>
</svg>
