<svg width="64" height="64" viewBox="0 0 64 64" fill="none" xmlns="http://www.w3.org/2000/svg">
<g clip-path="url(#clip0_3396_56365)">
<g filter="url(#filter0_d_3396_56365)">
<path d="M0 32C0 14.3269 14.3269 0 32 0C49.6731 0 64 14.3269 64 32C64 49.6731 49.6731 64 32 64C14.3269 64 0 49.6731 0 32Z" fill="currentColor"/>
<path fill-rule="evenodd" clip-rule="evenodd" d="M32.0006 7.20801C45.692 7.20801 56.7923 18.307 56.7923 31.9997C56.7923 45.691 45.692 56.7913 32.0006 56.7913C18.3079 56.7913 7.20898 45.691 7.20898 31.9997C7.20898 18.307 18.3079 7.20801 32.0006 7.20801Z" fill="currentColor"/>
<path fill-rule="evenodd" clip-rule="evenodd" d="M51.3596 16.5802C54.7755 20.7849 56.7918 26.2157 56.7918 31.9968C56.7918 37.8661 54.7755 43.2115 51.3596 47.4149V46.2772C54.3384 42.2475 56.0899 37.3421 56.0899 31.9968C56.0899 26.6543 54.3384 21.749 51.3596 17.7193V16.5802ZM51.3596 40.6698L51.623 40.8449L52.4119 40.4093L51.3596 39.9707V40.6698ZM51.3596 38.5681C52.0601 38.655 53.0242 37.9544 53.111 36.9036L52.4987 36.9905C52.2353 37.6042 51.885 38.0427 51.3596 37.8661V38.5681ZM51.3596 36.3767L51.4479 36.2898L51.623 36.5519L52.2353 36.0264C51.3596 34.7122 51.4479 33.5744 51.9719 33.4876C52.587 33.3993 53.0242 34.3633 52.9359 35.3259L53.6379 34.8888C53.3745 33.7496 52.7622 33.0491 51.885 33.0491C51.7099 33.0491 51.5348 33.1359 51.3596 33.2257V36.3767ZM51.3596 31.9968H53.3745L53.813 31.2977H51.3596V31.9968ZM51.3596 29.1077H52.6738L53.0242 28.3188L51.3596 28.4057V29.1077ZM51.3596 27.4417H52.6738L53.0242 26.7412H51.3596V27.4417ZM47.33 12.5505C48.8194 13.7765 50.1336 15.0908 51.3596 16.5802V17.7193C50.2205 16.1416 48.8194 14.7404 47.33 13.513V12.5505ZM51.3596 47.4149C50.1336 48.9043 48.8194 50.3068 47.33 51.446V50.5688C48.8194 49.2545 50.2205 47.8535 51.3596 46.2772V47.4149ZM51.3596 26.7412V27.4417H49.7819L50.2205 26.7412H51.3596ZM51.3596 28.4057V29.1077H49.695L50.2205 28.4057H51.3596ZM51.3596 31.2977V31.9968H50.4839C50.4839 32.6988 50.3956 33.3993 50.3088 34.013H50.921C50.921 33.6628 51.0962 33.3993 51.3596 33.2257V36.3767C50.921 37.0787 50.8342 37.6042 51.2713 37.8661H51.3596V38.5681C51.0093 38.4799 50.7459 38.3047 50.5722 37.8661C50.2205 37.0787 50.5722 36.2016 51.1844 35.4142L51.0093 34.7122H50.2205C50.0454 36.2016 49.6082 37.6042 49.0828 39.0067L51.3596 39.9707V40.6698L48.8194 39.6204C48.6457 39.9707 48.4691 40.4093 48.2057 40.7581C49.3447 40.4946 51.0962 41.0201 50.6591 42.948C50.4839 43.8237 49.4316 44.5258 48.7325 44.1755C47.6802 43.7369 47.7685 42.5978 48.8194 41.8958C48.9062 42.0724 48.996 42.2475 49.1682 42.4227C48.4691 42.948 48.3808 43.7369 49.0828 43.5603C49.6082 43.4735 50.4839 42.4227 49.4316 41.4587C49.0828 41.1083 48.3808 41.1952 47.8553 41.3718C47.6802 41.7221 47.5051 41.9841 47.33 42.2475V41.547C49.0828 38.7433 50.0454 35.501 49.9585 31.9968C49.9585 31.5597 49.9585 31.1225 49.8702 30.5957H50.3956C50.3956 30.8591 50.3956 31.1226 50.3956 31.2977H51.3596ZM47.33 48.9043H47.7671V48.2906H47.33V48.9043ZM47.33 45.8371V44.7878C47.5934 44.7878 47.8553 44.9629 47.8553 45.3117C47.8553 45.5752 47.5934 45.8371 47.33 45.8371ZM47.33 37.3421C47.9437 35.6776 48.2057 33.8365 48.2057 31.9968C48.2057 30.1585 47.9437 28.3188 47.33 26.6543V29.6331C47.4168 30.4219 47.5051 31.2094 47.5051 31.9968C47.5051 32.7856 47.4168 33.6628 47.33 34.3633V37.3421ZM47.33 25.34V24.6395C47.4168 25.1649 47.9437 25.34 48.9062 25.34V25.6903C48.2056 25.7786 47.6802 25.6034 47.33 25.34ZM47.33 24.376V22.4495L49.2565 19.1204L47.33 19.4707V19.0336L50.8342 18.4199L47.6802 23.5003C47.5051 23.8521 47.33 24.114 47.33 24.376ZM47.33 15.8782L47.8553 14.8273C47.6802 14.9156 47.5051 15.0024 47.33 15.0024V15.8782ZM41.8123 9.22137C43.7374 10.0971 45.6669 11.2362 47.33 12.5505V13.513C45.6669 12.1119 43.7374 10.9742 41.8123 10.0102V9.22137ZM47.33 51.446C45.6669 52.7588 43.7374 53.8979 41.8123 54.7736V53.9862C43.7374 53.1091 45.6669 51.8831 47.33 50.5688V51.446ZM47.33 15.0024V15.8782L45.6669 19.2955L47.33 19.0336V19.4707L44.4394 19.9078L46.3659 15.7913C45.0517 16.4919 43.3003 17.1924 41.8123 17.2807V16.8421C43.5637 16.7553 45.5785 15.7913 47.33 15.0024ZM47.33 22.4495V24.376C47.33 24.4644 47.33 24.5512 47.33 24.6395V25.34C46.6308 24.8146 46.4543 23.9374 46.8928 23.15L47.33 22.4495ZM47.33 26.6543C46.2791 23.5886 44.2643 20.9601 41.8123 19.1204V19.9961C44.7028 22.3612 46.7162 25.7786 47.33 29.6331V26.6543ZM47.33 34.3633V37.3421C46.2791 40.4093 44.2643 43.0349 41.8123 44.9629V43.9989C44.7028 41.6338 46.7162 38.2164 47.33 34.3633ZM47.33 41.547C45.9288 43.7369 44.0009 45.6634 41.8123 47.0646V47.59C42.8617 46.9777 43.8271 46.1903 44.7028 45.4L45.1399 46.0137C43.8272 46.5406 43.1252 47.59 43.8271 48.2037C44.176 48.4672 45.2283 48.0286 45.6669 47.59C46.104 47.0646 46.6308 47.328 46.2791 47.8535C45.9288 48.3803 45.4034 48.6423 44.7028 48.8174V49.1663L45.6669 48.9925L45.4034 49.6063L45.9288 49.6931L46.1908 49.0794L47.33 48.9043V48.2906H46.7163C47.2431 47.6783 47.4168 46.9777 46.8031 46.626C46.1908 46.1903 45.6669 46.8026 45.1399 47.328C44.5277 47.9403 44.176 47.2397 44.6146 46.9777C45.0517 46.626 45.5785 46.2772 46.0171 45.9269L45.2283 44.8746C46.0171 44.0872 46.7162 43.2115 47.33 42.2475V41.547ZM47.33 44.7878C46.9797 44.7878 46.8031 44.9629 46.8031 45.3117C46.8031 45.5752 46.9797 45.8371 47.33 45.8371V44.7878ZM41.8123 49.8668L42.3378 51.0074H43.1252L41.8123 48.3803V49.8668ZM41.8123 40.6698V40.0575H43.2134V24.6395H41.8123V23.9374H43.8271V40.6698H41.8123ZM41.8123 38.7433C42.0743 38.4799 42.2494 38.131 42.2494 37.7793C42.2494 37.4276 42.0743 37.0787 41.8123 36.9036V38.7433ZM41.8123 36.6401C41.8977 36.5519 42.0743 36.2898 42.0743 35.9396C42.0743 35.6776 41.9874 35.4142 41.8123 35.1522V36.6401ZM41.8123 32.7856V27.7066H42.0743L42.5115 28.5808H41.8977V32.8739L41.8123 32.7856ZM41.8123 27.1797V26.0406C42.0743 26.0406 42.3378 26.304 42.3378 26.6543C42.3378 26.9163 42.0743 27.1797 41.8123 27.1797ZM40.3229 8.696C40.7614 8.8711 41.2855 9.04627 41.8123 9.22137V10.0102C41.2855 9.83508 40.7614 9.65849 40.3229 9.39796V8.696ZM41.8123 54.7736C41.2855 54.9502 40.7614 55.1239 40.3229 55.3873V54.5985C40.7614 54.4248 41.2855 54.1614 41.8123 53.9862V54.7736ZM41.8123 16.8421V17.2807C41.1971 17.2807 40.7614 17.2807 40.3229 17.1056V16.6684C40.7614 16.8421 41.2855 16.8421 41.8123 16.8421ZM41.8123 19.1204V19.9961C41.2855 19.6458 40.8484 19.2955 40.3229 18.9452V18.0695C40.7614 18.4199 41.2855 18.6818 41.8123 19.1204ZM40.3229 23.9374H41.8123V24.6395H40.3229V23.9374ZM41.8123 26.0406V27.1797C41.4606 27.1797 41.1971 26.9163 41.1971 26.6543C41.1971 26.304 41.4606 26.0406 41.8123 26.0406ZM41.8123 27.7066H41.5489C41.022 27.268 40.7614 26.6543 40.3229 26.1289V26.828C40.498 27.0928 40.7614 27.4417 41.022 27.7066H40.7614C40.5849 27.53 40.4098 27.4417 40.3229 27.268V28.6691H41.022V29.72C40.8484 29.458 40.5849 29.2829 40.3229 29.1945V29.72C40.5849 29.72 40.8484 29.8082 40.9352 29.9834C40.9352 29.9834 40.9352 29.9834 41.022 29.9834V30.4219C40.9352 30.5088 40.7614 30.6839 40.5849 30.7708L40.3229 30.3337V31.5597C40.5849 31.4713 40.8484 31.2977 41.022 31.1226V32.3485L41.8123 32.7856V27.7066ZM41.8123 35.1522V36.6401C41.724 36.7284 41.6357 36.7284 41.5489 36.8153C41.6357 36.8153 41.724 36.8153 41.8123 36.9036V38.7433C41.5489 39.0067 41.2855 39.0936 40.498 39.0936H40.3229V38.393H40.6732C41.1118 38.393 41.2855 38.131 41.2855 37.6924C41.2855 37.3421 41.022 37.1656 40.6732 37.1656H40.3229V36.465H40.5849C40.9352 36.465 41.1971 36.3767 41.1971 36.0264C41.1971 35.6776 40.9352 35.5893 40.5849 35.5893H40.3229V34.8004H40.7614C41.2855 34.8004 41.5489 34.9756 41.8123 35.1522ZM40.3229 40.0575H41.8123V40.6698H40.3229V40.0575ZM41.8123 43.9989V44.9629C41.2855 45.3117 40.7614 45.6634 40.3229 45.9269V45.0512C40.8484 44.7878 41.2855 44.4374 41.8123 43.9989ZM41.8123 47.0646V47.59C41.6357 47.6783 41.5489 47.7665 41.4606 47.7665L41.8123 48.3803V49.8668L41.5489 49.518L40.3229 50.1317V49.4311L41.2855 48.9043L40.8484 48.2037C40.6732 48.2906 40.498 48.3803 40.3229 48.4672V47.9403C40.7614 47.6783 41.2855 47.4149 41.8123 47.0646ZM39.9726 8.52083C40.0595 8.60909 40.1463 8.60909 40.3229 8.696V9.39796C40.1463 9.39796 40.0595 9.39796 39.9726 9.3097V8.52083ZM40.3229 55.3873C40.1463 55.3873 40.0595 55.3873 39.9726 55.4742V54.6867C40.0595 54.6867 40.1463 54.5985 40.3229 54.5985V55.3873ZM40.3229 16.6684V17.1056C40.1463 17.1056 40.0595 17.0173 39.9726 17.0173V16.5802C40.0595 16.5802 40.1463 16.6684 40.3229 16.6684ZM40.3229 18.0695V18.9452C40.2346 18.857 40.0595 18.7701 39.9726 18.7701V17.8944C40.0595 17.9813 40.1463 17.9813 40.3229 18.0695ZM39.9726 23.9374H40.3229V24.6395H39.9726V23.9374ZM40.3229 26.1289V26.828C40.2346 26.6543 40.0595 26.5675 39.9726 26.4791V25.8654C40.0595 25.9538 40.2346 26.0406 40.3229 26.1289ZM40.3229 27.268V28.6691H39.9726V27.7066H40.0595H39.9726V27.0046C40.0595 27.0928 40.1463 27.1797 40.3229 27.268ZM40.3229 29.1945V29.72C40.2346 29.72 40.0595 29.8082 39.9726 29.8082V29.1945C40.0595 29.1945 40.2346 29.1945 40.3229 29.1945ZM40.3229 30.3337V31.5597C40.2346 31.5597 40.0595 31.5597 39.9726 31.5597V30.9474H40.0595L39.9726 30.8591V29.8951L40.3229 30.3337ZM39.9726 34.8004H40.3229V35.5893H39.9726V34.8004ZM39.9726 36.465H40.3229V37.1656H39.9726V36.465ZM39.9726 38.393H40.3229V39.0936H39.9726V38.393ZM39.9726 40.0575H40.3229V40.6698H39.9726V40.0575ZM40.3229 45.0512V45.9269C40.1463 46.0137 40.0595 46.0137 39.9726 46.102V45.2249C40.0595 45.2249 40.2346 45.1381 40.3229 45.0512ZM40.3229 47.9403V48.4672C40.2346 48.554 40.0595 48.554 39.9726 48.6423V48.1169C40.0595 48.0286 40.2346 48.0286 40.3229 47.9403ZM40.3229 49.4311V50.1317L40.1463 50.2185C40.3229 50.9205 40.2346 51.5313 39.9726 51.9714V49.518L40.3229 49.4311ZM39.5326 8.43399C39.7092 8.43399 39.8858 8.52083 39.9726 8.52083V9.3097C39.8858 9.3097 39.7092 9.22137 39.5326 9.22137V8.43399ZM39.9726 55.4742C39.8858 55.4742 39.7092 55.5625 39.5326 55.5625V54.8619C39.7092 54.7736 39.8858 54.7736 39.9726 54.6867V55.4742ZM39.9726 16.5802V17.0173C39.7961 16.9319 39.7092 16.8421 39.5326 16.7553V16.405C39.7092 16.4918 39.8858 16.4919 39.9726 16.5802ZM39.9726 17.8944V18.7701C39.8858 18.6818 39.7092 18.595 39.5326 18.5067V17.631C39.7092 17.7193 39.8858 17.8061 39.9726 17.8944ZM39.5326 23.9374H39.9726V24.6395H39.5326V23.9374ZM39.9726 25.8654V26.4791C39.8858 26.304 39.7961 26.2157 39.7092 26.1289C39.6209 26.1289 39.6209 26.0406 39.5326 26.0406V25.5137C39.6209 25.5137 39.6209 25.6034 39.6209 25.6034C39.7961 25.6903 39.8858 25.7786 39.9726 25.8654ZM39.9726 27.0046V27.7066L39.5326 27.3549V26.7412C39.7092 26.828 39.8858 26.9163 39.9726 27.0046ZM39.5326 27.7066H39.9726V28.6706H39.5326V27.7066ZM39.9726 29.1945V30.8591L39.5326 30.2453V29.1945C39.6209 29.1945 39.7092 29.1945 39.7961 29.1945C39.8858 29.1945 39.8858 29.1945 39.9726 29.1945ZM39.9726 30.9474V31.5597C39.7961 31.5597 39.7092 31.5597 39.5326 31.4713V30.9474C39.7092 30.9474 39.7961 30.9474 39.9726 30.9474ZM39.5326 34.8004H39.9726V35.5893H39.5326V34.8004ZM39.5326 36.465H39.9726V37.1656H39.5326V36.465ZM39.5326 38.393H39.9726V39.0936H39.5326V38.393ZM39.5326 40.0575H39.9726V40.6698H39.5326V40.0575ZM39.9726 45.2249V46.102C39.8858 46.1903 39.7092 46.2772 39.5326 46.364V45.4883C39.7092 45.4 39.8858 45.3117 39.9726 45.2249ZM39.9726 48.1169V48.6423C39.8858 48.6423 39.7092 48.7291 39.5326 48.8174V48.2906C39.7092 48.2037 39.8858 48.1169 39.9726 48.1169ZM39.9726 49.518V51.9714C39.8858 52.1465 39.7092 52.3216 39.5326 52.4085V48.9925L39.7961 49.6063L39.9726 49.518ZM38.9203 8.2574C39.0954 8.2574 39.3589 8.34566 39.5326 8.43399V9.22137C39.3589 9.13312 39.0954 9.04627 38.9203 8.95943V8.2574ZM39.5326 55.5625C39.3589 55.6508 39.0954 55.7376 38.9203 55.8259V55.037C39.0954 54.9502 39.3589 54.9502 39.5326 54.8619V55.5625ZM39.5326 16.405V16.7553C39.5326 16.7553 39.5326 16.7553 39.5326 16.6684V16.3167C39.5326 16.3167 39.5326 16.3167 39.5326 16.405ZM39.5326 17.631V18.5067C39.3589 18.333 39.0954 18.2447 38.9203 18.1564V17.369C39.0954 17.4558 39.3589 17.5442 39.5326 17.631ZM38.9203 23.9374H39.5326V24.6395H38.9203V23.9374ZM39.5326 25.5137V26.0406C39.3589 25.9538 39.1824 25.8654 39.0086 25.8654H38.9203V25.2532C39.0954 25.34 39.3589 25.4283 39.5326 25.5137ZM39.5326 26.7412V27.3549L39.0086 27.0046H38.9203V26.3923C39.0954 26.3923 39.2706 26.4791 39.4472 26.6543C39.4472 26.6543 39.5326 26.6543 39.5326 26.7412ZM38.9203 27.7066H39.5326V28.6706H38.9203V27.7066ZM39.5326 29.1945V30.2453L39.4472 29.9834C39.0955 30.2454 39.0086 30.5088 39.1824 30.7708C39.2706 30.8591 39.3589 30.9474 39.5326 30.9474V31.4713C39.2706 31.4713 39.0954 31.2976 38.9203 31.2094V29.458C39.0954 29.2829 39.2706 29.1945 39.5326 29.1945ZM38.9203 34.8004H39.5326V39.0936H38.9203V34.8004ZM38.9203 40.0575H39.5326V40.6698H38.9203V40.0575ZM39.5326 45.4883V46.364C39.3589 46.4523 39.0954 46.5406 38.9203 46.7143V45.8371C39.0954 45.7503 39.3589 45.6634 39.5326 45.4883ZM39.5326 48.2906V48.8174C39.5326 48.8174 39.5326 48.8174 39.4472 48.8174L39.5326 48.9925V52.4085C39.3589 52.4968 39.0954 52.4968 38.9203 52.4968V52.0582C39.4472 52.1465 39.7092 51.3577 39.3589 50.5688C39.1824 50.5688 39.0086 50.6571 38.9203 50.6571V49.9551C39.0086 49.8668 39.0086 49.8668 39.0955 49.7814L38.9203 49.3429V48.554C39.0954 48.4672 39.3589 48.3803 39.5326 48.2906ZM32.0001 7.20801C34.3639 7.20801 36.7304 7.55828 38.9203 8.2574V8.95943C36.7304 8.34566 34.3639 7.99397 32.0001 7.99397V7.20801ZM38.9203 55.8259C36.7304 56.4382 34.3639 56.7884 32.0001 56.7884V56.0893C34.3639 56.0893 36.7304 55.7376 38.9203 55.037V55.8259ZM38.9203 17.369V18.1564C36.8172 17.1056 34.4535 16.4919 32.0001 16.4919V15.7913C34.4535 15.7913 36.8172 16.3167 38.9203 17.369ZM38.9203 23.9374H36.8172V40.0575H35.7678V39.0936H34.9776L34.6287 38.5681V36.7284C34.8921 36.3767 35.0658 36.5519 35.4161 35.8513L35.5912 35.3259C35.7678 35.239 35.8547 34.8888 35.8547 34.537H35.1541C35.1541 35.239 34.5404 35.501 34.1901 35.501V34.1882C34.4535 34.1014 34.6287 34.1014 34.9776 33.6628L35.241 33.2257C35.4161 33.1359 35.5044 33.0491 35.5912 32.8739V32.5236H34.7155L34.6287 33.1359H33.6647V32.2602C34.1018 31.9968 34.7155 31.7348 34.8039 31.1226C34.8921 31.1226 35.241 30.8591 35.3292 30.8591V30.3337H34.6287L34.3638 30.7708C34.1901 31.1225 33.4013 31.0342 33.4896 31.0342V30.0702C33.9267 29.8951 34.3638 29.6331 34.5404 29.2829L34.9776 29.1077V28.4057H34.1901C34.1901 28.6691 34.0135 28.9311 33.7516 29.1077C33.5779 29.1077 33.4896 29.1077 33.3145 29.1077V28.2306C33.7516 27.9686 34.2784 27.792 34.3638 27.1797L34.8039 27.0046V26.4791H34.0135C34.0135 26.6543 33.7516 26.9163 33.6647 27.0928H33.2261V26.3923C33.6647 26.1289 33.9267 25.7786 34.0135 25.2532L34.5404 25.1649V24.5512H33.7516C33.5779 25.34 33.2261 25.34 33.051 25.2532V24.5512C33.4896 24.2892 33.4896 24.2009 33.9267 23.7623C34.2784 23.5886 34.5404 22.7998 34.1901 22.8866H33.8398C33.5779 22.8866 33.5779 23.3266 33.4013 23.5003C33.3145 23.5003 33.051 23.5886 32.8759 23.5886V22.7998C33.3145 22.7129 33.8398 22.3612 33.9267 21.8343H34.1901C34.1901 21.749 34.1901 21.5738 34.2784 21.3987C34.0135 21.3987 33.7516 21.3987 33.5779 21.3987C33.4896 21.749 33.2261 21.9241 32.9641 22.0124C32.6138 21.749 32.5256 21.749 32.4373 21.3104C32.4373 20.6967 33.051 20.1712 32.6138 19.4707L32.5256 19.0336C32.5256 18.333 32.2622 18.2447 32.0001 17.9813V40.6698H38.9203V40.0575H37.3441V24.6395H38.9203V23.9374ZM38.9203 25.2532V25.8654H38.3949L38.0446 25.2532H38.9203ZM38.9203 26.3923V27.0046H38.4817L38.0446 26.304C38.3066 26.304 38.4817 26.304 38.7452 26.304C38.832 26.304 38.832 26.304 38.9203 26.3923ZM38.9203 27.7066V28.6691H38.4817L38.133 27.7066H38.9203ZM38.9203 29.458V31.2094C38.6583 30.9474 38.4817 30.684 38.4817 30.3337C38.3949 29.9834 38.5701 29.6331 38.9203 29.458ZM38.7452 34.8004H38.9189V39.0936H38.7452V34.8004ZM38.9203 45.8371V46.7143C36.8172 47.6783 34.4535 48.2037 32.0001 48.2037V47.5046C34.4535 47.5046 36.8172 46.8894 38.9203 45.8371ZM38.9203 48.554V49.3429L38.832 49.1663C36.8172 49.9551 34.7155 50.3937 32.4373 50.3937V51.5313C33.1379 51.1826 33.8398 50.8323 34.4535 50.9205C35.6795 50.9205 35.9415 51.7079 35.5912 52.5836C35.241 53.3725 34.1018 53.2857 33.4013 53.1973C33.4896 53.0222 33.5779 52.7588 33.6647 52.4968C34.4535 52.6705 35.4161 52.3216 35.241 51.7948C34.9776 51.1826 33.9267 51.5313 33.3145 51.9714C33.051 52.1465 32.7875 52.2334 32.4373 52.4085V53.8979L32.0001 53.5476V49.9551C34.4535 49.9551 36.7304 49.4311 38.9203 48.554ZM38.9203 49.9551C37.3441 50.6571 37.5192 51.9714 38.4817 52.4085C38.5701 52.4085 38.7452 52.4968 38.9203 52.4968V52.0582C38.832 52.0582 38.6583 51.9714 38.5701 51.9714C38.0446 51.6197 38.133 51.0074 38.9203 50.6571V49.9551ZM32.0001 12.9891L33.6647 10.4488L35.0658 14.8273C35.5044 16.1416 37.1689 16.5802 38.3066 15.0024L38.0446 14.7404C37.0807 15.9679 36.2933 15.8782 35.8547 14.4785L34.1018 8.78426L32.0001 12.287V12.9891ZM32.0001 56.7884C29.1082 56.7884 26.2177 56.263 23.5905 55.299V54.5117C26.2177 55.4742 29.1082 56.0893 32.0001 56.0893V56.7884ZM23.5905 8.696C26.2177 7.73345 29.1082 7.20801 32.0001 7.20801V7.99397C29.1082 7.99397 26.2177 8.52083 23.5905 9.4848V8.696ZM32.0001 12.287L31.3864 13.251L29.4584 8.696C28.4959 11.4128 27.7953 15.0908 25.1668 16.0547L25.4303 16.2298C27.3568 15.9679 28.671 12.8125 29.2847 10.4488L31.0347 14.5653L32.0001 12.9891V12.287ZM32.0001 15.7913V16.4919C28.9345 16.4919 26.0425 17.4558 23.5905 19.0336V18.1564C26.0425 16.6684 28.9345 15.7913 32.0001 15.7913ZM32.0001 17.9813C31.9119 17.8944 31.825 17.7192 31.825 17.4558C31.7382 17.2807 31.4747 17.1924 31.3864 17.369C30.861 17.8061 30.2488 17.369 30.4225 18.7701L30.6859 19.4707C29.9854 19.9961 30.3356 20.5215 30.5093 21.2221C30.5093 21.3987 30.5093 21.5738 30.5093 21.749L30.3356 22.0124C30.0722 21.9241 29.8102 21.749 29.7219 21.3987C29.4584 21.3987 29.2847 21.3987 29.0213 21.3987C29.0213 21.5738 29.0213 21.749 29.1082 21.8343H29.3716C29.4584 22.3612 29.8102 22.8866 30.2488 22.8866V23.6755C30.159 23.6755 29.9854 23.6755 29.8984 23.6755C29.7219 23.4135 29.635 22.9735 29.3716 22.9735H29.0213C28.671 22.9735 29.0213 23.5886 29.3716 23.7623C29.4584 24.2009 29.8102 24.376 30.2488 24.5512V25.2532C29.9854 25.34 29.5468 25.34 29.3716 24.5512H28.7594V25.1649L29.1965 25.2532C29.2847 25.7786 29.635 26.1289 30.0722 26.3923V27.0046L29.7219 27.0928C29.5468 26.9163 29.4584 26.6543 29.4584 26.4791H28.671V27.0046H29.0213C29.1082 27.6169 29.4584 27.9686 29.9854 28.2306V29.1077C29.8102 29.1077 29.635 29.1077 29.5468 29.1077C29.2847 28.9311 29.1965 28.7559 29.1965 28.5808H28.409V29.1077L28.7594 29.1945C29.0213 29.5448 29.3716 29.9834 29.7219 30.0702L29.8102 31.0342C29.8102 31.0342 29.0213 31.1225 29.0213 30.7708V30.3337H28.3208C28.3208 30.5088 28.3208 30.6839 28.3208 30.8591C28.409 30.8591 28.4959 30.9474 28.5842 30.9474C28.8476 31.4713 29.1965 31.9099 29.635 32.2602L29.5468 33.1359H29.1082L29.0213 32.5236H28.1456V32.8739C28.2324 33.0491 28.409 33.1359 28.5842 33.1359L28.671 33.3993C28.9345 33.9248 29.1965 34.1882 29.5468 34.1882V35.501C29.1965 35.501 28.7594 35.239 28.671 34.6253H28.0573V35.1522L28.409 35.3259C28.5842 36.1147 28.9345 36.465 29.3716 36.7284V38.5681L28.9345 39.1804H28.2324V40.0575H27.1816V23.9374H23.5905V24.6395H26.5694V40.0575H23.5905V40.6698H32.0001V17.9813ZM32.0001 47.5046V48.2037C28.9345 48.2037 26.0425 47.328 23.5905 45.8371V45.0512C26.0425 46.5406 28.9345 47.5046 32.0001 47.5046ZM32.0001 49.9551C30.4225 49.9551 28.8476 49.6931 27.3568 49.3429L27.2685 48.7291H26.6562C26.1308 47.6783 25.4303 47.1528 24.6414 46.9777V47.59C25.3419 47.59 25.6937 48.1169 25.9557 48.9043C25.1668 48.6423 24.378 48.2906 23.5905 47.8535V48.3803C23.854 48.554 24.0277 48.6423 24.2028 48.7291L24.0277 49.2545L23.5905 49.1663V49.7814C24.4662 49.7814 24.9034 50.1317 24.818 50.5688C24.7297 51.0074 24.2028 51.0957 23.5905 51.0074V51.7079C24.4662 51.6197 25.0799 51.2694 25.2551 50.6571C25.4303 50.0434 25.1668 49.6063 24.7297 49.4311L24.818 48.9925C25.342 49.1663 25.8688 49.4311 26.3928 49.518L25.604 52.1465L25.8688 52.9339L27.0065 49.7814C28.5842 50.2185 30.159 50.3937 31.825 50.3937L31.9119 51.8831C30.2488 52.4968 29.2847 52.4968 29.1965 51.9714C29.1082 51.5313 29.8102 51.2694 30.7742 51.6197C30.861 51.446 31.0347 51.2694 31.2113 51.1826C30.4225 50.744 29.7219 50.7439 29.1082 51.0957C28.0573 51.5313 28.3208 52.2334 29.0213 52.6705C29.8984 53.1091 30.9478 52.9339 31.9119 52.5836V53.3725L32.0001 53.5476V49.9551ZM23.5905 39.0936V37.6042L23.7657 38.2164L24.5546 34.8004H25.7791V39.0936H24.9917V35.501L24.2028 39.0936H23.5905ZM23.5905 30.684V29.8082H24.4662V28.6691H23.5905V27.792H25.604L25.8688 28.6691H25.2551V33.1359L24.4662 32.5236V30.684H23.5905ZM23.5905 17.5442C23.9409 17.1056 24.0277 16.4919 23.9409 15.7913H23.5905V17.5442ZM23.5905 55.299C22.188 54.7736 20.7869 54.1614 19.4726 53.3725V52.4968C20.7869 53.2857 22.188 53.9862 23.5905 54.5117V55.299ZM19.4726 10.6239C20.7869 9.92192 22.188 9.22137 23.5905 8.696V9.4848C22.188 10.0102 20.7869 10.7108 19.4726 11.4982V10.6239ZM23.5905 15.7913V17.5442C23.152 18.1564 22.3631 18.4199 21.5743 18.0695L19.4726 17.1056V16.0547L21.8377 17.1924C23.152 17.8944 23.7657 17.369 23.5905 15.7913ZM23.5905 18.1564C22.0143 19.1204 20.6117 20.3464 19.4726 21.749V22.8866C20.6117 21.3987 22.0143 19.9961 23.5905 19.0336V18.1564ZM23.5905 23.9374V24.6395H20.6986V40.0575H23.5905V40.6698H20.0848V23.9374H23.5905ZM23.5905 27.792H21.3992L21.6626 28.6691H22.1011V29.8082C21.3992 30.0702 21.3108 30.3337 21.7508 31.0342C21.9245 31.3845 22.2763 31.6465 22.7149 31.6465C22.9783 31.3845 22.8915 31.1225 22.8915 30.684H23.5905V29.8082H22.8915V28.6691H23.5905V27.792ZM23.5905 37.6042L22.9783 34.8004H21.6626V39.0936H22.5397V35.501L23.3271 39.0936H23.5905V37.6042ZM23.5905 45.0512V45.8371C22.0143 44.8746 20.6117 43.7369 19.4726 42.2475V41.1083C20.6117 42.6846 22.0143 43.9989 23.5905 45.0512ZM23.5905 47.8535V48.3803C23.5023 48.3803 23.3271 48.2906 23.152 48.2037L23.4154 47.7665C23.5023 47.7665 23.5905 47.8535 23.5905 47.8535ZM23.5905 49.1663H23.3271C22.8017 48.2906 22.1011 47.7665 21.3108 47.7665C20.5249 47.7665 19.9126 48.4672 20.7869 50.2185L21.3992 49.9551C20.8752 49.4311 20.6117 48.8174 21.0489 48.4672C21.3992 48.0286 21.9245 48.3803 22.4515 49.1663L22.3631 49.3429L22.4515 49.8668C22.8915 49.7814 23.3271 49.7814 23.5905 49.7814V49.1663ZM23.5905 51.0074V51.7079C23.4154 51.7079 23.2403 51.7079 22.9783 51.6197V50.8322C23.152 50.9205 23.4154 51.0074 23.5905 51.0074ZM19.4726 43.8237C19.8229 43.8237 20.0848 43.5603 20.0848 43.2984C20.0848 42.948 19.8229 42.7729 19.4726 42.7729V43.8237ZM19.4726 53.3725C19.3858 53.2857 19.2989 53.1973 19.2106 53.1973V52.3216C19.2989 52.4085 19.3858 52.4968 19.4726 52.4968V53.3725ZM19.2106 10.7976C19.2989 10.7976 19.3858 10.7108 19.4726 10.6239V11.4982C19.3858 11.5865 19.2989 11.5865 19.2106 11.6748V10.7976ZM19.4726 16.0547V17.1056L19.2106 16.9319V15.9679L19.4726 16.0547ZM19.4726 21.749V22.8866C19.3858 23.0632 19.2989 23.2369 19.2106 23.3266V22.0992C19.2989 22.0124 19.3858 21.8343 19.4726 21.749ZM19.4726 41.1083V42.2475C19.3858 42.1592 19.2989 41.9841 19.2106 41.8958V40.6698C19.2989 40.8449 19.3858 40.9333 19.4726 41.1083ZM19.4726 42.7729V43.8237C19.3858 43.8237 19.2989 43.7369 19.2106 43.7369V42.8612C19.2989 42.7729 19.3858 42.7729 19.4726 42.7729ZM19.2106 45.0512V44.5258C19.2989 44.6126 19.3858 44.6995 19.4726 44.7878L19.2106 45.0512ZM19.2106 53.1973C18.6852 52.8471 18.1598 52.4968 17.6344 52.1465V51.2694C18.1598 51.6197 18.6852 51.9714 19.2106 52.3216V53.1973ZM17.6344 11.8499C18.1598 11.4982 18.6852 11.1494 19.2106 10.7976V11.6748C18.6852 12.0251 18.1598 12.3754 17.6344 12.7242V11.8499ZM19.2106 15.9679V16.9319L17.6344 16.2298V15.1776L19.2106 15.9679ZM19.2106 22.0992V23.3266C18.5969 24.2892 18.0701 25.2532 17.6344 26.2157V24.5512C18.0701 23.6755 18.5969 22.8866 19.2106 22.0992ZM19.2106 40.6698V41.8958C18.5969 41.1083 18.0701 40.3195 17.6344 39.4438V37.7793C18.0701 38.8316 18.5969 39.7941 19.2106 40.6698ZM19.2106 42.8612V43.7369C19.0354 43.6501 18.9486 43.4735 18.9486 43.2984C18.9486 43.035 19.0354 42.948 19.2106 42.8612ZM19.2106 44.5258C18.5969 43.9989 18.0701 43.3852 17.6344 42.6846V43.2984L18.2452 44.0872L17.6344 44.5258V45.4L18.5969 44.6126C18.7735 44.7878 18.9486 44.9629 19.1224 45.1381L19.2106 45.0512V44.5258ZM17.6344 20.5215V19.5589L17.9832 19.7341L17.6344 18.595V17.1056L18.6852 20.8718L17.6344 20.5215ZM17.6344 52.1465C16.4055 51.2694 15.2678 50.2185 14.1287 49.1663V48.1169C15.1795 49.2545 16.4055 50.3068 17.6344 51.2694V52.1465ZM14.1287 14.8273C15.2678 13.7765 16.4055 12.7242 17.6344 11.8499V12.7242C16.4055 13.6896 15.1795 14.7404 14.1287 15.8782V14.8273ZM17.6344 15.1776L16.4952 14.6536L17.6344 18.595V17.1056L17.3709 16.1416L17.6344 16.2298V15.1776ZM17.6344 19.5589V20.5215L14.3921 19.3838C15.7063 21.4855 17.1943 24.5512 16.0566 26.1289L15.7063 26.2157C16.5821 24.2009 15.3547 21.8343 14.1287 19.6458V18.333L17.6344 19.5589ZM17.6344 24.5512C16.4952 26.7412 15.7947 29.2829 15.7947 31.9968C15.7947 34.7122 16.4952 37.2539 17.6344 39.4438V37.7793C16.9323 35.9396 16.4952 34.013 16.4952 31.9968C16.4952 29.9834 16.9323 28.0569 17.6344 26.2157V24.5512ZM17.6344 42.6846V43.2984L17.0192 42.5978C16.7572 43.7369 16.1435 43.9989 15.0926 43.4735C15.0926 44.3492 15.9684 44.7878 17.0192 44.9629L17.6344 44.5258V45.4L16.0566 46.7143L15.88 46.0137L16.4952 45.4C14.3038 44.7878 14.3038 43.6501 14.8307 42.3343C15.5298 43.2984 16.2318 43.2115 16.4952 41.8958C16.0566 41.2835 15.7063 40.583 15.3547 39.8824L14.1287 40.3195V38.3047C14.3921 38.5681 14.4804 39.0067 14.6541 39.4438L15.0926 39.2687C14.7424 38.393 14.3921 37.5158 14.1287 36.6401V33.9248C14.3038 35.501 14.6541 36.9905 15.2678 38.393C15.7063 37.8661 15.88 37.2539 15.5298 36.6401L16.0566 36.3767C16.3201 37.0787 16.2318 37.9544 15.7063 39.0067L15.9684 39.5307L15.7947 39.7073C16.3201 40.7581 16.9323 41.809 17.6344 42.6846ZM14.1287 49.1663C13.8667 48.8174 13.6032 48.554 13.253 48.2037V47.0646C13.6032 47.4149 13.8667 47.7666 14.1287 48.1169V49.1663ZM13.253 15.7913C13.6032 15.5279 13.8667 15.1776 14.1287 14.8273V15.8782C13.8667 16.2298 13.6032 16.5802 13.253 16.9319V15.7913ZM14.1287 18.333V19.6458C13.8667 19.1204 13.5164 18.5067 13.253 17.9813L14.1287 18.333ZM14.1287 33.9248V36.6401C14.1287 36.465 14.0418 36.2898 14.0418 36.0264L13.253 36.2016V35.4142L13.9535 35.3259L13.7784 34.1014L13.253 34.1882V33.4876L13.6032 33.3993C13.6032 32.9607 13.6032 32.5236 13.6032 31.9968H14.0418C14.0418 32.6105 14.1287 33.311 14.1287 33.9248ZM14.1287 38.3047V40.3195L14.0418 40.4093C13.8667 39.3555 13.6032 38.655 13.253 38.393V37.6042C13.6032 37.6924 13.9535 37.9544 14.1287 38.3047ZM13.253 40.8449L13.6032 40.4093C13.5164 40.2327 13.4296 40.1444 13.253 40.0575V40.8449ZM13.253 29.2829V28.5808H14.1287L13.7784 29.2829H13.253ZM13.253 27.7066V26.9163H14.1287L13.8667 27.7066H13.253ZM13.253 48.2037C12.5524 47.328 11.8519 46.364 11.1513 45.4V43.9989C11.765 45.0512 12.4656 46.102 13.253 47.0646V48.2037ZM11.1513 18.595C11.8519 17.631 12.5524 16.6684 13.253 15.7913V16.9319C12.4656 17.8944 11.765 18.9452 11.1513 19.9961V18.595ZM13.253 17.9813V27.7066H11.1513V27.1797L11.3264 26.9163H13.253V17.9813ZM13.253 28.5808V29.2829H11.1513V28.7559L11.3264 28.5808H13.253ZM13.253 33.4876V34.1882H12.5524L12.7275 35.501L13.253 35.4142V36.2016L11.1513 36.465V35.8513L11.9387 35.6776L11.765 34.3633C11.5885 34.3633 11.3264 34.2751 11.1513 34.2751V33.4876C11.2381 33.4876 11.3264 33.4876 11.3264 33.4876C11.5885 33.3993 11.6753 33.1359 11.5885 32.8739C11.5015 32.6105 11.3264 32.4354 11.1513 32.4354V31.6465C11.765 31.5597 12.3773 31.9968 12.5524 33.4876H13.253ZM13.253 37.6042V38.393C13.1661 38.3047 13.0779 38.3047 12.9041 38.3047C12.1153 38.3047 12.2022 39.3555 12.6393 39.7941C12.9041 39.8824 13.0779 39.8824 13.253 40.0575V40.8449L13.1661 40.9333L12.3773 40.7581L11.5885 41.1952C11.5015 41.2835 11.3264 41.3718 11.1513 41.3718V40.4093L11.2381 40.3195L11.5885 40.583L11.9387 40.2327L11.1513 39.7941V39.0936L11.765 39.5307C11.5885 38.393 11.9387 37.6924 12.8144 37.6042C12.991 37.6042 13.1661 37.6042 13.253 37.6042ZM11.1513 45.4C8.69789 41.5469 7.20996 36.9036 7.20996 31.9968C7.20996 27.0928 8.69789 22.4495 11.1513 18.595V19.9961C9.13649 23.5003 7.99586 27.6169 7.99586 31.9968C7.99586 36.3767 9.13649 40.4947 11.1513 43.9989V45.4ZM11.1513 27.1797L10.8878 27.7066H11.1513V27.1797ZM11.1513 28.7559L10.801 29.2829H11.1513V28.7559ZM11.1513 31.6465C10.7127 31.7348 10.2741 32.2602 10.2741 32.9607C10.2741 33.5745 10.5376 34.013 11.1513 34.2751V33.4876C10.9747 33.4876 10.801 33.311 10.801 33.0491C10.7127 32.7856 10.801 32.4354 11.063 32.4354C11.063 32.3485 11.1513 32.3485 11.1513 32.4354V31.6465ZM11.1513 35.8513H10.8878C10.801 35.4142 10.6244 34.9756 10.3625 34.537L10.0122 34.7122C10.5376 35.7645 10.099 36.465 9.57502 35.9396C8.96132 35.4142 9.39843 34.3633 9.57502 33.6628L9.31159 33.5745C8.87306 34.537 8.60963 35.4142 9.31159 36.465C9.83844 37.2539 10.3625 36.9905 10.8878 36.5519L11.1513 36.465V35.8513ZM11.1513 39.0936L10.5376 38.7433L10.2741 39.1804L11.1513 39.7941V39.0936ZM11.1513 40.4093L10.6244 40.8449L10.8878 41.1952C10.9747 41.2835 11.063 41.3718 11.1513 41.3718V40.4093Z" fill="currentColor"/>
</g>
</g>
<defs>
<filter id="filter0_d_3396_56365" x="-6" y="-5" width="76" height="76" filterUnits="userSpaceOnUse" color-interpolation-filters="sRGB">
<feFlood flood-opacity="0" result="BackgroundImageFix"/>
<feColorMatrix in="SourceAlpha" type="matrix" values="0 0 0 0 0 0 0 0 0 0 0 0 0 0 0 0 0 0 127 0" result="hardAlpha"/>
<feOffset dy="1"/>
<feGaussianBlur stdDeviation="3"/>
<feComposite in2="hardAlpha" operator="out"/>
<feColorMatrix type="matrix" values="0 0 0 0 0 0 0 0 0 0 0 0 0 0 0 0 0 0 0.08 0"/>
<feBlend mode="normal" in2="BackgroundImageFix" result="effect1_dropShadow_3396_56365"/>
<feBlend mode="normal" in="SourceGraphic" in2="effect1_dropShadow_3396_56365" result="shape"/>
</filter>
<clipPath id="clip0_3396_56365">
<rect width="64" height="64" fill="currentColor"/>
</clipPath>
</defs>
</svg>
