<svg width="24" height="24" viewBox="0 0 24 24" fill="none" xmlns="http://www.w3.org/2000/svg">
<g clip-path="url(#clip0_3607_43047)">
<path d="M9.75 7.5C9.75 7.30109 9.82902 7.11032 9.96967 6.96967C10.1103 6.82902 10.3011 6.75 10.5 6.75H13.5C13.6989 6.75 13.8897 6.82902 14.0303 6.96967C14.171 7.11032 14.25 7.30109 14.25 7.5C14.25 7.69891 14.171 7.88968 14.0303 8.03033C13.8897 8.17098 13.6989 8.25 13.5 8.25H10.5C10.3011 8.25 10.1103 8.17098 9.96967 8.03033C9.82902 7.88968 9.75 7.69891 9.75 7.5Z" fill="currentColor"/>
<path fill-rule="evenodd" clip-rule="evenodd" d="M10.7804 4.30077C11.1887 4.11532 11.5737 4 11.9999 4C12.4261 4 12.811 4.11532 13.2193 4.30077C13.6105 4.47843 14.0601 4.73868 14.6102 5.05659L19.0789 7.64352C19.4256 7.84411 19.6965 8.15347 19.8495 8.52364C20.0025 8.89382 20.0292 9.30414 19.9253 9.69101C19.8215 10.0779 19.5929 10.4197 19.275 10.6634C18.9572 10.9072 18.5678 11.0393 18.1672 11.0393H18.0386V15.723C18.5884 15.7723 19.098 16.0319 19.4611 16.4477C19.8242 16.8634 20.0129 17.4033 19.9878 17.9547C19.9627 18.5061 19.7257 19.0266 19.3263 19.4076C18.9269 19.7887 18.3959 20.0009 17.8438 20H6.15592C5.60391 20.0009 5.07287 19.7887 4.67346 19.4076C4.27406 19.0266 4.0371 18.5061 4.01199 17.9547C3.98687 17.4033 4.17553 16.8634 4.53865 16.4477C4.90176 16.0319 5.41132 15.7723 5.96112 15.723V11.0393H5.83333C5.43302 11.039 5.04395 10.9068 4.72637 10.6631C4.40879 10.4193 4.18041 10.0777 4.07659 9.69111C3.97277 9.30449 3.9993 8.89443 4.15207 8.52441C4.30484 8.15439 4.57534 7.84506 4.92167 7.6443L9.38958 5.05737C9.93969 4.7379 10.3893 4.47765 10.7804 4.30077ZM11.2635 5.36515C10.9316 5.51553 10.5311 5.74696 9.9506 6.08279L5.50685 8.65569C5.38299 8.72759 5.28628 8.83831 5.23168 8.97071C5.17708 9.10311 5.16764 9.24982 5.20481 9.38812C5.24198 9.52643 5.3237 9.64864 5.43731 9.73583C5.55093 9.82302 5.69012 9.87033 5.83333 9.87046H18.1664C18.3096 9.87033 18.4488 9.82302 18.5625 9.73583C18.6761 9.64864 18.7578 9.52643 18.795 9.38812C18.8321 9.24982 18.8227 9.10311 18.7681 8.97071C18.7135 8.83831 18.6168 8.72759 18.4929 8.65569L14.0492 6.08279C13.4679 5.74696 13.0682 5.51553 12.7362 5.36515C12.416 5.21944 12.2017 5.16879 11.9999 5.16879C11.7981 5.16879 11.5838 5.21944 11.2635 5.36515ZM16.8699 15.7144V11.0393H14.5323V15.7144H16.8699ZM10.6363 15.7144V11.0393H13.3635V15.7144H10.6363ZM9.4675 15.7144V11.0393H7.12991V15.7144H9.4675ZM5.18192 17.8572C5.18192 17.3196 5.61827 16.8832 6.15592 16.8832H17.8438C18.1022 16.8832 18.3499 16.9858 18.5326 17.1685C18.7152 17.3512 18.8178 17.5989 18.8178 17.8572C18.8178 18.1155 18.7152 18.3633 18.5326 18.5459C18.3499 18.7286 18.1022 18.8312 17.8438 18.8312H6.15592C5.61827 18.8312 5.18192 18.3949 5.18192 17.8572Z" fill="currentColor"/>
</g>
<defs>
<clipPath id="clip0_3607_43047">
<rect width="24" height="24" fill="currentColor"/>
</clipPath>
</defs>
</svg>
