<svg width="156" height="44" viewBox="0 0 156 44" fill="none" xmlns="http://www.w3.org/2000/svg">
<path fill-rule="evenodd" clip-rule="evenodd" d="M24.5768 26.2392L16.6934 26.2369C16.6934 26.2369 16.4549 26.2105 16.3345 26.0015C16.2165 25.7972 16.2475 25.6884 16.2475 25.6884V18.3403C16.2475 18.3403 16.2382 18.0793 16.378 17.9232C16.5124 17.7732 16.7595 17.7662 16.7595 17.7662H27.1465C27.1465 17.7662 27.3128 17.7406 27.5039 17.847C27.6694 17.9364 27.7602 18.2813 27.7602 18.2813V25.822C27.7602 25.822 27.6694 26.0318 27.5785 26.1056C27.4969 26.1755 27.326 26.2345 27.326 26.2345L24.5768 26.2392ZM24.5162 13.04V4.91116C32.8641 6.12613 39.2768 13.3134 39.2768 21.9977C39.2768 30.6811 32.8788 37.8785 24.5317 39.0974L24.5177 30.9126H27.7571C30.4613 30.9126 32.4477 28.8859 32.4477 26.1825V17.7126C32.4477 15.01 30.2943 13.0361 27.5901 13.0361L24.5162 13.04ZM11.463 17.7126C11.463 15.01 13.1076 13.0229 15.8094 13.0229L19.4085 13.012V4.93058C11.1025 6.18362 4.73171 13.3429 4.73171 21.9977C4.73171 30.654 11.1033 37.8319 19.4085 39.0834L19.3953 30.9717L16.385 30.9694C13.6801 30.9694 11.463 28.8851 11.463 26.1825V17.7126ZM0 21.9977C0 9.84873 9.85261 0 22.0039 0C34.1567 0 44.007 9.84951 44.007 21.9977C44.007 34.152 34.1559 44 22.0039 44C9.85261 44 0 34.1528 0 21.9977Z" fill="currentColor"/>
<path fill-rule="evenodd" clip-rule="evenodd" d="M147.01 42.1062C147.01 42.1062 147.037 41.9508 147.104 41.8816C147.169 41.8156 147.558 41.7162 147.719 41.5196C147.869 41.3208 151.09 34.0271 151.09 34.0271L151.286 33.9781L154.248 40.7754C154.447 41.2229 154.582 41.5228 154.692 41.6346C154.812 41.7387 155.109 41.8653 155.308 41.8809C155.426 41.891 155.358 42.0627 155.358 42.0627L152.105 42.0603C152.105 42.0603 151.888 41.8933 152.105 41.8102C152.238 41.7612 152.76 41.5997 152.842 41.2695C152.882 41.1211 152.809 40.7747 152.66 40.3785C152.557 40.0988 152.264 39.4851 152.098 39.3686C151.95 39.2645 151.338 39.3196 150.774 39.3041C150.263 39.2878 149.586 39.2699 149.369 39.3849C149.101 39.5271 148.804 40.6511 148.742 40.8236C148.683 40.9914 148.742 41.3845 148.889 41.501C149.139 41.6975 149.637 41.8482 149.814 41.898C149.879 41.9166 149.863 42.0968 149.863 42.0968L147.01 42.1062ZM151.931 38.7743C152.015 38.664 151.706 38.0573 151.421 37.4187C151.206 36.941 150.843 36.0095 150.725 36.0476C150.642 36.0725 150.349 36.8074 150.114 37.3356C149.865 37.9081 149.566 38.6228 149.686 38.7409C149.757 38.8124 150.313 38.8574 150.775 38.8403C151.307 38.8209 151.858 38.8737 151.931 38.7743ZM61.4207 40.3715C61.5955 39.5255 61.4044 38.9662 60.9096 38.5514C60.675 38.3579 60.0465 38.0565 59.5361 38.0565C58.8307 38.0565 58.3709 37.9905 58.3709 38.7759L58.3779 40.6861C58.3779 41.7612 59.7171 41.647 59.7171 41.647C60.8078 41.6478 61.2887 41.017 61.4207 40.3715ZM82.5693 41.7931C82.5817 41.8102 82.9849 41.6944 83.1682 41.4155C83.2622 41.2641 83.3834 41.0598 83.3834 40.5548V35.4937C83.3834 35.1814 83.2832 34.8785 83.1496 34.7526C83.0222 34.6221 82.814 34.4877 82.3565 34.4543C82.3565 34.4543 82.0092 34.2376 82.3565 34.1405C82.3728 34.1552 85.4164 34.135 85.4164 34.135C85.4164 34.135 85.6937 34.2228 85.4498 34.3533C85.23 34.4706 85.0342 34.3883 84.8563 34.5879C84.7305 34.7262 84.6574 34.9927 84.6559 35.4254V37.9237C84.6559 38.0231 84.7514 38.1715 84.7833 38.1738C84.9503 38.1909 85.0505 37.9874 85.1321 37.9423C85.4646 37.6603 85.9757 37.1088 86.4387 36.6667C87.2715 35.8752 87.6918 35.4673 87.8285 35.2809C88.0087 35.0315 88.0468 34.685 87.9419 34.5685C87.8285 34.4365 87.5807 34.4365 87.3655 34.3689C87.3655 34.3689 87.1682 34.2368 87.3989 34.1545C87.3989 34.1716 90.124 34.1545 90.124 34.1545C90.124 34.1545 90.2258 34.4023 90.0767 34.4706C89.6976 34.504 89.5577 34.5833 89.3332 34.7021C89.1165 34.8109 88.6644 35.1278 88.2759 35.5124C88.2759 35.5124 86.2826 37.2268 86.3579 37.4273C86.4729 37.7427 87.6234 39.0905 88.4049 40.1742C88.7405 40.6372 89.0753 41.2182 89.2664 41.3643C89.4529 41.4987 89.7457 41.7768 89.9951 41.7768C90.2833 41.7768 90.145 42.0401 90.145 42.0401C90.145 42.0401 88.5913 41.985 88.3241 42.0114C88.1408 42.0246 87.9233 41.6944 87.9279 41.6944C87.3166 40.9013 85.5811 38.4713 85.449 38.3199C85.3822 38.2709 84.6691 38.7992 84.6559 39.2474C84.6699 39.2311 84.6559 40.7195 84.6559 40.7195C84.6559 41.1607 84.7577 41.3837 84.8819 41.5127C85.1018 41.7255 85.6464 41.7923 85.6464 41.7768C85.8949 41.8444 85.7271 42.0114 85.7271 42.0114H82.438C82.438 42.0114 82.3254 41.8451 82.5693 41.7931ZM72.3757 41.7985C72.6002 41.7115 73.0065 41.4567 73.1618 41.2827C73.3118 41.1048 73.4267 40.9533 73.4267 40.3241C73.4267 40.3241 73.3925 36.4857 73.3925 35.921C73.3925 35.4634 73.2302 34.8513 73.015 34.6835C72.7967 34.5172 72.5404 34.4155 72.27 34.403C72.27 34.403 72.0548 34.1723 72.2863 34.1218C72.3524 34.1079 74.3512 34.1218 74.3512 34.1218L79.246 39.5278C79.246 39.5278 79.4371 39.7655 79.5435 39.7119C79.5645 39.6995 79.5894 39.4727 79.5909 39.447C79.6103 39.0338 79.5956 35.8526 79.5956 35.8526C79.5956 35.5124 79.6624 35.1309 79.4286 34.8653C79.1326 34.5273 78.5437 34.4675 78.3721 34.4023C78.2377 34.3533 78.2377 34.2034 78.3868 34.1545C78.3868 34.1995 81.0009 34.1545 81.0009 34.1545C81.1827 34.1716 81.0483 34.3533 81.0483 34.3533C80.7538 34.4365 80.4625 34.5017 80.3243 34.6835C80.1588 34.8987 80.0741 35.2234 80.0741 35.8526V42.1528H79.8512C79.8512 42.1528 74.4786 36.3125 74.1538 35.9917C74.0062 35.8418 73.9565 36.0406 73.9565 36.2379C73.9565 36.4368 73.9402 40.2542 73.9402 40.2542C73.9402 40.9129 74.0731 41.3153 74.4902 41.5336C74.6533 41.6167 75.0736 41.7247 75.2624 41.7605C75.3463 41.7768 75.3875 42.0153 75.3875 42.0153H72.3764C72.3757 42.0168 72.2957 41.8273 72.3757 41.7985ZM63.4591 42.0355C63.4591 42.0355 63.4887 41.8785 63.5562 41.811C63.6207 41.7434 64.0091 41.6455 64.1668 41.4474C64.3168 41.2485 67.5406 33.9564 67.5406 33.9564L67.7403 33.9082L70.7008 40.7047C70.8981 41.1483 71.0286 41.4513 71.1475 41.5624C71.2632 41.6688 71.5608 41.7931 71.7581 41.8102C71.8762 41.8195 71.8101 41.9904 71.8101 41.9904L68.5171 42.0743C68.5171 42.0743 68.4029 41.8925 68.6166 41.8094C68.7494 41.7574 69.2132 41.529 69.2932 41.1957C69.332 41.0466 69.2621 40.704 69.1137 40.3031C69.0089 40.0258 68.716 39.4121 68.549 39.2971C68.4029 39.1907 67.79 39.2474 67.2276 39.2311C66.7141 39.2148 66.0375 39.1953 65.8238 39.3134C65.5535 39.4587 65.2567 40.5766 65.1923 40.7514C65.1348 40.9207 65.1923 41.3153 65.3422 41.4295C65.5908 41.6245 66.088 41.776 66.2697 41.8242C66.3327 41.8436 66.3171 42.0238 66.3171 42.0238L63.4591 42.0355ZM68.3851 38.7028C68.4651 38.5956 68.1574 37.9874 67.8716 37.348C67.6556 36.8664 67.2936 35.9381 67.1755 35.9746C67.0916 35.9987 66.7956 36.7351 66.5649 37.2649C66.3132 37.8336 66.0126 38.5506 66.1338 38.6687C66.2053 38.7409 66.7622 38.7829 67.2245 38.7665C67.7558 38.751 68.3097 38.8023 68.3851 38.7028ZM61.0253 36.1742C61.0315 35.6437 60.7231 35.1496 60.379 34.8653C60.1809 34.7021 59.8002 34.5017 59.3707 34.5017C58.774 34.5017 58.3825 34.5825 58.3825 35.1457L58.3779 37.2455C58.3297 37.7427 59.5175 37.6184 59.5175 37.6184C60.5126 37.6191 61.0074 37.4801 61.0253 36.1742ZM56.0139 41.79C56.4109 41.6789 56.7022 41.5795 56.8226 41.4311C56.9562 41.2641 57.0036 41.1592 57.0067 40.7164V35.416C57.006 35.0975 56.9244 34.9165 56.7411 34.7177C56.3845 34.3292 55.965 34.5841 55.899 34.438C55.8469 34.3254 55.864 34.128 55.864 34.128H59.2005C60.1537 34.128 60.7853 34.1692 61.3539 34.4559C61.7835 34.6687 62.297 35.183 62.297 35.9513C62.297 37.0187 61.4363 37.3985 61.089 37.6471C61.7509 37.8258 62.8423 38.208 62.8423 39.4486C62.8423 40.735 62.1315 41.5476 61.4526 41.7628C60.9888 41.9088 60.4085 41.999 59.7443 42.0036H56.0132V41.79H56.0139ZM103.952 41.8583C103.952 41.8816 104.366 41.7271 104.547 41.5802C104.677 41.4746 104.779 41.254 104.779 40.7343L104.795 35.7283C104.795 35.3057 104.746 35.1146 104.596 34.8839C104.448 34.654 104.082 34.6019 103.654 34.5359C103.654 34.5359 103.34 34.3044 103.562 34.2081C103.541 34.205 105.883 34.2244 107.01 34.2384C108.169 34.257 109.324 34.1436 109.442 34.2236C109.591 34.323 109.514 35.4331 109.54 35.6444C109.557 35.7586 109.465 35.9932 109.362 36.0072C109.226 36.0235 109.196 35.7889 109.196 35.6444C109.196 35.3477 108.941 35.0004 108.881 34.9165C108.721 34.7029 108.415 34.6664 108.268 34.6664H106.49C106.332 34.6664 106.288 34.6602 106.235 34.7169C106.192 34.7697 106.124 34.8987 106.117 35.0665V37.2649C106.117 37.397 106.125 37.5811 106.203 37.6106C106.383 37.6751 107.575 37.6595 107.575 37.6595C107.774 37.6595 108.003 37.4599 108.073 37.3473C108.173 37.1655 108.345 36.9503 108.434 36.6854C108.484 36.5355 108.748 36.4182 108.748 36.7514C108.748 36.9596 108.781 39.3274 108.781 39.3274C108.649 39.5115 108.534 39.28 108.534 39.28C108.446 38.8194 108.364 38.6539 108.216 38.5032C108.077 38.3525 107.873 38.1723 107.576 38.1723C107.576 38.1723 106.574 38.1575 106.549 38.1552C106.168 38.121 106.151 38.5335 106.138 38.6857C106.138 38.7021 106.118 40.8018 106.118 40.8018C106.138 41.0163 106.185 41.3029 106.32 41.4303C106.454 41.5453 106.792 41.7869 107.246 41.8249C107.458 41.8444 107.311 42.0883 107.311 42.0883H103.871C103.871 42.0883 103.706 41.9764 103.952 41.8583ZM95.718 35.0968C96.449 34.3984 97.5102 34.0954 98.5784 34.0908C99.6496 34.0908 100.536 34.2562 101.275 34.9647C102.067 35.7268 102.475 36.6667 102.483 37.9423C102.483 39.2319 102.069 40.2829 101.241 41.0473C100.507 41.7302 99.4756 42.1333 98.4269 42.1365C97.3129 42.1365 96.2416 41.8374 95.5029 41.0831C94.7594 40.3187 94.4844 39.2878 94.479 38.072C94.4782 36.8074 94.9156 35.8713 95.718 35.0968ZM96.7419 40.8523C97.3976 41.5966 97.8528 41.762 98.7601 41.762C99.3886 41.762 100.022 41.3899 100.513 40.8034C100.925 40.3047 101.124 39.4307 101.124 38.1389C101.124 36.8423 100.769 35.9785 100.28 35.3819C99.7187 34.6843 99.112 34.5242 98.4129 34.5204C97.706 34.5204 96.9913 34.7029 96.5252 35.2312C96.0202 35.8083 95.7911 36.7312 95.7848 37.992C95.7848 39.2389 96.3768 40.4383 96.7419 40.8523ZM138.231 41.7931C138.231 41.8102 138.761 41.6284 138.96 41.3293C139.084 41.1444 139.163 40.9673 139.163 40.3396L139.092 35.3943C139.059 35.0167 138.773 34.7472 138.646 34.6835C138.481 34.6011 138.21 34.6198 138.066 34.5025C138.066 34.5025 137.737 34.257 138.018 34.2042C137.997 34.2143 140.017 34.1381 140.043 34.2143C140.267 34.3541 143.425 37.8576 144.728 39.3647C145.161 39.8759 145.326 39.792 145.309 39.2987C145.325 39.2987 145.325 35.5932 145.325 35.5932C145.325 35.0665 145.061 34.8831 144.948 34.8C144.706 34.6276 144.48 34.5025 144.086 34.4349C144.086 34.4349 143.755 34.3223 144.086 34.2143C144.102 34.2236 146.681 34.2143 146.681 34.2143C146.863 34.2042 146.863 34.3541 146.681 34.403C146.45 34.403 146.174 34.5903 146.022 34.7658C145.874 34.9422 145.796 35.3353 145.796 35.9645L145.788 42.0122C145.772 42.291 145.508 42.1419 145.508 42.1419C145.508 42.1419 140.578 36.7693 139.992 36.1105C139.988 36.1028 139.901 35.9412 139.758 36.0429C139.669 36.1074 139.66 36.1385 139.669 36.2869C139.669 36.3055 139.685 40.3396 139.685 40.3396C139.685 40.9914 139.911 41.3503 140.1 41.5461C140.221 41.6735 140.425 41.783 140.861 41.8249C141.125 41.8102 141.077 42.0891 141.077 42.0891L138.051 42.0914C138.051 42.0914 138.001 41.8583 138.231 41.7931ZM133.634 41.877C133.749 41.8451 134.003 41.7069 134.148 41.5966C134.286 41.4839 134.366 41.2641 134.371 40.8011L134.394 35.6934C134.377 35.3624 134.377 34.9655 134.215 34.8008C133.973 34.5615 133.702 34.4582 133.214 34.4357C133.214 34.4357 133.005 34.323 133.214 34.2151C133.223 34.2384 136.499 34.2151 136.499 34.2151C136.761 34.2578 136.464 34.4357 136.464 34.4357C136.197 34.438 135.989 34.5778 135.883 34.7037C135.734 34.8839 135.74 35.2545 135.717 35.5295V40.8018C135.717 41.2602 135.87 41.5313 136.016 41.6494C136.155 41.7511 136.322 41.8381 136.81 41.8801C137.123 41.9283 136.81 42.093 136.81 42.093L133.634 42.0906C133.384 42.0122 133.634 41.877 133.634 41.877ZM123.314 41.8451C123.298 41.8467 123.81 41.5111 123.927 41.3806C124.043 41.2586 124.143 41.0551 124.143 40.5377L124.177 35.6118C124.177 35.1838 124.09 34.9461 123.995 34.7845C123.878 34.5833 123.61 34.5538 123.165 34.5196C123.165 34.5196 122.54 34.3696 123.118 34.2228C123.113 34.2461 126.21 34.2228 126.21 34.2228C126.541 34.2376 126.261 34.4341 126.261 34.4341C126.012 34.4365 125.812 34.5188 125.688 34.6703C125.575 34.814 125.465 35.0665 125.49 35.5023V37.2455C125.49 37.2455 125.465 37.6595 125.829 37.6448C126.36 37.6192 128.736 37.6898 129.106 37.6603C129.535 37.6261 129.618 37.3605 129.618 37.1631C129.635 36.6667 129.618 35.5528 129.618 35.5528C129.618 35.1286 129.501 34.8039 129.374 34.6703C129.249 34.5444 128.961 34.4706 128.521 34.4341C128.21 34.3875 128.427 34.2135 128.427 34.2135L131.716 34.2158C131.716 34.2158 131.881 34.4023 131.619 34.4365C131.35 34.4209 131.244 34.5382 131.112 34.6703C130.982 34.7992 130.921 35.0735 130.921 35.5023L130.923 40.7521C130.923 41.1825 131.007 41.3184 131.138 41.4474C131.265 41.5624 131.407 41.7659 131.848 41.811C132.08 41.8451 132.179 42.0759 131.916 42.0914C131.932 42.1232 128.906 42.1582 128.906 42.1582C128.906 42.1582 128.507 41.9764 128.956 41.8249C128.956 41.8444 129.303 41.7115 129.437 41.4963C129.521 41.3518 129.585 40.9673 129.585 40.7047C129.585 40.7047 129.601 38.8675 129.601 38.5848C129.601 38.3882 129.534 38.1218 129.266 38.1738C129.266 38.1738 126.044 38.1629 125.778 38.1381C125.597 38.1218 125.479 38.2204 125.479 38.57C125.489 38.5622 125.479 40.6566 125.479 40.6566C125.479 41.0838 125.713 41.4342 125.845 41.5631C125.973 41.6843 126.216 41.8047 126.657 41.8451C127.038 41.8941 126.754 42.0914 126.754 42.0914L123.236 42.0891C123.236 42.0891 123.036 41.9104 123.314 41.8451ZM120.024 34.4372C120.445 34.6532 120.785 34.8342 120.971 34.8187C121.081 34.8062 121.175 34.5763 121.215 34.4372C121.399 34.1886 121.462 34.6361 121.462 34.6198L121.614 36.8501C121.614 36.8501 121.462 37.066 121.316 36.8501C121.156 36.3226 120.741 35.7369 120.455 35.4285C120.024 34.9647 119.245 34.5025 118.42 34.4854C117.481 34.4706 116.824 34.8583 116.338 35.4634C115.923 35.9746 115.677 36.8345 115.677 37.7279C115.677 38.7828 116.126 40.0095 116.754 40.6038C117.361 41.1825 118.012 41.4754 118.872 41.48C119.484 41.48 119.831 41.3122 120.355 41.017C120.652 40.8539 121.054 40.4189 121.418 40.0747C121.63 39.8929 121.743 40.1408 121.743 40.1408C121.776 40.3233 121.093 41.0341 120.54 41.48C120.124 41.811 119.048 42.1924 118.507 42.1924C117.223 42.1924 116.484 42.1232 115.363 41.1172C114.727 40.5447 114.369 39.3624 114.361 38.2282C114.361 37.0738 114.732 36.1004 115.461 35.3135C116.232 34.4877 117.227 34.0737 118.473 34.0737C118.906 34.0744 119.612 34.2228 120.024 34.4372Z" fill="currentColor"/>
<path fill-rule="evenodd" clip-rule="evenodd" d="M87.544 11.6559C87.5953 11.5557 87.6108 11.7391 87.8532 12.0071C88.0963 12.2727 87.9472 12.3543 88.0948 12.5695C88.2408 12.787 88.2431 12.6736 88.2058 12.9191C88.1709 13.1646 88.1227 13.1164 87.9037 13.2935C87.6916 13.4737 87.8703 13.3937 87.6597 13.1778C87.4461 12.9579 87.6325 12.6495 87.4212 12.4639C87.2076 12.279 87.1905 12.279 87.2426 11.9838C87.2969 11.6862 87.4943 11.7538 87.544 11.6559ZM86.7112 12.4693C86.8099 12.4048 86.9847 12.707 87.1159 13.0216C87.2418 13.3362 87.2433 13.2694 87.356 13.6182C87.4686 13.9655 87.4368 13.8008 87.1525 14.1271C86.8658 14.4533 86.4867 14.4137 86.1053 14.7571C85.7215 15.1004 85.5561 14.9994 85.2057 15.2426C84.8569 15.4857 84.9082 15.4018 84.6106 15.2838C84.3147 15.1641 84.3318 15.0833 84.533 14.8363C84.7334 14.5924 84.7 14.7237 84.8484 14.5924C84.9998 14.4627 84.6697 14.4425 84.8359 14.3119C85.0045 14.1822 84.9859 14.3648 85.2515 14.0696C85.5219 13.7736 85.438 13.7262 85.5397 13.546C85.64 13.365 85.7565 13.1521 86.0408 13.0208C86.3259 12.895 86.611 12.5361 86.7112 12.4693ZM88.8809 5.43348C88.9827 5.38377 89.1948 5.38765 89.427 5.42261C89.5591 5.44281 89.3253 5.38765 89.9063 5.36279C90.2039 5.34959 90.3647 5.50107 90.6288 5.65333C91.2448 6.00757 91.6775 6.13341 91.8096 6.32607C91.923 6.49309 92.0085 6.81237 91.9657 7.05707C91.9292 7.25361 91.9082 7.63193 91.6581 7.84168C91.4398 8.02812 91.3179 8.19514 91.2106 8.30079C91.1089 8.39867 91.1469 8.69464 90.969 8.7599C90.757 8.84069 90.5931 8.68998 90.3289 8.6861C90.0454 8.68377 89.831 8.84535 89.751 8.76067C89.6919 8.70163 89.6251 8.59909 89.5187 8.52762C89.4231 8.46081 89.2787 8.50898 89.2592 8.3909C89.2289 8.20834 88.9998 7.72515 88.825 7.5457C88.7582 7.47812 88.9267 7.13087 88.8312 7.0159C88.7325 6.90015 88.7496 6.7176 88.7356 6.60185C88.7193 6.48221 88.7232 6.38123 88.7232 6.25538C88.7248 6.14196 88.5717 5.95707 88.644 5.80792C88.6976 5.71159 88.7745 5.48553 88.8809 5.43348ZM86.2078 7.5123C86.1472 7.19768 86.5085 7.28469 86.8402 7.10757C87.1742 6.92967 87.0087 6.97628 87.1027 7.24118C87.1967 7.50841 87.0056 7.25905 86.9194 7.61872C86.8316 7.98073 86.8316 7.91625 86.5978 8.07783C86.3655 8.23864 86.3989 8.05997 86.2871 7.87586C86.1729 7.6933 86.2715 7.82614 86.2078 7.5123ZM82.246 5.51816C82.1791 5.36202 82.5831 4.82755 83.6551 3.48829C84.6083 2.29662 86.5846 1.51124 87.3979 1.22459C87.5696 1.16011 88.146 0.993866 88.3418 0.952693C88.4902 0.923951 89.0914 0.895984 89.2352 0.847821C89.5156 0.75227 89.991 0.788781 90.0772 0.742948C90.2839 0.643513 90.5022 0.590688 90.7414 0.53864C91.0172 0.476493 91.3668 0.627976 91.6138 0.582143C92.1009 0.490476 92.4784 0.767807 92.7503 0.907637C93.6849 1.40015 94.7033 3.12861 95.0886 4.1082C95.4708 5.08546 96.2616 7.83546 96.4007 10.0836C96.49 11.5247 96.4372 15.2993 96.3828 15.8773C96.2811 16.9058 96.2383 19.3264 96.1676 19.7871C96.083 20.3441 96.0193 21.3035 95.8157 21.6484C95.4429 22.2838 93.9218 23.4172 93.5948 23.7148C93.3275 23.9603 92.1747 24.9616 92.0457 24.9515C91.8772 24.9414 91.6845 24.6004 91.3248 24.2516C90.6847 23.6208 89.0106 23.0343 88.3068 22.6443C87.6147 22.2636 85.3448 22.0531 83.9581 21.9653C82.9676 21.9016 81.4513 21.7696 81.4015 21.6569C81.3503 21.5218 81.2376 21.5691 81.0877 21.5645C80.9525 21.5645 80.9393 21.7323 80.9059 21.7952C80.8546 21.8954 80.9696 21.848 80.9199 22.1269C80.8671 22.4081 81.0007 22.2271 81.0294 22.4578C81.0597 22.6917 81.1599 22.5922 81.0768 22.8051C80.9921 23.0172 81.4194 23.1733 81.4971 23.404C81.5942 23.6806 81.5895 24.0333 81.292 24.0457C80.9704 24.0589 80.6915 24.1871 80.3497 24.0659C80.1042 23.9812 79.2544 23.2129 79.2101 22.7328C79.1736 22.3227 79.1145 21.3773 79.0827 21.0805C79.0221 20.553 78.8248 19.1641 78.7665 18.4672C78.7098 17.7751 78.6414 17.9227 78.7774 17.643C78.9133 17.3649 78.5661 17.3199 78.6873 16.9485C78.7727 16.6844 78.6647 16.1748 78.8162 15.8439C78.8846 15.6947 78.7051 15.6978 78.7207 15.5463C78.7401 15.3467 78.7587 15.2154 78.81 15.0189C78.8512 14.8658 78.831 14.6879 78.8178 14.409C78.8038 14.1286 78.8053 14.0129 78.9227 13.8155C78.9957 13.6936 78.8605 13.6314 78.8799 13.3852C78.8908 13.2438 79.0633 11.9496 79.1332 11.4578C79.2062 10.963 79.315 9.6517 79.4066 9.48002C79.6599 9.0046 79.8075 7.93179 79.9085 7.55425C80.0195 7.1534 80.3683 6.7945 80.4484 6.48687C80.4833 6.35714 80.6985 6.24372 80.7824 6.29267C80.895 6.36413 80.9416 6.7106 80.9401 6.84111C80.937 7.03299 80.8127 7.86887 80.728 8.0421C80.6263 8.25728 80.5175 9.03024 80.5004 9.14598C80.4686 9.35262 80.4623 9.59111 80.4414 9.74026C80.4251 9.88631 80.3248 10.0852 80.2712 10.2491C80.2285 10.385 80.3046 10.6585 80.265 10.7944C80.2122 10.9754 80.2285 11.092 80.1438 11.2388C80.063 11.3809 80.1912 11.5192 80.1392 11.6342C80.0755 11.7771 80.2013 11.9154 80.1011 12.0793C79.9947 12.2502 80.1695 12.2883 80.1135 12.5089C80.0421 12.773 80.0545 12.9874 79.9892 13.1179C79.9224 13.2492 80.1135 13.4217 80.0467 13.6648C79.9621 13.9927 80.0211 15.8641 79.9691 16.2385C79.9131 16.6168 79.931 17.8069 79.9784 18.0229C80.0118 18.1689 80.0242 18.4665 80.1547 18.4509C80.3186 18.4338 80.3474 17.8986 80.5113 17.9297C80.6053 17.9468 80.5431 18.2513 80.5672 18.4579C80.6115 18.8362 80.5835 18.5123 80.6736 19.185C80.7342 19.6309 80.6573 20.3736 80.7234 20.6066C80.7871 20.8374 80.7505 21.0533 80.9968 21.0541C81.212 21.0549 81.1335 20.8894 81.299 20.6797C81.4691 20.466 81.4792 20.4326 81.6159 20.5344C81.7294 20.6183 82.5396 20.6121 82.8037 20.5663C83.1463 20.5057 83.3848 20.2213 83.6186 20.0466C83.9022 19.8376 85.0037 18.7935 85.5576 18.3228C85.8046 18.1083 86.4921 17.2927 86.7609 17.0324C87.2022 16.5997 87.8897 15.8866 87.9961 15.7615C88.0808 15.6605 88.1142 15.53 88.0171 15.3467C87.9611 15.234 87.871 15.2131 87.7561 15.2799C87.4694 15.4384 87.1035 15.9146 86.8231 16.0893C86.322 16.4047 85.699 16.8258 85.3587 17.0324C84.9734 17.2577 84.4258 17.5148 84.077 17.7083C83.6248 17.96 83.1222 18.1231 83.0469 18.1581C82.8814 18.2396 82.8208 18.2886 82.6693 18.1697C82.5373 18.0711 82.58 18.1262 82.7074 17.7083C82.7921 17.4302 82.5722 17.1256 82.8853 16.7194C83.0857 16.4599 83.2753 15.7848 83.5953 15.3917C83.7087 15.2535 84.324 14.4813 84.4483 14.2809C84.5532 14.117 84.7551 14.0268 84.7839 13.9701C84.8856 13.7705 85.0115 13.5266 85.0721 13.4955C85.2803 13.3867 85.4892 13.0752 85.5227 13.0395C85.591 12.9587 85.6182 12.9098 85.5755 12.7754C85.5592 12.7233 85.4527 12.54 85.3269 12.6915C85.1948 12.8538 84.9493 12.8981 84.8476 12.9649C84.6611 13.0861 84.7109 13.3098 84.526 13.3238C84.2603 13.3456 84.2859 12.9105 84.3209 12.7614C84.3621 12.5858 84.2238 12.5439 84.3085 12.3621C84.5042 11.9473 84.4467 11.903 84.498 11.8191C84.5493 11.7383 84.592 11.8012 84.6984 11.6754C84.7652 11.5915 84.6316 11.4757 84.7178 11.3778C84.8849 11.1782 84.9361 10.9436 85.1047 10.8379C85.2865 10.7253 85.6058 10.2996 85.6392 10.1838C85.6835 10.0417 85.692 9.90029 85.7425 9.75502C85.7604 9.70608 85.5724 9.68045 85.4993 9.58956C85.4162 9.48935 85.4838 9.42487 85.5203 9.24231C85.5366 9.14288 85.3401 9.0248 85.3401 8.89274C85.3463 8.74281 85.3261 8.67833 85.1474 8.69231C84.9626 8.7063 84.5679 9.11646 84.2479 9.17628C83.9169 9.2392 83.6575 9.0046 83.8245 8.67522C84.035 8.26971 84.5283 7.67776 84.6301 7.56435C84.7784 7.395 84.7497 7.23497 84.7334 7.0695C84.7225 6.8986 84.5679 6.52416 84.5166 6.12487C84.4863 5.89415 84.2362 5.03808 84.1842 4.93243C84.1539 4.86484 84.0777 4.66053 84.2704 4.58518C84.3551 4.55333 84.519 4.73899 84.6301 4.90601C84.8033 5.15538 85.0674 5.61993 85.149 5.78617C85.2492 5.99048 85.3463 6.20488 85.3906 6.36802C85.4209 6.48299 85.5001 6.69662 85.6664 6.71759C85.8272 6.73546 85.9289 6.72148 86.0307 6.62204C86.2008 6.4558 87.0825 6.11166 87.457 5.97882C87.6388 5.91668 87.7405 5.8856 87.9363 6.00291C88.0474 6.06738 88.1794 6.44959 88.2455 6.48377C88.3806 6.55368 88.4412 6.53737 88.4063 6.63525C88.3853 6.69973 88.4032 6.66632 88.2377 6.86364C88.0722 7.0594 88.2198 7.12854 88.0513 7.39111C87.8811 7.65213 87.746 8.01258 87.6784 8.17727C87.6131 8.33807 87.4601 8.40644 87.3428 8.52218C87.2092 8.65269 87.2565 8.83214 87.1897 8.86632C86.9847 8.96576 86.9893 8.93546 86.9256 9.07685C86.8542 9.22522 86.8207 9.45672 86.9816 9.75502C87.0623 9.9034 87.2138 9.93758 87.241 10.0572C87.3001 10.2778 87.4531 10.2732 87.537 10.3881C87.6737 10.5886 87.6504 10.5769 87.7312 10.7043C87.8741 10.9397 87.8602 10.841 88.0388 10.9731C88.1522 11.0562 88.2493 11.3227 88.3799 11.4571C88.5935 11.6746 88.87 11.8432 89.0642 12.0762C89.2219 12.2634 89.2266 12.3566 89.2087 12.5229C89.1784 12.801 89.2421 12.6379 89.1373 12.8352C89.0642 12.9828 89.1373 13.1816 89.1357 13.2811C89.1326 13.4636 89.1311 13.5957 89.013 13.7588C88.8949 13.9235 88.5593 14.3477 88.4909 14.5124C88.4335 14.6483 88.3892 14.7913 88.4544 14.8573C88.5453 14.9521 88.6152 14.9925 88.7364 14.9117C88.9462 14.7656 89.5723 13.7316 90.1099 13.0465C90.3965 12.6798 90.9869 11.7033 91.1221 11.4392C91.2604 11.1712 91.676 10.6655 91.7606 10.5575C91.8104 10.4907 91.9595 10.493 91.9883 10.6095C92.0186 10.7121 91.9719 10.8247 92.0046 10.8908C92.0473 10.9809 92.1669 10.9265 92.1809 11.0756C92.1965 11.2256 92.2128 11.2908 92.163 11.3716C92.125 11.433 92.2555 11.4679 92.177 11.6039C92.1087 11.7173 92.1926 11.9511 92.0053 12.1609C91.7397 12.4631 91.098 13.3207 90.8292 13.6664C90.4602 14.1403 89.3905 15.4143 89.2227 15.5611C89.1334 15.6411 89.0192 15.8128 89.0697 15.9247C89.1505 16.1033 89.4566 16.6207 89.6344 16.7722C89.8683 16.9656 90.36 17.2577 90.5721 17.2624C90.8269 17.2655 90.9955 17.1893 91.0848 17.1163C91.4856 16.8087 91.8073 16.1367 91.9424 15.8089C92.1335 15.3506 92.4404 14.4098 92.4598 14.2638C92.4854 14.0307 92.3806 13.7821 92.3977 13.7006C92.4217 13.5965 92.5678 13.6198 92.5965 13.7192C92.6408 13.8521 92.6773 14.0983 92.7076 14.2646C92.7589 14.5396 92.3433 15.9433 92.2679 16.4195C92.1786 16.999 91.4818 17.9802 91.4212 18.1285C91.3878 18.2093 91.4017 18.3422 91.2363 18.3554C91.0452 18.3732 90.9722 18.3165 90.8587 18.2862C90.4323 18.1635 90.0695 17.8629 89.7968 17.6127C89.5164 17.3626 88.8638 16.5609 88.783 16.4288C88.7224 16.3309 88.5073 16.1771 88.4055 16.2603C88.2268 16.4063 87.9518 16.8141 87.8229 16.9105C87.7164 16.9866 87.5176 17.0666 87.4041 17.187C87.2371 17.3657 87.0383 17.5956 86.8378 17.7743C86.6895 17.9071 86.0501 18.3764 85.9352 18.4898C85.7518 18.6684 85.5312 18.9629 85.4007 19.0592C85.2671 19.1586 84.8181 19.4336 84.6829 19.5804C84.533 19.7444 84.3217 20.0768 84.1477 20.1506C84.0327 20.1996 83.8804 20.3961 83.9962 20.4963C84.1096 20.5958 84.491 20.4187 84.7412 20.3728C84.9385 20.3348 85.236 20.3293 85.4481 20.3146C85.5832 20.3045 85.706 20.167 86.0152 20.0745C86.2793 19.9945 86.4611 20.1103 86.5768 20.0807C86.7213 20.0411 86.806 19.9844 87.0414 19.9223C87.3008 19.8492 87.6527 19.8943 87.8019 19.8321C87.9099 19.7855 87.9005 19.7482 88.101 19.6201C88.2346 19.5346 88.4063 19.6154 88.5484 19.5735C88.7318 19.5292 89.0627 19.4352 89.4099 19.307C89.6857 19.2052 90.569 18.9901 90.701 18.9768C90.8284 18.9605 91.018 18.6816 91.2324 18.6024C91.5082 18.4999 92.0255 18.5954 92.2431 18.4649C92.3705 18.3888 92.6633 18.5574 92.8016 18.8044C92.9803 19.1182 92.7775 19.2806 92.727 19.4631C92.595 19.916 92.4707 20.1211 92.3223 20.2843C92.1708 20.4451 92.1188 20.7426 91.8686 20.8032C91.5851 20.8785 91.4359 20.9205 91.1252 20.7807C90.5666 20.5251 90.2676 20.769 89.9421 20.6999C89.4488 20.595 89.2592 20.8405 89.0301 20.8211C88.912 20.8117 88.543 20.7496 88.4319 20.8125C88.1134 20.9982 87.8555 20.9539 87.6388 21.0191C87.4601 21.0712 87.3886 21.2452 87.4888 21.3291C87.659 21.4744 88.2276 21.6196 88.6906 21.5901C89.4325 21.5474 89.9755 21.7051 90.273 21.7261C90.7189 21.7579 91.0289 22.0011 91.2456 22.0026C91.4888 22.0026 91.5882 22.1207 91.836 22.1914C92.0015 22.2341 92.1972 22.2947 92.379 22.2792C92.5794 22.2644 92.7278 22.4136 92.8086 22.3817C93.1061 22.2706 93.1061 22.2978 93.2716 22.2582C93.4052 22.2264 93.6709 21.8799 93.8558 21.7556C94.0912 21.5901 94.5767 21.1357 94.6769 20.8576C94.7818 20.5701 94.8121 20.4443 94.9169 20.0831C95.0063 19.7778 94.8711 19.7514 94.9915 19.2581C95.0979 18.8277 94.99 18.1363 95.0762 17.8714C95.129 17.7067 95.1127 17.6252 95.1624 17.476C95.2323 17.2779 95.164 17.1303 95.1515 17.0495C95.1352 16.9478 95.2867 16.7365 95.2867 16.6028C95.2914 16.4886 95.1624 16.3869 95.244 16.16C95.3535 15.8687 95.2696 15.5634 95.3535 15.4679C95.4351 15.37 95.258 15.2038 95.3077 15.0523C95.3854 14.8293 95.3924 13.9134 95.3426 13.4365C95.2867 12.8391 95.376 12.0312 95.4001 11.7344C95.4063 11.5845 95.2044 11.4695 95.2696 11.3382C95.3621 11.1588 95.2572 10.8744 95.23 10.6453C95.1873 10.3377 95.0902 9.76901 95.0785 9.42098C95.0606 8.82515 94.5005 5.37211 94.1486 4.49118C93.6491 3.24514 92.3324 1.94316 91.7863 1.70545C91.272 1.47706 90.6016 1.51046 90.1736 1.50347C89.8426 1.49881 88.6673 1.68214 87.6263 2.01696C86.698 2.31293 85.7083 2.77282 85.3852 2.96237C85.0029 3.1892 84.5671 3.71202 84.282 4.00566C83.9752 4.32416 83.8967 4.70326 83.8105 4.87649C83.5736 5.35036 83.8121 5.94775 83.8594 6.11322C83.9426 6.39598 83.8719 6.59408 83.7561 6.64146C83.4982 6.74789 83.6077 6.75488 83.1246 6.8147C82.97 6.83412 82.6818 6.69351 82.6647 6.57854C82.6204 6.29344 82.3703 5.81569 82.246 5.51816Z" fill="currentColor"/>
<path fill-rule="evenodd" clip-rule="evenodd" d="M155.367 11.5271C155.088 11.6778 154.248 12.6185 154.032 12.7164C153.822 12.8089 153.522 12.5797 153.338 12.6092C152.859 12.6854 151.713 12.9611 150.906 13.1087C150.231 13.2315 149.104 13.6494 148.801 13.8063C148.586 13.9197 148.58 14.0736 148.7 14.1854C149.106 14.5707 149.451 14.7564 149.647 15.0058C149.777 15.1774 149.575 15.2536 149.524 15.5356C149.459 15.8758 149.236 17.4947 149.342 18.371C149.433 19.1362 149.837 21.4403 149.94 22.0758C150.033 22.639 150.11 23.4104 150.183 23.697C150.285 24.101 150.139 24.8195 149.988 24.9803C149.435 25.5793 148.565 26.4657 148.332 26.5488C147.983 26.6661 147.525 26.6521 147.197 26.3833C146.771 26.0361 146.613 25.4029 146.484 25.072C146.266 24.5034 145.637 24.0707 145.199 23.7506C144.418 23.1874 142.708 22.3158 142.45 21.7021C142.412 21.6159 142.353 21.4364 142.538 21.3735C142.882 21.2523 143.044 21.6788 143.272 21.8458C143.706 22.162 144.078 22.2498 144.391 22.3531C144.88 22.5162 145.759 22.7322 145.968 22.8021C146.467 22.9668 146.727 23.0414 147.104 22.9155C147.367 22.8293 147.792 22.0159 147.814 21.6702C147.864 20.8274 147.673 19.8338 147.694 19.4221C147.755 18.2335 147.729 18.0121 147.852 17.1118C147.945 16.4538 147.771 15.9558 147.792 15.6591C147.813 15.2909 147.817 14.751 147.921 14.4899C148.005 14.2685 147.733 14.2779 147.541 14.3346C146.629 14.6057 146.205 15.0275 145.416 15.3981C144.868 15.656 143.883 16.2541 143.486 16.3986C143.209 16.4988 142.988 16.8873 142.823 16.7373C142.64 16.5657 142.379 16.6154 142.216 16.3178C141.982 15.8789 142.358 15.4765 142.657 15.2986C143.057 15.0601 143.42 15.2077 144.631 14.615C145.844 14.0161 147.156 13.2253 148.14 12.8384C149.095 12.4647 151.702 11.684 152.083 11.6001C152.462 11.5201 153.289 11.4455 153.421 11.3857C153.937 11.1604 154.397 11.169 154.562 11.1371C154.795 11.0936 155.126 11.1752 155.323 11.1954C155.56 11.221 155.635 11.3818 155.367 11.5271ZM145.068 8.67843C145.415 8.49976 145.509 8.91615 145.628 8.91615C145.972 8.92003 146.282 8.95887 146.717 8.81205C147.05 8.70252 149.142 7.65379 149.853 7.48055C151.068 7.18613 152.77 6.70838 153.361 6.748C153.565 6.76042 153.575 6.8987 153.377 7.0129C153.149 7.13874 153.09 7.45336 152.907 7.63281C152.789 7.74934 152.836 8.11367 152.734 8.24263C152.613 8.40188 152.432 8.48656 152.22 8.48422C151.887 8.47956 151.855 8.47956 151.642 8.47723C151.4 8.4749 150.907 8.78641 150.726 8.82914C150.663 8.8439 150.496 8.70252 150.338 8.65901C149.956 8.55414 148.522 9.12745 147.963 9.37215C147.385 9.63083 146.354 10.1373 145.836 10.6842C145.636 10.8955 145.432 11.2902 145.105 11.1045C144.808 10.9367 144.687 10.257 144.609 9.95711C144.537 9.7023 144.571 8.93246 145.068 8.67843ZM143.204 0.53253C143.514 0.586131 144.093 1.99531 144.415 2.62766C144.521 2.83196 144.588 3.16212 144.652 3.68804C144.679 3.9343 144.908 4.40117 144.852 4.95972C144.822 5.24016 144.903 5.74588 144.802 5.98514C144.734 6.14828 144.47 6.30908 144.467 6.54213C144.467 6.6773 144.248 6.98338 144.115 7.11389C143.905 7.31586 143.774 7.85654 143.642 8.03288C143.392 8.35915 142.752 8.34905 142.3 8.47801C141.966 8.57511 141.566 8.78564 141.218 9.02723C140.868 9.27038 140.239 9.4879 139.803 9.78465C139.473 10.0138 138.787 10.6982 138.588 10.8598C138.448 10.9732 138.212 11.1596 138.431 11.3539C138.661 11.5543 139.309 11.4486 140.176 11.837C140.751 12.0934 141.258 12.4469 141.55 12.9262C141.794 13.3255 141.674 13.6735 141.405 13.8343C141.19 13.9617 141.046 14.347 140.587 14.7315C140.353 14.9273 140.186 15.4253 139.815 15.7461C139.53 15.9885 138.504 17.0815 138.113 17.3767C137.896 17.539 137.901 17.8109 138.254 17.9375C138.584 18.0572 139.601 18.7789 139.937 19.2644C140.294 19.7802 140.451 20.8919 140.52 21.7945C140.559 22.3919 140.154 23.2969 139.981 23.9184C139.895 24.2322 139.833 24.3666 139.432 24.2936C139.324 24.2726 139.145 24.031 138.975 23.857C138.73 23.6069 138.388 23.5059 138.219 23.3179C138.024 23.102 137.752 22.9784 137.617 22.7679C137.457 22.5178 137.473 21.3758 137.558 20.8678C137.627 20.4413 137.698 20.1368 137.802 19.8136C137.887 19.5503 138.057 18.688 137.735 18.625C137.552 18.5909 136.871 18.9614 136.505 19.1385C136.099 19.3358 135.64 19.607 135.44 19.8354C135.215 20.0902 135.088 20.4413 135.05 20.7046C135.015 20.9633 134.832 21.1451 134.714 21.0806C134.471 20.9478 134.229 21.0612 134.051 21.1063C133.805 21.1707 133.643 20.9439 133.363 20.832C132.884 20.6456 133.105 20.7909 132.69 20.4459C132.43 20.2284 131.849 19.3747 132.069 18.7711C132.187 18.4425 132.074 18.2926 132.409 17.9826C133.223 17.2283 133.538 16.8088 134.368 15.9092C134.799 15.4385 135.536 14.6686 135.987 14.295C136.169 14.1443 136.337 13.8739 136.474 13.5585C136.559 13.362 137.036 13.0039 136.732 12.8027C136.402 12.5828 135.981 12.5603 135.741 12.6574C135.507 12.7529 135.359 12.4857 135.087 12.3358C134.84 12.2006 134.568 12.3847 134.377 12.2464C134.148 12.0771 134.035 11.9598 133.822 11.8075C133.623 11.6685 133.253 11.4665 133.432 11.0944C133.568 10.8155 133.456 10.417 133.758 10.1894C134.14 9.89807 134.404 9.60598 134.676 9.37603C135.194 8.93557 136.615 7.2879 137.573 6.191C138.579 5.03973 140.426 2.2975 141.145 1.56339C141.296 1.41035 141.233 1.0499 141.998 0.648279C142.462 0.407459 142.83 0.469606 143.204 0.53253Z" fill="currentColor"/>
<path fill-rule="evenodd" clip-rule="evenodd" d="M120.94 4.17504C121 4.45548 120.759 5.49255 120.466 6.38048C120.174 7.26762 120.108 7.5636 119.849 8.37073C119.732 8.7273 119.502 8.56649 119.37 8.71176C119.215 8.87412 119.548 8.58203 118.916 9.20117C118.529 9.57716 117.719 10.0759 117.499 10.3214C117.381 10.4519 117.133 10.3851 117.086 10.1365C117.058 9.97412 117.059 9.82341 117.048 9.49093C117.032 9.21049 117.282 8.86558 117.338 8.71875C117.421 8.48881 117.56 8.02815 117.56 7.73139C117.567 7.16974 118.172 6.41854 118.642 5.86155C119.108 5.30689 120.94 4.17504 120.94 4.17504ZM118.008 12.9696C118.258 12.7917 118.235 13.2695 118.471 13.2213C118.615 13.1949 118.738 13.0131 118.835 12.8974C118.917 12.8003 119.045 12.7265 119.129 13.1491C119.178 13.3798 119.22 13.6004 119.09 13.7589C118.889 14.0051 117.746 14.4192 117.546 14.5023C117.404 14.5575 117.359 14.6173 117.302 14.3329C117.222 13.9678 117.651 13.7744 117.671 13.6089C117.706 13.3075 117.803 13.1164 118.008 12.9696ZM120.487 18.0517C120.721 18.0874 121.319 17.7479 121.57 17.5522C121.75 17.4131 121.914 17.6252 121.813 17.8046C121.704 17.9973 121.31 18.4579 121.228 18.6724C121.175 18.7966 121.041 18.8837 120.944 18.8503C120.75 18.7834 120.483 18.6646 120.299 18.5597C120.07 18.4315 120.278 18.0183 120.487 18.0517ZM115.172 18.3989C115.248 18.2164 115.711 18.7531 116.005 18.8231C116.322 18.8984 116.68 19.0452 117.075 19.1493C117.616 19.2915 118.193 19.6077 118.601 19.8928C118.885 20.0901 119.26 20.1678 119.583 20.4995C119.709 20.6245 119.664 20.7986 119.565 20.912C119.447 21.0448 119.379 21.2064 119.161 21.354C118.598 21.7339 116.718 22.7267 116.468 22.9372C116.148 23.2067 115.541 23.0599 115.344 22.8735C115.172 22.7127 114.991 22.4649 114.94 22.1285C114.862 21.6003 114.829 20.6059 114.867 20.1297C114.9 19.6776 114.914 18.9909 115.172 18.3989ZM109.138 18.6724C109.142 18.5558 109.737 18.2847 110.068 18.1231C110.389 17.9701 110.685 17.8326 110.966 17.8039C111.106 17.7875 111.265 17.9111 111.211 18.0882C111.123 18.3647 109.836 19.6061 109.386 20.0955C109.29 20.1996 109.107 19.8283 109.094 19.596C109.083 19.3327 109.138 18.9264 109.138 18.6724ZM108.119 15.9216C108.3 15.8998 108.375 16.164 108.227 16.3838C108.128 16.5298 107.844 16.6099 107.781 16.5275C107.674 16.3885 107.768 16.2626 107.934 16.1492C108.077 16.0466 107.983 15.9348 108.119 15.9216ZM109.596 11.0516C109.927 11.0221 109.936 11.1798 109.957 11.2046C110.041 11.3048 110.217 11.7236 110.344 11.8696C110.458 12.0032 110.551 12.1555 110.737 12.2215C110.834 12.2541 110.845 12.7008 110.827 12.8997C110.809 13.1141 110.291 13.2019 110.029 13.4007C109.863 13.5313 109.766 13.6377 109.66 13.7744C109.528 13.957 109.493 14.0556 109.308 14.218C109.158 14.3531 109.341 15.0632 109.23 15.3879C109.179 15.5363 109.376 15.5215 109.539 15.5277C109.624 15.5277 109.651 15.3716 109.756 15.2799C109.891 15.1657 110.258 14.9024 110.444 14.7921C110.573 14.7113 110.401 14.263 110.597 14.218C110.729 14.1861 110.737 14.6748 110.821 14.8651C110.882 15.0135 111.097 15.5673 111.038 15.7911C110.984 15.9884 110.95 16.2082 110.882 16.3356C110.813 16.4654 110.019 16.8095 110.1 17.149C110.146 17.3486 110.736 17.0713 111.038 17.093C111.27 17.1125 111.711 17.0713 111.915 17.0713C112.112 17.0736 112.495 17.3696 112.714 17.758C112.828 17.9584 112.014 18.6708 111.59 19.2138C111.173 19.7529 109.539 21.1373 109.204 21.4643C109.035 21.629 109.142 22.2404 109.01 22.3188C108.852 22.4183 108.709 22.3212 108.533 22.3647C108.398 22.3934 108.172 22.4843 108.101 22.6397C108.032 22.7873 108.02 22.903 108.145 22.969C108.309 23.0529 110.037 22.1829 110.873 21.434C111.744 20.651 112.943 19.4445 113.38 18.8891C113.717 18.4634 113.587 16.665 113.975 14.9031C114.152 14.0937 114.544 11.4765 114.822 10.2414C115.144 8.83062 116.247 6.64072 116.457 6.31522C116.542 6.18549 116.451 6.05653 116.527 5.9369C116.615 5.80639 116.642 5.70851 116.941 5.84368C117.061 5.89961 117.252 6.128 117.366 6.07984C117.626 5.97186 117.231 6.19326 118.172 5.28203C119.103 4.36769 120.001 3.91557 120.499 3.54347C121 3.16981 121.338 2.74566 121.585 2.63224C121.793 2.53902 121.984 2.62836 122.06 2.83733C122.141 3.05251 122.161 3.36868 122.05 3.76021C121.984 4.00879 121.797 4.35682 121.576 4.8773C121.486 5.08238 121.216 6.13111 121.023 6.70286C120.832 7.27617 120.603 8.63796 120.468 8.8749C120.268 9.23535 120.501 9.32469 120.358 9.71621C120.314 9.84439 120.049 10.4433 119.882 10.7813C119.714 11.1285 119.223 12.213 119.122 12.3085C118.994 12.4344 119.084 12.6962 119.149 12.8057C119.23 12.937 119.683 13.219 119.993 13.9709C120.09 14.204 120.059 14.4433 119.87 14.695C119.733 14.8752 119.195 15.0453 118.889 15.1952C118.489 15.3879 116.898 16.1942 116.36 16.6332C116.245 16.731 116.049 16.7039 116.099 16.5291C116.185 16.2183 116.083 15.2597 116.198 14.9319C116.376 14.444 116.304 14.6359 116.706 14.0781C116.918 13.7822 117.366 12.7 117.85 12.1609C117.9 12.1089 117.998 11.8331 117.841 11.7329C117.709 11.649 117.546 11.8207 117.378 11.875C117.276 11.9077 117.26 12.1555 117.141 12.2036C116.964 12.2774 116.795 12.0918 116.63 12.2301C116.513 12.3248 116.299 12.7979 116.254 13.1164C116.24 13.2477 116.012 13.4225 115.955 13.5095C115.888 13.6089 115.93 14.0362 115.892 14.3353C115.85 14.6942 115.51 15.6124 115.426 15.9954C115.375 16.2424 115.273 16.7932 115.297 17.1156C115.311 17.2989 115.394 17.4255 115.527 17.4007C115.675 17.368 115.778 17.1156 115.927 17.0915C116.108 17.0604 116.706 17.0503 116.965 17.1218C117.088 17.1544 117.309 17.3075 117.709 17.2282C117.933 17.1863 118.282 17.0884 118.552 17.0923C118.813 17.0946 120.101 17.093 120.646 17.1008C120.845 17.1031 121.957 16.5547 122.306 16.3931C122.594 16.2626 123.286 15.6132 123.759 15.1238C124.028 14.8464 124.656 14.6561 124.984 14.8099C125.149 14.8861 125.051 15.3793 124.796 15.5666C124.595 15.7118 124.113 15.9697 123.879 16.1329C123.506 16.3916 122.906 17.135 122.623 17.6213C122.486 17.8497 122.051 18.4696 121.832 18.865C121.786 18.9427 121.786 19.1353 121.956 19.3117C122.122 19.4795 123.488 19.8438 124.126 20.0652C124.184 20.0854 124.273 20.1981 124.408 20.1507C124.497 20.1188 124.62 20.0722 124.637 20.3029C124.643 20.4148 125.538 20.4381 125.643 20.5127C125.984 20.7667 127.3 21.0611 127.73 21.3299C127.891 21.4325 127.94 21.4728 128.088 21.65C128.187 21.7657 128.432 21.7618 128.399 21.9335C128.361 22.1145 125.827 22.743 124.919 22.6995C124.142 22.6606 123.338 22.5635 122.597 22.3064C121.942 22.0803 120.683 21.1303 120.497 21.1279C120.202 21.1233 120.233 21.1893 120.032 21.3866C119.978 21.4387 119.876 21.6204 119.732 21.7611C119.563 21.925 118.98 22.4959 118.861 22.6575C118.692 22.8882 118.296 22.9768 118.047 23.1772C117.864 23.3217 117.509 23.7156 117.295 23.8608C116.897 24.1296 116.397 24.4606 116.098 24.588C115.794 24.7161 115.262 24.5243 114.81 24.4575C114.316 24.3868 113.714 23.8647 113.485 23.4165C113.353 23.1516 113.358 22.4882 113.289 22.0951C113.24 21.8302 113.452 21.0161 113.286 20.9065C113.057 20.7543 112.934 20.9267 112.823 21.0495C112.637 21.2437 112.419 21.6197 111.834 22.0275C111.579 22.207 111.578 22.3313 111.285 22.6132C111.067 22.8253 110.556 23.1306 110.199 23.4258C109.853 23.7187 109.219 23.8966 108.808 23.9688C108.659 23.9983 108.244 24.2524 108.01 24.3572C107.795 24.4528 107.11 24.6921 106.685 24.8202C106.418 24.9003 106.295 24.3207 106.233 23.9245C106.173 23.5253 106.326 23.1143 106.56 22.9885C106.946 22.7725 107.558 22.0594 107.893 21.7005C107.981 21.6057 107.809 21.3913 107.65 21.3983C107.106 21.4262 106.76 21.1893 106.76 21.1893C107.159 21.1279 107.836 21.1062 108.071 20.8087C108.112 20.7644 108.223 20.6611 108.223 20.5305C108.227 20.3371 108.161 20.289 108.143 20.1662C108.128 20.073 108.257 19.9106 108.213 19.8197C108.168 19.7226 108.074 19.4873 107.906 19.5867C107.559 19.7918 106.962 20.3853 106.801 20.6952C106.701 20.8918 106.68 21.1062 106.68 21.1062C106.581 21.2041 106.399 21.1186 106.399 21.1186C106.081 21.4441 105.58 21.9995 105.33 22.2116C105.146 22.3701 104.889 22.4858 104.685 22.388C104.44 22.2668 104.274 21.7541 104.163 21.587C104.069 21.4379 104.204 21.2243 104.353 21.1287C104.579 20.9834 105.169 20.6758 105.334 20.529C105.519 20.3682 106.305 19.5851 106.487 19.4383C106.78 19.2029 107.188 18.9365 107.422 18.6887C107.587 18.5084 107.382 18.2909 107.259 18.3896C107.159 18.4704 107.011 18.437 106.947 18.2894C106.788 17.9142 106.451 16.9936 106.457 16.6464C106.459 16.432 106.462 16.3139 106.543 16.1189C106.798 15.5301 107.643 14.4231 107.906 14.2219C108.154 14.0277 108.006 13.8397 107.927 13.6952C107.83 13.5103 107.344 12.9113 107.362 12.6969C107.388 12.3761 107.865 12.0926 108.33 11.7686C108.798 11.4353 109.265 11.0811 109.596 11.0516ZM111.175 6.10315C111.297 5.85533 112.104 5.80173 112.465 5.86776C112.794 5.93535 113.187 6.58012 113.313 6.88775C113.394 7.08584 113.53 7.50611 113.466 7.66536C113.382 7.87899 113.038 7.87899 112.706 7.97144C112.586 8.00173 112.276 8.11593 112.056 8.22546C111.776 8.37151 111.429 8.67447 111.308 8.79488C111.173 8.92539 110.95 8.98365 110.844 8.95491C110.775 8.93782 110.779 8.7475 110.893 8.62709C111.11 8.39714 111.385 7.75625 111.322 7.50689C111.293 7.37871 111.161 7.32433 111.148 6.92737C111.144 6.72694 111.074 6.30823 111.175 6.10315ZM111.064 1.66042C111.197 1.62779 111.288 1.85385 111.493 1.94707C111.639 2.01388 111.703 2.14594 111.851 2.14905C112.055 2.14983 112.062 2.46444 112.176 2.56466C112.275 2.64778 112.405 2.9624 112.517 3.06572C112.648 3.18457 112.695 3.3345 112.826 3.43238C112.969 3.54036 113.008 3.91247 112.837 4.1261C112.702 4.29079 112.487 4.51218 112.202 4.59764C111.938 4.6761 111.353 4.69474 111.026 4.89594C110.758 5.05752 110.265 5.4475 109.988 5.74347C109.472 6.2958 108.883 7.26374 108.411 8.0833C108.09 8.63952 106.893 10.6888 106.536 11.4936C106.388 11.8284 105.623 13.4598 105.353 14.0525C104.995 14.8239 104.123 16.5058 103.946 16.9579C103.706 17.5677 103.844 18.0781 103.679 18.3088C103.528 18.5232 103.235 18.5014 103.051 18.3678C102.873 18.2342 102.584 17.9639 102.514 17.6834C102.453 17.4364 102.582 16.8592 102.661 16.5632C102.712 16.3659 102.817 16.2331 102.982 16.1562C103.081 16.1072 103.246 16.1554 103.392 16.094C103.504 16.0474 103.977 15.2582 104.217 14.8161C104.531 14.2312 105.362 12.474 105.556 12.0591C105.674 11.8067 106.151 10.7315 106.503 10.0728C106.723 9.66261 107.8 6.70597 108.322 5.98584C108.442 5.82038 108.994 4.6458 109.334 4.11678C109.639 3.6398 110.865 1.70625 111.064 1.66042Z" fill="currentColor"/>
<path fill-rule="evenodd" clip-rule="evenodd" d="M64.3786 20.8697C64.4773 20.8721 64.5426 20.9544 64.5728 21.1191C64.6156 21.349 64.5861 21.349 64.6171 21.5464C64.6474 21.7413 64.5728 21.7918 64.6101 21.955C64.6583 22.1507 64.6397 22.2626 64.6552 22.4646C64.6839 22.8072 64.6964 23.1194 64.628 23.3339C64.5604 23.5428 64.642 23.6096 64.6397 23.8225C64.6358 24.019 64.5216 24.3305 64.499 24.6257C64.4781 24.8704 64.7197 25.1214 64.7173 25.4158C64.7166 25.5937 64.6358 25.5937 64.4711 25.575C64.2901 25.5579 64.0764 25.4406 64.0151 25.2915C63.949 25.1408 63.7587 24.6506 63.7611 24.4696C63.7634 24.2715 63.8209 23.9126 63.8527 23.6819C63.8892 23.438 63.8255 23.1451 63.8294 22.9113C63.8317 22.6339 64.165 22.3449 64.1673 22.063C64.172 21.7848 64.1083 21.7538 64.1114 21.4081C64.1153 21.0647 64.2474 20.8697 64.3786 20.8697ZM67.0766 8.13117C67.0634 7.9525 67.7167 7.55087 68.0391 7.34191C68.3343 7.15003 68.5619 6.87813 68.8136 6.74452C69.1779 6.55186 69.5065 6.61246 69.7178 6.62566C70.0457 6.64508 70.4442 6.46874 70.619 6.68625C70.7798 6.88435 70.7324 7.04748 70.6772 7.2751C70.6361 7.45455 69.6899 8.93675 69.2409 9.47044C68.7724 10.0321 67.6103 11.3628 67.4969 11.4319C67.3625 11.5127 67.256 11.3178 67.2219 11.0365C67.1916 10.7911 67.1574 10.5836 67.2125 10.4625C67.2793 10.3164 67.197 10.2224 67.1675 10.0849C67.138 9.93498 66.988 9.39275 67.0175 8.98569C67.0377 8.68972 67.0983 8.39607 67.0766 8.13117ZM59.2663 12.8574C59.3075 12.7572 59.7433 12.5358 59.9421 12.3735C60.0804 12.2624 60.4214 12.0348 60.555 11.9214C60.9349 11.5966 60.8868 11.6588 61.2348 11.4218C61.3979 11.3077 61.6294 11.2292 61.6589 11.5741C61.6931 11.9851 61.6442 12.7199 61.655 12.9841C61.6698 13.2451 61.6022 13.3119 61.5844 13.5232C61.5696 13.7042 61.6457 13.8036 61.6597 13.9202C61.6768 14.0336 61.6387 14.0662 61.6077 14.2791C61.5914 14.4103 61.6869 14.6077 61.5696 14.8353C61.4507 15.0629 60.8223 15.5647 60.625 15.6276C60.4269 15.6913 60.5613 15.334 60.2365 15.0978C59.9118 14.864 59.8326 14.5339 59.6881 14.3047C59.5102 14.018 59.563 13.8782 59.3525 13.6273C59.142 13.3779 59.1451 13.134 59.2663 12.8574ZM55.1358 8.89092C55.3363 8.82955 55.7309 9.59939 56.117 10.0158C56.5054 10.4322 57.0857 10.9542 57.2046 11.0614C57.3351 11.1764 57.6404 11.6394 57.7546 11.6432C57.8136 11.6432 58.188 11.3216 58.4995 11.1096C58.8289 10.8835 59.5762 10.3723 59.8054 10.2232C59.9895 10.0997 60.5613 9.68562 60.9124 9.41683C61.2643 9.14805 62.0287 8.65087 62.0559 8.57863C62.0699 8.53513 62.038 8.36422 62.1569 8.0395C62.2315 7.83753 62.0699 7.75052 62.0637 7.71168C62.0497 7.62778 62.1499 7.3823 62.1662 7.25179C62.2043 7.00787 62.1452 6.5037 62.1794 6.40038C62.2633 6.13936 62.2936 5.59247 62.3045 5.4371C62.3433 4.98731 62.2897 4.79544 62.3472 4.61443C62.5406 4.01782 62.5585 3.53618 62.5135 3.09183C62.4777 2.71973 62.3884 2.68322 62.4933 2.10991C62.5904 1.59176 63.0588 1.04176 63.2724 0.792399C63.4146 0.630041 63.8387 0.602074 64.1635 0.916693C64.2831 1.03555 64.5705 1.16839 64.8463 1.44883C65.1104 1.72383 65.6123 2.33908 65.7839 2.49367C66.0589 2.74614 66.5918 3.42199 66.9321 3.85313C67.1908 4.18018 67.3298 4.77679 67.3594 4.98965C67.4052 5.31436 67.3353 5.74395 67.5551 5.78668C67.8721 5.84727 68.4881 5.31514 69.4731 5.13103C70.1272 5.00674 71.1954 5.03626 71.9015 5.04558C72.213 5.05024 72.819 5.0215 72.8695 5.16676C72.9642 5.434 72.8003 6.24579 72.4002 7.1508C72.0468 7.94784 71.8534 8.1001 71.4486 8.61126C71.1154 9.03541 71.0672 9.30342 70.4613 10.0911C69.8771 10.8563 68.7173 11.9726 68.9449 12.1886C69.1399 12.3719 69.7139 12.0993 69.8095 12.5288C69.8872 12.873 69.5073 13.0967 69.3706 13.4377C69.1865 13.9139 69.2976 14.2573 68.8688 14.467C68.4741 14.6566 68.2426 14.5898 67.994 14.7521C67.6981 14.9448 67.8115 15.4389 67.6219 15.7954C67.2856 16.4309 67.458 17.0392 67.2537 17.5526C66.9453 18.3217 67.0199 18.0218 66.7682 18.8259C66.7115 18.9991 66.5887 19.8824 66.5188 20.1908C66.4598 20.4549 66.2578 20.6662 66.2485 20.7625C66.2275 21.0329 66.0939 21.7305 66.1055 21.8089C66.1211 21.9084 65.937 22.0396 65.9533 22.2175C65.968 22.3838 65.7925 22.7955 65.7622 23.0837C65.6418 24.2194 65.742 24.3702 65.7878 25.0025C65.8329 25.6341 65.7125 25.7723 65.6441 25.9386C65.5835 26.0924 65.3474 26.1305 65.1827 26.1763C65.0032 26.2252 65.0164 26.4194 64.9038 26.4575C64.7694 26.501 64.5798 26.3604 64.5177 26.4692C64.3926 26.6898 64.2567 26.9694 64.0912 26.9827C63.9211 26.9951 63.8636 26.898 63.8154 26.6362C63.8022 26.5663 63.6383 26.5492 63.6088 26.4055C63.5583 26.1701 63.5086 26.3138 63.2981 25.93C63.1248 25.61 63.2732 25.4966 63.2546 25.2099C63.2406 24.9877 62.9454 24.7865 63.02 24.4354C63.0588 24.2513 63.0083 23.8706 62.9695 23.5568C62.926 23.1948 62.9112 22.9447 62.9112 22.8507C62.9151 22.686 62.8607 22.8468 62.9034 22.3271C62.9423 21.8703 62.7993 21.4889 62.8009 21.3584C62.8032 21.1944 62.738 21.0795 62.6082 21.0795C62.5018 21.0771 62.4474 21.1377 62.3915 21.3988C62.3348 21.6605 62.3286 22.1872 62.362 22.5034C62.3907 22.7963 62.5764 23.6182 62.5896 23.88C62.6082 24.2319 62.5694 24.0602 62.5826 24.5341C62.5857 24.771 62.6937 25.3443 62.7776 25.6597C62.8615 25.9759 63.044 25.9642 63.1031 26.1825C63.166 26.414 63.2274 26.6113 63.3082 26.7426C63.4123 26.9166 63.8123 27.0106 63.7626 27.1101C63.7012 27.2305 63.5272 27.4674 63.3967 27.4829C63.131 27.5109 62.6502 26.9656 62.5539 26.724C62.3814 26.2952 62.2656 24.7625 62.1763 24.2031C62.0194 23.2663 61.8601 22.8507 61.7467 21.8043C61.6286 20.7214 61.3692 17.8921 61.3762 17.2924C61.3808 16.8985 61.1198 16.7649 60.9769 16.7556C60.8036 16.7471 60.5838 16.9319 60.5698 17.1199C60.5543 17.3483 60.6071 17.8906 60.3663 17.9853C60.1705 18.0638 58.7637 17.6723 57.6745 16.9529C55.8917 15.7745 55.2578 12.8582 54.9595 12.2973C54.5579 11.5376 54.5478 9.95907 54.6325 9.65222C54.7164 9.33993 54.8368 8.98336 55.1358 8.89092Z" fill="currentColor"/>
</svg>
