<svg width="72" height="40" viewBox="0 0 72 40" fill="none" xmlns="http://www.w3.org/2000/svg">
<g clip-path="url(#clip0_3396_57153)">
<path d="M40.0421 26.0901C40.0421 26.0901 39.2928 25.7611 37.9811 24.9496C35.9551 23.7001 33.3647 21.5944 32.4188 20.6835L33.0494 20.232L37.6249 16.5596H33.1409L28.9177 20.2184L28.9254 16.5596H25.5585L25.543 25.8896H28.9099L28.9157 23.2622L30.0387 22.402C30.5369 22.8594 31.0312 23.3381 31.6832 23.7994C33.1428 24.8387 35.163 26.1484 37.6599 26.2827C38.9016 26.3469 40.0421 26.0881 40.0421 26.0881M16.1409 20.1522H19.4942C20.2163 20.1522 20.5276 19.7844 20.5276 19.3562C20.5276 18.9378 20.2182 18.57 19.4962 18.57H16.1429L16.139 20.1522H16.1409ZM19.757 23.8772C20.4654 23.8772 20.9461 23.525 20.9461 22.91C20.948 22.295 20.4673 21.9836 19.7608 21.9836H16.139L16.1351 23.8772H19.755H19.757ZM12.7818 16.5596H21.1426C23.589 16.5596 24.0113 17.9569 24.0113 18.86C24.0094 19.7338 23.4839 20.4928 22.7638 20.7419V20.7653C23.8245 20.9891 24.5154 21.7851 24.5134 23.1065C24.5134 24.2159 23.9413 25.8896 20.8449 25.8896H12.7662L12.7818 16.5596ZM3.43817 20.1522H6.7895C7.51154 20.1522 7.82487 19.7844 7.82487 19.3562C7.82487 18.9281 7.51348 18.57 6.79339 18.57H3.44011V20.1522H3.43817ZM7.05418 23.8772C7.76065 23.8772 8.24136 23.525 8.2433 22.91C8.2433 22.295 7.76454 21.9836 7.05808 21.9836H3.43622L3.43233 23.8772H7.05418ZM0.0770999 16.5615H8.43792C10.8843 16.5615 11.3066 17.9589 11.3047 18.8619C11.3047 19.7357 10.7792 20.4948 10.0572 20.7439V20.7672C11.1178 20.991 11.8087 21.787 11.8068 23.1085C11.8068 24.2178 11.2365 25.8915 8.14016 25.8915H0.0634766L0.0770999 16.5615Z" fill="#294786"/>
<path d="M12.1732 37.2983C12.1732 37.3197 12.1693 37.3936 12.037 37.3936H11.531C11.3967 37.3936 11.3947 37.3197 11.3947 37.2983V36.6502C11.3947 36.6269 11.3947 36.5529 11.531 36.5529H12.037C12.1693 36.5529 12.1732 36.6249 12.1732 36.6502V37.2983ZM22.5231 37.3936V36.043C22.5231 35.9807 22.5231 35.5195 21.8886 35.5195H15.6335C15.6335 35.138 16.0189 34.3868 18.3932 34.3868L18.8603 33.3611C18.1597 33.3611 14.4542 32.9038 14.1058 36.5529H21.3534C21.4877 36.5529 21.4896 36.6249 21.4896 36.6502V37.2983C21.4896 37.3197 21.4877 37.3936 21.3534 37.3936H13.2028V36.043C13.2028 35.9807 13.2028 35.5195 12.5683 35.5195H10.9938C10.3594 35.5195 10.3594 35.9807 10.3594 36.043V37.9016C10.3594 37.9658 10.3594 38.4232 10.9938 38.4232H12.1713C12.1635 38.6879 12.0681 39.3029 10.988 39.3204L11.5543 39.9976C11.5543 39.9976 13.2028 39.9976 13.2028 38.5769V38.4251H23.827C24.4595 38.4251 24.4595 37.9678 24.4595 37.9035V33.3748L23.43 33.8399V37.2963C23.43 37.3177 23.4261 37.3917 23.2918 37.3917H22.5211L22.5231 37.3936Z" fill="#294786"/>
<path d="M55.252 38.4244H56.2834V33.376L55.252 33.8411V38.4244Z" fill="#294786"/>
<path d="M25.3711 38.4244H26.4026V33.376L25.3711 33.8411V38.4244Z" fill="#294786"/>
<path d="M69.901 35.9866V37.2983C69.901 37.3197 69.8971 37.3936 69.7648 37.3936H68.996V35.5214L67.9645 35.9866V37.2983C67.9645 37.3197 67.9645 37.3936 67.8302 37.3936H67.0596V36.043C67.0596 35.9807 67.0596 35.5195 66.4251 35.5195H60.1681C60.1681 35.138 60.5534 34.3868 62.9297 34.3868L63.3968 33.3611C62.6962 33.3611 58.9926 32.9038 58.6442 36.5529H65.8938C66.0281 36.5529 66.03 36.6249 66.03 36.6502V37.2983C66.03 37.3197 66.0281 37.3936 65.8938 37.3936H57.7393V38.4232H70.3019C70.9364 38.4232 70.9364 37.9658 70.9364 37.9016V35.5195L69.9049 35.9846L69.901 35.9866Z" fill="#294786"/>
<path d="M53.3161 37.2995C53.3161 37.3209 53.3161 37.3948 53.1798 37.3948H52.4111V35.5226L51.3796 35.9877V37.2995C51.3796 37.3209 51.3796 37.3948 51.2414 37.3948H50.4746V36.0442C50.4746 35.9819 50.4746 35.5207 49.8402 35.5207H43.0499L43.5618 36.5521H49.3069C49.4412 36.5521 49.4432 36.6261 49.4432 36.6495V37.3929H41.7363V35.5207L40.7048 35.9858V38.3504C40.7048 38.5373 40.7223 39.3002 39.5234 39.3196L40.0878 39.9949C40.0878 39.9949 41.7363 39.9949 41.7363 38.5742V38.4224H53.7131C54.3495 38.4224 54.3495 37.9651 54.3495 37.9009V33.3721L53.3161 33.8372V37.2956V37.2995Z" fill="#294786"/>
<path d="M39.7974 37.9026V35.5205L38.764 35.9856V37.2974C38.764 37.3188 38.764 37.3927 38.6297 37.3927H35.724V35.5205L34.6926 35.9856V38.8699C34.6926 38.8932 34.6906 38.9653 34.5583 38.9653H32.8943C32.7619 38.9653 32.76 38.8913 32.76 38.8699V35.5205L31.7266 35.9856V39.4752C31.7266 39.5394 31.7266 39.9987 32.361 39.9987H35.0896C35.724 39.9987 35.724 39.5394 35.724 39.4752V38.4242H39.1629C39.7974 38.4242 39.7974 37.9669 39.7974 37.9026Z" fill="#294786"/>
<path d="M29.4535 37.2974C29.4535 37.3188 29.4516 37.3927 29.3173 37.3927H28.8113C28.677 37.3927 28.675 37.3188 28.675 37.2974V36.6493C28.675 36.6259 28.677 36.552 28.8113 36.552H29.3173C29.4496 36.552 29.4535 36.6259 29.4535 36.6493V37.2974ZM29.8525 35.5205H28.278C27.6436 35.5205 27.6436 35.9818 27.6436 36.044V37.9026C27.6436 37.9669 27.6436 38.4242 28.278 38.4242H29.4535C29.4457 38.6889 29.3504 39.3039 28.2722 39.3214L28.8385 39.9967C28.8385 39.9967 30.485 39.9967 30.485 38.576V36.044C30.485 35.9818 30.485 35.5205 29.8505 35.5205" fill="#294786"/>
<path d="M8.42116 35.9856V37.2974C8.42116 37.3188 8.42116 37.3927 8.28492 37.3927H7.51812V35.5205L6.4847 35.9856V37.2974C6.4847 37.3188 6.4847 37.3927 6.34847 37.3927H1.16771C1.03343 37.3927 1.03148 37.3188 1.03148 37.2974V35.9856L0 35.5205V37.9026C0 37.9669 0 38.4242 0.634457 38.4242H8.82012C9.45458 38.4242 9.45458 37.9669 9.45458 37.9026V35.5205L8.42116 35.9856Z" fill="#294786"/>
<path d="M67.9492 33.8604H68.9573V34.7828H67.9492V33.8604Z" fill="#294786"/>
<path d="M33.7129 33.8604H34.721V34.7828H33.7129V33.8604Z" fill="#294786"/>
<path d="M3.98438 33.8604H4.99055V34.7828H3.98438V33.8604Z" fill="#294786"/>
<path d="M2.59082 33.8604H3.597V34.7828H2.59082V33.8604Z" fill="#294786"/>
<path d="M8.16113 39.0137H9.16926V39.9342H8.16113V39.0137Z" fill="#294786"/>
<path d="M6.76758 39.0137H7.7757V39.9342H6.76758V39.0137Z" fill="#294786"/>
<path d="M37.8613 39.0137H38.8695V39.9342H37.8613V39.0137Z" fill="#294786"/>
<path d="M36.4678 39.0137H37.4759V39.9342H36.4678V39.0137Z" fill="#294786"/>
<path d="M51.3916 39.0137H52.3978V39.9342H51.3916V39.0137Z" fill="#294786"/>
<path d="M41.1203 13.936C41.6749 12.599 43.0742 11.8691 44.4424 12.1085C44.6857 13.4786 43.9578 14.8799 42.6208 15.4326L40.0635 16.4952L41.1203 13.9379V13.936Z" fill="#FFD327"/>
<path d="M40.3005 9.83476C41.6355 9.2801 43.1419 9.75302 43.9398 10.8915C43.1438 12.0301 41.6394 12.5069 40.3024 11.9542L37.7412 10.8954L40.3005 9.83476Z" fill="#FFD327"/>
<path d="M46.8726 9.67773C46.6293 8.30956 47.3572 6.9083 48.6942 6.35364L51.2496 5.29297L50.1909 7.85221C49.6382 9.19118 48.2388 9.91906 46.8687 9.67773" fill="#FFD327"/>
<path d="M47.376 10.8917C48.17 9.75322 49.6764 9.27641 51.0134 9.83107L53.5726 10.8878L51.0154 11.9505C49.6783 12.5051 48.172 12.0303 47.376 10.8937" fill="#FFD327"/>
<path d="M45.6553 9.17419C44.5168 8.3782 44.0419 6.87185 44.5927 5.53482L45.6514 2.97559L46.7121 5.53093C47.2667 6.86991 46.7919 8.37431 45.6533 9.17225" fill="#FFD327"/>
<path d="M44.4433 9.67873C43.0752 9.92005 41.6739 9.19218 41.1193 7.8571L40.0566 5.2998L42.6159 6.35853C43.9529 6.91125 44.6827 8.31056 44.4433 9.68067" fill="#FFD327"/>
<path d="M45.6591 12.6104C46.7976 13.4063 47.2744 14.9127 46.7198 16.2478L45.6611 18.807L44.6004 16.2497C44.0457 14.9127 44.5186 13.4063 45.6572 12.6104" fill="#FFD327"/>
<path d="M46.8738 12.107C48.242 11.8637 49.6432 12.5916 50.1979 13.9286L51.2586 16.4859L48.6993 15.4272C47.3623 14.8745 46.6325 13.4752 46.8738 12.105" fill="#FFD327"/>
<path d="M46.8472 21.2861C47.9215 18.688 50.6422 17.2692 53.3007 17.7382C53.7717 20.3967 52.3568 23.1175 49.7606 24.1937L44.792 26.2567L46.8472 21.2861Z" fill="#FAA943"/>
<path d="M58.0164 13.0194C57.5454 10.3609 58.9603 7.63822 61.5546 6.56198L66.5232 4.49902L64.468 9.47153C63.3937 12.0677 60.6749 13.4865 58.0145 13.0194" fill="#FAA943"/>
<path d="M58.9941 15.3755C60.5414 13.1607 63.4665 12.2382 66.0627 13.3125H66.0646L71.0333 15.3677L66.0646 17.4287C63.4684 18.5069 60.5414 17.5864 58.9941 15.3755Z" fill="#FAA943"/>
<path d="M55.657 12.0411C53.4442 10.4958 52.5178 7.57067 53.5921 4.97251L55.6473 0L57.7083 4.96667C58.7865 7.56483 57.864 10.49 55.6531 12.0391" fill="#FAA943"/>
<path d="M55.6613 18.7139C57.8741 20.2611 58.7985 23.1843 57.7262 25.7844L55.6691 30.7549L53.6081 25.7863C52.5299 23.1901 53.4524 20.265 55.6632 18.7139" fill="#FAA943"/>
<path d="M58.0199 17.7361C60.6784 17.2651 63.3991 18.68 64.4754 21.2762L66.5364 26.2449L61.5639 24.1897C58.9657 23.1154 57.5489 20.3966 58.016 17.7361" fill="#FAA943"/>
</g>
<defs>
<clipPath id="clip0_3396_57153">
<rect width="71.0359" height="40" fill="white"/>
</clipPath>
</defs>
</svg>
