<svg width="64" height="64" viewBox="0 0 64 64" fill="none" xmlns="http://www.w3.org/2000/svg">
<g clip-path="url(#clip0_3396_49692)">
<g filter="url(#filter0_d_3396_49692)">
<path d="M0 32C0 14.3269 14.3269 0 32 0C49.6731 0 64 14.3269 64 32C64 49.6731 49.6731 64 32 64C14.3269 64 0 49.6731 0 32Z" fill="#F15A29"/>
<path d="M33.9401 48.6252L17.9299 48.6375L17.9238 48.2082L29.7119 47.7393C31.9498 47.6537 34.122 47.5376 36.2239 46.8227C40.5346 45.3808 43.9701 42.4464 44.9798 38.8108C46.0659 34.9156 43.5729 31.1272 38.8772 30.8003C42.855 29.6332 46.2476 27.1143 47.1489 23.8668C48.3236 19.6538 46.2003 17.5259 42.6197 16.7454C48.5756 16.6507 53.2361 18.6517 51.6506 24.354C50.7493 27.5986 47.2756 30.0686 43.3254 31.1455C47.9661 31.4923 50.5095 35.913 49.2783 39.7639C47.9997 43.7768 44.7628 46.2682 40.4521 47.7057C38.3487 48.4221 36.1796 48.5397 33.9401 48.6252Z" fill="white"/>
<path d="M25.5389 46.6067L17.976 46.9657C17.9729 46.7717 17.9653 46.7137 17.9439 46.5273L37.0398 41.0174L37.052 40.7104L17.6934 45.3679C17.6338 45.1861 17.6171 45.1357 17.5361 44.9631L37.8678 33.673L37.7379 33.3598L16.9449 43.9916C16.8166 43.8128 16.8365 43.8052 16.6929 43.6478L40.8617 20.8599L40.6509 20.6032L15.7748 42.8734C15.6603 42.7894 15.5976 42.7222 15.4723 42.6473L33.1247 16.8975L32.8115 16.8104L14.4138 42.1738C14.3114 42.1402 14.2091 42.1065 14.1068 42.0775L24.2069 17.1709L23.9395 17.1418L12.5501 41.8576C12.4096 41.8576 12.2691 41.8606 12.1255 41.8698L12.0293 41.8774L19.3676 15.3669L33.0758 15.4096C39.5603 15.0384 44.6821 16.7905 42.9988 22.8457C42.0944 26.0902 38.7049 28.6122 34.7485 29.6907L34.7256 29.7762C39.4213 30.1031 42.0639 33.8822 40.9824 37.779C39.9712 41.4115 36.3601 44.2482 32.0493 45.6886C29.9444 46.4051 27.7722 46.5242 25.5389 46.6067Z" fill="white"/>
</g>
</g>
<defs>
<filter id="filter0_d_3396_49692" x="-6" y="-5" width="76" height="76" filterUnits="userSpaceOnUse" color-interpolation-filters="sRGB">
<feFlood flood-opacity="0" result="BackgroundImageFix"/>
<feColorMatrix in="SourceAlpha" type="matrix" values="0 0 0 0 0 0 0 0 0 0 0 0 0 0 0 0 0 0 127 0" result="hardAlpha"/>
<feOffset dy="1"/>
<feGaussianBlur stdDeviation="3"/>
<feComposite in2="hardAlpha" operator="out"/>
<feColorMatrix type="matrix" values="0 0 0 0 0 0 0 0 0 0 0 0 0 0 0 0 0 0 0.08 0"/>
<feBlend mode="normal" in2="BackgroundImageFix" result="effect1_dropShadow_3396_49692"/>
<feBlend mode="normal" in="SourceGraphic" in2="effect1_dropShadow_3396_49692" result="shape"/>
</filter>
<clipPath id="clip0_3396_49692">
<rect width="64" height="64" fill="white"/>
</clipPath>
</defs>
</svg>
