<svg width="395" height="40" viewBox="0 0 395 40" fill="none" xmlns="http://www.w3.org/2000/svg">
<g clip-path="url(#clip0_3396_57190)">
<path d="M357.973 39.5067C369.48 29.6436 385.644 20.0546 394.521 16.6026C393.151 15.7258 391.014 14.4656 388.603 13.0957C377.151 16.8765 363.781 25.2601 351.836 34.7395C353.863 36.2738 356 37.8628 357.973 39.5067Z" fill="currentColor"/>
<path d="M352.712 12.7124C351.013 11.8905 349.15 11.1234 347.726 10.4658C343.397 12.6028 337.753 15.8357 330.63 20.9316C332.164 21.7535 333.808 22.7398 335.561 23.7261C341.041 19.6713 346.575 15.8357 352.712 12.7124Z" fill="currentColor"/>
<path d="M362.959 7.99997C360.876 6.84929 353.643 4.16436 348.657 3.01367C347.178 3.56162 345.096 4.38354 343.671 4.98627C345.479 5.47943 352.219 7.28764 357.972 10.1918C359.452 9.47943 361.534 8.60271 362.959 7.99997Z" fill="currentColor"/>
<path d="M338.465 7.28809C332.055 10.247 325.315 14.3018 321.644 16.6579C322.959 17.2607 324.274 17.7538 326.082 18.6306C334.191 13.1511 340.548 9.80863 343.068 8.71274C341.26 8.05521 339.561 7.61685 338.465 7.28809Z" fill="currentColor"/>
<path d="M367.781 6.30137C369.261 5.80822 370.959 5.36986 372.439 4.93151C368.165 3.12329 362.795 1.20548 357.973 0C357.206 0.219178 354.905 0.821918 353.316 1.31507C354.959 1.80822 360.384 3.06849 367.781 6.30137ZM340.768 26.9041C342.521 27.9452 344.384 29.3699 346.192 30.5753C358.192 21.2603 370.028 14.0822 383.014 10.0274C381.206 9.09589 379.617 8.27397 377.589 7.28767C369.809 9.26027 356.494 14.5753 340.768 26.9041Z" fill="currentColor"/>
<path d="M0 36.6573H8.76712C13.2055 36.6573 15.2877 34.3559 15.2877 31.1231C15.2877 28.4929 13.9178 26.7395 11.0685 26.1916C13.589 25.5888 14.7397 24.0546 14.7397 21.808C14.7397 18.9587 12.6575 16.6573 8.21918 16.6573H0.0547945V36.6573H0ZM7.61644 28.1642C9.26027 28.1642 10.411 28.9861 10.411 30.6299C10.411 32.3833 9.31507 33.0957 7.61644 33.0957H4.76712V28.1094H7.61644V28.1642ZM7.06849 20.1642C8.71233 20.1642 9.86301 20.8765 9.86301 22.5203C9.86301 24.1642 8.76712 24.8765 7.06849 24.8765H4.76712V20.1642H7.06849ZM32.9863 16.6025H28.0548L20.5479 36.6573H25.5342L26.9041 32.4929H34.137L35.5068 36.6573H40.5479L32.9863 16.6025ZM30.5205 21.4244L32.8767 28.8217H28.0548L30.5205 21.4244ZM65.5342 16.6025H60.9863V30.0272L52.4383 16.6025H47.3425V36.6573H51.8904V23.2875L60.4384 36.6573H65.5342V16.6025ZM86.5205 36.6573L79.9452 26.4655V36.6573H75.0685V16.6025H79.9452V26.2464L86.1918 16.6025H91.6164L85.0411 26.2464L92.2192 36.6573H86.5205ZM109.479 26.6299C109.479 30.6299 111.89 33.0957 115.014 33.0957C118.137 33.0957 120.548 30.6299 120.548 26.6299C120.548 22.6299 118.137 20.1642 115.014 20.1642C111.89 20.1642 109.479 22.6299 109.479 26.6299ZM104.329 26.6299C104.384 20.7669 108.493 16.1642 115.014 16.1642C121.534 16.1642 125.644 20.7669 125.699 26.6299C125.644 32.4929 121.534 37.0957 115.014 37.0957C108.493 37.0957 104.384 32.4929 104.329 26.6299ZM132.384 36.6573H137.26V28.7669H143.616V24.9313H137.26V20.4381H144.931L145.808 16.6025H132.384V36.6573ZM168.548 16.6025H163.616L156.11 36.6573H161.096L162.466 32.4929H169.699L171.068 36.6573H176.11L168.548 16.6025ZM166.082 21.4244L168.438 28.8217H163.616L166.082 21.4244ZM205.041 16.6025H199.342L194.137 27.4518L188.931 16.6025H183.233V36.6573H187.616V23.2327L194.082 36.6573L200.548 23.2327V36.6573H205.096L205.041 16.6025ZM214.521 36.6573H228.219V32.8217H219.397V28.3286H226.356V24.6025H219.397V20.4381H227.452L228.329 16.6025H214.521V36.6573ZM246.794 36.6573H252.11L247.123 28.1642C249.863 27.397 251.178 25.4792 251.178 22.6847C251.178 19.0683 248.986 16.6573 244.055 16.6573H236.329V36.7121H241.096V28.8217H242.411L246.794 36.6573ZM243.123 20.3286C245.151 20.3286 246.192 21.2053 246.192 22.9039C246.192 24.6025 245.151 25.4792 243.123 25.4792H241.041V20.3286H243.123ZM259.397 36.6573H264.274V16.6573H259.397V36.6573ZM288.274 31.2875C286.411 32.6025 284.767 33.0409 283.068 33.0409C279.342 33.0409 276.712 30.4655 276.712 26.6299C276.712 22.7943 279.288 20.219 282.904 20.219C284.548 20.219 286.192 20.6573 288 21.9724V17.4244C286.356 16.4929 284.438 16.1094 282.301 16.1094C275.671 16.1094 271.507 20.7121 271.452 26.5751C271.507 32.4929 275.562 37.0409 282.301 37.0409C284.548 37.0409 286.466 36.6573 288.219 35.7258V31.2875H288.274ZM306.137 16.6025H301.205L293.699 36.6573H298.685L300.055 32.4929H307.288L308.658 36.6573H313.699L306.137 16.6025ZM303.671 21.4244L306.027 28.8217H301.205L303.671 21.4244Z" fill="currentColor"/>
</g>
<defs>
<clipPath id="clip0_3396_57190">
<rect width="394.521" height="40" fill="currentColor"/>
</clipPath>
</defs>
</svg>
