<svg width="64" height="64" viewBox="0 0 64 64" fill="none" xmlns="http://www.w3.org/2000/svg">
<g clip-path="url(#clip0_3396_56248)">
<path d="M0 32C0 14.3269 14.3269 0 32 0C49.6731 0 64 14.3269 64 32C64 49.6731 49.6731 64 32 64C14.3269 64 0 49.6731 0 32Z" fill="currentColor"/>
<path d="M31.9967 41.6744L19.0047 53.1899L26.2754 37.4433L11.457 28.8597L28.3904 30.6814L31.9967 3.60596L35.6031 30.6814L52.541 28.8597L37.7203 37.4433L44.991 53.1899L31.9967 41.6744Z" fill="currentColor"/>
<path d="M31.9968 41.343L19.7259 52.2193L26.5942 37.3427L12.5947 29.2374L28.6045 30.9541L31.9968 5.4834L35.3913 30.9541L51.4033 29.2328L37.4015 37.3427L44.2698 52.2193L31.9968 41.343Z" fill="currentColor"/>
<path fill-rule="evenodd" clip-rule="evenodd" d="M35.3913 30.9541H28.6044L26.6035 37.3497L31.9967 41.3429L37.4015 37.3428L35.3913 30.9541Z" fill="currentColor"/>
<path fill-rule="evenodd" clip-rule="evenodd" d="M31.9917 39.9785C29.5789 39.9785 27.6152 38.0098 27.6152 35.591C27.6152 33.1699 29.5789 31.2036 31.9917 31.2036C34.4044 31.2036 36.3681 33.1699 36.3681 35.591C36.3681 38.0098 34.4044 39.9785 31.9917 39.9785Z" fill="currentColor"/>
<path fill-rule="evenodd" clip-rule="evenodd" d="M31.9921 39.7287C29.7143 39.7287 27.8623 37.872 27.8623 35.5909C27.8623 33.3097 29.7143 31.4507 31.9921 31.4507C34.2676 31.4507 36.1196 33.3097 36.1196 35.5909C36.1196 37.872 34.2676 39.7287 31.9921 39.7287Z" fill="currentColor"/>
<path d="M31.8411 32.7478C31.8344 32.7529 31.831 32.7579 31.831 32.7647C31.831 32.7783 31.8377 32.7857 31.8478 32.7926C31.806 32.791 31.7874 32.7717 31.7874 32.7717C31.7874 32.7717 31.8009 32.753 31.8409 32.7483L31.8411 32.7478ZM31.8806 32.7478C31.8907 32.7529 31.9016 32.7546 31.9177 32.7613C31.9177 32.7613 31.9059 32.7847 31.8735 32.7893C31.8803 32.7842 31.8904 32.7758 31.8904 32.7635C31.8904 32.7568 31.8853 32.7517 31.8803 32.7466L31.8806 32.7478ZM31.7899 32.8015C31.7984 32.8082 31.8318 32.815 31.8574 32.815C31.9366 32.815 31.9598 32.7613 31.9691 32.7566C31.9691 32.7006 31.9342 32.6517 31.8806 32.6447C31.8596 32.6396 31.8271 32.6498 31.8109 32.6583C31.7899 32.6684 31.7737 32.6909 31.7666 32.7072C31.7923 32.7004 31.8225 32.6676 31.8877 32.6792C31.9179 32.686 31.9553 32.7282 31.9343 32.7353C31.9157 32.7234 31.911 32.7166 31.897 32.7143C31.8435 32.6933 31.7923 32.7329 31.7642 32.7563C31.7575 32.7563 31.7525 32.7512 31.7474 32.7512C31.7559 32.7746 31.7659 32.7839 31.7892 32.8001L31.7899 32.8015ZM32.125 32.7478C32.12 32.7529 32.1183 32.7579 32.1183 32.7647C32.1183 32.7783 32.125 32.7857 32.1351 32.7926C32.0979 32.7876 32.0746 32.7717 32.0746 32.7717C32.0746 32.7717 32.0916 32.753 32.1258 32.7483L32.125 32.7478ZM32.1692 32.7478C32.1692 32.7478 32.171 32.7478 32.1743 32.7478C32.1827 32.7529 32.1953 32.7529 32.1976 32.7579C32.2027 32.763 32.2043 32.763 32.206 32.763C32.206 32.763 32.1942 32.7864 32.1617 32.7934C32.1685 32.7866 32.1753 32.7798 32.1753 32.7654C32.1753 32.7586 32.1736 32.7535 32.1685 32.7485L32.1692 32.7478ZM31.9598 32.9647C31.9665 32.9715 31.9733 32.9647 31.9832 32.9647C32.0134 32.9647 32.0436 32.9833 32.0692 32.9715C32.1157 32.9505 32.0625 32.8852 32.0625 32.8432C32.0625 32.8222 32.0641 32.8082 32.0743 32.7895C32.0743 32.7912 32.1627 32.8385 32.2185 32.7827C32.2235 32.7726 32.237 32.7726 32.2463 32.7641C32.248 32.7641 32.2531 32.7591 32.2531 32.7574C32.2548 32.7523 32.2582 32.7404 32.2582 32.7404C32.2497 32.7404 32.2463 32.7574 32.2348 32.7472C32.1999 32.7239 32.1766 32.7146 32.1371 32.7193C32.1 32.7193 32.0695 32.7403 32.0695 32.7403C32.0561 32.6704 32.1952 32.6587 32.2302 32.7052C32.2234 32.6866 32.2132 32.6726 32.2045 32.6633C32.1626 32.626 32.0695 32.6531 32.0439 32.6866C32.0253 32.71 32.023 32.815 32.0253 32.8546C32.0253 32.8755 32.0439 32.8848 32.0422 32.9058C32.0422 32.9228 32.0321 32.9385 32.0165 32.9408C31.9956 32.9459 31.949 32.9199 31.9607 32.9642L31.9598 32.9647ZM33.8863 38.2501C33.8375 38.2292 33.8304 38.1802 33.7978 38.1545C33.7928 38.1545 33.7769 38.1359 33.7653 38.1335C33.7551 38.1267 33.7443 38.1216 33.735 38.1148C33.6955 38.0963 33.649 38.0891 33.607 38.0775C33.5902 38.0724 33.5768 38.0724 33.5604 38.0707C33.5419 38.0639 33.5255 38.0521 33.5069 38.0428C33.4441 38.031 33.3697 38.036 33.3022 38.0309C33.1975 38.0259 33.1021 38.0099 33.0044 37.9983C32.9601 37.9915 32.909 37.9864 32.8671 37.9703C32.8536 37.9652 32.8393 37.9568 32.8252 37.9534C32.7834 37.9432 32.7555 37.9483 32.7275 37.9601C32.714 37.9652 32.6997 37.9771 32.6902 37.9771C32.6716 37.9754 32.6575 37.9468 32.6297 37.9538C32.6161 37.9673 32.6064 37.9888 32.6179 38.0051C32.6229 38.0118 32.6504 38.0353 32.6552 38.0353C32.6878 38.0489 32.7063 38.0303 32.7273 38.0252C32.8065 38.0042 32.8948 38.0421 32.9623 38.0531C33.1414 38.0811 33.3764 38.07 33.5346 38.1208C33.5648 38.1276 33.5951 38.1327 33.6208 38.1418C33.6952 38.1697 33.7464 38.2141 33.8046 38.2491C33.8395 38.2934 33.8721 38.3261 33.9373 38.3424C33.9674 38.3526 34.0164 38.3526 34.0164 38.3097C34.0181 38.2608 33.928 38.2701 33.886 38.2491L33.8863 38.2501ZM34.9845 38.0262C34.9963 38.0381 35.0216 38.0682 35.0194 38.0892C35.0177 38.0959 35.0076 38.1061 34.9961 38.1061C34.9659 38.1061 34.9705 38.0338 34.9217 38.0384C34.9166 38.0401 34.9082 38.0401 34.9031 38.0519C34.8895 38.0939 34.9775 38.108 34.9519 38.1733C34.9434 38.199 34.9123 38.2036 34.875 38.2036C34.875 38.1918 34.8885 38.185 34.8885 38.1709C34.8885 38.1289 34.8305 38.0893 34.7955 38.1242C34.7972 38.1569 34.8351 38.1755 34.8212 38.2105C34.8026 38.2315 34.7515 38.2315 34.7351 38.2105C34.7402 38.2088 34.7584 38.2156 34.7677 38.2105C34.7761 38.2088 34.7795 38.2004 34.7812 38.1936C34.7863 38.175 34.7677 38.1702 34.7486 38.161C34.7351 38.1491 34.7207 38.14 34.7113 38.1283C34.7181 38.056 34.6508 38.042 34.5787 38.035C34.4577 38.0249 34.3205 38.0116 34.2088 38.0024C34.2156 37.9463 34.1622 37.9394 34.1158 37.9301C34.0506 37.9165 33.9925 37.9132 33.925 37.8974C33.8971 37.8924 33.8529 37.8788 33.8506 37.8578C33.8489 37.8321 33.8855 37.8159 33.904 37.8018C33.9669 37.7551 34.0273 37.7109 34.0832 37.6618C34.2112 37.6852 34.2973 37.7365 34.3973 37.7947C34.423 37.8082 34.4508 37.818 34.4741 37.8297C34.502 37.8466 34.53 37.8576 34.5555 37.8671C34.6858 37.9045 34.8673 37.8688 34.9627 37.9324C34.9953 37.9534 35.0255 37.9837 35.0255 38.0305C35.0022 38.0305 35.0022 37.9745 34.9767 37.972C34.9632 37.9703 34.951 37.9856 34.951 37.9954C34.951 38.009 34.9696 38.0164 34.9836 38.0257L34.9845 38.0262ZM34.6425 38.1545C34.6168 38.1427 34.5866 38.1427 34.5563 38.141C34.5099 38.1359 34.4609 38.1241 34.4121 38.1176C34.3633 38.1075 34.3144 38.1058 34.2725 38.0943C34.3028 38.0774 34.3539 38.0824 34.4005 38.0824C34.4866 38.0773 34.6285 38.0824 34.6611 38.1313C34.6628 38.1381 34.6662 38.1547 34.6662 38.164C34.6611 38.164 34.6527 38.1572 34.6429 38.1538L34.6425 38.1545ZM34.2377 38.1646C34.2494 38.2043 34.2864 38.216 34.2795 38.2744C34.2676 38.293 34.2516 38.3094 34.2329 38.3233C34.2396 38.2999 34.2312 38.272 34.216 38.2579C34.2059 38.2579 34.211 38.2766 34.2042 38.2766C34.1856 38.2715 34.1923 38.2486 34.1647 38.2508C34.1596 38.2766 34.1833 38.2882 34.1856 38.3114C34.1923 38.3696 34.1507 38.4001 34.0971 38.3953C34.1022 38.3696 34.139 38.3784 34.1459 38.3579C34.151 38.33 34.125 38.3113 34.1088 38.2997C34.0953 38.2997 34.1071 38.3133 34.0919 38.3183C34.0733 38.3116 34.0617 38.2788 34.0315 38.2904C34.045 38.3074 34.0617 38.3371 34.0433 38.3604C34.02 38.3739 33.9922 38.379 33.9619 38.379C33.9155 38.3773 33.8689 38.3671 33.8456 38.3393C33.8321 38.3208 33.8246 38.2974 33.8107 38.2834C33.7937 38.2664 33.7641 38.2664 33.7454 38.2483C33.7336 38.2415 33.7286 38.2249 33.7198 38.2156C33.7029 38.2021 33.6756 38.1923 33.6477 38.1806C33.5825 38.1503 33.4826 38.1246 33.401 38.1176C33.2569 38.1041 33.1009 38.1075 32.9614 38.0825C32.9102 38.0724 32.8612 38.0616 32.8148 38.0546C32.7636 38.0495 32.7125 38.0665 32.6682 38.0614C32.6263 38.0546 32.603 38.024 32.5914 37.9868C32.5779 37.8842 32.5588 37.7815 32.5146 37.7068C32.501 37.6742 32.496 37.6346 32.5061 37.5738C32.5078 37.5412 32.5231 37.5016 32.5294 37.4596C32.5345 37.4176 32.5345 37.3709 32.5413 37.3289C32.5514 37.2566 32.5763 37.1889 32.6088 37.1517C32.6274 37.1568 32.6414 37.1843 32.653 37.196C32.688 37.2194 32.7322 37.2287 32.7646 37.259C32.7781 37.2691 32.7903 37.2869 32.7996 37.3009C32.8415 37.3732 32.8252 37.4875 32.8578 37.5762C32.8629 37.5881 32.8747 37.5971 32.8714 37.6112C32.8249 37.6179 32.7667 37.6163 32.7388 37.6462C32.7597 37.6813 32.8133 37.653 32.8575 37.653C32.9017 37.653 32.9552 37.6665 32.9855 37.6881C33.0088 37.705 33.0319 37.7417 33.0623 37.7534C33.1089 37.772 33.1833 37.7744 33.2437 37.7813C33.3135 37.7864 33.3811 37.7932 33.4369 37.8047C33.5299 37.8233 33.6138 37.8583 33.6951 37.8934C33.7087 37.9002 33.723 37.9052 33.7347 37.912C33.7464 37.9188 33.7556 37.9306 33.7673 37.9354C33.7951 37.9539 33.8324 37.9523 33.8673 37.9563C33.9023 37.9631 33.9325 37.9749 33.9628 37.9842C33.9884 37.9978 34.0279 38.0053 34.0605 38.0262C34.0723 38.0313 34.0815 38.0449 34.0955 38.0496C34.1188 38.0546 34.1419 38.0479 34.1607 38.0547C34.1792 38.0597 34.2049 38.0733 34.2235 38.0874C34.2629 38.1107 34.2955 38.141 34.2955 38.1992C34.2787 38.1874 34.2746 38.1386 34.2373 38.1642L34.2377 38.1646ZM32.7905 38.3116C32.7462 38.2858 32.6998 38.2487 32.6415 38.2346C32.6229 38.2295 32.6044 38.2244 32.5856 38.2295C32.5806 38.2528 32.6135 38.2482 32.6344 38.2505C32.6787 38.2573 32.7136 38.2762 32.7439 38.2948C32.7574 38.3067 32.7857 38.3205 32.7764 38.3392C32.7595 38.3718 32.6996 38.3158 32.6996 38.3041C32.6827 38.2991 32.6763 38.2831 32.6577 38.2762C32.6442 38.2712 32.6275 38.2762 32.6135 38.2711C32.595 38.2711 32.5833 38.261 32.5693 38.2576C32.5625 38.3065 32.6414 38.2856 32.6647 38.3065C32.6714 38.3116 32.6596 38.3183 32.6596 38.3275C32.668 38.3376 32.6765 38.341 32.6829 38.3461C32.6829 38.3444 32.6761 38.3359 32.6812 38.3275C32.7371 38.3157 32.7395 38.3788 32.6947 38.3929C32.6481 38.4047 32.6179 38.3695 32.5853 38.3601C32.5318 38.35 32.4852 38.3669 32.4411 38.3551C32.3993 38.3449 32.3852 38.32 32.3574 38.2945C32.3271 38.2642 32.2898 38.2618 32.2456 38.2478C32.2666 38.2082 32.2781 38.1591 32.3131 38.1288C32.3317 38.1102 32.4178 38.0706 32.4621 38.0961C32.4854 38.1063 32.5225 38.113 32.5389 38.1216C32.5524 38.1284 32.5667 38.1386 32.576 38.1474C32.5895 38.1593 32.5993 38.1801 32.6132 38.1848C32.6433 38.195 32.6969 38.2018 32.7319 38.2151C32.742 38.2168 32.7597 38.2202 32.7597 38.2337C32.7597 38.2405 32.758 38.2506 32.7462 38.2506C32.7378 38.2523 32.7327 38.2388 32.7252 38.2337C32.6974 38.2151 32.6438 38.2168 32.6089 38.2035C32.614 38.2102 32.6275 38.2136 32.6323 38.217C32.6881 38.2288 32.7323 38.2544 32.7742 38.2776C32.786 38.2827 32.8092 38.2986 32.7911 38.3102L32.7905 38.3116ZM32.1832 37.9174C32.1883 37.6631 32.1967 37.3996 32.2065 37.1407C32.2065 37.1407 32.2081 37.1407 32.2115 37.1356C32.2132 37.1356 32.2132 37.1407 32.2132 37.1407C32.2217 37.1508 32.2217 37.1686 32.2217 37.1827C32.2352 37.2852 32.2495 37.3996 32.2635 37.5045C32.2804 37.6259 32.3147 37.7401 32.3194 37.8661C32.2916 37.8796 32.259 37.887 32.2334 37.8963C32.2165 37.9031 32.2055 37.9197 32.1822 37.9174L32.1832 37.9174ZM32.4205 37.7867C32.4019 37.7969 32.3786 37.7969 32.3553 37.8003C32.3111 37.6114 32.2692 37.3944 32.2483 37.1775C32.225 36.9559 32.2064 36.7204 32.2157 36.5034C32.2292 36.4984 32.2436 36.4899 32.2645 36.4967C32.2948 36.5102 32.2831 36.6132 32.2854 36.6576C32.2905 36.8302 32.3024 37.0098 32.3133 37.1684C32.3218 37.2827 32.3366 37.3947 32.3551 37.4903C32.3687 37.5976 32.4063 37.6909 32.4204 37.7865L32.4205 37.7867ZM32.3623 37.1033C32.3413 36.9214 32.3454 36.7161 32.3555 36.5295C32.3572 36.5038 32.3572 36.4782 32.3606 36.4549C32.3673 36.4105 32.369 36.3662 32.3977 36.3359C32.4112 36.324 32.4327 36.3102 32.4489 36.2985C32.4675 36.2815 32.4814 36.2682 32.4954 36.2518C32.5022 36.2238 32.5212 36.1912 32.5234 36.1702C32.5234 36.1635 32.5251 36.1702 32.5251 36.1719C32.5419 36.5614 32.4855 36.8343 32.4482 37.1888C32.4381 37.2845 32.4296 37.3824 32.4204 37.4827C32.3832 37.3731 32.3785 37.2378 32.3621 37.1025L32.3623 37.1033ZM32.0901 36.4479C32.0622 36.4806 32.032 36.5156 32.0016 36.5505C31.9881 36.5674 31.9737 36.5879 31.955 36.5994C32.0503 36.3265 32.1736 36.0676 32.2574 35.7783C32.2969 35.6338 32.3388 35.4891 32.3785 35.3375C32.418 35.1813 32.4367 35.0179 32.4413 34.8337C32.4413 34.832 32.4413 34.8286 32.4464 34.8286C32.4481 34.8286 32.4481 34.8286 32.4481 34.8303C32.4783 34.8472 32.4875 34.8816 32.4947 34.9118C32.5318 35.0075 32.5506 35.1194 32.5714 35.2291C32.5833 35.3038 32.5948 35.3808 32.5971 35.4624C32.5988 35.4974 32.6073 35.5393 32.6073 35.5814C32.609 35.6233 32.614 35.6722 32.609 35.7073C32.6022 35.7516 32.5671 35.8005 32.5438 35.8403C32.5229 35.8847 32.495 35.9219 32.4693 35.9593C32.4228 36.0387 32.3647 36.1132 32.3088 36.1809C32.2344 36.2696 32.1668 36.3628 32.0901 36.4468V36.4479ZM32.1505 36.6975C32.1556 36.9097 32.1387 37.1126 32.1336 37.3226C32.1285 37.5698 32.1079 37.81 32.0964 38.034C32.0498 38.0272 32.0058 38.0082 31.9545 37.999C31.9009 37.9888 31.8429 37.9888 31.7915 37.9871C31.8707 37.7165 31.966 37.4436 32.0242 37.1497C32.0615 36.9724 32.0986 36.7975 32.1358 36.6179C32.1358 36.6179 32.1375 36.6128 32.1409 36.6128C32.1544 36.6078 32.1493 36.6781 32.1493 36.6968L32.1505 36.6975ZM31.7666 38.1739C31.7851 38.1296 31.8039 38.09 31.8225 38.0386H31.8276C31.8157 38.083 31.795 38.1343 31.7788 38.1763C31.772 38.178 31.772 38.1712 31.7669 38.1746L31.7666 38.1739ZM31.9969 38.2929C31.98 38.3373 31.9834 38.3839 31.9364 38.4119C31.928 38.4169 31.9132 38.4135 31.9087 38.4187C31.8691 38.4444 31.8715 38.5539 31.797 38.5073C31.7802 38.4677 31.8296 38.4585 31.8482 38.4816C31.8482 38.4582 31.8225 38.4559 31.797 38.4559C31.8021 38.4092 31.8343 38.3929 31.8622 38.3696C31.8605 38.3577 31.8622 38.3509 31.8622 38.3462C31.8412 38.3276 31.8227 38.353 31.8251 38.3765C31.8183 38.3883 31.7924 38.4068 31.7808 38.4254C31.7673 38.4488 31.7673 38.4743 31.7413 38.4488C31.7363 38.3859 31.7901 38.3834 31.8017 38.3391C31.8017 38.3324 31.7967 38.3323 31.795 38.3273C31.7531 38.3222 31.7671 38.3762 31.7367 38.3833C31.7232 38.409 31.7181 38.4439 31.7018 38.4672C31.695 38.4723 31.6883 38.4655 31.6809 38.4622C31.6859 38.4571 31.6758 38.4503 31.6809 38.4436C31.6826 38.4368 31.6893 38.4368 31.6943 38.4317C31.6734 38.3921 31.7061 38.3501 31.7315 38.3291C31.7105 38.2895 31.6756 38.3642 31.6687 38.3828C31.6636 38.3997 31.6687 38.4178 31.6552 38.4178C31.6383 38.4161 31.6534 38.3548 31.6602 38.3385C31.6704 38.3151 31.6882 38.3105 31.6928 38.2941C31.681 38.2941 31.6602 38.3077 31.6533 38.3198C31.6466 38.3266 31.6432 38.3431 31.6347 38.3431C31.6139 38.3431 31.633 38.3105 31.6364 38.306C31.655 38.285 31.6643 38.2756 31.6947 38.2709C31.7065 38.2608 31.7115 38.243 31.7249 38.2358C31.7528 38.2172 31.8296 38.2257 31.8691 38.2291C31.8948 38.2308 31.9226 38.2358 31.9459 38.2409C31.9738 38.2426 32.0016 38.2426 32.0134 38.2596C32.0117 38.2765 32.0017 38.2805 31.9966 38.2922L31.9969 38.2929ZM31.7178 38.4818C31.7228 38.4818 31.7245 38.4869 31.7312 38.4869C31.7262 38.4683 31.7522 38.4659 31.7591 38.4767C31.7726 38.5211 31.7008 38.5235 31.7172 38.4818H31.7178ZM31.506 38.2906C31.4106 38.2923 31.3176 38.2957 31.2292 38.3041C31.2059 38.2108 31.1825 38.1199 31.1617 38.0242C31.2617 38.0191 31.3687 38.0412 31.4594 38.05C31.4713 38.0635 31.4781 38.0779 31.4873 38.0943C31.5059 38.1129 31.5339 38.1246 31.5548 38.1432C31.5683 38.1568 31.5782 38.1712 31.5943 38.1876C31.6028 38.1927 31.6129 38.1994 31.62 38.2045C31.6335 38.2164 31.6502 38.2302 31.6688 38.2419C31.6519 38.2588 31.6293 38.2676 31.6176 38.2839C31.592 38.2975 31.5455 38.289 31.506 38.2907V38.2906ZM31.2524 38.4003C31.2507 38.3952 31.2474 38.3884 31.2474 38.3833C31.2575 38.3783 31.2683 38.3732 31.2775 38.3698C31.3613 38.3511 31.466 38.3419 31.5637 38.3395C31.5705 38.3395 31.5894 38.3327 31.5916 38.3446C31.4846 38.3703 31.3613 38.3796 31.2519 38.4006L31.2524 38.4003ZM31.1104 38.4422C31.0546 38.4592 30.9755 38.4749 30.908 38.4773C30.8731 38.4773 30.8428 38.4756 30.8079 38.4756C30.7544 38.4705 30.7102 38.4654 30.673 38.4499C30.6521 38.438 30.6357 38.4265 30.6195 38.4125C30.5962 38.3891 30.5776 38.3611 30.5892 38.3123C30.5892 38.3106 30.5943 38.3072 30.5943 38.3055C30.596 38.2953 30.5943 38.2868 30.5943 38.2821C30.6011 38.272 30.6112 38.2611 30.6112 38.2447C30.6061 38.2261 30.5977 38.2075 30.5855 38.1958C30.5529 38.1941 30.5344 38.2059 30.518 38.2261C30.513 38.2312 30.5129 38.2329 30.5112 38.238C30.5112 38.238 30.4927 38.2549 30.4903 38.2549C30.4853 38.2599 30.4625 38.265 30.453 38.265C30.4321 38.2667 30.4018 38.26 30.3878 38.2532C30.339 38.2322 30.311 38.1879 30.2808 38.1459C30.2757 38.1132 30.2622 38.0969 30.2672 38.0572C30.2672 38.0338 30.274 38.0012 30.2859 37.9825C30.2909 37.969 30.323 37.9359 30.3092 37.9055C30.3041 37.8937 30.2882 37.8919 30.2789 37.8822C30.2688 37.872 30.2722 37.8612 30.2621 37.8495C30.2451 37.8427 30.2294 37.8495 30.2225 37.8613C30.2056 37.8892 30.1969 37.9429 30.1876 37.9686C30.1893 38.0199 30.1859 38.0806 30.1977 38.1272C30.2028 38.1599 30.2256 38.174 30.2303 38.2042C30.2512 38.2322 30.2769 38.2627 30.3048 38.2858C30.3065 38.2875 30.3098 38.2875 30.3115 38.2909C30.3301 38.3188 30.3884 38.3398 30.4022 38.3679C30.4301 38.3798 30.451 38.3913 30.479 38.4053C30.5023 38.4357 30.558 38.4332 30.5837 38.459C30.6094 38.4658 30.6419 38.4823 30.6651 38.4964C30.7697 38.5314 30.8581 38.5827 30.9582 38.6178C30.9977 38.6411 31.035 38.6645 31.0722 38.6831C31.089 38.7064 31.1117 38.7227 31.1257 38.7437C31.1274 38.7437 31.1257 38.7437 31.124 38.7437C31.1031 38.7369 31.0867 38.7063 31.0588 38.7203C31.0656 38.7437 31.0798 38.7599 31.1007 38.7716C31.1007 38.7767 31.1024 38.7767 31.1007 38.7834C31.1092 38.7767 31.1142 38.7953 31.124 38.8004C31.1054 38.8055 31.0938 38.7725 31.0752 38.7677C31.0701 38.7559 31.0584 38.7398 31.0427 38.7398C31.0359 38.7499 31.0511 38.7533 31.0477 38.7655C31.0427 38.7588 31.0359 38.752 31.0291 38.7446C31.0122 38.7615 31.041 38.7772 31.0477 38.7912C31.0359 38.7862 31.0244 38.7679 31.0082 38.761C30.998 38.7677 31.0082 38.7779 31.0082 38.7867C30.998 38.7867 30.998 38.7698 30.9913 38.7732C30.9812 38.7867 30.9913 38.8011 30.998 38.8128C31.0031 38.8263 31.0116 38.8385 31.015 38.8547C31.0251 38.9107 30.9964 38.9806 31.0251 39.0297C30.9902 38.9923 31.0133 38.9154 31.0082 38.8687C31.0031 38.8429 30.9873 38.801 30.9732 38.7778C30.8965 38.6658 30.7568 38.5959 30.6079 38.5539C30.5777 38.5352 30.5242 38.526 30.4847 38.5143C30.3916 38.4886 30.2986 38.4466 30.2055 38.4093C30.1589 38.379 30.1287 38.3416 30.0916 38.3044C30.0729 38.281 30.0473 38.2484 30.0311 38.2181C30.0176 38.1971 30.0078 38.1691 30.0008 38.1365C29.9941 38.1085 29.9908 38.0876 29.9908 38.0595C29.9857 38.0268 29.9823 37.9941 29.984 37.9569C29.9908 37.8846 30.0235 37.7935 30.0561 37.74C30.0863 37.6887 30.1237 37.6467 30.1584 37.6048C30.198 37.5628 30.2398 37.5208 30.2795 37.4717C30.3189 37.4087 30.347 37.3481 30.4027 37.3015C30.4306 37.2781 30.4632 37.2641 30.5004 37.243C30.5958 37.1917 30.7168 37.1497 30.8425 37.1381C30.9053 37.369 30.9635 37.607 31.024 37.8379C31.0324 37.8705 31.0425 37.9077 31.0409 37.9404C31.0037 37.9286 30.9013 37.8985 30.8664 37.9194C30.8269 37.9404 30.8731 37.9917 30.9106 37.9917C30.9038 37.9968 30.8937 37.9968 30.8873 37.9985C30.8738 38.0087 30.8547 38.0218 30.8338 38.0264C30.827 38.0315 30.8203 38.0315 30.8129 38.0332C30.7896 38.0433 30.7779 38.0589 30.7662 38.082C30.7527 38.11 30.7747 38.1405 30.8129 38.1217C30.8338 38.1098 30.864 38.0773 30.8826 38.068C30.9361 38.0471 31.0058 38.0284 31.0711 38.0354C31.0967 38.1287 31.1222 38.229 31.1431 38.3316C31.0873 38.3417 31.0082 38.3451 30.9454 38.3316C30.9011 38.3181 30.8756 38.3147 30.8452 38.3417C30.852 38.3519 30.8571 38.3553 30.8571 38.3697C30.8571 38.4116 30.7966 38.3976 30.7895 38.3646C30.7777 38.4159 30.8407 38.4557 30.8873 38.4602C30.894 38.4619 30.9042 38.4619 30.913 38.4602C30.9967 38.4585 31.0944 38.4323 31.1642 38.4135C31.1693 38.4415 31.1317 38.4369 31.1131 38.4462L31.1104 38.4422ZM31.0524 38.7664C31.0757 38.7874 31.0849 38.8225 31.0989 38.8504C31.078 38.8271 31.0687 38.7944 31.0524 38.7664ZM30.7475 36.35C30.6988 36.1401 30.6521 35.9278 30.5939 35.7179C30.5804 35.6666 30.5705 35.6129 30.5567 35.5617C30.5398 35.508 30.5265 35.4568 30.5172 35.4031C30.4496 35.0835 30.3636 34.7686 30.2892 34.4538C30.2875 34.4538 30.2875 34.4487 30.2875 34.447C30.334 34.4656 30.3991 34.4589 30.441 34.4727C30.4343 34.5147 30.4477 34.5543 30.5014 34.5497C30.5098 34.5684 30.5132 34.5893 30.5224 34.6058C30.5595 34.6159 30.5899 34.599 30.6109 34.5888C30.7969 34.6658 30.9645 34.7591 31.1879 34.7964C31.198 35.018 31.1693 35.2536 31.1646 35.4961C31.1646 35.5777 31.151 35.6547 31.1476 35.7364C31.1426 35.8904 31.1358 36.0443 31.1175 36.1959C31.1005 36.3056 31.0896 36.4198 31.0803 36.5248C31.0752 36.5668 31.0752 36.604 31.0735 36.6483C31.0718 36.6834 31.06 36.7323 31.0752 36.7602C31.082 36.7704 31.0921 36.7789 31.1009 36.7836C31.1497 36.8186 31.2312 36.8442 31.28 36.8816C31.28 36.8951 31.2817 36.9095 31.28 36.9236C31.1497 36.9371 31.0311 36.961 30.9054 36.9796C30.8543 36.7696 30.7961 36.5621 30.7473 36.3498L30.7475 36.35ZM30.2543 34.3277C30.2593 34.3142 30.2869 34.3091 30.2892 34.2881C30.2892 34.2695 30.2757 34.2602 30.2723 34.2414C30.2909 34.2465 30.3002 34.2694 30.3165 34.2881C30.325 34.2983 30.3585 34.3301 30.3725 34.3301C30.3911 34.3352 30.426 34.32 30.4144 34.2974C30.3958 34.2873 30.3724 34.2923 30.3539 34.2788C30.326 34.2602 30.3144 34.2252 30.3004 34.1925C30.3088 34.1715 30.2987 34.1458 30.2818 34.1388C30.2869 34.1038 30.2767 34.0805 30.2609 34.0642C30.2609 34.0625 30.2609 34.0574 30.2609 34.0574C30.2626 34.0574 30.2659 34.0574 30.2659 34.0574C30.2985 34.0744 30.3335 34.0901 30.3637 34.1087C30.4241 34.146 30.466 34.1927 30.4776 34.279C30.5009 34.2925 30.5288 34.3024 30.5452 34.3234C30.5351 34.377 30.5173 34.4213 30.4776 34.4469C30.452 34.4334 30.4288 34.4119 30.4056 34.3956C30.3777 34.4213 30.2892 34.4074 30.2683 34.3855C30.2615 34.3787 30.2497 34.3435 30.2548 34.327L30.2543 34.3277ZM30.1798 34.2927C30.1613 34.2978 30.1565 34.3137 30.1496 34.3299C30.1217 34.3232 30.1008 34.2694 30.1395 34.2505C30.172 34.237 30.2699 34.2573 30.2699 34.2809C30.2715 34.3159 30.2046 34.2911 30.1791 34.2927H30.1798ZM30.0937 34.1995C30.1216 34.1691 30.1844 34.1859 30.2169 34.1995C30.2339 34.2046 30.2636 34.213 30.2519 34.2369C30.2077 34.2419 30.1496 34.2182 30.1123 34.2538C30.0954 34.247 30.089 34.2211 30.0937 34.2001V34.1995ZM30.0853 34.1179C30.0937 34.1077 30.1202 34.1077 30.1341 34.106C30.1829 34.1009 30.2016 34.123 30.234 34.141C30.2526 34.1546 30.2828 34.1597 30.2806 34.1761C30.2806 34.1879 30.2671 34.1896 30.2456 34.1879C30.2131 34.1829 30.1759 34.1576 30.1387 34.167C30.12 34.1687 30.106 34.1805 30.0944 34.1805C30.0711 34.1755 30.0734 34.1316 30.0842 34.1175L30.0853 34.1179ZM30.2598 34.1229C30.2388 34.128 30.2248 34.1043 30.2086 34.0972C30.1667 34.0786 30.1156 34.0955 30.0783 34.104C30.055 33.9897 30.2807 34.041 30.2597 34.1226L30.2598 34.1229ZM30.1062 33.9503C30.1179 33.9503 30.1271 33.9639 30.1339 33.9736C30.1509 33.9906 30.1805 34.0087 30.1968 34.0297C30.1711 34.0178 30.134 34.0297 30.1154 34.0161C30.0985 34.0094 30.0783 33.9532 30.1069 33.9508L30.1062 33.9503ZM30.5878 34.3095C30.5878 34.2993 30.6013 34.3027 30.6063 34.3044C30.6232 34.3441 30.6012 34.3908 30.5854 34.428C30.5719 34.456 30.5435 34.505 30.5157 34.5189C30.4971 34.5291 30.4693 34.5291 30.4693 34.5054C30.4693 34.4952 30.4971 34.4774 30.5064 34.4657C30.5435 34.4238 30.5715 34.3678 30.5878 34.3095ZM30.6505 34.3399C30.6556 34.3348 30.6691 34.3297 30.6738 34.3399C30.657 34.3466 30.6344 34.3818 30.657 34.3958C30.6468 34.4077 30.6313 34.4145 30.636 34.4402C30.6225 34.447 30.6104 34.4635 30.6151 34.4776C30.6084 34.4878 30.6016 34.4946 30.5942 34.5033C30.5942 34.5101 30.5958 34.5101 30.5958 34.5169C30.5702 34.522 30.5702 34.5495 30.547 34.5565C30.5403 34.5548 30.5403 34.5395 30.5369 34.5331C30.5928 34.4887 30.6207 34.4141 30.6485 34.3395L30.6505 34.3399ZM30.6832 34.4868C30.6849 34.4766 30.6849 34.4658 30.6899 34.4564C30.695 34.4497 30.7034 34.4378 30.7068 34.4261C30.7119 34.4126 30.7068 34.3959 30.7237 34.3865C30.8307 34.4075 30.947 34.4261 31.047 34.4588C31.0703 34.4656 31.0937 34.4724 31.1122 34.4822C31.1308 34.4924 31.1448 34.5148 31.1634 34.5242C31.1803 34.5259 31.1891 34.5343 31.2005 34.5225C31.2379 34.4874 31.187 34.4338 31.1422 34.4338C31.1422 34.4152 31.1473 34.4011 31.1524 34.387C31.1592 34.382 31.1874 34.3854 31.2012 34.387C31.2663 34.4006 31.3408 34.4266 31.3827 34.4547C31.3692 34.5363 31.3222 34.5831 31.2989 34.6553C31.2711 34.6833 31.2639 34.7348 31.2199 34.744C31.1942 34.7457 31.1386 34.7322 31.1153 34.7271C31.0781 34.717 31.0431 34.7102 31.0152 34.7037C30.9826 34.6936 30.9547 34.678 30.9244 34.6711C30.8314 34.6361 30.7359 34.5895 30.6475 34.5545C30.6492 34.5242 30.6733 34.5101 30.6847 34.4868H30.6832ZM31.1717 34.3095C31.2695 34.3163 31.3508 34.3421 31.4137 34.3841C31.412 34.3892 31.412 34.396 31.4069 34.4011C31.3325 34.3707 31.2556 34.345 31.165 34.3287C31.165 34.3169 31.1667 34.3118 31.1717 34.3102V34.3095ZM31.2229 34.0786C31.2398 33.9782 31.2554 33.878 31.2811 33.7706C31.302 33.6798 31.3183 33.6004 31.3556 33.5304C31.3674 33.5071 31.3812 33.4954 31.3998 33.4768C31.4066 33.47 31.4066 33.4599 31.4133 33.4534C31.4366 33.4348 31.4621 33.4207 31.4878 33.3952C31.4929 33.3952 31.4996 33.3901 31.4996 33.3952C31.5252 33.3742 31.5672 33.3694 31.5973 33.3532H31.6041C31.6092 33.4302 31.6143 33.5025 31.6298 33.5701C31.6399 33.6097 31.6531 33.6424 31.6576 33.6798C31.6041 33.7172 31.5506 33.7568 31.4995 33.7941C31.4859 33.7772 31.4927 33.7521 31.4716 33.7428C31.4615 33.7614 31.4482 33.773 31.4482 33.7941C31.4482 33.8076 31.4651 33.836 31.4618 33.8501C31.4601 33.8687 31.4668 33.9574 31.4618 33.9924C31.4601 34.011 31.4432 34.1021 31.4408 34.1463C31.4392 34.1696 31.4358 34.1859 31.4391 34.2069C31.3716 34.1859 31.2763 34.1626 31.2065 34.1533C31.2133 34.1275 31.2133 34.0972 31.2234 34.0786H31.2229ZM31.6626 33.7334C31.6795 33.7567 31.7324 33.7567 31.7138 33.7987C31.707 33.8122 31.651 33.8686 31.6277 33.8733C31.6192 33.875 31.6091 33.8733 31.6044 33.8733C31.6044 33.8476 31.6229 33.8407 31.6301 33.8221C31.6435 33.8034 31.6385 33.7708 31.6284 33.7567C31.6351 33.7432 31.654 33.7398 31.6633 33.7334H31.6626ZM31.7464 33.2902V33.2953C31.7582 33.3699 31.7649 33.4445 31.779 33.5122C31.7857 33.5355 31.7975 33.5566 31.7975 33.5821C31.7766 33.6007 31.7533 33.6171 31.7231 33.6288C31.6859 33.5472 31.6743 33.4376 31.6743 33.3186C31.6976 33.3119 31.7231 33.3017 31.7464 33.2907V33.2902ZM31.7295 32.6627C31.7363 32.6301 31.7413 32.6022 31.7528 32.5765C31.7612 32.5629 31.7697 32.5507 31.7785 32.5368C31.8296 32.4762 31.9065 32.4481 31.9809 32.4179C31.9825 32.4009 31.9825 32.3828 31.9876 32.3666C31.9944 32.3835 31.9927 32.404 31.9977 32.4179C32.0629 32.4297 32.1001 32.4622 32.1443 32.4995C32.1909 32.5321 32.2304 32.581 32.2444 32.6463C32.2512 32.679 32.2495 32.7024 32.2579 32.7303C32.2698 32.7537 32.2905 32.7747 32.2881 32.8119C32.2864 32.9425 32.2137 33.0941 32.1252 33.1618C32.0903 33.1921 32.0298 33.2247 31.9623 33.2154C31.9111 33.2052 31.8529 33.171 31.8181 33.1384C31.7879 33.1105 31.7577 33.0661 31.7344 33.0218C31.6971 32.9612 31.6739 32.8934 31.6809 32.8142C31.6826 32.7536 31.718 32.7209 31.7297 32.6625L31.7295 32.6627ZM32.2251 33.3485C32.2318 33.3182 32.2335 33.3065 32.2436 33.2832C32.2645 33.2899 32.2855 33.3001 32.3064 33.3111C32.2855 33.3321 32.2482 33.3344 32.2251 33.3485ZM32.1739 33.2109C32.1739 33.199 32.1807 33.1829 32.1807 33.162C32.1807 33.145 32.1756 33.1317 32.1824 33.12C32.1807 33.1713 32.2056 33.2156 32.2033 33.2623C32.2016 33.3091 32.1776 33.3463 32.1614 33.3813C32.0544 33.4303 31.9613 33.4863 31.8682 33.5447C31.8404 33.4934 31.8217 33.4187 31.8078 33.3417C31.8028 33.3114 31.796 33.2788 31.8011 33.2531C31.8011 33.2321 31.8145 33.2157 31.8145 33.1901C31.8332 33.2036 31.8472 33.2204 31.8657 33.239C31.9007 33.2669 31.9449 33.3068 32.0099 33.3068C32.0308 33.3068 32.0517 33.3 32.0727 33.2949C32.0984 33.2949 32.1239 33.3068 32.1472 33.2898C32.1607 33.283 32.1774 33.2571 32.1774 33.2338C32.1774 33.2236 32.1724 33.2169 32.1724 33.2104L32.1739 33.2109ZM32.374 33.4535C32.3437 33.4955 32.2948 33.5258 32.2507 33.5608C32.1622 33.6285 32.0716 33.6914 31.9832 33.766C31.9623 33.783 31.9437 33.8011 31.925 33.8221C31.8947 33.8524 31.8552 33.8733 31.869 33.9246C31.9016 33.9229 31.9226 33.892 31.9435 33.8733C32.0156 33.808 32.0831 33.7427 32.1552 33.6774C32.162 33.6723 32.167 33.6673 32.1721 33.6639V33.669C32.214 33.6317 32.2606 33.5991 32.307 33.5617C32.3327 33.5406 32.3558 33.5197 32.3861 33.5035C32.3912 33.5018 32.3946 33.4967 32.3997 33.4933H32.3946C32.4203 33.4763 32.4458 33.4606 32.4691 33.4489C32.4809 33.4438 32.4969 33.4388 32.5155 33.4354C32.5433 33.4286 32.5876 33.3958 32.6109 33.4286C32.5853 33.452 32.5505 33.4613 32.5224 33.4799C32.4782 33.5126 32.4411 33.5359 32.3992 33.5686C32.3874 33.5822 32.3735 33.5919 32.3597 33.6036C32.3038 33.6526 32.2574 33.7016 32.2108 33.7577C32.1829 33.7903 32.1596 33.8182 32.1363 33.8509C32.0852 33.9139 32.0409 33.9792 31.9967 34.0445C31.9082 34.1774 31.8222 34.3128 31.7105 34.4247C31.6803 34.4526 31.5918 34.4946 31.5778 34.4196C31.5964 34.4179 31.6173 34.4179 31.6313 34.4095C31.6685 34.3909 31.6964 34.3535 31.7219 34.3208C31.7389 34.2998 31.7639 34.2741 31.7522 34.2509C31.722 34.2492 31.708 34.2835 31.6918 34.3022C31.6615 34.3157 31.6452 34.3348 31.6033 34.3348C31.5219 34.3348 31.48 34.2881 31.4822 34.1949C31.4822 34.1715 31.4772 34.0713 31.4873 34.0455C31.5008 34.0106 31.5315 33.9802 31.5641 33.9547C31.6246 33.9103 31.6688 33.8755 31.727 33.8333C31.7456 33.8215 31.7596 33.803 31.7783 33.789C31.8132 33.7633 31.855 33.74 31.8898 33.7143C31.9805 33.6559 32.0736 33.6025 32.1713 33.5534V33.5584C32.2132 33.5351 32.2574 33.5165 32.2993 33.4931H32.2926C32.3204 33.4796 32.3461 33.4651 32.3739 33.4535H32.374ZM32.3621 34.615V34.5776C32.3621 34.5675 32.3604 34.5543 32.3604 34.5404C32.3604 34.5337 32.3605 34.5269 32.3621 34.5194C32.3605 34.5143 32.3638 34.5194 32.3638 34.5143C32.3689 34.5143 32.3689 34.516 32.3706 34.516C32.3723 34.5371 32.3774 34.565 32.3774 34.5907C32.3774 34.6076 32.3774 34.621 32.3706 34.635C32.3638 34.6333 32.3604 34.6215 32.3604 34.6141L32.3621 34.615ZM31.8783 36.5883C31.8573 36.6351 31.8295 36.6747 31.8062 36.7166C31.7852 36.7609 31.7526 36.7982 31.7224 36.8309C31.6619 36.9008 31.6013 36.9754 31.5432 37.0478C31.4921 37.1108 31.4385 37.1738 31.3919 37.2437C31.3852 37.2505 31.3801 37.267 31.3663 37.267C31.3562 37.2344 31.3562 37.1972 31.3528 37.1597C31.3409 37.0501 31.3393 36.9219 31.341 36.8075C31.3427 36.7236 31.3712 36.6723 31.4014 36.6093C31.4099 36.5883 31.4183 36.5674 31.4271 36.5487C31.4689 36.4507 31.5132 36.3458 31.562 36.2618C31.5993 36.1849 31.6481 36.1195 31.69 36.0496C31.7785 35.9143 31.8691 35.779 31.9459 35.6297C32.0063 35.5178 32.0553 35.4058 32.1134 35.2915C32.1484 35.2168 32.1902 35.1398 32.225 35.0676C32.2552 35.0094 32.2925 34.9533 32.3344 34.9159C32.3361 34.9108 32.3395 34.9091 32.3462 34.9108C32.3648 34.9125 32.3513 34.9715 32.3513 34.9855C32.3462 35.0041 32.3344 35.0461 32.3327 35.0578C32.2722 35.3004 32.1978 35.5266 32.1187 35.7528C32.1069 35.7972 32.0837 35.8438 32.0699 35.8857C32.0563 35.9301 32.0442 35.9813 32.0256 36.0209C32.0155 36.0379 32.0023 36.056 31.993 36.0722C31.9812 36.0909 31.9697 36.1096 31.9628 36.1283C31.9419 36.1657 31.9186 36.2029 31.907 36.2402C31.8883 36.2611 31.8743 36.2821 31.8627 36.3031C31.837 36.3451 31.8092 36.3871 31.7952 36.4431C31.7885 36.4665 31.7766 36.5084 31.7968 36.5178C31.8225 36.5279 31.848 36.4781 31.862 36.4617C31.8806 36.4314 31.8922 36.4057 31.9063 36.3823C31.9924 36.2214 32.0621 36.0278 32.1297 35.8529C32.1994 35.6686 32.2576 35.4796 32.3111 35.2837C32.3229 35.2348 32.339 35.1857 32.3506 35.1345C32.3557 35.1209 32.3506 35.0971 32.3691 35.0901C32.3691 35.1507 32.3574 35.2067 32.3506 35.2673C32.3405 35.321 32.3273 35.3771 32.3133 35.4284C32.2854 35.5357 32.2574 35.6429 32.2295 35.7455C32.1691 35.9508 32.0992 36.1444 32.0108 36.324C31.9899 36.3683 31.9737 36.4149 31.9456 36.4593C31.9247 36.5013 31.9014 36.5432 31.8781 36.5875L31.8783 36.5883ZM31.4221 37.5726C31.4322 37.5424 31.4524 37.5121 31.4687 37.4817C31.4856 37.4491 31.5037 37.4212 31.5223 37.3931C31.5757 37.3067 31.6317 37.2252 31.6945 37.1412C31.7154 37.1132 31.7363 37.0899 31.7527 37.0618C31.7805 37.0198 31.8131 36.9802 31.8458 36.9404C31.8542 36.9286 31.8625 36.9101 31.8759 36.9008C31.8894 36.9194 31.8742 36.9451 31.8708 36.9614C31.8476 37.0663 31.829 37.162 31.7894 37.2576C31.7877 37.2644 31.736 37.3487 31.7661 37.3649C31.7848 37.37 31.8081 37.316 31.8128 37.302C31.8454 37.2226 31.8732 37.1503 31.8989 37.0617C31.9246 36.9778 31.95 36.8962 31.9826 36.8168C31.9961 36.7888 32.0036 36.7608 32.0175 36.7374C32.0277 36.7256 32.0454 36.7164 32.0525 36.7024C32.0542 36.7024 32.0542 36.7024 32.0542 36.7041C32.0559 36.7437 32.0441 36.7997 32.0357 36.8579C32.0221 36.9373 32.0054 37.0118 31.9892 37.0888C31.9683 37.1821 31.945 37.2685 31.9217 37.3547C31.9099 37.3991 31.8984 37.4411 31.8844 37.4807C31.8425 37.5973 31.7959 37.7233 31.7516 37.8469C31.7449 37.8655 31.7382 37.8841 31.7283 37.9053C31.7149 37.9356 31.7098 37.9682 31.6841 37.9752C31.6707 37.9803 31.6423 37.9701 31.6214 37.9684C31.5493 37.9565 31.4864 37.9217 31.4351 37.8844C31.4267 37.8448 31.4217 37.7981 31.4167 37.7538C31.4116 37.6861 31.398 37.6255 31.4217 37.5718L31.4221 37.5726ZM31.2894 37.0572C31.2962 37.1551 31.2996 37.2531 31.3029 37.3557C31.2215 37.3422 31.1307 37.33 31.0516 37.354C31.0415 37.3591 31.033 37.3659 31.0259 37.3727C31.0259 37.4053 31.0429 37.4287 31.0586 37.4449C31.072 37.4466 31.0888 37.45 31.1004 37.4568C31.1283 37.4517 31.1563 37.4399 31.1935 37.45C31.2053 37.4517 31.2192 37.4669 31.2306 37.471C31.2492 37.4778 31.2656 37.4812 31.2748 37.4879C31.3027 37.5089 31.3167 37.5439 31.34 37.5626C31.3569 37.6255 31.3657 37.7212 31.375 37.7958C31.3868 37.8611 31.3982 37.9218 31.4169 37.9777C31.405 37.9727 31.3912 37.971 31.3773 37.971C31.3354 37.9659 31.2889 37.9693 31.2493 37.9609C31.2192 37.9558 31.1796 37.9558 31.1399 37.9541C31.0702 37.6765 31.0003 37.3919 30.9305 37.112C30.9608 37.0951 31.0026 37.0863 31.0422 37.0817C31.1073 37.0715 31.1748 37.0631 31.2399 37.0538C31.2517 37.0521 31.2725 37.0521 31.2887 37.0589L31.2894 37.0572ZM31.7594 34.6874C31.7316 34.6992 31.7361 34.6641 31.7292 34.6313C31.7241 34.5987 31.7059 34.5567 31.7427 34.5591C31.7545 34.5941 31.7596 34.6454 31.7596 34.6874H31.7594ZM31.7644 34.5054C31.751 34.519 31.7226 34.5357 31.6924 34.519C31.6974 34.4956 31.7226 34.491 31.7366 34.4816C31.7535 34.4697 31.7669 34.4537 31.7831 34.4465C31.8226 34.4414 31.8482 34.4232 31.8737 34.4069C31.8805 34.4069 31.8805 34.4086 31.8839 34.4086C31.856 34.446 31.8047 34.4763 31.7652 34.5043L31.7644 34.5054ZM31.8599 34.6688C31.8464 34.6362 31.848 34.5941 31.865 34.5615C31.8818 34.5335 31.9277 34.5032 31.9743 34.5009C32.0441 34.4941 32.1116 34.5178 32.1349 34.5615C32.1582 34.6268 32.1349 34.6991 32.0814 34.727C32.0093 34.769 31.8859 34.7321 31.8604 34.6688H31.8599ZM31.6621 35.7557C31.6226 35.7659 31.6134 35.8094 31.5946 35.842C31.5643 35.9097 31.5342 35.9727 31.5061 36.0496C31.4433 36.2035 31.3805 36.3738 31.32 36.5348C31.3149 36.5483 31.3132 36.5698 31.2967 36.5815C31.2882 36.5629 31.2899 36.5348 31.2899 36.5116C31.2882 36.388 31.2882 36.2574 31.295 36.1384C31.3001 36.0917 31.3068 36.0497 31.3085 36.0032C31.3102 35.9658 31.3068 35.9309 31.3068 35.9006C31.3085 35.8727 31.3186 35.8446 31.3253 35.8143C31.3321 35.7863 31.3389 35.7582 31.3463 35.7348C31.348 35.7213 31.3547 35.7091 31.3632 35.6953C31.4005 35.5787 31.4633 35.4784 31.5261 35.3851C31.5844 35.3011 31.6471 35.2241 31.7099 35.1542C31.7936 35.0585 31.8821 34.9769 31.9822 34.9045C32.0404 34.8626 32.1008 34.8159 32.1472 34.7646C32.1642 34.7459 32.1751 34.7226 32.196 34.7109C32.1977 34.7343 32.1843 34.7576 32.1775 34.7715C32.1449 34.8205 32.1054 34.8695 32.0704 34.9161C32.0005 35.0093 31.9262 35.1027 31.8633 35.21C31.8332 35.2636 31.8029 35.3173 31.7727 35.3709C31.6797 35.5272 31.5982 35.6951 31.5051 35.8561C31.4749 35.9097 31.4469 35.968 31.4283 36.0287C31.4469 36.027 31.4516 36.0077 31.4609 35.9913C31.5888 35.779 31.7122 35.5574 31.8425 35.3475C31.9122 35.2356 31.9845 35.1283 32.0705 35.0233C32.1333 34.9487 32.1845 34.8693 32.2356 34.7784C32.2542 34.7505 32.2705 34.7178 32.2891 34.6944C32.3077 34.6775 32.3217 34.7295 32.3169 34.7598C32.3153 34.7733 32.3001 34.797 32.2937 34.8158C32.2658 34.8718 32.2494 34.93 32.2216 34.9837C32.1845 35.056 32.1447 35.126 32.1145 35.1936C32.0448 35.3429 31.9633 35.4735 31.8888 35.6065C31.8494 35.6741 31.812 35.7417 31.7749 35.8094C31.6702 35.9983 31.5655 36.1826 31.4631 36.3738C31.4547 36.3874 31.4463 36.4134 31.4282 36.4134C31.4332 36.3925 31.44 36.3691 31.4515 36.3505C31.4934 36.2525 31.54 36.1476 31.5888 36.0496C31.619 35.9819 31.6447 35.926 31.6632 35.8444C31.67 35.814 31.6865 35.7766 31.6632 35.7557L31.6621 35.7557ZM32.1996 34.4076C32.2322 34.3906 32.2577 34.3889 32.2788 34.3773H32.2855C32.2855 34.3824 32.2855 34.3824 32.2855 34.384C32.2855 34.3908 32.2754 34.3959 32.272 34.4026C32.2487 34.4377 32.2441 34.4936 32.2115 34.5099C32.1906 34.5235 32.1651 34.515 32.1348 34.5201C32.0812 34.4664 31.9579 34.4641 31.8928 34.5015C31.8718 34.5116 31.8509 34.5342 31.8159 34.5248C31.8227 34.4991 31.8485 34.4874 31.8695 34.4736C31.9114 34.4502 31.9487 34.4246 31.9951 34.4013C32.0184 34.3911 32.0439 34.3779 32.0695 34.3843C32.0712 34.4194 32.0881 34.445 32.1393 34.4333C32.146 34.4316 32.1578 34.4265 32.1718 34.4198V34.4214C32.1819 34.4197 32.1904 34.4113 32.1997 34.4079L32.1996 34.4076ZM31.6016 34.6991C31.6033 34.6454 31.5999 34.5988 31.6016 34.5521C31.6033 34.5521 31.6033 34.5522 31.6033 34.5539C31.6016 34.5983 31.6117 34.6565 31.6016 34.6984V34.6991ZM31.3851 34.6712C31.3868 34.6543 31.3851 34.6362 31.3902 34.6223C31.397 34.5896 31.4135 34.5593 31.4275 34.5336C31.4393 34.5546 31.4359 34.5896 31.4393 34.6223C31.446 34.6666 31.4528 34.7202 31.4579 34.7646C31.4596 34.802 31.4579 34.8345 31.4444 34.8557C31.4275 34.8836 31.4142 34.9117 31.3977 34.9373C31.386 34.8533 31.3768 34.76 31.386 34.6714L31.3851 34.6712ZM31.427 34.9791C31.4371 34.9557 31.448 34.9347 31.4596 34.9113C31.4853 34.8577 31.5084 34.8205 31.541 34.7785C31.5595 34.7552 31.576 34.7318 31.5969 34.7108C31.6551 34.7226 31.7248 34.7294 31.7922 34.7318C31.8108 34.7335 31.8388 34.7318 31.855 34.7368C31.8736 34.7419 31.8946 34.7648 31.9179 34.7695C31.9457 34.7797 31.9807 34.7746 32.0133 34.7797C31.99 34.8217 31.9481 34.8496 31.9132 34.8822C31.8806 34.9125 31.8456 34.9452 31.8154 34.9803C31.7525 35.0502 31.6874 35.1155 31.6293 35.1948C31.571 35.2695 31.5153 35.3441 31.4594 35.4211C31.4175 35.4795 31.3849 35.5447 31.3454 35.6077C31.3353 35.6263 31.3268 35.652 31.3081 35.6661C31.303 35.5401 31.3217 35.4165 31.3384 35.2975C31.3451 35.2462 31.3661 35.1902 31.3802 35.1366C31.3971 35.0853 31.4081 35.0269 31.4266 34.9803L31.427 34.9791ZM31.2176 36.2363C31.2159 36.3366 31.2075 36.4369 31.2058 36.5395C31.2058 36.5814 31.2041 36.6211 31.2008 36.6608C31.1991 36.7004 31.2008 36.7378 31.1923 36.7728C31.1788 36.766 31.1689 36.7558 31.1411 36.7609C31.1668 36.5649 31.1877 36.369 31.211 36.1708C31.2127 36.1708 31.2127 36.1725 31.2161 36.1725C31.2246 36.1911 31.2178 36.2145 31.2178 36.2354L31.2176 36.2363ZM31.2571 36.1244C31.2385 36.1227 31.2199 36.1176 31.1989 36.1125C31.2005 35.884 31.1988 35.6671 31.2107 35.4711C31.2158 35.4174 31.2157 35.3638 31.2157 35.3101C31.2174 35.2588 31.2208 35.2098 31.2225 35.1608C31.2275 35.0419 31.2276 34.9253 31.2343 34.7969C31.2646 34.7834 31.2855 34.7598 31.3112 34.7433C31.3128 34.7433 31.3128 34.745 31.3128 34.745C31.3314 34.801 31.3178 34.8686 31.3212 34.9269C31.3263 34.9899 31.3382 35.0552 31.3297 35.1112C31.328 35.1345 31.3178 35.1579 31.3128 35.1765C31.3077 35.1975 31.3061 35.2209 31.2943 35.235C31.296 35.2629 31.2858 35.2955 31.2773 35.3282C31.2773 35.3384 31.279 35.3468 31.2773 35.3516C31.2773 35.3566 31.2723 35.3634 31.2723 35.3651C31.242 35.5773 31.2588 35.8526 31.2537 36.1232L31.2571 36.1244ZM32.6601 33.54C32.6685 33.5569 32.6719 33.5703 32.6786 33.5867C32.6996 33.6613 32.7113 33.7405 32.7229 33.8223C32.733 33.8595 32.7397 33.9017 32.7462 33.9389C32.7546 33.9785 32.7648 34.0159 32.7718 34.0532C32.755 34.0532 32.7393 34.0582 32.7276 34.0633C32.6484 34.0752 32.5391 34.0752 32.4484 34.1029C32.4484 34.0911 32.4484 34.086 32.4484 34.086C32.4484 34.0809 32.4484 34.0793 32.4467 34.0691C32.4417 34.0388 32.4417 34.0412 32.4417 34.0178C32.4417 33.9968 32.44 33.9642 32.4298 33.9689C32.4282 33.9409 32.3925 33.8873 32.388 33.9293C32.3863 33.9428 32.388 33.9572 32.388 33.9665C32.3947 34.0319 32.393 34.0295 32.3947 34.1017C32.3964 34.1297 32.4014 34.2534 32.393 34.279C32.3795 34.2807 32.3652 34.2841 32.3512 34.2807C32.3326 34.2909 32.3116 34.2976 32.2931 34.3017C32.2674 34.3085 32.2395 34.3153 32.2046 34.3136C32.1744 34.3085 32.1442 34.3 32.1185 34.2902C32.0976 34.2784 32.0743 34.2599 32.051 34.2551C31.9834 34.2318 31.9789 34.3019 31.9021 34.2879C31.9277 34.2201 31.9696 34.1665 32.0068 34.1082C32.0556 34.0243 32.1114 33.952 32.1718 33.8797V33.8814C32.1975 33.851 32.2206 33.8207 32.2463 33.7927C32.2788 33.7553 32.3115 33.7203 32.3465 33.6854C32.3599 33.6752 32.3697 33.6596 32.3907 33.6574C32.3789 33.7203 32.3512 33.7647 32.307 33.8019C32.2934 33.8155 32.2812 33.8323 32.2698 33.8392C32.2579 33.8493 32.2372 33.8527 32.2348 33.8695V33.8797C32.2331 33.9123 32.2743 33.9192 32.2999 33.9054C32.3279 33.8867 32.3512 33.8355 32.3721 33.7981C32.4349 33.6861 32.5163 33.5625 32.6118 33.4995C32.6327 33.4826 32.6536 33.5229 32.6606 33.5391L32.6601 33.54ZM32.802 34.1534C32.7835 34.1585 32.7602 34.1585 32.7369 34.1636C32.7318 34.1467 32.7301 34.1286 32.7251 34.1099C32.7385 34.1031 32.76 34.093 32.7786 34.0981C32.7803 34.1214 32.7904 34.1377 32.8019 34.1541L32.802 34.1534ZM32.8156 34.1837C32.8206 34.1888 32.8325 34.1854 32.8325 34.1956C32.8325 34.2091 32.772 34.2189 32.7604 34.2235C32.6766 34.2469 32.5858 34.2889 32.523 34.3261C32.5021 34.3396 32.4928 34.3588 32.4695 34.3494C32.4763 34.3359 32.4881 34.3237 32.4974 34.3168C32.5092 34.3066 32.5276 34.2998 32.5393 34.2934C32.5951 34.2677 32.6509 34.2374 32.7161 34.2141C32.7463 34.2039 32.7858 34.1971 32.8138 34.1837H32.8156ZM32.8388 34.7645C32.8947 34.9162 32.9343 35.0748 32.9785 35.245C32.9853 35.2683 33.0018 35.308 32.9954 35.329C32.9903 35.3547 32.9185 35.3757 32.8884 35.3779C32.8698 35.3796 32.8417 35.3795 32.8325 35.3728C32.8206 35.366 32.8092 35.3261 32.7999 35.3051C32.7463 35.1933 32.6324 34.8526 32.5858 34.7313C32.5672 34.6824 32.574 34.645 32.5625 34.5984C32.5574 34.5705 32.5625 34.54 32.5608 34.4492C32.6189 34.4234 32.6888 34.4071 32.7679 34.4071C32.7763 34.4539 32.7797 34.4561 32.7888 34.5028C32.7905 34.5331 32.7939 34.5355 32.7956 34.5658L32.8024 34.6335C32.8041 34.6504 32.8074 34.6685 32.8124 34.6847C32.8175 34.7105 32.8311 34.7337 32.8403 34.7641L32.8388 34.7645ZM33.0366 35.336H33.0434C33.0603 35.3529 33.0333 35.3803 33.0201 35.392C32.9806 35.4199 32.8991 35.4409 32.8363 35.4409C32.8107 35.4409 32.7664 35.4393 32.7827 35.4035C32.8805 35.4269 33.0038 35.4086 33.0364 35.3358L33.0366 35.336ZM33.0552 35.399C33.0738 35.3939 33.0926 35.4159 33.0926 35.4293C33.0909 35.4526 33.0647 35.4428 33.039 35.4502C33.0272 35.4519 33.0205 35.4689 33.0041 35.4736C32.999 35.4752 32.9872 35.4719 32.9808 35.4753C32.969 35.4753 32.9598 35.4854 32.9481 35.4888C32.9397 35.4888 32.9296 35.4837 32.9203 35.4888C32.9068 35.4888 32.9017 35.499 32.8901 35.5058C32.8668 35.4939 32.8575 35.5125 32.8413 35.5176C32.818 35.5227 32.7854 35.499 32.8041 35.4756C32.8126 35.4587 32.86 35.4621 32.8833 35.4587C32.9019 35.457 32.9369 35.4485 32.9647 35.4401C33.0066 35.4266 33.0322 35.4004 33.0554 35.3981L33.0552 35.399ZM33.1018 35.4784C33.1949 35.5017 33.2833 35.546 33.3763 35.574C33.4346 35.5908 33.4904 35.6066 33.5346 35.6345C33.5464 35.6413 33.5531 35.6481 33.5624 35.6532C33.581 35.6634 33.595 35.6701 33.6112 35.6789C33.6179 35.684 33.6298 35.6806 33.6247 35.6924C33.6079 35.7026 33.5969 35.6823 33.5852 35.6789C33.5062 35.637 33.4246 35.588 33.3153 35.574C33.3272 35.5908 33.3479 35.5909 33.3665 35.5925C33.4642 35.6181 33.548 35.6789 33.6271 35.7254C33.6389 35.7322 33.6597 35.739 33.6597 35.7582C33.6461 35.7683 33.6271 35.7565 33.6178 35.748C33.5293 35.6874 33.4409 35.6173 33.3083 35.5963C33.2982 35.6197 33.334 35.622 33.3454 35.6242C33.4152 35.6411 33.4642 35.6639 33.52 35.6989C33.5335 35.7091 33.5526 35.7222 33.5688 35.7339C33.5873 35.7441 33.6106 35.7509 33.6199 35.7689C33.5921 35.79 33.5523 35.7672 33.5222 35.7503C33.4965 35.7385 33.4779 35.7246 33.4501 35.713C33.4037 35.6943 33.343 35.6802 33.2825 35.6685C33.2524 35.6618 33.2198 35.6618 33.1919 35.655C33.1662 35.65 33.1431 35.6293 33.1151 35.6293C33.0918 35.6573 33.1337 35.655 33.1617 35.6666C33.1634 35.6683 33.1718 35.6784 33.1735 35.6784C33.2085 35.6885 33.2596 35.6852 33.3015 35.6919C33.3293 35.697 33.3806 35.713 33.3806 35.727C33.3823 35.7573 33.276 35.7337 33.2458 35.7337C33.1782 35.7287 33.1342 35.7388 33.0713 35.727C33.0247 35.7202 32.9759 35.7084 32.9502 35.678C32.9418 35.6662 32.9333 35.6477 32.9333 35.6409C32.9333 35.6273 32.9384 35.6081 32.9333 35.5895C32.9282 35.5726 32.9165 35.5685 32.9249 35.5545C32.9266 35.5427 32.9333 35.5528 32.9505 35.5444C32.9573 35.5444 32.9641 35.5376 32.9691 35.5342C32.9776 35.5325 32.9901 35.5359 32.9994 35.5342C33.0163 35.5325 33.0179 35.5085 33.0436 35.5155C33.0622 35.4987 33.0785 35.4876 33.1016 35.476L33.1018 35.4784ZM33.5206 35.595C33.5341 35.5848 33.5579 35.6018 33.581 35.6119C33.5996 35.6187 33.6206 35.6237 33.6346 35.6305C33.6481 35.6423 33.6905 35.6889 33.6998 35.7075C33.7116 35.7332 33.7048 35.7635 33.6879 35.7891C33.6601 35.8101 33.6275 35.8242 33.5973 35.8404C33.5854 35.8472 33.574 35.8471 33.5647 35.8539C33.5461 35.864 33.5368 35.8866 33.5181 35.8866C33.5164 35.8696 33.5299 35.8587 33.535 35.847C33.5468 35.8368 33.5536 35.8236 33.5628 35.8143C33.5999 35.8042 33.6768 35.7934 33.6815 35.756C33.6815 35.7373 33.6629 35.7302 33.6536 35.7116C33.6469 35.7048 33.6452 35.6906 33.6401 35.6858C33.6267 35.6689 33.5982 35.6579 33.5774 35.6439C33.5655 35.6371 33.554 35.6303 33.5448 35.6229C33.5363 35.6178 33.5191 35.6093 33.5191 35.5971C33.5208 35.5971 33.5208 35.5971 33.5208 35.5954L33.5206 35.595ZM33.6998 35.6324C33.7393 35.6273 33.7464 35.6697 33.7789 35.6813C33.8022 35.688 33.8325 35.6796 33.8581 35.6863C33.8838 35.6931 33.8907 35.7143 33.9069 35.7353C33.912 35.7421 33.9302 35.7539 33.9255 35.7632C33.9238 35.775 33.9046 35.7751 33.8953 35.7767C33.8674 35.7903 33.8372 35.8187 33.8115 35.8397C33.7859 35.8583 33.7511 35.8817 33.7092 35.8886C33.6883 35.8903 33.6626 35.8835 33.6395 35.8835C33.6185 35.8835 33.5953 35.8971 33.5766 35.8852C33.5902 35.8666 33.6185 35.8666 33.6395 35.8549C33.6766 35.838 33.7489 35.8082 33.7442 35.7407C33.7391 35.7057 33.7068 35.673 33.6999 35.6357L33.6998 35.6324ZM33.958 35.8143C33.9999 35.8126 34.0208 35.8376 34.0394 35.8632C34.0953 35.9471 34.1069 36.0825 34.1464 36.1921C34.1515 36.2154 34.1633 36.2388 34.1697 36.262C34.1906 36.3366 34.1866 36.4253 34.1866 36.5116C34.185 36.6003 34.1799 36.6935 34.1799 36.7845C34.185 36.929 34.2148 37.0667 34.2124 37.223C34.2124 37.2416 34.2175 37.2649 34.2057 37.2813C34.1939 37.2796 34.1939 37.2604 34.1922 37.251C34.1804 37.2184 34.1643 37.1811 34.1596 37.1414C34.1579 37.1135 34.1613 37.0807 34.1647 37.0527C34.1647 36.9618 34.1596 36.8824 34.1275 36.8148C34.1208 36.8012 34.0997 36.7752 34.0973 36.7635C34.0973 36.7517 34.1092 36.7378 34.1108 36.7239C34.1318 36.6283 34.0597 36.5584 34.0621 36.4627C34.0621 36.4253 34.0688 36.3904 34.0671 36.3553C34.062 36.248 34.0252 36.1688 33.9764 36.1035C33.995 36.0777 34.0276 36.0567 34.0392 36.0171C34.0493 35.9821 34.0494 35.9284 34.0376 35.8935C34.0325 35.8749 34.0206 35.8446 34.005 35.8329C33.9654 35.805 33.9048 35.8278 33.877 35.8465C33.8719 35.8516 33.8651 35.8634 33.8584 35.8699C33.8466 35.88 33.8305 35.8817 33.8165 35.8908C33.8584 35.8582 33.8979 35.8162 33.9607 35.8138L33.958 35.8143ZM33.6812 37.7012C33.7044 37.6617 33.7206 37.6033 33.7161 37.5379C33.7144 37.4819 33.6951 37.433 33.7043 37.377C33.7161 37.3233 33.7509 37.2651 33.7787 37.2136C33.7957 37.1833 33.8206 37.1366 33.8253 37.0923C33.8304 37.0666 33.8253 37.0363 33.8203 37.0152C33.8102 36.985 33.7901 36.9616 33.7853 36.9359C33.7853 36.9101 33.7988 36.887 33.811 36.8682C33.8228 36.8513 33.8412 36.8403 33.8506 36.8238C33.8556 36.817 33.8573 36.8069 33.8623 36.7981C33.8707 36.7748 33.8833 36.7492 33.8902 36.7187C33.8953 36.7187 33.8953 36.7119 33.897 36.7119C33.897 36.7119 33.8969 36.717 33.902 36.717C33.9088 36.7754 33.8763 36.8499 33.8953 36.9083C33.897 36.9185 33.9054 36.9292 33.9088 36.9386C33.9155 36.9487 33.9172 36.9572 33.9256 36.9689C33.9425 37.0016 33.972 37.0202 33.9815 37.0621C33.9883 37.0901 33.9883 37.1134 33.9815 37.1344C33.9764 37.148 33.968 37.1602 33.963 37.1857C33.963 37.2207 33.9798 37.2487 33.968 37.2813C33.963 37.3071 33.9402 37.3209 33.9331 37.3536C33.9246 37.3863 33.9348 37.4283 33.9331 37.4586C33.9331 37.4772 33.9263 37.5005 33.9195 37.5239C33.9111 37.5799 33.9077 37.6335 33.8707 37.6615C33.859 37.6716 33.8475 37.675 33.8358 37.6825C33.824 37.6893 33.8173 37.7034 33.7987 37.7059C33.7869 37.6923 33.7936 37.6708 33.7987 37.6591C33.822 37.5938 33.9057 37.5074 33.8405 37.4352C33.8389 37.4748 33.8406 37.5261 33.822 37.5587C33.8102 37.5757 33.787 37.5915 33.7801 37.6077C33.775 37.6128 33.7699 37.6212 33.7683 37.6311C33.7565 37.6685 33.7666 37.7126 33.7474 37.7546C33.7265 37.8035 33.6473 37.8245 33.5822 37.7989C33.6196 37.778 33.6614 37.7429 33.6823 37.701L33.6812 37.7012ZM33.3531 37.2488C33.3481 37.2674 33.3274 37.2814 33.3345 37.307C33.2995 37.2627 33.3277 37.209 33.3277 37.1415C33.3227 37.0854 33.2626 37.0389 33.2928 36.9736C33.3097 36.9854 33.3161 37.0015 33.3231 37.0272C33.3281 37.0373 33.3349 37.0441 33.3366 37.0506C33.3382 37.0624 33.3382 37.0715 33.3433 37.0832C33.35 37.1002 33.3619 37.1135 33.3666 37.1228C33.3683 37.1462 33.3457 37.1696 33.3457 37.1975C33.3457 37.211 33.3575 37.2347 33.3525 37.2488H33.3531ZM33.1856 37.5006C33.1907 37.4587 33.2089 37.4213 33.2135 37.3793C33.2152 37.349 33.2152 37.3211 33.2135 37.2884C33.2051 37.1998 33.1273 37.1251 33.1507 37.0202C33.1675 37.0151 33.1507 37.0459 33.1642 37.0481C33.181 37.0498 33.1827 37.038 33.192 37.0363C33.2199 36.9454 33.1338 36.8869 33.1642 36.7937C33.181 36.8072 33.1898 36.8263 33.2129 36.8357C33.2197 36.8614 33.2339 36.887 33.2362 36.915C33.2362 36.936 33.2245 36.9523 33.2245 36.9733C33.2245 37.0269 33.257 37.0526 33.2779 37.0946C33.2847 37.174 33.2695 37.258 33.2989 37.3279C33.3124 37.3675 33.3384 37.3909 33.3617 37.4211C33.3685 37.4313 33.3752 37.4445 33.3802 37.4538C33.4081 37.5332 33.3921 37.6217 33.3453 37.6567C33.3267 37.6703 33.3035 37.6777 33.2895 37.6941C33.2777 37.7077 33.276 37.7292 33.2616 37.7385C33.2514 37.7266 33.2616 37.6896 33.2565 37.6685C33.2548 37.655 33.2447 37.6359 33.2379 37.6242C33.2146 37.5892 33.182 37.5565 33.1844 37.5006H33.1856ZM33.1577 37.6032C33.1577 37.5982 33.1645 37.5982 33.1662 37.5982C33.1918 37.6356 33.2104 37.6798 33.208 37.7358C33.1847 37.7341 33.1638 37.7307 33.1453 37.729C33.1503 37.6918 33.1621 37.6427 33.1571 37.6031L33.1577 37.6032ZM33.0973 37.426C33.0788 37.37 33.1159 37.2953 33.1108 37.2277C33.1091 37.1834 33.0939 37.1414 33.0782 37.1064C33.0525 37.0504 33.0154 37.0038 33.0085 36.9409C33.0018 36.8545 33.0596 36.8078 33.0782 36.7356C33.09 36.7077 33.0901 36.6772 33.0968 36.6423C33.0968 36.6406 33.0968 36.6373 33.0968 36.6373C33.1103 36.6356 33.1086 36.6491 33.1086 36.6675C33.1137 36.6932 33.1205 36.7071 33.1272 36.7281C33.1339 36.7383 33.1373 36.7491 33.139 36.756C33.1407 36.7794 33.1272 36.8073 33.1255 36.8307C33.1205 36.8634 33.1356 36.9006 33.1356 36.924C33.1356 36.945 33.1288 36.9636 33.1288 36.9846C33.1204 37.0266 33.1103 37.0754 33.1171 37.1222C33.1188 37.1455 33.1305 37.1735 33.138 37.1992C33.1515 37.2459 33.1706 37.2901 33.1659 37.353C33.1642 37.402 33.1356 37.4487 33.1356 37.4999C33.1238 37.472 33.1077 37.4462 33.0984 37.4253L33.0973 37.426ZM32.9088 37.349C32.9105 37.3256 32.9105 37.2953 32.9071 37.2743C32.9071 37.2642 32.8953 37.251 32.9004 37.2417C32.9004 37.2298 32.9088 37.2248 32.9122 37.2114C32.9355 37.1415 32.8727 37.09 32.8425 37.048C32.789 36.9734 32.7564 36.8964 32.775 36.7612C32.775 36.7595 32.7801 36.756 32.7801 36.7543C32.8126 36.7894 32.8335 36.8359 32.8685 36.8641C32.8634 36.9294 32.8617 36.9993 32.8918 37.0483C32.9036 37.0717 32.9197 37.0903 32.9337 37.1136C32.9472 37.137 32.9709 37.1626 32.9756 37.1835C32.9823 37.2208 32.9587 37.2512 32.9477 37.2792C32.9198 37.3538 32.9342 37.4611 32.9686 37.5077C32.9855 37.5288 33.0269 37.5451 33.0245 37.573C33.0245 37.601 32.9919 37.6081 32.9779 37.6313C32.943 37.608 32.9243 37.5753 32.9034 37.5333C32.8916 37.5076 32.8801 37.4727 32.8801 37.447C32.8852 37.4143 32.908 37.384 32.9103 37.349H32.9088ZM32.9717 35.8049C32.9615 35.8184 32.9582 35.8421 32.9598 35.8585C32.9389 35.8795 32.9272 35.9053 32.918 35.9308C32.8621 35.9376 32.8295 35.9682 32.8086 36.0171C32.7985 36.0405 32.8018 36.0684 32.8035 36.0963C32.8052 36.1082 32.8102 36.1243 32.8102 36.1383C32.8102 36.1686 32.7968 36.2223 32.7824 36.2504C32.7689 36.283 32.7358 36.3109 32.7149 36.3437C32.7064 36.3555 32.698 36.3694 32.6916 36.3787C32.6747 36.4276 32.6899 36.4953 32.705 36.5256C32.7152 36.5391 32.7329 36.5513 32.7376 36.5628C32.7376 36.5729 32.7376 36.5931 32.7376 36.6048C32.7427 36.6218 32.7444 36.6375 32.7444 36.6468C32.7444 36.6888 32.7275 36.7262 32.7235 36.761C32.7218 36.7844 32.7218 36.81 32.7235 36.8333C32.7319 36.9196 32.756 36.985 32.7886 37.0479C32.7954 37.0614 32.8072 37.0713 32.8119 37.0899C32.7724 37.0713 32.7305 37.0431 32.7096 37.0035C32.6863 36.9568 32.6887 36.901 32.6863 36.8333C32.6812 36.7703 32.6561 36.7167 32.6421 36.6583C32.6353 36.6233 32.6336 36.5953 32.6302 36.5627C32.6285 36.53 32.6353 36.4997 32.6404 36.4647C32.6539 36.376 32.6706 36.2757 32.6986 36.1918C32.7104 36.1288 32.7429 36.0892 32.7614 36.0332C32.8126 35.9445 32.8616 35.8582 32.9383 35.7999C32.9569 35.7982 32.9639 35.7897 32.9802 35.7881C32.9869 35.7931 32.9751 35.7982 32.97 35.805L32.9717 35.8049ZM33.0275 36.0498C33.0275 36.0396 33.0292 36.0362 33.0326 36.0288C33.0377 36.0288 33.0377 36.0305 33.0343 36.0305C33.0157 36.0794 32.9994 36.1309 32.9855 36.1867C32.9804 36.1766 32.9804 36.1657 32.9855 36.154C32.9906 36.119 33.004 36.0629 33.0273 36.0491L33.0275 36.0498ZM32.8088 36.4416C32.8173 36.4137 32.8391 36.3927 32.8507 36.367C32.8676 36.3226 32.8833 36.2713 32.8857 36.2131V36.203C32.8874 36.203 32.8874 36.203 32.8907 36.2081C32.9302 36.3433 32.8489 36.467 32.8512 36.5906C32.8512 36.6326 32.8647 36.6722 32.8814 36.7072C32.8898 36.7352 32.9093 36.7609 32.8933 36.8028C32.8631 36.7795 32.849 36.7492 32.8257 36.7119C32.8173 36.6984 32.8072 36.6793 32.8024 36.6699C32.7839 36.5953 32.7889 36.5044 32.8092 36.4414L32.8088 36.4416ZM32.8648 36.0381C32.8833 36.028 32.8949 36.0124 32.923 36.0171C32.902 36.0639 32.8904 36.1173 32.8904 36.1734C32.8837 36.1666 32.8718 36.1632 32.8625 36.1547C32.8369 36.1244 32.8439 36.0639 32.8642 36.0381H32.8648ZM32.7461 36.3693H32.7528C32.783 36.3087 32.8249 36.2596 32.8413 36.1874C32.848 36.189 32.8497 36.1941 32.8547 36.1941C32.8531 36.3272 32.7501 36.3855 32.7361 36.502C32.7152 36.4763 32.7175 36.4157 32.7378 36.3971C32.7378 36.3971 32.7378 36.3971 32.7378 36.4022C32.7496 36.4022 32.7361 36.3695 32.7446 36.3886C32.7513 36.3835 32.7395 36.3785 32.7446 36.37L32.7461 36.3693ZM32.9694 36.325C32.9694 36.36 32.9711 36.402 32.9627 36.4392C32.9508 36.4766 32.9231 36.5022 32.9185 36.5465C32.9168 36.5533 32.9185 36.5635 32.9185 36.5675C32.9168 36.5777 32.91 36.5845 32.9066 36.5931C32.9015 36.6281 32.9117 36.6608 32.9117 36.7051C32.8791 36.6515 32.8767 36.5699 32.8907 36.5045C32.9025 36.4556 32.9257 36.4136 32.9279 36.3646C32.938 36.2759 32.9262 36.171 32.9413 36.087C32.9549 36.0381 32.9856 36.0076 33.0089 35.9704C33.0224 35.9653 33.0299 35.9447 33.0484 35.947C33.0501 35.942 33.0383 35.947 33.0417 35.942C33.1021 35.9 33.1859 35.8533 33.2813 35.8813C33.2534 35.8864 33.2116 35.8915 33.179 35.8915C33.0953 35.9242 33.0208 35.9709 32.9812 36.0548C32.9795 36.0565 32.9795 36.0565 32.9761 36.065C32.9677 36.0836 32.9576 36.1303 32.9552 36.1652C32.9451 36.2236 32.9688 36.2725 32.9688 36.3262L32.9694 36.325ZM33.7977 36.1943C33.8112 36.2899 33.796 36.3833 33.7627 36.4532C33.7394 36.4999 33.7092 36.5395 33.679 36.5839C33.684 36.6008 33.6959 36.6351 33.6807 36.6516C33.6436 36.6465 33.6155 36.6346 33.5853 36.6189C33.5903 36.6679 33.6388 36.6725 33.6738 36.6912C33.6755 36.7047 33.6602 36.7215 33.6528 36.7238C33.641 36.7255 33.5993 36.6936 33.5853 36.6888C33.5785 36.6837 33.5735 36.6719 33.5667 36.6719C33.5667 36.7186 33.6039 36.7325 33.625 36.7535C33.6182 36.767 33.6041 36.7885 33.59 36.7885C33.5528 36.7936 33.5343 36.7255 33.5225 36.6929C33.4992 36.7031 33.5056 36.7372 33.4968 36.7606C33.4385 36.7396 33.4176 36.679 33.4224 36.6137C33.4358 36.56 33.5339 36.5717 33.5504 36.5156C33.552 36.4987 33.5487 36.4807 33.5419 36.4644C33.5351 36.4474 33.5317 36.4317 33.5186 36.4294C33.5068 36.448 33.5355 36.4737 33.5186 36.4947C33.5068 36.5014 33.4977 36.4947 33.486 36.4947C33.4465 36.4896 33.4139 36.5082 33.3766 36.5048C33.3597 36.5032 33.3417 36.4947 33.3231 36.4947C33.3096 36.4947 33.2952 36.4964 33.2812 36.4879C33.2762 36.4669 33.2947 36.4459 33.2728 36.4367C33.2626 36.4535 33.2519 36.474 33.2592 36.5043C33.2609 36.5253 33.2825 36.5487 33.2966 36.558C33.3292 36.5766 33.378 36.5766 33.392 36.6047C33.3988 36.6216 33.3987 36.6467 33.3937 36.6607C33.3886 36.7167 33.3425 36.754 33.2959 36.768C33.3027 36.7511 33.3077 36.7003 33.2874 36.7027C33.274 36.7027 33.2689 36.7401 33.2573 36.7563C33.2404 36.7842 33.199 36.8076 33.1759 36.7631C33.2085 36.7398 33.241 36.7257 33.2551 36.6837C33.2415 36.6837 33.2109 36.6939 33.1854 36.7047C33.1596 36.7166 33.1411 36.7327 33.1411 36.6837C33.1877 36.6787 33.2179 36.6511 33.2388 36.6184C33.2109 36.6286 33.176 36.6441 33.1366 36.6354C33.1315 36.6286 33.1383 36.6184 33.1366 36.6143C33.0737 36.5373 33.0249 36.4348 33.0226 36.3065C33.0209 36.2273 33.0411 36.1385 33.0691 36.0732C33.081 36.0453 33.0925 36.0265 33.1041 36.0078C33.1176 35.9821 33.132 35.9612 33.16 35.9497C33.1949 35.9361 33.2414 35.9263 33.288 35.9286C33.3367 35.9337 33.3693 35.9566 33.409 35.9661C33.4602 35.9796 33.4951 35.9427 33.537 35.9381C33.5975 35.9313 33.6486 35.95 33.6859 35.9801C33.6994 35.9869 33.7116 36.0081 33.7254 36.0221C33.7626 36.0595 33.7882 36.1223 33.7998 36.1947L33.7977 36.1943ZM33.7651 36.9803C33.7719 36.9922 33.7837 36.9989 33.7908 37.013C33.8026 37.0409 33.8026 37.132 33.7772 37.1413C33.784 37.0271 33.6772 36.978 33.7028 36.8614C33.7095 36.8357 33.7163 36.8102 33.7284 36.7844C33.747 36.7284 33.775 36.6654 33.7563 36.5931C33.7563 36.588 33.7479 36.5762 33.7479 36.5674C33.7479 36.5556 33.7805 36.4952 33.7921 36.4835C33.809 36.4903 33.809 36.5161 33.8107 36.5278C33.8242 36.5698 33.8502 36.6187 33.8526 36.6701C33.8542 36.7169 33.8316 36.7727 33.8131 36.8078C33.7874 36.8452 33.7479 36.8731 33.7526 36.9337C33.7577 36.9523 33.7611 36.9664 33.7661 36.9805L33.7651 36.9803ZM33.807 36.0916C33.8053 36.0916 33.8053 36.0866 33.8053 36.0815C33.807 36.0866 33.8103 36.0866 33.812 36.0866C33.8586 36.11 33.8773 36.1705 33.8818 36.2335C33.8835 36.2779 33.8632 36.3267 33.8608 36.3665C33.8557 36.4132 33.8676 36.4552 33.8865 36.4808C33.8983 36.4943 33.926 36.5065 33.926 36.5345C33.926 36.5624 33.9027 36.5812 33.8982 36.6043C33.8812 36.5834 33.8773 36.553 33.8703 36.5273C33.8636 36.5016 33.8534 36.4713 33.8517 36.4434C33.85 36.4155 33.8568 36.3967 33.8585 36.3687C33.8686 36.2708 33.8375 36.1705 33.8073 36.0912L33.807 36.0916ZM34.0653 36.6795C34.0653 36.7074 34.0534 36.74 34.0443 36.761C34.0234 36.7937 33.9931 36.803 33.9815 36.8381C33.968 36.887 34.0024 36.9337 33.9933 36.978C33.9798 36.978 33.9724 36.9594 33.9676 36.9477C33.9592 36.9376 33.9508 36.9244 33.9467 36.9105C33.9281 36.8452 33.9746 36.7519 33.9535 36.6796C33.9518 36.666 33.9365 36.6493 33.9348 36.64C33.9348 36.605 33.9675 36.577 33.9628 36.5326C33.9628 36.5047 33.9459 36.493 33.9326 36.4721C33.9191 36.4552 33.9047 36.4464 33.9047 36.4231C33.9047 36.3857 33.9303 36.3554 33.9373 36.3182C33.9507 36.2483 33.9373 36.1992 33.9116 36.1479C33.9132 36.1462 33.9166 36.1479 33.9183 36.1479C33.9462 36.1737 33.9695 36.2085 33.9904 36.2482C34.0073 36.2808 34.0207 36.3321 34.023 36.3789C34.023 36.4371 34.0045 36.4978 34.0112 36.5561C34.018 36.6004 34.0623 36.6283 34.0647 36.6796L34.0653 36.6795ZM33.914 35.8934C33.9038 35.8917 33.9258 35.8815 33.9258 35.8748C33.9514 35.8514 33.9909 35.8799 33.9955 35.9027C34.0234 35.9821 33.9584 36.0776 33.8978 36.087C33.8721 36.0921 33.8302 36.0819 33.828 36.0637C33.8348 36.0535 33.8416 36.0586 33.849 36.0569C33.8978 36.0518 33.9374 36.0265 33.9629 35.9963C33.9815 35.9473 33.9579 35.8937 33.9141 35.8937L33.914 35.8934ZM33.897 35.9002C33.897 35.9137 33.8853 35.9235 33.8903 35.9374C33.8903 35.9476 33.9021 35.9544 33.9021 35.9607C33.9021 35.9709 33.8626 35.9911 33.8462 35.9982C33.8044 36.0117 33.7463 35.9999 33.7299 35.9772C33.802 35.967 33.851 35.9352 33.8974 35.9002H33.897ZM33.3899 35.7788C33.3899 35.7578 33.4155 35.7653 33.4224 35.7531C33.469 35.7582 33.4106 35.7975 33.3899 35.7788ZM33.4365 35.8115C33.469 35.8047 33.4783 35.7764 33.5086 35.7764C33.5295 35.8091 33.4853 35.8254 33.4736 35.8463C33.4503 35.8582 33.4293 35.8767 33.3851 35.8721C33.3572 35.867 33.3316 35.8511 33.3037 35.8394C33.2386 35.8115 33.1548 35.8293 33.1014 35.8512C33.0502 35.8723 33.0152 35.9073 32.978 35.94C33.0083 35.8443 33.0665 35.7907 33.1572 35.7766C33.1898 35.7749 33.2269 35.7783 33.2595 35.7834C33.3224 35.7902 33.3852 35.823 33.4364 35.8113L33.4365 35.8115ZM32.5523 34.384C32.554 34.3705 32.5756 34.3654 32.5918 34.363C32.6406 34.3495 32.6989 34.3304 32.7548 34.3304C32.7598 34.3354 32.7649 34.3439 32.7649 34.3537V34.3588C32.7323 34.3706 32.6928 34.3723 32.6555 34.3774C32.6205 34.3825 32.5858 34.396 32.5553 34.3909C32.5553 34.3892 32.5537 34.3858 32.5537 34.3842L32.5523 34.384ZM32.415 34.5054C32.4133 34.4952 32.4049 34.4918 32.4015 34.482C32.4294 34.4634 32.4527 34.426 32.4829 34.4143C32.4846 34.4143 32.488 34.4143 32.488 34.4143C32.4947 34.4913 32.5015 34.5099 32.5015 34.5099C32.5066 34.5333 32.5083 34.5612 32.515 34.5846C32.5217 34.6172 32.5319 34.6942 32.5383 34.7269C32.5467 34.7782 32.5802 34.9043 32.5965 34.9509C32.6501 35.0978 32.7152 35.2354 32.778 35.366C32.773 35.3846 32.7571 35.4011 32.7611 35.4245C32.7628 35.4414 32.778 35.4431 32.7844 35.4547C32.7793 35.4757 32.7675 35.485 32.7726 35.5036C32.7777 35.5432 32.8378 35.5573 32.8727 35.5597C32.8845 35.5766 32.8913 35.5971 32.9006 35.6226C32.9056 35.6362 32.9263 35.6739 32.9239 35.6926C32.9222 35.7061 32.8913 35.7183 32.882 35.73C32.8563 35.7509 32.8378 35.7788 32.8168 35.8091C32.768 35.8792 32.7215 35.9491 32.6889 36.0331C32.6822 36.0518 32.6771 36.0681 32.6632 36.082C32.6751 35.5362 32.6306 35.0138 32.4143 34.6732C32.416 34.6614 32.416 34.6498 32.416 34.6336H32.4176V34.5706C32.4176 34.5497 32.4176 34.524 32.4126 34.5053L32.415 34.5054ZM32.557 36.8449C32.5469 36.8398 32.5571 36.8262 32.5587 36.8169C32.5655 36.789 32.5722 36.7516 32.5797 36.7189C32.5797 36.6979 32.5797 36.6793 32.5931 36.6652C32.5948 36.6652 32.5949 36.6669 32.5982 36.6669C32.5865 36.702 32.5864 36.7485 32.5797 36.7835C32.5729 36.8069 32.5712 36.8303 32.5564 36.8442L32.557 36.8449ZM32.613 36.7376C32.613 36.7359 32.6146 36.7359 32.6146 36.7325H32.6214C32.6609 36.8304 32.6331 36.9564 32.6865 37.038C32.7167 37.0941 32.7772 37.1126 32.8471 37.136C32.8773 37.1594 32.8573 37.192 32.8606 37.2247C32.8606 37.2457 32.8775 37.2643 32.8816 37.2901C32.8816 37.3134 32.8765 37.3389 32.8697 37.3647C32.8562 37.3528 32.8562 37.3272 32.8488 37.311C32.8369 37.2877 32.8231 37.2597 32.8046 37.2411C32.765 37.1968 32.6951 37.1874 32.6533 37.1409C32.6114 37.0942 32.5788 37.0149 32.5741 36.9333C32.5724 36.8634 32.6114 36.8122 32.6114 36.7374L32.613 36.7376ZM33.027 37.4722C33.0203 37.4824 33.0321 37.5026 33.0203 37.5049C33.0034 37.4999 32.9994 37.4792 32.9946 37.4653C32.9777 37.4257 32.969 37.3744 32.9811 37.3208C32.9997 37.2602 33.023 37.1994 33.002 37.1318C32.9919 37.1039 32.9695 37.0758 32.951 37.0431C32.9277 36.9988 32.9022 36.9616 32.9114 36.8893C32.9182 36.8404 32.937 36.7843 32.9392 36.7259C32.9409 36.663 32.9376 36.6046 32.9561 36.5534C32.9629 36.53 32.9794 36.4928 32.9933 36.4718C33.0051 36.4667 33.0102 36.4952 33.0142 36.5091C33.0278 36.551 33.0399 36.6187 33.0277 36.6723C33.0176 36.7074 32.9999 36.7353 32.9882 36.768C32.9748 36.8216 32.9649 36.887 32.9764 36.9452C32.9814 36.971 32.9933 36.9965 33.002 37.0199C33.023 37.0712 33.0649 37.1179 33.0718 37.1738C33.0769 37.1995 33.0735 37.2298 33.0701 37.2532C33.0684 37.3068 33.0375 37.344 33.0532 37.4048C33.06 37.4327 33.0835 37.4608 33.0975 37.4887C33.1277 37.5587 33.1346 37.6449 33.0958 37.7173C33.0679 37.7105 33.0562 37.6847 33.0399 37.6637C33.0841 37.6124 33.0608 37.5191 33.0281 37.4725L33.027 37.4722ZM33.5366 37.3206C33.5366 37.3105 33.5434 37.2949 33.5434 37.2832C33.5434 37.2598 33.5265 37.2388 33.5315 37.2109C33.5332 37.1852 33.5525 37.1642 33.5572 37.1363C33.5572 37.106 33.5403 37.0895 33.5403 37.0569C33.5353 37.0434 33.5471 37.0149 33.5471 36.9963C33.5454 36.9861 33.5336 36.91 33.5192 36.91C33.5006 36.9083 33.4914 36.9543 33.4914 36.9777C33.4897 36.9845 33.4863 37.0128 33.4897 37.0244C33.4914 37.0477 33.5083 37.0618 33.5154 37.085C33.5272 37.127 33.4984 37.1665 33.4984 37.1993C33.4984 37.2178 33.5069 37.2364 33.5069 37.2505C33.512 37.2832 33.49 37.3135 33.49 37.3438C33.495 37.3693 33.5179 37.3905 33.5249 37.4161C33.5506 37.5117 33.4878 37.5816 33.4574 37.64C33.4389 37.6586 33.4132 37.6634 33.3899 37.6889C33.369 37.7168 33.3642 37.7729 33.3061 37.7425C33.3129 37.7192 33.3411 37.7168 33.3504 37.6959C33.3806 37.6725 33.4132 37.6491 33.4248 37.6072C33.4383 37.5512 33.4197 37.4741 33.4197 37.4019C33.4197 37.3668 33.4333 37.3437 33.4431 37.311C33.4549 37.2807 33.4616 37.2457 33.4664 37.2177C33.4731 37.1524 33.4338 37.0942 33.4407 37.0428C33.4474 37.0194 33.4733 37.0008 33.4757 36.9775C33.4757 36.9564 33.4655 36.9447 33.4588 36.9331C33.4331 36.9399 33.3984 36.9331 33.3751 36.9399C33.37 36.9534 33.3649 36.9656 33.3683 36.9819C33.37 36.9954 33.3852 37.0052 33.3892 37.0193C33.3993 37.0426 33.4027 37.0659 33.4078 37.0939C33.4128 37.1172 33.4263 37.1406 33.4263 37.1662C33.428 37.2385 33.3775 37.2992 33.3821 37.3808C33.3703 37.3706 33.3653 37.3574 33.3636 37.3481C33.3585 37.3362 33.3551 37.3224 33.3585 37.3107C33.3585 37.2874 33.377 37.2733 33.3794 37.2523C33.3811 37.2354 33.3743 37.2172 33.3777 37.1963C33.3828 37.1684 33.4056 37.1473 33.4056 37.1264C33.4056 37.1054 33.3887 37.0937 33.3823 37.0796C33.3823 37.0329 33.3566 37.0098 33.359 36.9561C33.359 36.951 33.3505 36.946 33.3505 36.9375C33.3248 36.9239 33.2923 36.9358 33.2714 36.9188C33.2505 36.9002 33.2545 36.8466 33.2364 36.8233C33.2533 36.8114 33.2735 36.8131 33.2969 36.8097C33.3137 36.8029 33.334 36.7887 33.348 36.7863C33.3666 36.7847 33.3899 36.7982 33.4084 36.7982C33.427 36.7931 33.4387 36.7846 33.4527 36.7846C33.4712 36.7846 33.4945 36.8032 33.5131 36.8056C33.5232 36.8073 33.5266 36.8039 33.5317 36.8039C33.5619 36.809 33.5759 36.8249 33.5922 36.839C33.6456 36.8221 33.669 36.7736 33.6923 36.7271C33.6855 36.7948 33.6435 36.8367 33.6528 36.9113C33.6595 36.9743 33.7063 37.0139 33.7203 37.0676C33.722 37.0811 33.7254 37.1026 33.7271 37.1236C33.7355 37.2192 33.6898 37.266 33.6595 37.3359C33.641 37.3224 33.62 37.2939 33.62 37.266C33.6183 37.2264 33.6595 37.1937 33.6666 37.1541C33.6767 37.0911 33.6456 37.0351 33.6316 36.9907C33.6249 36.965 33.6199 36.9418 33.6131 36.9254C33.6063 36.9153 33.5962 36.9085 33.5922 36.8975C33.582 36.884 33.5854 36.8601 33.5664 36.8508C33.5496 36.8576 33.5479 36.8694 33.5455 36.8834C33.5455 36.9254 33.5944 36.9674 33.6084 37.0024C33.6151 37.0159 33.6168 37.0375 33.6252 37.0584C33.6371 37.0818 33.6461 37.1074 33.6421 37.1424C33.6337 37.1796 33.591 37.2078 33.5864 37.2473C33.5847 37.266 33.5948 37.3056 33.605 37.3243C33.6151 37.3413 33.6283 37.3547 33.6376 37.3687C33.6477 37.3873 33.6561 37.4154 33.6609 37.4458C33.6676 37.4691 33.6795 37.5017 33.6795 37.5251C33.6811 37.5437 33.6744 37.5905 33.6727 37.6138C33.666 37.6465 33.6517 37.6651 33.6332 37.6884C33.6146 37.7164 33.6099 37.7235 33.5773 37.7397C33.5563 37.7515 33.5331 37.7566 33.5052 37.7655C33.4934 37.7671 33.4795 37.7756 33.4679 37.779C33.4446 37.7841 33.4284 37.7621 33.4003 37.7655C33.4105 37.6932 33.4724 37.6861 33.5074 37.6419C33.5446 37.6023 33.5726 37.5346 33.5655 37.4577C33.5604 37.4133 33.5352 37.3737 33.5352 37.3224L33.5366 37.3206ZM34.1602 37.4582C34.1585 37.4701 34.1483 37.4839 34.1416 37.4954C34.1281 37.5327 34.109 37.5631 34.0856 37.5934C34.0415 37.6495 33.967 37.6845 33.9042 37.7334C33.8856 37.747 33.8693 37.7685 33.8507 37.7847C33.8338 37.8033 33.8112 37.8243 33.7925 37.8336C33.784 37.8387 33.7738 37.8455 33.7598 37.8387C33.7497 37.8201 33.7734 37.8201 33.7832 37.8177C33.7916 37.8042 33.8088 37.7991 33.8158 37.7874C33.8208 37.7824 33.8174 37.7688 33.8225 37.7595C33.8411 37.7223 33.8853 37.7012 33.9132 37.6638C33.925 37.6469 33.9341 37.6243 33.9365 37.6033C33.9415 37.5931 33.9382 37.5799 33.9449 37.5706C33.9584 37.5496 33.9844 37.5427 34.0008 37.5262C34.0092 37.5144 34.0264 37.4912 34.0358 37.4795C34.0425 37.466 34.059 37.4235 34.0614 37.4073C34.075 37.3302 34.0405 37.272 34.0547 37.174C34.0245 37.2067 34.0378 37.2789 34.0378 37.3302C34.0378 37.4025 34.0007 37.4492 33.9609 37.4841C33.966 37.4584 33.9508 37.4352 33.9508 37.4142C33.9559 37.3839 33.9787 37.3653 33.9926 37.3443C34.016 37.3023 33.9977 37.251 34.0045 37.2019C34.0096 37.1786 34.0214 37.1576 34.0254 37.1366C34.0305 37.1133 34.0305 37.0899 34.0254 37.0667C34.0237 37.0532 34.0119 37.0364 34.0136 37.02C34.0136 37.0013 34.0305 36.9826 34.0271 36.9523C34.0271 36.9337 34.0153 36.9151 34.0153 36.8963C34.0136 36.8729 34.0203 36.8357 34.0362 36.8169C34.0429 36.8118 34.0497 36.8118 34.0572 36.8068C34.0623 36.8 34.0707 36.7788 34.0805 36.7834C34.1038 36.7935 34.1223 36.8766 34.1248 36.9093C34.1315 36.9605 34.1264 37.0235 34.1231 37.0609C34.1214 37.0936 34.1179 37.1332 34.1213 37.1659C34.1231 37.2358 34.1563 37.2849 34.1609 37.3479C34.1659 37.3853 34.1676 37.4249 34.1592 37.4575L34.1602 37.4582ZM29.9792 33.0778C30.0001 33.066 30.0257 33.0544 30.0443 33.0382C30.0375 33.0615 30.0093 33.0778 29.9815 33.0849C29.9815 33.0832 29.9799 33.0832 29.9799 33.0782L29.9792 33.0778ZM29.9304 33.3811C29.9169 33.3298 29.9135 33.2644 29.9025 33.2177C29.9143 33.2456 29.9258 33.283 29.9351 33.3181C29.9418 33.3553 29.952 33.3951 29.9469 33.4277C29.9351 33.4176 29.9334 33.3975 29.93 33.3811H29.9304ZM29.8559 33.0918C29.861 33.0782 29.8792 33.0732 29.8885 33.0685C29.8935 33.0752 29.8801 33.0786 29.8767 33.0854C29.8868 33.1204 29.8868 33.1624 29.914 33.188C29.9005 33.188 29.8954 33.1981 29.8837 33.1981C29.8837 33.1795 29.8512 33.1142 29.8559 33.0931V33.0918ZM29.8424 32.9845C29.8145 32.9332 29.7842 32.8819 29.7539 32.8352C29.7657 32.7909 29.7748 32.7302 29.7796 32.6697C29.7897 32.6697 29.7847 32.6815 29.7863 32.6931C29.7998 32.735 29.8352 32.7863 29.7931 32.8027C29.8066 32.8726 29.8374 32.9334 29.8536 33.0056C29.8451 33.0005 29.8468 32.9921 29.8417 32.9847L29.8424 32.9845ZM29.8029 33.1897C29.7679 33.1948 29.7261 33.1914 29.6982 33.183C29.6796 33.1728 29.6632 33.1596 29.6447 33.1457C29.6074 33.0758 29.6214 32.9545 29.6261 32.8635C29.638 32.9009 29.6312 32.9732 29.6346 33.0268C29.6363 33.0595 29.6413 33.0967 29.6531 33.1201C29.6649 33.1504 29.7067 33.1714 29.7438 33.1785C29.7607 33.1836 29.7809 33.1785 29.7997 33.1734C29.8115 33.1717 29.8276 33.1616 29.8323 33.1751C29.8323 33.187 29.8137 33.187 29.802 33.1887L29.8029 33.1897ZM34.9075 37.8757C34.8907 37.8706 34.8726 37.8655 34.8564 37.8588C34.8215 37.852 34.775 37.852 34.7377 37.852C34.7028 37.847 34.668 37.847 34.6283 37.8385C34.591 37.8317 34.5539 37.8283 34.5189 37.8175C34.491 37.8074 34.4606 37.7848 34.4327 37.7685C34.3326 37.7173 34.228 37.6684 34.1187 37.6262C34.142 37.589 34.1675 37.5609 34.1862 37.5259C34.2095 37.4791 34.2141 37.4209 34.2235 37.3579C34.2303 37.3207 34.2421 37.2787 34.2445 37.2461C34.2512 37.169 34.2462 37.0992 34.2394 37.0292C34.2185 36.8122 34.2411 36.5999 34.2293 36.3971C34.2242 36.3131 34.206 36.2244 34.1781 36.1474C34.1524 36.0681 34.1338 35.9819 34.106 35.9142C34.0976 35.8909 34.0781 35.856 34.0641 35.8395C34.0507 35.8209 34.0223 35.8069 34.013 35.7883C34.0113 35.7781 34.0147 35.7714 34.0113 35.758C34.0011 35.7301 33.967 35.7206 33.9461 35.7043C33.9293 35.6925 33.9183 35.6786 33.9042 35.6693C33.8908 35.6574 33.8741 35.6507 33.8554 35.6435C33.842 35.6384 33.8252 35.6385 33.8112 35.63C33.7977 35.6249 33.7926 35.6131 33.7833 35.6066C33.7391 35.5787 33.6949 35.5931 33.6344 35.5787C33.6243 35.5787 33.6176 35.5686 33.6066 35.5686C33.5322 35.5452 33.4274 35.5635 33.346 35.5383C33.2575 35.5173 33.1831 35.4684 33.1111 35.445C33.1161 35.4031 33.0831 35.3937 33.0598 35.3797C33.0615 35.3563 33.0784 35.3167 33.0497 35.3003C33.0413 35.3003 33.0312 35.3003 33.0171 35.3003C32.9777 35.158 32.9544 35.0181 32.9172 34.8828C32.9003 34.8151 32.8684 34.7499 32.8568 34.6845C32.85 34.6495 32.8483 34.6146 32.8398 34.5703C32.8381 34.5352 32.8263 34.498 32.823 34.4584C32.8111 34.4002 32.8145 34.3487 32.8094 34.2905C32.828 34.2648 32.8723 34.2368 32.8699 34.1925C32.8716 34.1857 32.8699 34.1789 32.8682 34.1715C32.8615 34.1458 32.8449 34.1202 32.8311 34.0969C32.7961 34.0153 32.7823 33.9173 32.7635 33.8216C32.745 33.7213 32.731 33.6281 32.6984 33.544C32.6883 33.5161 32.6751 33.488 32.6682 33.4624C32.6682 33.4608 32.6631 33.4608 32.6631 33.4574C32.6546 33.399 32.6305 33.3687 32.577 33.3594C32.5702 33.3408 32.5561 33.3267 32.5444 33.3058C32.5377 33.2939 32.5141 33.2638 32.5141 33.2521C32.5074 33.2194 32.5192 33.196 32.5074 33.1751C32.5057 33.1615 32.4889 33.1564 32.4865 33.1448C32.4848 33.1329 32.4915 33.1215 32.4881 33.1098C32.4864 33.0928 32.4713 33.0911 32.4648 33.0747C32.4881 33.0396 32.4648 33 32.4463 32.9791C32.4648 32.9512 32.4446 32.923 32.4294 32.9044C32.4503 32.8765 32.4243 32.8439 32.4125 32.8228C32.426 32.7926 32.4125 32.7575 32.3939 32.7412C32.4125 32.6969 32.3872 32.669 32.3822 32.6433C32.3822 32.6365 32.3838 32.6246 32.3838 32.6175C32.3821 32.604 32.3704 32.5942 32.3653 32.5849C32.3636 32.5714 32.3636 32.5591 32.3585 32.5476C32.3568 32.5341 32.3518 32.5173 32.3467 32.5033C32.3349 32.4194 32.3234 32.3681 32.2722 32.3097C32.193 32.221 32.0814 32.1978 31.9954 32.1978H31.9937C31.8982 32.1877 31.7982 32.2304 31.7191 32.2818C31.6656 32.3168 31.633 32.3681 31.6145 32.4286C31.6128 32.4337 31.6077 32.4405 31.6027 32.4456C31.5817 32.4876 31.5608 32.5342 31.5608 32.5856C31.549 32.6158 31.5398 32.6485 31.5306 32.6766C31.5255 32.6935 31.5289 32.7093 31.5238 32.7279C31.5238 32.7347 31.517 32.7448 31.5136 32.7536C31.5136 32.7638 31.5187 32.7722 31.5187 32.7839C31.4909 32.8026 31.4954 32.8376 31.5002 32.8726C31.4792 32.8861 31.4769 32.9332 31.4951 32.9473C31.4672 32.9706 31.4672 33.0265 31.4883 33.0546C31.4833 33.0732 31.4715 33.078 31.4715 33.0966C31.4715 33.1135 31.4833 33.1223 31.4833 33.1362C31.4816 33.1497 31.4664 33.1596 31.4623 33.1736C31.4555 33.2015 31.4623 33.2156 31.4725 33.2318C31.4556 33.2552 31.4354 33.2854 31.4492 33.3227C31.4424 33.3345 31.4322 33.3396 31.4282 33.353C31.4232 33.3597 31.4282 33.3699 31.4232 33.3809C31.4181 33.402 31.3953 33.416 31.3813 33.4322C31.3695 33.4458 31.358 33.4649 31.3487 33.4835C31.3185 33.5324 31.2928 33.5908 31.2766 33.6514C31.2278 33.866 31.1836 34.1039 31.1254 34.3092C31.1136 34.3511 31.1085 34.3931 31.0859 34.4305C30.9764 34.3909 30.8462 34.3745 30.7252 34.3466C30.7201 34.3255 30.7235 34.3022 30.7066 34.2906C30.6857 34.2787 30.6578 34.2974 30.6345 34.3024C30.6244 34.2745 30.5764 34.2604 30.5484 34.279C30.5349 34.2689 30.5182 34.2655 30.5065 34.2533C30.4931 34.1951 30.4623 34.1483 30.4205 34.1133C30.4019 34.1015 30.374 34.09 30.3508 34.0737C30.3136 34.0528 30.281 34.0341 30.2391 34.02C30.2135 34.0099 30.1599 33.978 30.1485 33.9547C30.1468 33.9479 30.1468 33.9337 30.1434 33.9244C30.1061 33.7845 30.0712 33.6516 30.0363 33.5116C30.0312 33.4882 30.0228 33.4627 30.0245 33.4462C30.0262 33.4344 30.0346 33.4327 30.0363 33.4205C30.0363 33.407 30.0296 33.3831 30.0279 33.3669C30.011 33.3087 29.993 33.2572 29.986 33.1989C30.0512 33.1888 30.0976 33.1615 30.1373 33.1267C30.1582 33.0893 30.1837 33.0614 30.1792 33.0008C30.1657 32.8468 30.0465 32.7348 30.0372 32.5692C30.0355 32.5342 30.0473 32.5015 30.0304 32.4712C30.0119 32.4729 30.0025 32.4992 29.9978 32.5156C29.9536 32.6439 30.028 32.7581 30.0466 32.8701C30.0567 32.9214 30.045 32.9774 30.0117 33.0078C29.9948 33.0213 29.9629 33.0521 29.942 33.0404C29.9234 32.9937 29.9141 32.9191 29.925 32.8655C29.9065 32.8397 29.942 32.8118 29.9335 32.7792C29.9318 32.7673 29.9102 32.7489 29.8986 32.7372C29.8901 32.7203 29.8777 32.7069 29.8684 32.6952C29.8289 32.6299 29.787 32.5529 29.7567 32.4806C29.7449 32.4572 29.7399 32.4246 29.7125 32.4153C29.6956 32.4288 29.7057 32.448 29.7074 32.462C29.7176 32.5157 29.721 32.567 29.726 32.6275C29.726 32.6695 29.726 32.7441 29.7176 32.7909C29.7125 32.8044 29.7007 32.8212 29.7041 32.8376C29.7091 32.8478 29.7227 32.8545 29.7273 32.8633C29.7358 32.8769 29.7409 32.889 29.7507 32.9053C29.7856 32.952 29.8111 33.0056 29.832 33.0615C29.8203 33.0683 29.8087 33.0849 29.8135 33.1011C29.7298 33.1338 29.6807 33.0754 29.6739 33.0031C29.6671 32.9378 29.6739 32.8655 29.662 32.7979C29.6519 32.7256 29.6247 32.6533 29.5852 32.6066C29.5734 32.5931 29.5526 32.5694 29.5293 32.5787C29.531 32.5997 29.5462 32.6137 29.5549 32.6323C29.5968 32.7537 29.5782 32.9542 29.5807 33.1012C29.5823 33.1665 29.6179 33.2154 29.6574 33.2388C29.711 33.2715 29.7854 33.2507 29.8529 33.2388C29.8714 33.2901 29.8902 33.3624 29.9041 33.4207C29.9091 33.4343 29.9091 33.4486 29.9142 33.4581C29.9192 33.4632 29.9328 33.4683 29.9375 33.4768C29.9476 33.4869 29.9493 33.5234 29.9544 33.5445C29.9962 33.7054 30.0381 33.8757 30.0754 34.0296C30.0754 34.0431 30.062 34.0482 30.0569 34.0575C30.0484 34.0809 30.0518 34.1019 30.0518 34.1322C30.0518 34.1457 30.0501 34.1579 30.0518 34.1672C30.0518 34.1808 30.0653 34.1929 30.0704 34.2068C30.0754 34.2371 30.0704 34.2651 30.0936 34.2815C30.0936 34.3141 30.1122 34.3444 30.1286 34.363C30.1421 34.3766 30.1612 34.3816 30.1681 34.3933C30.1766 34.4069 30.185 34.4494 30.1914 34.4727C30.1965 34.5031 30.2033 34.5333 30.21 34.5567C30.2519 34.7222 30.2868 34.8809 30.3311 35.0465C30.4683 35.5923 30.6009 36.1358 30.7313 36.6793C30.7569 36.7911 30.7917 36.8962 30.8057 37.0105C30.7824 37.0155 30.7569 37.024 30.7336 37.0339C30.6965 37.0508 30.6592 37.0665 30.6196 37.0805C30.5592 37.1084 30.4963 37.1411 30.4474 37.1738C30.4373 37.1806 30.4265 37.1857 30.4173 37.1924C30.2752 37.288 30.1706 37.4514 30.0799 37.6029C30.0664 37.6263 30.052 37.6496 30.038 37.6707C30.0313 37.6842 30.0295 37.7009 30.0211 37.7173C30.0144 37.7309 30.0025 37.743 29.9978 37.7593C29.97 37.8246 29.9466 37.89 29.9374 37.9693C29.9239 38.0672 29.9357 38.1582 29.9652 38.2328C29.9233 38.2311 29.8325 38.2464 29.8303 38.2865C29.8303 38.3099 29.8584 38.3308 29.8629 38.3447C29.842 38.3548 29.8256 38.3565 29.7953 38.3514C29.7466 38.3464 29.6721 38.3396 29.6279 38.3582C29.6144 38.3684 29.5906 38.3839 29.5953 38.405C29.597 38.4424 29.6766 38.4517 29.714 38.4517C29.7309 38.4517 29.7442 38.4449 29.7559 38.4449C29.7885 38.4432 29.8256 38.4449 29.8536 38.4551C29.8671 38.4618 29.8672 38.4669 29.8746 38.4686C29.8813 38.4703 29.8931 38.4669 29.9048 38.4686C29.9132 38.4686 29.9233 38.4754 29.935 38.4754C29.97 38.4771 30.0094 38.4754 30.0373 38.4754C30.0305 38.4855 30.0205 38.494 30.0095 38.5033C30.0145 38.5168 30.0095 38.5243 30.0112 38.5452C30.0297 38.5755 30.053 38.5872 30.0903 38.5966C30.1624 38.6151 30.223 38.5797 30.2927 38.5864C30.3415 38.5915 30.3929 38.619 30.4557 38.6073C30.4324 38.6331 30.4162 38.6844 30.4371 38.7171C30.4489 38.734 30.4673 38.734 30.4814 38.745C30.5348 38.7501 30.5907 38.7518 30.6443 38.7467C30.6814 38.745 30.7489 38.7233 30.7815 38.7467C30.7933 38.7535 30.8001 38.7746 30.8117 38.791C30.8134 38.7961 30.8236 38.8029 30.835 38.8096C30.8401 38.8147 30.8486 38.8266 30.8536 38.8307C30.8769 38.8442 30.9443 38.8563 30.9583 38.8819C30.96 38.8836 30.9516 38.8887 30.96 38.8921C30.9583 38.9527 30.9617 39.018 30.9902 39.0624C31.0037 39.081 31.0274 39.0903 31.0367 39.1113C31.0693 39.1299 31.0995 39.1556 31.1368 39.179C31.1578 39.1925 31.1856 39.2 31.2112 39.2116C31.2345 39.2252 31.2531 39.2489 31.2717 39.2677C31.2768 39.2677 31.2768 39.2677 31.2768 39.266C31.2785 39.266 31.2818 39.266 31.2818 39.2643C31.27 39.2694 31.27 39.2455 31.27 39.234C31.27 39.2014 31.2835 39.1686 31.2909 39.1384C31.3328 38.9401 31.2188 38.7955 31.128 38.7045C31.1162 38.691 31.1002 38.6836 31.0954 38.6673C31.142 38.6571 31.1699 38.6346 31.2094 38.6137C31.2263 38.6836 31.2396 38.7582 31.2536 38.8329C31.2603 38.8563 31.2654 38.8865 31.2815 38.8959C31.3001 38.906 31.3397 38.8891 31.3467 38.8789C31.3652 38.8532 31.3416 38.8043 31.3348 38.774C31.323 38.7203 31.3139 38.6807 31.2998 38.627C31.2948 38.6061 31.279 38.5641 31.2864 38.5476C31.2931 38.5243 31.3656 38.5219 31.4096 38.5243C31.4329 38.526 31.4679 38.5345 31.4957 38.5345C31.5307 38.5294 31.5609 38.5041 31.6004 38.5175C31.619 38.5294 31.626 38.5503 31.647 38.5548C31.7052 38.5717 31.7773 38.5683 31.8378 38.5548C31.8657 38.5447 31.8936 38.5379 31.9216 38.5291C31.9634 38.5172 32.0053 38.5172 32.0331 38.4988C32.061 38.492 32.1192 38.4818 32.1216 38.4568C32.1216 38.4432 32.103 38.4449 32.1081 38.4265C32.1314 38.4197 32.1545 38.4096 32.1802 38.4096C32.2174 38.4079 32.2547 38.4197 32.2873 38.4197C32.3058 38.4214 32.3291 38.4096 32.3477 38.4146C32.3895 38.4197 32.4314 38.438 32.478 38.4315C32.499 38.4265 32.5199 38.418 32.5501 38.4146C32.578 38.4096 32.6082 38.4214 32.6386 38.4248C32.6757 38.4264 32.72 38.4231 32.7618 38.4197C32.8177 38.4129 32.8757 38.4028 32.9153 38.3823C32.9254 38.3772 32.9432 38.3589 32.9548 38.3589C32.9666 38.3572 32.9943 38.3657 33.0152 38.3708C33.0385 38.3708 33.064 38.3759 33.0828 38.3759C33.1061 38.3759 33.1456 38.3708 33.148 38.3572C33.1548 38.3437 33.127 38.3201 33.1177 38.3129C33.0642 38.2802 32.9572 38.2802 32.8874 38.2919C32.8705 38.297 32.8479 38.3089 32.8362 38.2919C32.8379 38.2733 32.8619 38.2784 32.8757 38.2686C32.8876 38.2618 32.8926 38.2499 32.9036 38.2428C32.9617 38.2547 33.0316 38.2547 33.0944 38.2445C33.127 38.2679 33.1689 38.2725 33.2177 38.2772C33.2227 38.2873 33.216 38.2982 33.2228 38.3075C33.2506 38.3285 33.2971 38.3332 33.3414 38.3332C33.4623 38.34 33.5973 38.3635 33.7137 38.3705C33.7624 38.4101 33.8602 38.4008 33.9254 38.4218C33.9068 38.4285 33.8951 38.4427 33.8812 38.4521C33.795 38.431 33.6927 38.4385 33.616 38.4622C33.5857 38.4757 33.5717 38.5111 33.599 38.5345C33.6247 38.5602 33.6852 38.5671 33.7386 38.5671C33.7922 38.5671 33.8457 38.579 33.8945 38.5671C33.913 38.5654 33.9456 38.5502 33.9549 38.5414C33.9684 38.5347 33.9718 38.5181 33.9718 38.504C34.0206 38.504 34.1626 38.5108 34.1696 38.4597C34.1713 38.4427 34.1561 38.4387 34.1527 38.427C34.1784 38.4321 34.183 38.3967 34.2063 38.3896C34.218 38.3896 34.2272 38.3896 34.2412 38.3896C34.2547 38.3845 34.2761 38.3794 34.2876 38.376C34.3086 38.3625 34.3132 38.3458 34.3318 38.3293C34.362 38.3293 34.3901 38.3395 34.4203 38.3242C34.4506 38.3124 34.4739 38.2799 34.5088 38.2729C34.5437 38.2628 34.574 38.2746 34.6089 38.2831C34.6415 38.2899 34.6786 38.3017 34.7136 38.3017C34.7438 38.3068 34.7928 38.3018 34.8183 38.2848C34.8368 38.278 34.8509 38.2591 34.8694 38.2521C34.902 38.242 34.9439 38.2454 34.9648 38.2171C34.9665 38.2103 34.9665 38.1961 34.9665 38.1913C35.0293 38.1656 35.0595 38.1191 35.0503 38.0304C35.0435 37.9465 34.9805 37.8928 34.9037 37.8766L34.9075 37.8757ZM33.0416 38.4495C33.023 38.4512 33.0045 38.463 32.9904 38.4613C32.9786 38.4613 32.9671 38.4512 32.951 38.4444C32.93 38.4376 32.8998 38.4325 32.8695 38.4309C32.8346 38.4309 32.7299 38.4444 32.781 38.4869C32.798 38.5038 32.8415 38.5102 32.8695 38.5172C32.8561 38.5307 32.8594 38.5498 32.8746 38.5592C32.9072 38.5871 33.0049 38.5849 33.0561 38.5918C33.0911 38.5901 33.1468 38.5851 33.191 38.5901C33.2079 38.5952 33.2352 38.6088 33.2538 38.6111C33.305 38.6213 33.3445 38.5993 33.3725 38.5832C33.3934 38.5663 33.412 38.5553 33.4027 38.5272C33.3632 38.4969 33.3004 38.4898 33.2306 38.4852C33.2097 38.4315 33.1026 38.4339 33.0421 38.4502L33.0416 38.4495ZM32.7996 37.7778C32.8206 37.7567 32.8532 37.7568 32.874 37.7404C32.8369 37.7008 32.7206 37.7053 32.7276 37.7847C32.7343 37.8173 32.8067 37.8243 32.7996 37.7779V37.7778ZM33.3534 36.8214C33.3517 36.8448 33.3743 36.8681 33.3929 36.8681C33.4162 36.8732 33.444 36.8495 33.4371 36.8238C33.4185 36.8136 33.3743 36.817 33.3534 36.8221V36.8214ZM33.1905 36.222C33.2183 36.2118 33.2532 36.2355 33.2254 36.2523C33.217 36.254 33.2085 36.2506 33.2044 36.2472C33.2095 36.2775 33.2532 36.2752 33.2742 36.2607C33.2792 36.2658 33.286 36.2658 33.2826 36.2743C33.2431 36.2878 33.1779 36.2743 33.1895 36.2206L33.1905 36.222ZM33.258 36.1824C33.2092 36.1567 33.1579 36.1925 33.1159 36.1807C33.1075 36.1807 33.0974 36.1671 33.0903 36.1671C33.0903 36.2091 33.1089 36.2277 33.1462 36.2325C33.1647 36.2885 33.223 36.3071 33.302 36.3048C33.3105 36.3115 33.3071 36.3217 33.3189 36.3234C33.3273 36.3234 33.3398 36.3064 33.3398 36.2976C33.3398 36.2858 33.328 36.2533 33.3213 36.2463C33.3145 36.2254 33.2748 36.1951 33.2585 36.1834L33.258 36.1824ZM33.5744 36.2618C33.5676 36.2618 33.5642 36.2719 33.5575 36.2669C33.5558 36.2533 33.5659 36.2567 33.571 36.2499C33.571 36.2266 33.5812 36.2125 33.6036 36.2125C33.6205 36.2227 33.6205 36.2475 33.6036 36.2568C33.6338 36.267 33.6502 36.2382 33.6524 36.2101C33.6659 36.2084 33.6693 36.2152 33.6757 36.222C33.6672 36.2616 33.6152 36.2825 33.5734 36.2616L33.5744 36.2618ZM33.7 36.1731C33.6698 36.1747 33.6348 36.1521 33.6046 36.1562C33.5813 36.1579 33.5535 36.1795 33.5371 36.1981C33.5253 36.2215 33.5069 36.2658 33.5069 36.2937C33.5069 36.2988 33.5085 36.3073 33.5203 36.3123C33.5322 36.3191 33.5305 36.2954 33.5373 36.2937C33.6001 36.2988 33.6443 36.2988 33.6769 36.2752C33.6954 36.2616 33.7047 36.2332 33.7142 36.2074C33.7226 36.1905 33.7444 36.1724 33.7375 36.149C33.7358 36.149 33.7358 36.1473 33.7307 36.1473C33.7206 36.1541 33.7138 36.1707 33.7005 36.1731H33.7ZM33.4441 36.1663C33.4255 36.1562 33.4184 36.1336 33.4184 36.1312C33.4083 36.1663 33.3882 36.1708 33.3697 36.1756C33.3527 36.1807 33.344 36.1654 33.3347 36.1654C33.3279 36.2144 33.4067 36.2005 33.4231 36.1756C33.4366 36.1942 33.4928 36.2152 33.4976 36.1705C33.479 36.1807 33.4605 36.1756 33.4441 36.1654V36.1663ZM32.0085 34.6852C31.9917 34.7021 31.9829 34.7021 31.969 34.6784C31.9556 34.6614 31.9412 34.6364 31.9434 34.5992C31.9484 34.5665 31.9736 34.5386 31.9945 34.5245C31.9962 34.5245 31.9962 34.5262 31.9996 34.5262C32.0508 34.5589 32.0555 34.6381 32.0097 34.6848L32.0085 34.6852ZM31.9876 34.5149C31.941 34.52 31.9062 34.5406 31.8922 34.5709C31.8787 34.5919 31.8737 34.6315 31.8871 34.6573C31.899 34.6852 31.95 34.7226 31.9894 34.7226C32.0289 34.7243 32.0801 34.6923 32.0965 34.662C32.1314 34.5826 32.0687 34.5104 31.9871 34.515L31.9876 34.5149ZM31.9808 33.0734V33.0666C31.9876 33.0616 31.9994 33.0666 32.0065 33.0683C32.0082 33.0785 31.9832 33.0751 31.9808 33.0734ZM32.0903 33.0081C32.0835 33.0081 32.0784 33.0182 32.0716 33.0182C32.0632 33.0182 32.0508 33.0114 32.0415 33.0114C32.0279 33.0098 32.0158 33.0165 32.0065 33.0182C31.9762 32.9949 31.9506 33.0284 31.9296 33.0233C31.9128 33.0233 31.9128 33.0114 31.9019 33.0114C31.8934 33.0182 31.8951 33.0372 31.9019 33.0441C31.912 33.0492 31.9275 33.0425 31.9368 33.0458C31.9469 33.0594 31.9469 33.0878 31.9694 33.0972C31.9829 33.1039 32.0228 33.1039 32.0393 33.0972C32.0561 33.087 32.0649 33.0668 32.0695 33.0458C32.078 33.0442 32.0904 33.0391 32.1113 33.0391C32.113 33.0181 32.1063 33.0088 32.0904 33.0088" fill="currentColor"/>
<path d="M31.9968 7.35889L28.9512 30.3012L32.0014 28.6708L31.9968 7.35889Z" fill="currentColor"/>
<path d="M25.4825 33.4523L13.7236 29.6084L26.1618 36.7854L25.4825 33.4523Z" fill="currentColor"/>
<path d="M50.2661 29.6035L36.1084 31.1313L38.5421 33.4405L50.2661 29.6035Z" fill="currentColor"/>
<path d="M36.082 41.0912L43.5552 51.2491L37.45 38.0869L36.082 41.0912Z" fill="currentColor"/>
<path d="M20.4336 51.2607L31.3246 41.5855L27.9207 41.0864L20.4336 51.2607Z" fill="currentColor"/>
<path d="M32.4199 41.3386L35.8912 40.8372L37.2872 37.7373L32.4199 41.3386Z" fill="currentColor"/>
<path d="M26.7148 37.7417L28.1108 40.8346L31.5752 41.3384L26.7148 37.7417Z" fill="currentColor"/>
<path d="M28.26 31.2271L25.7891 33.5526L26.4801 36.9183L28.26 31.2271Z" fill="currentColor"/>
<path d="M35.7354 31.2271L38.2062 33.5502L37.5152 36.9183L35.7354 31.2271Z" fill="currentColor"/>
<path d="M35.082 30.7046L32.0015 29.0322L28.9141 30.7046H35.082Z" fill="currentColor"/>
</g>
<defs>
<clipPath id="clip0_3396_56248">
<rect width="64" height="64" fill="currentColor"/>
</clipPath>
</defs>
</svg>
