<svg width="24" height="24" viewBox="0 0 24 24" fill="none" xmlns="http://www.w3.org/2000/svg">
<g clip-path="url(#clip0_3396_58288)">
<g filter="url(#filter0_d_3396_58288)">
<g clip-path="url(#clip1_3396_58288)">
<path d="M0 12C0 5.37258 5.37258 0 12 0C18.6274 0 24 5.37258 24 12C24 18.6274 18.6274 24 12 24C5.37258 24 0 18.6274 0 12Z" fill="#435F74"/>
<path d="M4.37871 9.64705H4.51329C5.02202 9.64705 5.60775 9.68795 5.60775 10.4053C5.60775 11.0695 5.0889 11.1641 4.5907 11.1641H4.37871V9.64705ZM5.42675 15.9247C6.75167 15.9247 8.04639 15.3836 8.04639 13.7419C8.04639 13.219 7.86316 12.5943 7.48274 12.2414C7.09662 11.8828 6.62114 11.7867 6.62114 11.7867C7.19027 11.6376 7.37329 10.9125 7.36558 10.1254C7.29911 8.72808 6.50258 8.08887 5.21677 8.08887H2.53027V15.9247H5.42675ZM4.37871 12.6809H4.57125C5.18495 12.6809 6.11588 12.5875 6.11588 13.5332C6.11588 14.3954 5.17502 14.3638 4.61888 14.3638H4.37871" fill="#FDC60D"/>
<path d="M15.7011 12.0051C15.7011 14.1625 14.0464 15.9134 12.0079 15.9134C9.96835 15.9134 8.31348 14.1625 8.31348 12.0051C8.31348 9.84867 9.96815 8.09961 12.0079 8.09961C14.0464 8.09961 15.7011 9.84867 15.7011 12.0051Z" fill="#FDC60D"/>
<path d="M14.1585 12.0054C14.1585 13.2634 13.1966 14.2824 12.0085 14.2824C10.8208 14.2824 9.85645 13.2634 9.85645 12.0054C9.85645 10.7493 10.8208 9.72852 12.0085 9.72852C13.1966 9.72852 14.1585 10.7493 14.1585 12.0054Z" fill="black"/>
<path d="M9.82287 9.86598L9.87132 9.9096L9.84132 9.94801C9.82186 9.96755 9.81638 9.98392 9.79814 10.0112C9.76451 10.0632 9.84922 10.1071 9.91368 10.0064C9.98562 9.89325 9.87962 9.81667 9.83989 9.81667C9.77627 9.81531 9.71403 9.85099 9.66844 9.9096C9.58209 10.0182 9.61433 10.1716 9.69641 10.2612C9.79592 10.3725 9.96962 10.4027 10.0594 10.2823C10.2272 10.0628 10.1107 9.98392 10.0724 9.96369L10.1235 9.90076C10.1782 9.96528 10.3158 10.0846 10.1285 10.3341C10.0028 10.5018 9.79652 10.5161 9.65444 10.3805C9.51116 10.2461 9.48703 10.0237 9.61858 9.85438C9.72255 9.72281 9.86484 9.69736 9.98116 9.79281C10.0566 9.85554 10.0853 9.97143 10.0034 10.0941C9.89077 10.2612 9.72823 10.1473 9.73107 10.0905L9.70065 10.1271L9.65324 10.0832" fill="black"/>
<path d="M10.0636 9.62033C10.0528 9.72668 10.1244 9.82347 10.2243 9.83347C10.3228 9.84507 10.4114 9.76802 10.4231 9.66259C10.4345 9.55442 10.3627 9.45989 10.263 9.4474C10.1645 9.43603 10.0745 9.51331 10.0636 9.62033ZM10.1234 9.62352C10.1227 9.55874 10.1704 9.5074 10.2287 9.5067C10.2881 9.50488 10.3378 9.55647 10.3378 9.62033C10.3384 9.68442 10.292 9.73532 10.2332 9.73735C10.1734 9.73735 10.1242 9.68714 10.1234 9.62352Z" fill="black"/>
<path d="M10.6618 9.1439C10.7224 9.0923 10.8185 9.04937 10.8969 9.07526C10.9735 9.10048 11.025 9.17094 11.0481 9.24842C11.07 9.3166 11.0347 9.39817 10.9855 9.42475C10.9774 9.42884 10.9677 9.43113 10.9589 9.43156C10.9737 9.37909 10.9605 9.30501 10.9273 9.24842C10.8981 9.19865 10.8635 9.16822 10.8128 9.1439C10.7635 9.12025 10.7099 9.123 10.6618 9.1439ZM10.5309 9.47203C10.5443 9.42113 10.5598 9.33863 10.5795 9.29477C10.599 9.25161 10.6476 9.21752 10.6946 9.20048C10.7506 9.18002 10.8175 9.22251 10.8473 9.28637C10.8687 9.33932 10.8653 9.40249 10.8233 9.42681C10.7711 9.45544 10.7559 9.42658 10.7202 9.34228L10.6667 9.36953C10.7009 9.44544 10.7183 9.48339 10.664 9.51203C10.6298 9.52884 10.5625 9.5118 10.5676 9.45362L10.5309 9.47203ZM10.5045 9.34228C10.4976 9.36113 10.4895 9.38886 10.4824 9.41408C10.4778 9.43704 10.4699 9.47203 10.4672 9.49475L10.5015 9.53337L10.5392 9.5136C10.5323 9.54974 10.5753 9.67972 10.6906 9.63223C10.7502 9.60632 10.7846 9.5436 10.7579 9.51907C10.7927 9.55041 10.843 9.56087 10.8817 9.53792C10.9401 9.50588 10.9508 9.46817 10.962 9.42568L10.9832 9.42226L10.9922 9.47339C11.0175 9.46817 11.0653 9.43953 11.0897 9.40089C11.1533 9.29979 11.1343 9.21387 11.0826 9.10186C11.0187 8.96734 10.8837 8.91824 10.7522 8.97346C10.6644 9.01186 10.6227 9.06117 10.5929 9.11958C10.5507 9.09117 10.5005 9.09708 10.451 9.12845C10.3947 9.1641 10.3764 9.22775 10.3864 9.28434C10.3975 9.34228 10.4573 9.37909 10.5045 9.34228ZM10.5177 9.27865C10.5177 9.2641 10.5049 9.24979 10.4905 9.23979C10.4824 9.23457 10.4372 9.22775 10.4405 9.24184C10.4352 9.20616 10.4753 9.17094 10.4881 9.16639C10.5039 9.16002 10.537 9.16138 10.5507 9.17503C10.5424 9.19025 10.5396 9.21639 10.5339 9.23184C10.528 9.24477 10.5242 9.26274 10.5177 9.27865Z" fill="black"/>
<path d="M11.1172 8.96507C11.0925 8.89509 11.1257 8.80442 11.2226 8.79555C11.3345 8.78465 11.4139 8.91692 11.4431 9.04006C11.4736 9.16458 11.4525 9.33343 11.3459 9.36274C11.3205 9.37001 11.1951 9.37752 11.1799 9.24209L11.2405 9.23458C11.2532 9.27207 11.2901 9.30299 11.3023 9.2998C11.344 9.28662 11.3538 9.17278 11.329 9.07255C11.3063 8.97394 11.2453 8.86805 11.2024 8.87668C11.1861 8.881 11.1679 8.89509 11.1679 8.95417" fill="black"/>
<path d="M11.9663 9.10217C11.9801 9.08423 12.0062 9.08219 12.0239 9.09785C12.0411 9.11376 12.0425 9.14014 12.0287 9.15808C12.0149 9.17898 11.988 9.18035 11.9708 9.16443C11.9533 9.14898 11.9507 9.12058 11.9663 9.10217ZM12.109 9.20081C12.1457 9.2658 12.1947 9.28238 12.264 9.28533C12.3305 9.2876 12.3915 9.25194 12.4302 9.20035C12.4823 9.13104 12.5085 9.0497 12.5103 8.94721C12.5127 8.85175 12.4712 8.72496 12.416 8.66224C12.3479 8.58296 12.2726 8.55591 12.1666 8.55023C12.0464 8.54432 11.9274 8.59998 11.8814 8.72065L11.9507 8.72496C11.9941 8.65203 12.0808 8.61522 12.1643 8.62044C12.2429 8.62339 12.3163 8.65021 12.3635 8.72065C12.4008 8.77656 12.4256 8.84972 12.4227 8.93494C12.4181 9.05811 12.3611 9.16875 12.2705 9.16559C12.2196 9.16376 12.1726 9.11991 12.175 9.07559C12.1775 9.04515 12.1907 9.02014 12.2067 9.00515C12.2432 8.97561 12.264 8.97811 12.265 8.92471C12.2671 8.8361 12.2036 8.75543 12.0875 8.75543C11.9509 8.75543 11.8781 8.84109 11.8565 8.98561C11.8341 9.12446 11.8745 9.2658 11.9931 9.27261C12.053 9.27443 12.096 9.24215 12.109 9.20081ZM11.9274 9.08127C11.914 9.0315 11.9175 8.97106 11.9426 8.92085C11.9708 8.86654 12.0192 8.83813 12.0916 8.84108C12.139 8.84314 12.1777 8.87995 12.1777 8.92834C12.1793 8.96175 12.1444 8.95402 12.1179 8.97561C12.0982 8.99219 12.1041 9.0415 12.1003 9.06309C12.0751 9.04129 12.0514 9.02901 12.016 9.0306C11.9756 9.0315 11.9452 9.0497 11.9274 9.08127Z" fill="black"/>
<path d="M12.8802 8.85444L12.8693 8.90943C12.8166 8.94125 12.7821 8.96534 12.7367 9.00534C12.6922 9.04691 12.6561 9.11622 12.6516 9.16894C12.6405 9.31709 12.7296 9.29823 12.7422 9.27211C12.7503 9.25393 12.7503 9.24028 12.759 9.21575L12.8174 9.22393C12.8223 9.26144 12.7994 9.42753 12.6439 9.39573C12.5655 9.37959 12.5201 9.29414 12.5397 9.17552C12.556 9.081 12.591 9.04328 12.6328 9.00259C12.6713 8.96647 12.7341 8.9267 12.7854 8.89626L12.635 8.85672L12.6472 8.78809" fill="black"/>
<path d="M13.021 9.04264C12.928 9.0858 12.884 9.20262 12.9239 9.30306C12.9635 9.4053 13.0735 9.45031 13.167 9.40712C13.2602 9.36349 13.3026 9.24624 13.2632 9.1467C13.2223 9.04626 13.1138 8.99901 13.021 9.04264ZM13.0482 9.10195C13.0999 9.06922 13.1671 9.0883 13.1971 9.14398C13.2277 9.2001 13.2097 9.27215 13.1576 9.30486C13.1076 9.33851 13.0385 9.31964 13.0083 9.26259C12.9774 9.2076 12.9955 9.13467 13.0482 9.10195Z" fill="black"/>
<path d="M13.6387 9.78125C13.6369 9.78261 13.6338 9.78261 13.6328 9.78307C13.6369 9.79035 13.6426 9.79511 13.6488 9.80102L13.6501 9.79853" fill="black"/>
<path d="M13.6894 9.60473C13.6582 9.6529 13.6061 9.68087 13.5658 9.65542C13.5161 9.6211 13.5319 9.59337 13.58 9.51748L13.5319 9.48112C13.4877 9.55087 13.4669 9.58748 13.4162 9.55087C13.3838 9.52884 13.3639 9.45748 13.413 9.43295L13.3781 9.40953C13.4263 9.39521 13.5001 9.36727 13.5465 9.36159C13.5887 9.35727 13.6418 9.38524 13.6785 9.41999C13.7236 9.46203 13.7249 9.54519 13.6894 9.60473ZM13.5998 9.21161C13.6148 9.2232 13.6314 9.25387 13.6262 9.27297C13.6083 9.2748 13.5887 9.28547 13.5727 9.28773C13.5581 9.28978 13.5415 9.29524 13.5258 9.29819C13.5386 9.28978 13.5431 9.27048 13.5439 9.25048C13.5439 9.24115 13.5258 9.19662 13.5161 9.20616C13.541 9.18343 13.5899 9.2023 13.5998 9.21161ZM13.8892 9.35683C13.8153 9.29614 13.7533 9.28251 13.693 9.28433C13.693 9.23048 13.6618 9.18752 13.6106 9.15731C13.5552 9.12459 13.4946 9.1405 13.4549 9.17912C13.4152 9.21798 13.4162 9.29274 13.4691 9.31683C13.4506 9.32022 13.4172 9.33547 13.3933 9.34274C13.3728 9.34886 13.3479 9.35295 13.3276 9.36159L13.3155 9.41182L13.3503 9.4375C13.3169 9.45043 13.236 9.55542 13.3339 9.63768C13.3838 9.68041 13.4521 9.67972 13.4573 9.6427C13.45 9.69085 13.4689 9.74108 13.5072 9.76699C13.5605 9.80175 13.5939 9.79311 13.6331 9.7838C13.6331 9.78334 13.6321 9.78334 13.6314 9.78198C13.6799 9.76972 13.7322 9.71949 13.7603 9.65995C13.7865 9.60678 13.7883 9.57064 13.7822 9.51226C13.7747 9.45408 13.7322 9.41159 13.691 9.37773C13.762 9.4075 13.8594 9.46611 13.8779 9.55087C13.8976 9.63586 13.8718 9.71085 13.8222 9.77221C13.7786 9.82653 13.6971 9.83514 13.6503 9.80334C13.6503 9.80244 13.6495 9.80175 13.6495 9.80175L13.6418 9.80789C13.5899 9.81288 13.5441 9.85242 13.5291 9.88491C13.4912 9.95535 13.5052 10.0335 13.5581 10.0869C13.6351 10.1635 13.7429 10.1456 13.8043 10.0501L13.7583 10.0038C13.7249 10.0501 13.6598 10.0617 13.6241 10.0242C13.5858 9.98604 13.5858 9.91877 13.6179 9.88129L13.7016 9.88491C13.7089 9.88697 13.7162 9.88787 13.7233 9.88856C13.8343 9.89514 13.8943 9.83175 13.9567 9.72812C14.0325 9.60064 14.0017 9.45043 13.8892 9.35683Z" fill="black"/>
<path d="M14.2747 9.71405C14.3608 9.70814 14.4305 9.74518 14.4879 9.82267C14.5337 9.88766 14.5584 9.96357 14.5449 10.0381C14.5337 10.1033 14.4936 10.169 14.4413 10.2138C14.3405 10.3008 14.2052 10.3024 14.1109 10.1806C14.0756 10.1378 14.045 10.0892 14.0347 10.0376C14.025 9.99082 14.0296 9.94334 14.0667 9.90652C14.1083 9.8638 14.1456 9.88652 14.1796 9.93038L14.3 10.0879C14.3768 10.0211 14.3805 9.92244 14.3237 9.83632C14.2801 9.77405 14.2062 9.70246 14.1504 9.74452C14.1269 9.76359 14.1281 9.78678 14.145 9.82609C14.0923 9.79858 14.0531 9.8029 14.0007 9.84676C13.8701 9.95424 13.8955 10.1242 14.0112 10.2735C14.1346 10.4364 14.3361 10.4183 14.477 10.2937C14.5475 10.2303 14.5974 10.1392 14.6089 10.0454C14.6202 9.95424 14.5955 9.862 14.5351 9.7829C14.4549 9.6786 14.3405 9.62544 14.2317 9.65793C14.2315 9.65793 14.2747 9.71405 14.2747 9.71405ZM14.2911 9.99902L14.2035 9.87789C14.2177 9.87449 14.2303 9.86585 14.2386 9.84994C14.2453 9.83904 14.2406 9.82539 14.2406 9.81246C14.27 9.8329 14.3118 9.9047 14.3106 9.94789C14.3091 9.97221 14.3065 9.97879 14.2911 9.99902Z" fill="black"/>
<path d="M9.15773 11.556C9.1557 11.5794 9.15166 11.5964 9.14173 11.6015C9.13362 11.6092 9.12106 11.6117 9.10566 11.611C9.08903 11.6106 9.07769 11.6042 9.06977 11.5969C9.06106 11.588 9.05681 11.5721 9.06004 11.5494L9.06268 11.5008L9.16078 11.5085L9.15773 11.556ZM8.93824 11.5474C8.93681 11.5737 8.93743 11.5924 8.94027 11.604C8.94249 11.6151 8.94838 11.6258 8.95586 11.6369C8.96358 11.6494 8.97147 11.6583 8.97937 11.6637C8.99094 11.673 9.00533 11.6808 9.02358 11.6873C9.04141 11.6924 9.06106 11.6962 9.08355 11.6983C9.11415 11.6996 9.14071 11.6962 9.16281 11.6873C9.18369 11.6787 9.19868 11.6658 9.20739 11.6494C9.23374 11.6801 9.26963 11.6973 9.3136 11.6996C9.36041 11.703 9.3969 11.6924 9.42164 11.668C9.44249 11.6494 9.45344 11.6187 9.45669 11.5778L9.46866 11.4099L8.95081 11.377C8.95101 11.377 8.93824 11.5474 8.93824 11.5474ZM9.34238 11.5597C9.34178 11.5758 9.33954 11.5876 9.33711 11.5933C9.33427 11.5994 9.329 11.6042 9.32009 11.6083C9.31238 11.6117 9.30367 11.6135 9.29353 11.6128C9.27914 11.6117 9.26799 11.6083 9.2609 11.5994C9.25339 11.5924 9.25016 11.5781 9.25057 11.5597L9.2536 11.5153L9.34522 11.5219" fill="black"/>
<path d="M8.90723 11.8736L8.97513 11.8886V12.0061L8.90723 12.0197V12.1391L9.42589 12.0111V11.8891L8.90824 11.7568L8.90723 11.8736ZM9.08233 11.9861V11.9107L9.27083 11.9486" fill="black"/>
<path d="M8.9209 12.2264L9.43732 12.1748L9.44665 12.2861L9.18053 12.4377L9.45739 12.4095L9.46792 12.5247L8.95108 12.5754L8.94115 12.4618L9.20039 12.3139L8.93083 12.3402" fill="black"/>
<path d="M8.98828 12.6981L9.49172 12.5654L9.51828 12.6772L9.35209 12.7213L9.542 12.782L9.57362 12.9188L9.3535 12.8385L9.07117 13.0642L9.04015 12.9258L9.22094 12.7881L9.1711 12.7681L9.0138 12.8099" fill="black"/>
<path d="M9.3622 13.5848C9.39747 13.5984 9.43638 13.6012 9.47934 13.5932C9.5219 13.5855 9.5671 13.5696 9.61292 13.5451C9.66075 13.518 9.69987 13.4887 9.72987 13.4548C9.76026 13.421 9.7783 13.3846 9.785 13.3478C9.79065 13.311 9.7862 13.2751 9.77223 13.2437C9.76433 13.2265 9.75419 13.2121 9.74142 13.1994C9.72844 13.1874 9.71282 13.1772 9.69724 13.1696C9.6798 13.1624 9.66054 13.1576 9.63583 13.156C9.61008 13.1535 9.58151 13.1576 9.55049 13.1649C9.51948 13.1733 9.48603 13.1862 9.44996 13.2058C9.37638 13.2467 9.32389 13.2935 9.29389 13.3492C9.2637 13.4035 9.26045 13.4566 9.28437 13.5096C9.3022 13.546 9.32834 13.5714 9.3622 13.5848ZM9.40599 13.3871C9.42361 13.3596 9.45523 13.3346 9.49821 13.3114C9.52677 13.2962 9.55474 13.2858 9.57603 13.2812C9.59811 13.2769 9.61758 13.2769 9.63135 13.2828C9.64636 13.2871 9.65486 13.2962 9.66054 13.3078C9.66562 13.3176 9.66661 13.3289 9.66236 13.3401C9.66075 13.3532 9.65506 13.3644 9.64758 13.3739C9.64008 13.3839 9.62853 13.3953 9.61232 13.4073C9.59811 13.4198 9.58028 13.431 9.55961 13.4421C9.53084 13.4566 9.50467 13.4675 9.48035 13.4728C9.45848 13.4775 9.43982 13.4775 9.42726 13.4716C9.41389 13.4673 9.40435 13.4575 9.39767 13.4455C9.39017 13.4285 9.3928 13.4073 9.40599 13.3871Z" fill="black"/>
<path d="M9.42773 13.7689L9.86369 13.4648L10.0062 13.7012L9.89854 13.7764L9.81526 13.6387L9.74513 13.6864L9.81201 13.798L9.70783 13.8711L9.64136 13.7596L9.48753 13.868" fill="black"/>
<path d="M10.218 14.2391L10.142 14.1623C10.1584 14.1403 10.1681 14.1201 10.1701 14.1017C10.1724 14.0823 10.1687 14.0674 10.1572 14.056C10.1424 14.0419 10.1231 14.0392 10.0982 14.0476C10.0719 14.058 10.0439 14.083 10.006 14.1237C9.98063 14.1521 9.96564 14.176 9.95652 14.1939C9.9468 14.2123 9.94294 14.2298 9.94294 14.2432C9.94437 14.2573 9.94943 14.2701 9.95978 14.2796C9.97172 14.293 9.98754 14.2969 10.004 14.293C10.0218 14.2891 10.041 14.2771 10.0607 14.2559L10.1389 14.3339C10.115 14.3578 10.0937 14.3762 10.0731 14.388C10.055 14.4014 10.0329 14.4096 10.0062 14.4173C9.98084 14.4241 9.95774 14.4259 9.93463 14.4202C9.91192 14.4148 9.89227 14.4034 9.87343 14.3855C9.85518 14.3653 9.84139 14.3437 9.8335 14.3187C9.8256 14.2935 9.82296 14.2664 9.82721 14.2391C9.83188 14.2103 9.83957 14.1832 9.85377 14.1553C9.87139 14.1164 9.89553 14.0783 9.92835 14.0408C9.95652 14.0096 9.9849 13.9824 10.0149 13.9624C10.0455 13.9403 10.0722 13.9262 10.1002 13.9185C10.1278 13.9108 10.1513 13.9094 10.173 13.9131C10.1999 13.9185 10.2237 13.9299 10.2447 13.951C10.2613 13.9699 10.2745 13.991 10.283 14.0155C10.291 14.0396 10.2919 14.0664 10.2877 14.0933C10.283 14.1201 10.2745 14.1478 10.2597 14.1748C10.2496 14.1939 10.2364 14.215 10.218 14.2391Z" fill="black"/>
<path d="M10.0654 14.547L10.3871 14.1084L10.6027 14.2913L10.5263 14.3956L10.3954 14.282L10.3502 14.3445L10.4619 14.4395L10.3881 14.539L10.2772 14.444L10.2272 14.5133L10.3646 14.6295L10.2859 14.7342" fill="black"/>
<path d="M10.6158 14.2979L10.7224 14.3674L10.6808 14.5601L10.8197 14.4292L10.9252 14.4987L10.649 14.7303L10.5503 14.9082L10.4561 14.8462L10.5537 14.6714" fill="black"/>
<path d="M10.7529 15.014L10.9402 14.4932L11.043 14.5361L10.9045 14.921L11.0466 14.9801L10.9972 15.1172" fill="black"/>
<path d="M11.3538 15.1919C11.3854 15.1714 11.4138 15.1414 11.4365 15.1017C11.4584 15.0612 11.4763 15.0142 11.4872 14.9594C11.5016 14.9054 11.5044 14.8535 11.5002 14.8067C11.4959 14.7611 11.4819 14.722 11.4602 14.6929C11.4379 14.6631 11.4116 14.6438 11.3786 14.6352C11.3607 14.6306 11.3445 14.6295 11.3275 14.6327C11.3111 14.6352 11.2939 14.6404 11.277 14.6486C11.261 14.6568 11.2454 14.6713 11.2274 14.6913C11.2105 14.7102 11.1937 14.7361 11.1797 14.767C11.1643 14.7974 11.1532 14.8331 11.1432 14.8756C11.123 14.961 11.123 15.0351 11.1422 15.0965C11.1617 15.156 11.1982 15.1937 11.2501 15.2062C11.2868 15.2167 11.3224 15.2114 11.3538 15.1919ZM11.2436 15.0285C11.2359 14.9963 11.2381 14.9544 11.2495 14.9035C11.257 14.8697 11.2665 14.841 11.278 14.8217C11.289 14.7988 11.3007 14.784 11.3141 14.7758C11.3275 14.7679 11.339 14.7651 11.351 14.7679C11.3619 14.7713 11.3705 14.7772 11.3767 14.7874C11.3828 14.7974 11.3875 14.8097 11.3899 14.8233C11.3917 14.836 11.3923 14.8517 11.3911 14.8713C11.3899 14.8919 11.3854 14.9138 11.3808 14.939C11.3727 14.9717 11.3632 15.0001 11.3516 15.0215C11.3407 15.0449 11.3289 15.0585 11.3161 15.0665C11.304 15.0737 11.2916 15.0753 11.2793 15.0735C11.261 15.0681 11.2495 15.0528 11.2436 15.0285Z" fill="black"/>
<path d="M11.5312 15.2565L11.5817 14.7012L11.6843 14.7112L11.7737 15.0211L11.801 14.7232L11.9064 14.7341L11.8555 15.2908L11.7501 15.2793L11.6634 14.9768L11.637 15.2679" fill="black"/>
<path d="M12.4732 15.3207C12.5004 15.3495 12.5328 15.3772 12.5644 15.3993C12.4878 15.4461 12.4169 15.4206 12.4732 15.3207ZM12.6883 15.2177C12.6747 15.2707 12.6518 15.3147 12.6254 15.3468C12.5926 15.3282 12.5551 15.3 12.5198 15.2609C12.5707 15.2134 12.6338 15.2041 12.6883 15.2177ZM12.7677 15.2589C12.7918 15.2811 12.8018 15.31 12.79 15.3331C12.776 15.3604 12.7471 15.3752 12.7094 15.3727C12.7335 15.3404 12.7527 15.3031 12.7677 15.2589ZM12.5505 14.9625C12.5255 14.9678 12.5002 14.9446 12.4943 14.911C12.4878 14.8773 12.5036 14.8444 12.5286 14.8387C12.5539 14.8341 12.5801 14.8573 12.5853 14.891C12.5926 14.9248 12.5772 14.9566 12.5505 14.9625ZM12.5618 14.6487C12.6905 14.6589 12.7985 14.6119 12.8756 15.2134L12.9572 15.2059C12.9572 15.2059 12.9293 14.4887 12.5417 14.5562C12.1538 14.6217 12.2787 15.0739 12.3612 15.1904C12.3768 15.2107 12.3952 15.2354 12.4171 15.2609C12.3125 15.4697 12.4848 15.5683 12.5874 15.4945C12.606 15.4806 12.6269 15.4643 12.6455 15.4449C12.7195 15.4765 12.7906 15.4727 12.8492 15.4004C12.8999 15.3361 12.8756 15.238 12.7906 15.1684C12.7955 15.1316 12.79 15.0877 12.787 15.043C12.7744 14.8269 12.6281 14.7162 12.5235 14.7421C12.5203 14.7426 12.5156 14.7437 12.5111 14.7439C12.4461 14.7585 12.4072 14.8387 12.4234 14.9257C12.4378 15.0125 12.5044 15.0716 12.5687 15.0575C12.623 15.0464 12.6575 14.9782 12.6587 14.9087C12.6826 14.9371 12.7266 15.0032 12.7152 15.1232C12.6376 15.1091 12.5255 15.1362 12.4633 15.197C12.4447 15.1707 12.4242 15.1416 12.4057 15.1091C12.2438 14.8387 12.4363 14.6396 12.5618 14.6487Z" fill="black"/>
<path d="M13.0869 14.9115C13.0989 14.9038 13.1214 14.9174 13.1362 14.9443C13.151 14.9695 13.1534 14.9981 13.1411 15.0058C13.1289 15.0131 13.108 14.9997 13.0922 14.9738C13.077 14.9477 13.0746 14.9199 13.0869 14.9115ZM13.4607 14.8531C13.4442 14.6002 13.2521 14.5625 13.2521 14.5625L13.2493 14.6593C13.2918 14.6593 13.3259 14.6964 13.3634 14.7829C13.4013 14.8697 13.3538 15.0261 13.2841 14.8175C13.2106 14.605 13.0101 14.6293 12.9779 14.7527C12.9538 14.8522 12.9878 14.9299 13.0184 14.9738C13.0225 14.9861 13.0278 14.9988 13.0348 15.0115C13.0766 15.0824 13.1453 15.1167 13.1915 15.087C13.2355 15.0574 13.2371 14.9745 13.197 14.9038C13.1589 14.8377 13.0965 14.8036 13.0525 14.8222C13.035 14.7518 13.1378 14.7091 13.1848 14.7891C13.2179 14.8481 13.2551 15.0061 13.3538 15.0131C13.4698 15.0202 13.4607 14.8531 13.4607 14.8531Z" fill="black"/>
<path d="M14.1996 14.0422C14.2084 14.0318 14.2396 14.0443 14.2674 14.0727C14.2945 14.1004 14.3103 14.1311 14.3002 14.1443C14.2899 14.1558 14.259 14.1429 14.2313 14.1145C14.2037 14.0874 14.1889 14.0545 14.1996 14.0422ZM14.0578 14.2486C14.0776 14.2267 14.1127 14.2295 14.1395 14.2558C14.1662 14.2817 14.1727 14.3222 14.1553 14.3429C14.1348 14.3647 14.0975 14.3606 14.0726 14.3358C14.0458 14.3088 14.0389 14.2699 14.0578 14.2486ZM14.4236 13.8916C14.3235 13.7911 14.1899 13.7698 14.1265 13.8443C14.1022 13.8718 14.0922 13.9091 14.0938 13.95H14.091C14.043 13.9565 13.9988 13.9777 13.9653 14.0172C13.8841 14.1115 13.9015 14.2686 14.0026 14.3699C14.0225 14.3885 14.0448 14.4056 14.0675 14.4172L14.0695 14.4194C14.1228 14.4497 14.1838 14.4458 14.2175 14.4056C14.2611 14.3551 14.2453 14.2658 14.1855 14.2038C14.1279 14.1488 14.0531 14.137 14.0085 14.1729H14.0035C14.0043 14.1411 14.016 14.1106 14.0361 14.0868C14.0543 14.0645 14.0784 14.0511 14.105 14.0468H14.1054C14.1162 14.0868 14.1427 14.1311 14.1838 14.1711C14.2566 14.2463 14.3466 14.2699 14.3829 14.2267C14.4198 14.1831 14.3898 14.0897 14.3164 14.0161C14.2722 13.9727 14.2228 13.9463 14.1838 13.9413L14.1853 13.9386C14.1865 13.9286 14.1897 13.9195 14.1962 13.9136C14.2284 13.875 14.3144 13.9034 14.3865 13.9765C14.4335 14.0218 14.4623 14.0727 14.4711 14.1145L14.5195 14.0583C14.5057 14.0013 14.4739 13.9413 14.4236 13.8916Z" fill="black"/>
<path d="M13.579 14.2823C13.6029 14.2637 13.6037 14.2194 13.5802 14.1835C13.5567 14.1494 13.5178 14.1376 13.4914 14.1564C13.4686 14.1762 13.4671 14.2207 13.4906 14.2564C13.5139 14.2905 13.5541 14.3023 13.579 14.2823Z" fill="black"/>
<path d="M13.7267 14.6847L13.6762 14.7366L13.7319 14.8134L14.0272 14.5927L13.7792 14.2109L13.7176 14.2614L13.9129 14.5527L13.8282 14.6191L13.8213 14.6254C13.827 14.5923 13.8171 14.5425 13.794 14.5095C13.7552 14.4509 13.6892 14.4298 13.6491 14.4629C13.6415 14.4684 13.6377 14.4745 13.6328 14.4818C13.6166 14.4766 13.6014 14.4723 13.6014 14.4723L13.6399 14.4348L13.5872 14.3555L13.3906 14.5095L13.6377 14.8842L13.6985 14.8365L13.5124 14.5457L13.5307 14.5257L13.6533 14.7129L13.6977 14.6741L13.7176 14.6561C13.6578 14.5791 13.6799 14.5225 13.7224 14.5566C13.7658 14.5895 13.7382 14.6727 13.7382 14.6727" fill="black"/>
<path d="M14.62 13.7199C14.5763 13.7863 14.5475 13.762 14.528 13.7399L14.5953 13.6297C14.5955 13.6297 14.6618 13.6554 14.62 13.7199ZM14.4889 13.6172L14.4165 13.5645L14.4397 13.5293L14.5112 13.5806L14.4889 13.6172ZM14.7277 13.4241C14.6028 13.3479 14.5534 13.5075 14.5534 13.5075L14.4765 13.4618L14.5185 13.3861L14.4405 13.3389L14.2998 13.5927L14.4461 13.6868C14.387 13.8117 14.5902 13.9176 14.6863 13.7813C14.7958 13.6252 14.634 13.5554 14.634 13.5554C14.6393 13.5461 14.6618 13.4729 14.7038 13.4982C14.7441 13.5215 14.695 13.5538 14.695 13.5538L14.7562 13.6209C14.8146 13.5911 14.8509 13.4997 14.7277 13.4241Z" fill="black"/>
<path d="M14.8273 12.9505C14.8285 12.9357 14.8536 12.9262 14.8816 12.93C14.9085 12.9332 14.9306 12.948 14.9296 12.963C14.9278 12.9798 14.9027 12.9896 14.8755 12.985C14.8471 12.9827 14.8261 12.9671 14.8273 12.9505ZM14.9639 12.8812L15.048 12.9009L15.1224 12.6019L14.7047 12.4883L14.6836 12.5728L15.0083 12.6621L14.9791 12.7598C14.9529 12.7405 14.8828 12.7135 14.8828 12.7135C14.6799 12.6444 14.5851 12.8103 14.6353 12.9421C14.6592 13.0034 14.7474 13.0561 14.8664 13.0689C14.9468 13.0777 15.0066 13.0398 15.0143 12.9809C15.0202 12.9205 14.9706 12.8625 14.8895 12.855C14.8153 12.8482 14.7717 12.8923 14.7565 12.9441C14.6921 12.9173 14.6909 12.7916 14.7962 12.7866C14.926 12.7803 14.9639 12.8812 14.9639 12.8812Z" fill="black"/>
<path d="M14.6031 12.084C14.562 12.0831 14.5283 12.1086 14.5283 12.1431C14.5273 12.1754 14.5587 12.204 14.5993 12.204C14.6398 12.2067 14.6728 12.1801 14.6728 12.1481C14.6751 12.1135 14.6434 12.0858 14.6031 12.084Z" fill="black"/>
<path d="M14.962 12.1913C15.0137 12.1752 15.0577 12.2513 15.0577 12.2513L15.0585 12.2697L15.0646 12.3422H15.1564L15.1767 11.9568L14.7454 11.9307L14.7446 12.0147L15.0765 12.0286L15.0737 12.142V12.1504C15.0544 12.1259 15.0119 12.1043 14.9726 12.1011C14.9051 12.0995 14.8503 12.1424 14.8475 12.1965C14.8475 12.2063 14.8485 12.2145 14.8514 12.2231C14.8402 12.232 14.8264 12.2424 14.8264 12.2424L14.8226 12.1886L14.7314 12.1822L14.7227 12.4435L15.1477 12.4678L15.1519 12.3867L14.8246 12.364L14.8206 12.336L15.0338 12.3469L15.0321 12.287L15.0309 12.2595C14.9385 12.2615 14.9109 12.2086 14.962 12.1913Z" fill="black"/>
<path d="M15.0143 11.7965L15.0149 11.664C15.0149 11.664 15.0844 11.6481 15.0811 11.7265C15.0763 11.8058 15.0404 11.8024 15.0143 11.7965ZM14.8312 11.712L14.8326 11.6681L14.9184 11.6704L14.919 11.7156L14.8312 11.712ZM15.0112 11.5797C15.0106 11.5692 14.9934 11.4936 15.0404 11.4913C15.0862 11.4886 15.0621 11.5433 15.0621 11.5433L15.1468 11.5654C15.1808 11.5045 15.1663 11.4061 15.0232 11.4145C14.8815 11.4222 14.92 11.5847 14.92 11.5847L14.8302 11.5915L14.8286 11.5029L14.7406 11.5079L14.7423 11.5815C14.6782 11.5847 14.6227 11.5756 14.6152 11.5347C14.6083 11.4884 14.6557 11.4615 14.7222 11.4408C14.7889 11.4199 15.15 11.3522 15.15 11.3522L15.1391 11.2725C14.6417 11.3536 14.5136 11.3929 14.5156 11.5488C14.5169 11.6838 14.6956 11.6697 14.7463 11.6658L14.7467 11.801L14.9176 11.7976C14.9299 11.9385 15.1529 11.9108 15.1661 11.7397C15.1821 11.5449 15.0112 11.5797 15.0112 11.5797Z" fill="black"/>
<path d="M10.6039 11.9368C10.5122 11.5501 10.4298 10.9254 10.7368 10.6182L10.7498 10.8824L10.7464 11.2999L10.7413 11.8818L10.8114 11.8548C10.8114 11.8548 10.8592 11.8861 10.8639 11.9218C10.8688 11.9577 10.8163 12.0545 10.8163 12.0545L10.7603 12.0952L10.7875 12.1366H10.8497L10.9255 12.1561L11.025 12.2477L11.067 12.3245L11.0577 12.2222C11.0575 11.8829 11.1294 11.8552 11.337 11.713L11.3842 11.6259L11.3327 11.5798L11.2802 11.6014L11.2091 11.5798L11.1572 11.5701L11.1093 11.6112L11.0577 11.5301L11.0392 11.4387L11.067 11.393L11.0439 11.3156L11.0812 11.2999L11.2042 11.3608L11.3173 11.393L11.4028 11.418L11.3741 11.3367C11.3741 11.3367 11.3096 11.1229 11.2226 11.239C11.2226 11.239 11.1474 11.1585 11.1142 11.229C11.1142 11.229 10.9347 11.0411 11.0668 10.8933C11.0668 10.8933 11.0812 10.9849 11.2042 10.9751C11.327 10.9651 11.4638 10.9495 11.4638 10.9495C11.4638 10.9495 11.5068 10.8268 11.4734 10.7761C11.4734 10.7761 11.5828 10.8324 11.5923 10.8574C11.5923 10.8574 11.5968 10.765 11.6584 10.7256C11.6584 10.7256 11.7946 10.765 11.8183 10.8681C11.8183 10.8681 11.9604 10.812 11.9657 10.7559C11.9657 10.7559 12.0512 10.8933 12.0176 11.0208C12.0176 11.0208 12.1211 11.1631 12.0556 11.4074C12.0556 11.4074 12.0926 11.5301 12.0644 11.6466C12.0644 11.6466 12.0887 11.7989 12.0413 11.8362L12.1588 11.8046C12.1588 11.8046 12.2488 11.7846 12.3814 11.7487C12.5143 11.713 12.7271 11.5848 13.2129 11.7284C13.2129 11.7284 13.2991 11.5648 13.2758 11.5096C13.2515 11.4537 13.2559 11.3671 13.0488 11.331C13.0488 11.331 12.6416 11.3253 12.5759 11.3253C12.509 11.3253 12.2725 11.3156 12.1884 11.3419C12.1884 11.3419 12.2204 11.2144 12.1833 11.1126C12.1454 11.0104 12.1643 10.7909 12.2539 10.7313C12.3437 10.6695 12.5648 10.6182 12.7792 10.69C12.992 10.7609 13.0855 10.9295 13.0855 10.9295C13.0855 10.9295 13.233 11.2247 13.3269 11.076C13.3269 11.076 13.2794 10.9806 13.3597 10.9806C13.4404 10.9806 13.455 11.0554 13.4355 11.1229C13.4171 11.1885 13.233 11.413 13.0682 11.071L12.9864 11.1524C12.9864 11.1524 12.8919 11.1329 12.8682 11.0147L12.7456 11.0613L12.7411 10.9597L12.6136 11.052L12.5899 10.8986C12.5899 10.8986 12.5042 10.9545 12.5042 11.0006L12.4002 10.8681C12.4002 10.8681 12.3672 10.7761 12.2723 10.9545C12.2723 10.9545 12.4197 10.9849 12.4095 11.1272C12.4095 11.1272 12.5559 11.0863 12.6136 11.229C12.6136 11.229 12.882 11.1685 13.1335 11.2347C13.3836 11.2999 13.5918 11.5096 13.3317 11.8502C13.3317 11.8502 13.4882 12.085 13.3938 12.2938C13.2989 12.5026 13.1274 12.859 13.3595 12.9096C13.3595 12.9096 13.2989 12.9969 13.3554 13.0928C13.4128 13.1902 13.4217 13.3582 13.379 13.3936C13.379 13.3936 13.2896 13.3677 13.2559 13.3025C13.2559 13.3025 13.1066 13.3439 13.0907 13.3639L13.0727 13.2609C13.0727 13.2609 12.9584 13.3275 12.8684 13.3173C12.8684 13.3173 12.8451 13.2209 13.0153 13.1184C13.0153 13.1184 13.0567 12.853 12.9586 12.6758L12.8548 12.5435L12.872 12.5933C12.872 12.5933 12.7413 12.833 12.8871 12.9757C12.8871 12.9757 12.8356 13.0066 12.8123 13.1184C12.7887 13.2311 12.7731 13.3677 12.7458 13.378C12.7458 13.378 12.7036 13.378 12.6978 13.3075C12.6978 13.3075 12.584 13.3986 12.5703 13.3986C12.5703 13.3986 12.5299 13.3348 12.5267 13.268C12.5267 13.268 12.4213 13.3902 12.367 13.3793C12.367 13.3793 12.3297 13.185 12.4434 13.1232C12.5561 13.0632 12.5986 13.0782 12.5986 13.0782C12.5986 13.0782 12.6459 12.8742 12.594 12.7724C12.5421 12.6699 12.4294 12.5231 12.3437 12.5281C12.3437 12.5281 12.1833 12.6699 11.9703 12.6758C11.7577 12.6803 11.7342 12.6803 11.7342 12.6803C11.7342 12.6803 11.5682 12.8728 11.7577 13.0135L11.6495 13.13C11.6495 13.13 11.6973 13.385 11.4886 13.4554L11.4746 13.3448L11.356 13.4452C11.356 13.4452 11.3327 13.3732 11.3457 13.3218L11.1756 13.4339C11.1756 13.4339 11.1474 13.2823 11.185 13.2146C11.2226 13.1493 11.3805 13.1073 11.4168 13.1198C11.4168 13.1198 11.4363 13.0169 11.4168 12.9455C11.3982 12.8742 11.3645 12.7774 11.3645 12.7774L11.337 12.7421C11.337 12.7421 11.1993 12.7056 11.185 12.6494C11.185 12.6494 11.202 12.7612 11.1671 12.7744C11.1671 12.7744 11.0335 12.7542 10.9916 12.6699C10.9509 12.5863 10.9399 12.4665 10.8262 12.4665C10.8262 12.4665 10.6843 12.5088 10.7978 12.5538C10.9111 12.599 10.7695 12.7115 10.7695 12.7115L10.8986 12.7501C10.8986 12.7501 10.9401 12.8783 10.8303 12.8937H10.7642L10.8072 12.9557C10.8072 12.9557 10.7125 13.0528 10.7125 13.1184C10.7125 13.1184 10.6132 13.0164 10.5779 12.9989L10.6012 12.906C10.6012 12.906 10.4857 12.9414 10.4667 12.8692C10.4488 12.7985 10.4488 12.7524 10.5281 12.7365C10.6083 12.7215 10.5708 12.7012 10.5378 12.691C10.5046 12.6803 10.4294 12.6303 10.5451 12.5915C10.6604 12.5538 10.5431 12.5285 10.5307 12.5154C10.5187 12.5026 10.4486 12.4313 10.5943 12.3799L10.5686 12.3024C10.5686 12.3024 10.4806 12.2884 10.4859 12.2222C10.491 12.1561 10.5431 12.0997 10.5431 12.0997C10.5431 12.0997 10.4711 12.0643 10.4758 12.0136C10.4806 11.9634 10.5309 11.9259 10.5309 11.9259" fill="#FDC60D"/>
<path d="M19.8968 14.0476C18.8496 14.0476 18.0016 13.1316 18.0016 12.0011C18.0016 10.8711 18.8496 9.95485 19.8968 9.95485H21.4668L21.4684 8.07422C21.4684 8.07422 19.8968 8.07854 19.8968 8.07535C17.8883 8.07535 16.2607 9.83282 16.2607 12.0011C16.2607 14.1692 17.8883 15.9264 19.8968 15.9264L21.4668 15.9262V14.0476" fill="#FDC60D"/>
</g>
</g>
</g>
<defs>
<filter id="filter0_d_3396_58288" x="-6" y="-5" width="36" height="36" filterUnits="userSpaceOnUse" color-interpolation-filters="sRGB">
<feFlood flood-opacity="0" result="BackgroundImageFix"/>
<feColorMatrix in="SourceAlpha" type="matrix" values="0 0 0 0 0 0 0 0 0 0 0 0 0 0 0 0 0 0 127 0" result="hardAlpha"/>
<feOffset dy="1"/>
<feGaussianBlur stdDeviation="3"/>
<feComposite in2="hardAlpha" operator="out"/>
<feColorMatrix type="matrix" values="0 0 0 0 0 0 0 0 0 0 0 0 0 0 0 0 0 0 0.08 0"/>
<feBlend mode="normal" in2="BackgroundImageFix" result="effect1_dropShadow_3396_58288"/>
<feBlend mode="normal" in="SourceGraphic" in2="effect1_dropShadow_3396_58288" result="shape"/>
</filter>
<clipPath id="clip0_3396_58288">
<rect width="24" height="24" fill="white"/>
</clipPath>
<clipPath id="clip1_3396_58288">
<path d="M0 12C0 5.37258 5.37258 0 12 0C18.6274 0 24 5.37258 24 12C24 18.6274 18.6274 24 12 24C5.37258 24 0 18.6274 0 12Z" fill="white"/>
</clipPath>
</defs>
</svg>
