<svg width="40" height="40" viewBox="0 0 40 40" fill="none" xmlns="http://www.w3.org/2000/svg">
<g clip-path="url(#clip0_3272_5147)">
<g clip-path="url(#clip1_3272_5147)">
<g filter="url(#filter0_d_3272_5147)">
<path d="M0.625 20C0.625 9.29948 9.29948 0.625 20 0.625C30.7005 0.625 39.375 9.29948 39.375 20C39.375 30.7005 30.7005 39.375 20 39.375C9.29948 39.375 0.625 30.7005 0.625 20Z" fill="currentColor"/>
<path fill-rule="evenodd" clip-rule="evenodd" d="M14.2554 19.5036C14.2554 18.6151 14.2554 17.7265 14.2554 16.8379C16.8524 16.8532 19.4416 16.8379 22.0231 16.792C22.6726 16.6631 23.0097 16.2647 23.0343 15.597C23.0184 15.3811 22.9495 15.1819 22.8274 14.9995C21.4856 13.6119 20.1297 12.2408 18.7597 10.8861C17.9853 10.5648 17.426 10.7869 17.0821 11.5525C16.9866 11.9838 17.0785 12.3668 17.3579 12.7015C17.9417 13.293 18.5315 13.8751 19.1274 14.448C17.4959 14.4939 15.8566 14.5092 14.2094 14.494C14.2017 12.3491 14.2094 10.2043 14.2324 8.05959C14.3085 7.70777 14.5153 7.47034 14.8529 7.34721C17.3349 7.31655 19.8169 7.31655 22.2989 7.34721C24.7585 7.60178 26.4974 8.85038 27.5156 11.0929C28.2774 13.3427 28.1395 15.5335 27.1019 17.6652C26.2931 18.9774 25.121 19.7664 23.5858 20.0322C23.2059 20.1122 22.8228 20.1735 22.4367 20.216C19.9088 20.2467 17.3808 20.2467 14.8529 20.216C14.5111 20.0965 14.3119 19.859 14.2554 19.5036Z" fill="currentColor"/>
<path fill-rule="evenodd" clip-rule="evenodd" d="M27.3548 24.1453C24.7502 24.1759 22.1457 24.2065 19.5412 24.2372C18.8294 24.4185 18.5153 24.8781 18.5989 25.616C18.6358 25.7421 18.6818 25.8647 18.7368 25.9837C20.062 27.3395 21.3873 28.6953 22.7126 30.0511C23.3633 30.4589 23.9225 30.3593 24.3902 29.7524C24.6188 29.3106 24.6035 28.8817 24.3443 28.4655C23.7465 27.8141 23.126 27.186 22.4828 26.5811C24.2981 26.5352 26.1213 26.5199 27.9523 26.5352C28.1114 28.1373 27.8127 29.654 27.056 31.0852C26.2394 32.356 25.0827 33.1297 23.5859 33.4062C23.1875 33.473 22.7892 33.5343 22.3908 33.59C19.8935 33.6207 17.3962 33.6207 14.8989 33.59C14.5665 33.4568 14.3444 33.2193 14.2325 32.8776C14.2018 29.0323 14.2018 25.187 14.2325 21.3417C14.3447 21.061 14.5362 20.8541 14.807 20.7212C17.3503 20.6906 19.8935 20.6906 22.4368 20.7212C24.7043 20.9801 26.3436 22.1215 27.3548 24.1453Z" fill="currentColor"/>
</g>
</g>
</g>
<defs>
<filter id="filter0_d_3272_5147" x="-5.375" y="-4.375" width="50.75" height="50.75" filterUnits="userSpaceOnUse" color-interpolation-filters="sRGB">
<feFlood flood-opacity="0" result="BackgroundImageFix"/>
<feColorMatrix in="SourceAlpha" type="matrix" values="0 0 0 0 0 0 0 0 0 0 0 0 0 0 0 0 0 0 127 0" result="hardAlpha"/>
<feOffset dy="1"/>
<feGaussianBlur stdDeviation="3"/>
<feComposite in2="hardAlpha" operator="out"/>
<feColorMatrix type="matrix" values="0 0 0 0 0 0 0 0 0 0 0 0 0 0 0 0 0 0 0.08 0"/>
<feBlend mode="normal" in2="BackgroundImageFix" result="effect1_dropShadow_3272_5147"/>
<feBlend mode="normal" in="SourceGraphic" in2="effect1_dropShadow_3272_5147" result="shape"/>
</filter>
<clipPath id="clip0_3272_5147">
<rect width="40" height="40" fill="currentColor"/>
</clipPath>
<clipPath id="clip1_3272_5147">
<rect width="40" height="40" fill="currentColor"/>
</clipPath>
</defs>
</svg>
