<svg width="40" height="40" viewBox="0 0 40 40" fill="none" xmlns="http://www.w3.org/2000/svg">
<g clip-path="url(#clip0_3272_4848)">
<path fill-rule="evenodd" clip-rule="evenodd" d="M19.3041 2.0053C24.0076 1.89687 28.0901 3.45178 31.5517 6.67001C35.2151 10.2912 37.0006 14.7244 36.9086 19.9696C36.7586 23.8512 35.5032 27.2929 33.1419 30.2945C32.8114 30.038 32.4918 29.768 32.1832 29.4842C34.7546 26.146 35.9011 22.3418 35.623 18.0713C35.2005 13.6191 33.3471 9.94217 30.063 7.0404C26.7794 4.29682 23.0127 3.06216 18.7628 3.33642C13.9201 3.83551 10.0669 6.08491 7.2031 10.0846C4.85607 13.578 3.95385 17.4363 4.49645 21.6596C4.93073 24.6197 6.06227 27.2549 7.89104 29.5652C7.57621 29.819 7.26795 30.0813 6.96627 30.3523C6.94371 30.3679 6.92116 30.3679 6.8986 30.3523C4.58222 27.3966 3.31538 24.0127 3.09801 20.2011C2.94364 14.8398 4.74431 10.314 8.50004 6.62371C11.5582 3.77419 15.1595 2.23472 19.3041 2.0053Z" fill="#FEFEFE"/>
<path fill-rule="evenodd" clip-rule="evenodd" d="M19.2364 3.97639C23.8869 3.84178 27.8151 5.48542 31.0216 8.90732C34.0339 12.3643 35.3347 16.4155 34.9237 21.061C34.5867 24.0661 33.4966 26.736 31.6532 29.0709C31.5442 28.9743 31.435 28.878 31.3261 28.7815C33.7447 25.6412 34.8087 22.0646 34.5177 18.0515C34.0679 13.7592 32.2148 10.2674 28.9578 7.5762C25.6471 5.0077 21.9254 4.01225 17.7928 4.58987C13.6727 5.31879 10.4059 7.42158 7.9925 10.8982C5.68659 14.4481 4.94226 18.3219 5.75951 22.5195C6.27008 24.8752 7.25877 26.9858 8.72555 28.851C8.61699 28.9468 8.50798 29.0433 8.3985 29.1403C6.16641 26.3003 5.0349 23.044 5.00391 19.3711C5.07547 14.6684 6.81975 10.7676 10.2368 7.6688C12.8336 5.42639 15.8334 4.19558 19.2364 3.97639Z" fill="#FDFDFE"/>
<path fill-rule="evenodd" clip-rule="evenodd" d="M15.5587 6.93114C17.5211 6.92727 19.4834 6.93114 21.4457 6.94271C23.1205 7.07055 24.44 7.83063 25.4042 9.22298C25.9083 10.0502 26.1866 10.9531 26.2387 11.9315C26.3193 13.0063 26.1765 14.048 25.8102 15.0567C25.2486 16.4431 24.2525 17.3035 22.8216 17.638C22.4282 17.7326 22.0297 17.7943 21.6262 17.8232C20.6073 17.827 19.5887 17.8309 18.5699 17.8347C17.5127 17.8383 16.4564 17.8267 15.4009 17.8C15.1285 17.6902 14.9744 17.4857 14.9385 17.1865C14.9272 16.4458 14.9234 15.705 14.9272 14.9641C17.07 14.968 19.2128 14.9641 21.3555 14.9526C21.8745 14.8405 22.1452 14.5125 22.1675 13.9687C22.179 13.7923 22.1377 13.6303 22.0434 13.4826C21.9832 13.4054 21.9232 13.3282 21.863 13.2511C20.8367 12.1823 19.8104 11.1136 18.7842 10.0448C18.4242 9.77904 18.0483 9.75589 17.6564 9.97535C17.1937 10.3743 17.1148 10.8412 17.4196 11.3759C17.9264 11.9193 18.4414 12.4556 18.9646 12.9848C17.6188 12.9964 16.273 13.0003 14.9272 12.9964C14.9234 11.183 14.9272 9.36958 14.9385 7.55618C15.0092 7.20192 15.2159 6.99357 15.5587 6.93114Z" fill="#FEFEFE"/>
<path fill-rule="evenodd" clip-rule="evenodd" d="M15.47 18.2368C17.4775 18.2329 19.4849 18.2368 21.4923 18.2484C23.2149 18.393 24.5495 19.1994 25.4959 20.6675C25.5882 20.8338 25.6746 21.0034 25.7553 21.1768C23.6202 21.1961 21.4849 21.2076 19.3496 21.2116C18.7619 21.3407 18.48 21.7151 18.5038 22.3343C18.5329 22.4945 18.593 22.6411 18.6842 22.7742C19.7619 23.9266 20.8558 25.0646 21.966 26.1888C22.3508 26.4307 22.7268 26.4152 23.0938 26.1425C23.4585 25.7746 23.53 25.3542 23.3081 24.8808C23.263 24.819 23.2178 24.7574 23.1727 24.6956C22.6837 24.1977 22.1988 23.696 21.7179 23.1909C23.2214 23.1677 24.7252 23.1601 26.229 23.1677C26.3348 24.284 26.1882 25.3642 25.7892 26.4087C25.3865 27.4007 24.7137 28.1299 23.7704 28.5964C23.1565 28.8638 22.5175 29.0337 21.8532 29.1057C20.7446 29.1318 19.6356 29.1434 18.5263 29.1404C17.4912 29.1441 16.4574 29.1325 15.4249 29.1057C15.1604 28.9992 14.9988 28.8024 14.94 28.5154C14.9249 25.282 14.9249 22.0489 14.94 18.8155C15.0209 18.528 15.1976 18.3351 15.47 18.2368Z" fill="#FEFEFE"/>
<path fill-rule="evenodd" clip-rule="evenodd" d="M31.8787 30.3988C31.4657 29.593 30.8155 29.1841 29.9277 29.1719C29.6581 29.2406 29.41 29.3603 29.1833 29.5307C28.7938 29.9574 28.4255 30.4011 28.0781 30.8618C28.9591 31.6348 29.8539 32.3911 30.7622 33.1305C31.0214 32.815 31.2808 32.4987 31.5404 32.1814C31.9836 31.6512 32.0964 31.057 31.8787 30.3988ZM30.582 30.0374C30.3596 29.8999 30.119 29.8496 29.8603 29.8869C29.7536 29.9378 29.6482 29.9957 29.5445 30.0605C29.3557 30.2619 29.1753 30.4703 29.0032 30.6856L30.7399 32.1556C30.8516 32.0139 30.9682 31.875 31.0895 31.7389C31.3067 31.4646 31.3744 31.1558 31.2925 30.8129C31.1333 30.4798 30.8965 30.2212 30.582 30.0374Z" fill="#FDFDFE"/>
<path fill-rule="evenodd" clip-rule="evenodd" d="M11.24 29.5541C11.2013 29.487 11.1449 29.4562 11.0708 29.4615C10.0076 29.8641 8.93998 30.2614 7.86794 30.6537C7.798 30.6734 7.73784 30.7081 7.6875 30.7579C7.84509 30.966 8.01052 31.1665 8.18372 31.3598L8.9506 31.0589C9.22199 31.3885 9.48512 31.7242 9.74005 32.0659L9.31149 32.7835C9.45806 33.0111 9.62348 33.2232 9.80771 33.4202L11.7136 30.2486C11.7287 30.2178 11.7287 30.1868 11.7136 30.156C11.5472 29.962 11.3893 29.7615 11.24 29.5541ZM10.9798 30.2095C10.9664 30.1988 10.9513 30.1949 10.9347 30.1979C10.4795 30.4361 10.0134 30.6521 9.53622 30.8461C9.70862 31.0809 9.88529 31.3124 10.0663 31.5406C10.3514 31.0827 10.6559 30.6389 10.9798 30.2095Z" fill="#FDFDFE"/>
<path fill-rule="evenodd" clip-rule="evenodd" d="M27.469 31.3997C27.4915 31.3977 27.5102 31.4055 27.5254 31.4229C27.6145 31.5683 27.7121 31.7072 27.8186 31.8396C27.8337 31.8627 27.8337 31.8859 27.8186 31.909C27.3751 32.2371 26.9353 32.569 26.4991 32.9045C26.6516 33.1323 26.8094 33.3561 26.9728 33.5758C27.3921 33.27 27.8093 32.9614 28.2246 32.6498C28.3412 32.8158 28.4576 32.9816 28.5742 33.1476C28.1517 33.449 27.7383 33.7615 27.3336 34.0851C27.4872 34.3159 27.6451 34.5437 27.8073 34.7681C27.8391 34.7755 27.8691 34.7676 27.8975 34.7449C28.3168 34.4238 28.7415 34.1113 29.1719 33.8073C29.2998 33.9583 29.4162 34.1203 29.5215 34.2935C28.8812 34.7808 28.2347 35.2593 27.5817 35.7288C26.9051 34.7641 26.2284 33.7997 25.5518 32.835C26.1876 32.3507 26.8266 31.8722 27.469 31.3997Z" fill="#FDFDFE"/>
<path fill-rule="evenodd" clip-rule="evenodd" d="M12.9878 31.9443C13.6849 31.9605 14.2074 32.2768 14.5554 32.8935C14.7115 33.2653 14.6814 33.6202 14.4652 33.9584C14.2847 33.8195 14.1043 33.6806 13.9238 33.5417C13.9244 33.4857 13.9394 33.4317 13.969 33.3796C13.9991 33.2342 13.9691 33.1032 13.8787 32.9861C13.7198 32.7754 13.513 32.6518 13.2585 32.6157C12.932 32.6694 12.8305 32.8546 12.954 33.1713C13.187 33.4799 13.4201 33.7887 13.6532 34.0973C13.9471 34.6344 13.8607 35.0936 13.3938 35.4747C13.0738 35.6469 12.743 35.6701 12.4014 35.5441C11.874 35.327 11.4944 34.9527 11.2623 34.4214C11.1673 34.0676 11.2312 33.7514 11.454 33.4722C11.646 33.6053 11.8339 33.7442 12.0179 33.8889C11.8688 34.207 11.929 34.4809 12.1984 34.7107C12.3121 34.7922 12.4324 34.8617 12.5592 34.9191C12.8597 34.9966 13.0476 34.8848 13.1231 34.5834C13.0788 34.4105 12.9999 34.2563 12.8863 34.1204C12.6974 33.9033 12.5169 33.6797 12.345 33.4491C12.0268 32.8981 12.1207 32.439 12.6269 32.0717C12.7451 32.0145 12.8654 31.9721 12.9878 31.9443Z" fill="#FDFDFE"/>
<path fill-rule="evenodd" clip-rule="evenodd" d="M16.146 33.7254C16.6785 33.6877 17.1521 33.8381 17.567 34.1768C17.8765 34.4942 17.963 34.8607 17.8264 35.2764C17.6263 35.2093 17.4271 35.1399 17.2287 35.0681C17.2219 34.7333 17.064 34.5134 16.755 34.4083C16.5624 34.3243 16.3744 34.3322 16.1912 34.4315C16.0348 34.5894 16.016 34.763 16.1348 34.9523C16.1995 35.0264 16.2709 35.0922 16.349 35.1491C16.6991 35.3308 17.0112 35.566 17.2851 35.8552C17.4973 36.1635 17.5349 36.4953 17.3979 36.8506C17.2416 37.1729 16.9898 37.362 16.6423 37.4178C16.0572 37.4569 15.5385 37.287 15.0859 36.9085C14.78 36.5694 14.6973 36.1798 14.8378 35.7394C15.0475 35.8151 15.258 35.8883 15.4694 35.9594C15.4427 36.1784 15.5029 36.3712 15.6498 36.5381C15.9247 36.7789 16.233 36.8407 16.5746 36.7233C16.7555 36.5833 16.7969 36.4096 16.6987 36.2024C16.6189 36.1128 16.5325 36.0318 16.4393 35.9594C16.176 35.801 15.9203 35.6313 15.6724 35.4501C15.2637 35.0686 15.1998 34.6324 15.4807 34.1421C15.537 34.0534 15.6085 33.98 15.6949 33.9222C15.8391 33.8358 15.9895 33.7701 16.146 33.7254Z" fill="#FDFDFE"/>
<path fill-rule="evenodd" clip-rule="evenodd" d="M25.3932 34.7369C25.3285 33.9103 24.8923 33.513 24.085 33.5447C23.5297 33.7297 22.9809 33.938 22.4385 34.1698C22.8433 35.2854 23.2568 36.3966 23.679 37.5034C23.8904 37.4246 24.101 37.3436 24.3106 37.2603C24.3223 37.2473 24.33 37.2318 24.3331 37.214C24.1969 36.8292 24.0541 36.4473 23.9046 36.0681C24.0875 35.981 24.2754 35.9155 24.4685 35.8713C24.7985 36.1558 25.1217 36.4491 25.4384 36.751C25.4661 36.769 25.4961 36.7806 25.5286 36.7857C25.7708 36.6977 26.0115 36.6051 26.2503 36.5079C25.8597 36.1685 25.4762 35.8213 25.1 35.4662C25.2924 35.2638 25.3901 35.0208 25.3932 34.7369ZM24.66 34.862C24.6614 34.3736 24.4246 34.1576 23.9495 34.2138C23.7515 34.2997 23.5485 34.3768 23.3405 34.4453C23.4411 34.7898 23.5578 35.1294 23.6902 35.4639C23.7138 35.4875 23.7402 35.4912 23.7691 35.4755C23.9252 35.4093 24.0831 35.3475 24.2428 35.2903C24.4582 35.2234 24.5973 35.0808 24.66 34.862Z" fill="#FDFDFE"/>
<path fill-rule="evenodd" clip-rule="evenodd" d="M19.3714 34.413C19.424 34.413 19.4767 34.413 19.5293 34.413C19.5223 34.4799 19.53 34.5415 19.5519 34.5982C19.564 35.363 19.5904 36.127 19.6308 36.89C19.8074 37.2836 20.1045 37.434 20.5217 37.3414C20.7938 37.2706 20.9704 37.097 21.0518 36.8206C21.0362 36.0029 21.0249 35.185 21.018 34.3667C21.2579 34.3458 21.4984 34.338 21.7397 34.3435C21.7623 35.2001 21.7736 36.0566 21.7736 36.9132C21.6721 37.4572 21.3599 37.8007 20.8375 37.9433C20.5231 38.0091 20.2073 38.017 19.8902 37.9665C19.3042 37.8283 18.9697 37.4539 18.8865 36.8437C18.854 36.0337 18.8352 35.2235 18.8301 34.413C19.0105 34.413 19.191 34.413 19.3714 34.413Z" fill="#FDFDFE"/>
<path fill-rule="evenodd" clip-rule="evenodd" d="M19.3711 34.4232C19.4264 34.4007 19.4864 34.3929 19.5515 34.4C19.5515 34.4695 19.5515 34.5389 19.5515 34.6084C19.5297 34.5517 19.522 34.4901 19.529 34.4232C19.4764 34.4232 19.4236 34.4232 19.3711 34.4232Z" fill="#B4BDE0"/>
</g>
<defs>
<clipPath id="clip0_3272_4848">
<rect width="40" height="40" fill="white"/>
</clipPath>
</defs>
</svg>
