<svg width="24" height="24" viewBox="0 0 24 24" fill="none" xmlns="http://www.w3.org/2000/svg">
<g clip-path="url(#clip0_3396_48495)">
<g clip-path="url(#clip1_3396_48495)">
<circle cx="12" cy="12" r="11.625" fill="white"/>
<path d="M11.9991 6.51346L10.0109 7.66074V9.82545L11.9991 8.6768L14.8749 10.3381V13.6597L11.9991 15.3205L9.12245 13.6601V7.15729L11.5537 5.74525V3.58008L4.48438 7.66257V16.3379L11.5533 20.419V18.2557L6.35872 15.2583V8.74721L7.24674 8.23416V14.742L11.9991 17.4856L16.7506 14.742V9.25478L11.9991 6.51346Z" fill="#F37321"/>
<path d="M12.4434 3.58008V5.74479L17.6388 8.74264V15.2546L12.4434 18.2557V20.4204L19.5164 16.3379V7.66029L12.4434 3.58008Z" fill="#5F6062"/>
</g>
</g>
<defs>
<clipPath id="clip0_3396_48495">
<rect width="24" height="24" fill="white"/>
</clipPath>
<clipPath id="clip1_3396_48495">
<rect width="24" height="24" fill="white"/>
</clipPath>
</defs>
</svg>
