<svg width="24" height="24" viewBox="0 0 24 24" fill="none" xmlns="http://www.w3.org/2000/svg">
<g clip-path="url(#clip0_3396_64230)">
<rect width="24" height="24" rx="12" fill="currentColor"/>
<path d="M17.5656 9.60533C19.2144 11.0044 20.3229 12.8066 20.5808 14.9769C20.5808 15.4228 20.5808 15.8687 20.5808 16.3282C18.7524 16.3282 16.9241 16.3282 15.0404 16.3282C15.0404 16.016 15.0404 15.7039 15.0404 15.3823C15.3323 15.102 15.3323 15.102 15.7245 14.884C15.8593 14.8066 15.9941 14.7293 16.133 14.6496C16.328 14.544 16.328 14.544 16.5268 14.4363C16.7156 14.3268 16.9042 14.2171 17.0927 14.1069C17.2181 14.0373 17.3435 13.9676 17.4727 13.8958C16.6964 14.1243 15.9264 14.3621 15.1633 14.6322C14.9052 14.7066 14.9052 14.7066 14.4998 14.7066C14.2633 14.487 14.2633 14.487 14.0944 14.1661C14.1469 13.4669 14.4081 12.9103 14.711 12.2911C14.8643 11.9734 15.0176 11.6556 15.1755 11.3283C14.5958 12.0864 14.016 12.8445 13.4188 13.6255C12.7431 13.4904 12.7431 13.4904 12.4728 13.3553C12.1476 12.3034 12.1714 11.2009 12.2026 10.1121C12.1134 10.1121 12.0242 10.1121 11.9323 10.1121C11.9339 10.2248 11.9354 10.3375 11.9371 10.4536C11.9556 12.7681 11.9556 12.7681 11.662 13.3553C11.3493 13.454 11.0339 13.5446 10.7161 13.6255C10.6248 13.5066 10.5336 13.3876 10.4395 13.265C10.3178 13.1065 10.196 12.9479 10.0742 12.7894C10.0143 12.7113 9.95438 12.6331 9.89264 12.5527C9.54136 12.0955 9.1861 11.6421 8.82425 11.1931C8.8618 11.2633 8.89935 11.3334 8.93804 11.4057C9.10762 11.7252 9.27422 12.0461 9.44079 12.3671C9.5295 12.5326 9.5295 12.5326 9.62 12.7015C9.70296 12.8629 9.70296 12.8629 9.7876 13.0275C9.83926 13.1258 9.89092 13.2242 9.94414 13.3255C10.0661 13.7055 10.0218 13.9227 9.90531 14.3012C9.81613 14.435 9.72694 14.5688 9.63505 14.7066C9.00063 14.6219 8.44346 14.4488 7.84454 14.2252C7.26772 13.9864 7.26772 13.9864 6.66213 13.8958C6.73581 13.9359 6.8095 13.9759 6.88542 14.0172C7.21856 14.2011 7.54834 14.3904 7.87832 14.5799C7.99434 14.6429 8.11035 14.7058 8.22988 14.7707C8.33962 14.8347 8.44936 14.8988 8.56243 14.9647C8.66434 15.022 8.76624 15.0794 8.87123 15.1384C9.09452 15.3823 9.09452 15.3823 9.09452 16.3282C7.22158 16.3282 5.34864 16.3282 3.41895 16.3282C3.41895 13.9295 4.34541 11.7691 6.03397 10.0609C9.31313 6.97969 14.0559 6.87926 17.5656 9.60533Z" fill="currentColor"/>
<path d="M10.8139 7.74154C11.0149 7.71061 11.244 7.66848 11.3396 7.66985C11.5658 7.6733 11.7475 7.63354 11.9736 7.63923C11.977 8.19431 11.9791 8.95866 11.9807 9.51374C11.9814 9.70206 11.9823 9.89038 11.9835 10.0787C12.0001 12.7949 12.0001 12.7949 11.7031 13.3889C11.3903 13.4877 11.0749 13.5783 10.7571 13.6592C10.6658 13.5402 10.5746 13.4213 10.4805 13.2987C10.3588 13.1401 10.237 12.9816 10.1152 12.8231C10.0553 12.745 9.9954 12.6668 9.93366 12.5863C9.58238 12.1291 9.22711 11.6757 8.86527 11.2268C8.90282 11.297 8.94037 11.3671 8.97905 11.4394C9.14863 11.7588 9.31523 12.0798 9.48181 12.4008C9.57052 12.5663 9.57052 12.5663 9.66102 12.7352C9.74398 12.8965 9.74398 12.8965 9.82862 13.0611C9.88027 13.1595 9.93193 13.2579 9.98516 13.3592C10.1071 13.7392 10.0628 13.9564 9.94633 14.3349C9.85714 14.4687 9.76795 14.6024 9.67606 14.7403C9.04164 14.6556 8.48447 14.4825 7.88556 14.2589C7.30873 14.0201 7.30873 14.0201 6.70314 13.9295C6.77683 13.9696 6.85051 14.0096 6.92643 14.0509C7.25957 14.2348 7.58936 14.4241 7.91934 14.6136C8.03535 14.6766 8.15137 14.7395 8.27089 14.8044C8.38064 14.8684 8.49038 14.9324 8.60345 14.9984C8.70535 15.0557 8.80726 15.113 8.91225 15.1721C9.13553 15.4159 9.13553 15.4159 9.13553 16.3619C7.26259 16.3619 5.38966 16.3619 3.45996 16.3619C3.45996 13.9632 4.38643 11.8028 6.07499 10.0946C6.77211 9.43953 7.46099 8.93205 8.32474 8.52417C8.44528 8.46128 8.56582 8.3984 8.69002 8.33361C9.4878 7.95072 9.91703 7.8965 10.8139 7.74154Z" fill="currentColor"/>
</g>
<defs>
<clipPath id="clip0_3396_64230">
<rect width="24" height="24" fill="currentColor"/>
</clipPath>
</defs>
</svg>
