<svg width="24" height="24" viewBox="0 0 24 24" fill="none" xmlns="http://www.w3.org/2000/svg">
<g clip-path="url(#clip0_3396_48963)">
<g filter="url(#filter0_d_3396_48963)">
<path d="M0.375 12C0.375 5.57969 5.57969 0.375 12 0.375C18.4203 0.375 23.625 5.57969 23.625 12C23.625 18.4203 18.4203 23.625 12 23.625C5.57969 23.625 0.375 18.4203 0.375 12Z" fill="currentColor"/>
<rect width="21.7969" height="21.7969" transform="translate(1.10156 1.10156)" fill="currentColor"/>
<path d="M5.57394 10.8199C5.86428 10.8199 6.12351 10.8925 6.35164 11.0376C6.58184 11.1807 6.76227 11.3839 6.89292 11.6472C7.01943 11.9002 7.08268 12.1978 7.08268 12.5399C7.08268 12.8717 7.01943 13.1682 6.89292 13.4295C6.76641 13.6907 6.58806 13.895 6.35786 14.0422C6.12559 14.1915 5.86428 14.2661 5.57394 14.2661C5.3624 14.2661 5.16331 14.2226 4.97666 14.1355C4.79001 14.0484 4.63033 13.9261 4.4976 13.7685V14.1871H3.41504V9.73438H4.4976V11.3144C4.63033 11.1568 4.79001 11.0355 4.97666 10.9505C5.16331 10.8634 5.3624 10.8199 5.57394 10.8199ZM5.25041 13.3673C5.40388 13.3673 5.54076 13.332 5.66104 13.2615C5.78132 13.191 5.87569 13.0925 5.94412 12.966C6.01256 12.8416 6.04678 12.6995 6.04678 12.5399C6.04678 12.3844 6.01256 12.2434 5.94412 12.1169C5.87569 11.9904 5.78132 11.8919 5.66104 11.8214C5.54076 11.7509 5.40388 11.7157 5.25041 11.7157C5.10524 11.7157 4.97563 11.7509 4.86157 11.8214C4.7475 11.8899 4.65833 11.9863 4.59403 12.1106C4.52975 12.2372 4.4976 12.3802 4.4976 12.5399C4.4976 12.6995 4.52975 12.8427 4.59403 12.9691C4.65833 13.0935 4.7475 13.191 4.86157 13.2615C4.97563 13.332 5.10524 13.3673 5.25041 13.3673Z" fill="currentColor"/>
<path d="M7.23047 14.1871V9.73438H8.31302V14.1871H7.23047Z" fill="currentColor"/>
<path d="M8.62012 14.187V10.8936H9.69647V14.187H8.62012Z" fill="currentColor"/>
<path d="M12.035 10.8193C12.2652 10.8193 12.4726 10.8733 12.6572 10.9811C12.8418 11.0869 12.9869 11.2362 13.0927 11.429C13.1943 11.6239 13.2451 11.8447 13.2451 12.0915V14.1865H12.2124V12.3341C12.2124 12.2138 12.1885 12.107 12.1408 12.0137C12.0952 11.9183 12.0299 11.8447 11.9448 11.7929C11.8619 11.7411 11.7644 11.7151 11.6524 11.7151C11.5467 11.7151 11.4491 11.7411 11.36 11.7929C11.2708 11.8427 11.2013 11.9111 11.1516 11.9982C11.0997 12.0811 11.0738 12.1786 11.0738 12.2906L11.0676 14.1865H9.99121V10.894H11.0676V11.2704C11.1692 11.1294 11.305 11.0195 11.4751 10.9406C11.6451 10.8598 11.8318 10.8193 12.035 10.8193Z" fill="currentColor"/>
<path d="M15.6239 12.3346L16.8451 14.1871H15.6226L14.9084 13.022L14.5787 13.4046V14.1871H13.4961V9.73438H14.5787V12.1946L15.6194 10.8928L16.8411 10.8937L15.6239 12.3346Z" fill="currentColor"/>
<path d="M8.62012 9.73438H9.70003V10.5771H8.62012V9.73438Z" fill="currentColor"/>
<path d="M17.0098 14.1872V10.8936H18.0897V14.1872H17.0098Z" fill="currentColor"/>
<path d="M20.3697 13.2482L20.5843 13.9417C20.4868 14.0351 20.3634 14.1107 20.2141 14.1688C20.0668 14.2269 19.9227 14.2559 19.7817 14.2559C19.5784 14.2559 19.397 14.2113 19.2373 14.1222C19.0776 14.0309 18.9532 13.9044 18.864 13.7427C18.7748 13.5851 18.7302 13.4037 18.7302 13.1984V11.7452H18.2979V10.8933H18.7302V9.73438H19.763V10.8933H20.4443V11.7452H19.763V12.9993C19.763 13.1051 19.791 13.1911 19.847 13.2575C19.903 13.3238 19.9745 13.357 20.0617 13.357C20.1238 13.357 20.1819 13.3477 20.2358 13.329C20.2898 13.3104 20.3344 13.2834 20.3697 13.2482Z" fill="currentColor"/>
<path d="M17.0098 9.73438H18.0897V10.5771H17.0098V9.73438Z" fill="currentColor"/>
</g>
</g>
<defs>
<filter id="filter0_d_3396_48963" x="-5.625" y="-4.625" width="35.25" height="35.25" filterUnits="userSpaceOnUse" color-interpolation-filters="sRGB">
<feFlood flood-opacity="0" result="BackgroundImageFix"/>
<feColorMatrix in="SourceAlpha" type="matrix" values="0 0 0 0 0 0 0 0 0 0 0 0 0 0 0 0 0 0 127 0" result="hardAlpha"/>
<feOffset dy="1"/>
<feGaussianBlur stdDeviation="3"/>
<feComposite in2="hardAlpha" operator="out"/>
<feColorMatrix type="matrix" values="0 0 0 0 0 0 0 0 0 0 0 0 0 0 0 0 0 0 0.08 0"/>
<feBlend mode="normal" in2="BackgroundImageFix" result="effect1_dropShadow_3396_48963"/>
<feBlend mode="normal" in="SourceGraphic" in2="effect1_dropShadow_3396_48963" result="shape"/>
</filter>
<clipPath id="clip0_3396_48963">
<rect width="24" height="24" fill="currentColor"/>
</clipPath>
</defs>
</svg>
