<svg width="184" height="40" viewBox="0 0 184 40" fill="none" xmlns="http://www.w3.org/2000/svg">
<path d="M0 40H40.6763V0H0V40Z" fill="url(#paint0_linear_3396_57027)"/>
<path d="M3.1774 0.716679C2.38825 0.716679 1.87267 1.38243 1.75023 2.31602C1.75023 2.31602 0.734375 7.65548 0.734375 18.9935C0.734375 30.3372 1.75023 37.759 1.75023 37.759C1.84397 38.6563 2.38825 39.3574 3.1774 39.3574H38.3851C39.1714 39.3574 39.797 38.7338 39.8103 37.759C39.8103 37.759 39.4191 29.0659 39.4191 20.5756C39.4191 12.0843 39.8103 2.31602 39.8103 2.31602C39.8295 1.44748 39.1714 0.716679 38.3851 0.716679H3.1774Z" fill="url(#paint1_linear_3396_57027)"/>
<path d="M22.95 4.79694C24.0606 5.26278 28.5239 7.67615 29.071 8.44713C26.825 8.74366 22.4201 9.89056 20.0479 11.0451L19.9092 11.3244C22.5253 10.7486 26.1822 10.4473 28.7037 10.3105C27.7624 11.6917 27.1388 12.3498 25.7068 13.9128L25.5739 14.2161C28.3029 12.5765 29.071 12.4589 31.5867 10.9858C32.5366 12.391 32.7652 15.6289 32.8015 18.1953C33.6203 16.5673 34.6142 10.4339 34.201 9.32524C35.8692 8.18025 36.0949 7.25813 36.0949 7.25813C34.5654 7.39014 33.7217 7.41597 32.8972 7.67615C30.943 6.4776 26.4615 4.89642 23.0792 4.5138L22.95 4.79694Z" fill="url(#paint2_linear_3396_57027)"/>
<path d="M6.28746 23.8572C6.0665 25.9004 5.97754 27.362 6.27024 28.9967C5.44283 29.2253 4.71776 29.2579 4.05105 29.5419L3.92383 29.8222C4.98464 30.4765 5.8484 30.9777 7.04792 31.5373C7.68976 32.9157 8.35265 33.8455 9.42781 34.9072L9.55886 34.6231C9.36563 33.8397 9.11502 33.1921 9.20972 32.336C10.5431 32.7244 11.6872 32.93 13.2071 32.976L13.3353 32.6919C11.999 32.1734 10.6637 31.765 9.58277 30.7453C9.92235 29.8002 10.3117 29.0589 10.9468 28.1215L11.0807 27.8345C9.93287 28.0076 8.89214 28.4276 7.89925 28.6208C7.11679 27.2453 6.81261 25.3637 6.41851 23.5712L6.28746 23.8572Z" fill="url(#paint3_linear_3396_57027)"/>
<path d="M13.0984 14.5318C13.0984 14.5318 12.2395 14.4495 10.818 14.4926C9.61661 14.5481 7.82499 14.6552 6.95358 14.9115L6.82636 15.1909C8.21144 15.2502 10.1092 15.6223 10.8353 16.3512C10.8353 16.3512 8.73276 18.248 6.64844 22.3994C6.64844 22.3994 10.4268 18.8544 12.0644 17.9754C12.0644 17.9754 12.9215 20.8297 13.5165 22.2588L13.6475 21.9737C13.812 21.0555 14.2224 18.5646 14.9188 17.0408C14.9188 17.0408 15.1655 16.8906 16.3737 16.773C17.5847 16.6649 19.2969 16.6008 22.5482 17.1719L22.6802 16.8926C21.9379 16.4545 18.9793 15.1861 15.8476 14.7642H15.9499C16.3794 13.4997 16.917 12.546 16.917 12.546C16.2531 12.6397 14.363 13.5236 13.0984 14.5318Z" fill="url(#paint4_linear_3396_57027)"/>
<path d="M21.0123 32.0454C20.9655 31.4915 20.9301 31.02 20.9023 30.3963C20.2452 31.2878 19.6837 31.989 18.9586 32.803C18.1924 33.0163 17.3162 33.0077 16.5175 32.9991C16.2018 32.9952 15.8967 32.9924 15.6164 33.001L15.4873 33.2851C16.2305 33.6677 16.9604 33.903 17.739 34.0627C17.1077 34.6376 16.264 35.0748 15.671 35.4756L15.5409 35.7549C16.8112 35.4545 18.4842 34.915 19.7306 34.1794C20.3791 34.2081 20.9846 34.1651 21.4294 34.0771C21.4294 34.0771 21.5623 33.7873 21.5623 33.794C21.481 33.507 21.2256 33.3319 21.151 32.9302C22.319 32.0234 23.1655 31.1969 24.1422 30.2146L24.278 29.9295C23.3128 30.5953 22.1411 31.5107 21.0123 32.0454Z" fill="url(#paint5_linear_3396_57027)"/>
<path d="M31.7158 10.6987C29.2058 12.1747 28.4368 12.299 25.7068 13.9328C27.2966 12.2081 27.8495 11.4735 28.8328 10.0301C26.3161 10.164 22.6592 10.4663 20.0479 11.045C22.3206 9.83113 26.8269 8.48143 29.2058 8.16003C28.6539 7.39862 24.1897 4.98047 23.0792 4.51463C26.6136 4.78916 30.9334 6.11015 33.0282 7.39097C33.8518 7.13366 34.7089 7.12122 36.2422 6.98444C35.852 7.65498 35.8347 8.04333 34.3301 9.04102C34.7471 10.1554 33.7514 16.2859 32.9287 17.9092C32.8991 15.3447 32.6753 12.1058 31.7158 10.6987Z" fill="currentColor"/>
<path d="M13.335 32.6918C11.8926 32.1571 10.8538 31.5344 9.70972 30.4649C10.0522 29.5199 10.4434 28.7814 11.0805 27.8344C9.90773 28.0095 9.04301 28.1415 8.03289 28.3328C7.21026 26.8941 6.83721 25.5043 6.41824 23.5711C6.19441 25.62 6.10927 27.0835 6.39815 28.7144C5.47126 28.9718 4.81411 29.1975 4.05078 29.5409C5.1202 30.1952 5.98397 30.6993 7.17774 31.256C7.81958 32.6325 8.48247 33.5622 9.55955 34.623C9.30702 33.7191 9.24006 33.0007 9.34337 32.0528C10.6778 32.4412 11.8199 32.6449 13.335 32.6918Z" fill="currentColor"/>
<path d="M17.0901 12.303C16.6405 12.8865 16.1192 13.9741 15.9786 14.4792C19.6967 14.9833 22.6802 16.8925 22.6802 16.8925C19.4289 16.3157 17.7157 16.3875 16.5028 16.4965C15.2975 16.6104 15.0498 16.7519 15.0498 16.7519C14.1726 18.6736 13.6465 21.9737 13.6465 21.9737C13.0554 20.5475 12.2002 17.6913 12.2002 17.6913C10.5597 18.5684 6.78711 22.1182 6.78711 22.1182C8.86091 17.9629 10.9663 16.0728 10.9663 16.0728C10.2422 15.3391 8.34246 14.9727 6.95259 14.9115C7.67383 14.6169 9.52475 14.2726 10.9462 14.2075C12.3695 14.1664 13.2304 14.2477 13.2304 14.2477C14.4998 13.2452 16.4263 12.4015 17.0901 12.303Z" fill="currentColor"/>
<path d="M21.0341 30.116C20.3779 31.0066 19.8135 31.7058 19.0856 32.5199C17.8344 32.8709 16.8358 33.001 15.6162 33.001C16.3652 33.3874 17.0903 33.6189 17.8718 33.7825C17.0903 34.4894 16.4302 34.9925 15.6717 35.4756C16.9429 35.1743 18.614 34.6348 19.8585 33.8992C20.509 33.9241 21.1164 33.882 21.5621 33.794C21.4454 33.4171 21.3746 33.1359 21.2799 32.6452C22.4517 31.7383 23.3021 30.9167 24.2778 29.9295C23.2399 30.6536 22.3446 31.1941 21.1431 31.7613C21.0915 31.2084 21.0618 30.7397 21.0341 30.116Z" fill="currentColor"/>
<path d="M55.5146 15.3317C58.0045 15.3527 58.9161 15.8588 58.9161 17.2142C58.9161 17.5882 58.8013 17.9201 58.5813 18.1736C58.104 18.7466 57.1752 19.0441 55.991 18.9695H55.9297L55.2343 20.7812H55.9297C57.3043 20.7419 58.499 21.1753 59.1131 21.9252C59.3963 22.2667 59.5388 22.678 59.5388 23.097C59.5388 24.5146 58.2905 25.2463 55.8283 25.2463C55.4142 25.2463 54.7398 25.2463 54.3208 25.2329C54.25 23.3409 54.2185 20.7812 54.2185 20.0092C54.2185 19.1168 54.2768 17.1271 54.3208 15.4274C54.6049 15.369 55.0765 15.3317 55.5146 15.3317ZM50.9031 14.0289C50.9796 15.3728 51.058 18.7705 51.058 20.0092C51.058 21.1513 51.0571 24.9737 50.8572 26.6218L50.8447 26.751H56.8165C59.7521 26.751 62.8561 25.8384 62.8561 23.2309C62.8561 21.6 61.6748 20.3938 59.4651 19.7337C61.1047 19.2937 62.1961 18.1736 62.1961 16.8928C62.1961 14.7645 59.7521 13.9638 57.4545 13.9084H50.8686L50.9031 14.0289Z" fill="currentColor"/>
<path d="M76.639 13.9084H73.733L73.8507 17.1472C73.9071 18.7476 73.9617 20.3938 74.0745 21.9922C73.887 21.4909 73.712 21.2336 72.8281 19.948C72.8253 19.9031 69.8045 15.2571 68.7561 13.938L68.7265 13.9084H65.3546V14.0289C65.4618 15.3728 65.5048 18.7715 65.5048 20.0102C65.5048 21.1523 65.5048 24.9737 65.3441 26.6219L65.3145 26.752H68.3199V26.6219C68.1487 23.4873 68.1487 20.3239 68.1487 17.2553C68.253 17.6274 68.3859 17.9469 68.8594 18.6481C68.8986 18.7313 74.0745 26.266 74.3261 26.6974L74.3519 26.752H76.7596L76.7557 26.6219C76.5721 24.9737 76.5568 21.1523 76.5568 20.0102C76.5568 18.7715 76.639 15.3728 76.7175 14.0289L76.7557 13.9084H76.639Z" fill="currentColor"/>
<path d="M84.5208 15.458C86.1957 15.4274 87.3646 15.766 87.9204 16.4691C88.1748 16.7713 88.3154 17.1702 88.3154 17.6274C88.3154 19.486 86.2244 19.8897 84.4768 19.8897L83.767 19.8495C83.767 19.8495 83.5996 19.8332 83.4753 19.8198C83.4629 19.3904 83.4629 18.8241 83.4629 18.1889C83.4629 17.3806 83.4629 16.4212 83.5002 15.5326C83.7469 15.5001 84.119 15.458 84.5208 15.458ZM80.114 14.0289C80.2316 15.3728 80.2766 18.7705 80.2766 20.0102C80.2766 21.1514 80.2766 24.9737 80.1006 26.6219V26.752H83.6752L83.6599 26.6219C83.5375 25.4357 83.4753 23.1745 83.4629 21.446C83.6303 21.4546 84.1382 21.4804 84.1382 21.4804L84.6432 21.4909C89.3456 21.4909 91.6327 20.2465 91.6327 17.6274C91.6327 14.6478 88.4245 13.9639 85.75 13.9084H80.114V14.0289Z" fill="currentColor"/>
<path d="M102.857 15.458C104.535 15.4274 105.703 15.766 106.266 16.4691C106.524 16.7713 106.653 17.1702 106.653 17.6274C106.653 19.486 104.565 19.8897 102.84 19.8897L102.132 19.8495C102.132 19.8495 101.944 19.8332 101.834 19.8198C101.815 19.3904 101.815 18.8212 101.815 18.1889C101.815 17.373 101.815 16.4212 101.849 15.5326C102.072 15.5001 102.459 15.458 102.857 15.458ZM98.4566 14.0289C98.5695 15.3728 98.6345 18.7705 98.6345 20.0102C98.6345 21.1514 98.6231 24.9737 98.4375 26.6219V26.752H102.015L101.994 26.6219C101.88 25.4357 101.815 23.1745 101.815 21.446C101.982 21.4546 102.459 21.4804 102.459 21.4804L102.977 21.4909C107.678 21.4909 109.985 20.2465 109.985 17.6274C109.985 14.6478 106.759 13.9639 104.073 13.9084H98.4566V14.0289Z" fill="currentColor"/>
<path d="M115.637 17.6906C115.921 18.3028 116.659 20.0102 117.489 22.0476C117.361 22.0534 117.201 22.0534 117.201 22.0534L115.637 22.0744C115.637 22.0744 114.018 22.0534 113.747 22.0476C114.423 20.4186 115.091 18.9465 115.637 17.6906ZM114.767 13.9084H114.72L114.695 13.9725C114.03 15.8004 109.741 25.1583 109.062 26.5913L109.006 26.752H112.051L112.076 26.6812C112.344 25.8002 112.705 24.8073 113.097 23.7474C113.219 23.7474 115.637 23.7111 115.637 23.7111L117.74 23.7264C117.74 23.7264 118.079 23.7474 118.18 23.7474C118.722 25.1277 119.138 26.1685 119.318 26.6974L119.353 26.752H122.882L117.181 13.9084H117.111H114.767Z" fill="currentColor"/>
<path d="M124.316 14.0289C124.418 15.3728 124.47 18.7715 124.47 20.0102C124.47 21.1523 124.47 24.9737 124.274 26.6219V26.752H127.871L127.856 26.6219C127.665 24.9623 127.652 21.1523 127.652 20.0102C127.652 19.1177 127.68 17.1281 127.769 15.5192C128.042 15.5001 128.457 15.458 128.739 15.458C130.403 15.4274 131.579 15.7708 132.129 16.4691C132.393 16.7723 132.511 17.1798 132.511 17.6274C132.511 19.111 131.127 19.8629 129.837 19.9298C129.404 19.948 129.083 19.8925 129.083 19.8925L128.832 19.8495L128.97 20.0848C130.247 21.9472 132.156 25.1717 132.946 26.6974L132.968 26.752H136.81L136.714 26.5788C136.557 26.3626 134.055 22.679 132.991 21.1054C132.991 21.1054 132.946 21.0605 132.899 21.0107C134.869 20.4186 135.821 19.3177 135.821 17.6274C135.821 14.6698 132.613 13.9658 129.904 13.9084H124.305L124.316 14.0289Z" fill="currentColor"/>
<path d="M141.895 13.9084H138.469L138.489 14.0289C138.578 15.3728 138.646 18.7715 138.646 20.0102C138.646 21.1466 138.631 24.9623 138.469 26.6219L138.456 26.752H142.007L141.989 26.6219C141.852 24.9623 141.81 21.1466 141.81 20.0102C141.81 18.7715 141.895 15.3728 141.989 14.0289V13.9084H141.895Z" fill="currentColor"/>
<path d="M149.853 15.3317C152.361 15.3527 153.273 15.8588 153.273 17.2142C153.273 17.5882 153.158 17.9201 152.93 18.1736C152.478 18.7466 151.512 19.0441 150.336 18.9695H150.278L149.587 20.7812H150.278C151.657 20.7419 152.841 21.1753 153.454 21.9252C153.754 22.2667 153.896 22.678 153.896 23.097C153.896 24.5146 152.642 25.2463 150.167 25.2463C149.77 25.2463 149.1 25.2463 148.681 25.2329C148.579 23.3409 148.579 20.7812 148.579 20.0092C148.579 19.1168 148.61 17.1271 148.681 15.4274C148.952 15.369 149.421 15.3317 149.853 15.3317ZM145.243 14.0289C145.346 15.3728 145.408 18.7705 145.408 20.0092C145.408 21.1513 145.408 24.9737 145.228 26.6218L145.199 26.751H151.181C154.105 26.751 157.219 25.8384 157.219 23.2309C157.219 21.6 156.035 20.3938 153.806 19.7337C155.449 19.2937 156.553 18.1736 156.553 16.8928C156.553 14.7645 154.105 13.9638 151.828 13.9084H145.228L145.243 14.0289Z" fill="currentColor"/>
<path d="M164.536 17.6839C164.824 18.2817 165.557 19.992 166.388 22.0343C166.262 22.0343 166.107 22.0476 166.107 22.0476L164.536 22.0687C164.536 22.0687 162.898 22.0343 162.655 22.0343C163.321 20.3938 163.973 18.9322 164.536 17.6839ZM166.014 13.9084H163.609L163.595 13.9658C162.876 15.9104 158.346 25.7619 157.965 26.5788L157.899 26.752H160.959L160.979 26.6754C161.234 25.7954 161.59 24.8073 161.988 23.7264C162.085 23.7264 164.517 23.6881 164.517 23.6881L166.624 23.7216C166.624 23.7216 166.99 23.7264 167.072 23.7264C167.625 25.1067 168.035 26.156 168.214 26.6754L168.246 26.752H171.788L166.091 13.9084H166.014Z" fill="currentColor"/>
<path d="M172.789 17.2295C172.789 19.486 175.049 20.3938 177.05 21.2241C178.609 21.8449 180.239 22.4982 180.239 23.5743C180.239 23.8995 180.175 24.1731 179.993 24.3654C179.618 24.8073 178.859 24.9929 177.655 24.9259C176.462 24.8781 175.117 24.5022 173.604 23.8048L173.012 23.5198V24.0191V26.3177L173.416 26.421L173.651 26.4612C174.398 26.6468 175.841 26.9863 177.274 26.9863C181.046 26.9863 183.297 25.4817 183.297 22.9947C183.297 20.6588 180.973 19.751 178.92 18.9322C177.407 18.319 175.841 17.7116 175.841 16.7101C175.841 16.4212 175.841 15.5785 177.796 15.5785C179.235 15.5785 180.635 16.1649 181.43 16.4691L182.155 16.7723L182.15 16.2902V13.9639L181.43 13.8338C180.697 13.6855 179.474 13.4426 178.216 13.4426C174.961 13.4426 172.789 14.9788 172.789 17.2295Z" fill="currentColor"/>
<defs>
<linearGradient id="paint0_linear_3396_57027" x1="20.3378" y1="-0.999581" x2="20.3378" y2="41.9396" gradientUnits="userSpaceOnUse">
<stop stop-color="#007348"/>
<stop offset="0.600006" stop-color="#8DC9AB"/>
<stop offset="1" stop-color="#00925B"/>
</linearGradient>
<linearGradient id="paint1_linear_3396_57027" x1="20.2736" y1="-10.1033" x2="20.2736" y2="38.1485" gradientUnits="userSpaceOnUse">
<stop stop-color="#00925B"/>
<stop offset="0.300003" stop-color="#8DC9AB"/>
<stop offset="0.550003" stop-color="#00925B"/>
<stop offset="0.835159" stop-color="#007348"/>
<stop offset="1" stop-color="#009C6D"/>
</linearGradient>
<linearGradient id="paint2_linear_3396_57027" x1="28.0023" y1="35.4834" x2="28.0023" y2="4.25879" gradientUnits="userSpaceOnUse">
<stop stop-color="#00A678"/>
<stop offset="1" stop-color="#00925B"/>
</linearGradient>
<linearGradient id="paint3_linear_3396_57027" x1="8.62961" y1="35.4852" x2="8.62961" y2="4.2511" gradientUnits="userSpaceOnUse">
<stop stop-color="#00A678"/>
<stop offset="1" stop-color="#00925B"/>
</linearGradient>
<linearGradient id="paint4_linear_3396_57027" x1="14.6649" y1="35.4782" x2="14.6649" y2="4.26467" gradientUnits="userSpaceOnUse">
<stop stop-color="#00A678"/>
<stop offset="1" stop-color="#00925B"/>
</linearGradient>
<linearGradient id="paint5_linear_3396_57027" x1="19.8822" y1="35.4827" x2="19.8822" y2="4.25843" gradientUnits="userSpaceOnUse">
<stop stop-color="#00A678"/>
<stop offset="1" stop-color="#00925B"/>
</linearGradient>
</defs>
</svg>
