<svg width="24" height="24" viewBox="0 0 24 24" fill="none" xmlns="http://www.w3.org/2000/svg">
<g clip-path="url(#clip0_3396_51997)">
<g filter="url(#filter0_d_3396_51997)">
<path d="M11.625 23.25C18.0454 23.25 23.2501 18.0453 23.2501 11.625C23.2501 5.2047 18.0454 0 11.625 0C5.20471 0 0 5.2047 0 11.625C0 18.0453 5.20471 23.25 11.625 23.25Z" fill="white"/>
<mask id="mask0_3396_51997" style="mask-type:luminance" maskUnits="userSpaceOnUse" x="3" y="3" width="17" height="17">
<path d="M19.501 3.75H3.75098V19.5H19.501V3.75Z" fill="white"/>
</mask>
<g mask="url(#mask0_3396_51997)">
<path d="M11.5988 3.75195C7.26867 3.75195 3.75098 7.28093 3.75098 11.625C3.75098 15.969 7.26867 19.498 11.5988 19.498C15.929 19.498 19.4467 15.969 19.4467 11.625C19.4467 7.28093 15.929 3.75195 11.5988 3.75195ZM11.5988 18.709C7.70083 18.709 4.5375 15.5268 4.5375 11.625C4.5375 7.72313 7.70083 4.54099 11.5988 4.54099C15.4968 4.54099 18.6602 7.72313 18.6602 11.625C18.6602 15.5268 15.4968 18.709 11.5988 18.709Z" fill="black"/>
<path d="M14.3994 6.57847C14.3735 6.5611 14.339 6.55244 14.3044 6.55244C14.2007 6.55244 14.1229 6.63048 14.1229 6.73454V9.19702C14.1229 9.28372 14.0537 9.35309 13.9673 9.35309H9.21363C9.12723 9.35309 9.0667 9.28372 9.05808 9.19702V6.73454C9.05808 6.69985 9.04941 6.67383 9.03213 6.63914C8.98026 6.55244 8.86791 6.52642 8.78147 6.57847C7.02696 7.66229 5.96387 9.54385 5.96387 11.6248C5.96387 13.7058 7.02696 15.5874 8.79876 16.6712C8.82471 16.6885 8.85929 16.6972 8.89386 16.6972C8.99755 16.6972 9.07536 16.6192 9.07536 16.5151V14.0526C9.07536 13.9659 9.14448 13.9052 9.23091 13.8966H13.9846C14.071 13.8966 14.1402 13.9659 14.1402 14.0526V16.5151C14.1402 16.5498 14.1488 16.5758 14.1661 16.6105C14.2179 16.6972 14.3303 16.7232 14.4167 16.6712C16.1885 15.5874 17.2516 13.7058 17.2516 11.6248C17.2516 9.54385 16.1713 7.66229 14.3994 6.57847ZM8.1592 14.7116L8.18511 15.0064L7.99499 14.7723C6.53432 12.9254 6.53432 10.3155 7.99499 8.46869L8.1592 8.26057L8.18511 8.23458L8.1592 8.53803C8.13325 8.7808 8.12462 9.03228 8.12462 9.28372V13.9573C8.12462 14.2087 8.14191 14.4601 8.1592 14.7116ZM14.1229 12.804C14.1229 12.8908 14.0537 12.9601 13.9673 12.9601H9.21363C9.12723 12.9601 9.0667 12.8908 9.05808 12.804V10.4456C9.05808 10.3589 9.12723 10.2895 9.21363 10.2895H13.9673C14.0537 10.2895 14.1229 10.3589 14.1229 10.4456V12.804ZM15.1946 14.7723L15.0045 15.0064L15.0304 14.7116C15.0563 14.4688 15.065 14.2174 15.065 13.9659V9.28372C15.065 9.03228 15.0563 8.7808 15.0304 8.53803L15.0218 8.40798L15.0131 8.26923V8.23458L15.1946 8.46869C15.9033 9.35309 16.2923 10.4803 16.2923 11.6161C16.2923 12.752 15.9033 13.8879 15.1946 14.7723Z" fill="black"/>
</g>
</g>
</g>
<defs>
<filter id="filter0_d_3396_51997" x="-7.36251" y="-6.13543" width="37.975" height="37.975" filterUnits="userSpaceOnUse" color-interpolation-filters="sRGB">
<feFlood flood-opacity="0" result="BackgroundImageFix"/>
<feColorMatrix in="SourceAlpha" type="matrix" values="0 0 0 0 0 0 0 0 0 0 0 0 0 0 0 0 0 0 127 0" result="hardAlpha"/>
<feOffset dy="1.22708"/>
<feGaussianBlur stdDeviation="3.68126"/>
<feComposite in2="hardAlpha" operator="out"/>
<feColorMatrix type="matrix" values="0 0 0 0 0 0 0 0 0 0 0 0 0 0 0 0 0 0 0.08 0"/>
<feBlend mode="normal" in2="BackgroundImageFix" result="effect1_dropShadow_3396_51997"/>
<feBlend mode="normal" in="SourceGraphic" in2="effect1_dropShadow_3396_51997" result="shape"/>
</filter>
<clipPath id="clip0_3396_51997">
<rect width="24" height="23.25" fill="white"/>
</clipPath>
</defs>
</svg>
