<svg width="20" height="20" viewBox="0 0 20 20" fill="none" xmlns="http://www.w3.org/2000/svg">
<g clip-path="url(#clip0_3396_72148)">
<path d="M20 10C20 4.47715 15.5228 0 10 0C4.47715 0 0 4.47715 0 10C0 15.5228 4.47715 20 10 20C15.5228 20 20 15.5228 20 10Z" fill="white"/>
<path fill-rule="evenodd" clip-rule="evenodd" d="M10.0026 12.7325L17.3695 11.6593C17.6497 11.6164 17.8666 11.4079 17.8666 11.1558L17.8614 8.68929C17.8624 8.54941 17.7996 8.42357 17.6908 8.33197C16.9927 7.74219 14.6692 7.26163 9.99463 7.26616C5.32079 7.2715 2.998 7.758 2.30296 8.34897C2.19463 8.44097 2.13159 8.56682 2.13206 8.70629L2.13626 11.174C2.13673 11.4253 2.34919 11.6326 2.63285 11.6756L10.0026 12.7325Z" fill="#EA1F29"/>
<path fill-rule="evenodd" clip-rule="evenodd" d="M9.26489 11.0124C10.5422 10.7449 12.0899 11.0387 12.8886 11.3277C12.1464 11.3091 11.2795 11.3825 10.5216 11.5434C9.72132 11.7145 9.06573 11.9367 8.45635 12.3439C7.94204 12.0109 7.80404 11.3289 9.26489 11.0124Z" fill="#298D40"/>
<path fill-rule="evenodd" clip-rule="evenodd" d="M3.78347 10.3506C3.75054 10.3514 3.72088 10.3506 3.69122 10.3514C3.49838 10.3514 3.48694 10.2548 3.48672 10.2258C3.48672 10.2022 3.48672 9.7616 3.48532 9.73685C3.48532 9.71254 3.49163 9.70838 3.52572 9.70838C3.63382 9.70798 3.74938 9.7072 3.83997 9.70798H3.85188L3.85094 9.36907C3.79888 9.38885 3.73513 9.39379 3.67257 9.39379C3.47925 9.39379 3.48532 9.38926 3.48532 9.34079C3.48532 9.3216 3.48532 8.92432 3.48438 8.90454C3.48438 8.88098 3.49022 8.87563 3.52407 8.87604C3.63216 8.86635 3.65038 8.87088 3.73513 8.87563C3.77669 8.87563 3.81732 8.88098 3.85 8.89504V8.52823C3.66041 8.52823 2.99876 8.52901 2.92475 8.52901C2.86102 8.52901 2.85635 8.54367 2.88016 8.57154C2.90211 8.61548 2.90795 8.69323 2.90841 8.72648C2.90795 8.75535 2.91028 10.2265 2.91121 10.4248C2.91168 10.604 3.04756 10.7184 3.21847 10.7184C3.25957 10.7184 3.59597 10.718 3.85325 10.718L3.85235 10.3464C3.82897 10.3506 3.80682 10.3514 3.78347 10.3506ZM5.7675 8.82045V9.1732C5.71007 9.16885 5.64213 9.16885 5.55785 9.17895C5.55785 9.17895 5.559 9.63301 5.559 9.66229L5.65541 9.66207C5.69466 9.66229 5.73457 9.65238 5.76888 9.6427L5.76982 10.2861C5.66594 10.1219 5.59869 9.95213 5.55785 9.89001C5.55785 9.92779 5.559 10.4889 5.55994 10.5856C5.55994 10.6875 5.46888 10.7162 5.42313 10.7166C5.37035 10.7162 5.13735 10.7166 5.08622 10.7162C5.03463 10.7176 5.0115 10.6976 5.0115 10.5967C5.00966 10.1171 5.00872 9.05292 5.00825 9.02935C5.00825 8.99495 5.00825 8.90848 4.97954 8.86476C4.95713 8.83073 4.96413 8.82145 5.03207 8.82085C5.10094 8.82085 5.55785 8.82085 5.7675 8.82045ZM3.85188 9.70798C4.05757 9.71173 4.21747 9.84332 4.21747 10.0319C4.21747 10.2157 4.11941 10.3308 3.85235 10.3464L3.85325 10.718H4.15047C4.96575 10.7174 5.09088 9.65279 4.27375 9.54257C4.77572 9.46029 4.77944 8.52663 3.90113 8.52823H3.85V8.89504C3.94222 8.92432 4.02019 8.99157 4.0216 9.1267C4.0216 9.2571 3.95319 9.33463 3.85094 9.36907L3.85188 9.70798ZM7.39175 10.5837C7.3915 10.4863 7.38963 9.08932 7.38963 9.08932C7.38963 8.94863 7.29182 8.81848 7.10972 8.81926C6.98388 8.81848 6.88582 8.82004 6.85757 8.81926C6.79057 8.81926 6.7845 8.82935 6.80619 8.86754C6.84054 8.90573 6.84054 8.98882 6.84054 9.02285C6.84054 9.05113 6.84238 10.111 6.84379 10.5939C6.84379 10.6911 6.86619 10.715 6.91872 10.715C6.96285 10.7142 7.20357 10.7142 7.2491 10.7142C7.29463 10.7142 7.3915 10.6848 7.39175 10.5837ZM5.76982 10.2861L5.76888 9.6427C5.90616 9.60867 5.97947 9.50201 5.97947 9.38607C5.97947 9.27945 5.94494 9.19279 5.7675 9.1732V8.82045H5.87607C6.79057 8.81926 6.64813 9.72342 6.1415 9.85023C6.1861 9.95607 6.53538 10.5025 6.74666 10.6624C6.7936 10.6956 6.77585 10.7099 6.73616 10.7099C6.67219 10.72 6.34672 10.7309 6.15154 10.6582C5.99816 10.5999 5.86647 10.4402 5.76982 10.2861ZM8.89763 10.2346C8.82385 10.4572 8.7615 10.621 8.75569 10.6446C8.73325 10.7041 8.76735 10.7123 8.80238 10.7123C8.82385 10.7126 8.86379 10.7126 8.89857 10.7123L8.89763 10.2346ZM8.89575 8.84123V9.18942C8.76547 9.18942 8.57169 9.18982 8.55816 9.18982C8.5201 9.18982 8.49535 9.21335 8.49535 9.26245C8.497 9.63498 8.49794 10.5055 8.49794 10.5829C8.49885 10.6842 8.40757 10.7126 8.35597 10.7126H8.04825C8.0025 10.7126 7.97963 10.6895 7.97938 10.5934C7.97938 10.2497 7.97754 9.61104 7.97682 9.26282C7.97682 9.20448 7.9551 9.18982 7.8575 9.19101H7.54325C7.52038 9.19179 7.50919 9.18132 7.50988 9.14729L7.50919 8.85251C7.50966 8.83804 7.52038 8.81767 7.55516 8.81767C7.58925 8.81848 8.55816 8.81767 8.75872 8.81767C8.80913 8.81688 8.85397 8.82698 8.89575 8.84123ZM8.89575 9.18942C8.94688 9.18942 8.99288 9.18904 9.00338 9.18942C9.04354 9.18942 9.04354 9.15995 9.04354 9.09326C9.04354 9.01513 9.01366 8.89385 8.89575 8.84123V9.18942ZM9.55788 8.8161L9.55907 9.42507C9.5126 9.55645 9.45004 9.7262 9.39982 9.88032H9.41547C9.4561 9.84132 9.50138 9.81263 9.56022 9.79345V10.0932C9.4395 10.0932 9.33657 10.094 9.32466 10.094C9.3125 10.1326 9.18294 10.5342 9.1771 10.5581C9.16635 10.5821 9.13716 10.7123 8.9665 10.7126C8.956 10.7126 8.92704 10.7123 8.89857 10.7123L8.89763 10.2346C9.05638 9.75507 9.30038 9.02976 9.31182 9.00504C9.32954 8.96151 9.34007 8.90848 9.29429 8.86476C9.26091 8.83073 9.30038 8.81688 9.34007 8.8161H9.55788ZM14.1243 9.76357C14.1243 9.37798 14.1234 9.02779 14.1234 9.01432C14.1225 8.98029 14.1225 8.89879 14.0952 8.85467C14.072 8.82085 14.0781 8.80679 14.14 8.80679C14.1682 8.80638 14.2308 8.80638 14.3571 8.80638C14.4773 8.80638 14.5406 8.8972 14.5415 8.99929C14.5406 9.04342 14.5429 10.6972 14.5439 10.7057C14.5254 10.7057 14.4115 10.7065 14.3833 10.7065C14.3139 10.7065 14.1948 10.6782 14.0984 10.5755C14.0008 10.4707 13.2285 9.62073 13.1947 9.58551C13.1947 9.65317 13.1953 10.5391 13.1953 10.6019C13.1953 10.6737 13.1449 10.7077 13.0653 10.7085C13.0135 10.7077 12.9117 10.7085 12.8592 10.7085C12.8073 10.7085 12.7844 10.6895 12.7854 10.5922C12.7844 10.1082 12.7821 9.04479 12.7821 9.01592C12.7821 8.98229 12.7821 8.8992 12.7529 8.85545C12.7296 8.82263 12.7296 8.81273 12.7984 8.81273C12.8281 8.81273 12.9252 8.81273 13.0497 8.81232C13.1363 8.81273 13.2848 8.8416 13.3756 8.94707C13.5068 9.09742 14.0566 9.68701 14.1243 9.76357ZM12.0653 9.76713C11.9951 9.68938 11.4464 9.1002 11.3152 8.94904C11.2237 8.8432 11.0757 8.81492 10.9888 8.8141C10.8634 8.81492 10.7673 8.81492 10.7374 8.81492C10.6694 8.81492 10.6701 8.8246 10.6935 8.85823C10.722 8.90235 10.7227 8.98504 10.722 9.01829C10.7227 9.04679 10.7238 10.111 10.7238 10.5947C10.7243 10.6923 10.7479 10.7099 10.7985 10.7107C10.8492 10.7107 10.9529 10.7099 11.0038 10.7099C11.0845 10.7099 11.135 10.6762 11.135 10.6032C11.135 10.5407 11.1331 9.65576 11.1331 9.58788C11.1674 9.62251 11.9398 10.473 12.0376 10.5785C12.1352 10.6798 12.254 10.7093 12.3226 10.7085H12.4833C12.4833 10.6996 12.4805 9.04479 12.4798 9.00207C12.4798 8.89998 12.4179 8.80838 12.297 8.80838C12.1711 8.80838 12.1081 8.80876 12.0798 8.80838C12.0173 8.80838 12.0117 8.82342 12.0341 8.85663C12.0633 8.90076 12.0635 8.98307 12.0635 9.0171C12.0635 9.03017 12.0651 9.37917 12.0653 9.76713ZM15.3872 10.5751C15.3872 10.6713 15.2959 10.7057 15.2452 10.7057C15.1985 10.7053 14.9658 10.7057 14.9142 10.7057C14.8626 10.7057 14.8392 10.6822 14.8388 10.5856C14.8388 10.1017 14.8378 9.04263 14.8378 9.01432C14.8378 8.98029 14.8367 8.8972 14.8084 8.85251C14.7853 8.82045 14.7907 8.81035 14.8539 8.81035C14.8824 8.81035 14.9795 8.81035 15.1054 8.80957C15.2882 8.80957 15.3841 8.93976 15.3844 9.08082C15.3844 9.08082 15.3872 10.4734 15.3872 10.5751ZM9.56022 10.0932V9.79345C9.60529 9.7786 9.655 9.76932 9.71291 9.76932C9.67813 9.6771 9.56419 9.39657 9.56419 9.39657L9.55907 9.42507L9.55788 8.8161H9.76916C9.82566 8.81195 9.92794 8.83963 9.97954 8.94588C10.0251 9.05251 10.6456 10.6141 10.6557 10.6485C10.6723 10.6919 10.6557 10.7107 10.6164 10.7099C10.5252 10.7107 10.1941 10.7111 10.171 10.7107C10.1362 10.7111 10.0799 10.7208 10.0344 10.6007C10.0097 10.5334 9.85066 10.1227 9.83875 10.0928C9.82079 10.0932 9.68466 10.0932 9.56022 10.0932ZM16.2916 8.8046L16.2928 9.41773C16.248 9.54951 16.1898 9.71807 16.1343 9.87298L16.156 9.87379C16.1966 9.83442 16.2419 9.80532 16.2949 9.78595L16.2944 10.0855C16.18 10.0867 16.0701 10.0867 16.0652 10.0867C16.054 10.1249 15.9242 10.5213 15.9186 10.55C15.9073 10.5739 15.8789 10.7045 15.7021 10.7045C15.6848 10.7049 15.5819 10.7049 15.5429 10.7049C15.5028 10.7049 15.4679 10.6952 15.4904 10.6377C15.5242 10.5654 16.0351 9.03054 16.0463 8.99692C16.0645 8.95438 16.0808 8.90038 16.0281 8.85251C15.9956 8.82342 16.0409 8.8046 16.0806 8.8046H16.2916ZM16.2944 10.0855L16.2949 9.78595C16.3395 9.77051 16.3911 9.76201 16.4532 9.76201C16.4196 9.66979 16.3045 9.38885 16.3045 9.38885L16.2928 9.41773L16.2916 8.8046C16.3948 8.80382 16.4917 8.80382 16.509 8.80382C16.5664 8.80382 16.6685 8.82817 16.7217 8.93817C16.7723 9.0452 17.3913 10.6072 17.4034 10.6412C17.4193 10.6842 17.4025 10.7029 17.3628 10.7029H16.9176C16.883 10.7041 16.8256 10.7134 16.7793 10.5934C16.7518 10.5261 16.5858 10.1149 16.573 10.0863C16.5613 10.0855 16.4252 10.0855 16.2944 10.0855Z" fill="white"/>
</g>
<defs>
<clipPath id="clip0_3396_72148">
<rect width="19.375" height="19.375" fill="white" transform="scale(1.03226)"/>
</clipPath>
</defs>
</svg>
