<svg width="24" height="24" viewBox="0 0 24 24" fill="none" xmlns="http://www.w3.org/2000/svg">
<g clip-path="url(#clip0_6029_6627)">
<g clip-path="url(#clip1_6029_6627)">
<g clip-path="url(#clip2_6029_6627)">
<path d="M11.7817 5.63145L11.3598 5.38574L11.1335 5.51781L11.5524 5.76352L11.7817 5.63145Z" fill="#EBF7FF" stroke="black" stroke-width="0.075"/>
<path d="M11.5527 5.76427L11.1338 5.51855L10.6752 5.78577L11.0972 6.03148L11.5527 5.76427Z" fill="#017AFF" stroke="black" stroke-width="0.075"/>
<path d="M10.8671 6.16221L10.8733 8.89269L11.7905 8.36133L11.7814 5.63086L11.552 5.76293L11.0965 6.03014L10.8671 6.16221Z" fill="#EBF7FF" stroke="black" stroke-width="0.075"/>
<path d="M10.8679 6.1627L10.446 5.91699L10.4551 8.64747L10.874 8.89318L10.8679 6.1627Z" fill="#017AFF" stroke="black" stroke-width="0.075"/>
<path d="M11.0972 6.02989L10.6752 5.78418L10.4459 5.91625L10.8679 6.16196L11.0972 6.02989Z" fill="#017AFF" stroke="black" stroke-width="0.075"/>
<path d="M11.543 2.52892L11.1241 2.2832L10.6654 2.54734L11.0874 2.79306L11.543 2.52892Z" fill="#017AFF" stroke="black" stroke-width="0.075"/>
<path d="M11.088 2.79356L10.6661 2.54785L10.6752 5.78511L11.0972 6.03082L11.088 2.79356Z" fill="#017AFF" stroke="black" stroke-width="0.075"/>
<path d="M11.088 2.79344L11.0972 6.03069L11.5527 5.76348L11.5436 2.5293L11.088 2.79344Z" fill="#EBF7FF" stroke="black" stroke-width="0.075"/>
<path d="M4.36719 9.93126L3.9483 9.68555L3.71899 9.81762L4.14093 10.0633L4.36719 9.93126Z" fill="#017AFF" stroke="black" stroke-width="0.075"/>
<path d="M4.14014 10.0641L3.71819 9.81836L3.25956 10.0856L3.6815 10.3313L4.14014 10.0641Z" fill="#017AFF" stroke="black" stroke-width="0.075"/>
<path d="M3.45177 10.4635L3.03288 10.2178L3.039 12.9482L3.46094 13.194L3.45177 10.4635Z" fill="#017AFF" stroke="black" stroke-width="0.075"/>
<path d="M3.68262 10.3297L3.26067 10.084L3.03442 10.2161L3.4533 10.4618L3.68262 10.3297Z" fill="#017AFF" stroke="black" stroke-width="0.075"/>
<path d="M3.45259 10.463L3.46177 13.1935L4.37598 12.6621L4.3668 9.93164L4.14054 10.0637L3.68191 10.3309L3.45259 10.463Z" fill="#EBF7FF" stroke="black" stroke-width="0.075"/>
<path d="M3.67296 7.09337L3.25101 6.84766L3.26019 10.0849L3.68213 10.3306L3.67296 7.09337Z" fill="#017AFF" stroke="black" stroke-width="0.075"/>
<path d="M4.13232 6.8297L3.71038 6.58398L3.25175 6.84812L3.67369 7.09384L4.13232 6.8297Z" fill="#017AFF" stroke="black" stroke-width="0.075"/>
<path d="M3.67282 7.09422L3.68199 10.3315L4.14062 10.0643L4.13145 6.83008L3.67282 7.09422Z" fill="#EBF7FF" stroke="black" stroke-width="0.075"/>
<path d="M11.3777 17.6029C10.7784 17.95 10.2953 18.7915 10.2984 19.4826V20.9415C10.3045 21.6326 10.7906 21.9121 11.3899 21.565L18.1532 17.6428L21.0426 15.9659C21.645 15.6157 22.125 14.7742 22.125 14.0831V12.6242C22.1189 11.9331 21.6327 11.6536 21.0335 12.0007L14.7104 15.6679L11.3777 17.6029ZM17.7772 16.3774V15.3761L18.462 14.9769V15.9781L17.7772 16.3774ZM14.3466 18.3677V17.3664L15.0315 16.9671V17.9684L14.3466 18.3677ZM19.4924 15.3823V14.381L20.1773 13.9817V14.983L19.4924 15.3823ZM16.0619 17.3726V16.3713L16.7437 15.972V16.9733L16.0619 17.3726ZM12.3775 18.81L12.246 18.727C12.4264 18.4076 12.6588 18.165 12.8942 18.0298C13.1327 17.8916 13.3712 17.864 13.5516 17.9776L13.4201 18.2141C13.2764 18.122 13.0838 18.1435 12.8942 18.254C12.7077 18.3615 12.5212 18.555 12.3775 18.81ZM12.5426 18.9728L12.4111 18.8898L12.4172 18.8806C12.5487 18.6441 12.723 18.466 12.8973 18.3646C13.0746 18.2633 13.2489 18.2418 13.3834 18.3278H13.3896L13.2581 18.5673C13.1602 18.5059 13.0288 18.5213 12.9003 18.595C12.7719 18.6687 12.6466 18.8008 12.5487 18.9728H12.5426ZM12.7108 19.1355L12.5793 19.0526V19.0465C12.671 18.8929 12.7842 18.7731 12.8973 18.7086C13.0135 18.641 13.1297 18.6288 13.2153 18.684H13.2183L13.0869 18.9205C13.0349 18.8868 12.9676 18.896 12.8973 18.9359C12.83 18.9758 12.7628 19.0434 12.7108 19.1355ZM12.8973 19.286C12.8331 19.3229 12.7811 19.2891 12.7811 19.2123C12.7811 19.1355 12.8331 19.0403 12.8973 19.0035C12.9615 18.9666 13.0165 19.0004 13.0135 19.0772C13.0135 19.154 12.9615 19.2492 12.8973 19.286Z" fill="#EBF7FF" stroke="black" stroke-width="0.075"/>
<path d="M16.0562 16.3719L16.0592 17.3732L16.7441 16.9739L16.7411 15.9727L16.0562 16.3719Z" fill="#017AFF"/>
<path d="M17.772 15.3778L17.7751 16.3791L18.46 15.9798L18.4569 14.9785L17.772 15.3778Z" fill="#017AFF"/>
<path d="M14.3418 17.3671L14.3449 18.3683L15.0298 17.969L15.0267 16.9678L14.3418 17.3671Z" fill="#017AFF"/>
<path d="M19.4878 14.3827L19.4909 15.384L20.1758 14.9847L20.1727 13.9834L19.4878 14.3827Z" fill="#017AFF"/>
<path d="M12.8947 18.3632C12.7204 18.4646 12.5492 18.6427 12.4147 18.8792L12.4086 18.8884L12.54 18.9714C12.6379 18.7994 12.7663 18.6673 12.8916 18.5936C13.0201 18.5168 13.1515 18.5045 13.2494 18.5659L13.3809 18.3294H13.3747C13.2402 18.2404 13.0629 18.2619 12.8886 18.3632H12.8947Z" fill="#017AFF"/>
<path d="M12.8971 19.0013C12.8329 19.0381 12.7809 19.1334 12.7779 19.2101C12.7779 19.29 12.8299 19.3207 12.8941 19.2839C12.9583 19.247 13.0103 19.1549 13.0103 19.075C13.0103 18.9982 12.9583 18.9644 12.8941 19.0013H12.8971Z" fill="#017AFF"/>
<path d="M12.8944 18.0285C12.659 18.1636 12.4266 18.4063 12.2462 18.7257L12.3777 18.8086C12.5214 18.5537 12.7079 18.3602 12.8944 18.2527C13.084 18.1421 13.2735 18.1206 13.4203 18.2128L13.5518 17.9763C13.3714 17.8596 13.1329 17.8872 12.8944 18.0285Z" fill="#017AFF"/>
<path d="M12.8938 18.7064C12.7807 18.7709 12.6675 18.8907 12.5789 19.0443V19.0504L12.7073 19.1333C12.7593 19.0412 12.8265 18.9736 12.8938 18.9337C12.9611 18.8938 13.0314 18.8846 13.0834 18.9183L13.2148 18.6818H13.2118C13.1231 18.6235 13.0069 18.6358 12.8938 18.7033V18.7064Z" fill="#017AFF"/>
<path d="M6.28709 10.751L12.6101 7.08379C12.6101 7.08379 12.6346 7.07151 12.6438 7.06537C12.6468 7.06537 12.6529 7.06229 12.656 7.05922C12.6621 7.05615 12.6682 7.05308 12.6743 7.05001C12.6774 7.05001 12.6835 7.04387 12.6866 7.04387C12.6927 7.04079 12.7018 7.03772 12.708 7.03465C12.7141 7.03465 12.7171 7.02851 12.7232 7.02851C12.7232 7.02851 12.7263 7.02851 12.7294 7.02544C12.7447 7.01929 12.7569 7.01315 12.7722 7.00701C12.7875 7.00087 12.8027 6.99472 12.815 6.99165C12.815 6.99165 12.818 6.99165 12.8211 6.99165C12.8272 6.99165 12.8303 6.98858 12.8364 6.98551C12.8425 6.98551 12.8517 6.97937 12.8578 6.97937C12.8608 6.97937 12.8639 6.97937 12.87 6.97937C12.8761 6.97937 12.8822 6.97629 12.8884 6.97322C12.8945 6.97322 12.8975 6.97322 12.9036 6.97015C12.9098 6.97015 12.9128 6.97015 12.9189 6.96708C12.925 6.96708 12.9312 6.96708 12.9373 6.96401C12.9403 6.96401 12.9434 6.96401 12.9464 6.96401C12.9526 6.96401 12.9587 6.96401 12.9648 6.96401C12.9709 6.96401 12.9801 6.96401 12.9862 6.96094C12.9862 6.96094 12.9923 6.96094 12.9954 6.96094C13.0015 6.96094 13.0076 6.96094 13.0137 6.96094C13.0229 6.96094 13.029 6.96094 13.0382 6.96094H13.0443C13.0504 6.96094 13.0535 6.96094 13.0596 6.96094C13.0688 6.96094 13.0779 6.96094 13.0871 6.96094C13.0871 6.96094 13.0932 6.96094 13.0963 6.96094C13.0993 6.96094 13.1054 6.96094 13.1085 6.96094C13.1207 6.96094 13.1299 6.96094 13.1421 6.96094C13.1452 6.96094 13.1482 6.96094 13.1513 6.96094H13.1574C13.1758 6.96094 13.1911 6.96401 13.2094 6.96708C13.2094 6.96708 13.2094 6.96708 13.2125 6.96708C13.2155 6.96708 13.2186 6.96708 13.2216 6.96708C13.2308 6.96708 13.243 6.97322 13.2522 6.97322C13.2583 6.97322 13.2614 6.97629 13.2675 6.97629C13.2736 6.97629 13.2797 6.97937 13.2858 6.98244C13.2858 6.98244 13.2889 6.98244 13.292 6.98244C13.3011 6.98551 13.3103 6.98858 13.3195 6.99472C13.3256 6.99472 13.3286 6.99779 13.3348 7.00087C13.35 7.00701 13.3623 7.01315 13.3745 7.02237L21.8042 11.9274C21.8042 11.9274 21.7767 11.912 21.7645 11.9059C21.7614 11.9059 21.7553 11.9028 21.7492 11.8997C21.74 11.8967 21.7308 11.8905 21.7216 11.8875C21.7125 11.8875 21.7064 11.8813 21.6972 11.8782C21.6911 11.8782 21.688 11.8752 21.6819 11.8752C21.6727 11.8752 21.6605 11.869 21.6513 11.869C21.6483 11.869 21.6452 11.869 21.6421 11.869C21.6421 11.869 21.6391 11.869 21.636 11.869C21.6207 11.866 21.6024 11.8629 21.5841 11.8629C21.5779 11.8629 21.5718 11.8629 21.5657 11.8629C21.5535 11.8629 21.5443 11.8629 21.5321 11.8629C21.526 11.8629 21.5198 11.8629 21.5137 11.8629C21.5046 11.8629 21.4954 11.8629 21.4862 11.8629C21.4801 11.8629 21.4709 11.8629 21.4648 11.8629C21.4556 11.8629 21.4495 11.8629 21.4403 11.8629C21.4312 11.8629 21.422 11.8629 21.4159 11.866C21.4098 11.866 21.4006 11.866 21.3945 11.869C21.3853 11.869 21.3761 11.8721 21.367 11.8752C21.3609 11.8752 21.3547 11.8752 21.3486 11.8782C21.3395 11.8782 21.3272 11.8844 21.318 11.8844C21.3119 11.8844 21.3058 11.8875 21.2997 11.8905C21.2875 11.8936 21.2783 11.8967 21.2661 11.8997C21.26 11.8997 21.2569 11.9028 21.2508 11.9059C21.2355 11.912 21.2171 11.9182 21.2019 11.9243C21.1866 11.9305 21.1682 11.9397 21.1529 11.9458C21.1468 11.9458 21.1438 11.952 21.1377 11.952C21.1254 11.9581 21.1132 11.9642 21.101 11.9704C21.0948 11.9704 21.0887 11.9765 21.0826 11.9796C21.0673 11.9888 21.052 11.998 21.0337 12.0072L14.7107 15.6745L11.3779 17.6095L2.95435 12.6922L6.28709 10.7603V10.751Z" fill="#017AFF" stroke="black" stroke-width="0.075"/>
<path d="M1.8751 14.5167C1.8751 14.5167 1.8751 14.5105 1.8751 14.5075C1.8751 14.5013 1.8751 14.4952 1.8751 14.489C1.8751 14.4798 1.8751 14.4737 1.8751 14.4645C1.8751 14.4583 1.8751 14.4522 1.8751 14.446C1.8751 14.4399 1.8751 14.4307 1.8751 14.4245C1.8751 14.4215 1.8751 14.4153 1.8751 14.4092C1.8751 14.4 1.8751 14.3877 1.87816 14.3785C1.87816 14.3723 1.87816 14.3662 1.87816 14.36C1.87816 14.36 1.87816 14.357 1.87816 14.3539C1.87816 14.3355 1.88428 14.317 1.88733 14.2986C1.88733 14.2986 1.88733 14.2925 1.88733 14.2894C1.88733 14.274 1.89345 14.2587 1.89651 14.2433C1.89651 14.2433 1.89651 14.2372 1.89651 14.2341C1.89651 14.228 1.89651 14.2187 1.89956 14.2126C1.89956 14.2034 1.90262 14.1942 1.90568 14.185C1.90568 14.1788 1.90568 14.1757 1.90874 14.1696C1.90874 14.1604 1.9118 14.1542 1.91485 14.145C1.91485 14.1389 1.91485 14.1327 1.91791 14.1266C1.91791 14.1205 1.92097 14.1112 1.92403 14.1051C1.92403 14.0959 1.92708 14.0897 1.93014 14.0805C1.93014 14.0775 1.93014 14.0713 1.9332 14.0682C1.9332 14.059 1.93931 14.0467 1.94237 14.0375C1.94237 14.0314 1.94543 14.0252 1.94849 14.016C1.94849 14.016 1.94849 14.013 1.94849 14.0099C1.9546 13.9915 1.96072 13.973 1.96683 13.9546C1.96683 13.9546 1.96683 13.9515 1.96683 13.9485C1.97295 13.9331 1.97906 13.9147 1.98518 13.8993C1.98518 13.8993 1.98518 13.8932 1.98518 13.8901C1.98518 13.884 1.99129 13.8778 1.99129 13.8717C1.99435 13.8625 1.99741 13.8532 2.00046 13.844C2.00046 13.8379 2.00658 13.8317 2.00658 13.8256C2.00658 13.8195 2.0127 13.8102 2.01575 13.8041C2.01575 13.798 2.01881 13.7949 2.02187 13.7887C2.02493 13.7795 2.03104 13.7672 2.0341 13.758C2.0341 13.7519 2.03715 13.7457 2.04021 13.7427C2.04021 13.7427 2.04021 13.7396 2.04021 13.7365C2.04939 13.7181 2.0555 13.7027 2.06467 13.6843C2.06467 13.6782 2.07079 13.6751 2.07079 13.669C2.07691 13.6567 2.08302 13.6413 2.08913 13.629C2.08913 13.629 2.08914 13.626 2.09219 13.6229C2.09831 13.6106 2.10442 13.6014 2.11054 13.5891C2.1136 13.5799 2.11971 13.5707 2.12277 13.5615C2.12277 13.5615 2.12277 13.5584 2.12277 13.5553C2.13806 13.5277 2.15334 13.5 2.16863 13.4724C2.16863 13.4724 2.16863 13.4662 2.17169 13.4662C2.17474 13.4601 2.18086 13.4509 2.18392 13.4447C2.19003 13.4325 2.19615 13.4232 2.20532 13.411C2.21144 13.4017 2.21755 13.3925 2.22367 13.3802C2.22978 13.368 2.23896 13.3587 2.24507 13.3465C2.24507 13.3434 2.25118 13.3403 2.25118 13.3342C2.25118 13.3311 2.2573 13.328 2.2573 13.325C2.2787 13.2943 2.29705 13.2666 2.31845 13.2359C2.33374 13.2144 2.34903 13.196 2.36432 13.1745C2.37654 13.1591 2.38572 13.1468 2.39795 13.1315C2.39795 13.1315 2.401 13.1253 2.40406 13.1223C2.41935 13.1069 2.43158 13.0885 2.44687 13.0731C2.44993 13.067 2.45604 13.0639 2.4591 13.0578C2.46827 13.0485 2.47744 13.0363 2.48662 13.027C2.48662 13.027 2.48967 13.024 2.49273 13.0209C2.49885 13.0148 2.50496 13.0086 2.51108 13.0025C2.51719 12.9963 2.52331 12.9871 2.53248 12.981C2.53248 12.981 2.53859 12.9748 2.54165 12.9718C2.54777 12.9656 2.55388 12.9595 2.56306 12.9503C2.56917 12.9441 2.57529 12.938 2.5814 12.9318C2.58446 12.9288 2.58752 12.9257 2.59057 12.9226C2.59669 12.9165 2.60586 12.9073 2.61198 12.9011C2.61809 12.895 2.62115 12.8919 2.62726 12.8858C2.63032 12.8827 2.63644 12.8796 2.63949 12.8765C2.64561 12.8704 2.65478 12.8643 2.6609 12.8581C2.66395 12.855 2.67007 12.8489 2.67313 12.8458C2.67924 12.8428 2.6823 12.8366 2.68842 12.8335C2.69453 12.8274 2.7037 12.8213 2.70982 12.8151C2.71288 12.812 2.71593 12.809 2.72205 12.8059C2.72816 12.7998 2.73428 12.7967 2.74039 12.7905C2.74651 12.7844 2.75262 12.7813 2.7618 12.7752C2.7618 12.7752 2.76791 12.7721 2.77097 12.769C2.78014 12.7629 2.78931 12.7568 2.79543 12.7506C2.80155 12.7475 2.80766 12.7414 2.81378 12.7383C2.81378 12.7383 2.81378 12.7383 2.81683 12.7353C2.83212 12.726 2.84741 12.7138 2.8627 12.7045C2.8627 12.7045 2.8627 12.7045 2.86575 12.7045C2.88104 12.6953 2.89327 12.6861 2.90856 12.68C2.91162 12.68 2.91467 12.6769 2.91773 12.6738L11.3413 17.5911C11.323 17.6004 11.3046 17.6126 11.2893 17.6219C11.2893 17.6219 11.2893 17.6219 11.2863 17.6219C11.2679 17.6341 11.2526 17.6434 11.2343 17.6556C11.2282 17.6587 11.2221 17.6649 11.2159 17.6679C11.2037 17.6771 11.1945 17.6833 11.1823 17.6925C11.1762 17.6986 11.1701 17.7017 11.1609 17.7079C11.1517 17.7171 11.1395 17.7232 11.1303 17.7324C11.1242 17.7386 11.115 17.7447 11.1089 17.7509C11.0998 17.7601 11.0906 17.7662 11.0814 17.7754C11.0753 17.7816 11.0661 17.7877 11.06 17.7939C11.0508 17.8031 11.0417 17.8092 11.0325 17.8184C11.0264 17.8246 11.0172 17.8307 11.0111 17.8399C11.0019 17.8491 10.9927 17.8584 10.9836 17.8676C10.9775 17.8737 10.9713 17.8799 10.9622 17.8891C10.953 17.8983 10.9438 17.9075 10.9347 17.9198C10.9285 17.9259 10.9224 17.9321 10.9163 17.9382C10.9041 17.9505 10.8949 17.9628 10.8827 17.9751C10.8796 17.9812 10.8735 17.9843 10.8704 17.9904C10.8552 18.0088 10.8399 18.0242 10.8246 18.0426C10.8246 18.0426 10.8215 18.0488 10.8185 18.0518C10.8062 18.0672 10.794 18.0826 10.7818 18.0979C10.7665 18.1163 10.7512 18.1378 10.7359 18.1593C10.7145 18.187 10.6931 18.2177 10.6748 18.2484C10.6686 18.2546 10.6656 18.2638 10.6595 18.2699C10.6534 18.2822 10.6442 18.2914 10.6381 18.3037C10.632 18.3129 10.6258 18.3221 10.6197 18.3344C10.6136 18.3467 10.6075 18.3559 10.5983 18.3682C10.5922 18.3774 10.5861 18.3866 10.583 18.3958C10.5677 18.4235 10.5525 18.4511 10.5372 18.4788C10.5311 18.488 10.5249 18.5003 10.5219 18.5095C10.5158 18.5218 10.5097 18.531 10.5035 18.5433C10.4944 18.5586 10.4882 18.574 10.4821 18.5893C10.4821 18.5955 10.476 18.5986 10.476 18.6047C10.4668 18.6262 10.4577 18.6446 10.4485 18.6661C10.4485 18.6723 10.4424 18.6784 10.4424 18.6815C10.4363 18.6968 10.4302 18.7122 10.424 18.7276C10.424 18.7337 10.4179 18.7429 10.4149 18.7491C10.4088 18.7644 10.4026 18.7767 10.3996 18.7921C10.3996 18.7982 10.3935 18.8043 10.3935 18.8105C10.3874 18.8289 10.3812 18.8473 10.3721 18.8688C10.3721 18.8688 10.3721 18.8719 10.3721 18.875C10.3659 18.8965 10.3598 18.918 10.3537 18.9364C10.3537 18.9426 10.3507 18.9487 10.3476 18.9579C10.3445 18.9733 10.3384 18.9856 10.3354 19.0009C10.3354 19.0101 10.3323 19.0163 10.3293 19.0255C10.3262 19.0378 10.3231 19.0531 10.3201 19.0654C10.3201 19.0746 10.317 19.0808 10.314 19.09C10.3109 19.1053 10.3079 19.1176 10.3048 19.133C10.3048 19.1391 10.3048 19.1483 10.3017 19.1545C10.2987 19.1729 10.2956 19.1913 10.2926 19.2098V19.2159C10.2895 19.2374 10.2865 19.2558 10.2834 19.2773C10.2834 19.2835 10.2834 19.2896 10.2834 19.2958C10.2834 19.3111 10.2803 19.3265 10.2803 19.3388C10.2803 19.3449 10.2803 19.3541 10.2803 19.3603C10.2803 19.3756 10.2803 19.3879 10.2803 19.4033C10.2803 19.4094 10.2803 19.4156 10.2803 19.4217C10.2803 19.4401 10.2803 19.4616 10.2803 19.4801V20.939H10.2834C10.2834 20.9605 10.2834 20.9789 10.2834 20.9973C10.2834 21.0035 10.2834 21.0096 10.2834 21.0127C10.2834 21.025 10.2834 21.0403 10.2834 21.0526C10.2834 21.0588 10.2834 21.068 10.2834 21.0741C10.2834 21.0864 10.2834 21.0956 10.2865 21.1079C10.2865 21.1171 10.2865 21.1232 10.2895 21.1325C10.2895 21.1417 10.2926 21.1509 10.2956 21.1632C10.2956 21.1724 10.2987 21.1816 10.3017 21.1877C10.3017 21.197 10.3048 21.2062 10.3079 21.2123C10.3079 21.2215 10.314 21.2338 10.317 21.243C10.317 21.2492 10.3201 21.2584 10.3231 21.2645C10.3262 21.2768 10.3293 21.2891 10.3354 21.2983C10.3354 21.3045 10.3384 21.3106 10.3415 21.3167C10.3476 21.3352 10.3568 21.3536 10.3659 21.372C10.3721 21.3843 10.3782 21.3997 10.3874 21.412C10.3935 21.4242 10.4026 21.4365 10.4088 21.4488C10.4088 21.4488 10.4118 21.455 10.4149 21.455C10.421 21.4642 10.4271 21.4734 10.4332 21.4826C10.4332 21.4857 10.4393 21.4887 10.4424 21.4918C10.4485 21.501 10.4546 21.5072 10.4607 21.5133C10.4607 21.5133 10.4668 21.5195 10.4668 21.5225C10.476 21.5317 10.4852 21.541 10.4944 21.5502C10.4944 21.5502 10.4944 21.5502 10.4974 21.5532C10.5066 21.5625 10.5127 21.5686 10.5219 21.5747C10.5249 21.5747 10.528 21.5809 10.5311 21.5809C10.5372 21.587 10.5463 21.5932 10.5525 21.5962C10.5555 21.5962 10.5586 21.5993 10.5616 21.6024C10.5708 21.6085 10.583 21.6177 10.5953 21.6239L2.17169 16.7066C2.17169 16.7066 2.15028 16.6943 2.13805 16.6851C2.135 16.6851 2.13194 16.682 2.12888 16.6789C2.12277 16.6728 2.11359 16.6666 2.10748 16.6605C2.10442 16.6605 2.10136 16.6544 2.09831 16.6544C2.08913 16.6482 2.08302 16.639 2.07385 16.6329C2.07385 16.6329 2.07385 16.6329 2.07079 16.6298C2.06162 16.6206 2.05244 16.6114 2.04327 16.6021C2.04327 16.6021 2.03716 16.596 2.03716 16.5929C2.03104 16.5868 2.02492 16.5776 2.01881 16.5714C2.01881 16.5684 2.01269 16.5653 2.00964 16.5622C2.00352 16.553 1.99741 16.5438 1.99129 16.5346C1.99129 16.5346 1.98823 16.5284 1.98518 16.5284C1.97906 16.5161 1.96989 16.5039 1.96377 16.4916C1.95766 16.4793 1.95154 16.467 1.94543 16.4547C1.93626 16.4363 1.93014 16.4179 1.92097 16.3994C1.92097 16.3994 1.92097 16.3964 1.92097 16.3933C1.92097 16.3902 1.92097 16.3841 1.91791 16.381C1.91485 16.3687 1.90874 16.3595 1.90568 16.3472C1.90568 16.3442 1.90568 16.3411 1.90568 16.338C1.90568 16.3349 1.90568 16.3288 1.90262 16.3257C1.90262 16.3165 1.89651 16.3073 1.89345 16.295C1.89345 16.2919 1.89345 16.2858 1.89039 16.2827C1.89039 16.2797 1.89039 16.2735 1.89039 16.2674C1.89039 16.2582 1.88734 16.2489 1.88428 16.2428C1.88428 16.2397 1.88428 16.2336 1.88428 16.2305C1.88428 16.2244 1.88428 16.2182 1.88428 16.2152C1.88428 16.2059 1.88428 16.1998 1.88122 16.1906C1.88122 16.1875 1.88122 16.1814 1.88122 16.1783C1.88122 16.1722 1.88122 16.1629 1.88122 16.1568C1.88122 16.1507 1.88122 16.1414 1.88122 16.1353C1.88122 16.1353 1.88122 16.1292 1.88122 16.1261C1.88122 16.1169 1.88122 16.1046 1.88122 16.0954C1.88122 16.0892 1.88122 16.0831 1.88122 16.08C1.88122 16.08 1.88122 16.08 1.88122 16.0769C1.88122 16.0585 1.88122 16.0432 1.88122 16.0247L1.87816 14.5627C1.87816 14.5474 1.87816 14.529 1.87816 14.5136L1.8751 14.5167Z" fill="#017AFF" stroke="black" stroke-width="0.075"/>
<circle cx="21.675" cy="3.675" r="1.8" fill="#DF3C27"/>
</g>
</g>
</g>
<defs>
<clipPath id="clip0_6029_6627">
<rect width="24" height="24" fill="white"/>
</clipPath>
<clipPath id="clip1_6029_6627">
<rect width="24" height="24" fill="white" transform="matrix(-1 0 0 1 24 0)"/>
</clipPath>
<clipPath id="clip2_6029_6627">
<rect width="24" height="24" fill="white" transform="matrix(-1 0 0 1 24 0)"/>
</clipPath>
</defs>
</svg>
