<svg width="24" height="24" viewBox="0 0 24 24" fill="none" xmlns="http://www.w3.org/2000/svg">
<g clip-path="url(#clip0_4022_82895)">
<g clip-path="url(#clip1_4022_82895)">
<path d="M12.2025 6.1054L12.5931 5.87793L12.8026 6.00019L12.4148 6.22766L12.2025 6.1054Z" fill="currentColor" stroke="currentColor" stroke-width="0.079397"/>
<path d="M12.4142 6.22845L12.802 6.00098L13.2266 6.24835L12.8359 6.47582L12.4142 6.22845Z" fill="currentColor"/>
<path d="M13.0492 6.59639L13.0435 9.12414L12.1943 8.63224L12.2028 6.10449L12.4151 6.22676L12.8369 6.47413L13.0492 6.59639Z" fill="currentColor" stroke="currentColor" stroke-width="0.079397"/>
<path d="M13.0483 6.59759L13.4389 6.37012L13.4304 8.89786L13.0426 9.12533L13.0483 6.59759Z" fill="currentColor" stroke="currentColor" stroke-width="0.079397"/>
<path d="M12.8363 6.47552L13.2269 6.24805L13.4392 6.37031L13.0486 6.59778L12.8363 6.47552Z" fill="currentColor" stroke="currentColor" stroke-width="0.079397"/>
<path d="M12.4233 3.23333L12.8111 3.00586L13.2357 3.25039L12.8451 3.47786L12.4233 3.23333Z" fill="currentColor" stroke="currentColor" stroke-width="0.079397"/>
<path d="M12.8448 3.47747L13.2354 3.25L13.2269 6.2469L12.8363 6.47437L12.8448 3.47747Z" fill="currentColor" stroke="currentColor" stroke-width="0.079397"/>
<path d="M12.8444 3.47793L12.8359 6.47483L12.4142 6.22745L12.4227 3.2334L12.8444 3.47793Z" fill="currentColor" stroke="currentColor" stroke-width="0.079397"/>
<path d="M19.0662 10.0859L19.4539 9.8584L19.6662 9.98066L19.2756 10.2081L19.0662 10.0859Z" fill="currentColor"/>
<path d="M19.2767 10.2079L19.6673 9.98047L20.0919 10.2278L19.7013 10.4553L19.2767 10.2079Z" fill="currentColor"/>
<path d="M19.9136 10.5781L20.3014 10.3506L20.2957 12.8783L19.9051 13.1058L19.9136 10.5781Z" fill="currentColor" stroke="currentColor" stroke-width="0.079397"/>
<path d="M19.7 10.455L20.0906 10.2275L20.3 10.3498L19.9122 10.5773L19.7 10.455Z" fill="currentColor" stroke="currentColor" stroke-width="0.079397"/>
<path d="M19.9131 10.5778L19.9046 13.1056L19.0583 12.6137L19.0668 10.0859L19.2762 10.2082L19.7008 10.4556L19.9131 10.5778Z" fill="currentColor" stroke="currentColor" stroke-width="0.079397"/>
<path d="M19.7097 7.45891L20.1003 7.23145L20.0918 10.2283L19.7012 10.4558L19.7097 7.45891Z" fill="currentColor" stroke="currentColor" stroke-width="0.079397"/>
<path d="M19.2845 7.21477L19.6751 6.9873L20.0997 7.23183L19.7091 7.4593L19.2845 7.21477Z" fill="currentColor" stroke="currentColor" stroke-width="0.079397"/>
<path d="M19.7097 7.45937L19.7012 10.4563L19.2766 10.2089L19.2851 7.21484L19.7097 7.45937Z" fill="currentColor" stroke="currentColor" stroke-width="0.079397"/>
<path d="M12.5761 17.1876C13.1309 17.5089 13.5781 18.288 13.5753 18.9277V20.2783C13.5696 20.9181 13.1195 21.1768 12.5648 20.8555L6.30359 17.2246L3.62872 15.6721C3.0711 15.348 2.62671 14.5689 2.62671 13.9291V12.5785C2.63237 11.9388 3.08243 11.68 3.63721 12.0013L9.49078 15.3963L12.5761 17.1876ZM6.65174 16.0531V15.1262L6.0177 14.7565V15.6835L6.65174 16.0531ZM9.82762 17.8956V16.9687L9.19357 16.599V17.526L9.82762 17.8956ZM5.06381 15.1319V14.2049L4.42977 13.8353V14.7622L5.06381 15.1319ZM8.23968 16.9744V16.0474L7.60847 15.6778V16.6047L8.23968 16.9744ZM11.6505 18.3051L11.7722 18.2283C11.6052 17.9326 11.3901 17.7079 11.1721 17.5828C10.9513 17.4549 10.7306 17.4293 10.5636 17.5345L10.6853 17.7534C10.8183 17.6681 10.9966 17.688 11.1721 17.7904C11.3448 17.8899 11.5175 18.0691 11.6505 18.3051ZM11.4976 18.4557L11.6194 18.379L11.6137 18.3704C11.492 18.1515 11.3306 17.9866 11.1693 17.8928C11.0051 17.7989 10.8438 17.779 10.7192 17.8586H10.7136L10.8353 18.0804C10.9259 18.0236 11.0476 18.0378 11.1665 18.106C11.2853 18.1743 11.4014 18.2965 11.492 18.4557H11.4976ZM11.342 18.6064L11.4637 18.5297V18.524C11.3788 18.3818 11.274 18.2709 11.1693 18.2112C11.0617 18.1487 10.9542 18.1373 10.8749 18.1885H10.8721L10.9938 18.4074C11.0419 18.3761 11.1042 18.3847 11.1693 18.4216C11.2316 18.4586 11.2938 18.5211 11.342 18.6064ZM11.1693 18.7458C11.2287 18.7799 11.2769 18.7486 11.2769 18.6775C11.2769 18.6064 11.2287 18.5183 11.1693 18.4842C11.1099 18.4501 11.0589 18.4813 11.0617 18.5524C11.0617 18.6235 11.1099 18.7117 11.1693 18.7458Z" fill="currentColor" stroke="currentColor" stroke-width="0.079397"/>
<path d="M8.2446 16.0474L8.24177 16.9743L7.60773 16.6047L7.61056 15.6777L8.2446 16.0474Z" fill="currentColor"/>
<path d="M6.65616 15.1265L6.65333 16.0534L6.01929 15.6838L6.02212 14.7568L6.65616 15.1265Z" fill="currentColor"/>
<path d="M9.83164 16.9692L9.82881 17.8962L9.19476 17.5265L9.19759 16.5996L9.83164 16.9692Z" fill="currentColor"/>
<path d="M5.06772 14.2056L5.06489 15.1325L4.43085 14.7629L4.43368 13.8359L5.06772 14.2056Z" fill="currentColor"/>
<path d="M11.172 17.8917C11.3333 17.9856 11.4918 18.1505 11.6164 18.3694L11.622 18.3779L11.5003 18.4547C11.4097 18.2955 11.2909 18.1732 11.1748 18.105C11.0559 18.0339 10.9342 18.0225 10.8436 18.0794L10.7219 17.8604H10.7276C10.8521 17.778 11.0163 17.7979 11.1776 17.8917H11.172Z" fill="currentColor"/>
<path d="M11.1689 18.4845C11.2284 18.5187 11.2765 18.6068 11.2793 18.6779C11.2793 18.7518 11.2312 18.7803 11.1718 18.7461C11.1123 18.712 11.0642 18.6267 11.0642 18.5528C11.0642 18.4817 11.1123 18.4504 11.1718 18.4845H11.1689Z" fill="currentColor"/>
<path d="M11.172 17.5827C11.39 17.7078 11.6051 17.9324 11.7721 18.2281L11.6504 18.3049C11.5174 18.0689 11.3447 17.8897 11.172 17.7902C10.9965 17.6879 10.8211 17.668 10.6852 17.7533L10.5635 17.5343C10.7305 17.4263 10.9513 17.4519 11.172 17.5827Z" fill="currentColor"/>
<path d="M11.1722 18.2116C11.2769 18.2713 11.3817 18.3822 11.4638 18.5244V18.53L11.3449 18.6068C11.2968 18.5215 11.2345 18.459 11.1722 18.422C11.1099 18.385 11.0448 18.3765 10.9967 18.4078L10.875 18.1888H10.8778C10.9599 18.1348 11.0675 18.1462 11.1722 18.2087V18.2116Z" fill="currentColor"/>
<path d="M17.2887 10.8446L11.4351 7.44967C11.4351 7.44967 11.4125 7.4383 11.404 7.43261C11.4011 7.43261 11.3955 7.42977 11.3926 7.42693C11.387 7.42408 11.3813 7.42124 11.3757 7.4184C11.3728 7.4184 11.3672 7.41271 11.3643 7.41271C11.3587 7.40986 11.3502 7.40702 11.3445 7.40418C11.3389 7.40418 11.336 7.39849 11.3304 7.39849C11.3304 7.39849 11.3275 7.39849 11.3247 7.39565C11.3106 7.38996 11.2992 7.38427 11.2851 7.37859C11.2709 7.3729 11.2568 7.36721 11.2454 7.36437C11.2454 7.36437 11.2426 7.36437 11.2398 7.36437C11.2341 7.36437 11.2313 7.36153 11.2256 7.35868C11.22 7.35868 11.2115 7.353 11.2058 7.353C11.203 7.353 11.2002 7.353 11.1945 7.353C11.1888 7.353 11.1832 7.35015 11.1775 7.34731C11.1719 7.34731 11.169 7.34731 11.1634 7.34447C11.1577 7.34447 11.1549 7.34447 11.1492 7.34162C11.1435 7.34162 11.1379 7.34162 11.1322 7.33878C11.1294 7.33878 11.1266 7.33878 11.1237 7.33878C11.1181 7.33878 11.1124 7.33878 11.1068 7.33878C11.1011 7.33878 11.0926 7.33878 11.0869 7.33594C11.0869 7.33594 11.0813 7.33594 11.0784 7.33594C11.0728 7.33594 11.0671 7.33594 11.0615 7.33594C11.053 7.33594 11.0473 7.33594 11.0388 7.33594H11.0332C11.0275 7.33594 11.0247 7.33594 11.019 7.33594C11.0105 7.33594 11.002 7.33594 10.9935 7.33594C10.9935 7.33594 10.9879 7.33594 10.985 7.33594C10.9822 7.33594 10.9765 7.33594 10.9737 7.33594C10.9624 7.33594 10.9539 7.33594 10.9426 7.33594C10.9397 7.33594 10.9369 7.33594 10.9341 7.33594H10.9284C10.9114 7.33594 10.8973 7.33878 10.8803 7.34162C10.8803 7.34162 10.8803 7.34162 10.8775 7.34162C10.8746 7.34162 10.8718 7.34162 10.869 7.34162C10.8605 7.34162 10.8492 7.34731 10.8407 7.34731C10.835 7.34731 10.8322 7.35015 10.8265 7.35015C10.8209 7.35015 10.8152 7.353 10.8095 7.35584C10.8095 7.35584 10.8067 7.35584 10.8039 7.35584C10.7954 7.35868 10.7869 7.36153 10.7784 7.36721C10.7727 7.36721 10.7699 7.37006 10.7643 7.3729C10.7501 7.37859 10.7388 7.38427 10.7275 7.3928L2.92365 11.9336C2.92365 11.9336 2.94912 11.9194 2.96044 11.9137C2.96327 11.9137 2.96893 11.9109 2.97459 11.9081C2.98309 11.9052 2.99158 11.8995 3.00007 11.8967C3.00856 11.8967 3.01422 11.891 3.02271 11.8882C3.02838 11.8882 3.03121 11.8853 3.03687 11.8853C3.04536 11.8853 3.05668 11.8796 3.06517 11.8796C3.068 11.8796 3.07083 11.8796 3.07366 11.8796C3.07366 11.8796 3.07649 11.8796 3.07933 11.8796C3.09348 11.8768 3.11046 11.8739 3.12744 11.8739C3.13311 11.8739 3.13877 11.8739 3.14443 11.8739C3.15575 11.8739 3.16424 11.8739 3.17556 11.8739C3.18122 11.8739 3.18689 11.8739 3.19255 11.8739C3.20104 11.8739 3.20953 11.8739 3.21802 11.8739C3.22368 11.8739 3.23217 11.8739 3.23784 11.8739C3.24633 11.8739 3.25199 11.8739 3.26048 11.8739C3.26897 11.8739 3.27746 11.8739 3.28312 11.8768C3.28879 11.8768 3.29728 11.8768 3.30294 11.8796C3.31143 11.8796 3.31992 11.8825 3.32841 11.8853C3.33407 11.8853 3.33974 11.8853 3.3454 11.8882C3.35389 11.8882 3.36521 11.8938 3.3737 11.8938C3.37936 11.8938 3.38502 11.8967 3.39069 11.8995C3.40201 11.9024 3.4105 11.9052 3.42182 11.9081C3.42748 11.9081 3.43031 11.9109 3.43597 11.9137C3.45013 11.9194 3.46711 11.9251 3.48126 11.9308C3.49542 11.9365 3.5124 11.945 3.52655 11.9507C3.53221 11.9507 3.53504 11.9564 3.5407 11.9564C3.55203 11.9621 3.56335 11.9678 3.57467 11.9735C3.58033 11.9735 3.58599 11.9791 3.59165 11.982C3.60581 11.9905 3.61996 11.999 3.63694 12.0076L9.49051 15.4025L12.5758 17.1939L20.374 12.6416L17.2887 10.8532V10.8446Z" fill="currentColor" stroke="currentColor" stroke-width="0.079397"/>
<path d="M21.3732 14.331C21.3732 14.331 21.3732 14.3253 21.3732 14.3225C21.3732 14.3168 21.3732 14.3111 21.3732 14.3054C21.3732 14.2969 21.3732 14.2912 21.3732 14.2827C21.3732 14.277 21.3732 14.2713 21.3732 14.2656C21.3732 14.2599 21.3732 14.2514 21.3732 14.2457C21.3732 14.2429 21.3732 14.2372 21.3732 14.2315C21.3732 14.223 21.3732 14.2116 21.3704 14.2031C21.3704 14.1974 21.3704 14.1917 21.3704 14.186C21.3704 14.186 21.3704 14.1832 21.3704 14.1803C21.3704 14.1633 21.3647 14.1462 21.3619 14.1291C21.3619 14.1291 21.3619 14.1234 21.3619 14.1206C21.3619 14.1064 21.3562 14.0922 21.3534 14.078C21.3534 14.078 21.3534 14.0723 21.3534 14.0694C21.3534 14.0637 21.3534 14.0552 21.3506 14.0495C21.3506 14.041 21.3478 14.0325 21.3449 14.0239C21.3449 14.0182 21.3449 14.0154 21.3421 14.0097C21.3421 14.0012 21.3393 13.9955 21.3364 13.987C21.3364 13.9813 21.3364 13.9756 21.3336 13.9699C21.3336 13.9642 21.3308 13.9557 21.3279 13.95C21.3279 13.9415 21.3251 13.9358 21.3223 13.9273C21.3223 13.9244 21.3223 13.9187 21.3195 13.9159C21.3195 13.9074 21.3138 13.896 21.311 13.8875C21.311 13.8818 21.3081 13.8761 21.3053 13.8675C21.3053 13.8675 21.3053 13.8647 21.3053 13.8619C21.2996 13.8448 21.294 13.8277 21.2883 13.8107C21.2883 13.8107 21.2883 13.8078 21.2883 13.805C21.2827 13.7908 21.277 13.7737 21.2713 13.7595C21.2713 13.7595 21.2713 13.7538 21.2713 13.751C21.2713 13.7453 21.2657 13.7396 21.2657 13.7339C21.2628 13.7254 21.26 13.7168 21.2572 13.7083C21.2572 13.7026 21.2515 13.6969 21.2515 13.6913C21.2515 13.6856 21.2459 13.677 21.243 13.6714C21.243 13.6657 21.2402 13.6628 21.2374 13.6571C21.2345 13.6486 21.2289 13.6372 21.226 13.6287C21.226 13.623 21.2232 13.6173 21.2204 13.6145C21.2204 13.6145 21.2204 13.6116 21.2204 13.6088C21.2119 13.5917 21.2062 13.5775 21.1977 13.5605C21.1977 13.5548 21.1921 13.5519 21.1921 13.5462C21.1864 13.5349 21.1808 13.5207 21.1751 13.5093C21.1751 13.5093 21.1751 13.5064 21.1723 13.5036C21.1666 13.4922 21.1609 13.4837 21.1553 13.4723C21.1524 13.4638 21.1468 13.4553 21.144 13.4467C21.144 13.4467 21.144 13.4439 21.144 13.441C21.1298 13.4155 21.1157 13.3899 21.1015 13.3643C21.1015 13.3643 21.1015 13.3586 21.0987 13.3586C21.0958 13.3529 21.0902 13.3444 21.0873 13.3387C21.0817 13.3273 21.076 13.3188 21.0675 13.3074C21.0619 13.2989 21.0562 13.2903 21.0505 13.279C21.0449 13.2676 21.0364 13.2591 21.0307 13.2477C21.0307 13.2449 21.0251 13.242 21.0251 13.2363C21.0251 13.2335 21.0194 13.2306 21.0194 13.2278C20.9996 13.1994 20.9826 13.1738 20.9628 13.1453C20.9486 13.1254 20.9345 13.1084 20.9203 13.0885C20.909 13.0742 20.9005 13.0629 20.8892 13.0487C20.8892 13.0487 20.8864 13.043 20.8835 13.0401C20.8694 13.0259 20.8581 13.0089 20.8439 12.9946C20.8411 12.9889 20.8354 12.9861 20.8326 12.9804C20.8241 12.9719 20.8156 12.9605 20.8071 12.952C20.8071 12.952 20.8043 12.9491 20.8015 12.9463C20.7958 12.9406 20.7901 12.9349 20.7845 12.9292C20.7788 12.9236 20.7732 12.915 20.7647 12.9093C20.7647 12.9093 20.759 12.9036 20.7562 12.9008C20.7505 12.8951 20.7448 12.8894 20.7364 12.8809C20.7307 12.8752 20.725 12.8695 20.7194 12.8638C20.7165 12.861 20.7137 12.8582 20.7109 12.8553C20.7052 12.8496 20.6967 12.8411 20.6911 12.8354C20.6854 12.8297 20.6826 12.8269 20.6769 12.8212C20.6741 12.8183 20.6684 12.8155 20.6656 12.8127C20.6599 12.807 20.6514 12.8013 20.6458 12.7956C20.643 12.7928 20.6373 12.7871 20.6345 12.7842C20.6288 12.7814 20.626 12.7757 20.6203 12.7729C20.6146 12.7672 20.6062 12.7615 20.6005 12.7558C20.5977 12.753 20.5948 12.7501 20.5892 12.7473C20.5835 12.7416 20.5778 12.7387 20.5722 12.733C20.5665 12.7274 20.5609 12.7245 20.5524 12.7188C20.5524 12.7188 20.5467 12.716 20.5439 12.7131C20.5354 12.7075 20.5269 12.7018 20.5212 12.6961C20.5156 12.6932 20.5099 12.6876 20.5043 12.6847C20.5043 12.6847 20.5043 12.6847 20.5014 12.6819C20.4873 12.6733 20.4731 12.662 20.459 12.6534C20.459 12.6534 20.459 12.6534 20.4561 12.6534C20.442 12.6449 20.4307 12.6364 20.4165 12.6307C20.4137 12.6307 20.4108 12.6278 20.408 12.625L12.6099 17.1772C12.6268 17.1857 12.6438 17.1971 12.658 17.2057C12.658 17.2057 12.658 17.2057 12.6608 17.2057C12.6778 17.217 12.6919 17.2256 12.7089 17.2369C12.7146 17.2398 12.7203 17.2455 12.7259 17.2483C12.7372 17.2568 12.7457 17.2625 12.7571 17.271C12.7627 17.2767 12.7684 17.2796 12.7769 17.2853C12.7854 17.2938 12.7967 17.2995 12.8052 17.308C12.8108 17.3137 12.8193 17.3194 12.825 17.3251C12.8335 17.3336 12.842 17.3393 12.8505 17.3478C12.8561 17.3535 12.8646 17.3592 12.8703 17.3649C12.8788 17.3734 12.8873 17.3791 12.8957 17.3876C12.9014 17.3933 12.9099 17.399 12.9156 17.4075C12.9241 17.4161 12.9325 17.4246 12.941 17.4331C12.9467 17.4388 12.9524 17.4445 12.9609 17.453C12.9693 17.4616 12.9778 17.4701 12.9863 17.4815C12.992 17.4871 12.9976 17.4928 13.0033 17.4985C13.0146 17.5099 13.0231 17.5213 13.0344 17.5326C13.0373 17.5383 13.0429 17.5412 13.0458 17.5469C13.0599 17.5639 13.0741 17.5781 13.0882 17.5952C13.0882 17.5952 13.0911 17.6009 13.0939 17.6037C13.1052 17.6179 13.1165 17.6322 13.1279 17.6464C13.142 17.6634 13.1562 17.6833 13.1703 17.7032C13.1901 17.7288 13.2099 17.7573 13.2269 17.7857C13.2326 17.7914 13.2354 17.7999 13.2411 17.8056C13.2467 17.817 13.2552 17.8255 13.2609 17.8369C13.2665 17.8454 13.2722 17.8539 13.2779 17.8653C13.2835 17.8767 13.2892 17.8852 13.2977 17.8966C13.3033 17.9051 13.309 17.9136 13.3118 17.9222C13.326 17.9478 13.3401 17.9734 13.3543 17.9989C13.36 18.0075 13.3656 18.0189 13.3684 18.0274C13.3741 18.0388 13.3798 18.0473 13.3854 18.0587C13.3939 18.0729 13.3996 18.0871 13.4052 18.1013C13.4052 18.107 13.4109 18.1098 13.4109 18.1155C13.4194 18.1354 13.4279 18.1525 13.4364 18.1724C13.4364 18.1781 13.442 18.1838 13.442 18.1866C13.4477 18.2008 13.4534 18.215 13.459 18.2293C13.459 18.2349 13.4647 18.2435 13.4675 18.2492C13.4732 18.2634 13.4788 18.2748 13.4817 18.289C13.4817 18.2947 13.4873 18.3003 13.4873 18.306C13.493 18.3231 13.4987 18.3402 13.5071 18.3601C13.5071 18.3601 13.5071 18.3629 13.5071 18.3657C13.5128 18.3856 13.5185 18.4055 13.5241 18.4226C13.5241 18.4283 13.527 18.434 13.5298 18.4425C13.5326 18.4567 13.5383 18.4681 13.5411 18.4823C13.5411 18.4908 13.5439 18.4965 13.5468 18.5051C13.5496 18.5164 13.5524 18.5307 13.5553 18.542C13.5553 18.5506 13.5581 18.5562 13.5609 18.5648C13.5638 18.579 13.5666 18.5904 13.5694 18.6046C13.5694 18.6103 13.5694 18.6188 13.5722 18.6245C13.5751 18.6415 13.5779 18.6586 13.5807 18.6757V18.6814C13.5836 18.7013 13.5864 18.7183 13.5892 18.7382C13.5892 18.7439 13.5892 18.7496 13.5892 18.7553C13.5892 18.7695 13.5921 18.7837 13.5921 18.7951C13.5921 18.8008 13.5921 18.8093 13.5921 18.815C13.5921 18.8292 13.5921 18.8406 13.5921 18.8548C13.5921 18.8605 13.5921 18.8662 13.5921 18.8719C13.5921 18.8889 13.5921 18.9088 13.5921 18.9259V20.2765H13.5892C13.5892 20.2964 13.5892 20.3134 13.5892 20.3305C13.5892 20.3362 13.5892 20.3419 13.5892 20.3447C13.5892 20.3561 13.5892 20.3703 13.5892 20.3817C13.5892 20.3874 13.5892 20.3959 13.5892 20.4016C13.5892 20.413 13.5892 20.4215 13.5864 20.4329C13.5864 20.4414 13.5864 20.4471 13.5836 20.4556C13.5836 20.4641 13.5807 20.4727 13.5779 20.484C13.5779 20.4926 13.5751 20.5011 13.5722 20.5068C13.5722 20.5153 13.5694 20.5239 13.5666 20.5295C13.5666 20.5381 13.5609 20.5494 13.5581 20.558C13.5581 20.5637 13.5553 20.5722 13.5524 20.5779C13.5496 20.5892 13.5468 20.6006 13.5411 20.6092C13.5411 20.6148 13.5383 20.6205 13.5355 20.6262C13.5298 20.6433 13.5213 20.6603 13.5128 20.6774C13.5071 20.6888 13.5015 20.703 13.493 20.7144C13.4873 20.7257 13.4788 20.7371 13.4732 20.7485C13.4732 20.7485 13.4703 20.7542 13.4675 20.7542C13.4619 20.7627 13.4562 20.7712 13.4505 20.7798C13.4505 20.7826 13.4449 20.7854 13.442 20.7883C13.4364 20.7968 13.4307 20.8025 13.4251 20.8082C13.4251 20.8082 13.4194 20.8139 13.4194 20.8167C13.4109 20.8252 13.4024 20.8338 13.3939 20.8423C13.3939 20.8423 13.3939 20.8423 13.3911 20.8451C13.3826 20.8537 13.3769 20.8594 13.3684 20.8651C13.3656 20.8651 13.3628 20.8707 13.36 20.8707C13.3543 20.8764 13.3458 20.8821 13.3401 20.885C13.3373 20.885 13.3345 20.8878 13.3317 20.8906C13.3232 20.8963 13.3118 20.9049 13.3005 20.9105L21.0987 16.3583C21.0987 16.3583 21.1185 16.347 21.1298 16.3384C21.1326 16.3384 21.1355 16.3356 21.1383 16.3327C21.144 16.3271 21.1524 16.3214 21.1581 16.3157C21.1609 16.3157 21.1638 16.31 21.1666 16.31C21.1751 16.3043 21.1808 16.2958 21.1892 16.2901C21.1892 16.2901 21.1892 16.2901 21.1921 16.2872C21.2006 16.2787 21.2091 16.2702 21.2176 16.2617C21.2176 16.2617 21.2232 16.256 21.2232 16.2531C21.2289 16.2474 21.2345 16.2389 21.2402 16.2332C21.2402 16.2304 21.2459 16.2275 21.2487 16.2247C21.2543 16.2162 21.26 16.2076 21.2657 16.1991C21.2657 16.1991 21.2685 16.1934 21.2713 16.1934C21.277 16.182 21.2855 16.1707 21.2911 16.1593C21.2968 16.1479 21.3025 16.1365 21.3081 16.1252C21.3166 16.1081 21.3223 16.0911 21.3308 16.074C21.3308 16.074 21.3308 16.0712 21.3308 16.0683C21.3308 16.0655 21.3308 16.0598 21.3336 16.0569C21.3364 16.0456 21.3421 16.037 21.3449 16.0257C21.3449 16.0228 21.3449 16.02 21.3449 16.0171C21.3449 16.0143 21.3449 16.0086 21.3478 16.0058C21.3478 15.9972 21.3534 15.9887 21.3562 15.9773C21.3562 15.9745 21.3562 15.9688 21.3591 15.9659C21.3591 15.9631 21.3591 15.9574 21.3591 15.9517C21.3591 15.9432 21.3619 15.9347 21.3647 15.929C21.3647 15.9261 21.3647 15.9205 21.3647 15.9176C21.3647 15.9119 21.3647 15.9062 21.3647 15.9034C21.3647 15.8949 21.3647 15.8892 21.3676 15.8806C21.3676 15.8778 21.3676 15.8721 21.3676 15.8693C21.3676 15.8636 21.3676 15.8551 21.3676 15.8494C21.3676 15.8437 21.3676 15.8352 21.3676 15.8295C21.3676 15.8295 21.3676 15.8238 21.3676 15.8209C21.3676 15.8124 21.3676 15.801 21.3676 15.7925C21.3676 15.7868 21.3676 15.7811 21.3676 15.7783C21.3676 15.7783 21.3676 15.7783 21.3676 15.7754C21.3676 15.7584 21.3676 15.7442 21.3676 15.7271L21.3704 14.3737C21.3704 14.3594 21.3704 14.3424 21.3704 14.3282L21.3732 14.331Z" fill="currentColor" stroke="currentColor" stroke-width="0.079397"/>
</g>
</g>
<defs>
<clipPath id="clip0_4022_82895">
<rect width="24" height="24" fill="currentColor"/>
</clipPath>
<clipPath id="clip1_4022_82895">
<rect width="24" height="24" fill="currentColor"/>
</clipPath>
</defs>
</svg>
