<svg width="24" height="24" viewBox="0 0 24 24" fill="none" xmlns="http://www.w3.org/2000/svg">
<g clip-path="url(#clip0_2177_8840)">
<path fill-rule="evenodd" clip-rule="evenodd" d="M16.2557 1.17188C15.9757 1.17188 15.8357 1.17188 15.7288 1.22637C15.6347 1.27431 15.5582 1.3508 15.5102 1.44488C15.4557 1.55184 15.4557 1.69185 15.4557 1.97188V4.12941C15.4557 4.40944 15.4557 4.54945 15.4013 4.6564C15.3533 4.75049 15.2768 4.82698 15.1827 4.87491C15.0758 4.92941 14.9358 4.92941 14.6557 4.92941H12.4982C12.2182 4.92941 12.0782 4.92941 11.9712 4.98391C11.8771 5.03184 11.8006 5.10833 11.7527 5.20241C11.6982 5.30937 11.6982 5.44938 11.6982 5.72941V5.77941C11.6982 6.05943 11.6982 6.19945 11.7527 6.3064C11.8006 6.40049 11.8771 6.47698 11.9712 6.52491C12.0782 6.57941 12.2182 6.57941 12.4982 6.57941H14.6557C14.9358 6.57941 15.0758 6.57941 15.1827 6.63391C15.2768 6.68184 15.3533 6.75833 15.4013 6.85241C15.4557 6.95937 15.4557 7.09938 15.4557 7.37941V9.53694C15.4557 9.81697 15.4557 9.95698 15.5102 10.0639C15.5582 10.158 15.6347 10.2345 15.7288 10.2824C15.8357 10.3369 15.9757 10.3369 16.2557 10.3369H16.3057C16.5858 10.3369 16.7258 10.3369 16.8327 10.2824C16.9268 10.2345 17.0033 10.158 17.0513 10.0639C17.1057 9.95698 17.1057 9.81697 17.1057 9.53694V7.37941C17.1057 7.09938 17.1057 6.95937 17.1602 6.85241C17.2082 6.75833 17.2847 6.68184 17.3788 6.63391C17.4857 6.57941 17.6257 6.57941 17.9057 6.57941H20.0633C20.3433 6.57941 20.4833 6.57941 20.5903 6.52491C20.6844 6.47698 20.7608 6.40049 20.8088 6.3064C20.8633 6.19945 20.8633 6.05943 20.8633 5.77941V5.72941C20.8633 5.44938 20.8633 5.30937 20.8088 5.20241C20.7608 5.10833 20.6844 5.03184 20.5903 4.98391C20.4833 4.92941 20.3433 4.92941 20.0633 4.92941H17.9057C17.6257 4.92941 17.4857 4.92941 17.3788 4.87491C17.2847 4.82698 17.2082 4.75049 17.1602 4.6564C17.1057 4.54945 17.1057 4.40943 17.1057 4.12941V1.97188C17.1057 1.69185 17.1057 1.55184 17.0513 1.44488C17.0033 1.3508 16.9268 1.27431 16.8327 1.22637C16.7258 1.17188 16.5858 1.17188 16.3057 1.17188H16.2557ZM9.64133 7.43443C9.3613 7.43443 9.22129 7.43443 9.11433 7.48893C9.02025 7.53686 8.94376 7.61335 8.89583 7.70744C8.84133 7.81439 8.84133 7.9544 8.84133 8.23443V20.8095C8.84133 21.0896 8.84133 21.2296 8.89583 21.3365C8.94376 21.4306 9.02025 21.5071 9.11433 21.555C9.22129 21.6095 9.3613 21.6095 9.64133 21.6095H9.69133C9.97136 21.6095 10.1114 21.6095 10.2183 21.555C10.3124 21.5071 10.3889 21.4306 10.4368 21.3365C10.4913 21.2296 10.4913 21.0896 10.4913 20.8095V8.23443C10.4913 7.9544 10.4913 7.81439 10.4368 7.70744C10.3889 7.61335 10.3124 7.53686 10.2183 7.48893C10.1114 7.43443 9.97136 7.43443 9.69133 7.43443H9.64133ZM19.6268 12.4445C19.3468 12.4445 19.2067 12.4445 19.0998 12.499C19.0057 12.5469 18.9292 12.6234 18.8813 12.7175C18.8268 12.8244 18.8268 12.9644 18.8268 13.2445V20.8095C18.8268 21.0896 18.8268 21.2296 18.8813 21.3365C18.9292 21.4306 19.0057 21.5071 19.0998 21.555C19.2067 21.6095 19.3468 21.6095 19.6268 21.6095H19.6768C19.9568 21.6095 20.0968 21.6095 20.2038 21.555C20.2979 21.5071 20.3743 21.4306 20.4223 21.3365C20.4768 21.2296 20.4768 21.0896 20.4768 20.8095V13.2445C20.4768 12.9644 20.4768 12.8244 20.4223 12.7175C20.3743 12.6234 20.2979 12.5469 20.2038 12.499C20.0968 12.4445 19.9568 12.4445 19.6768 12.4445H19.6268ZM4.63128 12.4445C4.35126 12.4445 4.21124 12.4445 4.10429 12.499C4.01021 12.5469 3.93372 12.6234 3.88578 12.7175C3.83128 12.8244 3.83128 12.9644 3.83128 13.2445V20.8095C3.83128 21.0896 3.83128 21.2296 3.88578 21.3365C3.93372 21.4306 4.01021 21.5071 4.10429 21.555C4.21124 21.6095 4.35126 21.6095 4.63128 21.6095H4.68128C4.96131 21.6095 5.10132 21.6095 5.20828 21.555C5.30236 21.5071 5.37885 21.4306 5.42679 21.3365C5.48128 21.2296 5.48128 21.0896 5.48128 20.8095V13.2445C5.48128 12.9644 5.48128 12.8244 5.42679 12.7175C5.37885 12.6234 5.30236 12.5469 5.20828 12.499C5.10132 12.4445 4.96131 12.4445 4.68128 12.4445H4.63128ZM14.6514 14.9495C14.3713 14.9495 14.2313 14.9495 14.1244 15.004C14.0303 15.0519 13.9538 15.1284 13.9059 15.2225C13.8514 15.3295 13.8514 15.4695 13.8514 15.7495V20.8095C13.8514 21.0896 13.8514 21.2296 13.9059 21.3365C13.9538 21.4306 14.0303 21.5071 14.1244 21.555C14.2313 21.6095 14.3713 21.6095 14.6514 21.6095H14.7014C14.9814 21.6095 15.1214 21.6095 15.2284 21.555C15.3224 21.5071 15.3989 21.4306 15.4469 21.3365C15.5014 21.2296 15.5014 21.0896 15.5014 20.8095V15.7495C15.5014 15.4695 15.5014 15.3295 15.4469 15.2225C15.3989 15.1284 15.3224 15.0519 15.2284 15.004C15.1214 14.9495 14.9814 14.9495 14.7014 14.9495H14.6514Z" fill="#223466"/>
</g>
<defs>
<clipPath id="clip0_2177_8840">
<rect width="24" height="24" fill="white"/>
</clipPath>
</defs>
</svg>
