<svg width="24" height="24" viewBox="0 0 24 24" fill="none" xmlns="http://www.w3.org/2000/svg">
<path d="M10.3733 16.1914V18.2986C10.3733 19.2927 11.1792 20.0986 12.1733 20.0986C13.1675 20.0986 13.9733 19.2927 13.9733 18.2986V16.1914M12.1733 2.09863V2.99863M4.07334 11.0986H3.17334M6.32334 5.24863L5.78325 4.70854M18.0233 5.24863L18.5636 4.70854M21.1733 11.0986H20.2733M17.5733 11.0986C17.5733 14.081 15.1557 16.4986 12.1733 16.4986C9.191 16.4986 6.77334 14.081 6.77334 11.0986C6.77334 8.11629 9.191 5.69863 12.1733 5.69863C15.1557 5.69863 17.5733 8.11629 17.5733 11.0986Z" stroke="#5E6063" stroke-width="1.75" stroke-linecap="round" stroke-linejoin="round"/>
</svg>
