<svg width="16" height="16" viewBox="0 0 16 16" fill="none" xmlns="http://www.w3.org/2000/svg">
<g clip-path="url(#clip0_3396_53007)">
<mask id="mask0_3396_53007" style="mask-type:luminance" maskUnits="userSpaceOnUse" x="0" y="0" width="16" height="16">
<path d="M16 0H0V16H16V0Z" fill="currentColor"/>
</mask>
<g mask="url(#mask0_3396_53007)">
<g filter="url(#filter0_d_3396_53007)">
<path d="M7.99999 15.5C12.2802 15.5 15.75 12.0302 15.75 7.75C15.75 3.4698 12.2802 0 7.99999 0C3.71979 0 0.25 3.4698 0.25 7.75C0.25 12.0302 3.71979 15.5 7.99999 15.5Z" fill="currentColor"/>
</g>
<mask id="mask1_3396_53007" style="mask-type:luminance" maskUnits="userSpaceOnUse" x="0" y="0" width="16" height="16">
<path d="M15.75 8C15.75 3.71979 12.2802 0.25 8 0.25C3.71979 0.25 0.25 3.71979 0.25 8C0.25 12.2802 3.71979 15.75 8 15.75C12.2802 15.75 15.75 12.2802 15.75 8Z" fill="currentColor"/>
</mask>
<g mask="url(#mask1_3396_53007)">
<path fill-rule="evenodd" clip-rule="evenodd" d="M14.6551 0.25C14.9364 0.25 15.1934 0.360223 15.389 0.555695C15.485 0.651527 15.5613 0.76573 15.6138 0.891735C15.6663 1.01774 15.6938 1.15307 15.6948 1.28993V14.7101C15.6948 14.9914 15.5849 15.2483 15.389 15.444C15.1925 15.639 14.9294 15.7486 14.6551 15.7497H1.28935C1.15335 15.7503 1.01856 15.7237 0.89269 15.6712C0.76682 15.6188 0.652332 15.5416 0.555772 15.444C0.45986 15.3482 0.383473 15.2341 0.330997 15.1081C0.278525 14.9822 0.250998 14.8469 0.25 14.7101V1.28993C0.25 1.00864 0.35991 0.751453 0.555772 0.555695C0.752132 0.360777 1.01516 0.25117 1.28935 0.25H14.6551Z" fill="currentColor"/>
<path fill-rule="evenodd" clip-rule="evenodd" d="M10.4114 12.2757L7.20774 13.2057C6.93859 13.2789 6.65734 13.1322 6.57167 12.863L4.15057 4.42177C4.07729 4.15282 4.22384 3.85917 4.50509 3.7857L7.81929 2.81925C8.58949 2.58675 9.40874 2.81925 9.94702 3.41887C10.3872 3.87125 10.6073 4.48292 10.5828 5.11927C10.5583 5.743 10.2649 6.34262 9.80019 6.7462C11.1698 6.83175 12.2824 7.88402 12.4295 9.25405C12.5761 10.6117 11.7199 11.8842 10.4117 12.2757" fill="currentColor"/>
<path fill-rule="evenodd" clip-rule="evenodd" d="M6.98777 13.8659C6.53517 13.8659 6.13162 13.5599 6.00932 13.1196L3.52734 4.4706C3.36839 3.92007 3.68627 3.3572 4.22427 3.19817L7.63624 2.20761C7.84394 2.14647 8.06404 2.12207 8.29654 2.12207C8.72044 2.12167 9.13969 2.21182 9.52727 2.38669C9.91482 2.56157 10.2621 2.81727 10.5466 3.13732C10.9256 3.60232 11.1457 4.17725 11.2069 4.7766C11.2558 5.31917 11.1452 5.86432 10.889 6.34267C11.5765 6.61262 12.1598 7.10175 12.552 7.7371C12.9801 8.4346 13.1511 9.25407 13.0536 10.0736C12.9677 10.7099 12.6864 11.2972 12.2586 11.7743C11.8539 12.2757 11.3141 12.6457 10.7055 12.8386L7.26932 13.8294C7.17732 13.8529 7.08289 13.8652 6.98807 13.8662L6.98777 13.8659ZM8.40617 2.72112C8.21059 2.72112 8.00262 2.74552 7.81914 2.80695L4.49312 3.7731C4.22399 3.85892 4.06504 4.14052 4.13859 4.40947L6.55969 12.8504C6.59634 12.9853 6.68202 13.0952 6.80432 13.1563C6.92662 13.2175 7.06104 13.2419 7.19547 13.2051L10.3997 12.2754C11.7201 11.8962 12.5641 10.6118 12.4173 9.2538C12.2705 7.88377 11.1576 6.8315 9.78792 6.74595C10.0161 6.5529 10.2032 6.31445 10.3378 6.04525C10.4724 5.77602 10.5517 5.48165 10.5708 5.18017C10.6074 4.53145 10.3749 3.89567 9.93474 3.41862C9.74312 3.19857 9.50769 3.0226 9.24414 2.90235C8.98059 2.78207 8.69494 2.7203 8.40617 2.72112Z" fill="currentColor"/>
<path fill-rule="evenodd" clip-rule="evenodd" d="M11.4025 10.0246C11.4025 8.5934 10.2654 7.44325 8.8346 7.41885C9.05712 7.22515 9.23895 6.98768 9.3692 6.7207C9.49947 6.45373 9.57547 6.16273 9.5927 5.8651C9.62932 5.26578 9.40952 4.6785 9.00567 4.23818C8.4922 3.63885 7.67267 3.40635 6.91457 3.6265L4.13867 4.43395L6.56005 12.8505C6.5967 12.9854 6.68237 13.0953 6.80467 13.1564C6.92697 13.2176 7.0614 13.242 7.19582 13.2052L9.4704 12.5448L9.50702 12.5324C10.6323 12.2144 11.4025 11.1868 11.4025 10.0246Z" fill="currentColor"/>
</g>
</g>
</g>
<defs>
<filter id="filter0_d_3396_53007" x="-5.95" y="-5.16667" width="27.9" height="27.9" filterUnits="userSpaceOnUse" color-interpolation-filters="sRGB">
<feFlood flood-opacity="0" result="BackgroundImageFix"/>
<feColorMatrix in="SourceAlpha" type="matrix" values="0 0 0 0 0 0 0 0 0 0 0 0 0 0 0 0 0 0 127 0" result="hardAlpha"/>
<feOffset dy="1.03333"/>
<feGaussianBlur stdDeviation="3.1"/>
<feComposite in2="hardAlpha" operator="out"/>
<feColorMatrix type="matrix" values="0 0 0 0 0 0 0 0 0 0 0 0 0 0 0 0 0 0 0.08 0"/>
<feBlend mode="normal" in2="BackgroundImageFix" result="effect1_dropShadow_3396_53007"/>
<feBlend mode="normal" in="SourceGraphic" in2="effect1_dropShadow_3396_53007" result="shape"/>
</filter>
<clipPath id="clip0_3396_53007">
<rect width="16" height="16" fill="currentColor"/>
</clipPath>
</defs>
</svg>
