<svg width="24" height="24" viewBox="0 0 24 24" fill="none" xmlns="http://www.w3.org/2000/svg">
<g clip-path="url(#clip0_4017_3074)">
<path d="M12.3379 11.8098L14.1742 10.7305V20.8715L12.3379 21.9509V11.8098Z" fill="currentColor" stroke="currentColor" stroke-width="0.0864"/>
<path d="M14.2005 10.7198L3.56177 4.58008L3.74605 4.58689L4.80721 4.89595L15.3643 11.0342L15.3481 11.067L14.2005 10.7198Z" fill="currentColor" stroke="currentColor" stroke-width="0.0864"/>
<path d="M4.80896 4.88408L11.6674 2.04785L22.1873 8.23057L15.3571 11.0552L4.80896 4.88408Z" fill="currentColor" stroke="currentColor" stroke-width="0.0864"/>
<path d="M14.1866 10.7275L15.3485 11.0671L15.3638 11.0663L22.1999 8.23926V14.4295L15.3524 20.1781L14.1866 20.8632V10.7275Z" fill="currentColor" stroke="currentColor" stroke-width="0.0864"/>
<path d="M12.2686 21.9183C11.0006 21.1696 9.71204 20.4069 8.46607 19.6694C6.28812 18.3805 4.03625 17.0475 1.81747 15.7435L1.79987 15.7331V5.625L12.3237 11.8101V21.8899L12.3024 21.9384L12.2684 21.9183H12.2686Z" fill="currentColor" stroke="currentColor" stroke-width="0.0864"/>
<path d="M1.80609 5.61244L3.56267 4.58008L14.1667 10.7184L12.3303 11.7977L1.80609 5.61244Z" fill="currentColor" stroke="currentColor" stroke-width="0.0864"/>
<path d="M2.72833 15.1871V7.29688L11.365 12.3727V20.2629L2.72833 15.1871Z" fill="currentColor" stroke="currentColor" stroke-width="0.0864"/>
<path d="M2.69427 15.1663L3.44373 14.7256L11.3661 19.3818V20.2629L2.69427 15.1663Z" fill="currentColor" stroke="currentColor" stroke-width="0.0864"/>
<path fill-rule="evenodd" clip-rule="evenodd" d="M3.40202 7.77734L11.3313 12.4375V19.4956C8.49645 18.094 5.7639 16.6116 3.40202 14.8355C3.18359 12.7432 3.1153 10.13 3.40202 7.77734Z" fill="currentColor" stroke="currentColor" stroke-width="0.0864"/>
</g>
<defs>
<clipPath id="clip0_4017_3074">
<rect width="24" height="24" fill="currentColor"/>
</clipPath>
</defs>
</svg>
