<svg width="76" height="76" viewBox="0 0 76 76" fill="none" xmlns="http://www.w3.org/2000/svg">
<g filter="url(#filter0_d_3396_56192)">
<path d="M6 37C6 19.3269 20.3269 5 38 5C55.6731 5 70 19.3269 70 37C70 54.6731 55.6731 69 38 69C20.3269 69 6 54.6731 6 37Z" fill="#00ADEF"/>
<g clip-path="url(#clip0_3396_56192)">
<path d="M76.2891 6.85645H8.28906V74.8564H76.2891V6.85645Z" fill="#00ADEF"/>
<path d="M47.5797 16.5556L63.4674 46.173C65.3783 49.366 63.3921 52.6414 59.7668 52.0682C58.6225 51.8859 51.2507 50.8645 41.9349 49.602L44.5925 45.9732L57.2079 47.3705C58.2534 47.4966 58.7398 47.1894 58.1386 46.0443C58.1386 46.0443 46.2577 21.8377 46.1416 21.558C45.7417 20.8063 45.2998 21.0486 44.9381 21.7241C44.9381 21.7241 33.2683 43.1623 33.1152 43.437C32.6831 44.2774 32.851 44.692 34.099 44.8144L38.6847 45.3213L36.0432 48.6205L30.0551 47.6652C28.559 47.4691 28.0715 46.5139 28.8948 44.9517C29.5144 43.7729 43.4445 18.0529 43.4445 18.0529C43.7223 17.5609 43.9592 17.1825 44.2419 16.6756C45.0726 15.1983 46.5811 14.8012 47.5797 16.5556Z" fill="white"/>
<path d="M13.1206 39.2794L33.9718 35.5607L32.1943 38.8324L17.8014 41.2761C17.067 41.4435 17.1323 41.7756 17.5977 42.0866C17.5977 42.0866 30.1514 50.8651 31.3661 51.673C32.3437 52.3423 32.8683 52.6133 33.6904 51.5469C33.6904 51.5469 43.8876 38.8948 44.4185 38.0432C45.1936 36.9893 45.5417 36.5709 44.2962 36.7919L37.2183 37.9882L39.0316 34.6778L48.5252 32.9296C50.6916 32.5613 51.5519 34.0847 50.4904 35.6993C49.5794 37.0167 34.5347 57.4959 34.5347 57.4959C33.5621 58.9369 32.8301 58.8782 31.6894 57.8642C30.2835 56.6817 12.4849 41.7569 12.4849 41.7569C11.3172 40.7791 11.6862 39.5466 13.1206 39.2794Z" fill="#FABC09"/>
</g>
</g>
<defs>
<filter id="filter0_d_3396_56192" x="0" y="0" width="76" height="76" filterUnits="userSpaceOnUse" color-interpolation-filters="sRGB">
<feFlood flood-opacity="0" result="BackgroundImageFix"/>
<feColorMatrix in="SourceAlpha" type="matrix" values="0 0 0 0 0 0 0 0 0 0 0 0 0 0 0 0 0 0 127 0" result="hardAlpha"/>
<feOffset dy="1"/>
<feGaussianBlur stdDeviation="3"/>
<feComposite in2="hardAlpha" operator="out"/>
<feColorMatrix type="matrix" values="0 0 0 0 0 0 0 0 0 0 0 0 0 0 0 0 0 0 0.08 0"/>
<feBlend mode="normal" in2="BackgroundImageFix" result="effect1_dropShadow_3396_56192"/>
<feBlend mode="normal" in="SourceGraphic" in2="effect1_dropShadow_3396_56192" result="shape"/>
</filter>
<clipPath id="clip0_3396_56192">
<rect width="60" height="60" fill="white" transform="translate(8 7)"/>
</clipPath>
</defs>
</svg>
