<svg width="24" height="24" viewBox="0 0 24 24" fill="none" xmlns="http://www.w3.org/2000/svg">
<g clip-path="url(#clip0_3396_60340)">
<g filter="url(#filter0_d_3396_60340)">
<g clip-path="url(#clip1_3396_60340)">
<path d="M0 12C0 5.37258 5.37258 0 12 0C18.6274 0 24 5.37258 24 12C24 18.6274 18.6274 24 12 24C5.37258 24 0 18.6274 0 12Z" fill="currentColor"/>
<path d="M21.2607 2.73828H2.7373V21.2617H21.2607V2.73828Z" fill="currentColor"/>
<path d="M5.71186 5.41422L5.6709 10.3718L6.77825 10.3924L6.75771 9.44614L9.09549 11.7912L12.028 8.95249L9.46461 6.44278L10.6746 6.42217V5.37305L5.71186 5.41422Z" fill="currentColor" stroke="currentColor" stroke-opacity="0.08" stroke-width="1.75"/>
<path d="M18.3678 5.48836L13.4257 5.44727L13.4052 6.55809L14.3485 6.53749L12.0107 8.8826L14.8406 11.8243L17.3425 9.25286L17.363 10.4666H18.4089L18.3678 5.48836Z" fill="currentColor" stroke="currentColor" stroke-opacity="0.08" stroke-width="1.75"/>
<path d="M5.76166 18.1641L5.7207 13.2065L6.82803 13.1859L6.80752 14.1322L9.14527 11.7871L12.0778 14.6258L9.5144 17.1356L10.7244 17.1562V18.2053L5.76166 18.1641Z" fill="currentColor" stroke="currentColor" stroke-opacity="0.08" stroke-width="1.75"/>
<path d="M18.4176 18.0898L13.4755 18.1309L13.455 17.0201L14.3983 17.0407L12.0605 14.6956L14.8904 11.7539L17.3923 14.3253L17.4128 13.1115H18.4587L18.4176 18.0898Z" fill="currentColor" stroke="currentColor" stroke-opacity="0.08" stroke-width="1.75"/>
</g>
</g>
</g>
<defs>
<filter id="filter0_d_3396_60340" x="-6" y="-5" width="36" height="36" filterUnits="userSpaceOnUse" color-interpolation-filters="sRGB">
<feFlood flood-opacity="0" result="BackgroundImageFix"/>
<feColorMatrix in="SourceAlpha" type="matrix" values="0 0 0 0 0 0 0 0 0 0 0 0 0 0 0 0 0 0 127 0" result="hardAlpha"/>
<feOffset dy="1"/>
<feGaussianBlur stdDeviation="3"/>
<feComposite in2="hardAlpha" operator="out"/>
<feColorMatrix type="matrix" values="0 0 0 0 0 0 0 0 0 0 0 0 0 0 0 0 0 0 0.08 0"/>
<feBlend mode="normal" in2="BackgroundImageFix" result="effect1_dropShadow_3396_60340"/>
<feBlend mode="normal" in="SourceGraphic" in2="effect1_dropShadow_3396_60340" result="shape"/>
</filter>
<clipPath id="clip0_3396_60340">
<rect width="24" height="24" fill="currentColor"/>
</clipPath>
<clipPath id="clip1_3396_60340">
<path d="M0 12C0 5.37258 5.37258 0 12 0C18.6274 0 24 5.37258 24 12C24 18.6274 18.6274 24 12 24C5.37258 24 0 18.6274 0 12Z" fill="currentColor"/>
</clipPath>
</defs>
</svg>
