<svg width="24" height="24" viewBox="0 0 24 24" fill="none" xmlns="http://www.w3.org/2000/svg">
<g clip-path="url(#clip0_4017_3009)">
<path d="M14.5169 17.7542C14.2596 17.3489 13.9047 16.9856 13.5128 16.7585C13.1209 16.5315 12.766 16.486 12.5087 16.5954C12.4851 16.6055 12.4616 16.6172 12.4397 16.6307L11.7838 17.0091L13.9299 20.1055L14.5859 19.7271C14.8011 19.6026 14.9323 19.3537 14.9323 18.9988C14.9323 18.6069 14.7742 18.1612 14.5169 17.7559V17.7542Z" fill="black" stroke="black" stroke-width="0.12"/>
<path d="M14.2782 19.3769C14.2782 19.7688 14.1201 20.0312 13.8627 20.1405C13.6054 20.2498 13.2505 20.2027 12.8586 19.9774C12.4667 19.752 12.1119 19.387 11.8545 18.9833C11.5972 18.578 11.4391 18.1323 11.4391 17.7404C11.4391 17.3485 11.5972 17.0861 11.8545 16.9768C12.1119 16.8675 12.4667 16.9146 12.8586 17.14C13.2505 17.3653 13.6054 17.7303 13.8627 18.1357C14.1201 18.541 14.2782 18.9867 14.2782 19.3786V19.3769Z" fill="black" stroke="black" stroke-width="0.12"/>
<path d="M13.9183 19.1687C13.9183 19.754 13.444 19.9542 12.8587 19.6161C12.2734 19.278 11.7991 18.5296 11.7991 17.9443C11.7991 17.359 12.2734 17.1588 12.8587 17.4969C13.444 17.8349 13.9183 18.5834 13.9183 19.1687Z" fill="#E8F4FD" stroke="black" stroke-width="0.12"/>
<path d="M13.8945 18.9329C13.7969 18.4182 13.4033 17.8447 12.924 17.5386C12.4531 17.2997 12.0814 17.478 12.0814 17.9574C12.0814 18.4367 12.4884 19.1011 12.9896 19.3904C13.4908 19.6797 13.8978 19.5081 13.8978 19.0069C13.8978 18.9833 13.8962 18.9581 13.8945 18.9329ZM13.1208 18.8606C12.8702 18.7159 12.6667 18.3947 12.6667 18.1441C12.6667 17.8935 12.8702 17.8077 13.1208 17.9523C13.3714 18.097 13.5749 18.4182 13.5749 18.6688C13.5749 18.9194 13.3714 19.0052 13.1208 18.8606Z" fill="#017AFF" stroke="black" stroke-width="0.12"/>
<path d="M5.6079 12.6107C5.35056 12.2053 4.99568 11.842 4.60379 11.615C4.2119 11.3879 3.85702 11.3425 3.59969 11.4518C3.57614 11.4619 3.55259 11.4737 3.53073 11.4871L2.87478 11.8656L5.02091 14.962L5.67686 14.5835C5.89214 14.4591 6.02333 14.2102 6.02333 13.8553C6.02333 13.4634 5.86523 13.0177 5.6079 12.6123V12.6107Z" fill="black" stroke="black" stroke-width="0.12"/>
<path d="M5.36753 14.2321C5.36753 14.624 5.20943 14.8864 4.9521 14.9957C4.69476 15.105 4.33988 15.0579 3.94799 14.8326C3.5561 14.6055 3.20122 14.2422 2.94388 13.8369C2.68655 13.4315 2.52845 12.9858 2.52845 12.5939C2.52845 12.202 2.68655 11.9397 2.94388 11.8303C3.20122 11.721 3.5561 11.7681 3.94799 11.9935C4.33988 12.2189 4.69476 12.5838 4.9521 12.9892C5.20943 13.3945 5.36753 13.8402 5.36753 14.2321Z" fill="black" stroke="black" stroke-width="0.12"/>
<path d="M5.00741 14.0251C5.00741 14.6105 4.53311 14.8106 3.9478 14.4725C3.36249 14.1345 2.88819 13.386 2.88819 12.8007C2.88819 12.2154 3.36249 12.0153 3.9478 12.3533C4.53311 12.6914 5.00741 13.4398 5.00741 14.0251Z" fill="#E8F4FD" stroke="black" stroke-width="0.12"/>
<path d="M4.98392 13.7879C4.88636 13.2749 4.4928 12.6997 4.01345 12.3935C3.54251 12.1547 3.17081 12.333 3.17081 12.8123C3.17081 13.2917 3.57783 13.9561 4.07904 14.2453C4.58026 14.5346 4.98728 14.3631 4.98728 13.8619C4.98728 13.8383 4.9856 13.8131 4.98392 13.7879ZM4.21023 13.7155C3.95963 13.5709 3.75611 13.2496 3.75611 12.999C3.75611 12.7484 3.95963 12.6627 4.21023 12.8073C4.46084 12.9519 4.66435 13.2732 4.66435 13.5238C4.66435 13.7744 4.46084 13.8602 4.21023 13.7155Z" fill="#017AFF" stroke="black" stroke-width="0.12"/>
<path d="M22.1982 15.638C22.1982 15.4278 22.0687 15.3908 22.0687 15.3908V13.7728L22.0654 13.7694C22.0654 13.6113 22.0115 13.4516 21.8837 13.3305C21.623 13.0798 21.3337 12.9032 21.1874 12.8074L18.6056 11.1288L16.404 8.24265C16.261 7.99204 16.0525 7.78517 15.8036 7.64052L9.58046 4.04794C9.01702 3.72165 8.32239 3.72165 7.75726 4.04794C5.93574 5.10082 4.50443 5.92496 4.14618 6.13184C3.91576 6.26471 3.72738 6.45645 3.59283 6.68519L2.38185 8.78086C1.91764 8.90701 1.7999 9.53268 1.7999 9.81356V11.2516C1.7999 12.0926 2.0976 12.1262 2.37512 12.2877C2.4239 11.9631 2.58536 11.741 2.82419 11.6401C3.1118 11.519 3.50873 11.5712 3.94772 11.8235C4.3867 12.0774 4.78531 12.4844 5.07292 12.9386C5.36053 13.391 5.53713 13.8922 5.53713 14.3312V14.3699C5.53377 14.4254 5.56404 14.4775 5.61282 14.5061L11.2758 17.7758C11.2725 17.7287 11.2691 17.6833 11.2691 17.6395C11.2691 17.2006 11.4457 16.9045 11.7333 16.7851C12.0209 16.6623 12.4195 16.7145 12.8585 16.9684C13.2975 17.2207 13.6944 17.6278 13.982 18.0819C14.2697 18.536 14.4479 19.0355 14.4479 19.4745C14.4479 19.4863 14.4479 19.4981 14.4479 19.5115C14.4479 19.5687 14.4732 19.6225 14.5236 19.6511L14.8768 19.8546C15.3444 20.1254 15.9213 20.1254 16.3906 19.8546L21.8972 16.6758C22.0855 16.5665 22.1999 16.3663 22.1999 16.151C22.1999 16.0737 22.1999 15.7137 22.1999 15.6414L22.1982 15.638Z" fill="#017AFF" stroke="black" stroke-width="0.12"/>
<path d="M2.87463 11.8637C2.76699 11.9276 2.67953 12.0218 2.61898 12.1446L2.37342 12.2859C2.4222 11.9613 2.58366 11.7393 2.82249 11.6383C2.9705 11.5761 3.14542 11.561 3.34221 11.5929L2.87295 11.8637H2.87463ZM12.2547 16.7379C12.0579 16.706 11.8813 16.7211 11.735 16.785C11.4474 16.9061 11.2708 17.2004 11.2708 17.6394C11.2708 17.6832 11.2741 17.7286 11.2775 17.7757L11.444 17.6798C11.4575 17.3569 11.5853 17.1281 11.7888 17.0104L12.2581 16.7379H12.2547ZM21.5776 14.4219L17.1104 17.0003V17.9085L21.5843 15.3251L21.5776 14.4202V14.4219Z" fill="#E8F4FD" stroke="black" stroke-width="0.12"/>
<path d="M5.9759 14.262L10.5221 16.9076V16.6251L5.96077 13.971C5.97086 14.0685 5.9759 14.1644 5.9759 14.262ZM4.10393 6.42253L10.9746 10.3885C11.1579 10.4945 11.3379 10.6206 11.4623 10.7938C11.5515 10.9183 11.7213 10.9469 11.8525 10.8712L16.1919 8.36514C16.3147 8.2945 16.3416 8.12968 16.2507 8.02035C16.1263 7.86898 15.9749 7.73947 15.8034 7.64192L9.57857 4.04766C9.01513 3.72305 8.32218 3.72305 7.75874 4.04766C5.93554 5.09886 4.50422 5.92468 4.14598 6.13324C4.12916 6.14333 4.11234 6.15342 4.0972 6.16351C4.00133 6.22574 4.00469 6.36702 4.10393 6.42253ZM22.0668 15.3905C22.0668 15.5974 22.0685 15.8043 21.7641 15.9792L16.8478 18.8166C16.5232 19.005 16.1448 19.0622 15.7882 18.9881C15.5645 18.9427 15.2164 18.8469 15.2164 18.8469C15.2164 18.8469 15.4148 19.2152 15.7882 19.2909C16.1448 19.3632 16.5232 19.306 16.8478 19.1193L21.7641 16.2803C21.9625 16.1659 22.1963 15.9371 22.1963 15.6361C22.1963 15.4258 22.0668 15.3888 22.0668 15.3888V15.3905ZM16.8091 16.6974L21.2763 14.119C22.3713 13.4866 22.1963 13.2007 18.6071 11.1285C19.0881 11.7273 18.7938 12.0687 18.3616 12.3177L14.5285 14.5327C13.2384 15.2778 12.0779 14.5327 12.0779 14.5327C12.0779 14.5327 15.3269 17.4037 16.8108 16.6991L16.8091 16.6974Z" fill="#E8F4FD" stroke="black" stroke-width="0.12"/>
<path d="M11.0925 15.912L11.3952 16.0869C11.4793 16.1357 11.5466 16.1071 11.5466 16.023C11.5466 15.9389 11.4793 15.8329 11.3952 15.7842L11.0925 15.6092C11.0084 15.5605 10.9411 15.5891 10.9411 15.6732C10.9411 15.7573 11.0084 15.8632 11.0925 15.912Z" fill="#017AFF" stroke="black" stroke-width="0.12"/>
<path d="M16.1414 8.74365L11.8021 11.2497L12.7709 14.077C12.8146 14.2032 12.897 14.3074 13.003 14.3798L17.6551 11.8922C17.9831 11.7173 18.0773 11.2884 17.8519 10.9924L16.1414 8.74365Z" fill="#E8F4FD" stroke="black" stroke-width="0.12"/>
<path d="M10.4615 10.735L4.34441 7.20468C4.19303 7.11722 3.99961 7.17609 3.92225 7.3325C3.92225 7.3325 3.76919 7.64534 3.59427 8.00191C3.31339 8.57376 3.52363 9.26503 4.0753 9.58459L11.8794 14.0905L10.8618 11.2194C10.7895 11.0159 10.6466 10.8444 10.4599 10.7367L10.4615 10.735Z" fill="#E8F4FD" stroke="black" stroke-width="0.12"/>
<path d="M11.7734 13.7894L8.22288 11.7392L8.52731 9.61825L8.24474 9.45511L7.94032 11.5743L5.39894 10.106L5.97247 8.14153L5.70336 7.98511L5.12983 9.94959L4.22832 9.42988C3.67665 9.11199 3.52696 8.64779 3.89866 7.84719C4.06517 7.48726 4.22664 7.17779 4.22664 7.17779C4.23 7.17274 4.23337 7.16938 4.23505 7.16433C4.11059 7.14751 3.98276 7.20974 3.92389 7.32916C3.92389 7.32916 3.77084 7.642 3.59592 7.99856C3.31504 8.57042 3.52528 9.26169 4.07695 9.58125L11.8811 14.0871L11.7751 13.786L11.7734 13.7894Z" fill="#017AFF" stroke="black" stroke-width="0.12"/>
<path d="M17.1105 17.0005L16.8481 17.1518C16.5235 17.3402 16.145 17.3974 15.7885 17.3234C15.3613 17.2359 15.3613 18.1442 15.7885 18.2316C16.145 18.3039 16.5235 18.2468 16.8481 18.0601L17.1105 17.9087C17.3611 17.764 17.5646 17.4428 17.5646 17.1922C17.5646 16.9416 17.3611 16.8558 17.1105 17.0005Z" fill="#017AFF" stroke="black" stroke-width="0.12"/>
<path d="M17.3138 17.2123C16.821 16.9281 16.5737 17.4798 16.9707 17.7085C17.0127 17.7321 17.0732 17.727 17.1422 17.6883C17.2684 17.616 17.3693 17.4562 17.3693 17.3301C17.3693 17.2729 17.3491 17.2325 17.3138 17.214V17.2123Z" fill="#E8F4FD" stroke="black" stroke-width="0.12"/>
<path d="M16.2879 18.1186C16.4965 17.9975 16.6663 17.7301 16.6663 17.5215C16.6663 17.4273 16.631 17.36 16.5738 17.3264C16.552 17.3129 16.5301 17.3045 16.5065 17.2944C16.2963 17.355 16.0777 17.3668 15.8641 17.3348C15.6118 17.5198 15.5613 17.8982 16.002 18.1522C16.0709 18.1926 16.1735 18.1842 16.2879 18.1186Z" fill="#E8F4FD" stroke="black" stroke-width="0.12"/>
<path d="M21.7641 14.3145L21.5018 14.4659C21.2511 14.6105 21.0476 14.9318 21.0476 15.1824C21.0476 15.433 21.2511 15.5188 21.5018 15.3741L21.7641 15.2228C21.9626 15.1084 22.0669 14.9032 22.0669 14.6963V13.7881C22.0669 13.995 21.9626 14.2002 21.7641 14.3145Z" fill="#017AFF" stroke="black" stroke-width="0.12"/>
<path d="M21.7639 14.3144L21.5016 14.4658C21.3552 14.5499 21.2257 14.6962 21.1433 14.8526C21.1971 14.9233 21.2711 14.9905 21.3754 15.0511C21.4444 15.0914 21.547 15.083 21.6613 15.0174C21.8699 14.8963 22.0398 14.6289 22.0398 14.4204C22.0398 14.3262 22.0044 14.2589 21.9473 14.2253C21.9321 14.2169 21.917 14.2118 21.9035 14.2051C21.8632 14.2471 21.8178 14.2858 21.7639 14.3161V14.3144Z" fill="#E8F4FD" stroke="black" stroke-width="0.12"/>
<path d="M21.177 14.792C21.0979 14.9198 21.0491 15.0594 21.0491 15.1822C21.0491 15.2663 21.0744 15.3302 21.113 15.3739C21.1416 15.3706 21.1736 15.3605 21.2072 15.3403C21.3334 15.268 21.4343 15.1082 21.4343 14.982C21.4343 14.9249 21.4141 14.8862 21.3788 14.866C21.3048 14.8239 21.2392 14.8021 21.177 14.792Z" fill="#E8F4FD" stroke="black" stroke-width="0.12"/>
<circle cx="19.6187" cy="19.2" r="4.2" fill="#283964"/>
<path d="M20.1266 16.9504C20.0963 16.9506 20.0661 16.952 20.036 16.9547C20.025 16.9557 20.0141 16.9567 20.0033 16.958C19.9904 16.9595 19.9776 16.961 19.9649 16.9629L19.9469 16.9659C19.4012 17.0561 18.9849 17.5299 18.9849 18.1011C18.9849 18.5097 19.1979 18.8682 19.5187 19.0725C19.523 19.0759 19.5279 19.0793 19.533 19.0824L19.5339 19.0827L19.4585 19.1066C19.3437 19.1458 19.2326 19.195 19.1265 19.2534L19.0478 19.299C19.0398 19.3039 19.032 19.309 19.024 19.314C18.9632 19.3521 18.9044 19.3934 18.8478 19.4376L18.8397 19.4438C18.3546 19.827 18.0432 20.4201 18.0432 21.0863C18.0432 21.1763 18.049 21.2662 18.0605 21.3554H22.2265V21.0873C22.2265 20.1403 21.5976 19.3405 20.7346 19.0824C21.0646 18.8804 21.2848 18.5166 21.2848 18.1011C21.2848 17.4922 20.8118 16.994 20.2132 16.9532C20.2055 16.9527 20.1979 16.952 20.1903 16.9516C20.1719 16.9507 20.1534 16.9502 20.1348 16.9502L20.1266 16.9504ZM20.1337 19.2561C21.1451 19.2561 21.9649 20.0759 21.9649 21.0872C21.9649 21.0894 21.9647 21.0916 21.9647 21.0938H18.3028C18.3028 21.0916 18.3026 21.0894 18.3026 21.0872C18.3026 20.0759 19.1224 19.2561 20.1337 19.2561ZM20.1338 17.2117C20.625 17.2117 21.0232 17.6099 21.0232 18.1011C21.0232 18.5924 20.625 18.9906 20.1338 18.9906C19.6426 18.9906 19.2444 18.5924 19.2444 18.1011C19.2444 17.6099 19.6426 17.2117 20.1338 17.2117Z" fill="white" stroke="white" stroke-width="0.03"/>
<path d="M18.6742 17.3472C18.1541 17.3472 17.7325 17.7688 17.7325 18.2889C17.7325 18.6121 17.8954 18.8972 18.1435 19.0668C17.4794 19.2867 16.9998 19.9115 16.997 20.649H16.9968V20.9106H17.7881C17.7946 20.8228 17.806 20.7355 17.8222 20.649H17.2455C17.249 19.8646 17.8858 19.2298 18.671 19.2298L18.6534 19.2301L18.6737 19.2306C18.6775 19.2306 18.6812 19.2305 18.685 19.2304L18.6963 19.23C18.8111 19.1412 18.9337 19.0633 19.0628 18.9971C19.0347 18.9642 19.008 18.93 18.983 18.8947C18.8874 18.9437 18.7816 18.9691 18.6743 18.969C18.2987 18.969 17.9941 18.6645 17.9941 18.2889C17.9941 17.9133 18.2987 17.6088 18.6743 17.6088C18.7165 17.6089 18.7585 17.6129 18.8 17.6209C18.829 17.5364 18.8659 17.455 18.9104 17.3776C18.8731 17.3679 18.8353 17.3605 18.7971 17.3554L18.7915 17.3547C18.7751 17.3526 18.7585 17.3511 18.7417 17.3498C18.7383 17.3496 18.7349 17.3493 18.7315 17.3491C18.7125 17.3479 18.6935 17.3472 18.6742 17.3472Z" fill="#1FD896" stroke="#1FD896" stroke-width="0.03"/>
</g>
<defs>
<clipPath id="clip0_4017_3009">
<rect width="24" height="24" fill="white"/>
</clipPath>
</defs>
</svg>
