<svg width="24" height="24" viewBox="0 0 24 24" fill="none" xmlns="http://www.w3.org/2000/svg">
<g clip-path="url(#clip0_6027_5272)">
<path d="M12.9704 15.4051C12.7131 14.9997 12.3582 14.6365 11.9663 14.4094C11.5744 14.1823 11.2195 14.1369 10.9622 14.2462C10.9387 14.2563 10.9151 14.2681 10.8933 14.2816L10.2373 14.66L12.3834 17.7564L13.0394 17.378C13.2547 17.2535 13.3859 17.0046 13.3859 16.6497C13.3859 16.2578 13.2278 15.8121 12.9704 15.4068V15.4051Z" fill="currentColor" stroke="currentColor" stroke-width="0.075"/>
<path d="M12.7317 17.0278C12.7317 17.4197 12.5736 17.6821 12.3162 17.7914C12.0589 17.9007 11.704 17.8536 11.3121 17.6282C10.9202 17.4029 10.5653 17.0379 10.308 16.6342C10.0507 16.2289 9.89258 15.7832 9.89258 15.3913C9.89258 14.9994 10.0507 14.737 10.308 14.6277C10.5653 14.5184 10.9202 14.5655 11.3121 14.7908C11.704 15.0162 12.0589 15.3812 12.3162 15.7865C12.5736 16.1919 12.7317 16.6376 12.7317 17.0295V17.0278Z" fill="currentColor" stroke="currentColor" stroke-width="0.075"/>
<path d="M12.3717 16.8191C12.3717 17.4044 11.8974 17.6045 11.3121 17.2665C10.7267 16.9284 10.2524 16.18 10.2524 15.5947C10.2524 15.0093 10.7267 14.8092 11.3121 15.1473C11.8974 15.4853 12.3717 16.2338 12.3717 16.8191Z" fill="currentColor" stroke="currentColor" stroke-width="0.075"/>
<path d="M12.3478 16.5838C12.2502 16.0691 11.8567 15.4956 11.3773 15.1894C10.9064 14.9506 10.5347 15.1289 10.5347 15.6082C10.5347 16.0876 10.9417 16.7519 11.4429 17.0412C11.9441 17.3305 12.3511 17.159 12.3511 16.6578C12.3511 16.6342 12.3495 16.609 12.3478 16.5838ZM11.5741 16.5114C11.3235 16.3668 11.12 16.0455 11.12 15.7949C11.12 15.5443 11.3235 15.4586 11.5741 15.6032C11.8247 15.7478 12.0282 16.0691 12.0282 16.3197C12.0282 16.5703 11.8247 16.6561 11.5741 16.5114Z" fill="currentColor" stroke="currentColor" stroke-width="0.075"/>
<path d="M4.06027 10.2615C3.80293 9.85619 3.44805 9.4929 3.05616 9.26584C2.66427 9.03878 2.30939 8.99337 2.05206 9.10269C2.02851 9.11279 2.00496 9.12456 1.9831 9.13801L1.32715 9.51645L3.47328 12.6129L4.12923 12.2344C4.34451 12.11 4.4757 11.861 4.4757 11.5062C4.4757 11.1143 4.3176 10.6686 4.06027 10.2632V10.2615Z" fill="currentColor" stroke="currentColor" stroke-width="0.075"/>
<path d="M3.82004 11.883C3.82004 12.2749 3.66194 12.5373 3.4046 12.6466C3.14727 12.7559 2.79238 12.7088 2.4005 12.4834C2.00861 12.2564 1.65372 11.8931 1.39639 11.4877C1.13906 11.0824 0.980957 10.6367 0.980957 10.2448C0.980957 9.85292 1.13906 9.59054 1.39639 9.48121C1.65372 9.37189 2.00861 9.41898 2.4005 9.64436C2.79238 9.86973 3.14727 10.2347 3.4046 10.6401C3.66194 11.0454 3.82004 11.4911 3.82004 11.883Z" fill="currentColor" stroke="currentColor" stroke-width="0.075"/>
<path d="M3.46004 11.6765C3.46004 12.2618 2.98574 12.462 2.40043 12.1239C1.81512 11.7858 1.34082 11.0374 1.34082 10.4521C1.34082 9.86677 1.81512 9.66662 2.40043 10.0047C2.98574 10.3427 3.46004 11.0912 3.46004 11.6765Z" fill="currentColor" stroke="currentColor" stroke-width="0.075"/>
<path d="M3.43616 11.4397C3.3386 10.9267 2.94504 10.3515 2.46569 10.0454C1.99475 9.80657 1.62305 9.98486 1.62305 10.4642C1.62305 10.9435 2.03007 11.6079 2.53128 11.8972C3.0325 12.1865 3.43952 12.0149 3.43952 11.5137C3.43952 11.4902 3.43784 11.4649 3.43616 11.4397ZM2.66247 11.3674C2.41187 11.2227 2.20835 10.9015 2.20835 10.6509C2.20835 10.4003 2.41187 10.3145 2.66247 10.4592C2.91308 10.6038 3.11659 10.925 3.11659 11.1757C3.11659 11.4263 2.91308 11.512 2.66247 11.3674Z" fill="currentColor" stroke="currentColor" stroke-width="0.075"/>
<path d="M20.6508 13.2889C20.6508 13.0787 20.5213 13.0417 20.5213 13.0417V11.4237L20.5179 11.4203C20.5179 11.2622 20.4641 11.1024 20.3362 10.9813C20.0755 10.7307 19.7863 10.5541 19.6399 10.4583L17.0582 8.7797L14.8565 5.89353C14.7136 5.64292 14.505 5.43605 14.2561 5.2914L8.033 1.69882C7.46956 1.37253 6.77493 1.37253 6.2098 1.69882C4.38828 2.7517 2.95697 3.57584 2.59872 3.78272C2.3683 3.91559 2.17992 4.10733 2.04537 4.33607L0.834386 6.43174C0.370176 6.55789 0.252441 7.18356 0.252441 7.46444V8.90248C0.252441 9.74344 0.550141 9.77708 0.827658 9.93854C0.876434 9.61393 1.0379 9.39192 1.27673 9.291C1.56434 9.16991 1.96127 9.22205 2.40025 9.47433C2.83923 9.7283 3.23785 10.1353 3.52546 10.5894C3.81307 11.0419 3.98967 11.5431 3.98967 11.9821V12.0208C3.9863 12.0763 4.01658 12.1284 4.06535 12.157L9.72838 15.4266C9.72501 15.3796 9.72165 15.3341 9.72165 15.2904C9.72165 14.8514 9.89825 14.5554 10.1859 14.436C10.4735 14.3132 10.8721 14.3654 11.3111 14.6193C11.75 14.8716 12.147 15.2786 12.4346 15.7328C12.7222 16.1869 12.9005 16.6864 12.9005 17.1254C12.9005 17.1372 12.9005 17.1489 12.9005 17.1624C12.9005 17.2196 12.9257 17.2734 12.9762 17.302L13.3294 17.5055C13.7969 17.7763 14.3738 17.7763 14.8431 17.5055L20.3497 14.3267C20.5381 14.2173 20.6524 14.0172 20.6524 13.8019C20.6524 13.7245 20.6524 13.3646 20.6524 13.2923L20.6508 13.2889Z" fill="currentColor" stroke="currentColor" stroke-width="0.075"/>
<path d="M1.32738 9.51459C1.21974 9.5785 1.13228 9.67269 1.07173 9.79547L0.826172 9.93675C0.874948 9.61214 1.03641 9.39013 1.27524 9.28921C1.42325 9.22698 1.59817 9.21185 1.79496 9.2438L1.3257 9.51459H1.32738ZM10.7074 14.3888C10.5107 14.3568 10.3341 14.372 10.1877 14.4359C9.90013 14.557 9.72353 14.8513 9.72353 15.2903C9.72353 15.334 9.72689 15.3794 9.73025 15.4265L9.89676 15.3307C9.91022 15.0077 10.038 14.779 10.2416 14.6613L10.7108 14.3888H10.7074ZM20.0303 12.0728L15.5631 14.6512V15.5594L20.0371 12.976L20.0303 12.0711V12.0728Z" fill="currentColor" stroke="currentColor" stroke-width="0.075"/>
<path d="M4.42853 11.9128L8.97476 14.5585V14.2759L4.4134 11.6219C4.42349 11.7194 4.42853 11.8153 4.42853 11.9128ZM2.55656 4.07341L9.4272 8.03937C9.61053 8.14533 9.79049 8.27148 9.91495 8.44472C10.0041 8.56918 10.174 8.59777 10.3052 8.52208L14.6445 6.01602C14.7673 5.94538 14.7942 5.78055 14.7034 5.67123C14.5789 5.51986 14.4275 5.39035 14.256 5.2928L8.0312 1.69854C7.46776 1.37393 6.77481 1.37393 6.21137 1.69854C4.38817 2.74974 2.95685 3.57556 2.5986 3.78412C2.58179 3.79421 2.56497 3.8043 2.54983 3.81439C2.45396 3.87662 2.45732 4.0179 2.55656 4.07341ZM20.5195 13.0414C20.5195 13.2483 20.5211 13.4552 20.2167 13.6301L15.3005 16.4675C14.9758 16.6558 14.5974 16.713 14.2408 16.639C14.0172 16.5936 13.669 16.4977 13.669 16.4977C13.669 16.4977 13.8675 16.8661 14.2408 16.9418C14.5974 17.0141 14.9758 16.9569 15.3005 16.7702L20.2167 13.9311C20.4152 13.8168 20.649 13.588 20.649 13.287C20.649 13.0767 20.5195 13.0397 20.5195 13.0397V13.0414ZM15.2618 14.3483L19.729 11.7699C20.8239 11.1375 20.649 10.8515 17.0597 8.77942C17.5408 9.37818 17.2464 9.71961 16.8142 9.96853L12.9811 12.1836C11.6911 12.9287 10.5305 12.1836 10.5305 12.1836C10.5305 12.1836 13.7795 15.0546 15.2635 14.3499L15.2618 14.3483Z" fill="currentColor" stroke="currentColor" stroke-width="0.075"/>
<path d="M9.54493 13.5634L9.84767 13.7383C9.93177 13.7871 9.99905 13.7585 9.99905 13.6744C9.99905 13.5903 9.93177 13.4843 9.84767 13.4355L9.54493 13.2606C9.46083 13.2118 9.39355 13.2404 9.39355 13.3245C9.39355 13.4086 9.46083 13.5146 9.54493 13.5634Z" fill="currentColor" stroke="currentColor" stroke-width="0.075"/>
<path d="M14.5937 6.39453L10.2544 8.90059L11.2232 11.7279C11.2669 11.854 11.3493 11.9583 11.4553 12.0306L16.1075 9.54308C16.4354 9.36816 16.5296 8.93928 16.3043 8.64326L14.5937 6.39453Z" fill="currentColor" stroke="currentColor" stroke-width="0.075"/>
<path d="M8.91387 8.38591L2.79673 4.85556C2.64536 4.7681 2.45194 4.82697 2.37457 4.98338C2.37457 4.98338 2.22151 5.29622 2.0466 5.65279C1.76571 6.22464 1.97595 6.91591 2.52762 7.23547L10.3317 11.7413L9.31417 8.8703C9.24185 8.66679 9.09888 8.49523 8.91219 8.38759L8.91387 8.38591Z" fill="currentColor" stroke="currentColor" stroke-width="0.075"/>
<path d="M10.226 11.4403L6.67551 9.39003L6.97994 7.26913L6.69737 7.10598L6.39295 9.2252L3.85157 7.75689L4.4251 5.79241L4.15599 5.63599L3.58246 7.60047L2.68095 7.08076C2.12928 6.76287 1.97959 6.29866 2.35129 5.49807C2.5178 5.13814 2.67927 4.82867 2.67927 4.82867C2.68263 4.82362 2.686 4.82026 2.68768 4.81521C2.56322 4.79839 2.43539 4.86062 2.37652 4.98004C2.37652 4.98004 2.22347 5.29288 2.04855 5.64944C1.76767 6.2213 1.97791 6.91256 2.52958 7.23213L10.3337 11.738L10.2277 11.4369L10.226 11.4403Z" fill="currentColor" stroke="currentColor" stroke-width="0.075"/>
<path d="M15.5638 14.6513L15.3014 14.8027C14.9768 14.9911 14.5984 15.0483 14.2418 14.9743C13.8146 14.8868 13.8146 15.795 14.2418 15.8825C14.5984 15.9548 14.9768 15.8976 15.3014 15.7109L15.5638 15.5596C15.8144 15.4149 16.0179 15.0937 16.0179 14.8431C16.0179 14.5925 15.8144 14.5067 15.5638 14.6513Z" fill="currentColor" stroke="currentColor" stroke-width="0.075"/>
<path d="M15.7673 14.8627C15.2745 14.5785 15.0273 15.1302 15.4242 15.3589C15.4663 15.3824 15.5268 15.3774 15.5958 15.3387C15.7219 15.2664 15.8228 15.1066 15.8228 14.9805C15.8228 14.9233 15.8027 14.8829 15.7673 14.8644V14.8627Z" fill="currentColor" stroke="currentColor" stroke-width="0.075"/>
<path d="M14.7413 15.769C14.9498 15.6479 15.1197 15.3804 15.1197 15.1719C15.1197 15.0777 15.0844 15.0104 15.0272 14.9768C15.0053 14.9633 14.9835 14.9549 14.9599 14.9448C14.7497 15.0054 14.531 15.0171 14.3174 14.9852C14.0651 15.1702 14.0147 15.5486 14.4553 15.8026C14.5243 15.843 14.6269 15.8346 14.7413 15.769Z" fill="currentColor" stroke="currentColor" stroke-width="0.075"/>
<path d="M20.217 11.9654L19.9546 12.1168C19.704 12.2614 19.5005 12.5827 19.5005 12.8333C19.5005 13.0839 19.704 13.1697 19.9546 13.025L20.217 12.8736C20.4155 12.7593 20.5197 12.5541 20.5197 12.3472V11.439C20.5197 11.6458 20.4155 11.851 20.217 11.9654Z" fill="currentColor" stroke="currentColor" stroke-width="0.075"/>
<path d="M20.2168 11.9658L19.9544 12.1171C19.8081 12.2012 19.6786 12.3476 19.5962 12.504C19.65 12.5746 19.724 12.6419 19.8283 12.7025C19.8973 12.7428 19.9999 12.7344 20.1142 12.6688C20.3228 12.5477 20.4927 12.2803 20.4927 12.0717C20.4927 11.9775 20.4573 11.9103 20.4001 11.8766C20.385 11.8682 20.3699 11.8632 20.3564 11.8564C20.3161 11.8985 20.2706 11.9372 20.2168 11.9675V11.9658Z" fill="currentColor" stroke="currentColor" stroke-width="0.075"/>
<path d="M19.6303 12.4434C19.5512 12.5712 19.5024 12.7108 19.5024 12.8336C19.5024 12.9177 19.5277 12.9816 19.5664 13.0253C19.5949 13.0219 19.6269 13.0118 19.6605 12.9917C19.7867 12.9193 19.8876 12.7596 19.8876 12.6334C19.8876 12.5762 19.8674 12.5375 19.8321 12.5174C19.7581 12.4753 19.6925 12.4535 19.6303 12.4434Z" fill="currentColor" stroke="currentColor" stroke-width="0.075"/>
<circle cx="20.5495" cy="2.925" r="1.8" fill="currentColor"/>
<circle cx="20.6538" cy="17.8477" r="2.84477" fill="currentColor" stroke="currentColor" stroke-width="0.310458"/>
<path d="M20.5271 16.3956C20.5089 16.3957 20.4908 16.3966 20.4726 16.3982C20.4661 16.3988 20.4595 16.3994 20.453 16.4002C20.4452 16.4011 20.4375 16.402 20.4299 16.4031L20.4191 16.4049C20.0909 16.4592 19.8406 16.7441 19.8406 17.0877C19.8406 17.3334 19.9687 17.549 20.1616 17.6718C20.1641 17.6739 20.1671 17.6759 20.1702 17.6778L20.1707 17.678L20.1253 17.6924C20.0563 17.7159 19.9895 17.7455 19.9257 17.7807L19.8784 17.8081C19.8736 17.811 19.8688 17.8141 19.8641 17.8171C19.8275 17.84 19.7921 17.8648 19.7581 17.8914L19.7532 17.8952C19.4615 18.1256 19.2742 18.4823 19.2742 18.8829C19.2742 18.9371 19.2777 18.9911 19.2846 19.0448H21.79V18.8835C21.79 18.3141 21.4118 17.833 20.8928 17.6778C21.0913 17.5563 21.2237 17.3375 21.2237 17.0877C21.2237 16.7215 20.9392 16.4219 20.5792 16.3973C20.5746 16.397 20.5701 16.3966 20.5654 16.3964C20.5544 16.3958 20.5433 16.3955 20.5321 16.3955L20.5271 16.3956ZM20.5314 17.7823C21.1396 17.7823 21.6327 18.2753 21.6327 18.8835C21.6327 18.8848 21.6326 18.8861 21.6326 18.8874H19.4303C19.4303 18.8861 19.4302 18.8848 19.4302 18.8835C19.4302 18.2753 19.9232 17.7823 20.5314 17.7823ZM20.5315 16.5528C20.8269 16.5528 21.0663 16.7923 21.0663 17.0877C21.0663 17.3831 20.8269 17.6226 20.5315 17.6226C20.236 17.6226 19.9966 17.3831 19.9966 17.0877C19.9966 16.7923 20.236 16.5528 20.5315 16.5528Z" fill="currentColor" stroke="currentColor" stroke-width="0.0204708"/>
<path d="M19.654 16.6338C19.3412 16.6338 19.0877 16.8874 19.0877 17.2001C19.0877 17.3945 19.1856 17.566 19.3348 17.6679C18.9355 17.8002 18.647 18.176 18.6453 18.6195H18.6452V18.7768H19.1211C19.125 18.724 19.1319 18.6715 19.1416 18.6195H18.7948C18.7969 18.1478 19.1799 17.766 19.6521 17.766L19.6415 17.7662L19.6537 17.7665C19.656 17.7665 19.6582 17.7664 19.6605 17.7663L19.6673 17.7661C19.7363 17.7127 19.8101 17.6658 19.8877 17.626C19.8708 17.6062 19.8548 17.5857 19.8397 17.5645C19.7822 17.5939 19.7186 17.6092 19.654 17.6092C19.4281 17.6092 19.245 17.426 19.245 17.2001C19.245 16.9742 19.4281 16.7911 19.654 16.7911C19.6794 16.7912 19.7047 16.7936 19.7296 16.7984C19.7471 16.7476 19.7693 16.6986 19.796 16.6521C19.7736 16.6463 19.7509 16.6418 19.7279 16.6388L19.7246 16.6383C19.7147 16.6371 19.7047 16.6361 19.6946 16.6354C19.6926 16.6353 19.6905 16.635 19.6884 16.6349C19.677 16.6342 19.6656 16.6338 19.654 16.6338Z" fill="currentColor" stroke="currentColor" stroke-width="0.0204708"/>
<path d="M21.3722 16.6338C21.6849 16.6338 21.9383 16.8874 21.9383 17.2001C21.9383 17.3945 21.8404 17.566 21.6913 17.6679C22.0904 17.8002 22.3787 18.176 22.3804 18.6195H22.3805V18.7768H21.9049C21.901 18.724 21.8941 18.6715 21.8844 18.6195H22.231C22.2289 18.1478 21.8461 17.766 21.3742 17.766L21.3848 17.7662L21.3726 17.7665C21.3703 17.7665 21.368 17.7664 21.3658 17.7663L21.359 17.7661C21.29 17.7127 21.2163 17.6658 21.1387 17.626C21.1556 17.6062 21.1716 17.5857 21.1866 17.5645C21.2441 17.5939 21.3077 17.6092 21.3722 17.6092C21.598 17.6092 21.781 17.426 21.781 17.2001C21.781 16.9742 21.598 16.7911 21.3722 16.7911C21.3469 16.7912 21.3216 16.7936 21.2967 16.7984C21.2792 16.7476 21.257 16.6986 21.2303 16.6521C21.2527 16.6463 21.2754 16.6418 21.2984 16.6388L21.3017 16.6383C21.3116 16.6371 21.3216 16.6361 21.3317 16.6354C21.3337 16.6353 21.3358 16.635 21.3378 16.6349C21.3492 16.6342 21.3607 16.6338 21.3722 16.6338Z" fill="currentColor" stroke="currentColor" stroke-width="0.0204708"/>
</g>
<defs>
<clipPath id="clip0_6027_5272">
<rect width="24" height="24" fill="currentColor"/>
</clipPath>
</defs>
</svg>
