<svg width="24" height="24" viewBox="0 0 24 24" fill="none" xmlns="http://www.w3.org/2000/svg">
<g clip-path="url(#clip0_4017_2993)">
<g clip-path="url(#clip1_4017_2993)">
<g clip-path="url(#clip2_4017_2993)">
<path d="M22.7304 14.3757C22.7202 14.3909 22.705 14.4036 22.6847 14.4163L15.4742 18.6062L15.4691 20.0544L22.6797 15.8645C22.6797 15.8645 22.6797 15.8645 22.6822 15.8645C22.6923 15.8594 22.7025 15.8518 22.7101 15.8442C22.7152 15.8391 22.7202 15.8341 22.7228 15.829C22.7228 15.829 22.7228 15.8265 22.7253 15.8239C22.7253 15.8239 22.7278 15.8188 22.7304 15.8163C22.7304 15.8112 22.7355 15.8087 22.7355 15.8036C22.7355 15.7986 22.738 15.796 22.738 15.7909C22.738 15.7859 22.738 15.7833 22.738 15.7783L22.7431 14.3301C22.7431 14.3453 22.738 14.3605 22.7278 14.3757H22.7304Z" fill="#0062CD" stroke="black" stroke-width="0.12"/>
<path d="M12.4555 9.75744C11.1367 9.71432 9.7925 9.98823 8.78816 10.5716C7.78381 11.1549 7.3146 11.9361 7.39323 12.6995C7.40591 12.8237 7.12946 12.9049 6.97982 12.8187L3.16025 10.6121C3.07656 10.564 3.07656 10.4853 3.16025 10.4371L8.53961 7.31251C8.6233 7.26432 8.75772 7.26432 8.84395 7.31251L12.6635 9.51903C12.8132 9.60526 12.6737 9.76758 12.4606 9.75997L12.4555 9.75744ZM5.54431 10.9672L6.88852 10.1861C6.97221 10.1379 6.97221 10.0567 6.88852 10.0085L6.09214 9.54946C6.00844 9.50128 5.87149 9.50128 5.78779 9.54946L4.44359 10.3306C4.35736 10.3813 4.35989 10.46 4.44359 10.5082L5.23997 10.9672C5.32366 11.0154 5.46062 11.0179 5.54685 10.9672" fill="#E8F4FD"/>
<path d="M5.54431 10.9672L6.88852 10.1861C6.97221 10.1379 6.97221 10.0567 6.88852 10.0085L6.09214 9.54946C6.00844 9.50128 5.87149 9.50128 5.78779 9.54946L4.44359 10.3306C4.35736 10.3813 4.35989 10.46 4.44359 10.5082L5.23997 10.9672C5.32366 11.0154 5.46062 11.0179 5.54685 10.9672M12.4555 9.75744C11.1367 9.71432 9.7925 9.98823 8.78816 10.5716C7.78381 11.1549 7.3146 11.9361 7.39323 12.6995C7.40591 12.8237 7.12946 12.9049 6.97982 12.8187L3.16025 10.6121C3.07656 10.564 3.07656 10.4853 3.16025 10.4371L8.53961 7.31251C8.6233 7.26432 8.75772 7.26432 8.84395 7.31251L12.6635 9.51903C12.8132 9.60526 12.6737 9.76758 12.4606 9.75997L12.4555 9.75744Z" stroke="black" stroke-width="0.12"/>
<path d="M14.7563 12.2146L14.4443 12.3972L13.5211 11.8646C13.5338 11.9432 13.5211 12.0219 13.4881 12.0979C13.4526 12.1766 13.3867 12.2501 13.2852 12.3262L13.9294 12.699L13.6175 12.8816L12.9834 12.5164C12.7222 12.6407 12.4458 12.6965 12.1541 12.6813C11.8675 12.6661 11.5784 12.595 11.2816 12.4632L10.678 13.8936L10.1784 13.6045L10.8631 12.136L11.0762 12.0117L11.1852 12.0751C11.3577 12.174 11.52 12.2476 11.6697 12.2958C11.8218 12.3465 11.9715 12.3693 12.1135 12.3668C12.2555 12.3642 12.4001 12.3262 12.5421 12.2577L11.5936 11.7099L11.9055 11.5273L12.849 12.0726C12.9479 11.9889 12.9986 11.9077 13.0063 11.824C13.0164 11.7403 12.9784 11.6516 12.8972 11.5653C12.8186 11.4791 12.6968 11.3878 12.532 11.2914L12.4229 11.228L12.7349 11.0454L14.7563 12.2121V12.2146Z" fill="#E8F4FD" stroke="black" stroke-width="0.12"/>
<path d="M14.8448 10.9899C16.3158 11.8395 16.3209 13.2218 14.8524 14.0739C13.3839 14.9286 11.0024 14.9286 9.52885 14.079C8.0553 13.2294 8.05277 11.8497 9.52378 10.9975C10.9948 10.1453 13.3738 10.1428 14.8448 10.9899ZM14.4441 12.3949L14.756 12.2123L12.7347 11.0457L12.4227 11.2283L12.5318 11.2917C12.6966 11.3881 12.8209 11.4794 12.897 11.5656C12.9781 11.6544 13.0136 11.7406 13.006 11.8243C12.9984 11.908 12.9477 11.9892 12.8488 12.0728L11.9053 11.5276L11.5933 11.7102L12.5419 12.258C12.3999 12.3265 12.2553 12.362 12.1133 12.367C11.9687 12.3721 11.8216 12.3468 11.6694 12.296C11.5198 12.2478 11.3575 12.1743 11.185 12.0754L11.076 12.012L10.8629 12.1363L10.1781 13.6047L10.6778 13.8939L11.2814 12.4634C11.5781 12.5928 11.8673 12.6663 12.1539 12.6815C12.4455 12.6968 12.7245 12.641 12.9832 12.5167L13.6173 12.8819L13.9292 12.6993L13.285 12.3265C13.3865 12.2529 13.4524 12.1768 13.4879 12.0982C13.5234 12.0221 13.5361 11.9435 13.5209 11.8649L14.4441 12.3975" fill="#0062CD"/>
<path d="M14.4441 12.3949L14.756 12.2123L12.7347 11.0457L12.4227 11.2283L12.5318 11.2917C12.6966 11.3881 12.8209 11.4794 12.897 11.5656C12.9781 11.6544 13.0136 11.7406 13.006 11.8243C12.9984 11.908 12.9477 11.9892 12.8488 12.0728L11.9053 11.5276L11.5933 11.7102L12.5419 12.258C12.3999 12.3265 12.2553 12.362 12.1133 12.367C11.9687 12.3721 11.8216 12.3468 11.6694 12.296C11.5198 12.2478 11.3575 12.1743 11.185 12.0754L11.076 12.012L10.8629 12.1363L10.1781 13.6047L10.6778 13.8939L11.2814 12.4634C11.5781 12.5928 11.8673 12.6663 12.1539 12.6815C12.4455 12.6968 12.7245 12.641 12.9832 12.5167L13.6173 12.8819L13.9292 12.6993L13.285 12.3265C13.3865 12.2529 13.4524 12.1768 13.4879 12.0982C13.5234 12.0221 13.5361 11.9435 13.5209 11.8649L14.4441 12.3975M14.8448 10.9899C16.3158 11.8395 16.3209 13.2218 14.8524 14.0739C13.3839 14.9286 11.0024 14.9286 9.52885 14.079C8.0553 13.2294 8.05277 11.8497 9.52378 10.9975C10.9948 10.1453 13.3738 10.1428 14.8448 10.9899Z" stroke="black" stroke-width="0.12"/>
<path d="M15.2121 10.777C16.886 11.7433 16.8886 13.3133 15.2197 14.2846C13.5484 15.256 10.8371 15.2586 9.1632 14.2923C7.48675 13.3234 7.48422 11.756 9.1556 10.7846C10.827 9.81326 13.5382 9.81073 15.2121 10.777ZM9.52842 14.0792C10.9994 14.9288 13.3835 14.9263 14.852 14.0741C16.3179 13.222 16.3154 11.8397 14.8444 10.9901C13.3734 10.1404 10.9893 10.143 9.52335 10.9977C8.05741 11.8524 8.05994 13.2321 9.52842 14.0792Z" fill="#E8F4FD" stroke="black" stroke-width="0.12"/>
<path d="M21.9487 14.2434C22.0324 14.2916 22.0324 14.3702 21.9487 14.4184L15.4711 18.1822C15.3874 18.2304 15.253 18.2304 15.1668 18.1822L2.057 10.6141C1.9733 10.5659 1.9733 10.4873 2.057 10.4391L8.53454 6.6753C8.61823 6.62711 8.75265 6.62711 8.83888 6.6753L21.9487 14.2434ZM9.16352 14.2916C10.8374 15.2579 13.5487 15.2554 15.22 14.284C16.8889 13.3126 16.8863 11.7427 15.2124 10.7764C13.536 9.80755 10.8248 9.81263 9.15591 10.784C7.48707 11.7554 7.48961 13.3253 9.16352 14.2916ZM6.97729 12.8181C7.12693 12.9043 7.40591 12.8231 7.39069 12.6989C7.31461 11.9354 7.77874 11.1568 8.78562 10.571C9.79251 9.98509 11.1342 9.71371 12.453 9.75683C12.6661 9.76444 12.8081 9.60465 12.6559 9.51589L8.83635 7.30936C8.75265 7.26117 8.61569 7.26117 8.532 7.30936L3.15265 10.434C3.06895 10.4822 3.06895 10.5608 3.15265 10.609L6.97222 12.8155M15.4711 17.5456L20.8505 14.421C20.9342 14.3728 20.9342 14.2941 20.8505 14.246L17.3987 12.2525C17.2465 12.1637 16.97 12.2474 16.9827 12.3691C17.0588 13.1326 16.5947 13.9112 15.5878 14.497C14.5809 15.0829 13.2367 15.3543 11.9179 15.3112C11.7048 15.3036 11.5628 15.4634 11.715 15.5521L15.1668 17.5456C15.2505 17.5938 15.3874 17.5938 15.4711 17.5456Z" fill="#017AFF"/>
<path d="M6.97729 12.8181C7.12693 12.9043 7.40591 12.8231 7.39069 12.6989C7.31461 11.9354 7.77874 11.1568 8.78562 10.571C9.79251 9.98509 11.1342 9.71371 12.453 9.75683C12.6661 9.76444 12.8081 9.60465 12.6559 9.51589L8.83635 7.30936C8.75265 7.26117 8.61569 7.26117 8.532 7.30936L3.15265 10.434C3.06895 10.4822 3.06895 10.5608 3.15265 10.609L6.97222 12.8155M21.9487 14.2434C22.0324 14.2916 22.0324 14.3702 21.9487 14.4184L15.4711 18.1822C15.3874 18.2304 15.253 18.2304 15.1668 18.1822L2.057 10.6141C1.9733 10.5659 1.9733 10.4873 2.057 10.4391L8.53454 6.6753C8.61823 6.62711 8.75265 6.62711 8.83888 6.6753L21.9487 14.2434ZM9.16352 14.2916C10.8374 15.2579 13.5487 15.2554 15.22 14.284C16.8889 13.3126 16.8864 11.7427 15.2124 10.7764C13.536 9.80755 10.8248 9.81263 9.15591 10.784C7.48707 11.7554 7.48961 13.3253 9.16352 14.2916ZM15.4711 17.5456L20.8505 14.421C20.9342 14.3728 20.9342 14.2941 20.8505 14.246L17.3987 12.2525C17.2465 12.1637 16.97 12.2474 16.9827 12.3691C17.0588 13.1326 16.5947 13.9112 15.5878 14.497C14.5809 15.0829 13.2367 15.3543 11.9179 15.3112C11.7048 15.3036 11.5628 15.4634 11.715 15.5521L15.1668 17.5456C15.2505 17.5938 15.3874 17.5938 15.4711 17.5456Z" stroke="black" stroke-width="0.12"/>
<path d="M19.7469 14.2466C19.8306 14.2947 19.8306 14.3759 19.7469 14.4241L19.3183 14.6726C19.2346 14.7208 19.1002 14.7208 19.0139 14.6726L18.2176 14.2136C18.1339 14.1654 18.1339 14.0868 18.2176 14.0386L18.6462 13.79C18.7299 13.7418 18.8668 13.7393 18.9505 13.79L19.7469 14.2491V14.2466Z" fill="#017AFF" stroke="black" stroke-width="0.12"/>
<path d="M20.8478 14.2463C20.9315 14.2945 20.9315 14.3731 20.8478 14.4213L15.4684 17.5459C15.3847 17.5941 15.2503 17.5941 15.1641 17.5459L11.7123 15.5524C11.5626 15.4662 11.7021 15.3039 11.9152 15.3115C13.234 15.3546 14.5782 15.0807 15.5851 14.4974C16.592 13.914 17.0561 13.1354 16.98 12.3695C16.9673 12.2452 17.2438 12.164 17.396 12.2528L20.8478 14.2463ZM19.3159 14.6724L19.7445 14.4238C19.8282 14.3756 19.8282 14.2945 19.7445 14.2463L18.9481 13.7872C18.8644 13.739 18.7275 13.739 18.6438 13.7872L18.2152 14.0358C18.1315 14.0839 18.1315 14.1626 18.2152 14.2108L19.0115 14.6698C19.0952 14.718 19.2322 14.718 19.3159 14.6698" fill="#E8F4FD"/>
<path d="M19.3159 14.6724L19.7445 14.4238C19.8282 14.3756 19.8282 14.2945 19.7445 14.2463L18.9481 13.7872C18.8644 13.739 18.7275 13.739 18.6438 13.7872L18.2152 14.0358C18.1315 14.0839 18.1315 14.1626 18.2152 14.2108L19.0115 14.6698C19.0952 14.718 19.2322 14.718 19.3159 14.6698M20.8478 14.2463C20.9315 14.2945 20.9315 14.3731 20.8478 14.4213L15.4684 17.5459C15.3847 17.5941 15.2503 17.5941 15.1641 17.5459L11.7123 15.5524C11.5626 15.4662 11.7021 15.3039 11.9152 15.3115C13.234 15.3546 14.5782 15.0807 15.5851 14.4974C16.592 13.914 17.0561 13.1354 16.98 12.3695C16.9673 12.2452 17.2438 12.164 17.396 12.2528L20.8478 14.2463Z" stroke="black" stroke-width="0.12"/>
<path d="M22.6816 14.2438C22.7653 14.292 22.7653 14.3706 22.6816 14.4188L15.471 18.6087C15.3848 18.6594 15.2504 18.6594 15.1667 18.6087L1.3214 10.6145C1.2377 10.5663 1.2377 10.4877 1.3214 10.4369L8.53191 6.24708C8.61561 6.19889 8.75003 6.19889 8.83626 6.24708L22.6816 14.2413V14.2438ZM15.471 18.1851L21.9486 14.4214C22.0323 14.3732 22.0323 14.2945 21.9486 14.2464L8.8388 6.67824C8.7551 6.63005 8.61815 6.63005 8.53445 6.67824L2.05691 10.442C1.97321 10.4902 1.97321 10.5688 2.05691 10.617L15.1667 18.1851C15.2504 18.2333 15.3874 18.2333 15.471 18.1851Z" fill="#E8F4FD" stroke="black" stroke-width="0.12"/>
<path d="M6.88841 10.0084C6.97211 10.0566 6.97211 10.1377 6.88841 10.1859L5.54421 10.9671C5.45797 11.0178 5.32102 11.0153 5.23732 10.9671L4.44095 10.508C4.35725 10.4598 4.35725 10.3812 4.44095 10.3305L5.78515 9.54931C5.86885 9.50112 6.0058 9.49858 6.0895 9.54931L6.88587 10.0084H6.88841Z" fill="#017AFF" stroke="black" stroke-width="0.12"/>
<path d="M15.4055 18.6342C15.4055 18.6342 15.3979 18.6342 15.3954 18.6368C15.3725 18.6418 15.3472 18.6444 15.3218 18.6444C15.3218 18.6444 15.3218 18.6444 15.3193 18.6444C15.2939 18.6444 15.266 18.6418 15.2406 18.6368C15.2406 18.6368 15.2406 18.6368 15.2381 18.6368C15.2127 18.6317 15.1899 18.6215 15.1696 18.6089L1.32433 10.6146C1.28121 10.5893 1.26092 10.5588 1.26092 10.5259L1.25585 11.9741C1.25585 12.007 1.27614 12.0375 1.31926 12.0628L15.1646 20.057C15.1646 20.057 15.1848 20.0672 15.195 20.0723C15.2026 20.0748 15.2127 20.0773 15.2204 20.0799C15.2254 20.0799 15.228 20.0799 15.233 20.0824C15.233 20.0824 15.233 20.0824 15.2356 20.0824C15.2356 20.0824 15.2406 20.0824 15.2432 20.0824C15.2508 20.0824 15.2584 20.0849 15.2635 20.0849C15.2711 20.0849 15.2762 20.0849 15.2838 20.0849C15.2914 20.0849 15.299 20.0849 15.304 20.0849C15.3066 20.0849 15.3091 20.0849 15.3117 20.0849C15.3117 20.0849 15.3117 20.0849 15.3142 20.0849C15.3167 20.0849 15.3218 20.0849 15.3243 20.0849C15.3319 20.0849 15.3396 20.0849 15.3472 20.0849C15.3573 20.0849 15.3649 20.0849 15.3751 20.0799C15.3801 20.0799 15.3827 20.0799 15.3877 20.0773C15.3903 20.0773 15.3954 20.0773 15.3979 20.0748C15.403 20.0748 15.4106 20.0723 15.4156 20.0697C15.4334 20.0647 15.4486 20.057 15.4638 20.0494L15.4689 18.6012C15.4486 18.6139 15.4258 18.6215 15.403 18.6266L15.4055 18.6342Z" fill="#017AFF" stroke="black" stroke-width="0.12"/>
<path d="M22.7314 12.5085C22.7213 12.5238 22.7061 12.5364 22.6858 12.5491L15.4753 16.739L15.4702 18.1872L22.6807 13.9973C22.6807 13.9973 22.6807 13.9973 22.6833 13.9973C22.6934 13.9922 22.7036 13.9846 22.7112 13.977C22.7162 13.9719 22.7213 13.9669 22.7238 13.9618C22.7238 13.9618 22.7238 13.9593 22.7264 13.9567C22.7264 13.9567 22.7289 13.9517 22.7314 13.9491C22.7314 13.9441 22.7365 13.9415 22.7365 13.9364C22.7365 13.9314 22.7391 13.9288 22.7391 13.9238C22.7391 13.9187 22.7391 13.9162 22.7391 13.9111L22.7441 12.4629C22.7441 12.4781 22.7391 12.4933 22.7289 12.5085H22.7314Z" fill="#0062CD" stroke="black" stroke-width="0.12"/>
<path d="M12.4566 7.89025C11.1378 7.84713 9.79357 8.12104 8.78922 8.70438C7.78487 9.28771 7.31567 10.0689 7.39429 10.8323C7.40698 10.9566 7.13053 11.0377 6.98089 10.9515L3.16132 8.74496C3.07762 8.69677 3.07762 8.61815 3.16132 8.56996L8.54067 5.44532C8.62437 5.39713 8.75879 5.39713 8.84502 5.44532L12.6646 7.65184C12.8142 7.73808 12.6747 7.90039 12.4617 7.89278L12.4566 7.89025Z" fill="#E8F4FD" stroke="black" stroke-width="0.06"/>
<path d="M15.2132 8.90984C16.8871 9.87615 16.8896 11.4461 15.2208 12.4175C13.5494 13.3888 10.8382 13.3914 9.16427 12.4251C7.48782 11.4562 7.48529 9.88883 9.15666 8.91745C10.828 7.94607 13.5393 7.94354 15.2132 8.90984Z" fill="#E8F4FD" stroke="black" stroke-width="0.06"/>
<path d="M14.7573 10.3479L14.4454 10.5305L13.5222 9.99791C13.5349 10.0765 13.5222 10.1552 13.4892 10.2312C13.4537 10.3099 13.3878 10.3834 13.2863 10.4595L13.9305 10.8323L13.6186 11.0149L12.9845 10.6497C12.7233 10.774 12.4468 10.8298 12.1551 10.8146C11.8686 10.7994 11.5794 10.7283 11.2827 10.5965L10.6791 12.0269L10.1794 11.7378L10.8642 10.2693L11.0772 10.145L11.1863 10.2084C11.3588 10.3073 11.5211 10.3809 11.6707 10.4291C11.8229 10.4798 11.9725 10.5026 12.1146 10.5001C12.2566 10.4976 12.4012 10.4595 12.5432 10.391L11.5946 9.8432L11.9066 9.66059L12.8501 10.2059C12.949 10.1222 12.9997 10.041 13.0073 9.95733C13.0175 9.87364 12.9794 9.78487 12.8983 9.69864C12.8196 9.61241 12.6979 9.5211 12.533 9.42473L12.424 9.36132L12.7359 9.17871L14.7573 10.3454V10.3479Z" fill="#017AFF" stroke="black" stroke-width="0.06"/>
<path d="M21.9497 12.3767C22.0334 12.4249 22.0334 12.5035 21.9497 12.5517L15.4722 16.3155C15.3885 16.3637 15.2541 16.3637 15.1679 16.3155L2.05806 8.74737C1.97437 8.69918 1.97437 8.62056 2.05806 8.57237L8.5356 4.8086C8.6193 4.76041 8.75372 4.76041 8.83995 4.8086L21.9497 12.3767ZM9.16459 12.4274C10.8385 13.3938 13.5497 13.3912 15.2211 12.4198C16.89 11.4485 16.8874 9.87853 15.2135 8.91223C13.5371 7.94339 10.8258 7.94846 9.15698 8.91983C7.48814 9.89121 7.49068 11.4611 9.16459 12.4274ZM6.97836 10.9514C7.12799 11.0376 7.40698 10.9564 7.39176 10.8322C7.31568 10.0688 7.77981 9.29012 8.78669 8.70425C9.79357 8.11838 11.1352 7.84701 12.4541 7.89012C12.6671 7.89773 12.8092 7.73795 12.657 7.64918L8.83742 5.44266C8.75372 5.39447 8.61676 5.39447 8.53307 5.44266L3.15372 8.5673C3.07002 8.61549 3.07002 8.69411 3.15372 8.7423L6.97329 10.9488M15.4722 15.6789L20.8516 12.5543C20.9352 12.5061 20.9352 12.4274 20.8516 12.3793L17.3997 10.3858C17.2476 10.297 16.9711 10.3807 16.9838 10.5024C17.0599 11.2659 16.5958 12.0445 15.5889 12.6303C14.582 13.2162 13.2378 13.4876 11.9189 13.4445C11.7059 13.4369 11.5639 13.5967 11.716 13.6854L15.1679 15.6789C15.2515 15.7271 15.3885 15.7271 15.4722 15.6789Z" fill="#017AFF"/>
<path d="M6.97836 10.9514C7.12799 11.0376 7.40698 10.9564 7.39176 10.8322C7.31568 10.0688 7.77981 9.29012 8.78669 8.70425C9.79357 8.11838 11.1352 7.84701 12.4541 7.89012C12.6671 7.89773 12.8092 7.73795 12.657 7.64918L8.83742 5.44266C8.75372 5.39447 8.61676 5.39447 8.53307 5.44266L3.15372 8.5673C3.07002 8.61549 3.07002 8.69411 3.15372 8.7423L6.97329 10.9488M21.9497 12.3767C22.0334 12.4249 22.0334 12.5035 21.9497 12.5517L15.4722 16.3155C15.3885 16.3637 15.2541 16.3637 15.1679 16.3155L2.05806 8.74737C1.97437 8.69918 1.97437 8.62056 2.05806 8.57237L8.5356 4.8086C8.6193 4.76041 8.75372 4.76041 8.83995 4.8086L21.9497 12.3767ZM9.16459 12.4274C10.8385 13.3938 13.5497 13.3912 15.2211 12.4198C16.89 11.4485 16.8874 9.87853 15.2135 8.91223C13.5371 7.94339 10.8258 7.94846 9.15698 8.91983C7.48814 9.89121 7.49068 11.4611 9.16459 12.4274ZM15.4722 15.6789L20.8516 12.5543C20.9352 12.5061 20.9352 12.4274 20.8516 12.3793L17.3997 10.3858C17.2476 10.297 16.9711 10.3807 16.9838 10.5024C17.0599 11.2659 16.5958 12.0445 15.5889 12.6303C14.582 13.2162 13.2378 13.4876 11.9189 13.4445C11.7059 13.4369 11.5639 13.5967 11.716 13.6854L15.1679 15.6789C15.2515 15.7271 15.3885 15.7271 15.4722 15.6789Z" stroke="black" stroke-width="0.06"/>
<path d="M20.8488 12.3791C20.9325 12.4273 20.9325 12.5059 20.8488 12.5541L15.4695 15.6787C15.3858 15.7269 15.2514 15.7269 15.1652 15.6787L11.7133 13.6852C11.5637 13.599 11.7032 13.4367 11.9162 13.4443C13.2351 13.4874 14.5793 13.2135 15.5862 12.6302C16.593 12.0468 17.0572 11.2682 16.9811 10.5023C16.9684 10.378 17.2449 10.2968 17.397 10.3856L20.8488 12.3791Z" fill="#E8F4FD" stroke="black" stroke-width="0.06"/>
<path d="M22.6826 12.3766C22.7663 12.4248 22.7663 12.5034 22.6826 12.5516L15.4721 16.7415C15.3859 16.7922 15.2515 16.7922 15.1678 16.7415L1.32247 8.74729C1.23877 8.6991 1.23877 8.62047 1.32247 8.56975L8.53298 4.37989C8.61668 4.3317 8.7511 4.3317 8.83733 4.37989L22.6826 12.3741V12.3766ZM15.4721 16.3179L21.9497 12.5542C22.0334 12.506 22.0334 12.4274 21.9497 12.3792L8.83987 4.81105C8.75617 4.76286 8.61921 4.76286 8.53552 4.81105L2.05798 8.57482C1.97428 8.62301 1.97428 8.70163 2.05798 8.74982L15.1678 16.3179C15.2515 16.3661 15.3884 16.3661 15.4721 16.3179Z" fill="#E8F4FD" stroke="black" stroke-width="0.12"/>
<path d="M15.4066 16.767C15.4066 16.767 15.399 16.767 15.3964 16.7696C15.3736 16.7746 15.3482 16.7772 15.3229 16.7772C15.3229 16.7772 15.3229 16.7772 15.3203 16.7772C15.295 16.7772 15.2671 16.7746 15.2417 16.7696C15.2417 16.7696 15.2417 16.7696 15.2392 16.7696C15.2138 16.7645 15.191 16.7543 15.1707 16.7417L1.3254 8.74746C1.28228 8.7221 1.26199 8.69166 1.26199 8.65869L1.25692 10.1069C1.25692 10.1399 1.27721 10.1703 1.32033 10.1956L15.1656 18.1899C15.1656 18.1899 15.1859 18.2 15.1961 18.2051C15.2037 18.2076 15.2138 18.2101 15.2214 18.2127C15.2265 18.2127 15.229 18.2127 15.2341 18.2152C15.2341 18.2152 15.2341 18.2152 15.2366 18.2152C15.2366 18.2152 15.2417 18.2152 15.2442 18.2152C15.2519 18.2152 15.2595 18.2178 15.2645 18.2178C15.2721 18.2178 15.2772 18.2178 15.2848 18.2178C15.2924 18.2178 15.3 18.2178 15.3051 18.2178C15.3077 18.2178 15.3102 18.2178 15.3127 18.2178C15.3127 18.2178 15.3127 18.2178 15.3153 18.2178C15.3178 18.2178 15.3229 18.2178 15.3254 18.2178C15.333 18.2178 15.3406 18.2178 15.3482 18.2178C15.3584 18.2178 15.366 18.2178 15.3761 18.2127C15.3812 18.2127 15.3837 18.2127 15.3888 18.2101C15.3913 18.2101 15.3964 18.2101 15.399 18.2076C15.404 18.2076 15.4116 18.2051 15.4167 18.2025C15.4345 18.1975 15.4497 18.1899 15.4649 18.1822L15.47 16.7341C15.4497 16.7467 15.4269 16.7543 15.404 16.7594L15.4066 16.767Z" fill="#017AFF" stroke="black" stroke-width="0.12"/>
</g>
<circle cx="19.6187" cy="19.2" r="4.2" fill="#283964"/>
<path d="M20.1266 16.9504C20.0963 16.9506 20.0661 16.952 20.036 16.9547C20.025 16.9557 20.0141 16.9567 20.0033 16.958C19.9904 16.9595 19.9776 16.961 19.9649 16.9629L19.9469 16.9659C19.4012 17.0561 18.9849 17.5299 18.9849 18.1011C18.9849 18.5097 19.1979 18.8682 19.5187 19.0725C19.523 19.0759 19.5279 19.0793 19.533 19.0824L19.5339 19.0827L19.4585 19.1066C19.3437 19.1458 19.2326 19.195 19.1265 19.2534L19.0478 19.299C19.0398 19.3039 19.032 19.309 19.024 19.314C18.9632 19.3521 18.9044 19.3934 18.8478 19.4376L18.8397 19.4438C18.3546 19.827 18.0432 20.4201 18.0432 21.0863C18.0432 21.1763 18.049 21.2662 18.0605 21.3554H22.2265V21.0873C22.2265 20.1403 21.5976 19.3405 20.7346 19.0824C21.0646 18.8804 21.2848 18.5166 21.2848 18.1011C21.2848 17.4922 20.8118 16.994 20.2132 16.9532C20.2055 16.9527 20.1979 16.952 20.1903 16.9516C20.1719 16.9507 20.1534 16.9502 20.1348 16.9502L20.1266 16.9504ZM20.1337 19.2561C21.1451 19.2561 21.9649 20.0759 21.9649 21.0872C21.9649 21.0894 21.9647 21.0916 21.9647 21.0938H18.3028C18.3028 21.0916 18.3026 21.0894 18.3026 21.0872C18.3026 20.0759 19.1224 19.2561 20.1337 19.2561ZM20.1338 17.2117C20.625 17.2117 21.0232 17.6099 21.0232 18.1011C21.0232 18.5924 20.625 18.9906 20.1338 18.9906C19.6426 18.9906 19.2444 18.5924 19.2444 18.1011C19.2444 17.6099 19.6426 17.2117 20.1338 17.2117Z" fill="white" stroke="white" stroke-width="0.03"/>
<path d="M18.6742 17.3472C18.1541 17.3472 17.7325 17.7688 17.7325 18.2889C17.7325 18.6121 17.8954 18.8972 18.1435 19.0668C17.4794 19.2867 16.9998 19.9115 16.997 20.649H16.9968V20.9106H17.7881C17.7946 20.8228 17.806 20.7355 17.8222 20.649H17.2455C17.249 19.8646 17.8858 19.2298 18.671 19.2298L18.6534 19.2301L18.6737 19.2306C18.6775 19.2306 18.6812 19.2305 18.685 19.2304L18.6963 19.23C18.8111 19.1412 18.9337 19.0633 19.0628 18.9971C19.0347 18.9642 19.008 18.93 18.983 18.8947C18.8874 18.9437 18.7816 18.9691 18.6743 18.969C18.2987 18.969 17.9941 18.6645 17.9941 18.2889C17.9941 17.9133 18.2987 17.6088 18.6743 17.6088C18.7165 17.6089 18.7585 17.6129 18.8 17.6209C18.829 17.5364 18.8659 17.455 18.9104 17.3776C18.8731 17.3679 18.8353 17.3605 18.7971 17.3554L18.7915 17.3547C18.7751 17.3526 18.7585 17.3511 18.7417 17.3498C18.7383 17.3496 18.7349 17.3493 18.7315 17.3491C18.7125 17.3479 18.6935 17.3472 18.6742 17.3472Z" fill="#1FD896" stroke="#1FD896" stroke-width="0.03"/>
</g>
</g>
<defs>
<clipPath id="clip0_4017_2993">
<rect width="24" height="24" fill="white"/>
</clipPath>
<clipPath id="clip1_4017_2993">
<rect width="24" height="24" fill="white"/>
</clipPath>
<clipPath id="clip2_4017_2993">
<rect width="24" height="24" fill="white"/>
</clipPath>
</defs>
</svg>
