<svg width="16" height="16" viewBox="0 0 16 16" fill="none" xmlns="http://www.w3.org/2000/svg">
<g clip-path="url(#clip0_3396_62225)">
<g clip-path="url(#clip1_3396_62225)">
<circle cx="8" cy="8" r="7.75" fill="currentColor"/>
<path fill-rule="evenodd" clip-rule="evenodd" d="M9.68108 9.27761C9.90619 8.92523 10.009 8.50435 9.98451 8.07859C9.92089 6.99213 8.98614 6.15526 7.89968 6.13079H4.75286C3.8279 6.13079 3.06934 5.38201 3.06934 4.44727H7.93393C9.9943 4.44727 11.6778 6.13079 11.6778 8.19115C11.6778 8.56797 11.6142 8.92523 11.5114 9.27761H9.68108ZM6.0155 7.92198C6.07912 9.02313 6.99918 9.8551 8.10033 9.8551V9.86977H11.2472C12.1721 9.86977 12.9307 10.6137 12.9307 11.5533H8.06117C6.00081 11.5533 4.3173 9.86977 4.3173 7.80941C4.3173 7.43257 4.38092 7.07533 4.48369 6.72296H6.31893C6.08891 7.07533 5.99102 7.49621 6.0155 7.92198Z" fill="currentColor"/>
</g>
</g>
<defs>
<clipPath id="clip0_3396_62225">
<rect width="16" height="16" fill="currentColor"/>
</clipPath>
<clipPath id="clip1_3396_62225">
<rect width="16" height="16" fill="currentColor"/>
</clipPath>
</defs>
</svg>
