<svg width="24" height="24" viewBox="0 0 24 24" fill="none" xmlns="http://www.w3.org/2000/svg">
<g clip-path="url(#clip0_3396_73523)">
<g clip-path="url(#clip1_3396_73523)">
<circle cx="12" cy="12" r="12" fill="currentColor"/>
<g clip-path="url(#clip2_3396_73523)">
<path d="M9.12952 9.27085H10.4148V10.0904H9.12952V9.27085ZM7.23317 11.1551H8.63378C8.63378 11.1551 8.31377 9.39001 6.31369 9.23127C6.31369 9.23127 4.50871 9.13821 3.87332 10.9577C3.87332 10.9577 3.37505 12.1698 4.32835 13.3322C4.32835 13.3322 4.94915 14.1915 6.22709 14.2129C6.22709 14.2129 7.27415 14.2997 8.06113 13.3827C8.06113 13.3827 8.58985 12.7713 8.62845 12.2613H7.25169C7.25169 12.2613 6.8674 13.0506 6.03943 12.887C6.03943 12.887 5.26032 12.857 5.06705 11.9051C5.06705 11.9051 4.93048 10.984 5.80434 10.6176C5.80434 10.6176 6.76143 10.2994 7.23317 11.1551ZM9.12952 10.4658H10.4111V14.13H9.12741L9.12952 10.4658ZM12.4513 12.6979C12.6174 12.9313 12.9304 13.0745 13.2128 13.0021C13.2731 12.9875 13.3265 12.9527 13.3871 12.9382C13.6345 12.7988 13.7982 12.5056 13.7658 12.1957C13.7213 11.9804 13.5826 11.7602 13.3784 11.6624C13.2146 11.5707 12.9781 11.5546 12.8104 11.6183C12.6697 11.6747 12.543 11.7648 12.4508 11.8947C12.2927 12.1202 12.2988 12.4711 12.4513 12.6979ZM12.3317 10.8197C12.3317 10.8197 12.5844 10.5741 12.8011 10.4948C12.8011 10.4948 13.2633 10.3105 13.7938 10.52C13.7938 10.52 14.3174 10.6607 14.7324 11.2276C14.7324 11.2276 15.1225 11.7546 15.0645 12.3863C15.0645 12.3863 15.0683 13.0867 14.5303 13.5994C14.5303 13.5994 14.0357 14.1661 13.2487 14.1589C13.2487 14.1589 12.8227 14.2456 12.3317 13.7617V15.1048H11.0393V10.4679H12.3317V10.8034M15.5556 9.25892H16.8479V14.13H15.5556V9.25892ZM18.5953 12.379C18.6273 12.6755 18.8475 12.9079 19.0988 12.998C19.3703 13.0878 19.6995 12.9942 19.8847 12.7682C20.0501 12.5696 20.0856 12.2924 20.0004 12.0507C19.9079 11.7822 19.6213 11.5982 19.3375 11.5897C19.0944 11.5872 18.867 11.706 18.7219 11.8976C18.6367 12.0408 18.5787 12.2036 18.5953 12.379ZM20.0466 10.4656H21.375V14.1298H20.0466V13.7913C20.0466 13.7913 19.654 14.2045 19.1705 14.1672C19.1705 14.1672 18.1405 14.2201 17.5821 13.2526C17.5821 13.2526 17.2692 12.7327 17.3269 12.2418C17.3269 12.2418 17.3317 11.7797 17.5627 11.3996C17.5627 11.3996 17.7505 11.053 18.0104 10.8555C18.0104 10.8555 18.4728 10.5042 18.8144 10.4849C18.8144 10.4849 19.5315 10.2681 20.0466 10.8216V10.4656Z" fill="currentColor"/>
</g>
</g>
</g>
<defs>
<clipPath id="clip0_3396_73523">
<rect width="24" height="24" fill="currentColor"/>
</clipPath>
<clipPath id="clip1_3396_73523">
<rect width="24" height="24" fill="currentColor"/>
</clipPath>
<clipPath id="clip2_3396_73523">
<rect width="18" height="6.2424" fill="currentColor" transform="translate(3.375 9)"/>
</clipPath>
</defs>
</svg>
