<svg width="24" height="24" viewBox="0 0 24 24" fill="none" xmlns="http://www.w3.org/2000/svg">
<g clip-path="url(#clip0_3396_51893)">
<path d="M24 12C24 5.37258 18.6274 0 12 0C5.37258 0 0 5.37258 0 12C0 18.6274 5.37258 24 12 24C18.6274 24 24 18.6274 24 12Z" fill="currentColor"/>
<path d="M9.0078 13.496H8.25101V16.4951H9.0078V13.496Z" fill="currentColor"/>
<path d="M15.1108 14.3562C15.0803 14.3404 14.837 14.196 14.475 14.196C13.9848 14.196 13.6456 14.5367 13.6456 14.996C13.6456 15.4416 13.9706 15.7966 14.475 15.7966C14.8307 15.7966 15.0781 15.6554 15.1108 15.6375V16.4425C15.0168 16.469 14.7586 16.5491 14.4206 16.5491C13.5698 16.5491 12.8236 15.9623 12.8236 14.996C12.8236 14.1004 13.4996 13.4435 14.4206 13.4435C14.7768 13.4435 15.0395 13.5301 15.1108 13.5512V14.3562Z" fill="currentColor"/>
<path d="M7.21156 14.3562C7.18111 14.3404 6.93777 14.196 6.57582 14.196C6.08558 14.196 5.74639 14.5367 5.74639 14.996C5.74639 15.4416 6.07145 15.7966 6.57582 15.7966C6.93155 15.7966 7.17893 15.6554 7.21156 15.6375V16.4425C7.11758 16.469 6.8594 16.5491 6.52141 16.5491C5.67065 16.5491 4.9244 15.9623 4.9244 14.996C4.9244 14.1004 5.60037 13.4435 6.52141 13.4435C6.87762 13.4435 7.14034 13.5301 7.21156 13.5512V14.3562Z" fill="currentColor"/>
<path d="M17.4911 14.2073C17.0421 14.2073 16.7086 14.5606 16.7086 14.996C16.7086 15.4323 17.0421 15.7854 17.4911 15.7854C17.9396 15.7854 18.274 15.4323 18.274 14.996C18.274 14.5606 17.9396 14.2073 17.4911 14.2073ZM19.0759 14.996C19.0759 15.8539 18.4135 16.5491 17.4911 16.5491C16.5686 16.5491 15.9073 15.8539 15.9073 14.996C15.9073 14.1395 16.5686 13.4435 17.4911 13.4435C18.4135 13.4435 19.0759 14.1395 19.0759 14.996Z" fill="currentColor"/>
<path d="M11.8773 14.1772C11.8661 14.1736 11.5475 14.0856 11.2857 14.0856C10.9825 14.0856 10.8176 14.1873 10.8176 14.3314C10.8176 14.514 11.04 14.5778 11.1644 14.6171L11.3732 14.6835C11.8644 14.8398 12.0883 15.1761 12.0883 15.5415C12.0883 16.2949 11.4257 16.548 10.8465 16.548C10.4441 16.548 10.067 16.474 10.0298 16.4661V15.7759C10.0965 15.7927 10.4139 15.8874 10.7444 15.8874C11.121 15.8874 11.2941 15.7773 11.2941 15.6074C11.2941 15.4554 11.1443 15.3677 10.9566 15.3087C10.9108 15.2934 10.842 15.2718 10.795 15.2565C10.3736 15.1231 10.0222 14.8755 10.0222 14.3791C10.0222 13.8181 10.4421 13.4415 11.1398 13.4415C11.5082 13.4415 11.8548 13.5309 11.8773 13.5369V14.1772Z" fill="currentColor"/>
<path d="M4.12149 10.2731C4.12149 10.0665 3.9527 9.89894 3.74584 9.89894C3.53896 9.89894 3.36996 10.0665 3.36996 10.2731V11.0604C3.36996 11.2682 3.53896 11.436 3.74584 11.436C3.9527 11.436 4.12149 11.2682 4.12149 11.0604V10.2731Z" fill="currentColor"/>
<path d="M6.18598 9.24164C6.18598 9.03497 6.01723 8.86694 5.81034 8.86694C5.60323 8.86694 5.43448 9.03497 5.43448 9.24164V11.0623C5.43448 11.2701 5.60323 11.4377 5.81034 11.4377C6.01723 11.4377 6.18598 11.2701 6.18598 11.0623V9.24164Z" fill="currentColor"/>
<path d="M8.24848 7.82605C8.24848 7.61939 8.07973 7.45161 7.87284 7.45161C7.66573 7.45161 7.49698 7.61939 7.49698 7.82605V11.8085C7.49698 12.0163 7.66573 12.1841 7.87284 12.1841C8.07973 12.1841 8.24848 12.0163 8.24848 11.8085V7.82605Z" fill="currentColor"/>
<path d="M10.313 9.24164C10.313 9.03497 10.1443 8.86694 9.93739 8.86694C9.73028 8.86694 9.56149 9.03497 9.56149 9.24164V11.0623C9.56149 11.2701 9.73028 11.4377 9.93739 11.4377C10.1443 11.4377 10.313 11.2701 10.313 11.0623V9.24164Z" fill="currentColor"/>
<path d="M12.3741 10.2731C12.3741 10.0665 12.2066 9.89894 12.0006 9.89894C11.7938 9.89894 11.625 10.0665 11.625 10.2731V11.0604C11.625 11.2682 11.7938 11.436 12.0006 11.436C12.2066 11.436 12.3741 11.2682 12.3741 11.0604V10.2731Z" fill="currentColor"/>
<path d="M12.3755 10.2731C12.3755 10.0665 12.2067 9.89894 11.9999 9.89894C11.793 9.89894 11.624 10.0665 11.624 10.2731V11.0604C11.624 11.2682 11.793 11.436 11.9999 11.436C12.2067 11.436 12.3755 11.2682 12.3755 11.0604V10.2731Z" fill="currentColor"/>
<path d="M14.44 9.24164C14.44 9.03497 14.2713 8.86694 14.0644 8.86694C13.8573 8.86694 13.6885 9.03497 13.6885 9.24164V11.0623C13.6885 11.2701 13.8573 11.4377 14.0644 11.4377C14.2713 11.4377 14.44 11.2701 14.44 11.0623V9.24164Z" fill="currentColor"/>
<path d="M16.5025 7.82605C16.5025 7.61939 16.3338 7.45161 16.1269 7.45161C15.9198 7.45161 15.751 7.61939 15.751 7.82605V11.8085C15.751 12.0163 15.9198 12.1841 16.1269 12.1841C16.3338 12.1841 16.5025 12.0163 16.5025 11.8085V7.82605Z" fill="currentColor"/>
<path d="M18.5671 9.24164C18.5671 9.03497 18.3983 8.86694 18.1914 8.86694C17.9843 8.86694 17.8155 9.03497 17.8155 9.24164V11.0623C17.8155 11.2701 17.9843 11.4377 18.1914 11.4377C18.3983 11.4377 18.5671 11.2701 18.5671 11.0623V9.24164Z" fill="currentColor"/>
<path d="M20.6281 10.2731C20.6281 10.0665 20.4606 9.89894 20.2547 9.89894C20.0478 9.89894 19.879 10.0665 19.879 10.2731V11.0604C19.879 11.2682 20.0478 11.436 20.2547 11.436C20.4606 11.436 20.6281 11.2682 20.6281 11.0604V10.2731Z" fill="currentColor"/>
<path d="M20.1972 16.1008V16.1478H20.0634V16.4956H20.0085V16.1478H19.874V16.1008H20.1972Z" fill="currentColor"/>
<path d="M20.2248 16.1008H20.3109L20.429 16.4247H20.431L20.5453 16.1008H20.6297V16.4956H20.5734V16.172H20.5714L20.4516 16.4956H20.3995L20.2826 16.172H20.2799V16.4956H20.2248V16.1008Z" fill="currentColor"/>
</g>
<defs>
<clipPath id="clip0_3396_51893">
<rect width="23.25" height="23.25" fill="currentColor" transform="scale(1.03226)"/>
</clipPath>
</defs>
</svg>
