<svg width="64" height="64" viewBox="0 0 64 64" fill="none" xmlns="http://www.w3.org/2000/svg">
<g clip-path="url(#clip0_3396_56181)">
<g filter="url(#filter0_d_3396_56181)">
<path d="M0 32C0 14.3269 14.3269 0 32 0C49.6731 0 64 14.3269 64 32C64 49.6731 49.6731 64 32 64C14.3269 64 0 49.6731 0 32Z" fill="#003B70"/>
<path d="M24.2454 38.6928L24.1742 38.7614C23.0308 39.9223 21.7069 40.5377 20.3431 40.5377C17.4959 40.5377 15.4294 38.4093 15.4294 35.4726C15.4294 32.5414 17.4959 30.41 20.3431 30.41C21.7069 30.41 23.0308 31.0281 24.1742 32.192L24.2454 32.2626L26.0764 30.0563L26.0274 29.9967C24.5045 28.2037 22.6774 27.3306 20.4316 27.3306C18.1776 27.3306 16.1174 28.0863 14.6323 29.4495C13.0189 30.9259 12.167 33.0078 12.167 35.4726C12.167 37.9367 13.0189 40.0237 14.6323 41.5004C16.1174 42.8699 18.1776 43.6213 20.4316 43.6213C22.6774 43.6213 24.5045 42.749 26.0274 40.9553L26.0764 40.8995L24.2454 38.6928Z" fill="white"/>
<path d="M27.9268 43.3211H31.1614V27.5864H27.9268V43.3211Z" fill="white"/>
<path d="M43.8315 39.8996C42.9686 40.4233 42.1656 40.6865 41.4444 40.6865C40.3992 40.6865 39.9269 40.1371 39.9269 38.9127V30.5635H43.2214V27.6007H39.9269V22.7046L36.7564 24.3954V27.6007H34.0215V30.5635H36.7564V39.4453C36.7564 41.8649 38.1949 43.5179 40.3421 43.5612C41.8001 43.5897 42.679 43.1568 43.2127 42.8402L43.2441 42.8171L44.0228 39.7834L43.8315 39.8996Z" fill="white"/>
<path d="M46.5107 43.3211H49.7473V27.5864H46.5107V43.3211Z" fill="white"/>
<path fill-rule="evenodd" clip-rule="evenodd" d="M51.6847 24.7942C48.7236 20.6148 43.8064 18.1211 38.8033 18.1211C33.8027 18.1211 28.8843 20.6148 25.9282 24.7942L25.7764 25.0091H29.5049L29.546 24.9647C32.0837 22.3547 35.3962 20.9743 38.8033 20.9743C42.2113 20.9743 45.5231 22.3547 48.0654 24.9647L48.1069 25.0091H51.8338L51.6847 24.7942Z" fill="#D9261C"/>
</g>
</g>
<defs>
<filter id="filter0_d_3396_56181" x="-6" y="-5" width="76" height="76" filterUnits="userSpaceOnUse" color-interpolation-filters="sRGB">
<feFlood flood-opacity="0" result="BackgroundImageFix"/>
<feColorMatrix in="SourceAlpha" type="matrix" values="0 0 0 0 0 0 0 0 0 0 0 0 0 0 0 0 0 0 127 0" result="hardAlpha"/>
<feOffset dy="1"/>
<feGaussianBlur stdDeviation="3"/>
<feComposite in2="hardAlpha" operator="out"/>
<feColorMatrix type="matrix" values="0 0 0 0 0 0 0 0 0 0 0 0 0 0 0 0 0 0 0.08 0"/>
<feBlend mode="normal" in2="BackgroundImageFix" result="effect1_dropShadow_3396_56181"/>
<feBlend mode="normal" in="SourceGraphic" in2="effect1_dropShadow_3396_56181" result="shape"/>
</filter>
<clipPath id="clip0_3396_56181">
<rect width="64" height="64" fill="white"/>
</clipPath>
</defs>
</svg>
