<svg width="64" height="64" viewBox="0 0 64 64" fill="none" xmlns="http://www.w3.org/2000/svg">
<g clip-path="url(#clip0_3396_56427)">
<g filter="url(#filter0_d_3396_56427)">
<path d="M0 32C0 14.3269 14.3269 0 32 0C49.6731 0 64 14.3269 64 32C64 49.6731 49.6731 64 32 64C14.3269 64 0 49.6731 0 32Z" fill="currentColor"/>
<g clip-path="url(#clip1_3396_56427)">
<path fill-rule="evenodd" clip-rule="evenodd" d="M14.3509 51.1631C14.1465 51.1298 13.7035 51.0277 13.5677 50.8904C13.5 50.8572 13.4655 50.8238 13.431 50.7881C13.2608 50.414 13.1585 50.1414 13.125 49.6976C13.125 48.1648 13.125 46.6328 13.125 45.0997C13.1585 44.8595 13.1929 44.6226 13.2272 44.3844C13.2952 44.2131 13.3631 44.0772 13.4656 43.9405C13.5678 43.874 13.67 43.8053 13.8061 43.7695C13.9428 43.7363 14.0786 43.703 14.2488 43.703H19.938C20.0747 43.703 20.2104 43.7389 20.3807 43.7695C20.4829 43.8053 20.5854 43.8385 20.7213 43.9049C20.8234 44.3133 20.9259 44.7226 21.0283 45.1652C21.0283 45.5403 21.0283 45.9485 21.0627 46.3581C20.245 46.3581 19.4272 46.3581 18.6094 46.3581C18.6094 45.9485 18.6094 45.5403 18.6094 45.1309C17.6218 45.1309 16.6337 45.1309 15.6461 45.1309V49.6957H18.6094C18.6094 49.1513 18.6094 48.6062 18.6094 48.0613H21.0627C21.0627 48.9123 21.0627 49.9345 20.7557 50.7522C20.551 50.8212 20.3807 50.9234 20.2104 51.0246C20.006 51.0578 19.8023 51.0938 19.5974 51.1603C17.8265 51.1603 16.0888 51.1603 14.3511 51.1603L14.3509 51.1631ZM24.2988 51.1631C24.026 51.0941 23.787 51.0276 23.5487 50.9918C23.5487 50.956 23.5487 50.9228 23.5487 50.9228C23.412 50.8207 23.3108 50.7184 23.2085 50.6159C23.1405 50.4447 23.1061 50.2751 23.0718 50.1049C23.0718 47.9591 23.0718 45.8129 23.0718 43.7006H25.5247C25.5247 45.6762 25.5247 47.6866 25.559 49.6959H28.7265C28.7265 47.6866 28.7265 45.6762 28.7265 43.7006H31.214C31.1794 45.7785 31.1794 47.857 31.1794 49.9349C31.1794 50.1726 30.8734 50.7527 30.7367 50.9228C30.532 50.9918 30.3281 51.0582 30.1581 51.1272C28.1815 51.1272 26.24 51.127 24.2988 51.1603V51.1631ZM33.462 51.1631C33.462 48.6766 33.462 46.1889 33.462 43.7025H40.2749C40.4117 43.7382 40.5474 43.769 40.7177 43.8048C40.7857 43.8406 40.8544 43.8736 40.9568 43.9068C40.99 43.94 41.0246 44.009 41.058 44.078C41.0926 44.2135 41.1603 44.351 41.2282 44.4867C41.2282 44.5889 41.2627 44.6912 41.2969 44.7937C41.2627 45.3388 41.2627 45.8839 41.2627 46.4623C41.1947 46.6999 41.0246 46.9742 40.82 47.1099C40.684 47.1431 40.5818 47.1764 40.4795 47.2122C40.5472 47.248 40.6497 47.281 40.7519 47.3142C40.8542 47.4165 40.9898 47.5187 41.1266 47.6212C41.1601 47.7234 41.1947 47.8258 41.2626 47.9275C41.2968 48.0988 41.3303 48.2678 41.3648 48.4728C41.3303 49.0177 41.3303 49.5629 41.3303 50.1078C41.2968 50.1768 41.2626 50.279 41.2281 50.3807C41.0924 50.6184 40.8876 50.8234 40.6496 50.9594C40.3427 51.0284 40.0698 51.0973 39.7974 51.1637C37.6859 51.1637 35.5735 51.1637 33.4617 51.1637L33.462 51.1631ZM35.9485 49.6976C35.9485 49.0848 35.9485 48.5061 35.9485 47.9263H38.5717C38.6739 47.962 38.7764 47.9954 38.8787 48.0286C39.0824 48.233 39.0488 48.8807 39.0488 49.1188C38.9801 49.2543 38.9121 49.3917 38.8442 49.5618C38.7419 49.5976 38.6397 49.6282 38.5717 49.6972C37.6862 49.6972 36.8008 49.6972 35.9485 49.6972V49.6976ZM41.9057 49.1532C41.8721 44.5878 41.8379 40.0235 41.8379 35.4589C41.8379 35.2186 41.7699 34.8113 41.6332 34.6069C41.6332 34.4025 41.3617 34.2662 41.3617 34.096C41.157 33.9605 40.8499 33.5166 40.5775 33.5166C40.4073 33.3454 39.93 33.2107 39.692 33.1417C39.2147 33.1084 38.7385 33.0752 38.2613 33.0393C38.0911 33.0393 37.9208 33.0725 37.7505 33.1083C37.4435 33.2105 37.0353 33.2795 36.796 33.5166C36.5236 33.5166 36.1153 34.0616 35.9786 34.2662C35.8761 34.5734 35.8084 34.9139 35.7402 35.2545V35.7311V38.4224C35.7057 39.07 35.7057 39.7167 35.7057 40.3983C35.6379 40.7044 35.6045 41.0113 35.5699 41.3182C35.3656 41.6923 35.1608 42.067 34.9905 42.4421C34.8549 42.5111 34.718 42.6133 34.5823 42.7145C34.4121 42.7503 34.2418 42.7836 34.105 42.8169C29.0631 42.8169 24.0215 42.8169 18.9799 42.8169C18.776 42.7146 18.6049 42.6121 18.4346 42.5439C18.2312 42.5439 17.6514 41.7941 17.6514 41.624C17.5156 41.2156 17.3789 40.8066 17.2431 40.398C17.1744 37.6045 17.1409 34.8112 17.1064 32.0181C16.6636 32.0181 15.914 31.6773 15.6079 31.3704C15.4033 31.3704 14.5513 30.4505 14.5513 30.3148C14.2794 30.3148 13.8022 28.8158 13.7345 28.5769C13.6655 28.3043 13.632 28.0662 13.5977 27.8283C13.5977 25.3752 13.2907 22.7862 13.6655 20.4012C13.6655 20.2657 13.6999 20.1286 13.7345 20.0262C13.8702 19.5833 14.0069 19.1407 14.2794 18.7324C14.2794 18.5969 14.5854 18.1526 14.688 18.1186C14.688 18.0854 14.688 18.0495 14.688 18.0495C14.8924 17.8118 15.0962 17.5723 15.3352 17.3688C15.5054 17.2308 15.6756 17.0957 15.8804 16.9936C16.3567 16.7891 16.7314 16.5846 17.2431 16.5166H18.1285C18.5713 16.5166 19.4226 16.8914 19.6951 17.164C19.7975 17.233 19.8998 17.2996 20.0365 17.3686C20.0701 17.4017 20.1043 17.4375 20.1723 17.4707C20.2744 17.6061 20.377 17.7432 20.4793 17.8788C20.5472 17.9811 20.6494 18.0834 20.7517 18.1858C20.7852 17.9134 20.8197 17.6744 20.8874 17.4362C20.9553 17.1636 21.0576 16.8911 21.1602 16.6529C21.1602 16.1756 21.8073 15.3924 22.0802 15.0523C22.1479 14.9833 22.2159 14.9143 22.3181 14.8478C22.4548 14.5409 23.0678 14.2682 23.3406 14.098C23.5785 13.9958 23.8511 13.8935 24.1235 13.8256C24.8055 13.7923 26.0315 13.6901 26.5768 14.2347C26.8492 14.2347 27.3265 14.8133 27.5981 14.9835C27.7692 15.2237 27.9395 15.4609 28.1098 15.6988C28.1098 15.5966 28.1098 15.5276 28.143 15.4611C28.1775 15.3231 28.212 15.1887 28.2797 15.086C28.4159 14.8136 28.5525 14.5411 28.6882 14.3027C28.7227 14.2337 28.757 14.1672 28.825 14.0982C29.0629 13.8258 29.3021 13.5532 29.5747 13.315C29.6761 13.2818 29.7103 13.1438 29.8462 13.1438C29.9487 13.0416 30.0854 12.9393 30.2212 12.8713C30.5627 12.6668 30.9029 12.531 31.2779 12.462H32.6061C33.1169 12.6332 33.5941 12.8024 34.0023 13.1438C34.2415 13.1438 34.4796 13.5521 34.6498 13.6546C34.6498 13.007 34.6498 12.3598 34.6498 11.7132C34.6843 11.4755 34.7178 11.2358 34.7523 10.9978C34.8545 10.5205 35.195 10.0434 35.4675 9.66876C35.502 9.59976 35.5355 9.56667 35.5698 9.5334C35.8758 9.32894 36.3529 8.68131 36.7622 8.68131C37.0685 8.37522 37.7838 8.27295 38.1929 8.17049C38.3631 8.13476 38.5334 8.13477 38.7037 8.13477C39.3847 8.13477 40.1344 8.20377 40.7138 8.5444C40.9176 8.64658 41.1221 8.74876 41.3614 8.85022C41.6329 9.08794 41.9054 9.36158 42.1778 9.63449C42.1778 9.80567 42.5528 10.2816 42.5874 10.3833C42.6551 10.5878 42.7231 10.7925 42.7918 11.0309C42.7918 11.2354 42.8253 11.4401 42.8597 11.6438V15.5618C42.9955 15.5951 43.1323 15.6308 43.3026 15.6973C43.7797 15.9017 44.256 16.1404 44.7677 16.3793C44.87 16.4126 44.9712 16.4483 45.0737 16.5147C45.4485 16.8217 45.9257 16.9918 46.2662 17.3325C46.4019 17.3325 46.6409 17.6048 46.777 17.6728C46.9815 17.8773 47.2197 18.0819 47.4586 18.2869C47.6625 18.4914 47.8673 18.695 48.0717 18.9329C48.0717 19.1042 48.4803 19.3761 48.5489 19.615C48.7526 19.9212 48.9572 20.2281 49.1954 20.5686C49.4002 20.9092 49.6046 21.2504 49.8094 21.6245C49.9106 21.9314 50.2856 22.5106 50.2856 22.8167C50.3202 22.919 50.3544 23.0212 50.4224 23.1237C50.5581 23.7025 50.6949 24.3162 50.8306 24.9293C50.8651 25.4401 50.8996 25.9854 50.9674 26.5302C50.8996 27.1433 50.8651 27.7564 50.8306 28.3692C50.7284 28.8131 50.6272 29.2555 50.5582 29.6987C50.4904 29.9032 50.1499 30.6177 50.1499 30.9246C49.8094 31.5043 49.5024 32.1174 49.1954 32.7302V32.7992C48.8549 33.2421 48.5145 33.6847 48.2075 34.1621C47.7992 34.5367 47.4242 34.9119 47.0494 35.3201C46.9815 35.3558 46.9138 35.422 46.8793 35.491C46.8114 35.5268 46.7771 35.5602 46.7436 35.6267C46.6069 35.6957 46.4711 35.7619 46.3685 35.8641C46.3685 35.9663 45.1761 36.6475 45.0739 36.7497C44.9715 36.783 44.9037 36.8186 44.8355 36.8851C44.5975 36.8851 44.3247 37.1577 44.1538 37.1914C43.8478 37.2936 43.575 37.4289 43.3026 37.5661C43.1658 37.5993 43.0646 37.6325 42.962 37.7015C42.962 41.5163 42.962 45.3319 42.9955 49.1476C42.6215 49.1476 42.2467 49.1476 41.9053 49.1476L41.9057 49.1532ZM35.9485 46.5299C35.9485 45.9851 35.9485 45.4734 35.9485 44.963H38.4695C38.5717 44.9963 38.6739 45.0319 38.81 45.1009C38.81 45.5436 38.8099 45.9866 38.8442 46.4629C37.8566 46.4629 36.903 46.4987 35.9486 46.5318L35.9485 46.5299ZM19.0143 41.7269C18.9464 41.6579 18.8776 41.6247 18.8442 41.5915C18.8097 41.5225 18.7762 41.489 18.7762 41.4558C18.605 41.4558 18.4693 40.6726 18.367 40.4681C18.3325 40.3327 18.299 40.2305 18.299 40.1278C18.2645 37.4363 18.2645 34.7454 18.2645 32.0543C18.367 32.021 18.5037 31.9853 18.6395 31.9853C18.8443 31.8498 19.219 31.7806 19.3893 31.611C19.6277 31.611 19.7643 31.2366 20.0023 31.2366C20.5811 30.8617 21.126 29.8394 21.3985 29.2263C21.433 29.022 21.501 28.8513 21.5687 28.6811C21.6709 28.5099 21.7399 27.8978 21.7399 27.6588C21.8756 27.6588 21.9101 28.0001 22.0804 28.0001V28.0665C22.2506 28.1688 22.7956 28.7822 23.0004 28.7822C23.0004 28.9508 23.9881 29.2251 24.0561 29.2928C24.4643 29.2928 24.9071 29.2926 25.3501 29.3284C25.4523 29.2926 25.5546 29.2928 25.6913 29.2928C26.0318 29.0552 26.6448 28.9522 26.9518 28.6455C27.2242 28.5101 27.5648 28.1694 27.7695 27.9299C27.8372 28.4073 27.9397 28.8843 28.042 29.3952C28.0755 29.5996 28.1432 29.8382 28.2122 30.0771C28.5182 30.7921 28.8252 31.5414 29.1657 32.291C29.268 32.291 29.6084 33.142 29.7787 33.211C29.8132 33.2442 29.8464 33.3132 29.9154 33.3822C29.9831 33.5176 30.0856 33.6547 30.1879 33.8249C30.4604 34.1308 30.7331 34.4379 31.0392 34.7448C31.1069 34.8471 31.7889 35.5281 31.8911 35.5281C31.9246 35.5945 31.9933 35.6638 32.0613 35.7328C32.197 35.8018 32.3338 35.8679 32.4696 35.9701C32.6398 36.0723 32.811 36.2079 33.0149 36.3451C33.0493 36.3783 33.0836 36.4115 33.1515 36.4805C33.2872 36.5495 33.424 36.6517 33.5943 36.7531H33.6965C33.7299 36.7863 33.7645 36.8224 33.8327 36.8889C33.9349 36.9221 34.0716 36.9578 34.2074 37.0242C34.3441 37.0932 34.4799 37.1596 34.6501 37.2644V40.398C34.5824 40.7041 34.5144 41.011 34.4457 41.3179C34.3439 41.4533 34.2418 41.5903 34.1728 41.7266C29.0977 41.7266 24.0561 41.7266 19.0144 41.7266L19.0143 41.7269ZM42.9623 36.5825C42.9281 36.1744 42.9281 35.7649 42.9281 35.3902C42.8936 35.1858 42.8601 34.9817 42.8601 34.7772C42.7578 34.5048 42.6554 34.2317 42.5876 33.9593C42.4851 33.8571 41.7018 32.8357 41.5651 32.8357C41.3616 32.7002 41.1568 32.5629 40.9521 32.4607C40.6797 32.3584 40.4071 32.2562 40.1688 32.1537C39.9644 32.0847 39.7597 32.0516 39.5894 32.0183C39.3515 31.9826 39.1467 31.9828 38.9419 31.9828C39.1131 31.9495 39.3169 31.9494 39.5217 31.9494C39.5217 30.9949 39.5217 30.0759 39.5559 29.1559C39.2835 29.1559 39.0109 29.1559 38.7385 29.1559V31.9828C38.2957 31.9828 37.8186 31.9829 37.409 32.0851C37.2056 32.1541 37.0008 32.2204 36.796 32.2894C36.5581 32.4249 36.3198 32.5624 36.0808 32.6981C36.0473 32.6981 36.0128 32.6981 36.0128 32.6981C35.8427 32.8335 35.6727 32.9702 35.5024 33.1404C35.3322 33.3449 35.1609 33.5502 35.0251 33.7881C34.9227 34.0282 34.8205 34.2655 34.7527 34.538C34.7181 35.0488 34.6847 35.5604 34.6502 36.1055C34.2419 35.8679 33.8328 35.6282 33.4242 35.3892C33.2875 35.2871 32.6745 34.708 32.5388 34.708C32.2318 34.4356 31.9248 34.1634 31.6523 33.925C31.5509 33.7895 31.4821 33.6871 31.4139 33.5843C31.2782 33.5843 30.494 32.3573 30.3917 32.2552C30.3238 32.1197 29.9154 31.5742 29.9154 31.3698C29.643 30.927 29.4381 30.3483 29.2334 29.8369C29.1312 29.4283 29.03 29.0189 28.961 28.6443C28.8932 28.3714 28.8587 28.0992 28.8252 27.8613C28.8252 27.0435 28.8252 26.2257 28.8252 25.4424C28.9954 24.6592 29.0631 23.501 29.5063 22.8193C29.5063 22.4785 29.9155 21.8654 30.0512 21.593C30.188 21.3886 30.3237 21.1839 30.4604 20.98C30.4604 20.7423 30.869 20.4686 30.869 20.3326C30.9032 20.2636 30.9367 20.1972 31.0057 20.1615C31.1414 19.9902 31.2781 19.8543 31.414 19.7186C31.414 19.5474 31.6524 19.3775 31.7545 19.3095C31.7545 19.2763 31.7545 19.2404 31.7889 19.2072C31.8911 19.1049 31.9934 19.0026 32.0959 18.9342C32.3339 18.6966 32.6064 18.4917 32.8791 18.2883C32.9127 18.2526 32.9469 18.2192 33.0149 18.186C33.2873 18.0506 33.5943 17.6064 33.9349 17.6064C34.1728 17.4019 34.7526 16.9934 35.0928 16.9934C35.0928 17.1647 35.6045 17.8788 35.8425 17.8788C35.9449 18.0143 36.3198 18.3897 36.49 18.3897C36.6602 18.5609 37.0688 18.6621 37.2732 18.7988C37.8185 18.97 38.5682 19.0366 39.1467 19.0366C39.5895 19.0033 40.305 18.901 40.7142 18.6616C40.9867 18.6616 41.2249 18.2876 41.4629 18.2876C41.5652 18.1496 41.6677 18.0475 41.8044 17.9463C42.0769 17.6404 42.5196 17.1286 42.6218 16.7205C42.6218 16.6847 42.6553 16.6515 42.6898 16.6183C42.928 16.6873 43.1661 16.7895 43.405 16.8909C43.8136 17.0954 44.2563 17.3 44.6991 17.5382C44.8703 17.6405 45.0741 17.7427 45.2785 17.8786C45.4832 18.0497 45.6871 18.2192 45.8915 18.3894C46.0962 18.5606 46.301 18.7308 46.539 18.9342C46.6747 18.9342 46.9817 19.3439 47.0497 19.4796C47.1865 19.6151 47.3223 19.7521 47.459 19.8887C47.7994 20.3996 48.14 20.9105 48.5146 21.4218C48.5146 21.5573 48.7874 21.8305 48.7874 22.0006C49.06 22.4435 49.2979 23.1249 49.4682 23.6013C49.5706 24.2489 49.7074 24.8963 49.8432 25.5438C49.8432 25.9867 49.8432 26.4293 49.8774 26.8721C49.8774 27.8265 49.6395 28.8823 49.4347 29.8023C49.1958 30.2786 49.06 30.8914 48.7875 31.3009C48.6516 31.5385 48.5147 31.7781 48.379 32.0164C48.379 32.1877 47.9017 32.7661 47.834 32.8338C47.6294 33.0714 47.459 33.311 47.2887 33.5834C47.2543 33.5834 47.22 33.6166 47.1865 33.6523C47.1865 33.7878 46.539 34.3001 46.4368 34.4702C46.4024 34.4702 46.3688 34.4702 46.3688 34.4702C46.3344 34.5035 46.3011 34.5365 46.3011 34.5722C45.8916 34.8447 45.5169 35.151 45.1428 35.4579C44.5979 35.7303 44.0526 36.0366 43.5412 36.3435C43.3376 36.4125 43.1326 36.4791 42.9624 36.5812L42.9623 36.5825ZM17.3789 31.0301C17.3789 30.9943 17.3789 30.9945 17.3789 30.9945C17.1064 30.9281 16.8681 30.8589 16.6292 30.7899C16.459 30.6877 16.3232 30.5854 16.1864 30.5173C15.5734 30.0402 14.7902 29.018 14.7902 28.167C14.7557 28.098 14.7222 28.0291 14.688 27.9627C14.688 25.5096 14.688 23.0907 14.688 20.6723C14.688 20.6033 14.7222 20.5701 14.7557 20.5368C14.7902 20.3988 14.8236 20.2645 14.8582 20.1277C14.8924 19.9566 14.9259 19.8218 14.9604 19.6851C15.0626 19.4474 15.1983 19.2419 15.3351 19.0375C15.3351 18.765 15.9139 18.2888 16.0506 18.1518C16.255 18.0164 16.4934 17.8792 16.7314 17.7435C16.8338 17.7077 16.9705 17.6744 17.1064 17.6412C17.2765 17.6054 17.4468 17.5722 17.6171 17.5722C17.8215 17.5722 18.0598 17.6079 18.2988 17.6412C18.3667 17.7077 18.9463 17.8456 18.9463 17.9474C19.0143 17.9831 19.4571 18.2197 19.4571 18.322C19.5927 18.391 19.695 18.6624 19.7975 18.6624C19.8653 18.7646 19.9343 18.8668 20.0364 19.0041C20.4793 19.6851 20.6495 20.5706 20.7175 21.3883C20.683 23.5342 20.683 25.7144 20.683 27.895C20.5128 28.0662 20.4105 28.6782 20.377 28.9506C20.2403 29.1551 20.1378 29.3593 20.0364 29.5983C19.8998 29.5983 19.5928 30.2113 19.4571 30.2793C19.1843 30.4504 18.9118 30.6194 18.6738 30.8239C18.5371 30.8597 18.4014 30.8932 18.2643 30.9596C17.9583 30.9596 17.6513 30.9927 17.3788 31.0285L17.3789 31.0301ZM24.4987 28.2712C24.4987 28.2354 24.4987 28.2353 24.4987 28.2353C23.681 28.1331 22.9312 27.5543 22.5575 26.8727C22.5231 26.8037 22.4885 26.7705 22.4885 26.7374C22.3528 26.7374 22.0458 25.8851 22.0458 25.7494C21.9436 25.6472 21.9436 25.4765 21.9436 25.3398C21.9101 25.2044 21.8756 25.0676 21.8411 24.9652C21.8411 22.6834 21.8411 20.4006 21.8411 18.152C21.8756 18.0166 21.9101 17.9145 21.9436 17.8119C21.9436 17.6407 21.9778 17.4022 22.0803 17.301C22.1138 17.1297 22.148 16.9597 22.216 16.7892C22.3862 16.4834 22.5907 16.1765 22.7954 15.8693C22.8977 15.7338 23.0002 15.6316 23.136 15.5291C23.136 15.3579 23.6467 15.1542 23.749 15.086C24.0214 14.9837 24.2939 14.9147 24.5667 14.8483C24.9414 14.8815 25.3164 14.9147 25.7247 14.9837C25.7247 15.0195 26.5424 15.3244 26.5424 15.4956C26.6446 15.5978 27.0873 15.9719 27.0873 16.1421C27.3265 16.1421 27.7003 17.3011 27.7693 17.539C27.7693 19.4806 27.7693 21.4563 27.8028 23.4319C27.8371 23.8071 27.8705 24.1819 27.905 24.5905C27.8705 25.1018 27.7349 25.7148 27.5645 26.2254C27.4278 26.4299 27.2921 26.6682 27.1899 26.9074C27.0196 27.1118 26.8493 27.3157 26.6791 27.5546C26.5423 27.6236 26.4399 27.7258 26.3376 27.8273C25.9971 27.9627 25.6569 28.0989 25.3499 28.2356C25.0435 28.2356 24.7711 28.2358 24.4986 28.269L24.4987 28.2712ZM28.8931 21.5595C28.8931 20.0266 28.8931 18.528 28.8931 17.0295C28.9954 16.3821 29.0976 15.6324 29.5061 15.1216C29.5061 14.8147 30.2559 14.2015 30.4261 14.0313C30.9366 13.6567 31.4138 13.4861 32.0613 13.4861C32.6398 13.4861 33.6623 13.9968 33.9003 14.5084C34.344 14.7128 34.5142 15.5643 34.718 15.9727C34.5478 16.0417 34.3775 16.1439 34.2073 16.2454C33.8668 16.2454 33.4576 16.7902 33.1515 16.7902C32.7088 17.0971 32.2993 17.4033 31.891 17.7447C31.8566 17.7447 31.823 17.7447 31.823 17.7447C31.7543 17.8137 31.6863 17.8801 31.6187 17.9823C31.414 18.1535 31.2094 18.3225 31.0057 18.5275C30.9031 18.6296 30.801 18.7652 30.6987 18.9024C30.2901 19.1748 29.949 19.8224 29.643 20.1962C29.4382 20.5031 29.268 20.81 29.0977 21.1162C29.03 21.2541 28.961 21.3888 28.8932 21.5588L28.8931 21.5595ZM38.3634 17.9831C38.3634 17.9473 38.3634 17.9474 38.3634 17.9474C38.1932 17.9141 38.0565 17.8784 37.9207 17.8784C37.7505 17.8119 37.6138 17.7761 37.4779 17.7428C37.1365 17.5385 36.4899 17.2656 36.3197 16.8909C36.1488 16.8219 35.9105 16.2433 35.876 16.2433C35.8425 16.1078 35.8083 15.9708 35.7748 15.8347C35.7748 14.3354 35.7748 12.8714 35.7748 11.406C35.8083 11.2706 35.8425 11.1685 35.876 11.0658C35.876 10.8945 36.2855 10.1801 36.4899 10.1801C36.5234 10.1111 36.5579 10.0779 36.5924 10.0447C36.7281 9.90931 36.8984 9.80703 37.0687 9.70403C37.4088 9.53285 37.6817 9.36367 38.0564 9.3294C38.0909 9.29622 38.1244 9.26049 38.1931 9.26049C38.2956 9.26049 38.8741 9.12494 38.9764 9.22458H39.4536C39.8618 9.32676 40.6118 9.53176 40.8843 9.90667H40.952C41.0887 10.1111 41.259 10.3151 41.4293 10.5533C41.5317 10.5533 41.7698 11.2351 41.7698 11.3376V15.8339C41.6676 16.0716 41.5996 16.3104 41.5319 16.583C41.3952 16.7543 41.2591 16.9241 41.1568 17.128C41.0547 17.197 40.9867 17.2635 40.9179 17.3682C40.6119 17.5037 40.3391 17.6407 40.0667 17.8108C39.8287 17.8441 39.5894 17.8773 39.385 17.9463C39.0445 17.9463 38.7039 17.9464 38.3635 17.9821" fill="currentColor"/>
<path fill-rule="evenodd" clip-rule="evenodd" d="M36.6777 24.2872L39.1489 20.5127L41.62 24.2872L39.1489 28.0625L36.6777 24.2872Z" fill="currentColor"/>
<path fill-rule="evenodd" clip-rule="evenodd" d="M41.602 25.1572L45.9428 25.1597L43.8811 28.8189L39.54 28.816L41.602 25.1575V25.1572Z" fill="currentColor"/>
<path fill-rule="evenodd" clip-rule="evenodd" d="M36.6864 25.1572L32.3457 25.1597L34.4076 28.8189L38.7484 28.816L36.6864 25.1575V25.1572Z" fill="currentColor"/>
<path fill-rule="evenodd" clip-rule="evenodd" d="M32.0012 2C48.5255 2 61.9998 15.4749 61.9998 32.0044C61.9998 48.529 48.5255 61.9999 32.0012 61.9999C15.4808 61.9999 2 48.529 2 32.0044C2 15.4749 15.4808 2 32.0012 2ZM32.0012 3.21536C47.8589 3.21536 60.7867 16.1431 60.7867 32.0044C60.7867 47.8553 47.8589 60.7828 32.0012 60.7828C16.1471 60.7828 3.21609 47.8553 3.21609 32.0044C3.21609 16.1431 16.1471 3.21536 32.0012 3.21536Z" fill="currentColor"/>
</g>
</g>
</g>
<defs>
<filter id="filter0_d_3396_56427" x="-6" y="-5" width="76" height="76" filterUnits="userSpaceOnUse" color-interpolation-filters="sRGB">
<feFlood flood-opacity="0" result="BackgroundImageFix"/>
<feColorMatrix in="SourceAlpha" type="matrix" values="0 0 0 0 0 0 0 0 0 0 0 0 0 0 0 0 0 0 127 0" result="hardAlpha"/>
<feOffset dy="1"/>
<feGaussianBlur stdDeviation="3"/>
<feComposite in2="hardAlpha" operator="out"/>
<feColorMatrix type="matrix" values="0 0 0 0 0 0 0 0 0 0 0 0 0 0 0 0 0 0 0.08 0"/>
<feBlend mode="normal" in2="BackgroundImageFix" result="effect1_dropShadow_3396_56427"/>
<feBlend mode="normal" in="SourceGraphic" in2="effect1_dropShadow_3396_56427" result="shape"/>
</filter>
<clipPath id="clip0_3396_56427">
<rect width="64" height="64" fill="currentColor"/>
</clipPath>
<clipPath id="clip1_3396_56427">
<rect width="60" height="60" fill="currentColor" transform="translate(2 2)"/>
</clipPath>
</defs>
</svg>
