<svg width="24" height="24" viewBox="0 0 24 24" fill="none" xmlns="http://www.w3.org/2000/svg">
<g clip-path="url(#clip0_6029_8253)">
<g clip-path="url(#clip1_6029_8253)">
<path d="M5.35337 19.1189L3.60705 18.1035L5.46754 21.1077L7.21387 22.1224L5.35337 19.1189Z" fill="#017AFF" stroke="#010101" stroke-width="0.075" stroke-linecap="round" stroke-linejoin="round"/>
<path d="M7.19052 13.9792L5.353 19.1189L7.21349 22.1224L18.5582 15.5729L20.395 10.4339L18.5345 7.42969L7.19052 13.9792Z" fill="#EBF7FF" stroke="#010101" stroke-width="0.075" stroke-linecap="round" stroke-linejoin="round"/>
<path d="M7.19092 13.9795L5.4446 12.9648L3.60707 18.1038L5.35339 19.1192L7.19092 13.9795Z" fill="#017AFF" stroke="#010101" stroke-width="0.075" stroke-linecap="round" stroke-linejoin="round"/>
<path d="M18.5342 7.42973L16.7879 6.41504L5.44385 12.9646L7.19017 13.9793L18.5342 7.42973Z" fill="#017AFF" stroke="#010101" stroke-width="0.075" stroke-linecap="round" stroke-linejoin="round"/>
<path d="M14.2582 4.40638C14.2589 4.41434 14.2596 4.42301 14.261 4.43097C14.2624 4.43747 14.2646 4.44398 14.266 4.45121C14.2681 4.45916 14.2696 4.46712 14.2724 4.47435C14.2745 4.48086 14.2774 4.48736 14.2802 4.49315C14.2838 4.5011 14.2873 4.50905 14.2916 4.51773C14.2944 4.52352 14.2987 4.5293 14.3022 4.53508C14.3079 4.54448 14.3136 4.55316 14.32 4.56256C14.3236 4.56762 14.3278 4.57341 14.3321 4.57847C14.342 4.59076 14.3527 4.60233 14.3648 4.6139C14.369 4.61823 14.3726 4.62257 14.3776 4.62691C14.3847 4.63342 14.3932 4.63993 14.401 4.64643C14.4081 4.65222 14.4152 4.658 14.4223 4.66379C14.4309 4.67029 14.4408 4.67608 14.4501 4.68259C14.46 4.68909 14.4685 4.6956 14.4792 4.70138C14.5019 4.71512 14.5268 4.72741 14.5517 4.73826C14.5588 4.74188 14.5666 4.74477 14.5737 4.74766C14.5936 4.75634 14.6135 4.76357 14.6341 4.7708C14.6412 4.77369 14.649 4.77586 14.6562 4.77875C14.6689 4.78309 14.6825 4.7867 14.6952 4.79032C14.7052 4.79321 14.7151 4.7961 14.7258 4.79827C14.74 4.80189 14.7542 4.80478 14.7677 4.80767C14.7777 4.80984 14.7869 4.81201 14.7969 4.81346C14.8253 4.81852 14.8544 4.82286 14.8843 4.82575C14.8935 4.82647 14.9028 4.82719 14.9113 4.82792C14.9283 4.82936 14.9461 4.83081 14.9632 4.83153C14.9745 4.83153 14.9852 4.83226 14.9966 4.83226C15.0108 4.83226 15.0243 4.83226 15.0385 4.83226C15.0499 4.83226 15.0619 4.83226 15.0733 4.83153C15.0861 4.83153 15.0996 4.83009 15.1124 4.82936C15.1245 4.82864 15.1359 4.82719 15.1479 4.82647C15.1607 4.82503 15.1735 4.82358 15.1863 4.82213C15.1977 4.82069 15.2091 4.81924 15.2204 4.81707C15.2339 4.8149 15.2474 4.81273 15.2609 4.80984C15.2716 4.80767 15.2823 4.8055 15.2929 4.80333C15.3093 4.79972 15.3249 4.79538 15.3405 4.79177C15.3491 4.7896 15.3583 4.78743 15.3668 4.78453C15.3953 4.77586 15.4223 4.76646 15.4493 4.75634C15.4528 4.75489 15.4564 4.75344 15.4599 4.75127C15.4962 4.73609 15.531 4.71946 15.5637 4.70066C15.7151 4.61173 15.7904 4.49532 15.7897 4.37891L15.8018 8.62246C15.8018 8.73887 15.7264 8.85528 15.5758 8.94421C15.5431 8.96301 15.5083 8.97964 15.472 8.99483C15.4699 8.99555 15.4677 8.997 15.4656 8.99844C15.4642 8.99844 15.4628 8.99917 15.4613 8.99989C15.4351 9.01073 15.4073 9.02013 15.3789 9.02809C15.3768 9.02809 15.3746 9.02953 15.3725 9.03026C15.3661 9.03243 15.359 9.03315 15.3526 9.03532C15.337 9.03966 15.3213 9.04327 15.305 9.04689C15.3007 9.04761 15.2965 9.04906 15.2922 9.04978C15.2858 9.05123 15.2794 9.05195 15.273 9.05339C15.2595 9.05629 15.246 9.05845 15.2325 9.06062C15.2268 9.06135 15.2219 9.06279 15.2162 9.06352C15.2105 9.06424 15.2041 9.06496 15.1984 9.06569C15.1856 9.06713 15.1728 9.06858 15.16 9.07002C15.1536 9.07002 15.1479 9.07147 15.1415 9.07219C15.1359 9.07219 15.1302 9.07219 15.1245 9.07292C15.1117 9.07364 15.0989 9.07436 15.0854 9.07508C15.079 9.07508 15.0726 9.07581 15.0655 9.07581C15.0605 9.07581 15.0548 9.07581 15.0499 9.07581C15.0357 9.07581 15.0222 9.07581 15.0079 9.07581C15.0008 9.07581 14.9937 9.07581 14.9873 9.07581C14.9831 9.07581 14.9788 9.07581 14.9752 9.07508C14.9582 9.07436 14.9404 9.07292 14.9234 9.07147C14.9163 9.07147 14.9092 9.07075 14.902 9.07002C14.8999 9.07002 14.8978 9.07002 14.8957 9.0693C14.8665 9.06641 14.8374 9.06207 14.8082 9.05701C14.8068 9.05701 14.8054 9.05701 14.804 9.05701C14.7954 9.05556 14.7876 9.05339 14.7791 9.05195C14.7649 9.04906 14.7507 9.04616 14.7365 9.04255C14.7265 9.04038 14.7166 9.03676 14.7066 9.03459C14.6931 9.03098 14.6803 9.02736 14.6668 9.02303C14.664 9.0223 14.6611 9.02158 14.6583 9.02086C14.6533 9.01941 14.649 9.01724 14.6448 9.0158C14.6242 9.00857 14.6043 9.00061 14.5844 8.99266C14.5773 8.98977 14.5695 8.98615 14.5623 8.98326C14.5375 8.97169 14.5133 8.9594 14.4899 8.94638C14.487 8.94421 14.4835 8.94277 14.4806 8.9406C14.4735 8.93626 14.4678 8.93192 14.4607 8.92686C14.4515 8.92035 14.4415 8.91457 14.433 8.90806C14.4252 8.90228 14.4188 8.89649 14.4117 8.89071C14.4039 8.8842 14.3953 8.87769 14.3882 8.87119C14.3868 8.86974 14.3847 8.86829 14.3833 8.86757C14.3804 8.86468 14.3783 8.86179 14.3754 8.85889C14.3634 8.84733 14.3527 8.83576 14.3427 8.82347C14.3406 8.82057 14.3378 8.8184 14.3356 8.81551C14.3335 8.81262 14.3321 8.81045 14.3307 8.80756C14.3243 8.79888 14.3186 8.78948 14.3129 8.78008C14.3108 8.77647 14.3072 8.77285 14.3051 8.76851C14.3037 8.76635 14.3037 8.7649 14.3022 8.76273C14.298 8.75478 14.2944 8.74682 14.2909 8.73815C14.2887 8.73308 14.2859 8.72875 14.2845 8.72369C14.2845 8.72224 14.2838 8.72079 14.2831 8.71862C14.2802 8.71067 14.2788 8.70272 14.2767 8.69549C14.2752 8.69042 14.2731 8.68536 14.2724 8.67958C14.2724 8.67813 14.2724 8.67669 14.2724 8.67524C14.271 8.66729 14.2703 8.65861 14.2696 8.65066C14.2696 8.6456 14.2681 8.63981 14.2674 8.63475C14.2674 8.63258 14.2674 8.63041 14.2674 8.62824L14.2553 4.38469C14.2553 4.39264 14.2568 4.39987 14.2575 4.40783L14.2582 4.40638Z" fill="#EBF7FF" stroke="#010101" stroke-width="0.075" stroke-linecap="round" stroke-linejoin="round"/>
<path d="M6.97227 8.34193C6.97298 8.34988 6.97369 8.35856 6.97511 8.36651C6.97653 8.37302 6.97795 8.37953 6.98009 8.38676C6.98222 8.39471 6.98364 8.40266 6.98648 8.4099C6.98861 8.4164 6.99146 8.42291 6.9943 8.42869C6.99785 8.43665 7.00141 8.4446 7.00567 8.45328C7.00851 8.45906 7.01278 8.46485 7.01562 8.47063C7.02131 8.48003 7.02699 8.48871 7.03339 8.49811C7.03694 8.50317 7.0412 8.50895 7.04547 8.51401C7.05542 8.52631 7.06608 8.53787 7.07816 8.54944C7.08242 8.55378 7.08669 8.55812 7.09095 8.56246C7.09806 8.56897 7.10659 8.57547 7.1144 8.58198C7.12151 8.58776 7.12862 8.59355 7.13572 8.59933C7.14425 8.60584 7.1542 8.61163 7.16344 8.61813C7.17339 8.62464 7.18192 8.63115 7.19258 8.63693C7.21532 8.65067 7.24019 8.66296 7.26507 8.67381C7.27217 8.67742 7.27928 8.68031 7.2871 8.68321C7.307 8.69188 7.32689 8.69911 7.3475 8.70634C7.35461 8.70924 7.36243 8.7114 7.36953 8.7143C7.38233 8.71864 7.39583 8.72225 7.40862 8.72587C7.41857 8.72876 7.42852 8.73165 7.43918 8.73382C7.45268 8.73743 7.4669 8.74033 7.48111 8.74322C7.49106 8.74539 7.5003 8.74756 7.51025 8.749C7.53867 8.75406 7.56781 8.7584 7.59766 8.7613C7.6069 8.76202 7.61543 8.76274 7.62467 8.76346C7.64172 8.76491 7.65949 8.76636 7.67654 8.76708C7.68792 8.76708 7.69858 8.7678 7.70995 8.7678C7.72416 8.7678 7.73837 8.7678 7.75188 8.7678C7.76325 8.7678 7.77533 8.7678 7.7867 8.76708C7.79949 8.76708 7.81299 8.76563 7.82578 8.76491C7.83787 8.76419 7.84924 8.76274 7.86132 8.76202C7.87411 8.76057 7.8869 8.75913 7.8997 8.75768C7.91107 8.75623 7.92244 8.75479 7.93381 8.75262C7.94731 8.75045 7.96081 8.74828 7.97432 8.74539C7.98498 8.74322 7.99564 8.74105 8.0063 8.73888C8.02264 8.73527 8.03828 8.73093 8.05391 8.72731C8.06244 8.72514 8.07168 8.72297 8.08021 8.72008C8.10863 8.71141 8.13564 8.70201 8.16264 8.69188C8.1662 8.69044 8.16975 8.68899 8.1733 8.68682C8.20955 8.67164 8.24437 8.65501 8.27706 8.63621C8.42843 8.54727 8.50377 8.43086 8.50306 8.31445L8.51514 12.558C8.51514 12.6744 8.4398 12.7908 8.28914 12.8798C8.25645 12.8986 8.22163 12.9152 8.18539 12.9304C8.18325 12.9311 8.18112 12.9325 8.17899 12.934C8.17757 12.934 8.17615 12.9347 8.17472 12.9354C8.14843 12.9463 8.12071 12.9557 8.09229 12.9636C8.09015 12.9636 8.08802 12.9651 8.08589 12.9658C8.07949 12.968 8.0731 12.9687 8.06599 12.9709C8.05036 12.9752 8.03472 12.9788 8.01838 12.9824C8.01411 12.9832 8.00985 12.9846 8.00559 12.9853C7.99919 12.9868 7.99279 12.9875 7.9864 12.9889C7.97289 12.9918 7.95939 12.994 7.94589 12.9962C7.9402 12.9969 7.93523 12.9983 7.92954 12.9991C7.92386 12.9998 7.91746 13.0005 7.91178 13.0012C7.89898 13.0027 7.88619 13.0041 7.8734 13.0056C7.867 13.0056 7.86132 13.007 7.85492 13.0077C7.84924 13.0077 7.84355 13.0077 7.83787 13.0085C7.82507 13.0092 7.81157 13.0099 7.79878 13.0106C7.79238 13.0106 7.78599 13.0114 7.77959 13.0114C7.77462 13.0114 7.76893 13.0114 7.76396 13.0114C7.74974 13.0114 7.73624 13.0114 7.72203 13.0114C7.71492 13.0114 7.70781 13.0114 7.70142 13.0114C7.69715 13.0114 7.69289 13.0114 7.68934 13.0106C7.67228 13.0099 7.65451 13.0085 7.63746 13.007C7.63035 13.007 7.62324 13.007 7.61685 13.0056C7.61472 13.0056 7.61258 13.0056 7.61045 13.0048C7.58131 13.002 7.55218 12.9976 7.52304 12.9926C7.52162 12.9926 7.5202 12.9926 7.51878 12.9926C7.51025 12.9911 7.50243 12.9889 7.4939 12.9875C7.47969 12.9846 7.46548 12.9817 7.45126 12.9781C7.44131 12.9759 7.43136 12.9723 7.42141 12.9701C7.40791 12.9665 7.39512 12.9629 7.38162 12.9586C7.37877 12.9578 7.37593 12.9571 7.37309 12.9564C7.36811 12.955 7.36385 12.9528 7.35958 12.9513C7.33897 12.9441 7.31908 12.9362 7.29918 12.9282C7.29207 12.9253 7.28425 12.9217 7.27715 12.9188C7.25227 12.9072 7.22811 12.8949 7.20466 12.8819C7.20182 12.8798 7.19826 12.8783 7.19542 12.8761C7.18831 12.8718 7.18263 12.8675 7.17552 12.8624C7.16628 12.8559 7.15633 12.8501 7.1478 12.8436C7.13999 12.8378 7.13359 12.832 7.12648 12.8263C7.11867 12.8197 7.11014 12.8132 7.10303 12.8067C7.10161 12.8053 7.09948 12.8038 7.09806 12.8031C7.09522 12.8002 7.09308 12.7973 7.09024 12.7944C7.07816 12.7829 7.0675 12.7713 7.05755 12.759C7.05542 12.7561 7.05258 12.754 7.05044 12.7511C7.04831 12.7482 7.04689 12.746 7.04547 12.7431C7.03907 12.7344 7.03268 12.725 7.0277 12.7156C7.02557 12.712 7.02202 12.7084 7.01988 12.7041C7.01846 12.7019 7.01846 12.7004 7.01704 12.6983C7.01278 12.6903 7.00922 12.6824 7.00567 12.6737C7.00354 12.6686 7.0007 12.6643 6.99927 12.6592C6.99927 12.6578 6.99856 12.6556 6.99785 12.6542C6.99501 12.6462 6.99359 12.639 6.99146 12.631C6.99004 12.626 6.9879 12.6209 6.98719 12.6151C6.98719 12.6137 6.98719 12.6122 6.98719 12.6108C6.98577 12.6028 6.98506 12.5942 6.98435 12.5862C6.98435 12.5811 6.98293 12.5754 6.98222 12.5703C6.98222 12.5681 6.98222 12.566 6.98222 12.5638L6.97014 8.32024C6.97014 8.32747 6.97156 8.33542 6.97227 8.34265V8.34193Z" fill="#EBF7FF" stroke="#010101" stroke-width="0.075" stroke-linecap="round" stroke-linejoin="round"/>
<path d="M4.54822 9.59155C4.5404 9.58939 4.53187 9.58649 4.52406 9.58432C4.51624 9.58215 4.50913 9.58071 4.50202 9.57926C4.49207 9.57709 4.48284 9.57565 4.47289 9.57492C4.4672 9.57492 4.46223 9.57348 4.45654 9.57348C4.44446 9.57275 4.43309 9.57275 4.42172 9.57348C4.41888 9.57348 4.41603 9.57348 4.4139 9.57348C4.4004 9.5742 4.3869 9.57637 4.37339 9.57854C4.36984 9.57854 4.367 9.57999 4.36344 9.58071C4.35349 9.58288 4.34354 9.58577 4.3336 9.58939C4.33075 9.59083 4.3272 9.59155 4.32436 9.593C4.31227 9.59806 4.30019 9.60385 4.28882 9.61035L17.3119 1.90992C17.3119 1.90992 17.314 1.90848 17.3147 1.90848C17.3232 1.90341 17.3325 1.89908 17.3417 1.89474C17.3431 1.89402 17.3453 1.89329 17.3474 1.89257C17.3503 1.89112 17.3538 1.8904 17.3566 1.88895C17.3616 1.88751 17.3659 1.88534 17.3709 1.88389C17.3758 1.88245 17.3815 1.88172 17.3865 1.88028C17.39 1.87955 17.3929 1.87883 17.3964 1.87811C17.3979 1.87811 17.4 1.87739 17.4014 1.87666C17.4121 1.87449 17.4227 1.87377 17.4341 1.87305C17.4341 1.87305 17.4355 1.87305 17.4362 1.87305C17.4391 1.87305 17.4412 1.87305 17.4441 1.87305C17.4526 1.87305 17.4611 1.87305 17.4704 1.87305C17.4732 1.87305 17.476 1.87305 17.4796 1.87377C17.4853 1.87377 17.4903 1.87449 17.4959 1.87522C17.5009 1.87522 17.5059 1.87594 17.5116 1.87666C17.5158 1.87666 17.5208 1.87883 17.5251 1.87955C17.5322 1.881 17.54 1.88245 17.5471 1.88462C17.5514 1.88534 17.5549 1.88606 17.5592 1.88751C17.5635 1.88895 17.567 1.8904 17.5713 1.89185C17.5841 1.89546 17.5969 1.90052 17.6096 1.90558C17.6139 1.90703 17.6189 1.90848 17.6231 1.91065C17.626 1.91137 17.6281 1.91354 17.631 1.91426C17.6537 1.92438 17.6764 1.93523 17.6992 1.94897C17.717 1.95909 17.734 1.97066 17.7511 1.98223C17.7568 1.98584 17.7624 1.99018 17.7674 1.99452C17.7788 2.0032 17.7902 2.01187 17.8015 2.02055C17.8079 2.02561 17.8143 2.03067 17.82 2.03646C17.8307 2.04513 17.8406 2.05453 17.8506 2.06393C17.857 2.06972 17.8626 2.0755 17.869 2.08128C17.8726 2.0849 17.8769 2.08851 17.8804 2.09213C17.8847 2.09647 17.8882 2.10081 17.8918 2.10442C17.9039 2.11744 17.9159 2.13045 17.928 2.14347C17.9316 2.1478 17.9358 2.15142 17.9394 2.15576C17.9422 2.15937 17.9458 2.16371 17.9486 2.16733C17.9557 2.176 17.9629 2.18468 17.97 2.19336C17.9742 2.19914 17.9792 2.20492 17.9835 2.21071C17.987 2.21577 17.9906 2.22083 17.9941 2.22589C17.9991 2.23312 18.0041 2.23963 18.009 2.24686C18.0126 2.25192 18.0162 2.25626 18.0197 2.26132C18.0254 2.26928 18.0311 2.27795 18.036 2.28663C18.0396 2.29169 18.0432 2.29747 18.0467 2.30254C18.0481 2.3047 18.0496 2.30687 18.051 2.30904C18.0609 2.32423 18.0702 2.34013 18.0794 2.35604C18.0794 2.35676 18.0808 2.35821 18.0808 2.35893C18.083 2.36183 18.0844 2.36544 18.0865 2.36833C18.0929 2.37918 18.0993 2.39075 18.105 2.40232C18.1078 2.40738 18.11 2.41316 18.1128 2.41822C18.1156 2.42401 18.1185 2.42907 18.1213 2.43485C18.1235 2.43991 18.1263 2.44425 18.1284 2.44931C18.1348 2.46233 18.1405 2.47534 18.1462 2.48836C18.1469 2.49053 18.1483 2.49342 18.149 2.49559C18.149 2.49559 18.149 2.49703 18.1498 2.49776C18.1569 2.51439 18.1633 2.53102 18.1697 2.54765C18.1711 2.55054 18.1718 2.55343 18.1732 2.55705C18.1753 2.56283 18.1775 2.56934 18.1796 2.57512C18.1824 2.58308 18.186 2.59175 18.1881 2.59971C18.1903 2.60621 18.1917 2.61272 18.1938 2.61923C18.196 2.62718 18.1988 2.63441 18.2009 2.64237C18.2023 2.64743 18.2038 2.65177 18.2052 2.65683C18.2073 2.6655 18.2095 2.67346 18.2116 2.68213C18.2137 2.69153 18.2166 2.70093 18.2187 2.71033C18.2194 2.71395 18.2201 2.71684 18.2208 2.72046C18.2222 2.72696 18.223 2.73419 18.2244 2.7407C18.2272 2.75516 18.2301 2.77035 18.2315 2.78481C18.2315 2.78915 18.2329 2.79276 18.2336 2.7971C18.2336 2.80071 18.2336 2.80433 18.2343 2.80867C18.2379 2.8412 18.2407 2.87374 18.2407 2.90556C18.2407 3.03643 18.2059 3.13765 18.1483 3.2049C18.1291 3.22731 18.1071 3.24539 18.0822 3.25985L5.05919 10.9596C5.15655 10.9017 5.21696 10.7795 5.21767 10.6053C5.21767 10.5734 5.21554 10.5409 5.21128 10.5084C5.21056 10.5004 5.20985 10.4925 5.20843 10.4852C5.2063 10.4708 5.20346 10.4556 5.20133 10.4411C5.19919 10.431 5.19777 10.4209 5.19564 10.4108C5.19351 10.4014 5.19138 10.392 5.18853 10.3826C5.18498 10.3696 5.18214 10.3565 5.17787 10.3428C5.17574 10.3348 5.17361 10.3276 5.17077 10.3197C5.1665 10.3052 5.16153 10.29 5.15584 10.2756C5.15371 10.2698 5.15158 10.2633 5.14945 10.2575C5.14163 10.2372 5.13381 10.217 5.12528 10.1967C5.12457 10.1946 5.12315 10.1924 5.12244 10.1902C5.11462 10.1722 5.1061 10.1541 5.09757 10.136C5.09472 10.1302 5.09188 10.1252 5.08904 10.1194C5.08051 10.1027 5.07198 10.0861 5.06275 10.0695C5.06061 10.0666 5.05919 10.063 5.05777 10.0601C5.04711 10.0406 5.03503 10.0218 5.02366 10.0037C5.0201 9.99863 5.01655 9.99284 5.013 9.98778C5.00447 9.97404 4.99523 9.96103 4.98599 9.94802C4.98102 9.94078 4.97604 9.93428 4.97107 9.92705C4.96325 9.9162 4.95472 9.90536 4.94619 9.89523C4.93909 9.88656 4.93198 9.87788 4.92487 9.8692C4.91777 9.86125 4.91137 9.8533 4.90426 9.84534C4.89218 9.83161 4.8801 9.81859 4.86802 9.8063C4.8602 9.79835 4.85239 9.79039 4.84457 9.78244C4.83817 9.77665 4.83249 9.77087 4.82609 9.76509C4.81614 9.75569 4.80548 9.74629 4.79553 9.73761C4.78914 9.73255 4.78345 9.72676 4.77705 9.7217C4.76568 9.7123 4.75431 9.70363 4.74294 9.69567C4.73726 9.69133 4.73228 9.68772 4.7266 9.68338C4.70954 9.67109 4.69248 9.66024 4.67472 9.65012C4.65127 9.63638 4.62852 9.62554 4.60649 9.61541C4.59939 9.61252 4.59228 9.60963 4.58517 9.60674C4.57238 9.60168 4.55959 9.59734 4.5468 9.593L4.54822 9.59155Z" fill="#EBF7FF" stroke="#010101" stroke-width="0.075" stroke-linecap="round" stroke-linejoin="round"/>
<path d="M4.67553 9.64911C4.37492 9.47269 4.13044 9.61441 4.12973 9.96581C4.12902 10.3172 4.37136 10.7445 4.67198 10.9209C4.97259 11.0974 5.21706 10.9564 5.21777 10.605C5.21848 10.2536 4.97614 9.82553 4.67553 9.64911Z" fill="#017AFF" stroke="#010101" stroke-width="0.075" stroke-linecap="round" stroke-linejoin="round"/>
<path d="M15.3926 14.9783L15.3926 11.4902L16.7049 10.7325C16.9718 10.5785 17.1873 10.5343 17.3517 10.6C17.516 10.6705 17.5981 10.8452 17.5981 11.1242C17.5981 11.455 17.483 11.759 17.2526 12.0363L17.2526 12.0558C17.5574 12.0274 17.7098 12.22 17.7098 12.6335C17.7098 12.9481 17.6248 13.2428 17.4549 13.5176C17.2821 13.7974 17.0462 14.0236 16.7471 14.1963L15.3926 14.9783ZM15.8939 12.631L16.6102 12.2175C16.766 12.1275 16.884 12.0181 16.964 11.8891C17.0441 11.7651 17.0841 11.6244 17.0841 11.4671C17.0841 11.3293 17.0469 11.2437 16.9725 11.2105C16.8938 11.1797 16.7829 11.2056 16.6396 11.2883L15.8939 11.7189L15.8939 12.631ZM15.8939 14.1659L16.6733 13.7159C16.8419 13.6186 16.9704 13.4982 17.0588 13.3547C17.1473 13.216 17.1916 13.0656 17.1916 12.9035C17.1916 12.7445 17.1487 12.6428 17.0631 12.5982C16.9732 12.5609 16.8433 12.5913 16.6733 12.6894L15.8939 13.1394L15.8939 14.1659Z" fill="#017AFF" stroke="#010101" stroke-width="0.075" stroke-linecap="round" stroke-linejoin="round"/>
<path d="M13.8176 15.9331C13.4567 16.1415 13.166 16.1918 12.9455 16.0839C12.725 15.9761 12.6147 15.7114 12.6147 15.2897L12.6147 13.0957L13.1182 12.805L13.1182 14.9869C13.1182 15.2431 13.1758 15.4093 13.2909 15.4855C13.4033 15.5699 13.5788 15.5431 13.8176 15.4053C14.0577 15.2666 14.2361 15.0891 14.3526 14.8726C14.465 14.6634 14.5212 14.4315 14.5212 14.1769L14.5212 11.995L15.0309 11.7007L15.0309 13.8948C15.0309 14.318 14.9214 14.7096 14.7023 15.0696C14.4818 15.432 14.1869 15.7199 13.8176 15.9331Z" fill="#017AFF" stroke="#010101" stroke-width="0.075" stroke-linecap="round" stroke-linejoin="round"/>
<path d="M10.624 17.7312L10.624 14.2432L11.1296 13.9513L11.1296 16.9115L12.5536 16.0894L12.5536 16.6172L10.624 17.7312Z" fill="#017AFF" stroke="#010101" stroke-width="0.075" stroke-linecap="round" stroke-linejoin="round"/>
<path d="M9.12713 18.6401C8.68335 18.8964 8.34069 18.9304 8.09914 18.7423C7.85759 18.5591 7.73682 18.1982 7.73682 17.6599C7.73682 17.1215 7.85759 16.6188 8.09914 16.1518C8.34209 15.6823 8.68476 15.3199 9.12713 15.0645C9.49226 14.8537 9.78717 14.801 10.0119 14.9064C10.2352 15.011 10.3616 15.2453 10.391 15.6094L9.87284 15.9085C9.85177 15.6969 9.77875 15.5599 9.65376 15.4975C9.53018 15.4358 9.35463 15.4707 9.12713 15.6021C8.83221 15.7723 8.61313 16.0131 8.46989 16.3245C8.32664 16.6407 8.25502 16.9861 8.25502 17.3607C8.25502 17.7369 8.32664 17.998 8.46989 18.1439C8.61313 18.2899 8.83221 18.2777 9.12713 18.1074C9.34199 17.9834 9.51262 17.8216 9.63901 17.6222C9.764 17.4251 9.84335 17.2066 9.87705 16.9666L10.391 16.6699C10.3531 17.0583 10.2232 17.4324 10.0013 17.7924C9.78226 18.1476 9.49085 18.4301 9.12713 18.6401Z" fill="#017AFF" stroke="#010101" stroke-width="0.075" stroke-linecap="round" stroke-linejoin="round"/>
<circle cx="21.3" cy="3.67402" r="1.8" fill="#DF3C27"/>
</g>
</g>
<defs>
<clipPath id="clip0_6029_8253">
<rect width="24" height="24" fill="white"/>
</clipPath>
<clipPath id="clip1_6029_8253">
<rect width="24" height="24" fill="white" transform="matrix(-1 0 0 1 24 0)"/>
</clipPath>
</defs>
</svg>
