<svg width="24" height="24" viewBox="0 0 24 24" fill="none" xmlns="http://www.w3.org/2000/svg">
<g clip-path="url(#clip0_4021_2142)">
<path d="M18.6968 19.1732L20.456 18.1504L18.5818 21.1768L16.8226 22.1989L18.6968 19.1732Z" fill="currentColor" stroke="currentColor" stroke-width="0.0864" stroke-linecap="round" stroke-linejoin="round"/>
<path d="M16.8458 13.9944L18.6969 19.1719L16.8227 22.1976L5.39428 15.5998L3.54388 10.4229L5.4181 7.39648L16.8458 13.9944Z" fill="currentColor" stroke="currentColor" stroke-width="0.0864" stroke-linecap="round" stroke-linejoin="round"/>
<path d="M16.8456 13.9948L18.6048 12.9727L20.4559 18.1496L18.6967 19.1724L16.8456 13.9948Z" fill="currentColor" stroke="currentColor" stroke-width="0.0864" stroke-linecap="round" stroke-linejoin="round"/>
<path d="M5.41846 7.39718L7.17766 6.375L18.6054 12.9729L16.8462 13.9951L5.41846 7.39718Z" fill="currentColor" stroke="currentColor" stroke-width="0.0864" stroke-linecap="round" stroke-linejoin="round"/>
<path d="M9.72538 4.35092C9.72466 4.35893 9.72394 4.36767 9.72251 4.37569C9.72108 4.38224 9.71893 4.3888 9.7175 4.39608C9.71535 4.40409 9.71392 4.4121 9.71106 4.41939C9.70891 4.42594 9.70605 4.4325 9.70318 4.43833C9.6996 4.44634 9.69602 4.45435 9.69173 4.46309C9.68886 4.46892 9.68457 4.47475 9.68099 4.48057C9.67526 4.49004 9.66953 4.49878 9.66309 4.50825C9.65951 4.51335 9.65522 4.51918 9.65092 4.52427C9.6409 4.53666 9.63016 4.54831 9.61799 4.55997C9.61369 4.56434 9.61011 4.56871 9.6051 4.57308C9.59794 4.57963 9.58935 4.58619 9.58148 4.59274C9.57432 4.59857 9.56716 4.6044 9.56 4.61022C9.55141 4.61678 9.54139 4.62261 9.53208 4.62916C9.52206 4.63572 9.51347 4.64227 9.50273 4.6481C9.47982 4.66194 9.45476 4.67432 9.4297 4.68525C9.42254 4.68889 9.41467 4.6918 9.40751 4.69472C9.38746 4.70346 9.36742 4.71074 9.34666 4.71802C9.3395 4.72094 9.33162 4.72312 9.32446 4.72604C9.31158 4.73041 9.29798 4.73405 9.28509 4.73769C9.27507 4.7406 9.26504 4.74352 9.2543 4.7457C9.23999 4.74934 9.22567 4.75226 9.21206 4.75517C9.20204 4.75736 9.19274 4.75954 9.18271 4.761C9.15408 4.7661 9.12472 4.77047 9.09466 4.77338C9.08535 4.77411 9.07604 4.77484 9.06745 4.77557C9.05027 4.77702 9.03237 4.77848 9.01519 4.77921C9.00373 4.77921 8.993 4.77994 8.98154 4.77994C8.96722 4.77994 8.95362 4.77994 8.9393 4.77994C8.92785 4.77994 8.91568 4.77994 8.90422 4.77921C8.89134 4.77921 8.87773 4.77775 8.86485 4.77702C8.85268 4.77629 8.84122 4.77484 8.82905 4.77411C8.81616 4.77265 8.80328 4.7712 8.79039 4.76974C8.77894 4.76828 8.76748 4.76683 8.75603 4.76464C8.74243 4.76246 8.72882 4.76027 8.71522 4.75736C8.70448 4.75517 8.69374 4.75299 8.683 4.7508C8.66654 4.74716 8.65079 4.74279 8.63504 4.73915C8.62645 4.73696 8.61714 4.73478 8.60855 4.73186C8.57991 4.72312 8.55271 4.71365 8.5255 4.70346C8.52192 4.702 8.51834 4.70054 8.51476 4.69836C8.47825 4.68306 8.44317 4.66631 8.41024 4.64737C8.25775 4.55778 8.18186 4.44051 8.18258 4.32324L8.17041 8.5981C8.17041 8.71537 8.2463 8.83264 8.39807 8.92223C8.431 8.94117 8.46608 8.95792 8.50259 8.97322C8.50474 8.97394 8.50689 8.9754 8.50904 8.97686C8.51047 8.97686 8.5119 8.97759 8.51333 8.97831C8.53982 8.98924 8.56774 8.99871 8.59638 9.00672C8.59853 9.00672 8.60067 9.00818 8.60282 9.00891C8.60927 9.01109 8.61642 9.01182 8.62287 9.01401C8.63862 9.01838 8.65437 9.02202 8.67083 9.02566C8.67513 9.02639 8.67943 9.02785 8.68372 9.02857C8.69016 9.03003 8.69661 9.03076 8.70305 9.03221C8.71665 9.03513 8.73025 9.03731 8.74386 9.0395C8.74958 9.04023 8.7546 9.04168 8.76032 9.04241C8.76605 9.04314 8.77249 9.04387 8.77822 9.0446C8.79111 9.04605 8.80399 9.04751 8.81688 9.04897C8.82332 9.04897 8.82905 9.05043 8.83549 9.05115C8.84122 9.05115 8.84695 9.05115 8.85268 9.05188C8.86556 9.05261 8.87845 9.05334 8.89205 9.05407C8.8985 9.05407 8.90494 9.0548 8.9121 9.0548C8.91711 9.0548 8.92284 9.0548 8.92785 9.0548C8.94217 9.0548 8.95577 9.0548 8.97009 9.0548C8.97725 9.0548 8.9844 9.0548 8.99085 9.0548C8.99514 9.0548 8.99944 9.05479 9.00302 9.05407C9.0202 9.05334 9.0381 9.05188 9.05528 9.05042C9.06244 9.05042 9.0696 9.0497 9.07676 9.04897C9.07891 9.04897 9.08105 9.04897 9.0832 9.04824C9.11255 9.04533 9.14191 9.04096 9.17126 9.03586C9.17269 9.03586 9.17412 9.03586 9.17555 9.03586C9.18414 9.0344 9.19202 9.03222 9.20061 9.03076C9.21493 9.02785 9.22925 9.02493 9.24357 9.02129C9.25359 9.0191 9.26361 9.01546 9.27363 9.01328C9.28724 9.00964 9.30012 9.00599 9.31373 9.00162C9.31659 9.00089 9.31945 9.00017 9.32232 8.99944C9.32733 8.99798 9.33162 8.9958 9.33592 8.99434C9.35668 8.98706 9.37673 8.97904 9.39677 8.97103C9.40393 8.96812 9.41181 8.96448 9.41896 8.96156C9.44402 8.94991 9.46836 8.93753 9.49199 8.92442C9.49485 8.92223 9.49843 8.92077 9.50129 8.91859C9.50845 8.91422 9.51418 8.90985 9.52134 8.90475C9.53065 8.89819 9.54067 8.89237 9.54926 8.88581C9.55714 8.87998 9.56358 8.87416 9.57074 8.86833C9.57861 8.86177 9.5872 8.85522 9.59436 8.84866C9.5958 8.84721 9.59794 8.84575 9.59937 8.84502C9.60224 8.84211 9.60439 8.83919 9.60725 8.83628C9.61942 8.82463 9.63016 8.81297 9.64018 8.80059C9.64233 8.79768 9.64519 8.79549 9.64734 8.79258C9.64949 8.78966 9.65092 8.78748 9.65235 8.78457C9.6588 8.77583 9.66452 8.76636 9.67025 8.75689C9.6724 8.75325 9.67598 8.7496 9.67813 8.74523C9.67956 8.74305 9.67956 8.74159 9.68099 8.73941C9.68528 8.73139 9.68886 8.72338 9.69244 8.71464C9.69459 8.70954 9.69746 8.70517 9.69889 8.70007C9.69889 8.69862 9.6996 8.69716 9.70032 8.69498C9.70318 8.68696 9.70461 8.67895 9.70676 8.67167C9.70819 8.66657 9.71034 8.66147 9.71106 8.65564C9.71106 8.65419 9.71106 8.65273 9.71106 8.65127C9.71249 8.64326 9.71321 8.63452 9.71392 8.62651C9.71392 8.62141 9.71535 8.61558 9.71607 8.61048C9.71607 8.6083 9.71607 8.60611 9.71607 8.60393L9.72824 4.32907C9.72824 4.33708 9.72681 4.34437 9.72609 4.35238L9.72538 4.35092Z" fill="currentColor" stroke="currentColor" stroke-width="0.0864" stroke-linecap="round" stroke-linejoin="round"/>
<path d="M9.49904 4.00341C9.80187 4.18114 9.80402 4.46957 9.50334 4.6473C9.20265 4.82502 8.71368 4.82502 8.41085 4.6473C8.10802 4.46957 8.10659 4.18114 8.40727 4.00341C8.70796 3.82569 9.19693 3.82569 9.49904 4.00341Z" fill="currentColor"/>
<path d="M17.0646 8.31479C17.0639 8.3228 17.0632 8.33154 17.0618 8.33955C17.0603 8.34611 17.0589 8.35266 17.0568 8.35995C17.0546 8.36796 17.0532 8.37597 17.0503 8.38326C17.0482 8.38981 17.0453 8.39637 17.0424 8.40219C17.0389 8.41021 17.0353 8.41822 17.031 8.42696C17.0281 8.43279 17.0238 8.43861 17.021 8.44444C17.0152 8.45391 17.0095 8.46265 17.0031 8.47212C16.9995 8.47722 16.9952 8.48304 16.9909 8.48814C16.9809 8.50052 16.9701 8.51218 16.958 8.52383C16.9537 8.5282 16.9494 8.53257 16.9451 8.53694C16.9379 8.5435 16.9293 8.55005 16.9214 8.55661C16.9143 8.56244 16.9071 8.56826 16.9 8.57409C16.8914 8.58065 16.8814 8.58647 16.872 8.59303C16.862 8.59958 16.8534 8.60614 16.8427 8.61197C16.8198 8.62581 16.7947 8.63819 16.7697 8.64911C16.7625 8.65276 16.7554 8.65567 16.7475 8.65858C16.7274 8.66732 16.7074 8.67461 16.6866 8.68189C16.6795 8.6848 16.6716 8.68699 16.6644 8.6899C16.6515 8.69427 16.6379 8.69792 16.6251 8.70156C16.615 8.70447 16.605 8.70738 16.5943 8.70957C16.5807 8.71321 16.5663 8.71612 16.552 8.71904C16.542 8.72122 16.5327 8.72341 16.5227 8.72487C16.494 8.72996 16.4647 8.73433 16.4346 8.73725C16.4253 8.73798 16.4167 8.7387 16.4074 8.73943C16.3902 8.74089 16.3723 8.74235 16.3552 8.74308C16.3437 8.74308 16.333 8.7438 16.3215 8.7438C16.3072 8.7438 16.2929 8.7438 16.2793 8.7438C16.2678 8.7438 16.2556 8.7438 16.2442 8.74308C16.2313 8.74308 16.2177 8.74162 16.2048 8.74089C16.1926 8.74016 16.1812 8.7387 16.169 8.73798C16.1561 8.73652 16.1432 8.73506 16.1304 8.73361C16.1189 8.73215 16.1074 8.73069 16.096 8.72851C16.0824 8.72632 16.0688 8.72414 16.0552 8.72122C16.0444 8.71904 16.0337 8.71685 16.023 8.71467C16.0065 8.71103 15.9908 8.70666 15.975 8.70301C15.9664 8.70083 15.9571 8.69864 15.9485 8.69573C15.9199 8.68699 15.8927 8.67752 15.8655 8.66732C15.8619 8.66587 15.8583 8.66441 15.8547 8.66222C15.8182 8.64693 15.7831 8.63018 15.7502 8.61124C15.5977 8.52165 15.5218 8.40438 15.5225 8.28711L15.5104 12.562C15.5104 12.6792 15.5863 12.7965 15.738 12.8861C15.771 12.905 15.806 12.9218 15.8426 12.9371C15.8447 12.9378 15.8469 12.9393 15.849 12.9407C15.8504 12.9407 15.8519 12.9415 15.8533 12.9422C15.8798 12.9531 15.9077 12.9626 15.9363 12.9706C15.9385 12.9706 15.9406 12.972 15.9428 12.9728C15.9492 12.975 15.9557 12.9757 15.9628 12.9779C15.9786 12.9822 15.9943 12.9859 16.0108 12.9895C16.0151 12.9903 16.0194 12.9917 16.0237 12.9924C16.0301 12.9939 16.0366 12.9946 16.043 12.9961C16.0566 12.999 16.0702 13.0012 16.0838 13.0034C16.0896 13.0041 16.0946 13.0056 16.1003 13.0063C16.106 13.007 16.1125 13.0077 16.1182 13.0085C16.1311 13.0099 16.144 13.0114 16.1568 13.0128C16.1633 13.0128 16.169 13.0143 16.1755 13.015C16.1812 13.015 16.1869 13.015 16.1926 13.0157C16.2055 13.0165 16.2191 13.0172 16.232 13.0179C16.2385 13.0179 16.2449 13.0187 16.2513 13.0187C16.2564 13.0187 16.2621 13.0187 16.2671 13.0187C16.2814 13.0187 16.295 13.0187 16.3093 13.0187C16.3165 13.0187 16.3237 13.0187 16.3301 13.0187C16.3344 13.0187 16.3387 13.0187 16.3423 13.0179C16.3595 13.0172 16.3773 13.0157 16.3945 13.0143C16.4017 13.0143 16.4088 13.0143 16.4153 13.0128C16.4174 13.0128 16.4196 13.0128 16.4217 13.0121C16.4511 13.0092 16.4804 13.0048 16.5098 12.9997C16.5112 12.9997 16.5127 12.9997 16.5141 12.9997C16.5227 12.9983 16.5306 12.9961 16.5391 12.9946C16.5535 12.9917 16.5678 12.9888 16.5821 12.9852C16.5921 12.983 16.6021 12.9793 16.6122 12.9771C16.6258 12.9735 16.6387 12.9699 16.6523 12.9655C16.6551 12.9648 16.658 12.964 16.6609 12.9633C16.6659 12.9618 16.6702 12.9597 16.6745 12.9582C16.6952 12.9509 16.7153 12.9429 16.7353 12.9349C16.7425 12.932 16.7503 12.9283 16.7575 12.9254C16.7826 12.9138 16.8069 12.9014 16.8305 12.8883C16.8334 12.8861 16.837 12.8846 16.8398 12.8825C16.847 12.8781 16.8527 12.8737 16.8599 12.8686C16.8692 12.8621 16.8792 12.8562 16.8878 12.8497C16.8957 12.8439 16.9021 12.838 16.9093 12.8322C16.9171 12.8256 16.9257 12.8191 16.9329 12.8125C16.9343 12.8111 16.9365 12.8096 16.9379 12.8089C16.9408 12.806 16.9429 12.8031 16.9458 12.8001C16.958 12.7885 16.9687 12.7768 16.9787 12.7645C16.9809 12.7615 16.9837 12.7594 16.9859 12.7564C16.988 12.7535 16.9895 12.7513 16.9909 12.7484C16.9973 12.7397 17.0038 12.7302 17.0088 12.7208C17.0109 12.7171 17.0145 12.7135 17.0167 12.7091C17.0181 12.7069 17.0181 12.7055 17.0195 12.7033C17.0238 12.6953 17.0274 12.6873 17.031 12.6785C17.0331 12.6734 17.036 12.669 17.0374 12.6639C17.0374 12.6625 17.0381 12.6603 17.0389 12.6588C17.0417 12.6508 17.0431 12.6435 17.0453 12.6355C17.0467 12.6304 17.0489 12.6253 17.0496 12.6195C17.0496 12.6181 17.0496 12.6166 17.0496 12.6151C17.051 12.6071 17.0517 12.5984 17.0525 12.5904C17.0525 12.5853 17.0539 12.5794 17.0546 12.5744C17.0546 12.5722 17.0546 12.57 17.0546 12.5678L17.0668 8.29294C17.0668 8.30022 17.0653 8.30823 17.0646 8.31552V8.31479Z" fill="currentColor" stroke="currentColor" stroke-width="0.0864" stroke-linecap="round" stroke-linejoin="round"/>
<path d="M16.839 7.96728C17.1418 8.145 17.144 8.43344 16.8433 8.61117C16.5426 8.78889 16.0536 8.78889 15.7508 8.61117C15.448 8.43344 15.4466 8.145 15.7472 7.96728C16.0479 7.78955 16.5369 7.78955 16.839 7.96728Z" fill="currentColor"/>
<path d="M19.507 9.57428C19.5149 9.57209 19.5235 9.56918 19.5314 9.56699C19.5392 9.56481 19.5464 9.56335 19.5536 9.5619C19.5636 9.55971 19.5729 9.55825 19.5829 9.55752C19.5886 9.55752 19.5936 9.55607 19.5994 9.55607C19.6115 9.55534 19.623 9.55534 19.6345 9.55607C19.6373 9.55607 19.6402 9.55607 19.6423 9.55607C19.6559 9.5568 19.6695 9.55898 19.6831 9.56117C19.6867 9.56117 19.6896 9.56262 19.6932 9.56335C19.7032 9.56554 19.7132 9.56845 19.7232 9.57209C19.7261 9.57355 19.7297 9.57428 19.7325 9.57573C19.7447 9.58083 19.7569 9.58666 19.7683 9.59322L6.6492 1.83598C6.6492 1.83598 6.64705 1.83452 6.64634 1.83452C6.63775 1.82942 6.62844 1.82505 6.61913 1.82068C6.6177 1.81995 6.61555 1.81922 6.61341 1.81849C6.61054 1.81704 6.60696 1.81631 6.6041 1.81485C6.59909 1.8134 6.59479 1.81121 6.58978 1.80975C6.58477 1.8083 6.57904 1.80757 6.57403 1.80611C6.57045 1.80538 6.56759 1.80466 6.56401 1.80393C6.56258 1.80393 6.56043 1.8032 6.559 1.80247C6.54826 1.80028 6.53752 1.79956 6.52606 1.79883C6.52606 1.79883 6.52463 1.79883 6.52392 1.79883C6.52105 1.79883 6.5189 1.79883 6.51604 1.79883C6.50745 1.79883 6.49886 1.79883 6.48955 1.79883C6.48669 1.79883 6.48382 1.79883 6.48025 1.79956C6.47452 1.79956 6.46951 1.80028 6.46378 1.80101C6.45877 1.80101 6.45376 1.80174 6.44803 1.80247C6.44373 1.80247 6.43872 1.80466 6.43443 1.80538C6.42727 1.80684 6.41939 1.8083 6.41223 1.81048C6.40794 1.81121 6.40436 1.81194 6.40006 1.8134C6.39577 1.81485 6.39219 1.81631 6.38789 1.81777C6.37501 1.82141 6.36212 1.82651 6.34923 1.83161C6.34494 1.83306 6.33993 1.83452 6.33563 1.8367C6.33277 1.83743 6.33062 1.83962 6.32776 1.84035C6.30485 1.85054 6.28194 1.86147 6.25903 1.87531C6.24113 1.88551 6.22395 1.89716 6.20677 1.90881C6.20104 1.91246 6.19531 1.91683 6.1903 1.9212C6.17885 1.92994 6.16739 1.93868 6.15594 1.94742C6.14949 1.95252 6.14305 1.95761 6.13732 1.96344C6.12658 1.97218 6.11656 1.98165 6.10654 1.99112C6.10009 1.99695 6.09437 2.00277 6.08792 2.0086C6.08434 2.01224 6.08005 2.01589 6.07647 2.01953C6.07217 2.0239 6.06859 2.02827 6.06501 2.03191C6.05284 2.04502 6.04067 2.05813 6.0285 2.07124C6.02492 2.07561 6.02063 2.07925 6.01705 2.08362C6.01419 2.08727 6.01061 2.09164 6.00774 2.09528C6.00058 2.10402 5.99342 2.11276 5.98626 2.1215C5.98197 2.12733 5.97696 2.13315 5.97266 2.13898C5.96908 2.14408 5.9655 2.14918 5.96192 2.15428C5.95691 2.16156 5.9519 2.16812 5.94689 2.1754C5.94331 2.1805 5.93973 2.18487 5.93615 2.18997C5.93042 2.19798 5.9247 2.20672 5.91968 2.21546C5.9161 2.22056 5.91253 2.22639 5.90895 2.23149C5.90751 2.23367 5.90608 2.23586 5.90465 2.23804C5.89463 2.25334 5.88532 2.26936 5.87601 2.28539C5.87601 2.28611 5.87458 2.28757 5.87458 2.2883C5.87243 2.29121 5.871 2.29485 5.86885 2.29777C5.86241 2.30869 5.85597 2.32035 5.85024 2.332C5.84738 2.3371 5.84523 2.34293 5.84237 2.34803C5.8395 2.35385 5.83664 2.35895 5.83377 2.36478C5.83163 2.36988 5.82876 2.37425 5.82662 2.37935C5.82017 2.39246 5.81445 2.40557 5.80872 2.41868C5.808 2.42086 5.80657 2.42378 5.80585 2.42596C5.80585 2.42596 5.80585 2.42742 5.80514 2.42815C5.79798 2.4449 5.79154 2.46165 5.78509 2.47841C5.78366 2.48132 5.78294 2.48423 5.78151 2.48787C5.77937 2.4937 5.77722 2.50026 5.77507 2.50608C5.77221 2.5141 5.76863 2.52284 5.76648 2.53085C5.76433 2.5374 5.7629 2.54396 5.76075 2.55052C5.7586 2.55853 5.75574 2.56581 5.75359 2.57382C5.75216 2.57892 5.75073 2.58329 5.7493 2.58839C5.74715 2.59713 5.745 2.60514 5.74285 2.61388C5.74071 2.62335 5.73784 2.63282 5.73569 2.64229C5.73498 2.64593 5.73426 2.64885 5.73355 2.65249C5.73211 2.65904 5.7314 2.66633 5.72997 2.67288C5.7271 2.68745 5.72424 2.70275 5.72281 2.71731C5.72281 2.72168 5.72138 2.72533 5.72066 2.7297C5.72066 2.73334 5.72066 2.73698 5.71994 2.74135C5.71636 2.77413 5.7135 2.80691 5.7135 2.83895C5.7135 2.97079 5.74858 3.07276 5.80657 3.1405C5.8259 3.16308 5.84809 3.18129 5.87315 3.19586L18.9923 10.9524C18.8942 10.8941 18.8333 10.771 18.8326 10.5955C18.8326 10.5634 18.8348 10.5306 18.8391 10.4979C18.8398 10.4899 18.8405 10.4818 18.8419 10.4746C18.8441 10.46 18.8469 10.4447 18.8491 10.4301C18.8512 10.4199 18.8527 10.4097 18.8548 10.3995C18.857 10.3901 18.8591 10.3806 18.862 10.3711C18.8656 10.358 18.8684 10.3449 18.8727 10.3311C18.8749 10.3231 18.877 10.3158 18.8799 10.3078C18.8842 10.2932 18.8892 10.2779 18.8949 10.2633C18.8971 10.2575 18.8992 10.2509 18.9014 10.2451C18.9092 10.2247 18.9171 10.2043 18.9257 10.1839C18.9264 10.1817 18.9278 10.1796 18.9286 10.1774C18.9364 10.1592 18.945 10.141 18.9536 10.1227C18.9565 10.1169 18.9593 10.1118 18.9622 10.106C18.9708 10.0892 18.9794 10.0725 18.9887 10.0557C18.9908 10.0528 18.9923 10.0492 18.9937 10.0463C19.0044 10.0266 19.0166 10.0077 19.0281 9.98945C19.0317 9.98435 19.0352 9.97853 19.0388 9.97343C19.0474 9.95959 19.0567 9.94648 19.066 9.93337C19.071 9.92608 19.076 9.91953 19.0811 9.91225C19.0889 9.90132 19.0975 9.89039 19.1061 9.8802C19.1133 9.87146 19.1204 9.86272 19.1276 9.85398C19.1347 9.84596 19.1412 9.83795 19.1483 9.82994C19.1605 9.8161 19.1727 9.80299 19.1849 9.79061C19.1927 9.78259 19.2006 9.77458 19.2085 9.76657C19.2149 9.76074 19.2207 9.75492 19.2271 9.74909C19.2371 9.73962 19.2479 9.73015 19.2579 9.72141C19.2643 9.71631 19.2701 9.71048 19.2765 9.70539C19.288 9.69592 19.2994 9.68718 19.3109 9.67916C19.3166 9.67479 19.3216 9.67115 19.3273 9.66678C19.3445 9.6544 19.3617 9.64347 19.3796 9.63328C19.4032 9.61944 19.4261 9.60851 19.4483 9.59831C19.4555 9.5954 19.4626 9.59249 19.4698 9.58957C19.4827 9.58448 19.4956 9.5801 19.5085 9.57573L19.507 9.57428Z" fill="currentColor" stroke="currentColor" stroke-width="0.0864" stroke-linecap="round" stroke-linejoin="round"/>
<path d="M19.3786 9.63112C19.6815 9.45339 19.9277 9.59615 19.9285 9.95015C19.9292 10.3041 19.6851 10.7346 19.3822 10.9123C19.0794 11.0901 18.8331 10.948 18.8324 10.594C18.8317 10.24 19.0758 9.80884 19.3786 9.63112Z" fill="currentColor" stroke="currentColor" stroke-width="0.0864" stroke-linecap="round" stroke-linejoin="round"/>
<path d="M13.8096 18.1056L13.8095 14.5918L15.1315 15.3551C15.4003 15.5103 15.6175 15.7166 15.783 15.9739C15.9485 16.2361 16.0313 16.5076 16.0313 16.7886C16.0313 17.1219 15.9153 17.2942 15.6833 17.3056L15.6833 17.3252C15.9903 17.6511 16.1438 18.0224 16.1438 18.4389C16.1438 18.7558 16.0583 18.9539 15.8871 19.0331C15.7131 19.114 15.4754 19.0674 15.1741 18.8934L13.8096 18.1056ZM14.3146 16.3242L15.0361 16.7408C15.1931 16.8315 15.312 16.8584 15.3926 16.8217C15.4732 16.7898 15.5135 16.6947 15.5135 16.5362C15.5135 16.3974 15.476 16.2679 15.4011 16.1478C15.3218 16.0253 15.2101 15.9224 15.0658 15.8391L14.3146 15.4053L14.3146 16.3242ZM14.3146 17.8704L15.0998 18.3237C15.2696 18.4218 15.399 18.4499 15.4881 18.4083C15.5773 18.3715 15.6218 18.2715 15.6218 18.1081C15.6218 17.948 15.5786 17.7957 15.4923 17.6511C15.4018 17.509 15.2709 17.3885 15.0998 17.2897L14.3146 16.8363L14.3146 17.8704Z" fill="currentColor" stroke="currentColor" stroke-width="0.0864" stroke-linecap="round" stroke-linejoin="round"/>
<path d="M12.2231 17.2351C11.8596 17.0251 11.5667 16.7376 11.3446 16.3725C11.1225 16.0074 11.0114 15.6125 11.0114 15.1878L11.0114 12.9775L11.5185 13.2704L11.5186 15.4683C11.5186 15.7264 11.5766 15.9609 11.6926 16.1716C11.8058 16.3872 11.9826 16.5645 12.2231 16.7033C12.465 16.843 12.6447 16.8716 12.7621 16.7891C12.8753 16.7091 12.9319 16.5408 12.9319 16.2844L12.9318 14.0864L13.4453 14.3829L13.4454 16.5931C13.4454 17.0195 13.3351 17.2866 13.1144 17.3944C12.8923 17.503 12.5952 17.4499 12.2231 17.2351Z" fill="currentColor" stroke="currentColor" stroke-width="0.0864" stroke-linecap="round" stroke-linejoin="round"/>
<path d="M9.00628 15.3331L9.00616 11.8193L9.51545 12.1134L9.51555 15.0955L10.95 15.9237L10.9501 16.4555L9.00628 15.3331Z" fill="currentColor" stroke="currentColor" stroke-width="0.0864" stroke-linecap="round" stroke-linejoin="round"/>
<path d="M7.49819 14.5064C7.05115 14.2483 6.70596 13.884 6.46262 13.4135C6.21929 12.9479 6.09761 12.444 6.09759 11.9016C6.09757 11.3593 6.21922 10.9934 6.46254 10.8039C6.70727 10.6136 7.05245 10.6471 7.49808 10.9044C7.86589 11.1167 8.16298 11.4067 8.38934 11.7743C8.61428 12.1394 8.74162 12.5225 8.77134 12.9235L8.24932 12.6221C8.22809 12.3844 8.15452 12.1614 8.02861 11.9531C7.90411 11.7473 7.72727 11.5782 7.49809 11.4459C7.20101 11.2744 6.98032 11.2621 6.83603 11.4091C6.69174 11.561 6.6196 11.8257 6.61961 12.203C6.61962 12.582 6.69178 12.9283 6.83609 13.242C6.98039 13.5556 7.20109 13.7982 7.49817 13.9698C7.71462 14.0947 7.8865 14.1303 8.01382 14.0764C8.13972 14.0233 8.21965 13.8955 8.25359 13.6929L8.77137 13.9919C8.73319 14.339 8.60234 14.5648 8.37882 14.6694C8.15814 14.7723 7.86459 14.7179 7.49819 14.5064Z" fill="currentColor" stroke="currentColor" stroke-width="0.0864" stroke-linecap="round" stroke-linejoin="round"/>
</g>
<defs>
<clipPath id="clip0_4021_2142">
<rect width="24" height="24" fill="currentColor"/>
</clipPath>
</defs>
</svg>
