<svg width="73" height="24" viewBox="0 0 73 24" fill="none" xmlns="http://www.w3.org/2000/svg">
<path d="M26.971 22.2899C26.971 21.9147 26.7482 21.6081 26.3548 21.6081C25.9892 21.6081 25.7281 21.9039 25.7281 22.2899C25.7281 22.6759 25.9892 22.9681 26.3548 22.9681C26.7482 22.9681 26.971 22.665 26.971 22.2899ZM25.5192 23.0258V20.515C25.5192 20.3996 25.5993 20.3816 25.6376 20.3816C25.6759 20.3816 25.7559 20.3996 25.7559 20.515V21.7379H25.7629C25.9022 21.5179 26.1459 21.4025 26.3792 21.4025C26.8875 21.4025 27.2217 21.7921 27.2217 22.2899C27.2217 22.7877 26.8875 23.1773 26.3792 23.1773C26.1459 23.1773 25.9022 23.0619 25.7629 22.849H25.7559V23.0258C25.7559 23.1412 25.6759 23.1593 25.6376 23.1593C25.5993 23.1593 25.5192 23.1412 25.5192 23.0258Z" fill="#FFFFFE"/>
<path d="M29.0173 21.6009L28.2478 23.5705C28.1469 23.8302 28.0181 23.9998 27.736 23.9998C27.6943 23.9998 27.6351 23.9962 27.5968 23.9854C27.5376 23.9673 27.5097 23.9276 27.5097 23.8771C27.5097 23.8194 27.5515 23.7725 27.6107 23.7725C27.6281 23.7725 27.6455 23.7761 27.6664 23.7797C27.6943 23.7833 27.7082 23.7833 27.7256 23.7833C27.8823 23.7833 27.9658 23.6751 28.0355 23.4839L28.1678 23.1304L27.5202 21.6081C27.5097 21.5792 27.5062 21.5576 27.5062 21.5395C27.5062 21.471 27.562 21.4205 27.6281 21.4205C27.6664 21.4205 27.7151 21.4349 27.7465 21.5179L28.2896 22.8707H28.2966L28.7945 21.5179C28.8223 21.4385 28.8711 21.4205 28.9094 21.4205C28.979 21.4205 29.0312 21.471 29.0312 21.5359C29.0312 21.5504 29.0277 21.572 29.0173 21.6009Z" fill="#FFFFFE"/>
<path d="M30.6964 20.8036V22.9104C30.6964 23.1268 30.5502 23.1665 30.4771 23.1665C30.404 23.1665 30.2578 23.1268 30.2578 22.9104V20.8036C30.2578 20.5872 30.404 20.5475 30.4771 20.5475C30.5502 20.5475 30.6964 20.5872 30.6964 20.8036Z" fill="#FFFFFE"/>
<path d="M32.8315 22.9572L31.686 21.3195H31.6791V22.9104C31.6791 23.1268 31.5328 23.1665 31.4597 23.1665C31.3866 23.1665 31.2404 23.1268 31.2404 22.9104V20.8794C31.2404 20.598 31.4284 20.5475 31.5154 20.5475C31.6129 20.5475 31.7069 20.5908 31.8218 20.7567L32.9673 22.3909H32.9743V20.8036C32.9743 20.5872 33.1205 20.5475 33.1936 20.5475C33.2667 20.5475 33.4129 20.5872 33.4129 20.8036V22.8346C33.4129 23.116 33.2249 23.1665 33.1379 23.1665C33.0369 23.1665 32.9499 23.1232 32.8315 22.9572Z" fill="#FFFFFE"/>
<path d="M34.8309 23.134H34.2182C34.0406 23.134 33.957 23.0474 33.957 22.8635V20.8505C33.957 20.6665 34.0406 20.58 34.2182 20.58H34.8309C35.475 20.58 36.1923 20.8974 36.1923 21.857C36.1923 22.7516 35.475 23.134 34.8309 23.134ZM34.3957 20.9696V22.7372H34.7613C35.2139 22.7372 35.7222 22.546 35.7222 21.857C35.7222 21.1247 35.2139 20.9696 34.7613 20.9696H34.3957Z" fill="#FFFFFE"/>
<path d="M36.595 22.9248V21.5973C36.595 21.4025 36.7308 21.37 36.7935 21.37C36.8561 21.37 36.9919 21.4025 36.9919 21.5973V21.6802H36.9989C37.072 21.5107 37.2496 21.352 37.5177 21.352C37.7753 21.352 37.9459 21.4854 38.0399 21.6802C38.1513 21.471 38.3393 21.352 38.59 21.352C39.0252 21.352 39.2063 21.6983 39.2063 22.0518V22.9248C39.2063 23.1304 39.067 23.1665 38.9974 23.1665C38.9277 23.1665 38.7885 23.1304 38.7885 22.9248V22.1744C38.7885 21.9688 38.7432 21.7127 38.4751 21.7127C38.214 21.7127 38.1061 21.9652 38.1061 22.1889V22.9248C38.1061 23.1304 37.9668 23.1665 37.8972 23.1665C37.8275 23.1665 37.6883 23.1304 37.6883 22.9248V22.0879C37.6883 21.875 37.5908 21.7127 37.3784 21.7127C37.1277 21.7127 37.0128 21.9508 37.0128 22.1817V22.9248C37.0128 23.1304 36.8735 23.1665 36.8039 23.1665C36.7343 23.1665 36.595 23.1304 36.595 22.9248Z" fill="#FFFFFE"/>
<path d="M41.4124 22.261C41.4124 22.8057 41.0085 23.1845 40.5037 23.1845C39.9989 23.1845 39.595 22.8057 39.595 22.261C39.595 21.7163 39.9989 21.352 40.5037 21.352C41.0085 21.352 41.4124 21.7163 41.4124 22.261ZM40.9877 22.261C40.9877 21.9905 40.8345 21.7055 40.5037 21.7055C40.1729 21.7055 40.0198 21.9905 40.0198 22.261C40.0198 22.5316 40.1729 22.8238 40.5037 22.8238C40.8345 22.8238 40.9877 22.5316 40.9877 22.261Z" fill="#FFFFFE"/>
<path d="M41.8175 22.9248V21.5973C41.8175 21.4025 41.9533 21.37 42.016 21.37C42.0786 21.37 42.2144 21.4025 42.2144 21.5973V21.6802H42.2214C42.2945 21.5071 42.493 21.352 42.7402 21.352C43.1754 21.352 43.3564 21.6983 43.3564 22.0518V22.9248C43.3564 23.1304 43.2172 23.1665 43.1475 23.1665C43.0779 23.1665 42.9386 23.1304 42.9386 22.9248V22.1744C42.9386 21.9688 42.8934 21.7127 42.6253 21.7127C42.3607 21.7127 42.2353 21.9508 42.2353 22.1817V22.9248C42.2353 23.1304 42.0961 23.1665 42.0264 23.1665C41.9568 23.1665 41.8175 23.1304 41.8175 22.9248Z" fill="#FFFFFE"/>
<path d="M45.2157 22.4053H44.1643C44.1817 22.6506 44.3976 22.831 44.6413 22.831C44.8154 22.831 44.9198 22.7733 45.0243 22.6831C45.0834 22.6326 45.1217 22.6218 45.167 22.6218C45.261 22.6218 45.3341 22.6903 45.3341 22.7949C45.3341 22.831 45.3202 22.8959 45.2645 22.95C45.1009 23.1124 44.9128 23.1845 44.6448 23.1845C44.1295 23.1845 43.7465 22.8418 43.7465 22.2791C43.7465 21.7199 44.126 21.352 44.6308 21.352C45.0347 21.352 45.362 21.59 45.4281 22.0987C45.4316 22.1348 45.4351 22.16 45.4351 22.1889C45.4351 22.3404 45.355 22.4053 45.2157 22.4053ZM44.1643 22.0951H45.0208C45.0208 21.8714 44.8989 21.6766 44.6273 21.6766C44.3801 21.6766 44.1817 21.8534 44.1643 22.0951Z" fill="#FFFFFE"/>
<path d="M47.3055 21.6838L46.5883 23.5056C46.463 23.823 46.3132 23.9998 45.9546 23.9998C45.7771 23.9998 45.7248 23.8916 45.7248 23.805C45.7248 23.7184 45.7805 23.6427 45.8641 23.6282C45.885 23.6246 45.9024 23.6246 45.9303 23.6246C46.0417 23.6246 46.1496 23.5525 46.2262 23.3541L46.3098 23.134L45.6796 21.6983C45.6587 21.6478 45.6517 21.6009 45.6517 21.572C45.6517 21.4602 45.7388 21.37 45.8606 21.37C45.9337 21.37 46.0138 21.4025 46.0695 21.5395L46.5221 22.6614H46.5291L46.9191 21.5504C46.9713 21.4025 47.0548 21.37 47.1245 21.37C47.2428 21.37 47.3299 21.4494 47.3299 21.5648C47.3299 21.59 47.3264 21.6261 47.3055 21.6838Z" fill="#FFFFFE"/>
<path d="M1.14881 6.72797C0.522571 6.72797 0 7.2715 0 7.92659V16.7399C0 17.3815 0.522571 17.9252 1.14881 17.9252C1.77505 17.9252 2.28449 17.3817 2.28449 16.7399V7.92659C2.28449 7.2715 1.77482 6.72797 1.14881 6.72797Z" fill="#FFFFFE"/>
<path d="M22.4266 10.153C22.1587 9.48463 21.7485 8.89657 21.2433 8.37071C20.7381 7.87606 20.1421 7.46176 19.4769 7.17669C18.7988 6.89161 18.0734 6.74884 17.3177 6.74884H15.0979C15.0332 6.73093 14.9727 6.73093 14.9079 6.73093C14.2472 6.73093 13.7117 7.2701 13.7117 7.94285V16.7206C13.7117 17.389 14.2169 17.9013 14.8605 17.9325H17.3177C18.0734 17.9325 18.7988 17.7721 19.4769 17.487C20.1376 17.2019 20.7378 16.801 21.2433 16.3063C21.7485 15.7628 22.1587 15.1924 22.4266 14.5063C22.7115 13.8203 22.8497 13.1027 22.8497 12.3409C22.8497 11.5878 22.7115 10.8393 22.4266 10.1533V10.153ZM19.6153 14.6176C18.9935 15.2459 18.1728 15.5668 17.2747 15.5668H15.9965V9.08363H17.2747C18.173 9.08363 18.9935 9.43574 19.6153 10.0504C20.2371 10.6607 20.5654 11.4673 20.5654 12.3361C20.5654 13.2049 20.2373 14.0068 19.6153 14.6174V14.6176Z" fill="#FFFFFE"/>
<path d="M15.5448 3.83008L12.172 0.350145C11.9389 0.109599 11.6279 -0.00631849 11.3213 0.00263545C11.0148 -0.00631849 10.7038 0.105001 10.4706 0.350145L7.09784 3.83008C6.64868 4.2935 6.64868 5.04201 7.09784 5.50543C7.547 5.96886 8.27245 5.96886 8.72161 5.50543L10.2459 3.93269V13.3922L6.18217 7.32792C5.97928 6.9625 5.60354 6.72196 5.17174 6.72196C4.5326 6.72196 4.00581 7.26549 4.00581 7.92057V16.725C4.00581 17.38 4.5326 17.9236 5.17174 17.9236C5.81088 17.9236 6.33767 17.38 6.33767 16.725V11.2713L10.4662 17.3979C10.4662 17.4113 10.4662 17.4292 10.4835 17.4471C10.7167 17.7501 11.045 17.9284 11.4163 17.9284C12.0555 17.9284 12.5694 17.3849 12.5694 16.7298V4.11515L13.921 5.50979C14.3702 5.97321 15.0957 5.97321 15.5448 5.50979C15.994 5.04636 15.994 4.29326 15.5448 3.83008Z" fill="#FFFFFE"/>
<path d="M29.3791 11.7681C28.9771 11.4331 28.5751 11.3055 28.1268 11.3055C27.5392 11.3055 26.9362 11.5288 26.9362 12.135C26.9362 12.7252 27.5083 12.8688 28.5442 13.124C29.642 13.3952 30.9407 13.9057 30.9407 15.4212C30.9407 17.2876 29.4719 17.9736 27.8485 17.9736C27.029 17.9736 26.1013 17.7343 25.5138 17.2717C25.1891 17.0164 25.0963 16.7293 25.0963 16.506C25.0963 16.0593 25.421 15.6924 25.8694 15.6924C26.0704 15.6924 26.2559 15.7562 26.5033 15.9476C26.9362 16.2986 27.4001 16.49 27.9258 16.49C28.4669 16.49 29.1317 16.2667 29.1317 15.5807C29.1317 14.9426 28.5442 14.7671 27.4155 14.496C26.3178 14.2248 25.22 13.7621 25.22 12.3105C25.22 10.6035 26.7043 9.86973 28.1731 9.86973C28.9153 9.86973 29.7038 10.0612 30.2295 10.46C30.5851 10.7312 30.6779 10.9864 30.6779 11.2097C30.6779 11.6405 30.3841 11.9914 29.9203 11.9914C29.7502 11.9914 29.5801 11.9276 29.3791 11.7681Z" fill="#1FD8AD"/>
<path d="M36.0945 17.7024C35.8472 17.83 35.5225 17.9098 35.1823 17.9098C33.2187 17.9098 32.7858 16.6655 32.7858 15.1979V11.6245H32.1828C31.4716 11.6245 31.3479 11.114 31.3479 10.8588C31.3479 10.6035 31.4716 10.0931 32.1828 10.0931H32.7858V8.769C32.7858 7.89161 33.3888 7.73209 33.698 7.73209C34.0073 7.73209 34.6103 7.89161 34.6103 8.769V10.0931H35.7698C36.4811 10.0931 36.6048 10.6035 36.6048 10.8588C36.6048 11.114 36.4811 11.6245 35.7698 11.6245H34.6103V15.1819C34.6103 15.9317 34.8576 16.3305 35.3215 16.3305C35.3988 16.3305 35.507 16.3145 35.6152 16.2986C35.7389 16.2826 35.7699 16.2826 35.8317 16.2826C36.2955 16.2826 36.5429 16.6336 36.5429 17.0005C36.5429 17.3036 36.3728 17.5588 36.0945 17.7024Z" fill="#1FD8AD"/>
<path d="M45.4462 13.8898C45.4462 16.2986 43.6527 17.9736 41.4108 17.9736C39.1689 17.9736 37.3754 16.2986 37.3754 13.8898C37.3754 11.4809 39.1689 9.86973 41.4108 9.86973C43.6527 9.86973 45.4462 11.4809 45.4462 13.8898ZM43.5599 13.8898C43.5599 12.6933 42.8796 11.4331 41.4108 11.4331C39.942 11.4331 39.2617 12.6933 39.2617 13.8898C39.2617 15.0862 39.942 16.3783 41.4108 16.3783C42.8796 16.3783 43.5599 15.0862 43.5599 13.8898Z" fill="#1FD8AD"/>
<path d="M51.8836 16.0433C52.1155 15.8838 52.3165 15.8041 52.4866 15.8041C52.9659 15.8041 53.2442 16.171 53.2442 16.5698C53.2442 16.841 53.1669 17.1122 52.7494 17.4153C52.2237 17.7981 51.4043 17.9736 50.7704 17.9736C48.5594 17.9736 46.8123 16.4741 46.8123 13.9217C46.8123 11.4331 48.6058 9.86973 50.7858 9.86973C51.497 9.86973 52.2083 10.0452 52.7339 10.4121C53.1669 10.7152 53.2596 11.0183 53.2596 11.2416C53.2596 11.6724 52.9504 12.0712 52.4556 12.0712C52.2856 12.0712 52.1155 12.0233 51.8372 11.8159C51.5898 11.6245 51.2342 11.465 50.7858 11.465C49.4252 11.465 48.7449 12.7252 48.7449 13.9217C48.7449 15.1181 49.3943 16.3624 50.7858 16.3624C51.1878 16.3624 51.5589 16.2667 51.8836 16.0433Z" fill="#1FD8AD"/>
<path d="M60.9436 16.1276C61.2064 16.4148 61.2683 16.686 61.2683 16.8614C61.2683 17.3879 60.8817 17.8186 60.3561 17.8186C60.0468 17.8186 59.7994 17.691 59.4748 17.3241L56.2897 13.7507H56.6809V16.7498C56.6809 17.6591 56.0625 17.8186 55.7532 17.8186C55.4595 17.8186 54.8256 17.6591 54.8256 16.7498V8.7976C54.8256 7.8883 55.4595 7.72878 55.7532 7.72878C56.0625 7.72878 56.6809 7.8883 56.6809 8.7976V13.2402H56.2897L59.3047 10.1933C59.5675 9.9221 59.8304 9.81043 60.0777 9.81043C60.588 9.81043 60.9436 10.2092 60.9436 10.6878C60.9436 10.9112 60.8663 11.1823 60.557 11.4695L58.377 13.4636L60.9436 16.1276Z" fill="#1FD8AD"/>
<path d="M66.5026 11.7681C66.1006 11.4331 65.6986 11.3055 65.2502 11.3055C64.6627 11.3055 64.0597 11.5288 64.0597 12.135C64.0597 12.7252 64.6318 12.8688 65.6677 13.124C66.7654 13.3952 68.0642 13.9057 68.0642 15.4212C68.0642 17.2876 66.5954 17.9736 64.9719 17.9736C64.1525 17.9736 63.2248 17.7343 62.6373 17.2717C62.3126 17.0164 62.2198 16.7293 62.2198 16.506C62.2198 16.0593 62.5445 15.6924 62.9929 15.6924C63.1939 15.6924 63.3794 15.7562 63.6268 15.9476C64.0597 16.2986 64.5236 16.49 65.0492 16.49C65.5904 16.49 66.2552 16.2667 66.2552 15.5807C66.2552 14.9426 65.6677 14.7671 64.539 14.496C63.4413 14.2248 62.3435 13.7621 62.3435 12.3105C62.3435 10.6035 63.8278 9.86973 65.2966 9.86973C66.0388 9.86973 66.8273 10.0612 67.353 10.46C67.7086 10.7312 67.8013 10.9864 67.8013 11.2097C67.8013 11.6405 67.5076 11.9914 67.0437 11.9914C66.8737 11.9914 66.7036 11.9276 66.5026 11.7681Z" fill="#1FD8AD"/>
<path d="M69.8518 12.183V10.2211H69.2422V9.96776H70.7097V10.2211H70.0989V12.183H69.8518Z" fill="#FFFFFE"/>
<path d="M71.0886 12.183V9.96776H71.3783L72.0413 11.3195H72.0523L72.7167 9.96776H72.9995V12.183H72.7662V10.408H72.7552L72.0578 11.803H72.0304L71.333 10.3988H71.322V12.183H71.0886Z" fill="#FFFFFE"/>
</svg>
