<svg width="24" height="24" viewBox="0 0 24 24" fill="none" xmlns="http://www.w3.org/2000/svg">
<g clip-path="url(#clip0_3396_51013)">
<g filter="url(#filter0_d_3396_51013)">
<path d="M11.625 23.2498C18.0453 23.2498 23.25 18.0451 23.25 11.6249C23.25 5.20465 18.0453 0 11.625 0C5.2047 0 0 5.20465 0 11.6249C0 18.0451 5.2047 23.2498 11.625 23.2498Z" fill="white"/>
<mask id="mask0_3396_51013" style="mask-type:luminance" maskUnits="userSpaceOnUse" x="2" y="8" width="19" height="7">
<path d="M20.999 8.625H2.24902V14.6249H20.999V8.625Z" fill="white"/>
</mask>
<g mask="url(#mask0_3396_51013)">
<path d="M11.1238 12.1686C11.1112 12.1686 11.1025 12.1586 11.1025 12.1454C11.1025 12.1319 11.1115 12.1221 11.1246 12.1221C11.1376 12.1221 11.1464 12.1316 11.1464 12.1454C11.1464 12.1586 11.1376 12.1686 11.1243 12.1686H11.1238Z" fill="#1D50A0"/>
<path d="M18.2409 13.5226C18.1734 13.5213 17.9585 13.5245 17.8937 13.5226C17.9189 13.2607 17.9157 13.1251 17.9127 12.6424C17.3852 11.7562 17.3252 11.6715 17.1294 11.3528C17.2389 11.3542 17.4495 11.3548 17.5525 11.3528C17.6822 11.681 17.8399 11.9423 17.9758 12.1756C18.0421 12.2923 18.1148 12.4153 18.1366 12.4153C18.1556 12.4153 18.2409 12.261 18.2627 12.223C18.4272 11.9391 18.5756 11.6588 18.7018 11.3528C18.7715 11.3511 18.9155 11.3568 18.9923 11.3528C18.8693 11.5265 18.4175 12.2357 18.2819 12.4879C18.2534 12.5384 18.2377 12.5794 18.2218 12.6172C18.2186 12.6645 18.2186 12.7244 18.2186 12.7909C18.2186 12.9076 18.2251 13.2733 18.2409 13.5226ZM7.69201 13.518H7.4375L7.469 11.3423H7.58529L9.1337 12.984L9.09298 11.3423H9.35053L9.3098 13.5376H9.19974L7.64191 11.9019L7.69201 13.518Z" fill="#1D50A0"/>
<path d="M11.3278 11.3541H11.6093L10.6991 13.518H10.452L9.58205 11.3541H9.98262L10.6646 13.1647L11.3278 11.3541ZM12.8839 12.2752V12.4772C12.8839 12.4772 12.5334 12.4457 12.3987 12.4457C12.314 12.4457 12.2234 12.4489 12.145 12.452C12.1418 12.5869 12.145 13.2649 12.1482 13.3496C12.3485 13.3496 12.9716 13.3122 12.9716 13.3122V13.518H11.8181L11.8194 11.358H12.9496V11.5667C12.9496 11.5667 12.7242 11.5262 12.452 11.5262C12.3391 11.5262 12.2828 11.5262 12.1482 11.5325C12.1418 11.6542 12.1418 12.1316 12.145 12.2971C12.3924 12.3003 12.8839 12.2752 12.8839 12.2752ZM14.1115 12.4288C14.3835 12.3775 14.7237 12.2747 14.7237 11.8715C14.7237 11.7219 14.6831 11.5942 14.5644 11.4976C14.4614 11.4132 14.3456 11.3662 13.9742 11.3662C13.9243 11.3662 13.3394 11.3541 13.3394 11.3541L13.3392 13.5181H13.6631L13.662 12.3805L14.5291 13.5181H14.9387L14.1115 12.4288ZM14.3988 11.9058C14.3988 12.3386 13.968 12.3574 13.8275 12.3635C13.7523 12.3667 13.7211 12.3667 13.6619 12.3605C13.6619 12.2951 13.6587 12.077 13.6587 11.9336C13.6587 11.7935 13.6587 11.6503 13.665 11.5102C13.7057 11.5038 13.771 11.4946 13.8616 11.4946C14.0897 11.4946 14.3988 11.5412 14.3988 11.9058ZM20.1489 11.7709C20.1062 11.6392 19.9978 11.4633 19.7103 11.4633C19.3699 11.4633 19.3106 11.7128 19.3106 11.8219C19.3106 12.0683 19.5168 12.1525 19.6767 12.2149C20.0182 12.346 20.0777 12.3677 20.1875 12.4581C20.3321 12.5735 20.3633 12.7388 20.3633 12.8571C20.3633 13.1816 20.1342 13.5533 19.5764 13.5533C19.3697 13.5533 19.1694 13.5031 19.008 13.3812C19.0397 13.2748 19.0677 13.1983 19.1035 13.088C19.212 13.2852 19.3791 13.4123 19.6267 13.4123C19.9554 13.4123 20.0901 13.1972 20.0901 12.9978C20.0901 12.745 19.9116 12.6516 19.7011 12.5673C19.3356 12.4145 19.2949 12.3987 19.2099 12.3241C19.1033 12.2368 19.0529 12.0809 19.0529 11.9374C19.0529 11.5349 19.3793 11.331 19.7478 11.331C19.9916 11.331 20.1944 11.4212 20.2542 11.4626C20.2145 11.5718 20.1489 11.7709 20.1489 11.7709ZM4.56923 13.3606C4.30385 13.4965 4.00426 13.5617 3.69815 13.5617C2.80107 13.5617 2.2793 12.9768 2.2793 12.1822C2.2793 11.4378 2.74298 10.8223 3.75998 10.8223C4.11807 10.8223 4.38676 10.8962 4.57066 10.9652C4.56998 11.0939 4.57043 11.2245 4.57066 11.3885C4.45452 11.1774 4.12531 10.9866 3.74453 10.9866C3.13362 10.9866 2.72768 11.4339 2.72768 12.1785C2.72768 12.9805 3.22636 13.3777 3.77558 13.3777C3.93361 13.3777 4.2806 13.3459 4.56908 13.0703C4.5692 13.1614 4.5683 13.2839 4.56923 13.3606Z" fill="#1D50A0"/>
<path d="M5.92704 11.3269C5.15866 11.3269 4.71777 11.7855 4.71777 12.4524C4.71777 13.1474 5.2121 13.5653 5.89569 13.5653C6.64224 13.5653 7.1051 13.069 7.1051 12.4148C7.1051 11.7104 6.58272 11.3269 5.92704 11.3269ZM5.07372 12.4493C5.07372 11.7417 5.4941 11.4599 5.91159 11.4599C6.12451 11.4599 6.44146 11.5444 6.61074 11.8293C6.72069 12.0141 6.74885 12.2676 6.74885 12.4305C6.74885 13.0721 6.39755 13.4321 5.90206 13.4321C5.41884 13.4321 5.07372 13.0596 5.07372 12.4493ZM17.0206 12.4423C17.0034 12.4457 16.9605 12.4409 16.9078 12.4437H16.6757C16.6743 12.4434 16.6725 12.4434 16.6712 12.443L16.6715 12.4437H16.161V12.6079H16.685C16.6928 12.7526 16.6917 12.9254 16.6871 13.2834C16.5024 13.402 16.2554 13.402 16.2114 13.402C15.7518 13.402 15.3168 13.0676 15.3168 12.4117C15.3168 11.7649 15.7204 11.4493 16.1772 11.4493C16.6406 11.4493 16.8033 11.6994 16.8788 11.818H16.9001C16.9214 11.7586 16.9575 11.6483 17.0132 11.495C16.8135 11.3962 16.468 11.3164 16.173 11.3164C15.3421 11.3164 14.9607 11.8275 14.9607 12.418C14.9607 13.0896 15.4361 13.543 16.1324 13.543C16.4774 13.543 16.7091 13.4676 17.001 13.3676C16.9913 13.2988 17.005 12.6266 17.0206 12.4423ZM11.3249 14.1046C11.189 14.1046 11.0789 14.2148 11.0789 14.3505C11.0789 14.4864 11.189 14.5965 11.3249 14.5965C11.4604 14.5965 11.5709 14.4864 11.5709 14.3505C11.5709 14.2148 11.4604 14.1046 11.3249 14.1046Z" fill="#1D50A0"/>
<path d="M10.2919 14.1349C10.173 14.1349 10.0767 14.2313 10.0767 14.3502C10.0767 14.469 10.173 14.5654 10.2919 14.5654C10.4108 14.5654 10.507 14.469 10.507 14.3502C10.507 14.2313 10.4108 14.1349 10.2919 14.1349ZM9.31596 14.1658C9.21411 14.1658 9.13135 14.2482 9.13135 14.3501C9.13135 14.452 9.21411 14.5346 9.31596 14.5346C9.41796 14.5346 9.50058 14.452 9.50058 14.3501C9.50058 14.2482 9.41796 14.1658 9.31596 14.1658ZM8.41023 14.1964C8.32529 14.1964 8.25636 14.2652 8.25636 14.3501C8.25636 14.4351 8.32529 14.5037 8.41023 14.5037C8.49517 14.5037 8.56405 14.4351 8.56405 14.3501C8.56405 14.2652 8.49517 14.1964 8.41023 14.1964ZM7.57008 14.2273C7.50217 14.2273 7.44727 14.2823 7.44727 14.3501C7.44727 14.4181 7.50217 14.4732 7.57008 14.4732C7.63795 14.4732 7.693 14.4181 7.693 14.3501C7.693 14.2823 7.63795 14.2273 7.57008 14.2273ZM20.8609 10.7527C20.9221 10.7527 20.9718 10.7031 20.9718 10.6418C20.9718 10.5804 20.9221 10.5308 20.8609 10.5308C20.7996 10.5308 20.7498 10.5804 20.7498 10.6418C20.7498 10.7031 20.7996 10.7527 20.8609 10.7527Z" fill="#1D50A0"/>
<path d="M13.5042 10.8606C13.6267 10.8606 13.7261 10.7611 13.7261 10.6386C13.7261 10.516 13.6267 10.4165 13.5042 10.4165C13.3815 10.4165 13.2822 10.516 13.2822 10.6386C13.2822 10.7611 13.3815 10.8606 13.5042 10.8606ZM20.0547 10.7895C20.1364 10.7895 20.2026 10.7232 20.2026 10.6417C20.2026 10.5599 20.1364 10.4935 20.0547 10.4935C19.9729 10.4935 19.9066 10.5599 19.9066 10.6417C19.9066 10.7232 19.9729 10.7895 20.0547 10.7895Z" fill="#1D50A0"/>
<path d="M19.1442 10.8266C19.2464 10.8266 19.3293 10.7438 19.3293 10.6414C19.3293 10.5394 19.2464 10.4567 19.1442 10.4567C19.0421 10.4567 18.9593 10.5394 18.9593 10.6414C18.9593 10.7438 19.0421 10.8266 19.1442 10.8266ZM18.1017 10.8635C18.2241 10.8635 18.3237 10.7643 18.3237 10.6416C18.3237 10.5189 18.2241 10.4196 18.1017 10.4196C17.979 10.4196 17.8796 10.5189 17.8796 10.6416C17.8796 10.7643 17.979 10.8635 18.1017 10.8635ZM13.5046 9.82729C13.5963 9.82729 13.671 9.75277 13.671 9.66082C13.671 9.56902 13.5963 9.49421 13.5046 9.49421C13.4127 9.49421 13.3379 9.56902 13.3379 9.66082C13.3379 9.75277 13.4127 9.82729 13.5046 9.82729ZM13.5046 8.87577C13.5657 8.87577 13.6155 8.82619 13.6155 8.76481C13.6155 8.70342 13.5657 8.65381 13.5046 8.65381C13.4432 8.65381 13.3935 8.70342 13.3935 8.76481C13.3935 8.82619 13.4432 8.87577 13.5046 8.87577Z" fill="#1D50A0"/>
</g>
</g>
</g>
<defs>
<filter id="filter0_d_3396_51013" x="-7.36246" y="-6.13539" width="37.9749" height="37.9749" filterUnits="userSpaceOnUse" color-interpolation-filters="sRGB">
<feFlood flood-opacity="0" result="BackgroundImageFix"/>
<feColorMatrix in="SourceAlpha" type="matrix" values="0 0 0 0 0 0 0 0 0 0 0 0 0 0 0 0 0 0 127 0" result="hardAlpha"/>
<feOffset dy="1.22707"/>
<feGaussianBlur stdDeviation="3.68123"/>
<feComposite in2="hardAlpha" operator="out"/>
<feColorMatrix type="matrix" values="0 0 0 0 0 0 0 0 0 0 0 0 0 0 0 0 0 0 0.08 0"/>
<feBlend mode="normal" in2="BackgroundImageFix" result="effect1_dropShadow_3396_51013"/>
<feBlend mode="normal" in="SourceGraphic" in2="effect1_dropShadow_3396_51013" result="shape"/>
</filter>
<clipPath id="clip0_3396_51013">
<rect width="24" height="23.2498" fill="white"/>
</clipPath>
</defs>
</svg>
