<svg width="24" height="24" viewBox="0 0 24 24" fill="none" xmlns="http://www.w3.org/2000/svg">
<g clip-path="url(#clip0_3396_60175)">
<g filter="url(#filter0_d_3396_60175)">
<g clip-path="url(#clip1_3396_60175)">
<path d="M0 12C0 5.37258 5.37258 0 12 0C18.6274 0 24 5.37258 24 12C24 18.6274 18.6274 24 12 24C5.37258 24 0 18.6274 0 12Z" fill="currentColor"/>
<path fill-rule="evenodd" clip-rule="evenodd" d="M4.52361 13.0548L4.49379 12.9339L4.46591 12.8124L4.43992 12.6902L4.41603 12.5673L4.39406 12.4438L4.37406 12.3195L4.35611 12.1948L4.34019 12.0694L4.32648 11.9433L4.3147 11.8166L4.305 11.6894L4.29753 11.5618L4.29221 11.4335L4.28864 11.3048L4.28746 11.1724L4.29765 10.7801L4.32795 10.3895L4.37792 10.0044L4.44686 9.62522L4.53454 9.25253L4.6403 8.887L4.76371 8.52907L4.90415 8.17913L5.06119 7.8378L5.23439 7.50537L5.42304 7.18262L5.62695 6.86991L5.84528 6.56764L6.07786 6.27633L6.32393 5.99657L6.58314 5.72875L6.85501 5.4733L7.13895 5.23082L7.43448 5.00178L7.74126 4.78663L8.05876 4.58573L8.38628 4.39981L8.72348 4.22913L9.06991 4.07438L9.42516 3.93599L9.78838 3.81438L10.1595 3.7102L10.5375 3.62388L10.9223 3.55583L11.3132 3.50667L11.7095 3.47679L12.1109 3.4668L12.5123 3.47679L12.9086 3.50667L13.2995 3.55583L13.6842 3.62388L14.0624 3.7102L14.4334 3.81438L14.7966 3.93599L15.1519 4.07438L15.4983 4.22913L15.8356 4.39981L16.1632 4.58573L16.4805 4.78663L16.7873 5.00178L17.083 5.23082L17.3668 5.4733L17.6387 5.72875L17.8979 5.99657L18.1439 6.27633L18.3766 6.56764L18.5949 6.86991L18.7987 7.18262L18.9874 7.50537L19.1606 7.8378L19.3177 8.17913L19.4581 8.52907L19.5815 8.887L19.6873 9.25253L19.775 9.62522L19.8439 10.0044L19.8938 10.3895L19.9241 10.7801L19.9343 11.1724L19.9331 11.3048L19.9296 11.4335L19.9243 11.5618L19.9168 11.6894L19.9072 11.8166L19.8954 11.9433L19.8816 12.0694L19.8657 12.1948L19.8477 12.3195L19.8278 12.4438L19.8058 12.5673L19.7819 12.6902L19.7559 12.8124L19.728 12.9339L19.6982 13.0548L19.6665 13.1747L19.6328 13.2941L19.5972 13.4125L19.5598 13.5301L19.5204 13.6472L19.4793 13.7632L19.4364 13.8784L19.3916 13.9928L19.3451 14.1062L19.2967 14.2189L19.2467 14.3306L19.1996 14.4314H20.0784V15.2003H21.6354L20.8608 16.5481L21.8764 17.7837H17.9454V17.3173H16.829L16.7883 17.3481L16.6609 17.4401L16.5316 17.5296L16.4005 17.6167L16.2675 17.7011L16.1327 17.783L15.9962 17.8623L15.8578 17.9389L15.7177 18.0128L15.576 18.084L15.4326 18.1524L15.2878 18.218L15.1412 18.2808L14.9931 18.3407L14.8437 18.3977L14.6927 18.4517L14.5402 18.5027L14.3865 18.5507L14.2313 18.5957L14.0749 18.6375L13.9172 18.6762L13.7583 18.7117L13.5982 18.744L13.437 18.773L13.2746 18.7988L13.1114 18.8213L12.9468 18.8404L12.7815 18.8561L12.615 18.8683L12.4478 18.8772L12.2797 18.8824L12.1107 18.8841L11.9418 18.8824L11.7736 18.8772L11.6064 18.8683L11.4401 18.8561L11.2746 18.8404L11.1102 18.8213L10.9468 18.7988L10.7844 18.773L10.6232 18.744L10.4631 18.7117L10.3043 18.6762L10.1465 18.6375L9.99013 18.5957L9.83507 18.5507L9.68128 18.5027L9.52887 18.4517L9.3779 18.3977L9.22835 18.3407L9.08027 18.2808L8.93383 18.218L8.78879 18.1524L8.64555 18.084L8.50374 18.0128L8.36363 17.9389L8.22539 17.8623L8.0887 17.783L7.9539 17.7011L7.82097 17.6167L7.6898 17.5296L7.56052 17.4401L7.43332 17.3481L7.39242 17.3173H6.13888V17.7837H2.12305L3.22374 16.5462L2.38679 15.2003H4.07017V14.4314H5.02197L4.97476 14.3306L4.92467 14.2189L4.87633 14.1062L4.82981 13.9928L4.78505 13.8784L4.74215 13.7632L4.701 13.6472L4.66166 13.5301L4.62425 13.4125L4.58867 13.2941L4.55495 13.1747" fill="currentColor"/>
<path fill-rule="evenodd" clip-rule="evenodd" d="M6.36719 13.0935L6.37685 12.9166C6.49646 12.9055 6.59115 12.92 6.66142 12.9606C6.73147 13.0014 6.78033 13.0634 6.80781 13.1468C6.84238 13.2516 6.82935 13.3496 6.76903 13.4409C6.69927 13.5462 6.58393 13.6245 6.42335 13.6759C6.25359 13.7303 6.10833 13.7351 5.98764 13.6903C5.88273 13.6515 5.8121 13.5769 5.77553 13.4662C5.74583 13.3762 5.75238 13.2909 5.79471 13.2102C5.82501 13.1528 5.8803 13.1 5.96105 13.0519L6.06135 13.1972C6.01082 13.2248 5.97622 13.2583 5.95758 13.2981C5.93896 13.338 5.93645 13.3786 5.95013 13.4199C5.96972 13.4793 6.01197 13.5193 6.07684 13.5398C6.1415 13.5605 6.23439 13.5515 6.35529 13.5127C6.48056 13.4727 6.56386 13.4258 6.6046 13.3724C6.64572 13.3189 6.65636 13.263 6.63707 13.2045C6.62293 13.1615 6.5938 13.13 6.54998 13.1097C6.50585 13.0893 6.44483 13.0839 6.36724 13.0935H6.36719ZM6.09055 12.7217C6.20784 12.6951 6.29037 12.6532 6.33886 12.596C6.38721 12.5387 6.40386 12.4778 6.38859 12.4127C6.37331 12.3475 6.33147 12.3001 6.26325 12.2704C6.19493 12.2405 6.10081 12.2395 5.98012 12.2668C5.86197 12.2937 5.77944 12.3344 5.73258 12.3892C5.68582 12.4437 5.67036 12.5049 5.68619 12.5724C5.70199 12.64 5.74349 12.6887 5.81032 12.7181C5.87753 12.7477 5.97078 12.7489 6.0905 12.7216L6.09055 12.7217ZM6.13755 12.8914C6.01599 12.9191 5.91195 12.9243 5.82511 12.9065C5.73827 12.8891 5.6687 12.8561 5.61693 12.8079C5.56506 12.7595 5.52958 12.6946 5.51057 12.6132C5.48299 12.4954 5.50583 12.389 5.58002 12.2939C5.65398 12.199 5.77544 12.1322 5.94409 12.0938C6.11459 12.055 6.25715 12.064 6.37148 12.1208C6.47271 12.1705 6.53683 12.2544 6.56453 12.3727C6.59253 12.492 6.57253 12.5956 6.50494 12.6837C6.42742 12.7841 6.30485 12.8533 6.13755 12.8914ZM6.45931 11.9129L5.41357 11.9432L5.4028 11.5841C5.40044 11.4921 5.41487 11.445 5.43238 11.4051C5.45004 11.3652 5.48176 11.3318 5.52715 11.3052C5.57289 11.2785 5.62796 11.2645 5.69245 11.2626C5.77445 11.2603 5.84103 11.2775 5.89196 11.3147C5.9432 11.3519 5.969 11.3873 5.98371 11.4579C6.00944 11.4207 6.0146 11.402 6.04555 11.3774C6.07643 11.3526 6.14417 11.3437 6.2342 11.3252L6.40774 11.2896L6.42053 11.4998L6.22326 11.5245C6.16072 11.5324 6.05155 11.5719 6.0258 11.6342C6.0184 11.6521 6.01549 11.6809 6.01667 11.7203L6.01787 11.7556L6.45445 11.7428L6.45917 11.913L6.45931 11.9129ZM5.85064 11.7602L5.8465 11.6337C5.84412 11.5564 5.84886 11.5387 5.84176 11.5178C5.83431 11.4968 5.81998 11.4802 5.79856 11.4676C5.77724 11.4551 5.74901 11.4495 5.71454 11.4503C5.68105 11.4515 5.65441 11.4588 5.63471 11.4724C5.61481 11.4861 5.60154 11.5043 5.59455 11.5271C5.58983 11.5431 5.57865 11.5581 5.58089 11.6344L5.58503 11.7681L5.85023 11.7602L5.85064 11.7602ZM11.5337 16.9507H11.0189C11.0306 16.9783 11.0424 17.0058 11.0542 17.0335C11.1608 17.1464 11.1885 17.1198 11.342 17.1234C11.1667 17.1903 11.1217 17.2593 11.023 17.4486C11.3457 17.429 11.4751 17.4439 11.6609 17.2085C11.6015 17.1455 11.6088 17.0332 11.5337 16.9507H11.5337ZM10.6435 16.9507H10.4649C10.4637 16.9548 10.4625 16.9589 10.4619 16.9634C10.4257 17.0051 10.3505 17.1948 10.3143 17.2365C10.4215 17.2725 10.6104 17.1905 10.6637 17.0734C10.6521 17.0682 10.6487 17.0021 10.6434 16.9507H10.6435ZM10.3004 16.9507H10.1037C10.0409 17.0004 9.95197 17.0786 9.89367 17.1234C9.96539 17.1654 10.0476 17.1745 10.1343 17.1685C10.2396 17.1367 10.3011 17.0306 10.3004 16.9507ZM11.0589 17.1534C11.0278 17.3056 10.7639 17.3569 10.6343 17.3385C10.6815 17.2968 10.7287 17.2902 10.7758 17.2485C10.7397 17.2385 10.7035 17.2285 10.6673 17.2185C10.7272 17.1652 10.7666 17.0267 10.8262 16.9734C10.931 16.9811 11.0222 17.0978 11.0589 17.1534ZM7.12418 14.799H7.2969C7.58617 14.7656 7.54273 14.3913 7.41429 14.2844C7.3499 14.3655 7.31567 14.4388 7.27508 14.5123C7.23376 14.3742 7.1448 14.2785 7.0365 14.2256C7.02987 14.2722 7.04312 14.3212 7.0365 14.3677C6.9992 14.3368 6.94204 14.3033 6.9047 14.2722C6.90234 14.366 6.91212 14.4599 6.94939 14.5538C6.85038 14.5527 6.78751 14.5503 6.68838 14.5906C6.81434 14.7162 6.90367 14.7846 7.12421 14.799L7.12418 14.799ZM6.76792 13.819C6.88348 13.8692 6.99217 13.9403 7.08113 14.0689C7.09036 14.0093 7.11597 13.9595 7.15817 13.9195C7.28245 14.0688 7.39969 14.1633 7.24771 14.3407C7.15644 14.2426 7.055 14.1572 6.91711 14.1178C6.90053 14.1416 6.88403 14.1652 6.86734 14.1889C6.74272 14.1061 6.70047 13.9868 6.76795 13.819H6.76792ZM6.84744 14.2256C6.869 14.3106 6.88312 14.4199 6.90473 14.5049C6.85804 14.475 6.77618 14.5114 6.7307 14.5049C6.59978 14.4709 6.51599 14.3828 6.46471 14.2575C6.59462 14.1969 6.72182 14.1761 6.84498 14.2134L6.84737 14.2256L6.84744 14.2256ZM4.46138 16.9507H4.4431V15.7726H4.43777H4.25843H3.44905V15.7838L3.53526 15.9225H4.25843V16.092H3.64065L3.73388 16.242H4.25843V16.4114H3.83925L3.9325 16.5613H4.25843V16.7308H3.81802L3.68467 16.8806H4.25843V17.05H3.53406L3.44905 17.1457L3.40253 17.2166H5.29717L4.46131 16.9508L4.46138 16.9507ZM6.08443 15.798C6.08858 15.7746 6.08915 15.7573 6.09058 15.7487C6.09058 15.7044 6.06437 15.681 6.02064 15.6564H6.32559V15.7992C6.2466 15.7992 6.1653 15.7981 6.08446 15.7981L6.08443 15.798ZM7.09007 15.6969L7.10113 15.6992H7.10467C7.11332 15.699 7.12127 15.7015 7.12847 15.7053L7.1984 15.7213V15.6562H7.09339H7.06943H6.52577V16.0441C6.52696 16.0651 6.54827 16.0898 6.58207 16.1057C6.61202 16.1168 6.63201 16.1365 6.63201 16.155C6.63201 16.1686 6.61828 16.1799 6.60081 16.1799H6.25077C6.23311 16.1799 6.21945 16.1686 6.21945 16.155C6.22063 16.1377 6.2394 16.1193 6.26954 16.1057C6.30326 16.0909 6.32569 16.0639 6.32569 16.038V15.8723H6.23085V15.8717H6.15321C6.13196 15.8717 6.11695 15.8903 6.09693 15.8903C6.0832 15.8903 6.07191 15.8767 6.07191 15.8594C6.04562 15.9125 5.9893 15.9457 5.92691 15.9457H5.83318C5.80434 15.9457 5.7731 15.9396 5.73933 15.9272C5.77934 16.0343 5.85688 16.1057 5.93313 16.1057C6.05398 16.1057 6.07251 16.0553 6.09091 16.1868L5.72071 16.1799C5.65689 16.1799 5.59556 16.1045 5.57682 16.001C5.55054 15.9099 5.49643 15.9339 5.46271 15.9339C5.44512 15.935 5.4491 15.7998 5.44553 15.8102C5.44553 15.7965 5.47461 15.7992 5.48314 15.7732C5.53895 15.7734 5.64405 15.7773 5.73865 15.7755C5.8385 15.7738 5.81716 15.6525 5.73925 15.656H5.4127V15.5623H7.06935H7.09332H7.1912L7.19084 15.562C7.15082 15.5476 7.11467 15.5207 7.07689 15.4945L6.97063 15.4206C6.90562 15.3763 6.87312 15.3529 6.85055 15.3529C6.82687 15.3517 6.80813 15.3563 6.79432 15.3652C6.75805 15.3849 6.73054 15.3959 6.71312 15.3959C6.69178 15.3948 6.67549 15.3874 6.67549 15.3775C6.67549 15.3541 6.68797 15.3344 6.70693 15.3282L6.81302 15.2789C6.85937 15.2629 6.89068 15.2543 6.9081 15.2543C6.96314 15.2543 7.0019 15.2629 7.0206 15.2789L7.13208 15.3643C7.16138 15.3015 7.24347 15.2543 7.34074 15.2543H7.50954C7.56215 15.2531 7.59973 15.2578 7.62225 15.2666L7.68469 15.2912C7.6972 15.3012 7.70353 15.3122 7.70353 15.322C7.70353 15.3294 7.70117 15.3356 7.69724 15.3404L7.666 15.3897C7.65605 15.4046 7.64475 15.4144 7.63481 15.4144C7.62233 15.4156 7.6086 15.4057 7.5973 15.3897C7.56355 15.3503 7.51077 15.3282 7.45327 15.3282C7.38459 15.327 7.32827 15.3774 7.32827 15.439C7.32863 15.4578 7.33301 15.476 7.33988 15.4919C7.34106 15.4954 7.34284 15.4984 7.35142 15.5011C7.39948 15.5007 7.42318 15.4514 7.46452 15.4514C7.47825 15.4502 7.48955 15.4673 7.48955 15.4883C7.48955 15.5055 7.47054 15.5264 7.43946 15.5437C7.42771 15.5504 7.41545 15.5569 7.4029 15.5619L7.40256 15.5622H7.53358V15.6559H7.39851V16.0439C7.39969 16.0648 7.42094 16.0895 7.45481 16.1054C7.48468 16.1166 7.50475 16.1363 7.50475 16.1548C7.50475 16.1683 7.49101 16.1797 7.47362 16.1797H7.12351C7.10595 16.1797 7.09221 16.1683 7.09221 16.1548C7.09339 16.1375 7.11216 16.1191 7.14222 16.1054C7.164 16.0959 7.1813 16.0812 7.19057 16.065C7.13755 16.0997 7.06446 16.1179 6.97969 16.1179C6.82085 16.1168 6.69218 16.018 6.69218 15.8961C6.691 15.7877 6.80083 15.6989 6.9359 15.6989H7.09135L7.09017 15.6966L7.09007 15.6969ZM7.1983 15.8399C7.17804 15.8307 7.11804 15.8042 7.09831 15.7919C7.07836 15.7796 7.05586 15.7734 7.03575 15.7734H6.99834C6.93963 15.7734 6.89201 15.8287 6.89201 15.8965C6.89201 15.9716 6.96206 16.032 7.0484 16.032C7.10301 16.032 7.15463 16.0177 7.19833 15.991V15.8398L7.1983 15.8399ZM10.5614 15.8596C10.5027 15.8602 10.4551 15.8214 10.4551 15.7734C10.4551 15.7253 10.5027 15.6866 10.5614 15.6871C10.6202 15.6877 10.6676 15.729 10.6676 15.7796C10.6676 15.8239 10.62 15.859 10.5614 15.8596ZM10.5614 16.1801C10.5027 16.1801 10.4551 16.1441 10.4551 16.0999C10.4551 16.0517 10.5001 16.0136 10.5551 16.0136C10.6176 16.0136 10.6676 16.0493 10.6676 16.0937C10.6676 16.1417 10.6202 16.1801 10.5614 16.1801ZM10.0262 15.6564V16.0382C10.0262 16.0641 10.0037 16.0912 9.97001 16.1059C9.93995 16.1195 9.92116 16.1379 9.91993 16.1552C9.91993 16.1688 9.93366 16.1801 9.95125 16.1801H10.3013C10.3188 16.1801 10.3325 16.1688 10.3325 16.1552C10.3325 16.1367 10.3125 16.117 10.2825 16.1059C10.2488 16.09 10.2274 16.0653 10.2263 16.0444V15.6564H10.3613V15.5627H7.83944V15.6564H8.64013V15.7487H8.18147L8.17732 15.8394C8.32954 15.8365 8.33321 16.0265 8.17436 16.0405C8.00605 16.0364 7.99921 15.916 8.04396 15.8803L8.04363 15.8204L7.93874 15.8233C7.78917 15.8786 7.76024 16.0781 7.96799 16.1696C8.0272 16.2089 8.20505 16.2046 8.3155 16.1844C8.3983 16.1587 8.47902 16.1033 8.47902 16.0047C8.47902 15.921 8.46505 15.8448 8.38382 15.8226H8.63994V16.0382C8.63994 16.0641 8.61739 16.0912 8.58366 16.1059C8.55377 16.1196 8.53496 16.1379 8.53373 16.1553C8.53373 16.1688 8.54743 16.1801 8.56502 16.1801H8.91511C8.93253 16.1801 8.94626 16.1688 8.94626 16.1553C8.94626 16.1368 8.92624 16.1171 8.89618 16.1059C8.86245 16.09 8.84125 16.0653 8.84 16.0444V15.6564H9.5822V15.798H9.10624C9.04124 15.798 8.9676 15.87 8.98748 15.962C8.98748 16.0372 9.04625 16.1383 9.11874 16.1383H9.18118C9.19816 16.1823 9.56121 16.1267 9.51532 15.9376C9.51296 15.9258 9.44662 15.9001 9.40357 15.9187C9.38488 15.9268 9.36778 15.9765 9.3474 15.9815C9.30741 15.9915 9.28512 15.9962 9.25798 15.9932C9.17569 15.9847 9.18722 15.8923 9.23088 15.8754L9.5822 15.8719V16.0382C9.5822 16.0641 9.55965 16.0912 9.52592 16.1059C9.49598 16.1195 9.47721 16.1379 9.47596 16.1552C9.47596 16.1688 9.48969 16.1801 9.50728 16.1801H9.85727C9.87479 16.1801 9.88852 16.1688 9.88852 16.1552C9.88852 16.1367 9.86857 16.117 9.83843 16.1059C9.80471 16.09 9.78351 16.0653 9.78216 16.0444V15.6564H10.026H10.0262ZM11.7804 15.798C11.7806 15.7446 11.7807 15.7098 11.7807 15.6564C11.6792 15.6565 11.5775 15.6565 11.4758 15.6564C11.5195 15.681 11.5468 15.7044 11.5457 15.7487C11.5456 15.7574 11.5427 15.7746 11.5395 15.7981H11.7802L11.7804 15.798ZM9.0549 12.3565L9.08027 12.3286C9.07111 12.3053 9.06242 12.2817 9.05382 12.2583L9.05502 12.3565H9.0549ZM8.9656 12.7488C8.93306 12.6857 8.90263 12.6215 8.87409 12.5563L8.96729 12.4534L8.97025 11.9885C8.94515 11.8929 8.92439 11.7957 8.9082 11.6969L8.61404 11.6013C8.60872 11.5568 8.60421 11.5121 8.60055 11.467L8.23169 13.8791H8.95939L8.96594 12.7488H8.9656ZM9.71474 13.3413C9.67472 13.2982 9.63572 13.2538 9.59809 13.2084L9.29507 13.2705C9.21018 13.1595 9.13206 13.0433 9.06104 12.9226L9.07169 13.8791H9.79922L9.71474 13.3413ZM11.2202 12.7817L11.2399 12.7981L11.3027 12.8028H11.3608H11.4067C11.4189 12.7981 11.4285 12.7981 11.4406 12.7981C11.4447 12.7981 11.453 12.7993 11.4609 12.801C11.4633 12.7899 11.4639 12.7793 11.4639 12.7696C11.468 12.7634 11.4727 12.757 11.4793 12.7502C11.5024 12.7455 11.5365 12.7394 11.5358 12.6868C11.5361 12.6364 11.5411 12.4849 11.5526 12.3745C11.5657 12.2483 11.5671 12.1244 11.5877 12.0705L11.5788 12.0515L11.5477 11.834C11.4627 11.8976 11.3931 11.9147 11.3209 11.9152C11.3191 11.941 11.3197 11.9596 11.3256 11.9664C11.353 12.0141 11.3597 12.0784 11.3695 12.1484C11.3896 12.2916 11.3554 12.5054 11.3548 12.6139C11.3488 12.6484 11.3058 12.6631 11.2542 12.7295L11.2273 12.7711C11.2249 12.7746 11.2225 12.7783 11.2202 12.7817V12.7817ZM8.20112 13.9846H9.82504V14.088C9.82504 14.1449 9.7778 14.1913 9.72001 14.1913H8.30611C8.24822 14.1913 8.20112 14.1449 8.20112 14.088V13.9846ZM12.0206 18.3049C10.4846 18.2862 9.06141 17.7917 7.89601 16.9646H7.53746C8.77925 17.92 10.3339 18.4971 12.0204 18.5172L12.0206 18.3049ZM12.0206 17.9805C10.7274 17.9639 9.51821 17.5939 8.48793 16.9646H8.26255C9.34561 17.6669 10.6357 18.0828 12.0204 18.1002L12.0206 17.9805ZM12.0204 15.6564H11.9809V16.0444C11.9647 16.1286 11.9911 16.1651 12.0206 16.1794L12.0204 15.6564H12.0204ZM12.0204 15.0798H4.83125V16.6722H12.0204V16.4881H11.6657C11.6546 16.4881 11.6438 16.4878 11.6331 16.4875C11.6333 16.4446 11.6333 16.4016 11.6331 16.3587C11.6482 16.361 11.6527 16.3588 11.6676 16.3588L11.7096 16.4092L11.8783 16.4144C11.9469 16.4144 12.0033 16.3812 12.0033 16.3406C12.0021 16.2999 11.9495 16.2458 11.8845 16.2458H11.8469C11.7469 16.2458 11.7881 16.2532 11.7806 16.2289C11.7807 16.1655 11.7808 16.1019 11.7808 16.0385C11.7808 15.9837 11.7807 15.9288 11.7806 15.8739C11.7232 15.8733 11.6658 15.8727 11.6084 15.8721C11.5872 15.8721 11.5722 15.8907 11.552 15.8907C11.5383 15.8907 11.5272 15.8772 11.5272 15.8599C11.5008 15.9129 11.4446 15.9462 11.382 15.9462C11.3507 15.946 11.3196 15.946 11.2883 15.9462C11.2595 15.9462 11.2282 15.94 11.1945 15.9276C11.2345 16.0348 11.312 16.1061 11.3883 16.1061H11.5483C11.5781 16.1056 11.6097 16.0916 11.6403 16.0665V16.1804C11.5593 16.2175 11.4782 16.2151 11.3972 16.2151C11.3234 16.2151 11.2433 16.2051 11.1758 16.1804C11.0869 16.1433 11.0507 16.1049 11.032 16.0015C11.0057 15.9103 10.9727 15.9273 10.9389 15.9273C10.9215 15.9284 10.9112 15.9391 10.9112 15.9182L10.9136 15.7805C11.1123 15.7758 11.1218 15.7828 11.234 15.7828C11.2889 15.784 11.3552 15.7717 11.3552 15.7101C11.354 15.6461 11.302 15.6568 11.2508 15.6568C11.1232 15.6569 10.9956 15.6569 10.8681 15.6568V15.5631H12.0204V15.0802V15.0798ZM9.25742 11.176C9.44978 11.8218 9.79163 12.6428 10.2723 12.9578L10.7462 12.9658C10.8414 12.9669 10.9831 12.9305 11.0864 12.927C11.0912 12.9269 11.0951 12.9273 11.0985 12.9281L11.0723 12.9686C11.1273 12.969 11.1463 12.9398 11.1461 12.9938C11.1718 13.0186 11.3325 12.9914 11.3942 12.9686C11.4081 12.9698 11.4359 12.968 11.4286 12.9727C11.3606 13.0163 11.2521 13.0913 11.1505 13.0902C10.9685 13.0879 10.8103 13.1538 10.7407 13.2256C10.8219 13.1962 10.938 13.1785 11.0277 13.1705C11.1525 13.178 11.3156 13.0606 11.4117 13.0045L11.3816 13.0653C11.3857 13.0729 11.4431 13.0742 11.4702 13.0656C11.472 13.0768 11.4566 13.0794 11.4591 13.0959C11.4844 13.1128 11.5455 13.1116 11.6025 13.0993C11.6072 13.1095 11.6095 13.1127 11.6129 13.097C11.6652 13.0844 11.7119 13.0629 11.721 13.0376C11.7333 13.0039 11.759 12.9447 11.7666 12.8948C11.8414 12.8977 11.93 12.896 12.0207 12.8942L12.0206 11.6973C11.9316 11.8806 11.8747 12.123 11.9009 12.1423C11.8769 12.1909 11.8686 12.3327 11.8545 12.4661C11.8431 12.5766 11.8235 12.6805 11.8231 12.7309C11.8235 12.7835 11.8119 12.8236 11.7887 12.8284C11.7788 12.8388 11.7723 12.8483 11.7682 12.8571C11.7679 12.8548 11.7678 12.8524 11.7676 12.8497C11.6607 12.8753 11.5444 12.9161 11.506 12.8766C11.5013 12.8742 11.5037 12.8657 11.5042 12.859L11.5407 12.8062C11.5895 12.7779 11.6298 12.7211 11.6358 12.6865C11.6362 12.5782 11.6939 12.3624 11.6739 12.2191C11.6639 12.1491 11.6382 12.0867 11.6108 12.0391C11.5821 12.0055 11.6834 11.7015 11.5355 11.6607C11.5157 11.8084 11.4908 11.7647 11.4553 11.8102C11.3766 11.8327 11.2978 11.8599 11.2241 11.8079C11.1857 11.8225 11.1061 11.6799 11.1099 11.6568C11.1105 11.5638 11.1117 11.4757 11.1123 11.3877C11.0669 11.4081 11.0161 11.5437 10.9949 11.5781C10.8226 11.6488 10.7652 11.5063 10.7661 11.3071C10.7088 11.3643 10.6608 11.4744 10.5715 11.3469C10.5949 11.2907 10.565 11.2404 10.5269 11.1961C10.5478 11.1963 10.5654 11.1889 10.5802 11.1761H10.0943C10.0913 11.1763 10.0881 11.1764 10.0849 11.1767C10.0405 11.2331 10.0311 11.3206 10.0078 11.391C9.97278 11.4421 9.85636 11.4444 9.80288 11.4102C9.79122 11.3777 9.85489 11.3403 9.84323 11.3079C9.80481 11.3286 9.80825 11.3702 9.78373 11.4014C9.76718 11.3979 9.72302 11.4037 9.70671 11.3633C9.5675 11.4294 9.51523 11.3224 9.48273 11.2077C9.48745 11.1977 9.49278 11.187 9.49887 11.176L9.25771 11.1758L9.25742 11.176ZM8.54531 11.176L8.10431 13.8778H8.10421C8.07232 13.8778 8.0462 13.9035 8.0462 13.9349C8.0462 13.965 8.0701 13.9897 8.10012 13.9919V14.088C8.10012 14.1896 8.17694 14.2727 8.27062 14.2727H9.75547C9.84928 14.2727 9.92605 14.1896 9.92605 14.088V13.9892C9.94949 13.982 9.96654 13.9604 9.96654 13.935C9.96654 13.908 9.94729 13.8853 9.92169 13.8793L9.84831 13.4773C9.91786 13.5441 9.99049 13.6081 10.0658 13.6687L10.0026 13.9678C10.2254 14.1327 10.4684 14.2724 10.7275 14.3823L10.9586 14.1791C11.1632 14.2564 11.3777 14.314 11.5996 14.3491L11.6966 14.6388C11.8033 14.6512 11.9113 14.6595 12.0206 14.6625L12.0203 14.0169C10.4749 13.9664 9.23068 12.7102 9.22859 11.176H8.54531ZM4.66022 11.176C4.66022 12.4919 5.01498 13.7289 5.63473 14.799H4.44312V15.5679H3.05227L3.685 16.5852L2.94531 17.4171H5.76672V16.9507H9.29153C9.27679 16.9671 9.18494 17.005 9.20727 17.0109C9.35359 17.0499 9.50436 17.081 9.62691 17.0807C9.6146 17.1263 9.51614 17.1708 9.50386 17.2166C9.64676 17.2344 9.89367 17.2504 10.0743 17.2421C10.0528 17.317 9.99858 17.2819 9.92634 17.3368C10.0664 17.3365 10.1853 17.35 10.3379 17.323C10.3163 17.3752 10.2716 17.3973 10.2501 17.4495C10.4193 17.4364 10.5891 17.4536 10.7393 17.4003C10.7301 17.4361 10.6653 17.4871 10.656 17.5229C11.2062 17.4935 11.434 17.5107 11.7809 17.2561C11.836 17.303 11.8914 17.3405 11.9449 17.3732C11.7759 17.4808 11.63 17.5837 11.6172 17.7037C11.6603 17.7329 11.7438 17.7072 11.7869 17.7367C11.8209 17.6247 11.9092 17.5446 12.0206 17.4708V17.3031C11.8559 17.1999 11.7089 17.0883 11.6893 16.9508H12.0204V16.8022H4.68281V14.9499H12.0204V14.799H8.81051C8.64687 14.7984 8.48326 14.7973 8.31962 14.7967C8.23434 14.71 8.15215 14.6204 8.07316 14.5281V14.5258C8.07258 14.5258 8.07198 14.5257 8.0708 14.5257C7.29517 13.6192 6.82658 12.4501 6.82658 11.1763H6.68746C6.68746 12.5722 7.23579 13.8456 8.13066 14.7992H7.77026C7.8037 14.7175 7.7402 14.5957 7.71127 14.509L7.55851 14.6598C7.58427 14.5232 7.58573 14.4256 7.5204 14.3023L7.48543 14.1549L7.39699 14.1807C7.44334 14.0241 7.21984 13.9021 7.19086 13.7273L7.05634 13.9403C6.97907 13.8161 6.86141 13.7715 6.69373 13.6707C6.63904 13.8903 6.58393 14.0181 6.73629 14.1478C6.55104 14.1668 6.4795 14.1157 6.29955 14.1963L6.40492 14.3254C6.44589 14.4097 6.59421 14.48 6.67299 14.5344L6.43106 14.5482L6.64314 14.6909C6.69505 14.7374 6.75159 14.7726 6.81184 14.7992H6.26937C5.59546 13.749 5.20447 12.5062 5.20447 11.1763H5.08315C5.08315 12.5029 5.46553 13.7441 6.12661 14.7992H5.88369C5.24373 13.7363 4.87524 12.4975 4.87524 11.1763" fill="currentColor"/>
<path fill-rule="evenodd" clip-rule="evenodd" d="M5.56705 10.974L5.86381 10.9769L5.86441 10.8825C5.86499 10.8192 5.86145 10.7762 5.85239 10.7533C5.8437 10.7307 5.82746 10.7117 5.80404 10.6971C5.78065 10.6822 5.75196 10.6747 5.71756 10.6743C5.68299 10.674 5.65344 10.6811 5.62964 10.6957C5.60559 10.7106 5.58962 10.7289 5.58102 10.7508C5.57269 10.7728 5.56838 10.8195 5.56765 10.8907L5.56705 10.9737V10.974ZM6.43444 11.1533L5.38819 11.1423L5.39115 10.8678C5.39233 10.7657 5.39802 10.699 5.40845 10.6677C5.42495 10.6177 5.46012 10.5768 5.51295 10.5447C5.56616 10.5126 5.63429 10.497 5.71768 10.4978C5.79337 10.4984 5.8567 10.5134 5.90746 10.5421C5.95824 10.5707 5.99368 10.6063 6.01403 10.6488C6.03434 10.691 6.04393 10.7639 6.04275 10.8671L6.04157 10.9789L6.43605 10.983L6.43427 11.1531L6.43444 11.1533ZM5.92293 10.2977C6.03542 10.3262 6.12518 10.3264 6.19241 10.2988C6.25965 10.2709 6.30149 10.226 6.3178 10.1637C6.33408 10.1011 6.31958 10.0422 6.27458 9.98674C6.22956 9.93141 6.14934 9.8892 6.03366 9.85996C5.9203 9.8312 5.83124 9.82987 5.76632 9.85647C5.70171 9.8827 5.66098 9.92825 5.64407 9.9932C5.62701 10.058 5.6405 10.1178 5.68466 10.1723C5.72881 10.2271 5.80821 10.2689 5.9229 10.298L5.92293 10.2977ZM5.88665 10.4635C5.7701 10.434 5.67873 10.3929 5.61224 10.3396C5.54573 10.2867 5.50109 10.228 5.4785 10.1639C5.45586 10.0998 5.45484 10.0287 5.47496 9.95061C5.50449 9.8376 5.57221 9.75664 5.67847 9.70757C5.7847 9.65876 5.91893 9.6546 6.08071 9.69581C6.24421 9.73718 6.36224 9.8073 6.43458 9.90604C6.49876 9.99296 6.51591 10.0929 6.48621 10.2064C6.45639 10.3209 6.3925 10.4008 6.29487 10.4466C6.18307 10.4987 6.04691 10.5043 5.88636 10.4635H5.88665ZM6.59396 9.75652L5.60463 9.42083L5.72334 9.08105C5.75365 8.99414 5.78443 8.95511 5.8151 8.92392C5.84594 8.89272 5.88751 8.87253 5.93962 8.86348C5.99199 8.85439 6.04855 8.86054 6.10964 8.88106C6.18707 8.90732 6.24324 8.94661 6.27759 8.99932C6.31209 9.05205 6.32351 9.09394 6.31209 9.16527C6.3495 9.13937 6.36104 9.12367 6.39867 9.11138C6.43661 9.099 6.5031 9.1143 6.59399 9.12817L6.76904 9.15522L6.70562 9.35637L6.5123 9.31091C6.45085 9.29641 6.33466 9.29542 6.28817 9.34478C6.27492 9.3589 6.26179 9.3848 6.24881 9.42201L6.23722 9.45538L6.65026 9.59548L6.59408 9.75647L6.59396 9.75652ZM6.07915 9.40188L6.12092 9.28196C6.14655 9.20892 6.15773 9.19418 6.15826 9.17206C6.15862 9.14985 6.15141 9.12913 6.13578 9.11005C6.12046 9.0911 6.09606 9.0757 6.06329 9.06462C6.03186 9.05402 6.00418 9.05169 5.98086 9.05752C5.95732 9.06347 5.93844 9.07587 5.92382 9.09471C5.91351 9.10801 5.89766 9.1182 5.87255 9.19037L5.82828 9.31677L6.07917 9.40188H6.07915ZM6.70364 8.45345L6.30544 8.40838L6.59372 8.66599L6.70364 8.4535V8.45345ZM7.21884 8.32604L7.13038 8.49698L6.88527 8.47195L6.72445 8.78297L6.90127 8.94013L6.81479 9.10743L6.04773 8.39436L6.13383 8.22792L7.21884 8.32604ZM7.23517 8.31016L6.50613 7.84372L6.3674 8.05429L6.21886 7.95928L6.59003 7.39599L6.73857 7.491L6.60022 7.70099L7.32924 8.16744L7.23517 8.31016ZM7.47756 7.94357L6.63099 7.33763L6.7326 7.19993L7.57898 7.80588L7.47756 7.94357ZM7.3245 7.26789C7.41269 7.33883 7.49324 7.37653 7.56652 7.38101C7.63973 7.38568 7.69788 7.36492 7.74108 7.319C7.78434 7.27292 7.79826 7.21708 7.78299 7.15146C7.76777 7.08582 7.71477 7.0168 7.62415 6.94379C7.53518 6.87224 7.45571 6.83418 7.38515 6.82931C7.31515 6.82464 7.25746 6.84613 7.21272 6.89387C7.1678 6.94164 7.1526 6.99796 7.16743 7.0624C7.18218 7.12706 7.23452 7.19547 7.3245 7.26789ZM7.21605 7.39298C7.12465 7.31946 7.0611 7.24659 7.02564 7.17396C6.98982 7.10143 6.97657 7.03326 6.98544 6.96966C6.9945 6.90597 7.02586 6.84541 7.07997 6.78798C7.15814 6.7047 7.25604 6.66445 7.37417 6.66724C7.49218 6.67016 7.6147 6.72257 7.74153 6.82471C7.86976 6.92796 7.9441 7.03641 7.9641 7.15004C7.98221 7.25023 7.95179 7.34187 7.8733 7.4255C7.79417 7.50975 7.7002 7.55072 7.59138 7.54877C7.46704 7.54643 7.34191 7.49442 7.21605 7.39298ZM8.18278 7.13166L7.5102 6.34182L7.63937 6.2351L8.35736 6.5401L7.90828 6.0128L8.03176 5.91064L8.70439 6.70034L8.57091 6.81069L7.86764 6.51442L8.30631 7.0295L8.18278 7.13166ZM8.98628 5.97255L9.12184 6.21347L9.26254 6.13669C9.32399 6.10309 9.36179 6.07845 9.37564 6.06262C9.38949 6.04679 9.39725 6.02612 9.39862 6.00085C9.3998 5.97583 9.39263 5.94899 9.37649 5.92023C9.35979 5.89072 9.33989 5.87005 9.31645 5.85771C9.29304 5.8456 9.26876 5.84162 9.24385 5.84584C9.21875 5.84991 9.17368 5.87017 9.10892 5.90556L8.98636 5.97253L8.98628 5.97255ZM8.78461 5.61393L8.9019 5.8224L9.00175 5.76776C9.06159 5.7351 9.09818 5.71371 9.11128 5.70395C9.13465 5.68581 9.14886 5.66418 9.15371 5.63881C9.15845 5.61342 9.15253 5.5857 9.1353 5.55561C9.12039 5.52901 9.10247 5.51054 9.0812 5.50052C9.0599 5.49037 9.03991 5.48797 9.02064 5.49286C9.00163 5.49811 8.95205 5.52239 8.8722 5.56602L8.78461 5.61388V5.61393ZM8.54906 5.54633L8.84948 5.38219C8.93131 5.33758 8.99317 5.31327 9.03487 5.31014C9.07631 5.30664 9.11914 5.31727 9.1632 5.34218C9.20682 5.36684 9.24219 5.40298 9.26871 5.45C9.29309 5.49339 9.30533 5.538 9.30545 5.58382C9.30561 5.62964 9.29492 5.66938 9.27319 5.70323C9.32648 5.69444 9.37622 5.70207 9.42262 5.72623C9.46913 5.74996 9.50763 5.78908 9.53805 5.84324C9.57481 5.90874 9.59004 5.97327 9.58346 6.03576C9.57696 6.09863 9.55475 6.14725 9.5171 6.18181C9.49081 6.20586 9.42238 6.24804 9.31185 6.30848L9.05636 6.44812L8.54906 5.54636V5.54633ZM10 5.53583L9.75076 5.22024L9.7816 5.61851L10.0001 5.53583H10ZM10.4462 5.80392L10.2703 5.87053L10.1151 5.67825L9.7953 5.79923L9.81455 6.04291L9.64255 6.10796L9.57942 5.02745L9.75064 4.96277L10.4462 5.80392ZM10.5165 5.77598L10.3254 4.76244L10.4911 4.73211L10.9638 5.34567L10.8362 4.66892L10.9948 4.63987L11.1859 5.65344L11.0146 5.68468L10.5503 5.08586L10.6751 5.74695L10.5165 5.77591V5.77598ZM9.49953 10.7135C9.50751 10.7406 9.50189 10.7176 9.50703 10.7411C9.52579 10.8239 9.53184 10.8301 9.50999 10.9222C9.48828 11.0143 9.51929 11.0051 9.45408 11.0849C9.38882 11.1647 9.36403 11.1707 9.36403 11.1707C9.36403 11.1707 9.39222 11.1513 9.3484 11.0818C9.32657 11.047 9.28179 10.8347 9.33686 10.6721L9.49937 10.7135H9.49953ZM11.213 8.4804L11.0965 8.82927L10.5804 8.87605L10.7102 8.68709C10.8278 8.62241 10.9556 8.56549 11.077 8.51714C11.0862 8.51362 11.2039 8.48402 11.213 8.4804ZM9.80032 10.6539C9.82204 10.6218 9.80092 10.585 9.8469 10.5415C9.86495 10.519 9.93143 10.4862 9.97484 10.5046C9.95413 10.5494 9.9707 10.596 9.93389 10.6357C9.88863 10.6724 9.83117 10.6387 9.80029 10.6539H9.80032ZM9.0876 9.41031C9.08999 9.40624 9.09295 9.40161 9.0956 9.39725L9.09206 9.37511L9.08732 9.41023L9.0876 9.41031ZM9.03104 10.1849C9.04648 10.139 9.06294 10.0935 9.0804 10.0484L9.02885 9.99149L9.03121 10.1849L9.03104 10.1849ZM8.94333 9.3252C8.93798 9.32462 8.93302 9.32404 8.92799 9.32289L8.7106 10.7442L8.90811 10.6801C8.92616 10.5695 8.94988 10.4608 8.97927 10.3543L8.98163 9.93948L8.87444 9.82101C8.90224 9.75707 8.9322 9.69396 8.96386 9.63207L8.94333 9.32529V9.3252ZM9.20473 9.23009L9.16496 9.22891C9.14419 9.25806 9.11649 9.28213 9.08462 9.29918L9.10114 9.38834C9.13422 9.33457 9.16883 9.28176 9.20475 9.23004L9.20473 9.23009ZM12.0204 4.56252L11.7913 4.57035L11.4571 5.03993L11.4409 4.58242L11.2683 4.58832L11.3048 5.6187L11.4775 5.6127L11.4664 5.30135L11.6007 5.12426L11.854 5.59979L12.0204 5.59396V5.49375L11.7156 4.97472L12.0204 4.56787V4.56259L12.0204 4.56252ZM8.54525 11.1751L8.8523 9.29391C8.78372 9.25315 8.73799 9.17881 8.73824 9.09483C8.7386 8.9673 8.84471 8.86336 8.97424 8.86384C9.04723 8.86408 9.11261 8.89751 9.15566 8.94976L9.84324 8.90392C9.91426 8.83524 9.9885 8.76974 10.0657 8.70762L10.0027 8.40941C10.2256 8.24418 10.4687 8.10442 10.7276 7.99454L10.9585 8.19767C11.1632 8.12041 11.3777 8.06322 11.5995 8.02793L11.6947 7.74327C11.7828 7.70892 11.8926 7.68702 12.0208 7.68001L12.0206 8.50057C12.0129 8.56874 12.0086 8.64609 12.0086 8.72804C12.0086 8.79198 12.011 8.85314 12.0158 8.90937C11.0427 8.92546 10.0698 8.96981 9.09654 9.04039C9.07525 8.99455 9.02835 8.96183 8.9739 8.96174C8.89906 8.96147 8.83782 9.02141 8.8377 9.09488C8.83736 9.16864 8.89807 9.22896 8.97289 9.2292C9.02591 9.22944 9.07202 9.19899 9.09433 9.15501C10.0729 9.16744 11.048 9.16794 12.0205 9.15616L12.0206 9.2624C11.8283 9.25833 11.6383 9.25406 11.4383 9.24999C11.3748 9.28865 11.3562 9.33835 11.2358 9.43358C11.2364 9.4011 11.1987 9.35767 11.1767 9.36769C11.0976 9.40363 10.993 9.43707 10.9094 9.52687C10.9402 9.42259 10.9403 9.34076 10.9668 9.24746C10.6718 9.25211 10.3366 9.25153 10.0212 9.22482C10.0183 9.22515 10.0151 9.2254 10.012 9.226C9.72434 9.52805 9.50252 9.89176 9.36943 10.2944C9.36097 10.3323 9.34213 10.3657 9.34693 10.4092C9.40127 10.3286 9.45955 10.282 9.55217 10.2353C9.52714 10.1873 9.55039 10.073 9.5765 10.0052C9.6361 9.81975 9.77314 9.70222 9.88367 9.63769C9.84194 9.75132 9.76329 9.89636 9.82368 10.0203C9.88829 10.0471 9.96058 10.0588 10.0251 10.0858H10.0965C10.1388 9.95294 10.148 9.81648 10.0786 9.65414C10.3079 9.70889 10.3679 9.86726 10.3831 10.1034C10.4409 10.0932 10.5176 10.0643 10.5755 10.0543C10.6127 10.047 10.646 10.1435 10.6922 10.0853C10.7363 10.0299 10.8038 10.0575 10.8861 10.0528C11.0072 10.0458 11.0871 9.99151 11.1866 9.93628C11.4157 9.80911 11.5727 9.59505 11.7392 9.59869C11.8339 9.58428 11.9025 9.74457 12.0206 9.85712L12.0207 9.9607C11.9056 9.86617 11.8313 9.72752 11.7603 9.70651C11.5332 9.63964 11.291 10.1547 10.7162 10.1494C10.7204 10.2018 10.7003 10.2883 10.6549 10.3033C10.7375 10.3068 10.9148 10.4279 10.9346 10.5144C10.8428 10.6682 10.7558 10.5704 10.7344 10.7006C10.658 10.7275 10.6836 11.0859 10.5799 11.1754H10.094C10.1767 11.1691 10.2532 11.1679 10.3262 11.1347C10.4549 10.9726 10.5775 10.8252 10.6132 10.6819C10.5203 10.6486 10.4151 10.5877 10.4066 10.5366C10.556 10.5929 10.7263 10.5456 10.8477 10.5052C10.8055 10.399 10.6444 10.3163 10.4347 10.3672C10.4919 10.3336 10.549 10.3004 10.6062 10.2669C10.6115 10.1655 10.5755 10.1147 10.4978 10.1147C10.3644 10.2093 10.2373 10.2717 10.1231 10.2186C10.095 10.2062 10.0658 10.1412 10.0359 10.1453C9.88831 10.1654 9.86993 10.0993 9.80812 10.0663C9.69391 10.1241 9.5819 10.213 9.55248 10.3256C9.5455 10.3971 9.54892 10.4131 9.5349 10.4812C9.5223 10.5588 9.55952 10.6236 9.59437 10.6921C9.59676 10.8154 9.58149 10.9421 9.5665 11.0551C9.55012 11.0912 9.52064 11.1357 9.49857 11.1755L9.25741 11.1753C9.24799 11.1435 9.23877 11.1121 9.23005 11.0811C9.22947 11.1111 9.22887 11.1413 9.22887 11.1715V11.175H8.54559L8.54525 11.1751ZM6.68769 11.1751C6.68769 8.26172 9.07472 5.88019 12.02 5.83199L12.0204 5.99541C11.6032 6.00252 11.1973 6.05739 10.8084 6.15459C10.7868 6.15447 10.7658 6.15433 10.7483 6.15433V6.16994C10.7233 6.17647 10.6981 6.18324 10.6731 6.19029C10.6454 6.19015 10.6178 6.18993 10.5904 6.18993C10.5903 6.19728 10.5903 6.20475 10.5903 6.21407C10.577 6.21814 10.5638 6.22207 10.5507 6.22602C10.5242 6.22592 10.4992 6.22568 10.4743 6.22568V6.25001C10.4569 6.25587 10.4395 6.26121 10.4221 6.26704C10.4003 6.2669 10.3793 6.26668 10.3584 6.26668V6.2886C10.3448 6.29328 10.3312 6.29802 10.3177 6.30274C10.2949 6.30262 10.2735 6.30248 10.252 6.30238C10.249 6.30354 10.2456 6.30474 10.2425 6.3059C10.2424 6.3132 10.2424 6.32067 10.2424 6.33011C10.2348 6.33302 10.2273 6.33591 10.2197 6.33854C10.2009 6.33854 10.1822 6.33847 10.1635 6.33835C10.1633 6.34423 10.1633 6.35186 10.1633 6.3602C10.147 6.3666 10.1308 6.37301 10.1146 6.37956C10.0948 6.37942 10.0756 6.3793 10.0567 6.3792C10.0538 6.38036 10.0506 6.38212 10.0474 6.3833C10.0474 6.39028 10.0474 6.3978 10.0473 6.40707C10.0407 6.40999 10.034 6.41235 10.0274 6.41543C10.0213 6.41531 10.0159 6.41529 10.0105 6.41529C10.0104 6.41763 10.0105 6.41996 10.0105 6.42242C9.98816 6.43198 9.9661 6.44155 9.94401 6.45128C9.92719 6.45118 9.91081 6.45092 9.89446 6.45092V6.47354C9.13345 6.819 8.46805 7.33599 7.94988 7.97388C7.95 7.97327 7.94988 7.9727 7.94988 7.97212C7.92876 7.99871 7.9078 8.02555 7.88723 8.0525C7.85945 8.08806 7.83226 8.12383 7.8054 8.15997L7.80776 8.15961C7.19083 9.01158 6.827 10.0529 6.827 11.1755H6.68786L6.68769 11.1751ZM5.08336 11.1751C5.08336 7.39106 8.19099 4.29925 12.02 4.25102V4.37055C8.25787 4.41878 5.2047 7.45694 5.2047 11.1751H5.08336ZM4.66016 11.1751C4.66016 7.16139 7.95781 3.88233 12.02 3.83398V4.04614C8.07657 4.09437 4.87544 7.27827 4.87544 11.1751" fill="currentColor"/>
<path fill-rule="evenodd" clip-rule="evenodd" d="M18.8986 11.951C18.9046 11.9 18.8616 11.8508 18.8099 11.8449C18.7564 11.8387 18.7014 11.8749 18.6952 11.9277C18.689 11.9805 18.7342 12.0263 18.7877 12.0325C18.8395 12.0384 18.8924 12.002 18.8986 11.951ZM18.2414 11.6472L17.9952 11.6375L17.9746 11.6055L18.3165 11.3519C18.3161 11.3613 18.3263 11.4184 18.3054 11.5121C18.2957 11.5559 18.2547 11.6245 18.2414 11.6473L18.2414 11.6472ZM13.2235 16.9514H12.6688C12.6566 16.9623 12.6445 16.9731 12.6323 16.9842C12.59 17.0257 12.5477 17.0674 12.5055 17.1091C12.6026 17.1856 12.7177 17.2586 12.8963 17.3192C12.9968 17.3468 13.0787 17.3504 13.1754 17.3742C13.0692 17.1849 13.0646 17.1909 12.8759 17.1241C13.0411 17.1206 13.0709 17.1471 13.1855 17.0342C13.1982 17.0065 13.2108 16.9789 13.2234 16.9514H13.2235ZM14.0078 16.9991C14.0823 16.9924 14.1019 16.9917 14.1764 16.9851C14.244 17.0334 14.3665 17.0757 14.4341 17.124C14.357 17.166 14.2687 17.1751 14.1753 17.1691C14.0585 17.1364 14.0027 17.0797 14.0078 16.9991ZM13.621 17.011C13.7023 17.0044 13.7743 17.0308 13.8556 17.0241C13.8945 17.0657 13.9699 17.1104 14.0088 17.1521C13.9242 17.1785 13.8012 17.1967 13.7084 17.1991C13.6488 17.1908 13.5943 17.1574 13.551 17.069C13.5712 17.0607 13.6007 17.0194 13.621 17.011ZM13.1805 17.154C13.1994 17.2401 13.267 17.3101 13.3836 17.3641C13.4726 17.3855 13.5563 17.3848 13.6372 17.3741C13.5866 17.3324 13.5358 17.2907 13.485 17.2491C13.5239 17.2391 13.563 17.2291 13.6018 17.2191C13.5375 17.1658 13.4732 17.1125 13.409 17.059C13.2962 17.0668 13.2201 17.0984 13.1805 17.1541V17.154ZM16.9752 14.7996H17.148C17.3685 14.7852 17.4579 14.7168 17.5838 14.5912C17.4848 14.5509 17.4218 14.5532 17.3227 14.5545C17.36 14.4605 17.37 14.3666 17.3675 14.2728C17.3302 14.3039 17.273 14.3374 17.2358 14.3683C17.2291 14.3218 17.2424 14.2728 17.2358 14.2263C17.1274 14.2791 17.0385 14.3749 16.9972 14.5129C16.9565 14.4394 16.9222 14.3661 16.858 14.285C16.7294 14.3919 16.6859 14.7662 16.9752 14.7996H16.9752ZM17.5043 13.8196C17.3886 13.8698 17.2801 13.9409 17.191 14.0695C17.1819 14.0099 17.1561 13.9601 17.114 13.9201C16.9898 14.0694 16.8725 14.1639 17.0245 14.3413C17.1158 14.2432 17.2173 14.1578 17.3551 14.1184C17.3717 14.1422 17.3883 14.1658 17.4048 14.1895C17.5296 14.1067 17.5716 13.9874 17.5043 13.8196H17.5043ZM17.4247 14.2263C17.4032 14.3113 17.3891 14.4205 17.3675 14.5055C17.4142 14.4756 17.496 14.512 17.5416 14.5055C17.6725 14.4715 17.7561 14.3834 17.8075 14.2581C17.6776 14.1975 17.5504 14.1767 17.4273 14.214L17.4249 14.2262L17.4247 14.2263ZM19.7066 16.9513H19.6949L18.9226 17.2172H20.6733L20.6304 17.1463L20.5518 17.0506H19.8824V16.8812H20.4126L20.2894 16.7313H19.8824V16.5619H20.1837L20.2698 16.412H19.8824V16.2425H20.3672L20.4533 16.0926H19.8824V15.9231H20.5507L20.6304 15.7844V15.7732H19.8824H19.7168H19.7066V16.9513L19.7066 16.9513ZM16.2481 15.9218V15.9854C16.2139 15.968 16.1913 15.9493 16.1935 15.9218H16.2481ZM13.9211 15.8424L13.8805 15.8224L13.8681 15.8139C13.8618 15.8116 13.8567 15.8087 13.8525 15.8047C13.8285 15.7839 13.7924 15.774 13.7524 15.774C13.6874 15.774 13.6337 15.8293 13.6337 15.8971C13.6337 15.9759 13.7037 16.0388 13.7899 16.0388C13.8378 16.0388 13.8826 16.0272 13.9211 16.0055V15.8423V15.8424ZM13.8993 15.5628C13.9265 15.4864 13.9163 15.4406 13.7011 15.4406H12.5763C12.3786 15.4253 12.4553 15.5477 12.4327 15.5633H13.8987H13.8969C13.8975 15.563 13.8987 15.563 13.8993 15.563V15.5628ZM16.6746 15.9228L16.4449 15.9216V16.1064C16.4449 16.1409 16.4087 16.168 16.3636 16.168C16.3086 16.168 16.2398 16.1249 16.1762 16.051C16.1237 15.9882 16.0949 15.9364 16.0949 15.9032C16.0949 15.8723 16.1199 15.8477 16.1512 15.8477H16.2449V15.6629C16.2449 15.642 16.2336 15.6445 16.2199 15.6445C16.2124 15.6445 16.2061 15.6468 16.2011 15.6507C16.2124 15.6519 16.2199 15.6472 16.2199 15.6629C16.2199 15.6863 16.1949 15.706 16.1637 15.706C16.1187 15.706 16.0823 15.6888 16.0823 15.6445C16.0836 15.5754 16.1498 15.5015 16.2324 15.5015C16.3499 15.5026 16.445 15.5803 16.445 15.6752V15.8477L16.6745 15.8488L16.6733 15.5634H18.7495V15.6571H18.6144V16.0513C18.6144 16.0636 18.6308 16.0821 18.6582 16.1006C18.6857 16.1166 18.702 16.1351 18.702 16.1498C18.702 16.1651 18.6913 16.1774 18.6769 16.1801L18.6775 16.1807H18.6695C18.7559 16.1807 18.8048 16.2496 18.8048 16.3347C18.8048 16.4197 18.6989 16.4887 18.5986 16.4887H18.2788C18.2692 16.4887 18.2599 16.4885 18.2507 16.4881V16.4117C18.2642 16.4141 18.2777 16.4147 18.2914 16.4147H18.4913C18.5601 16.4147 18.6164 16.3814 18.6164 16.3408C18.6152 16.3001 18.5627 16.2668 18.4976 16.2668H18.4601C18.4226 16.2668 18.3964 16.3038 18.3601 16.3038C18.3226 16.3026 18.2914 16.2619 18.2914 16.2113C18.2914 16.1942 18.3051 16.1806 18.3226 16.1806H18.363L18.3648 16.1794C18.3488 16.1759 18.3377 16.1639 18.3377 16.1496C18.3377 16.1384 18.3515 16.1237 18.3752 16.1003C18.3953 16.0843 18.4064 16.0658 18.4064 16.0511V15.823H18.147C18.0707 15.823 18.0095 15.8921 18.0095 15.9771C18.0083 16.0485 18.0595 16.1064 18.122 16.1064C18.1595 16.1064 18.1908 16.0757 18.2282 16.0757C18.2458 16.0757 18.2595 16.0867 18.2595 16.1003C18.2607 16.1077 18.2559 16.12 18.247 16.1372L18.2282 16.1807H18.0595C17.9281 16.1807 17.8219 16.0781 17.8219 15.9524C17.8219 15.924 17.8272 15.897 17.8365 15.8724L17.885 15.7985C17.9166 15.7679 17.9581 15.7492 18.0032 15.7492H18.4064V15.6569H17.672V16.0449C17.6732 16.0658 17.6945 16.0905 17.7281 16.1064C17.7582 16.1175 17.7782 16.1372 17.7782 16.1557C17.7782 16.1693 17.7645 16.1807 17.7471 16.1807H17.397C17.3794 16.1807 17.3657 16.1693 17.3657 16.1557C17.3669 16.1384 17.3856 16.12 17.4156 16.1064C17.4387 16.0964 17.4565 16.0805 17.4655 16.0631C17.4193 16.096 17.3266 16.1191 17.2531 16.1189C17.0943 16.1183 16.9655 16.019 16.9655 15.8971C16.9661 15.7887 17.0845 15.6999 17.2094 15.6999H17.3782C17.3883 15.6995 17.3979 15.7028 17.4062 15.709L17.4719 15.7257V15.6569H16.8733V16.0449C16.8745 16.0658 16.8958 16.0905 16.9295 16.1064C16.9595 16.1176 16.9796 16.1373 16.9796 16.1558C16.9796 16.1693 16.9658 16.1807 16.9484 16.1807H16.5982C16.5807 16.1807 16.567 16.1693 16.567 16.1558C16.5682 16.1384 16.587 16.1201 16.6169 16.1064C16.6506 16.0884 16.658 16.0907 16.673 16.0466L16.6741 15.9227L16.6746 15.9228ZM17.5908 15.2985C17.6674 15.2985 17.7299 15.3468 17.7299 15.406C17.7299 15.4653 17.6674 15.5136 17.5908 15.5136C17.5141 15.5136 17.4517 15.4653 17.4517 15.406C17.4517 15.3468 17.5141 15.2985 17.5908 15.2985ZM13.5727 12.109C13.5114 12.2132 13.3838 12.3617 13.3571 12.4079C13.3403 12.4514 13.2847 12.5668 13.2729 12.6258C13.2504 12.6377 13.2393 12.6396 13.2348 12.6373C13.236 12.6332 13.2371 12.6289 13.2371 12.6249L13.2425 12.6181C13.2427 12.6135 13.2371 12.6187 13.2339 12.6251C13.1109 12.6393 12.9743 12.6673 12.9466 12.6211C12.9406 12.6175 12.9548 12.6011 12.9513 12.5957C13.1379 12.4415 13.2362 12.2593 13.2812 12.0199C13.2435 12.0079 13.1931 11.9412 13.1323 11.8841C13.1089 11.8622 13.0969 11.8441 13.0759 11.8208C13.1577 11.8179 13.2388 11.7988 13.3142 11.7769C13.331 11.8146 13.3434 11.842 13.3601 11.8799C13.387 11.9141 13.414 11.9485 13.441 11.9828C13.4599 11.9915 13.4789 12.0005 13.4982 12.0093C13.5017 12.0249 13.5049 12.0404 13.5082 12.0558C13.5157 12.0588 13.5653 12.1026 13.5727 12.1093L13.5727 12.109ZM15.2731 11.9387C15.2405 12.0721 15.1991 12.2024 15.15 12.3288L15.2676 12.4585L15.2729 11.9387H15.2731ZM15.2644 12.75C15.1703 12.9335 15.06 13.1078 14.9355 13.271L14.6465 13.2117L14.5444 13.8797H15.2523L15.2644 12.75H15.2644ZM16.0992 13.9852H14.5195V14.0886C14.5195 14.1455 14.5653 14.1919 14.6216 14.1919H15.9972C16.0533 14.1919 16.0992 14.1455 16.0992 14.0886V13.9852ZM17.4062 15.8049C17.3959 15.8049 17.3847 15.8003 17.3724 15.7925C17.3525 15.7802 17.3299 15.774 17.3099 15.774H17.2725C17.2137 15.774 17.1661 15.8293 17.1661 15.8971C17.1661 15.9722 17.2362 16.0326 17.3224 16.0326C17.3708 16.0326 17.4279 16.015 17.4724 15.9913V15.8636L17.4061 15.8049H17.4062ZM12.021 18.3055C12.0511 18.3058 12.0813 18.3061 12.1115 18.3061C13.682 18.3061 15.1384 17.8085 16.3265 16.9652H16.6851C15.4213 17.9377 13.833 18.5182 12.1115 18.5182C12.0812 18.5182 12.051 18.5181 12.0208 18.5179L12.021 18.3057V18.3055ZM12.021 17.9811C12.0511 17.9814 12.0813 17.9817 12.1115 17.9817C13.4388 17.9817 14.6803 17.6091 15.7348 16.9652H15.96C14.8534 17.6829 13.5305 18.1013 12.1115 18.1013C12.0812 18.1013 12.051 18.1011 12.0208 18.1008L12.021 17.9811ZM12.0208 15.0804H19.0853C19.1655 15.0807 19.246 15.0815 19.3267 15.0815V16.6727H12.0208V16.4885H12.0598C12.1602 16.4885 12.2414 16.4195 12.2414 16.3346C12.2414 16.2495 12.1715 16.1806 12.085 16.1806H12.0585L12.0584 16.1805C12.106 16.1781 12.0608 16.1992 12.021 16.1799L12.0208 15.6569H12.2327V16.051C12.2327 16.0719 12.214 16.0954 12.1827 16.1126C12.1589 16.1263 12.1439 16.141 12.1451 16.1495C12.1451 16.1668 12.1563 16.1805 12.1702 16.1805H12.4952C12.5164 16.1805 12.5339 16.1668 12.5328 16.1495C12.5328 16.1348 12.5128 16.1175 12.4827 16.1064C12.4526 16.093 12.434 16.0743 12.4326 16.0572V15.6569H12.9091C12.964 15.6569 13.0055 15.6586 13.0055 15.7268C12.9917 15.7644 12.9528 15.7944 12.9017 15.795L12.6169 15.7979L12.6133 15.9316C12.6459 15.9316 12.6949 15.9091 12.7212 16.0076C12.7387 16.1075 12.7477 16.137 12.8215 16.1804C12.9431 16.2267 13.1872 16.2287 13.2712 16.1804L13.2584 16.0554C13.2132 16.0914 13.1517 16.1123 13.0842 16.1123C12.9754 16.1123 12.9556 16.0225 12.957 15.9338C13.0044 15.9424 12.9441 15.9461 12.9593 15.9461H13.0532C13.1469 15.9461 13.259 15.8795 13.2584 15.7983C13.2581 15.7268 13.2221 15.6825 13.1634 15.6566H13.9216V15.7116L13.821 15.6902L13.6766 15.6971L13.6831 15.7006C13.5224 15.6971 13.3384 15.7537 13.323 15.8738C13.3081 16.0742 13.4831 16.1431 13.6587 16.1431C13.7054 16.1431 13.829 16.1134 13.8651 16.105C13.8353 16.1194 13.8165 16.138 13.8153 16.1553C13.8153 16.1688 13.829 16.1802 13.8464 16.1802H14.1883C14.2058 16.1802 14.2195 16.1688 14.2195 16.1553C14.2195 16.1368 14.1996 16.1171 14.1695 16.106C14.1357 16.0901 14.1228 16.0653 14.1216 16.0444V15.6565H14.9398V15.7981H14.4661C14.3024 15.7981 14.2845 15.8985 14.2839 15.9663C14.2821 16.1683 14.5799 16.2168 14.7327 16.1443C14.7947 16.1149 14.8111 15.974 14.8039 15.9422L14.7142 15.948C14.7142 15.9351 14.7208 16.0027 14.6693 16.0151C14.6111 16.0291 14.573 16.0824 14.5206 16.0163C14.4451 15.9202 14.5517 15.8743 14.5344 15.8725H14.9398V16.0389C14.9398 16.0647 14.9171 16.0918 14.8835 16.1066C14.8536 16.1202 14.8348 16.1386 14.8336 16.1559C14.8336 16.1694 14.8473 16.1808 14.8647 16.1808H15.2148C15.2323 16.1808 15.2461 16.1694 15.2461 16.1559C15.2461 16.1374 15.2262 16.1177 15.1961 16.1066C15.1623 16.0907 15.1411 16.066 15.1398 16.045V15.657H15.3836V16.0389C15.3836 16.0647 15.3611 16.0918 15.3273 16.1066C15.2974 16.1202 15.2786 16.1386 15.2774 16.1559C15.2774 16.1694 15.2911 16.1808 15.3087 16.1808H15.6586C15.6762 16.1808 15.69 16.1694 15.69 16.1559C15.69 16.1374 15.67 16.1177 15.6399 16.1066C15.6061 16.0907 15.5849 16.066 15.5837 16.045V15.657H15.7187V15.5633H15.5924L15.5925 15.5632C15.6121 15.5561 15.6747 15.51 15.6747 15.4894C15.6747 15.4684 15.6636 15.4512 15.6498 15.4525C15.6084 15.4525 15.5847 15.5017 15.5434 15.5017C15.5208 15.5017 15.4871 15.4894 15.4434 15.4648L15.2059 15.2799C15.1871 15.2639 15.1483 15.2554 15.0934 15.2554C15.0758 15.2554 15.0445 15.2639 14.9983 15.2799L14.8921 15.3293C14.8733 15.3355 14.8607 15.3552 14.8607 15.3785C14.8607 15.3884 14.877 15.3958 14.8983 15.397C14.9158 15.397 14.9434 15.3859 14.9796 15.3662C14.9934 15.3576 15.012 15.3527 15.0359 15.3539C15.0584 15.3539 15.0908 15.3773 15.1558 15.4217L15.2622 15.4956C15.2851 15.5117 15.3068 15.5312 15.3299 15.5455C15.3438 15.554 15.358 15.5606 15.3733 15.5632L15.3745 15.5634H14.1279C14.1434 15.4241 14.0664 15.3335 13.8554 15.3358H12.4614C12.1926 15.3334 12.2043 15.452 12.2079 15.5634H12.0211V15.0805L12.0208 15.0804ZM17.7676 11.177C17.7572 11.2131 17.7513 11.2511 17.7499 11.2901C17.7446 11.4346 17.8223 11.5962 17.8395 11.6313L17.7487 11.6278L17.7271 11.8634L18.5069 11.9233C18.479 12.161 18.4113 12.464 18.3568 12.6966L17.8716 12.5861C17.8657 12.579 17.8151 12.4803 17.8468 12.3482C17.8667 12.2662 17.914 12.1837 18.02 12.2113C18.1173 12.2366 18.1461 12.337 18.1154 12.4523C18.0978 12.5178 18.0647 12.5547 18.0638 12.5584L18.1682 12.5855C18.1685 12.5837 18.231 12.5165 18.2637 12.3941C18.3117 12.2151 18.2824 12.0368 18.0958 11.9863C17.9181 11.9383 17.7808 12.0846 17.7376 12.2459C17.6953 12.4038 17.7418 12.5523 17.7418 12.5523L17.5921 12.5136L17.5317 12.7388L17.8757 12.8281C17.8849 12.8304 18.0009 12.9574 17.9682 13.0797C17.9269 13.234 17.8688 13.2493 17.7663 13.2226C17.6781 13.1996 17.644 13.1263 17.6766 13.0038C17.6904 12.9526 17.7379 12.8833 17.7407 12.8802L17.6327 12.8521C17.6324 12.8539 17.5574 12.9104 17.5189 13.0539C17.4744 13.2206 17.5022 13.3967 17.6947 13.4467C17.8819 13.4954 18.0096 13.3996 18.0683 13.1797C18.111 13.0202 18.0137 12.8761 18.008 12.8688L18.2852 12.9441C18.2088 13.2061 18.153 13.4039 18.0367 13.6515L18.1847 13.7322C18.3729 13.2752 18.5698 12.6035 18.6604 11.9614C18.6665 11.9183 18.6717 11.8746 18.6762 11.8303C18.8865 11.7908 18.9715 11.708 18.9893 11.6433L18.8933 11.5298C18.8491 11.588 18.8449 11.6042 18.6882 11.6923C18.6905 11.6639 18.6923 11.6354 18.6935 11.607C18.9297 11.5077 18.9901 11.3724 19.0075 11.3084L18.872 11.1981C18.8519 11.24 18.8313 11.2789 18.7001 11.4541C18.7031 11.3592 18.7042 11.266 18.7048 11.177L18.5357 11.1768L18.5315 11.6588L18.3624 11.6522C18.389 11.6241 18.4869 11.5089 18.4943 11.2859C18.4954 11.2495 18.4919 11.2127 18.4835 11.177H18.2221C18.267 11.2102 18.2806 11.2566 18.2805 11.2602L17.9362 11.5117C17.9338 11.5059 17.9075 11.4313 17.9094 11.3824C17.9157 11.3074 17.941 11.2227 18.0027 11.177L17.767 11.1771L17.7676 11.177ZM17.3958 11.1767C17.3958 12.2647 17.0539 13.2763 16.4708 14.1133C16.4702 14.1131 16.4696 14.1133 16.4685 14.1133C16.4685 14.1144 16.4683 14.1156 16.4683 14.1162C16.3298 14.3147 16.178 14.5036 16.0136 14.6811H16.0024C16.0023 14.6851 16.0023 14.6891 16.0022 14.693C15.9818 14.7149 15.9613 14.7369 15.9404 14.7584H15.923C15.9229 14.7642 15.9229 14.7699 15.9228 14.7766C15.9169 14.7826 15.9109 14.7886 15.905 14.7946C15.653 14.7934 15.4012 14.7922 15.1492 14.7905V14.7993H15.0334C15.0334 14.7958 15.0335 14.7926 15.0335 14.7899C15.0072 14.7898 14.9809 14.7897 14.9598 14.7896C14.9598 14.7925 14.9597 14.7957 14.9597 14.7994H14.4915C14.4915 14.7947 14.4916 14.7907 14.4916 14.7872C14.4758 14.787 14.4652 14.7871 14.4547 14.787C14.4547 14.7905 14.4547 14.7948 14.4546 14.7994H14.1442C14.1442 14.7941 14.1442 14.7893 14.1443 14.7853C14.1285 14.7853 14.1179 14.7852 14.1074 14.7852C14.1074 14.7893 14.1074 14.794 14.1073 14.7994H12.0205V14.9503H19.4748V16.8026H12.0205V16.9512H12.4546C12.3787 17.0936 12.2069 17.2083 12.0384 17.3146C12.0325 17.3111 12.0265 17.3073 12.0206 17.3035V17.4711C12.0349 17.4616 12.0497 17.4521 12.0647 17.4429C12.201 17.52 12.3115 17.5869 12.3539 17.737C12.3937 17.7077 12.4715 17.7336 12.5115 17.704C12.4857 17.5891 12.3283 17.4899 12.1579 17.3871C12.26 17.3274 12.3693 17.2653 12.4688 17.1865C12.7535 17.3695 13.0776 17.5613 13.4716 17.5383C13.4616 17.5024 13.3757 17.4265 13.3657 17.3906C13.5274 17.4437 13.7702 17.4368 13.9521 17.4499C13.9289 17.3976 13.8753 17.3554 13.8522 17.3033C14.0163 17.3304 14.1878 17.3317 14.3386 17.3322C14.3154 17.2573 14.2517 17.2773 14.2286 17.2024C14.4229 17.2107 14.6668 17.1995 14.8204 17.1819C14.8072 17.1363 14.6631 17.0666 14.6498 17.021C14.8421 17.0215 15.1489 16.998 15.3773 16.9511H18.3184V17.4175H21.0957L20.412 16.5856L20.9967 15.5683H19.7063V14.7994H18.5875C19.2073 13.7292 19.562 12.4923 19.562 11.1764H19.3467C19.3467 12.4976 18.9782 13.7365 18.3381 14.7994H18.0952C18.7564 13.7442 19.1388 12.503 19.1388 11.1764H19.0175C19.0175 12.5063 18.6265 13.7492 17.9526 14.7994H17.4597C17.5199 14.7728 17.5766 14.7375 17.6284 14.6911L17.8406 14.5483L17.5985 14.5345C17.6773 14.4801 17.8256 14.4099 17.8667 14.3255L17.9721 14.1964C17.7921 14.1158 17.7206 14.167 17.5354 14.148C17.6878 14.0183 17.6325 13.8904 17.578 13.6709C17.4103 13.7717 17.2925 13.8163 17.2153 13.9405L17.0808 13.7275C17.0518 13.9022 16.8283 14.0243 16.8747 14.1809L16.7862 14.1551L16.7511 14.3024C16.6858 14.4257 16.6874 14.5233 16.7131 14.66L16.5604 14.5091C16.5315 14.5958 16.4678 14.7177 16.5013 14.7994H16.0913C16.9862 13.8458 17.5345 12.5723 17.5345 11.1764H17.3954L17.3958 11.1767ZM14.6469 11.1769C14.6098 11.3067 14.5672 11.4552 14.5521 11.4957C14.4594 11.5671 14.6066 11.8559 14.6648 11.8382C14.6644 11.8849 14.6642 11.9366 14.6636 11.9884C14.6249 11.9936 14.5132 12.3741 14.4868 12.4477C14.4538 12.5594 14.4814 12.5766 14.4593 12.6354C14.4127 12.6302 14.423 12.6653 14.4229 12.6834L14.3933 12.7415C14.3933 12.7397 14.3934 12.7385 14.3934 12.7368C14.2725 12.7662 14.1383 12.8121 14.1046 12.7689C14.0982 12.766 14.1088 12.7494 14.1064 12.7438C14.1312 12.7058 14.2037 12.6477 14.2071 12.6267C14.2864 12.4567 14.3513 12.2504 14.3529 12.0631C14.3122 12.0573 14.2593 11.9856 14.1863 11.938C14.1453 11.9114 14.1002 11.884 14.07 11.8525C14.0496 11.8309 13.9794 11.8104 13.9791 11.7837C13.9785 11.8026 13.9947 11.9297 13.8712 11.9777V12.0428C13.8712 12.0582 13.8596 12.0708 13.8452 12.0708C13.8306 12.0708 13.8189 12.0582 13.8189 12.0428V11.9823C13.8114 11.9824 13.8036 11.9824 13.795 11.9824V12.031C13.795 12.0465 13.7833 12.059 13.7688 12.059C13.7543 12.059 13.7427 12.0465 13.7427 12.031V11.9799C13.7251 11.9764 13.7102 11.9687 13.7034 11.944C13.7032 11.9537 13.6862 11.9744 13.6654 11.979V12.0428C13.6654 12.0582 13.6539 12.0707 13.6393 12.0707C13.6248 12.0707 13.6132 12.0582 13.6132 12.0428V11.9779C13.6048 11.9773 13.5971 11.9762 13.5892 11.975V12.0308C13.5892 12.0463 13.5776 12.0588 13.5631 12.0588C13.5486 12.0588 13.5369 12.0463 13.5369 12.0308V11.9645C13.4413 11.9372 13.3879 11.8715 13.389 11.7493C13.3943 11.733 13.5038 11.6956 13.5718 11.6773C13.5121 11.6769 13.442 11.677 13.3666 11.7085C13.0956 11.7641 12.7923 11.8435 12.5853 11.7876C12.4094 11.7401 12.291 11.7481 12.0897 11.7337C12.1096 11.5333 12.3463 11.5955 12.1681 11.2198C12.1675 11.3077 12.1575 11.423 12.1568 11.5109C12.1083 11.5435 12.0615 11.6145 12.0211 11.6974L12.0213 12.8943C12.1606 12.8914 12.3045 12.8874 12.4089 12.8941C12.4537 12.8618 12.455 12.8298 12.4998 12.7975C12.5119 12.4879 12.5074 12.1592 12.5197 11.8493C12.6429 11.8792 12.826 11.895 12.9464 11.8563C12.9446 12.0357 12.9428 12.367 12.9411 12.5992C12.9266 12.6099 12.9034 12.6326 12.9001 12.6363L12.7481 12.8068C12.7493 12.8155 12.8112 12.8241 12.8433 12.8182C12.8409 12.8302 12.8239 12.8312 12.821 12.8492C12.8635 12.8916 13.0829 12.8752 13.1229 12.8196C13.1247 12.8173 13.1259 12.8155 13.1276 12.8128C13.2137 12.8198 13.3 12.8268 13.3861 12.8337C13.4472 12.8657 13.5082 12.898 13.5694 12.9302C13.6467 12.912 13.7241 12.894 13.8015 12.8759C13.8406 12.9078 13.9092 12.9153 13.9581 12.9393L13.9314 12.9783C13.9343 12.9866 13.9961 12.9876 14.0273 12.9779C14.0269 12.9901 14.0097 12.9932 14.0092 13.0114C14.0566 13.0482 14.2723 13.0045 14.3048 12.9446C14.3185 12.9193 14.3412 12.881 14.3602 12.8417C14.4408 12.768 14.5215 12.6941 14.6022 12.6204C14.4375 12.8938 14.2272 13.1379 13.9824 13.3427C13.6493 13.41 13.3201 13.341 13.0138 13.402C12.9062 13.4235 12.8771 13.508 12.7324 13.5336C12.6609 13.5359 12.5471 13.5618 12.4759 13.5637C12.6427 13.5839 12.7576 13.6381 12.9307 13.6159C12.9906 13.574 13.0048 13.5299 13.1082 13.4936C13.3566 13.4058 13.5914 13.4195 13.8439 13.4518C13.3616 13.8076 12.7638 14.0188 12.1173 14.0188C12.0849 14.0188 12.0528 14.0185 12.0207 14.017L12.0209 14.6627C12.0485 14.6638 12.0762 14.6638 12.1039 14.6638C12.2493 14.6644 12.3929 14.6556 12.5339 14.6392L12.6309 14.3493C12.8529 14.314 13.0675 14.2568 13.2722 14.1793L13.5033 14.3825C13.7622 14.2724 14.0052 14.1328 14.2279 13.9677L14.1649 13.669C14.2925 13.5665 14.4118 13.4543 14.5222 13.3339L14.4244 13.8844C14.4058 13.8939 14.3933 13.9129 14.3933 13.935C14.3933 13.9555 14.4043 13.9736 14.4209 13.9836V14.088C14.4209 14.1896 14.4957 14.2727 14.587 14.2727H16.0313C16.1227 14.2727 16.1974 14.1896 16.1974 14.088V13.9914C16.2252 13.9873 16.2467 13.9633 16.2467 13.9349C16.2467 13.9051 16.2232 13.8804 16.1934 13.878L15.7622 11.176H15.6675L16.0697 13.8791H15.3618L15.3544 12.5599C15.3547 12.5587 15.3556 12.5575 15.3561 12.5558L15.3544 12.5534L15.3496 11.6876L15.6164 11.6009C15.6324 11.4692 15.6413 11.3356 15.642 11.1999V11.1758H14.8184C14.8166 11.2424 14.8149 11.3109 14.8131 11.3773C14.8101 11.4932 14.7928 11.6043 14.8084 11.6859C14.8382 11.8399 14.8907 11.942 14.8997 12.0706C14.9115 12.2357 14.8355 12.4133 14.8049 12.5297C14.72 12.4319 14.6905 12.3243 14.685 12.1916C14.679 12.0503 14.7301 11.8441 14.7481 11.6183C14.7599 11.4712 14.758 11.3181 14.7565 11.1758" fill="currentColor"/>
<path fill-rule="evenodd" clip-rule="evenodd" d="M16.7077 7.13014C16.7089 7.1313 16.7404 7.23204 16.8437 7.14257C16.9568 7.04453 16.8736 6.93442 16.8711 6.93186L16.6745 6.72864L16.5095 6.58035L15.9851 7.15211L15.8088 6.99132L16.3125 6.39903L16.006 6.15862L15.5422 6.78017L15.352 6.64163L15.4706 6.46805C15.464 6.46805 15.3005 6.46106 15.1368 6.35237C14.9796 6.2478 14.9045 6.08512 15.0324 5.89814C15.1146 5.7781 15.286 5.69759 15.2978 5.69663L14.9997 5.53814L14.6491 6.23187L14.4236 6.1221L14.7546 5.42548C14.5051 5.30725 14.2399 5.21966 13.9753 5.14048L13.8947 5.41242C13.9021 5.40659 14.0499 5.31305 14.211 5.35752C14.4332 5.41895 14.5286 5.54612 14.4764 5.72973C14.4226 5.91866 14.2435 5.94355 14.0751 5.89703C13.93 5.85702 13.8738 5.78241 13.8721 5.78195L13.9022 5.67594C13.9051 5.67885 13.9748 5.72657 14.0268 5.74086C14.1504 5.77492 14.2254 5.74201 14.25 5.65587C14.2786 5.55518 14.2639 5.49777 14.1081 5.45475C13.9843 5.4208 13.8557 5.53369 13.8514 5.54202L13.7555 5.87961L13.5279 5.81676L13.5695 5.66989C13.5695 5.66989 13.418 5.71376 13.2585 5.66977C13.0954 5.62482 12.949 5.48724 13.0004 5.31293C13.0544 5.1298 13.2358 5.10374 13.4168 5.15363C13.5406 5.18769 13.6077 5.25008 13.6096 5.25056L13.5803 5.35309C13.5768 5.35191 13.5397 5.319 13.4735 5.30077C13.357 5.26851 13.2547 5.29549 13.2275 5.39091C13.1981 5.49498 13.281 5.54265 13.364 5.56368C13.4976 5.5968 13.5983 5.54833 13.6056 5.54284L13.725 5.06647C13.5005 5.00808 13.2861 4.97072 13.0555 4.93579L13.0822 4.78048C13.6767 4.8692 14.2732 5.03817 14.8373 5.28029C15.348 5.51432 15.8379 5.8025 16.2189 6.11499C16.2672 6.14944 16.3409 6.20995 16.4214 6.27911C16.3664 6.08196 16.3474 6.03496 16.3269 5.99471L16.4992 5.95793C16.539 6.01088 16.6178 6.15038 16.552 6.39344C16.5544 6.3952 16.5562 6.39696 16.5579 6.39872C16.5675 6.33587 16.6501 6.21065 16.7373 6.23397C16.8107 6.25358 16.8391 6.27769 16.9442 6.38903L16.8206 6.48768C16.7315 6.38168 16.6517 6.40534 16.6822 6.511C16.7215 6.54696 16.757 6.58025 16.7861 6.60805C16.877 6.69569 16.9825 6.8104 17.0877 6.93116C17.0481 6.73221 17.0316 6.68723 17.0144 6.64554L17.1887 6.6219C17.2252 6.67847 17.2961 6.82428 17.205 7.06869C17.2651 7.1405 17.3231 7.21154 17.3758 7.27805L17.2453 7.37802L17.1195 7.22689C17.1184 7.22807 17.1743 7.3972 17.0933 7.46744C16.8726 7.65881 16.6767 7.42856 16.6683 7.4138C16.538 7.52685 16.4875 7.67285 16.5811 7.76774L16.4076 7.74792C16.3231 7.65132 16.2924 7.57144 16.3212 7.47436C16.3507 7.37475 16.4439 7.15329 16.4494 7.14848L16.3475 7.03424L16.4964 6.8933L16.7079 7.1301L16.7077 7.13014ZM12.5291 5.03316C12.5978 5.03316 12.6539 5.08825 12.6539 5.15606C12.6539 5.22363 12.5978 5.27889 12.5291 5.27889C12.4604 5.27889 12.4044 5.22366 12.4044 5.15606C12.4044 5.08825 12.4604 5.03316 12.5291 5.03316ZM15.7932 6.00331L15.6157 6.2563C15.6151 6.25746 15.4601 6.35287 15.3469 6.28241C15.2401 6.21568 15.1929 6.1161 15.2671 6.01092C15.3466 5.89792 15.4429 5.83919 15.4922 5.81185L15.7932 6.00331ZM17.8622 9.38316C17.8628 9.38607 17.8646 9.42642 17.7849 9.43897C17.713 9.45034 17.6836 9.41578 17.6699 9.37795C17.6521 9.32915 17.6814 9.28996 17.7318 9.28196C17.8156 9.26878 17.8406 9.31318 17.842 9.31737L17.8622 9.38311L17.8622 9.38316ZM17.3935 7.85083C17.3935 7.85083 17.355 7.85372 17.3281 7.81633C17.3057 7.78502 17.3007 7.74274 17.3395 7.71446C17.4141 7.65992 17.4573 7.71149 17.491 7.75734C17.5542 7.84341 17.5064 7.95318 17.4034 8.02837C17.269 8.12665 17.2172 8.05072 17.1564 7.96964L16.9502 7.69572L16.799 7.81294L16.9099 7.96019C16.8531 8.02003 16.8551 8.05713 16.8442 8.13812C16.8304 8.23951 16.8503 8.31616 16.9125 8.39872L17.07 8.60784L17.1987 8.51355L17.0501 8.3164C17.0224 8.27943 17.0119 8.24122 17.0214 8.19805C17.0286 8.16505 17.0261 8.16727 17.0523 8.14359L17.0978 8.204C17.0978 8.204 17.3222 8.48496 17.5507 8.31149C17.7262 8.17852 17.7577 7.8715 17.6225 7.69189C17.5316 7.5711 17.3929 7.38617 17.1618 7.5658C17.0639 7.64197 17.0999 7.76875 17.1695 7.85928C17.21 7.91189 17.2465 7.96116 17.29 7.95694L17.3935 7.85083ZM18.6253 10.1327L18.4639 10.1624L18.4292 9.96699L17.6601 10.1391L17.6112 9.9119L18.0334 9.80586L17.9723 9.63313C17.9675 9.63547 17.9309 9.68587 17.8266 9.7001C17.6302 9.72703 17.5331 9.61986 17.475 9.45581C17.4087 9.26868 17.4593 9.11955 17.6477 9.03856C17.9096 8.92589 18.0191 9.2114 18.0191 9.2114L18.219 9.75934L18.3707 9.72125C18.2718 9.35136 18.1802 9.03018 18.0171 8.68519L17.3084 9.00541L17.2102 8.80027L17.9058 8.44336L17.8242 8.28063L17.9705 8.20073C18.2958 8.80453 18.4961 9.46354 18.6253 10.1327ZM12.3582 8.33548L12.4462 8.81626L12.7841 8.81508L12.624 8.48108L12.3747 8.33678C12.3693 8.33618 12.3636 8.3356 12.3582 8.3356L12.3582 8.33548ZM13.2822 8.56807C13.3045 8.62236 13.385 8.82192 13.385 8.82192L13.6965 8.83727L13.7222 8.80754C13.5834 8.71578 13.4365 8.63537 13.2822 8.56804V8.56807ZM12.9013 9.26081C12.9443 9.46993 12.9699 9.70834 12.9645 9.95772C13.1444 9.9086 13.4068 9.85796 13.5954 9.85697C13.7789 9.86316 13.9532 9.86936 14.1103 9.91257C14.2409 9.94849 14.3462 9.98597 14.4244 10.0221C14.489 10.0519 14.6095 10.1132 14.7069 10.2185C14.8694 10.3943 14.9327 10.6751 14.9636 10.7988C14.9513 10.7051 14.9372 10.6015 14.9225 10.4934C14.8011 10.0071 14.5519 9.56927 14.2129 9.21631C14.069 9.20991 13.8418 9.22159 13.6979 9.22696C13.707 9.24621 13.7112 9.25582 13.7206 9.27483C13.6392 9.28417 13.612 9.25221 13.5238 9.21976L13.4642 9.22443C13.4763 9.32705 13.489 9.45338 13.4665 9.54598C13.2841 9.48371 13.1835 9.36793 13.0907 9.2497C13.0378 9.25088 12.954 9.25994 12.9013 9.26088L12.9013 9.26081ZM12.5149 9.26864C12.5998 9.26514 12.6961 9.27331 12.7809 9.26982C12.8388 9.48802 12.8583 9.69687 12.8485 9.95967C12.7499 9.96969 12.6373 9.97704 12.5388 9.98708C12.5608 9.71824 12.5599 9.49267 12.5148 9.26868L12.5149 9.26864ZM15.2951 9.88863L15.1503 10.0484C15.2075 10.1954 15.2538 10.3473 15.2885 10.5037L15.2951 9.88863ZM15.3463 9.79819C15.3499 9.80574 15.3532 9.8133 15.3564 9.82096L15.3439 9.83462L15.3398 9.90183L15.3439 10.6873L15.6077 10.7729L15.3817 9.25404L15.3462 9.79824L15.3463 9.79819ZM15.2514 9.23322C15.1907 9.22038 15.1384 9.18464 15.1049 9.13554L14.9717 9.15498C15.0555 9.26861 15.1324 9.38766 15.202 9.51119L15.2514 9.2332V9.23322ZM12.0209 5.49425L12.0786 5.59254L12.0209 5.59485V5.49464V5.49425ZM19.3471 11.1755C19.3471 7.24866 16.0967 4.0459 12.1115 4.0459C12.0812 4.0459 12.0508 4.04614 12.0205 4.0465V3.83435C12.0508 3.83401 12.0811 3.83398 12.1115 3.83398C16.2153 3.83398 19.5624 7.13188 19.5624 11.1756H19.3471V11.1755ZM19.0179 11.1755C19.0179 7.42734 15.9154 4.37036 12.1115 4.37036C12.0812 4.37036 12.0508 4.37058 12.0205 4.37091V4.25138C12.0508 4.25104 12.0811 4.25083 12.1115 4.25083C15.9823 4.25083 19.1392 7.36147 19.1392 11.1755H19.0179V11.1755ZM18.5361 11.1755L18.5384 10.8927L18.7053 10.883C18.7053 10.9717 18.7056 11.0707 18.7054 11.1757L18.5362 11.1755L18.5361 11.1755ZM17.7676 11.1758C17.8116 11.0216 17.9357 10.904 18.1431 10.9106C18.3428 10.9169 18.451 11.0375 18.4841 11.1757H18.2227C18.1985 11.1579 18.1649 11.1437 18.1196 11.1422C18.0712 11.1405 18.0331 11.1537 18.0034 11.1757L17.7676 11.1758ZM17.3958 11.1755C17.3958 9.85129 16.8895 8.63997 16.0582 7.71961L16.0606 7.71971C16.0344 7.69131 16.0077 7.66329 15.981 7.63549C15.9302 7.5816 15.8783 7.52875 15.8252 7.47703H15.8217C15.8175 7.47351 15.8137 7.46949 15.8096 7.46564V7.46214C15.8003 7.45323 15.7911 7.44422 15.7816 7.43531C15.7804 7.43531 15.7792 7.43519 15.7774 7.43519C15.484 7.16141 15.159 6.92013 14.8087 6.71706V6.70961H14.7958C14.774 6.69702 14.752 6.68456 14.7299 6.6722V6.66753H14.7217C14.5996 6.59984 14.4746 6.53677 14.3469 6.47838C14.3469 6.47662 14.3468 6.47546 14.3469 6.47371H14.3366C14.314 6.46332 14.2911 6.45318 14.2682 6.44311V6.43692H14.2542C14.2325 6.42757 14.211 6.41842 14.1894 6.40931V6.40028C14.1818 6.40014 14.1746 6.40014 14.1674 6.40014C14.1364 6.38737 14.1051 6.37492 14.0739 6.36256V6.35846C14.0697 6.35834 14.0663 6.35846 14.0625 6.35834C14.0021 6.3349 13.941 6.3125 13.8795 6.29125V6.28484C13.8733 6.28484 13.8672 6.28484 13.8611 6.28475C13.8288 6.27372 13.7965 6.263 13.764 6.25256V6.24274C13.7532 6.24262 13.7431 6.24262 13.7331 6.24262C13.7049 6.23382 13.6767 6.22505 13.6484 6.21679V6.20583C13.6352 6.20583 13.6227 6.20583 13.6105 6.20571C13.5848 6.19836 13.5587 6.19094 13.5327 6.18381C13.5328 6.17856 13.5329 6.17382 13.5329 6.16897C13.5135 6.16888 13.4947 6.16885 13.4761 6.16873C13.0415 6.05534 12.5854 5.9949 12.1155 5.9949C12.084 5.9949 12.0526 5.99512 12.0212 5.99606L12.0209 5.83266C12.0512 5.83232 12.0815 5.83206 12.1119 5.83206C15.0989 5.83206 17.5353 8.2326 17.5353 11.1759H17.3962L17.3958 11.1755ZM14.8183 11.1757C14.8218 11.0485 14.8248 10.9278 14.829 10.8413C14.8466 10.4734 14.6997 10.2258 14.3191 10.0732C14.1148 9.99125 13.8474 9.93902 13.706 9.93746C13.1795 9.93338 12.8013 10.1209 12.2166 10.0482C12.1396 10.0406 12.0758 10.0056 12.0212 9.96092L12.0211 9.85733C12.0598 9.89431 12.104 9.92621 12.1563 9.94507C12.2378 9.95511 12.3271 9.97267 12.4011 9.95639C12.4434 9.7213 12.4298 9.50527 12.3909 9.27042C12.2647 9.2675 12.1425 9.26522 12.0212 9.26269L12.0211 9.15645C12.0347 9.15631 12.0483 9.15609 12.0619 9.15609C12.0776 9.19854 12.0962 9.22296 12.1155 9.22296C12.1351 9.22296 12.1532 9.1982 12.1689 9.15491C13.1751 9.1412 14.1785 9.11413 15.1776 9.07197V9.06445C15.1994 9.10919 15.2462 9.14036 15.2998 9.1406C15.3745 9.14072 15.4357 9.08086 15.4358 9.00736C15.4361 8.93365 15.3753 8.87335 15.3006 8.87311C15.2422 8.87285 15.1918 8.90973 15.1726 8.96075C14.1867 8.91139 13.2004 8.89448 12.2145 8.90684C12.2192 8.8515 12.222 8.79128 12.222 8.72855C12.222 8.45634 12.1741 8.23428 12.1155 8.23428C12.0745 8.23428 12.0388 8.34285 12.0212 8.50107L12.0213 7.68052C12.167 7.67242 12.3366 7.68343 12.525 7.71679C12.5999 7.72997 12.6773 7.74568 12.7565 7.76336C12.7043 7.8296 12.653 7.90551 12.6058 7.94237L12.6105 7.95024H12.6052L12.6314 8.02866C12.8531 8.06383 13.0671 8.12126 13.2718 8.19837L13.4858 8.01018L13.5095 8.00845C13.5092 8.00784 13.5092 8.00724 13.5089 8.00666C13.5427 8.01464 13.5664 8.02037 13.5568 8.01815C13.7959 8.12429 14.0209 8.25604 14.2284 8.40968L14.1653 8.70836C14.2322 8.76201 14.2965 8.81814 14.3588 8.87677L15.0965 8.89094C15.1309 8.83267 15.1901 8.79048 15.2598 8.77851C15.264 8.77839 15.2686 8.77863 15.2726 8.77909C15.3211 8.7868 15.4697 8.77849 15.5139 8.90913C15.528 8.93888 15.5358 8.97234 15.5357 9.00729C15.5354 9.08055 15.5003 9.14595 15.4458 9.18837L15.7629 11.1752H15.6682L15.6334 10.9407C15.6393 11.0182 15.6421 11.0965 15.6425 11.1755H14.8189L14.8183 11.1757ZM14.647 11.1757C14.6789 11.0638 14.7068 10.9656 14.7093 10.9625C14.735 10.7738 14.6578 10.6815 14.6342 10.5427C14.7215 10.5462 14.7529 10.8149 14.7563 11.1464C14.7564 11.156 14.7566 11.1658 14.7567 11.1757" fill="currentColor"/>
<path fill-rule="evenodd" clip-rule="evenodd" d="M12.5606 7.23924C12.6528 7.23951 12.7276 7.31404 12.7273 7.40519C12.727 7.49611 12.6516 7.57011 12.5595 7.56996C12.4672 7.56963 12.3923 7.49488 12.3925 7.40399C12.3929 7.31286 12.4683 7.23902 12.5606 7.23924ZM11.7851 7.32579C11.8889 7.32604 11.9732 7.41003 11.9729 7.51266C11.9725 7.6153 11.8875 7.69855 11.7838 7.69819C11.6797 7.69786 11.5953 7.61386 11.5957 7.51136C11.596 7.40871 11.6809 7.32531 11.7851 7.32579ZM11.6152 6.92533C11.7191 6.92567 11.8035 7.00969 11.803 7.11231C11.8027 7.21484 11.7177 7.29824 11.6138 7.29773C11.5099 7.29749 11.4254 7.21363 11.4258 7.11099C11.4261 7.00837 11.5112 6.92495 11.6152 6.92533ZM12.098 6.99712C12.216 6.99746 12.312 7.09299 12.3114 7.20964C12.3111 7.32618 12.2144 7.42092 12.0965 7.42044C11.9783 7.42008 11.8825 7.32459 11.8828 7.20807C11.8832 7.09152 11.9798 6.99676 12.098 6.99712ZM11.9314 6.93198C11.8272 6.93198 11.742 6.84796 11.742 6.74531C11.742 6.64245 11.8272 6.55859 11.9314 6.55859C12.0357 6.55859 12.121 6.64245 12.121 6.74531C12.121 6.84796 12.0357 6.93198 11.9314 6.93198ZM12.5228 6.77786C12.6266 6.77819 12.711 6.86224 12.7106 6.96498C12.7103 7.06748 12.6252 7.15076 12.5214 7.1504C12.4174 7.15006 12.333 7.06601 12.3334 6.96351C12.3337 6.86089 12.4188 6.77759 12.5228 6.77786ZM12.1008 7.75998C12.1005 7.75883 12.0996 7.75767 12.099 7.75649H12.1002C12.0941 7.73813 12.0907 7.71852 12.0907 7.69822C12.0907 7.63125 12.1273 7.57254 12.182 7.5406V7.5327C12.2072 7.51952 12.2364 7.51193 12.267 7.51205C12.2848 7.51205 12.3019 7.51499 12.3182 7.51971C12.4006 7.53843 12.4625 7.61147 12.4625 7.69827C12.4625 7.79908 12.379 7.88139 12.2766 7.88139C12.2705 7.88139 12.2646 7.88113 12.2587 7.88079C12.2659 7.90016 12.2697 7.92105 12.2697 7.9428C12.2697 8.04373 12.1863 8.12605 12.084 8.12605C12.0223 8.12605 11.9674 8.09608 11.9335 8.05038C11.9104 8.02039 11.8968 7.98305 11.8969 7.9427C11.897 7.91102 11.9056 7.8813 11.9203 7.85557C11.9205 7.85523 11.9206 7.85497 11.9206 7.85439L11.9208 7.85427C11.9526 7.79783 12.0136 7.75962 12.0837 7.75962C12.0896 7.75962 12.0949 7.75996 12.1006 7.7602" fill="currentColor"/>
<path fill-rule="evenodd" clip-rule="evenodd" d="M11.931 6.92996C11.8267 6.92996 11.7416 6.84592 11.7416 6.74329C11.7416 6.64043 11.8267 6.55655 11.931 6.55655C12.0353 6.55655 12.1205 6.64043 12.1205 6.74329C12.1205 6.84592 12.0353 6.92996 11.931 6.92996ZM11.6147 6.92332C11.7187 6.92365 11.803 7.00768 11.8026 7.1103C11.8023 7.2128 11.7173 7.29622 11.6134 7.29571C11.5095 7.29547 11.425 7.21159 11.4253 7.10897C11.4257 7.00635 11.5107 6.92293 11.6147 6.92332ZM11.7847 7.32375C11.8884 7.32402 11.9728 7.40802 11.9725 7.51064C11.9721 7.61326 11.8871 7.69654 11.7833 7.69618C11.6793 7.69584 11.5949 7.61182 11.5952 7.50932C11.5956 7.40669 11.6805 7.3233 11.7847 7.32375ZM12.5224 6.77584C12.6262 6.77618 12.7106 6.8602 12.7102 6.96292C12.7098 7.06544 12.6248 7.14872 12.521 7.14838C12.417 7.14805 12.3326 7.064 12.333 6.9615C12.3332 6.85888 12.4184 6.77557 12.5224 6.77584ZM12.5602 7.2372C12.6523 7.23744 12.7272 7.31202 12.7269 7.40318C12.7266 7.49407 12.6512 7.56807 12.5591 7.56795C12.4668 7.56761 12.3919 7.49286 12.3921 7.40197C12.3925 7.31082 12.4679 7.23696 12.5602 7.2372ZM12.0976 6.9951C12.2156 6.99544 12.3115 7.09098 12.311 7.20762C12.3107 7.32414 12.214 7.41891 12.0961 7.4184C11.9778 7.41806 11.8821 7.32255 11.8824 7.20605C11.8828 7.08951 11.9793 6.99474 12.0976 6.9951ZM12.1 7.75797C12.0996 7.75679 12.0988 7.75561 12.0982 7.75445H12.0994C12.0932 7.73607 12.0898 7.71651 12.0898 7.6962C12.0898 7.62923 12.1265 7.57048 12.1812 7.53856V7.53068C12.2064 7.51751 12.2356 7.50992 12.2662 7.51004C12.284 7.51004 12.3011 7.51295 12.3174 7.51763C12.3998 7.53634 12.4618 7.60936 12.4618 7.69618C12.4618 7.79699 12.3782 7.8793 12.2758 7.8793C12.2697 7.8793 12.2638 7.87904 12.2579 7.8787C12.265 7.89807 12.2688 7.91898 12.2688 7.94076C12.2688 8.04167 12.1854 8.12396 12.0831 8.12396C12.0214 8.12396 11.9666 8.09399 11.9327 8.04829C11.9095 8.0183 11.8959 7.98096 11.896 7.94061C11.8962 7.90894 11.9047 7.87921 11.9194 7.85346C11.9197 7.85312 11.9198 7.85288 11.9198 7.8523L11.9199 7.85218C11.9518 7.79574 12.0128 7.75753 12.0828 7.75753C12.0887 7.75753 12.094 7.75789 12.0997 7.75814L12.1 7.75797ZM11.9377 7.74636C11.9059 7.74228 11.8199 7.78162 11.7916 7.77088L11.6985 7.73571L11.606 8.01982L11.2864 8.09055C11.2963 8.06838 11.498 7.68423 11.4395 7.70261C11.4237 7.70261 11.3242 7.71726 11.2992 7.71906C11.3139 7.68989 11.3733 7.65091 11.3599 7.62793C10.9608 7.67693 10.7089 7.75847 10.5726 7.85396C10.5656 7.85806 10.56 7.86206 10.556 7.86603C10.5557 7.86637 10.5548 7.86721 10.5548 7.86721C10.5691 7.76664 10.6215 7.68129 10.6215 7.68129C10.3979 7.79176 10.1271 7.92801 9.92568 8.07609C9.92211 8.02336 9.92982 7.98371 9.93815 7.93175C9.94497 7.89104 9.31992 8.37102 9.20143 8.52779C9.24428 8.3026 9.25529 8.33732 9.26941 8.28581C8.94162 8.55029 8.57768 8.8861 8.40358 9.22663C8.38862 9.17886 8.37376 9.13135 8.35878 9.08371C8.18348 9.29403 8.00806 9.56687 7.83288 9.77707C7.79003 9.44488 7.87371 9.09907 8.14286 8.88704C8.08568 8.88085 8.02856 8.87463 7.97152 8.86856C8.1949 8.60758 8.48746 8.3252 8.85524 8.16084C8.77721 8.13075 8.5856 8.14798 8.49592 8.15732C8.86639 7.8908 9.33927 7.64915 9.7809 7.57361C9.74498 7.55571 9.70889 7.53781 9.67283 7.51996C9.82688 7.37552 10.0555 7.32436 10.3052 7.29935C10.2662 7.28425 10.2272 7.26926 10.188 7.25428C10.3296 7.21619 10.5545 7.13966 10.6987 7.09784C10.6014 7.04114 9.81696 7.16117 9.75218 7.26924C9.7278 7.28365 9.89487 7.05239 9.89487 7.05239C9.58204 7.13894 9.23992 7.32592 9.01799 7.54193C9.01148 7.49358 9.01562 7.40667 9.00871 7.35832C8.8218 7.48694 8.65161 7.71227 8.54234 7.93141C8.52138 7.87328 8.55925 7.75758 8.5382 7.69955C8.34497 7.9853 8.14638 8.33876 7.95306 8.62461C7.9665 8.42108 7.96212 8.17775 7.96578 7.96851C8.38874 7.44052 8.91308 6.99537 9.50898 6.66064C9.75406 6.6049 10.1183 6.57371 10.4051 6.55908C10.3608 6.53531 10.2091 6.51873 10.2251 6.48956C10.4672 6.45971 10.8948 6.53576 11.1983 6.59536C11.2092 6.41151 11.0064 6.24761 10.7906 6.14679C11.1159 6.06364 11.453 6.01054 11.799 5.99023C11.9498 6.14494 12.1007 6.40689 12.1037 6.60562C12.1811 6.40399 12.4223 6.13518 12.6105 6.00389C12.8824 6.02926 13.1489 6.07496 13.4077 6.13952C13.2747 6.27394 13.1419 6.40821 13.009 6.54265C13.3465 6.4707 13.6833 6.44247 14.0208 6.511C14.0208 6.511 13.7118 6.63718 13.7651 6.63718C13.9634 6.6401 15.1966 6.86844 15.0857 6.92115C15.0815 6.90457 15.0749 6.88901 15.0662 6.87316C15.3311 7.04986 15.5787 7.24965 15.8066 7.46957C15.7326 7.4761 15.6619 7.49074 15.6348 7.49896C15.6524 7.55506 15.7575 7.61572 15.7753 7.67168C15.4766 7.52119 15.0992 7.36427 14.7876 7.24727C14.8904 7.34543 15.0183 7.41965 15.0856 7.55311C14.7529 7.39862 14.4436 7.20328 14.0952 7.07915C14.1485 7.15277 14.2153 7.23506 14.2685 7.30855C13.9916 7.1842 13.6809 7.07045 13.4447 7.14383C13.6452 7.23301 14.0839 7.34399 14.2895 7.44736C14.2086 7.45201 14.0702 7.48036 14.101 7.49195C14.3905 7.60098 14.6801 7.70988 14.9366 7.84686C14.8016 7.8192 14.6477 7.81092 14.506 7.82339C14.8586 7.90388 15.1851 8.07484 15.3613 8.2605C15.2822 8.22908 15.1647 8.19777 15.0831 8.19437C15.4241 8.35888 15.6184 8.53394 15.7886 8.6988C15.7426 8.6988 15.6657 8.69114 15.6194 8.69114C15.7615 8.79959 15.8884 8.89496 15.8883 9.05995C15.7801 8.93194 15.6267 8.86449 15.4899 8.82074C15.4792 8.84151 15.5224 8.88805 15.5117 8.90896C15.43 8.85286 15.3253 8.8159 15.2437 8.75992C15.208 8.61232 15.1461 8.49532 15.0539 8.40431C15.0857 8.53389 15.1177 8.66359 15.1496 8.7934C14.9412 8.50341 14.6804 8.31814 14.4148 8.1413C14.5022 8.26736 14.5913 8.42428 14.5921 8.55046C13.8704 7.85396 13.5908 7.84175 13.254 7.72065C13.364 7.81879 13.5166 7.93796 13.6267 8.0361C13.4884 7.99127 12.905 7.91308 12.8022 7.78721C12.7735 7.75216 12.9423 8.04061 12.9889 8.09609C12.889 8.06985 12.7072 8.03263 12.6394 8.04063C12.6243 7.97824 12.5432 7.7326 12.5317 7.76936C12.5119 7.8326 12.3687 7.93182 12.3245 7.9137C12.3047 8.0039 12.2793 8.16464 12.109 8.17915C11.8598 8.2003 11.811 7.99084 11.8413 7.86752C11.8499 7.83317 11.9196 7.7604 11.9378 7.7464L11.9377 7.74636ZM12.5031 8.41118C12.5301 8.41527 12.6726 8.43293 12.7003 8.43731C12.7247 8.44138 12.7492 8.44524 12.7738 8.44938C12.9464 8.47843 13.1256 8.51503 13.281 8.57113C13.3217 8.65113 13.3442 8.73477 13.4139 8.82325C13.2132 8.8279 12.9802 8.80882 12.7795 8.81333C12.7184 8.70439 12.6643 8.60021 12.6295 8.48234C12.6248 8.46567 12.5072 8.42664 12.5031 8.41115V8.41118ZM13.0893 9.25079C13.211 9.23523 13.3397 9.24161 13.4615 9.22598C13.476 9.33609 13.4903 9.43088 13.4638 9.54439C13.304 9.49376 13.1889 9.37709 13.0894 9.25074L13.0893 9.25079ZM13.5179 9.2201C13.6303 9.25924 13.6173 9.2843 13.7219 9.27107C13.7128 9.25329 13.7062 9.24245 13.6971 9.22465C13.6036 9.22501 13.6176 9.232 13.5179 9.22V9.2201ZM10.909 9.23773H11.4545V9.24296C11.4486 9.24284 11.4431 9.24286 11.4375 9.24274C11.3739 9.28141 11.3553 9.33108 11.2349 9.42635C11.2355 9.39386 11.1979 9.35042 11.1758 9.36047C11.0968 9.39634 10.9922 9.42985 10.9085 9.51965C10.9332 9.41532 10.9332 9.33339 10.9659 9.24019C10.9472 9.23959 10.9282 9.23903 10.909 9.23788L10.909 9.23773ZM11.0916 8.82925C11.245 8.8225 11.5943 8.82961 11.8943 8.81646C11.8874 8.68312 11.8984 8.52223 11.928 8.37114C11.6422 8.37348 11.4826 8.40571 11.2148 8.47906C11.2148 8.47906 11.1125 8.71008 11.0916 8.82925Z" fill="currentColor"/>
</g>
</g>
</g>
<defs>
<filter id="filter0_d_3396_60175" x="-6" y="-5" width="36" height="36" filterUnits="userSpaceOnUse" color-interpolation-filters="sRGB">
<feFlood flood-opacity="0" result="BackgroundImageFix"/>
<feColorMatrix in="SourceAlpha" type="matrix" values="0 0 0 0 0 0 0 0 0 0 0 0 0 0 0 0 0 0 127 0" result="hardAlpha"/>
<feOffset dy="1"/>
<feGaussianBlur stdDeviation="3"/>
<feComposite in2="hardAlpha" operator="out"/>
<feColorMatrix type="matrix" values="0 0 0 0 0 0 0 0 0 0 0 0 0 0 0 0 0 0 0.08 0"/>
<feBlend mode="normal" in2="BackgroundImageFix" result="effect1_dropShadow_3396_60175"/>
<feBlend mode="normal" in="SourceGraphic" in2="effect1_dropShadow_3396_60175" result="shape"/>
</filter>
<clipPath id="clip0_3396_60175">
<rect width="24" height="24" fill="currentColor"/>
</clipPath>
<clipPath id="clip1_3396_60175">
<path d="M0 12C0 5.37258 5.37258 0 12 0C18.6274 0 24 5.37258 24 12C24 18.6274 18.6274 24 12 24C5.37258 24 0 18.6274 0 12Z" fill="currentColor"/>
</clipPath>
</defs>
</svg>
