<svg width="344" height="40" viewBox="0 0 344 40" fill="none" xmlns="http://www.w3.org/2000/svg">
<path d="M78.7438 4.54534C81.3915 4.54534 84.122 5.37176 86.356 6.94197L84.6184 9.17331C82.7981 7.93368 81.226 7.18989 78.9093 7.18989C74.8549 7.18989 71.7107 9.66917 71.7107 13.3881C71.7107 17.0243 74.8549 19.5863 78.9093 19.5863C81.3088 19.5863 82.9636 18.8425 84.8667 17.5202L86.6042 19.7515C84.2875 21.4044 81.4742 22.2308 78.661 22.2308C73.1173 22.2308 67.9046 19.0078 67.9046 13.3881C67.9873 7.76839 73.2001 4.54534 78.7438 4.54534ZM90.5758 4.87591H99.8429C104.145 4.87591 107.621 6.6114 107.621 10.3303C107.621 13.2228 105.469 14.793 102.573 15.4541L108.117 21.9003H103.815L98.7673 15.95H94.2165V21.9003H90.5758V4.87591ZM99.512 13.3054C102.077 13.3054 103.732 12.2311 103.732 10.413C103.732 8.59482 102.16 7.60311 99.4292 7.60311H94.1337V13.3054H99.512ZM111.923 16.9417V4.79326H127.396V7.52046H115.564V11.6526H126.403V14.2971H115.564V16.9417C115.564 18.4293 116.309 19.1731 117.715 19.1731H127.727V21.9003H116.888C113.744 21.9003 111.923 20.0821 111.923 16.9417ZM123.673 0L120.859 2.97513H117.715L119.866 0H123.673ZM132.36 4.87591H140.055C146.675 4.87591 151.06 8.26425 151.06 13.3881C151.06 18.5119 146.675 21.9003 140.055 21.9003H132.36V4.87591ZM140.304 19.1731C144.441 19.1731 147.254 16.8591 147.254 13.3881C147.254 9.9171 144.441 7.60311 140.304 7.60311H136.001V19.1731H140.304Z" fill="#007858"/>
<path d="M155.198 4.87586H158.84V21.8994H155.198V4.87586Z" fill="#007858"/>
<path d="M162.727 7.60251V4.87586H179.524V7.60251H172.987V21.8994H169.347V7.60251H162.727Z" fill="#007858"/>
<path d="M202.527 17.7686H193.094L191.025 21.9007H187.302L196.155 4.87636H199.879L208.732 21.9007H204.512L202.527 17.7686ZM201.203 15.124L197.81 8.34734L194.418 15.124H201.203ZM220.895 4.54579C223.543 4.54579 226.273 5.37221 228.507 6.94242L226.77 9.17377C224.95 7.93413 223.377 7.19035 221.061 7.19035C217.006 7.19035 213.862 9.66962 213.862 13.3059C213.862 16.9422 216.675 19.5041 220.895 19.5041C222.798 19.5041 224.536 19.0082 225.694 18.1818V14.9587H220.564V12.3142H229.335V19.5041C227.266 20.9916 224.37 22.1486 220.73 22.1486C214.276 22.1486 210.056 18.3471 210.056 13.3059C210.139 7.76884 215.352 4.54579 220.895 4.54579ZM234.382 4.87636H243.649C247.952 4.87636 251.427 6.61185 251.427 10.3308C251.427 13.2232 249.276 14.7935 246.38 15.4546L251.923 21.9007H247.621L242.574 15.9504H238.023V21.9007H234.382V4.87636ZM243.318 13.3059C245.883 13.3059 247.538 12.2315 247.538 10.4134C247.538 8.59527 245.966 7.60356 243.236 7.60356H237.94V13.3059H243.318Z" fill="#007858"/>
<path d="M256.309 4.87586H259.949V21.8994H256.309V4.87586Z" fill="#007858"/>
<path d="M275.091 4.54579C277.738 4.54579 280.469 5.37221 282.703 6.94242L280.965 9.17377C279.145 7.93413 277.573 7.19035 275.256 7.19035C271.202 7.19035 268.057 9.66962 268.057 13.3885C268.057 17.0248 271.202 19.5867 275.256 19.5867C277.656 19.5867 279.31 18.8429 281.213 17.5207L282.951 19.752C280.634 21.4049 277.821 22.2313 275.008 22.2313C269.464 22.2313 264.251 19.0082 264.251 13.3885C264.417 7.76884 269.63 4.54579 275.091 4.54579ZM284.689 13.3885C284.689 8.59527 289.157 4.54579 295.445 4.54579C301.733 4.54579 306.201 8.51263 306.201 13.3885C306.201 18.1818 301.733 22.2313 295.445 22.2313C289.157 22.1486 284.689 18.1818 284.689 13.3885ZM288.495 13.3885C288.495 16.8595 291.308 19.5867 295.528 19.5867C299.665 19.5867 302.561 16.8595 302.561 13.3885C302.561 9.91755 299.748 7.19035 295.528 7.19035C291.308 7.19035 288.495 9.91755 288.495 13.3885Z" fill="#007858"/>
<path d="M309.924 4.87586H313.565V19.1728H324.404V21.8994H309.924V4.87586Z" fill="#007858"/>
<path d="M326.97 16.9413V4.79285H342.442V7.52005H330.61V11.6522H341.449V14.2967H330.61V16.9413C330.61 18.4289 331.355 19.1726 332.761 19.1726H342.773V21.8998H331.934C328.79 21.8998 326.97 20.0817 326.97 16.9413Z" fill="#007858"/>
<path d="M74.4421 30.0823C75.9314 30.0823 77.4208 30.4955 78.6619 31.4046L77.7517 32.6442C76.7588 31.9004 75.9314 31.5698 74.6075 31.5698C72.3735 31.5698 70.6359 32.9748 70.6359 35.0408C70.6359 37.1069 72.3735 38.5118 74.6075 38.5118C75.9314 38.5118 76.8416 38.0986 77.9172 37.3548L78.8274 38.5944C77.5863 39.5035 76.0142 39.9994 74.4421 39.9994C71.3806 39.9994 68.4847 38.1812 68.4847 35.0408C68.5674 31.9004 71.4634 30.0823 74.4421 30.0823ZM79.4893 35.0408C79.4893 32.3963 81.9716 30.1649 85.4467 30.1649C88.9219 30.1649 91.4041 32.3963 91.4041 35.0408C91.4041 37.6854 88.9219 39.9167 85.4467 39.9167C81.9716 39.9167 79.4893 37.6854 79.4893 35.0408ZM81.6406 35.0408C81.6406 36.9416 83.2127 38.5118 85.5295 38.5118C87.8462 38.5118 89.4183 37.0242 89.4183 35.0408C89.4183 33.14 87.8462 31.5698 85.5295 31.5698C83.2127 31.5698 81.6406 33.14 81.6406 35.0408ZM93.059 30.2476H98.189C100.588 30.2476 102.492 31.2393 102.492 33.3053C102.492 34.9582 101.333 35.7846 99.6783 36.1152L102.74 39.6688H100.423L97.6098 36.3631H95.1275V39.6688H93.1417V30.2476H93.059ZM98.0235 34.9582C99.4301 34.9582 100.34 34.3797 100.34 33.3053C100.34 32.3136 99.4301 31.7351 98.0235 31.7351H95.1275V34.9582H98.0235ZM104.726 30.2476H109.856C112.255 30.2476 114.241 31.3219 114.241 33.5533C114.241 35.7846 112.255 36.9416 109.856 36.9416H106.711V39.8341H104.726V30.2476ZM109.773 35.3714C111.179 35.3714 112.172 34.7103 112.172 33.5533C112.172 32.3963 111.262 31.8178 109.773 31.8178H106.711V35.3714H109.773ZM114.903 35.0408C114.903 32.3963 117.385 30.1649 120.86 30.1649C124.335 30.1649 126.818 32.3963 126.818 35.0408C126.818 37.6854 124.335 39.9167 120.86 39.9167C117.385 39.9167 114.903 37.6854 114.903 35.0408ZM117.054 35.0408C117.054 36.9416 118.626 38.5118 120.943 38.5118C123.26 38.5118 124.832 37.0242 124.832 35.0408C124.832 33.14 123.26 31.5698 120.943 31.5698C118.626 31.5698 117.054 33.14 117.054 35.0408ZM128.638 30.2476H133.768C136.167 30.2476 138.071 31.2393 138.071 33.3053C138.071 34.9582 136.912 35.7846 135.257 36.1152L138.319 39.6688H136.002L133.189 36.3631H130.706V39.6688H128.721V30.2476H128.638ZM133.602 34.9582C135.009 34.9582 135.919 34.3797 135.919 33.3053C135.919 32.3136 135.009 31.7351 133.602 31.7351H130.706V34.9582H133.602ZM147.255 37.5201H142.042L140.884 39.8341H138.815L143.697 30.3302H145.765L150.647 39.8341H148.33L147.255 37.5201ZM146.51 36.0325L144.69 32.231L142.87 36.0325H146.51Z" fill="#72787A"/>
<path d="M149.902 31.8175V30.3293H159.168V31.8175H155.528V39.7511H153.542V31.8175H149.902Z" fill="#72787A"/>
<path d="M160.741 37.0246V30.2479H169.264V31.7355H162.727V34.0495H168.684V35.537H162.727V37.0246C162.727 37.851 163.141 38.2642 163.885 38.2642H169.429V39.7518H163.472C161.734 39.7518 160.741 38.7601 160.741 37.0246ZM180.186 38.6775C179.358 39.4212 178.448 39.9171 177.29 39.9171C175.552 39.9171 174.228 38.8427 174.228 37.1899C174.228 35.9503 174.973 35.1238 176.214 34.5453C175.717 33.8842 175.469 33.2231 175.469 32.5619C175.469 31.3223 176.462 30.1653 178.2 30.1653C179.689 30.1653 180.682 31.157 180.682 32.4793C180.682 33.7189 179.855 34.4627 178.613 34.9585L180.186 36.6114C180.516 36.0329 180.847 35.4544 181.178 34.7933L182.42 35.4544C182.006 36.1982 181.592 36.942 181.178 37.6031L182.668 39.0907L181.427 39.9997L180.186 38.6775ZM179.275 37.6857L177.207 35.537C176.297 35.9503 175.966 36.5287 175.966 37.1072C175.966 37.9337 176.628 38.5122 177.538 38.5122C178.117 38.5122 178.696 38.1816 179.275 37.6857ZM179.193 32.5619C179.193 31.9008 178.779 31.4876 178.117 31.4876C177.455 31.4876 177.041 31.9834 177.041 32.6446C177.041 33.1404 177.207 33.471 177.786 34.0495C178.696 33.6363 179.193 33.2231 179.193 32.5619Z" fill="#72787A"/>
<path d="M187.962 30.2463H189.949V39.7502H187.962V30.2463Z" fill="#72787A"/>
<path d="M194.831 32.973V39.7502H192.845V30.2463H194.831L200.623 37.0225V30.2463H202.609V39.7502H200.623L194.831 32.973Z" fill="#72787A"/>
<path d="M215.434 30.2463L210.8 39.7502H208.731L204.016 30.2463H206.332L209.89 37.7671L213.447 30.2463H215.434Z" fill="#72787A"/>
<path d="M216.509 37.0242V30.2476H225.032V31.7351H218.495V34.0491H224.453V35.5367H218.495V37.0242C218.495 37.8507 218.909 38.2639 219.654 38.2639H225.197V39.7514H219.24C217.502 39.7514 216.509 38.7597 216.509 37.0242ZM226.687 38.4292L227.597 37.0242C228.838 37.9333 230.493 38.3465 231.899 38.3465C233.389 38.3465 234.63 37.9333 234.63 37.1895C234.63 36.4457 233.306 36.1978 231.734 35.8672C229.583 35.3714 227.018 34.8755 227.018 32.9748C227.018 31.2393 229.169 30.0823 231.651 30.0823C233.389 30.0823 235.126 30.5781 236.45 31.4872L235.54 32.8921C234.464 32.0657 233.058 31.6525 231.734 31.6525C230.41 31.6525 229.086 32.0657 229.086 32.7268C229.086 33.388 230.327 33.6359 231.817 33.8838C233.968 34.297 236.698 34.8755 236.698 36.9416C236.698 38.8424 234.464 39.9167 231.982 39.9167C230.079 39.9167 228.093 39.3382 226.687 38.4292Z" fill="#72787A"/>
<path d="M237.608 31.8175V30.3293H246.876V31.8175H243.235V39.7511H241.25V31.8175H237.608Z" fill="#72787A"/>
<path d="M257.384 30.2463H259.536V39.7502H257.549V32.6423L253.826 37.9313L250.186 32.8076V39.7502H248.448V30.2463H250.6L253.991 35.0393L257.384 30.2463Z" fill="#72787A"/>
<path d="M261.852 37.023V30.2463H270.374V31.7339H263.838V34.0479H269.795V35.5354H263.838V37.023C263.838 37.8494 264.252 38.2627 264.996 38.2627H270.54V39.7502H264.582C262.845 39.7502 261.852 38.7585 261.852 37.023Z" fill="#72787A"/>
<path d="M274.843 32.973V39.7502H272.858V30.2463H274.843L280.635 37.0225V30.2463H282.62V39.7502H280.635L274.843 32.973Z" fill="#72787A"/>
<path d="M284.109 31.8175V30.3293H293.377V31.8175H289.736V39.7511H287.75V31.8175H284.109Z" fill="#72787A"/>
<path d="M308.519 37.1057C308.519 38.8411 306.781 39.7502 304.63 39.7502H298.755V30.2463H304.216C306.368 30.2463 308.105 31.1554 308.105 32.8082C308.105 33.8 307.526 34.4611 306.616 34.8743C307.774 35.2049 308.519 35.9487 308.519 37.1057ZM300.741 31.8165V34.2958H304.051C305.209 34.2958 305.954 33.8826 305.954 33.0562C305.954 32.3124 305.209 31.8165 303.968 31.8165H300.741ZM306.368 36.9404C306.368 36.1139 305.623 35.7007 304.465 35.7007H300.741V38.2627H304.465C305.623 38.2627 306.368 37.7668 306.368 36.9404ZM317.124 37.5189H311.911L310.753 39.8329H308.684L313.566 30.329H315.635L320.516 39.8329H318.2L317.124 37.5189ZM316.379 36.0313L314.559 32.2298L312.739 36.0313H316.379Z" fill="#72787A"/>
<path d="M323.494 32.973V39.7502H321.509V30.2463H323.494L329.286 37.0225V30.2463H331.271V39.7502H329.286L323.494 32.973Z" fill="#72787A"/>
<path d="M337.478 35.37L335.823 36.775V39.7502H333.838V30.2463H335.823V34.7919L340.87 30.2463H343.187L338.802 34.0472L343.683 39.667H341.201L337.478 35.37Z" fill="#72787A"/>
<path d="M38.6153 26.0327L44.9036 22.727L49.5372 32.3962H42.5869C42.5869 32.3962 41.263 32.3962 40.6838 31.2392C40.1874 29.8342 38.6153 26.0327 38.6153 26.0327Z" fill="#72787A"/>
<path d="M51.0266 35.4552H0.719709V39.9175H51.0266V35.4552Z" fill="#72787A"/>
<path d="M54.667 7.02515C54.667 7.02515 46.7238 11.5705 44.9035 12.2316C43.1659 12.8928 42.5867 11.9837 42.3385 11.7358C41.842 11.0746 41.0974 8.76065 41.0146 8.43008C41.0974 8.43008 41.5111 8.51272 42.504 8.26479C43.7451 7.93422 54.5843 1.90132 54.667 1.90132V7.02515Z" fill="#007858"/>
<path d="M42.0071 16.3647L36.7943 4.87741H29.2648L18.6739 24.629C18.6739 24.629 23.8866 24.4637 27.1963 21.9844C28.0237 21.4886 30.4232 15.2077 32.5745 11.0756L35.9669 19.5878C30.8369 22.2323 25.9551 24.5463 23.3074 25.2901C16.3571 27.2735 7.91743 28.5132 4.93873 25.786C2.12551 23.224 8.66211 12.6458 21.0734 10.3318C23.0592 9.9186 24.3003 10.0012 24.3003 10.0012C24.3003 10.0012 23.4729 6.36498 22.811 5.6212C21.9008 4.4642 20.9906 4.21627 19.584 4.4642C16.8536 4.62949 5.43518 7.68726 0.884382 17.1911C-1.59787 22.6455 1.7118 28.0999 3.86309 29.6702C4.85599 30.4139 11.3926 36.1989 26.4516 30.3313C41.2624 24.5463 54.5838 15.5383 54.5838 15.5383V9.50539C54.6666 9.34011 48.8746 12.7284 42.0071 16.3647Z" fill="#72787A"/>
</svg>
