<svg width="24" height="24" viewBox="0 0 24 24" fill="none" xmlns="http://www.w3.org/2000/svg">
<g clip-path="url(#clip0_6029_7551)">
<g clip-path="url(#clip1_6029_7551)">
<path d="M19.5682 2.19271C19.585 2.18596 19.6018 2.18055 19.6187 2.17515C19.6294 2.17177 19.6402 2.16907 19.6503 2.16637C19.6604 2.16367 19.6698 2.16164 19.6793 2.16029C19.692 2.15759 19.7048 2.15557 19.717 2.15421C19.7244 2.15354 19.7311 2.15286 19.7385 2.15219C19.754 2.15084 19.7695 2.15084 19.7843 2.15151C19.7877 2.15151 19.791 2.15151 19.7951 2.15151C19.8132 2.15286 19.8308 2.15489 19.8476 2.15827C19.8516 2.15894 19.8557 2.16029 19.8604 2.16097C19.8738 2.16435 19.8866 2.16772 19.8994 2.17245C19.9035 2.1738 19.9075 2.17515 19.9115 2.1765C19.9277 2.18258 19.9432 2.19001 19.958 2.19879L19.4833 1.9219C19.4833 1.9219 19.4806 1.92055 19.4793 1.91987C19.4678 1.91312 19.4557 1.90772 19.4436 1.90231C19.4416 1.90164 19.4389 1.90096 19.4369 1.89961C19.4328 1.89826 19.4288 1.89691 19.4247 1.89556C19.4187 1.89353 19.4126 1.89083 19.4059 1.88881C19.3992 1.88678 19.3924 1.88543 19.385 1.88408C19.381 1.8834 19.3769 1.88205 19.3722 1.88138C19.3702 1.88138 19.3675 1.88003 19.3655 1.88003C19.3514 1.87733 19.3372 1.87598 19.3224 1.8753C19.3217 1.8753 19.3204 1.8753 19.3197 1.8753C19.3163 1.8753 19.313 1.8753 19.3089 1.8753C19.2975 1.8753 19.2867 1.87462 19.2753 1.8753C19.2712 1.8753 19.2672 1.87598 19.2631 1.87665C19.2564 1.87665 19.249 1.878 19.2416 1.87868C19.2349 1.87935 19.2281 1.87935 19.2214 1.8807C19.2153 1.88138 19.2093 1.8834 19.2039 1.88475C19.1945 1.88678 19.1844 1.88881 19.1749 1.89083C19.1696 1.89218 19.1648 1.89286 19.1595 1.89421C19.1541 1.89556 19.1487 1.89826 19.1433 1.89961C19.1265 1.90434 19.1096 1.91042 19.0928 1.91717C19.0867 1.9192 19.0814 1.92055 19.0753 1.92325C19.0692 1.92595 19.0638 1.92865 19.0578 1.93135C19.0524 1.93405 19.0463 1.93676 19.041 1.93946C19.0194 1.94959 18.9979 1.96039 18.9756 1.97322L4.51827 10.3454C4.49537 10.3589 4.47248 10.3731 4.45026 10.3886C4.44286 10.3933 4.43612 10.3994 4.42872 10.4042C4.4139 10.415 4.39842 10.4264 4.38361 10.4379C4.37553 10.4447 4.36745 10.4514 4.35937 10.4582C4.3459 10.4697 4.33243 10.4811 4.31897 10.4933C4.31089 10.5007 4.30281 10.5082 4.29473 10.5156C4.29001 10.5203 4.28463 10.525 4.27924 10.5298C4.27386 10.5352 4.26914 10.5406 4.26376 10.546C4.2476 10.5622 4.23144 10.5797 4.21595 10.5966C4.21124 10.602 4.20585 10.6074 4.20114 10.6128C4.1971 10.6176 4.19306 10.6223 4.18902 10.627C4.17959 10.6385 4.17017 10.6493 4.16141 10.6608C4.15535 10.6682 4.14929 10.6756 4.14323 10.6831C4.13852 10.6891 4.13381 10.6959 4.12909 10.702C4.12236 10.7108 4.11563 10.7195 4.10957 10.729C4.10485 10.7351 4.10014 10.7411 4.0961 10.7479C4.08869 10.7587 4.08196 10.7695 4.07455 10.7803C4.06984 10.7871 4.06513 10.7938 4.06041 10.8012C4.05839 10.804 4.05638 10.8073 4.05436 10.81C4.04156 10.8296 4.02944 10.8499 4.01732 10.8708C4.01665 10.8722 4.01598 10.8735 4.0153 10.8749C4.01328 10.8789 4.01059 10.883 4.00857 10.887C4.00049 10.9019 3.99174 10.9161 3.98433 10.9309C3.98096 10.9377 3.9776 10.9444 3.97423 10.9512C3.97086 10.9579 3.96682 10.9654 3.96346 10.9728C3.96009 10.9789 3.95672 10.9856 3.95403 10.9917C3.94595 11.0086 3.93855 11.0248 3.93114 11.0417C3.92979 11.045 3.92845 11.0477 3.9271 11.0511C3.9271 11.0518 3.92643 11.0532 3.92575 11.0538C3.91633 11.0748 3.90757 11.0964 3.89949 11.118C3.89815 11.122 3.8968 11.1261 3.89545 11.1295C3.89276 11.1376 3.89007 11.145 3.8867 11.1531C3.88266 11.1639 3.87862 11.1747 3.87525 11.1855C3.87256 11.1936 3.87054 11.2024 3.86785 11.2105C3.86448 11.2206 3.86179 11.2301 3.85909 11.2402C3.85707 11.2463 3.85505 11.2524 3.85371 11.2585C3.85102 11.2693 3.84832 11.2801 3.84563 11.2909C3.84226 11.303 3.83957 11.3152 3.83688 11.3273C3.8362 11.3314 3.83486 11.3361 3.83351 11.3402C3.83149 11.3489 3.83081 11.3577 3.82879 11.3665C3.82543 11.3854 3.82206 11.4043 3.8187 11.4232C3.81802 11.4286 3.81668 11.434 3.816 11.4388C3.81466 11.4509 3.81398 11.4624 3.81264 11.4746C3.81196 11.4827 3.81062 11.4914 3.80994 11.4995C3.80792 11.5259 3.80658 11.5529 3.80658 11.5786L3.83418 21.3399C3.83418 21.5371 3.89545 21.6837 3.99645 21.7674C4.01059 21.7796 4.02608 21.7897 4.04224 21.7991L4.51692 22.076C4.38899 22.0011 4.30954 21.8424 4.30887 21.6168L4.28126 11.8555C4.28126 11.8291 4.28261 11.8028 4.28463 11.7764C4.28463 11.7683 4.28597 11.7596 4.28732 11.7515C4.28867 11.7346 4.29136 11.717 4.29338 11.7001C4.29607 11.6812 4.29944 11.6623 4.30281 11.6434C4.3055 11.6306 4.30752 11.6171 4.31021 11.6042C4.31291 11.5921 4.31627 11.5799 4.31897 11.5678C4.32301 11.5509 4.32772 11.534 4.33243 11.5164C4.33513 11.5063 4.33849 11.4968 4.34119 11.4867C4.34725 11.4678 4.35331 11.4482 4.36004 11.4293C4.36273 11.4212 4.36543 11.4138 4.36812 11.4057C4.37822 11.3793 4.38832 11.353 4.39976 11.3273C4.40111 11.324 4.40246 11.3213 4.4038 11.3179C4.4139 11.2949 4.42468 11.2713 4.43612 11.249C4.43949 11.2416 4.44353 11.2348 4.4469 11.2274C4.45834 11.2058 4.46979 11.1842 4.48191 11.1626C4.48393 11.1585 4.48662 11.1545 4.48864 11.1504C4.50278 11.1254 4.51827 11.1011 4.53375 11.0768C4.53847 11.07 4.54318 11.0633 4.54789 11.0559C4.55934 11.0383 4.57146 11.0214 4.58358 11.0045C4.59031 10.9957 4.59637 10.9863 4.6031 10.9775C4.61388 10.9633 4.62465 10.9498 4.63542 10.9363C4.64485 10.9248 4.6536 10.9134 4.66303 10.9026C4.67178 10.8917 4.68121 10.8816 4.68996 10.8715C4.70545 10.8539 4.72161 10.837 4.73777 10.8208C4.74787 10.8107 4.75797 10.7999 4.76807 10.7904C4.77615 10.783 4.78423 10.7756 4.79231 10.7682C4.80577 10.756 4.81924 10.7445 4.8327 10.733C4.84079 10.7263 4.84886 10.7195 4.85694 10.7128C4.87176 10.7006 4.88657 10.6898 4.90206 10.679C4.90946 10.6736 4.9162 10.6682 4.9236 10.6635C4.94582 10.6479 4.96871 10.6331 4.99161 10.6203L19.4503 2.24876C19.4725 2.23593 19.4941 2.22513 19.5156 2.215C19.521 2.21229 19.5271 2.20959 19.5325 2.20689C19.5446 2.20149 19.556 2.19744 19.5675 2.19271H19.5682Z" fill="#EBF7FF" stroke="black" stroke-width="0.075" stroke-linecap="round" stroke-linejoin="round"/>
<path d="M19.45 2.24865C19.8439 2.02038 20.1644 2.2034 20.1657 2.65722L20.1934 12.4186C20.1947 12.8731 19.8762 13.4262 19.4823 13.6544L5.02496 22.0266C4.63107 22.2549 4.31057 22.0719 4.30923 21.6174L4.28162 11.856C4.28028 11.4022 4.59875 10.8491 4.99264 10.6208L19.45 2.24865Z" fill="#017AFF" stroke="black" stroke-width="0.075" stroke-linecap="round" stroke-linejoin="round"/>
<path d="M20.1686 3.22168L20.1733 4.88166L4.28652 14.0818L4.28181 12.4211L20.1686 3.22168Z" fill="#EBF7FF" stroke="black" stroke-width="0.075" stroke-linecap="round" stroke-linejoin="round"/>
<path d="M18.8115 10.4248V10.4802L12.5928 14.0818L12.5921 14.0264L18.8115 10.4248Z" fill="black"/>
<path d="M18.7449 11.5128C18.9375 11.4014 19.0944 11.4905 19.0944 11.7127L19.0957 12.2645C19.0957 12.4867 18.9408 12.7575 18.7483 12.8689L13.2271 16.0666C13.0339 16.1787 12.8777 16.0882 12.877 15.8667L12.8756 15.315C12.8756 15.0928 13.0305 14.8227 13.2237 14.7112L18.7449 11.5135V11.5128Z" fill="#EBF7FF" stroke="black" stroke-width="0.075" stroke-linecap="round" stroke-linejoin="round"/>
<path d="M11.935 15.5784C12.0999 15.4825 12.2346 15.5595 12.2353 15.7493L12.2373 16.4158C12.2373 16.6063 12.104 16.8386 11.939 16.9338L10.3796 17.8367C10.2147 17.9326 10.08 17.8556 10.0793 17.6652L10.0773 16.9986C10.0773 16.8082 10.2106 16.5765 10.3756 16.4813L11.935 15.5784Z" fill="#EBF7FF" stroke="black" stroke-width="0.075" stroke-linecap="round" stroke-linejoin="round"/>
<circle cx="20.925" cy="4.05" r="1.8" fill="#DF3C27"/>
</g>
</g>
<defs>
<clipPath id="clip0_6029_7551">
<rect width="24" height="24" fill="white"/>
</clipPath>
<clipPath id="clip1_6029_7551">
<rect width="24" height="24" fill="white" transform="matrix(-1 0 0 1 24 0)"/>
</clipPath>
</defs>
</svg>
