<svg width="313" height="40" viewBox="0 0 313 40" fill="none" xmlns="http://www.w3.org/2000/svg">
<path d="M127.697 12.416H107.572V16.9371L108.179 16.882V16.8269C108.289 16.1652 109.502 14.8971 110.991 14.8971C110.991 14.8971 115.291 14.8971 115.457 14.8971C115.457 15.1177 115.457 38.2193 115.457 38.2193H119.868C119.868 38.2193 119.868 15.1177 119.868 14.9523C120.088 14.9523 124.444 14.9523 124.444 14.9523C125.988 14.9523 126.98 15.7792 127.145 16.5511V16.6614H127.807L127.752 12.5263H127.697V12.416Z" fill="currentColor"/>
<path d="M27.2372 12.416H27.127V13.0225L27.1821 13.0777C27.568 13.2982 27.9539 14.2355 27.9539 15.3933V38.2193H32.2545C32.2545 38.2193 32.2545 26.6961 32.2545 26.4755C32.475 26.4755 34.1843 26.4755 34.1843 26.4755C35.8935 26.5858 36.5551 27.6885 37.3821 29.122L37.4924 29.2874L38.0437 30.1696C38.981 31.7134 40.2491 33.8085 41.5173 35.7934C42.4546 37.1718 43.6124 37.9988 45.101 38.2193C46.1486 38.3847 48.2439 38.3296 49.0709 38.1091L50.0082 37.8885L50.3942 37.7782L49.0709 37.3923C48.5195 37.2269 47.6924 36.8409 46.5897 35.5728C45.8729 34.8009 44.7702 32.9815 43.061 30.335L41.407 27.6885L41.3518 27.6334C40.9108 26.9717 40.1389 25.9242 38.8708 25.2625C41.2967 24.4907 43.6675 22.2852 43.6675 18.9771C43.6675 18.0398 43.447 16.2755 41.8481 14.7317C40.2491 13.1879 37.7129 12.416 34.2945 12.416H27.2372ZM34.6253 14.7317C39.0362 14.8971 39.1464 18.6463 39.1464 19.0323C39.1464 22.7815 36.3897 24.1047 33.9637 24.1047C33.9637 24.1047 32.4199 24.0496 32.2545 24.0496C32.2545 23.829 32.2545 14.9523 32.2545 14.7317C32.7507 14.7317 33.5777 14.6765 34.6253 14.7317Z" fill="currentColor"/>
<path d="M71.3457 12.4155H71.2354L71.2903 13.0771H71.3457C71.7317 13.2425 72.0623 14.1798 72.0623 14.9517V38.1637H79.4503C84.3023 38.1637 88.3823 36.6751 91.139 33.808C93.4551 31.4372 94.7231 28.1842 94.7231 24.8761C94.7231 22.8912 94.0614 19.8588 92.1317 17.3777C89.5954 14.0696 85.5703 12.3604 80.112 12.3604L71.3457 12.4155ZM76.4734 14.8966C76.6937 14.8966 78.7891 14.8966 78.7891 14.8966C79.3953 14.8966 80.939 14.9517 82.0421 15.1171C89.3197 16.2198 90.0917 22.3399 90.0917 24.8761C90.0917 26.9712 89.7057 30.0037 87.8864 32.3193C86.1221 34.5799 83.365 35.7378 79.6161 35.7378C78.7337 35.7378 77.631 35.7377 76.418 35.6826C76.4734 35.5172 76.4734 15.1171 76.4734 14.8966Z" fill="currentColor"/>
<path d="M103.655 12.416H98.582V13.0225L98.6374 13.0777C99.0784 13.2982 99.409 14.1252 99.409 15.2279V38.2193H103.71V12.4711L103.655 12.416Z" fill="currentColor"/>
<path d="M65.7781 12.416H51.2773L51.3328 13.0225H51.3877C51.7737 13.2431 52.2147 14.1252 52.2147 15.3382V38.1642H66.66L67.7077 33.588L67.1014 33.3674L66.9357 33.6431C65.7226 35.5177 64.5101 35.7382 60.3198 35.7382C58.8311 35.7934 57.3424 35.628 56.46 35.5728C56.46 35.4074 56.46 25.2625 56.46 25.042C56.6807 25.042 63.793 25.042 63.793 25.042V22.7263C63.793 22.7263 56.6807 22.7263 56.46 22.7263C56.46 22.5058 56.46 14.8971 56.46 14.7317C56.6807 14.7317 62.4147 14.7868 62.4147 14.7868C63.7381 14.7868 65.2267 16.055 65.3371 16.8269V16.9371H65.9434L65.7781 12.416Z" fill="currentColor"/>
<path d="M186.687 12.416H181.614L181.669 13.0225H181.725C182.166 13.2431 182.496 14.1252 182.496 15.2279V38.2193H186.797V12.4711L186.687 12.416Z" fill="currentColor"/>
<path d="M246.896 12.4155H232.45L232.506 13.0771H232.561C232.947 13.2977 233.388 14.1247 233.388 15.3377V38.1637H247.833L248.881 33.5875L248.219 33.3669L248.054 33.6426C246.841 35.5172 245.628 35.7378 241.493 35.7378C240.004 35.7929 238.515 35.6275 237.633 35.5724C237.633 35.4069 237.633 25.262 237.633 25.0415C237.854 25.0415 244.966 25.0415 244.966 25.0415V22.7258C244.966 22.7258 237.854 22.7258 237.633 22.7258C237.633 22.5053 237.633 14.8966 237.633 14.7312C237.854 14.7312 243.588 14.7863 243.588 14.7863C245.242 14.7863 246.455 15.9993 246.455 16.8263V16.9366L247.116 16.8815L247.006 12.3604L246.896 12.4155Z" fill="currentColor"/>
<path d="M193.69 18.9218C193.635 22.5056 195.785 24.2699 199.314 26.0342L200.637 26.6959C203.394 28.0742 205.213 28.9564 205.213 31.5478C205.213 31.9889 205.103 33.5326 203.945 34.7456C203.118 35.5726 201.96 35.9586 200.527 35.9586C196.392 35.9035 194.903 32.7056 194.352 30.831L194.241 30.5002L193.359 30.6656L193.58 36.0689L193.8 36.1791C195.179 36.951 197.494 38.2743 200.747 38.3294C203.118 38.3294 205.489 37.3921 207.088 35.7932C208.521 34.3597 209.293 32.5953 209.293 30.6105C209.293 26.0893 206.151 24.4905 202.842 22.7261L202.236 22.3953C198.652 20.631 197.439 19.8039 197.439 17.8191C197.439 16.4407 198.487 14.3455 201.354 14.4007C204.827 14.4558 206.316 16.9369 206.647 18.2601L206.757 18.6461L207.639 18.5358L207.308 13.7942L207.143 13.6839C205.158 12.3607 202.677 12.1953 201.685 12.1953C197.825 12.1401 193.745 14.5109 193.69 18.9218Z" fill="currentColor"/>
<path d="M137.013 18.9211C136.957 22.505 139.108 24.2692 142.636 26.0336L143.96 26.6952C146.716 28.0736 148.536 28.9558 148.536 31.5471C148.536 31.9882 148.426 33.532 147.268 34.745C146.441 35.572 145.283 35.958 143.849 35.958C139.714 35.9028 138.226 32.705 137.674 30.8304L137.564 30.4996L136.682 30.665L136.902 36.0682L137.123 36.1785C138.501 36.9504 140.817 38.2736 144.07 38.3288C146.441 38.3288 148.811 37.3915 150.41 35.7926C151.844 34.359 152.616 32.5947 152.616 30.6098C152.616 26.0887 149.473 24.4898 146.165 22.7255L145.559 22.3947C141.975 20.6304 140.762 19.8033 140.762 17.8184C140.762 16.44 141.809 14.3449 144.676 14.4C148.15 14.4552 149.639 16.9363 149.969 18.2595L150.08 18.6455L150.962 18.5352L150.686 13.8487L150.521 13.7384C148.536 12.4152 146.055 12.2498 145.062 12.2498C141.203 12.1395 137.068 14.5103 137.013 18.9211Z" fill="currentColor"/>
<path d="M213.044 18.9203C212.99 22.5041 215.14 24.2684 218.669 26.0327L219.991 26.6944C222.749 28.0727 224.568 28.9549 224.568 31.5463C224.568 31.9874 224.457 33.5312 223.3 34.7441C222.473 35.5712 221.315 35.9571 219.882 35.9571C215.746 35.902 214.257 32.7041 213.706 30.8295L213.596 30.4987L212.714 30.6641L212.935 36.0674L213.155 36.1777C214.533 36.9496 216.849 38.2728 220.102 38.3279C222.473 38.3279 224.844 37.3906 226.443 35.7917C227.876 34.3582 228.648 32.5939 228.648 30.609C228.648 26.0879 225.505 24.489 222.197 22.7246L221.59 22.3938C218.007 20.6295 216.794 19.8025 216.794 17.8176C216.794 16.9354 217.18 16.0533 217.842 15.3916C218.558 14.73 219.55 14.3441 220.709 14.3441C224.182 14.3992 225.67 16.8803 226.002 18.2035L226.111 18.5343L226.994 18.4241L226.718 13.7376L226.553 13.6273C224.568 12.3041 222.087 12.1387 221.095 12.1387C217.235 12.1387 213.1 14.5095 213.044 18.9203Z" fill="currentColor"/>
<path d="M175.934 12.4159H172.516L172.571 13.0224H172.626C172.792 13.1327 173.343 13.5186 173.343 15.1176V29.7284C173.343 32.5403 172.295 35.9587 167.333 35.9587C162.647 35.9587 161.654 33.1468 161.654 28.9565V12.3608H156.251L156.306 12.9121H156.361C156.692 13.0776 157.299 13.7943 157.299 15.1727V28.9014C157.299 37.4473 162.922 38.3847 167.168 38.3847C169.263 38.3847 175.989 37.7781 175.989 29.7284V12.3057L175.934 12.4159Z" fill="currentColor"/>
<path d="M3.58379 16.1083C1.32325 18.5894 0 21.8975 0 25.3159C0 29.1202 1.48866 32.5386 4.19028 35.0197C6.78164 37.3905 10.2 38.6586 13.8941 38.6586C15.8239 38.6586 19.6282 38.3278 23.2671 36.0672L23.4325 35.957L23.8736 30.6088L23.1568 30.5537L23.0466 30.7742C20.3449 36.5634 16.1546 35.7364 14.5557 35.7364C7.44328 35.7364 5.0173 30.4986 5.0173 24.8196C5.0173 19.3612 7.44328 14.6747 14.6108 14.6747C16.8163 14.6747 20.786 14.6196 22.8812 19.5818L22.9914 19.8575L23.6531 19.6369L23.212 14.0683L23.0466 14.0131C19.6833 12.5244 16.9817 11.8628 14.28 11.8628C9.92434 11.8077 6.23031 13.2963 3.58379 16.1083Z" fill="currentColor"/>
<path d="M299.167 29.8372C294.37 29.0653 289.187 28.6242 285.383 29.2858C285.163 29.3409 284.997 29.1755 284.997 28.955C284.997 27.6317 284.997 23.3312 283.95 17.983C283.95 17.8728 283.894 17.8177 283.784 17.7625C271.268 8.99601 259.966 3.15167 255.334 0.946258C255.004 0.78085 254.673 1.22193 254.948 1.49761C268.457 13.903 273.198 35.0199 273.805 37.8318C273.86 37.9972 274.025 38.1074 274.191 38.1074C289.353 35.1853 304.57 38.8242 308.816 39.982C309.146 40.0923 309.367 39.6512 309.146 39.4307C306.004 36.0674 302.696 32.9247 299.332 29.9474C299.332 29.8923 299.277 29.8372 299.167 29.8372Z" fill="currentColor"/>
<path d="M311.905 31.9882C299.72 15.6681 282.407 3.64866 276.949 0.06487C276.618 -0.155671 276.287 0.230276 276.508 0.561089C280.698 6.0746 282.848 12.4152 283.896 17.7081C283.896 17.8185 283.951 17.8736 284.006 17.9287C289.024 21.4573 294.151 25.4271 299.224 29.7828C299.279 29.8379 299.334 29.8379 299.389 29.8379C304.682 30.7201 309.534 31.9331 311.519 32.4844C311.85 32.5947 312.07 32.2639 311.905 31.9882Z" fill="currentColor"/>
<path d="M127.697 12.416H107.572V16.9371L108.179 16.882V16.8269C108.289 16.1652 109.502 14.8971 110.991 14.8971C110.991 14.8971 115.291 14.8971 115.457 14.8971C115.457 15.1177 115.457 38.2193 115.457 38.2193H119.868C119.868 38.2193 119.868 15.1177 119.868 14.9523C120.088 14.9523 124.444 14.9523 124.444 14.9523C125.988 14.9523 126.98 15.7792 127.145 16.5511V16.6614H127.807L127.752 12.5263H127.697V12.416Z" fill="currentColor"/>
<path d="M27.2372 12.416H27.127V13.0225L27.1821 13.0777C27.568 13.2982 27.9539 14.2355 27.9539 15.3933V38.2193H32.2545C32.2545 38.2193 32.2545 26.6961 32.2545 26.4755C32.475 26.4755 34.1843 26.4755 34.1843 26.4755C35.8935 26.5858 36.5551 27.6885 37.3821 29.122L37.4924 29.2874L38.0437 30.1696C38.981 31.7134 40.2491 33.8085 41.5173 35.7934C42.4546 37.1718 43.6124 37.9988 45.101 38.2193C46.1486 38.3847 48.2439 38.3296 49.0709 38.1091L50.0082 37.8885L50.3942 37.7782L49.0709 37.3923C48.5195 37.2269 47.6924 36.8409 46.5897 35.5728C45.8729 34.8009 44.7702 32.9815 43.061 30.335L41.407 27.6885L41.3518 27.6334C40.9108 26.9717 40.1389 25.9242 38.8708 25.2625C41.2967 24.4907 43.6675 22.2852 43.6675 18.9771C43.6675 18.0398 43.447 16.2755 41.8481 14.7317C40.2491 13.1879 37.7129 12.416 34.2945 12.416H27.2372ZM34.6253 14.7317C39.0362 14.8971 39.1464 18.6463 39.1464 19.0323C39.1464 22.7815 36.3897 24.1047 33.9637 24.1047C33.9637 24.1047 32.4199 24.0496 32.2545 24.0496C32.2545 23.829 32.2545 14.9523 32.2545 14.7317C32.7507 14.7317 33.5777 14.6765 34.6253 14.7317Z" fill="currentColor"/>
<path d="M71.3457 12.4155H71.2354L71.2903 13.0771H71.3457C71.7317 13.2425 72.0623 14.1798 72.0623 14.9517V38.1637H79.4503C84.3023 38.1637 88.3823 36.6751 91.139 33.808C93.4551 31.4372 94.7231 28.1842 94.7231 24.8761C94.7231 22.8912 94.0614 19.8588 92.1317 17.3777C89.5954 14.0696 85.5703 12.3604 80.112 12.3604L71.3457 12.4155ZM76.4734 14.8966C76.6937 14.8966 78.7891 14.8966 78.7891 14.8966C79.3953 14.8966 80.939 14.9517 82.0421 15.1171C89.3197 16.2198 90.0917 22.3399 90.0917 24.8761C90.0917 26.9712 89.7057 30.0037 87.8864 32.3193C86.1221 34.5799 83.365 35.7378 79.6161 35.7378C78.7337 35.7378 77.631 35.7377 76.418 35.6826C76.4734 35.5172 76.4734 15.1171 76.4734 14.8966Z" fill="currentColor"/>
<path d="M103.655 12.416H98.582V13.0225L98.6374 13.0777C99.0784 13.2982 99.409 14.1252 99.409 15.2279V38.2193H103.71V12.4711L103.655 12.416Z" fill="currentColor"/>
<path d="M65.7781 12.416H51.2773L51.3328 13.0225H51.3877C51.7737 13.2431 52.2147 14.1252 52.2147 15.3382V38.1642H66.66L67.7077 33.588L67.1014 33.3674L66.9357 33.6431C65.7226 35.5177 64.5101 35.7382 60.3198 35.7382C58.8311 35.7934 57.3424 35.628 56.46 35.5728C56.46 35.4074 56.46 25.2625 56.46 25.042C56.6807 25.042 63.793 25.042 63.793 25.042V22.7263C63.793 22.7263 56.6807 22.7263 56.46 22.7263C56.46 22.5058 56.46 14.8971 56.46 14.7317C56.6807 14.7317 62.4147 14.7868 62.4147 14.7868C63.7381 14.7868 65.2267 16.055 65.3371 16.8269V16.9371H65.9434L65.7781 12.416Z" fill="currentColor"/>
<path d="M186.687 12.416H181.614L181.669 13.0225H181.725C182.166 13.2431 182.496 14.1252 182.496 15.2279V38.2193H186.797V12.4711L186.687 12.416Z" fill="currentColor"/>
<path d="M246.896 12.4155H232.45L232.506 13.0771H232.561C232.947 13.2977 233.388 14.1247 233.388 15.3377V38.1637H247.833L248.881 33.5875L248.219 33.3669L248.054 33.6426C246.841 35.5172 245.628 35.7378 241.493 35.7378C240.004 35.7929 238.515 35.6275 237.633 35.5724C237.633 35.4069 237.633 25.262 237.633 25.0415C237.854 25.0415 244.966 25.0415 244.966 25.0415V22.7258C244.966 22.7258 237.854 22.7258 237.633 22.7258C237.633 22.5053 237.633 14.8966 237.633 14.7312C237.854 14.7312 243.588 14.7863 243.588 14.7863C245.242 14.7863 246.455 15.9993 246.455 16.8263V16.9366L247.116 16.8815L247.006 12.3604L246.896 12.4155Z" fill="currentColor"/>
<path d="M193.69 18.9218C193.635 22.5056 195.785 24.2699 199.314 26.0342L200.637 26.6959C203.394 28.0742 205.213 28.9564 205.213 31.5478C205.213 31.9889 205.103 33.5326 203.945 34.7456C203.118 35.5726 201.96 35.9586 200.527 35.9586C196.392 35.9035 194.903 32.7056 194.352 30.831L194.241 30.5002L193.359 30.6656L193.58 36.0689L193.8 36.1791C195.179 36.951 197.494 38.2743 200.747 38.3294C203.118 38.3294 205.489 37.3921 207.088 35.7932C208.521 34.3597 209.293 32.5953 209.293 30.6105C209.293 26.0893 206.151 24.4905 202.842 22.7261L202.236 22.3953C198.652 20.631 197.439 19.8039 197.439 17.8191C197.439 16.4407 198.487 14.3455 201.354 14.4007C204.827 14.4558 206.316 16.9369 206.647 18.2601L206.757 18.6461L207.639 18.5358L207.308 13.7942L207.143 13.6839C205.158 12.3607 202.677 12.1953 201.685 12.1953C197.825 12.1401 193.745 14.5109 193.69 18.9218Z" fill="currentColor"/>
<path d="M137.013 18.9211C136.957 22.505 139.108 24.2692 142.636 26.0336L143.96 26.6952C146.716 28.0736 148.536 28.9558 148.536 31.5471C148.536 31.9882 148.426 33.532 147.268 34.745C146.441 35.572 145.283 35.958 143.849 35.958C139.714 35.9028 138.226 32.705 137.674 30.8304L137.564 30.4996L136.682 30.665L136.902 36.0682L137.123 36.1785C138.501 36.9504 140.817 38.2736 144.07 38.3288C146.441 38.3288 148.811 37.3915 150.41 35.7926C151.844 34.359 152.616 32.5947 152.616 30.6098C152.616 26.0887 149.473 24.4898 146.165 22.7255L145.559 22.3947C141.975 20.6304 140.762 19.8033 140.762 17.8184C140.762 16.44 141.809 14.3449 144.676 14.4C148.15 14.4552 149.639 16.9363 149.969 18.2595L150.08 18.6455L150.962 18.5352L150.686 13.8487L150.521 13.7384C148.536 12.4152 146.055 12.2498 145.062 12.2498C141.203 12.1395 137.068 14.5103 137.013 18.9211Z" fill="currentColor"/>
<path d="M213.044 18.9203C212.99 22.5041 215.14 24.2684 218.669 26.0327L219.991 26.6944C222.749 28.0727 224.568 28.9549 224.568 31.5463C224.568 31.9874 224.457 33.5312 223.3 34.7441C222.473 35.5712 221.315 35.9571 219.882 35.9571C215.746 35.902 214.257 32.7041 213.706 30.8295L213.596 30.4987L212.714 30.6641L212.935 36.0674L213.155 36.1777C214.533 36.9496 216.849 38.2728 220.102 38.3279C222.473 38.3279 224.844 37.3906 226.443 35.7917C227.876 34.3582 228.648 32.5939 228.648 30.609C228.648 26.0879 225.505 24.489 222.197 22.7246L221.59 22.3938C218.007 20.6295 216.794 19.8025 216.794 17.8176C216.794 16.9354 217.18 16.0533 217.842 15.3916C218.558 14.73 219.55 14.3441 220.709 14.3441C224.182 14.3992 225.67 16.8803 226.002 18.2035L226.111 18.5343L226.994 18.4241L226.718 13.7376L226.553 13.6273C224.568 12.3041 222.087 12.1387 221.095 12.1387C217.235 12.1387 213.1 14.5095 213.044 18.9203Z" fill="currentColor"/>
<path d="M175.934 12.4159H172.516L172.571 13.0224H172.626C172.792 13.1327 173.343 13.5186 173.343 15.1176V29.7284C173.343 32.5403 172.295 35.9587 167.333 35.9587C162.647 35.9587 161.654 33.1468 161.654 28.9565V12.3608H156.251L156.306 12.9121H156.361C156.692 13.0776 157.299 13.7943 157.299 15.1727V28.9014C157.299 37.4473 162.922 38.3847 167.168 38.3847C169.263 38.3847 175.989 37.7781 175.989 29.7284V12.3057L175.934 12.4159Z" fill="currentColor"/>
<path d="M3.58379 16.1083C1.32325 18.5894 0 21.8975 0 25.3159C0 29.1202 1.48866 32.5386 4.19028 35.0197C6.78164 37.3905 10.2 38.6586 13.8941 38.6586C15.8239 38.6586 19.6282 38.3278 23.2671 36.0672L23.4325 35.957L23.8736 30.6088L23.1568 30.5537L23.0466 30.7742C20.3449 36.5634 16.1546 35.7364 14.5557 35.7364C7.44328 35.7364 5.0173 30.4986 5.0173 24.8196C5.0173 19.3612 7.44328 14.6747 14.6108 14.6747C16.8163 14.6747 20.786 14.6196 22.8812 19.5818L22.9914 19.8575L23.6531 19.6369L23.212 14.0683L23.0466 14.0131C19.6833 12.5244 16.9817 11.8628 14.28 11.8628C9.92434 11.8077 6.23031 13.2963 3.58379 16.1083Z" fill="currentColor"/>
<path d="M299.167 29.8372C294.37 29.0653 289.187 28.6242 285.383 29.2858C285.163 29.3409 284.997 29.1755 284.997 28.955C284.997 27.6317 284.997 23.3312 283.95 17.983C283.95 17.8728 283.894 17.8177 283.784 17.7625C271.268 8.99601 259.966 3.15167 255.334 0.946258C255.004 0.78085 254.673 1.22193 254.948 1.49761C268.457 13.903 273.198 35.0199 273.805 37.8318C273.86 37.9972 274.025 38.1074 274.191 38.1074C289.353 35.1853 304.57 38.8242 308.816 39.982C309.146 40.0923 309.367 39.6512 309.146 39.4307C306.004 36.0674 302.696 32.9247 299.332 29.9474C299.332 29.8923 299.277 29.8372 299.167 29.8372Z" fill="currentColor"/>
<path d="M311.905 31.9882C299.72 15.6681 282.407 3.64866 276.949 0.06487C276.618 -0.155671 276.287 0.230276 276.508 0.561089C280.698 6.0746 282.848 12.4152 283.896 17.7081C283.896 17.8185 283.951 17.8736 284.006 17.9287C289.024 21.4573 294.151 25.4271 299.224 29.7828C299.279 29.8379 299.334 29.8379 299.389 29.8379C304.682 30.7201 309.534 31.9331 311.519 32.4844C311.85 32.5947 312.07 32.2639 311.905 31.9882Z" fill="currentColor"/>
</svg>
