<svg width="24" height="24" viewBox="0 0 24 24" fill="none" xmlns="http://www.w3.org/2000/svg">
<g clip-path="url(#clip0_4017_3105)">
<path d="M4.37577 2.11889C4.35881 2.11209 4.34185 2.10665 4.3249 2.1012C4.31404 2.0978 4.30319 2.09508 4.29302 2.09236C4.28284 2.08964 4.27335 2.0876 4.26385 2.08624C4.25096 2.08351 4.23807 2.08147 4.22586 2.08011C4.2184 2.07943 4.21162 2.07875 4.20416 2.07807C4.18856 2.07671 4.17296 2.07671 4.15803 2.07739C4.15464 2.07739 4.15125 2.07739 4.14718 2.07739C4.12887 2.07875 4.11123 2.08079 4.09427 2.08419C4.0902 2.08487 4.08613 2.08624 4.08139 2.08692C4.06782 2.09032 4.05493 2.09372 4.04204 2.09848C4.03797 2.09984 4.0339 2.1012 4.02984 2.10256C4.01356 2.10869 3.99795 2.11617 3.98303 2.12502L4.46124 1.84607C4.46124 1.84607 4.46395 1.84471 4.46531 1.84403C4.47684 1.83723 4.48905 1.83179 4.50126 1.82634C4.50329 1.82566 4.506 1.82498 4.50804 1.82362C4.51211 1.82226 4.51618 1.8209 4.52025 1.81954C4.52635 1.8175 4.53246 1.81478 4.53924 1.81274C4.54602 1.8107 4.55281 1.80934 4.56027 1.80797C4.56434 1.80729 4.56841 1.80593 4.57316 1.80525C4.57519 1.80525 4.5779 1.80389 4.57994 1.80389C4.59418 1.80117 4.60843 1.79981 4.62335 1.79913C4.62403 1.79913 4.62539 1.79913 4.62606 1.79913C4.62946 1.79913 4.63285 1.79913 4.63692 1.79913C4.64845 1.79913 4.6593 1.79845 4.67083 1.79913C4.6749 1.79913 4.67897 1.79981 4.68304 1.80049C4.68982 1.80049 4.69729 1.80185 4.70475 1.80253C4.71153 1.80321 4.71831 1.80321 4.7251 1.80457C4.7312 1.80525 4.73731 1.80729 4.74273 1.80866C4.75223 1.8107 4.7624 1.81274 4.7719 1.81478C4.77733 1.81614 4.78207 1.81682 4.7875 1.81818C4.79293 1.81954 4.79835 1.82226 4.80378 1.82362C4.82074 1.82839 4.83769 1.83451 4.85465 1.84131C4.86076 1.84335 4.86618 1.84471 4.87229 1.84743C4.87839 1.85016 4.88382 1.85288 4.88992 1.8556C4.89535 1.85832 4.90145 1.86104 4.90688 1.86376C4.92859 1.87397 4.95029 1.88485 4.97268 1.89778L19.5372 10.332C19.5603 10.3456 19.5833 10.3599 19.6057 10.3755C19.6132 10.3803 19.62 10.3864 19.6274 10.3912C19.6423 10.4021 19.6579 10.4136 19.6729 10.4252C19.681 10.432 19.6891 10.4388 19.6973 10.4456C19.7108 10.4572 19.7244 10.4688 19.738 10.481C19.7461 10.4885 19.7543 10.496 19.7624 10.5034C19.7671 10.5082 19.7726 10.513 19.778 10.5177C19.7834 10.5232 19.7882 10.5286 19.7936 10.5341C19.8099 10.5504 19.8262 10.5681 19.8418 10.5851C19.8465 10.5905 19.8519 10.596 19.8567 10.6014C19.8608 10.6062 19.8648 10.6109 19.8689 10.6157C19.8784 10.6273 19.8879 10.6382 19.8967 10.6497C19.9028 10.6572 19.9089 10.6647 19.915 10.6722C19.9198 10.6783 19.9245 10.6851 19.9293 10.6912C19.936 10.7001 19.9428 10.7089 19.9489 10.7184C19.9537 10.7246 19.9584 10.7307 19.9625 10.7375C19.97 10.7484 19.9767 10.7593 19.9842 10.7701C19.989 10.7769 19.9937 10.7838 19.9984 10.7912C20.0005 10.794 20.0025 10.7974 20.0046 10.8001C20.0174 10.8198 20.0296 10.8402 20.0419 10.8613C20.0425 10.8627 20.0432 10.864 20.0439 10.8654C20.0459 10.8695 20.0486 10.8736 20.0507 10.8776C20.0588 10.8926 20.0676 10.9069 20.0751 10.9219C20.0785 10.9287 20.0819 10.9355 20.0853 10.9423C20.0887 10.9491 20.0927 10.9566 20.0961 10.964C20.0995 10.9702 20.1029 10.977 20.1056 10.9831C20.1138 11.0001 20.1212 11.0164 20.1287 11.0334C20.13 11.0368 20.1314 11.0396 20.1328 11.043C20.1328 11.0436 20.1334 11.045 20.1341 11.0457C20.1436 11.0668 20.1524 11.0885 20.1606 11.1103C20.1619 11.1144 20.1633 11.1185 20.1646 11.1219C20.1673 11.13 20.1701 11.1375 20.1735 11.1457C20.1775 11.1566 20.1816 11.1675 20.185 11.1784C20.1877 11.1865 20.1897 11.1954 20.1924 11.2035C20.1958 11.2137 20.1985 11.2233 20.2013 11.2335C20.2033 11.2396 20.2053 11.2457 20.2067 11.2518C20.2094 11.2627 20.2121 11.2736 20.2148 11.2845C20.2182 11.2967 20.2209 11.309 20.2236 11.3212C20.2243 11.3253 20.2257 11.3301 20.227 11.3341C20.2291 11.343 20.2297 11.3518 20.2318 11.3607C20.2352 11.3797 20.2386 11.3988 20.242 11.4178C20.2426 11.4233 20.244 11.4287 20.2447 11.4335C20.246 11.4457 20.2467 11.4573 20.2481 11.4695C20.2487 11.4777 20.2501 11.4865 20.2508 11.4947C20.2528 11.5212 20.2542 11.5485 20.2542 11.5743L20.2264 21.408C20.2264 21.6067 20.1646 21.7543 20.0629 21.8387C20.0486 21.8509 20.033 21.8611 20.0168 21.8706L19.5386 22.1496C19.6674 22.0741 19.7475 21.9142 19.7482 21.6869L19.776 11.8533C19.776 11.8267 19.7746 11.8002 19.7726 11.7737C19.7726 11.7655 19.7712 11.7566 19.7699 11.7485C19.7685 11.7315 19.7658 11.7138 19.7638 11.6968C19.761 11.6777 19.7577 11.6587 19.7543 11.6396C19.7515 11.6267 19.7495 11.6131 19.7468 11.6002C19.7441 11.5879 19.7407 11.5757 19.738 11.5634C19.7339 11.5464 19.7292 11.5294 19.7244 11.5117C19.7217 11.5015 19.7183 11.492 19.7156 11.4818C19.7095 11.4627 19.7034 11.443 19.6966 11.424C19.6939 11.4158 19.6912 11.4083 19.6885 11.4001C19.6783 11.3736 19.6681 11.3471 19.6566 11.3212C19.6552 11.3178 19.6539 11.3151 19.6525 11.3117C19.6423 11.2886 19.6315 11.2648 19.62 11.2423C19.6166 11.2348 19.6125 11.228 19.6091 11.2205C19.5976 11.1988 19.586 11.177 19.5738 11.1552C19.5718 11.1511 19.5691 11.1471 19.567 11.143C19.5528 11.1178 19.5372 11.0933 19.5216 11.0688C19.5169 11.062 19.5121 11.0552 19.5074 11.0477C19.4958 11.03 19.4836 11.013 19.4714 10.996C19.4646 10.9872 19.4585 10.9776 19.4517 10.9688C19.4409 10.9545 19.43 10.9409 19.4192 10.9273C19.4097 10.9157 19.4009 10.9042 19.3914 10.8933C19.3825 10.8824 19.3731 10.8722 19.3642 10.862C19.3486 10.8443 19.3324 10.8273 19.3161 10.811C19.3059 10.8008 19.2957 10.7899 19.2856 10.7803C19.2774 10.7729 19.2693 10.7654 19.2611 10.7579C19.2476 10.7457 19.234 10.7341 19.2204 10.7225C19.2123 10.7157 19.2042 10.7089 19.196 10.7021C19.1811 10.6899 19.1662 10.679 19.1506 10.6681C19.1431 10.6627 19.1363 10.6572 19.1289 10.6524C19.1065 10.6368 19.0834 10.6218 19.0604 10.6089L4.49447 2.17536C4.47209 2.16243 4.45038 2.15155 4.42868 2.14134C4.42325 2.13862 4.41715 2.1359 4.41172 2.13318C4.39951 2.12774 4.38798 2.12365 4.37645 2.11889H4.37577Z" fill="currentColor" stroke="currentColor" stroke-width="0.0864" stroke-linecap="round" stroke-linejoin="round"/>
<path d="M4.4947 2.17515C4.09789 1.9452 3.77502 2.12957 3.77366 2.58676L3.74585 12.4205C3.7445 12.8783 4.06533 13.4355 4.46214 13.6655L19.0267 22.0997C19.4235 22.3297 19.7464 22.1453 19.7477 21.6874L19.7755 11.8537C19.7769 11.3965 19.456 10.8393 19.0592 10.6094L4.4947 2.17515Z" fill="currentColor" stroke="currentColor" stroke-width="0.0864" stroke-linecap="round" stroke-linejoin="round"/>
<path d="M3.77031 3.15527L3.76556 4.82756L19.7701 14.0959L19.7749 12.4229L3.77031 3.15527Z" fill="currentColor" stroke="currentColor" stroke-width="0.0864" stroke-linecap="round" stroke-linejoin="round"/>
<path d="M5.13702 10.4111V10.4669L11.4018 14.0952L11.4025 14.0394L5.13702 10.4111Z" fill="currentColor"/>
<path d="M5.20453 11.5073C5.01054 11.3951 4.85249 11.4849 4.85249 11.7087L4.85114 12.2646C4.85114 12.4884 5.00715 12.7612 5.20114 12.8735L10.7632 16.0949C10.9579 16.2078 11.1153 16.1167 11.1159 15.8935L11.1173 15.3377C11.1173 15.1138 10.9613 14.8417 10.7666 14.7294L5.20453 11.508V11.5073Z" fill="currentColor" stroke="currentColor" stroke-width="0.0864" stroke-linecap="round" stroke-linejoin="round"/>
<path d="M12.0646 15.6031C11.8984 15.5065 11.7628 15.5841 11.7621 15.7752L11.7601 16.4467C11.7601 16.6386 11.8944 16.8726 12.0606 16.9686L13.6315 17.8782C13.7977 17.9748 13.9334 17.8972 13.934 17.7054L13.9361 17.0339C13.9361 16.842 13.8018 16.6087 13.6356 16.5127L12.0646 15.6031Z" fill="currentColor" stroke="currentColor" stroke-width="0.0864" stroke-linecap="round" stroke-linejoin="round"/>
</g>
<defs>
<clipPath id="clip0_4017_3105">
<rect width="24" height="24" fill="currentColor"/>
</clipPath>
</defs>
</svg>
