<svg width="16" height="16" viewBox="0 0 16 16" fill="none" xmlns="http://www.w3.org/2000/svg">
<g clip-path="url(#clip0_3396_62628)">
<g filter="url(#filter0_d_3396_62628)">
<g clip-path="url(#clip1_3396_62628)">
<path d="M0.25 8C0.25 3.71979 3.71979 0.25 8 0.25C12.2802 0.25 15.75 3.71979 15.75 8C15.75 12.2802 12.2802 15.75 8 15.75C3.71979 15.75 0.25 12.2802 0.25 8Z" fill="currentColor"/>
<path d="M4.0633 8.7169C4.04041 8.89969 3.98031 9.04937 3.88445 9.16883C3.72849 9.36313 3.52102 9.461 3.2506 9.4538C2.89718 9.4466 2.70546 9.31707 2.48654 9.10406C2.2991 8.92272 2.1875 8.62911 2.1875 8.40602C2.1875 8.2549 2.22613 8.15991 2.29195 7.99871C2.36492 7.83032 2.44791 7.74828 2.56237 7.64034C2.7727 7.44172 3.01737 7.34961 3.27921 7.34961C3.48954 7.34961 3.6641 7.40142 3.80146 7.50505C3.91306 7.58997 3.96743 7.69215 3.96743 7.81161C3.96743 7.87782 3.94454 7.93251 3.90734 7.97712C3.86585 8.0203 3.81434 8.04333 3.75711 8.04333C3.69701 8.04333 3.6455 8.0203 3.60401 7.97281C3.56251 7.92675 3.54105 7.87206 3.54105 7.80585C3.54105 7.73965 3.57539 7.66912 3.63978 7.59428L3.65552 7.55111C3.65552 7.46907 3.52817 7.43453 3.27635 7.42733C3.01451 7.41869 2.86285 7.48922 2.75983 7.60436C2.65538 7.72669 2.6425 7.98 2.6425 8.33262V8.56002C2.6425 8.81621 2.64822 9.00331 2.70975 9.13285C2.78272 9.29404 2.96157 9.38472 3.21626 9.38472C3.42659 9.38472 3.59828 9.32715 3.73564 9.21057C3.86871 9.09255 3.95599 8.92847 3.99319 8.71402H4.0633V8.7169Z" fill="currentColor"/>
<path d="M4.93834 7.92706C4.96695 7.8076 5.01131 7.70542 5.06854 7.6205C5.19016 7.44347 5.34612 7.35424 5.5307 7.35424C5.62942 7.35424 5.70526 7.38158 5.76678 7.4334C5.82401 7.48521 5.85549 7.55286 5.85549 7.63921C5.85549 7.70542 5.83689 7.75867 5.79826 7.80041C5.76392 7.84359 5.71527 7.8623 5.65518 7.8623C5.59508 7.8623 5.54357 7.84359 5.50494 7.80185C5.46631 7.76155 5.44485 7.70973 5.44485 7.64497C5.44485 7.56869 5.48348 7.50392 5.55645 7.45067C5.55359 7.43915 5.3175 7.48809 5.20304 7.60035C5.14867 7.65504 5.10431 7.7083 5.0757 7.76011C5.04708 7.81192 5.01846 7.88964 4.98699 7.99327C4.95265 8.09546 4.93977 8.24514 4.93977 8.44232V9.31163H5.36329V9.3951H4.17285V9.31163H4.54916V7.52263H4.17285V7.44203H4.65361C4.78381 7.44203 4.87967 7.39886 4.93977 7.3125V7.92706H4.93834Z" fill="currentColor"/>
<path d="M7.43807 8.75453V8.04929C7.43807 7.90537 7.43234 7.80318 7.41517 7.74129C7.4023 7.68228 7.36796 7.62615 7.31931 7.57146C7.21057 7.46064 7.0589 7.40595 6.85429 7.40595C6.64969 7.40595 6.48228 7.45776 6.38356 7.56283C6.27911 7.66501 6.2276 7.82477 6.2276 8.04354V8.74158C6.2276 8.97761 6.27911 9.14457 6.38356 9.24388C6.42219 9.28274 6.48801 9.31584 6.57815 9.34031C6.67115 9.36765 6.76272 9.38061 6.85859 9.38061C6.96733 9.38061 7.06605 9.36477 7.14904 9.33167C7.23775 9.30001 7.30214 9.25539 7.33934 9.2007C7.40659 9.10715 7.43807 8.9589 7.43807 8.75453ZM6.8686 7.33398C7.08895 7.33398 7.305 7.42178 7.50818 7.59737C7.75714 7.8147 7.88448 8.07664 7.88448 8.38464C7.88448 8.66674 7.78003 8.91573 7.56541 9.13449C7.35508 9.34462 7.11613 9.45257 6.84857 9.45257C6.56241 9.45257 6.31631 9.34319 6.10312 9.1273C6.00153 9.02511 5.9214 8.90853 5.86417 8.78188C5.80694 8.65234 5.77832 8.52569 5.77832 8.40047C5.77832 8.26086 5.81266 8.11982 5.88277 7.98021C5.95288 7.84204 6.05161 7.7197 6.17609 7.61464C6.39214 7.43041 6.62536 7.33686 6.86717 7.33686L6.8686 7.33398Z" fill="currentColor"/>
<path d="M8.64199 7.85119C8.6892 7.70151 8.78221 7.57917 8.91956 7.48418C9.05978 7.38919 9.21574 7.3417 9.3903 7.3417C9.61637 7.3417 9.78807 7.41222 9.89967 7.55471C9.95691 7.63099 9.99268 7.73605 10.0084 7.87854C10.0656 7.71159 10.1587 7.58205 10.2889 7.48706C10.4162 7.39351 10.5693 7.34601 10.741 7.34601C10.9613 7.34601 11.133 7.41366 11.2504 7.54895C11.3047 7.61084 11.3391 7.67992 11.3548 7.75045C11.3734 7.82241 11.3806 7.94043 11.3806 8.10882V9.31204H11.7569V9.39551H10.6008V9.31204H10.9799V7.82817C10.9799 7.56766 10.8683 7.43957 10.6523 7.43957C10.4491 7.43957 10.2803 7.54031 10.1458 7.74037C10.0571 7.88142 10.0084 8.00088 10.0084 8.10306V9.3106H10.3804V9.39408H9.23434V9.3106H9.61637V7.75476C9.61637 7.6497 9.59062 7.57054 9.54054 7.51441C9.48617 7.45396 9.4132 7.42373 9.31733 7.42373C9.17425 7.42373 9.03403 7.47987 8.90382 7.59213C8.77648 7.70583 8.69063 7.84688 8.64199 8.01959V9.3106H9.01114V9.39408H7.87793V9.3106H8.24994V7.52304H7.87793V7.44244H8.34581C8.50463 7.44244 8.60049 7.39927 8.64199 7.30859V7.85119Z" fill="currentColor"/>
<path d="M13.2212 8.33482H13.1926C12.7791 8.33482 12.5044 8.38664 12.3713 8.48738C12.2783 8.55647 12.2382 8.67881 12.2382 8.85871C12.2382 9.03862 12.2669 9.15232 12.327 9.22428C12.3871 9.29481 12.4886 9.33079 12.6332 9.33079C12.7662 9.33079 12.885 9.29912 12.9966 9.23724C13.101 9.17535 13.1783 9.09187 13.2226 8.99112V8.33626L13.2212 8.33482ZM13.2212 8.25998V7.77927C13.2212 7.66701 13.2055 7.58641 13.1769 7.54035C13.1454 7.49142 13.0882 7.45544 13.0023 7.43241C12.9322 7.41658 12.8463 7.40794 12.7405 7.40794C12.5745 7.40794 12.45 7.43097 12.3584 7.47991C12.2726 7.52596 12.2282 7.58065 12.2282 7.64398C12.2282 7.66845 12.2468 7.69723 12.2826 7.72602C12.347 7.77639 12.3842 7.8354 12.3842 7.90305C12.3842 7.97069 12.3613 8.02107 12.327 8.06136C12.2883 8.10166 12.2382 8.12181 12.181 8.12181C12.1138 8.12181 12.0637 8.09879 12.0251 8.05417C11.9836 8.00811 11.9607 7.95054 11.9607 7.88002C11.9607 7.73034 12.0365 7.60224 12.1896 7.4943C12.3427 7.38635 12.5201 7.33166 12.7304 7.33166C12.9751 7.33166 13.2398 7.37484 13.4273 7.49718C13.536 7.56194 13.5703 7.62095 13.599 7.6814C13.6247 7.74041 13.6333 7.81813 13.6333 7.92032V8.78675C13.639 9.0343 13.659 9.17823 13.6648 9.21709C13.6834 9.29912 13.7449 9.33655 13.815 9.33223C13.888 9.32647 13.9323 9.28905 13.9738 9.13217H14.054C13.9781 9.41283 13.8508 9.44593 13.6719 9.44737C13.5503 9.44737 13.433 9.40851 13.3657 9.35382C13.2985 9.29625 13.2541 9.21853 13.2384 9.11346C13.174 9.21997 13.0767 9.302 12.9479 9.35957C12.8206 9.41858 12.699 9.44737 12.5301 9.44737C12.2883 9.44737 12.1095 9.39555 11.995 9.29337C11.8834 9.19694 11.8262 9.08324 11.8262 8.95946C11.8262 8.85152 11.8677 8.74501 11.9435 8.64426C12.0236 8.54064 12.1224 8.46723 12.2397 8.42118C12.3613 8.37368 12.4843 8.33626 12.6661 8.30748C12.8449 8.27869 13.0195 8.2643 13.1883 8.2643H13.2169L13.2212 8.25998ZM12.0751 6.78906V7.00351H13.6004V6.78906H12.0751Z" fill="currentColor"/>
</g>
</g>
</g>
<defs>
<filter id="filter0_d_3396_62628" x="-5.75" y="-4.75" width="27.5" height="27.5" filterUnits="userSpaceOnUse" color-interpolation-filters="sRGB">
<feFlood flood-opacity="0" result="BackgroundImageFix"/>
<feColorMatrix in="SourceAlpha" type="matrix" values="0 0 0 0 0 0 0 0 0 0 0 0 0 0 0 0 0 0 127 0" result="hardAlpha"/>
<feOffset dy="1"/>
<feGaussianBlur stdDeviation="3"/>
<feComposite in2="hardAlpha" operator="out"/>
<feColorMatrix type="matrix" values="0 0 0 0 0 0 0 0 0 0 0 0 0 0 0 0 0 0 0.08 0"/>
<feBlend mode="normal" in2="BackgroundImageFix" result="effect1_dropShadow_3396_62628"/>
<feBlend mode="normal" in="SourceGraphic" in2="effect1_dropShadow_3396_62628" result="shape"/>
</filter>
<clipPath id="clip0_3396_62628">
<rect width="16" height="16" fill="currentColor"/>
</clipPath>
<clipPath id="clip1_3396_62628">
<path d="M0.25 8C0.25 3.71979 3.71979 0.25 8 0.25C12.2802 0.25 15.75 3.71979 15.75 8C15.75 12.2802 12.2802 15.75 8 15.75C3.71979 15.75 0.25 12.2802 0.25 8Z" fill="currentColor"/>
</clipPath>
</defs>
</svg>
