<svg width="24" height="24" viewBox="0 0 24 24" fill="none" xmlns="http://www.w3.org/2000/svg">
<g clip-path="url(#clip0_6027_5606)">
<path d="M11.5845 11.1552C11.9108 10.7186 12.5084 10.6966 12.9206 11.1067C13.3328 11.5168 13.4048 12.2036 13.0786 12.6402C12.7523 13.0767 12.1547 13.0968 11.7425 12.6867C11.3302 12.2767 11.2593 11.5908 11.5845 11.1552Z" fill="currentColor" stroke="currentColor" stroke-width="0.075"/>
<path d="M10.3583 9.93773C11.2178 8.78469 12.7984 8.72834 13.8869 9.8118C14.9753 10.8953 15.1642 12.7075 14.3038 13.8595C13.4452 15.0116 11.8646 15.068 10.7742 13.9845C9.68482 12.902 9.49788 11.0898 10.3574 9.93868L10.3583 9.93773ZM13.0795 12.6416C13.4057 12.205 13.3338 11.5182 12.9215 11.1081C12.5093 10.698 11.9107 10.7191 11.5855 11.1566C11.2602 11.5941 11.3302 12.2791 11.7434 12.6882C12.1566 13.0973 12.7552 13.0782 13.0795 12.6416Z" fill="currentColor" stroke="currentColor" stroke-width="0.075"/>
<path d="M7.90653 7.50046C9.83444 4.91638 13.3773 4.78943 15.8211 7.21867C18.2649 9.6479 18.6837 13.7109 16.7568 16.2959C14.8298 18.879 11.286 19.005 8.84222 16.5758C6.39939 14.1475 5.98053 10.0845 7.90653 7.50046ZM15.5306 15.078C16.9243 13.2094 16.6223 10.2718 14.8548 8.51595C13.0882 6.76104 10.5264 6.85173 9.13274 8.72029C7.73999 10.5879 8.04194 13.5255 9.8095 15.2814C11.5771 17.0372 14.1388 16.9465 15.5315 15.0789" fill="currentColor"/>
<path d="M15.5306 15.078C16.9243 13.2094 16.6223 10.2718 14.8548 8.51595C13.0882 6.76104 10.5264 6.85173 9.13274 8.72029C7.73999 10.5879 8.04194 13.5255 9.8095 15.2814C11.5771 17.0372 14.1388 16.9465 15.5315 15.0789M7.90653 7.50046C9.83444 4.91638 13.3773 4.78943 15.8211 7.21867C18.2649 9.6479 18.6837 13.7109 16.7568 16.2959C14.8298 18.879 11.286 19.005 8.84222 16.5758C6.39939 14.1475 5.98053 10.0845 7.90653 7.50046Z" stroke="currentColor" stroke-width="0.075"/>
<path d="M7.50403 17.4765C5.67793 15.4297 4.83377 12.5519 5.23535 9.84113C5.59556 7.23148 7.33917 4.71684 9.93757 3.95781C5.55863 4.95787 3.7422 9.49349 4.72851 13.5955C5.77672 18.0885 10.1236 21.5781 14.7273 19.8383C12.3554 20.5924 9.41757 19.6913 7.50403 17.4765Z" fill="currentColor" stroke="currentColor" stroke-width="0.075"/>
<path d="M6.68228 6.28349C9.14346 2.98294 13.6684 2.82259 16.7884 5.92329C19.9093 9.02495 20.4442 14.2142 17.983 17.5148C15.5228 20.8144 10.9979 20.9747 7.8769 17.8731C4.75593 14.7714 4.2211 9.58213 6.68228 6.28349ZM16.7577 16.2959C18.6857 13.7118 18.2658 9.64791 15.8221 7.21867C13.3792 4.79039 9.83543 4.91639 7.90752 7.50047C5.98056 10.0836 6.39942 14.1466 8.84321 16.5758C11.287 19.005 14.8308 18.879 16.7577 16.2959Z" fill="currentColor" stroke="currentColor" stroke-width="0.075"/>
<path d="M15.9922 10.2272C14.8531 7.3585 11.2268 6.01632 9.132 8.71924C6.92882 11.6464 9.13188 16.7884 13.0024 16.5256C15.9904 16.2149 17.0792 12.7317 15.9922 10.2272ZM14.3046 13.8599C13.4461 15.012 11.8655 15.0684 10.7751 13.9849C9.68566 12.9024 9.49872 11.0902 10.3582 9.93907C11.2177 8.78603 12.7983 8.72969 13.8868 9.81314C14.9771 10.8966 15.1641 12.7088 14.3037 13.8609" fill="currentColor"/>
<path d="M14.3046 13.8599C13.4461 15.012 11.8655 15.0684 10.7751 13.9849C9.68566 12.9024 9.49872 11.0902 10.3582 9.93907C11.2177 8.78603 12.7983 8.72969 13.8868 9.81314C14.9771 10.8966 15.1641 12.7088 14.3037 13.8609M15.9922 10.2272C14.8531 7.3585 11.2268 6.01632 9.132 8.71924C6.92882 11.6464 9.13188 16.7884 13.0024 16.5256C15.9904 16.2149 17.0792 12.7317 15.9922 10.2272Z" stroke="currentColor" stroke-width="0.075"/>
<path fill-rule="evenodd" clip-rule="evenodd" d="M22.8664 10.0559C22.1705 10.5882 21.4463 10.8451 20.694 10.8245C20.1607 10.8115 19.6133 10.6576 19.0507 10.366C16.6713 11.0305 15.4811 11.3622 15.4811 11.3622C15.3586 11.3286 15.274 11.2277 15.2697 11.1074C15.2654 10.9882 15.3413 10.8744 15.4605 10.8212C15.4605 10.8212 16.6106 10.586 18.9119 10.1166C19.0984 9.76218 19.313 9.46625 19.5569 9.22885C20.2778 8.5275 21.2491 8.3378 22.474 8.65975C22.5965 8.64782 22.7081 8.71503 22.7417 8.82235C22.7753 8.92966 22.7222 9.0489 22.6149 9.10852C22.4046 9.32099 22.371 9.45757 22.5141 9.51828C22.7732 9.69389 22.9032 9.78277 22.9032 9.78277C22.9704 9.86516 22.9542 9.9844 22.8664 10.0559Z" fill="currentColor" stroke="currentColor" stroke-width="0.075"/>
<path fill-rule="evenodd" clip-rule="evenodd" d="M22.8666 10.0559C22.1707 10.5882 21.4465 10.8451 20.6942 10.8245C21.3587 10.5524 21.9452 10.0408 22.2931 9.40663C21.8086 9.02722 21.1712 8.84945 20.5197 8.91449C20.1707 8.95026 19.8487 9.06083 19.5571 9.22885C20.278 8.5275 21.2493 8.3378 22.4742 8.65975C22.5967 8.64782 22.7083 8.71503 22.7419 8.82235C22.7755 8.92966 22.7224 9.04891 22.6151 9.10853C22.4048 9.32099 22.3712 9.45757 22.5143 9.51828C22.7734 9.69389 22.9034 9.78277 22.9034 9.78277C22.9706 9.86516 22.9544 9.9844 22.8666 10.0559Z" fill="currentColor" stroke="currentColor" stroke-width="0.075"/>
<path fill-rule="evenodd" clip-rule="evenodd" d="M13.929 11.7133L12.3583 11.8987C12.3334 11.8618 12.3269 11.8228 12.3388 11.7816L13.8174 11.2363L13.9279 11.7133H13.929Z" fill="currentColor" stroke="currentColor" stroke-width="0.075"/>
<path fill-rule="evenodd" clip-rule="evenodd" d="M13.9288 11.7126C13.8041 11.5738 13.7359 11.4091 13.8182 11.2356C14.3884 10.9072 15.3445 10.6806 15.7109 10.7662C15.6469 10.97 15.7055 11.1272 15.8334 11.2649C15.403 11.5088 14.4144 11.7765 13.9299 11.7126H13.9288Z" fill="currentColor" stroke="currentColor" stroke-width="0.075"/>
<circle cx="21.675" cy="2.92549" r="1.8" fill="currentColor"/>
<circle cx="20.7866" cy="17.8486" r="2.84477" fill="currentColor" stroke="currentColor" stroke-width="0.310458"/>
<path d="M20.6609 16.3956C20.6427 16.3957 20.6245 16.3966 20.6064 16.3982C20.5999 16.3988 20.5933 16.3994 20.5868 16.4002C20.579 16.4011 20.5713 16.402 20.5637 16.4031L20.5528 16.4049C20.2247 16.4592 19.9743 16.7441 19.9743 17.0877C19.9743 17.3334 20.1025 17.549 20.2954 17.6718C20.2979 17.6739 20.3009 17.6759 20.304 17.6778L20.3045 17.678L20.2591 17.6924C20.1901 17.7159 20.1233 17.7455 20.0595 17.7807L20.0122 17.8081C20.0074 17.811 20.0026 17.8141 19.9978 17.8171C19.9613 17.84 19.9259 17.8648 19.8918 17.8914L19.887 17.8952C19.5953 18.1256 19.408 18.4823 19.408 18.8829C19.408 18.9371 19.4115 18.9911 19.4184 19.0448H21.9238V18.8835C21.9238 18.3141 21.5456 17.833 21.0266 17.6778C21.2251 17.5563 21.3575 17.3375 21.3575 17.0877C21.3575 16.7215 21.073 16.4219 20.713 16.3973C20.7084 16.397 20.7038 16.3966 20.6992 16.3964C20.6882 16.3958 20.6771 16.3955 20.6659 16.3955L20.6609 16.3956ZM20.6652 17.7823C21.2734 17.7823 21.7665 18.2753 21.7665 18.8835C21.7665 18.8848 21.7664 18.8861 21.7664 18.8874H19.5641C19.5641 18.8861 19.564 18.8848 19.564 18.8835C19.564 18.2753 20.057 17.7823 20.6652 17.7823ZM20.6652 16.5528C20.9607 16.5528 21.2001 16.7923 21.2001 17.0877C21.2001 17.3831 20.9607 17.6226 20.6652 17.6226C20.3698 17.6226 20.1304 17.3831 20.1304 17.0877C20.1304 16.7923 20.3698 16.5528 20.6652 16.5528Z" fill="currentColor" stroke="currentColor" stroke-width="0.0204708"/>
<path d="M19.7873 16.6343C19.4745 16.6343 19.221 16.8878 19.221 17.2006C19.221 17.395 19.3189 17.5665 19.4681 17.6684C19.0688 17.8007 18.7803 18.1764 18.7786 18.62H18.7785V18.7773H19.2544C19.2583 18.7245 19.2652 18.672 19.2749 18.62H18.9281C18.9302 18.1482 19.3132 17.7665 19.7854 17.7665L19.7748 17.7666L19.787 17.767C19.7893 17.767 19.7915 17.7669 19.7938 17.7668L19.8006 17.7666C19.8696 17.7132 19.9434 17.6663 20.021 17.6265C20.0041 17.6067 19.9881 17.5862 19.973 17.565C19.9155 17.5944 19.8519 17.6097 19.7873 17.6097C19.5614 17.6097 19.3783 17.4265 19.3783 17.2006C19.3783 16.9747 19.5614 16.7916 19.7873 16.7916C19.8127 16.7917 19.838 16.7941 19.8629 16.7989C19.8804 16.7481 19.9026 16.6991 19.9293 16.6526C19.9069 16.6467 19.8842 16.6423 19.8612 16.6392L19.8579 16.6388C19.848 16.6376 19.838 16.6366 19.8279 16.6359C19.8259 16.6357 19.8238 16.6355 19.8217 16.6354C19.8103 16.6347 19.7989 16.6343 19.7873 16.6343Z" fill="currentColor" stroke="currentColor" stroke-width="0.0204708"/>
<path d="M21.506 16.6338C21.8187 16.6338 22.0721 16.8874 22.0721 17.2001C22.0721 17.3945 21.9742 17.566 21.8251 17.6679C22.2242 17.8002 22.5125 18.176 22.5142 18.6195H22.5143V18.7768H22.0387C22.0348 18.724 22.0279 18.6715 22.0181 18.6195H22.3648C22.3627 18.1478 21.9799 17.766 21.508 17.766L21.5185 17.7662L21.5064 17.7665C21.5041 17.7665 21.5018 17.7664 21.4995 17.7663L21.4927 17.7661C21.4238 17.7127 21.35 17.6658 21.2725 17.626C21.2894 17.6062 21.3054 17.5857 21.3204 17.5645C21.3779 17.5939 21.4415 17.6092 21.506 17.6092C21.7318 17.6092 21.9148 17.426 21.9148 17.2001C21.9148 16.9742 21.7318 16.7911 21.506 16.7911C21.4806 16.7912 21.4553 16.7936 21.4304 16.7984C21.413 16.7476 21.3908 16.6986 21.3641 16.6521C21.3865 16.6463 21.4092 16.6418 21.4322 16.6388L21.4355 16.6383C21.4454 16.6371 21.4554 16.6361 21.4654 16.6354C21.4675 16.6353 21.4696 16.635 21.4716 16.6349C21.483 16.6342 21.4945 16.6338 21.506 16.6338Z" fill="currentColor" stroke="currentColor" stroke-width="0.0204708"/>
</g>
<defs>
<clipPath id="clip0_6027_5606">
<rect width="24" height="24" fill="currentColor"/>
</clipPath>
</defs>
</svg>
