<svg width="24" height="24" viewBox="0 0 24 24" fill="none" xmlns="http://www.w3.org/2000/svg">
<path d="M15.2133 14.0324C15.5748 14.3531 16.1278 14.3201 16.4485 13.9586C16.7692 13.5971 16.7362 13.0441 16.3747 12.7233L15.2133 14.0324ZM12.0002 10.0121L12.5809 9.35752C12.2496 9.06356 11.7508 9.06356 11.4195 9.35752L12.0002 10.0121ZM7.62574 12.7233C7.26425 13.0441 7.23119 13.5971 7.5519 13.9586C7.87261 14.3201 8.42565 14.3531 8.78714 14.0324L7.62574 12.7233ZM15.2133 10.3661C15.5748 10.6868 16.1278 10.6537 16.4485 10.2922C16.7692 9.93074 16.7362 9.3777 16.3747 9.05699L15.2133 10.3661ZM12.0002 6.3457L12.5809 5.69117C12.2496 5.39721 11.7508 5.39721 11.4195 5.69117L12.0002 6.3457ZM7.62574 9.05699C7.26425 9.3777 7.23119 9.93074 7.5519 10.2922C7.87261 10.6537 8.42565 10.6868 8.78714 10.3661L7.62574 9.05699ZM15.2133 17.9173C15.5748 18.238 16.1278 18.205 16.4485 17.8435C16.7692 17.482 16.7362 16.929 16.3747 16.6082L15.2133 17.9173ZM12.0002 13.897L12.5809 13.2424C12.2496 12.9485 11.7508 12.9485 11.4195 13.2424L12.0002 13.897ZM7.62574 16.6082C7.26425 16.929 7.23119 17.482 7.5519 17.8435C7.87261 18.205 8.42565 18.238 8.78714 17.9173L7.62574 16.6082ZM21.4113 11.9967C21.4113 17.194 17.198 21.4074 12.0006 21.4074V23.1574C18.1644 23.1574 23.1613 18.1605 23.1613 11.9967H21.4113ZM12.0006 21.4074C6.80316 21.4074 2.58984 17.194 2.58984 11.9967H0.839844C0.839844 18.1605 5.83667 23.1574 12.0006 23.1574V21.4074ZM2.58984 11.9967C2.58984 6.79926 6.80316 2.58594 12.0006 2.58594V0.835938C5.83667 0.835938 0.839844 5.83276 0.839844 11.9967H2.58984ZM12.0006 2.58594C17.198 2.58594 21.4113 6.79926 21.4113 11.9967H23.1613C23.1613 5.83276 18.1644 0.835938 12.0006 0.835938V2.58594ZM16.3747 12.7233L12.5809 9.35752L11.4195 10.6666L15.2133 14.0324L16.3747 12.7233ZM11.4195 9.35752L7.62574 12.7233L8.78714 14.0324L12.5809 10.6666L11.4195 9.35752ZM16.3747 9.05699L12.5809 5.69117L11.4195 7.00024L15.2133 10.3661L16.3747 9.05699ZM11.4195 5.69117L7.62574 9.05699L8.78714 10.3661L12.5809 7.00024L11.4195 5.69117ZM16.3747 16.6082L12.5809 13.2424L11.4195 14.5515L15.2133 17.9173L16.3747 16.6082ZM11.4195 13.2424L7.62574 16.6082L8.78714 17.9173L12.5809 14.5515L11.4195 13.2424Z" fill="#017AFE"/>
</svg>
