<svg width="376" height="460" viewBox="0 0 376 460" fill="none" xmlns="http://www.w3.org/2000/svg">
<path d="M0 20C0 8.9543 8.95431 0 20 0H355.463C366.509 0 375.463 8.95431 375.463 20V440C375.463 451.046 366.509 460 355.463 460H20C8.95431 460 0 451.046 0 440V20Z" fill="white"/>
<g clip-path="url(#clip0_3744_67049)">
<path d="M69.3337 57.3335V42.1335C69.3337 37.6531 69.3337 35.4129 68.4617 33.7016C67.6947 32.1963 66.4709 30.9724 64.9656 30.2054C63.2543 29.3335 61.0141 29.3335 56.5337 29.3335H39.467C34.9866 29.3335 32.7464 29.3335 31.0351 30.2054C29.5298 30.9724 28.3059 32.1963 27.5389 33.7016C26.667 35.4129 26.667 37.6531 26.667 42.1335V69.8668C26.667 74.3472 26.667 76.5875 27.5389 78.2987C28.3059 79.804 29.5298 81.0279 31.0351 81.7949C32.7464 82.6668 34.9864 82.6668 39.4666 82.6668H49.3337M53.3337 53.3335H37.3337M42.667 64.0002H37.3337M58.667 42.6668H37.3337M56.0003 74.6668L64.0003 82.6668M64.0003 82.6668L72.0003 74.6668M64.0003 82.6668V66.6668" stroke="#017AFE" stroke-width="3.5" stroke-linecap="round" stroke-linejoin="round"/>
</g>
<circle cx="347" cy="36" r="12" fill="#F5F7F9"/>
<path d="M348.058 36.0001L351.283 32.7826C351.424 32.6414 351.504 32.4499 351.504 32.2501C351.504 32.0504 351.424 31.8589 351.283 31.7176C351.142 31.5764 350.95 31.4971 350.75 31.4971C350.551 31.4971 350.359 31.5764 350.218 31.7176L347 34.9426L343.783 31.7176C343.642 31.5764 343.45 31.4971 343.25 31.4971C343.051 31.4971 342.859 31.5764 342.718 31.7176C342.577 31.8589 342.497 32.0504 342.497 32.2501C342.497 32.4499 342.577 32.6414 342.718 32.7826L345.943 36.0001L342.718 39.2176C342.648 39.2874 342.592 39.3703 342.554 39.4617C342.516 39.5531 342.496 39.6511 342.496 39.7501C342.496 39.8491 342.516 39.9472 342.554 40.0386C342.592 40.13 342.648 40.2129 342.718 40.2826C342.788 40.3529 342.871 40.4087 342.962 40.4468C343.053 40.4849 343.151 40.5045 343.25 40.5045C343.349 40.5045 343.447 40.4849 343.539 40.4468C343.63 40.4087 343.713 40.3529 343.783 40.2826L347 37.0576L350.218 40.2826C350.288 40.3529 350.371 40.4087 350.462 40.4468C350.553 40.4849 350.651 40.5045 350.75 40.5045C350.849 40.5045 350.947 40.4849 351.039 40.4468C351.13 40.4087 351.213 40.3529 351.283 40.2826C351.353 40.2129 351.409 40.13 351.447 40.0386C351.485 39.9472 351.505 39.8491 351.505 39.7501C351.505 39.6511 351.485 39.5531 351.447 39.4617C351.409 39.3703 351.353 39.2874 351.283 39.2176L348.058 36.0001Z" fill="#88898A"/>
<text fill="#223466" style="white-space: pre" xml:space="preserve" font-family="Basier Circle" font-size="20" letter-spacing="0px"><tspan x="16" y="127.619">Heading</tspan></text>
<text fill="#5E6063" style="white-space: pre" xml:space="preserve" font-family="Basier Circle" font-size="14" letter-spacing="0px"><tspan x="16" y="154.504">Subtitle</tspan></text>
<rect x="16.7314" y="178.5" width="342" height="175" rx="11.5" stroke="#EFEFEF"/>
<text fill="#223466" style="white-space: pre" xml:space="preserve" font-family="Basier Circle" font-size="15" letter-spacing="0px"><tspan x="32.2314" y="211.339">Heading</tspan></text>
<g clip-path="url(#clip1_3744_67049)">
<path fill-rule="evenodd" clip-rule="evenodd" d="M327.587 201.839L332.301 206.005L327.587 210.172C327.113 210.591 327.113 211.267 327.587 211.686C328.061 212.105 328.826 212.105 329.3 211.686L334.876 206.757C335.35 206.338 335.35 205.662 334.876 205.243L329.3 200.314C328.826 199.895 328.061 199.895 327.587 200.314C327.125 200.733 327.113 201.42 327.587 201.839Z" fill="#88898A"/>
</g>
<path d="M32.2314 238H343.231" stroke="#EFEFEF"/>
<text fill="#223466" style="white-space: pre" xml:space="preserve" font-family="Basier Circle" font-size="15" letter-spacing="0px"><tspan x="32.2314" y="271.339">Heading</tspan></text>
<g clip-path="url(#clip2_3744_67049)">
<path fill-rule="evenodd" clip-rule="evenodd" d="M327.587 261.839L332.301 266.005L327.587 270.172C327.113 270.591 327.113 271.267 327.587 271.686C328.061 272.105 328.826 272.105 329.3 271.686L334.876 266.757C335.35 266.338 335.35 265.662 334.876 265.243L329.3 260.314C328.826 259.895 328.061 259.895 327.587 260.314C327.125 260.733 327.113 261.42 327.587 261.839Z" fill="#88898A"/>
</g>
<path d="M32.2314 298H343.231" stroke="#EFEFEF"/>
<text fill="#223466" style="white-space: pre" xml:space="preserve" font-family="Basier Circle" font-size="15" letter-spacing="0px"><tspan x="32.2314" y="331.339">Heading</tspan></text>
<g clip-path="url(#clip3_3744_67049)">
<path fill-rule="evenodd" clip-rule="evenodd" d="M327.587 321.839L332.301 326.005L327.587 330.172C327.113 330.591 327.113 331.267 327.587 331.686C328.061 332.105 328.826 332.105 329.3 331.686L334.876 326.757C335.35 326.338 335.35 325.662 334.876 325.243L329.3 320.314C328.826 319.895 328.061 319.895 327.587 320.314C327.125 320.733 327.113 321.42 327.587 321.839Z" fill="#88898A"/>
</g>
<rect x="16" y="378" width="343.463" height="50" rx="25" fill="#089959"/>
<text fill="#FFFFFE" style="white-space: pre" xml:space="preserve" font-family="Basier Circle" font-size="16" letter-spacing="0px"><tspan x="162.114" y="408.695">Button</tspan></text>
<defs>
<clipPath id="clip0_3744_67049">
<rect width="64" height="64" fill="white" transform="translate(16 24)"/>
</clipPath>
<clipPath id="clip1_3744_67049">
<rect width="24" height="24" fill="white" transform="translate(319.231 194)"/>
</clipPath>
<clipPath id="clip2_3744_67049">
<rect width="24" height="24" fill="white" transform="translate(319.231 254)"/>
</clipPath>
<clipPath id="clip3_3744_67049">
<rect width="24" height="24" fill="white" transform="translate(319.231 314)"/>
</clipPath>
</defs>
</svg>
