<svg width="196" height="48" viewBox="0 0 196 48" fill="none" xmlns="http://www.w3.org/2000/svg">
<path d="M0.335517 47.3106H195.665V0.335517H0.335517V47.3106Z" fill="#2C4190"/>
<path d="M0.334863 0.334863H0V47.6448H196V0H0V0.334863H0.334863V0.669727H195.33V46.975H0.669727V0.334863H0.334863Z" fill="white"/>
<path d="M12.112 35.6754H22.43C29.7342 35.6754 33.2921 30.5268 33.2921 23.5784C33.2921 15.6464 28.6249 11.7745 22.43 11.7745H12.112V35.6754ZM17.3861 16.1905H21.1324C26.3437 16.1905 28.018 19.2671 28.018 24.0807C28.018 29.3758 25.1089 31.2594 22.0742 31.2594H17.3861V16.1905Z" fill="white"/>
<path d="M57.157 19.8125C56.5291 14.2873 52.1131 11.1898 46.839 11.1898C39.4511 11.1898 35.0979 16.715 35.0979 23.8309C35.0979 30.7165 39.4511 36.2418 46.839 36.2418C52.6991 36.2418 56.8221 32.4327 57.3663 26.4679H52.2805C51.862 29.6073 50.0621 31.8257 46.839 31.8257C42.13 31.8257 40.351 27.8074 40.351 23.8309C40.351 19.6451 42.13 15.6267 46.839 15.6267C49.4551 15.6267 51.7364 17.4266 52.0712 19.8125H57.157Z" fill="white"/>
<path d="M65.4121 25.0225H71.1257C73.3651 25.0225 74.9139 26.0062 74.9139 28.4339C74.9139 30.9245 73.114 31.5942 71.0211 31.5942H65.4121V25.0225ZM60.138 35.6754H71.7327C76.0441 35.6754 80.1671 33.6034 80.1671 28.7479C80.1671 25.755 78.702 23.5156 75.7929 22.6785C77.8649 21.6739 79.0369 20.0414 79.0369 17.6974C79.0369 13.2395 75.9603 11.7745 71.3978 11.7745H60.138V35.6754ZM65.4121 15.8556H70.3304C72.1931 15.8556 73.9512 16.3161 73.9512 18.5973C73.9512 20.6065 72.5698 21.4437 70.7281 21.4437H65.4121V15.8556Z" fill="white"/>
<path d="M100.806 25.0225H106.52C108.759 25.0225 110.308 26.0062 110.308 28.4339C110.308 30.9245 108.508 31.5942 106.415 31.5942H100.806V25.0225ZM95.5322 35.6754H107.127C111.438 35.6754 115.561 33.6034 115.561 28.7479C115.561 25.755 114.096 23.5156 111.187 22.6785C113.259 21.6739 114.431 20.0414 114.431 17.6974C114.431 13.2395 111.354 11.7745 106.792 11.7745H95.5322V35.6754ZM100.806 15.8556H105.725C107.587 15.8556 109.345 16.3161 109.345 18.5973C109.345 20.6065 107.964 21.4437 106.122 21.4437H100.806V15.8556Z" fill="white"/>
<path d="M115.773 35.6754H121.089L122.973 30.3594H131.909L133.709 35.6754H139.172L130.235 11.7745H124.835L115.773 35.6754ZM127.451 17.6555H127.514L130.528 26.4248H124.333L127.451 17.6555Z" fill="white"/>
<path d="M140.444 35.6754H145.384V19.6647H145.446L155.388 35.6754H160.641V11.7745H155.723V27.8061H155.66L145.677 11.7745H140.444V35.6754Z" fill="white"/>
<path d="M164.456 35.6754H169.731V27.9735L172.744 24.9179L179.944 35.6754H186.537L176.281 21.2135L185.637 11.7745H179.065L169.731 21.6739V11.7745H164.456V35.6754Z" fill="white"/>
</svg>
