<svg width="205" height="48" viewBox="0 0 205 48" fill="none" xmlns="http://www.w3.org/2000/svg">
<path d="M5.3457 14.7626H9.29816C11.849 14.7626 13.7375 15.0767 14.9786 15.7075C16.2143 16.337 17.2346 17.3683 18.0383 18.7878C18.8337 20.2086 19.2383 21.8694 19.2383 23.7674C19.2383 25.1155 19.0106 26.3553 18.5622 27.4908C18.1164 28.6209 17.4966 29.5644 16.7107 30.3064C15.918 31.0538 15.0609 31.5695 14.1462 31.8534C13.2273 32.1359 11.6323 32.2812 9.36399 32.2812H5.3457V14.7626ZM8.66593 17.9772V29.0296H10.2102C11.7311 29.0296 12.8364 28.8568 13.5235 28.5043C14.2147 28.1587 14.7715 27.5676 15.2104 26.7407C15.6506 25.9137 15.8673 24.8975 15.8673 23.6934C15.8673 21.831 15.3475 20.3882 14.3052 19.3624C13.3713 18.4408 11.8641 17.9772 9.79187 17.9772H8.66593Z" fill="currentColor"/>
<path d="M45.8211 19.3237H49.0727V32.2824H45.8211V30.9123C45.1847 31.5199 44.5484 31.9491 43.9148 32.2165C43.273 32.484 42.5831 32.6143 41.8343 32.6143C40.1598 32.6143 38.7171 31.9669 37.4938 30.6696C36.2759 29.3708 35.6602 27.7567 35.6602 25.8284C35.6602 23.8303 36.2581 22.1887 37.432 20.9105C38.6156 19.6323 40.0474 18.9932 41.7411 18.9932C42.5173 18.9932 43.2483 19.1372 43.9285 19.4348C44.6087 19.7297 45.2382 20.1617 45.8211 20.7541V19.3237ZM42.4021 21.9925C41.3982 21.9925 40.5685 22.3491 39.902 23.0623C39.2382 23.7685 38.8981 24.6792 38.8981 25.7941C38.8981 26.9146 39.2382 27.8293 39.9143 28.5548C40.5891 29.2776 41.4215 29.6424 42.4199 29.6424C43.4403 29.6424 44.2837 29.2872 44.9488 28.5781C45.6332 27.865 45.9692 26.9283 45.9692 25.7777C45.9692 24.6531 45.6332 23.7425 44.9488 23.0403C44.2837 22.3436 43.4403 21.9925 42.4021 21.9925Z" fill="currentColor"/>
<path d="M52.1367 19.3236H55.3925V20.6525C56.1303 20.0299 56.7968 19.6006 57.3934 19.3551C57.9941 19.1138 58.6044 18.9931 59.2339 18.9931C60.5148 18.9931 61.6078 19.4402 62.5061 20.3357C63.2576 21.0982 63.6348 22.2269 63.6348 23.7177V32.2822H60.4201V26.6086C60.4201 25.063 60.3447 24.0372 60.2103 23.5298C60.0704 23.021 59.8277 22.6315 59.4848 22.3668C59.1406 22.1049 58.7127 21.9663 58.2094 21.9663C57.5484 21.9663 56.9875 22.1899 56.5143 22.6274C56.0467 23.0703 55.7161 23.6765 55.5324 24.4541C55.4364 24.8601 55.3925 25.7378 55.3925 27.0845V32.2822H52.1367V19.3236Z" fill="currentColor"/>
<path d="M81.7488 19.3237H85.0005V32.2824H81.7488V30.9123C81.1166 31.5199 80.4761 31.9491 79.8439 32.2165C79.2048 32.484 78.5109 32.6143 77.7662 32.6143C76.0917 32.6143 74.6448 31.9669 73.4215 30.6696C72.1995 29.3708 71.5879 27.7567 71.5879 25.8284C71.5879 23.8303 72.1831 22.1887 73.3598 20.9105C74.5474 19.6323 75.9792 18.9932 77.6729 18.9932C78.4423 18.9932 79.1774 19.1372 79.8576 19.4348C80.5378 19.7297 81.1632 20.1617 81.7488 20.7541V19.3237ZM78.3339 21.9925C77.3259 21.9925 76.4935 22.3491 75.8229 23.0623C75.1618 23.7685 74.8299 24.6792 74.8299 25.7941C74.8299 26.9146 75.1701 27.8293 75.8462 28.5548C76.5195 29.2776 77.3534 29.6424 78.3435 29.6424C79.3611 29.6424 80.2114 29.2872 80.8848 28.5781C81.5513 27.865 81.8914 26.9283 81.8914 25.7777C81.8914 24.6531 81.5513 23.7425 80.8848 23.0403C80.2114 22.3436 79.3611 21.9925 78.3339 21.9925Z" fill="currentColor"/>
<path d="M101.486 19.3236H104.738V20.8157C105.296 20.2041 105.909 19.7446 106.589 19.4429C107.276 19.1453 108.007 18.9931 108.814 18.9931C109.623 18.9931 110.358 19.1906 111.004 19.5897C111.661 19.9805 112.189 20.5593 112.583 21.3259C113.093 20.5593 113.729 19.9805 114.482 19.5897C115.229 19.1906 116.052 18.9931 116.941 18.9931C117.861 18.9931 118.679 19.207 119.377 19.6377C120.071 20.0669 120.57 20.6237 120.88 21.3094C121.186 22.0061 121.336 23.1266 121.336 24.6831V32.2822H118.067V25.7103C118.067 24.2402 117.883 23.2431 117.513 22.7261C117.148 22.2077 116.606 21.9471 115.871 21.9471C115.317 21.9471 114.814 22.1076 114.378 22.4217C113.936 22.7398 113.61 23.1814 113.393 23.7369C113.181 24.2991 113.072 25.1961 113.072 26.4358V32.2822H109.797V26.0052C109.797 24.8463 109.719 24.007 109.545 23.49C109.368 22.9647 109.114 22.5807 108.773 22.3284C108.43 22.0733 108.021 21.9471 107.53 21.9471C106.994 21.9471 106.496 22.1076 106.061 22.4285C105.613 22.7481 105.284 23.2006 105.064 23.7794C104.846 24.3609 104.738 25.2715 104.738 26.5195V32.2822H101.486V19.3236Z" fill="currentColor"/>
<path d="M125.488 13.9873C126.049 13.9873 126.543 14.1944 126.95 14.6072C127.359 15.0186 127.563 15.5206 127.563 16.1103C127.563 16.6863 127.359 17.1841 126.957 17.5942C126.552 17.9988 126.07 18.21 125.506 18.21C124.93 18.21 124.44 17.996 124.032 17.5805C123.624 17.1622 123.42 16.6534 123.42 16.0623C123.42 15.489 123.617 15.0036 124.022 14.5962C124.427 14.193 124.913 13.9873 125.488 13.9873Z" fill="currentColor"/>
<path d="M123.859 19.3226H127.115V32.2812H123.859V19.3226Z" fill="currentColor"/>
<path d="M134.245 40.3375H130.655C130.675 40.5487 130.724 40.7407 130.801 40.9026C130.874 41.0658 130.986 41.2139 131.126 41.3373C131.26 41.4621 131.417 41.5691 131.594 41.65C131.781 41.7254 131.976 41.7625 132.193 41.7625C132.506 41.7625 132.791 41.6802 133.043 41.5101C133.3 41.3442 133.489 41.1193 133.597 40.8326H134.136C134.047 41.0754 133.941 41.2729 133.815 41.4292C133.608 41.6802 133.367 41.8777 133.08 42.0148C132.805 42.1506 132.501 42.2178 132.172 42.2178C131.605 42.2178 131.131 42.0203 130.73 41.6253C130.335 41.2317 130.143 40.7558 130.143 40.1853C130.143 39.8068 130.23 39.4557 130.417 39.1266C130.598 38.8002 130.852 38.5451 131.183 38.3586C131.51 38.1707 131.846 38.0802 132.2 38.0802C132.547 38.0802 132.88 38.1707 133.21 38.3586C133.53 38.5451 133.792 38.8029 133.976 39.1321C134.158 39.4626 134.247 39.8068 134.247 40.1675L134.245 40.3375ZM133.734 39.8822C133.693 39.6806 133.64 39.5092 133.564 39.3652C133.5 39.2281 133.397 39.0978 133.264 38.9702C133.142 38.8509 132.979 38.7453 132.795 38.6562C132.608 38.578 132.411 38.5355 132.197 38.5355C131.986 38.5355 131.792 38.5725 131.607 38.6507C131.434 38.7275 131.271 38.829 131.141 38.9455C131.013 39.0676 130.906 39.2047 130.83 39.357C130.754 39.5092 130.693 39.6834 130.655 39.8822H133.734Z" fill="currentColor"/>
<path d="M134.688 40.9568H135.191C135.198 41.1255 135.225 41.2627 135.266 41.3559C135.321 41.4917 135.399 41.5932 135.512 41.6617C135.616 41.7289 135.752 41.7632 135.914 41.7632C136.134 41.7632 136.314 41.7043 136.443 41.5753C136.576 41.4492 136.634 41.2805 136.634 41.0748C136.634 40.8951 136.579 40.7456 136.477 40.6236C136.381 40.5015 136.16 40.3822 135.838 40.2697C135.575 40.1779 135.392 40.0997 135.28 40.027C135.126 39.9255 135.007 39.8035 134.922 39.6691C134.84 39.5292 134.803 39.366 134.803 39.1808C134.803 38.8654 134.908 38.6021 135.119 38.3936C135.335 38.1852 135.593 38.0796 135.914 38.0796C136.127 38.0796 136.324 38.1303 136.496 38.2359C136.671 38.3374 136.804 38.48 136.898 38.6624C136.96 38.779 136.994 38.9504 137.001 39.1548H136.496C136.474 38.9504 136.409 38.7968 136.304 38.694C136.192 38.5856 136.062 38.5349 135.905 38.5349C135.733 38.5349 135.593 38.5925 135.476 38.7063C135.368 38.8201 135.31 38.9587 135.31 39.1219L135.392 39.4126L135.627 39.6197C135.708 39.6649 135.83 39.7143 135.986 39.7733C136.273 39.872 136.488 39.9598 136.606 40.0435C136.786 40.1532 136.916 40.2876 137.007 40.4425C137.093 40.6044 137.133 40.7964 137.133 41.0391C137.133 41.2585 137.089 41.4601 136.987 41.6439C136.891 41.8332 136.749 41.9744 136.558 42.0718C136.372 42.1705 136.16 42.2227 135.929 42.2227C135.708 42.2227 135.514 42.1801 135.354 42.0965C135.184 42.0101 135.052 41.9141 134.959 41.7934C134.862 41.6768 134.789 41.5548 134.752 41.4259C134.712 41.2969 134.688 41.142 134.688 40.9568Z" fill="currentColor"/>
<path d="M138.209 42.125V38.6375H137.379V38.1849H138.209V36.7888H138.712V38.1849H139.661V38.6375H138.712V42.125H138.209Z" fill="currentColor"/>
<path d="M143.83 38.1842V42.1243H143.321V41.429H143.311C143.202 41.584 143.099 41.6964 143.01 41.7801C142.858 41.9063 142.681 42.0146 142.467 42.0969C142.259 42.1792 142.015 42.2217 141.739 42.2217C141.332 42.2217 140.974 42.1271 140.651 41.946C140.337 41.7609 140.089 41.5044 139.919 41.178C139.739 40.8475 139.654 40.5115 139.654 40.1536C139.654 39.7901 139.749 39.4445 139.929 39.1168C140.116 38.789 140.369 38.5353 140.702 38.3529C141.028 38.1705 141.389 38.08 141.766 38.08C142.015 38.08 142.246 38.1197 142.456 38.1952C142.663 38.2706 142.844 38.3748 142.995 38.5079C143.099 38.5997 143.205 38.7191 143.311 38.8713H143.321V38.1842H143.83ZM140.163 40.1632C140.163 40.4457 140.225 40.7186 140.365 40.9627C140.494 41.2137 140.684 41.4098 140.941 41.5538C141.192 41.6923 141.459 41.7623 141.753 41.7623C142.034 41.7623 142.311 41.6964 142.562 41.5552C142.807 41.4153 143.003 41.2219 143.147 40.9696C143.29 40.7186 143.354 40.4457 143.354 40.1618C143.354 39.8711 143.29 39.5954 143.147 39.3417C143.003 39.0839 142.804 38.8864 142.562 38.7492C142.315 38.6052 142.049 38.5353 141.766 38.5353C141.61 38.5353 141.459 38.5559 141.332 38.5929C141.192 38.6299 141.052 38.6875 140.93 38.7629C140.799 38.8343 140.68 38.933 140.562 39.0605C140.443 39.1881 140.34 39.3513 140.273 39.5419C140.199 39.738 140.163 39.9437 140.163 40.1632Z" fill="currentColor"/>
<path d="M144.732 42.1243V36.7881H145.236V38.8713H145.249C145.358 38.7273 145.463 38.6148 145.565 38.5271C145.661 38.4379 145.783 38.3584 145.916 38.2898C146.056 38.2212 146.201 38.1705 146.345 38.1348C146.5 38.0951 146.654 38.08 146.814 38.08C147.104 38.08 147.375 38.1348 147.633 38.2418C147.885 38.3529 148.106 38.4941 148.28 38.6697C148.457 38.8439 148.596 39.0359 148.699 39.2471C148.841 39.5309 148.906 39.8368 148.906 40.1522C148.906 40.5143 148.815 40.8544 148.634 41.1835C148.45 41.5113 148.198 41.7623 147.865 41.946C147.538 42.1271 147.185 42.2217 146.812 42.2217C146.566 42.2217 146.341 42.1847 146.144 42.1133C145.946 42.0448 145.766 41.9501 145.61 41.8212C145.498 41.728 145.372 41.5991 145.249 41.429H145.236V42.1243H144.732ZM145.206 40.1604C145.206 40.4388 145.274 40.7049 145.409 40.9586C145.546 41.2109 145.739 41.4098 145.99 41.5538C146.246 41.6923 146.515 41.7623 146.801 41.7623C147.09 41.7623 147.355 41.6951 147.614 41.562C147.869 41.4249 148.062 41.2301 148.201 40.9751C148.335 40.7227 148.4 40.4457 148.4 40.1508C148.4 39.8505 148.327 39.5803 148.191 39.3239C148.053 39.077 147.854 38.8809 147.603 38.7451C147.348 38.6052 147.083 38.5353 146.801 38.5353C146.511 38.5353 146.24 38.6052 145.99 38.7492C145.742 38.896 145.546 39.0962 145.413 39.3513C145.274 39.6077 145.206 39.8765 145.206 40.1604Z" fill="currentColor"/>
<path d="M149.594 36.789H150.097V42.1279H149.594V36.789Z" fill="currentColor"/>
<path d="M151.002 36.7891H151.498V37.697H151.002V36.7891ZM151.002 38.1838H151.498V42.124H151.002V38.1838Z" fill="currentColor"/>
<path d="M152.111 40.9568H152.611C152.624 41.1255 152.646 41.2627 152.686 41.3559C152.741 41.4917 152.826 41.5932 152.936 41.6617C153.037 41.7289 153.171 41.7632 153.329 41.7632C153.561 41.7632 153.734 41.7043 153.859 41.5753C153.996 41.4492 154.053 41.2805 154.053 41.0748C154.053 40.8951 154.007 40.7456 153.897 40.6236C153.801 40.5015 153.587 40.3822 153.254 40.2697C152.996 40.1779 152.816 40.0997 152.707 40.027C152.546 39.9255 152.431 39.8035 152.35 39.6691C152.261 39.5292 152.231 39.366 152.231 39.1808C152.231 38.8654 152.328 38.6021 152.541 38.3936C152.755 38.1852 153.012 38.0796 153.329 38.0796C153.543 38.0796 153.743 38.1303 153.911 38.2359C154.09 38.3374 154.227 38.48 154.315 38.6624C154.376 38.779 154.411 38.9504 154.428 39.1548H153.92C153.897 38.9504 153.837 38.7968 153.727 38.694C153.619 38.5856 153.485 38.5349 153.322 38.5349C153.156 38.5349 153.012 38.5925 152.9 38.7063C152.785 38.8201 152.727 38.9587 152.727 39.1219L152.816 39.4126L153.053 39.6197C153.128 39.6649 153.251 39.7143 153.414 39.7733C153.704 39.872 153.908 39.9598 154.029 40.0435C154.207 40.1532 154.336 40.2876 154.428 40.4425C154.513 40.6044 154.563 40.7964 154.563 41.0391C154.563 41.2585 154.51 41.4601 154.411 41.6439C154.315 41.8332 154.173 41.9744 153.982 42.0718C153.798 42.1705 153.587 42.2227 153.355 42.2227C153.128 42.2227 152.936 42.1801 152.771 42.0965C152.608 42.0101 152.476 41.9141 152.38 41.7934C152.281 41.6768 152.213 41.5548 152.173 41.4259C152.129 41.2969 152.111 41.142 152.111 40.9568Z" fill="currentColor"/>
<path d="M155.145 42.125V36.7888H155.641V38.6827H155.666C155.799 38.4976 155.966 38.3481 156.165 38.2425C156.364 38.1355 156.611 38.0807 156.914 38.0807C157.176 38.0807 157.417 38.1314 157.63 38.2247C157.846 38.3179 158.037 38.4605 158.203 38.6443C158.31 38.765 158.387 38.9131 158.462 39.0845C158.564 39.3575 158.614 39.6413 158.614 39.9581V42.125H158.108V39.9581C158.108 39.5083 157.992 39.1572 157.761 38.9049C157.529 38.658 157.228 38.536 156.867 38.536C156.653 38.536 156.465 38.5826 156.299 38.6745C156.132 38.7664 155.996 38.8788 155.893 39.0146C155.825 39.1106 155.764 39.2395 155.721 39.4C155.673 39.5673 155.641 39.7497 155.641 39.9581V42.125H155.145Z" fill="currentColor"/>
<path d="M163.288 40.3375H159.697C159.72 40.5487 159.761 40.7407 159.839 40.9026C159.918 41.0658 160.03 41.2139 160.163 41.3373C160.302 41.4621 160.459 41.5691 160.646 41.65C160.823 41.7254 161.016 41.7625 161.227 41.7625C161.547 41.7625 161.832 41.6802 162.088 41.5101C162.341 41.3442 162.526 41.1193 162.638 40.8326H163.173C163.086 41.0754 162.976 41.2729 162.858 41.4292C162.649 41.6802 162.407 41.8777 162.124 42.0148C161.843 42.1506 161.541 42.2178 161.209 42.2178C160.648 42.2178 160.17 42.0203 159.772 41.6253C159.38 41.2317 159.18 40.7558 159.18 40.1853C159.18 39.8068 159.272 39.4557 159.451 39.1266C159.639 38.8002 159.893 38.5451 160.227 38.3586C160.55 38.1707 160.887 38.0802 161.241 38.0802C161.585 38.0802 161.921 38.1707 162.25 38.3586C162.574 38.5451 162.829 38.8029 163.017 39.1321C163.201 39.4626 163.288 39.8068 163.288 40.1675V40.3375ZM162.778 39.8822C162.739 39.6806 162.684 39.5092 162.608 39.3652C162.54 39.2281 162.435 39.0978 162.305 38.9702C162.176 38.8509 162.023 38.7453 161.836 38.6562C161.646 38.578 161.444 38.5355 161.238 38.5355C161.027 38.5355 160.83 38.5725 160.655 38.6507C160.469 38.7275 160.315 38.829 160.186 38.9455C160.048 39.0676 159.948 39.2047 159.874 39.357C159.791 39.5092 159.734 39.6834 159.697 39.8822H162.778Z" fill="currentColor"/>
<path d="M168.004 36.7893V42.1282H167.507V41.4343H167.494C167.381 41.5865 167.275 41.7045 167.179 41.7881C167.016 41.9198 166.83 42.0254 166.621 42.1063C166.407 42.1803 166.187 42.2188 165.934 42.2188C165.346 42.2188 164.849 42.0199 164.448 41.6208C164.036 41.2217 163.836 40.7431 163.836 40.1822C163.836 39.7995 163.921 39.4457 164.112 39.1221C164.295 38.7929 164.546 38.5365 164.881 38.3541C165.21 38.1717 165.557 38.0798 165.934 38.0798C166.289 38.0798 166.612 38.1607 166.901 38.3225C167.116 38.4432 167.31 38.6201 167.494 38.8587H167.507V36.7893H168.004ZM167.54 40.1534C167.54 39.8928 167.469 39.6309 167.34 39.3717C167.211 39.1138 167.016 38.9136 166.769 38.7627C166.513 38.6078 166.237 38.5351 165.934 38.5351C165.645 38.5351 165.377 38.605 165.128 38.7463C164.881 38.8862 164.693 39.0782 164.546 39.3319C164.408 39.5883 164.339 39.8654 164.339 40.1616C164.339 40.4537 164.408 40.7294 164.546 40.9762C164.686 41.2258 164.881 41.4206 165.128 41.5563C165.38 41.6921 165.645 41.7662 165.938 41.7662C166.228 41.7662 166.499 41.6921 166.745 41.5522C167 41.4096 167.19 41.2149 167.33 40.9598C167.469 40.7047 167.54 40.4427 167.54 40.1534Z" fill="currentColor"/>
<path d="M171.155 42.125V37.2743H170.236V36.7888H171.693V42.125H171.155Z" fill="currentColor"/>
<path d="M174.254 42.125H173.641L174.879 40.3147L174.861 40.3079C174.705 40.3819 174.539 40.4244 174.358 40.4244C174.111 40.4244 173.882 40.3792 173.664 40.2873C173.45 40.1913 173.255 40.0692 173.114 39.917C172.965 39.762 172.843 39.5892 172.754 39.4068C172.63 39.1435 172.568 38.8651 172.568 38.5757C172.568 38.2425 172.651 37.9271 172.807 37.6308C172.967 37.3346 173.186 37.1069 173.468 36.9451C173.751 36.7833 174.059 36.7051 174.396 36.7051C174.746 36.7051 175.056 36.7888 175.339 36.9533C175.624 37.1138 175.838 37.3483 175.996 37.6459C176.141 37.9463 176.22 38.2548 176.22 38.573C176.22 38.8075 176.175 39.0311 176.101 39.2477C176.019 39.4603 175.845 39.762 175.573 40.1639L174.254 42.125ZM175.679 38.5469C175.679 38.3316 175.631 38.1122 175.529 37.8955C175.424 37.6747 175.274 37.5033 175.07 37.3757C174.868 37.2496 174.645 37.1851 174.396 37.1851C174.162 37.1851 173.947 37.2441 173.751 37.362C173.545 37.4772 173.388 37.6418 173.273 37.8612C173.161 38.0765 173.107 38.3083 173.107 38.5593C173.107 38.8144 173.165 39.0448 173.273 39.2683C173.393 39.4836 173.549 39.6468 173.751 39.7661C173.951 39.8855 174.166 39.9431 174.394 39.9431C174.586 39.9431 174.76 39.9019 174.916 39.8265C175.074 39.7497 175.208 39.6468 175.325 39.5289C175.429 39.4109 175.522 39.2615 175.584 39.0928C175.653 38.9186 175.679 38.7458 175.679 38.5469Z" fill="currentColor"/>
<path d="M176.689 42.125V41.6395L178.557 39.8416C178.849 39.5591 179.061 39.3424 179.194 39.1929C179.32 39.0365 179.414 38.8967 179.475 38.7499C179.537 38.6059 179.568 38.4564 179.568 38.3111C179.568 38.1259 179.517 37.9435 179.421 37.7625C179.32 37.5773 179.183 37.432 179.006 37.3346C178.826 37.229 178.636 37.1783 178.426 37.1783C178.264 37.1783 178.125 37.2016 177.999 37.2523C177.87 37.3003 177.765 37.3648 177.677 37.4416L177.449 37.7076C177.388 37.8201 177.346 37.9325 177.312 38.0573C177.282 38.1821 177.268 38.3316 177.257 38.514H176.726C176.733 38.2493 176.758 38.0423 176.806 37.8928C176.864 37.661 176.972 37.4567 177.119 37.2825C177.271 37.1028 177.456 36.9602 177.686 36.8546C177.921 36.749 178.169 36.6983 178.441 36.6983C178.969 36.6983 179.402 36.893 179.727 37.2962C179.978 37.6061 180.108 37.9545 180.108 38.3371C180.108 38.4948 180.085 38.6375 180.044 38.7664C180.007 38.8967 179.956 39.0146 179.897 39.1147L179.693 39.3904C179.504 39.618 179.316 39.8224 179.121 40.0089L177.411 41.6395H180.071V42.125H176.689Z" fill="currentColor"/>
<path d="M180.998 42.125L183.199 37.2743H180.666V36.7888H183.75V37.2743L181.563 42.125H180.998Z" fill="currentColor"/>
<path d="M134.49 22.1718C135.497 22.1718 136.273 22.0539 136.79 21.7659C138.119 21.0006 138.365 19.9995 138.378 18.8201C138.382 17.3773 137.572 16.3419 136.79 15.9977C136.354 15.7481 135.8 15.5506 134.327 15.5245H131.687V22.1718H134.49ZM135.018 30.9627C135.895 30.9627 136.733 30.8475 137.369 30.6171C138.576 30.0795 139.426 29.1154 139.46 27.312C139.456 25.6964 138.631 24.4786 137.32 23.8902C136.432 23.5158 135.915 23.498 134.49 23.498H131.687V30.9627H135.018ZM134.327 14.1984C135.84 14.1956 136.809 14.4438 137.547 14.8745C139.297 15.8002 139.783 17.557 139.773 18.9188C139.785 19.3508 139.763 21.4272 137.834 22.6642C140.603 23.834 140.867 26.5083 140.862 27.3161C140.844 29.5721 139.691 31.104 137.871 31.8733C137.073 32.1462 136.12 32.2861 134.987 32.2861H130.291V14.1984H134.327Z" fill="currentColor"/>
<path d="M143.488 25.7107C143.532 28.3919 145.301 31.2897 149.115 31.2952C152.357 31.2897 154.591 28.7663 154.602 25.7176C154.591 22.4824 152.206 20.1386 149.044 20.1318C145.975 20.1386 143.495 22.3946 143.488 25.7107ZM149.044 32.5967C146.907 32.5967 145.165 31.7615 143.981 30.4806C142.787 29.1942 142.139 27.4785 142.139 25.7176C142.139 23.9101 142.805 22.1903 144.005 20.9217C145.207 19.649 146.946 18.8303 149.044 18.8303C151.547 18.8344 153.497 20.0426 154.534 21.4278V19.1375H155.88V31.9466V32.2867H154.534V29.9759C153.305 31.6202 151.377 32.5967 149.063 32.5967H149.044Z" fill="currentColor"/>
<path d="M169.625 32.2861V25.359C169.625 23.2539 169.059 21.9867 168.213 21.2201C167.338 20.4301 166.134 20.1312 164.919 20.1312C161.923 20.2093 160.234 21.8016 160.208 24.7721V32.2861H158.857V19.1369H160.208V20.7538C161.283 19.4674 163.113 18.8338 164.77 18.8283L164.915 18.8297C166.569 18.8297 167.975 19.2713 169.046 20.1545C170.365 21.2832 170.978 23.0742 170.974 25.359V32.2861H169.625Z" fill="currentColor"/>
<path d="M21.8516 14.3206C24.8577 14.1177 25.025 16.1391 25.025 16.3723V20.6347C25.6573 20.0834 26.3512 19.6747 26.9944 19.4031C27.6417 19.1275 28.2945 18.9876 28.9514 18.9876C30.2324 18.9876 31.3213 19.4361 32.2031 20.3247C32.9546 21.0969 33.329 22.2269 33.329 23.7177V32.2822H30.1281V26.6018C30.1281 25.1014 30.0554 24.0811 29.9169 23.5531C29.7743 23.0182 29.5302 22.6274 29.1791 22.3613C28.8349 22.1007 28.4138 21.965 27.8996 21.965C27.244 21.965 26.6762 22.1871 26.2058 22.6274C25.73 23.0607 25.4036 23.6559 25.2225 24.4075C25.1279 24.8025 25.0772 25.6884 25.0772 27.0818V32.2822H21.8516V14.3206Z" fill="currentColor"/>
<path d="M100.07 32.2822L95.0974 25.4209L99.4956 19.3236C99.4956 19.3236 96.2878 18.7832 95.0466 20.4248C94.0592 21.6687 93.2364 22.8564 93.2364 22.8564L90.6745 19.3236H86.9017L91.3561 25.4662L86.3408 32.2822C86.3408 32.2822 89.5733 32.8294 90.8254 31.1782C91.5865 30.2141 91.3863 30.4939 93.2226 28.0431L96.2974 32.2822H100.07Z" fill="currentColor"/>
<path d="M69.4207 16.4052C69.4207 16.1693 69.2575 14.1094 66.1992 14.3193V32.2822H69.4317L69.4207 16.4052Z" fill="currentColor"/>
<path d="M178.469 25.5675L183.336 19.1382H181.597L175.275 27.5574V21.7042V18.8626V16.4064V16.3926V15.072C175.275 14.9705 175.199 14.112 173.924 14.1984V32.2861H175.275V29.7805L177.614 26.6592L181.999 32.2861H183.751L178.469 25.5675Z" fill="currentColor"/>
<path d="M198.035 17.6723L198.107 17.8122L198.144 17.8999C199.385 20.4549 198.552 22.5093 198.123 23.8341L198.107 23.9699C197.841 24.9902 197.712 25.9968 197.68 26.9582C197.695 29.0373 198.15 30.9532 198.65 32.4288L198.606 32.4974L198.64 32.5852L198.65 32.614C198.407 33.0199 198.205 33.5246 198.096 34.1568L198.056 34.534L196.099 30.2277L196.059 30.2606L196.062 30.2277L194.12 34.6602L194.072 34.1568C193.966 33.5246 193.766 33.0199 193.514 32.614L193.527 32.5852C194.353 30.5034 194.823 27.7358 194.238 24.7392C195.018 23.8149 196.65 20.5824 198.035 17.6723Z" fill="currentColor"/>
<path d="M201.718 9.10431C201.718 9.10431 201.691 9.10431 201.546 9.3306C201.396 9.55825 201.13 9.4458 201.13 9.4458C201.27 9.3978 201.259 9.34431 201.385 9.20168C201.511 9.05494 201.718 9.10431 201.718 9.10431ZM201.98 8.06614L202.212 8.54065C202.212 8.54065 202.421 9.02065 201.98 9.02065C201.548 9.02065 201.736 8.55437 201.736 8.55437L201.98 8.06614ZM201.98 9.66797L201.762 9.40877C201.762 9.40877 201.579 9.13585 201.98 9.13585C202.363 9.13585 202.192 9.3978 202.192 9.3978L201.98 9.66797ZM202.814 8.04694C202.678 8.13334 202.774 8.601 202.619 8.8026C202.511 8.937 202.29 8.9562 202.29 8.9562C202.423 8.73265 202.315 8.66683 202.348 8.39528C202.423 8.02363 202.814 8.04694 202.814 8.04694ZM201.119 8.04694C201.119 8.04694 201.525 8.02363 201.592 8.39528C201.628 8.66683 201.525 8.73265 201.658 8.9562C201.658 8.9562 201.426 8.937 201.321 8.8026C201.164 8.601 201.267 8.13334 201.119 8.04694ZM202.237 9.10431C202.237 9.10431 202.454 9.05494 202.577 9.20168C202.699 9.34431 202.688 9.3978 202.832 9.4458C202.832 9.4458 202.552 9.55825 202.421 9.3306C202.263 9.10431 202.237 9.10431 202.237 9.10431Z" fill="currentColor"/>
<path d="M196.072 31.7281L194.449 35.4255C194.449 35.4255 193.225 38.9844 196.072 38.9844C198.983 38.9844 197.634 35.3556 197.634 35.3556L196.072 31.7281Z" fill="currentColor"/>
<path d="M196.059 43.6299L197.528 41.5426C197.528 41.5426 198.645 39.5293 196.059 39.5293C193.406 39.5293 194.644 41.5837 194.644 41.5837L196.059 43.6299Z" fill="currentColor"/>
<path d="M201.658 31.5643C201.658 31.5643 199.011 31.4244 198.538 34.2344C198.308 36.2957 199.011 36.81 198.131 38.5723C198.131 38.5723 199.641 38.3885 200.342 37.3778C201.42 35.8335 200.757 32.2514 201.658 31.5643Z" fill="currentColor"/>
<path d="M190.426 31.5643C190.426 31.5643 193.062 31.4244 193.535 34.2344C193.769 36.2957 193.062 36.81 193.939 38.5723C193.939 38.5723 192.439 38.3885 191.745 37.3778C190.656 35.8335 191.32 32.2514 190.426 31.5643Z" fill="currentColor"/>
<path d="M197.799 39.293C197.799 39.293 199.191 38.9501 200.034 40.0432C200.875 41.1252 200.802 41.5284 201.717 41.933C201.717 41.933 199.966 42.749 198.982 41.0251C197.998 39.293 197.799 39.293 197.799 39.293Z" fill="currentColor"/>
<path d="M194.378 39.293C194.378 39.293 192.997 38.9501 192.147 40.0432C191.299 41.1252 191.368 41.5284 190.453 41.933C190.453 41.933 192.218 42.749 193.199 41.0251C194.183 39.293 194.378 39.293 194.378 39.293Z" fill="currentColor"/>
<path d="M196.66 6.12159C197.616 6.36845 197.705 7.28319 197.716 7.45051C197.409 7.27633 196.968 7.16662 196.481 7.16662C195.964 7.16662 195.511 7.23656 195.204 7.42171L195.109 7.47656C195.247 6.39451 196.185 6.09416 196.185 6.09416V5.17668C196.46 4.90788 196.66 5.17668 196.66 5.17668V6.12159Z" fill="currentColor"/>
<path d="M196.319 7.63763C196.319 7.63763 197.286 7.49088 197.503 8.2726C197.739 9.06254 197.551 9.09683 198.222 9.88266C198.899 10.6699 198.562 11.1979 198.371 11.1567C198.183 11.1224 197.661 10.4847 197.406 10.6383C197.149 10.7823 196.873 11.3473 196.319 11.3076C195.758 11.2705 195.374 10.5176 195.119 10.5889C194.855 10.6699 194.382 11.0909 194.295 11.1224C194.152 11.1773 193.548 10.9291 194.03 10.1473C194.52 9.35603 194.623 9.95671 195.071 8.87466C195.531 7.78574 195.647 7.67329 196.319 7.63763Z" fill="currentColor"/>
<path d="M189.954 9.10431C189.954 9.10431 189.929 9.10431 189.784 9.3306C189.634 9.55825 189.364 9.4458 189.364 9.4458C189.504 9.3978 189.487 9.34431 189.623 9.20168C189.747 9.05494 189.954 9.10431 189.954 9.10431ZM190.209 8.06614L190.442 8.54065C190.442 8.54065 190.648 9.02065 190.209 9.02065C189.784 9.02065 189.967 8.55437 189.967 8.55437L190.209 8.06614ZM190.209 9.66797L189.998 9.40877C189.998 9.40877 189.811 9.13585 190.209 9.13585C190.593 9.13585 190.427 9.3978 190.427 9.3978L190.209 9.66797ZM191.049 8.04694C190.912 8.13334 191.011 8.601 190.851 8.8026C190.745 8.937 190.517 8.9562 190.517 8.9562C190.657 8.73265 190.549 8.66683 190.579 8.39528C190.657 8.02363 191.049 8.04694 191.049 8.04694ZM189.352 8.04694C189.352 8.04694 189.755 8.02363 189.827 8.39528C189.866 8.66683 189.755 8.73265 189.892 8.9562C189.892 8.9562 189.664 8.937 189.555 8.8026C189.4 8.601 189.49 8.13334 189.352 8.04694ZM190.471 9.10431C190.471 9.10431 190.68 9.05494 190.811 9.20168C190.937 9.34431 190.919 9.3978 191.063 9.4458C191.063 9.4458 190.793 9.55825 190.648 9.3306C190.497 9.10431 190.471 9.10431 190.471 9.10431Z" fill="currentColor"/>
<path d="M194.057 23.8809L194.054 23.8342C193.62 22.5094 192.782 20.455 194.027 17.9001L194.057 17.8109C194.183 17.5668 194.307 17.3103 194.429 17.0018C194.599 16.5698 194.296 16.0143 194.082 15.666L197.871 11.9933L199.65 12.6228L199.569 12.8559C198.457 15.3533 195.33 22.2228 194.057 23.8809Z" fill="currentColor"/>
<path d="M202.81 10.7556C202.673 10.185 202.027 9.79966 201.898 10.0081C201.898 10.0081 201.591 10.3112 201.687 10.7556C201.797 11.1917 201.929 11.8404 201.724 12.175C201.545 12.4918 200.575 13.3366 200.044 13.6808L199.865 13.7795C199.626 14.3075 199.313 14.9741 198.965 15.7188L199.088 16.0973L199.143 16.2605L199.157 16.3085C199.262 16.2755 199.721 16.1343 200.299 15.8559L200.262 15.6749C200.201 15.4609 200.198 15.3622 200.147 15.1002L200.221 15.0591C200.419 14.9878 200.623 14.8781 200.803 14.7231C201.457 14.169 202.206 13.0568 202.572 11.8403C202.769 11.1738 202.769 11.252 202.769 11.252C202.769 11.2287 202.857 10.9818 202.81 10.7556ZM200.401 16.3167C200.01 16.5183 199.398 16.7267 199.279 16.7665L199.435 17.3343C199.435 17.5565 199.46 17.7951 199.518 18.0392C199.789 19.1185 200.84 20.372 200.929 21.0838C201.017 21.7983 201.167 22.713 201.409 22.916C201.65 23.1217 201.923 21.9711 201.946 21.5926C201.981 21.2196 202.249 21.727 202.34 21.4266L202.347 21.3759C202.409 21.0742 201.409 20.6888 201.106 19.2776C200.885 18.1681 200.52 16.7871 200.401 16.3167Z" fill="currentColor"/>
<path d="M192.66 16.2953L192.616 16.512V16.5189L192.549 16.8686C192.49 17.0428 192.446 17.1772 192.446 17.1772C192.072 17.782 190.861 19.6444 190.472 19.6951C189.998 19.7637 189.521 19.1589 189.521 19.1589C188.579 18.6446 187.694 19.4002 187.528 19.6649C187.358 19.9433 187.894 19.9433 188.5 20.0668C189.116 20.2094 189.659 20.6798 190.745 20.2409C191.637 19.8734 192.697 18.8119 193.214 18.1646C193.289 18.1138 193.358 18.0014 193.413 17.867C193.446 17.7765 193.551 17.2965 193.63 16.9646L193.671 16.7506C193.167 16.5504 192.66 16.2953 192.66 16.2953ZM197.225 11.7765C195.674 11.627 194.045 12.0384 193.464 12.8352C193.337 12.9957 193.181 13.5689 193.044 14.1696C192.552 13.9324 192.15 13.6512 192.15 13.6512C191.623 13.307 190.656 12.4636 190.47 12.1481C190.263 11.8135 190.403 11.1648 190.504 10.7314C190.599 10.2844 190.3 9.98675 190.3 9.98675C190.176 9.77281 189.528 10.1582 189.388 10.7314C189.333 10.9536 189.429 11.1977 189.429 11.2252C189.429 11.2252 189.422 11.147 189.626 11.8135C189.998 13.0327 190.736 14.1449 191.389 14.6921C191.531 14.8142 191.98 15.0967 192.797 15.3902C192.759 15.6041 192.733 15.7673 192.715 15.8565C192.942 16.0018 193.756 16.3049 193.756 16.3049C193.831 15.8757 193.956 15.1762 193.976 15.0268L193.981 14.9966L197.287 11.7792L197.225 11.7765Z" fill="currentColor"/>
</svg>
