<svg width="24" height="24" viewBox="0 0 24 24" fill="none" xmlns="http://www.w3.org/2000/svg">
<g clip-path="url(#clip0_3396_71298)">
<g clip-path="url(#clip1_3396_71298)">
<circle cx="12" cy="12" r="12" fill="currentColor"/>
<g clip-path="url(#clip2_3396_71298)">
<path d="M1.5 8.25C8.55375 8.25 15.6075 8.25 22.875 8.25C22.875 10.725 22.875 13.2 22.875 15.75C15.8212 15.75 8.7675 15.75 1.5 15.75C1.5 13.275 1.5 10.8 1.5 8.25Z" fill="currentColor"/>
<path d="M1.54688 13.875C8.58509 13.875 15.6233 13.875 22.8748 13.875C22.8748 14.4937 22.8748 15.1125 22.8748 15.75C15.8366 15.75 8.79837 15.75 1.54688 15.75C1.54688 15.1313 1.54688 14.5125 1.54688 13.875Z" fill="currentColor"/>
<path d="M1.43945 8.26102C2.25481 8.25162 2.25481 8.25162 2.60472 8.24958C2.84267 8.24818 3.0806 8.24654 3.31853 8.24334C3.51055 8.24078 3.70254 8.23939 3.89458 8.23878C3.96752 8.23835 4.04046 8.23751 4.11339 8.23624C4.54932 8.22894 4.87264 8.26246 5.25305 8.4954C5.30743 8.51473 5.36181 8.53407 5.41784 8.55399C5.94903 8.81842 6.37357 9.34535 6.6243 9.87235C6.74409 10.2301 6.7745 10.5687 6.77143 10.9446C6.77198 11.0126 6.77198 11.0126 6.77254 11.0819C6.77142 11.4871 6.77142 11.4871 6.6655 11.6829C6.63443 11.6829 6.60335 11.6829 6.57134 11.6829C6.57328 11.7264 6.57522 11.7699 6.57722 11.8147C6.57134 11.9641 6.57134 11.9641 6.47717 12.1048C6.4461 12.1048 6.41503 12.1048 6.38301 12.1048C6.37636 12.145 6.37636 12.145 6.36958 12.1861C6.32815 12.3168 6.26539 12.3894 6.17409 12.4915C6.14502 12.5246 6.11594 12.5577 6.08599 12.5918C6.00636 12.6673 6.00636 12.6673 5.9122 12.6673C5.9122 12.6982 5.9122 12.7291 5.9122 12.761C5.83391 12.8082 5.75542 12.855 5.67679 12.9016C5.64571 12.9481 5.61464 12.9945 5.58262 13.0423C5.5041 13.0782 5.42518 13.1136 5.34448 13.1444C5.2394 13.1855 5.2394 13.1855 5.10261 13.2801C4.79144 13.4352 4.4271 13.3933 4.08779 13.3887C4.01127 13.3884 3.93475 13.3881 3.85823 13.3879C3.65791 13.3872 3.45761 13.3854 3.2573 13.3833C3.01638 13.381 2.77546 13.3802 2.53454 13.3791C2.16949 13.3772 1.8045 13.3737 1.43945 13.3704C1.43945 12.7516 1.43945 12.1329 1.43945 11.4954C1.96771 11.4954 2.49596 11.4954 3.04022 11.4954C3.04022 11.1241 3.04022 10.7529 3.04022 10.3704C3.14898 10.3549 3.25774 10.3395 3.36979 10.3235C3.24344 10.2334 3.11684 10.1437 2.9902 10.054C2.95479 10.0287 2.91937 10.0035 2.88289 9.97745C2.67419 9.82993 2.4644 9.69585 2.23984 9.57352C2.1939 9.60681 2.14795 9.64011 2.10062 9.67441C2.04012 9.71794 1.97961 9.76146 1.9191 9.80497C1.87371 9.83791 1.87371 9.83791 1.82742 9.87152C1.79813 9.89252 1.76885 9.91352 1.73868 9.93515C1.7118 9.95455 1.68493 9.97394 1.65724 9.99392C1.5807 10.0423 1.5807 10.0423 1.43945 10.0891C1.43945 9.48586 1.43945 8.88258 1.43945 8.26102Z" fill="currentColor"/>
<path d="M12.2344 13.875C15.7457 13.875 19.2571 13.875 22.8748 13.875C22.8748 14.4937 22.8748 15.1125 22.8748 15.75C19.3635 15.75 15.8521 15.75 12.2344 15.75C12.2344 15.1313 12.2344 14.5125 12.2344 13.875Z" fill="currentColor"/>
<path d="M7.29102 8.57844C7.65897 8.57525 8.02691 8.57268 8.39488 8.57115C8.56577 8.57042 8.73665 8.56943 8.90753 8.56783C9.07269 8.56629 9.23783 8.56546 9.40299 8.5651C9.49614 8.56471 9.58929 8.56362 9.68244 8.56251C10.363 8.56238 10.363 8.56238 10.6108 8.78216C10.8217 9.01755 10.8809 9.23009 10.8821 9.53934C10.8826 9.60005 10.883 9.66076 10.8835 9.72331C10.8835 9.78926 10.8834 9.85521 10.8834 9.92115C10.8836 9.98928 10.8838 10.0574 10.884 10.1255C10.8843 10.2682 10.8843 10.4109 10.8841 10.5536C10.8838 10.7356 10.8846 10.9176 10.8857 11.0997C10.8864 11.2404 10.8864 11.3811 10.8863 11.5218C10.8863 11.5889 10.8865 11.6559 10.887 11.723C10.892 12.5156 10.892 12.5156 10.6663 12.7741C10.4297 12.9886 10.1789 13.0435 9.86728 13.0422C9.78106 13.0422 9.78106 13.0422 9.6931 13.0422C9.60106 13.0415 9.60106 13.0415 9.50716 13.0407C9.44317 13.0405 9.37918 13.0404 9.3152 13.0403C9.14755 13.04 8.9799 13.039 8.81225 13.038C8.64088 13.037 8.4695 13.0366 8.29812 13.0361C7.96241 13.0351 7.62672 13.0335 7.29102 13.0316C7.29102 12.7222 7.29102 12.4128 7.29102 12.0941C7.43085 12.0941 7.57068 12.0941 7.71475 12.0941C7.71475 11.2433 7.71475 10.3925 7.71475 9.51594C7.57492 9.51594 7.43509 9.51594 7.29102 9.51594C7.29102 9.20656 7.29102 8.89719 7.29102 8.57844Z" fill="currentColor"/>
<path d="M1.54666 8.25C1.53066 8.25 1.5622 8.25 1.54666 8.25C1.54666 8.85328 1.54666 9.45656 1.54666 10.0781C1.94285 9.79969 1.94285 9.79969 2.34705 9.51563C2.71842 9.72691 2.71842 9.72691 2.89419 9.85309C2.93136 9.87977 2.96853 9.90644 3.00683 9.93393C3.04449 9.96121 3.08215 9.98849 3.12095 10.0166C3.17935 10.0583 3.17935 10.0583 3.23893 10.1009C3.45138 10.2541 3.45138 10.2541 3.52409 10.3125C3.52409 10.328 3.52409 10.3434 3.52409 10.3594C3.39979 10.3594 3.2755 10.3594 3.14743 10.3594C3.14743 10.7306 3.14743 11.1019 3.14743 11.4844C2.61918 11.4844 2.09093 11.4844 1.54666 11.4844C1.54666 12.1031 1.54666 12.7219 1.54666 13.3594C8.58488 13.3594 15.6231 13.3594 22.8746 13.3594C22.8746 13.5295 22.8746 13.6997 22.8746 13.875C15.8364 13.875 8.79816 13.875 1.54666 13.875C1.54666 14.4938 1.54666 15.1125 1.54666 15.75C1.53113 15.75 1.56267 15.75 1.54666 15.75C1.54666 13.275 1.54666 10.8 1.54666 8.25Z" fill="currentColor"/>
<path d="M11.1514 8.57812C11.6952 8.57812 12.2389 8.57812 12.7992 8.57812C12.7992 9.16594 12.7992 9.75375 12.7992 10.3594C13.0323 10.3594 13.2653 10.3594 13.5054 10.3594C13.5054 9.77156 13.5054 9.18375 13.5054 8.57812C14.0492 8.57812 14.593 8.57812 15.1533 8.57812C15.1533 8.90297 15.1533 9.22781 15.1533 9.5625C15.0135 9.5625 14.8736 9.5625 14.7296 9.5625C14.7296 10.3823 14.7296 11.2022 14.7296 12.0469C14.8694 12.0469 15.0092 12.0469 15.1533 12.0469C15.1533 12.3717 15.1533 12.6966 15.1533 13.0312C14.6095 13.0312 14.0657 13.0312 13.5054 13.0312C13.5054 12.4589 13.5054 11.8866 13.5054 11.2969C13.2724 11.2969 13.0393 11.2969 12.7992 11.2969C12.7992 11.8692 12.7992 12.4416 12.7992 13.0312C12.2554 13.0312 11.7116 13.0312 11.1514 13.0312C11.1514 12.7064 11.1514 12.3816 11.1514 12.0469C11.2912 12.0469 11.431 12.0469 11.5751 12.0469C11.5751 11.227 11.5751 10.4072 11.5751 9.5625C11.4353 9.5625 11.2954 9.5625 11.1514 9.5625C11.1514 9.23766 11.1514 8.91281 11.1514 8.57812Z" fill="currentColor"/>
<path d="M15.3889 8.57812C16.5075 8.57812 17.6262 8.57812 18.7787 8.57812C18.7787 9.04219 18.7787 9.50625 18.7787 9.98438C18.4525 9.98438 18.1262 9.98438 17.79 9.98438C17.79 9.84516 17.79 9.70594 17.79 9.5625C17.5414 9.5625 17.2929 9.5625 17.0367 9.5625C17.0367 9.81 17.0367 10.0575 17.0367 10.3125C17.3319 10.3125 17.6271 10.3125 17.9313 10.3125C17.9313 10.6373 17.9313 10.9622 17.9313 11.2969C17.6361 11.2969 17.3409 11.2969 17.0367 11.2969C17.0367 11.5444 17.0367 11.7919 17.0367 12.0469C17.1921 12.0469 17.3475 12.0469 17.5075 12.0469C17.5075 12.3717 17.5075 12.6966 17.5075 13.0312C16.7928 13.0312 16.0782 13.0312 15.3418 13.0312C15.3418 12.7064 15.3418 12.3816 15.3418 12.0469C15.4972 12.0469 15.6525 12.0469 15.8126 12.0469C15.8126 11.227 15.8126 10.4072 15.8126 9.5625C15.6728 9.5625 15.5329 9.5625 15.3889 9.5625C15.3889 9.23766 15.3889 8.91281 15.3889 8.57812Z" fill="currentColor"/>
<path d="M19.0615 8.57812C19.7296 8.57812 20.3977 8.57812 21.086 8.57812C21.086 8.90297 21.086 9.22781 21.086 9.5625C20.9617 9.5625 20.8374 9.5625 20.7094 9.5625C20.7094 10.3823 20.7094 11.2022 20.7094 12.0469C20.8803 12.0469 21.0512 12.0469 21.2273 12.0469C21.2273 11.8148 21.2273 11.5828 21.2273 11.3438C21.6468 11.3438 22.0663 11.3438 22.4985 11.3438C22.4985 11.9006 22.4985 12.4575 22.4985 13.0312C21.3643 13.0312 20.2301 13.0312 19.0615 13.0312C19.0615 12.7064 19.0615 12.3816 19.0615 12.0469C19.2014 12.0469 19.3412 12.0469 19.4853 12.0469C19.4853 11.227 19.4853 10.4072 19.4853 9.5625C19.3454 9.5625 19.2056 9.5625 19.0615 9.5625C19.0615 9.23766 19.0615 8.91281 19.0615 8.57812Z" fill="currentColor"/>
<path d="M1.54688 13.875C5.07375 13.875 8.60063 13.875 12.2344 13.875C12.2344 14.4937 12.2344 15.1125 12.2344 15.75C12.1878 15.75 12.1412 15.75 12.0931 15.75C12.0931 15.1467 12.0931 14.5434 12.0931 13.9219C8.97021 13.9219 5.8473 13.9219 2.62975 13.9219C2.62975 14.0302 2.62975 14.1384 2.62975 14.25C2.58314 14.2345 2.53653 14.2191 2.4885 14.2031C2.21352 14.1764 2.21352 14.1764 1.97061 14.291C1.83836 14.4967 1.83954 14.6682 1.87645 14.9062C1.9562 15.0836 1.9562 15.0836 2.11185 15.1875C2.27069 15.211 2.27069 15.211 2.44142 15.1875C2.56526 15.0857 2.65204 15.0025 2.72391 14.8594C2.6773 14.8594 2.63069 14.8594 2.58267 14.8594C2.57781 14.8884 2.57296 14.9174 2.56795 14.9473C2.53559 15.0469 2.53559 15.0469 2.39434 15.1406C2.22956 15.1377 2.22956 15.1377 2.06477 15.0938C1.94303 14.9608 1.92511 14.874 1.90587 14.6953C1.92453 14.5219 1.95923 14.4343 2.06477 14.2969C2.19654 14.2313 2.29571 14.2382 2.44142 14.25C2.5297 14.3145 2.5297 14.3145 2.58267 14.3906C2.58267 14.4216 2.58267 14.4525 2.58267 14.4844C2.62928 14.4844 2.67589 14.4844 2.72391 14.4844C2.70838 14.438 2.69284 14.3916 2.67683 14.3438C2.7079 14.3438 2.73898 14.3438 2.77099 14.3438C2.80207 14.2819 2.83314 14.22 2.86516 14.1562C2.86516 14.4966 2.86516 14.8369 2.86516 15.1875C2.91177 15.1875 2.95838 15.1875 3.0064 15.1875C3.00531 15.148 3.00422 15.1085 3.00309 15.0677C3.00224 15.0164 3.00139 14.965 3.00052 14.9121C2.99942 14.861 2.99833 14.8099 2.99721 14.7572C3.0064 14.625 3.0064 14.625 3.10056 14.5312C3.31505 14.5573 3.31505 14.5573 3.38305 14.625C3.38646 14.7197 3.387 14.8145 3.386 14.9092C3.38557 14.961 3.38515 15.0127 3.38471 15.0661C3.38416 15.1062 3.38362 15.1462 3.38305 15.1875C3.42966 15.1875 3.47627 15.1875 3.5243 15.1875C3.5243 15.1256 3.5243 15.0638 3.5243 15C3.55537 15 3.58645 15 3.61846 15C3.61846 15.0464 3.61846 15.0928 3.61846 15.1406C3.68411 15.1499 3.74985 15.1586 3.81561 15.167C3.85221 15.1719 3.88881 15.1768 3.92651 15.1818C4.06323 15.1932 4.06323 15.1932 4.2776 15.1406C4.2776 14.9395 4.2776 14.7384 4.2776 14.5312C4.30868 14.5777 4.33975 14.6241 4.37176 14.6719C4.40284 14.6255 4.43391 14.5791 4.46593 14.5312C4.46593 14.7478 4.46593 14.9644 4.46593 15.1875C4.58245 15.2339 4.58245 15.2339 4.70134 15.2812C4.71044 15.2547 4.71954 15.2282 4.72892 15.2009C4.74118 15.1665 4.75344 15.1321 4.76607 15.0967C4.77809 15.0624 4.79011 15.0282 4.80249 14.9929C4.84258 14.9062 4.84258 14.9062 4.93674 14.8594C4.93674 14.9677 4.93674 15.0759 4.93674 15.1875C4.98335 15.1875 5.02996 15.1875 5.07799 15.1875C5.07799 14.9709 5.07799 14.7544 5.07799 14.5312C5.14013 14.5467 5.20228 14.5622 5.26631 14.5781C5.26895 14.6264 5.26895 14.6264 5.27165 14.6757C5.27474 14.718 5.27784 14.7602 5.28103 14.8037C5.28376 14.8456 5.28649 14.8875 5.2893 14.9306C5.31694 15.064 5.34148 15.1117 5.45464 15.1875C5.55213 15.1944 5.55213 15.1944 5.65179 15.1729C5.71103 15.1622 5.77026 15.1516 5.83129 15.1406C5.80799 15.2566 5.80799 15.2566 5.78421 15.375C5.48289 15.4385 5.48289 15.4385 5.33988 15.3545C5.3156 15.3303 5.29133 15.3062 5.26631 15.2812C5.33572 15.3857 5.33572 15.3857 5.45464 15.4688C5.58733 15.481 5.70783 15.473 5.83129 15.4219C5.9733 15.2306 5.9415 14.9885 5.94716 14.7609C5.95553 14.716 5.96391 14.6712 5.97254 14.625C6.03468 14.5941 6.09683 14.5631 6.16086 14.5312C6.16086 14.7478 6.16086 14.9644 6.16086 15.1875C6.19194 15.1875 6.22301 15.1875 6.25502 15.1875C6.25502 14.9555 6.25502 14.7234 6.25502 14.4844C6.31717 14.4689 6.37932 14.4534 6.44335 14.4375C6.44335 14.685 6.44335 14.9325 6.44335 15.1875C6.47442 15.1875 6.5055 15.1875 6.53751 15.1875C6.53506 15.1341 6.53506 15.1341 6.53255 15.0797C6.53064 15.0098 6.53064 15.0098 6.52869 14.9385C6.52705 14.8923 6.52541 14.846 6.52372 14.7984C6.53751 14.6719 6.53751 14.6719 6.60096 14.5842C6.67876 14.5312 6.67876 14.5312 6.80235 14.543C6.91417 14.5781 6.91417 14.5781 6.96125 14.625C6.96466 14.7197 6.96519 14.8145 6.96419 14.9092C6.96376 14.961 6.96334 15.0127 6.9629 15.0661C6.96236 15.1062 6.96181 15.1462 6.96125 15.1875C6.99232 15.1875 7.02339 15.1875 7.05541 15.1875C7.05377 15.1553 7.05213 15.1231 7.05044 15.0899C7.04917 15.0477 7.0479 15.0054 7.04658 14.9619C7.04412 14.8991 7.04412 14.8991 7.04162 14.835C7.05773 14.6992 7.09091 14.6613 7.19665 14.5781C7.20127 14.6103 7.20588 14.6425 7.21063 14.6757C7.21767 14.718 7.22471 14.7602 7.23197 14.8037C7.2418 14.8665 7.2418 14.8665 7.25183 14.9306C7.29943 15.0726 7.35011 15.1141 7.47914 15.1875C7.61322 15.2002 7.68801 15.2007 7.80871 15.1406C7.79318 15.218 7.77764 15.2953 7.76163 15.375C7.46031 15.4385 7.46031 15.4385 7.3173 15.3545C7.29302 15.3303 7.26875 15.3062 7.24374 15.2812C7.31411 15.3828 7.31411 15.3828 7.43206 15.4688C7.56195 15.4855 7.67693 15.4775 7.80871 15.4688C7.77764 15.5152 7.74657 15.5616 7.71455 15.6094C7.76116 15.6403 7.80777 15.6712 7.8558 15.7031C7.73497 15.7633 7.64969 15.7558 7.51437 15.7556C7.43574 15.7557 7.43574 15.7557 7.35552 15.7558C7.29775 15.7557 7.23997 15.7555 7.18045 15.7553C7.0895 15.7553 7.0895 15.7553 6.99672 15.7553C6.83019 15.7554 6.66367 15.7551 6.49714 15.7548C6.32321 15.7545 6.14928 15.7544 5.97535 15.7544C5.64587 15.7542 5.31639 15.7538 4.98691 15.7534C4.61185 15.7529 4.2368 15.7526 3.86175 15.7524C3.09012 15.7519 2.3185 15.751 1.54688 15.75C1.54688 15.1313 1.54688 14.5125 1.54688 13.875Z" fill="currentColor"/>
<path d="M2.63032 13.9219C3.85773 13.9219 5.08514 13.9219 6.34975 13.9219C6.31868 14.092 6.28761 14.2622 6.25559 14.4375C6.19344 14.422 6.1313 14.4066 6.06727 14.3906C6.09834 14.2978 6.12941 14.205 6.16143 14.1094C6.11482 14.1094 6.06821 14.1094 6.02018 14.1094C5.92665 14.3786 5.91723 14.6113 5.92602 14.8945C5.92842 14.9734 5.9304 15.0522 5.93191 15.1311C5.933 15.1656 5.93409 15.2001 5.93522 15.2356C5.92602 15.3281 5.92602 15.3281 5.83186 15.4688C5.50578 15.5421 5.50578 15.5421 5.3375 15.4541C5.26688 15.375 5.26688 15.375 5.26688 15.2812C5.29116 15.2967 5.31543 15.3122 5.34044 15.3281C5.49194 15.39 5.62268 15.3812 5.78478 15.375C5.78478 15.3131 5.78478 15.2513 5.78478 15.1875C5.73428 15.1991 5.68379 15.2107 5.63176 15.2227C5.45521 15.2344 5.45521 15.2344 5.34339 15.1699C5.24781 15.0162 5.24029 14.8935 5.23267 14.7153C5.22842 14.6855 5.22417 14.6557 5.2198 14.625C5.17319 14.6018 5.17319 14.6018 5.12563 14.5781C5.1101 14.7792 5.09456 14.9803 5.07855 15.1875C5.03194 15.1875 4.98533 15.1875 4.93731 15.1875C4.914 15.0483 4.914 15.0483 4.89023 14.9062C4.88149 14.9599 4.88149 14.9599 4.87257 15.0146C4.83567 15.1726 4.7692 15.2611 4.65482 15.375C4.54032 15.2904 4.47391 15.2263 4.44682 15.0844C4.44043 15.0099 4.43553 14.9352 4.43229 14.8605C4.42777 14.755 4.42777 14.755 4.32525 14.6719C4.32525 14.842 4.32525 15.0122 4.32525 15.1875C4.24756 15.1875 4.16988 15.1875 4.08984 15.1875C4.06654 15.2107 4.06654 15.2107 4.04276 15.2344C3.96313 15.2302 3.88364 15.2229 3.80441 15.2139C3.76114 15.2091 3.71786 15.2043 3.67328 15.1994C3.63984 15.1955 3.6064 15.1915 3.57195 15.1875C3.58748 15.1256 3.60302 15.0638 3.61903 15C3.58795 15 3.55688 15 3.52486 15C3.52486 15.0619 3.52486 15.1237 3.52486 15.1875C3.47825 15.1875 3.43164 15.1875 3.38362 15.1875C3.36031 14.9091 3.36031 14.9091 3.33654 14.625C3.22001 14.6018 3.22001 14.6018 3.10113 14.5781C3.01586 14.663 3.03606 14.7943 3.02757 14.9092C3.02362 14.961 3.01968 15.0127 3.01561 15.0661C3.01133 15.1262 3.01133 15.1262 3.00697 15.1875C2.96036 15.1875 2.91375 15.1875 2.86572 15.1875C2.85019 14.9245 2.83465 14.6616 2.81864 14.3906C2.78757 14.3906 2.75649 14.3906 2.72448 14.3906C2.72448 14.4216 2.72448 14.4525 2.72448 14.4844C2.67787 14.4844 2.63126 14.4844 2.58323 14.4844C2.56284 14.4534 2.54245 14.4225 2.52144 14.3906C2.44697 14.2817 2.44697 14.2817 2.30074 14.2764C2.16079 14.2851 2.16079 14.2851 2.07416 14.3613C1.95241 14.5272 1.96061 14.6561 1.97117 14.8594C1.98889 14.9729 1.98889 14.9729 2.06534 15.0469C2.22647 15.0938 2.22647 15.0938 2.39491 15.0938C2.54785 15.013 2.54785 15.013 2.58323 14.8594C2.62984 14.8594 2.67646 14.8594 2.72448 14.8594C2.66531 15.041 2.61563 15.1456 2.44199 15.2344C2.24385 15.2595 2.14735 15.2563 1.97706 15.1494C1.80412 14.9722 1.81441 14.7873 1.81614 14.5523C1.83548 14.3913 1.89958 14.3109 2.01826 14.2031C2.12473 14.1501 2.18299 14.1514 2.30074 14.1533C2.35027 14.154 2.35027 14.154 2.40079 14.1546C2.44449 14.1554 2.44449 14.1554 2.48907 14.1562C2.52014 14.1562 2.55122 14.1562 2.58323 14.1562C2.59877 14.0789 2.61431 14.0016 2.63032 13.9219Z" fill="currentColor"/>
<path d="M12.2812 13.9219C12.6231 13.9219 12.9649 13.9219 13.317 13.9219C13.3326 13.9838 13.3481 14.0456 13.3641 14.1094C13.1777 14.1094 12.9912 14.1094 12.7991 14.1094C12.7836 14.1713 12.7681 14.2331 12.7521 14.2969C12.7055 14.3665 12.7055 14.3665 12.6579 14.4375C12.6294 14.6552 12.6319 14.8487 12.7226 15.0498C12.7927 15.1452 12.7927 15.1452 12.8933 15.1875C13.1603 15.2072 13.1603 15.2072 13.4112 15.1406C13.4726 15.0002 13.4726 15.0002 13.5054 14.8594C13.4588 14.8439 13.4121 14.8284 13.3641 14.8125C13.4418 14.8125 13.5195 14.8125 13.5995 14.8125C13.5995 14.9362 13.5995 15.06 13.5995 15.1875C13.6617 15.1875 13.7238 15.1875 13.7879 15.1875C13.7868 15.148 13.7857 15.1085 13.7845 15.0677C13.7837 15.0164 13.7828 14.965 13.782 14.9121C13.7809 14.861 13.7798 14.8099 13.7787 14.7572C13.7879 14.625 13.7879 14.625 13.882 14.5312C14.0965 14.5573 14.0965 14.5573 14.1645 14.625C14.1679 14.7197 14.1685 14.8145 14.1675 14.9092C14.167 14.961 14.1666 15.0127 14.1662 15.0661C14.1656 15.1062 14.1651 15.1462 14.1645 15.1875C14.2024 15.1788 14.2403 15.1701 14.2793 15.1611C14.339 15.151 14.339 15.151 14.3999 15.1406C14.4155 15.1561 14.431 15.1716 14.447 15.1875C14.5272 15.1974 14.6077 15.2048 14.6883 15.2109C14.892 15.2276 15.0925 15.25 15.2945 15.2812C15.2712 15.2348 15.2712 15.2348 15.2474 15.1875C15.294 15.1875 15.3406 15.1875 15.3886 15.1875C15.3875 15.148 15.3864 15.1085 15.3853 15.0677C15.3845 15.0164 15.3836 14.965 15.3827 14.9121C15.3817 14.861 15.3806 14.8099 15.3794 14.7572C15.3886 14.625 15.3886 14.625 15.4828 14.5312C15.5605 14.5467 15.6382 14.5622 15.7182 14.5781C15.7415 14.903 15.7415 14.903 15.7653 15.2344C15.843 15.2498 15.9206 15.2653 16.0007 15.2812C16.0337 15.3429 16.065 15.4055 16.0949 15.4688C16.1964 15.5313 16.1964 15.5313 16.3126 15.5742C16.3511 15.5899 16.3896 15.6056 16.4292 15.6218C16.4587 15.6332 16.4882 15.6445 16.5186 15.6562C16.5186 15.6872 16.5186 15.7181 16.5186 15.75C15.1203 15.75 13.7219 15.75 12.2812 15.75C12.2812 15.1467 12.2812 14.5434 12.2812 13.9219Z" fill="currentColor"/>
<path d="M8.93848 9.51562C9.17153 9.51562 9.40458 9.51562 9.6447 9.51562C9.6447 10.3509 9.6447 11.1862 9.6447 12.0469C9.41165 12.0469 9.17859 12.0469 8.93848 12.0469C8.93848 11.2116 8.93848 10.3763 8.93848 9.51562Z" fill="currentColor"/>
<path d="M1.54688 13.875C5.07375 13.875 8.60063 13.875 12.2344 13.875C12.2344 14.4937 12.2344 15.1125 12.2344 15.75C12.1878 15.75 12.1412 15.75 12.0931 15.75C12.0931 15.1467 12.0931 14.5434 12.0931 13.9219C8.97021 13.9219 5.8473 13.9219 2.62975 13.9219C2.62975 14.0302 2.62975 14.1384 2.62975 14.25C2.58314 14.2345 2.53653 14.2191 2.4885 14.2031C2.21538 14.1693 2.21538 14.1693 1.98385 14.2989C1.83235 14.4944 1.84702 14.6538 1.84702 14.8939C1.84537 14.9763 1.83775 15.0586 1.82936 15.1406C1.78275 15.1716 1.73614 15.2025 1.68812 15.2344C1.66065 15.3589 1.66065 15.3589 1.65575 15.498C1.65111 15.5686 1.65111 15.5686 1.64637 15.6405C1.64373 15.6947 1.64373 15.6947 1.64104 15.75C1.60996 15.75 1.57889 15.75 1.54688 15.75C1.54688 15.1313 1.54688 14.5125 1.54688 13.875Z" fill="currentColor"/>
<path d="M15.9019 14.4246C15.9543 14.5308 15.9543 14.5308 15.9543 14.7183C15.9853 14.7183 16.0164 14.7183 16.0484 14.7183C16.063 14.6806 16.0776 14.6429 16.0926 14.6041C16.1426 14.484 16.1426 14.484 16.1897 14.4371C16.3709 14.4289 16.5308 14.4462 16.7076 14.484C16.7127 14.6207 16.7164 14.7573 16.7193 14.8941C16.7217 14.9521 16.7217 14.9521 16.7241 15.0113C16.7288 15.2983 16.7288 15.2983 16.6213 15.4473C16.4821 15.54 16.4014 15.5386 16.2368 15.5152C16.1014 15.4507 16.1014 15.4507 16.0014 15.3746C16.0014 15.3436 16.0014 15.3127 16.0014 15.2808C15.9081 15.2808 15.8149 15.2808 15.7189 15.2808C15.7033 15.0488 15.6878 14.8168 15.6718 14.5777C15.5941 14.5932 15.5164 14.6086 15.4364 14.6246C15.4208 14.8102 15.4053 14.9958 15.3893 15.1871C15.3427 15.1871 15.2961 15.1871 15.248 15.1871C15.248 14.9241 15.248 14.6611 15.248 14.3902C15.7884 14.3208 15.7884 14.3208 15.9019 14.4246Z" fill="currentColor"/>
<path d="M13.3176 13.9219C13.4264 13.9219 13.5351 13.9219 13.6472 13.9219C13.6472 13.9683 13.6472 14.0147 13.6472 14.0625C13.6783 14.0934 13.7093 14.1244 13.7414 14.1562C13.7103 14.1562 13.6792 14.1562 13.6472 14.1562C13.6472 14.4966 13.6472 14.8369 13.6472 15.1875C13.6317 15.1875 13.6161 15.1875 13.6001 15.1875C13.6001 15.0638 13.6001 14.94 13.6001 14.8125C13.569 14.828 13.538 14.8434 13.506 14.8594C13.4856 14.9275 13.4856 14.9275 13.4648 14.9971C13.4118 15.1406 13.4118 15.1406 13.3323 15.2051C13.1772 15.2468 13.054 15.2512 12.8939 15.2344C12.7343 15.1342 12.6714 15.0854 12.6114 14.9062C12.5767 14.5821 12.6126 14.3772 12.7997 14.1094C12.9862 14.1094 13.1726 14.1094 13.3647 14.1094C13.3492 14.0475 13.3336 13.9856 13.3176 13.9219Z" fill="currentColor"/>
<path d="M21.8867 14.3906C21.979 14.393 21.979 14.393 22.0927 14.4053C22.13 14.409 22.1672 14.4126 22.2056 14.4164C22.3104 14.4375 22.3104 14.4375 22.4517 14.5312C22.4517 14.5777 22.4517 14.6241 22.4517 14.6719C22.4245 14.6564 22.3973 14.6409 22.3693 14.625C22.254 14.5654 22.254 14.5654 22.075 14.5781C22.075 14.6245 22.075 14.6709 22.075 14.7188C22.1017 14.7262 22.1283 14.7336 22.1558 14.7413C22.2599 14.7743 22.3551 14.8083 22.4517 14.8594C22.5076 14.9766 22.5076 14.9766 22.4988 15.0938C22.4517 15.1787 22.4517 15.1787 22.3575 15.2344C22.1898 15.249 22.1898 15.249 22.028 15.2344C21.9969 15.2034 21.9658 15.1725 21.9338 15.1406C21.8872 15.1406 21.8406 15.1406 21.7925 15.1406C21.777 15.1716 21.7615 15.2025 21.7455 15.2344C21.321 15.2707 21.321 15.2707 21.1511 15.1377C21.0693 14.9639 21.0557 14.8617 21.0863 14.6719C21.1775 14.5312 21.1775 14.5312 21.3217 14.4375C21.4679 14.4324 21.6029 14.4531 21.7455 14.4844C21.761 14.5308 21.7765 14.5772 21.7925 14.625C21.8236 14.625 21.8547 14.625 21.8867 14.625C21.878 14.595 21.8692 14.5651 21.8602 14.5342C21.8534 14.5023 21.8466 14.4704 21.8396 14.4375C21.8552 14.422 21.8707 14.4066 21.8867 14.3906Z" fill="currentColor"/>
<path d="M3.94856 10.5C4.14899 10.5798 4.23588 10.626 4.38701 10.7637C4.41984 10.7933 4.45267 10.8229 4.4865 10.8534C4.52319 10.8873 4.52319 10.8873 4.56062 10.9219C4.51401 10.9373 4.4674 10.9528 4.41938 10.9688C4.41992 11.0054 4.42047 11.0421 4.42103 11.0799C4.42146 11.1273 4.42188 11.1748 4.42232 11.2236C4.42286 11.2709 4.42341 11.3183 4.42397 11.367C4.41938 11.4844 4.41938 11.4844 4.37229 11.5313C4.23752 11.5347 4.1039 11.5356 3.96916 11.5342C3.9312 11.534 3.89323 11.5338 3.85412 11.5335C3.76005 11.533 3.66598 11.5321 3.57191 11.5313C3.57191 11.3456 3.57191 11.16 3.57191 10.9688C3.5253 10.9533 3.47869 10.9378 3.43066 10.9219C3.60157 10.7827 3.77248 10.6434 3.94856 10.5Z" fill="currentColor"/>
<path d="M7.7622 14.4844C7.86397 14.4652 7.86397 14.4652 7.95053 14.4375C7.9569 14.5733 7.96156 14.7088 7.96524 14.8447C7.9682 14.9021 7.9682 14.9021 7.97122 14.9607C7.97544 15.1684 7.97157 15.2538 7.84092 15.4243C7.71512 15.5156 7.71512 15.5156 7.57093 15.5391C7.42105 15.5137 7.35121 15.4814 7.24431 15.375C7.24431 15.3441 7.24431 15.3131 7.24431 15.2812C7.26858 15.2967 7.29286 15.3122 7.31787 15.3281C7.46937 15.39 7.6001 15.3812 7.7622 15.375C7.7622 15.3131 7.7622 15.2512 7.7622 15.1875C7.74667 15.203 7.73113 15.2184 7.71512 15.2344C7.41923 15.2126 7.41923 15.2126 7.30555 15.128C7.20772 14.9984 7.22195 14.8837 7.22812 14.7266C7.24431 14.625 7.24431 14.625 7.31787 14.502C7.47939 14.4112 7.58389 14.4495 7.7622 14.4844Z" fill="currentColor"/>
<path d="M18.5431 14.4844C18.6448 14.4652 18.6448 14.4652 18.7314 14.4375C18.7352 14.5655 18.738 14.6933 18.7402 14.8213C18.742 14.8754 18.742 14.8754 18.7438 14.9305C18.7466 15.1493 18.7333 15.291 18.5901 15.4687C18.4579 15.5346 18.36 15.5273 18.2135 15.5156C18.1017 15.4512 18.1017 15.4512 18.0252 15.375C18.0252 15.3441 18.0252 15.3131 18.0252 15.2812C18.0718 15.2812 18.1184 15.2812 18.1664 15.2812C18.1819 15.3122 18.1975 15.3431 18.2135 15.375C18.3766 15.3518 18.3766 15.3518 18.5431 15.3281C18.5431 15.2817 18.5431 15.2353 18.5431 15.1875C18.4926 15.1991 18.4421 15.2107 18.39 15.2227C18.2135 15.2344 18.2135 15.2344 18.0987 15.1699C17.9909 14.9895 17.9886 14.8297 18.0252 14.625C18.1647 14.3917 18.2962 14.4361 18.5431 14.4844Z" fill="currentColor"/>
<path d="M5.64355 13.875C7.81872 13.875 9.99389 13.875 12.235 13.875C12.235 14.4937 12.235 15.1125 12.235 15.75C12.1884 15.75 12.1417 15.75 12.0937 15.75C12.0937 15.1467 12.0937 14.5434 12.0937 13.9219C9.96517 13.9219 7.83661 13.9219 5.64355 13.9219C5.64355 13.9064 5.64355 13.8909 5.64355 13.875Z" fill="currentColor"/>
<path d="M8.80937 14.142C8.98794 14.1439 9.06957 14.1511 9.23016 14.2358C9.3155 14.3442 9.3155 14.3442 9.33609 14.4643C9.3155 14.5786 9.3155 14.5786 9.22133 14.7192C9.23687 14.7501 9.25241 14.7811 9.26841 14.8129C9.27473 14.9382 9.27045 15.0624 9.26841 15.1879C9.2218 15.1725 9.17519 15.157 9.12717 15.1411C9.11163 15.0328 9.0961 14.9245 9.08009 14.8129C8.94026 14.7975 8.80042 14.782 8.65636 14.7661C8.65636 14.9053 8.65636 15.0445 8.65636 15.1879C8.60974 15.1879 8.56313 15.1879 8.51511 15.1879C8.51375 15.0249 8.51291 14.8618 8.51217 14.6987C8.51177 14.6521 8.51138 14.6056 8.51097 14.5576C8.51082 14.5133 8.51067 14.4691 8.51051 14.4235C8.51027 14.3825 8.51002 14.3415 8.50977 14.2993C8.5204 14.1089 8.64474 14.1462 8.80937 14.142Z" fill="currentColor"/>
<path d="M5.73734 14.4379C5.79949 14.4379 5.86163 14.4379 5.92566 14.4379C5.9284 14.5834 5.93007 14.7289 5.93155 14.8744C5.93234 14.9157 5.93313 14.957 5.93394 14.9996C5.93424 15.0393 5.93455 15.079 5.93486 15.12C5.93535 15.1565 5.93585 15.1931 5.93635 15.2308C5.92566 15.3285 5.92566 15.3285 5.8315 15.4691C5.50542 15.5424 5.50542 15.5424 5.33715 15.4545C5.26652 15.3754 5.26652 15.3754 5.26652 15.2816C5.2908 15.2971 5.31508 15.3126 5.34009 15.3285C5.49158 15.3904 5.62232 15.3816 5.78442 15.3754C5.78442 15.3135 5.78442 15.2516 5.78442 15.1879C5.73392 15.1995 5.68343 15.2111 5.6314 15.223C5.45485 15.2348 5.45485 15.2348 5.34009 15.1703C5.23237 14.9901 5.22959 14.8299 5.26652 14.6254C5.39482 14.424 5.50809 14.4189 5.73734 14.4379Z" fill="currentColor"/>
<path d="M15.9019 14.4246C15.9543 14.5308 15.9543 14.5308 15.9543 14.7183C15.9853 14.7183 16.0164 14.7183 16.0484 14.7183C16.0552 14.7696 16.062 14.8208 16.069 14.8736C16.09 15.0432 16.09 15.0432 16.1426 15.1871C16.2028 15.188 16.263 15.189 16.325 15.19C16.3589 15.1906 16.3928 15.1911 16.4277 15.1917C16.5231 15.193 16.5231 15.193 16.6134 15.1402C16.5979 15.2175 16.5823 15.2949 16.5663 15.3746C16.265 15.438 16.265 15.438 16.122 15.3541C16.0977 15.3299 16.0734 15.3057 16.0484 15.2808C16.0329 15.3118 16.0174 15.3427 16.0014 15.3746C16.0014 15.3436 16.0014 15.3127 16.0014 15.2808C15.9081 15.2808 15.8149 15.2808 15.7189 15.2808C15.7033 15.0488 15.6878 14.8168 15.6718 14.5777C15.5941 14.5932 15.5164 14.6086 15.4364 14.6246C15.4208 14.8102 15.4053 14.9958 15.3893 15.1871C15.3427 15.1871 15.2961 15.1871 15.248 15.1871C15.248 14.9241 15.248 14.6611 15.248 14.3902C15.7884 14.3208 15.7884 14.3208 15.9019 14.4246Z" fill="currentColor"/>
<path d="M16.8951 14.1562C16.9573 14.1717 17.0194 14.1872 17.0834 14.2031C17.0954 14.373 17.1058 14.5429 17.1158 14.7129C17.1192 14.7613 17.1227 14.8097 17.1262 14.8596C17.1288 14.9058 17.1314 14.952 17.134 14.9996C17.1381 15.0637 17.1381 15.0637 17.1422 15.1291C17.1384 15.1638 17.1345 15.1986 17.1305 15.2344C17.0839 15.2653 17.0373 15.2962 16.9893 15.3281C16.9582 15.3127 16.9271 15.2972 16.8951 15.2812C16.8951 15.3122 16.8951 15.3431 16.8951 15.375C16.7745 15.4826 16.7313 15.5156 16.5655 15.5156C16.55 15.562 16.5345 15.6084 16.5185 15.6562C16.3786 15.6098 16.2388 15.5634 16.0947 15.5156C16.0947 15.4692 16.0947 15.4228 16.0947 15.375C16.1646 15.4214 16.1646 15.4214 16.236 15.4688C16.4291 15.492 16.4291 15.492 16.5964 15.4099C16.6737 15.3101 16.6793 15.2548 16.6838 15.1298C16.6855 15.0922 16.6871 15.0546 16.6889 15.0158C16.6899 14.9768 16.691 14.9377 16.6921 14.8975C16.6937 14.8579 16.6953 14.8182 16.6969 14.7774C16.7008 14.6798 16.7039 14.5821 16.7068 14.4844C16.6757 14.4689 16.6446 14.4534 16.6126 14.4375C16.6748 14.4375 16.7369 14.4375 16.8009 14.4375C16.832 14.3447 16.8631 14.2519 16.8951 14.1562Z" fill="currentColor"/>
<path d="M8.93848 9.51562C9.17153 9.51562 9.40458 9.51562 9.6447 9.51562C9.6447 10.3509 9.6447 11.1862 9.6447 12.0469C9.41165 12.0469 9.17859 12.0469 8.93848 12.0469C8.93848 11.2116 8.93848 10.3763 8.93848 9.51562ZM8.98556 9.60938C8.98556 10.3983 8.98556 11.1872 8.98556 12C9.172 12 9.35844 12 9.55054 12C9.55054 11.2111 9.55054 10.4222 9.55054 9.60938C9.36409 9.60938 9.17765 9.60938 8.98556 9.60938Z" fill="currentColor"/>
<path d="M3.00661 9.98438C3.20834 10.0925 3.37021 10.1873 3.5245 10.3594C3.40021 10.3594 3.27591 10.3594 3.14785 10.3594C3.14785 10.7306 3.14785 11.1019 3.14785 11.4844C2.6196 11.4844 2.09134 11.4844 1.54708 11.4844C1.54708 12.1031 1.54708 12.7219 1.54708 13.3594C1.53154 13.3594 1.51601 13.3594 1.5 13.3594C1.5 12.7097 1.5 12.06 1.5 11.3906C2.01272 11.3906 2.52544 11.3906 3.05369 11.3906C3.05466 11.1934 3.05563 10.9962 3.05663 10.793C3.05706 10.731 3.05749 10.6691 3.05793 10.6053C3.05805 10.5563 3.05817 10.5073 3.05829 10.4568C3.05853 10.4067 3.05878 10.3566 3.05903 10.305C3.0544 10.1895 3.0403 10.0944 3.00661 9.98438Z" fill="currentColor"/>
<path d="M5.01363 14.4889C5.10919 14.6217 5.09144 14.7307 5.08664 14.8915C5.08537 14.9468 5.0841 15.0021 5.08278 15.0591C5.08114 15.1014 5.0795 15.1438 5.07782 15.1874C5.03121 15.1874 4.98459 15.1874 4.93657 15.1874C4.92103 15.0946 4.9055 15.0018 4.88949 14.9062C4.88366 14.942 4.87784 14.9777 4.87183 15.0146C4.83493 15.1726 4.76847 15.2611 4.65408 15.3749C4.56066 15.3039 4.56066 15.3039 4.46576 15.1874C4.45205 15.0592 4.44771 14.9512 4.45399 14.8242C4.45484 14.7915 4.45569 14.7588 4.45656 14.7251C4.45877 14.6448 4.46215 14.5646 4.46576 14.4843C4.879 14.399 4.879 14.399 5.01363 14.4889Z" fill="currentColor"/>
<path d="M14.9181 14.4379C14.9647 14.4688 15.0113 14.4997 15.0594 14.5316C15.0731 14.6741 15.0731 14.6741 15.0682 14.8421C15.0669 14.8979 15.0656 14.9536 15.0643 15.011C15.0627 15.0539 15.061 15.0968 15.0594 15.141C15.0904 15.1564 15.1215 15.1719 15.1535 15.1879C15.1079 15.1869 15.0622 15.1859 15.0152 15.1849C14.8769 15.1712 14.8769 15.1712 14.8239 15.2347C14.6856 15.2435 14.6856 15.2435 14.5415 15.2347C14.4473 15.141 14.4473 15.141 14.4414 14.9945C14.4433 14.95 14.4453 14.9055 14.4473 14.8597C14.601 14.7714 14.743 14.7429 14.9181 14.7191C14.9026 14.6727 14.887 14.6263 14.871 14.5785C14.7778 14.5785 14.6846 14.5785 14.5885 14.5785C14.5885 14.6094 14.5885 14.6404 14.5885 14.6722C14.5575 14.6722 14.5264 14.6722 14.4944 14.6722C14.512 14.5814 14.512 14.5814 14.5415 14.4847C14.6719 14.4198 14.7737 14.4291 14.9181 14.4379Z" fill="currentColor"/>
<path d="M11.0574 14.4374C11.1427 14.4901 11.1427 14.4901 11.1987 14.578C11.231 14.7274 11.231 14.7274 11.2457 14.8593C11.0593 14.8593 10.8728 14.8593 10.6808 14.8593C10.7118 14.9366 10.7429 15.014 10.7749 15.0937C10.8887 15.1054 10.8887 15.1054 11.0103 15.0937C11.0414 15.0472 11.0725 15.0008 11.1045 14.953C11.1356 14.953 11.1666 14.953 11.1987 14.953C11.1839 15.0409 11.1839 15.0409 11.1516 15.1405C10.9882 15.2489 10.9198 15.2542 10.7278 15.2343C10.597 15.1344 10.5616 15.0493 10.5395 14.8886C10.5255 14.7139 10.5332 14.6812 10.6366 14.5282C10.7964 14.4233 10.8699 14.4049 11.0574 14.4374Z" fill="currentColor"/>
<path d="M3.96619 14.4258C4.13686 14.4375 4.13686 14.4375 4.21612 14.489C4.30701 14.6197 4.30265 14.7343 4.31047 14.8916C4.31511 14.9745 4.31511 14.9745 4.31985 15.0591C4.32161 15.1015 4.32337 15.1439 4.32518 15.1875C4.28731 15.1865 4.24944 15.1856 4.21042 15.1846C4.0929 15.1736 4.0929 15.1736 4.04269 15.2344C3.90439 15.2432 3.90439 15.2432 3.7602 15.2344C3.66604 15.1406 3.66604 15.1406 3.66016 14.9941C3.6621 14.9497 3.66404 14.9052 3.66604 14.8594C3.89909 14.7898 3.89909 14.7898 4.13686 14.7187C4.12132 14.6723 4.10578 14.6259 4.08977 14.5781C4.01209 14.5781 3.93441 14.5781 3.85437 14.5781C3.83883 14.6091 3.82329 14.64 3.80729 14.6719C3.77621 14.6719 3.74514 14.6719 3.71312 14.6719C3.76558 14.4406 3.76558 14.4406 3.96619 14.4258Z" fill="currentColor"/>
<path d="M21.4951 14.4403C21.651 14.4842 21.651 14.4842 21.7452 14.578C21.7452 14.6708 21.7452 14.7636 21.7452 14.8592C21.5588 14.8592 21.3723 14.8592 21.1802 14.8592C21.2113 14.9211 21.2424 14.983 21.2744 15.0467C21.4184 15.085 21.4184 15.085 21.5569 15.0936C21.5879 15.0472 21.619 15.0008 21.651 14.953C21.6821 14.953 21.7132 14.953 21.7452 14.953C21.7305 15.0409 21.7305 15.0409 21.6981 15.1405C21.5335 15.2497 21.468 15.2618 21.2744 15.2342C21.1274 15.1071 21.0905 15.0273 21.0596 14.8358C21.0861 14.6717 21.0861 14.6717 21.1832 14.5311C21.3215 14.4373 21.3215 14.4373 21.4951 14.4403Z" fill="currentColor"/>
<path d="M13.2703 14.1561C13.4115 14.2674 13.4115 14.2674 13.5057 14.3905C13.5057 14.4214 13.5057 14.4524 13.5057 14.4842C13.4591 14.4842 13.4125 14.4842 13.3644 14.4842C13.3489 14.4378 13.3334 14.3914 13.3173 14.3436C13.1856 14.278 13.0864 14.2849 12.9407 14.2967C12.8571 14.349 12.8571 14.349 12.7994 14.4374C12.7771 14.5609 12.7771 14.5609 12.7818 14.6952C12.7814 14.7401 12.7811 14.7851 12.7807 14.8314C12.7903 14.9537 12.7903 14.9537 12.8607 15.0396C12.9477 15.1095 12.9477 15.1095 13.1084 15.0907C13.2733 15.0644 13.2733 15.0644 13.3379 14.9501C13.3467 14.9201 13.3554 14.8901 13.3644 14.8592C13.411 14.8592 13.4576 14.8592 13.5057 14.8592C13.4375 15.1194 13.4375 15.1194 13.3321 15.2049C13.177 15.2467 13.0537 15.251 12.8936 15.2342C12.734 15.1341 12.6711 15.0853 12.6111 14.9061C12.5871 14.6749 12.5753 14.4956 12.6994 14.2938C12.8716 14.1375 13.0432 14.1164 13.2703 14.1561Z" fill="currentColor"/>
<path d="M11.2927 14.5781C11.3093 14.6213 11.3093 14.6213 11.3262 14.6653C11.4028 14.792 11.4682 14.8167 11.6046 14.8711C11.6431 14.8868 11.6816 14.9025 11.7212 14.9187C11.7507 14.9301 11.7802 14.9414 11.8106 14.9531C11.7951 15.015 11.7795 15.0769 11.7635 15.1406C11.6859 15.1406 11.6082 15.1406 11.5281 15.1406C11.4971 15.0788 11.466 15.0169 11.434 14.9531C11.4029 14.9531 11.3718 14.9531 11.3398 14.9531C11.3553 15.0305 11.3709 15.1078 11.3869 15.1875C11.3247 15.1566 11.2626 15.1256 11.1986 15.0938C11.1986 15.0473 11.1986 15.0009 11.1986 14.9531C11.1675 14.9531 11.1364 14.9531 11.1044 14.9531C11.0733 15.015 11.0422 15.0769 11.0102 15.1406C10.8984 15.1465 10.8984 15.1465 10.7748 15.1406C10.7438 15.1097 10.7127 15.0788 10.6807 15.0469C10.6807 14.985 10.6807 14.9231 10.6807 14.8594C10.8671 14.8594 11.0535 14.8594 11.2456 14.8594C11.2612 14.7666 11.2767 14.6737 11.2927 14.5781Z" fill="currentColor"/>
<path d="M2.48907 14.1563C2.63032 14.2677 2.63032 14.2677 2.72448 14.3907C2.72448 14.4216 2.72448 14.4526 2.72448 14.4845C2.67787 14.4845 2.63126 14.4845 2.58323 14.4845C2.56284 14.4535 2.54245 14.4226 2.52144 14.3907C2.44697 14.2818 2.44697 14.2818 2.30074 14.2765C2.16079 14.2852 2.16079 14.2852 2.07416 14.3614C1.95241 14.5273 1.96061 14.6562 1.97117 14.8595C1.98889 14.973 1.98889 14.973 2.06534 15.047C2.22647 15.0939 2.22647 15.0939 2.39491 15.0938C2.54785 15.0131 2.54785 15.0131 2.58323 14.8595C2.62984 14.8595 2.67645 14.8595 2.72448 14.8595C2.66531 15.0411 2.61563 15.1457 2.44199 15.2345C2.24385 15.2596 2.14735 15.2564 1.97706 15.1495C1.80412 14.9723 1.81441 14.7873 1.81614 14.5524C1.83548 14.3914 1.89958 14.3109 2.01826 14.2032C2.16974 14.1278 2.32527 14.1276 2.48907 14.1563Z" fill="currentColor"/>
<path d="M13.7881 14.2969C13.8036 14.3278 13.8192 14.3588 13.8352 14.3906C13.9196 14.3848 13.9196 14.3848 14.0058 14.3789C14.2152 14.3782 14.3333 14.4419 14.4943 14.5781C14.4943 14.6091 14.4943 14.64 14.4943 14.6719C14.5254 14.6719 14.5565 14.6719 14.5885 14.6719C14.5885 14.6409 14.5885 14.61 14.5885 14.5781C14.6817 14.5627 14.7749 14.5472 14.871 14.5312C14.902 14.5931 14.9331 14.655 14.9651 14.7188C14.8965 14.7424 14.8278 14.7658 14.7591 14.7891C14.7209 14.8021 14.6827 14.8152 14.6433 14.8286C14.5414 14.8594 14.5414 14.8594 14.4472 14.8594C14.4783 14.9831 14.5094 15.1069 14.5414 15.2344C14.4482 15.2189 14.3549 15.2034 14.2589 15.1875C14.256 15.1407 14.2532 15.0938 14.2503 15.0456C14.2443 14.9549 14.2443 14.9549 14.2383 14.8623C14.2345 14.8019 14.2307 14.7416 14.2267 14.6794C14.2283 14.5378 14.2283 14.5378 14.1647 14.4844C14.039 14.4778 13.9141 14.4824 13.7881 14.4844C13.7881 14.4225 13.7881 14.3606 13.7881 14.2969Z" fill="currentColor"/>
<path d="M13.6475 14.1562C13.6941 14.1562 13.7407 14.1562 13.7887 14.1562C13.7887 14.2645 13.7887 14.3728 13.7887 14.4844C13.8198 14.4689 13.8509 14.4534 13.8829 14.4375C14.0241 14.4287 14.0241 14.4287 14.1654 14.4375C14.2595 14.5312 14.2595 14.5312 14.2687 14.684C14.2676 14.7438 14.2665 14.8036 14.2654 14.8652C14.2646 14.9253 14.2637 14.9854 14.2628 15.0472C14.2617 15.0935 14.2606 15.1398 14.2595 15.1875C14.2284 15.1875 14.1974 15.1875 14.1654 15.1875C14.1498 15.0019 14.1343 14.8162 14.1183 14.625C14.0406 14.6095 13.9629 14.5941 13.8829 14.5781C13.7976 14.663 13.8178 14.7943 13.8093 14.9092C13.8054 14.961 13.8014 15.0127 13.7973 15.0661C13.7945 15.1062 13.7916 15.1462 13.7887 15.1875C13.7421 15.1875 13.6955 15.1875 13.6475 15.1875C13.6475 14.8472 13.6475 14.5069 13.6475 14.1562Z" fill="currentColor"/>
<path d="M2.86523 14.1562C2.91185 14.1562 2.95846 14.1562 3.00648 14.1562C3.00648 14.2645 3.00648 14.3728 3.00648 14.4844C3.08368 14.4699 3.08368 14.4699 3.16244 14.4551C3.33605 14.4375 3.33605 14.4375 3.47729 14.5312C3.49109 14.684 3.49109 14.684 3.48612 14.8652C3.48485 14.9253 3.48357 14.9854 3.48226 15.0472C3.48062 15.0935 3.47898 15.1398 3.47729 15.1875C3.44622 15.1875 3.41515 15.1875 3.38313 15.1875C3.36759 15.0019 3.35206 14.8162 3.33605 14.625C3.25836 14.6095 3.18068 14.5941 3.10064 14.5781C3.01537 14.663 3.03558 14.7943 3.02708 14.9092C3.02313 14.961 3.01919 15.0127 3.01512 15.0661C3.01227 15.1062 3.00942 15.1462 3.00648 15.1875C2.95987 15.1875 2.91326 15.1875 2.86523 15.1875C2.86523 14.8472 2.86523 14.5069 2.86523 14.1562Z" fill="currentColor"/>
<path d="M18.5436 14.5778C18.6154 14.7208 18.6018 14.8423 18.5907 14.9997C18.5348 15.0934 18.5348 15.0934 18.4494 15.1403C18.2921 15.1289 18.2326 15.1119 18.1199 14.9997C18.0941 14.7172 18.0941 14.7172 18.1728 14.5778C18.3074 14.5063 18.4008 14.5376 18.5436 14.5778Z" fill="currentColor"/>
<path d="M5.62294 14.5397C5.73771 14.5778 5.73771 14.5778 5.83187 14.6715C5.85785 14.9561 5.85785 14.9561 5.77596 15.0934C5.69062 15.1403 5.69062 15.1403 5.56998 15.1315C5.45522 15.0934 5.45522 15.0934 5.36105 14.9996C5.33507 14.7151 5.33507 14.7151 5.41696 14.5778C5.5023 14.5309 5.5023 14.5309 5.62294 14.5397Z" fill="currentColor"/>
<path d="M16.4042 14.5397C16.519 14.5778 16.519 14.5778 16.6131 14.6715C16.6391 14.9561 16.6391 14.9561 16.5572 15.0934C16.4719 15.1403 16.4719 15.1403 16.3512 15.1315C16.2365 15.0934 16.2365 15.0934 16.1423 14.9996C16.1163 14.7151 16.1163 14.7151 16.1982 14.5778C16.2835 14.5309 16.2835 14.5309 16.4042 14.5397Z" fill="currentColor"/>
<path d="M7.62661 14.54C7.69362 14.5588 7.69362 14.5588 7.76197 14.578C7.83377 14.721 7.82015 14.8425 7.80905 14.9999C7.75314 15.0937 7.75314 15.0937 7.66781 15.1405C7.54716 15.1347 7.54716 15.1347 7.4324 15.0937C7.32351 14.931 7.31824 14.8629 7.33824 14.6718C7.42145 14.5291 7.45999 14.53 7.62661 14.54Z" fill="currentColor"/>
<path d="M22.1663 14.4258C22.3105 14.4375 22.3105 14.4375 22.4517 14.5312C22.4517 14.5777 22.4517 14.6241 22.4517 14.6719C22.4245 14.6564 22.3973 14.6409 22.3693 14.625C22.254 14.5654 22.254 14.5654 22.075 14.5781C22.075 14.6245 22.075 14.6709 22.075 14.7188C22.1017 14.7262 22.1283 14.7336 22.1558 14.7413C22.26 14.7743 22.3551 14.8083 22.4517 14.8594C22.5076 14.9766 22.5076 14.9766 22.4988 15.0938C22.4517 15.1787 22.4517 15.1787 22.3575 15.2344C22.073 15.2647 22.073 15.2647 21.9367 15.1729C21.8867 15.0938 21.8867 15.0938 21.8867 14.9531C22.028 15 22.028 15 22.075 15.0938C22.1527 15.0938 22.2304 15.0938 22.3105 15.0938C22.3105 15.0473 22.3105 15.0009 22.3105 14.9531C22.1862 14.9067 22.0619 14.8603 21.9338 14.8125C21.9279 14.6777 21.9279 14.6777 21.9338 14.5312C22.028 14.4375 22.028 14.4375 22.1663 14.4258Z" fill="currentColor"/>
<path d="M11.6194 14.4258C11.7636 14.4375 11.7636 14.4375 11.9048 14.5312C11.9048 14.5777 11.9048 14.6241 11.9048 14.6719C11.8776 14.6564 11.8504 14.6409 11.8224 14.625C11.7071 14.5654 11.7071 14.5654 11.5282 14.5781C11.5282 14.6245 11.5282 14.6709 11.5282 14.7188C11.7379 14.8116 11.7379 14.8116 11.9519 14.9062C11.9372 15.0176 11.9372 15.0176 11.9048 15.1406C11.7415 15.249 11.6731 15.2543 11.4811 15.2344C11.3928 15.1729 11.3928 15.1729 11.3398 15.0938C11.3398 15.0473 11.3398 15.0009 11.3398 14.9531C11.3709 14.9531 11.402 14.9531 11.434 14.9531C11.4806 15.0227 11.4806 15.0227 11.5282 15.0938C11.6498 15.1055 11.6498 15.1055 11.7636 15.0938C11.7636 15.0473 11.7636 15.0009 11.7636 14.9531C11.6393 14.9067 11.515 14.8603 11.3869 14.8125C11.381 14.6777 11.381 14.6777 11.3869 14.5312C11.4811 14.4375 11.4811 14.4375 11.6194 14.4258Z" fill="currentColor"/>
<path d="M17.2256 14.4377C17.6787 14.426 17.6787 14.426 17.8376 14.5315C17.8514 14.6842 17.8514 14.6842 17.8465 14.8655C17.8452 14.9255 17.8439 14.9856 17.8426 15.0475C17.841 15.0938 17.8393 15.1401 17.8376 15.1877C17.8066 15.1877 17.7755 15.1877 17.7435 15.1877C17.7435 14.9867 17.7435 14.7856 17.7435 14.5784C17.6503 14.5784 17.557 14.5784 17.461 14.5784C17.3757 14.6633 17.3959 14.7946 17.3874 14.9094C17.3815 14.9871 17.3815 14.9871 17.3755 15.0663C17.3726 15.1064 17.3698 15.1465 17.3668 15.1877C17.3202 15.1877 17.2736 15.1877 17.2256 15.1877C17.2256 14.9402 17.2256 14.6927 17.2256 14.4377Z" fill="currentColor"/>
<path d="M9.50346 14.4375C9.53453 14.4375 9.56561 14.4375 9.59762 14.4375C9.61316 14.6541 9.6287 14.8706 9.6447 15.0938C9.8627 15.0729 9.8627 15.0729 9.92719 15C9.93822 14.9055 9.94665 14.8107 9.95368 14.7158C9.95762 14.664 9.96157 14.6123 9.96563 14.5589C9.96848 14.5188 9.97133 14.4788 9.97427 14.4375C10.0053 14.4375 10.0364 14.4375 10.0684 14.4375C10.0684 14.685 10.0684 14.9325 10.0684 15.1875C9.99367 15.1991 9.91889 15.2107 9.84186 15.2227C9.7998 15.2292 9.75774 15.2357 9.71441 15.2424C9.59762 15.2344 9.59762 15.2344 9.51247 15.1595C9.44162 15.0172 9.44074 14.915 9.44461 14.7568C9.44534 14.7069 9.44606 14.6569 9.44681 14.6054C9.45638 14.4844 9.45638 14.4844 9.50346 14.4375Z" fill="currentColor"/>
<path d="M15.248 14.4376C15.3228 14.4347 15.3976 14.4318 15.4746 14.4288C15.5377 14.4263 15.5377 14.4263 15.6021 14.4238C15.7189 14.4376 15.7189 14.4376 15.8042 14.4888C15.8881 14.6229 15.8736 14.7356 15.8689 14.8917C15.8677 14.947 15.8664 15.0022 15.8651 15.0592C15.8634 15.1016 15.8618 15.1439 15.8601 15.1876C15.829 15.1876 15.798 15.1876 15.7659 15.1876C15.7504 15.0019 15.7349 14.8163 15.7189 14.6251C15.6412 14.6096 15.5635 14.5941 15.4835 14.5782C15.3982 14.6631 15.4184 14.7944 15.4099 14.9092C15.404 14.9869 15.404 14.9869 15.3979 15.0662C15.3951 15.1062 15.3922 15.1463 15.3893 15.1876C15.3427 15.1876 15.2961 15.1876 15.248 15.1876C15.248 14.9401 15.248 14.6926 15.248 14.4376Z" fill="currentColor"/>
<path d="M3.61878 14.5312C3.64986 14.5312 3.68093 14.5312 3.71295 14.5312C3.71295 14.5777 3.71295 14.6241 3.71295 14.6719C3.74402 14.6719 3.77509 14.6719 3.80711 14.6719C3.82265 14.6255 3.83818 14.5791 3.85419 14.5312C3.93188 14.5312 4.00956 14.5312 4.0896 14.5312C4.12067 14.5931 4.15175 14.655 4.18376 14.7188C4.11516 14.7424 4.04649 14.7658 3.97778 14.7891C3.92043 14.8086 3.92043 14.8086 3.86192 14.8286C3.76003 14.8594 3.76003 14.8594 3.66587 14.8594C3.6814 14.9677 3.69694 15.0759 3.71295 15.1875C3.66634 15.172 3.61973 15.1566 3.5717 15.1406C3.58724 15.0942 3.60278 15.0478 3.61878 15C3.58771 15 3.55664 15 3.52462 15C3.50908 15.0619 3.49355 15.1237 3.47754 15.1875C3.47754 15.0173 3.47754 14.8472 3.47754 14.6719C3.52415 14.6719 3.57076 14.6719 3.61878 14.6719C3.61878 14.6255 3.61878 14.5791 3.61878 14.5312Z" fill="currentColor"/>
<path d="M19.2969 14.1562C19.3435 14.1562 19.3901 14.1562 19.4381 14.1562C19.4381 14.4656 19.4381 14.775 19.4381 15.0938C19.6246 15.0938 19.811 15.0938 20.0031 15.0938C20.0031 15.1247 20.0031 15.1556 20.0031 15.1875C19.77 15.1875 19.537 15.1875 19.2969 15.1875C19.2969 14.8472 19.2969 14.5069 19.2969 14.1562Z" fill="currentColor"/>
<path d="M6.1616 14.0625C6.1616 14.2031 6.1616 14.2031 6.11452 14.3438C6.14559 14.3592 6.17667 14.3747 6.20868 14.3906C6.25576 14.4375 6.25576 14.4375 6.26036 14.6061C6.26005 14.6759 6.25949 14.7457 6.25871 14.8154C6.25849 14.851 6.25828 14.8865 6.25806 14.9232C6.25751 15.0113 6.25666 15.0994 6.25576 15.1875C6.22469 15.1875 6.19362 15.1875 6.1616 15.1875C6.14606 14.9864 6.13053 14.7853 6.11452 14.5781C6.06791 14.6013 6.06791 14.6013 6.02036 14.625C5.99825 14.7678 5.99825 14.7678 5.99093 14.9326C5.98741 14.9888 5.98389 15.0449 5.98026 15.1027C5.97796 15.1462 5.97565 15.1896 5.97328 15.2344C5.95774 15.2344 5.9422 15.2344 5.92619 15.2344C5.92619 14.9714 5.92619 14.7084 5.92619 14.4375C5.89512 14.422 5.86405 14.4066 5.83203 14.3906C5.86311 14.3597 5.89418 14.3288 5.92619 14.2969C5.94076 14.265 5.95533 14.2331 5.97033 14.2002C6.02036 14.1094 6.02036 14.1094 6.1616 14.0625Z" fill="currentColor"/>
<path d="M4.93664 14.4378C5.01369 14.4892 5.01369 14.4892 5.07788 14.5784C5.09167 14.7254 5.09167 14.7254 5.08671 14.8919C5.08543 14.9471 5.08416 15.0024 5.08285 15.0594C5.08121 15.1018 5.07957 15.1441 5.07788 15.1878C5.04681 15.1878 5.01573 15.1878 4.98372 15.1878C4.96818 15.0021 4.95264 14.8165 4.93664 14.6253C4.85895 14.6098 4.78127 14.5943 4.70123 14.5784C4.57932 14.6997 4.58946 14.7671 4.57764 14.9358C4.57412 14.9828 4.5706 15.0298 4.56697 15.0783C4.56467 15.1144 4.56236 15.1505 4.55998 15.1878C4.52891 15.1878 4.49784 15.1878 4.46582 15.1878C4.46582 14.9557 4.46582 14.7237 4.46582 14.4846C4.7824 14.4216 4.7824 14.4216 4.93664 14.4378Z" fill="currentColor"/>
<path d="M6.91417 14.4378C6.99123 14.4892 6.99123 14.4892 7.05542 14.5784C7.06921 14.7254 7.06921 14.7254 7.06425 14.8919C7.06297 14.9471 7.0617 15.0024 7.06038 15.0594C7.05875 15.1018 7.05711 15.1441 7.05542 15.1878C7.02435 15.1878 6.99327 15.1878 6.96126 15.1878C6.94572 15.0021 6.93018 14.8165 6.91417 14.6253C6.83649 14.6098 6.75881 14.5943 6.67877 14.5784C6.55686 14.6997 6.567 14.7671 6.55518 14.9358C6.55166 14.9828 6.54814 15.0298 6.54451 15.0783C6.5422 15.1144 6.5399 15.1505 6.53752 15.1878C6.50645 15.1878 6.47537 15.1878 6.44336 15.1878C6.44336 14.9557 6.44336 14.7237 6.44336 14.4846C6.75994 14.4216 6.75994 14.4216 6.91417 14.4378Z" fill="currentColor"/>
<path d="M8.65625 14.2966C8.73373 14.2953 8.81122 14.2944 8.88871 14.2936C8.93187 14.2931 8.97502 14.2926 9.01948 14.292C9.12707 14.2966 9.12707 14.2966 9.17415 14.3434C9.18003 14.4606 9.18003 14.4606 9.17415 14.5778C9.12707 14.6247 9.12707 14.6247 9.01948 14.6293C8.95475 14.6285 8.95475 14.6285 8.88871 14.6276C8.84544 14.6272 8.80217 14.6268 8.75759 14.6263C8.72414 14.6258 8.6907 14.6253 8.65625 14.6247C8.65625 14.5164 8.65625 14.4081 8.65625 14.2966Z" fill="currentColor"/>
<path d="M20.3799 14.4844C20.411 14.4844 20.442 14.4844 20.474 14.4844C20.5362 14.6391 20.5983 14.7937 20.6624 14.9531C20.7401 14.7984 20.8177 14.6438 20.8978 14.4844C20.9289 14.4844 20.9599 14.4844 20.9919 14.4844C20.8472 14.9793 20.8472 14.9793 20.7565 15.1875C20.669 15.1798 20.669 15.1798 20.5682 15.1406C20.5086 15.0282 20.5086 15.0282 20.4623 14.8887C20.4465 14.8429 20.4307 14.7971 20.4145 14.7499C20.3799 14.625 20.3799 14.625 20.3799 14.4844Z" fill="currentColor"/>
<path d="M11.5285 14.5312C11.7077 14.565 11.8735 14.6145 12.0464 14.6719C12.0309 14.7028 12.0153 14.7338 11.9993 14.7656C12.0304 14.7656 12.0615 14.7656 12.0935 14.7656C12.0935 14.843 12.0935 14.9203 12.0935 15C12.0469 15 12.0003 15 11.9523 15C11.9231 14.9695 11.9231 14.9695 11.8934 14.9385C11.7723 14.8222 11.6374 14.7803 11.4814 14.7188C11.497 14.6569 11.5125 14.595 11.5285 14.5312Z" fill="currentColor"/>
<path d="M16.6599 14.4844C16.6754 14.4844 16.691 14.4844 16.707 14.4844C16.7121 14.6211 16.7158 14.7577 16.7188 14.8945C16.7211 14.9525 16.7211 14.9525 16.7235 15.0117C16.7282 15.2987 16.7282 15.2987 16.6209 15.4477C16.4823 15.5398 16.3998 15.5394 16.2362 15.5156C16.1244 15.4512 16.1244 15.4512 16.0479 15.375C16.0479 15.3441 16.0479 15.3131 16.0479 15.2812C16.0721 15.2967 16.0964 15.3122 16.1214 15.3281C16.2729 15.39 16.4036 15.3812 16.5657 15.375C16.6318 15.1046 16.5974 14.8509 16.5657 14.5781C16.5968 14.5781 16.6279 14.5781 16.6599 14.5781C16.6599 14.5472 16.6599 14.5162 16.6599 14.4844Z" fill="currentColor"/>
<path d="M10.2568 14.1562C10.3034 14.1562 10.3501 14.1562 10.3981 14.1562C10.3981 14.4966 10.3981 14.8369 10.3981 15.1875C10.3515 15.1875 10.3049 15.1875 10.2568 15.1875C10.2568 14.8472 10.2568 14.5069 10.2568 14.1562Z" fill="currentColor"/>
<path d="M16.8959 14.1562C16.9581 14.1717 17.0202 14.1872 17.0842 14.2031C17.0687 14.528 17.0532 14.8528 17.0372 15.1875C17.0061 15.1875 16.975 15.1875 16.943 15.1875C16.9275 15.0019 16.9119 14.8162 16.8959 14.625C16.8493 14.6482 16.8493 14.6482 16.8018 14.6719C16.8488 14.3237 16.8488 14.3237 16.8959 14.1562Z" fill="currentColor"/>
<path d="M5.87866 14.4844C5.8942 14.4844 5.90973 14.4844 5.92574 14.4844C5.92828 14.6221 5.93015 14.7597 5.93163 14.8975C5.93242 14.9365 5.93321 14.9756 5.93402 15.0158C5.93432 15.0535 5.93463 15.0911 5.93494 15.1298C5.93543 15.1644 5.93592 15.199 5.93643 15.2347C5.92574 15.3281 5.92574 15.3281 5.83158 15.4688C5.5055 15.5421 5.5055 15.5421 5.33722 15.4541C5.2666 15.375 5.2666 15.375 5.2666 15.2812C5.29088 15.2967 5.31515 15.3122 5.34017 15.3281C5.49166 15.39 5.6224 15.3812 5.7845 15.375C5.85057 15.1046 5.81618 14.8509 5.7845 14.5781C5.81557 14.5781 5.84665 14.5781 5.87866 14.5781C5.87866 14.5472 5.87866 14.5162 5.87866 14.4844Z" fill="currentColor"/>
<path d="M5.21916 14.7188C5.2347 14.7188 5.25024 14.7188 5.26624 14.7188C5.29732 14.858 5.32839 14.9972 5.36041 15.1406C5.59817 15.1846 5.59817 15.1846 5.83122 15.1406C5.81569 15.218 5.80015 15.2953 5.78414 15.375C5.48525 15.438 5.48525 15.438 5.34275 15.3633C5.26624 15.2812 5.26624 15.2812 5.21916 15.1406C5.18809 15.1252 5.15702 15.1097 5.125 15.0937C5.125 15.0319 5.125 14.97 5.125 14.9062C5.15607 14.9062 5.18715 14.9062 5.21916 14.9062C5.21916 14.8444 5.21916 14.7825 5.21916 14.7188Z" fill="currentColor"/>
<path d="M18.6846 14.4844C18.6846 14.6236 18.6846 14.7629 18.6846 14.9063C18.6023 14.7835 18.5722 14.717 18.5433 14.5782C18.406 14.5704 18.406 14.5704 18.2608 14.5782C18.1484 14.6692 18.1484 14.6692 18.1578 14.836C18.1553 14.993 18.1553 14.993 18.2137 15.0938C18.1516 15.0783 18.0894 15.0629 18.0254 15.0469C17.997 14.6791 17.997 14.6791 18.0902 14.502C18.286 14.3999 18.4725 14.4473 18.6846 14.4844Z" fill="currentColor"/>
<path d="M21.0383 14.4844C21.1005 14.4998 21.1626 14.5153 21.2267 14.5312C21.1801 14.6009 21.1801 14.6009 21.1325 14.6719C21.1047 14.7797 21.0851 14.8878 21.0648 14.9973C21.0383 15.0938 21.0383 15.0938 20.9442 15.1875C20.9286 15.1566 20.9131 15.1256 20.8971 15.0938C20.8505 15.1247 20.8039 15.1556 20.7559 15.1875C20.892 14.6926 20.892 14.6926 21.0383 14.4844Z" fill="currentColor"/>
<path d="M13.2234 14.2503C13.2234 14.2658 13.2234 14.2813 13.2234 14.2972C13.1457 14.2972 13.068 14.2972 12.9879 14.2972C12.9879 14.3282 12.9879 14.3591 12.9879 14.391C12.9413 14.391 12.8947 14.391 12.8467 14.391C12.8622 14.5921 12.8778 14.7932 12.8938 15.0003C13.0025 15.0158 13.1113 15.0313 13.2234 15.0472C13.2234 15.0008 13.2234 14.9544 13.2234 14.9066C13.27 14.9066 13.3166 14.9066 13.3646 14.9066C13.3381 14.9974 13.3381 14.9974 13.2704 15.0941C13.0938 15.1462 12.9926 15.1674 12.8261 15.0824C12.7082 14.8758 12.7179 14.6694 12.7525 14.4378C12.8761 14.2344 12.9943 14.2296 13.2234 14.2503Z" fill="currentColor"/>
<path d="M10.54 14.6719C10.5711 14.6719 10.6022 14.6719 10.6342 14.6719C10.6342 14.7183 10.6342 14.7647 10.6342 14.8125C10.7896 14.8125 10.9449 14.8125 11.105 14.8125C11.105 14.828 11.105 14.8434 11.105 14.8594C10.9652 14.8594 10.8254 14.8594 10.6813 14.8594C10.7124 14.9367 10.7434 15.0141 10.7754 15.0937C10.8892 15.1055 10.8892 15.1055 11.0109 15.0937C11.0419 15.0473 11.073 15.0009 11.105 14.9531C11.1361 14.9531 11.1672 14.9531 11.1992 14.9531C11.1845 15.041 11.1845 15.041 11.1521 15.1406C10.9888 15.249 10.9204 15.2543 10.7284 15.2344C10.6256 15.1581 10.5915 15.1132 10.563 14.9877C10.5603 14.9502 10.5576 14.9127 10.5548 14.874C10.5517 14.8361 10.5486 14.7983 10.5454 14.7592C10.5436 14.7304 10.5419 14.7016 10.54 14.6719Z" fill="currentColor"/>
<path d="M3.85414 10.4538C4.03296 10.4358 4.11459 10.4388 4.26555 10.5411C4.30554 10.579 4.34554 10.6169 4.38674 10.6559C4.44765 10.7122 4.44765 10.7122 4.50978 10.7696C4.60744 10.8756 4.60744 10.8756 4.65452 11.0163C4.59237 11.0317 4.53023 11.0472 4.46619 11.0631C4.46619 11.2178 4.46619 11.3725 4.46619 11.5319C4.43512 11.5164 4.40405 11.5009 4.37203 11.485C4.37738 11.4 4.38338 11.3151 4.38969 11.2301C4.39296 11.1828 4.39624 11.1355 4.39962 11.0868C4.40605 11.048 4.41248 11.0093 4.41911 10.9694C4.45019 10.9539 4.48126 10.9384 4.51328 10.9225C4.35791 10.7988 4.20254 10.675 4.04246 10.5475C3.87564 10.6133 3.87564 10.6133 3.71289 10.6881C3.71289 10.6417 3.71289 10.5953 3.71289 10.5475C3.7595 10.5475 3.80611 10.5475 3.85414 10.5475C3.85414 10.5166 3.85414 10.4856 3.85414 10.4538Z" fill="currentColor"/>
<path d="M15.2009 14.4375C15.2164 14.4375 15.2319 14.4375 15.248 14.4375C15.248 14.7005 15.248 14.9634 15.248 15.2344C15.279 15.2498 15.3101 15.2653 15.3421 15.2812C15.14 15.3404 15.0183 15.3108 14.8242 15.2344C14.8398 15.2034 14.8553 15.1725 14.8713 15.1406C14.9334 15.1406 14.9956 15.1406 15.0596 15.1406C15.0596 14.9395 15.0596 14.7384 15.0596 14.5312C15.0752 14.5312 15.0907 14.5312 15.1067 14.5312C15.1067 14.7169 15.1067 14.9025 15.1067 15.0938C15.1378 15.0938 15.1689 15.0938 15.2009 15.0938C15.2009 14.8772 15.2009 14.6606 15.2009 14.4375Z" fill="currentColor"/>
<path d="M22.404 14.4844C22.5438 14.5076 22.5438 14.5076 22.6865 14.5312C22.6709 14.5622 22.6554 14.5931 22.6394 14.625C22.6083 14.625 22.5773 14.625 22.5452 14.625C22.5297 14.7178 22.5142 14.8106 22.4982 14.9062C22.2651 14.8134 22.2651 14.8134 22.0273 14.7188C22.0429 14.6569 22.0584 14.595 22.0744 14.5312C22.2333 14.5569 22.3137 14.5807 22.4511 14.6719C22.4355 14.61 22.42 14.5481 22.404 14.4844Z" fill="currentColor"/>
<path d="M18.7322 14.4375C18.7477 14.4375 18.7633 14.4375 18.7793 14.4375C18.7806 14.5908 18.7815 14.7441 18.7822 14.8975C18.7826 14.941 18.783 14.9845 18.7834 15.0294C18.7835 15.0712 18.7837 15.1131 18.7839 15.1562C18.7841 15.1947 18.7843 15.2333 18.7846 15.273C18.7793 15.375 18.7793 15.375 18.7322 15.5156C18.5703 15.6334 18.4087 15.6273 18.2143 15.6094C18.1832 15.563 18.1521 15.5166 18.1201 15.4688C18.2136 15.4718 18.3071 15.4749 18.4006 15.4779C18.5115 15.475 18.5115 15.475 18.638 15.375C18.6787 15.2535 18.6934 15.1715 18.7 15.0463C18.702 15.0108 18.7039 14.9753 18.706 14.9388C18.7078 14.9019 18.7097 14.8651 18.7116 14.8271C18.7136 14.7898 18.7156 14.7524 18.7177 14.7139C18.7227 14.6218 18.7275 14.5296 18.7322 14.4375Z" fill="currentColor"/>
<path d="M20.0967 14.4375C20.1433 14.4375 20.1899 14.4375 20.2379 14.4375C20.2379 14.685 20.2379 14.9325 20.2379 15.1875C20.1913 15.1875 20.1447 15.1875 20.0967 15.1875C20.0967 14.94 20.0967 14.6925 20.0967 14.4375Z" fill="currentColor"/>
<path d="M1.54688 8.25C1.56241 8.25 1.57795 8.25 1.59396 8.25C1.59396 8.80687 1.59396 9.36375 1.59396 9.9375C1.71048 9.9143 1.71048 9.9143 1.82936 9.89062C1.76865 9.95511 1.70569 10.0175 1.64104 10.0781C1.60996 10.0781 1.57889 10.0781 1.54688 10.0781C1.54688 9.47484 1.54688 8.87156 1.54688 8.25Z" fill="currentColor"/>
<path d="M11.6694 14.8594C11.7471 14.8594 11.8248 14.8594 11.9048 14.8594C11.9204 14.9367 11.9359 15.0141 11.9519 15.0938C11.8381 15.1983 11.7753 15.2329 11.6194 15.252C11.4811 15.2344 11.4811 15.2344 11.3928 15.1729C11.3398 15.0938 11.3398 15.0938 11.3398 14.9531C11.3709 14.9531 11.402 14.9531 11.434 14.9531C11.4806 15.0227 11.4806 15.0227 11.5282 15.0938C11.6498 15.1055 11.6498 15.1055 11.7636 15.0938C11.7636 15.0473 11.7636 15.0009 11.7636 14.9531C11.7325 14.9222 11.7014 14.8912 11.6694 14.8594Z" fill="currentColor"/>
<path d="M13.2701 14.1565C13.4113 14.2678 13.4113 14.2678 13.5055 14.3908C13.5055 14.4218 13.5055 14.4527 13.5055 14.4846C13.4589 14.4846 13.4122 14.4846 13.3642 14.4846C13.3487 14.4382 13.3331 14.3918 13.3171 14.344C13.1854 14.2784 13.0862 14.2852 12.9405 14.2971C12.858 14.3635 12.858 14.3635 12.7992 14.4377C12.7682 14.4377 12.7371 14.4377 12.7051 14.4377C12.7198 14.3498 12.7198 14.3498 12.7522 14.2502C12.925 14.1355 13.0693 14.1172 13.2701 14.1565Z" fill="currentColor"/>
<path d="M18.0254 15.0469C18.0487 15.071 18.072 15.0952 18.096 15.1201C18.2724 15.2211 18.393 15.1766 18.5904 15.1406C18.5748 15.218 18.5593 15.2953 18.5433 15.375C18.4345 15.3905 18.3258 15.4059 18.2137 15.4219C18.1982 15.3755 18.1826 15.3291 18.1666 15.2812C18.1356 15.2812 18.1045 15.2812 18.0725 15.2812C18.0569 15.2039 18.0414 15.1266 18.0254 15.0469Z" fill="currentColor"/>
<path d="M7.24435 15.0469C7.27833 15.0701 7.31232 15.0933 7.34734 15.1172C7.48807 15.1919 7.55887 15.2043 7.71516 15.1875C7.74624 15.172 7.77731 15.1566 7.80933 15.1406C7.79379 15.218 7.77825 15.2953 7.76224 15.375C7.60334 15.4043 7.60334 15.4043 7.43267 15.4219C7.4016 15.3909 7.37053 15.36 7.33851 15.3281C7.33851 15.2817 7.33851 15.2353 7.33851 15.1875C7.2919 15.172 7.24529 15.1566 7.19727 15.1406C7.2128 15.1097 7.22834 15.0787 7.24435 15.0469Z" fill="currentColor"/>
<path d="M16.0479 15.0469C16.0945 15.0701 16.0945 15.0701 16.142 15.0938C16.142 15.1247 16.142 15.1556 16.142 15.1875C16.2022 15.1885 16.2624 15.1894 16.3245 15.1904C16.3583 15.191 16.3922 15.1915 16.4271 15.1921C16.5225 15.1934 16.5225 15.1934 16.6128 15.1406C16.5973 15.218 16.5818 15.2953 16.5657 15.375C16.4127 15.4102 16.4127 15.4102 16.2362 15.4219C16.1214 15.3428 16.1214 15.3428 16.0479 15.2344C16.0479 15.1725 16.0479 15.1106 16.0479 15.0469Z" fill="currentColor"/>
<path d="M14.8058 14.8535C14.8845 14.8564 14.8845 14.8564 14.9647 14.8594C14.9378 14.9938 14.9242 15.0404 14.8235 15.1406C14.6999 15.1465 14.6999 15.1465 14.5881 15.1406C14.5587 15.0527 14.5587 15.0527 14.541 14.9531C14.6352 14.8594 14.6352 14.8594 14.8058 14.8535Z" fill="currentColor"/>
<path d="M4.1835 14.8592C4.16879 14.9471 4.16879 14.9471 4.13642 15.0467C3.99517 15.1404 3.99517 15.1404 3.86864 15.1229C3.83271 15.1132 3.79678 15.1035 3.75977 15.0936C3.75977 15.0317 3.75977 14.9698 3.75977 14.9061C3.89897 14.8368 4.03012 14.8564 4.1835 14.8592Z" fill="currentColor"/>
<path d="M11.3867 14.8125C11.511 14.8434 11.6353 14.8744 11.7634 14.9062C11.7789 14.9681 11.7944 15.03 11.8105 15.0938C11.7634 15.1406 11.7634 15.1406 11.6516 15.1553C11.528 15.1406 11.528 15.1406 11.4426 15.0557C11.3867 14.9531 11.3867 14.9531 11.3867 14.8125Z" fill="currentColor"/>
<path d="M14.9179 14.4379C14.9645 14.4688 15.0111 14.4997 15.0591 14.5316C15.0729 14.6638 15.0729 14.6638 15.0679 14.8187C15.0667 14.8701 15.0654 14.9214 15.0641 14.9744C15.0624 15.0139 15.0608 15.0534 15.0591 15.0941C15.0436 15.0941 15.028 15.0941 15.012 15.0941C15.012 14.9394 15.012 14.7847 15.012 14.6254C14.8722 14.6099 14.7324 14.5944 14.5883 14.5785C14.5883 14.6094 14.5883 14.6404 14.5883 14.6722C14.5572 14.6722 14.5262 14.6722 14.4941 14.6722C14.5118 14.5814 14.5118 14.5814 14.5412 14.4847C14.6717 14.4198 14.7735 14.4291 14.9179 14.4379Z" fill="currentColor"/>
<path d="M4.27832 14.5312C4.32493 14.6009 4.32493 14.6009 4.37248 14.6719C4.40356 14.6255 4.43463 14.5791 4.46665 14.5312C4.46665 14.7323 4.46665 14.9334 4.46665 15.1406C4.45111 15.1097 4.43557 15.0788 4.41956 15.0469C4.37295 15.0623 4.32634 15.0778 4.27832 15.0938C4.27832 14.9081 4.27832 14.7225 4.27832 14.5312Z" fill="currentColor"/>
<path d="M8.5625 14.2969C8.57804 14.2969 8.59357 14.2969 8.60958 14.2969C8.62512 14.4052 8.64066 14.5134 8.65666 14.625C8.78096 14.6405 8.90525 14.6559 9.03331 14.6719C9.03331 14.6873 9.03331 14.7028 9.03331 14.7187C8.90902 14.7187 8.78472 14.7187 8.65666 14.7187C8.65666 14.8734 8.65666 15.0281 8.65666 15.1875C8.62559 15.1875 8.59452 15.1875 8.5625 15.1875C8.5625 14.8936 8.5625 14.5997 8.5625 14.2969Z" fill="currentColor"/>
<path d="M22.4517 14.9062C22.4841 14.9912 22.4841 14.9912 22.4988 15.0938C22.4517 15.1758 22.4517 15.1758 22.3575 15.2344C22.073 15.2647 22.073 15.2647 21.9367 15.1729C21.8867 15.0938 21.8867 15.0938 21.8867 14.9531C22.028 15 22.028 15 22.075 15.0938C22.1888 15.1055 22.1888 15.1055 22.3105 15.0938C22.3415 15.0473 22.3726 15.0009 22.4046 14.9531C22.4202 14.9377 22.4357 14.9222 22.4517 14.9062Z" fill="currentColor"/>
<path d="M1.82972 14.9062C1.85885 14.943 1.88798 14.9797 1.918 15.0176C2.01327 15.1391 2.01327 15.1391 2.11221 15.2344C1.90246 15.304 1.90246 15.304 1.68848 15.375C1.68848 15.3131 1.68848 15.2512 1.68848 15.1875C1.73509 15.172 1.7817 15.1566 1.82972 15.1406C1.82972 15.0633 1.82972 14.9859 1.82972 14.9062Z" fill="currentColor"/>
<path d="M4.23058 14.5781C4.24612 14.5781 4.26165 14.5781 4.27766 14.5781C4.2932 14.7792 4.30874 14.9803 4.32474 15.1875C4.24706 15.1875 4.16937 15.1875 4.08934 15.1875C4.0738 15.203 4.05826 15.2184 4.04225 15.2344C3.94811 15.2363 3.85391 15.2364 3.75977 15.2344C3.75977 15.2034 3.75977 15.1725 3.75977 15.1406C3.81123 15.1261 3.8627 15.1116 3.91572 15.0967C4.02126 15.0664 4.12639 15.0346 4.23058 15C4.23058 14.8608 4.23058 14.7216 4.23058 14.5781Z" fill="currentColor"/>
<path d="M21.3209 14.4375C21.6387 14.4727 21.6387 14.4727 21.7447 14.5781C21.7447 14.6709 21.7447 14.7638 21.7447 14.8594C21.5582 14.8594 21.3718 14.8594 21.1797 14.8594C21.1797 14.8439 21.1797 14.8284 21.1797 14.8125C21.3351 14.8125 21.4904 14.8125 21.6505 14.8125C21.6211 14.6942 21.6211 14.6942 21.5563 14.5781C21.4364 14.5362 21.4364 14.5362 21.3209 14.5312C21.3209 14.5003 21.3209 14.4694 21.3209 14.4375Z" fill="currentColor"/>
<path d="M21.6042 14.5781C21.6197 14.64 21.6353 14.7019 21.6513 14.7656C21.5114 14.7656 21.3716 14.7656 21.2275 14.7656C21.2431 14.7038 21.2586 14.6419 21.2746 14.5781C21.4002 14.5156 21.4708 14.5467 21.6042 14.5781Z" fill="currentColor"/>
<path d="M9.50383 14.4375C9.5349 14.4375 9.56598 14.4375 9.59799 14.4375C9.59799 14.6231 9.59799 14.8088 9.59799 15C9.55138 15.0155 9.50477 15.0309 9.45675 15.0469C9.45548 14.9541 9.45456 14.8613 9.4538 14.7686C9.45326 14.7169 9.45271 14.6652 9.45215 14.612C9.45675 14.4844 9.45675 14.4844 9.50383 14.4375Z" fill="currentColor"/>
<path d="M11.0573 14.5781C11.0729 14.64 11.0884 14.7019 11.1044 14.7656C10.9646 14.7656 10.8247 14.7656 10.6807 14.7656C10.6962 14.7038 10.7117 14.6419 10.7277 14.5781C10.8533 14.5156 10.9239 14.5467 11.0573 14.5781Z" fill="currentColor"/>
<path d="M9.07978 14.3438C9.07978 14.4212 9.07978 14.4985 9.07978 14.5782C8.95548 14.5782 8.83119 14.5782 8.70312 14.5782C8.70312 14.5163 8.70312 14.4544 8.70312 14.3907C8.84099 14.3449 8.93647 14.34 9.07978 14.3438Z" fill="currentColor"/>
<path d="M20.4736 14.4844C20.5047 14.4844 20.5358 14.4844 20.5678 14.4844C20.5678 14.5463 20.5678 14.6081 20.5678 14.6719C20.6299 14.6873 20.6921 14.7028 20.7561 14.7188C20.7717 14.6569 20.7872 14.595 20.8032 14.5312C20.8567 14.6911 20.844 14.7189 20.7826 14.8682C20.7691 14.9017 20.7555 14.9352 20.7416 14.9698C20.7309 14.9952 20.7201 15.0207 20.709 15.0469C20.5519 14.8762 20.5217 14.7053 20.4736 14.4844Z" fill="currentColor"/>
<path d="M17.4604 14.5312C17.6003 14.5545 17.6003 14.5545 17.7429 14.5781C17.7429 14.7792 17.7429 14.9803 17.7429 15.1875C17.7274 15.1875 17.7118 15.1875 17.6958 15.1875C17.6958 15.0019 17.6958 14.8162 17.6958 14.625C17.6182 14.6559 17.5405 14.6869 17.4604 14.7188C17.4181 14.8618 17.4181 14.8618 17.4134 15C17.3978 15 17.3823 15 17.3663 15C17.3571 14.7162 17.3571 14.7162 17.3663 14.625C17.3973 14.5941 17.4284 14.5631 17.4604 14.5312Z" fill="currentColor"/>
<path d="M15.624 14.4844C15.8065 14.5254 15.8065 14.5254 15.8594 14.5781C15.8628 14.6806 15.8634 14.7832 15.8624 14.8857C15.8619 14.9419 15.8615 14.998 15.8611 15.0558C15.8605 15.0993 15.86 15.1427 15.8594 15.1875C15.8284 15.1875 15.7973 15.1875 15.7653 15.1875C15.7618 15.129 15.7618 15.129 15.7583 15.0694C15.7548 15.0185 15.7512 14.9675 15.7476 14.915C15.7443 14.8645 15.7411 14.8139 15.7377 14.7618C15.727 14.6163 15.727 14.6163 15.624 14.4844Z" fill="currentColor"/>
<path d="M15.012 8.625C15.0586 8.625 15.1052 8.625 15.1532 8.625C15.1532 8.93437 15.1532 9.24375 15.1532 9.5625C15.0134 9.5625 14.8736 9.5625 14.7295 9.5625C14.7295 9.54703 14.7295 9.53156 14.7295 9.51562C14.8383 9.48469 14.947 9.45375 15.0591 9.42188C15.0746 9.17437 15.0901 8.92687 15.1061 8.67188C15.0751 8.65641 15.044 8.64094 15.012 8.625Z" fill="currentColor"/>
<path d="M14.2588 14.625C14.2743 14.625 14.2899 14.625 14.3059 14.625C14.3214 14.7178 14.3369 14.8106 14.353 14.9062C14.384 14.8908 14.4151 14.8753 14.4471 14.8594C14.4782 14.9831 14.5093 15.1069 14.5413 15.2344C14.4014 15.2112 14.4014 15.2112 14.2588 15.1875C14.2588 15.0019 14.2588 14.8162 14.2588 14.625Z" fill="currentColor"/>
<path d="M11.5285 14.5312C11.6433 14.54 11.6433 14.54 11.7639 14.5781C11.8257 14.6748 11.8257 14.6748 11.8581 14.7656C11.7493 14.7656 11.6406 14.7656 11.5285 14.7656C11.502 14.6748 11.502 14.6748 11.4814 14.5781C11.497 14.5627 11.5125 14.5472 11.5285 14.5312Z" fill="currentColor"/>
<path d="M4.65414 14.5781C4.68521 14.5781 4.71629 14.5781 4.7483 14.5781C4.73277 14.6245 4.71723 14.6709 4.70122 14.7188C4.69078 14.8074 4.6821 14.8964 4.67474 14.9854C4.66882 15.0552 4.66882 15.0552 4.66278 15.1265C4.65993 15.1621 4.65708 15.1977 4.65414 15.2344C4.62307 15.2344 4.59199 15.2344 4.55998 15.2344C4.55744 15.1426 4.55561 15.0508 4.55409 14.959C4.553 14.9079 4.55191 14.8567 4.55078 14.8041C4.55998 14.6719 4.55998 14.6719 4.65414 14.5781Z" fill="currentColor"/>
<path d="M21.0387 14.4844C21.1358 14.5049 21.1358 14.5049 21.227 14.5312C21.1804 14.6009 21.1804 14.6009 21.1329 14.6719C21.1143 14.7808 21.0983 14.8902 21.0858 15C21.0547 14.9381 21.0236 14.8762 20.9916 14.8125C20.9606 14.8125 20.9295 14.8125 20.8975 14.8125C20.9857 14.5371 20.9857 14.5371 21.0387 14.4844Z" fill="currentColor"/>
<path d="M16.6597 15.3281C16.6752 15.39 16.6908 15.4519 16.7068 15.5156C16.6602 15.5156 16.6136 15.5156 16.5655 15.5156C16.55 15.562 16.5345 15.6084 16.5185 15.6562C16.3786 15.6098 16.2388 15.5634 16.0947 15.5156C16.0947 15.4692 16.0947 15.4228 16.0947 15.375C16.1646 15.4214 16.1646 15.4214 16.236 15.4688C16.437 15.4919 16.437 15.4919 16.6067 15.3984C16.6242 15.3752 16.6417 15.352 16.6597 15.3281Z" fill="currentColor"/>
<path d="M5.2666 15.2812C5.30302 15.3045 5.30302 15.3045 5.34017 15.3281C5.49166 15.39 5.6224 15.3812 5.7845 15.375C5.80003 15.3441 5.81557 15.3131 5.83158 15.2812C5.84712 15.3277 5.86265 15.3741 5.87866 15.4219C5.74791 15.5104 5.68152 15.5153 5.51966 15.5098C5.36076 15.4688 5.36076 15.4688 5.29308 15.3721C5.28435 15.3421 5.27561 15.3121 5.2666 15.2812Z" fill="currentColor"/>
<path d="M17.79 14.4844C17.9299 14.5076 17.9299 14.5076 18.0725 14.5312C18.057 14.655 18.0415 14.7788 18.0254 14.9062C18.0099 14.9062 17.9944 14.9062 17.9784 14.9062C17.9628 14.8134 17.9473 14.7206 17.9313 14.625C17.9157 14.8106 17.9002 14.9963 17.8842 15.1875C17.8687 15.1875 17.8531 15.1875 17.8371 15.1875C17.8216 14.9555 17.806 14.7234 17.79 14.4844Z" fill="currentColor"/>
<path d="M16.6606 14.4844C16.6761 14.4844 16.6916 14.4844 16.7077 14.4844C16.7077 14.7164 16.7077 14.9484 16.7077 15.1875C16.5857 15.0661 16.5959 14.9987 16.5841 14.8301C16.5805 14.7831 16.577 14.7361 16.5734 14.6876C16.5711 14.6515 16.5688 14.6154 16.5664 14.5781C16.5975 14.5781 16.6286 14.5781 16.6606 14.5781C16.6606 14.5472 16.6606 14.5162 16.6606 14.4844Z" fill="currentColor"/>
<path d="M2.25278 9.42188C2.33046 9.42188 2.40815 9.42188 2.48819 9.42188C2.50372 9.48375 2.51926 9.54563 2.53527 9.60938C2.50808 9.59874 2.48089 9.58811 2.45288 9.57715C2.34177 9.5498 2.34177 9.5498 2.24689 9.62988C2.21776 9.65405 2.18863 9.67822 2.15862 9.70312C2.12754 9.70312 2.09647 9.70312 2.06445 9.70312C2.07999 9.64125 2.09553 9.57937 2.11153 9.51562C2.14261 9.51562 2.17368 9.51562 2.2057 9.51562C2.22123 9.48469 2.23677 9.45375 2.25278 9.42188Z" fill="currentColor"/>
<path d="M10.6807 14.8594C10.805 14.8748 10.9293 14.8903 11.0573 14.9062C11.0573 14.9217 11.0573 14.9372 11.0573 14.9531C10.9796 14.9531 10.9019 14.9531 10.8219 14.9531C10.8219 14.9841 10.8219 15.015 10.8219 15.0469C10.8841 15.0469 10.9462 15.0469 11.0102 15.0469C11.0102 15.0778 11.0102 15.1088 11.0102 15.1406C10.8984 15.1465 10.8984 15.1465 10.7748 15.1406C10.7438 15.1097 10.7127 15.0787 10.6807 15.0469C10.6807 14.985 10.6807 14.9231 10.6807 14.8594Z" fill="currentColor"/>
<path d="M9.17424 14.7188C9.2684 14.8125 9.2684 14.8125 9.2776 14.9037C9.27453 14.9983 9.27147 15.0929 9.2684 15.1875C9.22179 15.172 9.17518 15.1566 9.12716 15.1406C9.11162 15.0169 9.09609 14.8931 9.08008 14.7656C9.11115 14.7502 9.14223 14.7347 9.17424 14.7188Z" fill="currentColor"/>
<path d="M16.3242 14.4287C16.4447 14.4359 16.5451 14.4493 16.6597 14.4844C16.6597 14.5153 16.6597 14.5463 16.6597 14.5781C16.5029 14.6302 16.4403 14.6102 16.2831 14.5781C16.2364 14.6013 16.2364 14.6013 16.1889 14.625C16.1578 14.5941 16.1267 14.5631 16.0947 14.5312C16.1889 14.4375 16.1889 14.4375 16.3242 14.4287Z" fill="currentColor"/>
<path d="M17.8848 14.5781C17.9314 14.6013 17.9314 14.6013 17.9789 14.625C17.9984 14.7219 17.9984 14.7219 18.0084 14.8389C18.0119 14.8776 18.0154 14.9163 18.019 14.9562C18.0225 15.0011 18.0225 15.0011 18.026 15.0469C17.9949 15.0469 17.9639 15.0469 17.9318 15.0469C17.9163 15.0933 17.9008 15.1397 17.8848 15.1875C17.8848 14.9864 17.8848 14.7853 17.8848 14.5781Z" fill="currentColor"/>
<path d="M8.65625 14.625C8.82716 14.625 8.99806 14.625 9.17415 14.625C9.17415 14.6714 9.17415 14.7178 9.17415 14.7656C9.00324 14.7656 8.83233 14.7656 8.65625 14.7656C8.65625 14.7192 8.65625 14.6728 8.65625 14.625Z" fill="currentColor"/>
<path d="M18.0254 15.2812C18.072 15.2812 18.1186 15.2812 18.1666 15.2812C18.1822 15.3122 18.1977 15.3431 18.2137 15.375C18.323 15.3941 18.433 15.4099 18.5433 15.4219C18.5278 15.4528 18.5122 15.4838 18.4962 15.5156C18.3377 15.5264 18.2413 15.5315 18.1019 15.4512C18.0767 15.426 18.0514 15.4009 18.0254 15.375C18.0254 15.3441 18.0254 15.3131 18.0254 15.2812Z" fill="currentColor"/>
<path d="M10.5393 14.9531C10.5859 15.015 10.6325 15.0769 10.6806 15.1406C10.634 15.2025 10.5873 15.2644 10.5393 15.3281C10.4461 15.2972 10.3529 15.2663 10.2568 15.2344C10.4334 15.1406 10.4334 15.1406 10.5393 15.1406C10.5393 15.0787 10.5393 15.0169 10.5393 14.9531Z" fill="currentColor"/>
<path d="M13.2235 14.9062C13.2701 14.9062 13.3168 14.9062 13.3648 14.9062C13.3383 14.9971 13.3383 14.9971 13.2706 15.0938C13.1088 15.1377 13.1088 15.1377 12.941 15.1406C12.8944 15.0942 12.8478 15.0478 12.7998 15C12.9396 15.0155 13.0795 15.0309 13.2235 15.0469C13.2235 15.0005 13.2235 14.9541 13.2235 14.9062Z" fill="currentColor"/>
<path d="M17.0365 14.4375C17.0521 14.4375 17.0676 14.4375 17.0836 14.4375C17.0953 14.5683 17.106 14.6991 17.116 14.8301C17.1211 14.8859 17.1211 14.8859 17.1264 14.9429C17.1342 15.0509 17.1342 15.0509 17.1307 15.2344C17.0841 15.2653 17.0375 15.2962 16.9895 15.3281C16.9739 15.2817 16.9584 15.2353 16.9424 15.1875C16.9735 15.1875 17.0045 15.1875 17.0365 15.1875C17.0365 14.94 17.0365 14.6925 17.0365 14.4375Z" fill="currentColor"/>
<path d="M18.1201 15.4688C18.3221 15.4688 18.5241 15.4688 18.7322 15.4688C18.5255 15.6231 18.4629 15.6369 18.2143 15.6094C18.1832 15.563 18.1521 15.5166 18.1201 15.4688Z" fill="currentColor"/>
<path d="M10.5391 14.6719C10.5701 14.6719 10.6012 14.6719 10.6332 14.6719C10.6332 14.7183 10.6332 14.7647 10.6332 14.8125C10.7886 14.8125 10.944 14.8125 11.1041 14.8125C11.1041 14.828 11.1041 14.8434 11.1041 14.8594C10.9487 14.8594 10.7933 14.8594 10.6332 14.8594C10.6177 14.9058 10.6022 14.9522 10.5862 15C10.5391 14.9531 10.5391 14.9531 10.5361 14.8096C10.5371 14.7641 10.5381 14.7187 10.5391 14.6719Z" fill="currentColor"/>
<path d="M21.227 14.4844C21.2736 14.4998 21.3202 14.5153 21.3682 14.5312C21.2983 14.6473 21.2983 14.6473 21.227 14.7656C21.3668 14.7656 21.5066 14.7656 21.6507 14.7656C21.6507 14.7811 21.6507 14.7966 21.6507 14.8125C21.4953 14.8125 21.34 14.8125 21.1799 14.8125C21.1505 14.7012 21.1505 14.7012 21.1328 14.5781C21.1639 14.5472 21.195 14.5162 21.227 14.4844Z" fill="currentColor"/>
<path d="M6.78147 14.5465C6.80963 14.5571 6.83779 14.5677 6.8668 14.5787C6.69025 14.7193 6.69025 14.7193 6.58431 14.7193C6.58431 14.874 6.58431 15.0287 6.58431 15.1881C6.56878 15.1881 6.55324 15.1881 6.53723 15.1881C6.53341 15.1051 6.53067 15.0221 6.5284 14.939C6.52676 14.8928 6.52513 14.8466 6.52344 14.799C6.53723 14.6724 6.53723 14.6724 6.60197 14.5845C6.67848 14.5318 6.67848 14.5318 6.78147 14.5465Z" fill="currentColor"/>
<path d="M13.6943 14.2031C13.7099 14.2031 13.7254 14.2031 13.7414 14.2031C13.7414 14.3114 13.7414 14.4197 13.7414 14.5312C13.788 14.5003 13.8346 14.4694 13.8827 14.4375C13.9293 14.453 13.9759 14.4684 14.0239 14.4844C13.8003 14.6719 13.8003 14.6719 13.6943 14.6719C13.6943 14.5172 13.6943 14.3625 13.6943 14.2031Z" fill="currentColor"/>
<path d="M16.0956 14.5781C16.1267 14.5781 16.1578 14.5781 16.1898 14.5781C16.1743 14.7328 16.1587 14.8875 16.1427 15.0469C16.1116 15.0469 16.0806 15.0469 16.0485 15.0469C16.0473 14.9775 16.0464 14.9082 16.0456 14.8389C16.0451 14.8003 16.0445 14.7616 16.0439 14.7219C16.0485 14.625 16.0485 14.625 16.0956 14.5781Z" fill="currentColor"/>
<path d="M1.82968 14.5312C1.86075 14.5312 1.89182 14.5312 1.92384 14.5312C1.93938 14.6859 1.95491 14.8406 1.97092 15C1.93985 15 1.90877 15 1.87676 15C1.80109 14.8493 1.82697 14.6983 1.82968 14.5312Z" fill="currentColor"/>
<path d="M20.4738 14.9531C20.5049 14.9686 20.536 14.9841 20.568 15C20.5974 15.1201 20.5974 15.1201 20.6151 15.2344C20.6617 15.2498 20.7083 15.2653 20.7563 15.2812C20.6631 15.2812 20.5699 15.2812 20.4738 15.2812C20.411 15.1563 20.4422 15.0859 20.4738 14.9531Z" fill="currentColor"/>
<path d="M14.9652 14.8127C14.9652 14.8282 14.9652 14.8437 14.9652 14.8596C14.9147 14.8664 14.8642 14.8731 14.8121 14.8801C14.6866 14.8988 14.569 14.9194 14.4473 14.9533C14.4473 14.9224 14.4473 14.8915 14.4473 14.8596C14.6248 14.7394 14.7615 14.7737 14.9652 14.8127Z" fill="currentColor"/>
<path d="M22.0744 14.5312C22.1366 14.5312 22.1987 14.5312 22.2628 14.5312C22.2472 14.6086 22.2317 14.6859 22.2157 14.7656C22.1535 14.7502 22.0914 14.7347 22.0273 14.7188C22.0429 14.6569 22.0584 14.595 22.0744 14.5312Z" fill="currentColor"/>
<path d="M2.44141 14.2031C2.52968 14.2119 2.52968 14.2119 2.62973 14.25C2.68858 14.3701 2.68858 14.3701 2.7239 14.4844C2.67728 14.4844 2.63067 14.4844 2.58265 14.4844C2.44141 14.3281 2.44141 14.3281 2.44141 14.2031Z" fill="currentColor"/>
<path d="M7.29076 14.5781C7.32184 14.5781 7.35291 14.5781 7.38493 14.5781C7.36939 14.7173 7.35385 14.8566 7.33785 15C7.30677 15 7.2757 15 7.24368 15C7.23908 14.7116 7.23908 14.7116 7.24368 14.625C7.25922 14.6095 7.27476 14.5941 7.29076 14.5781Z" fill="currentColor"/>
<path d="M18.6375 15C18.6531 15 18.6686 15 18.6846 15C18.6984 15.2838 18.6984 15.2838 18.6846 15.375C18.638 15.4059 18.5914 15.4369 18.5434 15.4688C18.5123 15.4378 18.4812 15.4069 18.4492 15.375C18.4716 15.3566 18.4939 15.3383 18.5169 15.3193C18.607 15.2152 18.6193 15.1344 18.6375 15Z" fill="currentColor"/>
<path d="M11.1044 14.672C11.1044 14.7029 11.1044 14.7338 11.1044 14.7657C10.9646 14.7657 10.8247 14.7657 10.6807 14.7657C10.6807 14.7348 10.6807 14.7038 10.6807 14.672C10.8444 14.6176 10.9377 14.6388 11.1044 14.672Z" fill="currentColor"/>
<path d="M21.3213 14.4375C21.4802 14.4521 21.4802 14.4521 21.6509 14.4844C21.6819 14.5308 21.713 14.5772 21.745 14.625C21.5353 14.5786 21.5353 14.5786 21.3213 14.5312C21.3213 14.5003 21.3213 14.4694 21.3213 14.4375Z" fill="currentColor"/>
<path d="M3.97478 14.4346C4.02819 14.4355 4.0816 14.4365 4.13662 14.4375C4.10846 14.4501 4.0803 14.4626 4.05129 14.4756C3.94626 14.5261 3.94626 14.5261 3.87179 14.6074C3.85043 14.6287 3.82906 14.65 3.80705 14.6719C3.77598 14.6719 3.74491 14.6719 3.71289 14.6719C3.76588 14.4382 3.76588 14.4382 3.97478 14.4346Z" fill="currentColor"/>
<path d="M1.97112 14.9531C2.05151 15.0132 2.12996 15.0758 2.20652 15.1406C2.20652 15.1716 2.20652 15.2025 2.20652 15.2344C2.03453 15.1758 1.98144 15.156 1.87695 15C1.90803 14.9845 1.9391 14.9691 1.97112 14.9531Z" fill="currentColor"/>
<path d="M11.4346 14.9531C11.5433 14.9686 11.6521 14.9841 11.7641 15C11.7641 15.0464 11.7641 15.0928 11.7641 15.1406C11.6865 15.1406 11.6088 15.1406 11.5287 15.1406C11.4977 15.0787 11.4666 15.0169 11.4346 14.9531Z" fill="currentColor"/>
</g>
</g>
</g>
<defs>
<clipPath id="clip0_3396_71298">
<rect width="24" height="24" fill="currentColor"/>
</clipPath>
<clipPath id="clip1_3396_71298">
<rect width="24" height="24" fill="currentColor"/>
</clipPath>
<clipPath id="clip2_3396_71298">
<rect width="21.375" height="7.5" fill="currentColor" transform="translate(1.5 8.25)"/>
</clipPath>
</defs>
</svg>
