<svg width="24" height="24" viewBox="0 0 24 24" fill="none" xmlns="http://www.w3.org/2000/svg">
<g clip-path="url(#clip0_6032_2136)">
<path d="M12.088 2.96321C17.5585 2.35014 22.0857 6.0934 22.1977 11.3222C22.3098 16.551 17.9652 21.2846 12.4947 21.8976C7.02426 22.5107 2.49107 18.7616 2.37907 13.5387C2.26707 8.31578 6.61161 3.57628 12.088 2.96321Z" fill="currentColor" stroke="currentColor" stroke-width="0.075"/>
<path d="M2.43796 12.3473C2.46154 12.1469 2.48512 11.9406 2.52049 11.7401C2.53817 11.6281 2.56175 11.522 2.58533 11.4159C2.62659 11.2273 2.66786 11.0445 2.72091 10.8559C2.75039 10.7498 2.77986 10.6437 2.81523 10.5376C2.87418 10.3489 2.93902 10.1603 3.00976 9.97166C3.04513 9.87734 3.07461 9.78891 3.11587 9.69459C3.21608 9.44701 3.32809 9.20532 3.44599 8.96952C3.45778 8.94005 3.46957 8.91057 3.48725 8.8811C3.62283 8.61583 3.7761 8.35645 3.92937 8.10886C3.97653 8.03223 4.02958 7.9556 4.08264 7.87896C4.20053 7.70212 4.32433 7.51937 4.45402 7.34842C4.50117 7.28358 4.55423 7.21873 4.60139 7.15978C4.74876 6.97115 4.90203 6.7943 5.06119 6.61156C5.09656 6.57029 5.13782 6.52313 5.17319 6.48187C5.24983 6.39934 5.33236 6.32271 5.40899 6.24607C5.57994 6.07512 5.7509 5.90417 5.93364 5.73911C6.05154 5.6389 6.16943 5.53868 6.28733 5.43847C6.42291 5.32647 6.5526 5.22036 6.69408 5.11425C6.83556 5.00814 6.97704 4.91382 7.11851 4.81361C7.24231 4.73108 7.36021 4.64855 7.484 4.57192C7.64316 4.47171 7.80822 4.37739 7.97328 4.28896C8.08528 4.22412 8.19728 4.15928 8.31518 4.10033C8.49203 4.00601 8.68066 3.92937 8.86341 3.84685C8.97541 3.79969 9.08152 3.74074 9.19352 3.69947C9.36447 3.62873 9.54132 3.56979 9.71817 3.51084C9.85375 3.46368 9.98933 3.41062 10.1308 3.36346C10.2428 3.32809 10.3548 3.30451 10.4727 3.27504C10.6967 3.21609 10.9207 3.15125 11.1565 3.10409C11.4631 3.03924 11.7755 2.99208 12.0938 2.95082C12.2883 2.92724 12.4829 2.91545 12.6774 2.90366C12.7835 2.89777 12.8837 2.89777 12.9898 2.89187C13.1077 2.89187 13.2256 2.88598 13.3376 2.89187C13.4437 2.89187 13.544 2.89187 13.6442 2.89777C13.7562 2.89777 13.8741 2.90956 13.9861 2.91545C14.0863 2.92135 14.1865 2.93314 14.2867 2.94493C14.3987 2.95671 14.5107 2.9685 14.6227 2.98619C14.7229 2.99798 14.8232 3.01566 14.9175 3.03335C15.0118 3.05103 15.1002 3.06872 15.1945 3.0864C15.4716 3.14535 15.7487 3.2102 16.0198 3.28683C16.12 3.3163 16.2203 3.35167 16.3264 3.38704C16.4207 3.41652 16.515 3.44599 16.6034 3.48136C16.7036 3.51673 16.8038 3.56389 16.9041 3.60515C16.9925 3.64052 17.0809 3.67589 17.1693 3.71716C17.2695 3.76432 17.3639 3.81148 17.4641 3.85864C17.5466 3.8999 17.635 3.94116 17.7176 3.98243C17.8119 4.03548 17.9062 4.08854 18.0005 4.14749C18.0771 4.19465 18.1597 4.23591 18.2363 4.28307C18.3012 4.32433 18.366 4.37149 18.4249 4.41276C18.5311 4.4835 18.6372 4.55423 18.7433 4.63087C18.814 4.68392 18.8789 4.73698 18.9437 4.79003C19.038 4.86077 19.1323 4.9374 19.2267 5.01404C19.2561 5.03762 19.2856 5.06709 19.3151 5.09657C19.5273 5.27931 19.7336 5.47974 19.9281 5.68606C19.9576 5.71553 19.9812 5.74501 20.0107 5.76859C20.1875 5.96312 20.3585 6.16944 20.5117 6.37576C20.6061 6.49955 20.6945 6.62335 20.7829 6.74714L20.2111 5.89827C20.1404 5.79217 20.0637 5.68606 19.9871 5.57995C19.9694 5.56226 19.9517 5.54458 19.9399 5.521C19.7808 5.30878 19.6157 5.10836 19.4389 4.91382C19.433 4.90203 19.4212 4.89614 19.4153 4.88435C19.3976 4.86667 19.374 4.84898 19.3563 4.8254C19.1618 4.61908 18.9614 4.42455 18.7433 4.23591C18.7256 4.21823 18.7079 4.20054 18.6902 4.18286C18.6784 4.17107 18.6666 4.16517 18.6548 4.15338C18.5664 4.07675 18.4662 4.00601 18.3719 3.92937C18.307 3.87632 18.2422 3.82327 18.1715 3.77021C18.0654 3.69358 17.9592 3.62284 17.8531 3.5521C17.7942 3.51084 17.7411 3.46957 17.6763 3.4342C17.6763 3.4342 17.6645 3.42831 17.6586 3.42241C17.582 3.37525 17.4994 3.32809 17.4228 3.28683C17.3285 3.23378 17.2342 3.17483 17.1399 3.12177C17.0573 3.08051 16.9748 3.03924 16.8864 2.99798C16.7862 2.95082 16.6918 2.89777 16.5916 2.8565C16.5032 2.81524 16.4148 2.78576 16.3264 2.7445C16.2261 2.70323 16.1259 2.66197 16.0257 2.62071C15.9373 2.58534 15.843 2.55586 15.7487 2.52639C15.6543 2.49691 15.56 2.46154 15.4657 2.43207C15.4598 2.43207 15.4539 2.43207 15.4421 2.43207C15.171 2.34954 14.8998 2.2847 14.6168 2.23164C14.5874 2.22575 14.5579 2.21396 14.5225 2.20806C14.4636 2.19627 14.3987 2.19038 14.3398 2.17859C14.2396 2.1609 14.1452 2.14322 14.045 2.13143C13.933 2.11374 13.821 2.10195 13.709 2.09016C13.6088 2.07837 13.5086 2.07248 13.4084 2.06069C13.2964 2.05479 13.1785 2.0489 13.0665 2.043C12.9663 2.043 12.8602 2.03711 12.7599 2.03711C12.642 2.03711 12.53 2.03711 12.4121 2.03711C12.306 2.03711 12.2058 2.03711 12.0997 2.0489C12.0643 2.0489 12.029 2.0489 11.9936 2.0489C11.8344 2.06069 11.6753 2.07248 11.5102 2.09016C11.2155 2.12553 10.9266 2.1668 10.6437 2.22575C10.6201 2.22575 10.5965 2.23754 10.5729 2.24343C10.343 2.29059 10.119 2.34954 9.88912 2.41438C9.78891 2.44386 9.6828 2.46154 9.58258 2.49102C9.5708 2.49102 9.55901 2.49691 9.54722 2.50281C9.40574 2.54407 9.27016 2.59713 9.13457 2.65018C8.97541 2.70323 8.81035 2.75629 8.65708 2.82113C8.6394 2.82703 8.62761 2.83292 8.60993 2.83882C8.49792 2.88598 8.39181 2.93903 8.27981 2.98619C8.12065 3.05693 7.96149 3.12177 7.80232 3.19841C7.77874 3.2102 7.75516 3.22788 7.73158 3.23967C7.61369 3.29862 7.50758 3.36346 7.38968 3.42831C7.25999 3.49905 7.12441 3.56979 6.99472 3.64642C6.95935 3.6641 6.92988 3.68768 6.9004 3.71126C6.77661 3.7879 6.65871 3.87043 6.53492 3.95295C6.42881 4.02369 6.31681 4.09443 6.2107 4.17107C6.17533 4.19465 6.14585 4.22412 6.11048 4.25359C5.96901 4.3597 5.83932 4.46581 5.70374 4.57781C5.61531 4.65445 5.5151 4.71929 5.42668 4.79593C5.3972 4.81951 5.37362 4.84898 5.34415 4.87256C5.1614 5.03762 4.99045 5.20857 4.8195 5.37952C4.75466 5.44437 4.68392 5.50331 4.62497 5.56816C4.60728 5.58584 4.59549 5.60353 4.5837 5.61532C4.54244 5.65658 4.50707 5.70374 4.4717 5.74501C4.31254 5.92185 4.15927 6.1046 4.0119 6.29323C3.96474 6.35808 3.91168 6.41703 3.86452 6.48187C3.82916 6.52903 3.78789 6.58208 3.75252 6.62924C3.6641 6.75304 3.58157 6.88272 3.49904 7.01241C3.44599 7.08905 3.39293 7.15978 3.34577 7.24231C3.18661 7.49579 3.03924 7.75517 2.90365 8.02044C2.89186 8.04992 2.88007 8.0735 2.86239 8.10297C2.74449 8.33877 2.63249 8.58635 2.53228 8.82804C2.49691 8.91647 2.46154 9.01079 2.42617 9.1051C2.35543 9.29374 2.29058 9.48238 2.23164 9.67102C2.19627 9.77712 2.16679 9.88323 2.14321 9.98934C2.09016 10.1721 2.04889 10.3607 2.00763 10.5494C1.98405 10.6555 1.96047 10.7675 1.94278 10.8736C1.90742 11.074 1.88384 11.2803 1.86026 11.4808C1.84847 11.5751 1.83668 11.6694 1.83078 11.7696C1.8072 12.0702 1.79541 12.3709 1.80131 12.6715C1.83668 14.3869 2.34953 15.9491 3.22198 17.2401L3.79379 18.0889C2.92723 16.7921 2.41438 15.2358 2.37311 13.5204C2.36722 13.2197 2.37311 12.9132 2.40259 12.6185C2.40848 12.5242 2.42617 12.4298 2.43206 12.3296L2.43796 12.3473Z" fill="currentColor" stroke="currentColor" stroke-width="0.075"/>
<path d="M12.1171 4.31238C16.8101 3.786 20.6913 6.99501 20.7865 11.4787C20.8816 15.9625 17.1589 20.0213 12.4659 20.5413C7.77284 21.0614 3.89159 17.8587 3.79646 13.3813C3.70133 8.89759 7.42404 4.83876 12.1171 4.31238Z" fill="currentColor" stroke="currentColor" stroke-width="0.075"/>
<path d="M15.6518 13.0684L12.8738 18.0203V15.2837L15.6518 13.0684Z" fill="currentColor" stroke="currentColor" stroke-width="0.075"/>
<path d="M12.8738 18.0204L12.7358 17.9397L12.7418 15.2031L12.8738 15.2838V18.0204Z" fill="currentColor" stroke="currentColor" stroke-width="0.075"/>
<path d="M12.8739 15.283L12.7419 15.2023L15.5139 12.9932L15.6519 13.0676L12.8739 15.283Z" fill="currentColor" stroke="currentColor" stroke-width="0.075"/>
<path d="M10.1079 13.875L12.8739 15.2836V18.0202L10.1079 13.875Z" fill="currentColor" stroke="currentColor" stroke-width="0.075"/>
<path d="M10.1077 13.8743L9.96973 13.7998L12.7417 15.2022L12.8737 15.2829L10.1077 13.8743Z" fill="currentColor" stroke="currentColor" stroke-width="0.075"/>
<path d="M12.8737 18.0195L12.7357 17.9388L9.96973 13.7998L10.1077 13.8743L12.8737 18.0195Z" fill="currentColor" stroke="currentColor" stroke-width="0.075"/>
<path d="M12.8799 14.9111L12.7419 14.8367L12.7539 7.32812L12.8919 7.40259L12.8799 14.9111Z" fill="currentColor" stroke="currentColor" stroke-width="0.075"/>
<path d="M12.8919 7.40234L12.8799 14.9109L10.1079 13.5085L12.8919 7.40234Z" fill="currentColor" stroke="currentColor" stroke-width="0.075"/>
<path d="M10.1077 13.5087L9.96973 13.428L12.7537 7.32812L12.8917 7.40259L10.1077 13.5087Z" fill="currentColor" stroke="currentColor" stroke-width="0.075"/>
<path d="M12.8916 7.40234L15.6516 12.7018L12.8796 14.9109L12.8916 7.40234Z" fill="currentColor" stroke="currentColor" stroke-width="0.075"/>
<circle cx="22.05" cy="2.175" r="1.8" fill="currentColor"/>
</g>
<defs>
<clipPath id="clip0_6032_2136">
<rect width="24" height="24" fill="currentColor"/>
</clipPath>
</defs>
</svg>
