<svg width="24" height="24" viewBox="0 0 24 24" fill="none" xmlns="http://www.w3.org/2000/svg">
<g clip-path="url(#clip0_4017_2665)">
<g clip-path="url(#clip1_4017_2665)">
<g clip-path="url(#clip2_4017_2665)">
<path d="M11.8454 2.72492C17.3158 2.11185 21.8431 5.85512 21.9551 11.0839C22.0671 16.3127 17.7226 21.0463 12.2521 21.6594C6.78163 22.2724 2.24845 18.5233 2.13645 13.3004C2.02445 8.0775 6.36899 3.338 11.8454 2.72492Z" fill="#E8F4FD" stroke="black" stroke-width="0.12"/>
<path d="M2.19531 12.109C2.21889 11.9086 2.24247 11.7023 2.27784 11.5018C2.29552 11.3898 2.3191 11.2837 2.34268 11.1776C2.38394 10.989 2.42521 10.8062 2.47826 10.6176C2.50774 10.5115 2.53721 10.4054 2.57258 10.2993C2.63153 10.1106 2.69638 9.92201 2.76711 9.73337C2.80248 9.63906 2.83196 9.55063 2.87322 9.45631C2.97344 9.20873 3.08544 8.96704 3.20334 8.73124C3.21513 8.70177 3.22692 8.67229 3.2446 8.64282C3.38018 8.37755 3.53345 8.11817 3.68672 7.87058C3.73388 7.79395 3.78693 7.71732 3.83999 7.64068C3.95789 7.46383 4.08168 7.28109 4.21137 7.11014C4.25853 7.0453 4.31158 6.98045 4.35874 6.9215C4.50611 6.73287 4.65938 6.55602 4.81854 6.37328C4.85391 6.33201 4.89518 6.28485 4.93055 6.24359C5.00718 6.16106 5.08971 6.08443 5.16634 6.00779C5.33729 5.83684 5.50825 5.66589 5.69099 5.50083C5.80889 5.40062 5.92678 5.3004 6.04468 5.20019C6.18027 5.08819 6.30995 4.98208 6.45143 4.87597C6.59291 4.76986 6.73439 4.67554 6.87586 4.57533C6.99966 4.4928 7.11756 4.41027 7.24135 4.33364C7.40051 4.23343 7.56557 4.13911 7.73063 4.05068C7.84263 3.98584 7.95463 3.92099 8.07253 3.86205C8.24938 3.76773 8.43802 3.69109 8.62076 3.60856C8.73276 3.56141 8.83887 3.50246 8.95087 3.46119C9.12182 3.39045 9.29867 3.3315 9.47552 3.27256C9.6111 3.2254 9.74669 3.17234 9.88816 3.12518C10.0002 3.08981 10.1122 3.06623 10.2301 3.03676C10.4541 2.97781 10.6781 2.91297 10.9139 2.86581C11.2204 2.80096 11.5328 2.7538 11.8512 2.71254C12.0457 2.68896 12.2402 2.67717 12.4348 2.66538C12.5409 2.65948 12.6411 2.65948 12.7472 2.65359C12.8651 2.65359 12.983 2.64769 13.095 2.65359C13.2011 2.65359 13.3013 2.65359 13.4015 2.65948C13.5135 2.65948 13.6314 2.67127 13.7434 2.67717C13.8436 2.68306 13.9439 2.69485 14.0441 2.70664C14.1561 2.71843 14.2681 2.73022 14.3801 2.74791C14.4803 2.7597 14.5805 2.77738 14.6748 2.79507C14.7691 2.81275 14.8576 2.83044 14.9519 2.84812C15.2289 2.90707 15.506 2.97191 15.7772 3.04855C15.8774 3.07802 15.9776 3.11339 16.0837 3.14876C16.178 3.17824 16.2723 3.20771 16.3608 3.24308C16.461 3.27845 16.5612 3.32561 16.6614 3.36687C16.7498 3.40224 16.8383 3.43761 16.9267 3.47888C17.0269 3.52604 17.1212 3.5732 17.2214 3.62035C17.304 3.66162 17.3924 3.70288 17.4749 3.74415C17.5692 3.7972 17.6635 3.85026 17.7579 3.9092C17.8345 3.95636 17.917 3.99763 17.9937 4.04479C18.0585 4.08605 18.1233 4.13321 18.1823 4.17448C18.2884 4.24521 18.3945 4.31595 18.5006 4.39259C18.5714 4.44564 18.6362 4.4987 18.701 4.55175C18.7954 4.62249 18.8897 4.69912 18.984 4.77576C19.0135 4.79934 19.043 4.82881 19.0724 4.85829C19.2846 5.04103 19.491 5.24145 19.6855 5.44778C19.715 5.47725 19.7386 5.50673 19.768 5.5303C19.9449 5.72484 20.1158 5.93116 20.2691 6.13748C20.3634 6.26127 20.4518 6.38507 20.5403 6.50886L19.9685 5.65999C19.8977 5.55388 19.8211 5.44778 19.7444 5.34167C19.7268 5.32398 19.7091 5.3063 19.6973 5.28272C19.5381 5.0705 19.3731 4.87008 19.1962 4.67554C19.1903 4.66375 19.1785 4.65786 19.1726 4.64607C19.155 4.62838 19.1314 4.6107 19.1137 4.58712C18.9192 4.3808 18.7187 4.18627 18.5006 3.99763C18.4829 3.97994 18.4653 3.96226 18.4476 3.94457C18.4358 3.93278 18.424 3.92689 18.4122 3.9151C18.3238 3.83847 18.2236 3.76773 18.1292 3.69109C18.0644 3.63804 17.9996 3.58499 17.9288 3.53193C17.8227 3.4553 17.7166 3.38456 17.6105 3.31382C17.5515 3.27255 17.4985 3.23129 17.4336 3.19592C17.4336 3.19592 17.4219 3.19003 17.416 3.18413C17.3393 3.13697 17.2568 3.08981 17.1802 3.04855C17.0858 2.99549 16.9915 2.93655 16.8972 2.88349C16.8147 2.84223 16.7322 2.80096 16.6437 2.7597C16.5435 2.71254 16.4492 2.65948 16.349 2.61822C16.2606 2.57696 16.1721 2.54748 16.0837 2.50622C15.9835 2.46495 15.8833 2.42369 15.7831 2.38242C15.6946 2.34705 15.6003 2.31758 15.506 2.28811C15.4117 2.25863 15.3174 2.22326 15.2231 2.19379C15.2172 2.19379 15.2113 2.19379 15.1995 2.19379C14.9283 2.11126 14.6571 2.04641 14.3742 1.99336C14.3447 1.98747 14.3152 1.97568 14.2799 1.96978C14.2209 1.95799 14.1561 1.9521 14.0971 1.94031C13.9969 1.92262 13.9026 1.90494 13.8024 1.89315C13.6904 1.87546 13.5784 1.86367 13.4664 1.85188C13.3662 1.84009 13.2659 1.8342 13.1657 1.82241C13.0537 1.81651 12.9358 1.81062 12.8238 1.80472C12.7236 1.80472 12.6175 1.79883 12.5173 1.79883C12.3994 1.79883 12.2874 1.79883 12.1695 1.79883C12.0634 1.79883 11.9632 1.79883 11.8571 1.81062C11.8217 1.81062 11.7863 1.81062 11.751 1.81062C11.5918 1.82241 11.4326 1.8342 11.2676 1.85188C10.9728 1.88725 10.684 1.92852 10.401 1.98747C10.3774 1.98747 10.3539 1.99926 10.3303 2.00515C10.1004 2.05231 9.87637 2.11126 9.64647 2.1761C9.54626 2.20558 9.44015 2.22326 9.33994 2.25274C9.32815 2.25274 9.31636 2.25863 9.30457 2.26453C9.16309 2.30579 9.02751 2.35884 8.89192 2.4119C8.73276 2.46495 8.5677 2.51801 8.41444 2.58285C8.39675 2.58875 8.38496 2.59464 8.36728 2.60054C8.25527 2.64769 8.14916 2.70075 8.03716 2.74791C7.878 2.81865 7.71884 2.88349 7.55967 2.96012C7.53609 2.97191 7.51251 2.9896 7.48893 3.00139C7.37104 3.06034 7.26493 3.12518 7.14703 3.19003C7.01734 3.26077 6.88176 3.3315 6.75207 3.40814C6.7167 3.42582 6.68723 3.4494 6.65775 3.47298C6.53396 3.54962 6.41606 3.63214 6.29227 3.71467C6.18616 3.78541 6.07416 3.85615 5.96805 3.93278C5.93268 3.95636 5.9032 3.98584 5.86784 4.01531C5.72636 4.12142 5.59667 4.22753 5.46109 4.33953C5.37266 4.41617 5.27245 4.48101 5.18403 4.55764C5.15455 4.58122 5.13097 4.6107 5.1015 4.63428C4.91876 4.79934 4.7478 4.97029 4.57685 5.14124C4.51201 5.20608 4.44127 5.26503 4.38232 5.32988C4.36463 5.34756 4.35284 5.36525 4.34105 5.37704C4.29979 5.4183 4.26442 5.46546 4.22905 5.50673C4.06989 5.68357 3.91662 5.86631 3.76925 6.05495C3.72209 6.1198 3.66903 6.17874 3.62188 6.24359C3.58651 6.29075 3.54524 6.3438 3.50987 6.39096C3.42145 6.51475 3.33892 6.64444 3.25639 6.77413C3.20334 6.85076 3.15028 6.9215 3.10312 7.00403C2.94396 7.25751 2.79659 7.51689 2.66101 7.78216C2.64922 7.81163 2.63743 7.83521 2.61974 7.86469C2.50184 8.10048 2.38984 8.34807 2.28963 8.58976C2.25426 8.67819 2.21889 8.7725 2.18352 8.86682C2.11278 9.05546 2.04794 9.2441 1.98899 9.43273C1.95362 9.53884 1.92414 9.64495 1.90056 9.75106C1.84751 9.9338 1.80624 10.1224 1.76498 10.3111C1.7414 10.4172 1.71782 10.5292 1.70014 10.6353C1.66477 10.8357 1.64119 11.042 1.61761 11.2425C1.60582 11.3368 1.59403 11.4311 1.58813 11.5313C1.56455 11.832 1.55276 12.1326 1.55866 12.4332C1.59403 14.1487 2.10688 15.7108 2.97933 17.0018L3.55114 17.8507C2.68459 16.5538 2.17173 14.9975 2.13046 13.2821C2.12457 12.9815 2.13046 12.6749 2.15994 12.3802C2.16583 12.2859 2.18352 12.1916 2.18941 12.0913L2.19531 12.109Z" fill="#017AFF" stroke="black" stroke-width="0.12"/>
<path d="M11.8743 4.07508C16.5673 3.5487 20.4486 6.75771 20.5437 11.2414C20.6388 15.7252 16.9161 19.784 12.2231 20.304C7.53011 20.8241 3.64886 17.6214 3.55373 13.144C3.4586 8.66028 7.1813 4.60146 11.8743 4.07508Z" fill="#017AFF" stroke="black" stroke-width="0.12"/>
<path d="M15.4088 12.8301L12.6308 17.782V15.0454L15.4088 12.8301Z" fill="#E8F4FD" stroke="black" stroke-width="0.06"/>
<path d="M12.6308 17.7811L12.4928 17.7004L12.4988 14.9639L12.6308 15.0445V17.7811Z" fill="#E8F4FD" stroke="black" stroke-width="0.06"/>
<path d="M12.6309 15.0447L12.4989 14.964L15.2709 12.7549L15.4089 12.8293L12.6309 15.0447Z" fill="#E8F4FD" stroke="black" stroke-width="0.06"/>
<path d="M9.86487 13.6367L12.6309 15.0453V17.7819L9.86487 13.6367Z" fill="#E8F4FD" stroke="black" stroke-width="0.06"/>
<path d="M9.86489 13.637L9.72689 13.5625L12.4989 14.9649L12.6309 15.0456L9.86489 13.637Z" fill="#E8F4FD" stroke="black" stroke-width="0.06"/>
<path d="M12.6309 17.7822L12.4929 17.7015L9.72689 13.5625L9.86489 13.637L12.6309 17.7822Z" fill="#E8F4FD" stroke="black" stroke-width="0.06"/>
<path d="M12.6369 14.6728L12.4989 14.5984L12.5109 7.08984L12.6489 7.16431L12.6369 14.6728Z" fill="#E8F4FD" stroke="black" stroke-width="0.06"/>
<path d="M12.6489 7.16406L12.6369 14.6726L9.86487 13.2702L12.6489 7.16406Z" fill="#E8F4FD" stroke="black" stroke-width="0.06"/>
<path d="M9.86488 13.2704L9.72688 13.1897L12.5109 7.08984L12.6489 7.16431L9.86488 13.2704Z" fill="#E8F4FD" stroke="black" stroke-width="0.06"/>
<path d="M12.6489 7.16406L15.4089 12.4635L12.6369 14.6726L12.6489 7.16406Z" fill="#E8F4FD" stroke="black" stroke-width="0.06"/>
</g>
</g>
</g>
<defs>
<clipPath id="clip0_4017_2665">
<rect width="24" height="24" fill="white"/>
</clipPath>
<clipPath id="clip1_4017_2665">
<rect width="24" height="24" fill="white"/>
</clipPath>
<clipPath id="clip2_4017_2665">
<rect width="24" height="24" fill="white"/>
</clipPath>
</defs>
</svg>
