<svg width="24" height="24" viewBox="0 0 24 24" fill="none" xmlns="http://www.w3.org/2000/svg">
<g clip-path="url(#clip0_3323_37351)">
<g filter="url(#filter0_d_3323_37351)">
<path d="M0 12C0 5.37258 5.37258 0 12 0C18.6274 0 24 5.37258 24 12C24 18.6274 18.6274 24 12 24C5.37258 24 0 18.6274 0 12Z" fill="currentColor"/>
<path fill-rule="evenodd" clip-rule="evenodd" d="M17.7417 12.3007C17.7417 14.4934 15.567 16.2677 13.3351 16.2577H10.3973C7.97553 16.2677 5.99072 14.494 5.99072 12.3007C5.99072 9.97491 7.97553 8.34291 10.3973 8.34375H13.3351C15.567 8.34291 17.7417 9.97435 17.7417 12.3007ZM6.48035 12.3009C6.48095 10.3584 8.23388 8.78419 10.3973 8.78365C12.5608 8.78419 14.314 10.3584 14.3143 12.3009C14.314 14.2435 12.5608 15.8177 10.3973 15.8182C8.23388 15.8177 6.48095 14.2435 6.48035 12.3009ZM11.3766 14.7888C12.5176 14.4267 13.3351 13.4495 13.3351 12.3009C13.3351 11.1523 12.5176 10.1752 11.3766 9.81307V14.7888ZM9.41808 14.7888C8.27707 14.4267 7.45959 13.4495 7.45959 12.3009C7.45959 11.1523 8.27707 10.1752 9.41808 9.81307V14.7888Z" fill="currentColor"/>
</g>
</g>
<defs>
<filter id="filter0_d_3323_37351" x="-6" y="-5" width="36" height="36" filterUnits="userSpaceOnUse" color-interpolation-filters="sRGB">
<feFlood flood-opacity="0" result="BackgroundImageFix"/>
<feColorMatrix in="SourceAlpha" type="matrix" values="0 0 0 0 0 0 0 0 0 0 0 0 0 0 0 0 0 0 127 0" result="hardAlpha"/>
<feOffset dy="1"/>
<feGaussianBlur stdDeviation="3"/>
<feComposite in2="hardAlpha" operator="out"/>
<feColorMatrix type="matrix" values="0 0 0 0 0 0 0 0 0 0 0 0 0 0 0 0 0 0 0.08 0"/>
<feBlend mode="normal" in2="BackgroundImageFix" result="effect1_dropShadow_3323_37351"/>
<feBlend mode="normal" in="SourceGraphic" in2="effect1_dropShadow_3323_37351" result="shape"/>
</filter>
<clipPath id="clip0_3323_37351">
<rect width="24" height="24" fill="currentColor"/>
</clipPath>
</defs>
</svg>
