<svg width="24" height="24" viewBox="0 0 24 24" fill="none" xmlns="http://www.w3.org/2000/svg">
<g clip-path="url(#clip0_3323_37369)">
<g filter="url(#filter0_d_3323_37369)">
<path d="M0 12C0 5.37258 5.37258 0 12 0C18.6274 0 24 5.37258 24 12C24 18.6274 18.6274 24 12 24C5.37258 24 0 18.6274 0 12Z" fill="currentColor"/>
<path d="M12 0.875C18.1442 0.875 23.125 5.85583 23.125 12C23.125 18.1442 18.1442 23.125 12 23.125C5.85583 23.125 0.875 18.1442 0.875 12C0.875 5.85583 5.85583 0.875 12 0.875Z" stroke="currentColor" stroke-width="1.75"/>
<path fill-rule="evenodd" clip-rule="evenodd" d="M19.4331 10.6162H20.4153C20.7287 10.6162 21.3525 10.776 21.3525 11.445C21.3525 12.1147 20.7076 12.2533 20.7076 12.2533L21.6273 13.43H20.8961L20.0832 12.307H20.0209V13.43H19.4331V10.6162ZM20.0209 11.0853V11.9065H20.3444C20.5935 11.9065 20.7508 11.6967 20.7508 11.5133V11.4781C20.7508 11.295 20.5935 11.0853 20.3444 11.0853H20.0209Z" fill="currentColor"/>
<path fill-rule="evenodd" clip-rule="evenodd" d="M14.2437 10.6162H14.8915L15.7209 12.4595L16.5026 10.6162H17.1506L15.8837 13.5014H15.5106L14.2437 10.6162Z" fill="currentColor"/>
<path fill-rule="evenodd" clip-rule="evenodd" d="M5.58594 13.43H6.18781V10.6162H5.58594V13.43Z" fill="currentColor"/>
<path fill-rule="evenodd" clip-rule="evenodd" d="M2.88232 10.6162H3.86764C4.45916 10.6162 5.32694 11.1182 5.32694 12.0103V12.0207V12.0312C5.32694 12.9235 4.45916 13.4252 3.86764 13.4252H2.88232V10.6162ZM3.44968 12.9569C3.44968 12.9569 4.7144 13.09 4.7144 12.0446V12.0282C4.7144 10.9826 3.44968 11.1159 3.44968 11.1159V12.9569Z" fill="currentColor"/>
<path fill-rule="evenodd" clip-rule="evenodd" d="M18.9964 11.7243V12.2206H17.9728V12.9327H19.0437V13.429H17.375V10.6152H19.0437V11.1115H17.9728V11.7243H18.9964Z" fill="currentColor"/>
<path fill-rule="evenodd" clip-rule="evenodd" d="M14.3491 12.0361C14.3491 12.8418 13.6493 13.4948 12.7867 13.4948C11.9237 13.4948 11.2241 12.8418 11.2241 12.0361C11.2241 11.2303 11.9237 10.5771 12.7867 10.5771C13.6493 10.5771 14.3491 11.2303 14.3491 12.0361Z" fill="currentColor"/>
<path fill-rule="evenodd" clip-rule="evenodd" d="M8.03287 11.2641C8.03287 11.2641 7.83459 11.051 7.56831 11.051C7.30258 11.051 7.14901 11.2163 7.14901 11.3368C7.14901 11.4569 7.14402 11.5249 7.52377 11.6727C7.90389 11.8212 8.46252 11.9276 8.46252 12.5544C8.46252 13.1806 7.93697 13.4984 7.46445 13.4984C6.719 13.4984 6.38379 12.9647 6.38379 12.9647L6.75892 12.6142C6.75892 12.6142 6.99674 12.9878 7.4116 12.9878C7.82628 12.9878 7.84938 12.6929 7.84938 12.5959C7.84938 12.4524 7.76012 12.3104 7.504 12.2227C7.24788 12.1345 6.54751 12.0462 6.54751 11.4155C6.54751 10.8491 7.00081 10.5684 7.50899 10.5684C7.96321 10.5684 8.35829 10.9004 8.35829 10.9004L8.03287 11.2641Z" fill="currentColor"/>
<path fill-rule="evenodd" clip-rule="evenodd" d="M10.9633 11.3813C10.7771 11.2015 10.5206 11.0709 10.2319 11.0709C9.6661 11.0709 9.20745 11.4995 9.20745 12.0276C9.20745 12.5561 9.6661 12.9842 10.2319 12.9842C10.5178 12.9842 10.778 12.855 10.9635 12.6785L10.9633 13.3407C10.7442 13.4479 10.496 13.5076 10.2319 13.5076C9.35657 13.5076 8.64697 12.8452 8.64697 12.0276C8.64697 11.2103 9.35657 10.5479 10.2319 10.5479C10.4967 10.5479 10.744 10.6084 10.9633 10.7159V11.3813Z" fill="currentColor"/>
</g>
</g>
<defs>
<filter id="filter0_d_3323_37369" x="-6" y="-5" width="36" height="36" filterUnits="userSpaceOnUse" color-interpolation-filters="sRGB">
<feFlood flood-opacity="0" result="BackgroundImageFix"/>
<feColorMatrix in="SourceAlpha" type="matrix" values="0 0 0 0 0 0 0 0 0 0 0 0 0 0 0 0 0 0 127 0" result="hardAlpha"/>
<feOffset dy="1"/>
<feGaussianBlur stdDeviation="3"/>
<feComposite in2="hardAlpha" operator="out"/>
<feColorMatrix type="matrix" values="0 0 0 0 0 0 0 0 0 0 0 0 0 0 0 0 0 0 0.08 0"/>
<feBlend mode="normal" in2="BackgroundImageFix" result="effect1_dropShadow_3323_37369"/>
<feBlend mode="normal" in="SourceGraphic" in2="effect1_dropShadow_3323_37369" result="shape"/>
</filter>
<clipPath id="clip0_3323_37369">
<rect width="24" height="24" fill="currentColor"/>
</clipPath>
</defs>
</svg>
