<svg width="24" height="24" viewBox="0 0 24 24" fill="none" xmlns="http://www.w3.org/2000/svg">
<g clip-path="url(#clip0_3396_50276)">
<path d="M23.25 11.625C23.25 5.20469 18.0453 0 11.625 0C5.20469 0 0 5.20469 0 11.625C0 18.0453 5.20469 23.25 11.625 23.25C18.0453 23.25 23.25 18.0453 23.25 11.625Z" fill="currentColor"/>
<path d="M19.0796 11.1286C18.7506 11.2017 17.8848 11.2437 17.8848 11.2437L17.7752 11.5756C17.7752 11.5756 18.2069 11.5403 18.5222 11.5712C18.5222 11.5712 18.625 11.5602 18.6364 11.6841C18.641 11.7992 18.6272 11.9231 18.6272 11.9231C18.6272 11.9231 18.6204 11.9983 18.5108 12.016C18.392 12.0359 17.5787 12.0647 17.5787 12.0647L17.4462 12.4962C17.4462 12.4962 17.3983 12.5958 17.5079 12.567C17.6107 12.5405 18.4628 12.3856 18.5747 12.4077C18.6935 12.4365 18.826 12.5892 18.7871 12.7308C18.7415 12.9034 17.8917 13.4301 17.3732 13.3924C17.3732 13.3924 17.1013 13.4102 16.8706 13.0539C16.6559 12.7153 16.9529 12.0713 16.9529 12.0713C16.9529 12.0713 16.8181 11.7704 16.9163 11.6708C16.9163 11.6708 16.9757 11.6199 17.1447 11.6066L17.3526 11.1884C17.3526 11.1884 17.115 11.2039 16.9734 11.0357C16.8409 10.8741 16.8318 10.8011 16.9323 10.7569C17.0397 10.706 18.0288 10.5311 18.7095 10.5533C18.7095 10.5533 18.947 10.5311 19.1504 10.9295C19.1481 10.9295 19.2486 11.091 19.0796 11.1286ZM16.5188 12.7352C16.432 12.9344 16.2013 13.1468 15.9158 13.0141C15.6325 12.8813 15.1825 11.9895 15.1825 11.9895C15.1825 11.9895 15.0112 11.6575 14.9792 11.6642C14.9792 11.6642 14.9427 11.6 14.9198 11.9629C14.897 12.3258 14.9244 13.0317 14.7759 13.1424C14.6343 13.2531 14.463 13.2088 14.3739 13.0782C14.2939 12.9499 14.2596 12.6445 14.3031 12.109C14.3556 11.5734 14.4835 11.0025 14.648 10.8232C14.8125 10.6462 14.945 10.7746 14.9952 10.821C14.9952 10.821 15.2145 11.0136 15.5777 11.5801L15.6417 11.6841C15.6417 11.6841 15.9706 12.2196 16.0049 12.2174C16.0049 12.2174 16.0323 12.2418 16.0551 12.224C16.0894 12.2152 16.0757 12.0426 16.0757 12.0426C16.0757 12.0426 16.0071 11.4606 15.7079 10.4736C15.7079 10.4736 15.6622 10.3497 15.6942 10.2346C15.7239 10.1173 15.845 10.1726 15.845 10.1726C15.845 10.1726 16.311 10.3984 16.5348 11.1331C16.7564 11.8744 16.6056 12.536 16.5188 12.7352ZM14.2299 10.8476C14.1911 10.9228 14.1683 11.0313 13.9718 11.06C13.9718 11.06 12.0918 11.1839 12.0027 11.3123C12.0027 11.3123 11.9365 11.3875 12.0393 11.4097C12.1421 11.4296 12.567 11.4849 12.7726 11.496C12.9918 11.4982 13.732 11.5048 13.997 11.8257C13.997 11.8257 14.1546 11.9784 14.1477 12.3236C14.1409 12.6777 14.0769 12.8016 13.9353 12.93C13.7868 13.0494 12.5121 13.6027 11.6898 12.7529C11.6898 12.7529 11.3106 12.3435 11.82 12.0337C11.82 12.0337 12.1878 11.8191 13.1221 12.0713C13.1221 12.0713 13.4053 12.1709 13.3916 12.2705C13.3756 12.3767 13.1586 12.4896 12.8434 12.4829C12.5373 12.4741 12.3134 12.3325 12.3568 12.3546C12.398 12.3701 12.0279 12.182 11.9137 12.3103C11.7995 12.4276 11.8269 12.5007 11.9388 12.5737C12.2243 12.7308 13.3277 12.6755 13.6566 12.3214C13.6566 12.3214 13.7868 12.1776 13.5881 12.0603C13.3893 11.9496 12.8205 11.8832 12.599 11.8722C12.3865 11.8611 11.5962 11.8744 11.4819 11.6708C11.4819 11.6708 11.3677 11.5336 11.4933 11.1441C11.6258 10.7369 12.5464 10.5798 12.9439 10.5444C12.9439 10.5444 14.0381 10.5068 14.2391 10.7237C14.2368 10.7237 14.2642 10.7746 14.2299 10.8476ZM11.1233 13.2353C10.9908 13.3305 10.7099 13.2884 10.6299 13.1822C10.55 13.0871 10.5225 12.7087 10.5385 12.1156C10.5545 11.5159 10.5682 10.7724 10.7007 10.6551C10.8423 10.5356 10.9291 10.6396 10.9839 10.7215C11.0433 10.8011 11.1141 10.8897 11.1302 11.0777C11.1438 11.2658 11.1896 12.2528 11.1896 12.2528C11.1896 12.2528 11.2489 13.1424 11.1233 13.2353ZM11.4089 10.0532C11.0228 10.1771 10.7578 10.135 10.5339 10.0421C10.4357 10.2081 10.3786 10.259 10.3032 10.27C10.1936 10.2811 10.0953 10.1107 10.0771 10.0554C10.0588 10.0133 10.0063 9.94251 10.0702 9.77431C9.85095 9.58402 9.83494 9.32733 9.8715 9.15469C9.92633 8.95554 10.2964 8.19872 11.4225 8.11023C11.4225 8.11023 11.973 8.07037 12.0667 8.35584H12.0827C12.0827 8.35584 12.6172 8.35806 12.6058 8.81833C12.599 9.28083 12.0119 9.85619 11.4089 10.0532ZM10.3581 9.02856C10.2438 9.20559 10.2393 9.31181 10.2918 9.38483C10.422 9.19233 10.6596 8.88917 11.0091 8.659C10.7395 8.68116 10.5134 8.79399 10.3581 9.02856ZM11.9137 8.73205C11.5596 8.78295 11.0114 9.24323 10.751 9.6194C11.1507 9.69024 11.8566 9.66369 12.1695 9.04626C12.1672 9.04626 12.318 8.66343 11.9137 8.73205ZM21.526 12.297C21.3136 12.6556 20.7174 13.4035 19.9224 13.2287C19.6598 13.8461 19.4405 14.4679 19.3148 15.4018C19.3148 15.4018 19.2874 15.5832 19.1321 15.5191C18.979 15.4659 18.7232 15.2181 18.6729 14.8751C18.6181 14.4237 18.826 13.6602 19.2486 12.7861C19.1252 12.5914 19.0407 12.3126 19.1138 11.9164C19.1138 11.9164 19.2212 11.1817 19.9818 10.5179C19.9818 10.5179 20.0732 10.4404 20.1258 10.4648C20.1851 10.4891 20.1577 10.7281 20.1098 10.8432C20.0618 10.9582 19.7214 11.5292 19.7214 11.5292C19.7214 11.5292 19.509 11.9142 19.5684 12.2174C19.9681 11.6221 20.8773 10.4205 21.4415 10.7989C21.6311 10.9295 21.7179 11.2149 21.7179 11.5225C21.7156 11.7947 21.6494 12.0824 21.526 12.297ZM21.3615 11.3544C21.3615 11.3544 21.3296 11.1176 21.092 11.3787C20.8864 11.5978 20.5164 12.0116 20.2171 12.5715C20.5301 12.5383 20.8316 12.3723 20.923 12.2882C21.0714 12.1599 21.4164 11.8146 21.3615 11.3544ZM10.2713 11.6553C10.2279 12.1908 10.0154 13.0915 8.51006 13.5363C7.51639 13.8262 6.57754 13.6868 6.06585 13.5606C6.05441 13.7576 6.03158 13.8417 5.99959 13.8749C5.9562 13.9169 5.63183 14.0984 5.45366 13.8417C5.37368 13.72 5.33258 13.4987 5.30974 13.3017C4.15845 12.7883 3.62849 12.0492 3.60792 12.016C3.5828 11.9917 3.3201 11.7261 3.5828 11.4008C3.8295 11.1065 4.63586 10.8122 5.36228 10.6927C5.3874 10.0908 5.46049 9.63713 5.5473 9.42912C5.65238 9.1879 5.78486 9.40478 5.89909 9.56851C5.99501 9.69024 6.05213 10.2147 6.0567 10.6329C6.53183 10.6108 6.81281 10.644 7.34276 10.7369C8.03261 10.8587 8.49405 11.1995 8.45295 11.5867C8.42325 11.9673 8.06231 12.1244 7.92525 12.1355C7.78136 12.1466 7.55749 12.047 7.55749 12.047C7.40445 11.9762 7.54609 11.9142 7.73111 11.8368C7.93211 11.7416 7.88644 11.6442 7.88644 11.6442C7.81106 11.4318 6.9156 11.2835 6.02471 11.2835C6.02014 11.7593 6.04526 12.5493 6.0567 13.0096C6.68033 13.1247 7.1463 13.1025 7.1463 13.1025C7.1463 13.1025 9.4215 13.0406 9.49001 11.6332C9.56081 10.2235 7.22171 8.87144 5.49248 8.44216C3.76553 8.004 2.78786 8.30938 2.70334 8.35141C2.61197 8.39569 2.69649 8.40895 2.69649 8.40895C2.69649 8.40895 2.79014 8.42221 2.95233 8.47532C3.12365 8.52843 2.99116 8.61475 2.99116 8.61475C2.69649 8.7055 2.36526 8.64795 2.3013 8.51739C2.23734 8.38683 2.3447 8.26952 2.46806 8.10136C2.59141 7.92433 2.72618 7.93095 2.72618 7.93095C4.86203 7.21397 7.46385 8.51074 7.46385 8.51074C9.9012 9.70794 10.3169 11.1109 10.2713 11.6553ZM3.82493 11.5823C3.5828 11.6973 3.74955 11.8633 3.74955 11.8633C4.20413 12.3369 4.76378 12.6334 5.29601 12.8171C5.3577 12.0005 5.34855 11.7128 5.35541 11.3013C4.52393 11.3566 4.04423 11.4849 3.82493 11.5823Z" fill="currentColor"/>
</g>
<defs>
<clipPath id="clip0_3396_50276">
<rect width="24" height="23.25" fill="currentColor"/>
</clipPath>
</defs>
</svg>
