<svg width="24" height="24" viewBox="0 0 24 24" fill="none" xmlns="http://www.w3.org/2000/svg">
<g clip-path="url(#clip0_3396_73265)">
<g clip-path="url(#clip1_3396_73265)">
<circle cx="12" cy="12" r="12" fill="currentColor"/>
<path d="M12.7705 9.56642C12.9862 9.59156 13.3592 9.50292 13.2679 9.8363L13.1066 10.2795C13.0444 10.4316 13.0655 10.4634 12.9028 10.4673L12.4874 10.5017C12.2744 10.5057 12.3181 10.4581 12.3591 10.3112L12.5589 9.82439C12.5814 9.68813 12.5933 9.57039 12.7705 9.56642Z" fill="currentColor"/>
<path d="M12.0427 10.9871L11.3283 12.9516C10.6404 14.1727 12.0876 14.0152 12.6327 13.2506C12.7001 13.1593 12.7001 13.0442 12.5573 13.0865C12.2914 13.1686 12.0678 13.2493 12.1855 12.818L12.8417 11.122C12.8814 10.827 12.5044 10.8998 12.3152 10.8984C12.1697 10.8971 12.1326 10.8389 12.0427 10.9871Z" fill="currentColor"/>
<path d="M14.0541 11.1894C13.9814 11.6194 13.5951 13.0587 14.0793 13.318C14.8095 12.6036 15.8123 10.6748 14.7937 9.81493C14.8386 9.67206 14.8492 9.47494 15.0397 9.48288L15.9023 9.52654C16.1047 9.5358 16.1232 9.59797 16.1139 9.73556C16.0094 11.1352 15.4009 12.7915 14.4034 13.703C13.316 14.3168 13.39 12.1287 13.4271 11.548C13.4086 11.4474 13.4086 11.4606 13.3146 11.4421C13.0104 11.3971 13.0553 11.1908 13.1704 10.9884C13.3795 10.995 14.1057 10.8812 14.0541 11.1894Z" fill="currentColor"/>
<path d="M16.9811 9.56821C17.1968 9.59335 17.5711 9.50471 17.4785 9.83677L17.3171 10.2786C17.2536 10.4308 17.2761 10.4638 17.1147 10.4665L16.6993 10.5009C16.4864 10.5035 16.53 10.4572 16.571 10.3104L16.7708 9.82354C16.7933 9.6886 16.8039 9.57218 16.9811 9.56821Z" fill="currentColor"/>
<path d="M16.2539 11.0053L15.5408 12.9685C14.8516 14.1909 16.2988 14.0321 16.8439 13.2688C16.91 13.1749 16.9113 13.0611 16.7698 13.1048C16.5026 13.1868 16.2803 13.2662 16.3954 12.8349L17.0516 11.1389C17.0913 10.8426 16.7129 10.9167 16.5251 10.9154C16.3822 10.914 16.3438 10.8571 16.2539 11.0053Z" fill="currentColor"/>
<path d="M19.2648 12.0499C19.532 11.8938 19.5148 11.4334 19.3812 11.1781C18.6126 10.4981 16.8333 11.3699 17.4246 12.3925C17.6165 12.9402 17.93 13.3794 18.057 13.9787C18.0477 14.3994 17.7527 14.3822 17.4035 14.402C15.091 14.4113 12.7772 14.4166 10.4635 14.4206L10.3695 14.4232C10.187 14.4404 10.1129 14.4894 9.99911 14.6428C9.93032 14.7328 9.86417 14.8095 9.78612 14.8862C9.69352 14.9802 9.74511 15.0212 9.85756 15.041C12.6304 14.9947 15.4032 14.9616 18.1761 14.9034C18.8441 14.8161 19.1696 14.0753 18.8759 13.5289C18.6893 13.0275 18.4777 12.5592 18.2462 12.0764L18.1139 11.8065C17.7368 11.2773 18.7661 11.0961 18.7251 11.5326C18.6166 12.0142 18.7423 12.1266 19.2648 12.0499Z" fill="currentColor"/>
<path d="M22.2953 11.9783C22.2953 13.5856 21.1933 15.0541 19.4113 16.127C17.5857 17.2263 15.0576 17.9063 12.2596 17.9063C9.46165 17.9063 6.93223 17.2263 5.10661 16.1283C3.32464 15.0554 2.22265 13.587 2.22265 11.9796C2.22265 10.3723 3.32596 8.90384 5.10926 7.83096C6.93356 6.73029 9.46165 6.05031 12.2583 6.05031C15.0549 6.05031 17.5844 6.73029 19.41 7.82963C21.192 8.90384 22.2953 10.371 22.2953 11.9783ZM22.8324 11.9783C22.8324 10.1593 21.6272 8.52284 19.6799 7.35074C17.7749 6.20509 15.1502 5.49601 12.2583 5.49601C9.3664 5.49601 6.74041 6.20509 4.83806 7.35206C2.9066 8.51623 1.70539 10.1355 1.68555 11.9373V12.022C1.70407 13.8238 2.90528 15.443 4.83806 16.6059C6.74173 17.7515 9.3664 18.4619 12.2583 18.4619C15.1515 18.4619 17.7749 17.7515 19.6785 16.6059C21.6259 15.4338 22.8324 13.7973 22.8324 11.9783Z" fill="currentColor"/>
<path d="M7.57283 10.8068C7.58341 10.7645 7.35058 10.8055 7.16934 10.7208C5.76704 10.07 10.8126 7.9996 10.4674 11.7368C10.3549 12.9711 9.11005 14.4991 7.70909 13.6537C7.57944 13.5744 7.58341 13.4897 7.66146 13.3693C8.07553 12.7304 8.99628 11.1296 9.19869 10.3266L8.23031 10.357C7.94721 11.2275 7.5596 12.1245 7.02514 13.0002C6.37162 12.4142 5.81864 12.7965 5.41383 13.2053C4.714 13.9117 4.93228 15.0005 6.59784 14.2742C7.02249 14.5017 7.38762 14.8245 7.92075 14.6949C9.88925 14.6393 12.4213 12.143 11.1129 9.86624C10.0004 8.35943 6.77378 8.73514 6.07131 10.3967C5.89801 10.8068 5.8742 11.1587 6.20096 11.4921C6.66398 11.9644 7.37968 11.5807 7.57283 10.8068ZM5.73265 13.5545C5.76969 14.2464 6.63223 13.9633 6.05147 13.3627C5.86626 13.2847 5.72868 13.3548 5.73265 13.5545Z" fill="currentColor"/>
<path d="M5.73148 13.5539C5.76852 14.2458 6.63107 13.964 6.05031 13.3621C5.86642 13.2841 5.72884 13.3542 5.73148 13.5539Z" fill="currentColor"/>
<path d="M5.73148 13.5539C5.76852 14.2458 6.63107 13.964 6.05031 13.3621C5.86642 13.2841 5.72884 13.3542 5.73148 13.5539Z" fill="currentColor"/>
</g>
</g>
<defs>
<clipPath id="clip0_3396_73265">
<rect width="24" height="24" fill="currentColor"/>
</clipPath>
<clipPath id="clip1_3396_73265">
<rect width="24" height="24" fill="currentColor"/>
</clipPath>
</defs>
</svg>
