<svg width="24" height="24" viewBox="0 0 24 24" fill="none" xmlns="http://www.w3.org/2000/svg">
<g clip-path="url(#clip0_3396_60558)">
<g filter="url(#filter0_d_3396_60558)">
<g clip-path="url(#clip1_3396_60558)">
<path d="M0 12C0 5.37258 5.37258 0 12 0C18.6274 0 24 5.37258 24 12C24 18.6274 18.6274 24 12 24C5.37258 24 0 18.6274 0 12Z" fill="white"/>
<g clip-path="url(#clip2_3396_60558)">
<path d="M19.4211 6.0332H5.91406V19.3427H19.4211V6.0332Z" fill="#334190"/>
<path d="M8.73619 6.0332H5.91406V19.3427H8.73619V6.0332Z" fill="#F6AC21"/>
<path d="M9.65214 19.3438L11.958 18.8929C22.2818 16.0472 16.067 9.31184 16.067 9.31184C12.4859 5.4587 4.7959 4.34766 4.7959 4.34766C4.7959 4.34766 12.5208 5.84056 15.048 11.7412C15.048 11.7412 17.6954 17.2292 8.28571 19.3457H9.65214V19.3438Z" fill="#334190"/>
<path d="M16.0674 9.31249C14.7126 7.85413 12.7678 6.78914 10.8753 6.02734H9.35753C11.5062 7.15565 13.8566 8.9575 15.0484 11.7418C15.0484 11.7418 17.6958 17.2299 8.28613 19.3464H9.65256L11.9584 18.8916C22.2823 16.0459 16.0674 9.31057 16.0674 9.31057V9.31249Z" fill="white"/>
</g>
</g>
</g>
</g>
<defs>
<filter id="filter0_d_3396_60558" x="-6" y="-5" width="36" height="36" filterUnits="userSpaceOnUse" color-interpolation-filters="sRGB">
<feFlood flood-opacity="0" result="BackgroundImageFix"/>
<feColorMatrix in="SourceAlpha" type="matrix" values="0 0 0 0 0 0 0 0 0 0 0 0 0 0 0 0 0 0 127 0" result="hardAlpha"/>
<feOffset dy="1"/>
<feGaussianBlur stdDeviation="3"/>
<feComposite in2="hardAlpha" operator="out"/>
<feColorMatrix type="matrix" values="0 0 0 0 0 0 0 0 0 0 0 0 0 0 0 0 0 0 0.08 0"/>
<feBlend mode="normal" in2="BackgroundImageFix" result="effect1_dropShadow_3396_60558"/>
<feBlend mode="normal" in="SourceGraphic" in2="effect1_dropShadow_3396_60558" result="shape"/>
</filter>
<clipPath id="clip0_3396_60558">
<rect width="24" height="24" fill="white"/>
</clipPath>
<clipPath id="clip1_3396_60558">
<path d="M0 12C0 5.37258 5.37258 0 12 0C18.6274 0 24 5.37258 24 12C24 18.6274 18.6274 24 12 24C5.37258 24 0 18.6274 0 12Z" fill="white"/>
</clipPath>
<clipPath id="clip2_3396_60558">
<rect width="14.625" height="15" fill="white" transform="translate(4.7959 4.34766)"/>
</clipPath>
</defs>
</svg>
