<svg width="16" height="16" viewBox="0 0 16 16" fill="none" xmlns="http://www.w3.org/2000/svg">
<g clip-path="url(#clip0_3396_61858)">
<g filter="url(#filter0_d_3396_61858)">
<g clip-path="url(#clip1_3396_61858)">
<path d="M0.25 8C0.25 3.71979 3.71979 0.25 8 0.25C12.2802 0.25 15.75 3.71979 15.75 8C15.75 12.2802 12.2802 15.75 8 15.75C3.71979 15.75 0.25 12.2802 0.25 8Z" fill="#0078AE"/>
<g clip-path="url(#clip2_3396_61858)">
<path d="M13.0218 5.80692L10.1923 2.97769C10.0726 2.858 9.91425 2.79297 9.74554 2.79297C9.57683 2.79297 9.41754 2.85894 9.29878 2.97769L6.92642 5.34983L2.9772 9.2987C2.73026 9.54562 2.73026 9.94616 2.9772 10.1921L5.80575 13.0214C5.92545 13.1411 6.08379 13.2061 6.25251 13.2061C6.42122 13.2061 6.58051 13.1401 6.69927 13.0214L10.2385 9.48153L13.0199 6.69942C13.2659 6.45344 13.2659 6.05196 13.0199 5.80504L13.0218 5.80692Z" fill="white"/>
<path d="M12.8233 6.00695L9.99382 3.17866C9.85715 3.04201 9.6366 3.04201 9.49993 3.17866L6.44141 6.23691L9.76384 9.55904L12.8224 6.5008C12.959 6.36414 12.959 6.14361 12.8224 6.00695H12.8233ZM10.335 6.825C10.1748 6.98521 9.9646 7.06438 9.75536 7.06438C9.54611 7.06438 9.33593 6.98427 9.1757 6.825C9.01641 6.66478 8.93535 6.45462 8.93535 6.24539C8.93535 6.03617 9.01547 5.82506 9.1757 5.66579C9.33593 5.50557 9.54517 5.42546 9.75536 5.42546C9.9646 5.42546 10.1748 5.50557 10.335 5.66579C10.4943 5.82506 10.5754 6.03523 10.5754 6.24539C10.5754 6.45462 10.4943 6.66478 10.335 6.825Z" fill="#E31937"/>
<path d="M3.1777 9.49871C3.04103 9.63537 3.04103 9.8559 3.1777 9.99255L6.00718 12.8218C6.07505 12.8896 6.16459 12.9236 6.25413 12.9236C6.34367 12.9236 6.43321 12.8896 6.50107 12.8218L9.55865 9.76448L6.23528 6.44141L3.1777 9.49871ZM5.62734 10.3139C5.46711 10.4732 5.25693 10.5533 5.04768 10.5533C4.8375 10.5533 4.62826 10.4732 4.46803 10.3139C4.30779 10.1537 4.22862 9.94449 4.22862 9.73527C4.22862 9.52604 4.30874 9.31588 4.46803 9.15472C4.62826 8.99544 4.8375 8.91534 5.04768 8.91534C5.25787 8.91534 5.46711 8.99544 5.62734 9.15472C5.78757 9.31493 5.86675 9.5251 5.86675 9.73432C5.86675 9.94355 5.78757 10.1537 5.62734 10.3139ZM6.87337 9.1877C7.0336 9.02749 7.24285 8.94738 7.45303 8.94738C7.66322 8.94738 7.87246 9.02749 8.03269 9.1877C8.19292 9.34792 8.27304 9.55714 8.27304 9.76731C8.27304 9.97748 8.19292 10.1867 8.03269 10.346C7.8734 10.5052 7.66322 10.5854 7.45303 10.5854C7.24379 10.5854 7.0336 10.5052 6.87337 10.346C6.71314 10.1858 6.63303 9.97559 6.63303 9.76731C6.63303 9.55903 6.71314 9.34792 6.87337 9.1877Z" fill="#0078AE"/>
</g>
</g>
</g>
</g>
<defs>
<filter id="filter0_d_3396_61858" x="-5.75" y="-4.75" width="27.5" height="27.5" filterUnits="userSpaceOnUse" color-interpolation-filters="sRGB">
<feFlood flood-opacity="0" result="BackgroundImageFix"/>
<feColorMatrix in="SourceAlpha" type="matrix" values="0 0 0 0 0 0 0 0 0 0 0 0 0 0 0 0 0 0 127 0" result="hardAlpha"/>
<feOffset dy="1"/>
<feGaussianBlur stdDeviation="3"/>
<feComposite in2="hardAlpha" operator="out"/>
<feColorMatrix type="matrix" values="0 0 0 0 0 0 0 0 0 0 0 0 0 0 0 0 0 0 0.08 0"/>
<feBlend mode="normal" in2="BackgroundImageFix" result="effect1_dropShadow_3396_61858"/>
<feBlend mode="normal" in="SourceGraphic" in2="effect1_dropShadow_3396_61858" result="shape"/>
</filter>
<clipPath id="clip0_3396_61858">
<rect width="16" height="16" fill="white"/>
</clipPath>
<clipPath id="clip1_3396_61858">
<path d="M0.25 8C0.25 3.71979 3.71979 0.25 8 0.25C12.2802 0.25 15.75 3.71979 15.75 8C15.75 12.2802 12.2802 15.75 8 15.75C3.71979 15.75 0.25 12.2802 0.25 8Z" fill="white"/>
</clipPath>
<clipPath id="clip2_3396_61858">
<rect width="10.4141" height="10.4141" fill="white" transform="translate(2.79297 2.79297)"/>
</clipPath>
</defs>
</svg>
