<svg width="24" height="24" viewBox="0 0 24 24" fill="none" xmlns="http://www.w3.org/2000/svg">
<g clip-path="url(#clip0_4552_64190)">
<g clip-path="url(#clip1_4552_64190)">
<circle cx="12" cy="12" r="12" fill="currentColor"/>
<path d="M14.7518 7.9941C14.7401 7.79512 14.7284 7.70148 14.6933 7.57273C14.4943 6.88217 13.8506 6.37888 13.1015 6.37888H9.8945V12.8632H11.5214V14.4667H8.26758V4.75195H13.1015C14.7401 4.75195 16.0862 5.94581 16.3202 7.51421C16.3437 7.66637 16.3554 7.81853 16.3554 7.9941H14.7518Z" fill="currentColor"/>
<path d="M16.367 9.60938V11.2129C16.367 13.0037 14.8572 14.4667 13.0664 14.4667H13.1366V12.8515H13.043C13.9559 12.8515 14.7401 12.1024 14.7401 11.1895V9.60938H16.367Z" fill="currentColor"/>
<path d="M6.36194 17.5635C6.36194 17.3856 6.22554 17.2848 6.04763 17.2848H5.73332V18.2455H6.04763C6.22258 18.2455 6.36194 18.1447 6.36194 17.9668V17.5635ZM5.41309 18.5391V16.9883H6.0506C6.45683 16.9883 6.68811 17.2196 6.68811 17.5606V17.9668C6.68811 18.3107 6.45683 18.5391 6.0506 18.5391H5.41309Z" fill="currentColor"/>
<path d="M7.99573 17.5391C7.99573 17.3582 7.85933 17.2604 7.68142 17.2604C7.50648 17.2604 7.36711 17.3612 7.36711 17.5391V17.9869C7.36711 18.1648 7.50351 18.2656 7.68142 18.2656C7.85637 18.2656 7.99573 18.1648 7.99573 17.9869V17.5391ZM7.68439 18.5591C7.27816 18.5591 7.04688 18.3278 7.04688 17.9869V17.5391C7.04688 17.1952 7.27816 16.9639 7.68439 16.9639C8.09061 16.9639 8.3219 17.1952 8.3219 17.5391V17.9869C8.31893 18.3308 8.08765 18.5591 7.68439 18.5591Z" fill="currentColor"/>
<path d="M9.55606 17.6693L9.28327 18.5381H8.93338L8.625 16.9873H8.9482L9.1439 18.037L9.45821 16.9873H9.65688L9.97119 18.037L10.1669 16.9873H10.4901L10.1787 18.5381H9.83182L9.55606 17.6693Z" fill="currentColor"/>
<path d="M12.056 16.9873H12.3792V18.0933C12.3792 18.4017 12.1924 18.5588 11.8781 18.5588C11.5638 18.5588 11.377 18.4017 11.377 18.0933H11.7031C11.712 18.203 11.7743 18.2623 11.8781 18.2623C12.0026 18.2623 12.056 18.1852 12.056 18.0844V16.9873Z" fill="currentColor"/>
<path d="M13.7223 17.5391C13.7223 17.3582 13.5859 17.2604 13.408 17.2604C13.2331 17.2604 13.0937 17.3612 13.0937 17.5391V17.9869C13.0937 18.1648 13.2301 18.2656 13.408 18.2656C13.583 18.2656 13.7223 18.1648 13.7223 17.9869V17.5391ZM13.408 18.5591C13.0018 18.5591 12.7705 18.3278 12.7705 17.9869V17.5391C12.7705 17.1952 13.0018 16.9639 13.408 16.9639C13.8142 16.9639 14.0455 17.1952 14.0455 17.5391V17.9869C14.0455 18.3308 13.8142 18.5591 13.408 18.5591Z" fill="currentColor"/>
<path d="M15.7115 18.5381H15.3883L14.7627 17.5388V18.5381H14.4395V16.9873H14.7627L15.3883 17.9866V16.9873H15.7115V18.5381Z" fill="currentColor"/>
<path d="M16.4619 17.607H17.0905V17.9035H16.4619V18.2445H17.1646V18.5381H16.1387V16.9873H17.1646V17.2838H16.4619V17.607Z" fill="currentColor"/>
<path d="M17.5059 18.0481H17.838C17.8557 18.1786 17.9684 18.2646 18.1285 18.2646C18.2709 18.2646 18.3687 18.2171 18.3687 18.1104C18.3687 18.0244 18.3124 17.974 18.1938 17.9473L17.9091 17.8761C17.6512 17.8109 17.5236 17.6448 17.5236 17.4165C17.5236 17.1052 17.7876 16.9658 18.0841 16.9658C18.4221 16.9658 18.6297 17.1467 18.6682 17.4106H18.3361C18.3065 17.3068 18.1878 17.2594 18.0811 17.2594C17.9447 17.2594 17.8498 17.3068 17.8498 17.4165C17.8498 17.5084 17.9269 17.547 18.0188 17.5707L18.2946 17.6389C18.5555 17.7041 18.6949 17.8494 18.6949 18.1104C18.6949 18.3891 18.4962 18.5611 18.1315 18.5611C17.7609 18.5581 17.5207 18.3565 17.5059 18.0481Z" fill="currentColor"/>
</g>
</g>
<defs>
<clipPath id="clip0_4552_64190">
<rect width="24" height="24" fill="currentColor"/>
</clipPath>
<clipPath id="clip1_4552_64190">
<rect width="24" height="24" fill="currentColor"/>
</clipPath>
</defs>
</svg>
