<svg width="24" height="24" viewBox="0 0 24 24" fill="none" xmlns="http://www.w3.org/2000/svg">
<g clip-path="url(#clip0_3396_48855)">
<g clip-path="url(#clip1_3396_48855)">
<circle cx="12" cy="12" r="11.625" fill="currentColor"/>
<path fill-rule="evenodd" clip-rule="evenodd" d="M1.54318 14.5483L22.5084 14.625L22.4654 9.077L1.5 9L1.54318 14.5483Z" fill="currentColor"/>
<path fill-rule="evenodd" clip-rule="evenodd" d="M13.2943 11.0442C13.3185 11.0442 13.3423 11.0447 13.365 11.0451C13.3882 11.0458 13.4117 11.0472 13.4356 11.0485C13.5817 11.0571 13.7164 11.0907 13.8391 11.1482C13.9615 11.2061 14.023 11.3168 14.023 11.4807C14.023 11.6752 13.9423 11.8289 13.7807 11.9422C13.619 12.0555 13.4409 12.1324 13.247 12.1736C13.1896 12.1852 13.1328 12.1939 13.0761 12.1999C13.0197 12.2055 12.9651 12.2088 12.9124 12.2088H12.8838C12.8598 12.2088 12.8322 12.2076 12.8004 12.2052C12.7687 12.2031 12.7201 12.1991 12.6549 12.1932L12.5544 12.3377C12.57 12.3425 12.5816 12.3481 12.589 12.3555C12.5961 12.3629 12.5997 12.3715 12.5997 12.3816C12.5997 12.3905 12.5915 12.4077 12.5747 12.4334C12.5581 12.4589 12.5376 12.4862 12.5139 12.5155C12.5041 12.5287 12.4939 12.5411 12.4827 12.5528C12.4715 12.5646 12.4603 12.5766 12.4489 12.5879C12.4286 12.6071 12.4087 12.6224 12.3896 12.635C12.3703 12.6478 12.354 12.6537 12.3396 12.6537C12.314 12.6537 12.2942 12.6466 12.2796 12.633C12.2652 12.6187 12.2586 12.5997 12.2586 12.5748C12.2586 12.5512 12.266 12.5217 12.282 12.4859C12.298 12.4503 12.3179 12.4132 12.3418 12.3752C12.348 12.3637 12.3551 12.3524 12.3621 12.3426L12.3826 12.3117C12.4031 12.2809 12.4228 12.2524 12.4412 12.226C12.4593 12.1999 12.4747 12.1773 12.4876 12.158C12.4687 12.1465 12.4525 12.1355 12.4397 12.1251C12.4271 12.1153 12.4166 12.1055 12.4086 12.0966C12.4007 12.085 12.3948 12.073 12.3908 12.0619C12.387 12.05 12.3848 12.0361 12.3848 12.0199C12.3848 11.9938 12.3933 11.9702 12.4097 11.95C12.4267 11.9292 12.4565 11.91 12.4994 11.8907C12.5281 11.8773 12.5641 11.8643 12.6071 11.8512C12.6498 11.8378 12.7017 11.8233 12.7623 11.8071L13.1394 11.3513C13.0311 11.3616 12.923 11.3743 12.8146 11.3896C12.7066 11.4049 12.6004 11.4279 12.4971 11.4585C12.4525 11.4733 12.4204 11.4829 12.4003 11.4873C12.3807 11.4914 12.3627 11.4942 12.3465 11.4959H12.3302C12.3188 11.4959 12.31 11.4941 12.3038 11.4905C12.2976 11.4868 12.2942 11.4819 12.2942 11.4763C12.2942 11.4629 12.3011 11.4441 12.3158 11.419C12.3302 11.3945 12.3465 11.3683 12.3655 11.3404L12.3789 11.3237C12.3829 11.3187 12.3863 11.3131 12.3897 11.3074C12.412 11.2783 12.4324 11.2521 12.4516 11.2298C12.4707 11.2068 12.482 11.1939 12.4851 11.1914C12.5281 11.1574 12.6145 11.1273 12.744 11.1002C12.874 11.073 13.012 11.0559 13.1584 11.0485C13.1825 11.0472 13.2053 11.0458 13.2279 11.0451C13.2501 11.0447 13.2724 11.0442 13.2943 11.0442ZM15.9045 11.4585C15.9318 11.4585 15.9515 11.4622 15.9639 11.4697C15.977 11.4769 15.9832 11.488 15.9832 11.5024C15.9832 11.5113 15.9791 11.5221 15.9702 11.5355C15.9613 11.5484 15.9522 11.5623 15.9427 11.577C15.9395 11.5786 15.9372 11.5803 15.9358 11.5824C15.9341 11.5846 15.9322 11.5867 15.931 11.588L15.9082 11.6166C15.901 11.6255 15.8951 11.6332 15.8904 11.6407C15.9076 11.6407 15.9227 11.6411 15.9343 11.6417C15.9464 11.6421 15.9579 11.6435 15.9688 11.645C15.9785 11.6467 15.9881 11.6479 15.9979 11.6493C16.0076 11.6508 16.0193 11.6524 16.0335 11.6537L15.9834 11.7327L15.9534 11.7843C15.9448 11.7999 15.9364 11.8134 15.9285 11.8248C15.9045 11.86 15.8751 11.8835 15.8389 11.896C15.8033 11.9086 15.739 11.9147 15.6467 11.9147C15.5767 11.9993 15.522 12.0775 15.4832 12.1482C15.4439 12.2192 15.4245 12.2758 15.4245 12.3183C15.4245 12.3505 15.4307 12.3744 15.4426 12.3905C15.4547 12.4067 15.4733 12.4149 15.4988 12.4149C15.5223 12.4149 15.5522 12.4076 15.5884 12.3929C15.624 12.3781 15.6602 12.3604 15.6967 12.3401C15.708 12.3343 15.7196 12.3284 15.7315 12.3215C15.7432 12.315 15.755 12.3089 15.766 12.303C15.7945 12.2838 15.8224 12.2659 15.8484 12.2491C15.8751 12.2322 15.8966 12.2186 15.9138 12.2086C15.9126 12.2157 15.9116 12.2235 15.9105 12.2316C15.9096 12.2398 15.9095 12.2473 15.9095 12.2545V12.3006C15.8858 12.3196 15.8583 12.3401 15.8279 12.3617C15.7976 12.384 15.766 12.4067 15.7326 12.43C15.7043 12.4505 15.6736 12.4706 15.6417 12.4904C15.6099 12.5103 15.5792 12.5281 15.549 12.5444C15.5074 12.5644 15.4671 12.5815 15.428 12.5945C15.389 12.6076 15.3512 12.6141 15.3147 12.6141C15.2699 12.6141 15.2349 12.6015 15.2082 12.5757C15.1823 12.5503 15.169 12.5149 15.169 12.4698C15.169 12.4359 15.1779 12.395 15.1955 12.3466C15.2129 12.2984 15.2377 12.2465 15.2694 12.1908C15.2469 12.2086 15.2288 12.2227 15.2145 12.2327C15.2 12.243 15.1868 12.2524 15.174 12.2611C15.174 12.2611 15.1734 12.2611 15.1728 12.2622L15.169 12.2655C15.161 12.2699 15.1528 12.2751 15.1442 12.2821C15.1357 12.288 15.1255 12.2945 15.1139 12.3017C15.1139 12.3022 15.1139 12.3025 15.1139 12.3017C15.1129 12.3021 15.1125 12.3025 15.1117 12.3031C15.09 12.3196 15.0642 12.3398 15.034 12.3632C15.0031 12.3874 14.9702 12.4125 14.935 12.4389C14.9191 12.4521 14.9022 12.4644 14.885 12.476C14.8673 12.4879 14.8498 12.4993 14.8325 12.5113C14.7909 12.5374 14.7503 12.5597 14.7108 12.5781C14.6708 12.5963 14.6349 12.6052 14.6032 12.6052C14.5795 12.6052 14.5583 12.5966 14.5409 12.5793C14.5237 12.5614 14.5113 12.5433 14.5053 12.5244C14.5053 12.5199 14.5047 12.5159 14.5043 12.5122C14.5032 12.5086 14.5028 12.5048 14.5028 12.5C14.5028 12.4698 14.5096 12.4355 14.5233 12.3984C14.5368 12.3611 14.5599 12.3103 14.5935 12.2459C14.5743 12.2589 14.5484 12.2791 14.5148 12.306C14.4813 12.3333 14.4448 12.3617 14.405 12.3929C14.3954 12.3988 14.3863 12.4051 14.3771 12.4116L14.3522 12.4301C14.3061 12.4637 14.2617 12.4925 14.2187 12.5165C14.1758 12.541 14.1426 12.5528 14.1187 12.5528C14.0834 12.5528 14.0519 12.5382 14.0243 12.5089C13.9964 12.4798 13.9734 12.4468 13.9562 12.4104C13.9448 12.3914 13.936 12.3718 13.9298 12.3522C13.9236 12.3325 13.9185 12.316 13.9156 12.303V12.2545C13.9156 12.2473 13.9156 12.2396 13.9167 12.2316C13.9175 12.2235 13.9185 12.2157 13.92 12.2086C13.9236 12.1968 13.9285 12.1847 13.9359 12.1726C13.943 12.16 13.9513 12.1479 13.961 12.1359C14.004 12.0821 14.0663 12.0298 14.1482 11.9792C14.2304 11.9289 14.3166 11.8849 14.4074 11.8468C14.482 11.816 14.555 11.7911 14.6257 11.7721C14.6966 11.753 14.7559 11.7438 14.8037 11.7438C14.8353 11.7438 14.8626 11.7503 14.885 11.7637C14.907 11.7769 14.9264 11.7957 14.9424 11.8205C14.9454 11.8261 14.9479 11.8309 14.9495 11.8347C14.9512 11.8383 14.9516 11.8416 14.9516 11.8448C14.9516 11.8562 14.947 11.8656 14.9374 11.8721C14.9282 11.8784 14.9176 11.884 14.9062 11.8881C14.8982 11.8913 14.8912 11.8941 14.885 11.8962C14.8786 11.8982 14.8731 11.9002 14.8682 11.9014C14.8935 11.9117 14.9111 11.923 14.9206 11.9355C14.9304 11.9479 14.935 11.9644 14.935 11.9849C14.935 12.0068 14.9242 12.0309 14.9016 12.057C14.8794 12.0837 14.8556 12.1104 14.83 12.1383C14.8188 12.1502 14.8083 12.1617 14.7978 12.1736C14.7872 12.1852 14.7774 12.1968 14.7678 12.2086C14.7552 12.2276 14.7445 12.2459 14.7354 12.2635C14.727 12.2807 14.7224 12.2978 14.7224 12.314C14.7224 12.333 14.7301 12.3482 14.7451 12.36C14.7602 12.3715 14.7792 12.3773 14.8013 12.3773H14.812C14.8159 12.3773 14.8197 12.3767 14.823 12.3754C14.8482 12.3735 14.8794 12.3617 14.916 12.3401C14.9527 12.3183 15.0197 12.2744 15.1166 12.2086C15.1644 12.1748 15.2033 12.1463 15.2334 12.1242C15.2638 12.1014 15.2901 12.0797 15.3122 12.0594C15.3221 12.0519 15.3309 12.0442 15.3386 12.0353C15.3467 12.0263 15.3543 12.0187 15.3626 12.0113C15.3754 11.9966 15.3884 11.9804 15.4019 11.9638C15.4153 11.947 15.4301 11.9281 15.4458 11.906C15.4301 11.9045 15.4168 11.9037 15.4053 11.9037H15.3764C15.3579 11.9037 15.3366 11.9049 15.3133 11.907C15.2903 11.9091 15.259 11.9141 15.2191 11.9212C15.2432 11.8862 15.2642 11.8554 15.2825 11.8292C15.301 11.803 15.3178 11.78 15.3337 11.7613C15.3674 11.7233 15.4053 11.6963 15.4485 11.6812C15.4912 11.6662 15.5576 11.6559 15.6467 11.6515C15.6818 11.6049 15.7108 11.5681 15.7337 11.5417C15.7568 11.5157 15.7797 11.496 15.8016 11.4828C15.8162 11.4739 15.8318 11.468 15.8484 11.4641C15.8653 11.4607 15.8837 11.4585 15.9045 11.4585ZM18.4141 11.0421C18.4506 11.0421 18.4807 11.0545 18.5037 11.0792C18.5269 11.1042 18.5385 11.1356 18.5385 11.1737C18.5385 11.2074 18.531 11.2435 18.5168 11.2821C18.5026 11.3209 18.4842 11.3592 18.4619 11.3972C18.4491 11.419 18.4355 11.4411 18.4214 11.4631L18.3782 11.5285C18.3575 11.5595 18.3373 11.5889 18.3174 11.6166C18.2975 11.6442 18.2796 11.6705 18.2638 11.6956C18.2764 11.697 18.2861 11.7003 18.2935 11.7054C18.3008 11.7104 18.3045 11.7166 18.3045 11.724C18.3045 11.731 18.2931 11.7463 18.2708 11.769C18.2485 11.7916 18.2215 11.8153 18.1898 11.8402C18.1785 11.849 18.1669 11.8576 18.1548 11.8665L18.137 11.8797L18.1181 11.8929C18.0895 11.9117 18.061 11.9284 18.033 11.9423C18.0052 11.9562 17.983 11.9631 17.9653 11.9631C17.9494 11.9631 17.9364 11.9574 17.927 11.9466C17.9172 11.9356 17.9126 11.9205 17.9126 11.9014C17.9126 11.8739 17.9172 11.8442 17.927 11.8126C17.9364 11.7815 17.9499 11.7503 17.9675 11.7192C17.9865 11.6816 18.0098 11.6442 18.037 11.6079C18.0637 11.5714 18.0907 11.5367 18.1181 11.5048C18.1386 11.4813 18.1585 11.4595 18.1778 11.4389C18.1966 11.4186 18.2149 11.4 18.2327 11.3841C18.2359 11.3812 18.2382 11.3788 18.2399 11.3766L18.2447 11.3687C18.2463 11.3672 18.2472 11.365 18.2483 11.3619C18.249 11.3592 18.2493 11.3568 18.2493 11.3558C18.2493 11.3525 18.2483 11.3502 18.2457 11.3478C18.2435 11.3456 18.2407 11.3448 18.2376 11.3448C18.2309 11.3448 18.2235 11.3472 18.2149 11.3522C18.2058 11.3576 18.1953 11.366 18.1824 11.3775C18.165 11.3923 18.1475 11.4071 18.1302 11.4226C18.1123 11.4378 18.0944 11.4534 18.075 11.4697C18.0448 11.4972 18.0152 11.5257 17.9856 11.5551C17.956 11.5844 17.9279 11.6135 17.9008 11.6427L17.607 11.9545L17.3539 12.2132C17.4429 12.2157 17.5287 12.2242 17.6106 12.237C17.6926 12.2503 17.7741 12.2656 17.8554 12.2833C17.8824 12.2889 17.9086 12.2951 17.9343 12.3008C17.9598 12.3067 17.9856 12.3122 18.0129 12.3184C18.0606 12.33 18.1094 12.3416 18.1585 12.3525C18.208 12.3634 18.258 12.3733 18.3091 12.3818L18.2672 12.4214C18.2524 12.4362 18.2376 12.4512 18.2232 12.4675C18.185 12.5024 18.1445 12.5352 18.1014 12.5652C18.0585 12.5948 18.0113 12.61 17.9604 12.61C17.9346 12.61 17.8984 12.6063 17.8505 12.5981C17.803 12.5899 17.7129 12.5741 17.5806 12.5506C17.5554 12.5465 17.5294 12.5417 17.503 12.5364C17.4769 12.5313 17.4511 12.5275 17.4258 12.5245C17.3474 12.5114 17.2698 12.5011 17.1914 12.4939C17.1137 12.4864 17.0356 12.4828 16.9576 12.4828C16.9494 12.4858 16.9416 12.4892 16.9338 12.4939C16.9255 12.4982 16.9177 12.5024 16.9098 12.507C16.8813 12.5201 16.8516 12.5322 16.8215 12.5432C16.7914 12.5542 16.76 12.5594 16.7284 12.5594C16.6981 12.5594 16.6764 12.5566 16.6638 12.5506C16.6515 12.5451 16.6445 12.5343 16.6445 12.5201C16.6445 12.5162 16.6482 12.5092 16.6497 12.5039C16.6456 12.5063 16.6404 12.5094 16.6364 12.5114C16.5577 12.5522 16.4957 12.5729 16.4515 12.5729C16.4227 12.5729 16.3985 12.5622 16.3783 12.5411C16.3585 12.5198 16.3485 12.4944 16.3485 12.4652C16.3485 12.445 16.3515 12.4236 16.358 12.4018C16.3645 12.3798 16.3743 12.3577 16.3871 12.3361C16.4012 12.3083 16.4183 12.2804 16.4384 12.2525C16.458 12.2249 16.4783 12.1976 16.4993 12.1714C16.5165 12.1496 16.534 12.1285 16.5513 12.1091C16.569 12.0893 16.585 12.0705 16.5994 12.0531C16.5024 12.1159 16.4092 12.1841 16.3199 12.2571C16.2306 12.3298 16.1466 12.4079 16.0669 12.4892C16.0524 12.504 16.039 12.5153 16.0264 12.5232C16.0134 12.5313 16.0025 12.5355 15.9929 12.5355C15.9625 12.5355 15.9417 12.5183 15.9297 12.4841C15.9178 12.4499 15.9108 12.3893 15.9095 12.3031C15.9095 12.1978 15.9377 12.1014 15.9951 12.0135C16.0524 11.926 16.1154 11.8417 16.184 11.7613C16.1938 11.7511 16.2024 11.7405 16.2113 11.7295L16.2246 11.7132L16.2386 11.6978C16.2706 11.6595 16.3037 11.6226 16.338 11.5859C16.3721 11.5493 16.4067 11.5144 16.4418 11.4809C16.5374 11.3844 16.6285 11.3034 16.7153 11.2384C16.8019 11.1732 16.8628 11.1408 16.8979 11.1408C16.9024 11.1408 16.9071 11.1411 16.912 11.1418C16.9169 11.1424 16.9217 11.1436 16.9261 11.1451C16.9407 11.1496 16.9543 11.1565 16.9672 11.166C16.9797 11.1757 16.9862 11.1874 16.9862 11.2025C16.9862 11.2402 16.9466 11.3064 16.8668 11.4008C16.7873 11.4951 16.695 11.595 16.5901 11.7C16.577 11.7131 16.564 11.7263 16.5503 11.7393C16.537 11.7527 16.5237 11.7657 16.5111 11.7789C16.4202 11.8695 16.3337 11.9534 16.2506 12.03L16.0718 12.1956L16.0694 12.2787C16.0976 12.26 16.1355 12.2321 16.1818 12.1956C16.2278 12.1591 16.2779 12.1209 16.3321 12.0818C16.3464 12.0712 16.3602 12.061 16.3736 12.0508C16.387 12.0407 16.4012 12.0304 16.4154 12.02C16.481 11.9746 16.5438 11.935 16.6043 11.9014C16.6647 11.8683 16.7132 11.8512 16.7497 11.8512C16.7531 11.8512 16.7565 11.8516 16.7607 11.8527C16.7644 11.8528 16.7678 11.8534 16.7714 11.8534C16.795 11.8595 16.8169 11.8717 16.8356 11.8907C16.8549 11.91 16.8644 11.9301 16.8644 11.9521C16.8644 11.9769 16.8515 12.0043 16.8251 12.0341C16.7988 12.0644 16.7689 12.0948 16.7352 12.1254C16.7352 12.1254 16.7347 12.1257 16.7343 12.1266C16.7337 12.1273 16.7328 12.1275 16.7328 12.1275C16.6996 12.1598 16.6692 12.1908 16.6413 12.2206C16.6132 12.2509 16.5994 12.2782 16.5994 12.3031C16.5994 12.3205 16.6039 12.3334 16.6126 12.3416C16.6212 12.3496 16.6352 12.3534 16.6542 12.3534C16.6877 12.3534 16.7269 12.343 16.7726 12.3217L16.783 12.3163C16.7959 12.3017 16.807 12.2882 16.8215 12.2723C16.8341 12.2576 16.8582 12.2466 16.8933 12.2382C16.9054 12.2356 16.9181 12.2341 16.9303 12.2319L16.9674 12.2088C16.9674 12.214 16.9668 12.2199 16.9663 12.2257C16.9778 12.2239 16.9887 12.2212 17.0005 12.2198C17.0276 12.2168 17.0536 12.215 17.0781 12.2141C17.1028 12.2134 17.1238 12.2122 17.1414 12.2109C17.1479 12.2109 17.1533 12.2107 17.1577 12.2098C17.1626 12.2091 17.1669 12.2088 17.1702 12.2088C17.2275 12.1487 17.2855 12.0849 17.3445 12.0168C17.4031 11.9485 17.4637 11.8806 17.526 11.8119C17.5785 11.7533 17.6316 11.6948 17.6856 11.6362C17.7401 11.5779 17.7939 11.5215 17.8481 11.4675C17.885 11.431 17.9209 11.3962 17.9564 11.3622C17.9926 11.3291 18.0288 11.2964 18.0656 11.266C18.1659 11.184 18.2422 11.1266 18.2947 11.0924C18.3472 11.0591 18.3873 11.0423 18.4141 11.0423V11.0421ZM9.63879 11.0421C9.67559 11.0421 9.70541 11.0545 9.72841 11.0792C9.7514 11.1042 9.76298 11.1356 9.76298 11.1737C9.76298 11.2074 9.75585 11.2435 9.74146 11.2821C9.72722 11.3209 9.70882 11.3592 9.68657 11.3972C9.67381 11.419 9.66045 11.4411 9.64606 11.4631C9.63182 11.485 9.61743 11.507 9.60303 11.5285C9.58241 11.5595 9.56223 11.5889 9.5422 11.6166C9.52232 11.6442 9.50452 11.6705 9.48864 11.6956C9.5011 11.697 9.51119 11.7003 9.51846 11.7054C9.52544 11.7104 9.529 11.7166 9.529 11.724C9.529 11.731 9.51802 11.7463 9.49576 11.769C9.47321 11.7916 9.4465 11.8153 9.41445 11.8402C9.40333 11.849 9.39161 11.8576 9.37974 11.8665C9.36787 11.8754 9.35555 11.884 9.34279 11.8929C9.31416 11.9117 9.28582 11.9284 9.25822 11.9423C9.23018 11.9562 9.20748 11.9631 9.19012 11.9631C9.17395 11.9631 9.16134 11.9574 9.15184 11.9466C9.14234 11.9356 9.1376 11.9205 9.1376 11.9014C9.1376 11.8739 9.14234 11.8442 9.15184 11.8126C9.16134 11.7815 9.17484 11.7503 9.19235 11.7192C9.21148 11.6816 9.23448 11.6442 9.26163 11.6079C9.28893 11.5714 9.31594 11.5367 9.34279 11.5048C9.36356 11.4813 9.38359 11.4595 9.40273 11.4389C9.42143 11.4186 9.43983 11.4 9.45733 11.3841C9.46075 11.3812 9.46312 11.3788 9.46475 11.3766L9.4695 11.3687C9.47098 11.3672 9.47217 11.365 9.47321 11.3619C9.47365 11.3592 9.4741 11.3568 9.4741 11.3558C9.4741 11.3525 9.47321 11.3502 9.47054 11.3478C9.46816 11.3456 9.46535 11.3448 9.46208 11.3448C9.45585 11.3448 9.44828 11.3472 9.43938 11.3522C9.43078 11.3576 9.42009 11.366 9.40748 11.3775C9.38968 11.3923 9.37217 11.4071 9.35481 11.4226L9.29991 11.4697C9.26965 11.4972 9.23982 11.5257 9.21 11.5551C9.18092 11.5844 9.15273 11.6135 9.12543 11.6427L8.83195 11.9543L8.57869 12.2131C8.66771 12.2156 8.75332 12.2241 8.83566 12.2368C8.91727 12.2502 8.99887 12.2655 9.08003 12.2831C9.10703 12.2887 9.13344 12.295 9.15881 12.3006C9.18448 12.3065 9.21074 12.312 9.23789 12.3183C9.28552 12.3298 9.33434 12.3414 9.38359 12.3524C9.4327 12.3632 9.483 12.3732 9.53389 12.3816C9.52143 12.3935 9.50719 12.4067 9.49205 12.4212C9.47707 12.4361 9.46208 12.4511 9.44799 12.4674C9.40956 12.5022 9.36905 12.535 9.32632 12.565C9.2833 12.5947 9.23582 12.6098 9.18537 12.6098C9.15985 12.6098 9.12306 12.6061 9.07558 12.5979C9.02736 12.5898 8.93759 12.5739 8.80554 12.5505C8.78017 12.5463 8.75421 12.5416 8.72795 12.5362C8.70183 12.5312 8.67602 12.5273 8.65035 12.5244C8.57216 12.5113 8.49441 12.5009 8.41593 12.4938C8.33833 12.4862 8.26043 12.4827 8.18195 12.4827C8.17438 12.4856 8.16622 12.489 8.1585 12.4938C8.15064 12.4981 8.14233 12.5022 8.13476 12.5068C8.10598 12.5199 8.07646 12.5321 8.04619 12.5431C8.01592 12.554 7.98476 12.5592 7.95316 12.5592C7.92289 12.5592 7.90123 12.5564 7.88877 12.5505C7.87586 12.545 7.86948 12.5341 7.86948 12.5199C7.86948 12.5022 7.88461 12.4724 7.91488 12.4301C7.9453 12.3877 7.98907 12.3352 8.04619 12.2721C8.0591 12.2574 8.08313 12.2465 8.11785 12.238C8.15287 12.2301 8.18862 12.2241 8.22542 12.2196C8.25242 12.2166 8.27824 12.2149 8.30272 12.214C8.32765 12.2132 8.34857 12.212 8.36652 12.2107C8.3726 12.2107 8.37809 12.2106 8.38299 12.2097C8.38759 12.2089 8.39144 12.2086 8.39486 12.2086C8.45228 12.1485 8.51014 12.0847 8.56919 12.0166C8.62795 11.9484 8.68878 11.8804 8.75065 11.8117C8.80317 11.7531 8.85644 11.6947 8.91059 11.6361C8.9646 11.5778 9.0189 11.5214 9.07291 11.4674C9.10955 11.4309 9.14561 11.396 9.18166 11.362C9.21757 11.3289 9.25362 11.2963 9.29027 11.2659C9.39042 11.1838 9.46713 11.1264 9.51965 11.0923C9.57202 11.0589 9.61179 11.0421 9.63879 11.0421ZM11.6542 11.2045C11.6686 11.2045 11.6805 11.2105 11.6909 11.2229C11.7016 11.2355 11.7068 11.251 11.7068 11.27V11.2733C11.7068 11.2742 11.706 11.2748 11.7044 11.2748C11.7028 11.2905 11.701 11.307 11.6985 11.3237C11.6961 11.3405 11.6933 11.3576 11.6899 11.3755C11.6836 11.4031 11.6761 11.431 11.6673 11.4586C11.6587 11.4865 11.6485 11.5135 11.6376 11.5398C11.6025 11.6171 11.5531 11.6914 11.4896 11.7622C11.4256 11.8332 11.3587 11.9014 11.2887 11.9674C11.2587 11.9966 11.228 12.0246 11.1973 12.0519C11.1657 12.0789 11.1363 12.1054 11.1075 12.1316C11.1044 12.1551 11.1016 12.1757 11.0988 12.1932C11.0967 12.2107 11.0953 12.2258 11.0953 12.2392C11.0953 12.2876 11.1068 12.3232 11.1289 12.3456C11.1513 12.3683 11.1848 12.3797 11.2292 12.3797C11.2753 12.3797 11.3265 12.3669 11.3832 12.3414C11.4399 12.3157 11.514 12.2715 11.6065 12.2086C11.6048 12.2248 11.604 12.2377 11.6031 12.2481C11.6019 12.2582 11.6017 12.2671 11.6017 12.2744V12.2864C11.6017 12.2911 11.6026 12.2968 11.604 12.3033C11.5829 12.3192 11.5593 12.3365 11.5324 12.3555C11.5056 12.3745 11.4765 12.3944 11.4461 12.4149C11.4243 12.4278 11.402 12.4416 11.3795 12.4554C11.3574 12.4689 11.335 12.4828 11.3127 12.4957C11.2729 12.5162 11.2341 12.5333 11.1959 12.5463C11.1571 12.5592 11.1228 12.5659 11.0903 12.5659C11.0223 12.5659 10.9713 12.5453 10.9379 12.5048C10.9044 12.4638 10.8839 12.3972 10.8759 12.3052L10.876 12.3024L10.7982 12.3632C10.7671 12.3876 10.7344 12.4125 10.6992 12.4389C10.683 12.452 10.6664 12.4646 10.649 12.476C10.6312 12.4879 10.6139 12.4994 10.5965 12.5113C10.555 12.5373 10.5143 12.5598 10.4749 12.5782C10.4349 12.5963 10.399 12.6054 10.3673 12.6054C10.3434 12.6054 10.3228 12.5966 10.305 12.5793C10.2878 12.5614 10.2757 12.5432 10.2692 12.5244C10.2692 12.5199 10.2689 12.516 10.2682 12.5122C10.2671 12.5086 10.267 12.5048 10.267 12.5002C10.267 12.4698 10.2737 12.4356 10.2872 12.3982C10.3005 12.3611 10.3243 12.3103 10.3576 12.246L10.3453 12.2546C10.332 12.2641 10.3161 12.2761 10.2978 12.2907L10.2787 12.306C10.2455 12.3333 10.2087 12.3617 10.1689 12.3929C10.1597 12.3988 10.1505 12.4051 10.1418 12.4114C10.1329 12.4178 10.1246 12.4241 10.1165 12.4301C10.0704 12.4638 10.0257 12.4925 9.98301 12.5165C9.93954 12.541 9.9066 12.5528 9.88241 12.5528C9.84755 12.5528 9.81594 12.5383 9.7882 12.5089C9.7603 12.4798 9.73775 12.4468 9.71995 12.4104C9.70897 12.3916 9.70022 12.3718 9.69369 12.3522C9.68746 12.3325 9.68271 12.316 9.67944 12.3031V12.2546C9.67944 12.2473 9.68004 12.2398 9.68093 12.2316C9.68152 12.2235 9.68271 12.2157 9.68434 12.2086C9.68746 12.1968 9.6922 12.1846 9.69962 12.1726C9.70704 12.1598 9.71535 12.1479 9.72484 12.1361C9.76787 12.0821 9.83019 12.0298 9.91224 11.9792C9.99428 11.9289 10.0806 11.8849 10.1713 11.8468C10.2461 11.816 10.3189 11.7911 10.39 11.7721C10.4606 11.7531 10.52 11.7436 10.5679 11.7436C10.5995 11.7436 10.6266 11.7503 10.649 11.7635C10.6713 11.7769 10.6903 11.7957 10.7062 11.8206C10.7094 11.8261 10.7118 11.831 10.7134 11.8346C10.7149 11.8383 10.7158 11.8416 10.7158 11.8448C10.7158 11.8564 10.7108 11.8656 10.7016 11.8721C10.6918 11.8784 10.6815 11.884 10.6704 11.8881C10.6625 11.8911 10.6554 11.8939 10.649 11.896C10.6424 11.8982 10.6372 11.9003 10.6323 11.9014C10.6576 11.9117 10.675 11.923 10.6848 11.9355C10.6943 11.9479 10.6992 11.9644 10.6992 11.9849C10.6992 12.0067 10.6878 12.0309 10.6658 12.057C10.6436 12.0837 10.6192 12.1104 10.594 12.1384C10.5829 12.15 10.572 12.1617 10.5618 12.1736C10.5514 12.1852 10.5415 12.1968 10.5318 12.2086C10.5192 12.2278 10.5085 12.246 10.4996 12.2635C10.4907 12.2809 10.4866 12.2976 10.4866 12.314C10.4866 12.3328 10.4937 12.3481 10.5093 12.36C10.5244 12.3715 10.5431 12.3773 10.5652 12.3773H10.5759C10.5803 12.3773 10.5836 12.3769 10.5867 12.3752C10.6122 12.3736 10.6436 12.3619 10.6802 12.3401C10.7165 12.3181 10.7835 12.2744 10.8805 12.2086C10.8789 12.2232 10.8775 12.2349 10.8769 12.2435C10.8762 12.2524 10.8759 12.2604 10.8759 12.2678V12.2855C10.8759 12.2868 10.8763 12.2895 10.8766 12.2911V12.2907L10.8786 12.2462C10.8845 12.1567 10.9044 12.0706 10.9385 11.9877L10.9568 11.9466C11.0112 11.8332 11.0772 11.7269 11.1551 11.6273C11.1726 11.6042 11.1967 11.5763 11.2268 11.5442C11.2572 11.512 11.2901 11.4783 11.3271 11.4433C11.3379 11.4315 11.3499 11.4202 11.3627 11.4082C11.3756 11.3969 11.3882 11.3856 11.4008 11.3755C11.4535 11.3288 11.5031 11.2883 11.5492 11.2548C11.5955 11.2211 11.6304 11.2045 11.6542 11.2045ZM20.6465 11.0815C20.6673 11.0815 20.6846 11.0887 20.6981 11.1034C20.7115 11.118 20.7185 11.1369 20.7185 11.1607C20.7185 11.1648 20.7179 11.1696 20.717 11.1748C20.7164 11.1798 20.7151 11.185 20.7136 11.1914C20.7121 11.1939 20.7113 11.1966 20.7113 11.1988L20.7106 11.2024L20.7088 11.2064C20.6993 11.2313 20.688 11.2564 20.6753 11.2821C20.6625 11.3076 20.6483 11.3328 20.6324 11.3577C20.5783 11.4411 20.5113 11.5246 20.4318 11.6079C20.3521 11.691 20.2701 11.7715 20.1858 11.8488C20.1238 11.9046 20.0634 11.9577 20.0042 12.0091C19.9456 12.0601 19.8914 12.1085 19.842 12.1537C19.8389 12.1656 19.8366 12.1757 19.8346 12.1844C19.8328 12.193 19.8317 12.2014 19.83 12.2086V12.2284C19.83 12.2738 19.8398 12.3094 19.8587 12.3359C19.8779 12.3617 19.9039 12.3752 19.9374 12.3752C19.9456 12.3752 19.9538 12.3744 19.9627 12.372C19.9713 12.3696 19.9799 12.3671 19.9876 12.3641C20.0084 12.3554 20.0281 12.3425 20.0471 12.3245C20.0664 12.3073 20.0842 12.2867 20.0996 12.2637C20.0903 12.2517 20.083 12.2419 20.0785 12.2338C20.0738 12.2257 20.0702 12.2175 20.0688 12.2086C20.0673 12.2054 20.0664 12.203 20.0664 12.2009V12.193C20.0664 12.1757 20.069 12.1574 20.075 12.1383C20.0805 12.1193 20.0889 12.1006 20.0996 12.0816C20.1223 12.0359 20.1547 11.9932 20.1968 11.9533C20.2388 11.9132 20.2828 11.884 20.3291 11.8665C20.3418 11.862 20.3544 11.8583 20.3662 11.8555C20.3781 11.8527 20.3904 11.8511 20.403 11.8511C20.4238 11.8511 20.4401 11.8582 20.452 11.8721C20.4639 11.8861 20.4698 11.9051 20.4698 11.93C20.4698 11.9724 20.4554 12.0238 20.4257 12.0837C20.3964 12.1435 20.3521 12.2117 20.2935 12.2876C20.298 12.2905 20.302 12.2935 20.3053 12.2965C20.3087 12.2993 20.3122 12.3012 20.3171 12.303C20.3222 12.306 20.3272 12.3074 20.3329 12.3082C20.3382 12.3089 20.3452 12.3094 20.3529 12.3094H20.3673C20.3944 12.3082 20.4242 12.3 20.457 12.2855C20.4897 12.2706 20.5352 12.245 20.5938 12.2086C20.5938 12.2157 20.5935 12.2235 20.5929 12.2316C20.5922 12.2398 20.5918 12.2473 20.5918 12.2546L20.5921 12.2453L20.5929 12.2338C20.5932 12.2298 20.5938 12.2257 20.5944 12.2215L20.5968 12.2086C20.6794 12.1514 20.76 12.0929 20.8376 12.0333C20.9156 11.9732 20.9903 11.9098 21.0621 11.8423C21.0794 11.7781 21.0992 11.7344 21.1207 11.7119C21.1422 11.6895 21.1743 11.6781 21.2171 11.6781C21.2459 11.6781 21.2657 11.6835 21.2759 11.6944C21.2864 11.7054 21.2931 11.7261 21.2964 11.7568C21.2964 11.7732 21.2983 11.7895 21.3023 11.8061C21.306 11.8229 21.3108 11.8396 21.3154 11.8555C21.3168 11.86 21.3182 11.8641 21.3189 11.8674C21.3197 11.8711 21.321 11.8752 21.3226 11.8797C21.3289 11.9003 21.3348 11.9205 21.3401 11.941C21.3461 11.9614 21.3489 11.9828 21.3489 12.0046C21.3489 12.088 21.321 12.158 21.2652 12.2153C21.2096 12.2721 21.1484 12.3232 21.0812 12.3687C21.0732 12.3744 21.0649 12.3798 21.056 12.385C21.0473 12.3904 21.0392 12.3956 21.0309 12.4017L21.0692 12.4049C21.0789 12.4058 21.0875 12.406 21.0955 12.406C21.1578 12.406 21.2168 12.3916 21.2735 12.3632C21.3302 12.3347 21.3846 12.303 21.4372 12.2677L21.4812 12.2368C21.4965 12.2267 21.5109 12.2175 21.5254 12.2086C21.524 12.2248 21.5225 12.2379 21.5217 12.2481C21.521 12.2582 21.5207 12.2671 21.5207 12.2744V12.2864C21.5207 12.2911 21.5214 12.2968 21.5228 12.3033C21.5164 12.3089 21.5103 12.314 21.5038 12.3183C21.4979 12.3227 21.4915 12.3269 21.4845 12.3315C21.4691 12.3414 21.4533 12.3515 21.4381 12.3617C21.4232 12.3721 21.4073 12.3836 21.3918 12.395C21.325 12.4419 21.2553 12.4843 21.1826 12.523C21.1102 12.5619 21.0305 12.5815 20.9429 12.5815C20.86 12.5815 20.7857 12.5616 20.7194 12.5224C20.6533 12.4827 20.6204 12.4364 20.6204 12.384C20.6204 12.3533 20.6326 12.3276 20.6576 12.3073C20.6821 12.2867 20.7119 12.2764 20.747 12.2764C20.7741 12.2764 20.801 12.2831 20.8281 12.2963C20.855 12.3094 20.879 12.3232 20.8999 12.3377C20.9047 12.3411 20.9088 12.3436 20.9118 12.3456C20.9148 12.3481 20.9183 12.3503 20.9211 12.3533C20.9818 12.3196 21.0251 12.284 21.0516 12.2459C21.0778 12.208 21.0909 12.161 21.0909 12.1054V12.0683L21.0851 12.0212C21.0824 12.0027 21.0789 11.9745 21.0741 11.9367C21.0133 11.9865 20.9633 12.0276 20.9225 12.0604C20.882 12.0935 20.8432 12.1236 20.8066 12.1514C20.802 12.1561 20.7977 12.1597 20.7935 12.1625C20.7892 12.1654 20.7849 12.169 20.7805 12.1736L20.6944 12.2338L20.5918 12.3051V12.3006C20.5487 12.3288 20.5107 12.35 20.4771 12.3655C20.4438 12.3806 20.411 12.3914 20.3791 12.3972C20.3667 12.3999 20.3529 12.4022 20.3385 12.4037C20.3242 12.4052 20.3094 12.406 20.2935 12.406C20.282 12.406 20.2671 12.4049 20.248 12.4025L20.1836 12.395C20.1134 12.4549 20.0486 12.4994 19.9892 12.5285C19.9291 12.5579 19.8756 12.5727 19.8278 12.5727C19.7736 12.5727 19.7324 12.5509 19.7045 12.5077C19.6769 12.4649 19.6593 12.3965 19.6511 12.303C19.6296 12.3195 19.6036 12.3396 19.5733 12.3632C19.5422 12.3876 19.5094 12.4125 19.4744 12.4389C19.4584 12.452 19.4416 12.4644 19.4242 12.476L19.3716 12.5113C19.33 12.5373 19.2895 12.5597 19.2499 12.5781C19.21 12.5962 19.1741 12.6054 19.1425 12.6054C19.1187 12.6054 19.098 12.5966 19.0805 12.5793C19.063 12.5614 19.0508 12.5433 19.0446 12.5244C19.0446 12.5199 19.0441 12.516 19.0435 12.5122C19.0423 12.5085 19.0422 12.5048 19.0422 12.5002C19.0422 12.4696 19.0492 12.4355 19.0625 12.3982C19.0759 12.3611 19.0993 12.3103 19.133 12.2459C19.1137 12.2589 19.0876 12.2792 19.054 12.306C19.0208 12.3333 18.9842 12.3617 18.9447 12.3929C18.9346 12.3988 18.9254 12.4049 18.9167 12.4114L18.8917 12.4301C18.8454 12.4637 18.8008 12.4925 18.7581 12.5165C18.7149 12.541 18.6813 12.5528 18.6576 12.5528C18.6229 12.5528 18.5914 12.5383 18.5631 12.5089C18.5352 12.4798 18.5131 12.4468 18.4954 12.4106C18.4842 12.3914 18.4756 12.372 18.469 12.3522C18.4625 12.3325 18.4578 12.316 18.4546 12.303V12.2546C18.4546 12.2472 18.4554 12.2398 18.4558 12.2316C18.4569 12.2235 18.4578 12.2157 18.4595 12.2086C18.4625 12.1968 18.4681 12.1846 18.4751 12.1726C18.4819 12.1598 18.4904 12.1478 18.5002 12.1359C18.5432 12.0821 18.6052 12.0298 18.6876 11.9792C18.7695 11.9289 18.8558 11.8849 18.9463 11.8468C19.0213 11.816 19.0943 11.7911 19.165 11.7721C19.236 11.7531 19.2953 11.7436 19.3431 11.7436C19.3747 11.7436 19.4024 11.7503 19.4242 11.7635C19.4463 11.7769 19.4653 11.7957 19.4815 11.8205C19.4848 11.8261 19.487 11.831 19.4886 11.8347C19.4903 11.8383 19.491 11.8416 19.491 11.8448C19.491 11.8562 19.4861 11.8656 19.4768 11.8721C19.467 11.8784 19.4564 11.884 19.4457 11.8881C19.4376 11.8913 19.4305 11.8939 19.4242 11.896C19.4174 11.8982 19.4124 11.9003 19.4075 11.9014C19.4328 11.9116 19.4505 11.923 19.46 11.9355C19.4695 11.9479 19.4744 11.9644 19.4744 11.9849C19.4744 12.0067 19.4634 12.0309 19.4409 12.057C19.4186 12.0837 19.3949 12.1104 19.3692 12.1383C19.3582 12.1502 19.3474 12.1617 19.3371 12.1736C19.3268 12.1852 19.3168 12.1968 19.3075 12.2086C19.2943 12.2276 19.2834 12.2459 19.2751 12.2635C19.2662 12.2807 19.2621 12.2978 19.2621 12.314C19.2621 12.3328 19.2693 12.3481 19.2843 12.36C19.2996 12.3715 19.3184 12.3773 19.3404 12.3773H19.3514C19.3552 12.3773 19.359 12.3767 19.3619 12.3752C19.3876 12.3736 19.4187 12.3619 19.4554 12.3401C19.4916 12.3183 19.5587 12.2744 19.6558 12.2086C19.6541 12.2232 19.6529 12.2349 19.6523 12.2435C19.6512 12.2524 19.6512 12.2604 19.6512 12.2677V12.2855L19.6518 12.2914C19.6538 12.1377 19.6897 11.9962 19.7619 11.8656C19.8361 11.7316 19.9285 11.6071 20.04 11.4913C20.0625 11.4699 20.0915 11.4424 20.1272 11.4105C20.163 11.3782 20.2035 11.3447 20.248 11.3095C20.2639 11.2961 20.2806 11.2831 20.2993 11.269L20.3529 11.2282C20.4102 11.1872 20.465 11.1528 20.5179 11.1243C20.5704 11.0957 20.6134 11.0815 20.6465 11.0815ZM5.89468 11.042C6.04898 11.042 6.184 11.0611 6.29824 11.0991C6.41293 11.1369 6.49884 11.1914 6.55626 11.2614C6.57703 11.2872 6.59602 11.3208 6.61353 11.361C6.63133 11.401 6.64469 11.4426 6.65403 11.485C6.65893 11.507 6.66293 11.5285 6.6662 11.5496C6.66931 11.5709 6.67095 11.5916 6.67095 11.6122C6.67095 11.8344 6.56842 12.0196 6.36382 12.168C6.15966 12.3163 5.93459 12.4249 5.68963 12.4938C5.58607 12.5244 5.48399 12.5468 5.38384 12.5604C5.28354 12.5747 5.19036 12.5815 5.10431 12.5815C5.02152 12.5815 4.9638 12.5717 4.93131 12.5517C4.89867 12.5321 4.88235 12.4972 4.88235 12.4475C4.88235 12.4125 4.88873 12.376 4.90149 12.3377C4.91425 12.3 4.93086 12.2611 4.95149 12.2217C4.97716 12.1748 5.00787 12.1284 5.04348 12.0825C5.07923 12.0365 5.11573 11.9924 5.15208 11.95C5.18087 11.9177 5.20876 11.8871 5.23562 11.8576C5.26277 11.8285 5.28829 11.8021 5.31203 11.7788L5.67509 11.3687C5.58443 11.3789 5.50491 11.391 5.4377 11.4039C5.36989 11.4172 5.30416 11.4338 5.24036 11.4543C5.22938 11.4573 5.21766 11.4607 5.20579 11.4651C5.19407 11.4697 5.18131 11.474 5.169 11.4783H5.29556C5.31752 11.4797 5.33354 11.4825 5.34333 11.4858C5.35268 11.4896 5.35772 11.4951 5.35772 11.5024C5.35772 11.5113 5.35253 11.5187 5.342 11.5246C5.33161 11.5301 5.31292 11.5362 5.28591 11.5417C5.26366 11.5462 5.24022 11.5519 5.21514 11.5585C5.19096 11.5651 5.16648 11.5718 5.14274 11.5794C5.13472 11.5809 5.12701 11.5824 5.11989 11.5846C5.11262 11.5868 5.10594 11.5887 5.09956 11.5902C5.06469 11.6006 5.03027 11.6091 4.99585 11.6154C4.96143 11.6221 4.92864 11.6255 4.89674 11.6255C4.86796 11.6255 4.8454 11.6184 4.82864 11.6048C4.81202 11.5904 4.80371 11.572 4.80371 11.5484C4.80371 11.5368 4.8049 11.5246 4.80712 11.5113C4.8095 11.4982 4.81306 11.485 4.81781 11.4717C4.81959 11.4657 4.82107 11.4598 4.8227 11.4534C4.82419 11.4463 4.82686 11.4396 4.83012 11.4322L4.83932 11.4049C4.84258 11.3953 4.84496 11.3861 4.84674 11.3775C4.86558 11.3061 4.93086 11.2469 5.04259 11.2012C5.15386 11.1552 5.27464 11.1196 5.40535 11.0945C5.50238 11.0758 5.59541 11.062 5.68458 11.054C5.77375 11.046 5.84378 11.042 5.89468 11.042ZM6.96902 11.7174C6.9803 11.7174 6.99083 11.7218 7.00048 11.7306C7.00968 11.7392 7.01561 11.7484 7.01724 11.7568V11.7635C7.01724 11.7694 7.01561 11.7769 7.0122 11.7853C7.00923 11.7942 7.00508 11.8037 7.00033 11.8138L7.29173 11.7769C7.29959 11.7769 7.30686 11.7763 7.31309 11.7751L7.32748 11.7745C7.35464 11.7745 7.37823 11.7884 7.399 11.816C7.41992 11.8438 7.43016 11.8743 7.43016 11.9082C7.43016 11.9154 7.42927 11.9226 7.42778 11.9289C7.4263 11.9355 7.42303 11.9419 7.41784 11.9475C7.40716 11.9695 7.38965 11.9913 7.36561 12.0123C7.34188 12.0337 7.31695 12.0558 7.29173 12.0791C7.25671 12.1085 7.22451 12.1404 7.19499 12.1746C7.16576 12.2089 7.15077 12.2473 7.15077 12.2896C7.15077 12.3104 7.15597 12.3254 7.16635 12.3359C7.17674 12.346 7.1938 12.3512 7.21754 12.3512C7.23683 12.3512 7.25716 12.3482 7.27852 12.3414C7.29989 12.3349 7.32155 12.3261 7.3441 12.316C7.35864 12.3088 7.37333 12.3012 7.38861 12.293C7.4036 12.2849 7.41784 12.2766 7.43238 12.2678C7.45004 12.2574 7.4671 12.2468 7.48401 12.2358C7.50078 12.2248 7.51517 12.2157 7.52808 12.2088C7.52808 12.2174 7.52778 12.2257 7.52689 12.234C7.526 12.2417 7.52541 12.2494 7.52541 12.257V12.303C7.50493 12.319 7.48119 12.3367 7.45389 12.3564C7.42719 12.3763 7.399 12.3972 7.37051 12.419C7.35122 12.4339 7.33149 12.4478 7.31101 12.462C7.29024 12.4757 7.26843 12.489 7.24662 12.5021C7.21457 12.5214 7.18223 12.5368 7.14944 12.5484C7.11709 12.5603 7.08638 12.5659 7.05775 12.5659C7.01324 12.5659 6.97555 12.5506 6.94558 12.5199C6.91516 12.489 6.90018 12.4512 6.90018 12.406C6.90018 12.346 6.91739 12.2901 6.9527 12.2383C6.98757 12.1864 7.026 12.1371 7.06709 12.0899C7.07659 12.0798 7.08638 12.07 7.09573 12.0604C7.10537 12.0511 7.11472 12.041 7.12466 12.0307L6.857 12.0816C6.83771 12.1019 6.8208 12.1195 6.80567 12.134C6.79068 12.1485 6.77614 12.1626 6.7616 12.1755C6.75685 12.1787 6.753 12.1815 6.74958 12.1844C6.74662 12.1871 6.74261 12.1904 6.73771 12.1932C6.72021 12.2094 6.70003 12.2257 6.67792 12.2425C6.65566 12.2595 6.62777 12.2803 6.59439 12.3052V12.2571C6.59439 12.2496 6.59483 12.2419 6.59543 12.234C6.59676 12.2258 6.59765 12.2175 6.59914 12.2088C6.6165 12.1954 6.63148 12.1847 6.6435 12.1757C6.65537 12.1668 6.6662 12.1591 6.67569 12.1515C6.67718 12.1502 6.67896 12.1482 6.68163 12.1462C6.68371 12.1439 6.68667 12.1417 6.68979 12.1386C6.69632 12.1325 6.7027 12.1263 6.70908 12.1186C6.71531 12.1113 6.72347 12.1034 6.73267 12.0948C6.71086 12.0917 6.69528 12.0862 6.68623 12.077C6.67733 12.0686 6.67288 12.0537 6.67288 12.0335C6.67288 12.0187 6.67584 12.003 6.68163 11.9861C6.68727 11.9693 6.69483 11.9528 6.70433 11.9367C6.72021 11.9077 6.73994 11.8798 6.76383 11.8536C6.78786 11.827 6.81338 11.8031 6.84039 11.7812C6.86442 11.7619 6.88727 11.7466 6.91071 11.7352C6.93371 11.7235 6.95329 11.7175 6.96902 11.7175V11.7174ZM14.7248 11.9519C14.6377 11.9755 14.5522 12.0024 14.4696 12.0319C14.3865 12.062 14.3061 12.0997 14.2283 12.1447C14.2123 12.1536 14.1985 12.1622 14.1866 12.1702C14.1748 12.1785 14.1639 12.1865 14.1543 12.1954C14.132 12.2144 14.1169 12.2349 14.109 12.2568C14.1009 12.2785 14.0972 12.3058 14.0972 12.3377C14.0972 12.357 14.0998 12.3696 14.1052 12.3763C14.1111 12.383 14.1207 12.3861 14.1351 12.3861C14.1639 12.3861 14.2043 12.3705 14.2568 12.339C14.3098 12.3076 14.3636 12.27 14.4193 12.226L14.4623 12.191C14.4768 12.1791 14.49 12.1681 14.503 12.158C14.5522 12.1172 14.5966 12.0782 14.6366 12.0408C14.6765 12.0034 14.7056 11.9743 14.7248 11.9543V11.9519ZM10.4888 11.9519C10.4014 11.9754 10.3161 12.0022 10.2336 12.0319C10.1508 12.062 10.0704 12.0997 9.99236 12.1447C9.97648 12.1536 9.96239 12.1622 9.95037 12.1702C9.9385 12.1785 9.92781 12.1865 9.91832 12.1954C9.89592 12.2144 9.88108 12.2349 9.87307 12.257C9.86476 12.2785 9.8609 12.306 9.8609 12.3377C9.8609 12.357 9.86387 12.3696 9.86921 12.3763C9.8747 12.383 9.88479 12.3859 9.89918 12.3859C9.92781 12.3859 9.96832 12.3705 10.0208 12.339C10.0737 12.3076 10.1277 12.27 10.1835 12.226C10.1974 12.2144 10.2119 12.2027 10.2265 12.191C10.2406 12.1791 10.2539 12.1681 10.267 12.158C10.3161 12.1172 10.3608 12.0781 10.4005 12.0408C10.4406 12.0036 10.47 11.9743 10.489 11.9543L10.4888 11.9519ZM19.264 11.9519C19.1765 11.9754 19.0917 12.0022 19.0088 12.0319C18.9257 12.0622 18.8454 12.0997 18.7674 12.1447C18.7518 12.1536 18.7377 12.1622 18.7256 12.1702C18.714 12.1785 18.7033 12.1865 18.6935 12.1953C18.6713 12.2146 18.656 12.2349 18.6483 12.257C18.6402 12.2784 18.6358 12.306 18.6358 12.3377C18.6358 12.357 18.6388 12.3696 18.6447 12.3763C18.6499 12.383 18.66 12.3861 18.6742 12.3861C18.7035 12.3861 18.7438 12.3705 18.796 12.339C18.8487 12.3076 18.9027 12.27 18.9584 12.226C18.9727 12.2146 18.9873 12.2027 19.0017 12.191C19.0159 12.1791 19.0294 12.1681 19.0422 12.158C19.0917 12.1172 19.1357 12.0781 19.1759 12.0408C19.2158 12.0034 19.2452 11.9745 19.264 11.9543V11.9519ZM5.80625 11.3644C5.8018 11.3804 5.79764 11.3944 5.79453 11.4061C5.79141 11.4178 5.78829 11.4279 5.78503 11.4368C5.78043 11.4469 5.77568 11.4561 5.77168 11.4641C5.76767 11.4721 5.76292 11.4797 5.75862 11.4873L5.74438 11.5048C5.73948 11.5105 5.73399 11.5172 5.72731 11.5246C5.68785 11.5697 5.63889 11.6255 5.58087 11.6923C5.52271 11.7586 5.45862 11.8337 5.38859 11.9168C5.37761 11.9284 5.36069 11.9469 5.33858 11.9715C5.31633 11.9968 5.29229 12.0238 5.26692 12.0531C5.26173 12.0601 5.25654 12.0672 5.24986 12.0739C5.24392 12.0801 5.23799 12.0873 5.23309 12.0947C5.20609 12.1284 5.18324 12.16 5.1638 12.1896C5.14496 12.2196 5.13547 12.2435 5.13547 12.2611C5.13547 12.2815 5.14734 12.2971 5.17137 12.3083C5.19496 12.3193 5.22849 12.3247 5.27152 12.3247C5.30802 12.3247 5.34393 12.3239 5.37894 12.3215C5.4141 12.3193 5.44912 12.3166 5.48399 12.314C5.53992 12.308 5.60268 12.2971 5.67257 12.2821C5.7426 12.2665 5.81352 12.2459 5.88548 12.2198C6.03815 12.1665 6.17851 12.093 6.30685 11.9981C6.43489 11.9031 6.49884 11.7883 6.49884 11.6539C6.49884 11.5589 6.44483 11.4886 6.33637 11.4432C6.22821 11.3981 6.05165 11.3724 5.80625 11.3665V11.3644ZM13.2755 11.3404C13.274 11.362 13.2719 11.3792 13.2696 11.3917C13.2669 11.4042 13.2621 11.4162 13.254 11.4279C13.2525 11.4309 13.2504 11.4335 13.248 11.4355C13.2457 11.4378 13.2436 11.4402 13.2421 11.4433L12.9749 11.7769C12.9875 11.7769 12.9998 11.7758 13.012 11.7745L13.0488 11.77C13.0602 11.77 13.0719 11.7694 13.0847 11.769C13.0971 11.7683 13.1093 11.7678 13.1206 11.7678C13.1316 11.7678 13.1408 11.7699 13.148 11.7745C13.1552 11.7788 13.1584 11.7847 13.1584 11.7917C13.1584 11.7978 13.1552 11.803 13.148 11.8071C13.1408 11.8116 13.1332 11.8153 13.1252 11.8183C13.108 11.8227 13.0903 11.8267 13.074 11.8303C13.0571 11.8337 13.0402 11.8378 13.0227 11.8424C13.0052 11.8451 12.9879 11.8488 12.9712 11.8533C12.9546 11.8577 12.9375 11.8622 12.92 11.8665L12.8673 11.9365C12.9166 11.9424 12.9546 11.9462 12.9807 11.9475C13.0069 11.949 13.0305 11.95 13.0512 11.95H13.0657C13.0958 11.95 13.1267 11.9484 13.1586 11.9454C13.1906 11.9424 13.2222 11.9381 13.2541 11.9322C13.3497 11.9131 13.4414 11.8843 13.5301 11.8462C13.6181 11.807 13.688 11.7619 13.739 11.7107C13.7535 11.6962 13.7667 11.6795 13.7794 11.6617C13.7923 11.6432 13.804 11.6238 13.8151 11.6036C13.8265 11.5828 13.8353 11.5629 13.8418 11.5442C13.848 11.5254 13.8512 11.5083 13.8512 11.4939C13.8512 11.4527 13.8185 11.4226 13.7535 11.4028C13.688 11.3829 13.617 11.3687 13.5408 11.3598C13.4912 11.3539 13.4436 11.3502 13.3976 11.3479C13.3513 11.3457 13.313 11.3438 13.2831 11.3426H13.2756L13.2755 11.3404ZM11.5277 11.4585L11.4655 11.5123C11.4461 11.5291 11.429 11.5456 11.4131 11.5617C11.3766 11.5984 11.3439 11.6353 11.3152 11.6736C11.2866 11.7113 11.2593 11.7524 11.2339 11.7963C11.2213 11.8166 11.2082 11.8383 11.1959 11.8611C11.183 11.8837 11.1703 11.9076 11.1571 11.9324C11.1766 11.9147 11.1949 11.8972 11.2126 11.8797C11.2299 11.8622 11.2474 11.8451 11.2651 11.8292C11.3174 11.7739 11.3663 11.7165 11.4105 11.658C11.4554 11.5999 11.494 11.5338 11.5277 11.4607V11.4585ZM20.5223 11.2591C20.513 11.2678 20.5033 11.2763 20.4928 11.2843C20.4823 11.2923 20.4725 11.3007 20.4627 11.3095C20.3499 11.4016 20.2496 11.4966 20.1619 11.5948C20.0747 11.6924 19.9932 11.8043 19.9183 11.9301C20.0366 11.835 20.1478 11.7316 20.2539 11.62C20.3597 11.5079 20.4493 11.3886 20.5223 11.2614V11.2591Z" fill="currentColor"/>
<path fill-rule="evenodd" clip-rule="evenodd" d="M3.67228 12.2245C3.76353 12.2747 3.7889 12.3613 3.82406 12.4333C3.50061 12.6689 2.97731 12.8653 2.84141 12.9907C2.72761 12.9729 2.66544 12.9331 2.62034 12.884C2.59897 12.8597 2.60401 12.8345 2.62212 12.822C2.97672 12.6009 3.45046 12.5208 3.67228 12.2245ZM3.67228 11.7263C3.76353 11.7762 3.7889 11.8628 3.82421 11.9346C3.50047 12.1708 2.9736 12.3134 2.83799 12.4386C2.69437 12.4159 2.6328 12.3588 2.58428 12.2925C2.94185 12.0538 3.44305 12.0325 3.67198 11.7263H3.67228ZM3.67228 11.2278C3.76353 11.2782 3.7889 11.3643 3.82421 11.4364C3.50047 11.6724 2.9736 11.8152 2.83799 11.9405C2.69437 11.9174 2.6328 11.8604 2.58428 11.7941C2.94185 11.5552 3.44305 11.5342 3.67198 11.2278H3.67228ZM3.82406 10.6328C3.85878 10.6974 3.87065 10.772 3.85878 10.8576C3.53533 11.0935 2.97346 11.3169 2.83799 11.4425C2.69407 11.4193 2.63265 11.3622 2.58398 11.296C2.91218 11.0739 3.51708 10.8502 3.82421 10.6328H3.82406Z" fill="currentColor"/>
<path fill-rule="evenodd" clip-rule="evenodd" d="M2.58443 12.292C2.65149 12.3837 2.74289 12.4576 3.04052 12.4485C3.15387 12.4453 3.36352 12.4519 3.55388 12.4614C3.73667 12.4703 3.97391 12.585 3.91798 12.811C3.907 12.8552 3.88118 12.8973 3.8245 12.9309C3.77406 12.8273 3.74379 12.6944 3.50922 12.6821C3.27227 12.6697 3.01989 12.6846 2.78339 12.6703C2.56232 12.6573 2.3506 12.4726 2.58443 12.292ZM2.58443 11.7935C2.65149 11.8853 2.74289 11.9591 3.04052 11.9502C3.15387 11.9467 3.36352 11.9537 3.55388 11.9629C3.73667 11.972 3.97391 12.087 3.91798 12.3125C3.907 12.3568 3.88118 12.3991 3.8245 12.4327C3.77406 12.3292 3.74379 12.1959 3.50922 12.1834C3.27227 12.1715 3.01989 12.1864 2.78339 12.1721C2.56232 12.1586 2.3506 11.9737 2.58443 11.7935ZM2.58443 11.2955C2.65149 11.3866 2.74289 11.461 3.04052 11.4521C3.15387 11.4485 3.36352 11.4553 3.55388 11.4645C3.73667 11.4734 3.97391 11.5886 3.91798 11.8144C3.907 11.8588 3.88118 11.9005 3.8245 11.9343C3.77406 11.8307 3.74379 11.6978 3.50922 11.6852C3.27227 11.673 3.01989 11.688 2.78339 11.6736C2.56232 11.6605 2.3506 11.4761 2.58443 11.2955ZM2.58443 10.797C2.65149 10.8886 2.74289 10.9626 3.04052 10.9536C3.15387 10.9503 3.36352 10.9568 3.55388 10.9663C3.73667 10.9752 3.97391 11.0901 3.91798 11.3162C3.907 11.3604 3.88118 11.4025 3.8245 11.4359C3.77406 11.3323 3.74379 11.1994 3.50922 11.1871C3.27227 11.1745 3.01989 11.1896 2.78339 11.1757C2.56232 11.1623 2.3506 10.9774 2.58443 10.7969V10.797Z" fill="currentColor"/>
</g>
</g>
<defs>
<clipPath id="clip0_3396_48855">
<rect width="24" height="24" fill="currentColor"/>
</clipPath>
<clipPath id="clip1_3396_48855">
<rect width="24" height="24" fill="currentColor"/>
</clipPath>
</defs>
</svg>
