<svg width="24" height="24" viewBox="0 0 24 24" fill="none" xmlns="http://www.w3.org/2000/svg">
<g clip-path="url(#clip0_3396_73634)">
<g clip-path="url(#clip1_3396_73634)">
<circle cx="12" cy="12" r="12" fill="currentColor"/>
<path d="M10.5421 14.4098C10.5421 14.8131 10.2152 15.1411 9.81239 15.1411C9.40854 15.1411 9.0821 14.8131 9.0821 14.4098C9.0821 14.007 9.40854 13.6795 9.81239 13.6795C10.2152 13.6795 10.5421 14.007 10.5421 14.4098ZM11.3911 18.9735V9.03527C11.3555 7.51612 10.4396 6.21617 9.13337 5.624C8.69972 5.4362 8.23206 5.31535 7.74506 5.28919C5.33404 5.16152 3.47072 6.58759 2.97377 8.51268C2.65102 9.68499 2.90052 11.0937 3.70769 12.2776C4.69794 13.7313 8.7693 17.5857 10.7351 19.3031C10.8032 19.3528 10.8858 19.3832 10.9768 19.3832C11.2044 19.3832 11.388 19.2 11.3911 18.9735Z" fill="currentColor"/>
<path d="M14.4426 13.8291C13.4393 13.8291 12.6279 14.6405 12.6279 15.6428C12.6279 16.643 13.4393 17.4549 14.4426 17.4549C15.4428 17.4549 16.2562 16.643 16.2562 15.6428C16.2562 14.6405 15.4428 13.8291 14.4426 13.8291Z" fill="currentColor"/>
<path d="M12.6281 17.9561C12.2818 17.9561 12.002 18.2365 12.002 18.5822C12.002 18.928 12.2818 19.2079 12.6281 19.2079C12.9733 19.2079 13.2532 18.928 13.2532 18.5822C13.2532 18.2365 12.9733 17.9561 12.6281 17.9561Z" fill="currentColor"/>
<path d="M17.8937 9.41895C16.5645 9.41895 15.4854 10.4971 15.4854 11.83C15.4854 13.1598 16.5645 14.238 17.8937 14.238C19.2261 14.238 20.3042 13.1598 20.3042 11.83C20.3042 10.4971 19.2261 9.41895 17.8937 9.41895Z" fill="currentColor"/>
<path d="M19.5725 6.45996C18.8747 6.45996 18.3076 7.02544 18.3076 7.72486C18.3076 8.42218 18.8747 8.98872 19.5725 8.98872C20.2703 8.98872 20.8369 8.42218 20.8369 7.72486C20.8369 7.02544 20.2703 6.45996 19.5725 6.45996Z" fill="currentColor"/>
<path d="M14.734 9.48887C16.0135 9.48887 17.0509 8.4536 17.0509 7.17509C17.0509 5.89711 16.0135 4.86133 14.734 4.86133C13.4582 4.86133 12.4219 5.89711 12.4219 7.17509C12.4219 8.4536 13.4582 9.48887 14.734 9.48887Z" fill="currentColor"/>
<path d="M14.8271 11.5174C14.8271 12.277 14.2114 12.8927 13.4519 12.8927C12.6929 12.8927 12.0771 12.277 12.0771 11.5174C12.0771 10.7573 12.6929 10.1416 13.4519 10.1416C14.2114 10.1416 14.8271 10.7573 14.8271 11.5174Z" fill="currentColor"/>
</g>
</g>
<defs>
<clipPath id="clip0_3396_73634">
<rect width="24" height="24" fill="currentColor"/>
</clipPath>
<clipPath id="clip1_3396_73634">
<rect width="24" height="24" fill="currentColor"/>
</clipPath>
</defs>
</svg>
