<svg width="16" height="16" viewBox="0 0 16 16" fill="none" xmlns="http://www.w3.org/2000/svg">
<g clip-path="url(#clip0_5740_60978)">
<path opacity="0.957" fill-rule="evenodd" clip-rule="evenodd" d="M13.793 1.2413C13.8128 1.22111 13.8353 1.20376 13.8599 1.18976C14.2336 0.97669 14.4854 0.958669 15.0179 1.19155C15.0472 1.20434 15.0746 1.22148 15.0985 1.24263C15.5453 1.63811 15.6938 2.13239 15.5439 2.72549C14.1401 6.43192 12.7634 10.149 11.4139 13.8766C11.3098 14.2533 11.1362 14.5841 10.8929 14.869C10.832 14.9404 10.7413 14.978 10.6474 14.978C10.3052 14.978 9.96298 14.978 9.62079 14.978C9.49547 14.978 9.38273 14.9077 9.30687 14.8079C9.25792 14.7436 9.20297 14.6828 9.14201 14.6256C9.09828 14.5846 9.06254 14.5354 9.04169 14.4792C8.31602 12.522 7.58039 10.5698 6.8349 8.62265C6.72381 8.33249 6.3166 8.32736 6.19985 8.61529C5.67077 9.92009 5.16804 11.2389 4.69166 12.5716C4.67611 12.6152 4.65209 12.6555 4.61988 12.6886C4.04992 13.2752 3.44651 13.3224 2.80944 12.8303C2.76378 12.795 2.72959 12.7472 2.70834 12.6935C2.05053 11.0332 1.41884 9.36259 0.813396 7.68155C0.568605 7.12599 0.431956 6.55451 0.403449 5.96714C0.401043 5.91756 0.410002 5.86798 0.430721 5.82287C0.748643 5.13071 1.28571 4.89324 2.04181 5.11045C2.09425 5.12552 2.14137 5.1548 2.17994 5.19337C2.30245 5.31587 2.4249 5.43836 2.54741 5.56086C2.58405 5.5975 2.61193 5.64194 2.62908 5.69084C2.86357 6.35972 3.11086 7.02353 3.37089 7.68227C3.48639 7.97487 3.90011 7.96626 4.00825 7.67087C4.51692 6.28142 5.04358 4.8991 5.58816 3.52389C5.61641 3.45256 5.66746 3.39186 5.73547 3.35635C6.34677 3.0371 6.9296 3.08276 7.48386 3.49335C7.53381 3.53035 7.57055 3.58228 7.59216 3.64056C8.31681 5.59496 9.05138 7.54435 9.79579 9.48873C9.90714 9.77957 10.316 9.78398 10.4328 9.49529C11.4109 7.07798 12.3344 4.63782 13.2035 2.17481C13.3377 1.81659 13.5342 1.50542 13.793 1.2413Z" fill="currentColor"/>
</g>
<defs>
<clipPath id="clip0_5740_60978">
<rect width="16" height="16" fill="currentColor"/>
</clipPath>
</defs>
</svg>
