<svg width="24" height="24" viewBox="0 0 24 24" fill="none" xmlns="http://www.w3.org/2000/svg">
<g clip-path="url(#clip0_5740_60903)">
<path opacity="0.957" fill-rule="evenodd" clip-rule="evenodd" d="M20.6886 1.86097C20.7182 1.83069 20.752 1.80466 20.7888 1.78367C21.3495 1.46406 21.7271 1.43703 22.5259 1.78635C22.5698 1.80554 22.611 1.83124 22.6468 1.86298C23.317 2.45619 23.5397 3.19761 23.3149 4.08726C21.2092 9.6469 19.1442 15.2225 17.1198 20.814C16.9638 21.379 16.7033 21.8752 16.3384 22.3025C16.247 22.4096 16.1109 22.466 15.9701 22.466C15.4569 22.466 14.9435 22.466 14.4302 22.466C14.2422 22.466 14.0731 22.3606 13.9593 22.2109C13.8859 22.1144 13.8035 22.0232 13.712 21.9374C13.6464 21.8759 13.5928 21.8021 13.5616 21.7178C12.4731 18.782 11.3696 15.8537 10.2514 12.933C10.0847 12.4978 9.47392 12.4901 9.29879 12.922C8.50518 14.8792 7.75109 16.8573 7.03652 18.8565C7.01318 18.9218 6.97716 18.9822 6.92885 19.0319C6.0739 19.9118 5.16879 19.9826 4.21318 19.2445C4.14469 19.1916 4.09341 19.1198 4.06154 19.0393C3.07482 16.5489 2.12728 14.0429 1.21912 11.5213C0.85193 10.688 0.646957 9.83079 0.604197 8.94974C0.600588 8.87537 0.614027 8.80099 0.645104 8.73333C1.12199 7.69509 1.92759 7.33889 3.06174 7.6647C3.14039 7.6873 3.21107 7.73122 3.26894 7.78908C3.4527 7.97283 3.63637 8.15656 3.82014 8.34031C3.8751 8.39527 3.91693 8.46193 3.94264 8.53528C4.29438 9.5386 4.66531 10.5343 5.05536 11.5224C5.22862 11.9613 5.84919 11.9484 6.01141 11.5053C6.77441 9.42116 7.56439 7.34768 8.38126 5.28486C8.42363 5.17786 8.50021 5.08682 8.60222 5.03354C9.51918 4.55467 10.3934 4.62316 11.2248 5.23904C11.2997 5.29454 11.3548 5.37244 11.3873 5.45986C12.4742 8.39146 13.5761 11.3155 14.6927 14.2321C14.8597 14.6684 15.473 14.675 15.6483 14.242C17.1153 10.616 18.5007 6.95575 19.8043 3.26125C20.0056 2.72391 20.3003 2.25715 20.6886 1.86097Z" fill="currentColor"/>
</g>
<defs>
<clipPath id="clip0_5740_60903">
<rect width="24" height="24" fill="currentColor"/>
</clipPath>
</defs>
</svg>
