<svg width="24" height="24" viewBox="0 0 24 24" fill="none" xmlns="http://www.w3.org/2000/svg">
<g clip-path="url(#clip0_6027_5916)">
<g clip-path="url(#clip1_6027_5916)">
<ellipse cx="11.2753" cy="20.6353" rx="2.89985" ry="1.48983" fill="currentColor"/>
<path d="M14.1749 19.6294L14.1737 20.0339C14.1725 20.4495 13.8917 20.8644 13.3308 21.1817C12.2017 21.8203 10.3668 21.8202 9.23032 21.1817C8.65843 20.8603 8.37283 20.4388 8.37403 20.0178L8.37522 19.6133C8.37403 20.0342 8.65962 20.4558 9.23152 20.7771C10.368 21.4158 12.2029 21.4158 13.332 20.7771C13.8929 20.4599 14.1737 20.0449 14.1749 19.6294Z" fill="currentColor" stroke="currentColor" stroke-width="0.075"/>
<path d="M13.3184 18.4653C14.4549 19.1039 14.4608 20.1383 13.3318 20.7769C12.2027 21.4155 10.3678 21.4155 9.23129 20.7769C8.09477 20.1383 8.08885 19.1039 9.21798 18.4653C10.3471 17.8267 12.1819 17.8267 13.3184 18.4653Z" fill="currentColor" stroke="currentColor" stroke-width="0.075"/>
<path d="M13.3143 19.0269L13.3135 19.6778C13.3127 19.9701 13.1152 20.2618 12.7208 20.4849C11.9269 20.934 10.6366 20.934 9.83745 20.4849C9.43531 20.259 9.23449 19.9625 9.23535 19.6665L9.23617 19.0156C9.2353 19.3116 9.43612 19.608 9.83826 19.834C10.6374 20.2831 11.9277 20.2831 12.7216 19.834C13.1161 19.6109 13.3135 19.3192 13.3143 19.0269Z" fill="currentColor" stroke="currentColor" stroke-width="0.075"/>
<path d="M12.8981 17.8706C13.8006 18.3777 13.8053 19.1991 12.9087 19.7062C12.0122 20.2133 10.5551 20.2133 9.65261 19.7062C8.75015 19.199 8.74542 18.3777 9.64202 17.8706C10.5386 17.3635 11.9956 17.3634 12.898 17.8706H12.8981Z" fill="currentColor" stroke="currentColor" stroke-width="0.075"/>
<path d="M13.6689 18.5269L13.6679 18.8608C13.667 19.2037 13.4352 19.5461 12.9723 19.8079C12.0406 20.3349 10.5263 20.3349 9.58847 19.8079C9.11655 19.5427 8.88081 19.1949 8.88184 18.8475L8.88282 18.5137C8.88179 18.861 9.11753 19.2089 9.58945 19.4741C10.5273 20.0011 12.0415 20.0011 12.9733 19.4741C13.4362 19.2123 13.6679 18.8699 13.6689 18.5269Z" fill="currentColor" stroke="currentColor" stroke-width="0.075"/>
<path d="M12.9622 17.5661C13.9001 18.0931 13.9051 18.9467 12.9733 19.4737C12.0415 20.0008 10.5273 20.0008 9.58943 19.4737C8.65157 18.9467 8.64668 18.0932 9.57841 17.5662C10.5102 17.0391 12.0243 17.0391 12.9622 17.5662V17.5661Z" fill="currentColor" stroke="currentColor" stroke-width="0.075"/>
<path d="M12.2678 15.4666L12.2504 18.2404C12.2501 18.3808 12.1556 18.5212 11.9657 18.6286C11.5826 18.8452 10.9534 18.8471 10.5713 18.6324C10.3773 18.5234 10.2803 18.3789 10.2808 18.2346L10.298 15.4609C10.2976 15.6052 10.3945 15.7497 10.5886 15.8587C11.1827 16.1925 12.2662 15.9702 12.2677 15.4666H12.2678Z" fill="currentColor" stroke="currentColor" stroke-width="0.075"/>
<path d="M11.9788 15.0726C12.3609 15.2873 12.3664 15.6383 11.9833 15.8549C11.6002 16.0716 10.971 16.0735 10.5889 15.8588C10.2033 15.6421 10.2013 15.2855 10.5843 15.0688C10.9674 14.8521 11.5932 14.856 11.9789 15.0726H11.9788Z" fill="currentColor" stroke="currentColor" stroke-width="0.075"/>
<path d="M10.5547 13.5831L10.5474 15.3717C10.5471 15.4773 10.618 15.583 10.76 15.6629C11.1941 15.9068 11.988 15.745 11.9891 15.3759L11.9964 13.583H10.5547V13.5831Z" fill="currentColor" stroke="currentColor" stroke-width="0.075"/>
<path d="M18.8246 11.8612C18.55 12.3111 18.2789 13.4987 16.7318 14.4237C13.9275 16.1005 9.45975 15.2513 6.76147 12.532C4.86087 10.6167 4.33987 8.28374 5.17424 6.48485L5.48976 5.84279C4.65533 7.64167 5.17639 9.97464 7.07692 11.89C9.77522 14.6092 14.2429 15.4584 17.0473 13.7817C17.8797 13.284 18.4726 12.62 18.8245 11.8613L18.8246 11.8612Z" fill="currentColor" stroke="currentColor" stroke-width="0.075"/>
<path d="M7.26595 3.92369C10.0738 2.24483 14.5382 3.09059 17.2398 5.81329C19.9381 8.53251 19.8555 12.1025 17.0477 13.7814C14.2434 15.4581 9.77562 14.6089 7.07733 11.8897C4.37566 9.16701 4.46164 5.60045 7.26595 3.92369Z" fill="currentColor" stroke="currentColor" stroke-width="0.075"/>
<path d="M16.9385 13.4869C14.2146 15.1162 9.87384 14.291 7.25091 11.6489C4.62657 9.00181 4.7121 5.53749 7.43602 3.90818C10.1627 2.27709 14.5017 3.09951 17.1264 5.74435C19.7471 8.38594 19.668 11.854 16.9385 13.4869Z" fill="currentColor" stroke="currentColor" stroke-width="0.075"/>
<path d="M7.27467 11.9635C7.22656 11.919 7.22452 11.8454 7.26943 11.7992L16.246 3.56623C16.2912 3.51998 16.3669 3.51882 16.4143 3.56315C16.4624 3.60764 16.4644 3.68121 16.4195 3.72742L7.44302 11.9604C7.3978 12.0065 7.32239 12.0079 7.27467 11.9635Z" fill="currentColor" stroke="currentColor" stroke-width="0.075"/>
<path d="M18.6177 11.7426C18.577 11.7339 18.5419 11.7045 18.5284 11.6628L16.3727 3.99714C16.353 3.93577 16.3879 3.87093 16.4507 3.85236C16.513 3.83399 16.5801 3.86855 16.6 3.93007L18.7557 11.5957C18.7829 11.6806 18.7065 11.7617 18.6177 11.7426Z" fill="currentColor" stroke="currentColor" stroke-width="0.075"/>
<path d="M8.57928 3.32348L15.579 3.40849C15.6454 3.40502 15.7012 3.45489 15.7051 3.51886C15.7089 3.58283 15.6591 3.63739 15.5935 3.64059L8.59379 3.55558C8.43486 3.56396 8.42359 3.33099 8.57928 3.32348Z" fill="currentColor" stroke="currentColor" stroke-width="0.075"/>
<path d="M17.0312 4.26077L16.8762 4.41117C16.5116 4.76502 15.8227 4.591 15.4766 4.07917C15.2224 3.70333 15.2358 3.27182 15.4856 3.0294L15.6406 2.879C15.3908 3.1214 15.3774 3.55293 15.6316 3.92877C15.983 4.4484 16.6722 4.60917 17.0312 4.26077Z" fill="currentColor" stroke="currentColor" stroke-width="0.075"/>
<path d="M15.795 2.7702C16.1857 2.57255 16.744 2.77333 17.043 3.21549C17.3393 3.65378 17.268 4.17301 16.8772 4.37066C16.4863 4.56839 15.9282 4.36754 15.6318 3.92929C15.3328 3.48714 15.4041 2.96793 15.795 2.7702Z" fill="currentColor" stroke="currentColor" stroke-width="0.075"/>
<path d="M12.7825 9.44532C12.4485 9.64403 11.9179 9.54335 11.5979 9.2191C11.2758 8.89608 11.2854 8.47276 11.6197 8.27249C11.9537 8.07378 12.4844 8.17446 12.8048 8.49712C13.1252 8.81978 13.1153 9.24466 12.7825 9.44532Z" fill="currentColor" stroke="currentColor" stroke-width="0.075"/>
<circle cx="21.3" cy="2.925" r="1.8" fill="currentColor"/>
</g>
</g>
<defs>
<clipPath id="clip0_6027_5916">
<rect width="24" height="24" fill="currentColor"/>
</clipPath>
<clipPath id="clip1_6027_5916">
<rect width="24" height="24" fill="currentColor" transform="matrix(-1 0 0 1 24 0)"/>
</clipPath>
</defs>
</svg>
