<svg width="24" height="24" viewBox="0 0 24 24" fill="none" xmlns="http://www.w3.org/2000/svg">
<g clip-path="url(#clip0_4017_3049)">
<path d="M15.8597 21.3231L10.8646 18.4663L15.8597 15.6094L20.8548 18.4663L15.8597 21.3231Z" fill="currentColor" stroke="currentColor" stroke-width="0.104925"/>
<path d="M20.8592 19.3463L15.8606 22.1997V21.3231L20.8592 18.4697V19.3463Z" fill="currentColor" stroke="currentColor" stroke-width="0.104925"/>
<path d="M10.8646 19.3463L15.8597 22.1997V21.3231L10.8646 18.4697V19.3463Z" fill="currentColor" stroke="currentColor" stroke-width="0.104925"/>
<path d="M15.8594 15.7966L13.0691 14.2006L15.8594 12.6045L18.6497 14.1971L15.8594 15.7932V15.7966Z" fill="currentColor" stroke="currentColor" stroke-width="0.104925"/>
<path d="M18.6529 18.468L15.859 20.0606V15.7963L18.6529 14.2002V18.468Z" fill="currentColor" stroke="currentColor" stroke-width="0.104925"/>
<path d="M13.0692 18.468L15.8595 20.0606V15.7963L13.0692 14.2002V18.468Z" fill="currentColor" stroke="currentColor" stroke-width="0.104925"/>
<path d="M17.4531 12.5231C17.9117 12.785 17.9117 13.6372 17.4531 14.4195C16.9945 15.2053 16.2502 15.6314 15.7916 15.3695L12.5004 13.487L14.1619 10.6406L17.4566 12.5231H17.4531Z" fill="currentColor" stroke="currentColor" stroke-width="0.104925"/>
<path d="M16.374 14.3081C16.374 14.5525 16.5469 14.6538 16.7656 14.5316C16.9808 14.4093 17.1572 14.109 17.1572 13.861C17.1572 13.6131 16.9808 13.5153 16.7656 13.6375C16.5504 13.7632 16.374 14.0601 16.374 14.3081Z" fill="currentColor"/>
<path d="M6.27643 18.5772C9.78639 19.157 13.6632 17.1977 15.7057 13.5026C17.6318 10.024 17.3778 6.02511 15.36 3.38477L6.27643 18.5772Z" fill="currentColor" stroke="currentColor" stroke-width="0.104925"/>
<path d="M5.15011 18.1237C2.69843 16.4507 2.56086 11.8721 4.90671 7.64262C7.24903 3.40969 11.2211 1.06273 13.9656 2.20827L13.9762 2.19081L14.2972 2.36543C17.0416 3.85674 17.2886 8.63449 14.851 13.0386C12.4205 17.4286 8.23676 19.7896 5.49229 18.3297L5.14658 18.1411L5.15717 18.1237H5.15011Z" fill="currentColor" stroke="currentColor" stroke-width="0.104925"/>
<path d="M9.72193 17.589C13.2636 15.462 16.0575 10.4119 15.9693 6.31166C15.8776 2.21145 12.932 0.611879 9.39033 2.74231C5.85215 4.86925 3.05477 9.91943 3.14296 14.0196C3.23468 18.1199 6.18022 19.7194 9.72193 17.589Z" fill="currentColor" stroke="currentColor" stroke-width="0.104925"/>
<path d="M9.7144 17.2223C13.0797 15.2001 15.7395 10.3979 15.6513 6.50376C15.5632 2.60612 12.7622 1.08687 9.40044 3.10904C6.03511 5.1312 3.37531 9.92992 3.4635 13.8311C3.54816 17.7252 6.34907 19.2479 9.7144 17.2223Z" fill="currentColor" stroke="currentColor" stroke-width="0.104925"/>
<path d="M11.4886 11.9747L4.04181 7.51823L4.35929 6.93848L12.1588 10.7593C12.2505 10.8082 12.307 10.9164 12.3105 11.0736C12.3175 11.3844 12.1059 11.7686 11.8343 11.9328C11.7002 12.0131 11.5768 12.0236 11.485 11.9747H11.4886Z" fill="currentColor" stroke="currentColor" stroke-width="0.104925"/>
<path d="M4.20792 7.49603C4.33492 7.4192 4.43722 7.2341 4.43369 7.08741C4.43016 6.93723 4.32433 6.88135 4.19381 6.95819C4.06682 7.03502 3.96452 7.21663 3.96805 7.36681C3.96805 7.5135 4.0774 7.57287 4.20439 7.49603H4.20792Z" fill="currentColor"/>
<path d="M4.48931 6.62946L3.93548 6.3291L3.29346 7.48512L3.84729 7.78548C3.93195 7.83437 4.04836 7.8239 4.17888 7.74357C4.4364 7.5899 4.63747 7.22668 4.63394 6.92632C4.63042 6.77614 4.57397 6.67486 4.48931 6.62946Z" fill="currentColor" stroke="currentColor" stroke-width="0.104925"/>
<path d="M4.08065 6.62728C4.0877 6.92764 3.88663 7.29435 3.62912 7.44453C3.3716 7.60169 3.15995 7.48644 3.15289 7.18608C3.14583 6.88922 3.34691 6.5225 3.60795 6.36883C3.86546 6.21516 4.07712 6.33042 4.08418 6.62728H4.08065Z" fill="currentColor" stroke="currentColor" stroke-width="0.104925"/>
<path opacity="0.13" d="M3.83752 6.59908C3.79519 6.5921 3.7458 6.60607 3.68936 6.6375C3.53415 6.72831 3.41774 6.94135 3.42479 7.11597C3.42479 7.17884 3.44243 7.23123 3.47418 7.26266C3.4001 7.25218 3.35071 7.18233 3.34719 7.07406C3.34366 6.89944 3.46007 6.68639 3.61175 6.59559C3.707 6.53971 3.79166 6.54669 3.84105 6.59908H3.83752Z" fill="currentColor" stroke="currentColor" stroke-width="0.104925"/>
<path d="M3.83751 6.5997C3.86926 6.63113 3.8869 6.68003 3.8869 6.74638C3.89043 6.92101 3.77402 7.13405 3.62233 7.22486C3.56941 7.25978 3.5165 7.27026 3.47064 7.26328C3.44242 7.22835 3.42478 7.17946 3.42126 7.11659C3.4142 6.94197 3.53414 6.72892 3.68583 6.63812C3.74227 6.60319 3.79165 6.59271 3.83398 6.5997H3.83751Z" fill="currentColor"/>
<path d="M4.48462 7.70428L8.24247 17.9042M4.48462 6.63061L14.9529 4.21484" stroke="currentColor" stroke-width="0.0592027"/>
</g>
<defs>
<clipPath id="clip0_4017_3049">
<rect width="24" height="24" fill="currentColor"/>
</clipPath>
</defs>
</svg>
