<svg width="399" height="96" viewBox="0 0 399 96" fill="none" xmlns="http://www.w3.org/2000/svg">
<g filter="url(#filter0_ddd_6995_46644)">
<rect width="375" height="72" transform="translate(12 11)" fill="currentColor"/>
<path d="M54.1179 43.5C54.0213 43.5 53.932 43.4487 53.8833 43.3653L48.3339 33.8576C48.3097 33.816 48.2969 33.7688 48.2969 33.7206V32.7717C48.2969 32.6216 48.4185 32.5 48.5686 32.5H48.9563C50.0154 32.5 50.9046 32.402 51.624 32.2059C52.3633 32.0098 52.9428 31.6863 53.3624 31.2353C53.7274 30.8431 53.9639 30.3248 54.0719 29.6805C54.0985 29.5218 53.9719 29.3824 53.811 29.3824H48.5686C48.4185 29.3824 48.2969 29.2607 48.2969 29.1107V27.7717C48.2969 27.6216 48.4185 27.5 48.5686 27.5H53.7527C53.9234 27.5 54.0524 27.3442 54.0085 27.1792C53.8538 26.5992 53.5985 26.1178 53.2425 25.7353C52.8229 25.2647 52.2534 24.9216 51.534 24.7059C50.8346 24.4902 49.9754 24.3824 48.9563 24.3824H48.5686C48.4185 24.3824 48.2969 24.2607 48.2969 24.1107V22.7717C48.2969 22.6216 48.4185 22.5 48.5686 22.5H60.4343C60.5843 22.5 60.706 22.6216 60.706 22.7717V24.1107C60.706 24.2607 60.5843 24.3824 60.4343 24.3824H55.8075C55.5516 24.3824 55.4254 24.719 55.5968 24.9091C55.8166 25.1529 56.011 25.4185 56.1799 25.7059C56.4443 26.1554 56.6231 26.6736 56.7165 27.2604C56.7382 27.3965 56.8534 27.5 56.9913 27.5H60.4343C60.5843 27.5 60.706 27.6216 60.706 27.7717V29.1107C60.706 29.2607 60.5843 29.3824 60.4343 29.3824H57.0558C56.916 29.3824 56.7997 29.4887 56.781 29.6272C56.6035 30.9418 56.0535 31.9778 55.1309 32.7353C54.256 33.4507 53.115 33.9296 51.7081 34.1719C51.5142 34.2053 51.4109 34.424 51.5143 34.5914L56.7631 43.0855C56.8749 43.2665 56.7447 43.5 56.532 43.5H54.1179Z" fill="currentColor"/>
<text fill="currentColor" style="white-space: pre" xml:space="preserve" font-family="Basier Circle" font-size="12" letter-spacing="0px"><tspan x="26.082" y="64.7891">INDstocks</tspan></text>
<path d="M134.706 36.7758C134.706 38.1432 134.235 39.2464 133.293 40.0855C132.385 40.8955 131.175 41.374 129.661 41.521C129.52 41.5347 129.409 41.6526 129.409 41.7951V43.2283C129.409 43.3784 129.287 43.5 129.137 43.5H128.084C127.934 43.5 127.812 43.3784 127.812 43.2283V41.7965C127.812 41.6534 127.701 41.5352 127.558 41.5224C125.921 41.3745 124.661 40.8645 123.779 39.9922C122.896 39.1186 122.407 37.996 122.311 36.6244C122.3 36.4715 122.424 36.3446 122.577 36.3446H124.147C124.289 36.3446 124.407 36.4548 124.424 36.5961C124.528 37.4267 124.842 38.0965 125.365 38.6054C125.896 39.1238 126.612 39.4558 127.511 39.6016C127.671 39.6275 127.812 39.5009 127.812 39.3389V33.8648C127.812 33.7348 127.72 33.623 127.592 33.5981L127.215 33.5244C125.767 33.2137 124.679 32.6892 123.951 31.9512C123.216 31.2286 122.848 30.2497 122.848 29.0144C122.848 27.6859 123.277 26.6215 124.135 25.8213C124.962 25.0715 126.103 24.6242 127.56 24.4796C127.702 24.4655 127.812 24.3478 127.812 24.2055V22.7717C127.812 22.6216 127.934 22.5 128.084 22.5H129.137C129.287 22.5 129.409 22.6216 129.409 22.7717V24.2336C129.409 24.3739 129.516 24.4906 129.655 24.5078C131.044 24.6792 132.176 25.187 133.051 26.0311C133.879 26.8492 134.332 27.8798 134.408 29.1228C134.417 29.2744 134.294 29.399 134.142 29.399H132.592C132.445 29.399 132.325 29.2818 132.311 29.1355C132.243 28.4493 131.989 27.8613 131.546 27.3713C131.098 26.896 130.487 26.5856 129.714 26.4401C129.553 26.4098 129.409 26.537 129.409 26.7006V31.6333C129.409 31.7637 129.502 31.8757 129.63 31.9002L130.018 31.9745C133.143 32.6193 134.706 34.2198 134.706 36.7758ZM127.787 31.4962C127.788 31.4965 127.79 31.4967 127.791 31.4967C127.803 31.4967 127.812 31.4874 127.812 31.4759V26.6689C127.812 26.5083 127.673 26.3821 127.514 26.4055C125.828 26.6531 124.986 27.5228 124.986 29.0144C124.986 30.257 125.919 31.0842 127.787 31.4962ZM129.409 39.3457C129.409 39.5053 129.547 39.631 129.705 39.6103C131.607 39.3624 132.557 38.4175 132.557 36.7758C132.557 36.0144 132.308 35.4162 131.811 34.9811C131.313 34.5694 130.581 34.2586 129.616 34.0488C129.51 34.0249 129.409 34.1056 129.409 34.2142V39.3457Z" fill="currentColor"/>
<text fill="currentColor" style="white-space: pre" xml:space="preserve" font-family="Basier Circle" font-size="12" letter-spacing="0px"><tspan x="99.8945" y="64.7891">US Stocks</tspan></text>
<circle cx="199.5" cy="33" r="12.2412" stroke="currentColor" stroke-width="1.51751"/>
<path d="M203.926 34.609L199.5 30.6822L195.074 34.609M203.926 30.3315L199.5 26.4048L195.074 30.3315M203.926 39.1413L199.5 35.2146L195.074 39.1413" stroke="currentColor" stroke-width="1.57152" stroke-linecap="round" stroke-linejoin="round"/>
<text fill="currentColor" style="white-space: pre" xml:space="preserve" font-family="Basier Circle" font-size="12" letter-spacing="0px"><tspan x="169.395" y="64.7715">Dashboard</tspan></text>
<path fill-rule="evenodd" clip-rule="evenodd" d="M268.482 38.7952C268.629 38.7952 268.749 38.9147 268.749 39.0622L268.749 43.0895C268.749 43.2369 268.629 43.3565 268.482 43.3565L267.226 43.3565C267.079 43.3565 266.959 43.2369 266.959 43.0895L266.959 39.0622C266.959 38.9147 267.079 38.7952 267.226 38.7952L268.482 38.7952Z" fill="currentColor"/>
<path fill-rule="evenodd" clip-rule="evenodd" d="M273.253 35.5536C273.401 35.5536 273.52 35.6732 273.52 35.8206L273.52 43.0934C273.52 43.2408 273.401 43.3604 273.253 43.3604L271.997 43.3604C271.85 43.3604 271.73 43.2408 271.73 43.0934L271.73 35.8206C271.73 35.6732 271.85 35.5536 271.997 35.5536L273.253 35.5536Z" fill="currentColor"/>
<path fill-rule="evenodd" clip-rule="evenodd" d="M282.8 31.2378C282.947 31.2378 283.067 31.3573 283.067 31.5048L283.067 43.0917C283.067 43.2392 282.947 43.3587 282.8 43.3587L281.544 43.3587C281.397 43.3587 281.277 43.2392 281.277 43.0917L281.277 31.5048C281.277 31.3573 281.397 31.2378 281.544 31.2378L282.8 31.2378Z" fill="currentColor"/>
<path fill-rule="evenodd" clip-rule="evenodd" d="M278.026 32.9211C278.174 32.9211 278.294 33.0407 278.294 33.1881L278.294 43.0917C278.294 43.2392 278.174 43.3587 278.026 43.3587L276.771 43.3587C276.623 43.3587 276.504 43.2392 276.504 43.0917L276.504 33.1881C276.504 33.0407 276.623 32.9211 276.771 32.9211L278.026 32.9211Z" fill="currentColor"/>
<path fill-rule="evenodd" clip-rule="evenodd" d="M277.188 22.6274C277.188 22.4799 277.307 22.3604 277.455 22.3604H282.801C282.948 22.3604 283.068 22.4799 283.068 22.6274V28.2232C283.068 28.3707 282.948 28.4902 282.801 28.4902H281.545C281.398 28.4902 281.278 28.3707 281.278 28.2232V25.8905C281.278 25.8162 281.186 25.782 281.137 25.8384L277.295 30.321C277.29 30.3269 277.285 30.3329 277.28 30.3389C277.192 30.4411 277.095 30.5547 277.003 30.6457C276.902 30.7464 276.742 30.8871 276.513 30.9739C276.206 31.0903 275.869 31.0903 275.562 30.9739C275.333 30.8871 275.173 30.7464 275.072 30.6457C275.01 30.5846 274.946 30.5133 274.884 30.4422C274.877 30.4338 274.868 30.4267 274.859 30.4209L273.031 29.3102C272.99 29.2854 272.938 29.2907 272.903 29.3233L267.889 33.9915C267.846 34.0317 267.779 34.0293 267.739 33.9861L266.665 32.8327C266.624 32.7896 266.627 32.722 266.67 32.6818L271.744 27.9567C271.827 27.86 271.918 27.7552 272.004 27.6702C272.105 27.5695 272.265 27.4288 272.494 27.3419C272.801 27.2255 273.138 27.2255 273.445 27.3419C273.674 27.4288 273.834 27.5695 273.935 27.6702C273.997 27.7313 274.061 27.8025 274.123 27.8737C274.13 27.882 274.139 27.8892 274.148 27.895L275.957 28.9945C276.002 29.0216 276.06 29.0124 276.094 28.9727L280.114 24.2822C280.159 24.2302 280.122 24.1499 280.054 24.1499H277.455C277.307 24.1499 277.188 24.0304 277.188 23.8829V22.6274Z" fill="currentColor"/>
<text fill="currentColor" style="white-space: pre" xml:space="preserve" font-family="Basier Circle" font-size="12" letter-spacing="0px"><tspan x="255.682" y="64.7891">Mutual </tspan><tspan x="260.984" y="79.7891">Fund</tspan></text>
<path d="M353.96 41.604C355.024 41.604 355.557 41.604 355.963 41.4099C356.321 41.2392 356.612 40.9668 356.794 40.6318C357.001 40.2509 357.001 39.7523 357.001 38.7551V31.989C357.001 30.9918 357.001 30.4932 356.794 30.1124C356.612 29.7773 356.321 29.5049 355.963 29.3342C355.557 29.1402 355.024 29.1402 353.96 29.1402L341.034 29.1402C339.969 29.1402 339.437 29.1402 339.03 29.3342C338.672 29.5049 338.382 29.7773 338.199 30.1124C337.992 30.4932 337.992 30.9918 337.992 31.989L337.992 38.7551C337.992 39.7523 337.992 40.2509 338.199 40.6318C338.382 40.9668 338.672 41.2392 339.03 41.4099C339.437 41.604 339.969 41.604 341.034 41.604L353.96 41.604Z" stroke="currentColor" stroke-width="1.4" stroke-linecap="square" stroke-linejoin="round"/>
<path d="M350.968 37.9085C352.032 37.9085 352.564 37.9085 352.971 37.7153C353.329 37.5453 353.62 37.2741 353.802 36.9406C354.009 36.5614 354.009 36.065 354.009 35.0721V28.3359C354.009 27.3431 354.009 26.8467 353.802 26.4675C353.62 26.1339 353.329 25.8627 352.971 25.6928C352.564 25.4995 352.032 25.4995 350.968 25.4995L338.041 25.4995C336.977 25.4995 336.445 25.4995 336.038 25.6928C335.68 25.8627 335.389 26.1339 335.207 26.4675C335 26.8467 335 27.3431 335 28.3359L335 35.0721C335 36.065 335 36.5614 335.207 36.9406C335.389 37.2741 335.68 37.5453 336.038 37.7153C336.445 37.9085 336.977 37.9085 338.041 37.9085L350.968 37.9085Z" fill="currentColor" stroke="currentColor" stroke-width="1.4" stroke-linecap="square" stroke-linejoin="round"/>
<path fill-rule="evenodd" clip-rule="evenodd" d="M338.796 29.1402C339.079 29.1402 339.221 29.1402 339.328 29.1947C339.422 29.2426 339.499 29.3191 339.547 29.4132C339.601 29.5201 339.601 29.6601 339.601 29.9402V33.4667C339.601 33.7467 339.601 33.8867 339.547 33.9937C339.499 34.0878 339.422 34.1643 339.328 34.2122C339.221 34.2667 339.079 34.2667 338.796 34.2667C338.512 34.2667 338.37 34.2667 338.263 34.2122C338.169 34.1643 338.093 34.0878 338.045 33.9937C337.99 33.8867 337.99 33.7467 337.99 33.4667V29.9402C337.99 29.6601 337.99 29.5201 338.045 29.4132C338.093 29.3191 338.169 29.2426 338.263 29.1947C338.37 29.1402 338.512 29.1402 338.796 29.1402ZM350.201 29.1402C350.485 29.1402 350.627 29.1402 350.734 29.1947C350.828 29.2426 350.904 29.3191 350.952 29.4132C351.007 29.5201 351.007 29.6601 351.007 29.9402V33.4667C351.007 33.7467 351.007 33.8867 350.952 33.9937C350.904 34.0878 350.828 34.1643 350.734 34.2122C350.627 34.2667 350.485 34.2667 350.201 34.2667C349.917 34.2667 349.776 34.2667 349.669 34.2122C349.575 34.1643 349.498 34.0878 349.45 33.9937C349.396 33.8867 349.396 33.7467 349.396 33.4667V29.9402C349.396 29.6601 349.396 29.5201 349.45 29.4132C349.498 29.3191 349.575 29.2426 349.669 29.1947C349.776 29.1402 349.917 29.1402 350.201 29.1402Z" fill="currentColor"/>
<path d="M344.504 33.7567C345.66 33.7567 346.596 32.8374 346.596 31.7033C346.596 30.5693 345.66 29.6499 344.504 29.6499C343.349 29.6499 342.412 30.5693 342.412 31.7033C342.412 32.8374 343.349 33.7567 344.504 33.7567Z" fill="currentColor" stroke="currentColor" stroke-width="1.4" stroke-linecap="square" stroke-linejoin="round"/>
<text fill="currentColor" style="white-space: pre" xml:space="preserve" font-family="Basier Circle" font-size="12" letter-spacing="0px"><tspan x="316.105" y="64.7891">Insta Cash</tspan></text>
<path d="M171.164 11H227.164C227.164 12.1046 226.269 13 225.164 13H173.164C172.059 13 171.164 12.1046 171.164 11Z" fill="currentColor"/>
</g>
<defs>
<filter id="filter0_ddd_6995_46644" x="0" y="0" width="399" height="96" filterUnits="userSpaceOnUse" color-interpolation-filters="sRGB">
<feFlood flood-opacity="0" result="BackgroundImageFix"/>
<feColorMatrix in="SourceAlpha" type="matrix" values="0 0 0 0 0 0 0 0 0 0 0 0 0 0 0 0 0 0 127 0" result="hardAlpha"/>
<feOffset dy="1"/>
<feGaussianBlur stdDeviation="6"/>
<feColorMatrix type="matrix" values="0 0 0 0 0 0 0 0 0 0 0 0 0 0 0 0 0 0 0.12 0"/>
<feBlend mode="normal" in2="BackgroundImageFix" result="effect1_dropShadow_6995_46644"/>
<feColorMatrix in="SourceAlpha" type="matrix" values="0 0 0 0 0 0 0 0 0 0 0 0 0 0 0 0 0 0 127 0" result="hardAlpha"/>
<feOffset dy="4"/>
<feGaussianBlur stdDeviation="4"/>
<feColorMatrix type="matrix" values="0 0 0 0 0 0 0 0 0 0 0 0 0 0 0 0 0 0 0.02 0"/>
<feBlend mode="normal" in2="effect1_dropShadow_6995_46644" result="effect2_dropShadow_6995_46644"/>
<feColorMatrix in="SourceAlpha" type="matrix" values="0 0 0 0 0 0 0 0 0 0 0 0 0 0 0 0 0 0 127 0" result="hardAlpha"/>
<feOffset dy="1"/>
<feGaussianBlur stdDeviation="2"/>
<feColorMatrix type="matrix" values="0 0 0 0 0 0 0 0 0 0 0 0 0 0 0 0 0 0 0.01 0"/>
<feBlend mode="normal" in2="effect2_dropShadow_6995_46644" result="effect3_dropShadow_6995_46644"/>
<feBlend mode="normal" in="SourceGraphic" in2="effect3_dropShadow_6995_46644" result="shape"/>
</filter>
</defs>
</svg>
