<svg width="24" height="24" viewBox="0 0 24 24" fill="none" xmlns="http://www.w3.org/2000/svg">
<g clip-path="url(#clip0_3396_70835)">
<g clip-path="url(#clip1_3396_70835)">
<circle cx="12" cy="12" r="12" fill="currentColor"/>
<path d="M16.0777 6.77264C16.701 7.28053 17.3354 7.86675 17.6791 8.60584C17.6791 8.69866 17.6791 8.79147 17.6791 8.88709C17.3137 8.96342 17.012 8.97666 16.6479 8.88709C16.3492 8.63037 16.1122 8.35043 15.862 8.0481C15.2313 7.28828 14.1539 6.74873 13.1791 6.63709C12.8587 6.61992 12.539 6.61548 12.2182 6.61366C12.0929 6.61076 12.0929 6.61076 11.9651 6.6078C10.6139 6.59995 9.48325 7.18648 8.51248 8.1034C7.61558 9.05547 7.22798 10.1347 7.08535 11.4183C8.13723 11.3874 9.1891 11.3565 10.2729 11.3246C10.0408 11.139 10.0408 11.139 9.8041 10.9496C9.6531 10.4117 9.6531 10.4117 9.79824 10.1117C10.121 9.94542 10.3973 9.91781 10.7416 10.0121C11.0571 10.2294 11.3188 10.488 11.5854 10.7621C11.6633 10.8384 11.6633 10.8384 11.7428 10.9163C11.8482 11.0195 11.9515 11.1249 12.0541 11.2308C12.027 11.1605 12 11.0902 11.9721 11.0177C11.7495 10.404 11.5565 9.82484 11.6791 9.16834C11.8373 8.92225 11.8373 8.92225 12.0541 8.79334C12.3514 8.73389 12.4767 8.76713 12.7396 8.91639C12.9951 9.32321 12.954 9.7326 12.8979 10.1996C12.8227 10.4624 12.7247 10.6974 12.6166 10.9496C12.6166 11.0424 12.6166 11.1352 12.6166 11.2308C12.681 11.1586 12.7454 11.0863 12.8118 11.0118C12.8971 10.9169 12.9824 10.8219 13.0678 10.7269C13.1313 10.6555 13.1313 10.6555 13.1961 10.5827C13.6951 10.0291 13.6951 10.0291 14.0408 9.98719C14.1142 9.98767 14.1875 9.98816 14.2631 9.98866C14.3735 9.98793 14.3735 9.98793 14.4861 9.98719C14.6791 10.0121 14.6791 10.0121 14.8666 10.1996C14.907 10.5632 14.928 10.7717 14.7084 11.0726C14.297 11.3728 13.8829 11.4533 13.3842 11.5238C13.2753 11.5395 13.1664 11.5552 13.0542 11.5714C12.9717 11.5828 12.8891 11.5941 12.8041 11.6058C12.8041 11.6677 12.8041 11.7296 12.8041 11.7933C12.9085 11.803 13.0129 11.8127 13.1205 11.8226C13.6901 11.8956 14.2553 12.0108 14.7377 12.3324C14.9247 12.6384 14.9176 12.8488 14.8666 13.1996C14.7201 13.3871 14.7201 13.3871 14.4916 13.4808C14.1045 13.4808 13.9046 13.4457 13.6068 13.1937C13.4879 13.0574 13.4879 13.0574 13.3666 12.9183C13.2326 12.7828 13.0978 12.6481 12.9623 12.514C12.8471 12.3988 12.7318 12.2836 12.6166 12.1683C12.6554 12.4464 12.6942 12.6932 12.8056 12.952C12.9618 13.3712 12.9528 13.7902 12.8979 14.2308C12.7396 14.4828 12.7396 14.4828 12.5229 14.6058C12.2225 14.6659 12.1002 14.6332 11.8373 14.4769C11.5923 14.0959 11.6206 13.7339 11.6791 13.2933C11.7538 13.0595 11.8516 12.859 11.9604 12.6371C12.0252 12.3766 12.0252 12.3766 12.0541 12.1683C11.9903 12.2322 11.9265 12.296 11.8607 12.3617C11.8182 12.404 11.7757 12.4463 11.7318 12.4899C11.6274 12.5949 11.5239 12.701 11.4213 12.8077C11.3652 12.8655 11.3091 12.9233 11.2514 12.9828C11.199 13.0373 11.1467 13.0918 11.0928 13.148C10.8509 13.3628 10.6392 13.4681 10.3197 13.516C10.0854 13.4808 10.0854 13.4808 9.86855 13.3285C9.71035 13.1058 9.71035 13.1058 9.65762 12.8246C9.71035 12.5433 9.71035 12.5433 9.93301 12.3265C10.1791 12.1683 10.1791 12.1683 10.3666 12.0746C9.25285 12.0437 8.1391 12.0127 6.9916 11.9808C7.45553 13.7206 8.01864 15.2281 9.6166 16.1996C10.7676 16.8304 12.1628 17.1036 13.4549 16.7705C14.5154 16.4561 15.7345 15.9072 16.2904 14.8988C16.3981 14.7322 16.3981 14.7322 16.5541 14.6058C16.9349 14.5494 17.2971 14.5675 17.6791 14.6058C17.2229 15.8964 15.9574 16.8357 14.7729 17.4183C13.1997 18.0476 11.4311 18.1284 9.85537 17.4707C8.23665 16.7157 7.07194 15.5272 6.4291 13.8558C6.39647 13.777 6.36384 13.6983 6.33022 13.6171C5.77539 12.1773 5.96314 10.5119 6.57046 9.12733C7.3764 7.53794 8.59007 6.40598 10.2729 5.79334C12.3019 5.18532 14.3833 5.49569 16.0777 6.77264Z" fill="currentColor"/>
</g>
</g>
<defs>
<clipPath id="clip0_3396_70835">
<rect width="24" height="24" fill="currentColor"/>
</clipPath>
<clipPath id="clip1_3396_70835">
<rect width="24" height="24" fill="currentColor"/>
</clipPath>
</defs>
</svg>
