<svg width="24" height="24" viewBox="0 0 24 24" fill="none" xmlns="http://www.w3.org/2000/svg">
<g clip-path="url(#clip0_3396_50780)">
<path d="M23.25 11.625C23.25 5.20469 18.0453 0 11.625 0C5.20469 0 0 5.20469 0 11.625C0 18.0453 5.20469 23.25 11.625 23.25C18.0453 23.25 23.25 18.0453 23.25 11.625Z" fill="currentColor"/>
<path fill-rule="evenodd" clip-rule="evenodd" d="M12.2441 7.18717H17.974C18.1148 7.18717 18.2283 7.29717 18.2283 7.43209C18.2283 7.56847 18.1148 7.67847 17.974 7.67847H12.2441C12.1033 7.67847 11.9897 7.56847 11.9897 7.43354C11.9897 7.29717 12.1033 7.18717 12.2441 7.18717ZM15.2385 9.12741H19.6665C19.8073 9.12741 19.9208 9.23742 19.9208 9.37234C19.9208 9.50871 19.8073 9.61872 19.6665 9.61872H15.2385C15.0977 9.61872 14.9841 9.50871 14.9841 9.37379C14.9841 9.23742 15.0977 9.12741 15.2385 9.12741ZM16.3254 10.0983H20.0329C20.1706 10.0983 20.2872 10.2068 20.2872 10.3432C20.2872 10.4796 20.1706 10.5896 20.0329 10.5896H16.3254C16.1861 10.5896 16.0726 10.4796 16.0726 10.3432C16.0726 10.2083 16.1861 10.0983 16.3254 10.0983ZM17.2731 11.0677H20.1858C20.325 11.0677 20.4386 11.1791 20.4386 11.3126C20.4386 11.449 20.325 11.559 20.1858 11.559H17.2731C17.1323 11.559 17.0188 11.449 17.0188 11.314C17.0188 11.1791 17.1323 11.0677 17.2731 11.0677ZM18.142 12.0385L20.1494 12.0371C20.2902 12.0371 20.4037 12.147 20.4037 12.2835C20.4037 12.4198 20.2902 12.5298 20.1494 12.5298H18.142C18.0028 12.5298 17.8877 12.4198 17.8877 12.2835C17.8877 12.1485 18.0028 12.0385 18.142 12.0385ZM18.9489 13.0094H19.9239C20.0646 13.0094 20.1782 13.1179 20.1782 13.2543C20.1782 13.3892 20.0646 13.4992 19.9239 13.4992H18.9489C18.8097 13.4992 18.6946 13.3892 18.6946 13.2543C18.6946 13.1179 18.8097 13.0094 18.9489 13.0094ZM13.9729 8.15658H19.0292C19.17 8.15658 19.282 8.26655 19.282 8.40296C19.282 8.53788 19.17 8.64785 19.0292 8.64785L13.9729 8.64934C13.8336 8.64934 13.72 8.53934 13.72 8.40296C13.72 8.26655 13.8336 8.15658 13.9729 8.15658ZM9.14516 17.0351C6.05993 17.0351 3.56055 14.6123 3.56055 11.625C3.56055 8.63611 6.05993 6.21484 9.14516 6.21484L15.5322 6.21633C15.6729 6.21633 15.7865 6.3263 15.7865 6.46271C15.7865 6.59763 15.6729 6.7076 15.5322 6.70909H12.1638C11.9019 6.70909 11.3963 6.80735 11.1359 6.91292C10.9194 7.00091 10.8362 7.01265 10.7741 6.98918C10.6697 6.94667 10.65 6.82494 10.6938 6.76333C10.762 6.66215 10.7468 6.30726 10.3139 6.63723C10.2654 6.67683 7.1151 8.95584 7.09238 8.96902C6.87439 9.11717 6.80171 9.26234 6.8229 9.44274L4.81099 11.1146C4.6566 11.2261 4.43708 11.4827 4.52186 11.7951C4.59604 12.0737 4.58239 12.3348 4.70655 12.4712C4.70655 12.4712 4.74289 12.5327 4.80645 12.5005C4.82918 12.4887 5.59215 11.9652 5.59215 11.9652C5.66329 11.9183 5.75715 11.9344 5.8056 12.0004C5.85405 12.0693 5.8374 12.1603 5.79199 12.191C5.79199 12.191 5.28634 12.5313 5.27423 12.546C5.25 12.5709 5.20763 12.7307 5.48164 12.7088C5.61484 12.7088 5.87978 12.6941 5.91008 12.6941C6.19316 12.6955 6.23554 12.5034 6.23554 12.5034C6.24915 12.4682 6.28095 12.4081 6.32636 12.3802C6.37935 12.348 7.08934 12.0752 7.42695 11.9579C7.78271 11.8347 8.24291 11.9447 8.69104 11.8435C9.03619 11.7643 9.23603 11.5663 9.31624 11.4021C9.37376 11.2818 9.47824 11.2246 9.56149 11.229C10.279 11.2715 10.7423 15.2679 12.3879 16.6186C12.4302 16.6626 12.5165 16.7403 12.5165 16.8195C12.5165 16.9368 12.4197 17.0336 12.297 17.0336L9.14516 17.0351Z" fill="currentColor"/>
</g>
<defs>
<clipPath id="clip0_3396_50780">
<rect width="24" height="23.25" fill="currentColor"/>
</clipPath>
</defs>
</svg>
