<svg width="24" height="24" viewBox="0 0 24 24" fill="none" xmlns="http://www.w3.org/2000/svg">
<g clip-path="url(#clip0_6029_6411)">
<g clip-path="url(#clip1_6029_6411)">
<path d="M14.7661 20.388V8.80967C14.7764 8.74812 14.742 8.68657 14.6595 8.6387C14.5151 8.55663 14.2812 8.55663 14.1402 8.6387C14.0577 8.68657 14.0268 8.74812 14.0371 8.80967V20.388C14.0302 20.4461 14.0646 20.5077 14.1437 20.5521C14.2881 20.6342 14.5219 20.6342 14.6629 20.5521C14.742 20.5077 14.7764 20.4461 14.7661 20.388Z" fill="currentColor" stroke="currentColor" stroke-width="0.075"/>
<path d="M14.7622 8.80989C14.7725 8.74834 14.7382 8.68679 14.6556 8.63891C14.5525 8.58078 14.4046 8.56368 14.2739 8.58762C14.3289 8.59788 14.3805 8.61498 14.4218 8.64233C14.5043 8.69362 14.5353 8.76201 14.5284 8.82698V20.5968C14.5765 20.5865 14.6178 20.5694 14.6556 20.5489C14.7347 20.5045 14.7691 20.4429 14.7588 20.3848V8.80989H14.7622Z" fill="currentColor" stroke="currentColor" stroke-width="0.075"/>
<g opacity="0.3" style="mix-blend-mode:multiply">
<path d="M14.6595 8.64163C14.5151 8.55956 14.2812 8.55956 14.1402 8.64163C14.0577 8.6895 14.0268 8.75105 14.0371 8.8126V12.7108L14.7695 12.2868V8.80918C14.7798 8.74763 14.7455 8.68608 14.6629 8.63821L14.6595 8.64163Z" fill="currentColor"/>
<path d="M14.6595 8.64163C14.5151 8.55956 14.2812 8.55956 14.1402 8.64163C14.0577 8.6895 14.0268 8.75105 14.0371 8.8126V12.7108L14.7695 12.2868V8.80918C14.7798 8.74763 14.7455 8.68608 14.6629 8.63821L14.6595 8.64163Z" stroke="currentColor" stroke-width="0.075"/>
</g>
<path d="M12.3564 21.8997V10.3214C12.3667 10.2598 12.3324 10.1983 12.2498 10.1504C12.1054 10.0684 11.8716 10.0684 11.7306 10.1504C11.648 10.1983 11.6171 10.2598 11.6274 10.3214V21.8997C11.6205 21.9578 11.6549 22.0194 11.734 22.0638C11.8784 22.1459 12.1123 22.1459 12.2533 22.0638C12.3324 22.0194 12.3667 21.9578 12.3564 21.8997Z" fill="currentColor" stroke="currentColor" stroke-width="0.075"/>
<path d="M12.3526 10.3216C12.3629 10.2601 12.3285 10.1985 12.246 10.1506C12.1428 10.0925 11.9949 10.0754 11.8643 10.0993C11.9193 10.1096 11.9709 10.1267 12.0121 10.1541C12.0947 10.2053 12.1256 10.2737 12.1187 10.3387V22.1085C12.1669 22.0982 12.2081 22.0811 12.246 22.0606C12.3251 22.0162 12.3594 21.9546 12.3491 21.8965V10.3216H12.3526Z" fill="currentColor" stroke="currentColor" stroke-width="0.075"/>
<g opacity="0.3" style="mix-blend-mode:multiply">
<path d="M12.2498 10.1543C12.1054 10.0723 11.8716 10.0723 11.7306 10.1543C11.648 10.2022 11.6171 10.2637 11.6274 10.3253V14.2235L12.3599 13.7995V10.3219C12.3702 10.2603 12.3358 10.1988 12.2533 10.1509L12.2498 10.1543Z" fill="currentColor"/>
<path d="M12.2498 10.1543C12.1054 10.0723 11.8716 10.0723 11.7306 10.1543C11.648 10.2022 11.6171 10.2637 11.6274 10.3253V14.2235L12.3599 13.7995V10.3219C12.3702 10.2603 12.3358 10.1988 12.2533 10.1509L12.2498 10.1543Z" stroke="currentColor" stroke-width="0.075"/>
</g>
<path d="M17.4165 18.8665V7.28819C17.4268 7.22664 17.3924 7.16509 17.3099 7.11721C17.1655 7.03515 16.9316 7.03515 16.7906 7.11721C16.7081 7.16509 16.6771 7.22664 16.6875 7.28819V18.8665C16.6806 18.9246 16.715 18.9862 16.7941 19.0306C16.9385 19.1127 17.1723 19.1127 17.3133 19.0306C17.3924 18.9862 17.4268 18.9246 17.4165 18.8665Z" fill="currentColor" stroke="currentColor" stroke-width="0.075"/>
<path d="M17.417 7.2884C17.4273 7.22685 17.3929 7.1653 17.3104 7.11743C17.2073 7.0593 17.0594 7.0422 16.9287 7.06614C16.9837 7.07639 17.0353 7.09349 17.0766 7.12085C17.1591 7.17214 17.1901 7.24053 17.1832 7.3055V19.0753C17.2313 19.065 17.2726 19.0479 17.3104 19.0274C17.3895 18.983 17.4239 18.9214 17.4136 18.8633V7.2884H17.417Z" fill="currentColor" stroke="currentColor" stroke-width="0.075"/>
<g opacity="0.3" style="mix-blend-mode:multiply">
<path d="M17.3099 7.11721C17.1655 7.03515 16.9316 7.03515 16.7906 7.11721C16.7081 7.16509 16.6771 7.22664 16.6875 7.28819V11.1864L17.4199 10.7624V7.28819C17.4302 7.22664 17.3959 7.16509 17.3133 7.11721H17.3099Z" fill="currentColor"/>
<path d="M17.3099 7.11721C17.1655 7.03515 16.9316 7.03515 16.7906 7.11721C16.7081 7.16509 16.6771 7.22664 16.6875 7.28819V11.1864L17.4199 10.7624V7.28819C17.4302 7.22664 17.3959 7.16509 17.3133 7.11721H17.3099Z" stroke="currentColor" stroke-width="0.075"/>
</g>
<path d="M11.3028 8.67798L6.10738 5.66016L6.14047 17.3287L11.3359 20.3465L11.3028 8.67798Z" fill="currentColor" stroke="currentColor" stroke-width="0.075"/>
<path d="M17.8604 4.89477L12.6649 1.875L6.10875 5.65944L11.3042 8.67726L17.8604 4.89477Z" fill="currentColor" stroke="currentColor" stroke-width="0.075"/>
<path d="M11.3033 8.67702L11.3364 20.3455L17.8926 16.5611L17.8595 4.89453L11.3033 8.67702Z" fill="currentColor" stroke="currentColor" stroke-width="0.075"/>
<g clip-path="url(#clip2_6029_6411)">
<path d="M14.6816 8.95174L17.0088 11.5739C17.0586 11.6304 17.0023 11.7651 16.9091 11.8138L12.2547 14.2331C12.1615 14.2818 12.1052 14.2058 12.155 14.0985L14.4822 9.05514C14.5277 8.95564 14.6361 8.89906 14.6816 8.95174Z" fill="currentColor"/>
<path d="M14.4571 10.1188L15.053 9.81055L14.4095 11.3616L15.2134 10.6787L14.2015 12.9185L14.5872 11.5255L13.9198 12.1166L14.4571 10.1188Z" fill="currentColor"/>
<path d="M14.197 12.9575L14.2013 12.5361L14.2793 12.6902L14.4917 12.4814L14.197 12.9575Z" fill="currentColor"/>
<path d="M16.7231 11.6581C16.747 11.6035 16.7448 11.5527 16.7188 11.5254L14.6928 9.23886C14.669 9.21154 14.6278 9.20959 14.5845 9.23301C14.5411 9.25642 14.5 9.30129 14.4761 9.35202L12.4479 13.7456C12.4219 13.8003 12.4219 13.851 12.4436 13.8822C12.4674 13.9134 12.5086 13.9173 12.5563 13.892L16.6105 11.7849C16.6581 11.7595 16.7015 11.7127 16.7231 11.6581ZM14.6473 9.28958L16.6755 11.5761C16.6906 11.5937 16.6906 11.623 16.6776 11.6561C16.6646 11.6893 16.6386 11.7166 16.6105 11.7322L12.5541 13.8412C12.5259 13.8569 12.4999 13.853 12.4869 13.8354C12.4739 13.8178 12.4739 13.7866 12.4891 13.7535L14.5173 9.35787C14.5325 9.32665 14.5563 9.30129 14.5823 9.28763C14.6083 9.27398 14.6343 9.27593 14.6473 9.29153V9.28958Z" fill="currentColor"/>
</g>
<path d="M13.0128 15.8028C13.0042 15.801 12.9951 15.8001 12.986 15.7996C12.9842 15.7996 12.9824 15.7996 12.9805 15.7996C12.9714 15.7996 12.9624 15.7996 12.9533 15.8001C12.9523 15.8001 12.951 15.8001 12.9501 15.8001C12.9405 15.801 12.9305 15.8023 12.9201 15.8046C12.9192 15.8046 12.9178 15.8051 12.9169 15.8055C12.9064 15.8078 12.896 15.811 12.8851 15.8142C12.8841 15.8142 12.8837 15.8146 12.8828 15.8151C12.8714 15.8187 12.86 15.8232 12.8487 15.8287C12.8478 15.8287 12.8473 15.8296 12.8464 15.8296C12.8346 15.8351 12.8228 15.841 12.8109 15.8482L12.4904 15.6619C12.494 15.6596 12.4981 15.6574 12.5018 15.6555C12.5068 15.6528 12.5118 15.6505 12.5163 15.6478C12.5195 15.6465 12.5227 15.6446 12.5259 15.6433C12.5268 15.6433 12.5272 15.6424 12.5281 15.6424C12.529 15.6424 12.53 15.6415 12.5309 15.641C12.5359 15.6387 12.5404 15.6369 12.5454 15.6351C12.5504 15.6333 12.555 15.6315 12.56 15.6296C12.5609 15.6296 12.5618 15.6292 12.5627 15.6287C12.5636 15.6287 12.5641 15.6283 12.565 15.6278C12.5681 15.6269 12.5713 15.6256 12.5745 15.6246C12.5795 15.6233 12.5845 15.6219 12.5895 15.6206C12.5918 15.6201 12.5941 15.6196 12.5968 15.6192C12.5977 15.6192 12.5991 15.6187 12.6 15.6183C12.6013 15.6183 12.6032 15.6174 12.6045 15.6174C12.61 15.6165 12.615 15.6156 12.6204 15.6146C12.6236 15.6146 12.6268 15.6142 12.63 15.6137C12.6309 15.6137 12.6323 15.6137 12.6332 15.6137C12.6341 15.6137 12.6354 15.6137 12.6363 15.6137C12.6423 15.6137 12.6477 15.6133 12.6532 15.6133C12.6554 15.6133 12.6582 15.6133 12.6604 15.6133C12.6623 15.6133 12.6641 15.6133 12.6659 15.6133C12.6677 15.6133 12.67 15.6133 12.6718 15.6133C12.6791 15.6137 12.6859 15.6151 12.6927 15.6165C12.6941 15.6165 12.6959 15.6174 12.6973 15.6178C12.7041 15.6192 12.7109 15.621 12.7177 15.6233C12.7182 15.6233 12.7186 15.6237 12.7191 15.6242C12.7286 15.6278 12.7377 15.6319 12.7468 15.6369L13.0674 15.8232C13.0587 15.8182 13.0492 15.8142 13.0396 15.8105C13.0328 15.8078 13.0251 15.806 13.0178 15.8042C13.0165 15.8042 13.0151 15.8033 13.0133 15.8028H13.0128Z" fill="currentColor" stroke="currentColor" stroke-width="0.075"/>
<path d="M12.1332 16.267C12.1391 16.1157 12.2028 15.9707 12.291 15.8489C12.3455 15.7753 12.4124 15.7085 12.492 15.6621L12.8125 15.8484C12.7329 15.8948 12.6661 15.9612 12.6115 16.0352C12.4883 16.2011 12.3519 16.5515 12.5588 16.7001L12.2382 16.5138C12.1546 16.4638 12.13 16.3584 12.1337 16.2666L12.1332 16.267Z" fill="currentColor" stroke="currentColor" stroke-width="0.075"/>
<path d="M12.8103 15.8477C12.6116 15.9626 12.4507 16.2403 12.4516 16.4685C12.4525 16.6966 12.6139 16.7889 12.8126 16.6744C13.0113 16.5598 13.1718 16.2817 13.1709 16.0535C13.1704 15.8254 13.0086 15.7336 12.8099 15.8481L12.8103 15.8477Z" fill="currentColor" stroke="currentColor" stroke-width="0.075"/>
<circle cx="20.925" cy="2.925" r="1.8" fill="currentColor"/>
</g>
</g>
<defs>
<clipPath id="clip0_6029_6411">
<rect width="24" height="24" fill="currentColor"/>
</clipPath>
<clipPath id="clip1_6029_6411">
<rect width="24" height="24" fill="currentColor"/>
</clipPath>
<clipPath id="clip2_6029_6411">
<rect width="5.65116" height="6.12221" fill="currentColor" transform="matrix(-1 0 0 1 17.4102 8.5498)"/>
</clipPath>
</defs>
</svg>
