<svg width="24" height="24" viewBox="0 0 24 24" fill="none" xmlns="http://www.w3.org/2000/svg">
<g clip-path="url(#clip0_4017_3029)">
<g clip-path="url(#clip1_4017_3029)">
<path d="M12.2567 4.87549H11.7417C8.27307 4.87549 5.43446 7.7141 5.43446 11.1827V18.1912C5.43446 19.5734 6.56495 20.7054 7.94862 20.7054H15.6904C17.2705 20.7054 18.564 19.4119 18.564 17.8319V11.1827C18.564 7.7141 15.7253 4.87549 12.2567 4.87549Z" fill="currentColor" stroke="currentColor" stroke-width="0.12"/>
<path d="M17.7463 16.7158H6.25366C5.11342 16.7158 4.18908 17.6402 4.18908 18.7804V19.6374C4.18908 20.7776 5.11342 21.7019 6.25366 21.7019H17.7463C18.8866 21.7019 19.8109 20.7776 19.8109 19.6374V18.7804C19.8109 17.6402 18.8866 16.7158 17.7463 16.7158Z" fill="currentColor" stroke="currentColor" stroke-width="0.12"/>
<path d="M8.80276 10.921C9.81201 10.921 10.6302 10.1028 10.6302 9.09354C10.6302 8.08428 9.81201 7.26611 8.80276 7.26611C7.7935 7.26611 6.97533 8.08428 6.97533 9.09354C6.97533 10.1028 7.7935 10.921 8.80276 10.921Z" fill="currentColor" stroke="currentColor" stroke-width="0.12"/>
<path d="M11.9992 4.08709V1.30225" stroke="currentColor" stroke-width="0.6" stroke-miterlimit="10" stroke-linecap="round"/>
<path d="M5.78944 20.7556V17.6631" stroke="currentColor" stroke-width="0.6" stroke-miterlimit="10" stroke-linecap="round"/>
<path d="M6.8602 6.07728L4.869 4.08691" stroke="currentColor" stroke-width="0.6" stroke-miterlimit="10" stroke-linecap="round"/>
<path d="M17.1323 6.06851L19.0314 4.16946" stroke="currentColor" stroke-width="0.6" stroke-miterlimit="10" stroke-linecap="round"/>
<path d="M8.89998 20.7556V17.6631" stroke="currentColor" stroke-width="0.6" stroke-miterlimit="10" stroke-linecap="round"/>
<path d="M12.0092 20.7556V17.6631" stroke="currentColor" stroke-width="0.6" stroke-miterlimit="10" stroke-linecap="round"/>
<path d="M15.1201 20.7556V17.6631" stroke="currentColor" stroke-width="0.6" stroke-miterlimit="10" stroke-linecap="round"/>
<path d="M18.2306 20.7556V17.6631" stroke="currentColor" stroke-width="0.6" stroke-miterlimit="10" stroke-linecap="round"/>
<circle cx="19.9181" cy="19.2" r="4.2" fill="currentColor"/>
<path d="M20.426 16.9504C20.3957 16.9506 20.3655 16.952 20.3354 16.9547C20.3245 16.9557 20.3136 16.9567 20.3027 16.958C20.2898 16.9595 20.277 16.961 20.2643 16.9629L20.2463 16.9659C19.7006 17.0561 19.2843 17.5299 19.2843 18.1011C19.2843 18.5097 19.4974 18.8682 19.8181 19.0725C19.8224 19.0759 19.8274 19.0793 19.8325 19.0824L19.8333 19.0827L19.7579 19.1066C19.6431 19.1458 19.532 19.195 19.4259 19.2534L19.3473 19.299C19.3392 19.3039 19.3314 19.309 19.3234 19.314C19.2626 19.3521 19.2038 19.3934 19.1472 19.4376L19.1391 19.4438C18.654 19.827 18.3426 20.4201 18.3426 21.0863C18.3426 21.1763 18.3484 21.2662 18.3599 21.3554H22.5259V21.0873C22.5259 20.1403 21.897 19.3405 21.034 19.0824C21.3641 18.8804 21.5842 18.5166 21.5842 18.1011C21.5842 17.4922 21.1112 16.994 20.5126 16.9532C20.505 16.9527 20.4974 16.952 20.4897 16.9516C20.4713 16.9507 20.4528 16.9502 20.4343 16.9502L20.426 16.9504ZM20.4332 19.2561C21.4445 19.2561 22.2643 20.0759 22.2643 21.0872C22.2643 21.0894 22.2641 21.0916 22.2641 21.0938H18.6022C18.6022 21.0916 18.602 21.0894 18.602 21.0872C18.602 20.0759 19.4218 19.2561 20.4332 19.2561ZM20.4332 17.2117C20.9244 17.2117 21.3226 17.6099 21.3226 18.1011C21.3226 18.5924 20.9244 18.9906 20.4332 18.9906C19.942 18.9906 19.5438 18.5924 19.5438 18.1011C19.5438 17.6099 19.942 17.2117 20.4332 17.2117Z" fill="currentColor" stroke="currentColor" stroke-width="0.03"/>
<path d="M18.9736 17.3472C18.4535 17.3472 18.0319 17.7688 18.0319 18.2889C18.0319 18.6121 18.1948 18.8972 18.4429 19.0668C17.7789 19.2867 17.2992 19.9115 17.2964 20.649H17.2962V20.9106H18.0876C18.094 20.8228 18.1054 20.7355 18.1217 20.649H17.5449C17.5485 19.8646 18.1852 19.2298 18.9704 19.2298L18.9528 19.2301L18.9731 19.2306C18.9769 19.2306 18.9807 19.2305 18.9844 19.2304L18.9957 19.23C19.1105 19.1412 19.2332 19.0633 19.3622 18.9971C19.3341 18.9642 19.3075 18.93 19.2824 18.8947C19.1869 18.9437 19.081 18.9691 18.9737 18.969C18.5981 18.969 18.2936 18.6645 18.2936 18.2889C18.2936 17.9133 18.5981 17.6088 18.9737 17.6088C19.0159 17.6089 19.058 17.6129 19.0994 17.6209C19.1284 17.5364 19.1654 17.455 19.2098 17.3776C19.1725 17.3679 19.1347 17.3605 19.0965 17.3554L19.0909 17.3547C19.0745 17.3526 19.0579 17.3511 19.0412 17.3498C19.0377 17.3496 19.0343 17.3493 19.0309 17.3491C19.0119 17.3479 18.9929 17.3472 18.9736 17.3472Z" fill="currentColor" stroke="currentColor" stroke-width="0.03"/>
</g>
</g>
<defs>
<clipPath id="clip0_4017_3029">
<rect width="24" height="24" fill="currentColor"/>
</clipPath>
<clipPath id="clip1_4017_3029">
<rect width="24" height="24" fill="currentColor"/>
</clipPath>
</defs>
</svg>
