<svg width="124" height="48" viewBox="0 0 124 48" fill="none" xmlns="http://www.w3.org/2000/svg">
<g clip-path="url(#clip0_3396_56765)">
<path d="M56.7029 6.14825C52.9859 6.14825 51.1044 6.14825 47.4333 6.14825V9.68171H55.9686C55.9686 11.6091 55.9686 13.4905 55.9686 15.372H47.4333C47.4333 16.8404 47.4333 18.3089 47.4333 19.7773C51.1044 19.7773 53.2612 19.7773 57.0241 19.7773C57.0241 21.6588 57.0241 23.5861 57.0241 25.5135C51.1503 25.5135 46.8367 25.5135 41.0547 25.5135C41.0547 17.1157 41.0547 8.71804 41.0547 0.412109C46.8367 0.412109 50.8291 0.412109 56.7029 0.412109C56.7029 2.29356 56.7029 4.22091 56.7029 6.14825Z" fill="#C92123"/>
<path d="M73.406 18.1262C73.406 16.3365 71.341 15.9694 68.8171 15.8317C63.3563 15.4187 59.777 13.5373 59.7311 8.12237C59.5016 -2.70746 79.0045 -2.70746 78.8668 8.12237C76.5724 8.12237 74.9204 8.12237 72.7636 8.12237C72.7636 4.77247 66.0179 5.0478 65.7884 8.03059C65.6508 9.95794 67.5322 10.325 69.7808 10.6004C74.7368 11.1052 79.647 11.8853 79.647 18.1262C79.647 28.6807 59.2263 28.8642 59.364 17.805C61.5208 17.805 63.3563 17.805 65.559 17.805C65.559 21.0172 73.406 21.0631 73.406 18.1262Z" fill="#C92123"/>
<path d="M97.3597 22.348H87.4935L86.0251 25.5144H79.7383V24.5507L91.027 0.0917969H93.7803L105.115 24.5507V25.5144H98.8281L97.3597 22.348ZM92.4037 10.2792L89.5585 16.8413H95.2947L92.4037 10.2792Z" fill="#C92123"/>
<path d="M114.202 17.3452V25.5135C112.045 25.5135 109.888 25.5135 107.686 25.5135V0.412109C112.825 0.412109 118.194 0.412109 123.334 0.412109C123.334 2.52301 123.334 3.99146 123.334 6.14825H114.202V11.6091H122.278C122.278 13.7658 122.278 15.1425 122.278 17.3452H114.202Z" fill="#C92123"/>
<path d="M3.83714 30.1941C2.96525 30.1941 2.50636 30.1941 1.63447 30.1941V31.0201H3.65359C3.65359 31.4331 3.65359 31.892 3.65359 32.3509H1.63447C1.63447 32.6721 1.63447 32.9933 1.63447 33.3604C2.50636 33.3604 3.01114 33.3604 3.88303 33.3604C3.88303 33.7734 3.88303 34.2323 3.88303 34.6912C2.50636 34.6912 1.54269 34.6912 0.166016 34.6912C0.166016 32.718 0.166016 30.7906 0.166016 28.8633C1.54269 28.8633 2.46047 28.8633 3.83714 28.8633C3.83714 29.2763 3.83714 29.7352 3.83714 30.1941Z" fill="#243B77"/>
<path d="M7.69205 32.9491C7.69205 32.5361 7.23316 32.4443 6.6366 32.4443C5.3517 32.3525 4.5257 31.8937 4.5257 30.6546C4.47981 28.1307 9.02283 28.1307 8.97694 30.6546C8.42627 30.6546 8.05916 30.6546 7.55438 30.6546C7.55438 29.8745 5.99415 29.9204 5.94826 30.6088C5.90237 31.0676 6.31538 31.1594 6.86604 31.2053C8.01327 31.343 9.1605 31.5265 9.1605 32.995C9.1605 35.4271 4.38803 35.473 4.43392 32.9032C4.9387 32.9032 5.3517 32.9032 5.85648 32.9032C5.85648 33.6374 7.69205 33.6374 7.69205 32.9491Z" fill="#243B77"/>
<path d="M13.2921 33.9589H10.9977L10.6306 34.6931H9.16211V34.4637L11.8237 28.7734H12.4661L15.0818 34.4637V34.6931H13.6134L13.2921 33.9589ZM12.099 31.1597L11.4566 32.674H12.7873L12.099 31.1597Z" fill="#243B77"/>
<path d="M17.1921 32.8097V34.6912C16.6873 34.6912 16.1825 34.6912 15.6777 34.6912V28.8633C16.8709 28.8633 18.1099 28.8633 19.303 28.8633C19.303 29.3222 19.303 29.6893 19.303 30.1941H17.1921V31.4331H19.0735C19.0735 31.9379 19.0735 32.2591 19.0735 32.8097H17.1921Z" fill="#243B77"/>
<path d="M25.8646 32.9491C25.8646 32.5361 25.3598 32.4443 24.7632 32.4443C23.5242 32.3525 22.6982 31.8937 22.6523 30.6546C22.6064 28.1307 27.1495 28.1307 27.1036 30.6546C26.5988 30.6546 26.1858 30.6546 25.681 30.6546C25.681 29.8745 24.1208 29.9204 24.0749 30.6088C24.029 31.0676 24.4879 31.1594 24.9927 31.2053C26.1858 31.343 27.2871 31.5265 27.2871 32.9491C27.2871 35.4271 22.5605 35.473 22.5605 32.9032C23.0653 32.9032 23.5242 32.9032 24.029 32.9032C24.029 33.6374 25.8646 33.6374 25.8646 32.9491Z" fill="#243B77"/>
<path d="M33.8505 28.8184H34.4012V34.6922C33.8964 34.6922 33.3916 34.6922 32.8868 34.6922V32.0765L31.6478 33.3614H31.4643L30.2253 32.0765V34.6922C29.7205 34.6922 29.2157 34.6922 28.7109 34.6922V28.8184H29.2616L31.5561 31.3423L33.8505 28.8184Z" fill="#243B77"/>
<path d="M39.7238 33.9589H37.4293L37.0622 34.6931H35.5938V34.4637L38.2553 28.7734H38.8978L41.5134 34.4637V34.6931H40.045L39.7238 33.9589ZM38.5765 31.1597L37.8882 32.674H39.219L38.5765 31.1597Z" fill="#243B77"/>
<path d="M44.0837 33.3145H46.2405C46.2405 33.8193 46.2405 34.1864 46.2405 34.6912C45.0015 34.6912 43.8084 34.6912 42.6152 34.6912V28.8633C43.12 28.8633 43.5789 28.8633 44.0837 28.8633C44.0837 31.8461 44.0837 30.8365 44.0837 33.3145Z" fill="#243B77"/>
<path d="M49.0847 33.3145H51.1956C51.1956 33.8193 51.1956 34.1864 51.1956 34.6912C50.0024 34.6912 48.7634 34.6912 47.5703 34.6912V28.8633C48.0751 28.8633 48.5799 28.8633 49.0847 28.8633C49.0847 31.8461 49.0847 30.8365 49.0847 33.3145Z" fill="#243B77"/>
<path d="M56.6569 32.7639V34.6912C56.198 34.6912 55.6474 34.6912 55.1426 34.6912V28.8633C56.3357 28.8633 57.6206 28.8633 58.8137 28.8633C58.8137 29.3222 58.8137 29.6893 58.8137 30.1941H56.6569V31.4331H58.5384C58.5384 31.9379 58.5384 32.2591 58.5384 32.7639H56.6569Z" fill="#243B77"/>
<path d="M62.7601 33.3604V34.6912H59.7773V33.3604H60.5116V30.1482H59.8691V28.8633H62.6684V30.1482H62.0259V33.3604H62.7601Z" fill="#243B77"/>
<path d="M65.6052 31.8012V34.6922C65.1004 34.6922 64.5497 34.6922 64.0449 34.6922V28.8184H64.5956L67.5325 31.7094V28.8642C68.0373 28.8642 68.5879 28.8642 69.0927 28.8642V34.6922H68.5421L65.6052 31.8012Z" fill="#243B77"/>
<path d="M74.2326 33.9589H71.9381L71.6169 34.6931H70.1484V34.4637L72.7641 28.7734H73.4066L76.0681 34.4637V34.6931H74.5997L74.2326 33.9589ZM73.0853 31.1597L72.4429 32.674H73.7737L73.0853 31.1597Z" fill="#243B77"/>
<path d="M78.6823 31.8012V34.6922C78.1775 34.6922 77.6727 34.6922 77.168 34.6922V28.8184H77.6727L80.6555 31.7094V28.8642C81.1603 28.8642 81.6651 28.8642 82.1699 28.8642V34.6922H81.6192L78.6823 31.8012Z" fill="#243B77"/>
<path d="M86.6215 28.7734C87.8146 28.7734 89.1454 29.4159 89.3748 30.9761C88.87 30.9761 88.4111 30.9761 87.9064 30.9761C87.6769 30.4254 87.2639 30.1501 86.6215 30.1501C85.7496 30.1501 85.153 30.7926 85.153 31.7562C85.153 32.6281 85.7496 33.3623 86.6215 33.3623C87.2639 33.3623 87.7687 33.0411 87.9064 32.4446C88.4111 32.4446 88.87 32.4446 89.3748 32.4446C89.1454 34.0966 87.8605 34.739 86.6215 34.739C85.153 34.739 83.6387 33.7295 83.6387 31.7562C83.6387 29.783 85.153 28.7734 86.6215 28.7734Z" fill="#243B77"/>
<path d="M94.5149 30.1941C93.643 30.1941 93.1841 30.1941 92.3581 30.1941V31.0201H94.3313C94.3313 31.4331 94.3313 31.892 94.3313 32.3509H92.3581C92.3581 32.6721 92.3581 32.9933 92.3581 33.3604C93.1841 33.3604 93.6889 33.3604 94.5608 33.3604C94.5608 33.7734 94.5608 34.2323 94.5608 34.6912C93.23 34.6912 92.2204 34.6912 90.8438 34.6912C90.8438 32.718 90.8438 30.7906 90.8438 28.8633C92.2204 28.8633 93.1382 28.8633 94.5149 28.8633C94.5149 29.2763 94.5149 29.7352 94.5149 30.1941Z" fill="#243B77"/>
<path d="M102.637 31.6625C103.142 31.892 103.371 32.305 103.371 32.8556C103.371 33.8652 102.729 34.6912 101.536 34.6912H98.8281V28.8633H101.306C102.316 28.8633 103.096 29.6434 103.096 30.653C103.096 30.9742 102.958 31.3872 102.637 31.6625ZM100.251 30.1941V31.1118H101.214C101.765 31.1118 101.765 30.1941 101.168 30.1941H100.251ZM100.251 32.3509V33.3604H101.444C102.04 33.3604 102.04 32.3509 101.444 32.3509H100.251Z" fill="#243B77"/>
<path d="M108.235 33.9589H105.941L105.574 34.6931H104.105V34.4637L106.767 28.7734H107.409L110.025 34.4637V34.6931H108.557L108.235 33.9589ZM107.088 31.1597L106.4 32.674H107.731L107.088 31.1597Z" fill="#243B77"/>
<path d="M112.641 31.8012V34.6922C112.137 34.6922 111.632 34.6922 111.127 34.6922V28.8184H111.678L114.615 31.7094V28.8642C115.119 28.8642 115.624 28.8642 116.129 28.8642V34.6922H115.578L112.641 31.8012Z" fill="#243B77"/>
<path d="M117.965 34.6912V28.8633C118.47 28.8633 118.974 28.8633 119.479 28.8633V31.066H119.571C121.085 31.066 120.994 29.9187 120.994 28.8633C121.498 28.8633 122.003 28.8633 122.554 28.8633C122.554 30.0564 122.554 31.1577 121.407 31.892L122.967 34.4618V34.6912H121.315L120.03 32.3967C119.846 32.4426 119.663 32.4426 119.479 32.4426V34.6912C118.974 34.6912 118.47 34.6912 117.965 34.6912Z" fill="#243B77"/>
<path d="M34.7673 25.5602H0.0292969V0H34.7673V25.5602Z" fill="#243B77"/>
<path d="M12.42 7.89362H7.87695V3.39648H12.42V7.89362Z" fill="#FEFEFE"/>
<path d="M16.5492 13.8585H3.74609V9.36133H16.5492V13.8585Z" fill="#FEFEFE"/>
<path d="M7.87695 22.1644V9.36133H12.42V22.1644H7.87695Z" fill="#FEFEFE"/>
<path d="M26.8741 7.89362H22.377V3.39648H26.8741V7.89362Z" fill="#FEFEFE"/>
<path d="M31.0511 13.8585H18.248V9.36133H31.0511V13.8585Z" fill="#FEFEFE"/>
<path d="M22.377 22.1644V9.36133H26.8741V22.1644H22.377Z" fill="#FEFEFE"/>
<path d="M67.12 47.6332C66.8446 47.6332 66.6152 47.5873 66.4316 47.5414V46.6695C66.6611 46.7613 66.8905 46.7613 67.0741 46.7613C67.6248 46.7613 67.9919 46.4401 68.1295 45.7517L69.4144 39.832H70.3781L69.0932 45.8435C69.0014 46.486 68.772 46.899 68.4508 47.2202C68.1295 47.4955 67.6706 47.6332 67.12 47.6332Z" fill="#898989"/>
<path d="M74.8292 43.0436C74.8292 43.5943 74.7375 44.099 74.508 44.5579C74.3245 45.0168 74.0491 45.3839 73.682 45.6134C73.3149 45.8887 72.9478 46.0264 72.443 46.0264C71.9382 46.0264 71.5252 45.8428 71.204 45.5216C70.8828 45.2004 70.6992 44.7874 70.6992 44.2367C70.6992 43.686 70.8369 43.1812 71.0204 42.6765C71.204 42.2176 71.4793 41.8964 71.8464 41.621C72.2136 41.3457 72.6266 41.2539 73.0855 41.2539C73.6361 41.2539 74.0491 41.3916 74.3703 41.7128C74.6916 42.034 74.8292 42.4929 74.8292 43.0436ZM73.8656 42.9977C73.8656 42.6765 73.7738 42.447 73.6361 42.3094C73.4985 42.1258 73.3149 42.034 73.0396 42.034C72.8101 42.034 72.5807 42.1258 72.3512 42.3552C72.1677 42.5388 71.9841 42.8141 71.8923 43.1354C71.7547 43.5025 71.7088 43.8696 71.7088 44.2367C71.7088 44.5579 71.8006 44.7874 71.9382 44.9709C72.0759 45.1086 72.2594 45.2004 72.5348 45.2004C72.7642 45.2004 72.9937 45.1086 73.2231 44.925C73.4067 44.7415 73.5443 44.4661 73.682 44.1449C73.7738 43.7778 73.8656 43.4107 73.8656 42.9977Z" fill="#898989"/>
<path d="M75.655 41.3008H76.6187L76.894 43.5493C76.894 43.687 76.9399 43.9623 76.9399 44.2377C76.9858 44.5589 76.9858 44.8342 76.9858 45.0178C77.2612 44.4212 77.4447 43.9623 77.5824 43.687L78.7755 41.3008H79.8309L76.9858 46.6698C76.7105 47.1287 76.4352 47.4499 76.1598 47.6794C75.8845 47.8629 75.5174 48.0006 75.1044 48.0006C74.9208 48.0006 74.6914 47.9547 74.5078 47.9088V47.1287C74.7373 47.1746 74.9208 47.1746 75.0585 47.1746C75.242 47.1746 75.4256 47.1287 75.6092 46.991C75.7468 46.8993 75.9304 46.6698 76.1139 46.3486L76.3434 45.9815L75.655 41.3008Z" fill="#898989"/>
<path d="M86.1632 43.0436C86.1632 43.5943 86.0714 44.099 85.842 44.5579C85.6584 45.0168 85.3831 45.3839 85.016 45.6134C84.6489 45.8887 84.2359 46.0264 83.777 46.0264C83.2722 46.0264 82.8133 45.8428 82.4921 45.5216C82.2168 45.2004 82.0332 44.7874 82.0332 44.2367C82.0332 43.686 82.125 43.1812 82.3544 42.6765C82.538 42.2176 82.8133 41.8964 83.1804 41.621C83.5475 41.3457 83.9605 41.2539 84.4194 41.2539C84.9701 41.2539 85.3831 41.3916 85.7043 41.7128C86.0256 42.034 86.1632 42.4929 86.1632 43.0436ZM85.1537 42.9977C85.1537 42.6765 85.1078 42.447 84.9701 42.3094C84.8324 42.1258 84.6489 42.034 84.3735 42.034C84.0982 42.034 83.8688 42.1258 83.6852 42.3552C83.5017 42.5388 83.3181 42.8141 83.2263 43.1354C83.0887 43.5025 83.0428 43.8696 83.0428 44.2367C83.0428 44.5579 83.0887 44.7874 83.2263 44.9709C83.364 45.1086 83.5934 45.2004 83.8688 45.2004C84.0982 45.2004 84.3277 45.1086 84.5571 44.925C84.7407 44.7415 84.8783 44.4661 85.016 44.1449C85.1078 43.7778 85.1537 43.4107 85.1537 42.9977Z" fill="#898989"/>
<path d="M86.2557 48.0002C85.9804 48.0002 85.7968 47.9543 85.6133 47.9084V47.0824C85.7968 47.1742 85.9345 47.1742 86.0722 47.1742C86.4852 47.1742 86.7146 46.8989 86.8523 46.3023L87.7242 42.0346H86.99L87.0817 41.6216L87.9077 41.3004L87.9995 40.8874C88.0913 40.3367 88.2748 39.9696 88.5502 39.7402C88.7796 39.5107 89.1467 39.373 89.6056 39.373C89.9269 39.373 90.2481 39.4189 90.4775 39.5566L90.2481 40.2908C90.0186 40.1991 89.8351 40.1991 89.6515 40.1991C89.468 40.1991 89.3303 40.2449 89.1926 40.3367C89.1009 40.4744 89.0091 40.6579 88.9632 40.9333L88.8714 41.3004H89.8351L89.6515 42.0346H88.7337L87.7701 46.44C87.6783 46.9906 87.4947 47.3578 87.2194 47.6331C86.99 47.8625 86.6687 48.0002 86.2557 48.0002Z" fill="#898989"/>
<path d="M94.973 39.832C95.5696 39.832 96.0744 39.9238 96.3497 40.1533C96.6709 40.3827 96.8545 40.7498 96.8545 41.2087C96.8545 41.6217 96.7168 41.9429 96.4874 42.2183C96.2579 42.4936 95.8908 42.6772 95.4778 42.7689C95.799 42.8607 96.0285 42.9984 96.1661 43.2278C96.3497 43.4114 96.4415 43.6867 96.4415 44.0079C96.4415 44.6045 96.212 45.0634 95.799 45.4305C95.386 45.7517 94.7895 45.9353 94.0552 45.9353H91.9902L93.2751 39.832H94.973ZM93.1834 45.1093H94.1011C94.5141 45.1093 94.8354 45.0175 95.0648 44.7881C95.2942 44.6045 95.4319 44.3292 95.4319 44.0079C95.4319 43.7326 95.3401 43.5032 95.1566 43.3655C94.973 43.2278 94.7436 43.136 94.4224 43.136H93.5964L93.1834 45.1093ZM93.7799 42.3559H94.6059C94.973 42.3559 95.2942 42.2642 95.4778 42.0806C95.7073 41.9429 95.799 41.6676 95.799 41.3923C95.799 40.8875 95.4778 40.658 94.8812 40.658H94.1011L93.7799 42.3559Z" fill="#898989"/>
<path d="M98.5993 46.0273C98.1863 46.0273 97.911 45.8897 97.6816 45.5684C97.4521 45.2931 97.3145 44.926 97.3145 44.3753C97.3145 43.8247 97.4062 43.3199 97.5898 42.8151C97.8192 42.3103 98.0487 41.9432 98.4158 41.6679C98.737 41.3467 99.1041 41.209 99.5171 41.209C99.7925 41.209 100.022 41.3008 100.251 41.3925C100.435 41.5302 100.573 41.7138 100.664 41.9891H100.71L100.986 41.3008H101.72L100.756 45.9356H99.976L100.068 45.2013C99.6089 45.752 99.1041 46.0273 98.5993 46.0273ZM98.9665 45.2013C99.1959 45.2013 99.4254 45.1096 99.6089 44.8801C99.8384 44.6966 100.022 44.3753 100.16 44.0082C100.297 43.687 100.389 43.274 100.389 42.861C100.389 42.5857 100.297 42.4021 100.205 42.2644C100.068 42.0809 99.8842 42.035 99.6548 42.035C99.4254 42.035 99.1959 42.1268 99.0124 42.3562C98.7829 42.5857 98.6452 42.861 98.5076 43.2281C98.3699 43.5952 98.324 43.9623 98.324 44.3753C98.324 44.6507 98.3699 44.8801 98.4617 45.0178C98.5993 45.1554 98.737 45.2013 98.9665 45.2013Z" fill="#898989"/>
<path d="M104.839 45.9356L105.39 43.1363C105.482 42.861 105.482 42.6774 105.482 42.5857C105.482 42.2185 105.298 42.035 104.931 42.035C104.748 42.035 104.564 42.1268 104.335 42.2644C104.151 42.4021 103.967 42.6315 103.83 42.9528C103.692 43.274 103.554 43.5952 103.463 43.9623L103.05 45.9356H102.086L103.05 41.3008H103.83L103.738 42.1727H103.784C104.013 41.8514 104.243 41.5761 104.518 41.4384C104.748 41.3008 105.023 41.209 105.298 41.209C105.665 41.209 105.941 41.3467 106.17 41.5302C106.354 41.7597 106.491 42.035 106.491 42.448C106.491 42.6315 106.445 42.9069 106.354 43.1822L105.803 45.9356H104.839Z" fill="#898989"/>
<path d="M110.622 41.2994H111.77L109.75 43.3185L110.989 45.9342H109.888L109.016 43.961L108.42 44.374L108.098 45.9342H107.135L108.511 39.418H109.475C109.108 41.1618 108.879 42.1713 108.833 42.4925C108.741 42.7679 108.695 43.0891 108.557 43.4103H108.603L110.622 41.2994Z" fill="#898989"/>
<path d="M112.64 45.9352H111.631L112.64 41.3004H113.604L112.64 45.9352ZM112.824 40.1532C112.824 39.9696 112.87 39.832 113.008 39.6943C113.099 39.6025 113.237 39.5566 113.466 39.5566C113.604 39.5566 113.742 39.5566 113.834 39.6484C113.925 39.7402 113.971 39.832 113.971 39.9696C113.971 40.1991 113.879 40.3368 113.788 40.4285C113.65 40.5662 113.512 40.6121 113.329 40.6121C113.191 40.6121 113.053 40.5662 112.962 40.5203C112.87 40.4285 112.824 40.3368 112.824 40.1532Z" fill="#898989"/>
<path d="M116.725 45.9356L117.322 43.1363C117.367 42.861 117.413 42.6774 117.413 42.5857C117.413 42.2185 117.23 42.035 116.863 42.035C116.679 42.035 116.45 42.1268 116.266 42.2644C116.083 42.4021 115.899 42.6315 115.761 42.9528C115.578 43.274 115.486 43.5952 115.394 43.9623L114.981 45.9356H114.018L114.981 41.3008H115.761L115.67 42.1727H115.715C115.945 41.8514 116.174 41.5761 116.404 41.4384C116.679 41.3008 116.954 41.209 117.23 41.209C117.597 41.209 117.872 41.3467 118.102 41.5302C118.285 41.7597 118.377 42.035 118.377 42.448C118.377 42.6315 118.377 42.9069 118.285 43.1822L117.735 45.9356H116.725Z" fill="#898989"/>
<path d="M123.609 41.3008L123.518 41.8973L122.691 42.035C122.783 42.1727 122.829 42.3562 122.829 42.5857C122.829 43.1363 122.646 43.5493 122.324 43.8706C122.003 44.1918 121.544 44.3294 120.994 44.3294C120.856 44.3294 120.718 44.3294 120.581 44.3294C120.305 44.4212 120.122 44.5589 120.122 44.7424C120.122 44.8342 120.168 44.926 120.259 44.9719C120.351 45.0178 120.489 45.0178 120.672 45.0637L121.177 45.1096C121.682 45.2013 122.003 45.2931 122.233 45.4767C122.462 45.6602 122.554 45.9356 122.554 46.2568C122.554 46.8075 122.324 47.2205 121.911 47.5417C121.498 47.817 120.902 48.0006 120.122 48.0006C119.571 48.0006 119.112 47.8629 118.837 47.6793C118.516 47.4499 118.332 47.1746 118.332 46.8075C118.332 46.5321 118.424 46.2568 118.653 46.0732C118.837 45.8438 119.158 45.6602 119.571 45.5226C119.342 45.4308 119.25 45.2472 119.25 45.0178C119.25 44.8342 119.342 44.6507 119.433 44.513C119.571 44.3753 119.8 44.2377 120.076 44.1C119.709 43.8706 119.479 43.5034 119.479 43.0445C119.479 42.4939 119.663 42.0809 120.03 41.7138C120.351 41.3925 120.81 41.209 121.361 41.209C121.59 41.209 121.82 41.2549 122.049 41.3008H123.609ZM120.213 45.8438C119.892 45.8897 119.663 45.9815 119.479 46.165C119.342 46.3027 119.25 46.4862 119.25 46.7157C119.25 46.8992 119.296 47.0369 119.479 47.1287C119.617 47.2205 119.846 47.3122 120.168 47.3122C120.626 47.3122 120.994 47.2205 121.223 47.0828C121.498 46.8992 121.636 46.7157 121.636 46.4403C121.636 46.2568 121.544 46.165 121.452 46.0732C121.315 45.9815 121.085 45.9356 120.764 45.9356L120.213 45.8438ZM121.315 41.8973C121.177 41.8973 120.994 41.9432 120.856 42.035C120.718 42.1268 120.626 42.3103 120.535 42.4939C120.489 42.6774 120.443 42.861 120.443 43.0904C120.443 43.274 120.489 43.4576 120.581 43.5493C120.672 43.6411 120.81 43.687 120.994 43.687C121.177 43.687 121.361 43.6411 121.452 43.5493C121.59 43.4576 121.728 43.274 121.774 43.0904C121.865 42.9069 121.911 42.6774 121.911 42.4939C121.911 42.0809 121.728 41.8973 121.315 41.8973Z" fill="#898989"/>
</g>
<defs>
<clipPath id="clip0_3396_56765">
<rect width="123.637" height="48" fill="white"/>
</clipPath>
</defs>
</svg>
