<svg width="24" height="24" viewBox="0 0 24 24" fill="none" xmlns="http://www.w3.org/2000/svg">
<g clip-path="url(#clip0_4017_2675)">
<path d="M16.4854 2.14293C16.7815 2.11108 17.0267 2.31489 17.0299 2.59831L17.3834 19.524C17.3898 19.8074 17.1541 20.0622 16.8579 20.0908L3.70272 21.4729C3.40656 21.5048 3.16135 21.301 3.15817 21.0175L2.8015 4.09185C2.79513 3.80843 3.03079 3.55366 3.32695 3.525L16.4854 2.14293Z" fill="#017AFF" stroke="black" stroke-width="0.12"/>
<path d="M15.6669 18.457C15.7529 18.4475 15.8229 18.508 15.8261 18.5908C15.8293 18.6736 15.7592 18.7437 15.6732 18.7532L4.4574 19.9315C4.37141 19.941 4.30135 19.8805 4.29817 19.8009C4.29499 19.7213 4.36504 19.6449 4.45103 19.6353L15.6669 18.457Z" fill="#E8F4FD"/>
<path d="M15.5427 12.5215C15.6287 12.512 15.6988 12.5693 15.7019 12.6521C15.7051 12.7349 15.6351 12.8082 15.5491 12.8177L4.33323 13.996C4.24725 14.0055 4.17719 13.945 4.17401 13.8622C4.17082 13.7794 4.24088 13.7094 4.32686 13.6998L15.5427 12.5215Z" fill="#E8F4FD"/>
<path d="M15.4758 9.31159C15.5617 9.30203 15.6318 9.35935 15.635 9.44215C15.6382 9.52495 15.5681 9.59819 15.4821 9.60775L4.26628 10.786C4.1803 10.7956 4.11024 10.7351 4.10706 10.6523C4.10387 10.5695 4.17393 10.4994 4.25991 10.4899L15.4758 9.31159Z" fill="#E8F4FD"/>
<path d="M15.4408 7.70314C15.5268 7.69359 15.5968 7.75409 15.6 7.83689C15.6032 7.91969 15.5331 7.98975 15.4472 7.9993L4.23131 9.17757C4.14532 9.18712 4.07526 9.12662 4.07208 9.04701C4.0689 8.96739 4.13895 8.89096 4.22494 8.88141L15.4408 7.70314Z" fill="#E8F4FD"/>
<path d="M15.4058 6.09772C15.4918 6.08817 15.5619 6.14549 15.565 6.22828C15.5682 6.31108 15.4982 6.38433 15.4122 6.39388L4.19632 7.57215C4.11034 7.5817 4.04028 7.5212 4.0371 7.4384C4.03391 7.3556 4.10397 7.28554 4.18996 7.27599L15.4058 6.09772Z" fill="#E8F4FD"/>
<path d="M15.5077 10.916C15.5937 10.9065 15.6638 10.967 15.667 11.0498C15.6701 11.1326 15.6001 11.2026 15.5141 11.2122L4.29825 12.3905C4.21227 12.4 4.14221 12.3395 4.13903 12.2599C4.13584 12.1803 4.2059 12.1039 4.29188 12.0943L15.5077 10.916Z" fill="#E8F4FD"/>
<path d="M15.3741 4.49025C15.4601 4.4807 15.5301 4.5412 15.5333 4.624C15.5365 4.7068 15.4664 4.77686 15.3804 4.78641L4.16459 5.96468C4.07861 5.97423 4.00855 5.91373 4.00536 5.83412C4.00218 5.7545 4.07224 5.67807 4.15822 5.66852L15.3741 4.49025Z" fill="#E8F4FD"/>
<path d="M16.7146 2.17142C16.7401 2.18097 16.7656 2.19052 16.7879 2.20326C16.8165 2.21918 16.8452 2.23511 16.8675 2.25421C16.8993 2.28287 16.928 2.31472 16.9535 2.34975L16.7337 2.01219C16.7337 2.01219 16.7242 1.99945 16.721 1.99308C16.7115 1.98035 16.7019 1.96761 16.6892 1.95487C16.6764 1.94213 16.6637 1.92939 16.6478 1.91666C16.6318 1.90073 16.6127 1.88799 16.5936 1.87844C16.5841 1.87207 16.5745 1.87207 16.5682 1.8657C16.5459 1.85296 16.5204 1.84341 16.4949 1.83386C16.4758 1.82749 16.4567 1.82112 16.4376 1.81475C16.4089 1.80838 16.3803 1.8052 16.3516 1.8052C16.3357 1.8052 16.3229 1.79883 16.307 1.79883C16.2943 1.79883 16.2784 1.79883 16.2656 1.79883L3.10722 3.18728C3.10722 3.18728 3.08492 3.18728 3.07537 3.19046C3.05626 3.19364 3.03397 3.19683 3.01487 3.2032C3.01168 3.2032 3.0085 3.2032 3.00531 3.20638C3.00213 3.20638 2.99894 3.20638 2.99257 3.20957C2.98302 3.20957 2.97347 3.21594 2.96391 3.21912C2.94799 3.22549 2.93207 3.23186 2.91615 3.23823C2.91296 3.23823 2.90659 3.24141 2.90341 3.2446C2.90022 3.2446 2.89704 3.24778 2.89385 3.25097C2.88749 3.25415 2.87793 3.25734 2.87156 3.2637C2.85564 3.27326 2.8429 3.28281 2.82698 3.29236C2.82379 3.29555 2.81743 3.29873 2.81424 3.30192C2.81106 3.30192 2.80787 3.30829 2.80469 3.31147C2.79832 3.31784 2.79195 3.32103 2.78558 3.32421C2.76966 3.33695 2.75374 3.34969 2.741 3.36561C2.741 3.36561 2.73781 3.36879 2.73463 3.37198C2.73144 3.37835 2.72507 3.38153 2.72189 3.3879C2.71234 3.40064 2.70278 3.41019 2.69323 3.42293C2.69323 3.42611 2.69005 3.43248 2.68686 3.43567C2.6582 3.47707 2.63272 3.52165 2.61362 3.5726C2.61362 3.58216 2.60725 3.58852 2.60725 3.59808C2.59133 3.64903 2.58177 3.69998 2.58177 3.7573L2.93525 20.683C2.93525 20.7753 2.96391 20.8581 3.0085 20.9282L3.22823 21.2658C3.18364 21.1957 3.15498 21.1129 3.15498 21.0205L2.8015 4.09168C2.8015 4.03754 2.81106 3.9834 2.82698 3.93245C2.82698 3.9229 2.83016 3.91653 2.83335 3.90698C2.84927 3.85921 2.87475 3.81462 2.90659 3.77004C2.91933 3.75412 2.92888 3.7382 2.94162 3.72227C2.94481 3.7159 2.95118 3.71272 2.95436 3.70635C2.97665 3.68406 2.99894 3.66177 3.02123 3.64585C3.02442 3.64585 3.0276 3.63948 3.03079 3.63629C3.05626 3.61719 3.08174 3.60126 3.1104 3.58534C3.11359 3.58534 3.11677 3.58216 3.11995 3.57897C3.14862 3.56623 3.17728 3.55349 3.20912 3.54394C3.21231 3.54394 3.21549 3.54394 3.21867 3.54076C3.25052 3.5312 3.28555 3.52483 3.32058 3.51847L16.4854 2.14276C16.514 2.14276 16.5427 2.14276 16.5713 2.14276C16.6 2.14276 16.6287 2.14594 16.6573 2.15231C16.6764 2.15549 16.6955 2.16186 16.7146 2.17142Z" fill="#017AFF" stroke="black" stroke-width="0.12"/>
<path d="M16.0459 9.33131C17.6604 9.16253 19.0011 10.2803 19.033 11.8216C19.0648 13.3629 17.7783 14.7577 16.1637 14.9297C14.5492 15.1016 13.2085 13.9807 13.1766 12.4394C13.1448 10.8949 14.4313 9.50328 16.0459 9.33131Z" fill="#017AFF" stroke="black" stroke-width="0.12"/>
<path d="M16.0363 8.73864C17.9947 8.53165 19.6188 9.88825 19.6571 11.7576C19.6953 13.6269 18.1349 15.3147 16.1796 15.5217C14.2243 15.7286 12.6002 14.3752 12.562 12.5027C12.5237 10.6302 14.081 8.94563 16.0363 8.73864ZM16.1636 14.9293C17.7782 14.7606 19.0647 13.3657 19.0329 11.8212C19.001 10.2768 17.6604 9.159 16.0458 9.33096C14.4313 9.50292 13.1447 10.8946 13.1766 12.439C13.2084 13.9835 14.5491 15.1013 16.1636 14.9293Z" fill="#E8F4FD" stroke="black" stroke-width="0.12"/>
<path d="M16.0267 8.28703C18.2464 8.05456 20.0806 9.58313 20.1252 11.7072C20.1698 13.8281 18.4088 15.7388 16.1892 15.9713C13.9695 16.2037 12.1353 14.6752 12.0907 12.5511C12.0461 10.427 13.8071 8.5195 16.0267 8.28703ZM16.1764 15.5222C18.1349 15.3153 19.6953 13.6306 19.6539 11.7582C19.6125 9.88566 17.9916 8.53543 16.0331 8.73924C14.0746 8.94304 12.5174 10.634 12.5588 12.5033C12.6002 14.3726 14.2179 15.7261 16.1764 15.5222Z" fill="#017AFF" stroke="black" stroke-width="0.12"/>
<path d="M17.9597 16.4046L18.0712 21.7386C18.033 21.7099 17.326 21.1877 16.9247 20.9393C16.7241 20.7673 16.4948 20.6304 16.2719 20.4903C15.8388 20.8406 15.5044 21.28 15.0968 21.6526C14.9121 21.831 14.5714 22.1844 14.5523 22.2004L14.4376 16.7771C14.616 16.9682 14.7879 17.1848 15.0236 17.2102C15.0554 17.2134 15.0873 17.2134 15.1223 17.2102C15.4631 17.1752 15.8452 16.7899 16.1987 16.7517C16.5522 16.7134 16.9375 17.0192 17.2846 16.9809C17.3196 16.9778 17.3547 16.9714 17.3865 16.9587C17.6222 16.8822 17.7814 16.6275 17.9533 16.4014L17.9597 16.4046Z" fill="#E8F4FD" stroke="black" stroke-width="0.12"/>
<path d="M19.9341 8.94035C19.9341 8.94035 19.9437 8.94354 19.9469 8.94672C19.9914 8.9722 20.0424 8.99767 20.0933 9.01996C20.1124 9.02952 20.1316 9.03589 20.1538 9.04225C20.2016 9.06136 20.2494 9.07728 20.2971 9.09321C20.364 9.1155 20.4341 9.14098 20.4978 9.16645C20.5041 9.16645 20.5105 9.17282 20.5201 9.176C20.5678 9.19511 20.6156 9.22059 20.657 9.24288C20.6825 9.2588 20.7111 9.27472 20.7334 9.29383C20.7398 9.29702 20.743 9.3002 20.7493 9.30657C20.7812 9.33523 20.813 9.36389 20.8353 9.39892L20.7621 9.28746C20.7621 9.28746 20.7557 9.27791 20.7525 9.27154C20.743 9.2588 20.7334 9.24925 20.7239 9.23651C20.7111 9.22377 20.6984 9.21103 20.6825 9.1983C20.6825 9.1983 20.6793 9.1983 20.6761 9.19511C20.6697 9.19193 20.6666 9.18874 20.6602 9.18237C20.6443 9.16964 20.6283 9.1569 20.6092 9.14416C20.6029 9.14097 20.5933 9.13779 20.5838 9.13142C20.5424 9.10595 20.4946 9.08365 20.4468 9.06455C20.4405 9.06455 20.4341 9.05818 20.4245 9.05499C20.3608 9.02952 20.2908 9.00404 20.2239 8.98175C20.1761 8.96583 20.1284 8.94672 20.0806 8.9308C20.0615 8.92443 20.0392 8.91487 20.0201 8.90851C19.966 8.88621 19.9182 8.86392 19.8736 8.83526C19.8672 8.83526 19.8609 8.82889 19.8577 8.82571C19.8577 8.82571 19.8513 8.82252 19.8513 8.81934C19.8163 8.79705 19.7813 8.77157 19.7526 8.73973C19.7335 8.72062 19.7176 8.69833 19.7016 8.67285L19.7749 8.78431C19.7749 8.78431 19.7844 8.79705 19.7908 8.8066C19.8004 8.81934 19.8099 8.83208 19.8227 8.84482C19.8227 8.84482 19.8258 8.848 19.829 8.85118C19.8386 8.86392 19.8513 8.87348 19.8641 8.88303C19.8832 8.89895 19.9055 8.91487 19.9277 8.92761C19.9277 8.92761 19.9341 8.9308 19.9341 8.93398V8.94035Z" fill="#E8F4FD" stroke="black" stroke-width="0.12"/>
<path d="M11.4125 13.6557C11.3965 13.5984 11.3711 13.5474 11.336 13.4933L11.2628 13.3818C11.2978 13.4328 11.3233 13.4869 11.3392 13.5442C11.4348 13.8945 11.1131 14.4168 11.2883 14.7321C11.2915 14.7384 11.2978 14.748 11.301 14.7544L11.3743 14.8658C11.3743 14.8658 11.3647 14.8499 11.3615 14.8435C11.1864 14.5314 11.5048 14.0092 11.4125 13.6557Z" fill="#E8F4FD" stroke="black" stroke-width="0.12"/>
<path d="M19.3737 7.80292C19.3737 7.80292 19.3514 7.77426 19.3418 7.76471C19.3323 7.75197 19.3195 7.74242 19.3068 7.72968C19.2941 7.71694 19.2813 7.70739 19.2654 7.69783C19.2654 7.69783 19.2654 7.69783 19.2622 7.69783C19.259 7.69783 19.2527 7.69783 19.2495 7.69465C19.2081 7.66917 19.1603 7.65325 19.1094 7.6437C19.0902 7.64051 19.0711 7.63733 19.0488 7.63733C19.0074 7.63414 18.9661 7.63096 18.9183 7.63096C18.9087 7.63096 18.8992 7.63096 18.8896 7.63096C18.8769 7.63096 18.861 7.63096 18.8482 7.63414C18.7718 7.63733 18.6954 7.6437 18.6126 7.65325C18.5998 7.65325 18.5839 7.65325 18.5712 7.65644C18.5011 7.6628 18.4342 7.66917 18.3674 7.67236C18.3514 7.67236 18.3355 7.67236 18.3196 7.67236C18.2877 7.67236 18.2559 7.67236 18.2241 7.67236C18.2081 7.67236 18.1922 7.67236 18.1763 7.67236C18.1317 7.66599 18.0871 7.65962 18.0457 7.6437C18.0043 7.63096 17.9661 7.60867 17.9311 7.58319C17.9183 7.57364 17.9056 7.56408 17.8929 7.55453C17.8706 7.53861 17.8483 7.52269 17.826 7.50358C17.7623 7.44626 17.6986 7.37938 17.6381 7.31251C17.5776 7.24882 17.5171 7.18513 17.4534 7.12781C17.447 7.12144 17.4407 7.11188 17.4311 7.10551C17.4216 7.09596 17.412 7.08959 17.4025 7.08322C17.3865 7.07049 17.3706 7.05775 17.3547 7.04501C17.3451 7.03864 17.3356 7.02909 17.326 7.0259C17.3101 7.01635 17.2942 7.00998 17.2783 7.00043C17.2655 6.99406 17.2528 6.98769 17.24 6.98132C17.2018 6.9654 17.1604 6.95266 17.1158 6.94629C17.0967 6.94629 17.0776 6.94629 17.0553 6.94629C17.0426 6.94629 17.0331 6.94629 17.0203 6.94629C17.0108 6.94629 16.998 6.94629 16.9885 6.94947C16.9662 6.95266 16.9439 6.95903 16.9216 6.9654C16.912 6.9654 16.9057 6.97177 16.8961 6.97177C16.8897 6.97177 16.8802 6.97495 16.8738 6.97813C16.8643 6.98132 16.8547 6.9845 16.8452 6.98769C16.8197 6.99724 16.7942 7.00998 16.7687 7.01953C16.7624 7.01953 16.756 7.0259 16.7496 7.02909C16.7496 7.02909 16.7464 7.02909 16.7433 7.02909C16.7369 7.02909 16.7337 7.03546 16.7273 7.03864C16.6477 7.07685 16.5681 7.12144 16.4853 7.16921C16.4057 7.21697 16.3261 7.26156 16.2433 7.29977C16.2337 7.30614 16.2242 7.30932 16.2114 7.31569C16.2019 7.32206 16.1923 7.32525 16.1796 7.32843C16.1446 7.34435 16.1127 7.35709 16.0777 7.36664C16.0713 7.36664 16.0618 7.37301 16.0554 7.37301C16.014 7.38575 15.9726 7.39531 15.9312 7.40167C15.8994 7.40486 15.8643 7.40167 15.8325 7.40167C15.8134 7.40167 15.7975 7.40167 15.7784 7.39849C15.7497 7.39531 15.7242 7.38894 15.6956 7.38257C15.6796 7.37938 15.6605 7.3762 15.6446 7.37301C15.6128 7.36664 15.5841 7.35709 15.5523 7.34754C15.5395 7.34435 15.5236 7.33798 15.5109 7.3348C15.4695 7.32206 15.4249 7.30614 15.3835 7.29022C15.3357 7.27429 15.2911 7.25837 15.2465 7.24245C15.2338 7.23926 15.2211 7.23608 15.2083 7.22971C15.1765 7.22016 15.1446 7.2106 15.1128 7.20105C15.0969 7.19787 15.0809 7.19468 15.065 7.1915C15.0364 7.18513 15.0109 7.17876 14.9854 7.17557C14.9663 7.17557 14.9504 7.17557 14.9345 7.17239C14.9153 7.17239 14.8994 7.16921 14.8803 7.16921C14.8676 7.16921 14.8517 7.16921 14.8389 7.16921C14.8294 7.16921 14.8198 7.16921 14.8103 7.17239C14.7943 7.17239 14.7784 7.17876 14.7625 7.18194C14.7561 7.18194 14.7498 7.18513 14.7434 7.18831C14.737 7.18831 14.7306 7.19468 14.7211 7.19468C14.7084 7.20105 14.6956 7.20423 14.6829 7.2106C14.6701 7.21697 14.6542 7.22334 14.6415 7.2329C14.6319 7.23926 14.6224 7.24563 14.6128 7.252C14.6128 7.252 14.6065 7.252 14.6065 7.25519C14.6033 7.25519 14.6001 7.25837 14.5969 7.26156C14.5778 7.27429 14.5619 7.28703 14.5428 7.30295C14.53 7.31569 14.5173 7.32843 14.5045 7.34117C14.4982 7.34754 14.4886 7.35391 14.4823 7.36346C14.4791 7.36664 14.4727 7.37301 14.4695 7.3762C14.46 7.38575 14.4536 7.39531 14.4472 7.40486C14.3995 7.45581 14.3549 7.50995 14.3135 7.56727C14.3103 7.57045 14.3071 7.57682 14.3039 7.58001C14.2976 7.58956 14.2912 7.59593 14.2848 7.60548C14.2498 7.65325 14.2179 7.69783 14.1829 7.7456C14.1383 7.80611 14.0906 7.86343 14.0396 7.91757C14.0205 7.93986 14.0014 7.95896 13.9791 7.97807C13.9727 7.98444 13.9664 7.99081 13.9568 7.99718C13.9218 8.02902 13.8836 8.05768 13.8454 8.07998C13.8103 8.09908 13.7721 8.11501 13.7339 8.13093C13.7275 8.13093 13.7212 8.13411 13.7148 8.1373C13.6893 8.14685 13.6607 8.15322 13.632 8.15959C13.6097 8.16596 13.5842 8.16914 13.5587 8.17551C13.5396 8.1787 13.5173 8.18188 13.4982 8.18507C13.4377 8.19462 13.3772 8.20099 13.3167 8.20736C13.304 8.20736 13.2881 8.20736 13.2753 8.21054C13.2021 8.21691 13.132 8.22646 13.062 8.23602C13.0492 8.23602 13.0365 8.23602 13.0237 8.24239C13.0046 8.24557 12.9855 8.25194 12.9632 8.25512C12.9441 8.25831 12.925 8.26149 12.9091 8.26786C12.9027 8.26786 12.8932 8.26786 12.8868 8.27423C12.8613 8.2806 12.8359 8.29015 12.8104 8.29971C12.7976 8.30608 12.7817 8.31245 12.769 8.31563C12.769 8.31563 12.7658 8.31563 12.7626 8.31563C12.7626 8.31563 12.7594 8.31563 12.7563 8.31563C12.7403 8.322 12.7276 8.33155 12.7117 8.33792C12.6989 8.34429 12.6862 8.35384 12.6735 8.36021C12.6607 8.36977 12.6512 8.37614 12.6384 8.38569C12.6384 8.38569 12.6321 8.39206 12.6289 8.39524C12.6193 8.4048 12.6098 8.41117 12.6002 8.42072C12.5843 8.43664 12.5715 8.45256 12.5588 8.46849C12.5524 8.47486 12.5524 8.48441 12.5461 8.49078C12.5333 8.5067 12.5238 8.52581 12.5142 8.54173C12.5015 8.56402 12.4888 8.5895 12.4792 8.61497C12.4696 8.63408 12.4633 8.65637 12.4569 8.67548C12.4474 8.70096 12.4378 8.72962 12.4314 8.75828C12.4251 8.78057 12.4187 8.80286 12.4123 8.82515C12.406 8.857 12.3964 8.88884 12.39 8.92069C12.3837 8.95572 12.3741 8.99075 12.3677 9.02259C12.3614 9.05444 12.355 9.08628 12.3486 9.11813C12.3423 9.14997 12.3327 9.17863 12.3263 9.20729C12.32 9.22958 12.3168 9.25188 12.3104 9.27098C12.3009 9.30283 12.2881 9.33149 12.2786 9.36333C12.2722 9.37926 12.2658 9.39836 12.2595 9.41429C12.2404 9.45887 12.2181 9.50027 12.1894 9.53848C12.1607 9.5767 12.1289 9.60854 12.0907 9.64039C12.0907 9.64039 12.0875 9.64357 12.0843 9.64676C12.0525 9.67542 12.0143 9.70089 11.976 9.72637C11.9378 9.75184 11.8996 9.77414 11.8582 9.79961C11.8455 9.80917 11.8327 9.81554 11.8168 9.82509C11.7945 9.83783 11.7691 9.85056 11.7468 9.8633C11.7149 9.88241 11.6831 9.90152 11.648 9.91744C11.6321 9.92699 11.6194 9.93336 11.6035 9.94292C11.5939 9.94928 11.5843 9.95565 11.5748 9.95884C11.5398 9.97795 11.5079 10.0002 11.4761 10.0225C11.4633 10.0321 11.4506 10.0385 11.4379 10.048C11.4251 10.0576 11.4124 10.0703 11.3965 10.0798C11.3869 10.0862 11.3774 10.0926 11.371 10.099C11.3646 10.1021 11.3582 10.1085 11.3551 10.1117C11.3328 10.1308 11.3137 10.1499 11.2946 10.169C11.2882 10.1754 11.2818 10.1818 11.2786 10.1881C11.2755 10.1945 11.2691 10.1977 11.2659 10.204C11.2595 10.2136 11.2532 10.22 11.2468 10.2263C11.2245 10.255 11.2086 10.2837 11.1927 10.3155C11.0334 10.6562 11.371 11.118 11.2914 11.4842C11.2818 11.5256 11.2659 11.567 11.2468 11.6084C11.2404 11.6212 11.2309 11.6371 11.2245 11.6498C11.2086 11.6785 11.1927 11.7071 11.1767 11.7358C11.1672 11.7517 11.1544 11.7676 11.1449 11.7836C11.1258 11.8122 11.1067 11.8409 11.0876 11.8664C11.0748 11.8823 11.0621 11.9014 11.0494 11.9173C11.0271 11.9492 11.0016 11.981 10.9793 12.0128C10.9793 12.0128 10.9793 12.0128 10.9793 12.016C10.9634 12.0383 10.9474 12.0574 10.9347 12.0797C10.9156 12.1052 10.8965 12.1307 10.8806 12.1562C10.8646 12.1816 10.8519 12.2039 10.836 12.2294C10.8233 12.2517 10.8073 12.274 10.7946 12.2963C10.7787 12.3249 10.7691 12.3568 10.7564 12.3854C10.75 12.4014 10.7405 12.4173 10.7373 12.4332C10.7245 12.481 10.715 12.5256 10.7182 12.5733C10.7182 12.6211 10.7277 12.6689 10.7468 12.7134C10.7627 12.758 10.785 12.8026 10.8137 12.844L10.8869 12.9555C10.8328 12.8727 10.7946 12.7835 10.7914 12.688C10.7914 12.6402 10.7978 12.5956 10.8105 12.5478C10.8169 12.5319 10.8264 12.5128 10.8328 12.4969C10.8455 12.4682 10.8551 12.4396 10.871 12.4109C10.8806 12.3918 10.8965 12.3695 10.9092 12.3504C10.9252 12.3249 10.9411 12.2995 10.957 12.2708C10.9729 12.2485 10.9888 12.2262 11.008 12.2039C11.0239 12.1816 11.043 12.1562 11.0589 12.1339C11.0812 12.1052 11.1035 12.0765 11.1258 12.0479C11.1258 12.0447 11.1321 12.0383 11.1353 12.0351C11.1481 12.0192 11.1608 12.0001 11.1735 11.9842C11.1958 11.9555 11.2149 11.9269 11.2341 11.8982C11.2436 11.8823 11.2563 11.8664 11.2659 11.8504C11.285 11.8218 11.3009 11.7931 11.3137 11.7645C11.32 11.7517 11.3296 11.7358 11.336 11.7231C11.3551 11.6817 11.371 11.6403 11.3805 11.5989C11.4602 11.2326 11.1226 10.7709 11.2818 10.4301C11.3009 10.3887 11.3264 10.3537 11.3551 10.3187C11.3582 10.3123 11.3646 10.3091 11.3678 10.3028C11.3965 10.2709 11.4283 10.2423 11.4633 10.2136C11.4729 10.2072 11.4824 10.2009 11.4888 10.1945C11.5143 10.1754 11.5398 10.1563 11.5684 10.1404C11.6003 10.1181 11.6353 10.0958 11.6703 10.0767C11.6926 10.0639 11.7149 10.048 11.7404 10.0353C11.7754 10.0162 11.8105 9.99387 11.8487 9.97476C11.8678 9.96202 11.8901 9.95247 11.9092 9.93973C11.9124 9.93973 11.9187 9.93336 11.9219 9.93018C11.9315 9.92381 11.941 9.91744 11.9506 9.91107C11.9888 9.88878 12.0302 9.8633 12.0652 9.83783C12.0716 9.83146 12.0811 9.82827 12.0875 9.82509C12.1162 9.80598 12.1448 9.78369 12.1703 9.7614C12.1703 9.7614 12.1735 9.75821 12.1767 9.75503C12.1958 9.73911 12.2117 9.72318 12.2276 9.70726C12.2435 9.69134 12.2595 9.67223 12.2754 9.65313C12.304 9.61491 12.3263 9.57351 12.3454 9.52893C12.3518 9.51301 12.3582 9.49708 12.3646 9.47798C12.3773 9.44932 12.3868 9.41747 12.3964 9.38881C12.4028 9.36652 12.4091 9.34423 12.4123 9.32512C12.4187 9.29646 12.4282 9.26461 12.4346 9.23595C12.441 9.20411 12.4474 9.17226 12.4569 9.13723C12.4633 9.1022 12.4696 9.07036 12.4792 9.03851C12.4856 9.00667 12.4919 8.97482 12.5015 8.94298C12.5079 8.92069 12.5142 8.8984 12.5174 8.8761C12.5238 8.84744 12.5333 8.81878 12.5429 8.79331C12.5493 8.7742 12.5588 8.75191 12.5652 8.7328C12.5747 8.70732 12.5875 8.68185 12.6002 8.65956C12.6098 8.64045 12.6193 8.62453 12.6321 8.60861C12.6543 8.57358 12.683 8.54173 12.7149 8.51307C12.7531 8.47804 12.7976 8.45256 12.8454 8.43027C12.8454 8.43027 12.8486 8.43027 12.8518 8.43027C12.8964 8.41116 12.941 8.39524 12.9919 8.3825C13.011 8.37932 13.0301 8.37295 13.046 8.36977C13.0779 8.3634 13.1097 8.35703 13.1448 8.35384C13.2148 8.34429 13.2881 8.33474 13.3581 8.32837C13.3709 8.32837 13.3868 8.32837 13.3995 8.32518C13.46 8.31881 13.5205 8.31245 13.581 8.30289C13.5906 8.30289 13.6033 8.30289 13.6129 8.29971C13.6224 8.29971 13.632 8.29652 13.6415 8.29334C13.667 8.29015 13.6893 8.28378 13.7116 8.27742C13.7243 8.27742 13.7371 8.27105 13.7498 8.26786C13.7657 8.26468 13.7785 8.25831 13.7944 8.25194C13.8008 8.25194 13.8071 8.24875 13.8135 8.24557C13.8167 8.24557 13.8231 8.24557 13.8262 8.24239C13.8454 8.23602 13.8645 8.22646 13.8804 8.22009C13.8963 8.21373 13.909 8.20417 13.925 8.1978C13.925 8.1978 13.9282 8.1978 13.9313 8.1978C13.9441 8.18825 13.96 8.18188 13.9727 8.16914C13.9887 8.1564 14.0078 8.14367 14.0237 8.13093C14.0301 8.12774 14.0332 8.12137 14.0364 8.11819C14.0428 8.11182 14.0492 8.10545 14.0587 8.09908C14.0715 8.08634 14.0842 8.07679 14.0969 8.06405C14.1033 8.0545 14.1129 8.04495 14.1192 8.03858C14.167 7.98444 14.2148 7.92712 14.2625 7.86661C14.2976 7.82203 14.3294 7.77426 14.3644 7.72968C14.374 7.71694 14.3835 7.7042 14.3931 7.69147C14.4377 7.63414 14.4823 7.58001 14.5268 7.52905C14.5396 7.51632 14.5523 7.50039 14.5619 7.48766C14.5682 7.48129 14.5778 7.47492 14.5842 7.46855C14.616 7.4367 14.651 7.40804 14.6861 7.38257C14.6861 7.38257 14.6924 7.38257 14.6924 7.37938C14.7338 7.35391 14.7752 7.33162 14.8198 7.31569C14.8517 7.30614 14.8835 7.29977 14.9153 7.29659C14.9472 7.2934 14.979 7.29659 15.0109 7.29659C15.0268 7.29659 15.0459 7.29659 15.0618 7.29977C15.0873 7.30295 15.116 7.30932 15.1414 7.31569C15.1574 7.31888 15.1733 7.32206 15.1892 7.32525C15.2211 7.3348 15.2497 7.34435 15.2816 7.35391C15.2943 7.35709 15.307 7.36028 15.323 7.36664C15.3676 7.38257 15.4153 7.39849 15.4599 7.41441C15.5013 7.43034 15.5459 7.44626 15.5873 7.459C15.6 7.46218 15.6128 7.46536 15.6287 7.47173C15.6605 7.48129 15.6924 7.49084 15.7242 7.50039C15.7401 7.50358 15.7592 7.50676 15.7752 7.50995C15.8038 7.51632 15.8293 7.52269 15.858 7.52587C15.8771 7.52587 15.893 7.52587 15.9121 7.52905C15.9312 7.52905 15.9471 7.53224 15.9662 7.53224C15.9822 7.53224 15.9949 7.53224 16.0108 7.53224C16.0204 7.53224 16.0331 7.53224 16.0459 7.52905C16.0681 7.52587 16.0936 7.5195 16.1159 7.51313C16.1223 7.51313 16.1318 7.50676 16.1382 7.50676C16.1446 7.50676 16.1541 7.50039 16.1605 7.50039C16.1732 7.49721 16.1828 7.49403 16.1955 7.48766C16.2178 7.4781 16.2401 7.46855 16.2624 7.459C16.272 7.45581 16.2815 7.44944 16.2942 7.44626C16.2942 7.44626 16.3006 7.44626 16.3038 7.44307C16.3102 7.43989 16.3197 7.43352 16.3261 7.43034C16.4057 7.39212 16.4853 7.34754 16.5649 7.29977C16.6477 7.252 16.7273 7.20742 16.807 7.16921C16.8133 7.16921 16.8197 7.16284 16.8261 7.15965C16.8324 7.15647 16.8388 7.15328 16.8452 7.1501C16.8802 7.13418 16.9152 7.12144 16.9503 7.1087C16.9566 7.1087 16.9662 7.10233 16.9725 7.10233C17.0139 7.08959 17.0553 7.08004 17.0936 7.07685C17.1254 7.07367 17.1572 7.07367 17.1891 7.07685C17.2337 7.08322 17.2751 7.09596 17.3133 7.11188C17.326 7.11825 17.3388 7.12462 17.3515 7.13099C17.377 7.14373 17.4025 7.15965 17.4279 7.17557C17.4439 7.18831 17.4598 7.20105 17.4757 7.21379C17.4916 7.22653 17.5107 7.24245 17.5267 7.25837C17.5903 7.31569 17.6508 7.37938 17.7114 7.44307C17.7719 7.50995 17.8355 7.57682 17.8992 7.63414C17.9024 7.63733 17.9056 7.6437 17.912 7.64688C17.9311 7.6628 17.947 7.67554 17.9661 7.68828C17.9789 7.69783 17.9916 7.71057 18.0075 7.71694C18.0075 7.71694 18.0139 7.72013 18.0171 7.72331C18.0521 7.7456 18.0871 7.76152 18.1253 7.77745C18.1667 7.79337 18.2081 7.79974 18.2559 7.80611C18.2718 7.80611 18.2877 7.80611 18.3037 7.80611C18.3355 7.80611 18.3674 7.80929 18.3992 7.80611C18.4056 7.80611 18.4088 7.80611 18.4151 7.80611C18.4247 7.80611 18.4374 7.80611 18.447 7.80611C18.5138 7.80292 18.5839 7.79655 18.6508 7.79018C18.6508 7.79018 18.6794 7.79019 18.6922 7.787C18.775 7.77745 18.8514 7.77108 18.9278 7.76789C18.9533 7.76789 18.9756 7.76789 18.9979 7.76789C19.0425 7.76789 19.0871 7.76789 19.1285 7.77426C19.1476 7.77426 19.1699 7.77745 19.189 7.78063C19.2399 7.79019 19.2877 7.80611 19.3291 7.83158C19.3355 7.83158 19.3418 7.83477 19.345 7.83795C19.396 7.8698 19.4342 7.91438 19.4692 7.96533L19.396 7.85388C19.396 7.85388 19.3864 7.84114 19.38 7.83158L19.3737 7.80292Z" fill="#E8F4FD" stroke="black" stroke-width="0.12"/>
<path d="M12.3678 15.3633C12.4061 15.4206 12.4347 15.4875 12.4602 15.5607C12.5334 15.7805 12.5685 16.0416 12.6799 16.2167L12.7532 16.3282C12.6003 16.0957 12.5939 15.7072 12.4411 15.4747L12.3678 15.3633Z" fill="#E8F4FD" stroke="black" stroke-width="0.12"/>
<path d="M20.8419 12.6628C20.7622 13.0322 21.0998 13.4908 20.9406 13.8347C20.7814 14.1786 20.1731 14.3092 19.9438 14.6149C19.7114 14.9238 19.791 15.5002 19.5012 15.7581C19.342 15.9014 19.0967 15.9237 18.8515 15.9492C18.8197 15.9492 18.7847 15.9556 18.7528 15.9588C18.584 15.9779 18.4184 16.0033 18.2879 16.0766C18.1605 16.1498 18.0586 16.274 17.9567 16.4078C17.7847 16.6339 17.6255 16.8886 17.3898 16.9651C17.3548 16.9746 17.323 16.9842 17.2879 16.9874C16.9408 17.0224 16.5523 16.7199 16.202 16.7581C15.8517 16.7963 15.4664 17.1784 15.1257 17.2167C15.0938 17.2198 15.0588 17.2198 15.0269 17.2167C14.7913 17.1912 14.6193 16.9714 14.441 16.7836C14.3327 16.6689 14.2244 16.567 14.0971 16.5224C13.9378 16.4683 13.7308 16.4906 13.5239 16.5129C13.492 16.5161 13.4602 16.5192 13.4315 16.5224C13.2213 16.5447 13.0175 16.5511 12.8742 16.4587C12.5749 16.2645 12.6322 15.6722 12.387 15.4142C12.145 15.1563 11.5335 15.1563 11.3616 14.8474C11.1864 14.5353 11.5049 14.013 11.4125 13.6595C11.3234 13.322 10.7979 13.064 10.7884 12.6946C10.7788 12.3252 11.2947 11.959 11.3679 11.6024C11.4475 11.2361 11.11 10.7744 11.2692 10.4336C11.4253 10.0897 12.0367 9.95914 12.266 9.65343C12.4984 9.34453 12.4156 8.76814 12.7054 8.51019C12.8615 8.37007 13.1035 8.34778 13.3487 8.3223H13.3901C13.5812 8.29683 13.7722 8.27454 13.9187 8.19174C14.2531 8.00067 14.441 7.42746 14.8168 7.30326C14.8486 7.29371 14.8805 7.28734 14.9123 7.28415C15.253 7.24912 15.6543 7.55165 16.0078 7.51662C16.3613 7.48159 16.7466 7.09308 17.0873 7.05805C17.1192 7.05487 17.151 7.05487 17.1829 7.05805C17.5618 7.10264 17.772 7.63445 18.1127 7.75228C18.2592 7.80641 18.4503 7.79049 18.6414 7.7682H18.6828C18.9471 7.73635 19.1764 7.71406 19.3356 7.81597C19.6349 8.01022 19.5808 8.59936 19.8228 8.86049C20.0617 9.11525 20.6763 9.11843 20.845 9.43052C21.0202 9.73941 20.7017 10.2649 20.7941 10.6152C20.8864 10.9655 21.4087 11.2107 21.4183 11.5801C21.4278 11.9495 20.9119 12.3189 20.8387 12.6723L20.8419 12.6628ZM16.1861 15.9715C18.4057 15.739 20.1667 13.8283 20.1222 11.7074C20.0776 9.58656 18.2433 8.05481 16.0237 8.28727C13.8041 8.51974 12.0431 10.4305 12.0876 12.5513C12.1322 14.6722 13.9665 16.204 16.1861 15.9715Z" fill="#E8F4FD" stroke="black" stroke-width="0.12"/>
</g>
<defs>
<clipPath id="clip0_4017_2675">
<rect width="24" height="24" fill="white"/>
</clipPath>
</defs>
</svg>
