<svg width="24" height="24" viewBox="0 0 24 24" fill="none" xmlns="http://www.w3.org/2000/svg">
<g clip-path="url(#clip0_6322_6403)">
<path d="M11.7331 15.5352C11.6948 15.5352 11.6594 15.5148 11.64 15.4817L9.43852 11.7099C9.4289 11.6934 9.42383 11.6746 9.42383 11.6555V11.2791C9.42383 11.2195 9.47208 11.1713 9.53161 11.1713H9.68543C10.1056 11.1713 10.4584 11.1324 10.7437 11.0546C11.037 10.9768 11.2669 10.8485 11.4334 10.6695C11.5782 10.5139 11.672 10.3083 11.7149 10.0527C11.7254 9.98975 11.6752 9.93445 11.6114 9.93445H9.53161C9.47208 9.93445 9.42383 9.8862 9.42383 9.82667V9.29547C9.42383 9.23594 9.47208 9.18769 9.53161 9.18769H11.5883C11.656 9.18769 11.7072 9.12586 11.6897 9.06044C11.6284 8.83031 11.5271 8.63936 11.3859 8.4876C11.2194 8.30091 10.9934 8.16478 10.7081 8.07921C10.4306 7.99365 10.0897 7.95086 9.68543 7.95086H9.53161C9.47208 7.95086 9.42383 7.90261 9.42383 7.84308V7.31188C9.42383 7.25236 9.47208 7.2041 9.53161 7.2041H14.2389C14.2985 7.2041 14.3467 7.25236 14.3467 7.31188V7.84308C14.3467 7.90261 14.2985 7.95086 14.2389 7.95086H12.4034C12.3019 7.95086 12.2519 8.08443 12.3198 8.15984C12.407 8.25655 12.4841 8.36192 12.5512 8.47593C12.656 8.65427 12.727 8.85984 12.764 9.09262C12.7726 9.14664 12.8184 9.18769 12.8731 9.18769H14.2389C14.2985 9.18769 14.3467 9.23594 14.3467 9.29547V9.82667C14.3467 9.8862 14.2985 9.93445 14.2389 9.93445H12.8987C12.8432 9.93445 12.797 9.97663 12.7896 10.0316C12.7192 10.5531 12.501 10.9641 12.135 11.2646C11.7879 11.5484 11.3353 11.7384 10.7771 11.8345C10.7002 11.8478 10.6592 11.9346 10.7002 12.001L12.7825 15.3707C12.8269 15.4425 12.7752 15.5352 12.6908 15.5352H11.7331Z" fill="currentColor"/>
<path d="M11.1094 1.94434C10.6261 1.94434 10.2344 2.33609 10.2344 2.81934C10.2344 3.30259 10.6261 3.69434 11.1094 3.69434V1.94434ZM11.1094 3.69434C15.4444 3.69434 18.9586 7.20856 18.9586 11.5436H20.7086C20.7086 6.24206 16.4109 1.94434 11.1094 1.94434V3.69434Z" fill="currentColor"/>
<path d="M19.4766 11.1953L20.0137 11.1953L19.7451 11.5791L19.4766 11.1953Z" fill="currentColor" stroke="currentColor" stroke-width="1.75"/>
<path d="M12.8867 21.0674C13.37 21.0674 13.7617 20.6756 13.7617 20.1924C13.7617 19.7091 13.37 19.3174 12.8867 19.3174L12.8867 21.0674ZM12.8867 19.3174C8.55171 19.3174 5.03749 15.8032 5.03749 11.4682L3.28749 11.4682C3.28749 16.7697 7.58521 21.0674 12.8867 21.0674L12.8867 19.3174Z" fill="currentColor"/>
<path d="M4.52148 11.8164L3.98437 11.8164L4.25293 11.4326L4.52148 11.8164Z" fill="currentColor" stroke="currentColor" stroke-width="1.75"/>
</g>
<defs>
<clipPath id="clip0_6322_6403">
<rect width="24" height="24" fill="currentColor"/>
</clipPath>
</defs>
</svg>
