<svg width="24" height="24" viewBox="0 0 24 24" fill="none" xmlns="http://www.w3.org/2000/svg">
<g clip-path="url(#clip0_6029_11582)">
<path d="M11.4937 5.09685L11.5578 5.10966C11.6764 5.10966 11.7917 5.15452 11.8878 5.23462C12 5.32113 12.0769 5.44929 12.0993 5.58706L12.362 7.12179L12.6856 6.94877L12.4229 5.41404C12.3973 5.27627 12.3204 5.14811 12.2114 5.0616C12.1153 4.9815 12 4.93664 11.8814 4.93664L11.8173 4.92383L8.21922 5.37239C8.15834 5.3788 8.10387 5.39802 8.05261 5.42366L7.729 5.59667C7.78027 5.57104 7.83474 5.55182 7.89561 5.54541L11.4937 5.09685Z" fill="currentColor" stroke="currentColor" stroke-width="0.075"/>
<path d="M7.06582 7.81378L7.38942 7.64076L7.11388 6.06118C7.01776 5.5165 7.26767 5.01026 7.69701 4.77637L7.3734 4.94938C6.94406 5.18328 6.69415 5.68951 6.79027 6.2342L7.06582 7.81378Z" fill="currentColor" stroke="currentColor" stroke-width="0.075"/>
<path d="M19.6351 17.8132L5.96029 19.505C5.36114 19.5787 4.78762 19.1269 4.67548 18.4957L3.02541 9.08228C2.9389 8.58566 3.16318 8.12748 3.55407 7.91602L2.48073 8.49594C2.08984 8.70741 1.86555 9.16558 1.95206 9.66221L3.59893 19.0756C3.70787 19.7068 4.28459 20.1586 4.88374 20.0849L18.5585 18.3932C18.6899 18.3771 18.8084 18.3387 18.9174 18.281L19.9907 17.7011C19.8818 17.7588 19.7632 17.7972 19.6318 17.8132H19.6351Z" fill="currentColor" stroke="currentColor" stroke-width="0.075"/>
<path d="M20.5197 16.5348L18.8729 7.12135C18.7607 6.49016 18.184 6.03839 17.5849 6.11209L13.3331 6.63755L13.1024 5.32069C12.9807 4.62542 12.3463 4.12559 11.683 4.20569L8.08813 4.65426C7.42811 4.73436 6.98916 5.36875 7.11091 6.06403L7.3416 7.38088L3.91009 7.80381C3.31094 7.8775 2.91364 8.45102 3.02578 9.08221L4.67265 18.4956C4.78159 19.1268 5.35831 19.5786 5.95746 19.5049L19.6322 17.8132C20.2346 17.7395 20.6287 17.166 20.5165 16.5348H20.5197ZM7.80938 5.95509C7.75812 5.66352 7.94395 5.404 8.2163 5.36875L11.8144 4.92019L11.8785 4.93301C11.997 4.93301 12.1124 4.97786 12.2085 5.05796C12.3206 5.14447 12.3975 5.27263 12.42 5.41041L12.6443 6.71765L8.04007 7.28796L7.80618 5.95189L7.80938 5.95509Z" fill="currentColor" stroke="currentColor" stroke-width="0.075"/>
<path d="M22.0646 7.76865L21.5264 8.05701L19.7642 6.88114L20.3024 6.59277L22.0646 7.76865Z" fill="currentColor" stroke="currentColor" stroke-width="0.075"/>
<path d="M18.2933 5.25725L17.755 5.54561L15.7493 4.20953L16.2843 3.91797L18.2933 5.25725Z" fill="currentColor" stroke="currentColor" stroke-width="0.075"/>
<path d="M14.0707 11.3669L13.5356 11.6585L17.7553 5.5452L18.2936 5.25684L14.0707 11.3669Z" fill="currentColor" stroke="currentColor" stroke-width="0.075"/>
<path d="M14.8591 14.4721L14.3208 14.7637L11.1553 12.9791L11.6935 12.6875L14.8591 14.4721Z" fill="currentColor" stroke="currentColor" stroke-width="0.075"/>
<path d="M16.2845 3.91766L21.491 1.7998L22.0645 7.76889L20.3023 6.59302L14.8587 14.4717L11.6931 12.6871L5.2178 21.9082L3.32422 20.4056L10.9177 9.58878L14.0705 11.367L18.2934 5.25694L16.2845 3.91766Z" fill="currentColor" stroke="currentColor" stroke-width="0.075"/>
<path d="M5.21798 21.908L4.67971 22.1995L2.78613 20.6968L3.32441 20.4053L5.21798 21.908Z" fill="currentColor" stroke="currentColor" stroke-width="0.075"/>
<path d="M3.32441 20.4056L2.78613 20.6972L10.3797 9.88043L10.9179 9.58887L3.32441 20.4056Z" fill="currentColor" stroke="currentColor" stroke-width="0.075"/>
<circle cx="22.0495" cy="4.05" r="1.8" fill="currentColor"/>
</g>
<defs>
<clipPath id="clip0_6029_11582">
<rect width="24" height="24" fill="currentColor"/>
</clipPath>
</defs>
</svg>
