<svg width="24" height="24" viewBox="0 0 24 24" fill="none" xmlns="http://www.w3.org/2000/svg">
<g clip-path="url(#clip0_3468_10805)">
<g clip-path="url(#clip1_3468_10805)">
<g clip-path="url(#clip2_3468_10805)">
<path d="M16.4794 18.0056C16.4794 16.6655 16.4794 15.9955 16.2605 15.4669C15.9686 14.7622 15.4087 14.2024 14.704 13.9105C14.1755 13.6915 13.5054 13.6915 12.1654 13.6915H10.0084C8.66831 13.6915 7.99828 13.6915 7.46975 13.9105C6.76504 14.2024 6.20516 14.7622 5.91326 15.4669C5.69434 15.9955 5.69434 16.6655 5.69434 18.0056M13.9629 7.9395C13.9629 9.52788 12.6753 10.8155 11.0869 10.8155C9.49849 10.8155 8.21085 9.52788 8.21085 7.9395C8.21085 6.35111 9.49849 5.06348 11.0869 5.06348C12.6753 5.06348 13.9629 6.35111 13.9629 7.9395Z" stroke="#5E6063" stroke-width="1.75" stroke-linecap="round" stroke-linejoin="round"/>
<path d="M15.4727 5.08252C16.5931 5.53608 17.3836 6.6346 17.3836 7.91772C17.3836 9.20085 16.5931 10.2994 15.4727 10.7529" stroke="#5E6063" stroke-width="1.75" stroke-linecap="round" stroke-linejoin="round"/>
<path d="M2.00014 18.1692V16.6847C2.00014 15.3012 2.94585 14.1388 4.22573 13.8092M6.82227 5.02441C5.73475 5.46486 4.9676 6.5316 4.9676 7.77762C4.9676 9.02363 5.73475 10.0904 6.82227 10.5308" stroke="#5E6063" stroke-width="1.75" stroke-linecap="round" stroke-linejoin="round"/>
<path d="M20.574 17.3511V13.2441M18.5205 15.2976H22.6274" stroke="#5E6063" stroke-width="1.75" stroke-linecap="round" stroke-linejoin="round"/>
</g>
</g>
</g>
<defs>
<clipPath id="clip0_3468_10805">
<rect width="24" height="24" fill="white"/>
</clipPath>
<clipPath id="clip1_3468_10805">
<rect width="24" height="24" fill="white"/>
</clipPath>
<clipPath id="clip2_3468_10805">
<rect width="24" height="24" fill="white"/>
</clipPath>
</defs>
</svg>
