<svg width="24" height="24" viewBox="0 0 24 24" fill="none" xmlns="http://www.w3.org/2000/svg">
<g clip-path="url(#clip0_1552_30692)">
<g clip-path="url(#clip1_1552_30692)">
<path d="M17.923 18.9396C17.923 17.4659 17.923 16.7291 17.6822 16.1478C17.3612 15.3729 16.7455 14.7571 15.9705 14.4361C15.3893 14.1954 14.6524 14.1954 13.1788 14.1954H10.8067C9.33301 14.1954 8.59617 14.1954 8.01494 14.4361C7.23997 14.7571 6.62426 15.3729 6.30325 16.1478C6.0625 16.7291 6.0625 17.4659 6.0625 18.9396M15.1555 7.86982C15.1555 9.61658 13.7395 11.0326 11.9927 11.0326C10.246 11.0326 8.82994 9.61658 8.82994 7.86982C8.82994 6.12306 10.246 4.70703 11.9927 4.70703C13.7395 4.70703 15.1555 6.12306 15.1555 7.86982Z" stroke="currentColor" stroke-width="1.75" stroke-linecap="round" stroke-linejoin="round"/>
<path d="M22.0966 19.614V17.9329C22.0966 16.3662 21.025 15.0497 19.5748 14.6765M16.6328 4.72803C17.865 5.22682 18.7343 6.43486 18.7343 7.84593C18.7343 9.257 17.865 10.465 16.6328 10.9638" stroke="currentColor" stroke-width="1.75" stroke-linecap="round" stroke-linejoin="round"/>
<path d="M1.99979 19.1195V17.487C1.99979 15.9656 3.0398 14.6872 4.4473 14.3248M7.30273 4.66406C6.10679 5.14842 5.26314 6.32153 5.26314 7.69179C5.26314 9.06204 6.10679 10.2352 7.30273 10.7195" stroke="currentColor" stroke-width="1.75" stroke-linecap="round" stroke-linejoin="round"/>
</g>
</g>
<defs>
<clipPath id="clip0_1552_30692">
<rect width="24" height="24" fill="currentColor"/>
</clipPath>
<clipPath id="clip1_1552_30692">
<rect width="24" height="24" fill="currentColor"/>
</clipPath>
</defs>
</svg>
