<svg width="24" height="24" viewBox="0 0 24 24" fill="none" xmlns="http://www.w3.org/2000/svg">
<g clip-path="url(#clip0_6027_5714)">
<path d="M7.55064 9.33278L1.85485 6.02441L1.89113 18.8164L7.58691 22.1247L7.55064 9.33278Z" fill="currentColor" stroke="currentColor" stroke-width="0.075"/>
<path d="M14.7383 5.1855L9.0425 1.875L1.85502 6.02379L7.5508 9.33216L14.7383 5.1855Z" fill="currentColor" stroke="currentColor" stroke-width="0.075"/>
<path d="M7.55163 9.33318L7.58791 22.1251L14.7754 17.9763L14.7391 5.18652L7.55163 9.33318Z" fill="currentColor" stroke="currentColor" stroke-width="0.075"/>
<path d="M10.401 12.775L9.77304 12.417L9.78073 14.827L10.4087 15.1875L10.401 12.775Z" fill="currentColor"/>
<path d="M22.1446 6.10607L21.5167 5.7481L9.77539 12.4164L10.4034 12.7744L22.1446 6.10607Z" fill="currentColor" stroke="currentColor" stroke-width="0.075"/>
<path d="M10.4028 12.7744L10.4105 15.1869L22.1426 8.52387L22.1349 6.11133L10.4028 12.7744Z" fill="currentColor" stroke="currentColor" stroke-width="0.075"/>
<mask id="mask0_6027_5714" style="mask-type:alpha" maskUnits="userSpaceOnUse" x="10" y="6" width="13" height="10">
<path d="M10.4022 12.7757L10.4099 15.1882L22.1426 8.52484L22.1349 6.1123L10.4022 12.7757Z" fill="currentColor"/>
</mask>
<g mask="url(#mask0_6027_5714)">
<path d="M17.4712 8.40918L14.846 9.26452L13.8975 13.5843L16.5363 12.6669L17.4712 8.40918Z" fill="currentColor"/>
<path d="M21.4561 6.53418L18.8308 7.38952L17.8824 11.7093L20.5212 10.7919L21.4561 6.53418Z" fill="currentColor"/>
</g>
<path d="M13.3645 11.5496C13.324 11.5411 13.2813 11.5368 13.2386 11.5347C13.2301 11.5347 13.2215 11.5347 13.213 11.5347C13.1703 11.5347 13.1276 11.5347 13.085 11.5368C13.0807 11.5368 13.0743 11.5368 13.07 11.5368C13.0252 11.5411 12.9783 11.5475 12.9292 11.5582C12.9249 11.5582 12.9185 11.5603 12.9142 11.5624C12.8652 11.5731 12.8161 11.588 12.7649 11.603C12.7606 11.603 12.7584 11.6051 12.7542 11.6072C12.7008 11.6243 12.6475 11.6456 12.5941 11.6712C12.5899 11.6712 12.5877 11.6755 12.5835 11.6755C12.528 11.7011 12.4725 11.7288 12.417 11.7629L10.9125 10.8884C10.9296 10.8777 10.9488 10.8671 10.9658 10.8585C10.9893 10.8457 11.0128 10.8351 11.0341 10.8223C11.0491 10.8159 11.064 10.8073 11.079 10.8009C11.0832 10.8009 11.0854 10.7967 11.0896 10.7967C11.0939 10.7967 11.0982 10.7924 11.1024 10.7903C11.1259 10.7796 11.1472 10.7711 11.1707 10.7625C11.1942 10.754 11.2155 10.7455 11.239 10.7369C11.2433 10.7369 11.2475 10.7348 11.2518 10.7327C11.2561 10.7327 11.2582 10.7305 11.2625 10.7284C11.2774 10.7241 11.2924 10.7177 11.3073 10.7135C11.3308 10.7071 11.3542 10.7007 11.3777 10.6943C11.3884 10.6922 11.3991 10.69 11.4119 10.6879C11.4161 10.6879 11.4225 10.6858 11.4268 10.6836C11.4332 10.6836 11.4417 10.6794 11.4481 10.6794C11.4738 10.6751 11.4972 10.6708 11.5228 10.6666C11.5378 10.6666 11.5527 10.6644 11.5676 10.6623C11.5719 10.6623 11.5783 10.6623 11.5826 10.6623C11.5869 10.6623 11.5933 10.6623 11.5975 10.6623C11.6253 10.6623 11.6509 10.6602 11.6765 10.6602C11.6872 10.6602 11.7 10.6602 11.7106 10.6602C11.7192 10.6602 11.7277 10.6602 11.7362 10.6602C11.7448 10.6602 11.7554 10.6602 11.764 10.6602C11.7981 10.6623 11.8301 10.6687 11.8621 10.6751C11.8685 10.6751 11.8771 10.6794 11.8835 10.6815C11.9155 10.6879 11.9475 10.6964 11.9795 10.7071C11.9817 10.7071 11.9838 10.7092 11.9859 10.7113C12.0307 10.7284 12.0734 10.7476 12.1161 10.7711L13.6206 11.6456C13.5801 11.6222 13.5352 11.603 13.4904 11.5859C13.4584 11.5731 13.4221 11.5646 13.388 11.556C13.3816 11.556 13.3752 11.5518 13.3667 11.5496H13.3645Z" fill="currentColor" stroke="currentColor" stroke-width="0.075"/>
<path d="M9.23263 13.7278C9.26037 13.0175 9.55914 12.337 9.97314 11.7654C10.2292 11.4198 10.5429 11.1062 10.9164 10.8887L12.4209 11.7632C12.0474 11.9808 11.7337 12.2922 11.4776 12.6399C10.8993 13.4185 10.2591 15.0631 11.2301 15.7606L9.72559 14.886C9.33293 14.6514 9.21769 14.1565 9.23476 13.7256L9.23263 13.7278Z" fill="currentColor" stroke="currentColor" stroke-width="0.075"/>
<path d="M12.418 11.7624C11.4855 12.3021 10.73 13.6054 10.7343 14.6762C10.7385 15.747 11.4961 16.18 12.4287 15.6424C13.3613 15.1049 14.1146 13.7995 14.1103 12.7287C14.1082 11.6579 13.3485 11.227 12.4159 11.7645L12.418 11.7624Z" fill="currentColor" stroke="currentColor" stroke-width="0.075"/>
<circle cx="20.175" cy="1.8" r="1.8" fill="currentColor"/>
</g>
<defs>
<clipPath id="clip0_6027_5714">
<rect width="24" height="24" fill="currentColor"/>
</clipPath>
</defs>
</svg>
