<svg width="129" height="64" viewBox="0 0 129 64" fill="none" xmlns="http://www.w3.org/2000/svg">
<path d="M1.28643 62.6494C0.900502 63.0997 0.38593 63.2283 0 63.2283V63.6142H6.5608V63.2283C6.49648 63.2283 5.21005 63.2283 4.82412 62.5851C4.56683 62.2635 4.50251 61.8132 4.50251 60.3338V56.3459H7.01105C8.0402 56.3459 8.55477 56.4102 8.9407 56.7962C9.39095 57.2464 9.39095 57.9539 9.39095 57.9539H10.0342V53.7087H9.39095C9.39095 53.7087 9.39095 54.4163 8.9407 54.8665C8.55477 55.2524 8.0402 55.3168 7.01105 55.3168H4.50251V49.5921H7.33266C8.23316 49.5921 9.00502 49.5921 9.51959 49.9781C10.2271 50.557 10.1628 51.3288 10.1628 51.3931H10.806V48.563H0.0643216V49.0132C0.385929 49.0132 0.964824 49.1419 1.22211 49.4635C1.67236 49.8494 1.73668 50.2997 1.73668 52.165V59.4333C1.73668 61.4916 1.73668 62.1992 1.28643 62.6494Z" fill="currentColor"/>
<path d="M48.4342 60.205C48.4342 57.9537 47.0191 57.1175 45.6684 56.2814L44.3176 55.4452C43.0955 54.7376 42.4523 54.2874 42.4523 53.1296C42.4523 52.2291 42.9025 51.1999 44.9608 51.2643C46.9548 51.3286 47.4051 53.001 47.4694 53.5155H48.0483V51.007C48.0483 51.007 46.6975 50.3638 44.8965 50.3638C41.5518 50.3638 40.1367 51.9075 40.1367 53.8371C40.1367 55.7025 40.9729 56.4743 42.6453 57.5035L43.8674 58.2753C45.1538 59.0472 45.99 59.4974 45.99 60.9125C45.99 62.0703 45.0895 63.0351 43.2885 63.0351C42.388 63.0351 40.9086 62.5849 40.7799 60.8482H40.1367V63.3567C40.6513 63.5497 41.5518 63.9999 43.2885 63.9999C45.3468 63.9356 48.4342 63.421 48.4342 60.205Z" fill="currentColor"/>
<path d="M20.1328 51.1358V50.6855H14.4725V51.1358C14.9228 51.1358 15.3087 51.3288 15.5017 51.5217C15.8233 51.8433 15.8876 52.1649 15.8876 53.58V60.0122C15.8876 61.7489 15.8233 62.3278 15.5017 62.7137C15.1801 63.0353 14.7298 63.1639 14.4082 63.1639V63.5499H20.0685V63.1639C19.6183 63.1639 19.2323 62.971 18.975 62.7137C18.6534 62.3921 18.5891 62.0061 18.5891 60.5911V54.2232C18.5891 52.4866 18.5891 52.0363 18.975 51.6504C19.361 51.2644 19.8112 51.1358 20.1328 51.1358Z" fill="currentColor"/>
<path d="M63.0995 53.3224V50.7495H51.5859V53.3224H52.1648C52.1648 53.0008 52.2292 52.4219 52.6794 52.0359C53.1297 51.7143 53.7729 51.65 54.5447 51.65H55.9598V60.0761C55.9598 61.5555 55.9598 62.3274 55.5096 62.7776C55.1236 63.0993 54.4804 63.2279 54.0945 63.2279V63.6138H60.5266V63.2279C60.0121 63.2279 59.3689 63.0993 59.1116 62.7776C58.79 62.456 58.7256 62.0701 58.7256 60.5907V51.65H60.1407C60.8482 51.65 61.5558 51.7143 62.006 52.0359C62.4563 52.4219 62.5206 53.0008 62.5206 53.3224H63.0995Z" fill="currentColor"/>
<path d="M108.189 58.8544L102.078 50.7499H97.8329V51.2001C98.2831 51.2001 98.6691 51.3931 98.862 51.586C99.1836 51.9077 99.248 52.2936 99.248 53.7087V60.0765C99.248 61.8132 99.1836 62.3921 98.862 62.778C98.5404 63.0996 98.0902 63.2283 97.7686 63.2283V63.6142H102.078V63.2283C101.628 63.2283 101.242 63.0353 101.049 62.778C100.727 62.4564 100.663 62.0705 100.663 60.6554V53.1298C100.663 53.1941 100.856 53.5157 101.242 54.0303L108.51 63.6142H110.311V54.2876C110.311 52.5509 110.376 51.972 110.697 51.586C111.019 51.2644 111.469 51.1358 111.791 51.1358V50.6855H107.417V51.1358C107.867 51.1358 108.253 51.3288 108.51 51.5217C108.832 51.8433 108.896 52.2293 108.896 53.6443V59.8835C108.896 59.9479 108.768 59.5619 108.189 58.8544Z" fill="currentColor"/>
<path d="M125.685 57.1173C125.685 60.848 124.398 62.7776 121.118 62.7776C120.603 62.7776 120.217 62.7776 119.96 62.7133C119.51 62.5847 119.445 62.3274 119.445 61.7485V51.7143C119.445 51.7143 119.831 51.65 120.989 51.65C123.112 51.5857 125.685 52.4219 125.685 57.1173ZM128.643 56.8601C128.643 50.8138 122.919 50.7495 120.796 50.7495H115.265V51.1998C115.715 51.1998 116.101 51.3927 116.294 51.5857C116.615 51.9073 116.68 52.2932 116.68 53.7083V60.0761C116.68 61.8128 116.615 62.3917 116.294 62.7776C115.972 63.0993 115.522 63.2279 115.2 63.2279V63.6781H120.282C121.632 63.6781 122.983 63.6781 123.819 63.4209C126.328 62.7133 128.643 60.848 128.643 56.8601Z" fill="currentColor"/>
<path d="M89.7929 57.8253H86.3195L87.5416 54.7379C87.9919 53.5801 88.1205 53.0012 88.1205 52.9369C88.1205 53.0655 88.1848 53.5157 88.6351 54.6735L89.7929 57.8253ZM72.9406 56.1529C72.7476 56.1529 72.2974 56.2173 72.0401 56.2173C70.9466 56.2173 70.4321 56.2173 70.4321 56.2173V49.5278C70.4321 49.5278 70.9466 49.4635 71.6542 49.4635C73.1336 49.4635 75.3848 49.8494 75.3848 52.7439C75.3205 55.1238 74.1627 55.96 72.9406 56.1529ZM95.5818 63.6142V63.2283C95.0672 63.2283 94.8099 62.971 94.6813 62.7781C94.4883 62.5208 94.3597 62.2635 94.2311 61.8132L89.9215 50.7499H87.9919L83.3607 61.363C82.8461 62.5208 82.5245 63.0997 81.6883 63.2283H81.4311C80.4019 63.164 79.5657 62.3921 78.4079 61.17C76.9929 59.6263 74.42 56.7318 74.42 56.7318C74.613 56.6675 78.3436 55.96 78.3436 52.5509C78.3436 51.5218 77.8934 49.5278 75.0632 48.8203C74.0984 48.563 72.619 48.563 71.6542 48.563H65.9296V49.0132C66.2512 49.0132 66.8301 49.1419 67.0873 49.4635C67.5376 49.8494 67.6019 50.2997 67.6019 52.165V59.4977C67.6019 61.6203 67.6019 62.2635 67.1517 62.7137C66.7657 63.164 66.2512 63.2926 65.8652 63.2926V63.6786H72.0401V63.2926C71.7185 63.2926 71.2039 63.164 70.8823 62.8424C70.4321 62.4564 70.3677 62.0062 70.3677 60.1409V57.2464H71.6542C72.1687 57.9539 74.9989 61.2343 75.7064 62.0062C76.9929 63.4213 77.7004 63.6142 79.3728 63.6142H81.4311H81.7527H85.8049V63.164C85.5476 63.164 85.0974 63.0997 84.9044 62.9067C84.7758 62.7781 84.7115 62.6494 84.7115 62.3921C84.7115 62.0705 84.8401 61.7489 85.0331 61.17L85.9979 58.6615H90.2431L91.2079 61.17C91.4009 61.6203 91.5295 62.0705 91.5295 62.3278C91.5295 62.5851 91.4652 62.7137 91.3366 62.8424C91.0793 63.0353 90.629 63.0997 90.4361 63.0997V63.4856H95.5818V63.6142Z" fill="currentColor"/>
<path d="M30.1672 57.2463C29.9742 57.3107 29.7169 57.3107 29.4597 57.3107C28.7521 57.3107 28.2375 57.3107 28.2375 57.3107V51.6504C28.2375 51.6504 28.6878 51.586 29.2024 51.586C30.2315 51.586 31.9682 51.779 31.9682 54.3519C32.0325 56.6675 30.8747 57.1177 30.1672 57.2463ZM37.6285 63.6785V63.2283C36.6637 63.1639 35.9561 62.4564 35.12 61.5559C33.8978 60.2051 31.7752 57.6966 31.7752 57.6966C33.126 57.375 34.927 56.1529 34.927 54.0946C34.927 53.0654 34.4767 51.779 32.7401 51.1358C31.8396 50.8142 30.6818 50.6855 29.4597 50.6855C29.331 50.6855 29.0737 50.6855 28.8164 50.6855H24.121V51.1358C24.5712 51.1358 24.9571 51.3288 25.1501 51.5217C25.4717 51.8433 25.536 52.2293 25.536 53.6443V60.0765C25.536 61.8132 25.4717 62.3921 25.1501 62.7137C24.8285 63.0353 24.3782 63.1639 24.0566 63.1639V63.5499H29.6526V63.1639C29.2024 63.1639 28.8164 62.971 28.5592 62.7137C28.3019 62.5207 28.3019 62.1348 28.3019 60.7197V58.2112H29.2024C29.4597 58.5328 31.4536 61.2343 32.2898 62.1991C33.1903 63.2926 33.7049 63.8071 35.5059 63.8071C36.9853 63.8071 37.6285 63.6785 37.6285 63.6785Z" fill="currentColor"/>
<path d="M41.0371 20.1327C41.0371 9.19798 51.4572 0 64.2572 0C77.0572 0 87.4773 9.19798 87.4773 20.1327C87.4773 31.003 77.1215 40.2653 64.2572 40.2653C51.4572 40.201 41.0371 31.003 41.0371 20.1327Z" fill="currentColor"/>
<path d="M42.6455 20.0685C42.6455 9.71275 52.2937 1.28662 64.2576 1.28662C76.1571 1.28662 85.8696 9.71275 85.8696 20.1328C85.8696 30.5529 76.2214 38.9791 64.2576 38.9791C52.2937 38.9147 42.6455 30.4886 42.6455 20.0685Z" fill="currentColor"/>
<path d="M43.6104 20.0681C43.6104 10.1626 52.8727 2.05811 64.2576 2.05811C75.6425 2.05811 84.9048 10.0983 84.9048 20.0681C84.9048 29.9737 75.6425 38.0782 64.2576 38.0782C52.8727 38.0782 43.6104 30.038 43.6104 20.0681Z" fill="currentColor"/>
<path d="M48.8203 20.0682C48.8203 12.6712 55.7027 6.625 64.2575 6.625C72.8123 6.625 79.6947 12.6712 79.6947 20.0682C79.6947 27.4652 72.8123 33.5114 64.2575 33.5114C55.7027 33.5114 48.8203 27.5295 48.8203 20.0682Z" fill="currentColor"/>
<path d="M67.4092 14.4722C67.9237 15.3727 67.9237 16.5948 67.7951 17.431C67.6664 18.1385 67.3448 19.232 66.4443 20.2611C66.6373 20.2611 66.9589 20.1325 67.5378 20.0038C68.2453 19.8109 68.6313 19.6822 68.6313 19.6822C68.6313 19.6822 68.5669 19.9395 68.4383 20.0681C68.7599 20.1325 69.6604 20.3254 71.5901 19.8109C71.976 19.7465 72.4906 19.5536 72.6835 19.8752C73.0051 20.5827 72.169 20.7757 72.169 20.7757C72.169 20.7757 72.4906 21.0973 73.5197 20.7114C74.2272 20.4541 74.1629 19.8109 74.1629 19.8109L74.4845 20.2611C74.4845 20.2611 75.1921 19.2963 74.0986 18.7174C73.1981 18.2028 72.4262 18.7174 72.4262 18.7174C72.4262 18.7174 71.7187 18.4601 70.5609 18.2028C69.4031 17.8812 68.374 17.1094 68.374 17.1094C68.374 17.1094 68.7599 17.1737 69.5318 16.9807C70.2393 16.7877 70.4323 16.5948 70.4323 16.5948L70.368 17.045C70.368 17.045 71.1398 16.7877 72.0403 15.5656C72.5549 14.8581 72.8122 14.0219 72.8122 14.0219C72.8122 14.0219 73.0051 14.0862 73.1981 14.2792C73.3267 14.4722 73.4554 14.7938 73.4554 14.7938C73.4554 14.7938 74.0343 14.3435 73.97 13.829C73.9056 13.1857 73.4554 12.9928 73.4554 12.9928L74.3559 13.1857C74.3559 13.1857 74.2916 12.0279 72.8765 12.2209C71.6544 12.4139 71.7187 13.829 71.7187 13.829C71.7187 13.829 71.4614 14.2792 69.982 14.6008C69.0172 14.8581 67.6664 14.5365 67.4092 14.4722Z" fill="currentColor"/>
<path d="M61.1054 10.4199C61.1054 10.4199 60.5908 10.9345 60.5908 11.5134C60.4621 13.1214 60.9124 12.9928 61.2983 14.5365C61.7486 16.4018 60.5908 18.2672 60.5908 18.2672C60.5908 18.2672 61.7486 18.846 63.035 17.8812C63.9998 17.1094 63.4852 15.6943 63.4852 15.6943C63.4852 15.6943 64.0641 16.2732 63.9355 17.1737C63.6782 18.2028 63.0993 18.6531 63.0993 18.6531C63.0993 18.6531 64.5787 18.6531 65.3506 17.5596C65.9938 16.5948 65.4149 15.3727 65.4149 15.3727C65.4149 15.3727 65.8008 15.3727 66.0581 16.2089C66.3154 17.045 65.8008 17.9455 65.8008 17.9455C65.8008 17.9455 66.9586 17.6239 67.2802 16.5305C67.4089 16.0159 67.4089 15.5656 67.2802 15.244C66.5084 13.443 64.0641 14.2792 63.0993 12.5425C62.842 12.028 62.7134 11.642 62.7134 11.1275C62.0702 11.1275 61.4913 10.8702 61.1054 10.4199Z" fill="currentColor"/>
<path d="M60.269 14.9223C61.1052 16.0801 60.462 17.8168 59.1755 18.5887C57.8891 19.4249 56.4097 19.9394 54.9946 20.5183C52.9363 21.3545 52.8077 24.6349 55.7022 23.4128C56.2167 23.2198 56.9243 22.7696 57.4389 22.3836V22.255C57.4389 22.255 57.5032 21.7404 58.1464 21.2902C59.6258 20.261 59.6901 20.8399 60.3333 20.1324C60.7836 19.6178 60.9122 18.9103 60.9122 18.9103C61.1695 18.9746 62.0057 19.0389 62.6489 18.7173L62.263 19.2319C62.263 19.2319 63.2278 19.2319 63.9997 19.0389C64.3213 18.9746 64.7072 18.7816 65.0931 18.5244L64.9645 18.846C64.9645 18.846 65.9293 18.5244 66.4439 18.1384C66.7012 17.9455 67.0228 17.7525 67.2157 17.4952C67.0871 18.3314 66.7012 19.4249 65.7363 20.3254C64.3213 21.6761 61.5554 21.6761 61.5554 21.6761C61.5554 21.6761 62.9705 22.5766 63.2278 24.249C63.4208 25.2138 62.8419 26.2429 61.6198 26.4359C60.3333 26.6289 58.661 26.5002 58.661 26.5002C58.661 26.5002 57.9534 27.2078 58.7253 28.1726C59.4971 29.0731 60.7193 29.3947 60.7193 29.3947C60.7193 29.3947 62.4559 29.0731 63.0991 29.9736C63.4208 30.4882 63.1635 31.0027 63.1635 31.0027C63.1635 31.0027 62.7132 30.6168 62.263 30.5525C61.7484 30.8098 61.6841 30.8741 61.1695 31.0027C60.462 31.1314 60.2047 30.9384 60.2047 30.9384C60.2047 30.9384 60.7836 30.4882 60.462 30.3595C60.5263 30.3595 58.468 29.9093 56.9243 28.7515C55.8308 27.9153 55.5735 27.4007 55.5735 27.4007L55.9595 27.2721C55.9595 27.2721 55.3806 26.8218 55.2519 26.3716C55.1233 25.9857 55.2519 25.9213 55.2519 25.9213C55.2519 25.9213 55.8951 26.05 56.7313 25.857C57.6318 25.664 58.1464 24.9565 58.1464 24.9565C58.1464 24.9565 58.0821 24.8922 57.7605 24.3133C57.4389 23.7344 57.6318 23.3485 57.6318 23.3485C56.2811 24.249 54.0941 25.4711 53.0007 23.6058C52.1645 22.1264 53.4509 20.3897 54.7373 19.8108C55.8308 19.3605 58.3394 18.46 59.1755 17.6882C59.8187 17.045 60.076 16.0158 59.5615 15.3726C59.5615 15.3726 58.4037 16.4661 57.1816 16.3374C56.1524 16.2731 55.5092 15.3726 55.5092 15.3726L55.8308 15.3083C55.8308 15.3083 55.5092 15.1153 55.3806 14.7937C55.2519 14.4721 55.3806 13.9575 55.3806 13.9575C55.3806 13.9575 56.0881 14.7294 56.7956 14.6007C57.8248 14.4078 58.0821 13.7646 59.1755 14.0862C59.5615 14.2148 59.9474 14.4721 60.269 14.9223Z" fill="currentColor"/>
<path d="M65.2864 10.163L64.8361 10.5489C64.8361 10.5489 64.7718 10.5489 64.5788 10.2916C64.4502 10.0986 64.1929 9.96999 64.1929 9.96999C64.1929 9.96999 64.3859 10.0343 64.7718 10.0986C65.1577 10.163 65.2864 10.163 65.2864 10.163ZM67.0874 9.96999C66.3798 9.7127 65.9939 9.7127 65.9939 9.7127C65.9939 9.7127 65.6723 9.32677 64.6432 9.19813C63.614 9.06949 62.9708 9.45541 62.9708 9.45541C62.9708 9.45541 62.4562 9.32677 62.006 9.32677C61.2984 9.39109 61.1055 9.64838 61.1055 9.64838C61.1055 9.64838 61.4271 10.2916 62.006 10.4846C62.7135 10.6775 63.1638 10.6132 63.1638 10.6132C63.1638 10.6132 62.8422 11.3851 63.3567 12.2856C63.807 12.9931 64.5788 13.1217 65.2864 13.1861C65.608 13.2504 65.6723 13.572 65.9939 13.572C66.1226 13.572 66.2512 13.4434 66.5085 13.1861C66.7658 12.9288 66.9587 12.6072 66.9587 12.6072L66.8944 12.4785C66.8944 12.4785 66.4442 12.7358 65.8653 12.6072C65.1577 12.4785 64.7718 11.7067 64.7718 11.7067C64.7718 11.7067 65.0934 11.5137 65.608 11.4494C66.0582 11.4494 66.4442 11.6423 66.4442 11.6423C66.4442 11.6423 66.4442 11.771 66.4442 11.8996C66.3798 12.0283 66.3155 12.0926 66.3155 12.0926L66.3798 12.2212C66.3798 12.2212 67.0231 11.8353 67.4733 10.9991C67.9879 10.2273 67.5376 10.0986 67.0874 9.96999Z" fill="currentColor"/>
<path d="M62.7139 21.9336C62.7139 21.9336 63.0998 21.9979 63.55 23.0271C63.8717 23.7346 63.8073 24.3778 63.8073 24.3778C63.8073 24.3778 64.7722 24.0562 65.0938 24.9567C65.544 26.0502 63.8073 26.5648 63.8073 26.5648C63.8073 26.5648 64.1289 27.7226 65.8656 28.7517C67.538 29.7165 68.2455 29.6522 68.2455 29.6522C68.2455 29.6522 68.5671 29.202 69.2103 29.3949C69.7892 29.5236 69.2747 30.2311 69.2747 30.2311C69.2747 30.2311 69.7249 30.4241 70.4325 30.1025C70.947 29.9095 70.947 29.7165 70.947 29.7165C70.947 29.7165 71.14 29.7165 71.3973 29.7809C71.5902 29.8452 71.8475 30.0381 71.8475 30.0381C71.8475 30.0381 71.9762 29.202 71.2043 28.6231C70.0465 27.8512 68.8244 28.2371 68.6315 28.2371C67.538 27.9155 66.6375 26.6291 66.6375 26.6291C66.6375 26.6291 67.7953 26.0502 68.3742 24.5708C68.5671 24.0562 69.339 21.5477 66.1872 21.4191C64.3219 21.3547 62.7139 21.9336 62.7139 21.9336Z" fill="currentColor"/>
</svg>
