<svg width="24" height="24" viewBox="0 0 24 24" fill="none" xmlns="http://www.w3.org/2000/svg">
<g clip-path="url(#clip0_3396_59908)">
<g filter="url(#filter0_d_3396_59908)">
<g clip-path="url(#clip1_3396_59908)">
<path d="M0 12C0 5.37258 5.37258 0 12 0C18.6274 0 24 5.37258 24 12C24 18.6274 18.6274 24 12 24C5.37258 24 0 18.6274 0 12Z" fill="#F8F8F8"/>
<path d="M20.7553 6.95312L15.8252 9.6122H17.7994C16.7799 11.7622 16.9915 14.2814 18.3539 16.2367C17.7656 12.7679 19.206 9.4096 20.7553 6.95312Z" fill="#EE3023"/>
<path d="M3.24316 16.0605H3.81486V16.1949H3.40832V16.4624H3.77185V16.5893H3.40832V17.0346H3.24316V16.0605Z" fill="#00458A"/>
<path d="M3.9209 16.0416C3.9209 15.9885 3.96391 15.9434 4.02296 15.9434C4.07972 15.9434 4.12445 15.9885 4.12445 16.0416C4.12445 16.0946 4.07972 16.1403 4.02296 16.1403C3.96391 16.1403 3.9209 16.0946 3.9209 16.0416ZM3.94153 16.2695H4.1021V17.0342H3.94153V16.2695Z" fill="#00458A"/>
<path d="M4.26758 16.2702H4.42642V16.3504C4.474 16.2956 4.53765 16.2578 4.62195 16.2578C4.6443 16.2578 4.66953 16.2629 4.68673 16.2674V16.4096C4.66781 16.4051 4.64087 16.3989 4.60588 16.3989C4.51815 16.3989 4.46941 16.4282 4.42814 16.4626V17.0349H4.26758V16.2702Z" fill="#00458A"/>
<path d="M4.74316 17.005V16.8803C4.7942 16.9023 4.88478 16.9254 4.95761 16.9254C5.05967 16.9254 5.10899 16.8927 5.10899 16.8221C5.10899 16.7584 5.05967 16.7409 4.96392 16.7082C4.84982 16.6754 4.74488 16.6162 4.74488 16.4785C4.74488 16.3267 4.85784 16.2578 5.02299 16.2578C5.10384 16.2578 5.1801 16.2753 5.21852 16.2911V16.4175C5.17723 16.4 5.10556 16.3797 5.0293 16.3797C4.94043 16.3797 4.89742 16.4113 4.89742 16.4678C4.89742 16.5236 4.93697 16.5456 5.03732 16.5767C5.14511 16.6116 5.2661 16.6613 5.2661 16.8126C5.2661 16.9598 5.15142 17.0473 4.9817 17.0473C4.8894 17.0473 4.79879 17.0304 4.74316 17.005Z" fill="#00458A"/>
<path d="M5.40297 16.8277V16.3858H5.29688V16.2696H5.40469L5.43335 16.0664H5.56351V16.2696H5.74128V16.3858H5.56351V16.8045C5.56351 16.8841 5.59219 16.9185 5.66386 16.9185C5.70344 16.9185 5.7384 16.9095 5.76191 16.8999V17.0246C5.73323 17.0342 5.68737 17.0466 5.62716 17.0466C5.47923 17.0466 5.40297 16.9873 5.40297 16.8276" fill="#00458A"/>
<path d="M6.50663 16.0605H6.69699L7.05308 17.0346H6.87188L6.79562 16.8077H6.38737L6.30765 17.0346H6.13965L6.50663 16.0605ZM6.75261 16.6751L6.65744 16.3935C6.63508 16.328 6.60812 16.2485 6.59722 16.2011H6.59391C6.58129 16.2485 6.55433 16.328 6.53198 16.3935L6.43218 16.6751H6.75261Z" fill="#00458A"/>
<path d="M7.1416 16.995V15.9707H7.30216V16.3291C7.33084 16.2974 7.39734 16.2568 7.48967 16.2568C7.71559 16.2568 7.80734 16.4306 7.80734 16.6451C7.80734 16.8652 7.67258 17.0463 7.42143 17.0463C7.31649 17.0463 7.21329 17.0232 7.1416 16.995ZM7.63759 16.6524C7.63759 16.5006 7.59002 16.3866 7.44035 16.3866C7.38644 16.3866 7.33428 16.4053 7.30216 16.4323V16.9041C7.33541 16.9154 7.38188 16.9216 7.42486 16.9216C7.57395 16.9216 7.63759 16.8059 7.63759 16.6524Z" fill="#00458A"/>
<path d="M7.91699 16.7763V16.2695H8.07584V16.7515C8.07584 16.8576 8.10967 16.9202 8.22548 16.9202C8.28741 16.9202 8.34475 16.892 8.38261 16.8671V16.2695H8.54315V17.0342H8.38433V16.9732C8.34651 17.0031 8.27136 17.0466 8.16986 17.0466C7.98064 17.0466 7.91699 16.9309 7.91699 16.7763Z" fill="#00458A"/>
<path d="M9.06641 16.0605H9.38579C9.72581 16.0605 9.85484 16.2953 9.85484 16.5487C9.85484 16.7874 9.73098 17.0346 9.3812 17.0346H9.06641V16.0605ZM9.35769 16.9002C9.61631 16.9002 9.67995 16.736 9.67995 16.5487C9.67995 16.3608 9.61916 16.192 9.36687 16.192H9.23212V16.9002H9.35769Z" fill="#00458A"/>
<path d="M9.99707 15.9707H10.1542V16.3308C10.1943 16.3009 10.2671 16.2568 10.3686 16.2568C10.5579 16.2568 10.6232 16.3731 10.6232 16.5277V17.0339H10.4627V16.5525C10.4627 16.4464 10.4306 16.3838 10.3147 16.3838C10.2511 16.3838 10.1943 16.4114 10.1576 16.4368V17.0339H9.99707V15.9707Z" fill="#00458A"/>
<path d="M11.1668 16.9616C11.1318 17.0056 11.0556 17.0474 10.9633 17.0474C10.8176 17.0474 10.7207 16.9661 10.7207 16.8318C10.7207 16.6738 10.8555 16.5971 11.0699 16.5971C11.0951 16.5971 11.1255 16.5987 11.1462 16.6004V16.5394C11.1462 16.4299 11.1014 16.3848 10.9873 16.3848C10.9059 16.3848 10.8377 16.4079 10.7918 16.4283V16.3002C10.8457 16.2787 10.9254 16.2578 11.016 16.2578C11.1984 16.2578 11.3067 16.3346 11.3067 16.5129V16.8599C11.3067 16.9079 11.3285 16.9237 11.3635 16.9237C11.3715 16.9237 11.383 16.9225 11.3922 16.9209V17.0303C11.3732 17.0382 11.348 17.0472 11.3016 17.0472C11.2333 17.0472 11.1875 17.0145 11.1668 16.9615V16.9616ZM11.1462 16.8768V16.6991C11.1347 16.6991 11.106 16.6974 11.086 16.6974C10.9541 16.6974 10.8824 16.7335 10.8824 16.8193C10.8824 16.8893 10.93 16.9288 11.0091 16.9288C11.0682 16.9288 11.1175 16.9051 11.1462 16.8769" fill="#00458A"/>
<path d="M11.4775 16.995V15.9707H11.6381V16.3291C11.6668 16.2974 11.7333 16.2568 11.8256 16.2568C12.0515 16.2568 12.1433 16.4306 12.1433 16.6451C12.1433 16.8652 12.0085 17.0463 11.7574 17.0463C11.6525 17.0463 11.5492 17.0232 11.4775 16.995ZM11.9736 16.6524C11.9736 16.5006 11.926 16.3866 11.7763 16.3866C11.7224 16.3866 11.6702 16.4053 11.6381 16.4323V16.9041C11.6713 16.9154 11.7172 16.9216 11.7602 16.9216C11.9099 16.9216 11.9736 16.8059 11.9736 16.6524Z" fill="#00458A"/>
<path d="M12.2393 16.0416C12.2393 15.9885 12.2823 15.9434 12.3413 15.9434C12.3981 15.9434 12.4428 15.9885 12.4428 16.0416C12.4428 16.0946 12.3981 16.1403 12.3413 16.1403C12.2823 16.1403 12.2393 16.0946 12.2393 16.0416ZM12.2599 16.2695H12.4205V17.0342H12.2599V16.2695Z" fill="#00458A"/>
<path d="M12.9912 16.0605H13.3312C13.5359 16.0605 13.6437 16.1593 13.6437 16.3077C13.6437 16.4234 13.5675 16.5002 13.4832 16.5216V16.5249C13.5916 16.5469 13.6758 16.6231 13.6758 16.7529C13.6758 16.9233 13.5486 17.0344 13.3404 17.0344H12.9912V16.0605ZM13.3117 16.4691C13.4264 16.4691 13.4786 16.4172 13.4786 16.3247C13.4786 16.2451 13.4276 16.1903 13.3134 16.1903H13.1563V16.4691H13.3117ZM13.3169 16.9048C13.4339 16.9048 13.4964 16.85 13.4964 16.7484C13.4964 16.6441 13.439 16.5859 13.3198 16.5859H13.1563V16.9048H13.3169Z" fill="#00458A"/>
<path d="M14.2147 16.9616C14.1797 17.0056 14.1034 17.0474 14.0117 17.0474C13.8654 17.0474 13.7686 16.9661 13.7686 16.8318C13.7686 16.6738 13.9033 16.5971 14.1178 16.5971C14.1435 16.5971 14.1734 16.5987 14.1946 16.6004V16.5394C14.1946 16.4299 14.1498 16.3848 14.0352 16.3848C13.9543 16.3848 13.8861 16.4079 13.8402 16.4283V16.3002C13.8941 16.2787 13.9733 16.2578 14.0639 16.2578C14.2468 16.2578 14.3546 16.3346 14.3546 16.5129V16.8599C14.3546 16.9079 14.3769 16.9237 14.4119 16.9237C14.4199 16.9237 14.4308 16.9225 14.4406 16.9209V17.0303C14.4211 17.0382 14.3958 17.0472 14.35 17.0472C14.2817 17.0472 14.2353 17.0145 14.2147 16.9615V16.9616ZM14.1946 16.8768V16.6991C14.1831 16.6991 14.1544 16.6974 14.1338 16.6974C14.0019 16.6974 13.9303 16.7335 13.9303 16.8193C13.9303 16.8893 13.9784 16.9288 14.0575 16.9288C14.1166 16.9288 14.1659 16.9051 14.1946 16.8769" fill="#00458A"/>
<path d="M14.5283 16.2702H14.686V16.3318C14.7256 16.3018 14.7984 16.2578 14.9005 16.2578C15.0897 16.2578 15.1545 16.3735 15.1545 16.5287V17.0349H14.9939V16.5535C14.9939 16.4474 14.9624 16.3848 14.846 16.3848C14.7829 16.3848 14.7256 16.4124 14.6889 16.4378V17.0349H14.5283V16.2702Z" fill="#00458A"/>
<path d="M15.6913 16.9334L15.4705 16.6473V17.0333H15.3105V15.9707H15.4705V16.6033L15.7457 16.2687H15.9218L15.6311 16.6129L15.8346 16.8691C15.8598 16.9018 15.8805 16.9165 15.9155 16.9165C15.9188 16.9165 15.9218 16.9165 15.9344 16.9149V17.0334C15.9189 17.0384 15.9012 17.0396 15.8868 17.0396C15.8106 17.0396 15.7555 17.0181 15.6913 16.9335" fill="#00458A"/>
<path d="M3.24316 9.61328H6.64286V10.6031H4.46279V11.8734H6.40261V12.7842H4.46279V15.0708H3.24316V9.61328Z" fill="#00458A"/>
<path d="M9.57781 13.0212L9.11507 11.6194C9.00841 11.2955 8.90178 10.9795 8.83927 10.7261H8.82151C8.7504 10.971 8.64316 11.304 8.53653 11.6194L8.05601 13.0212H9.57781ZM8.1896 9.61328H9.55087L11.5807 15.0708H10.2544L9.89833 13.9845H7.73546L7.36161 15.0708H6.10645L8.1896 9.61328Z" fill="#00458A"/>
<path d="M13.9559 14.1335C14.4989 14.1335 14.793 13.888 14.793 13.4061C14.793 12.9157 14.5172 12.6617 13.965 12.6617H13.2001V14.1335H13.9559ZM13.9295 11.8384C14.4811 11.8384 14.7127 11.5929 14.7127 11.1725C14.7127 10.7961 14.4725 10.5506 13.9387 10.5506H13.2001V11.8384H13.9295ZM11.9805 9.61328H14.0895C15.2913 9.61328 15.941 10.1742 15.941 11.006C15.941 11.6804 15.5229 12.0923 15.0688 12.2148V12.2323C15.6652 12.3638 16.1101 12.7757 16.1101 13.4851C16.1101 14.4839 15.3446 15.0708 14.1428 15.0708H11.9805V9.61328Z" fill="#00458A"/>
<path d="M3.8923 7.34766H3.7782C3.76559 7.34766 3.75868 7.35389 3.75868 7.3663V8.33241C3.75868 8.38207 3.74092 8.42383 3.70535 8.45881C3.67036 8.49378 3.62738 8.51129 3.57748 8.51129C3.52761 8.51129 3.48518 8.4938 3.44961 8.45881C3.41351 8.42385 3.3957 8.38207 3.3957 8.33241V7.97632C3.3957 7.96333 3.3894 7.95712 3.37736 7.95712H3.26269C3.24949 7.95712 3.24316 7.96333 3.24316 7.97632V8.33241C3.24316 8.42327 3.27583 8.50057 3.34122 8.56491C3.40602 8.62923 3.48513 8.66141 3.57746 8.66141C3.6692 8.66141 3.74834 8.62921 3.81428 8.56491C3.87906 8.50057 3.91175 8.42327 3.91175 8.33241V7.3663C3.91175 7.35389 3.90542 7.34766 3.89223 7.34766" fill="#00458A"/>
<path d="M4.3917 7.66409C4.30167 7.66409 4.22483 7.69569 4.16119 7.75831C4.09696 7.82096 4.06543 7.89657 4.06543 7.98519V8.09126C4.06543 8.17988 4.09696 8.25549 4.16119 8.31814C4.22483 8.38076 4.30167 8.41181 4.3917 8.41181H4.56543C4.56335 8.45185 4.54707 8.48517 4.51728 8.51338C4.48744 8.54102 4.45247 8.55514 4.41234 8.55514H4.24032C4.22771 8.55514 4.22138 8.56189 4.22138 8.57487V8.68663C4.22138 8.69961 4.22771 8.70636 4.24032 8.70636H4.41234C4.49548 8.70636 4.56715 8.67647 4.62678 8.61663C4.68758 8.55739 4.71795 8.48684 4.71795 8.40501V7.98516C4.71795 7.89655 4.68642 7.82094 4.62277 7.75829C4.55913 7.69566 4.48229 7.66406 4.3917 7.66406V7.66409ZM4.56543 8.26223H4.3917C4.3441 8.26223 4.30281 8.24533 4.26898 8.21143C4.23457 8.17816 4.21795 8.13807 4.21795 8.09124V7.98516C4.21795 7.93775 4.23459 7.89768 4.26898 7.86439C4.30281 7.83109 4.3441 7.81417 4.3917 7.81417C4.43986 7.81417 4.47999 7.83107 4.5144 7.86439C4.54823 7.89768 4.56543 7.93775 4.56543 7.98516V8.26223Z" fill="#00458A"/>
<path d="M5.58768 7.34768H5.47358C5.46097 7.34768 5.45464 7.35389 5.45464 7.3663V8.1507C5.45464 8.19076 5.4455 8.21956 5.42767 8.23704C5.40991 8.25397 5.38068 8.26243 5.33996 8.26301H4.88983C4.87782 8.26301 4.87207 8.26925 4.87207 8.28219V8.39447C4.87207 8.40688 4.8784 8.41254 4.89099 8.41254H5.33998C5.42313 8.41254 5.48849 8.3894 5.53607 8.34256C5.58367 8.29631 5.60776 8.23196 5.60776 8.14956V7.3663C5.60776 7.35389 5.60089 7.34766 5.5877 7.34766" fill="#00458A"/>
<path d="M5.10976 7.46094C5.09715 7.46094 5.09082 7.46717 5.09082 7.47958V8.17425C5.09082 8.18665 5.09715 8.19289 5.10976 8.19289H5.22444C5.23763 8.19289 5.24392 8.18665 5.24392 8.17425V7.47958C5.24392 7.46717 5.23759 7.46094 5.22444 7.46094H5.10976Z" fill="#00458A"/>
<path d="M5.02749 7.37448H5.30732C5.31822 7.37448 5.32278 7.3694 5.32278 7.35925V7.3141C5.32278 7.30453 5.31822 7.29945 5.30732 7.29945H5.14676V7.21535C5.14676 7.20181 5.15132 7.19055 5.16111 7.18148C5.17031 7.17244 5.18232 7.16794 5.19552 7.16794C5.21733 7.16794 5.23164 7.17752 5.23969 7.19674L5.24887 7.21705C5.25054 7.22113 5.25346 7.22384 5.25633 7.22551C5.2584 7.22674 5.2609 7.22716 5.2632 7.22716C5.26526 7.22716 5.26735 7.22674 5.2695 7.22551L5.3108 7.20745C5.31768 7.2046 5.32111 7.20012 5.32111 7.19504C5.32111 7.19259 5.3207 7.19055 5.31944 7.1883L5.31029 7.16799C5.28907 7.11719 5.25065 7.0918 5.19561 7.0918C5.1612 7.0918 5.13138 7.1042 5.10674 7.1285C5.08265 7.1522 5.07061 7.18097 5.07061 7.2154V7.29947H5.0276C5.01729 7.29947 5.0127 7.30455 5.0127 7.31413V7.35929C5.0127 7.36945 5.01729 7.37453 5.0276 7.37453" fill="#00458A"/>
<path d="M5.89436 7.34766H5.78026C5.76707 7.34766 5.76074 7.35387 5.76074 7.36685V8.3945C5.76074 8.4069 5.76707 8.41256 5.78026 8.41256H5.89436C5.90698 8.41256 5.9133 8.4069 5.9133 8.3945V7.36685C5.9133 7.35387 5.90698 7.34766 5.89436 7.34766Z" fill="#00458A"/>
<path d="M7.05415 8.73242H6.94921C6.93602 8.73242 6.92969 8.73866 6.92969 8.75106V8.86052C6.92969 8.87351 6.93602 8.87974 6.94921 8.87974H7.05415C7.06674 8.87974 7.07307 8.87351 7.07307 8.86052V8.75106C7.07307 8.73866 7.06674 8.73242 7.05415 8.73242Z" fill="#00458A"/>
<path d="M6.8235 8.73242H6.71914C6.70652 8.73242 6.7002 8.73866 6.7002 8.75106V8.86052C6.7002 8.87351 6.70652 8.87974 6.71914 8.87974H6.8235C6.83667 8.87974 6.843 8.87351 6.843 8.86052V8.75106C6.843 8.73866 6.83667 8.73242 6.8235 8.73242Z" fill="#00458A"/>
<path d="M9.0092 8.54492H8.90369C8.8911 8.54492 8.88477 8.55114 8.88477 8.56354V8.67302C8.88477 8.68601 8.8911 8.69222 8.90369 8.69222H9.0092C9.02182 8.69222 9.02815 8.68601 9.02815 8.67302V8.56354C9.02815 8.55114 9.02182 8.54492 9.0092 8.54492Z" fill="#00458A"/>
<path d="M9.85774 7.66426C9.75626 7.66426 9.6324 7.71956 9.4879 7.82962V7.36688C9.4879 7.35389 9.48104 7.34766 9.46838 7.34766H9.35312C9.34053 7.34766 9.3342 7.35389 9.3342 7.36688V8.26301H9.10427C9.07044 8.26301 9.04807 8.25793 9.03717 8.24833C9.03427 8.24326 9.0326 8.23704 9.0326 8.22914V7.71165C9.0326 7.69925 9.02569 7.69303 9.01308 7.69303H8.8984C8.88581 7.69303 8.88006 7.69925 8.88006 7.71165V8.21052C8.88006 8.23025 8.87589 8.24381 8.86803 8.25172C8.86001 8.25905 8.84681 8.26301 8.82905 8.26301H7.65413V7.92274C7.65413 7.85162 7.62835 7.79069 7.57732 7.73989C7.52629 7.68967 7.46436 7.66428 7.39153 7.66428C7.31928 7.66428 7.25793 7.68967 7.2069 7.73989C7.15587 7.79069 7.13006 7.85162 7.13006 7.92274V8.44191H6.70687C6.65756 8.44191 6.61457 8.42443 6.57787 8.38942C6.54232 8.35446 6.52512 8.31212 6.52512 8.26301C6.52512 8.22805 6.53428 8.19531 6.55262 8.16595C6.57156 8.13549 6.59621 8.11291 6.62774 8.09712L6.67877 8.07115C6.6868 8.06788 6.69081 8.06266 6.69081 8.057C6.69081 8.05374 6.68955 8.05026 6.68747 8.04685L6.63528 7.94585C6.6328 7.94135 6.62955 7.93794 6.62438 7.93625C6.62232 7.93586 6.62023 7.93502 6.61807 7.93502C6.61515 7.93502 6.61232 7.93544 6.60945 7.9379L6.55841 7.96329C6.50221 7.9915 6.45693 8.03271 6.4231 8.08687C6.38927 8.14161 6.37207 8.20032 6.37207 8.26294C6.37207 8.35381 6.4053 8.43166 6.47012 8.496C6.53548 8.55977 6.6129 8.59195 6.70233 8.59195H7.20637C7.22758 8.59195 7.24534 8.58462 7.26025 8.56992C7.27516 8.55469 7.28265 8.53718 7.28265 8.51687V7.92269C7.28265 7.89278 7.29355 7.86739 7.31476 7.84594C7.33658 7.82505 7.36178 7.81432 7.3916 7.81432C7.42197 7.81432 7.4478 7.82505 7.4696 7.84594C7.49081 7.86739 7.50171 7.89278 7.50171 7.92269V8.33802C7.50171 8.35891 7.50915 8.37639 7.52406 8.39107C7.53895 8.40519 7.55675 8.41254 7.57797 8.41254H8.82854C8.88588 8.41254 8.93232 8.39672 8.96903 8.36399C9.0086 8.3967 9.06307 8.41254 9.13244 8.41254H9.90768C9.99141 8.41254 10.0568 8.3894 10.1038 8.34254C10.1514 8.29628 10.1749 8.23194 10.1749 8.14898V8.01355C10.1749 7.90915 10.1456 7.82508 10.0872 7.76074C10.0292 7.69639 9.95241 7.66424 9.85781 7.66424L9.85774 7.66426ZM10.0224 8.14898C10.0224 8.19018 10.0132 8.21896 9.99539 8.23588C9.97821 8.25337 9.94895 8.26243 9.90768 8.26301H9.48795V8.0209C9.53439 7.96899 9.5969 7.92102 9.67487 7.8787C9.75285 7.83637 9.81422 7.81492 9.85779 7.81492C9.92201 7.81492 9.96787 7.84089 9.99539 7.89225C10.0132 7.92554 10.0224 7.96561 10.0224 8.01358V8.14898Z" fill="#00458A"/>
<path d="M9.74941 7.53595H9.85435C9.86752 7.53595 9.87385 7.52971 9.87385 7.51789V7.4084C9.87385 7.39542 9.86752 7.38867 9.85435 7.38867H9.74941C9.7368 7.38867 9.73047 7.39542 9.73047 7.4084V7.51789C9.73047 7.52971 9.7368 7.53595 9.74941 7.53595Z" fill="#00458A"/>
<path d="M12.0346 7.69226H11.9199C11.9073 7.69226 11.9009 7.69847 11.9009 7.71087V8.20974C11.9009 8.22947 11.8968 8.24304 11.8889 8.25094C11.8815 8.25827 11.8671 8.26223 11.8471 8.26223H10.9806V7.98516C10.9806 7.89655 10.9491 7.82094 10.8849 7.75829C10.8212 7.69566 10.7444 7.66406 10.6544 7.66406C10.5638 7.66406 10.4875 7.69566 10.4239 7.75829C10.3602 7.82094 10.3281 7.89655 10.3281 7.98516V8.09126C10.3281 8.17985 10.3602 8.25546 10.4239 8.31811C10.4875 8.38074 10.5638 8.41178 10.6544 8.41178H10.8275C10.825 8.45131 10.8092 8.48514 10.7799 8.51336C10.7496 8.54158 10.7146 8.55512 10.675 8.55512H10.5024C10.4898 8.55512 10.4835 8.56187 10.4835 8.57485V8.6866C10.4835 8.69957 10.4898 8.70634 10.5024 8.70634H10.675C10.7564 8.70634 10.827 8.67698 10.8872 8.61944C10.9474 8.56131 10.9783 8.49245 10.9806 8.41176H11.8471C11.9096 8.41176 11.9594 8.39428 11.9973 8.35757C12.0346 8.31978 12.0535 8.27067 12.0535 8.20974V7.71087C12.0535 7.69847 12.0472 7.69223 12.0346 7.69223V7.69226ZM10.8275 8.26221H10.6544C10.6068 8.26221 10.5655 8.24529 10.5317 8.21141C10.4978 8.17812 10.4806 8.13805 10.4806 8.09122V7.98512C10.4806 7.9377 10.4978 7.89766 10.5317 7.86436C10.5655 7.83107 10.6068 7.81412 10.6544 7.81412C10.702 7.81412 10.7432 7.83105 10.7765 7.86436C10.8103 7.89766 10.8275 7.9377 10.8275 7.98512V8.26221Z" fill="#00458A"/>
<path d="M11.934 8.54492H11.8291C11.8165 8.54492 11.8096 8.55114 11.8096 8.56354V8.67302C11.8096 8.68601 11.8165 8.69222 11.8291 8.69222H11.934C11.9466 8.69222 11.953 8.68601 11.953 8.67302V8.56354C11.953 8.55114 11.9466 8.54492 11.934 8.54492Z" fill="#00458A"/>
<path d="M12.4221 7.18213H12.2627V7.09859C12.2627 7.08563 12.2673 7.07431 12.2765 7.06532C12.2857 7.05572 12.2971 7.05117 12.3109 7.05117C12.3315 7.05117 12.3464 7.06075 12.3539 7.07997L12.3636 7.10084C12.3661 7.10708 12.3705 7.11044 12.3756 7.11044C12.3786 7.11044 12.3802 7.11002 12.3831 7.10921L12.4255 7.09173C12.4289 7.0905 12.4319 7.08723 12.433 7.08266C12.4342 7.08104 12.4347 7.07939 12.4347 7.07758C12.4347 7.07513 12.4342 7.0735 12.433 7.07195L12.425 7.05106C12.4031 7.00139 12.3653 6.97656 12.3108 6.97656C12.2764 6.97656 12.2466 6.98897 12.2226 7.01269C12.1984 7.03638 12.1864 7.06518 12.1864 7.09847V7.18199H12.1434C12.1331 7.18199 12.1279 7.18707 12.1279 7.19722V7.24178C12.1279 7.25194 12.1331 7.25702 12.1434 7.25702H12.4221C12.4318 7.25702 12.437 7.25194 12.437 7.24178V7.19722C12.437 7.18707 12.4318 7.18199 12.4221 7.18199" fill="#00458A"/>
<path d="M12.3391 7.34766H12.2256C12.2124 7.34766 12.2061 7.35389 12.2061 7.3663V8.39447C12.2061 8.4069 12.2124 8.41254 12.2256 8.41254H12.3391C12.3517 8.41254 12.358 8.4069 12.358 8.39447V7.3663C12.358 7.35389 12.3517 7.34766 12.3391 7.34766Z" fill="#00458A"/>
<path d="M13.2381 7.89203H13.518C13.5277 7.89203 13.5323 7.88696 13.5323 7.8768V7.83108C13.5323 7.8215 13.5278 7.81642 13.518 7.81642H13.3574V7.73291C13.3574 7.71935 13.362 7.7081 13.3718 7.69848C13.3809 7.68946 13.3924 7.68496 13.4056 7.68496C13.4279 7.68496 13.4423 7.69454 13.4498 7.71373L13.4589 7.7352C13.4618 7.74086 13.4664 7.74425 13.4721 7.74425C13.475 7.74425 13.4773 7.74385 13.4801 7.74262L13.522 7.72565C13.5249 7.72403 13.5272 7.72115 13.5295 7.71719C13.5299 7.71554 13.5307 7.71392 13.5307 7.71153C13.5307 7.70907 13.5303 7.70743 13.5295 7.70532L13.5208 7.68501C13.499 7.63476 13.4606 7.60938 13.4056 7.60938C13.3712 7.60938 13.3419 7.62178 13.3178 7.6455C13.2932 7.66977 13.2811 7.6991 13.2811 7.73296V7.81649H13.2381C13.2278 7.81649 13.2227 7.82157 13.2227 7.83115V7.87685C13.2227 7.887 13.2278 7.89208 13.2381 7.89208" fill="#00458A"/>
<path d="M15.2455 7.53537H15.351C15.3636 7.53537 15.3699 7.52915 15.3699 7.51733V7.40785C15.3699 7.39486 15.3636 7.38867 15.351 7.38867H15.2455C15.2329 7.38867 15.2266 7.39491 15.2266 7.40785V7.51733C15.2266 7.52915 15.2329 7.53537 15.2455 7.53537Z" fill="#00458A"/>
<path d="M15.9163 7.69299H15.8016C15.789 7.69299 15.7827 7.6992 15.7827 7.7116V8.21047C15.7827 8.2302 15.7793 8.24377 15.7712 8.25167C15.7632 8.259 15.7494 8.26296 15.7293 8.26296H15.4426C15.4099 8.26296 15.3893 8.25789 15.3795 8.24773C15.3754 8.24363 15.3732 8.23758 15.3732 8.228V7.71107C15.3732 7.69809 15.3669 7.69187 15.3543 7.69187H15.2402C15.2276 7.69187 15.2213 7.69809 15.2213 7.71107V8.2088C15.2213 8.22969 15.2171 8.24326 15.2098 8.25056C15.2017 8.25791 15.1885 8.26241 15.1708 8.26296H13.911C13.8778 8.26296 13.8565 8.25791 13.8474 8.24775C13.844 8.24488 13.8422 8.23816 13.8422 8.228V7.3663C13.8422 7.35389 13.8359 7.34766 13.8233 7.34766H13.708C13.6954 7.34766 13.6885 7.35389 13.6885 7.3663V8.20883C13.6885 8.23027 13.6852 8.24437 13.6776 8.25114C13.6696 8.25847 13.6564 8.26296 13.6375 8.26296H13.1541C13.1042 8.26257 13.0617 8.24493 13.0262 8.21049C12.9907 8.17495 12.9729 8.13261 12.9729 8.08353C12.9729 8.04907 12.9821 8.01694 13.001 7.98645C13.0193 7.95656 13.0445 7.93398 13.0761 7.91875L13.1266 7.8922C13.134 7.88893 13.138 7.88374 13.138 7.87808C13.138 7.87481 13.1368 7.87133 13.1351 7.86734L13.0835 7.7669C13.0806 7.76183 13.0772 7.75842 13.0721 7.75733C13.0704 7.7561 13.0687 7.7561 13.0657 7.7561C13.0633 7.7561 13.0606 7.75649 13.0577 7.75814L13.0055 7.78353C12.9493 7.81232 12.9046 7.8535 12.8708 7.90769C12.8369 7.96185 12.8203 8.02053 12.8203 8.08318C12.8203 8.1746 12.853 8.25248 12.9184 8.3168C12.9837 8.38056 13.0623 8.41219 13.154 8.41219H13.6357C13.6936 8.41219 13.7412 8.3958 13.7785 8.36308C13.818 8.3958 13.8725 8.41219 13.9425 8.41219H15.1678C15.2258 8.41219 15.2733 8.3958 15.3106 8.36308C15.3502 8.3958 15.4047 8.41219 15.474 8.41219H15.7292C15.7917 8.41219 15.8416 8.39468 15.8794 8.358C15.9167 8.32021 15.935 8.2711 15.935 8.21015V7.7113C15.935 7.6989 15.9287 7.69266 15.9161 7.69266" fill="#00458A"/>
<path d="M15.8168 8.54492H15.7119C15.6987 8.54492 15.6924 8.55114 15.6924 8.56354V8.67302C15.6924 8.68601 15.6987 8.69222 15.7119 8.69222H15.8168C15.8294 8.69222 15.8358 8.68601 15.8358 8.67302V8.56354C15.8358 8.55114 15.8294 8.54492 15.8168 8.54492Z" fill="#00458A"/>
</g>
</g>
</g>
<defs>
<filter id="filter0_d_3396_59908" x="-6" y="-5" width="36" height="36" filterUnits="userSpaceOnUse" color-interpolation-filters="sRGB">
<feFlood flood-opacity="0" result="BackgroundImageFix"/>
<feColorMatrix in="SourceAlpha" type="matrix" values="0 0 0 0 0 0 0 0 0 0 0 0 0 0 0 0 0 0 127 0" result="hardAlpha"/>
<feOffset dy="1"/>
<feGaussianBlur stdDeviation="3"/>
<feComposite in2="hardAlpha" operator="out"/>
<feColorMatrix type="matrix" values="0 0 0 0 0 0 0 0 0 0 0 0 0 0 0 0 0 0 0.08 0"/>
<feBlend mode="normal" in2="BackgroundImageFix" result="effect1_dropShadow_3396_59908"/>
<feBlend mode="normal" in="SourceGraphic" in2="effect1_dropShadow_3396_59908" result="shape"/>
</filter>
<clipPath id="clip0_3396_59908">
<rect width="24" height="24" fill="white"/>
</clipPath>
<clipPath id="clip1_3396_59908">
<path d="M0 12C0 5.37258 5.37258 0 12 0C18.6274 0 24 5.37258 24 12C24 18.6274 18.6274 24 12 24C5.37258 24 0 18.6274 0 12Z" fill="white"/>
</clipPath>
</defs>
</svg>
