<svg width="24" height="24" viewBox="0 0 24 24" fill="none" xmlns="http://www.w3.org/2000/svg">
<g clip-path="url(#clip0_3396_52117)">
<g filter="url(#filter0_d_3396_52117)">
<path d="M23.2501 11.625C23.2501 5.20469 18.0454 0 11.625 0C5.2047 0 0 5.20469 0 11.625C0 18.0453 5.2047 23.25 11.625 23.25C18.0454 23.25 23.2501 18.0453 23.2501 11.625Z" fill="#F8D409"/>
<path fill-rule="evenodd" clip-rule="evenodd" d="M15.9423 8.51962C17.0186 7.88621 18.2665 7.57945 19.5053 7.52137C19.908 7.48507 20.3144 7.49598 20.7134 7.54679C20.9735 7.60852 21.2426 7.68108 21.4485 7.86078C21.3438 7.86802 21.2426 7.82084 21.1379 7.80633C20.8399 7.74644 20.5311 7.76823 20.2313 7.76096C19.3572 7.76096 18.4759 7.83176 17.6326 8.07131C17.1902 8.20563 16.7477 8.36351 16.345 8.59586C15.6479 8.98244 15.0212 9.49244 14.5137 10.1041C13.6071 11.1495 13.0744 12.4762 12.818 13.8284C12.6934 14.5525 12.5525 15.2749 12.4405 16.0026C12.2599 16.0208 12.074 16.0099 11.8933 16.0099C11.0951 16.0063 10.2987 16.0027 9.50049 15.9954C9.33077 16.0026 9.1628 15.9627 8.99304 15.9736C7.54291 15.9809 6.09274 15.97 4.64258 15.97L4.67127 15.9591C5.74756 15.8466 6.82756 15.7195 7.90565 15.6124C9.27092 15.6052 10.6344 15.6088 12.0015 15.6124C12.045 15.6052 12.1206 15.627 12.1279 15.5653C12.2398 14.9754 12.35 14.3856 12.4619 13.7957C12.6172 12.9753 12.8647 12.1659 13.2457 11.4199C13.8435 10.2166 14.7901 9.19661 15.9423 8.51962Z" fill="#0664AE"/>
<path d="M15.9423 8.51962C17.0186 7.88621 18.2665 7.57945 19.5053 7.52137C19.908 7.48507 20.3144 7.49598 20.7134 7.54679C20.9735 7.60852 21.2426 7.68108 21.4485 7.86078C21.3438 7.86802 21.2426 7.82084 21.1379 7.80633C20.8399 7.74644 20.5311 7.76823 20.2313 7.76096C19.3572 7.76096 18.4759 7.83176 17.6326 8.07131C17.1902 8.20563 16.7477 8.36351 16.345 8.59586C15.6479 8.98244 15.0212 9.49244 14.5137 10.1041C13.6071 11.1495 13.0744 12.4762 12.818 13.8284C12.6934 14.5525 12.5525 15.2749 12.4405 16.0026C12.2599 16.0208 12.074 16.0099 11.8933 16.0099C11.0951 16.0063 10.2987 16.0027 9.50049 15.9954C9.33077 16.0026 9.1628 15.9627 8.99304 15.9736C7.54291 15.9809 6.09274 15.97 4.64258 15.97L4.67127 15.9591C5.74756 15.8466 6.82756 15.7195 7.90565 15.6124C9.27092 15.6052 10.6344 15.6088 12.0015 15.6124C12.045 15.6052 12.1206 15.627 12.1279 15.5653C12.2398 14.9754 12.35 14.3856 12.462 13.7957C12.6172 12.9753 12.8647 12.1659 13.2457 11.4199C13.8435 10.2166 14.7901 9.19661 15.9423 8.51962Z" stroke="#0664AE" stroke-width="1.75" stroke-miterlimit="22.926"/>
<path fill-rule="evenodd" clip-rule="evenodd" d="M17.6308 8.07179C18.476 7.8322 19.3555 7.76147 20.2295 7.76147C20.5311 7.76867 20.8382 7.74696 21.1361 7.80505C21.2409 7.81956 21.342 7.86854 21.4486 7.86126C21.6183 7.99919 21.7195 8.20247 21.7953 8.4076C21.9632 8.89217 22.0571 9.39486 22.1367 9.90126C22.1402 10.1045 22.1765 10.3351 22.068 10.5202C21.9669 10.7017 21.7628 10.7906 21.5714 10.8451C20.8724 11.0266 20.1392 10.856 19.4404 11.0266C18.8624 11.15 18.3261 11.4712 17.9613 11.934C17.5298 12.4731 17.3004 13.1428 17.174 13.8143C17.0764 14.4115 16.9536 15.0085 16.8543 15.6093C16.8108 15.7454 16.7857 15.8906 16.7604 16.0322C17.4467 16.0431 18.1311 16.0322 18.8155 16.0394C19.0774 16.0322 19.3375 16.0467 19.5993 16.0285C19.7438 16.3643 19.7113 16.7437 19.6643 17.0957C19.6066 17.4932 19.5127 17.887 19.3339 18.2518C19.1857 18.5603 18.9401 18.8454 18.6024 18.9542C18.4291 19.0232 18.2395 19.0087 18.0552 19.0087C17.4467 19.0087 16.8362 19.0159 16.2276 19.0087C16.1301 19.4569 16.0651 19.9162 15.9785 20.3717C15.8177 21.2574 15.6624 22.1467 15.5035 23.0342C15.4992 23.0758 15.4968 23.1176 15.4963 23.1595C13.9107 23.1595 12.3305 23.1667 10.7468 23.1631C10.7503 23.1486 10.7539 23.1214 10.7575 23.1068C10.7611 23.0887 10.7647 23.0487 10.7683 23.027C10.7718 23.056 10.7754 23.1123 10.779 23.1377C10.8765 23.1486 11.0553 23.1994 11.0805 23.056C11.3262 21.7166 11.5555 20.3681 11.8083 19.0268C11.7109 19.0051 11.6097 19.0051 11.5086 19.0232C11.4938 19.075 11.4775 19.1265 11.46 19.1775C11.4671 19.1212 11.4743 19.0667 11.4815 19.0123C10.4954 19.0087 9.50579 19.0123 8.51972 19.0087C8.28134 19.0014 8.03571 19.0087 7.79556 18.9797C7.38564 18.9615 6.97206 18.9761 6.56391 18.9361C6.05465 18.9361 5.55084 18.8889 5.04331 18.8889C4.64607 18.849 4.24329 18.8635 3.84057 18.8453C3.57871 18.8126 3.31145 18.8272 3.04598 18.8163C2.61436 18.7691 2.17729 18.8018 1.7457 18.7546C1.28884 18.7582 0.831935 18.7165 0.375 18.7074C0.379016 18.7001 0.381457 18.6921 0.382166 18.6838C0.533847 18.6892 0.683735 18.6766 0.835468 18.6729C1.17319 18.6293 1.51272 18.6584 1.8504 18.6112C2.20261 18.6112 2.54929 18.564 2.90146 18.564C3.21387 18.5204 3.52808 18.5459 3.84053 18.5023C4.2071 18.5023 4.56474 18.4551 4.9313 18.4514C5.23288 18.4115 5.53629 18.4333 5.8379 18.3934C6.19007 18.397 6.53856 18.3425 6.88892 18.3462C7.23384 18.3062 7.58605 18.3172 7.92913 18.2809C7.89688 18.1448 7.87135 18.0104 7.84247 17.8762C7.81738 17.7927 7.71606 17.8108 7.651 17.7999C6.86368 17.6855 6.08169 17.573 5.2979 17.4641C5.34856 17.4242 5.41708 17.4424 5.47486 17.4351C6.08525 17.3879 6.69024 17.3335 7.29887 17.2899C7.43612 17.2827 7.57157 17.2573 7.70882 17.2536C7.64743 17.0631 7.61128 16.8561 7.52642 16.6801C6.22614 16.4805 4.9241 16.3026 3.62738 16.0866C3.96331 16.0321 4.30467 16.0067 4.64232 15.9704C6.09249 15.9704 7.5427 15.9814 8.99106 15.974C9.16255 15.9631 9.32871 16.0031 9.50024 15.9958C10.2967 16.0031 11.0949 16.0067 11.8913 16.0103C12.0737 16.0103 12.2579 16.0212 12.4403 16.0031C12.5523 15.2753 12.6932 14.5529 12.816 13.8288C13.0743 12.4766 13.6069 11.1499 14.5135 10.1045C15.021 9.49289 15.6476 8.98289 16.3429 8.5963C16.7456 8.36395 17.1884 8.20607 17.6308 8.07179Z" fill="#1F74BA"/>
<path d="M17.6308 8.07179C18.476 7.8322 19.3555 7.76147 20.2295 7.76147C20.5311 7.76867 20.8382 7.74696 21.1361 7.80505C21.2409 7.81956 21.342 7.86854 21.4486 7.86126C21.6183 7.99919 21.7195 8.20247 21.7953 8.4076C21.9632 8.89217 22.0571 9.39486 22.1366 9.90126C22.1402 10.1045 22.1766 10.3351 22.068 10.5202C21.9669 10.7017 21.7628 10.7906 21.5714 10.8451C20.8724 11.0266 20.1392 10.856 19.4404 11.0266C18.8624 11.15 18.3261 11.4712 17.9613 11.934C17.5298 12.4731 17.3004 13.1428 17.174 13.8143C17.0764 14.4115 16.9536 15.0085 16.8543 15.6093C16.8108 15.7454 16.7857 15.8906 16.7604 16.0322C17.4467 16.0431 18.1311 16.0322 18.8155 16.0394C19.0774 16.0322 19.3375 16.0467 19.5993 16.0285C19.7438 16.3643 19.7113 16.7437 19.6643 17.0957C19.6066 17.4932 19.5127 17.887 19.3339 18.2518C19.1857 18.5603 18.9401 18.8454 18.6024 18.9542C18.4291 19.0232 18.2395 19.0087 18.0552 19.0087C17.4467 19.0087 16.8362 19.0159 16.2276 19.0087C16.1301 19.4569 16.0651 19.9162 15.9785 20.3717C15.8177 21.2574 15.6624 22.1467 15.5035 23.0342C15.4992 23.0758 15.4968 23.1176 15.4963 23.1595C13.9107 23.1595 12.3305 23.1667 10.7468 23.1631C10.7503 23.1486 10.7539 23.1214 10.7575 23.1068C10.7611 23.0887 10.7647 23.0487 10.7683 23.027C10.7718 23.056 10.7754 23.1123 10.779 23.1377C10.8765 23.1486 11.0553 23.1994 11.0805 23.056C11.3262 21.7166 11.5555 20.3681 11.8083 19.0268C11.7109 19.0051 11.6097 19.0051 11.5086 19.0232C11.4938 19.075 11.4775 19.1265 11.46 19.1775C11.4671 19.1212 11.4743 19.0667 11.4815 19.0123C10.4954 19.0087 9.50579 19.0123 8.51972 19.0087C8.28134 19.0014 8.03571 19.0087 7.79556 18.9797C7.38564 18.9615 6.97206 18.9761 6.56391 18.9361C6.05465 18.9361 5.55084 18.8889 5.04331 18.8889C4.64607 18.849 4.24329 18.8635 3.84057 18.8453C3.57871 18.8126 3.31145 18.8272 3.04598 18.8163C2.61436 18.7691 2.17729 18.8018 1.7457 18.7546C1.28884 18.7582 0.831935 18.7165 0.375 18.7074C0.379016 18.7001 0.381457 18.6921 0.382166 18.6838C0.533847 18.6892 0.683735 18.6766 0.835468 18.6729C1.17319 18.6293 1.51272 18.6584 1.8504 18.6112C2.20261 18.6112 2.54929 18.564 2.90146 18.564C3.21387 18.5204 3.52808 18.5459 3.84053 18.5023C4.2071 18.5023 4.56474 18.4551 4.9313 18.4514C5.23288 18.4115 5.53629 18.4333 5.8379 18.3934C6.19007 18.397 6.53855 18.3425 6.88892 18.3462C7.23384 18.3062 7.58605 18.3172 7.92913 18.2809C7.89688 18.1448 7.87135 18.0104 7.84247 17.8762C7.81738 17.7927 7.71606 17.8108 7.651 17.7999C6.86368 17.6855 6.08169 17.573 5.2979 17.4641C5.34856 17.4242 5.41708 17.4424 5.47486 17.4351C6.08525 17.3879 6.69024 17.3335 7.29887 17.2899C7.43612 17.2827 7.57157 17.2573 7.70882 17.2536C7.64743 17.0631 7.61128 16.8561 7.52642 16.6801C6.22614 16.4805 4.9241 16.3026 3.62738 16.0866C3.96331 16.0321 4.30467 16.0067 4.64232 15.9704C6.09249 15.9704 7.5427 15.9814 8.99106 15.974C9.16255 15.9631 9.32871 16.0031 9.50024 15.9958C10.2967 16.0031 11.0949 16.0067 11.8913 16.0103C12.0737 16.0103 12.2579 16.0212 12.4403 16.0031C12.5523 15.2753 12.6932 14.5529 12.816 13.8288C13.0743 12.4766 13.607 11.1499 14.5135 10.1045C15.021 9.49289 15.6476 8.98289 16.3429 8.5963C16.7456 8.36395 17.1884 8.20607 17.6308 8.07179Z" stroke="#1F74BA" stroke-width="1.75" stroke-miterlimit="22.926"/>
<path fill-rule="evenodd" clip-rule="evenodd" d="M16.8556 15.6094C17.5436 15.613 18.2371 15.6058 18.9288 15.613C19.2051 15.613 19.4868 15.7654 19.6006 16.0287C19.3388 16.0468 19.0769 16.0323 18.8168 16.0395C18.1324 16.0323 17.4461 16.0431 16.7617 16.0323C16.7868 15.8907 16.8124 15.7437 16.8556 15.6094Z" fill="#0664AE"/>
<path d="M16.8556 15.6094C17.5436 15.613 18.2371 15.6058 18.9288 15.613C19.2051 15.613 19.4868 15.7654 19.6006 16.0287C19.3388 16.0468 19.0769 16.0323 18.8168 16.0395C18.1324 16.0323 17.4461 16.0431 16.7617 16.0323C16.7868 15.8907 16.8124 15.7437 16.8556 15.6094Z" stroke="#0664AE" stroke-width="1.75" stroke-miterlimit="22.926"/>
<path fill-rule="evenodd" clip-rule="evenodd" d="M11.5081 19.0232C11.6092 19.005 11.7103 19.005 11.8096 19.0268C11.555 20.3681 11.3275 21.7148 11.08 23.056C11.0549 23.1994 10.8778 23.1468 10.7803 23.1359C10.7767 23.1105 10.7731 23.056 10.7695 23.027C10.997 21.7457 11.2174 20.4588 11.4612 19.1757C11.4791 19.1248 11.4932 19.074 11.5081 19.0232Z" fill="#0664AE"/>
<path d="M11.5081 19.0232C11.6092 19.005 11.7103 19.005 11.8096 19.0268C11.555 20.3681 11.3275 21.7148 11.08 23.056C11.0549 23.1994 10.8778 23.1468 10.7803 23.1359C10.7767 23.1105 10.7731 23.056 10.7695 23.027C10.997 21.7457 11.2174 20.4588 11.4612 19.1757C11.4791 19.1248 11.4932 19.074 11.5081 19.0232Z" stroke="#0664AE" stroke-width="1.75" stroke-miterlimit="22.926"/>
</g>
</g>
<defs>
<filter id="filter0_d_3396_52117" x="-9.13009" y="-6.17501" width="40.1049" height="42.2094" filterUnits="userSpaceOnUse" color-interpolation-filters="sRGB">
<feFlood flood-opacity="0" result="BackgroundImageFix"/>
<feColorMatrix in="SourceAlpha" type="matrix" values="0 0 0 0 0 0 0 0 0 0 0 0 0 0 0 0 0 0 127 0" result="hardAlpha"/>
<feOffset dy="1.1875"/>
<feGaussianBlur stdDeviation="3.68126"/>
<feComposite in2="hardAlpha" operator="out"/>
<feColorMatrix type="matrix" values="0 0 0 0 0 0 0 0 0 0 0 0 0 0 0 0 0 0 0.08 0"/>
<feBlend mode="normal" in2="BackgroundImageFix" result="effect1_dropShadow_3396_52117"/>
<feBlend mode="normal" in="SourceGraphic" in2="effect1_dropShadow_3396_52117" result="shape"/>
</filter>
<clipPath id="clip0_3396_52117">
<rect width="24" height="23.25" fill="white"/>
</clipPath>
</defs>
</svg>
