<svg width="375" height="36" viewBox="0 0 375 36" fill="none" xmlns="http://www.w3.org/2000/svg">
<g clip-path="url(#clip0_4494_66846)">
<g clip-path="url(#clip1_4494_66846)">
<path d="M129.047 2.55994H128.132C125.905 2.55994 124.125 1.42714 122.193 0.0575367C122.138 0.0206669 122.073 0.000976563 122.007 0.000976562C121.941 0.000976563 121.876 0.0206669 121.821 0.0575367C119.882 1.42714 118.103 2.55994 115.876 2.55994H114.961C114.876 2.55994 114.794 2.59365 114.734 2.65366C114.674 2.71367 114.641 2.79507 114.641 2.87994V3.16154C114.641 6.04154 114.602 12.7615 121.86 15.9615C121.907 15.9863 121.96 15.9994 122.013 15.9999C122.081 15.9995 122.146 15.977 122.199 15.9359C129.399 12.7487 129.361 6.03514 129.361 3.16154V2.87994C129.361 2.83822 129.354 2.79675 129.339 2.75796C129.323 2.71917 129.3 2.68384 129.271 2.65404C129.242 2.62424 129.207 2.60056 129.169 2.5844C129.13 2.56825 129.089 2.55993 129.047 2.55994ZM121.476 10.6943C121.356 10.8135 121.194 10.8804 121.025 10.8804C120.856 10.8804 120.693 10.8135 120.573 10.6943L118.346 8.47994L119.249 7.57114L121.041 9.33754L125.405 4.98554L126.308 5.89434L121.476 10.6943Z" fill="#089958"/>
<g clip-path="url(#clip2_4494_66846)">
<g clip-path="url(#clip3_4494_66846)">
<path d="M129.047 2.55994H128.132C125.905 2.55994 124.125 1.42714 122.193 0.0575367C122.138 0.0206669 122.073 0.000976563 122.007 0.000976562C121.941 0.000976563 121.876 0.0206669 121.821 0.0575367C119.882 1.42714 118.103 2.55994 115.876 2.55994H114.961C114.876 2.55994 114.794 2.59365 114.734 2.65366C114.674 2.71367 114.641 2.79507 114.641 2.87994V3.16154C114.641 6.04154 114.602 12.7615 121.86 15.9615C121.907 15.9863 121.96 15.9994 122.013 15.9999C122.081 15.9995 122.146 15.977 122.199 15.9359C129.399 12.7487 129.361 6.03514 129.361 3.16154V2.87994C129.361 2.83822 129.354 2.79675 129.339 2.75796C129.323 2.71917 129.3 2.68384 129.271 2.65404C129.242 2.62424 129.207 2.60056 129.169 2.5844C129.13 2.56825 129.089 2.55993 129.047 2.55994ZM121.476 10.6943C121.356 10.8135 121.194 10.8804 121.025 10.8804C120.856 10.8804 120.693 10.8135 120.573 10.6943L118.346 8.47994L119.249 7.57114L121.041 9.33754L125.405 4.98554L126.308 5.89434L121.476 10.6943Z" fill="#089958"/>
</g>
</g>
</g>
</g>
<text fill="#393B3E" style="white-space: pre" xml:space="preserve" font-family="Basier Circle" font-size="12" letter-spacing="0px"><tspan x="138" y="12.2891">100% safe and secure</tspan></text>
<defs>
<clipPath id="clip0_4494_66846">
<rect width="16" height="16" fill="white" transform="translate(114)"/>
</clipPath>
<clipPath id="clip1_4494_66846">
<rect width="16" height="16" fill="white" transform="translate(114)"/>
</clipPath>
<clipPath id="clip2_4494_66846">
<rect width="16" height="16" fill="white" transform="translate(114)"/>
</clipPath>
<clipPath id="clip3_4494_66846">
<rect width="16" height="16" fill="white" transform="translate(114)"/>
</clipPath>
</defs>
</svg>
