<svg width="343" height="16" viewBox="0 0 343 16" fill="none" xmlns="http://www.w3.org/2000/svg">
<g clip-path="url(#clip0_1437_29040)">
<g clip-path="url(#clip1_1437_29040)">
<path d="M128.047 2.55994H127.132C124.905 2.55994 123.125 1.42714 121.193 0.0575367C121.138 0.0206669 121.073 0.000976563 121.007 0.000976562C120.941 0.000976563 120.876 0.0206669 120.821 0.0575367C118.882 1.42714 117.103 2.55994 114.876 2.55994H113.961C113.876 2.55994 113.794 2.59365 113.734 2.65366C113.674 2.71367 113.641 2.79507 113.641 2.87994V3.16154C113.641 6.04154 113.602 12.7615 120.86 15.9615C120.907 15.9863 120.96 15.9994 121.013 15.9999C121.081 15.9995 121.146 15.977 121.199 15.9359C128.399 12.7487 128.361 6.03514 128.361 3.16154V2.87994C128.361 2.83822 128.354 2.79675 128.339 2.75796C128.323 2.71917 128.3 2.68384 128.271 2.65404C128.242 2.62424 128.207 2.60056 128.169 2.5844C128.13 2.56825 128.089 2.55993 128.047 2.55994ZM120.476 10.6943C120.356 10.8135 120.194 10.8804 120.025 10.8804C119.856 10.8804 119.693 10.8135 119.573 10.6943L117.346 8.47994L118.249 7.57114L120.041 9.33754L124.405 4.98554L125.308 5.89434L120.476 10.6943Z" fill="#089958"/>
<g clip-path="url(#clip2_1437_29040)">
<g clip-path="url(#clip3_1437_29040)">
<path d="M128.047 2.55994H127.132C124.905 2.55994 123.125 1.42714 121.193 0.0575367C121.138 0.0206669 121.073 0.000976563 121.007 0.000976562C120.941 0.000976563 120.876 0.0206669 120.821 0.0575367C118.882 1.42714 117.103 2.55994 114.876 2.55994H113.961C113.876 2.55994 113.794 2.59365 113.734 2.65366C113.674 2.71367 113.641 2.79507 113.641 2.87994V3.16154C113.641 6.04154 113.602 12.7615 120.86 15.9615C120.907 15.9863 120.96 15.9994 121.013 15.9999C121.081 15.9995 121.146 15.977 121.199 15.9359C128.399 12.7487 128.361 6.03514 128.361 3.16154V2.87994C128.361 2.83822 128.354 2.79675 128.339 2.75796C128.323 2.71917 128.3 2.68384 128.271 2.65404C128.242 2.62424 128.207 2.60056 128.169 2.5844C128.13 2.56825 128.089 2.55993 128.047 2.55994ZM120.476 10.6943C120.356 10.8135 120.194 10.8804 120.025 10.8804C119.856 10.8804 119.693 10.8135 119.573 10.6943L117.346 8.47994L118.249 7.57114L120.041 9.33754L124.405 4.98554L125.308 5.89434L120.476 10.6943Z" fill="#089958"/>
</g>
</g>
</g>
</g>
<text fill="#393B3E" style="white-space: pre" xml:space="preserve" font-family="Basier Circle" font-size="12" letter-spacing="0px"><tspan x="137" y="12.2891">Placeholder Text</tspan></text>
<defs>
<clipPath id="clip0_1437_29040">
<rect width="16" height="16" fill="white" transform="translate(113)"/>
</clipPath>
<clipPath id="clip1_1437_29040">
<rect width="16" height="16" fill="white" transform="translate(113)"/>
</clipPath>
<clipPath id="clip2_1437_29040">
<rect width="16" height="16" fill="white" transform="translate(113)"/>
</clipPath>
<clipPath id="clip3_1437_29040">
<rect width="16" height="16" fill="white" transform="translate(113)"/>
</clipPath>
</defs>
</svg>
