<svg width="375" height="48" viewBox="0 0 375 48" fill="none" xmlns="http://www.w3.org/2000/svg">
<path d="M0 0H375V28C375 39.0457 366.046 48 355 48H20C8.95431 48 0 39.0457 0 28V0Z" fill="#F9F9F9"/>
<g clip-path="url(#clip0_1437_29061)">
<g clip-path="url(#clip1_1437_29061)">
<path d="M144.047 14.5599H143.132C140.905 14.5599 139.125 13.4271 137.193 12.0575C137.138 12.0207 137.073 12.001 137.007 12.001C136.941 12.001 136.876 12.0207 136.821 12.0575C134.882 13.4271 133.103 14.5599 130.876 14.5599H129.961C129.876 14.5599 129.794 14.5937 129.734 14.6537C129.674 14.7137 129.641 14.7951 129.641 14.8799V15.1615C129.641 18.0415 129.602 24.7615 136.86 27.9615C136.907 27.9863 136.96 27.9994 137.013 27.9999C137.081 27.9995 137.146 27.977 137.199 27.9359C144.399 24.7487 144.361 18.0351 144.361 15.1615V14.8799C144.361 14.8382 144.354 14.7967 144.339 14.758C144.323 14.7192 144.3 14.6838 144.271 14.654C144.242 14.6242 144.207 14.6006 144.169 14.5844C144.13 14.5682 144.089 14.5599 144.047 14.5599ZM136.476 22.6943C136.356 22.8135 136.194 22.8804 136.025 22.8804C135.856 22.8804 135.693 22.8135 135.573 22.6943L133.346 20.4799L134.249 19.5711L136.041 21.3375L140.405 16.9855L141.308 17.8943L136.476 22.6943Z" fill="#089958"/>
<g clip-path="url(#clip2_1437_29061)">
<g clip-path="url(#clip3_1437_29061)">
<path d="M144.047 14.5599H143.132C140.905 14.5599 139.125 13.4271 137.193 12.0575C137.138 12.0207 137.073 12.001 137.007 12.001C136.941 12.001 136.876 12.0207 136.821 12.0575C134.882 13.4271 133.103 14.5599 130.876 14.5599H129.961C129.876 14.5599 129.794 14.5937 129.734 14.6537C129.674 14.7137 129.641 14.7951 129.641 14.8799V15.1615C129.641 18.0415 129.602 24.7615 136.86 27.9615C136.907 27.9863 136.96 27.9994 137.013 27.9999C137.081 27.9995 137.146 27.977 137.199 27.9359C144.399 24.7487 144.361 18.0351 144.361 15.1615V14.8799C144.361 14.8382 144.354 14.7967 144.339 14.758C144.323 14.7192 144.3 14.6838 144.271 14.654C144.242 14.6242 144.207 14.6006 144.169 14.5844C144.13 14.5682 144.089 14.5599 144.047 14.5599ZM136.476 22.6943C136.356 22.8135 136.194 22.8804 136.025 22.8804C135.856 22.8804 135.693 22.8135 135.573 22.6943L133.346 20.4799L134.249 19.5711L136.041 21.3375L140.405 16.9855L141.308 17.8943L136.476 22.6943Z" fill="#089958"/>
</g>
</g>
</g>
</g>
<text fill="#393B3E" style="white-space: pre" xml:space="preserve" font-family="Basier Circle" font-size="12" letter-spacing="0px"><tspan x="153" y="24.2891">Placeholder Text</tspan></text>
<defs>
<clipPath id="clip0_1437_29061">
<rect width="16" height="16" fill="white" transform="translate(129 12)"/>
</clipPath>
<clipPath id="clip1_1437_29061">
<rect width="16" height="16" fill="white" transform="translate(129 12)"/>
</clipPath>
<clipPath id="clip2_1437_29061">
<rect width="16" height="16" fill="white" transform="translate(129 12)"/>
</clipPath>
<clipPath id="clip3_1437_29061">
<rect width="16" height="16" fill="white" transform="translate(129 12)"/>
</clipPath>
</defs>
</svg>
