<svg width="24" height="24" viewBox="0 0 24 24" fill="none" xmlns="http://www.w3.org/2000/svg">
<g clip-path="url(#clip0_3054_75651)">
<rect x="0.600586" y="0.600586" width="22.8" height="22.8" rx="11.4" fill="currentColor"/>
<path d="M18.4804 7.76852L11.8547 6.0685C11.8164 6.05729 11.777 6.06494 11.7414 6.09048C11.7058 6.11603 11.6755 6.15833 11.6544 6.21208C11.6334 6.26583 11.6224 6.32862 11.623 6.39258C11.6235 6.45654 11.6355 6.5188 11.6575 6.57156L13.4289 10.1425L8.71563 13.9008L6.2525 10.2841C6.22321 10.2354 6.1853 10.2032 6.14421 10.1921C6.10312 10.1811 6.06095 10.1917 6.02374 10.2225L1.65827 12.8473C1.62545 12.8745 1.5979 12.9163 1.57874 12.9679C1.55957 13.0195 1.54955 13.0789 1.54981 13.1394L1.96688 14.8034C1.96698 14.8587 1.97568 14.9131 1.99214 14.9613C2.0086 15.0096 2.03228 15.0501 2.06093 15.079C2.08958 15.108 2.12225 15.1244 2.15584 15.1267C2.18942 15.129 2.22281 15.1172 2.25283 15.0923L6.05332 13.018L8.31925 16.9678C8.34822 17.0183 8.38626 17.0522 8.42779 17.0645C8.46932 17.0767 8.51215 17.0668 8.54998 17.036L14.3223 12.304L16.3067 15.6959C16.328 15.748 16.3581 15.7887 16.3932 15.8133C16.4284 15.8378 16.4671 15.845 16.5047 15.834C16.5422 15.823 16.5771 15.7942 16.6049 15.7513C16.6328 15.7084 16.6525 15.653 16.6616 15.592L18.644 8.16773C18.6507 8.12367 18.6516 8.07782 18.6468 8.03313C18.642 7.98845 18.6315 7.94592 18.6161 7.9083C18.6006 7.87069 18.5806 7.83881 18.5572 7.81473C18.5338 7.79065 18.5077 7.77491 18.4804 7.76852Z" fill="currentColor"/>
</g>
<defs>
<clipPath id="clip0_3054_75651">
<rect width="24" height="24" fill="currentColor"/>
</clipPath>
</defs>
</svg>
