<svg width="24" height="24" viewBox="0 0 24 24" fill="none" xmlns="http://www.w3.org/2000/svg">
<g clip-path="url(#clip0_6029_6872)">
<g clip-path="url(#clip1_6029_6872)">
<path d="M17.1729 8.5712C17.0696 8.53691 16.9637 8.52263 16.8604 8.54263C16.8115 8.55406 16.7626 8.5712 16.7192 8.59692L20.5474 6.25664C20.7538 6.13091 21.0065 6.2052 21.2021 6.32522L17.3712 8.6655C17.3006 8.62264 17.2381 8.59692 17.1702 8.5712H17.1729Z" fill="#017AFF" stroke="black" stroke-width="0.075"/>
<path d="M18.2955 10.3447C18.2765 9.67891 17.9097 9.01883 17.3744 8.6645L21.2054 6.32422C21.5504 6.54425 21.8085 6.89857 21.9716 7.28433C22.1509 7.67009 22.2378 8.40161 21.8574 8.6245L18.0265 10.9648C18.1923 10.8648 18.2955 10.6476 18.2955 10.3418V10.3447Z" fill="#EBF7FF" stroke="black" stroke-width="0.075"/>
<path d="M7.18357 15.9577C9.38975 17.1092 11.8269 14.4146 12.8403 12.5601C13.8755 10.7056 14.8998 7.16518 12.8539 5.70215L16.6848 8.04243C17.3206 8.43391 17.6711 9.17971 17.7879 9.92551C18.2362 13.0945 15.9241 17.2778 13.0604 18.398C12.5061 18.6008 11.8785 18.6666 11.3215 18.4494C11.3786 18.5723 7.25965 15.9805 7.18357 15.9577Z" fill="#017AFF" stroke="black" stroke-width="0.075"/>
<path d="M17.1063 6.36503C16.0086 5.95069 14.805 6.34503 13.8296 6.93367L9.99866 4.59339C10.2541 4.43908 10.5176 4.30192 10.7866 4.18762C11.4495 3.90759 12.1804 3.76472 12.8895 3.91045C12.8895 3.91045 12.8922 3.91045 12.895 3.91045C13.1694 3.97045 13.4302 4.07047 13.672 4.2162L17.5029 6.55648C17.3779 6.47933 17.2421 6.41646 17.1063 6.36217V6.36503Z" fill="#017AFF" stroke="black" stroke-width="0.075"/>
<path d="M10.0015 17.7326C8.42776 16.7708 8.43174 13.6749 10.0104 10.8176C11.5891 7.96035 14.1446 6.42374 15.7183 7.38551C17.2921 8.34728 17.2881 11.4432 15.7095 14.3005C14.1308 17.1578 11.5753 18.6944 10.0015 17.7326Z" fill="#EBF7FF" stroke="black" stroke-width="0.075"/>
<path d="M4.85942 13.7177C5.03058 10.1773 7.11178 6.43397 9.9972 4.59375L13.8281 6.93403C11.1546 8.65424 9.34513 11.7575 8.78815 14.975C8.53275 16.6609 8.67132 18.804 10.1901 19.7813L6.35918 17.441C6.25322 17.3781 6.15541 17.3038 6.06032 17.221C5.08221 16.3923 4.81866 14.9779 4.85398 13.7177H4.85942Z" fill="#017AFF" stroke="black" stroke-width="0.075"/>
<path d="M13.8287 6.93635C10.9841 8.66513 8.67737 12.8656 8.68553 16.3032C8.69368 19.7408 11.0167 21.1352 13.8613 19.4064C16.706 17.6776 19.0182 13.4771 19.0073 10.0367C18.9991 6.59917 16.6761 5.20757 13.8287 6.93635ZM13.8586 18.0091C11.6525 19.3493 9.84839 18.2691 9.84295 15.6031C9.83752 12.9371 11.628 9.67668 13.8342 8.33652C16.0431 6.99636 17.8444 8.07649 17.8499 10.7425C17.8553 13.4086 16.0675 16.6718 13.8586 18.012" fill="#EBF7FF"/>
<path d="M13.8586 18.0091C11.6525 19.3493 9.84839 18.2691 9.84295 15.6031C9.83752 12.9371 11.628 9.67668 13.8342 8.33652C16.0431 6.99636 17.8444 8.07649 17.8499 10.7425C17.8553 13.4086 16.0675 16.6718 13.8586 18.012M13.8287 6.93635C10.9841 8.66513 8.67738 12.8656 8.68553 16.3032C8.69368 19.7408 11.0167 21.1352 13.8613 19.4064C16.706 17.6776 19.0182 13.4771 19.0073 10.0367C18.9991 6.59917 16.6761 5.20757 13.8287 6.93635Z" stroke="black" stroke-width="0.075"/>
<path d="M2.59937 16.6405C2.49612 16.6062 2.39016 16.592 2.28692 16.612C2.23801 16.6234 2.18911 16.6405 2.14563 16.6663L5.97656 14.326C6.18305 14.2002 6.43573 14.2745 6.63135 14.3946L2.80042 16.7348C2.72978 16.692 2.66729 16.6663 2.59937 16.6405Z" fill="#017AFF" stroke="black" stroke-width="0.075"/>
<path d="M3.72519 18.4131C3.70617 17.7473 3.33938 17.0872 2.80414 16.7329L6.63506 14.3926C6.98012 14.6126 7.23823 14.9669 7.40125 15.3527C7.58057 15.7385 7.66751 16.47 7.28713 16.6929L3.45621 19.0331C3.62194 18.9331 3.72519 18.716 3.72519 18.4102V18.4131Z" fill="#EBF7FF" stroke="black" stroke-width="0.075"/>
<path d="M2.80112 16.735C2.29033 16.4264 1.87735 16.675 1.87463 17.2923C1.87191 17.9095 2.28489 18.6581 2.79568 18.9667C3.30647 19.2754 3.72217 19.0296 3.72217 18.4124C3.72217 17.7952 3.31191 17.0437 2.80112 16.735Z" fill="#017AFF" stroke="black" stroke-width="0.075"/>
<path d="M12.7171 14.8306C12.4949 14.959 12.3122 15.2701 12.3171 15.5219C12.3221 15.7738 12.4999 15.8775 12.7221 15.7491C12.9443 15.6207 13.1221 15.3096 13.1221 15.0577C13.1221 14.8059 12.9394 14.7022 12.7221 14.8306H12.7171Z" fill="black"/>
<path d="M14.5134 9.7793L14.7158 10.4361L14.3158 10.52L12.8146 15.1768L12.7701 15.1867L12.7257 15.1966L14.2269 10.5398L13.822 10.6237L14.5134 9.7793Z" fill="black"/>
<circle cx="20.55" cy="2.55" r="1.8" fill="#DF3C27"/>
</g>
</g>
<defs>
<clipPath id="clip0_6029_6872">
<rect width="24" height="24" fill="white"/>
</clipPath>
<clipPath id="clip1_6029_6872">
<rect width="24" height="24" fill="white" transform="matrix(-1 0 0 1 24 0)"/>
</clipPath>
</defs>
</svg>
