<svg width="24" height="24" viewBox="0 0 24 24" fill="none" xmlns="http://www.w3.org/2000/svg">
<g clip-path="url(#clip0_4017_3080)">
<path d="M6.78888 8.5439C6.89289 8.50935 6.99964 8.49496 7.10365 8.51511C7.15292 8.52662 7.20218 8.5439 7.24598 8.5698L3.38943 6.2122C3.18142 6.08554 2.92687 6.16038 2.7298 6.28129L6.58908 8.63889C6.66024 8.59571 6.72319 8.5698 6.79162 8.5439H6.78888Z" fill="currentColor" stroke="currentColor" stroke-width="0.0864"/>
<path d="M5.65765 10.3305C5.67681 9.65979 6.04631 8.99483 6.58552 8.63788L2.72624 6.28027C2.37863 6.50193 2.1186 6.85888 1.95438 7.2475C1.77373 7.63611 1.68615 8.37304 2.06934 8.59758L5.92862 10.9552C5.76166 10.8544 5.65765 10.6357 5.65765 10.3276V10.3305Z" fill="currentColor" stroke="currentColor" stroke-width="0.0864"/>
<path d="M6.58662 8.63935C7.10119 8.32845 7.51723 8.5789 7.51997 9.20068C7.5227 9.82247 7.10667 10.5767 6.5921 10.8876C6.07753 11.1985 5.65875 10.9509 5.65875 10.3291C5.65875 9.70732 6.07205 8.95024 6.58662 8.63935Z" fill="currentColor"/>
<path d="M16.8518 15.9847C14.6292 17.1448 12.1741 14.4303 11.1532 12.562C10.1103 10.6938 9.07845 7.12718 11.1395 5.65332L7.28019 8.01092C6.63971 8.4053 6.28663 9.15662 6.16893 9.90795C5.71731 13.1004 8.04657 17.3147 10.9314 18.4431C11.4898 18.6475 12.1221 18.7137 12.6832 18.4949C12.6257 18.6187 16.7751 16.0078 16.8518 15.9847Z" fill="currentColor" stroke="currentColor" stroke-width="0.0864"/>
<path d="M6.85585 6.32112C7.96163 5.90372 9.17416 6.30097 10.1568 6.89397L14.016 4.53637C13.7588 4.38092 13.4933 4.24275 13.2223 4.1276C12.5544 3.8455 11.8182 3.70157 11.1038 3.84838C11.1038 3.84838 11.1011 3.84838 11.0983 3.84838C10.8219 3.90883 10.5591 4.00958 10.3155 4.15639L6.45624 6.51399C6.58214 6.43627 6.719 6.37294 6.85585 6.31825V6.32112Z" fill="currentColor" stroke="currentColor" stroke-width="0.0864"/>
<path d="M14.0132 17.7729C15.5986 16.804 15.5946 13.6851 14.0042 10.8067C12.4139 7.92828 9.83945 6.38029 8.25405 7.34918C6.66865 8.31807 6.67265 11.4369 8.26299 14.3154C9.85334 17.1938 12.4278 18.7418 14.0132 17.7729Z" fill="currentColor" stroke="currentColor" stroke-width="0.0864"/>
<path d="M19.1931 13.7276C19.0206 10.161 16.924 6.38997 14.0172 4.53613L10.158 6.89374C12.8512 8.62668 14.6741 11.7529 15.2352 14.9942C15.4925 16.6926 15.3529 18.8516 13.8229 19.8361L17.6822 17.4785C17.7889 17.4152 17.8875 17.3403 17.9833 17.2568C18.9686 16.422 19.2341 14.9971 19.1985 13.7276H19.1931Z" fill="currentColor" stroke="currentColor" stroke-width="0.0864"/>
<path d="M10.1575 6.89693C13.0232 8.63851 15.347 12.8701 15.3388 16.3331C15.3306 19.7961 12.9904 21.2009 10.1247 19.4593C7.25896 17.7177 4.9297 13.4861 4.94065 10.0203C4.94886 6.55725 7.28906 5.15536 10.1575 6.89693ZM10.1274 18.0516C12.3499 19.4017 14.1673 18.3136 14.1728 15.6278C14.1783 12.9421 12.3746 9.65754 10.152 8.30746C7.9268 6.95738 6.11212 8.04551 6.10665 10.7313C6.10117 13.417 7.90217 16.7044 10.1274 18.0545" fill="currentColor"/>
<path d="M10.1274 18.0516C12.3499 19.4017 14.1673 18.3136 14.1728 15.6278C14.1783 12.9421 12.3746 9.65754 10.152 8.30746C7.9268 6.95738 6.11212 8.04551 6.10665 10.7313C6.10117 13.417 7.90217 16.7044 10.1274 18.0545M10.1575 6.89693C13.0232 8.63851 15.347 12.8701 15.3388 16.3331C15.3306 19.7961 12.9904 21.2009 10.1247 19.4593C7.25896 17.7177 4.9297 13.4861 4.94065 10.0203C4.94886 6.55725 7.28906 5.15536 10.1575 6.89693Z" stroke="currentColor" stroke-width="0.0864"/>
<path d="M21.4703 16.6728C21.5743 16.6383 21.6811 16.6239 21.7851 16.644C21.8344 16.6555 21.8836 16.6728 21.9274 16.6987L18.0681 14.3411C17.8601 14.2144 17.6056 14.2893 17.4085 14.4102L21.2678 16.7678C21.339 16.7246 21.4019 16.6987 21.4703 16.6728Z" fill="currentColor" stroke="currentColor" stroke-width="0.0864"/>
<path d="M20.3362 18.4584C20.3553 17.7877 20.7248 17.1228 21.264 16.7658L17.4048 14.4082C17.0572 14.6299 16.7971 14.9868 16.6329 15.3754C16.4523 15.764 16.3647 16.501 16.7479 16.7255L20.6071 19.0831C20.4402 18.9824 20.3362 18.7636 20.3362 18.4556V18.4584Z" fill="currentColor" stroke="currentColor" stroke-width="0.0864"/>
<path d="M21.2669 16.7683C21.7814 16.4574 22.1975 16.7078 22.2002 17.3296C22.2029 17.9514 21.7869 18.7056 21.2723 19.0165C20.7578 19.3274 20.339 19.0798 20.339 18.458C20.339 17.8362 20.7523 17.0791 21.2669 16.7683Z" fill="currentColor" stroke="currentColor" stroke-width="0.0864"/>
<path d="M11.2775 14.8515C11.5014 14.9808 11.6854 15.2943 11.6805 15.548C11.6755 15.8017 11.4964 15.9062 11.2725 15.7768C11.0487 15.6475 10.8696 15.3341 10.8696 15.0803C10.8696 14.8266 11.0536 14.7222 11.2725 14.8515H11.2775Z" fill="currentColor"/>
<path d="M9.46746 9.76172L9.26349 10.4234L9.66645 10.5079L11.1788 15.1992L11.2236 15.2091L11.2683 15.2191L9.75599 10.5278L10.1639 10.6124L9.46746 9.76172Z" fill="currentColor"/>
</g>
<defs>
<clipPath id="clip0_4017_3080">
<rect width="24" height="24" fill="currentColor"/>
</clipPath>
</defs>
</svg>
