<svg width="16" height="16" viewBox="0 0 16 16" fill="none" xmlns="http://www.w3.org/2000/svg">
<g clip-path="url(#clip0_3396_52777)">
<g filter="url(#filter0_d_3396_52777)">
<path d="M7.75003 15.5C12.0302 15.5 15.5001 12.0302 15.5001 7.75C15.5001 3.4698 12.0302 0 7.75003 0C3.46981 0 0 3.4698 0 7.75C0 12.0302 3.46981 15.5 7.75003 15.5Z" fill="white"/>
<mask id="mask0_3396_52777" style="mask-type:luminance" maskUnits="userSpaceOnUse" x="4" y="2" width="8" height="11">
<path d="M11.5 2.5H4V13H11.5V2.5Z" fill="white"/>
</mask>
<g mask="url(#mask0_3396_52777)">
<path fill-rule="evenodd" clip-rule="evenodd" d="M11.419 5.19948L9.56848 6.51756L7.75084 5.22048L5.93064 6.51953L4.08203 5.20031L7.75084 2.58203L11.419 5.19948Z" fill="#FF555F"/>
<path fill-rule="evenodd" clip-rule="evenodd" d="M5.97156 9.05266V6.50216L4.08203 5.20703V10.3476L7.83204 12.918V10.3278L5.97156 9.05266ZM7.83204 10.457H9.62553V7.83206H7.83204V10.457Z" fill="#25A5BD"/>
<path fill-rule="evenodd" clip-rule="evenodd" d="M7.83203 12.918L11.582 10.375V7.83203L7.83203 10.3553V12.918Z" fill="#1E2C4C"/>
<path fill-rule="evenodd" clip-rule="evenodd" d="M9.69856 9.14453L7.83203 7.82826L9.68976 6.51953L11.582 7.83008L9.69856 9.14453Z" fill="#FF555F"/>
</g>
</g>
</g>
<defs>
<filter id="filter0_d_3396_52777" x="-7.36251" y="-6.13543" width="30.225" height="30.225" filterUnits="userSpaceOnUse" color-interpolation-filters="sRGB">
<feFlood flood-opacity="0" result="BackgroundImageFix"/>
<feColorMatrix in="SourceAlpha" type="matrix" values="0 0 0 0 0 0 0 0 0 0 0 0 0 0 0 0 0 0 127 0" result="hardAlpha"/>
<feOffset dy="1.22708"/>
<feGaussianBlur stdDeviation="3.68126"/>
<feComposite in2="hardAlpha" operator="out"/>
<feColorMatrix type="matrix" values="0 0 0 0 0 0 0 0 0 0 0 0 0 0 0 0 0 0 0.08 0"/>
<feBlend mode="normal" in2="BackgroundImageFix" result="effect1_dropShadow_3396_52777"/>
<feBlend mode="normal" in="SourceGraphic" in2="effect1_dropShadow_3396_52777" result="shape"/>
</filter>
<clipPath id="clip0_3396_52777">
<rect width="16" height="15.5" fill="white"/>
</clipPath>
</defs>
</svg>
