<svg width="16" height="16" viewBox="0 0 16 16" fill="none" xmlns="http://www.w3.org/2000/svg">
<g clip-path="url(#clip0_3396_56065)">
<path d="M0 8C0 3.58172 3.58172 0 8 0C12.4183 0 16 3.58172 16 8C16 12.4183 12.4183 16 8 16C3.58172 16 0 12.4183 0 8Z" fill="white"/>
<path d="M3.39524 11.9974H5.09449V7.88863L2.66699 6.0625V11.2698C2.66699 11.6693 2.99542 11.9974 3.39524 11.9974Z" fill="#4285F4"/>
<path d="M10.9062 11.9974H12.6055C13.0053 11.9974 13.3337 11.6693 13.3337 11.2698V6.0625L10.9062 7.87436" fill="#34A853"/>
<path d="M10.9062 4.73541V7.88834L13.3337 6.07648V5.09208C13.3337 4.19328 12.3056 3.67968 11.5917 4.22181" fill="#FBBC04"/>
<path d="M5.09473 7.88828V4.73535L8.00772 6.91815L10.9064 4.73535V7.88828L7.99344 10.0568" fill="#EA4335"/>
<path d="M2.66699 5.09272V6.06285L5.09449 7.87472V4.73606L4.40908 4.22246C3.69511 3.69459 2.66699 4.20819 2.66699 5.09272Z" fill="#C5221F"/>
</g>
<defs>
<clipPath id="clip0_3396_56065">
<rect width="16" height="16" fill="white"/>
</clipPath>
</defs>
</svg>
