<svg width="24" height="24" viewBox="0 0 24 24" fill="none" xmlns="http://www.w3.org/2000/svg">
<g clip-path="url(#clip0_1496_70616)">
<g clip-path="url(#clip1_1496_70616)">
<path d="M16.5 8V5L19.5 2L20.5 4L22.5 5L19.5 8H16.5ZM16.5 8L12.5 11.9999M22.5 12C22.5 17.5228 18.0228 22 12.5 22C6.97715 22 2.5 17.5228 2.5 12C2.5 6.47715 6.97715 2 12.5 2M17.5 12C17.5 14.7614 15.2614 17 12.5 17C9.73858 17 7.5 14.7614 7.5 12C7.5 9.23858 9.73858 7 12.5 7" stroke="#5E6063" stroke-width="1.75" stroke-linecap="round" stroke-linejoin="round"/>
</g>
</g>
<defs>
<clipPath id="clip0_1496_70616">
<rect width="24" height="24" fill="white"/>
</clipPath>
<clipPath id="clip1_1496_70616">
<rect width="24" height="24" fill="white"/>
</clipPath>
</defs>
</svg>
