<svg width="24" height="24" viewBox="0 0 24 24" fill="none" xmlns="http://www.w3.org/2000/svg">
<g clip-path="url(#clip0_3396_50250)">
<path d="M24 12C24 5.37258 18.6274 0 12 0C5.37258 0 0 5.37258 0 12C0 18.6274 5.37258 24 12 24C18.6274 24 24 18.6274 24 12Z" fill="#7399C6"/>
<path fill-rule="evenodd" clip-rule="evenodd" d="M4.94456 19.0562H19.0572V4.94355H4.94456V19.0562Z" fill="#7399C6"/>
<path fill-rule="evenodd" clip-rule="evenodd" d="M18.8569 11.5201H18.2343V5.41306H18.8207V6.09671C18.8937 5.68584 19.0767 5.32226 19.3149 5.27586C19.7181 5.23008 19.9924 5.82305 19.9924 7.09891V11.5201H19.3516V6.9168C19.3516 6.37024 19.3516 5.91372 19.205 5.82305C19.15 5.7774 19.0585 5.82305 18.9852 5.9595C18.8937 6.18814 18.8569 6.46104 18.8569 6.9168V11.5201ZM8.03164 8.46619C8.03164 9.6056 8.03164 10.5171 7.95837 10.9736C7.90334 11.2008 7.84832 11.338 7.71997 11.338C7.6102 11.338 7.53688 11.2008 7.50038 10.9729C7.40886 10.5171 7.40886 9.6056 7.40886 8.46619C7.40886 7.37256 7.40886 6.41602 7.5001 5.9595C7.53688 5.73162 7.6102 5.59517 7.71997 5.59517C7.84832 5.59517 7.90334 5.73162 7.95837 5.9595C8.04989 6.41526 8.03164 7.37181 8.03164 8.46619ZM8.26948 5.82305C8.12293 5.50374 7.93984 5.27586 7.71997 5.27586C7.50038 5.27586 7.33554 5.50449 7.17074 5.82305C6.91409 6.37024 6.74925 7.37256 6.74925 8.46619C6.74925 9.6056 6.91409 10.5629 7.17074 11.1101C7.33554 11.4286 7.50038 11.6565 7.71997 11.6565C7.93984 11.6565 8.12321 11.4286 8.26976 11.1101C8.54438 10.5629 8.69097 9.6056 8.69097 8.46619C8.69097 7.37256 8.54409 6.37024 8.26948 5.82305ZM14.6624 13.8447V15.4849H14.5343C14.461 14.8012 14.351 14.209 14.0578 14.1632C13.8747 14.1183 13.7099 14.3919 13.6916 14.8012C13.6734 15.212 13.7281 15.5755 14.0578 16.0328C14.4793 16.6243 14.8089 16.8978 14.8089 18.1288C14.8089 19.4503 14.351 20.0889 13.9663 20.0889H13.2334V17.8101H13.3617C13.4535 18.9945 13.5998 19.7239 13.948 19.7696C14.1679 19.7696 14.3324 19.4503 14.3324 18.8581C14.3324 18.2651 14.1861 17.9009 13.8382 17.3993C13.4535 16.8071 13.2154 16.442 13.2154 15.6219C13.2154 14.5283 13.5268 13.8447 14.0213 13.8447H14.6624ZM15.4682 11.5201V7.09891C15.4682 5.82305 15.1936 5.23008 14.7907 5.27586C14.5158 5.32164 14.351 5.7774 14.2776 6.14161C14.1861 5.50374 13.9845 5.23008 13.6914 5.27586C13.4535 5.32164 13.2701 5.68584 13.1969 6.09671V5.41306H12.6291V11.5193H13.2519V6.91756C13.2519 6.46167 13.2701 6.18814 13.3803 5.96026C13.4535 5.8238 13.5268 5.77802 13.5816 5.8238C13.7281 5.91448 13.7281 6.37099 13.7281 6.91756V11.5208H14.351V6.87103C14.351 6.46029 14.3875 6.18663 14.4793 5.95875C14.5525 5.8223 14.6259 5.77665 14.6806 5.8223C14.8272 5.9131 14.8454 6.36949 14.8454 6.91605V11.5193L15.4682 11.5201ZM9.11213 11.5201H9.75321V4.13645H9.11213V11.5201ZM11.2734 5.91448C11.4017 6.37024 11.4017 7.46324 11.4017 8.32974C11.4017 9.24127 11.4203 10.4264 11.2737 10.9272C11.2187 11.1101 11.1636 11.2008 11.0721 11.2008C10.944 11.2008 10.8708 10.8364 10.8343 10.2436C10.8157 9.69703 10.8157 9.01339 10.8157 8.28409C10.8157 7.05388 10.8522 5.68584 11.0906 5.68584C11.1819 5.68584 11.2184 5.7774 11.2734 5.91448ZM12.0249 11.5201V4.13645H11.3835V5.86883C11.3288 5.54952 11.2004 5.32163 11.0174 5.32163C10.5594 5.32163 10.1932 6.50669 10.1747 8.32974C10.1564 9.56058 10.3213 11.6115 10.9623 11.6115C11.2187 11.6115 11.3653 11.2465 11.4203 10.9272V11.5201H12.0249ZM17.007 7.87398L16.8054 8.19266C16.604 8.51197 16.5675 8.92271 16.549 9.37772C16.5308 9.74281 16.5308 10.0614 16.549 10.6086C16.5673 11.1101 16.6956 11.2008 16.8054 11.1101C16.9337 10.9729 17.007 10.3807 17.007 9.74281V7.87398ZM17.3731 5.59517C17.5383 5.8238 17.648 6.18738 17.648 7.00823V11.5201H17.0435V10.8364C16.9705 11.338 16.7689 11.6565 16.494 11.6565C16.2744 11.6565 15.8897 11.3836 15.8897 9.97069C15.8897 8.64842 16.2376 8.37552 16.6226 7.96478C16.9705 7.60045 17.007 7.55467 17.007 7.19034V6.18738C17.007 5.7774 16.9154 5.59517 16.7321 5.59517C16.6591 5.64094 16.5308 5.73162 16.5308 5.9595C16.5122 6.23316 16.6405 6.23316 16.6591 6.64314C16.6773 7.28176 16.4757 7.50889 16.2926 7.46399C16.1643 7.46399 16.0178 7.28177 15.9995 6.78035C15.9813 5.9595 16.3474 5.27586 16.8604 5.27586C17.0985 5.27586 17.2451 5.41306 17.3731 5.59517ZM7.93984 16.3964L7.7385 16.7157C7.53688 17.035 7.50038 17.445 7.48185 17.9009C7.46388 18.2651 7.46388 18.6302 7.48185 19.131C7.48185 19.6781 7.6102 19.7696 7.71997 19.6324C7.86656 19.496 7.93984 18.9495 7.93984 18.2651V16.3964ZM8.30626 14.1176C8.4711 14.3911 8.56262 14.7104 8.56262 15.5305V20.0881H7.9769V19.4045C7.90362 19.8603 7.70228 20.1789 7.42739 20.1789C7.18927 20.1789 6.8228 19.9518 6.8228 18.5387C6.8228 17.2171 7.17102 16.9436 7.53716 16.5328C7.90362 16.1235 7.94012 16.0777 7.94012 15.7584V14.7554C7.94012 14.3004 7.84855 14.1183 7.66551 14.1632C7.59218 14.1632 7.46417 14.2547 7.46417 14.4825C7.44564 14.802 7.57394 14.802 7.59218 15.212C7.61043 15.8042 7.40914 16.032 7.22577 16.032C7.0977 15.9863 6.95115 15.8042 6.93262 15.3026C6.91437 14.5283 7.28079 13.8439 7.79352 13.8439C8.03192 13.8439 8.17796 13.9346 8.30626 14.1176ZM12.7392 15.6677C12.7392 14.3919 12.4643 13.7532 12.0614 13.8447C11.86 13.8897 11.6949 14.1176 11.6034 14.4369V12.6595H10.9803V16.8529C10.9803 18.4015 10.5406 19.8603 10.1008 19.8146C9.78971 19.8146 9.71644 19.2224 9.67966 18.5845C9.62487 17.673 9.62487 16.625 9.66141 15.4849C9.69819 14.7562 9.77146 14.1632 9.99133 14.1632C10.1561 14.1632 10.1744 14.4369 10.1011 14.619C10.0278 14.8476 9.91806 15.0747 9.9728 15.5763C10.0278 16.1235 10.3757 16.2142 10.5408 15.8049C10.6689 15.4398 10.6506 14.8469 10.5591 14.4825C10.449 14.0268 10.2659 13.8447 9.99133 13.8447C9.64316 13.8447 8.98383 14.619 8.98383 17.08C8.98383 19.7239 9.66141 20.1797 10.0461 20.1797C10.4858 20.1797 10.8702 19.2224 10.9803 18.4473V20.0881H11.6031V15.4849C11.6031 15.0298 11.6396 14.7562 11.7314 14.5276C11.8047 14.3911 11.8962 14.3455 11.9513 14.3911C12.0979 14.4825 12.0979 14.9383 12.0979 15.4849V20.0881H12.7389L12.7392 15.6677ZM6.32808 4V6.59812H6.19974C6.08996 5.32226 5.85185 4.36433 5.52221 4.31931C5.30234 4.27366 5.17399 4.59221 5.06422 5.04798C4.9544 5.59517 4.89937 6.73457 4.89937 8.10111C4.89937 9.37772 4.91762 10.335 4.97265 11.0187C5.00919 11.338 5.10071 11.8388 5.33883 11.8388C5.46713 11.8388 5.5587 11.748 5.61373 11.5659C5.70497 11.2922 5.7235 10.745 5.7235 10.3807V9.14984C5.7235 8.69408 5.66875 8.42117 5.57695 8.28409C5.50391 8.19266 5.39386 8.19266 5.33911 8.14689V7.82833H6.36458V14.3462H6.23651C6.18149 13.8447 6.14499 13.4796 6.05319 13.0696C5.9619 12.6595 5.79682 12.2037 5.52221 12.2037C5.22901 12.1581 5.00919 12.6138 5.00919 13.2975C5.00919 14.209 5.22901 14.4369 5.63198 14.9841C6.01664 15.5305 6.51141 15.987 6.51141 17.5814C6.51141 19.131 5.97987 20.0889 5.37561 20.0889H4.40489V16.9436H4.53296C4.69775 19.3138 5.10071 19.7239 5.37561 19.7239C5.7235 19.7239 5.88834 19.1766 5.88834 18.4023C5.87009 17.3993 5.5952 17.035 5.21077 16.5335C4.66126 15.7591 4.40489 15.3941 4.40489 14.1183C4.42314 13.0238 4.77107 12.3409 5.15574 12.0673C4.34986 11.8388 4.11174 10.0163 4.12999 8.05621C4.12999 6.09671 4.58798 4 5.48538 4H6.32808Z" fill="white"/>
</g>
<defs>
<clipPath id="clip0_3396_50250">
<rect width="23.25" height="23.25" fill="white" transform="scale(1.03226)"/>
</clipPath>
</defs>
</svg>
