<svg width="16" height="16" viewBox="0 0 16 16" fill="none" xmlns="http://www.w3.org/2000/svg">
<g clip-path="url(#clip0_3396_63299)">
<g clip-path="url(#clip1_3396_63299)">
<g filter="url(#filter0_d_3396_63299)">
<g clip-path="url(#clip2_3396_63299)">
<path d="M0.25 8C0.25 3.71979 3.71979 0.25 8 0.25C12.2802 0.25 15.75 3.71979 15.75 8C15.75 12.2802 12.2802 15.75 8 15.75C3.71979 15.75 0.25 12.2802 0.25 8Z" fill="white"/>
<path d="M8.11328 6.9707V9.16198H11.1584C11.0247 9.86669 10.6234 10.4634 10.0216 10.8646L11.858 12.2895C12.9279 11.3019 13.5451 9.8513 13.5451 8.12812C13.5451 7.72691 13.5091 7.34109 13.4423 6.97076L8.11328 6.9707Z" fill="#4285F4"/>
<path d="M4.94268 9.07617L4.52852 9.39321L3.0625 10.5351C3.99353 12.3817 5.90176 13.6574 8.11359 13.6574C9.64127 13.6574 10.9221 13.1533 11.8583 12.2892L10.0219 10.8643C9.51783 11.2038 8.87485 11.4096 8.11359 11.4096C6.64246 11.4096 5.39254 10.4169 4.945 9.07944L4.94268 9.07617Z" fill="#34A853"/>
<path d="M3.06201 5.46484C2.67624 6.2261 2.45508 7.08513 2.45508 8.00072C2.45508 8.91631 2.67624 9.77534 3.06201 10.5366C3.06201 10.5417 4.94468 9.07575 4.94468 9.07575C4.83152 8.73626 4.76463 8.37621 4.76463 8.00066C4.76463 7.62511 4.83152 7.26507 4.94468 6.92558L3.06201 5.46484Z" fill="#FBBC05"/>
<path d="M8.1137 4.5948C8.94702 4.5948 9.68772 4.88284 10.2793 5.43839L11.8996 3.8181C10.9171 2.90251 9.64145 2.3418 8.1137 2.3418C5.90187 2.3418 3.99353 3.61232 3.0625 5.46411L4.94512 6.92496C5.39261 5.58755 6.64257 4.5948 8.1137 4.5948Z" fill="#EA4335"/>
</g>
</g>
</g>
</g>
<defs>
<filter id="filter0_d_3396_63299" x="-5.5625" y="-4.59375" width="27.125" height="27.125" filterUnits="userSpaceOnUse" color-interpolation-filters="sRGB">
<feFlood flood-opacity="0" result="BackgroundImageFix"/>
<feColorMatrix in="SourceAlpha" type="matrix" values="0 0 0 0 0 0 0 0 0 0 0 0 0 0 0 0 0 0 127 0" result="hardAlpha"/>
<feOffset dy="0.96875"/>
<feGaussianBlur stdDeviation="2.90625"/>
<feComposite in2="hardAlpha" operator="out"/>
<feColorMatrix type="matrix" values="0 0 0 0 0 0 0 0 0 0 0 0 0 0 0 0 0 0 0.08 0"/>
<feBlend mode="normal" in2="BackgroundImageFix" result="effect1_dropShadow_3396_63299"/>
<feBlend mode="normal" in="SourceGraphic" in2="effect1_dropShadow_3396_63299" result="shape"/>
</filter>
<clipPath id="clip0_3396_63299">
<rect width="16" height="16" fill="white"/>
</clipPath>
<clipPath id="clip1_3396_63299">
<rect width="16" height="16" fill="white"/>
</clipPath>
<clipPath id="clip2_3396_63299">
<path d="M0.25 8C0.25 3.71979 3.71979 0.25 8 0.25C12.2802 0.25 15.75 3.71979 15.75 8C15.75 12.2802 12.2802 15.75 8 15.75C3.71979 15.75 0.25 12.2802 0.25 8Z" fill="white"/>
</clipPath>
</defs>
</svg>
