<svg width="24" height="24" viewBox="0 0 24 24" fill="none" xmlns="http://www.w3.org/2000/svg">
<g clip-path="url(#clip0_3396_61508)">
<g filter="url(#filter0_d_3396_61508)">
<g clip-path="url(#clip1_3396_61508)">
<path d="M0 12C0 5.37258 5.37258 0 12 0C18.6274 0 24 5.37258 24 12C24 18.6274 18.6274 24 12 24C5.37258 24 0 18.6274 0 12Z" fill="currentColor"/>
<path d="M2.45976 12.084V12.983H2.04102V10.9785H2.45976V11.7379H3.24146V10.9785H3.66023V12.983H3.24146V12.084H2.45976Z" fill="currentColor"/>
<path d="M5.21488 12.6929C5.21488 12.8688 5.25397 12.9079 5.30143 12.9246V12.9833H4.87987C4.85753 12.9134 4.85195 12.8911 4.84356 12.8074C4.75423 12.8995 4.62861 13.0223 4.36339 13.0223C4.14005 13.0223 3.91113 12.8967 3.91113 12.5896C3.91113 12.2993 4.09538 12.1513 4.34385 12.115L4.69559 12.062C4.75702 12.0536 4.83238 12.0285 4.83238 11.9447C4.83238 11.78 4.67605 11.7717 4.57555 11.7717C4.38012 11.7717 4.34664 11.8917 4.33546 11.9782H3.95859C4.00326 11.5232 4.31872 11.459 4.62304 11.459C4.83241 11.459 5.21488 11.5232 5.21488 11.8889V12.6929ZM4.83241 12.2602C4.79332 12.2909 4.72913 12.316 4.56719 12.3411C4.422 12.3663 4.30197 12.4026 4.30197 12.5645C4.30197 12.7013 4.40806 12.7432 4.48345 12.7432C4.65652 12.7432 4.83241 12.6315 4.83241 12.4501V12.2602Z" fill="currentColor"/>
<path d="M6.87892 12.9833H6.48808V12.0815C6.48808 11.9727 6.48251 11.7884 6.23404 11.7884C6.06095 11.7884 5.92697 11.9057 5.92697 12.1318V12.9833H5.53613V11.4981H5.91021V11.7158H5.91581C5.96885 11.6265 6.08052 11.459 6.36247 11.459C6.65281 11.459 6.87894 11.6293 6.87894 11.9559L6.87892 12.9833Z" fill="currentColor"/>
<path d="M8.57028 12.983H8.18781V12.7959H8.18223C8.08732 12.9635 7.91422 13.0221 7.75231 13.0221C7.3112 13.0221 7.12695 12.6312 7.12695 12.2236C7.12695 11.71 7.4173 11.4587 7.74392 11.4587C7.99517 11.4587 8.11242 11.5955 8.17387 11.6904H8.17945V10.9785H8.57031V12.983H8.57028ZM7.85001 12.701C8.09847 12.701 8.19618 12.4944 8.19618 12.2739C8.19618 12.0366 8.12917 11.7965 7.86117 11.7965C7.6127 11.7965 7.52894 12.0171 7.52894 12.2516C7.52897 12.4274 7.59876 12.701 7.85001 12.701Z" fill="currentColor"/>
<path d="M10.1675 12.5478C10.0642 12.9051 9.76825 13.0223 9.5142 13.0223C9.09546 13.0223 8.77441 12.8214 8.77441 12.21C8.77441 12.0313 8.83581 11.459 9.48629 11.459C9.77942 11.459 10.1842 11.5986 10.1842 12.277V12.3468H9.16525C9.17643 12.4584 9.19876 12.7097 9.51423 12.7097C9.62311 12.7097 9.73478 12.6539 9.76548 12.5478L10.1675 12.5478ZM9.78221 12.0927C9.75988 11.8526 9.60633 11.78 9.48072 11.78C9.29646 11.78 9.19874 11.8973 9.1764 12.0927H9.78221Z" fill="currentColor"/>
<path d="M10.8186 12.983H10.4277V10.9785H10.8186V12.983Z" fill="currentColor"/>
<path d="M12.0045 11.9503C11.9877 11.8554 11.9542 11.7549 11.742 11.7549C11.5298 11.7549 11.5019 11.8359 11.5019 11.9001C11.5019 12.1346 12.4316 11.9643 12.4316 12.5115C12.4316 12.9442 12.0128 13.0223 11.7811 13.0223C11.4433 13.0223 11.0776 12.9051 11.0664 12.5087H11.4684C11.4684 12.6343 11.5466 12.7264 11.7923 12.7264C11.9933 12.7264 12.0407 12.6287 12.0407 12.5729C12.0407 12.3244 11.1195 12.5115 11.1195 11.9559C11.1195 11.7381 11.2563 11.459 11.7197 11.459C12.01 11.459 12.3562 11.5316 12.3869 11.9503L12.0045 11.9503Z" fill="currentColor"/>
<path d="M13.0686 11.6904H13.0742C13.1356 11.5955 13.2529 11.4587 13.5041 11.4587C13.8307 11.4587 14.1211 11.7099 14.1211 12.2236C14.1211 12.6312 13.9368 13.0221 13.4957 13.0221C13.3338 13.0221 13.1607 12.9634 13.0658 12.7959H13.0602V12.983H12.6777V10.9785H13.0686V11.6904ZM13.3868 11.7965C13.1188 11.7965 13.0518 12.0366 13.0518 12.2739C13.0518 12.4944 13.1495 12.701 13.398 12.701C13.6493 12.701 13.7191 12.4274 13.7191 12.2515C13.7191 12.017 13.6353 11.7965 13.3868 11.7965Z" fill="currentColor"/>
<path d="M15.5693 12.6929C15.5693 12.8688 15.6084 12.9079 15.6559 12.9246V12.9833H15.2343C15.212 12.9134 15.2064 12.8911 15.198 12.8074C15.1087 12.8995 14.9831 13.0223 14.7179 13.0223C14.4945 13.0223 14.2656 12.8967 14.2656 12.5896C14.2656 12.2993 14.4499 12.1513 14.6983 12.115L15.0501 12.062C15.1115 12.0536 15.1869 12.0285 15.1869 11.9447C15.1869 11.78 15.0305 11.7717 14.9301 11.7717C14.7346 11.7717 14.7012 11.8917 14.6899 11.9782H14.3131C14.3578 11.5232 14.6732 11.459 14.9775 11.459C15.1869 11.459 15.5694 11.5232 15.5694 11.8889L15.5693 12.6929ZM15.1869 12.2602C15.1478 12.2909 15.0836 12.316 14.9217 12.3411C14.7765 12.3663 14.6564 12.4026 14.6564 12.5645C14.6564 12.7013 14.7626 12.7432 14.8379 12.7432C15.011 12.7432 15.1869 12.6315 15.1869 12.4501L15.1869 12.2602Z" fill="currentColor"/>
<path d="M17.2334 12.9833H16.8426V12.0815C16.8426 11.9727 16.837 11.7884 16.5886 11.7884C16.4155 11.7884 16.2815 11.9057 16.2815 12.1318V12.9833H15.8906V11.4981H16.2647V11.7158H16.2703C16.3233 11.6265 16.435 11.459 16.717 11.459C17.0073 11.459 17.2334 11.6293 17.2334 11.9559V12.9833Z" fill="currentColor"/>
<path d="M17.9699 12.983H17.5791V10.9785H17.9699V12.0617L18.4613 11.4978H18.9415L18.4166 12.0729L18.9554 12.983H18.4864L18.1319 12.3464L17.9699 12.514V12.983Z" fill="currentColor"/>
<path d="M20.3686 12.5478C20.2654 12.9051 19.9694 13.0223 19.7154 13.0223C19.2966 13.0223 18.9756 12.8214 18.9756 12.21C18.9756 12.0313 19.037 11.459 19.6875 11.459C19.9806 11.459 20.3854 11.5986 20.3854 12.277V12.3468H19.3664C19.3776 12.4584 19.3999 12.7097 19.7154 12.7097C19.8243 12.7097 19.9359 12.6539 19.9667 12.5478L20.3686 12.5478ZM19.9834 12.0927C19.9611 11.8526 19.8075 11.78 19.6819 11.78C19.4976 11.78 19.3999 11.8973 19.3776 12.0927H19.9834Z" fill="currentColor"/>
<path d="M21.961 12.9833H21.5701V12.0815C21.5701 11.9727 21.5645 11.7884 21.3161 11.7884C21.143 11.7884 21.009 11.9057 21.009 12.1318V12.9833H20.6182V11.4981H20.9922V11.7158H20.9978C21.0509 11.6265 21.1625 11.459 21.4445 11.459C21.7348 11.459 21.961 11.6293 21.961 11.9559V12.9833Z" fill="currentColor"/>
</g>
</g>
</g>
<defs>
<filter id="filter0_d_3396_61508" x="-6" y="-5" width="36" height="36" filterUnits="userSpaceOnUse" color-interpolation-filters="sRGB">
<feFlood flood-opacity="0" result="BackgroundImageFix"/>
<feColorMatrix in="SourceAlpha" type="matrix" values="0 0 0 0 0 0 0 0 0 0 0 0 0 0 0 0 0 0 127 0" result="hardAlpha"/>
<feOffset dy="1"/>
<feGaussianBlur stdDeviation="3"/>
<feComposite in2="hardAlpha" operator="out"/>
<feColorMatrix type="matrix" values="0 0 0 0 0 0 0 0 0 0 0 0 0 0 0 0 0 0 0.08 0"/>
<feBlend mode="normal" in2="BackgroundImageFix" result="effect1_dropShadow_3396_61508"/>
<feBlend mode="normal" in="SourceGraphic" in2="effect1_dropShadow_3396_61508" result="shape"/>
</filter>
<clipPath id="clip0_3396_61508">
<rect width="24" height="24" fill="currentColor"/>
</clipPath>
<clipPath id="clip1_3396_61508">
<path d="M0 12C0 5.37258 5.37258 0 12 0C18.6274 0 24 5.37258 24 12C24 18.6274 18.6274 24 12 24C5.37258 24 0 18.6274 0 12Z" fill="currentColor"/>
</clipPath>
</defs>
</svg>
