<svg width="241" height="40" viewBox="0 0 241 40" fill="none" xmlns="http://www.w3.org/2000/svg">
<g clip-path="url(#clip0_3396_49671)">
<path d="M0 0H240.033V40H0V0Z" fill="#004C8F"/>
<path d="M40.0088 0H240.034V40H40.0088V0Z" fill="#004C8F"/>
<path d="M52.7318 29.4668V10.541H58.9512V16.9276H64.8029V10.541H70.9972V29.4668H64.7527V22.1189H58.9011V29.4668H52.6816" fill="white"/>
<path d="M80.8777 15.2394H82.491C83.3588 15.1962 84.2268 15.3182 85.049 15.5988C85.4575 15.7815 85.8096 16.0701 86.0689 16.4348C86.3614 16.8913 86.5735 17.3946 86.6959 17.9228C86.8419 18.556 86.9149 19.2039 86.9132 19.8538C86.9448 20.8044 86.7826 21.7515 86.4367 22.6375C86.1769 23.3133 85.6968 23.8817 85.0741 24.2509C84.2553 24.6364 83.3525 24.8089 82.4493 24.7525H80.8777V15.2394ZM83.2852 29.4505C84.5231 29.4787 85.7594 29.3466 86.9634 29.0576C87.8274 28.862 88.6524 28.5229 89.4043 28.0544C90.0744 27.5997 90.6624 27.0343 91.1431 26.3826C91.7284 25.5404 92.1796 24.6127 92.4806 23.6323C92.863 22.4072 93.0464 21.1287 93.024 19.8455C93.0795 18.0026 92.6653 16.1759 91.8202 14.5372C91.0808 13.1629 89.9041 12.0745 88.4764 11.4442C86.8847 10.799 85.1778 10.4861 83.4607 10.5247H74.792V29.4588H83.2852" fill="white"/>
<path d="M95.875 29.4668V10.541H110.638V15.2056H102.019V18.2401H108.916V22.7792H102.019V29.4668H95.875Z" fill="white"/>
<path d="M131.495 17.7722H125.643C125.581 16.935 125.219 16.1484 124.623 15.5569C124.024 15.025 123.242 14.7463 122.441 14.7795C121.926 14.7664 121.414 14.8746 120.948 15.0953C120.482 15.316 120.074 15.643 119.758 16.0501C119.064 16.8861 118.713 18.2904 118.713 20.2298C118.669 21.2492 118.819 22.2677 119.156 23.2309C119.404 23.8564 119.835 24.3925 120.393 24.769C120.991 25.1246 121.68 25.2962 122.374 25.2622C122.787 25.2891 123.201 25.2327 123.592 25.0962C123.983 24.9598 124.342 24.7462 124.648 24.4681C125.269 23.8501 125.634 23.0198 125.668 22.1442H131.653C131.56 23.1623 131.321 24.1617 130.943 25.1118C130.541 26.0071 129.974 26.8183 129.271 27.5026C128.462 28.3206 127.487 28.9561 126.412 29.3667C125.186 29.8247 123.883 30.0432 122.575 30.0104C121.22 30.0285 119.872 29.8165 118.588 29.3835C117.441 29.0007 116.388 28.3829 115.495 27.5694C114.675 26.7981 114.009 25.8792 113.53 24.861C112.852 23.3772 112.515 21.7605 112.544 20.1295C112.531 18.7297 112.772 17.3391 113.254 16.025C113.69 14.834 114.364 13.7446 115.235 12.8234C116.029 12.0016 116.978 11.3453 118.027 10.8923C119.391 10.324 120.856 10.0396 122.333 10.0564C123.647 10.0457 124.955 10.2519 126.203 10.6666C127.317 11.0157 128.329 11.6296 129.154 12.4556C129.932 13.232 130.544 14.1593 130.951 15.1807C131.277 16.0187 131.477 16.9005 131.545 17.7972" fill="white"/>
<path d="M151.439 14.7967C152.019 14.7711 152.6 14.8132 153.17 14.9221C153.515 15.0188 153.822 15.2203 154.048 15.4989C154.271 15.7785 154.389 16.1275 154.382 16.4853C154.389 16.7124 154.342 16.938 154.246 17.144C154.151 17.35 154.008 17.5309 153.83 17.6724C153.224 18.0407 152.514 18.202 151.807 18.1321H149.458V14.7883L151.439 14.7967ZM153.003 29.4675C154.046 29.4947 155.09 29.4276 156.121 29.2669C156.757 29.1101 157.376 28.8889 157.968 28.6065C158.483 28.3677 158.954 28.0457 159.364 27.6536C159.857 27.1894 160.234 26.617 160.468 25.9817C160.735 25.2798 160.868 24.5341 160.861 23.7831C160.902 22.7669 160.609 21.7652 160.025 20.9325C159.45 20.1683 158.634 19.6205 157.709 19.3777C158.449 18.9982 159.073 18.4258 159.514 17.7209C159.956 17.0161 160.199 16.205 160.217 15.3735C160.242 14.5969 160.054 13.8281 159.674 13.1504C159.294 12.4727 158.736 11.9117 158.06 11.5282C156.946 10.8483 155.221 10.5111 152.886 10.5167H143.439V29.4425L153.003 29.4675ZM152 21.5344C152.839 21.4411 153.687 21.6043 154.432 22.0026C154.619 22.1681 154.769 22.3714 154.871 22.5991C154.974 22.8268 155.027 23.0736 155.027 23.3234C155.027 23.5731 154.974 23.8199 154.871 24.0476C154.769 24.2753 154.619 24.4786 154.432 24.6441C153.704 25.0548 152.863 25.2217 152.033 25.1206H149.525V21.5344H152.033" fill="white"/>
<path d="M174.537 23.1053H170.575L172.531 16.2171L174.537 23.1053ZM168.686 29.4668L169.405 26.959H175.599L176.326 29.4668H182.512L175.724 10.541H169.405L162.608 29.4668H168.686Z" fill="white"/>
<path d="M185.162 29.4668V10.541H190.964L197.509 20.6727V10.541H203.469V29.4668H197.551L191.147 19.5776V29.4668H185.162Z" fill="white"/>
<path d="M207.624 29.4668V10.541H213.651V16.7772L219.285 10.541H226.591L219.661 17.6633L227.318 29.4668H219.87L215.314 21.9433L213.642 23.5734V29.4835H207.615" fill="white"/>
<path d="M0 0H40V40H0V0Z" fill="#ED232A"/>
<path d="M7.00488 7.00488H33.0028V33.0028H7.00488V7.00488Z" fill="white"/>
<path d="M17.998 0H22.0022V40H17.998V0Z" fill="white"/>
<path d="M0 18.0059H40V22.0017H0V18.0059Z" fill="white"/>
<path d="M14.002 14.002H26.0061V26.0061H14.002V14.002Z" fill="#004C8F"/>
</g>
<defs>
<clipPath id="clip0_3396_49671">
<rect width="240.033" height="40" fill="white"/>
</clipPath>
</defs>
</svg>
