<svg width="24" height="24" viewBox="0 0 24 24" fill="none" xmlns="http://www.w3.org/2000/svg">
<g clip-path="url(#clip0_3396_70366)">
<g clip-path="url(#clip1_3396_70366)">
<circle cx="12" cy="12" r="12" fill="white"/>
<path d="M3 12.9951C8.93525 12.9951 14.8705 12.9951 20.9856 12.9951C20.9856 13.6707 20.9856 14.3462 20.9856 15.0423C15.0504 15.0423 9.11511 15.0423 3 15.0423C3 14.3667 3 13.6911 3 12.9951Z" fill="#385436"/>
<path d="M3 7.82812C3.46646 7.82812 3.93291 7.82812 4.4135 7.82812C4.43763 8.52781 4.43763 8.52781 4.46224 9.24163C4.62309 9.17729 4.78394 9.11295 4.94966 9.04666C5.2645 8.9963 5.60025 9.02228 5.87575 9.19289C6.09896 9.38527 6.21251 9.58485 6.26568 9.87527C6.27874 10.0819 6.27703 10.288 6.2752 10.495C6.27506 10.554 6.27492 10.613 6.27478 10.6739C6.27424 10.8616 6.27301 11.0493 6.27177 11.237C6.27128 11.3646 6.27084 11.4922 6.27044 11.6198C6.26945 11.9319 6.26754 12.2439 6.26568 12.556C5.79922 12.556 5.33277 12.556 4.85218 12.556C4.83609 11.8966 4.82001 11.2371 4.80343 10.5576C4.58522 10.5057 4.58522 10.5057 4.46224 10.5089C4.44616 11.1845 4.43007 11.86 4.4135 12.556C3.94705 12.556 3.48059 12.556 3 12.556C3 10.9958 3 9.43562 3 7.82812Z" fill="#E37825"/>
<path d="M17.1922 9.30633C17.6023 9.58899 17.853 9.97536 17.9635 10.4605C18.0188 10.9561 17.9701 11.4026 17.6716 11.8119C17.3194 12.2243 16.9653 12.4715 16.4153 12.5257C15.9091 12.5343 15.4895 12.465 15.0694 12.1543C14.6484 11.7132 14.4766 11.2781 14.4826 10.6729C14.5004 10.1709 14.6743 9.85753 15.0211 9.49539C15.6281 8.93142 16.4912 8.88096 17.1922 9.30633Z" fill="#D82726"/>
<path d="M9.61309 9.40199C9.88135 9.60115 10.0536 9.83346 10.1989 10.1325C10.2202 10.1759 10.2414 10.2193 10.2632 10.264C10.2869 10.3131 10.2869 10.3131 10.3111 10.3633C10.1396 10.4561 9.96802 10.5488 9.79642 10.6415C9.70996 10.6881 9.62354 10.7349 9.53712 10.7817C9.21282 10.9567 8.88697 11.1266 8.55639 11.2894C8.42771 11.0803 8.29903 10.8712 8.16646 10.6557C8.28981 10.5324 8.36045 10.4762 8.51069 10.4029C8.54443 10.3861 8.57817 10.3693 8.61294 10.3521C8.70261 10.3146 8.70261 10.3146 8.8001 10.3146C8.8001 10.2824 8.8001 10.2502 8.8001 10.2171C8.43214 10.1913 8.43214 10.1913 8.11771 10.3633C8.0061 10.5546 7.99727 10.73 8.02023 10.9482C8.11262 11.1404 8.18814 11.2242 8.37056 11.3351C8.59862 11.3986 8.76825 11.4089 8.99506 11.3381C9.11519 11.2666 9.2245 11.1899 9.33416 11.1032C9.43373 11.0457 9.43373 11.0457 9.52825 11.0579C9.70546 11.1223 9.80903 11.2652 9.93333 11.4021C9.96035 11.4305 9.98737 11.4588 10.0152 11.4881C10.0535 11.5297 10.0535 11.5297 10.0925 11.5721C10.1158 11.5973 10.139 11.6226 10.163 11.6485C10.2136 11.7281 10.2136 11.7281 10.2136 11.923C9.75104 12.3904 8.993 12.5307 8.36142 12.5567C7.87265 12.5321 7.4046 12.3396 7.07149 11.975C6.75881 11.5541 6.66138 11.0951 6.72592 10.58C6.82317 10.0602 7.00621 9.61944 7.43533 9.29098C8.14444 8.89624 8.93876 8.97181 9.61309 9.40199Z" fill="#E37825"/>
<path d="M19.4095 9.04034C19.4502 9.04029 19.4909 9.04024 19.5329 9.0402C19.6187 9.04016 19.7045 9.04025 19.7903 9.04046C19.9222 9.04072 20.0541 9.04046 20.186 9.04015C20.2694 9.04018 20.3527 9.04024 20.4361 9.04034C20.4757 9.04024 20.5154 9.04014 20.5562 9.04004C20.8336 9.04121 20.8336 9.04121 20.8879 9.09555C20.8921 9.17523 20.8931 9.25509 20.8927 9.33488C20.8925 9.3831 20.8923 9.43133 20.8922 9.48101C20.8916 9.55711 20.8916 9.55711 20.8909 9.63476C20.8907 9.68568 20.8905 9.7366 20.8903 9.78907C20.8897 9.91534 20.8889 10.0416 20.8879 10.1679C20.8368 10.1708 20.7857 10.1738 20.7331 10.1768C20.6659 10.1809 20.5987 10.1851 20.5315 10.1892C20.4978 10.1911 20.4642 10.193 20.4295 10.195C20.28 10.2044 20.1534 10.2177 20.0106 10.2653C20.0136 10.3582 20.0136 10.3582 20.0593 10.4603C20.1857 10.5486 20.1857 10.5486 20.3396 10.6248C20.6361 10.79 20.8012 10.9165 20.9519 11.2249C21.0257 11.5806 21.0273 11.8992 20.8616 12.227C20.7295 12.3856 20.5939 12.4924 20.3889 12.5245C20.2589 12.53 20.1303 12.5294 20.0003 12.5265C19.9531 12.5262 19.9059 12.5259 19.8573 12.5257C19.7073 12.5246 19.5574 12.5221 19.4074 12.5196C19.3054 12.5187 19.2034 12.5178 19.1014 12.517C18.852 12.5148 18.6027 12.5115 18.3533 12.5075C18.3519 12.3216 18.3511 12.1358 18.3503 11.95C18.3499 11.8969 18.3495 11.8439 18.3491 11.7892C18.3489 11.7388 18.3487 11.6883 18.3486 11.6364C18.3483 11.5897 18.3481 11.543 18.3478 11.4948C18.3533 11.3864 18.3533 11.3864 18.4021 11.3377C18.471 11.33 18.5402 11.3254 18.6094 11.3222C18.6511 11.3202 18.6927 11.3182 18.7356 11.3161C18.7793 11.3141 18.8231 11.3122 18.8682 11.3102C18.9341 11.3071 18.9341 11.3071 19.0014 11.3039C19.1103 11.2987 19.2192 11.2937 19.3282 11.2889C19.2193 11.0711 19.1 10.9799 18.8925 10.8563C18.612 10.6767 18.4688 10.544 18.3747 10.2197C18.3093 9.91127 18.3341 9.65034 18.4895 9.37467C18.7297 9.03103 19.0246 9.03937 19.4095 9.04034Z" fill="#E37825"/>
<path d="M10.7012 7.82812C11.1515 7.82812 11.6019 7.82812 12.0659 7.82812C12.0659 9.38834 12.0659 10.9486 12.0659 12.556C11.6156 12.556 11.1652 12.556 10.7012 12.556C10.7012 10.9958 10.7012 9.43562 10.7012 7.82812Z" fill="#E37825"/>
<path d="M12.6504 9.04688C13.1008 9.04688 13.5511 9.04688 14.0152 9.04688C14.0152 10.1889 14.0152 11.3309 14.0152 12.5075C13.5648 12.5075 13.1144 12.5075 12.6504 12.5075C12.6504 11.3655 12.6504 10.2235 12.6504 9.04688Z" fill="#E37825"/>
<path d="M16.6841 9.92791C16.9363 10.0827 17.0891 10.2749 17.1837 10.5585C17.2219 10.8759 17.1749 11.1248 16.9887 11.3871C16.7667 11.6267 16.5401 11.7309 16.218 11.7496C15.9502 11.744 15.7774 11.6559 15.5752 11.4846C15.3275 11.2173 15.2574 11.0078 15.2641 10.6474C15.3017 10.3701 15.4504 10.1921 15.6483 10.0041C15.9851 9.78519 16.32 9.74344 16.6841 9.92791Z" fill="#E27625"/>
<path d="M13.6254 7.32448C13.8127 7.4171 13.9377 7.53729 14.0325 7.72812C14.1173 7.99259 14.1052 8.23165 13.9855 8.48038C13.8219 8.66123 13.6983 8.78745 13.4478 8.82023C13.1963 8.82801 12.9943 8.83005 12.7974 8.65706C12.5725 8.40096 12.536 8.25025 12.5404 7.91433C12.5594 7.72251 12.6164 7.62631 12.7487 7.48727C13.0247 7.28159 13.2905 7.21327 13.6254 7.32448Z" fill="#E37825"/>
<path d="M8.94649 15.3828C9.01082 15.3828 9.07516 15.3828 9.14145 15.3828C9.14145 15.4472 9.14145 15.5115 9.14145 15.5778C9.25404 15.6099 9.36664 15.6421 9.48264 15.6753C9.46656 15.7235 9.45047 15.7718 9.4339 15.8215C9.32131 15.8215 9.20872 15.8215 9.09271 15.8215C9.06101 15.9057 9.02958 15.99 8.99827 16.0743C8.98074 16.1213 8.96321 16.1682 8.94515 16.2166C8.90205 16.3448 8.87212 16.4682 8.849 16.6013C9.04919 16.4985 9.13181 16.407 9.23893 16.2114C9.32423 16.0774 9.32423 16.0774 9.4339 15.9677C9.61668 15.9281 9.61668 15.9281 9.77509 15.919C9.79337 16.05 9.79337 16.05 9.77509 16.2114C9.68622 16.3073 9.58791 16.3762 9.48264 16.4551C9.48264 16.4873 9.48264 16.5195 9.48264 16.5526C9.66556 16.5422 9.72371 16.5064 9.85734 16.3759C9.98026 16.2167 10.0246 16.0653 10.0675 15.8702C10.1319 15.8541 10.1962 15.8381 10.2625 15.8215C10.2665 15.8516 10.2705 15.8818 10.2747 15.9129C10.3021 16.0254 10.3021 16.0254 10.4118 16.0774C10.4585 16.0955 10.4585 16.0955 10.5062 16.1139C10.4815 16.2952 10.4518 16.4422 10.36 16.6013C10.5369 16.4716 10.6548 16.3831 10.7316 16.1749C10.7987 16.0165 10.7987 16.0165 10.9053 15.9708C10.9344 15.9698 10.9636 15.9687 10.9936 15.9677C11.0178 16.016 11.0178 16.016 11.0424 16.0652C11.0745 16.033 11.1067 16.0009 11.1399 15.9677C11.2678 15.9616 11.2678 15.9616 11.3836 15.9677C11.4077 16.016 11.4077 16.016 11.4323 16.0652C11.4806 16.033 11.5288 16.0009 11.5785 15.9677C11.7095 15.986 11.7095 15.986 11.8222 16.0165C11.8154 16.0957 11.8082 16.1749 11.8009 16.2541C11.795 16.3202 11.795 16.3202 11.7889 16.3877C11.7735 16.5039 11.7735 16.5039 11.7248 16.6013C11.771 16.5642 11.8172 16.527 11.8649 16.4886C11.8909 16.4677 11.9169 16.4468 11.9437 16.4252C12.0295 16.3517 12.0295 16.3517 12.1147 16.2114C12.1469 16.2114 12.179 16.2114 12.2122 16.2114C12.1689 16.4416 12.049 16.5983 11.871 16.7476C11.7095 16.7719 11.7095 16.7719 11.5785 16.7476C11.5624 16.7315 11.5464 16.7154 11.5298 16.6988C11.534 16.6015 11.534 16.6015 11.5481 16.4825C11.5547 16.4238 11.5547 16.4238 11.5614 16.3639C11.5785 16.2602 11.5785 16.2602 11.6273 16.1627C11.4226 16.3452 11.331 16.4961 11.2373 16.7476C11.1891 16.7476 11.1408 16.7476 11.0911 16.7476C11.1233 16.5546 11.1555 16.3615 11.1886 16.1627C10.9998 16.3467 10.9998 16.3467 10.9083 16.5648C10.8782 16.6553 10.8782 16.6553 10.8474 16.7476C10.7831 16.7476 10.7187 16.7476 10.6524 16.7476C10.6524 16.6993 10.6524 16.6511 10.6524 16.6013C10.5982 16.6511 10.5982 16.6511 10.5428 16.7019C10.4087 16.7963 10.4087 16.7963 10.2991 16.7872C10.2138 16.7476 10.2138 16.7476 10.165 16.6988C10.1835 16.4991 10.1988 16.3801 10.3112 16.2114C10.0935 16.284 10.0537 16.4463 9.95045 16.6427C9.92475 16.6773 9.89905 16.7119 9.87257 16.7476C9.80824 16.7476 9.7439 16.7476 9.67761 16.7476C9.62031 16.7506 9.563 16.7536 9.50397 16.7567C9.33642 16.7476 9.33642 16.7476 9.24198 16.6745C9.22489 16.6503 9.2078 16.6262 9.19019 16.6013C9.1721 16.6255 9.154 16.6496 9.13536 16.6745C9.00756 16.7767 8.91049 16.7582 8.75152 16.7476C8.61251 16.4696 8.72638 16.1065 8.80026 15.8215C8.71984 15.8215 8.63941 15.8215 8.55655 15.8215C8.54047 15.7732 8.52438 15.725 8.50781 15.6753C8.62041 15.6753 8.733 15.6753 8.849 15.6753C8.88117 15.5788 8.91334 15.4822 8.94649 15.3828ZM9.53138 16.0652C9.49921 16.1295 9.46704 16.1939 9.4339 16.2602C9.48215 16.2441 9.53041 16.228 9.58013 16.2114C9.59621 16.1632 9.61229 16.1149 9.62887 16.0652C9.5967 16.0652 9.56453 16.0652 9.53138 16.0652Z" fill="black"/>
<path d="M18.9873 13.4338C19.6483 13.4138 19.6483 13.4138 19.8647 13.58C20.0079 13.7283 20.0319 13.8358 20.0322 14.04C20.0271 14.2213 20.0171 14.3002 19.9256 14.4604C19.7151 14.6417 19.5701 14.664 19.2919 14.6584C19.1411 14.6554 19.1411 14.6554 18.9873 14.6523C18.9873 14.2502 18.9873 13.8481 18.9873 13.4338Z" fill="#F8F9F8"/>
<path d="M5.72969 15.335C5.79403 15.335 5.85837 15.335 5.92465 15.335C5.86032 15.5923 5.79598 15.8497 5.72969 16.1148C5.94683 16.0907 5.94683 16.0907 6.16836 16.0661C6.17835 16.0215 6.18834 15.9769 6.19864 15.9309C6.21833 15.844 6.21833 15.844 6.23843 15.7554C6.25143 15.6977 6.26444 15.64 6.27784 15.5806C6.31459 15.4324 6.31459 15.4324 6.36333 15.335C6.44375 15.335 6.52418 15.335 6.60704 15.335C6.58488 15.4193 6.5625 15.5036 6.54002 15.5878C6.52136 15.6582 6.52136 15.6582 6.50232 15.73C6.46336 15.8624 6.41679 15.9877 6.36333 16.1148C6.41158 16.1148 6.45984 16.1148 6.50955 16.1148C6.49432 16.2093 6.49432 16.2093 6.46081 16.3098C6.41256 16.3259 6.3643 16.342 6.31459 16.3585C6.26402 16.5171 6.26402 16.5171 6.23234 16.7028C6.22008 16.7657 6.20783 16.8286 6.19521 16.8934C6.18635 16.942 6.17749 16.9907 6.16836 17.0409C6.10402 17.0409 6.03968 17.0409 5.9734 17.0409C5.97641 16.9826 5.97943 16.9243 5.98254 16.8642C5.9836 16.6639 5.93105 16.5317 5.82717 16.3585C5.77892 16.3585 5.73066 16.3585 5.68095 16.3585C5.63269 16.5837 5.58444 16.8089 5.53472 17.0409C5.4543 17.0409 5.37388 17.0409 5.29102 17.0409C5.29805 17.0056 5.30509 16.9703 5.31234 16.9339C5.36998 16.6346 5.36998 16.6346 5.3885 16.3311C5.3885 16.2123 5.3885 16.2123 5.48598 16.1148C5.52294 15.992 5.55612 15.8707 5.58651 15.7462C5.6751 15.3895 5.6751 15.3895 5.72969 15.335ZM5.9734 16.261C5.98948 16.2932 6.00557 16.3254 6.02214 16.3585C6.05431 16.3585 6.08648 16.3585 6.11962 16.3585C6.11962 16.3264 6.11962 16.2942 6.11962 16.261C6.07137 16.261 6.02311 16.261 5.9734 16.261Z" fill="black"/>
<path d="M12.7486 15.3828C12.829 15.3828 12.9094 15.3828 12.9923 15.3828C12.9689 15.6126 12.9451 15.8052 12.8461 16.0165C12.9426 15.9843 13.0391 15.9521 13.1385 15.919C13.1707 15.9511 13.2029 15.9833 13.236 16.0165C13.2099 16.1888 13.2099 16.1888 13.1385 16.2602C13.1365 16.3576 13.1364 16.4551 13.1385 16.5526C13.2604 16.4434 13.334 16.3566 13.4066 16.2084C13.4825 16.0596 13.5283 15.9964 13.6747 15.919C13.8087 15.9098 13.8087 15.9098 13.9184 15.919C13.9367 16.05 13.9367 16.05 13.9184 16.2114C13.8295 16.3073 13.7312 16.3762 13.6259 16.4551C13.6259 16.4873 13.6259 16.5195 13.6259 16.5526C13.8615 16.5324 13.9587 16.4325 14.1134 16.2602C14.1616 16.2762 14.2099 16.2923 14.2596 16.3089C14.2141 16.3639 14.1684 16.4187 14.1225 16.4734C14.097 16.5039 14.0716 16.5345 14.0454 16.5659C13.9173 16.7037 13.8388 16.746 13.6503 16.7628C13.4797 16.7476 13.4797 16.7476 13.3853 16.6745C13.3596 16.6383 13.3596 16.6383 13.3335 16.6013C13.2792 16.6511 13.2792 16.6511 13.2238 16.7019C13.0898 16.7963 13.0898 16.7963 12.9771 16.7841C12.9499 16.7721 12.9228 16.76 12.8948 16.7476C12.8948 16.6672 12.8948 16.5867 12.8948 16.5039C12.8305 16.4717 12.7661 16.4395 12.6998 16.4064C12.6838 16.519 12.6677 16.6316 12.6511 16.7476C12.6029 16.7476 12.5546 16.7476 12.5049 16.7476C12.5324 16.4609 12.5933 16.1937 12.6658 15.9152C12.7083 15.7376 12.7311 15.5644 12.7486 15.3828ZM13.6747 16.0652C13.6425 16.1295 13.6103 16.1939 13.5772 16.2602C13.6254 16.2441 13.6737 16.228 13.7234 16.2114C13.7395 16.1632 13.7556 16.1149 13.7722 16.0652C13.74 16.0652 13.7078 16.0652 13.6747 16.0652ZM12.9436 16.1139C12.8953 16.1863 12.8953 16.1863 12.8461 16.2602C12.8943 16.2602 12.9426 16.2602 12.9923 16.2602C13.0084 16.2119 13.0245 16.1637 13.041 16.1139C13.0089 16.1139 12.9767 16.1139 12.9436 16.1139Z" fill="black"/>
<path d="M3.78027 13.4336C3.8607 13.4336 3.94112 13.4336 4.02398 13.4336C4.08119 13.5522 4.13799 13.6711 4.19458 13.79C4.21085 13.8237 4.22712 13.8573 4.24389 13.892C4.36517 14.1482 4.36517 14.1482 4.36517 14.3109C4.39734 14.3109 4.42951 14.3109 4.46265 14.3109C4.4756 14.2691 4.48854 14.2272 4.50188 14.1841C4.56064 14.0171 4.63191 13.8654 4.71245 13.7078C4.73872 13.6561 4.76498 13.6045 4.79204 13.5513C4.81202 13.5124 4.832 13.4736 4.85259 13.4336C4.91692 13.4336 4.98126 13.4336 5.04755 13.4336C5.04755 13.8357 5.04755 14.2378 5.04755 14.6521C4.98321 14.6521 4.91887 14.6521 4.85259 14.6521C4.8365 14.4269 4.82042 14.2018 4.80384 13.9698C4.70734 14.1949 4.61083 14.4201 4.5114 14.6521C4.44706 14.6521 4.38272 14.6521 4.31643 14.6521C4.21992 14.4269 4.12341 14.2018 4.02398 13.9698C4.0079 14.1949 3.99181 14.4201 3.97524 14.6521C3.9109 14.6521 3.84656 14.6521 3.78027 14.6521C3.78027 14.25 3.78027 13.8479 3.78027 13.4336Z" fill="#F5F7F5"/>
<path d="M7.5819 15.8223C7.68243 15.8436 7.68243 15.8436 7.77687 15.871C7.77687 15.9193 7.77687 15.9675 7.77687 16.0172C7.84121 16.0494 7.90554 16.0816 7.97183 16.1147C7.94711 16.296 7.91743 16.443 7.82561 16.6021C7.87185 16.5649 7.91809 16.5277 7.96574 16.4894C8.00476 16.458 8.00476 16.458 8.04456 16.426C8.13038 16.3524 8.13038 16.3524 8.21554 16.2122C8.24771 16.2122 8.27988 16.2122 8.31302 16.2122C8.26999 16.4443 8.14296 16.5912 7.97183 16.7484C7.83779 16.8001 7.83779 16.8001 7.72812 16.7971C7.69596 16.7649 7.66379 16.7328 7.63064 16.6996C7.64531 16.4979 7.66374 16.3819 7.77687 16.2122C7.58901 16.2748 7.58314 16.3349 7.4966 16.5077C7.42006 16.6415 7.42006 16.6415 7.33819 16.7484C7.16151 16.7788 7.16151 16.7788 6.997 16.7484C6.93266 16.7484 6.86833 16.7484 6.80204 16.7484C6.7208 16.7484 6.63957 16.7484 6.55833 16.7484C6.48816 16.608 6.49483 16.5149 6.50959 16.3584C6.58949 16.1682 6.67622 16.0361 6.85078 15.9197C6.98177 15.9137 6.98177 15.9137 7.09449 15.9197C7.21965 16.1353 7.17823 16.2859 7.11924 16.5147C7.10699 16.558 7.10699 16.558 7.09449 16.6021C7.33679 16.3662 7.44266 16.1968 7.53316 15.871C7.54924 15.8549 7.56533 15.8388 7.5819 15.8223ZM6.85078 16.1147C6.73579 16.3225 6.73579 16.3225 6.70455 16.5534C6.76889 16.5373 6.83323 16.5212 6.89952 16.5046C6.93169 16.3921 6.96386 16.2795 6.997 16.1635C6.94875 16.1474 6.90049 16.1313 6.85078 16.1147Z" fill="black"/>
<path d="M10.8469 13.3848C10.9273 13.3848 11.0077 13.3848 11.0906 13.3848C11.2873 13.7897 11.4244 14.2145 11.5293 14.652C11.4488 14.636 11.3684 14.6199 11.2855 14.6033C11.2695 14.539 11.2534 14.4746 11.2368 14.4083C11.0599 14.4083 10.8829 14.4083 10.7007 14.4083C10.6846 14.4888 10.6685 14.5692 10.6519 14.652C10.5715 14.652 10.4911 14.652 10.4082 14.652C10.4942 14.3544 10.5885 14.0634 10.7007 13.7747C10.7282 13.7016 10.7556 13.6285 10.7829 13.5554C10.804 13.4991 10.8251 13.4428 10.8469 13.3848Z" fill="#EEF0EE"/>
<path d="M16.3099 10.2936C16.4581 10.3268 16.5439 10.4025 16.6478 10.5097C16.7246 10.6632 16.7135 10.7787 16.6966 10.9483C16.6021 11.1159 16.6021 11.1159 16.4529 11.2408C16.2981 11.28 16.1694 11.2773 16.0142 11.2408C15.8649 11.1463 15.8649 11.1463 15.7705 10.9971C15.7368 10.843 15.7365 10.7124 15.7705 10.5584C15.9169 10.3342 16.0523 10.2775 16.3099 10.2936Z" fill="#F9E924"/>
<path d="M15.1857 15.9688C15.25 15.9688 15.3143 15.9688 15.3806 15.9688C15.3552 16.0639 15.3299 16.1591 15.3045 16.2543C15.2766 16.3728 15.2766 16.3728 15.2832 16.5536C15.4956 16.3837 15.5242 16.2257 15.5756 15.9688C15.6399 15.9688 15.7043 15.9688 15.7706 15.9688C15.7636 16.0378 15.7565 16.1069 15.7492 16.1759C15.7453 16.2144 15.7413 16.2528 15.7372 16.2924C15.723 16.3988 15.7013 16.4989 15.6731 16.6024C15.8893 16.4309 15.9422 16.2245 16.0143 15.9688C16.0786 15.9688 16.143 15.9688 16.2092 15.9688C16.1784 16.3111 16.1146 16.6367 16.0356 16.971C16.0242 17.0202 16.0128 17.0693 16.001 17.12C15.9732 17.24 15.9451 17.3599 15.9168 17.4797C15.8525 17.4797 15.7881 17.4797 15.7218 17.4797C15.7474 17.2346 15.7757 16.9914 15.8193 16.7486C15.7731 16.7506 15.7268 16.7526 15.6792 16.7547C15.5269 16.7486 15.5269 16.7486 15.4294 16.6511C15.3972 16.6833 15.365 16.7155 15.3319 16.7486C15.2039 16.7303 15.2039 16.7303 15.0882 16.6999C15.023 16.4393 15.0602 16.2689 15.1369 16.0175C15.153 16.0014 15.1691 15.9853 15.1857 15.9688Z" fill="black"/>
<path d="M17.2812 13.4336C17.525 13.4823 17.525 13.4823 17.6018 13.5595C17.623 13.5919 17.6442 13.6243 17.666 13.6577C17.6894 13.6927 17.7129 13.7277 17.737 13.7638C17.7605 13.8006 17.784 13.8374 17.8083 13.8753C17.8327 13.9123 17.8572 13.9493 17.8824 13.9874C17.9426 14.0785 18.002 14.1703 18.0611 14.2622C18.0772 13.9888 18.0933 13.7153 18.1099 13.4336C18.1581 13.4336 18.2064 13.4336 18.2561 13.4336C18.2561 13.8357 18.2561 14.2378 18.2561 14.6521C18.0124 14.6034 18.0124 14.6034 17.94 14.5263C17.9208 14.4939 17.9017 14.4614 17.882 14.428C17.8501 14.3755 17.8501 14.3755 17.8177 14.3219C17.7965 14.2851 17.7753 14.2483 17.7534 14.2104C17.7202 14.1549 17.7202 14.1549 17.6863 14.0984C17.6318 14.0072 17.5783 13.9154 17.525 13.8235C17.5089 14.097 17.4928 14.3704 17.4762 14.6521C17.4119 14.6521 17.3475 14.6521 17.2812 14.6521C17.2812 14.25 17.2812 13.8479 17.2812 13.4336Z" fill="#FAFBFA"/>
<path d="M11.4137 16.879C11.4523 16.8791 11.4908 16.8791 11.5305 16.8792C12.9988 16.8827 12.9988 16.8827 13.3817 17.138C13.3004 17.131 13.2192 17.1238 13.138 17.1167C13.0701 17.1107 13.0701 17.1107 13.0009 17.1047C12.8917 17.0938 12.7829 17.08 12.6744 17.0639C11.5733 16.925 10.4855 17.0611 9.43133 17.3775C9.25406 17.4293 9.08078 17.4576 8.89746 17.4792C8.89746 17.4148 8.89746 17.3505 8.89746 17.2842C9.05466 17.2368 9.21212 17.1904 9.36964 17.1441C9.41315 17.1309 9.45666 17.1178 9.50149 17.1043C10.1383 16.9185 10.7552 16.8761 11.4137 16.879Z" fill="#E37825"/>
<path d="M15.6243 13.4336C15.6886 13.4336 15.753 13.4336 15.8192 13.4336C15.8205 13.4614 15.8217 13.4892 15.8229 13.5178C15.8286 13.6431 15.8346 13.7683 15.8406 13.8936C15.8425 13.9374 15.8444 13.9811 15.8464 14.0262C15.8484 14.0678 15.8505 14.1095 15.8526 14.1523C15.8544 14.1909 15.8561 14.2294 15.858 14.2691C15.8585 14.3604 15.8585 14.3604 15.9167 14.4084C16.0873 14.4165 16.0873 14.4165 16.2579 14.4084C16.3334 14.3329 16.3172 14.2573 16.3221 14.1523C16.3241 14.1107 16.3262 14.0691 16.3283 14.0262C16.3302 13.9824 16.3321 13.9387 16.3341 13.8936C16.3362 13.8496 16.3383 13.8057 16.3405 13.7604C16.3456 13.6515 16.3506 13.5425 16.3554 13.4336C16.4358 13.4336 16.5162 13.4336 16.5991 13.4336C16.6044 13.5738 16.6083 13.7138 16.6113 13.854C16.6137 13.9131 16.6137 13.9131 16.6162 13.9734C16.6206 14.2396 16.5868 14.3951 16.4041 14.6034C16.2265 14.6626 16.051 14.697 15.868 14.6521C15.7345 14.5606 15.7345 14.5606 15.6243 14.4084C15.595 14.2397 15.6012 14.0763 15.609 13.9058C15.6101 13.8604 15.6112 13.815 15.6124 13.7682C15.6152 13.6566 15.6192 13.5451 15.6243 13.4336Z" fill="#EAEDE9"/>
<path d="M8.84889 13.4336C8.91323 13.4336 8.97757 13.4336 9.04385 13.4336C9.04508 13.4614 9.0463 13.4892 9.04756 13.5178C9.05319 13.6431 9.05918 13.7683 9.06518 13.8936C9.0671 13.9374 9.06901 13.9811 9.07099 14.0262C9.07303 14.0678 9.07507 14.1095 9.07717 14.1523C9.07896 14.1909 9.08075 14.2294 9.08259 14.2691C9.08312 14.3604 9.08312 14.3604 9.14134 14.4084C9.31193 14.4165 9.31193 14.4165 9.48253 14.4084C9.55805 14.3329 9.54182 14.2573 9.54669 14.1523C9.54873 14.1107 9.55078 14.0691 9.55288 14.0262C9.5548 13.9824 9.55671 13.9387 9.55869 13.8936C9.56079 13.8496 9.5629 13.8057 9.56507 13.7604C9.57025 13.6515 9.57522 13.5425 9.58001 13.4336C9.66043 13.4336 9.74086 13.4336 9.82372 13.4336C9.82901 13.5738 9.83286 13.7138 9.8359 13.854C9.83835 13.9131 9.83835 13.9131 9.84085 13.9734C9.84518 14.2396 9.81143 14.3951 9.62875 14.6034C9.45114 14.6626 9.27558 14.697 9.0926 14.6521C8.95913 14.5606 8.95913 14.5606 8.84889 14.4084C8.81963 14.2397 8.82582 14.0763 8.83366 13.9058C8.83476 13.8604 8.83586 13.815 8.83699 13.7682C8.83985 13.6566 8.84385 13.5451 8.84889 13.4336Z" fill="#EAEDE9"/>
<path d="M5.77858 13.4336C5.84292 13.4336 5.90725 13.4336 5.97354 13.4336C5.97476 13.4614 5.97598 13.4892 5.97724 13.5178C5.98288 13.6431 5.98887 13.7683 5.99487 13.8936C5.99678 13.9374 5.9987 13.9811 6.00067 14.0262C6.00272 14.0678 6.00476 14.1095 6.00686 14.1523C6.00865 14.1909 6.01044 14.2294 6.01228 14.2691C6.01281 14.3604 6.01281 14.3604 6.07103 14.4084C6.24162 14.4165 6.24162 14.4165 6.41222 14.4084C6.48774 14.3329 6.47151 14.2573 6.47638 14.1523C6.47842 14.1107 6.48046 14.0691 6.48257 14.0262C6.48448 13.9824 6.4864 13.9387 6.48837 13.8936C6.49048 13.8496 6.49258 13.8057 6.49475 13.7604C6.49994 13.6515 6.50491 13.5425 6.5097 13.4336C6.59012 13.4336 6.67055 13.4336 6.75341 13.4336C6.7587 13.5738 6.76255 13.7138 6.76559 13.854C6.76804 13.9131 6.76804 13.9131 6.77054 13.9734C6.77487 14.2396 6.74112 14.3951 6.55844 14.6034C6.38082 14.6626 6.20527 14.697 6.02228 14.6521C5.88882 14.5606 5.88882 14.5606 5.77858 14.4084C5.74932 14.2397 5.75551 14.0763 5.76334 13.9058C5.76444 13.8604 5.76554 13.815 5.76668 13.7682C5.76954 13.6566 5.77354 13.5451 5.77858 13.4336Z" fill="#EAEDE9"/>
<path d="M19.1816 13.5801C19.5716 13.5801 19.5716 13.5801 19.7178 13.6776C19.8516 13.8783 19.8418 13.9752 19.8153 14.2137C19.7745 14.3429 19.7435 14.3896 19.6355 14.4696C19.5228 14.5062 19.5228 14.5062 19.1816 14.5062C19.1816 14.2006 19.1816 13.8949 19.1816 13.5801Z" fill="#3B5639"/>
<path d="M14.3076 13.4336C14.5489 13.4336 14.7902 13.4336 15.0387 13.4336C15.0387 13.4818 15.0387 13.5301 15.0387 13.5798C14.8618 13.5798 14.6849 13.5798 14.5026 13.5798C14.5026 13.7085 14.5026 13.8372 14.5026 13.9698C14.6313 13.9698 14.7599 13.9698 14.8925 13.9698C14.8925 14.018 14.8925 14.0663 14.8925 14.116C14.7638 14.116 14.6352 14.116 14.5026 14.116C14.5026 14.2929 14.5026 14.4698 14.5026 14.6521C14.4382 14.6521 14.3739 14.6521 14.3076 14.6521C14.3076 14.25 14.3076 13.8479 14.3076 13.4336Z" fill="#FDFEFD"/>
<path d="M16.8428 15.9196C16.8611 16.0505 16.8611 16.0505 16.8428 16.212C16.754 16.3079 16.6557 16.3768 16.5504 16.4557C16.5504 16.4879 16.5504 16.52 16.5504 16.5532C16.7859 16.533 16.8831 16.4331 17.0378 16.2607C17.0861 16.2768 17.1343 16.2929 17.184 16.3095C17.1386 16.3645 17.0928 16.4193 17.0469 16.474C17.0215 16.5045 16.996 16.5351 16.9698 16.5665C16.843 16.7029 16.7604 16.7463 16.5748 16.7695C16.4042 16.7482 16.4042 16.7482 16.3067 16.6446C16.2465 16.4717 16.2522 16.3864 16.3067 16.212C16.4714 15.9729 16.556 15.912 16.8428 15.9196ZM16.5991 16.0658C16.567 16.1301 16.5348 16.1945 16.5016 16.2607C16.5499 16.2447 16.5982 16.2286 16.6479 16.212C16.664 16.1637 16.68 16.1155 16.6966 16.0658C16.6644 16.0658 16.6323 16.0658 16.5991 16.0658Z" fill="black"/>
<path d="M7.38672 13.4336C7.66016 13.4336 7.9336 13.4336 8.21532 13.4336C8.21532 13.4818 8.21532 13.5301 8.21532 13.5798C8.10273 13.5798 7.99014 13.5798 7.87413 13.5798C7.87413 13.9337 7.87413 14.2875 7.87413 14.6521C7.80979 14.6521 7.74546 14.6521 7.67917 14.6521C7.67917 14.2983 7.67917 13.9444 7.67917 13.5798C7.58266 13.5798 7.48615 13.5798 7.38672 13.5798C7.38672 13.5316 7.38672 13.4833 7.38672 13.4336Z" fill="#F6F7F6"/>
<path d="M12.2119 13.4336C12.2763 13.4336 12.3406 13.4336 12.4069 13.4336C12.4069 13.7875 12.4069 14.1413 12.4069 14.5059C12.5356 14.5059 12.6642 14.5059 12.7968 14.5059C12.7968 14.5542 12.7968 14.6024 12.7968 14.6521C12.6038 14.6521 12.4108 14.6521 12.2119 14.6521C12.2119 14.25 12.2119 13.8479 12.2119 13.4336Z" fill="white"/>
<path d="M15.0392 15.3832C15.011 15.7046 14.9516 16.0016 14.8655 16.3123C14.8541 16.3545 14.8427 16.3967 14.831 16.4401C14.8032 16.5428 14.775 16.6454 14.7467 16.7479C14.6824 16.7479 14.618 16.7479 14.5518 16.7479C14.5849 16.4527 14.6345 16.1644 14.6949 15.8736C14.7032 15.8316 14.7115 15.7896 14.72 15.7463C14.7282 15.7065 14.7365 15.6666 14.745 15.6255C14.7524 15.5895 14.7597 15.5534 14.7673 15.5163C14.8164 15.3694 14.893 15.3832 15.0392 15.3832Z" fill="black"/>
<path d="M10.9451 13.6777C11.0425 13.7265 11.0425 13.7265 11.084 13.8485C11.0965 13.8977 11.1089 13.9469 11.1217 13.9976C11.1344 14.0469 11.1471 14.0962 11.1602 14.1471C11.1696 14.1852 11.179 14.2233 11.1888 14.2626C11.0601 14.2626 10.9314 14.2626 10.7988 14.2626C10.8236 14.0522 10.8572 13.8711 10.9451 13.6777Z" fill="#566D54"/>
<path d="M18.2069 16.5537C18.2712 16.5537 18.3355 16.5537 18.4018 16.5537C18.3857 16.618 18.3697 16.6824 18.3531 16.7487C18.2727 16.7326 18.1922 16.7165 18.1094 16.6999C18.1415 16.6517 18.1737 16.6034 18.2069 16.5537Z" fill="black"/>
<path d="M17.8172 16.5537C17.8815 16.5537 17.9459 16.5537 18.0122 16.5537C17.9961 16.618 17.98 16.6824 17.9634 16.7487C17.883 16.7326 17.8026 16.7165 17.7197 16.6999C17.7519 16.6517 17.7841 16.6034 17.8172 16.5537Z" fill="black"/>
<path d="M17.4276 16.5537C17.4919 16.5537 17.5562 16.5537 17.6225 16.5537C17.6064 16.618 17.5904 16.6824 17.5738 16.7487C17.4934 16.7326 17.4129 16.7165 17.3301 16.6999C17.3622 16.6517 17.3944 16.6034 17.4276 16.5537Z" fill="black"/>
<path d="M16.9891 16.5537C17.0534 16.5537 17.1178 16.5537 17.1841 16.5537C17.168 16.618 17.1519 16.6824 17.1353 16.7487C17.0549 16.7326 16.9745 16.7165 16.8916 16.6999C16.9238 16.6517 16.9559 16.6034 16.9891 16.5537Z" fill="black"/>
<path d="M15.3319 15.4805C15.3801 15.4966 15.4284 15.5126 15.4781 15.5292C15.462 15.5935 15.4459 15.6579 15.4293 15.7242C15.365 15.7081 15.3007 15.692 15.2344 15.6754C15.2665 15.6111 15.2987 15.5468 15.3319 15.4805Z" fill="black"/>
</g>
</g>
<defs>
<clipPath id="clip0_3396_70366">
<rect width="24" height="24" fill="white"/>
</clipPath>
<clipPath id="clip1_3396_70366">
<rect width="24" height="24" fill="white"/>
</clipPath>
</defs>
</svg>
