<svg width="16" height="16" viewBox="0 0 16 16" fill="none" xmlns="http://www.w3.org/2000/svg">
<g clip-path="url(#clip0_3396_55299)">
<mask id="mask0_3396_55299" style="mask-type:luminance" maskUnits="userSpaceOnUse" x="0" y="0" width="16" height="16">
<path d="M16 0H0V16H16V0Z" fill="currentColor"/>
</mask>
<g mask="url(#mask0_3396_55299)">
<g filter="url(#filter0_d_3396_55299)">
<path d="M15.75 8C15.75 3.71979 12.2802 0.25 8 0.25C3.71979 0.25 0.25 3.71979 0.25 8C0.25 12.2802 3.71979 15.75 8 15.75C12.2802 15.75 15.75 12.2802 15.75 8Z" fill="currentColor"/>
<path d="M4.04786 2.86045C6.68201 2.86023 9.31613 2.86045 11.9503 2.86045C11.9517 5.20743 11.9505 7.55453 11.9509 9.90153C11.9503 10.9807 11.9521 12.0598 11.95 13.1388C9.31603 13.1385 6.68211 13.1387 4.04818 13.1387C4.04753 9.71268 4.04808 6.28655 4.04786 2.86045ZM4.32843 5.2144C5.70246 5.21495 7.07648 5.21615 8.45048 5.2182C8.66231 5.2194 8.87426 5.21495 9.08598 5.22225C9.62851 5.2218 10.171 5.2229 10.7136 5.22268C10.8034 5.2217 10.8933 5.22628 10.9829 5.2182C11.0869 5.23063 11.1912 5.21398 11.2953 5.2218C11.3562 5.2155 11.4171 5.22768 11.478 5.2204C11.5437 5.21398 11.6099 5.2305 11.6752 5.21615C11.6757 5.1627 11.6673 5.10958 11.6696 5.05613C11.6784 4.93718 11.6726 4.81775 11.6743 4.69858C11.6737 4.48468 11.6754 4.27068 11.6735 4.0568C11.6619 3.9866 11.6814 3.91585 11.6674 3.84608C11.6043 3.85303 11.5408 3.8527 11.4777 3.8478C11.3523 3.84835 11.2267 3.84488 11.1014 3.85053C11.0073 3.84313 10.913 3.85195 10.8188 3.84748C10.7765 3.84663 10.7342 3.85413 10.692 3.84945C10.5915 3.84465 10.4907 3.84825 10.3903 3.8513C10.3222 3.84248 10.254 3.85565 10.1859 3.84858C10.0989 3.84293 10.0121 3.85478 9.92536 3.84815C9.85736 3.85185 9.78926 3.8537 9.72128 3.84858C9.52776 3.85533 9.33391 3.84053 9.14028 3.8515C9.06843 3.85523 8.99666 3.84325 8.92491 3.85053C8.88181 3.8537 8.83881 3.84663 8.79581 3.84738C8.71651 3.84563 8.63733 3.8563 8.55813 3.84978C8.50748 3.84498 8.45663 3.8488 8.40598 3.85075C8.33098 3.8463 8.25578 3.84673 8.18078 3.84858C8.11323 3.85523 8.04568 3.84225 7.97811 3.85053C7.90581 3.84443 7.83351 3.85575 7.76111 3.84978C7.66791 3.84238 7.57458 3.85533 7.48128 3.84748C7.36286 3.8575 7.24413 3.8402 7.12561 3.85098C7.05298 3.84433 6.98046 3.85195 6.90796 3.85053C6.82586 3.84108 6.74373 3.8575 6.66176 3.84815C6.54678 3.84695 6.43181 3.8478 6.31696 3.84793C6.29183 3.85043 6.26673 3.85163 6.24153 3.85195C6.11956 3.8477 5.99758 3.84738 5.87551 3.8477C5.76431 3.85653 5.65311 3.84378 5.54181 3.84738C5.40841 3.85228 5.27533 3.8463 5.14196 3.85108C5.04531 3.8452 4.94821 3.84575 4.85146 3.85098C4.67756 3.84345 4.50333 3.84955 4.32931 3.84715C4.32693 4.3029 4.32866 4.75865 4.32843 5.2144ZM7.38453 6.09108C6.74623 6.2255 6.15553 6.5786 5.73143 7.07888C5.37706 7.4913 5.13743 8.00288 5.04648 8.54125C5.00501 8.77528 4.99756 9.01408 5.00856 9.25125C5.14668 9.24005 5.28548 9.248 5.42351 9.25693C5.69113 9.27988 5.95696 9.33138 6.21146 9.41878C6.58881 9.54658 6.94286 9.75533 7.22183 10.044C7.52826 10.3576 7.73806 10.7587 7.85366 11.1817C7.92123 11.4292 7.96593 11.6841 7.97758 11.9408C7.99373 11.7972 8.00763 11.6531 8.03403 11.5109C8.11248 11.0594 8.28036 10.6171 8.56221 10.2544C8.81511 9.9246 9.15796 9.67088 9.53691 9.50793C9.99733 9.312 10.5032 9.2295 11.0014 9.2554C11.0429 8.6663 10.9051 8.06568 10.6137 7.55378C10.4205 7.21253 10.1602 6.9107 9.85423 6.66818C9.51191 6.39845 9.11186 6.20308 8.68838 6.10478C8.26161 6.0042 7.81336 6.00028 7.38453 6.09108ZM10.5401 9.3785C10.0535 9.42248 9.56751 9.56648 9.16088 9.846C8.82426 10.0739 8.55488 10.3985 8.38248 10.7684C8.18866 11.1796 8.10656 11.6359 8.08683 12.0885C8.49778 12.0788 8.90561 11.9802 9.27831 11.8055C9.45363 11.7205 9.62291 11.6218 9.77903 11.5043C10.3776 11.0649 10.8059 10.3941 10.9492 9.6602C10.967 9.5631 10.9878 9.46558 10.9901 9.36665C10.84 9.36273 10.6897 9.3637 10.5401 9.3785ZM5.01751 9.36435C5.07623 9.95518 5.31176 10.5265 5.68673 10.9839C5.93541 11.2887 6.24303 11.5449 6.58816 11.7308C6.98306 11.9461 7.42688 12.0679 7.87501 12.0871C7.86671 11.8978 7.84753 11.7088 7.81423 11.5222C7.73871 11.1026 7.58721 10.6902 7.33053 10.3482C7.08726 10.0179 6.74903 9.76493 6.37503 9.6047C5.94781 9.42368 5.47973 9.34608 5.01751 9.36435Z" fill="currentColor"/>
<path d="M4.67213 3.98339C4.70875 3.94117 4.76585 3.92702 4.81953 3.92757C4.87578 3.92777 4.92998 3.94344 4.98115 3.96599C5.0515 4.00157 5.11433 4.04969 5.17435 4.10062C5.20495 4.13012 5.23565 4.15974 5.26183 4.19337C5.32638 4.19564 5.39103 4.19282 5.45535 4.19902C6.24505 4.19924 7.03485 4.19914 7.82453 4.19914C7.82453 4.23984 7.82443 4.28067 7.824 4.32147C7.79005 4.32127 7.75613 4.32137 7.72228 4.32192C7.72185 4.51337 7.72303 4.70484 7.72163 4.89632C7.67475 4.86692 7.63005 4.83382 7.5822 4.80607C7.56485 4.73172 7.57758 4.65412 7.57413 4.57837C7.5737 4.56659 7.57338 4.55497 7.57305 4.54319C7.5431 4.54342 7.51315 4.54332 7.48318 4.54332C7.48005 4.57824 7.48415 4.61624 7.46465 4.64727C7.45733 4.65064 7.44258 4.65739 7.43523 4.66077C7.40108 4.65727 7.37295 4.63789 7.34893 4.61462C7.30875 4.56649 7.26295 4.51164 7.26953 4.44437C7.28633 4.42924 7.30433 4.41084 7.3289 4.41214C7.41055 4.41062 7.49235 4.41182 7.57403 4.41194C7.5739 4.38189 7.5739 4.35197 7.5738 4.32202C7.4542 4.32529 7.33513 4.31472 7.21565 4.31582C7.20423 4.50924 7.2221 4.70342 7.20778 4.89674C7.16263 4.86104 7.11383 4.83057 7.06545 4.79977C7.06438 4.64062 7.065 4.48159 7.06523 4.32247C7.03625 4.32202 7.00748 4.32192 6.9786 4.32214C6.97828 4.46984 6.97805 4.61754 6.97828 4.76537C6.97795 4.80847 6.98075 4.85199 6.97193 4.89467C6.92623 4.86027 6.8773 4.83044 6.83023 4.79812C6.83078 4.69884 6.8312 4.59969 6.82958 4.50042C6.7588 4.50804 6.68745 4.50032 6.61678 4.50902C6.59295 4.56257 6.61635 4.61972 6.6434 4.66697C6.66613 4.70517 6.69188 4.74164 6.72065 4.77549C6.72743 4.79922 6.7325 4.82337 6.73615 4.84787C6.7227 4.85712 6.70945 4.86659 6.6963 4.87617C6.69295 4.87694 6.68605 4.87844 6.68273 4.87922C6.60935 4.78747 6.53305 4.69514 6.48855 4.58479C6.4544 4.57857 6.42058 4.57052 6.389 4.55582C6.37778 4.54942 6.3655 4.55104 6.35365 4.55387C6.33878 4.56987 6.32273 4.58467 6.30658 4.59914C6.37618 4.67894 6.4433 4.76427 6.5366 4.81739C6.50223 4.83482 6.4683 4.85287 6.43403 4.87039C6.3528 4.79029 6.27445 4.70627 6.20895 4.61232C6.17263 4.56509 6.14515 4.50652 6.16133 4.44557C6.18858 4.42869 6.21918 4.41934 6.2513 4.41987C6.2513 4.38722 6.2514 4.35457 6.25118 4.32192C6.18125 4.32159 6.11143 4.32169 6.0415 4.32179C6.0416 4.37264 6.0416 4.42347 6.0414 4.47442C5.96015 4.47474 5.87903 4.47419 5.79778 4.47462C5.79163 4.47864 5.77925 4.48659 5.773 4.49052C5.76373 4.52329 5.75865 4.55724 5.76178 4.59132C5.80143 4.61287 5.84593 4.61984 5.89065 4.61897C5.89668 4.57574 5.90918 4.52284 5.95553 4.50729C5.9874 4.49052 6.02115 4.50684 6.05088 4.51992C6.07588 4.55289 6.09248 4.59197 6.08418 4.63419C6.07965 4.64562 6.07533 4.65707 6.07125 4.66869C6.0623 4.68034 6.05335 4.69199 6.0443 4.70354C6.07965 4.74197 6.11273 4.78244 6.14903 4.81989C6.14883 4.82544 6.1485 4.83644 6.14828 4.84189C6.15615 4.85527 6.1638 4.86867 6.17168 4.88204C6.18353 4.94877 6.1638 5.02299 6.10563 5.06197C6.0012 5.13262 5.86555 5.11149 5.75705 5.06209C5.68928 5.02344 5.61203 4.99014 5.5701 4.91982L5.56945 4.89282C5.59413 4.87357 5.6189 4.85429 5.64263 4.83362C5.6536 4.86169 5.65523 4.89869 5.68485 4.91427C5.77633 4.97609 5.8981 4.99959 6.0027 4.96084C6.01295 4.95072 6.02318 4.94072 6.03363 4.93092C6.03473 4.91622 6.03568 4.90152 6.03655 4.88694C6.02568 4.88694 6.0039 4.88717 5.99303 4.88727C5.97975 4.89794 5.9664 4.90872 5.95315 4.91949C5.92718 4.92527 5.90153 4.93234 5.87558 4.93799C5.85295 4.90784 5.82935 4.87824 5.8094 4.84624C5.8065 4.84579 5.80068 4.84514 5.79778 4.84472C5.8553 4.80857 5.91953 4.78202 5.98795 4.77887C5.98225 4.77134 5.97083 4.75622 5.965 4.74872C5.9065 4.75209 5.8455 4.75612 5.79035 4.73204C5.75295 4.70854 5.7146 4.68404 5.68905 4.64682C5.66513 4.61722 5.65803 4.57889 5.64198 4.54527C5.6242 4.54299 5.6063 4.54309 5.58853 4.54234C5.58768 4.57704 5.58508 4.61189 5.5772 4.64574C5.55018 4.65172 5.51978 4.66739 5.49468 4.64747C5.44188 4.60927 5.39975 4.55442 5.37765 4.49247C5.3698 4.47202 5.3795 4.45079 5.38315 4.43064C5.40233 4.42162 5.42195 4.41107 5.4437 4.41172C5.52345 4.40987 5.6034 4.41432 5.68313 4.40932C5.68453 4.40224 5.68723 4.38809 5.68863 4.38102C5.71233 4.36492 5.7356 4.34282 5.7661 4.34337C5.8066 4.34139 5.84723 4.34259 5.88785 4.34269C5.8941 4.33834 5.9065 4.32954 5.91275 4.32517C5.76783 4.31517 5.62258 4.31484 5.47743 4.31679C5.41828 4.32399 5.3586 4.32147 5.29923 4.32202C5.29943 4.36654 5.29933 4.41107 5.29943 4.45557C5.2031 4.45884 5.10645 4.45449 5.01045 4.46069C5.09298 4.48497 5.18308 4.45307 5.26313 4.48714C5.30115 4.52067 5.35665 4.55244 5.35525 4.61057C5.36193 4.66904 5.31808 4.71474 5.27703 4.74892C5.25548 4.76764 5.2266 4.77189 5.19923 4.77352C5.1781 4.74642 5.15593 4.72019 5.13383 4.69384C5.1362 4.68449 5.13878 4.67512 5.14148 4.66587C5.15828 4.61777 5.2154 4.62799 5.24945 4.60047C5.19633 4.58314 5.14073 4.58729 5.08685 4.59762C5.0752 4.60764 5.06368 4.61777 5.05225 4.62799C5.05238 4.64542 5.05248 4.66282 5.05248 4.68034C5.0849 4.74239 5.14718 4.77754 5.20743 4.80694C5.21658 4.82337 5.22605 4.83959 5.23663 4.85527C5.23845 4.87682 5.22325 4.89652 5.20268 4.90087C5.17725 4.89749 5.1557 4.88097 5.13285 4.87029C5.0501 4.82807 4.97058 4.77494 4.91618 4.69734C4.90648 4.66979 4.89515 4.64159 4.89743 4.61177C4.89688 4.57227 4.92588 4.54222 4.94828 4.51304C4.94245 4.50369 4.93665 4.49422 4.93093 4.48474L4.92318 4.48627C4.91488 4.46352 4.90293 4.44142 4.90078 4.41694C4.90218 4.38494 4.918 4.35262 4.94505 4.33509C5.02048 4.31494 5.10075 4.34009 5.17618 4.32007C5.05948 4.31277 4.94215 4.31734 4.82523 4.31614C4.82458 4.50902 4.8263 4.70189 4.82425 4.89467C4.7941 4.87649 4.76445 4.85744 4.73473 4.83839C4.71308 4.82067 4.67493 4.81022 4.6774 4.77569C4.67698 4.62429 4.67838 4.47289 4.67653 4.32147C4.65123 4.32127 4.626 4.32137 4.6008 4.32159C4.60035 4.27934 4.60068 4.23712 4.60113 4.19489C4.61835 4.19434 4.63548 4.19392 4.65273 4.19347C4.61923 4.12827 4.61705 4.03759 4.67213 3.98339ZM4.75983 4.09909C4.75605 4.13109 4.75725 4.16364 4.76943 4.19392C4.88568 4.19499 5.00163 4.19849 5.11788 4.19402C5.06853 4.13459 5.00615 4.08049 4.92888 4.06472C4.87113 4.05447 4.8041 4.05382 4.75983 4.09909ZM6.40753 4.32137C6.40915 4.36664 6.40935 4.41237 6.4002 4.45699C6.43005 4.45829 6.4599 4.45667 6.48963 4.45287C6.50083 4.43674 6.51215 4.42087 6.52348 4.40487C6.55255 4.38864 6.5825 4.37047 6.61678 4.36969C6.6881 4.36817 6.75965 4.37024 6.83108 4.36862C6.83088 4.35314 6.83065 4.33769 6.83055 4.32214C6.76688 4.32234 6.7033 4.32082 6.63995 4.31592C6.56268 4.32377 6.485 4.32224 6.40753 4.32137ZM8.12203 3.94104C8.1745 3.92887 8.22893 3.93312 8.2815 3.92114C8.30735 3.93397 8.33063 3.95129 8.351 3.97187C8.41188 4.04022 8.46598 4.11467 8.51133 4.19457C8.68513 4.19282 8.85903 4.20664 9.03273 4.19532C9.09728 4.19412 9.16193 4.19477 9.22658 4.19489C9.24198 4.19412 9.2575 4.19369 9.2731 4.19327C9.24403 4.16049 9.2173 4.12587 9.19068 4.09127C9.1424 4.09104 9.09823 4.11282 9.05138 4.12109C9.03768 4.06917 9.0226 4.01757 9.0116 3.96499C9.06418 3.96119 9.11655 3.95139 9.16935 3.95369C9.19145 3.95324 9.20728 3.97164 9.22248 3.98537C9.284 4.04762 9.3369 4.11869 9.38118 4.19444C9.39648 4.19434 9.412 4.19424 9.42753 4.19402C9.40478 4.14547 9.40823 4.08984 9.41395 4.03792C9.43765 3.96272 9.51878 3.92452 9.5929 3.92744C9.72243 3.92724 9.83448 4.00517 9.9306 4.08494C9.97025 4.11837 10.0046 4.15767 10.0415 4.19412C10.1113 4.19564 10.1812 4.19292 10.2509 4.19902C10.6337 4.20012 11.0164 4.19762 11.399 4.20022C11.3984 4.24072 11.3986 4.28119 11.3986 4.32179C11.3649 4.32127 11.331 4.32159 11.2973 4.32202C11.296 4.51369 11.2999 4.70527 11.2906 4.89674C11.2444 4.86409 11.1981 4.83154 11.149 4.80347C11.1446 4.72649 11.147 4.64932 11.1473 4.57227C11.1191 4.57129 11.0907 4.57064 11.0626 4.56922C11.0572 4.59862 11.0544 4.63029 11.0309 4.65152C10.9612 4.65892 10.9055 4.60579 10.8681 4.55279C10.8471 4.52437 10.8563 4.48714 10.8575 4.45459C10.8783 4.44567 10.8993 4.43752 10.9206 4.42979C10.9148 4.39397 10.9149 4.35762 10.914 4.32147C10.9054 4.32179 10.8881 4.32234 10.8793 4.32267L10.8805 4.32104C10.8543 4.32169 10.8283 4.32192 10.8022 4.32234C10.7903 4.41172 10.8085 4.50162 10.8001 4.59119C10.7931 4.65684 10.8022 4.72237 10.8027 4.78812L10.7974 4.79464C10.7979 4.82794 10.7972 4.86114 10.7969 4.89434C10.7486 4.86322 10.7008 4.83132 10.6529 4.79987C10.6526 4.76722 10.6525 4.73444 10.6525 4.70189C10.5695 4.73892 10.4671 4.73087 10.3975 4.66947C10.3302 4.60732 10.2783 4.51817 10.2886 4.42314C10.3299 4.42489 10.3713 4.42019 10.411 4.40747C10.4154 4.40149 10.4241 4.38952 10.4285 4.38352C10.4246 4.36307 10.4201 4.34282 10.4158 4.32257C10.4036 4.32214 10.3916 4.32169 10.3796 4.32137C10.3305 4.32179 10.2814 4.32179 10.2324 4.32192C10.2222 4.51304 10.23 4.70442 10.2254 4.89564C10.1793 4.86137 10.1302 4.83177 10.083 4.79909C10.0835 4.69897 10.0825 4.59872 10.083 4.49857C10.0794 4.49607 10.0722 4.49107 10.0685 4.48857C10.0548 4.49292 10.0411 4.49704 10.0274 4.50097C10.0134 4.56932 10.0238 4.63964 10.0193 4.70887C9.97188 4.68002 9.92425 4.65162 9.87673 4.62299C9.87565 4.57727 9.87855 4.53112 9.8696 4.48594L9.82478 4.48759C9.81865 4.49324 9.80658 4.50457 9.80043 4.51022C9.79635 4.56344 9.80345 4.61842 9.8304 4.66532C9.85755 4.72312 9.91648 4.76102 9.93125 4.82544C9.93858 4.84352 9.91885 4.85484 9.91055 4.86799C9.9002 4.86702 9.88988 4.86627 9.87963 4.86549C9.78245 4.78277 9.70335 4.67687 9.654 4.55844C9.64958 4.51142 9.64398 4.45972 9.67083 4.41802C9.71068 4.35707 9.79548 4.33367 9.86218 4.35892C9.88028 4.37232 9.89838 4.38582 9.91595 4.39997C9.96433 4.36492 10.0247 4.36359 10.0818 4.36427C10.0821 4.35032 10.0826 4.33639 10.0831 4.32247C9.99858 4.32039 9.9139 4.32497 9.82963 4.31647C9.76575 4.31202 9.70228 4.32147 9.6385 4.32214C9.62535 4.32202 9.6123 4.32202 9.59928 4.32202C9.5984 4.51369 9.60068 4.70539 9.5983 4.89707C9.55278 4.86432 9.50598 4.83342 9.458 4.80444C9.43883 4.69297 9.4622 4.58022 9.45305 4.46822C9.4483 4.41987 9.45705 4.37154 9.45585 4.32322C9.42408 4.32192 9.39228 4.32169 9.3606 4.32192C9.3592 4.51132 9.36115 4.70059 9.35953 4.88999C9.34045 4.88107 9.3217 4.87159 9.30318 4.86192C9.29263 4.85374 9.28205 4.84579 9.2716 4.83784C9.2507 4.82457 9.23033 4.81064 9.21095 4.79539C9.21363 4.71224 9.20858 4.62887 9.21558 4.54592C9.21008 4.47137 9.21223 4.39659 9.21148 4.32202C9.17538 4.32179 9.13928 4.32179 9.1033 4.32192C9.1034 4.36469 9.10363 4.40737 9.10233 4.45002C9.09835 4.45492 9.09015 4.46472 9.08605 4.46962C9.081 4.47322 9.07075 4.48052 9.06558 4.48409C9.02293 4.50434 8.97853 4.52057 8.93348 4.53439C8.89643 4.54637 8.85978 4.55964 8.82348 4.57389C8.79988 4.58697 8.79373 4.60972 8.79955 4.63529C8.87143 4.68689 8.9684 4.68034 9.04695 4.64879C9.07863 4.63867 9.0978 4.60992 9.1185 4.58577C9.14553 4.63877 9.17733 4.68917 9.20448 4.74229C9.1534 4.76254 9.10373 4.78767 9.0492 4.79737C9.07583 4.85167 9.10363 4.90534 9.1296 4.95999C9.13705 4.97339 9.14483 4.98664 9.15288 4.99972C9.099 5.00157 9.04575 4.99317 8.99253 4.98599C8.98403 4.96292 8.97485 4.94007 8.96518 4.91754C8.95763 4.89869 8.95008 4.87997 8.94265 4.86127C8.9199 4.90469 8.9002 4.94964 8.8823 4.99537C8.82908 4.99874 8.77628 5.00634 8.72315 5.00929C8.7293 4.99654 8.73555 4.98392 8.7419 4.97129C8.76045 4.93549 8.77888 4.89979 8.79763 4.86409C8.81238 4.83579 8.82638 4.80694 8.8392 4.77767C8.7572 4.74142 8.6903 4.66969 8.67318 4.57924C8.67393 4.54309 8.68083 4.50619 8.7044 4.47767C8.73438 4.45962 8.76485 4.44229 8.79675 4.42772C8.8503 4.41182 8.90333 4.39397 8.9558 4.37472C8.95525 4.35499 8.9544 4.33529 8.953 4.31572C8.83468 4.31322 8.7169 4.32094 8.5987 4.32202C8.59775 4.51317 8.6001 4.70442 8.59775 4.89544C8.55205 4.86484 8.50615 4.83427 8.45875 4.80639C8.45595 4.80129 8.45055 4.79117 8.44775 4.78604C8.45228 4.74772 8.454 4.70909 8.44808 4.67089C8.40638 4.67599 8.36383 4.67872 8.32278 4.66817C8.26868 4.63604 8.22148 4.59284 8.18593 4.54049C8.1368 4.47799 8.16233 4.39374 8.15598 4.32072L8.12353 4.32289C8.1134 4.31897 8.1034 4.31494 8.09348 4.31092C8.09358 4.27434 8.0937 4.23777 8.09325 4.20119C8.18958 4.19837 8.28593 4.19934 8.38225 4.19412C8.38893 4.19379 8.40218 4.19337 8.40885 4.19304C8.37103 4.15047 8.3371 4.10477 8.30003 4.06167C8.27815 4.06612 8.25628 4.07124 8.23453 4.07624C8.212 4.08409 8.18915 4.09082 8.16633 4.09757C8.15695 4.06557 8.14778 4.03347 8.13993 4.00102C8.13378 3.98112 8.12795 3.96097 8.12203 3.94104ZM9.56048 4.07417C9.5511 4.08572 9.54163 4.09714 9.53203 4.10847C9.52965 4.13797 9.53375 4.16747 9.54593 4.19457C9.6624 4.19522 9.77878 4.19749 9.89525 4.19304C9.86055 4.15364 9.82188 4.11717 9.77588 4.09182C9.7111 4.05469 9.6304 4.04979 9.56048 4.07417ZM10.5321 4.32179C10.5531 4.37274 10.5585 4.43109 10.535 4.48237C10.5312 4.48737 10.5236 4.49749 10.5198 4.50259C10.5052 4.51337 10.4908 4.52404 10.4764 4.53472C10.4595 4.54267 10.4422 4.55027 10.4256 4.55802C10.4548 4.57389 10.4863 4.58859 10.5205 4.58619C10.5697 4.58924 10.6107 4.55877 10.653 4.53819C10.6526 4.46637 10.6526 4.39442 10.6531 4.32257C10.6127 4.32179 10.5724 4.32137 10.5321 4.32179ZM8.30143 4.40442C8.3024 4.44937 8.30068 4.49444 8.30628 4.53917C8.3551 4.54689 8.40335 4.53677 8.4471 4.51469C8.45035 4.45034 8.4485 4.38602 8.4484 4.32169C8.3998 4.32147 8.35133 4.32137 8.30273 4.32179C8.29928 4.34912 8.29713 4.37689 8.30143 4.40442ZM11.0558 4.32224C11.0557 4.36187 11.0558 4.40159 11.061 4.44099C11.0828 4.43904 11.1047 4.43687 11.1267 4.43447L11.1401 4.44492C11.1474 4.40464 11.1476 4.36359 11.1471 4.32279C11.1166 4.32179 11.0862 4.32159 11.0558 4.32224ZM7.0522 6.31939C7.30778 6.22839 7.5765 6.17397 7.84728 6.16024C8.027 6.15547 8.2077 6.15449 8.38603 6.18114C8.86453 6.24309 9.3257 6.43259 9.71328 6.72234C10.0302 6.95919 10.2991 7.26169 10.4962 7.60662C10.6809 7.92892 10.8034 8.28737 10.8538 8.65634C10.3987 8.66789 9.93868 8.74572 9.5232 8.94022C9.14695 9.11274 8.81528 9.38347 8.5721 9.72122C8.23613 10.1815 8.0603 10.7408 7.97668 11.3012C7.94598 10.898 7.84448 10.4977 7.65805 10.1386C7.45863 9.75127 7.16533 9.41349 6.80975 9.16512C6.46443 8.92272 6.06175 8.77119 5.64888 8.69827C5.48725 8.66844 5.32345 8.65157 5.15958 8.64154C5.2321 8.14704 5.43035 7.67149 5.73593 7.27779C6.07145 6.83967 6.53425 6.50182 7.0522 6.31939ZM6.51798 6.96659C6.51873 7.07969 6.51883 7.19289 6.51775 7.30599C6.56645 7.30719 6.61505 7.30904 6.66353 7.31427C6.6576 7.44367 6.66463 7.57332 6.663 7.70284C6.66105 7.90454 6.66698 8.10644 6.65965 8.30804C6.61258 8.30717 6.56538 8.30727 6.5183 8.30739C6.5184 8.42734 6.51863 8.54729 6.5183 8.66712C6.57358 8.66724 6.62873 8.66757 6.68368 8.67302C6.79133 8.67302 6.89885 8.67289 7.0064 8.67289C7.08333 8.67552 7.15983 8.66494 7.23675 8.66692C7.23698 8.54717 7.23688 8.42744 7.23708 8.30759C7.18828 8.30727 7.13948 8.30759 7.09065 8.30652C7.09065 8.29042 7.09065 8.27429 7.09075 8.25829C7.08905 8.17232 7.101 8.08622 7.09013 8.00044C7.1413 7.99859 7.1927 8.00097 7.24388 7.99674C7.35638 7.99139 7.46885 7.99957 7.58145 8.00119C7.58123 8.03962 7.5806 8.07804 7.57683 8.11624C7.57185 8.17972 7.582 8.24284 7.58188 8.30629C7.53298 8.30794 7.48405 8.30727 7.43513 8.30727C7.43493 8.42689 7.4347 8.54664 7.43523 8.66627C7.67455 8.66692 7.91385 8.66779 8.15328 8.66724C8.15295 8.54739 8.15328 8.42744 8.15318 8.30749C8.10468 8.30717 8.0562 8.30739 8.00783 8.30707C8.00933 7.97377 8.0036 7.64037 8.0117 7.30719C8.0591 7.30772 8.10653 7.30729 8.15393 7.30729C8.15243 7.19344 8.15305 7.07969 8.1537 6.96594C8.13755 6.96572 8.1215 6.96572 8.10543 6.96562C7.88963 6.96572 7.6739 6.96529 7.45808 6.96594C7.45238 6.96637 7.44095 6.96737 7.43535 6.96779C7.4347 7.08099 7.4348 7.19419 7.43513 7.30752C7.4821 7.30837 7.52953 7.30424 7.57595 7.31339C7.57563 7.42179 7.57748 7.53009 7.57478 7.63852C7.41315 7.63829 7.25163 7.63994 7.09013 7.63404C7.09465 7.53347 7.0984 7.43257 7.0913 7.33199C7.09313 7.32579 7.09658 7.31339 7.0983 7.30719C7.14475 7.30804 7.19118 7.30784 7.23763 7.30664C7.23655 7.19332 7.23655 7.08002 7.2373 6.96669C6.99755 6.96484 6.7577 6.96507 6.51798 6.96659ZM8.30423 6.96822C8.3024 7.08164 8.30445 7.19517 8.30338 7.30872C8.35078 7.31459 8.39873 7.31307 8.44645 7.31359C8.44755 7.64537 8.44723 7.97724 8.44668 8.30902C8.39915 8.30934 8.35175 8.30912 8.30435 8.30902C8.30305 8.43059 8.30328 8.55229 8.30413 8.67387C8.35315 8.67354 8.40208 8.67387 8.4511 8.67367C8.64193 8.66627 8.83308 8.67419 9.024 8.66887C9.01655 8.62304 9.01893 8.57667 9.0212 8.53064C9.01505 8.45684 9.03273 8.38292 9.01795 8.30944C8.97088 8.30924 8.9239 8.30957 8.87693 8.30869C8.87745 8.20637 8.87768 8.10417 8.87703 8.00197C8.95763 7.99979 9.03833 7.99989 9.11903 7.99827C9.20178 7.98847 9.28615 7.99924 9.3676 7.97757C9.42828 7.95494 9.48678 7.92642 9.54075 7.89017C9.6038 7.83977 9.65768 7.77849 9.69905 7.70884L9.7026 7.70599C9.72998 7.64559 9.75885 7.58419 9.76575 7.51727C9.77373 7.43289 9.76305 7.34627 9.73503 7.26637C9.69938 7.16307 9.61523 7.08502 9.52093 7.03562C9.50563 7.02919 9.49045 7.02277 9.47548 7.01602C9.40338 6.98674 9.3273 6.96094 9.24843 6.96812C8.9337 6.96812 8.61898 6.96789 8.30423 6.96822Z" fill="currentColor"/>
<path d="M8.87663 7.31332C8.98578 7.31224 9.09503 7.31322 9.20428 7.31257C9.22583 7.31202 9.24738 7.31494 9.2685 7.31932C9.29685 7.33934 9.32313 7.36209 9.34845 7.38602C9.36473 7.43654 9.3643 7.48997 9.35978 7.54234C9.34135 7.58022 9.31258 7.61092 9.281 7.63789C9.26053 7.64834 9.2394 7.65957 9.2157 7.65694C9.10258 7.65577 8.98955 7.65814 8.8764 7.65532C8.8776 7.54137 8.87728 7.42729 8.87663 7.31332ZM5.31445 10.0759C5.53598 10.0498 5.76043 10.0302 5.98293 10.0579C6.2037 10.08 6.42018 10.146 6.61595 10.2513C6.78845 10.342 6.94265 10.4633 7.09285 10.5869C7.26288 10.7289 7.4093 10.9021 7.50713 11.1029C7.63578 11.3641 7.6917 11.6556 7.71315 11.9448C7.2676 11.9016 6.8336 11.7472 6.45703 11.5034C5.938 11.1681 5.52683 10.6609 5.31445 10.0759ZM9.27098 10.2919C9.70273 10.0517 10.2166 10.0082 10.6977 10.079C10.4559 10.7323 9.97155 11.2898 9.36225 11.6174C9.00775 11.8106 8.612 11.9248 8.2103 11.9532C8.29768 11.5248 8.45393 11.1012 8.7263 10.7565C8.87588 10.568 9.06088 10.4079 9.27098 10.2919Z" fill="currentColor"/>
</g>
</g>
</g>
<defs>
<filter id="filter0_d_3396_55299" x="-5.5625" y="-4.59375" width="27.125" height="27.125" filterUnits="userSpaceOnUse" color-interpolation-filters="sRGB">
<feFlood flood-opacity="0" result="BackgroundImageFix"/>
<feColorMatrix in="SourceAlpha" type="matrix" values="0 0 0 0 0 0 0 0 0 0 0 0 0 0 0 0 0 0 127 0" result="hardAlpha"/>
<feOffset dy="0.96875"/>
<feGaussianBlur stdDeviation="2.90625"/>
<feComposite in2="hardAlpha" operator="out"/>
<feColorMatrix type="matrix" values="0 0 0 0 0 0 0 0 0 0 0 0 0 0 0 0 0 0 0.08 0"/>
<feBlend mode="normal" in2="BackgroundImageFix" result="effect1_dropShadow_3396_55299"/>
<feBlend mode="normal" in="SourceGraphic" in2="effect1_dropShadow_3396_55299" result="shape"/>
</filter>
<clipPath id="clip0_3396_55299">
<rect width="16" height="16" fill="currentColor"/>
</clipPath>
</defs>
</svg>
