<svg width="16" height="16" viewBox="0 0 16 16" fill="none" xmlns="http://www.w3.org/2000/svg">
<g clip-path="url(#clip0_3396_52911)">
<path d="M15.5 7.75C15.5 3.46979 12.0302 0 7.75 0C3.46979 0 0 3.46979 0 7.75C0 12.0302 3.46979 15.5 7.75 15.5C12.0302 15.5 15.5 12.0302 15.5 7.75Z" fill="white"/>
<path fill-rule="evenodd" clip-rule="evenodd" d="M8.00446 4.21409C10.0093 4.21409 11.6327 5.80027 11.6327 7.75148C11.6327 8.7203 11.2233 9.64858 10.4977 10.32V5.57947H9.80926V7.52615H8.93941L8.59056 8.19759H9.80926V10.3606H10.4558C9.06966 11.5998 6.93459 11.5998 5.55306 10.3606H6.18569V8.19759H7.20439L7.55326 7.52615H6.18569V5.57947H5.49259V10.311C4.77626 9.64408 4.37156 8.7158 4.37156 7.75148C4.37621 5.79577 5.99961 4.21409 8.00446 4.21409ZM9.64646 5.51638L7.46486 9.72519H7.78119V10.3561H6.41826L8.71614 5.91744C8.44636 6.04362 8.18121 6.21035 7.78584 6.16978C7.22764 6.11572 6.88806 5.80928 6.80899 5.0973C7.14391 5.36317 7.55326 5.55695 7.95329 5.54341C8.35331 5.5299 8.50684 5.37669 8.81849 5.246C9.01384 5.16039 9.44644 5.25954 9.64646 5.51638ZM8.79986 9.61255C9.26969 9.61255 9.65111 9.94149 9.68369 10.3561H9.02781C9.01849 10.2344 8.90686 10.1488 8.78126 10.1578C8.67429 10.1668 8.58591 10.2524 8.57659 10.3561H7.91606C7.95329 9.94149 8.33471 9.61255 8.79986 9.61255ZM12.8654 3.60124L12.9677 3.7139L11.1303 5.246C11.228 5.36317 11.3164 5.48034 11.4001 5.6065L12.4746 4.9531C12.5025 4.99367 12.5304 5.03871 12.5537 5.07928L11.4745 5.73268C11.5211 5.80478 11.5629 5.88138 11.6048 5.95799L13.2049 5.19645C13.2282 5.2415 13.2514 5.28657 13.27 5.33164L11.6699 6.09317C11.7118 6.17879 11.749 6.26443 11.7815 6.35454L12.9723 5.93997C12.991 5.98504 13.0096 6.03459 13.0235 6.07966L11.8327 6.49424C11.856 6.55282 11.8746 6.61591 11.8932 6.67898L14.2329 6.07966L14.2701 6.22386L11.9304 6.82318C11.9676 6.9719 11.9955 7.12061 12.0141 7.26931L13.2747 7.14313C13.2793 7.19271 13.284 7.24226 13.2887 7.29183L12.0281 7.41801C12.0374 7.50363 12.042 7.58924 12.042 7.67485H13.8189V7.82358H12.042C12.042 7.9182 12.0374 8.01283 12.0281 8.10294L13.2887 8.23813C13.284 8.28771 13.2793 8.33728 13.27 8.38684L12.0095 8.25167C12.0002 8.31474 11.9909 8.38233 11.9769 8.44542L14.3492 8.90507L14.3213 9.05377L11.949 8.59412C11.9164 8.74283 11.8746 8.89606 11.8188 9.04026L13.0096 9.46384C12.991 9.50889 12.977 9.55847 12.9584 9.60354L11.7676 9.17545C11.735 9.25656 11.7025 9.33316 11.6653 9.41427L13.2607 10.1758C13.2375 10.2209 13.2189 10.2659 13.1956 10.311L11.5955 9.54946C11.549 9.63507 11.5071 9.71618 11.4559 9.79729L12.5258 10.4552C12.4979 10.5003 12.47 10.5408 12.4421 10.5814L11.3722 9.92347C11.3303 9.98656 11.2885 10.0451 11.242 10.1037L13.1538 11.5457L13.0607 11.6629L11.1443 10.2209C11.0559 10.329 10.9582 10.4327 10.8605 10.5318L11.7397 11.4195L11.6327 11.5232L10.7535 10.6355C10.6884 10.694 10.6233 10.7526 10.5535 10.8067L11.6513 12.1676C11.6094 12.1991 11.5722 12.2306 11.5304 12.2577L10.4326 10.8968C10.3582 10.9554 10.2791 11.0095 10.1953 11.059L10.8652 12.109C10.8233 12.136 10.7814 12.1631 10.7349 12.1856L10.0651 11.1401C9.99069 11.1852 9.91626 11.2258 9.83719 11.2618L10.8977 13.3797L10.7582 13.4473L9.69764 11.3294C9.56739 11.388 9.43714 11.4421 9.29759 11.4871L9.68369 12.6633C9.63716 12.6813 9.58599 12.6948 9.53949 12.7083L9.15339 11.5322C9.06966 11.5547 8.98594 11.5772 8.89756 11.5998L9.26039 13.2941C9.20921 13.3031 9.16269 13.3167 9.11154 13.3257L8.74406 11.6313C8.65101 11.6493 8.55334 11.6629 8.46031 11.6719L8.58591 12.9021C8.53474 12.9066 8.48356 12.9111 8.43706 12.9156L8.31611 11.6854C8.23704 11.6899 8.15796 11.6944 8.07424 11.6944V14.0512H7.92074V11.6944C7.83699 11.6944 7.75326 11.6899 7.66954 11.6809L7.54394 12.9111C7.49279 12.9066 7.44161 12.9021 7.39509 12.8976L7.52069 11.6674C7.43231 11.6584 7.34394 11.6448 7.26021 11.6268L6.90204 13.3257C6.85086 13.3167 6.80434 13.3077 6.75319 13.2986L7.11136 11.5998C7.01831 11.5772 6.92529 11.5547 6.83226 11.5277L6.44151 12.7038C6.39501 12.6903 6.34384 12.6723 6.29731 12.6588L6.68806 11.4826C6.61364 11.4601 6.54386 11.433 6.46944 11.4015L5.51121 13.5645L5.36701 13.5059L6.32524 11.3429C6.19034 11.2843 6.06474 11.2167 5.93916 11.1447L5.26931 12.1946C5.22746 12.1676 5.18094 12.1405 5.13909 12.118L5.80891 11.068C5.73449 11.023 5.66471 10.9734 5.59029 10.9193L4.50181 12.2937C4.45994 12.2622 4.42274 12.2306 4.38086 12.2036L5.46934 10.8292C5.39491 10.7706 5.32049 10.7121 5.25071 10.6445L4.37621 11.5232C4.33901 11.4916 4.30179 11.4556 4.26459 11.4195L5.14374 10.5273C5.08791 10.4732 5.03209 10.4192 4.98094 10.3606L3.14354 11.8927L3.04121 11.7755L4.87859 10.2434C4.78091 10.1308 4.69254 10.0091 4.60879 9.88743L3.53894 10.5453C3.51101 10.5048 3.48311 10.4597 3.45986 10.4192L4.53436 9.76576C4.48786 9.69366 4.44599 9.61705 4.40414 9.54045L2.80399 10.2975C2.78074 10.2524 2.75746 10.2074 2.73886 10.1623L4.33901 9.40526C4.29714 9.31965 4.25994 9.23401 4.22736 9.14389L3.03656 9.55847C3.01796 9.5134 2.99936 9.46835 2.98539 9.41877L4.17621 8.99969C4.15294 8.9366 4.13434 8.87802 4.11574 8.81493L1.77598 9.42778L1.73412 9.27908L4.07386 8.67976C4.03666 8.53103 4.00874 8.38233 3.99014 8.23363L2.72956 8.35981C2.72491 8.31023 2.72026 8.26068 2.71561 8.2111L3.97619 8.08042C3.96689 7.99481 3.96689 7.90919 3.96224 7.82358H2.18532V7.67485H3.96224C3.96224 7.58023 3.97154 7.48561 3.97619 7.39549L2.71561 7.2603C2.72026 7.21073 2.72491 7.16115 2.73421 7.1116L3.99479 7.24676C4.00409 7.1837 4.01339 7.1161 4.02269 7.05301L1.65039 6.59336L1.6783 6.44466L4.05061 6.90431C4.08316 6.75561 4.12969 6.60688 4.18086 6.45818L2.99004 6.03459C3.00866 5.98954 3.02261 5.93997 3.04121 5.8949L4.23201 6.31848C4.26459 6.23737 4.29714 6.15626 4.33436 6.07966L2.74351 5.32711C2.76676 5.28206 2.78539 5.23699 2.80864 5.19645L4.40879 5.95799C4.45064 5.87237 4.50181 5.79126 4.54834 5.71016L3.47846 5.04775C3.50636 5.00718 3.53429 4.96211 3.56219 4.92157L4.63206 5.58398C4.67391 5.52089 4.71579 5.4623 4.76231 5.40374L2.85049 3.96173L2.94354 3.84008L4.85534 5.28206C4.94371 5.1739 5.04139 5.07027 5.13909 4.97112L4.25529 4.08341C4.29249 4.04734 4.32971 4.01581 4.36691 3.97977L5.24606 4.86749C5.31119 4.8089 5.37631 4.75032 5.44609 4.69626L4.34831 3.33536C4.38551 3.30383 4.42739 3.2723 4.46926 3.24524L5.56701 4.60161C5.64144 4.54753 5.72054 4.49348 5.80426 4.4394L5.13444 3.38944C5.17629 3.36241 5.22281 3.33536 5.26466 3.31284L5.93449 4.35829C6.00891 4.31322 6.08336 4.27268 6.16244 4.23661L5.10186 2.11869L5.24141 2.0511L6.30196 4.16902C6.43221 4.11043 6.56711 4.05638 6.70201 4.01131L6.31594 2.83517C6.36244 2.81715 6.41361 2.80364 6.46014 2.79013L6.84621 3.96624C6.92994 3.93921 7.01366 3.92119 7.10204 3.89864L6.73456 2.19981C6.78574 2.19079 6.83226 2.18178 6.88341 2.17277L7.25089 3.86711C7.34394 3.84909 7.44161 3.83555 7.53464 3.82654L7.40906 2.59635C7.46021 2.59185 7.51139 2.58734 7.56256 2.58284L7.68349 3.81303C7.76256 3.80852 7.84164 3.80402 7.92539 3.80402V1.44727H8.07889V3.80402C8.16261 3.80402 8.24634 3.80852 8.33006 3.81753L8.45566 2.58734C8.50684 2.59185 8.55799 2.59635 8.60916 2.60086L8.47891 3.83105C8.56729 3.84008 8.65569 3.85359 8.73941 3.87161L9.09759 2.17277C9.14874 2.18178 9.19526 2.19079 9.24644 2.20431L8.88826 3.90315C8.98129 3.92119 9.07431 3.94822 9.16736 3.97525L9.55809 2.79913C9.60459 2.81265 9.65576 2.82616 9.70229 2.84421L9.31154 4.02032C9.38596 4.04734 9.45574 4.06989 9.53016 4.10143L10.4884 1.93844L10.6326 2.00153L9.67436 4.16452C9.80926 4.2231 9.93486 4.29069 10.0605 4.36279L10.7303 3.31284L10.8605 3.38944L10.1907 4.4394C10.2651 4.48447 10.3395 4.53402 10.4093 4.5881L11.4978 3.21822L11.6187 3.30833L10.5303 4.67822C10.6047 4.7368 10.6791 4.79989 10.7489 4.86298L11.6327 3.97525C11.6699 4.01131 11.7071 4.04284 11.7443 4.0789L10.8652 4.96662C10.921 5.0207 10.9768 5.07478 11.028 5.13336L12.8654 3.60124Z" fill="black"/>
</g>
<defs>
<clipPath id="clip0_3396_52911">
<rect width="16" height="15.5" fill="white"/>
</clipPath>
</defs>
</svg>
