<svg width="24" height="24" viewBox="0 0 24 24" fill="none" xmlns="http://www.w3.org/2000/svg">
<g clip-path="url(#clip0_6029_8125)">
<g clip-path="url(#clip1_6029_8125)">
<path d="M19.7402 3.09321L18.0741 2.12972C17.5661 1.83471 16.9666 1.80019 16.3291 2.00418C15.9536 2.12344 15.5971 2.28664 15.2563 2.48122C12.8297 3.87468 11.3845 6.88127 11.1541 7.42422L12.8202 8.38771C13.0506 7.84477 14.4958 4.83817 16.9224 3.44471C17.26 3.25013 17.6197 3.08694 17.9952 2.96768C18.6327 2.76368 19.229 2.7982 19.7402 3.09321Z" fill="currentColor" stroke="currentColor" stroke-width="0.075"/>
<path d="M4.45879 15.4654C3.70463 21.4221 10.2775 21.375 12.8619 22.1251C15.4336 18.4155 21.9844 10.9272 21.1987 5.85242C20.8137 3.3511 19.5105 2.48176 17.9959 2.96822C17.6204 3.08748 17.2638 3.25067 16.923 3.44526C14.4964 4.83871 13.0512 7.84531 12.8209 8.38825C12.5716 8.0901 11.6155 6.47382 8.96169 7.99595C8.80707 8.08383 8.64614 8.18425 8.47889 8.29724C6.65186 9.51808 4.8974 11.988 4.45879 15.4654ZM5.34864 18.4249C5.25397 18.4814 5.17509 18.4343 5.17509 18.3245C5.17509 18.2146 5.25397 18.0797 5.34864 18.0263L9.05319 15.8985L9.47603 16.137L9.9746 14.3889L10.5521 15.9863L11.2684 12.327L12.9944 17.1224L14.6132 7.64131L16.2193 12.578L16.4339 11.7871L20.3309 9.42079C20.4288 9.3643 20.5045 9.40824 20.5045 9.52122C20.5045 9.62792 20.4288 9.76601 20.3309 9.81937L16.7179 11.8939L16.1941 13.8303L14.6763 9.1603L13.0701 18.563L11.3188 13.6984L10.6025 17.3547L9.95251 15.5595L9.58016 16.862L8.97115 16.3441L5.34864 18.4249Z" fill="currentColor" stroke="currentColor" stroke-width="0.075"/>
<path d="M14.6126 7.64397L12.9938 17.1251L11.2678 12.3296L10.5515 15.989L9.97401 14.3916L9.47544 16.1396L9.18829 15.8949L5.34805 18.0258C5.25338 18.0823 5.17449 18.2141 5.17449 18.324C5.17449 18.4307 5.25338 18.4778 5.34805 18.4213L8.97056 16.3405L9.57957 16.8583L9.95192 15.5559L10.602 17.3511L11.3183 13.6948L13.0696 18.5594L14.6757 9.15669L16.1935 13.8266L16.7173 11.8902L20.3304 9.81575C20.4282 9.75926 20.5039 9.62431 20.5039 9.5176C20.5039 9.40776 20.425 9.36382 20.3304 9.41717L16.4765 11.7444L16.2219 12.5744L14.6157 7.6377L14.6126 7.64397Z" fill="currentColor"/>
<path d="M2.79383 14.505C3.23244 11.0277 4.9869 8.55774 6.81394 7.33689C6.98118 7.22391 7.14211 7.12348 7.29673 7.03561C8.8019 6.17255 9.76117 6.31691 10.3544 6.66214L12.0205 7.62563C11.4273 7.28354 10.468 7.13604 8.96283 7.9991C8.80821 8.08698 8.64728 8.1874 8.48004 8.30039C6.653 9.52123 4.89855 11.9912 4.45993 15.4685C4.13176 18.0671 5.19516 19.5233 6.71611 20.4021L5.05001 19.4386C3.52906 18.5598 2.46566 17.1036 2.79383 14.505Z" fill="currentColor" stroke="currentColor" stroke-width="0.075"/>
<circle cx="21.675" cy="3.675" r="1.8" fill="currentColor"/>
</g>
</g>
<defs>
<clipPath id="clip0_6029_8125">
<rect width="24" height="24" fill="currentColor"/>
</clipPath>
<clipPath id="clip1_6029_8125">
<rect width="24" height="24" fill="currentColor" transform="matrix(-1 0 0 1 24 0)"/>
</clipPath>
</defs>
</svg>
