<svg width="24" height="24" viewBox="0 0 24 24" fill="none" xmlns="http://www.w3.org/2000/svg">
<g clip-path="url(#clip0_4021_2152)">
<path d="M4.20135 3.02609L5.87984 2.05544C6.39164 1.75824 6.99564 1.72346 7.63779 1.92897C8.01608 2.04912 8.3753 2.21353 8.71863 2.40955C11.1632 3.81336 12.6192 6.84229 12.8512 7.38927L11.1728 8.35992C10.9407 7.81294 9.48475 4.78401 7.04015 3.3802C6.7 3.18418 6.3376 3.01977 5.95931 2.89962C5.31716 2.69411 4.71634 2.72889 4.20135 3.02609Z" fill="#017AFF" stroke="black" stroke-width="0.0864"/>
<path d="M19.5961 15.4898C20.3559 21.4908 13.7341 21.4434 11.1306 22.199C8.53975 18.4618 1.94027 10.918 2.73183 5.80547C3.11966 3.28557 4.43256 2.40978 5.95845 2.89984C6.33675 3.01999 6.69597 3.1844 7.03929 3.38043C9.4839 4.78423 10.9399 7.81316 11.1719 8.36014C11.4231 8.05978 12.3863 6.43149 15.0598 7.96492C15.2155 8.05345 15.3777 8.15463 15.5461 8.26845C17.3867 9.49836 19.1542 11.9866 19.5961 15.4898ZM18.6996 18.4713C18.795 18.5282 18.8745 18.4808 18.8745 18.3702C18.8745 18.2595 18.795 18.1235 18.6996 18.0698L14.9676 15.9261L14.5416 16.1664L14.0393 14.4054L13.4576 16.0147L12.736 12.3281L10.9971 17.1592L9.36628 7.60765L7.7482 12.581L7.53203 11.7843L3.60604 9.40035C3.50749 9.34344 3.4312 9.3877 3.4312 9.50152C3.4312 9.60902 3.50749 9.74814 3.60604 9.80189L7.24592 11.8918L7.77363 13.8426L9.3027 9.13792L10.9208 18.6104L12.6851 13.7098L13.4067 17.3932L14.0616 15.5847L14.4367 16.8968L15.0502 16.3751L18.6996 18.4713Z" fill="white" stroke="black" stroke-width="0.0864"/>
<path d="M9.36642 7.60984L10.9972 17.1614L12.7361 12.3303L13.4577 16.0169L14.0395 14.4075L14.5417 16.1686L14.831 15.922L18.6998 18.0688C18.7952 18.1257 18.8746 18.2585 18.8746 18.3692C18.8746 18.4767 18.7952 18.5241 18.6998 18.4672L15.0504 16.371L14.4368 16.8927L14.0617 15.5805L13.4068 17.3891L12.6852 13.7056L10.9209 18.6063L9.30284 9.13379L7.77377 13.8384L7.24606 11.8877L3.60618 9.79775C3.50763 9.74084 3.43134 9.60489 3.43134 9.49739C3.43134 9.38673 3.51081 9.34246 3.60618 9.39621L7.48865 11.7407L7.74516 12.5769L9.36324 7.60352L9.36642 7.60984Z" fill="#017AFF"/>
<path d="M21.2735 14.5223C20.8316 11.0191 19.0641 8.53086 17.2235 7.30095C17.055 7.18713 16.8929 7.08595 16.7371 6.99742C15.2208 6.12795 14.2544 6.27339 13.6568 6.62118L11.9783 7.59183C12.5759 7.2472 13.5423 7.0986 15.0587 7.96807C15.2144 8.0566 15.3766 8.15778 15.545 8.2716C17.3856 9.50151 19.1531 11.9898 19.595 15.493C19.9256 18.1109 18.8543 19.5779 17.3221 20.4632L19.0005 19.4926C20.5328 18.6073 21.6041 17.1402 21.2735 14.5223Z" fill="#017AFF" stroke="black" stroke-width="0.0864"/>
</g>
<defs>
<clipPath id="clip0_4021_2152">
<rect width="24" height="24" fill="white"/>
</clipPath>
</defs>
</svg>
