<svg width="64" height="64" viewBox="0 0 64 64" fill="none" xmlns="http://www.w3.org/2000/svg">
<g clip-path="url(#clip0_3396_48768)">
<g filter="url(#filter0_d_3396_48768)">
<path d="M0 32C0 14.3269 14.3269 0 32 0C49.6731 0 64 14.3269 64 32C64 49.6731 49.6731 64 32 64C14.3269 64 0 49.6731 0 32Z" fill="currentColor"/>
<path d="M23.3158 19.7414C33.2146 9.91533 45.2234 7.36515 50.0291 14.0626C54.8349 20.76 50.6112 34.2968 40.7124 44.1228C30.8136 54.0216 18.8048 56.5682 13.9263 49.798C9.19698 43.0314 13.4206 29.5638 23.3158 19.7414Z" fill="currentColor"/>
<path d="M29.8682 14.4991C28.7768 15.2995 27.6854 16.2453 26.5941 17.2676C17.9321 25.8531 14.2905 37.6436 18.587 43.5407C23.0252 49.4342 33.6516 47.2514 42.5318 38.5895C47.3375 33.933 50.5389 28.5452 51.8486 23.5248C52.2123 19.8141 51.7031 16.5364 50.0296 14.0626C46.2462 8.82394 38.0936 9.25685 29.8682 14.4991Z" fill="currentColor"/>
<path d="M42.3876 15.59V15.8083C42.315 17.0452 41.5872 18.5731 40.2776 19.8827C38.3131 21.7745 35.6938 22.5021 34.5988 21.4143C33.3619 20.2502 34.0931 17.7 36.0576 15.6627C38.0949 13.6983 40.7141 13.0434 41.8055 14.2076C42.1693 14.5714 42.3876 15.0079 42.3876 15.59ZM34.8207 48.9971C30.1605 52.4895 25.3584 54.2394 20.6982 53.5118C22.6627 53.5846 24.267 51.3982 25.5767 48.4878C26.8864 45.5047 27.6139 42.7399 28.2687 40.1169C29.2146 35.9697 29.2874 33.0593 28.7781 32.4045C27.9777 31.3823 26.2315 31.6042 24.1906 32.7683C23.172 33.3504 21.8624 32.9866 23.3939 31.0949C24.9946 29.2031 31.1791 24.6884 33.3619 23.9609C35.8393 23.306 38.6042 24.2519 37.6583 26.944C36.9998 28.9085 28.4143 51.3254 34.8207 48.9971Z" fill="currentColor"/>
</g>
</g>
<defs>
<filter id="filter0_d_3396_48768" x="-6" y="-5" width="76" height="76" filterUnits="userSpaceOnUse" color-interpolation-filters="sRGB">
<feFlood flood-opacity="0" result="BackgroundImageFix"/>
<feColorMatrix in="SourceAlpha" type="matrix" values="0 0 0 0 0 0 0 0 0 0 0 0 0 0 0 0 0 0 127 0" result="hardAlpha"/>
<feOffset dy="1"/>
<feGaussianBlur stdDeviation="3"/>
<feComposite in2="hardAlpha" operator="out"/>
<feColorMatrix type="matrix" values="0 0 0 0 0 0 0 0 0 0 0 0 0 0 0 0 0 0 0.08 0"/>
<feBlend mode="normal" in2="BackgroundImageFix" result="effect1_dropShadow_3396_48768"/>
<feBlend mode="normal" in="SourceGraphic" in2="effect1_dropShadow_3396_48768" result="shape"/>
</filter>
<clipPath id="clip0_3396_48768">
<rect width="64" height="64" fill="currentColor"/>
</clipPath>
</defs>
</svg>
