<svg width="61" height="20" viewBox="0 0 61 20" fill="none" xmlns="http://www.w3.org/2000/svg">
<g clip-path="url(#clip0_3055_7571)">
<g clip-path="url(#clip1_3055_7571)">
<g clip-path="url(#clip2_3055_7571)">
<path d="M1.07267 5.37354C0.551817 5.37354 0.117188 5.81168 0.117188 6.33975V13.4442C0.117188 13.9614 0.551817 14.3997 1.07267 14.3997C1.59352 14.3997 2.01723 13.9616 2.01723 13.4442V6.33975C2.01723 5.81168 1.59333 5.37354 1.07267 5.37354Z" fill="#121313"/>
<path d="M18.7639 8.13552C18.5411 7.59672 18.1999 7.12269 17.7797 6.69879C17.3595 6.30005 16.8638 5.96608 16.3106 5.73628C15.7466 5.50648 15.1433 5.39139 14.5147 5.39139H12.6685C12.6147 5.37695 12.5644 5.37695 12.5105 5.37695C11.961 5.37695 11.5156 5.81158 11.5156 6.35389V13.4297C11.5156 13.9685 11.9358 14.3815 12.4711 14.4066H14.5147C15.1433 14.4066 15.7466 14.2773 16.3106 14.0475C16.8601 13.8177 17.3593 13.4945 17.7797 13.0957C18.1999 12.6576 18.5411 12.1978 18.7639 11.6447C19.0009 11.0917 19.1158 10.5133 19.1158 9.8992C19.1158 9.29213 19.0009 8.68876 18.7639 8.13572V8.13552ZM16.4257 11.7345C15.9085 12.2409 15.226 12.4996 14.479 12.4996H13.4159V7.27348H14.479C15.2262 7.27348 15.9085 7.55732 16.4257 8.05281C16.9428 8.54479 17.2159 9.19498 17.2159 9.8953C17.2159 10.5956 16.943 11.2421 16.4257 11.7343V11.7345Z" fill="#121313"/>
<path d="M13.0425 3.03885L10.2373 0.233657C10.0434 0.039751 9.78469 -0.0536904 9.52973 -0.0464726C9.27477 -0.0536904 9.0161 0.0360446 8.82219 0.233657L6.017 3.03885C5.64343 3.41242 5.64343 4.01579 6.017 4.38936C6.39057 4.76293 6.99394 4.76293 7.36751 4.38936L8.63531 3.12156V10.7469L5.25542 5.85848C5.08668 5.56391 4.77417 5.37001 4.41504 5.37001C3.88345 5.37001 3.44531 5.80815 3.44531 6.33622V13.4335C3.44531 13.9615 3.88345 14.3997 4.41504 14.3997C4.94662 14.3997 5.38476 13.9615 5.38476 13.4335V9.03724L8.81848 13.976C8.81848 13.9867 8.81848 14.0011 8.83292 14.0156C9.02682 14.2598 9.29993 14.4036 9.60874 14.4036C10.1403 14.4036 10.5677 13.9654 10.5677 13.4374V3.26865L11.692 4.39287C12.0655 4.76644 12.6689 4.76644 13.0425 4.39287C13.416 4.0193 13.416 3.41222 13.0425 3.03885Z" fill="#121313"/>
<path d="M24.5503 9.43774C24.216 9.16769 23.8816 9.06481 23.5087 9.06481C23.0201 9.06481 22.5185 9.24485 22.5185 9.7335C22.5185 10.2093 22.9943 10.325 23.8559 10.5308C24.7689 10.7494 25.8491 11.1609 25.8491 12.3825C25.8491 13.8871 24.6275 14.44 23.2773 14.44C22.5957 14.44 21.8241 14.2472 21.3355 13.8742C21.0654 13.6685 20.9883 13.437 20.9883 13.257C20.9883 12.8969 21.2583 12.6011 21.6313 12.6011C21.7984 12.6011 21.9527 12.6526 22.1585 12.8069C22.5185 13.0898 22.9043 13.2441 23.3416 13.2441C23.7916 13.2441 24.3446 13.0641 24.3446 12.5111C24.3446 11.9968 23.8559 11.8553 22.9172 11.6367C22.0042 11.4181 21.0912 11.0452 21.0912 9.87496C21.0912 8.499 22.3257 7.90747 23.5473 7.90747C24.1646 7.90747 24.8204 8.06178 25.2576 8.38327C25.5534 8.60188 25.6305 8.80763 25.6305 8.98766C25.6305 9.33486 25.3862 9.61777 25.0004 9.61777C24.859 9.61777 24.7175 9.56633 24.5503 9.43774Z" fill="#121313"/>
<path d="M30.1356 14.2214C29.9299 14.3243 29.6598 14.3886 29.3769 14.3886C27.7438 14.3886 27.3837 13.3856 27.3837 12.2025V9.322H26.8822C26.2907 9.322 26.1878 8.9105 26.1878 8.70475C26.1878 8.499 26.2907 8.0875 26.8822 8.0875H27.3837V7.02017C27.3837 6.3129 27.8852 6.18431 28.1424 6.18431C28.3996 6.18431 28.9011 6.3129 28.9011 7.02017V8.0875H29.8656C30.4571 8.0875 30.56 8.499 30.56 8.70475C30.56 8.9105 30.4571 9.322 29.8656 9.322H28.9011V12.1896C28.9011 12.794 29.1069 13.1155 29.4927 13.1155C29.557 13.1155 29.647 13.1027 29.737 13.0898C29.8399 13.0769 29.8656 13.0769 29.917 13.0769C30.3028 13.0769 30.5086 13.3599 30.5086 13.6556C30.5086 13.8999 30.3671 14.1057 30.1356 14.2214Z" fill="#121313"/>
<path d="M37.9136 11.148C37.9136 13.0898 36.4219 14.44 34.5573 14.44C32.6926 14.44 31.2009 13.0898 31.2009 11.148C31.2009 9.20627 32.6926 7.90747 34.5573 7.90747C36.4219 7.90747 37.9136 9.20627 37.9136 11.148ZM36.3447 11.148C36.3447 10.1836 35.7789 9.16769 34.5573 9.16769C33.3356 9.16769 32.7698 10.1836 32.7698 11.148C32.7698 12.1125 33.3356 13.1541 34.5573 13.1541C35.7789 13.1541 36.3447 12.1125 36.3447 11.148Z" fill="#121313"/>
<path d="M43.2676 12.8841C43.4605 12.7555 43.6276 12.6912 43.7691 12.6912C44.1677 12.6912 44.3992 12.9869 44.3992 13.3084C44.3992 13.527 44.3349 13.7456 43.9877 13.99C43.5505 14.2986 42.8689 14.44 42.3417 14.44C40.5028 14.44 39.0497 13.2313 39.0497 11.1738C39.0497 9.16769 40.5414 7.90747 42.3546 7.90747C42.9461 7.90747 43.5376 8.04892 43.9748 8.34469C44.3349 8.58902 44.4121 8.83335 44.4121 9.01338C44.4121 9.36058 44.1549 9.68207 43.7434 9.68207C43.6019 9.68207 43.4605 9.64349 43.229 9.47632C43.0233 9.322 42.7275 9.19341 42.3546 9.19341C41.2229 9.19341 40.6571 10.2093 40.6571 11.1738C40.6571 12.1382 41.1972 13.1412 42.3546 13.1412C42.6889 13.1412 42.9975 13.0641 43.2676 12.8841Z" fill="#121313"/>
<path d="M50.8029 12.952C51.0215 13.1835 51.073 13.4021 51.073 13.5435C51.073 13.9679 50.7515 14.3151 50.3143 14.3151C50.0571 14.3151 49.8513 14.2122 49.5813 13.9164L46.9322 11.0359H47.2576V13.4535C47.2576 14.1865 46.7432 14.3151 46.486 14.3151C46.2417 14.3151 45.7145 14.1865 45.7145 13.4535V7.04322C45.7145 6.31023 46.2417 6.18164 46.486 6.18164C46.7432 6.18164 47.2576 6.31023 47.2576 7.04322V10.6244H46.9322L49.4398 8.1683C49.6584 7.94969 49.877 7.85967 50.0828 7.85967C50.5072 7.85967 50.8029 8.18116 50.8029 8.56694C50.8029 8.74697 50.7386 8.96558 50.4814 9.19705L48.6683 10.8045L50.8029 12.952Z" fill="#121313"/>
<path d="M55.4264 9.43774C55.0921 9.16769 54.7577 9.06481 54.3848 9.06481C53.8962 9.06481 53.3946 9.24485 53.3946 9.7335C53.3946 10.2093 53.8704 10.325 54.732 10.5308C55.645 10.7494 56.7252 11.1609 56.7252 12.3825C56.7252 13.8871 55.5036 14.44 54.1534 14.44C53.4718 14.44 52.7002 14.2472 52.2116 13.8742C51.9415 13.6685 51.8644 13.437 51.8644 13.257C51.8644 12.8969 52.1344 12.6011 52.5073 12.6011C52.6745 12.6011 52.8288 12.6526 53.0346 12.8069C53.3946 13.0898 53.7804 13.2441 54.2176 13.2441C54.6677 13.2441 55.2207 13.0641 55.2207 12.5111C55.2207 11.9968 54.732 11.8553 53.7933 11.6367C52.8803 11.4181 51.9673 11.0452 51.9673 9.87496C51.9673 8.499 53.2018 7.90747 54.4234 7.90747C55.0406 7.90747 55.6965 8.06178 56.1337 8.38327C56.4295 8.60188 56.5066 8.80763 56.5066 8.98766C56.5066 9.33486 56.2623 9.61777 55.8765 9.61777C55.7351 9.61777 55.5936 9.56633 55.4264 9.43774Z" fill="#121313"/>
<path d="M58.214 9.77448V8.19299H57.707V7.98877H58.9276V8.19299H58.4195V9.77448H58.214Z" fill="#121313"/>
<path d="M59.2427 9.77448V7.98877H59.4836L60.0351 9.07838H60.0442L60.5968 7.98877H60.832V9.77448H60.6379V8.34367H60.6288L60.0488 9.46815H60.0259L59.4459 8.3362H59.4368V9.77448H59.2427Z" fill="#121313"/>
<path d="M35.8211 18.3426C35.8211 17.9696 35.5926 17.6648 35.1891 17.6648C34.8141 17.6648 34.5463 17.9589 34.5463 18.3426C34.5463 18.7263 34.8141 19.0167 35.1891 19.0167C35.5926 19.0167 35.8211 18.7155 35.8211 18.3426ZM34.332 19.0741V16.5782C34.332 16.4635 34.4142 16.4456 34.4534 16.4456C34.4927 16.4456 34.5749 16.4635 34.5749 16.5782V17.7939H34.582C34.7248 17.5752 34.9748 17.4604 35.2141 17.4604C35.7354 17.4604 36.0782 17.8477 36.0782 18.3426C36.0782 18.8374 35.7354 19.2247 35.2141 19.2247C34.9748 19.2247 34.7248 19.11 34.582 18.8984H34.5749V19.0741C34.5749 19.1889 34.4927 19.2068 34.4534 19.2068C34.4142 19.2068 34.332 19.1889 34.332 19.0741Z" fill="#121313"/>
<path d="M37.9199 17.6576L37.1307 19.6156C37.0271 19.8738 36.895 20.0423 36.6057 20.0423C36.5629 20.0423 36.5022 20.0387 36.4629 20.028C36.4022 20.0101 36.3736 19.9706 36.3736 19.9204C36.3736 19.863 36.4165 19.8164 36.4772 19.8164C36.495 19.8164 36.5129 19.82 36.5343 19.8236C36.5629 19.8272 36.5772 19.8272 36.595 19.8272C36.7557 19.8272 36.8414 19.7196 36.9128 19.5295L37.0485 19.1781L36.3843 17.6648C36.3736 17.6361 36.3701 17.6146 36.3701 17.5967C36.3701 17.5285 36.4272 17.4783 36.495 17.4783C36.5343 17.4783 36.5843 17.4927 36.6165 17.5752L37.1735 18.9199H37.1807L37.6913 17.5752C37.7199 17.4963 37.7699 17.4783 37.8092 17.4783C37.8806 17.4783 37.9342 17.5285 37.9342 17.5931C37.9342 17.6074 37.9306 17.6289 37.9199 17.6576Z" fill="#121313"/>
<path d="M39.6421 16.8651V18.9594C39.6421 19.1745 39.4921 19.214 39.4171 19.214C39.3421 19.214 39.1921 19.1745 39.1921 18.9594V16.8651C39.1921 16.65 39.3421 16.6105 39.4171 16.6105C39.4921 16.6105 39.6421 16.65 39.6421 16.8651Z" fill="#121313"/>
<path d="M41.8319 19.006L40.6571 17.3779H40.6499V18.9594C40.6499 19.1745 40.4999 19.214 40.4249 19.214C40.35 19.214 40.2 19.1745 40.2 18.9594V16.9404C40.2 16.6607 40.3928 16.6105 40.4821 16.6105C40.5821 16.6105 40.6785 16.6535 40.7963 16.8185L41.9712 18.443H41.9783V16.8651C41.9783 16.65 42.1283 16.6105 42.2033 16.6105C42.2783 16.6105 42.4283 16.65 42.4283 16.8651V18.884C42.4283 19.1638 42.2354 19.214 42.1462 19.214C42.0426 19.214 41.9533 19.1709 41.8319 19.006Z" fill="#121313"/>
<path d="M43.8826 19.1817H43.2541C43.072 19.1817 42.9863 19.0956 42.9863 18.9127V16.9117C42.9863 16.7289 43.072 16.6428 43.2541 16.6428H43.8826C44.5433 16.6428 45.2789 16.9584 45.2789 17.9122C45.2789 18.8016 44.5433 19.1817 43.8826 19.1817ZM43.4363 17.0301V18.7872H43.8112C44.2754 18.7872 44.7968 18.5972 44.7968 17.9122C44.7968 17.1843 44.2754 17.0301 43.8112 17.0301H43.4363Z" fill="#121313"/>
<path d="M45.6919 18.9737V17.654C45.6919 17.4604 45.8312 17.4281 45.8955 17.4281C45.9598 17.4281 46.099 17.4604 46.099 17.654V17.7365H46.1062C46.1812 17.568 46.3633 17.4102 46.6383 17.4102C46.9025 17.4102 47.0775 17.5429 47.1739 17.7365C47.2882 17.5285 47.481 17.4102 47.7381 17.4102C48.1845 17.4102 48.3702 17.7545 48.3702 18.1059V18.9737C48.3702 19.1781 48.2273 19.214 48.1559 19.214C48.0845 19.214 47.9417 19.1781 47.9417 18.9737V18.2278C47.9417 18.0234 47.8952 17.7688 47.6203 17.7688C47.3525 17.7688 47.2418 18.0198 47.2418 18.2421V18.9737C47.2418 19.1781 47.0989 19.214 47.0275 19.214C46.9561 19.214 46.8132 19.1781 46.8132 18.9737V18.1417C46.8132 17.9302 46.7133 17.7688 46.4954 17.7688C46.2383 17.7688 46.1205 18.0055 46.1205 18.235V18.9737C46.1205 19.1781 45.9776 19.214 45.9062 19.214C45.8348 19.214 45.6919 19.1781 45.6919 18.9737Z" fill="#121313"/>
<path d="M50.6329 18.3139C50.6329 18.8554 50.2187 19.2319 49.7009 19.2319C49.1831 19.2319 48.7689 18.8554 48.7689 18.3139C48.7689 17.7724 49.1831 17.4102 49.7009 17.4102C50.2187 17.4102 50.6329 17.7724 50.6329 18.3139ZM50.1973 18.3139C50.1973 18.0449 50.0402 17.7616 49.7009 17.7616C49.3617 17.7616 49.2045 18.0449 49.2045 18.3139C49.2045 18.5828 49.3617 18.8733 49.7009 18.8733C50.0402 18.8733 50.1973 18.5828 50.1973 18.3139Z" fill="#121313"/>
<path d="M51.0484 18.9737V17.654C51.0484 17.4604 51.1877 17.4281 51.252 17.4281C51.3163 17.4281 51.4555 17.4604 51.4555 17.654V17.7365H51.4627C51.5377 17.5644 51.7412 17.4102 51.9947 17.4102C52.4411 17.4102 52.6268 17.7545 52.6268 18.1059V18.9737C52.6268 19.1781 52.484 19.214 52.4125 19.214C52.3411 19.214 52.1983 19.1781 52.1983 18.9737V18.2278C52.1983 18.0234 52.1519 17.7688 51.8769 17.7688C51.6055 17.7688 51.4769 18.0055 51.4769 18.235V18.9737C51.4769 19.1781 51.3341 19.214 51.2627 19.214C51.1913 19.214 51.0484 19.1781 51.0484 18.9737Z" fill="#121313"/>
<path d="M54.5338 18.4573H53.4554C53.4732 18.7012 53.6946 18.8805 53.9446 18.8805C54.1232 18.8805 54.2303 18.8231 54.3374 18.7334C54.3981 18.6832 54.4374 18.6725 54.4838 18.6725C54.5802 18.6725 54.6552 18.7406 54.6552 18.8446C54.6552 18.8805 54.641 18.945 54.5838 18.9988C54.416 19.1602 54.2231 19.2319 53.9482 19.2319C53.4197 19.2319 53.0269 18.8912 53.0269 18.3318C53.0269 17.776 53.4161 17.4102 53.9339 17.4102C54.3481 17.4102 54.6838 17.6469 54.7516 18.1525C54.7552 18.1884 54.7588 18.2135 54.7588 18.2421C54.7588 18.3928 54.6767 18.4573 54.5338 18.4573ZM53.4554 18.1489H54.3338C54.3338 17.9266 54.2089 17.7329 53.9303 17.7329C53.6768 17.7329 53.4732 17.9086 53.4554 18.1489Z" fill="#121313"/>
<path d="M56.6772 17.7401L55.9416 19.551C55.813 19.8666 55.6595 20.0423 55.2917 20.0423C55.1095 20.0423 55.056 19.9347 55.056 19.8487C55.056 19.7626 55.1131 19.6873 55.1988 19.673C55.2202 19.6694 55.2381 19.6694 55.2667 19.6694C55.3809 19.6694 55.4916 19.5977 55.5702 19.4004L55.6559 19.1817L55.0095 17.7545C54.9881 17.7042 54.981 17.6576 54.981 17.6289C54.981 17.5178 55.0702 17.4281 55.1952 17.4281C55.2702 17.4281 55.3524 17.4604 55.4095 17.5967L55.8737 18.7119H55.8809L56.2808 17.6074C56.3344 17.4604 56.4201 17.4281 56.4915 17.4281C56.6129 17.4281 56.7022 17.507 56.7022 17.6218C56.7022 17.6469 56.6986 17.6827 56.6772 17.7401Z" fill="#121313"/>
</g>
</g>
</g>
<defs>
<clipPath id="clip0_3055_7571">
<rect width="60.9524" height="20" fill="white"/>
</clipPath>
<clipPath id="clip1_3055_7571">
<rect width="60.9524" height="20" fill="white"/>
</clipPath>
<clipPath id="clip2_3055_7571">
<rect width="60.9524" height="20" fill="white"/>
</clipPath>
</defs>
</svg>
