<svg width="64" height="64" viewBox="0 0 64 64" fill="none" xmlns="http://www.w3.org/2000/svg">
<g clip-path="url(#clip0_3396_56381)">
<g filter="url(#filter0_d_3396_56381)">
<path d="M0 32C0 14.3269 14.3269 0 32 0C49.6731 0 64 14.3269 64 32C64 49.6731 49.6731 64 32 64C14.3269 64 0 49.6731 0 32Z" fill="currentColor"/>
<path d="M32.0315 57.1359C35.3733 57.1417 38.732 56.2293 41.5537 54.4103C43.2621 53.4132 44.7855 52.0775 46.0343 50.5391C46.8642 49.6426 47.4617 48.5828 48.1011 47.5477C49.1617 45.4752 49.9471 43.2384 50.1623 40.9042C50.4712 38.3004 50.2232 35.6326 49.4753 33.1251C48.9273 31.2195 48.0587 29.4148 46.9633 27.7671C45.4557 25.5274 43.5098 23.5476 41.1832 22.1868C40.6594 21.8573 40.2095 21.5255 39.6799 21.2006C38.9005 20.6578 37.6403 19.977 36.7155 20.7023C35.7755 21.6336 35.8195 23.1006 35.738 24.3515C35.7323 33.2055 35.6912 42.0585 35.7094 50.9132C35.6547 51.6564 35.8835 52.5575 35.1261 52.9925C34.3428 53.4712 33.4635 53.7832 32.5479 53.9282C31.797 54.1447 31.0883 53.8169 30.3561 53.6779C29.7307 53.4596 29.0491 53.1867 28.5927 52.748C27.9302 52.1601 28.3281 51.1227 28.2197 50.2988C28.2083 41.2423 28.2427 32.1839 28.2024 23.1286C28.0712 22.1565 27.9653 20.9672 27.0631 20.3865C26.6457 20.1726 26.1807 20.2017 25.753 20.3826C24.7297 20.684 23.8602 21.5554 22.993 22.073C21.4843 22.9667 20.0932 24.0736 18.9206 25.3952C17.8845 26.4484 17.063 27.6853 16.3048 28.9563C15.2223 30.9396 14.3974 33.0734 14.0235 35.3108C13.6447 37.3778 13.6065 39.5017 13.9292 41.5826C14.4161 44.7504 15.7767 47.7721 17.7543 50.2763C19.7109 52.7849 22.4007 54.6258 25.2997 55.8728C27.4482 56.672 29.731 57.165 32.032 57.1359H32.0315Z" fill="currentColor"/>
<path d="M32.101 15.6558C32.3477 15.6462 32.6026 15.6829 32.8401 15.6211C32.9908 15.6115 33.1255 15.4985 33.2849 15.5267C33.387 15.4439 33.5016 15.3582 33.6326 15.3534C33.7525 15.2789 33.9394 15.3058 34.0002 15.1435C34.132 15.0971 34.2396 15.0212 34.3589 14.954C34.4733 14.898 34.5577 14.7771 34.6661 14.7022C34.8338 14.6303 34.8881 14.4381 35.0492 14.3561C35.1314 14.2531 35.2039 14.1431 35.3085 14.0557C35.4116 13.9028 35.517 13.7554 35.5781 13.5783C35.6833 13.4964 35.7015 13.3511 35.7731 13.2405C35.8285 13.1173 35.9015 13.0087 35.9287 12.8773C35.983 12.7631 36.0339 12.6464 36.018 12.5154C36.0776 12.357 36.0352 12.1734 36.1461 12.0302C36.1385 11.6644 36.1615 11.2903 36.1347 10.9297C36.0165 10.7786 36.075 10.5805 36.0182 10.4086C36.001 10.2834 35.976 10.1495 35.8998 10.0474C35.809 9.69284 35.5777 9.40087 35.4149 9.08119C35.3348 8.97395 35.2929 8.86232 35.1762 8.78972C35.0649 8.63261 34.8978 8.52707 34.8094 8.35274C34.6489 8.34311 34.5683 8.17694 34.4446 8.09732C34.3584 8.00587 34.2227 7.96684 34.1276 7.8919C34.0126 7.8448 33.9557 7.72304 33.8117 7.72785C33.6085 7.64144 33.4121 7.51344 33.1875 7.47278C33.0645 7.41342 32.962 7.33027 32.8153 7.36689C32.6547 7.36306 32.498 7.328 32.3364 7.328C32.0596 7.29471 31.7785 7.33182 31.5036 7.34337C31.3357 7.40613 31.1338 7.30724 30.9878 7.44282C30.811 7.52945 30.6121 7.53866 30.4429 7.63938C30.3333 7.72452 30.18 7.71765 30.095 7.83198C29.9467 7.85953 29.8444 7.98406 29.7034 8.03399C29.5854 8.13182 29.459 8.24472 29.3525 8.3424C29.2012 8.32314 29.1761 8.51757 29.0698 8.59634C28.9571 8.67702 28.931 8.81238 28.825 8.89278C28.6248 9.11916 28.4519 9.37912 28.3358 9.66075C28.3166 9.79534 28.1969 9.87233 28.1916 10.0122C28.13 10.1432 28.0729 10.2544 28.0452 10.392C28.0123 10.5329 28.0529 10.6961 27.9508 10.8221C27.9661 11.1553 27.8853 11.4892 27.9508 11.8198C27.945 11.9965 27.9373 12.1741 28.0272 12.3334C28.0072 12.5525 28.1009 12.7492 28.1917 12.9397C28.1783 13.0933 28.3119 13.1482 28.3324 13.2825C28.3812 13.3972 28.4123 13.5204 28.4918 13.621C28.5607 13.8517 28.7578 13.9939 28.899 14.1747C28.9912 14.2576 29.017 14.4031 29.1424 14.461C29.2307 14.5582 29.2977 14.6737 29.4312 14.7209C29.5081 14.8455 29.6717 14.8742 29.7604 14.9946C29.9012 15.1234 30.1199 15.1019 30.2318 15.27C30.3306 15.3401 30.4837 15.3259 30.5749 15.3878C30.675 15.442 30.8059 15.475 30.9123 15.5257C31.0655 15.5372 31.1884 15.6462 31.3438 15.62C31.583 15.6948 31.8517 15.6355 32.1012 15.6547L32.101 15.6558Z" fill="currentColor"/>
<path d="M41.0284 8.23185C41.4862 7.21787 42.6976 6.4431 43.727 7.21709C45.7651 8.52496 47.3099 10.5081 49.0751 12.1678C51.377 14.4177 53.4724 16.9337 54.9106 19.8409C56.4065 22.8176 57.2877 26.0941 57.3963 29.4338C57.7453 32.8064 57.1823 36.2649 56.1837 39.4881C54.1301 45.5507 49.8884 50.9226 44.2645 53.99C36.4847 58.4139 26.407 58.1193 18.8163 53.4302C11.591 49.0891 6.90357 40.9034 6.53488 32.4682C6.34101 28.5924 6.94996 24.6719 8.49717 21.1009C9.99126 17.531 12.4812 14.4708 15.26 11.8177C16.8346 10.2235 18.29 8.4651 20.1582 7.23246C20.9514 6.61926 22.2266 6.73415 22.6504 7.7023C23.5883 9.19788 24.2356 11.0533 24.1823 12.8719C23.9501 15.867 21.3446 17.7035 19.265 19.4837C16.8003 21.5273 15.0806 24.3102 13.6555 27.1619C12.3675 29.9426 11.6904 32.9883 11.7887 36.1059C11.8059 42.7851 15.0779 49.4071 20.447 53.3623C23.9678 55.8441 28.2319 57.2783 32.5556 57.136C38.4668 57.0603 44.1279 53.9736 47.688 49.2805C50.8721 45.1452 52.4941 39.8201 52.1559 34.5912C52.0145 31.4021 51.0262 28.3084 49.5546 25.5408C48.1852 23.0519 46.3261 20.8087 44.1365 19.0204C42.5026 17.4898 40.5048 16.0472 39.9784 13.7518C39.5834 11.8621 40.227 9.92994 41.0284 8.23185Z" fill="currentColor"/>
</g>
</g>
<defs>
<filter id="filter0_d_3396_56381" x="-6" y="-5" width="76" height="76" filterUnits="userSpaceOnUse" color-interpolation-filters="sRGB">
<feFlood flood-opacity="0" result="BackgroundImageFix"/>
<feColorMatrix in="SourceAlpha" type="matrix" values="0 0 0 0 0 0 0 0 0 0 0 0 0 0 0 0 0 0 127 0" result="hardAlpha"/>
<feOffset dy="1"/>
<feGaussianBlur stdDeviation="3"/>
<feComposite in2="hardAlpha" operator="out"/>
<feColorMatrix type="matrix" values="0 0 0 0 0 0 0 0 0 0 0 0 0 0 0 0 0 0 0.08 0"/>
<feBlend mode="normal" in2="BackgroundImageFix" result="effect1_dropShadow_3396_56381"/>
<feBlend mode="normal" in="SourceGraphic" in2="effect1_dropShadow_3396_56381" result="shape"/>
</filter>
<clipPath id="clip0_3396_56381">
<rect width="64" height="64" fill="currentColor"/>
</clipPath>
</defs>
</svg>
