<svg width="128" height="146" viewBox="0 0 128 146" fill="none" xmlns="http://www.w3.org/2000/svg">
<g clip-path="url(#clip0_2510_96831)">
<ellipse cx="120.547" cy="71.2808" rx="98.75" ry="43.0329" transform="rotate(-90 120.547 71.2808)" fill="currentColor"/>
<path d="M158.546 37.4249C159.021 37.593 159.269 38.1138 159.101 38.5881L144.661 79.3156C144.493 79.7899 143.972 80.0381 143.498 79.8699L65.5012 52.2166C65.0269 52.0485 64.7788 51.5277 64.9469 51.0534L79.3867 10.3259C79.5549 9.85164 80.0757 9.60347 80.5499 9.77163L158.546 37.4249Z" fill="currentColor"/>
<path d="M155.742 38.7613C156.216 38.9294 156.464 39.4502 156.296 39.9245L143.324 76.511C143.156 76.9853 142.635 77.2334 142.161 77.0653L68.3059 50.8802C67.8316 50.712 67.5835 50.1912 67.7516 49.717L80.7232 13.1304C80.8914 12.6562 81.4122 12.408 81.8864 12.5761L155.742 38.7613Z" fill="currentColor"/>
<path d="M140.156 72.8602C140.631 73.0283 141.152 72.7802 141.32 72.3059L152.089 41.9309C152.257 41.4566 152.009 40.9358 151.535 40.7676L132.094 33.8749C131.24 33.5722 130.44 34.6217 130.876 35.4161C133.561 40.3165 134.226 46.2971 132.211 51.9784C130.197 57.661 125.912 61.888 120.738 64.0019C119.899 64.3445 119.859 65.6638 120.713 65.9665L140.156 72.8602Z" fill="currentColor"/>
<path d="M94.0263 56.5049C94.8802 56.8077 95.6802 55.7579 95.2446 54.9634C92.5575 50.0624 91.8925 44.0804 93.9072 38.3979C95.9215 32.7166 100.205 28.4901 105.377 26.3758C106.216 26.033 106.256 24.7141 105.402 24.4114L83.8909 16.7848C83.4166 16.6166 82.8958 16.8648 82.7277 17.3391L71.9583 47.7141C71.7902 48.1884 72.0383 48.7092 72.5126 48.8773L94.0263 56.5049Z" fill="currentColor"/>
<path d="M107.004 62.2695C97.5698 58.9247 92.6336 48.5656 95.9783 39.1318C99.323 29.6979 109.682 24.7617 119.116 28.1064C128.55 31.4511 133.486 41.8103 130.141 51.2441C126.797 60.678 116.438 65.6142 107.004 62.2695Z" fill="currentColor"/>
<path d="M107.736 60.1976C99.4459 57.2583 95.108 48.1548 98.0473 39.8644C100.987 31.5741 110.09 27.2362 118.38 30.1755C126.671 33.1148 131.009 42.2183 128.069 50.5086C125.13 58.799 116.027 63.1369 107.736 60.1976Z" fill="currentColor"/>
<path d="M108.71 55.881L106.734 44.9468L107.164 43.7346L107.769 43.9492C108.741 44.2938 109.59 44.4913 110.315 44.5417C111.059 44.5986 111.698 44.4841 112.233 44.1982C112.767 43.9123 113.202 43.4151 113.536 42.7064L108.199 40.8145L108.824 39.0514L114.133 40.9336C114.246 40.2085 114.184 39.5665 113.949 39.0076C113.72 38.4303 113.312 37.9236 112.723 37.4875C112.153 37.0579 111.4 36.6774 110.465 36.3458L109.86 36.1312L110.485 34.3681L121.873 38.4056L121.247 40.1687L116.049 38.3255C116.347 38.824 116.549 39.3608 116.654 39.9358C116.76 40.5108 116.736 41.1327 116.581 41.8015L120.212 43.0888L119.587 44.8519L116.011 43.5841C115.408 44.8793 114.523 45.7441 113.357 46.1785C112.217 46.6011 110.877 46.6533 109.338 46.3352L111.515 56.8757L108.71 55.881Z" fill="currentColor"/>
<path d="M147.328 42.7739C147.802 42.9421 148.05 43.4628 147.882 43.9371L147.023 46.3606C146.855 46.8349 146.334 47.083 145.86 46.9149L141.366 45.3216C140.891 45.1534 140.643 44.6326 140.811 44.1583L141.671 41.7349C141.839 41.2606 142.36 41.0124 142.834 41.1806L147.328 42.7739Z" fill="currentColor"/>
<path d="M84.8826 38.115C85.3569 38.2832 85.605 38.804 85.4369 39.2782L82.7425 46.8779C82.5743 47.3522 82.0535 47.6004 81.5792 47.4322L77.0853 45.8389C76.611 45.6707 76.3628 45.15 76.531 44.6757L79.2254 37.076C79.3936 36.6017 79.9144 36.3535 80.3886 36.5217L84.8826 38.115Z" fill="currentColor"/>
<path d="M146.016 67.5403C146.49 67.3704 147.012 67.6167 147.182 68.0904L161.768 108.766C161.937 109.239 161.691 109.761 161.217 109.931L83.321 137.864C82.8474 138.034 82.3257 137.788 82.1558 137.314L67.5698 96.6388C67.4 96.1651 67.6462 95.6434 68.1199 95.4736L146.016 67.5403Z" fill="currentColor"/>
<path d="M144.69 70.3495C145.164 70.1796 145.685 70.4259 145.855 70.8996L158.958 107.439C159.128 107.913 158.882 108.435 158.408 108.605L84.6474 135.055C84.1737 135.225 83.652 134.978 83.4822 134.505L70.3792 97.965C70.2094 97.4913 70.4557 96.9696 70.9293 96.7998L144.69 70.3495Z" fill="currentColor"/>
<path d="M154.195 106.616C154.669 106.447 154.915 105.925 154.745 105.451L143.867 75.1151C143.697 74.6414 143.175 74.3951 142.702 74.565L123.286 81.5275C122.433 81.8332 122.478 83.152 123.317 83.4918C128.497 85.5875 132.796 89.7985 134.831 95.4725C136.866 101.148 136.222 107.132 133.553 112.043C133.12 112.839 133.924 113.886 134.776 113.58L154.195 106.616Z" fill="currentColor"/>
<path d="M108.124 123.137C108.977 122.832 108.932 121.512 108.092 121.173C102.91 119.078 98.6106 114.866 96.5755 109.191C94.5408 103.517 95.1837 97.5337 97.8516 92.6236C98.2841 91.8277 97.4805 90.7811 96.6278 91.0869L75.1444 98.7907C74.6707 98.9606 74.4244 99.4823 74.5943 99.9559L85.4727 130.292C85.6425 130.766 86.1642 131.012 86.6379 130.842L108.124 123.137Z" fill="currentColor"/>
<path d="M121.821 119.391C112.399 122.769 102.022 117.87 98.6437 108.449C95.2651 99.0268 100.164 88.65 109.586 85.2714C119.008 81.8928 129.384 86.7917 132.763 96.2135C136.142 105.635 131.243 116.012 121.821 119.391Z" fill="currentColor"/>
<path d="M121.077 117.323C112.798 120.292 103.679 115.987 100.71 107.707C97.7404 99.4271 102.046 90.3081 110.325 87.339C118.605 84.37 127.724 88.6751 130.693 96.9549C133.662 105.235 129.357 114.354 121.077 117.323Z" fill="currentColor"/>
<path d="M119.1 113.364L110.652 106.146L110.218 104.936L110.823 104.719C111.793 104.371 112.575 103.987 113.169 103.567C113.781 103.141 114.203 102.648 114.437 102.088C114.67 101.528 114.692 100.868 114.502 100.108L109.172 102.019L108.541 100.259L113.843 98.3573C113.471 97.7247 113.018 97.2663 112.482 96.9824C111.939 96.6801 111.302 96.5463 110.571 96.5809C109.857 96.609 109.034 96.7905 108.099 97.1255L107.495 97.3422L106.864 95.5813L118.237 91.503L118.868 93.2638L113.676 95.1257C114.222 95.3232 114.718 95.6111 115.164 95.9895C115.61 96.3678 115.984 96.8649 116.288 97.4806L119.914 96.1802L120.545 97.9411L116.974 99.2217C117.326 100.607 117.188 101.836 116.561 102.91C115.945 103.959 114.94 104.847 113.547 105.574L121.902 112.359L119.1 113.364Z" fill="currentColor"/>
<path d="M140.713 78.7804C141.187 78.6105 141.708 78.8568 141.878 79.3305L142.746 81.7508C142.916 82.2245 142.67 82.7462 142.196 82.916L137.708 84.5255C137.234 84.6953 136.713 84.449 136.543 83.9754L135.675 81.555C135.505 81.0813 135.751 80.5597 136.225 80.3898L140.713 78.7804Z" fill="currentColor"/>
<path d="M89.4079 114.681C89.8816 114.512 90.4033 114.758 90.5731 115.232L93.2948 122.821C93.4647 123.295 93.2184 123.817 92.7447 123.987L88.2565 125.596C87.7829 125.766 87.2612 125.52 87.0913 125.046L84.3696 117.456C84.1997 116.982 84.446 116.461 84.9197 116.291L89.4079 114.681Z" fill="currentColor"/>
<path d="M141.552 50.031C142.055 50.031 142.463 50.4389 142.463 50.9421L142.463 94.1537C142.463 94.6569 142.055 95.0648 141.552 95.0648L58.7986 95.0648C58.2954 95.0648 57.8875 94.6569 57.8875 94.1537L57.8874 50.9421C57.8874 50.4389 58.2954 50.031 58.7986 50.031L141.552 50.031Z" fill="currentColor"/>
<path d="M139.355 52.2277C139.858 52.2277 140.266 52.6356 140.266 53.1388L140.266 91.9568C140.266 92.46 139.858 92.8679 139.355 92.8679L60.9954 92.8679C60.4922 92.8679 60.0843 92.46 60.0843 91.9568L60.0843 53.1388C60.0843 52.6356 60.4922 52.2277 60.9954 52.2277L139.355 52.2277Z" fill="currentColor"/>
<path d="M136.061 89.5745C136.564 89.5745 136.972 89.1666 136.972 88.6634L136.972 56.4357C136.972 55.9325 136.564 55.5245 136.061 55.5245L115.434 55.5246C114.528 55.5246 114.125 56.781 114.801 57.3842C118.97 61.1055 121.594 66.5203 121.594 72.5481C121.594 78.5773 118.968 83.9931 114.798 87.7145C114.122 88.3177 114.525 89.5745 115.431 89.5745L136.061 89.5745Z" fill="currentColor"/>
<path d="M87.1169 89.5745C88.0229 89.5745 88.4261 88.3177 87.7501 87.7145C83.5797 83.9931 80.9539 78.5773 80.9539 72.5481C80.9539 66.5203 83.5785 61.1055 87.7473 57.3842C88.4231 56.781 88.0199 55.5246 87.114 55.5246L64.291 55.5246C63.7878 55.5246 63.3799 55.9325 63.3799 56.4357L63.3799 88.6634C63.3799 89.1666 63.7878 89.5745 64.291 89.5745L87.1169 89.5745Z" fill="currentColor"/>
<path d="M101.275 90.6711C91.2653 90.6711 83.1512 82.557 83.1512 72.5477C83.1512 62.5385 91.2653 54.4244 101.275 54.4244C111.284 54.4244 119.398 62.5385 119.398 72.5477C119.398 82.557 111.284 90.6711 101.275 90.6711Z" fill="currentColor"/>
<path d="M101.273 88.4735C92.4767 88.4735 85.3461 81.3429 85.3461 72.5469C85.3461 63.7509 92.4767 56.6203 101.273 56.6203C110.069 56.6203 117.199 63.7509 117.199 72.5469C117.199 81.3429 110.069 88.4735 101.273 88.4735Z" fill="currentColor"/>
<path d="M100.748 84.0797L95.232 74.4342L95.232 73.1481L95.8741 73.1481C96.9052 73.1481 97.771 73.0507 98.4714 72.8558C99.1913 72.661 99.7555 72.3395 100.164 71.8913C100.573 71.4431 100.816 70.8293 100.894 70.0499L95.232 70.0499L95.232 68.1792L100.865 68.1792C100.728 67.4583 100.456 66.8737 100.047 66.4255C99.6388 65.9579 99.0843 65.6169 98.3839 65.4025C97.7029 65.1882 96.8663 65.081 95.8741 65.081L95.232 65.081L95.232 63.2104L107.314 63.2104L107.314 65.081L101.798 65.081C102.246 65.4512 102.616 65.8897 102.907 66.3963C103.199 66.9029 103.384 67.4972 103.462 68.1792L107.314 68.1792L107.314 70.0499L103.52 70.0499C103.384 71.4723 102.839 72.583 101.886 73.382C100.952 74.1614 99.7069 74.6583 98.1504 74.8726L103.725 84.0797L100.748 84.0797Z" fill="currentColor"/>
<path d="M132.766 58.8213C133.269 58.8213 133.677 59.2292 133.677 59.7324L133.677 62.3037C133.677 62.8069 133.269 63.2148 132.766 63.2148L127.998 63.2148C127.495 63.2148 127.087 62.8069 127.087 62.3037L127.087 59.7324C127.087 59.2292 127.495 58.8213 127.998 58.8213L132.766 58.8213Z" fill="currentColor"/>
<path d="M72.3535 75.2972C72.8567 75.2972 73.2647 75.7052 73.2647 76.2084L73.2647 84.2716C73.2647 84.7748 72.8567 85.1827 72.3535 85.1827L67.5855 85.1827C67.0823 85.1827 66.6744 84.7748 66.6744 84.2716L66.6744 76.2084C66.6744 75.7052 67.0823 75.2972 67.5855 75.2972L72.3535 75.2972Z" fill="currentColor"/>
<rect x="162.073" y="38.3842" width="45.0338" height="84.5757" rx="0.911135" transform="rotate(109.522 162.073 38.3842)" fill="currentColor" stroke="currentColor" stroke-width="0.209425"/>
<rect x="159.269" y="39.7206" width="40.6403" height="80.1821" rx="0.911135" transform="rotate(109.522 159.269 39.7206)" fill="currentColor" stroke="currentColor" stroke-width="0.209425"/>
<path fill-rule="evenodd" clip-rule="evenodd" d="M142.824 73.516C143.299 73.6842 143.82 73.436 143.988 72.9617L154.757 42.5867C154.925 42.1124 154.677 41.5916 154.203 41.4234L134.762 34.5309C133.908 34.2282 133.109 35.2776 133.544 36.072C136.229 40.9724 136.894 46.9528 134.879 52.634C132.865 58.3167 128.58 62.5438 123.406 64.6576C122.567 65.0003 122.527 66.3196 123.381 66.6223L142.824 73.516ZM96.6947 57.1609C97.5486 57.4636 98.3486 56.4138 97.913 55.6194C95.2258 50.7183 94.5607 44.7362 96.5754 39.0535C98.5897 33.3723 102.873 29.1459 108.045 27.0315C108.884 26.6888 108.924 25.3699 108.07 25.0672L86.5589 17.4406C86.0846 17.2724 85.5638 17.5206 85.3957 17.9949L74.6263 48.3699C74.4582 48.8442 74.7063 49.365 75.1806 49.5332L96.6947 57.1609Z" fill="currentColor"/>
<path d="M108.045 27.0315L108.085 27.1285L108.045 27.0315ZM123.406 64.6576L123.445 64.7546L123.406 64.6576ZM97.913 55.6194L98.0048 55.569L97.913 55.6194ZM154.658 42.5517L143.889 72.9267L144.086 72.9967L154.856 42.6217L154.658 42.5517ZM134.727 34.6296L154.168 41.5221L154.238 41.3247L134.797 34.4322L134.727 34.6296ZM133.452 36.1223C136.124 40.9977 136.785 46.9471 134.781 52.599L134.978 52.669C137.003 46.9586 136.335 40.9471 133.636 36.0217L133.452 36.1223ZM134.781 52.599C132.776 58.2524 128.514 62.4577 123.366 64.5607L123.445 64.7546C128.646 62.63 132.953 58.381 134.978 52.669L134.781 52.599ZM142.859 73.4173L123.416 66.5236L123.346 66.721L142.789 73.6147L142.859 73.4173ZM98.0048 55.569C95.3313 50.693 94.6697 44.7419 96.6741 39.0885L96.4767 39.0185C94.4516 44.7305 95.1202 50.7435 97.8212 55.6697L98.0048 55.569ZM96.6741 39.0885C98.678 33.4366 102.939 29.232 108.085 27.1285L108.006 26.9346C102.807 29.0598 98.5013 33.308 96.4767 39.0185L96.6741 39.0885ZM86.5239 17.5393L108.035 25.1659L108.105 24.9685L86.5939 17.3419L86.5239 17.5393ZM74.725 48.4049L85.4944 18.0299L85.297 17.9599L74.5276 48.3349L74.725 48.4049ZM96.7297 57.0622L75.2156 49.4345L75.1456 49.6318L96.6597 57.2596L96.7297 57.0622ZM74.5276 48.3349C74.3402 48.8637 74.6168 49.4444 75.1456 49.6318L75.2156 49.4345C74.7958 49.2856 74.5762 48.8247 74.725 48.4049L74.5276 48.3349ZM86.5939 17.3419C86.0651 17.1544 85.4845 17.4311 85.297 17.9599L85.4944 18.0299C85.6432 17.6101 86.1041 17.3904 86.5239 17.5393L86.5939 17.3419ZM108.085 27.1285C108.55 26.9382 108.788 26.4797 108.797 26.0364C108.806 25.5923 108.584 25.1384 108.105 24.9685L108.035 25.1659C108.409 25.2987 108.595 25.6555 108.587 26.0323C108.58 26.4098 108.379 26.7821 108.006 26.9346L108.085 27.1285ZM123.366 64.5607C122.9 64.7509 122.662 65.2094 122.654 65.6529C122.645 66.097 122.866 66.5511 123.346 66.721L123.416 66.5236C123.041 66.3908 122.856 66.0338 122.863 65.657C122.871 65.2794 123.072 64.907 123.445 64.7546L123.366 64.5607ZM134.797 34.4322C134.318 34.2623 133.86 34.4753 133.587 34.8257C133.315 35.1755 133.21 35.6813 133.452 36.1223L133.636 36.0217C133.442 35.6683 133.52 35.2522 133.752 34.9544C133.984 34.6571 134.353 34.4968 134.727 34.6296L134.797 34.4322ZM143.889 72.9267C143.74 73.3465 143.279 73.5661 142.859 73.4173L142.789 73.6147C143.318 73.8022 143.899 73.5255 144.086 72.9967L143.889 72.9267ZM97.8212 55.6697C98.015 56.0231 97.9368 56.4393 97.7048 56.7372C97.4732 57.0346 97.1043 57.195 96.7297 57.0622L96.6597 57.2596C97.139 57.4295 97.597 57.2164 97.87 56.8659C98.1426 56.516 98.2466 56.0101 98.0048 55.569L97.8212 55.6697ZM154.856 42.6217C155.043 42.0929 154.767 41.5122 154.238 41.3247L154.168 41.5221C154.588 41.671 154.807 42.1319 154.658 42.5517L154.856 42.6217Z" fill="currentColor"/>
<circle cx="115.728" cy="45.8425" r="18.1234" transform="rotate(109.522 115.728 45.8425)" fill="currentColor" stroke="currentColor" stroke-width="0.209425"/>
<ellipse cx="115.726" cy="45.8415" rx="15.9266" ry="15.9266" transform="rotate(109.522 115.726 45.8415)" fill="currentColor" stroke="currentColor" stroke-width="0.209425"/>
<path d="M111.378 56.536L109.403 45.6018L109.832 44.3897L110.438 44.6042C111.41 44.9488 112.258 45.1463 112.983 45.1967C113.727 45.2536 114.366 45.1391 114.901 44.8532C115.436 44.5674 115.87 44.0701 116.204 43.3615L110.868 41.4695L111.493 39.7064L116.802 41.5886C116.914 40.8636 116.853 40.2216 116.617 39.6627C116.389 39.0854 115.98 38.5787 115.391 38.1426C114.821 37.713 114.069 37.3324 113.133 37.0008L112.528 36.7863L113.153 35.0232L124.541 39.0607L123.916 40.8238L118.717 38.9806C119.015 39.4791 119.217 40.0158 119.323 40.5908C119.429 41.1659 119.404 41.7878 119.25 42.4566L122.881 43.7439L122.255 45.507L118.68 44.2392C118.076 45.5344 117.191 46.3992 116.026 46.8336C114.885 47.2562 113.545 47.3084 112.007 46.9903L114.184 57.5308L111.378 56.536Z" fill="currentColor" stroke="currentColor" stroke-width="0.209425"/>
<rect x="88.4092" y="39.0725" width="9.88547" height="6.59031" rx="0.911135" transform="rotate(109.522 88.4092 39.0725)" fill="currentColor" stroke="currentColor" stroke-width="0.209425"/>
<rect x="149.541" y="67.8873" width="45.0338" height="84.5757" rx="0.911135" transform="rotate(70.2724 149.541 67.8873)" fill="currentColor" stroke="currentColor" stroke-width="0.209425"/>
<rect x="148.215" y="70.6962" width="40.6403" height="80.1821" transform="rotate(70.2724 148.215 70.6962)" fill="currentColor" stroke="currentColor" stroke-width="0.273341"/>
<path fill-rule="evenodd" clip-rule="evenodd" d="M156.862 107.272C157.336 107.102 157.582 106.58 157.413 106.106L146.534 75.7701C146.364 75.2965 145.843 75.0502 145.369 75.22L125.953 82.1826C125.1 82.4884 125.145 83.8072 125.984 84.1469C131.165 86.2426 135.463 90.4537 137.498 96.1278C139.533 101.803 138.889 107.787 136.22 112.698C135.787 113.494 136.591 114.541 137.444 114.235L156.862 107.272ZM110.791 123.793C111.644 123.487 111.599 122.168 110.759 121.828C105.578 119.733 101.278 115.521 99.2427 109.846C97.208 104.172 97.8509 98.1888 100.519 93.2787C100.951 92.4827 100.148 91.4361 99.2951 91.7419L77.8116 99.4458C77.338 99.6156 77.0917 100.137 77.2615 100.611L88.14 130.947C88.3098 131.421 88.8315 131.667 89.3052 131.497L110.791 123.793Z" fill="currentColor"/>
<path d="M88.14 130.947L88.2385 130.912L88.14 130.947ZM89.3052 131.497L89.2698 131.399L89.3052 131.497ZM77.2615 100.611L77.163 100.646L77.2615 100.611ZM137.444 114.235L137.479 114.334L137.444 114.235ZM125.984 84.1469L125.945 84.244L125.984 84.1469ZM156.862 107.272L156.898 107.37L156.862 107.272ZM110.759 121.828L110.72 121.925L110.759 121.828ZM110.791 123.793L110.826 123.891L110.791 123.793ZM146.436 75.8055L157.314 106.142L157.511 106.071L146.633 75.7348L146.436 75.8055ZM125.988 82.2812L145.404 75.3186L145.334 75.1215L125.917 82.084L125.988 82.2812ZM125.945 84.244C131.099 86.329 135.375 90.5183 137.399 96.1631L137.596 96.0924C135.551 90.3891 131.23 86.1562 126.024 84.0498L125.945 84.244ZM137.399 96.1631C139.424 101.809 138.784 107.762 136.128 112.648L136.312 112.748C138.995 107.812 139.642 101.797 137.596 96.0924L137.399 96.1631ZM156.827 107.173L137.408 114.136L137.479 114.334L156.898 107.37L156.827 107.173ZM110.799 121.731C105.643 119.646 101.366 115.456 99.3413 109.81L99.1441 109.881C101.19 115.586 105.512 119.819 110.72 121.925L110.799 121.731ZM99.3413 109.81C97.3171 104.166 97.9565 98.2137 100.611 93.3287L100.427 93.2287C97.7452 98.1639 97.0989 104.178 99.1441 109.881L99.3413 109.81ZM77.847 99.5443L99.3304 91.8405L99.2597 91.6433L77.7763 99.3472L77.847 99.5443ZM88.2385 130.912L77.3601 100.576L77.163 100.646L88.0414 130.982L88.2385 130.912ZM110.756 123.694L89.2698 131.399L89.3405 131.596L110.826 123.891L110.756 123.694ZM88.0414 130.982C88.2308 131.511 88.8124 131.785 89.3405 131.596L89.2698 131.399C88.8506 131.549 88.3889 131.331 88.2385 130.912L88.0414 130.982ZM77.7763 99.3472C77.2482 99.5366 76.9736 100.118 77.163 100.646L77.3601 100.576C77.2098 100.156 77.4278 99.6947 77.847 99.5443L77.7763 99.3472ZM100.611 93.3287C100.851 92.8868 100.745 92.3813 100.471 92.0325C100.197 91.6831 99.7384 91.4717 99.2597 91.6433L99.3304 91.8405C99.7045 91.7063 100.074 91.8654 100.307 92.1618C100.54 92.4588 100.619 92.8746 100.427 93.2287L100.611 93.3287ZM136.128 112.648C135.888 113.09 135.994 113.595 136.267 113.944C136.542 114.294 137 114.505 137.479 114.334L137.408 114.136C137.034 114.271 136.665 114.111 136.432 113.815C136.199 113.518 136.119 113.102 136.312 112.748L136.128 112.648ZM125.917 82.084C125.439 82.2557 125.219 82.7104 125.229 83.1545C125.239 83.5978 125.479 84.0554 125.945 84.244L126.024 84.0498C125.65 83.8987 125.447 83.5271 125.438 83.1496C125.43 82.7729 125.614 82.4153 125.988 82.2812L125.917 82.084ZM157.314 106.142C157.464 106.561 157.246 107.023 156.827 107.173L156.898 107.37C157.426 107.181 157.7 106.599 157.511 106.071L157.314 106.142ZM110.72 121.925C111.094 122.076 111.296 122.448 111.305 122.825C111.314 123.202 111.13 123.56 110.756 123.694L110.826 123.891C111.305 123.719 111.525 123.265 111.515 122.82C111.504 122.377 111.265 121.919 110.799 121.731L110.72 121.925ZM146.633 75.7348C146.443 75.2067 145.862 74.9321 145.334 75.1215L145.404 75.3186C145.823 75.1683 146.285 75.3862 146.436 75.8055L146.633 75.7348Z" fill="currentColor"/>
<ellipse cx="118.37" cy="102.986" rx="18.1234" ry="18.1234" transform="rotate(70.2724 118.37 102.986)" fill="currentColor" stroke="currentColor" stroke-width="0.209425"/>
<ellipse cx="118.369" cy="102.986" rx="15.9266" ry="15.9266" transform="rotate(70.2724 118.369 102.986)" fill="currentColor" stroke="currentColor" stroke-width="0.209425"/>
<path d="M121.768 114.018L113.32 106.801L112.886 105.59L113.49 105.373C114.461 105.025 115.243 104.641 115.836 104.222C116.448 103.795 116.871 103.302 117.104 102.742C117.337 102.183 117.359 101.523 117.169 100.763L111.84 102.674L111.208 100.913L116.51 99.0117C116.139 98.379 115.685 97.9207 115.149 97.6367C114.607 97.3345 113.97 97.2006 113.238 97.2353C112.525 97.2634 111.701 97.4449 110.767 97.7798L110.163 97.9966L109.531 96.2357L120.904 92.1574L121.536 93.9182L116.344 95.7801C116.89 95.9775 117.386 96.2654 117.832 96.6438C118.277 97.0222 118.652 97.5193 118.955 98.135L122.582 96.8346L123.213 98.5955L119.642 99.8761C119.994 101.261 119.856 102.49 119.228 103.564C118.612 104.613 117.608 105.501 116.215 106.228L124.57 113.014L121.768 114.018Z" fill="currentColor" stroke="currentColor" stroke-width="0.209425"/>
<rect x="92.9326" y="115.027" width="9.88547" height="6.59031" transform="rotate(70.2724 92.9326 115.027)" fill="currentColor" stroke="currentColor" stroke-width="0.273341"/>
<rect x="145.131" y="50.6853" width="45.0338" height="84.5757" rx="0.911135" transform="rotate(90 145.131 50.6853)" fill="currentColor" stroke="currentColor" stroke-width="0.209425"/>
<rect x="142.935" y="52.8818" width="40.6403" height="80.1821" rx="0.911135" transform="rotate(90 142.935 52.8818)" fill="currentColor" stroke="currentColor" stroke-width="0.209425"/>
<path fill-rule="evenodd" clip-rule="evenodd" d="M138.729 90.2299C139.232 90.2299 139.64 89.8219 139.64 89.3187L139.64 57.0911C139.64 56.5879 139.232 56.1799 138.729 56.1799L118.101 56.1799C117.195 56.1799 116.792 57.4365 117.468 58.0397C121.637 61.761 124.262 67.1761 124.262 73.2042C124.262 79.233 121.637 84.6486 117.467 88.37C116.791 88.9732 117.194 90.2299 118.1 90.2299L138.729 90.2299ZM89.7842 90.2299C90.6902 90.2299 91.0933 88.9732 90.4174 88.37C86.2474 84.6486 83.6219 79.233 83.6219 73.2042C83.6219 67.1761 86.2469 61.761 90.4161 58.0397C91.0919 57.4365 90.6887 56.1799 89.7828 56.1799L66.959 56.1799C66.4558 56.1799 66.0478 56.5879 66.0478 57.0911L66.0478 89.3188C66.0478 89.822 66.4558 90.2299 66.959 90.2299L89.7842 90.2299Z" fill="currentColor"/>
<path d="M66.0478 89.3188L65.9431 89.3188L66.0478 89.3188ZM66.0478 57.0911L66.1525 57.0911L66.0478 57.0911ZM90.4174 88.37L90.3477 88.4481L90.4174 88.37ZM139.535 57.0911L139.535 89.3187L139.744 89.3187L139.744 57.0911L139.535 57.0911ZM118.101 56.2846L138.729 56.2846L138.729 56.0752L118.101 56.0752L118.101 56.2846ZM117.398 58.1178C121.546 61.8201 124.157 67.2071 124.157 73.2042L124.367 73.2042C124.367 67.145 121.728 61.7019 117.538 57.9616L117.398 58.1178ZM124.157 73.2042C124.157 79.202 121.546 84.5895 117.397 88.2918L117.536 88.4481C121.728 84.7077 124.367 79.2641 124.367 73.2042L124.157 73.2042ZM138.729 90.1252L118.1 90.1252L118.1 90.3346L138.729 90.3346L138.729 90.1252ZM90.4871 88.2918C86.3385 84.5895 83.7267 79.202 83.7267 73.2042L83.5172 73.2042C83.5172 79.2641 86.1564 84.7077 90.3477 88.4481L90.4871 88.2918ZM83.7267 73.2042C83.7267 67.2072 86.3379 61.8201 90.4858 58.1178L90.3463 57.9616C86.1558 61.7019 83.5172 67.145 83.5172 73.2042L83.7267 73.2042ZM66.959 56.2847L89.7828 56.2846L89.7828 56.0752L66.959 56.0752L66.959 56.2847ZM66.1525 89.3188L66.1525 57.0911L65.9431 57.0911L65.9431 89.3188L66.1525 89.3188ZM89.7842 90.1252L66.959 90.1252L66.959 90.3346L89.7842 90.3346L89.7842 90.1252ZM65.9431 89.3188C65.9431 89.8798 66.3979 90.3346 66.959 90.3346L66.959 90.1252C66.5136 90.1252 66.1525 89.7641 66.1525 89.3188L65.9431 89.3188ZM66.959 56.0752C66.3979 56.0752 65.9431 56.53 65.9431 57.0911L66.1525 57.0911C66.1525 56.6457 66.5136 56.2847 66.959 56.2847L66.959 56.0752ZM90.4858 58.1178C90.861 57.7829 90.9319 57.2713 90.792 56.8506C90.6518 56.4291 90.2913 56.0752 89.7828 56.0752L89.7828 56.2846C90.1802 56.2846 90.4743 56.5591 90.5932 56.9166C90.7124 57.2749 90.647 57.6932 90.3463 57.9616L90.4858 58.1178ZM117.397 88.2918C117.022 88.6267 116.951 89.1383 117.091 89.5592C117.231 89.9807 117.591 90.3346 118.1 90.3346L118.1 90.1252C117.703 90.1252 117.408 89.8507 117.289 89.4931C117.17 89.1348 117.236 88.7164 117.536 88.4481L117.397 88.2918ZM118.101 56.0752C117.593 56.0752 117.232 56.4291 117.092 56.8506C116.952 57.2713 117.023 57.7829 117.398 58.1178L117.538 57.9616C117.237 57.6932 117.172 57.2749 117.291 56.9166C117.41 56.5591 117.704 56.2846 118.101 56.2846L118.101 56.0752ZM139.535 89.3187C139.535 89.7641 139.174 90.1252 138.729 90.1252L138.729 90.3346C139.29 90.3346 139.744 89.8798 139.744 89.3187L139.535 89.3187ZM90.3477 88.4481C90.6484 88.7164 90.7138 89.1348 90.5947 89.4931C90.4757 89.8507 90.1816 90.1252 89.7842 90.1252L89.7842 90.3346C90.2928 90.3346 90.6532 89.9807 90.7934 89.5592C90.9333 89.1383 90.8624 88.6267 90.4871 88.2918L90.3477 88.4481ZM139.744 57.0911C139.744 56.53 139.29 56.0752 138.729 56.0752L138.729 56.2846C139.174 56.2846 139.535 56.6457 139.535 57.0911L139.744 57.0911Z" fill="currentColor"/>
<ellipse cx="103.942" cy="73.2018" rx="18.1234" ry="18.1234" transform="rotate(90 103.942 73.2018)" fill="currentColor" stroke="currentColor" stroke-width="0.209425"/>
<ellipse cx="103.941" cy="73.2016" rx="15.9266" ry="15.9266" transform="rotate(90 103.941 73.2016)" fill="currentColor" stroke="currentColor" stroke-width="0.209425"/>
<path d="M103.415 84.7341L97.8994 75.0886L97.8994 73.8025L98.5415 73.8025C99.5726 73.8025 100.438 73.7051 101.139 73.5102C101.859 73.3154 102.423 72.9939 102.832 72.5457C103.24 72.0975 103.483 71.4837 103.561 70.7043L97.8994 70.7043L97.8994 68.8336L103.532 68.8336C103.396 68.1127 103.123 67.5281 102.715 67.0799C102.306 66.6122 101.752 66.2712 101.051 66.0569C100.37 65.8426 99.5337 65.7354 98.5415 65.7354L97.8994 65.7354L97.8994 63.8647L109.982 63.8647L109.982 65.7354L104.466 65.7354C104.913 66.1056 105.283 66.544 105.575 67.0507C105.867 67.5573 106.052 68.1516 106.129 68.8336L109.982 68.8336L109.982 70.7043L106.188 70.7043C106.052 72.1267 105.507 73.2374 104.553 74.0363C103.62 74.8158 102.374 75.3127 100.818 75.527L106.392 84.7341L103.415 84.7341Z" fill="currentColor" stroke="currentColor" stroke-width="0.209425"/>
<rect x="75.9326" y="75.9513" width="9.88547" height="6.59031" rx="0.911135" transform="rotate(90 75.9326 75.9513)" fill="currentColor" stroke="currentColor" stroke-width="0.209425"/>
</g>
<defs>
<clipPath id="clip0_2510_96831">
<rect width="128" height="146" rx="10" fill="currentColor"/>
</clipPath>
</defs>
</svg>
