<svg width="20" height="20" viewBox="0 0 20 20" fill="none" xmlns="http://www.w3.org/2000/svg">
<g clip-path="url(#clip0_3218_79722)">
<path d="M0 10C0 15.5228 4.47715 20 10 20C15.5228 20 20 15.5228 20 10C20 4.47715 15.5228 0 10 0C4.47715 0 0 4.47715 0 10Z" fill="white"/>
<path d="M4.98887 6.56152C4.68405 6.56152 4.42969 6.81799 4.42969 7.12711V11.2858C4.42969 11.5885 4.68405 11.8451 4.98887 11.8451C5.29368 11.8451 5.54165 11.5886 5.54165 11.2858V7.12711C5.54165 6.81799 5.29357 6.56152 4.98887 6.56152Z" fill="#191C1F"/>
<path d="M15.3435 8.17629C15.2131 7.86089 15.0134 7.58341 14.7675 7.33528C14.5216 7.10187 14.2315 6.90638 13.9077 6.77186C13.5777 6.63735 13.2246 6.56997 12.8567 6.56997H11.7763C11.7448 6.56152 11.7153 6.56152 11.6838 6.56152C11.3622 6.56152 11.1016 6.81594 11.1016 7.13339V11.2753C11.1016 11.5907 11.3475 11.8324 11.6607 11.8472H12.8567C13.2246 11.8472 13.5777 11.7714 13.9077 11.6369C14.2293 11.5024 14.5215 11.3132 14.7675 11.0798C15.0134 10.8233 15.2131 10.5542 15.3435 10.2305C15.4822 9.90672 15.5494 9.56815 15.5494 9.20868C15.5494 8.85332 15.4822 8.50013 15.3435 8.1764V8.17629ZM13.9751 10.283C13.6724 10.5794 13.273 10.7308 12.8358 10.7308H12.2136V7.67168H12.8358C13.2731 7.67168 13.6724 7.83783 13.9751 8.12787C14.2777 8.41586 14.4376 8.79645 14.4376 9.2064C14.4376 9.61634 14.2778 9.99476 13.9751 10.2829V10.283Z" fill="#191C1F"/>
<path d="M11.9945 5.19885L10.3528 3.55679C10.2393 3.44329 10.0879 3.38859 9.93872 3.39281C9.78951 3.38859 9.63812 3.44112 9.52464 3.55679L7.88296 5.19885C7.66434 5.41752 7.66434 5.77071 7.88296 5.98938C8.10158 6.20806 8.4547 6.20806 8.67332 5.98938L9.41528 5.24726V9.71084L7.43726 6.84935C7.33851 6.67692 7.15562 6.56342 6.94544 6.56342C6.63434 6.56342 6.37793 6.81989 6.37793 7.129V11.2835C6.37793 11.5926 6.63434 11.8491 6.94544 11.8491C7.25654 11.8491 7.51295 11.5926 7.51295 11.2835V8.71008L9.52248 11.601C9.52248 11.6073 9.52248 11.6158 9.53092 11.6242C9.6444 11.7672 9.80423 11.8513 9.98496 11.8513C10.2961 11.8513 10.5462 11.5949 10.5462 11.2858V5.33336L11.2041 5.99144C11.4227 6.21011 11.7759 6.21011 11.9945 5.99144C12.2131 5.77276 12.2131 5.4174 11.9945 5.19885Z" fill="#191C1F"/>
<path d="M4.98887 6.56152C4.68405 6.56152 4.42969 6.81799 4.42969 7.12711V11.2858C4.42969 11.5885 4.68405 11.8451 4.98887 11.8451C5.29368 11.8451 5.54165 11.5886 5.54165 11.2858V7.12711C5.54165 6.81799 5.29357 6.56152 4.98887 6.56152Z" fill="#191C1F"/>
<path d="M15.3435 8.17629C15.2131 7.86089 15.0134 7.58341 14.7675 7.33528C14.5216 7.10187 14.2315 6.90638 13.9077 6.77186C13.5777 6.63735 13.2246 6.56997 12.8567 6.56997H11.7763C11.7448 6.56152 11.7153 6.56152 11.6838 6.56152C11.3622 6.56152 11.1016 6.81594 11.1016 7.13339V11.2753C11.1016 11.5907 11.3475 11.8324 11.6607 11.8472H12.8567C13.2246 11.8472 13.5777 11.7714 13.9077 11.6369C14.2293 11.5024 14.5215 11.3132 14.7675 11.0798C15.0134 10.8233 15.2131 10.5542 15.3435 10.2305C15.4822 9.90672 15.5494 9.56815 15.5494 9.20868C15.5494 8.85332 15.4822 8.50013 15.3435 8.1764V8.17629ZM13.9751 10.283C13.6724 10.5794 13.273 10.7308 12.8358 10.7308H12.2136V7.67168H12.8358C13.2731 7.67168 13.6724 7.83783 13.9751 8.12787C14.2777 8.41586 14.4376 8.79645 14.4376 9.2064C14.4376 9.61634 14.2778 9.99476 13.9751 10.2829V10.283Z" fill="#191C1F"/>
<path d="M11.9945 5.19885L10.3528 3.55679C10.2393 3.44329 10.0879 3.38859 9.93872 3.39281C9.78951 3.38859 9.63812 3.44112 9.52464 3.55679L7.88296 5.19885C7.66434 5.41752 7.66434 5.77071 7.88296 5.98938C8.10158 6.20806 8.4547 6.20806 8.67332 5.98938L9.41528 5.24726V9.71084L7.43726 6.84935C7.33851 6.67692 7.15562 6.56342 6.94544 6.56342C6.63434 6.56342 6.37793 6.81989 6.37793 7.129V11.2835C6.37793 11.5926 6.63434 11.8491 6.94544 11.8491C7.25654 11.8491 7.51295 11.5926 7.51295 11.2835V8.71008L9.52248 11.601C9.52248 11.6073 9.52248 11.6158 9.53092 11.6242C9.6444 11.7672 9.80423 11.8513 9.98496 11.8513C10.2961 11.8513 10.5462 11.5949 10.5462 11.2858V5.33336L11.2041 5.99144C11.4227 6.21011 11.7759 6.21011 11.9945 5.99144C12.2131 5.77276 12.2131 5.4174 11.9945 5.19885Z" fill="#191C1F"/>
<path d="M5.53804 13.7097C5.434 13.6256 5.32997 13.5936 5.21393 13.5936C5.06189 13.5936 4.90584 13.6496 4.90584 13.8017C4.90584 13.9498 5.05388 13.9858 5.32197 14.0498C5.60606 14.1179 5.94216 14.246 5.94216 14.6262C5.94216 15.0944 5.56204 15.2665 5.14191 15.2665C4.92984 15.2665 4.68977 15.2065 4.53772 15.0904C4.4537 15.0264 4.42969 14.9543 4.42969 14.8983C4.42969 14.7862 4.51371 14.6942 4.62975 14.6942C4.68177 14.6942 4.72978 14.7102 4.7938 14.7582C4.90584 14.8463 5.02587 14.8943 5.16192 14.8943C5.30196 14.8943 5.47402 14.8383 5.47402 14.6662C5.47402 14.5061 5.32197 14.4621 5.02988 14.394C4.74579 14.326 4.4617 14.2099 4.4617 13.8457C4.4617 13.4175 4.84582 13.2334 5.22594 13.2334C5.418 13.2334 5.62206 13.2814 5.7581 13.3815C5.85013 13.4495 5.87414 13.5136 5.87414 13.5696C5.87414 13.6776 5.79812 13.7657 5.67808 13.7657C5.63407 13.7657 5.59005 13.7497 5.53804 13.7097Z" fill="#191C1F"/>
<path d="M7.27593 15.1985C7.21191 15.2305 7.12788 15.2505 7.03985 15.2505C6.53169 15.2505 6.41966 14.9383 6.41966 14.5701V13.6736H6.26361C6.07955 13.6736 6.04754 13.5456 6.04754 13.4815C6.04754 13.4175 6.07955 13.2894 6.26361 13.2894H6.41966V12.9573C6.41966 12.7371 6.57571 12.6971 6.65573 12.6971C6.73576 12.6971 6.8918 12.7371 6.8918 12.9573V13.2894H7.1919C7.37596 13.2894 7.40797 13.4175 7.40797 13.4815C7.40797 13.5456 7.37596 13.6736 7.1919 13.6736H6.8918V14.5661C6.8918 14.7542 6.95582 14.8543 7.07586 14.8543C7.09587 14.8543 7.12388 14.8503 7.15189 14.8463C7.1839 14.8423 7.1919 14.8423 7.2079 14.8423C7.32794 14.8423 7.39196 14.9303 7.39196 15.0224C7.39196 15.0984 7.34795 15.1624 7.27593 15.1985Z" fill="#191C1F"/>
<path d="M9.69606 14.242C9.69606 14.8463 9.23191 15.2665 8.65173 15.2665C8.07155 15.2665 7.6074 14.8463 7.6074 14.242C7.6074 13.6376 8.07155 13.2334 8.65173 13.2334C9.23191 13.2334 9.69606 13.6376 9.69606 14.242ZM9.20791 14.242C9.20791 13.9418 9.03185 13.6256 8.65173 13.6256C8.27161 13.6256 8.09556 13.9418 8.09556 14.242C8.09556 14.5421 8.27161 14.8663 8.65173 14.8663C9.03185 14.8663 9.20791 14.5421 9.20791 14.242Z" fill="#191C1F"/>
<path d="M11.362 14.7822C11.422 14.7422 11.474 14.7222 11.518 14.7222C11.6421 14.7222 11.7141 14.8143 11.7141 14.9143C11.7141 14.9824 11.6941 15.0504 11.5861 15.1264C11.45 15.2225 11.238 15.2665 11.0739 15.2665C10.5017 15.2665 10.0496 14.8903 10.0496 14.25C10.0496 13.6256 10.5137 13.2334 11.0779 13.2334C11.262 13.2334 11.446 13.2774 11.5821 13.3695C11.6941 13.4455 11.7181 13.5216 11.7181 13.5776C11.7181 13.6857 11.6381 13.7857 11.51 13.7857C11.466 13.7857 11.422 13.7737 11.35 13.7217C11.286 13.6736 11.1939 13.6336 11.0779 13.6336C10.7258 13.6336 10.5497 13.9498 10.5497 14.25C10.5497 14.5501 10.7178 14.8623 11.0779 14.8623C11.1819 14.8623 11.278 14.8383 11.362 14.7822Z" fill="#191C1F"/>
<path d="M13.7066 14.8034C13.7747 14.8754 13.7907 14.9435 13.7907 14.9875C13.7907 15.1196 13.6906 15.2276 13.5546 15.2276C13.4746 15.2276 13.4106 15.1956 13.3265 15.1035L12.5023 14.2071H12.6035V14.9595C12.6035 15.1876 12.4435 15.2276 12.3634 15.2276C12.2874 15.2276 12.1234 15.1876 12.1234 14.9595V12.9644C12.1234 12.7363 12.2874 12.6963 12.3634 12.6963C12.4435 12.6963 12.6035 12.7363 12.6035 12.9644V14.079H12.5023L13.2825 13.3146C13.3505 13.2465 13.4186 13.2185 13.4826 13.2185C13.6146 13.2185 13.7066 13.3186 13.7066 13.4387C13.7066 13.4947 13.6866 13.5627 13.6066 13.6348L13.0424 14.135L13.7066 14.8034Z" fill="#191C1F"/>
<path d="M15.1453 13.7097C15.0412 13.6256 14.9372 13.5936 14.8212 13.5936C14.6691 13.5936 14.5131 13.6496 14.5131 13.8017C14.5131 13.9498 14.6611 13.9858 14.9292 14.0498C15.2133 14.1179 15.5494 14.246 15.5494 14.6262C15.5494 15.0944 15.1693 15.2665 14.7491 15.2665C14.5371 15.2665 14.297 15.2065 14.145 15.0904C14.0609 15.0264 14.0369 14.9543 14.0369 14.8983C14.0369 14.7862 14.1209 14.6942 14.237 14.6942C14.289 14.6942 14.337 14.7102 14.401 14.7582C14.5131 14.8463 14.6331 14.8943 14.7692 14.8943C14.9092 14.8943 15.0812 14.8383 15.0812 14.6662C15.0812 14.5061 14.9292 14.4621 14.6371 14.394C14.353 14.326 14.0689 14.2099 14.0689 13.8457C14.0689 13.4175 14.4531 13.2334 14.8332 13.2334C15.0252 13.2334 15.2293 13.2814 15.3653 13.3815C15.4574 13.4495 15.4814 13.5136 15.4814 13.5696C15.4814 13.6776 15.4053 13.7657 15.2853 13.7657C15.2413 13.7657 15.1973 13.7497 15.1453 13.7097Z" fill="#191C1F"/>
<path d="M5.53804 13.7097C5.434 13.6256 5.32997 13.5936 5.21393 13.5936C5.06189 13.5936 4.90584 13.6496 4.90584 13.8017C4.90584 13.9498 5.05388 13.9858 5.32197 14.0498C5.60606 14.1179 5.94216 14.246 5.94216 14.6262C5.94216 15.0944 5.56204 15.2665 5.14191 15.2665C4.92984 15.2665 4.68977 15.2065 4.53772 15.0904C4.4537 15.0264 4.42969 14.9543 4.42969 14.8983C4.42969 14.7862 4.51371 14.6942 4.62975 14.6942C4.68177 14.6942 4.72978 14.7102 4.7938 14.7582C4.90584 14.8463 5.02587 14.8943 5.16192 14.8943C5.30196 14.8943 5.47402 14.8383 5.47402 14.6662C5.47402 14.5061 5.32197 14.4621 5.02988 14.394C4.74579 14.326 4.4617 14.2099 4.4617 13.8457C4.4617 13.4175 4.84582 13.2334 5.22594 13.2334C5.418 13.2334 5.62206 13.2814 5.7581 13.3815C5.85013 13.4495 5.87414 13.5136 5.87414 13.5696C5.87414 13.6776 5.79812 13.7657 5.67808 13.7657C5.63407 13.7657 5.59005 13.7497 5.53804 13.7097Z" fill="#191C1F"/>
<path d="M7.27593 15.1985C7.21191 15.2305 7.12788 15.2505 7.03985 15.2505C6.53169 15.2505 6.41966 14.9383 6.41966 14.5701V13.6736H6.26361C6.07955 13.6736 6.04754 13.5456 6.04754 13.4815C6.04754 13.4175 6.07955 13.2894 6.26361 13.2894H6.41966V12.9573C6.41966 12.7371 6.57571 12.6971 6.65573 12.6971C6.73576 12.6971 6.8918 12.7371 6.8918 12.9573V13.2894H7.1919C7.37596 13.2894 7.40797 13.4175 7.40797 13.4815C7.40797 13.5456 7.37596 13.6736 7.1919 13.6736H6.8918V14.5661C6.8918 14.7542 6.95582 14.8543 7.07586 14.8543C7.09587 14.8543 7.12388 14.8503 7.15189 14.8463C7.1839 14.8423 7.1919 14.8423 7.2079 14.8423C7.32794 14.8423 7.39196 14.9303 7.39196 15.0224C7.39196 15.0984 7.34795 15.1624 7.27593 15.1985Z" fill="#191C1F"/>
<path d="M9.69606 14.242C9.69606 14.8463 9.23191 15.2665 8.65173 15.2665C8.07155 15.2665 7.6074 14.8463 7.6074 14.242C7.6074 13.6376 8.07155 13.2334 8.65173 13.2334C9.23191 13.2334 9.69606 13.6376 9.69606 14.242ZM9.20791 14.242C9.20791 13.9418 9.03185 13.6256 8.65173 13.6256C8.27161 13.6256 8.09556 13.9418 8.09556 14.242C8.09556 14.5421 8.27161 14.8663 8.65173 14.8663C9.03185 14.8663 9.20791 14.5421 9.20791 14.242Z" fill="#191C1F"/>
<path d="M11.362 14.7822C11.422 14.7422 11.474 14.7222 11.518 14.7222C11.6421 14.7222 11.7141 14.8143 11.7141 14.9143C11.7141 14.9824 11.6941 15.0504 11.5861 15.1264C11.45 15.2225 11.238 15.2665 11.0739 15.2665C10.5017 15.2665 10.0496 14.8903 10.0496 14.25C10.0496 13.6256 10.5137 13.2334 11.0779 13.2334C11.262 13.2334 11.446 13.2774 11.5821 13.3695C11.6941 13.4455 11.7181 13.5216 11.7181 13.5776C11.7181 13.6857 11.6381 13.7857 11.51 13.7857C11.466 13.7857 11.422 13.7737 11.35 13.7217C11.286 13.6736 11.1939 13.6336 11.0779 13.6336C10.7258 13.6336 10.5497 13.9498 10.5497 14.25C10.5497 14.5501 10.7178 14.8623 11.0779 14.8623C11.1819 14.8623 11.278 14.8383 11.362 14.7822Z" fill="#191C1F"/>
<path d="M13.7066 14.8034C13.7747 14.8754 13.7907 14.9435 13.7907 14.9875C13.7907 15.1196 13.6906 15.2276 13.5546 15.2276C13.4746 15.2276 13.4106 15.1956 13.3265 15.1035L12.5023 14.2071H12.6035V14.9595C12.6035 15.1876 12.4435 15.2276 12.3634 15.2276C12.2874 15.2276 12.1234 15.1876 12.1234 14.9595V12.9644C12.1234 12.7363 12.2874 12.6963 12.3634 12.6963C12.4435 12.6963 12.6035 12.7363 12.6035 12.9644V14.079H12.5023L13.2825 13.3146C13.3505 13.2465 13.4186 13.2185 13.4826 13.2185C13.6146 13.2185 13.7066 13.3186 13.7066 13.4387C13.7066 13.4947 13.6866 13.5627 13.6066 13.6348L13.0424 14.135L13.7066 14.8034Z" fill="#191C1F"/>
<path d="M15.1453 13.7097C15.0412 13.6256 14.9372 13.5936 14.8212 13.5936C14.6691 13.5936 14.5131 13.6496 14.5131 13.8017C14.5131 13.9498 14.6611 13.9858 14.9292 14.0498C15.2133 14.1179 15.5494 14.246 15.5494 14.6262C15.5494 15.0944 15.1693 15.2665 14.7491 15.2665C14.5371 15.2665 14.297 15.2065 14.145 15.0904C14.0609 15.0264 14.0369 14.9543 14.0369 14.8983C14.0369 14.7862 14.1209 14.6942 14.237 14.6942C14.289 14.6942 14.337 14.7102 14.401 14.7582C14.5131 14.8463 14.6331 14.8943 14.7692 14.8943C14.9092 14.8943 15.0812 14.8383 15.0812 14.6662C15.0812 14.5061 14.9292 14.4621 14.6371 14.394C14.353 14.326 14.0689 14.2099 14.0689 13.8457C14.0689 13.4175 14.4531 13.2334 14.8332 13.2334C15.0252 13.2334 15.2293 13.2814 15.3653 13.3815C15.4574 13.4495 15.4814 13.5136 15.4814 13.5696C15.4814 13.6776 15.4053 13.7657 15.2853 13.7657C15.2413 13.7657 15.1973 13.7497 15.1453 13.7097Z" fill="#191C1F"/>
</g>
<defs>
<clipPath id="clip0_3218_79722">
<rect width="20" height="20" fill="white"/>
</clipPath>
</defs>
</svg>
