<svg width="16" height="16" viewBox="0 0 16 16" fill="none" xmlns="http://www.w3.org/2000/svg">
<g clip-path="url(#clip0_3218_80111)">
<path d="M0 8C0 12.4183 3.58172 16 8 16C12.4183 16 16 12.4183 16 8C16 3.58172 12.4183 0 8 0C3.58172 0 0 3.58172 0 8Z" fill="white"/>
<path d="M4.01336 5.62305C3.7743 5.62305 3.57617 5.82352 3.57617 6.06508V9.31289C3.57617 9.54867 3.77445 9.74914 4.01336 9.74914C4.25242 9.74914 4.44477 9.54867 4.44477 9.31289V6.06523C4.44477 5.82352 4.25227 5.62305 4.01336 5.62305Z" fill="#191C1F"/>
<path d="M12.1011 6.88492C11.9992 6.63836 11.8434 6.42133 11.6517 6.22758C11.46 6.0457 11.2323 5.89305 10.9807 5.78742C10.7231 5.6818 10.4476 5.62898 10.16 5.62898H9.31527C9.29137 5.62305 9.2673 5.62305 9.2434 5.62305C8.99184 5.62305 8.78809 5.82258 8.78809 6.06914V9.30305C8.78809 9.54961 8.9798 9.73742 9.22543 9.74914H10.16C10.4475 9.74914 10.7231 9.69039 10.9807 9.58476C11.2323 9.47914 11.46 9.33242 11.6517 9.15039C11.8434 8.95086 11.9992 8.73961 12.1011 8.48711C12.2089 8.23477 12.2628 7.97055 12.2628 7.68883C12.2628 7.4132 12.2089 7.13742 12.1011 6.88492ZM11.0329 8.53086C10.7964 8.76195 10.485 8.88055 10.1425 8.88055H9.65684V6.4918H10.1425C10.485 6.4918 10.7962 6.62227 11.0329 6.84742C11.2696 7.07258 11.394 7.36898 11.394 7.68914C11.394 8.00914 11.2695 8.30555 11.0329 8.53086Z" fill="#191C1F"/>
<path d="M9.48445 4.55873L8.20258 3.27685C8.11352 3.18779 7.9957 3.14576 7.87914 3.14966C7.76258 3.14576 7.64477 3.18794 7.5557 3.27685L6.27383 4.55873C6.1032 4.72935 6.1032 5.00591 6.27383 5.17654C6.44445 5.34716 6.72102 5.34716 6.89164 5.17654L7.4707 4.59748V8.08373L5.92492 5.84982C5.84789 5.71419 5.70586 5.62576 5.53992 5.62576C5.29711 5.62576 5.0957 5.82623 5.0957 6.06779V9.30982C5.0957 9.55154 5.29711 9.75185 5.53992 9.75185C5.78867 9.75185 5.98414 9.55138 5.98414 9.30982V7.29982L7.55367 9.55732C7.55367 9.56326 7.55367 9.56904 7.55961 9.57498C7.64852 9.68701 7.77289 9.75185 7.91492 9.75185C8.15773 9.75185 8.3532 9.55138 8.3532 9.30982V4.66294L8.8668 5.17654C9.03742 5.34716 9.31398 5.34716 9.48461 5.17654C9.65523 5.00591 9.65508 4.72935 9.48445 4.55873Z" fill="#191C1F"/>
<path d="M5.68946 11.1944V11.888C5.68946 11.9838 5.61179 12.0613 5.51616 12.0613C5.42036 12.0613 5.34285 11.9836 5.34285 11.888V11.2927C5.34285 11.128 5.30522 10.9227 5.08272 10.9227C4.86592 10.9227 4.77633 11.125 4.77633 11.3042V11.888C4.77633 11.9838 4.69866 12.0613 4.60303 12.0613C4.50723 12.0613 4.42972 11.9836 4.42972 11.888V11.2233C4.42972 11.0527 4.34877 10.9227 4.17253 10.9227C3.96453 10.9227 3.86907 11.1135 3.86907 11.2984V11.8878C3.86907 11.9836 3.79139 12.0611 3.69577 12.0611C3.59996 12.0611 3.52246 11.9835 3.52246 11.8878V10.8389C3.52246 10.7479 3.59617 10.6742 3.68714 10.6742C3.7781 10.6742 3.85181 10.7479 3.85181 10.8389V10.8967H3.85751C3.91827 10.7608 4.06551 10.6338 4.28801 10.6338C4.50188 10.6338 4.64342 10.7406 4.72144 10.8967C4.81396 10.7291 4.97001 10.6338 5.17801 10.6338C5.53911 10.6338 5.68946 10.9114 5.68946 11.1944Z" fill="#191C1F"/>
<path d="M6.76685 10.6338C7.18596 10.6338 7.521 10.9257 7.521 11.362C7.521 11.7984 7.18578 12.1019 6.76685 12.1019C6.34791 12.1019 6.0127 11.7984 6.0127 11.362C6.0127 10.9257 6.34791 10.6338 6.76685 10.6338ZM6.76685 11.8129C7.0413 11.8129 7.16852 11.5789 7.16852 11.362C7.16852 11.1452 7.0413 10.917 6.76685 10.917C6.49239 10.917 6.36517 11.1454 6.36517 11.362C6.36517 11.5789 6.49239 11.8129 6.76685 11.8129Z" fill="#191C1F"/>
<path d="M8.00472 10.6742H8.03873C8.12037 10.6742 8.18648 10.7403 8.18648 10.8219V10.8967H8.19218C8.25294 10.7579 8.41761 10.6338 8.62268 10.6338C8.98396 10.6338 9.13414 10.9112 9.13414 11.1944V11.9137C9.13414 11.9954 9.06802 12.0615 8.98638 12.0615H8.93494C8.85329 12.0615 8.78718 11.9954 8.78718 11.9137V11.2927C8.78718 11.128 8.74955 10.9227 8.52705 10.9227C8.30749 10.9227 8.2034 11.1135 8.2034 11.2984V11.9136C8.2034 11.9952 8.13729 12.0613 8.05564 12.0613H8.0042C7.92256 12.0613 7.85645 11.9952 7.85645 11.9136V10.8219C7.85696 10.7403 7.92307 10.6742 8.00472 10.6742Z" fill="#191C1F"/>
<path d="M10.7704 11.4775H9.80445C9.81894 11.674 9.99812 11.8186 10.2004 11.8186C10.3242 11.8186 10.4186 11.7832 10.4909 11.723C10.5434 11.6793 10.6204 11.6817 10.6737 11.7244C10.7467 11.7827 10.749 11.8949 10.6761 11.9533C10.5527 12.0522 10.3958 12.1017 10.2035 12.1017C9.77579 12.1017 9.45801 11.8272 9.45801 11.3764C9.45801 10.9284 9.77303 10.6338 10.192 10.6338C10.5791 10.6338 10.8624 10.8851 10.8624 11.3852V11.3859C10.8622 11.4364 10.8211 11.4775 10.7704 11.4775ZM10.5154 11.229C10.5154 11.0498 10.4143 10.8937 10.1889 10.8937C9.98362 10.8937 9.81894 11.0353 9.80445 11.229H10.5154Z" fill="#191C1F"/>
<path d="M11.2536 10.6758C11.3258 10.6758 11.3905 10.7203 11.4164 10.7876L11.7606 11.6844H11.7664L12.072 10.7882C12.0949 10.721 12.1579 10.6758 12.2289 10.6758C12.3456 10.6758 12.4257 10.793 12.3834 10.9017L11.8155 12.3605C11.7172 12.6118 11.5959 12.7565 11.2895 12.7565C11.2802 12.7565 11.2707 12.7563 11.2612 12.756C11.179 12.7532 11.1155 12.6829 11.1234 12.6011L11.1248 12.5859C11.1319 12.5121 11.194 12.4558 11.2681 12.456H11.2693C11.4167 12.456 11.4571 12.3836 11.5149 12.2392L11.5843 12.0629L11.0934 10.919C11.044 10.8037 11.1285 10.6758 11.2536 10.6758Z" fill="#191C1F"/>
</g>
<defs>
<clipPath id="clip0_3218_80111">
<rect width="16" height="16" fill="white"/>
</clipPath>
</defs>
</svg>
