<svg width="24" height="24" viewBox="0 0 24 24" fill="none" xmlns="http://www.w3.org/2000/svg">
<g clip-path="url(#clip0_3479_20962)">
<circle cx="12" cy="12" r="12" fill="currentColor"/>
<path d="M11.5118 6.53649C10.6144 6.85573 10.4487 7.99417 11.2111 8.60184C11.8508 9.11178 12.8641 8.77452 13.0784 7.9805C13.2511 7.34035 12.9208 6.73469 12.28 6.51646C11.9905 6.41786 11.8336 6.42195 11.5118 6.53649Z" fill="currentColor"/>
<path d="M16.9369 8.13597C16.426 8.36746 16.1253 9.02356 16.295 9.53652C16.3721 9.77002 16.6902 10.1155 16.9505 10.2487C17.2052 10.379 17.6408 10.3378 17.956 10.1534C18.903 9.59955 18.5565 8.15399 17.4564 8.06872C17.2777 8.05485 17.0512 8.08419 16.9369 8.13597Z" fill="currentColor"/>
<path d="M6.06324 8.2067C5.23006 8.56902 5.18409 9.7299 5.98753 10.1181C6.34032 10.2885 6.58585 10.2913 6.94347 10.1292C7.48407 9.88429 7.70423 9.24005 7.42534 8.71973C7.15638 8.21802 6.55665 7.99216 6.06324 8.2067Z" fill="currentColor"/>
<path fill-rule="evenodd" clip-rule="evenodd" d="M11.0651 9.8924C10.3002 10.0569 9.70169 10.406 8.97094 11.1136L8.54431 11.5267C8.41559 11.6513 8.21278 11.6564 8.07803 11.5383C7.61542 11.133 6.87273 10.8596 6.23427 10.8596C4.5514 10.8596 3.19837 12.2457 3.29274 13.873C3.33845 14.6608 3.69809 15.1825 4.4142 15.5C4.78304 15.6636 5.59816 15.6378 5.96384 15.4511C6.18739 15.337 6.6766 14.8601 7.26055 14.2843L7.82488 13.728C7.8273 13.7256 7.82736 13.7217 7.82501 13.7192C7.82263 13.7167 7.82273 13.7128 7.82525 13.7104L8.20792 13.3503L8.321 13.2389C8.32174 13.2381 8.32294 13.2381 8.32367 13.2389C8.32439 13.2396 8.32557 13.2396 8.32631 13.2389L8.9076 12.692C9.04418 12.5634 9.16766 12.4032 9.29568 12.2662C9.57847 11.9635 10.1252 11.4623 10.3724 11.3001C10.9583 10.9156 11.8751 10.7636 12.6011 10.9306C13.1623 11.0597 13.6047 11.3361 14.1907 11.9235C14.1926 11.9254 14.1958 11.9254 14.1977 11.9236L14.8514 11.3085C14.9213 11.2427 14.9212 11.1317 14.8518 11.0655C13.7035 9.97003 12.4744 9.58923 11.0651 9.8924ZM7.11913 12.1825C7.31432 12.2925 7.48259 12.4253 7.49306 12.4777C7.5238 12.6319 5.5644 14.5161 5.32618 14.5613C5.02192 14.6191 4.78619 14.5494 4.58805 14.3429C4.35259 14.0977 4.30694 13.7311 4.45052 13.2383C4.59765 12.7331 5.11656 12.192 5.60239 12.0371C6.09593 11.8798 6.68143 11.9359 7.11913 12.1825Z" fill="currentColor"/>
<path fill-rule="evenodd" clip-rule="evenodd" d="M16.5284 11.0561C16.2188 11.1799 15.9564 11.3927 15.7116 11.619L14.7046 12.5496L13.6674 13.6063C13.0668 14.2183 12.4695 14.7712 12.3402 14.835C12.0885 14.9592 11.731 14.9492 11.4576 14.8103C11.3445 14.7529 10.6238 14.0638 10.0119 13.4518C9.81275 13.2526 9.49239 13.2414 9.28203 13.4288C9.05742 13.6289 9.04559 13.9761 9.25604 14.191L9.50939 14.4497C10.1623 15.1165 10.7869 15.7077 10.8975 15.7636C11.5085 16.0727 12.3032 16.0717 12.8765 15.761C13.0637 15.6596 13.652 15.1466 14.2336 14.5777C14.7982 14.0254 15.3285 13.518 15.412 13.4502C15.4979 13.3804 15.623 13.3879 15.7 13.4674L16.5296 14.3231C17.6794 15.509 17.9868 15.701 18.7253 15.6941C19.7275 15.6847 20.5 14.9954 20.6385 13.987C20.6977 13.5567 20.5038 12.7645 20.2236 12.2913C19.7853 11.551 19.0384 11.0228 18.1957 10.8574C17.6868 10.7574 17.0676 10.8404 16.5284 11.0561ZM18.1152 12.0649C18.8036 12.2558 19.3305 12.867 19.4195 13.5784C19.4751 14.0224 19.3449 14.2814 18.9846 14.4436C18.7581 14.5455 18.7177 14.5458 18.4824 14.4477C18.3277 14.3832 17.8599 13.9791 17.299 13.4255L17.2983 13.4249C16.6451 12.78 16.4197 12.5575 16.4629 12.4184C16.4856 12.3451 16.5828 12.2949 16.7312 12.2183L16.7315 12.2182C17.162 11.9961 17.6656 11.9402 18.1152 12.0649Z" fill="currentColor"/>
</g>
<defs>
<clipPath id="clip0_3479_20962">
<rect width="24" height="24" fill="currentColor"/>
</clipPath>
</defs>
</svg>
