<svg width="24" height="24" viewBox="0 0 24 24" fill="none" xmlns="http://www.w3.org/2000/svg">
<g clip-path="url(#clip0_6029_10713)">
<path d="M12.0921 2.747C17.6929 2.11933 22.3279 5.95172 22.4426 11.305C22.5573 16.6583 18.1093 21.5046 12.5086 22.1322C6.90785 22.7599 2.26674 18.9215 2.15207 13.5742C2.0374 8.22701 6.48538 3.37466 12.0921 2.747Z" fill="#EBF7FF" stroke="black" stroke-width="0.075"/>
<path d="M2.21243 12.3555C2.23657 12.1503 2.26071 11.939 2.29692 11.7338C2.31503 11.6192 2.33917 11.5105 2.36331 11.4019C2.40556 11.2088 2.4478 11.0217 2.50212 10.8285C2.5323 10.7199 2.56247 10.6113 2.59868 10.5026C2.65904 10.3095 2.72542 10.1164 2.79785 9.92326C2.83406 9.82669 2.86424 9.73617 2.90648 9.6396C3.00908 9.38612 3.12375 9.13868 3.24446 8.89727C3.25653 8.86709 3.2686 8.83691 3.2867 8.80674C3.42551 8.53515 3.58243 8.2696 3.73935 8.01612C3.78763 7.93766 3.84195 7.8592 3.89626 7.78074C4.01697 7.59969 4.14371 7.41259 4.27649 7.23757C4.32477 7.17118 4.37908 7.10479 4.42737 7.04444C4.57825 6.85131 4.73516 6.67026 4.89812 6.48316C4.93433 6.44092 4.97658 6.39263 5.01279 6.35039C5.09125 6.26589 5.17574 6.18744 5.2542 6.10898C5.42922 5.93395 5.60424 5.75893 5.79133 5.58995C5.91204 5.48735 6.03274 5.38475 6.15345 5.28215C6.29226 5.16748 6.42504 5.05884 6.56988 4.95021C6.71473 4.84157 6.85958 4.74501 7.00442 4.64241C7.13116 4.55792 7.25187 4.47342 7.37861 4.39496C7.54156 4.29237 7.71055 4.1958 7.87953 4.10527C7.9942 4.03888 8.10887 3.9725 8.22958 3.91214C8.41064 3.81558 8.60376 3.73712 8.79086 3.65263C8.90553 3.60435 9.01416 3.54399 9.12883 3.50175C9.30385 3.42932 9.48491 3.36897 9.66597 3.30862C9.80478 3.26034 9.94359 3.20602 10.0884 3.15774C10.2031 3.12153 10.3178 3.09738 10.4385 3.06721C10.6678 3.00686 10.8972 2.94047 11.1386 2.89219C11.4524 2.8258 11.7723 2.77752 12.0982 2.73527C12.2973 2.71113 12.4965 2.69906 12.6957 2.68699C12.8043 2.68095 12.9069 2.68095 13.0155 2.67492C13.1362 2.67492 13.2569 2.66888 13.3716 2.67492C13.4803 2.67492 13.5829 2.67492 13.6855 2.68095C13.8001 2.68095 13.9208 2.69302 14.0355 2.69906C14.1381 2.70509 14.2407 2.71716 14.3433 2.72923C14.458 2.7413 14.5726 2.75338 14.6873 2.77148C14.7899 2.78355 14.8925 2.80166 14.9891 2.81976C15.0856 2.83787 15.1762 2.85597 15.2727 2.87408C15.5564 2.93443 15.84 3.00082 16.1177 3.07928C16.2203 3.10946 16.3229 3.14567 16.4315 3.18188C16.5281 3.21205 16.6246 3.24223 16.7151 3.27844C16.8177 3.31465 16.9203 3.36294 17.0229 3.40518C17.1135 3.44139 17.204 3.47761 17.2945 3.51985C17.3971 3.56813 17.4937 3.61642 17.5963 3.6647C17.6808 3.70695 17.7713 3.74919 17.8558 3.79144C17.9524 3.84576 18.0489 3.90007 18.1455 3.96043C18.224 4.00871 18.3085 4.05096 18.3869 4.09924C18.4533 4.14148 18.5197 4.18977 18.58 4.23201C18.6887 4.30444 18.7973 4.37686 18.9059 4.45532C18.9784 4.50963 19.0448 4.56395 19.1111 4.61827C19.2077 4.69069 19.3043 4.76915 19.4008 4.84761C19.431 4.87175 19.4612 4.90193 19.4914 4.9321C19.7086 5.1192 19.9199 5.32439 20.119 5.53563C20.1492 5.5658 20.1733 5.59598 20.2035 5.62012C20.3846 5.81928 20.5596 6.03052 20.7165 6.24175C20.8131 6.36849 20.9036 6.49523 20.9941 6.62197L20.4087 5.7529C20.3363 5.64426 20.2578 5.53563 20.1794 5.42699C20.1613 5.40889 20.1432 5.39078 20.1311 5.36664C19.9682 5.14937 19.7992 4.94417 19.6181 4.74501C19.6121 4.73294 19.6 4.7269 19.594 4.71483C19.5759 4.69673 19.5517 4.67862 19.5336 4.65448C19.3344 4.44325 19.1293 4.24408 18.9059 4.05096C18.8878 4.03285 18.8697 4.01474 18.8516 3.99664C18.8396 3.98457 18.8275 3.97853 18.8154 3.96646C18.7249 3.888 18.6223 3.81558 18.5257 3.73712C18.4593 3.6828 18.393 3.62849 18.3205 3.57417C18.2119 3.49571 18.1033 3.42329 17.9946 3.35087C17.9343 3.30862 17.88 3.26637 17.8136 3.23016C17.8136 3.23016 17.8015 3.22413 17.7955 3.21809C17.717 3.16981 17.6325 3.12153 17.554 3.07928C17.4575 3.02496 17.3609 2.96461 17.2644 2.91029C17.1799 2.86804 17.0954 2.8258 17.0048 2.78355C16.9022 2.73527 16.8057 2.68095 16.7031 2.63871C16.6125 2.59646 16.522 2.56628 16.4315 2.52404C16.3289 2.48179 16.2263 2.43954 16.1237 2.39729C16.0332 2.36108 15.9366 2.33091 15.84 2.30073C15.7435 2.27055 15.6469 2.23434 15.5503 2.20417C15.5443 2.20417 15.5383 2.20417 15.5262 2.20417C15.2486 2.11967 14.971 2.05329 14.6813 1.99897C14.6511 1.99293 14.6209 1.98086 14.5847 1.97483C14.5244 1.96276 14.458 1.95672 14.3976 1.94465C14.295 1.92655 14.1984 1.90844 14.0958 1.89637C13.9812 1.87826 13.8665 1.86619 13.7518 1.85412C13.6492 1.84205 13.5466 1.83602 13.444 1.82395C13.3294 1.81791 13.2087 1.81188 13.094 1.80584C12.9914 1.80584 12.8828 1.7998 12.7802 1.7998C12.6595 1.7998 12.5448 1.7998 12.4241 1.7998C12.3154 1.7998 12.2128 1.7998 12.1042 1.81188C12.068 1.81188 12.0318 1.81188 11.9956 1.81188C11.8326 1.82395 11.6697 1.83602 11.5007 1.85412C11.1989 1.89033 10.9032 1.93258 10.6135 1.99293C10.5894 1.99293 10.5652 2.005 10.5411 2.01104C10.3057 2.05932 10.0764 2.11967 9.84099 2.18606C9.73839 2.21624 9.62976 2.23434 9.52716 2.26452C9.51509 2.26452 9.50302 2.27055 9.49095 2.27659C9.3461 2.31884 9.20729 2.37315 9.06848 2.42747C8.90553 2.48179 8.73654 2.53611 8.57962 2.60249C8.56152 2.60853 8.54945 2.61456 8.53134 2.6206C8.41667 2.66888 8.30804 2.7232 8.19337 2.77148C8.03041 2.8439 7.86746 2.91029 7.70451 2.98875C7.68037 3.00082 7.65623 3.01893 7.63209 3.031C7.51138 3.09135 7.40275 3.15774 7.28204 3.22413C7.14927 3.29655 7.01046 3.36897 6.87768 3.44743C6.84147 3.46554 6.81129 3.48968 6.78112 3.51382C6.65438 3.59228 6.53367 3.67677 6.40693 3.76126C6.2983 3.83369 6.18363 3.90611 6.07499 3.98457C6.03878 4.00871 6.0086 4.03888 5.97239 4.06906C5.82755 4.1777 5.69477 4.28633 5.55596 4.401C5.46543 4.47946 5.36283 4.54585 5.2723 4.6243C5.24213 4.64845 5.21799 4.67862 5.18781 4.70276C5.00072 4.87175 4.82569 5.04677 4.65067 5.22179C4.58428 5.28818 4.51186 5.34854 4.45151 5.41492C4.4334 5.43303 4.42133 5.45113 4.40926 5.46321C4.36701 5.50545 4.3308 5.55373 4.29459 5.59598C4.13164 5.77704 3.97472 5.96413 3.82384 6.15726C3.77556 6.22365 3.72124 6.284 3.67296 6.35039C3.63675 6.39867 3.5945 6.45299 3.55829 6.50127C3.46776 6.62801 3.38327 6.76079 3.29877 6.89356C3.24446 6.97202 3.19014 7.04444 3.14186 7.12894C2.97891 7.38845 2.82802 7.654 2.68921 7.92559C2.67714 7.95577 2.66507 7.97991 2.64697 8.01008C2.52626 8.25149 2.41159 8.50497 2.30899 8.75242C2.27278 8.84295 2.23657 8.93951 2.20036 9.03608C2.12793 9.22921 2.06155 9.42233 2.00119 9.61546C1.96498 9.7241 1.93481 9.83273 1.91066 9.94137C1.85635 10.1285 1.8141 10.3216 1.77185 10.5147C1.74771 10.6233 1.72357 10.738 1.70547 10.8467C1.66925 11.0519 1.64511 11.2631 1.62097 11.4683C1.6089 11.5648 1.59683 11.6614 1.5908 11.764C1.56666 12.0718 1.55458 12.3796 1.56062 12.6874C1.59683 14.4437 2.1219 16.043 3.01512 17.3647L3.60054 18.2338C2.71335 16.906 2.18829 15.3127 2.14604 13.5565C2.14 13.2487 2.14604 12.9349 2.17622 12.6331C2.18225 12.5365 2.20036 12.44 2.20639 12.3374L2.21243 12.3555Z" fill="#017AFF" stroke="black" stroke-width="0.075"/>
<path d="M12.1221 4.12916C16.9268 3.59025 20.9005 6.87566 20.9979 11.4661C21.0953 16.0566 17.2839 20.2121 12.4792 20.7445C7.67444 21.2769 3.70078 17.998 3.60339 13.414C3.50599 8.82353 7.31733 4.66807 12.1221 4.12916Z" fill="#017AFF" stroke="black" stroke-width="0.075"/>
<path d="M12.488 18.228L12.422 18.126L9.77002 13.626L9.84202 13.728L12.488 18.228Z" fill="#EBF7FF" stroke="black" stroke-width="0.075"/>
<path d="M9.8423 13.7282L9.7703 13.6262L9.7583 12.9902L9.8303 13.0922L9.8423 13.7282Z" fill="#EBF7FF" stroke="black" stroke-width="0.075"/>
<path d="M12.3143 11.8146C12.3503 11.6466 12.4883 11.3466 12.3443 11.1846C12.3143 12.4266 11.1263 12.8706 10.0523 12.9606L9.7583 12.9906L9.8303 13.0986C10.7723 13.0086 11.9603 12.8346 12.3143 11.8146Z" fill="#EBF7FF" stroke="black" stroke-width="0.075"/>
<path d="M13.5803 10.2364L13.5083 10.1344L15.2843 9.94238L15.3563 10.0504L13.5803 10.2364Z" fill="#EBF7FF" stroke="black" stroke-width="0.075"/>
<mask id="mask0_6029_10713" style="mask-type:luminance" maskUnits="userSpaceOnUse" x="12" y="9" width="1" height="2">
<path d="M12.0571 9.6123C12.2131 9.8343 12.3151 10.0563 12.3751 10.3623C12.2311 10.1283 12.2191 9.8223 12.0571 9.6123Z" fill="white" stroke="white" stroke-width="0.075"/>
</mask>
<g mask="url(#mask0_6029_10713)">
<path d="M12.3754 10.3623C12.2314 10.1283 12.2194 9.8223 12.0574 9.6123C12.2134 9.8343 12.3154 10.0563 12.3754 10.3623Z" fill="#EBF7FF" stroke="black" stroke-width="0.075"/>
</g>
<path d="M13.04 9.03062C13.118 9.11462 13.19 9.20462 13.256 9.30662C13.166 9.16862 13.07 9.01862 12.95 8.90462C12.878 8.82662 12.794 8.74862 12.71 8.68262C12.788 8.82662 12.938 8.91062 13.04 9.03062Z" fill="#EBF7FF" stroke="black" stroke-width="0.075"/>
<path d="M9.79396 11.5623L9.72796 11.4543L9.70996 10.5303L9.77596 10.6383L9.79396 11.5623Z" fill="#EBF7FF" stroke="black" stroke-width="0.075"/>
<path d="M9.77596 10.6387L9.70996 10.5307L12.308 10.2607L12.374 10.3627L9.77596 10.6387Z" fill="#EBF7FF" stroke="black" stroke-width="0.075"/>
<path d="M9.72825 8.17828L9.65625 8.07628L15.2363 7.48828L15.3022 7.59628L9.72825 8.17828Z" fill="#EBF7FF" stroke="black" stroke-width="0.075"/>
<path d="M9.74625 9.10217L9.67425 9.00017L9.65625 8.07617L9.72825 8.17817L9.74625 9.10217Z" fill="#EBF7FF" stroke="black" stroke-width="0.075"/>
<path d="M15.3025 7.59668L15.3205 8.52068L12.7705 8.79068C13.2325 9.15668 13.4965 9.62468 13.5745 10.2427L15.3505 10.0567L15.3685 10.9807L13.6165 11.1667C13.5265 12.6187 12.5665 13.4587 11.1865 13.8127L13.8565 18.0907L12.4825 18.2347L9.84252 13.7287L9.83052 13.0927C11.0305 13.0027 12.3625 12.6727 12.4165 11.2867L9.80052 11.5627L9.78252 10.6387L12.3805 10.3627C12.1645 9.06668 10.8805 8.92868 9.74652 9.10268L9.72852 8.17868L15.3025 7.59668Z" fill="#EBF7FF" stroke="black" stroke-width="0.075"/>
<circle cx="22.0505" cy="2.175" r="1.8" fill="#DF3C27"/>
</g>
<defs>
<clipPath id="clip0_6029_10713">
<rect width="24" height="24" fill="white"/>
</clipPath>
</defs>
</svg>
