<svg width="20" height="20" viewBox="0 0 20 20" fill="none" xmlns="http://www.w3.org/2000/svg">
<g clip-path="url(#clip0_3218_79853)">
<g clip-path="url(#clip1_3218_79853)">
<path d="M0 10C0 15.5228 4.47715 20 10 20C15.5228 20 20 15.5228 20 10C20 4.47715 15.5228 0 10 0C4.47715 0 0 4.47715 0 10Z" fill="currentColor"/>
<path d="M5.43269 6.4834C5.15423 6.4834 4.92188 6.71769 4.92188 7.00006V10.7991C4.92188 11.0756 5.15423 11.31 5.43269 11.31C5.71114 11.31 5.93766 11.0757 5.93766 10.7991V7.00006C5.93766 6.71769 5.71104 6.4834 5.43269 6.4834Z" fill="currentColor"/>
<path d="M14.8916 7.9585C14.7725 7.67038 14.5901 7.4169 14.3655 7.19023C14.1408 6.97701 13.8758 6.79842 13.5801 6.67554C13.2785 6.55266 12.956 6.49112 12.62 6.49112H11.633C11.6042 6.4834 11.5773 6.4834 11.5485 6.4834C11.2547 6.4834 11.0166 6.71581 11.0166 7.0058V10.7895C11.0166 11.0776 11.2412 11.2984 11.5274 11.3119H12.62C12.956 11.3119 13.2785 11.2427 13.5801 11.1198C13.8738 10.9969 14.1407 10.8241 14.3655 10.6109C14.5901 10.3766 14.7725 10.1307 14.8916 9.83499C15.0183 9.53926 15.0797 9.22997 15.0797 8.90159C15.0797 8.57697 15.0183 8.25433 14.8916 7.9586V7.9585ZM13.6416 9.88297C13.3651 10.1538 13.0002 10.2921 12.6009 10.2921H12.0325V7.49753H12.6009C13.0003 7.49753 13.3651 7.64931 13.6416 7.91427C13.9181 8.17735 14.0641 8.52502 14.0641 8.89951C14.0641 9.27399 13.9182 9.61969 13.6416 9.88287V9.88297Z" fill="currentColor"/>
<path d="M11.8329 5.23793L10.3332 3.7379C10.2295 3.63421 10.0913 3.58425 9.95495 3.58811C9.81865 3.58425 9.68036 3.63223 9.57669 3.7379L8.077 5.23793C7.87729 5.43769 7.87729 5.76033 8.077 5.96009C8.27672 6.15985 8.59929 6.15985 8.799 5.96009L9.47678 5.28216V9.35967L7.66986 6.74568C7.57964 6.58816 7.41257 6.48447 7.22057 6.48447C6.93638 6.48447 6.70215 6.71876 6.70215 7.00114V10.7963C6.70215 11.0786 6.93638 11.3129 7.22057 11.3129C7.50476 11.3129 7.739 11.0786 7.739 10.7963V8.44546L9.57471 11.0864C9.57471 11.0921 9.57471 11.0998 9.58243 11.1075C9.68609 11.2381 9.8321 11.315 9.99719 11.315C10.2814 11.315 10.5099 11.0807 10.5099 10.7984V5.36081L11.1109 5.96197C11.3106 6.16173 11.6332 6.16173 11.8329 5.96197C12.0326 5.76221 12.0326 5.43758 11.8329 5.23793Z" fill="currentColor"/>
<path d="M5.43269 6.4834C5.15423 6.4834 4.92188 6.71769 4.92188 7.00006V10.7991C4.92188 11.0756 5.15423 11.31 5.43269 11.31C5.71114 11.31 5.93766 11.0757 5.93766 10.7991V7.00006C5.93766 6.71769 5.71104 6.4834 5.43269 6.4834Z" fill="currentColor"/>
<path d="M14.8916 7.9585C14.7725 7.67038 14.5901 7.4169 14.3655 7.19023C14.1408 6.97701 13.8758 6.79842 13.5801 6.67554C13.2785 6.55266 12.956 6.49112 12.62 6.49112H11.633C11.6042 6.4834 11.5773 6.4834 11.5485 6.4834C11.2547 6.4834 11.0166 6.71581 11.0166 7.0058V10.7895C11.0166 11.0776 11.2412 11.2984 11.5274 11.3119H12.62C12.956 11.3119 13.2785 11.2427 13.5801 11.1198C13.8738 10.9969 14.1407 10.8241 14.3655 10.6109C14.5901 10.3766 14.7725 10.1307 14.8916 9.83499C15.0183 9.53926 15.0797 9.22997 15.0797 8.90159C15.0797 8.57697 15.0183 8.25433 14.8916 7.9586V7.9585ZM13.6416 9.88297C13.3651 10.1538 13.0002 10.2921 12.6009 10.2921H12.0325V7.49753H12.6009C13.0003 7.49753 13.3651 7.64931 13.6416 7.91427C13.9181 8.17735 14.0641 8.52502 14.0641 8.89951C14.0641 9.27399 13.9182 9.61969 13.6416 9.88287V9.88297Z" fill="currentColor"/>
<path d="M11.8329 5.23793L10.3332 3.7379C10.2295 3.63421 10.0913 3.58425 9.95495 3.58811C9.81865 3.58425 9.68036 3.63223 9.57669 3.7379L8.077 5.23793C7.87729 5.43769 7.87729 5.76033 8.077 5.96009C8.27672 6.15985 8.59929 6.15985 8.799 5.96009L9.47678 5.28216V9.35967L7.66986 6.74568C7.57964 6.58816 7.41257 6.48447 7.22057 6.48447C6.93638 6.48447 6.70215 6.71876 6.70215 7.00114V10.7963C6.70215 11.0786 6.93638 11.3129 7.22057 11.3129C7.50476 11.3129 7.739 11.0786 7.739 10.7963V8.44546L9.57471 11.0864C9.57471 11.0921 9.57471 11.0998 9.58243 11.1075C9.68609 11.2381 9.8321 11.315 9.99719 11.315C10.2814 11.315 10.5099 11.0807 10.5099 10.7984V5.36081L11.1109 5.96197C11.3106 6.16173 11.6332 6.16173 11.8329 5.96197C12.0326 5.76221 12.0326 5.43758 11.8329 5.23793Z" fill="currentColor"/>
<path d="M14.3457 12.1431C14.3457 12.0204 14.4452 11.9209 14.5679 11.9209C14.6907 11.9209 14.7902 12.0204 14.7902 12.1431V14.3528C14.7902 14.4755 14.6907 14.575 14.5679 14.575C14.4452 14.575 14.3457 14.4755 14.3457 14.3528V12.1431Z" fill="currentColor"/>
<path d="M13.5519 14.3514C13.5519 14.3475 13.5488 14.3444 13.5449 14.3444C13.5424 14.3444 13.5401 14.3457 13.5388 14.3479C13.4942 14.4254 13.4233 14.4896 13.326 14.5407C13.2272 14.5901 13.1149 14.6148 12.989 14.6148C12.9173 14.6148 12.842 14.6049 12.763 14.5852C12.6865 14.5679 12.6149 14.5382 12.5482 14.4962C12.484 14.4518 12.4297 14.395 12.3852 14.3258C12.3433 14.2542 12.3223 14.1665 12.3223 14.0628C12.3223 13.9294 12.3593 13.8232 12.4334 13.7442C12.5099 13.6652 12.6075 13.6047 12.726 13.5627C12.8445 13.5207 12.9754 13.4935 13.1186 13.4812C13.2487 13.4679 13.3759 13.4606 13.5001 13.4592C13.5246 13.4589 13.5445 13.439 13.5445 13.4145C13.5445 13.3033 13.5038 13.2218 13.4223 13.17C13.3433 13.1156 13.2482 13.0885 13.1371 13.0885C13.0433 13.0885 12.9532 13.1082 12.8667 13.1477C12.8444 13.158 12.823 13.1688 12.8027 13.1801C12.714 13.2296 12.5956 13.2259 12.5299 13.1486C12.4697 13.0777 12.4753 12.9704 12.5529 12.9191C12.6201 12.8747 12.6927 12.8385 12.7704 12.8106C12.9038 12.7637 13.0383 12.7402 13.1741 12.7402C13.3322 12.7402 13.4618 12.7625 13.563 12.8069C13.6668 12.8514 13.7482 12.9094 13.8075 12.981C13.8668 13.0527 13.9075 13.1329 13.9297 13.2218C13.9544 13.3108 13.9668 13.3997 13.9668 13.4886V14.3629C13.9668 14.4775 13.8739 14.5703 13.7594 14.5703H13.6649C13.6025 14.5703 13.5519 14.5197 13.5519 14.4573V14.3514ZM13.5445 13.822C13.5445 13.7872 13.5163 13.759 13.4816 13.759H13.4445C13.3729 13.759 13.2976 13.7627 13.2186 13.7701C13.1396 13.7751 13.0667 13.7887 13.0001 13.8109C12.9334 13.8306 12.8778 13.8603 12.8334 13.8998C12.7889 13.9368 12.7667 13.9887 12.7667 14.0554C12.7667 14.0974 12.7754 14.1332 12.7927 14.1628C12.8124 14.19 12.8371 14.2122 12.8667 14.2295C12.8964 14.2468 12.9297 14.2591 12.9667 14.2666C13.0038 14.274 13.0408 14.2777 13.0778 14.2777C13.2309 14.2777 13.347 14.2369 13.426 14.1554C13.505 14.0739 13.5445 13.9628 13.5445 13.822Z" fill="currentColor"/>
<path d="M10.4742 11.9209C10.5969 11.9209 10.6964 12.0204 10.6964 12.1431V13.0153C10.6964 13.0194 10.6997 13.0227 10.7038 13.0227C10.7062 13.0227 10.7083 13.0216 10.7098 13.0198C10.7316 12.991 10.7593 12.9612 10.7927 12.9301C10.8273 12.898 10.868 12.8684 10.9149 12.8412C10.9643 12.814 11.0211 12.7918 11.0853 12.7745C11.1495 12.7548 11.2224 12.7449 11.3038 12.7449C11.4298 12.7449 11.5458 12.7696 11.652 12.819C11.7582 12.8659 11.8495 12.9313 11.9261 13.0153C12.0026 13.0993 12.0619 13.1981 12.1039 13.3117C12.1458 13.4253 12.1668 13.5476 12.1668 13.6785C12.1668 13.8094 12.1458 13.9328 12.1039 14.0489C12.0644 14.1625 12.0063 14.2626 11.9298 14.349C11.8557 14.433 11.7643 14.5009 11.6557 14.5528C11.5495 14.6022 11.4285 14.6269 11.2927 14.6269C11.1668 14.6269 11.0483 14.5997 10.9372 14.5453C10.8293 14.4914 10.7446 14.4132 10.683 14.3106C10.6821 14.3091 10.6806 14.3082 10.6789 14.3082C10.6763 14.3082 10.6742 14.3104 10.6742 14.313V14.4416C10.6742 14.5153 10.6145 14.575 10.5408 14.575H10.4631C10.3465 14.575 10.252 14.4805 10.252 14.3639V12.1431C10.252 12.0204 10.3514 11.9209 10.4742 11.9209ZM11.715 13.6785C11.715 13.6093 11.7039 13.5414 11.6816 13.4747C11.6619 13.4055 11.631 13.3438 11.589 13.2895C11.5471 13.2351 11.494 13.1919 11.4298 13.1598C11.3656 13.1252 11.2903 13.1079 11.2038 13.1079C11.1224 13.1079 11.0495 13.1252 10.9853 13.1598C10.9211 13.1944 10.8656 13.2388 10.8186 13.2932C10.7742 13.3475 10.7396 13.4093 10.7149 13.4784C10.6927 13.5476 10.6816 13.6167 10.6816 13.6859C10.6816 13.755 10.6927 13.8242 10.7149 13.8933C10.7396 13.96 10.7742 14.0205 10.8186 14.0749C10.8656 14.1292 10.9211 14.1736 10.9853 14.2082C11.0495 14.2403 11.1224 14.2564 11.2038 14.2564C11.2903 14.2564 11.3656 14.2391 11.4298 14.2045C11.494 14.1699 11.5471 14.1255 11.589 14.0712C11.631 14.0168 11.6619 13.9551 11.6816 13.8859C11.7039 13.8168 11.715 13.7476 11.715 13.6785Z" fill="currentColor"/>
<path d="M8.02637 13.6738C8.02637 13.533 8.05106 13.4058 8.10044 13.2922C8.1523 13.1761 8.22144 13.0774 8.30786 12.9959C8.39428 12.9144 8.49675 12.8514 8.61528 12.8069C8.7338 12.7625 8.85973 12.7402 8.99307 12.7402C9.1264 12.7402 9.25233 12.7625 9.37086 12.8069C9.48938 12.8514 9.59185 12.9144 9.67828 12.9959C9.7647 13.0774 9.8326 13.1761 9.88199 13.2922C9.93384 13.4058 9.95977 13.533 9.95977 13.6738C9.95977 13.8146 9.93384 13.943 9.88199 14.0591C9.8326 14.1752 9.7647 14.2752 9.67828 14.3592C9.59185 14.4407 9.48938 14.5049 9.37086 14.5518C9.25233 14.5987 9.1264 14.6222 8.99307 14.6222C8.85973 14.6222 8.7338 14.5987 8.61528 14.5518C8.49675 14.5049 8.39428 14.4407 8.30786 14.3592C8.22144 14.2752 8.1523 14.1752 8.10044 14.0591C8.05106 13.943 8.02637 13.8146 8.02637 13.6738ZM8.47823 13.6738C8.47823 13.743 8.48811 13.8121 8.50786 13.8813C8.53009 13.9504 8.56219 14.0122 8.60416 14.0665C8.64614 14.1208 8.69923 14.1653 8.76343 14.1999C8.82763 14.2344 8.90417 14.2517 8.99307 14.2517C9.08196 14.2517 9.1585 14.2344 9.2227 14.1999C9.2869 14.1653 9.33999 14.1208 9.38197 14.0665C9.42395 14.0122 9.45481 13.9504 9.47456 13.8813C9.49679 13.8121 9.5079 13.743 9.5079 13.6738C9.5079 13.6047 9.49679 13.5367 9.47456 13.4701C9.45481 13.4009 9.42395 13.3392 9.38197 13.2848C9.33999 13.2305 9.2869 13.1873 9.2227 13.1552C9.1585 13.1206 9.08196 13.1033 8.99307 13.1033C8.90417 13.1033 8.82763 13.1206 8.76343 13.1552C8.69923 13.1873 8.64614 13.2305 8.60416 13.2848C8.56219 13.3392 8.53009 13.4009 8.50786 13.4701C8.48811 13.5367 8.47823 13.6047 8.47823 13.6738Z" fill="currentColor"/>
<path d="M7.29297 12.1431C7.29297 12.0204 7.39246 11.9209 7.5152 11.9209C7.63793 11.9209 7.73743 12.0204 7.73743 12.1431V14.3528C7.73743 14.4755 7.63793 14.575 7.5152 14.575C7.39246 14.575 7.29297 14.4755 7.29297 14.3528V12.1431Z" fill="currentColor"/>
<path d="M6.68834 12.7921C6.80494 12.7921 6.89946 12.8866 6.89946 13.0032V14.411C6.89946 14.5716 6.8797 14.7161 6.8402 14.8445C6.80069 14.9754 6.73896 15.0853 6.655 15.1742C6.57352 15.2656 6.46981 15.336 6.34388 15.3854C6.21795 15.4348 6.06856 15.4595 5.89572 15.4595C5.82411 15.4595 5.74757 15.4533 5.66608 15.4409C5.58707 15.4286 5.50805 15.4101 5.42904 15.3854C5.35249 15.3607 5.27841 15.3298 5.20681 15.2927C5.19657 15.2874 5.18648 15.282 5.17654 15.2765C5.0803 15.2233 5.06559 15.0975 5.13112 15.0092C5.20491 14.9097 5.34863 14.8996 5.45738 14.9589C5.49114 14.9773 5.52614 14.9935 5.56237 15.0075C5.67102 15.0519 5.7809 15.0742 5.89202 15.0742C5.99819 15.0742 6.08708 15.0581 6.15869 15.026C6.23277 14.9964 6.29079 14.9544 6.33277 14.9001C6.37722 14.8457 6.40808 14.7815 6.42537 14.7074C6.44512 14.6333 6.455 14.5518 6.455 14.4629V14.3382C6.455 14.3354 6.45279 14.3332 6.45007 14.3332C6.44851 14.3332 6.44704 14.334 6.44611 14.3352C6.38212 14.4207 6.29989 14.4867 6.19943 14.5333C6.10066 14.5777 5.98955 14.6 5.86609 14.6C5.73275 14.6 5.61176 14.5753 5.50311 14.5259C5.39447 14.4765 5.30187 14.4098 5.22533 14.3258C5.15125 14.2419 5.09322 14.1443 5.05125 14.0332C5.00927 13.9196 4.98828 13.7998 4.98828 13.6738C4.98828 13.5454 5.00804 13.4244 5.04754 13.3108C5.08952 13.1971 5.14755 13.0984 5.22162 13.0144C5.29817 12.9304 5.38953 12.8637 5.49571 12.8143C5.60435 12.7649 5.72534 12.7402 5.85868 12.7402C5.98461 12.7402 6.1019 12.7662 6.21054 12.818C6.31842 12.8695 6.40438 12.949 6.46844 13.0565C6.46929 13.0579 6.47084 13.0588 6.4725 13.0588C6.47511 13.0588 6.47722 13.0567 6.47722 13.0541V12.9255C6.47722 12.8518 6.53693 12.7921 6.61059 12.7921H6.68834ZM5.95128 13.1033C5.86979 13.1033 5.79695 13.1181 5.73275 13.1477C5.67102 13.1774 5.61793 13.2181 5.57349 13.27C5.53151 13.3194 5.49818 13.3787 5.47348 13.4478C5.45126 13.517 5.44015 13.5911 5.44015 13.6701C5.44015 13.7417 5.45126 13.8109 5.47348 13.8776C5.49818 13.9442 5.53151 14.0048 5.57349 14.0591C5.61793 14.111 5.67102 14.1529 5.73275 14.1851C5.79695 14.2172 5.86856 14.2332 5.94757 14.2332C6.02906 14.2332 6.1019 14.2184 6.1661 14.1888C6.23277 14.1567 6.28833 14.1147 6.33277 14.0628C6.37969 14.0109 6.41549 13.9517 6.44018 13.885C6.46487 13.8158 6.47722 13.7442 6.47722 13.6701C6.47722 13.5935 6.46487 13.5207 6.44018 13.4515C6.41549 13.3824 6.37969 13.3219 6.33277 13.27C6.28833 13.2181 6.234 13.1774 6.1698 13.1477C6.1056 13.1181 6.03276 13.1033 5.95128 13.1033Z" fill="currentColor"/>
</g>
</g>
<defs>
<clipPath id="clip0_3218_79853">
<rect width="20" height="20" fill="currentColor"/>
</clipPath>
<clipPath id="clip1_3218_79853">
<rect width="20" height="20" fill="currentColor"/>
</clipPath>
</defs>
</svg>
