<svg width="20" height="20" viewBox="0 0 20 20" fill="none" xmlns="http://www.w3.org/2000/svg">
<g clip-path="url(#clip0_3218_80010)">
<g clip-path="url(#clip1_3218_80010)">
<path d="M0 10C0 15.5228 4.47715 20 10 20C15.5228 20 20 15.5228 20 10C20 4.47715 15.5228 0 10 0C4.47715 0 0 4.47715 0 10Z" fill="currentColor"/>
<path d="M5.31203 7.30371C5.01045 7.30371 4.75879 7.55746 4.75879 7.86329V11.9779C4.75879 12.2774 5.01045 12.5312 5.31203 12.5312C5.61362 12.5312 5.85895 12.2775 5.85895 11.9779V7.86329C5.85895 7.55746 5.61351 7.30371 5.31203 7.30371Z" fill="currentColor"/>
<path d="M15.5563 8.90134C15.4273 8.58929 15.2297 8.31476 14.9864 8.06925C14.7431 7.83832 14.4561 7.64491 14.1358 7.51182C13.8092 7.37873 13.4599 7.31207 13.0959 7.31207H12.0269C11.9958 7.30371 11.9666 7.30371 11.9354 7.30371C11.6172 7.30371 11.3594 7.55543 11.3594 7.86951V11.9675C11.3594 12.2795 11.6027 12.5187 11.9126 12.5333H13.0959C13.4599 12.5333 13.8092 12.4584 14.1358 12.3253C14.4539 12.1922 14.743 12.005 14.9864 11.774C15.2297 11.5203 15.4273 11.254 15.5563 10.9337C15.6935 10.6134 15.76 10.2784 15.76 9.92278C15.76 9.57119 15.6935 9.22175 15.5563 8.90145V8.90134ZM14.2024 10.9857C13.903 11.279 13.5077 11.4288 13.0752 11.4288H12.4597V8.40209H13.0752C13.5079 8.40209 13.903 8.56647 14.2024 8.85344C14.5018 9.13837 14.66 9.51493 14.66 9.92052C14.66 10.3261 14.502 10.7005 14.2024 10.9856V10.9857Z" fill="currentColor"/>
<path d="M12.2435 5.9453L10.6192 4.32067C10.5069 4.20837 10.3572 4.15426 10.2095 4.15844C10.0619 4.15426 9.91212 4.20623 9.79985 4.32067L8.17558 5.9453C7.95928 6.16166 7.95928 6.5111 8.17558 6.72745C8.39189 6.94381 8.74125 6.94381 8.95756 6.72745L9.69164 5.99321V10.4094L7.73462 7.57829C7.63691 7.4077 7.45596 7.2954 7.24801 7.2954C6.94022 7.2954 6.68652 7.54915 6.68652 7.85498V11.9654C6.68652 12.2712 6.94022 12.5249 7.24801 12.5249C7.55581 12.5249 7.8095 12.2712 7.8095 11.9654V9.41928L9.7977 12.2796C9.7977 12.2858 9.7977 12.2941 9.80606 12.3025C9.91834 12.4439 10.0765 12.5272 10.2553 12.5272C10.5631 12.5272 10.8106 12.2735 10.8106 11.9676V6.07839L11.4615 6.72949C11.6778 6.94584 12.0272 6.94584 12.2435 6.72949C12.4598 6.51313 12.4598 6.16154 12.2435 5.9453Z" fill="currentColor"/>
<path d="M5.31203 7.30371C5.01045 7.30371 4.75879 7.55746 4.75879 7.86329V11.9779C4.75879 12.2774 5.01045 12.5312 5.31203 12.5312C5.61362 12.5312 5.85895 12.2775 5.85895 11.9779V7.86329C5.85895 7.55746 5.61351 7.30371 5.31203 7.30371Z" fill="currentColor"/>
<path d="M15.5563 8.90134C15.4273 8.58929 15.2297 8.31476 14.9864 8.06925C14.7431 7.83832 14.4561 7.64491 14.1358 7.51182C13.8092 7.37873 13.4599 7.31207 13.0959 7.31207H12.0269C11.9958 7.30371 11.9666 7.30371 11.9354 7.30371C11.6172 7.30371 11.3594 7.55543 11.3594 7.86951V11.9675C11.3594 12.2795 11.6027 12.5187 11.9126 12.5333H13.0959C13.4599 12.5333 13.8092 12.4584 14.1358 12.3253C14.4539 12.1922 14.743 12.005 14.9864 11.774C15.2297 11.5203 15.4273 11.254 15.5563 10.9337C15.6935 10.6134 15.76 10.2784 15.76 9.92278C15.76 9.57119 15.6935 9.22175 15.5563 8.90145V8.90134ZM14.2024 10.9857C13.903 11.279 13.5077 11.4288 13.0752 11.4288H12.4597V8.40209H13.0752C13.5079 8.40209 13.903 8.56647 14.2024 8.85344C14.5018 9.13837 14.66 9.51493 14.66 9.92052C14.66 10.3261 14.502 10.7005 14.2024 10.9856V10.9857Z" fill="currentColor"/>
<path d="M12.2435 5.9453L10.6192 4.32067C10.5069 4.20837 10.3572 4.15426 10.2095 4.15844C10.0619 4.15426 9.91212 4.20623 9.79985 4.32067L8.17558 5.9453C7.95928 6.16166 7.95928 6.5111 8.17558 6.72745C8.39189 6.94381 8.74125 6.94381 8.95756 6.72745L9.69164 5.99321V10.4094L7.73462 7.57829C7.63691 7.4077 7.45596 7.2954 7.24801 7.2954C6.94022 7.2954 6.68652 7.54915 6.68652 7.85498V11.9654C6.68652 12.2712 6.94022 12.5249 7.24801 12.5249C7.55581 12.5249 7.8095 12.2712 7.8095 11.9654V9.41928L9.7977 12.2796C9.7977 12.2858 9.7977 12.2941 9.80606 12.3025C9.91834 12.4439 10.0765 12.5272 10.2553 12.5272C10.5631 12.5272 10.8106 12.2735 10.8106 11.9676V6.07839L11.4615 6.72949C11.6778 6.94584 12.0272 6.94584 12.2435 6.72949C12.4598 6.51313 12.4598 6.16154 12.2435 5.9453Z" fill="currentColor"/>
<path d="M14.2043 15.9694C13.8494 15.9694 13.7107 15.7727 13.7107 15.4856V14.6388C13.7107 14.6112 13.6883 14.5888 13.6607 14.5888H13.4865C13.4589 14.5888 13.4365 14.5664 13.4365 14.5388V14.3259C13.4365 14.2983 13.4589 14.2759 13.4865 14.2759H13.6768C13.7045 14.2759 13.7268 14.2535 13.7268 14.2259V13.9621C13.7268 13.9398 13.7417 13.9201 13.7632 13.914L14.0424 13.8351C14.0449 13.8343 14.0475 13.834 14.0501 13.834C14.0658 13.834 14.0785 13.8467 14.0785 13.8623V14.2259C14.0785 14.2535 14.1008 14.2759 14.1285 14.2759H14.4317C14.4593 14.2759 14.4817 14.2983 14.4817 14.3259V14.5388C14.4817 14.5664 14.4593 14.5888 14.4317 14.5888H14.1285C14.1008 14.5888 14.0785 14.6112 14.0785 14.6388V15.4211C14.0785 15.5791 14.1462 15.6469 14.2946 15.6469C14.3602 15.6469 14.4106 15.6378 14.4518 15.6255C14.4545 15.6247 14.4573 15.6243 14.4601 15.6243C14.4756 15.6243 14.4881 15.6368 14.4881 15.6523V15.8972C14.4881 15.9191 14.4739 15.9385 14.4526 15.9434C14.395 15.9568 14.3059 15.9694 14.2043 15.9694Z" fill="currentColor"/>
<path d="M12.9493 14.0199C12.7945 14.0199 12.7139 13.9296 12.7139 13.7876C12.7139 13.6457 12.7945 13.5586 12.9493 13.5586C13.101 13.5586 13.1848 13.6457 13.1848 13.7876C13.1848 13.9296 13.101 14.0199 12.9493 14.0199ZM12.8155 15.9392C12.7879 15.9392 12.7655 15.9168 12.7655 15.8892V14.3247C12.7655 14.2971 12.7879 14.2747 12.8155 14.2747H13.0832C13.1108 14.2747 13.1332 14.2971 13.1332 14.3247V15.8892C13.1332 15.9168 13.1108 15.9392 13.0832 15.9392H12.8155Z" fill="currentColor"/>
<path d="M11.4689 15.9688C11.0399 15.9688 10.7786 15.6269 10.7754 15.1043C10.7786 14.6108 11.0205 14.2463 11.4689 14.2463C11.7085 14.2463 11.8595 14.3475 11.9438 14.4716C11.9454 14.4739 11.948 14.4753 11.9508 14.4753C11.9555 14.4753 11.9593 14.4715 11.9593 14.4669V13.6027C11.9593 13.5751 11.9816 13.5527 12.0093 13.5527H12.277C12.3046 13.5527 12.327 13.5751 12.327 13.6027V15.8898C12.327 15.9174 12.3046 15.9398 12.277 15.9398H12.0418C12.0181 15.9398 11.9977 15.9232 11.9929 15.9L11.9608 15.7474C11.9599 15.743 11.956 15.7398 11.9515 15.7398C11.9483 15.7398 11.9453 15.7414 11.9435 15.744C11.8591 15.8679 11.7081 15.9688 11.4689 15.9688ZM11.5593 15.643C11.8528 15.643 11.9722 15.3946 11.9722 15.1043C11.9722 14.8172 11.856 14.5721 11.5593 14.5721C11.256 14.5721 11.1496 14.8172 11.1496 15.1043C11.1496 15.3979 11.2593 15.643 11.5593 15.643Z" fill="currentColor"/>
<path d="M9.77635 15.9686C9.2699 15.9686 8.98926 15.5912 8.98926 15.1074C8.98926 14.63 9.24409 14.2461 9.7699 14.2461C10.257 14.2461 10.5215 14.5977 10.5215 15.0558V15.1606C10.5215 15.1882 10.4991 15.2106 10.4715 15.2106H9.4199C9.39229 15.2106 9.36969 15.233 9.37158 15.2606C9.38788 15.498 9.5228 15.659 9.77635 15.659C9.96123 15.659 10.0794 15.5842 10.1283 15.4687C10.137 15.4482 10.1563 15.4332 10.1786 15.4332H10.4409C10.4715 15.4332 10.495 15.4604 10.4875 15.49C10.4177 15.7649 10.1479 15.9686 9.77635 15.9686ZM9.37772 14.8972C9.37394 14.9254 9.39692 14.9493 9.42542 14.9493H10.0933C10.1212 14.9493 10.144 14.9264 10.1412 14.8986C10.1213 14.7042 10.0018 14.559 9.7699 14.559C9.52405 14.559 9.40331 14.7059 9.37772 14.8972Z" fill="currentColor"/>
<path d="M7.92695 15.939C7.89934 15.939 7.87695 15.9166 7.87695 15.889V14.3245C7.87695 14.2969 7.89934 14.2745 7.92695 14.2745H8.14236C8.16763 14.2745 8.18893 14.2934 8.19199 14.3185L8.218 14.5318C8.21851 14.5359 8.22202 14.539 8.22619 14.539C8.22957 14.539 8.23261 14.537 8.23389 14.5338C8.30269 14.3657 8.4565 14.252 8.66404 14.252H8.74953C8.77714 14.252 8.79953 14.2743 8.79953 14.302V14.5439C8.79953 14.5715 8.77714 14.5939 8.74953 14.5939H8.65759C8.37695 14.5939 8.23179 14.7874 8.23179 15.1261V15.889C8.23179 15.9166 8.2094 15.939 8.18179 15.939H7.92695Z" fill="currentColor"/>
<path d="M6.7994 15.9686C6.2865 15.9686 6.00586 15.6235 6.00586 15.1074C6.00586 14.5945 6.28005 14.2461 6.78972 14.2461C7.23408 14.2461 7.46591 14.4965 7.50734 14.8285C7.51091 14.8571 7.4879 14.8816 7.45905 14.8816H7.19044C7.16449 14.8816 7.14322 14.8616 7.13813 14.8361C7.10586 14.6749 6.97896 14.5719 6.78972 14.5719C6.50586 14.5719 6.38005 14.7848 6.38005 15.1074C6.38005 15.4364 6.50586 15.6461 6.78972 15.6461C6.98248 15.6461 7.10708 15.5452 7.14097 15.3811C7.14616 15.3559 7.1673 15.3364 7.19296 15.3364H7.46142C7.49059 15.3364 7.5137 15.3613 7.50972 15.3902C7.46295 15.7297 7.23172 15.9686 6.7994 15.9686Z" fill="currentColor"/>
</g>
</g>
<defs>
<clipPath id="clip0_3218_80010">
<rect width="20" height="20" fill="currentColor"/>
</clipPath>
<clipPath id="clip1_3218_80010">
<rect width="20" height="20" fill="currentColor"/>
</clipPath>
</defs>
</svg>
