<svg width="49" height="20" viewBox="0 0 49 20" fill="none" xmlns="http://www.w3.org/2000/svg">
<g clip-path="url(#clip0_3055_7574)">
<g clip-path="url(#clip1_3055_7574)">
<g clip-path="url(#clip2_3055_7574)">
<path d="M0.883494 5.03101C0.401884 5.03101 0 5.43768 0 5.92782V12.522C0 13.002 0.401884 13.4089 0.883494 13.4089C1.36511 13.4089 1.75689 13.0022 1.75689 12.522V5.92782C1.75689 5.43768 1.36492 5.03101 0.883494 5.03101Z" fill="#FFFFFE"/>
<path d="M17.2451 7.59462C17.0391 7.09452 16.7236 6.65453 16.3351 6.26108C15.9466 5.89098 15.4882 5.581 14.9767 5.3677C14.4552 5.15441 13.8973 5.04758 13.3161 5.04758H11.609C11.5592 5.03418 11.5127 5.03418 11.4629 5.03418C10.9548 5.03418 10.543 5.43759 10.543 5.94095V12.5085C10.543 13.0086 10.9315 13.392 11.4265 13.4153H13.3161C13.8973 13.4153 14.4552 13.2953 14.9767 13.082C15.4848 12.8687 15.9464 12.5687 16.3351 12.1986C16.7236 11.7919 17.0391 11.3651 17.2451 10.8518C17.4643 10.3385 17.5705 9.80162 17.5705 9.23163C17.5705 8.66815 17.4643 8.10812 17.2451 7.5948V7.59462ZM15.0831 10.9351C14.6049 11.4051 13.9738 11.6452 13.2831 11.6452H12.3V6.79449H13.2831C13.9739 6.79449 14.6049 7.05794 15.0831 7.51785C15.5613 7.97449 15.8138 8.57798 15.8138 9.22801C15.8138 9.87803 15.5615 10.4781 15.0831 10.9349V10.9351Z" fill="#FFFFFE"/>
<path d="M11.9522 2.8641L9.35837 0.260383C9.17907 0.0804043 8.93989 -0.00632586 8.70413 0.00037354C8.46838 -0.00632586 8.2292 0.076964 8.0499 0.260383L5.45606 2.8641C5.11063 3.21084 5.11063 3.77087 5.45606 4.11761C5.80148 4.46435 6.35939 4.46435 6.70482 4.11761L7.8771 2.94087V10.0185L4.75186 5.48121C4.59583 5.2078 4.30686 5.02782 3.97479 5.02782C3.48326 5.02782 3.07812 5.4345 3.07812 5.92464V12.5121C3.07812 13.0023 3.48326 13.409 3.97479 13.409C4.46632 13.409 4.87145 13.0023 4.87145 12.5121V8.43166L8.04647 13.0157C8.04647 13.0256 8.04647 13.039 8.05982 13.0524C8.23912 13.2791 8.49165 13.4126 8.77719 13.4126C9.26872 13.4126 9.66393 13.0059 9.66393 12.5158V3.07739L10.7035 4.12087C11.0489 4.46761 11.6068 4.46761 11.9522 4.12087C12.2976 3.77413 12.2976 3.21066 11.9522 2.8641Z" fill="#FFFFFE"/>
<path d="M26.5775 16.7883C26.5775 16.4422 26.3653 16.1593 25.9908 16.1593C25.6428 16.1593 25.3942 16.4322 25.3942 16.7883C25.3942 17.1445 25.6428 17.4141 25.9908 17.4141C26.3653 17.4141 26.5775 17.1345 26.5775 16.7883ZM25.1953 17.4673V15.1507C25.1953 15.0442 25.2715 15.0276 25.308 15.0276C25.3445 15.0276 25.4207 15.0442 25.4207 15.1507V16.2791H25.4273C25.5599 16.0761 25.7919 15.9695 26.014 15.9695C26.4979 15.9695 26.8161 16.329 26.8161 16.7883C26.8161 17.2477 26.4979 17.6071 26.014 17.6071C25.7919 17.6071 25.5599 17.5006 25.4273 17.3043H25.4207V17.4673C25.4207 17.5739 25.3445 17.5905 25.308 17.5905C25.2715 17.5905 25.1953 17.5739 25.1953 17.4673Z" fill="#FFFFFE"/>
<path d="M28.5255 16.1526L27.793 17.9699C27.6968 18.2096 27.5742 18.366 27.3057 18.366C27.2659 18.366 27.2096 18.3627 27.1731 18.3527C27.1168 18.3361 27.0903 18.2995 27.0903 18.2529C27.0903 18.1996 27.1301 18.1563 27.1864 18.1563C27.203 18.1563 27.2195 18.1597 27.2394 18.163C27.2659 18.1663 27.2792 18.1663 27.2958 18.1663C27.4449 18.1663 27.5245 18.0665 27.5908 17.8901L27.7167 17.5639L27.1002 16.1593C27.0903 16.1326 27.087 16.1127 27.087 16.096C27.087 16.0328 27.14 15.9862 27.203 15.9862C27.2394 15.9862 27.2858 15.9995 27.3157 16.0761L27.8327 17.3242H27.8394L28.3133 16.0761C28.3398 16.0028 28.3862 15.9862 28.4227 15.9862C28.489 15.9862 28.5387 16.0328 28.5387 16.0927C28.5387 16.106 28.5354 16.126 28.5255 16.1526Z" fill="#FFFFFE"/>
<path d="M30.124 15.417V17.3608C30.124 17.5605 29.9848 17.5972 29.9152 17.5972C29.8456 17.5972 29.7064 17.5605 29.7064 17.3608V15.417C29.7064 15.2173 29.8456 15.1807 29.9152 15.1807C29.9848 15.1807 30.124 15.2173 30.124 15.417Z" fill="#FFFFFE"/>
<path d="M32.1565 17.4041L31.0661 15.893H31.0594V17.3608C31.0594 17.5605 30.9202 17.5972 30.8506 17.5972C30.781 17.5972 30.6418 17.5605 30.6418 17.3608V15.4869C30.6418 15.2273 30.8208 15.1807 30.9036 15.1807C30.9964 15.1807 31.0859 15.2206 31.1953 15.3737L32.2858 16.8815H32.2924V15.417C32.2924 15.2173 32.4316 15.1807 32.5012 15.1807C32.5708 15.1807 32.71 15.2173 32.71 15.417V17.2909C32.71 17.5506 32.5311 17.5972 32.4482 17.5972C32.3521 17.5972 32.2692 17.5572 32.1565 17.4041Z" fill="#FFFFFE"/>
<path d="M34.06 17.5672H33.4766C33.3076 17.5672 33.228 17.4873 33.228 17.3176V15.4603C33.228 15.2905 33.3076 15.2107 33.4766 15.2107H34.06C34.6731 15.2107 35.3559 15.5036 35.3559 16.3889C35.3559 17.2144 34.6731 17.5672 34.06 17.5672ZM33.6456 15.5701V17.2011H33.9937C34.4246 17.2011 34.9085 17.0247 34.9085 16.3889C34.9085 15.7132 34.4246 15.5701 33.9937 15.5701H33.6456Z" fill="#FFFFFE"/>
<path d="M35.7393 17.3741V16.1493C35.7393 15.9695 35.8686 15.9396 35.9283 15.9396C35.9879 15.9396 36.1172 15.9695 36.1172 16.1493V16.2258H36.1238C36.1934 16.0694 36.3625 15.9229 36.6177 15.9229C36.8629 15.9229 37.0254 16.0461 37.1148 16.2258C37.2209 16.0328 37.3999 15.9229 37.6385 15.9229C38.0529 15.9229 38.2252 16.2425 38.2252 16.5687V17.3741C38.2252 17.5639 38.0926 17.5972 38.0263 17.5972C37.96 17.5972 37.8275 17.5639 37.8275 17.3741V16.6818C37.8275 16.4921 37.7844 16.2558 37.5292 16.2558C37.2806 16.2558 37.1778 16.4888 37.1778 16.6951V17.3741C37.1778 17.5639 37.0452 17.5972 36.979 17.5972C36.9127 17.5972 36.7801 17.5639 36.7801 17.3741V16.6019C36.7801 16.4056 36.6873 16.2558 36.4851 16.2558C36.2464 16.2558 36.1371 16.4755 36.1371 16.6885V17.3741C36.1371 17.5639 36.0045 17.5972 35.9382 17.5972C35.8719 17.5972 35.7393 17.5639 35.7393 17.3741Z" fill="#FFFFFE"/>
<path d="M40.3254 16.7617C40.3254 17.2643 39.941 17.6138 39.4604 17.6138C38.9797 17.6138 38.5953 17.2643 38.5953 16.7617C38.5953 16.2591 38.9797 15.9229 39.4604 15.9229C39.941 15.9229 40.3254 16.2591 40.3254 16.7617ZM39.9211 16.7617C39.9211 16.5121 39.7752 16.2491 39.4604 16.2491C39.1455 16.2491 38.9996 16.5121 38.9996 16.7617C38.9996 17.0113 39.1455 17.281 39.4604 17.281C39.7752 17.281 39.9211 17.0113 39.9211 16.7617Z" fill="#FFFFFE"/>
<path d="M40.7111 17.3741V16.1493C40.7111 15.9695 40.8404 15.9396 40.9 15.9396C40.9597 15.9396 41.0889 15.9695 41.0889 16.1493V16.2258H41.0956C41.1652 16.0661 41.3541 15.9229 41.5894 15.9229C42.0037 15.9229 42.1761 16.2425 42.1761 16.5687V17.3741C42.1761 17.5639 42.0435 17.5972 41.9772 17.5972C41.9109 17.5972 41.7784 17.5639 41.7784 17.3741V16.6818C41.7784 16.4921 41.7353 16.2558 41.48 16.2558C41.2281 16.2558 41.1088 16.4755 41.1088 16.6885V17.3741C41.1088 17.5639 40.9762 17.5972 40.91 17.5972C40.8437 17.5972 40.7111 17.5639 40.7111 17.3741Z" fill="#FFFFFE"/>
<path d="M43.9461 16.8949H42.9452C42.9617 17.1212 43.1672 17.2876 43.3993 17.2876C43.565 17.2876 43.6644 17.2344 43.7638 17.1511C43.8202 17.1045 43.8567 17.0946 43.8997 17.0946C43.9892 17.0946 44.0588 17.1578 44.0588 17.2543C44.0588 17.2876 44.0456 17.3475 43.9925 17.3974C43.8368 17.5472 43.6578 17.6138 43.4026 17.6138C42.912 17.6138 42.5474 17.2976 42.5474 16.7784C42.5474 16.2624 42.9087 15.9229 43.3893 15.9229C43.7738 15.9229 44.0854 16.1426 44.1483 16.6119C44.1516 16.6452 44.155 16.6685 44.155 16.6951C44.155 16.8349 44.0787 16.8949 43.9461 16.8949ZM42.9452 16.6086H43.7605C43.7605 16.4022 43.6445 16.2225 43.386 16.2225C43.1507 16.2225 42.9617 16.3856 42.9452 16.6086Z" fill="#FFFFFE"/>
<path d="M45.9356 16.2292L45.2528 17.91C45.1335 18.2029 44.9909 18.366 44.6495 18.366C44.4805 18.366 44.4308 18.2662 44.4308 18.1863C44.4308 18.1064 44.4838 18.0365 44.5634 18.0232C44.5833 18.0199 44.5998 18.0199 44.6263 18.0199C44.7324 18.0199 44.8352 17.9533 44.9081 17.7702L44.9876 17.5672L44.3877 16.2425C44.3678 16.1959 44.3612 16.1526 44.3612 16.126C44.3612 16.0228 44.444 15.9396 44.5601 15.9396C44.6297 15.9396 44.7059 15.9695 44.7589 16.096L45.1898 17.1312H45.1964L45.5677 16.106C45.6174 15.9695 45.6969 15.9396 45.7632 15.9396C45.8759 15.9396 45.9588 16.0128 45.9588 16.1193C45.9588 16.1426 45.9555 16.1759 45.9356 16.2292Z" fill="#FFFFFE"/>
<path d="M45.994 8.17675V6.70884H45.5234V6.51929H46.6563V6.70884H46.1847V8.17675H45.994Z" fill="#FFFFFE"/>
<path d="M46.9488 8.17675V6.51929H47.1724L47.6843 7.53064H47.6928L48.2057 6.51929H48.424V8.17675H48.2438V6.8487H48.2354L47.697 7.89241H47.6758L47.1374 6.84176H47.129V8.17675H46.9488Z" fill="#FFFFFE"/>
<path d="M44.6872 13.4262C43.5518 13.4262 43.1079 12.7965 43.1079 11.8778V9.16821C43.1079 9.07984 43.0362 9.00821 42.9479 9.00821H42.3905C42.3021 9.00821 42.2305 8.93658 42.2305 8.84821V8.16694C42.2305 8.07857 42.3021 8.00694 42.3905 8.00694H42.9995C43.0879 8.00694 43.1595 7.9353 43.1595 7.84694V7.00282C43.1595 6.93123 43.2071 6.86835 43.276 6.84886L44.1693 6.5962C44.1774 6.59392 44.1857 6.59277 44.194 6.59277C44.2441 6.59277 44.2846 6.63336 44.2846 6.68343V7.84694C44.2846 7.9353 44.3563 8.00694 44.4446 8.00694H45.415C45.5033 8.00694 45.575 8.07857 45.575 8.16694V8.84821C45.575 8.93658 45.5033 9.00821 45.415 9.00821H44.4446C44.3563 9.00821 44.2846 9.07984 44.2846 9.16821V11.6714C44.2846 12.1772 44.5014 12.394 44.9763 12.394C45.1861 12.394 45.3476 12.3649 45.4795 12.3256C45.488 12.323 45.4969 12.3217 45.5059 12.3217C45.5554 12.3217 45.5956 12.3619 45.5956 12.4114V13.195C45.5956 13.265 45.5502 13.3272 45.482 13.343C45.2975 13.3857 45.0126 13.4262 44.6872 13.4262Z" fill="#FFFFFE"/>
<path d="M40.6715 7.19143C40.176 7.19143 39.918 6.90241 39.918 6.44822C39.918 5.99404 40.176 5.71533 40.6715 5.71533C41.1567 5.71533 41.4251 5.99404 41.4251 6.44822C41.4251 6.90241 41.1567 7.19143 40.6715 7.19143ZM40.2431 13.3332C40.1548 13.3332 40.0831 13.2616 40.0831 13.1732V8.1669C40.0831 8.07853 40.1548 8.0069 40.2431 8.0069H41.0999C41.1883 8.0069 41.2599 8.07853 41.2599 8.1669V13.1732C41.2599 13.2616 41.1883 13.3332 41.0999 13.3332H40.2431Z" fill="#FFFFFE"/>
<path d="M35.9342 13.426C34.5613 13.426 33.7252 12.3319 33.7148 10.6596C33.7252 9.08032 34.4994 7.91389 35.9342 7.91389C36.7007 7.91389 37.1839 8.23771 37.4539 8.63487C37.459 8.64231 37.4673 8.64678 37.4763 8.64678C37.4912 8.64678 37.5032 8.63474 37.5032 8.61988V5.85458C37.5032 5.76621 37.5748 5.69458 37.6632 5.69458H38.52C38.6083 5.69458 38.68 5.76621 38.68 5.85458V13.1731C38.68 13.2615 38.6083 13.3331 38.52 13.3331H37.7673C37.6916 13.3331 37.6263 13.2801 37.6107 13.206L37.5083 12.7175C37.5053 12.7033 37.4928 12.6932 37.4783 12.6932C37.4681 12.6932 37.4585 12.6983 37.4528 12.7067C37.1826 13.1031 36.6997 13.426 35.9342 13.426ZM36.2232 12.3835C37.1626 12.3835 37.5445 11.5887 37.5445 10.6596C37.5445 9.74095 37.1729 8.95645 36.2232 8.95645C35.2529 8.95645 34.9123 9.74095 34.9123 10.6596C34.9123 11.599 35.2632 12.3835 36.2232 12.3835Z" fill="#FFFFFE"/>
<path d="M30.5187 13.4262C28.8981 13.4262 28 12.2185 28 10.6701C28 9.14243 28.8155 7.91406 30.498 7.91406C32.0567 7.91406 32.9032 9.0392 32.9032 10.505V10.8405C32.9032 10.9288 32.8316 11.0005 32.7432 11.0005H29.3781C29.2897 11.0005 29.2174 11.0722 29.2234 11.1604C29.2756 11.9201 29.7073 12.4353 30.5187 12.4353C31.1103 12.4353 31.4883 12.1961 31.645 11.8265C31.6729 11.7607 31.7344 11.7127 31.8058 11.7127H32.6453C32.7431 11.7127 32.8185 11.7999 32.7944 11.8946C32.5709 12.7744 31.7078 13.4262 30.5187 13.4262ZM29.2431 9.99763C29.231 10.088 29.3045 10.1643 29.3957 10.1643H31.5331C31.6224 10.1643 31.6952 10.091 31.6861 10.0022C31.6226 9.37994 31.24 8.91533 30.498 8.91533C29.7113 8.91533 29.325 9.38532 29.2431 9.99763Z" fill="#FFFFFE"/>
<path d="M24.5975 13.3329C24.5091 13.3329 24.4375 13.2613 24.4375 13.1729V8.16658C24.4375 8.07822 24.5091 8.00658 24.5975 8.00658H25.2868C25.3677 8.00658 25.4358 8.06693 25.4456 8.14721L25.5289 8.82983C25.5305 8.84307 25.5417 8.85302 25.555 8.85302C25.5659 8.85302 25.5756 8.84637 25.5797 8.83635C25.7999 8.2984 26.2921 7.93433 26.9562 7.93433H27.2297C27.3181 7.93433 27.3897 8.00596 27.3897 8.09433V8.8685C27.3897 8.95686 27.3181 9.0285 27.2297 9.0285H26.9355C26.0375 9.0285 25.573 9.64784 25.573 10.7317V13.1729C25.573 13.2613 25.5013 13.3329 25.413 13.3329H24.5975Z" fill="#FFFFFE"/>
<path d="M20.9925 13.4262C19.3512 13.4262 18.4531 12.3217 18.4531 10.6701C18.4531 9.02888 19.3305 7.91406 20.9615 7.91406C22.3834 7.91406 23.1253 8.71526 23.2579 9.77778C23.2693 9.86939 23.1957 9.94757 23.1033 9.94757H22.2438C22.1607 9.94757 22.0927 9.88362 22.0764 9.80219C21.9731 9.28617 21.567 8.95662 20.9615 8.95662C20.0531 8.95662 19.6505 9.6379 19.6505 10.6701C19.6505 11.723 20.0531 12.394 20.9615 12.394C21.5783 12.394 21.977 12.0712 22.0855 11.546C22.1021 11.4656 22.1697 11.403 22.2518 11.403H23.1109C23.2043 11.403 23.2782 11.4829 23.2655 11.5753C23.1158 12.6615 22.3759 13.4262 20.9925 13.4262Z" fill="#FFFFFE"/>
</g>
</g>
</g>
<defs>
<clipPath id="clip0_3055_7574">
<rect width="48.9503" height="20" fill="white"/>
</clipPath>
<clipPath id="clip1_3055_7574">
<rect width="48.9503" height="20" fill="white"/>
</clipPath>
<clipPath id="clip2_3055_7574">
<rect width="48.9503" height="20" fill="white"/>
</clipPath>
</defs>
</svg>
