<svg width="64" height="64" viewBox="0 0 64 64" fill="none" xmlns="http://www.w3.org/2000/svg">
<g clip-path="url(#clip0_3396_56323)">
<g filter="url(#filter0_d_3396_56323)">
<path d="M0 32C0 14.3269 14.3269 0 32 0C49.6731 0 64 14.3269 64 32C64 49.6731 49.6731 64 32 64C14.3269 64 0 49.6731 0 32Z" fill="currentColor"/>
<path d="M30.4362 26.1715C31.4452 25.4988 32.8051 25.6782 33.8578 26.037C33.9456 26.0819 34.1649 26.1715 34.2527 26.2164C33.7262 27.6067 33.156 28.9969 32.8489 30.4769C33.8578 29.9387 34.9545 29.5799 35.9635 29.0866C34.6913 30.2078 33.3753 31.3289 32.5857 32.8986C32.498 32.8537 32.2786 32.764 32.1909 32.7192C31.2258 31.6877 30.3046 30.4769 30.0414 29.0417C29.9098 28.0999 29.9975 27.0685 30.4362 26.1715Z" fill="currentColor"/>
<path d="M33.5957 33.572C34.473 32.7199 35.789 32.6751 36.8857 33.0339C38.2017 33.3927 39.3422 34.5138 39.6493 35.904C39.7809 36.9804 39.5616 38.1015 38.8597 38.9536C37.8946 37.967 36.8857 36.9355 35.8768 35.9937C35.6574 36.218 35.3942 36.4871 35.1749 36.7113C34.7362 35.6798 34.166 34.6035 33.5957 33.572Z" fill="currentColor"/>
<path d="M29.2094 34.4684C30.0867 34.1993 31.0079 34.4235 31.9291 34.4235C32.0169 35.724 31.7098 37.0695 30.8763 38.101C29.8235 38.4597 28.6391 38.7737 27.5424 38.3701C26.5774 37.9664 26.0071 36.9798 25.6123 36.038C26.5774 35.8138 27.5424 35.5447 28.4198 35.1859C28.6829 34.9168 28.9462 34.6926 29.2094 34.4684Z" fill="currentColor"/>
<path d="M40.2642 11.1929C42.5891 15.0945 44.7824 19.0859 47.0635 23.0324C46.7565 23.5706 46.4055 24.0639 45.923 24.4226C45.4404 23.0324 44.6069 21.8215 43.949 20.521C43.2471 19.1756 42.4136 17.875 41.7556 16.4848C41.0538 14.96 40.0887 13.6146 39.4307 12.0898C39.6938 11.7759 40.0009 11.5068 40.2642 11.1929Z" fill="currentColor"/>
<path d="M23.6797 15.857C25.215 14.0631 27.6277 13.3456 29.8649 13.1213C31.0493 12.8971 32.2337 13.1662 33.462 13.211C35.2167 13.2559 36.9275 13.7044 38.6822 14.0631C38.5506 14.4668 38.419 14.8255 38.2874 15.2292C36.8398 15.1394 35.436 14.5116 34.0323 14.2874C31.5319 13.8389 28.856 13.7492 26.4433 14.691C25.4782 15.0497 24.6447 15.5879 23.6797 15.857Z" fill="currentColor"/>
<path d="M29.9548 26.306C30.1742 26.0369 30.4373 25.723 30.7883 25.723C31.7095 25.6333 32.6746 25.723 33.5958 25.723C33.6397 25.8126 33.8151 25.992 33.859 26.0817C32.7623 25.723 31.4463 25.4987 30.4373 26.2163C29.9987 27.1132 29.9548 28.1446 30.0864 29.0865C30.3058 30.5216 31.2708 31.7324 32.2359 32.7639C32.3236 32.8536 32.4991 33.033 32.543 33.1675C32.3675 33.4366 32.1482 33.7505 31.9727 34.0196C30.4373 33.2572 29.253 31.6427 28.9898 29.9385C28.7704 28.638 29.1652 27.2926 29.9548 26.306Z" fill="currentColor"/>
<path d="M39.9541 27.2034C40.6559 26.5756 41.5333 26.2616 42.4545 26.172C44.6917 26.1271 47.0606 26.5756 48.8591 28.0107C51.4472 30.1184 52.5439 33.751 52.0614 37.0249C51.7981 38.5496 51.4033 40.0744 50.6137 41.4198C50.6576 40.7022 50.7453 40.0296 50.877 39.312C51.3156 37.0697 51.0524 34.6928 50.3067 32.5402C49.5171 30.3875 47.894 28.4591 45.7006 27.7416C43.8582 27.024 41.8403 27.2931 39.9541 27.2034Z" fill="currentColor"/>
<path d="M16.1787 27.382C16.4857 26.9784 16.8367 26.6196 17.1876 26.3057C18.1966 27.0232 19.2055 27.651 20.2145 28.2789C20.5654 28.6825 20.9602 29.0861 21.1356 29.5794C21.2234 29.8037 21.1795 29.9831 20.9602 30.1625C20.2145 30.0728 19.5564 29.6243 18.9423 29.2207C18.0649 28.548 17.0999 28.0547 16.1787 27.382Z" fill="currentColor"/>
<path d="M27.8047 34.2887C28.2872 34.199 28.8136 34.1093 29.2084 34.4681C28.9453 34.6924 28.682 34.9166 28.4188 35.1408H28.2434C27.8047 35.0511 27.8924 34.6026 27.8047 34.2887Z" fill="currentColor"/>
<path d="M24.4258 36.4411C24.7767 36.2618 25.1715 36.0824 25.5663 35.9927C25.9611 36.9345 26.5314 37.9211 27.4964 38.3247C28.5931 38.7283 29.7775 38.4144 30.8303 38.0556C30.26 39.3113 28.7686 39.6253 27.5403 39.5355C25.9611 39.5355 24.6451 38.0556 24.4258 36.4411Z" fill="currentColor"/>
<path d="M45.8779 47.7879C46.185 47.4291 46.492 47.1152 46.7991 46.8013C47.5449 47.6533 48.3783 48.4157 49.1679 49.2678C49.475 49.9405 48.6854 50.389 48.1151 50.389C47.4571 49.4024 46.6236 48.64 45.8779 47.7879Z" fill="currentColor"/>
<path d="M38.6399 14.0626C38.8592 13.3899 39.2102 12.762 39.4295 12.0894C40.0875 13.6142 41.0526 15.0044 41.7544 16.4843C42.4124 17.8746 43.2898 19.1303 43.9478 20.5205C44.6058 21.8211 45.4393 23.032 45.9218 24.4222C44.7812 25.05 43.4214 25.2294 42.4563 26.1264C41.5351 26.216 40.6578 26.5748 39.9559 27.1578C41.8861 27.2475 43.8601 26.9784 45.7025 27.696C47.8958 28.4135 49.475 30.3868 50.3085 32.4946C51.0543 34.6472 51.3174 37.0241 50.8787 39.2664C50.7472 39.9392 50.6594 40.6567 50.6156 41.3742C50.5278 42.0021 50.0453 42.4954 49.7382 43.0784C48.9486 44.4687 47.808 45.5898 46.7553 46.7558C46.4482 47.0698 46.1411 47.4285 45.8341 47.7425C46.5798 48.5946 47.4133 49.3569 48.0274 50.2987C46.0534 50.4781 44.0355 50.3436 42.0615 50.3884C39.6488 50.3436 37.28 50.4781 34.8673 50.2987C34.7796 48.1461 34.9112 45.9934 34.7796 43.8408C33.9461 45.0068 33.4636 46.3971 32.4546 47.4734C29.5594 50.9266 24.1199 52.0477 20.3035 49.5363C18.1101 48.1909 16.3555 46.1728 15.0833 43.9305C14.2937 42.316 13.7673 40.567 13.2409 38.818C11.881 38.7731 10.6089 39.3113 9.24902 39.3113C10.9599 36.3962 12.8023 33.4812 14.3815 30.4765C14.9517 29.445 15.6536 28.4584 16.1361 27.382C17.0135 28.0548 18.0224 28.5929 18.9436 29.2208C19.5577 29.6244 20.2158 30.0728 20.9615 30.1626C21.1808 30.028 21.2247 29.8486 21.137 29.5795C20.9615 29.0862 20.5667 28.6826 20.2158 28.279C19.9525 27.0233 19.3384 25.8573 19.3823 24.5567C19.1629 21.8659 20.1281 19.0854 22.0143 17.2019C22.5407 16.7086 22.9794 16.0807 23.6374 15.8565C24.6025 15.5874 25.3921 15.0493 26.3133 14.6905C28.7259 13.7487 31.4018 13.7935 33.9023 14.2868C35.3499 14.5559 36.7097 15.1389 38.1573 15.2286C38.3767 14.8698 38.5083 14.4662 38.6399 14.0626ZM29.9542 26.3057C29.1646 27.2924 28.7698 28.6378 28.9892 29.8935C29.2962 31.6425 30.4368 33.2121 31.9721 33.9745C32.1475 33.7054 32.3231 33.3915 32.5424 33.1225C32.4546 33.0327 32.2792 32.8534 32.2353 32.7188C32.3231 32.7637 32.5423 32.8534 32.6301 32.8982C33.4197 31.3286 34.7357 30.2074 36.0078 29.0862C34.9989 29.5795 33.9023 29.9383 32.8933 30.4765C33.2442 28.9966 33.7706 27.6063 34.2971 26.216C34.2093 26.1712 33.99 26.0815 33.9023 26.0367C33.8145 25.947 33.6829 25.7676 33.639 25.6779C32.7179 25.6779 31.7527 25.5882 30.8316 25.6779C30.3929 25.7227 30.1736 26.0367 29.9542 26.3057ZM33.5952 33.5709C33.5513 33.5261 33.5075 33.3915 33.4636 33.3018C33.0249 33.5261 32.6301 33.7952 32.3231 34.1539C32.8494 35.006 33.2442 35.9478 33.6829 36.8447C34.0777 37.6968 34.2532 38.6835 34.9112 39.3561C35.0428 38.7283 35.0867 38.1004 35.1744 37.4277C36.4904 37.7865 37.1045 39.0871 38.0258 39.984C38.4206 39.7597 38.6837 39.401 38.9031 38.9525C39.5611 38.1004 39.8243 36.9344 39.6927 35.9029C39.4295 34.5127 38.2889 33.3915 36.9291 33.0327C35.7886 32.674 34.4286 32.7188 33.5952 33.5709ZM27.8048 34.2885C27.8925 34.6024 27.8486 35.0509 28.2434 35.1405H28.4189C27.4977 35.4993 26.5326 35.7684 25.6114 35.9926C25.2166 36.0823 24.8218 36.2617 24.4708 36.4411C24.6902 38.0107 25.9623 39.4907 27.5854 39.5355C28.8137 39.6252 30.3052 39.3113 30.8754 38.0556C31.7089 37.0241 32.016 35.7236 31.9283 34.3781C31.0509 34.3781 30.0858 34.1539 29.2085 34.423C28.8137 34.0642 28.2873 34.1988 27.8048 34.2885Z" fill="currentColor"/>
</g>
</g>
<defs>
<filter id="filter0_d_3396_56323" x="-6" y="-5" width="76" height="76" filterUnits="userSpaceOnUse" color-interpolation-filters="sRGB">
<feFlood flood-opacity="0" result="BackgroundImageFix"/>
<feColorMatrix in="SourceAlpha" type="matrix" values="0 0 0 0 0 0 0 0 0 0 0 0 0 0 0 0 0 0 127 0" result="hardAlpha"/>
<feOffset dy="1"/>
<feGaussianBlur stdDeviation="3"/>
<feComposite in2="hardAlpha" operator="out"/>
<feColorMatrix type="matrix" values="0 0 0 0 0 0 0 0 0 0 0 0 0 0 0 0 0 0 0.08 0"/>
<feBlend mode="normal" in2="BackgroundImageFix" result="effect1_dropShadow_3396_56323"/>
<feBlend mode="normal" in="SourceGraphic" in2="effect1_dropShadow_3396_56323" result="shape"/>
</filter>
<clipPath id="clip0_3396_56323">
<rect width="64" height="64" fill="currentColor"/>
</clipPath>
</defs>
</svg>
