<svg width="24" height="24" viewBox="0 0 24 24" fill="none" xmlns="http://www.w3.org/2000/svg">
<g clip-path="url(#clip0_5324_6712)">
<g clip-path="url(#clip1_5324_6712)">
<path d="M0 12C0 18.6274 5.37258 24 12 24C18.6274 24 24 18.6274 24 12C24 5.37258 18.6274 0 12 0C5.37258 0 0 5.37258 0 12Z" fill="currentColor"/>
<path d="M5.86672 8.43359C5.50813 8.43359 5.21094 8.7343 5.21094 9.09664V13.9684C5.21094 14.322 5.50836 14.6227 5.86672 14.6227C6.22531 14.6227 6.51383 14.322 6.51383 13.9684V9.09688C6.51383 8.7343 6.22508 8.43359 5.86672 8.43359Z" fill="currentColor"/>
<path d="M17.9978 10.3264C17.845 9.95656 17.6113 9.63102 17.3237 9.34039C17.0361 9.06758 16.6946 8.83859 16.3173 8.68016C15.9308 8.52172 15.5176 8.4425 15.0861 8.4425H13.8191C13.7832 8.43359 13.7471 8.43359 13.7113 8.43359C13.3339 8.43359 13.0283 8.73289 13.0283 9.10273V13.9536C13.0283 14.3234 13.3159 14.6052 13.6843 14.6227H15.0861C15.5174 14.6227 15.9308 14.5346 16.3173 14.3762C16.6946 14.2177 17.0361 13.9977 17.3237 13.7246C17.6113 13.4253 17.845 13.1084 17.9978 12.7297C18.1595 12.3512 18.2404 11.9548 18.2404 11.5323C18.2404 11.1188 18.1595 10.7052 17.9978 10.3264ZM16.3956 12.7953C16.0407 13.142 15.5736 13.3198 15.0599 13.3198H14.3314V9.73672H15.0599C15.5736 9.73672 16.0405 9.93242 16.3956 10.2702C16.7507 10.6079 16.9372 11.0525 16.9372 11.5327C16.9372 12.0127 16.7504 12.4573 16.3956 12.7953Z" fill="currentColor"/>
<path d="M14.0734 6.83662L12.1505 4.91381C12.017 4.78022 11.8402 4.71717 11.6654 4.72303C11.4905 4.71717 11.3138 4.78045 11.1802 4.91381L9.25742 6.83662C9.00148 7.09256 9.00148 7.5074 9.25742 7.76334C9.51336 8.01928 9.9282 8.01928 10.1841 7.76334L11.0527 6.89475V12.1241L8.73406 8.77326C8.61852 8.56983 8.40547 8.43717 8.15656 8.43717C7.79234 8.43717 7.49023 8.73787 7.49023 9.10022V13.9633C7.49023 14.3258 7.79234 14.6263 8.15656 14.6263C8.52969 14.6263 8.82289 14.3256 8.82289 13.9633V10.9483L11.1772 14.3345C11.1772 14.3434 11.1772 14.3521 11.1861 14.361C11.3195 14.529 11.506 14.6263 11.7191 14.6263C12.0833 14.6263 12.3765 14.3256 12.3765 13.9633V6.99295L13.1469 7.76334C13.4028 8.01928 13.8177 8.01928 14.0736 7.76334C14.3295 7.5074 14.3293 7.09256 14.0734 6.83662Z" fill="currentColor"/>
<path d="M5.49805 16.8152C5.49805 16.7738 5.53163 16.7402 5.57305 16.7402H5.86115C5.90257 16.7402 5.93615 16.7738 5.93615 16.8152V17.012C5.93615 17.0147 5.93834 17.0169 5.94104 17.0169C5.94277 17.0169 5.94437 17.016 5.94526 17.0145C6.01172 16.903 6.10092 16.8218 6.21284 16.771C6.32557 16.7197 6.44726 16.6941 6.57792 16.6941C6.71883 16.6941 6.84565 16.7197 6.95838 16.771C7.0711 16.8196 7.16718 16.8875 7.2466 16.9746C7.32602 17.0618 7.38623 17.1642 7.42722 17.2821C7.46821 17.3999 7.48871 17.5268 7.48871 17.6625C7.48871 17.7983 7.46693 17.9251 7.42338 18.043C7.37982 18.1608 7.31834 18.2633 7.23891 18.3504C7.16206 18.4375 7.06854 18.5067 6.95838 18.558C6.84821 18.6066 6.7278 18.631 6.59714 18.631C6.51003 18.631 6.43317 18.622 6.36656 18.6041C6.29995 18.5861 6.24102 18.5631 6.18978 18.5349C6.13854 18.5067 6.09499 18.4773 6.05912 18.4465C6.02444 18.4143 5.99575 18.3833 5.97305 18.3535C5.97158 18.3516 5.96931 18.3504 5.96689 18.3504C5.96265 18.3504 5.9592 18.3539 5.9592 18.3581V19.3861C5.9592 19.4275 5.92563 19.4611 5.8842 19.4611H5.57305C5.53163 19.4611 5.49805 19.4275 5.49805 19.3861V16.8152ZM7.02755 17.6625C7.02755 17.5908 7.01474 17.5216 6.98912 17.455C6.96606 17.3884 6.9302 17.3295 6.88152 17.2782C6.8354 17.227 6.77904 17.186 6.71243 17.1553C6.64582 17.1245 6.57024 17.1092 6.48569 17.1092C6.40115 17.1092 6.32557 17.1245 6.25896 17.1553C6.19234 17.186 6.1347 17.227 6.08602 17.2782C6.03991 17.3295 6.00404 17.3884 5.97842 17.455C5.95536 17.5216 5.94383 17.5908 5.94383 17.6625C5.94383 17.7343 5.95536 17.8035 5.97842 17.8701C6.00404 17.9367 6.03991 17.9956 6.08602 18.0468C6.1347 18.0981 6.19234 18.1391 6.25896 18.1698C6.32557 18.2006 6.40115 18.2159 6.48569 18.2159C6.57024 18.2159 6.64582 18.2006 6.71243 18.1698C6.77904 18.1391 6.8354 18.0981 6.88152 18.0468C6.9302 17.9956 6.96606 17.9367 6.98912 17.8701C7.01474 17.8035 7.02755 17.7343 7.02755 17.6625Z" fill="currentColor"/>
<path d="M7.91867 16.8152C7.91867 16.7738 7.95225 16.7402 7.99367 16.7402H8.30483C8.34625 16.7402 8.37983 16.7738 8.37983 16.8152V17.0276C8.37983 17.0302 8.38194 17.0323 8.38454 17.0323C8.38636 17.0323 8.38801 17.0312 8.3888 17.0296C8.43997 16.9233 8.51256 16.8409 8.60656 16.7825C8.70136 16.7236 8.81024 16.6941 8.93322 16.6941C8.9614 16.6941 8.9883 16.6967 9.01392 16.7018C9.02355 16.7035 9.03318 16.7054 9.0428 16.7075C9.07588 16.7145 9.09846 16.7445 9.09846 16.7783V17.0692C9.09846 17.1185 9.05169 17.1542 9.003 17.1466C8.99639 17.1456 8.98978 17.1446 8.98317 17.1437C8.94731 17.1361 8.91144 17.1322 8.87557 17.1322C8.76797 17.1322 8.68086 17.1527 8.61425 17.1937C8.5502 17.2321 8.50024 17.277 8.46437 17.3282C8.43107 17.3794 8.40801 17.4307 8.3952 17.4819C8.38495 17.5332 8.37983 17.5716 8.37983 17.5972V18.5099C8.37983 18.5513 8.34625 18.5849 8.30483 18.5849H7.99367C7.95225 18.5849 7.91867 18.5513 7.91867 18.5099V16.8152Z" fill="currentColor"/>
<path d="M9.25254 17.6625C9.25254 17.5165 9.27816 17.3846 9.3294 17.2667C9.3832 17.1463 9.45494 17.0438 9.54461 16.9593C9.63428 16.8747 9.7406 16.8094 9.86358 16.7633C9.98655 16.7172 10.1172 16.6941 10.2556 16.6941C10.3939 16.6941 10.5246 16.7172 10.6475 16.7633C10.7705 16.8094 10.8768 16.8747 10.9665 16.9593C11.0562 17.0438 11.1266 17.1463 11.1779 17.2667C11.2317 17.3846 11.2586 17.5165 11.2586 17.6625C11.2586 17.8086 11.2317 17.9418 11.1779 18.0622C11.1266 18.1801 11.0562 18.2813 10.9665 18.3658C10.8768 18.4504 10.7705 18.5157 10.6475 18.5618C10.5246 18.6079 10.3939 18.631 10.2556 18.631C10.1172 18.631 9.98655 18.6079 9.86358 18.5618C9.7406 18.5157 9.63428 18.4504 9.54461 18.3658C9.45494 18.2813 9.3832 18.1801 9.3294 18.0622C9.27816 17.9418 9.25254 17.8086 9.25254 17.6625ZM9.7137 17.6625C9.7137 17.7343 9.72523 17.8035 9.74829 17.8701C9.77391 17.9367 9.80977 17.9956 9.85589 18.0468C9.90457 18.0981 9.96221 18.1391 10.0288 18.1698C10.0954 18.2006 10.171 18.2159 10.2556 18.2159C10.3401 18.2159 10.4157 18.2006 10.4823 18.1698C10.5489 18.1391 10.6053 18.0981 10.6514 18.0468C10.7001 17.9956 10.7359 17.9367 10.759 17.8701C10.7846 17.8035 10.7974 17.7343 10.7974 17.6625C10.7974 17.5908 10.7846 17.5216 10.759 17.455C10.7359 17.3884 10.7001 17.3295 10.6514 17.2782C10.6053 17.227 10.5489 17.186 10.4823 17.1553C10.4157 17.1245 10.3401 17.1092 10.2556 17.1092C10.171 17.1092 10.0954 17.1245 10.0288 17.1553C9.96221 17.186 9.90457 17.227 9.85589 17.2782C9.80977 17.3295 9.77391 17.3884 9.74829 17.455C9.72523 17.5216 9.7137 17.5908 9.7137 17.6625Z" fill="currentColor"/>
<path d="M11.5501 17.1322C11.5087 17.1322 11.4751 17.0986 11.4751 17.0572V16.8152C11.4751 16.7738 11.5087 16.7402 11.5501 16.7402H11.7806C11.822 16.7402 11.8556 16.7066 11.8556 16.6652V16.2811C11.8556 16.2396 11.8892 16.2061 11.9306 16.2061H12.2417C12.2832 16.2061 12.3167 16.2396 12.3167 16.2811V16.6652C12.3167 16.7066 12.3503 16.7402 12.3917 16.7402H12.749C12.7904 16.7402 12.824 16.7738 12.824 16.8152V17.0572C12.824 17.0986 12.7904 17.1322 12.749 17.1322H12.3917C12.3503 17.1322 12.3167 17.1658 12.3167 17.2072V17.9392C12.3167 18.0315 12.3334 18.1045 12.3667 18.1583C12.4026 18.2121 12.4717 18.239 12.5742 18.239C12.6152 18.239 12.6601 18.2351 12.7087 18.2275C12.7597 18.2167 12.824 18.2544 12.824 18.3064V18.522C12.824 18.551 12.8075 18.5779 12.78 18.5872C12.7404 18.6006 12.6949 18.6101 12.6434 18.6156C12.5742 18.6258 12.5127 18.631 12.4589 18.631C12.336 18.631 12.2348 18.6169 12.1553 18.5887C12.0785 18.5631 12.017 18.5234 11.9709 18.4696C11.9273 18.4132 11.8966 18.344 11.8786 18.262C11.8633 18.1801 11.8556 18.0853 11.8556 17.9777V17.2072C11.8556 17.1658 11.822 17.1322 11.7806 17.1322H11.5501Z" fill="currentColor"/>
<path d="M13.6367 17.8239C13.592 17.8239 13.5567 17.863 13.5675 17.9064C13.5924 18.0058 13.6413 18.0859 13.7143 18.1468C13.8066 18.2236 13.918 18.262 14.0487 18.262C14.164 18.262 14.26 18.239 14.3369 18.1929C14.3957 18.1569 14.4488 18.1145 14.4964 18.0659C14.5245 18.0371 14.5698 18.0314 14.6019 18.0557L14.8131 18.2153C14.8469 18.2409 14.8531 18.2895 14.8244 18.3207C14.73 18.4235 14.6264 18.4987 14.5137 18.5464C14.3804 18.6028 14.2408 18.631 14.0948 18.631C13.9564 18.631 13.8258 18.6079 13.7028 18.5618C13.5798 18.5157 13.4735 18.4504 13.3838 18.3658C13.2942 18.2813 13.2224 18.1801 13.1686 18.0622C13.1174 17.9418 13.0918 17.8086 13.0918 17.6625C13.0918 17.5165 13.1174 17.3846 13.1686 17.2667C13.2224 17.1463 13.2942 17.0438 13.3838 16.9593C13.4735 16.8747 13.5798 16.8094 13.7028 16.7633C13.8258 16.7172 13.9564 16.6941 14.0948 16.6941C14.2229 16.6941 14.3395 16.7172 14.4445 16.7633C14.5521 16.8068 14.643 16.8709 14.7173 16.9554C14.7942 17.04 14.8531 17.145 14.8941 17.2706C14.9377 17.3935 14.9595 17.5357 14.9595 17.6971V17.7489C14.9595 17.7904 14.9259 17.8239 14.8845 17.8239H13.6367ZM14.4219 17.4781C14.4638 17.4781 14.4983 17.4435 14.4923 17.4019C14.4777 17.3019 14.4375 17.221 14.3715 17.1591C14.2895 17.0797 14.1755 17.04 14.0295 17.04C13.8911 17.04 13.7809 17.0797 13.699 17.1591C13.637 17.221 13.5938 17.2993 13.5693 17.3939C13.5579 17.4379 13.5933 17.4781 13.6387 17.4781H14.4219Z" fill="currentColor"/>
<path d="M16.7055 17.2393C16.6757 17.2691 16.6275 17.2682 16.5958 17.2405C16.5591 17.2083 16.5211 17.1812 16.4821 17.1591C16.4232 17.1258 16.363 17.1092 16.3015 17.1092C16.2169 17.1092 16.1414 17.1245 16.0748 17.1553C16.0081 17.186 15.9505 17.227 15.9018 17.2782C15.8557 17.3295 15.8198 17.3884 15.7942 17.455C15.7712 17.5216 15.7596 17.5908 15.7596 17.6625C15.7596 17.7343 15.7712 17.8035 15.7942 17.8701C15.8198 17.9367 15.8557 17.9956 15.9018 18.0468C15.9505 18.0981 16.0081 18.1391 16.0748 18.1698C16.1414 18.2006 16.2169 18.2159 16.3015 18.2159C16.3732 18.2159 16.4398 18.2018 16.5013 18.1737C16.5368 18.1559 16.5693 18.1339 16.5988 18.1077C16.6334 18.0769 16.6876 18.0738 16.7191 18.1077L16.9171 18.3205C16.9445 18.3501 16.944 18.3965 16.9124 18.4217C16.8797 18.4479 16.8438 18.4715 16.8049 18.4926C16.746 18.5259 16.6858 18.5528 16.6243 18.5733C16.5628 18.5938 16.5039 18.6079 16.4475 18.6156C16.3912 18.6258 16.3425 18.631 16.3015 18.631C16.1631 18.631 16.0325 18.6079 15.9095 18.5618C15.7865 18.5157 15.6802 18.4504 15.5905 18.3658C15.5009 18.2813 15.4291 18.1801 15.3753 18.0622C15.3241 17.9418 15.2985 17.8086 15.2985 17.6625C15.2985 17.5165 15.3241 17.3846 15.3753 17.2667C15.4291 17.1463 15.5009 17.0438 15.5905 16.9593C15.6802 16.8747 15.7865 16.8094 15.9095 16.7633C16.0325 16.7172 16.1631 16.6941 16.3015 16.6941C16.4193 16.6941 16.5372 16.7172 16.655 16.7633C16.7534 16.7988 16.8414 16.8523 16.9193 16.9238C16.9489 16.951 16.9477 16.9971 16.9193 17.0255L16.7055 17.2393Z" fill="currentColor"/>
<path d="M17.1044 17.1322C17.063 17.1322 17.0294 17.0986 17.0294 17.0572V16.8152C17.0294 16.7738 17.063 16.7402 17.1044 16.7402H17.3349C17.3763 16.7402 17.4099 16.7066 17.4099 16.6652V16.2811C17.4099 16.2396 17.4435 16.2061 17.4849 16.2061H17.796C17.8375 16.2061 17.871 16.2396 17.871 16.2811V16.6652C17.871 16.7066 17.9046 16.7402 17.946 16.7402H18.3033C18.3447 16.7402 18.3783 16.7738 18.3783 16.8152V17.0572C18.3783 17.0986 18.3447 17.1322 18.3033 17.1322H17.946C17.9046 17.1322 17.871 17.1658 17.871 17.2072V17.9392C17.871 18.0315 17.8877 18.1045 17.921 18.1583C17.9569 18.2121 18.026 18.239 18.1285 18.239C18.1695 18.239 18.2144 18.2351 18.263 18.2275C18.314 18.2167 18.3783 18.2544 18.3783 18.3064V18.522C18.3783 18.551 18.3618 18.5779 18.3343 18.5872C18.2947 18.6006 18.2492 18.6101 18.1977 18.6156C18.1285 18.6258 18.067 18.631 18.0132 18.631C17.8903 18.631 17.7891 18.6169 17.7096 18.5887C17.6328 18.5631 17.5713 18.5234 17.5252 18.4696C17.4816 18.4132 17.4509 18.344 17.4329 18.262C17.4176 18.1801 17.4099 18.0853 17.4099 17.9777V17.2072C17.4099 17.1658 17.3763 17.1322 17.3349 17.1322H17.1044Z" fill="currentColor"/>
</g>
</g>
<defs>
<clipPath id="clip0_5324_6712">
<rect width="24" height="24" fill="currentColor"/>
</clipPath>
<clipPath id="clip1_5324_6712">
<rect width="24" height="24" fill="currentColor"/>
</clipPath>
</defs>
</svg>
