<svg width="32" height="16" viewBox="0 0 32 16" fill="none" xmlns="http://www.w3.org/2000/svg">
<g clip-path="url(#clip0_3055_7565)">
<g clip-path="url(#clip1_3055_7565)">
<path d="M0.727182 4.0083C0.33078 4.0083 0 4.33231 0 4.72283V9.97668C0 10.3591 0.33078 10.6833 0.727182 10.6833C1.12358 10.6833 1.44605 10.3593 1.44605 9.97668V4.72283C1.44605 4.33231 1.12344 4.0083 0.727182 4.0083Z" fill="#FFFFFE"/>
<path d="M14.1922 6.05099C14.0226 5.65254 13.7629 5.30198 13.4431 4.9885C13.1234 4.69363 12.7461 4.44666 12.3251 4.27672C11.8958 4.10678 11.4366 4.02166 10.9583 4.02166H9.55321C9.51223 4.01099 9.47393 4.01099 9.43295 4.01099C9.01473 4.01099 8.67578 4.3324 8.67578 4.73345V9.9661C8.67578 10.3645 8.99557 10.6699 9.40296 10.6886H10.9583C11.4366 10.6886 11.8958 10.5929 12.3251 10.423C12.7433 10.253 13.1232 10.014 13.4431 9.71912C13.7629 9.39511 14.0226 9.05508 14.1922 8.6461C14.3725 8.23712 14.46 7.80939 14.46 7.35525C14.46 6.90631 14.3725 6.46011 14.1922 6.05113V6.05099ZM12.4126 8.71246C12.0191 9.08697 11.4996 9.27826 10.9311 9.27826H10.122V5.4135H10.9311C11.4997 5.4135 12.0191 5.6234 12.4126 5.98982C12.8062 6.35365 13.0141 6.83447 13.0141 7.35237C13.0141 7.87027 12.8064 8.34835 12.4126 8.71232V8.71246Z" fill="#FFFFFE"/>
<path d="M9.83529 2.28194L7.70036 0.207457C7.55279 0.0640611 7.35592 -0.00504006 7.16188 0.000297614C6.96783 -0.00504006 6.77097 0.0613202 6.62339 0.207457L4.48847 2.28194C4.20416 2.5582 4.20416 3.0044 4.48847 3.28066C4.77278 3.55692 5.23198 3.55692 5.51629 3.28066L6.48116 2.3431V7.98213L3.90886 4.36709C3.78044 4.14925 3.54259 4.00586 3.26927 4.00586C2.8647 4.00586 2.53125 4.32987 2.53125 4.72039V9.9689C2.53125 10.3594 2.8647 10.6834 3.26927 10.6834C3.67384 10.6834 4.00729 10.3594 4.00729 9.9689V6.71783L6.62057 10.3701C6.62057 10.378 6.62057 10.3887 6.63156 10.3994C6.77913 10.58 6.98699 10.6863 7.22201 10.6863C7.62657 10.6863 7.95186 10.3623 7.95186 9.97179V2.45188L8.80746 3.28325C9.09177 3.55951 9.55098 3.55951 9.83529 3.28325C10.1196 3.00699 10.1196 2.55805 9.83529 2.28194Z" fill="#FFFFFE"/>
<path d="M26.7653 6.83141C26.5981 6.45278 26.8754 6.02722 27.2893 6.02722C27.5244 6.02722 27.7356 6.17087 27.822 6.38951L28.9571 9.26205H28.9761L29.9833 6.39192C30.0599 6.17345 30.2662 6.02722 30.4978 6.02722C30.8836 6.02722 31.1474 6.41707 31.0039 6.77526L29.1383 11.431C29.0556 11.6349 28.9666 11.8141 28.8712 11.9685C28.7758 12.1292 28.6613 12.2621 28.5278 12.3671C28.3943 12.4783 28.2353 12.5618 28.0509 12.6174C27.8728 12.673 27.6566 12.7008 27.4022 12.7008C27.3068 12.7008 27.2082 12.6946 27.1065 12.6822C26.935 12.6711 26.8234 12.5087 26.8403 12.3377L26.8841 11.8956C26.8954 11.7806 27.0105 11.7081 27.1256 11.7183C27.2019 11.7306 27.2718 11.7368 27.3354 11.7368C27.4563 11.7368 27.558 11.7214 27.6407 11.6905C27.7233 11.6658 27.7933 11.6225 27.8505 11.5607C27.9078 11.5051 27.9586 11.434 28.0032 11.3475C28.0477 11.261 28.0954 11.1591 28.1462 11.0417L28.3752 10.4763L26.7653 6.83141Z" fill="#1FD8AD"/>
<path d="M24.6943 9.91026H24.6657C24.5512 10.108 24.3668 10.2717 24.1124 10.4015C23.858 10.5251 23.5687 10.5869 23.2444 10.5869C23.0599 10.5869 22.866 10.5622 22.6625 10.5127C22.4653 10.4695 22.2809 10.3953 22.1092 10.2903C21.9439 10.1791 21.804 10.0369 21.6895 9.86391C21.5814 9.68472 21.5273 9.46535 21.5273 9.20583C21.5273 8.87215 21.6227 8.60644 21.8135 8.40871C22.0106 8.21097 22.2618 8.05958 22.5671 7.95453C22.8723 7.84949 23.2094 7.78151 23.5782 7.75062C23.9534 7.71354 24.3191 7.69501 24.6752 7.69501V7.58378C24.6752 7.30571 24.5703 7.1018 24.3604 6.97204C24.1569 6.83609 23.9121 6.76812 23.6259 6.76812C23.3843 6.76812 23.1521 6.81756 22.9296 6.91642C22.8669 6.94427 22.8072 6.97383 22.7506 7.00511C22.5296 7.12717 22.2368 7.11827 22.0706 6.92816C21.9121 6.74685 21.9268 6.46796 22.13 6.33875C22.3009 6.23013 22.4847 6.14153 22.6816 6.07296C23.025 5.95555 23.3715 5.89685 23.7213 5.89685C24.1283 5.89685 24.4622 5.95246 24.7229 6.06369C24.99 6.17492 25.1998 6.32013 25.3525 6.49933C25.5051 6.67852 25.61 6.87935 25.6672 7.1018C25.7308 7.32425 25.7626 7.5467 25.7626 7.76916V9.94148C25.7626 10.2365 25.5235 10.4757 25.2284 10.4757C24.9334 10.4757 24.6943 10.2365 24.6943 9.94148V9.91026ZM24.6752 8.44578H24.4176C24.2332 8.44578 24.0393 8.45505 23.8358 8.47359C23.6323 8.48595 23.4447 8.51993 23.273 8.57554C23.1013 8.62498 22.9582 8.69913 22.8437 8.798C22.7292 8.89069 22.672 9.02045 22.672 9.18729C22.672 9.29234 22.6943 9.38193 22.7388 9.45608C22.7897 9.52406 22.8533 9.57967 22.9296 9.62292C23.0059 9.66618 23.0917 9.69707 23.1871 9.71561C23.2825 9.73415 23.3779 9.74342 23.4733 9.74342C23.8676 9.74342 24.1664 9.64146 24.3699 9.43755C24.5734 9.23363 24.6752 8.95557 24.6752 8.60335V8.44578Z" fill="#1FD8AD"/>
<path d="M16.3649 6.02674C16.6678 6.02674 16.9134 6.2723 16.9134 6.57523V6.64775H16.942C16.9992 6.56124 17.0724 6.47473 17.1614 6.38822C17.2568 6.29553 17.3713 6.2152 17.5048 6.14723C17.6383 6.07308 17.7878 6.01438 17.9531 5.97112C18.1248 5.92169 18.3156 5.89697 18.5255 5.89697C18.8498 5.89697 19.1487 5.95876 19.4221 6.08235C19.6956 6.19975 19.9309 6.3635 20.128 6.5736C20.3251 6.78369 20.4778 7.03086 20.5859 7.3151C20.694 7.59935 20.748 7.90522 20.748 8.23272C20.748 8.56022 20.694 8.86918 20.5859 9.1596C20.4841 9.44385 20.3347 9.69411 20.1375 9.91038C19.9468 10.1205 19.7115 10.2904 19.4317 10.4202C19.1582 10.5438 18.8466 10.6055 18.4968 10.6055C18.1725 10.6055 17.8736 10.5407 17.6002 10.4109C17.3331 10.2811 17.1264 10.105 16.9802 9.88257H16.9611V12.128C16.9611 12.4441 16.7048 12.7003 16.3887 12.7003C16.0726 12.7003 15.8164 12.4441 15.8164 12.128V6.57522C15.8164 6.2723 16.062 6.02674 16.3649 6.02674ZM19.5843 8.23272C19.5843 8.0597 19.5557 7.88977 19.4984 7.72293C19.4476 7.54992 19.3681 7.39543 19.26 7.25949C19.1519 7.12355 19.0151 7.01541 18.8498 6.93508C18.6844 6.84857 18.4905 6.80532 18.2679 6.80532C18.0581 6.80532 17.8705 6.84857 17.7051 6.93508C17.5398 7.02159 17.3967 7.13282 17.2759 7.26876C17.1614 7.4047 17.0724 7.55918 17.0088 7.7322C16.9515 7.90522 16.9229 8.07824 16.9229 8.25126C16.9229 8.42428 16.9515 8.59729 17.0088 8.77031C17.0724 8.93715 17.1614 9.08854 17.2759 9.22449C17.3967 9.36043 17.5398 9.47165 17.7051 9.55816C17.8705 9.63849 18.0581 9.67866 18.2679 9.67866C18.4905 9.67866 18.6844 9.6354 18.8498 9.54889C19.0151 9.46239 19.1519 9.35116 19.26 9.21522C19.3681 9.07927 19.4476 8.92479 19.4984 8.75178C19.5557 8.57876 19.5843 8.40574 19.5843 8.23272Z" fill="#1FD8AD"/>
<path d="M15.0864 14.7429C15.0864 14.4671 14.9125 14.2417 14.6054 14.2417C14.32 14.2417 14.1162 14.4592 14.1162 14.7429C14.1162 15.0267 14.32 15.2415 14.6054 15.2415C14.9125 15.2415 15.0864 15.0187 15.0864 14.7429ZM13.9531 15.2839V13.4382C13.9531 13.3533 14.0156 13.3401 14.0455 13.3401C14.0754 13.3401 14.1379 13.3533 14.1379 13.4382V14.3372H14.1434C14.2521 14.1754 14.4423 14.0906 14.6244 14.0906C15.0212 14.0906 15.2821 14.377 15.2821 14.7429C15.2821 15.1089 15.0212 15.3953 14.6244 15.3953C14.4423 15.3953 14.2521 15.3105 14.1434 15.154H14.1379V15.2839C14.1379 15.3688 14.0754 15.3821 14.0455 15.3821C14.0156 15.3821 13.9531 15.3688 13.9531 15.2839Z" fill="#FFFFFE"/>
<path d="M16.6837 14.2364L16.0831 15.6844C16.0043 15.8753 15.9037 15.9999 15.6836 15.9999C15.651 15.9999 15.6047 15.9973 15.5749 15.9893C15.5287 15.9761 15.5069 15.9469 15.5069 15.9098C15.5069 15.8674 15.5395 15.8329 15.5857 15.8329C15.5993 15.8329 15.6129 15.8355 15.6292 15.8382C15.651 15.8408 15.6618 15.8408 15.6754 15.8408C15.7977 15.8408 15.8629 15.7613 15.9173 15.6207L16.0206 15.3608L15.5151 14.2417C15.5069 14.2205 15.5042 14.2046 15.5042 14.1913C15.5042 14.141 15.5477 14.1038 15.5993 14.1038C15.6292 14.1038 15.6673 14.1144 15.6917 14.1754L16.1157 15.1699H16.1211L16.5098 14.1754C16.5315 14.1171 16.5695 14.1038 16.5994 14.1038C16.6538 14.1038 16.6946 14.141 16.6946 14.1887C16.6946 14.1993 16.6918 14.2152 16.6837 14.2364Z" fill="#FFFFFE"/>
<path d="M17.9944 13.6504V15.1991C17.9944 15.3582 17.8803 15.3874 17.8232 15.3874C17.7661 15.3874 17.652 15.3582 17.652 15.1991V13.6504C17.652 13.4912 17.7661 13.4621 17.8232 13.4621C17.8803 13.4621 17.9944 13.4912 17.9944 13.6504Z" fill="#FFFFFE"/>
<path d="M19.661 15.2335L18.7669 14.0296H18.7614V15.1991C18.7614 15.3582 18.6473 15.3874 18.5902 15.3874C18.5331 15.3874 18.419 15.3582 18.419 15.1991V13.7061C18.419 13.4992 18.5658 13.4621 18.6337 13.4621C18.7098 13.4621 18.7832 13.4939 18.8729 13.6159L19.767 14.8172H19.7724V13.6504C19.7724 13.4912 19.8866 13.4621 19.9437 13.4621C20.0007 13.4621 20.1149 13.4912 20.1149 13.6504V15.1434C20.1149 15.3502 19.9681 15.3874 19.9002 15.3874C19.8214 15.3874 19.7534 15.3555 19.661 15.2335Z" fill="#FFFFFE"/>
<path d="M21.2217 15.3635H20.7434C20.6048 15.3635 20.5396 15.2998 20.5396 15.1646V13.6848C20.5396 13.5496 20.6048 13.4859 20.7434 13.4859H21.2217C21.7245 13.4859 22.2844 13.7193 22.2844 14.4247C22.2844 15.0824 21.7245 15.3635 21.2217 15.3635ZM20.882 13.7723V15.0718H21.1674C21.5207 15.0718 21.9175 14.9312 21.9175 14.4247C21.9175 13.8864 21.5207 13.7723 21.1674 13.7723H20.882Z" fill="#FFFFFE"/>
<path d="M22.5987 15.2097V14.2338C22.5987 14.0906 22.7047 14.0667 22.7537 14.0667C22.8026 14.0667 22.9086 14.0906 22.9086 14.2338V14.2948H22.914C22.9711 14.1701 23.1097 14.0535 23.3189 14.0535C23.5201 14.0535 23.6532 14.1516 23.7266 14.2948C23.8136 14.141 23.9603 14.0535 24.156 14.0535C24.4957 14.0535 24.637 14.308 24.637 14.5679V15.2097C24.637 15.3608 24.5283 15.3874 24.474 15.3874C24.4196 15.3874 24.3109 15.3608 24.3109 15.2097V14.6581C24.3109 14.5069 24.2756 14.3186 24.0663 14.3186C23.8625 14.3186 23.7782 14.5043 23.7782 14.6687V15.2097C23.7782 15.3608 23.6695 15.3874 23.6152 15.3874C23.5608 15.3874 23.4521 15.3608 23.4521 15.2097V14.5944C23.4521 14.438 23.376 14.3186 23.2102 14.3186C23.0146 14.3186 22.9249 14.4937 22.9249 14.6634V15.2097C22.9249 15.3608 22.8162 15.3874 22.7618 15.3874C22.7074 15.3874 22.5987 15.3608 22.5987 15.2097Z" fill="#FFFFFE"/>
<path d="M26.3591 14.7217C26.3591 15.1222 26.0439 15.4006 25.6498 15.4006C25.2557 15.4006 24.9405 15.1222 24.9405 14.7217C24.9405 14.3213 25.2557 14.0535 25.6498 14.0535C26.0439 14.0535 26.3591 14.3213 26.3591 14.7217ZM26.0276 14.7217C26.0276 14.5228 25.908 14.3133 25.6498 14.3133C25.3916 14.3133 25.272 14.5228 25.272 14.7217C25.272 14.9206 25.3916 15.1354 25.6498 15.1354C25.908 15.1354 26.0276 14.9206 26.0276 14.7217Z" fill="#FFFFFE"/>
<path d="M26.6754 15.2097V14.2338C26.6754 14.0906 26.7813 14.0667 26.8303 14.0667C26.8792 14.0667 26.9852 14.0906 26.9852 14.2338V14.2948H26.9906C27.0477 14.1675 27.2026 14.0535 27.3956 14.0535C27.7353 14.0535 27.8766 14.308 27.8766 14.5679V15.2097C27.8766 15.3608 27.7679 15.3874 27.7135 15.3874C27.6592 15.3874 27.5505 15.3608 27.5505 15.2097V14.6581C27.5505 14.5069 27.5151 14.3186 27.3059 14.3186C27.0993 14.3186 27.0015 14.4937 27.0015 14.6634V15.2097C27.0015 15.3608 26.8928 15.3874 26.8384 15.3874C26.7841 15.3874 26.6754 15.3608 26.6754 15.2097Z" fill="#FFFFFE"/>
<path d="M29.328 14.8278H28.5072C28.5208 15.0081 28.6893 15.1407 28.8795 15.1407C29.0154 15.1407 29.097 15.0983 29.1785 15.032C29.2247 14.9949 29.2546 14.9869 29.2899 14.9869C29.3633 14.9869 29.4204 15.0373 29.4204 15.1142C29.4204 15.1407 29.4095 15.1885 29.366 15.2282C29.2383 15.3476 29.0915 15.4006 28.8823 15.4006C28.48 15.4006 28.1811 15.1487 28.1811 14.735C28.1811 14.3239 28.4773 14.0535 28.8714 14.0535C29.1866 14.0535 29.4421 14.2285 29.4937 14.6024C29.4965 14.6289 29.4992 14.6475 29.4992 14.6687C29.4992 14.7801 29.4367 14.8278 29.328 14.8278ZM28.5072 14.5997H29.1758C29.1758 14.4353 29.0806 14.2921 28.8687 14.2921C28.6757 14.2921 28.5208 14.4221 28.5072 14.5997Z" fill="#FFFFFE"/>
<path d="M30.9592 14.2974L30.3993 15.6366C30.3015 15.87 30.1846 15.9999 29.9047 15.9999C29.7661 15.9999 29.7253 15.9204 29.7253 15.8567C29.7253 15.7931 29.7688 15.7374 29.8341 15.7268C29.8504 15.7242 29.864 15.7242 29.8857 15.7242C29.9727 15.7242 30.0569 15.6711 30.1167 15.5253L30.1819 15.3635L29.69 14.308C29.6737 14.2709 29.6683 14.2364 29.6683 14.2152C29.6683 14.133 29.7362 14.0667 29.8313 14.0667C29.8884 14.0667 29.9509 14.0906 29.9944 14.1913L30.3477 15.0161H30.3531L30.6575 14.1993C30.6983 14.0906 30.7635 14.0667 30.8179 14.0667C30.9103 14.0667 30.9782 14.1251 30.9782 14.2099C30.9782 14.2285 30.9755 14.255 30.9592 14.2974Z" fill="#FFFFFE"/>
</g>
</g>
<defs>
<clipPath id="clip0_3055_7565">
<rect width="31.3054" height="16" fill="white"/>
</clipPath>
<clipPath id="clip1_3055_7565">
<rect width="31.3054" height="16" fill="white"/>
</clipPath>
</defs>
</svg>
