<svg width="24" height="24" viewBox="0 0 24 24" fill="none" xmlns="http://www.w3.org/2000/svg">
<g clip-path="url(#clip0_1821_19340)">
<path d="M11.6721 21C11.5893 21 11.5127 20.956 11.4709 20.8845L6.71437 12.7351C6.69357 12.6994 6.68262 12.6589 6.68262 12.6177V11.8043C6.68262 11.6757 6.78688 11.5714 6.91549 11.5714H7.24783C8.15561 11.5714 8.9178 11.4874 9.5344 11.3193C10.1681 11.1513 10.6648 10.8739 11.0245 10.4874C11.3373 10.1512 11.54 9.70698 11.6326 9.15469C11.6554 9.01865 11.5469 8.89916 11.409 8.89916H6.91549C6.78688 8.89916 6.68262 8.7949 6.68262 8.66629V7.51858C6.68262 7.38997 6.78688 7.28571 6.91549 7.28571H11.3591C11.5054 7.28571 11.6159 7.15213 11.5783 7.01078C11.4457 6.51357 11.2269 6.10101 10.9217 5.77311C10.5621 5.36975 10.0739 5.07563 9.45732 4.89076C8.85785 4.70588 8.12135 4.61345 7.24783 4.61345H6.91549C6.78688 4.61345 6.68262 4.50919 6.68262 4.38058V3.23287C6.68262 3.10426 6.78688 3 6.91549 3H17.0861C17.2147 3 17.319 3.10426 17.319 3.23287V4.38058C17.319 4.50919 17.2147 4.61345 17.0861 4.61345H13.1203C12.901 4.61345 12.7928 4.90203 12.9397 5.06497C13.1281 5.27392 13.2947 5.50156 13.4395 5.7479C13.6661 6.13323 13.8194 6.57736 13.8994 7.08031C13.918 7.19703 14.0168 7.28571 14.135 7.28571H17.0861C17.2147 7.28571 17.319 7.38997 17.319 7.51858V8.66629C17.319 8.7949 17.2147 8.89916 17.0861 8.89916H14.1903C14.0704 8.89916 13.9707 8.99029 13.9547 9.10905C13.8026 10.2358 13.3311 11.1238 12.5403 11.7731C11.7904 12.3863 10.8125 12.7968 9.60652 13.0045C9.44033 13.0331 9.35174 13.2206 9.44039 13.364L13.9394 20.6447C14.0352 20.7999 13.9236 21 13.7413 21H11.6721Z" fill="#223466"/>
</g>
<defs>
<clipPath id="clip0_1821_19340">
<rect width="24" height="24" fill="white"/>
</clipPath>
</defs>
</svg>
