<svg width="166" height="48" viewBox="0 0 166 48" fill="none" xmlns="http://www.w3.org/2000/svg">
<g clip-path="url(#clip0_3396_57017)">
<path d="M12.056 0.597927C10.7179 1.2661 9.72087 2.41567 9.24957 3.83508L0.290252 30.7621C-0.184491 32.1772 -0.0738933 33.6996 0.600247 35.0435C1.26934 36.3728 2.42029 37.3721 3.83465 37.845L33.2169 47.7099C34.6416 48.1826 36.1624 48.075 37.4987 47.4041C38.8369 46.7283 39.836 45.5845 40.3013 44.1614L49.2645 17.2422C50.2461 14.31 48.65 11.1283 45.7181 10.1515L16.3386 0.289768C14.9111 -0.180845 13.4002 -0.0782782 12.056 0.597927Z" fill="white"/>
<path d="M26.4184 26.4586C24.8225 28.2389 22.8327 29.6758 20.526 30.5667L19.2002 31.0802V18.6043L20.5099 19.1121C22.8198 19.9939 24.8147 21.4307 26.4184 23.2033C27.5599 21.366 28.2692 19.2348 28.4142 16.9167C28.7772 10.9354 25.0313 5.44733 19.8856 3.53711L15.6411 2.12481C13.7254 1.48647 11.6864 2.54334 11.0543 4.45333L2.06903 31.3955C1.43115 33.3133 2.50569 35.394 4.4237 36.0243L24.8147 42.8325C26.8936 40.6222 28.2423 37.6929 28.439 34.4259C28.6193 31.5105 27.8594 28.7616 26.4184 26.4586ZM14.6319 31.8487H12.6075V17.8609H14.6319V31.8487Z" fill="#0099DA"/>
<path d="M25.2425 24.8313C24.1039 23.4965 22.7277 22.3749 21.1387 21.5537V28.1285C22.7277 27.3052 24.1115 26.1704 25.2425 24.8313Z" fill="#F15C21"/>
<path d="M45.0665 11.9493L26.3535 5.69531C28.867 8.44694 30.4048 12.1024 30.4121 16.1057C30.416 19.2706 29.4294 22.2976 27.7124 24.8312C29.4358 27.3573 30.4282 30.3822 30.4369 33.5466C30.438 37.3269 29.0797 40.8096 26.8179 43.5059L33.8452 45.8514C35.7672 46.4904 37.796 45.4338 38.435 43.5181L47.4249 16.5784C48.0611 14.6638 46.9855 12.5854 45.0665 11.9493ZM40.1089 31.8041L37.581 31.811L32.3808 24.8161L37.6629 17.8229L40.2126 17.8129L34.9184 24.8262L40.1089 31.8041Z" fill="#0055A2"/>
<path d="M98.1084 16.4173C98.8753 16.4173 99.4957 16.5786 100.067 16.747C100.06 16.7842 99.9445 17.9633 99.9367 18.0409C99.5265 17.8215 98.6249 17.6175 98.2801 17.6175C97.5557 17.6175 96.7847 17.9135 96.7847 18.7387C96.7847 19.547 97.4107 19.8928 98.2925 20.2946L98.3367 20.3132C99.3441 20.77 100.726 21.396 100.726 22.8982C100.726 24.5845 99.0483 25.4924 97.4712 25.4924C96.7849 25.4924 95.9015 25.4394 95.1154 25.0315C95.1198 24.9952 95.195 23.7858 95.1978 23.7043C95.8582 24.1052 96.7374 24.2917 97.1658 24.2917C97.9313 24.2917 98.7605 23.9448 98.7605 22.9836C98.7605 22.2773 97.9469 21.7941 97.2376 21.4488C96.0638 20.8765 94.8575 20.1202 94.8575 18.8571C94.8573 17.3727 96.1312 16.4173 98.1084 16.4173ZM123.186 16.4173C125.662 16.4173 126.967 17.6517 126.967 19.9901C126.967 19.9901 126.967 25.2279 126.967 25.2857C126.917 25.2857 125.374 25.2857 125.317 25.2857C125.317 25.2341 125.317 23.9985 125.317 23.9985L125.161 24.2091C124.881 24.5957 124.055 25.4927 122.516 25.4927C120.417 25.4927 119.215 24.5168 119.215 22.8131C119.215 20.566 121.937 19.9706 123.377 19.9706C123.965 19.9706 124.433 19.9706 125.053 20.0039L125.144 20.0091V19.9203C125.133 18.2869 124.491 17.6178 122.925 17.6178C122.042 17.6178 121.09 17.9452 120.43 18.4684C120.424 18.3841 120.352 17.2502 120.352 17.2201C121.253 16.6866 122.207 16.4173 123.186 16.4173ZM122.656 24.2917C124.188 24.2917 125.144 23.3837 125.144 21.9347V21.1105L124.065 21.0743C123.134 21.0743 120.968 21.2445 120.968 22.8131C120.968 23.7229 121.844 24.2917 122.656 24.2917ZM74.2593 34.0163C76.7379 34.0163 78.0446 35.2496 78.0446 37.5928C78.0446 37.5928 78.0446 42.8315 78.0446 42.8849C77.9896 42.8849 76.4449 42.8849 76.387 42.8849C76.387 42.8338 76.387 41.5981 76.387 41.5981L76.2349 41.809C75.9541 42.1991 75.1305 43.0958 73.5879 43.0958C71.4882 43.0958 70.2863 42.1165 70.2863 40.4116C70.2863 38.1671 73.0124 37.5749 74.447 37.5749C75.0376 37.5749 75.5036 37.5749 76.1239 37.6086L76.2166 37.6109V37.5203C76.2104 35.8902 75.5631 35.2214 73.9991 35.2214C73.1148 35.2214 72.1628 35.5476 71.5029 36.0685C71.4971 35.9749 71.4246 34.8517 71.4223 34.818C72.3238 34.2888 73.28 34.0163 74.2593 34.0163ZM73.7288 41.8898C75.2657 41.8898 76.2193 40.9862 76.2193 39.5342V38.7116L75.1377 38.6753C74.2065 38.6753 72.0435 38.8472 72.0435 40.4116C72.0435 41.3269 72.9154 41.8898 73.7288 41.8898ZM161.425 34.0163C163.901 34.0163 165.208 35.2496 165.208 37.5928C165.208 37.5928 165.208 42.8315 165.208 42.8849C165.155 42.8849 163.613 42.8849 163.553 42.8849C163.553 42.8338 163.553 41.5981 163.553 41.5981L163.4 41.809C163.118 42.1991 162.296 43.0958 160.756 43.0958C158.658 43.0958 157.452 42.1165 157.452 40.4116C157.452 38.1671 160.173 37.5749 161.613 37.5749C162.204 37.5749 162.672 37.5749 163.29 37.6086L163.381 37.6109V37.5203C163.371 35.8902 162.73 35.2214 161.164 35.2214C160.281 35.2214 159.327 35.5476 158.669 36.0685C158.666 35.9818 158.593 34.8517 158.589 34.818C159.497 34.2888 160.451 34.0163 161.425 34.0163ZM160.889 41.8898C162.427 41.8898 163.385 40.9862 163.385 39.5342V38.7116L162.299 38.6753C161.37 38.6753 159.207 38.8472 159.207 40.4116C159.207 41.3269 160.083 41.8898 160.889 41.8898ZM106.094 34.0163C108.742 34.0163 110.668 35.9223 110.668 38.5549C110.668 41.1 108.657 43.0956 106.094 43.0956C103.514 43.0956 101.5 41.1 101.5 38.5549C101.5 35.9223 103.432 34.0163 106.094 34.0163ZM106.094 41.8898C107.986 41.8898 108.853 40.1613 108.853 38.5549C108.853 36.9395 107.889 35.2211 106.094 35.2211C104.285 35.2211 103.317 36.9395 103.317 38.5549C103.317 40.1613 104.186 41.8898 106.094 41.8898ZM136.171 34.0163C138.821 34.0163 140.745 35.9223 140.745 38.5549C140.745 41.1 138.736 43.0956 136.171 43.0956C133.594 43.0956 131.579 41.1 131.579 38.5549C131.579 35.9223 133.509 34.0163 136.171 34.0163ZM136.171 41.8898C138.066 41.8898 138.932 40.1613 138.932 38.5549C138.932 36.9395 137.968 35.2211 136.171 35.2211C134.368 35.2211 133.392 36.9395 133.392 38.5549C133.392 40.1613 134.264 41.8898 136.171 41.8898ZM152.369 34.0163C154.898 34.0163 156.242 35.6949 156.255 38.8649C156.197 38.8649 149.933 38.8649 149.933 38.8649V38.9502C149.949 40.6009 151.24 41.8898 152.87 41.8898C153.924 41.8898 155.143 41.3694 155.586 41.0557C155.586 41.1558 155.586 42.5047 155.586 42.5433C155.542 42.5582 155.383 42.6158 155.383 42.6158C154.775 42.848 154.024 43.0956 152.802 43.0956C149.841 43.0956 148.075 41.3377 148.075 38.4014C148.075 35.8602 149.881 34.0163 152.369 34.0163ZM149.926 37.7656H154.568V37.6758C154.552 36.4579 153.859 35.2214 152.334 35.2214C150.772 35.2214 150.073 36.485 149.935 37.6676L149.929 37.7337L149.926 37.7656ZM60.832 13.5107C60.832 13.5679 60.832 25.2277 60.832 25.2855C60.8814 25.2855 62.5569 25.2855 62.6099 25.2855C62.6099 25.2277 62.6099 13.5679 62.6099 13.5107C62.5569 13.5107 60.8814 13.5107 60.832 13.5107ZM60.832 31.1104C60.8873 31.1104 62.7638 31.1166 62.7638 31.1166H64.2445C67.0064 31.1166 68.466 32.137 68.466 34.0596C68.466 35.5029 67.7116 36.403 66.1575 36.8138L66.1123 36.8243L66.1244 36.9739L66.1701 36.9801C67.8669 37.1573 69.0493 38.3041 69.0493 39.7733C69.0493 41.7799 67.324 42.8852 64.1915 42.8852C64.1915 42.8852 60.8873 42.8852 60.832 42.8852C60.832 42.8315 60.832 31.1676 60.832 31.1104ZM62.6819 36.183H63.666C65.333 36.183 66.8337 36.0357 66.8337 34.2301C66.8337 32.5872 65.213 32.4089 64.5175 32.4089H62.6819V36.1584V36.183ZM62.6819 41.5961H64.0043C66.0951 41.5961 67.1063 40.9483 67.1063 39.6214C67.1063 37.699 65.241 37.4799 63.8335 37.4799H62.6819V41.5672V41.5961ZM128.969 13.5107C128.969 13.5679 128.969 25.2277 128.969 25.2855C129.022 25.2855 130.695 25.2855 130.747 25.2855C130.747 25.2277 130.747 13.5679 130.747 13.5107C130.695 13.5107 129.022 13.5107 128.969 13.5107ZM112.895 33.7806V34.2241C112.895 34.2241 110.978 34.2241 110.926 34.2241C110.926 34.2767 110.926 35.3728 110.926 35.4269C110.978 35.4269 112.895 35.4269 112.895 35.4269C112.895 35.4269 112.895 42.8315 112.895 42.8849C112.953 42.8849 114.623 42.8849 114.67 42.8849C114.67 42.8315 114.67 35.4269 114.67 35.4269C114.67 35.4269 116.767 35.4269 116.821 35.4269C116.821 35.3726 116.821 34.2765 116.821 34.2241C116.767 34.2241 114.67 34.2241 114.67 34.2241V33.6443C114.67 32.5108 114.794 31.5723 116.263 31.5723C116.529 31.5723 116.681 31.6035 116.842 31.6572C116.844 31.5911 116.904 30.4558 116.904 30.4053C116.491 30.3427 116.111 30.3078 115.785 30.3078C113.244 30.3078 112.895 31.9764 112.895 33.7806ZM90.3801 31.1104C90.3801 31.1676 90.3801 42.8315 90.3801 42.8849C90.4377 42.8849 92.1052 42.8849 92.1603 42.8849C92.1603 42.8315 92.1603 38.3009 92.1603 38.3009C92.1603 38.3009 96.1333 42.8689 96.1516 42.8849C96.1787 42.8849 98.2243 42.8849 98.3438 42.8849C98.2647 42.798 93.9328 37.8062 93.9328 37.8062C93.9328 37.8062 97.3806 34.3173 97.4673 34.2241C97.343 34.2241 95.8157 34.2241 95.7914 34.2241C95.773 34.2386 92.1603 37.853 92.1603 37.853C92.1603 37.853 92.1603 31.1678 92.1603 31.1104C92.1052 31.1104 90.438 31.1104 90.3801 31.1104ZM115.83 16.6201C115.83 16.6765 115.83 25.2277 115.83 25.2855C115.88 25.2855 117.547 25.2855 117.603 25.2855C117.603 25.2277 117.603 16.6765 117.603 16.6201C117.547 16.6201 115.88 16.6201 115.83 16.6201ZM115.83 13.5107C115.83 13.5644 115.83 15.178 115.83 15.2305C115.88 15.2305 117.547 15.2305 117.603 15.2305C117.603 15.178 117.603 13.5647 117.603 13.5107C117.547 13.5107 115.88 13.5107 115.83 13.5107ZM113.164 16.4173C112.31 16.4285 111.434 16.9971 110.988 17.8307V17.8245C110.986 17.841 110.961 17.8782 110.882 18.0285L110.825 18.1285C110.825 18.1285 110.825 16.6736 110.825 16.6201C110.773 16.6201 109.17 16.6201 109.113 16.6201C109.113 16.6765 109.113 25.2277 109.113 25.2855C109.171 25.2855 110.838 25.2855 110.896 25.2855C110.896 25.2277 110.896 21.348 110.896 21.348C110.896 19.2166 111.826 17.8245 113.326 17.7203C113.7 17.6997 114.097 17.8059 114.284 17.8619C114.284 17.7935 114.284 16.5643 114.284 16.5203C114.165 16.4884 113.785 16.4049 113.164 16.4173ZM146.263 34.0163C145.412 34.0284 144.54 34.5993 144.092 35.432V35.4267C144.085 35.4389 144.064 35.4783 143.98 35.6296L143.932 35.7305C143.932 35.7305 143.932 34.2762 143.932 34.2237C143.876 34.2237 142.274 34.2237 142.217 34.2237C142.217 34.2783 142.217 42.8312 142.217 42.8845C142.274 42.8845 143.941 42.8845 143.996 42.8845C143.996 42.831 143.996 38.9498 143.996 38.9498C143.996 36.8181 144.925 35.4265 146.428 35.3235C146.803 35.2968 147.202 35.4084 147.384 35.4609C147.384 35.3962 147.384 34.1654 147.384 34.1229C147.262 34.0881 146.892 34.0071 146.263 34.0163ZM103.485 14.4531C103.485 14.5119 103.485 16.6201 103.485 16.6201C103.485 16.6201 101.562 16.6201 101.507 16.6201C101.507 16.6736 101.507 17.7706 101.507 17.8245C101.562 17.8245 103.485 17.8245 103.485 17.8245V22.9987C103.485 24.6758 104.305 25.4924 105.991 25.4924C106.529 25.4924 107.298 25.3424 107.598 25.2628C107.598 25.2217 107.598 24.0051 107.598 23.9211C107.41 24.0125 107.075 24.1435 106.679 24.1435C106.259 24.1435 105.275 24.0021 105.275 22.672L105.262 17.8245C105.262 17.8245 107.408 17.8245 107.46 17.8245C107.46 17.7706 107.46 16.6736 107.46 16.6201C107.408 16.6201 105.262 16.6201 105.262 16.6201C105.262 16.6201 105.262 14.5119 105.262 14.4531C105.204 14.4531 103.537 14.4531 103.485 14.4531ZM83.0624 13.5107C83.0624 13.5679 83.0624 25.2277 83.0624 25.2855C83.0045 25.2855 81.3339 25.2855 81.2818 25.2855C81.2818 25.2318 81.2818 23.881 81.2818 23.881L81.1292 24.1127C80.6682 24.7759 79.66 25.4924 78.2101 25.4924C75.536 25.4924 74.3192 23.0584 74.3192 20.7999C74.3192 18.6873 75.5408 16.4173 78.225 16.4173C79.559 16.4173 80.5604 16.8782 81.1264 17.7596L81.2818 18.0076C81.2818 18.0076 81.2818 13.5681 81.2818 13.511C81.3339 13.5107 83.0045 13.5107 83.0624 13.5107ZM76.1117 20.9178V21.0105C76.1117 21.8101 76.357 22.9191 77.0607 23.641C77.4818 24.0712 77.9914 24.2917 78.5852 24.2917C80.3929 24.2917 81.209 22.5715 81.209 20.9706C81.209 19.3577 80.3881 17.6175 78.5703 17.6175C77.9212 17.6175 77.3868 17.8369 76.9678 18.2612C76.4228 18.8236 76.1115 19.7471 76.1115 20.8015V20.9178H76.1117ZM66.646 17.8594L66.4874 18.0748C66.4874 18.0748 66.4874 16.6736 66.4874 16.6201C66.4349 16.6201 64.7679 16.6201 64.7126 16.6201C64.7126 16.6765 64.7126 25.2277 64.7126 25.2855C64.7679 25.2855 66.4349 25.2855 66.4874 25.2855C66.4874 25.2277 66.4874 21.2796 66.4874 21.2796C66.4874 18.9199 67.4546 17.6175 69.2012 17.6175C70.574 17.7017 71.1139 18.5971 71.1139 20.7999C71.1139 20.7999 71.1139 25.2279 71.1139 25.2855C71.1649 25.2855 72.8392 25.2855 72.8899 25.2855C72.8899 25.2277 72.8899 20.1269 72.8899 20.1269C72.8899 17.6995 71.7608 16.417 69.6172 16.417C68.4025 16.4173 67.2862 16.9567 66.646 17.8594ZM82.1457 35.4591L81.9883 35.6768C81.9883 35.6768 81.9883 34.2762 81.9883 34.2239C81.9401 34.2239 80.271 34.2239 80.2155 34.2239C80.2155 34.2785 80.2155 42.8315 80.2155 42.8847C80.271 42.8847 81.9401 42.8847 81.9883 42.8847C81.9883 42.8312 81.9883 38.8814 81.9883 38.8814C81.9883 36.5212 82.9547 35.2211 84.7066 35.2211C86.0808 35.3021 86.6171 36.1963 86.6171 38.4014C86.6171 38.4014 86.6171 42.8315 86.6171 42.8849C86.6696 42.8849 88.3394 42.8849 88.3949 42.8849C88.3949 42.8315 88.3949 37.73 88.3949 37.73C88.3949 35.3021 87.2607 34.0163 85.1229 34.0163C83.9063 34.0163 82.7895 34.5539 82.1457 35.4591ZM91.429 16.6201C91.429 16.6765 91.429 20.6296 91.429 20.6296C91.429 22.9893 90.4602 24.2915 88.7104 24.2915C87.3383 24.2022 86.8052 23.3149 86.8052 21.1103C86.8052 21.1103 86.8052 16.6765 86.8052 16.6201C86.7527 16.6201 85.0802 16.6201 85.0251 16.6201C85.0251 16.6765 85.0251 21.7776 85.0251 21.7776C85.0251 24.2089 86.1595 25.4924 88.2976 25.4924C89.5144 25.4924 90.6257 24.9523 91.2691 24.0524L91.4292 23.833C91.4292 23.833 91.4292 25.2318 91.4292 25.2855C91.4818 25.2855 93.1522 25.2855 93.2073 25.2855C93.2073 25.2277 93.2073 16.6765 93.2073 16.6201C93.152 16.6201 91.4815 16.6201 91.429 16.6201ZM129.127 31.1081C129.109 31.1265 124.666 36.3907 124.666 36.3907H124.501C124.501 36.3907 124.501 31.1637 124.501 31.1081C124.446 31.1081 122.553 31.1081 122.498 31.1081C122.498 31.1637 122.498 42.8315 122.498 42.8849C122.553 42.8849 124.446 42.8849 124.501 42.8849C124.501 42.8315 124.501 37.088 124.501 37.088H124.666C124.666 37.088 129.248 42.8661 129.267 42.8849C129.29 42.8849 131.518 42.8849 131.636 42.8849C131.561 42.7984 126.369 36.4758 126.369 36.4758C126.369 36.4758 131.008 31.1992 131.091 31.1084C130.97 31.1081 129.153 31.1081 129.127 31.1081Z" fill="#0055A2"/>
</g>
<defs>
<clipPath id="clip0_3396_57017">
<rect width="165.208" height="48" fill="white"/>
</clipPath>
</defs>
</svg>
