<svg width="302" height="40" viewBox="0 0 302 40" fill="none" xmlns="http://www.w3.org/2000/svg">
<path fill-rule="evenodd" clip-rule="evenodd" d="M142.042 17.0093H146.627V23.8453H150.384V17.0093H154.819V18.1505H158.577V5.3901V5.20845V5.02828V4.84663V4.66976H158.412H158.229H158.02H157.824H150.384V1.46691L150.46 1.39211L150.534 1.31884L150.551 1.28392L150.594 1.23754L150.609 1.17983L150.639 1.10503L150.609 1.05908L150.578 0.983911L150.551 0.942742L150.519 0.923873L150.475 0.895446L150.399 0.864263L146.627 0.743207V4.6697H139.171H138.961H138.765H138.585H138.421V4.87824V5.06032V5.24006V5.38998V18.1504H142.042L142.042 17.0093ZM150.384 13.5229V8.38006H154.487H154.652H154.819V8.547V8.66334V13.5229H150.384ZM142.042 13.5229V8.66334V8.56115V8.38006H142.178H142.343H146.627V13.5229H142.042ZM180.73 15.2597L181.647 14.7058L181.303 14.2556L180.956 13.8063L180.73 13.5641L180.535 13.3253L180.324 13.1025L180.085 12.874H178.16L177.138 13.4913L177.514 13.8204L177.949 14.2281L178.175 14.4505L178.416 14.6921L178.657 14.9783L178.883 15.2597H176.911V12.874H180.777V10.2738H176.911V8.59283H181.27V5.97265H169.772V8.59283H174.057V10.2738H170.389V12.874H174.057V15.2597H169.472V18.4205H181.694V15.2597H180.73ZM168.676 22.4642H182.249V23.3988H185.556V2.66669V2.48652V2.29262V2.14265V1.9757H185.389H185.209H185.043H184.834H166.301H166.062H165.866H165.698H165.579V2.15778V2.3238V2.50637V2.66669V23.3988H168.676V22.4642ZM168.676 19.1143V5.01351V5.06026H168.766H168.901H181.932H182.067H182.249V5.20833V5.31664V19.1142L168.676 19.1143ZM200.9 18.8678H192.589V22.5663H213.15V18.8678H204.945V6.26065H212.113V2.57915H193.16V6.26065H200.9V18.8678ZM232.779 20.3567H230.991L231.037 21.3669L231.112 21.4709L231.186 21.5902L231.231 21.6989L231.277 21.8011L231.351 22.0291L231.413 22.2353L231.472 22.6893L231.504 23.1414H234.554L234.808 23.1235L235.034 23.095L235.246 23.0469L235.439 22.9768L235.621 22.9163L235.8 22.8066L235.936 22.7063L236.057 22.5663L236.177 22.4301L236.281 22.2703L236.356 22.0877L236.416 21.8947L236.492 21.6828L236.521 21.4709V21.2307L236.538 20.9734V7.89896L235.59 7.9718H234.478H232.088L232.194 7.64263L232.315 7.34324L232.433 7.04011L232.556 6.74402L232.645 6.46968L232.75 6.20202L232.809 5.91874L232.9 5.63068H237.694V2.8473H228.917L228.887 1.51261L228.946 1.34567L228.976 1.17965V1.12384L228.961 1.09026L228.946 1.05902L228.903 1.01558L228.841 0.969698L228.767 0.942681L228.677 0.910946L228.571 0.880253L225.146 0.834306L225.099 2.84718H216.545V5.63056H220.966L221.192 6.05383L221.371 6.41001L221.523 6.71075L221.657 6.96573L221.778 7.20785L221.883 7.44763L222.003 7.70304L222.124 7.97168H217.36L217.389 8.72791V9.74856V23.183H220.41V10.6661H233.623L233.652 19.5019L233.637 19.6083V19.7129L233.623 19.8013L233.591 19.8827L233.562 19.9503L233.517 20.0308L233.485 20.0893L233.426 20.1532L233.368 20.1788L233.291 20.2248L233.231 20.2715L233.156 20.2971L233.05 20.3142L232.974 20.3473L232.868 20.3574L232.779 20.3567ZM225.698 7.97235L225.639 7.80921L225.581 7.64318L225.475 7.49517L225.399 7.34379L225.219 7.04066L225.04 6.74457L224.86 6.47023L224.693 6.20257L224.618 6.0545L224.558 5.91923L224.497 5.7646L224.453 5.63123L229.278 5.58522L229.188 5.85392L229.067 6.1282L228.946 6.41056L228.827 6.69862L228.677 6.98613L228.542 7.31677L228.391 7.63032L228.271 7.97229L225.698 7.97235ZM228.316 21.2444L231.007 21.2615L230.992 14.9201L229.009 13.5068H228.468H225.505H222.034L222.049 15.8513L222.034 21.2445H224.514L224.544 20.7961H228.3L228.316 21.2444ZM228.3 18.2738H224.544V15.9104H228.3V18.2738ZM227.401 12.4858L227.624 12.6054L227.865 12.7393L228.118 12.9015L228.391 13.0693L228.962 13.4449L229.55 13.914L230.195 14.3643L230.828 14.8425L231.472 15.3097L232.089 15.7591L233.652 14.484V13.5972L233.141 13.1427L232.63 12.7227L232.133 12.3188L231.652 11.9551L231.398 11.7612L231.141 11.6004L230.887 11.4183L230.631 11.2792L230.375 11.1161L230.09 10.9501L229.803 10.8167L229.535 10.6667H228.662L227.401 12.4858ZM224.152 10.6667L223.778 10.9231L223.415 11.2064L223.01 11.4778L222.575 11.7612L222.094 12.0317L221.583 12.3315L221.011 12.6328L220.395 12.9677L220.426 14.5313L221.207 15.8513L221.431 15.7463L221.719 15.611L221.852 15.5472L221.943 15.5055L222.003 15.463L222.049 15.4288V13.5068H225.04L225.129 13.4917L225.219 13.46L225.325 13.445L225.414 13.3834L225.611 13.2354L225.819 13.0693L226.211 12.7075L226.542 12.4242L225.205 10.6667H224.152ZM248.714 6.22947L253.116 6.26114V3.6183H249.013L249.162 3.27063L249.314 2.98404L249.448 2.74658L249.554 2.56641L249.66 2.42642L249.749 2.32429L249.84 2.26376L249.913 2.20471L250.033 2.13046L250.171 2.0377L250.23 2.01032L250.29 1.91665L250.365 1.81305L250.456 1.69199L247.494 0.535156L247.149 1.23797L246.862 1.81305L246.623 2.26383L246.427 2.66725L246.233 3.01577L246.022 3.37759L245.795 3.76545L245.51 4.21476L245.21 4.65316L244.909 5.0888L244.563 5.53854L244.187 5.99305L243.782 6.47029L243.362 6.98626L242.894 7.50987L242.414 8.05089L244.457 10.0037L244.699 9.68779L244.94 9.32787L245.21 8.97885L245.435 8.63504L245.42 10.3201H247.011V12.125H244.34V15.3704H247.011V19.7301L245.03 20.6017L245.66 23.3823L252.964 20.4916L251.659 18.0582L250.307 18.7043L250.35 15.3704H252.71V12.125H250.35V10.3201H252.393V7.87163L246.247 7.91329L246.459 7.6759L246.623 7.44843L246.758 7.26868L246.879 7.07239L246.998 6.89173L247.164 6.71155L247.344 6.47036L247.57 6.22959H247.734L248.14 6.24944H248.351H248.531H248.666L248.714 6.22947ZM262.69 17.3564L263.201 16.9936L263.592 16.6895L263.937 16.4521L264.207 16.2274L264.48 15.9999L264.736 15.7762L265.021 15.5057L265.366 15.1756L263.818 13.2047L263.546 13.4918L263.336 13.7175L263.141 13.9265L262.961 14.1511L262.734 14.3645L262.448 14.6052L262.088 14.8738L261.593 15.2352L261.412 14.8875L261.291 14.679L261.187 14.5125L261.111 14.3645L261.02 14.1677L260.932 13.9265L260.856 13.5647L260.751 13.0288H264.057V12.0484V9.80891V1.87505H262.628H261.624H253.686V2.83419V3.82696V14.9202V16.6895V20.5555L252.152 21.3373L253.372 23.9234L260.21 21.1594L259.369 18.151L256.737 19.9837L256.709 13.0288L257.685 12.9678L257.805 13.5647L257.926 14.1081L258.061 14.6052L258.179 15.0403L258.331 15.4631L258.451 15.8178L258.586 16.164L258.707 16.4681L258.858 16.7515L258.992 17.0257L259.128 17.2968L259.263 17.5328L259.563 18.0156L259.894 18.5392L260.089 18.8268L260.314 19.1266L260.541 19.444L260.767 19.7301L261.261 20.3275L261.773 20.9305L262.344 21.5605L262.916 22.1952L263.501 22.8242L264.118 23.5167L266.582 20.7697L265.937 20.3147L265.366 19.9089L265.08 19.7013L264.809 19.4866L264.568 19.2917L264.327 19.0973L264.104 18.8864L263.878 18.6916L263.666 18.4967L263.457 18.2739L263.26 18.0582L263.066 17.8298L262.87 17.5924L262.69 17.3564ZM261.624 8.74335V10.3201H256.709V8.74335H261.624ZM256.709 6.09432V4.42477H261.624V6.09432H256.709ZM278.366 1.61443L278.081 2.03776L277.749 2.50692L277.39 2.95433L276.999 3.39181L276.608 3.81134L276.202 4.20294L275.826 4.56476L275.45 4.89393L275.15 5.13512L274.88 5.36308L274.579 5.55747L274.28 5.76466L273.962 5.9732L273.616 6.15626L273.241 6.3686L272.835 6.59043L273.781 9.64196L274.159 9.4632L274.533 9.23854L274.938 8.99686L275.36 8.74335L275.782 8.44157L276.202 8.13936L276.428 7.97241L276.637 7.79316L276.834 7.63044L277.043 7.43562L277.404 7.10217L277.827 6.75738L278.277 6.38183L278.742 5.99305L279.223 5.55747L279.689 5.10345L279.929 4.87879L280.156 4.62529L280.382 4.3836L280.576 4.13009L280.605 4.09468L280.65 4.08292L280.696 4.06779H280.741H280.862H280.951H280.996L281.028 4.04892L281.058 4.0219L281.087 3.97553V3.93436L281.058 3.85576L281.028 3.76545L280.965 3.67509L278.366 1.61443ZM275.841 14.7253V23.5421H279.133V11.5205L279.477 11.1161L279.869 10.6668L280.306 10.1721L280.77 9.62916L281.223 9.10511L281.658 8.56171L281.855 8.27512L282.078 8.01971L282.26 7.76338L282.424 7.50981L280.35 5.53854L280.17 5.79444L280.006 6.08152L279.809 6.34918L279.6 6.62211L279.209 7.14615L278.786 7.64324L278.366 8.13936L277.916 8.60802L277.509 9.0588L277.105 9.49389L276.728 9.91244L276.278 10.3665L275.767 10.8759L275.226 11.3848L274.654 11.8823L274.098 12.3648L273.813 12.6055L273.556 12.8013L273.287 12.9957L273.031 13.1886L273.798 16.3338L274.098 16.156L274.353 15.9692L274.579 15.8051L274.774 15.64L275 15.4631L275.241 15.2522L275.512 15.0086L275.841 14.7253ZM282.14 2.19V5.40284H293.382V2.19H282.14ZM284.905 20.2381L285.221 20.9011L285.461 21.4716L285.552 21.7137L285.614 21.9209L285.688 22.1138L285.733 22.3087L285.76 22.495L285.791 22.6729L285.808 22.8412V23.002L285.791 23.1836L285.778 23.3823L285.746 23.5762L285.7 23.789H287.909H288.183L288.452 23.7711L288.721 23.7285L288.993 23.6783L289.265 23.6358L289.52 23.5421L289.774 23.458L290.003 23.3653L290.226 23.2309L290.423 23.0957L290.51 23.0351L290.601 22.9472L290.676 22.8658L290.754 22.7826L290.811 22.69L290.874 22.5878L290.932 22.4781L290.961 22.3759L290.992 22.2709L291.022 22.1489L291.039 22.0297L291.051 21.8954L291.113 12.0484H294.24V9.01199H281.314V12.0484H287.939V19.4015V19.5623L287.927 19.7136L287.909 19.8158V19.9383L287.88 20.0187L287.865 20.0783L287.818 20.1318L287.774 20.1796L287.714 20.192L287.671 20.2128L287.595 20.2256L287.504 20.2383H287.326H287.099L284.905 20.2381Z" fill="currentColor"/>
<path fill-rule="evenodd" clip-rule="evenodd" d="M301.122 29.5872H136.203V28.6631H301.122V29.5872Z" fill="currentColor"/>
<path d="M139.099 39.6087V34.917H140.045V39.6087H139.099Z" fill="currentColor"/>
<path d="M140.957 39.6087V34.917H141.873L143.809 38.0725V34.917H144.682V39.6087H143.738L141.831 36.5136V39.6087H140.957Z" fill="currentColor"/>
<path d="M145.685 34.9171H147.416C147.807 34.9171 148.104 34.9472 148.309 35.0059C148.584 35.0873 148.82 35.232 149.016 35.4392C149.213 35.6464 149.362 35.8989 149.464 36.1997C149.566 36.4986 149.618 36.8694 149.618 37.3083C149.618 37.6942 149.57 38.0272 149.474 38.3063C149.356 38.6478 149.189 38.924 148.971 39.1358C148.807 39.2957 148.585 39.4205 148.306 39.5094C148.097 39.5757 147.817 39.6087 147.467 39.6087H145.685V34.9171ZM146.63 35.7116V38.8151H147.339C147.605 38.8151 147.797 38.799 147.914 38.7697C148.069 38.7318 148.197 38.6666 148.298 38.5748C148.4 38.4831 148.483 38.3337 148.547 38.1227C148.612 37.9127 148.644 37.6261 148.644 37.2648C148.644 36.9016 148.611 36.6244 148.547 36.4305C148.483 36.2356 148.393 36.0862 148.277 35.9765C148.162 35.8686 148.015 35.7939 147.837 35.7561C147.704 35.7266 147.445 35.7116 147.057 35.7116H146.63Z" fill="currentColor"/>
<path d="M150.412 34.9171H151.358V37.4634C151.358 37.8673 151.37 38.1294 151.394 38.2486C151.435 38.4415 151.531 38.5957 151.685 38.712C151.837 38.8284 152.047 38.887 152.313 38.887C152.583 38.887 152.787 38.8322 152.924 38.7215C153.061 38.6118 153.144 38.4765 153.171 38.3157C153.199 38.1558 153.214 37.89 153.214 37.5173V34.9171H154.159V37.3849C154.159 37.9487 154.133 38.3469 154.083 38.5796C154.032 38.8133 153.937 39.01 153.799 39.1698C153.661 39.3306 153.477 39.4584 153.246 39.553C153.015 39.6475 152.715 39.6958 152.343 39.6958C151.894 39.6958 151.553 39.6447 151.322 39.5407C151.09 39.4366 150.907 39.3023 150.772 39.1358C150.637 38.9712 150.549 38.7971 150.506 38.6155C150.444 38.3469 150.413 37.9487 150.413 37.4237L150.412 34.9171Z" fill="currentColor"/>
<path d="M154.909 38.0709L155.833 37.9837C155.889 38.2949 156.001 38.5219 156.171 38.6676C156.341 38.8133 156.57 38.8861 156.859 38.8861C157.164 38.8861 157.394 38.8209 157.55 38.6922C157.704 38.5635 157.782 38.4122 157.782 38.2382C157.782 38.1275 157.749 38.032 157.684 37.9544C157.619 37.8768 157.505 37.8087 157.343 37.751C157.232 37.7123 156.979 37.6442 156.584 37.5458C156.076 37.4209 155.72 37.2667 155.514 37.0822C155.226 36.825 155.082 36.509 155.082 36.1382C155.082 35.8999 155.149 35.6757 155.286 35.4685C155.421 35.2604 155.616 35.1015 155.871 34.9927C156.126 34.884 156.433 34.8291 156.793 34.8291C157.382 34.8291 157.824 34.9596 158.122 35.2188C158.419 35.478 158.575 35.8261 158.59 36.2593L157.645 36.2953C157.604 36.054 157.517 35.881 157.384 35.775C157.25 35.6691 157.05 35.6161 156.782 35.6161C156.507 35.6161 156.292 35.6729 156.136 35.7863C156.035 35.8582 155.985 35.9556 155.985 36.0776C155.985 36.1874 156.032 36.2829 156.126 36.3614C156.245 36.4617 156.536 36.5658 156.997 36.6745C157.458 36.7833 157.8 36.8959 158.021 37.0122C158.242 37.1295 158.415 37.2885 158.54 37.4909C158.665 37.6933 158.727 37.943 158.727 38.24C158.727 38.5105 158.653 38.7622 158.503 38.9987C158.354 39.2333 158.142 39.4092 157.869 39.5227C157.595 39.6381 157.255 39.6948 156.847 39.6948C156.254 39.6948 155.797 39.5567 155.479 39.2796C155.161 39.0034 154.971 38.5996 154.909 38.0709Z" fill="currentColor"/>
<path d="M160.589 39.6087V35.7115H159.203V34.917H162.921V35.7115H161.534V39.6087H160.589Z" fill="currentColor"/>
<path d="M163.54 39.6087V34.917H165.528C166.028 34.917 166.391 34.9596 166.617 35.0437C166.844 35.1289 167.025 35.2783 167.162 35.494C167.298 35.7096 167.366 35.9556 167.366 36.2337C167.366 36.5855 167.262 36.8769 167.057 37.1067C166.851 37.3366 166.543 37.4804 166.134 37.54C166.338 37.6601 166.506 37.7907 166.639 37.9335C166.772 38.0763 166.951 38.3298 167.177 38.6949L167.748 39.6087H166.616L165.936 38.5871C165.693 38.2239 165.527 37.995 165.437 37.9004C165.348 37.8057 165.253 37.7396 165.153 37.7055C165.052 37.6696 164.895 37.6525 164.677 37.6525H164.486V39.6087H163.54ZM164.486 36.9014H165.184C165.636 36.9014 165.919 36.8826 166.031 36.8446C166.144 36.8068 166.232 36.7397 166.295 36.646C166.36 36.5514 166.391 36.4341 166.391 36.2941C166.391 36.1362 166.349 36.0085 166.265 35.9111C166.182 35.8136 166.063 35.7531 165.91 35.7266C165.834 35.7161 165.604 35.7114 165.221 35.7114H164.485L164.486 36.9014Z" fill="currentColor"/>
<path d="M168.238 39.6087V34.917H169.184V39.6087H168.238Z" fill="currentColor"/>
<path d="M174.318 39.6087H173.288L172.883 38.5408H171.013L170.626 39.6087H169.612L171.423 34.917H172.44L174.318 39.6087ZM172.574 37.7472L171.926 36.0142L171.299 37.7472H172.574Z" fill="currentColor"/>
<path d="M174.854 39.6079V34.9521H175.799V38.8143H178.16V39.6079H174.854Z" fill="currentColor"/>
<path d="M184.519 39.6087H183.488L183.083 38.5408H181.212L180.827 39.6087H179.812L181.623 34.917H182.64L184.519 39.6087ZM182.775 37.7472L182.126 36.0142L181.5 37.7472H182.775Z" fill="currentColor"/>
<path d="M185.031 39.6087V34.917H185.946L187.882 38.0725V34.917H188.756V39.6087H187.811L185.904 36.5136V39.6087H185.031Z" fill="currentColor"/>
<path d="M189.759 34.9171H191.491C191.881 34.9171 192.179 34.9472 192.383 35.0059C192.658 35.0873 192.894 35.232 193.091 35.4392C193.288 35.6464 193.437 35.8989 193.539 36.1997C193.641 36.4986 193.692 36.8694 193.692 37.3083C193.692 37.6942 193.645 38.0272 193.549 38.3063C193.431 38.6478 193.263 38.924 193.046 39.1358C192.883 39.2957 192.659 39.4205 192.38 39.5094C192.171 39.5757 191.892 39.6087 191.542 39.6087H189.759V34.9171ZM190.704 35.7116V38.8151H191.415C191.68 38.8151 191.871 38.799 191.989 38.7697C192.143 38.7318 192.272 38.6666 192.374 38.5748C192.474 38.4831 192.557 38.3337 192.622 38.1227C192.686 37.9127 192.718 37.6261 192.718 37.2648C192.718 36.9016 192.686 36.6244 192.622 36.4305C192.557 36.2356 192.468 36.0862 192.352 35.9765C192.237 35.8686 192.09 35.7939 191.912 35.7561C191.779 35.7266 191.519 35.7116 191.132 35.7116H190.704Z" fill="currentColor"/>
<path d="M199.319 37.8825L200.235 38.1644C200.095 38.679 199.86 39.0621 199.533 39.3118C199.206 39.5625 198.789 39.6873 198.287 39.6873C197.664 39.6873 197.153 39.4745 196.752 39.0479C196.351 38.6222 196.15 38.0396 196.15 37.2999C196.15 36.5185 196.351 35.9112 196.754 35.478C197.157 35.0467 197.687 34.8291 198.344 34.8291C198.917 34.8291 199.384 34.9994 199.741 35.338C199.955 35.5386 200.114 35.8261 200.222 36.2007L199.283 36.4249C199.227 36.1818 199.111 35.9897 198.935 35.8488C198.759 35.7088 198.545 35.6378 198.295 35.6378C197.947 35.6378 197.665 35.7637 197.448 36.0134C197.233 36.264 197.125 36.6699 197.125 37.2298C197.125 37.8239 197.231 38.2476 197.444 38.5002C197.658 38.7527 197.936 38.8795 198.278 38.8795C198.529 38.8795 198.746 38.7981 198.928 38.6393C199.109 38.4785 199.24 38.2269 199.319 37.8825Z" fill="currentColor"/>
<path d="M200.854 37.2904C200.854 36.8117 200.926 36.4088 201.07 36.0852C201.176 35.845 201.322 35.6293 201.507 35.4401C201.692 35.2491 201.894 35.1072 202.114 35.0155C202.406 34.8916 202.744 34.8291 203.127 34.8291C203.818 34.8291 204.371 35.0448 204.787 35.4742C205.202 35.9036 205.41 36.5024 205.41 37.2686C205.41 38.0282 205.204 38.6222 204.791 39.0517C204.379 39.4792 203.828 39.6949 203.139 39.6949C202.441 39.6949 201.886 39.4811 201.473 39.0554C201.061 38.6279 200.854 38.0395 200.854 37.2904ZM201.829 37.2583C201.829 37.7927 201.953 38.1975 202.199 38.4728C202.446 38.7481 202.758 38.8861 203.137 38.8861C203.516 38.8861 203.828 38.75 204.071 38.4766C204.314 38.2032 204.436 37.7927 204.436 37.2459C204.436 36.7058 204.317 36.3029 204.08 36.0371C203.844 35.7713 203.53 35.6379 203.137 35.6379C202.745 35.6379 202.429 35.7732 202.189 36.0418C201.95 36.3114 201.829 36.7162 201.829 37.2583Z" fill="currentColor"/>
<path d="M206.143 39.6087V34.917H207.558L208.406 38.1179L209.243 34.917H210.663V39.6087H209.789L209.785 35.9158L208.858 39.6087H207.944L207.021 35.9158L207.017 39.6087H206.143Z" fill="currentColor"/>
<path d="M211.604 39.6087V34.917H213.019L213.868 38.1179L214.704 34.917H216.124V39.6087H215.25L215.246 35.9158L214.319 39.6087H213.405L212.482 35.9158L212.478 39.6087H211.604Z" fill="currentColor"/>
<path d="M217.081 39.6087V34.917H220.56V35.7115H218.026V36.7501H220.386V37.5447H218.026V38.8151H220.646V39.6087H217.081Z" fill="currentColor"/>
<path d="M221.454 39.6087V34.917H223.441C223.941 34.917 224.304 34.9596 224.531 35.0437C224.758 35.1289 224.94 35.2783 225.075 35.494C225.211 35.7096 225.279 35.9556 225.279 36.2337C225.279 36.5855 225.176 36.8769 224.971 37.1067C224.765 37.3366 224.457 37.4804 224.047 37.54C224.252 37.6601 224.42 37.7907 224.554 37.9335C224.686 38.0763 224.866 38.3298 225.091 38.6949L225.662 39.6087H224.53L223.85 38.5871C223.607 38.2239 223.441 37.995 223.352 37.9004C223.262 37.8057 223.167 37.7396 223.067 37.7055C222.967 37.6696 222.808 37.6525 222.591 37.6525H222.399V39.6087H221.454ZM222.399 36.9014H223.097C223.549 36.9014 223.832 36.8826 223.945 36.8446C224.057 36.8068 224.145 36.7397 224.21 36.646C224.273 36.5514 224.305 36.4341 224.305 36.2941C224.305 36.1362 224.263 36.0085 224.179 35.9111C224.096 35.8136 223.977 35.7531 223.824 35.7266C223.748 35.7161 223.518 35.7114 223.136 35.7114H222.399V36.9014Z" fill="currentColor"/>
<path d="M229.185 37.8825L230.101 38.1644C229.961 38.679 229.726 39.0621 229.399 39.3118C229.072 39.5625 228.657 39.6873 228.152 39.6873C227.53 39.6873 227.019 39.4745 226.618 39.0479C226.217 38.6222 226.017 38.0396 226.017 37.2999C226.017 36.5185 226.217 35.9112 226.62 35.478C227.023 35.0467 227.553 34.8291 228.21 34.8291C228.783 34.8291 229.25 34.9994 229.607 35.338C229.821 35.5386 229.98 35.8261 230.088 36.2007L229.149 36.4249C229.093 36.1818 228.977 35.9897 228.801 35.8488C228.625 35.7088 228.412 35.6378 228.161 35.6378C227.814 35.6378 227.532 35.7637 227.314 36.0134C227.099 36.264 226.991 36.6699 226.991 37.2298C226.991 37.8239 227.097 38.2476 227.311 38.5002C227.524 38.7527 227.802 38.8795 228.143 38.8795C228.396 38.8795 228.612 38.7981 228.794 38.6393C228.975 38.4785 229.106 38.2269 229.185 37.8825Z" fill="currentColor"/>
<path d="M230.888 39.6087V34.917H231.834V39.6087H230.888Z" fill="currentColor"/>
<path d="M236.968 39.6087H235.938L235.533 38.5408H233.662L233.276 39.6087H232.262L234.073 34.917H235.089L236.968 39.6087ZM235.223 37.7472L234.574 36.0142L233.949 37.7472H235.223Z" fill="currentColor"/>
<path d="M237.502 39.6079V34.9521H238.448V38.8143H240.809V39.6079H237.502Z" fill="currentColor"/>
<path d="M243.188 34.9171H245.062C245.433 34.9171 245.71 34.9321 245.892 34.9633C246.074 34.9945 246.237 35.0588 246.381 35.1563C246.525 35.2547 246.645 35.3852 246.74 35.5479C246.836 35.7115 246.884 35.8932 246.884 36.0956C246.884 36.315 246.826 36.5175 246.707 36.7C246.59 36.8826 246.431 37.0207 246.231 37.1115C246.514 37.1947 246.734 37.3366 246.886 37.5381C247.038 37.7386 247.116 37.9742 247.116 38.2466C247.116 38.4604 247.066 38.6675 246.966 38.87C246.868 39.0714 246.732 39.2341 246.561 39.3533C246.389 39.4744 246.178 39.5491 245.926 39.5775C245.769 39.5936 245.387 39.6049 244.784 39.6087H243.188V34.9171ZM244.134 35.6964V36.7795H244.753C245.122 36.7795 245.351 36.7734 245.44 36.7633C245.602 36.7444 245.729 36.6877 245.822 36.5959C245.915 36.5031 245.96 36.3812 245.96 36.2298C245.96 36.086 245.92 35.9669 245.841 35.877C245.761 35.7871 245.642 35.7323 245.485 35.7134C245.39 35.702 245.122 35.6963 244.677 35.6963L244.134 35.6964ZM244.134 37.5588V38.815H245.012C245.355 38.815 245.572 38.8046 245.663 38.7855C245.805 38.7609 245.919 38.6966 246.007 38.5982C246.096 38.499 246.141 38.3655 246.141 38.1991C246.141 38.0591 246.107 37.938 246.039 37.8415C245.969 37.7432 245.871 37.6703 245.742 37.6259C245.612 37.5814 245.332 37.5587 244.901 37.5587L244.134 37.5588Z" fill="currentColor"/>
<path d="M252.146 39.6087H251.115L250.711 38.5408H248.84L248.454 39.6087H247.439L249.251 34.917H250.268L252.146 39.6087ZM250.402 37.7472L249.753 36.0142L249.127 37.7472H250.402Z" fill="currentColor"/>
<path d="M252.659 39.6087V34.917H253.575L255.51 38.0725V34.917H256.384V39.6087H255.438L253.532 36.5136V39.6087H252.659Z" fill="currentColor"/>
<path d="M257.394 39.6087V34.917H258.339V37.0018L260.27 34.917H261.547L259.767 36.7445L261.634 39.6087H260.408L259.11 37.4066L258.339 38.1917V39.6087H257.394Z" fill="currentColor"/>
<path d="M263.748 37.2904C263.748 36.8117 263.82 36.4088 263.963 36.0852C264.069 35.845 264.214 35.6293 264.4 35.4401C264.585 35.2491 264.788 35.1072 265.007 35.0155C265.3 34.8916 265.637 34.8291 266.019 34.8291C266.711 34.8291 267.265 35.0448 267.68 35.4742C268.095 35.9036 268.303 36.5024 268.303 37.2686C268.303 38.0282 268.096 38.6222 267.685 39.0517C267.273 39.4792 266.721 39.6949 266.032 39.6949C265.333 39.6949 264.778 39.4811 264.366 39.0554C263.954 38.6279 263.748 38.0395 263.748 37.2904ZM264.723 37.2583C264.723 37.7927 264.846 38.1975 265.092 38.4728C265.338 38.7481 265.651 38.8861 266.031 38.8861C266.409 38.8861 266.721 38.75 266.963 38.4766C267.207 38.2032 267.328 37.7927 267.328 37.2459C267.328 36.7058 267.21 36.3029 266.973 36.0371C266.736 35.7713 266.422 35.6379 266.031 35.6379C265.639 35.6379 265.322 35.7732 265.083 36.0418C264.842 36.3114 264.723 36.7162 264.723 37.2583Z" fill="currentColor"/>
<path d="M269.05 39.6087V34.917H272.27V35.7115H269.996V36.822H271.959V37.6166H269.996V39.6087H269.05Z" fill="currentColor"/>
<path d="M277.871 37.8825L278.789 38.1644C278.648 38.679 278.414 39.0621 278.087 39.3118C277.759 39.5625 277.343 39.6873 276.84 39.6873C276.218 39.6873 275.705 39.4745 275.305 39.0479C274.904 38.6222 274.703 38.0396 274.703 37.2999C274.703 36.5185 274.905 35.9112 275.308 35.478C275.711 35.0467 276.24 34.8291 276.897 34.8291C277.47 34.8291 277.936 34.9994 278.295 35.338C278.508 35.5386 278.667 35.8261 278.773 36.2007L277.835 36.4249C277.78 36.1818 277.665 35.9897 277.489 35.8488C277.313 35.7088 277.099 35.6378 276.848 35.6378C276.5 35.6378 276.219 35.7637 276.002 36.0134C275.786 36.264 275.677 36.6699 275.677 37.2298C275.677 37.8239 275.784 38.2476 275.998 38.5002C276.212 38.7527 276.489 38.8795 276.83 38.8795C277.082 38.8795 277.3 38.7981 277.481 38.6393C277.663 38.4785 277.793 38.2269 277.871 37.8825Z" fill="currentColor"/>
<path d="M279.611 39.6087V34.917H280.557V36.7653H282.411V34.917H283.357V39.6087H282.411V37.5589H280.557V39.6087H279.611Z" fill="currentColor"/>
<path d="M284.312 39.6087V34.917H285.256V39.6087H284.312Z" fill="currentColor"/>
<path d="M286.169 39.6087V34.917H287.084L289.02 38.0725V34.917H289.893V39.6087H288.948L287.041 36.5136V39.6087H286.169Z" fill="currentColor"/>
<path d="M295.125 39.6087H294.096L293.691 38.5408H291.82L291.434 39.6087H290.42L292.23 34.917H293.247L295.125 39.6087ZM293.383 37.7472L292.733 36.0142L292.107 37.7472H293.383Z" fill="currentColor"/>
<path fill-rule="evenodd" clip-rule="evenodd" d="M101.713 27.6771V30.7495H111.681V21.531H105.55V18.4579H111.681V9.22895H101.713V12.3041H108.605V15.3841H102.461V24.6048H108.605V27.6771H101.713ZM83.9916 19.9983C83.9916 10.6673 91.5595 3.09113 100.894 3.09113C110.226 3.09113 117.795 10.6673 117.795 19.9983C117.795 29.3327 110.226 36.9033 100.894 36.9033C91.5595 36.9033 83.9916 29.3327 83.9916 19.9983ZM80.8955 19.9983C80.8955 8.9492 89.8432 0 100.894 0C111.942 0 120.896 8.9492 120.896 19.9983C120.896 31.0473 111.942 40 100.894 40C89.8432 40 80.8955 31.0473 80.8955 19.9983ZM100.162 12.2958V9.22201H90.1812V18.4454H96.2971V21.522H90.1812V30.744H100.162V27.6702H93.253V24.5978H99.396V15.3689H93.253V12.2958" fill="currentColor"/>
<path fill-rule="evenodd" clip-rule="evenodd" d="M33.5973 21.7077V21.6575H41.0161C41.6939 21.6575 42.6694 21.7662 43.4508 22.28C44.179 22.7618 44.5514 23.4736 44.5514 24.3953C44.5514 25.1294 44.3517 25.7039 43.9607 26.1006C43.2332 26.8319 41.9771 26.8305 41.0583 26.8305H33.5704V26.7853L33.5973 21.7077ZM33.5973 17.6912V13.1812H40.3888C41.5833 13.1812 43.5855 13.1812 43.5855 15.5586C43.5855 16.43 43.2104 17.0463 42.4711 17.3935C41.8044 17.7072 40.9719 17.74 40.4054 17.74H33.5973V17.6912ZM41.2918 30.8156C43.866 30.8156 45.8081 30.1881 47.0628 28.9493C48.3513 27.6762 48.6228 26.0399 48.6228 24.8875C48.6228 22.3693 47.5741 20.618 45.5041 19.6858L45.4129 19.6476L45.4993 19.6016C46.4327 19.1086 47.6687 18.1075 47.6687 15.1229C47.6687 13.4831 47.051 12.0058 45.927 10.9614C44.6951 9.81455 42.8974 9.21009 40.7342 9.21009L29.5225 9.20312V30.8094" fill="currentColor"/>
<path fill-rule="evenodd" clip-rule="evenodd" d="M0 30.8156H4.27108V9.20996H0V30.8156Z" fill="currentColor"/>
<path fill-rule="evenodd" clip-rule="evenodd" d="M7.73828 19.8282C7.73828 21.917 8.08925 23.6418 8.81123 25.0996C9.41438 26.3141 10.2642 27.3375 11.4912 28.3227C13.4001 29.853 16.0884 30.6303 19.482 30.6303H25.3277V26.5525H19.8061C16.7344 26.5525 14.5069 25.7856 13.1873 24.2713C12.2491 23.1977 11.7676 21.7476 11.7551 19.9642C11.7379 18.0511 12.2726 16.5299 13.3393 15.4464C14.6741 14.0904 16.8497 13.4037 19.8061 13.4037H25.3277V9.35938H19.6859C17.7859 9.35938 16.1934 9.5518 14.813 9.94083C13.4354 10.3319 12.303 10.9148 11.3544 11.7207C10.0051 12.869 7.73828 15.4464 7.73828 19.8282Z" fill="currentColor"/>
<path fill-rule="evenodd" clip-rule="evenodd" d="M51.2002 19.829C51.2002 21.9136 51.5595 23.7541 52.2731 25.2921C52.8908 26.6251 53.791 27.774 54.9517 28.7041C56.746 30.1465 59.2857 30.8165 62.9426 30.8165H69.1053V26.7394H63.268C60.2018 26.7394 57.9744 25.9391 56.6465 24.3613C55.7096 23.2507 55.2281 21.772 55.2163 19.9649C55.1984 17.9989 55.7518 16.4309 56.8558 15.3099C58.1982 13.9441 60.3545 13.2518 63.268 13.2518H69.1053V9.21094H63.145C61.2464 9.21094 59.6553 9.40128 58.2735 9.79101C56.8959 10.1814 55.7635 10.7615 54.8177 11.5681C53.7275 12.4926 51.2002 15.1488 51.2002 19.829Z" fill="currentColor"/>
</svg>
