<svg width="64" height="64" viewBox="0 0 64 64" fill="none" xmlns="http://www.w3.org/2000/svg">
<g clip-path="url(#clip0_3396_56204)">
<g filter="url(#filter0_d_3396_56204)">
<path d="M0 32C0 14.3269 14.3269 0 32 0C49.6731 0 64 14.3269 64 32C64 49.6731 49.6731 64 32 64C14.3269 64 0 49.6731 0 32Z" fill="#98272A"/>
<path fill-rule="evenodd" clip-rule="evenodd" d="M11.5085 33.2794L11.1802 34.8516H9.74544C9.85449 34.3312 9.96382 33.7731 10.0878 33.2407C10.1131 33.1251 10.1412 33.0069 10.1679 32.878C10.1679 32.7867 10.1811 32.696 10.196 32.605C10.2502 31.969 9.77214 31.8516 9.30896 32.0467C9.03324 32.1505 8.91042 32.3317 8.77579 32.5663C8.65128 32.7742 8.61222 32.9682 8.55572 33.2279L8.20019 34.8516H6.77832L7.61165 30.9819C8.04954 30.9688 8.48602 30.9557 8.92475 30.9437C8.87079 31.1898 8.80221 31.4238 8.76118 31.6704C9.29518 31.0601 9.9759 30.7489 10.7707 30.9688C11.5633 31.1767 11.7286 31.9309 11.6035 32.6565C11.588 32.878 11.5633 33.072 11.5085 33.2794Z" fill="white"/>
<path fill-rule="evenodd" clip-rule="evenodd" d="M37.4393 29.2306H38.8341L37.5902 34.8641H36.3063C36.36 34.6562 36.414 34.4493 36.4837 34.2398C36.2228 34.4747 36.0053 34.6687 35.7178 34.7995V33.9551C35.8271 33.93 35.9378 33.89 36.0323 33.839C36.444 33.5919 36.6054 33.1504 36.6054 32.7088L36.5789 32.4883C36.5522 32.2815 36.4572 32.0984 36.2096 31.9957C36.0747 31.9169 35.8819 31.9169 35.7178 31.9436V30.9434C35.799 30.9434 35.8676 30.969 35.9378 30.969C36.3336 31.06 36.6739 31.3077 36.8679 31.6834L37.4393 29.2306ZM35.7178 34.7995C35.6228 34.8515 35.5146 34.8771 35.3889 34.9022C35.0087 34.993 34.7872 35.0194 34.3915 34.8771C33.9277 34.7207 33.6961 34.4226 33.5182 34.0202C33.1082 33.0341 33.5576 31.6319 34.5694 31.1513C34.8971 30.9949 35.3204 30.9052 35.7178 30.9434V31.9436C35.609 31.9567 35.4873 31.9957 35.4038 32.0469C35.1711 32.1902 35.0202 32.3976 34.939 32.6437C34.8445 32.8897 34.7872 33.2409 34.8707 33.5001C34.8971 33.6303 34.953 33.7226 35.0337 33.7992C35.2248 33.9551 35.4873 33.9938 35.7178 33.9551" fill="white"/>
<path fill-rule="evenodd" clip-rule="evenodd" d="M25.8475 31.0348L25.5609 31.865C25.1651 31.762 24.8765 31.7087 24.4676 31.6833C24.3433 31.6833 24.25 31.6702 24.1547 31.6953C23.8658 31.762 23.7424 32.0076 23.9619 32.1898C24.2343 32.449 24.7135 32.513 25.055 32.7215C25.1384 32.7743 25.2331 32.852 25.3281 32.9296C25.5994 33.3318 25.5609 33.7604 25.2745 34.1767C24.8222 34.8116 23.9619 34.8767 23.1826 34.8247C22.7587 34.7978 22.4029 34.7206 21.9785 34.643L22.2399 33.7078C22.7587 33.8386 23.0876 33.9558 23.5766 33.9021C23.7972 33.8896 24.1134 33.9021 24.1134 33.6176C24.0575 33.4095 23.8532 33.2792 23.6331 33.189C23.3065 33.0462 22.9507 32.9555 22.6913 32.7084C22.5387 32.501 22.4968 32.3452 22.4968 32.0858C22.4968 31.8261 22.5808 31.6451 22.7036 31.4757C23.4021 30.5291 24.838 30.8013 25.8475 31.0348Z" fill="white"/>
<path fill-rule="evenodd" clip-rule="evenodd" d="M17.7423 30.9431L19.1909 30.9175C19.0818 31.3981 18.9714 31.8783 18.862 32.3837C18.7957 32.7085 18.6585 33.1251 18.7547 33.4488C18.81 33.63 18.8752 33.6954 19.0548 33.7469C19.26 33.8126 19.5214 33.7731 19.685 33.6562C20.1757 33.3194 20.3126 32.7603 20.4354 32.215L20.7361 30.9175H22.1448L21.2687 34.8515C20.8592 34.8638 20.4486 34.8384 20.0248 34.8515C20.0655 34.6297 20.1214 34.3052 20.1757 34.0845C20.0248 34.215 19.9028 34.3583 19.7384 34.4744C19.534 34.6297 19.287 34.7341 19.0278 34.7992C18.7266 34.8638 18.3165 34.8638 18.0293 34.7466C17.7142 34.6297 17.4826 34.3583 17.3592 34.0586C17.1956 33.6562 17.2631 33.3845 17.3322 32.9682C17.441 32.2938 17.5925 31.6055 17.7423 30.9431Z" fill="white"/>
<path fill-rule="evenodd" clip-rule="evenodd" d="M16.1285 29.2306H17.5234L16.2663 34.8641H14.9807C15.0355 34.6562 15.1038 34.4493 15.1575 34.2398C14.9133 34.4747 14.6811 34.6687 14.4071 34.7995V33.9551C14.517 33.93 14.6249 33.89 14.7221 33.839C15.1167 33.5919 15.2826 33.1504 15.2826 32.7088L15.2668 32.4883C15.2404 32.2815 15.1311 32.0984 14.8874 31.9957C14.7474 31.9169 14.5569 31.9169 14.4071 31.9436V30.9434C14.4757 30.9434 14.542 30.969 14.6249 30.969C15.0083 31.06 15.3497 31.3077 15.5549 31.6834L16.1285 29.2306ZM14.4071 34.7995C14.2983 34.8515 14.1881 34.8771 14.0771 34.9022C13.6968 34.993 13.4655 35.0194 13.0687 34.8771C12.6153 34.7207 12.3694 34.4226 12.1909 34.0202C11.7935 33.0341 12.2491 31.6319 13.2455 31.1513C13.5732 30.9949 14.0102 30.9052 14.4071 30.9434V31.9436C14.2843 31.9567 14.1755 31.9957 14.0771 32.0469C13.8604 32.1902 13.6968 32.3976 13.6134 32.6437C13.5189 32.8897 13.4655 33.2409 13.5448 33.5001C13.5732 33.6303 13.6277 33.7226 13.7216 33.7992C13.9152 33.9551 14.1595 33.9938 14.4071 33.9551" fill="white"/>
<path fill-rule="evenodd" clip-rule="evenodd" d="M5.72572 29.2306H7.18806L5.9722 34.8516H4.49609" fill="white"/>
<path fill-rule="evenodd" clip-rule="evenodd" d="M32.8484 33.2794L32.5052 34.8516H31.0567C31.1792 34.3312 31.302 33.7731 31.4125 33.2407C31.4397 33.1251 31.4684 33.0069 31.5089 32.8916C31.5089 32.7867 31.5089 32.696 31.521 32.605C31.5912 31.969 31.082 31.8516 30.6323 32.0467C30.3726 32.1633 30.2497 32.3317 30.1137 32.5663C29.978 32.7742 29.9358 32.9818 29.8951 33.2279L29.5246 34.8516H28.1309L28.9378 30.9819C29.3737 30.9688 29.8144 30.9688 30.2497 30.9437C30.1958 31.1898 30.1399 31.4238 30.0845 31.6704C30.6179 31.0601 31.302 30.7489 32.0946 30.9688C32.8886 31.1767 33.0533 31.9309 32.944 32.6701C32.9159 32.878 32.8886 33.072 32.8484 33.2794Z" fill="white"/>
<path fill-rule="evenodd" clip-rule="evenodd" d="M26.9685 29.2306H28.4452L27.2293 34.8516H25.751" fill="white"/>
<path fill-rule="evenodd" clip-rule="evenodd" d="M54.3363 33.3193L53.9953 34.9019H52.5462C52.6555 34.3702 52.7927 33.7989 52.9034 33.2792C52.9276 33.1498 52.9563 33.0337 52.9847 32.9032C52.9847 32.8122 52.9962 32.7215 53.0111 32.6291C53.067 31.9932 52.574 31.8781 52.108 32.0714C51.8484 32.1768 51.7267 32.358 51.578 32.592C51.4532 32.7997 51.4127 32.995 51.3582 33.2536L51.0004 34.8898H49.5791L50.4009 30.9945C50.8357 30.9814 51.2885 30.9684 51.7267 30.9556C51.6713 31.2019 51.6156 31.4495 51.562 31.6831C52.0822 31.0727 52.7927 30.761 53.5726 30.9684C54.3916 31.1896 54.542 31.9563 54.4329 32.6833C54.4181 32.9032 54.3773 33.0978 54.3363 33.3193Z" fill="white"/>
<path fill-rule="evenodd" clip-rule="evenodd" d="M55.9771 29.2304H57.4119L56.6732 32.5794L58.1235 30.9688H59.7356L58.0423 32.7478L59.1066 34.877H57.5752L56.6336 32.8124L56.1819 34.877H54.7744" fill="white"/>
<path fill-rule="evenodd" clip-rule="evenodd" d="M49.3204 32.8124C49.1973 33.3707 49.0745 33.916 48.9632 34.4617L48.9098 34.9021H47.7204L47.8041 34.3053C47.599 34.4996 47.3789 34.6685 47.1473 34.786V34.1108C47.1597 34.0977 47.1864 34.0977 47.2131 34.0838C47.3657 34.0067 47.4756 33.9549 47.5563 33.8762C47.7482 33.6824 47.8449 33.3849 47.9242 33.1372H47.7204C47.5447 33.1372 47.3376 33.1252 47.1473 33.1372V32.4882C47.4332 32.4626 47.7617 32.4746 48.0886 32.4746C48.0886 32.1364 47.9525 31.8784 47.5835 31.8012C47.4199 31.7745 47.2707 31.7745 47.1473 31.7745V30.9688C48.036 30.8661 48.9792 31.0083 49.3072 31.7745C49.47 32.1634 49.3764 32.41 49.3204 32.8124ZM47.1473 34.786C46.9281 34.8901 46.681 34.9557 46.4495 34.9803C45.9154 35.0318 45.3559 34.7993 45.1237 34.3312C44.9584 34.0713 45.0014 33.7865 45.0675 33.4884C45.1378 33.2029 45.2752 33.0465 45.6276 32.8124C46.1344 32.5794 46.629 32.5007 47.1473 32.4882V33.1372C46.9416 33.1503 46.7367 33.2029 46.6001 33.2941C46.3272 33.4884 46.219 33.8519 46.5175 34.0713C46.6954 34.1879 46.9416 34.177 47.1473 34.1108V34.786ZM47.1473 31.7745C46.9545 31.7745 46.7898 31.7871 46.5731 31.8397C46.3272 31.8909 46.1493 31.9691 45.9154 32.0718L46.0796 31.1642C46.4095 31.0871 46.7617 31.0083 47.1473 30.9688" fill="white"/>
<path fill-rule="evenodd" clip-rule="evenodd" d="M42.3077 29.685H43.0593C43.7169 29.685 44.7279 29.7757 44.9168 30.5027C44.9586 30.6196 44.9719 30.7354 44.9719 30.852V30.8662C44.9719 31.2929 44.7549 31.6703 44.3448 31.931C44.0567 32.0596 43.8125 32.125 43.5253 32.2027C44.2619 32.3193 44.7422 32.8 44.5907 33.5662C44.3701 34.6299 43.319 34.7978 42.3077 34.864V33.9299C42.362 33.9299 42.4182 33.916 42.4586 33.9024C43.3052 33.773 43.4957 32.8384 42.6914 32.6703C42.5663 32.6436 42.4454 32.6294 42.3077 32.6436V31.8123C42.4719 31.8123 42.6498 31.7992 42.799 31.7746C43.2512 31.6703 43.8513 31.2294 43.3589 30.7354C43.1537 30.5294 42.663 30.5545 42.3077 30.5801V29.685ZM40.9409 29.685H42.3077V30.5801H42.1843L41.8965 31.7992C42.0202 31.7992 42.1722 31.8123 42.3077 31.8123V32.6436C42.116 32.6436 41.9109 32.6703 41.7197 32.6836L41.4328 33.9806C41.6776 33.9675 42.0075 33.9675 42.3077 33.9299V34.864C42.2248 34.8771 42.1321 34.8771 42.0463 34.8901H39.833" fill="white"/>
</g>
</g>
<defs>
<filter id="filter0_d_3396_56204" x="-6" y="-5" width="76" height="76" filterUnits="userSpaceOnUse" color-interpolation-filters="sRGB">
<feFlood flood-opacity="0" result="BackgroundImageFix"/>
<feColorMatrix in="SourceAlpha" type="matrix" values="0 0 0 0 0 0 0 0 0 0 0 0 0 0 0 0 0 0 127 0" result="hardAlpha"/>
<feOffset dy="1"/>
<feGaussianBlur stdDeviation="3"/>
<feComposite in2="hardAlpha" operator="out"/>
<feColorMatrix type="matrix" values="0 0 0 0 0 0 0 0 0 0 0 0 0 0 0 0 0 0 0.08 0"/>
<feBlend mode="normal" in2="BackgroundImageFix" result="effect1_dropShadow_3396_56204"/>
<feBlend mode="normal" in="SourceGraphic" in2="effect1_dropShadow_3396_56204" result="shape"/>
</filter>
<clipPath id="clip0_3396_56204">
<rect width="64" height="64" fill="white"/>
</clipPath>
</defs>
</svg>
