<svg width="20" height="20" viewBox="0 0 20 20" fill="none" xmlns="http://www.w3.org/2000/svg">
<g clip-path="url(#clip0_3218_80026)">
<g clip-path="url(#clip1_3218_80026)">
<path d="M0 10C0 15.5228 4.47715 20 10 20C15.5228 20 20 15.5228 20 10C20 4.47715 15.5228 0 10 0C4.47715 0 0 4.47715 0 10Z" fill="currentColor"/>
<path d="M5.31203 6.99121C5.01045 6.99121 4.75879 7.24496 4.75879 7.55079V11.6654C4.75879 11.9649 5.01045 12.2187 5.31203 12.2187C5.61362 12.2187 5.85895 11.965 5.85895 11.6654V7.55079C5.85895 7.24496 5.61351 6.99121 5.31203 6.99121Z" fill="currentColor"/>
<path d="M15.5563 8.58884C15.4273 8.27679 15.2297 8.00226 14.9864 7.75675C14.7431 7.52582 14.4561 7.33241 14.1358 7.19932C13.8092 7.06623 13.4599 6.99957 13.0959 6.99957H12.0269C11.9958 6.99121 11.9666 6.99121 11.9354 6.99121C11.6172 6.99121 11.3594 7.24293 11.3594 7.55701V11.655C11.3594 11.967 11.6027 12.2062 11.9126 12.2208H13.0959C13.4599 12.2208 13.8092 12.1459 14.1358 12.0128C14.4539 11.8797 14.743 11.6925 14.9864 11.4615C15.2297 11.2078 15.4273 10.9415 15.5563 10.6212C15.6935 10.3009 15.76 9.96593 15.76 9.61028C15.76 9.25869 15.6935 8.90925 15.5563 8.58895V8.58884ZM14.2024 10.6732C13.903 10.9665 13.5077 11.1163 13.0752 11.1163H12.4597V8.08959H13.0752C13.5079 8.08959 13.903 8.25397 14.2024 8.54094C14.5018 8.82587 14.66 9.20243 14.66 9.60802C14.66 10.0136 14.502 10.388 14.2024 10.6731V10.6732Z" fill="currentColor"/>
<path d="M12.2435 5.6328L10.6192 4.00817C10.5069 3.89587 10.3572 3.84176 10.2095 3.84594C10.0619 3.84176 9.91212 3.89373 9.79985 4.00817L8.17558 5.6328C7.95928 5.84916 7.95928 6.1986 8.17558 6.41495C8.39189 6.63131 8.74125 6.63131 8.95756 6.41495L9.69164 5.68071V10.0969L7.73462 7.26579C7.63691 7.0952 7.45596 6.9829 7.24801 6.9829C6.94022 6.9829 6.68652 7.23665 6.68652 7.54248V11.6529C6.68652 11.9587 6.94022 12.2124 7.24801 12.2124C7.55581 12.2124 7.8095 11.9587 7.8095 11.6529V9.10678L9.7977 11.9671C9.7977 11.9733 9.7977 11.9816 9.80606 11.99C9.91834 12.1314 10.0765 12.2147 10.2553 12.2147C10.5631 12.2147 10.8106 11.961 10.8106 11.6551V5.76589L11.4615 6.41699C11.6778 6.63334 12.0272 6.63334 12.2435 6.41699C12.4598 6.20063 12.4598 5.84904 12.2435 5.6328Z" fill="currentColor"/>
<path d="M5.31203 6.99121C5.01045 6.99121 4.75879 7.24496 4.75879 7.55079V11.6654C4.75879 11.9649 5.01045 12.2187 5.31203 12.2187C5.61362 12.2187 5.85895 11.965 5.85895 11.6654V7.55079C5.85895 7.24496 5.61351 6.99121 5.31203 6.99121Z" fill="currentColor"/>
<path d="M15.5563 8.58884C15.4273 8.27679 15.2297 8.00226 14.9864 7.75675C14.7431 7.52582 14.4561 7.33241 14.1358 7.19932C13.8092 7.06623 13.4599 6.99957 13.0959 6.99957H12.0269C11.9958 6.99121 11.9666 6.99121 11.9354 6.99121C11.6172 6.99121 11.3594 7.24293 11.3594 7.55701V11.655C11.3594 11.967 11.6027 12.2062 11.9126 12.2208H13.0959C13.4599 12.2208 13.8092 12.1459 14.1358 12.0128C14.4539 11.8797 14.743 11.6925 14.9864 11.4615C15.2297 11.2078 15.4273 10.9415 15.5563 10.6212C15.6935 10.3009 15.76 9.96593 15.76 9.61028C15.76 9.25869 15.6935 8.90925 15.5563 8.58895V8.58884ZM14.2024 10.6732C13.903 10.9665 13.5077 11.1163 13.0752 11.1163H12.4597V8.08959H13.0752C13.5079 8.08959 13.903 8.25397 14.2024 8.54094C14.5018 8.82587 14.66 9.20243 14.66 9.60802C14.66 10.0136 14.502 10.388 14.2024 10.6731V10.6732Z" fill="currentColor"/>
<path d="M12.2435 5.6328L10.6192 4.00817C10.5069 3.89587 10.3572 3.84176 10.2095 3.84594C10.0619 3.84176 9.91212 3.89373 9.79985 4.00817L8.17558 5.6328C7.95928 5.84916 7.95928 6.1986 8.17558 6.41495C8.39189 6.63131 8.74125 6.63131 8.95756 6.41495L9.69164 5.68071V10.0969L7.73462 7.26579C7.63691 7.0952 7.45596 6.9829 7.24801 6.9829C6.94022 6.9829 6.68652 7.23665 6.68652 7.54248V11.6529C6.68652 11.9587 6.94022 12.2124 7.24801 12.2124C7.55581 12.2124 7.8095 11.9587 7.8095 11.6529V9.10678L9.7977 11.9671C9.7977 11.9733 9.7977 11.9816 9.80606 11.99C9.91834 12.1314 10.0765 12.2147 10.2553 12.2147C10.5631 12.2147 10.8106 11.961 10.8106 11.6551V5.76589L11.4615 6.41699C11.6778 6.63334 12.0272 6.63334 12.2435 6.41699C12.4598 6.20063 12.4598 5.84904 12.2435 5.6328Z" fill="currentColor"/>
<path d="M15.5499 14.4255C15.5176 14.4541 15.4679 14.4487 15.4354 14.4204C15.4078 14.3964 15.3758 14.3747 15.3394 14.3552C15.2755 14.3186 15.2059 14.3004 15.1306 14.3004C15.0644 14.3004 15.0039 14.3141 14.9491 14.3415C14.8944 14.3689 14.867 14.4145 14.867 14.4784C14.867 14.5424 14.8966 14.588 14.956 14.6154C15.0176 14.6405 15.1066 14.6668 15.223 14.6942C15.2846 14.7079 15.3463 14.7261 15.4079 14.7489C15.4718 14.7718 15.5288 14.8026 15.5791 14.8414C15.6316 14.8779 15.6738 14.9247 15.7057 14.9818C15.7377 15.0366 15.7537 15.1039 15.7537 15.1838C15.7537 15.2843 15.7343 15.3699 15.6955 15.4406C15.6589 15.5091 15.6087 15.5651 15.5448 15.6084C15.4832 15.6518 15.4102 15.6826 15.3257 15.7009C15.2436 15.7214 15.158 15.7317 15.069 15.7317C14.9411 15.7317 14.8168 15.7089 14.6958 15.6632C14.6 15.6252 14.517 15.5751 14.447 15.5128C14.4165 15.4857 14.4185 15.4387 14.4482 15.4109L14.6053 15.2637C14.6373 15.2338 14.6879 15.2383 14.72 15.2682C14.7554 15.3014 14.7964 15.3303 14.843 15.355C14.916 15.3939 14.9971 15.4133 15.0861 15.4133C15.1157 15.4133 15.1454 15.4098 15.1751 15.403C15.207 15.3961 15.2356 15.3859 15.2607 15.3722C15.2881 15.3562 15.3097 15.3356 15.3257 15.3105C15.3417 15.2854 15.3497 15.2546 15.3497 15.2181C15.3497 15.1496 15.3177 15.1005 15.2538 15.0708C15.1922 15.0412 15.0986 15.0115 14.9731 14.9818C14.9115 14.9681 14.851 14.951 14.7917 14.9304C14.7346 14.9076 14.6832 14.8791 14.6376 14.8448C14.592 14.8083 14.5554 14.7638 14.528 14.7113C14.5007 14.6588 14.487 14.5937 14.487 14.5161C14.487 14.4248 14.5052 14.346 14.5417 14.2798C14.5805 14.2136 14.6308 14.16 14.6924 14.1189C14.754 14.0755 14.8236 14.0436 14.9012 14.023C14.9788 14.0025 15.0587 13.9922 15.1409 13.9922C15.2595 13.9922 15.3748 14.0127 15.4866 14.0538C15.5759 14.086 15.6505 14.1314 15.7105 14.1901C15.7385 14.2176 15.7341 14.2625 15.7047 14.2885L15.5499 14.4255Z" fill="currentColor"/>
<path d="M13.6807 13.1602C13.6807 13.1192 13.7139 13.0859 13.7549 13.0859H14.0173C14.0583 13.0859 14.0915 13.1192 14.0915 13.1602V15.6005C14.0915 15.6414 14.0583 15.6747 14.0173 15.6747H13.7549C13.7139 15.6747 13.6807 15.6415 13.6807 15.6005V13.1602Z" fill="currentColor"/>
<path d="M12.8653 14.6976C12.8653 14.6451 12.8573 14.5949 12.8413 14.5469C12.8276 14.499 12.8048 14.4567 12.7729 14.4202C12.7409 14.3837 12.6998 14.3552 12.6496 14.3346C12.6017 14.3118 12.5446 14.3004 12.4784 14.3004C12.3552 14.3004 12.2502 14.338 12.1635 14.4134C12.079 14.4864 12.0323 14.5812 12.0231 14.6976H12.8653ZM13.2761 14.8825C13.2761 14.9008 13.2761 14.919 13.2761 14.9373C13.2761 14.9687 13.2491 14.9921 13.2178 14.9921H12.0231C12.0277 15.0514 12.0425 15.1062 12.0676 15.1564C12.095 15.2044 12.1304 15.2466 12.1738 15.2831C12.2171 15.3174 12.2662 15.3448 12.321 15.3653C12.3757 15.3859 12.4328 15.3961 12.4921 15.3961C12.5948 15.3961 12.6816 15.3779 12.7523 15.3413C12.7678 15.3329 12.7827 15.3237 12.7969 15.3139C12.8793 15.2574 12.9933 15.2369 13.0714 15.2994C13.1436 15.3572 13.1586 15.4639 13.0899 15.5258C12.9375 15.6631 12.7394 15.7317 12.4956 15.7317C12.3678 15.7317 12.2502 15.7123 12.1429 15.6735C12.0357 15.6324 11.9421 15.5753 11.8622 15.5023C11.7846 15.4292 11.723 15.3402 11.6774 15.2352C11.634 15.1279 11.6123 15.0069 11.6123 14.8722C11.6123 14.7398 11.634 14.62 11.6774 14.5127C11.723 14.4031 11.7846 14.3106 11.8622 14.2353C11.9398 14.1577 12.0311 14.0983 12.1361 14.0572C12.2434 14.0139 12.3586 13.9922 12.4819 13.9922C12.596 13.9922 12.701 14.0116 12.7968 14.0504C12.895 14.0869 12.9794 14.1429 13.0502 14.2182C13.1209 14.2912 13.1757 14.3837 13.2145 14.4956C13.2556 14.6051 13.2761 14.7341 13.2761 14.8825Z" fill="currentColor"/>
<path d="M10.8995 14.6976C10.8995 14.6451 10.8915 14.5949 10.8755 14.5469C10.8618 14.499 10.839 14.4567 10.807 14.4202C10.7751 14.3837 10.734 14.3552 10.6838 14.3346C10.6359 14.3118 10.5788 14.3004 10.5126 14.3004C10.3894 14.3004 10.2844 14.338 10.1977 14.4134C10.1132 14.4864 10.0664 14.5812 10.0573 14.6976H10.8995ZM11.3103 14.8825C11.3103 14.9008 11.3103 14.919 11.3103 14.9373C11.3103 14.9687 11.2833 14.9921 11.2519 14.9921H10.0573C10.0619 15.0514 10.0767 15.1062 10.1018 15.1564C10.1292 15.2044 10.1646 15.2466 10.2079 15.2831C10.2513 15.3174 10.3004 15.3448 10.3551 15.3653C10.4099 15.3859 10.467 15.3961 10.5263 15.3961C10.629 15.3961 10.7158 15.3779 10.7865 15.3413C10.802 15.3329 10.8168 15.3237 10.8311 15.3139C10.9135 15.2574 11.0275 15.2369 11.1055 15.2994C11.1778 15.3572 11.1928 15.4639 11.124 15.5258C10.9717 15.6631 10.7736 15.7317 10.5297 15.7317C10.4019 15.7317 10.2844 15.7123 10.1771 15.6735C10.0699 15.6324 9.97628 15.5753 9.8964 15.5023C9.8188 15.4292 9.75718 15.3402 9.71153 15.2352C9.66817 15.1279 9.64648 15.0069 9.64648 14.8722C9.64648 14.7398 9.66817 14.62 9.71153 14.5127C9.75718 14.4031 9.8188 14.3106 9.8964 14.2353C9.974 14.1577 10.0653 14.0983 10.1703 14.0572C10.2775 14.0139 10.3928 13.9922 10.5161 13.9922C10.6302 13.9922 10.7352 14.0116 10.831 14.0504C10.9292 14.0869 11.0136 14.1429 11.0844 14.2182C11.1551 14.2912 11.2099 14.3837 11.2487 14.4956C11.2898 14.6051 11.3103 14.7341 11.3103 14.8825Z" fill="currentColor"/>
<path d="M8.65722 13.9831C8.76449 13.9831 8.85579 14.0025 8.9311 14.0413C9.0087 14.0778 9.07147 14.1269 9.1194 14.1885C9.16961 14.2502 9.20612 14.321 9.22895 14.4009C9.25177 14.4808 9.26318 14.5629 9.26318 14.6474V15.6123C9.26318 15.6468 9.23527 15.6747 9.20084 15.6747H8.9147C8.88027 15.6747 8.85236 15.6468 8.85236 15.6123V14.7707C8.85236 14.7227 8.84894 14.6737 8.84209 14.6234C8.83525 14.5709 8.82041 14.5241 8.79759 14.483C8.77705 14.4397 8.74624 14.4043 8.70515 14.3769C8.66635 14.3495 8.61386 14.3358 8.54767 14.3358C8.48149 14.3358 8.42443 14.3483 8.3765 14.3735C8.32857 14.3986 8.28863 14.4328 8.25668 14.4762C8.22472 14.5173 8.20076 14.5641 8.18478 14.6166C8.16881 14.6691 8.16082 14.7227 8.16082 14.7775V15.6123C8.16082 15.6468 8.13291 15.6747 8.09848 15.6747H7.81234C7.77791 15.6747 7.75 15.6468 7.75 15.6123V13.1483C7.75 13.1138 7.77791 13.0859 7.81234 13.0859H8.09848C8.13291 13.0859 8.16082 13.1138 8.16082 13.1483V14.2563C8.16082 14.2586 8.16269 14.2605 8.165 14.2605C8.16663 14.2605 8.1681 14.2595 8.1688 14.258C8.18472 14.2247 8.20716 14.1924 8.23614 14.1612C8.26809 14.1269 8.30461 14.0972 8.34569 14.0721C8.38677 14.0447 8.43356 14.023 8.48605 14.0071C8.53854 13.9911 8.5956 13.9831 8.65722 13.9831Z" fill="currentColor"/>
<path d="M4.7876 14.1121C4.77351 14.0716 4.80359 14.0293 4.84648 14.0293H5.15704C5.18477 14.0293 5.20917 14.0476 5.2169 14.0742L5.54523 15.2039C5.5458 15.2059 5.54759 15.2072 5.54963 15.2072C5.55165 15.2072 5.55344 15.2059 5.55402 15.204L5.89235 14.0738C5.90025 14.0474 5.92453 14.0293 5.95207 14.0293H6.29758C6.32506 14.0293 6.3493 14.0473 6.35726 14.0736L6.69892 15.204C6.69951 15.2059 6.70129 15.2072 6.70332 15.2072C6.70536 15.2072 6.70715 15.2059 6.70773 15.204L7.04272 14.0739C7.05057 14.0475 7.07489 14.0293 7.10249 14.0293H7.39637C7.43921 14.0293 7.46929 14.0715 7.45529 14.112L6.9301 15.631C6.92141 15.6561 6.89776 15.6729 6.87118 15.6729H6.54324C6.51622 15.6729 6.49228 15.6555 6.48394 15.6298L6.12582 14.5256C6.12519 14.5237 6.12338 14.5224 6.12134 14.5224C6.1193 14.5224 6.11749 14.5237 6.11687 14.5257L5.76208 15.6297C5.7538 15.6555 5.72981 15.6729 5.70273 15.6729H5.37483C5.3483 15.6729 5.32467 15.6561 5.31595 15.6311L4.7876 14.1121Z" fill="currentColor"/>
</g>
</g>
<defs>
<clipPath id="clip0_3218_80026">
<rect width="20" height="20" fill="currentColor"/>
</clipPath>
<clipPath id="clip1_3218_80026">
<rect width="20" height="20" fill="currentColor"/>
</clipPath>
</defs>
</svg>
