<svg width="16" height="16" viewBox="0 0 16 16" fill="none" xmlns="http://www.w3.org/2000/svg">
<g clip-path="url(#clip0_3396_72083)">
<path d="M15.5 7.75C15.5 3.46979 12.0302 0 7.75 0C3.46979 0 0 3.46979 0 7.75C0 12.0302 3.46979 15.5 7.75 15.5C12.0302 15.5 15.5 12.0302 15.5 7.75Z" fill="#3781C2"/>
<mask id="mask0_3396_72083" style="mask-type:luminance" maskUnits="userSpaceOnUse" x="2" y="5" width="12" height="5">
<path d="M13.3281 5.64062H2.67188V9.86377H13.3281V5.64062Z" fill="white"/>
</mask>
<g mask="url(#mask0_3396_72083)">
<path fill-rule="evenodd" clip-rule="evenodd" d="M2.76375 6.13516L2.76367 6.13018V5.73047H3.16625V8.66208L3.1664 8.67121V9.06677H2.76367V8.66707L2.76375 8.66208V6.13516Z" fill="white"/>
<path fill-rule="evenodd" clip-rule="evenodd" d="M6.8571 7.85131C6.86745 8.45765 7.2461 8.94258 7.7029 8.93444C8.15963 8.92633 8.52145 8.4282 8.51112 7.82186C8.5007 7.2154 8.12205 6.73049 7.66525 6.7387C7.20852 6.74681 6.8467 7.24494 6.8571 7.85131ZM10.1903 7.11816C10.2008 7.14126 10.1759 7.08365 10.1759 7.08365L10.1903 7.11816ZM10.4647 9.62848C10.4831 9.59719 10.5089 9.54928 10.5394 9.48944L10.4647 9.62848ZM10.4883 6.90896C10.4932 6.92242 10.4988 6.93647 10.5052 6.95129L10.6407 7.28209L10.4883 6.90896ZM8.80153 8.57429C9.05035 8.7994 9.2744 8.91575 9.5609 8.91575C9.85412 8.91795 10.1148 8.77501 10.1148 8.49989C10.1148 8.27029 9.91058 8.136 9.54568 7.98221C9.23648 7.84884 9.00637 7.75533 8.8861 7.56231C8.9008 7.64615 8.90847 7.73283 8.90847 7.82152C8.90847 8.56615 8.3666 9.1699 7.69812 9.1699C7.02965 9.1699 6.48777 8.56615 6.48777 7.82152C6.48777 7.37255 6.68475 6.97488 6.98755 6.72981H6.16848V8.66162L6.16857 8.66932V9.06631H5.80478V8.68225C5.80503 8.6755 5.80513 8.66864 5.80513 8.66162V6.72981H5.48438V6.48668H5.80982C5.85185 5.99618 6.1567 5.71875 6.57872 5.71875C6.8524 5.71875 7.00265 5.74718 7.08945 5.78722V6.11972C7.08807 6.14452 7.08808 6.15968 7.08808 6.15968C7.08433 6.15924 7.07535 6.15907 7.07535 6.15907C6.94365 6.03798 6.81372 5.94784 6.51022 5.94817C6.2685 5.94817 6.1086 6.14393 6.16447 6.48668H7.526C7.5823 6.47779 7.6397 6.47314 7.69812 6.47314C8.18302 6.47314 8.6014 6.79082 8.79453 7.24969C8.79275 7.22421 8.79187 7.19764 8.79187 7.16986C8.79187 6.69113 9.2568 6.48753 9.73975 6.48854C9.7582 6.48845 9.7763 6.48854 9.79408 6.48895C9.96405 6.48624 10.2062 6.54151 10.3541 6.58026L10.6407 7.28209L11.0504 8.27799L11.0985 8.43793L11.152 8.27799L11.6701 6.99968C11.7657 6.64771 12.144 6.4954 12.5618 6.49624C12.7696 6.4953 12.923 6.52027 13.107 6.58476V6.97134C12.8804 6.80724 12.7182 6.71186 12.4612 6.71186C12.2353 6.71186 11.9637 6.81155 11.9637 7.14296C11.9594 7.39202 12.1093 7.43755 12.5492 7.65514C12.9108 7.81161 13.2443 7.98434 13.2463 8.38436C13.2463 9.05132 12.587 9.16685 12.2661 9.16786C11.9796 9.16786 11.7171 9.09736 11.571 8.97627V8.53595L11.5945 8.55532C11.8551 8.79787 12.0854 8.92354 12.383 8.92354C12.6763 8.92575 12.9369 8.78271 12.9369 8.50759C12.9369 8.27799 12.7327 8.1437 12.3678 7.98991C12.019 7.83944 11.7902 7.73976 11.6966 7.49052C11.5544 7.83624 10.8929 9.44204 10.7372 9.7853H10.3805L10.5419 9.48489C10.6313 9.30935 10.7614 9.03398 10.877 8.77053L10.1903 7.11816C10.1857 7.10811 10.1744 7.0827 10.1515 7.03066C10.0988 6.91099 10.0497 6.80048 9.90145 6.74478C9.822 6.71814 9.73745 6.70416 9.63912 6.70416C9.4132 6.70416 9.12425 6.80385 9.12425 7.13526C9.11988 7.38432 9.28713 7.42985 9.7271 7.64734C10.0887 7.80391 10.4222 7.97664 10.4242 8.37666C10.4242 9.04362 9.76487 9.15905 9.44395 9.16016C9.18925 9.16016 8.95333 9.10439 8.80153 9.00691V8.57429Z" fill="white"/>
<path fill-rule="evenodd" clip-rule="evenodd" d="M3.91825 6.51042L3.9227 6.80223L3.92245 6.82185L3.92638 6.82178C3.93105 6.80959 3.93738 6.79925 3.94338 6.79155C4.09123 6.63355 4.2776 6.47656 4.72058 6.47656C5.14458 6.47656 5.41903 6.83565 5.43005 7.06169L5.43048 8.66049V8.66843V9.06518H5.0671V8.58846L5.06703 7.22739C5.06703 6.94558 4.81888 6.74181 4.51515 6.74181C4.26265 6.74181 3.93858 6.96825 3.92783 7.19751V8.6609L3.928 8.67165V9.06552H3.56445V6.84641L3.56455 6.51042H3.91825Z" fill="white"/>
</g>
</g>
<defs>
<clipPath id="clip0_3396_72083">
<rect width="16" height="15.5" fill="white"/>
</clipPath>
</defs>
</svg>
