<svg width="24" height="24" viewBox="0 0 24 24" fill="none" xmlns="http://www.w3.org/2000/svg">
<g clip-path="url(#clip0_2177_8381)">
<path d="M8.59513 6.81411L9.57827 6.60273C9.57827 6.32631 8.82076 6.09867 9.09475 6.09867H9.57827C9.28816 5.93607 8.69183 5.51332 8.27279 4.7491C7.93433 4.13122 7.85374 3.56212 7.83762 3.23692C7.85374 3.10685 7.95044 2.81417 8.22443 2.55401C8.49842 2.29385 8.80465 2.21255 8.93358 2.19629C9.30428 2.19629 9.94896 2.22881 10.6581 2.55401C11.3511 2.86295 11.8024 3.2857 12.0442 3.54586C12.3665 3.2857 12.9628 2.86295 13.817 2.63531C14.5101 2.45645 15.0903 2.47271 15.4771 2.52149C15.5577 2.53775 15.8156 2.61905 16.0251 2.87921C16.2346 3.13937 16.2668 3.41578 16.2668 3.51334C16.2507 3.80602 16.154 4.35886 15.7994 4.94422C15.4126 5.59461 14.8808 5.95233 14.6229 6.09867H14.9291C15.2031 6.09867 14.6229 6.32631 14.6229 6.60273V7.02549C14.6229 7.30191 15.2031 7.52955 14.9291 7.52955H14.8163C15.7027 8.1149 17.4756 9.46448 18.6844 11.9035C19.5708 13.6921 19.7804 15.3343 19.8287 16.3262C19.8609 16.6514 20.0382 18.3261 18.8778 19.8221C17.5562 21.5456 15.5951 21.5909 15.2837 21.6594C14.3973 21.8545 13.253 22.0009 11.9314 21.9846C10.4486 21.9521 9.19146 21.7245 8.25667 21.4643C7.91821 21.4155 6.24204 21.0903 5.09773 19.5131C4.1307 18.1635 4.16294 16.7327 4.19517 16.3262C4.37246 15.2205 4.77539 13.3669 5.95193 11.3832C7.11236 9.43196 8.49842 8.1962 9.38486 7.52955H9.09475C8.82076 7.52955 9.49203 7.30191 9.49203 7.02549L8.59513 6.81411ZM8.59513 6.81411H15.328" stroke="#223466" stroke-width="1.75" stroke-linecap="round" stroke-linejoin="round"/>
<path d="M12.3952 19.3112C12.3155 19.3112 12.2417 19.2688 12.2015 19.2L9.90558 15.2664C9.88555 15.232 9.875 15.193 9.875 15.1533V14.8919C9.875 14.7681 9.97541 14.6677 10.0993 14.6677H10.1534C10.6004 14.6677 10.9758 14.6263 11.2795 14.5435C11.5916 14.4607 11.8362 14.3242 12.0134 14.1338C12.1443 13.9931 12.2361 13.8139 12.2887 13.5963C12.3199 13.4672 12.2143 13.3516 12.0814 13.3516H10.0993C9.97541 13.3516 9.875 13.2512 9.875 13.1273V12.7812C9.875 12.6574 9.97541 12.557 10.0993 12.557H12.0454C12.1863 12.557 12.2937 12.4277 12.2472 12.2947C12.1811 12.1057 12.0863 11.9448 11.9627 11.812C11.7856 11.6134 11.5452 11.4685 11.2415 11.3775C10.9463 11.2864 10.5836 11.2409 10.1534 11.2409H10.0993C9.97541 11.2409 9.875 11.1405 9.875 11.0166V10.6706C9.875 10.5467 9.97541 10.4463 10.0993 10.4463H14.8891C15.0129 10.4463 15.1134 10.5467 15.1134 10.6706V11.0166C15.1134 11.1405 15.0129 11.2409 14.8891 11.2409H13.3547C13.1435 11.2409 13.0292 11.5313 13.1455 11.7077C13.1653 11.7377 13.1844 11.7684 13.2027 11.7996C13.2997 11.9645 13.3694 12.1512 13.4119 12.3598C13.4346 12.4714 13.529 12.557 13.6428 12.557H14.8891C15.0129 12.557 15.1134 12.6574 15.1134 12.7812V13.1273C15.1134 13.2512 15.0129 13.3516 14.8891 13.3516H13.6719C13.5565 13.3516 13.461 13.4395 13.4413 13.5532C13.3532 14.0618 13.1261 14.4663 12.7599 14.767C12.4256 15.0404 11.9992 15.2319 11.4808 15.3417C11.322 15.3753 11.2366 15.556 11.3219 15.6941L13.3456 18.969C13.4379 19.1185 13.3305 19.3112 13.1548 19.3112H12.3952Z" fill="#223466"/>
</g>
<defs>
<clipPath id="clip0_2177_8381">
<rect width="24" height="24" fill="white"/>
</clipPath>
</defs>
</svg>
