<svg width="24" height="24" viewBox="0 0 24 24" fill="none" xmlns="http://www.w3.org/2000/svg">
<g clip-path="url(#clip0_2177_8391)">
<path d="M18.8222 19.3747C19.7347 19.3747 20.191 19.3747 20.5395 19.2083C20.8461 19.062 21.0954 18.8285 21.2516 18.5414C21.4292 18.2149 21.4292 17.7875 21.4292 16.9328V11.1333C21.4292 10.2786 21.4292 9.85118 21.2516 9.52472C21.0954 9.23755 20.8461 9.00407 20.5395 8.85775C20.191 8.69141 19.7347 8.69141 18.8222 8.69141L7.74269 8.69141C6.83017 8.69141 6.37391 8.69141 6.02538 8.85775C5.7188 9.00407 5.46954 9.23755 5.31333 9.52472C5.13574 9.85118 5.13574 10.2786 5.13574 11.1333L5.13574 16.9328C5.13574 17.7875 5.13574 18.2149 5.31333 18.5414C5.46954 18.8285 5.7188 19.062 6.02538 19.2083C6.37391 19.3747 6.83017 19.3747 7.74269 19.3747L18.8222 19.3747Z" stroke="currentColor" stroke-width="1.75" stroke-linecap="square" stroke-linejoin="round"/>
<path d="M16.2578 16.2075C17.1703 16.2075 17.6265 16.2075 17.9751 16.0419C18.2816 15.8962 18.5309 15.6638 18.6871 15.3779C18.8647 15.0528 18.8647 14.6274 18.8647 13.7764V8.00243C18.8647 7.15145 18.8647 6.72596 18.6871 6.40093C18.5309 6.11503 18.2816 5.88258 17.9751 5.7369C17.6265 5.57129 17.1703 5.57129 16.2578 5.57129L5.17824 5.57129C4.26572 5.57129 3.80946 5.57129 3.46092 5.7369C3.15434 5.88258 2.90509 6.11502 2.74888 6.40093C2.57129 6.72596 2.57129 7.15145 2.57129 8.00243L2.57129 13.7764C2.57129 14.6274 2.57129 15.0528 2.74888 15.3779C2.90509 15.6638 3.15434 15.8962 3.46092 16.0419C3.80946 16.2075 4.26572 16.2075 5.17823 16.2075L16.2578 16.2075Z" fill="currentColor" stroke="currentColor" stroke-width="1.75" stroke-linecap="square" stroke-linejoin="round"/>
<path fill-rule="evenodd" clip-rule="evenodd" d="M5.82515 8.69141C6.06829 8.69141 6.18986 8.69141 6.28154 8.73812C6.36218 8.77921 6.42774 8.84477 6.46883 8.92541C6.51554 9.01709 6.51554 9.1371 6.51554 9.37712V12.3999C6.51554 12.6399 6.51554 12.7599 6.46883 12.8516C6.42774 12.9322 6.36218 12.9978 6.28154 13.0389C6.18986 13.0856 6.06829 13.0856 5.82515 13.0856C5.58201 13.0856 5.46045 13.0856 5.36877 13.0389C5.28813 12.9978 5.22257 12.9322 5.18148 12.8516C5.13477 12.7599 5.13477 12.6399 5.13477 12.3999V9.37712C5.13477 9.1371 5.13477 9.01709 5.18148 8.92541C5.22257 8.84477 5.28813 8.77921 5.36877 8.73812C5.46045 8.69141 5.58201 8.69141 5.82515 8.69141ZM15.6012 8.69141C15.8443 8.69141 15.9659 8.69141 16.0576 8.73812C16.1382 8.77921 16.2038 8.84477 16.2449 8.92541C16.2916 9.01709 16.2916 9.1371 16.2916 9.37712V12.3999C16.2916 12.6399 16.2916 12.7599 16.2449 12.8516C16.2038 12.9322 16.1382 12.9978 16.0576 13.0389C15.9659 13.0856 15.8443 13.0856 15.6012 13.0856C15.3581 13.0856 15.2365 13.0856 15.1448 13.0389C15.0642 12.9978 14.9986 12.9322 14.9575 12.8516C14.9108 12.7599 14.9108 12.6399 14.9108 12.3999V9.37712C14.9108 9.1371 14.9108 9.01709 14.9575 8.92541C14.9986 8.84477 15.0642 8.77921 15.1448 8.73812C15.2365 8.69141 15.3581 8.69141 15.6012 8.69141Z" fill="currentColor"/>
<path d="M10.718 12.649C11.7084 12.649 12.5112 11.861 12.5112 10.889C12.5112 9.91691 11.7084 9.12891 10.718 9.12891C9.72765 9.12891 8.9248 9.91691 8.9248 10.889C8.9248 11.861 9.72765 12.649 10.718 12.649Z" fill="currentColor" stroke="currentColor" stroke-width="1.75" stroke-linecap="square" stroke-linejoin="round"/>
</g>
<defs>
<clipPath id="clip0_2177_8391">
<rect width="24" height="24" fill="currentColor"/>
</clipPath>
</defs>
</svg>
