<svg width="24" height="24" viewBox="0 0 24 24" fill="none" xmlns="http://www.w3.org/2000/svg">
<g clip-path="url(#clip0_6032_2560)">
<path d="M12.5958 3.01054C12.5326 3.08569 11.3223 4.54114 8.17413 5.07506C8.03571 5.09879 7.89728 5.11857 7.76677 5.13834C5.42935 5.46661 4.61461 4.99201 4.57111 4.96828C4.49596 5.51407 3.09984 15.8683 5.78926 18.6882C8.20182 21.2195 12.2557 22.1726 12.6749 22.2003C13.0942 22.0579 17.1323 19.9657 19.525 16.7582C22.1868 13.1829 20.7036 3.23202 20.6245 2.70996C20.581 2.74556 19.7742 3.44955 17.4407 3.77782C17.3102 3.79759 17.1758 3.81341 17.0334 3.82923C13.8773 4.18123 12.6591 3.06987 12.5958 3.01054Z" fill="currentColor" stroke="currentColor" stroke-width="0.075"/>
<path d="M2.89464 10.8805C2.89464 10.8528 2.89464 10.8291 2.89464 10.8014C2.89464 10.4969 2.89068 10.1963 2.89464 9.89969C2.89464 9.84827 2.89464 9.80081 2.89464 9.7494C2.89859 9.44882 2.9065 9.14824 2.91837 8.85952C2.91837 8.84765 2.91837 8.83579 2.91837 8.82392C2.91837 8.78437 2.91837 8.74482 2.92233 8.70132C2.93023 8.53521 2.93419 8.3691 2.94605 8.20694C2.94605 8.14366 2.95396 8.08038 2.95396 8.0171C2.96187 7.83517 2.97374 7.65324 2.98561 7.47922C2.98561 7.45549 2.9856 7.43176 2.98956 7.40803C3.00142 7.20632 3.01724 7.01252 3.02911 6.82664C3.02911 6.77522 3.03702 6.72776 3.04098 6.6803C3.05284 6.53792 3.0647 6.40345 3.07657 6.26898C3.07657 6.24129 3.08052 6.21361 3.08448 6.18592C3.08448 6.16219 3.08844 6.13846 3.09239 6.11078C3.1003 6.02772 3.10821 5.94862 3.11612 5.87348C3.12008 5.81415 3.12799 5.75878 3.13194 5.70341C3.13985 5.62827 3.14776 5.56103 3.15171 5.48984C3.15567 5.43447 3.16358 5.3791 3.16754 5.32768C3.17545 5.2644 3.1794 5.20508 3.18731 5.1418C3.19127 5.09434 3.19917 5.04292 3.20313 4.99546C3.21104 4.93614 3.21499 4.88077 3.22291 4.8254C3.22686 4.78585 3.23082 4.74234 3.23477 4.70675C3.24268 4.65138 3.24664 4.59996 3.25455 4.5525C3.25455 4.52481 3.26245 4.49317 3.26641 4.46944C3.27432 4.42198 3.27828 4.37848 3.28223 4.33893C3.28223 4.31915 3.28619 4.29147 3.29014 4.27169C3.29014 4.24401 3.29805 4.22028 3.29805 4.19655C3.30596 4.12931 3.31387 4.0779 3.31783 4.05417C3.31783 4.05417 3.32969 4.06208 3.34156 4.06603C3.34156 4.06603 3.34947 4.06603 3.35342 4.06999C3.36529 4.07394 3.37715 4.08185 3.39297 4.08976C3.40088 4.08976 3.40879 4.09767 3.4167 4.10163C3.43252 4.10954 3.44834 4.11349 3.46416 4.1214C3.47603 4.12536 3.48394 4.12931 3.4958 4.13327C3.51953 4.14118 3.54326 4.14909 3.57095 4.16095C3.58281 4.16095 3.59072 4.16886 3.59863 4.16886C3.66191 4.18864 3.73706 4.20841 3.82011 4.22819C3.83198 4.22819 3.83989 4.23214 3.85175 4.2361C3.9269 4.25192 4.01391 4.26774 4.11279 4.28356C4.13256 4.28356 4.15234 4.28751 4.17211 4.29147C4.27099 4.30333 4.37382 4.3152 4.49247 4.32311C4.50038 4.32311 4.50829 4.32311 4.5162 4.32311C4.62694 4.33102 4.74559 4.33497 4.87215 4.33893C4.89984 4.33893 4.93147 4.33893 4.95916 4.33893C5.09759 4.33893 5.24392 4.33893 5.39817 4.33102C5.48122 4.33102 5.56823 4.32311 5.6592 4.3152C5.67502 4.3152 5.69084 4.3152 5.71061 4.3152C5.82135 4.30729 5.94001 4.29542 6.05866 4.28356C6.20104 4.26774 6.35133 4.25192 6.50953 4.22819C6.64004 4.20841 6.77452 4.18864 6.9169 4.16491C7.10278 4.13327 7.2768 4.09767 7.45082 4.06208C7.58925 4.03044 7.71977 3.9988 7.84633 3.96716C7.89379 3.95529 7.94915 3.94343 7.99662 3.93156C8.17064 3.8841 8.33675 3.83664 8.49495 3.78523C8.51868 3.77732 8.54241 3.76941 8.56614 3.7615C8.70061 3.71799 8.83113 3.67053 8.95373 3.62307C9.00119 3.60329 9.0447 3.58747 9.0882 3.5677C9.18708 3.52815 9.28595 3.4886 9.37692 3.44509C9.42438 3.42532 9.46788 3.40159 9.51534 3.38181C9.60236 3.34226 9.68937 3.29876 9.77242 3.25525C9.81593 3.23152 9.85548 3.21175 9.89898 3.18802C9.9939 3.1366 10.0849 3.08519 10.1679 3.03377C10.1956 3.01795 10.2272 3.00213 10.251 2.98236C10.3736 2.90721 10.4843 2.83207 10.5872 2.76087C10.6188 2.73714 10.6504 2.71737 10.6781 2.69364C10.7137 2.66595 10.7533 2.63827 10.7849 2.61058C10.8165 2.58685 10.8442 2.56708 10.868 2.54335C10.8996 2.51962 10.9312 2.49193 10.9589 2.4682C10.9827 2.44843 11.0024 2.42865 11.0262 2.40888C11.0578 2.38119 11.0855 2.35746 11.1092 2.33373C11.125 2.31791 11.1448 2.30209 11.1606 2.28627C11.1844 2.26254 11.2041 2.24277 11.2239 2.22299C11.2358 2.21113 11.2476 2.19926 11.2556 2.19135C11.2753 2.17158 11.2872 2.15576 11.303 2.13994C11.307 2.13598 11.3149 2.12807 11.3188 2.12412C11.3307 2.1083 11.3426 2.09643 11.3465 2.09248L11.6115 2.28627C11.6313 2.29814 11.655 2.31396 11.6787 2.32582C11.6946 2.33373 11.7143 2.3456 11.7302 2.35351C11.7618 2.36933 11.7934 2.3891 11.8251 2.40492C11.8449 2.41679 11.8646 2.4247 11.8884 2.43656C11.924 2.45634 11.9635 2.47216 12.0031 2.49193C12.0268 2.5038 12.0505 2.51171 12.0742 2.52357C12.1177 2.54335 12.1692 2.56312 12.2166 2.5829C12.2404 2.59081 12.2601 2.60267 12.2839 2.61058C12.359 2.63827 12.4381 2.66595 12.5251 2.69364C12.5251 2.69364 12.533 2.69364 12.537 2.69364C12.6635 2.73319 12.8059 2.76878 12.9602 2.80438C12.9799 2.80834 12.9958 2.81229 13.0155 2.81625C13.1461 2.84393 13.2845 2.86766 13.4308 2.89139C13.4664 2.89535 13.502 2.8993 13.5376 2.90721C13.6523 2.92303 13.7709 2.9349 13.8975 2.94676C13.9331 2.94676 13.9647 2.95467 14.0003 2.95467C14.1506 2.96654 14.3088 2.97049 14.471 2.97445C14.5066 2.97445 14.5461 2.97445 14.5857 2.97445C14.7122 2.97445 14.8467 2.97445 14.9851 2.96654C15.0405 2.96654 15.0998 2.96258 15.1552 2.95863C15.2936 2.95072 15.436 2.93885 15.5823 2.92699C15.6496 2.91908 15.7168 2.91512 15.7841 2.90721C15.9264 2.89139 16.0609 2.87557 16.1914 2.8558C16.314 2.83998 16.4248 2.8202 16.5395 2.80043C16.5869 2.79252 16.6304 2.78461 16.6779 2.7767C16.7609 2.76087 16.84 2.74505 16.9191 2.73319C16.9587 2.72528 16.9943 2.71737 17.0338 2.70946C17.0694 2.70155 17.1011 2.69364 17.1367 2.68573C17.2791 2.65409 17.4175 2.62245 17.544 2.58685C17.5717 2.57894 17.5994 2.57103 17.6271 2.56708C17.7616 2.53148 17.8881 2.49193 18.0028 2.45634C18.0305 2.44843 18.0542 2.44052 18.078 2.43261C18.1729 2.40097 18.2599 2.36933 18.343 2.33769C18.3667 2.32978 18.3904 2.32187 18.4102 2.31396C18.5051 2.27836 18.5921 2.23881 18.6712 2.20322C18.687 2.19531 18.6989 2.19135 18.7147 2.18344C18.782 2.1518 18.8452 2.12016 18.9046 2.09248C18.9164 2.08457 18.9323 2.07666 18.9441 2.0727C19.0114 2.03711 19.0667 2.00547 19.1181 1.97383C19.126 1.96987 19.1379 1.96196 19.1458 1.95801C19.2012 1.92637 19.2447 1.89473 19.2803 1.871C19.2882 1.86704 19.2922 1.86309 19.3001 1.85913C19.3159 1.84726 19.3317 1.8354 19.3436 1.82749C19.3475 1.82353 19.3554 1.81958 19.3594 1.81562C19.3673 1.80771 19.3752 1.80376 19.3792 1.7998C19.3792 1.7998 19.3792 1.7998 19.3831 1.7998L20.625 2.70946C20.625 2.70946 20.6131 2.71737 20.6013 2.72923C20.5973 2.72923 20.5934 2.73714 20.5854 2.7411C20.5736 2.74901 20.5617 2.76087 20.5419 2.77274C20.538 2.7767 20.534 2.78065 20.5261 2.78461C20.5261 2.78461 20.5261 2.78461 20.5222 2.78461C20.4866 2.80834 20.4431 2.83998 20.3877 2.87162C20.3798 2.87557 20.3798 2.87953 20.3719 2.88348C20.3719 2.88348 20.364 2.88744 20.36 2.89139C20.3086 2.92303 20.2532 2.95467 20.186 2.99027C20.182 2.99027 20.1781 2.99422 20.1702 2.99818C20.1623 3.00213 20.1504 3.00609 20.1425 3.01004C20.0871 3.03773 20.0238 3.06937 19.9526 3.10101C19.9408 3.10496 19.9329 3.11287 19.921 3.11683C19.9171 3.11683 19.9131 3.11683 19.9091 3.12078C19.83 3.15638 19.743 3.19197 19.6481 3.23152C19.6402 3.23152 19.6323 3.23943 19.6244 3.24339C19.6125 3.24734 19.5927 3.25525 19.5809 3.25921C19.4978 3.29085 19.4108 3.32249 19.3159 3.35413C19.2961 3.36204 19.2842 3.36599 19.2645 3.3739C19.2566 3.3739 19.2487 3.37786 19.2407 3.38181C19.1221 3.42136 18.9995 3.45696 18.865 3.49255C18.8532 3.49255 18.8452 3.49651 18.8373 3.50046C18.8215 3.50442 18.7978 3.50837 18.782 3.51233C18.6554 3.54397 18.5209 3.57956 18.3746 3.6112C18.3548 3.61516 18.335 3.61911 18.3153 3.62702C18.3034 3.62702 18.2876 3.63098 18.2757 3.63493C18.2401 3.64284 18.2006 3.65075 18.161 3.65866C18.0819 3.67448 18.0028 3.69031 17.9198 3.70217C17.8763 3.71008 17.8288 3.71799 17.7813 3.7259C17.7457 3.73381 17.7101 3.73777 17.6746 3.74568C17.5955 3.75754 17.5164 3.76941 17.4333 3.78127C17.3028 3.80105 17.1683 3.81687 17.0259 3.83269C16.9943 3.83269 16.9627 3.8406 16.931 3.84455C16.8915 3.84455 16.8598 3.84851 16.8242 3.85246C16.6779 3.86433 16.5355 3.87619 16.3971 3.8841C16.3694 3.8841 16.3378 3.88806 16.3101 3.89201C16.2824 3.89201 16.2547 3.89201 16.227 3.89201C16.0886 3.89597 15.9581 3.89992 15.8276 3.89992C15.7999 3.89992 15.7682 3.89992 15.7405 3.89992C15.7326 3.89992 15.7208 3.89992 15.7129 3.89992C15.5468 3.89992 15.3925 3.89201 15.2422 3.88015C15.2343 3.88015 15.2224 3.88015 15.2145 3.88015C15.1908 3.88015 15.1671 3.87619 15.1433 3.87224C15.0168 3.86037 14.8981 3.84851 14.7834 3.83269C14.7637 3.83269 14.7399 3.82873 14.7162 3.82478C14.7004 3.82478 14.6885 3.82082 14.6727 3.81687C14.5264 3.79709 14.3879 3.76941 14.2574 3.74172C14.2495 3.74172 14.2455 3.74172 14.2376 3.74172C14.2258 3.74172 14.2139 3.73381 14.202 3.73381C14.0518 3.69822 13.9094 3.66262 13.7789 3.62307C13.7789 3.62307 13.7749 3.62307 13.7709 3.62307C13.6839 3.59538 13.6048 3.5677 13.5297 3.54001C13.506 3.5321 13.4862 3.52024 13.4625 3.51233C13.411 3.49255 13.3636 3.47278 13.3201 3.453C13.3122 3.453 13.3043 3.44905 13.3003 3.44509C13.2845 3.43718 13.2687 3.42927 13.2528 3.42136C13.2133 3.40159 13.1698 3.38577 13.1342 3.36599C13.1144 3.35413 13.0907 3.34622 13.0709 3.33435C13.0353 3.31458 13.0037 3.29876 12.972 3.28294C12.9562 3.27503 12.9364 3.26316 12.9206 3.25525C12.889 3.23548 12.8613 3.21966 12.8376 3.20384C12.8257 3.19593 12.8138 3.18802 12.802 3.18406C12.7664 3.16033 12.7387 3.14056 12.711 3.12078L12.5844 3.02982C12.5844 3.02982 12.5726 3.04168 12.5607 3.0575C12.5568 3.06146 12.5488 3.06937 12.5449 3.07728C12.533 3.0931 12.5172 3.10496 12.5014 3.12474C12.4935 3.1366 12.4816 3.14451 12.4697 3.15638C12.45 3.17615 12.4302 3.19593 12.4065 3.21966C12.3906 3.23548 12.3748 3.2513 12.359 3.26712C12.3353 3.29085 12.3076 3.31458 12.2759 3.34226C12.2641 3.35413 12.2522 3.36204 12.2404 3.3739C12.2324 3.38181 12.2206 3.38972 12.2087 3.39763C12.181 3.42136 12.1494 3.44509 12.1217 3.47278C12.094 3.49651 12.0663 3.51628 12.0347 3.54001C11.9991 3.5677 11.9635 3.59538 11.9279 3.62307C11.9042 3.63889 11.8844 3.65471 11.8607 3.67449C11.8528 3.67844 11.8449 3.68635 11.8369 3.69031C11.7381 3.7615 11.6273 3.83664 11.5008 3.91179C11.4929 3.91574 11.4849 3.92365 11.477 3.92761C11.4573 3.93947 11.4335 3.95134 11.4177 3.9632C11.3347 4.01462 11.2437 4.06603 11.1488 4.11745C11.125 4.12931 11.1053 4.14118 11.0815 4.15304C11.0618 4.16095 11.042 4.17282 11.0222 4.18073C10.9392 4.22423 10.8561 4.26378 10.7651 4.30333C10.7295 4.31915 10.7019 4.33497 10.6663 4.35079C10.6544 4.35475 10.6386 4.36266 10.6267 4.36661C10.5357 4.40616 10.4369 4.44571 10.3419 4.48526C10.3024 4.50108 10.2668 4.5169 10.2272 4.53272C10.2193 4.53272 10.2114 4.53668 10.2075 4.54063C10.0888 4.58809 9.96226 4.6316 9.83175 4.67511C9.80406 4.68302 9.78429 4.69488 9.7566 4.70279C9.7566 4.70279 9.7566 4.70279 9.75265 4.70279C9.59445 4.75421 9.42833 4.80562 9.25431 4.84913C9.25036 4.84913 9.2464 4.84913 9.24245 4.84913C9.19499 4.86099 9.14753 4.87286 9.10007 4.88472C8.97351 4.91636 8.84695 4.948 8.70852 4.97964C8.69665 4.97964 8.68874 4.9836 8.67688 4.98755C8.51472 5.02315 8.34861 5.05479 8.17855 5.08247C8.12318 5.09038 8.07176 5.10225 8.01639 5.11016C7.93334 5.12202 7.85028 5.13389 7.77118 5.14575C7.61298 5.16948 7.46269 5.1853 7.32031 5.20112C7.3124 5.20112 7.30053 5.20112 7.29262 5.20112C7.18188 5.21299 7.07114 5.2209 6.96831 5.22881C6.95249 5.22881 6.94063 5.22881 6.92481 5.22881C6.84175 5.23276 6.76265 5.24067 6.6875 5.24463C6.67959 5.24463 6.67169 5.24463 6.65982 5.24463C6.50162 5.25254 6.35528 5.25254 6.22081 5.25254C6.20895 5.25254 6.19313 5.25254 6.18522 5.25254C6.16544 5.25254 6.14962 5.25254 6.1338 5.25254C6.00724 5.25254 5.88859 5.24463 5.78181 5.23672C5.77785 5.23672 5.76994 5.23672 5.76203 5.23672C5.76203 5.23672 5.76203 5.23672 5.75807 5.23672C5.64338 5.22881 5.53659 5.21694 5.44167 5.20508C5.42981 5.20508 5.41794 5.20508 5.41003 5.20508C5.39817 5.20508 5.39026 5.20508 5.38235 5.20112C5.28743 5.1853 5.20042 5.17344 5.12527 5.15366C5.12527 5.15366 5.11736 5.15366 5.11341 5.15366C5.1055 5.15366 5.10154 5.15366 5.09363 5.14971C5.01058 5.12993 4.93543 5.11016 4.87215 5.09038C4.86028 5.09038 4.85238 5.08247 4.84447 5.07852C4.81678 5.07061 4.79305 5.0627 4.76932 5.05479C4.75745 5.05083 4.74559 5.04688 4.73372 5.04292C4.7179 5.03501 4.70208 5.03106 4.68626 5.02315C4.68626 5.02315 4.67835 5.02315 4.6744 5.01919C4.66649 5.01919 4.66649 5.01524 4.65858 5.01128C4.64276 5.00337 4.63089 4.99942 4.62298 4.99546C4.61903 4.99546 4.61507 4.99151 4.61112 4.98755C4.59925 4.9836 4.59134 4.97964 4.59134 4.97569C4.59134 5.00337 4.57948 5.05479 4.57157 5.12598C4.57157 5.14971 4.56761 5.16948 4.56366 5.19717C4.56366 5.21694 4.5597 5.24067 4.55575 5.2644C4.55179 5.30395 4.54388 5.34746 4.53993 5.39492C4.53993 5.41865 4.53202 5.45029 4.52806 5.47797C4.52015 5.52939 4.5162 5.57685 4.50829 5.63222C4.50433 5.66782 4.50038 5.71132 4.49642 5.75087C4.48851 5.80624 4.48456 5.86161 4.47665 5.92094C4.47269 5.9684 4.46478 6.01586 4.46083 6.06727C4.45292 6.1266 4.44896 6.18988 4.44105 6.25316C4.4371 6.30853 4.42919 6.3639 4.42523 6.41927C4.41732 6.48651 4.41337 6.55374 4.40546 6.62493C4.4015 6.68426 4.39359 6.74754 4.38964 6.81082C4.38173 6.88201 4.37777 6.95715 4.36986 7.0323C4.36591 7.08767 4.36195 7.14304 4.35404 7.19841C4.34218 7.32893 4.33031 7.45944 4.3224 7.59787C4.31845 7.64928 4.31449 7.7007 4.31054 7.75607C4.29472 7.94195 4.28285 8.13575 4.27099 8.3335C4.27099 8.36119 4.27099 8.38887 4.26703 8.41656C4.25517 8.58662 4.24726 8.7646 4.23539 8.94257C4.23539 9.00585 4.22748 9.07309 4.22748 9.13637C4.21957 9.29457 4.21166 9.46068 4.20771 9.62284C4.20771 9.67821 4.20375 9.73358 4.1998 9.78895C4.18793 10.0816 4.18398 10.3782 4.17607 10.6788C4.17607 10.7302 4.17607 10.7777 4.17607 10.8291C4.17607 11.1297 4.17607 11.4303 4.17607 11.7309C4.17607 11.7744 4.17607 11.8179 4.17607 11.8574C4.18398 12.3399 4.1998 12.8264 4.23144 13.305C4.23144 13.3247 4.23144 13.3445 4.23539 13.3643C4.25912 13.7321 4.29472 14.096 4.33427 14.4519C4.33822 14.4915 4.34613 14.531 4.35009 14.5706C4.38173 14.8356 4.42128 15.0966 4.46478 15.3537C4.46478 15.3734 4.47269 15.3932 4.47269 15.413C4.51224 15.6266 4.55575 15.8362 4.59925 16.0418C4.61507 16.1051 4.62694 16.1644 4.64276 16.2238C4.6744 16.3464 4.70604 16.465 4.73768 16.5837C4.75745 16.647 4.77327 16.7142 4.79305 16.7775C4.82469 16.8763 4.85633 16.9673 4.88797 17.0622C4.9117 17.1255 4.93147 17.1888 4.9552 17.2481C4.98685 17.3272 5.01849 17.4063 5.05013 17.4815C5.07781 17.5447 5.10154 17.6041 5.12923 17.6634C5.16482 17.7346 5.20042 17.8018 5.23601 17.8691C5.2637 17.9244 5.29534 17.9838 5.32698 18.0352C5.39026 18.1459 5.45749 18.2487 5.52868 18.3476C5.54055 18.3634 5.54846 18.3832 5.56032 18.399C5.63942 18.5019 5.71852 18.6007 5.80554 18.6917C6.18917 19.0912 6.61236 19.455 7.05532 19.7793L5.80158 18.8618C5.35862 18.5375 4.93543 18.1775 4.55179 17.7741C4.46478 17.6832 4.38568 17.5883 4.30658 17.4815C4.30658 17.4815 4.30658 17.4815 4.30658 17.4775C4.29472 17.4656 4.28681 17.4459 4.2789 17.434C4.20771 17.3351 4.14047 17.2323 4.07719 17.1216C4.06928 17.1097 4.06532 17.1018 4.05742 17.0899C4.03369 17.0464 4.00995 16.999 3.98623 16.9515C3.95063 16.8843 3.91503 16.817 3.87944 16.7458C3.87153 16.73 3.86362 16.7181 3.85571 16.7023C3.83593 16.6588 3.81616 16.6074 3.79638 16.5639C3.76474 16.4888 3.72915 16.4097 3.70146 16.3306C3.69355 16.3108 3.68564 16.295 3.67773 16.2712C3.66191 16.2317 3.65005 16.1842 3.63423 16.1407C3.60259 16.0458 3.57095 15.9509 3.53931 15.856C3.5314 15.8283 3.51953 15.8006 3.51162 15.7729C3.49976 15.7373 3.49185 15.6978 3.48394 15.6622C3.44834 15.5435 3.4167 15.4249 3.38902 15.3022C3.38111 15.2627 3.36924 15.2271 3.35738 15.1876C3.35342 15.1678 3.34947 15.144 3.34551 15.1203C3.29805 14.9147 3.25455 14.705 3.21895 14.4915C3.21895 14.4875 3.21895 14.4836 3.21895 14.4756C3.21895 14.4598 3.215 14.444 3.21104 14.4321C3.16754 14.179 3.12799 13.914 3.09634 13.649C3.09634 13.6214 3.08844 13.5976 3.08448 13.5739C3.08448 13.562 3.08448 13.5462 3.08448 13.5344C3.04098 13.1784 3.00933 12.8106 2.98561 12.4428C2.98561 12.4309 2.98561 12.4151 2.98561 12.4032C2.98561 12.3953 2.98561 12.3914 2.98561 12.3834C2.95396 11.9049 2.93814 11.4184 2.93023 10.9359C2.93023 10.9201 2.93023 10.9043 2.93023 10.8845L2.89464 10.8805Z" fill="currentColor" stroke="currentColor" stroke-width="0.075"/>
<path d="M12.6601 5.03667C12.6102 5.09589 11.6565 6.24282 9.17563 6.66357C9.06655 6.68227 8.95746 6.69786 8.85461 6.71344C7.01266 6.97212 6.37063 6.59812 6.33634 6.57942C6.27713 7.00952 5.17694 15.169 7.29628 17.3912C9.19745 19.3858 12.392 20.1369 12.7224 20.1588C13.0528 20.0466 16.2349 18.3978 18.1205 15.8702C20.218 13.0527 19.0492 5.21121 18.9869 4.7998C18.9526 4.82785 18.3168 5.38262 16.478 5.64131C16.3751 5.65689 16.2692 5.66936 16.157 5.68182C13.6699 5.95921 12.7099 5.08342 12.6601 5.03667Z" fill="currentColor" stroke="currentColor" stroke-width="0.075"/>
<path d="M17.4922 10.8446L17.1797 10.6152L13.8575 11.1531L14.17 11.3825L17.4922 10.8446Z" fill="currentColor" stroke="currentColor" stroke-width="0.075"/>
<path d="M12.3192 13.4911L12.0068 13.2617L12.0938 16.9082L12.4062 17.1376L12.3192 13.4911Z" fill="currentColor" stroke="currentColor" stroke-width="0.075"/>
<path d="M12.1889 8.04091L11.8764 7.81152L11.9634 11.462L12.2759 11.6914L12.1889 8.04091Z" fill="currentColor" stroke="currentColor" stroke-width="0.075"/>
<path d="M14.0833 7.73623L13.7708 7.50684L11.8763 7.81137L12.1888 8.04076L14.0833 7.73623Z" fill="currentColor" stroke="currentColor" stroke-width="0.075"/>
<path d="M12.1889 8.04086L12.276 11.6913L9.0012 12.2213L9.0447 14.0209L12.3195 13.4909L12.4065 17.1374L14.3049 16.8329L14.2139 13.1824L17.5361 12.6445L17.4926 10.845L14.1704 11.3829L14.0834 7.73633L12.1889 8.04086Z" fill="currentColor" stroke="currentColor" stroke-width="0.075"/>
<path d="M12.2759 11.6913L11.9634 11.4619L8.68867 11.9919L9.00112 12.2213L12.2759 11.6913Z" fill="currentColor" stroke="currentColor" stroke-width="0.075"/>
<path d="M9.00068 12.2216L8.68824 11.9922L8.73174 13.7917L9.04419 14.0211L9.00068 12.2216Z" fill="currentColor" stroke="currentColor" stroke-width="0.075"/>
<circle cx="21.3002" cy="2.55" r="1.8" fill="currentColor"/>
</g>
<defs>
<clipPath id="clip0_6032_2560">
<rect width="24" height="24" fill="currentColor"/>
</clipPath>
</defs>
</svg>
