<svg width="24" height="24" viewBox="0 0 24 24" fill="none" xmlns="http://www.w3.org/2000/svg">
<g clip-path="url(#clip0_3396_50225)">
<path d="M23.25 11.625C23.25 5.20469 18.0453 0 11.625 0C5.20469 0 0 5.20469 0 11.625C0 18.0453 5.20469 23.25 11.625 23.25C18.0453 23.25 23.25 18.0453 23.25 11.625Z" fill="#00C7FD"/>
<path d="M4.71425 14.7174V10.4375H3.5498V14.7132H4.71425V14.7174ZM12.4249 14.7596V13.7118C12.2548 13.7118 12.1109 13.7034 12.0062 13.6865C11.8841 13.6696 11.7925 13.6273 11.7315 13.5682C11.6704 13.5091 11.6312 13.4246 11.6093 13.3105C11.5919 13.2049 11.5832 13.0654 11.5832 12.8964V11.405H12.4249V10.4375H11.5832V8.77289H10.4188V12.9091C10.4188 13.2598 10.4493 13.5555 10.5103 13.7921C10.5714 14.0245 10.676 14.2146 10.82 14.3583C10.9639 14.5019 11.1558 14.6033 11.3869 14.6667C11.6224 14.7301 11.919 14.7596 12.2723 14.7596H12.4249ZM19.0889 14.7174V8.44336H17.9244V14.7174H19.0889ZM9.29792 10.86C8.97515 10.522 8.52159 10.353 7.94593 10.353C7.66682 10.353 7.40949 10.4079 7.18269 10.5178C6.95158 10.6276 6.75965 10.7797 6.60268 10.9741L6.54159 11.0544V10.9825V10.4375H5.39462V14.7132H6.55033V12.4359V12.5922C6.55033 12.5669 6.55033 12.5415 6.55033 12.5162C6.56342 12.1148 6.66373 11.8191 6.85562 11.6289C7.06059 11.4262 7.30918 11.3248 7.59268 11.3248C7.92849 11.3248 8.18578 11.4262 8.35588 11.6205C8.52159 11.8149 8.60882 12.0895 8.60882 12.4401V12.4528V14.7132H9.78201V12.288C9.78636 11.6797 9.62064 11.198 9.29792 10.86ZM17.3226 12.5711C17.3226 12.2627 17.2659 11.9754 17.1568 11.705C17.0434 11.4388 16.8865 11.2022 16.6902 10.9994C16.4896 10.7966 16.2497 10.6403 15.9706 10.5262C15.6915 10.4122 15.3818 10.3572 15.046 10.3572C14.7276 10.3572 14.4267 10.4164 14.1476 10.5305C13.8685 10.6488 13.6243 10.8051 13.4193 11.0037C13.2143 11.2022 13.0486 11.4388 12.9308 11.7092C12.8087 11.9796 12.752 12.2711 12.752 12.5796C12.752 12.888 12.8087 13.1795 12.9221 13.4499C13.0355 13.7203 13.1968 13.9569 13.3975 14.1554C13.5981 14.3541 13.8467 14.5146 14.1345 14.6287C14.4223 14.7469 14.7407 14.8061 15.0809 14.8061C16.0665 14.8061 16.6771 14.3709 17.0434 13.9653L16.2061 13.3485C16.0316 13.5513 15.613 13.8259 15.0896 13.8259C14.7625 13.8259 14.4921 13.7541 14.2871 13.6062C14.0822 13.4626 13.9426 13.2598 13.8685 13.0105L13.8554 12.9725H17.3226V12.5711ZM13.8641 12.1782C13.8641 11.8655 14.2348 11.3205 15.0329 11.3163C15.831 11.3163 16.2061 11.8613 16.2061 12.174L13.8641 12.1782ZM20.4147 14.1766C20.3929 14.1259 20.3623 14.0836 20.3231 14.0456C20.2838 14.0076 20.2402 13.978 20.1879 13.9569C20.1356 13.9358 20.0789 13.9231 20.0222 13.9231C19.9611 13.9231 19.9088 13.9358 19.8565 13.9569C19.8041 13.978 19.7605 14.0076 19.7212 14.0456C19.682 14.0836 19.6514 14.1259 19.6297 14.1766C19.6079 14.2273 19.5948 14.2822 19.5948 14.3371C19.5948 14.3963 19.6079 14.447 19.6297 14.4977C19.6514 14.5484 19.682 14.5906 19.7212 14.6287C19.7605 14.6667 19.8041 14.6963 19.8565 14.7174C19.9088 14.7385 19.9655 14.7512 20.0222 14.7512C20.0832 14.7512 20.1356 14.7385 20.1879 14.7174C20.2402 14.6963 20.2838 14.6667 20.3231 14.6287C20.3623 14.5906 20.3929 14.5484 20.4147 14.4977C20.4365 14.447 20.4496 14.3921 20.4496 14.3371C20.4496 14.2822 20.4365 14.2273 20.4147 14.1766ZM20.3449 14.4723C20.3275 14.5146 20.3013 14.5526 20.2708 14.5822C20.2402 14.6118 20.201 14.6371 20.1574 14.654C20.1137 14.6709 20.0701 14.6794 20.0178 14.6794C19.9698 14.6794 19.9219 14.6709 19.8782 14.654C19.8346 14.6371 19.7954 14.6118 19.7648 14.5822C19.7343 14.5526 19.7081 14.5146 19.6907 14.4723C19.6733 14.4301 19.6645 14.3878 19.6645 14.3371C19.6645 14.2907 19.6733 14.2442 19.6907 14.2019C19.7081 14.1597 19.7343 14.1217 19.7648 14.0921C19.7954 14.0625 19.8346 14.0372 19.8782 14.0203C19.9219 14.0034 19.9655 13.9949 20.0178 13.9949C20.0658 13.9949 20.1137 14.0034 20.1574 14.0203C20.201 14.0372 20.2402 14.0625 20.2708 14.0921C20.3013 14.1217 20.3275 14.1597 20.3449 14.2019C20.3623 14.2442 20.3711 14.2864 20.3711 14.3371C20.3711 14.3878 20.3623 14.4301 20.3449 14.4723ZM20.1007 14.3752C20.1356 14.3709 20.1617 14.3583 20.1835 14.3371C20.2054 14.316 20.2184 14.2864 20.2184 14.2442C20.2184 14.1977 20.2054 14.1639 20.1748 14.1386C20.1487 14.1132 20.1007 14.1006 20.044 14.1006H19.8521V14.5779H19.9437V14.3836H20.0091L20.1312 14.5779H20.2271L20.1007 14.3752ZM20.0527 14.3033C20.0396 14.3033 20.0265 14.3033 20.0091 14.3033H19.9437V14.1681H20.0091C20.0222 14.1681 20.0353 14.1681 20.0527 14.1681C20.0658 14.1681 20.0789 14.1724 20.092 14.1766C20.105 14.1808 20.1137 14.1893 20.1181 14.1977C20.1268 14.2062 20.1268 14.2188 20.1268 14.2357C20.1268 14.2526 20.1225 14.2653 20.1181 14.2738C20.1094 14.2822 20.1007 14.2907 20.092 14.2949C20.0789 14.2991 20.0658 14.3033 20.0527 14.3033Z" fill="white"/>
</g>
<defs>
<clipPath id="clip0_3396_50225">
<rect width="24" height="23.25" fill="white"/>
</clipPath>
</defs>
</svg>
