<svg width="24" height="24" viewBox="0 0 24 24" fill="none" xmlns="http://www.w3.org/2000/svg">
<g clip-path="url(#clip0_4017_3110)">
<path d="M7.69891 1.79883L8.64687 1.81604L16.6434 1.95805L15.6955 1.94084L7.69891 1.79883Z" fill="#6D6D6D"/>
<path d="M21.1096 16.3564L22.0576 16.3737L16.3003 22.2004L15.3524 22.1832L21.1096 16.3564Z" fill="#017AFF" stroke="black" stroke-width="0.0864"/>
<path d="M21.2526 7.97262L21.1094 16.3564L22.0572 16.3733L22.2005 7.98952L21.2526 7.97262Z" fill="#017AFF" stroke="black" stroke-width="0.0864"/>
<path d="M15.6955 1.94238L16.6435 1.9596L22.1985 7.98861L21.2505 7.97139L15.6955 1.94238Z" fill="#017AFF" stroke="black" stroke-width="0.0864"/>
<path d="M15.6966 1.94084L21.2516 7.96985L21.1084 16.3549L15.3511 22.1817L7.35454 22.0397L1.7995 16.0107L1.94275 7.62773L7.70002 1.79883L15.6966 1.94084Z" fill="white" stroke="black" stroke-width="0.0864"/>
<path d="M8.23053 3.05176L15.1251 3.17383L15.1436 3.1748L15.1563 3.18848L19.9883 8.43359L20.0001 8.44629V8.46387L19.8741 15.8184L19.8731 15.8359L19.8614 15.8477L14.8536 20.917L14.8409 20.9307L14.8223 20.9297L7.9278 20.8076H7.90924L7.89655 20.7939L3.06354 15.5479L3.05182 15.5352L3.0528 15.5176L3.17877 8.16309L3.17975 8.14648L3.19147 8.13379L8.1983 3.06445L8.21198 3.05078L8.23053 3.05176Z" fill="#017AFF" stroke="black" stroke-width="0.0864"/>
<mask id="mask0_4017_3110" style="mask-type:alpha" maskUnits="userSpaceOnUse" x="3" y="3" width="17" height="18">
<path d="M7.92843 20.7653L3.09595 15.5195L3.22234 8.16506L8.22967 3.0957L15.1245 3.21835L19.957 8.46415L19.8306 15.8186L14.8233 20.888L7.92843 20.7653Z" fill="#017AFF"/>
</mask>
<g mask="url(#mask0_4017_3110)">
<path d="M11.4498 5.28291C12.2737 5.30179 12.9938 5.71076 13.5002 6.35254C14.0045 6.99641 14.2868 7.87519 14.2328 8.83785C14.1789 9.80052 13.797 10.6625 13.2221 11.2791C12.6452 11.8957 11.8814 12.269 11.0575 12.2481C10.2336 12.2271 9.51345 11.8202 9.00914 11.1784C8.50483 10.5346 8.2205 9.6558 8.27446 8.69524C8.32842 7.73467 8.71236 6.86848 9.28724 6.25187C9.86004 5.63526 10.6279 5.26404 11.4498 5.28291Z" fill="white" stroke="black" stroke-width="0.0864"/>
<path d="M11.4043 13.7435C12.9764 13.7803 14.3556 14.5229 15.3154 15.6992C16.2773 16.8735 16.8197 18.4754 16.7159 20.2327L16.6587 21.2065L5.28326 20.9446L5.34047 19.9708C5.44429 18.2135 6.17525 16.6403 7.27275 15.5131C8.37025 14.3858 9.83429 13.7087 11.4043 13.7435Z" fill="white" stroke="black" stroke-width="0.0864"/>
<path d="M13.2681 15.707L13.7427 16.2661L10.2929 19.688L8.76654 17.8897L9.03883 17.6218L9.31113 17.3539L9.41854 17.482L10.3603 18.5908L12.6836 16.2894L13.2681 15.707Z" fill="#010101"/>
</g>
</g>
<defs>
<clipPath id="clip0_4017_3110">
<rect width="24" height="24" fill="white"/>
</clipPath>
</defs>
</svg>
