<svg width="24" height="24" viewBox="0 0 24 24" fill="none" xmlns="http://www.w3.org/2000/svg">
<g clip-path="url(#clip0_5424_15114)">
<path d="M10.4439 22.5004C10.1229 22.5077 9.80366 22.4505 9.50517 22.3322C9.20669 22.2138 8.93501 22.0367 8.70624 21.8114C8.47748 21.5861 8.29629 21.3172 8.17342 21.0205C8.05055 20.7239 7.98851 20.4056 7.99097 20.0845L7.99062 14.1666H5.03829C4.35535 14.1669 3.70016 13.8964 3.21644 13.4143C2.73272 12.9322 2.45997 12.2779 2.45801 11.595V8.86969C2.45996 8.18675 2.73271 7.53248 3.21643 7.05037C3.70014 6.56827 4.35533 6.29771 5.03826 6.29804H8.59113L16.6618 3.76865C16.7076 3.13907 16.9951 2.5516 17.4642 2.12918C17.9333 1.70675 18.5475 1.48209 19.1784 1.50222C19.8094 1.52235 20.4081 1.7857 20.8492 2.23717C21.2904 2.68864 21.5399 3.29323 21.5455 3.92445V16.5403C21.5399 17.1715 21.2903 17.7761 20.8491 18.2276C20.4078 18.679 19.8091 18.9423 19.1781 18.9623C18.5471 18.9824 17.9329 18.7576 17.4639 18.335C16.9949 17.9125 16.7075 17.3249 16.6618 16.6953C15.6512 16.3776 14.2764 15.9463 12.8968 15.5137V20.0665C12.9011 20.3889 12.8404 20.7089 12.7184 21.0073C12.5964 21.3058 12.4156 21.5767 12.1867 21.8038C11.9578 22.0309 11.6855 22.2096 11.3861 22.3293C11.0867 22.449 10.7663 22.5071 10.4439 22.5004ZM9.4083 14.422V20.0665C9.40912 20.2027 9.43682 20.3375 9.4898 20.463C9.54278 20.5885 9.62001 20.7024 9.71706 20.798C9.81411 20.8936 9.92907 20.9692 10.0554 21.0203C10.1817 21.0715 10.3168 21.0972 10.453 21.096C10.5893 21.0948 10.724 21.0668 10.8494 21.0134C10.9748 20.9601 11.0884 20.8826 11.1838 20.7853C11.2791 20.688 11.3544 20.5728 11.4052 20.4464C11.456 20.32 11.4813 20.1848 11.4798 20.0485L11.4794 15.0693C10.889 14.8844 9.99997 14.6069 9.4083 14.422ZM18.0747 16.2052V16.5403C18.0787 16.8099 18.1886 17.0671 18.3807 17.2564C18.5728 17.4456 18.8316 17.5517 19.1012 17.5517C19.3709 17.5517 19.6297 17.4456 19.8218 17.2563C20.0139 17.0671 20.1238 16.8098 20.1278 16.5402V3.9244C20.1238 3.65478 20.0139 3.39756 19.8218 3.20831C19.6297 3.01907 19.3709 2.91299 19.1012 2.913C18.8316 2.913 18.5727 3.01909 18.3806 3.20835C18.1886 3.3976 18.0787 3.65483 18.0747 3.92445C18.0752 3.96263 18.0739 4.27075 18.0754 4.2906C18.0747 4.32187 18.0767 16.1765 18.0747 16.2052ZM12.4389 13.8842C13.9109 14.3459 15.4677 14.8339 16.657 15.2077V5.25558L9.4083 7.52744V12.9365C10.1967 13.183 11.5831 13.6141 12.4389 13.8842ZM5.03826 7.71573C4.73118 7.71496 4.43634 7.83602 4.21839 8.05235C4.00044 8.26867 3.87719 8.56261 3.87566 8.86969V11.595C3.87719 11.9021 4.00045 12.196 4.2184 12.4123C4.43634 12.6286 4.73119 12.7497 5.03826 12.7489H7.99059V7.71573H5.03826Z" fill="#5E6063"/>
</g>
<defs>
<clipPath id="clip0_5424_15114">
<rect width="24" height="24" fill="white"/>
</clipPath>
</defs>
</svg>
