<svg width="20" height="20" viewBox="0 0 20 20" fill="none" xmlns="http://www.w3.org/2000/svg">
<g clip-path="url(#clip0_3396_55213)">
<path d="M20 10C20 4.47715 15.5228 0 10 0C4.47715 0 0 4.47715 0 10C0 15.5228 4.47715 20 10 20C15.5228 20 20 15.5228 20 10Z" fill="white"/>
<path d="M8.16585 8.45161C3.97929 8.81443 2.20966 10.0072 2.17051 10.6963C2.09743 12.0222 5.50879 13.2124 10.4627 13.0871L10.434 12.6199C6.54238 12.5782 3.76004 11.9622 3.02661 10.8007C2.99269 10.7172 2.98224 10.6311 2.98485 10.5449C3.00834 9.81149 3.97407 9.3808 5.39395 8.93449C4.03151 9.3808 3.01618 10.1612 3.82007 10.8633C5.11467 11.8943 7.79001 12.2232 10.2879 12.2154L10.2409 11.756C7.47157 11.9126 4.46998 11.2079 4.20117 10.2395C4.03151 9.62877 5.0181 8.95277 8.16585 8.45161Z" fill="#6B4592"/>
<path d="M13.9362 9.14083H12.981C11.9421 8.50658 10.0759 8.21423 7.49977 8.19336L7.42931 7.77051C9.13368 7.81489 12.4015 7.90886 13.9362 9.14083ZM15.5649 9.12776C15.0481 6.99533 8.78915 6.91442 7.25706 6.90398L7.31709 7.36336C11.0547 7.41554 13.9571 7.99761 14.6879 9.12254C14.6879 9.12517 14.6227 9.12776 14.6227 9.12776H15.5649ZM9.13368 11.5551C10.7337 11.4586 12.2032 11.2706 13.4116 10.8087H13.0279C12.9026 10.8556 12.1744 11.101 11.997 11.1062C12.1118 11.0723 12.7669 10.8817 12.84 10.8139H12.5112C11.6837 11.1819 10.4909 11.4168 9.13368 11.5551Z" fill="#C5D52D"/>
<path d="M6.00409 9.30746H5.63609V10.6621H6.00409V9.30746Z" fill="#271D1A"/>
<path d="M6.87621 9.61805V10.6516H6.49252V9.61805H6.19758V9.30746H7.18421V9.61805" fill="#271D1A"/>
<path d="M8.02667 9.25809C8.13107 9.26594 8.22501 9.29203 8.31117 9.33641V9.76184C8.18326 9.54781 7.71604 9.44863 7.64557 9.96022C7.68473 10.4927 8.15454 10.3987 8.31117 10.1951V10.6101C8.22501 10.6467 8.13107 10.678 8.02667 10.6963C7.5177 10.691 7.26714 10.3622 7.26714 9.94716C7.26714 9.53475 7.61167 9.23459 8.02667 9.25809Z" fill="#271D1A"/>
<path d="M9.28282 9.29738H9.13407V10.6624H9.28282V9.29738Z" fill="#271D1A"/>
<path d="M13.9213 9.40434V10.6624H13.7725V9.40434H13.4123V9.28427H14.2815V9.40434" fill="#271D1A"/>
<path d="M14.6203 9.40441V9.82985H15.1685V9.94469H14.6203V10.5476H15.1685V10.6625H14.4768V10.5476H14.4846V9.94469H14.4768V9.82985H14.4846V9.40441H14.4768V9.28957H15.1685V9.40441" fill="#271D1A"/>
<path d="M16.8155 9.29738H16.9643V9.82982H17.6795V9.29738H17.8309V10.6624H17.6795V9.94466H16.9643V10.6624H16.8155" fill="#271D1A"/>
<path d="M11.1675 9.40434V9.83237H11.6765V9.94199H11.1675V10.6624H11.0161V9.28427H11.7104V9.40434" fill="#271D1A"/>
<path d="M10.571 9.29977H10.6832V10.7092L9.73836 9.57121L9.73577 10.6622L9.60786 10.657V9.24496L9.61571 9.25018L10.571 10.3673" fill="#271D1A"/>
<path d="M12.64 9.37528C12.3163 9.37528 12.0527 9.63628 12.0527 9.95731C12.0527 10.2784 12.3163 10.5394 12.64 10.5394C12.9636 10.5394 13.2272 10.2784 13.2272 9.95731C13.2246 9.63628 12.9636 9.37528 12.64 9.37528ZM12.64 9.25C13.0341 9.25 13.3525 9.56581 13.3525 9.95472C13.3525 10.3436 13.0341 10.6594 12.64 10.6594C12.2458 10.6594 11.9274 10.3436 11.9274 9.95472C11.9248 9.56581 12.2458 9.25 12.64 9.25Z" fill="#271D1A"/>
<path d="M16.1218 9.25C16.2784 9.25 16.422 9.29959 16.5394 9.38309V9.54753C16.4324 9.44053 16.2863 9.37528 16.1218 9.37528C15.7982 9.37528 15.5346 9.63628 15.5346 9.95731C15.5346 10.2784 15.7982 10.5394 16.1218 10.5394C16.2863 10.5394 16.4324 10.4741 16.5394 10.3671V10.5315C16.422 10.6151 16.2784 10.6647 16.1218 10.6647C15.7277 10.6647 15.4093 10.3488 15.4093 9.95994C15.4093 9.56581 15.7277 9.25 16.1218 9.25Z" fill="#271D1A"/>
</g>
<defs>
<clipPath id="clip0_3396_55213">
<rect width="19.375" height="19.375" fill="white" transform="scale(1.03226)"/>
</clipPath>
</defs>
</svg>
