<svg width="24" height="24" viewBox="0 0 24 24" fill="none" xmlns="http://www.w3.org/2000/svg">
<g clip-path="url(#clip0_3396_70719)">
<g clip-path="url(#clip1_3396_70719)">
<circle cx="12" cy="12" r="12" fill="currentColor"/>
<path d="M5.74707 5.50684H9.3623V9.06787H5.74707V5.50684Z" fill="currentColor"/>
<path d="M10.0635 5.50684H13.6787V17.6471H10.0635V5.50684Z" fill="currentColor"/>
<path d="M14.333 9.77539H17.9482V17.7035H14.333V9.77539Z" fill="currentColor"/>
<path d="M5.86328 10.9355C5.86328 10.3142 6.36696 9.81055 6.98828 9.81055H8.35352C8.97484 9.81055 9.47852 10.3142 9.47852 10.9355V16.6136C9.47852 17.235 8.97484 17.7386 8.35352 17.7386H6.98828C6.36696 17.7386 5.86328 17.235 5.86328 16.6136V10.9355Z" fill="currentColor"/>
<path d="M14.4229 7.00781C14.4229 6.23116 15.0525 5.60156 15.8291 5.60156H16.5958C17.3724 5.60156 18.002 6.23116 18.002 7.00781V7.75708C18.002 8.53373 17.3724 9.16333 16.5958 9.16333H15.8291C15.0525 9.16333 14.4229 8.53373 14.4229 7.75708V7.00781Z" fill="currentColor"/>
</g>
</g>
<defs>
<clipPath id="clip0_3396_70719">
<rect width="24" height="24" fill="currentColor"/>
</clipPath>
<clipPath id="clip1_3396_70719">
<rect width="24" height="24" fill="currentColor"/>
</clipPath>
</defs>
</svg>
