<svg width="24" height="24" viewBox="0 0 24 24" fill="none" xmlns="http://www.w3.org/2000/svg">
<g clip-path="url(#clip0_3396_60109)">
<g filter="url(#filter0_d_3396_60109)">
<g clip-path="url(#clip1_3396_60109)">
<path d="M0 12C0 5.37258 5.37258 0 12 0C18.6274 0 24 5.37258 24 12C24 18.6274 18.6274 24 12 24C5.37258 24 0 18.6274 0 12Z" fill="white"/>
<path d="M9.08701 4.89648H9.17021C9.51815 5.76788 10.0051 6.57496 10.3631 7.44134C9.18136 7.2363 7.98233 7.40113 6.79244 7.34485C6.20612 7.3187 5.62587 7.17399 5.10547 6.90061C5.63195 6.5257 6.26291 6.3458 6.8249 6.03522C7.57353 5.64527 8.38404 5.36687 9.08701 4.89648Z" fill="#DE4019"/>
<path d="M3.55078 8.95312C4.78227 9.21343 6.05738 9.2074 7.27772 9.52701C8.06793 9.69086 8.87033 10.0296 9.38361 10.6708C9.6849 11.0949 9.80154 11.6246 9.78127 12.1382C8.86324 12.5915 7.9239 13.0026 6.99369 13.4327C6.65384 13.5865 6.33127 13.8267 5.94174 13.8177C5.17993 12.1794 4.30957 10.5914 3.55078 8.95312Z" fill="#DE4019"/>
<path d="M13.8355 5.71541C13.8852 5.5375 14.0982 5.64303 14.2128 5.68121C16.2822 6.4883 18.3323 7.34462 20.4058 8.14063C20.5163 8.26929 20.3824 8.43814 20.353 8.57482C19.5314 10.5247 18.7208 12.4795 17.9408 14.4465C17.9012 14.5178 17.8545 14.5862 17.8028 14.6495C17.7166 14.3319 17.7156 13.9972 17.6162 13.6836C17.3676 12.9942 16.899 12.3559 16.2214 12.0303C15.6401 11.6785 14.9452 11.6564 14.299 11.5086C14.5161 11.1408 14.8265 10.8383 15.1278 10.5387C15.2769 10.3699 15.5184 10.396 15.7212 10.3659C15.7101 10.3146 15.6878 10.2121 15.6776 10.1598C15.3642 10.0302 15.069 9.80404 14.7241 9.78193C14.0282 9.96887 13.3506 10.2302 12.6486 10.4C12.5461 10.0724 12.4102 9.7548 12.3301 9.4201C12.7998 8.1748 13.3323 6.94962 13.8355 5.71541Z" fill="#0084C4"/>
<path d="M11.6993 13.9593C11.7744 13.7753 12.0056 13.7995 12.169 13.7824C12.6782 13.7784 13.2199 13.715 13.6916 13.9462C14.7202 14.3734 15.4404 15.3191 15.8087 16.3363C14.3946 17.8168 13.0617 19.3706 11.6526 20.8561C11.2398 20.6199 10.9314 20.2531 10.5642 19.9586C9.22112 18.7424 7.85066 17.5564 6.51367 16.3333C6.8748 15.8619 7.30492 15.4468 7.70761 15.0106C8.15296 15.4096 8.66014 15.7955 9.27184 15.885C9.84193 15.9513 10.4201 15.9363 10.9913 15.884C11.2225 15.2407 11.4335 14.5885 11.6993 13.9593Z" fill="#68B92E"/>
</g>
</g>
</g>
<defs>
<filter id="filter0_d_3396_60109" x="-6" y="-5" width="36" height="36" filterUnits="userSpaceOnUse" color-interpolation-filters="sRGB">
<feFlood flood-opacity="0" result="BackgroundImageFix"/>
<feColorMatrix in="SourceAlpha" type="matrix" values="0 0 0 0 0 0 0 0 0 0 0 0 0 0 0 0 0 0 127 0" result="hardAlpha"/>
<feOffset dy="1"/>
<feGaussianBlur stdDeviation="3"/>
<feComposite in2="hardAlpha" operator="out"/>
<feColorMatrix type="matrix" values="0 0 0 0 0 0 0 0 0 0 0 0 0 0 0 0 0 0 0.08 0"/>
<feBlend mode="normal" in2="BackgroundImageFix" result="effect1_dropShadow_3396_60109"/>
<feBlend mode="normal" in="SourceGraphic" in2="effect1_dropShadow_3396_60109" result="shape"/>
</filter>
<clipPath id="clip0_3396_60109">
<rect width="24" height="24" fill="white"/>
</clipPath>
<clipPath id="clip1_3396_60109">
<path d="M0 12C0 5.37258 5.37258 0 12 0C18.6274 0 24 5.37258 24 12C24 18.6274 18.6274 24 12 24C5.37258 24 0 18.6274 0 12Z" fill="white"/>
</clipPath>
</defs>
</svg>
