<svg width="16" height="16" viewBox="0 0 16 16" fill="none" xmlns="http://www.w3.org/2000/svg">
<g clip-path="url(#clip0_3396_62365)">
<g clip-path="url(#clip1_3396_62365)">
<circle cx="8" cy="8" r="7.75" fill="#1A0A4F"/>
<path d="M7.99745 6.48633C8.38999 6.48633 8.77372 6.60273 9.10011 6.82082C9.4265 7.03891 9.68089 7.34888 9.83112 7.71155C9.98134 8.07421 10.0206 8.47328 9.94406 8.85828C9.86748 9.24329 9.67845 9.59694 9.40088 9.87451C9.1233 10.1521 8.76965 10.3411 8.38465 10.4177C7.99965 10.4943 7.60058 10.455 7.23791 10.3047C6.87525 10.1545 6.56527 9.90014 6.34719 9.57375C6.1291 9.24736 6.0127 8.86362 6.0127 8.47108C6.0127 7.94469 6.2218 7.43986 6.59402 7.06765C6.96623 6.69544 7.47106 6.48633 7.99745 6.48633Z" fill="url(#paint0_linear_3396_62365)"/>
<path d="M11.3141 7.21192C11.2754 6.09717 10.5721 5.37017 9.43061 5.26692C8.55561 5.18767 7.92361 5.56917 7.69536 6.31417C7.64418 6.48541 7.61453 6.66235 7.60711 6.84092C7.58961 7.19467 7.57311 7.75742 7.56436 8.16842C7.49536 8.12267 7.43937 8.08542 7.38587 8.04542C7.34874 8.00416 7.30339 7.97114 7.25273 7.94846C7.20208 7.92579 7.14724 7.91396 7.09174 7.91375C7.03624 7.91354 6.98131 7.92494 6.93048 7.94723C6.87966 7.96952 6.83405 8.0022 6.79661 8.04317C6.7576 8.08434 6.72809 8.13356 6.71013 8.18736C6.69217 8.24116 6.68621 8.29823 6.69267 8.35458C6.69912 8.41093 6.71785 8.46518 6.74751 8.51353C6.77717 8.56187 6.81705 8.60314 6.86436 8.63442C7.17311 8.91342 7.42986 9.14241 7.67261 9.35441C7.94186 9.59041 8.13661 9.49717 8.22886 9.41892C8.60536 9.10292 8.92311 8.81417 9.20136 8.53592C9.24478 8.46916 9.26957 8.39201 9.27317 8.31246C9.27678 8.23291 9.25906 8.15383 9.22186 8.08342C9.20055 8.04265 9.17101 8.00674 9.13513 7.97796C9.09924 7.94917 9.05778 7.92813 9.01336 7.91617C8.9613 7.90417 8.90731 7.90303 8.85479 7.91284C8.80227 7.92265 8.75233 7.94319 8.70811 7.97317L8.70211 7.97717L8.39786 8.19842L8.39561 8.12342C8.37351 7.70192 8.37719 7.27947 8.40661 6.85842C8.41636 6.76317 8.43161 6.66617 8.44886 6.57067C8.45883 6.51824 8.47486 6.46715 8.49661 6.41842C8.54218 6.32021 8.61419 6.23662 8.70457 6.17702C8.79495 6.11741 8.90014 6.08413 9.00836 6.08092C9.2208 6.0604 9.43511 6.07195 9.64411 6.11516C9.87718 6.14358 10.0926 6.25388 10.2519 6.42637C10.4112 6.59886 10.504 6.82233 10.5139 7.05692C10.5504 8.19492 10.5501 9.20692 10.5139 10.1527C10.5163 10.2835 10.4916 10.4134 10.4413 10.5342C10.391 10.655 10.3162 10.7641 10.2216 10.8545C10.127 10.9449 10.0147 11.0147 9.89178 11.0596C9.76884 11.1044 9.63795 11.1232 9.50736 11.1149C8.54411 11.1434 7.53236 11.1434 6.49886 11.1167C6.36841 11.1261 6.23742 11.1084 6.11416 11.0646C5.9909 11.0209 5.87806 10.952 5.78277 10.8625C5.68748 10.7729 5.6118 10.6645 5.56053 10.5442C5.50925 10.4239 5.48349 10.2942 5.48486 10.1634C5.44261 9.14917 5.44211 8.09317 5.48486 7.02442C5.50586 6.48567 5.86786 6.14267 6.47786 6.08267C6.52586 6.07817 6.57411 6.07617 6.62511 6.07417C6.69767 6.07246 6.7701 6.06704 6.84211 6.05792C6.85586 6.05592 6.87061 6.05367 6.88386 6.05067C6.89483 6.05031 6.90569 6.04838 6.91611 6.04492L6.93511 6.03842C6.9719 6.02829 7.00744 6.01411 7.04111 5.99617C7.27947 5.89199 7.47683 5.71212 7.60261 5.48442C7.71678 5.26235 7.76174 5.01115 7.73165 4.76327C7.70157 4.51539 7.59784 4.28223 7.43386 4.09392C7.41461 4.07078 7.38701 4.05617 7.35705 4.05327C7.32709 4.05036 7.29719 4.05941 7.27386 4.07842L6.69612 4.55517C6.6736 4.57396 6.65917 4.60069 6.65582 4.62982C6.65247 4.65895 6.66045 4.68826 6.67811 4.71167C6.71441 4.75836 6.7396 4.8127 6.75177 4.87057C6.76394 4.92844 6.76277 4.98832 6.74836 5.04567C6.72519 5.10196 6.68756 5.15112 6.63926 5.18818C6.59097 5.22523 6.53373 5.24886 6.47336 5.25667C6.44336 5.2585 6.41361 5.261 6.38411 5.26417C6.37925 5.26448 6.37441 5.26507 6.36962 5.26592C5.92514 5.30033 5.50897 5.4975 5.20083 5.81967C4.89269 6.14184 4.71422 6.56635 4.69961 7.01192C4.64961 8.01817 4.64961 9.08066 4.69961 10.1702C4.69606 10.3968 4.73767 10.6219 4.82201 10.8323C4.90635 11.0427 5.03174 11.2342 5.19086 11.3957C5.34998 11.5571 5.53964 11.6853 5.7488 11.7727C5.95796 11.8601 6.18243 11.9049 6.40911 11.9047C6.94961 11.9332 7.48411 11.9477 8.00711 11.9477C8.53961 11.9477 9.06311 11.9329 9.57061 11.9034C10.6304 11.8417 11.2641 11.1837 11.3086 10.0979C11.3446 9.13766 11.3476 8.16617 11.3141 7.21192Z" fill="white"/>
</g>
</g>
<defs>
<linearGradient id="paint0_linear_3396_62365" x1="7.99745" y1="6.48633" x2="7.99745" y2="10.4558" gradientUnits="userSpaceOnUse">
<stop stop-color="#A841FF"/>
<stop offset="1" stop-color="#36A2FF"/>
</linearGradient>
<clipPath id="clip0_3396_62365">
<rect width="16" height="16" fill="white"/>
</clipPath>
<clipPath id="clip1_3396_62365">
<rect width="16" height="16" fill="white"/>
</clipPath>
</defs>
</svg>
