<svg width="20" height="20" viewBox="0 0 20 20" fill="none" xmlns="http://www.w3.org/2000/svg">
<g clip-path="url(#clip0_3396_55426)">
<path d="M20 10C20 4.47715 15.5228 0 10 0C4.47715 0 0 4.47715 0 10C0 15.5228 4.47715 20 10 20C15.5228 20 20 15.5228 20 10Z" fill="white"/>
<path d="M5.48982 11.4946C5.39819 11.4565 5.29969 11.4375 5.19941 11.4375C5.00069 11.4375 4.80004 11.5619 4.80004 11.7815C4.80004 12.1168 5.2115 12.0736 5.2115 12.3191C5.2115 12.4193 5.13375 12.5334 4.9505 12.5334C4.86582 12.5334 4.76732 12.5022 4.69644 12.4574L4.64113 12.6163C4.73791 12.6543 4.83825 12.6854 4.97829 12.6854C5.26863 12.6854 5.39475 12.4797 5.39475 12.2982C5.39475 11.9819 4.98335 11.9802 4.98335 11.778C4.98335 11.6345 5.10785 11.5895 5.22188 11.5895C5.31357 11.5895 5.38438 11.6137 5.44135 11.6483" fill="black"/>
<path d="M6.55745 11.4584H5.63274L5.5998 11.6104H5.97499L5.74855 12.6648H5.92302L6.14958 11.6104H6.52461" fill="black"/>
<path d="M6.46774 12.6649H7.1488L7.18165 12.5128H6.67512L6.7633 12.1154H7.21615L7.24559 11.963H6.7979L6.87562 11.6105H7.35274L7.3873 11.4584H6.73224" fill="black"/>
<path d="M7.42036 12.6649H8.10127L8.13421 12.5128H7.62774L7.71586 12.1154H8.16877L8.19814 11.963H7.75046L7.82827 11.6105H8.3053L8.33986 11.4584H7.6848" fill="black"/>
<path d="M8.36694 12.6649H9.04456L9.07562 12.5128H8.57431L8.80253 11.4584H8.62794" fill="black"/>
<path d="M10.0203 11.9389C9.97882 11.8802 9.93901 11.8197 9.93901 11.7436C9.93901 11.633 10.0219 11.569 10.1188 11.569C10.2087 11.569 10.2848 11.6123 10.2848 11.716C10.2848 11.8438 10.1223 11.9113 10.0203 11.9389ZM10.1741 12.4542C10.0893 12.5283 9.99254 12.5544 9.92691 12.5544C9.80241 12.5544 9.69697 12.4731 9.69697 12.3383C9.69697 12.1948 9.83007 12.1308 9.94416 12.1015L10.1741 12.4542ZM10.0963 12.0513C10.2606 11.9891 10.4369 11.9061 10.4369 11.7039C10.4369 11.5138 10.2796 11.4378 10.1119 11.4378C9.95291 11.4378 9.77666 11.5466 9.77666 11.7247C9.77666 11.8249 9.80938 11.9062 9.86994 11.9857C9.69369 12.0254 9.52419 12.1447 9.52419 12.3469C9.52419 12.5648 9.68154 12.6858 9.93572 12.6858C10.0515 12.6858 10.1724 12.6407 10.2537 12.5733L10.3125 12.665H10.5042L10.3729 12.4628C10.5042 12.34 10.5596 12.1776 10.5872 12.0116H10.4334C10.4092 12.1258 10.3728 12.2433 10.2882 12.3367L10.0963 12.0513Z" fill="black"/>
<path d="M11.588 11.6105H11.6778C11.823 11.6105 11.9509 11.6313 11.9509 11.7989C11.9509 11.9942 11.7659 12.0305 11.588 12.0305H11.4963M11.1835 12.6649H11.3563L11.4617 12.1826H11.6346C11.9595 12.1826 12.134 12.0115 12.134 11.773C12.134 11.5327 11.9267 11.4584 11.7468 11.4584H11.446L11.1835 12.6649Z" fill="black"/>
<path d="M12.3817 12.1792C12.3817 11.8716 12.5788 11.5898 12.8744 11.5898C13.0818 11.5898 13.1856 11.7194 13.1856 11.9511C13.1856 12.2138 13.0093 12.5336 12.7119 12.5336C12.4942 12.5336 12.3817 12.3936 12.3817 12.1792ZM12.1986 12.1741C12.1986 12.5077 12.3732 12.6858 12.705 12.6858C13.1423 12.6858 13.3687 12.3089 13.3687 11.9269C13.3687 11.6193 13.1873 11.4378 12.8796 11.4378C12.4371 11.4377 12.1986 11.832 12.1986 12.1741Z" fill="black"/>
<path d="M13.6549 12.6649H13.8831L14.3636 11.6208H14.367L14.393 12.6649H14.6184L15.2494 11.4584H15.0643L14.5424 12.492H14.5389L14.5077 11.4584H14.2789L13.7983 12.4904H13.7949L13.7293 11.4584H13.5565" fill="black"/>
<path d="M15.1573 12.6649H15.8383L15.8712 12.5128H15.3647L15.4528 12.1154H15.9057L15.9351 11.963H15.4874L15.5651 11.6105H16.0423L16.0768 11.4584H15.4217" fill="black"/>
<path d="M16.5084 11.6098H16.6692C16.8023 11.6098 16.873 11.6496 16.873 11.7758C16.873 11.9365 16.69 11.9764 16.5673 11.9764H16.4306M16.1109 12.6642H16.2837L16.396 12.1284H16.55C16.6398 12.1284 16.6692 12.1543 16.7141 12.348L16.7869 12.6641H16.97L16.9043 12.4101C16.8801 12.3168 16.8541 12.1352 16.7626 12.0782C16.9234 12.054 17.0564 11.9175 17.0564 11.7516C17.0564 11.4577 16.7747 11.4577 16.6053 11.4577H16.3684L16.1109 12.6642Z" fill="black"/>
<path d="M12.1135 8.73837C11.8297 9.47668 12.286 9.13677 13.717 8.27896C15.3532 7.29815 17.0276 6.80127 17.5274 8.09008C16.5754 7.58865 15.2234 8.32218 13.2935 9.60134C11.8974 10.5266 11.3621 10.6652 11.5096 10.121C11.5934 9.81146 11.6654 9.59952 11.7335 9.40784C11.7298 9.41874 11.7376 9.39633 11.734 9.40746C11.9274 9.05777 12.0002 8.94983 12.1135 8.73837Z" fill="#4FA941"/>
<path d="M11.0075 7.7722C11.2475 7.69429 11.5677 7.62038 11.8821 7.55038C12.7636 7.35413 12.4606 8.03391 12.1084 8.75351C11.9993 8.97635 11.927 9.05788 11.7336 9.40766C11.871 8.97866 12.0347 8.73663 11.7143 8.78882C11.3843 8.8426 11.0275 8.94654 10.7409 9.03595" fill="#F47920"/>
<path d="M4.96069 11.0034L5.2759 9.50605H5.67997L6.30375 10.3156H6.31428L6.48609 9.50605H6.93275L6.617 11.0034H6.19622L5.58034 10.2167H5.57372L5.40719 11.0034" fill="#58595B"/>
<path d="M7.6509 9.84158L7.47643 10.6678H7.55783C7.90165 10.6615 8.05018 10.5669 8.11433 10.2616C8.1813 9.94239 8.03883 9.84158 7.73065 9.84158M6.89315 11.0034L7.20715 9.50605H7.99752C8.48743 9.50605 8.74168 9.81214 8.64011 10.2938C8.52474 10.841 8.12708 11.0034 7.58324 11.0034H6.89315Z" fill="#58595B"/>
<path d="M8.41331 11.0034L9.41574 9.50605H9.96874L10.2394 11.0026L9.67062 11.0034L9.53949 10.0908L9.53434 10.0891L8.96831 11.0034" fill="#58595B"/>
<path d="M10.3236 11.0034L10.6398 9.50605H11.1531L10.9078 10.6679H11.5109L11.4397 11.0034" fill="#58595B"/>
<path d="M4.17339 11.0034L4.48948 9.50605H5.00251L4.68648 11.0034" fill="#58595B"/>
<path d="M8.41331 11.0034L9.41574 9.50605H9.96874L10.2394 11.0026L9.67062 11.0034L9.53949 10.0908L9.53434 10.0891L8.96831 11.0034" fill="#58595B"/>
<path d="M2.59088 10.8808C3.33422 11.0408 3.38888 10.6312 3.43653 10.4336C3.4846 10.2345 3.71566 9.13508 3.71566 9.13508H4.29394C4.29394 9.13508 4.14035 9.86199 4.00138 10.5214C3.90003 10.9813 3.55041 11.3261 2.92812 11.2816C2.74583 11.2684 2.59432 11.2063 2.52121 11.152L2.47379 11.1179L2.54712 10.8705C2.5528 10.8722 2.57983 10.8784 2.59088 10.8808Z" fill="#58595B"/>
</g>
<defs>
<clipPath id="clip0_3396_55426">
<rect width="19.375" height="19.375" fill="white" transform="scale(1.03226)"/>
</clipPath>
</defs>
</svg>
