<svg width="24" height="24" viewBox="0 0 24 24" fill="none" xmlns="http://www.w3.org/2000/svg">
<g clip-path="url(#clip0_3396_49962)">
<g clip-path="url(#clip1_3396_49962)">
<circle cx="12" cy="12" r="11.625" fill="currentColor"/>
<path d="M9.47319 7.93945C9.59282 6.16066 10.9535 5.38431 11.9679 5.35859C13.4602 5.32031 14.4327 6.22047 14.7294 7.93945H16.6326C17.2905 7.93945 17.5674 8.22116 17.5106 8.88148C17.3252 11.055 17.1284 13.2274 16.937 15.4009C16.9077 15.7382 16.8832 16.0762 16.8557 16.4135C16.8204 16.8555 16.5435 17.1378 16.1009 17.1384C13.3691 17.1436 10.6377 17.1436 7.90674 17.1384C7.47071 17.1384 7.19618 16.8758 7.1585 16.4464C6.95913 14.1736 6.75976 11.9007 6.56039 9.62792C6.53646 9.3498 6.51314 9.07227 6.48742 8.79415C6.44017 8.28277 6.73085 7.94483 7.24403 7.93945C7.9821 7.93586 8.71957 7.93945 9.47319 7.93945ZM14.0362 14.2759C14.9017 14.2788 15.4776 13.7322 15.4764 12.9092C15.4764 12.0981 14.9029 11.5449 14.0637 11.5425C13.2084 11.5425 12.6181 12.1029 12.6229 12.9151C12.6276 13.7274 13.1863 14.2699 14.0362 14.2759ZM8.80809 13.091C8.60294 13.1837 8.47255 13.3853 8.5222 13.6024C8.56586 13.792 8.70163 14.0528 8.85953 14.1042C9.20436 14.2208 9.56866 14.269 9.93195 14.2459C10.5342 14.1981 10.8859 13.8602 10.9392 13.2543C10.999 12.5635 10.9858 11.8643 10.9715 11.1699C10.9715 11.0502 10.8231 10.8499 10.7107 10.8229C10.2585 10.7135 9.90922 10.7733 9.92297 11.3696C9.93434 11.8762 9.93075 12.3864 9.92297 12.8912C9.9152 13.2949 9.67536 13.4738 9.29137 13.3518C9.12449 13.2967 8.97975 13.1837 8.80809 13.088V13.091ZM13.5296 7.92629C13.4835 7.05843 12.8304 6.41905 12.0517 6.45075C11.6729 6.46763 11.3154 6.6309 11.0547 6.90616C10.7939 7.18141 10.6502 7.54715 10.6539 7.92629H13.5296ZM11.3513 12.8942C11.3513 13.1933 11.3429 13.4923 11.3513 13.7914C11.3596 14.0904 11.4936 14.2101 11.801 14.2232C12.1599 14.2358 12.3334 14.1347 12.3441 13.8255C12.3653 13.2098 12.3653 12.594 12.3441 11.9779C12.334 11.6627 12.1779 11.5682 11.8058 11.5784C11.4972 11.5861 11.3614 11.7034 11.3495 12.003C11.3375 12.3027 11.3513 12.5958 11.3513 12.8942ZM11.868 11.2984C12.2006 11.2949 12.3872 11.122 12.3842 10.82C12.3812 10.5179 12.185 10.3546 11.8525 10.3522C11.5331 10.3522 11.3142 10.5382 11.3112 10.82C11.3064 11.1148 11.5241 11.302 11.8674 11.2984H11.868Z" fill="currentColor"/>
<path d="M14.0364 14.2759C13.1865 14.2729 12.6279 13.7376 12.6231 12.9152C12.6183 12.0928 13.2086 11.5395 14.0639 11.5425C14.9013 11.5425 15.4755 12.0981 15.4767 12.9092C15.4785 13.7292 14.9019 14.2759 14.0364 14.2759ZM14.607 12.9086C14.607 12.5629 14.3678 12.3105 14.043 12.3105C13.729 12.3141 13.4987 12.5569 13.4933 12.8888C13.4879 13.2447 13.7098 13.4917 14.0394 13.4965C14.369 13.5013 14.6064 13.2507 14.607 12.9056V12.9086Z" fill="currentColor"/>
<path d="M8.80831 13.0881C8.97997 13.1838 9.12471 13.2968 9.2868 13.3489C9.67078 13.4685 9.91063 13.2921 9.9184 12.8883C9.92857 12.3811 9.93216 11.8715 9.9184 11.3667C9.90465 10.7686 10.2539 10.7088 10.7061 10.8201C10.8186 10.847 10.9645 11.045 10.9669 11.167C10.9812 11.8614 10.995 12.5606 10.9346 13.2514C10.8814 13.8573 10.5297 14.1952 9.92738 14.2431C9.56408 14.2661 9.19979 14.2179 8.85496 14.1013C8.69945 14.0499 8.56129 13.7891 8.51762 13.5995C8.47277 13.3824 8.60315 13.1808 8.80831 13.0881Z" fill="currentColor"/>
<path d="M13.5291 7.92345H10.6534C10.6498 7.54431 10.7935 7.17857 11.0542 6.90332C11.315 6.62806 11.6724 6.46479 12.0512 6.44791C12.8299 6.41621 13.4831 7.05559 13.5291 7.92345Z" fill="currentColor"/>
<path d="M11.3516 12.8943C11.3516 12.5952 11.3427 12.2962 11.3516 12.0001C11.3606 11.704 11.4994 11.5814 11.808 11.5754C12.1788 11.5653 12.3349 11.6598 12.3463 11.975C12.3662 12.5906 12.3662 13.2065 12.3463 13.8225C12.3355 14.1318 12.1669 14.2328 11.8032 14.2203C11.4958 14.2095 11.3642 14.0923 11.3534 13.7885C11.3427 13.4846 11.3516 13.1921 11.3516 12.8943Z" fill="currentColor"/>
<path d="M11.8674 11.2983C11.5241 11.3019 11.3064 11.1147 11.3106 10.8198C11.3148 10.5381 11.5325 10.3497 11.8519 10.3521C12.1844 10.3521 12.3806 10.5267 12.3836 10.8198C12.3866 11.1129 12.2 11.2947 11.8674 11.2983Z" fill="currentColor"/>
<path d="M14.6069 12.9053C14.6069 13.2505 14.3677 13.4999 14.0393 13.4957C13.711 13.4915 13.4879 13.2439 13.4933 12.888C13.4986 12.556 13.7289 12.3132 14.0429 12.3096C14.3665 12.3054 14.6069 12.5596 14.6069 12.9053Z" fill="currentColor"/>
</g>
</g>
<defs>
<clipPath id="clip0_3396_49962">
<rect width="24" height="24" fill="currentColor"/>
</clipPath>
<clipPath id="clip1_3396_49962">
<rect width="24" height="24" fill="currentColor"/>
</clipPath>
</defs>
</svg>
