<svg width="340" height="48" viewBox="0 0 340 48" fill="none" xmlns="http://www.w3.org/2000/svg">
<g clip-path="url(#clip0_3396_56962)">
<path d="M75.0524 27.0862C75.0524 29.2038 74.6289 30.7568 73.4995 31.745C72.3701 32.8744 70.9583 33.4391 68.8407 33.4391C67.5701 33.4391 66.4407 33.1568 65.4524 32.7332C64.6054 32.3097 63.7583 31.4627 63.3348 30.7568C62.9113 29.9097 62.6289 28.9215 62.6289 27.6509V27.2274H66.4407C66.4407 28.0744 66.5818 28.9215 67.0054 29.345C67.2877 29.7685 67.8524 29.9097 68.6995 29.9097C69.2642 29.9097 69.8289 29.7685 70.1113 29.4862C70.3936 29.2038 70.5348 28.9215 70.676 28.6391C70.8171 28.2156 70.8171 27.7921 70.8171 27.2274V14.5215H75.0524V27.0862Z" fill="currentColor"/>
<path d="M81.5458 15.9326C81.4047 16.215 81.1223 16.4973 80.84 16.6385C80.5576 16.7797 80.1341 16.9208 79.5694 16.9208C79.0047 16.9208 78.8635 16.7797 78.2988 16.6385C78.0164 16.4973 77.7341 16.215 77.5929 15.9326C77.4517 15.6503 77.3105 15.2267 77.3105 14.8032C77.3105 14.3797 77.4517 14.0973 77.5929 13.6738C77.7341 13.3914 78.0164 13.1091 78.2988 12.9679C78.7223 12.8267 79.1458 12.6855 79.5694 12.6855C79.9929 12.6855 80.2753 12.8267 80.84 12.9679C81.1223 13.1091 81.4047 13.3914 81.5458 13.6738C81.687 13.9561 81.8282 14.3797 81.8282 14.8032C81.8282 15.3679 81.687 15.6503 81.5458 15.9326ZM81.5458 19.0385V32.8738H77.7341V19.0385H81.5458Z" fill="currentColor"/>
<path d="M96.5097 29.7676C95.945 30.897 95.0979 31.7441 94.1097 32.3088C92.9803 32.8735 91.8509 33.1559 90.4391 33.1559C89.0274 33.1559 87.898 32.8735 86.7685 32.3088C85.6391 31.7441 84.9332 30.7559 84.3685 29.7676C83.8038 28.6382 83.5215 27.3676 83.5215 25.9559C83.5215 24.4029 83.8038 23.2735 84.3685 22.1441C84.9332 21.0147 85.7803 20.1676 86.7685 19.6029C87.898 19.0382 89.0274 18.7559 90.4391 18.7559C91.8509 18.7559 92.9803 19.0382 94.1097 19.6029C95.2391 20.1676 95.945 21.1559 96.5097 22.1441C97.0744 23.2735 97.3568 24.5441 97.3568 25.9559C97.3568 27.3676 97.0744 28.7794 96.5097 29.7676ZM92.8391 29.2029C93.4038 28.497 93.545 27.3676 93.545 25.9559C93.545 24.6853 93.2627 23.697 92.8391 22.7088C92.4156 22.0029 91.4274 21.4382 90.4391 21.4382C89.3097 21.4382 88.6038 21.8617 88.1803 22.7088C87.6156 23.4147 87.4744 24.5441 87.4744 26.097C87.4744 27.5088 87.7568 28.497 88.1803 29.3441C88.745 30.05 89.5921 30.6147 90.5803 30.6147C91.5685 30.6147 92.2744 29.9088 92.8391 29.2029Z" fill="currentColor"/>
<path d="M116.981 14.9442C117.829 15.3677 118.676 16.2148 119.099 17.0618C119.523 17.9089 119.805 19.0383 119.805 20.1677C119.805 21.4383 119.523 22.2853 119.099 23.2736C118.676 24.1206 117.829 24.9677 116.981 25.3912C116.134 25.8148 114.864 26.0971 113.452 26.0971H109.217V32.5912H104.981V14.2383H113.593C114.864 14.2383 115.993 14.5206 116.981 14.9442ZM115.005 22.2853C115.57 21.8618 115.852 21.1559 115.852 20.1677C115.852 19.3206 115.57 18.6148 115.146 18.1912C114.581 17.7677 113.734 17.6265 112.605 17.6265H109.358V22.9912H112.605C113.452 22.9912 114.299 22.85 115.005 22.2853Z" fill="currentColor"/>
<path d="M128.98 23.6981C128.98 22.8511 128.839 22.1452 128.557 21.7217C128.274 21.2981 127.709 21.157 126.721 21.157C126.015 21.157 125.309 21.2981 125.027 21.5805C124.604 21.8628 124.462 22.2864 124.321 22.8511H120.509C120.509 21.4393 121.074 20.4511 122.345 19.604C123.474 18.8981 125.027 18.4746 126.862 18.4746C128.98 18.4746 130.392 18.8981 131.38 19.8864C132.227 20.7334 132.792 22.1452 132.792 23.9805V32.8746H129.262L129.121 31.0393C128.839 31.604 128.415 32.3099 127.568 32.5923C126.862 33.0158 125.874 33.157 124.886 33.157C124.039 33.157 123.051 33.0158 122.345 32.7334C121.639 32.4511 121.074 31.8864 120.651 31.1805C120.227 30.6158 120.086 29.6275 120.086 28.7805C120.086 27.2275 120.651 26.0981 121.921 25.2511C123.192 24.5452 124.886 24.1217 127.145 24.1217H129.121V23.6981H128.98ZM127.427 26.6628C126.157 26.6628 125.309 26.804 124.745 27.0864C124.18 27.3687 123.898 27.7923 123.898 28.6393C123.898 29.204 124.039 29.7687 124.462 30.0511C124.886 30.3334 125.309 30.4746 126.015 30.4746C126.721 30.4746 127.145 30.3334 127.568 30.1923C127.992 29.9099 128.274 29.6276 128.698 29.0628C128.98 28.6393 128.98 28.2158 128.98 27.3687V26.5217H127.568V26.6628H127.427Z" fill="currentColor"/>
<path d="M140.558 28.4979L143.523 19.0391H147.476L142.817 32.4508C142.252 34.0038 141.547 35.1332 140.841 36.1214C140.135 36.8273 139.147 37.5332 138.299 37.8155C137.452 38.0979 136.323 38.2391 135.194 38.2391V34.992C136.041 34.992 136.888 34.8508 137.452 34.5685C138.017 34.2861 138.582 33.8626 138.723 33.0155L133.641 19.1802H137.594L140.558 28.4979Z" fill="currentColor"/>
<path d="M161.734 19.1799C162.44 18.7564 163.287 18.6152 164.134 18.6152C165.687 18.6152 166.816 19.0388 167.663 20.027C168.369 20.8741 168.934 22.1446 168.934 23.6976V33.0152H165.122V25.3917C165.122 24.1211 164.981 23.1329 164.558 22.7094C164.275 22.1446 163.711 22.0035 162.863 22.0035C162.016 22.0035 161.452 22.2858 161.028 22.8505C160.605 23.4152 160.463 24.4035 160.463 25.5329V33.1564H156.652V25.3917C156.652 24.1211 156.511 23.1329 156.087 22.7094C155.805 22.1446 155.24 22.0035 154.393 22.0035C153.546 22.0035 152.981 22.2858 152.558 22.8505C152.134 23.4152 151.993 24.4035 151.993 25.5329V33.1564H148.322V19.3211H151.993V20.8741C153.122 19.3211 154.393 18.6152 156.087 18.6152C156.934 18.6152 157.922 18.7564 158.487 19.1799C159.052 19.6035 159.758 20.027 160.04 20.8741C160.463 20.1682 161.028 19.6035 161.734 19.1799Z" fill="currentColor"/>
<path d="M184.18 26.9435H174.439C174.439 28.2141 174.722 29.0612 175.286 29.4847C175.851 30.0494 176.698 30.3318 177.686 30.3318C178.392 30.3318 179.098 30.1906 179.522 29.9082C179.945 29.6259 180.228 29.3435 180.369 28.7788H183.757C183.475 30.1906 182.627 31.32 181.639 32.1671C180.51 32.873 179.239 33.2965 177.545 33.2965C176.133 33.2965 174.863 33.0141 173.733 32.4494C172.604 31.8847 171.898 30.8965 171.333 29.9082C170.769 28.92 170.486 27.5082 170.486 26.0965C170.486 24.6847 170.769 23.5553 171.333 22.2847C171.898 21.1553 172.745 20.3082 173.733 19.7435C174.863 19.1788 175.992 18.8965 177.404 18.8965C178.816 18.8965 179.945 19.1788 181.075 19.7435C182.204 20.3082 182.769 21.2965 183.333 22.4259C183.757 23.6965 184.039 24.8259 184.039 26.3788L184.18 26.9435ZM180.369 24.4024C180.228 22.4259 179.098 21.4377 177.404 21.4377C176.557 21.4377 175.851 21.72 175.286 22.1435C174.863 22.5671 174.439 23.4141 174.439 24.2612H180.369V24.4024Z" fill="currentColor"/>
<path d="M198.58 32.873H194.769V25.2494C194.769 23.9788 194.627 22.9906 194.204 22.5671C193.78 22.0024 193.074 21.8612 192.369 21.8612C191.522 21.8612 190.816 22.1435 190.392 22.7083C189.969 23.273 189.827 24.2612 189.827 25.3906V33.0141H186.016V19.1788H189.686V21.1553C190.11 20.4494 190.816 19.8847 191.521 19.4612C192.227 19.0377 193.074 18.8965 193.78 18.8965C195.474 18.8965 196.745 19.32 197.592 20.3082C198.298 21.1553 198.863 22.5671 198.863 24.5435V32.873H198.58Z" fill="currentColor"/>
<path d="M205.64 19.0386H208.323V21.5798H205.64V27.6503C205.64 28.2151 205.64 28.9209 205.782 29.2033C205.923 29.4856 206.064 29.768 206.346 29.9092C206.629 30.0503 206.911 30.0503 207.476 30.0503C207.758 30.0503 208.182 30.0503 208.605 29.9092V32.8739C208.182 33.0151 207.476 33.1562 206.77 33.1562C205.217 33.1562 204.087 32.7327 203.24 31.8856C202.534 31.1798 201.97 29.9092 201.97 28.0739V21.2974H199.711V18.7562H201.97V14.6621H205.782V18.8974H205.64V19.0386Z" fill="currentColor"/>
<path d="M217.499 22.7085C217.499 22.1438 217.217 21.8614 216.935 21.4379C216.511 21.1556 216.088 21.1556 215.241 21.1556C214.535 21.1556 213.97 21.2967 213.688 21.4379C213.405 21.5791 213.264 22.0026 213.264 22.285C213.264 22.5673 213.405 22.8497 213.546 22.9909C213.688 23.132 213.97 23.4144 214.393 23.4144C214.817 23.5556 215.241 23.6967 215.946 23.8379L217.499 24.1203C218.911 24.4026 219.899 24.8261 220.746 25.6732C221.311 26.2379 221.876 27.2261 221.876 28.2144C221.876 29.3438 221.593 30.1909 221.029 30.7556C220.464 31.4614 219.617 32.0261 218.77 32.3085C217.923 32.5909 216.793 32.732 215.523 32.732C214.252 32.732 213.264 32.5909 212.135 32.3085C211.288 32.0261 210.441 31.4614 209.876 30.7556C209.311 30.1909 209.17 29.2026 209.17 28.3556H212.841C212.841 28.9203 213.123 29.485 213.546 29.9085C213.97 30.1909 214.817 30.332 215.523 30.332C216.088 30.332 216.793 30.1909 217.217 29.9085C217.641 29.6261 217.782 29.3438 217.782 28.6379C217.782 28.2144 217.641 27.7909 217.217 27.3673C216.793 27.085 216.088 26.8026 215.241 26.6614L213.688 26.3791C212.558 26.0967 211.852 25.9556 211.288 25.532C210.723 25.2497 210.158 24.8261 209.876 24.2614C209.593 23.6967 209.452 23.132 209.452 22.4261C209.452 21.5791 209.735 20.732 210.158 20.1673C210.582 19.6026 211.429 19.0379 212.276 18.7556C213.123 18.4732 214.252 18.332 215.523 18.332C217.358 18.332 218.77 18.6144 219.758 19.4614C220.888 20.1673 221.311 21.1556 221.452 22.5673H217.499V22.7085Z" fill="currentColor"/>
<path d="M243.475 18.8971C243.475 19.7442 243.334 20.5912 242.911 21.1559C242.487 21.7206 241.781 22.4265 241.075 22.7089C242.205 22.9912 243.052 23.5559 243.616 24.403C244.181 25.1089 244.464 26.2383 244.464 27.5089C244.464 28.7795 244.181 29.6265 243.616 30.6148C243.052 31.3206 242.205 32.0265 241.216 32.45C240.087 32.8736 239.099 33.0148 237.969 33.0148H228.793V14.2383H237.828C241.64 14.2383 243.475 15.7912 243.475 18.8971ZM238.816 21.2971C239.24 21.0148 239.381 20.45 239.381 19.603C239.381 18.1912 238.534 17.6265 236.699 17.6265H232.887V21.8618H236.981C237.828 21.8618 238.534 21.5795 238.816 21.2971ZM239.522 29.0618C239.946 28.6383 240.228 28.2148 240.228 27.2265C240.228 26.3795 239.946 25.6736 239.522 25.25C239.099 24.8265 238.252 24.6853 237.405 24.6853H233.028V29.6265H237.264C238.252 29.6265 238.958 29.3442 239.522 29.0618Z" fill="currentColor"/>
<path d="M254.628 23.6981C254.628 22.8511 254.487 22.1452 254.205 21.7217C253.923 21.2981 253.358 21.157 252.37 21.157C251.664 21.157 250.958 21.2981 250.676 21.5805C250.252 21.8628 250.111 22.2864 249.97 22.8511H246.158C246.158 21.4393 246.723 20.4511 247.993 19.604C249.123 18.8981 250.676 18.4746 252.511 18.4746C254.628 18.4746 256.04 18.8981 257.028 19.8864C257.876 20.7334 258.44 22.1452 258.44 23.9805V32.8746H254.911L254.77 31.0393C254.487 31.604 254.064 32.3099 253.217 32.5923C252.511 33.0158 251.523 33.157 250.534 33.157C249.687 33.157 248.699 33.0158 247.993 32.7334C247.287 32.4511 246.723 31.8864 246.299 31.1805C245.876 30.6158 245.734 29.6275 245.734 28.7805C245.734 27.2275 246.299 26.0981 247.57 25.2511C248.84 24.5452 250.534 24.1217 252.793 24.1217H254.911V23.6981H254.628ZM253.076 26.6628C251.805 26.6628 250.958 26.804 250.393 27.0864C249.828 27.3687 249.546 27.7923 249.546 28.6393C249.546 29.204 249.687 29.7687 250.111 30.0511C250.534 30.3334 250.958 30.4746 251.664 30.4746C252.228 30.4746 252.793 30.3334 253.217 30.1923C253.64 29.9099 253.923 29.6276 254.346 29.0628C254.628 28.6393 254.628 28.2158 254.628 27.3687V26.5217H253.217V26.6628H253.076Z" fill="currentColor"/>
<path d="M273.545 32.873H269.733V25.2494C269.733 23.9788 269.592 22.9906 269.169 22.5671C268.745 22.0024 268.039 21.8612 267.333 21.8612C266.486 21.8612 265.78 22.1435 265.357 22.7083C264.933 23.273 264.792 24.2612 264.792 25.3906V33.0141H260.98V19.1788H264.651V21.1553C265.075 20.4494 265.78 19.8847 266.486 19.4612C267.192 19.0377 268.039 18.8965 268.745 18.8965C270.439 18.8965 271.71 19.32 272.557 20.3082C273.263 21.1553 273.828 22.5671 273.828 24.5435V32.873H273.545Z" fill="currentColor"/>
<path d="M279.898 23.9797L284.416 18.8974H288.792L283.004 24.8268C283.428 24.9679 284.134 25.1091 284.557 25.5327C284.981 25.9562 285.686 26.8032 286.392 27.7915C287.098 28.9209 288.228 30.4738 289.498 32.7327H284.981C284.134 30.8974 283.286 29.6268 282.863 29.0621C282.439 28.4974 282.157 27.9327 281.734 27.6503C281.451 27.3679 281.169 27.2268 280.604 27.2268L279.757 28.0738V32.5915H275.945V13.6738H279.757V23.9797H279.898Z" fill="currentColor"/>
<path d="M300.087 14.2383V29.3442H309.122V33.0148H295.852V14.2383H300.087Z" fill="currentColor"/>
<path d="M315.334 19.0386H318.016V21.5798H315.334V27.6503C315.334 28.2151 315.334 28.9209 315.475 29.2033C315.616 29.4856 315.757 29.768 316.04 29.9092C316.322 30.0503 316.604 30.0503 317.169 30.0503C317.451 30.0503 317.875 30.0503 318.298 29.9092V32.8739C317.875 33.0151 317.169 33.1562 316.463 33.1562C314.91 33.1562 313.781 32.7327 312.934 31.8856C312.228 31.1798 311.663 29.9092 311.663 28.0739V21.2974H309.404V18.7562H311.663V14.6621H315.475V18.8974H315.334V19.0386Z" fill="currentColor"/>
<path d="M332.415 32.8738H328.745V31.0385C328.321 31.7444 327.898 32.3091 327.051 32.7327C326.345 33.015 325.498 33.2974 324.651 33.2974C323.38 33.2974 322.251 33.015 321.262 32.1679C320.415 31.6032 319.709 30.615 319.286 29.4856C318.862 28.3562 318.58 27.0856 318.58 25.6738C318.58 24.2621 318.862 23.1327 319.286 22.0032C319.709 20.8738 320.557 20.0268 321.262 19.4621C322.11 18.8974 323.239 18.615 324.509 18.615C325.215 18.615 326.062 18.7562 326.768 19.1797C327.474 19.4621 328.039 20.0268 328.462 20.7327V13.6738H332.274V32.8738H332.415ZM328.039 29.2032C328.462 28.4974 328.745 27.3679 328.745 25.815C328.745 24.4032 328.462 23.415 328.039 22.5679C327.615 21.8621 326.627 21.2974 325.639 21.2974C324.509 21.2974 323.804 21.7209 323.38 22.5679C322.815 23.2738 322.674 24.4032 322.674 25.815C322.674 26.5209 322.815 27.3679 322.957 27.9327C323.098 28.4974 323.521 29.2032 324.086 29.6268C324.51 30.0503 325.215 30.1915 325.921 30.1915C326.627 30.4738 327.474 29.9091 328.039 29.2032Z" fill="currentColor"/>
<path d="M338.204 28.6383C338.486 28.7794 338.768 29.0618 339.051 29.4853C339.192 29.7677 339.333 30.1912 339.333 30.7559C339.333 31.1794 339.192 31.603 339.051 32.0265C338.91 32.3089 338.627 32.5912 338.204 32.8736C337.921 33.0147 337.498 33.1559 336.933 33.1559C336.51 33.1559 336.086 33.0147 335.663 32.8736C335.38 32.7324 335.098 32.45 334.816 32.0265C334.674 31.7442 334.533 31.3206 334.533 30.7559C334.533 30.3324 334.674 29.9089 334.816 29.4853C334.957 29.203 335.239 28.9206 335.663 28.6383C335.945 28.4971 336.368 28.3559 336.933 28.3559C337.498 28.2147 337.78 28.2147 338.204 28.6383Z" fill="currentColor"/>
<path d="M49.3574 24.6855C49.3574 37.9561 38.628 48.6855 25.3574 48.6855C12.0868 48.6855 1.35742 37.9561 1.35742 24.6855C1.35742 11.415 12.0868 0.685547 25.3574 0.685547C38.628 0.685547 49.3574 11.415 49.3574 24.6855Z" fill="currentColor"/>
<path d="M40.8872 23.8385V14.2385C40.8872 12.4032 39.6166 10.8503 37.9225 10.5679L34.5343 10.0032C29.5931 9.57966 21.4049 9.57966 16.4637 10.0032L12.7931 10.4267C10.9578 10.8503 9.82841 12.4032 9.82841 14.2385V23.8385C9.82841 23.8385 9.26371 34.1444 23.099 41.7679C24.5108 42.615 26.2049 42.615 27.6166 41.7679C28.6049 41.2032 29.5931 40.6385 30.299 39.9326L19.4284 29.6267C18.8637 29.2032 18.7225 28.3561 19.0049 27.7914C19.2872 27.0855 19.8519 26.662 20.5578 26.662H22.8166C24.5108 26.662 25.7814 25.6738 26.4872 24.262H18.5814C17.5931 24.262 16.8872 23.5561 16.8872 22.5679C16.8872 21.5797 17.5931 20.8738 18.5814 20.8738H26.4872C25.7814 19.462 24.3696 18.4738 22.8166 18.4738H18.5814C17.5931 18.4738 16.8872 17.7679 16.8872 16.7797C16.8872 15.7914 17.5931 15.0855 18.5814 15.0855H22.8166H31.5696C32.5578 15.0855 33.2637 15.7914 33.2637 16.7797C33.2637 17.7679 32.5578 18.4738 31.5696 18.4738H28.8872C29.4519 19.1797 29.7343 20.0267 30.0166 20.8738H31.5696C32.5578 20.8738 33.2637 21.5797 33.2637 22.5679C33.2637 23.5561 32.5578 24.262 31.5696 24.262H29.8755C29.1696 26.9444 27.1931 29.062 24.3696 29.7679L32.8402 37.815C41.3108 31.1797 40.8872 23.8385 40.8872 23.8385Z" fill="currentColor"/>
</g>
<defs>
<clipPath id="clip0_3396_56962">
<rect width="340" height="48" fill="currentColor"/>
</clipPath>
</defs>
</svg>
