<svg width="24" height="24" viewBox="0 0 24 24" fill="none" xmlns="http://www.w3.org/2000/svg">
<g clip-path="url(#clip0_3396_63915)">
<rect width="24" height="24" rx="12" fill="white"/>
<path d="M11.791 6.28125C11.8529 6.28125 11.9148 6.28125 11.9785 6.28125C11.9051 6.64837 11.7543 6.97163 11.6035 7.3125C11.5416 7.3125 11.4798 7.3125 11.416 7.3125C11.4125 7.36579 11.409 7.41909 11.4054 7.474C11.3689 7.90314 11.302 8.2306 11.1121 8.62244C10.9842 8.96444 10.951 9.32656 10.903 9.68701C10.8535 9.9375 10.8535 9.9375 10.666 10.2188C10.611 10.4078 10.611 10.4078 10.5756 10.6176C10.5607 10.6967 10.5458 10.7758 10.5304 10.8573C10.5152 10.9424 10.5 11.0275 10.4844 11.1152C10.4602 11.249 10.4602 11.249 10.4356 11.3854C10.4027 11.5679 10.3701 11.7504 10.3377 11.9329C10.2979 12.1499 10.2542 12.3652 10.2075 12.5808C9.90542 14.0504 9.93931 15.5681 9.91602 17.0625C9.84595 17.0559 9.77589 17.0494 9.7037 17.0426C8.04653 16.8948 6.10188 16.7376 4.55542 17.4558C4.38477 17.5312 4.38477 17.5312 4.19727 17.5312C4.19727 17.5931 4.19727 17.655 4.19727 17.7188C4.10445 17.7188 4.01164 17.7188 3.91602 17.7188C4.05196 17.3336 4.23457 17.0153 4.47852 16.6875C4.54039 16.6875 4.60227 16.6875 4.66602 16.6875C4.67484 16.6193 4.68366 16.5512 4.69275 16.481C4.76999 16.1787 4.887 16.0151 5.08203 15.7734C5.13992 15.7004 5.19781 15.6275 5.25745 15.5522C5.41602 15.375 5.41602 15.375 5.60352 15.2812C5.70063 15.0955 5.79393 14.9077 5.88477 14.7188C6.12351 14.291 6.12351 14.291 6.30042 14.1204C6.51529 13.8985 6.65114 13.639 6.80505 13.3729C6.84167 13.322 6.87829 13.2712 6.91602 13.2188C6.97789 13.2188 7.03977 13.2188 7.10352 13.2188C7.11705 13.1607 7.13059 13.1027 7.14453 13.043C7.19727 12.8438 7.19727 12.8438 7.29102 12.6562C7.35289 12.6562 7.41477 12.6562 7.47852 12.6562C7.49592 12.5663 7.49592 12.5663 7.51367 12.4746C7.53301 12.4108 7.55234 12.347 7.57227 12.2812C7.63414 12.2503 7.69602 12.2194 7.75977 12.1875C7.86603 11.9984 7.86603 11.9984 7.94727 11.8125C8.00914 11.8125 8.07102 11.8125 8.13477 11.8125C8.14407 11.7435 8.15338 11.6745 8.16296 11.6034C8.23638 11.3126 8.3372 11.1691 8.52734 10.9395C8.5862 10.8667 8.64505 10.794 8.70569 10.719C8.76478 10.6467 8.82388 10.5745 8.88477 10.5C9.21604 10.0792 9.50725 9.6792 9.72852 9.1875C9.79039 9.1875 9.85227 9.1875 9.91602 9.1875C9.94115 9.11789 9.96629 9.04828 9.99219 8.97656C10.0991 8.729 10.2061 8.54479 10.3848 8.34375C10.4466 8.34375 10.5085 8.34375 10.5723 8.34375C10.5819 8.27221 10.5916 8.20066 10.6016 8.12695C10.6719 7.85218 10.7443 7.77983 10.9473 7.59375C10.9782 7.50094 11.0091 7.40813 11.041 7.3125C11.134 7.21798 11.2278 7.1243 11.3223 7.03125C11.4481 6.83598 11.5638 6.63649 11.6801 6.43542C11.7167 6.38455 11.7533 6.33367 11.791 6.28125Z" fill="#DB3F2D"/>
<path d="M16.1445 12.5663C16.392 12.5663 16.71 12.5645 16.965 12.5645C17.0541 12.9395 16.9984 12.6611 17.0838 13.0583C17.1692 13.4555 17.1246 13.2439 17.1758 13.5975C17.195 13.7172 17.2142 13.8368 17.234 13.9601C17.2595 14.1166 17.285 14.2731 17.3105 14.4296C17.3232 14.5085 17.3358 14.5874 17.3488 14.6687C17.3674 14.782 17.3674 14.782 17.3864 14.8976C17.3976 14.9673 17.4089 15.037 17.4206 15.1088C17.4507 15.2924 17.4507 15.2924 17.5508 15.4725C17.8878 14.9982 18.142 14.4961 18.3945 13.9725C18.4564 13.9725 18.5183 13.9725 18.582 13.9725C18.613 13.8488 18.6439 13.725 18.6758 13.5975C18.7377 13.5975 18.7995 13.5975 18.8633 13.5975C18.8807 13.4728 18.8807 13.4728 18.8984 13.3456C18.9518 13.0628 19.0289 12.8285 19.1445 12.5663C19.423 12.5663 19.7014 12.5663 19.9883 12.5663C20.0487 14.1606 20.0979 15.7518 20.082 17.3475C19.8345 17.3475 19.587 17.3475 19.332 17.3475C19.332 16.4504 19.332 15.5532 19.332 14.6288C19.0449 14.7724 18.9676 15.0474 18.834 15.3261C18.7754 15.4458 18.7168 15.5656 18.6582 15.6853C18.6294 15.7446 18.6007 15.8039 18.571 15.865C18.4574 16.0984 18.3411 16.3304 18.2246 16.5624C18.1892 16.6332 18.1538 16.704 18.1173 16.777C18.0222 16.9672 17.9271 17.1574 17.832 17.3475C17.5845 17.3475 17.337 17.3475 17.082 17.3475C16.9409 16.8031 16.8741 16.3165 16.8945 15.7538C16.8327 15.7538 16.7708 15.7538 16.707 15.7538C16.6142 15.4135 16.5214 15.0732 16.4258 14.7225C16.333 15.1247 16.2402 15.5269 16.1445 15.9413C16.0827 15.9413 16.0208 15.9413 15.957 15.9413C15.9514 16.0125 15.9457 16.0836 15.9398 16.157C15.932 16.2502 15.9241 16.3433 15.916 16.4393C15.9084 16.5318 15.9008 16.6242 15.8929 16.7195C15.8633 16.9725 15.8633 16.9725 15.7695 17.2538C15.4911 17.2538 15.2127 17.2538 14.9258 17.2538C14.9258 17.0991 14.9258 16.9444 14.9258 16.785C14.9877 16.785 15.0495 16.785 15.1133 16.785C15.1185 16.6763 15.1185 16.6763 15.1239 16.5653C15.1623 15.957 15.2486 15.467 15.4883 14.91C15.7078 14.3217 15.8552 13.7249 15.99 13.1119C16.0508 12.8475 16.0508 12.8475 16.1445 12.5663Z" fill="#2F4283"/>
<path d="M13.666 12.5625C13.9445 12.5625 14.2229 12.5625 14.5098 12.5625C14.5346 13.3702 14.4953 14.1608 14.4219 14.9648C14.4137 15.0548 14.4056 15.1448 14.3972 15.2375C14.362 15.6049 14.3261 15.9558 14.2285 16.3125C14.1666 16.3125 14.1048 16.3125 14.041 16.3125C14.0613 16.4111 14.0613 16.4111 14.082 16.5117C14.026 16.88 13.8652 17.0082 13.5796 17.2346C13.2493 17.4196 13.0072 17.3872 12.6348 17.3438C12.542 17.3128 12.4491 17.2819 12.3535 17.25C12.3535 17.1881 12.3535 17.1262 12.3535 17.0625C12.2974 17.0528 12.2414 17.0432 12.1836 17.0332C11.9448 16.9581 11.8458 16.8881 11.6973 16.6875C11.6973 16.3125 11.6973 16.3125 11.8145 16.1426C11.9785 16.0312 11.9785 16.0312 12.166 16.043C12.3535 16.125 12.3535 16.125 12.4883 16.2715C12.6327 16.4324 12.6327 16.4324 12.8867 16.4238C12.9583 16.418 13.0298 16.4122 13.1035 16.4062C13.2576 16.0575 13.3349 15.7341 13.3906 15.3574C13.4691 14.8313 13.4691 14.8313 13.5723 14.625C13.5865 14.4688 13.5956 14.3122 13.6019 14.1555C13.6059 14.0631 13.6098 13.9706 13.6138 13.8754C13.6175 13.7786 13.6212 13.6818 13.625 13.582C13.629 13.4845 13.6331 13.387 13.6373 13.2865C13.6472 13.0452 13.6568 12.8038 13.666 12.5625Z" fill="#2F4284"/>
</g>
<defs>
<clipPath id="clip0_3396_63915">
<rect width="24" height="24" fill="white"/>
</clipPath>
</defs>
</svg>
