<svg width="24" height="24" viewBox="0 0 24 24" fill="none" xmlns="http://www.w3.org/2000/svg">
<g clip-path="url(#clip0_3396_50425)">
<path d="M24 12C24 5.37258 18.6274 0 12 0C5.37258 0 0 5.37258 0 12C0 18.6274 5.37258 24 12 24C18.6274 24 24 18.6274 24 12Z" fill="white"/>
<path d="M2.97665 11.4052H3.51577V11.4444H3.4866C3.4295 11.4444 3.39213 11.449 3.37449 11.4584C3.35677 11.468 3.34498 11.4856 3.33947 11.5111C3.3337 11.5371 3.33077 11.5983 3.33077 11.695V12.0924C3.33077 12.1911 3.32701 12.2658 3.31932 12.3174C3.31146 12.3689 3.29014 12.4191 3.25462 12.4681C3.21925 12.5167 3.17194 12.5546 3.113 12.581C3.0539 12.6073 2.98535 12.6203 2.9071 12.6203C2.81924 12.6203 2.75152 12.604 2.70421 12.5718C2.65681 12.5392 2.63306 12.5004 2.63306 12.4557C2.63306 12.4287 2.64151 12.406 2.65848 12.3874C2.67553 12.3691 2.69635 12.3601 2.72118 12.3601C2.74651 12.3601 2.76774 12.3682 2.78463 12.3847C2.80177 12.4011 2.81021 12.4215 2.81021 12.4455C2.81021 12.4598 2.8067 12.4744 2.79976 12.4901C2.79349 12.5037 2.79031 12.5138 2.79031 12.5206C2.79031 12.5388 2.80101 12.5532 2.82266 12.5634C2.84449 12.5734 2.87123 12.5788 2.90325 12.5788C2.96829 12.5788 3.02297 12.558 3.06752 12.5167C3.112 12.4752 3.13875 12.4263 3.14794 12.3699C3.15697 12.3137 3.16165 12.2206 3.16165 12.0911V11.6945C3.16165 11.6019 3.15881 11.5423 3.15346 11.5154C3.14794 11.4886 3.13649 11.47 3.11894 11.4597C3.10155 11.4495 3.06317 11.4444 3.00424 11.4444H2.97665V11.4052Z" fill="black"/>
<path d="M3.991 11.9786H4.0744C4.14157 11.9786 4.19572 11.9722 4.237 11.9585C4.27822 11.9453 4.31275 11.9168 4.34017 11.8738C4.36777 11.8307 4.38149 11.7777 4.38149 11.7146C4.38149 11.6183 4.35783 11.5475 4.3105 11.5024C4.26325 11.4572 4.1866 11.4347 4.08044 11.4347C4.04148 11.4347 4.01163 11.4359 3.991 11.4384V11.9786ZM3.991 12.0205V12.2661C3.991 12.3582 3.99325 12.4184 3.9976 12.4467C4.00195 12.4751 4.01347 12.4964 4.03244 12.51C4.05134 12.524 4.08712 12.5308 4.13954 12.5308H4.17832V12.5699H3.64214V12.5308H3.67324C3.72331 12.5308 3.75802 12.5243 3.77722 12.5121C3.79645 12.4993 3.80883 12.4796 3.814 12.4528C3.8191 12.4265 3.82169 12.3646 3.82169 12.2672V11.6959C3.82169 11.603 3.8191 11.5434 3.814 11.5164C3.80883 11.4894 3.79728 11.471 3.77939 11.4606C3.76162 11.4503 3.72289 11.4452 3.66387 11.4452H3.64214V11.4061L3.78862 11.4002C3.90565 11.3954 3.99693 11.3931 4.06248 11.3931C4.183 11.3931 4.27597 11.4026 4.34103 11.4213C4.40632 11.4404 4.45964 11.4736 4.50134 11.522C4.54308 11.5698 4.56389 11.6306 4.56389 11.7038C4.56389 11.7674 4.54949 11.8233 4.52118 11.872C4.49283 11.9206 4.45222 11.9576 4.39919 11.9826C4.34602 12.0078 4.25272 12.0205 4.11914 12.0205H3.991Z" fill="black"/>
<path d="M5.53524 12.3682L5.9585 11.4052H6.31771V11.4444H6.27474C6.21721 11.4444 6.1796 11.449 6.1619 11.4584C6.14409 11.4681 6.13239 11.4856 6.12635 11.5111C6.12027 11.5371 6.11731 11.5984 6.11731 11.6951V12.2663C6.11731 12.3579 6.1196 12.4179 6.12417 12.4463C6.12871 12.4744 6.14034 12.4955 6.15886 12.5092C6.17754 12.5231 6.21339 12.5299 6.26615 12.5299H6.31771V12.5691H5.75795V12.5299H5.79942C5.849 12.5299 5.88335 12.5235 5.90274 12.5112C5.92179 12.4984 5.93435 12.4788 5.93979 12.4522C5.9453 12.4256 5.94796 12.3638 5.94796 12.2663V11.5255L5.48952 12.5691H5.44779L4.98485 11.5255V12.2074C4.98485 12.3007 4.98759 12.3642 4.99336 12.3981C4.99914 12.4317 5.01676 12.4612 5.04654 12.4867C5.07627 12.5122 5.11835 12.5265 5.17216 12.5299V12.5691H4.75302V12.5299C4.80301 12.5273 4.84381 12.5136 4.87516 12.4893C4.90666 12.4649 4.92582 12.4349 4.9325 12.3997C4.93962 12.364 4.94311 12.2983 4.94311 12.202V11.6951C4.94311 11.6025 4.94037 11.5426 4.93494 11.5156C4.92942 11.4886 4.91787 11.4701 4.90025 11.4597C4.88285 11.4495 4.84437 11.4444 4.78494 11.4444H4.75302V11.4052H5.10807L5.53524 12.3682Z" fill="black"/>
<path d="M6.53748 12.1199C6.53748 12.2638 6.56591 12.3717 6.62328 12.4442C6.68028 12.5161 6.76597 12.5522 6.88023 12.5522C6.98058 12.5522 7.05982 12.5161 7.11791 12.4442C7.17611 12.3717 7.20536 12.2643 7.20536 12.1212C7.20536 11.9821 7.17667 11.8753 7.11933 11.8012C7.06192 11.7272 6.97882 11.69 6.86981 11.69C6.76237 11.69 6.68028 11.7262 6.62328 11.7988C6.56591 11.871 6.53748 11.9779 6.53748 12.1199ZM6.38508 12.1152C6.38508 11.9772 6.43124 11.8662 6.52353 11.7825C6.61582 11.699 6.73087 11.6573 6.86872 11.6573C7.00788 11.6573 7.12417 11.6985 7.21773 11.7813C7.31096 11.8641 7.35768 11.9769 7.35768 12.1199C7.35768 12.2585 7.31287 12.3706 7.22366 12.4563C7.13414 12.5424 7.01651 12.5851 6.87078 12.5851C6.72884 12.5851 6.61241 12.5424 6.52162 12.4563C6.43057 12.3706 6.38508 12.2567 6.38508 12.1152Z" fill="black"/>
<path d="M20.2764 12.1199C20.2764 12.2638 20.305 12.3717 20.3622 12.4442C20.4192 12.5161 20.5049 12.5522 20.6191 12.5522C20.7193 12.5522 20.7987 12.5161 20.8569 12.4442C20.9151 12.3717 20.9442 12.2643 20.9442 12.1212C20.9442 11.9821 20.9157 11.8753 20.8581 11.8012C20.801 11.7272 20.7176 11.69 20.6087 11.69C20.5014 11.69 20.4192 11.7262 20.3622 11.7988C20.305 11.871 20.2764 11.9779 20.2764 12.1199ZM20.124 12.1152C20.124 11.9772 20.1703 11.8662 20.2624 11.7825C20.3547 11.699 20.4701 11.6573 20.6079 11.6573C20.7468 11.6573 20.8634 11.6985 20.9567 11.7813C21.0501 11.8641 21.0965 11.9769 21.0965 12.1199C21.0965 12.2585 21.0517 12.3706 20.9623 12.4563C20.873 12.5424 20.7556 12.5851 20.6098 12.5851C20.4678 12.5851 20.3515 12.5424 20.2606 12.4563C20.1696 12.3706 20.124 12.2567 20.124 12.1152Z" fill="black"/>
<path d="M7.74563 12.1065C7.77818 12.1055 7.81159 12.1044 7.84654 12.1026C7.88123 12.1009 7.91134 12.0961 7.93699 12.088C7.96268 12.0799 7.98341 12.0684 7.9992 12.0534C8.01506 12.0381 8.02755 12.0179 8.03648 11.9935C8.04559 11.9688 8.05028 11.9384 8.05028 11.9022C8.05028 11.8392 8.03472 11.7888 8.0037 11.751C7.97277 11.7131 7.90508 11.6941 7.80098 11.6941C7.78493 11.6941 7.76629 11.695 7.74563 11.6967V12.1065ZM8.418 12.5682H8.17853C8.1363 12.538 8.07124 12.4604 7.9839 12.3344C7.95582 12.2942 7.92671 12.2557 7.89653 12.219C7.86619 12.1821 7.84545 12.1594 7.83416 12.1514C7.82265 12.1432 7.80518 12.1393 7.7811 12.1393H7.74563V12.3363C7.74563 12.4062 7.74732 12.4522 7.7505 12.4736C7.75384 12.4953 7.76277 12.5115 7.77709 12.5219C7.79145 12.5325 7.81898 12.5376 7.8594 12.5376H7.90271V12.5682H7.47379V12.5376H7.50278C7.54125 12.5376 7.56777 12.5329 7.58262 12.5232C7.59743 12.5134 7.6068 12.4983 7.61063 12.4777C7.61471 12.4573 7.61689 12.4098 7.61689 12.335V11.8961C7.61689 11.8248 7.61471 11.7788 7.61063 11.7581C7.60669 11.7374 7.59769 11.7232 7.58389 11.7153C7.57009 11.7074 7.53998 11.7036 7.494 11.7036H7.47848V11.6729L7.6062 11.6668C7.69155 11.6632 7.75909 11.6613 7.80893 11.6613C7.89428 11.6613 7.9635 11.6691 8.01683 11.6848C8.06993 11.701 8.11324 11.7269 8.14624 11.763C8.17902 11.7991 8.1954 11.8423 8.1954 11.8926C8.1954 11.9513 8.17399 12.0012 8.13135 12.0427C8.08857 12.084 8.02594 12.1099 7.94295 12.1201C7.98045 12.1377 8.04049 12.2026 8.12333 12.3146C8.1909 12.4053 8.24355 12.4644 8.28191 12.4929C8.32039 12.5208 8.36569 12.5359 8.418 12.5376V12.5682Z" fill="black"/>
<path d="M9.03785 12.1865H9.42467V12.2169C9.38203 12.2169 9.35293 12.2216 9.33797 12.2301C9.32259 12.2387 9.31247 12.253 9.30763 12.2731C9.30287 12.2933 9.30043 12.3419 9.30043 12.4191V12.5147C9.29008 12.513 9.28029 12.512 9.27212 12.512C9.23825 12.512 9.19385 12.5225 9.13903 12.543C9.06429 12.5711 8.99499 12.5851 8.93135 12.5851C8.80337 12.5851 8.69694 12.5428 8.61219 12.4584C8.5274 12.3743 8.48488 12.2677 8.48488 12.1382C8.48488 12.0103 8.52564 11.8979 8.60668 11.8017C8.6879 11.7053 8.798 11.6573 8.93728 11.6573C9.05717 11.6573 9.15624 11.701 9.2348 11.7887C9.24988 11.7576 9.25888 11.7238 9.26282 11.6877H9.29342V11.9874H9.26282C9.25018 11.8959 9.21527 11.8235 9.15834 11.7699C9.10138 11.7168 9.03227 11.6899 8.95067 11.6899C8.86667 11.6899 8.7935 11.7213 8.73107 11.7836C8.66859 11.8458 8.6375 11.9566 8.6375 12.1159C8.6375 12.2744 8.66743 12.3866 8.72728 12.453C8.78739 12.519 8.86164 12.5521 8.95067 12.5521C8.9963 12.5521 9.03778 12.5428 9.07498 12.524C9.11233 12.5054 9.13783 12.4827 9.15114 12.4558C9.16483 12.4288 9.17169 12.3948 9.17169 12.3538C9.17169 12.3059 9.16828 12.2737 9.16183 12.2579C9.15557 12.2418 9.14563 12.231 9.13232 12.2254C9.11912 12.2199 9.09463 12.2169 9.05927 12.2169H9.03785V12.1865Z" fill="black"/>
<path d="M10.0607 12.2047L9.90475 11.8262L9.74849 12.2047H10.0607ZM10.0743 12.2377H9.73487L9.71136 12.2944C9.67709 12.3769 9.65995 12.4305 9.65995 12.4555C9.65995 12.4826 9.66899 12.5029 9.68729 12.5168C9.7057 12.5308 9.72925 12.5376 9.75827 12.5376V12.5682H9.48891V12.5376C9.52862 12.5312 9.55814 12.5174 9.57786 12.4956C9.59725 12.4737 9.62076 12.4279 9.6481 12.3577C9.65102 12.3511 9.66179 12.3256 9.68061 12.281L9.94187 11.6613H9.96801L10.2659 12.3714L10.3067 12.465C10.3161 12.4861 10.3286 12.5027 10.3441 12.5146C10.3598 12.5271 10.3832 12.5346 10.4143 12.5376V12.5682H10.063V12.5376C10.106 12.5376 10.135 12.5343 10.1502 12.528C10.1653 12.5216 10.1729 12.5089 10.1729 12.4901C10.1729 12.4804 10.1628 12.4515 10.1425 12.4035L10.0743 12.2377Z" fill="black"/>
<path d="M11.3307 12.5875L10.6959 11.7479V12.3689C10.6959 12.4205 10.6984 12.4545 10.7033 12.4708C10.7084 12.4869 10.7226 12.502 10.7463 12.5155C10.77 12.5293 10.8056 12.5361 10.853 12.5361V12.5666H10.5202V12.5361C10.5625 12.533 10.5948 12.5253 10.6171 12.5126C10.6394 12.5002 10.6525 12.4866 10.6568 12.4721C10.661 12.4575 10.6629 12.4232 10.6629 12.3692V11.8946C10.6629 11.826 10.6598 11.78 10.6533 11.7566C10.647 11.7336 10.6369 11.7184 10.6229 11.7118C10.6088 11.7052 10.5777 11.702 10.5296 11.702V11.6714H10.7965L11.3262 12.3719V11.8365C11.3262 11.797 11.3222 11.7693 11.314 11.7534C11.306 11.7375 11.2892 11.7251 11.2643 11.7158C11.2391 11.7065 11.209 11.702 11.1738 11.702V11.6714H11.4973V11.702C11.4597 11.705 11.4303 11.7123 11.4089 11.7237C11.3874 11.735 11.3734 11.7487 11.3678 11.7648C11.3619 11.7811 11.3589 11.8083 11.3589 11.8466V12.5875H11.3307Z" fill="black"/>
<path d="M13.0213 12.1342H13.0604V12.543H13.0213C13.011 12.4965 12.9924 12.4555 12.9654 12.4198C12.8636 12.5352 12.7335 12.5924 12.5753 12.5924C12.408 12.5924 12.2713 12.5393 12.1652 12.433C12.0591 12.3267 12.006 12.1862 12.006 12.0113C12.006 11.8965 12.0305 11.7882 12.0794 11.6868C12.1283 11.5852 12.1967 11.51 12.2844 11.4608C12.372 11.4117 12.4681 11.3871 12.5727 11.3871C12.659 11.3871 12.7377 11.4049 12.8079 11.4405C12.8781 11.4759 12.9306 11.5153 12.9654 11.5585C12.9904 11.5101 13.0059 11.4599 13.0107 11.4081H13.0499L13.0604 11.848H13.0213C12.9957 11.6919 12.9435 11.5827 12.8644 11.5212C12.7857 11.4597 12.6967 11.4289 12.5975 11.4289C12.4764 11.4289 12.38 11.4782 12.3084 11.5774C12.2369 11.6763 12.2015 11.8179 12.2015 12.0021C12.2015 12.1766 12.2399 12.3104 12.3181 12.4037C12.3965 12.4965 12.4937 12.543 12.6095 12.543C12.6716 12.543 12.7352 12.528 12.8 12.4976C12.8649 12.4672 12.9163 12.4159 12.9541 12.3438C12.9921 12.2715 13.0145 12.2017 13.0213 12.1342Z" fill="black"/>
<path d="M14.0036 12.1143H13.5374V12.3308C13.5374 12.4014 13.5394 12.4477 13.5427 12.4694C13.5461 12.4912 13.5555 12.5074 13.5695 12.5181C13.5841 12.5287 13.6117 12.5338 13.6523 12.5338H13.6756V12.5643H13.2702V12.5338H13.2936C13.332 12.5338 13.3585 12.529 13.3734 12.5193C13.3885 12.5098 13.3981 12.4946 13.4022 12.4743C13.4062 12.4538 13.4084 12.4061 13.4084 12.3312V11.8925C13.4084 11.8211 13.4062 11.7751 13.4022 11.7544C13.3981 11.7339 13.389 11.7197 13.3754 11.7116C13.3621 11.7038 13.3324 11.6997 13.2868 11.6997H13.2702V11.6694H13.6756V11.6997H13.659C13.6147 11.6997 13.5858 11.7034 13.5721 11.7106C13.5583 11.718 13.5489 11.7315 13.5444 11.7511C13.5395 11.771 13.5374 11.8181 13.5374 11.8925V12.0699H14.0036V11.8925C14.0036 11.8211 14.0017 11.7751 13.9979 11.7544C13.9938 11.7339 13.9851 11.7197 13.9718 11.7116C13.9586 11.7038 13.9294 11.6997 13.8844 11.6997H13.8608V11.6694H14.266V11.6997H14.2532C14.2088 11.6997 14.1801 11.7034 14.1669 11.7106C14.1532 11.718 14.1441 11.7315 14.1396 11.7511C14.1348 11.771 14.1325 11.8181 14.1325 11.8925V12.3312C14.1325 12.4015 14.1343 12.4477 14.1376 12.4696C14.1408 12.4914 14.1497 12.5074 14.164 12.5181C14.1788 12.5287 14.2058 12.5338 14.2458 12.5338H14.266V12.5643H13.8608V12.5338H13.8915C13.9292 12.5338 13.9552 12.529 13.9698 12.5193C13.9844 12.5095 13.9938 12.4945 13.9979 12.4741C14.0017 12.4536 14.0036 12.4059 14.0036 12.3308V12.1143Z" fill="black"/>
<path d="M14.9288 12.2032L14.7729 11.8246L14.6166 12.2032H14.9288ZM14.9421 12.236H14.6032L14.5795 12.2929C14.5453 12.3751 14.5282 12.4287 14.5282 12.4538C14.5282 12.4806 14.5371 12.5012 14.5556 12.5149C14.5739 12.5288 14.5975 12.5357 14.6266 12.5357V12.5661H14.3569V12.5357C14.3968 12.5295 14.4264 12.5156 14.4461 12.4938C14.4654 12.4721 14.4889 12.4259 14.5165 12.3558C14.5193 12.3493 14.5299 12.3236 14.5487 12.2793L14.81 11.6593H14.8362L15.1342 12.3694L15.1748 12.4632C15.1841 12.484 15.1967 12.501 15.2123 12.5132C15.2279 12.5251 15.2512 12.5326 15.2825 12.5357V12.5661H14.9311V12.5357C14.9739 12.5357 15.0032 12.5325 15.0183 12.5263C15.0333 12.5197 15.0411 12.507 15.0411 12.4885C15.0411 12.4787 15.031 12.4498 15.0106 12.4017L14.9421 12.236Z" fill="black"/>
<path d="M15.3952 12.5556V12.2671H15.4279C15.4653 12.4547 15.5542 12.5483 15.6939 12.5483C15.7566 12.5483 15.8057 12.5302 15.8401 12.4947C15.8746 12.4587 15.8917 12.4187 15.8917 12.3744C15.8917 12.3296 15.8768 12.2919 15.8464 12.2616C15.8163 12.2317 15.7609 12.1997 15.6804 12.1654C15.6085 12.1347 15.5545 12.1077 15.5182 12.0845C15.4819 12.0614 15.4532 12.0316 15.4327 11.9946C15.4124 11.9574 15.4022 11.9181 15.4022 11.8764C15.4022 11.8126 15.4243 11.7596 15.4688 11.717C15.5133 11.6745 15.5693 11.6532 15.6375 11.6532C15.6756 11.6532 15.7113 11.6594 15.7449 11.6718C15.7784 11.6839 15.8128 11.7096 15.8481 11.7482C15.8686 11.7241 15.88 11.698 15.8827 11.6699H15.9105V11.904H15.8827C15.8658 11.8366 15.836 11.7831 15.7931 11.7444C15.7505 11.7055 15.7009 11.6862 15.6445 11.6862C15.5909 11.6862 15.5516 11.7004 15.5264 11.729C15.5015 11.7575 15.4889 11.7888 15.4889 11.8228C15.4889 11.8639 15.5047 11.8986 15.5362 11.9268C15.5669 11.9555 15.623 11.9883 15.7036 12.0244C15.7805 12.0589 15.8368 12.0868 15.8718 12.1077C15.9068 12.1286 15.935 12.1576 15.9564 12.1945C15.9772 12.2317 15.9881 12.2742 15.9881 12.3226C15.9881 12.3991 15.9626 12.4614 15.9111 12.5093C15.8601 12.5572 15.7919 12.5812 15.7065 12.5812C15.608 12.5812 15.5259 12.5434 15.4603 12.4684C15.4457 12.4889 15.4349 12.5179 15.4279 12.5556H15.3952Z" fill="black"/>
<path d="M16.8674 12.2854H16.8979L16.8785 12.5642H16.1411V12.5338H16.1597C16.2036 12.5338 16.2323 12.5279 16.2449 12.516C16.258 12.5041 16.2659 12.489 16.2695 12.4709C16.2729 12.4527 16.2746 12.4061 16.2746 12.3312V11.8925C16.2746 11.824 16.2729 11.7792 16.2691 11.7577C16.2652 11.7361 16.2566 11.721 16.2434 11.7126C16.2296 11.7039 16.2011 11.6996 16.1575 11.6996V11.6694H16.7947L16.816 11.8916H16.7856C16.7713 11.8296 16.7543 11.7853 16.7339 11.7594C16.7137 11.7331 16.6898 11.7167 16.6616 11.7099C16.6337 11.7031 16.5888 11.6996 16.5267 11.6996H16.4037V12.0746H16.4979C16.5412 12.0746 16.5715 12.0709 16.5885 12.0635C16.6059 12.056 16.6172 12.0447 16.6226 12.0296C16.6283 12.0144 16.6308 11.9849 16.6308 11.941H16.6612V12.2455H16.6308C16.6308 12.1959 16.6268 12.1627 16.6185 12.1456C16.6102 12.1289 16.5983 12.1178 16.5822 12.1126C16.5661 12.1078 16.5392 12.1051 16.5012 12.1051H16.4037V12.3166C16.4037 12.4225 16.4102 12.4849 16.4241 12.5034C16.4378 12.5222 16.4744 12.5315 16.5341 12.5315H16.6003C16.6473 12.5315 16.686 12.526 16.7165 12.5151C16.7463 12.5041 16.7753 12.48 16.8026 12.4423C16.83 12.4048 16.8518 12.3525 16.8674 12.2854Z" fill="black"/>
<path d="M17.7501 11.811C17.8697 11.7414 17.9292 11.6661 17.9292 11.585C17.9292 11.5369 17.9161 11.4978 17.8894 11.468C17.8627 11.4382 17.8272 11.4236 17.7835 11.4236C17.7403 11.4236 17.7057 11.4379 17.6794 11.4663C17.6533 11.4946 17.6404 11.5302 17.6404 11.5726C17.6404 11.6308 17.6771 11.7104 17.7501 11.811ZM17.6607 11.9194C17.5977 11.9576 17.549 12.0023 17.515 12.0534C17.4803 12.1047 17.4633 12.1543 17.4633 12.202C17.4633 12.2755 17.493 12.3453 17.5525 12.4106C17.612 12.4763 17.6791 12.5092 17.7542 12.5092C17.838 12.5092 17.915 12.4679 17.9857 12.3852C17.8599 12.1933 17.7515 12.0383 17.6607 11.9194ZM18.0466 11.8346H18.4318V11.8764C18.3834 11.8894 18.341 11.9127 18.305 11.9461C18.2687 11.9794 18.2314 12.0424 18.1931 12.1348C18.161 12.2112 18.1312 12.2669 18.1043 12.3029C18.1683 12.3946 18.2187 12.4527 18.2552 12.4774C18.2918 12.5021 18.3306 12.5143 18.3719 12.5143C18.4282 12.5143 18.4718 12.4873 18.5021 12.4335H18.5437C18.5313 12.4828 18.5043 12.5224 18.4634 12.5524C18.4224 12.5825 18.3748 12.5976 18.3211 12.5976C18.204 12.5976 18.1014 12.5392 18.0126 12.422C17.9073 12.5392 17.7958 12.5976 17.6782 12.5976C17.6206 12.5976 17.5659 12.5837 17.5135 12.5559C17.4608 12.5281 17.4182 12.4892 17.3853 12.439C17.3521 12.389 17.3357 12.3309 17.3357 12.2652C17.3357 12.19 17.3562 12.127 17.3974 12.0758C17.4384 12.0248 17.5171 11.9603 17.6336 11.8828C17.5634 11.7853 17.5284 11.6972 17.5284 11.6185C17.5284 11.5563 17.5523 11.5009 17.6 11.4521C17.6481 11.4034 17.7082 11.379 17.7806 11.379C17.845 11.379 17.9032 11.3974 17.9556 11.4338C18.0074 11.4703 18.0335 11.5181 18.0335 11.5771C18.0335 11.6693 17.9474 11.7584 17.7755 11.8449C17.8823 11.9889 17.9827 12.1281 18.0775 12.2626C18.1114 12.215 18.1384 12.1655 18.1583 12.1145C18.1776 12.0637 18.188 12.024 18.188 11.9952C18.188 11.9268 18.1408 11.8871 18.0466 11.8764V11.8346Z" fill="black"/>
<path d="M19.8663 12.1322H19.9053V12.5409H19.8663C19.856 12.4946 19.8371 12.4535 19.8103 12.4178C19.7085 12.533 19.5781 12.5904 19.4204 12.5904C19.2531 12.5904 19.1163 12.5373 19.0101 12.431C18.9039 12.3246 18.8508 12.184 18.8508 12.0091C18.8508 11.8942 18.8754 11.7859 18.9244 11.6847C18.9731 11.5832 19.0417 11.508 19.1294 11.4587C19.2168 11.4097 19.3128 11.3851 19.4176 11.3851C19.5041 11.3851 19.5826 11.4026 19.6528 11.4384C19.723 11.4738 19.7756 11.5133 19.8103 11.5565C19.8354 11.508 19.8506 11.4579 19.856 11.4058H19.8948L19.9053 11.8458H19.8663C19.8406 11.6897 19.7884 11.5808 19.7093 11.5192C19.6306 11.4574 19.5416 11.4266 19.4425 11.4266C19.3211 11.4266 19.2251 11.4761 19.1534 11.5752C19.0818 11.674 19.0464 11.8157 19.0464 12.0001C19.0464 12.1746 19.0854 12.3085 19.1633 12.4016C19.2412 12.4943 19.3383 12.5409 19.4544 12.5409C19.5166 12.5409 19.5801 12.5258 19.6451 12.4953C19.7099 12.4652 19.7616 12.4141 19.799 12.3419C19.8371 12.2695 19.8595 12.1997 19.8663 12.1322Z" fill="black"/>
<path d="M21.1704 12.4931C21.1704 12.4661 21.18 12.443 21.1995 12.4239C21.2185 12.4046 21.2416 12.3952 21.2686 12.3952C21.2958 12.3952 21.3192 12.4046 21.3385 12.4239C21.3576 12.443 21.3674 12.4661 21.3674 12.4931C21.3674 12.5206 21.3576 12.5437 21.3381 12.5632C21.3185 12.5824 21.2952 12.592 21.2686 12.592C21.2411 12.592 21.2179 12.582 21.1989 12.5622C21.18 12.5422 21.1704 12.5192 21.1704 12.4931Z" fill="black"/>
</g>
<defs>
<clipPath id="clip0_3396_50425">
<rect width="23.25" height="23.25" fill="white" transform="scale(1.03226)"/>
</clipPath>
</defs>
</svg>
