<svg width="20" height="20" viewBox="0 0 20 20" fill="none" xmlns="http://www.w3.org/2000/svg">
<g clip-path="url(#clip0_3396_54648)">
<path d="M20 10C20 4.47715 15.5228 0 10 0C4.47715 0 0 4.47715 0 10C0 15.5228 4.47715 20 10 20C15.5228 20 20 15.5228 20 10Z" fill="white"/>
<path d="M6.24584 5.43398C6.97559 4.96408 9.07087 5.03592 9.81724 5.79333C9.43024 5.50586 7.51737 5.00277 6.19052 5.51139" fill="#8DC750"/>
<path d="M9.80645 5.75543C10.0884 5.35184 12.1892 4.84874 13.5105 5.33524C11.8299 4.95377 10.293 5.70012 9.80645 5.75543Z" fill="#8DC750"/>
<path d="M7.62799 9.62532C7.5174 9.34335 7.4179 9.01716 7.15252 8.09391C6.82633 6.97716 6.24033 5.75535 6.19611 5.52316C6.07999 6.24188 6.68261 7.04904 6.98115 8.14366C7.19124 8.91766 7.33496 9.70269 7.61693 9.81879H7.62246L7.63352 9.82432C7.65008 9.82985 7.66668 9.82985 7.6888 9.83538C7.78277 9.84644 7.87124 9.84644 7.96521 9.83538C9.17043 9.64741 10.8511 9.49816 12.001 9.84091C12.1503 9.16644 13.3721 5.62266 13.5048 5.34073C12.8469 6.37454 12.1779 8.47538 11.9568 9.75244C11.0059 9.43735 8.71708 9.42629 7.62799 9.62532Z" fill="#8DC750"/>
<path d="M10.0164 6.31842C10.1933 6.30182 10.3647 6.39583 10.4421 6.55614C10.4642 6.60039 10.6522 6.66673 10.6412 6.77176C10.6356 6.8547 10.3592 6.97632 10.2099 7.30251C10.1989 7.33014 10.1657 7.35226 10.1602 7.52364C10.127 7.64526 10.0883 7.76689 10.0385 7.88298C9.87821 8.18151 9.91137 8.41926 9.85609 8.49664C9.76212 8.62379 9.69024 8.59617 9.67365 8.56851C9.63496 8.51323 9.57415 8.51876 9.54649 8.46348C9.54096 8.41373 9.54096 8.35845 9.54096 8.30867C9.54096 8.29211 9.54649 8.26998 9.54649 8.24786C9.54649 8.22576 9.54649 8.20917 9.54649 8.18704C9.55203 8.13176 9.56309 8.07648 9.56862 8.0212C9.56862 7.98804 9.56862 7.94932 9.56862 7.91064C9.56862 7.89404 9.56862 7.87192 9.56862 7.85536C9.56862 7.83876 9.56862 7.82217 9.56309 7.81111C9.55756 7.80007 9.55756 7.78348 9.55203 7.77242C9.54649 7.75029 9.54649 7.7282 9.54096 7.71161C9.53543 7.68395 9.52437 7.65079 9.52437 7.62314C9.52437 7.60104 9.5299 7.57892 9.53543 7.56232C9.53543 7.52364 9.5299 7.49048 9.5299 7.45176V7.39095C9.5299 7.37436 9.5299 7.36332 9.5299 7.34673C9.52437 7.33014 9.51887 7.31907 9.51334 7.30251C9.50228 7.28039 9.50228 7.25826 9.49121 7.24167L9.47462 7.21957C9.46356 7.20298 9.45803 7.19192 9.45253 7.17536C9.43593 7.14217 9.38618 7.03161 9.36959 6.97079C9.34746 6.89892 9.46909 6.86023 9.53543 6.77176C9.60178 6.68329 9.63496 6.34608 10.0054 6.32395" fill="#FFCB0B"/>
<path d="M7.96562 6.10742C8.12044 6.12952 8.59034 6.30646 8.73962 6.40042C8.76175 6.41149 8.78937 6.42808 8.8115 6.44464C8.85572 6.47783 8.89997 6.51099 8.93865 6.54971L9.01053 6.62158C9.03262 6.64367 9.06028 6.65474 9.08794 6.67686L9.11003 6.70449C9.13215 6.72661 9.15425 6.74874 9.17637 6.77636C9.18744 6.79296 9.1985 6.81508 9.20956 6.83717L9.23165 6.87036C9.23719 6.88139 9.24272 6.89246 9.24825 6.90905C9.25378 6.92564 9.26484 6.93117 9.27037 6.94774L9.29247 6.98092C9.30353 6.99199 9.30906 7.00855 9.32012 7.01961C9.33119 7.03067 9.33672 7.0528 9.34222 7.06386C9.35328 7.07489 9.35881 7.08596 9.36434 7.10255C9.3754 7.12467 9.38094 7.14677 9.38647 7.16889C9.392 7.19102 9.40303 7.19652 9.40856 7.21311C9.41409 7.22417 9.41962 7.25733 9.42515 7.27946L9.44175 7.31814C9.44728 7.34027 9.45281 7.36239 9.45834 7.38449C9.46387 7.39555 9.46384 7.40661 9.46937 7.41767C9.4749 7.42874 9.4749 7.4453 9.4749 7.46189C9.4749 7.47849 9.48597 7.50611 9.4915 7.52824C9.49703 7.55036 9.49703 7.56696 9.49703 7.58352C9.49703 7.60011 9.50809 7.62224 9.51362 7.6388C9.51915 7.65539 9.51915 7.66646 9.51915 7.67752C9.52469 7.69961 9.53019 7.72174 9.53572 7.74386C9.54125 7.76596 9.54125 7.78255 9.54678 7.79914C9.54678 7.81574 9.55784 7.83783 9.55784 7.85996C9.55784 7.88758 9.55784 7.91524 9.55784 7.94289C9.55784 7.96499 9.54125 8.14742 9.53019 8.2193C9.53019 8.2193 9.52469 8.36305 9.52469 8.4128C9.51362 8.44596 9.51915 8.48467 9.54125 8.5123C9.54125 8.51783 9.55784 8.50677 9.55784 8.5123C9.59653 8.54549 9.65734 8.56761 9.67394 8.60077C9.67394 8.60077 9.67947 8.6063 9.67947 8.61183C9.69053 8.65605 9.63525 8.76661 9.61312 8.79427C9.55231 8.87167 9.43622 8.95458 9.20956 9.00986C8.77831 9.20336 8.62906 9.18127 8.59587 9.17574C8.22547 9.07621 8.0154 8.68924 7.94353 8.60077C7.97115 8.63392 7.84953 8.54549 7.84953 8.39067C7.85506 8.23589 7.97669 8.14742 8.0154 8.1198C8.10937 7.97605 7.76662 7.93736 7.40172 7.52824C7.30775 7.42321 7.26906 7.19102 7.59522 7.09702C7.62287 7.01408 7.07003 6.86483 6.93181 6.46677C6.82125 6.12402 7.07003 5.92499 7.96562 6.10742Z" fill="#49C8F5"/>
<path d="M12.9531 5.59483C13.0139 5.70539 12.8094 6.03158 12.063 6.8332C12.0686 6.82767 11.8308 7.14833 11.7645 7.24786C11.6982 7.34736 11.7037 7.5298 11.5489 7.78411C11.665 7.58508 11.4383 7.93892 10.797 8.53598C10.6698 8.65208 9.6526 9.76329 9.73 9.03908C9.73554 9.00592 9.78528 8.95061 9.80188 8.85664C9.81847 8.76264 9.73 8.71289 9.84057 8.51939C9.89588 8.45858 9.90138 8.26508 9.9235 8.17664C9.98985 7.89467 10.1502 7.64589 10.3105 7.40817C10.3603 7.33629 10.4155 7.26442 10.4763 7.19808C11.1066 6.50701 11.2393 6.52914 11.8364 5.92654C12.4334 5.32392 12.7983 5.32945 12.9421 5.59483" fill="#8DC750"/>
<path d="M7.41884 6.52313C7.57366 6.34066 7.9164 6.29644 8.27575 6.32409C8.67934 6.35725 9.04975 6.51759 9.27087 6.75531C9.70762 7.21416 9.68 7.91628 9.60259 8.40278C9.90112 7.86653 9.69659 7.30263 10.255 6.89906C10.2881 6.87694 10.36 6.94881 10.3379 6.97091C10.0227 7.31369 10.0449 8.02134 9.65234 8.541C9.64131 8.55206 9.55284 8.51891 9.57497 8.48572C9.55837 8.53547 9.51965 8.50784 9.48097 8.48572C9.44781 8.46913 9.42569 8.43044 9.43675 8.39175C9.53072 7.75597 9.42569 7.14231 8.89494 6.72766C8.72909 6.6005 8.34209 6.47888 7.96062 6.501C7.8169 6.50653 7.69528 6.53416 7.62894 6.6005C7.49625 6.73319 8.24259 6.94881 8.25365 7.14231C8.25919 7.31922 7.98275 7.34131 7.96615 7.40766C7.94406 7.49613 8.64065 7.6675 8.63512 7.85547C8.62406 8.01028 8.39184 8.0545 8.38634 8.12084C8.37528 8.26459 8.64062 8.30881 8.8065 8.75109C8.81203 8.76216 8.8065 8.82297 8.77884 8.83403C8.75122 8.84506 8.67934 8.78425 8.64616 8.74556C8.36422 8.39175 8.13203 8.40831 8.13756 8.25353C8.14859 8.07109 8.36422 7.98263 8.44162 7.88866C8.31447 7.68409 7.70078 7.59009 7.75609 7.35791C7.80031 7.17547 8.0104 7.18653 8.02144 7.11466C8.0325 7.05938 7.85559 6.99303 7.68975 6.89353C7.49625 6.78847 7.31381 6.65025 7.41884 6.52313Z" fill="#0751A0"/>
<path d="M10.1387 7.36462C10.2106 7.25403 10.5534 6.86703 11.1891 6.40818C11.4213 6.23681 12.1013 5.71159 12.433 5.90509C12.6321 6.02118 11.8747 6.65143 11.7751 6.75093C11.7199 6.81175 11.6535 7.07159 11.5153 7.25956C11.355 7.47518 10.3599 8.59193 9.96179 8.8794C9.91757 8.91259 9.86782 8.94575 9.8457 8.92918C9.8291 8.91812 9.81254 8.90706 9.80148 8.89047C9.77935 8.86837 9.83463 8.78543 9.86229 8.74122C9.96732 8.5864 11.1449 7.49728 11.1891 7.33696C11.2334 7.17665 11.3439 6.91128 11.9244 6.41371C12.1732 6.19809 12.3612 6.03225 12.2782 5.98803C12.2395 5.97143 12.1234 5.98803 11.9631 6.082C11.6756 6.24784 11.2886 6.55743 11.2002 6.61825C11.0675 6.71225 10.5146 7.25956 10.3488 7.40331C10.2659 7.47518 10.194 7.51387 10.1498 7.50834C10.1387 7.50834 10.1387 7.49178 10.1332 7.48625C10.1277 7.48072 10.1055 7.48625 10.1 7.47518C10.1055 7.43093 10.1166 7.39225 10.1387 7.36462Z" fill="#0751A0"/>
<path d="M10.0006 6.72177C10.1223 6.72177 10.1057 6.87659 9.98961 6.87659C9.89561 6.87659 9.90667 6.72177 10.0006 6.72177Z" fill="#0751A0"/>
<path d="M9.7348 6.87134C9.74583 6.83818 9.82877 6.64468 9.97805 6.65021C10.1328 6.65574 10.1439 6.71102 10.1715 6.74971C10.2324 6.81605 10.3153 6.85474 10.4037 6.8658C10.448 6.8658 10.4369 6.82159 10.4148 6.7884C10.3982 6.75524 10.3706 6.72209 10.3374 6.69443C10.3153 6.67784 10.3042 6.4954 10.072 6.4788C9.93933 6.46777 9.72374 6.56174 9.70161 6.85474C9.70714 6.88793 9.71268 6.91005 9.7348 6.87134Z" fill="#0751A0"/>
<path d="M14.7549 10.4979H14.7383L14.4619 11.8856L13.8427 10.4924C13.7819 10.4979 13.7266 10.5035 13.6658 10.509C13.605 10.5145 13.5497 10.5145 13.4889 10.5145C13.428 10.5145 13.3728 10.5145 13.323 10.509C13.2732 10.5035 13.218 10.5035 13.1627 10.4924L13.1461 10.5698C13.2069 10.5753 13.2456 10.5974 13.2566 10.6196C13.2732 10.6748 13.2732 10.7301 13.2566 10.7799L13.03 11.8911L12.9194 12.444H12.8752C12.8697 12.444 12.8586 12.444 12.8531 12.444C12.8144 12.444 12.7757 12.4329 12.748 12.4053C12.7149 12.3555 12.6927 12.3057 12.6872 12.2449L12.3942 10.7246L12.3776 10.6251C12.3721 10.5864 12.3666 10.5422 12.361 10.4924C12.3002 10.4979 12.2394 10.5035 12.1841 10.509C12.1288 10.5145 12.0735 10.5145 12.0238 10.5145C11.974 10.5145 11.9077 10.5145 11.858 10.509C11.8082 10.5035 11.7474 10.5035 11.6976 10.4924L11.681 10.5643C11.7142 10.5643 11.7474 10.5698 11.775 10.5864C11.7916 10.5974 11.8027 10.6196 11.7971 10.6417C11.7971 10.6527 11.7916 10.6693 11.7861 10.6804C11.775 10.697 11.764 10.7191 11.7529 10.7357C11.7529 10.7357 10.8296 12.162 10.8462 12.1399C10.8462 12.1399 11.0176 12.1454 11.1171 12.1454C11.2166 12.1454 11.1835 12.1344 11.1835 12.1344L11.3991 11.8082L12.1565 11.8137L12.2615 12.5214C12.267 12.5214 12.2726 12.5214 12.2726 12.5214C12.3942 12.5158 12.5103 12.5103 12.6319 12.5103C12.7535 12.5103 12.8918 12.5158 13.0245 12.5103C13.1516 12.5048 13.2732 12.5103 13.4004 12.5214L13.4115 12.4495C13.3285 12.444 13.2732 12.4274 13.2511 12.3942C13.229 12.361 13.229 12.2947 13.2456 12.2007L13.5165 10.8794L14.2684 12.5269H14.6111L14.965 10.7744H15.5952L15.2469 12.5214H15.258C15.3962 12.5048 15.5344 12.5048 15.6726 12.5103C15.7445 12.5158 15.8219 12.5158 15.9103 12.5269L15.9269 12.4606C15.8385 12.455 15.7832 12.4384 15.7555 12.3997C15.7279 12.361 15.7334 12.2837 15.7555 12.1565L16.0375 10.7799H16.2863C16.4079 10.7799 16.4853 10.802 16.5295 10.8517C16.5737 10.896 16.5903 10.99 16.5848 11.1171H16.6511C16.6567 11.0287 16.6622 10.9292 16.6733 10.8352C16.6843 10.7412 16.7009 10.6306 16.7175 10.509H16.6622C16.0375 10.4979 15.3851 10.4979 14.7549 10.4979ZM11.6755 11.6147C11.5649 11.6368 11.4654 11.7031 11.3935 11.7916L12.0127 10.802L12.1233 11.5981C12.1233 11.5981 11.7971 11.5871 11.6755 11.6147ZM11.4267 12.0736C11.4157 12.1344 11.3714 12.1897 11.3161 12.2173C11.2277 12.256 11.1724 12.2449 11.0618 12.2449H10.4095L10.7135 10.7467C10.7191 10.697 10.7467 10.6472 10.7799 10.6085C10.8241 10.5809 10.8739 10.5643 10.9236 10.5643L10.9402 10.4869C10.8573 10.4979 10.7854 10.5035 10.7135 10.509C10.6417 10.5145 10.5864 10.5145 10.5311 10.5145C10.4758 10.5145 10.4095 10.5145 10.3487 10.509C10.3321 10.509 10.321 10.5035 10.31 10.5035L9.96167 12.2615C9.95614 12.3113 9.93402 12.3555 9.90086 12.3942C9.86217 12.4274 9.81792 12.444 9.76817 12.444L9.75158 12.5214H11.3604C11.388 12.3721 11.4323 12.2228 11.4875 12.0846L11.4267 12.0736ZM9.68524 10.509C9.61889 10.5145 9.55808 10.5145 9.49727 10.5145C9.43645 10.5145 9.37564 10.5145 9.31483 10.509C9.3038 10.509 9.2872 10.5035 9.27614 10.5035L8.92233 12.2671C8.9168 12.3168 8.89467 12.361 8.86152 12.3997C8.8228 12.4274 8.77858 12.4495 8.72883 12.4495L8.71224 12.5269C8.78964 12.5158 8.86152 12.5103 8.92233 12.5048C8.98314 12.4992 9.04395 12.4992 9.0937 12.4992C9.14899 12.4992 9.20427 12.4992 9.25955 12.5048C9.31483 12.5103 9.3867 12.5158 9.46411 12.5269L9.4807 12.4495C9.43645 12.4495 9.39777 12.4329 9.37011 12.3997C9.34802 12.361 9.34802 12.3113 9.36461 12.2671L9.6742 10.7412C9.67974 10.6914 9.70183 10.6472 9.73502 10.6085C9.7737 10.5753 9.81792 10.5587 9.8677 10.5587L9.88427 10.4813C9.81239 10.4979 9.74605 10.5035 9.68524 10.509ZM8.66802 10.9568C8.70117 10.802 8.66248 10.6859 8.55192 10.6085C8.44133 10.5311 8.26442 10.4924 8.01564 10.4924H7.23611L6.8823 12.256C6.87677 12.3057 6.85467 12.35 6.82148 12.3887C6.7828 12.4218 6.73855 12.4384 6.6888 12.4384L6.67223 12.5158H7.58442C7.87742 12.5158 8.10964 12.4661 8.28102 12.3666C8.44686 12.2781 8.56295 12.1178 8.60167 11.9353C8.6293 11.7916 8.6072 11.6755 8.52427 11.5871C8.44133 11.4986 8.31417 11.4488 8.13727 11.4322C8.26995 11.4046 8.39711 11.3493 8.49661 11.2609C8.58508 11.1835 8.65142 11.0784 8.66802 10.9568ZM8.13727 11.9132C8.12067 12.0183 8.05986 12.1067 7.97142 12.162C7.86636 12.2228 7.75027 12.256 7.62864 12.2505H7.32458L7.45727 11.5926H7.7392C7.88849 11.5926 7.99905 11.6202 8.06539 11.6755C8.13727 11.7363 8.16492 11.8303 8.13727 11.9132ZM8.18149 11.0397C8.16492 11.1337 8.10964 11.2167 8.0267 11.2664C7.9327 11.3217 7.81661 11.3493 7.70605 11.3493H7.50149L7.62311 10.7522H7.84427C7.97695 10.7522 8.06539 10.7744 8.1262 10.8241C8.18702 10.8794 8.20914 10.9623 8.18149 11.0397ZM6.79936 10.5035L6.7662 10.509C6.69986 10.5145 6.63905 10.5145 6.57824 10.5145C6.51742 10.5145 6.45661 10.5145 6.39027 10.509C6.32392 10.5035 6.26311 10.4979 6.2023 10.4869L6.18017 10.5643C6.22442 10.5643 6.26311 10.5809 6.29077 10.614C6.31286 10.6527 6.31286 10.7025 6.3018 10.7467L6.1083 11.6976C6.05855 11.9409 5.99774 12.1012 5.92586 12.1731C5.85402 12.2505 5.74342 12.2892 5.59417 12.2892C5.44489 12.2892 5.35092 12.2505 5.30667 12.1731C5.26245 12.0957 5.26798 11.9353 5.31773 11.6976L5.55545 10.509L5.5223 10.5145C5.45595 10.5201 5.39514 10.5201 5.33433 10.5201C5.27352 10.5201 5.2127 10.5201 5.15189 10.5145C5.09108 10.509 5.03027 10.5035 4.96392 10.4924L4.94733 10.5698C4.99155 10.5698 5.03027 10.5864 5.05789 10.6196C5.08002 10.6582 5.08002 10.708 5.06895 10.7467L4.88098 11.681C4.81464 12.0183 4.8257 12.2505 4.9252 12.3832C5.02473 12.5158 5.2293 12.5767 5.53336 12.5767C5.83742 12.5767 6.06961 12.5103 6.21889 12.3832C6.36814 12.256 6.48423 12.0183 6.55058 11.681L6.79936 10.5035ZM4.56586 10.4979C4.49952 10.5035 4.4387 10.509 4.37789 10.509C4.32814 10.509 4.26733 10.5035 4.20098 10.4979L4.1623 10.4924L3.69789 12.7536C3.62048 13.1295 3.55414 13.3893 3.50439 13.4944C3.46017 13.5884 3.38277 13.6657 3.28327 13.71L3.30536 13.8703C3.52652 13.8372 3.72555 13.71 3.8527 13.5276C3.97433 13.3451 4.08489 13.0023 4.19545 12.4716L4.5327 10.8297C4.54373 10.7633 4.56586 10.7025 4.60458 10.6527C4.63774 10.614 4.68748 10.5919 4.73723 10.5864L4.75936 10.4758C4.69302 10.4813 4.62667 10.4924 4.56586 10.4979Z" fill="#0751A0"/>
<path d="M4.50511 13.2132L4.49404 13.2795C4.52723 13.2795 4.56039 13.2906 4.58251 13.3182C4.59907 13.3514 4.60461 13.3901 4.58804 13.4233L4.33926 14.634C4.33373 14.6727 4.31714 14.7114 4.28948 14.7391C4.26186 14.7612 4.22314 14.7778 4.18445 14.7778L4.17339 14.8386C4.22867 14.833 4.27842 14.8275 4.3282 14.822C4.37795 14.8165 4.4277 14.8165 4.47745 14.8165C4.52723 14.8165 4.56592 14.822 4.6212 14.822C4.67095 14.8275 4.73176 14.833 4.79257 14.8386L4.80364 14.7778C4.76495 14.7833 4.72623 14.7722 4.69861 14.7446C4.68201 14.7114 4.67648 14.6727 4.68754 14.634L4.78704 14.1475H5.07454C5.1077 14.1475 5.13536 14.1475 5.16851 14.1586C5.19064 14.1641 5.20723 14.1807 5.21276 14.1973C5.21826 14.2249 5.21826 14.2525 5.21276 14.2802H5.26251C5.26804 14.2304 5.27357 14.1917 5.28461 14.153C5.29567 14.1143 5.29567 14.0756 5.3012 14.048C5.30673 14.0148 5.31226 13.9817 5.32332 13.9429C5.33439 13.9043 5.34542 13.86 5.35648 13.8103H5.30673C5.3012 13.8379 5.29014 13.8656 5.26804 13.8877C5.25145 13.9043 5.23486 13.9208 5.20723 13.9264C5.17404 13.9319 5.14089 13.9374 5.1077 13.9374H4.82576L4.92526 13.4454H5.37861C5.41729 13.4454 5.45048 13.4454 5.48917 13.4509C5.51129 13.4564 5.53892 13.462 5.55551 13.4786C5.57211 13.4952 5.58317 13.5117 5.5887 13.5338C5.5942 13.567 5.5942 13.6002 5.5887 13.6333H5.64398C5.64951 13.5725 5.66054 13.5007 5.67161 13.4343C5.68267 13.368 5.69373 13.2961 5.71032 13.2298M5.51129 14.1696C5.4947 14.236 5.48917 14.3023 5.4947 14.3742C5.50023 14.435 5.51129 14.4958 5.53339 14.5511C5.55551 14.6064 5.58317 14.6561 5.62186 14.7003C5.66607 14.7501 5.72136 14.7943 5.78217 14.822C5.84851 14.8496 5.92039 14.8607 5.99226 14.8607C6.08626 14.8607 6.1747 14.8441 6.26317 14.8109C6.34607 14.7778 6.42348 14.7335 6.49536 14.6783C6.5617 14.623 6.62251 14.5511 6.66673 14.4792C6.71651 14.3963 6.74967 14.3134 6.76626 14.2194C6.78286 14.153 6.78836 14.0867 6.78286 14.0203C6.77732 13.9595 6.76626 13.8987 6.74414 13.8434C6.72201 13.7882 6.69439 13.7384 6.6557 13.6997C6.61145 13.6499 6.55617 13.6057 6.48982 13.5836C6.42348 13.556 6.35161 13.5449 6.27976 13.5449C6.18576 13.5449 6.09729 13.5615 6.00886 13.5891C5.83748 13.6499 5.69926 13.7716 5.60526 13.9264C5.56657 13.9983 5.52789 14.0867 5.51129 14.1696ZM6.21895 13.7163C6.2687 13.7163 6.31845 13.7273 6.35714 13.755C6.39586 13.7826 6.42901 13.8268 6.45114 13.8711C6.47323 13.9264 6.48982 13.9872 6.48982 14.048C6.49536 14.1254 6.48429 14.2083 6.46773 14.2857C6.45114 14.3631 6.42348 14.435 6.38479 14.5013C6.35161 14.5566 6.30186 14.6064 6.24657 14.6395C6.19129 14.6727 6.13048 14.6893 6.06967 14.6893C6.01992 14.6893 5.97014 14.6783 5.93145 14.6506C5.89276 14.623 5.85957 14.5787 5.83748 14.5345C5.81536 14.4792 5.79876 14.4129 5.79876 14.3521C5.79323 14.2691 5.80429 14.1917 5.82089 14.1143C5.83748 14.0369 5.86511 13.9651 5.90382 13.8987C5.93698 13.8434 5.98673 13.7937 6.04201 13.7605C6.09179 13.7273 6.15811 13.7108 6.21895 13.7163ZM6.91551 14.1752C6.89895 14.2415 6.89895 14.3078 6.89895 14.3797C6.90448 14.4405 6.91551 14.5013 6.93764 14.5566C6.95976 14.6119 6.98739 14.6617 7.02611 14.7059C7.07032 14.7556 7.12561 14.7999 7.19195 14.8275C7.25829 14.8552 7.33017 14.8662 7.40204 14.8662C7.49601 14.8662 7.58448 14.8496 7.67292 14.8165C7.75586 14.7833 7.83326 14.7391 7.89961 14.6838C7.96595 14.6285 8.02676 14.5566 8.07098 14.4792C8.12073 14.3963 8.15392 14.3134 8.17048 14.2194C8.18707 14.153 8.19261 14.0867 8.18707 14.0203C8.18154 13.9595 8.17048 13.8987 8.14839 13.8434C8.12626 13.7882 8.09861 13.7384 8.05992 13.6997C8.0157 13.6499 7.96042 13.6057 7.89407 13.5836C7.82773 13.556 7.75586 13.5449 7.68398 13.5449C7.59001 13.5449 7.50154 13.5615 7.41307 13.5891C7.24723 13.6499 7.10348 13.7716 7.01504 13.9264C6.96529 13.9983 6.93211 14.0867 6.91551 14.1752ZM7.62317 13.7108C7.67292 13.7108 7.7227 13.7218 7.76139 13.7495C7.80007 13.7771 7.83326 13.8213 7.84982 13.8656C7.87195 13.9208 7.88854 13.9817 7.88854 14.0425C7.88854 14.1199 7.88301 14.2028 7.86642 14.2802C7.84982 14.3576 7.8222 14.4295 7.78351 14.4958C7.75032 14.5511 7.70057 14.6008 7.64529 14.634C7.59001 14.6672 7.5292 14.6838 7.46839 14.6838C7.41861 14.6838 7.36886 14.6727 7.33017 14.6451C7.29145 14.6174 7.25829 14.5732 7.23617 14.529C7.20854 14.4737 7.19748 14.4073 7.19748 14.3465C7.19195 14.2636 7.20301 14.1862 7.21961 14.1088C7.23617 14.0314 7.26382 13.9595 7.30251 13.8932C7.3357 13.8379 7.38545 13.7937 7.44073 13.7605C7.49048 13.7273 7.55682 13.7108 7.62317 13.7108ZM8.41373 13.556L8.4027 13.6057C8.43032 13.6057 8.45798 13.6168 8.47454 13.6333C8.48561 13.661 8.49114 13.6887 8.48007 13.7163L8.28661 14.6672C8.28107 14.7003 8.27001 14.728 8.24789 14.7501C8.22576 14.7667 8.19814 14.7778 8.16495 14.7778L8.15392 14.8275H8.59067C8.75098 14.833 8.90579 14.8054 9.05504 14.7501C9.17667 14.7059 9.28726 14.6285 9.3757 14.529C9.45864 14.4295 9.51945 14.3078 9.54154 14.1752C9.55814 14.0978 9.56367 14.0148 9.54707 13.9319C9.53604 13.8656 9.50839 13.7992 9.4697 13.7384C9.43098 13.6831 9.3757 13.6389 9.31489 13.6113C9.25407 13.5836 9.18773 13.567 9.12692 13.5615C9.04398 13.5504 8.96107 13.5449 8.87261 13.5504L8.41373 13.556ZM8.75651 13.7218H8.78967H8.82286C8.91682 13.7163 9.00529 13.7384 9.08823 13.7771C9.15457 13.8103 9.20432 13.8711 9.22645 13.9429C9.25407 14.0259 9.25407 14.1199 9.23195 14.2028C9.20986 14.3355 9.13798 14.4626 9.03295 14.5456C8.91682 14.6285 8.77311 14.6727 8.62936 14.6617H8.5962C8.58514 14.6617 8.57407 14.6617 8.56301 14.6617L8.75651 13.7218ZM9.63554 13.2077L9.62448 13.2685C9.65214 13.2685 9.67976 13.274 9.70742 13.2906C9.72401 13.3017 9.74057 13.3238 9.74611 13.3459C9.75164 13.379 9.75717 13.4122 9.75717 13.4454L9.87326 14.8275H10.1718L10.6085 13.9374L10.6639 14.8275H10.9513L11.6755 13.3901C11.6866 13.368 11.7032 13.3459 11.7198 13.3238C11.7364 13.3072 11.7529 13.2961 11.7695 13.2851C11.7917 13.274 11.8138 13.274 11.8414 13.274L11.8525 13.2132C11.7972 13.2187 11.7529 13.2243 11.7087 13.2243C11.6645 13.2243 11.6313 13.2243 11.5982 13.2243C11.565 13.2243 11.5318 13.2243 11.4931 13.2243C11.4544 13.2243 11.4047 13.2187 11.3604 13.2132L11.3494 13.274C11.3825 13.274 11.4102 13.2851 11.4378 13.3017C11.4544 13.3182 11.46 13.3403 11.4544 13.3625C11.4489 13.3735 11.4489 13.3901 11.4434 13.4067C11.4378 13.4233 11.4268 13.4454 11.4157 13.473L10.9734 14.4129L10.9237 13.4786C10.9237 13.462 10.9237 13.4509 10.9237 13.4343C10.9237 13.4178 10.9292 13.4012 10.9292 13.3846C10.9347 13.3625 10.9403 13.3403 10.9569 13.3238C10.9734 13.3072 10.99 13.2961 11.0121 13.2906C11.0398 13.2795 11.0729 13.274 11.1006 13.274L11.1116 13.2132C11.0564 13.2187 10.9955 13.2243 10.9403 13.2243C10.885 13.2243 10.8242 13.2298 10.7634 13.2298C10.7025 13.2298 10.6583 13.2298 10.6085 13.2243C10.5588 13.2187 10.5035 13.2187 10.4538 13.2132L10.4427 13.274C10.4814 13.274 10.5201 13.2851 10.5477 13.3072C10.5699 13.3293 10.5864 13.3625 10.5864 13.4012L10.603 13.6223L10.1939 14.4239L10.122 13.4398C10.122 13.4233 10.122 13.4012 10.122 13.3846C10.122 13.368 10.1276 13.3514 10.1276 13.3348C10.1331 13.3182 10.1442 13.3017 10.1608 13.2906C10.1829 13.2795 10.2105 13.274 10.2381 13.2685L10.2492 13.2077C10.1939 13.2132 10.1442 13.2187 10.0944 13.2187C10.0446 13.2187 10.0004 13.2243 9.9562 13.2243C9.91198 13.2243 9.8622 13.2243 9.80692 13.2187C9.75164 13.2132 9.69636 13.2187 9.63554 13.2077ZM11.5594 14.1752C11.5484 14.2415 11.5429 14.3078 11.5429 14.3797C11.5484 14.4405 11.5594 14.5013 11.5816 14.5566C11.6037 14.6119 11.6313 14.6617 11.67 14.7059C11.7143 14.7556 11.7695 14.7999 11.8304 14.8275C11.8967 14.8552 11.9686 14.8662 12.0404 14.8662C12.1344 14.8662 12.2229 14.8496 12.3113 14.8165C12.3943 14.7833 12.4717 14.7391 12.5435 14.6838C12.6099 14.623 12.6707 14.5566 12.7149 14.4792C12.7647 14.3963 12.7978 14.3134 12.8144 14.2194C12.831 14.153 12.831 14.0867 12.831 14.0203C12.8255 13.9595 12.8144 13.8987 12.7923 13.8434C12.7702 13.7882 12.7425 13.7384 12.7039 13.6997C12.6596 13.6499 12.5988 13.6057 12.538 13.5836C12.4717 13.556 12.3998 13.5449 12.3279 13.5449C12.2339 13.5449 12.1455 13.5615 12.057 13.5891C11.8856 13.6499 11.7474 13.7716 11.6534 13.9264C11.6092 13.9983 11.576 14.0867 11.5594 14.1752ZM12.2616 13.7108C12.3113 13.7108 12.3611 13.7218 12.3998 13.7495C12.4385 13.7771 12.4717 13.8213 12.4938 13.8656C12.5159 13.9208 12.5325 13.9817 12.5325 14.0425C12.538 14.1199 12.5269 14.2028 12.5104 14.2802C12.4938 14.3576 12.4661 14.4295 12.4274 14.4958C12.3943 14.5511 12.3445 14.6008 12.2892 14.634C12.2339 14.6672 12.1731 14.6838 12.1123 14.6838C12.0625 14.6838 12.0128 14.6727 11.9741 14.6451C11.9354 14.6174 11.9022 14.5732 11.8801 14.529C11.858 14.4737 11.8414 14.4073 11.8414 14.3465C11.8359 14.2636 11.8469 14.1862 11.8635 14.1088C11.8801 14.0314 11.9078 13.9595 11.9464 13.8932C11.9796 13.8379 12.0294 13.7937 12.0847 13.7605C12.1344 13.7273 12.2008 13.7108 12.2616 13.7108ZM13.1129 13.556L13.1019 13.6057C13.1295 13.6057 13.1572 13.6168 13.1738 13.6333C13.1848 13.661 13.1904 13.6887 13.1793 13.7163L12.9803 14.6727C12.9748 14.7059 12.9637 14.7335 12.9416 14.7556C12.9195 14.7722 12.8863 14.7833 12.8587 14.7888L12.8476 14.8386C12.8918 14.833 12.9305 14.8275 12.9748 14.8275C13.019 14.8275 13.0521 14.822 13.0909 14.822C13.1295 14.822 13.1683 14.822 13.2069 14.8275C13.2456 14.833 13.2844 14.833 13.3286 14.8386L13.3396 14.7888C13.312 14.7888 13.2844 14.7778 13.2678 14.7556C13.2567 14.728 13.2512 14.7003 13.2622 14.6727L13.4557 13.7273H13.5884C13.6382 13.7273 13.6879 13.7329 13.7377 13.755C13.7709 13.7716 13.7985 13.7992 13.8151 13.8324C13.8317 13.8711 13.8317 13.9098 13.8206 13.9485C13.8095 13.9983 13.7874 14.048 13.7487 14.0867C13.71 14.1254 13.6658 14.1586 13.616 14.1752C13.5608 14.1973 13.4999 14.2083 13.4391 14.2083H13.417C13.4115 14.2083 13.4004 14.2083 13.3949 14.2138C13.3894 14.2194 13.3839 14.2249 13.3839 14.2304C13.3839 14.2526 13.3894 14.2747 13.406 14.2913C13.4226 14.3189 13.4447 14.3576 13.4668 14.4073C13.4889 14.4571 13.5221 14.5179 13.5552 14.5898C13.5939 14.6727 13.6216 14.7556 13.6548 14.8441L13.7709 14.833C13.804 14.8275 13.8317 14.8275 13.8593 14.8275C13.8869 14.8275 13.898 14.8275 13.9312 14.833C13.9644 14.8386 14.003 14.8386 14.0528 14.8441L14.0639 14.7943H14.0528C14.0307 14.7943 14.003 14.7888 13.9865 14.7722C13.9644 14.7556 13.9478 14.7335 13.9312 14.7059C13.9146 14.6783 13.898 14.6395 13.8814 14.6008C13.8648 14.5622 13.8427 14.5124 13.8206 14.4571C13.7985 14.4018 13.7653 14.341 13.7322 14.2802C13.7985 14.2636 13.8648 14.2415 13.9256 14.2028C13.9809 14.1696 14.0252 14.1309 14.0639 14.0812C14.097 14.0314 14.1247 13.9817 14.1357 13.9208C14.1523 13.8545 14.1468 13.7826 14.1191 13.7163C14.086 13.661 14.0307 13.6223 13.9644 13.6057C13.8704 13.5781 13.7764 13.567 13.6769 13.5725L13.1129 13.556ZM14.2187 14.8386C14.2629 14.833 14.3016 14.8275 14.3458 14.8275C14.3845 14.822 14.4232 14.822 14.4619 14.822C14.5006 14.822 14.5393 14.822 14.578 14.8275C14.6167 14.833 14.6554 14.833 14.6996 14.8386L14.7107 14.7888C14.683 14.7888 14.6554 14.7778 14.6388 14.7556C14.6278 14.728 14.6222 14.7003 14.6333 14.6727L14.8323 13.7108C14.8379 13.6776 14.8489 13.6499 14.871 13.6278C14.8931 13.6113 14.9208 13.6002 14.9539 13.6002L14.965 13.5504C14.8821 13.5615 14.8047 13.567 14.7218 13.567C14.683 13.567 14.6444 13.567 14.6057 13.5615C14.5669 13.5615 14.5283 13.556 14.4896 13.5504L14.4785 13.6002C14.5061 13.6002 14.5283 13.6113 14.5504 13.6278C14.5614 13.6555 14.5669 13.6831 14.5559 13.7108L14.3624 14.6727C14.3569 14.7059 14.3458 14.7335 14.3237 14.7556C14.3016 14.7722 14.2739 14.7833 14.2408 14.7888L14.2187 14.8386ZM15.0535 14.8386C15.0922 14.833 15.1253 14.8275 15.153 14.8275C15.1806 14.822 15.2027 14.822 15.2304 14.822C15.2635 14.822 15.3023 14.822 15.3354 14.8275C15.3686 14.833 15.4018 14.833 15.4404 14.8386L15.4515 14.7888C15.4349 14.7888 15.4128 14.7833 15.3962 14.7778C15.3796 14.7722 15.3686 14.7612 15.3575 14.7501C15.3465 14.7335 15.3354 14.7169 15.3299 14.7003C15.2746 14.5843 15.2249 14.4737 15.1806 14.3742C15.1364 14.2857 15.0922 14.2028 15.0424 14.1199L15.4681 13.6887C15.4902 13.6665 15.5179 13.6444 15.551 13.6278C15.5787 13.6168 15.6063 13.6057 15.634 13.6057L15.645 13.556C15.5953 13.5615 15.5455 13.567 15.5068 13.567C15.4681 13.567 15.4349 13.5725 15.4073 13.5725C15.3796 13.5725 15.3465 13.5725 15.3078 13.567C15.2746 13.5615 15.2359 13.5615 15.1917 13.556L15.1806 13.6057C15.1972 13.6057 15.2138 13.6113 15.2249 13.6223C15.2359 13.6278 15.2359 13.6389 15.2359 13.6499C15.2359 13.661 15.2304 13.6721 15.2249 13.6831C15.2193 13.6942 15.2083 13.7052 15.1972 13.7163L14.7384 14.1807C14.7936 14.2581 14.8379 14.341 14.8765 14.4295C14.9318 14.5345 14.9871 14.6727 15.0535 14.8386ZM16.7175 13.6113C16.6623 13.5836 16.6014 13.567 16.5406 13.556C16.4688 13.5449 16.3914 13.5338 16.3195 13.5338C16.2421 13.5338 16.1647 13.5449 16.0928 13.5615C16.032 13.5781 15.9712 13.6057 15.9159 13.6389C15.8662 13.6721 15.8219 13.7108 15.7888 13.7605C15.7556 13.8048 15.7335 13.86 15.7224 13.9153C15.7114 13.9595 15.7114 13.9983 15.7224 14.0425C15.7335 14.0812 15.75 14.1143 15.7777 14.142C15.8109 14.1752 15.844 14.2028 15.8827 14.2194C15.9325 14.247 15.9878 14.2691 16.0375 14.2857C16.0873 14.3023 16.1315 14.3189 16.1702 14.3355C16.2034 14.3465 16.2366 14.3631 16.2642 14.3797C16.2863 14.3908 16.3029 14.4129 16.314 14.435C16.325 14.4626 16.325 14.4903 16.3195 14.5179C16.3084 14.5511 16.2919 14.5843 16.2642 14.6119C16.231 14.6395 16.1979 14.6617 16.1536 14.6783C16.1039 14.6948 16.0541 14.7003 15.9988 14.7003C15.938 14.7003 15.8717 14.6893 15.8164 14.6617C15.7666 14.6395 15.7279 14.6008 15.7003 14.5511C15.6727 14.4958 15.6616 14.4405 15.6671 14.3797H15.6284C15.6174 14.435 15.6119 14.4792 15.6063 14.5124C15.6008 14.5456 15.5953 14.5677 15.5953 14.5843L15.5787 14.6727C15.5731 14.7059 15.5621 14.7391 15.5565 14.7778C15.6229 14.8054 15.6892 14.8275 15.7611 14.8441C15.833 14.8607 15.9104 14.8662 15.9878 14.8662C16.0707 14.8662 16.1536 14.8552 16.231 14.833C16.2974 14.8164 16.3637 14.7833 16.4245 14.7446C16.4798 14.7114 16.524 14.6672 16.5572 14.6174C16.5904 14.5732 16.6125 14.5234 16.6235 14.4682C16.6346 14.4129 16.6346 14.3576 16.6125 14.3078C16.5904 14.2581 16.5517 14.2194 16.5074 14.1917C16.4466 14.153 16.3803 14.1254 16.3084 14.1033L16.1702 14.0535C16.137 14.0425 16.1039 14.0259 16.0707 14.0093C16.0486 13.9983 16.0265 13.9761 16.0154 13.954C16.0044 13.9319 16.0044 13.9043 16.0099 13.8766C16.0154 13.8434 16.032 13.8103 16.0596 13.7826C16.0873 13.755 16.1149 13.7329 16.1536 13.7218C16.1979 13.7052 16.2421 13.6997 16.2863 13.6997C16.3471 13.6997 16.4024 13.7108 16.4577 13.7329C16.5517 13.7716 16.618 13.8711 16.6125 13.9706H16.6567C16.6623 13.9098 16.6733 13.849 16.6844 13.7882C16.6954 13.7273 16.7009 13.6665 16.7175 13.6113Z" fill="#0751A0"/>
</g>
<defs>
<clipPath id="clip0_3396_54648">
<rect width="19.375" height="19.375" fill="white" transform="scale(1.03226)"/>
</clipPath>
</defs>
</svg>
