<svg width="24" height="24" viewBox="0 0 24 24" fill="none" xmlns="http://www.w3.org/2000/svg">
<g clip-path="url(#clip0_1661_24726)">
<g filter="url(#filter0_d_1661_24726)">
<g clip-path="url(#clip1_1661_24726)">
<path d="M0 12C0 5.37258 5.37258 0 12 0C18.6274 0 24 5.37258 24 12C24 18.6274 18.6274 24 12 24C5.37258 24 0 18.6274 0 12Z" fill="#853A93"/>
<path fill-rule="evenodd" clip-rule="evenodd" d="M17.2224 14.878L16.099 13.0195L14.9971 14.878H17.2224ZM17.2203 9.11411H14.9833L16.0981 10.9354L17.2203 9.11411ZM11.9831 6.22137L10.8748 8.0699H13.1005L11.9831 6.22137ZM6.7699 9.11411L7.87604 10.9466L8.97648 9.11411H6.7699ZM6.76869 14.8937L8.97838 14.8798L7.87634 13.0377L6.76869 14.8937ZM4.87891 8.0699H9.62643L11.8596 4.35776L12.0007 4.12305L12.1419 4.35776L14.3749 8.0699H19.1224L18.981 8.30347L16.7484 11.9915L18.9816 15.706L19.122 15.9396H14.3749L12.1419 19.643L12.0007 19.8772L11.8596 19.643L9.6265 15.9396H4.87936L5.01966 15.706L7.25282 11.9915L5.02026 8.30347L4.87891 8.0699ZM10.2478 9.14897L8.44882 11.9924L10.2478 14.8606H13.7535L15.5525 11.9924L13.7535 9.14897H10.2478ZM11.999 17.7726L13.1008 15.9396H10.8771L11.999 17.7726ZM11.8717 10.7818C12.2222 10.7818 12.541 10.9189 12.772 11.1401V11.1395C13.0026 11.36 13.1458 11.6647 13.1458 12.0004C13.1458 12.3356 13.0026 12.6401 12.772 12.8608V12.8614C12.5415 13.0819 12.2226 13.2189 11.8717 13.2189C11.5209 13.2189 11.2022 13.0819 10.9717 12.8614H10.9723C10.7411 12.6404 10.5977 12.3355 10.5977 12.0004C10.5977 11.6656 10.7407 11.361 10.9716 11.14C10.9718 11.1398 10.9722 11.1394 10.9722 11.1394L10.9716 11.14C10.9718 11.1398 10.9722 11.1394 10.9722 11.1394C11.2032 10.9186 11.5216 10.7818 11.8716 10.7818" fill="white"/>
</g>
</g>
</g>
<defs>
<filter id="filter0_d_1661_24726" x="-6" y="-5" width="36" height="36" filterUnits="userSpaceOnUse" color-interpolation-filters="sRGB">
<feFlood flood-opacity="0" result="BackgroundImageFix"/>
<feColorMatrix in="SourceAlpha" type="matrix" values="0 0 0 0 0 0 0 0 0 0 0 0 0 0 0 0 0 0 127 0" result="hardAlpha"/>
<feOffset dy="1"/>
<feGaussianBlur stdDeviation="3"/>
<feComposite in2="hardAlpha" operator="out"/>
<feColorMatrix type="matrix" values="0 0 0 0 0 0 0 0 0 0 0 0 0 0 0 0 0 0 0.08 0"/>
<feBlend mode="normal" in2="BackgroundImageFix" result="effect1_dropShadow_1661_24726"/>
<feBlend mode="normal" in="SourceGraphic" in2="effect1_dropShadow_1661_24726" result="shape"/>
</filter>
<clipPath id="clip0_1661_24726">
<rect width="24" height="24" fill="white"/>
</clipPath>
<clipPath id="clip1_1661_24726">
<path d="M0 12C0 5.37258 5.37258 0 12 0C18.6274 0 24 5.37258 24 12C24 18.6274 18.6274 24 12 24C5.37258 24 0 18.6274 0 12Z" fill="white"/>
</clipPath>
</defs>
</svg>
