<svg width="370" height="48" viewBox="0 0 370 48" fill="none" xmlns="http://www.w3.org/2000/svg">
<g clip-path="url(#clip0_3396_56954)">
<path d="M63.0068 36.665V12.1456H66.2546V24.3057L78.4316 12.1456H82.8273L72.5398 22.0795L83.278 36.665H78.9971L70.2677 24.2543L66.2546 28.1702V36.665H63.0068ZM97.1961 34.4731C96.0772 35.4206 95.0037 36.0888 93.9765 36.4822C92.9434 36.8706 91.8355 37.0645 90.6542 37.0645C88.7014 37.0645 87.2056 36.591 86.1552 35.6373C85.1104 34.6841 84.5853 33.4625 84.5853 31.9838C84.5853 31.1103 84.7792 30.3168 85.1787 29.5974C85.5728 28.8786 86.0928 28.3016 86.732 27.8677C87.3769 27.4342 88.0962 27.1025 88.9014 26.8805C89.4894 26.7263 90.3801 26.5722 91.573 26.429C94.0047 26.1378 95.7971 25.796 96.9449 25.3903C96.9565 24.9793 96.9621 24.7167 96.9621 24.6084C96.9621 23.3806 96.6763 22.5133 96.1054 22.0165C95.3408 21.3311 94.1931 20.9949 92.6804 20.9949C91.2646 20.9949 90.2198 21.24 89.5406 21.7368C88.8671 22.2336 88.3705 23.1126 88.045 24.3741L85.1047 23.9684C85.3734 22.7125 85.8126 21.6909 86.4237 20.9201C87.0344 20.1439 87.9252 19.5443 89.0837 19.1276C90.2431 18.711 91.5846 18.4999 93.114 18.4999C94.6329 18.4999 95.8601 18.6823 96.8079 19.0364C97.7554 19.3964 98.4524 19.8417 98.9031 20.3836C99.3484 20.9262 99.6568 21.6054 99.8391 22.4331C99.9364 22.9468 99.9877 23.8718 99.9877 25.2074V29.221C99.9877 32.0234 100.05 33.7934 100.182 34.5299C100.307 35.2721 100.564 35.9859 100.941 36.665H97.7952C97.4874 36.0429 97.2819 35.3117 97.1961 34.4731ZM96.9449 27.7479C95.8485 28.1989 94.2103 28.5757 92.0294 28.8896C90.7907 29.0669 89.9115 29.2663 89.4036 29.4891C88.8899 29.7117 88.4904 30.0371 88.2163 30.471C87.9367 30.8992 87.7935 31.3732 87.7935 31.8983C87.7935 32.7031 88.1019 33.3713 88.7068 33.9078C89.3124 34.4388 90.2026 34.7068 91.373 34.7068C92.5321 34.7068 93.5654 34.4559 94.4671 33.9476C95.3689 33.4397 96.0371 32.7432 96.4597 31.8639C96.7852 31.1848 96.9449 30.1798 96.9449 28.8553V27.7479ZM104.623 36.665V18.9051H107.329V21.5936C108.02 20.3377 108.659 19.5047 109.247 19.1051C109.83 18.7056 110.475 18.4999 111.177 18.4999C112.193 18.4999 113.221 18.8255 114.271 19.4703L113.232 22.268C112.501 21.828 111.765 21.6108 111.028 21.6108C110.366 21.6108 109.778 21.8108 109.253 22.2049C108.728 22.6042 108.357 23.1525 108.134 23.8547C107.797 24.9224 107.632 26.0925 107.632 27.3656V36.665H104.623ZM116.064 36.665V18.9051H118.77V21.4284C120.077 19.4757 121.961 18.4999 124.421 18.4999C125.495 18.4999 126.476 18.6938 127.373 19.0762C128.275 19.4646 128.943 19.9669 129.388 20.5946C129.839 21.2174 130.148 21.9596 130.33 22.8155C130.438 23.3751 130.496 24.3516 130.496 25.7445V36.665H127.482V25.8581C127.482 24.6366 127.367 23.7177 127.133 23.1066C126.899 22.5015 126.483 22.0165 125.888 21.6567C125.289 21.2914 124.593 21.1086 123.788 21.1086C122.503 21.1086 121.401 21.5196 120.465 22.3301C119.535 23.1469 119.072 24.688 119.072 26.9656V36.665H116.064ZM146.703 34.4731C145.584 35.4206 144.511 36.0888 143.483 36.4822C142.45 36.8706 141.342 37.0645 140.161 37.0645C138.208 37.0645 136.712 36.591 135.662 35.6373C134.617 34.6841 134.092 33.4625 134.092 31.9838C134.092 31.1103 134.286 30.3168 134.686 29.5974C135.08 28.8786 135.6 28.3016 136.239 27.8677C136.884 27.4342 137.603 27.1025 138.408 26.8805C138.996 26.7263 139.887 26.5722 141.08 26.429C143.511 26.1378 145.304 25.796 146.451 25.3903C146.463 24.9793 146.469 24.7167 146.469 24.6084C146.469 23.3806 146.183 22.5133 145.612 22.0165C144.848 21.3311 143.7 20.9949 142.187 20.9949C140.771 20.9949 139.726 21.24 139.047 21.7368C138.374 22.2336 137.877 23.1126 137.552 24.3741L134.612 23.9684C134.88 22.7125 135.32 21.6909 135.931 20.9201C136.541 20.1439 137.432 19.5443 138.59 19.1276C139.75 18.711 141.091 18.4999 142.621 18.4999C144.14 18.4999 145.367 18.6823 146.315 19.0364C147.262 19.3964 147.959 19.8417 148.41 20.3836C148.855 20.9262 149.164 21.6054 149.346 22.4331C149.443 22.9468 149.495 23.8718 149.495 25.2074V29.221C149.495 32.0234 149.557 33.7934 149.688 34.5299C149.814 35.2721 150.071 35.9859 150.448 36.665H147.302C146.994 36.0429 146.789 35.3117 146.703 34.4731ZM146.451 27.7479C145.355 28.1989 143.717 28.5757 141.536 28.8896C140.297 29.0669 139.418 29.2663 138.91 29.4891C138.396 29.7117 137.997 30.0371 137.723 30.471C137.443 30.8992 137.3 31.3732 137.3 31.8983C137.3 32.7031 137.608 33.3713 138.214 33.9078C138.819 34.4388 139.709 34.7068 140.88 34.7068C142.039 34.7068 143.072 34.4559 143.974 33.9476C144.876 33.4397 145.544 32.7432 145.966 31.8639C146.292 31.1848 146.451 30.1798 146.451 28.8553V27.7479ZM160.735 33.9704L161.169 36.6307C160.324 36.8076 159.565 36.8993 158.897 36.8993C157.801 36.8993 156.956 36.728 156.351 36.3794C155.751 36.0373 155.329 35.5804 155.084 35.0152C154.838 34.4559 154.712 33.2686 154.712 31.4644V21.2456H152.503V18.9051H154.712V14.5033L157.709 12.6998V18.9051H160.735V21.2456H157.709V31.6296C157.709 32.4921 157.761 33.0397 157.863 33.2855C157.972 33.5309 158.143 33.725 158.383 33.8735C158.623 34.0161 158.965 34.0902 159.411 34.0902C159.748 34.0902 160.187 34.0502 160.735 33.9704ZM175.27 34.4731C174.151 35.4206 173.077 36.0888 172.05 36.4822C171.017 36.8706 169.909 37.0645 168.728 37.0645C166.775 37.0645 165.279 36.591 164.229 35.6373C163.184 34.6841 162.659 33.4625 162.659 31.9838C162.659 31.1103 162.853 30.3168 163.252 29.5974C163.646 28.8786 164.166 28.3016 164.806 27.8677C165.45 27.4342 166.17 27.1025 166.975 26.8805C167.563 26.7263 168.453 26.5722 169.647 26.429C172.078 26.1378 173.871 25.796 175.018 25.3903C175.03 24.9793 175.035 24.7167 175.035 24.6084C175.035 23.3806 174.75 22.5133 174.179 22.0165C173.414 21.3311 172.267 20.9949 170.754 20.9949C169.338 20.9949 168.293 21.24 167.614 21.7368C166.941 22.2336 166.444 23.1126 166.118 24.3741L163.178 23.9684C163.447 22.7125 163.886 21.6909 164.497 20.9201C165.108 20.1439 165.999 19.5443 167.157 19.1276C168.316 18.711 169.658 18.4999 171.188 18.4999C172.707 18.4999 173.934 18.6823 174.881 19.0364C175.829 19.3964 176.526 19.8417 176.977 20.3836C177.422 20.9262 177.73 21.6054 177.913 22.4331C178.01 22.9468 178.061 23.8718 178.061 25.2074V29.221C178.061 32.0234 178.124 33.7934 178.255 34.5299C178.381 35.2721 178.637 35.9859 179.014 36.665H175.869C175.561 36.0429 175.356 35.3117 175.27 34.4731ZM175.018 27.7479C173.922 28.1989 172.284 28.5757 170.103 28.8896C168.864 29.0669 167.985 29.2663 167.477 29.4891C166.963 29.7117 166.564 30.0371 166.29 30.471C166.01 30.8992 165.867 31.3732 165.867 31.8983C165.867 32.7031 166.175 33.3713 166.78 33.9078C167.386 34.4388 168.276 34.7068 169.446 34.7068C170.606 34.7068 171.639 34.4559 172.541 33.9476C173.442 33.4397 174.11 32.7432 174.533 31.8639C174.859 31.1848 175.018 30.1798 175.018 28.8553V27.7479ZM182.742 36.665V12.1456H185.757V26.1268L192.881 18.9051H196.774L189.987 25.493L197.465 36.665H193.749L187.881 27.5822L185.757 29.6262V36.665H182.742ZM211.446 34.4731C210.327 35.4206 209.254 36.0888 208.227 36.4822C207.193 36.8706 206.086 37.0645 204.904 37.0645C202.951 37.0645 201.456 36.591 200.405 35.6373C199.36 34.6841 198.835 33.4625 198.835 31.9838C198.835 31.1103 199.029 30.3168 199.429 29.5974C199.823 28.8786 200.343 28.3016 200.982 27.8677C201.627 27.4342 202.346 27.1025 203.151 26.8805C203.739 26.7263 204.63 26.5722 205.823 26.429C208.255 26.1378 210.047 25.796 211.195 25.3903C211.206 24.9793 211.212 24.7167 211.212 24.6084C211.212 23.3806 210.926 22.5133 210.355 22.0165C209.591 21.3311 208.443 20.9949 206.93 20.9949C205.515 20.9949 204.47 21.24 203.791 21.7368C203.117 22.2336 202.621 23.1126 202.295 24.3741L199.355 23.9684C199.623 22.7125 200.063 21.6909 200.674 20.9201C201.284 20.1439 202.175 19.5443 203.334 19.1276C204.493 18.711 205.835 18.4999 207.364 18.4999C208.883 18.4999 210.11 18.6823 211.058 19.0364C212.006 19.3964 212.702 19.8417 213.153 20.3836C213.598 20.9262 213.907 21.6054 214.089 22.4331C214.186 22.9468 214.238 23.8718 214.238 25.2074V29.221C214.238 32.0234 214.3 33.7934 214.432 34.5299C214.557 35.2721 214.814 35.9859 215.191 36.665H212.045C211.737 36.0429 211.532 35.3117 211.446 34.4731ZM211.195 27.7479C210.099 28.1989 208.46 28.5757 206.279 28.8896C205.041 29.0669 204.161 29.2663 203.654 29.4891C203.14 29.7117 202.74 30.0371 202.466 30.471C202.187 30.8992 202.044 31.3732 202.044 31.8983C202.044 32.7031 202.352 33.3713 202.957 33.9078C203.562 34.4388 204.453 34.7068 205.623 34.7068C206.782 34.7068 207.815 34.4559 208.717 33.9476C209.619 33.4397 210.287 32.7432 210.71 31.8639C211.035 31.1848 211.195 30.1798 211.195 28.8553V27.7479ZM228.67 36.665V12.1456H237.872C239.744 12.1456 241.246 12.3971 242.376 12.8883C243.512 13.3844 244.397 14.1499 245.036 15.183C245.676 16.2107 246.002 17.2894 246.002 18.4198C246.002 19.4646 245.716 20.4522 245.145 21.3772C244.58 22.302 243.718 23.0496 242.57 23.6204C244.054 24.0542 245.19 24.7961 245.99 25.841C246.789 26.8915 247.189 28.1302 247.189 29.5575C247.189 30.7053 246.943 31.7728 246.458 32.7603C245.973 33.7481 245.373 34.5073 244.66 35.0439C243.946 35.5804 243.05 35.9799 241.977 36.2539C240.903 36.5279 239.585 36.665 238.021 36.665H228.67ZM231.918 22.4503H237.221C238.654 22.4503 239.688 22.3535 240.315 22.165C241.137 21.9191 241.76 21.5142 242.176 20.9434C242.593 20.372 242.805 19.6588 242.805 18.8021C242.805 17.9916 242.611 17.2722 242.222 16.656C241.828 16.0334 241.269 15.6112 240.55 15.383C239.825 15.1543 238.58 15.0406 236.816 15.0406H231.918V22.4503ZM231.918 33.7709H238.021C239.071 33.7709 239.807 33.7309 240.23 33.6563C240.978 33.5193 241.6 33.2968 242.102 32.9828C242.604 32.6745 243.016 32.2181 243.341 31.6243C243.661 31.0247 243.826 30.3399 243.826 29.5575C243.826 28.6442 243.592 27.8509 243.124 27.1712C242.656 26.4976 242.005 26.0241 241.172 25.7501C240.344 25.4815 239.145 25.3444 237.587 25.3444H231.918V33.7709ZM262.859 34.4731C261.74 35.4206 260.667 36.0888 259.64 36.4822C258.606 36.8706 257.498 37.0645 256.317 37.0645C254.364 37.0645 252.869 36.591 251.818 35.6373C250.773 34.6841 250.248 33.4625 250.248 31.9838C250.248 31.1103 250.443 30.3168 250.842 29.5974C251.236 28.8786 251.756 28.3016 252.395 27.8677C253.04 27.4342 253.759 27.1025 254.564 26.8805C255.152 26.7263 256.043 26.5722 257.236 26.429C259.668 26.1378 261.46 25.796 262.608 25.3903C262.619 24.9793 262.625 24.7167 262.625 24.6084C262.625 23.3806 262.339 22.5133 261.768 22.0165C261.004 21.3311 259.856 20.9949 258.343 20.9949C256.928 20.9949 255.883 21.24 255.204 21.7368C254.53 22.2336 254.033 23.1126 253.708 24.3741L250.768 23.9684C251.036 22.7125 251.476 21.6909 252.087 20.9201C252.697 20.1439 253.588 19.5443 254.747 19.1276C255.906 18.711 257.248 18.4999 258.777 18.4999C260.296 18.4999 261.523 18.6823 262.471 19.0364C263.419 19.3964 264.115 19.8417 264.566 20.3836C265.011 20.9262 265.32 21.6054 265.502 22.4331C265.599 22.9468 265.651 23.8718 265.651 25.2074V29.221C265.651 32.0234 265.713 33.7934 265.845 34.5299C265.97 35.2721 266.227 35.9859 266.604 36.665H263.458C263.15 36.0429 262.945 35.3117 262.859 34.4731ZM262.608 27.7479C261.512 28.1989 259.873 28.5757 257.692 28.8896C256.454 29.0669 255.574 29.2663 255.067 29.4891C254.553 29.7117 254.153 30.0371 253.879 30.471C253.6 30.8992 253.456 31.3732 253.456 31.8983C253.456 32.7031 253.765 33.3713 254.37 33.9078C254.975 34.4388 255.866 34.7068 257.036 34.7068C258.195 34.7068 259.229 34.4559 260.13 33.9476C261.032 33.4397 261.7 32.7432 262.123 31.8639C262.448 31.1848 262.608 30.1798 262.608 28.8553V27.7479ZM270.32 36.665V18.9051H273.027V21.4284C274.334 19.4757 276.218 18.4999 278.678 18.4999C279.751 18.4999 280.733 18.6938 281.629 19.0762C282.532 19.4646 283.2 19.9669 283.644 20.5946C284.096 21.2174 284.404 21.9596 284.587 22.8155C284.695 23.3751 284.753 24.3516 284.753 25.7445V36.665H281.738V25.8581C281.738 24.6366 281.624 23.7177 281.389 23.1066C281.156 22.5015 280.739 22.0165 280.145 21.6567C279.546 21.2914 278.849 21.1086 278.045 21.1086C276.76 21.1086 275.658 21.5196 274.722 22.3301C273.791 23.1469 273.329 24.688 273.329 26.9656V36.665H270.32ZM289.382 36.665V12.1456H292.396V26.1268L299.521 18.9051H303.414L296.627 25.493L304.105 36.665H300.388L294.52 27.5822L292.396 29.6262V36.665H289.382ZM316.259 36.665V12.1456H319.507V33.7709H331.581V36.665H316.259ZM341.634 33.9704L342.068 36.6307C341.223 36.8076 340.464 36.8993 339.796 36.8993C338.701 36.8993 337.856 36.728 337.25 36.3794C336.651 36.0373 336.228 35.5804 335.983 35.0152C335.737 34.4559 335.612 33.2686 335.612 31.4644V21.2456H333.403V18.9051H335.612V14.5033L338.609 12.6998V18.9051H341.634V21.2456H338.609V31.6296C338.609 32.4921 338.66 33.0397 338.763 33.2855C338.872 33.5309 339.043 33.725 339.282 33.8735C339.522 34.0161 339.865 34.0902 340.31 34.0902C340.647 34.0902 341.086 34.0502 341.634 33.9704ZM356.101 36.665V34.4215C354.976 36.1853 353.321 37.0645 351.134 37.0645C349.718 37.0645 348.416 36.6765 347.229 35.8941C346.042 35.1179 345.123 34.0277 344.466 32.623C343.815 31.2247 343.49 29.6205 343.49 27.7994C343.49 26.0295 343.787 24.4199 344.375 22.9755C344.969 21.5314 345.853 20.4235 347.035 19.6588C348.217 18.8879 349.542 18.4999 351.003 18.4999C352.07 18.4999 353.024 18.7282 353.857 19.1791C354.696 19.6298 355.376 20.2179 355.901 20.9434V12.1456H358.892V36.665H356.101ZM346.584 27.7994C346.584 30.0769 347.064 31.7783 348.023 32.9026C348.982 34.0277 350.112 34.5929 351.42 34.5929C352.732 34.5929 353.851 34.0502 354.77 32.9774C355.69 31.9036 356.152 30.26 356.152 28.0509C356.152 25.6184 355.683 23.8376 354.748 22.7015C353.812 21.5593 352.658 20.9949 351.283 20.9949C349.946 20.9949 348.828 21.5424 347.931 22.6331C347.035 23.7233 346.584 25.4471 346.584 27.7994ZM364.481 36.665V33.2344H367.912V36.665H364.481Z" fill="currentColor" stroke="currentColor" stroke-width="0.430154"/>
<path d="M228.23 41.0236H230.009L231.055 42.8441L232.102 41.0236H233.87L231.854 44.1572V46.4151H230.249V44.1572L228.23 41.0236ZM233.86 44.4733C233.86 43.8781 234.053 43.3863 234.44 43.0008C234.827 42.6141 235.348 42.421 236.006 42.421C236.758 42.421 237.326 42.6479 237.71 43.1013C238.019 43.4665 238.173 43.9173 238.173 44.4519C238.173 45.0522 237.981 45.5439 237.599 45.9282C237.216 46.311 236.686 46.5033 236.01 46.5033C235.406 46.5033 234.919 46.3435 234.546 46.0247C234.088 45.6308 233.86 45.1133 233.86 44.4733ZM235.302 44.4696C235.302 44.8181 235.37 45.0758 235.507 45.2415C235.642 45.408 235.812 45.4922 236.017 45.4922C236.225 45.4922 236.394 45.4091 236.528 45.2453C236.661 45.0806 236.728 44.8181 236.728 44.4542C236.728 44.1164 236.66 43.8644 236.527 43.6987C236.392 43.5341 236.225 43.4515 236.027 43.4515C235.817 43.4515 235.644 43.5354 235.508 43.7021C235.371 43.8705 235.302 44.1269 235.302 44.4696ZM243.185 46.4148H241.841V45.7823C241.64 46.0424 241.439 46.2277 241.235 46.337C241.031 46.4472 240.779 46.503 240.483 46.503C240.088 46.503 239.777 46.38 239.552 46.1336C239.327 45.8874 239.215 45.5078 239.215 44.9951V42.5101H240.66V44.6572C240.66 44.9026 240.704 45.0768 240.791 45.1798C240.879 45.2826 241.001 45.334 241.159 45.334C241.331 45.334 241.471 45.2653 241.582 45.1284C241.691 44.99 241.745 44.7441 241.745 44.3886V42.5101H243.185V46.4148ZM244.433 42.5101H245.781V43.1487C245.911 42.8729 246.045 42.6819 246.183 42.5779C246.32 42.4734 246.49 42.4208 246.693 42.4208C246.905 42.4208 247.137 42.4897 247.389 42.6267L246.944 43.6938C246.775 43.6196 246.64 43.5832 246.541 43.5832C246.353 43.5832 246.206 43.6643 246.103 43.8252C245.955 44.0539 245.88 44.4805 245.88 45.1059V46.4148H244.433V42.5101ZM251.358 41.0233H255.318V42.1822H252.966V43.1235H254.974V44.2119H252.966V46.4148H251.358V41.0233ZM257.572 43.7738L256.197 43.6234C256.249 43.3732 256.324 43.1761 256.421 43.0329C256.519 42.89 256.66 42.7656 256.844 42.6605C256.975 42.5841 257.158 42.5245 257.388 42.4838C257.619 42.4419 257.868 42.4208 258.138 42.4208C258.568 42.4208 258.916 42.4457 259.176 42.4959C259.438 42.546 259.657 42.6519 259.83 42.8109C259.953 42.9216 260.05 43.0772 260.121 43.2796C260.192 43.4826 260.226 43.6748 260.226 43.859V45.5842C260.226 45.767 260.239 45.9113 260.26 46.0161C260.283 46.1199 260.331 46.2528 260.407 46.4148H259.057C259.003 46.3145 258.968 46.2381 258.951 46.1856C258.934 46.1322 258.918 46.0496 258.901 45.9364C258.713 46.126 258.525 46.2606 258.339 46.3408C258.084 46.4486 257.788 46.503 257.453 46.503C257.004 46.503 256.664 46.3947 256.431 46.1786C256.199 45.9641 256.083 45.6978 256.083 45.3817C256.083 45.0844 256.167 44.8409 256.335 44.65C256.502 44.4577 256.81 44.3159 257.26 44.2229C257.801 44.1102 258.151 44.0314 258.311 43.9861C258.471 43.9408 258.64 43.8802 258.82 43.8075C258.82 43.6234 258.783 43.4949 258.711 43.4209C258.637 43.348 258.509 43.3107 258.324 43.3107C258.089 43.3107 257.913 43.3507 257.795 43.429C257.703 43.4901 257.628 43.6057 257.572 43.7738ZM258.82 44.5607C258.622 44.6353 258.414 44.7002 258.201 44.757C257.909 44.8371 257.724 44.9173 257.646 44.9951C257.566 45.0768 257.526 45.1689 257.526 45.2715C257.526 45.3895 257.566 45.485 257.644 45.5603C257.724 45.6343 257.84 45.6716 257.993 45.6716C258.153 45.6716 258.301 45.6319 258.44 45.5512C258.578 45.4696 258.675 45.3704 258.733 45.2549C258.792 45.138 258.82 44.9865 258.82 44.8004L258.82 44.5607ZM261.462 42.5101H262.805V43.0796C262.999 42.8409 263.194 42.6728 263.391 42.5712C263.587 42.4709 263.825 42.4208 264.104 42.4208C264.403 42.4208 264.64 42.4757 264.813 42.5865C264.989 42.6967 265.131 42.8611 265.241 43.0796C265.467 42.8251 265.674 42.6506 265.86 42.5589C266.047 42.4672 266.276 42.4208 266.55 42.4208C266.953 42.4208 267.268 42.545 267.493 42.7951C267.72 43.0433 267.833 43.4324 267.833 43.9623V46.4148H266.391V44.1904C266.391 44.0137 266.358 43.8816 266.292 43.7966C266.194 43.662 266.074 43.5946 265.931 43.5946C265.762 43.5946 265.624 43.6582 265.52 43.785C265.417 43.9135 265.366 44.1178 265.366 44.4004V46.4148H263.923V44.2634C263.923 44.0915 263.912 43.9756 263.895 43.9145C263.864 43.8167 263.81 43.7372 263.736 43.6773C263.66 43.6166 263.572 43.5866 263.47 43.5866C263.304 43.5866 263.169 43.652 263.063 43.7812C262.957 43.9121 262.904 44.125 262.904 44.4218V46.4148H261.462V42.5101ZM269.107 41.0233H270.547V42.0425H269.107V41.0233ZM269.107 42.5101H270.547V46.4148H269.107V42.5101ZM271.877 41.0233H273.32V46.4148H271.877V41.0233ZM274.309 42.5101H275.829L276.603 45.1093L277.321 42.5101H278.739L277.25 46.6835C277.081 47.1594 276.907 47.4806 276.73 47.6463C276.48 47.8825 276.1 48 275.589 48C275.38 48 275.061 47.9699 274.626 47.9112L274.514 46.8668C274.721 46.9361 274.952 46.9698 275.207 46.9698C275.376 46.9698 275.513 46.9293 275.619 46.8491C275.724 46.7679 275.812 46.6234 275.885 46.4148L274.309 42.5101ZM282.869 41.0233H285.868C286.368 41.0233 286.751 41.1531 287.018 41.41C287.286 41.6676 287.42 41.9864 287.42 42.3655C287.42 42.6844 287.325 42.9578 287.134 43.1865C287.006 43.3384 286.821 43.4587 286.575 43.5469C286.947 43.6392 287.221 43.8003 287.397 44.0258C287.573 44.2534 287.66 44.5384 287.66 44.8811C287.66 45.1608 287.597 45.4123 287.473 45.6354C287.347 45.8587 287.177 46.0343 286.961 46.1652C286.827 46.2454 286.624 46.3041 286.353 46.3408C285.991 46.3899 285.752 46.4148 285.634 46.4148H282.869V41.0233ZM284.485 43.1389H285.182C285.431 43.1389 285.605 43.0936 285.704 43.0043C285.802 42.9136 285.85 42.7846 285.85 42.6166C285.85 42.4599 285.802 42.3369 285.704 42.2487C285.605 42.1594 285.435 42.1154 285.193 42.1154H284.485V43.1389ZM284.485 45.2563H285.302C285.578 45.2563 285.773 45.2061 285.885 45.1044C285.998 45.0029 286.055 44.8659 286.055 44.694C286.055 44.5342 286 44.4066 285.888 44.3097C285.776 44.2132 285.579 44.1641 285.299 44.1641H284.485V45.2563ZM290.076 43.7738L288.702 43.6234C288.754 43.3732 288.828 43.1761 288.927 43.0329C289.024 42.89 289.164 42.7656 289.349 42.6605C289.48 42.5841 289.662 42.5245 289.893 42.4838C290.123 42.4419 290.374 42.4208 290.642 42.4208C291.073 42.4208 291.421 42.4457 291.682 42.4959C291.943 42.546 292.162 42.6519 292.335 42.8109C292.459 42.9216 292.555 43.0772 292.627 43.2796C292.697 43.4826 292.731 43.6748 292.731 43.859V45.5842C292.731 45.767 292.744 45.9113 292.765 46.0161C292.787 46.1199 292.837 46.2528 292.912 46.4148H291.562C291.507 46.3145 291.472 46.2381 291.456 46.1856C291.439 46.1322 291.423 46.0496 291.406 45.9364C291.218 46.126 291.029 46.2606 290.844 46.3408C290.589 46.4486 290.293 46.503 289.957 46.503C289.509 46.503 289.169 46.3947 288.936 46.1786C288.704 45.9641 288.588 45.6978 288.588 45.3817C288.588 45.0844 288.672 44.8409 288.839 44.65C289.007 44.4577 289.315 44.3159 289.765 44.2229C290.306 44.1102 290.656 44.0314 290.817 43.9861C290.976 43.9408 291.146 43.8802 291.324 43.8075C291.324 43.6234 291.288 43.4949 291.216 43.4209C291.142 43.348 291.014 43.3107 290.829 43.3107C290.594 43.3107 290.418 43.3507 290.3 43.429C290.208 43.4901 290.133 43.6057 290.076 43.7738ZM291.324 44.5607C291.126 44.6353 290.92 44.7002 290.706 44.757C290.415 44.8371 290.229 44.9173 290.151 44.9951C290.07 45.0768 290.03 45.1689 290.03 45.2715C290.03 45.3895 290.07 45.485 290.149 45.5603C290.229 45.6343 290.344 45.6716 290.497 45.6716C290.658 45.6716 290.806 45.6319 290.945 45.5512C291.083 45.4696 291.181 45.3704 291.239 45.2549C291.296 45.138 291.324 44.9865 291.324 44.8004V44.5607ZM293.956 42.5101H295.296V43.145C295.497 42.8849 295.7 42.7007 295.904 42.5889C296.11 42.4769 296.36 42.4208 296.655 42.4208C297.053 42.4208 297.364 42.545 297.59 42.7908C297.814 43.0372 297.926 43.4172 297.926 43.9317V46.4148H296.481V44.2668C296.481 44.0223 296.437 43.8491 296.35 43.7475C296.262 43.6448 296.14 43.5946 295.982 43.5946C295.808 43.5946 295.666 43.663 295.558 43.8003C295.45 43.9373 295.396 44.1843 295.396 44.5398V46.4148H293.956V42.5101ZM299.147 41.0233H300.619V43.8037L301.694 42.5101H303.465L302.117 43.8778L303.542 46.4148H301.919L301.159 44.8481L300.619 45.3994V46.4148H299.147V41.0233ZM304.343 44.9149H305.881V46.4148H304.343V44.9149ZM313.658 45.5246H311.832L311.582 46.4148H309.945L311.893 41.0233H313.639L315.588 46.4148H313.912L313.658 45.5246ZM313.322 44.3588L312.749 42.4208L312.179 44.3588H313.322ZM319.168 44.8886L320.535 45.0506C320.46 45.3466 320.336 45.6042 320.165 45.821C319.992 46.0381 319.772 46.2062 319.504 46.3268C319.238 46.4462 318.897 46.5065 318.485 46.5065C318.087 46.5065 317.754 46.4674 317.491 46.3909C317.225 46.3132 316.997 46.189 316.807 46.0161C316.614 45.8423 316.465 45.6405 316.357 45.4067C316.249 45.1747 316.194 44.8659 316.194 44.4805C316.194 44.0792 316.26 43.744 316.393 43.4767C316.489 43.2807 316.621 43.1045 316.788 42.9492C316.956 42.7932 317.127 42.6771 317.304 42.6018C317.585 42.4811 317.944 42.4208 318.382 42.4208C318.996 42.4208 319.462 42.535 319.784 42.7632C320.105 42.9908 320.332 43.3241 320.462 43.7641L319.107 43.9507C319.065 43.7837 318.988 43.6582 318.876 43.5746C318.764 43.4888 318.614 43.4471 318.424 43.4471C318.187 43.4471 317.994 43.5364 317.846 43.7134C317.699 43.892 317.626 44.1604 317.626 44.5207C317.626 44.842 317.699 45.0854 317.845 45.2525C317.991 45.4195 318.177 45.5021 318.404 45.5021C318.592 45.5021 318.75 45.452 318.88 45.3517C319.007 45.2514 319.104 45.0973 319.168 44.8886ZM321.573 42.5101H322.919V43.1487C323.05 42.8729 323.184 42.6819 323.321 42.5779C323.459 42.4734 323.63 42.4208 323.832 42.4208C324.044 42.4208 324.276 42.4897 324.528 42.6267L324.083 43.6938C323.914 43.6196 323.779 43.5832 323.68 43.5832C323.492 43.5832 323.345 43.6643 323.242 43.8252C323.094 44.0539 323.019 44.4805 323.019 45.1059V46.4148H321.573V42.5101ZM325.075 44.4731C325.075 43.8778 325.268 43.386 325.654 43.0005C326.042 42.6138 326.563 42.4208 327.221 42.4208C327.972 42.4208 328.541 42.6476 328.924 43.101C329.234 43.4663 329.388 43.917 329.388 44.4516C329.388 45.0519 329.196 45.5436 328.814 45.9279C328.431 46.3107 327.901 46.503 327.224 46.503C326.621 46.503 326.134 46.3432 325.761 46.0244C325.304 45.6305 325.075 45.113 325.075 44.4731ZM326.517 44.4693C326.517 44.8178 326.585 45.0755 326.721 45.2412C326.857 45.4077 327.027 45.4919 327.232 45.4919C327.439 45.4919 327.609 45.4088 327.742 45.245C327.876 45.0803 327.942 44.8178 327.942 44.454C327.942 44.1162 327.875 43.8641 327.741 43.6984C327.607 43.5338 327.44 43.4512 327.242 43.4512C327.032 43.4512 326.859 43.5351 326.723 43.7019C326.586 43.8702 326.517 44.1266 326.517 44.4693ZM330.188 45.3337L331.617 45.1934C331.676 45.3701 331.758 45.497 331.865 45.5721C331.97 45.6488 332.112 45.6865 332.289 45.6865C332.482 45.6865 332.632 45.6437 332.738 45.5576C332.82 45.4946 332.861 45.4144 332.861 45.319C332.861 45.2107 332.807 45.1281 332.7 45.0688C332.621 45.0277 332.414 44.9763 332.08 44.9146C331.581 44.8227 331.233 44.7401 331.039 44.6626C330.845 44.5843 330.681 44.454 330.548 44.2704C330.413 44.0874 330.348 43.8775 330.348 43.6421C330.348 43.3844 330.42 43.1624 330.563 42.9764C330.707 42.7892 330.905 42.6503 331.157 42.5586C331.409 42.4669 331.748 42.4205 332.172 42.4205C332.619 42.4205 332.95 42.457 333.164 42.527C333.378 42.5983 333.555 42.709 333.697 42.8583C333.84 43.0077 333.958 43.2101 334.053 43.4645L332.688 43.6054C332.653 43.4799 332.594 43.3882 332.511 43.3295C332.398 43.2498 332.262 43.2115 332.101 43.2115C331.939 43.2115 331.82 43.2412 331.746 43.3013C331.671 43.3619 331.635 43.4346 331.635 43.5198C331.635 43.6164 331.682 43.688 331.776 43.737C331.871 43.7858 332.076 43.8298 332.391 43.8702C332.87 43.9266 333.226 44.0044 333.458 44.1051C333.692 44.2055 333.871 44.3486 333.994 44.5352C334.119 44.7213 334.18 44.9261 334.18 45.1495C334.18 45.3752 334.115 45.5949 333.984 45.8083C333.853 46.0218 333.647 46.1912 333.365 46.3167C333.083 46.4433 332.7 46.5062 332.214 46.5062C331.529 46.5062 331.04 46.4049 330.749 46.2011C330.458 45.9978 330.271 45.708 330.188 45.3337ZM334.973 45.3337L336.402 45.1934C336.461 45.3701 336.543 45.497 336.65 45.5721C336.755 45.6488 336.896 45.6865 337.074 45.6865C337.267 45.6865 337.417 45.6437 337.523 45.5576C337.605 45.4946 337.646 45.4144 337.646 45.319C337.646 45.2107 337.592 45.1281 337.485 45.0688C337.406 45.0277 337.2 44.9763 336.865 44.9146C336.366 44.8227 336.018 44.7401 335.824 44.6626C335.63 44.5843 335.465 44.454 335.333 44.2704C335.199 44.0874 335.132 43.8775 335.132 43.6421C335.132 43.3844 335.205 43.1624 335.349 42.9764C335.492 42.7892 335.69 42.6503 335.942 42.5586C336.194 42.4669 336.532 42.4205 336.957 42.4205C337.405 42.4205 337.735 42.457 337.949 42.527C338.163 42.5983 338.34 42.709 338.482 42.8583C338.625 43.0077 338.743 43.2101 338.839 43.4645L337.474 43.6054C337.438 43.4799 337.38 43.3882 337.296 43.3295C337.183 43.2498 337.047 43.2115 336.886 43.2115C336.724 43.2115 336.605 43.2412 336.531 43.3013C336.456 43.3619 336.42 43.4346 336.42 43.5198C336.42 43.6164 336.467 43.688 336.561 43.737C336.655 43.7858 336.861 43.8298 337.176 43.8702C337.655 43.9266 338.01 44.0044 338.243 44.1051C338.478 44.2055 338.656 44.3486 338.779 44.5352C338.904 44.7213 338.965 44.9261 338.965 45.1495C338.965 45.3752 338.9 45.5949 338.769 45.8083C338.638 46.0218 338.432 46.1912 338.15 46.3167C337.868 46.4433 337.485 46.5062 337 46.5062C336.314 46.5062 335.825 46.4049 335.534 46.2011C335.243 45.9978 335.056 45.708 334.973 45.3337ZM343.432 41.023H345.037V46.4145H343.432V41.023ZM346.453 42.5098H347.793V43.1447C347.994 42.8846 348.197 42.7005 348.402 42.5887C348.607 42.4766 348.857 42.4205 349.152 42.4205C349.55 42.4205 349.861 42.5447 350.086 42.7905C350.311 43.0369 350.423 43.4169 350.423 43.9314V46.4145H348.977V44.2666C348.977 44.0221 348.934 43.8489 348.847 43.7472C348.759 43.6446 348.637 43.5943 348.479 43.5943C348.305 43.5943 348.163 43.6627 348.055 43.8001C347.947 43.937 347.892 44.184 347.892 44.5396V46.4145H346.453V42.5098ZM355.597 41.023V46.4145H354.251V45.8369C354.061 46.0817 353.89 46.2475 353.734 46.3344C353.527 46.4459 353.296 46.5027 353.042 46.5027C352.53 46.5027 352.139 46.3003 351.868 45.8965C351.6 45.4919 351.465 45.0002 351.465 44.4215C351.465 43.7735 351.613 43.2793 351.912 42.9361C352.211 42.5923 352.589 42.4205 353.048 42.4205C353.273 42.4205 353.475 42.4608 353.658 42.5385C353.841 42.6173 354.002 42.7342 354.145 42.8913V41.023H355.597ZM354.154 44.4513C354.154 44.1438 354.093 43.9155 353.967 43.7649C353.843 43.6139 353.685 43.5386 353.494 43.5386C353.326 43.5386 353.187 43.6115 353.073 43.7558C352.96 43.9003 352.903 44.1424 352.903 44.4837C352.903 44.8025 352.962 45.0363 353.078 45.1844C353.195 45.3324 353.34 45.4064 353.511 45.4064C353.696 45.4064 353.849 45.3324 353.971 45.183C354.094 45.0326 354.154 44.7892 354.154 44.4513ZM356.889 41.023H358.329V42.0422H356.889V41.023ZM356.889 42.5098H358.329V46.4145H356.889V42.5098ZM360.921 43.7735L359.547 43.6231C359.599 43.3729 359.673 43.1759 359.771 43.0327C359.869 42.8897 360.009 42.7653 360.194 42.6603C360.325 42.5838 360.507 42.5242 360.738 42.4836C360.968 42.4417 361.218 42.4205 361.487 42.4205C361.918 42.4205 362.265 42.4454 362.526 42.4956C362.788 42.5457 363.007 42.6517 363.18 42.8107C363.303 42.9213 363.399 43.0769 363.471 43.2793C363.542 43.4823 363.576 43.6745 363.576 43.8587V45.5839C363.576 45.7668 363.588 45.911 363.609 46.0158C363.633 46.1196 363.681 46.2526 363.757 46.4145H362.407C362.352 46.3142 362.317 46.2378 362.3 46.1853C362.284 46.132 362.268 46.0493 362.251 45.9362C362.063 46.1257 361.874 46.2603 361.689 46.3405C361.434 46.4483 361.138 46.5027 360.802 46.5027C360.354 46.5027 360.014 46.3944 359.781 46.1783C359.549 45.9638 359.433 45.6975 359.433 45.3814C359.433 45.0841 359.517 44.8406 359.684 44.6497C359.852 44.4575 360.16 44.3157 360.61 44.2226C361.151 44.1099 361.501 44.0311 361.661 43.9858C361.821 43.9405 361.991 43.8799 362.169 43.8072C362.169 43.6231 362.133 43.4946 362.06 43.4207C361.987 43.3477 361.859 43.3105 361.674 43.3105C361.439 43.3105 361.263 43.3504 361.145 43.4287C361.053 43.4898 360.978 43.6054 360.921 43.7735ZM362.169 44.5605C361.971 44.635 361.764 44.6999 361.551 44.7567C361.26 44.8368 361.074 44.9171 360.996 44.9948C360.915 45.0765 360.875 45.1686 360.875 45.2712C360.875 45.3892 360.915 45.4847 360.994 45.56C361.074 45.634 361.189 45.6713 361.342 45.6713C361.503 45.6713 361.651 45.6316 361.79 45.5509C361.928 45.4694 362.025 45.3701 362.083 45.2546C362.141 45.1377 362.169 44.9862 362.169 44.8001V44.5605ZM364.805 44.9146H366.343V46.4145H364.805V44.9146Z" fill="currentColor"/>
<path fill-rule="evenodd" clip-rule="evenodd" d="M37.276 32.7563L33.7947 27.0959L30.3804 32.7563H37.276ZM37.2694 15.2011H30.3378L33.7921 20.7481L37.2694 15.2011ZM21.0411 6.39039L17.6069 12.0205H24.5036L21.0411 6.39039ZM4.88699 15.2011L8.31444 20.7824L11.7245 15.2011H4.88699ZM4.88321 32.8038L11.7303 32.7617L8.31547 27.1512L4.88321 32.8038ZM-0.972656 12.0205H13.7384L20.6583 0.714478L21.0955 -0.000328064L21.5331 0.714478L28.4527 12.0205H43.1634L42.7253 12.7319L35.8071 23.9648L42.7272 35.2781L43.1623 35.9895H28.4524L21.5331 47.2692L21.0955 47.9824L20.6583 47.2692L13.7387 35.9895H-0.971237L-0.536411 35.2781L6.38344 23.9648L-0.53452 12.7319L-0.972656 12.0205ZM15.6636 15.3072L10.0894 23.9675L15.6636 32.7033H26.5269L32.1013 23.9675L26.5269 15.3072H15.6636ZM21.0901 41.5724L24.5042 35.9895H17.6139L21.0901 41.5724ZM20.696 20.2804C21.782 20.2804 22.7698 20.6979 23.4856 21.3715V21.3696C24.2001 22.0412 24.644 22.9695 24.644 23.9919C24.644 25.0126 24.2001 25.9401 23.4856 26.6123V26.6142C22.7714 27.2859 21.7833 27.7031 20.696 27.7031C19.6088 27.7031 18.6213 27.2859 17.9069 26.6142H17.9088C17.1924 25.9409 16.7481 25.0124 16.7481 23.9917C16.7481 22.9719 17.1914 22.0442 17.9067 21.3713C17.9072 21.3707 17.9085 21.3694 17.9085 21.3694C18.6242 20.6969 19.6114 20.2804 20.696 20.2804Z" fill="currentColor"/>
</g>
<defs>
<clipPath id="clip0_3396_56954">
<rect width="370" height="48" fill="currentColor"/>
</clipPath>
</defs>
</svg>
