<svg width="64" height="64" viewBox="0 0 64 64" fill="none" xmlns="http://www.w3.org/2000/svg">
<g clip-path="url(#clip0_3396_56155)">
<path d="M31.9996 61.8453C48.6908 61.8453 62.2218 48.4834 62.2218 32.0008C62.2218 15.5181 48.6908 2.15625 31.9996 2.15625C15.3083 2.15625 1.77734 15.5181 1.77734 32.0008C1.77734 48.4834 15.3083 61.8453 31.9996 61.8453Z" fill="#E7E514"/>
<path fill-rule="evenodd" clip-rule="evenodd" d="M33.3654 36.8788L29.2312 27.2826C29.2312 27.2769 29.217 27.2684 29.217 27.2626V27.2384L29.1884 27.1741C28.9461 26.6307 28.661 26.2569 28.3331 26.0543C28.3046 26.0344 28.2475 25.9987 28.162 25.9616C28.0765 25.9174 28.0195 25.886 27.991 25.8646C27.8199 25.8175 27.7059 25.769 27.6488 25.7134C27.5918 25.6606 27.5633 25.5836 27.5633 25.488C27.5633 25.3825 27.6203 25.2983 27.7059 25.2312C27.8056 25.1656 27.9339 25.1285 28.0908 25.1285C28.1478 25.1285 28.2333 25.1371 28.3616 25.1571C28.4044 25.1599 28.4472 25.1656 28.4614 25.1656L28.4899 25.1727C28.9746 25.227 29.4023 25.254 29.7729 25.254C30.0295 25.254 30.2861 25.2484 30.557 25.237C30.8278 25.227 31.1415 25.2098 31.4837 25.1899C31.5834 25.1841 31.726 25.1727 31.9541 25.1571C32.1679 25.1371 32.3247 25.1285 32.4245 25.1285C32.5813 25.1285 32.6953 25.1571 32.7524 25.2042C32.8094 25.254 32.8379 25.3382 32.8379 25.4552C32.8379 25.5551 32.8236 25.6364 32.7667 25.6892C32.7381 25.742 32.6384 25.8005 32.4815 25.8646C32.453 25.8818 32.4388 25.8889 32.4245 25.8946C32.4245 25.8946 32.4103 25.9003 32.396 25.906C32.0253 26.0758 31.8258 26.3126 31.8258 26.605C31.8258 26.7005 31.8543 26.8318 31.897 26.9987C31.9541 27.1627 32.0253 27.3553 32.1108 27.575L34.6199 33.5436C34.6342 33.605 34.6769 33.6606 34.7054 33.702C34.7482 33.7376 34.8052 33.7576 34.848 33.7576C34.8908 33.7576 34.9478 33.7404 34.9906 33.702C35.0333 33.6691 35.0761 33.6149 35.1046 33.5522L37.3855 28.1214C37.4711 27.9174 37.5281 27.7148 37.5851 27.5137C37.6278 27.3154 37.6564 27.1428 37.6564 26.9987C37.6564 26.7177 37.5851 26.488 37.4425 26.3182C37.2857 26.1485 37.0576 26.023 36.744 25.9374C36.7012 25.9174 36.63 25.9003 36.5587 25.8818C36.5302 25.8731 36.5159 25.8703 36.5159 25.8646H36.5017C36.131 25.7748 35.9457 25.6278 35.9457 25.4238C35.9457 25.3183 35.9884 25.2484 36.0598 25.1899C36.131 25.1371 36.2308 25.1128 36.3733 25.1128C36.4019 25.1128 36.4304 25.1143 36.4874 25.1228C36.5444 25.1257 36.6014 25.1285 36.6442 25.1285C36.6727 25.1342 36.7012 25.1399 36.744 25.1485C37.3 25.2042 37.8132 25.237 38.2837 25.237C38.4832 25.237 38.697 25.2341 38.8966 25.2212C39.0962 25.2042 39.31 25.1813 39.5524 25.1485C39.5809 25.1485 39.6236 25.1428 39.6664 25.1371C39.7092 25.1314 39.7519 25.1285 39.7519 25.1285C39.8945 25.1342 39.98 25.1599 40.0228 25.2013C40.0656 25.2426 40.0941 25.3154 40.0941 25.4238C40.0941 25.5936 39.9658 25.7619 39.7092 25.9117L39.695 25.9203C39.695 25.926 39.6807 25.9374 39.6522 25.9559C39.5524 26.0116 39.4811 26.0629 39.4241 26.1043C39.2103 26.294 38.9394 26.7391 38.6258 27.438C38.5972 27.5137 38.5687 27.5665 38.5545 27.6064C38.5402 27.6278 38.5402 27.6507 38.526 27.6835C38.5117 27.7063 38.4975 27.7476 38.4689 27.8089L34.8765 35.8745C34.8622 35.9031 34.848 35.9387 34.8337 35.9815C34.8052 36.02 34.7767 36.0814 34.7482 36.1599C34.5059 36.7133 34.3205 37.0643 34.2065 37.2098C34.0924 37.3552 33.9641 37.4266 33.8359 37.4266C33.736 37.4266 33.6647 37.3909 33.5935 37.3181C33.5222 37.2455 33.4509 37.0985 33.3654 36.8788ZM47.0652 25.0643V26.0058C46.8086 25.9003 46.5234 25.8447 46.1955 25.8447C45.7108 25.8447 45.383 25.9445 45.1977 26.1513C45.0266 26.3582 44.9411 26.809 44.9411 27.5051V29.1941C44.9411 29.6178 45.0408 29.9046 45.2547 30.0715C45.4543 30.2412 45.8249 30.3225 46.3239 30.3225C46.5947 30.3225 46.8371 30.2997 47.0652 30.2583V31.177C46.7515 31.1214 46.4236 31.0914 46.053 31.0914C45.5255 31.0914 45.212 31.1385 45.0979 31.2312C44.9981 31.3225 44.9411 31.5792 44.9411 32.0001V34.9002C44.9411 35.505 45.0408 35.8974 45.2689 36.07C45.4827 36.2454 45.9105 36.3353 46.5234 36.3353C46.7088 36.3353 46.8941 36.3239 47.0652 36.3011V37.1342C46.8228 37.1427 46.5805 37.1512 46.3381 37.1512C45.9247 37.1512 45.3972 37.137 44.7557 37.1185C44.5989 37.1099 44.4849 37.0985 44.4278 37.0985C44.3851 37.0985 44.328 37.0985 44.2711 37.0928C43.9716 37.0728 43.7864 37.0643 43.6866 37.0643C43.3729 37.0643 43.0593 37.0728 42.7742 37.0985C42.4748 37.1185 42.1755 37.1427 41.8618 37.1841C41.8191 37.1898 41.7763 37.1984 41.705 37.2012C41.5625 37.2155 41.4627 37.2212 41.4056 37.2212C41.3058 37.2212 41.2203 37.1812 41.149 37.1099C41.0778 37.04 41.0492 36.953 41.0492 36.8617C41.0492 36.7661 41.0778 36.6834 41.1348 36.6192C41.1918 36.5522 41.3201 36.4708 41.5054 36.3824L41.5339 36.3652C41.8048 36.2312 41.9758 36.1042 42.0756 35.973C42.1897 35.8274 42.261 35.6349 42.3037 35.4095C42.3608 35.1813 42.3893 34.769 42.3893 34.1698V27.8817C42.3893 27.3639 42.3465 26.9787 42.2753 26.7277C42.2039 26.478 42.0756 26.2826 41.9189 26.1371C41.7478 26.0058 41.5054 25.9089 41.1775 25.8389C41.1775 25.8389 41.1633 25.8361 41.149 25.8304L40.8924 25.7776C40.8354 25.7662 40.7926 25.722 40.7356 25.6606C40.7071 25.5936 40.6786 25.5294 40.6786 25.4552C40.6786 25.3653 40.7214 25.2855 40.7784 25.2212C40.8497 25.1485 40.9352 25.1128 41.0207 25.1128C41.0635 25.1128 41.1063 25.1128 41.1348 25.1143C41.1633 25.1171 41.2061 25.1228 41.2346 25.1285C41.6052 25.1685 41.9758 25.1956 42.3465 25.2098C42.7029 25.2312 43.0878 25.237 43.4727 25.237C43.7008 25.237 43.9289 25.2341 44.1855 25.2212C44.4278 25.2042 44.713 25.1785 45.0266 25.1485C45.1121 25.1485 45.2547 25.1371 45.4258 25.1228C46.0388 25.0815 46.495 25.0615 46.8086 25.0615C46.8941 25.0615 46.9797 25.0615 47.0652 25.0643ZM16.0446 34.1698V27.8817C16.0446 27.3639 16.0019 26.9787 15.9306 26.7277C15.8593 26.4823 15.7453 26.2826 15.5742 26.1371C15.4887 26.0672 15.3889 26.0058 15.2891 25.9645C15.1751 25.9174 15.0182 25.8732 14.8044 25.8304C14.7901 25.8233 14.7616 25.8175 14.7189 25.8147C14.7046 25.8061 14.6475 25.7947 14.562 25.7776C14.505 25.7662 14.4623 25.722 14.4052 25.6606C14.3625 25.5936 14.334 25.5279 14.334 25.4552C14.334 25.3439 14.3767 25.254 14.4623 25.1899C14.5478 25.1257 14.6618 25.0957 14.8044 25.0957H14.9327C14.9612 25.1014 15.0039 25.1043 15.0467 25.1128C15.061 25.1171 15.0753 25.1228 15.0895 25.1228C15.7595 25.187 16.401 25.2212 17.0283 25.2212C17.684 25.2212 18.3541 25.1841 19.0526 25.1128C19.1239 25.1043 19.1667 25.1014 19.1952 25.0957C19.2379 25.09 19.2665 25.0871 19.3092 25.0871C19.3377 25.0815 19.3662 25.0786 19.409 25.0786C19.5373 25.0786 19.6514 25.11 19.7226 25.1756C19.8081 25.237 19.8367 25.3183 19.8367 25.4209C19.8367 25.5722 19.7084 25.7006 19.4517 25.8147C19.4233 25.8233 19.409 25.8304 19.409 25.8304C19.295 25.8561 19.2094 25.8889 19.1381 25.9203C19.0669 25.956 19.0098 25.9958 18.9671 26.0372C18.8388 26.1599 18.7389 26.3068 18.6962 26.478C18.6392 26.6478 18.6107 26.973 18.6107 27.4723V30.3953C18.6107 30.4808 18.6249 30.5536 18.6534 30.6121C18.6962 30.6706 18.7247 30.6991 18.7675 30.6991C18.7817 30.6991 18.8245 30.682 18.8815 30.6449C18.9386 30.6178 18.9956 30.5707 19.0526 30.5123L22.1176 27.6949C22.4598 27.3824 22.7163 27.1185 22.8589 26.9089C23.0014 26.7005 23.0727 26.5052 23.0727 26.3296C23.0727 26.0729 22.9017 25.9089 22.5453 25.8389L22.531 25.8304H22.4882H22.4455C22.4455 25.8304 22.4312 25.8261 22.417 25.8233C22.1461 25.7534 22.0178 25.6278 22.0178 25.4552C22.0178 25.3382 22.0463 25.254 22.1034 25.2098C22.1603 25.1599 22.2601 25.1342 22.417 25.1285C22.4882 25.1285 22.5453 25.1285 22.6023 25.1314C22.6593 25.1342 22.7163 25.1399 22.7734 25.1485C22.8019 25.1514 22.8589 25.1571 22.9159 25.1571C23.4719 25.187 23.9423 25.2042 24.3558 25.2042C24.8262 25.2042 25.3251 25.187 25.8384 25.1571L25.8811 25.1485C25.9096 25.1399 25.9524 25.1342 25.9809 25.1314C26.0094 25.1285 26.0379 25.1285 26.0807 25.1285C26.2517 25.1285 26.3943 25.1514 26.4514 25.1956C26.5084 25.2398 26.5512 25.3183 26.5512 25.4381C26.5512 25.5551 26.5226 25.6392 26.4798 25.6892C26.4514 25.7391 26.3373 25.7862 26.152 25.8389C26.1377 25.8447 26.1092 25.8561 26.0664 25.8732C25.9239 25.9317 25.8098 25.9816 25.7386 26.0201C25.1684 26.2769 24.4413 26.7976 23.5717 27.5779L23.5147 27.6221L23.4719 27.6777L21.861 29.1128C21.747 29.2027 21.6756 29.274 21.6329 29.3282C21.6044 29.3896 21.5759 29.4395 21.5759 29.4894C21.5759 29.5222 21.5901 29.5679 21.6187 29.6235C21.6472 29.682 21.6899 29.7647 21.7612 29.8817L25.5389 35.3938C25.71 35.6306 25.8669 35.8246 26.0094 35.9615C26.1662 36.0985 26.3231 36.2041 26.4941 36.2854C26.5512 36.3125 26.6081 36.3382 26.7079 36.3567L26.7222 36.3652C26.8505 36.3909 26.9218 36.4295 26.9503 36.4737C26.9788 36.525 26.9931 36.6135 26.9931 36.7448C26.9931 36.8974 26.9645 37.0029 26.8933 37.0571C26.822 37.1099 26.6795 37.1342 26.4798 37.1342C26.38 37.1342 26.3088 37.1313 26.2517 37.1313C26.1948 37.1256 26.152 37.1228 26.1092 37.1199C25.9524 37.1099 25.8098 37.0985 25.6815 37.0928C25.5532 37.0871 25.4249 37.0842 25.2966 37.0842C24.9545 37.0842 24.5838 37.0985 24.1847 37.1342H24.1561C24.1134 37.1398 24.0849 37.1427 24.0564 37.1484C24.0278 37.1512 23.9994 37.1512 23.9709 37.1512C23.7997 37.1512 23.6287 37.0643 23.4434 36.8945C23.2581 36.7191 23.03 36.4152 22.7448 35.973L19.8652 31.5907C19.8081 31.5008 19.7512 31.4395 19.7084 31.4038C19.6656 31.3696 19.6086 31.351 19.58 31.351C19.5373 31.351 19.4945 31.3582 19.466 31.3696C19.4375 31.3839 19.409 31.4038 19.3805 31.4338L18.853 31.9245C18.7532 32.0243 18.682 32.1085 18.6534 32.1727C18.6249 32.2426 18.6107 32.3453 18.6107 32.4923V34.6435C18.6107 35.0985 18.6534 35.4237 18.7389 35.6221C18.8388 35.816 18.9956 35.9972 19.2094 36.1513C19.3377 36.2312 19.5373 36.3125 19.7939 36.3739L19.8367 36.3824C20.0648 36.4437 20.2216 36.5022 20.2928 36.5636C20.3642 36.6277 20.4069 36.7133 20.4069 36.8246C20.4069 36.9373 20.3642 37.0286 20.2928 37.107C20.2216 37.1812 20.1503 37.2212 20.0505 37.2212C19.9364 37.2212 19.8367 37.2183 19.7512 37.2098C19.6798 37.2069 19.5943 37.1984 19.5088 37.1841C19.1524 37.1342 18.8103 37.0985 18.4966 37.0728C18.1687 37.0457 17.8409 37.0372 17.513 37.0372C17.2136 37.0372 16.9 37.0457 16.5864 37.0699C16.287 37.09 15.9734 37.1228 15.674 37.1713C15.5457 37.1841 15.4317 37.1984 15.3318 37.2069C15.232 37.2183 15.1465 37.2212 15.061 37.2212C14.9612 37.2212 14.8899 37.1812 14.8187 37.1099C14.7473 37.04 14.7046 36.953 14.7046 36.8617C14.7046 36.7033 14.8614 36.5493 15.1465 36.3938L15.1608 36.3824C15.3034 36.3296 15.4174 36.2682 15.5029 36.2041C15.5884 36.1342 15.674 36.0614 15.731 35.973C15.8451 35.8332 15.9163 35.6463 15.9734 35.4237C16.0162 35.2041 16.0446 34.7833 16.0446 34.1698ZM47.0652 37.1342V36.3011C47.6639 36.2269 48.1344 36.02 48.4908 35.6777C48.9469 35.2369 49.175 34.6021 49.175 33.7747C49.175 32.8945 48.9184 32.2226 48.391 31.7704C48.0488 31.4837 47.6069 31.284 47.0652 31.177V30.2583C47.4073 30.1855 47.6782 30.0601 47.8778 29.876C48.2056 29.5807 48.3767 29.1128 48.3767 28.4809C48.3767 27.6749 48.1771 27.0344 47.778 26.5579C47.5784 26.3068 47.336 26.1256 47.0652 26.0058V25.0643C48.2627 25.0958 49.2178 25.3439 49.8878 25.8175C50.6291 26.3182 50.9855 27.0258 50.9855 27.9317C50.9855 28.6121 50.7859 29.1684 50.3868 29.595C49.9733 30.0215 49.3603 30.3253 48.5335 30.5123C49.6882 30.5707 50.5293 30.8289 51.0711 31.2925C51.627 31.7604 51.8979 32.4509 51.8979 33.3653C51.8979 34.652 51.4417 35.6078 50.5293 36.2269C49.7453 36.7633 48.5905 37.0643 47.0652 37.1342Z" fill="black"/>
<path fill-rule="evenodd" clip-rule="evenodd" d="M22.1604 12.1317C32.0682 4.41992 46.438 6.21308 54.1503 16.1274C61.8485 26.0432 60.0665 40.4196 50.1445 48.1314C49.8594 48.3568 49.56 48.5722 49.2749 48.7777C58.4271 40.9261 59.8954 27.0987 52.4111 17.4783C44.9269 7.85497 31.17 5.88207 21.3193 12.8307C21.5902 12.5939 21.8754 12.3599 22.1604 12.1317Z" fill="#00854A"/>
<path fill-rule="evenodd" clip-rule="evenodd" d="M15.6446 9.38439C26.3507 1.05061 41.2338 1.69967 51.0274 10.2117C42.0606 3.27456 29.1021 3.01778 19.6933 10.3544C8.54528 19.0248 6.46395 35.096 15.0459 46.1345C23.6279 57.1729 39.7084 59.1044 50.8421 50.4355C55.1902 47.0531 58.1554 42.5396 59.6522 37.6452C58.1981 43.5681 54.8195 49.0731 49.6446 53.1102C37.4845 62.5666 19.9499 60.4582 10.5838 48.4155C1.21783 36.3742 3.49877 18.8408 15.6446 9.38439Z" fill="#00854A"/>
</g>
<defs>
<clipPath id="clip0_3396_56155">
<rect width="64" height="64" fill="white"/>
</clipPath>
</defs>
</svg>
