<svg width="24" height="24" viewBox="0 0 24 24" fill="none" xmlns="http://www.w3.org/2000/svg">
<g clip-path="url(#clip0_6027_3934)">
<path d="M5.76113 15.0304H5.76046V8.77295H18.2396L18.2397 15.2241C18.2397 15.227 18.2373 15.2294 18.2343 15.2294C18.1724 16.0848 17.5784 16.9237 16.4504 17.5642C14.0465 18.9292 10.0707 18.9292 7.61527 17.5642C6.37402 16.8742 5.75595 15.9536 5.76109 15.0304H5.76113Z" fill="#017AFF" stroke="black" stroke-width="0.075"/>
<path d="M12.0135 3.6792L22.2002 9.47694L12.0135 15.1618L1.80019 9.42051L12.0135 3.6792Z" fill="#EBF7FF" stroke="black" stroke-width="0.075"/>
<path d="M22.2002 9.51221V10.1711L12.0135 15.8559V15.143L22.2002 9.51221Z" fill="#017AFF" stroke="black" stroke-width="0.075"/>
<path d="M12.0137 15.8562V15.1432L1.80037 9.45605V10.1149L12.0137 15.8562Z" fill="#017AFF" stroke="black" stroke-width="0.075"/>
<path d="M11.6689 9.87032L7.18423 12.4185L6.73683 12.1694L11.4369 9.45605L11.6689 9.87032Z" fill="#017AFF" stroke="black" stroke-width="0.075"/>
<path d="M7.01953 12.4922V18.2145L6.57217 17.9039V12.2432L7.01953 12.4922Z" fill="#EBF7FF" stroke="black" stroke-width="0.075"/>
<path d="M7.01908 12.4926L7.18408 12.4186L6.73668 12.1694L6.57172 12.2436L7.01908 12.4926Z" fill="#EBF7FF" stroke="black" stroke-width="0.075"/>
<path d="M7.01908 18.2148L7.18408 18.1407V12.4185L7.01908 12.4925V18.2148Z" fill="#017AFF" stroke="black" stroke-width="0.075"/>
<path d="M7.01953 18.2149L6.74165 20.3213L6.26108 19.9966L6.57217 17.9043L7.01953 18.2149Z" fill="#EBF7FF" stroke="black" stroke-width="0.075"/>
<path d="M7.18455 18.1406L7.62744 19.8764L6.74167 20.3211L7.01955 18.2147L7.18455 18.1406Z" fill="#017AFF" stroke="black" stroke-width="0.075"/>
<path d="M12.5533 9.10514C12.8883 9.29676 12.8878 9.61178 12.5519 9.80524C12.2161 9.99866 11.6678 9.99866 11.3335 9.80524C10.9991 9.61175 10.9997 9.29676 11.3348 9.10514C11.6699 8.91352 12.2182 8.91352 12.5533 9.10514Z" fill="#017AFF" stroke="black" stroke-width="0.075"/>
<circle cx="22.05" cy="3.675" r="1.8" fill="#DF3C27"/>
<circle cx="20.9214" cy="17.8477" r="2.84477" fill="#017AFE" stroke="white" stroke-width="0.310458"/>
<path d="M20.7957 16.3956C20.7775 16.3957 20.7593 16.3966 20.7412 16.3982C20.7346 16.3988 20.7281 16.3994 20.7215 16.4002C20.7138 16.4011 20.7061 16.402 20.6984 16.4031L20.6876 16.4049C20.3594 16.4592 20.1091 16.7441 20.1091 17.0877C20.1091 17.3334 20.2372 17.549 20.4301 17.6718C20.4327 17.6739 20.4357 17.6759 20.4387 17.6778L20.4393 17.678L20.3939 17.6924C20.3249 17.7159 20.2581 17.7455 20.1942 17.7807L20.1469 17.8081C20.1421 17.811 20.1374 17.8141 20.1326 17.8171C20.096 17.84 20.0607 17.8648 20.0266 17.8914L20.0218 17.8952C19.73 18.1256 19.5428 18.4823 19.5428 18.8829C19.5428 18.9371 19.5462 18.9911 19.5531 19.0448H22.0586V18.8835C22.0586 18.3141 21.6803 17.833 21.1614 17.6778C21.3598 17.5563 21.4922 17.3375 21.4922 17.0877C21.4922 16.7215 21.2078 16.4219 20.8478 16.3973C20.8432 16.397 20.8386 16.3966 20.834 16.3964C20.8229 16.3958 20.8118 16.3955 20.8007 16.3955L20.7957 16.3956ZM20.8 17.7823C21.4082 17.7823 21.9012 18.2753 21.9012 18.8835C21.9012 18.8848 21.9011 18.8861 21.9011 18.8874H19.6989C19.6989 18.8861 19.6988 18.8848 19.6988 18.8835C19.6988 18.2753 20.1918 17.7823 20.8 17.7823ZM20.8 16.5528C21.0954 16.5528 21.3349 16.7923 21.3349 17.0877C21.3349 17.3831 21.0954 17.6226 20.8 17.6226C20.5046 17.6226 20.2651 17.3831 20.2651 17.0877C20.2651 16.7923 20.5046 16.5528 20.8 16.5528Z" fill="white" stroke="white" stroke-width="0.0204708"/>
<path d="M19.9221 16.6343C19.6093 16.6343 19.3557 16.8878 19.3557 17.2006C19.3557 17.395 19.4537 17.5665 19.6029 17.6684C19.2035 17.8007 18.9151 18.1764 18.9134 18.62H18.9133V18.7773H19.3892C19.3931 18.7245 19.3999 18.672 19.4097 18.62H19.0628C19.065 18.1482 19.4479 17.7665 19.9201 17.7665L19.9096 17.7666L19.9217 17.767C19.924 17.767 19.9263 17.7669 19.9286 17.7668L19.9354 17.7666C20.0044 17.7132 20.0781 17.6663 20.1558 17.6265C20.1388 17.6067 20.1228 17.5862 20.1078 17.565C20.0503 17.5944 19.9867 17.6097 19.9221 17.6097C19.6962 17.6097 19.5131 17.4265 19.5131 17.2006C19.5131 16.9747 19.6962 16.7916 19.9221 16.7916C19.9475 16.7917 19.9728 16.7941 19.9977 16.7989C20.0151 16.7481 20.0374 16.6991 20.0641 16.6526C20.0417 16.6467 20.0189 16.6423 19.996 16.6392L19.9926 16.6388C19.9827 16.6376 19.9727 16.6366 19.9627 16.6359C19.9606 16.6357 19.9586 16.6355 19.9565 16.6354C19.9451 16.6347 19.9336 16.6343 19.9221 16.6343Z" fill="#FFFFFE" stroke="#1FD896" stroke-width="0.0204708"/>
<path d="M21.6408 16.6338C21.9534 16.6338 22.2069 16.8874 22.2069 17.2001C22.2069 17.3945 22.109 17.566 21.9598 17.6679C22.359 17.8002 22.6473 18.176 22.649 18.6195H22.6491V18.7768H22.1734C22.1695 18.724 22.1627 18.6715 22.1529 18.6195H22.4996C22.4975 18.1478 22.1147 17.766 21.6427 17.766L21.6533 17.7662L21.6411 17.7665C21.6388 17.7665 21.6366 17.7664 21.6343 17.7663L21.6275 17.7661C21.5585 17.7127 21.4848 17.6658 21.4072 17.626C21.4241 17.6062 21.4401 17.5857 21.4552 17.5645C21.5126 17.5939 21.5762 17.6092 21.6408 17.6092C21.8665 17.6092 22.0496 17.426 22.0496 17.2001C22.0496 16.9742 21.8665 16.7911 21.6408 16.7911C21.6154 16.7912 21.5901 16.7936 21.5652 16.7984C21.5478 16.7476 21.5256 16.6986 21.4988 16.6521C21.5212 16.6463 21.544 16.6418 21.5669 16.6388L21.5703 16.6383C21.5802 16.6371 21.5902 16.6361 21.6002 16.6354C21.6023 16.6353 21.6043 16.635 21.6064 16.6349C21.6178 16.6342 21.6292 16.6338 21.6408 16.6338Z" fill="#FFFFFE" stroke="#1FD896" stroke-width="0.0204708"/>
</g>
<defs>
<clipPath id="clip0_6027_3934">
<rect width="24" height="24" fill="white"/>
</clipPath>
</defs>
</svg>
