<svg width="231" height="60" viewBox="0 0 231 60" fill="none" xmlns="http://www.w3.org/2000/svg">
<g clip-path="url(#clip0_3396_56629)">
<path fill-rule="evenodd" clip-rule="evenodd" d="M35.1259 60.0001C15.7754 60.0001 0 46.5366 0 30C0 13.4635 15.7754 0 35.1259 0C54.4764 0 70.2884 13.4635 70.2884 30C70.2884 46.5366 54.4764 60.0001 35.1259 60.0001Z" fill="#004A8F"/>
<path fill-rule="evenodd" clip-rule="evenodd" d="M57.6826 32.9268L61.5895 33.1096C59.2675 49.2804 43.8239 50.4512 36.0469 34.7926L37.0419 33.1096C45.1138 38.195 54.5496 40.0975 57.6826 32.9268Z" fill="white"/>
<path fill-rule="evenodd" clip-rule="evenodd" d="M31.1078 9.51267L38.9218 6.98828L39.2535 51.0005L30.7393 53.8541L31.1078 9.51267Z" fill="#ED1C24"/>
<path fill-rule="evenodd" clip-rule="evenodd" d="M57.8671 27.1101H61.553C60.1523 19.793 56.3928 15.0736 49.0949 14.415C43.0133 14.415 38.0374 18.0736 33.5776 24.915C30.7763 29.1589 26.206 35.8907 20.7879 36.6224C19.4997 36.9741 18.135 36.936 16.8688 36.513C15.6026 36.0899 14.4923 35.3012 13.6806 34.2478C12.8689 33.1945 12.3925 31.9245 12.3126 30.6007C12.2327 29.2769 12.5528 27.9596 13.2319 26.8175C14.3594 25.3857 15.842 24.2689 17.5347 23.5763C19.2274 22.8838 21.0723 22.639 22.8888 22.8663C25.7458 23.0799 28.5173 23.9302 30.9974 25.354V19.0978C29.6449 17.8109 28.1487 16.6817 26.5378 15.7321C24.4294 14.6091 22.0059 14.2103 19.6453 14.5979C9.69362 16.7565 7.88756 24.8418 9.73047 35.5979C13.6006 48.0369 25.6532 48.9883 32.5825 41.0127C37.3372 35.3419 49.1317 16.3174 57.8302 27.1101H57.8671Z" fill="white"/>
<path fill-rule="evenodd" clip-rule="evenodd" d="M110.943 37.7924C112.325 37.9516 113.726 37.8202 115.054 37.4067C116.382 36.9932 117.607 36.3068 118.65 35.3924C119.693 34.4779 120.53 33.3558 121.108 32.0989C121.685 30.842 121.989 29.4785 122 28.0972C122 25.1863 120.836 22.3945 118.762 20.3362C116.688 18.2778 113.876 17.1216 110.943 17.1216C108.01 17.1216 105.198 18.2778 103.124 20.3362C101.051 22.3945 99.8856 25.1863 99.8856 28.0972C99.897 29.4785 100.201 30.842 100.779 32.0989C101.356 33.3558 102.193 34.4779 103.236 35.3924C104.279 36.3068 105.504 36.9932 106.832 37.4067C108.16 37.8202 109.561 37.9516 110.943 37.7924ZM110.943 33.2558C108.031 33.2558 106.741 30.6947 106.741 28.0972C106.741 25.4996 108.031 22.646 110.943 22.646C113.855 22.646 115.182 25.2069 115.182 28.0972C115.182 30.9874 113.855 33.2558 110.943 33.2558ZM121.337 23.2679H125.023V30.5849C125.023 35.0849 126.645 37.6825 132.394 37.6825C134.016 37.6825 135.011 37.3534 136.301 37.3534L135.97 33.146C135.306 33.146 134.68 33.4753 134.016 33.4753C132.063 33.4753 131.436 32.1948 131.436 29.8168V23.0484H135.97V18.5484H131.436V12.1094L125.318 14.6338V18.8046H121.411V23.3045L121.337 23.2679ZM158.49 37.463H165.014V28.0972H165.309L170.506 37.463H178.32L171.169 27.1459L177.656 18.7679H170.653L165.456 26.4874H165.161V12.3289L158.49 14.6338V37.4996V37.463ZM82.5625 37.463H89.0493V28.0972L94.2465 37.463H102.023L95.2048 27.1459L101.692 18.7679H94.7256L89.1969 26.4874V12.3289L82.7099 14.268V37.463H82.5625ZM156.279 37.463C156.004 35.9794 155.892 34.4706 155.947 32.9631V25.8655C155.947 20.0484 151.745 18.1094 146.843 18.1094C144.321 18.0501 141.814 18.4981 139.471 19.4264V23.9264C141.392 23.0202 143.502 22.5813 145.627 22.646C147.912 22.646 149.865 23.2679 149.865 25.8655C148.911 25.575 147.912 25.4632 146.917 25.5361C143.231 25.5361 136.891 26.1947 136.891 31.9752C136.891 36.1825 140.577 37.7924 144.005 37.7924C145.234 37.8643 146.46 37.6026 147.551 37.0354C148.642 36.4682 149.557 35.617 150.197 34.5728C150.197 35.5241 150.492 36.4752 150.492 37.463H156.279ZM142.973 31.3533C142.973 29.707 144.926 29.085 147.175 29.085H149.792C149.854 30.1912 149.481 31.278 148.753 32.1172C148.024 32.9564 146.996 33.4825 145.885 33.585C144.263 33.585 142.973 32.6338 142.973 31.3533Z" fill="#ED1C24"/>
<path fill-rule="evenodd" clip-rule="evenodd" d="M180.605 13.2803C181.134 13.2885 181.654 13.4267 182.116 13.6827C182.608 13.9316 183.008 14.3286 183.259 14.8168C183.524 15.2729 183.664 15.7903 183.664 16.3169C183.664 16.8435 183.524 17.3608 183.259 17.8168C183.01 18.2942 182.625 18.6886 182.153 18.951C181.677 19.2071 181.146 19.3451 180.605 19.3533C180.075 19.3451 179.556 19.2069 179.094 18.951C178.621 18.6886 178.237 18.2942 177.988 17.8168C177.723 17.3608 177.583 16.8435 177.583 16.3169C177.583 15.7903 177.723 15.2729 177.988 14.8168C178.23 14.3223 178.632 13.9228 179.131 13.6827C179.58 13.4268 180.087 13.2884 180.605 13.2803ZM180.605 13.7925C180.166 13.7978 179.736 13.9108 179.352 14.1217C178.959 14.3278 178.638 14.6465 178.43 15.0363C178.191 15.4212 178.063 15.8645 178.062 16.3169C178.062 16.753 178.177 17.1815 178.394 17.5607C178.615 17.9492 178.937 18.2725 179.325 18.4974C179.714 18.7224 180.155 18.8411 180.605 18.8413C181.056 18.8406 181.499 18.7273 181.895 18.512C182.289 18.2908 182.609 17.9601 182.816 17.5607C183.033 17.1815 183.148 16.753 183.148 16.3169C183.143 15.8698 183.029 15.4304 182.816 15.0363C182.594 14.6452 182.261 14.3273 181.858 14.1217C181.476 13.9063 181.044 13.793 180.605 13.7925ZM179.278 17.9997V14.6339H180.421H181.231C181.407 14.7 181.561 14.8143 181.674 14.9633C181.799 15.119 181.868 15.3124 181.868 15.5119C181.868 15.7114 181.799 15.9051 181.674 16.0608C181.482 16.2374 181.234 16.3409 180.973 16.3533L181.268 16.5364C181.45 16.7261 181.611 16.9346 181.748 17.1583L182.153 17.8168H181.49L181.195 17.3046C181.06 17.0167 180.873 16.7563 180.642 16.5364C180.511 16.4889 180.367 16.4889 180.236 16.5364H179.905V17.9267L179.278 17.9997ZM179.794 16.1704H180.605C180.81 16.2265 181.026 16.2265 181.231 16.1704C181.277 16.0526 181.277 15.9225 181.231 15.8047C181.26 15.7216 181.26 15.6316 181.231 15.5485C181.209 15.5049 181.178 15.4661 181.14 15.4347C181.102 15.4032 181.058 15.3799 181.01 15.3657H179.868V16.3533L179.794 16.1704Z" fill="#004A8F"/>
<path d="M90.855 54.8776H89.1226L84.6996 49.7922L84.4049 49.4264V54.8776H83.1885V43.902H84.4049V49.1337L84.6996 48.7679L88.9752 43.902H90.5232L85.6579 49.2436L90.855 55.0239V54.8776ZM91.4447 51.2191C91.3801 50.0729 91.7628 48.9461 92.5135 48.0728C92.9024 47.6855 93.3696 47.3842 93.8842 47.1888C94.3987 46.9933 94.9489 46.9081 95.499 46.9387C96.0113 46.9207 96.5219 47.0089 96.9979 47.1979C97.4739 47.3869 97.9048 47.6725 98.2633 48.0362C98.9673 48.8885 99.3226 49.9725 99.2586 51.0728C99.3215 52.1856 98.9372 53.2775 98.1898 54.1092C97.8253 54.5004 97.3793 54.8078 96.8827 55.01C96.3861 55.2123 95.8509 55.3044 95.3147 55.28C94.7935 55.2984 94.2744 55.2069 93.7915 55.0114C93.3086 54.8159 92.873 54.5209 92.5135 54.1459C91.7831 53.3478 91.3992 52.2963 91.4447 51.2191ZM92.661 51.2191C92.6265 52.0382 92.888 52.8426 93.3982 53.4874C93.6504 53.7603 93.9584 53.9766 94.3017 54.1217C94.645 54.2669 95.0155 54.3374 95.3885 54.3287C95.7574 54.3475 96.1256 54.2813 96.4645 54.1354C96.8034 53.9894 97.1036 53.7676 97.3419 53.4874C97.8505 52.8294 98.0995 52.0098 98.0422 51.1825C98.0859 50.3454 97.8386 49.5188 97.3419 48.8409C97.1018 48.5651 96.8003 48.3487 96.4611 48.209C96.122 48.0693 95.7548 48.0102 95.3885 48.0362C95.0155 48.0275 94.645 48.098 94.3017 48.2432C93.9584 48.3883 93.6504 48.6046 93.3982 48.8776C92.8884 49.5506 92.628 50.3776 92.661 51.2191ZM104.972 54.8776C104.623 55.0688 104.227 55.1576 103.829 55.1337C102.428 55.1337 101.765 54.3654 101.765 52.8288V48.0362H100.364V47.0117H101.765V45.0728L102.944 44.6704V47.0117H104.972V48.0362H102.944V52.6093C102.909 53.0212 103.013 53.4331 103.239 53.7801C103.357 53.9015 103.502 53.9943 103.661 54.0514C103.821 54.1085 103.992 54.1283 104.161 54.1092C104.454 54.127 104.743 54.0357 104.972 53.8531V54.8776ZM106.925 47.5605C107.725 47.0443 108.662 46.7767 109.616 46.7922C111.459 46.7922 112.417 47.7802 112.417 49.7192V54.8776H111.201V53.6336C110.967 54.0817 110.612 54.4563 110.176 54.7148C109.74 54.9734 109.239 55.1058 108.731 55.0971C108.389 55.1187 108.047 55.0714 107.724 54.9582C107.4 54.8451 107.104 54.6684 106.851 54.4386C106.628 54.2279 106.453 53.9716 106.338 53.6874C106.224 53.4033 106.172 53.0979 106.188 52.7922C106.188 51.3288 107.036 50.4507 108.805 50.1946L111.237 49.8654C111.237 48.4752 110.684 47.78 109.542 47.78C108.585 47.7645 107.66 48.1188 106.962 48.7679V47.5605H106.925ZM109.21 51.2191C108.704 51.2533 108.218 51.4311 107.81 51.7313C107.548 52.0092 107.402 52.3752 107.402 52.7556C107.402 53.136 107.548 53.5022 107.81 53.7801C108.131 54.0394 108.539 54.1698 108.952 54.1459C109.248 54.1532 109.543 54.0984 109.816 53.9849C110.089 53.8714 110.335 53.7018 110.537 53.4874C110.978 53.0237 111.217 52.4056 111.201 51.768V50.963L109.21 51.2191ZM121.41 54.8776H119.678L115.992 51.2191V54.8776H114.776V43.1703H115.992V50.4873L119.42 46.8288H121.005L117.319 50.4873L121.373 54.5849L121.41 54.8776ZM136.743 54.8776V47.5605C136.743 46.9752 136.743 46.28 136.743 45.4019C136.682 45.769 136.571 46.1261 136.412 46.463L132.689 54.8776H132.136L128.229 46.3165C128.094 45.9584 127.983 45.5918 127.897 45.219C127.947 45.9255 127.947 46.6346 127.897 47.341V54.8776H126.718V43.902H128.303L131.989 51.7313C132.203 52.1573 132.388 52.5973 132.542 53.0483L133.094 51.6947L136.78 43.902H138.328V54.8776H136.743ZM140.945 47.5605C141.758 47.0434 142.707 46.776 143.673 46.7922C145.515 46.7922 146.474 47.7802 146.474 49.7192V54.8776H145.257V53.6336C145.03 54.0788 144.682 54.4519 144.252 54.7106C143.822 54.9692 143.328 55.1032 142.825 55.0971C142.483 55.1187 142.14 55.0714 141.817 54.9582C141.494 54.8451 141.198 54.6684 140.945 54.4386C140.708 54.2363 140.522 53.9824 140.401 53.6968C140.279 53.4112 140.226 53.1016 140.245 52.7922C140.245 51.3288 141.129 50.4507 142.899 50.1946L145.331 49.8654C145.331 48.4752 144.741 47.78 143.636 47.78C142.671 47.7806 141.74 48.1321 141.019 48.7679V47.5605H140.945ZM143.267 51.2191C142.751 51.2615 142.255 51.4382 141.83 51.7313C141.686 51.8741 141.575 52.0462 141.505 52.2358C141.435 52.4253 141.407 52.6277 141.424 52.8288C141.418 53.0106 141.455 53.1912 141.532 53.3563C141.609 53.5214 141.723 53.6665 141.867 53.7801C142.188 54.0394 142.596 54.1698 143.009 54.1459C143.305 54.1532 143.599 54.0984 143.873 53.9849C144.146 53.8714 144.391 53.7018 144.594 53.4874C145.035 53.0237 145.274 52.4056 145.257 51.768V50.963L143.267 51.2191ZM155.467 54.8776H154.288V50.3044C154.288 48.6215 153.661 47.78 152.371 47.78C152.064 47.7815 151.761 47.8473 151.481 47.9734C151.202 48.0995 150.952 48.2831 150.749 48.5118C150.306 49.0301 150.081 49.6988 150.123 50.3777V54.8776H148.907V43.1703H150.123V48.2923C150.376 47.8258 150.755 47.4383 151.217 47.1733C151.679 46.9084 152.206 46.7764 152.74 46.7922C154.546 46.7922 155.43 47.8532 155.43 50.0483V54.8776H155.467ZM157.789 43.902C157.784 43.6859 157.864 43.4764 158.01 43.3167C158.16 43.1779 158.358 43.1006 158.563 43.1006C158.769 43.1006 158.966 43.1779 159.116 43.3167C159.199 43.3902 159.265 43.4803 159.309 43.5813C159.354 43.6824 159.376 43.7918 159.374 43.902C159.378 44.0073 159.357 44.112 159.312 44.2075C159.268 44.303 159.2 44.3866 159.116 44.4509C159.044 44.5236 158.958 44.5806 158.863 44.6184C158.768 44.6561 158.666 44.674 158.563 44.6704C158.459 44.682 158.353 44.67 158.254 44.6355C158.155 44.6011 158.064 44.5448 157.99 44.471C157.916 44.3972 157.859 44.3078 157.824 44.2093C157.79 44.1108 157.778 44.0057 157.789 43.902ZM157.789 54.8776V46.9387H159.006V54.8776H157.789ZM168.22 54.8776H167.004V50.3411C167.004 48.6216 166.377 47.78 165.124 47.78C164.811 47.7762 164.5 47.8395 164.214 47.9658C163.928 48.0921 163.672 48.2785 163.465 48.5118C163.043 49.0276 162.821 49.6766 162.839 50.3411V54.8776H161.622V46.9387H162.839V48.2557C163.092 47.7892 163.471 47.4019 163.933 47.1369C164.395 46.872 164.922 46.74 165.456 46.7558C165.836 46.7367 166.215 46.8022 166.566 46.9478C166.916 47.0934 167.23 47.3154 167.483 47.5972C168.005 48.3046 168.253 49.1744 168.183 50.0483V54.8776H168.22ZM177.435 54.8776H176.218V53.524C175.954 54.0186 175.555 54.4288 175.065 54.7072C174.576 54.9857 174.017 55.1208 173.454 55.0971C172.996 55.1143 172.54 55.0239 172.124 54.8332C171.707 54.6425 171.342 54.3569 171.058 53.9996C170.415 53.1754 170.088 52.1507 170.137 51.1092C170.069 49.9689 170.438 48.8453 171.169 47.9629C171.485 47.5698 171.89 47.256 172.351 47.0463C172.812 46.8366 173.316 46.7371 173.822 46.7558C174.307 46.721 174.792 46.8267 175.218 47.0606C175.643 47.2944 175.991 47.6462 176.218 48.0728V43.1703H177.435V54.8776ZM176.218 50.1216C176.229 49.4958 175.991 48.891 175.555 48.4386C175.344 48.2249 175.091 48.0563 174.812 47.9431C174.534 47.8298 174.234 47.7744 173.933 47.78C173.566 47.7657 173.202 47.8378 172.868 47.9904C172.535 48.143 172.243 48.3718 172.016 48.6581C171.543 49.359 171.31 50.1933 171.353 51.0362C171.312 51.822 171.546 52.5977 172.016 53.2312C172.214 53.5009 172.476 53.7185 172.777 53.8652C173.079 54.0118 173.413 54.0832 173.749 54.0728C174.087 54.0872 174.424 54.0216 174.731 53.8817C175.039 53.7418 175.308 53.5314 175.518 53.2679C175.996 52.7363 176.247 52.041 176.218 51.3289V50.1216ZM184.18 48.1824C183.9 47.9897 183.561 47.8992 183.221 47.9263C182.937 47.9232 182.656 47.9964 182.41 48.138C182.163 48.2796 181.96 48.4846 181.821 48.7313C181.43 49.3555 181.237 50.0822 181.268 50.8167V54.8776H180.051V46.9387H181.268V48.585C181.43 48.0801 181.722 47.6259 182.116 47.2678C182.464 46.9674 182.908 46.7989 183.369 46.7922C183.625 46.7454 183.887 46.7454 184.143 46.7922V48.0728L184.18 48.1824ZM185.765 47.5239C186.564 47.0076 187.501 46.7403 188.455 46.7558C190.335 46.7558 191.256 47.7435 191.256 49.6826V54.8776H190.04V53.6336C189.81 54.0845 189.456 54.4614 189.019 54.7204C188.582 54.9795 188.08 55.1101 187.571 55.0971C186.882 55.1284 186.207 54.8922 185.691 54.4386C185.467 54.2279 185.292 53.9716 185.177 53.6874C185.063 53.4033 185.012 53.0979 185.027 52.7922C185.027 51.3288 185.912 50.4507 187.644 50.1946L190.077 49.8654C190.077 48.4752 189.524 47.78 188.418 47.78C187.454 47.7806 186.523 48.1321 185.801 48.7679V47.5605L185.765 47.5239ZM188.087 51.1825C187.567 51.2097 187.067 51.3878 186.649 51.6947C186.505 51.8375 186.395 52.0096 186.325 52.1991C186.255 52.3887 186.227 52.591 186.244 52.7922C186.238 52.974 186.275 53.1545 186.352 53.3197C186.428 53.4848 186.543 53.6299 186.686 53.7435C186.996 53.9972 187.39 54.1275 187.792 54.1092C188.093 54.1171 188.393 54.0627 188.672 53.9494C188.952 53.836 189.204 53.6661 189.414 53.4507C189.828 52.9736 190.052 52.3615 190.04 51.7313V50.9263L188.087 51.1825ZM197.596 54.841V43.8654H200.729C201.538 43.8198 202.337 44.0667 202.977 44.5605C203.25 44.7893 203.467 45.0755 203.614 45.3983C203.76 45.7211 203.833 46.0724 203.825 46.4264C203.854 47.0072 203.671 47.5788 203.309 48.0362C202.969 48.5222 202.477 48.8824 201.909 49.0604C202.599 49.0932 203.248 49.3959 203.715 49.9021C204.172 50.4148 204.409 51.0841 204.378 51.768C204.394 52.2013 204.314 52.6328 204.142 53.0314C203.969 53.43 203.71 53.7858 203.383 54.0728C202.649 54.6751 201.717 54.9877 200.766 54.9509L197.596 54.841ZM198.812 44.8533V48.5118H200.176C200.796 48.5445 201.408 48.3635 201.909 47.9996C202.122 47.8143 202.29 47.5825 202.398 47.3223C202.507 47.0621 202.554 46.7807 202.535 46.4996C202.535 45.4021 201.835 44.8533 200.36 44.8533H198.812ZM198.812 49.6459V53.7069H200.618C201.279 53.7456 201.931 53.5514 202.461 53.1582C202.68 52.9748 202.853 52.7442 202.968 52.4843C203.083 52.2244 203.136 51.9417 203.125 51.6581C203.125 50.3044 202.166 49.6459 200.323 49.6459H198.812ZM206.7 47.4873C207.513 46.9701 208.462 46.703 209.427 46.7192C211.27 46.7192 212.192 47.7069 212.192 49.6459V54.8776H211.012V53.6336C210.785 54.0788 210.437 54.4519 210.007 54.7106C209.577 54.9692 209.083 55.1032 208.58 55.0971C208.238 55.1187 207.895 55.0714 207.572 54.9582C207.249 54.8451 206.953 54.6684 206.7 54.4386C206.463 54.2363 206.277 53.9824 206.156 53.6968C206.034 53.4112 205.981 53.1016 206 52.7922C206 51.3288 206.884 50.4507 208.653 50.1946L211.049 49.8654C211.049 48.4752 210.496 47.78 209.391 47.78C208.426 47.7806 207.495 48.1321 206.774 48.7679V47.5605L206.7 47.4873ZM209.022 51.1458C208.506 51.1883 208.01 51.365 207.585 51.6581C207.441 51.8008 207.33 51.973 207.26 52.1625C207.19 52.3521 207.162 52.5544 207.179 52.7556C207.173 52.9374 207.21 53.1179 207.287 53.283C207.364 53.4481 207.478 53.5933 207.621 53.7069C207.943 53.9662 208.351 54.0968 208.764 54.0728C209.06 54.0801 209.354 54.0251 209.627 53.9116C209.901 53.7981 210.146 53.6285 210.349 53.4141C210.563 53.1827 210.728 52.9118 210.835 52.6167C210.943 52.3216 210.991 52.0082 210.975 51.6947V50.8897L209.022 51.1458ZM221.222 54.8044H220.006V50.2678C220.006 48.5483 219.379 47.7068 218.126 47.7068C217.818 47.7008 217.512 47.7635 217.231 47.8901C216.951 48.0168 216.702 48.2041 216.504 48.4386C216.053 48.9401 215.815 49.5958 215.841 50.2678V54.8776H214.661V46.9387H215.841V48.2557C216.103 47.789 216.489 47.4025 216.957 47.1381C217.425 46.8736 217.957 46.7415 218.495 46.7558C218.87 46.7313 219.245 46.7945 219.591 46.9407C219.937 47.0868 220.243 47.3118 220.485 47.5972C221.007 48.3046 221.255 49.1744 221.185 50.0483V54.8776L221.222 54.8044ZM230.252 54.8044H228.52L224.834 51.1458V54.8044H223.618V43.1703H224.834V50.4873L228.262 46.8288H229.847L226.161 50.4873L230.252 54.5849V54.8044Z" fill="#003974"/>
</g>
<defs>
<clipPath id="clip0_3396_56629">
<rect width="230.4" height="60" fill="white"/>
</clipPath>
</defs>
</svg>
