<svg width="24" height="24" viewBox="0 0 24 24" fill="none" xmlns="http://www.w3.org/2000/svg">
<g clip-path="url(#clip0_3396_61251)">
<g filter="url(#filter0_d_3396_61251)">
<g clip-path="url(#clip1_3396_61251)">
<path d="M0 12C0 5.37258 5.37258 0 12 0C18.6274 0 24 5.37258 24 12C24 18.6274 18.6274 24 12 24C5.37258 24 0 18.6274 0 12Z" fill="#01A6E6"/>
<g clip-path="url(#clip2_3396_61251)">
<path fill-rule="evenodd" clip-rule="evenodd" d="M23.2483 11.9995C23.2483 18.2122 18.2116 23.25 11.997 23.25C5.78474 23.25 0.748047 18.2122 0.748047 11.9995C0.748047 5.78616 5.78474 0.749737 11.997 0.749737C18.2116 0.749737 23.2483 5.78616 23.2483 11.9995Z" fill="#01A6E6"/>
<path fill-rule="evenodd" clip-rule="evenodd" d="M19.831 8.07626C19.831 8.07626 20.3898 8.03568 19.7748 7.40578C19.7748 7.40578 18.7523 6.29776 16.791 5.45878C15.7397 5.00889 14.5577 5.1962 14.6682 6.28372C14.746 7.04744 13.9761 7.33922 13.37 7.2693C12.6585 7.18701 12.231 6.64796 12.3436 6.20424C12.464 5.73104 12.7338 5.36414 13.1334 5.07938C13.4043 4.88602 13.5933 4.74968 14.0871 4.65504C14.3872 4.59747 14.7805 4.50788 14.8857 4.82298C15.0918 4.7223 15.4572 4.08987 14.27 4.07849C14.27 4.07849 14.0923 3.72352 13.6931 3.79752C13.6931 3.79752 12.512 2.72699 11.1987 4.05266C11.1987 4.05266 10.6831 4.24109 10.6548 4.05911C10.7716 4.14463 10.9621 3.88514 10.7018 3.79584C10.5795 3.75357 10.4372 3.87222 10.415 3.98722C10.3975 4.07625 10.4254 4.27185 10.6857 4.30934C10.7543 4.31917 10.878 4.30934 10.878 4.30934L10.7918 4.40341C10.3994 4.55914 10.0176 4.43852 9.94649 4.18015C10.0384 4.22944 10.1385 4.16808 10.1707 4.07302C10.203 3.97711 10.1276 3.84372 9.97501 3.82322C9.76225 3.79387 9.66117 4.02345 9.70674 4.22523C9.77652 4.53555 10.1146 4.75642 10.547 4.70306L10.472 4.80739C10.472 4.80739 10.0385 5.3098 9.68442 5.88058C9.32422 6.4605 7.85737 7.10009 8.10842 5.71883C8.18845 5.27975 7.39602 4.75333 6.01969 5.62924C5.28447 6.09739 4.38175 6.79918 3.71363 7.93557C3.71363 7.93557 3.413 8.37001 3.90704 8.38363C3.90704 8.38363 2.77767 9.50654 2.91139 10.8434C2.91139 10.8434 3.01194 11.211 3.27922 10.9774C3.27922 10.9774 2.84481 12.1469 3.11205 13.1496C3.11205 13.1496 3.24571 13.7179 3.58008 13.417C3.58008 13.417 3.87956 14.8363 4.51548 16.0238C5.01703 16.9598 5.95276 18.3303 5.58527 18.6649C5.22096 18.9956 4.70669 18.3366 4.7871 18.6022C4.95713 19.1636 5.58089 19.2459 5.9192 18.9988C6.78846 18.3638 5.50838 16.8336 5.1174 14.8878C5.1174 14.8878 5.38446 14.8543 5.27592 14.2231C5.27592 14.2231 5.9192 14.4531 5.80654 13.1894C5.80654 13.1894 6.48749 13.5509 6.48749 12.6818C6.48749 12.6818 7.18925 12.8489 7.32285 11.913C7.32285 11.913 8.46813 12.0793 8.72669 11.445C8.72669 11.445 9.02737 11.8126 9.59111 11.2238C9.73109 11.626 10.0157 11.9886 10.3883 12.2954C10.3883 12.2954 10.3142 12.8604 9.64333 13.0561C9.64333 13.0561 8.82345 12.734 7.938 13.0561C7.12178 13.3526 7.44983 14.166 8.04227 13.9714C7.8627 13.8817 7.81042 13.6129 8.10057 13.555C8.39035 13.7754 8.70364 13.6479 8.85453 13.4508C8.85453 13.4508 9.43496 13.8565 9.81776 13.439C10.0033 13.4505 10.1185 13.7113 9.86377 13.8332C10.3587 13.9326 10.537 13.4508 10.3324 13.1894C10.3324 13.1894 10.4482 13.1194 10.5795 13.0181C10.5795 13.0181 10.7343 12.8782 10.8504 12.7144C10.8504 12.7144 11.3377 13.0713 12.2407 13.2714C12.2407 13.2714 11.769 13.9955 11.0707 14.1351C11.0707 14.1351 10.0797 13.8358 9.41078 14.2231C9.41078 14.2231 9.05057 14.3972 9.10658 14.7666C9.14854 15.0439 9.38653 15.2373 9.74492 15.1924C9.5994 15.1256 9.27754 14.7897 9.68661 14.6455C9.95685 15.0403 10.6747 14.7558 10.7514 14.6427C10.8888 14.7819 11.4902 14.7254 11.5702 14.5172C11.7627 14.4853 12.0432 14.5732 11.9391 14.918C12.1719 14.8862 12.5485 14.4931 11.9952 14.1807C11.9952 14.1807 12.3237 14.0307 12.5871 13.8124L12.9863 13.4408C12.9863 13.4408 13.464 13.2597 13.4557 13.8085C13.8293 13.7644 14.1394 14.0822 14.0641 14.4309C14.0641 14.4309 13.9022 14.8301 13.3217 14.7265C12.7415 14.6225 12.7522 15.0899 13.182 15.1173C12.8978 15.1968 12.7067 15.7016 13.6568 15.7038C13.6568 15.7038 13.8665 16.8504 12.5907 16.7345C12.4395 16.6996 12.4628 16.5602 12.4803 16.45C12.6887 16.3805 12.7123 16.1717 12.6138 16.0728C12.5077 15.9673 12.2755 15.9142 12.0976 16.1018C11.9877 16.2181 11.948 16.4445 11.9821 16.6713C11.7734 16.6147 11.6621 16.5274 11.6621 16.3628C11.9058 16.2587 11.732 15.8235 11.332 15.9801C11.1698 16.0435 11.0505 16.2376 11.123 16.5543C11.2203 16.9804 11.8037 17.1657 12.2701 17.219C12.5492 17.4647 12.9729 17.7253 13.9637 17.5761C13.9637 17.5761 13.5243 19.705 10.6068 19.6121C10.6068 19.6121 9.47291 19.2089 9.81776 18.3299C9.88615 18.155 10.1222 17.8491 10.3601 17.8555C10.3601 17.8555 10.7574 17.9863 10.7574 17.6508C10.7574 17.6508 10.726 17.4062 10.472 17.3806C10.2178 17.3551 9.60866 17.4074 9.33009 18.173C9.20514 18.5173 9.23147 19.0792 9.57209 19.468C8.46939 19.1971 7.63873 18.4233 7.97278 17.3726C8.15317 16.8059 8.96468 16.2587 9.60866 16.6415C9.59156 16.9025 9.71322 17.1116 10.0091 17.1116C10.2581 17.1116 10.392 16.8852 10.3397 16.6069C10.2929 16.3577 9.93815 16.013 9.33009 15.9801C8.68632 15.9452 7.48801 16.3083 7.39855 17.6508C7.316 18.8942 8.16563 19.7903 10.277 20.0679L10.3044 20.0906C10.3044 20.0906 11.5894 20.9294 13.4057 20.4818C13.4057 20.4818 17.0651 19.7833 16.2827 15.9278C16.2827 15.9278 17.1778 13.4091 15.2432 11.9462C15.2432 11.9462 15.1988 11.587 15.4772 11.8796C15.6431 12.0996 16.3126 12.2137 16.3126 11.7461C16.3126 11.7461 16.9481 12.314 17.1771 11.7365C17.1771 11.7365 17.4154 12.4144 17.9031 11.96C17.9031 11.96 17.7829 12.4812 18.0169 12.7821C18.251 13.0828 18.6857 12.9938 18.6857 12.9938C18.6857 12.9938 18.0169 14.7875 18.8191 14.8543C18.8191 14.8543 16.814 18.8652 17.9752 19.3725C18.3782 19.5487 18.8492 19.4626 19.0887 18.9896C19.2869 18.5977 18.6523 19.3664 18.2847 19.0324C17.8469 18.6347 18.3853 17.662 18.9194 16.6592C19.6554 15.2787 20.1566 14.2632 20.2563 13.5843C20.2563 13.5843 20.6944 13.8719 20.8282 12.8356C20.9351 12.0069 20.8081 11.4302 20.7239 10.8434C20.7239 10.8434 21.292 11.211 21.0135 9.91178C21.0135 9.91178 20.8088 8.97043 19.831 8.07626ZM12.7552 3.89904C12.7957 3.90438 12.8342 3.91491 12.8704 3.92881C12.8776 3.94089 12.8817 3.95436 12.8817 3.96939C12.8817 4.01517 12.8447 4.05294 12.7987 4.05294C12.753 4.05294 12.7156 4.01517 12.7156 3.96939C12.7156 3.93948 12.7317 3.91407 12.7552 3.89904ZM12.6028 3.90634C12.6025 3.90845 12.6014 3.91056 12.6014 3.91266C12.5883 4.02457 12.6681 4.12581 12.7799 4.13901C12.8789 4.15053 12.9696 4.08888 12.9978 3.99607C13.0544 4.03384 13.1024 4.07597 13.14 4.1091C12.9241 4.11219 12.8887 4.21315 12.7025 4.17833C12.608 4.16063 12.5077 4.06192 12.5023 3.93836C12.5414 3.92067 12.5542 3.91617 12.6028 3.90634ZM15.5302 16.8028C15.5302 16.8028 15.6365 16.6277 15.6928 16.8792C15.6928 16.8792 15.8054 18.2341 14.9399 19.0622C14.3626 19.6141 13.0326 20.4034 11.5241 20.059C11.5241 20.059 13.9317 19.9051 14.5469 17.6979L14.6145 17.4493C14.6145 17.4493 15.2211 17.31 15.5302 16.8028Z" fill="white"/>
</g>
</g>
</g>
</g>
<defs>
<filter id="filter0_d_3396_61251" x="-6" y="-5" width="36" height="36" filterUnits="userSpaceOnUse" color-interpolation-filters="sRGB">
<feFlood flood-opacity="0" result="BackgroundImageFix"/>
<feColorMatrix in="SourceAlpha" type="matrix" values="0 0 0 0 0 0 0 0 0 0 0 0 0 0 0 0 0 0 127 0" result="hardAlpha"/>
<feOffset dy="1"/>
<feGaussianBlur stdDeviation="3"/>
<feComposite in2="hardAlpha" operator="out"/>
<feColorMatrix type="matrix" values="0 0 0 0 0 0 0 0 0 0 0 0 0 0 0 0 0 0 0.08 0"/>
<feBlend mode="normal" in2="BackgroundImageFix" result="effect1_dropShadow_3396_61251"/>
<feBlend mode="normal" in="SourceGraphic" in2="effect1_dropShadow_3396_61251" result="shape"/>
</filter>
<clipPath id="clip0_3396_61251">
<rect width="24" height="24" fill="white"/>
</clipPath>
<clipPath id="clip1_3396_61251">
<path d="M0 12C0 5.37258 5.37258 0 12 0C18.6274 0 24 5.37258 24 12C24 18.6274 18.6274 24 12 24C5.37258 24 0 18.6274 0 12Z" fill="white"/>
</clipPath>
<clipPath id="clip2_3396_61251">
<rect width="22.5" height="22.5" fill="white" transform="translate(0.75 0.75)"/>
</clipPath>
</defs>
</svg>
