<svg width="24" height="24" viewBox="0 0 24 24" fill="none" xmlns="http://www.w3.org/2000/svg">
<g clip-path="url(#clip0_4017_3069)">
<path d="M4.03894 10.5898V12.8539L13.317 18.0981L4.03894 10.5898Z" fill="currentColor" stroke="currentColor" stroke-width="0.0864"/>
<path d="M3.62866 10.2417L13.3843 18.1563L13.4215 17.9899C13.4731 17.7596 13.4432 17.5187 13.337 17.3077C13.2718 17.1782 13.1798 17.064 13.0671 16.9724L4.1573 9.72734C4.10848 9.68765 4.04746 9.66602 3.98432 9.66602C3.85855 9.66602 3.74896 9.75145 3.7192 9.87285L3.62866 10.2418V10.2417Z" fill="currentColor" stroke="currentColor" stroke-width="0.0864"/>
<path d="M13.2275 17.1358L21.942 12.0859L22.0624 12.2182C22.1321 12.2949 22.1768 12.3907 22.1905 12.4929C22.2035 12.5888 22.2031 12.6859 22.1894 12.7816L22.1369 13.1502L13.3851 18.1573L13.3168 17.5478L13.2275 17.1356V17.1358Z" fill="currentColor" stroke="currentColor" stroke-width="0.0864"/>
<path d="M3.82123 9.72073L12.7523 4.58301L21.942 12.0852L13.2275 17.135L4.03878 9.84214L3.82123 9.72073Z" fill="currentColor" stroke="currentColor" stroke-width="0.0864"/>
<path d="M5.54944 9.4446L7.84642 8.15918L9.6952 9.47501C10.8486 10.2958 11.9574 11.1766 13.0173 12.1135L15.0519 13.9122L15.0681 14.0033V14.1759L14.9641 14.8774L12.7323 16.0966L12.1426 14.8049L8.86794 12.086L5.76874 9.78323L5.54919 9.44472L5.54944 9.4446Z" fill="currentColor" stroke="currentColor" stroke-width="0.0864"/>
<path d="M6.44776 10.8309L6.40879 11.0679L5.3692 10.2423L5.51154 9.50508C5.51615 9.48122 5.52885 9.45971 5.54765 9.44425C5.57779 9.4194 5.61926 9.41297 5.6555 9.42781L5.69572 9.44425C5.70319 9.44734 5.71042 9.4513 5.71702 9.456L8.58011 11.492C9.07275 11.8424 9.54684 12.2177 10.0004 12.6167L12.526 14.8383L12.7149 15.0211C12.7825 15.0866 12.8303 15.1696 12.8529 15.2606C12.8708 15.3329 12.8723 15.4082 12.8572 15.4812L12.7306 16.096L11.7341 15.2953L11.7537 15.0437L9.49914 13.0979C9.08732 12.7424 8.65906 12.4063 8.21573 12.0904L6.44789 10.8309H6.44776Z" fill="currentColor" stroke="currentColor" stroke-width="0.0864"/>
<path d="M14.2 14.5967L13.6932 14.8804V15.461L14.2 15.1643V14.5967Z" fill="currentColor" stroke="currentColor" stroke-width="0.0864"/>
<path d="M13.228 5.96484L9.21912 8.28706L10.8126 9.54973L14.7889 7.22751L13.228 5.96484Z" fill="currentColor" stroke="currentColor" stroke-width="0.0864"/>
<path d="M14.3229 10.5875C14.3203 10.614 14.3022 10.6352 14.2795 10.6486L13.5158 11.0964C13.4869 11.1126 13.4527 11.1189 13.4197 11.117C13.3855 11.1147 13.3508 11.1046 13.3233 11.084L12.6157 10.5402C12.5925 10.5224 12.5781 10.4991 12.5797 10.4717L12.5707 10.5925C12.569 10.6163 12.5808 10.6411 12.6067 10.661L13.3143 11.2048C13.3479 11.2298 13.3916 11.2401 13.4332 11.238C13.4588 11.236 13.4845 11.2302 13.5068 11.2172L14.2706 10.7694C14.2931 10.7563 14.3117 10.7346 14.3139 10.7083L14.3229 10.5875Z" fill="currentColor" stroke="currentColor" stroke-width="0.0864"/>
<path d="M13.3869 9.96335C13.4419 9.93108 13.5282 9.93665 13.5792 9.97596L14.2868 10.5198C14.3378 10.559 14.3344 10.6171 14.2794 10.6494L13.5157 11.0972C13.4605 11.1296 13.3742 11.1239 13.3231 11.0847L12.6155 10.5408C12.5645 10.5017 12.5679 10.4435 12.623 10.4112L13.3868 9.96335H13.3869Z" fill="currentColor" stroke="currentColor" stroke-width="0.0864"/>
<path d="M15.6644 9.82092C15.6618 9.84738 15.6437 9.86865 15.621 9.882L14.8573 10.3298C14.8284 10.346 14.7941 10.3523 14.7611 10.3504C14.727 10.3481 14.6923 10.338 14.6648 10.3174L13.9572 9.77357C13.934 9.75577 13.9196 9.73252 13.9212 9.70508L13.9122 9.82587C13.9105 9.84973 13.9223 9.87446 13.9482 9.89436L14.6558 10.4382C14.6894 10.4632 14.7331 10.4735 14.7747 10.4714C14.8002 10.4694 14.826 10.4636 14.8483 10.4506L15.6121 10.0028C15.6346 9.98968 15.6532 9.96805 15.6554 9.94171L15.6644 9.82092Z" fill="currentColor" stroke="currentColor" stroke-width="0.0864"/>
<path d="M14.7286 9.19675C14.7837 9.16448 14.87 9.17005 14.9209 9.20936L15.6285 9.75323C15.6795 9.79242 15.6762 9.85053 15.6211 9.8828L14.8574 10.3306C14.8022 10.363 14.7159 10.3573 14.6649 10.3181L13.9573 9.77424C13.9062 9.73505 13.9096 9.67694 13.9648 9.64455L14.7285 9.19675H14.7286Z" fill="currentColor" stroke="currentColor" stroke-width="0.0864"/>
<path d="M16.9797 9.05432C16.9771 9.08078 16.9591 9.10204 16.9364 9.1154L16.1727 9.5632C16.1438 9.57939 16.1095 9.5857 16.0765 9.58384C16.0424 9.5815 16.0076 9.57136 15.9801 9.55083L15.2725 9.00697C15.2494 8.98917 15.2349 8.96592 15.2366 8.93848L15.2276 9.05927C15.2258 9.08313 15.2377 9.10785 15.2636 9.12776L15.9712 9.67162C16.0048 9.6966 16.0485 9.70686 16.0901 9.70476C16.1156 9.70278 16.1414 9.69697 16.1637 9.68399L16.9274 9.23619C16.95 9.22308 16.9685 9.20145 16.9708 9.17511L16.9797 9.05432Z" fill="currentColor"/>
<path d="M16.0438 8.42917C16.0989 8.3969 16.1852 8.40247 16.2361 8.44178L16.9437 8.98565C16.9947 9.02484 16.9914 9.08295 16.9363 9.11522L16.1726 9.56302C16.1174 9.59541 16.0311 9.58972 15.9801 9.55053L15.2725 9.00667C15.2214 8.96747 15.2248 8.90937 15.2799 8.87697L16.0437 8.42917H16.0438Z" fill="currentColor" stroke="currentColor" stroke-width="0.0864"/>
<path d="M15.55 11.4996C15.5474 11.5261 15.5293 11.5474 15.5066 11.5607L14.7429 12.0085C14.714 12.0247 14.6798 12.031 14.6468 12.0292C14.6126 12.0268 14.5779 12.0167 14.5504 11.9961L13.8428 11.4523C13.8196 11.4345 13.8052 11.4112 13.8068 11.3838L13.7978 11.5046C13.7961 11.5284 13.8079 11.5532 13.8338 11.5731L14.5414 12.1169C14.575 12.1419 14.6187 12.1522 14.6603 12.1501C14.6859 12.1481 14.7116 12.1423 14.7339 12.1293L15.4977 11.6815C15.5202 11.6684 15.5388 11.6468 15.541 11.6204L15.55 11.4996Z" fill="currentColor" stroke="currentColor" stroke-width="0.0864"/>
<path d="M14.614 10.8755C14.669 10.8432 14.7553 10.8488 14.8063 10.8881L15.5139 11.4319C15.5649 11.4711 15.5616 11.5292 15.5065 11.5615L14.7428 12.0093C14.6876 12.0417 14.6013 12.036 14.5502 11.9968L13.8427 11.453C13.7916 11.4138 13.795 11.3557 13.8501 11.3233L14.6139 10.8755H14.614Z" fill="currentColor" stroke="currentColor" stroke-width="0.0864"/>
<path d="M16.8929 10.734C16.8903 10.7605 16.8723 10.7817 16.8496 10.7951L16.0859 11.2429C16.057 11.2591 16.0227 11.2654 15.9897 11.2635C15.9556 11.2612 15.9209 11.251 15.8933 11.2305L15.1857 10.6867C15.1626 10.6689 15.1481 10.6456 15.1498 10.6182L15.1408 10.739C15.139 10.7628 15.1509 10.7875 15.1768 10.8074L15.8844 11.3513C15.918 11.3763 15.9617 11.3865 16.0033 11.3844C16.0288 11.3825 16.0546 11.3767 16.0769 11.3637L16.8406 10.9159C16.8632 10.9028 16.8817 10.8811 16.884 10.8548L16.8929 10.734Z" fill="currentColor" stroke="currentColor" stroke-width="0.0864"/>
<path d="M15.9569 10.1098C16.0119 10.0776 16.0982 10.0831 16.1492 10.1224L16.8568 10.6663C16.9078 10.7055 16.9045 10.7636 16.8494 10.7959L16.0857 11.2437C16.0305 11.2761 15.9442 11.2704 15.8931 11.2312L15.1856 10.6873C15.1345 10.6481 15.1379 10.59 15.193 10.5576L15.9568 10.1098H15.9569Z" fill="currentColor" stroke="currentColor" stroke-width="0.0864"/>
<path d="M18.208 9.96741C18.2054 9.99386 18.1873 10.0151 18.1647 10.0285L17.4009 10.4763C17.372 10.4925 17.3378 10.4988 17.3048 10.4969C17.2707 10.4946 17.2359 10.4844 17.2084 10.4639L16.5008 9.92006C16.4776 9.90225 16.4632 9.87901 16.4648 9.85156L16.4559 9.97235C16.4541 9.99621 16.4659 10.0209 16.4918 10.0408L17.1994 10.5847C17.2331 10.6097 17.2768 10.6199 17.3184 10.6178C17.3439 10.6159 17.3697 10.6101 17.392 10.5971L18.1557 10.1493C18.1782 10.1362 18.1968 10.1145 18.199 10.0882L18.208 9.96741Z" fill="currentColor" stroke="currentColor" stroke-width="0.0864"/>
<path d="M17.272 9.34324C17.3271 9.31097 17.4134 9.31653 17.4643 9.35585L18.1719 9.89971C18.2229 9.9389 18.2196 9.99701 18.1645 10.0293L17.4008 10.4771C17.3456 10.5095 17.2593 10.5038 17.2083 10.4646L16.5007 9.92073C16.4496 9.88154 16.453 9.82343 16.5082 9.79104L17.2719 9.34324H17.272Z" fill="currentColor" stroke="currentColor" stroke-width="0.0864"/>
<path d="M16.7682 12.4772C16.7656 12.5036 16.7476 12.5249 16.7249 12.5382L15.9612 12.986C15.9323 13.0022 15.898 13.0086 15.865 13.0067C15.8309 13.0043 15.7962 12.9942 15.7686 12.9737L15.0611 12.4298C15.0379 12.412 15.0234 12.3888 15.0251 12.3613L15.0161 12.4821C15.0144 12.506 15.0262 12.5307 15.0521 12.5506L15.7597 13.0945C15.7933 13.1194 15.837 13.1297 15.8786 13.1276C15.9041 13.1256 15.9299 13.1198 15.9522 13.1068L16.7159 12.659C16.7385 12.6459 16.757 12.6243 16.7593 12.598L16.7682 12.4772Z" fill="currentColor" stroke="currentColor" stroke-width="0.0864"/>
<path d="M15.8323 11.853C15.8873 11.8207 15.9736 11.8263 16.0245 11.8656L16.7321 12.4095C16.7832 12.4487 16.7798 12.5068 16.7248 12.539L15.961 12.9868C15.9059 13.0192 15.8196 13.0136 15.7685 12.9744L15.0609 12.4305C15.0099 12.3913 15.0132 12.3332 15.0684 12.3008L15.8321 11.853H15.8323Z" fill="currentColor" stroke="currentColor" stroke-width="0.0864"/>
<path d="M18.1112 11.7115C18.1086 11.738 18.0905 11.7593 18.0679 11.7726L17.3041 12.2204C17.2752 12.2366 17.241 12.2429 17.208 12.2411C17.1739 12.2387 17.1391 12.2286 17.1116 12.2081L16.404 11.6642C16.3808 11.6464 16.3664 11.6231 16.368 11.5957L16.3591 11.7165C16.3573 11.7404 16.3691 11.7651 16.395 11.785L17.1026 12.3289C17.1363 12.3538 17.18 12.3641 17.2216 12.362C17.2471 12.36 17.2729 12.3542 17.2952 12.3412L18.0589 11.8934C18.0814 11.8803 18.1 11.8587 18.1022 11.8323L18.1112 11.7115Z" fill="currentColor" stroke="currentColor" stroke-width="0.0864"/>
<path d="M17.1752 11.0864C17.2302 11.0541 17.3165 11.0597 17.3674 11.099L18.075 11.6429C18.1261 11.6821 18.1227 11.7402 18.0677 11.7724L17.3039 12.2202C17.2488 12.2526 17.1625 12.2469 17.1114 12.2078L16.4038 11.6639C16.3528 11.6247 16.3561 11.5666 16.4113 11.5342L17.175 11.0864H17.1752Z" fill="currentColor" stroke="currentColor" stroke-width="0.0864"/>
<path d="M19.4263 10.9449C19.4237 10.9714 19.4056 10.9927 19.3829 11.006L18.6192 11.4538C18.5903 11.47 18.556 11.4763 18.523 11.4745C18.4889 11.4721 18.4542 11.462 18.4267 11.4415L17.7191 10.8976C17.6959 10.8798 17.6815 10.8565 17.6831 10.8291L17.6741 10.9499C17.6724 10.9738 17.6842 10.9985 17.7101 11.0184L18.4177 11.5622C18.4513 11.5872 18.495 11.5975 18.5366 11.5954C18.5621 11.5934 18.5879 11.5876 18.6102 11.5746L19.374 11.1268C19.3965 11.1137 19.4151 11.0921 19.4173 11.0657L19.4263 10.9449Z" fill="currentColor" stroke="currentColor" stroke-width="0.0864"/>
<path d="M18.4903 10.3208C18.5454 10.2885 18.6317 10.2941 18.6826 10.3334L19.3902 10.8773C19.4413 10.9164 19.4379 10.9745 19.3829 11.0068L18.6191 11.4546C18.5639 11.487 18.4776 11.4813 18.4266 11.4421L17.719 10.8983C17.6679 10.8591 17.6713 10.801 17.7265 10.7686L18.4902 10.3208H18.4903Z" fill="currentColor" stroke="currentColor" stroke-width="0.0864"/>
<path d="M13.8165 14.9678C14.2438 15.5111 14.7256 16.1407 14.6947 16.8674C14.679 17.2372 14.5202 17.5813 14.3317 17.8942C14.1556 18.1866 13.9617 18.48 13.7398 18.7405C13.5398 18.9754 13.2932 19.1975 12.9793 19.2572C12.7947 19.2924 12.6083 19.2547 12.4327 19.1968C12.2341 19.1314 12.0412 19.0473 11.847 18.97C11.054 18.6545 10.261 18.3389 9.46801 18.0234C8.78608 17.752 8.09618 17.4904 7.45036 17.1399C7.1414 16.9722 6.84203 16.7842 6.56769 16.5645C6.29845 16.3488 6.06321 16.1019 5.84142 15.839C5.42711 15.3483 5.0118 14.8188 4.36299 14.6373C4.05079 14.5499 3.72365 14.5341 3.40236 14.5045C3.09888 14.4766 2.78195 14.4387 2.5096 14.2929C2.2507 14.1541 2.06838 13.9259 1.9923 13.6438C1.91621 13.3616 1.94311 13.0737 2.04921 12.8121C2.28644 12.2271 2.93711 11.9402 3.54171 11.9412C3.69625 11.9415 3.84942 11.9596 3.99986 11.9948C4.09338 12.0166 4.13336 11.8736 4.03958 11.8517C3.40535 11.7035 2.67186 11.835 2.20524 12.3104C1.78595 12.7374 1.66777 13.4449 1.96565 13.971C2.11882 14.2415 2.37896 14.4237 2.67111 14.5226C2.98418 14.6285 3.32079 14.6453 3.64768 14.6743C3.97819 14.7034 4.31779 14.7421 4.61791 14.8926C4.92039 15.0442 5.16422 15.2824 5.38601 15.5324C5.61428 15.7897 5.82262 16.0645 6.06383 16.3104C6.32062 16.5723 6.61202 16.7999 6.92011 16.9992C7.54525 17.4034 8.2374 17.6911 8.92705 17.9668C9.73949 18.2917 10.5532 18.614 11.3662 18.9375C11.5751 19.0206 11.784 19.1038 11.9929 19.1869C12.1854 19.2636 12.378 19.3489 12.5819 19.3916C12.9341 19.4654 13.2604 19.3659 13.5384 19.1468C13.8049 18.9369 14.0045 18.6542 14.1941 18.3773C14.41 18.062 14.6232 17.7372 14.7468 17.3732C14.867 17.0186 14.8738 16.644 14.7684 16.2848C14.6631 15.9257 14.4683 15.6019 14.2531 15.2997C14.147 15.1509 14.0349 15.0065 13.922 14.8628C13.8628 14.7876 13.7577 14.8933 13.8163 14.9678H13.8165Z" fill="currentColor"/>
</g>
<defs>
<clipPath id="clip0_4017_3069">
<rect width="24" height="24" fill="currentColor"/>
</clipPath>
</defs>
</svg>
