<svg width="24" height="24" viewBox="0 0 24 24" fill="none" xmlns="http://www.w3.org/2000/svg">
<g clip-path="url(#clip0_6029_7479)">
<g clip-path="url(#clip1_6029_7479)">
<path d="M3.21973 10.4453V12.9425L13.4529 18.7265L3.21973 10.4453Z" fill="currentColor" stroke="currentColor" stroke-width="0.075"/>
<path d="M2.7666 10.0617L13.5265 18.7911L13.5675 18.6075C13.6244 18.3535 13.5914 18.0878 13.4743 17.8551C13.4025 17.7123 13.301 17.5863 13.1767 17.4853L3.34965 9.49439C3.29581 9.45062 3.22851 9.42676 3.15887 9.42676C3.02015 9.42676 2.89928 9.52098 2.86646 9.65489L2.7666 10.0618V10.0617Z" fill="currentColor" stroke="currentColor" stroke-width="0.075"/>
<path d="M13.354 17.6654L22.9655 12.0957L23.0983 12.2416C23.1752 12.3262 23.2245 12.4318 23.2396 12.5446C23.2539 12.6503 23.2535 12.7575 23.2384 12.863L23.1805 13.2695L13.5278 18.7921L13.4525 18.1198L13.354 17.6652V17.6654Z" fill="currentColor" stroke="currentColor" stroke-width="0.075"/>
<path d="M2.97949 9.48692L12.83 3.82031L22.9656 12.0948L13.3541 17.6645L3.21944 9.62082L2.97949 9.48692Z" fill="currentColor" stroke="currentColor" stroke-width="0.075"/>
<path d="M4.88553 9.18239L7.41895 7.76465L9.45806 9.21593C10.7302 10.1212 11.9532 11.0927 13.1221 12.126L15.3662 14.1099L15.384 14.2104V14.4008L15.2693 15.1745L12.8078 16.5191L12.1574 15.0944L8.54564 12.0957L5.1274 9.55588L4.88525 9.18253L4.88553 9.18239Z" fill="currentColor" stroke="currentColor" stroke-width="0.075"/>
<path d="M5.87611 10.7115L5.83312 10.9729L4.68652 10.0623L4.84351 9.2492C4.8486 9.22288 4.86261 9.19915 4.88335 9.18211C4.91659 9.1547 4.96232 9.14761 5.00229 9.16397L5.04666 9.18211C5.0549 9.18552 5.06286 9.18988 5.07014 9.19506L8.22796 11.4407C8.77132 11.8271 9.29421 12.2411 9.79444 12.6811L12.58 15.1314L12.7884 15.3331C12.863 15.4053 12.9157 15.4968 12.9406 15.5972C12.9604 15.677 12.962 15.76 12.9454 15.8405L12.8057 16.5186L11.7066 15.6355L11.7282 15.358L9.24161 13.2118C8.78739 12.8198 8.31504 12.449 7.82607 12.1006L5.87625 10.7115H5.87611Z" fill="currentColor" stroke="currentColor" stroke-width="0.075"/>
<path d="M14.4267 14.8643L13.8677 15.1772V15.8176L14.4267 15.4903V14.8643Z" fill="currentColor" stroke="currentColor" stroke-width="0.075"/>
<path d="M13.3547 5.34375L8.93311 7.90501L10.6906 9.29766L15.0762 6.7364L13.3547 5.34375Z" fill="currentColor" stroke="currentColor" stroke-width="0.075"/>
<path d="M14.5616 10.4442C14.5587 10.4734 14.5388 10.4968 14.5138 10.5115L13.6714 11.0054C13.6396 11.0233 13.6018 11.0303 13.5654 11.0282C13.5278 11.0256 13.4895 11.0144 13.4591 10.9918L12.6787 10.3919C12.6531 10.3723 12.6372 10.3467 12.639 10.3164L12.6291 10.4496C12.6272 10.4759 12.6402 10.5032 12.6688 10.5252L13.4492 11.125C13.4863 11.1526 13.5345 11.1639 13.5804 11.1616C13.6085 11.1594 13.637 11.153 13.6616 11.1387L14.5039 10.6448C14.5288 10.6303 14.5492 10.6064 14.5517 10.5774L14.5616 10.4442Z" fill="currentColor" stroke="currentColor" stroke-width="0.075"/>
<path d="M13.5293 9.75457C13.5901 9.71898 13.6852 9.72512 13.7414 9.76848L14.5218 10.3683C14.5782 10.4116 14.5744 10.4756 14.5137 10.5112L13.6714 11.0051C13.6105 11.0409 13.5153 11.0346 13.459 10.9914L12.6786 10.3915C12.6223 10.3483 12.626 10.2842 12.6868 10.2485L13.5292 9.75457H13.5293Z" fill="currentColor" stroke="currentColor" stroke-width="0.075"/>
<path d="M16.0411 9.59652C16.0382 9.6257 16.0183 9.64916 15.9933 9.66388L15.1509 10.1578C15.1191 10.1756 15.0813 10.1826 15.0449 10.1806C15.0073 10.178 14.9689 10.1668 14.9386 10.1441L14.1582 9.54429C14.1326 9.52466 14.1167 9.49902 14.1185 9.46875L14.1086 9.60197C14.1067 9.62829 14.1197 9.65556 14.1483 9.67752L14.9287 10.2774C14.9658 10.3049 15.014 10.3162 15.0599 10.3139C15.088 10.3117 15.1165 10.3053 15.141 10.291L15.9834 9.79711C16.0083 9.78265 16.0287 9.75879 16.0312 9.72974L16.0411 9.59652Z" fill="currentColor" stroke="currentColor" stroke-width="0.075"/>
<path d="M15.0088 8.90789C15.0695 8.8723 15.1647 8.87844 15.2209 8.9218L16.0013 9.52165C16.0576 9.56488 16.0539 9.62897 15.9932 9.66456L15.1509 10.1585C15.09 10.1942 14.9948 10.1879 14.9385 10.1447L14.1581 9.54484C14.1018 9.50161 14.1055 9.43752 14.1663 9.40179L15.0087 8.90789H15.0088Z" fill="currentColor" stroke="currentColor" stroke-width="0.075"/>
<path d="M17.4932 8.75179C17.4904 8.78097 17.4704 8.80443 17.4455 8.81916L16.6031 9.31305C16.5712 9.33092 16.5334 9.33787 16.497 9.33583C16.4594 9.33324 16.4211 9.32205 16.3907 9.29942L15.6103 8.69957C15.5848 8.67993 15.5688 8.6543 15.5706 8.62402L15.5607 8.75725C15.5588 8.78357 15.5719 8.81084 15.6004 8.83279L16.3808 9.43264C16.4179 9.46019 16.4661 9.47151 16.512 9.46919C16.5402 9.46701 16.5686 9.4606 16.5932 9.44628L17.4356 8.95238C17.4604 8.93793 17.4809 8.91406 17.4834 8.88502L17.4932 8.75179Z" fill="currentColor" stroke="currentColor" stroke-width="0.075"/>
<path d="M16.461 8.06317C16.5217 8.02758 16.6169 8.03371 16.6731 8.07708L17.4535 8.67693C17.5098 8.72015 17.5061 8.78424 17.4454 8.81983L16.603 9.31373C16.5422 9.34946 16.447 9.34319 16.3907 9.29996L15.6102 8.70011C15.5539 8.65688 15.5576 8.59279 15.6185 8.55707L16.4609 8.06317H16.461Z" fill="currentColor" stroke="currentColor" stroke-width="0.075"/>
<path d="M15.9156 11.45C15.9127 11.4792 15.8928 11.5027 15.8678 11.5174L15.0254 12.0113C14.9936 12.0292 14.9558 12.0361 14.9194 12.0341C14.8818 12.0315 14.8435 12.0203 14.8131 11.9977L14.0327 11.3978C14.0071 11.3782 13.9912 11.3525 13.993 11.3223L13.9831 11.4555C13.9812 11.4818 13.9942 11.5091 14.0228 11.531L14.8032 12.1309C14.8403 12.1584 14.8885 12.1697 14.9344 12.1674C14.9625 12.1652 14.991 12.1588 15.0156 12.1445L15.8579 11.6506C15.8828 11.6362 15.9033 11.6123 15.9057 11.5833L15.9156 11.45Z" fill="currentColor" stroke="currentColor" stroke-width="0.075"/>
<path d="M14.8829 10.7614C14.9436 10.7258 15.0388 10.732 15.0949 10.7753L15.8754 11.3752C15.9317 11.4184 15.928 11.4825 15.8673 11.5181L15.0249 12.012C14.964 12.0477 14.8689 12.0414 14.8125 11.9982L14.0321 11.3984C13.9758 11.3551 13.9795 11.291 14.0404 11.2553L14.8827 10.7614H14.8829Z" fill="currentColor" stroke="currentColor" stroke-width="0.075"/>
<path d="M17.3966 10.6043C17.3937 10.6335 17.3738 10.657 17.3488 10.6717L16.5064 11.1656C16.4745 11.1835 16.4368 11.1904 16.4004 11.1884C16.3627 11.1858 16.3244 11.1746 16.2941 11.152L15.5136 10.5521C15.4881 10.5325 15.4722 10.5068 15.4739 10.4766L15.4641 10.6098C15.4621 10.6361 15.4752 10.6634 15.5037 10.6853L16.2842 11.2852C16.3213 11.3127 16.3695 11.324 16.4153 11.3217C16.4435 11.3195 16.4719 11.3131 16.4965 11.2988L17.3389 10.8049C17.3637 10.7905 17.3842 10.7666 17.3867 10.7376L17.3966 10.6043Z" fill="currentColor" stroke="currentColor" stroke-width="0.075"/>
<path d="M16.3643 9.91571C16.425 9.88012 16.5202 9.88625 16.5764 9.92962L17.3568 10.5295C17.4131 10.5727 17.4094 10.6368 17.3487 10.6724L16.5063 11.1663C16.4455 11.202 16.3503 11.1957 16.294 11.1525L15.5136 10.5526C15.4572 10.5094 15.461 10.4453 15.5218 10.4096L16.3642 9.91571H16.3643Z" fill="currentColor" stroke="currentColor" stroke-width="0.075"/>
<path d="M18.8477 9.75863C18.8449 9.78781 18.8249 9.81126 18.7999 9.82599L17.9576 10.3199C17.9257 10.3378 17.8879 10.3447 17.8515 10.3427C17.8139 10.3401 17.7756 10.3289 17.7452 10.3063L16.9648 9.7064C16.9393 9.68677 16.9233 9.66113 16.9251 9.63086L16.9152 9.76408C16.9133 9.7904 16.9263 9.81767 16.9549 9.83963L17.7353 10.4395C17.7724 10.467 17.8206 10.4783 17.8665 10.476C17.8947 10.4738 17.9231 10.4674 17.9477 10.4531L18.7901 9.95922C18.8149 9.94476 18.8354 9.9209 18.8379 9.89185L18.8477 9.75863Z" fill="currentColor" stroke="currentColor" stroke-width="0.075"/>
<path d="M17.8155 9.07C17.8762 9.03441 17.9714 9.04055 18.0275 9.08391L18.808 9.68376C18.8643 9.72699 18.8606 9.79108 18.7999 9.82667L17.9575 10.3206C17.8967 10.3563 17.8015 10.35 17.7452 10.3068L16.9647 9.70694C16.9084 9.66372 16.9121 9.59963 16.973 9.5639L17.8153 9.07H17.8155Z" fill="currentColor" stroke="currentColor" stroke-width="0.075"/>
<path d="M17.2599 12.5282C17.257 12.5573 17.2371 12.5808 17.2121 12.5955L16.3697 13.0894C16.3378 13.1073 16.3 13.1142 16.2636 13.1122C16.226 13.1096 16.1877 13.0984 16.1573 13.0758L15.3769 12.4759C15.3514 12.4563 15.3354 12.4307 15.3372 12.4004L15.3273 12.5336C15.3254 12.5599 15.3385 12.5872 15.367 12.6092L16.1475 13.209C16.1845 13.2366 16.2327 13.2479 16.2786 13.2456C16.3068 13.2434 16.3352 13.237 16.3598 13.2226L17.2022 12.7287C17.227 12.7143 17.2475 12.6904 17.25 12.6614L17.2599 12.5282Z" fill="currentColor" stroke="currentColor" stroke-width="0.075"/>
<path d="M16.2276 11.8395C16.2883 11.8039 16.3835 11.8101 16.4397 11.8534L17.2201 12.4533C17.2764 12.4965 17.2727 12.5606 17.212 12.5962L16.3696 13.0901C16.3088 13.1258 16.2136 13.1196 16.1573 13.0763L15.3768 12.4765C15.3205 12.4332 15.3242 12.3692 15.3851 12.3334L16.2275 11.8395H16.2276Z" fill="currentColor" stroke="currentColor" stroke-width="0.075"/>
<path d="M18.7403 11.6834C18.7374 11.7126 18.7175 11.7361 18.6925 11.7508L17.8502 12.2447C17.8183 12.2626 17.7805 12.2695 17.7441 12.2675C17.7065 12.2649 17.6682 12.2537 17.6378 12.2311L16.8574 11.6312C16.8318 11.6116 16.8159 11.5859 16.8177 11.5557L16.8078 11.6889C16.8059 11.7152 16.8189 11.7425 16.8475 11.7644L17.6279 12.3643C17.665 12.3918 17.7132 12.4031 17.7591 12.4008C17.7872 12.3986 17.8157 12.3922 17.8403 12.3779L18.6826 11.884C18.7075 11.8696 18.728 11.8457 18.7304 11.8167L18.7403 11.6834Z" fill="currentColor" stroke="currentColor" stroke-width="0.075"/>
<path d="M17.7081 10.9938C17.7688 10.9582 17.864 10.9644 17.9201 11.0077L18.7006 11.6076C18.7569 11.6508 18.7532 11.7149 18.6924 11.7505L17.8501 12.2444C17.7892 12.2801 17.694 12.2738 17.6377 12.2306L16.8573 11.6308C16.801 11.5875 16.8047 11.5235 16.8656 11.4877L17.7079 10.9938H17.7081Z" fill="currentColor" stroke="currentColor" stroke-width="0.075"/>
<path d="M20.1915 10.8387C20.1886 10.8679 20.1687 10.8913 20.1437 10.9061L19.3013 11.4C19.2695 11.4178 19.2317 11.4248 19.1953 11.4227C19.1577 11.4201 19.1193 11.409 19.089 11.3863L18.3086 10.7865C18.283 10.7668 18.2671 10.7412 18.2689 10.7109L18.259 10.8442C18.2571 10.8705 18.2701 10.8978 18.2987 10.9197L19.0791 11.5196C19.1162 11.5471 19.1644 11.5584 19.2103 11.5561C19.2384 11.5539 19.2668 11.5475 19.2914 11.5332L20.1338 11.0393C20.1587 11.0248 20.1791 11.001 20.1816 10.9719L20.1915 10.8387Z" fill="currentColor" stroke="currentColor" stroke-width="0.075"/>
<path d="M19.1592 10.1491C19.2199 10.1135 19.3151 10.1197 19.3713 10.163L20.1517 10.7629C20.208 10.8061 20.2043 10.8702 20.1436 10.9058L19.3012 11.3997C19.2404 11.4354 19.1452 11.4291 19.0889 11.3859L18.3085 10.786C18.2522 10.7428 18.2559 10.6787 18.3167 10.643L19.1591 10.1491H19.1592Z" fill="currentColor" stroke="currentColor" stroke-width="0.075"/>
<path d="M14.0035 15.274C14.4748 15.8733 15.0062 16.5676 14.9721 17.3692C14.9548 17.777 14.7797 18.1565 14.5717 18.5016C14.3775 18.8241 14.1637 19.1477 13.9189 19.435C13.6983 19.6941 13.4264 19.9392 13.0801 20.005C12.8766 20.0437 12.6709 20.0022 12.4773 19.9383C12.2582 19.8662 12.0454 19.7735 11.8313 19.6883C10.9567 19.3403 10.082 18.9921 9.20738 18.6441C8.45525 18.3448 7.69433 18.0563 6.98203 17.6697C6.64126 17.4848 6.31107 17.2774 6.00849 17.0351C5.71154 16.7971 5.45208 16.5248 5.20746 16.2349C4.7505 15.6937 4.29244 15.1097 3.57684 14.9095C3.2325 14.8131 2.87168 14.7956 2.51732 14.763C2.1826 14.7322 1.83304 14.6905 1.53266 14.5296C1.24711 14.3766 1.04602 14.1249 0.962104 13.8137C0.878183 13.5025 0.90785 13.1849 1.02487 12.8964C1.28652 12.2511 2.00418 11.9348 2.67102 11.9359C2.84147 11.9361 3.01041 11.9562 3.17633 11.9949C3.27948 12.0191 3.32357 11.8613 3.22014 11.8371C2.52062 11.6737 1.71162 11.8187 1.19697 12.343C0.734514 12.814 0.604169 13.5943 0.932711 14.1746C1.10165 14.473 1.38858 14.6739 1.7108 14.7829C2.0561 14.8998 2.42736 14.9184 2.7879 14.9503C3.15243 14.9824 3.52698 15.0251 3.858 15.1911C4.19162 15.3583 4.46055 15.621 4.70517 15.8967C4.95694 16.1805 5.18672 16.4836 5.45277 16.7549C5.73599 17.0437 6.05739 17.2947 6.39719 17.5145C7.08669 17.9603 7.85008 18.2776 8.61073 18.5817C9.5068 18.94 10.4042 19.2955 11.301 19.6524C11.5313 19.744 11.7618 19.8358 11.9922 19.9274C12.2045 20.012 12.417 20.1061 12.6418 20.1532C13.0302 20.2346 13.3901 20.1249 13.6968 19.8832C13.9907 19.6517 14.2109 19.3398 14.42 19.0345C14.6581 18.6867 14.8933 18.3285 15.0295 17.927C15.1622 17.5359 15.1696 17.1228 15.0534 16.7266C14.9372 16.3305 14.7224 15.9734 14.4851 15.6401C14.368 15.4759 14.2444 15.3167 14.1198 15.1582C14.0546 15.0753 13.9387 15.1919 14.0032 15.274H14.0035Z" fill="currentColor"/>
<circle cx="21.3" cy="3.675" r="1.8" fill="currentColor"/>
</g>
</g>
<defs>
<clipPath id="clip0_6029_7479">
<rect width="24" height="24" fill="currentColor"/>
</clipPath>
<clipPath id="clip1_6029_7479">
<rect width="24" height="24" fill="currentColor"/>
</clipPath>
</defs>
</svg>
