<svg width="24" height="24" viewBox="0 0 24 24" fill="none" xmlns="http://www.w3.org/2000/svg">
<g clip-path="url(#clip0_1496_70738)">
<path d="M7 11H4.1C3.53995 11 3.25992 11 3.04601 11.109C2.85785 11.2049 2.70487 11.3578 2.60899 11.546C2.5 11.7599 2.5 12.0399 2.5 12.6V21M16 11H18.9C19.4601 11 19.7401 11 19.954 11.109C20.1422 11.2049 20.2951 11.3578 20.391 11.546C20.5 11.7599 20.5 12.0399 20.5 12.6V21M16 21V6.2C16 5.0799 16 4.51984 15.782 4.09202C15.5903 3.71569 15.2843 3.40973 14.908 3.21799C14.4802 3 13.9201 3 12.8 3H10.2C9.07989 3 8.51984 3 8.09202 3.21799C7.71569 3.40973 7.40973 3.71569 7.21799 4.09202C7 4.51984 7 5.0799 7 6.2V21M21.5 21H1.5M10.5 7H12.5M10.5 11H12.5M10.5 15H12.5" stroke="currentColor" stroke-width="1.75" stroke-linecap="round" stroke-linejoin="round"/>
</g>
<defs>
<clipPath id="clip0_1496_70738">
<rect width="24" height="24" fill="currentColor"/>
</clipPath>
</defs>
</svg>
