<svg width="16" height="16" viewBox="0 0 16 16" fill="none" xmlns="http://www.w3.org/2000/svg">
<g clip-path="url(#clip0_3396_61701)">
<g clip-path="url(#clip1_3396_61701)">
<path d="M0.25 8C0.25 3.71979 3.71979 0.25 8 0.25C12.2802 0.25 15.75 3.71979 15.75 8C15.75 12.2802 12.2802 15.75 8 15.75C3.71979 15.75 0.25 12.2802 0.25 8Z" fill="currentColor"/>
<path d="M10.7737 10.5474C10.8688 10.4849 10.9626 10.4223 11.054 10.3535L11.1153 10.4136C11.0865 10.4336 11.059 10.4536 11.0327 10.4749C11.1716 10.655 11.2992 10.8427 11.443 11.0178C11.4068 11.0529 11.3692 11.0866 11.3317 11.1204C11.2741 11.0441 11.2066 10.9766 11.1503 10.9027C11.1145 10.9348 11.076 10.9636 11.0352 10.9891C11.0352 11.0266 11.0352 11.0766 10.9989 11.0954C10.9544 11.1004 10.9095 11.1004 10.865 11.0954C10.8414 11.0962 10.8181 11.0902 10.7977 11.0783C10.7774 11.0663 10.7608 11.0488 10.7499 11.0278C10.748 11.0149 10.7489 11.0018 10.7526 10.9892C10.7563 10.9767 10.7626 10.9651 10.7712 10.9553C10.7307 10.8847 10.686 10.8166 10.6373 10.7514C10.5971 10.7768 10.5553 10.7998 10.5122 10.8202C10.542 10.8783 10.575 10.9347 10.6111 10.9891L10.4359 11.1142C10.4159 11.1292 10.3921 11.1429 10.3834 11.168C10.3746 11.193 10.4322 11.183 10.4509 11.168C10.4952 11.1263 10.5541 11.1038 10.6148 11.1054C10.6738 11.1096 10.7305 11.1299 10.7787 11.1642C10.802 11.1895 10.8196 11.2194 10.8304 11.2519C10.8411 11.2845 10.8449 11.319 10.8413 11.3531C10.8413 11.3957 10.8125 11.4269 10.7887 11.4582C10.7562 11.4432 10.7249 11.4269 10.6949 11.4094C10.7062 11.3753 10.7062 11.3384 10.6949 11.3043C10.6832 11.2891 10.6669 11.278 10.6484 11.2729C10.6299 11.2677 10.6102 11.2686 10.5923 11.2756C10.5703 11.2861 10.5508 11.3012 10.5352 11.32C10.5197 11.3388 10.5084 11.3608 10.5022 11.3844C10.4959 11.4112 10.4986 11.4393 10.5099 11.4645C10.5212 11.4896 10.5405 11.5102 10.5648 11.5233C10.6052 11.538 10.6495 11.538 10.6899 11.5233C10.7013 11.5644 10.7101 11.6062 10.7162 11.6484C10.663 11.666 10.6065 11.6707 10.5512 11.662C10.4959 11.6533 10.4435 11.6315 10.3984 11.5983C10.3701 11.5638 10.3495 11.5236 10.3378 11.4805C10.3262 11.4373 10.3238 11.3922 10.3308 11.3481C10.278 11.3193 10.2345 11.2759 10.2057 11.223C10.1974 11.1955 10.1957 11.1663 10.201 11.138C10.2062 11.1098 10.2181 11.0831 10.2357 11.0604C10.2802 11.0184 10.3288 10.9811 10.3809 10.949C10.3731 10.9391 10.366 10.9287 10.3596 10.9178C10.3296 10.934 10.3008 10.9528 10.2695 10.9665C10.1882 10.9978 10.1131 11.0416 10.0318 11.0741C10.0856 11.1992 10.1394 11.3181 10.197 11.4382C10.2436 11.5323 10.2853 11.6288 10.3221 11.7272C10.2792 11.7498 10.2344 11.7686 10.1882 11.7835C10.1544 11.7297 10.1282 11.6709 10.0969 11.6159C10.0708 11.6548 10.0344 11.6856 9.99173 11.7048C9.94904 11.7241 9.90182 11.731 9.85542 11.7247C9.80908 11.7231 9.76318 11.7151 9.71905 11.7009C9.63424 11.6596 9.56336 11.5944 9.51512 11.5133C9.53264 11.492 9.54765 11.4645 9.57642 11.4582C9.59911 11.451 9.61849 11.436 9.6311 11.4158C9.64371 11.3957 9.64872 11.3717 9.64523 11.3481C9.63741 11.3287 9.62539 11.3112 9.61003 11.2969C9.59468 11.2827 9.57637 11.2719 9.55641 11.2656C9.50261 11.2868 9.44631 11.3006 9.39126 11.3168C9.41504 11.4032 9.44631 11.4882 9.47008 11.5746L9.52263 11.5533C9.56016 11.6033 9.59144 11.6559 9.62772 11.7059L9.52638 11.746C9.51888 11.7848 9.51137 11.8398 9.46633 11.8498C9.40164 11.8329 9.33971 11.8067 9.28242 11.7722C9.26634 11.7656 9.25326 11.7532 9.24565 11.7375C9.23804 11.7219 9.23644 11.7039 9.24114 11.6872C9.24989 11.6496 9.29118 11.6359 9.31995 11.6146C9.28868 11.5295 9.26115 11.442 9.22862 11.3644C9.18359 11.3744 9.1373 11.3819 9.09226 11.3882C9.13479 11.6146 9.2036 11.836 9.25865 12.06L9.09851 12.09C9.04722 11.8648 8.9734 11.6434 8.92086 11.4194L8.81827 11.4382C8.82828 11.507 8.83954 11.5746 8.8483 11.6421C8.77198 11.6559 8.69692 11.6734 8.62185 11.6897C8.59808 11.6897 8.58682 11.7172 8.57806 11.7372C8.64187 11.7647 8.70317 11.7122 8.76698 11.7222C8.817 11.7299 8.86384 11.7516 8.90209 11.7848C8.92704 11.7999 8.9472 11.8218 8.96026 11.8479C8.97332 11.874 8.97874 11.9033 8.97591 11.9324C8.97678 11.973 8.96637 12.0132 8.94583 12.0483C8.92529 12.0834 8.89543 12.1121 8.85956 12.1313C8.83328 12.1013 8.80701 12.0712 8.77949 12.0437C8.80276 12.0148 8.81672 11.9794 8.81952 11.9424C8.81557 11.9293 8.80867 11.9172 8.79936 11.9071C8.79004 11.8971 8.77855 11.8893 8.76575 11.8843C8.75296 11.8794 8.73921 11.8774 8.72555 11.8786C8.71188 11.8798 8.69867 11.884 8.68691 11.8911C8.65471 11.9042 8.62784 11.9277 8.6106 11.9579C8.59336 11.988 8.58675 12.0231 8.59182 12.0575C8.61059 12.1213 8.6794 12.1476 8.7382 12.1638C8.72944 12.2014 8.72319 12.2389 8.71693 12.2777C8.62385 12.2654 8.53664 12.2252 8.46672 12.1626C8.43701 12.1174 8.42118 12.0646 8.42118 12.0106C8.42118 11.9565 8.43701 11.9037 8.46672 11.8586C8.42918 11.8085 8.37664 11.7597 8.38164 11.6934C8.38636 11.6621 8.39893 11.6325 8.41818 11.6073C8.43743 11.5822 8.46274 11.5623 8.49174 11.5495C8.55059 11.5356 8.61038 11.526 8.67064 11.5208L8.64687 11.4582C8.52176 11.477 8.3854 11.4857 8.25528 11.4995C8.27905 11.7272 8.27905 11.9574 8.30157 12.1863C8.24903 12.1863 8.19648 12.1863 8.14394 12.1964C8.14394 12.1538 8.14394 12.1125 8.13518 12.0712C8.06232 12.0994 7.98159 12.0994 7.90873 12.0712C7.86381 12.0526 7.82488 12.022 7.7962 11.9827C7.76751 11.9434 7.75018 11.897 7.74609 11.8486C7.74769 11.804 7.76118 11.7606 7.78515 11.723C7.80913 11.6854 7.84273 11.6549 7.88246 11.6346C7.94578 11.6046 8.01505 11.5892 8.08514 11.5896V11.5158C7.99631 11.5158 7.90623 11.5158 7.81615 11.5258C7.81615 11.492 7.81615 11.4595 7.8074 11.4257C7.98255 11.4144 8.1577 11.4107 8.33285 11.3932C8.75824 11.3654 9.17851 11.2847 9.58393 11.153C9.659 11.1242 9.73281 11.0929 9.80662 11.0629C9.88044 11.0329 9.94549 10.9978 10.0193 10.9753C10.2781 10.8506 10.5288 10.7098 10.77 10.5537M10.7762 10.6575C10.8275 10.7251 10.8738 10.7951 10.9263 10.8602L11.0402 10.7689C10.9914 10.7076 10.9426 10.6438 10.8888 10.5862C10.8525 10.61 10.815 10.635 10.7762 10.6575ZM9.77535 11.203C9.77535 11.248 9.81163 11.2881 9.81538 11.3281C9.82062 11.3607 9.81713 11.394 9.80526 11.4248C9.79339 11.4556 9.77357 11.4827 9.74782 11.5033C9.76715 11.5353 9.79807 11.5586 9.83415 11.5683C9.86292 11.5783 9.88794 11.5571 9.91171 11.5445C9.93713 11.5288 9.95697 11.5055 9.96842 11.4779C9.97987 11.4503 9.98235 11.4198 9.97552 11.3907C9.93647 11.3158 9.90221 11.2384 9.87293 11.1592C9.83884 11.1672 9.80601 11.1798 9.77535 11.1967M7.91124 11.7973C7.905 11.8082 7.90121 11.8204 7.90013 11.833C7.89906 11.8456 7.90071 11.8583 7.90499 11.8702C7.90927 11.8821 7.91607 11.8929 7.92492 11.9019C7.93377 11.9109 7.94447 11.9179 7.95628 11.9224C7.9805 11.9347 8.00729 11.9411 8.03447 11.9411C8.06164 11.9411 8.08843 11.9347 8.11266 11.9224C8.11266 11.8648 8.1064 11.8085 8.1014 11.751C8.06922 11.7414 8.03506 11.7407 8.0025 11.7488C7.96993 11.757 7.94014 11.7737 7.91624 11.7973H7.91124Z" fill="currentColor"/>
<path d="M4.89408 10.5817C4.9216 10.5529 4.94788 10.5242 4.9729 10.4941C5.01036 10.5182 5.04629 10.5445 5.08049 10.573C5.1518 10.608 5.21811 10.653 5.28692 10.6981C5.35573 10.7431 5.4358 10.7831 5.50711 10.8307C5.4946 10.7556 5.47958 10.6818 5.46707 10.6067L5.60719 10.6768C5.62596 10.7506 5.64097 10.8257 5.65849 10.9007C5.85491 10.9971 6.05758 11.0784 6.26026 11.151C6.2465 11.1885 6.23399 11.2248 6.21897 11.2611L6.16017 11.2423C6.0801 11.4537 6.00504 11.6664 5.92622 11.8778C5.87743 11.8578 5.82989 11.8353 5.77984 11.8178C5.80612 11.7565 5.82864 11.6927 5.85241 11.6326C5.89619 11.4775 5.965 11.3324 6.01755 11.181L5.91746 11.1409C5.91812 11.2607 5.87895 11.3774 5.80612 11.4725C5.78645 11.498 5.76066 11.5182 5.73114 11.5311C5.70161 11.544 5.66931 11.5492 5.63722 11.5463C5.60532 11.5347 5.57759 11.5139 5.55755 11.4865C5.5375 11.4591 5.52604 11.4263 5.52462 11.3924C5.521 11.371 5.52455 11.3489 5.53473 11.3297C5.5449 11.3105 5.56114 11.2951 5.58092 11.2861C5.60594 11.2752 5.63407 11.2737 5.66008 11.282C5.68608 11.2903 5.70819 11.3077 5.72229 11.3311C5.74874 11.2943 5.76468 11.251 5.76843 11.2058C5.77217 11.1607 5.76358 11.1153 5.74356 11.0746C5.70322 11.0515 5.66143 11.0311 5.61845 11.0133C5.55965 11.1297 5.49335 11.241 5.44205 11.3611C5.39201 11.4475 5.34572 11.535 5.30068 11.6239C5.25439 11.6026 5.20935 11.5776 5.16181 11.5563C5.19934 11.4637 5.25439 11.3812 5.29943 11.2923C5.35823 11.1772 5.42454 11.0646 5.47583 10.947C5.44831 10.9295 5.42078 10.9133 5.39201 10.8982C5.27566 11.0909 5.16431 11.2861 5.04796 11.48C5.00292 11.4525 4.95538 11.4299 4.91285 11.3999C4.95413 11.3449 4.98541 11.2836 5.02419 11.226C4.97934 11.2327 4.93354 11.2293 4.89022 11.2158C4.8469 11.2024 4.80716 11.1794 4.77398 11.1485C4.73726 11.0933 4.71654 11.029 4.71411 10.9627C4.71168 10.8965 4.72764 10.8309 4.76021 10.7731C4.81396 10.7832 4.8691 10.7832 4.92285 10.7731C4.97039 10.7506 4.9754 10.6931 4.9729 10.648C4.94412 10.628 4.91535 10.608 4.88407 10.5905M5.11052 10.7406C5.10476 10.7904 5.08527 10.8376 5.05422 10.877C5.02044 10.9283 4.95288 10.9308 4.89783 10.9333C4.89783 10.9545 4.87907 10.9771 4.89033 10.9996C4.89751 11.018 4.90872 11.0345 4.92313 11.0481C4.93754 11.0616 4.95479 11.0717 4.97361 11.0777C4.99244 11.0837 5.01237 11.0854 5.03194 11.0827C5.05152 11.08 5.07024 11.073 5.08675 11.0621C5.14304 10.9858 5.18933 10.902 5.24063 10.8219C5.2006 10.7896 5.15883 10.7596 5.11552 10.7318L5.11052 10.7406Z" fill="currentColor"/>
<path d="M11.5522 11.0259C11.5573 11.0223 11.5632 11.0202 11.5694 11.0197C11.5756 11.0191 11.5818 11.0203 11.5874 11.0229C11.593 11.0256 11.5977 11.0297 11.6012 11.0349C11.6047 11.04 11.6068 11.046 11.6072 11.0521C11.5622 11.0884 11.5246 11.1322 11.4821 11.1672C11.458 11.1815 11.4298 11.1872 11.402 11.1835C11.402 11.1597 11.3858 11.1247 11.4146 11.1122C11.4596 11.0859 11.5046 11.0546 11.5522 11.0259Z" fill="currentColor"/>
<path d="M6.65567 11.0982C6.70946 11.1145 6.76451 11.127 6.81956 11.1395C6.85459 11.1945 6.88461 11.2533 6.92089 11.3071C7.12811 11.3636 7.34168 11.3935 7.55644 11.396C7.55605 11.4379 7.55229 11.4797 7.54518 11.5211H7.48638C7.47387 11.7413 7.45385 11.9615 7.43134 12.1804C7.38004 12.1804 7.33 12.1679 7.27995 12.1604C7.27995 12.0766 7.28746 11.9927 7.29121 11.9102C7.23881 11.8994 7.18572 11.8923 7.13233 11.8889C7.12854 11.9095 7.12031 11.929 7.10821 11.946C7.09611 11.9631 7.08043 11.9773 7.06227 11.9877C7.03099 11.9877 7.01222 11.9577 6.99095 11.9377C6.94262 11.8973 6.90772 11.8432 6.89087 11.7825C6.89015 11.7693 6.89239 11.7561 6.89744 11.7438C6.90249 11.7316 6.91022 11.7206 6.92005 11.7118C6.92989 11.7029 6.94159 11.6963 6.95429 11.6925C6.96699 11.6888 6.98037 11.6879 6.99346 11.69C7.00347 11.6099 7.01347 11.5311 7.02223 11.451C6.97118 11.4437 6.92062 11.4333 6.87085 11.4197C6.82581 11.6437 6.77577 11.8676 6.72823 12.0916C6.67693 12.0803 6.62564 12.0703 6.57309 12.0615C6.60187 11.9139 6.63565 11.7675 6.66442 11.6212C6.58561 11.5986 6.50554 11.5786 6.42797 11.5498C6.40907 11.5447 6.38924 11.5441 6.37007 11.5481C6.3509 11.5521 6.33292 11.5605 6.31759 11.5726C6.30226 11.5848 6.29 11.6004 6.28179 11.6182C6.27358 11.6359 6.26966 11.6554 6.27033 11.675C6.27636 11.689 6.28543 11.7016 6.2969 11.7118C6.30836 11.7219 6.32193 11.7295 6.33664 11.7338C6.38919 11.7538 6.43923 11.7187 6.48802 11.7037C6.51304 11.7338 6.53681 11.765 6.56434 11.7926C6.54057 11.8338 6.47176 11.8451 6.47551 11.8989C6.47926 11.9527 6.47551 11.9752 6.47551 12.014C6.42671 12.0079 6.37856 11.9974 6.33164 11.9827C6.33164 11.9577 6.33164 11.9327 6.33164 11.9089C6.25639 11.8848 6.19098 11.837 6.14522 11.7725C6.12496 11.7385 6.11426 11.6996 6.11426 11.6599C6.11426 11.6203 6.12496 11.5814 6.14522 11.5473C6.18061 11.484 6.23607 11.4343 6.30286 11.406C6.25782 11.3634 6.26783 11.2959 6.27409 11.2408C6.28441 11.2145 6.30046 11.1907 6.32106 11.1713C6.34166 11.1519 6.36631 11.1373 6.39323 11.1286C6.42016 11.1199 6.44868 11.1172 6.47675 11.1208C6.50483 11.1244 6.53175 11.1342 6.55558 11.1495C6.58991 11.1721 6.61555 11.2057 6.62828 11.2448C6.64101 11.2839 6.64008 11.3262 6.62564 11.3647C6.60773 11.3957 6.58491 11.4236 6.55808 11.4473L6.69195 11.4773C6.69945 11.446 6.70571 11.4135 6.71196 11.3809H6.66943C6.67094 11.3382 6.67939 11.2959 6.69445 11.2558L6.752 11.2696C6.71795 11.2134 6.68704 11.1553 6.65942 11.0957M6.41796 11.3121C6.42547 11.3372 6.45549 11.3397 6.47801 11.3434C6.49052 11.3221 6.50804 11.2896 6.47801 11.2684C6.44799 11.2471 6.39544 11.2759 6.4117 11.3121M7.18362 11.4798C7.17361 11.5561 7.15735 11.6312 7.14609 11.7075C7.19988 11.7158 7.25432 11.7191 7.30873 11.7175C7.30873 11.6437 7.30873 11.5699 7.31749 11.4948C7.2712 11.491 7.23116 11.486 7.18612 11.4823L7.18362 11.4798Z" fill="currentColor"/>
<path d="M7.37909 11.1623C7.38886 11.1546 7.40062 11.1499 7.41298 11.1487C7.42533 11.1476 7.43777 11.1499 7.44882 11.1556C7.45986 11.1612 7.46906 11.1699 7.47533 11.1807C7.48159 11.1914 7.48466 11.2036 7.48418 11.2161C7.48417 11.2274 7.48126 11.2386 7.4757 11.2485C7.47015 11.2584 7.46214 11.2667 7.45246 11.2726C7.44277 11.2785 7.43172 11.2819 7.42038 11.2823C7.40903 11.2827 7.39776 11.2802 7.38766 11.2751C7.37755 11.2699 7.36894 11.2622 7.36265 11.2527C7.35637 11.2433 7.35261 11.2324 7.35175 11.2211C7.35089 11.2097 7.35295 11.1984 7.35774 11.1881C7.36253 11.1778 7.36988 11.1689 7.37909 11.1623Z" fill="currentColor"/>
<path d="M7.49216 2.37517C7.69859 2.36141 7.90501 2.36516 8.11144 2.36391C8.34688 2.35968 8.58222 2.37685 8.81455 2.4152C8.97698 2.44242 9.13714 2.48172 9.29371 2.5328C9.42287 2.56679 9.54853 2.61287 9.66904 2.67042C9.8621 2.7605 10.05 2.86116 10.232 2.97193C10.563 3.19244 10.8649 3.45391 11.1303 3.75011C11.2554 3.88647 11.3693 4.03785 11.4856 4.18548C11.602 4.33311 11.6958 4.50451 11.7859 4.67215C11.8792 4.84463 11.9591 5.02407 12.0248 5.20886C12.1225 5.46024 12.177 5.72628 12.1862 5.99579C12.1862 7.20184 12.1862 8.40788 12.1862 9.61392V10.0018C12.1633 10.3307 12.0864 10.6536 11.9585 10.9576C11.9272 11.0176 11.9135 11.0827 11.8822 11.144C11.7676 11.3842 11.6337 11.6148 11.4819 11.8333C11.3845 11.9755 11.2766 12.1102 11.1591 12.2362C11.0416 12.3807 10.91 12.5132 10.7662 12.6315C10.5691 12.8152 10.3522 12.9763 10.1194 13.1119C9.92255 13.2327 9.71272 13.3309 9.49389 13.4047C9.10333 13.5522 8.68905 13.6268 8.27158 13.6249C8.13772 13.6249 8.00385 13.6424 7.86999 13.6249C7.73612 13.6074 7.58474 13.6249 7.44337 13.6086C7.23207 13.5936 7.02263 13.5589 6.81783 13.5048C6.67771 13.4698 6.54509 13.4147 6.40747 13.3797C6.2751 13.3233 6.14566 13.2602 6.01964 13.1908C5.89453 13.127 5.78068 13.0406 5.65807 12.9718C5.49357 12.8562 5.33607 12.7308 5.18642 12.5965C5.15339 12.571 5.12204 12.5435 5.09259 12.5139C4.95747 12.3663 4.81485 12.2249 4.68849 12.0673C4.60967 11.9547 4.5271 11.8458 4.44703 11.7345C4.37436 11.626 4.30754 11.5136 4.24686 11.398C4.06737 11.0779 3.93626 10.733 3.85777 10.3746C3.83534 10.2321 3.82155 10.0884 3.81648 9.94421C3.81648 8.68812 3.81648 7.43162 3.81648 6.1747C3.80899 5.91357 3.84148 5.65284 3.91282 5.40153C3.96292 5.23437 4.02565 5.07126 4.10048 4.91361C4.14927 4.79976 4.21308 4.69217 4.26562 4.57957C4.35925 4.41744 4.46331 4.26156 4.57714 4.11292C4.66958 3.97912 4.77338 3.85355 4.88741 3.73759C5.01369 3.59254 5.15178 3.45822 5.30027 3.336C5.47222 3.1831 5.65868 3.04734 5.857 2.93065C5.9636 2.86255 6.07432 2.80113 6.18853 2.74674C6.36036 2.65724 6.54109 2.58596 6.72775 2.53405C6.9779 2.45558 7.23592 2.40481 7.49716 2.38267M7.45963 2.50778C7.33452 2.51779 7.22067 2.54031 7.10057 2.55532C6.75242 2.62963 6.41752 2.75617 6.10721 2.93065C5.97558 2.99572 5.84998 3.07233 5.73189 3.1596C5.47833 3.33605 5.24431 3.53904 5.03378 3.76512C4.90868 3.89773 4.78357 4.04536 4.67222 4.19049C4.60592 4.29683 4.52835 4.39816 4.46329 4.50701C4.35219 4.66761 4.27434 4.84882 4.23434 5.03997C4.19165 5.22916 4.17191 5.4228 4.17554 5.61672C4.1868 6.29605 4.17554 6.97664 4.17554 7.65723V9.89041C4.16426 10.2207 4.17554 10.5513 4.20932 10.88C4.21808 10.9476 4.23685 11.0126 4.24686 11.0802C4.29246 11.2425 4.36567 11.3957 4.46329 11.5331C4.59715 11.7535 4.74861 11.9626 4.91618 12.1586C4.96873 12.2112 5.02002 12.265 5.06756 12.3213C5.15124 12.4091 5.23935 12.4926 5.33154 12.5715C5.37977 12.6051 5.42536 12.6423 5.46791 12.6828C5.59945 12.7876 5.73642 12.8853 5.87826 12.9756C6.07054 13.0865 6.26989 13.1847 6.47503 13.2696C6.59113 13.3155 6.70976 13.3548 6.83034 13.3872C6.98047 13.4147 7.12935 13.456 7.28198 13.471C7.45713 13.496 7.63228 13.4923 7.80743 13.5035C7.97843 13.5098 8.14963 13.5073 8.32037 13.496C8.9256 13.4899 9.51836 13.3233 10.0381 13.0131C10.1516 12.9554 10.259 12.8862 10.3584 12.8067C10.4672 12.7316 10.5648 12.644 10.6699 12.5652C10.795 12.4401 10.9201 12.3325 11.034 12.2037C11.0865 12.1475 11.1349 12.0877 11.1791 12.0248C11.293 11.8772 11.3975 11.7226 11.4919 11.5619C11.5682 11.4042 11.667 11.2578 11.7283 11.0939C11.8354 10.7848 11.878 10.4569 11.8534 10.1306C11.8534 9.74278 11.8534 9.35495 11.8534 8.96711C11.8534 7.98626 11.8534 7.00542 11.8534 6.02457C11.8757 5.74748 11.866 5.46874 11.8247 5.19385C11.7638 4.94971 11.6591 4.71867 11.5156 4.51201C11.3827 4.29866 11.2347 4.09505 11.0728 3.90274C10.9476 3.76136 10.8138 3.63626 10.6849 3.50239C10.5561 3.36853 10.4122 3.27845 10.2733 3.1671C10.1506 3.07717 10.0214 2.99646 9.88673 2.92564C9.57956 2.75207 9.24808 2.62555 8.90338 2.55032C8.79578 2.53906 8.69069 2.51529 8.5831 2.50528C8.3501 2.4859 8.1162 2.47964 7.8825 2.48651C7.73971 2.48411 7.59689 2.48913 7.45463 2.50153L7.45963 2.50778Z" fill="currentColor"/>
<path d="M5.83941 4.25621C5.83833 4.2446 5.84073 4.23293 5.8463 4.22268C5.85187 4.21243 5.86036 4.20407 5.87069 4.19866C5.91636 4.19427 5.96243 4.20027 6.00546 4.21622C6.04848 4.23216 6.08733 4.25764 6.11911 4.29074C6.15088 4.32384 6.17476 4.3637 6.18893 4.40734C6.20311 4.45097 6.20723 4.49726 6.20097 4.54271C6.16159 4.76952 6.08865 4.9892 5.98454 5.19452C5.93329 5.2759 5.89133 5.36277 5.85943 5.4535C5.8219 5.54608 5.77811 5.63615 5.74433 5.72999C5.73007 5.76267 5.71378 5.79443 5.69554 5.82507C5.62318 6.0392 5.57042 6.25946 5.5379 6.48314C5.5184 6.67073 5.53367 6.86031 5.58294 7.04237C5.59045 7.07365 5.60046 7.11118 5.63924 7.11243C5.68553 6.98732 5.63048 6.86221 5.63298 6.73711C5.63298 6.63577 5.63298 6.53318 5.64049 6.43059C5.65746 6.28953 5.69235 6.15121 5.74433 6.01899C5.7735 5.92585 5.80774 5.83438 5.84692 5.745C5.97203 5.4047 6.17095 5.09068 6.26603 4.73788C6.28656 4.65578 6.29995 4.57207 6.30607 4.48766C6.30607 4.41135 6.32858 4.33753 6.33734 4.26122C6.34485 4.21868 6.3999 4.22368 6.43117 4.23494C6.48341 4.25413 6.53126 4.28362 6.57188 4.32166C6.6125 4.3597 6.64506 4.40552 6.66763 4.45639C6.68527 4.51343 6.68997 4.57369 6.68139 4.63279C6.66888 4.67282 6.61884 4.65656 6.58756 4.65906C6.57491 4.66551 6.564 4.6749 6.55572 4.68643C6.54745 4.69797 6.54207 4.71132 6.54002 4.72537C6.51526 4.81621 6.49646 4.90857 6.48372 5.00186C6.47504 5.07868 6.4561 5.154 6.42742 5.2258C6.37237 5.39094 6.30231 5.55358 6.26103 5.72623C6.2285 5.81005 6.20097 5.89638 6.16469 5.97645C6.10486 6.16817 6.06051 6.36439 6.03208 6.56321C6.00249 6.7455 6.01533 6.93216 6.06961 7.10868C6.07193 7.11405 6.07561 7.11872 6.08028 7.12225C6.08495 7.12577 6.09045 7.12802 6.09625 7.12878C6.10205 7.12954 6.10795 7.12877 6.11337 7.12657C6.11879 7.12436 6.12354 7.12078 6.12716 7.11618C6.12716 7.04862 6.10464 6.98232 6.10464 6.91476C6.10509 6.83471 6.11179 6.75481 6.12466 6.6758C6.13925 6.50148 6.17367 6.32939 6.22725 6.16286C6.25852 6.08154 6.27604 5.99647 6.30106 5.91264C6.39614 5.62615 6.515 5.3459 6.58506 5.05065C6.58625 4.98123 6.60707 4.91356 6.64511 4.85548C6.658 4.83708 6.6756 4.8225 6.69608 4.81325C6.71655 4.804 6.73913 4.80044 6.76146 4.80293C6.79515 4.82051 6.82412 4.84594 6.84589 4.87708C6.86767 4.90823 6.88162 4.94416 6.88657 4.98184C6.90957 5.13625 6.90106 5.29371 6.86154 5.44474C6.84235 5.5434 6.81558 5.64044 6.78148 5.73499C6.74519 5.81756 6.70766 5.89888 6.67639 5.98521C6.66349 6.03587 6.66052 6.08855 6.66763 6.14034C6.68576 6.31168 6.68576 6.48445 6.66763 6.65579C6.64345 6.7462 6.62548 6.83816 6.61383 6.93102C6.62173 6.97066 6.63794 7.00818 6.66137 7.04112C6.6964 7.11493 6.7502 7.17874 6.78648 7.2563C6.82276 7.33387 6.82401 7.42145 6.84278 7.50652C6.85175 7.53289 6.86724 7.55656 6.88782 7.57533C6.97293 7.66485 7.04305 7.76751 7.0955 7.87934C7.15396 7.99164 7.22309 8.09805 7.30193 8.19712C7.35822 8.27093 7.41452 8.34474 7.46832 8.41981C7.52462 8.51614 7.60093 8.59871 7.65973 8.69254C7.72656 8.79474 7.78795 8.9004 7.84364 9.00907C7.88177 9.08859 7.90952 9.17269 7.92621 9.25928C7.94128 9.39252 7.9188 9.52732 7.86133 9.64846C7.80385 9.7696 7.71366 9.87227 7.60093 9.94488C7.56465 9.9674 7.52212 9.99242 7.51211 10.0375C7.48583 10.1526 7.47082 10.2689 7.43954 10.3828C6.91534 10.3828 6.39239 10.3828 5.86944 10.3828C5.97203 10.2001 6.07962 10.0212 6.18096 9.83853C6.19597 9.80976 6.21724 9.78474 6.2335 9.75596C6.24267 9.70303 6.23292 9.64856 6.20598 9.60208C6.17192 9.53398 6.12992 9.47015 6.08087 9.41192C6.00874 9.32775 5.94308 9.23825 5.88445 9.14418C5.84066 9.05411 5.77561 8.97654 5.72431 8.89397C5.648 8.76886 5.57543 8.64375 5.49787 8.51864C5.4203 8.39354 5.34398 8.24466 5.26892 8.1158C5.18259 7.96442 5.09252 7.81429 5.0112 7.65915C4.95413 7.55543 4.92241 7.43968 4.91862 7.32136C4.88859 6.99733 4.89735 6.6708 4.8961 6.34552C4.88225 6.10216 4.92508 5.8589 5.02121 5.6349C5.04873 5.5711 5.06374 5.50354 5.09377 5.44099C5.17133 5.26333 5.23764 5.08067 5.31271 4.90177C5.35017 4.79834 5.37741 4.69149 5.39403 4.58274C5.40904 4.52269 5.38652 4.45764 5.40654 4.39884C5.40901 4.39215 5.41282 4.38603 5.41774 4.38087C5.42265 4.3757 5.42856 4.37158 5.43512 4.36877C5.44167 4.36596 5.44873 4.36452 5.45586 4.36453C5.46299 4.36453 5.47005 4.36599 5.4766 4.36881C5.52647 4.38064 5.57236 4.40535 5.60969 4.44048C5.64701 4.47561 5.67446 4.51992 5.68928 4.56898C5.68405 4.66946 5.65717 4.76761 5.61046 4.85673C5.4766 5.21329 5.36025 5.57485 5.21387 5.92891C5.17824 6.0688 5.15934 6.21243 5.15757 6.35678C5.16033 6.51582 5.17244 6.67457 5.19385 6.83219C5.20136 6.86847 5.19385 6.91101 5.21763 6.94228C5.27392 6.91476 5.26642 6.8472 5.26391 6.79591C5.25326 6.65014 5.25326 6.50379 5.26391 6.35803C5.26927 6.22236 5.28728 6.0875 5.31771 5.95518C5.33972 5.87273 5.3699 5.79268 5.40779 5.71622C5.43326 5.65066 5.45539 5.58385 5.4741 5.51605C5.52928 5.35996 5.59319 5.20708 5.66551 5.05815C5.79765 4.81248 5.85792 4.53455 5.83941 4.25621Z" fill="currentColor"/>
<path d="M10.0108 4.21489C10.0564 4.19488 10.1073 4.19005 10.1559 4.20113C10.1997 4.2249 10.1809 4.27995 10.1746 4.31748C10.1742 4.56094 10.229 4.80132 10.3348 5.02059C10.4382 5.23047 10.5276 5.44696 10.6025 5.66865C10.625 5.75247 10.6688 5.82753 10.6988 5.90885C10.7289 5.99017 10.7289 6.10152 10.7439 6.19785C10.7571 6.35554 10.7621 6.51381 10.7589 6.67201C10.7483 6.74963 10.7483 6.82834 10.7589 6.90597C10.7664 6.92473 10.7927 6.95351 10.8089 6.92848C10.824 6.82214 10.8315 6.7158 10.844 6.60946C10.8762 6.35747 10.854 6.1015 10.7789 5.85881C10.7551 5.78375 10.7189 5.71243 10.7014 5.63612C10.6576 5.51101 10.61 5.37714 10.56 5.25079C10.5099 5.12443 10.4649 5.01308 10.4174 4.89548C10.366 4.79351 10.337 4.68176 10.3323 4.5677C10.3443 4.52096 10.3682 4.47815 10.4018 4.44349C10.4354 4.40883 10.4774 4.38351 10.5237 4.37002C10.5357 4.36335 10.5496 4.36108 10.5631 4.36359C10.5766 4.3661 10.5887 4.37325 10.5975 4.38379C10.63 4.43758 10.5975 4.50264 10.6163 4.55894C10.6375 4.64651 10.6501 4.73409 10.6726 4.82041C10.7639 5.07063 10.8753 5.32085 10.9716 5.57106C11.0365 5.71744 11.0816 5.87186 11.1055 6.03021C11.1055 6.08901 11.1155 6.14781 11.118 6.20661C11.118 6.49436 11.1267 6.78336 11.118 7.07111C11.118 7.16869 11.118 7.26753 11.1029 7.36511C11.0992 7.469 11.0723 7.57074 11.0241 7.66287C10.8565 7.94311 10.6926 8.22586 10.5237 8.5086C10.4399 8.64622 10.3536 8.78259 10.2735 8.92521C10.1734 9.06783 10.0858 9.21921 9.97698 9.35558C9.91495 9.42621 9.86277 9.50491 9.82184 9.58953C9.79807 9.64458 9.77055 9.71464 9.82184 9.76969C9.86791 9.84181 9.90969 9.91659 9.94695 9.99363C10.017 10.1187 10.0946 10.2438 10.1646 10.369C9.64043 10.369 9.11498 10.369 8.59078 10.369C8.56325 10.2526 8.53698 10.135 8.50946 10.0174C8.49069 9.95485 8.42313 9.93358 8.37434 9.8998C8.32054 9.85727 8.27369 9.80662 8.23547 9.74967C8.17603 9.67268 8.13406 9.58367 8.11245 9.48883C8.09085 9.39399 8.09014 9.29559 8.11036 9.20045C8.1477 9.07835 8.20203 8.96211 8.27175 8.85515C8.31092 8.76673 8.35958 8.68284 8.41688 8.60493C8.50696 8.48983 8.59078 8.36973 8.67835 8.25213C8.72089 8.17957 8.78344 8.12702 8.82598 8.04695C8.89229 7.93811 8.95109 7.82551 9.02115 7.71792C9.06549 7.6542 9.11309 7.59281 9.16377 7.53401C9.18891 7.49687 9.2036 7.45366 9.20631 7.4089C9.21882 7.35135 9.22633 7.29255 9.24384 7.235C9.28888 7.12991 9.36895 7.04484 9.41024 6.93724C9.41652 6.87667 9.40882 6.81546 9.38772 6.75834C9.35299 6.64108 9.33736 6.519 9.34143 6.39678C9.33933 6.27967 9.34602 6.16258 9.36144 6.04647C9.36418 6.02317 9.36117 5.99954 9.35269 5.97766C9.32016 5.88759 9.27387 5.80251 9.23759 5.71369C9.18801 5.57383 9.15321 5.42916 9.13375 5.28206C9.10939 5.17021 9.11067 5.0543 9.1375 4.94302C9.14503 4.9108 9.16039 4.88093 9.18221 4.85606C9.20403 4.83118 9.23164 4.81206 9.26261 4.8004C9.30494 4.80518 9.3443 4.82451 9.37396 4.85508C9.40362 4.88566 9.42175 4.92559 9.42525 4.96804C9.43776 5.07814 9.48655 5.17947 9.50407 5.28832C9.52784 5.36213 9.54785 5.4372 9.57538 5.50976C9.6592 5.71869 9.72801 5.93388 9.79557 6.14781C9.87347 6.39425 9.91272 6.65126 9.91192 6.90972C9.91192 6.97728 9.8944 7.04358 9.89816 7.11239L9.92443 7.12991C9.97197 7.11114 9.96822 7.05484 9.97823 7.01356C10.0009 6.91813 10.0106 6.82008 10.007 6.72206C9.98868 6.53121 9.95521 6.34211 9.90691 6.15657C9.89185 6.06194 9.86407 5.96978 9.82434 5.88258C9.73677 5.64488 9.6567 5.40342 9.57413 5.16446C9.5416 5.07814 9.54911 4.98305 9.52283 4.89548C9.50893 4.84269 9.50054 4.78861 9.49781 4.73409C9.49086 4.70113 9.47162 4.67206 9.44402 4.65277C9.40899 4.65277 9.35519 4.66153 9.34018 4.61899C9.33237 4.57102 9.33576 4.52189 9.35009 4.47545C9.36441 4.429 9.38928 4.3865 9.42275 4.35126C9.47661 4.2894 9.54827 4.24571 9.62792 4.22615C9.64794 4.22615 9.68297 4.22615 9.68547 4.25117C9.68547 4.32248 9.71175 4.39004 9.713 4.4601C9.72626 4.62713 9.7686 4.79056 9.83811 4.94302C9.89065 5.06813 9.93069 5.18698 9.98573 5.30458C10.032 5.39841 10.0696 5.496 10.1108 5.58858C10.2436 5.85844 10.3343 6.14702 10.3798 6.44432C10.3905 6.59738 10.3867 6.7511 10.3686 6.90346C10.3497 6.97459 10.3572 7.05016 10.3898 7.11615C10.4048 7.10364 10.4236 7.09113 10.4274 7.06986C10.4934 6.84493 10.5076 6.60794 10.4686 6.37676C10.421 6.11202 10.3425 5.85378 10.2347 5.60734C10.182 5.47821 10.1205 5.35282 10.0508 5.23202C9.99158 5.12866 9.94375 5.01917 9.90817 4.90549C9.8869 4.80415 9.85562 4.70531 9.8356 4.60398C9.80869 4.53564 9.80869 4.45963 9.8356 4.39129C9.86996 4.31272 9.93243 4.24981 10.0108 4.21489Z" fill="currentColor"/>
<path d="M7.88288 4.58008C7.91916 4.69768 7.97295 4.81028 8.0205 4.92413C8.13882 5.13788 8.20926 5.3748 8.22692 5.61848C8.22839 5.70566 8.21658 5.79256 8.19189 5.8762C8.15061 6.00131 8.11057 6.12641 8.06679 6.25152C8.34794 6.24887 8.6274 6.29544 8.8925 6.38914C8.98003 6.41908 9.0602 6.46726 9.1277 6.53051C9.15386 6.54922 9.17529 6.57378 9.19028 6.60223C9.20527 6.63069 9.2134 6.66225 9.21403 6.6944C9.20541 6.80788 9.16888 6.91747 9.10768 7.01343C9.03925 7.1479 8.94682 7.26874 8.83495 7.36999C8.75789 7.44428 8.67412 7.51129 8.58473 7.57016C8.3814 7.70319 8.1382 7.76156 7.89664 7.7353C7.76532 7.71529 7.63838 7.67297 7.52131 7.6102C7.40709 7.54476 7.30086 7.46624 7.20479 7.37624C7.12248 7.30325 7.05088 7.21902 6.99211 7.12603C6.89097 6.99792 6.82925 6.84318 6.81445 6.68064C6.81445 6.59182 6.89077 6.53176 6.95583 6.48422C7.13801 6.3754 7.34079 6.30554 7.55134 6.27905C7.60138 6.27029 7.65143 6.26278 7.70272 6.25778C7.63973 6.16489 7.58449 6.06698 7.53758 5.96502C7.50648 5.90424 7.48771 5.83791 7.48234 5.76985C7.47698 5.70179 7.48512 5.63334 7.5063 5.56843C7.53885 5.48852 7.57732 5.41116 7.6214 5.33698C7.68293 5.22646 7.73605 5.11145 7.78029 4.99293C7.82939 4.8616 7.86379 4.72524 7.88288 4.58633M8.00798 6.61308C8.01964 6.6613 8.04497 6.70512 8.08092 6.7393C8.11687 6.77347 8.16192 6.79655 8.21066 6.80575C8.44284 6.85941 8.6857 6.84331 8.90876 6.75946C8.97142 6.74164 9.02779 6.70652 9.0714 6.65812C9.0798 6.6449 9.08304 6.62905 9.0805 6.61359C9.07796 6.59813 9.06982 6.58415 9.05764 6.5743C8.96993 6.50334 8.86794 6.45213 8.75863 6.42417C8.52829 6.35409 8.28879 6.31867 8.04802 6.31908C8.01834 6.41421 8.00398 6.51345 8.00548 6.61308M7.32114 6.39415C7.21058 6.41662 7.10502 6.45902 7.00962 6.51925C6.9796 6.54177 6.94081 6.56429 6.93331 6.60558C6.9258 6.64686 6.95332 6.66813 6.97834 6.6869C7.07235 6.74468 7.17701 6.78297 7.28611 6.7995C7.42205 6.82945 7.56213 6.8358 7.70022 6.81826C7.73642 6.81626 7.77164 6.80569 7.80296 6.78742C7.83428 6.76915 7.86081 6.7437 7.88037 6.71317C7.89346 6.64376 7.88607 6.57203 7.85911 6.50674C7.82648 6.43897 7.78435 6.3762 7.734 6.32033C7.59463 6.33389 7.45657 6.35858 7.32114 6.39415Z" fill="currentColor"/>
<path d="M7.45464 2.50209C7.59816 2.48956 7.74223 2.48454 7.88627 2.48707C8.11997 2.4802 8.35387 2.48646 8.58687 2.50584C8.69446 2.51585 8.79955 2.53962 8.90715 2.55088C9.25185 2.62611 9.58332 2.75263 9.8905 2.9262C10.0239 2.99718 10.1518 3.07789 10.2733 3.16766C10.4084 3.27901 10.5548 3.37659 10.6812 3.49795C10.8075 3.6193 10.9489 3.75692 11.069 3.89829C11.2309 4.09061 11.3789 4.29422 11.5119 4.50757C11.6573 4.71547 11.7633 4.94827 11.8247 5.19441C11.8653 5.46981 11.8741 5.74897 11.8509 6.02638C11.8509 7.00723 11.8509 7.98808 11.8509 8.96892V10.1324C11.8755 10.4587 11.8329 10.7866 11.7258 11.0958C11.6645 11.2597 11.5657 11.406 11.4894 11.5637C11.395 11.7244 11.2905 11.879 11.1766 12.0266C11.1339 12.0876 11.0871 12.1457 11.0365 12.2005C10.9226 12.3256 10.795 12.4432 10.6724 12.562C10.5673 12.6408 10.4697 12.7284 10.3609 12.8035C10.2615 12.883 10.1542 12.9522 10.0406 13.0099C9.52088 13.3201 8.92812 13.4867 8.32289 13.4928C8.15215 13.5041 7.98095 13.5066 7.80995 13.5003C7.6348 13.4891 7.45965 13.4928 7.2845 13.4678C7.13186 13.4528 6.98298 13.4115 6.83286 13.384C6.71228 13.3516 6.59365 13.3123 6.47755 13.2664C6.27241 13.1815 6.07306 13.0833 5.88078 12.9724C5.73894 12.8821 5.60197 12.7844 5.47043 12.6796C5.42788 12.6391 5.38229 12.6019 5.33406 12.5683C5.24187 12.4894 5.15376 12.4059 5.07008 12.3181C5.02254 12.2618 4.97125 12.208 4.9187 12.1554C4.75113 11.9595 4.59967 11.7503 4.46581 11.5299C4.36819 11.3925 4.29497 11.2393 4.24937 11.077C4.23936 11.0094 4.2206 10.9444 4.21184 10.8768C4.17806 10.5481 4.16678 10.2175 4.17806 9.88722V7.64903C4.17806 6.96844 4.17806 6.28786 4.17806 5.60852C4.17443 5.41461 4.19417 5.22096 4.23686 5.03177C4.27686 4.84063 4.35471 4.65941 4.46581 4.49881C4.53087 4.38997 4.60843 4.28863 4.67474 4.18229C4.79234 4.03716 4.90619 3.88954 5.0363 3.75692C5.24682 3.53084 5.48085 3.32786 5.73441 3.1514C5.8525 3.06414 5.9781 2.98752 6.10973 2.92245C6.42003 2.74798 6.75494 2.62144 7.10309 2.54713C7.2282 2.53211 7.34204 2.50959 7.46215 2.49959M5.847 4.2511C5.86446 4.53075 5.80243 4.80964 5.6681 5.05554C5.59578 5.20447 5.53187 5.35734 5.47668 5.51344C5.45797 5.58124 5.43584 5.64805 5.41038 5.71361C5.37248 5.79007 5.34231 5.87012 5.3203 5.95257C5.28986 6.08488 5.27185 6.21975 5.2665 6.35542C5.25584 6.50118 5.25584 6.64753 5.2665 6.79329C5.2665 6.84459 5.27651 6.9184 5.22021 6.93967C5.19519 6.90839 5.20395 6.86586 5.19644 6.82958C5.17503 6.67195 5.16292 6.51321 5.16016 6.35416C5.16193 6.20982 5.18083 6.06619 5.21646 5.92629C5.35783 5.57224 5.47919 5.21068 5.61305 4.85412C5.65975 4.765 5.68664 4.66685 5.69187 4.56637C5.67689 4.51808 5.64966 4.47448 5.61282 4.43984C5.57599 4.4052 5.53081 4.38069 5.48169 4.3687C5.47514 4.36588 5.46808 4.36442 5.46095 4.36442C5.45382 4.36441 5.44676 4.36586 5.44021 4.36866C5.43365 4.37147 5.42774 4.37559 5.42283 4.38076C5.41791 4.38592 5.4141 4.39204 5.41163 4.39873C5.39161 4.45753 5.41163 4.52383 5.39912 4.58263C5.38095 4.69197 5.35204 4.79925 5.31279 4.90291C5.23773 5.08182 5.17142 5.26447 5.09385 5.44213C5.06383 5.50468 5.04881 5.56723 5.02129 5.63604C4.92516 5.86004 4.88234 6.1033 4.89618 6.34666C4.89618 6.67194 4.88868 6.99847 4.9187 7.3225C4.92192 7.44019 4.95278 7.55548 5.00878 7.65904C5.0901 7.81418 5.18018 7.9643 5.2665 8.11569C5.34407 8.24079 5.42164 8.3659 5.48794 8.50727C5.55425 8.64865 5.63807 8.75749 5.71439 8.8826C5.76568 8.96892 5.83074 9.04649 5.87453 9.13281C5.93316 9.22688 5.99882 9.31638 6.07095 9.40055C6.12 9.45878 6.16199 9.52261 6.19605 9.59071C6.223 9.63719 6.23274 9.69166 6.22358 9.74459C6.20731 9.77337 6.18605 9.79839 6.17103 9.82716C6.0697 10.0098 5.9621 10.1887 5.85951 10.3714H7.42962C7.4609 10.2575 7.47591 10.1412 7.50218 10.0261C7.51219 9.98105 7.55473 9.95603 7.59101 9.93351C7.70374 9.8609 7.79393 9.75823 7.8514 9.63709C7.90888 9.51595 7.93135 9.38115 7.91629 9.24791C7.8996 9.16132 7.87185 9.07722 7.83372 8.9977C7.77669 8.89022 7.71405 8.78582 7.64606 8.68493C7.58726 8.5911 7.51094 8.50853 7.45464 8.41219C7.40085 8.33713 7.34455 8.26331 7.28825 8.1895C7.20942 8.09043 7.14029 7.98402 7.08182 7.87173C7.03055 7.76156 6.96215 7.66021 6.87914 7.57147C6.85857 7.55269 6.84308 7.52902 6.83411 7.50266C6.81534 7.41883 6.79908 7.33501 6.77781 7.25244C6.75654 7.16987 6.69399 7.11107 6.6527 7.03725C6.62926 7.00432 6.61306 6.9668 6.60516 6.92716C6.61681 6.8343 6.63478 6.74234 6.65896 6.65192C6.67709 6.48059 6.67709 6.30781 6.65896 6.13648C6.65184 6.08468 6.65482 6.03201 6.66771 5.98134C6.69899 5.89627 6.73652 5.81495 6.7728 5.73113C6.8097 5.63804 6.8394 5.54226 6.86163 5.44463C6.90088 5.29528 6.90982 5.13959 6.8879 4.98673C6.88296 4.94905 6.86901 4.91312 6.84723 4.88198C6.82545 4.85084 6.79649 4.8254 6.76279 4.80783C6.74047 4.80534 6.71789 4.8089 6.69741 4.81814C6.67694 4.82739 6.65933 4.84198 6.64644 4.86037C6.60797 4.91663 6.58588 4.98246 6.58264 5.05054C6.51258 5.34579 6.39373 5.62604 6.29864 5.91253C6.27362 5.99636 6.25611 6.08143 6.22483 6.16275C6.17125 6.32928 6.13684 6.50137 6.12224 6.67569C6.10937 6.7547 6.10268 6.8346 6.10222 6.91465C6.10222 6.98221 6.12099 7.04851 6.12474 7.11607C6.12112 7.12067 6.11637 7.12425 6.11095 7.12646C6.10554 7.12866 6.09964 7.12943 6.09384 7.12867C6.08803 7.12791 6.08253 7.12566 6.07786 7.12214C6.07319 7.11861 6.06951 7.11394 6.06719 7.10857C6.01291 6.93205 6.00007 6.74539 6.02966 6.56309C6.0581 6.36428 6.10244 6.16806 6.16228 5.97634C6.19856 5.89252 6.22608 5.80619 6.25861 5.72612C6.30115 5.55597 6.36996 5.39333 6.425 5.22569C6.45368 5.15389 6.47262 5.07857 6.4813 5.00175C6.49404 4.90846 6.51285 4.8161 6.5376 4.72526C6.53965 4.71121 6.54504 4.69786 6.55331 4.68632C6.56158 4.67479 6.57249 4.6654 6.58514 4.65895C6.61642 4.65895 6.66646 4.67271 6.67897 4.63268C6.68756 4.57358 6.68286 4.51332 6.66521 4.45628C6.64264 4.40541 6.61008 4.35959 6.56946 4.32155C6.52884 4.28351 6.48099 4.25402 6.42876 4.23483C6.39748 4.22357 6.34243 4.21857 6.33492 4.26111C6.32617 4.33742 6.3049 4.41124 6.30365 4.48755C6.29754 4.57196 6.28414 4.65567 6.26361 4.73777C6.16853 5.09057 5.97211 5.40459 5.8445 5.74489C5.80533 5.83427 5.77108 5.92574 5.74191 6.01887C5.68993 6.1511 5.65504 6.28942 5.63807 6.43048C5.63057 6.53307 5.63807 6.63566 5.63057 6.737C5.63057 6.8621 5.68311 6.98721 5.63682 7.11232C5.59804 7.11232 5.58803 7.07354 5.58052 7.04226C5.53126 6.8602 5.51599 6.67062 5.53548 6.48303C5.568 6.25935 5.62076 6.03909 5.69312 5.82496C5.71136 5.79432 5.72766 5.76256 5.74191 5.72988C5.77569 5.63604 5.81948 5.54597 5.85701 5.45339C5.88891 5.36266 5.93088 5.27579 5.98212 5.19441C6.08635 4.9887 6.15929 4.76859 6.19856 4.54135C6.20537 4.49584 6.20176 4.44937 6.188 4.40546C6.17424 4.36155 6.1507 4.32133 6.11914 4.28784C6.08757 4.25435 6.04882 4.22846 6.0058 4.21213C5.96278 4.1958 5.91661 4.18944 5.87077 4.19355C5.86044 4.19896 5.85195 4.20732 5.84638 4.21756C5.84081 4.22781 5.83842 4.23948 5.8395 4.2511M10.0106 4.21106C9.93321 4.24649 9.8717 4.30933 9.83795 4.38747C9.81104 4.45581 9.81104 4.53181 9.83795 4.60015C9.85797 4.70149 9.88925 4.80032 9.91051 4.90166C9.9461 5.01534 9.99392 5.12483 10.0531 5.22819C10.1229 5.34899 10.1843 5.47439 10.237 5.60352C10.3449 5.84995 10.4234 6.10819 10.471 6.37293C10.5099 6.60592 10.4949 6.84472 10.4272 7.07103C10.4272 7.0923 10.4047 7.10481 10.3897 7.11732C10.3571 7.05134 10.3495 6.97577 10.3684 6.90464C10.3865 6.75228 10.3903 6.59856 10.3797 6.44549C10.3352 6.14612 10.2449 5.85539 10.1119 5.5835C10.0644 5.49092 10.0269 5.39333 9.98683 5.2995C9.93178 5.1819 9.89175 5.05805 9.8392 4.93794C9.7697 4.78548 9.72736 4.62205 9.71409 4.45502C9.71409 4.38496 9.68907 4.31741 9.68657 4.24609C9.68657 4.21982 9.64904 4.21732 9.62902 4.22107C9.54937 4.24063 9.47771 4.28432 9.42384 4.34618C9.39037 4.38142 9.36551 4.42393 9.35118 4.47037C9.33686 4.51681 9.33347 4.56594 9.34127 4.61391C9.35629 4.65645 9.41008 4.64894 9.44511 4.64769C9.47272 4.66698 9.49195 4.69606 9.49891 4.72901C9.50164 4.78353 9.51002 4.83762 9.52393 4.8904C9.5502 4.97798 9.5427 5.07306 9.57522 5.15938C9.66155 5.39834 9.74162 5.6398 9.82544 5.8775C9.86517 5.9647 9.89294 6.05686 9.90801 6.15149C9.95631 6.33703 9.98978 6.52613 10.0081 6.71698C10.0117 6.815 10.002 6.91305 9.97932 7.00848C9.96932 7.04977 9.97307 7.10606 9.92553 7.12483L9.898 7.11232C9.898 7.04351 9.91302 6.9772 9.91177 6.90964C9.91256 6.65119 9.87332 6.39417 9.79541 6.14774C9.72786 5.9338 9.65905 5.71862 9.57522 5.50969C9.5477 5.43712 9.52768 5.36206 9.50391 5.28824C9.4864 5.1794 9.43761 5.07806 9.4251 4.96797C9.4216 4.92551 9.40347 4.88559 9.37381 4.85501C9.34414 4.82443 9.30478 4.8051 9.26245 4.80032C9.23149 4.81199 9.20388 4.83111 9.18206 4.85598C9.16024 4.88086 9.14488 4.91073 9.13735 4.94295C9.1065 5.05773 9.10307 5.17815 9.12734 5.2945C9.1468 5.4416 9.1816 5.58626 9.23118 5.72612C9.26746 5.81495 9.31375 5.90002 9.34628 5.9901C9.35476 6.01198 9.35777 6.0356 9.35503 6.05891C9.33961 6.17501 9.33292 6.29211 9.33502 6.40921C9.33095 6.53144 9.34658 6.65352 9.38131 6.77077C9.40184 6.82673 9.40954 6.88659 9.40383 6.94593C9.36504 7.05352 9.27872 7.13859 9.23743 7.24368C9.21992 7.30123 9.21241 7.36003 9.1999 7.41758C9.19719 7.46234 9.1825 7.50555 9.15736 7.54269C9.10668 7.60149 9.05908 7.66288 9.01474 7.7266C8.94593 7.83419 8.88963 7.94679 8.81957 8.05563C8.77704 8.12945 8.71448 8.18825 8.67194 8.26081C8.58437 8.37841 8.50055 8.49852 8.41047 8.61362C8.35317 8.69152 8.30451 8.77542 8.26534 8.86383C8.19933 8.9722 8.1488 9.08927 8.11521 9.21163C8.09499 9.30678 8.0957 9.40518 8.1173 9.50002C8.13891 9.59486 8.18088 9.68386 8.24032 9.76086C8.27854 9.81781 8.32539 9.86846 8.37919 9.91099C8.42798 9.94477 8.49554 9.96603 8.51431 10.0286C8.54183 10.1462 8.5681 10.2638 8.59563 10.3801H10.1695C10.0994 10.255 10.0219 10.1299 9.9518 10.0048C9.91454 9.92778 9.87276 9.853 9.82669 9.78087C9.7804 9.73083 9.80793 9.65577 9.82669 9.60072C9.86762 9.5161 9.9198 9.4374 9.98183 9.36677C10.0907 9.2304 10.1782 9.07902 10.2783 8.93639C10.3546 8.79377 10.441 8.6574 10.5285 8.51979C10.6924 8.23704 10.8563 7.9543 11.029 7.67405C11.0783 7.58261 11.1065 7.4813 11.1116 7.37755C11.1241 7.27996 11.1216 7.18113 11.1266 7.08354C11.1403 6.7958 11.1266 6.5068 11.1266 6.21905C11.1266 6.16025 11.1178 6.10145 11.1141 6.04265C11.0898 5.87936 11.0431 5.72022 10.9752 5.56974C10.8789 5.31952 10.7675 5.0693 10.6762 4.81909C10.6537 4.73276 10.6411 4.64519 10.6199 4.55761C10.6036 4.50131 10.6336 4.4325 10.6011 4.38246C10.5923 4.37192 10.5802 4.36478 10.5667 4.36226C10.5532 4.35975 10.5393 4.36203 10.5273 4.3687C10.48 4.38183 10.437 4.40727 10.4027 4.44244C10.3684 4.4776 10.3441 4.52123 10.3321 4.56887C10.337 4.68157 10.3656 4.79198 10.416 4.8929C10.4635 5.0105 10.5035 5.13311 10.5586 5.24821C10.6136 5.36331 10.6562 5.49843 10.6999 5.63354C10.7175 5.70986 10.7537 5.78117 10.7775 5.85623C10.8526 6.09893 10.8748 6.35489 10.8426 6.60688C10.8301 6.71322 10.8226 6.81957 10.8075 6.92591C10.7913 6.95093 10.765 6.92591 10.7575 6.90339C10.7469 6.82577 10.7469 6.74706 10.7575 6.66944C10.7611 6.51125 10.7565 6.35299 10.7437 6.19528C10.7287 6.09894 10.715 6.00136 10.6987 5.90628C10.6824 5.8112 10.6249 5.74989 10.6024 5.66607C10.5275 5.44439 10.4381 5.2279 10.3346 5.01801C10.2294 4.79989 10.1746 4.56085 10.1745 4.31866C10.1807 4.28112 10.1995 4.22608 10.1557 4.20231C10.1071 4.19123 10.0563 4.19606 10.0106 4.21607M7.88376 4.58138C7.86468 4.72029 7.83028 4.85665 7.78117 4.98798C7.73653 5.10653 7.683 5.22154 7.62104 5.33203C7.57668 5.40822 7.5382 5.48769 7.50594 5.56974C7.48298 5.63593 7.4737 5.7061 7.47864 5.77599C7.48359 5.84588 7.50266 5.91403 7.53471 5.97634C7.58162 6.07829 7.63686 6.17621 7.69985 6.26909C7.64856 6.26909 7.59852 6.2816 7.54847 6.29036C7.33792 6.31685 7.13515 6.38672 6.95296 6.49554C6.8879 6.54308 6.81284 6.60313 6.81159 6.69196C6.82639 6.8545 6.88811 7.00924 6.98924 7.13734C7.04802 7.23033 7.11962 7.31457 7.20192 7.38756C7.29905 7.47596 7.4061 7.55279 7.52095 7.61651C7.63802 7.67928 7.76495 7.72159 7.89627 7.74161C8.13843 7.7664 8.38167 7.70625 8.58437 7.57147C8.67376 7.51259 8.75752 7.44558 8.83458 7.37129C8.94621 7.27079 9.03863 7.15082 9.10732 7.01724C9.1689 6.92055 9.20545 6.81005 9.21366 6.69571C9.21342 6.66313 9.20548 6.63107 9.19048 6.60215C9.17547 6.57323 9.15384 6.54827 9.12734 6.52932C9.06107 6.46756 8.98267 6.42027 8.89714 6.39045C8.63204 6.29675 8.35258 6.25017 8.07143 6.25283C8.11521 6.12772 8.15525 6.00261 8.19653 5.8775C8.22122 5.79387 8.23303 5.70697 8.23156 5.61978C8.21274 5.37582 8.14102 5.13888 8.02138 4.92543C7.97384 4.81158 7.92004 4.69898 7.88376 4.58138ZM10.7738 10.5478C10.5326 10.7039 10.2819 10.8447 10.0231 10.9694C9.9493 10.9919 9.88299 11.0307 9.81043 11.057C9.73787 11.0832 9.6628 11.1183 9.58773 11.1471C9.18231 11.2788 8.76204 11.3595 8.33665 11.3873C8.1615 11.4048 7.98635 11.4085 7.8112 11.4198C7.8112 11.4536 7.8112 11.4861 7.81996 11.5199C7.91004 11.5199 8.00011 11.5074 8.08894 11.5099V11.5837C8.01886 11.5833 7.94958 11.5987 7.88627 11.6287C7.84653 11.649 7.81293 11.6795 7.78896 11.7171C7.76498 11.7547 7.7515 11.7981 7.7499 11.8427C7.75398 11.8911 7.77132 11.9375 7.8 11.9768C7.82869 12.0161 7.86762 12.0467 7.91254 12.0653C7.98539 12.0935 8.06613 12.0935 8.13898 12.0653C8.13898 12.1079 8.13898 12.1492 8.14774 12.1905C8.20029 12.1905 8.25283 12.1829 8.30538 12.1804C8.28286 11.9515 8.28286 11.7213 8.25909 11.4936C8.3842 11.4798 8.52056 11.4711 8.65068 11.4523L8.66944 11.5136C8.60918 11.5188 8.54939 11.5284 8.49054 11.5424C8.46153 11.5551 8.43623 11.575 8.41698 11.6002C8.39773 11.6253 8.38516 11.6549 8.38044 11.6863C8.38044 11.7526 8.42798 11.8014 8.46552 11.8514C8.43581 11.8965 8.41998 11.9494 8.41998 12.0034C8.41998 12.0574 8.43581 12.1103 8.46552 12.1554C8.53544 12.2181 8.62265 12.2582 8.71573 12.2705C8.71573 12.2317 8.72824 12.1942 8.737 12.1567C8.6782 12.1404 8.61189 12.1141 8.59062 12.0503C8.58555 12.016 8.59216 11.9809 8.6094 11.9507C8.62664 11.9205 8.65351 11.897 8.68571 11.8839C8.69747 11.8769 8.71068 11.8726 8.72435 11.8714C8.73801 11.8703 8.75176 11.8722 8.76455 11.8772C8.77735 11.8821 8.78884 11.8899 8.79816 11.9C8.80747 11.91 8.81437 11.9221 8.81832 11.9352C8.81552 11.9723 8.80156 12.0076 8.77829 12.0366C8.80581 12.0641 8.83208 12.0941 8.85836 12.1241C8.89423 12.105 8.92409 12.0762 8.94463 12.0411C8.96517 12.006 8.97558 11.9659 8.97471 11.9252C8.97598 11.8968 8.96941 11.8686 8.95573 11.8437C8.94205 11.8187 8.92178 11.798 8.89714 11.7839C8.85888 11.7507 8.81205 11.729 8.76202 11.7213C8.69697 11.7113 8.63691 11.7638 8.57311 11.7363C8.58187 11.7163 8.59313 11.6938 8.6169 11.6888C8.69196 11.6725 8.76703 11.655 8.84334 11.6412C8.83458 11.5737 8.82333 11.5061 8.81332 11.4373L8.9159 11.4185C8.9722 11.6425 9.04101 11.8639 9.09356 12.0891L9.2537 12.0591C9.19865 11.8351 9.12859 11.6137 9.0873 11.3873C9.13234 11.3873 9.17863 11.3735 9.22367 11.3635C9.2562 11.4473 9.28372 11.5349 9.315 11.6137C9.28622 11.635 9.24494 11.6487 9.23618 11.6863C9.23148 11.703 9.23309 11.721 9.2407 11.7366C9.2483 11.7523 9.26138 11.7647 9.27747 11.7713C9.33475 11.8058 9.39669 11.832 9.46138 11.8489C9.50642 11.8389 9.51392 11.7839 9.52143 11.7451L9.62277 11.705C9.58648 11.655 9.55521 11.6024 9.51767 11.5524L9.46513 11.5737C9.44136 11.4873 9.41008 11.4023 9.38631 11.316C9.44136 11.2997 9.49766 11.2859 9.55145 11.2647C9.57142 11.271 9.58973 11.2818 9.60508 11.296C9.62043 11.3103 9.63245 11.3278 9.64028 11.3472C9.64377 11.3708 9.63876 11.3948 9.62615 11.4149C9.61354 11.4351 9.59415 11.4501 9.57147 11.4573C9.5427 11.4573 9.52768 11.4911 9.51017 11.5124C9.55841 11.5935 9.62929 11.6587 9.71409 11.7C9.75823 11.7142 9.80412 11.7222 9.85046 11.7238C9.89686 11.7301 9.94409 11.7232 9.98677 11.7039C10.0295 11.6847 10.0659 11.6539 10.0919 11.615C10.1232 11.67 10.1495 11.7288 10.1832 11.7826C10.2294 11.7677 10.2742 11.7489 10.3171 11.7263C10.2804 11.6279 10.2386 11.5314 10.192 11.4373C10.1395 11.3247 10.0857 11.1996 10.0319 11.0745C10.1132 11.042 10.1883 10.9982 10.2696 10.9669C10.3009 10.9531 10.3296 10.9344 10.3597 10.9181C10.366 10.929 10.3731 10.9395 10.3809 10.9494C10.3265 10.9823 10.2758 11.0208 10.2295 11.0645C10.2119 11.0872 10.2 11.1139 10.1948 11.1422C10.1895 11.1705 10.1912 11.1996 10.1995 11.2271C10.2283 11.28 10.2717 11.3234 10.3246 11.3522C10.3176 11.3963 10.32 11.4414 10.3316 11.4846C10.3433 11.5277 10.3639 11.5679 10.3922 11.6024C10.4367 11.6354 10.4883 11.6573 10.5429 11.6665C10.5975 11.6756 10.6534 11.6717 10.7062 11.655C10.7001 11.6128 10.6913 11.571 10.6799 11.5299C10.6395 11.5446 10.5952 11.5446 10.5548 11.5299C10.5306 11.5168 10.5113 11.4962 10.5 11.4711C10.4887 11.446 10.486 11.4178 10.4923 11.391C10.4985 11.3674 10.5097 11.3454 10.5253 11.3266C10.5408 11.3078 10.5603 11.2927 10.5823 11.2822C10.6003 11.2752 10.6199 11.2743 10.6384 11.2795C10.6569 11.2847 10.6732 11.2957 10.6849 11.3109C10.6963 11.3451 10.6963 11.3819 10.6849 11.416C10.715 11.4336 10.7462 11.4498 10.7788 11.4648C10.8025 11.4336 10.8351 11.4023 10.8313 11.3597C10.8349 11.3256 10.8312 11.2911 10.8204 11.2585C10.8096 11.226 10.792 11.1961 10.7688 11.1708C10.7206 11.1365 10.6639 11.1162 10.6049 11.112C10.5441 11.1104 10.4852 11.1329 10.441 11.1746C10.4222 11.1883 10.3797 11.2109 10.3734 11.1746C10.3672 11.1383 10.4059 11.1358 10.426 11.1208L10.6011 10.9957C10.5688 10.9402 10.5396 10.883 10.5135 10.8243C10.5566 10.8039 10.5984 10.7809 10.6386 10.7555C10.6876 10.8199 10.7327 10.8871 10.7738 10.9569C10.7652 10.9667 10.7588 10.9783 10.7551 10.9908C10.7515 11.0034 10.7506 11.0165 10.7525 11.0295C10.7633 11.0504 10.7799 11.0679 10.8003 11.0799C10.8206 11.0918 10.844 11.0978 10.8676 11.097C10.9121 11.102 10.957 11.102 11.0015 11.097C11.0402 11.0782 11.039 11.0282 11.0377 10.9907C11.0785 10.9653 11.117 10.9364 11.1528 10.9043C11.2116 10.9782 11.2779 11.0457 11.3342 11.122C11.3718 11.0883 11.4093 11.0545 11.4456 11.0194C11.3017 10.8443 11.1741 10.6566 11.0352 10.4765C11.0615 10.4552 11.089 10.4352 11.1178 10.4152L11.0565 10.3551C10.9652 10.4227 10.8713 10.4865 10.7763 10.549M4.89618 10.5828C4.92746 10.6003 4.95623 10.6203 4.98501 10.6404C4.98501 10.6854 4.98501 10.743 4.93497 10.7655C4.88122 10.7755 4.82607 10.7755 4.77233 10.7655C4.73975 10.8232 4.72379 10.8888 4.72622 10.9551C4.72865 11.0213 4.74937 11.0856 4.78609 11.1408C4.81927 11.1717 4.85901 11.1947 4.90233 11.2082C4.94565 11.2216 4.99145 11.2251 5.0363 11.2184C4.99752 11.2759 4.96624 11.3372 4.92496 11.3923C4.96749 11.4223 5.01504 11.4448 5.06007 11.4723C5.17642 11.2784 5.28777 11.0832 5.40412 10.8906C5.4329 10.9056 5.46042 10.9219 5.48794 10.9394C5.43415 11.057 5.37034 11.1696 5.31154 11.2847C5.2665 11.3735 5.21145 11.4561 5.17392 11.5487C5.22146 11.5699 5.2665 11.5949 5.31279 11.6162C5.35783 11.5274 5.40412 11.4398 5.45416 11.3535C5.50546 11.2284 5.57177 11.122 5.63057 11.0057C5.67354 11.0234 5.71533 11.0439 5.75567 11.067C5.77572 11.1086 5.78388 11.1549 5.77925 11.2008C5.77461 11.2467 5.75736 11.2905 5.7294 11.3272C5.7153 11.3038 5.69319 11.2864 5.66718 11.2781C5.64118 11.2698 5.61305 11.2713 5.58803 11.2822C5.56825 11.2912 5.55201 11.3066 5.54183 11.3258C5.53165 11.345 5.5281 11.3671 5.53173 11.3885C5.53315 11.4224 5.54461 11.4552 5.56466 11.4826C5.5847 11.51 5.61243 11.5308 5.64433 11.5424C5.67642 11.5453 5.70872 11.5401 5.73825 11.5272C5.76777 11.5143 5.79356 11.4941 5.81322 11.4686C5.88606 11.3735 5.92523 11.2568 5.92457 11.137L6.02466 11.1771C5.97211 11.3285 5.89955 11.4736 5.85951 11.6287C5.83574 11.69 5.81322 11.7538 5.78695 11.8139C5.83699 11.8314 5.88454 11.8539 5.93333 11.8739C6.01215 11.6625 6.08721 11.4498 6.16728 11.2384L6.22608 11.2571C6.24109 11.2209 6.2536 11.1846 6.26737 11.1471C6.06469 11.0682 5.86202 10.9869 5.6656 10.8968C5.64808 10.8218 5.63307 10.7467 5.6143 10.6729L5.47418 10.6028C5.48669 10.6779 5.50171 10.7517 5.51422 10.8268C5.4429 10.7792 5.36659 10.7392 5.29403 10.6942C5.22146 10.6491 5.15891 10.6103 5.0876 10.5691C5.0534 10.5406 5.01746 10.5143 4.98 10.4902C4.95498 10.5203 4.92871 10.549 4.90119 10.5778M11.5644 11.0232C11.5169 11.052 11.4719 11.0832 11.4243 11.1095C11.3955 11.122 11.4093 11.1571 11.4118 11.1808C11.4396 11.1845 11.4678 11.1788 11.4919 11.1646C11.5369 11.1295 11.5745 11.0858 11.617 11.0495C11.6166 11.0433 11.6145 11.0373 11.611 11.0322C11.6075 11.0271 11.6027 11.0229 11.5971 11.0203C11.5915 11.0176 11.5853 11.0165 11.5791 11.017C11.573 11.0175 11.567 11.0196 11.5619 11.0232M6.66521 11.0958C6.69283 11.1554 6.72374 11.2135 6.75779 11.2697L6.70024 11.2559C6.68518 11.296 6.67673 11.3382 6.67522 11.381H6.71776C6.71776 11.4135 6.70524 11.4461 6.69774 11.4773L6.55386 11.4498C6.58069 11.4261 6.60351 11.3982 6.62142 11.3672C6.63586 11.3287 6.63679 11.2865 6.62406 11.2474C6.61133 11.2083 6.5857 11.1747 6.55136 11.1521C6.52753 11.1368 6.50061 11.127 6.47254 11.1234C6.44446 11.1198 6.41594 11.1224 6.38902 11.1312C6.36209 11.1399 6.33744 11.1545 6.31684 11.1739C6.29624 11.1933 6.2802 11.217 6.26987 11.2434C6.26987 11.2984 6.2536 11.3685 6.29864 11.4085C6.23344 11.4372 6.1794 11.4864 6.14476 11.5487C6.12449 11.5827 6.11379 11.6216 6.11379 11.6612C6.11379 11.7009 6.12449 11.7398 6.14476 11.7738C6.18992 11.8397 6.2554 11.8889 6.33117 11.914V11.9878C6.3781 12.0025 6.42625 12.013 6.47505 12.0191C6.47505 11.9803 6.47505 11.9427 6.47505 11.904C6.47505 11.8652 6.5401 11.8389 6.56387 11.7976C6.53635 11.7701 6.51258 11.7388 6.48756 11.7088C6.43876 11.7238 6.38872 11.7588 6.33618 11.7388C6.32147 11.7345 6.3079 11.727 6.29643 11.7168C6.28497 11.7067 6.2759 11.6941 6.26987 11.68C6.26919 11.6605 6.27312 11.641 6.28132 11.6232C6.28953 11.6055 6.3018 11.5899 6.31713 11.5777C6.33246 11.5655 6.35043 11.5571 6.3696 11.5532C6.38878 11.5492 6.40861 11.5498 6.4275 11.5549C6.50507 11.5837 6.58514 11.6037 6.66396 11.6262C6.63518 11.7726 6.6014 11.919 6.57263 12.0666C6.62518 12.0754 6.67647 12.0854 6.72776 12.0966C6.77531 11.8727 6.82535 11.6487 6.87039 11.4248C6.91988 11.4362 6.97001 11.4445 7.02052 11.4498C7.01176 11.5299 7.00175 11.6087 6.99174 11.6888C6.97866 11.6867 6.96527 11.6876 6.95257 11.6914C6.93987 11.6951 6.92817 11.7017 6.91834 11.7106C6.9085 11.7194 6.90078 11.7304 6.89573 11.7427C6.89068 11.7549 6.88843 11.7681 6.88915 11.7814C6.906 11.842 6.94091 11.8961 6.98924 11.9365C7.01051 11.9565 7.02927 11.9828 7.06055 11.9865C7.07871 11.9761 7.09439 11.9619 7.10649 11.9448C7.11859 11.9278 7.12682 11.9083 7.13061 11.8877C7.184 11.8911 7.2371 11.8982 7.2895 11.909C7.2895 11.9928 7.28074 12.0766 7.27824 12.1592C7.32828 12.1667 7.37833 12.1742 7.42962 12.1792C7.45214 11.9603 7.47216 11.7401 7.48467 11.5199H7.54347C7.55057 11.4785 7.55434 11.4367 7.55473 11.3948C7.33997 11.3923 7.1264 11.3624 6.91918 11.3059C6.8829 11.2521 6.85287 11.1933 6.81784 11.1383C6.76279 11.1258 6.70775 11.1133 6.65395 11.097M7.37833 11.1608C7.36912 11.1675 7.36177 11.1764 7.35698 11.1866C7.3522 11.1969 7.35013 11.2083 7.35099 11.2196C7.35185 11.2309 7.35561 11.2419 7.36189 11.2513C7.36818 11.2608 7.37679 11.2684 7.3869 11.2736C7.397 11.2788 7.40827 11.2813 7.41962 11.2809C7.43096 11.2804 7.44201 11.2771 7.4517 11.2712C7.46138 11.2652 7.46939 11.2569 7.47494 11.247C7.4805 11.2371 7.48341 11.226 7.48342 11.2146C7.48373 11.2024 7.48055 11.1904 7.47425 11.18C7.46796 11.1696 7.45881 11.1612 7.44789 11.1558C7.43697 11.1504 7.42474 11.1482 7.41263 11.1496C7.40053 11.1509 7.38906 11.1557 7.37958 11.1633L7.37833 11.1608Z" fill="currentColor"/>
<path d="M8.00492 6.60806C8.00407 6.51052 8.01842 6.41344 8.04745 6.32031C8.28739 6.32015 8.52602 6.35557 8.75557 6.4254C8.86446 6.45187 8.96642 6.50135 9.05458 6.57053C9.06676 6.58038 9.07489 6.59436 9.07743 6.60982C9.07997 6.62528 9.07673 6.64113 9.06834 6.65435C9.02473 6.70275 8.96836 6.73787 8.9057 6.75569C8.68263 6.83954 8.43977 6.85564 8.20759 6.80198C8.15869 6.79268 8.11353 6.76942 8.07756 6.73501C8.0416 6.7006 8.01637 6.6565 8.00492 6.60806Z" fill="currentColor"/>
<path d="M7.32061 6.39538C7.45765 6.35912 7.59739 6.33402 7.73847 6.32031C7.78883 6.37618 7.83096 6.43895 7.86358 6.50672C7.89055 6.57201 7.89794 6.64374 7.88485 6.71315C7.86529 6.74368 7.83875 6.76913 7.80743 6.7874C7.77611 6.80567 7.7409 6.81624 7.70469 6.81824C7.5666 6.83578 7.42652 6.82944 7.29059 6.79948C7.18149 6.78295 7.07683 6.74466 6.98282 6.68688C6.9578 6.66811 6.93027 6.63934 6.93778 6.60556C6.94529 6.57178 6.98407 6.54175 7.0141 6.51923C7.10806 6.45999 7.21187 6.41804 7.32061 6.39538Z" fill="currentColor"/>
<path d="M10.7734 10.6514C10.8122 10.6289 10.8498 10.6038 10.886 10.5801C10.9398 10.6376 10.9886 10.7052 11.0374 10.7627L10.9236 10.8541C10.876 10.789 10.8297 10.7189 10.7734 10.6514Z" fill="currentColor"/>
<path d="M5.11472 10.7305C5.15783 10.7553 5.19959 10.7825 5.23983 10.8118C5.18854 10.8919 5.14225 10.9757 5.08595 11.052C5.06944 11.0629 5.05072 11.0699 5.03115 11.0726C5.01157 11.0753 4.99164 11.0736 4.97282 11.0676C4.95399 11.0616 4.93674 11.0514 4.92233 11.0379C4.90792 11.0244 4.89672 11.0078 4.88953 10.9894C4.87827 10.9669 4.88953 10.9444 4.89704 10.9231C4.95208 10.9231 5.02214 10.9231 5.05342 10.8668C5.08627 10.8281 5.10752 10.7808 5.11472 10.7305Z" fill="currentColor"/>
<path d="M9.78045 11.1996C9.81112 11.1827 9.84395 11.1701 9.87804 11.1621C9.90732 11.2413 9.94158 11.3187 9.98063 11.3936C9.98746 11.4227 9.98497 11.4532 9.97353 11.4808C9.96208 11.5084 9.94224 11.5317 9.91682 11.5474C9.89305 11.56 9.86803 11.5812 9.83925 11.5712C9.80318 11.5615 9.77225 11.5381 9.75293 11.5062C9.77868 11.4855 9.7985 11.4585 9.81037 11.4277C9.82224 11.3969 9.82573 11.3636 9.82049 11.331C9.81673 11.2822 9.78421 11.2422 9.78045 11.1996Z" fill="currentColor"/>
<path d="M6.41398 11.315C6.39772 11.2787 6.45527 11.24 6.48029 11.2712C6.50531 11.3025 6.48029 11.325 6.48029 11.3463C6.45152 11.3425 6.42149 11.34 6.41398 11.315Z" fill="currentColor"/>
<path d="M7.18597 11.4824C7.23101 11.4824 7.27605 11.4912 7.31984 11.4974C7.31984 11.5725 7.31984 11.6463 7.31108 11.7201C7.25667 11.7218 7.20223 11.7184 7.14844 11.7101C7.1597 11.6338 7.17596 11.5587 7.18597 11.4824Z" fill="currentColor"/>
<path d="M7.91654 11.7974C7.94064 11.7725 7.97117 11.7547 8.00473 11.7461C8.0383 11.7375 8.07359 11.7384 8.1067 11.7486C8.1067 11.8061 8.11546 11.8624 8.11796 11.92C8.09373 11.9323 8.06694 11.9387 8.03977 11.9387C8.0126 11.9387 7.9858 11.9323 7.96158 11.92C7.95011 11.9154 7.93974 11.9085 7.93113 11.8997C7.92252 11.8909 7.91587 11.8803 7.91162 11.8688C7.90737 11.8572 7.90561 11.8448 7.90646 11.8325C7.9073 11.8202 7.91074 11.8083 7.91654 11.7974Z" fill="currentColor"/>
</g>
</g>
<defs>
<clipPath id="clip0_3396_61701">
<rect width="16" height="16" fill="currentColor"/>
</clipPath>
<clipPath id="clip1_3396_61701">
<path d="M0.25 8C0.25 3.71979 3.71979 0.25 8 0.25C12.2802 0.25 15.75 3.71979 15.75 8C15.75 12.2802 12.2802 15.75 8 15.75C3.71979 15.75 0.25 12.2802 0.25 8Z" fill="currentColor"/>
</clipPath>
</defs>
</svg>
