<svg width="311" height="67" viewBox="0 0 311 67" fill="none" xmlns="http://www.w3.org/2000/svg">
<g clip-path="url(#clip0_835_20352)">
<path d="M4 37.7422C2.79401 36.935 2 35.5602 2 34C2 31.6564 3.79151 29.7313 6.07974 29.5194C6.54781 26.6721 9.02024 24.5 12 24.5C14.9798 24.5 17.4522 26.6721 17.9203 29.5194C20.2085 29.7313 22 31.6564 22 34C22 35.5602 21.206 36.935 20 37.7422M8 38.5L12 42.5M12 42.5L16 38.5M12 42.5V33.5" stroke="currentColor" stroke-width="1.75" stroke-linecap="round" stroke-linejoin="round"/>
</g>
<text fill="currentColor" style="white-space: pre" xml:space="preserve" font-family="Basier Circle" font-size="12" letter-spacing="0px"><tspan x="36" y="11.7891">Overline </tspan></text>
<text fill="currentColor" style="white-space: pre" xml:space="preserve" font-family="Basier Circle" font-size="15" letter-spacing="0px"><tspan x="36" y="37.8394">Heading</tspan></text>
<text fill="currentColor" style="white-space: pre" xml:space="preserve" font-family="Basier Circle" font-size="14" letter-spacing="0px"><tspan x="36" y="63.5039">Subtext</tspan></text>
<text fill="currentColor" style="white-space: pre" xml:space="preserve" font-family="Basier Circle" font-size="15" letter-spacing="0px"><tspan x="234.863" y="27.3394">Text 1</tspan></text>
<text fill="currentColor" style="white-space: pre" xml:space="preserve" font-family="Basier Circle" font-size="12" letter-spacing="0px"><tspan x="241.801" y="51.2891">Text 2</tspan></text>
<g clip-path="url(#clip1_835_20352)">
<path fill-rule="evenodd" clip-rule="evenodd" d="M295.355 29.3389L300.069 33.5054L295.355 37.6718C294.882 38.0906 294.882 38.7671 295.355 39.1859C295.829 39.6047 296.595 39.6047 297.068 39.1859L302.645 34.257C303.118 33.8383 303.118 33.1617 302.645 32.743L297.068 27.8141C296.595 27.3953 295.829 27.3953 295.355 27.8141C294.894 28.2329 294.882 28.9201 295.355 29.3389Z" fill="currentColor"/>
</g>
<defs>
<clipPath id="clip0_835_20352">
<rect width="24" height="24" fill="currentColor" transform="translate(0 21.5)"/>
</clipPath>
<clipPath id="clip1_835_20352">
<rect width="24" height="24" fill="currentColor" transform="translate(287 21.5)"/>
</clipPath>
</defs>
</svg>
