<svg width="343" height="67" viewBox="0 0 343 67" fill="none" xmlns="http://www.w3.org/2000/svg">
<g clip-path="url(#clip0_835_20309)">
<path d="M4 37.7422C2.79401 36.935 2 35.5602 2 34C2 31.6564 3.79151 29.7313 6.07974 29.5194C6.54781 26.6721 9.02024 24.5 12 24.5C14.9798 24.5 17.4522 26.6721 17.9203 29.5194C20.2085 29.7313 22 31.6564 22 34C22 35.5602 21.206 36.935 20 37.7422M8 38.5L12 42.5M12 42.5L16 38.5M12 42.5V33.5" stroke="currentColor" stroke-width="1.75" stroke-linecap="round" stroke-linejoin="round"/>
</g>
<text fill="currentColor" style="white-space: pre" xml:space="preserve" font-family="Basier Circle" font-size="12" letter-spacing="0px"><tspan x="36" y="11.7891">Overline </tspan></text>
<text fill="currentColor" style="white-space: pre" xml:space="preserve" font-family="Basier Circle" font-size="15" letter-spacing="0px"><tspan x="36" y="37.8394">Heading</tspan></text>
<text fill="currentColor" style="white-space: pre" xml:space="preserve" font-family="Basier Circle" font-size="14" letter-spacing="0px"><tspan x="36" y="63.5039">Subtext</tspan></text>
<text fill="currentColor" style="white-space: pre" xml:space="preserve" font-family="Basier Circle" font-size="15" letter-spacing="0px"><tspan x="266.863" y="27.3394">Text 1</tspan></text>
<text fill="currentColor" style="white-space: pre" xml:space="preserve" font-family="Basier Circle" font-size="12" letter-spacing="0px"><tspan x="273.801" y="51.2891">Text 2</tspan></text>
<g clip-path="url(#clip1_835_20309)">
<path fill-rule="evenodd" clip-rule="evenodd" d="M327.355 29.3389L332.069 33.5054L327.355 37.6718C326.882 38.0906 326.882 38.7671 327.355 39.1859C327.829 39.6047 328.595 39.6047 329.068 39.1859L334.645 34.257C335.118 33.8383 335.118 33.1617 334.645 32.743L329.068 27.8141C328.595 27.3953 327.829 27.3953 327.355 27.8141C326.894 28.2329 326.882 28.9201 327.355 29.3389Z" fill="currentColor"/>
</g>
<defs>
<clipPath id="clip0_835_20309">
<rect width="24" height="24" fill="currentColor" transform="translate(0 21.5)"/>
</clipPath>
<clipPath id="clip1_835_20309">
<rect width="24" height="24" fill="currentColor" transform="translate(319 21.5)"/>
</clipPath>
</defs>
</svg>
