<svg width="24" height="24" viewBox="0 0 24 24" fill="none" xmlns="http://www.w3.org/2000/svg">
<g clip-path="url(#clip0_2963_92388)">
<path d="M22.5 12C22.5 9.9233 21.8842 7.89323 20.7304 6.16652C19.5767 4.4398 17.9368 3.09399 16.0182 2.29927C14.0996 1.50455 11.9884 1.29661 9.95156 1.70176C7.91476 2.1069 6.04383 3.10693 4.57538 4.57538C3.10693 6.04384 2.1069 7.91476 1.70176 9.95156C1.29661 11.9884 1.50455 14.0996 2.29927 16.0182C3.09399 17.9368 4.4398 19.5767 6.16652 20.7304C7.89323 21.8842 9.9233 22.5 12 22.5V20.6969C10.2799 20.6969 8.59846 20.1869 7.16825 19.2312C5.73805 18.2756 4.62335 16.9173 3.9651 15.3282C3.30685 13.739 3.13462 11.9904 3.47019 10.3033C3.80577 8.61628 4.63407 7.06664 5.85035 5.85035C7.06664 4.63407 8.61628 3.80577 10.3033 3.47019C11.9904 3.13462 13.739 3.30685 15.3282 3.9651C16.9173 4.62335 18.2756 5.73805 19.2312 7.16825C20.1869 8.59846 20.6969 10.2799 20.6969 12H22.5Z" fill="#017AFE"/>
</g>
<defs>
<clipPath id="clip0_2963_92388">
<rect width="24" height="24" fill="white"/>
</clipPath>
</defs>
</svg>
