<svg width="24" height="24" viewBox="0 0 24 24" fill="none" xmlns="http://www.w3.org/2000/svg">
<g clip-path="url(#clip0_6029_7635)">
<g clip-path="url(#clip1_6029_7635)">
<ellipse cx="11.899" cy="4.17908" rx="3.80429" ry="2.15857" fill="#EBF7FF"/>
<path d="M19.6782 14.5666C19.7002 14.7641 19.7331 15.0275 19.7441 15.225C19.7551 15.4445 19.766 15.7517 19.7441 15.9383C19.7221 16.2565 19.6782 16.6845 19.6124 16.9918C19.5685 17.2332 19.4807 17.5734 19.382 17.8039C19.3161 17.9465 19.2503 18.1331 19.1844 18.2648C19.0857 18.4513 18.954 18.7037 18.8442 18.8793C18.5809 19.3073 18.2626 19.6475 18.1639 19.7572C18.0212 19.9108 17.7578 20.1632 17.3737 20.4595C17.0335 20.7229 16.6604 20.9424 16.4958 21.0302C16.0239 21.2826 15.7167 21.4033 15.585 21.4582C15.4533 21.513 15.2777 21.5789 15.1351 21.6228C14.9924 21.6667 14.8168 21.7325 14.6742 21.7654C14.5425 21.8093 14.3559 21.8532 14.2133 21.8861C13.6207 22.0178 12.9952 22.0946 12.3696 22.1166C11.4698 22.1495 10.7345 22.0508 10.526 22.0178C10.2956 21.9739 9.98831 21.93 9.59325 21.8313C9.24209 21.7435 9.01163 21.6776 8.66047 21.546C8.50684 21.4911 8.3093 21.4143 8.16664 21.3484C8.02399 21.2936 7.84841 21.2058 7.71673 21.1399L7.71671 21.1399C7.53016 21.0412 7.28873 20.9095 7.11315 20.7888C6.86075 20.6241 6.54251 20.3827 6.31206 20.1962C6.15842 20.0755 5.97187 19.8889 5.84018 19.7462C5.68655 19.5816 5.48902 19.3621 5.3683 19.1756C5.2037 18.9342 4.99519 18.594 4.86351 18.3306C4.74279 18.0892 4.62208 17.749 4.53429 17.4856C4.46845 17.31 4.41358 17.0467 4.38066 16.8601C4.32579 16.5419 4.30384 16.1139 4.28189 15.7956C4.27092 15.6201 4.28189 15.4006 4.29286 15.236C4.30384 14.9506 4.35871 14.5775 4.4026 14.2922C4.43552 14.1057 4.49039 13.8533 4.53429 13.6667C4.60013 13.4033 4.70987 13.0522 4.79766 12.7998C4.8635 12.6242 4.96227 12.4047 5.02811 12.2291C5.12688 11.9987 5.29149 11.6914 5.4122 11.461C5.49999 11.3073 5.6207 11.1098 5.71947 10.9562C5.85115 10.7477 6.04869 10.4843 6.19135 10.2867C6.29011 10.1551 6.43277 9.97948 6.54251 9.84779C6.69614 9.66124 6.90465 9.44176 7.06926 9.27715C7.22289 9.12352 7.44237 8.91501 7.60698 8.77235C7.91424 8.498 8.37515 8.14684 8.63852 7.98223C8.84702 7.85055 9.13235 7.66399 9.35182 7.54328C9.49448 7.46646 9.69201 7.35672 9.84565 7.29088C10.131 7.15919 10.2627 7.09335 10.5699 6.98361C10.8552 6.88484 11.0418 6.82997 11.2503 6.7751C11.7222 6.65439 12.2709 6.65439 12.7537 6.7751C13.1159 6.8629 13.489 6.99458 13.8511 7.14822C13.9938 7.20309 14.1803 7.29088 14.312 7.35672C14.7692 7.61072 15.2271 7.86065 15.6508 8.16879C15.8264 8.2895 16.0349 8.45411 16.1995 8.5858C16.3641 8.71748 16.5836 8.91501 16.7372 9.05767L17.1104 9.43078C17.275 9.59539 17.4725 9.83682 17.6261 10.0124C17.7359 10.1441 17.8785 10.3306 17.9773 10.4623C18.1309 10.6599 18.3175 10.9342 18.4382 11.1537C18.526 11.3073 18.6577 11.5048 18.7345 11.6695C18.8552 11.8999 19.0088 12.2182 19.1076 12.4596C19.2612 12.8107 19.4039 13.2936 19.5027 13.6557C19.5685 13.9191 19.6453 14.2922 19.6782 14.5666Z" fill="#EBF7FF" stroke="black" stroke-width="0.075" stroke-linecap="round" stroke-linejoin="round"/>
<path d="M12.2639 22.1062C12.8833 22.0844 13.5027 22.0084 14.0894 21.878C14.2307 21.8454 14.4154 21.8019 14.5458 21.7585C14.6871 21.7259 14.8609 21.6607 15.0022 21.6172C15.1435 21.5737 15.3173 21.5085 15.4477 21.4542C15.5781 21.3999 15.8824 21.2804 16.3496 21.0304C16.5126 20.9435 16.882 20.7262 17.2189 20.4654C17.5992 20.172 17.86 19.9221 18.0013 19.77C18.0991 19.6613 18.4142 19.3245 18.675 18.9115C14.1003 22.5734 10.1342 20.987 8.53686 18.955C6.3419 16.1624 8.83024 9.74053 10.5471 9.18636C12.8072 9.72966 14.6002 8.59959 13.7417 7.6325C13.5896 7.45864 13.394 7.25219 13.155 7.024C12.9811 6.96967 12.8072 6.91534 12.6334 6.87187C12.1553 6.75234 11.612 6.75234 11.1447 6.87187C10.9383 6.9262 10.7535 6.98053 10.471 7.07833C10.1668 7.18699 10.0364 7.25219 9.75386 7.38258C9.60174 7.44778 9.40615 7.55644 9.26489 7.6325C9.04757 7.75203 8.76505 7.93675 8.55859 8.06715C8.2978 8.23014 7.84142 8.57785 7.53717 8.84951C7.37418 8.99077 7.15686 9.19722 7.00473 9.34935C6.84174 9.51234 6.63528 9.72966 6.48316 9.91439C6.3745 10.0448 6.23324 10.2186 6.13544 10.349C5.99418 10.5446 5.79859 10.8054 5.6682 11.0119C5.5704 11.164 5.45088 11.3596 5.36395 11.5117C5.24442 11.7399 5.08143 12.0441 4.98363 12.2723C4.91844 12.4462 4.82064 12.6635 4.75544 12.8374C4.66852 13.0873 4.55985 13.435 4.49466 13.6958C4.45119 13.8805 4.39686 14.1304 4.36426 14.3152C4.3208 14.5977 4.26647 14.9671 4.2556 15.2497C4.24474 15.4126 4.23387 15.63 4.24474 15.8038C4.26647 16.1189 4.2882 16.5427 4.34253 16.8578C4.37513 17.0426 4.42946 17.3034 4.49466 17.4772C4.58159 17.738 4.70111 18.0748 4.82064 18.3139C4.95103 18.5747 5.15749 18.9115 5.32048 19.1506C5.44001 19.3353 5.6356 19.5526 5.78773 19.7156C5.91812 19.8569 6.10284 20.0416 6.25497 20.1611C6.48316 20.3459 6.79828 20.5849 7.0482 20.7479C7.22205 20.8674 7.46111 20.9978 7.64583 21.0956C7.77623 21.1608 7.95009 21.2478 8.09135 21.3021C8.23261 21.3673 8.4282 21.4433 8.58032 21.4977C8.92804 21.6281 9.15623 21.6933 9.50394 21.7802C9.89512 21.878 10.1994 21.9215 10.4276 21.9649C10.6449 22.041 11.3838 22.1388 12.2639 22.1062Z" fill="#017AFF" stroke="black" stroke-width="0.075" stroke-linecap="round" stroke-linejoin="round"/>
<path d="M15.2344 12.3456L15.3197 12.7721L13.9392 12.992C14.2209 13.1483 14.4531 13.4028 14.5804 13.786L15.493 13.64L15.5783 14.0665L14.6741 14.211C14.7634 15.094 14.1928 15.7558 13.1302 15.9595C13.9184 16.5458 14.8021 17.3014 15.6788 18.0659L14.8759 18.1948C14.0656 17.4975 13.3083 16.8546 12.3517 16.1274L12.2482 15.5995L12.7078 15.5271C13.6119 15.3826 14.0216 14.9233 13.9641 14.3258L12.0567 14.6301L11.9714 14.2036L13.8536 13.9038C13.6383 13.4291 13.1468 13.2518 12.4174 13.3675L11.8229 13.4615L11.7129 12.9092L15.2344 12.3456Z" fill="#017AFF" stroke="black" stroke-width="0.075" stroke-miterlimit="10"/>
<path d="M9.77553 7.36779C9.47924 7.10442 9.20489 6.79715 9.12808 6.69839C8.45867 5.91924 8.07458 5.1401 7.96484 4.92062C8.14043 5.28276 8.46964 5.63392 8.95249 5.91924C10.5108 6.86299 13.0896 6.88494 14.7248 5.97411C15.2735 5.66684 15.6466 5.29373 15.8331 4.8877C15.5917 5.39249 15.3064 5.82048 15.2296 5.94119C15.0211 6.24846 14.9333 6.3582 14.7906 6.54475C14.6809 6.67644 14.5053 6.88494 14.4285 6.96176C14.187 7.21416 13.5396 7.88357 12.6726 8.20181C12.2117 8.36642 11.6301 8.36642 11.1692 8.20181C10.6422 7.99684 10.2069 7.73758 9.77553 7.36779Z" fill="#EBF7FF" stroke="black" stroke-width="0.075" stroke-linecap="round" stroke-linejoin="round"/>
<path d="M9.19346 2.52051C9.4678 2.36687 9.84091 2.18032 10.5213 2.02668C10.9712 1.92792 11.487 1.87305 11.9918 1.87305C12.6941 1.88402 13.2428 2.00473 13.4403 2.04863C13.5281 2.07058 13.6379 2.1035 13.7257 2.12545C13.8793 2.18032 14.0878 2.24616 14.2414 2.312C14.2634 2.32298 14.4719 2.41077 14.7572 2.57538C14.7133 2.55343 14.6585 2.54245 14.5816 2.58635C13.166 1.74136 10.8395 1.70844 9.36904 2.53148C7.89854 3.35452 7.85464 4.70431 9.2593 5.5493C10.6749 6.39429 13.0014 6.42721 14.4719 5.60417C15.9424 4.78113 15.9863 3.43134 14.5816 2.58635C14.6585 2.54245 14.7133 2.55343 14.7572 2.57538C14.8121 2.6083 14.8779 2.65219 14.9328 2.68512C15.0316 2.75096 15.1523 2.84972 15.251 2.92654C15.3388 3.00336 15.4486 3.1131 15.5144 3.20089C15.5364 3.23381 15.7778 3.49718 15.9095 3.85932C16.2058 4.63847 15.8107 5.48346 14.7462 6.07605C13.1221 6.98688 10.5432 6.95396 8.97398 6.02118C7.9973 5.43956 7.65711 4.62749 7.93146 3.89224C8.0412 3.6179 8.19483 3.3655 8.41431 3.12407C8.7106 2.79485 9.08372 2.58635 9.19346 2.52051Z" fill="#017AFF"/>
<path d="M14.7572 2.57538C14.4719 2.41077 14.2634 2.32298 14.2414 2.312C14.0878 2.24616 13.8793 2.18032 13.7257 2.12545C13.6379 2.1035 13.5281 2.07058 13.4403 2.04863C13.2428 2.00473 12.6941 1.88402 11.9918 1.87305C11.487 1.87305 10.9712 1.92792 10.5213 2.02668C9.84092 2.18032 9.4678 2.36687 9.19346 2.52051C9.08372 2.58635 8.7106 2.79485 8.41431 3.12407C8.19483 3.3655 8.0412 3.6179 7.93146 3.89224C7.65711 4.62749 7.9973 5.43956 8.97398 6.02118C10.5432 6.95396 13.1221 6.98688 14.7462 6.07605C15.8107 5.48346 16.2058 4.63847 15.9095 3.85932C15.7778 3.49718 15.5364 3.23381 15.5144 3.20089C15.4486 3.1131 15.3388 3.00336 15.251 2.92654C15.1523 2.84972 15.0316 2.75096 14.9328 2.68512C14.8779 2.65219 14.8121 2.6083 14.7572 2.57538ZM14.7572 2.57538C14.7133 2.55343 14.6585 2.54245 14.5816 2.58635M14.5816 2.58635C13.166 1.74136 10.8395 1.70844 9.36904 2.53148C7.89854 3.35452 7.85464 4.70431 9.2593 5.5493C10.6749 6.39429 13.0014 6.42721 14.4719 5.60417C15.9424 4.78113 15.9863 3.43134 14.5816 2.58635Z" stroke="black" stroke-width="0.075" stroke-linecap="round" stroke-linejoin="round"/>
<circle cx="20.5495" cy="3.675" r="1.8" fill="#DF3C27"/>
</g>
</g>
<defs>
<clipPath id="clip0_6029_7635">
<rect width="24" height="24" fill="white"/>
</clipPath>
<clipPath id="clip1_6029_7635">
<rect width="24" height="24" fill="white"/>
</clipPath>
</defs>
</svg>
