<svg width="24" height="24" viewBox="0 0 24 24" fill="none" xmlns="http://www.w3.org/2000/svg">
<g clip-path="url(#clip0_5829_7179)">
<g clip-path="url(#clip1_5829_7179)">
<circle cx="11.9996" cy="11.9996" r="11.4" fill="white"/>
<path d="M19.9451 6.55078H10.0684V17.4492H19.9451V6.55078Z" fill="#76B900"/>
<path d="M10.0684 9.84797C10.2455 9.83094 10.426 9.81732 10.6031 9.82413C12.2889 9.82413 13.2936 11.1353 13.2936 11.1353L11.9211 12.2899C11.3081 11.2614 11.0935 10.8084 10.0684 10.6858V9.84797ZM10.0684 13.6079C10.317 13.6897 10.586 13.7305 10.8517 13.7305C12.8543 13.7305 14.7173 11.1422 14.7173 11.1422C14.7173 11.1422 12.9905 8.78878 10.3544 8.87392C10.2591 8.87392 10.1637 8.88073 10.0684 8.88414V8.10081L10.3544 8.08378C14.0191 7.95777 16.4099 11.0877 16.4099 11.0877C16.4099 11.0877 13.6683 14.4253 10.8108 14.4253C10.5622 14.4253 10.3102 14.4015 10.0684 14.3606V13.6079ZM10.7325 16.118C10.5077 16.118 10.2829 16.1078 10.0684 16.0839V15.2529C10.2693 15.2768 10.4839 15.2938 10.6848 15.2938C13.3481 15.2938 15.2724 13.9349 17.1354 12.3308C17.4453 12.5794 18.7088 13.1788 18.9711 13.441C17.2001 14.926 13.0723 16.118 10.7325 16.118Z" fill="#FAFAFA"/>
<path d="M10.0696 13.6069V14.3671C7.61094 13.9278 6.92773 11.368 6.92773 11.368C6.92773 11.368 8.10954 10.0615 10.0696 9.84766V10.679H10.0638C9.03626 10.5544 8.22874 11.5165 8.22874 11.5165C8.22874 11.5165 8.6858 13.1376 10.0696 13.6069Z" fill="#76B900"/>
<path d="M5.70386 11.2601C5.70386 11.2601 7.15881 9.11005 10.0748 8.88459V8.10059C6.84412 8.36181 4.05273 11.0939 4.05273 11.0939C4.05273 11.0939 5.63268 15.6668 10.0691 16.0827V15.2513C6.81449 14.8471 5.70386 11.2601 5.70386 11.2601Z" fill="#76B900"/>
</g>
</g>
<defs>
<clipPath id="clip0_5829_7179">
<rect width="24" height="24" fill="white"/>
</clipPath>
<clipPath id="clip1_5829_7179">
<rect width="24" height="24" fill="white"/>
</clipPath>
</defs>
</svg>
