<svg width="24" height="24" viewBox="0 0 24 24" fill="none" xmlns="http://www.w3.org/2000/svg">
<g clip-path="url(#clip0_3054_75642)">
<rect x="0.600586" y="0.600586" width="22.8" height="22.8" rx="11.4" fill="currentColor"/>
<path d="M18.4804 16.2325L11.8547 17.9325C11.8164 17.9437 11.777 17.936 11.7414 17.9105C11.7058 17.8849 11.6755 17.8426 11.6544 17.7889C11.6334 17.7351 11.6224 17.6724 11.623 17.6084C11.6235 17.5444 11.6355 17.4822 11.6575 17.4294L13.4289 13.8585L8.71563 10.1002L6.2525 13.7169C6.22321 13.7656 6.1853 13.7978 6.14421 13.8088C6.10312 13.8199 6.06095 13.8093 6.02374 13.7785L1.65827 11.1537C1.62545 11.1265 1.5979 11.0847 1.57874 11.0331C1.55957 10.9815 1.54955 10.9221 1.54981 10.8616L1.96688 9.19756C1.96698 9.14223 1.97568 9.08787 1.99214 9.03963C2.0086 8.99139 2.03228 8.95087 2.06093 8.92193C2.08958 8.89299 2.12225 8.87659 2.15584 8.87427C2.18942 8.87195 2.22281 8.88381 2.25283 8.9087L6.05332 10.983L8.31925 7.03313C8.34822 6.98264 8.38626 6.94878 8.42779 6.93651C8.46932 6.92424 8.51215 6.93422 8.54998 6.96498L14.3223 11.697L16.3067 8.30508C16.328 8.25299 16.3581 8.21223 16.3932 8.18772C16.4284 8.16322 16.4671 8.15603 16.5047 8.16702C16.5422 8.17802 16.5771 8.20673 16.6049 8.24967C16.6328 8.29261 16.6525 8.34794 16.6616 8.40893L18.644 15.8333C18.6507 15.8773 18.6516 15.9232 18.6468 15.9678C18.642 16.0125 18.6315 16.0551 18.6161 16.0927C18.6006 16.1303 18.5806 16.1622 18.5572 16.1862C18.5338 16.2103 18.5077 16.2261 18.4804 16.2325Z" fill="currentColor"/>
</g>
<defs>
<clipPath id="clip0_3054_75642">
<rect width="24" height="24" fill="currentColor"/>
</clipPath>
</defs>
</svg>
