<svg width="24" height="24" viewBox="0 0 24 24" fill="none" xmlns="http://www.w3.org/2000/svg">
<g clip-path="url(#clip0_6029_6732)">
<g clip-path="url(#clip1_6029_6732)">
<path d="M11.9999 11.0073C9.00088 11.0073 6.56967 9.98914 6.56967 8.73315C6.56967 7.47716 9.00088 6.45898 11.9999 6.45898C14.999 6.45898 17.4302 7.47716 17.4302 8.73315C17.4302 9.98914 14.999 11.0073 11.9999 11.0073Z" fill="currentColor" stroke="currentColor" stroke-width="0.075"/>
<path d="M7.4402 19.5921C7.44709 19.7585 7.47785 19.9239 7.53001 20.0829C7.53001 20.1005 7.54453 20.1254 7.55068 20.1424C7.55831 20.1628 7.56618 20.1833 7.57454 20.2035C7.59103 20.2439 7.60899 20.2839 7.62818 20.3234C7.64738 20.3627 7.66804 20.4015 7.68994 20.4398C7.70077 20.4589 7.71184 20.4779 7.7234 20.4968C7.7266 20.5023 7.73128 20.5128 7.73694 20.5223C7.73694 20.5223 7.73694 20.5228 7.73718 20.523C7.73718 20.5233 7.73718 20.5237 7.73767 20.5242C7.74382 20.5386 7.78713 20.6332 7.81469 20.685C7.81518 20.6859 7.81567 20.6866 7.81616 20.6873C7.8169 20.689 7.81813 20.6906 7.81936 20.6922C7.82084 20.6943 7.82231 20.6962 7.82354 20.6973C7.82354 20.6973 7.82371 20.6974 7.82404 20.6976C7.83043 20.7048 7.83855 20.7115 7.84372 20.7168C7.85824 20.7319 7.873 20.7471 7.88801 20.7619C7.91778 20.7917 7.94804 20.8207 7.97905 20.8493C8.0408 20.9065 8.10502 20.9613 8.17121 21.0138C8.30358 21.1189 8.44407 21.2149 8.59047 21.302C8.68422 21.3578 8.78042 21.4098 8.87859 21.4584C9.23659 21.6355 9.61796 21.7682 10.0072 21.869C10.3384 21.955 10.6755 22.0196 11.0158 22.0626C12.2954 22.2244 13.6226 22.071 14.8103 21.5927C14.8809 21.5644 14.951 21.5346 15.0209 21.503C15.5639 21.2583 16.0725 20.916 16.3464 20.4157C16.4706 20.1889 16.5402 19.9365 16.5518 19.6813C16.572 19.2349 16.3742 19.4313 16.0897 19.5849C15.6525 19.821 15.1894 19.9925 14.7087 20.1328C14.3135 20.2481 13.9085 20.3109 13.504 20.3762C13.2319 20.4203 12.9534 20.4296 12.6778 20.4538C12.3186 20.4854 11.9584 20.4759 11.5984 20.477C11.4227 20.4775 11.2495 20.4519 11.0755 20.435C10.9063 20.4185 10.736 20.4164 10.5677 20.3868C10.2648 20.3339 9.96046 20.2892 9.65709 20.239C9.27325 20.1756 8.92018 20.0208 8.55627 19.9C8.35968 19.8347 8.17391 19.7334 7.99209 19.63C7.86685 19.5588 7.74481 19.478 7.61883 19.4092C7.40994 19.2953 7.43061 19.3701 7.4402 19.5921Z" fill="currentColor" stroke="currentColor" stroke-width="0.075"/>
<path d="M5.6464 12.4418C5.64763 13.4452 5.68084 14.4484 5.65944 15.4519C5.65181 15.8156 5.64221 16.177 5.70323 16.5376C5.84176 17.3573 6.19188 18.2285 6.83677 18.8125C7.06313 19.0172 7.30155 19.2271 7.53431 19.4227C7.76461 19.6163 8.10268 19.7551 8.38145 19.8778C9.01133 20.1548 9.68747 20.333 10.3734 20.4318C12.1696 20.6897 14.1623 20.5422 15.8148 19.7918C16.0328 19.6928 16.2468 19.5831 16.4373 19.4425C16.5399 19.3667 16.6348 19.2824 16.7296 19.198C17.0187 18.9417 17.31 18.6828 17.5457 18.3802C17.7898 18.0668 17.9332 17.711 18.0651 17.3452C18.1069 17.2299 18.148 17.1144 18.1832 16.9971C18.3648 16.3919 18.3289 15.7766 18.3299 15.1549C18.3313 14.4933 18.3318 13.8314 18.3326 13.1698C18.3336 12.2005 18.4133 11.2243 18.2819 10.2594C18.2725 10.1906 18.2624 10.122 18.2506 10.0537C18.0993 9.16065 17.4328 8.14394 16.6604 7.60851C16.5224 7.51254 16.3839 7.41726 16.2495 7.31687C16.1974 7.27806 16.1204 7.27108 16.0908 7.20485C16.047 7.19602 16.0045 7.1858 15.9895 7.13793C15.9577 7.1363 15.9262 7.13444 15.8945 7.13281C15.9371 7.22205 16.0379 7.24018 16.111 7.29223C16.3231 7.44305 16.5116 7.61456 16.6634 7.82371C16.8341 8.05889 16.9016 8.32311 16.843 8.5899C16.7926 8.8188 16.671 9.02772 16.4806 9.20364C16.2092 9.45462 15.907 9.65145 15.568 9.80855C15.4034 9.88501 15.2351 9.95217 15.0633 10.0065C14.7462 10.1069 14.4416 10.2345 14.1121 10.2984C13.4815 10.4207 12.8039 10.4558 12.1615 10.4771C11.7375 10.4915 11.3153 10.4511 10.8929 10.413C10.4834 10.3763 10.0775 10.3168 9.68083 10.2203C8.73625 9.99051 6.81586 9.38769 7.19772 8.12628C7.2302 8.01845 7.25726 7.89714 7.3638 7.83207C7.37758 7.82371 7.39259 7.81581 7.40096 7.80256C7.40637 7.79373 7.40809 7.7835 7.40981 7.77351C7.41547 7.74237 7.42089 7.711 7.42654 7.67963C7.43491 7.63222 7.4108 7.5962 7.35494 7.6113C7.30721 7.62408 7.27326 7.66266 7.24053 7.69775C7.12637 7.81976 6.98514 7.90714 6.85891 8.01589C6.74426 8.11489 6.64239 8.22667 6.55234 8.34612C6.37027 8.58781 6.23568 8.85831 6.11905 9.13276C6.05311 9.28823 5.99283 9.44579 5.93255 9.60335C5.78172 9.99702 5.70815 10.4102 5.67272 10.8297C5.62794 11.3656 5.6459 11.9121 5.6464 12.4418Z" fill="currentColor" stroke="currentColor" stroke-width="0.075"/>
<path d="M14.9241 7.04199H13.4495V9.32383C13.4495 9.7082 13.78 10.0203 14.1869 10.0203C14.5939 10.0203 14.9243 9.7082 14.9243 9.32383V7.04199H14.9241Z" fill="currentColor" stroke="currentColor" stroke-width="0.075"/>
<path d="M9.15942 6.17773H7.68486V8.45957C7.68486 8.84394 8.0153 9.15604 8.42227 9.15604C8.82923 9.15604 9.15967 8.84394 9.15967 8.45957V6.17773H9.15942Z" fill="currentColor" stroke="currentColor" stroke-width="0.075"/>
<path d="M13.4036 3.90332H11.929V6.18516C11.929 6.56953 12.2594 6.88163 12.6664 6.88163C13.0734 6.88163 13.4038 6.56953 13.4038 6.18516V3.90332H13.4036Z" fill="currentColor" stroke="currentColor" stroke-width="0.075"/>
<path d="M11.0113 5.26324C11.0475 5.58162 11.5221 5.69595 11.807 5.69828C12.1148 5.71129 12.6507 5.5772 12.6618 5.24512L12.6709 8.27618C12.6711 8.39261 12.5899 8.50903 12.4271 8.59781C12.0659 8.78999 11.4589 8.78279 11.1407 8.51507C11.0812 8.46232 11.0337 8.39377 11.0224 8.31638C11.0207 8.30453 11.0197 8.29268 11.0194 8.28059L11.0103 5.24953C11.0103 5.25418 11.0108 5.2586 11.0111 5.26324H11.0113Z" fill="currentColor" stroke="currentColor" stroke-width="0.075"/>
<path d="M11.0113 5.24911C11.0105 4.99974 11.3795 4.79661 11.8354 4.7954C12.2913 4.7942 12.6615 4.99538 12.6622 5.24476C12.663 5.49413 12.294 5.69726 11.8381 5.69847C11.3822 5.69967 11.012 5.49849 11.0113 5.24911Z" fill="currentColor" stroke="currentColor" stroke-width="0.075"/>
<path d="M15.3125 4.49133C15.1705 4.45693 15.0475 4.38094 14.9144 4.32587C14.7269 4.24476 14.533 4.1776 14.3355 4.12136C13.511 3.89083 12.6294 3.84203 11.7798 3.96194C11.0389 4.07326 10.2882 4.3082 9.7174 4.78321C9.39976 5.04929 9.15051 5.42716 9.14657 5.8364L9.16478 4.71535C9.16675 4.53478 9.21965 4.34655 9.30577 4.18271C9.68419 3.48485 10.5515 3.11279 11.3221 2.93013C12.1626 2.73702 13.0496 2.73004 13.8968 2.89179C14.2213 2.955 14.5397 3.0447 14.844 3.16787C14.9678 3.21574 15.0842 3.27755 15.2055 3.32961C15.3098 3.37097 15.4215 3.39514 15.5339 3.4063C15.8499 3.44325 16.4502 3.3403 16.4775 2.97219L16.4593 4.09324C16.4588 4.11834 16.4547 4.14367 16.4465 4.16877C16.4116 4.2752 16.3191 4.35422 16.2189 4.4079C15.9451 4.54733 15.61 4.56546 15.312 4.49133H15.3125Z" fill="currentColor" stroke="currentColor" stroke-width="0.075"/>
<path d="M7.58544 6.29173C7.54656 6.15857 7.52491 6.021 7.52024 5.88273C7.51974 5.85833 7.5195 5.83393 7.5195 5.80953L7.53771 4.68848C7.52393 5.39657 7.99781 6.01937 8.56372 6.44441C9.53511 7.17017 10.7838 7.50644 12.0012 7.6217C12.607 7.67654 13.2189 7.67352 13.8235 7.60915C14.0452 7.58568 14.2659 7.55384 14.4843 7.51317C14.6521 7.48366 14.8239 7.4488 14.9649 7.35376C15.0635 7.28938 15.1487 7.18806 15.1499 7.07117C15.1401 7.11927 15.1524 8.29005 15.1086 8.2961C14.9961 8.5257 14.7078 8.59309 14.4661 8.63446C14.3013 8.66513 14.1355 8.69069 13.9686 8.71138C13.2295 8.80364 12.4778 8.8041 11.738 8.71742C10.6625 8.58751 9.58383 8.28029 8.69732 7.67585C8.1976 7.33005 7.75226 6.86643 7.58495 6.29197L7.58544 6.29173Z" fill="currentColor" stroke="currentColor" stroke-width="0.075"/>
<path d="M7.61961 4.21C7.11866 5.77584 9.01666 7.29939 11.8405 7.60568C12.8137 7.71118 13.7715 7.66052 14.6312 7.4853C14.8967 7.43115 15.0891 7.30334 15.139 7.14857C15.2503 6.80486 14.6396 6.51647 14.05 6.63708C13.4809 6.7535 12.8491 6.79045 12.2054 6.72864C10.2439 6.54017 8.89192 5.49442 9.21375 4.41241C9.21645 4.40288 9.2194 4.39359 9.2226 4.38406C9.57174 3.30554 11.4378 2.60302 13.3909 2.81496C14.0616 2.8877 14.6553 3.05897 15.1317 3.29601C15.6058 3.53188 16.3555 3.39106 16.4667 3.04758C16.5167 2.89328 16.4182 2.73386 16.2054 2.62789C15.5133 2.28372 14.6511 2.03529 13.6775 1.92979C10.8394 1.62187 8.12745 2.64299 7.61985 4.21023L7.61961 4.21Z" fill="currentColor" stroke="currentColor" stroke-width="0.075"/>
<circle cx="20.925" cy="2.55" r="1.8" fill="currentColor"/>
</g>
</g>
<defs>
<clipPath id="clip0_6029_6732">
<rect width="24" height="24" fill="currentColor"/>
</clipPath>
<clipPath id="clip1_6029_6732">
<rect width="24" height="24" fill="currentColor" transform="matrix(-1 0 0 1 24 0)"/>
</clipPath>
</defs>
</svg>
