<svg width="24" height="24" viewBox="0 0 24 24" fill="none" xmlns="http://www.w3.org/2000/svg">
<g clip-path="url(#clip0_4017_3055)">
<path d="M11.9999 11.0001C15.0212 11.0001 17.4705 9.97436 17.4705 8.70904C17.4705 7.44372 15.0212 6.41797 11.9999 6.41797C8.97857 6.41797 6.5293 7.44372 6.5293 8.70904C6.5293 9.97436 8.97857 11.0001 11.9999 11.0001Z" fill="currentColor" stroke="currentColor" stroke-width="0.0864"/>
<path d="M16.5937 19.6485C16.5867 19.8161 16.5557 19.9828 16.5032 20.143C16.5032 20.1608 16.4886 20.1858 16.4824 20.2029C16.4747 20.2235 16.4667 20.2441 16.4583 20.2645C16.4417 20.3052 16.4236 20.3455 16.4043 20.3853C16.3849 20.4248 16.3641 20.4639 16.3421 20.5026C16.3312 20.5218 16.32 20.541 16.3083 20.5599C16.3051 20.5656 16.3004 20.5761 16.2947 20.5857C16.2947 20.5857 16.2947 20.5862 16.2945 20.5864C16.2945 20.5866 16.2945 20.5871 16.294 20.5876C16.2878 20.6021 16.2441 20.6974 16.2164 20.7496C16.2159 20.7505 16.2154 20.7512 16.2149 20.7519C16.2142 20.7535 16.2129 20.7552 16.2117 20.7568C16.2102 20.7589 16.2087 20.7608 16.2075 20.762C16.2075 20.762 16.2073 20.7621 16.207 20.7622C16.2005 20.7695 16.1923 20.7763 16.1871 20.7816C16.1725 20.7969 16.1576 20.8121 16.1425 20.8271C16.1125 20.857 16.082 20.8863 16.0508 20.9151C15.9886 20.9727 15.9239 21.0279 15.8572 21.0808C15.7239 21.1867 15.5823 21.2834 15.4348 21.3711C15.3404 21.4273 15.2435 21.4798 15.1446 21.5287C14.7839 21.7071 14.3997 21.8408 14.0076 21.9424C13.6739 22.029 13.3343 22.0941 12.9915 22.1374C11.7023 22.3004 10.3653 22.1458 9.16879 21.664C9.09765 21.6355 9.027 21.6055 8.95661 21.5737C8.40955 21.3271 7.89719 20.9823 7.6213 20.4782C7.49613 20.2497 7.42598 19.9955 7.41433 19.7384C7.394 19.2887 7.59329 19.4865 7.87984 19.6413C8.32031 19.8791 8.78681 20.0519 9.27116 20.1933C9.66925 20.3094 10.0773 20.3726 10.4848 20.4384C10.7589 20.4829 11.0395 20.4923 11.3171 20.5166C11.679 20.5485 12.0419 20.5389 12.4046 20.54C12.5815 20.5405 12.756 20.5147 12.9313 20.4977C13.1018 20.481 13.2734 20.4789 13.4429 20.4492C13.748 20.3958 14.0547 20.3509 14.3603 20.3003C14.747 20.2364 15.1027 20.0805 15.4693 19.9587C15.6673 19.8929 15.8545 19.7909 16.0377 19.6867C16.1638 19.615 16.2868 19.5336 16.4137 19.4643C16.6241 19.3495 16.6033 19.4249 16.5937 19.6485Z" fill="currentColor" stroke="currentColor" stroke-width="0.0864"/>
<path d="M18.4008 12.4451C18.3995 13.456 18.3661 14.4667 18.3876 15.4776C18.3953 15.844 18.405 16.208 18.3435 16.5714C18.204 17.3971 17.8512 18.2748 17.2016 18.8632C16.9735 19.0694 16.7333 19.2808 16.4988 19.478C16.2668 19.673 15.9262 19.8127 15.6454 19.9364C15.0108 20.2154 14.3297 20.395 13.6386 20.4945C11.8291 20.7544 9.82156 20.6057 8.15682 19.8497C7.93721 19.75 7.72155 19.6395 7.5297 19.4979C7.42633 19.4215 7.33065 19.3366 7.23522 19.2516C6.94397 18.9933 6.65048 18.7325 6.41302 18.4277C6.16713 18.1119 6.02262 17.7535 5.88975 17.385C5.84762 17.2688 5.80622 17.1525 5.77077 17.0342C5.58784 16.4246 5.62403 15.8047 5.62304 15.1784C5.62155 14.5119 5.62106 13.8451 5.62031 13.1786C5.61932 12.2021 5.53901 11.2185 5.67138 10.2465C5.6808 10.1772 5.69096 10.1081 5.70286 10.0393C5.8553 9.13958 6.52679 8.11532 7.30488 7.57592C7.44393 7.47923 7.58349 7.38324 7.71883 7.2821C7.77138 7.243 7.84896 7.23598 7.87871 7.16926C7.92283 7.16036 7.96571 7.15006 7.98083 7.10183C8.01281 7.10019 8.04454 7.09832 8.07651 7.09668C8.03363 7.18658 7.932 7.20484 7.85838 7.25728C7.64471 7.40923 7.45484 7.582 7.3019 7.79271C7.12988 8.02964 7.06196 8.29583 7.12095 8.56459C7.17177 8.7952 7.29422 9.00567 7.48607 9.1829C7.75948 9.43574 8.06387 9.63404 8.40544 9.7923C8.57127 9.86933 8.74082 9.93699 8.91384 9.99177C9.23335 10.0929 9.54022 10.2214 9.87212 10.2858C10.5074 10.409 11.1901 10.4443 11.8373 10.4659C12.2644 10.4804 12.6897 10.4396 13.1153 10.4012C13.5278 10.3643 13.9368 10.3043 14.3364 10.2072C15.288 9.97562 17.2226 9.36832 16.8379 8.09753C16.8052 7.9889 16.7779 7.86669 16.6706 7.80114C16.6567 7.79271 16.6416 7.78475 16.6332 7.77141C16.6277 7.76251 16.626 7.75221 16.6243 7.74214C16.6185 7.71077 16.6131 7.67916 16.6074 7.64756C16.599 7.5998 16.6233 7.56351 16.6795 7.57873C16.7276 7.5916 16.7618 7.63047 16.7948 7.66582C16.9098 7.78873 17.0521 7.87676 17.1792 7.98632C17.2948 8.08606 17.3974 8.19867 17.4881 8.319C17.6715 8.56249 17.8071 8.835 17.9246 9.11149C17.991 9.26812 18.0518 9.42685 18.1125 9.58558C18.2644 9.98217 18.3386 10.3984 18.3743 10.821C18.4194 11.3609 18.4013 11.9115 18.4008 12.4451Z" fill="currentColor" stroke="currentColor" stroke-width="0.0864"/>
<path d="M9.05439 7.00488H10.5399V9.30368C10.5399 9.69091 10.207 10.0053 9.79702 10.0053C9.38703 10.0053 9.05414 9.69091 9.05414 9.30368V7.00488H9.05439Z" fill="currentColor" stroke="currentColor" stroke-width="0.0864"/>
<path d="M14.8616 6.13379H16.3472V8.43258C16.3472 8.81981 16.0143 9.13423 15.6043 9.13423C15.1943 9.13423 14.8614 8.81981 14.8614 8.43258V6.13379H14.8616Z" fill="currentColor" stroke="currentColor" stroke-width="0.0864"/>
<path d="M10.5859 3.84375H12.0714V6.14254C12.0714 6.52977 11.7385 6.84419 11.3285 6.84419C10.9185 6.84419 10.5856 6.52977 10.5856 6.14254V3.84375H10.5859Z" fill="currentColor" stroke="currentColor" stroke-width="0.0864"/>
<path d="M12.9959 5.21357C12.9595 5.53431 12.4813 5.6495 12.1943 5.65184C11.8842 5.66495 11.3443 5.52987 11.3331 5.19531L11.324 8.2489C11.3237 8.36619 11.4055 8.48349 11.5696 8.57292C11.9335 8.76653 12.545 8.75928 12.8655 8.48957C12.9255 8.43643 12.9733 8.36736 12.9847 8.2894C12.9865 8.27746 12.9875 8.26552 12.9877 8.25335L12.9969 5.19976C12.9969 5.20444 12.9964 5.20889 12.9961 5.21357H12.9959Z" fill="currentColor" stroke="currentColor" stroke-width="0.0864"/>
<path d="M12.9959 5.19989C12.9967 4.94866 12.625 4.74402 12.1657 4.74281C11.7064 4.7416 11.3334 4.94428 11.3327 5.1955C11.332 5.44673 11.7037 5.65137 12.163 5.65258C12.6223 5.6538 12.9952 5.45112 12.9959 5.19989Z" fill="currentColor" stroke="currentColor" stroke-width="0.0864"/>
<path d="M8.66215 4.43375C8.80518 4.3991 8.92912 4.32255 9.06322 4.26706C9.2521 4.18535 9.44742 4.11769 9.64647 4.06104C10.4771 3.82879 11.3652 3.77963 12.2212 3.90043C12.9675 4.01258 13.7238 4.24927 14.2988 4.7278C14.6189 4.99587 14.8699 5.37654 14.8739 5.78882L14.8556 4.65944C14.8536 4.47753 14.8003 4.2879 14.7135 4.12285C14.3323 3.41979 13.4585 3.04497 12.6822 2.86095C11.8355 2.6664 10.9419 2.65938 10.0884 2.82232C9.76148 2.886 9.44073 2.97637 9.13411 3.10046C9.00943 3.14868 8.89218 3.21096 8.76998 3.2634C8.66488 3.30507 8.55235 3.32942 8.43907 3.34066C8.12079 3.37788 7.51598 3.27417 7.48846 2.90333L7.50681 4.03271C7.5073 4.05799 7.51152 4.08351 7.5197 4.1088C7.5549 4.21602 7.6481 4.29562 7.74898 4.3497C8.02487 4.49018 8.36247 4.50844 8.66265 4.43375H8.66215Z" fill="currentColor" stroke="currentColor" stroke-width="0.0864"/>
<path d="M16.4464 6.24799C16.4856 6.11384 16.5074 5.97524 16.5121 5.83594C16.5126 5.81136 16.5129 5.78678 16.5129 5.76219L16.4945 4.63281C16.5084 5.34617 16.031 5.9736 15.4609 6.4018C14.4823 7.13295 13.2243 7.47172 11.9978 7.58784C11.3875 7.64309 10.7711 7.64005 10.162 7.5752C9.93871 7.55155 9.71636 7.51948 9.49625 7.47851C9.3272 7.44877 9.15418 7.41365 9.01215 7.3179C8.91275 7.25305 8.82698 7.15098 8.82574 7.03321C8.83566 7.08168 8.82327 8.26116 8.86739 8.26725C8.98067 8.49855 9.27118 8.56645 9.51459 8.60812C9.68067 8.63902 9.84774 8.66478 10.0158 8.68561C10.7604 8.77856 11.5177 8.77903 12.263 8.6917C13.3465 8.56083 14.4332 8.25133 15.3263 7.64239C15.8297 7.29402 16.2784 6.82696 16.4469 6.24822L16.4464 6.24799Z" fill="currentColor" stroke="currentColor" stroke-width="0.0864"/>
<path d="M16.4127 4.15118C16.9174 5.72866 15.0053 7.26353 12.1604 7.5721C11.1801 7.67839 10.2151 7.62735 9.34902 7.45082C9.08157 7.39628 8.88773 7.26751 8.83741 7.11159C8.72537 6.76533 9.3406 6.47479 9.93451 6.5963C10.5078 6.71359 11.1444 6.75081 11.7928 6.68854C13.7689 6.49867 15.131 5.44514 14.8067 4.3551C14.804 4.3455 14.801 4.33613 14.7978 4.32653C14.4461 3.24 12.5662 2.53226 10.5986 2.74578C9.92286 2.81905 9.32473 2.9916 8.84484 3.2304C8.36719 3.46803 7.61191 3.32615 7.49987 2.98013C7.44955 2.82467 7.5487 2.66407 7.76312 2.55731C8.46039 2.21058 9.32895 1.96031 10.3098 1.85402C13.169 1.54382 15.9011 2.57253 16.4125 4.15141L16.4127 4.15118Z" fill="currentColor" stroke="currentColor" stroke-width="0.0864"/>
</g>
<defs>
<clipPath id="clip0_4017_3055">
<rect width="24" height="24" fill="currentColor"/>
</clipPath>
</defs>
</svg>
