<svg width="24" height="24" viewBox="0 0 24 24" fill="none" xmlns="http://www.w3.org/2000/svg">
<g clip-path="url(#clip0_3396_64457)">
<g clip-path="url(#clip1_3396_64457)">
<circle cx="12" cy="12" r="12" fill="white"/>
<path d="M7.59375 4.73567C9.47959 4.73252 9.47959 4.73252 10.2698 4.73185C10.8155 4.73139 11.3611 4.73085 11.9067 4.72978C12.3041 4.729 12.7015 4.72849 13.0989 4.72832C13.3093 4.72822 13.5196 4.72798 13.73 4.72741C13.9281 4.72688 14.1263 4.72672 14.3244 4.72683C14.397 4.72681 14.4696 4.72666 14.5422 4.72636C14.6416 4.72597 14.741 4.72606 14.8404 4.72628C14.8831 4.72593 14.8831 4.72593 14.9266 4.72559C15.3714 4.72814 15.7741 4.87026 16.1027 5.17747C16.3874 5.48599 16.5108 5.83565 16.507 6.24939C16.5071 6.28295 16.5071 6.3165 16.5071 6.35107C16.507 6.46138 16.5064 6.57168 16.5058 6.68199C16.5057 6.7587 16.5055 6.83542 16.5055 6.91214C16.5052 7.11362 16.5044 7.31509 16.5035 7.51656C16.5027 7.72233 16.5024 7.9281 16.502 8.13387C16.5012 8.53728 16.4998 8.94069 16.4982 9.3441C16.1115 9.3441 15.7249 9.3441 15.3265 9.3441C15.3262 9.24831 15.3258 9.15253 15.3254 9.05384C15.3241 8.73708 15.3219 8.42034 15.3194 8.10359C15.3178 7.91158 15.3166 7.71957 15.316 7.52755C15.3154 7.34218 15.314 7.15683 15.3122 6.97147C15.3116 6.90081 15.3113 6.83015 15.3112 6.75949C15.3111 6.66037 15.3101 6.56131 15.3088 6.46221C15.309 6.43311 15.3092 6.404 15.3094 6.37402C15.3047 6.14029 15.2192 6.01435 15.0751 5.83896C14.9289 5.72201 14.7783 5.70234 14.5959 5.70316C14.5515 5.70317 14.5071 5.70318 14.4614 5.70319C14.4152 5.70359 14.369 5.70399 14.3213 5.7044C14.2785 5.70448 14.2358 5.70456 14.1917 5.70464C14.0321 5.70505 13.8726 5.70614 13.7131 5.70715C13.1778 5.70957 13.1778 5.70957 12.6318 5.71203C12.6318 6.91061 12.6318 8.10919 12.6318 9.3441C12.2451 9.3441 11.8585 9.3441 11.4601 9.3441C11.4601 8.14552 11.4601 6.94693 11.4601 5.71203C10.5838 5.71203 9.70738 5.71203 8.80444 5.71203C8.79155 6.91061 8.77866 8.10919 8.76538 9.3441C8.37875 9.3441 7.99211 9.3441 7.59375 9.3441C7.59375 7.82332 7.59375 6.30253 7.59375 4.73567Z" fill="#E21D3B"/>
<path d="M15.4049 11.9219C15.4353 12.6939 15.4579 13.4657 15.4717 14.2382C15.4783 14.597 15.4873 14.9555 15.5022 15.3142C15.6083 17.924 15.6083 17.924 15.0282 18.5965C14.7596 18.8774 14.4541 19.1121 14.1161 19.3032C14.1033 19.3032 14.0904 19.3032 14.0771 19.3032C14.0467 18.5312 14.0241 17.7593 14.0103 16.9869C14.0037 16.628 13.9947 16.2695 13.9799 15.9109C13.8737 13.3011 13.8737 13.3011 14.4539 12.6285C15.1297 11.9219 15.1297 11.9219 15.4049 11.9219Z" fill="#05A65B"/>
<path d="M12.7096 11.9219C12.74 12.6939 12.7626 13.4657 12.7764 14.2382C12.783 14.597 12.792 14.9555 12.8069 15.3142C12.913 17.924 12.913 17.924 12.3329 18.5965C12.0643 18.8774 11.7588 19.1121 11.4208 19.3032C11.4079 19.3032 11.3951 19.3032 11.3818 19.3032C11.3514 18.5312 11.3288 17.7593 11.315 16.9869C11.3084 16.628 11.2994 16.2695 11.2845 15.9109C11.1784 13.3011 11.1784 13.3011 11.7585 12.6285C12.4344 11.9219 12.4344 11.9219 12.7096 11.9219Z" fill="#05A65B"/>
<path d="M10.0153 11.9219C10.0456 12.6939 10.0682 13.4657 10.0821 14.2382C10.0887 14.597 10.0977 14.9555 10.1125 15.3142C10.2187 17.924 10.2187 17.924 9.63852 18.5965C9.36991 18.8774 9.06444 19.1121 8.72649 19.3032C8.71361 19.3032 8.70072 19.3032 8.68744 19.3032C8.65708 18.5312 8.63449 17.7593 8.62066 16.9869C8.61407 16.628 8.60508 16.2695 8.59021 15.9109C8.48406 13.3011 8.48406 13.3011 9.06421 12.6285C9.74003 11.9219 9.74003 11.9219 10.0153 11.9219Z" fill="#05A65B"/>
</g>
</g>
<defs>
<clipPath id="clip0_3396_64457">
<rect width="24" height="24" fill="white"/>
</clipPath>
<clipPath id="clip1_3396_64457">
<rect width="24" height="24" fill="white"/>
</clipPath>
</defs>
</svg>
