<svg width="16" height="16" viewBox="0 0 16 16" fill="none" xmlns="http://www.w3.org/2000/svg">
<g clip-path="url(#clip0_3396_54731)">
<mask id="mask0_3396_54731" style="mask-type:luminance" maskUnits="userSpaceOnUse" x="0" y="0" width="16" height="16">
<path d="M16 0H0V16H16V0Z" fill="white"/>
</mask>
<g mask="url(#mask0_3396_54731)">
<g filter="url(#filter0_d_3396_54731)">
<mask id="mask1_3396_54731" style="mask-type:luminance" maskUnits="userSpaceOnUse" x="0" y="0" width="16" height="16">
<path d="M15.75 8C15.75 3.71979 12.2802 0.25 8 0.25C3.71979 0.25 0.25 3.71979 0.25 8C0.25 12.2802 3.71979 15.75 8 15.75C12.2802 15.75 15.75 12.2802 15.75 8Z" fill="white"/>
</mask>
<g mask="url(#mask1_3396_54731)">
<path d="M15.75 8C15.75 3.71979 12.2802 0.25 8 0.25C3.71979 0.25 0.25 3.71979 0.25 8C0.25 12.2802 3.71979 15.75 8 15.75C12.2802 15.75 15.75 12.2802 15.75 8Z" fill="#CF381E"/>
<path d="M9.35725 8.6279C9.09438 9.49657 9.52578 10.3588 10.4459 10.0087C10.183 10.6343 9.73473 11.5678 9.73473 12.5337C9.73473 12.5337 9.72125 13.1884 10.2302 13.3505C10.2302 13.3505 10.9278 13.5158 10.7795 12.9162C10.7795 12.9162 10.584 12.3068 10.6851 11.7849C10.9143 10.6083 11.4569 9.45445 11.4569 9.45445C11.4569 9.45445 12.5354 7.31842 13.1387 6.32657C13.1387 6.32657 13.4117 5.81445 12.859 5.81445C12.6803 5.81445 12.5826 5.88575 12.4545 6.0154L10.9581 8.59875C10.729 8.99742 10.5099 9.12707 10.3414 9.12707C9.96053 9.12707 10.0381 8.5339 10.0954 8.3297C10.4492 6.99752 10.8638 6.3525 10.9076 6.2585C11.1705 5.69127 10.6279 5.6394 10.6279 5.6394C10.2875 5.55512 10.0313 6.0932 10.0313 6.0932L9.4314 7.2698C9.24268 7.6004 8.4136 8.86452 8.1507 9.14005C8.1507 9.14005 8.0732 9.24375 8.01253 9.19837C7.97883 9.1757 7.98558 9.05577 7.98558 9.05577C8.01928 8.2357 8.48438 6.69932 8.48438 6.69932C8.4911 6.6507 8.50123 6.60207 8.50123 6.55995C8.50123 6.31685 8.38325 6.16127 8.1305 6.13857C7.8676 6.11265 7.7328 6.23582 7.49688 6.51132C6.9745 7.1369 6.34763 8.0704 6.05105 8.5015C6.01735 8.55012 5.95668 8.5339 5.95668 8.46907C5.95668 8.2746 6.66105 6.19367 6.66105 6.19367C6.66105 6.19367 6.74533 5.90845 6.50265 5.8112C6.50265 5.8112 6.13868 5.5908 5.83198 6.02512L4.403 7.9051C4.29178 8.04772 4.23448 7.99585 4.23448 7.99585C4.20078 7.97965 4.221 7.87267 4.221 7.87267L4.4468 6.64747C4.63218 5.70425 4.2884 5.65562 4.07608 5.62645C3.86038 5.59727 3.60425 5.75285 3.60425 5.75285C3.156 5.97002 2.81898 6.82897 2.81898 6.82897C2.81898 6.82897 2.71788 7.13365 2.9302 7.25035C2.9302 7.25035 3.01108 7.31517 3.16948 7.3087C3.48293 7.29897 3.54695 6.72525 3.77275 6.72525C3.81658 6.72525 3.81658 6.77387 3.81658 6.7836L3.0785 9.76885C3.0785 9.76885 2.99423 10.0638 3.26385 10.2226C3.60763 10.4236 3.83005 10.0897 3.83005 10.0897L4.08958 9.68782C4.48388 9.02335 5.19838 8.07365 5.27253 8.07365C5.29948 8.07365 5.30623 8.08337 5.30623 8.10605L5.05345 9.85637C5.05345 9.85637 4.99953 10.1448 5.26578 10.2421C5.26578 10.2421 5.5253 10.3296 5.67695 10.2129C5.67695 10.2129 5.86233 10.093 6.04768 9.79802C6.18923 9.57112 6.91045 8.75757 7.3486 8.01205C7.3823 7.96345 7.40925 8.00232 7.39915 8.04447C7.3149 8.43342 7.24075 9.48362 7.23063 9.73645C7.2104 10.255 7.61485 10.3037 7.6317 10.3037C7.6317 10.3037 7.96535 10.3782 8.30575 9.99575L9.35725 8.63115V8.6279Z" fill="white"/>
</g>
</g>
</g>
</g>
<defs>
<filter id="filter0_d_3396_54731" x="-5.5625" y="-4.59375" width="27.125" height="27.125" filterUnits="userSpaceOnUse" color-interpolation-filters="sRGB">
<feFlood flood-opacity="0" result="BackgroundImageFix"/>
<feColorMatrix in="SourceAlpha" type="matrix" values="0 0 0 0 0 0 0 0 0 0 0 0 0 0 0 0 0 0 127 0" result="hardAlpha"/>
<feOffset dy="0.96875"/>
<feGaussianBlur stdDeviation="2.90625"/>
<feComposite in2="hardAlpha" operator="out"/>
<feColorMatrix type="matrix" values="0 0 0 0 0 0 0 0 0 0 0 0 0 0 0 0 0 0 0.08 0"/>
<feBlend mode="normal" in2="BackgroundImageFix" result="effect1_dropShadow_3396_54731"/>
<feBlend mode="normal" in="SourceGraphic" in2="effect1_dropShadow_3396_54731" result="shape"/>
</filter>
<clipPath id="clip0_3396_54731">
<rect width="16" height="16" fill="white"/>
</clipPath>
</defs>
</svg>
