<svg width="24" height="24" viewBox="0 0 24 24" fill="none" xmlns="http://www.w3.org/2000/svg">
<g clip-path="url(#clip0_3396_51264)">
<g filter="url(#filter0_d_3396_51264)">
<path d="M11.625 23.2498C18.0453 23.2498 23.25 18.0451 23.25 11.6249C23.25 5.20465 18.0453 0 11.625 0C5.2047 0 0 5.20465 0 11.6249C0 18.0451 5.2047 23.2498 11.625 23.2498Z" fill="currentColor"/>
<mask id="mask0_3396_51264" style="mask-type:luminance" maskUnits="userSpaceOnUse" x="2" y="3" width="19" height="17">
<path d="M20.249 3.74951H2.99902V19.4994H20.249V3.74951Z" fill="currentColor"/>
</mask>
<g mask="url(#mask0_3396_51264)">
<path fill-rule="evenodd" clip-rule="evenodd" d="M5.52688 12.9326C5.37073 13.3604 4.898 13.5815 4.46942 13.4256C4.04192 13.2701 3.82052 12.7939 3.977 12.3661L5.64249 7.7778C5.79935 7.34884 6.27208 7.12778 6.70029 7.28404C7.12708 7.43996 7.34777 7.91501 7.19165 8.34468L5.52688 12.9326Z" fill="currentColor"/>
<path fill-rule="evenodd" clip-rule="evenodd" d="M8.37229 14.1326C8.16732 14.6944 7.54793 14.9838 6.98877 14.7793C6.42739 14.5743 6.13887 13.9525 6.34276 13.3918L8.60284 7.16648C8.80636 6.60436 9.42574 6.3152 9.98674 6.5198C10.5463 6.72402 10.8359 7.34618 10.6313 7.90834L8.37229 14.1326Z" fill="currentColor"/>
<path fill-rule="evenodd" clip-rule="evenodd" d="M11.9526 15.597C11.6779 16.3498 10.8481 16.7385 10.0982 16.464C9.34673 16.1903 8.95864 15.3562 9.2322 14.6045L12.2021 6.42331C12.476 5.66904 13.3069 5.28035 14.0576 5.55485C14.8087 5.82935 15.1957 6.6612 14.9225 7.41585L11.9526 15.597Z" fill="currentColor"/>
<mask id="mask1_3396_51264" style="mask-type:luminance" maskUnits="userSpaceOnUse" x="3" y="4" width="82" height="15">
<path d="M84.1729 4.20459H3.92578V18.6905H84.1729V4.20459Z" fill="currentColor"/>
</mask>
<g mask="url(#mask1_3396_51264)">
<path fill-rule="evenodd" clip-rule="evenodd" d="M16.4477 17.4279C16.0855 18.4231 14.9872 18.9365 13.9943 18.5746C13.0011 18.2104 12.4886 17.1092 12.8505 16.1137L16.7151 5.46839C17.0773 4.47109 18.1749 3.95835 19.1692 4.32101C20.1617 4.68333 20.6734 5.78605 20.3124 6.78298L16.4477 17.4279Z" fill="currentColor"/>
</g>
</g>
</g>
</g>
<defs>
<filter id="filter0_d_3396_51264" x="-7.36246" y="-6.13539" width="37.9749" height="37.9749" filterUnits="userSpaceOnUse" color-interpolation-filters="sRGB">
<feFlood flood-opacity="0" result="BackgroundImageFix"/>
<feColorMatrix in="SourceAlpha" type="matrix" values="0 0 0 0 0 0 0 0 0 0 0 0 0 0 0 0 0 0 127 0" result="hardAlpha"/>
<feOffset dy="1.22707"/>
<feGaussianBlur stdDeviation="3.68123"/>
<feComposite in2="hardAlpha" operator="out"/>
<feColorMatrix type="matrix" values="0 0 0 0 0 0 0 0 0 0 0 0 0 0 0 0 0 0 0.08 0"/>
<feBlend mode="normal" in2="BackgroundImageFix" result="effect1_dropShadow_3396_51264"/>
<feBlend mode="normal" in="SourceGraphic" in2="effect1_dropShadow_3396_51264" result="shape"/>
</filter>
<clipPath id="clip0_3396_51264">
<rect width="24" height="23.2498" fill="currentColor"/>
</clipPath>
</defs>
</svg>
