<svg width="24" height="24" viewBox="0 0 24 24" fill="none" xmlns="http://www.w3.org/2000/svg">
<g clip-path="url(#clip0_3396_52442)">
<path d="M24 12C24 5.37258 18.6274 0 12 0C5.37258 0 0 5.37258 0 12C0 18.6274 5.37258 24 12 24C18.6274 24 24 18.6274 24 12Z" fill="white"/>
<path d="M19.339 6.8901C19.6522 6.87277 19.9655 6.83771 20.2797 6.8559C19.978 7.02791 19.6884 7.22002 19.3963 7.40737C18.4714 8.01165 17.5807 8.66846 16.7309 9.3744C15.7461 10.1779 14.824 11.0596 13.9904 12.0195C12.9536 13.1793 12.022 14.4374 11.2596 15.7946C11.1852 15.9443 11.0965 16.0864 11.026 16.2381C10.9221 16.4155 10.8507 16.6091 10.7568 16.7915C10.7097 16.9049 10.6584 17.0169 10.6227 17.1346C10.6212 16.8919 10.6636 16.6526 10.6783 16.4112C10.7222 16.1143 10.7408 15.8134 10.809 15.5205C10.8529 15.2334 10.9085 14.9482 10.9693 14.6644C11.0266 14.4779 11.0575 14.2842 11.1125 14.0971C11.1753 13.9087 11.2211 13.7152 11.2819 13.5264C11.4368 13.0618 11.6106 12.6032 11.82 12.1603C11.8968 12.0193 11.9528 11.8672 12.0365 11.7296C12.733 10.3936 13.7595 9.22384 15.0239 8.3991C15.4663 8.10206 15.9425 7.85977 16.4278 7.64104C16.711 7.52917 16.9918 7.41082 17.2854 7.32731C17.5009 7.24207 17.73 7.2012 17.9502 7.13111C18.2252 7.06684 18.5028 7.01209 18.7823 6.97057C18.9642 6.92145 19.154 6.92231 19.339 6.8901ZM4.8256 8.14189C5.257 8.14684 5.69298 8.15985 6.11486 8.25761C6.47422 8.31559 6.8212 8.42985 7.16197 8.55596C7.33244 8.63689 7.51267 8.69876 7.67515 8.79634C8.0185 8.98024 8.34517 9.19766 8.6392 9.45424C9.50069 10.1855 10.1158 11.1697 10.5299 12.2129C10.619 12.4325 10.6993 12.6558 10.764 12.884C10.8354 13.0774 10.8801 13.2791 10.9284 13.479C10.9825 13.7313 11.058 13.9813 11.0664 14.241C11.0355 14.1769 10.9965 14.1183 10.9535 14.0623C10.64 13.5783 10.2742 13.1311 9.90029 12.6928C9.66277 12.4264 9.42412 12.1603 9.17099 11.9087C9.03359 11.7508 8.88067 11.6076 8.74196 11.4507C8.01959 10.7089 7.24398 10.0195 6.42899 9.38092C5.90283 8.95706 5.36519 8.54816 4.8256 8.14189Z" fill="#96C61C"/>
<path d="M6.42952 9.38153C7.2445 10.0202 8.02012 10.7095 8.74248 11.4513C8.88115 11.6082 9.03412 11.7514 9.17152 11.9093C9.17065 13.6555 9.17152 15.4016 9.17107 17.148C8.25678 17.1489 7.34271 17.15 6.42843 17.1474C6.42993 14.5587 6.42757 11.9701 6.42952 9.38153ZM13.9909 12.0201C14.8245 11.0602 15.7466 10.1786 16.7314 9.375C16.7335 11.9658 16.7316 14.5568 16.7323 17.1478C15.819 17.1495 14.9056 17.1491 13.9922 17.148C13.9911 15.4386 13.9939 13.7295 13.9909 12.0201Z" fill="#014FA1"/>
</g>
<defs>
<clipPath id="clip0_3396_52442">
<rect width="23.25" height="23.25" fill="white" transform="scale(1.03226)"/>
</clipPath>
</defs>
</svg>
