<svg width="32" height="32" viewBox="0 0 32 32" fill="none" xmlns="http://www.w3.org/2000/svg">
<g clip-path="url(#clip0_4017_2934)">
<g clip-path="url(#clip1_4017_2934)">
<g clip-path="url(#clip2_4017_2934)">
<path d="M27.0988 9.91739C23.7509 6.16714 19.2298 4.39215 16.325 5.57884C13.4202 6.76493 12.2501 10.1716 12.2501 10.1716C11.8686 11.642 11.9723 14.2091 14.2111 17.0162C16.45 19.8232 19.3383 21.2297 21.2483 21.8968C23.1584 22.5639 26.1082 22.0402 27.9591 19.9009C29.8348 17.7337 30.746 14.0036 27.0982 9.91739H27.0988ZM26.5727 18.428C26.5727 18.428 25.5241 18.8404 23.5571 18.5009C21.5908 18.1614 18.1652 15.4172 16.4903 13.1842C14.8155 10.9512 15.1549 8.98486 15.1549 8.98486C17.5366 8.60451 21.1239 9.7355 23.8634 12.8157C26.6024 15.8953 26.5727 18.428 26.5727 18.428Z" fill="currentColor" stroke="currentColor" stroke-width="0.16"/>
<path d="M27.099 9.91691C24.9348 7.49199 22.28 5.89473 19.8882 5.38818L16.8169 8.9518C19.0232 9.17338 21.7065 10.3897 23.8636 12.8152C24.2078 13.2021 24.5082 13.5807 24.7707 13.9468L27.4361 10.3091C27.3283 10.1788 27.2163 10.0478 27.099 9.91691Z" fill="currentColor" stroke="currentColor" stroke-width="0.16"/>
<path d="M15.1217 8.23457C13.3603 8.53494 12.5771 9.50538 12.2305 10.2513C11.8727 11.7336 12.0119 14.2587 14.2111 17.0159C15.864 19.0884 17.8701 20.3965 19.5758 21.2082C20.7549 21.7682 21.4363 21.9928 22.7039 22.162C23.2851 22.1869 23.9025 22.1276 24.5198 21.9772C25.4731 21.5933 26.7042 20.8533 27.1189 19.5114C27.8299 17.2132 25.5229 13.7888 23.6104 11.9226C21.698 10.0564 18.1077 7.72565 15.1217 8.23457ZM26.4678 18.4387C26.4678 18.4387 25.524 18.8407 23.5571 18.5012C21.5907 18.1618 18.1651 15.4175 16.4903 13.1845C14.8154 10.9516 15.1549 8.98521 15.1549 8.98521C17.5366 8.60485 21.1239 9.73585 23.8634 12.816C26.6023 15.8956 26.4678 18.4387 26.4678 18.4387Z" fill="currentColor" stroke="currentColor" stroke-width="0.16"/>
<path d="M24.632 21.1766C26.4532 20.5368 26.4621 18.4321 26.4621 18.4321C26.4621 18.4321 25.5242 18.8394 23.5573 18.4999C21.5909 18.1604 18.1653 15.4162 16.4905 13.1832C14.8156 10.9502 15.1551 8.98389 15.1551 8.98389C14.0075 9.22798 12.6342 9.89923 12.6745 12.1636C12.7142 14.4286 15.3056 18.2973 18.0854 19.7897C20.8658 21.2821 22.8102 21.8159 24.632 21.1754V21.1766Z" fill="currentColor" stroke="currentColor" stroke-width="0.16"/>
<path d="M19.9193 16.0749C19.9193 16.0594 19.9187 16.0435 19.9181 16.028C19.9175 15.9931 19.9163 15.9581 19.9146 15.9238C19.9134 15.8936 19.9116 15.8633 19.9098 15.8337C19.9063 15.7745 19.9021 15.7158 19.8974 15.6584C19.8944 15.6299 19.8921 15.6009 19.8891 15.573C19.8832 15.5162 19.8767 15.4605 19.8695 15.406C19.8618 15.3515 19.8541 15.2976 19.8458 15.2448C19.8381 15.1956 19.8298 15.1477 19.8204 15.1009C19.8192 15.0973 19.8186 15.0932 19.818 15.0896C19.8032 15.0138 19.7872 14.9397 19.77 14.8686C19.77 14.868 19.7694 14.8674 19.7688 14.8668C19.7635 14.8408 19.757 14.8135 19.7505 14.7886C19.7505 14.7886 18.5804 11.3826 15.6756 10.1959C15.5097 10.1284 15.339 10.0703 15.1631 10.0223C14.6316 9.87481 14.0564 9.81438 13.4521 9.8357C13.1067 9.84696 12.7524 9.88547 12.391 9.95005C12.3714 9.9536 12.3513 9.95716 12.3317 9.96071C12.157 9.9933 11.9804 10.0318 11.8027 10.0768C11.7511 10.0899 11.699 10.1035 11.6469 10.1171C11.5929 10.1313 11.539 10.1462 11.4851 10.1621C11.4454 10.1728 11.4051 10.1847 11.3654 10.1965C11.3026 10.2155 11.2392 10.235 11.1759 10.2552C11.1231 10.2718 11.0704 10.2895 11.0177 10.3073C10.9649 10.3251 10.9122 10.3428 10.8595 10.3618C10.552 10.4702 10.2421 10.5958 9.93229 10.738C9.89378 10.7558 9.85527 10.7742 9.81617 10.7919C9.73856 10.8287 9.66094 10.866 9.58333 10.9039C9.54482 10.9229 9.50572 10.9424 9.46721 10.962C9.42811 10.9821 9.3896 11.0017 9.3505 11.0218C9.27289 11.0621 9.19527 11.1036 9.11766 11.1456C9.07915 11.1664 9.04064 11.1877 9.00154 11.2096C8.96303 11.2309 8.92452 11.2529 8.88542 11.2748C8.69169 11.385 8.49855 11.5011 8.30659 11.6231C8.26808 11.6474 8.22957 11.6723 8.19106 11.6972C8.15255 11.7221 8.11464 11.747 8.07613 11.7724C8.03762 11.7979 7.99911 11.8234 7.96119 11.8489C7.88476 11.9004 7.80834 11.9531 7.73191 12.0065C7.71295 12.0195 7.69399 12.0331 7.67563 12.0462C7.63771 12.0728 7.60038 12.0995 7.56306 12.1267C7.53403 12.1475 7.505 12.1688 7.47597 12.1895C7.44753 12.2109 7.4185 12.2316 7.39006 12.2529C7.30475 12.3163 7.21944 12.3809 7.13471 12.4467C7.09265 12.4792 7.05059 12.5124 7.00852 12.5456C6.96409 12.5806 6.91965 12.6161 6.87581 12.6516C6.82841 12.6896 6.78161 12.7281 6.73421 12.7672C6.69097 12.8027 6.64772 12.8389 6.60506 12.875C6.51264 12.9532 6.42021 13.0332 6.32838 13.1144C6.28336 13.154 6.23892 13.1937 6.19449 13.234C6.18501 13.2423 6.17553 13.2506 6.16605 13.2595C6.09318 13.3253 6.0209 13.3922 5.94921 13.4592C5.94092 13.4675 5.93203 13.4752 5.92374 13.4829C5.88167 13.5237 5.83901 13.564 5.79695 13.6043C5.70986 13.6884 5.62277 13.7743 5.53627 13.8608C5.32062 14.0777 5.10911 14.3022 4.90175 14.5345C4.86442 14.5765 4.8271 14.6186 4.79096 14.6601C4.74771 14.7098 4.70505 14.759 4.66358 14.8088C4.62981 14.8479 4.59723 14.8876 4.56464 14.9267C1.31325 18.8588 2.22563 22.4206 4.04091 24.5179C4.99417 25.6193 6.23774 26.2917 7.48071 26.5945C7.48189 26.5945 7.48308 26.5951 7.48426 26.5957C7.51685 26.6034 7.54943 26.6111 7.58202 26.6188C7.64719 26.6336 7.71236 26.6472 7.77753 26.6603C7.81011 26.6668 7.8427 26.6727 7.87528 26.6786C7.91142 26.6851 7.94756 26.6911 7.9837 26.6976C8.04591 26.7077 8.10812 26.7165 8.17033 26.7254C8.20291 26.7296 8.2355 26.7337 8.26808 26.7379C8.30067 26.742 8.33325 26.7456 8.36524 26.7491C8.39783 26.7521 8.43041 26.7556 8.463 26.7586C8.70176 26.7811 8.93756 26.7888 9.16802 26.7835C9.21127 26.7823 9.25393 26.7811 9.29658 26.7793L9.30073 26.7782C9.82209 26.7562 10.3144 26.6668 10.7517 26.5139C11.2517 26.3391 11.8193 26.114 12.4247 25.8255C12.4692 25.8042 12.5142 25.7828 12.5592 25.7609C12.6754 25.704 12.7933 25.6454 12.9117 25.5838C12.9668 25.5553 13.0219 25.5269 13.077 25.4973C13.2163 25.4232 13.3567 25.3462 13.4989 25.2656C13.5552 25.2336 13.6114 25.201 13.6677 25.1679C13.6754 25.1631 13.6837 25.1584 13.692 25.1536C13.7661 25.1098 13.8401 25.0654 13.9148 25.0203C13.9533 24.9972 13.9918 24.9729 14.0309 24.9487C14.0694 24.9244 14.1085 24.9001 14.147 24.8758C14.2246 24.8266 14.3022 24.7762 14.3804 24.7253C14.4581 24.6743 14.5363 24.6222 14.6139 24.5683C14.653 24.5422 14.6915 24.5156 14.7306 24.4877C14.7691 24.4611 14.807 24.4338 14.8455 24.4071C14.8473 24.406 14.8497 24.4042 14.852 24.4024C14.9273 24.3485 15.0019 24.294 15.0772 24.2389C15.2348 24.1222 15.3924 24.0013 15.5494 23.8745C15.6631 23.7833 15.7769 23.6891 15.89 23.5925C15.9694 23.525 16.0494 23.4557 16.1282 23.3846C16.1566 23.3597 16.1845 23.3342 16.2123 23.3093C16.2319 23.2921 16.252 23.2738 16.2716 23.2554C16.3006 23.2288 16.329 23.2027 16.3575 23.176C16.396 23.1411 16.4339 23.1055 16.4718 23.0688C16.5097 23.0326 16.5471 22.9965 16.585 22.9598C16.6211 22.9248 16.6567 22.8899 16.6928 22.8543C16.7793 22.769 16.8652 22.6813 16.9499 22.5925C16.9772 22.5634 17.005 22.5344 17.0329 22.5048C17.1028 22.4313 17.1709 22.3573 17.2384 22.2814C17.2479 22.2713 17.2568 22.2619 17.2651 22.2518C17.293 22.2216 17.3202 22.1908 17.3469 22.16C17.3901 22.1114 17.4328 22.0622 17.4748 22.013C17.5205 21.9597 17.5661 21.9064 17.6105 21.8519C17.6703 21.7802 17.7302 21.7073 17.7888 21.6333C18.0543 21.3003 18.2895 20.9715 18.498 20.6468C18.4435 20.6154 18.3884 20.584 18.3327 20.5514C18.325 20.5467 18.3167 20.542 18.3084 20.5372C18.2344 20.494 18.1603 20.4495 18.0857 20.4039C18.0578 20.3867 18.0294 20.3696 18.0009 20.3518C17.9903 20.3459 17.9802 20.3393 17.9695 20.3322C17.931 20.3079 17.8919 20.2837 17.8534 20.2594C17.7758 20.2102 17.6982 20.1598 17.6206 20.1089C17.5815 20.0834 17.5424 20.0573 17.5039 20.0313C17.4648 20.0052 17.4257 19.9785 17.3866 19.9519C17.2989 19.892 17.2112 19.831 17.1229 19.7676C17.0696 19.7297 17.0163 19.6912 16.963 19.6515C16.9322 19.629 16.9013 19.6065 16.8711 19.5834C16.8143 19.5413 16.758 19.4987 16.7017 19.4548C16.6958 19.4507 16.6898 19.4459 16.6845 19.4418C16.6324 19.4015 16.5808 19.3612 16.5293 19.3203C16.4896 19.2895 16.4511 19.2581 16.412 19.2267C16.3865 19.206 16.3604 19.1847 16.335 19.1639C16.2964 19.1325 16.2573 19.0999 16.2188 19.0673C16.1934 19.0466 16.1679 19.0253 16.143 19.0034C16.1003 18.9672 16.0577 18.9311 16.015 18.8938C15.967 18.8523 15.9196 18.8108 15.8722 18.7682C15.8586 18.7569 15.8456 18.745 15.8326 18.7326C15.784 18.6894 15.736 18.6455 15.688 18.6011C15.5683 18.4915 15.4498 18.3783 15.3319 18.2616C15.2976 18.2278 15.2638 18.1941 15.23 18.1597C14.4669 19.0987 13.4355 20.0988 12.3596 20.9561C12.3501 20.9638 12.3406 20.9709 12.3311 20.9786C12.2535 21.0402 12.1753 21.1012 12.0971 21.1617C11.9656 21.2624 11.8335 21.3613 11.702 21.4573C11.6581 21.4893 11.6137 21.5213 11.5698 21.5527C11.526 21.5841 11.4822 21.6149 11.4383 21.6457C11.3945 21.6765 11.3506 21.7073 11.3068 21.7369C11.2191 21.7974 11.1314 21.856 11.0443 21.9135C11.0011 21.9419 10.9572 21.9704 10.914 21.9982C10.8707 22.0267 10.8275 22.0539 10.7842 22.0806C10.7285 22.1155 10.6723 22.1505 10.6166 22.1843C10.5437 22.2287 10.4714 22.2719 10.3991 22.3134C10.2718 22.3869 10.1462 22.4568 10.0223 22.522C9.98087 22.5439 9.9394 22.5652 9.89852 22.5859C9.85764 22.6073 9.81676 22.6274 9.77647 22.647C9.65502 22.7068 9.53594 22.7613 9.41863 22.8117C9.34043 22.8454 9.264 22.8762 9.18817 22.9047C9.15084 22.9189 9.11292 22.9331 9.0756 22.9462C9.04124 22.9586 9.00687 22.9704 8.9731 22.9811C8.96896 22.9829 8.9654 22.9841 8.96185 22.9853C8.93163 22.9953 8.90142 23.0048 8.87179 23.0137C8.79477 23.0374 8.71894 23.0581 8.64548 23.0759C8.62415 23.0812 8.60282 23.086 8.58208 23.0901C8.53528 23.1008 8.48907 23.1103 8.44345 23.118C8.40731 23.1245 8.37176 23.1304 8.33681 23.1357C8.30541 23.1411 8.2746 23.1458 8.24438 23.1505C8.20232 23.1571 8.16085 23.163 8.11938 23.1683C6.36156 23.4124 5.42785 23.0451 5.42785 23.0451C5.42785 23.0451 5.40534 21.1095 7.2301 18.5644C7.32845 18.4269 7.43213 18.2883 7.54173 18.1479C7.57787 18.1011 7.6146 18.0542 7.65311 18.0069C7.69044 17.96 7.72835 17.9127 7.76805 17.8647C7.80656 17.8173 7.84625 17.7699 7.88713 17.7219C7.92683 17.6739 7.9683 17.6265 8.00977 17.5779V17.5773C8.05124 17.5293 8.09331 17.4813 8.13656 17.4328C8.27578 17.2764 8.41679 17.1253 8.56016 16.9789C8.59038 16.9481 8.62059 16.9173 8.6514 16.8865C8.68636 16.8516 8.72131 16.8166 8.75626 16.7822C8.79181 16.7479 8.82677 16.7135 8.86231 16.6798C9.09574 16.4558 9.33391 16.2449 9.57504 16.047C9.60466 16.0221 9.63428 15.9984 9.66391 15.9747C9.68997 15.9534 9.71604 15.9327 9.74152 15.9125C9.77351 15.887 9.8055 15.8622 9.8375 15.8373C9.87423 15.8082 9.91155 15.7798 9.94829 15.752C9.98502 15.7235 10.0223 15.6957 10.0591 15.6684C10.2078 15.5582 10.3571 15.4522 10.507 15.3515C10.539 15.3295 10.571 15.3082 10.6029 15.2875C10.693 15.2276 10.7836 15.1696 10.8743 15.1133C10.9021 15.0955 10.9306 15.0783 10.959 15.0612C11.0058 15.0321 11.0532 15.0037 11.1 14.9758C11.164 14.9379 11.228 14.9012 11.292 14.8651C11.3702 14.82 11.449 14.7768 11.5278 14.7353C11.5657 14.7146 11.6036 14.6944 11.6415 14.6749C11.6794 14.6547 11.7174 14.6352 11.7553 14.6162C11.792 14.5973 11.8281 14.5789 11.8649 14.5611C11.8672 14.5594 11.8702 14.5582 11.8726 14.5576C11.9093 14.5386 11.9466 14.5208 11.9834 14.5037C12.0598 14.4663 12.1356 14.4314 12.2115 14.397C12.3258 14.3455 12.4396 14.2963 12.5527 14.2495C12.5652 14.2442 12.5776 14.2394 12.5895 14.2347C12.7287 14.1778 12.8673 14.1245 13.0059 14.0753C13.0433 14.0611 13.0806 14.0481 13.1179 14.0356C13.1943 14.009 13.2708 13.9835 13.3472 13.9592C13.4189 13.9361 13.4906 13.9136 13.5617 13.8928C13.6375 13.8703 13.7127 13.849 13.788 13.8294C13.9337 13.7898 14.0789 13.7542 14.2223 13.7234C14.227 13.7222 14.2317 13.721 14.2365 13.7204C14.3058 13.705 14.3745 13.6908 14.4432 13.6778C14.4746 13.6719 14.506 13.6659 14.5374 13.66C14.5997 13.6487 14.6625 13.6381 14.7241 13.6286C14.7555 13.6233 14.7863 13.6191 14.8171 13.6144C14.8793 13.6049 14.9403 13.5966 15.0013 13.5895C15.0624 13.5818 15.1234 13.5753 15.1832 13.5694C15.7668 13.5101 16.3172 13.5214 16.8148 13.5984C16.8249 13.5996 16.8344 13.6008 16.8445 13.6025C16.8445 13.6025 16.8468 13.6156 16.8498 13.6405C17.5169 14.4468 18.3754 15.2916 19.2836 16.0488C19.4021 16.1471 19.5212 16.2443 19.6409 16.3397C19.7303 16.4108 19.8204 16.4813 19.9104 16.5506H19.911C19.914 16.4913 19.9163 16.4327 19.9175 16.3746C19.9205 16.2727 19.9205 16.1726 19.9187 16.0749H19.9193Z" fill="currentColor" stroke="currentColor" stroke-width="0.16"/>
<path d="M15.1841 13.569C14.943 13.5933 14.6959 13.6294 14.4441 13.6774C14.3754 13.691 14.3067 13.7053 14.2373 13.7201C14.2326 13.7207 14.2279 13.7218 14.2231 13.723C14.0797 13.7544 13.9346 13.79 13.7888 13.8291C13.7136 13.8486 13.6384 13.87 13.5625 13.8925C13.4914 13.9138 13.4197 13.9357 13.3481 13.9588C13.2716 13.9831 13.1952 14.0086 13.1188 14.0353C13.0815 14.0477 13.0441 14.0607 13.0068 14.0749C12.8682 14.1247 12.7295 14.1774 12.5903 14.2343C12.5785 14.2391 12.566 14.2438 12.5536 14.2491C12.4404 14.2959 12.3267 14.3451 12.2123 14.3967C12.1365 14.431 12.0607 14.4666 11.9842 14.5033C11.9475 14.5211 11.9108 14.5388 11.8734 14.5572C11.8711 14.5578 11.8681 14.559 11.8657 14.5608C11.8296 14.5791 11.7929 14.5975 11.7561 14.6159C11.7182 14.6348 11.6803 14.6544 11.6424 14.6745C11.6045 14.6941 11.5665 14.7142 11.5286 14.7349C11.4498 14.7764 11.371 14.8197 11.2928 14.8647C11.2288 14.9008 11.1649 14.9382 11.1009 14.9755C11.0541 15.0033 11.0067 15.0318 10.9599 15.0608C10.9314 15.078 10.9036 15.0952 10.8752 15.1129C10.7845 15.1692 10.6939 15.2273 10.6038 15.2871C10.5718 15.3078 10.5398 15.3298 10.5078 15.3511C10.3579 15.4518 10.2086 15.5579 10.0599 15.6681C10.0232 15.6953 9.98588 15.7232 9.94914 15.7516C9.91241 15.7794 9.87509 15.8079 9.83836 15.8369C9.80636 15.8618 9.77437 15.8867 9.74238 15.9122C9.7169 15.9323 9.69083 15.953 9.66477 15.9744C9.63514 15.9981 9.60552 16.0223 9.5759 16.0466C9.33477 16.2445 9.0966 16.4554 8.86317 16.6794C8.82763 16.7132 8.79267 16.7475 8.75712 16.7819C8.72217 16.8162 8.68721 16.8512 8.65226 16.8861C8.62145 16.9164 8.59124 16.9472 8.56102 16.9786C8.41765 17.1249 8.27664 17.276 8.13742 17.4324C8.05151 17.529 7.96797 17.6255 7.8874 17.7215C7.84652 17.7695 7.80683 17.8169 7.76832 17.8643C7.72921 17.9117 7.6907 17.9591 7.65338 18.0065C7.61546 18.0539 7.57814 18.1007 7.542 18.1475C7.43239 18.2879 7.32871 18.4265 7.23037 18.564L6.94599 18.1759L4.56491 14.9263C4.59749 14.8872 4.63008 14.8475 4.66385 14.8084C4.70532 14.7586 4.74798 14.7095 4.79123 14.6597C4.82737 14.6182 4.86469 14.5762 4.90202 14.5341C5.10938 14.3019 5.32088 14.0773 5.53654 13.8605C5.62303 13.774 5.71013 13.6881 5.79722 13.6039C5.83928 13.5637 5.88194 13.5234 5.924 13.4825C5.9323 13.4748 5.94118 13.4671 5.94948 13.4588C6.02116 13.3918 6.09344 13.3249 6.16632 13.2591C6.1758 13.2502 6.18527 13.242 6.19475 13.2337C6.23919 13.1934 6.28362 13.1537 6.32865 13.114C6.42048 13.0328 6.5129 12.9528 6.60533 12.8746C6.64798 12.8385 6.69123 12.8024 6.73448 12.7668C6.78188 12.7277 6.82868 12.6892 6.87608 12.6513C6.91992 12.6157 6.96435 12.5802 7.00879 12.5452C7.05085 12.512 7.09292 12.4789 7.13498 12.4463C7.2197 12.3805 7.30502 12.3159 7.39033 12.2526C7.41877 12.2312 7.4478 12.2105 7.47624 12.1892C7.50527 12.1684 7.5343 12.1471 7.56333 12.1264C7.60065 12.0991 7.63798 12.0724 7.67589 12.0458C7.69426 12.0328 7.71322 12.0191 7.73218 12.0061C7.8086 11.9528 7.88503 11.9 7.96146 11.8485C7.99937 11.823 8.03788 11.7975 8.07639 11.7721C8.1149 11.7466 8.15282 11.7217 8.19133 11.6968C8.22984 11.6719 8.26835 11.6471 8.30686 11.6228C8.49881 11.5007 8.69195 11.3846 8.88569 11.2744C9.04091 11.1861 9.19554 11.102 9.35076 11.0214C9.38987 11.0013 9.42838 10.9817 9.46748 10.9616C9.50599 10.942 9.54509 10.9225 9.5836 10.9035C9.66121 10.8656 9.73882 10.8283 9.81643 10.7916C9.85554 10.7738 9.89405 10.7554 9.93256 10.7376C10.243 10.5966 10.5523 10.471 10.8597 10.3614C11.2828 10.2115 11.7016 10.0925 12.1128 10.0054L12.252 10.1671L12.2651 10.1819L12.8468 10.8567L14.6372 12.9345L15.1841 13.569Z" fill="currentColor" stroke="currentColor" stroke-width="0.16"/>
<path d="M19.9193 16.0747C19.9193 16.0593 19.9187 16.0433 19.9181 16.0279C19.9175 15.9929 19.9163 15.958 19.9145 15.9236C19.9134 15.8934 19.9116 15.8632 19.9098 15.8336C19.9062 15.7743 19.9021 15.7157 19.8974 15.6582C19.8944 15.6298 19.892 15.6007 19.8891 15.5729C19.8831 15.516 19.8766 15.4603 19.8695 15.4058C19.8618 15.3513 19.8541 15.2974 19.8458 15.2447C19.8375 15.1955 19.8292 15.1475 19.8203 15.1007C19.8192 15.0972 19.8186 15.093 19.818 15.0895C19.8032 15.0136 19.7872 14.9396 19.77 14.8685L19.7688 14.8667C19.4222 14.1208 18.639 13.1515 16.8788 12.8518C16.6584 12.8144 16.4351 12.7919 16.2087 12.7842C15.6939 12.7658 15.166 12.8215 14.637 12.9347C14.0617 13.0573 13.484 13.2487 12.9194 13.488C12.7488 13.5597 12.5799 13.6362 12.4123 13.7173C10.8316 14.4739 9.38424 15.5693 8.3901 16.5398C7.91554 17.0031 7.4167 17.5618 6.94569 18.1761C5.51847 20.0365 4.34718 22.4009 4.88158 24.1285C5.2963 25.4705 6.52742 26.2104 7.48068 26.5943L7.48424 26.5955C7.51682 26.6032 7.54941 26.6109 7.58199 26.6186C7.64716 26.6335 7.71233 26.6471 7.7775 26.6601C7.81009 26.6666 7.84267 26.6726 7.87526 26.6785C7.9114 26.685 7.94754 26.6909 7.98368 26.6974C8.04588 26.7075 8.10809 26.7164 8.1703 26.7253C8.20288 26.7294 8.23547 26.7336 8.26805 26.7377C8.30064 26.7419 8.33322 26.7454 8.36522 26.749C8.3978 26.7519 8.43039 26.7555 8.46297 26.7585C8.70114 26.7798 8.93694 26.7881 9.16799 26.7833C9.21124 26.7822 9.2539 26.781 9.29656 26.7792L9.3007 26.778C10.5577 26.6147 11.3475 26.3739 12.4247 25.8253C12.4692 25.804 12.5142 25.7827 12.5592 25.7608C12.6753 25.7039 12.7932 25.6452 12.9117 25.5836C12.9668 25.5552 13.0219 25.5267 13.077 25.4971C13.2162 25.4231 13.3567 25.346 13.4988 25.2655C13.5551 25.2335 13.6114 25.2009 13.6677 25.1677C13.6754 25.163 13.6837 25.1582 13.692 25.1535C13.766 25.1097 13.8401 25.0652 13.9147 25.0202C13.9533 24.9971 13.9918 24.9728 14.0309 24.9485C14.0694 24.9242 14.1085 24.8999 14.147 24.8756C14.2246 24.8265 14.3022 24.7761 14.3804 24.7252C14.458 24.6742 14.5362 24.6221 14.6138 24.5682C14.6529 24.5421 14.6915 24.5154 14.7306 24.4876C14.7691 24.4609 14.807 24.4337 14.8455 24.407C14.8455 24.407 14.8496 24.404 14.852 24.4023C14.9273 24.3483 15.0019 24.2938 15.0771 24.2387C15.2347 24.122 15.3923 24.0012 15.5493 23.8744C15.6631 23.7831 15.7768 23.6895 15.89 23.5924C15.9694 23.5248 16.0494 23.4555 16.1282 23.3844C16.1566 23.3595 16.1844 23.3341 16.2123 23.3092C16.2318 23.292 16.252 23.2736 16.2715 23.2553C16.3006 23.2286 16.329 23.2025 16.3574 23.1759C16.396 23.1409 16.4339 23.1054 16.4718 23.0686C16.5097 23.0325 16.547 22.9964 16.5849 22.9596C16.6211 22.9247 16.6566 22.8897 16.6928 22.8542C16.7793 22.7689 16.8652 22.6812 16.9499 22.5923C16.9771 22.5633 17.005 22.5343 17.0328 22.5046C17.1028 22.4312 17.1709 22.3571 17.2384 22.2813C17.2479 22.2712 17.2568 22.2617 17.2651 22.2517C17.2929 22.2214 17.3202 22.1906 17.3468 22.1598C17.3901 22.1112 17.4327 22.0621 17.4748 22.0129C17.5204 21.9596 17.5661 21.9062 17.6105 21.8517C17.6703 21.7801 17.7302 21.7072 17.7888 21.6331C18.0542 21.3002 18.2894 20.9714 18.498 20.6467C18.4435 20.6153 18.3884 20.5839 18.3327 20.5513C18.325 20.5466 18.3167 20.5418 18.3084 20.5371C18.2343 20.4938 18.1603 20.4494 18.0856 20.4038C18.0578 20.3866 18.0294 20.3694 18.0009 20.3516C17.9902 20.3457 17.9802 20.3392 17.9695 20.3321C17.931 20.3078 17.8919 20.2835 17.8534 20.2592C17.7758 20.21 17.6982 20.1597 17.6206 20.1087C17.5815 20.0833 17.5424 20.0572 17.5038 20.0311C17.4647 20.0051 17.4256 19.9784 17.3865 19.9517C17.2989 19.8919 17.2112 19.8309 17.1229 19.7675C17.0696 19.7296 17.0163 19.6911 16.9629 19.6514C16.9321 19.6288 16.9013 19.6063 16.8711 19.5832C16.8142 19.5412 16.7579 19.4985 16.7017 19.4547C16.6957 19.4505 16.6898 19.4458 16.6845 19.4416C16.6323 19.4013 16.5808 19.3611 16.5293 19.3202C16.4896 19.2894 16.451 19.258 16.4119 19.2266C16.3865 19.2058 16.3604 19.1845 16.3349 19.1638C16.2964 19.1324 16.2573 19.0998 16.2188 19.0672C16.1933 19.0465 16.1679 19.0251 16.143 19.0032C16.1003 18.9671 16.0577 18.9309 16.015 18.8936C15.967 18.8521 15.9196 18.8107 15.8722 18.768C15.8586 18.7568 15.8456 18.7449 15.8325 18.7325C15.7839 18.6892 15.736 18.6454 15.688 18.6009C15.5683 18.4913 15.4498 18.3782 15.3319 18.2615C15.2975 18.2277 15.2638 18.1939 15.23 18.1596C14.4669 19.0986 13.4355 20.0987 12.3596 20.956C12.3501 20.9637 12.3406 20.9708 12.3311 20.9785C12.2535 21.0401 12.1753 21.1011 12.0971 21.1615C11.9656 21.2622 11.8335 21.3612 11.7019 21.4572C11.6581 21.4892 11.6137 21.5212 11.5698 21.5526C11.526 21.584 11.4821 21.6148 11.4383 21.6456C11.3944 21.6764 11.3506 21.7072 11.3068 21.7368C11.2191 21.7972 11.1314 21.8559 11.0443 21.9134C11.0011 21.9418 10.9572 21.9702 10.914 21.9981C10.8707 22.0265 10.8275 22.0538 10.7842 22.0804C10.7285 22.1154 10.6722 22.1503 10.6165 22.1841C10.5437 22.2285 10.4714 22.2718 10.3991 22.3133C10.2717 22.3867 10.1461 22.4566 10.0223 22.5218C9.98084 22.5437 9.93937 22.5651 9.89849 22.5858C9.85761 22.6071 9.81673 22.6273 9.77645 22.6468C9.65499 22.7067 9.53591 22.7612 9.4186 22.8115C9.3404 22.8453 9.26397 22.8761 9.18814 22.9045C9.15081 22.9188 9.1129 22.933 9.07557 22.946C9.04121 22.9584 9.00685 22.9703 8.97308 22.981C8.96893 22.9827 8.96537 22.9839 8.96182 22.9851C8.9316 22.9952 8.90139 23.0047 8.87177 23.0135C8.79475 23.0372 8.71891 23.058 8.64545 23.0758C8.62412 23.0811 8.60279 23.0858 8.58206 23.09C8.53525 23.1006 8.48904 23.1101 8.44342 23.1178C8.40728 23.1243 8.37173 23.1303 8.33678 23.1356C8.30538 23.1409 8.27457 23.1457 8.24436 23.1504C8.20229 23.1569 8.16082 23.1628 8.11935 23.1682C6.36153 23.4123 5.53993 23.0695 5.53993 23.0695C5.53993 23.0695 5.40531 21.1094 7.23007 18.5642C7.32842 18.4268 7.4321 18.2881 7.5417 18.1477C7.57784 18.1009 7.61458 18.0541 7.65309 18.0067C7.69041 17.9599 7.72833 17.9125 7.76802 17.8645C7.80653 17.8171 7.84623 17.7697 7.88711 17.7217C7.9268 17.6737 7.96827 17.6263 8.00974 17.5778C8.05122 17.5298 8.09328 17.4812 8.13653 17.4326C8.27576 17.2762 8.41676 17.1251 8.56013 16.9788C8.59035 16.948 8.62056 16.9172 8.65137 16.8864C8.68633 16.8514 8.72128 16.8165 8.75624 16.7821C8.79178 16.7477 8.82674 16.7134 8.86229 16.6796C9.09571 16.4557 9.33388 16.2447 9.57501 16.0469C9.60463 16.022 9.63426 15.9983 9.66388 15.9746C9.68995 15.9533 9.71601 15.9325 9.74149 15.9124C9.77348 15.8869 9.80548 15.862 9.83747 15.8371C9.8742 15.8081 9.91153 15.7797 9.94826 15.7518C9.98499 15.7234 10.0223 15.6955 10.059 15.6683C10.2078 15.5581 10.3571 15.452 10.5069 15.3513C10.5389 15.3294 10.5709 15.3081 10.6029 15.2873C10.693 15.2275 10.7836 15.1694 10.8743 15.1132C10.9021 15.0954 10.9305 15.0782 10.959 15.061C11.0058 15.032 11.0532 15.0035 11.1 14.9757C11.164 14.9378 11.228 14.9011 11.2919 14.8649C11.3702 14.8199 11.4489 14.7766 11.5277 14.7352C11.5657 14.7144 11.6036 14.6943 11.6415 14.6747C11.6794 14.6546 11.7173 14.635 11.7552 14.6161C11.792 14.5971 11.8281 14.5788 11.8649 14.561C11.8672 14.5592 11.8702 14.558 11.8726 14.5574C11.9093 14.5385 11.9466 14.5207 11.9833 14.5035C12.0598 14.4662 12.1356 14.4312 12.2114 14.3969C12.3258 14.3453 12.4395 14.2962 12.5527 14.2494C12.5651 14.244 12.5776 14.2393 12.5894 14.2345C12.7287 14.1777 12.8673 14.1243 13.0059 14.0752C13.0432 14.061 13.0806 14.0479 13.1179 14.0355C13.1943 14.0088 13.2707 13.9833 13.3472 13.959C13.4189 13.9359 13.4905 13.9134 13.5616 13.8927C13.6375 13.8702 13.7127 13.8489 13.788 13.8293C13.9337 13.7896 14.0789 13.7541 14.2222 13.7233C14.227 13.7221 14.2317 13.7209 14.2365 13.7203C14.3058 13.7049 14.3745 13.6907 14.4432 13.6776C14.4746 13.6717 14.506 13.6658 14.5374 13.6599C14.5996 13.6486 14.6624 13.6379 14.724 13.6285C14.7554 13.6231 14.7862 13.619 14.8171 13.6142C14.8793 13.6048 14.9403 13.5965 15.0013 13.5894C15.0623 13.5817 15.1234 13.5751 15.1832 13.5692C15.7668 13.51 16.3172 13.5212 16.8148 13.5982C16.8249 13.5994 16.8344 13.6006 16.8444 13.6024C16.8444 13.6024 16.8468 13.6154 16.8498 13.6403C17.5169 14.4466 18.3753 15.2915 19.2836 16.0486C19.4021 16.147 19.5212 16.2442 19.6408 16.3395C19.7303 16.4106 19.8203 16.4811 19.9104 16.5505C19.9134 16.4912 19.9157 16.4326 19.9175 16.3745C19.9205 16.2726 19.9211 16.1725 19.9193 16.0747Z" fill="currentColor" stroke="currentColor" stroke-width="0.16"/>
<path d="M16.8505 13.6405C16.8475 13.6156 16.8451 13.6025 16.8451 13.6025C17.8588 13.8176 19.0467 14.3656 19.2843 16.0488C18.376 15.2916 17.5176 14.4468 16.8505 13.6405Z" fill="currentColor" stroke="currentColor" stroke-width="0.16"/>
<path d="M17.9696 20.3322C17.9803 20.3393 17.9904 20.3458 18.001 20.3518C17.1384 21.7274 15.9346 23.0705 14.6424 23.9604C14.5826 24.0025 14.5221 24.0428 14.4617 24.0824C14.4392 24.0973 14.4167 24.1121 14.3936 24.1263C14.2348 24.2282 14.0748 24.3224 13.9149 24.4083C13.7271 24.509 13.5428 24.6056 13.3627 24.6974C13.3331 24.7128 13.3029 24.7276 13.2732 24.743C13.2519 24.7537 13.2312 24.7644 13.2099 24.7744C13.1773 24.791 13.1447 24.8076 13.1127 24.823C12.8052 24.9759 12.5084 25.1145 12.221 25.2395C12.1985 25.2496 12.176 25.2591 12.1541 25.2685C11.9847 25.3414 11.8188 25.4095 11.6558 25.4723C11.6079 25.4907 11.5605 25.5091 11.5131 25.5269C11.3164 25.6003 11.1238 25.6661 10.9354 25.7247C10.8999 25.736 10.8643 25.7467 10.8294 25.7567C10.8033 25.7644 10.7766 25.7721 10.7506 25.7798C10.715 25.7905 10.6801 25.8 10.6451 25.8095C10.5746 25.829 10.5047 25.8474 10.436 25.864C10.4046 25.8723 10.3732 25.88 10.3418 25.8871C10.3204 25.8918 10.2997 25.8965 10.279 25.9019C10.1842 25.9226 10.0912 25.9422 9.99874 25.9588C9.97801 25.9629 9.95727 25.9665 9.93713 25.9694C9.01408 26.1317 8.17931 26.0796 7.36824 25.7946C5.54703 25.1542 5.54941 23.0759 5.54941 23.0759C5.54941 23.0759 6.36107 23.4124 8.11888 23.1683C8.16035 23.163 8.20183 23.157 8.24389 23.1505C8.2747 23.1458 8.30551 23.141 8.33631 23.1357C8.37186 23.1298 8.40741 23.1239 8.44296 23.1179C8.48857 23.1102 8.53479 23.1007 8.58159 23.0901C8.60233 23.0859 8.62365 23.0812 8.64498 23.0759C8.71845 23.0581 8.79428 23.0374 8.8713 23.0137C8.90092 23.0048 8.93114 22.9953 8.96135 22.9852C8.96491 22.984 8.96846 22.9828 8.97261 22.9811C9.00638 22.9704 9.04074 22.9586 9.07511 22.9461C9.11243 22.9331 9.14976 22.9195 9.18767 22.9046C9.26351 22.8762 9.33993 22.8454 9.41814 22.8116C9.53544 22.7613 9.65453 22.7068 9.77598 22.6469C9.81627 22.6274 9.85715 22.6072 9.89803 22.5859C9.9389 22.5658 9.98038 22.5444 10.0218 22.5219C10.1457 22.4567 10.2713 22.3868 10.3986 22.3134C10.4709 22.2719 10.5432 22.2287 10.6161 22.1842C10.6718 22.1504 10.7281 22.1155 10.7837 22.0805C10.827 22.0539 10.8702 22.0266 10.9135 21.9982C10.9567 21.9703 11.0006 21.9425 11.0438 21.9135C11.1309 21.856 11.2186 21.7973 11.3063 21.7369C11.3501 21.7073 11.394 21.6765 11.4378 21.6457C11.4817 21.6155 11.5255 21.5841 11.5693 21.5527C11.6132 21.5213 11.657 21.4899 11.7015 21.4573C11.833 21.3613 11.9651 21.2624 12.0966 21.1616C12.1748 21.1012 12.253 21.0402 12.3306 20.9786C12.3401 20.9709 12.3496 20.9638 12.3591 20.9561C13.435 20.0988 14.4665 19.0987 15.2295 18.1597C15.2633 18.194 15.2971 18.2278 15.3314 18.2616C15.4493 18.3783 15.5678 18.4914 15.6875 18.601C15.7355 18.6455 15.7835 18.6893 15.8321 18.7326C15.8451 18.745 15.8581 18.7569 15.8718 18.7681C15.9192 18.8108 15.9665 18.8522 16.0145 18.8937C16.0572 18.931 16.0999 18.9672 16.1425 19.0033C16.1674 19.0252 16.1929 19.0466 16.2183 19.0673C16.2569 19.0999 16.296 19.1325 16.3345 19.1639C16.3599 19.1846 16.386 19.2059 16.4115 19.2267C16.4506 19.2581 16.4891 19.2895 16.5288 19.3203C16.5803 19.3612 16.6319 19.4015 16.684 19.4417C16.6893 19.4459 16.6953 19.4506 16.7012 19.4548C16.7575 19.4986 16.8138 19.5413 16.8706 19.5833C16.9008 19.6064 16.9317 19.629 16.9625 19.6515C17.0158 19.6912 17.0691 19.7297 17.1224 19.7676C17.2107 19.831 17.2984 19.892 17.3861 19.9518C17.4252 19.9785 17.4643 20.0052 17.5034 20.0312C17.5419 20.0573 17.581 20.0834 17.6201 20.1088C17.6977 20.1598 17.7753 20.2102 17.8529 20.2593C17.8914 20.2836 17.9311 20.3079 17.9696 20.3322Z" fill="currentColor" stroke="currentColor" stroke-width="0.16"/>
<path d="M9.87574 14.9372C10.9366 14.2488 11.3831 13.0535 10.873 12.2674C10.3628 11.4812 9.08931 11.402 8.02845 12.0904C6.96759 12.7789 6.52113 13.9742 7.03124 14.7603C7.54135 15.5464 8.81488 15.6256 9.87574 14.9372Z" fill="currentColor" stroke="currentColor" stroke-width="0.16"/>
<ellipse cx="23.0739" cy="8.64508" rx="1.0883" ry="1.31966" transform="rotate(-49.6685 23.0739 8.64508)" fill="currentColor" stroke="currentColor" stroke-width="0.16"/>
<ellipse cx="8.92056" cy="13.4038" rx="1.70574" ry="1.19824" transform="rotate(-33.7303 8.92056 13.4038)" fill="currentColor" stroke="currentColor" stroke-width="0.16"/>
</g>
<circle cx="26.1645" cy="25.6" r="5.6" fill="currentColor"/>
<path d="M26.8417 22.6004C26.8013 22.6006 26.761 22.6025 26.7209 22.6062C26.7063 22.6074 26.6918 22.6088 26.6773 22.6105C26.6601 22.6124 26.643 22.6145 26.6261 22.617L26.6021 22.621C25.8745 22.7413 25.3195 23.373 25.3195 24.1347C25.3195 24.6794 25.6035 25.1574 26.0312 25.4298C26.0369 25.4344 26.0435 25.4389 26.0503 25.443L26.0515 25.4434L25.9509 25.4753C25.7978 25.5276 25.6497 25.5931 25.5082 25.6711L25.4034 25.7319C25.3927 25.7384 25.3822 25.7452 25.3716 25.7518C25.2905 25.8027 25.2121 25.8577 25.1366 25.9166L25.1258 25.925C24.4791 26.4358 24.0639 27.2267 24.0639 28.1149C24.0639 28.2349 24.0716 28.3547 24.0869 28.4737H29.6416V28.1162C29.6416 26.8536 28.803 25.7872 27.6524 25.443C28.0924 25.1737 28.3859 24.6886 28.3859 24.1347C28.3859 23.3228 27.7553 22.6585 26.9572 22.6041C26.947 22.6034 26.9368 22.6025 26.9266 22.602C26.9021 22.6008 26.8775 22.6001 26.8527 22.6001L26.8417 22.6004ZM26.8512 25.6746C28.1997 25.6746 29.2928 26.7677 29.2928 28.1162C29.2928 28.1191 29.2926 28.122 29.2926 28.1249H24.41C24.41 28.122 24.4097 28.1191 24.4097 28.1162C24.4097 26.7677 25.5028 25.6746 26.8512 25.6746ZM26.8513 22.9488C27.5062 22.9488 28.0372 23.4797 28.0372 24.1347C28.0372 24.7897 27.5062 25.3206 26.8513 25.3206C26.1963 25.3206 25.6654 24.7897 25.6654 24.1347C25.6654 23.4797 26.1963 22.9488 26.8513 22.9488Z" fill="currentColor" stroke="currentColor" stroke-width="0.04"/>
<path d="M24.9052 23.1294C24.2118 23.1294 23.6496 23.6916 23.6496 24.385C23.6496 24.816 23.8667 25.1961 24.1975 25.4222C23.3122 25.7155 22.6727 26.5485 22.6689 27.5318H22.6687V27.8806H23.7238C23.7324 27.7635 23.7476 27.6471 23.7692 27.5318H23.0002C23.005 26.486 23.854 25.6396 24.9009 25.6396L24.8774 25.6399L24.9045 25.6406C24.9095 25.6406 24.9146 25.6405 24.9196 25.6403L24.9347 25.6398C25.0877 25.5215 25.2512 25.4175 25.4233 25.3292C25.3858 25.2854 25.3503 25.2399 25.3169 25.1928C25.1895 25.2581 25.0484 25.292 24.9053 25.2919C24.4045 25.2919 23.9984 24.8859 23.9984 24.385C23.9984 23.8842 24.4045 23.4782 24.9053 23.4782C24.9615 23.4784 25.0176 23.4838 25.0729 23.4943C25.1115 23.3818 25.1608 23.2731 25.2201 23.1699C25.1704 23.157 25.12 23.1472 25.0691 23.1404L25.0616 23.1395C25.0397 23.1367 25.0175 23.1346 24.9952 23.133C24.9907 23.1326 24.9861 23.1322 24.9815 23.1319C24.9563 23.1303 24.9309 23.1294 24.9052 23.1294Z" fill="currentColor" stroke="currentColor" stroke-width="0.04"/>
</g>
</g>
<defs>
<clipPath id="clip0_4017_2934">
<rect width="32" height="32" fill="currentColor"/>
</clipPath>
<clipPath id="clip1_4017_2934">
<rect width="32" height="32" fill="currentColor"/>
</clipPath>
<clipPath id="clip2_4017_2934">
<rect width="32" height="32" fill="currentColor"/>
</clipPath>
</defs>
</svg>
