<svg width="24" height="24" viewBox="0 0 24 24" fill="none" xmlns="http://www.w3.org/2000/svg">
<g clip-path="url(#clip0_4017_2790)">
<g clip-path="url(#clip1_4017_2790)">
<g clip-path="url(#clip2_4017_2790)">
<path d="M20.3241 7.43975C17.8132 4.62707 14.4224 3.29582 12.2438 4.18584C10.0652 5.07541 9.18759 7.63037 9.18759 7.63037C8.90144 8.73323 8.9792 10.6586 10.6584 12.7639C12.3375 14.8691 14.5037 15.924 15.9363 16.4243C17.3688 16.9247 19.5812 16.5319 20.9693 14.9274C22.3761 13.3019 23.0595 10.5044 20.3237 7.43975H20.3241ZM19.9296 13.8227C19.9296 13.8227 19.1431 14.132 17.6679 13.8774C16.1931 13.6228 13.6239 11.5646 12.3677 9.88985C11.1116 8.21513 11.3662 6.74036 11.3662 6.74036C13.1525 6.45509 15.8429 7.30334 17.8976 9.61347C19.9518 11.9232 19.9296 13.8227 19.9296 13.8227Z" fill="currentColor" stroke="currentColor" stroke-width="0.12"/>
<path d="M20.3243 7.43952C18.7011 5.62083 16.71 4.42288 14.9162 4.04297L12.6127 6.71568C14.2675 6.88187 16.2799 7.7941 17.8977 9.61324C18.1559 9.90339 18.3812 10.1873 18.578 10.4619L20.5771 7.73367C20.4962 7.63592 20.4123 7.53772 20.3243 7.43952Z" fill="currentColor" stroke="currentColor" stroke-width="0.12"/>
<path d="M11.3413 6.17727C10.0203 6.40255 9.43285 7.13038 9.17291 7.68981C8.90453 8.80155 9.00895 10.6953 10.6583 12.7633C11.8981 14.3176 13.4026 15.2987 14.6819 15.9075C15.5662 16.3275 16.0772 16.4959 17.028 16.6228C17.4639 16.6415 17.9269 16.5971 18.3899 16.4842C19.1048 16.1963 20.0282 15.6413 20.3392 14.6349C20.8724 12.9113 19.1422 10.343 17.7078 8.94329C16.2735 7.54362 13.5808 5.79558 11.3413 6.17727ZM19.8509 13.8303C19.8509 13.8303 19.143 14.1319 17.6678 13.8773C16.1931 13.6227 13.6239 11.5645 12.3677 9.88974C11.1116 8.21502 11.3662 6.74025 11.3662 6.74025C13.1524 6.45498 15.8429 7.30323 17.8976 9.61336C19.9517 11.923 19.8509 13.8303 19.8509 13.8303Z" fill="currentColor" stroke="currentColor" stroke-width="0.12"/>
<path d="M18.474 15.8848C19.84 15.4049 19.8466 13.8264 19.8466 13.8264C19.8466 13.8264 19.1432 14.1319 17.668 13.8772C16.1932 13.6226 13.6241 11.5645 12.3679 9.88973C11.1117 8.215 11.3664 6.74023 11.3664 6.74023C10.5057 6.9233 9.47568 7.42674 9.5059 9.12502C9.53567 10.8237 11.4792 13.7253 13.5641 14.8446C15.6494 15.9639 17.1077 16.3642 18.474 15.8839V15.8848Z" fill="currentColor" stroke="currentColor" stroke-width="0.12"/>
<path d="M14.9395 12.0575C14.9395 12.0459 14.939 12.0339 14.9386 12.0224C14.9381 11.9962 14.9372 11.9699 14.9359 11.9442C14.935 11.9215 14.9337 11.8989 14.9324 11.8766C14.9297 11.8322 14.9266 11.7882 14.923 11.7451C14.9208 11.7238 14.919 11.702 14.9168 11.6811C14.9124 11.6385 14.9075 11.5967 14.9021 11.5558C14.8964 11.5149 14.8906 11.4745 14.8844 11.435C14.8786 11.3981 14.8724 11.3621 14.8653 11.327C14.8644 11.3243 14.8639 11.3212 14.8635 11.3185C14.8524 11.2617 14.8404 11.2061 14.8275 11.1528C14.8275 11.1524 14.8271 11.1519 14.8266 11.1515C14.8226 11.1319 14.8177 11.1115 14.8128 11.0928C14.8128 11.0928 13.9353 8.5383 11.7567 7.64828C11.6322 7.59763 11.5043 7.55408 11.3723 7.51809C10.9737 7.40745 10.5423 7.36212 10.089 7.37812C9.82999 7.38656 9.56427 7.41545 9.29322 7.46388C9.27856 7.46654 9.26345 7.46921 9.24879 7.47188C9.11771 7.49632 8.98529 7.5252 8.85199 7.55897C8.81333 7.56874 8.77423 7.57896 8.73513 7.58918C8.69469 7.59985 8.65426 7.61096 8.61382 7.62295C8.58405 7.63095 8.55384 7.63984 8.52407 7.64872C8.47697 7.66294 8.42942 7.67761 8.38188 7.69271C8.34233 7.70516 8.30278 7.71849 8.26324 7.73182C8.22369 7.74515 8.18415 7.75848 8.1446 7.7727C7.91399 7.85401 7.6816 7.94821 7.4492 8.05485C7.42032 8.06818 7.39144 8.08196 7.36211 8.09529C7.30391 8.12284 7.2457 8.15083 7.18749 8.17927C7.15861 8.19349 7.12928 8.20815 7.1004 8.22281C7.07107 8.23792 7.04219 8.25258 7.01286 8.26769C6.95465 8.29791 6.89644 8.32901 6.83823 8.36056C6.80935 8.37611 6.78047 8.39211 6.75114 8.40855C6.72226 8.42455 6.69338 8.44099 6.66405 8.45743C6.51875 8.54007 6.3739 8.62717 6.22993 8.7187C6.20105 8.73692 6.17217 8.75558 6.14328 8.77424C6.1144 8.7929 6.08596 8.81157 6.05708 8.83067C6.0282 8.84978 5.99932 8.86889 5.97088 8.88799C5.91356 8.92665 5.85624 8.9662 5.79892 9.00619C5.7847 9.01596 5.77048 9.02618 5.75671 9.03596C5.72827 9.05595 5.70028 9.07595 5.67228 9.09639C5.65051 9.11194 5.62874 9.12794 5.60696 9.14349C5.58564 9.15949 5.56386 9.17504 5.54253 9.19103C5.47855 9.23858 5.41456 9.28701 5.35102 9.33633C5.31948 9.36077 5.28793 9.38566 5.25638 9.41054C5.22305 9.43676 5.18973 9.46342 5.15685 9.49008C5.1213 9.51851 5.0862 9.5474 5.05065 9.57672C5.01821 9.60338 4.98577 9.63049 4.95378 9.65759C4.88446 9.71625 4.81515 9.77623 4.74627 9.83711C4.7125 9.86688 4.67918 9.89665 4.64585 9.92686C4.63874 9.93309 4.63163 9.93931 4.62452 9.94597C4.56987 9.99529 4.51566 10.0455 4.4619 10.0957C4.45567 10.1019 4.44901 10.1077 4.44279 10.1135C4.41124 10.1441 4.37925 10.1744 4.3477 10.2046C4.28238 10.2677 4.21706 10.3321 4.15219 10.397C3.99045 10.5596 3.83182 10.728 3.6763 10.9022C3.64831 10.9337 3.62031 10.9653 3.59321 10.9964C3.56077 11.0337 3.52878 11.0706 3.49767 11.1079C3.47235 11.1373 3.44791 11.167 3.42347 11.1963C0.984923 14.1454 1.66921 16.8168 3.03067 18.3898C3.74562 19.2158 4.67829 19.7202 5.61052 19.9472C5.61141 19.9472 5.6123 19.9477 5.61318 19.9481C5.63762 19.9539 5.66206 19.9597 5.6865 19.9654C5.73538 19.9765 5.78426 19.9868 5.83313 19.9965C5.85757 20.0014 5.88201 20.0059 5.90645 20.0103C5.93356 20.0152 5.96066 20.0196 5.98776 20.0245C6.03442 20.0321 6.08108 20.0387 6.12773 20.0454C6.15217 20.0485 6.17661 20.0516 6.20105 20.0547C6.22549 20.0579 6.24993 20.0605 6.27392 20.0632C6.29836 20.0654 6.3228 20.0681 6.34724 20.0703C6.52631 20.0872 6.70316 20.093 6.876 20.089C6.90844 20.0881 6.94043 20.0872 6.97243 20.0858L6.97554 20.085C7.36656 20.0685 7.73581 20.0014 8.06373 19.8868C8.43875 19.7557 8.86443 19.5869 9.31855 19.3705C9.35188 19.3545 9.38564 19.3385 9.41941 19.322C9.50651 19.2794 9.59493 19.2354 9.6838 19.1892C9.72512 19.1678 9.76645 19.1465 9.80777 19.1243C9.91219 19.0687 10.0175 19.011 10.1241 18.9506C10.1664 18.9266 10.2086 18.9021 10.2508 18.8772C10.2566 18.8737 10.2628 18.8701 10.269 18.8666C10.3245 18.8337 10.3801 18.8004 10.4361 18.7666C10.465 18.7493 10.4938 18.731 10.5232 18.7128C10.552 18.6946 10.5814 18.6764 10.6103 18.6582C10.6685 18.6213 10.7267 18.5835 10.7853 18.5453C10.8435 18.5071 10.9022 18.468 10.9604 18.4276C10.9897 18.408 11.0186 18.388 11.0479 18.3671C11.0768 18.3471 11.1052 18.3267 11.1341 18.3067C11.1355 18.3058 11.1372 18.3045 11.139 18.3031C11.1954 18.2627 11.2514 18.2218 11.3079 18.1805C11.4261 18.093 11.5443 18.0023 11.662 17.9072C11.7473 17.8388 11.8326 17.7682 11.9175 17.6957C11.977 17.6451 12.037 17.5931 12.0961 17.5398C12.1175 17.5211 12.1383 17.502 12.1592 17.4833C12.1739 17.4705 12.189 17.4567 12.2037 17.4429C12.2254 17.4229 12.2468 17.4034 12.2681 17.3834C12.297 17.3571 12.3254 17.3305 12.3538 17.3029C12.3823 17.2758 12.4103 17.2487 12.4387 17.2212C12.4658 17.195 12.4925 17.1687 12.5196 17.1421C12.5845 17.0781 12.6489 17.0123 12.7124 16.9457C12.7329 16.9239 12.7538 16.9021 12.7746 16.8799C12.8271 16.8248 12.8782 16.7693 12.9288 16.7124C12.9359 16.7049 12.9426 16.6977 12.9488 16.6902C12.9697 16.6675 12.9901 16.6444 13.0101 16.6213C13.0426 16.5849 13.0746 16.548 13.1061 16.5111C13.1403 16.4711 13.1745 16.4311 13.2079 16.3903C13.2527 16.3365 13.2976 16.2818 13.3416 16.2263C13.5407 15.9766 13.7171 15.73 13.8735 15.4865C13.8326 15.4629 13.7913 15.4394 13.7495 15.4149C13.7437 15.4114 13.7375 15.4078 13.7313 15.4043C13.6758 15.3718 13.6202 15.3385 13.5642 15.3043C13.5434 15.2914 13.522 15.2785 13.5007 15.2652C13.4927 15.2607 13.4851 15.2559 13.4771 15.2505C13.4483 15.2323 13.4189 15.2141 13.3901 15.1959C13.3318 15.159 13.2736 15.1212 13.2154 15.083C13.1861 15.0639 13.1568 15.0443 13.1279 15.0248C13.0986 15.0052 13.0692 14.9852 13.0399 14.9653C12.9741 14.9204 12.9084 14.8746 12.8422 14.8271C12.8022 14.7986 12.7622 14.7697 12.7222 14.74C12.6991 14.7231 12.676 14.7062 12.6533 14.6889C12.6107 14.6573 12.5685 14.6253 12.5263 14.5925C12.5218 14.5893 12.5174 14.5858 12.5134 14.5827C12.4743 14.5525 12.4356 14.5222 12.3969 14.4916C12.3672 14.4685 12.3383 14.4449 12.309 14.4214C12.2899 14.4058 12.2703 14.3898 12.2512 14.3743C12.2223 14.3507 12.193 14.3263 12.1641 14.3019C12.145 14.2863 12.1259 14.2703 12.1072 14.2539C12.0752 14.2268 12.0433 14.1997 12.0113 14.1717C11.9753 14.1406 11.9397 14.1095 11.9042 14.0775C11.894 14.069 11.8842 14.0601 11.8744 14.0508C11.838 14.0184 11.802 13.9855 11.766 13.9522C11.6762 13.87 11.5874 13.7851 11.4989 13.6975C11.4732 13.6722 11.4478 13.6469 11.4225 13.6211C10.8502 14.3254 10.0766 15.0755 9.26967 15.7184C9.26256 15.7242 9.25545 15.7295 9.24834 15.7353C9.19014 15.7815 9.13148 15.8273 9.07283 15.8726C8.97418 15.9481 8.8751 16.0223 8.77645 16.0943C8.74357 16.1183 8.71025 16.1423 8.67736 16.1659C8.64448 16.1894 8.6116 16.2125 8.57872 16.2356C8.54584 16.2587 8.51296 16.2818 8.48008 16.3041C8.41431 16.3494 8.34855 16.3934 8.28323 16.4365C8.2508 16.4578 8.21792 16.4791 8.18548 16.5C8.15304 16.5213 8.1206 16.5418 8.08817 16.5618C8.0464 16.588 8.00419 16.6142 7.96242 16.6395C7.90777 16.6729 7.85356 16.7053 7.79935 16.7364C7.70381 16.7915 7.60961 16.8439 7.51674 16.8928C7.48564 16.9092 7.45454 16.9252 7.42388 16.9408C7.39322 16.9568 7.36256 16.9719 7.33234 16.9866C7.24125 17.0314 7.15194 17.0723 7.06396 17.1101C7.00531 17.1354 6.94799 17.1585 6.89111 17.1799C6.86312 17.1905 6.83468 17.2012 6.80669 17.211C6.78091 17.2203 6.75514 17.2292 6.72982 17.2372C6.72671 17.2385 6.72404 17.2394 6.72137 17.2403C6.69871 17.2478 6.67605 17.2549 6.65383 17.2616C6.59607 17.2794 6.53919 17.2949 6.48409 17.3083C6.4681 17.3123 6.4521 17.3158 6.43655 17.3189C6.40145 17.3269 6.36679 17.334 6.33257 17.3398C6.30547 17.3447 6.27881 17.3491 6.25259 17.3531C6.22904 17.3571 6.20594 17.3607 6.18328 17.3643C6.15173 17.3691 6.12062 17.3736 6.08952 17.3776C4.77116 17.5607 4.07088 17.2852 4.07088 17.2852C4.07088 17.2852 4.05399 15.8335 5.42256 13.9246C5.49632 13.8215 5.57408 13.7175 5.65629 13.6122C5.68339 13.5771 5.71094 13.542 5.73982 13.5065C5.76782 13.4714 5.79625 13.4358 5.82602 13.3998C5.85491 13.3643 5.88468 13.3287 5.91534 13.2928C5.94511 13.2568 5.97621 13.2212 6.00732 13.1848V13.1843C6.03842 13.1483 6.06997 13.1123 6.10241 13.0759C6.20683 12.9586 6.31258 12.8453 6.42011 12.7355C6.44277 12.7124 6.46543 12.6893 6.48854 12.6662C6.51475 12.64 6.54097 12.6138 6.56719 12.588C6.59385 12.5623 6.62006 12.5365 6.64672 12.5112C6.82179 12.3432 7.00042 12.185 7.18127 12.0366C7.20348 12.0179 7.2257 12.0002 7.24792 11.9824C7.26747 11.9664 7.28702 11.9508 7.30613 11.9357C7.33012 11.9166 7.35412 11.898 7.37811 11.8793C7.40566 11.8575 7.43365 11.8362 7.4612 11.8153C7.48875 11.794 7.51674 11.7731 7.54429 11.7527C7.65582 11.67 7.7678 11.5905 7.88022 11.5149C7.90421 11.4985 7.92821 11.4825 7.9522 11.467C8.01974 11.4221 8.08772 11.3785 8.15571 11.3363C8.17659 11.323 8.19792 11.3101 8.21925 11.2972C8.25435 11.2754 8.2899 11.2541 8.325 11.2332C8.37299 11.2048 8.42098 11.1772 8.46897 11.1501C8.52762 11.1164 8.58672 11.0839 8.64582 11.0528C8.67425 11.0373 8.70269 11.0222 8.73113 11.0075C8.75957 10.9924 8.78801 10.9777 8.81644 10.9635C8.84399 10.9493 8.8711 10.9355 8.89865 10.9222C8.90042 10.9209 8.90265 10.92 8.90442 10.9195C8.93197 10.9053 8.95997 10.892 8.98751 10.8791C9.04484 10.8511 9.10171 10.8249 9.15859 10.7991C9.24434 10.7604 9.32966 10.7236 9.41453 10.6885C9.42386 10.6845 9.43319 10.6809 9.44208 10.6774C9.5465 10.6347 9.65047 10.5947 9.75445 10.5578C9.78244 10.5472 9.81044 10.5374 9.83843 10.5281C9.89575 10.5081 9.95307 10.489 10.0104 10.4707C10.0642 10.4534 10.1179 10.4365 10.1712 10.421C10.2281 10.4041 10.2845 10.3881 10.341 10.3734C10.4503 10.3437 10.5592 10.317 10.6667 10.2939C10.6702 10.293 10.6738 10.2921 10.6773 10.2917C10.7293 10.2801 10.7809 10.2695 10.8324 10.2597C10.856 10.2552 10.8795 10.2508 10.9031 10.2463C10.9497 10.2379 10.9968 10.2299 11.043 10.2228C11.0666 10.2188 11.0897 10.2157 11.1128 10.2121C11.1595 10.205 11.2052 10.1988 11.251 10.1935C11.2968 10.1877 11.3425 10.1828 11.3874 10.1784C11.8251 10.1339 12.2379 10.1424 12.6111 10.2001C12.6187 10.201 12.6258 10.2019 12.6333 10.2032C12.6333 10.2032 12.6351 10.213 12.6373 10.2317C13.1377 10.8364 13.7815 11.4701 14.4627 12.0379C14.5516 12.1117 14.6409 12.1846 14.7306 12.2561C14.7977 12.3094 14.8653 12.3623 14.9328 12.4143H14.9333C14.9355 12.3699 14.9372 12.3259 14.9381 12.2823C14.9404 12.2059 14.9404 12.1308 14.939 12.0575H14.9395Z" fill="currentColor" stroke="currentColor" stroke-width="0.12"/>
<path d="M11.388 10.1786C11.2072 10.1968 11.0219 10.2239 10.833 10.2599C10.7815 10.2701 10.73 10.2808 10.678 10.2919C10.6744 10.2923 10.6709 10.2932 10.6673 10.2941C10.5598 10.3177 10.4509 10.3443 10.3416 10.3736C10.2852 10.3883 10.2287 10.4043 10.1719 10.4212C10.1185 10.4372 10.0648 10.4536 10.011 10.471C9.95369 10.4892 9.89637 10.5083 9.83905 10.5283C9.81106 10.5376 9.78306 10.5474 9.75507 10.558C9.65109 10.5954 9.54712 10.6349 9.4427 10.6776C9.43381 10.6811 9.42448 10.6847 9.41515 10.6887C9.33028 10.7238 9.24496 10.7607 9.15921 10.7993C9.10233 10.8251 9.04546 10.8518 8.98814 10.8793C8.96059 10.8926 8.93304 10.906 8.90504 10.9197C8.90327 10.9202 8.90104 10.9211 8.89927 10.9224C8.87216 10.9362 8.84461 10.95 8.81706 10.9637C8.78863 10.9779 8.76019 10.9926 8.73175 11.0077C8.70331 11.0224 8.67487 11.0375 8.64644 11.053C8.58734 11.0841 8.52824 11.1166 8.46959 11.1503C8.4216 11.1775 8.37361 11.2054 8.32562 11.2334C8.29052 11.2543 8.25497 11.2757 8.21987 11.2974C8.19854 11.3103 8.17766 11.3232 8.15633 11.3365C8.08834 11.3787 8.02036 11.4223 7.95282 11.4672C7.92882 11.4827 7.90483 11.4992 7.88084 11.5152C7.76842 11.5907 7.65644 11.6702 7.54491 11.7529C7.51736 11.7733 7.48937 11.7942 7.46182 11.8155C7.43427 11.8364 7.40628 11.8577 7.37873 11.8795C7.35474 11.8982 7.33074 11.9168 7.30675 11.9359C7.28764 11.9511 7.26809 11.9666 7.24854 11.9826C7.22632 12.0004 7.2041 12.0186 7.18189 12.0368C7.00104 12.1852 6.82241 12.3434 6.64734 12.5114C6.62068 12.5367 6.59447 12.5625 6.56781 12.5882C6.54159 12.614 6.51537 12.6402 6.48916 12.6664C6.46605 12.6891 6.44339 12.7122 6.42073 12.7358C6.3132 12.8455 6.20745 12.9588 6.10302 13.0761C6.0386 13.1486 5.97594 13.221 5.91551 13.293C5.88485 13.329 5.85508 13.3645 5.8262 13.4001C5.79687 13.4356 5.76799 13.4711 5.74 13.5067C5.71156 13.5422 5.68357 13.5773 5.65646 13.6124C5.57426 13.7178 5.4965 13.8217 5.42274 13.9248L5.20945 13.6338L3.42365 11.1966C3.44808 11.1672 3.47252 11.1375 3.49785 11.1081C3.52895 11.0708 3.56095 11.0339 3.59338 10.9966C3.62049 10.9655 3.64848 10.934 3.67648 10.9024C3.83199 10.7282 3.99062 10.5598 4.15237 10.3972C4.21724 10.3323 4.28256 10.2679 4.34788 10.2048C4.37942 10.1746 4.41142 10.1444 4.44296 10.1137C4.44919 10.1079 4.45585 10.1021 4.46207 10.0959C4.51584 10.0457 4.57005 9.9955 4.6247 9.94618C4.63181 9.93952 4.63892 9.9333 4.64603 9.92708C4.67935 9.89686 4.71268 9.86709 4.74645 9.83732C4.81532 9.77644 4.88464 9.71646 4.95396 9.65781C4.98595 9.6307 5.01839 9.6036 5.05082 9.57694C5.08637 9.54761 5.12147 9.51873 5.15702 9.49029C5.1899 9.46363 5.22323 9.43697 5.25655 9.41075C5.2881 9.38587 5.31965 9.36099 5.3512 9.33655C5.41474 9.28722 5.47873 9.23879 5.54271 9.19125C5.56404 9.17525 5.58581 9.1597 5.60714 9.1437C5.62891 9.12815 5.65069 9.11215 5.67246 9.0966C5.70045 9.07616 5.72845 9.05617 5.75688 9.03617C5.77066 9.0264 5.78488 9.01618 5.7991 9.0064C5.85642 8.96641 5.91374 8.92686 5.97106 8.88821C5.99949 8.8691 6.02838 8.84999 6.05726 8.83089C6.08614 8.81178 6.11458 8.79312 6.14346 8.77445C6.17234 8.75579 6.20122 8.73713 6.23011 8.71891C6.37407 8.62738 6.51893 8.54029 6.66423 8.45764C6.78065 8.39143 6.89662 8.32834 7.01304 8.2679C7.04236 8.2528 7.07125 8.23813 7.10057 8.22303C7.12945 8.20836 7.15878 8.1937 7.18766 8.17948C7.24587 8.15104 7.30408 8.12305 7.36229 8.0955C7.39162 8.08217 7.4205 8.0684 7.44938 8.05507C7.68222 7.94931 7.91416 7.85511 8.14477 7.77291C8.46203 7.66049 8.77618 7.57118 9.08456 7.50586L9.18898 7.62716L9.19875 7.63827L9.6351 8.14438L10.9779 9.70268L11.388 10.1786Z" fill="currentColor" stroke="currentColor" stroke-width="0.12"/>
<path d="M14.9394 12.0574C14.9394 12.0458 14.939 12.0338 14.9385 12.0223C14.9381 11.9961 14.9372 11.9698 14.9359 11.9441C14.935 11.9214 14.9337 11.8987 14.9323 11.8765C14.9297 11.8321 14.9265 11.7881 14.923 11.745C14.9208 11.7237 14.919 11.7019 14.9168 11.681C14.9123 11.6384 14.9074 11.5966 14.9021 11.5557C14.8963 11.5148 14.8906 11.4744 14.8843 11.4349C14.8781 11.398 14.8719 11.362 14.8652 11.3269C14.8643 11.3242 14.8639 11.3211 14.8635 11.3184C14.8523 11.2616 14.8403 11.206 14.8275 11.1527L14.8266 11.1514C14.5666 10.5919 13.9792 9.86499 12.6591 9.64016C12.4938 9.61216 12.3263 9.59528 12.1565 9.5895C11.7704 9.57573 11.3745 9.61749 10.9777 9.70236C10.5462 9.79434 10.113 9.93786 9.68954 10.1174C9.56157 10.1711 9.43493 10.2285 9.30918 10.2893C8.12368 10.8568 7.03815 11.6784 6.29255 12.4062C5.93663 12.7537 5.5625 13.1727 5.20924 13.6335C4.13883 15.0287 3.26036 16.8021 3.66116 18.0978C3.9722 19.1042 4.89554 19.6592 5.61048 19.9471L5.61315 19.948C5.63759 19.9538 5.66203 19.9595 5.68647 19.9653C5.73534 19.9764 5.78422 19.9867 5.8331 19.9964C5.85754 20.0013 5.88198 20.0058 5.90642 20.0102C5.93352 20.0151 5.96063 20.0195 5.98773 20.0244C6.03439 20.032 6.08104 20.0386 6.1277 20.0453C6.15214 20.0484 6.17658 20.0515 6.20101 20.0546C6.22545 20.0577 6.24989 20.0604 6.27389 20.0631C6.29833 20.0653 6.32276 20.068 6.3472 20.0702C6.52583 20.0862 6.70268 20.0924 6.87597 20.0888C6.90841 20.088 6.9404 20.0871 6.97239 20.0857L6.9755 20.0849C7.91828 19.9623 8.51061 19.7817 9.31852 19.3703C9.35184 19.3544 9.38561 19.3384 9.41938 19.3219C9.50647 19.2793 9.5949 19.2353 9.68376 19.1891C9.72509 19.1677 9.76641 19.1464 9.80774 19.1242C9.91216 19.0686 10.0175 19.0109 10.1241 18.9504C10.1663 18.9265 10.2085 18.902 10.2507 18.8771C10.2565 18.8736 10.2627 18.87 10.269 18.8665C10.3245 18.8336 10.38 18.8003 10.436 18.7665C10.4649 18.7492 10.4938 18.7309 10.5231 18.7127C10.552 18.6945 10.5813 18.6763 10.6102 18.6581C10.6684 18.6212 10.7266 18.5834 10.7853 18.5452C10.8435 18.507 10.9021 18.4679 10.9604 18.4275C10.9897 18.4079 11.0186 18.3879 11.0479 18.367C11.0768 18.347 11.1052 18.3266 11.1341 18.3066C11.1341 18.3066 11.1372 18.3044 11.139 18.303C11.1954 18.2626 11.2514 18.2217 11.3078 18.1804C11.426 18.0929 11.5442 18.0022 11.662 17.9071C11.7473 17.8387 11.8326 17.7685 11.9175 17.6956C11.977 17.645 12.037 17.593 12.0961 17.5397C12.1174 17.521 12.1383 17.5019 12.1592 17.4832C12.1739 17.4703 12.189 17.4566 12.2036 17.4428C12.2254 17.4228 12.2467 17.4032 12.2681 17.3833C12.2969 17.357 12.3254 17.3304 12.3538 17.3028C12.3823 17.2757 12.4102 17.2486 12.4387 17.2211C12.4658 17.1949 12.4924 17.1686 12.5196 17.142C12.5844 17.078 12.6489 17.0122 12.7124 16.9456C12.7328 16.9238 12.7537 16.902 12.7746 16.8798C12.827 16.8247 12.8781 16.7692 12.9288 16.7123C12.9359 16.7047 12.9426 16.6976 12.9488 16.6901C12.9697 16.6674 12.9901 16.6443 13.0101 16.6212C13.0425 16.5848 13.0745 16.5479 13.1061 16.511C13.1403 16.471 13.1745 16.431 13.2078 16.3902C13.2527 16.3364 13.2976 16.2817 13.3416 16.2262C13.5406 15.9765 13.7171 15.7299 13.8735 15.4864C13.8326 15.4628 13.7913 15.4393 13.7495 15.4148C13.7437 15.4113 13.7375 15.4077 13.7313 15.4042C13.6757 15.3717 13.6202 15.3384 13.5642 15.3042C13.5433 15.2913 13.522 15.2784 13.5007 15.2651C13.4927 15.2606 13.4851 15.2557 13.4771 15.2504C13.4482 15.2322 13.4189 15.214 13.39 15.1958C13.3318 15.1589 13.2736 15.1211 13.2154 15.0829C13.1861 15.0638 13.1567 15.0442 13.1279 15.0247C13.0985 15.0051 13.0692 14.9851 13.0399 14.9651C12.9741 14.9203 12.9084 14.8745 12.8421 14.827C12.8022 14.7985 12.7622 14.7696 12.7222 14.7399C12.6991 14.723 12.676 14.7061 12.6533 14.6888C12.6106 14.6572 12.5684 14.6252 12.5262 14.5923C12.5218 14.5892 12.5173 14.5857 12.5133 14.5826C12.4742 14.5524 12.4356 14.5221 12.3969 14.4915C12.3671 14.4684 12.3383 14.4448 12.3089 14.4213C12.2898 14.4057 12.2703 14.3897 12.2512 14.3742C12.2223 14.3506 12.193 14.3262 12.1641 14.3017C12.145 14.2862 12.1259 14.2702 12.1072 14.2538C12.0752 14.2267 12.0432 14.1995 12.0112 14.1716C11.9752 14.1404 11.9397 14.1093 11.9041 14.0774C11.8939 14.0689 11.8841 14.06 11.8744 14.0507C11.8379 14.0183 11.8019 13.9854 11.7659 13.952C11.6762 13.8698 11.5873 13.785 11.4989 13.6974C11.4731 13.6721 11.4478 13.6468 11.4225 13.621C10.8502 14.3253 10.0766 15.0753 9.26964 15.7183C9.26253 15.7241 9.25542 15.7294 9.24831 15.7352C9.1901 15.7814 9.13145 15.8272 9.07279 15.8725C8.97415 15.948 8.87506 16.0222 8.77642 16.0942C8.74354 16.1182 8.71021 16.1422 8.67733 16.1658C8.64445 16.1893 8.61157 16.2124 8.57869 16.2355C8.54581 16.2586 8.51292 16.2817 8.48004 16.3039C8.41428 16.3493 8.34852 16.3933 8.2832 16.4364C8.25076 16.4577 8.21788 16.479 8.18544 16.4999C8.15301 16.5212 8.12057 16.5417 8.08813 16.5617C8.04637 16.5879 8.00415 16.6141 7.96239 16.6394C7.90773 16.6728 7.85352 16.7052 7.79931 16.7363C7.70378 16.7914 7.60958 16.8438 7.51671 16.8927C7.48561 16.9091 7.4545 16.9251 7.42384 16.9407C7.39318 16.9567 7.36252 16.9718 7.33231 16.9865C7.24122 17.0313 7.15191 17.0722 7.06393 17.11C7.00527 17.1353 6.94795 17.1584 6.89108 17.1797C6.86308 17.1904 6.83465 17.2011 6.80665 17.2108C6.78088 17.2202 6.75511 17.2291 6.72978 17.2371C6.72667 17.2384 6.724 17.2393 6.72134 17.2402C6.69868 17.2477 6.67602 17.2548 6.6538 17.2615C6.59603 17.2793 6.53916 17.2948 6.48406 17.3082C6.46806 17.3122 6.45207 17.3157 6.43652 17.3188C6.40141 17.3268 6.36675 17.3339 6.33254 17.3397C6.30544 17.3446 6.27877 17.349 6.25256 17.353C6.22901 17.357 6.2059 17.3606 6.18324 17.3641C6.15169 17.369 6.12059 17.3735 6.08949 17.3775C4.77112 17.5605 4.15492 17.3035 4.15492 17.3035C4.15492 17.3035 4.05396 15.8334 5.42253 13.9245C5.49629 13.8214 5.57405 13.7174 5.65625 13.6121C5.68336 13.577 5.71091 13.5419 5.73979 13.5064C5.76778 13.4713 5.79622 13.4357 5.82599 13.3997C5.85487 13.3642 5.88464 13.3286 5.9153 13.2926C5.94507 13.2567 5.97618 13.2211 6.00728 13.1847C6.03839 13.1487 6.06993 13.1122 6.10237 13.0758C6.20679 12.9585 6.31254 12.8452 6.42008 12.7354C6.44274 12.7123 6.4654 12.6892 6.4885 12.6661C6.51472 12.6399 6.54094 12.6137 6.56715 12.5879C6.59381 12.5621 6.62003 12.5364 6.64669 12.511C6.82176 12.3431 7.00039 12.1849 7.18123 12.0365C7.20345 12.0178 7.22567 12.0001 7.24788 11.9823C7.26743 11.9663 7.28699 11.9507 7.30609 11.9356C7.33009 11.9165 7.35408 11.8979 7.37808 11.8792C7.40562 11.8574 7.43362 11.8361 7.46117 11.8152C7.48872 11.7939 7.51671 11.773 7.54426 11.7526C7.65579 11.6699 7.76776 11.5904 7.88018 11.5148C7.90418 11.4984 7.92817 11.4824 7.95217 11.4668C8.01971 11.422 8.08769 11.3784 8.15567 11.3362C8.17656 11.3229 8.19789 11.31 8.21921 11.2971C8.25432 11.2753 8.28986 11.254 8.32497 11.2331C8.37296 11.2047 8.42095 11.1771 8.46893 11.15C8.52759 11.1163 8.58669 11.0838 8.64578 11.0527C8.67422 11.0372 8.70266 11.0221 8.7311 11.0074C8.75953 10.9923 8.78797 10.9776 8.81641 10.9634C8.84396 10.9492 8.87106 10.9354 8.89861 10.9221C8.90039 10.9207 8.90261 10.9199 8.90439 10.9194C8.93194 10.9052 8.95993 10.8919 8.98748 10.879C9.0448 10.851 9.10168 10.8248 9.15855 10.799C9.24431 10.7603 9.32962 10.7235 9.41449 10.6884C9.42382 10.6844 9.43316 10.6808 9.44204 10.6772C9.54646 10.6346 9.65044 10.5946 9.75441 10.5577C9.78241 10.5471 9.8104 10.5373 9.8384 10.528C9.89572 10.508 9.95303 10.4888 10.0104 10.4706C10.0641 10.4533 10.1179 10.4364 10.1712 10.4209C10.2281 10.404 10.2845 10.388 10.3409 10.3733C10.4503 10.3435 10.5591 10.3169 10.6666 10.2938C10.6702 10.2929 10.6738 10.292 10.6773 10.2916C10.7293 10.28 10.7808 10.2693 10.8324 10.2596C10.8559 10.2551 10.8795 10.2507 10.903 10.2462C10.9497 10.2378 10.9968 10.2298 11.043 10.2227C11.0666 10.2187 11.0897 10.2156 11.1128 10.212C11.1594 10.2049 11.2052 10.1987 11.251 10.1934C11.2967 10.1876 11.3425 10.1827 11.3874 10.1783C11.825 10.1338 12.2378 10.1423 12.6111 10.2C12.6186 10.2009 12.6257 10.2018 12.6333 10.2031C12.6333 10.2031 12.6351 10.2129 12.6373 10.2316C13.1376 10.8363 13.7815 11.47 14.4627 12.0378C14.5515 12.1116 14.6408 12.1845 14.7306 12.256C14.7977 12.3093 14.8652 12.3622 14.9328 12.4142C14.935 12.3697 14.9368 12.3258 14.9381 12.2822C14.9403 12.2058 14.9408 12.1307 14.9394 12.0574Z" fill="currentColor" stroke="currentColor" stroke-width="0.12"/>
<path d="M12.6378 10.2316C12.6356 10.2129 12.6339 10.2031 12.6339 10.2031C13.3941 10.3644 14.285 10.7754 14.4632 12.0378C13.782 11.4699 13.1382 10.8363 12.6378 10.2316Z" fill="currentColor" stroke="currentColor" stroke-width="0.12"/>
<path d="M13.4772 15.2505C13.4852 15.2558 13.4928 15.2607 13.5008 15.2652C12.8538 16.2969 11.9509 17.3042 10.9818 17.9716C10.9369 18.0032 10.8916 18.0334 10.8463 18.0632C10.8294 18.0743 10.8125 18.0854 10.7952 18.0961C10.6761 18.1725 10.5561 18.2431 10.4361 18.3076C10.2953 18.3831 10.1571 18.4555 10.022 18.5244C9.99979 18.536 9.97713 18.5471 9.95491 18.5586C9.93891 18.5666 9.92336 18.5746 9.90737 18.5822C9.88293 18.5946 9.85849 18.6071 9.83449 18.6186C9.60388 18.7332 9.38127 18.8372 9.16576 18.931C9.14888 18.9385 9.13199 18.9456 9.11555 18.9527C8.98847 19.0074 8.86405 19.0585 8.74186 19.1056C8.70587 19.1194 8.67032 19.1332 8.63477 19.1465C8.48725 19.2016 8.34284 19.2509 8.20154 19.2949C8.17488 19.3033 8.14822 19.3113 8.122 19.3189C8.10245 19.3247 8.08246 19.3304 8.0629 19.3362C8.03624 19.3442 8.01003 19.3513 7.98381 19.3584C7.93094 19.3731 7.8785 19.3869 7.82696 19.3993C7.80341 19.4055 7.77986 19.4113 7.75631 19.4166C7.74031 19.4202 7.72476 19.4238 7.70921 19.4277C7.63811 19.4433 7.56835 19.458 7.49904 19.4704C7.48348 19.4735 7.46793 19.4762 7.45282 19.4784C6.76054 19.6002 6.13446 19.5611 5.52616 19.3473C4.16025 18.867 4.16204 17.3082 4.16204 17.3082C4.16204 17.3082 4.77078 17.5606 6.08914 17.3776C6.12024 17.3736 6.15135 17.3691 6.1829 17.3642C6.206 17.3607 6.22911 17.3571 6.25221 17.3531C6.27887 17.3487 6.30553 17.3442 6.3322 17.3398C6.36641 17.334 6.40107 17.3269 6.43617 17.3189C6.45172 17.3158 6.46772 17.3122 6.48372 17.3082C6.53881 17.2949 6.59569 17.2794 6.65345 17.2616C6.67567 17.2549 6.69833 17.2478 6.72099 17.2403C6.72366 17.2394 6.72633 17.2385 6.72944 17.2371C6.75476 17.2291 6.78054 17.2203 6.80631 17.2109C6.8343 17.2012 6.86229 17.1909 6.89073 17.1798C6.94761 17.1585 7.00493 17.1354 7.06358 17.1101C7.15156 17.0723 7.24087 17.0314 7.33196 16.9865C7.36218 16.9719 7.39284 16.9568 7.4235 16.9408C7.45416 16.9257 7.48526 16.9097 7.51636 16.8928C7.60923 16.8439 7.70343 16.7915 7.79897 16.7364C7.85318 16.7053 7.90738 16.6728 7.96204 16.6395C8.00381 16.6142 8.04602 16.588 8.08779 16.5617C8.12022 16.5418 8.15266 16.5213 8.1851 16.5C8.21754 16.4791 8.25042 16.4582 8.28285 16.4364C8.34817 16.3933 8.41393 16.3494 8.4797 16.304C8.51258 16.2818 8.54546 16.2587 8.57834 16.2356C8.61122 16.2129 8.6441 16.1894 8.67699 16.1658C8.70987 16.1423 8.74275 16.1187 8.77607 16.0943C8.87472 16.0223 8.9738 15.9481 9.07245 15.8726C9.1311 15.8273 9.18975 15.7815 9.24796 15.7353C9.25507 15.7295 9.26218 15.7242 9.26929 15.7184C10.0762 15.0754 10.8498 14.3254 11.4221 13.6211C11.4475 13.6469 11.4728 13.6722 11.4986 13.6975C11.587 13.7851 11.6758 13.8699 11.7656 13.9521C11.8016 13.9855 11.8376 14.0183 11.874 14.0508C11.8838 14.0601 11.8936 14.069 11.9038 14.0774C11.9393 14.1094 11.9749 14.1405 12.0109 14.1716C12.0429 14.1996 12.0749 14.2267 12.1069 14.2538C12.1255 14.2703 12.1446 14.2863 12.1637 14.3018C12.1926 14.3263 12.2219 14.3507 12.2508 14.3743C12.2699 14.3898 12.2895 14.4058 12.3086 14.4214C12.3379 14.4449 12.3668 14.4685 12.3966 14.4916C12.4352 14.5222 12.4739 14.5524 12.513 14.5826C12.517 14.5858 12.5214 14.5893 12.5259 14.5924C12.5681 14.6253 12.6103 14.6573 12.653 14.6888C12.6756 14.7062 12.6987 14.7231 12.7218 14.7399C12.7618 14.7697 12.8018 14.7986 12.8418 14.827C12.908 14.8746 12.9738 14.9203 13.0395 14.9652C13.0689 14.9852 13.0982 15.0052 13.1275 15.0248C13.1564 15.0443 13.1857 15.0639 13.215 15.083C13.2733 15.1212 13.3315 15.159 13.3897 15.1958C13.4186 15.2141 13.4483 15.2323 13.4772 15.2505Z" fill="currentColor" stroke="currentColor" stroke-width="0.12"/>
<path d="M7.4068 11.2041C8.20244 10.6878 8.53729 9.79132 8.15471 9.20174C7.77212 8.61216 6.81698 8.55275 6.02133 9.06906C5.22569 9.58536 4.89084 10.4819 5.27342 11.0714C5.65601 11.661 6.61115 11.7204 7.4068 11.2041Z" fill="currentColor" stroke="currentColor" stroke-width="0.12"/>
<ellipse cx="17.3054" cy="6.48515" rx="0.816224" ry="0.989748" transform="rotate(-49.6685 17.3054 6.48515)" fill="currentColor" stroke="currentColor" stroke-width="0.12"/>
<ellipse cx="6.69041" cy="10.0546" rx="1.27931" ry="0.898678" transform="rotate(-33.7303 6.69041 10.0546)" fill="currentColor" stroke="currentColor" stroke-width="0.12"/>
</g>
</g>
</g>
<defs>
<clipPath id="clip0_4017_2790">
<rect width="24" height="24" fill="currentColor"/>
</clipPath>
<clipPath id="clip1_4017_2790">
<rect width="24" height="24" fill="currentColor"/>
</clipPath>
<clipPath id="clip2_4017_2790">
<rect width="24" height="24" fill="currentColor"/>
</clipPath>
</defs>
</svg>
