<svg width="24" height="24" viewBox="0 0 24 24" fill="none" xmlns="http://www.w3.org/2000/svg">
<g clip-path="url(#clip0_3396_50347)">
<path d="M24 12C24 5.37258 18.6274 0 12 0C5.37258 0 0 5.37258 0 12C0 18.6274 5.37258 24 12 24C18.6274 24 24 18.6274 24 12Z" fill="currentColor"/>
<path d="M14.4568 7.5746H9.53125V16.4239H14.4568V7.5746Z" fill="currentColor"/>
<path d="M9.85871 11.9997C9.85871 10.2018 10.7039 8.60608 12.0009 7.57505C11.0464 6.82457 9.84232 6.37097 8.52892 6.37097C5.41766 6.37097 2.9002 8.88842 2.9002 11.9997C2.9002 15.111 5.41766 17.6285 8.52892 17.6285C9.84232 17.6285 11.0464 17.1749 12.0009 16.4244C10.7021 15.4079 9.85871 13.7976 9.85871 11.9997Z" fill="currentColor"/>
<path d="M21.1017 11.9997C21.1017 15.111 18.5842 17.6285 15.473 17.6285C14.1596 17.6285 12.9555 17.1749 12.001 16.4244C13.3144 15.3915 14.1432 13.7976 14.1432 11.9997C14.1432 10.2018 13.298 8.60608 12.001 7.57505C12.9537 6.82457 14.1578 6.37097 15.4711 6.37097C18.5842 6.37097 21.1017 8.9048 21.1017 11.9997Z" fill="currentColor"/>
</g>
<defs>
<clipPath id="clip0_3396_50347">
<rect width="23.25" height="23.25" fill="currentColor" transform="scale(1.03226)"/>
</clipPath>
</defs>
</svg>
