<svg width="24" height="24" viewBox="0 0 24 24" fill="none" xmlns="http://www.w3.org/2000/svg">
<g clip-path="url(#clip0_3323_37360)">
<g filter="url(#filter0_d_3323_37360)">
<path d="M0 12C0 5.37258 5.37258 0 12 0C18.6274 0 24 5.37258 24 12C24 18.6274 18.6274 24 12 24C5.37258 24 0 18.6274 0 12Z" fill="#FBFAF8"/>
<path fill-rule="evenodd" clip-rule="evenodd" d="M14.7144 16.5028C17.1277 16.5028 19.0841 14.6267 19.0841 12.3124C19.0841 9.99817 17.1277 8.12207 14.7144 8.12207C12.3011 8.12207 10.3447 9.99817 10.3447 12.3124C10.3447 14.6267 12.3011 16.5028 14.7144 16.5028Z" fill="#F79E1B"/>
<path fill-rule="evenodd" clip-rule="evenodd" d="M9.19486 16.5028C11.6082 16.5028 13.5645 14.6267 13.5645 12.3124C13.5645 9.99817 11.6082 8.12207 9.19486 8.12207C6.78156 8.12207 4.8252 9.99817 4.8252 12.3124C4.8252 14.6267 6.78156 16.5028 9.19486 16.5028Z" fill="#EB001B"/>
<path fill-rule="evenodd" clip-rule="evenodd" d="M11.9545 9.06348C10.9721 9.83187 10.3447 11.0019 10.3447 12.3124C10.3447 13.623 10.9721 14.793 11.9545 15.5614C12.9369 14.793 13.5643 13.623 13.5643 12.3124C13.5643 11.0019 12.9369 9.83187 11.9545 9.06348Z" fill="#FF5F00"/>
</g>
</g>
<defs>
<filter id="filter0_d_3323_37360" x="-6" y="-5" width="36" height="36" filterUnits="userSpaceOnUse" color-interpolation-filters="sRGB">
<feFlood flood-opacity="0" result="BackgroundImageFix"/>
<feColorMatrix in="SourceAlpha" type="matrix" values="0 0 0 0 0 0 0 0 0 0 0 0 0 0 0 0 0 0 127 0" result="hardAlpha"/>
<feOffset dy="1"/>
<feGaussianBlur stdDeviation="3"/>
<feComposite in2="hardAlpha" operator="out"/>
<feColorMatrix type="matrix" values="0 0 0 0 0 0 0 0 0 0 0 0 0 0 0 0 0 0 0.08 0"/>
<feBlend mode="normal" in2="BackgroundImageFix" result="effect1_dropShadow_3323_37360"/>
<feBlend mode="normal" in="SourceGraphic" in2="effect1_dropShadow_3323_37360" result="shape"/>
</filter>
<clipPath id="clip0_3323_37360">
<rect width="24" height="24" fill="white"/>
</clipPath>
</defs>
</svg>
