<svg width="16" height="16" viewBox="0 0 16 16" fill="none" xmlns="http://www.w3.org/2000/svg">
<g clip-path="url(#clip0_1496_70632)">
<path d="M10.5 3.06667C10.5 2.6933 10.5 2.50661 10.4273 2.36401C10.3634 2.23856 10.2614 2.13658 10.136 2.07266C9.99339 2 9.8067 2 9.43333 2H7.56667C7.1933 2 7.00661 2 6.86401 2.07266C6.73857 2.13658 6.63658 2.23856 6.57266 2.36401C6.5 2.50661 6.5 2.6933 6.5 3.06667V4.93333C6.5 5.3067 6.5 5.49339 6.42734 5.63599C6.36342 5.76143 6.26144 5.86342 6.13599 5.92734C5.99339 6 5.8067 6 5.43333 6H3.56667C3.1933 6 3.00661 6 2.86401 6.07266C2.73856 6.13658 2.63658 6.23856 2.57266 6.36401C2.5 6.50661 2.5 6.6933 2.5 7.06667V8.93333C2.5 9.3067 2.5 9.49339 2.57266 9.63599C2.63658 9.76144 2.73856 9.86342 2.86401 9.92734C3.00661 10 3.1933 10 3.56667 10H5.43333C5.8067 10 5.99339 10 6.13599 10.0727C6.26144 10.1366 6.36342 10.2386 6.42734 10.364C6.5 10.5066 6.5 10.6933 6.5 11.0667V12.9333C6.5 13.3067 6.5 13.4934 6.57266 13.636C6.63658 13.7614 6.73857 13.8634 6.86401 13.9273C7.00661 14 7.1933 14 7.56667 14H9.43333C9.8067 14 9.99339 14 10.136 13.9273C10.2614 13.8634 10.3634 13.7614 10.4273 13.636C10.5 13.4934 10.5 13.3067 10.5 12.9333V11.0667C10.5 10.6933 10.5 10.5066 10.5727 10.364C10.6366 10.2386 10.7386 10.1366 10.864 10.0727C11.0066 10 11.1933 10 11.5667 10H13.4333C13.8067 10 13.9934 10 14.136 9.92734C14.2614 9.86342 14.3634 9.76144 14.4273 9.63599C14.5 9.49339 14.5 9.3067 14.5 8.93333V7.06667C14.5 6.6933 14.5 6.50661 14.4273 6.36401C14.3634 6.23857 14.2614 6.13658 14.136 6.07266C13.9934 6 13.8067 6 13.4333 6L11.5667 6C11.1933 6 11.0066 6 10.864 5.92734C10.7386 5.86342 10.6366 5.76143 10.5727 5.63599C10.5 5.49339 10.5 5.3067 10.5 4.93333V3.06667Z" stroke="currentColor" stroke-width="1.25" stroke-linecap="round" stroke-linejoin="round"/>
</g>
<defs>
<clipPath id="clip0_1496_70632">
<rect width="16" height="16" fill="currentColor"/>
</clipPath>
</defs>
</svg>
