<svg width="24" height="24" viewBox="0 0 24 24" fill="none" xmlns="http://www.w3.org/2000/svg">
<g clip-path="url(#clip0_6029_10375)">
<g clip-path="url(#clip1_6029_10375)">
<path d="M9.93201 2.37801C4.91107 3.82478 2.07345 9.18065 3.59355 14.3407C5.11372 19.5005 10.416 22.5109 15.437 21.0641C20.4578 19.6175 23.2955 14.2615 21.7756 9.10171C20.2553 3.94162 14.9529 0.93123 9.93201 2.37801Z" fill="currentColor" stroke="currentColor" stroke-width="0.075"/>
<path d="M7.12199 4.78902C3.51532 7.66601 3.01069 12.9938 5.99449 16.6891C8.97829 20.3843 14.3208 21.048 17.9275 18.171C21.5341 15.2942 22.0388 9.96617 19.0552 6.27102C16.0712 2.57568 10.7287 1.91203 7.12199 4.78902Z" fill="currentColor" stroke="currentColor" stroke-width="0.075"/>
<path d="M2.00658 10.1424C2.01737 10.0891 2.02844 10.0357 2.04008 9.98261C2.04185 9.97455 2.04372 9.96675 2.04548 9.95869C2.05732 9.90564 2.06934 9.85267 2.08203 9.79975C2.08272 9.79643 2.08362 9.79319 2.08431 9.78987C2.09728 9.73571 2.11094 9.68206 2.12487 9.62831C2.12727 9.6187 2.12987 9.60918 2.13235 9.59938C2.14603 9.54732 2.16009 9.49542 2.17454 9.44368C2.17721 9.43396 2.18007 9.42433 2.18275 9.41461C2.19775 9.36152 2.21322 9.3084 2.22919 9.25571C2.23032 9.25189 2.23145 9.24808 2.23286 9.24415C2.24854 9.19269 2.2646 9.1414 2.28106 9.09026C2.28343 9.0829 2.2858 9.07554 2.28825 9.06799C2.30487 9.01647 2.32197 8.96538 2.33955 8.91425C2.34116 8.90928 2.34285 8.90412 2.34465 8.89923C2.34665 8.8933 2.34877 8.88763 2.35078 8.8817C2.3645 8.84206 2.37849 8.80231 2.39279 8.7629C2.39446 8.75886 2.39575 8.75466 2.39723 8.75054C2.41285 8.7074 2.42877 8.66461 2.44516 8.62179C2.4494 8.61047 2.45391 8.59904 2.45815 8.58772C2.47162 8.55248 2.48529 8.51733 2.49933 8.48233C2.50292 8.47367 2.5062 8.46466 2.50979 8.456C2.5266 8.4138 2.54387 8.37157 2.56144 8.3297C2.56551 8.31988 2.5695 8.31026 2.57356 8.30044C2.58776 8.26619 2.60261 8.23197 2.61738 8.19796C2.62176 8.18737 2.62661 8.17675 2.63119 8.16625C2.64942 8.12442 2.66796 8.08294 2.68688 8.04162C2.68979 8.03515 2.69288 8.02877 2.69579 8.02231C2.71221 7.98649 2.72881 7.95075 2.74581 7.91517C2.75117 7.90387 2.75645 7.89275 2.76181 7.88144C2.78084 7.84152 2.80024 7.80175 2.81984 7.76207C2.82048 7.76053 2.82112 7.75899 2.82214 7.75761C2.84249 7.71665 2.86314 7.67605 2.88407 7.63534C2.88973 7.62438 2.8954 7.61343 2.90107 7.60247C2.91874 7.56852 2.93633 7.53477 2.95431 7.50118C2.95834 7.49361 2.9623 7.48623 2.96634 7.47866C2.9878 7.43884 3.00945 7.3991 3.03148 7.35952C3.03686 7.3498 3.04252 7.33996 3.0479 7.33024C3.06589 7.29824 3.08416 7.26612 3.10235 7.23419C3.10792 7.22455 3.11349 7.21491 3.11906 7.20526C3.14187 7.166 3.16478 7.12702 3.18809 7.08819C3.19235 7.08116 3.19669 7.07394 3.20096 7.06691C3.22059 7.03423 3.24068 7.00151 3.26069 6.96899C3.26724 6.95863 3.27368 6.94799 3.28023 6.93762C3.30438 6.89892 3.32864 6.86049 3.35329 6.82222C3.35412 6.82076 3.35514 6.81938 3.35597 6.81792C3.37987 6.78092 3.40415 6.74408 3.42855 6.70751C3.43166 6.70271 3.43486 6.69772 3.43816 6.693C3.44187 6.68732 3.44569 6.68191 3.44959 6.67631C3.47028 6.64542 3.49143 6.6145 3.5125 6.58376C3.51715 6.5769 3.5218 6.57003 3.52664 6.56324C3.55197 6.5266 3.57768 6.49013 3.6035 6.45392C3.60995 6.44487 3.61641 6.43582 3.62306 6.42685C3.6438 6.39801 3.66465 6.36944 3.68578 6.34076C3.69285 6.33129 3.69982 6.32155 3.7069 6.31208C3.7335 6.27619 3.76028 6.24039 3.78737 6.20493C3.79087 6.20029 3.79429 6.19585 3.7979 6.19148C3.82192 6.16017 3.84613 6.12893 3.87073 6.09786C3.87851 6.08778 3.88641 6.07797 3.89431 6.06817C3.91823 6.03817 3.94216 6.00817 3.96647 5.97833C3.97095 5.97296 3.97523 5.96752 3.97971 5.96216C4.00798 5.92765 4.03645 5.89322 4.06523 5.85914C4.07272 5.85029 4.08022 5.84145 4.08772 5.8326C4.11064 5.80557 4.13368 5.77881 4.15699 5.75193C4.1646 5.74336 4.17209 5.73452 4.1797 5.72594C4.20917 5.69238 4.23855 5.659 4.26851 5.62586C4.27345 5.62047 4.27839 5.61507 4.28333 5.60968C4.30906 5.58132 4.3347 5.55316 4.36073 5.52516C4.36932 5.51587 4.37791 5.50657 4.38668 5.49735C4.41385 5.46825 4.44113 5.43941 4.46879 5.41073C4.47263 5.40691 4.47635 5.40282 4.48008 5.39872C4.51103 5.36645 4.5423 5.33453 4.57394 5.30276C4.5824 5.29432 4.59094 5.28568 4.5994 5.27723C4.62451 5.252 4.6498 5.22686 4.67541 5.20206C4.68336 5.19431 4.69103 5.18666 4.69898 5.17891C4.73104 5.14777 4.7633 5.11671 4.79586 5.086C4.80216 5.08004 4.80838 5.07428 4.81461 5.06851C4.84184 5.04304 4.869 5.01776 4.89654 4.99264C4.90593 4.98413 4.91532 4.97562 4.92459 4.96683C4.95565 4.93866 4.98664 4.91068 5.01792 4.88305C5.02003 4.88122 5.02222 4.8792 5.02434 4.87737C5.02477 4.87687 5.02531 4.87664 5.02574 4.87615C5.05887 4.8468 5.09249 4.81789 5.12603 4.78916C5.13545 4.78112 5.14488 4.77307 5.15457 4.76491C5.18072 4.74259 5.20699 4.72055 5.23337 4.69879C5.24236 4.69124 5.25135 4.68369 5.26053 4.67622C5.29468 4.6482 5.32884 4.62018 5.36349 4.59259C5.36923 4.58798 5.37516 4.58345 5.38091 4.57884C5.41025 4.55537 5.43989 4.53225 5.46954 4.50912C5.47989 4.50101 5.49016 4.49309 5.50062 4.48525C5.52975 4.46282 5.55908 4.44047 5.58852 4.41839C5.59535 4.41332 5.60199 4.40818 5.60882 4.40312C5.64439 4.37659 5.68006 4.35033 5.71613 4.32423C5.72518 4.31761 5.73443 4.31107 5.74376 4.30434C5.77201 4.28402 5.80038 4.26398 5.82875 4.24394C5.83917 4.23675 5.84947 4.2293 5.85989 4.22211C5.89664 4.19652 5.93351 4.17121 5.97068 4.14625C5.97193 4.14541 5.9731 4.14477 5.97415 4.14385C6.01035 4.11961 6.04673 4.09545 6.08315 4.07175C6.09396 4.06473 6.10468 4.0579 6.11529 4.05079C6.14484 4.03169 6.17459 4.01267 6.20453 3.99373C6.21373 3.98785 6.22293 3.98196 6.23225 3.97635C6.27026 3.95264 6.30838 3.92919 6.34661 3.90602C6.35448 3.90117 6.36255 3.89639 6.37061 3.89162C6.40187 3.87277 6.43324 3.8542 6.46499 3.83578C6.47637 3.829 6.48786 3.82248 6.49916 3.81589C6.53297 3.7963 6.56718 3.77687 6.60138 3.75744C6.60695 3.75434 6.61232 3.75115 6.61789 3.74805C6.65723 3.72601 6.6968 3.70452 6.73656 3.68311C6.74726 3.6774 6.75805 3.6715 6.76895 3.66587C6.79991 3.64938 6.83105 3.63297 6.86212 3.61675C6.8731 3.61092 6.884 3.60529 6.8951 3.59974C6.93546 3.57903 6.97602 3.55841 7.01662 3.53824C7.01743 3.5379 7.01833 3.53737 7.01915 3.53704C7.0223 3.53541 7.02537 3.53398 7.02853 3.53235C7.06849 3.51261 7.10885 3.49302 7.14931 3.47371C7.16052 3.46843 7.17173 3.46315 7.18293 3.45787C7.22694 3.43709 7.27125 3.41666 7.31567 3.39651C7.31792 3.39541 7.32037 3.3944 7.32255 3.3935C7.36499 3.37432 7.40793 3.35558 7.45078 3.33703C7.46229 3.3321 7.4738 3.32718 7.48531 3.32225C7.53054 3.30288 7.57588 3.28378 7.62144 3.26522L8.99147 2.70535C8.94583 2.7241 8.90049 2.7432 8.85534 2.76238C8.84383 2.76731 8.83232 2.77223 8.82081 2.77716C8.77796 2.79571 8.73502 2.81445 8.69258 2.83363C8.69032 2.83472 8.68788 2.83574 8.6857 2.83664C8.64128 2.85679 8.59697 2.87722 8.55296 2.898C8.54176 2.90328 8.53055 2.90856 8.51935 2.91384C8.47888 2.93315 8.4386 2.95255 8.39856 2.97248C8.39459 2.97445 8.39062 2.97641 8.38665 2.97837C8.34586 2.99846 8.30549 3.01916 8.26513 3.03987C8.25423 3.0455 8.24305 3.05125 8.23215 3.05688C8.20089 3.07302 8.16994 3.08951 8.13898 3.106C8.12827 3.11171 8.11729 3.11753 8.10659 3.12324C8.06683 3.14465 8.02718 3.16634 7.98792 3.18818C7.98235 3.19128 7.97698 3.19447 7.97141 3.19757C7.93709 3.21673 7.90308 3.23624 7.86919 3.25602C7.8577 3.26253 7.84632 3.26932 7.83502 3.27591C7.80346 3.29441 7.77209 3.31298 7.74064 3.33175C7.73258 3.33652 7.7247 3.34138 7.71664 3.34616C7.67841 3.36933 7.64029 3.39277 7.60228 3.41649C7.59308 3.42237 7.58396 3.42806 7.57456 3.43387C7.5447 3.45261 7.51495 3.47163 7.48532 3.49092C7.47452 3.49795 7.46379 3.50478 7.45319 3.51189C7.41669 3.53577 7.38019 3.55966 7.34418 3.58398C7.34293 3.58482 7.34177 3.58546 7.34071 3.58638C7.30354 3.61134 7.26667 3.63666 7.22992 3.66224C7.2195 3.66943 7.20901 3.67681 7.19878 3.68407C7.17022 3.70403 7.14205 3.72415 7.11379 3.74447C7.10454 3.75101 7.09529 3.75755 7.08616 3.76436C7.05009 3.79046 7.01442 3.81672 6.97885 3.84325C6.97202 3.84831 6.96538 3.85346 6.95855 3.85852C6.92911 3.8806 6.89978 3.90295 6.87065 3.92538C6.86038 3.9333 6.85003 3.94141 6.83957 3.94926C6.80992 3.97238 6.7802 3.99569 6.75094 4.01897C6.7452 4.02358 6.73926 4.02811 6.73352 4.03272C6.69906 4.06039 6.66471 4.08833 6.63056 4.11635C6.62157 4.1239 6.61239 4.13137 6.6034 4.13892C6.57694 4.16088 6.55067 4.18292 6.5246 4.20504C6.51518 4.21309 6.50557 4.22106 6.49606 4.2293C6.46244 4.25821 6.42901 4.2872 6.39569 4.31647C6.39315 4.3188 6.39069 4.32094 6.38814 4.32326C6.35678 4.35108 6.32561 4.37898 6.29455 4.40716C6.28516 4.41567 6.27577 4.42418 6.2663 4.43289C6.23876 4.458 6.21152 4.48348 6.18437 4.50876C6.17806 4.51471 6.17184 4.52048 6.16562 4.52625C6.13306 4.55695 6.10088 4.58782 6.06882 4.61896C6.06087 4.62671 6.05292 4.63447 6.04498 4.64223C6.01956 4.6671 5.99434 4.69206 5.96932 4.71709C5.96078 4.72573 5.95232 4.73418 5.94378 4.74281C5.91233 4.77466 5.88107 4.80658 5.85019 4.83866C5.84627 4.84267 5.84255 4.84677 5.83871 4.85059C5.81124 4.87935 5.78396 4.90818 5.75687 4.9371C5.74802 4.94651 5.73943 4.95581 5.73076 4.96529C5.70501 4.99318 5.67925 5.02107 5.6538 5.04931C5.64878 5.0549 5.64356 5.06041 5.63882 5.06588C5.60905 5.0991 5.57947 5.13239 5.55028 5.16585C5.54259 5.17462 5.53509 5.18346 5.5274 5.19223C5.50417 5.21891 5.48141 5.24555 5.45857 5.2724C5.45107 5.28124 5.4433 5.2902 5.43599 5.29912C5.40722 5.3332 5.37883 5.36744 5.35055 5.40195C5.34608 5.40732 5.34172 5.41295 5.33724 5.41831C5.31301 5.44796 5.28908 5.47796 5.26523 5.50777C5.25726 5.51777 5.24928 5.52777 5.2415 5.53785C5.21717 5.56881 5.19304 5.59985 5.1691 5.63097C5.1656 5.63561 5.16191 5.64017 5.15833 5.645C5.13124 5.68045 5.10446 5.71626 5.07794 5.75195C5.07086 5.76142 5.0639 5.77116 5.05682 5.78063C5.03577 5.80912 5.01511 5.83777 4.99437 5.86661C4.98791 5.87566 4.98119 5.88482 4.97473 5.89387C4.94891 5.93008 4.9232 5.96656 4.89787 6.00319C4.89323 6.01006 4.88858 6.01693 4.88373 6.02372C4.86266 6.05445 4.84159 6.08518 4.82082 6.11626C4.81381 6.12666 4.80679 6.13706 4.79997 6.14754C4.77549 6.1843 4.75129 6.22095 4.7274 6.25795C4.72657 6.25941 4.72554 6.26079 4.72471 6.26225C4.70006 6.30052 4.67572 6.33915 4.65165 6.37766C4.6451 6.38802 4.63866 6.39866 4.63212 6.40902C4.6121 6.44155 4.59217 6.47388 4.57254 6.50656C4.5682 6.51378 4.56385 6.521 4.55951 6.52822C4.53621 6.56705 4.51329 6.60604 4.49057 6.6451C4.485 6.65475 4.47934 6.66458 4.47377 6.67422C4.45539 6.70607 4.4374 6.73808 4.4194 6.77008C4.41402 6.77981 4.40837 6.78964 4.40299 6.79936C4.38095 6.83894 4.3593 6.87868 4.33785 6.9185C4.33381 6.92607 4.32985 6.93345 4.32581 6.94102C4.30783 6.97461 4.29024 7.00836 4.27265 7.04212C4.26698 7.05307 4.26124 7.06422 4.25557 7.07518C4.23472 7.1157 4.21407 7.1563 4.19391 7.19733C4.1932 7.19907 4.19229 7.20072 4.19138 7.20237C4.17186 7.24186 4.15272 7.28152 4.13359 7.32117C4.12823 7.33248 4.12287 7.34379 4.11751 7.3551C4.10078 7.39056 4.08425 7.42611 4.06792 7.46173C4.06493 7.46839 4.06184 7.47477 4.05885 7.48143C4.03993 7.52274 4.02159 7.5643 4.00324 7.60586C3.99858 7.61656 3.99393 7.62726 3.98927 7.63796C3.97458 7.67178 3.96 7.70588 3.94561 7.74006C3.94155 7.74987 3.9374 7.75988 3.93333 7.7697C3.91595 7.81165 3.89857 7.85361 3.88176 7.89581C3.87809 7.90466 3.87481 7.91367 3.87114 7.92252C3.85729 7.9576 3.84351 7.99248 3.83004 8.02771C3.8258 8.03904 3.82129 8.05047 3.81705 8.06179C3.80085 8.10469 3.78493 8.14748 3.76912 8.19054C3.76744 8.19458 3.76616 8.19878 3.76467 8.2029C3.75038 8.24231 3.73639 8.28206 3.72267 8.3217C3.71886 8.33252 3.71525 8.34343 3.71144 8.35425C3.69386 8.40538 3.67675 8.45647 3.66014 8.50799C3.65777 8.51535 3.6554 8.52271 3.65294 8.53026C3.63649 8.5814 3.62043 8.63269 3.60474 8.68415C3.60361 8.68797 3.60248 8.69178 3.60108 8.69571C3.58511 8.7484 3.56983 8.8016 3.55464 8.85461C3.55196 8.86433 3.5491 8.87396 3.54643 8.88368C3.53198 8.93542 3.51792 8.98732 3.50424 9.03938C3.50164 9.04891 3.49924 9.05851 3.49676 9.06831C3.48283 9.12207 3.46928 9.17598 3.4562 9.22987C3.4555 9.23319 3.45461 9.23643 3.45392 9.23975C3.44131 9.29248 3.42901 9.34556 3.41737 9.39869C3.41561 9.40675 3.41373 9.41454 3.41197 9.42261C3.40033 9.47574 3.38915 9.52884 3.37847 9.58236C3.37641 9.59278 3.37435 9.6032 3.37229 9.61362C3.36169 9.66696 3.35139 9.72065 3.34183 9.77419C3.34009 9.78384 3.33835 9.79349 3.33679 9.80322C3.33018 9.84039 3.32377 9.87765 3.31754 9.91498C3.3155 9.92699 3.31357 9.93927 3.31153 9.95127C3.30412 9.99691 3.29701 10.0429 3.29018 10.0888C3.28937 10.0945 3.28857 10.1003 3.28784 10.1058C3.28188 10.1469 3.27619 10.1878 3.27061 10.229C3.26899 10.2417 3.26728 10.2545 3.26566 10.2671C3.26026 10.3095 3.25498 10.3522 3.24996 10.3948C3.24952 10.3991 3.24889 10.4034 3.24845 10.4077C3.24324 10.454 3.23822 10.5004 3.23358 10.547C3.23231 10.5593 3.23114 10.5719 3.23006 10.5843C3.22634 10.6227 3.223 10.6612 3.21966 10.6997C3.21885 10.7093 3.21803 10.7189 3.2173 10.7283C3.21359 10.7748 3.21016 10.8212 3.20711 10.8677C3.20639 10.8787 3.20579 10.89 3.20507 10.9009C3.20263 10.9389 3.20046 10.9768 3.19848 11.0148C3.19795 11.027 3.19722 11.0391 3.19668 11.0512C3.19451 11.0957 3.19261 11.14 3.19109 11.1845C3.19109 11.1872 3.19091 11.1898 3.19091 11.1925C3.18958 11.2343 3.18837 11.2765 3.1877 11.3183C3.18734 11.3317 3.18717 11.3452 3.18701 11.3586C3.18636 11.3918 3.18611 11.425 3.18593 11.4581C3.18573 11.4711 3.18581 11.484 3.18561 11.497C3.1856 11.5416 3.18559 11.5863 3.18616 11.6311C3.18611 11.6345 3.18626 11.638 3.18622 11.6413C3.18683 11.6828 3.18763 11.7244 3.18871 11.7659C3.18893 11.7795 3.18942 11.7931 3.18983 11.8068C3.19089 11.8401 3.19194 11.8735 3.19339 11.907C3.19392 11.9198 3.19438 11.9329 3.19492 11.9457C3.1968 11.9907 3.19896 12.0356 3.20169 12.0807C3.20198 12.0849 3.20228 12.089 3.20258 12.0932C3.20501 12.1341 3.20764 12.1752 3.21065 12.2163C3.21164 12.2303 3.21271 12.244 3.21378 12.2577C3.21639 12.2906 3.21892 12.3237 3.22172 12.3566C3.22284 12.3697 3.22387 12.383 3.22518 12.3962C3.22919 12.4409 3.23339 12.4857 3.23806 12.5305C3.23837 12.5336 3.23869 12.5366 3.23919 12.5398C3.24347 12.5817 3.24821 12.6236 3.25315 12.6655C3.25468 12.6792 3.2564 12.693 3.25813 12.7068C3.26205 12.7398 3.26625 12.7726 3.27064 12.8056C3.27245 12.8192 3.27425 12.8328 3.27606 12.8464C3.28201 12.8908 3.28823 12.9351 3.29484 12.9795C3.29498 12.9803 3.29501 12.9807 3.29516 12.9815C3.3018 13.0264 3.3091 13.0714 3.31639 13.1163C3.31866 13.1299 3.32082 13.1432 3.32309 13.1568C3.3286 13.1897 3.3343 13.2227 3.3402 13.2559C3.34258 13.2697 3.34505 13.2833 3.34762 13.2973C3.35515 13.3389 3.36315 13.3806 3.37114 13.4222C3.37187 13.4259 3.37249 13.4293 3.37321 13.433C3.37711 13.4525 3.38101 13.4719 3.38491 13.4913C3.38855 13.5097 3.39219 13.5282 3.39603 13.5467C3.40015 13.5666 3.40466 13.5868 3.40898 13.6068C3.41286 13.6247 3.41654 13.6424 3.4205 13.6601C3.42493 13.6804 3.42983 13.7007 3.43426 13.721C3.43822 13.7387 3.44206 13.756 3.44622 13.7738C3.45055 13.7927 3.45526 13.8118 3.45986 13.8306C3.46439 13.8496 3.4688 13.8684 3.47332 13.8874C3.47789 13.9057 3.48246 13.9241 3.48711 13.9423C3.49205 13.9619 3.49688 13.9813 3.50182 14.0009C3.50713 14.0218 3.51272 14.0426 3.51822 14.0636C3.52269 14.0806 3.52697 14.0974 3.53152 14.1142C3.53725 14.1358 3.54336 14.1575 3.54937 14.1789C3.55388 14.1952 3.55821 14.2114 3.56292 14.2278C3.57363 14.2656 3.58442 14.3032 3.5956 14.341C3.61208 14.397 3.62919 14.4526 3.64657 14.508C3.65055 14.5207 3.65445 14.5336 3.65863 14.5464C3.67594 14.6009 3.69361 14.6551 3.71163 14.7091C3.71379 14.7158 3.71622 14.7225 3.71846 14.729C3.73573 14.7804 3.75355 14.8315 3.77172 14.8823C3.77565 14.893 3.77931 14.9037 3.78324 14.9144C3.80269 14.9687 3.82275 15.0225 3.84309 15.0763C3.84733 15.0873 3.85148 15.0985 3.85572 15.1095C3.87551 15.1607 3.89538 15.2118 3.9158 15.2627C3.91763 15.2675 3.91955 15.2721 3.92138 15.2769C3.94323 15.3309 3.96551 15.3843 3.98806 15.4376C3.9931 15.4494 3.99813 15.4612 4.00317 15.473C4.02588 15.5259 4.04875 15.5784 4.07224 15.6306C4.07514 15.6372 4.07812 15.6436 4.08129 15.6501C4.1032 15.6984 4.12539 15.7466 4.14801 15.7943C4.15264 15.8044 4.15736 15.8142 4.16199 15.8242C4.18635 15.8754 4.21106 15.9262 4.23612 15.9767C4.24125 15.9872 4.24657 15.9977 4.25198 16.0081C4.27633 16.0565 4.30076 16.1047 4.32581 16.1526C4.32797 16.1566 4.33004 16.1609 4.33231 16.1652C4.36179 16.2214 4.39181 16.2773 4.42207 16.3327C4.42702 16.342 4.43206 16.351 4.4372 16.3604C4.46687 16.4139 4.49669 16.4671 4.52725 16.5201C4.53289 16.5299 4.53873 16.5398 4.54437 16.5496C4.57543 16.603 4.60665 16.6561 4.63857 16.7086C4.64259 16.7152 4.6468 16.7219 4.65093 16.7288C4.68316 16.7816 4.71574 16.8341 4.74867 16.8863C4.75068 16.8896 4.75269 16.8929 4.75497 16.8961C4.7887 16.9491 4.82295 17.0014 4.85746 17.0536C4.86312 17.0623 4.86878 17.0709 4.8747 17.0795C4.90824 17.1297 4.94232 17.1796 4.97675 17.2293C4.9831 17.2385 4.98964 17.2477 4.99598 17.2569C5.03099 17.3068 5.06627 17.3566 5.10207 17.4057C5.10663 17.4121 5.11146 17.4184 5.11603 17.4248C5.15232 17.4743 5.18877 17.5235 5.22584 17.5722C5.22801 17.5751 5.23018 17.5781 5.23235 17.581C5.27003 17.6304 5.30834 17.6794 5.34681 17.7281C5.35317 17.7361 5.35933 17.7441 5.36577 17.7519C5.40318 17.7988 5.44094 17.8453 5.47894 17.8913C5.48599 17.8998 5.49323 17.9085 5.50028 17.917C5.53897 17.9635 5.57801 18.0097 5.61729 18.0553C5.62247 18.0612 5.62766 18.0672 5.63285 18.0732C5.67281 18.1193 5.71302 18.1648 5.75378 18.2101C5.7561 18.2127 5.75824 18.2151 5.76057 18.2177C5.80201 18.2635 5.84388 18.3088 5.88592 18.3537C5.89279 18.3611 5.89966 18.3684 5.90653 18.3758C5.94723 18.419 5.98856 18.4619 6.03004 18.5043C6.03779 18.5123 6.04555 18.5202 6.05338 18.528C6.09544 18.5706 6.13785 18.613 6.1807 18.6549C6.18632 18.6604 6.19213 18.6659 6.19775 18.6714C6.24109 18.7137 6.28486 18.7556 6.32899 18.7971C6.33128 18.7991 6.3335 18.8014 6.33579 18.8035C6.38061 18.8455 6.42574 18.8868 6.47134 18.928C6.47873 18.9346 6.48611 18.9413 6.49349 18.948C6.53757 18.9874 6.5818 19.0265 6.62646 19.0651C6.63473 19.0723 6.64327 19.0795 6.65153 19.0867C6.69677 19.1256 6.74217 19.164 6.78801 19.2019C6.79425 19.207 6.80049 19.212 6.80646 19.2172C6.85299 19.2557 6.89994 19.2936 6.94705 19.3312C6.94924 19.333 6.95142 19.3348 6.95379 19.3367C7.00168 19.3745 7.04999 19.4119 7.09858 19.4492C7.10648 19.4552 7.11418 19.4611 7.12207 19.467C7.16894 19.5025 7.21616 19.5376 7.26354 19.5723C7.2724 19.5787 7.28137 19.5854 7.29023 19.5917C7.33826 19.6265 7.38646 19.6609 7.4349 19.6947C7.44157 19.6993 7.44825 19.7039 7.45503 19.7087C7.50443 19.7429 7.55418 19.7769 7.60409 19.8104C7.60635 19.812 7.6085 19.8133 7.61077 19.815C7.66145 19.8488 7.71264 19.882 7.7638 19.9147C7.77201 19.9199 7.78014 19.9253 7.78836 19.9305C7.83783 19.9618 7.88765 19.9928 7.93745 20.0234C7.94681 20.0291 7.95618 20.0347 7.96555 20.0404C8.016 20.071 8.06661 20.1012 8.11773 20.1308C8.12483 20.1348 8.13194 20.1389 8.13904 20.143C8.19105 20.1731 8.24329 20.2026 8.29569 20.2318C8.29792 20.2329 8.30007 20.2343 8.3023 20.2354C8.35547 20.2649 8.40896 20.2936 8.4628 20.322C8.47133 20.3264 8.47998 20.3311 8.48851 20.3356C8.5402 20.3626 8.59225 20.3894 8.64453 20.4155C8.65422 20.4205 8.66418 20.4253 8.67386 20.4302C8.72661 20.4563 8.77944 20.4823 8.83258 20.5074C8.84012 20.511 8.84747 20.5145 8.855 20.5181C8.9093 20.5437 8.96396 20.5691 9.01893 20.5937C9.02104 20.5945 9.02297 20.5953 9.02501 20.5964C9.08055 20.6212 9.13634 20.6455 9.19229 20.6693C9.20114 20.673 9.20991 20.6768 9.21857 20.6804C9.27229 20.7031 9.32644 20.7253 9.38056 20.7471C9.39076 20.7513 9.40103 20.7553 9.41112 20.7593C9.4657 20.781 9.52052 20.8021 9.5755 20.8229C9.58328 20.8259 9.59114 20.8287 9.59872 20.8316C9.65513 20.8527 9.71197 20.8733 9.76885 20.8933C9.77058 20.894 9.77231 20.8947 9.77432 20.8953C9.83178 20.9155 9.88956 20.935 9.94731 20.9539C9.9564 20.957 9.96538 20.9598 9.97447 20.9629C10.0301 20.981 10.0857 20.9986 10.1415 21.0157C10.1519 21.0189 10.1625 21.0221 10.1729 21.0253C10.2292 21.0423 10.2855 21.0589 10.342 21.0749C10.3501 21.0771 10.3584 21.0794 10.3665 21.0816C10.4247 21.0978 10.4831 21.1137 10.5417 21.1289C10.5433 21.1294 10.5449 21.1298 10.5465 21.1303C10.6056 21.1455 10.6649 21.1602 10.7245 21.1742C10.7337 21.1765 10.7427 21.1786 10.7519 21.1809C10.8088 21.1943 10.866 21.2069 10.9233 21.2194C10.9341 21.2216 10.9448 21.224 10.9557 21.2263C11.0133 21.2384 11.0709 21.2501 11.1287 21.2612C11.1371 21.2629 11.1455 21.2643 11.1538 21.266C11.2136 21.2772 11.2734 21.288 11.3333 21.2981C11.3348 21.2983 11.3362 21.2987 11.3377 21.2989C11.3982 21.309 11.4588 21.3184 11.5195 21.3275C11.5288 21.3289 11.538 21.3302 11.5473 21.3316C11.6056 21.34 11.6639 21.3479 11.7222 21.3551C11.7332 21.3565 11.7441 21.3579 11.755 21.3592C11.8136 21.3664 11.8724 21.3731 11.9312 21.379C11.9399 21.3799 11.9485 21.3808 11.9572 21.3817C12.018 21.3877 12.0791 21.3934 12.1404 21.3982C12.1415 21.3983 12.1427 21.3985 12.1439 21.3986C12.2054 21.4035 12.267 21.4076 12.3287 21.4111C12.338 21.4116 12.3474 21.4123 12.3567 21.4128C12.4157 21.416 12.4748 21.4188 12.5341 21.4209C12.5452 21.4212 12.5563 21.4217 12.5674 21.4221C12.6268 21.4241 12.6864 21.4256 12.746 21.4264C12.7548 21.4264 12.7636 21.4264 12.7725 21.4267C12.8344 21.4274 12.8963 21.4277 12.9583 21.4271C12.9592 21.427 12.9601 21.4271 12.961 21.4271C13.0233 21.4265 13.0856 21.425 13.1482 21.4232C13.1575 21.423 13.1669 21.4226 13.1762 21.4224C13.2359 21.4205 13.2955 21.418 13.3553 21.4147C13.3665 21.4142 13.3776 21.4136 13.3889 21.4129C13.4489 21.4096 13.5087 21.4057 13.5687 21.4012C13.5775 21.4006 13.5866 21.3999 13.5955 21.3991C13.658 21.3941 13.7206 21.3889 13.7832 21.3825C13.7839 21.3826 13.7844 21.3824 13.7851 21.3824C13.8478 21.3762 13.9107 21.3691 13.9736 21.3615C13.9829 21.3604 13.9921 21.3593 14.0016 21.3582C14.0615 21.3508 14.1216 21.3428 14.1815 21.3343C14.1928 21.3326 14.2041 21.331 14.2152 21.3292C14.2751 21.3205 14.3354 21.3112 14.3954 21.3011C14.4046 21.2997 14.4136 21.2981 14.4227 21.2964C14.4855 21.2857 14.5485 21.2745 14.6112 21.2624C14.6114 21.2625 14.6117 21.2624 14.612 21.2623C14.6749 21.2502 14.7377 21.2373 14.8006 21.2239C14.81 21.2219 14.8191 21.22 14.8285 21.218C14.8884 21.205 14.9484 21.1913 15.0084 21.1771C15.0196 21.1746 15.0309 21.1718 15.0422 21.169C15.1023 21.1547 15.1622 21.1396 15.2221 21.1238C15.2312 21.1215 15.2404 21.119 15.2494 21.1167C15.3123 21.0999 15.3753 21.0827 15.4381 21.0645C15.7614 20.9714 16.0758 20.8619 16.3805 20.7374L15.0105 21.2973C14.7057 21.4218 14.3915 21.5311 14.0681 21.6244C14.0051 21.6425 13.9423 21.6597 13.8794 21.6765C13.8703 21.6789 13.8612 21.6814 13.8521 21.6837C13.7921 21.6995 13.7322 21.7146 13.6722 21.7289C13.6609 21.7317 13.6497 21.7342 13.6384 21.737C13.5784 21.7512 13.5184 21.7649 13.4584 21.7779C13.4492 21.78 13.4399 21.7817 13.4307 21.7838C13.3679 21.7972 13.3049 21.8101 13.2419 21.8222C13.2417 21.8221 13.2415 21.8222 13.2412 21.8223C13.1783 21.8343 13.1155 21.8455 13.0524 21.8562C13.0435 21.8576 13.0344 21.8593 13.0252 21.8609C12.9651 21.871 12.9049 21.8803 12.8448 21.8892C12.8336 21.8909 12.8223 21.8925 12.8113 21.894C12.7514 21.9026 12.6913 21.9106 12.6314 21.918C12.6221 21.9192 12.6127 21.9202 12.6034 21.9213C12.5405 21.9289 12.4778 21.936 12.4151 21.9421C12.4145 21.942 12.4139 21.9423 12.4132 21.9422C12.3507 21.9483 12.2881 21.9537 12.2256 21.9587C12.2167 21.9596 12.2077 21.9601 12.1988 21.9609C12.1388 21.9654 12.0788 21.9692 12.019 21.9726C12.0079 21.9732 11.9966 21.9739 11.9853 21.9744C11.9256 21.9776 11.8659 21.9802 11.8061 21.982C11.7967 21.9824 11.7874 21.9826 11.778 21.9828C11.7155 21.9846 11.6531 21.9861 11.5909 21.9867C11.59 21.9865 11.5893 21.9867 11.5886 21.9866C11.5264 21.9872 11.4645 21.9871 11.4026 21.9862C11.3938 21.9862 11.385 21.9862 11.3763 21.9859C11.3167 21.9851 11.2574 21.9836 11.1979 21.9817C11.1868 21.9814 11.1757 21.9811 11.1644 21.9804C11.1052 21.9782 11.046 21.9756 10.9871 21.9721C10.9778 21.9717 10.9684 21.9709 10.9591 21.9705C10.8973 21.9667 10.8357 21.9626 10.7741 21.9579C10.7729 21.9578 10.7717 21.9576 10.7706 21.9575C10.7095 21.9527 10.6483 21.947 10.5874 21.9409C10.5788 21.9401 10.5703 21.9393 10.5616 21.9384C10.5028 21.9323 10.444 21.9257 10.3854 21.9186C10.3745 21.9172 10.3636 21.9159 10.3526 21.9145C10.2943 21.9072 10.236 21.8993 10.1777 21.891C10.1684 21.8896 10.159 21.8882 10.1499 21.8869C10.0891 21.8779 10.0286 21.8684 9.9681 21.8582C9.96659 21.858 9.96517 21.8577 9.96366 21.8575C9.90383 21.8474 9.84385 21.8365 9.78423 21.8253C9.77589 21.8237 9.76729 21.8222 9.75895 21.8205C9.70111 21.8094 9.6435 21.7977 9.58586 21.7855C9.57506 21.7833 9.56433 21.7809 9.55372 21.7788C9.49636 21.7665 9.43923 21.7537 9.38207 21.7404C9.37304 21.7382 9.36383 21.7359 9.3548 21.7338C9.29525 21.7197 9.23594 21.7051 9.17687 21.6898C9.17525 21.6894 9.17363 21.6889 9.17201 21.6885C9.1134 21.6732 9.05496 21.6576 8.99664 21.6411C8.98854 21.6389 8.98045 21.6366 8.97235 21.6344C8.91584 21.6184 8.85938 21.6018 8.80308 21.5848C8.79267 21.5816 8.78207 21.5784 8.77167 21.5752C8.71583 21.5581 8.66004 21.5404 8.60441 21.5223C8.59524 21.5194 8.58634 21.5164 8.57725 21.5133C8.51931 21.4943 8.4618 21.4748 8.40426 21.4547C8.40252 21.454 8.40079 21.4533 8.39879 21.4527C8.3419 21.4327 8.28534 21.412 8.22885 21.3911C8.22107 21.3881 8.21322 21.3853 8.20517 21.3824C8.15019 21.3617 8.09537 21.3405 8.04078 21.3188C8.03059 21.3146 8.02042 21.3108 8.01022 21.3066C7.95611 21.2849 7.90196 21.2627 7.84824 21.2399C7.83939 21.2363 7.83061 21.2324 7.82196 21.2288C7.76601 21.205 7.71022 21.1807 7.65467 21.1559C7.65255 21.155 7.65063 21.1542 7.64859 21.1532C7.59362 21.1286 7.53916 21.1033 7.48467 21.0776C7.47713 21.074 7.4697 21.0707 7.46225 21.0669C7.4091 21.0418 7.35627 21.0158 7.30353 20.9897C7.29384 20.9848 7.28388 20.98 7.27419 20.9751C7.22191 20.9489 7.16987 20.9221 7.11817 20.8951C7.10964 20.8906 7.10119 20.886 7.09266 20.8816C7.03881 20.8532 6.98533 20.8245 6.93196 20.7949C6.92973 20.7938 6.92758 20.7924 6.92535 20.7913C6.87268 20.7623 6.82052 20.7325 6.76852 20.7024C6.76141 20.6983 6.75431 20.6943 6.7472 20.6902C6.69616 20.6605 6.64547 20.6305 6.59502 20.5999C6.58565 20.5942 6.57629 20.5885 6.56692 20.5828C6.51685 20.5524 6.46722 20.5214 6.41763 20.4898C6.40942 20.4846 6.40129 20.4792 6.39307 20.474C6.34172 20.4413 6.29072 20.4082 6.24005 20.3743C6.2379 20.373 6.23563 20.3714 6.23356 20.3698C6.18357 20.3365 6.13382 20.3026 6.08431 20.2681C6.07764 20.2635 6.07096 20.2589 6.06418 20.2541C6.01574 20.2203 5.96754 20.1859 5.9195 20.1511C5.91065 20.1447 5.90168 20.1381 5.89282 20.1317C5.84536 20.0971 5.79814 20.062 5.75135 20.0264C5.74346 20.0204 5.73575 20.0145 5.72786 20.0086C5.67938 19.9716 5.63088 19.9341 5.58299 19.8962C5.58081 19.8944 5.57863 19.8926 5.57625 19.8907C5.52914 19.8532 5.48218 19.8152 5.43566 19.7768C5.42942 19.7717 5.42318 19.7666 5.41702 19.7614C5.37118 19.7235 5.32578 19.685 5.28054 19.6462C5.27227 19.639 5.26374 19.6318 5.25547 19.6245C5.21081 19.586 5.16657 19.5469 5.1225 19.5074C5.11512 19.5008 5.10773 19.4941 5.10035 19.4874C5.05494 19.4463 5.00962 19.405 4.96499 19.363C4.9627 19.361 4.96029 19.3586 4.95799 19.3565C4.91387 19.315 4.87029 19.2733 4.82695 19.231C4.82133 19.2255 4.81552 19.2199 4.8099 19.2144C4.76705 19.1726 4.72483 19.1303 4.68277 19.0876C4.67502 19.0796 4.66718 19.0719 4.65943 19.0639C4.61795 19.0215 4.57662 18.9787 4.53592 18.9354C4.52905 18.9281 4.52218 18.9207 4.51531 18.9134C4.47308 18.8683 4.43121 18.823 4.38996 18.7773C4.38763 18.7748 4.38549 18.7723 4.38317 18.7698C4.34234 18.7247 4.30221 18.6789 4.26216 18.633C4.25697 18.6271 4.25178 18.6211 4.2466 18.6151C4.20713 18.5694 4.16809 18.5233 4.1294 18.4768C4.12235 18.4682 4.11511 18.4596 4.10806 18.451C4.06987 18.405 4.03211 18.3585 3.9947 18.3116C3.98834 18.3036 3.98209 18.2958 3.97573 18.2877C3.93727 18.2391 3.89896 18.1901 3.86127 18.1407C3.8591 18.1377 3.85674 18.1347 3.85458 18.1318C3.8175 18.0831 3.78105 18.0339 3.74476 17.9844C3.7402 17.978 3.73556 17.9718 3.73091 17.9656C3.6952 17.9163 3.65984 17.8666 3.62483 17.8167C3.61829 17.8075 3.61195 17.7983 3.6056 17.7892C3.57117 17.7395 3.5372 17.6898 3.50355 17.6393C3.4979 17.6307 3.49216 17.6222 3.4865 17.6135C3.45199 17.5614 3.41755 17.509 3.38401 17.4561C3.38192 17.4529 3.37991 17.4496 3.3779 17.4463C3.3447 17.3942 3.3122 17.3415 3.27997 17.2887C3.27576 17.282 3.27174 17.2754 3.26761 17.2685C3.23577 17.2158 3.20436 17.1627 3.17341 17.1095C3.16777 17.0997 3.16193 17.0899 3.15637 17.0799C3.12592 17.0271 3.09591 16.9739 3.06624 16.9203C3.06121 16.9112 3.05606 16.9019 3.05111 16.8926C3.02066 16.8372 2.99075 16.7815 2.96135 16.7251C2.96082 16.7242 2.96029 16.7233 2.95984 16.7222C2.95802 16.719 2.95648 16.7156 2.95493 16.7123C2.92988 16.6645 2.90545 16.6163 2.88129 16.5679C2.87616 16.5574 2.87075 16.5471 2.86562 16.5366C2.84056 16.4861 2.81566 16.4352 2.79138 16.3839C2.78667 16.374 2.78204 16.364 2.77732 16.3541C2.75478 16.3062 2.73251 16.2582 2.71068 16.2097C2.70778 16.2031 2.70481 16.1967 2.70183 16.1903C2.67842 16.138 2.65535 16.0853 2.63264 16.0324C2.6276 16.0206 2.62257 16.0088 2.61772 15.9971C2.59517 15.9438 2.5727 15.8903 2.55105 15.8365C2.54913 15.8318 2.5473 15.827 2.54546 15.8222C2.52504 15.7713 2.50498 15.7202 2.48538 15.669C2.48115 15.658 2.47672 15.6469 2.47257 15.6357C2.45222 15.582 2.43216 15.5281 2.41271 15.4738C2.40878 15.4632 2.40513 15.4524 2.40139 15.4418C2.38322 15.391 2.3654 15.3399 2.34793 15.2885C2.34617 15.2834 2.34453 15.2787 2.34277 15.2737C2.34218 15.2719 2.34158 15.27 2.34098 15.2682C2.32277 15.2142 2.30511 15.16 2.28779 15.1055C2.28381 15.0928 2.27983 15.0801 2.27585 15.0674C2.25847 15.0119 2.24136 14.9563 2.22488 14.9004C2.2137 14.8626 2.2028 14.8247 2.19228 14.787C2.18828 14.7727 2.18447 14.7585 2.18039 14.7444C2.17395 14.7207 2.16724 14.6972 2.1608 14.6736C2.15651 14.6578 2.15249 14.6419 2.14827 14.626C2.14251 14.604 2.13648 14.5821 2.13091 14.5602C2.12637 14.5423 2.12202 14.5245 2.11749 14.5066C2.11243 14.4867 2.10738 14.4668 2.10241 14.4467C2.09806 14.4288 2.09383 14.4113 2.08968 14.3936C2.08498 14.3734 2.08 14.3533 2.0753 14.3331C2.07133 14.3165 2.06782 14.3 2.06393 14.2832C2.05904 14.2618 2.05409 14.2406 2.0494 14.2193C2.04558 14.2024 2.04215 14.1856 2.03861 14.1686C2.03423 14.1476 2.02957 14.1267 2.02519 14.1057C2.02151 14.088 2.01801 14.0703 2.01432 14.0525C2.01028 14.0324 2.00596 14.0123 2.00219 13.992C2.00196 13.9915 2.00201 13.9908 2.00178 13.9903C2.0012 13.9873 2.00081 13.9845 2.00015 13.9817C1.99196 13.94 1.98405 13.8981 1.97659 13.8563C1.97413 13.8426 1.97175 13.8288 1.96929 13.8151C1.96339 13.782 1.95769 13.749 1.95206 13.7158C1.94971 13.7024 1.94764 13.6889 1.94529 13.6755C1.93799 13.6306 1.93077 13.5854 1.92414 13.5405C1.9241 13.54 1.92388 13.5395 1.92384 13.539C1.91723 13.4946 1.9109 13.45 1.90495 13.4056C1.90315 13.392 1.90126 13.3786 1.89965 13.3651C1.89526 13.3321 1.89114 13.2991 1.88722 13.2661C1.88549 13.2523 1.88388 13.2388 1.88235 13.2251C1.87741 13.1831 1.87275 13.141 1.86827 13.099C1.86796 13.096 1.86757 13.0931 1.86726 13.0901C1.86259 13.0453 1.85847 13.0003 1.85446 12.9555C1.85334 12.9425 1.85223 12.9294 1.85111 12.9163C1.84831 12.8833 1.84559 12.8502 1.84317 12.8174C1.84249 12.8092 1.84182 12.801 1.84115 12.7929C1.84075 12.7873 1.84036 12.7817 1.84004 12.7759C1.83722 12.7349 1.83432 12.694 1.83197 12.6529C1.83167 12.6487 1.83137 12.6445 1.83108 12.6403C1.82854 12.5953 1.82639 12.5504 1.82431 12.5054C1.82377 12.4925 1.82332 12.4795 1.82278 12.4666C1.82153 12.4332 1.82028 12.3997 1.81922 12.3664C1.81881 12.3527 1.81832 12.3392 1.8181 12.3256C1.81703 12.2841 1.81623 12.2425 1.81562 12.201C1.81566 12.1976 1.81551 12.1941 1.81555 12.1908C1.81498 12.1459 1.81499 12.1012 1.815 12.0566C1.81493 12.0437 1.81513 12.0307 1.81525 12.0179C1.8155 11.9847 1.81587 11.9517 1.81632 11.9185C1.81648 11.905 1.81665 11.8915 1.81701 11.8782C1.81795 11.8362 1.8189 11.7942 1.82022 11.7523C1.82041 11.7497 1.82041 11.747 1.8204 11.7443C1.82192 11.6998 1.82382 11.6555 1.82599 11.6111C1.82613 11.6064 1.82626 11.6017 1.82659 11.5971C1.82699 11.5896 1.82739 11.5821 1.8278 11.5746C1.82977 11.5366 1.83202 11.4986 1.83419 11.4607C1.83491 11.4497 1.83551 11.4384 1.83623 11.4275C1.83928 11.3809 1.84279 11.3344 1.84642 11.288C1.84723 11.2785 1.84797 11.2691 1.84878 11.2595C1.85193 11.2209 1.85546 11.1824 1.85918 11.1441C1.86026 11.1317 1.86162 11.1191 1.8627 11.1067C1.86734 11.0602 1.87208 11.0139 1.87757 10.9674C1.87801 10.9631 1.87864 10.9589 1.87908 10.9545C1.8839 10.9119 1.8893 10.8695 1.89478 10.8269C1.8964 10.8142 1.89803 10.8016 1.89973 10.7888C1.90531 10.7476 1.91081 10.7066 1.91677 10.6655C1.91757 10.6598 1.9183 10.6542 1.91911 10.6484C1.92594 10.6026 1.93304 10.5566 1.94053 10.5107C1.94258 10.4987 1.94443 10.4867 1.94639 10.4748C1.9527 10.4373 1.959 10.3998 1.96569 10.3624C1.96697 10.3555 1.96806 10.3485 1.96935 10.3416C1.96973 10.3391 1.97038 10.3364 1.97076 10.3339C1.9804 10.2801 1.99069 10.2264 2.00129 10.1731C2.00335 10.1627 2.00542 10.1523 2.00748 10.1418L2.00658 10.1424Z" fill="currentColor" stroke="currentColor" stroke-width="0.075"/>
<path fill-rule="evenodd" clip-rule="evenodd" d="M11.1996 8.13081C10.6941 9.78027 10.2708 11.1565 10.259 11.1891C10.2422 11.2354 10.4869 11.2483 11.3832 11.2483C12.0134 11.2483 12.5289 11.2643 12.5289 11.2839C12.5288 11.3034 12.431 11.5755 12.3115 11.8884C12.192 12.2014 11.6444 13.6522 11.0946 15.1126C10.5448 16.573 10.0835 17.7892 10.0695 17.8152C10.0556 17.8413 10.0763 17.8307 10.1155 17.7915C10.2014 17.706 15.8559 9.65126 15.8559 9.61446C15.8559 9.60038 15.257 9.58881 14.5251 9.58881C13.7932 9.58881 13.1943 9.57805 13.1943 9.56487C13.1943 9.5358 13.348 9.16981 14.3055 6.91904C14.7138 5.95917 15.0479 5.16436 15.0479 5.15284C15.0479 5.14127 14.3888 5.13184 13.5833 5.13184H12.1186L11.1996 8.13081ZM10.5427 6.59913C9.6164 6.9637 8.67052 7.72067 8.10723 8.5482C7.82192 8.9673 7.51504 9.63774 7.36965 10.1594C7.19043 10.8025 7.15417 11.9238 7.29147 12.5759C7.59346 14.0104 8.38022 15.1872 9.56945 15.9834C9.73232 16.0925 9.89453 16.1928 9.92999 16.2064C9.97571 16.2239 10.0346 16.1113 10.1329 15.8186C10.2358 15.5123 10.2561 15.401 10.2117 15.3858C10.084 15.342 9.58409 14.9444 9.32364 14.6796C8.5036 13.8458 8.05561 12.7467 8.05062 11.5565C8.04359 9.88686 8.88045 8.46745 10.3717 7.61963L10.7448 7.40745L10.8755 6.99272C11.0704 6.37419 11.0813 6.38714 10.5427 6.59913ZM14.9795 6.98945C14.943 7.07607 14.8685 7.25008 14.8141 7.37611C14.7597 7.50214 14.7152 7.61115 14.7152 7.61831C14.7152 7.62547 14.8489 7.71366 15.0123 7.81422C15.3758 8.03812 15.9639 8.61269 16.2218 8.99613C16.7662 9.80549 17.0113 10.6043 17.0073 11.5565C17.0034 12.4764 16.7649 13.2668 16.2651 14.0162C15.4232 15.2785 14.0099 16.0372 12.5003 16.0372H12.1515L11.8927 16.4043C11.7287 16.637 11.653 16.7832 11.686 16.8036C11.8016 16.8748 12.6358 16.8993 13.1027 16.8451C15.0966 16.6139 16.8179 15.293 17.5081 13.4646C17.7913 12.7145 17.8651 12.2443 17.8373 11.3669C17.8086 10.4587 17.6936 9.97334 17.3311 9.23007C16.8547 8.25305 16.1038 7.45563 15.1063 6.86754C15.0658 6.84365 15.024 6.88381 14.9795 6.98945Z" fill="currentColor" stroke="currentColor" stroke-width="0.075"/>
<circle cx="21.6745" cy="2.92598" r="1.8" fill="currentColor"/>
</g>
</g>
<defs>
<clipPath id="clip0_6029_10375">
<rect width="24" height="24" fill="currentColor"/>
</clipPath>
<clipPath id="clip1_6029_10375">
<rect width="24" height="24" fill="currentColor"/>
</clipPath>
</defs>
</svg>
