<svg width="24" height="24" viewBox="0 0 24 24" fill="none" xmlns="http://www.w3.org/2000/svg">
<g clip-path="url(#clip0_2177_8860)">
<path d="M18.299 7.35983C17.9304 7.03448 17.6664 6.61198 17.5144 6.10402L17.247 5.21023C17.5291 5.03882 17.7179 4.72855 17.7179 4.37503V2.8125C17.7179 2.27402 17.2799 1.83594 16.7414 1.83594H7.25859C6.72011 1.83594 6.28203 2.27402 6.28203 2.8125V4.375C6.28203 4.7282 6.4705 5.0382 6.75218 5.20972L6.48519 6.10335C6.33332 6.61163 6.06933 7.03436 5.70062 7.35987C4.99184 7.9855 4.61719 8.81589 4.61719 9.76127V18.9063C4.61719 20.5217 5.93144 21.8359 7.54687 21.8359H16.4531C18.0685 21.8359 19.3828 20.5217 19.3828 18.9063V9.76155C19.3828 8.81596 19.0081 7.98546 18.299 7.35983ZM7.45394 3.00781H16.5461V4.17968H16.5029C16.5028 4.17968 16.5031 4.17968 16.5029 4.17968H7.49644C7.49628 4.17968 7.4966 4.17968 7.49644 4.17968H7.45394V3.00781ZM9.65624 11.2695C9.65624 9.97717 10.7076 8.92577 12 8.92577C13.2923 8.92577 14.3437 9.97717 14.3437 11.2695C14.3437 12.5619 13.2923 13.6133 12 13.6133C10.7077 13.6133 9.65624 12.5619 9.65624 11.2695ZM15.0847 14.8047V15.9765H8.91534V14.8047H15.0847ZM14.5365 18.3203H8.36718V17.1484H14.5365V18.3203ZM8.91534 19.4922H15.0847V20.664H8.91534V19.4922ZM18.2109 18.9063C18.2109 19.8755 17.4224 20.6641 16.4531 20.6641H16.2565V18.9063C16.2565 18.5954 16.0143 18.3418 15.7084 18.3222V17.1465C16.0143 17.127 16.2565 16.8733 16.2565 16.5625V14.2188C16.2565 13.8952 15.9942 13.6328 15.6706 13.6328H14.6006C15.1688 13.0081 15.5156 12.1785 15.5156 11.2695C15.5156 9.331 13.9385 7.75389 12 7.75389C10.0615 7.75389 8.48437 9.331 8.48437 11.2695C8.48437 12.1785 8.83116 13.0081 9.39941 13.6328H8.32937C8.00577 13.6328 7.74343 13.8951 7.74343 14.2187V15.9784C7.43757 15.9981 7.19531 16.2517 7.19531 16.5625V18.9062C7.19531 19.217 7.43753 19.4707 7.74343 19.4902V20.664H7.54687C6.57761 20.664 5.78906 19.8755 5.78906 18.9062V9.76127C5.78906 9.15319 6.02019 8.64085 6.47609 8.23843C7.0116 7.76573 7.39242 7.16026 7.608 6.43886L7.93288 5.35156H16.0661L16.3917 6.43983C16.6074 7.16085 16.9883 7.766 17.5237 8.23846C17.9797 8.64089 18.211 9.15331 18.211 9.76151L18.2109 18.9063Z" fill="currentColor"/>
</g>
<defs>
<clipPath id="clip0_2177_8860">
<rect width="24" height="24" fill="currentColor"/>
</clipPath>
</defs>
</svg>
