<svg width="135" height="40" viewBox="0 0 135 40" fill="none" xmlns="http://www.w3.org/2000/svg">
<path d="M20.059 -0.000158306C18.9434 2.84094 17.7525 5.6922 16.5254 8.56295L14.8653 12.3687L13.1857 8.56295C11.9193 5.6922 10.7054 2.84094 9.56699 -0.000158306H0.275405V0.744506C1.30564 0.744506 2.15218 1.60422 2.15218 2.66384C2.00115 4.62572 1.83723 6.59118 1.63706 8.56295L1.02035 14.5538C0.724897 17.4212 0.390181 20.2788 0 23.1166H2.96906C3.15275 20.2788 3.3823 17.4212 3.67116 14.5538L4.58662 5.52141C5.90544 8.2675 7.16851 11.0301 8.39233 13.7992L8.73034 14.5538C10 17.4212 11.2073 20.2788 12.3523 23.1166H13.2513C14.3733 20.2788 15.5611 17.4212 16.7945 14.5538L17.3294 13.3234C18.5269 10.5542 19.7735 7.79193 21.0596 5.04913L22.0275 14.5538C22.3164 17.4212 22.5558 20.2788 22.7296 23.1166H29.5604C29.1667 20.2788 28.8286 17.4212 28.5401 14.5538L27.9299 8.56295C27.6444 5.6922 27.3983 2.84094 27.2311 -0.000158306H20.059Z" fill="currentColor"/>
<path d="M50.6996 20.82C51.4442 19.4026 52.2482 17.969 53.1011 16.5352L61.3984 2.72617V2.14213H43.1406V6.39074H43.8622C43.8622 5.36709 44.6497 4.53044 45.6338 4.46811C46.2047 4.44862 46.7725 4.43873 47.3335 4.43873H53.2257C52.4942 5.82647 51.7133 7.22739 50.8701 8.62831L42.5302 22.5359V23.1166H62.2219V20.6495C60.8374 20.761 59.4332 20.82 58.0356 20.82H50.6996Z" fill="currentColor"/>
<path d="M84.4526 23.1161C84.5116 23.1128 84.5707 23.1062 84.6264 23.1029C84.5182 21.6855 84.4526 20.2651 84.4526 18.8346V13.6378H92.6055V18.8346C92.6055 20.2651 92.5563 21.6987 92.4481 23.1161H98.7276C98.6128 21.6987 98.5603 20.2651 98.5603 18.8346V6.42647C98.5603 4.98602 98.6128 3.56231 98.7276 2.13832H90.7224V2.80117H90.9028C91.7952 2.80117 92.5138 3.50629 92.5761 4.39896C92.5956 5.07141 92.6055 5.74716 92.6055 6.42647V11.3379H84.4526V6.42647C84.4526 4.98602 84.505 3.56231 84.6198 2.13832H76.6179V2.80117H76.7918C77.6808 2.80117 78.4027 3.49998 78.4651 4.38907C78.4881 5.06811 78.501 5.74386 78.501 6.42647V20.9508C77.6776 21.0557 76.831 21.1051 75.9749 21.1051C75.0528 21.1051 74.1442 21.0329 73.2584 20.8884C70.7452 20.4093 70.3448 18.0504 70.3448 16.5805V6.30511C70.3448 4.91051 70.4072 3.52277 70.5123 2.13832H62.5102V2.80117H62.6807C63.5731 2.80117 64.2884 3.49998 64.3507 4.38578C64.3738 5.06812 64.387 5.74386 64.387 6.42647V15.5865C64.387 17.647 65.0396 22.2007 70.6304 23.0274C72.3756 23.2671 74.1604 23.4047 75.9749 23.4047C78.8226 23.4047 81.6508 23.3031 84.4526 23.1161Z" fill="currentColor"/>
<path d="M125.606 12.6304C125.606 19.7761 119.428 23.4047 113.342 23.4047C107.256 23.4047 101.091 19.7761 101.091 12.6304C101.091 5.48136 107.256 1.85276 113.342 1.85276C119.428 1.85276 125.606 5.48136 125.606 12.6304ZM119.628 12.6304C119.622 8.73598 117.994 4.15266 113.342 4.15266C108.696 4.15266 107.063 8.73598 107.063 12.6304C107.063 16.5215 108.696 21.1048 113.342 21.1048C117.994 21.1048 119.622 16.5215 119.628 12.6304Z" fill="currentColor"/>
<path d="M39.6891 6.42698C39.6891 4.9868 39.7415 3.56282 39.8629 2.13883H31.6477V2.88377H31.8182C32.8814 2.88377 33.7114 3.74321 33.7114 4.81271C33.7276 5.3443 33.7342 5.88248 33.7342 6.42698V18.8351C33.7342 20.2656 33.6785 21.6995 33.5835 23.1166H39.8629C39.7415 21.6995 39.6891 20.2656 39.6891 18.8351V6.42698Z" fill="currentColor"/>
<path d="M11.4247 34.6389C27.9669 30.9315 45.1584 28.973 62.8094 28.973C87.7277 28.973 111.773 32.7097 134.424 39.6586C134.509 39.6849 134.558 39.7637 134.542 39.8588C134.523 39.9474 134.427 40.0164 134.339 39.9966C111.061 36.1546 87.2189 33.9632 62.9308 33.5398C45.5816 33.2347 28.4391 33.8482 11.5361 35.3114C11.3656 35.3279 11.2146 35.2197 11.1688 35.0525C11.1262 34.8685 11.241 34.6815 11.4247 34.6389Z" fill="currentColor"/>
</svg>
