<svg width="24" height="24" viewBox="0 0 24 24" fill="none" xmlns="http://www.w3.org/2000/svg">
<g clip-path="url(#clip0_6027_6150)">
<g clip-path="url(#clip1_6027_6150)">
<mask id="mask0_6027_6150" style="mask-type:luminance" maskUnits="userSpaceOnUse" x="14" y="2" width="1" height="1">
<path d="M14.7305 2.29395L14.1964 2.28431C14.1851 2.2838 14.1749 2.28333 14.1635 2.28386L14.6975 2.2935C14.7088 2.29401 14.7192 2.29343 14.7305 2.29395Z" fill="currentColor"/>
</mask>
<g mask="url(#mask0_6027_6150)">
<path d="M14.7305 2.29395L14.1964 2.28431C14.1964 2.28431 14.1934 2.28417 14.1923 2.28412L14.7264 2.29376C14.7264 2.29376 14.7294 2.2939 14.7305 2.29395Z" fill="currentColor"/>
<path d="M14.7271 2.29395L14.193 2.28431C14.1838 2.28389 14.1735 2.28342 14.1642 2.28405L14.6982 2.29368C14.7075 2.29411 14.7178 2.29457 14.7271 2.29395Z" fill="currentColor"/>
</g>
<path d="M14.6953 2.29492L14.1603 2.28419L7.27535 2.36909L7.80937 2.37873L14.6953 2.29492Z" fill="currentColor"/>
<path d="M6.03588 3.75353C6.06738 3.24405 6.33493 2.72955 6.78961 2.49221C6.93942 2.41373 7.10718 2.37082 7.27512 2.36901L7.80914 2.37864C7.05801 2.38754 6.55073 3.16815 6.56531 3.8862L6.59364 20.2495C6.59421 20.3949 6.61235 20.5389 6.64712 20.6796C6.77762 21.227 7.23608 21.7188 7.81033 21.7271C7.69009 21.7217 7.23159 21.7271 7.12357 21.7021C6.66656 21.6296 6.30705 21.2487 6.15697 20.8142C6.15697 20.8142 6.15702 20.8131 6.15707 20.8121C6.15712 20.811 6.15721 20.8089 6.15623 20.8078C6.09246 20.6258 6.06214 20.4327 6.06168 20.2399L6.03335 3.87666C6.03316 3.83557 6.03503 3.79457 6.03896 3.75367L6.03588 3.75353Z" fill="currentColor" stroke="currentColor" stroke-width="0.04875" stroke-miterlimit="10"/>
<path d="M7.7819 21.7394C7.80245 21.7403 7.823 21.7413 7.84365 21.7401L14.7286 21.6552C15.4231 21.6469 15.9877 20.9648 15.9854 20.1345L15.9581 3.77134C15.9567 2.9675 15.4294 2.31348 14.7574 2.28279C14.7368 2.28185 14.7162 2.28091 14.6956 2.28208L7.81068 2.36593C7.11622 2.37425 6.55267 3.05643 6.5539 3.88659L6.58223 20.2498C6.58358 21.0547 7.11084 21.7088 7.78293 21.7394L7.7819 21.7394Z" fill="currentColor" stroke="currentColor" stroke-width="0.04875"/>
<path d="M14.756 2.29577C14.7354 2.29483 14.7149 2.29389 14.6942 2.29505L7.80933 2.3789C7.12 2.38746 6.56403 3.06156 6.5655 3.88647L6.59383 20.2497C6.59542 21.0493 7.12096 21.6959 7.78174 21.7261C7.80229 21.727 7.82285 21.728 7.8435 21.7268L14.7284 21.643C15.4167 21.6343 15.9738 20.9592 15.9722 20.1354L15.9439 3.77214C15.9424 2.97146 15.4158 2.32589 14.756 2.29577ZM14.7572 2.26949C15.4354 2.30045 15.9686 2.96002 15.9696 3.77226L15.998 20.1355C15.9999 20.9731 15.4299 21.6613 14.7282 21.6693L7.84332 21.7531C7.82272 21.7532 7.80109 21.7533 7.78054 21.7524C7.10229 21.7214 6.56911 21.0618 6.56809 20.2496L6.53976 3.88634C6.53784 3.04878 7.10784 2.36057 7.8095 2.35258L14.6944 2.26873C14.715 2.26861 14.7366 2.26855 14.7572 2.26949Z" fill="currentColor"/>
<path d="M7.92722 2.6276C7.27929 2.63172 6.75659 3.25362 6.76197 4.01549L6.86368 20.0798C6.869 20.8427 7.39809 21.4568 8.04704 21.4527L14.5987 21.4063C15.2477 21.4012 15.7703 20.7803 15.765 20.0174L15.6633 3.95313C15.6589 3.1913 15.1288 2.57717 14.4788 2.5812L7.92722 2.6276Z" fill="currentColor" stroke="currentColor" stroke-width="0.04875"/>
<path d="M7.92722 2.6276C7.27929 2.63172 6.75659 3.25362 6.76197 4.01549L6.86368 20.0798C6.869 20.8427 7.39809 21.4568 8.04704 21.4527L14.5987 21.4063C15.2477 21.4012 15.7703 20.7803 15.765 20.0174L15.6633 3.95313C15.6589 3.1913 15.1288 2.57717 14.4788 2.5812L7.92722 2.6276Z" fill="currentColor" stroke="currentColor" stroke-width="0.04875"/>
<path d="M8.64553 2.62238L8.64592 2.72669C8.64834 3.0797 8.90823 3.3644 9.22654 3.36208L12.9939 3.33183C13.3132 3.32955 13.5694 3.04102 13.567 2.68801L13.5666 2.5837L8.64553 2.62238Z" fill="currentColor" stroke="currentColor" stroke-width="0.04875"/>
</g>
<rect width="1.34425" height="2.70251" rx="0.275284" transform="matrix(-0.99997 0.00778869 -0.0066557 0.999978 16.5522 6.7002)" fill="currentColor" stroke="currentColor" stroke-width="0.075"/>
<rect width="1.34425" height="2.70251" rx="0.275284" transform="matrix(-0.99997 0.00778869 -0.0066557 0.999978 16.8535 6.69727)" fill="currentColor" stroke="currentColor" stroke-width="0.075"/>
<rect width="1.24483" height="2.41736" rx="0.275284" transform="matrix(-0.999982 0.0059642 -0.0052764 0.999986 12.0996 6.70312)" fill="currentColor" stroke="currentColor" stroke-width="0.075"/>
<rect width="1.24483" height="2.41736" rx="0.275284" transform="matrix(-0.999982 0.0059642 -0.0052764 0.999986 12.4199 6.70117)" fill="currentColor" stroke="currentColor" stroke-width="0.075"/>
<rect opacity="0.5" width="9.35788" height="8.85465" rx="0.550568" transform="matrix(-1 0 0 1 17.9717 8.56934)" fill="currentColor"/>
<rect width="9.53212" height="8.85465" rx="0.550568" transform="matrix(-1 0 0 1 18.5938 8.22168)" fill="currentColor" stroke="currentColor" stroke-width="0.075"/>
<rect width="9.35788" height="8.85465" rx="0.550568" transform="matrix(-1 0 0 1 18.7935 7.9043)" fill="currentColor" stroke="currentColor" stroke-width="0.075"/>
<rect width="8.32762" height="7.8798" rx="0.550568" transform="matrix(-1 0 0 1 18.2798 8.3916)" fill="currentColor" stroke="currentColor" stroke-width="0.075"/>
<path fill-rule="evenodd" clip-rule="evenodd" d="M18.2434 7.9043C18.5474 7.9043 18.7939 8.15079 18.7939 8.45486V16.2084C18.7939 16.5125 18.5474 16.7589 18.2434 16.7589H9.98664C9.68256 16.7589 9.43607 16.5124 9.43607 16.2084V8.45486C9.43607 8.15079 9.68257 7.9043 9.98664 7.9043H18.2434ZM17.7296 8.39172C18.0337 8.39172 18.2802 8.63822 18.2802 8.94229V15.721C18.2802 16.025 18.0337 16.2715 17.7296 16.2715H10.5031C10.199 16.2715 9.95253 16.025 9.95253 15.721V8.94229C9.95253 8.63822 10.199 8.39172 10.5031 8.39172H17.7296Z" fill="currentColor"/>
<path d="M18.7564 8.45486C18.7564 8.17151 18.5267 7.9418 18.2434 7.9418V7.8668C18.5682 7.8668 18.8314 8.13008 18.8314 8.45486H18.7564ZM18.7564 16.2084V8.45486H18.8314V16.2084H18.7564ZM18.2434 16.7214C18.5267 16.7214 18.7564 16.4917 18.7564 16.2084H18.8314C18.8314 16.5332 18.5682 16.7964 18.2434 16.7964V16.7214ZM9.98664 16.7214H18.2434V16.7964H9.98664V16.7214ZM9.47357 16.2084C9.47357 16.4917 9.70328 16.7214 9.98664 16.7214V16.7964C9.66185 16.7964 9.39857 16.5332 9.39857 16.2084H9.47357ZM9.47357 8.45486V16.2084H9.39857V8.45486H9.47357ZM9.98664 7.9418C9.70328 7.9418 9.47357 8.17151 9.47357 8.45486H9.39857C9.39857 8.13008 9.66185 7.8668 9.98664 7.8668V7.9418ZM18.2434 7.9418H9.98664V7.8668H18.2434V7.9418ZM18.2427 8.94229C18.2427 8.65893 18.0129 8.42922 17.7296 8.42922V8.35422C18.0544 8.35422 18.3177 8.61751 18.3177 8.94229H18.2427ZM18.2427 15.721V8.94229H18.3177V15.721H18.2427ZM17.7296 16.234C18.0129 16.234 18.2427 16.0043 18.2427 15.721H18.3177C18.3177 16.0457 18.0544 16.309 17.7296 16.309V16.234ZM10.5031 16.234H17.7296V16.309H10.5031V16.234ZM9.99003 15.721C9.99003 16.0043 10.2197 16.234 10.5031 16.234V16.309C10.1783 16.309 9.91503 16.0457 9.91503 15.721H9.99003ZM9.99003 8.94229V15.721H9.91503V8.94229H9.99003ZM10.5031 8.42922C10.2197 8.42922 9.99003 8.65893 9.99003 8.94229H9.91503C9.91503 8.61751 10.1783 8.35422 10.5031 8.35422V8.42922ZM17.7296 8.42922H10.5031V8.35422H17.7296V8.42922Z" fill="currentColor"/>
<rect width="1.63219" height="1.54441" rx="0.12" transform="matrix(-1 0 0 1 17.5625 9.34375)" fill="currentColor" stroke="currentColor" stroke-width="0.075"/>
<rect width="1.63219" height="1.54441" rx="0.12" transform="matrix(-1 0 0 1 17.5625 11.5596)" fill="currentColor" stroke="currentColor" stroke-width="0.075"/>
<rect width="1.63219" height="1.54441" rx="0.12" transform="matrix(-1 0 0 1 17.5625 13.7979)" fill="currentColor" stroke="currentColor" stroke-width="0.075"/>
<rect width="1.63219" height="1.54441" rx="0.12" transform="matrix(-1 0 0 1 15.0288 9.34375)" fill="currentColor" stroke="currentColor" stroke-width="0.075"/>
<rect width="1.63219" height="1.54441" rx="0.12" transform="matrix(-1 0 0 1 15.0288 11.5596)" fill="currentColor" stroke="currentColor" stroke-width="0.075"/>
<rect width="1.63219" height="1.54441" rx="0.12" transform="matrix(-1 0 0 1 15.0288 13.7979)" fill="currentColor" stroke="currentColor" stroke-width="0.075"/>
<rect width="1.63219" height="1.54441" rx="0.12" transform="matrix(-1 0 0 1 12.4976 9.34375)" fill="currentColor" stroke="currentColor" stroke-width="0.075"/>
<rect width="1.63219" height="1.54441" rx="0.12" transform="matrix(-1 0 0 1 12.4976 11.5596)" fill="currentColor" stroke="currentColor" stroke-width="0.075"/>
<circle cx="20.175" cy="2.175" r="1.8" fill="currentColor"/>
</g>
<defs>
<clipPath id="clip0_6027_6150">
<rect width="24" height="24" fill="currentColor"/>
</clipPath>
<clipPath id="clip1_6027_6150">
<rect width="10.7152" height="19.7819" fill="currentColor" transform="matrix(-0.998959 -0.04561 -0.04561 0.998959 16.8125 2.36328)"/>
</clipPath>
</defs>
</svg>
