<svg width="24" height="24" viewBox="0 0 24 24" fill="none" xmlns="http://www.w3.org/2000/svg">
<g clip-path="url(#clip0_4017_3045)">
<g clip-path="url(#clip1_4017_3045)">
<mask id="mask0_4017_3045" style="mask-type:luminance" maskUnits="userSpaceOnUse" x="8" y="2" width="1" height="1">
<path d="M8.34619 2.83594L8.85043 2.82684C8.8611 2.82635 8.87081 2.82591 8.88153 2.82642L8.37729 2.83551C8.36661 2.836 8.35687 2.83545 8.34619 2.83594Z" fill="white"/>
</mask>
<g mask="url(#mask0_4017_3045)">
<path d="M8.34619 2.83594L8.85043 2.82684C8.85043 2.82684 8.85334 2.82671 8.85431 2.82666L8.35007 2.83576C8.35007 2.83576 8.34716 2.83589 8.34619 2.83594Z" fill="#787878"/>
<path d="M8.34973 2.83594L8.85397 2.82684C8.8627 2.82644 8.87241 2.826 8.88119 2.82659L8.37695 2.83569C8.36821 2.83609 8.35851 2.83653 8.34973 2.83594Z" fill="#7C7C7C"/>
</g>
<path d="M8.37781 2.83594L8.88297 2.8258L15.3839 2.90597L14.8797 2.91507L8.37781 2.83594Z" fill="#7A7A7A"/>
<path d="M16.554 4.21327C16.5243 3.73221 16.2717 3.2464 15.8423 3.02231C15.7009 2.9482 15.5425 2.90768 15.3839 2.90597L14.8797 2.91507C15.5889 2.92347 16.0679 3.66054 16.0541 4.33855L16.0274 19.7892C16.0268 19.9265 16.0097 20.0625 15.9769 20.1953C15.8536 20.7122 15.4208 21.1766 14.8785 21.1845C14.9921 21.1793 15.425 21.1844 15.527 21.1608C15.9585 21.0924 16.298 20.7327 16.4397 20.3224C16.4397 20.3224 16.4396 20.3214 16.4396 20.3204C16.4396 20.3194 16.4395 20.3174 16.4404 20.3164C16.5006 20.1446 16.5292 19.9622 16.5297 19.7802L16.5564 4.32954C16.5566 4.29074 16.5548 4.25203 16.5511 4.21341L16.554 4.21327Z" fill="#0464CE" stroke="black" stroke-width="0.04875" stroke-miterlimit="10"/>
<path d="M14.9051 21.1966C14.8856 21.1974 14.8662 21.1983 14.8467 21.1972L8.34577 21.1171C7.69004 21.1092 7.15695 20.4651 7.15908 19.6812L7.18486 4.23063C7.18618 3.47162 7.68403 2.85407 8.31863 2.8251C8.33804 2.82421 8.35745 2.82332 8.37694 2.82442L14.8779 2.9036C15.5336 2.91146 16.0657 3.55559 16.0646 4.33945L16.0378 19.7901C16.0365 20.5501 15.5387 21.1676 14.9041 21.1966L14.9051 21.1966Z" fill="#017AFF" stroke="black" stroke-width="0.04875"/>
<path d="M8.31955 2.83664C8.33895 2.83576 8.35836 2.83487 8.37786 2.83597L14.8788 2.91514C15.5297 2.92322 16.0546 3.55972 16.0532 4.33862L16.0265 19.7893C16.025 20.5443 15.5288 21.1548 14.9048 21.1833C14.8854 21.1842 14.866 21.1851 14.8465 21.184L8.34559 21.1048C7.69569 21.0967 7.1697 20.4592 7.17114 19.6813L7.19789 4.23068C7.19935 3.47465 7.69659 2.86508 8.31955 2.83664ZM8.31841 2.81183C7.67799 2.84107 7.17454 3.46385 7.17358 4.23079L7.14683 19.6814C7.14502 20.4723 7.68323 21.1221 8.34576 21.1296L14.8467 21.2088C14.8661 21.2089 14.8866 21.209 14.906 21.2081C15.5464 21.1789 16.0498 20.5561 16.0508 19.7891L16.0775 4.33851C16.0794 3.54765 15.5411 2.89783 14.8786 2.89028L8.37769 2.81111C8.35824 2.811 8.33782 2.81094 8.31841 2.81183Z" fill="black"/>
<path d="M14.7681 3.15074C15.3799 3.15463 15.8735 3.74184 15.8684 4.46123L15.7723 19.6295C15.7673 20.3499 15.2677 20.9298 14.655 20.9259L8.46877 20.8821C7.85596 20.8773 7.36246 20.291 7.36749 19.5707L7.46353 4.40234C7.46763 3.683 7.96818 3.10312 8.58191 3.10693L14.7681 3.15074Z" fill="white" stroke="black" stroke-width="0.04875"/>
<path d="M14.0896 3.14563L14.0892 3.24412C14.0869 3.57744 13.8415 3.84627 13.5409 3.84408L9.98372 3.81551C9.68219 3.81336 9.44027 3.54092 9.44256 3.2076L9.44292 3.10911L14.0896 3.14563Z" fill="#017AFF" stroke="black" stroke-width="0.04875"/>
</g>
<path opacity="0.5" d="M10.814 7.82153L13.2301 10.4438L13.1678 14.0909L10.6637 16.6252L7.18567 16.5634L4.76953 13.9411L4.83184 10.295L7.33593 7.75977L10.814 7.82153Z" fill="#017AFF"/>
<path d="M6.56372 7.37305L6.97603 7.38053L10.4541 7.4423L10.0418 7.43481L6.56372 7.37305Z" fill="#6D6D6D"/>
<path d="M12.3959 13.7041L12.8083 13.7116L10.3042 16.2459L9.89185 16.2384L12.3959 13.7041Z" fill="#017AFF" stroke="black" stroke-width="0.0864"/>
<path d="M12.4584 10.0586L12.3961 13.7051L12.8084 13.7124L12.8707 10.0659L12.4584 10.0586Z" fill="#017AFF" stroke="black" stroke-width="0.0864"/>
<path d="M10.0419 7.43555L10.4542 7.44303L12.8703 10.0653L12.458 10.0578L10.0419 7.43555Z" fill="#017AFF" stroke="black" stroke-width="0.0864"/>
<path d="M10.0418 7.43481L12.4579 10.0571L12.3956 13.7042L9.89151 16.2385L6.41345 16.1767L3.99731 13.5544L4.05962 9.9083L6.56371 7.37305L10.0418 7.43481Z" fill="white" stroke="black" stroke-width="0.0864"/>
<path d="M6.66278 15.6228L4.56091 13.3412L4.61589 10.1424L6.7938 7.9375L9.79267 7.99084L11.8945 10.2725L11.8396 13.4713L9.66164 15.6761L6.66278 15.6228Z" fill="#017AFF" stroke="black" stroke-width="0.0864"/>
<path fill-rule="evenodd" clip-rule="evenodd" d="M8.0473 9.375C8.19001 9.375 8.43036 9.39752 8.57307 9.42754C8.71578 9.45756 8.97866 9.55139 9.15517 9.6377C9.40679 9.76155 9.53823 9.86288 9.77858 10.0993C10.0152 10.3395 10.1166 10.4708 10.2405 10.7223C10.3269 10.8987 10.4208 11.1689 10.4546 11.3227C10.4959 11.5179 10.5072 11.7093 10.4959 11.942C10.4846 12.1259 10.4471 12.3736 10.4133 12.4861C10.3795 12.5987 10.3006 12.7939 10.2368 12.9177C10.1767 13.0416 10.049 13.2367 9.95509 13.3493C9.86121 13.4619 9.69596 13.627 9.59081 13.7133C9.48566 13.7959 9.29788 13.9197 9.17395 13.9835C9.05002 14.0436 8.81342 14.1299 8.64818 14.1749C8.48294 14.2162 8.23132 14.25 8.08485 14.25C7.94214 14.25 7.70179 14.2237 7.55908 14.1937C7.41637 14.1637 7.15349 14.0699 6.97698 13.9835C6.72536 13.8597 6.59392 13.7584 6.35357 13.5219C6.11697 13.2818 6.01557 13.1504 5.89164 12.899C5.80526 12.7226 5.71138 12.4636 5.68133 12.3173C5.65129 12.1747 5.625 11.9457 5.625 11.8106C5.625 11.6755 5.65129 11.4503 5.68133 11.304C5.71138 11.1614 5.79024 10.9324 5.85409 10.7973C5.91793 10.6622 6.00055 10.5084 6.11322 10.347L6.01933 10.2907C5.96675 10.2607 5.93295 10.2232 5.94046 10.2081C5.94797 10.1894 6.09819 10.1181 6.27846 10.0468C6.45497 9.97546 6.60894 9.92292 6.61645 9.93418C6.62772 9.94544 6.60894 10.1068 6.57514 10.2907C6.54134 10.4783 6.5113 10.6322 6.50379 10.6397C6.49628 10.6435 6.43994 10.6135 6.3761 10.5722C6.31226 10.5309 6.25592 10.5009 6.24841 10.5084C6.2409 10.5121 6.19208 10.5872 6.13575 10.6773C6.08317 10.7636 5.99304 10.9662 5.93671 11.1276C5.85033 11.3715 5.83531 11.4804 5.83531 11.8106C5.83906 12.1334 5.85409 12.2572 5.93671 12.5049C5.99304 12.67 6.10195 12.9065 6.18457 13.0303C6.26344 13.1542 6.43619 13.3531 6.56763 13.4732C6.69907 13.5932 6.92816 13.7471 7.07087 13.8184C7.21358 13.886 7.4652 13.9723 7.62668 14.0023C7.78441 14.0361 7.98345 14.0624 8.06608 14.0624C8.1487 14.0624 8.34774 14.0361 8.50923 14.0023C8.66696 13.9723 8.92609 13.8822 9.08006 13.8072C9.2791 13.7096 9.44059 13.5895 9.62836 13.4056C9.77483 13.263 9.94383 13.0491 10.0077 12.9365C10.0715 12.8239 10.1616 12.6212 10.203 12.4861C10.248 12.351 10.2931 12.1221 10.3044 11.9795C10.3231 11.7994 10.3081 11.6192 10.2668 11.3978C10.2292 11.2177 10.1429 10.955 10.064 10.7973C9.9626 10.5909 9.84994 10.4408 9.64339 10.2344C9.43683 10.028 9.28661 9.91542 9.08006 9.81409C8.92609 9.73903 8.65569 9.64896 8.47918 9.61518C8.26512 9.57015 8.08485 9.55889 7.92337 9.5739C7.73559 9.59267 7.68677 9.58516 7.67175 9.54013C7.66048 9.5101 7.64922 9.46882 7.64546 9.45006C7.63795 9.43129 7.66799 9.40502 7.7093 9.39752C7.75061 9.38626 7.90459 9.37875 8.0473 9.375ZM8.63316 10.1518C8.64818 10.1669 8.5956 10.4671 8.51674 10.8161C8.43787 11.1689 8.36652 11.4954 8.35901 11.5479C8.34774 11.6417 8.35149 11.6417 9.00495 11.6793L8.27263 12.5725C7.87079 13.0603 7.52904 13.4581 7.51402 13.4544C7.499 13.4469 7.49148 13.4094 7.49524 13.3681C7.50275 13.3268 7.57035 13.004 7.64922 12.655C7.72808 12.306 7.78441 12.0095 7.7769 11.9983C7.76564 11.987 7.61917 11.972 7.13096 11.942L7.86703 11.0338C8.27638 10.5346 8.61813 10.1368 8.63316 10.1518Z" fill="white" stroke="black" stroke-width="0.0864"/>
</g>
<defs>
<clipPath id="clip0_4017_3045">
<rect width="24" height="24" fill="white"/>
</clipPath>
<clipPath id="clip1_4017_3045">
<rect width="10.1176" height="18.6786" fill="white" transform="translate(6.37854 2.90137) rotate(-2.61417)"/>
</clipPath>
</defs>
</svg>
