<svg width="24" height="24" viewBox="0 0 24 24" fill="none" xmlns="http://www.w3.org/2000/svg">
<g clip-path="url(#clip0_5895_1739)">
<path d="M5.29467 3.7545C5.32617 3.24502 5.59372 2.73052 6.0484 2.49319C6.19821 2.4147 6.36597 2.3718 6.53391 2.36998L7.06793 2.37962C6.3168 2.38851 5.80952 3.16912 5.8241 3.88718L5.85243 20.2504C5.853 20.3958 5.87114 20.5399 5.90591 20.6806C6.03641 21.228 6.49487 21.7198 7.06912 21.7281C6.94888 21.7226 6.49038 21.728 6.38236 21.7031C5.92535 21.6306 5.56584 21.2497 5.41576 20.8151C5.41576 20.8151 5.41581 20.8141 5.41586 20.813C5.41591 20.812 5.416 20.8099 5.41502 20.8088C5.35125 20.6268 5.32093 20.4337 5.32046 20.2409L5.29214 3.87764C5.29195 3.83655 5.29382 3.79555 5.29775 3.75464L5.29467 3.7545Z" fill="currentColor" stroke="currentColor" stroke-width="0.075" stroke-miterlimit="10"/>
<path d="M7.0402 21.7404C7.06075 21.7413 7.08131 21.7422 7.10196 21.7411L13.9869 21.6562C14.6814 21.6479 15.246 20.9657 15.2437 20.1355L15.2164 3.77232C15.215 2.96848 14.6877 2.31445 14.0157 2.28377C13.9951 2.28283 13.9745 2.28189 13.9539 2.28305L7.06899 2.3669C6.37452 2.37523 5.81097 3.05741 5.8122 3.88757L5.84053 20.2508C5.84189 21.0557 6.36914 21.7097 7.04123 21.7404L7.0402 21.7404Z" fill="currentColor" stroke="currentColor" stroke-width="0.075"/>
<path d="M14.0148 2.29674C13.9942 2.29581 13.9737 2.29487 13.953 2.29603L7.06812 2.37988C6.37879 2.38844 5.82282 3.06254 5.82429 3.88744L5.85262 20.2507C5.85421 21.0503 6.37975 21.6969 7.04053 21.7271C7.06108 21.728 7.08164 21.7289 7.10229 21.7278L13.9872 21.6439C14.6755 21.6353 15.2325 20.9602 15.231 20.1364L15.2027 3.77312C15.2012 2.97244 14.6745 2.32687 14.0148 2.29674ZM14.016 2.27046C14.6942 2.30143 15.2274 2.96099 15.2284 3.77324L15.2568 20.1365C15.2587 20.9741 14.6887 21.6623 13.987 21.6703L7.10211 21.7541C7.08151 21.7542 7.05988 21.7543 7.03933 21.7533C6.36108 21.7224 5.8279 21.0628 5.82688 20.2506L5.79855 3.88732C5.79663 3.04975 6.36663 2.36155 7.06829 2.35355L13.9532 2.2697C13.9738 2.26959 13.9954 2.26952 14.016 2.27046Z" fill="currentColor"/>
<path d="M7.186 2.6276C6.53807 2.63172 6.01538 3.25362 6.02076 4.01549L6.12246 20.0798C6.12779 20.8427 6.65687 21.4568 7.30583 21.4527L13.8574 21.4063C14.5064 21.4012 15.0291 20.7803 15.0238 20.0174L14.9221 3.95313C14.9177 3.1913 14.3876 2.57717 13.7376 2.5812L7.186 2.6276Z" fill="currentColor" stroke="currentColor" stroke-width="0.075"/>
<path d="M7.90432 2.62335L7.90471 2.72766C7.90712 3.08067 8.16702 3.36538 8.48533 3.36306L12.2527 3.33281C12.572 3.33053 12.8282 3.042 12.8258 2.68899L12.8254 2.58468L7.90432 2.62335Z" fill="currentColor" stroke="currentColor" stroke-width="0.075"/>
<path opacity="0.5" d="M10.9238 6.72352L7.87212 10.0355L7.95081 14.6419L11.1136 17.8428L15.5065 17.7648L18.5581 14.4528L18.4794 9.84761L15.3167 6.64551L10.9238 6.72352Z" fill="currentColor"/>
<path d="M8.92514 14.1553L8.40438 14.1647L11.5671 17.3656L12.0879 17.3562L8.92514 14.1553Z" fill="currentColor" stroke="currentColor" stroke-width="0.075"/>
<path d="M8.84561 9.54963L8.92432 14.1553L8.40364 14.1646L8.32493 9.55892L8.84561 9.54963Z" fill="currentColor" stroke="currentColor" stroke-width="0.075"/>
<path d="M11.8979 6.2373L11.3772 6.24676L8.32554 9.55879L8.8463 9.54933L11.8979 6.2373Z" fill="currentColor" stroke="currentColor" stroke-width="0.075"/>
<path d="M11.8989 6.23817L8.84721 9.5502L8.92591 14.1565L12.0887 17.3575L16.4816 17.2794L19.5332 13.9674L19.4545 9.36225L16.2918 6.16016L11.8989 6.23817Z" fill="currentColor" stroke="currentColor" stroke-width="0.075"/>
<path d="M16.1656 16.5788L18.8203 13.6971L18.7509 9.65691L16.0001 6.87207L12.2125 6.93945L9.55773 9.82121L9.62717 13.8614L12.3779 16.6462L16.1656 16.5788Z" fill="currentColor" stroke="currentColor" stroke-width="0.075"/>
<path fill-rule="evenodd" clip-rule="evenodd" d="M14.3788 8.68457C14.559 8.68457 14.8626 8.71301 15.0428 8.75093C15.2231 8.78885 15.5551 8.90735 15.778 9.01637C16.0959 9.17279 16.2619 9.30077 16.5654 9.59939C16.8643 9.90275 16.9923 10.0687 17.1489 10.3862C17.258 10.609 17.3765 10.9503 17.4192 11.1446C17.4714 11.3911 17.4856 11.6329 17.4714 11.9267C17.4572 12.159 17.4097 12.4718 17.3671 12.614C17.3244 12.7562 17.2248 13.0027 17.1441 13.1591C17.0682 13.3156 16.907 13.562 16.7884 13.7042C16.6698 13.8464 16.4611 14.055 16.3283 14.164C16.1955 14.2683 15.9583 14.4247 15.8018 14.5053C15.6452 14.5811 15.3464 14.6902 15.1377 14.747C14.929 14.7992 14.6112 14.8418 14.4262 14.8418C14.246 14.8418 13.9424 14.8087 13.7621 14.7707C13.5819 14.7328 13.2499 14.6143 13.0269 14.5053C12.7091 14.3489 12.5431 14.2209 12.2395 13.9223C11.9407 13.6189 11.8126 13.453 11.6561 13.1354C11.547 12.9127 11.4284 12.5856 11.3905 12.4007C11.3525 12.2206 11.3193 11.9315 11.3193 11.7608C11.3193 11.5902 11.3525 11.3058 11.3905 11.1209C11.4284 10.9408 11.528 10.6517 11.6087 10.481C11.6893 10.3104 11.7937 10.1161 11.936 9.91223L11.8174 9.84113C11.751 9.80321 11.7083 9.75581 11.7178 9.73685C11.7273 9.71315 11.917 9.62309 12.1447 9.53303C12.3676 9.44297 12.5621 9.37661 12.5716 9.39083C12.5858 9.40505 12.5621 9.60887 12.5194 9.84113C12.4767 10.0781 12.4388 10.2725 12.4293 10.282C12.4198 10.2867 12.3486 10.2488 12.268 10.1966C12.1874 10.1445 12.1162 10.1066 12.1067 10.1161C12.0972 10.1208 12.0356 10.2156 11.9644 10.3294C11.898 10.4384 11.7842 10.6943 11.713 10.8982C11.6039 11.2063 11.585 11.3437 11.585 11.7608C11.5897 12.1685 11.6087 12.3249 11.713 12.6377C11.7842 12.8463 11.9217 13.1449 12.0261 13.3013C12.1257 13.4578 12.3439 13.709 12.5099 13.8607C12.6759 14.0123 12.9653 14.2067 13.1455 14.2967C13.3258 14.3821 13.6436 14.4911 13.8475 14.529C14.0467 14.5717 14.2981 14.6048 14.4025 14.6048C14.5068 14.6048 14.7582 14.5717 14.9622 14.529C15.1614 14.4911 15.4887 14.3773 15.6832 14.2825C15.9346 14.1593 16.1385 14.0076 16.3757 13.7753C16.5607 13.5952 16.7741 13.325 16.8548 13.1828C16.9354 13.0406 17.0493 12.7847 17.1014 12.614C17.1584 12.4434 17.2153 12.1543 17.2295 11.9741C17.2532 11.7466 17.2342 11.5191 17.1821 11.2394C17.1346 11.0119 17.0255 10.6801 16.9259 10.481C16.7979 10.2203 16.6556 10.0307 16.3947 9.77003C16.1338 9.50933 15.9441 9.36713 15.6832 9.23915C15.4887 9.14435 15.1472 9.03059 14.9243 8.98793C14.6539 8.93105 14.4262 8.91683 14.2222 8.93579C13.9851 8.95949 13.9234 8.95001 13.9044 8.89313C13.8902 8.85521 13.876 8.80307 13.8712 8.77937C13.8618 8.75567 13.8997 8.72249 13.9519 8.71301C14.0041 8.69879 14.1985 8.68931 14.3788 8.68457ZM15.1187 9.66575C15.1377 9.68471 15.0713 10.0639 14.9717 10.5047C14.8721 10.9503 14.782 11.3627 14.7725 11.429C14.7582 11.5475 14.763 11.5475 15.5883 11.5949L14.6634 12.7231C14.1558 13.3393 13.7242 13.8417 13.7052 13.837C13.6862 13.8275 13.6768 13.7801 13.6815 13.7279C13.691 13.6758 13.7764 13.2682 13.876 12.8273C13.9756 12.3865 14.0467 12.0121 14.0373 11.9978C14.023 11.9836 13.838 11.9647 13.2214 11.9267L14.1511 10.7797C14.6681 10.1492 15.0998 9.64679 15.1187 9.66575Z" fill="currentColor" stroke="currentColor" stroke-width="0.075"/>
</g>
<defs>
<clipPath id="clip0_5895_1739">
<rect width="24" height="24" fill="currentColor"/>
</clipPath>
</defs>
</svg>
