<svg width="24" height="24" viewBox="0 0 24 24" fill="none" xmlns="http://www.w3.org/2000/svg">
<g clip-path="url(#clip0_3594_2939)">
<mask id="path-1-inside-1_3594_2939" fill="currentColor">
<path d="M3 3.84375C3 3.37776 3.37776 3 3.84375 3H10.1562C10.6222 3 11 3.37776 11 3.84375V10.1562C11 10.6222 10.6222 11 10.1562 11H3.84375C3.37776 11 3 10.6222 3 10.1562V3.84375Z"/>
</mask>
<path d="M3 3.84375C3 3.37776 3.37776 3 3.84375 3H10.1562C10.6222 3 11 3.37776 11 3.84375V10.1562C11 10.6222 10.6222 11 10.1562 11H3.84375C3.37776 11 3 10.6222 3 10.1562V3.84375Z" stroke="currentColor" stroke-width="3.5" mask="url(#path-1-inside-1_3594_2939)"/>
<mask id="path-2-inside-2_3594_2939" fill="currentColor">
<path d="M13 3.84375C13 3.37776 13.3778 3 13.8437 3H20.1562C20.6222 3 21 3.37776 21 3.84375V10.1562C21 10.6222 20.6222 11 20.1562 11H13.8438C13.3778 11 13 10.6222 13 10.1562V3.84375Z"/>
</mask>
<path d="M13 3.84375C13 3.37776 13.3778 3 13.8437 3H20.1562C20.6222 3 21 3.37776 21 3.84375V10.1562C21 10.6222 20.6222 11 20.1562 11H13.8438C13.3778 11 13 10.6222 13 10.1562V3.84375Z" stroke="currentColor" stroke-width="3.5" mask="url(#path-2-inside-2_3594_2939)"/>
<mask id="path-3-inside-3_3594_2939" fill="currentColor">
<path d="M3 13.8438C3 13.3778 3.37776 13 3.84375 13H10.1562C10.6222 13 11 13.3778 11 13.8437V20.1562C11 20.6222 10.6222 21 10.1562 21H3.84375C3.37776 21 3 20.6222 3 20.1562V13.8438Z"/>
</mask>
<path d="M3 13.8438C3 13.3778 3.37776 13 3.84375 13H10.1562C10.6222 13 11 13.3778 11 13.8437V20.1562C11 20.6222 10.6222 21 10.1562 21H3.84375C3.37776 21 3 20.6222 3 20.1562V13.8438Z" stroke="currentColor" stroke-width="3.5" mask="url(#path-3-inside-3_3594_2939)"/>
<path d="M13 13.8438C13 13.3778 13.3778 13 13.8437 13H20.1562C20.6222 13 21 13.3778 21 13.8437V20.1562C21 20.6222 20.6222 21 20.1562 21H13.8438C13.3778 21 13 20.6222 13 20.1562V13.8438Z" fill="currentColor"/>
</g>
<defs>
<clipPath id="clip0_3594_2939">
<rect width="24" height="24" fill="currentColor"/>
</clipPath>
</defs>
</svg>
