<svg width="24" height="24" viewBox="0 0 24 24" fill="none" xmlns="http://www.w3.org/2000/svg">
<g clip-path="url(#clip0_6122_6608)">
<g clip-path="url(#clip1_6122_6608)">
<g clip-path="url(#clip2_6122_6608)">
<path d="M11.925 19.9431L10.0879 16.2688C12.0475 16.2688 14.5787 15.044 15.5993 14.4316C15.5993 15.4523 15.3544 17.9834 14.3746 19.9431C13.3947 21.9027 12.3333 20.7596 11.925 19.9431Z" stroke="#223466" stroke-width="1.75"/>
<path d="M3.94248 11.9429L7.72396 14.0487C7.7782 12.0324 8.33634 9.76208 9.47686 8.30839C8.47081 8.28132 5.96902 8.46625 4.01028 9.42246C2.05154 10.3787 3.14894 11.5012 3.94248 11.9429Z" stroke="#223466" stroke-width="1.75"/>
<path d="M7.63867 13.8202C7.63837 15.4934 8.12858 16.2697 10.0882 16.2697C12.0478 16.2697 14.579 15.0449 15.5996 14.4326C17.2326 13.616 20.6211 10.3908 21.111 4.02209C21.3152 2.5932 19.2739 2.79701 15.5996 4.02209C13.2539 4.80421 9.47581 7.69624 8.25105 10.7581" stroke="#223466" stroke-width="1.75"/>
<path d="M8.33594 15.273L12.6226 10.9863" stroke="#223466" stroke-width="1.75" stroke-linecap="round"/>
</g>
</g>
</g>
<defs>
<clipPath id="clip0_6122_6608">
<rect width="24" height="24" fill="white"/>
</clipPath>
<clipPath id="clip1_6122_6608">
<rect width="24" height="24" fill="white"/>
</clipPath>
<clipPath id="clip2_6122_6608">
<rect width="20" height="20" fill="white" transform="translate(2 2)"/>
</clipPath>
</defs>
</svg>
