<svg width="24" height="24" viewBox="0 0 24 24" fill="none" xmlns="http://www.w3.org/2000/svg">
<g clip-path="url(#clip0_4017_3066)">
<path d="M11.8383 18.8709C15.7621 18.8709 18.943 15.6442 18.943 11.664C18.943 7.68368 15.7621 4.45703 11.8383 4.45703C7.91443 4.45703 4.73352 7.68368 4.73352 11.664C4.73352 15.6442 7.91443 18.8709 11.8383 18.8709Z" fill="currentColor" stroke="currentColor" stroke-width="0.048"/>
<path d="M10.7001 8.95874L11.406 9.15897L10.6383 9.00589L9.93298 8.80566L10.7001 8.95874Z" fill="currentColor"/>
<mask id="mask0_4017_3066" style="mask-type:luminance" maskUnits="userSpaceOnUse" x="10" y="8" width="2" height="2">
<path d="M10.9688 9.02332L11.6747 9.22354C11.5894 9.19914 11.4997 9.17807 11.4057 9.15921L10.6998 8.95898C10.7938 8.97784 10.8835 8.99892 10.9688 9.02332Z" fill="currentColor"/>
</mask>
<g mask="url(#mask0_4017_3066)">
<path d="M10.9688 9.02332L11.6747 9.22354C11.5894 9.19914 11.4997 9.17807 11.4057 9.15921L10.6998 8.95898C10.7938 8.97784 10.8835 8.99892 10.9688 9.02332Z" fill="currentColor"/>
</g>
<path d="M12.0607 10.9314L12.7661 11.1316L10.3001 10.6391L9.59479 10.4395L12.0607 10.9314Z" fill="currentColor"/>
<path d="M13.8042 10.6102C13.8059 10.5692 13.8064 10.5287 13.8064 10.4893C13.8064 10.4777 13.8064 10.466 13.8059 10.4544C13.8053 10.4244 13.8037 10.3945 13.802 10.3651C13.802 10.3579 13.802 10.3507 13.801 10.344C13.801 10.3401 13.7999 10.3362 13.7999 10.3324C13.7977 10.3057 13.7949 10.2797 13.7917 10.2536C13.7906 10.2453 13.79 10.2375 13.7889 10.2292C13.7846 10.1954 13.7791 10.1626 13.7731 10.1299C13.7714 10.1216 13.7698 10.1138 13.7681 10.1055C13.7632 10.0811 13.7583 10.0573 13.7528 10.0334C13.7501 10.0223 13.7474 10.0112 13.7441 9.99957C13.7386 9.97905 13.7332 9.95908 13.7277 9.93967C13.7244 9.92802 13.7206 9.91693 13.7173 9.90528C13.7113 9.88587 13.7047 9.86646 13.6976 9.8476C13.6938 9.83706 13.69 9.82597 13.6861 9.81543C13.6785 9.79436 13.6697 9.77383 13.661 9.75387C13.6577 9.7461 13.6544 9.73778 13.6511 9.73002C13.6386 9.70229 13.626 9.67455 13.6123 9.64793C13.6096 9.64294 13.6069 9.63795 13.6041 9.63296C13.5926 9.61133 13.5812 9.59025 13.5691 9.56917C13.5675 9.5664 13.5664 9.56363 13.5648 9.56141C13.562 9.55642 13.5582 9.55142 13.5555 9.54643C13.5423 9.5248 13.5292 9.50317 13.515 9.4821C13.5101 9.47433 13.5046 9.46657 13.4997 9.45825C13.4811 9.43107 13.4625 9.40445 13.4428 9.37893L12.7369 9.17871C12.7566 9.20478 12.7752 9.2314 12.7938 9.25802C12.7993 9.26579 12.8042 9.27355 12.8091 9.28187C12.8228 9.30295 12.8365 9.32458 12.8496 9.34621C12.8539 9.35397 12.8589 9.36119 12.8632 9.36895C12.8753 9.39003 12.8868 9.4111 12.8982 9.43273C12.901 9.43772 12.9037 9.44272 12.9064 9.44771C12.9201 9.47433 12.9327 9.50206 12.9453 9.52979C12.9485 9.53756 12.9518 9.54588 12.9551 9.55364C12.9638 9.57417 12.9721 9.59469 12.9803 9.61521C12.9841 9.62575 12.9879 9.63628 12.9917 9.64738C12.9983 9.66623 13.0049 9.68565 13.0114 9.70506C13.0152 9.71671 13.0185 9.7278 13.0218 9.73945C13.0278 9.75941 13.0333 9.77938 13.0382 9.79935C13.0409 9.81044 13.0442 9.82153 13.047 9.83318C13.0524 9.85703 13.0579 9.88088 13.0623 9.90528C13.0639 9.9136 13.0655 9.92137 13.0672 9.92969C13.0732 9.96241 13.0787 9.99513 13.083 10.029C13.0841 10.0367 13.0847 10.045 13.0858 10.0534C13.0891 10.0794 13.0918 10.1055 13.094 10.1321C13.0951 10.1432 13.0956 10.1543 13.0962 10.1649C13.0978 10.1942 13.0994 10.2236 13.1 10.2541C13.1 10.2658 13.1005 10.2774 13.1005 10.2891C13.1005 10.329 13.1005 10.369 13.0984 10.41V10.4111C13.0967 10.4455 13.0945 10.4799 13.0918 10.5148L13.7977 10.715C13.801 10.6801 13.8031 10.6452 13.8042 10.6113C13.8042 10.6113 13.8042 10.6108 13.8042 10.6102Z" fill="currentColor" stroke="currentColor" stroke-width="0.048"/>
<path d="M12.98 11.1143C12.9658 11.1614 12.9499 11.208 12.9335 11.2535C12.9302 11.2635 12.9264 11.2729 12.9226 11.2829C12.9051 11.33 12.8865 11.376 12.8668 11.421C12.8635 11.4287 12.8597 11.4365 12.8559 11.4443C12.8373 11.4853 12.8176 11.5264 12.7974 11.5657C12.7952 11.5702 12.793 11.574 12.7908 11.5785C12.7689 11.6201 12.746 11.66 12.7219 11.6994C12.717 11.7077 12.7115 11.716 12.7066 11.7244C12.682 11.7637 12.6563 11.8026 12.6295 11.8397C12.6257 11.8447 12.6219 11.8497 12.618 11.8547C12.588 11.8963 12.5562 11.9362 12.524 11.9751C12.5234 11.9762 12.5224 11.9767 12.5218 11.9778C12.5087 11.9934 12.495 12.0083 12.4813 12.0239C12.4742 12.0316 12.4671 12.0399 12.46 12.0477C12.4436 12.0655 12.4267 12.0821 12.4097 12.0993C12.4048 12.1043 12.3999 12.1093 12.395 12.1143C12.3698 12.1387 12.3436 12.1625 12.3173 12.1858C12.3091 12.193 12.3004 12.2002 12.2922 12.2074C12.2736 12.2235 12.2544 12.2391 12.2353 12.2546C12.2249 12.2629 12.2145 12.2707 12.2041 12.279C12.1894 12.2901 12.1746 12.3012 12.1593 12.3117C12.1478 12.32 12.1369 12.3278 12.1254 12.3361C12.1101 12.3467 12.0942 12.3572 12.0784 12.3672C12.0669 12.3744 12.0554 12.3822 12.0439 12.3894C12.0275 12.3993 12.0106 12.4093 11.9936 12.4193C11.9821 12.426 11.9712 12.4326 11.9597 12.4387C11.9417 12.4487 11.9225 12.4587 11.904 12.4681C11.8936 12.4737 11.8832 12.4792 11.8728 12.4842C11.8493 12.4959 11.8258 12.5069 11.8017 12.5175C11.7957 12.5203 11.7891 12.5236 11.7831 12.5264C11.753 12.5397 11.7219 12.5524 11.6913 12.5646C11.6825 12.568 11.6738 12.5707 11.6656 12.5741C11.6426 12.5824 11.6202 12.5907 11.5967 12.599C11.5846 12.6029 11.5726 12.6068 11.56 12.6107C11.5398 12.6173 11.5196 12.6234 11.4993 12.6295C11.4857 12.6334 11.472 12.6367 11.4583 12.6406C11.4386 12.6456 11.4195 12.6512 11.3993 12.6556C11.3851 12.6589 11.3703 12.6622 11.3555 12.6656C11.3359 12.67 11.3167 12.6739 11.2965 12.6778C11.2817 12.6805 11.2664 12.6833 11.2511 12.6861C11.2314 12.6894 11.2112 12.6927 11.1915 12.6961C11.1762 12.6983 11.1609 12.7005 11.1456 12.7027C11.1253 12.7055 11.1046 12.7077 11.0838 12.7105C11.0685 12.7122 11.0532 12.7138 11.0373 12.7155C11.016 12.7177 10.9947 12.7194 10.9733 12.7205C10.958 12.7216 10.9427 12.7227 10.9274 12.7238C10.905 12.7249 10.882 12.726 10.8596 12.7266C10.8449 12.7266 10.8301 12.7277 10.8153 12.7282C10.7902 12.7282 10.7645 12.7282 10.7388 12.7282C10.7262 12.7282 10.7136 12.7282 10.7011 12.7282C10.6628 12.7277 10.624 12.726 10.5846 12.7244C10.4566 12.7177 10.3249 12.7033 10.1904 12.6811L10.8963 12.8813C11.0313 12.9035 11.1625 12.9179 11.2905 12.9246C11.3298 12.9268 11.3681 12.9279 11.4069 12.9285C11.4195 12.9285 11.4321 12.9285 11.4447 12.9285C11.4704 12.9285 11.4961 12.9285 11.5212 12.9285C11.536 12.9285 11.5507 12.9274 11.5655 12.9268C11.5885 12.9262 11.6109 12.9251 11.6333 12.924C11.6486 12.9229 11.6645 12.9218 11.6798 12.9207C11.7011 12.919 11.7224 12.9174 11.7437 12.9157C11.7596 12.914 11.7749 12.9124 11.7902 12.9107C11.811 12.9085 11.8312 12.9057 11.8515 12.903C11.8668 12.9007 11.8826 12.8985 11.8979 12.8963C11.9182 12.893 11.9379 12.8896 11.9575 12.8863C11.9728 12.8835 11.9876 12.8808 12.0029 12.878C12.0226 12.8741 12.0423 12.8697 12.062 12.8658C12.0767 12.8625 12.0909 12.8591 12.1057 12.8558C12.1254 12.8508 12.1451 12.8458 12.1648 12.8408C12.1784 12.837 12.1921 12.8336 12.2058 12.8297C12.226 12.8236 12.2462 12.8175 12.2665 12.8109C12.2785 12.807 12.2911 12.8031 12.3031 12.7992C12.3261 12.7915 12.3485 12.7832 12.3714 12.7748C12.3802 12.7715 12.3895 12.7687 12.3982 12.7654C12.4294 12.7532 12.46 12.741 12.4901 12.7277C12.4967 12.7249 12.5027 12.7216 12.5087 12.7188C12.5322 12.7083 12.5562 12.6972 12.5792 12.6855C12.5901 12.68 12.6005 12.6744 12.6109 12.6689C12.6295 12.6595 12.6481 12.6495 12.6662 12.6395C12.6776 12.6328 12.6891 12.6262 12.7006 12.6195C12.7175 12.6096 12.734 12.6001 12.7504 12.5901C12.7618 12.5829 12.7739 12.5752 12.7853 12.568C12.8012 12.558 12.8165 12.5474 12.8318 12.5369C12.8433 12.5291 12.8548 12.5208 12.8663 12.5125C12.881 12.502 12.8958 12.4909 12.9106 12.4798C12.916 12.4753 12.9215 12.4714 12.927 12.467C12.9319 12.4631 12.9368 12.4592 12.9417 12.4554C12.9609 12.4398 12.98 12.4243 12.9986 12.4082C13.0068 12.401 13.0155 12.3944 13.0237 12.3871C13.05 12.3638 13.0762 12.34 13.1014 12.3156C13.1068 12.3106 13.1118 12.3051 13.1167 12.2995C13.1331 12.2829 13.15 12.2662 13.1659 12.249C13.1736 12.2407 13.1807 12.2324 13.1878 12.2241C13.2014 12.2091 13.2151 12.1941 13.2282 12.1792C13.2282 12.1792 13.2282 12.1792 13.2288 12.1786C13.2288 12.178 13.2299 12.1775 13.2304 12.1769C13.2632 12.1381 13.2944 12.0982 13.325 12.0566C13.3272 12.0533 13.3299 12.0499 13.3327 12.0466C13.3338 12.0449 13.3354 12.0433 13.3365 12.0411C13.3633 12.0039 13.389 11.9651 13.4136 11.9257C13.4158 11.9218 13.4185 11.9179 13.4207 11.914C13.4234 11.9096 13.4262 11.9052 13.4289 11.9007C13.453 11.8614 13.4759 11.8214 13.4978 11.7798C13.4983 11.7787 13.4989 11.7776 13.4994 11.7765C13.5011 11.7732 13.5027 11.7698 13.5044 11.7671C13.5251 11.7277 13.5443 11.6872 13.5629 11.6462C13.565 11.6412 13.5672 11.6362 13.57 11.6312C13.5711 11.6284 13.5727 11.6256 13.5738 11.6229C13.5935 11.5779 13.6121 11.5319 13.6296 11.4848C13.6312 11.4803 13.6328 11.4764 13.6339 11.472C13.6361 11.4665 13.6378 11.4609 13.64 11.4554C13.6564 11.4099 13.6722 11.3638 13.6864 11.3161L12.9805 11.1159L12.98 11.1143Z" fill="currentColor" stroke="currentColor" stroke-width="0.048"/>
<mask id="mask1_4017_3066" style="mask-type:luminance" maskUnits="userSpaceOnUse" x="10" y="12" width="3" height="5">
<path d="M10.1915 12.6797L10.8974 12.8799C11.541 14.0141 12.2091 15.4135 12.8641 16.8228L12.1583 16.6226C11.5038 15.2133 10.8351 13.8139 10.1915 12.6797Z" fill="currentColor"/>
</mask>
<g mask="url(#mask1_4017_3066)">
<path d="M10.1915 12.6797L10.8974 12.8799C11.541 14.0141 12.2091 15.4135 12.8641 16.8228L12.1583 16.6226C11.5038 15.2133 10.8351 13.8139 10.1915 12.6797Z" fill="currentColor" stroke="currentColor" stroke-width="0.048"/>
</g>
<path d="M12.1576 16.6229L12.8635 16.8231L11.8251 16.6157L11.1193 16.416L12.1576 16.6229Z" fill="currentColor"/>
<path d="M14.5231 9.53423L15.229 9.73445L13.4438 9.37893L12.7385 9.17871L14.5231 9.53423Z" fill="currentColor"/>
<path d="M14.6463 8.93945L15.3516 9.13912L15.2291 9.73535L14.5233 9.53513L14.6463 8.93945Z" fill="currentColor" stroke="currentColor" stroke-width="0.048"/>
<path d="M14.1486 11.3472L14.8544 11.5474L13.686 11.3145L12.9801 11.1143L14.1486 11.3472Z" fill="currentColor" stroke="currentColor" stroke-width="0.048"/>
<path d="M10.0927 8.03027L14.6456 8.93877L14.5226 9.535L12.7374 9.17892C12.9944 9.51559 13.1404 9.95486 13.0922 10.5156L14.2711 10.7513L14.1481 11.3475L12.9796 11.1146C12.6554 12.1934 11.7783 12.7874 10.5847 12.7241C10.4568 12.7175 10.325 12.7031 10.1905 12.6809C10.8341 13.8151 11.5022 15.2145 12.1573 16.6238L11.1189 16.4169C10.5071 15.1279 9.9319 13.9333 9.1615 12.5383L9.31405 11.799L9.90894 11.9177C10.0741 11.9504 10.231 11.971 10.3786 11.9787C11.2759 12.0264 11.8494 11.6249 12.0605 10.9316L9.59454 10.4396L9.71757 9.84337L12.1512 10.3287C12.1425 9.60655 11.6406 9.14675 10.6996 8.95929L9.9319 8.80621L10.0916 8.03083L10.0927 8.03027Z" fill="currentColor" stroke="currentColor" stroke-width="0.048"/>
<path d="M14.2722 10.751L14.9775 10.9512L14.8551 11.5469L14.1492 11.3467L14.2722 10.751Z" fill="currentColor" stroke="currentColor" stroke-width="0.048"/>
<path d="M3.43273 12.9648L4.50604 13.3075C4.12057 13.2709 3.72416 13.2654 3.3365 13.2266L2.26318 12.8838C2.65084 12.9226 3.04671 12.9282 3.43273 12.9648Z" fill="currentColor" stroke="currentColor" stroke-width="0.048"/>
<path d="M4.87652 8.51367L5.94983 8.85644C5.64255 9.25744 5.35604 9.63015 5.06953 10.0034L3.99622 9.66066C4.28272 9.28739 4.56869 8.91467 4.87652 8.51367Z" fill="currentColor" stroke="currentColor" stroke-width="0.048"/>
<path d="M4.77869 9.48633L5.852 9.82909C6.47368 11.0543 7.07622 12.2418 7.70884 13.4886L6.63552 13.1458C6.00291 11.8995 5.40037 10.7115 4.77869 9.48633Z" fill="currentColor" stroke="currentColor" stroke-width="0.048"/>
<path d="M6.63823 13.1472L7.71154 13.49L6.65956 13.4267L5.58624 13.084C5.96133 13.1067 6.27025 13.125 6.63823 13.1472Z" fill="currentColor" stroke="currentColor" stroke-width="0.048"/>
<path d="M6.97519 10.3028C7.59742 8.46252 8.95997 6.90622 10.7375 6.15136L9.66421 5.80859C9.51713 5.8746 9.37279 5.94448 9.23062 6.01936C7.54001 6.86573 6.33656 8.48249 5.7887 10.2923L6.86201 10.635C6.8981 10.5224 6.93582 10.4132 6.97519 10.3028Z" fill="currentColor" stroke="currentColor" stroke-width="0.048"/>
<path d="M13.0175 4.38184L14.0908 4.7246C12.9481 5.46337 11.8305 6.18606 10.6588 6.94314L9.58545 6.60037C10.7572 5.8433 11.8748 5.12116 13.0175 4.38184Z" fill="currentColor" stroke="currentColor" stroke-width="0.048"/>
<path d="M10.1434 1.80437C11.0876 2.68624 12.0746 3.49934 13.0166 4.38398C11.8739 5.12275 10.7563 5.84544 9.58456 6.60252C9.6119 6.3252 9.63377 6.10557 9.66275 5.80939C7.72554 6.67684 6.47343 8.14662 5.78723 10.2931C5.47175 9.67575 5.18633 9.11779 4.87741 8.51324C4.57012 8.91424 4.28361 9.28695 3.9971 9.66022C3.97742 9.65135 3.95828 9.64192 3.9386 9.63304C4.84241 6.59476 6.83485 4.5182 9.61518 3.56368C9.82241 3.49213 9.89896 3.40006 9.91317 3.17266C9.94215 2.71453 9.99847 2.25696 10.0428 1.79883L10.1428 1.80493L10.1434 1.80437Z" fill="currentColor" stroke="currentColor" stroke-width="0.048"/>
<path d="M12.9072 4.26906C12.922 4.40938 13.9926 4.67783 14.0916 4.72608C13.384 4.04444 12.6142 3.43045 11.8952 2.75935C11.1718 2.03499 11.0799 2.10044 10.145 1.80371C11.0537 2.63955 11.9876 3.44765 12.9072 4.26906Z" fill="currentColor" stroke="currentColor" stroke-width="0.048"/>
<mask id="mask2_4017_3066" style="mask-type:luminance" maskUnits="userSpaceOnUse" x="12" y="5" width="3" height="1">
<path d="M13.3673 5.65265L14.4407 5.99541C13.989 5.87672 13.106 5.63878 12.6527 5.47461C12.8977 5.51953 13.1361 5.57888 13.3673 5.65265Z" fill="currentColor"/>
</mask>
<g mask="url(#mask2_4017_3066)">
<path d="M13.3673 5.65265L14.4407 5.99541C13.989 5.87672 13.106 5.63878 12.6527 5.47461C12.8977 5.51953 13.1361 5.57888 13.3673 5.65265Z" fill="currentColor"/>
</g>
<path d="M10.6722 18.4256C8.46438 17.7529 6.99466 15.6835 6.65785 13.4228L5.58453 13.0801C6.1406 16.2066 7.89136 17.7401 10.851 18.4861C10.7909 18.4667 10.7313 18.4467 10.6722 18.4262V18.4256Z" fill="currentColor" stroke="currentColor" stroke-width="0.048"/>
<path d="M10.0711 18.2305L11.1444 18.5732C10.5938 18.931 10.0968 19.2538 9.56147 19.6015L8.48816 19.2588C9.02345 18.911 9.51992 18.5882 10.0711 18.2305Z" fill="currentColor" stroke="currentColor" stroke-width="0.048"/>
<path d="M9.60007 20.3521L10.6734 20.6948C10.1851 20.6172 9.32778 20.3127 8.84662 20.1641C9.09267 20.2461 9.34527 20.3011 9.60007 20.3515" fill="currentColor"/>
<path d="M9.60007 20.3521L10.6734 20.6948C10.1851 20.6172 9.32778 20.3127 8.84662 20.1641C9.09267 20.2461 9.34527 20.3011 9.60007 20.3515" stroke="currentColor" stroke-width="0.048"/>
<path d="M4.77991 9.48535C5.40159 10.7105 6.00414 11.898 6.63675 13.1448C6.26877 13.1226 5.95985 13.1043 5.58476 13.0816C6.09381 15.8575 7.5679 17.5359 10.0683 18.2314C9.51769 18.5891 9.02067 18.9119 8.48538 19.2597C8.88398 19.6141 9.25688 19.9458 9.63032 20.278C9.61994 20.3029 9.609 20.3285 9.59861 20.354C6.35188 19.7256 3.93406 16.8093 3.58959 13.2497C3.57373 13.0372 3.50047 12.949 3.31183 12.9507C2.96135 12.9468 2.61251 12.9091 2.26312 12.8858C2.98814 11.685 3.94937 10.685 4.77937 9.48591L4.77991 9.48535Z" fill="currentColor" stroke="currentColor" stroke-width="0.048"/>
<path d="M8.48816 19.2598L9.56147 19.6025C9.96007 19.9569 10.333 20.2886 10.7064 20.6208L9.6331 20.2781C9.25965 19.9464 8.88676 19.6142 8.48816 19.2598Z" fill="currentColor" stroke="currentColor" stroke-width="0.048"/>
<path d="M9.62961 20.2773C9.61922 20.3023 9.60829 20.3278 9.5979 20.3533L10.6712 20.6961C10.6816 20.6706 10.692 20.6456 10.7029 20.6201L9.62961 20.2773Z" fill="currentColor" stroke="currentColor" stroke-width="0.048"/>
<mask id="mask3_4017_3066" style="mask-type:luminance" maskUnits="userSpaceOnUse" x="12" y="17" width="3" height="2">
<path d="M13.0677 17.041L14.1411 17.3838C14.1072 17.7288 14.0798 18.0044 14.047 18.3411L12.9737 17.9983C13.007 17.6617 13.0338 17.386 13.0677 17.041Z" fill="currentColor"/>
</mask>
<g mask="url(#mask3_4017_3066)">
<path d="M13.0678 17.041L14.1411 17.3838C14.1072 17.7288 14.0799 18.0044 14.0471 18.3411L12.9738 17.9983C13.0071 17.6617 13.0339 17.386 13.0678 17.041Z" fill="currentColor"/>
</g>
<mask id="mask4_4017_3066" style="mask-type:luminance" maskUnits="userSpaceOnUse" x="12" y="21" width="2" height="2">
<path d="M12.5968 21.8518L13.6701 22.1946C13.668 22.2373 12.5323 21.8524 12.4968 21.8457C12.5301 21.8479 12.5635 21.8496 12.5968 21.8518Z" fill="currentColor"/>
</mask>
<g mask="url(#mask4_4017_3066)">
<path d="M12.5971 21.8518L13.6704 22.1946C13.6682 22.2373 12.5325 21.8524 12.497 21.8457L12.5971 21.8518Z" fill="currentColor"/>
</g>
<path d="M20.4652 10.6065C20.3569 10.5544 20.3263 10.4268 20.305 10.3164C20.1973 9.7241 20.0474 9.13618 19.8424 8.57268C18.914 5.83333 16.652 4.19827 13.9542 3.52051C16.8302 4.41735 18.7811 7.00084 19.2317 9.97368C19.2535 10.0951 19.294 10.2371 19.423 10.2771C19.4285 10.2798 20.4963 10.6193 20.5024 10.6221C20.4892 10.6176 20.4767 10.6126 20.4652 10.6071V10.6065Z" fill="currentColor" stroke="currentColor" stroke-width="0.048"/>
<path d="M17.168 13.1475L18.2413 13.4902C18.5497 14.0881 18.8264 14.625 19.12 15.1946L18.0467 14.8519C17.7531 14.2817 17.4764 13.7448 17.168 13.1475Z" fill="currentColor" stroke="currentColor" stroke-width="0.048"/>
<mask id="mask5_4017_3066" style="mask-type:luminance" maskUnits="userSpaceOnUse" x="19" y="13" width="2" height="1">
<path d="M19.0056 13.5781L20.0789 13.9209C20.0969 13.9281 20.1144 13.9348 20.1325 13.942L19.0591 13.5992C19.0411 13.592 19.0236 13.5853 19.0056 13.5781Z" fill="currentColor"/>
</mask>
<g mask="url(#mask5_4017_3066)">
<path d="M19.0056 13.5781L20.0789 13.9209C20.0969 13.9281 20.1144 13.9348 20.1325 13.942L19.0591 13.5992C19.0411 13.592 19.0236 13.5853 19.0056 13.5781Z" fill="currentColor"/>
</g>
<path d="M20.6635 10.3965C19.8947 11.5485 18.9739 12.6416 18.1483 13.7698L19.2216 14.1125C20.0473 12.9839 20.968 11.8912 21.7368 10.7392L20.6635 10.3965Z" fill="currentColor" stroke="currentColor" stroke-width="0.048"/>
<path d="M12.966 3.27734C16.3325 3.93847 18.6109 6.35113 19.232 9.974C19.273 10.2214 19.366 10.2962 19.5754 10.3001C19.9401 10.3107 20.302 10.3628 20.6646 10.3972C19.8903 11.5564 18.9832 12.6318 18.1494 13.7705C17.5294 12.5475 16.9252 11.3578 16.2915 10.1071L17.2073 10.162C16.7234 7.766 14.9923 5.88413 12.6538 5.4737C12.6538 5.45096 12.6527 5.42766 12.6527 5.40492C13.1322 5.09155 13.6117 4.77819 14.129 4.43986C13.7118 4.06992 13.3187 3.72216 12.9255 3.3733L12.966 3.27734Z" fill="currentColor" stroke="currentColor" stroke-width="0.048"/>
<path d="M17.1674 13.147C17.4758 13.7449 17.7524 14.2818 18.0461 14.8514C18.3796 14.4099 18.6934 13.9929 19.0078 13.5763C19.0259 13.5835 19.0434 13.5902 19.0614 13.5974C18.2396 16.9962 16.1034 19.243 13.0272 20.2164C12.8129 20.2841 12.7221 20.3689 12.7107 20.6169C12.6921 21.029 12.6358 21.4405 12.5953 21.852C11.5307 21.1288 10.6521 20.1099 9.60883 19.2735C10.7652 18.5264 11.8867 17.8021 13.0661 17.04C13.0322 17.385 13.0048 17.6607 12.972 17.9973C15.1208 17.1326 16.4845 15.5475 17.1669 13.1465L17.1674 13.147Z" fill="currentColor" stroke="currentColor" stroke-width="0.048"/>
<path d="M20.13 14.0296C20.1322 14.0002 20.1333 13.9708 20.1355 13.9414L19.0622 13.5986C18.4022 16.6974 16.0549 19.3496 13.028 20.2176C12.893 20.2554 12.7563 20.3358 12.7289 20.4855C12.6852 20.9403 12.6513 21.399 12.5966 21.8533L13.6699 22.196C13.747 21.7157 13.7246 21.2099 13.8351 20.7407C13.9898 20.5171 14.3146 20.5232 14.542 20.409C17.3612 19.4578 19.4313 16.9209 20.1306 14.0296H20.13Z" fill="currentColor" stroke="currentColor" stroke-width="0.048"/>
</g>
<defs>
<clipPath id="clip0_4017_3066">
<rect width="24" height="24" fill="currentColor"/>
</clipPath>
</defs>
</svg>
