<svg width="24" height="24" viewBox="0 0 24 24" fill="none" xmlns="http://www.w3.org/2000/svg">
<g clip-path="url(#clip0_5895_1707)">
<g clip-path="url(#clip1_5895_1707)">
<path d="M13.3426 3.93066L7.45117 7.26931V18.7664L13.3426 22.1051L19.2986 18.7664V7.26931L13.3426 3.93066Z" fill="currentColor" stroke="currentColor" stroke-width="0.075"/>
<path d="M19.2986 7.89308L13.3386 4.55045V3.94922L19.2986 7.28786V7.89308ZM7.45117 7.89308L13.3426 4.55045V3.94922L7.45117 7.29185V7.89308Z" fill="currentColor"/>
<path d="M19.2999 7.69141L13.3398 11.0997V22.125L19.2999 18.7824V7.69141Z" fill="currentColor" stroke="currentColor" stroke-width="0.075"/>
<path d="M7.45117 7.69141L13.3426 11.0997V22.125L7.45117 18.7824V7.69141Z" fill="currentColor" stroke="currentColor" stroke-width="0.075"/>
<path d="M19.2986 8.96094L13.3386 12.3693V12.9705L19.2986 9.56217V8.96094ZM7.45117 8.96094L13.3426 12.3693V12.9705L7.45117 9.56217V8.96094ZM19.2986 10.6313L13.3386 14.0396V14.6408L19.2986 11.2325V10.6313Z" fill="currentColor" stroke="currentColor" stroke-width="0.075"/>
<path d="M7.45117 10.6289L13.3426 14.0372V14.6385L7.45117 11.2301V10.6289ZM19.2986 10.6289L13.3386 14.0372V14.6385L19.2986 11.2301V10.6289Z" fill="currentColor" stroke="currentColor" stroke-width="0.075"/>
<path d="M7.45117 10.6289L13.3426 14.0372V14.6385L7.45117 11.2301V10.6289ZM19.2986 12.3012L13.3386 15.7056V16.3068L19.2986 12.8985V12.2992V12.3012Z" fill="currentColor" stroke="currentColor" stroke-width="0.075"/>
<path d="M7.45117 12.3037L13.3426 15.7081V16.3093L7.45117 12.901V12.3018V12.3037ZM19.2986 13.9741L13.3386 17.3824V17.9836L19.2986 14.5753V13.9741Z" fill="currentColor" stroke="currentColor" stroke-width="0.075"/>
<path d="M7.45117 13.9723L13.3426 17.3806V17.9819L7.45117 14.5735V13.9723ZM19.2986 15.6426L13.3386 19.0509V19.6522L19.2986 16.2438V15.6426ZM7.45117 15.6426L13.3426 19.0509V19.6522L7.45117 16.2438V15.6426ZM19.2986 17.3149L13.3386 20.7232V21.3225L19.2986 17.9162V17.3149ZM7.45117 17.3149L13.3426 20.7232V21.3225L7.45117 17.9142V17.3149ZM19.2986 7.29102L13.3386 10.6954V11.2966L19.2986 7.89225V7.29102ZM7.45117 7.29102L13.3426 10.6954V11.2966L7.45117 7.89225V7.29102Z" fill="currentColor" stroke="currentColor" stroke-width="0.075"/>
<path d="M17.2015 17.9834L15.5073 18.9151V20.9219L17.2015 19.9862V17.9834Z" fill="currentColor" stroke="currentColor" stroke-width="0.075"/>
<path d="M7.34516 1.93273L5.08712 4.38344L5.14534 7.79187L7.4856 10.1604L10.7361 10.1026L12.9941 7.65192L12.9359 4.24437L10.5957 1.875L7.34516 1.93273Z" stroke="currentColor" stroke-width="0.075"/>
<path d="M5.14559 7.79199L4.76025 7.79899L7.10051 10.1675L7.48584 10.1605L5.14559 7.79199Z" fill="currentColor" stroke="currentColor" stroke-width="0.075"/>
<path d="M5.08629 4.38408L5.14453 7.79199L4.75926 7.79886L4.70102 4.39095L5.08629 4.38408Z" fill="currentColor" stroke="currentColor" stroke-width="0.075"/>
<path d="M7.34473 1.93262L6.95939 1.93961L4.70135 4.39032L5.08668 4.38333L7.34473 1.93262Z" fill="currentColor" stroke="currentColor" stroke-width="0.075"/>
<path d="M7.34565 1.93273L5.0876 4.38344L5.14583 7.79187L7.48609 10.1604L10.7366 10.1026L12.9946 7.65193L12.9364 4.24437L10.5961 1.875L7.34565 1.93273Z" fill="currentColor" stroke="currentColor" stroke-width="0.075"/>
<path d="M10.5029 9.58382L12.4673 7.45147L12.4159 4.46199L10.3805 2.40137L7.57784 2.45122L5.6135 4.58357L5.66488 7.57305L7.70029 9.63367L10.5029 9.58382Z" fill="currentColor" stroke="currentColor" stroke-width="0.075"/>
<path d="M8.60788 6.0507C8.47713 6.18196 8.29586 6.24758 8.06408 6.24758C7.8323 6.24758 7.65252 6.18196 7.52474 6.0507C7.39399 5.92073 7.32861 5.74701 7.32861 5.52954C7.32861 5.31078 7.39399 5.13642 7.52474 5.00645C7.65252 4.8752 7.8323 4.80957 8.06408 4.80957C8.29586 4.80957 8.47713 4.8752 8.60788 5.00645C8.73566 5.13899 8.79955 5.31336 8.79955 5.52954C8.79955 5.74444 8.73566 5.91816 8.60788 6.0507ZM7.6852 7.62383V7.58523L9.84926 4.8559H10.3596V4.89643L8.20672 7.62383H7.6852ZM7.75875 5.52954C7.75875 5.77661 7.86053 5.90014 8.06408 5.90014C8.26763 5.90014 8.36941 5.77661 8.36941 5.52954C8.36941 5.28119 8.26763 5.15701 8.06408 5.15701C7.86053 5.15701 7.75875 5.28119 7.75875 5.52954ZM10.0142 7.65858C9.78091 7.65858 9.60113 7.59295 9.47484 7.46169C9.34409 7.33172 9.27871 7.158 9.27871 6.94053C9.27871 6.72178 9.34409 6.54741 9.47484 6.41744C9.60113 6.28619 9.78091 6.22056 10.0142 6.22056C10.2445 6.22056 10.425 6.28619 10.5558 6.41744C10.6835 6.54999 10.7474 6.72435 10.7474 6.94053C10.7474 7.15543 10.6835 7.32915 10.5558 7.46169C10.425 7.59295 10.2445 7.65858 10.0142 7.65858ZM10.0142 7.31114C10.2177 7.31114 10.3195 7.1876 10.3195 6.94053C10.3195 6.69218 10.2177 6.568 10.0142 6.568C9.80914 6.568 9.70662 6.69218 9.70662 6.94053C9.70662 7.1876 9.80914 7.31114 10.0142 7.31114Z" fill="currentColor" stroke="currentColor" stroke-width="0.075"/>
</g>
</g>
<defs>
<clipPath id="clip0_5895_1707">
<rect width="24" height="24" fill="currentColor"/>
</clipPath>
<clipPath id="clip1_5895_1707">
<rect width="24" height="24" fill="currentColor" transform="matrix(-1 0 0 1 24 0)"/>
</clipPath>
</defs>
</svg>
