<svg width="24" height="24" viewBox="0 0 24 24" fill="none" xmlns="http://www.w3.org/2000/svg">
<g clip-path="url(#clip0_6029_7876)">
<g clip-path="url(#clip1_6029_7876)">
<path d="M13.3421 3.93066L7.45068 7.26931V18.7664L13.3421 22.1051L19.2982 18.7664V7.26931L13.3421 3.93066Z" fill="currentColor" stroke="currentColor" stroke-width="0.075"/>
<path d="M19.2982 7.89308L13.3381 4.55045V3.94922L19.2982 7.28786V7.89308ZM7.45068 7.89308L13.3421 4.55045V3.94922L7.45068 7.29185V7.89308Z" fill="currentColor"/>
<path d="M19.2989 7.69141L13.3389 11.0997V22.125L19.2989 18.7824V7.69141Z" fill="currentColor" stroke="currentColor" stroke-width="0.075"/>
<path d="M7.45068 7.69141L13.3421 11.0997V22.125L7.45068 18.7824V7.69141Z" fill="currentColor" stroke="currentColor" stroke-width="0.075"/>
<path d="M19.2982 8.96094L13.3381 12.3693V12.9705L19.2982 9.56217V8.96094ZM7.45068 8.96094L13.3421 12.3693V12.9705L7.45068 9.56217V8.96094ZM19.2982 10.6313L13.3381 14.0396V14.6408L19.2982 11.2325V10.6313Z" fill="currentColor" stroke="currentColor" stroke-width="0.075"/>
<path d="M7.45068 10.6289L13.3421 14.0372V14.6385L7.45068 11.2301V10.6289ZM19.2982 10.6289L13.3381 14.0372V14.6385L19.2982 11.2301V10.6289Z" fill="currentColor" stroke="currentColor" stroke-width="0.075"/>
<path d="M7.45068 10.6289L13.3421 14.0372V14.6385L7.45068 11.2301V10.6289ZM19.2982 12.3012L13.3381 15.7056V16.3068L19.2982 12.8985V12.2992V12.3012Z" fill="currentColor" stroke="currentColor" stroke-width="0.075"/>
<path d="M7.45068 12.3037L13.3421 15.7081V16.3093L7.45068 12.901V12.3018V12.3037ZM19.2982 13.9741L13.3381 17.3824V17.9836L19.2982 14.5753V13.9741Z" fill="currentColor" stroke="currentColor" stroke-width="0.075"/>
<path d="M7.45068 13.9723L13.3421 17.3806V17.9819L7.45068 14.5735V13.9723ZM19.2982 15.6426L13.3381 19.0509V19.6522L19.2982 16.2438V15.6426ZM7.45068 15.6426L13.3421 19.0509V19.6522L7.45068 16.2438V15.6426ZM19.2982 17.3149L13.3381 20.7232V21.3225L19.2982 17.9162V17.3149ZM7.45068 17.3149L13.3421 20.7232V21.3225L7.45068 17.9142V17.3149ZM19.2982 7.29102L13.3381 10.6954V11.2966L19.2982 7.89225V7.29102ZM7.45068 7.29102L13.3421 10.6954V11.2966L7.45068 7.89225V7.29102Z" fill="currentColor" stroke="currentColor" stroke-width="0.075"/>
<path d="M17.2011 17.9834L15.5068 18.9151V20.9219L17.2011 19.9862V17.9834Z" fill="currentColor" stroke="currentColor" stroke-width="0.075"/>
<path d="M7.34468 1.93273L5.08663 4.38344L5.14486 7.79186L7.48511 10.1604L10.7356 10.1026L12.9937 7.65192L12.9354 4.24437L10.5952 1.875L7.34468 1.93273Z" stroke="currentColor" stroke-width="0.075"/>
<path d="M5.1451 7.79199L4.75977 7.79899L7.10002 10.1675L7.48535 10.1605L5.1451 7.79199Z" fill="currentColor" stroke="currentColor" stroke-width="0.075"/>
<path d="M5.0858 4.38408L5.14404 7.79199L4.75877 7.79886L4.70053 4.39095L5.0858 4.38408Z" fill="currentColor" stroke="currentColor" stroke-width="0.075"/>
<path d="M7.34424 1.93262L6.95891 1.93961L4.70086 4.39032L5.08619 4.38333L7.34424 1.93262Z" fill="currentColor" stroke="currentColor" stroke-width="0.075"/>
<path d="M7.34516 1.93273L5.08712 4.38344L5.14534 7.79186L7.4856 10.1604L10.7361 10.1026L12.9941 7.65192L12.9359 4.24437L10.5957 1.875L7.34516 1.93273Z" fill="currentColor" stroke="currentColor" stroke-width="0.075"/>
<path d="M10.5025 9.58382L12.4668 7.45147L12.4154 4.46199L10.38 2.40137L7.57735 2.45122L5.61302 4.58357L5.66439 7.57305L7.69981 9.63367L10.5025 9.58382Z" fill="currentColor" stroke="currentColor" stroke-width="0.075"/>
<path d="M8.60739 6.0507C8.47664 6.18196 8.29538 6.24758 8.06359 6.24758C7.83181 6.24758 7.65203 6.18196 7.52425 6.0507C7.3935 5.92073 7.32812 5.74701 7.32812 5.52954C7.32812 5.31078 7.3935 5.13642 7.52425 5.00645C7.65203 4.8752 7.83181 4.80957 8.06359 4.80957C8.29538 4.80957 8.47664 4.8752 8.60739 5.00645C8.73517 5.13899 8.79906 5.31336 8.79906 5.52954C8.79906 5.74444 8.73517 5.91816 8.60739 6.0507ZM7.68471 7.62383V7.58523L9.84877 4.8559H10.3591V4.89643L8.20623 7.62383H7.68471ZM7.75826 5.52954C7.75826 5.77661 7.86004 5.90014 8.06359 5.90014C8.26715 5.90014 8.36892 5.77661 8.36892 5.52954C8.36892 5.28119 8.26715 5.15701 8.06359 5.15701C7.86004 5.15701 7.75826 5.28119 7.75826 5.52954ZM10.0137 7.65858C9.78042 7.65858 9.60064 7.59295 9.47435 7.46169C9.3436 7.33172 9.27823 7.158 9.27823 6.94053C9.27823 6.72178 9.3436 6.54741 9.47435 6.41744C9.60064 6.28619 9.78042 6.22056 10.0137 6.22056C10.244 6.22056 10.4245 6.28619 10.5553 6.41744C10.683 6.54999 10.7469 6.72435 10.7469 6.94053C10.7469 7.15543 10.683 7.32915 10.5553 7.46169C10.4245 7.59295 10.244 7.65858 10.0137 7.65858ZM10.0137 7.31114C10.2172 7.31114 10.319 7.1876 10.319 6.94053C10.319 6.69218 10.2172 6.568 10.0137 6.568C9.80865 6.568 9.70613 6.69218 9.70613 6.94053C9.70613 7.1876 9.80865 7.31114 10.0137 7.31114Z" fill="currentColor" stroke="currentColor" stroke-width="0.075"/>
<circle cx="20.925" cy="2.925" r="1.8" fill="currentColor"/>
</g>
</g>
<defs>
<clipPath id="clip0_6029_7876">
<rect width="24" height="24" fill="currentColor"/>
</clipPath>
<clipPath id="clip1_6029_7876">
<rect width="24" height="24" fill="currentColor" transform="matrix(-1 0 0 1 24 0)"/>
</clipPath>
</defs>
</svg>
