<svg width="24" height="24" viewBox="0 0 24 24" fill="none" xmlns="http://www.w3.org/2000/svg">
<g clip-path="url(#clip0_6029_8786)">
<path d="M11.4272 10.1002V15.7261L1.87488 10.2888L2.28222 7.1153L4.82807 6.04688L11.4272 10.1002Z" fill="currentColor" stroke="currentColor" stroke-width="0.075"/>
<path d="M6.57015 11.1533C6.59124 11.2657 6.62451 11.3758 6.69834 11.484C6.77542 11.5969 6.86386 11.6817 6.95959 11.7388C7.1535 11.8545 7.34741 11.9665 7.5405 12.0761C7.58431 12.1014 7.59648 12.1234 7.59405 12.1698C7.59081 12.2307 7.59405 12.2963 7.59406 12.3703C7.78471 12.3483 7.96807 12.3267 8.15873 12.3056C7.96887 12.0649 7.78713 11.8335 7.59403 11.588C7.59403 11.6601 7.59079 11.721 7.59485 11.7852C7.59891 11.8438 7.58106 11.8456 7.53563 11.8185C7.36525 11.7173 7.19406 11.6212 7.02368 11.521C6.9823 11.4971 6.94011 11.4671 6.90117 11.4325C6.81192 11.3538 6.77866 11.2643 6.80543 11.1786C6.81759 11.1406 6.83706 11.1078 6.85816 11.0797C6.93523 10.9734 7.01473 10.8694 7.09343 10.764C7.10073 10.7551 7.10641 10.7443 7.11533 10.7317C7.05205 10.6511 6.99039 10.5724 6.92223 10.4853C6.81028 10.683 6.63504 10.7982 6.57176 11.0483L6.57177 11.1551L6.57015 11.1533Z" fill="currentColor" stroke="currentColor" stroke-width="0.075"/>
<path d="M7.33063 9.91257C7.26897 9.83481 7.20974 9.76033 7.14565 9.67929L7.14567 10.4522C7.33146 10.4302 7.51482 10.4096 7.70385 10.3885C7.64219 10.3089 7.58621 10.2372 7.52779 10.1622C7.53428 10.1501 7.53996 10.1384 7.54645 10.129C7.65516 9.9791 7.76306 9.82874 7.87258 9.68119C7.89367 9.65308 7.91882 9.62732 7.94884 9.6128C8.01293 9.57954 8.08109 9.61889 8.14518 9.72616C8.17764 9.78144 8.20522 9.84233 8.22875 9.90089C8.3245 10.1398 8.4178 10.3792 8.51273 10.6195C8.52004 10.6368 8.52734 10.6541 8.53789 10.678C8.60036 10.671 8.66202 10.6644 8.72854 10.6579C8.69934 10.5839 8.67256 10.5131 8.64497 10.4429C8.5687 10.2489 8.49406 10.055 8.41454 9.86108C8.38046 9.77863 8.34152 9.69432 8.29527 9.61796C8.12976 9.34627 7.89853 9.23431 7.75331 9.36499C7.67299 9.43853 7.61052 9.53924 7.54238 9.63012C7.47991 9.71209 7.41987 9.79734 7.35903 9.88119C7.35173 9.89196 7.3428 9.90086 7.33388 9.91351L7.33063 9.91257Z" fill="currentColor" stroke="currentColor" stroke-width="0.075"/>
<path d="M8.39038 12.3116L8.39039 12.5645C8.40175 12.572 8.40986 12.5795 8.41879 12.5846C8.65732 12.7224 8.89504 12.8624 9.13357 12.9945C9.25932 13.0643 9.37372 13.0807 9.4516 13.0049C9.5522 12.9074 9.53759 12.7322 9.46294 12.5299C9.36314 12.2605 9.2528 11.9916 9.14732 11.7228C9.14164 11.7092 9.13677 11.6951 9.12866 11.6726C9.18301 11.6647 9.23737 11.6577 9.29822 11.6488C9.1108 11.4103 8.92744 11.178 8.74002 10.9395L8.74004 11.7143C8.80657 11.7068 8.86823 11.7003 8.93232 11.6942C8.94043 11.712 8.94855 11.7279 8.95423 11.7424C9.05078 11.9855 9.14733 12.2287 9.24226 12.4727C9.26093 12.52 9.27715 12.5687 9.28689 12.6147C9.31205 12.7285 9.28041 12.7795 9.1936 12.7575C9.15303 12.7472 9.10922 12.7275 9.06622 12.7027C8.86014 12.5856 8.65406 12.4647 8.44799 12.3458C8.43014 12.3354 8.41148 12.3247 8.38876 12.3116L8.39038 12.3116Z" fill="currentColor" stroke="currentColor" stroke-width="0.075"/>
<path d="M11.4259 10.1005L16.1704 7.27255L9.60295 3.1875L4.82677 6.0472L11.4259 10.1005Z" fill="currentColor" stroke="currentColor" stroke-width="0.075"/>
<path d="M16.1704 7.27148V12.9692L11.4259 15.7254V10.0995L16.1704 7.27148Z" fill="currentColor" stroke="currentColor" stroke-width="0.075"/>
<path d="M9.604 3.1875L6.85449 4.41285L2.28197 7.11562L4.82782 6.0472L9.604 3.1875Z" fill="currentColor" stroke="currentColor" stroke-width="0.075"/>
<path fill-rule="evenodd" clip-rule="evenodd" d="M2.01534 11.9234L1.87511 10.2891L12.127 16.142V17.7213L5.36574 13.8445C5.29996 13.209 4.85809 12.4919 4.32279 12.1829C3.785 11.8724 3.34153 12.0826 3.27902 12.648L2.01534 11.9234Z" fill="currentColor"/>
<circle cx="1.1081" cy="1.1081" r="1.1081" transform="matrix(-0.86601 -0.500028 3.18351e-05 1 5.25537 12.8281)" fill="currentColor" stroke="currentColor" stroke-width="0.075"/>
<ellipse cx="1.13688" cy="1.13688" rx="1.13688" ry="1.13688" transform="matrix(-0.86601 -0.500028 3.18351e-05 1 5.10107 12.9756)" fill="currentColor" stroke="currentColor" stroke-width="0.075"/>
<path fill-rule="evenodd" clip-rule="evenodd" d="M15.268 13.743L12.0711 12.1104V17.6879L13.0671 18.3279C13.0603 18.2681 13.0568 18.209 13.0568 18.1509C13.0567 17.4804 13.5274 17.2087 14.1081 17.544C14.6887 17.8792 15.1594 18.6945 15.1595 19.365C15.1595 19.4705 15.1478 19.5661 15.1259 19.651L16.9341 20.813V17.6394L15.268 13.743Z" fill="currentColor"/>
<path d="M12.0711 12.1104H12.0336V12.0491L12.0881 12.077L12.0711 12.1104ZM15.268 13.743L15.2851 13.7096L15.2972 13.7158L15.3025 13.7283L15.268 13.743ZM12.0711 17.6879L12.0508 17.7194L12.0336 17.7083V17.6879H12.0711ZM13.0671 18.3279L13.1044 18.3237L13.1133 18.4022L13.0468 18.3595L13.0671 18.3279ZM13.0568 18.1509L13.0193 18.1509V18.1509L13.0568 18.1509ZM14.1081 17.544L14.1268 17.5115H14.1268L14.1081 17.544ZM15.1595 19.365L15.197 19.365V19.365L15.1595 19.365ZM15.1259 19.651L15.1057 19.6826L15.0829 19.6679L15.0896 19.6416L15.1259 19.651ZM16.9341 20.813H16.9716V20.8817L16.9138 20.8445L16.9341 20.813ZM16.9341 17.6394L16.9686 17.6247L16.9716 17.6318V17.6394H16.9341ZM12.0881 12.077L15.2851 13.7096L15.251 13.7764L12.054 12.1437L12.0881 12.077ZM12.0336 17.6879V12.1104H12.1086V17.6879H12.0336ZM13.0468 18.3595L12.0508 17.7194L12.0914 17.6563L13.0874 18.2964L13.0468 18.3595ZM13.0943 18.1509C13.0943 18.2075 13.0977 18.2652 13.1044 18.3237L13.0299 18.3322C13.0229 18.2711 13.0193 18.2105 13.0193 18.1509L13.0943 18.1509ZM14.0893 17.5764C13.8058 17.4127 13.558 17.402 13.3834 17.5028C13.2089 17.6035 13.0942 17.8236 13.0943 18.1509L13.0193 18.1509C13.0192 17.8078 13.14 17.5567 13.3459 17.4378C13.5519 17.3189 13.8297 17.3399 14.1268 17.5115L14.0893 17.5764ZM15.122 19.365C15.122 19.0379 15.0069 18.6729 14.819 18.3475C14.6312 18.0222 14.3726 17.74 14.0893 17.5764L14.1268 17.5115C14.4242 17.6832 14.6913 17.9763 14.884 18.31C15.0767 18.6438 15.197 19.0216 15.197 19.365L15.122 19.365ZM15.0896 19.6416C15.1106 19.5602 15.122 19.4678 15.122 19.365L15.197 19.365C15.197 19.4732 15.185 19.572 15.1623 19.6604L15.0896 19.6416ZM16.9138 20.8445L15.1057 19.6826L15.1462 19.6195L16.9544 20.7814L16.9138 20.8445ZM16.9716 17.6394V20.813H16.8966V17.6394H16.9716ZM15.3025 13.7283L16.9686 17.6247L16.8996 17.6542L15.2335 13.7578L15.3025 13.7283Z" fill="currentColor"/>
<circle cx="1.1081" cy="1.1081" r="1.1081" transform="matrix(-0.86601 -0.500028 3.18351e-05 1 15.0405 18.1885)" fill="currentColor" stroke="currentColor" stroke-width="0.075"/>
<ellipse cx="1.13688" cy="1.13688" rx="1.13688" ry="1.13688" transform="matrix(-0.86601 -0.500028 3.18351e-05 1 14.8862 18.3359)" fill="currentColor" stroke="currentColor" stroke-width="0.075"/>
<path d="M12.0686 12.1112L16.9316 9.07617L20.02 10.8908L15.2655 13.7438L12.0686 12.1112Z" fill="currentColor" stroke="currentColor" stroke-width="0.075"/>
<path d="M20.0214 10.8906L22.1182 14.6852L16.933 17.64L15.2669 13.7436L20.0214 10.8906Z" fill="currentColor" stroke="currentColor" stroke-width="0.075"/>
<path d="M22.1182 14.6855V17.8674L16.933 20.814V17.6404L22.1182 14.6855Z" fill="currentColor" stroke="currentColor" stroke-width="0.075"/>
<path d="M13.3045 13.4141L13.3512 15.7479L16.251 17.4206L14.9772 14.4274L13.3045 13.4141Z" fill="currentColor" stroke="currentColor" stroke-width="0.075"/>
<path d="M19.9189 11.457L15.772 13.8627L17.0809 16.6506L21.5215 14.2666L19.9189 11.457Z" fill="currentColor" stroke="currentColor" stroke-width="0.075"/>
<path d="M11.4264 15.7265L12.0708 15.3525V16.1105L11.4264 15.7265Z" fill="currentColor"/>
<path d="M16.9414 18.679L22.125 15.9961V16.8817L16.9414 19.6418V18.679Z" fill="currentColor" stroke="currentColor" stroke-width="0.075"/>
<path d="M18.2832 17.9804L20.9983 16.5801L21.0371 17.4717L18.8967 18.6013L18.2832 17.9804Z" fill="currentColor" stroke="currentColor" stroke-width="0.075"/>
<circle cx="21.3" cy="3.3" r="1.8" fill="currentColor"/>
</g>
<defs>
<clipPath id="clip0_6029_8786">
<rect width="24" height="24" fill="currentColor"/>
</clipPath>
</defs>
</svg>
