<svg width="24" height="24" viewBox="0 0 24 24" fill="none" xmlns="http://www.w3.org/2000/svg">
<g clip-path="url(#clip0_4017_3084)">
<path d="M10.6471 3.87012L16.5823 7.23355V18.816L10.6471 22.1794L4.64692 18.816V7.23355L10.6471 3.87012Z" fill="currentColor" stroke="currentColor" stroke-width="0.0864"/>
<path d="M4.64692 7.86181L10.6512 4.49437V3.88867L4.64692 7.2521V7.86181ZM16.5823 7.86181L10.6471 4.49437V3.88867L16.5823 7.25611V7.86181Z" fill="currentColor"/>
<path d="M4.64617 7.65918L10.6505 11.0928V22.1999L4.64617 18.8325V7.65918Z" fill="currentColor" stroke="currentColor" stroke-width="0.0864"/>
<path d="M16.5823 7.65918L10.6471 11.0928V22.1999L16.5823 18.8325V7.65918Z" fill="currentColor" stroke="currentColor" stroke-width="0.0864"/>
<path d="M4.64692 8.9375L10.6512 12.3711V12.9768L4.64692 9.5432V8.9375ZM16.5823 8.9375L10.6471 12.3711V12.9768L16.5823 9.5432V8.9375ZM4.64692 10.6202L10.6512 14.0538V14.6595L4.64692 11.2259V10.6202Z" fill="currentColor" stroke="currentColor" stroke-width="0.0864"/>
<path d="M16.5823 10.6191L10.6471 14.0528V14.6585L16.5823 11.2248V10.6191ZM4.64692 10.6191L10.6512 14.0528V14.6585L4.64692 11.2248V10.6191Z" fill="currentColor" stroke="currentColor" stroke-width="0.0864"/>
<path d="M16.5823 10.6191L10.6471 14.0528V14.6585L16.5823 11.2248V10.6191ZM4.64692 12.3039L10.6512 15.7335V16.3392L4.64692 12.9055V12.3019V12.3039Z" fill="currentColor" stroke="currentColor" stroke-width="0.0864"/>
<path d="M16.5823 12.3057L10.6471 15.7353V16.341L16.5823 12.9074V12.3037V12.3057ZM4.64692 13.9884L10.6512 17.4221V18.0278L4.64692 14.5941V13.9884Z" fill="currentColor" stroke="currentColor" stroke-width="0.0864"/>
<path d="M16.5823 13.9867L10.6471 17.4204V18.0261L16.5823 14.5924V13.9867ZM4.64692 15.6694L10.6512 19.1031V19.7088L4.64692 16.2751V15.6694ZM16.5823 15.6694L10.6471 19.1031V19.7088L16.5823 16.2751V15.6694ZM4.64692 17.3542L10.6512 20.7878V21.3915L4.64692 17.9599V17.3542ZM16.5823 17.3542L10.6471 20.7878V21.3915L16.5823 17.9579V17.3542ZM4.64692 7.25586L10.6512 10.6855V11.2912L4.64692 7.86156V7.25586ZM16.5823 7.25586L10.6471 10.6855V11.2912L16.5823 7.86156V7.25586Z" fill="currentColor" stroke="currentColor" stroke-width="0.0864"/>
<path d="M6.75993 18.0273L8.46674 18.966V20.9876L6.75993 20.045V18.0273Z" fill="currentColor" stroke="currentColor" stroke-width="0.0864"/>
<path d="M16.6899 1.85698L18.9647 4.32588L18.906 7.75961L16.5484 10.1457L13.2738 10.0875L10.999 7.61863L11.0576 4.18579L13.4152 1.79883L16.6899 1.85698Z" stroke="currentColor" stroke-width="0.0864"/>
<path d="M13.4155 1.79883L13.8037 1.80588L17.0783 1.86403L16.6901 1.85698L13.4155 1.79883Z" fill="currentColor"/>
<path d="M18.9059 7.75977L19.2941 7.76681L16.9365 10.1529L16.5483 10.1458L18.9059 7.75977Z" fill="currentColor" stroke="currentColor" stroke-width="0.0864"/>
<path d="M18.9656 4.32656L18.9069 7.75977L19.2951 7.76669L19.3537 4.33348L18.9656 4.32656Z" fill="currentColor" stroke="currentColor" stroke-width="0.0864"/>
<path d="M16.6905 1.85742L17.0787 1.86447L19.3535 4.33337L18.9653 4.32632L16.6905 1.85742Z" fill="currentColor" stroke="currentColor" stroke-width="0.0864"/>
<path d="M16.6899 1.85698L18.9647 4.32588L18.906 7.75961L16.5484 10.1457L13.2738 10.0875L10.999 7.61863L11.0576 4.18579L13.4152 1.79883L16.6899 1.85698Z" fill="currentColor" stroke="currentColor" stroke-width="0.0864"/>
<path d="M13.509 9.56487L11.5301 7.41669L11.5818 4.40502L13.6324 2.3291L16.4558 2.37933L18.4347 4.5275L18.383 7.53917L16.3325 9.61509L13.509 9.56487Z" fill="currentColor" stroke="currentColor" stroke-width="0.0864"/>
<path d="M14.5508 6.0062C14.4191 6.13843 14.2365 6.20455 14.0029 6.20455C13.7694 6.20455 13.5883 6.13843 13.4596 6.0062C13.3279 5.87527 13.262 5.70026 13.262 5.48118C13.262 5.26079 13.3279 5.08514 13.4596 4.9542C13.5883 4.82197 13.7694 4.75586 14.0029 4.75586C14.2365 4.75586 14.4191 4.82197 14.5508 4.9542C14.6795 5.08773 14.7439 5.26339 14.7439 5.48118C14.7439 5.69767 14.6795 5.87268 14.5508 6.0062ZM13.6213 7.59101V7.55212L15.8014 4.80253H16.3155V4.84336L14.1466 7.59101H13.6213ZM13.6954 5.48118C13.6954 5.73008 13.7979 5.85453 14.0029 5.85453C14.208 5.85453 14.3105 5.73008 14.3105 5.48118C14.3105 5.23098 14.208 5.10588 14.0029 5.10588C13.7979 5.10588 13.6954 5.23098 13.6954 5.48118ZM15.9675 7.62601C15.7325 7.62601 15.5514 7.5599 15.4242 7.42767C15.2925 7.29674 15.2266 7.12173 15.2266 6.90264C15.2266 6.68226 15.2925 6.5066 15.4242 6.37567C15.5514 6.24344 15.7325 6.17732 15.9675 6.17732C16.1995 6.17732 16.3814 6.24344 16.5131 6.37567C16.6418 6.50919 16.7062 6.68485 16.7062 6.90264C16.7062 7.11913 16.6418 7.29414 16.5131 7.42767C16.3814 7.5599 16.1995 7.62601 15.9675 7.62601ZM15.9675 7.27599C16.1726 7.27599 16.2751 7.15154 16.2751 6.90264C16.2751 6.65244 16.1726 6.52734 15.9675 6.52734C15.761 6.52734 15.6577 6.65244 15.6577 6.90264C15.6577 7.15154 15.761 7.27599 15.9675 7.27599Z" fill="currentColor" stroke="currentColor" stroke-width="0.0864"/>
</g>
<defs>
<clipPath id="clip0_4017_3084">
<rect width="24" height="24" fill="currentColor"/>
</clipPath>
</defs>
</svg>
