<svg width="24" height="24" viewBox="0 0 24 24" fill="none" xmlns="http://www.w3.org/2000/svg">
<g clip-path="url(#clip0_3396_70784)">
<g clip-path="url(#clip1_3396_70784)">
<circle cx="12" cy="12" r="12" fill="#D21D25"/>
<path d="M4.24316 6.69531H20.1373V16.3256H4.24316V6.69531Z" fill="white"/>
<path d="M10.8974 4.53943C4.46494 4.97579 -0.14689 8.0378 0.00357727 11.7769C0.214232 17.1336 9.93444 20.4439 17.8415 17.8483C24.5373 15.6515 26.0646 10.3099 20.9788 6.90177C18.4735 5.23158 14.4786 4.29116 10.8974 4.53943ZM5.96962 6.92434C9.23477 7.27794 11.6723 9.08355 12.0636 11.4308C12.3194 12.9957 11.394 14.7186 10.1 15.0571C9.51313 15.2076 8.8586 14.9292 8.8586 14.523C8.8586 14.3273 8.9564 14.2672 9.34009 14.2521C10.0172 14.2145 10.3106 13.9286 10.3181 13.2966C10.3181 12.7399 9.95701 12.3938 9.20467 12.2283C8.83603 12.1531 7.71504 12.1531 7.61724 12.2358C7.59467 12.2584 7.58715 12.5894 7.58715 14.2973V16.3361L5.95457 16.3286L4.322 16.321V11.6114V6.90177L4.39723 6.88672C4.52513 6.86415 5.63859 6.89425 5.96962 6.92434ZM19.8427 6.88672L19.9556 6.90177V11.6189V16.3361L18.323 16.3286L16.6904 16.321L16.6829 14.2672L16.6754 12.2133L16.5701 12.1907C16.3218 12.1456 15.3137 12.1606 15.0729 12.2133C14.2679 12.3863 13.8842 12.8151 13.967 13.4321C14.0347 13.9662 14.3281 14.1995 14.945 14.2371C15.4491 14.2672 15.5995 14.5079 15.2911 14.8013C14.5914 15.4859 13.2523 14.9066 12.5827 13.6427C11.4767 11.5362 12.6504 9.00832 15.3212 7.72934C16.3293 7.24785 17.5406 6.94691 18.7819 6.87168C19.0152 6.87168 19.7299 6.87168 19.8427 6.88672ZM8.64042 9.3243C8.49748 9.37696 8.6329 9.52743 8.89621 9.61019C9.22724 9.70799 9.37771 9.54248 9.09182 9.39201C8.92631 9.30925 8.75327 9.27916 8.64042 9.3243ZM15.419 9.30925C15.0428 9.39201 14.8773 9.63276 15.1933 9.63276C15.4039 9.63276 15.7274 9.45972 15.6898 9.36944C15.6673 9.30925 15.5469 9.28668 15.419 9.30925ZM8.505 11.2578C8.49747 11.2729 8.49748 11.4233 8.49748 11.5888L8.505 11.8973L9.78397 11.9048C10.6115 11.9048 11.0479 11.9048 11.0253 11.8898C11.0028 11.8747 10.7846 11.8145 10.5363 11.7544C9.72379 11.5437 8.91878 11.3406 8.74575 11.2954C8.65547 11.2729 8.56518 11.2503 8.55014 11.2428C8.52757 11.2352 8.51252 11.2428 8.505 11.2578ZM15.5093 11.2954C14.2905 11.6039 13.2071 11.8898 13.1996 11.9048C13.1921 11.9123 13.7714 11.9123 14.4786 11.9123H15.7651V11.5813C15.7651 11.1976 15.7876 11.2202 15.5093 11.2954Z" fill="#D21D25"/>
</g>
</g>
<defs>
<clipPath id="clip0_3396_70784">
<rect width="24" height="24" fill="white"/>
</clipPath>
<clipPath id="clip1_3396_70784">
<rect width="24" height="24" fill="white"/>
</clipPath>
</defs>
</svg>
