<svg width="24" height="24" viewBox="0 0 24 24" fill="none" xmlns="http://www.w3.org/2000/svg">
<g clip-path="url(#clip0_6029_11199)">
<path d="M15.4917 7.10156L17.177 8.07521V19.9904L15.4917 19.0168V7.10156Z" fill="#EBF7FF"/>
<path d="M18.8662 7.10156L17.1809 8.07521V19.9904L18.8662 19.0168V7.10156Z" fill="#017AFF"/>
<path d="M17.177 8.07521V19.9817C17.177 19.9861 17.1727 19.9904 17.1683 19.9861L15.4917 19.0168L15.5048 7.10156" stroke="black" stroke-width="0.075" stroke-miterlimit="10"/>
<path d="M17.1809 8.07527V19.9818C17.1809 19.9861 17.1853 19.9905 17.1896 19.9861L18.8706 19.0168L18.8575 7.11035" stroke="black" stroke-width="0.075" stroke-miterlimit="10"/>
<path d="M15.5263 7.12732L17.2422 6.13184L18.8664 7.12732C18.8751 7.13169 18.8751 7.14479 18.8664 7.14915L17.1942 8.11407L15.5219 7.14915C15.5175 7.14479 15.5175 7.13169 15.5263 7.12732Z" fill="#017AFF" stroke="black" stroke-width="0.075" stroke-miterlimit="10"/>
<path d="M10.8394 12.6504L12.5291 13.624V21.16L10.8394 20.1864V12.6504Z" fill="#EBF7FF"/>
<path d="M14.2144 12.6504L12.5291 13.624V21.16L14.2144 20.1864V12.6504Z" fill="#017AFF"/>
<path d="M10.8394 12.6497L12.5727 11.6455L14.2144 12.6497L12.5291 13.6234L10.8394 12.6497Z" fill="#017AFF"/>
<path d="M12.5291 13.6235V21.1464C12.5291 21.1508 12.5247 21.1551 12.5204 21.1508L10.8438 20.1815L10.8569 12.6455" stroke="black" stroke-width="0.075" stroke-miterlimit="10"/>
<path d="M12.5291 13.6241V21.1513C12.5291 21.1557 12.5334 21.1601 12.5378 21.1557L14.2188 20.1864L14.2057 12.6592" stroke="black" stroke-width="0.075" stroke-miterlimit="10"/>
<path d="M10.8568 12.6371L12.5727 11.6416L14.197 12.6371C14.2057 12.6415 14.2057 12.6546 14.197 12.6589L12.5247 13.6238L10.8525 12.6589C10.8481 12.6546 10.8481 12.6415 10.8568 12.6371Z" stroke="black" stroke-width="0.075" stroke-miterlimit="10"/>
<path d="M6.22168 17.4414L7.90701 18.4151V22.2005L6.22168 21.2225V17.4414Z" fill="#EBF7FF"/>
<path d="M9.59693 17.4414L7.90723 18.4151V22.2005L9.59693 21.2225V17.4414Z" fill="#017AFF"/>
<path d="M6.22119 17.4407L7.95456 16.4365L9.59623 17.4407L7.90653 18.4188L6.22119 17.4407Z" fill="#017AFF"/>
<path d="M7.90701 18.4151V22.1874C7.90701 22.1918 7.90265 22.1961 7.89828 22.1918L6.22168 21.2225L6.23477 17.4414" stroke="black" stroke-width="0.075" stroke-miterlimit="10"/>
<path d="M7.90723 18.4136V22.186C7.90723 22.1903 7.91159 22.1947 7.91596 22.1903L9.59693 21.2211L9.58384 17.4443" stroke="black" stroke-width="0.075" stroke-miterlimit="10"/>
<path d="M6.23868 17.432L7.95459 16.4365L9.5788 17.432C9.58753 17.4364 9.58753 17.4495 9.5788 17.4538L7.90656 18.4188L6.23431 17.4538C6.22995 17.4451 6.22995 17.4364 6.23868 17.432Z" stroke="black" stroke-width="0.075" stroke-miterlimit="10"/>
<mask id="mask0_6029_11199" style="mask-type:luminance" maskUnits="userSpaceOnUse" x="15" y="4" width="2" height="2">
<path d="M16.9244 5.65423L16.0885 5.16862C15.7452 4.94084 15.436 4.736 15.1133 4.52246L15.9493 5.00807C16.2719 5.2224 16.5804 5.42725 16.9244 5.65423Z" fill="white" stroke="white" stroke-width="0.075"/>
</mask>
<g mask="url(#mask0_6029_11199)">
<path d="M16.9244 5.65423L16.0885 5.16862C15.7452 4.94084 15.436 4.736 15.1133 4.52246L15.9493 5.00807C16.2719 5.2224 16.5804 5.42725 16.9244 5.65423Z" stroke="black" stroke-width="0.075"/>
</g>
<mask id="mask1_6029_11199" style="mask-type:luminance" maskUnits="userSpaceOnUse" x="11" y="3" width="4" height="7">
<path d="M12.2889 9.13066L11.4529 8.64505C12.3339 7.11546 13.2103 5.59378 14.1063 4.03809L14.9423 4.5237C14.0462 6.07939 13.1699 7.60107 12.2889 9.13066Z" fill="white" stroke="white" stroke-width="0.075"/>
</mask>
<g mask="url(#mask1_6029_11199)">
<path d="M12.2881 9.13066L11.4521 8.64505C12.3332 7.11546 13.2095 5.59378 14.1056 4.03809L14.9416 4.5237C14.0455 6.07939 13.1692 7.60107 12.2881 9.13066Z" fill="#017AFF" stroke="black" stroke-width="0.075"/>
</g>
<mask id="mask2_6029_11199" style="mask-type:luminance" maskUnits="userSpaceOnUse" x="13" y="1" width="4" height="4">
<path d="M13.9248 4.01194L13.0889 3.52633C14.1439 2.91734 15.1041 2.36292 16.0785 1.7998L16.9144 2.28541C15.94 2.84774 14.9791 3.40295 13.9248 4.01194Z" fill="white" stroke="white" stroke-width="0.075"/>
</mask>
<g mask="url(#mask2_6029_11199)">
<path d="M13.9248 4.01194L13.0889 3.52633C14.1439 2.91734 15.1041 2.36292 16.0785 1.7998L16.9144 2.28541C15.94 2.84774 14.9791 3.40295 13.9248 4.01194Z" fill="#017AFF" stroke="black" stroke-width="0.075"/>
</g>
<mask id="mask3_6029_11199" style="mask-type:luminance" maskUnits="userSpaceOnUse" x="9" y="7" width="4" height="3">
<path d="M10.6558 8.3235L9.81982 7.83789C10.3829 8.11629 10.9295 8.38677 11.4522 8.6454L12.2882 9.131C11.7654 8.87238 11.2189 8.6019 10.6558 8.3235Z" fill="white" stroke="white" stroke-width="0.075"/>
</mask>
<g mask="url(#mask3_6029_11199)">
<path d="M10.6556 8.3235L9.81958 7.83789C10.3827 8.11629 10.9292 8.38677 11.452 8.6454L12.288 9.131C11.7652 8.87238 11.2187 8.6019 10.6556 8.3235Z" fill="#017AFF" stroke="black" stroke-width="0.075"/>
</g>
<mask id="mask4_6029_11199" style="mask-type:luminance" maskUnits="userSpaceOnUse" x="5" y="7" width="6" height="9">
<path d="M5.96513 15.8307L5.12915 15.3451C6.69829 12.834 8.25002 10.3498 9.81916 7.83789L10.6551 8.3235C9.086 10.8354 7.53426 13.3196 5.96513 15.8307Z" fill="white" stroke="white" stroke-width="0.075"/>
</mask>
<g mask="url(#mask4_6029_11199)">
<path d="M5.96537 15.8307L5.12939 15.3451C6.69853 12.834 8.25027 10.3498 9.8194 7.83789L10.6554 8.3235C9.08624 10.8354 7.53451 13.3196 5.96537 15.8307Z" fill="#017AFF" stroke="black" stroke-width="0.075"/>
</g>
<mask id="mask5_6029_11199" style="mask-type:luminance" maskUnits="userSpaceOnUse" x="5" y="15" width="2" height="2">
<path d="M6.8098 16.4354L5.97383 15.9498C5.6899 15.7465 5.41941 15.5512 5.12915 15.3447L5.96513 15.8303C6.25539 16.0376 6.52587 16.2321 6.8098 16.4354Z" fill="white" stroke="white" stroke-width="0.075"/>
</mask>
<g mask="url(#mask5_6029_11199)">
<path d="M6.81005 16.4354L5.97407 15.9498C5.69014 15.7465 5.41965 15.5512 5.12939 15.3447L5.96537 15.8303C6.25563 16.0376 6.52612 16.2321 6.81005 16.4354Z" fill="#017AFF" stroke="black" stroke-width="0.075"/>
</g>
<path d="M16.9155 2.28516C16.9187 3.39162 16.9218 4.49017 16.925 5.65437C16.5818 5.42659 16.2725 5.22175 15.9498 5.00821C14.735 7.1199 13.5708 9.14538 12.4003 11.1819C11.7937 10.8822 11.225 10.6014 10.6382 10.3112C9.36247 12.3525 8.09546 14.3787 6.81025 16.4359C6.52632 16.2334 6.25504 16.038 5.96558 15.8308C7.53471 13.3197 9.08645 10.8355 10.6556 8.32364C11.2187 8.60204 11.7652 8.87252 12.288 9.13115C13.169 7.60155 14.0454 6.07987 14.9414 4.52418C14.6512 4.37787 14.319 4.21099 13.9259 4.01247C14.981 3.40348 15.9411 2.84906 16.9155 2.28595V2.28516Z" fill="#017AFF" stroke="black" stroke-width="0.075"/>
<circle cx="21.3005" cy="2.55" r="1.8" fill="#DF3C27"/>
</g>
<defs>
<clipPath id="clip0_6029_11199">
<rect width="24" height="24" fill="white"/>
</clipPath>
</defs>
</svg>
