<svg width="24" height="24" viewBox="0 0 24 24" fill="none" xmlns="http://www.w3.org/2000/svg">
<g clip-path="url(#clip0_4017_2690)">
<path d="M15.4912 7.10156L17.1766 8.07521V19.9904L15.4912 19.0168V7.10156Z" fill="#E8F4FD"/>
<path d="M18.866 7.10156L17.1807 8.07521V19.9904L18.866 19.0168V7.10156Z" fill="#017AFF"/>
<path d="M17.1766 8.07521V19.9817C17.1766 19.9861 17.1722 19.9904 17.1678 19.9861L15.4912 19.0168L15.5043 7.10156" stroke="black" stroke-width="0.12" stroke-miterlimit="10"/>
<path d="M17.1807 8.07625V19.9827C17.1807 19.9871 17.185 19.9915 17.1894 19.9871L18.8704 19.0178L18.8573 7.11133" stroke="black" stroke-width="0.12" stroke-miterlimit="10"/>
<path d="M15.5259 7.12732L17.2418 6.13184L18.866 7.12732C18.8748 7.13169 18.8748 7.14479 18.866 7.14915L17.1938 8.11407L15.5216 7.14915C15.5172 7.14479 15.5172 7.13169 15.5259 7.12732Z" fill="#017AFF" stroke="black" stroke-width="0.12" stroke-miterlimit="10"/>
<path d="M10.8386 12.6514L12.5283 13.625V21.161L10.8386 20.1873V12.6514Z" fill="#E8F4FD"/>
<path d="M14.2136 12.6514L12.5283 13.625V21.161L14.2136 20.1873V12.6514Z" fill="#017AFF"/>
<path d="M10.8386 12.6507L12.5719 11.6465L14.2136 12.6507L12.5283 13.6244L10.8386 12.6507Z" fill="#017AFF"/>
<path d="M12.5284 13.6245V21.1474C12.5284 21.1517 12.524 21.1561 12.5196 21.1517L10.843 20.1825L10.8561 12.6465" stroke="black" stroke-width="0.12" stroke-miterlimit="10"/>
<path d="M12.5283 13.6251V21.1523C12.5283 21.1567 12.5327 21.161 12.537 21.1567L14.218 20.1874L14.2049 12.6602" stroke="black" stroke-width="0.12" stroke-miterlimit="10"/>
<path d="M10.856 12.6381L12.5719 11.6426L14.1961 12.6381C14.2049 12.6424 14.2049 12.6555 14.1961 12.6599L12.5239 13.6248L10.8516 12.6599C10.8473 12.6555 10.8473 12.6424 10.856 12.6381Z" stroke="black" stroke-width="0.12" stroke-miterlimit="10"/>
<path d="M6.22134 17.4395L7.90668 18.4131V22.1986L6.22134 21.2205V17.4395Z" fill="#E8F4FD"/>
<path d="M9.59658 17.4395L7.90688 18.4131V22.1986L9.59658 21.2205V17.4395Z" fill="#017AFF"/>
<path d="M6.22101 17.4398L7.95437 16.4355L9.59605 17.4398L7.90634 18.4178L6.22101 17.4398Z" fill="#017AFF"/>
<path d="M7.90668 18.4131V22.1855C7.90668 22.1898 7.90231 22.1942 7.89795 22.1898L6.22134 21.2205L6.23443 17.4395" stroke="black" stroke-width="0.12" stroke-miterlimit="10"/>
<path d="M7.90688 18.4126V22.185C7.90688 22.1894 7.91124 22.1937 7.91561 22.1894L9.59658 21.2201L9.58349 17.4434" stroke="black" stroke-width="0.12" stroke-miterlimit="10"/>
<path d="M6.23852 17.431L7.95443 16.4355L9.57864 17.431C9.58737 17.4354 9.58737 17.4485 9.57864 17.4529L7.90639 18.4178L6.23415 17.4529C6.22979 17.4441 6.22979 17.4354 6.23852 17.431Z" stroke="black" stroke-width="0.12" stroke-miterlimit="10"/>
<mask id="mask0_4017_2690" style="mask-type:luminance" maskUnits="userSpaceOnUse" x="15" y="4" width="2" height="2">
<path d="M16.9237 5.65423L16.0877 5.16862C15.7444 4.94084 15.4352 4.736 15.1125 4.52246L15.9485 5.00807C16.2712 5.2224 16.5796 5.42725 16.9237 5.65423Z" fill="white" stroke="white" stroke-width="0.12"/>
</mask>
<g mask="url(#mask0_4017_2690)">
<path d="M16.9229 5.65521L16.0869 5.1696C15.7437 4.94182 15.4344 4.73698 15.1117 4.52344L15.9477 5.00905C16.2704 5.22338 16.5789 5.42822 16.9229 5.65521Z" fill="#323232" stroke="black" stroke-width="0.12"/>
</g>
<mask id="mask1_4017_2690" style="mask-type:luminance" maskUnits="userSpaceOnUse" x="11" y="3" width="5" height="7">
<path d="M12.2874 9.12968L11.4514 8.64408C12.3325 7.11448 13.2088 5.5928 14.1049 4.03711L14.9409 4.52272C14.0448 6.07841 13.1685 7.60009 12.2874 9.12968Z" fill="white" stroke="white" stroke-width="0.12"/>
</mask>
<g mask="url(#mask1_4017_2690)">
<path d="M12.2879 9.13066L11.452 8.64505C12.333 7.11546 13.2093 5.59378 14.1054 4.03809L14.9414 4.5237C14.0453 6.07939 13.169 7.60107 12.2879 9.13066Z" fill="#017AFF" stroke="black" stroke-width="0.12"/>
</g>
<mask id="mask2_4017_2690" style="mask-type:luminance" maskUnits="userSpaceOnUse" x="12" y="1" width="6" height="4">
<path d="M13.9243 4.01096L13.0883 3.52535C14.1434 2.91636 15.1035 2.36195 16.0779 1.79883L16.9139 2.28444C15.9395 2.84676 14.9786 3.40197 13.9243 4.01096Z" fill="white" stroke="white" stroke-width="0.12"/>
</mask>
<g mask="url(#mask2_4017_2690)">
<path d="M13.9241 4.01096L13.0882 3.52535C14.1432 2.91636 15.1034 2.36195 16.0777 1.79883L16.9137 2.28444C15.9393 2.84676 14.9784 3.40197 13.9241 4.01096Z" fill="#017AFF" stroke="black" stroke-width="0.12"/>
</g>
<mask id="mask3_4017_2690" style="mask-type:luminance" maskUnits="userSpaceOnUse" x="9" y="7" width="4" height="3">
<path d="M10.6552 8.32252L9.81925 7.83691C10.3824 8.11531 10.9289 8.3858 11.4517 8.64442L12.2876 9.13003C11.7649 8.87141 11.2183 8.60092 10.6552 8.32252Z" fill="white" stroke="white" stroke-width="0.12"/>
</mask>
<g mask="url(#mask3_4017_2690)">
<path d="M10.6551 8.32252L9.81908 7.83691C10.3822 8.11531 10.9287 8.3858 11.4515 8.64442L12.2875 9.13003C11.7647 8.87141 11.2182 8.60092 10.6551 8.32252Z" fill="#017AFF" stroke="black" stroke-width="0.12"/>
</g>
<mask id="mask4_4017_2690" style="mask-type:luminance" maskUnits="userSpaceOnUse" x="5" y="7" width="6" height="9">
<path d="M5.96347 15.8297L5.12749 15.3441C6.69663 12.833 8.24837 10.3488 9.8175 7.83691L10.6535 8.32252C9.08434 10.8344 7.53261 13.3186 5.96347 15.8297Z" fill="white" stroke="white" stroke-width="0.12"/>
</mask>
<g mask="url(#mask4_4017_2690)">
<path d="M5.96362 15.8297L5.12764 15.3441C6.69678 12.833 8.24851 10.3488 9.81765 7.83691L10.6536 8.32252C9.08449 10.8344 7.53275 13.3186 5.96362 15.8297Z" fill="#017AFF" stroke="black" stroke-width="0.12"/>
</g>
<mask id="mask5_4017_2690" style="mask-type:luminance" maskUnits="userSpaceOnUse" x="5" y="15" width="2" height="2">
<path d="M6.80815 16.4354L5.97217 15.9498C5.68824 15.7465 5.41775 15.5512 5.12749 15.3447L5.96347 15.8303C6.25373 16.0376 6.52422 16.2321 6.80815 16.4354Z" fill="white" stroke="white" stroke-width="0.12"/>
</mask>
<g mask="url(#mask5_4017_2690)">
<path d="M6.80829 16.4354L5.97232 15.9498C5.68838 15.7465 5.4179 15.5512 5.12764 15.3447L5.96362 15.8303C6.25387 16.0376 6.52436 16.2321 6.80829 16.4354Z" fill="#017AFF" stroke="black" stroke-width="0.12"/>
</g>
<path d="M16.9148 2.28516C16.918 3.39162 16.9212 4.49017 16.9243 5.65437C16.5811 5.42659 16.2718 5.22175 15.9492 5.00821C14.7343 7.1199 13.5701 9.14538 12.3996 11.1819C11.793 10.8822 11.2244 10.6014 10.6375 10.3112C9.36179 12.3525 8.09478 14.3787 6.80957 16.4359C6.52564 16.2334 6.25436 16.038 5.9649 15.8308C7.53403 13.3197 9.08577 10.8355 10.6549 8.32364C11.218 8.60204 11.7645 8.87252 12.2873 9.13115C13.1684 7.60155 14.0447 6.07987 14.9408 4.52418C14.6505 4.37787 14.3183 4.21099 13.9253 4.01247C14.9803 3.40348 15.9405 2.84906 16.9148 2.28595V2.28516Z" fill="#017AFF" stroke="black" stroke-width="0.12"/>
</g>
<defs>
<clipPath id="clip0_4017_2690">
<rect width="24" height="24" fill="white"/>
</clipPath>
</defs>
</svg>
