<svg width="24" height="24" viewBox="0 0 24 24" fill="none" xmlns="http://www.w3.org/2000/svg">
<g clip-path="url(#clip0_5893_1622)">
<path d="M10.5733 11.122C10.7711 14.0997 11.9802 16.8343 14.0651 18.7808C14.7403 19.6877 15.5257 20.5352 16.4015 21.2556C15.7799 21.2612 15.2319 21.168 14.7657 21.0352C13.6611 20.7188 13.0311 20.1764 13.0227 20.1679L12.9831 20.1792C12.9831 20.1792 12.9181 21.2217 13.6696 23.1003C7.97144 20.0041 8.3839 13.6731 9.62411 11.0288L10.5733 11.122Z" fill="#017AFF" stroke="black" stroke-width="0.075"/>
<path d="M16.9295 18.5153L16.9013 18.5379C16.9013 18.5379 17.0708 19.6086 18.198 21.12C13.7626 19.7413 10.9234 15.9162 10.5957 10.8706L11.8529 10.4751C13.5027 15.0913 15.1949 16.7242 20.41 18.7271C19.4099 19.2469 16.9521 18.5209 16.9267 18.5153H16.9295Z" fill="#017AFF" stroke="black" stroke-width="0.075"/>
<path d="M16.1589 4.05092C15.8679 3.88707 15.3509 3.61304 15.0571 3.47461C15.3481 3.63846 15.8651 3.9125 16.1589 4.05092Z" fill="#017AFF" stroke="black" stroke-width="0.075"/>
<path d="M8.29726 14.5572C8.23794 14.5035 7.6249 14.1843 7.54297 14.1362C7.84243 14.3001 8.07691 14.6928 8.38484 14.8594L9.02896 15.2098C8.76058 15.0629 8.54869 14.7436 8.29726 14.5572Z" fill="#017AFF" stroke="black" stroke-width="0.075"/>
<path d="M14.0599 1.85285C13.6022 1.6325 13.0485 1.93478 12.5908 1.70312C12.636 1.72573 13.2914 2.09016 13.3169 2.09016C13.7632 2.24554 14.2717 1.99693 14.704 2.20316L14.0599 1.85285Z" fill="#017AFF" stroke="black" stroke-width="0.075"/>
<path d="M11.7463 0.974341C11.5288 0.847212 11.2774 0.900889 11.0598 1.00824C10.6926 1.1721 10.3536 1.48568 9.92979 1.47155C9.59644 1.46025 9.2885 1.29357 8.95797 1.26532C8.72631 1.23425 8.50031 1.33878 8.33928 1.50545C7.98614 1.83034 7.78839 2.33885 7.33355 2.54508C6.95217 2.71459 6.50016 2.70046 6.1442 2.93212C5.52551 3.42085 5.76846 4.44918 5.06219 4.89272C4.74296 5.16392 4.2966 5.3871 4.19772 5.82499C4.06212 6.44933 4.46893 7.12452 4.07624 7.70649C3.89261 8.06527 3.60728 8.40993 3.59033 8.82804C3.59033 9.34221 4.13275 9.70664 4.23445 10.1728C4.33898 10.653 4.02539 11.3508 4.22597 11.7718C4.37288 12.0967 4.98027 12.3029 5.26277 12.4837C4.4548 12.1419 4.99722 11.187 4.88139 10.5231C4.77969 10.0569 4.23445 9.69252 4.23727 9.17835C4.2853 8.45513 5.06784 7.9325 4.89269 7.1669C4.66951 5.95212 4.92094 5.85324 5.82496 5.1498C6.00294 4.99442 6.13007 4.79666 6.20352 4.57348C6.60186 3.11575 6.62163 3.29373 7.98332 2.89539C8.62461 2.63266 8.79129 1.60433 9.56818 1.61563C10.0117 1.63541 10.444 1.93769 10.8903 1.77949C11.3819 1.63258 11.8537 1.05909 12.3933 1.32747L11.7491 0.977166L11.7463 0.974341Z" fill="#017AFF" stroke="black" stroke-width="0.075"/>
<path d="M6.02822 12.9499C5.87002 12.7465 5.29653 12.5007 5.07617 12.3623C5.74006 12.6194 5.53948 13.659 6.07342 13.9839L6.71754 14.3342C6.28813 14.0969 6.33615 13.32 6.02822 12.9471V12.9499Z" fill="#017AFF" stroke="black" stroke-width="0.075"/>
<path d="M12.0231 1.25384C12.574 1.17192 12.8593 1.91491 13.317 2.09006C13.7379 2.25109 14.399 1.97424 14.7606 2.23697C15.125 2.4997 15.1024 3.23704 15.3934 3.58735C15.6816 3.93766 16.3483 3.98851 16.5517 4.41227C16.7523 4.83321 16.4387 5.52818 16.5432 6.01127C16.6449 6.4774 17.1873 6.84466 17.1873 7.356C17.1873 7.86734 16.6393 8.38715 16.5376 8.88436C16.433 9.39853 16.7438 10.0059 16.5404 10.4805C16.337 10.9664 15.6674 11.2009 15.3765 11.6332C15.0827 12.0682 15.1024 12.7999 14.738 13.1643C14.3764 13.5288 13.7153 13.4412 13.2944 13.7181C12.8311 14.0147 12.574 14.8255 12.0005 14.9159C11.588 14.9752 11.1276 14.6588 10.701 14.7181C10.2179 14.7831 9.74892 15.3142 9.25735 15.2832C8.79687 15.2351 8.52001 14.6023 8.10472 14.4469C7.68379 14.2859 7.02272 14.5599 6.66111 14.2972C6.29668 14.0345 6.31928 13.2971 6.0283 12.9468C5.74014 12.5965 5.07342 12.5457 4.87002 12.1219C4.66944 11.701 4.98302 11.006 4.87849 10.5229C4.77679 10.0568 4.23438 9.69233 4.23438 9.17817C4.23438 8.66401 4.78244 8.14702 4.88414 7.64981C4.98867 7.13847 4.67791 6.52825 4.88132 6.05364C5.08472 5.56773 5.75426 5.33325 6.04525 4.90101C6.33905 4.46595 6.31928 3.73426 6.68371 3.36982C7.04532 3.00539 7.70639 3.09297 8.12732 2.81611C8.59064 2.51665 8.85054 1.70868 9.42403 1.61828C9.83649 1.56178 10.297 1.87536 10.7236 1.81603C11.1502 1.75671 11.6135 1.31034 12.0231 1.25384Z" fill="#EBF7FF" stroke="black" stroke-width="0.075"/>
<path d="M10.8274 2.79659C13.6299 2.40391 15.8956 4.53684 15.89 7.55684C15.8843 10.5768 13.6101 13.3482 10.8077 13.7437C8.00801 14.1364 5.73948 12.0063 5.74513 8.9835C5.75078 5.96067 8.02779 3.1921 10.8274 2.79659Z" fill="#017AFF" stroke="black" stroke-width="0.075"/>
<path d="M8.98871 5.93311L8.97741 11.4618L8.13837 11.5804L8.14684 7.00946L8.11576 7.01511L6.94053 8.14796L6.86426 8.15926L6.86708 7.27784L8.14119 6.05176L8.98871 5.93311Z" fill="#EBF7FF" stroke="black" stroke-width="0.075"/>
<path d="M10.8872 6.89107C11.5681 6.78655 12.0399 7.18488 12.0879 7.85725L11.5935 7.92788C11.5681 7.17076 10.5567 7.23291 10.2572 7.76402C10.1216 7.99285 10.0538 8.27253 10.051 8.60589C10.0482 8.93925 10.1188 9.20198 10.2544 9.38561C10.6528 9.8913 11.5596 9.50709 11.5963 8.87145L12.0851 8.80365C12.0455 9.8461 10.6415 10.5524 9.90129 9.7783C9.18372 8.91383 9.59053 6.99843 10.8872 6.8939V6.89107Z" fill="#EBF7FF" stroke="black" stroke-width="0.075"/>
<path d="M14.2014 8.34028L14.9359 9.42511V9.47031L14.3879 9.54659L13.6957 8.47306L13.1222 8.55499V9.72739L12.6392 9.79519L12.6448 6.68479L13.8596 6.51528C14.1506 6.47573 14.3766 6.53506 14.5461 6.69326C15.0235 7.14527 14.7919 8.07755 14.2014 8.34028ZM13.8285 7.9815C14.2692 7.95607 14.4472 7.36563 14.1845 7.07182C14.0997 6.99272 13.9839 6.96729 13.8313 6.98707L13.1251 7.08595V8.08037L13.8285 7.9815Z" fill="#EBF7FF" stroke="black" stroke-width="0.075"/>
<circle cx="20.7603" cy="17.8486" r="2.84477" fill="#017AFE" stroke="white" stroke-width="0.310458"/>
<path d="M20.6346 16.3961C20.6164 16.3962 20.5982 16.3971 20.5801 16.3987C20.5735 16.3993 20.5669 16.3999 20.5604 16.4007C20.5527 16.4016 20.545 16.4025 20.5373 16.4036L20.5265 16.4054C20.1983 16.4597 19.948 16.7446 19.948 17.0882C19.948 17.3338 20.0761 17.5495 20.269 17.6723C20.2716 17.6744 20.2745 17.6764 20.2776 17.6783L20.2781 17.6785L20.2328 17.6929C20.1637 17.7164 20.0969 17.746 20.0331 17.7812L19.9858 17.8086C19.981 17.8115 19.9763 17.8146 19.9715 17.8176C19.9349 17.8405 19.8995 17.8653 19.8655 17.8919L19.8606 17.8957C19.5689 18.1261 19.3816 18.4828 19.3816 18.8834C19.3816 18.9375 19.3851 18.9916 19.392 19.0453H21.8975V18.884C21.8975 18.3145 21.5192 17.8335 21.0002 17.6783C21.1987 17.5568 21.3311 17.338 21.3311 17.0882C21.3311 16.7219 21.0466 16.4223 20.6866 16.3978C20.6821 16.3975 20.6775 16.3971 20.6729 16.3968C20.6618 16.3963 20.6507 16.396 20.6395 16.396L20.6346 16.3961ZM20.6389 17.7828C21.2471 17.7828 21.7401 18.2758 21.7401 18.884C21.7401 18.8853 21.74 18.8866 21.74 18.8879H19.5377C19.5377 18.8866 19.5376 18.8853 19.5376 18.884C19.5376 18.2758 20.0307 17.7828 20.6389 17.7828ZM20.6389 16.5533C20.9343 16.5533 21.1738 16.7928 21.1738 17.0882C21.1738 17.3836 20.9343 17.6231 20.6389 17.6231C20.3435 17.6231 20.104 17.3836 20.104 17.0882C20.104 16.7928 20.3435 16.5533 20.6389 16.5533Z" fill="white" stroke="white" stroke-width="0.0204708"/>
<path d="M19.7609 16.6348C19.4482 16.6348 19.1946 16.8883 19.1946 17.2011C19.1946 17.3955 19.2925 17.567 19.4418 17.6689C19.0424 17.8012 18.754 18.1769 18.7523 18.6204H18.7522V18.7778H19.2281C19.2319 18.725 19.2388 18.6725 19.2486 18.6204H18.9017C18.9038 18.1487 19.2868 17.767 19.759 17.767L19.7484 17.7671L19.7606 17.7674C19.7629 17.7674 19.7652 17.7674 19.7674 17.7673L19.7742 17.7671C19.8432 17.7137 19.917 17.6668 19.9946 17.627C19.9777 17.6072 19.9617 17.5867 19.9466 17.5655C19.8892 17.5949 19.8255 17.6102 19.761 17.6102C19.5351 17.6102 19.3519 17.427 19.3519 17.2011C19.3519 16.9752 19.5351 16.7921 19.761 16.7921C19.7863 16.7922 19.8117 16.7946 19.8366 16.7994C19.854 16.7486 19.8762 16.6996 19.903 16.653C19.8806 16.6472 19.8578 16.6428 19.8349 16.6397L19.8315 16.6393C19.8216 16.6381 19.8116 16.6371 19.8015 16.6364C19.7995 16.6362 19.7974 16.636 19.7954 16.6359C19.784 16.6352 19.7725 16.6348 19.7609 16.6348Z" fill="#FFFFFE" stroke="#1FD896" stroke-width="0.0204708"/>
<path d="M21.4797 16.6343C21.7923 16.6343 22.0457 16.8878 22.0457 17.2006C22.0457 17.395 21.9478 17.5665 21.7987 17.6684C22.1978 17.8007 22.4861 18.1764 22.4878 18.62H22.4879V18.7773H22.0123C22.0084 18.7245 22.0015 18.672 21.9918 18.62H22.3385C22.3363 18.1482 21.9536 17.7665 21.4816 17.7665L21.4922 17.7666L21.48 17.767C21.4777 17.767 21.4754 17.7669 21.4732 17.7668L21.4664 17.7666C21.3974 17.7132 21.3237 17.6663 21.2461 17.6265C21.263 17.6067 21.279 17.5862 21.2941 17.565C21.3515 17.5944 21.4151 17.6097 21.4796 17.6097C21.7054 17.6097 21.8885 17.4265 21.8885 17.2006C21.8885 16.9747 21.7054 16.7916 21.4796 16.7916C21.4543 16.7917 21.429 16.7941 21.4041 16.7989C21.3866 16.7481 21.3644 16.6991 21.3377 16.6526C21.3601 16.6467 21.3828 16.6423 21.4058 16.6392L21.4092 16.6388C21.419 16.6376 21.429 16.6366 21.4391 16.6359C21.4411 16.6357 21.4432 16.6355 21.4453 16.6354C21.4566 16.6347 21.4681 16.6343 21.4797 16.6343Z" fill="#FFFFFE" stroke="#1FD896" stroke-width="0.0204708"/>
</g>
<defs>
<clipPath id="clip0_5893_1622">
<rect width="24" height="24" fill="white"/>
</clipPath>
</defs>
</svg>
