<svg width="24" height="24" viewBox="0 0 24 24" fill="none" xmlns="http://www.w3.org/2000/svg">
<g clip-path="url(#clip0_6027_5482)">
<path d="M10.5733 11.1215C10.7711 14.0992 11.9802 16.8338 14.0651 18.7803C14.7403 19.6872 15.5257 20.5347 16.4015 21.2551C15.7799 21.2607 15.2319 21.1675 14.7657 21.0347C13.6611 20.7183 13.0311 20.1759 13.0227 20.1674L12.9831 20.1787C12.9831 20.1787 12.9181 21.2212 13.6696 23.0999C7.97144 20.0036 8.3839 13.6726 9.62411 11.0283L10.5733 11.1215Z" fill="currentColor" stroke="currentColor" stroke-width="0.075"/>
<path d="M16.9295 18.5148L16.9013 18.5374C16.9013 18.5374 17.0708 19.6081 18.198 21.1195C13.7626 19.7408 10.9234 15.9157 10.5957 10.8701L11.8529 10.4746C13.5027 15.0908 15.1949 16.7237 20.41 18.7266C19.4099 19.2465 16.9521 18.5204 16.9267 18.5148H16.9295Z" fill="currentColor" stroke="currentColor" stroke-width="0.075"/>
<path d="M16.1589 4.05044C15.8679 3.88658 15.3509 3.61255 15.0571 3.47412C15.3481 3.63798 15.8651 3.91201 16.1589 4.05044Z" fill="currentColor" stroke="currentColor" stroke-width="0.075"/>
<path d="M8.29726 14.5567C8.23794 14.503 7.6249 14.1838 7.54297 14.1357C7.84243 14.2996 8.07691 14.6923 8.38484 14.859L9.02896 15.2093C8.76058 15.0624 8.54869 14.7431 8.29726 14.5567Z" fill="currentColor" stroke="currentColor" stroke-width="0.075"/>
<path d="M14.0599 1.85237C13.6022 1.63201 13.0485 1.93429 12.5908 1.70264C12.636 1.72524 13.2914 2.08967 13.3169 2.08967C13.7632 2.24505 14.2717 1.99644 14.704 2.20267L14.0599 1.85237Z" fill="currentColor" stroke="currentColor" stroke-width="0.075"/>
<path d="M11.7463 0.973852C11.5288 0.846724 11.2774 0.900401 11.0598 1.00775C10.6926 1.17161 10.3536 1.48519 9.92979 1.47107C9.59644 1.45976 9.2885 1.29309 8.95797 1.26483C8.72631 1.23376 8.50031 1.33829 8.33928 1.50497C7.98614 1.82985 7.78839 2.33836 7.33355 2.54459C6.95217 2.7141 6.50016 2.69997 6.1442 2.93163C5.52551 3.42037 5.76846 4.44869 5.06219 4.89223C4.74296 5.16344 4.2966 5.38662 4.19772 5.8245C4.06212 6.44884 4.46893 7.12404 4.07624 7.706C3.89261 8.06479 3.60728 8.40944 3.59033 8.82755C3.59033 9.34172 4.13275 9.70615 4.23445 10.1723C4.33898 10.6526 4.02539 11.3503 4.22597 11.7713C4.37288 12.0962 4.98027 12.3024 5.26277 12.4832C4.4548 12.1414 4.99722 11.1865 4.88139 10.5226C4.77969 10.0565 4.23445 9.69203 4.23727 9.17786C4.2853 8.45465 5.06784 7.93201 4.89269 7.16641C4.66951 5.95163 4.92094 5.85275 5.82496 5.14931C6.00294 4.99393 6.13007 4.79618 6.20352 4.57299C6.60186 3.11526 6.62163 3.29324 7.98332 2.8949C8.62461 2.63217 8.79129 1.60384 9.56818 1.61514C10.0117 1.63492 10.444 1.9372 10.8903 1.779C11.3819 1.63209 11.8537 1.0586 12.3933 1.32699L11.7491 0.976678L11.7463 0.973852Z" fill="currentColor" stroke="currentColor" stroke-width="0.075"/>
<path d="M6.02822 12.9494C5.87002 12.746 5.29653 12.5002 5.07617 12.3618C5.74006 12.6189 5.53948 13.6585 6.07342 13.9834L6.71754 14.3337C6.28813 14.0964 6.33615 13.3195 6.02822 12.9466V12.9494Z" fill="currentColor" stroke="currentColor" stroke-width="0.075"/>
<path d="M12.0231 1.25336C12.574 1.17143 12.8593 1.91442 13.317 2.08958C13.7379 2.25061 14.399 1.97375 14.7606 2.23648C15.125 2.49921 15.1024 3.23656 15.3934 3.58686C15.6816 3.93717 16.3483 3.98803 16.5517 4.41179C16.7523 4.83272 16.4387 5.52769 16.5432 6.01078C16.6449 6.47691 17.1873 6.84417 17.1873 7.35551C17.1873 7.86685 16.6393 8.38666 16.5376 8.88388C16.433 9.39804 16.7438 10.0054 16.5404 10.48C16.337 10.966 15.6674 11.2004 15.3765 11.6327C15.0827 12.0677 15.1024 12.7994 14.738 13.1639C14.3764 13.5283 13.7153 13.4407 13.2944 13.7176C12.8311 14.0142 12.574 14.825 12.0005 14.9154C11.588 14.9747 11.1276 14.6583 10.701 14.7177C10.2179 14.7826 9.74892 15.3137 9.25735 15.2827C8.79687 15.2346 8.52001 14.6018 8.10472 14.4464C7.68379 14.2854 7.02272 14.5594 6.66111 14.2967C6.29668 14.034 6.31928 13.2966 6.0283 12.9463C5.74014 12.596 5.07342 12.5452 4.87002 12.1214C4.66944 11.7005 4.98302 11.0055 4.87849 10.5224C4.77679 10.0563 4.23438 9.69185 4.23438 9.17768C4.23438 8.66352 4.78244 8.14653 4.88414 7.64932C4.98867 7.13798 4.67791 6.52776 4.88132 6.05315C5.08472 5.56724 5.75426 5.33276 6.04525 4.90052C6.33905 4.46546 6.31928 3.73377 6.68371 3.36933C7.04532 3.0049 7.70639 3.09248 8.12732 2.81562C8.59064 2.51616 8.85054 1.70819 9.42403 1.61779C9.83649 1.56129 10.297 1.87487 10.7236 1.81554C11.1502 1.75622 11.6135 1.30986 12.0231 1.25336Z" fill="currentColor" stroke="currentColor" stroke-width="0.075"/>
<path d="M10.8274 2.7961C13.6299 2.40342 15.8956 4.53635 15.89 7.55635C15.8843 10.5764 13.6101 13.3477 10.8077 13.7433C8.00801 14.1359 5.73948 12.0058 5.74513 8.98301C5.75078 5.96018 8.02779 3.19161 10.8274 2.7961Z" fill="currentColor" stroke="currentColor" stroke-width="0.075"/>
<path d="M8.98871 5.93213L8.97741 11.4608L8.13837 11.5794L8.14684 7.00848L8.11576 7.01413L6.94053 8.14699L6.86426 8.15829L6.86708 7.27686L8.14119 6.05078L8.98871 5.93213Z" fill="currentColor" stroke="currentColor" stroke-width="0.075"/>
<path d="M10.8872 6.88961C11.5681 6.78508 12.0399 7.18342 12.0879 7.85578L11.5935 7.92641C11.5681 7.16929 10.5567 7.23144 10.2572 7.76256C10.1216 7.99139 10.0538 8.27107 10.051 8.60443C10.0482 8.93779 10.1188 9.20052 10.2544 9.38415C10.6528 9.88984 11.5596 9.50563 11.5963 8.86998L12.0851 8.80218C12.0455 9.84463 10.6415 10.5509 9.90129 9.77683C9.18372 8.91236 9.59053 6.99696 10.8872 6.89243V6.88961Z" fill="currentColor" stroke="currentColor" stroke-width="0.075"/>
<path d="M14.2014 8.3393L14.9359 9.42413V9.46933L14.3879 9.54561L13.6957 8.47208L13.1222 8.55401V9.72641L12.6392 9.79422L12.6448 6.68381L13.8596 6.51431C14.1506 6.47476 14.3766 6.53408 14.5461 6.69229C15.0235 7.1443 14.7919 8.07657 14.2014 8.3393ZM13.8285 7.98052C14.2692 7.95509 14.4472 7.36465 14.1845 7.07085C14.0997 6.99174 13.9839 6.96632 13.8313 6.98609L13.1251 7.08497V8.0794L13.8285 7.98052Z" fill="currentColor" stroke="currentColor" stroke-width="0.075"/>
<circle cx="21.6755" cy="2.55" r="1.8" fill="currentColor"/>
<circle cx="20.7603" cy="17.8477" r="2.84477" fill="currentColor" stroke="currentColor" stroke-width="0.310458"/>
<path d="M20.6346 16.3956C20.6164 16.3957 20.5982 16.3966 20.5801 16.3982C20.5735 16.3988 20.5669 16.3994 20.5604 16.4002C20.5527 16.4011 20.545 16.402 20.5373 16.4031L20.5265 16.4049C20.1983 16.4592 19.948 16.7441 19.948 17.0877C19.948 17.3334 20.0761 17.549 20.269 17.6718C20.2716 17.6739 20.2745 17.6759 20.2776 17.6778L20.2781 17.678L20.2328 17.6924C20.1637 17.7159 20.0969 17.7455 20.0331 17.7807L19.9858 17.8081C19.981 17.811 19.9763 17.8141 19.9715 17.8171C19.9349 17.84 19.8995 17.8648 19.8655 17.8914L19.8606 17.8952C19.5689 18.1256 19.3816 18.4823 19.3816 18.8829C19.3816 18.9371 19.3851 18.9911 19.392 19.0448H21.8975V18.8835C21.8975 18.3141 21.5192 17.833 21.0002 17.6778C21.1987 17.5563 21.3311 17.3375 21.3311 17.0877C21.3311 16.7215 21.0466 16.4219 20.6866 16.3973C20.6821 16.397 20.6775 16.3966 20.6729 16.3964C20.6618 16.3958 20.6507 16.3955 20.6395 16.3955L20.6346 16.3956ZM20.6389 17.7823C21.2471 17.7823 21.7401 18.2753 21.7401 18.8835C21.7401 18.8848 21.74 18.8861 21.74 18.8874H19.5377C19.5377 18.8861 19.5376 18.8848 19.5376 18.8835C19.5376 18.2753 20.0307 17.7823 20.6389 17.7823ZM20.6389 16.5528C20.9343 16.5528 21.1738 16.7923 21.1738 17.0877C21.1738 17.3831 20.9343 17.6226 20.6389 17.6226C20.3435 17.6226 20.104 17.3831 20.104 17.0877C20.104 16.7923 20.3435 16.5528 20.6389 16.5528Z" fill="currentColor" stroke="currentColor" stroke-width="0.0204708"/>
<path d="M19.7609 16.6343C19.4482 16.6343 19.1946 16.8878 19.1946 17.2006C19.1946 17.395 19.2925 17.5665 19.4418 17.6684C19.0424 17.8007 18.754 18.1764 18.7523 18.62H18.7522V18.7773H19.2281C19.2319 18.7245 19.2388 18.672 19.2486 18.62H18.9017C18.9038 18.1482 19.2868 17.7665 19.759 17.7665L19.7484 17.7666L19.7606 17.767C19.7629 17.767 19.7652 17.7669 19.7674 17.7668L19.7742 17.7666C19.8432 17.7132 19.917 17.6663 19.9946 17.6265C19.9777 17.6067 19.9617 17.5862 19.9466 17.565C19.8892 17.5944 19.8255 17.6097 19.761 17.6097C19.5351 17.6097 19.3519 17.4265 19.3519 17.2006C19.3519 16.9747 19.5351 16.7916 19.761 16.7916C19.7863 16.7917 19.8117 16.7941 19.8366 16.7989C19.854 16.7481 19.8762 16.6991 19.903 16.6526C19.8806 16.6467 19.8578 16.6423 19.8349 16.6392L19.8315 16.6388C19.8216 16.6376 19.8116 16.6366 19.8015 16.6359C19.7995 16.6357 19.7974 16.6355 19.7954 16.6354C19.784 16.6347 19.7725 16.6343 19.7609 16.6343Z" fill="currentColor" stroke="currentColor" stroke-width="0.0204708"/>
<path d="M21.4797 16.6338C21.7923 16.6338 22.0457 16.8874 22.0457 17.2001C22.0457 17.3945 21.9478 17.566 21.7987 17.6679C22.1978 17.8002 22.4861 18.176 22.4878 18.6195H22.4879V18.7768H22.0123C22.0084 18.724 22.0015 18.6715 21.9918 18.6195H22.3385C22.3363 18.1478 21.9536 17.766 21.4816 17.766L21.4922 17.7662L21.48 17.7665C21.4777 17.7665 21.4754 17.7664 21.4732 17.7663L21.4664 17.7661C21.3974 17.7127 21.3237 17.6658 21.2461 17.626C21.263 17.6062 21.279 17.5857 21.2941 17.5645C21.3515 17.5939 21.4151 17.6092 21.4796 17.6092C21.7054 17.6092 21.8885 17.426 21.8885 17.2001C21.8885 16.9742 21.7054 16.7911 21.4796 16.7911C21.4543 16.7912 21.429 16.7936 21.4041 16.7984C21.3866 16.7476 21.3644 16.6986 21.3377 16.6521C21.3601 16.6463 21.3828 16.6418 21.4058 16.6388L21.4092 16.6383C21.419 16.6371 21.429 16.6361 21.4391 16.6354C21.4411 16.6353 21.4432 16.635 21.4453 16.6349C21.4566 16.6342 21.4681 16.6338 21.4797 16.6338Z" fill="currentColor" stroke="currentColor" stroke-width="0.0204708"/>
</g>
<defs>
<clipPath id="clip0_6027_5482">
<rect width="24" height="24" fill="currentColor"/>
</clipPath>
</defs>
</svg>
