<svg width="20" height="20" viewBox="0 0 20 20" fill="none" xmlns="http://www.w3.org/2000/svg">
<g clip-path="url(#clip0_3396_54897)">
<path d="M20 10C20 4.47715 15.5228 0 10 0C4.47715 0 0 4.47715 0 10C0 15.5228 4.47715 20 10 20C15.5228 20 20 15.5228 20 10Z" fill="currentColor"/>
<path d="M13.3824 10.6628C12.9623 10.6628 12.6527 10.4271 12.6527 10.0206C12.6527 9.61185 12.9575 9.37725 13.3824 9.37725H13.8487V8.50403H13.1512C12.1305 8.50403 11.5827 9.15041 11.5827 10.0206C11.5827 10.8904 12.1352 11.535 13.1567 11.535H13.8487V10.6628H13.3824Z" fill="currentColor"/>
<path d="M2.98488 8.5058H4.03707L4.96445 10.0549L4.95739 8.5058H6.00957V11.5303H4.95739C4.95739 11.5303 4.11548 10.1979 4.03804 10.0212L4.0371 11.5303H2.98489L2.98488 8.5058Z" fill="currentColor"/>
<path d="M9.53629 8.5058H10.6381V10.5554H11.5631V11.5303H9.53629V8.5058Z" fill="currentColor"/>
<path d="M15.5682 10.3565C15.528 10.3712 15.4855 10.3785 15.4421 10.3785L15.4265 10.3782L14.7256 11.2879L15.262 10.3335C15.2322 10.3175 15.2065 10.2971 15.1821 10.2767L14.5157 11.1449L15.0839 10.1253C15.0709 10.0864 15.0632 10.0442 15.0632 9.99808L15.0647 9.98201L14.1466 9.27717L15.1106 9.81698C15.1244 9.79079 15.1427 9.76608 15.1635 9.74358L14.2935 9.06554L15.3147 9.64236C15.3543 9.62786 15.3981 9.62048 15.4421 9.62048H15.4601L16.159 8.70886L15.6256 9.66692C15.6524 9.68364 15.6779 9.70048 15.6998 9.72283L16.3699 8.85795L15.8 9.87642C15.8142 9.91576 15.8212 9.95564 15.8212 9.99804V10.0101L16.7248 10.7082L15.774 10.1825C15.7599 10.2095 15.7409 10.2349 15.7197 10.258L16.5821 10.9217L15.5682 10.3565ZM15.4421 8.42742C14.5733 8.42742 13.87 9.13083 13.87 10C13.87 10.8689 14.5733 11.5731 15.4421 11.5731C16.3108 11.5731 17.015 10.8689 17.015 10C17.015 9.13083 16.3108 8.42742 15.4421 8.42742Z" fill="currentColor"/>
<path d="M7.78537 9.33502H7.77315L7.50115 10.3665H8.0588L7.78537 9.33502ZM9.46593 11.5281H8.3644L8.25499 11.1247H7.30127L7.19459 11.5281H6.09274L7.04565 8.49824H8.51415L9.46593 11.5281Z" fill="currentColor"/>
</g>
<defs>
<clipPath id="clip0_3396_54897">
<rect width="19.375" height="19.375" fill="currentColor" transform="scale(1.03226)"/>
</clipPath>
</defs>
</svg>
