<svg width="24" height="24" viewBox="0 0 24 24" fill="none" xmlns="http://www.w3.org/2000/svg">
<g clip-path="url(#clip0_2457_7483)">
<g clip-path="url(#clip1_2457_7483)">
<path fill-rule="evenodd" clip-rule="evenodd" d="M17.5132 3.14049C17.4644 3.25963 17.2836 3.74716 17.1114 4.22383C16.9392 4.70049 16.7425 5.24049 16.6744 5.42383C16.6062 5.60716 16.4256 6.10216 16.273 6.52383C16.1204 6.94549 15.9388 7.4405 15.8695 7.62383C15.7572 7.92103 14.8726 10.3542 13.9304 12.9572C12.744 16.2354 12.8075 16.0858 12.5279 16.2563L12.3086 16.39L14.834 16.3902C17.2362 16.3905 17.37 16.384 17.5734 16.2583C17.691 16.1856 17.837 16.0131 17.8978 15.875C18.0016 15.6389 22.6086 2.99556 22.6086 2.94656C22.6086 2.9341 21.482 2.92383 20.1052 2.92383H17.6018L17.5132 3.14049ZM6.50823 7.67383C6.29623 7.87203 6.09697 8.38456 4.1689 13.6905C3.00977 16.8805 1.94536 19.813 1.80363 20.2072L1.5459 20.9238H4.06343H6.58103L6.85657 20.1738C7.0081 19.7614 7.33117 18.8688 7.5745 18.1905C7.81783 17.5122 8.0595 16.8522 8.11157 16.7238C8.16363 16.5955 8.89677 14.5855 9.74077 12.2572C10.5848 9.92883 11.3128 7.95143 11.3586 7.86296C11.4044 7.7745 11.5319 7.6471 11.6419 7.5799C11.838 7.46003 11.7928 7.45763 9.2909 7.45743L6.73997 7.45716L6.50823 7.67383ZM11.9829 7.79636C11.7317 7.99396 11.7057 8.05456 10.7748 10.6158L9.93537 12.9254L10.4136 14.2413C10.6767 14.965 10.9326 15.637 10.9822 15.7346C11.1984 16.1591 11.7082 16.3148 12.1441 16.0894C12.3677 15.9738 12.4898 15.7634 12.7435 15.0572C12.8422 14.7822 13.2123 13.7664 13.5658 12.8C13.9193 11.8335 14.2086 10.9888 14.2086 10.923C14.2086 10.7986 13.3359 8.3457 13.191 8.06296C12.9915 7.67363 12.3257 7.52669 11.9829 7.79636Z" stroke="currentColor" stroke-width="1.75" stroke-linecap="round" stroke-linejoin="round"/>
</g>
</g>
<defs>
<clipPath id="clip0_2457_7483">
<rect width="24" height="24" fill="currentColor"/>
</clipPath>
<clipPath id="clip1_2457_7483">
<rect width="24" height="24" fill="currentColor"/>
</clipPath>
</defs>
</svg>
