<svg width="24" height="24" viewBox="0 0 24 24" fill="none" xmlns="http://www.w3.org/2000/svg">
<g clip-path="url(#clip0_3396_64024)">
<rect width="24" height="24" rx="12" fill="#FFFDFD"/>
<path d="M7.3984 3.66095C7.43975 3.66089 7.48109 3.6608 7.52243 3.66071C7.63535 3.66049 7.74828 3.66054 7.8612 3.66063C7.98325 3.66068 8.10531 3.66049 8.22736 3.66033C8.46623 3.66006 8.7051 3.66002 8.94396 3.66007C9.13821 3.66011 9.33246 3.66007 9.5267 3.65998C9.55438 3.65997 9.58207 3.65996 9.61059 3.65995C9.65273 3.65993 9.69487 3.65991 9.73701 3.65989C10.1286 3.65971 10.5201 3.65962 10.9117 3.65971C10.9338 3.65971 10.9338 3.65971 10.9564 3.65972C11.0311 3.65973 11.1058 3.65975 11.1806 3.65977C11.2028 3.65978 11.2028 3.65978 11.2255 3.65978C11.2555 3.65979 11.2855 3.6598 11.3155 3.6598C11.7823 3.65992 12.249 3.65975 12.7157 3.65936C13.2408 3.65892 13.7659 3.6587 14.291 3.65878C14.5688 3.65882 14.8465 3.65877 15.1243 3.65847C15.3608 3.65822 15.5972 3.65819 15.8337 3.65845C15.9543 3.65857 16.0748 3.65859 16.1953 3.65834C16.3059 3.65811 16.4165 3.65818 16.527 3.65847C16.5668 3.65853 16.6066 3.65848 16.6463 3.65831C16.9825 3.65697 17.3122 3.6889 17.6355 3.78629C17.6536 3.79166 17.6718 3.79703 17.6905 3.80257C18.689 4.1066 19.5073 4.77646 20.01 5.692C20.3073 6.25379 20.4412 6.87091 20.4371 7.50248C20.4368 7.56474 20.4371 7.62698 20.4375 7.68925C20.4379 8.0262 20.4046 8.35281 20.3064 8.67634C20.3009 8.69475 20.2955 8.71316 20.2899 8.73213C19.9871 9.73164 19.3053 10.5459 18.3932 11.0461C18.1515 11.174 17.8972 11.2657 17.6355 11.3433C17.6194 11.3481 17.6032 11.353 17.5866 11.358C17.2583 11.45 16.9281 11.4725 16.5889 11.4712C16.5475 11.4712 16.5061 11.4713 16.4646 11.4715C16.3519 11.4717 16.2393 11.4716 16.1266 11.4714C16.0046 11.4713 15.8826 11.4715 15.7606 11.4716C15.5221 11.4719 15.2836 11.4719 15.0451 11.4717C14.8512 11.4715 14.6572 11.4715 14.4633 11.4716C14.4356 11.4716 14.408 11.4716 14.3795 11.4716C14.3373 11.4716 14.2952 11.4717 14.2531 11.4717C13.7276 11.4719 13.2021 11.4717 12.6766 11.4713C12.2106 11.471 11.7445 11.4711 11.2785 11.4714C10.7539 11.4717 10.2293 11.4718 9.70471 11.4717C9.64871 11.4716 9.5927 11.4716 9.5367 11.4716C9.49537 11.4716 9.49537 11.4716 9.45321 11.4716C9.25964 11.4715 9.06607 11.4716 8.8725 11.4717C8.63641 11.4719 8.40031 11.4719 8.16422 11.4715C8.0439 11.4714 7.92359 11.4713 7.80327 11.4715C7.69289 11.4717 7.58251 11.4716 7.47213 11.4713C7.43245 11.4712 7.39276 11.4712 7.35308 11.4714C7.01425 11.4726 6.68346 11.4395 6.35794 11.3407C6.33953 11.3352 6.32112 11.3298 6.30215 11.3241C5.77281 11.1638 5.28978 10.9043 4.87762 10.536C4.84777 10.5105 4.81792 10.485 4.78806 10.4596C4.09611 9.84563 3.6266 8.9185 3.56745 7.99155C3.56258 7.87006 3.56212 7.74867 3.5629 7.6271C3.56324 7.56483 3.56291 7.5026 3.5625 7.44033C3.56211 7.10338 3.59541 6.77677 3.69363 6.45323C3.69908 6.43483 3.70453 6.41642 3.71014 6.39745C3.90072 5.76829 4.23768 5.23563 4.68797 4.76219C4.70019 4.74886 4.71242 4.73552 4.72501 4.72178C5.40684 4.00055 6.4284 3.65882 7.3984 3.66095Z" fill="#FF3333"/>
<path d="M7.69273 12.5136C7.73144 12.5136 7.77015 12.5135 7.80885 12.5134C7.9144 12.5133 8.01994 12.5133 8.12549 12.5133C8.23964 12.5134 8.3538 12.5132 8.46796 12.5131C8.69131 12.513 8.91465 12.5129 9.138 12.5129C9.31968 12.5129 9.50136 12.5128 9.68304 12.5128C10.1989 12.5126 10.7147 12.5125 11.2306 12.5125C11.2584 12.5125 11.2861 12.5125 11.3148 12.5125C11.3426 12.5125 11.3704 12.5125 11.399 12.5125C11.8494 12.5125 12.2999 12.5123 12.7503 12.512C13.2135 12.5117 13.6768 12.5116 14.14 12.5116C14.3998 12.5116 14.6596 12.5115 14.9194 12.5113C15.1406 12.5111 15.3618 12.5111 15.583 12.5112C15.6957 12.5113 15.8083 12.5113 15.921 12.5111C17 12.5095 17 12.5095 17.4078 12.6047C17.4276 12.6092 17.4474 12.6137 17.4679 12.6183C17.7994 12.6967 18.1073 12.8174 18.4061 12.98C18.4254 12.9903 18.4254 12.9903 18.4451 13.0008C18.9449 13.2688 19.3779 13.6619 19.7125 14.1179C19.7213 14.1296 19.73 14.1413 19.739 14.1533C20.1614 14.7239 20.4296 15.477 20.4333 16.1893C20.4334 16.2078 20.4335 16.2262 20.4336 16.2452C20.4338 16.2842 20.434 16.3232 20.4341 16.3622C20.4343 16.4204 20.4349 16.4786 20.4356 16.5368C20.4376 16.868 20.4 17.1883 20.3105 17.5079C20.3025 17.5365 20.3025 17.5365 20.2943 17.5658C20.139 18.0997 19.8624 18.6157 19.4822 19.023C19.4429 19.0652 19.4058 19.1086 19.3688 19.1528C18.7715 19.8335 17.8453 20.2516 16.9521 20.3342C16.8163 20.3416 16.6803 20.34 16.5444 20.3397C16.5037 20.3397 16.463 20.3398 16.4223 20.3399C16.3111 20.3401 16.2 20.3401 16.0888 20.34C15.9686 20.3399 15.8485 20.3401 15.7283 20.3403C15.4932 20.3406 15.258 20.3406 15.0228 20.3405C14.8316 20.3405 14.6403 20.3405 14.4491 20.3406C14.4218 20.3406 14.3945 20.3407 14.3664 20.3407C14.3111 20.3407 14.2557 20.3407 14.2003 20.3407C13.8286 20.3409 13.4568 20.341 13.0851 20.3409C13.0633 20.3409 13.0633 20.3409 13.0411 20.3409C12.9675 20.3409 12.8939 20.3409 12.8203 20.3408C12.8057 20.3408 12.7911 20.3408 12.7761 20.3408C12.7465 20.3408 12.7169 20.3408 12.6874 20.3408C12.2279 20.3407 11.7684 20.3409 11.3088 20.3413C10.7918 20.3417 10.2747 20.3419 9.7577 20.3418C9.48423 20.3418 9.21076 20.3418 8.93728 20.3421C8.70442 20.3424 8.47155 20.3424 8.23869 20.3422C8.12003 20.342 8.00138 20.342 7.88272 20.3423C7.7738 20.3425 7.66489 20.3424 7.55597 20.3421C7.51686 20.3421 7.47775 20.3421 7.43865 20.3423C7.0887 20.3437 6.73476 20.3165 6.3989 20.2117C6.38066 20.2062 6.36242 20.2007 6.34362 20.195C6.29032 20.1787 6.23725 20.1618 6.18423 20.1445C6.16938 20.1398 6.15454 20.135 6.13925 20.1301C5.65138 19.971 5.20749 19.6951 4.83561 19.3438C4.80803 19.3204 4.78038 19.2972 4.75264 19.274C4.08066 18.6843 3.65442 17.7609 3.57128 16.8783C3.56793 16.8142 3.56687 16.7502 3.56626 16.6861C3.56605 16.668 3.56585 16.65 3.56563 16.6314C3.56211 16.2439 3.56028 15.8658 3.65557 15.4876C3.66009 15.4693 3.6646 15.4511 3.66925 15.4323C3.7358 15.1719 3.8327 14.928 3.95058 14.6868C3.95726 14.6731 3.96394 14.6593 3.97082 14.6451C4.41709 13.7376 5.2235 13.0573 6.17173 12.7246C6.37752 12.6548 6.58512 12.6009 6.79927 12.5638C6.81325 12.5614 6.82723 12.5589 6.84163 12.5564C7.12301 12.512 7.4087 12.5133 7.69273 12.5136Z" fill="#FF3333"/>
<path d="M7.9966 5.71029C8.14687 5.82663 8.2779 5.96752 8.4119 6.10179C8.43635 6.12621 8.4608 6.15063 8.48526 6.17504C8.55122 6.2409 8.61711 6.30683 8.68298 6.37277C8.75206 6.4419 8.82118 6.51098 8.8903 6.58006C9.00622 6.69594 9.12209 6.81186 9.23793 6.9278C9.37189 7.06187 9.50591 7.19586 9.63998 7.32981C9.75524 7.44497 9.87045 7.56017 9.98563 7.67541C10.0544 7.74417 10.1231 7.81293 10.1919 7.88164C10.2565 7.94614 10.321 8.01069 10.3854 8.07529C10.4091 8.099 10.4328 8.12269 10.4565 8.14636C10.4889 8.17863 10.5211 8.21096 10.5534 8.2433C10.5805 8.27043 10.5805 8.27043 10.6081 8.29811C10.698 8.39349 10.7009 8.46641 10.7004 8.59191C10.7008 8.60848 10.7011 8.62504 10.7014 8.64212C10.7016 8.80437 10.6541 8.92683 10.543 9.04718C10.404 9.17134 10.2628 9.19907 10.0803 9.20324C9.79835 9.14794 9.62374 8.95618 9.43107 8.75933C9.40158 8.72965 9.37205 8.7 9.34251 8.67037C9.26527 8.59278 9.18843 8.5148 9.11166 8.43674C9.04913 8.37329 8.98632 8.31011 8.9235 8.24695C8.84808 8.17111 8.77277 8.09516 8.6975 8.01917C8.68334 8.00488 8.66918 7.99059 8.6546 7.97586C8.36835 7.68645 8.36835 7.68645 8.24947 7.54357C8.24939 7.5581 8.24931 7.57263 8.24923 7.58761C8.24843 7.72553 8.24723 7.86345 8.24559 8.00137C8.24476 8.07226 8.24408 8.14313 8.24376 8.21402C8.2433 8.29579 8.24232 8.37754 8.24124 8.4593C8.2412 8.49691 8.2412 8.49691 8.24116 8.53529C8.23803 8.71634 8.21343 8.88729 8.09958 9.03376C7.94422 9.15959 7.82231 9.22294 7.61862 9.21683C7.45066 9.19455 7.33454 9.10833 7.22689 8.9819C7.12747 8.82948 7.12325 8.7011 7.12346 8.52229C7.12325 8.49592 7.12304 8.46955 7.12282 8.44239C7.12232 8.37037 7.12211 8.29836 7.12207 8.22634C7.12203 8.18124 7.12189 8.13613 7.12172 8.09103C7.12114 7.93337 7.12088 7.77571 7.12093 7.61804C7.12097 7.47158 7.1203 7.32515 7.1193 7.17869C7.11847 7.05254 7.11814 6.92639 7.11818 6.80024C7.11819 6.72508 7.11802 6.64993 7.11734 6.57477C7.11661 6.4908 7.11691 6.40686 7.11729 6.32289C7.11693 6.29834 7.11658 6.27379 7.11621 6.24849C7.11816 6.07847 7.15757 5.95345 7.25908 5.81565C7.47176 5.6092 7.7358 5.55344 7.9966 5.71029Z" fill="#FFFDFD"/>
<path d="M16.5727 5.68952C16.7047 5.78335 16.8231 5.90116 16.8605 6.06422C16.9037 6.3451 16.9037 6.3451 16.829 6.47143C16.7711 6.53877 16.71 6.60002 16.6457 6.66118C16.6218 6.68496 16.5979 6.70882 16.5742 6.73273C16.5097 6.79714 16.4445 6.8606 16.379 6.92392C16.3104 6.99057 16.2427 7.05808 16.1749 7.1255C16.0463 7.25305 15.917 7.37984 15.7874 7.50637C15.6261 7.66396 15.4656 7.82248 15.3052 7.98103C15.2489 8.03669 15.1926 8.09234 15.1363 8.14798C15.1226 8.16147 15.1089 8.17496 15.0949 8.18886C15.001 8.28149 14.9069 8.37386 14.8128 8.46613C14.7752 8.50295 14.7377 8.53977 14.7001 8.57659C14.6657 8.61028 14.6313 8.6439 14.5968 8.67752C14.4953 8.77697 14.3963 8.87718 14.3046 8.9859C14.1923 9.11488 14.0415 9.2198 13.8699 9.23623C13.6799 9.24269 13.5633 9.2192 13.4185 9.09794C13.2719 8.92361 13.2273 8.78341 13.2433 8.55533C13.3133 8.32205 13.5132 8.15266 13.6806 7.98512C13.7057 7.95988 13.7308 7.93463 13.7559 7.90937C13.8236 7.84119 13.8915 7.77313 13.9594 7.70512C14.0018 7.66257 14.0443 7.61999 14.0867 7.57741C14.2349 7.42871 14.3832 7.28012 14.5316 7.13164C14.6698 6.99342 14.8076 6.85493 14.9454 6.71631C15.0639 6.59708 15.1826 6.47805 15.3014 6.35917C15.3723 6.28827 15.4431 6.21728 15.5137 6.14608C15.5801 6.07917 15.6467 6.01252 15.7135 5.94605C15.7379 5.92167 15.7622 5.8972 15.7865 5.87263C16.0259 5.6301 16.2506 5.51266 16.5727 5.68952Z" fill="#FFFEFE"/>
<path d="M10.6261 14.8091C10.6891 14.8437 10.7318 14.8845 10.7776 14.9398C10.7924 14.9563 10.8072 14.9728 10.8224 14.9898C10.9182 15.124 10.9461 15.2404 10.9251 15.4034C10.8596 15.684 10.5998 15.8793 10.4034 16.076C10.3791 16.1004 10.3548 16.1248 10.3304 16.1492C10.265 16.2149 10.1995 16.2806 10.134 16.3462C10.093 16.3872 10.052 16.4283 10.011 16.4694C9.88261 16.5981 9.75413 16.7268 9.62558 16.8554C9.47755 17.0035 9.32966 17.1518 9.18189 17.3002C9.0673 17.4152 8.9526 17.5301 8.8378 17.645C8.76936 17.7134 8.70098 17.7819 8.63272 17.8506C8.56864 17.915 8.50441 17.9793 8.44006 18.0434C8.41651 18.067 8.39301 18.0906 8.36957 18.1142C8.33752 18.1465 8.30528 18.1786 8.27299 18.2107C8.25501 18.2287 8.23704 18.2467 8.21852 18.2653C8.09545 18.3704 7.99138 18.3861 7.83426 18.3818C7.67131 18.3649 7.54753 18.3045 7.43701 18.1836C7.31097 18.0173 7.2668 17.8238 7.29017 17.6179C7.32322 17.4794 7.44859 17.3819 7.54756 17.2873C7.57414 17.2607 7.60064 17.234 7.62708 17.2072C7.69866 17.1352 7.77124 17.0642 7.84406 16.9935C7.9203 16.919 7.9956 16.8437 8.07103 16.7684C8.19774 16.6422 8.32506 16.5167 8.45283 16.3916C8.61661 16.2312 8.7794 16.0699 8.94189 15.9082C9.08192 15.7689 9.22233 15.6299 9.36283 15.4911C9.3929 15.4613 9.42296 15.4316 9.45301 15.4018C9.53867 15.317 9.62452 15.2324 9.71071 15.1481C9.73674 15.1226 9.7627 15.097 9.78858 15.0713C10.0343 14.8279 10.2758 14.6534 10.6261 14.8091Z" fill="#FFFEFE"/>
<path d="M15.3242 14.912C15.4713 14.9982 15.5518 15.1163 15.6035 15.277C15.6152 15.3665 15.615 15.4549 15.6144 15.545C15.6145 15.5713 15.6147 15.5975 15.6148 15.6245C15.6151 15.696 15.6151 15.7674 15.6148 15.8389C15.6146 15.914 15.6148 15.989 15.6149 16.0641C15.6151 16.1902 15.6149 16.3162 15.6145 16.4423C15.614 16.5876 15.6141 16.7329 15.6146 16.8782C15.615 17.0034 15.615 17.1286 15.6148 17.2538C15.6147 17.3284 15.6147 17.403 15.615 17.4776C15.6152 17.5608 15.6148 17.644 15.6144 17.7272C15.6145 17.7517 15.6147 17.7761 15.6149 17.8013C15.613 17.9814 15.5724 18.1036 15.4744 18.2534C15.3442 18.378 15.2229 18.4234 15.0424 18.4286C14.85 18.4208 14.7566 18.3783 14.6262 18.2389C14.5387 18.1387 14.5026 18.0541 14.5019 17.9206C14.5017 17.8973 14.5015 17.8741 14.5013 17.8501C14.5013 17.8248 14.5013 17.7995 14.5013 17.7735C14.5011 17.7467 14.5009 17.7199 14.5007 17.6922C14.5003 17.6188 14.5001 17.5454 14.5 17.472C14.4999 17.4261 14.4998 17.3801 14.4996 17.3342C14.4991 17.1737 14.4988 17.0132 14.4988 16.8527C14.4987 16.7034 14.498 16.5542 14.4972 16.405C14.4964 16.2766 14.4961 16.1482 14.4961 16.0198C14.4961 15.9432 14.4959 15.8667 14.4953 15.7901C14.4946 15.7046 14.4948 15.619 14.4951 15.5335C14.4948 15.5084 14.4945 15.4833 14.4941 15.4575C14.4957 15.275 14.5341 15.1295 14.6611 14.9938C14.6843 14.9775 14.6843 14.9775 14.7079 14.9609C14.7233 14.9496 14.7388 14.9383 14.7547 14.9267C14.9333 14.819 15.1368 14.826 15.3242 14.912Z" fill="#FFFEFE"/>
<path d="M16.8678 6.82715C16.8697 7.08213 16.8712 7.33712 16.8722 7.59211C16.8726 7.71052 16.8732 7.82893 16.8742 7.94734C16.8751 8.0617 16.8756 8.17606 16.8758 8.29042C16.8759 8.33396 16.8762 8.3775 16.8767 8.42104C16.8773 8.48223 16.8774 8.54339 16.8774 8.60457C16.8778 8.63133 16.8778 8.63133 16.8783 8.65863C16.877 8.84604 16.8038 8.99456 16.676 9.12969C16.5484 9.24599 16.43 9.26323 16.2592 9.25711C16.1 9.24096 15.9846 9.17952 15.8774 9.06079C15.6941 8.80268 15.6673 8.41471 15.7054 8.11036C15.767 7.81486 16.5354 6.82715 16.8678 6.82715Z" fill="#FFFCFC"/>
<path d="M8.20704 14.8561C8.42266 15.0616 8.46202 15.4117 8.4753 15.6944C8.47064 16.0786 8.23465 16.3078 7.97559 16.5613C7.36172 17.153 7.36172 17.153 7.30094 17.153C7.29849 16.8956 7.29663 16.6382 7.29548 16.3809C7.29493 16.2613 7.29419 16.1418 7.29299 16.0223C7.29184 15.9068 7.29122 15.7914 7.29095 15.6759C7.29075 15.632 7.29037 15.5881 7.2898 15.5441C7.28395 15.0752 7.28395 15.0752 7.44663 14.896C7.67315 14.6703 7.95324 14.6862 8.20704 14.8561Z" fill="#FFFDFD"/>
<path d="M10.4167 5.6792C10.5481 5.75925 10.6313 5.86606 10.6933 6.00582C10.6984 6.04713 10.6984 6.04713 10.6983 6.09116C10.6984 6.10794 10.6984 6.12472 10.6985 6.14201C10.6983 6.16023 10.6982 6.17845 10.698 6.19722C10.698 6.21655 10.6981 6.23588 10.6981 6.2558C10.698 6.31965 10.6977 6.3835 10.6974 6.44735C10.6973 6.49164 10.6972 6.53593 10.6972 6.58022C10.697 6.69675 10.6966 6.81329 10.6962 6.92982C10.6957 7.04875 10.6955 7.16768 10.6953 7.28661C10.6949 7.51994 10.6941 7.75327 10.6933 7.9866C10.6838 7.97846 10.6743 7.97032 10.6646 7.96194C10.5914 7.89913 10.5179 7.83681 10.4439 7.77508C9.59892 7.06155 9.59892 7.06155 9.55388 6.67684C9.53299 6.36963 9.55788 6.02935 9.76592 5.78868C9.96349 5.6239 10.1755 5.55862 10.4167 5.6792Z" fill="#FFFEFE"/>
</g>
<defs>
<clipPath id="clip0_3396_64024">
<rect width="24" height="24" fill="white"/>
</clipPath>
</defs>
</svg>
