<svg width="24" height="24" viewBox="0 0 24 24" fill="none" xmlns="http://www.w3.org/2000/svg">
<g clip-path="url(#clip0_6029_8848)">
<path d="M19.5686 2.19272C19.5855 2.18596 19.6023 2.18056 19.6191 2.17516C19.6299 2.17178 19.6407 2.16908 19.6508 2.16638C19.6609 2.16368 19.6703 2.16165 19.6797 2.1603C19.6925 2.1576 19.7053 2.15557 19.7174 2.15422C19.7249 2.15355 19.7316 2.15287 19.739 2.1522C19.7545 2.15084 19.77 2.15084 19.7848 2.15152C19.7881 2.15152 19.7915 2.15152 19.7956 2.15152C19.8137 2.15287 19.8312 2.1549 19.8481 2.15827C19.8521 2.15895 19.8562 2.1603 19.8609 2.16098C19.8743 2.16435 19.8871 2.16773 19.8999 2.17246C19.904 2.17381 19.908 2.17516 19.912 2.17651C19.9282 2.18259 19.9437 2.19002 19.9585 2.19879L19.4838 1.9219C19.4838 1.9219 19.4811 1.92055 19.4798 1.91987C19.4683 1.91312 19.4562 1.90772 19.4441 1.90231C19.4421 1.90164 19.4394 1.90096 19.4373 1.89961C19.4333 1.89826 19.4293 1.89691 19.4252 1.89556C19.4192 1.89353 19.4131 1.89083 19.4064 1.88881C19.3996 1.88678 19.3929 1.88543 19.3855 1.88408C19.3815 1.8834 19.3774 1.88205 19.3727 1.88138C19.3707 1.88138 19.368 1.88003 19.366 1.88003C19.3518 1.87733 19.3377 1.87598 19.3229 1.8753C19.3222 1.8753 19.3209 1.8753 19.3202 1.8753C19.3168 1.8753 19.3134 1.8753 19.3094 1.8753C19.298 1.8753 19.2872 1.87462 19.2757 1.8753C19.2717 1.8753 19.2677 1.87598 19.2636 1.87665C19.2569 1.87665 19.2495 1.878 19.2421 1.87868C19.2353 1.87935 19.2286 1.87935 19.2219 1.8807C19.2158 1.88138 19.2098 1.8834 19.2044 1.88476C19.1949 1.88678 19.1848 1.88881 19.1754 1.89083C19.17 1.89218 19.1653 1.89286 19.1599 1.89421C19.1545 1.89556 19.1492 1.89826 19.1438 1.89961C19.1269 1.90434 19.1101 1.91042 19.0933 1.91717C19.0872 1.9192 19.0818 1.92055 19.0758 1.92325C19.0697 1.92595 19.0643 1.92865 19.0583 1.93135C19.0529 1.93406 19.0468 1.93676 19.0414 1.93946C19.0199 1.94959 18.9983 1.96039 18.9761 1.97323L4.51839 10.3456C4.4955 10.3591 4.4726 10.3733 4.45038 10.3888C4.44298 10.3935 4.43624 10.3996 4.42884 10.4044C4.41402 10.4152 4.39854 10.4266 4.38372 10.4381C4.37564 10.4449 4.36757 10.4516 4.35948 10.4584C4.34602 10.4699 4.33255 10.4813 4.31908 10.4935C4.311 10.5009 4.30293 10.5084 4.29484 10.5158C4.29013 10.5205 4.28475 10.5252 4.27936 10.53C4.27397 10.5354 4.26926 10.5408 4.26387 10.5462C4.24771 10.5624 4.23155 10.5799 4.21607 10.5968C4.21135 10.6022 4.20597 10.6076 4.20125 10.613C4.19721 10.6178 4.19317 10.6225 4.18913 10.6272C4.17971 10.6387 4.17028 10.6495 4.16153 10.661C4.15547 10.6684 4.14941 10.6758 4.14335 10.6833C4.13863 10.6894 4.13392 10.6961 4.12921 10.7022C4.12247 10.711 4.11574 10.7197 4.10968 10.7292C4.10497 10.7353 4.10025 10.7414 4.09621 10.7481C4.08881 10.7589 4.08207 10.7697 4.07467 10.7805C4.06995 10.7873 4.06524 10.794 4.06053 10.8015C4.05851 10.8042 4.05649 10.8075 4.05447 10.8102C4.04167 10.8298 4.02955 10.8501 4.01743 10.871C4.01676 10.8724 4.01609 10.8737 4.01541 10.8751C4.01339 10.8791 4.0107 10.8832 4.00868 10.8872C4.0006 10.9021 3.99185 10.9163 3.98444 10.9311C3.98107 10.9379 3.97771 10.9446 3.97434 10.9514C3.97097 10.9581 3.96693 10.9656 3.96357 10.973C3.9602 10.9791 3.95683 10.9858 3.95414 10.9919C3.94606 11.0088 3.93865 11.025 3.93125 11.0419C3.9299 11.0453 3.92855 11.048 3.92721 11.0513C3.92721 11.052 3.92653 11.0534 3.92586 11.054C3.91643 11.075 3.90768 11.0966 3.8996 11.1182C3.89825 11.1223 3.89691 11.1263 3.89556 11.1297C3.89287 11.1378 3.89017 11.1452 3.88681 11.1533C3.88277 11.1641 3.87873 11.1749 3.87536 11.1857C3.87267 11.1938 3.87065 11.2026 3.86795 11.2107C3.86459 11.2209 3.86189 11.2303 3.8592 11.2404C3.85718 11.2465 3.85516 11.2526 3.85382 11.2587C3.85112 11.2695 3.84843 11.2803 3.84573 11.2911C3.84237 11.3032 3.83968 11.3154 3.83698 11.3276C3.83631 11.3316 3.83496 11.3363 3.83361 11.3404C3.83159 11.3492 3.83092 11.358 3.8289 11.3667C3.82553 11.3856 3.82217 11.4046 3.8188 11.4235C3.81813 11.4289 3.81678 11.4343 3.81611 11.439C3.81476 11.4512 3.81409 11.4626 3.81274 11.4748C3.81207 11.4829 3.81072 11.4917 3.81005 11.4998C3.80803 11.5261 3.80668 11.5531 3.80668 11.5788L3.83429 21.3404C3.83429 21.5376 3.89556 21.6841 3.99656 21.7679C4.0107 21.78 4.02619 21.7902 4.04235 21.7996L4.51704 22.0765C4.38911 22.0015 4.30966 21.8428 4.30898 21.6173L4.28138 11.8557C4.28138 11.8294 4.28273 11.803 4.28475 11.7767C4.28475 11.7686 4.28609 11.7598 4.28744 11.7517C4.28878 11.7348 4.29148 11.7172 4.2935 11.7004C4.29619 11.6814 4.29956 11.6625 4.30293 11.6436C4.30562 11.6308 4.30764 11.6173 4.31033 11.6045C4.31303 11.5923 4.31639 11.5801 4.31908 11.568C4.32312 11.5511 4.32784 11.5342 4.33255 11.5167C4.33524 11.5065 4.33861 11.4971 4.3413 11.4869C4.34736 11.468 4.35342 11.4485 4.36016 11.4295C4.36285 11.4214 4.36555 11.414 4.36824 11.4059C4.37834 11.3796 4.38844 11.3532 4.39988 11.3276C4.40123 11.3242 4.40258 11.3215 4.40392 11.3181C4.41402 11.2951 4.4248 11.2715 4.43624 11.2492C4.43961 11.2418 4.44365 11.235 4.44702 11.2276C4.45846 11.206 4.46991 11.1844 4.48203 11.1628C4.48405 11.1587 4.48674 11.1547 4.48876 11.1506C4.5029 11.1256 4.51839 11.1013 4.53388 11.077C4.53859 11.0703 4.5433 11.0635 4.54802 11.0561C4.55946 11.0385 4.57158 11.0216 4.5837 11.0047C4.59044 10.996 4.5965 10.9865 4.60323 10.9777C4.614 10.9635 4.62478 10.95 4.63555 10.9365C4.64498 10.9251 4.65373 10.9136 4.66316 10.9028C4.67191 10.892 4.68134 10.8818 4.69009 10.8717C4.70558 10.8541 4.72174 10.8373 4.7379 10.821C4.748 10.8109 4.75809 10.8001 4.7682 10.7907C4.77627 10.7832 4.78436 10.7758 4.79243 10.7684C4.8059 10.7562 4.81937 10.7447 4.83284 10.7332C4.84091 10.7265 4.849 10.7197 4.85707 10.713C4.87189 10.7008 4.8867 10.69 4.90219 10.6792C4.90959 10.6738 4.91633 10.6684 4.92373 10.6637C4.94595 10.6482 4.96885 10.6333 4.99174 10.6205L19.4508 2.24877C19.473 2.23594 19.4946 2.22513 19.5161 2.215C19.5215 2.2123 19.5276 2.2096 19.533 2.2069C19.5451 2.2015 19.5565 2.19744 19.568 2.19272H19.5686Z" fill="currentColor" stroke="currentColor" stroke-width="0.075" stroke-linecap="round" stroke-linejoin="round"/>
<path d="M19.4505 2.24865C19.8444 2.02038 20.1649 2.2034 20.1662 2.65724L20.1938 12.4188C20.1952 12.8733 19.8767 13.4264 19.4828 13.6547L5.02509 22.0271C4.63119 22.2554 4.31069 22.0723 4.30934 21.6178L4.28173 11.8562C4.28039 11.4024 4.59887 10.8493 4.99277 10.621L19.4505 2.24865Z" fill="currentColor" stroke="currentColor" stroke-width="0.075" stroke-linecap="round" stroke-linejoin="round"/>
<path d="M20.1691 10.1191L20.1738 11.7792L4.28663 20.9795L4.28192 19.3188L20.1691 10.1191Z" fill="currentColor" stroke="currentColor" stroke-width="0.075" stroke-linecap="round" stroke-linejoin="round"/>
<path d="M18.0631 10.3344C18.2687 10.2157 18.4354 9.92693 18.4354 9.68949L18.4355 5.28469C18.4355 5.01959 18.2494 4.91215 18.0199 5.0447L17.8004 5.17142C17.6513 5.2575 17.5136 5.42919 17.4396 5.62137L16.1277 9.02627C16.1237 9.03651 16.1164 9.04566 16.1085 9.05025C16.1005 9.05483 16.0932 9.05416 16.0893 9.04849L14.7744 7.15983C14.7003 7.05341 14.5627 7.04082 14.4138 7.12682L14.2101 7.24442C13.9805 7.37698 13.7944 7.69934 13.7944 7.96444L13.7943 12.3711C13.7943 12.6075 13.9602 12.7033 14.165 12.5851C14.3697 12.4669 14.5357 12.1794 14.5357 11.943L14.5358 8.4896C14.5358 8.4779 14.544 8.46367 14.5542 8.45782C14.5607 8.45405 14.5667 8.45457 14.57 8.45918L16.0666 10.5583C16.0766 10.5723 16.0949 10.5739 16.1148 10.5624C16.1347 10.5509 16.1531 10.5281 16.1631 10.5024L17.6605 6.65139C17.6634 6.6439 17.6688 6.63723 17.6746 6.63387C17.6836 6.62868 17.6909 6.63289 17.6909 6.64327L17.6908 10.1194C17.6908 10.3569 17.8574 10.4531 18.0631 10.3344Z" fill="currentColor" stroke="currentColor" stroke-width="0.075" stroke-linecap="round" stroke-linejoin="round"/>
<circle cx="20.925" cy="4.05" r="1.8" fill="currentColor"/>
</g>
<defs>
<clipPath id="clip0_6029_8848">
<rect width="24" height="24" fill="currentColor"/>
</clipPath>
</defs>
</svg>
