<svg width="24" height="24" viewBox="0 0 24 24" fill="none" xmlns="http://www.w3.org/2000/svg">
<g clip-path="url(#clip0_5893_1628)">
<path d="M19.5691 2.19272C19.586 2.18596 19.6028 2.18056 19.6196 2.17516C19.6304 2.17178 19.6412 2.16908 19.6513 2.16638C19.6614 2.16368 19.6708 2.16165 19.6802 2.1603C19.693 2.1576 19.7058 2.15557 19.7179 2.15422C19.7253 2.15355 19.7321 2.15287 19.7395 2.1522C19.755 2.15084 19.7705 2.15084 19.7853 2.15152C19.7886 2.15152 19.792 2.15152 19.796 2.15152C19.8142 2.15287 19.8317 2.1549 19.8486 2.15827C19.8526 2.15895 19.8566 2.1603 19.8614 2.16098C19.8748 2.16435 19.8876 2.16773 19.9004 2.17246C19.9044 2.17381 19.9085 2.17516 19.9125 2.17651C19.9287 2.18259 19.9442 2.19002 19.959 2.19879L19.4843 1.9219C19.4843 1.9219 19.4816 1.92055 19.4802 1.91987C19.4688 1.91312 19.4567 1.90772 19.4446 1.90231C19.4425 1.90164 19.4398 1.90096 19.4378 1.89961C19.4338 1.89826 19.4297 1.89691 19.4257 1.89556C19.4196 1.89353 19.4136 1.89083 19.4069 1.88881C19.4001 1.88678 19.3934 1.88543 19.386 1.88408C19.3819 1.8834 19.3779 1.88205 19.3732 1.88138C19.3712 1.88138 19.3685 1.88003 19.3665 1.88003C19.3523 1.87733 19.3382 1.87598 19.3234 1.8753C19.3227 1.8753 19.3213 1.8753 19.3207 1.8753C19.3173 1.8753 19.3139 1.8753 19.3099 1.8753C19.2984 1.8753 19.2877 1.87462 19.2762 1.8753C19.2722 1.8753 19.2681 1.87598 19.2641 1.87665C19.2574 1.87665 19.25 1.878 19.2426 1.87868C19.2358 1.87935 19.2291 1.87935 19.2224 1.8807C19.2163 1.88138 19.2102 1.8834 19.2049 1.88476C19.1954 1.88678 19.1853 1.88881 19.1759 1.89083C19.1705 1.89218 19.1658 1.89286 19.1604 1.89421C19.155 1.89556 19.1496 1.89826 19.1443 1.89961C19.1274 1.90434 19.1106 1.91042 19.0938 1.91717C19.0877 1.9192 19.0823 1.92055 19.0763 1.92325C19.0702 1.92595 19.0648 1.92865 19.0587 1.93135C19.0534 1.93406 19.0473 1.93676 19.0419 1.93946C19.0204 1.94959 18.9988 1.96039 18.9766 1.97323L4.51888 10.3456C4.49599 10.3591 4.47309 10.3733 4.45087 10.3888C4.44347 10.3935 4.43673 10.3996 4.42933 10.4044C4.41451 10.4152 4.39903 10.4266 4.38421 10.4381C4.37613 10.4449 4.36805 10.4516 4.35997 10.4584C4.34651 10.4699 4.33304 10.4813 4.31957 10.4935C4.31149 10.5009 4.30341 10.5084 4.29533 10.5158C4.29062 10.5205 4.28523 10.5252 4.27985 10.53C4.27446 10.5354 4.26975 10.5408 4.26436 10.5462C4.2482 10.5624 4.23204 10.5799 4.21655 10.5968C4.21184 10.6022 4.20645 10.6076 4.20174 10.613C4.1977 10.6178 4.19366 10.6225 4.18962 10.6272C4.18019 10.6387 4.17077 10.6495 4.16201 10.661C4.15595 10.6684 4.14989 10.6758 4.14383 10.6833C4.13912 10.6894 4.13441 10.6961 4.12969 10.7022C4.12296 10.711 4.11623 10.7197 4.11017 10.7292C4.10545 10.7353 4.10074 10.7414 4.0967 10.7481C4.08929 10.7589 4.08256 10.7697 4.07516 10.7805C4.07044 10.7873 4.06573 10.794 4.06102 10.8015C4.059 10.8042 4.05698 10.8075 4.05496 10.8102C4.04216 10.8298 4.03004 10.8501 4.01792 10.871C4.01725 10.8724 4.01657 10.8737 4.0159 10.8751C4.01388 10.8791 4.01119 10.8832 4.00917 10.8872C4.00109 10.9021 3.99234 10.9163 3.98493 10.9311C3.98156 10.9379 3.9782 10.9446 3.97483 10.9514C3.97146 10.9581 3.96742 10.9656 3.96406 10.973C3.96069 10.9791 3.95732 10.9858 3.95463 10.9919C3.94655 11.0088 3.93914 11.025 3.93174 11.0419C3.93039 11.0453 3.92904 11.048 3.9277 11.0513C3.9277 11.052 3.92702 11.0534 3.92635 11.054C3.91692 11.075 3.90817 11.0966 3.90009 11.1182C3.89874 11.1223 3.8974 11.1263 3.89605 11.1297C3.89336 11.1378 3.89066 11.1452 3.8873 11.1533C3.88326 11.1641 3.87922 11.1749 3.87585 11.1857C3.87316 11.1938 3.87114 11.2026 3.86844 11.2107C3.86508 11.2209 3.86238 11.2303 3.85969 11.2404C3.85767 11.2465 3.85565 11.2526 3.8543 11.2587C3.85161 11.2695 3.84892 11.2803 3.84622 11.2911C3.84286 11.3032 3.84016 11.3154 3.83747 11.3276C3.8368 11.3316 3.83545 11.3363 3.8341 11.3404C3.83208 11.3492 3.83141 11.358 3.82939 11.3667C3.82602 11.3856 3.82266 11.4046 3.81929 11.4235C3.81862 11.4289 3.81727 11.4343 3.8166 11.439C3.81525 11.4512 3.81458 11.4626 3.81323 11.4748C3.81256 11.4829 3.81121 11.4917 3.81054 11.4998C3.80852 11.5261 3.80717 11.5531 3.80717 11.5788L3.83478 21.3404C3.83478 21.5376 3.89605 21.6841 3.99705 21.7679C4.01119 21.78 4.02668 21.7902 4.04283 21.7996L4.51753 22.0765C4.3896 22.0015 4.31015 21.8428 4.30947 21.6173L4.28187 11.8557C4.28187 11.8294 4.28321 11.803 4.28523 11.7767C4.28523 11.7686 4.28658 11.7598 4.28793 11.7517C4.28927 11.7348 4.29197 11.7172 4.29399 11.7004C4.29668 11.6814 4.30005 11.6625 4.30341 11.6436C4.30611 11.6308 4.30813 11.6173 4.31082 11.6045C4.31351 11.5923 4.31688 11.5801 4.31957 11.568C4.32361 11.5511 4.32833 11.5342 4.33304 11.5167C4.33573 11.5065 4.3391 11.4971 4.34179 11.4869C4.34785 11.468 4.35391 11.4485 4.36065 11.4295C4.36334 11.4214 4.36603 11.414 4.36873 11.4059C4.37883 11.3796 4.38893 11.3532 4.40037 11.3276C4.40172 11.3242 4.40307 11.3215 4.40441 11.3181C4.41451 11.2951 4.42529 11.2715 4.43673 11.2492C4.4401 11.2418 4.44414 11.235 4.44751 11.2276C4.45895 11.206 4.4704 11.1844 4.48252 11.1628C4.48454 11.1587 4.48723 11.1547 4.48925 11.1506C4.50339 11.1256 4.51888 11.1013 4.53436 11.077C4.53908 11.0703 4.54379 11.0635 4.54851 11.0561C4.55995 11.0385 4.57207 11.0216 4.58419 11.0047C4.59093 10.996 4.59698 10.9865 4.60372 10.9777C4.61449 10.9635 4.62526 10.95 4.63604 10.9365C4.64546 10.9251 4.65422 10.9136 4.66364 10.9028C4.6724 10.892 4.68182 10.8818 4.69058 10.8717C4.70606 10.8541 4.72222 10.8373 4.73838 10.821C4.74848 10.8109 4.75858 10.8001 4.76868 10.7907C4.77676 10.7832 4.78484 10.7758 4.79292 10.7684C4.80639 10.7562 4.81986 10.7447 4.83332 10.7332C4.8414 10.7265 4.84948 10.7197 4.85756 10.713C4.87238 10.7008 4.88719 10.69 4.90268 10.6792C4.91008 10.6738 4.91682 10.6684 4.92422 10.6637C4.94644 10.6482 4.96934 10.6333 4.99223 10.6205L19.4513 2.24877C19.4735 2.23594 19.4951 2.22513 19.5166 2.215C19.522 2.2123 19.5281 2.2096 19.5334 2.2069C19.5456 2.2015 19.557 2.19744 19.5685 2.19272H19.5691Z" fill="#EBF7FF" stroke="black" stroke-width="0.075" stroke-linecap="round" stroke-linejoin="round"/>
<path d="M19.451 2.24865C19.8449 2.02038 20.1654 2.2034 20.1667 2.65724L20.1943 12.4188C20.1957 12.8733 19.8772 13.4264 19.4833 13.6547L5.02558 22.0271C4.63168 22.2554 4.31118 22.0723 4.30983 21.6178L4.28222 11.8562C4.28088 11.4024 4.59936 10.8493 4.99326 10.621L19.451 2.24865Z" fill="#017AFF" stroke="black" stroke-width="0.075" stroke-linecap="round" stroke-linejoin="round"/>
<path d="M20.1696 10.1191L20.1743 11.7792L4.28712 20.9795L4.2824 19.3188L20.1696 10.1191Z" fill="#EBF7FF" stroke="black" stroke-width="0.075" stroke-linecap="round" stroke-linejoin="round"/>
<path d="M18.0635 10.3344C18.2692 10.2157 18.4359 9.92693 18.4359 9.68949L18.436 5.28469C18.436 5.01959 18.2499 4.91215 18.0204 5.0447L17.8009 5.17142C17.6518 5.2575 17.5141 5.42919 17.4401 5.62137L16.1282 9.02627C16.1242 9.03651 16.1169 9.04566 16.109 9.05025C16.101 9.05483 16.0937 9.05416 16.0897 9.04849L14.7749 7.15983C14.7008 7.05341 14.5632 7.04082 14.4143 7.12682L14.2106 7.24442C13.981 7.37698 13.7949 7.69934 13.7949 7.96444L13.7948 12.3711C13.7948 12.6075 13.9607 12.7033 14.1655 12.5851C14.3702 12.4669 14.5362 12.1794 14.5362 11.943L14.5363 8.4896C14.5363 8.4779 14.5445 8.46367 14.5546 8.45782C14.5612 8.45405 14.5672 8.45457 14.5705 8.45918L16.0671 10.5583C16.0771 10.5723 16.0954 10.5739 16.1153 10.5624C16.1352 10.5509 16.1536 10.5281 16.1635 10.5024L17.661 6.65139C17.6639 6.6439 17.6693 6.63723 17.6751 6.63387C17.6841 6.62868 17.6914 6.63289 17.6914 6.64327L17.6912 10.1194C17.6912 10.3569 17.8579 10.4531 18.0635 10.3344Z" fill="#EBF7FF" stroke="black" stroke-width="0.075" stroke-linecap="round" stroke-linejoin="round"/>
</g>
<defs>
<clipPath id="clip0_5893_1628">
<rect width="24" height="24" fill="white"/>
</clipPath>
</defs>
</svg>
