<svg width="24" height="24" viewBox="0 0 24 24" fill="none" xmlns="http://www.w3.org/2000/svg">
<path d="M2 13.9998V19.9998C2 21.3128 4.0125 21.9998 6 21.9998C7.9875 21.9998 10 21.3128 10 19.9998V13.9998C10 11.3738 2 11.3738 2 13.9998ZM9 17.9998C9 18.3523 7.86125 18.9998 6 18.9998C4.13875 18.9998 3 18.3523 3 17.9998V17.3518C3.93419 17.8034 4.96268 18.0256 6 17.9998C7.03732 18.0256 8.06581 17.8034 9 17.3518V17.9998ZM9 15.9998C9 16.3523 7.86125 16.9998 6 16.9998C4.13875 16.9998 3 16.3523 3 15.9998V15.3518C3.93419 15.8034 4.96268 16.0256 6 15.9998C7.03732 16.0256 8.06581 15.8034 9 15.3518V15.9998ZM6 12.9998C7.86125 12.9998 9 13.6473 9 13.9998C9 14.3523 7.86125 14.9998 6 14.9998C4.13875 14.9998 3 14.3523 3 13.9998C3 13.6473 4.13875 12.9998 6 12.9998ZM6 20.9998C4.13875 20.9998 3 20.3523 3 19.9998V19.3518C3.93419 19.8034 4.96268 20.0256 6 19.9998C7.03732 20.0256 8.06581 19.8034 9 19.3518V19.9998C9 20.3523 7.86125 20.9998 6 20.9998Z" fill="#223466"/>
<path d="M17.2372 5.3745L18.5592 2.72325C18.5972 2.64705 18.6152 2.5624 18.6113 2.47733C18.6074 2.39225 18.5819 2.30957 18.5371 2.23713C18.4924 2.16469 18.4298 2.10488 18.3555 2.06338C18.2811 2.02188 18.1974 2.00007 18.1122 2H12.1122C12.0269 1.99994 11.943 2.02171 11.8684 2.06325C11.7939 2.10478 11.7313 2.16469 11.6864 2.23729C11.6416 2.30988 11.6161 2.39274 11.6123 2.47798C11.6086 2.56321 11.6267 2.64799 11.665 2.72425L12.974 5.33525C10.6475 6.0835 8.84021 8.088 8.23646 10.812C8.20777 10.9415 8.23166 11.0771 8.30286 11.1889C8.37406 11.3008 8.48676 11.3799 8.61621 11.4087C8.68038 11.4236 8.74687 11.4256 8.8118 11.4145C8.87673 11.4034 8.93879 11.3794 8.99436 11.344C9.04992 11.3086 9.09787 11.2625 9.13541 11.2084C9.17294 11.1543 9.19931 11.0932 9.21296 11.0288C9.87871 8.021 12.2047 6 14.9997 6C18.4762 6 20.9997 8.94375 20.9997 13V17.5C20.999 18.1628 20.7354 18.7983 20.2667 19.267C19.798 19.7357 19.1625 19.9993 18.4997 20H11.4997C11.3671 20 11.2399 20.0527 11.1462 20.1464C11.0524 20.2402 10.9997 20.3674 10.9997 20.5C10.9997 20.6326 11.0524 20.7598 11.1462 20.8536C11.2399 20.9473 11.3671 21 11.4997 21H18.4997C19.4276 20.9989 20.3172 20.6298 20.9733 19.9736C21.6295 19.3175 21.9986 18.4279 21.9997 17.5V13C21.9997 9.27125 20.093 6.369 17.2372 5.3745ZM13.971 5.092L12.9217 3H17.3042L16.2475 5.119C15.836 5.04183 15.4184 5.002 14.9997 5C14.6549 5.00406 14.311 5.03482 13.971 5.092Z" fill="#223466"/>
<path d="M15.1789 17.3986C15.1444 17.3986 15.1125 17.3803 15.0951 17.3505L13.1128 13.9544C13.1042 13.9395 13.0996 13.9226 13.0996 13.9055V13.5665C13.0996 13.5129 13.1431 13.4694 13.1967 13.4694H13.3352C13.7135 13.4694 14.0311 13.4344 14.288 13.3644C14.5521 13.2944 14.7591 13.1788 14.909 13.0177C15.0394 12.8776 15.1238 12.6925 15.1624 12.4623C15.1719 12.4056 15.1267 12.3558 15.0692 12.3558H13.1967C13.1431 12.3558 13.0996 12.3124 13.0996 12.2588V11.7805C13.0996 11.7269 13.1431 11.6835 13.1967 11.6835H15.0484C15.1094 11.6835 15.1555 11.6278 15.1398 11.5689C15.0845 11.3617 14.9933 11.1898 14.8662 11.0531C14.7163 10.885 14.5129 10.7624 14.2559 10.6854C14.0061 10.6084 13.6992 10.5698 13.3352 10.5698H13.1967C13.1431 10.5698 13.0996 10.5264 13.0996 10.4728V9.9945C13.0996 9.94091 13.1431 9.89746 13.1967 9.89746H17.4351C17.4887 9.89746 17.5321 9.94091 17.5321 9.9945V10.4728C17.5321 10.5264 17.4887 10.5698 17.4351 10.5698H15.7824C15.691 10.5698 15.6459 10.6901 15.7071 10.758C15.7856 10.8451 15.8551 10.9399 15.9154 11.0426C16.0098 11.2032 16.0737 11.3883 16.1071 11.5979C16.1148 11.6465 16.156 11.6835 16.2053 11.6835H17.4351C17.4887 11.6835 17.5321 11.7269 17.5321 11.7805V12.2588C17.5321 12.3124 17.4887 12.3558 17.4351 12.3558H16.2283C16.1784 12.3558 16.1368 12.3938 16.1301 12.4433C16.0667 12.9129 15.8702 13.2829 15.5407 13.5535C15.2282 13.809 14.8207 13.9801 14.3181 14.0666C14.2488 14.0786 14.2119 14.1567 14.2489 14.2165L16.1237 17.2506C16.1637 17.3152 16.1172 17.3986 16.0412 17.3986H15.1789Z" fill="#223466"/>
</svg>
