<svg width="16" height="16" viewBox="0 0 16 16" fill="none" xmlns="http://www.w3.org/2000/svg">
<g clip-path="url(#clip0_3468_9583)">
<path d="M6.23597 13.9997C6.70606 14.4146 7.32355 14.6663 7.99985 14.6663C8.67615 14.6663 9.29364 14.4146 9.76373 13.9997M9.99985 3.33301H13.9999M8.66652 1.38894C8.44767 1.35195 8.22474 1.33301 7.99985 1.33301C6.93898 1.33301 5.92157 1.75444 5.17142 2.50458C4.42128 3.25473 3.99985 4.27214 3.99985 5.33301C3.99985 7.39313 3.48016 8.80365 2.89963 9.73662C2.40994 10.5236 2.16509 10.9171 2.17407 11.0268C2.18401 11.1484 2.20976 11.1947 2.3077 11.2674C2.39616 11.333 2.79491 11.333 3.59242 11.333H12.4073C13.2048 11.333 13.6036 11.333 13.6921 11.2674C13.79 11.1947 13.8157 11.1484 13.8257 11.0268C13.8347 10.9171 13.5898 10.5236 13.1002 9.73679C12.5845 8.90809 12.1168 7.70258 12.0187 5.99967" stroke="currentColor" stroke-width="1.25" stroke-linecap="round" stroke-linejoin="round"/>
</g>
<defs>
<clipPath id="clip0_3468_9583">
<rect width="16" height="16" fill="currentColor"/>
</clipPath>
</defs>
</svg>
