<svg width="16" height="16" viewBox="0 0 16 16" fill="none" xmlns="http://www.w3.org/2000/svg">
<g clip-path="url(#clip0_3468_9640)">
<path d="M6.23597 13.9997C6.70606 14.4146 7.32355 14.6663 7.99985 14.6663C8.67615 14.6663 9.29364 14.4146 9.76373 13.9997M11.9998 5.33301C11.9998 4.27214 11.5784 3.25473 10.8283 2.50458C10.0781 1.75444 9.06072 1.33301 7.99985 1.33301C6.93898 1.33301 5.92157 1.75444 5.17142 2.50458C4.42128 3.25473 3.99985 4.27214 3.99985 5.33301C3.99985 7.39313 3.48016 8.80365 2.89963 9.73662C2.40993 10.5236 2.16509 10.9171 2.17407 11.0268C2.18401 11.1484 2.20976 11.1947 2.3077 11.2674C2.39616 11.333 2.79491 11.333 3.59242 11.333H12.4073C13.2048 11.333 13.6035 11.333 13.692 11.2674C13.7899 11.1947 13.8157 11.1484 13.8256 11.0268C13.8346 10.9171 13.5898 10.5236 13.1001 9.73662C12.5195 8.80365 11.9998 7.39313 11.9998 5.33301Z" stroke="#5E6063" stroke-width="1.25" stroke-linecap="round" stroke-linejoin="round"/>
</g>
<defs>
<clipPath id="clip0_3468_9640">
<rect width="16" height="16" fill="white"/>
</clipPath>
</defs>
</svg>
