<svg width="24" height="24" viewBox="0 0 24 24" fill="none" xmlns="http://www.w3.org/2000/svg">
<g clip-path="url(#clip0_6030_1500)">
<path d="M10.5073 13.353C13.196 17.0774 16.9602 18.9695 20.0871 18.9097L19.7685 18.1728C16.9204 18.2525 13.7935 16.4401 10.9455 13.0742L10.5073 13.353Z" fill="#017AFF" stroke="black" stroke-width="0.075"/>
<path d="M12.2639 15.1247C12.0647 14.6666 12.2639 14.7264 12.0647 14.2683C13.2995 12.4957 10.2917 7.78045 11.1087 3.45372C10.9494 3.09522 10.79 2.69689 10.79 2.69689V2.31848L11.2282 2.05957C13.6381 6.6005 14.0762 12.3165 12.6821 14.9056L12.2639 15.1247Z" fill="#017AFF" stroke="black" stroke-width="0.075"/>
<path d="M12.4468 11.6592C14.5407 13.3792 15.7035 14.3032 19.0937 15.3003C18.994 14.8765 18.8195 14.7768 18.7198 14.378C16.7754 13.6301 15.0554 12.5832 13.1608 11.0127C12.9365 11.1872 12.4468 11.6592 12.4468 11.6592Z" fill="#017AFF" stroke="black" stroke-width="0.075"/>
<path d="M15.1675 13.1155L15.6793 13.3839L15.8948 13.1684V11.0133L15.1675 10.7002V13.1155Z" fill="#017AFF" stroke="black" stroke-width="0.075"/>
<path d="M15.5852 13.3526L16.0034 13.1733V10.9626L15.5852 10.7236V13.3526Z" fill="#017AFF" stroke="black" stroke-width="0.075"/>
<path d="M18.2723 18.0134C18.4914 18.1926 18.4117 18.2523 18.6308 18.3519C19.1885 18.093 19.1287 18.0333 19.1287 18.0333C19.308 15.6831 19.7703 10.7973 13.3052 9.07324L13.1538 9.58873C18.9296 11.2418 18.8897 16.201 18.2723 18.0134Z" fill="#017AFF" stroke="black" stroke-width="0.075"/>
<path d="M10.1099 13.7911C13.177 17.2964 16.6425 19.2282 19.6897 19.1685C19.6897 19.1685 19.8149 18.8377 19.556 18.3398C16.7079 18.4195 13.3961 16.6989 10.548 13.333L10.1099 13.7911Z" fill="#017AFF" stroke="black" stroke-width="0.075"/>
<path d="M11.7804 14.3484C13.1148 12.1377 12.2982 6.08314 10.3862 2.55795L10.8443 2.33887C13.309 6.48726 13.6525 12.536 12.2385 15.1252C12.2385 15.1252 12.0393 14.926 11.6808 14.4878L11.7804 14.3484Z" fill="#017AFF" stroke="black" stroke-width="0.075"/>
<path d="M18.2363 18.2928C18.3757 18.4123 18.6347 18.3526 18.6347 18.3526C18.8139 15.9825 19.1879 10.9588 13.0935 9.50488C13.0935 9.93589 13.3568 9.90803 13.4365 10.1869C18.6745 11.2623 18.3558 16.4207 18.2363 18.2928Z" fill="#017AFF" stroke="black" stroke-width="0.075"/>
<path d="M19.7675 18.1719L19.3293 18.4308L19.648 19.1677L20.0862 18.8889L19.7675 18.1719Z" fill="#017AFF" stroke="black" stroke-width="0.075"/>
<path d="M11.2426 2.05957L10.8642 2.35832L10.3862 2.55748L10.7646 2.27865L11.2426 2.05957Z" fill="#017AFF" stroke="black" stroke-width="0.075"/>
<path d="M13.1383 11.7402C13.1383 11.7402 14.174 13.0348 16.5241 14.0505C17.3208 14.3891 17.8984 14.6679 18.0776 14.8671C18.1374 14.9468 18.1971 15.0463 18.2569 15.1658C18.3565 15.4248 18.2569 15.7235 17.998 15.8629L13.1981 18.6512L7.84058 14.8671L13.1383 11.7402Z" fill="#EBF7FF" stroke="black" stroke-width="0.075"/>
<path d="M12.4805 18.0944L13.3369 18.6919L18.1367 15.9036C18.3757 15.7642 18.4952 15.4654 18.3956 15.2065C18.3558 15.087 18.2961 14.9875 18.2164 14.9078C18.1965 14.8879 18.1567 14.848 18.1168 14.8281L12.4805 18.0944Z" fill="#EBF7FF" stroke="black" stroke-width="0.075"/>
<path d="M10.94 3.03906L5.55103 6.52146C5.55103 6.52146 7.5825 13.2731 7.32359 14.3287C7.12442 15.1452 7.8215 15.3842 7.8215 15.3842L13.095 11.8746C13.095 11.8746 13.0312 7.04225 10.94 3.03906Z" fill="#EBF7FF" stroke="black" stroke-width="0.075"/>
<path d="M4.80981 16.6421C7.49853 20.3665 11.2627 22.2585 14.3896 22.1988L14.071 21.4619C11.2229 21.5415 8.09603 19.7291 5.24798 16.3633L4.80981 16.6421Z" fill="#017AFF" stroke="black" stroke-width="0.075"/>
<path d="M7.70581 15.5415C9.64533 17.4776 11.0264 18.0364 12.6396 18.6538C12.5599 18.3153 12.5201 18.1559 12.4404 17.8174C10.887 17.2199 9.21946 16.1463 7.70581 14.8916C7.74564 15.0908 7.70581 15.5415 7.70581 15.5415Z" fill="#017AFF" stroke="black" stroke-width="0.075"/>
<path d="M6.56184 18.4139C6.36267 17.9558 6.56184 18.0155 6.36267 17.5575C7.59749 15.7849 7.21908 10.6863 5.52618 7.1213C5.34693 6.78272 5.20752 6.38439 5.20752 6.38439V6.00598L5.64568 5.74707C8.05557 10.288 8.39415 15.6057 7 18.1948L6.56184 18.4139Z" fill="#017AFF" stroke="black" stroke-width="0.075"/>
<path d="M7.70172 14.8941C9.3747 16.2683 9.98337 17.3783 12.692 18.1749C12.6123 17.8363 12.4729 17.7567 12.3933 17.438C10.8398 16.8405 8.35232 14.6769 7.70571 14.8941C7.52647 15.0335 7.70172 14.8941 7.70172 14.8941Z" fill="#017AFF" stroke="black" stroke-width="0.075"/>
<path d="M9.64551 16.4631L9.86101 16.6163L10.3062 16.4631V14.2723L9.64551 14.0303V16.4631Z" fill="#017AFF" stroke="black" stroke-width="0.075"/>
<path d="M9.47021 16.4005L9.88846 16.6395V14.3093L9.47021 14.0703V16.4005Z" fill="#017AFF" stroke="black" stroke-width="0.075"/>
<path d="M12.5753 21.3011C12.7944 21.4803 12.7147 21.5401 12.9338 21.6397C13.4915 21.3807 13.4317 21.321 13.4317 21.321C13.611 18.9709 13.8699 14.0316 8.11403 12.498L7.45679 12.8765C13.2326 14.5494 13.1927 19.4887 12.5753 21.3011Z" fill="#017AFF" stroke="black" stroke-width="0.075"/>
<path d="M4.37207 17.0811C7.4392 20.5864 10.9047 22.5183 13.9519 22.4585C13.9519 22.4585 13.8921 22.2195 13.6332 21.7216C10.7852 21.8013 7.65828 19.9889 4.81023 16.623L4.37207 17.0811Z" fill="#017AFF" stroke="black" stroke-width="0.075"/>
<path d="M6.08447 17.6575C7.41887 15.4468 6.70187 9.77064 4.80981 6.24545L5.26789 6.02637C7.41887 9.96981 7.95661 15.8252 6.56246 18.4143C6.56246 18.4143 6.3633 18.2152 6.0048 17.777L6.08447 17.6575Z" fill="#017AFF" stroke="black" stroke-width="0.075"/>
<path d="M12.54 21.5822C12.6794 21.7017 12.9383 21.6419 12.9383 21.6419C13.1175 19.2719 13.5847 14.4099 7.49023 12.9561C7.49023 13.3871 7.66043 13.1974 7.7401 13.4762C12.6623 14.6801 12.6595 19.7299 12.54 21.5822Z" fill="#017AFF" stroke="black" stroke-width="0.075"/>
<path d="M14.0705 21.4609L13.6323 21.7398L13.951 22.4568L14.3891 22.1978L14.0705 21.4609Z" fill="#017AFF" stroke="black" stroke-width="0.075"/>
<path d="M5.6463 5.74707L5.26789 6.0259L4.80981 6.24498L5.18823 5.96615L5.6463 5.74707Z" fill="#017AFF" stroke="black" stroke-width="0.075"/>
<circle cx="19.05" cy="2.55" r="1.8" fill="#DF3C27"/>
</g>
<defs>
<clipPath id="clip0_6030_1500">
<rect width="24" height="24" fill="white"/>
</clipPath>
</defs>
</svg>
