<svg width="24" height="24" viewBox="0 0 24 24" fill="none" xmlns="http://www.w3.org/2000/svg">
<g clip-path="url(#clip0_2177_8906)">
<g clip-path="url(#clip1_2177_8906)">
<path d="M14.8464 13.8476H18.1989M14.8464 13.8476L18.2846 19.2899M14.8464 13.8476H10.1528M14.8464 13.8476V9.86868M10.1528 13.8476H8.18917C7.71356 13.8476 7.47576 13.8476 7.27658 13.7721C7.10081 13.7055 6.9471 13.5977 6.83079 13.4594C6.69899 13.3027 6.63621 13.0918 6.51064 12.6701L5.57677 9.53356M10.1528 13.8476L6.86124 19.7268M10.1528 13.8476V9.86868M3.50879 2.58789L5.57677 9.53356M5.57677 9.53356H16.2316C16.572 9.53356 16.7422 9.53356 16.8967 9.57668C17.0335 9.61486 17.1608 9.67746 17.2712 9.76089C17.396 9.85513 17.4904 9.9853 17.6793 10.2457L18.5037 11.3818M4.36213 18.1068C5.09359 19.208 7.6537 21.4104 12.0425 21.4104C16.4312 21.4104 19.5602 19.208 20.5761 18.1068" stroke="currentColor" stroke-width="1.75" stroke-linecap="round" stroke-linejoin="round"/>
</g>
</g>
<defs>
<clipPath id="clip0_2177_8906">
<rect width="24" height="24" fill="currentColor"/>
</clipPath>
<clipPath id="clip1_2177_8906">
<rect width="24" height="24" fill="currentColor"/>
</clipPath>
</defs>
</svg>
