<svg width="24" height="24" viewBox="0 0 24 24" fill="none" xmlns="http://www.w3.org/2000/svg">
<g clip-path="url(#clip0_3396_58684)">
<g filter="url(#filter0_d_3396_58684)">
<g clip-path="url(#clip1_3396_58684)">
<path d="M0 12C0 5.37258 5.37258 0 12 0C18.6274 0 24 5.37258 24 12C24 18.6274 18.6274 24 12 24C5.37258 24 0 18.6274 0 12Z" fill="white"/>
<path fill-rule="evenodd" clip-rule="evenodd" d="M8.62419 11.2558L11.5195 13.1289C11.2315 12.5636 11.1511 11.979 11.2283 11.4197C11.4406 10.8359 11.7494 10.1728 12.2649 9.66504C12.8841 9.05466 13.8944 8.70677 14.7295 9.06633C15.725 9.49432 15.8377 10.8649 15.6826 11.801C15.6226 12.1634 15.5174 12.4722 15.3774 12.7436L12.4825 10.8709C12.7705 11.4362 12.8505 12.0209 12.7733 12.5797C12.5613 13.1639 12.2526 13.8267 11.737 14.3348C11.1179 14.9448 10.1076 15.2927 9.27211 14.9331C8.27702 14.5051 8.16424 13.1349 8.31942 12.1988C8.37941 11.836 8.48421 11.5272 8.62419 11.2558ZM6.50803 7.03101L6.50964 7.02659L6.50243 7.04027C6.39166 7.22709 6.29247 7.42922 6.20329 7.64342C4.96982 10.1913 4.32948 12.372 4.35628 14.1399C4.38707 16.1893 5.58094 18.0591 7.47872 18.8693C8.78216 19.4253 10.3588 19.3625 12.2706 18.5399C13.6812 17.8337 14.7735 16.875 15.711 15.796L17.4919 16.9729L17.4939 16.9688L17.4923 16.9733L17.4995 16.9596C17.6103 16.7723 17.7095 16.5702 17.7987 16.356C19.0326 13.8081 19.6725 11.6275 19.6457 9.8595C19.6149 7.81009 18.421 5.94027 16.5233 5.13057C15.2198 4.57412 13.6432 4.63733 11.7314 5.45992C10.3232 6.16453 9.2325 7.12078 8.29661 8.19743L8.29103 8.20349L6.51045 7.02699L6.50803 7.03101Z" fill="url(#paint0_linear_3396_58684)"/>
<path fill-rule="evenodd" clip-rule="evenodd" d="M17.4921 16.973L13.6425 14.4295C14.6152 13.7579 15.4595 13.15 15.6827 11.8011C15.8379 10.865 15.7251 9.49445 14.7296 9.06644C13.8945 8.7069 12.8842 9.05477 12.2651 9.66475C11.3384 10.5779 11.0804 11.9908 10.8477 12.5492C10.9712 10.2812 12.2803 8.77172 13.3773 8.30102C14.5552 7.79532 16.525 8.14642 17.4721 9.04026C18.122 9.65389 18.5079 11.0502 18.5263 12.3684C18.4591 13.9238 18.2104 15.7695 17.4921 16.973Z" fill="#63363C"/>
<path fill-rule="evenodd" clip-rule="evenodd" d="M6.50986 7.02734L8.29085 8.20384C7.76732 8.80619 7.29257 9.44599 6.83744 10.1003L8.62403 11.2562C8.48403 11.5276 8.37923 11.8364 8.31924 12.1992C8.16406 13.1353 8.27686 14.5055 9.27193 14.9339C10.1074 15.293 11.1177 14.9452 11.7369 14.3352C12.6635 13.422 12.9215 12.0096 13.1543 11.4511C13.0307 13.7187 11.722 15.2286 10.6246 15.6993C9.44673 16.2046 7.47695 15.8535 6.52986 14.9601C5.87954 14.3465 5.49398 12.9501 5.47559 11.6319C5.54278 10.0765 5.79155 8.23042 6.50986 7.02734Z" fill="#63363C"/>
<path fill-rule="evenodd" clip-rule="evenodd" d="M8.62419 11.2558L11.5195 13.1289C11.2315 12.5636 11.1511 11.979 11.2283 11.4197C11.4406 10.8359 11.7494 10.1728 12.2649 9.66504C12.8841 9.05466 13.8944 8.70677 14.7295 9.06633C15.725 9.49432 15.8377 10.8649 15.6826 11.801C15.6226 12.1634 15.5174 12.4722 15.3774 12.7436L12.4825 10.8709C12.7705 11.4362 12.8505 12.0209 12.7733 12.5797C12.5613 13.1639 12.2526 13.8267 11.737 14.3348C11.1179 14.9448 10.1076 15.2927 9.27211 14.9331C8.27702 14.5051 8.16424 13.1349 8.31942 12.1988C8.37941 11.836 8.48421 11.5272 8.62419 11.2558ZM6.50803 7.03101L6.50964 7.02659L6.50243 7.04027C6.39166 7.22709 6.29247 7.42922 6.20329 7.64342C4.96982 10.1913 4.32948 12.372 4.35628 14.1399C4.38707 16.1893 5.58094 18.0591 7.47872 18.8693C8.78216 19.4253 10.3588 19.3625 12.2706 18.5399C13.6812 17.8337 14.7735 16.875 15.711 15.796L17.4919 16.9729L17.4939 16.9688L17.4923 16.9733L17.4995 16.9596C17.6103 16.7723 17.7095 16.5702 17.7987 16.356C19.0326 13.8081 19.6725 11.6275 19.6457 9.8595C19.6149 7.81009 18.421 5.94027 16.5233 5.13057C15.2198 4.57412 13.6432 4.63733 11.7314 5.45992C10.3232 6.16453 9.2325 7.12078 8.29661 8.19743L8.29103 8.20349L6.51045 7.02699L6.50803 7.03101Z" fill="url(#paint1_linear_3396_58684)"/>
<path fill-rule="evenodd" clip-rule="evenodd" d="M8.62419 11.2558L11.5195 13.1289C11.2315 12.5636 11.1511 11.979 11.2283 11.4197C11.4406 10.8359 11.7494 10.1728 12.2649 9.66504C12.8841 9.05466 13.8944 8.70677 14.7295 9.06633C15.725 9.49432 15.8377 10.8649 15.6826 11.801C15.6226 12.1634 15.5174 12.4722 15.3774 12.7436L12.4825 10.8709C12.7705 11.4362 12.8505 12.0209 12.7733 12.5797C12.5613 13.1639 12.2526 13.8267 11.737 14.3348C11.1179 14.9448 10.1076 15.2927 9.27211 14.9331C8.27702 14.5051 8.16424 13.1349 8.31942 12.1988C8.37941 11.836 8.48421 11.5272 8.62419 11.2558ZM6.50803 7.03101L6.50964 7.02659L6.50243 7.04027C6.39166 7.22709 6.29247 7.42922 6.20329 7.64342C4.96982 10.1913 4.32948 12.372 4.35628 14.1399C4.38707 16.1893 5.58094 18.0591 7.47872 18.8693C8.78216 19.4253 10.3588 19.3625 12.2706 18.5399C13.6812 17.8337 14.7735 16.875 15.711 15.796L17.4919 16.9729L17.4939 16.9688L17.4923 16.9733L17.4995 16.9596C17.6103 16.7723 17.7095 16.5702 17.7987 16.356C19.0326 13.8081 19.6725 11.6275 19.6457 9.8595C19.6149 7.81009 18.421 5.94027 16.5233 5.13057C15.2198 4.57412 13.6432 4.63733 11.7314 5.45992C10.3232 6.16453 9.2325 7.12078 8.29661 8.19743L8.29103 8.20349L6.51045 7.02699L6.50803 7.03101Z" fill="url(#paint2_linear_3396_58684)"/>
</g>
</g>
</g>
<defs>
<filter id="filter0_d_3396_58684" x="-6" y="-5" width="36" height="36" filterUnits="userSpaceOnUse" color-interpolation-filters="sRGB">
<feFlood flood-opacity="0" result="BackgroundImageFix"/>
<feColorMatrix in="SourceAlpha" type="matrix" values="0 0 0 0 0 0 0 0 0 0 0 0 0 0 0 0 0 0 127 0" result="hardAlpha"/>
<feOffset dy="1"/>
<feGaussianBlur stdDeviation="3"/>
<feComposite in2="hardAlpha" operator="out"/>
<feColorMatrix type="matrix" values="0 0 0 0 0 0 0 0 0 0 0 0 0 0 0 0 0 0 0.08 0"/>
<feBlend mode="normal" in2="BackgroundImageFix" result="effect1_dropShadow_3396_58684"/>
<feBlend mode="normal" in="SourceGraphic" in2="effect1_dropShadow_3396_58684" result="shape"/>
</filter>
<linearGradient id="paint0_linear_3396_58684" x1="19.6463" y1="11.9997" x2="4.35576" y2="11.9997" gradientUnits="userSpaceOnUse">
<stop stop-color="#A04636"/>
<stop offset="1" stop-color="#FBC707"/>
</linearGradient>
<linearGradient id="paint1_linear_3396_58684" x1="19.6746" y1="10.7736" x2="6.83747" y2="10.7736" gradientUnits="userSpaceOnUse">
<stop stop-color="#A04636"/>
<stop offset="1" stop-color="#FBC707"/>
</linearGradient>
<linearGradient id="paint2_linear_3396_58684" x1="1.71488" y1="13.226" x2="19.7779" y2="13.226" gradientUnits="userSpaceOnUse">
<stop stop-color="#A04636"/>
<stop offset="1" stop-color="#FBC707"/>
</linearGradient>
<clipPath id="clip0_3396_58684">
<rect width="24" height="24" fill="white"/>
</clipPath>
<clipPath id="clip1_3396_58684">
<path d="M0 12C0 5.37258 5.37258 0 12 0C18.6274 0 24 5.37258 24 12C24 18.6274 18.6274 24 12 24C5.37258 24 0 18.6274 0 12Z" fill="white"/>
</clipPath>
</defs>
</svg>
