<svg width="24" height="24" viewBox="0 0 24 24" fill="none" xmlns="http://www.w3.org/2000/svg">
<g clip-path="url(#clip0_3396_48612)">
<g filter="url(#filter0_d_3396_48612)">
<g clip-path="url(#clip1_3396_48612)">
<path d="M0.375 12C0.375 5.57969 5.57969 0.375 12 0.375C18.4203 0.375 23.625 5.57969 23.625 12C23.625 18.4203 18.4203 23.625 12 23.625C5.57969 23.625 0.375 18.4203 0.375 12Z" fill="white"/>
<g clip-path="url(#clip2_3396_48612)">
<path fill-rule="evenodd" clip-rule="evenodd" d="M20.8502 10.9973C20.8178 10.5669 20.7084 9.99774 20.5451 9.45031C20.2091 8.31958 19.6249 7.28007 18.836 6.40925C18.4221 5.95823 17.9543 5.53881 17.2569 5.04477C16.7252 4.77961 16.2025 4.49657 15.6895 4.19613C15.3521 4.00276 14.949 3.76581 14.416 3.59423C13.7839 3.44346 13.1379 3.36075 12.4886 3.34748C11.858 3.32569 11.2258 3.38016 10.6162 3.49782C9.9738 3.60512 9.44022 3.77671 8.73255 3.94883C7.13182 4.64714 5.89112 5.70004 4.82396 7.0972C1.10078 12.3508 4.46501 19.7108 10.6815 20.5807C11.705 20.7207 12.7285 20.6668 13.697 20.4413L14.3831 20.2588C14.4046 20.2479 14.4375 20.237 14.4591 20.237L15.2433 19.9363C15.2864 19.9146 15.3193 19.9037 15.3629 19.8824L15.6895 19.7321C16.3162 19.4195 16.9045 19.0338 17.4423 18.5828C16.9527 19.0323 16.4203 19.4317 15.8528 19.7751L15.8852 19.7969C15.9946 19.7642 16.0922 19.7321 16.201 19.7108C16.201 19.7108 16.201 19.8824 16.1795 19.8503C16.0054 19.9794 16.2776 19.8612 16.6257 19.6782C16.9744 19.4957 17.3118 19.2696 17.6164 19.012C18.0632 18.6361 18.455 18.2276 19.0101 17.562C19.576 16.5625 20.2842 15.692 20.6109 14.5209C20.7197 14.2094 20.8173 13.8444 20.883 13.468C20.9477 13.0922 20.9919 12.7054 20.9919 12.3078C20.9811 11.9102 20.9375 11.5017 20.8502 10.9973ZM12.7937 19.829C14.6989 19.5278 16.2991 18.4646 17.6056 17.014C17.9651 16.4873 18.248 16.0036 18.5962 15.4774C19.0317 14.4027 18.9993 13.4468 19.1405 12.7703C19.3152 11.5447 18.9012 10.5566 18.5531 9.50369C18.0195 8.27866 17.3118 7.36574 16.0706 6.65654C12.9349 4.70106 8.66734 5.24849 6.63166 8.17135C6.62088 8.17135 6.56591 8.24652 6.45704 8.39686C6.59878 7.79551 6.95827 7.44091 7.31723 7.09666C8.38438 6.21588 9.62562 5.51702 11.041 5.17386C12.6417 5.00174 14.2306 5.17386 15.6567 5.87217C17.791 7.09666 19.2063 9.02054 19.5653 11.2974V13.4038C19.119 16.8528 16.1795 19.4744 12.7937 19.829ZM20.6216 11.9853C20.5451 6.93597 15.5699 3.52996 10.7251 4.21791C9.30979 4.57197 7.76349 5.28117 6.664 6.2698C6.13042 6.62386 5.88034 7.27968 5.34676 7.80586C3.21245 10.9542 3.58326 14.9834 6.23929 17.4334C6.57999 17.7739 6.94378 18.0898 7.32801 18.379C5.10746 17.0353 4.10552 15.0041 3.75735 12.5339C3.75735 11.6525 3.93144 10.7821 4.1163 9.90132C5.35808 6.04375 9.26613 3.23963 13.5234 3.94883C14.2311 4.12096 14.9388 4.30343 15.6577 4.47556C16.5503 4.82961 17.432 5.35634 18.1397 6.05519C18.8474 6.75295 19.3809 7.63428 19.9145 8.50417C20.2735 9.20302 20.4481 10.0838 20.6222 10.7821C20.6545 11.1797 20.6545 11.5883 20.6222 11.9859L20.6216 11.9853Z" fill="black"/>
<path fill-rule="evenodd" clip-rule="evenodd" d="M16.2011 12.0611C16.2011 14.2317 14.3939 15.9938 12.1621 15.9938C9.93074 15.9938 8.12305 14.2317 8.12305 12.0611C8.12305 9.89101 9.9302 8.12891 12.1621 8.12891C14.3939 8.12891 16.2011 9.89101 16.2011 12.0616V12.0611Z" fill="white"/>
<path fill-rule="evenodd" clip-rule="evenodd" d="M16.223 11.3939C16.1686 11.0932 16.0812 10.8568 15.9945 10.524C15.6458 9.79298 15.1343 9.22377 14.459 8.74008C11.9334 7.05368 8.46025 8.6758 8.09052 11.5556C7.94931 12.6946 8.35192 13.7905 9.07036 14.6288C8.85262 14.4028 8.61332 14.1669 8.45001 13.8979L8.42845 13.9196C8.45001 13.9839 8.53732 14.0269 8.55888 14.0912C8.55888 14.0912 8.47157 14.0912 8.49367 14.0803C8.42845 14.0057 8.48289 14.1239 8.58044 14.2846C8.66775 14.4458 8.77663 14.5967 8.90706 14.7361C9.09246 14.9404 9.28811 15.1229 9.61472 15.3702C10.0944 15.6169 10.5186 15.9394 11.0737 16.0897C11.2262 16.1333 11.4003 16.1758 11.5749 16.2079C11.7598 16.2406 11.9339 16.2515 12.1301 16.2515C12.3149 16.2515 12.5111 16.2297 12.7504 16.1861C12.9972 16.1568 13.2411 16.1067 13.4797 16.0363C14.0125 15.8743 14.5033 15.5953 14.9171 15.2193C15.124 15.0265 15.4183 14.7792 15.6463 14.4567C15.8317 14.0918 15.8533 13.9087 15.9406 13.7475C16.0274 13.5863 16.1362 13.4038 16.2128 13.1565C16.2751 12.8631 16.3116 12.5647 16.3216 12.2648C16.3108 11.9642 16.2893 11.6738 16.2235 11.3944L16.223 11.3939ZM13.6316 9.3959C14.0019 9.61051 14.0563 9.64265 13.8602 9.5032C14.1437 9.56748 14.3177 9.72871 14.4918 9.88994C14.9165 10.3736 15.2647 10.9428 15.4388 11.5981C15.5369 12.3395 15.4604 13.0808 15.1451 13.7366C14.5791 14.7356 13.6753 15.4018 12.5974 15.5842C12.4777 15.5842 12.3473 15.5842 12.2271 15.5951C12.5321 15.5412 12.7283 15.3478 13.2835 15.1436C13.8817 14.929 14.5571 13.93 14.8842 13.3493C15.8419 11.7697 14.7096 10.3088 13.6316 9.3959ZM11.5852 15.6055C9.93055 15.4339 8.65644 14.0694 8.48235 12.4898C8.63434 13.3711 9.15714 14.0476 9.8648 14.6495C10.1154 14.8108 10.4852 15.0363 10.7358 15.1975C11.1605 15.3587 11.4106 15.5309 11.8245 15.606L11.5852 15.6055ZM16.0376 12.7371C15.9621 13.0704 15.8856 13.3924 15.8091 13.7257C15.6458 14.1343 15.4065 14.5531 15.0798 14.8859C14.7532 15.2193 14.3393 15.4769 13.9259 15.7242C13.5993 15.8958 13.1854 15.9819 12.848 16.0674C12.6518 16.0892 12.4233 16.0031 12.2271 15.9928C14.6444 15.928 16.299 13.6614 15.94 11.4156C15.7654 10.7604 15.4172 10.1906 14.9925 9.6214C14.8184 9.37411 14.4805 9.22377 14.2304 8.97648C12.717 8.02053 10.7142 8.2139 9.57106 9.47107C9.41077 9.63627 9.2615 9.81205 9.12426 9.99725C9.73437 9.09468 10.7142 8.46119 11.8897 8.27817C12.3036 8.26728 12.7283 8.34299 13.1417 8.41816C14.971 8.97648 16.3319 10.7604 16.0376 12.7376V12.7371Z" fill="#D7DF23"/>
</g>
</g>
</g>
</g>
<defs>
<filter id="filter0_d_3396_48612" x="-5.625" y="-4.625" width="35.25" height="35.25" filterUnits="userSpaceOnUse" color-interpolation-filters="sRGB">
<feFlood flood-opacity="0" result="BackgroundImageFix"/>
<feColorMatrix in="SourceAlpha" type="matrix" values="0 0 0 0 0 0 0 0 0 0 0 0 0 0 0 0 0 0 127 0" result="hardAlpha"/>
<feOffset dy="1"/>
<feGaussianBlur stdDeviation="3"/>
<feComposite in2="hardAlpha" operator="out"/>
<feColorMatrix type="matrix" values="0 0 0 0 0 0 0 0 0 0 0 0 0 0 0 0 0 0 0.08 0"/>
<feBlend mode="normal" in2="BackgroundImageFix" result="effect1_dropShadow_3396_48612"/>
<feBlend mode="normal" in="SourceGraphic" in2="effect1_dropShadow_3396_48612" result="shape"/>
</filter>
<clipPath id="clip0_3396_48612">
<rect width="24" height="24" fill="white"/>
</clipPath>
<clipPath id="clip1_3396_48612">
<path d="M0.375 12C0.375 5.57969 5.57969 0.375 12 0.375C18.4203 0.375 23.625 5.57969 23.625 12C23.625 18.4203 18.4203 23.625 12 23.625C5.57969 23.625 0.375 18.4203 0.375 12Z" fill="white"/>
</clipPath>
<clipPath id="clip2_3396_48612">
<rect width="18" height="18" fill="white" transform="translate(3 3)"/>
</clipPath>
</defs>
</svg>
