<svg width="20" height="20" viewBox="0 0 20 20" fill="none" xmlns="http://www.w3.org/2000/svg">
<g clip-path="url(#clip0_3396_72048)">
<path d="M20 10C20 4.47715 15.5228 0 10 0C4.47715 0 0 4.47715 0 10C0 15.5228 4.47715 20 10 20C15.5228 20 20 15.5228 20 10Z" fill="#A41D23"/>
<path d="M3.14819 3.14919H16.8511V16.8521H3.14819V3.14919ZM12.0395 3.63947C11.9181 3.69113 11.8012 3.77732 11.7521 3.90407C11.7131 3.99794 11.7361 4.10619 11.7886 4.19007C11.3414 4.18979 10.8943 4.18991 10.4472 4.19007C10.4471 4.2916 10.4471 4.39329 10.4472 4.49494C10.9295 4.49494 11.4117 4.49494 11.8941 4.49482C11.895 4.5736 11.8945 4.65238 11.8945 4.73119C11.5751 4.7316 11.2557 4.73132 10.9362 4.73132C10.9362 4.83313 10.9364 4.93494 10.9362 5.03676C11.0246 5.04376 11.1225 5.01416 11.2023 5.06526C11.2969 5.13294 11.329 5.25985 11.3133 5.37044C11.3016 5.46019 11.2537 5.55501 11.1654 5.58941C11.0975 5.61763 11.0193 5.58476 10.9761 5.52951C10.9094 5.44716 10.8954 5.33438 10.9129 5.23272C10.7772 5.23382 10.6415 5.23285 10.5057 5.23326C10.4862 5.34482 10.4943 5.46251 10.5391 5.56735C10.6162 5.75713 10.7972 5.89935 10.9993 5.93129C11.1555 5.95748 11.3221 5.92294 11.452 5.83154C11.5914 5.73629 11.6881 5.57966 11.7061 5.41141C11.7228 5.2811 11.6876 5.14804 11.6211 5.03594C11.7118 5.03607 11.8027 5.03457 11.8935 5.03716C11.8938 5.33179 11.8934 5.62626 11.8938 5.92088C12.0227 5.92073 12.1517 5.92088 12.2807 5.92088C12.2808 5.44566 12.2807 4.97044 12.2807 4.49522C12.3666 4.49551 12.4526 4.49316 12.5385 4.49644C12.5367 4.97126 12.5374 5.44607 12.5387 5.92088C12.6668 5.92073 12.7949 5.92088 12.923 5.92088C12.9232 5.44566 12.923 4.97044 12.9232 4.49522C12.991 4.49466 13.059 4.49466 13.1269 4.49591C13.1287 4.39369 13.1276 4.29147 13.1277 4.18922C13.0894 4.18991 13.0512 4.19007 13.0129 4.19019C13.0613 4.11016 13.0861 4.01001 13.0546 3.91916C13.0083 3.78404 12.886 3.69141 12.7583 3.63826C12.5306 3.54685 12.2667 3.5456 12.0395 3.63947ZM14.8454 3.63385C14.7197 3.68457 14.5979 3.77104 14.5459 3.90079C14.5054 3.99507 14.5274 4.10469 14.5807 4.18922C14.1704 4.18882 13.7602 4.18979 13.3499 4.18991C13.3496 4.2916 13.3496 4.39329 13.3499 4.49494C13.5209 4.49482 13.6919 4.49482 13.8631 4.49563C13.8918 4.49672 13.9233 4.49057 13.9495 4.50672C14.0805 4.57307 14.1386 4.74079 14.1001 4.87851C14.0781 4.95494 14.0156 5.02607 13.9333 5.03538C13.8655 5.04513 13.8037 5.00729 13.7514 4.96907C13.7514 4.88219 13.7497 4.79532 13.7503 4.70844H13.3643C13.3645 4.95579 13.3636 5.20297 13.3648 5.45032C13.3673 5.58666 13.3976 5.73329 13.4932 5.83607C13.5521 5.90101 13.6411 5.92922 13.7268 5.92829C13.9835 5.92841 14.2402 5.92963 14.4968 5.9276C14.4952 5.82579 14.4964 5.72398 14.4961 5.62216C14.2904 5.62298 14.0849 5.62338 13.8794 5.61994C13.8374 5.61638 13.7778 5.61394 13.7644 5.5646C13.7447 5.48101 13.7519 5.39413 13.7503 5.30904C13.9432 5.43169 14.2066 5.36235 14.359 5.20557C14.4927 5.20463 14.6264 5.20435 14.7602 5.20463C14.761 5.4436 14.7589 5.68257 14.7613 5.92141C14.8891 5.9206 15.0171 5.92032 15.145 5.92157C15.1481 5.44607 15.1448 4.97044 15.1466 4.49482C15.2248 4.4951 15.3032 4.49466 15.3816 4.4951C15.3819 4.97029 15.3815 5.44551 15.3817 5.92088H15.7686V4.4951C15.8215 4.49247 15.8763 4.49932 15.9283 4.49126C15.93 4.39107 15.9289 4.29079 15.9283 4.1906C15.8871 4.18966 15.846 4.18966 15.8049 4.19007C15.8579 4.10538 15.8801 3.99576 15.8402 3.90135C15.7882 3.77197 15.6672 3.68538 15.5418 3.63441C15.3206 3.54794 15.0668 3.54779 14.8454 3.63385ZM5.5199 3.60016C5.5199 3.69963 5.51962 3.7991 5.52003 3.8986C5.63897 3.90051 5.76847 3.8816 5.87615 3.94394C5.96262 3.9956 5.98387 4.10113 6.01319 4.18966C5.77519 4.19032 5.53715 4.18966 5.29912 4.19007C5.299 4.2916 5.299 4.39329 5.29912 4.49482C5.34547 4.49494 5.39178 4.49494 5.43822 4.49494C5.43906 4.76832 5.4385 5.04182 5.4385 5.31535C5.38753 5.31547 5.3364 5.31547 5.28544 5.31535C5.26928 5.1986 5.22075 5.08663 5.14306 4.99757C5.19087 4.91907 5.2305 4.83191 5.235 4.73872C5.24528 4.60469 5.19884 4.46822 5.11169 4.36629C4.99481 4.22663 4.80925 4.15141 4.62853 4.15882C4.45037 4.1621 4.27472 4.25007 4.16825 4.39354C4.09122 4.49494 4.05669 4.62472 4.06575 4.75119C4.18865 4.7516 4.31156 4.75079 4.4345 4.75176C4.42872 4.69501 4.43872 4.63526 4.473 4.58866C4.5415 4.48604 4.69744 4.46835 4.7894 4.54948C4.88653 4.62541 4.88847 4.78613 4.79609 4.86657C4.73747 4.92357 4.64906 4.90235 4.57534 4.90644C4.5759 5.00841 4.57412 5.11035 4.57631 5.21216C4.64647 5.21435 4.71922 5.20132 4.78719 5.22338C4.87584 5.27191 4.91012 5.38907 4.87887 5.4821C4.84928 5.56994 4.7635 5.63544 4.67087 5.6401C4.55837 5.64872 4.44709 5.56404 4.42709 5.45279C4.41709 5.40797 4.42915 5.36288 4.43778 5.31891C4.3069 5.32069 4.17606 5.31919 4.04506 5.31973C4.02353 5.53897 4.14178 5.7611 4.3309 5.87194C4.51231 5.98266 4.75006 5.99569 4.94162 5.90291C5.08703 5.83469 5.20403 5.70751 5.25734 5.55582C5.31762 5.5531 5.37822 5.55501 5.43862 5.55472C5.43878 5.67669 5.43837 5.79879 5.43878 5.92088C5.56744 5.92073 5.69625 5.92088 5.8249 5.92088C5.82519 5.44566 5.82478 4.97029 5.82519 4.4951C5.90356 4.49482 5.98209 4.49466 6.06062 4.49522C6.06062 4.97044 6.06047 5.44566 6.06062 5.92088H6.44662C6.44675 5.44579 6.44662 4.97057 6.44662 4.49535C6.49484 4.49466 6.54322 4.49482 6.59159 4.49494C6.59159 4.39301 6.59159 4.29119 6.59147 4.18922C6.53625 4.18922 6.48115 4.18938 6.42594 4.1891C6.38359 4.09482 6.34097 4.00069 6.30056 3.9056C6.27494 3.83516 6.24944 3.7606 6.19394 3.70757C6.11815 3.63085 6.00715 3.60151 5.90222 3.60016C5.77478 3.59973 5.64734 3.60016 5.5199 3.60016ZM6.74822 4.18922C6.74794 4.29119 6.74809 4.39301 6.74809 4.49494C6.79878 4.49494 6.8495 4.49482 6.90006 4.4951C6.90047 4.81807 6.90006 5.14104 6.90031 5.46401C6.90006 5.59035 6.93212 5.72479 7.02187 5.81838C7.08915 5.89085 7.19069 5.92129 7.28744 5.9206C7.60465 5.92116 7.92187 5.92073 8.23909 5.92088C8.23909 5.81866 8.23925 5.71657 8.23897 5.61435C7.9949 5.61419 7.75072 5.6146 7.50653 5.61419C7.44544 5.61147 7.37212 5.6116 7.32881 5.56091C7.28797 5.50651 7.29087 5.43457 7.28784 5.37001C7.28715 5.07829 7.2884 4.78654 7.28715 4.49482C7.4105 4.49551 7.53381 4.49372 7.65712 4.49604C7.71606 4.49591 7.76265 4.54126 7.79075 4.5891C7.85609 4.6961 7.8779 4.83972 7.81403 4.95247C7.76225 5.04101 7.63165 5.06991 7.55081 5.00304C7.52053 5.12201 7.48256 5.23888 7.44815 5.35673C7.63769 5.42648 7.86062 5.39154 8.02162 5.27013C8.14234 5.18051 8.23362 5.04238 8.24265 4.8896C8.25403 4.74707 8.19553 4.6091 8.11428 4.4951C8.638 4.49482 9.16172 4.49494 9.68544 4.49494C9.68559 4.58526 9.68544 4.67569 9.68544 4.76613C9.42453 4.76763 9.16362 4.7631 8.90275 4.7686C8.76665 4.76941 8.62484 4.7986 8.51619 4.88507C8.35434 5.00716 8.29637 5.23382 8.34722 5.42523C8.39122 5.59229 8.5244 5.72932 8.68553 5.7881C8.84037 5.84688 9.02015 5.83563 9.16625 5.75754C9.30259 5.68588 9.40809 5.55513 9.44194 5.40413C9.4699 5.29301 9.44837 5.17654 9.40647 5.07185C9.49909 5.07376 9.59172 5.07307 9.68434 5.07266C9.68694 5.35535 9.68475 5.63804 9.68544 5.92073C9.81437 5.91923 9.94319 5.92047 10.0722 5.92004C10.0723 5.44497 10.0719 4.97004 10.0723 4.4951C10.1283 4.49482 10.1844 4.49494 10.2406 4.49494C10.2407 4.39329 10.2407 4.2916 10.2406 4.18991C9.07634 4.18979 7.91228 4.19047 6.74822 4.18922ZM8.34887 6.90913C7.70112 7.26869 7.17834 7.84751 6.88497 8.52757C6.62681 9.12954 6.54406 9.80785 6.6675 10.4523C6.70587 10.6469 6.75137 10.8419 6.82387 11.0266C6.84428 11.0913 6.91869 11.0717 6.97034 11.0722C7.3499 11.0694 7.7295 11.0682 8.10894 11.0649C8.47287 11.0655 8.83681 11.0563 9.20062 11.0629C9.2264 11.046 9.23612 11.0129 9.24284 10.9844C9.27997 10.6968 9.3215 10.4098 9.3604 10.1225C9.43934 9.5601 9.5125 8.99663 9.59762 8.43523C9.60912 9.39019 9.61378 10.3453 9.62062 11.3004C8.73831 11.3004 7.85609 11.3004 6.97378 11.3002C7.02434 11.3739 7.07737 11.4458 7.12644 11.5204C7.69578 11.5237 8.26528 11.5217 8.83478 11.5225C8.80447 11.5443 8.772 11.5632 8.74365 11.5874L8.74447 11.6002L8.74022 11.5887C8.38984 11.8437 8.10509 12.1911 7.93406 12.5898C8.01328 12.6216 8.09234 12.6534 8.17128 12.6857C8.39887 12.166 8.83681 11.7405 9.36644 11.535C9.44975 11.5106 9.53812 11.5262 9.62378 11.523C9.62228 11.6383 9.62584 11.7537 9.62447 11.8689C9.11815 11.9992 8.69419 12.4087 8.54962 12.9116C8.63128 12.935 8.7139 12.9554 8.796 12.9782C8.91522 12.5861 9.23353 12.2559 9.62694 12.1363C9.62625 12.2496 9.6305 12.363 9.62747 12.4763C9.38862 12.6093 9.24106 12.884 9.25162 13.156C9.75065 13.1555 10.2497 13.1527 10.7488 13.1523C10.7584 12.8776 10.6059 12.6026 10.3639 12.4709C10.3603 12.3575 10.3622 12.2442 10.3609 12.131C10.7543 12.2514 11.0782 12.5734 11.2019 12.9657C11.2835 12.9427 11.3654 12.9205 11.4471 12.8974C11.2975 12.3947 10.8671 11.9919 10.3596 11.8647C10.361 11.7495 10.3576 11.6343 10.3592 11.5192C10.4738 11.5187 10.596 11.5014 10.7 11.5619C11.1921 11.7764 11.6021 12.1756 11.8228 12.6656C11.9017 12.6329 11.9812 12.601 12.0596 12.5669C11.9532 12.331 11.809 12.1121 11.6334 11.9217C11.4911 11.7644 11.3249 11.6308 11.1502 11.5113C11.717 11.5103 12.2839 11.511 12.8508 11.5109C12.9027 11.4369 12.954 11.3624 13.0055 11.2882C12.1229 11.2894 11.2404 11.2919 10.358 11.2978C10.3548 10.3486 10.3482 9.39935 10.3454 8.45016L10.3628 8.49113C10.4816 9.31001 10.6079 10.1278 10.7274 10.9466C10.7307 10.9864 10.7434 11.0252 10.7689 11.0566C10.9095 11.0447 11.0509 11.0519 11.1919 11.0485C11.8227 11.0443 12.4533 11.043 13.084 11.0393C13.1409 11.0451 13.1572 10.9793 13.1727 10.9379C13.3156 10.4867 13.3837 10.0079 13.3351 9.53544C13.2815 8.9706 13.0802 8.4211 12.7583 7.95426C12.4967 7.57373 12.1572 7.24691 11.7657 7.00191C11.2637 6.68482 10.6752 6.50654 10.0817 6.4901C10.0971 7.02054 10.0905 7.55138 10.0943 8.0821C10.1015 9.51569 10.1057 10.9494 10.1124 12.3832C10.0346 12.3745 9.95622 12.3755 9.87865 12.3843C9.86947 11.1285 9.85987 9.87279 9.85084 8.61719C9.84809 7.90807 9.83425 7.19907 9.84069 6.4901C9.31972 6.51051 8.80434 6.65535 8.34887 6.90913ZM5.2664 13.7536C5.16294 13.764 5.05947 13.7818 4.96109 13.8164C4.81981 13.8636 4.68978 13.9568 4.62209 14.0924C4.49709 14.3335 4.5 14.6136 4.50081 14.8782C4.5049 15.1206 4.486 15.3659 4.53356 15.6053C4.56753 15.7847 4.64728 15.9717 4.80981 16.0697C5.02522 16.2007 5.28681 16.2141 5.53237 16.2144C5.82178 16.2115 6.12256 16.236 6.39812 16.1286C6.5394 16.0783 6.66025 15.9698 6.71781 15.8304C6.83084 15.575 6.81769 15.2893 6.81853 15.0165C6.81631 14.7871 6.83031 14.5545 6.78069 14.3289C6.74547 14.1598 6.66615 13.986 6.515 13.8914C6.3204 13.7711 6.08528 13.7487 5.86165 13.7435C5.66322 13.7428 5.4644 13.7368 5.2664 13.7536ZM7.496 13.7459C7.49737 14.5595 7.49312 15.3732 7.49806 16.1866C7.67194 16.1834 7.84581 16.186 8.01984 16.1853V14.9194C8.02137 14.8414 8.02931 14.7624 8.05369 14.688C8.10412 14.526 8.22634 14.3893 8.37997 14.3182C8.51331 14.2565 8.66525 14.2513 8.80887 14.2688C8.96509 14.2876 9.11472 14.3845 9.18144 14.5292C9.24969 14.6674 9.23119 14.8253 9.2305 14.9743C9.2309 15.3778 9.22969 15.7815 9.22981 16.1852C9.40453 16.1852 9.57937 16.1852 9.75409 16.185C9.75422 15.7359 9.75409 15.2865 9.75422 14.8372C9.75422 14.654 9.76425 14.4653 9.70053 14.2902C9.62884 14.0777 9.46525 13.8965 9.25819 13.8092C9.10719 13.7477 8.94125 13.7495 8.78106 13.7433C8.64306 13.7387 8.49822 13.7435 8.37284 13.8078C8.22278 13.8882 8.09372 14.0048 7.98956 14.1387C7.98819 14.0075 7.99094 13.8764 7.98806 13.7454C7.82403 13.7468 7.66003 13.7457 7.496 13.7459ZM10.741 13.8501C10.6005 13.9121 10.493 14.0377 10.4433 14.1821C10.3448 14.4437 10.3652 14.7277 10.3625 15.0019C10.3639 15.2145 10.354 15.43 10.4024 15.6387C10.4383 15.8074 10.5199 15.9776 10.6718 16.0705C10.8728 16.1896 11.1132 16.2127 11.3421 16.2145C11.5252 16.2127 11.7085 16.2194 11.8913 16.2073C12.0722 16.1903 12.2609 16.1559 12.4111 16.0468C12.5382 15.9539 12.6044 15.8016 12.639 15.6524C12.6994 15.3805 12.6752 15.1005 12.681 14.8245C12.329 14.822 11.9768 14.8241 11.6248 14.8235C11.6247 14.9988 11.6248 15.174 11.6248 15.3493C11.7998 15.3494 11.9747 15.3492 12.1497 15.3494C12.1444 15.4298 12.1416 15.5183 12.088 15.5836C12.0263 15.6642 11.9197 15.6926 11.8224 15.6927C11.6304 15.693 11.4385 15.6927 11.2465 15.6929C11.1644 15.6926 11.0775 15.6833 11.0083 15.6354C10.9349 15.5875 10.895 15.4994 10.8924 15.4134C10.8832 15.1806 10.8898 14.9477 10.8883 14.715C10.8961 14.6081 10.8794 14.4899 10.9409 14.3956C10.9974 14.3079 11.1062 14.2727 11.2061 14.2716C11.3934 14.269 11.5808 14.2714 11.7682 14.2705C11.8767 14.267 12.0002 14.2784 12.0784 14.3631C12.1457 14.4318 12.149 14.5336 12.1517 14.6237C12.3275 14.6241 12.5034 14.6237 12.6794 14.624C12.6657 14.4044 12.6354 14.1685 12.4917 13.9919C12.406 13.8872 12.2768 13.831 12.1497 13.7946C11.9043 13.7294 11.6481 13.745 11.3969 13.7426C11.1752 13.7441 10.9454 13.7551 10.741 13.8501ZM13.6439 13.8761C13.5102 13.9486 13.4218 14.084 13.3782 14.2268C13.2999 14.4726 13.3147 14.7338 13.3132 14.9882C13.3157 15.1689 13.3062 15.3505 13.3329 15.5299C13.3532 15.6726 13.3932 15.817 13.4773 15.9361C13.5692 16.0625 13.7164 16.1344 13.8655 16.1693C14.0617 16.2197 14.2658 16.2153 14.4668 16.2155C14.6489 16.2149 14.8331 16.2201 15.0127 16.1848C15.1466 16.1597 15.281 16.1149 15.3875 16.0272C15.4775 15.9506 15.5344 15.8424 15.5681 15.7305C15.6115 15.5936 15.6235 15.4496 15.6302 15.307C15.454 15.3072 15.2777 15.307 15.1017 15.3071C15.0949 15.3992 15.1012 15.5013 15.0423 15.579C14.9807 15.6645 14.8694 15.6933 14.769 15.6937C14.5681 15.6935 14.3673 15.6942 14.1664 15.6933C14.0657 15.6922 13.9556 15.6601 13.895 15.574C13.8428 15.5047 13.8408 15.4138 13.8391 15.3308C13.837 15.098 13.8366 14.8652 13.84 14.6324C13.8446 14.5503 13.8447 14.4605 13.895 14.3909C13.9517 14.3089 14.0554 14.2739 14.1518 14.2728C14.3481 14.2699 14.5445 14.2724 14.7409 14.2713C14.844 14.2695 14.9608 14.2859 15.0329 14.3679C15.1037 14.4477 15.0995 14.5611 15.103 14.661H15.6306C15.6218 14.4519 15.5976 14.2334 15.4855 14.0515C15.4037 13.9186 15.2588 13.8386 15.1117 13.7987C14.8527 13.7277 14.5812 13.7455 14.3157 13.7439C14.0872 13.7462 13.8477 13.7626 13.6439 13.8761Z" fill="#A41D23"/>
<path d="M12.3077 3.8974C12.3897 3.87178 12.4833 3.88015 12.557 3.92537C12.5982 3.95099 12.634 3.99156 12.6395 4.04143C12.6447 4.10349 12.6014 4.16078 12.5475 4.18709C12.4661 4.19599 12.3839 4.18778 12.3021 4.19187C12.2096 4.19915 12.1367 4.08896 12.1722 4.00524C12.1967 3.95003 12.2511 3.91412 12.3077 3.8974ZM15.0908 3.89987C15.2018 3.86246 15.346 3.8859 15.4142 3.98881C15.4593 4.05993 15.4112 4.15531 15.34 4.18737C15.2596 4.19434 15.1785 4.18984 15.0978 4.19049C15.0008 4.20421 14.922 4.07815 14.9705 3.99496C14.9951 3.94812 15.0416 3.91687 15.0908 3.89987ZM14.4169 4.49621C14.5316 4.49678 14.6465 4.49499 14.7614 4.49718C14.7604 4.63146 14.7611 4.7659 14.761 4.90031C14.6811 4.90128 14.6013 4.90018 14.5216 4.90099C14.5405 4.75862 14.5034 4.61106 14.4169 4.49621ZM8.84102 5.09012C8.93902 5.06093 9.04767 5.12559 9.07877 5.22084C9.12439 5.33731 9.04658 5.48831 8.91927 5.50503C8.80239 5.52284 8.69261 5.41706 8.69398 5.3014C8.69127 5.20959 8.75045 5.11559 8.84102 5.09012ZM7.56555 7.84028C8.11177 7.18062 8.93695 6.75871 9.79339 6.71471C9.5303 8.02459 9.26664 9.33418 9.00452 10.6442C8.99383 10.6943 9.00108 10.7808 8.93105 10.7868C8.2788 10.7889 7.62639 10.7881 6.97414 10.7893C6.87795 10.4634 6.82258 10.1236 6.83327 9.78321C6.84642 9.07737 7.11198 8.38059 7.56555 7.84028ZM10.1346 6.71418C10.7119 6.73871 11.2801 6.93137 11.756 7.25859C12.1493 7.52731 12.48 7.88659 12.7166 8.29987C13.0065 8.80512 13.1517 9.3924 13.1287 9.97453C13.1185 10.2391 13.0713 10.5014 12.9995 10.756C12.3513 10.7649 11.7031 10.7679 11.0551 10.7757C11.024 10.78 10.9932 10.7602 10.9853 10.7298C10.9336 10.4588 10.8719 10.1892 10.8158 9.91887C10.5888 8.85059 10.3607 7.78259 10.1346 6.71418ZM5.23852 14.2872C5.28527 14.2739 5.3343 14.2753 5.38242 14.2737C5.56492 14.2704 5.74745 14.2739 5.92998 14.2727C6.01273 14.2722 6.10017 14.2796 6.17142 14.326C6.2368 14.3686 6.27805 14.444 6.2838 14.5216C6.29408 14.6682 6.29133 14.8152 6.29161 14.9622C6.29117 15.1226 6.29502 15.2832 6.28105 15.4431C6.27392 15.5201 6.23514 15.5962 6.16936 15.6392C6.09961 15.6864 6.01273 15.6952 5.93067 15.6951C5.74336 15.6947 5.55617 15.6953 5.36898 15.6947C5.2762 15.6941 5.17605 15.6744 5.10864 15.6057C5.05902 15.5554 5.03367 15.485 5.0308 15.4152C5.02299 15.2232 5.02777 15.0309 5.02667 14.8388C5.02764 14.7157 5.02202 14.5913 5.04655 14.47C5.06889 14.3786 5.1507 14.312 5.23852 14.2872Z" fill="#A41D23"/>
<path d="M12.0393 3.63864C12.2665 3.54476 12.5304 3.54601 12.7581 3.63742C12.8859 3.69058 13.0081 3.7832 13.0544 3.91833C13.0859 4.00917 13.0611 4.10933 13.0127 4.18936C13.0509 4.18923 13.0892 4.18908 13.1276 4.18839C13.1274 4.29064 13.1285 4.39286 13.1267 4.49508C13.0588 4.49383 12.9908 4.49383 12.923 4.49439C12.9228 4.96961 12.923 5.44483 12.9228 5.92004C12.7947 5.92004 12.6666 5.91992 12.5385 5.92004C12.5372 5.44523 12.5365 4.97042 12.5383 4.49561C12.4524 4.49233 12.3664 4.49467 12.2804 4.49439C12.2804 4.96961 12.2806 5.44483 12.2804 5.92004C12.1515 5.92004 12.0225 5.91992 11.8936 5.92004C11.8932 5.62542 11.8936 5.33095 11.8933 5.03633C11.8025 5.03373 11.7116 5.03523 11.6209 5.03511C11.6874 5.1472 11.7226 5.28026 11.7059 5.41058C11.6879 5.57883 11.5912 5.73545 11.4518 5.8307C11.3219 5.92211 11.1553 5.95664 10.9991 5.93045C10.797 5.89851 10.6159 5.75629 10.5389 5.56651C10.4941 5.46167 10.486 5.34398 10.5055 5.23242C10.6413 5.23201 10.7769 5.23298 10.9128 5.23189C10.8952 5.33354 10.9092 5.44633 10.9759 5.5287C11.0191 5.58392 11.0973 5.61679 11.1652 5.58858C11.2535 5.55417 11.3014 5.45936 11.3132 5.36961C11.3288 5.25901 11.2967 5.13214 11.2022 5.06442C11.1223 5.01333 11.0244 5.04292 10.936 5.03592C10.9362 4.93411 10.936 4.83229 10.936 4.73048C11.2555 4.73048 11.5749 4.73076 11.8943 4.73036C11.8943 4.65158 11.8949 4.57276 11.8939 4.49398C11.4115 4.49411 10.9293 4.49411 10.447 4.49411C10.4469 4.39245 10.4469 4.29076 10.447 4.18923C10.8941 4.18908 11.3413 4.18895 11.7884 4.18923C11.7359 4.10536 11.7129 3.99711 11.7519 3.90323C11.801 3.77648 11.9179 3.69029 12.0393 3.63864ZM12.3069 3.89529C12.2503 3.91201 12.1959 3.94792 12.1714 4.00314C12.1359 4.08686 12.2088 4.19704 12.3013 4.18976C12.3831 4.18567 12.4653 4.19389 12.5467 4.18498C12.6005 4.15867 12.6439 4.10139 12.6386 4.03933C12.6332 3.98945 12.5974 3.94889 12.5561 3.92326C12.4824 3.87804 12.3888 3.86967 12.3069 3.89529ZM14.8452 3.63301C15.0667 3.54698 15.3204 3.54711 15.5416 3.63358C15.667 3.68454 15.788 3.77114 15.84 3.90051C15.8799 3.99492 15.8577 4.10454 15.8047 4.18923C15.8458 4.18883 15.8869 4.18883 15.9282 4.18976C15.9287 4.28995 15.9298 4.39023 15.9282 4.49042C15.8761 4.49851 15.8213 4.49164 15.7684 4.49426V5.92004H15.3815C15.3813 5.4447 15.3817 4.96948 15.3814 4.49426C15.303 4.49383 15.2247 4.49426 15.1464 4.49398C15.1446 4.96961 15.1479 5.44523 15.1448 5.92073C15.0169 5.91948 14.8889 5.91976 14.7611 5.92058C14.7588 5.68173 14.7608 5.44276 14.76 5.20379C14.6263 5.20351 14.4925 5.20379 14.3588 5.20476C14.2064 5.36151 13.943 5.43086 13.7501 5.3082C13.7517 5.39329 13.7445 5.48017 13.7642 5.56376C13.7776 5.61311 13.8372 5.61558 13.8792 5.61914C14.0847 5.62254 14.2903 5.62214 14.4959 5.62133C14.4962 5.72314 14.495 5.82495 14.4966 5.92676C14.2399 5.92883 13.9833 5.92758 13.7266 5.92745C13.6409 5.92839 13.5519 5.90017 13.493 5.83523C13.3974 5.73245 13.3671 5.58583 13.3646 5.44948C13.3634 5.20214 13.3644 4.95495 13.3641 4.70761H13.7501C13.7495 4.79448 13.7512 4.88136 13.7512 4.96823C13.8035 5.00648 13.8653 5.04429 13.9332 5.03454C14.0154 5.02523 14.0779 4.95411 14.0999 4.87767C14.1384 4.73995 14.0803 4.57223 13.9493 4.50589C13.9231 4.48973 13.8916 4.49589 13.8629 4.49479C13.6917 4.49398 13.5207 4.49398 13.3497 4.49411C13.3494 4.39245 13.3494 4.29076 13.3497 4.18908C13.7599 4.18895 14.1702 4.18798 14.5805 4.18839C14.5272 4.10386 14.5053 3.99423 14.5457 3.89995C14.5978 3.7702 14.7196 3.68373 14.8452 3.63301ZM15.0899 3.89776C15.0408 3.91476 14.9943 3.94601 14.9696 3.99286C14.9211 4.07604 14.9999 4.20211 15.0969 4.18839C15.1777 4.18773 15.2588 4.19223 15.3392 4.18526C15.4103 4.1532 15.4584 4.05783 15.4134 3.9867C15.3451 3.88379 15.2009 3.86036 15.0899 3.89776ZM14.416 4.49411C14.5025 4.60895 14.5396 4.75651 14.5207 4.89889C14.6005 4.89808 14.6802 4.89917 14.7601 4.8982C14.7603 4.76379 14.7596 4.62936 14.7605 4.49508C14.6457 4.49289 14.5307 4.49467 14.416 4.49411ZM5.5197 3.59933C5.64713 3.59933 5.77457 3.59889 5.90201 3.59933C6.00698 3.60067 6.11798 3.63001 6.19376 3.70673C6.24923 3.75976 6.27473 3.83433 6.30035 3.90476C6.34079 3.99986 6.38338 4.09398 6.42573 4.18826C6.48095 4.18854 6.53604 4.18839 6.59126 4.18839C6.59141 4.29036 6.59141 4.39217 6.59141 4.49411C6.54304 4.49398 6.49466 4.49383 6.44641 4.49451C6.44641 4.96973 6.44657 5.44495 6.44641 5.92004H6.06041C6.06029 5.44483 6.06041 4.96961 6.06041 4.49439C5.98188 4.49383 5.90338 4.49398 5.82501 4.49426C5.8246 4.96948 5.82501 5.44483 5.82473 5.92004C5.69604 5.92004 5.56726 5.91992 5.43857 5.92004C5.43816 5.79795 5.43857 5.67586 5.43845 5.55389C5.37801 5.55417 5.31745 5.55226 5.25713 5.55498C5.20385 5.7067 5.08682 5.83386 4.94145 5.90208C4.74985 5.99486 4.51213 5.98183 4.3307 5.87111C4.1416 5.76026 4.02335 5.53814 4.04485 5.31889C4.17585 5.31836 4.30673 5.31986 4.43757 5.31808C4.42895 5.36204 4.41688 5.40714 4.42688 5.45195C4.44688 5.56323 4.55816 5.64789 4.67066 5.63926C4.76329 5.63461 4.84907 5.56911 4.87866 5.48126C4.90991 5.38823 4.87566 5.27108 4.78701 5.22258C4.71904 5.20051 4.64626 5.21351 4.5761 5.21133C4.57391 5.10951 4.5757 5.00758 4.57516 4.90561C4.64888 4.90151 4.73726 4.92273 4.79591 4.86573C4.88826 4.78529 4.88635 4.62458 4.7892 4.54864C4.69726 4.46754 4.54132 4.4852 4.47279 4.58786C4.43854 4.63442 4.42854 4.69417 4.43429 4.75092C4.31138 4.74995 4.18845 4.75076 4.06554 4.75036C4.05651 4.62389 4.09104 4.49411 4.16804 4.3927C4.27451 4.24923 4.4502 4.16126 4.62832 4.15798C4.80907 4.15058 4.9946 4.22583 5.11148 4.36545C5.19863 4.46739 5.2451 4.60389 5.23482 4.73789C5.23029 4.83108 5.1907 4.91823 5.14285 4.99673C5.22057 5.08579 5.26907 5.19776 5.28523 5.31451C5.33623 5.31464 5.38732 5.31464 5.43829 5.31451C5.43829 5.04101 5.43885 4.76748 5.43804 4.49411C5.39157 4.49411 5.34526 4.49411 5.29895 4.49398C5.29882 4.39245 5.29882 4.29076 5.29895 4.18923C5.53698 4.18883 5.77498 4.18951 6.01301 4.18883C5.98366 4.10029 5.96245 3.99479 5.87598 3.94311C5.76826 3.88076 5.63879 3.89967 5.51982 3.89776C5.51941 3.79829 5.5197 3.69879 5.5197 3.59933ZM6.74804 4.18839C7.9121 4.18964 9.07616 4.18895 10.2404 4.18908C10.2405 4.29076 10.2405 4.39245 10.2404 4.49411C10.1842 4.49411 10.1281 4.49398 10.0721 4.49426C10.0717 4.9692 10.0721 5.44414 10.0719 5.91923C9.94301 5.91964 9.8142 5.91839 9.68526 5.91992C9.68457 5.6372 9.68676 5.35451 9.68416 5.07183C9.59151 5.07223 9.49888 5.07292 9.40626 5.07101C9.4482 5.1757 9.4697 5.29217 9.44176 5.40329C9.40791 5.55429 9.30238 5.68505 9.16604 5.7567C9.01998 5.8348 8.8402 5.84604 8.68535 5.78726C8.5242 5.72848 8.39101 5.59145 8.34701 5.42442C8.2962 5.23298 8.35413 5.00633 8.51598 4.88423C8.62463 4.79776 8.76648 4.76858 8.90254 4.76776C9.16345 4.76229 9.42435 4.76679 9.68526 4.76529C9.68526 4.67486 9.68538 4.58442 9.68526 4.49411C9.16151 4.49411 8.63779 4.49398 8.11407 4.49426C8.19532 4.60826 8.25385 4.74626 8.24248 4.88876C8.23341 5.04154 8.14216 5.17967 8.02145 5.26929C7.86041 5.3907 7.63748 5.42564 7.44798 5.35589C7.48235 5.23804 7.52032 5.12117 7.5506 5.00223C7.63145 5.06908 7.76204 5.04017 7.81385 4.95167C7.8777 4.83889 7.85591 4.69526 7.79054 4.58826C7.76245 4.54042 7.71585 4.49508 7.65695 4.4952C7.5336 4.49289 7.41029 4.49467 7.28698 4.49398C7.2882 4.7857 7.28698 5.07745 7.28763 5.36917C7.29066 5.43373 7.28779 5.50567 7.32863 5.56008C7.37191 5.61076 7.44523 5.61064 7.50635 5.61336C7.75054 5.6138 7.99473 5.61336 8.23876 5.61351C8.23904 5.71573 8.23891 5.81783 8.23891 5.92004C7.9217 5.91992 7.60445 5.92033 7.28723 5.91976C7.19051 5.92045 7.08895 5.89004 7.02166 5.81754C6.93191 5.72395 6.89985 5.58951 6.90013 5.4632C6.89985 5.1402 6.90026 4.81723 6.89985 4.49426C6.84929 4.49398 6.7986 4.49411 6.74788 4.49411C6.74788 4.39217 6.74776 4.29036 6.74804 4.18839ZM8.8402 5.08801C8.7496 5.11348 8.69041 5.20748 8.69316 5.29929C8.69179 5.41495 8.80154 5.52073 8.91845 5.50292C9.04573 5.4862 9.12357 5.3352 9.07795 5.21873C9.04682 5.12348 8.93816 5.05883 8.8402 5.08801ZM8.34866 6.90829C8.80416 6.65451 9.31951 6.50967 9.84051 6.48926C9.83407 7.19826 9.84791 7.90723 9.85063 8.61636C9.8597 9.87195 9.86929 11.1277 9.87845 12.3834C9.95601 12.3747 10.0344 12.3737 10.1122 12.3823C10.1055 10.9486 10.1013 9.51486 10.0941 8.08126C10.0903 7.55054 10.0969 7.0197 10.0815 6.48926C10.675 6.5057 11.2635 6.68398 11.7655 7.00108C12.157 7.24608 12.4965 7.57289 12.7581 7.95342C13.08 8.42026 13.2813 8.96976 13.3349 9.53461C13.3835 10.0071 13.3154 10.4859 13.1725 10.9371C13.157 10.9785 13.1407 11.0443 13.0839 11.0385C12.4531 11.0422 11.8225 11.0434 11.1918 11.0477C11.0508 11.0511 10.9093 11.0438 10.7687 11.0558C10.7433 11.0244 10.7305 10.9856 10.7272 10.9457C10.6077 10.127 10.4814 9.30917 10.3626 8.49029L10.3452 8.44933C10.3481 9.39851 10.3546 10.3477 10.3578 11.2969C11.2403 11.291 12.1227 11.2886 13.0053 11.2873C12.9538 11.3616 12.9026 11.436 12.8506 11.51C12.2837 11.5101 11.7169 11.5095 11.1499 11.5104C11.3247 11.6299 11.4909 11.7635 11.6333 11.9208C11.8088 12.1113 11.9529 12.3301 12.0594 12.5661C11.981 12.6002 11.9016 12.632 11.8226 12.6648C11.6019 12.1747 11.1919 11.7756 10.6998 11.5611C10.5958 11.5005 10.4736 11.5178 10.359 11.5184C10.3574 11.6335 10.3608 11.7487 10.3594 11.8638C10.8669 11.9911 11.2973 12.3939 11.4469 12.8966C11.3652 12.9196 11.2833 12.9418 11.2018 12.9649C11.078 12.5725 10.7541 12.2505 10.3607 12.1302C10.362 12.2434 10.3601 12.3567 10.3637 12.47C10.6057 12.6017 10.7582 12.8767 10.7486 13.1515C10.2495 13.1519 9.75048 13.1546 9.25141 13.1552C9.24085 12.8832 9.38845 12.6085 9.62729 12.4755C9.63029 12.3622 9.62604 12.2487 9.62673 12.1354C9.23332 12.255 8.91501 12.5853 8.79579 12.9773C8.7137 12.9546 8.63107 12.9342 8.54941 12.9107C8.69398 12.4078 9.11795 11.9984 9.62426 11.8681C9.62563 11.7528 9.62207 11.6375 9.62357 11.5222C9.53795 11.5254 9.44957 11.5097 9.36626 11.5341C8.83663 11.7397 8.39866 12.1651 8.17107 12.6849C8.09213 12.6526 8.01307 12.6208 7.93388 12.589C8.10488 12.1902 8.38963 11.8429 8.74001 11.5879L8.74426 11.5994L8.74345 11.5866C8.77182 11.5624 8.80429 11.5435 8.83457 11.5217C8.26507 11.5208 7.69557 11.5229 7.12623 11.5196C7.07716 11.4449 7.02413 11.3731 6.97357 11.2994C7.85591 11.2995 8.7381 11.2995 9.62045 11.2995C9.61357 10.3445 9.60891 9.38936 9.59741 8.43439C9.51232 8.9958 9.43913 9.55926 9.36023 10.1216C9.32129 10.409 9.27979 10.6959 9.24263 10.9835C9.23591 11.012 9.2262 11.0452 9.20045 11.0621C8.83663 11.0555 8.47266 11.0647 8.10873 11.0641C7.72929 11.0674 7.34973 11.0685 6.97016 11.0714C6.91848 11.0708 6.84407 11.0904 6.82366 11.0258C6.75116 10.841 6.7057 10.646 6.66732 10.4515C6.54385 9.80701 6.62663 9.12873 6.88479 8.52673C7.17816 7.84667 7.70091 7.26786 8.34866 6.90829ZM7.56473 7.83817C7.11116 8.37848 6.8456 9.07526 6.83245 9.78111C6.82176 10.1215 6.8771 10.4613 6.97329 10.7872C7.62557 10.786 8.27795 10.7868 8.93023 10.7847C9.00023 10.7787 8.99298 10.6922 9.00366 10.6421C9.26579 9.33208 9.52945 8.02248 9.79254 6.71261C8.9361 6.75661 8.11091 7.17851 7.56473 7.83817ZM10.1338 6.71208C10.3599 7.78048 10.588 8.84848 10.8149 9.91676C10.8711 10.1871 10.9328 10.4567 10.9844 10.7277C10.9924 10.7581 11.0232 10.7779 11.0543 10.7736C11.7023 10.7658 12.3505 10.7628 12.9986 10.7539C13.0704 10.4993 13.1177 10.237 13.1278 9.97242C13.1509 9.3903 13.0056 8.80301 12.7158 8.29776C12.4791 7.88448 12.1485 7.5252 11.7552 7.25648C11.2793 6.92926 10.711 6.73661 10.1338 6.71208ZM5.2662 13.7528C5.4642 13.7359 5.66304 13.742 5.86145 13.7426C6.08507 13.7478 6.32023 13.7703 6.51479 13.8906C6.66595 13.9852 6.74529 14.1589 6.78051 14.328C6.8301 14.5537 6.81613 14.7862 6.81832 15.0156C6.81751 15.2885 6.83066 15.5742 6.7176 15.8296C6.66004 15.969 6.5392 16.0775 6.39791 16.1278C6.12235 16.2352 5.82157 16.2107 5.53216 16.2135C5.2866 16.2133 5.02501 16.1998 4.8096 16.0688C4.6471 15.9709 4.56735 15.7838 4.53335 15.6045C4.48582 15.365 4.50473 15.1198 4.5006 14.8774C4.49979 14.6128 4.49691 14.3327 4.62188 14.0915C4.68957 13.956 4.8196 13.8628 4.96088 13.8155C5.05929 13.781 5.16273 13.7632 5.2662 13.7528ZM5.2377 14.2851C5.14985 14.3099 5.06804 14.3765 5.04573 14.4679C5.0212 14.5892 5.02679 14.7136 5.02585 14.8367C5.02695 15.0288 5.02213 15.221 5.02995 15.4131C5.03282 15.4829 5.0582 15.5533 5.10779 15.6036C5.1752 15.6723 5.27538 15.692 5.36813 15.6925C5.55532 15.6932 5.74251 15.6925 5.92982 15.693C6.01191 15.6931 6.09879 15.6843 6.16854 15.637C6.23429 15.594 6.27307 15.518 6.2802 15.441C6.2942 15.281 6.29035 15.1205 6.29076 14.9601C6.29048 14.8131 6.29323 14.6661 6.28295 14.5195C6.2772 14.4419 6.23595 14.3665 6.17057 14.3239C6.09932 14.2775 6.01191 14.27 5.92913 14.2706C5.7466 14.2718 5.5641 14.2683 5.38157 14.2715C5.33348 14.2732 5.28441 14.2718 5.2377 14.2851ZM7.49579 13.7451C7.65982 13.7448 7.82385 13.7459 7.98785 13.7445C7.99076 13.8755 7.98801 14.0067 7.98938 14.1378C8.09351 14.004 8.2226 13.8873 8.37263 13.807C8.49804 13.7426 8.64285 13.7378 8.78085 13.7425C8.94104 13.7487 9.10698 13.7469 9.25798 13.8084C9.46504 13.8957 9.62866 14.0769 9.70032 14.2894C9.76404 14.4645 9.75404 14.6532 9.75404 14.8364C9.75388 15.2857 9.75404 15.735 9.75388 16.1842C9.5792 16.1844 9.40435 16.1844 9.22963 16.1844C9.22948 15.7807 9.23073 15.377 9.23032 14.9734C9.23101 14.8245 9.24951 14.6666 9.18126 14.5284C9.11451 14.3836 8.96488 14.2868 8.80866 14.268C8.66507 14.2505 8.5131 14.2557 8.37976 14.3173C8.22616 14.3885 8.10391 14.5252 8.05351 14.6872C8.0291 14.7616 8.02116 14.8405 8.01966 14.9186V16.1845C7.84563 16.1852 7.67173 16.1826 7.49785 16.1857C7.49291 15.3723 7.49716 14.5586 7.49579 13.7451ZM10.7408 13.8492C10.9452 13.7543 11.175 13.7433 11.3967 13.7418C11.6479 13.7441 11.9042 13.7285 12.1494 13.7937C12.2766 13.8302 12.4058 13.8864 12.4915 13.9911C12.6352 14.1677 12.6655 14.4035 12.6792 14.6232C12.5033 14.6229 12.3273 14.6233 12.1515 14.6229C12.1488 14.5327 12.1455 14.4309 12.0782 14.3623C11.9999 14.2776 11.8765 14.2662 11.7679 14.2696C11.5806 14.2706 11.3932 14.2681 11.2059 14.2707C11.106 14.2718 10.9972 14.307 10.9407 14.3948C10.8792 14.489 10.8959 14.6073 10.8881 14.7142C10.8896 14.9468 10.883 15.1798 10.8922 15.4126C10.8948 15.4985 10.9347 15.5866 11.0081 15.6346C11.0773 15.6824 11.1642 15.6917 11.2463 15.692C11.4383 15.6919 11.6302 15.6921 11.8222 15.6919C11.9195 15.6917 12.0261 15.6634 12.0878 15.5828C12.1414 15.5174 12.1442 15.4289 12.1494 15.3486C11.9744 15.3483 11.7996 15.3486 11.6246 15.3485C11.6246 15.1732 11.6245 14.998 11.6246 14.8227C11.9766 14.8232 12.3288 14.8212 12.6809 14.8236C12.6749 15.0996 12.6992 15.3797 12.6388 15.6516C12.6042 15.8008 12.5381 15.953 12.4109 16.046C12.2607 16.155 12.072 16.1894 11.8911 16.2064C11.7084 16.2186 11.525 16.2119 11.3419 16.2137C11.1129 16.2119 10.8726 16.1887 10.6716 16.0697C10.5198 15.9768 10.4381 15.8066 10.4022 15.6379C10.3538 15.4292 10.3637 15.2136 10.3623 15.0011C10.365 14.7269 10.3446 14.4429 10.4432 14.1813C10.4928 14.0368 10.6003 13.9113 10.7408 13.8492ZM13.6438 13.8753C13.8475 13.7618 14.087 13.7454 14.3155 13.743C14.581 13.7447 14.8525 13.7269 15.1115 13.7979C15.2586 13.8377 15.4035 13.9178 15.4853 14.0507C15.5974 14.2325 15.6216 14.4511 15.6304 14.6602H15.1028C15.0993 14.5603 15.1035 14.4468 15.0327 14.3671C14.9606 14.2851 14.8439 14.2687 14.7407 14.2705C14.5443 14.2715 14.3479 14.2691 14.1516 14.272C14.0553 14.2731 13.9515 14.308 13.8948 14.3901C13.8445 14.4597 13.8444 14.5495 13.8398 14.6315C13.8364 14.8644 13.8368 15.0972 13.8389 15.33C13.8407 15.413 13.8426 15.5039 13.8948 15.5732C13.9554 15.6593 14.0655 15.6913 14.1662 15.6924C14.3671 15.6934 14.5679 15.6927 14.7688 15.6928C14.8692 15.6924 14.9805 15.6636 15.0421 15.5781C15.101 15.5005 15.0948 15.3984 15.1015 15.3063C15.2775 15.3061 15.4538 15.3064 15.63 15.3061C15.6233 15.4488 15.6114 15.5928 15.5679 15.7297C15.5342 15.8415 15.4773 15.9498 15.3873 16.0264C15.2808 16.114 15.1464 16.1589 15.0125 16.184C14.8329 16.2193 14.6487 16.2141 14.4666 16.2146C14.2656 16.2145 14.0615 16.2189 13.8653 16.1685C13.7162 16.1335 13.5691 16.0617 13.4771 15.9352C13.393 15.8161 13.353 15.6717 13.3327 15.5291C13.306 15.3497 13.3156 15.168 13.3129 14.9874C13.3145 14.733 13.2997 14.4718 13.378 14.2259C13.4216 14.0831 13.51 13.9478 13.6438 13.8753Z" fill="white"/>
</g>
<defs>
<clipPath id="clip0_3396_72048">
<rect width="19.375" height="19.375" fill="white" transform="scale(1.03226)"/>
</clipPath>
</defs>
</svg>
