<svg width="24" height="24" viewBox="0 0 24 24" fill="none" xmlns="http://www.w3.org/2000/svg">
<g clip-path="url(#clip0_3396_52568)">
<g filter="url(#filter0_d_3396_52568)">
<path d="M11.625 23.2498C18.0453 23.2498 23.25 18.0451 23.25 11.6249C23.25 5.20465 18.0453 0 11.625 0C5.2047 0 0 5.20465 0 11.6249C0 18.0451 5.2047 23.2498 11.625 23.2498Z" fill="currentColor"/>
</g>
<mask id="mask0_3396_52568" style="mask-type:luminance" maskUnits="userSpaceOnUse" x="1" y="8" width="23" height="7">
<path d="M23.1066 8.71875H1.25V14.531H23.1066V8.71875Z" fill="currentColor"/>
</mask>
<g mask="url(#mask0_3396_52568)">
<path d="M17.497 13.2113V9.81026H18.6729L18.68 10.2164C18.9149 9.90483 19.261 9.75928 19.662 9.75928C20.167 9.75928 20.5264 9.97508 20.7203 10.3115C20.9555 9.94336 21.3994 9.75928 21.8548 9.75928C22.6639 9.75928 23.1066 10.3178 23.1066 11.0221V13.2113H21.91V11.1872C21.91 10.8573 21.6819 10.6604 21.405 10.6604C21.128 10.6604 20.9002 10.8587 20.9002 11.1872V13.2113H19.7037V11.1872C19.7037 10.8573 19.4752 10.6604 19.1986 10.6604C18.922 10.6604 18.6936 10.8587 18.6936 11.1872V13.2113H17.497ZM17.0957 11.9168C17.0957 12.7924 16.3347 13.2875 15.367 13.2875C14.3991 13.2875 13.6382 12.7924 13.6382 11.9168V9.81026H14.8421V11.885C14.8421 12.1833 15.0564 12.3736 15.367 12.3736C15.6775 12.3736 15.8918 12.1833 15.8918 11.885V9.81026H17.0957V11.9168ZM13.3125 10.6859V9.81026H12.3246V8.94078H11.1268V11.9929C11.1268 12.8369 11.6732 13.262 12.5518 13.262C12.8078 13.262 13.0766 13.2368 13.3125 13.1487V12.2792C13.1657 12.3239 13.0121 12.3472 12.8574 12.3484C12.5392 12.3484 12.3246 12.215 12.3246 11.904V10.6862L13.3125 10.6859ZM9.61229 11.5106C9.61229 11.9995 9.22487 12.3602 8.74792 12.3602C8.26386 12.3602 7.87644 11.9986 7.87644 11.5106C7.87644 11.0292 8.26386 10.6667 8.74792 10.6667C9.22487 10.6667 9.61229 11.0286 9.61229 11.5106ZM7.87614 14.531V12.8559C8.18741 13.1228 8.59814 13.2704 9.02422 13.2685C10.0272 13.2685 10.8147 12.488 10.8147 11.5106C10.8147 10.5398 10.0263 9.75928 9.02422 9.75928C8.80492 9.75832 8.58755 9.7971 8.38463 9.87332C8.18166 9.94959 7.99713 10.0618 7.84156 10.2036L7.83475 9.81026H6.67279V14.531H7.87614ZM5.04032 10.9909C5.04032 11.689 4.48002 12.2087 3.78142 12.2087C3.08282 12.2087 2.52282 11.6885 2.52282 10.9909C2.52282 10.2934 3.08282 9.77314 3.78142 9.77314C4.48002 9.77314 5.04032 10.2926 5.04032 10.9904V10.9909ZM3.78142 8.71875C2.36353 8.71875 1.25 9.72756 1.25 10.9904C1.25 12.2532 2.36353 13.262 3.78142 13.262C5.19931 13.262 6.31284 12.2532 6.31284 10.9904C6.31284 9.72756 5.19931 8.71875 3.78142 8.71875Z" fill="currentColor"/>
</g>
</g>
<defs>
<filter id="filter0_d_3396_52568" x="-7.36247" y="-6.13539" width="37.9749" height="37.9747" filterUnits="userSpaceOnUse" color-interpolation-filters="sRGB">
<feFlood flood-opacity="0" result="BackgroundImageFix"/>
<feColorMatrix in="SourceAlpha" type="matrix" values="0 0 0 0 0 0 0 0 0 0 0 0 0 0 0 0 0 0 127 0" result="hardAlpha"/>
<feOffset dy="1.22707"/>
<feGaussianBlur stdDeviation="3.68123"/>
<feComposite in2="hardAlpha" operator="out"/>
<feColorMatrix type="matrix" values="0 0 0 0 0 0 0 0 0 0 0 0 0 0 0 0 0 0 0.08 0"/>
<feBlend mode="normal" in2="BackgroundImageFix" result="effect1_dropShadow_3396_52568"/>
<feBlend mode="normal" in="SourceGraphic" in2="effect1_dropShadow_3396_52568" result="shape"/>
</filter>
<clipPath id="clip0_3396_52568">
<rect width="24" height="23.2498" fill="currentColor"/>
</clipPath>
</defs>
</svg>
