<svg width="16" height="16" viewBox="0 0 16 16" fill="none" xmlns="http://www.w3.org/2000/svg">
<g clip-path="url(#clip0_3396_53131)">
<path d="M15.5 7.75C15.5 3.46979 12.0302 0 7.75 0C3.46979 0 0 3.46979 0 7.75C0 12.0302 3.46979 15.5 7.75 15.5C12.0302 15.5 15.5 12.0302 15.5 7.75Z" fill="currentColor"/>
<path d="M7.15171 7.98895H7.98319L7.54399 7.30186L6.73654 8.54286H6.36936L7.35139 7.05398C7.37281 7.02427 7.40126 6.99998 7.43436 6.9831C7.46746 6.96624 7.50424 6.95728 7.54164 6.95704C7.57904 6.95677 7.61596 6.9652 7.64931 6.98162C7.68266 6.99802 7.71146 7.02192 7.73331 7.05135L8.71806 8.54286H8.35089L8.17796 8.26538H7.33666L7.15336 7.98895M10.9686 8.26538V6.97205H10.6565V8.39275C10.6565 8.41249 10.6605 8.43203 10.6685 8.45022C10.6765 8.46838 10.6882 8.48478 10.7029 8.49846C10.7177 8.51309 10.7353 8.52472 10.7548 8.53261C10.7743 8.54051 10.7952 8.54453 10.8164 8.54443H12.2349L12.4198 8.26696H10.967M5.80904 8.03441C5.95446 8.03441 6.09394 7.97844 6.19676 7.87883C6.29959 7.77922 6.35736 7.6441 6.35736 7.50324C6.35736 7.36236 6.29959 7.22725 6.19676 7.12763C6.09394 7.02802 5.95446 6.97205 5.80904 6.97205H4.44509V8.54286H4.75661V7.25006H5.78996C5.85956 7.25006 5.92629 7.27685 5.97551 7.32453C6.02474 7.3722 6.05236 7.43686 6.05236 7.50428C6.05236 7.57171 6.02474 7.63637 5.97551 7.68406C5.92629 7.73172 5.85956 7.75851 5.78996 7.75851H4.91101L5.84179 8.54286H6.29406L5.66884 8.03441H5.80904ZM2.52904 8.54286H3.47124C3.68254 8.53753 3.88336 8.4525 4.03086 8.30583C4.17839 8.15916 4.26094 7.9625 4.26094 7.75771C4.26094 7.55294 4.17839 7.35628 4.03086 7.20961C3.88336 7.06295 3.68254 6.97789 3.47124 6.97259H2.52904C2.42083 6.96987 2.31316 6.98816 2.21237 7.0264C2.11159 7.06464 2.01973 7.12204 1.94221 7.1952C1.86469 7.26837 1.80308 7.35585 1.76101 7.45246C1.71894 7.54906 1.69727 7.65287 1.69727 7.75771C1.69727 7.86258 1.71894 7.96638 1.76101 8.06299C1.80308 8.1596 1.86469 8.24705 1.94221 8.32024C2.01973 8.3934 2.11159 8.4508 2.21237 8.48904C2.31316 8.52728 2.42083 8.54557 2.52904 8.54286ZM3.44996 8.26642H2.54976C2.41356 8.26219 2.28441 8.20677 2.18962 8.11193C2.09483 8.01709 2.04183 7.89026 2.04183 7.75824C2.04183 7.62625 2.09483 7.49939 2.18962 7.40458C2.28441 7.30974 2.41356 7.25432 2.54976 7.25006H3.44996C3.52026 7.24788 3.59031 7.25938 3.65594 7.28394C3.72156 7.3085 3.78144 7.34558 3.83196 7.39297C3.88251 7.44037 3.92269 7.49714 3.95014 7.55989C3.97759 7.62264 3.99174 7.69009 3.99174 7.75824C3.99174 7.82639 3.97759 7.89384 3.95014 7.95659C3.92269 8.01934 3.88251 8.07611 3.83196 8.12353C3.78144 8.17093 3.72156 8.20801 3.65594 8.23257C3.59031 8.2571 3.52026 8.26863 3.44996 8.26642ZM9.36896 8.54286H10.3308L10.513 8.26642H9.39024C9.31991 8.26863 9.24986 8.2571 9.18424 8.23257C9.11861 8.20801 9.05876 8.17093 9.00821 8.12353C8.95769 8.07611 8.91749 8.01934 8.89004 7.95659C8.86261 7.89384 8.84846 7.82639 8.84846 7.75824C8.84846 7.69009 8.86261 7.62264 8.89004 7.55989C8.91749 7.49714 8.95769 7.44037 9.00821 7.39297C9.05876 7.34558 9.11861 7.3085 9.18424 7.28394C9.24986 7.25938 9.31991 7.24788 9.39024 7.25006H10.3041L10.4885 6.97259H9.36896C9.26074 6.96987 9.15309 6.98816 9.05229 7.0264C8.95151 7.06464 8.85966 7.12204 8.78214 7.1952C8.70461 7.26837 8.64299 7.35585 8.60094 7.45246C8.55886 7.54906 8.53719 7.65287 8.53719 7.75771C8.53719 7.86258 8.55886 7.96638 8.60094 8.06299C8.64299 8.1596 8.70461 8.24705 8.78214 8.32024C8.85966 8.3934 8.95151 8.4508 9.05229 8.48904C9.15309 8.52728 9.26074 8.54557 9.36896 8.54286ZM13.1809 8.26642C13.0666 8.26647 12.9554 8.23036 12.8642 8.16359C12.773 8.0968 12.7068 8.00302 12.6757 7.89646H14.008L14.1913 7.61952H12.6757C12.7068 7.51291 12.7729 7.41908 12.8641 7.35229C12.9553 7.28549 13.0666 7.24941 13.1809 7.24953H14.0953L14.2781 6.97205H13.1596C12.9483 6.97738 12.7475 7.06241 12.6 7.20908C12.4525 7.35575 12.3699 7.55243 12.3699 7.7572C12.3699 7.96197 12.4525 8.15863 12.6 8.30529C12.7475 8.45196 12.9483 8.53702 13.1596 8.54232H14.1215L14.3043 8.26589H13.1804" fill="currentColor"/>
</g>
<defs>
<clipPath id="clip0_3396_53131">
<rect width="16" height="15.5" fill="currentColor"/>
</clipPath>
</defs>
</svg>
