<svg width="24" height="24" viewBox="0 0 24 24" fill="none" xmlns="http://www.w3.org/2000/svg">
<g clip-path="url(#clip0_4017_2711)">
<path d="M17.3171 3.35352C18.5461 4.0856 19.6194 5.08931 20.4674 6.29178C21.3021 7.47768 21.8951 8.82921 22.1965 10.2437L13.3221 11.7343L17.3171 3.35352Z" fill="#E8F4FD" stroke="black" stroke-width="0.12"/>
<path d="M22.2 10.2471L21.6435 10.5452L12.7691 12.0359L13.3256 11.7377L22.2 10.2471Z" fill="#017AFF" stroke="black" stroke-width="0.12"/>
<path d="M13.3255 11.7377L12.769 12.0358L16.764 3.65496L17.3172 3.35352L13.3255 11.7377Z" fill="#017AFF" stroke="black" stroke-width="0.12"/>
<path d="M12.8188 12.3011L21.9847 11.8672C22.0576 12.7251 22.0212 13.5831 21.8721 14.4179C21.7297 15.246 21.4779 16.0444 21.1301 16.793L12.8188 12.2978V12.3011Z" fill="#E8F4FD" stroke="black" stroke-width="0.12"/>
<path d="M21.1266 16.7969L20.5734 17.0984L12.2621 12.6032L12.8187 12.3018L21.1266 16.7969Z" fill="#017AFF" stroke="black" stroke-width="0.12"/>
<path d="M10.0096 2.36899C10.3707 2.32592 10.7417 2.30273 11.1193 2.30273C12.6729 2.30936 14.2232 2.70687 15.6344 3.46876L11.699 11.8496L19.2716 17.9315C17.8538 19.8329 15.7437 21.042 13.3951 21.3302C13.0274 21.3766 12.6564 21.3965 12.2787 21.3965C7.16409 21.3865 2.69542 17.0669 2.3741 11.8297C2.07928 6.97679 5.44486 2.92881 10.0096 2.36899Z" fill="#017AFF" stroke="black" stroke-width="0.12"/>
<mask id="mask0_4017_2711" style="mask-type:luminance" maskUnits="userSpaceOnUse" x="1" y="3" width="16" height="19">
<path d="M16.4791 20.3457L15.9226 20.6471C14.9785 21.1573 13.9351 21.4918 12.8386 21.6276C12.4709 21.674 12.0999 21.6939 11.7222 21.6939C6.60762 21.6806 2.13895 17.3643 1.81762 12.1271C1.59568 8.44024 3.48385 5.22041 6.40886 3.64031L6.96538 3.33887C4.04037 4.91897 2.1522 8.14211 2.37414 11.8257C2.69546 17.0629 7.16082 21.3792 12.2788 21.3924C12.6564 21.3924 13.0274 21.3693 13.3951 21.3262C14.4916 21.1904 15.535 20.8558 16.4791 20.3457Z" fill="white" stroke="white" stroke-width="0.12"/>
</mask>
<g mask="url(#mask0_4017_2711)">
<path d="M16.4791 20.3457L15.9226 20.6471C14.9785 21.1573 13.9351 21.4918 12.8386 21.6276C12.4709 21.674 12.0999 21.6939 11.7222 21.6939C6.60762 21.6806 2.13895 17.3643 1.81762 12.1271C1.59568 8.44024 3.48385 5.22041 6.40886 3.64031L6.96538 3.33887C4.04037 4.91897 2.1522 8.14211 2.37414 11.8257C2.69546 17.0629 7.16082 21.3792 12.2788 21.3924C12.6564 21.3924 13.0274 21.3693 13.3951 21.3262C14.4916 21.1904 15.535 20.8558 16.4791 20.3457Z" fill="#0062CD" stroke="black" stroke-width="0.12"/>
</g>
<path d="M11.2914 5.70158C14.2297 5.34051 17.0454 7.55994 17.5854 10.6539C18.1253 13.7478 16.1808 16.5536 13.2459 16.9147C10.3109 17.2757 7.4886 15.0563 6.94865 11.9591C6.4087 8.86179 8.35319 6.05934 11.2914 5.69827V5.70158Z" fill="#E8F4FD" stroke="black" stroke-width="0.12"/>
<mask id="mask1_4017_2711" style="mask-type:luminance" maskUnits="userSpaceOnUse" x="6" y="6" width="10" height="12">
<path d="M14.9983 16.3618L14.5544 16.6036C14.0277 16.8885 13.438 17.0806 12.802 17.1601C9.86376 17.5212 7.04475 15.3018 6.5048 12.2045C6.08079 9.77968 7.18388 7.53375 9.09193 6.50354L9.53581 6.26172C7.62776 7.29524 6.52467 9.53786 6.94868 11.9627C7.48864 15.0599 10.3076 17.2794 13.2459 16.9183C13.8819 16.8388 14.4716 16.6467 14.9983 16.3618Z" fill="white" stroke="white" stroke-width="0.12"/>
</mask>
<g mask="url(#mask1_4017_2711)">
<path d="M14.9983 16.3618L14.5544 16.6036C14.0277 16.8885 13.438 17.0806 12.802 17.1601C9.86376 17.5212 7.04475 15.3018 6.5048 12.2045C6.08079 9.77968 7.18388 7.53375 9.09193 6.50354L9.53581 6.26172C7.62776 7.29524 6.52467 9.53786 6.94868 11.9627C7.48864 15.0599 10.3076 17.2794 13.2459 16.9183C13.8819 16.8388 14.4716 16.6467 14.9983 16.3618Z" fill="#E8F4FD" stroke="black" stroke-width="0.12"/>
</g>
<path d="M13.2399 8.52459L13.3327 9.06123L11.9944 9.22685C12.1203 9.31961 12.2296 9.43223 12.329 9.56805C12.4283 9.70387 12.5012 9.86949 12.5542 10.0616L13.4917 9.94568L13.5844 10.4856L12.6602 10.5983C12.6967 11.0057 12.6205 11.3436 12.4283 11.5987C12.2395 11.8504 11.9646 12.0293 11.5969 12.1386L13.4089 14.6098L12.6867 14.6992L10.8648 12.0989L10.8019 11.7279L10.9609 11.708C11.2093 11.6782 11.418 11.6252 11.577 11.549C11.7393 11.4695 11.8619 11.3635 11.9414 11.221C12.0176 11.0819 12.0441 10.8964 12.0275 10.6711L10.6528 10.8401L10.56 10.3001L11.9314 10.1312C11.8619 9.92912 11.7658 9.77012 11.6466 9.65418C11.524 9.53161 11.3716 9.4488 11.1894 9.40905C11.0172 9.3693 10.8052 9.36267 10.5667 9.39248L10.4077 9.41236L10.3149 8.87572L13.2532 8.51465L13.2399 8.52459Z" fill="#017AFF" stroke="black" stroke-width="0.12"/>
</g>
<defs>
<clipPath id="clip0_4017_2711">
<rect width="24" height="24" fill="white"/>
</clipPath>
</defs>
</svg>
