<svg width="343" height="54" viewBox="0 0 343 54" fill="none" xmlns="http://www.w3.org/2000/svg">
<rect x="0.5" y="0.5" width="46.1667" height="53" rx="7.5" fill="currentColor"/>
<rect x="0.5" y="0.5" width="46.1667" height="53" rx="7.5" stroke="currentColor"/>
<rect x="59.6665" y="0.5" width="46.1667" height="53" rx="7.5" fill="currentColor"/>
<rect x="59.6665" y="0.5" width="46.1667" height="53" rx="7.5" stroke="currentColor"/>
<rect x="118.833" y="0.5" width="46.1667" height="53" rx="7.5" fill="currentColor"/>
<rect x="118.833" y="0.5" width="46.1667" height="53" rx="7.5" stroke="currentColor"/>
<rect x="178" y="0.5" width="46.1667" height="53" rx="7.5" fill="currentColor"/>
<rect x="178" y="0.5" width="46.1667" height="53" rx="7.5" stroke="currentColor"/>
<rect x="237.167" y="0.5" width="46.1667" height="53" rx="7.5" fill="currentColor"/>
<rect x="237.167" y="0.5" width="46.1667" height="53" rx="7.5" stroke="currentColor"/>
<rect x="296.333" y="0.5" width="46.1667" height="53" rx="7.5" fill="currentColor"/>
<rect x="296.333" y="0.5" width="46.1667" height="53" rx="7.5" stroke="currentColor"/>
</svg>
