<svg width="24" height="24" viewBox="0 0 24 24" fill="none" xmlns="http://www.w3.org/2000/svg">
<g clip-path="url(#clip0_4613_49204)">
<rect width="24" height="24" rx="12" fill="#442698"/>
<path d="M13.5711 13.5098C17.8084 13.4905 18.293 10.2449 18.293 10.2449H13.953C13.8459 10.2449 13.753 10.3209 13.7283 10.4283L13.4731 11.589C13.451 11.685 13.3659 11.755 13.2698 11.755H12.6222C12.5482 11.7577 12.4852 11.6984 12.4826 11.6224C12.4826 11.6083 12.4826 11.5943 12.4878 11.5803L12.7404 10.4283C12.7567 10.3496 12.7106 10.2676 12.6307 10.2509C12.6196 10.2483 12.6086 10.2483 12.5975 10.2483H11.3901C11.3901 10.2483 7.54579 10.2483 6.69236 13.9551L6 17H7.33341C7.33341 17 9.37541 17.0253 9.78654 15.1039L9.99763 14.1998C10.0912 13.7971 10.4419 13.5125 10.8459 13.5098H13.5711Z" fill="white"/>
<path d="M14.0297 9.06221L14.2739 7.96082C14.2934 7.87082 14.2382 7.78081 14.1505 7.76081C14.1394 7.75814 14.1284 7.75814 14.1148 7.75814H13.5354C13.4062 7.75548 13.2938 7.84548 13.2665 7.97215L13.0249 9.08222C13.0002 9.18955 12.9067 9.26823 12.8002 9.26823H10.9504C10.9504 9.26823 7.65751 9.26756 8.42846 6.00004C8.42846 6.00004 9.03768 6.01138 13.7881 6.00004C18.8262 5.98604 18.4755 9.28156 18.4859 9.26756H14.1888C14.0985 9.26756 14.0238 9.19156 14.0238 9.09822C14.0238 9.08688 14.0271 9.07622 14.0297 9.06221Z" fill="white"/>
</g>
<defs>
<clipPath id="clip0_4613_49204">
<rect width="24" height="24" fill="white"/>
</clipPath>
</defs>
</svg>
