<svg width="234" height="40" viewBox="0 0 234 40" fill="none" xmlns="http://www.w3.org/2000/svg">
<g clip-path="url(#clip0_3396_48560)">
<path d="M125.346 11.6302C124.771 9.99122 123.701 8.57118 122.285 7.56617C120.868 6.56115 119.174 6.02074 117.437 6.01954H117.357C116.227 6.0189 115.109 6.2472 114.07 6.69066C113.031 7.13412 112.093 7.78354 111.312 8.59969C110.533 7.78332 109.596 7.1337 108.558 6.6902C107.52 6.24669 106.403 6.01853 105.274 6.01954H105.198C103.192 6.0173 101.253 6.73905 99.7366 8.05213V7.41095C99.7147 7.09988 99.5757 6.80867 99.3476 6.596C99.1196 6.38333 98.8194 6.265 98.5076 6.26487H92.9028C92.5743 6.26518 92.2594 6.39573 92.027 6.6279C91.7946 6.86006 91.6637 7.1749 91.6631 7.50339V37.9437C91.6625 38.1069 91.6941 38.2686 91.7561 38.4196C91.8181 38.5705 91.9093 38.7077 92.0245 38.8234C92.1397 38.939 92.2766 39.0307 92.4273 39.0933C92.578 39.1559 92.7396 39.1881 92.9028 39.1881H98.5076C98.8058 39.1883 99.094 39.0802 99.3187 38.8841C99.5434 38.688 99.6893 38.417 99.7295 38.1215V16.2702C99.7295 16.1967 99.7295 16.1232 99.7401 16.0498C99.7788 15.5559 99.9961 15.093 100.352 14.7478C100.707 14.4027 101.176 14.1989 101.671 14.1748H102.707C103.139 14.203 103.552 14.3622 103.892 14.6311C104.135 14.8287 104.329 15.079 104.461 15.363C104.593 15.647 104.658 15.9572 104.653 16.2702L104.671 38.0136C104.671 38.3429 104.803 38.6584 105.036 38.8909C105.27 39.1233 105.586 39.2536 105.915 39.2533H111.52C111.838 39.2523 112.143 39.1285 112.372 38.9076C112.601 38.6868 112.736 38.386 112.749 38.0681V16.237C112.742 15.8914 112.822 15.5496 112.982 15.243C113.142 14.9365 113.376 14.6751 113.664 14.4829C113.975 14.2851 114.33 14.1667 114.697 14.1381H115.731C116.264 14.1672 116.765 14.4027 117.127 14.7947C117.489 15.1868 117.685 15.7045 117.672 16.2382L117.695 37.9508C117.694 38.1139 117.725 38.2755 117.787 38.4264C117.849 38.5773 117.94 38.7144 118.056 38.8301C118.171 38.9457 118.307 39.0374 118.458 39.1001C118.608 39.1628 118.77 39.1951 118.933 39.1952H124.537C124.7 39.1951 124.861 39.1628 125.012 39.1002C125.163 39.0375 125.3 38.9458 125.415 38.8303C125.531 38.7147 125.622 38.5776 125.684 38.4267C125.747 38.2758 125.779 38.1141 125.779 37.9508V14.6026C125.827 13.5969 125.682 12.5913 125.353 11.6397" fill="#00B2F1"/>
<path d="M87.3966 6.34544H84.1966V1.13063C84.2014 0.962267 84.1677 0.795023 84.098 0.641687C84.0283 0.48835 83.9245 0.352984 83.7945 0.245935C83.6644 0.138886 83.5116 0.0629908 83.3478 0.0240561C83.1839 -0.0148785 83.0133 -0.0158196 82.849 0.0212982C79.2934 0.996706 80.0046 5.91997 73.5216 6.34071H72.8863C72.7951 6.3418 72.7041 6.35212 72.6149 6.37151C72.341 6.43388 72.0965 6.5875 71.9214 6.80717C71.7463 7.02684 71.6511 7.2995 71.6514 7.58041V13.1804C71.6508 13.3435 71.6823 13.5051 71.7443 13.656C71.8062 13.8069 71.8973 13.9441 72.0124 14.0597C72.1274 14.1753 72.2642 14.267 72.4147 14.3297C72.5653 14.3924 72.7268 14.4247 72.8899 14.4249H76.2736V38.189C76.2733 38.3502 76.3048 38.5098 76.3663 38.6588C76.4279 38.8078 76.5182 38.9431 76.6322 39.0571C76.7462 39.1711 76.8815 39.2614 77.0305 39.3229C77.1794 39.3845 77.3391 39.416 77.5003 39.4157H83.0398C83.2006 39.4155 83.3599 39.3836 83.5083 39.3219C83.6568 39.2601 83.7917 39.1697 83.9052 39.0558C84.0187 38.9418 84.1086 38.8066 84.1698 38.6579C84.231 38.5092 84.2622 38.3498 84.2617 38.189V14.4249H87.4013C87.5643 14.4245 87.7256 14.3921 87.8761 14.3293C88.0265 14.2666 88.1631 14.1748 88.2781 14.0592C88.393 13.9437 88.484 13.8065 88.5459 13.6557C88.6077 13.5049 88.6392 13.3434 88.6386 13.1804V7.58041C88.6391 7.41768 88.6074 7.25645 88.5455 7.10599C88.4835 6.95552 88.3924 6.81878 88.2774 6.7036C88.1624 6.58842 88.0259 6.49708 87.8755 6.4348C87.7252 6.37253 87.564 6.34055 87.4013 6.34071" fill="#00B2F1"/>
<path d="M67.2281 6.34613H61.6257C61.4627 6.34582 61.3013 6.37764 61.1506 6.43981C60.9999 6.50197 60.863 6.59324 60.7476 6.70839C60.6322 6.82354 60.5407 6.96031 60.4783 7.11087C60.4158 7.26143 60.3837 7.42283 60.3837 7.58583V19.1722C60.3787 19.5156 60.2395 19.8435 59.9959 20.0856C59.7522 20.3278 59.4234 20.4649 59.08 20.4676H56.725C56.3759 20.467 56.0413 20.3278 55.7946 20.0808C55.548 19.8337 55.4094 19.4988 55.4094 19.1497L55.3893 7.58346C55.3896 7.42067 55.3578 7.25942 55.2957 7.10895C55.2336 6.95848 55.1424 6.82174 55.0273 6.70658C54.9123 6.59142 54.7756 6.50009 54.6252 6.43783C54.4748 6.37557 54.3136 6.34359 54.1508 6.34375H48.5425C48.3798 6.34375 48.2187 6.37584 48.0684 6.43817C47.9182 6.5005 47.7816 6.59185 47.6667 6.707C47.5518 6.82214 47.4607 6.95883 47.3987 7.10922C47.3366 7.25962 47.3048 7.42077 47.3051 7.58346V20.2863C47.2614 21.3835 47.4453 22.4779 47.8453 23.5005C48.2453 24.5231 48.8527 25.4518 49.6292 26.2282C50.4058 27.0045 51.3347 27.6117 52.3575 28.0113C53.3802 28.411 54.4746 28.5946 55.5718 28.5506C55.5718 28.5506 59.1961 28.5506 59.3075 28.5707C59.6294 28.6007 59.9286 28.7492 60.1472 28.9875C60.3657 29.2257 60.488 29.5366 60.4902 29.8599C60.4924 30.1831 60.3744 30.4957 60.1592 30.7369C59.9439 30.9781 59.6467 31.1307 59.3253 31.1651C59.2969 31.1651 59.2696 31.1758 59.234 31.1805L51.0361 31.2113C50.8732 31.2112 50.7118 31.2431 50.5611 31.3053C50.4105 31.3675 50.2737 31.4588 50.1583 31.5739C50.043 31.689 49.9515 31.8257 49.8889 31.9762C49.8264 32.1267 49.7942 32.2881 49.794 32.451V38.0557C49.7953 38.3846 49.9266 38.6995 50.1594 38.9318C50.3921 39.1641 50.7073 39.2948 51.0361 39.2955H60.1976C61.2951 39.3397 62.3899 39.1562 63.4131 38.7564C64.4362 38.3567 65.3654 37.7494 66.1422 36.9728C66.9191 36.1962 67.5266 35.2671 67.9267 34.2441C68.3267 33.2211 68.5106 32.1264 68.4666 31.0288V7.58583C68.4669 7.42294 68.4351 7.2616 68.3729 7.11105C68.3107 6.9605 68.2194 6.82371 68.1042 6.70853C67.989 6.59335 67.8523 6.50204 67.7017 6.43985C67.5512 6.37766 67.391 6.34582 67.2281 6.34613Z" fill="#0C2756"/>
<path d="M13.4661 6.34915H1.21366C1.05408 6.34883 0.896015 6.37999 0.748497 6.44084C0.600979 6.50169 0.466913 6.59104 0.353966 6.70377C0.241019 6.81649 0.151406 6.95039 0.0902669 7.09779C0.0291281 7.24519 -0.00233508 7.40319 -0.00233477 7.56277V13.0514V13.0763V13.1628V38.0185C-0.0121836 38.3325 0.100573 38.638 0.312064 38.8702C0.523555 39.1025 0.817162 39.2434 1.13069 39.2629H6.8421C7.0058 39.2637 7.16804 39.2321 7.31944 39.1698C7.47085 39.1076 7.60842 39.0159 7.72423 38.9002C7.84004 38.7845 7.93178 38.6471 7.99417 38.4957C8.05657 38.3444 8.08836 38.1822 8.08774 38.0185L8.10788 29.4994H13.4697C14.4833 29.5487 15.4961 29.3853 16.4429 29.0199C17.3897 28.6544 18.2495 28.0949 18.9671 27.3773C19.6847 26.6596 20.2443 25.7998 20.6097 24.853C20.9752 23.9062 21.1385 22.8935 21.0892 21.8798V13.9734C21.1379 12.9597 20.9742 11.9469 20.6086 11.0001C20.243 10.0532 19.6835 9.19328 18.9661 8.47532C18.2487 7.75736 17.3892 7.19725 16.4427 6.8309C15.4961 6.46455 14.4835 6.30006 13.4697 6.34796M12.9778 16.614V20.076C12.9772 20.424 12.8386 20.7577 12.5925 21.0038C12.3464 21.25 12.0127 21.3885 11.6646 21.3891H8.10907V14.4558H11.6646C11.8371 14.4557 12.0079 14.4895 12.1673 14.5555C12.3267 14.6214 12.4716 14.7181 12.5935 14.8401C12.7155 14.9621 12.8122 15.1069 12.8782 15.2663C12.9441 15.4257 12.978 15.5965 12.9778 15.769V16.614Z" fill="#0C2756"/>
<path d="M35.342 6.37716H27.5672C27.2479 6.36691 26.9376 6.48344 26.704 6.7013C26.4703 6.91915 26.3324 7.22061 26.3204 7.53982V9.71701V9.74782V9.80827V12.7961C26.3327 13.1347 26.479 13.4546 26.727 13.6855C26.9749 13.9163 27.3044 14.0394 27.6431 14.0275H35.0481C35.3421 14.0662 35.6138 14.2053 35.8171 14.4213C36.0203 14.6372 36.1426 14.9169 36.1634 15.2127V15.9345C36.1423 16.2227 36.0225 16.4949 35.824 16.705C35.6256 16.915 35.3607 17.0502 35.0742 17.0877H31.4119C26.5337 17.0877 23.0564 20.3268 23.0564 24.8755V31.394C22.9982 32.4338 23.1618 33.474 23.5361 34.4457C23.9104 35.4175 24.487 36.2986 25.2277 37.0306C25.9683 37.7626 26.8561 38.3288 27.8322 38.6918C28.8082 39.0547 29.8503 39.206 30.8893 39.1357H41.0534C41.8999 39.1638 42.7229 38.8553 43.3423 38.2777C43.9617 37.7001 44.3268 36.9005 44.3577 36.0542V14.7908C44.3577 9.63168 41.6946 6.37716 35.342 6.37716ZM36.2368 29.7739V30.6486C36.2343 30.7175 36.226 30.7861 36.2119 30.8536C36.1997 30.9154 36.1835 30.9764 36.1634 31.0361C36.0666 31.2882 35.8945 31.5044 35.6706 31.6554C35.4467 31.8064 35.1818 31.8848 34.9118 31.88H32.5805C32.2424 31.8909 31.9137 31.7674 31.6663 31.5367C31.4189 31.3059 31.2729 30.9866 31.2602 30.6486V29.589V29.5618V26.7363V25.8498C31.2741 25.5125 31.4206 25.1944 31.6679 24.9647C31.9152 24.7349 32.2432 24.6122 32.5805 24.6231H34.9118C35.2509 24.6119 35.5806 24.7354 35.8289 24.9666C36.0772 25.1978 36.2239 25.5178 36.2368 25.8569V29.7739Z" fill="#0C2756"/>
<path d="M135.258 14.5255H136.451C137.89 14.6137 139.317 14.2168 140.503 13.3984C140.992 13.0055 141.38 12.5023 141.636 11.9301C141.892 11.3579 142.008 10.7331 141.975 10.1072C141.975 7.3753 140.227 5.99219 136.781 5.99219H133.084V19.6313H135.258V14.5231M135.258 7.96197H136.609C137.457 7.89601 138.305 8.09167 139.038 8.52256C139.283 8.71874 139.476 8.97197 139.6 9.26003C139.724 9.54808 139.775 9.86216 139.749 10.1747C139.783 10.5157 139.731 10.8598 139.599 11.1758C139.466 11.4918 139.257 11.7697 138.99 11.9845C138.164 12.4409 137.223 12.643 136.283 12.5652H135.259L135.258 7.96197Z" fill="#00B2F1"/>
<path d="M149.165 19.1274C149.863 18.7765 150.475 18.2755 150.957 17.6602L151.304 19.3277H153.012V10.5953C153.065 9.99347 152.992 9.38717 152.796 8.81555C152.601 8.24392 152.287 7.7197 151.876 7.27674C150.901 6.51274 149.675 6.14115 148.439 6.23496C147.68 6.23775 146.923 6.3357 146.188 6.52652C145.467 6.7118 144.77 6.98152 144.112 7.33008L143.981 7.40355L144.692 9.16L144.852 9.08178C145.925 8.50927 147.113 8.18523 148.328 8.13363C148.674 8.1014 149.024 8.14247 149.353 8.25417C149.683 8.36586 149.985 8.54568 150.241 8.78193C150.684 9.37871 150.895 10.1164 150.833 10.8572V11.4735L148.862 11.5339C144.714 11.6607 142.619 13.0569 142.619 15.6892C142.587 16.2181 142.67 16.7477 142.862 17.2415C143.054 17.7353 143.351 18.1818 143.732 18.5502C144.581 19.2577 145.667 19.6165 146.771 19.5541C147.591 19.5792 148.408 19.4327 149.168 19.1239M150.787 13.1564V14.1188C150.816 14.5967 150.745 15.0753 150.579 15.5242C150.412 15.9731 150.154 16.3824 149.821 16.7262C149.087 17.3762 148.126 17.7097 147.148 17.6542C146.56 17.6883 145.98 17.5122 145.511 17.1576C145.313 16.974 145.16 16.7485 145.061 16.4976C144.962 16.2468 144.921 15.977 144.941 15.7082C144.916 15.3528 144.989 14.9974 145.152 14.6806C145.315 14.3638 145.562 14.0978 145.865 13.9114C146.86 13.4273 147.959 13.1934 149.065 13.2299L150.787 13.1564Z" fill="#00B2F1"/>
<path d="M161.309 20.9623L166.704 6.66777L166.788 6.44259H164.39L164.35 6.54925C162.602 11.3848 161.553 14.317 161.24 15.2544C161.02 15.911 160.853 16.4278 160.736 16.813C160.544 16.0781 160.202 15.0352 159.71 13.7042L156.922 6.44141H154.522L159.654 19.2307L158.98 20.9564C158.837 21.5501 158.5 22.0789 158.022 22.4587C157.544 22.8384 156.952 23.0472 156.342 23.0518C155.88 23.0553 155.418 23.0104 154.966 22.9179L154.763 22.8728V24.7347L154.892 24.7655C155.469 24.8962 156.058 24.9618 156.649 24.9611C157.641 24.9887 158.61 24.6617 159.383 24.039C160.273 23.19 160.935 22.1301 161.306 20.9575" fill="#00B2F1"/>
<path d="M182.246 6.21196C181.374 6.19724 180.513 6.40096 179.74 6.80456C179.097 7.13901 178.551 7.63381 178.156 8.24101C177.78 7.55224 177.207 6.99124 176.51 6.62963C175.813 6.26802 175.025 6.1222 174.245 6.21078C173.456 6.1993 172.677 6.38293 171.977 6.7453C171.409 7.03973 170.921 7.46757 170.554 7.99211L170.273 6.44071H168.426V19.3296H170.653V12.574C170.553 11.384 170.832 10.193 171.448 9.17019C171.754 8.81795 172.139 8.54299 172.572 8.36773C173.004 8.19246 173.472 8.12183 173.937 8.1616C174.281 8.13197 174.628 8.17863 174.953 8.29826C175.277 8.41789 175.571 8.60755 175.814 8.85375C176.261 9.47449 176.473 10.233 176.415 10.9954V19.332H178.65V12.1521C178.566 11.0793 178.851 10.0098 179.459 9.1216C179.776 8.78393 180.165 8.52205 180.597 8.35544C181.029 8.18882 181.493 8.12176 181.955 8.15923C182.297 8.12965 182.642 8.17637 182.965 8.29605C183.288 8.41572 183.58 8.60538 183.82 8.85138C184.27 9.47054 184.485 10.2298 184.426 10.993V19.3296H186.659V10.974C186.768 9.67056 186.371 8.37504 185.552 7.35567C185.107 6.95048 184.584 6.64004 184.015 6.44323C183.446 6.24641 182.843 6.16733 182.243 6.21078" fill="#00B2F1"/>
<path d="M194.564 6.21106C193.777 6.18131 192.994 6.33241 192.275 6.65273C191.556 6.97306 190.92 7.45407 190.415 8.05877C189.335 9.46825 188.791 11.2165 188.882 12.9903C188.783 14.7523 189.378 16.4829 190.541 17.8105C191.128 18.4004 191.832 18.8606 192.608 19.1614C193.383 19.4621 194.214 19.5966 195.045 19.5562C195.786 19.5665 196.526 19.5022 197.254 19.3642C197.919 19.2164 198.569 19.004 199.193 18.7302L199.294 18.6851V16.6277L199.057 16.7284C197.813 17.2694 196.472 17.5517 195.116 17.558C194.589 17.5893 194.061 17.5082 193.568 17.3203C193.075 17.1323 192.627 16.8417 192.255 16.4676C191.543 15.6006 191.165 14.5077 191.188 13.3862H199.832V12.0173C199.898 10.487 199.391 8.98698 198.409 7.81105C197.924 7.27645 197.326 6.85535 196.659 6.5776C195.992 6.29986 195.272 6.17229 194.551 6.20395M192.239 9.06024C192.531 8.74894 192.887 8.5046 193.283 8.344C193.678 8.18339 194.104 8.11034 194.53 8.12987C194.935 8.10327 195.341 8.17013 195.716 8.3253C196.09 8.48046 196.425 8.71975 196.692 9.02469C197.219 9.74258 197.487 10.6179 197.452 11.5077H191.245C191.316 10.609 191.668 9.75537 192.25 9.06736L192.239 9.06024Z" fill="#00B2F1"/>
<path d="M208.846 6.21158C208.01 6.20044 207.182 6.38 206.426 6.73662C205.814 7.02754 205.282 7.46226 204.876 8.00359L204.597 6.44033H202.747V19.3292H204.98V12.5737C204.872 11.3723 205.181 10.1703 205.855 9.16981C206.213 8.80985 206.646 8.53295 207.123 8.35867C207.6 8.18439 208.109 8.11698 208.615 8.16122C208.989 8.12759 209.367 8.17287 209.722 8.29413C210.078 8.4154 210.405 8.60995 210.681 8.86522C211.165 9.48286 211.399 10.26 211.337 11.0424V19.3316H213.573V10.976C213.629 10.3226 213.552 9.66444 213.346 9.04187C213.139 8.4193 212.808 7.84541 212.372 7.35529C211.388 6.53104 210.123 6.12135 208.842 6.21277" fill="#00B2F1"/>
<path d="M222.317 17.582C222.003 17.6303 221.686 17.6549 221.369 17.6554C221.116 17.6691 220.864 17.6266 220.629 17.5311C220.395 17.4356 220.184 17.2895 220.013 17.1032C219.655 16.6384 219.479 16.0588 219.519 15.4735V8.25457H223.163V6.44479H219.519V3.53516H218.13L217.314 6.26108L215.489 7.06226V8.25457H217.286V15.5601C217.286 18.2113 218.564 19.5636 221.095 19.5636C221.467 19.5577 221.838 19.524 222.205 19.4629C222.533 19.4181 222.854 19.3313 223.16 19.2045L223.256 19.1559V17.3781L223.042 17.4409C222.804 17.5041 222.562 17.5532 222.318 17.5879" fill="#00B2F1"/>
<path d="M233.033 13.5481C232.136 12.7763 231.086 12.2042 229.951 11.8699C229.208 11.6108 228.482 11.3044 227.777 10.9525C227.476 10.8006 227.21 10.5875 226.996 10.3267C226.843 10.1014 226.765 9.83344 226.774 9.56112C226.771 9.35071 226.826 9.14364 226.935 8.96317C227.043 8.7827 227.199 8.63599 227.386 8.53949C227.987 8.23263 228.659 8.09419 229.332 8.1389C230.493 8.17517 231.635 8.43514 232.697 8.90453L232.846 8.96498L233.657 7.11727L233.501 7.05327C232.228 6.50358 230.857 6.2181 229.471 6.21415C228.232 6.1498 227.003 6.47021 225.953 7.13149C225.537 7.41384 225.198 7.79657 224.968 8.24437C224.738 8.69218 224.624 9.19066 224.638 9.69386C224.623 10.2385 224.753 10.7773 225.016 11.2548C225.308 11.7241 225.703 12.1208 226.172 12.415C226.97 12.8859 227.815 13.2732 228.694 13.5706C229.556 13.8569 230.375 14.2631 231.124 14.7771C231.302 14.9055 231.447 15.0741 231.547 15.2692C231.647 15.4643 231.699 15.6803 231.699 15.8995C231.714 16.1624 231.654 16.424 231.526 16.6545C231.399 16.8851 231.21 17.0752 230.98 17.2032C230.297 17.5419 229.538 17.6975 228.778 17.6548C228.115 17.65 227.455 17.5624 226.814 17.394C226.155 17.2298 225.516 16.9912 224.91 16.6829L224.665 16.5644V18.6977L224.752 18.7428C225.986 19.3452 227.353 19.6257 228.726 19.5582C230.054 19.6339 231.372 19.2897 232.493 18.5745C232.939 18.2526 233.298 17.8249 233.538 17.3298C233.778 16.8348 233.891 16.2879 233.867 15.7383C233.89 14.9271 233.592 14.1396 233.037 13.5469" fill="#00B2F1"/>
<path d="M140.507 32.6971C140.916 32.5222 141.281 32.2572 141.574 31.922C142.063 31.3266 142.319 30.5741 142.296 29.8041C142.331 29.277 142.23 28.7496 142.001 28.2732C141.773 27.7968 141.425 27.3876 140.992 27.0853C139.791 26.4409 138.431 26.153 137.071 26.2557H133.082V39.8853H137.934C139.187 39.9562 140.425 39.584 141.432 38.834C141.862 38.4712 142.203 38.0146 142.429 37.4993C142.655 36.984 142.76 36.4237 142.735 35.8616C142.771 35.1609 142.571 34.4685 142.168 33.8941C141.765 33.3198 141.182 32.8965 140.511 32.6912M140.455 35.7549C140.484 36.0619 140.439 36.3714 140.323 36.6572C140.207 36.9429 140.024 37.1965 139.789 37.3964C139.146 37.8015 138.39 37.9904 137.632 37.9357H135.262V33.7472H137.513C138.307 33.6901 139.1 33.8674 139.794 34.2569C140.022 34.4307 140.203 34.6601 140.318 34.9234C140.433 35.1866 140.479 35.4749 140.451 35.7608L140.455 35.7549ZM135.256 31.8071V28.2219H137.144C137.937 28.1647 138.732 28.315 139.45 28.658C139.662 28.7961 139.831 28.9895 139.941 29.2172C140.05 29.445 140.095 29.6984 140.071 29.9499C140.103 30.2149 140.069 30.4837 139.971 30.732C139.873 30.9803 139.715 31.2003 139.51 31.3721C138.866 31.7195 138.134 31.8719 137.404 31.8106L135.256 31.8071Z" fill="#00B2F1"/>
<path d="M150.035 26.5407C148.508 26.5507 147.007 26.9314 145.66 27.65L145.531 27.7164L146.242 29.4941L146.405 29.4136C147.49 28.8366 148.691 28.5102 149.92 28.4583C150.269 28.4258 150.621 28.467 150.953 28.5792C151.285 28.6915 151.59 28.8724 151.848 29.1101C152.297 29.714 152.51 30.4605 152.449 31.2103V31.8337L150.458 31.8977C146.269 32.0269 144.148 33.4384 144.148 36.0921C144.117 36.6266 144.201 37.1616 144.395 37.6607C144.589 38.1597 144.888 38.6111 145.273 38.9839C146.131 39.698 147.229 40.0601 148.344 39.9973C149.174 40.021 150 39.8733 150.771 39.5635C151.475 39.2093 152.092 38.7029 152.577 38.0808L152.933 39.7685H154.658V30.9424C154.711 30.3339 154.635 29.721 154.437 29.1433C154.239 28.5655 153.922 28.0355 153.507 27.5872C152.522 26.8162 151.284 26.442 150.036 26.5383M152.406 33.5309V34.5039C152.435 34.9863 152.364 35.4695 152.197 35.9229C152.029 36.3762 151.769 36.7898 151.433 37.1374C150.691 37.7957 149.718 38.1336 148.728 38.0773C148.131 38.1167 147.541 37.9372 147.068 37.5724C146.87 37.3874 146.716 37.1607 146.617 36.9088C146.517 36.6569 146.475 36.386 146.493 36.1158C146.468 35.7556 146.541 35.3953 146.706 35.0741C146.871 34.7529 147.121 34.4831 147.429 34.2941C148.431 33.804 149.539 33.5672 150.655 33.6044L152.406 33.5309Z" fill="#00B2F1"/>
<path d="M164.45 26.5184C163.604 26.5068 162.767 26.6888 162.002 27.0506C161.383 27.3419 160.846 27.7806 160.436 28.3282L160.153 26.7495H158.285V39.7712H160.537V32.9493C160.429 31.7339 160.741 30.5182 161.421 29.5051C161.783 29.1398 162.221 28.8589 162.704 28.6823C163.187 28.5057 163.704 28.4378 164.216 28.4835C164.594 28.45 164.975 28.4959 165.335 28.6183C165.695 28.7408 166.025 28.9371 166.304 29.1946C166.792 29.8209 167.028 30.6074 166.965 31.399V39.7724H169.217V31.3267C169.273 30.6676 169.196 30.0039 168.989 29.3756C168.782 28.7472 168.45 28.1672 168.013 27.6704C167.018 26.8395 165.739 26.427 164.446 26.5196" fill="#00B2F1"/>
<path d="M183.186 26.7492H180.449L176.301 31.1462C175.764 31.7471 175.335 32.2639 175.009 32.687C175.052 32.015 175.076 31.5018 175.076 31.1462V21.4277H172.837V39.7791H175.07V34.9412L176.319 33.8615L180.746 39.7791H183.488L177.87 32.3421L183.182 26.7575" fill="#00B2F1"/>
</g>
<defs>
<clipPath id="clip0_3396_48560">
<rect width="233.86" height="40" fill="white"/>
</clipPath>
</defs>
</svg>
