<svg width="16" height="16" viewBox="0 0 16 16" fill="none" xmlns="http://www.w3.org/2000/svg">
<g clip-path="url(#clip0_3396_62507)">
<g filter="url(#filter0_d_3396_62507)">
<g clip-path="url(#clip1_3396_62507)">
<path d="M0.25 8C0.25 3.71979 3.71979 0.25 8 0.25C12.2802 0.25 15.75 3.71979 15.75 8C15.75 12.2802 12.2802 15.75 8 15.75C3.71979 15.75 0.25 12.2802 0.25 8Z" fill="#A6C307"/>
<path d="M12.6376 6.42352L11.99 6.4233C11.9194 6.4233 11.8621 6.48055 11.8621 6.55119L11.862 6.64152H11.907C12.1994 6.64152 12.3081 6.68975 12.3081 6.95609V7.33472L12.6372 7.33484C12.7079 7.33487 12.7651 7.27766 12.7652 7.20702L12.7654 6.55145C12.7654 6.48082 12.7082 6.42356 12.6376 6.42352ZM9.10336 7.44134C9.07348 7.40382 9.01698 7.39863 8.96033 7.39863H8.91785C8.77669 7.39863 8.72132 7.44216 8.69008 7.57761L8.29784 9.20798C8.24889 9.40835 8.1801 9.44496 8.0624 9.44496C7.91827 9.44496 7.86057 9.41057 7.80312 9.20719L7.35886 7.57682C7.32209 7.44028 7.26785 7.39863 7.12665 7.39863H7.08883C7.03184 7.39863 6.97508 7.40389 6.94595 7.4419C6.91677 7.47994 6.92662 7.53674 6.94166 7.59257L7.39062 9.23708C7.47483 9.5518 7.57494 9.81232 7.94898 9.81232C8.01879 9.81232 8.08337 9.80262 8.13709 9.7845C8.02364 10.1413 7.90823 10.2986 7.56791 10.3336C7.49885 10.3394 7.45397 10.3492 7.42897 10.3828C7.40299 10.4176 7.40889 10.4674 7.41818 10.5118L7.42754 10.554C7.44784 10.6515 7.48246 10.712 7.59193 10.712C7.60343 10.712 7.6158 10.7114 7.62907 10.7102C8.13724 10.677 8.40952 10.4034 8.56884 9.76593L9.1125 7.5914C9.12539 7.53562 9.13317 7.47881 9.10336 7.44134ZM6.36883 8.69395V9.02307C6.36883 9.29136 6.26936 9.44669 5.76088 9.44669C5.42496 9.44669 5.26166 9.32512 5.26166 9.07506C5.26166 8.80082 5.42549 8.69395 5.84596 8.69395H6.36883ZM5.76088 7.32942C5.48368 7.32942 5.30997 7.3642 5.24407 7.37739C5.12742 7.40273 5.07862 7.43476 5.07862 7.56742V7.60524C5.07862 7.65723 5.08633 7.69324 5.10283 7.71858C5.12204 7.74809 5.15302 7.76305 5.1949 7.76305C5.21531 7.76305 5.23899 7.75963 5.26722 7.75256C5.33388 7.73591 5.54684 7.70147 5.7798 7.70147C6.1982 7.70147 6.36883 7.81737 6.36883 8.10146V8.35498H5.84122C5.16298 8.35498 4.84706 8.58376 4.84706 9.07506C4.84706 9.55158 5.17328 9.81401 5.76562 9.81401C6.46954 9.81401 6.78343 9.57447 6.78343 9.03724V8.10146C6.78343 7.58197 6.44897 7.32942 5.76088 7.32942ZM4.43125 7.6446C4.43125 8.03582 4.33136 8.24784 3.8044 8.24784H2.99323V7.23815C2.99323 7.09816 3.0453 7.04609 3.18529 7.04609H3.8044C4.20141 7.04609 4.43125 7.14405 4.43125 7.6446ZM3.8044 6.64096H3.10492C2.73114 6.64096 2.56445 6.80764 2.56445 7.18146V9.58229C2.56445 9.72668 2.6108 9.77303 2.75523 9.77303H2.80249C2.94688 9.77303 2.99323 9.72668 2.99323 9.58229V8.64823H3.8044C4.52459 8.64823 4.86003 8.3293 4.86003 7.6446C4.86003 6.95985 4.52459 6.64096 3.8044 6.64096ZM12.7006 5.74694L12.374 5.74683C12.3383 5.74679 12.3095 5.71792 12.3095 5.68228L12.3096 5.35158C12.3096 5.31594 12.3385 5.28711 12.3741 5.28711L12.7008 5.28722C12.7364 5.28722 12.7653 5.31613 12.7653 5.35173L12.7652 5.68243C12.7651 5.71807 12.7362 5.74694 12.7006 5.74694ZM13.3415 6.42394L12.8605 6.42375C12.8081 6.42375 12.7656 6.3812 12.7656 6.32875L12.7658 5.84186C12.7658 5.78938 12.8083 5.74686 12.8608 5.74686L13.3417 5.74705C13.3942 5.74705 13.4367 5.78961 13.4367 5.84205L13.4365 6.32898C13.4365 6.38142 13.394 6.42394 13.3415 6.42394ZM11.9897 7.33465C11.919 7.33465 11.8618 7.27739 11.8618 7.20676L11.862 6.64152H11.8149C11.5225 6.64152 11.4137 6.68979 11.4137 6.95613V7.57937C11.4137 7.58069 11.4136 7.582 11.4136 7.58332V7.71993C11.4135 7.72467 11.4132 7.72907 11.4132 7.73395V8.60478C11.4132 8.71113 11.3927 8.79582 11.3504 8.86161C11.2707 8.98446 11.1128 9.04028 10.8603 9.04062C10.6078 9.04028 10.45 8.9845 10.3703 8.86176C10.3279 8.79594 10.3074 8.7112 10.3074 8.60478V7.73395C10.3074 7.72907 10.3071 7.72467 10.307 7.71993V7.58332C10.307 7.582 10.3069 7.58069 10.3068 7.57937V6.95613C10.3068 6.68979 10.1981 6.64152 9.9057 6.64152H9.81363C9.5212 6.64152 9.41249 6.68979 9.41249 6.95613V8.60478C9.41249 8.86999 9.47229 9.09453 9.58785 9.27554C9.81104 9.62627 10.2434 9.81307 10.858 9.81307C10.8588 9.81307 10.8595 9.81303 10.8603 9.81303C10.8611 9.81303 10.8618 9.81307 10.8626 9.81307C11.4772 9.81307 11.9096 9.62627 12.1327 9.27554C12.2483 9.09453 12.3081 8.86999 12.3081 8.60478V7.33472L11.9897 7.33465Z" fill="white"/>
</g>
</g>
</g>
<defs>
<filter id="filter0_d_3396_62507" x="-5.75" y="-4.75" width="27.5" height="27.5" filterUnits="userSpaceOnUse" color-interpolation-filters="sRGB">
<feFlood flood-opacity="0" result="BackgroundImageFix"/>
<feColorMatrix in="SourceAlpha" type="matrix" values="0 0 0 0 0 0 0 0 0 0 0 0 0 0 0 0 0 0 127 0" result="hardAlpha"/>
<feOffset dy="1"/>
<feGaussianBlur stdDeviation="3"/>
<feComposite in2="hardAlpha" operator="out"/>
<feColorMatrix type="matrix" values="0 0 0 0 0 0 0 0 0 0 0 0 0 0 0 0 0 0 0.08 0"/>
<feBlend mode="normal" in2="BackgroundImageFix" result="effect1_dropShadow_3396_62507"/>
<feBlend mode="normal" in="SourceGraphic" in2="effect1_dropShadow_3396_62507" result="shape"/>
</filter>
<clipPath id="clip0_3396_62507">
<rect width="16" height="16" fill="white"/>
</clipPath>
<clipPath id="clip1_3396_62507">
<path d="M0.25 8C0.25 3.71979 3.71979 0.25 8 0.25C12.2802 0.25 15.75 3.71979 15.75 8C15.75 12.2802 12.2802 15.75 8 15.75C3.71979 15.75 0.25 12.2802 0.25 8Z" fill="white"/>
</clipPath>
</defs>
</svg>
