<svg width="24" height="24" viewBox="0 0 24 24" fill="none" xmlns="http://www.w3.org/2000/svg">
<g clip-path="url(#clip0_3396_51732)">
<g filter="url(#filter0_d_3396_51732)">
<path d="M11.7895 21.5789C17.196 21.5789 21.5789 17.196 21.5789 11.7895C21.5789 6.38291 17.196 2 11.7895 2C6.38291 2 2 6.38291 2 11.7895C2 17.196 6.38291 21.5789 11.7895 21.5789Z" fill="white"/>
</g>
<mask id="mask0_3396_51732" style="mask-type:luminance" maskUnits="userSpaceOnUse" x="5" y="5" width="14" height="13">
<path d="M18.6323 5.58594H5.36914V17.3754H18.6323V5.58594Z" fill="white"/>
</mask>
<g mask="url(#mask0_3396_51732)">
<path d="M17.1649 8.10212C16.7141 6.75043 15.2093 6.00437 13.8018 6.44139C12.9813 6.69424 12.3391 7.31545 12.0732 8.10525C12.0148 8.27695 11.9791 8.45487 11.9597 8.6328L11.9499 8.76705L11.9467 8.90126V9.16035L11.9499 10.7555V11.4548L11.9532 13.3247V13.846C11.9564 14.3548 11.7943 14.8512 11.4862 15.2632C10.8538 16.1092 9.72514 16.4682 8.69383 16.156C8.44411 16.0779 8.20736 15.9656 7.99332 15.8189L7.99007 15.8158C7.95763 15.7939 7.9252 15.772 7.89602 15.7471L7.87657 15.7315C7.84736 15.7096 7.82143 15.6877 7.79548 15.6659L7.7663 15.6409L7.71441 15.5941C7.69818 15.5785 7.67873 15.5629 7.66253 15.5442C7.6463 15.5254 7.63657 15.5192 7.62359 15.5036C7.61061 15.488 7.59441 15.4724 7.57818 15.4568C7.56198 15.4411 7.54575 15.4224 7.52955 15.4037L7.49712 15.3662C7.47766 15.3444 7.46143 15.3225 7.44198 15.2975C7.43225 15.2851 7.42253 15.2726 7.41602 15.2632C7.39982 15.2445 7.38684 15.2226 7.37064 15.2008C7.36092 15.1852 7.35116 15.1696 7.34143 15.1571C7.33171 15.1415 7.31551 15.1196 7.30253 15.0977L7.27657 15.0541C7.26362 15.0322 7.25064 15.0103 7.23766 14.9885L7.21171 14.9386C7.20523 14.9292 7.20198 14.9198 7.19551 14.9073C7.17928 14.873 7.15982 14.8387 7.14362 14.8012C7.01064 14.5015 6.94253 14.18 6.94253 13.8522C6.94903 12.8033 7.65602 11.8793 8.69383 11.564C8.86247 11.5141 9.03435 11.4797 9.20949 11.4641L9.33921 11.4548L9.47219 11.4517H9.74137L11.6581 11.4548V10.7899C11.0451 10.8273 10.3543 10.8679 9.74137 10.9116L9.47219 10.9335L9.31651 10.946L9.16085 10.9678C8.31763 11.102 7.58469 11.5921 7.16308 12.307C6.86469 12.7784 6.70578 13.3184 6.70903 13.871C6.70903 14.7263 7.07225 15.4911 7.64955 16.0124C7.66575 16.0249 7.67873 16.0405 7.69496 16.053C7.69818 16.053 7.69818 16.0561 7.70143 16.0561C7.95116 16.2777 8.23979 16.4557 8.55763 16.5774C8.95003 16.7304 9.3749 16.8022 9.79651 16.7835C10.2311 16.7647 10.6592 16.6555 11.0451 16.465C11.4408 16.2715 11.791 15.9937 12.0667 15.6597C12.3521 15.3163 12.5564 14.9198 12.6634 14.4953C12.6764 14.4422 12.6894 14.3891 12.6991 14.333C12.7088 14.2799 12.7186 14.2237 12.7283 14.1706C12.738 14.1175 12.7413 14.0614 12.7477 14.0052L12.7575 13.8429C12.7672 13.6712 12.7737 13.4964 12.7834 13.3215L12.8288 12.282C12.8418 12.0073 12.8483 11.7295 12.858 11.4548L12.884 10.7149C12.884 10.7118 12.884 10.7087 12.884 10.7056C12.9002 10.1905 12.9099 9.67543 12.9229 9.16035L12.9294 8.90126L12.9359 8.81386L12.9456 8.72957C12.991 8.39242 13.1434 8.07715 13.3834 7.83053C13.5423 7.66507 13.7304 7.53396 13.9445 7.44346C14.3726 7.2655 14.8591 7.2655 15.2871 7.44346C15.7152 7.62763 16.0493 7.97101 16.2049 8.39869C16.2439 8.50482 16.2698 8.61406 16.286 8.72644C16.299 8.83884 16.3022 8.95434 16.2958 9.06672C16.2795 9.2946 16.2147 9.51934 16.1012 9.72227C15.9877 9.92828 15.8287 10.1125 15.6406 10.2592C15.446 10.409 15.2223 10.5151 14.9823 10.5745L14.8915 10.5963L14.7974 10.6119L14.7034 10.6244L14.6061 10.6307L14.0645 10.6525C13.8212 10.665 13.4288 10.6775 13.1856 10.6868L13.1596 11.4517H14.0677H14.6093C16.0849 11.4579 17.2849 10.3154 17.2946 8.89503C17.2946 8.62967 17.2525 8.36121 17.1649 8.10212Z" fill="#ED7016"/>
</g>
</g>
<defs>
<filter id="filter0_d_3396_51732" x="-4.2" y="-3.16667" width="31.9791" height="31.9789" filterUnits="userSpaceOnUse" color-interpolation-filters="sRGB">
<feFlood flood-opacity="0" result="BackgroundImageFix"/>
<feColorMatrix in="SourceAlpha" type="matrix" values="0 0 0 0 0 0 0 0 0 0 0 0 0 0 0 0 0 0 127 0" result="hardAlpha"/>
<feOffset dy="1.03333"/>
<feGaussianBlur stdDeviation="3.1"/>
<feComposite in2="hardAlpha" operator="out"/>
<feColorMatrix type="matrix" values="0 0 0 0 0 0 0 0 0 0 0 0 0 0 0 0 0 0 0.08 0"/>
<feBlend mode="normal" in2="BackgroundImageFix" result="effect1_dropShadow_3396_51732"/>
<feBlend mode="normal" in="SourceGraphic" in2="effect1_dropShadow_3396_51732" result="shape"/>
</filter>
<clipPath id="clip0_3396_51732">
<rect width="24" height="23.5789" fill="white"/>
</clipPath>
</defs>
</svg>
