<svg width="24" height="24" viewBox="0 0 24 24" fill="none" xmlns="http://www.w3.org/2000/svg">
<g clip-path="url(#clip0_3396_70197)">
<g clip-path="url(#clip1_3396_70197)">
<circle cx="12" cy="12" r="12" fill="#102647"/>
<path d="M14.4416 5.10476C14.4932 5.12148 14.5448 5.1382 14.598 5.15542C16.6107 5.83328 18.1219 7.31273 19.0816 9.18476C19.2337 9.51508 19.3216 9.77483 19.3216 10.1448C15.5059 9.30725 15.5059 9.30725 14.3027 8.50273C13.9118 8.24816 13.5046 8.01956 13.1016 7.78476C13.0195 7.7358 12.9374 7.68684 12.8528 7.6364C12.7753 7.59048 12.6977 7.54457 12.6178 7.49726C12.549 7.45627 12.4803 7.41527 12.4094 7.37304C12.0387 7.17996 11.6615 7.08474 11.2516 7.01476C11.1742 7.00135 11.0969 6.98794 11.0172 6.97413C10.9592 6.96444 10.9013 6.95474 10.8416 6.94476C10.8161 7.5548 10.8161 7.5548 11.0666 8.08757C11.2381 8.23564 11.2381 8.23564 11.4166 8.36038C11.5616 8.46476 11.5616 8.46476 11.6416 8.62476C11.272 8.62476 10.9024 8.62476 10.5216 8.62476C11.0822 9.38028 11.5453 9.8422 12.4925 9.9977C12.6969 10.0265 12.9015 10.0506 13.1066 10.0748C13.2493 10.0953 13.392 10.1164 13.5346 10.1379C13.8809 10.1893 14.2277 10.236 14.575 10.2806C15.008 10.3366 15.44 10.3984 15.8716 10.4648C15.9472 10.4763 16.0229 10.4878 16.1009 10.4997C16.6536 10.5949 17.0942 10.7557 17.4816 11.1848C17.4816 11.2112 17.4816 11.2376 17.4816 11.2648C16.7424 11.2912 16.0032 11.3176 15.2416 11.3448C15.1624 11.688 15.0832 12.0312 15.0016 12.3848C14.9388 12.611 14.8751 12.8354 14.8066 13.0598C14.7749 13.1646 14.7434 13.2695 14.7119 13.3744C14.6934 13.431 14.6749 13.4876 14.6559 13.5459C14.5948 13.7517 14.5948 13.7517 14.5686 13.998C14.431 14.7861 14.079 15.1146 13.4455 15.5666C13.2411 15.7059 13.0344 15.8407 12.8266 15.9748C12.7567 16.0212 12.6869 16.0677 12.6149 16.1155C11.5787 16.7984 10.7583 17.2026 9.48937 17.0179C9.37973 16.9952 9.27026 16.9715 9.16155 16.9448C9.26168 16.6256 9.37882 16.3322 9.53155 16.0348C9.56723 15.9648 9.60291 15.8949 9.63968 15.8229C9.6667 15.7707 9.69372 15.7185 9.72155 15.6648C9.31603 15.79 9.03278 16.0387 8.71155 16.3048C8.60558 16.3915 8.49954 16.4782 8.39343 16.5648C8.34696 16.6031 8.30049 16.6415 8.25261 16.681C7.94816 16.922 7.78517 16.9618 7.40155 16.9448C7.92254 16.0847 8.50348 15.2462 9.13257 14.4613C9.40731 14.0667 9.33101 13.461 9.33655 12.9948C9.3376 12.9376 9.33865 12.8804 9.33974 12.8216C9.33996 12.6758 9.33137 12.5302 9.32155 12.3848C9.24235 12.3056 9.24235 12.3056 9.16155 12.2248C9.14309 12.3062 9.12463 12.3877 9.10562 12.4716C9.05072 12.7121 8.99339 12.952 8.93499 13.1916C8.8739 13.4429 8.81956 13.694 8.77062 13.9479C8.56804 14.9072 8.12091 15.5222 7.45882 16.2344C7.28049 16.4297 7.11447 16.6344 6.94915 16.8408C6.84155 16.9448 6.84155 16.9448 6.61155 16.9798C6.55545 16.9682 6.49935 16.9567 6.44155 16.9448C6.61794 16.6202 6.80394 16.3281 7.02812 16.0344C7.37236 15.545 7.54861 15.0255 7.73155 14.4598C7.76588 14.3567 7.80031 14.2536 7.83481 14.1506C8.05587 13.4862 8.26527 12.8183 8.45437 12.1441C8.49954 11.9832 8.54869 11.8233 8.60155 11.6648C8.33956 11.8394 8.32181 11.878 8.23249 12.1616C8.21016 12.2283 8.18784 12.2949 8.16483 12.3635C8.11958 12.5035 8.07499 12.6437 8.03108 12.7841C8.00845 12.851 7.98581 12.9178 7.96249 12.9866C7.94307 13.0476 7.92365 13.1086 7.90364 13.1714C7.80155 13.3448 7.80155 13.3448 7.56667 13.4956C7.27449 13.6972 7.20741 13.8425 7.07874 14.1698C7.05906 14.2185 7.03938 14.2673 7.0191 14.3175C6.95682 14.4727 6.89665 14.6287 6.83655 14.7848C6.79602 14.887 6.75534 14.9892 6.71452 15.0913C6.63461 15.2917 6.55545 15.4923 6.47683 15.6932C6.31091 16.1128 6.13696 16.529 5.96155 16.9448C5.65493 16.6529 5.47584 16.3615 5.28155 15.9898C5.24989 15.9294 5.21822 15.869 5.1856 15.8067C4.37612 14.2213 4.13298 12.156 4.57655 10.4248C4.63431 10.2501 4.6957 10.0765 4.76155 9.90476C4.7896 9.8238 4.81765 9.74285 4.84655 9.65944C5.22634 8.64799 5.85452 7.79549 6.60155 7.02476C6.64363 6.9768 6.6857 6.92885 6.72905 6.87944C8.5828 4.84127 11.9025 4.2805 14.4416 5.10476Z" fill="#FAFAFB"/>
<path d="M16.4518 6.6497C17.4282 7.40816 18.1366 8.27498 18.6018 9.4247C18.035 9.31964 17.4818 9.18476 16.9268 9.0297C16.8538 9.00954 16.7809 8.98938 16.7057 8.96861C16.558 8.9278 16.4104 8.88659 16.263 8.845C16.1168 8.80514 15.9699 8.76786 15.8223 8.73332C15.2414 8.59293 14.7692 8.35336 14.2568 8.0497C14.176 8.00335 14.0952 7.95701 14.012 7.90925C13.6742 7.71489 13.3389 7.51873 13.0127 7.30533C12.2292 6.808 11.4315 6.67284 10.5218 6.5447C10.4989 6.61605 10.4989 6.61605 10.4756 6.68884C10.262 7.34453 10.262 7.34453 10.1018 7.6447C10.0733 7.70039 10.0449 7.75608 10.0155 7.81345C9.88179 7.9847 9.88179 7.9847 9.61273 8.14064C9.11044 8.48237 9.01054 9.1676 8.83507 9.71673C8.59398 10.4132 8.59398 10.4132 8.3629 10.5781C8.25165 10.6246 8.13937 10.6688 8.02611 10.7102C7.84057 10.806 7.80452 10.8875 7.72835 11.0797C7.69217 11.194 7.65841 11.3091 7.62679 11.4247C7.58826 11.5483 7.54951 11.6719 7.51054 11.7953C7.49223 11.8555 7.47393 11.9156 7.45507 11.9776C7.3854 12.1961 7.29847 12.4046 7.20679 12.6147C6.9519 13.2111 6.7352 13.8213 6.51304 14.4304C6.39924 14.7408 6.28313 15.0503 6.16679 15.3597C6.14607 15.4148 6.12535 15.47 6.104 15.5268C6.05663 15.6528 6.00922 15.7787 5.96179 15.9047C4.92426 14.5586 4.83198 12.6399 5.03585 11.0094C5.38079 9.18313 6.51721 7.53778 8.02116 6.4697C10.6461 4.80789 13.9081 4.80293 16.4518 6.6497Z" fill="#102647"/>
<path d="M6.28125 17.2646C10.1357 17.2646 13.9901 17.2646 17.9613 17.2646C17.0012 18.3847 16.0541 19.0618 14.6813 19.5846C14.5826 19.6227 14.5826 19.6227 14.4819 19.6615C13.705 19.9408 12.917 20.0141 12.0963 20.0096C11.9642 20.009 11.9642 20.009 11.8296 20.0083C11.1752 19.9985 10.5882 19.9443 9.96125 19.7446C9.91072 19.7288 9.86019 19.7129 9.80813 19.6965C8.78085 19.3655 7.90781 18.8644 7.07625 18.1746C7.03333 18.1392 6.99041 18.1038 6.94619 18.0672C6.65286 17.8146 6.50591 17.6016 6.28125 17.2646Z" fill="#FAFBFB"/>
<path d="M18.6016 12.7051C18.8618 12.752 19.1002 12.8141 19.3466 12.9101C19.4439 12.948 19.5413 12.986 19.6416 13.0251C19.6179 14.2826 19.2156 15.3799 18.6016 16.4651C18.5608 16.5542 18.5201 16.6433 18.4781 16.7351C18.2503 16.9784 18.2019 16.9783 17.8828 16.992C17.729 16.9888 17.5752 16.9831 17.4216 16.9751C17.3429 16.9729 17.2642 16.9707 17.1831 16.9685C16.9891 16.9629 16.7954 16.955 16.6016 16.9451C16.7134 16.6394 16.8558 16.3795 17.0312 16.1057C17.1101 15.9815 17.1101 15.9815 17.1905 15.8548C17.3008 15.6822 17.4112 15.5097 17.5217 15.3373C17.9338 14.6874 18.207 14.0889 18.4166 13.3501C18.4346 13.2877 18.4526 13.2254 18.4711 13.1612C18.5149 13.0092 18.5583 12.8572 18.6016 12.7051Z" fill="#F9FAFB"/>
<path d="M17.3219 12.2246C17.4353 12.261 17.5486 12.2977 17.6619 12.3346C17.725 12.355 17.7881 12.3754 17.8531 12.3965C18.0312 12.4607 18.1946 12.5364 18.3619 12.6246C17.7481 14.2749 17.7481 14.2749 17.1619 14.7846C17.1091 14.7846 17.0563 14.7846 17.0019 14.7846C16.9697 14.8711 16.9697 14.8711 16.9369 14.9594C16.8418 15.1849 16.7309 15.3808 16.6016 15.5884C16.5325 15.6996 16.5325 15.6996 16.462 15.813C16.4141 15.8895 16.3662 15.9659 16.3169 16.0446C16.2687 16.1223 16.2205 16.1999 16.1708 16.2799C15.8141 16.8524 15.8141 16.8524 15.7219 16.9446C15.587 16.9504 15.4519 16.9513 15.3169 16.9496C15.2433 16.9489 15.1698 16.9482 15.0941 16.9474C15.0372 16.9465 14.9804 16.9456 14.9219 16.9446C15.0457 16.6131 15.2009 16.3038 15.3719 15.9946C15.4085 15.9242 15.4085 15.9242 15.4459 15.8524C15.6081 15.5608 15.7647 15.3858 16.0341 15.188C16.5172 14.786 16.6516 14.1774 16.8369 13.5996C16.8755 13.484 16.9143 13.3684 16.9533 13.2529C17.0241 13.0428 17.0936 12.8324 17.1622 12.6215C17.2419 12.3846 17.2419 12.3846 17.3219 12.2246Z" fill="#F7F8F9"/>
<path d="M15.8016 11.584C16.224 11.7424 16.6464 11.9008 17.0816 12.064C16.9435 12.4782 16.7921 12.8243 16.5866 13.204C16.5577 13.2615 16.5287 13.3191 16.4989 13.3784C16.2769 13.7864 16.2769 13.7864 16.0527 13.8982C15.8975 13.9427 15.8975 13.9427 15.6416 13.984C15.6483 13.9078 15.655 13.8316 15.6619 13.753C15.6701 13.6527 15.6782 13.5524 15.6866 13.449C15.695 13.3497 15.7033 13.2504 15.7119 13.148C15.7323 12.8751 15.7323 12.8751 15.6791 12.6565C15.6086 12.2944 15.7286 11.9405 15.8016 11.584Z" fill="#F6F7F8"/>
<path d="M15.2414 14.5449C15.2942 14.5449 15.347 14.5449 15.4014 14.5449C15.5034 14.9451 15.4633 15.1347 15.2617 15.4918C15.2145 15.5769 15.1673 15.662 15.1187 15.7496C15.0684 15.8372 15.0182 15.9247 14.9664 16.0149C14.9164 16.1043 14.8664 16.1937 14.815 16.2859C14.6916 16.5062 14.5666 16.7257 14.4414 16.9449C14.0982 16.9449 13.755 16.9449 13.4014 16.9449C13.5271 16.6935 13.6268 16.5308 13.8023 16.3215C13.8495 16.2648 13.8967 16.208 13.9454 16.1496C14.0201 16.0607 14.0201 16.0607 14.0964 15.9699C14.456 15.539 14.8105 15.1074 15.1426 14.6546C15.1752 14.6184 15.2078 14.5822 15.2414 14.5449Z" fill="#F4F5F7"/>
</g>
</g>
<defs>
<clipPath id="clip0_3396_70197">
<rect width="24" height="24" fill="white"/>
</clipPath>
<clipPath id="clip1_3396_70197">
<rect width="24" height="24" fill="white"/>
</clipPath>
</defs>
</svg>
