<svg width="20" height="20" viewBox="0 0 20 20" fill="none" xmlns="http://www.w3.org/2000/svg">
<g clip-path="url(#clip0_3396_54544)">
<path d="M20 10C20 4.47715 15.5228 0 10 0C4.47715 0 0 4.47715 0 10C0 15.5228 4.47715 20 10 20C15.5228 20 20 15.5228 20 10Z" fill="white"/>
<path fill-rule="evenodd" clip-rule="evenodd" d="M17.7355 11.5698C17.7422 11.5577 17.7382 11.5364 17.7274 11.5283C13.2553 8.42296 7.08601 8.33736 2.39583 11.1111C2.38246 11.1285 2.3838 11.1606 2.40252 11.1726C2.49213 11.1686 2.56969 11.1846 2.66197 11.1031C2.73419 10.9934 2.82246 10.9827 2.9134 11.0054C2.92276 11.0322 2.92008 11.0616 2.90403 11.0803C2.85455 11.099 2.80908 11.0549 2.7596 11.0883C2.71948 11.1552 2.62452 11.1659 2.56033 11.202C2.52021 11.2328 2.47875 11.2635 2.43729 11.2943C2.41322 11.2823 2.37845 11.2769 2.34902 11.2903C2.30356 11.3103 2.26477 11.3505 2.2621 11.3933C2.30356 11.4053 2.33833 11.3451 2.36909 11.3786C2.36507 11.412 2.2728 11.4146 2.27681 11.4575C2.28751 11.4855 2.33967 11.4454 2.35973 11.4641C2.37444 11.4789 2.33565 11.5243 2.35973 11.5377C2.36909 11.5444 2.39985 11.5511 2.42124 11.535C2.46137 11.5283 2.47207 11.4775 2.5162 11.4655C2.55632 11.4628 2.59377 11.4695 2.63389 11.4561C2.61917 11.42 2.6486 11.412 2.65261 11.3906C2.81844 11.3892 2.73152 11.2956 2.91607 11.2355C2.9816 11.2034 3.08057 11.2742 3.10732 11.1445C3.28385 11.2101 3.30526 11.0576 3.42426 11.0228C3.51788 11.1164 3.55267 10.9867 3.59679 11.0415C3.59679 11.0857 3.5687 11.1151 3.48045 11.1231C3.41626 11.1285 3.24907 11.2074 3.13807 11.3237C3.01905 11.3224 2.96555 11.3344 2.98428 11.3973C3.08057 11.5029 3.14876 11.3571 3.23035 11.3357C3.32932 11.3277 3.37479 11.2181 3.45504 11.1953C3.50854 11.186 3.51923 11.2782 3.57273 11.2542C3.64092 11.2381 3.61151 11.19 3.6436 11.1605C3.66632 11.1391 3.72517 11.1539 3.7506 11.1178C3.78804 11.0656 3.85223 11.0616 3.87763 11.0723C3.90573 11.1258 3.79204 11.1231 3.73988 11.2328C3.69042 11.3036 3.57807 11.3451 3.59145 11.3786C3.60213 11.4 3.62354 11.3933 3.65298 11.3825C3.69576 11.3665 3.76263 11.3237 3.81745 11.2622C3.87763 11.1793 3.96457 11.1686 4.01004 11.1271C4.0582 11.0843 4.05951 11.0362 4.07557 11.0348C4.08895 11.0335 4.10767 11.0268 4.1157 11.0763C4.1197 11.1017 4.17185 11.0736 4.19192 11.0897C4.20663 11.1004 4.19995 11.1525 4.1692 11.19C4.14645 11.2167 4.05282 11.1672 4.01138 11.1993C3.93382 11.2595 3.92176 11.3545 3.79738 11.4106C3.77332 11.4213 3.6476 11.5029 3.7506 11.5056C3.7586 11.5056 3.76398 11.4735 3.78938 11.4628C3.81479 11.4534 3.85357 11.4789 3.88835 11.4387C3.9472 11.3692 4.00067 11.3959 4.01538 11.3892C4.03948 11.3772 4.01273 11.2996 4.05417 11.2876C4.10232 11.2729 4.17988 11.198 4.18926 11.2649C4.19057 11.2782 4.14379 11.3411 4.17854 11.3411C4.2521 11.3411 4.30426 11.2983 4.36445 11.3036C4.40054 11.3063 4.3591 11.2341 4.39654 11.2261C4.43667 11.2167 4.48079 11.2568 4.5276 11.2488C4.58245 11.2395 4.58245 11.1458 4.6426 11.1338C4.6961 11.1231 4.67738 11.1846 4.73892 11.1806C4.80176 11.1766 4.86195 11.1084 4.9422 11.1178C5.05585 11.1311 5.06123 11.0883 5.1321 11.0362C5.18426 10.9987 5.19495 11.0616 5.26582 11.0201C5.37013 10.9573 5.33673 11.0482 5.41295 11.0335C5.43567 11.0295 5.40092 10.9733 5.43835 10.964C5.47445 10.9559 5.48248 11.0201 5.6082 10.8891C5.69648 10.8155 5.66838 10.9345 5.74729 10.9319C5.78338 10.9319 5.76467 10.8449 5.81013 10.8289C5.8797 10.8035 5.88101 10.8931 5.93585 10.8864C5.98935 10.8797 5.9987 10.8262 6.0482 10.8476C6.1057 10.873 6.08832 10.758 6.18326 10.7874C6.29026 10.8222 6.2916 10.7353 6.36648 10.7152C6.41598 10.7018 6.40395 10.766 6.44404 10.7687C6.49623 10.7714 6.47213 10.7112 6.55238 10.7072C6.58717 10.7058 6.55907 10.6764 6.59251 10.6617C6.62326 10.6483 6.66607 10.6818 6.71954 10.6737C6.75167 10.6684 6.76635 10.6296 6.79845 10.6136C6.83323 10.5975 6.8787 10.6203 6.90545 10.6109C6.9536 10.5922 6.91748 10.6657 6.9576 10.6631C7.00576 10.6604 7.03251 10.5641 7.06995 10.5561C7.12479 10.5454 7.07529 10.643 7.1261 10.643C7.16488 10.643 7.2291 10.5534 7.26385 10.536C7.28126 10.528 7.31335 10.5467 7.33607 10.5454C7.35748 10.5454 7.3722 10.528 7.38823 10.536C7.40963 10.5467 7.41098 10.5654 7.43238 10.5654C7.47785 10.5654 7.47917 10.4932 7.51798 10.4932C7.55676 10.4932 7.52467 10.5828 7.58885 10.5855C7.66107 10.5881 7.67845 10.536 7.73998 10.5226C7.76538 10.5173 7.83357 10.4691 7.85901 10.4838C7.88038 10.4959 7.87504 10.5627 7.89645 10.5587C7.93657 10.5507 7.93388 10.4558 7.96867 10.4504C7.98204 10.4491 8.02617 10.4317 8.04892 10.4531C8.07163 10.4731 8.01948 10.528 8.08501 10.528C8.16926 10.528 8.14385 10.4371 8.31904 10.4036C8.35517 10.3969 8.41267 10.3849 8.46213 10.3849C8.49557 10.3849 8.52767 10.3956 8.54238 10.3942C8.6146 10.3889 8.72295 10.3193 8.72829 10.3621C8.73363 10.4063 8.52098 10.4397 8.54907 10.4946C8.58251 10.5587 8.72295 10.4143 8.79382 10.4076C8.9396 10.3702 8.90482 10.4611 9.03188 10.4491C9.19635 10.433 9.17363 10.2913 9.27126 10.2752C9.38495 10.2592 9.26592 10.3474 9.35282 10.3675C9.51467 10.425 9.59757 10.2993 9.75673 10.306C9.81823 10.2872 9.88376 10.2498 9.93995 10.2511C9.97604 10.2846 9.90382 10.3421 10.0015 10.3501C10.0616 10.3434 10.1365 10.3461 10.1807 10.318C10.2061 10.2538 10.2475 10.2043 10.3144 10.2016C10.4227 10.1722 10.4187 10.2431 10.3826 10.2765C10.3532 10.3046 10.3425 10.326 10.3853 10.3555C10.4201 10.3555 10.4414 10.2993 10.4669 10.3033C10.4909 10.3033 10.4909 10.3421 10.5324 10.3555C10.5886 10.3501 10.5792 10.2498 10.6715 10.3287C10.6996 10.3528 10.7277 10.2953 10.7624 10.302C10.7905 10.3073 10.8387 10.298 10.8587 10.3207C10.8788 10.3448 10.8253 10.3982 10.8922 10.4063C10.9283 10.4076 10.9243 10.3541 10.9523 10.3274C10.9697 10.3113 10.9844 10.3127 10.9951 10.2872C11.0032 10.2578 10.8814 10.1976 11.0379 10.1508C11.1784 10.1455 11.062 10.2217 11.1409 10.2672C11.2051 10.2779 11.2894 10.203 11.2907 10.2993C11.2907 10.3381 11.181 10.326 11.1971 10.3795C11.2399 10.421 11.3174 10.3247 11.4445 10.31C11.4833 10.3046 11.514 10.298 11.5247 10.318C11.5274 10.3635 11.4766 10.3555 11.4806 10.3929C11.4953 10.4196 11.5381 10.3982 11.5689 10.3982C11.5969 10.3956 11.5983 10.3782 11.6009 10.3501C11.5876 10.3153 11.7294 10.3661 11.8925 10.3528C11.9313 10.3488 11.958 10.3769 11.9848 10.3795C12.0757 10.3889 12.1867 10.3127 12.2469 10.3889C12.2683 10.4237 12.6307 10.3795 12.6294 10.4344C12.6561 10.4932 12.4903 10.4758 12.4261 10.4972C12.3806 10.5066 12.3352 10.5213 12.3699 10.5668C12.3833 10.5881 12.4127 10.5868 12.4462 10.5841C12.4997 10.5119 12.6147 10.5614 12.6909 10.5253C12.7204 10.4959 12.7417 10.4411 12.8287 10.4477C12.8768 10.4477 12.8942 10.4705 12.9076 10.4946C12.9838 10.5052 13.1082 10.4531 13.1483 10.5788C13.1884 10.5681 13.2566 10.4865 13.3101 10.6002C13.4037 10.5467 13.5468 10.5855 13.5923 10.6524C13.702 10.6684 13.7943 10.6497 13.8999 10.7286C13.9922 10.7246 14.1165 10.7206 14.2129 10.7393C14.3051 10.7299 14.3118 10.7687 14.2944 10.8142C14.3198 10.8276 14.3345 10.8342 14.3506 10.8904C14.4924 10.9025 14.6007 10.8516 14.7237 10.8958C14.7852 10.9252 14.8842 10.9439 14.9069 10.9854C14.9043 11.0094 14.7251 10.9506 14.7384 10.9961C14.7438 11.0161 14.8508 11.0322 14.8989 11.079C14.9551 11.1071 14.9337 11.0736 14.9925 11.0683C15.0059 11.0683 15.0313 11.0883 15.054 11.0897C15.0848 11.0897 15.1156 11.0736 15.1263 11.0816C15.1437 11.0964 15.1129 11.1245 15.1557 11.1499C15.1851 11.1672 15.2293 11.1499 15.2614 11.1739C15.2801 11.1886 15.3028 11.1699 15.3189 11.182C15.3349 11.1953 15.3376 11.2274 15.3549 11.2328C15.3978 11.2582 15.4459 11.2448 15.4981 11.2555C15.5836 11.2742 15.6786 11.3157 15.7481 11.3866C15.827 11.404 15.8618 11.3531 15.9287 11.3772C15.9661 11.3906 15.9795 11.4481 16.0557 11.4962C16.0972 11.5216 16.152 11.4855 16.2149 11.5002C16.3072 11.5216 16.3874 11.519 16.3901 11.5056C16.4008 11.4481 16.2684 11.428 16.1922 11.4467C16.0651 11.5016 16.1106 11.3866 16.0651 11.3772C15.9434 11.3545 15.8752 11.3103 15.9059 11.2007C15.9247 11.1766 15.9688 11.1833 15.9942 11.2528C16.0009 11.2716 16.0531 11.2515 16.0691 11.2635C16.0972 11.2849 16.1025 11.3291 16.1346 11.3451C16.1667 11.3611 16.1962 11.3224 16.2229 11.3398C16.2684 11.3678 16.3179 11.3692 16.3312 11.3558C16.3526 11.3144 16.2898 11.2435 16.1667 11.2435C16.1146 11.2435 16.1052 11.1539 16.0651 11.1445C15.9849 11.1258 15.9059 11.1311 15.8846 11.1245C15.827 11.095 15.7695 11.0656 15.712 11.0362C15.6853 11.0175 15.6572 11.0121 15.6385 11.0415C15.6425 11.0937 15.5957 11.091 15.5515 11.0857C15.4914 11.0696 15.4245 11.0495 15.3937 11.0161C15.3764 10.9974 15.4299 10.9386 15.3563 10.9305C15.2841 10.9265 15.2359 10.9372 15.1624 10.8971C15.0995 10.8142 15.2533 10.9091 15.2453 10.8409C15.2774 10.7941 14.6903 10.7553 14.7572 10.6657C14.816 10.6751 14.8708 10.6791 14.9297 10.6885C14.9644 10.6711 14.9524 10.6323 14.9056 10.6189C14.824 10.6122 14.7572 10.5681 14.6702 10.5735C14.5806 10.5681 14.5298 10.639 14.4295 10.6323C14.3774 10.6229 14.261 10.5828 14.3439 10.5561C14.3894 10.5414 14.38 10.4986 14.3265 10.4838C14.3078 10.4812 14.2623 10.4986 14.2409 10.4838C14.2169 10.4678 14.2249 10.4304 14.1914 10.429C14.162 10.429 14.1286 10.4812 14.1019 10.4718C14.0738 10.4625 14.0831 10.4196 14.059 10.4049C14.0417 10.3956 14.0163 10.4049 13.9949 10.4049C13.9574 10.4023 13.9226 10.3929 13.8945 10.4049C13.7702 10.4584 13.6685 10.4049 13.5428 10.3889C13.5 10.3755 13.484 10.3501 13.5294 10.3314C13.5562 10.3341 13.6298 10.3448 13.6431 10.3167C13.6511 10.3006 13.5963 10.2418 13.6137 10.2351C13.6244 10.2311 13.6873 10.2872 13.6979 10.2819C13.7194 10.2726 13.7381 10.2525 13.7622 10.2485C13.7795 10.2445 13.813 10.2953 13.829 10.2926C13.8571 10.2872 13.8812 10.2525 13.9053 10.2525C14.0015 10.2551 14.0443 10.3501 14.1393 10.3621C14.1767 10.3661 14.2275 10.3407 14.265 10.3394C14.3533 10.3354 14.265 10.4009 14.3372 10.4237C14.4174 10.4491 14.5204 10.3982 14.5967 10.4116C14.6381 10.4183 14.5967 10.5093 14.6515 10.5119C14.6983 10.528 14.721 10.4665 14.7639 10.4611C14.7933 10.4584 14.8187 10.5079 14.8387 10.5119C14.8762 10.5186 14.9029 10.4625 14.9337 10.4758C14.9484 10.4812 14.9631 10.5012 14.9818 10.5066C15.0005 10.5119 15.0246 10.5039 15.0407 10.5173C15.0781 10.5494 15.0126 10.5962 15.0955 10.6056C15.1276 10.6096 15.1637 10.5627 15.1931 10.5587C15.2413 10.5534 15.2226 10.6002 15.2373 10.6082C15.2493 10.6162 15.2827 10.5587 15.3041 10.5868C15.3255 10.6176 15.2413 10.6764 15.2988 10.7045C15.3215 10.7152 15.3643 10.6644 15.3991 10.6564C15.4232 10.651 15.4419 10.6871 15.4539 10.6965C15.4646 10.7045 15.5302 10.7072 15.5542 10.7152C15.5877 10.7259 15.6412 10.7353 15.6304 10.766C15.6238 10.7847 15.4927 10.762 15.4526 10.7701C15.4111 10.7781 15.4593 10.8195 15.4646 10.8209C15.5515 10.8209 15.6331 10.8824 15.7294 10.8262C15.7883 10.7995 15.7669 10.8623 15.8177 10.865C15.8524 10.8744 15.9126 10.8503 15.9274 10.8917C15.9394 10.9252 15.8538 10.9399 15.8805 11.0135C15.9193 11.0402 15.9327 10.9813 15.9568 10.9813C15.9809 10.9813 16.0076 11.0255 16.0317 11.0268C16.0517 11.0402 16.0771 11.0295 16.0959 11.0429C16.1133 11.0562 16.1226 11.095 16.1427 11.1084C16.1694 11.1084 16.1935 11.0897 16.2189 11.0897C16.2456 11.0897 16.2697 11.1204 16.2991 11.1111C16.3018 11.1084 16.3125 11.0549 16.2871 11.0429C16.2644 11.0308 16.2069 11.0602 16.1748 11.0442C16.0892 11.0001 15.9969 10.9452 16.0317 10.9078C16.0424 10.8971 16.0745 10.8811 16.1039 10.8891C16.1186 10.8931 16.1306 10.9051 16.1427 10.9198C16.1547 10.9332 16.1681 10.9479 16.1868 10.9559C16.2149 10.9693 16.2577 10.9506 16.2831 10.9613C16.3326 10.9827 16.358 11.0308 16.362 11.0255C16.4034 11.0442 16.3994 10.9586 16.473 11.0335C16.4877 11.0602 16.5278 11.0669 16.5466 11.091C16.5679 11.1191 16.5666 11.1793 16.6094 11.1779C16.6388 11.1779 16.5934 11.0763 16.6228 11.075C16.6455 11.075 16.7204 11.1672 16.7686 11.1726C16.8074 11.198 16.8689 11.1606 16.9076 11.186C16.9371 11.206 16.9424 11.2903 16.9732 11.3103C17.0119 11.3211 17.0294 11.2742 17.0681 11.2863C17.1069 11.297 17.1644 11.3665 17.2032 11.3786C17.2447 11.4 17.3383 11.3866 17.3811 11.4053C17.4466 11.4347 17.3998 11.4882 17.4533 11.5043C17.4921 11.5136 17.5202 11.4829 17.5576 11.4922C17.6098 11.5043 17.6392 11.5979 17.7234 11.5698M10.2328 10.0706C10.305 10.076 10.3398 9.99171 10.396 10.0278C10.4388 10.0506 10.392 10.0706 10.3786 10.0987C10.3666 10.1227 10.3318 10.1281 10.3144 10.1401C10.2569 10.1642 10.182 10.1067 10.2328 10.0719V10.0706ZM11.5047 10.1642C11.5916 10.1843 11.6451 10.0746 11.7227 10.1254C11.7654 10.1482 11.7654 10.1789 11.7521 10.207C11.74 10.2311 11.6464 10.2324 11.629 10.2445C11.5889 10.2538 11.5903 10.2297 11.5622 10.2284C11.4926 10.2257 11.4726 10.187 11.5047 10.1656V10.1642ZM13.5254 10.1816C13.5094 10.2257 13.496 10.2632 13.4345 10.2712C13.4118 10.2739 13.3756 10.2632 13.3422 10.2659C13.2834 10.2699 13.2339 10.2846 13.2205 10.2726C13.2031 10.2231 13.2539 10.2164 13.286 10.2043C13.3168 10.1749 13.2887 10.1522 13.3222 10.1335C13.3743 10.1161 13.4224 10.1067 13.4679 10.1268C13.5107 10.1335 13.5294 10.1575 13.5268 10.1816H13.5254ZM11.6598 9.78708C11.6745 9.74561 11.7253 9.73224 11.7975 9.73758C11.8497 9.7483 11.8979 9.78174 11.8845 9.81249C11.8791 9.84593 11.847 9.85527 11.827 9.84858C11.8002 9.84189 11.7909 9.81514 11.7641 9.81249C11.7414 9.81249 11.74 9.84458 11.7013 9.83389C11.6692 9.83389 11.6571 9.80714 11.6598 9.78708ZM12.4274 9.82586C12.4315 9.85261 12.394 9.83924 12.382 9.8593C12.3579 9.90208 12.3231 9.91011 12.2683 9.90477C12.2161 9.89405 12.1854 9.86196 12.1921 9.83924C12.1988 9.8058 12.2295 9.79511 12.2496 9.80177C12.3044 9.8058 12.2964 9.83789 12.3231 9.84058C12.3459 9.84058 12.3539 9.77636 12.3927 9.78708C12.4248 9.78708 12.4288 9.80446 12.4261 9.82586H12.4274ZM12.1011 9.99171C12.1159 9.95024 12.1694 9.98902 12.279 9.98233C12.3285 9.97964 12.3793 9.96496 12.4141 9.96627C12.4595 9.96761 12.4836 9.98099 12.4703 10.0225C12.4542 10.0492 12.3766 10.0639 12.3566 10.0586C12.3111 10.0519 12.2937 10.0465 12.2656 10.0425C12.2429 10.0425 12.16 10.0585 12.1212 10.0479C12.0891 10.0479 12.0944 10.0064 12.1025 9.99036L12.1011 9.99171ZM13.5067 10.0091C13.5214 9.96761 13.5682 9.95558 13.6444 10.0091C13.7207 10.0091 13.7675 10.0519 13.7608 10.0746C13.7541 10.1081 13.7341 10.1081 13.7127 10.1027C13.6592 10.0987 13.6725 10.0639 13.6298 10.0639C13.6057 10.0639 13.5856 10.088 13.5468 10.0773C13.5147 10.0773 13.504 10.0305 13.5067 10.0104V10.0091ZM13.056 10.0265C13.0213 10.0251 13.0359 9.99171 13.0213 9.97699C13.0025 9.95827 12.9758 9.9703 12.9758 9.93418C12.9985 9.87936 13.1724 9.90477 13.1764 9.95424C13.1804 9.99036 13.1577 10.0037 13.1323 10.0051C13.1042 10.0051 13.0908 10.0331 13.056 10.0278V10.0265ZM12.818 10.08C12.7872 10.0746 12.7912 10.0626 12.7765 10.0465C12.7578 10.0278 12.7845 9.99971 12.8113 9.98368C12.8648 9.96761 12.9103 9.97964 12.9143 10.0104C12.9183 10.0238 12.9089 10.0546 12.8822 10.0612C12.8541 10.0679 12.8514 10.0853 12.818 10.08Z" fill="url(#paint0_linear_3396_54544)"/>
<path fill-rule="evenodd" clip-rule="evenodd" d="M9.99617 6.10081C10.7117 6.10081 11.2948 6.6839 11.2948 7.39806C11.2948 8.11221 10.7117 8.69531 9.99617 8.69531C9.28067 8.69531 8.69758 8.11221 8.69758 7.39806C8.69758 6.6839 9.28202 6.10081 9.99617 6.10081Z" fill="#FDBB30"/>
<path fill-rule="evenodd" clip-rule="evenodd" d="M11.7474 11.7016C11.8812 11.7016 11.9908 11.7819 11.9908 11.8808C11.9908 11.9798 11.8812 12.06 11.7474 12.06C11.6137 12.06 11.504 11.9798 11.504 11.8808C11.504 11.7819 11.6137 11.7016 11.7474 11.7016Z" fill="#221F72"/>
<path fill-rule="evenodd" clip-rule="evenodd" d="M5.62421 11.917C5.93849 11.8996 6.34906 11.9437 6.35174 12.3195C6.34906 12.7421 5.93446 12.7635 5.62421 12.7555V11.917ZM5.1334 13.7773V11.8086C5.14809 11.7364 5.16146 11.7311 5.23234 11.7151C5.52121 11.7151 5.81412 11.7097 6.10299 11.7097C6.66065 11.7471 6.88268 12.0561 6.8519 12.4011C6.82384 12.7127 6.53896 12.9468 6.07221 12.9748C5.90771 12.9748 5.79003 12.9856 5.62553 12.9856V13.7893C5.61484 13.8241 5.58943 13.8441 5.54262 13.8481H5.19759C5.17084 13.8441 5.14409 13.8308 5.13206 13.7773H5.1334Z" fill="#221F72"/>
<path fill-rule="evenodd" clip-rule="evenodd" d="M7.15898 12.2843H7.49867C7.5321 12.2843 7.55885 12.311 7.55885 12.3445V13.7915C7.55885 13.8249 7.5321 13.8517 7.49867 13.8517H7.15898C7.12554 13.8517 7.09879 13.8249 7.09879 13.7915V12.3445C7.09879 12.311 7.12554 12.2843 7.15898 12.2843Z" fill="#221F72"/>
<path fill-rule="evenodd" clip-rule="evenodd" d="M7.32876 11.7016C7.46251 11.7016 7.57216 11.7819 7.57216 11.8808C7.57216 11.9798 7.46251 12.06 7.32876 12.06C7.19501 12.06 7.08669 11.9798 7.08669 11.8808C7.08669 11.7819 7.19501 11.7016 7.32876 11.7016Z" fill="#221F72"/>
<path fill-rule="evenodd" clip-rule="evenodd" d="M9.89991 12.2843H10.2396C10.273 12.2843 10.2998 12.311 10.2998 12.3445V13.7915C10.2998 13.8249 10.273 13.8517 10.2396 13.8517H9.89991C9.86647 13.8517 9.83972 13.8249 9.83972 13.7915V12.3445C9.83972 12.311 9.86647 12.2843 9.89991 12.2843Z" fill="#221F72"/>
<path fill-rule="evenodd" clip-rule="evenodd" d="M10.071 11.7016C10.2048 11.7016 10.3144 11.7818 10.3144 11.8808C10.3144 11.9798 10.2048 12.06 10.071 12.06C9.93728 12.06 9.82762 11.9798 9.82762 11.8808C9.82762 11.7818 9.93596 11.7016 10.071 11.7016Z" fill="#221F72"/>
<path fill-rule="evenodd" clip-rule="evenodd" d="M11.5763 12.2843H11.916C11.9494 12.2843 11.9762 12.311 11.9762 12.3445V13.7915C11.9762 13.8249 11.9494 13.8517 11.916 13.8517H11.5763C11.5429 13.8517 11.5161 13.8249 11.5161 13.7915V12.3445C11.5161 12.311 11.5429 12.2843 11.5763 12.2843Z" fill="#221F72"/>
<path fill-rule="evenodd" clip-rule="evenodd" d="M10.7245 11.7016H11.0642C11.0976 11.7016 11.1243 11.7284 11.1243 11.7618V13.7919C11.1243 13.8253 11.0976 13.8521 11.0642 13.8521H10.7245C10.691 13.8521 10.6643 13.8253 10.6643 13.7919V11.7618C10.6643 11.7284 10.691 11.7016 10.7245 11.7016Z" fill="#221F72"/>
<path fill-rule="evenodd" clip-rule="evenodd" d="M9.00152 12.6137C8.73136 12.4345 8.31143 12.6284 8.31008 13.0724C8.31143 13.7077 8.85171 13.7638 9.00152 13.5699V12.6137ZM9.06167 11.703H9.40139C9.4348 11.703 9.46155 11.7297 9.46155 11.7631V13.6635C9.46155 13.697 9.43883 13.7103 9.41208 13.729C9.31042 13.8026 9.17267 13.8414 9.02692 13.8748C9.00017 13.8815 7.84468 14.0821 7.87143 13.1353C7.93027 12.1697 8.92392 12.2994 9.00017 12.4866V11.7618C9.00017 11.7284 9.02692 11.7016 9.06036 11.7016L9.06167 11.703Z" fill="#221F72"/>
<path fill-rule="evenodd" clip-rule="evenodd" d="M12.4397 11.8631L12.7768 11.6906C12.8142 11.6719 12.8396 11.708 12.8396 11.7401V12.2857H13.1499C13.1606 12.2871 13.1673 12.2938 13.1686 12.3058V12.4168C13.1686 12.4302 13.1606 12.4369 13.1499 12.4369H12.8396V13.4787C12.8477 13.6953 13.0429 13.6846 13.1659 13.694C13.2703 13.6994 13.2636 13.8023 13.1352 13.8531C12.9934 13.9093 12.7233 13.9227 12.5267 13.7863C12.3983 13.686 12.3796 13.567 12.3796 13.4613V12.4396C12.31 12.4396 12.2405 12.4396 12.1709 12.4396C12.1589 12.4396 12.1536 12.4315 12.1522 12.4208C12.1522 12.3821 12.1522 12.3433 12.1522 12.3045C12.1522 12.2938 12.1602 12.2871 12.1709 12.2871L12.3782 12.2898V11.9273C12.3782 11.8939 12.409 11.8819 12.4384 11.8671" fill="#221F72"/>
<path fill-rule="evenodd" clip-rule="evenodd" d="M14.381 12.8335C14.4144 12.6851 14.2646 12.5019 14.0293 12.5286C13.7605 12.5607 13.6896 12.7974 13.7043 12.9071C13.9116 12.887 14.1737 12.8523 14.381 12.8335ZM13.715 13.0809C14.056 13.0462 14.401 13.0047 14.7434 12.9686C14.8023 12.9619 14.8665 12.9285 14.8477 12.8202C14.817 12.534 14.512 12.2839 14.1389 12.3013C13.5037 12.3334 13.3071 12.7479 13.3258 13.1411C13.3525 13.6413 13.6601 13.874 14.147 13.8981C14.4719 13.9088 14.7969 13.6734 14.8517 13.4594C14.9093 13.3123 14.7528 13.22 14.6752 13.3538C14.3743 13.7162 13.735 13.6173 13.715 13.0809Z" fill="#221F72"/>
</g>
<defs>
<linearGradient id="paint0_linear_3396_54544" x1="6.73695" y1="10.3314" x2="14.0671" y2="10.3822" gradientUnits="userSpaceOnUse">
<stop stop-color="#0081C6"/>
<stop offset="0.03" stop-color="#007EC2"/>
<stop offset="0.32" stop-color="#0066A2"/>
<stop offset="0.56" stop-color="#00578F"/>
<stop offset="0.72" stop-color="#005288"/>
</linearGradient>
<clipPath id="clip0_3396_54544">
<rect width="19.375" height="19.375" fill="white" transform="scale(1.03226)"/>
</clipPath>
</defs>
</svg>
