<svg width="24" height="24" viewBox="0 0 24 24" fill="none" xmlns="http://www.w3.org/2000/svg">
<g clip-path="url(#clip0_5424_8745)">
<path d="M21.462 13.652V3.12749C21.462 2.89689 21.275 2.70996 21.0444 2.70996H18.4673C18.2367 2.70996 18.0498 2.89689 18.0498 3.12749V14.7754" stroke="currentColor" stroke-width="1.2"/>
<path d="M17.7678 5.46094H15.4444C15.2138 5.46094 15.0269 5.64787 15.0269 5.87846V15.0457" stroke="currentColor" stroke-width="1.2"/>
<path d="M14.8663 8.64551H12.2369C12.0063 8.64551 11.8193 8.83244 11.8193 9.06303V12.5013" stroke="currentColor" stroke-width="1.2"/>
<path d="M4.22412 11.4241C7.6953 10.9282 7.18947 10.965 8.02587 10.965C9.09508 10.9649 9.67885 11.0384 10.7074 11.5893C11.7359 12.1403 12.8715 12.7253 13.3123 13.0742C13.753 13.4232 14.6745 13.6096 14.8214 14.1055C14.9683 14.6014 14.6965 15.1744 14.6056 15.2341C14.5148 15.2938 14.2704 15.6116 13.7194 15.5381M13.7194 15.5381C13.2786 15.4793 10.7808 14.8402 9.58702 14.5279L13.7194 15.5381ZM13.7194 15.5381C15.3641 15.5381 19.4046 14.0704 21.2192 13.3365C21.4785 13.2525 22.0697 13.1349 22.3606 13.3365C22.7243 13.5885 23.0122 13.7437 23.1637 14.1055C23.3152 14.4673 23.2698 14.8402 22.997 15.1891C22.7243 15.5381 16.5385 18.8856 15.68 19.0803C14.8214 19.275 14.0618 19.1747 13.3999 19.1747C12.738 19.1747 11.6193 19.4307 11.1633 19.2555C10.7074 19.0803 8.35994 18.1458 7.67856 17.9511C6.99717 17.7565 6.67674 17.6955 5.98887 17.5982C5.03266 17.4628 4.54496 17.6396 4.22412 17.6786" stroke="currentColor" stroke-width="1.2"/>
<mask id="path-5-inside-1_5424_8745" fill="currentColor">
<path d="M0.749512 11.178C0.749512 10.8322 1.02991 10.5518 1.3758 10.5518H4.25457C4.60046 10.5518 4.88086 10.8322 4.88086 11.178V17.7498C4.88086 18.0957 4.60046 18.3761 4.25457 18.3761H1.3758C1.02991 18.3761 0.749512 18.0957 0.749512 17.7498V11.178Z"/>
</mask>
<path d="M0.749512 11.178C0.749512 10.8322 1.02991 10.5518 1.3758 10.5518H4.25457C4.60046 10.5518 4.88086 10.8322 4.88086 11.178V17.7498C4.88086 18.0957 4.60046 18.3761 4.25457 18.3761H1.3758C1.02991 18.3761 0.749512 18.0957 0.749512 17.7498V11.178Z" stroke="currentColor" stroke-width="2.4" mask="url(#path-5-inside-1_5424_8745)"/>
</g>
<defs>
<clipPath id="clip0_5424_8745">
<rect width="24" height="24" fill="currentColor"/>
</clipPath>
</defs>
</svg>
