<svg width="24" height="24" viewBox="0 0 24 24" fill="none" xmlns="http://www.w3.org/2000/svg">
<g clip-path="url(#clip0_2304_39441)">
<path d="M16.2344 6.20195C16.2344 6.13195 16.2344 6.09694 16.248 6.0702C16.26 6.04668 16.2791 6.02756 16.3026 6.01558C16.3294 6.00195 16.3644 6.00195 16.4344 6.00195H17.5344C17.6044 6.00195 17.6394 6.00195 17.6661 6.01558C17.6896 6.02756 17.7088 6.04668 17.7208 6.0702C17.7344 6.09694 17.7344 6.13195 17.7344 6.20195V8.75195H18.7344L16.9844 10.502L15.2344 8.75195H16.2344V6.20195Z" stroke="currentColor" stroke-width="0.8" stroke-linecap="round" stroke-linejoin="round"/>
<path d="M7.67627 19.4738C7.67627 19.5438 7.67627 19.5788 7.66265 19.6056C7.65066 19.6291 7.63154 19.6482 7.60802 19.6602C7.58128 19.6738 7.54628 19.6738 7.47627 19.6738L6.37627 19.6738C6.30626 19.6738 6.27126 19.6738 6.24452 19.6602C6.221 19.6482 6.20188 19.6291 6.18989 19.6056C6.17627 19.5788 6.17627 19.5438 6.17627 19.4738L6.17627 16.9238L5.17627 16.9238L6.92627 15.1738L8.67627 16.9238L7.67627 16.9238L7.67627 19.4738Z" stroke="currentColor" stroke-width="0.8" stroke-linecap="round" stroke-linejoin="round"/>
<path d="M2.29736 12.7041H3.99713M3.99713 12.7041V3.21523C3.99713 3.16001 4.0419 3.11523 4.09713 3.11523H6.20543C6.26066 3.11523 6.30543 3.16001 6.30543 3.21523V6.87734C6.30543 6.93257 6.3502 6.97734 6.40543 6.97734H8.76556C8.82079 6.97734 8.86556 7.02211 8.86556 7.07734V9.68928C8.86556 9.74451 8.91033 9.78928 8.96556 9.78928H10.9479C11.0031 9.78928 11.0479 9.83412 11.0479 9.88939L11.0447 12.7041M3.99713 12.7041H11.0447M11.0447 12.7041L13.1608 12.7229M13.1608 12.7229L20.4707 12.7166H21.9629M20.4707 12.7166V21.752C20.4707 21.8072 20.426 21.852 20.3707 21.852H18.1469C18.0917 21.852 18.0469 21.8072 18.0469 21.752V18.8356C18.0469 18.7804 18.0021 18.7356 17.9469 18.7356H15.8C15.7448 18.7356 15.7 18.6909 15.7 18.6356V16.4118C15.7 16.3566 15.6552 16.3118 15.6 16.3118H13.2608C13.2055 16.3118 13.1608 16.267 13.1608 16.2118V12.7229M6.30786 6.57227V12.3887M8.86487 9.56836V12.627M15.6949 12.9004V16.7793M18.0524 12.8652V19.2949" stroke="currentColor" stroke-width="1.1" stroke-linecap="round"/>
</g>
<defs>
<clipPath id="clip0_2304_39441">
<rect width="24" height="24" fill="currentColor"/>
</clipPath>
</defs>
</svg>
