<svg width="20" height="20" viewBox="0 0 20 20" fill="none" xmlns="http://www.w3.org/2000/svg">
<g clip-path="url(#clip0_3396_54282)">
<path d="M20 10C20 4.47715 15.5228 0 10 0C4.47715 0 0 4.47715 0 10C0 15.5228 4.47715 20 10 20C15.5228 20 20 15.5228 20 10Z" fill="currentColor"/>
<path d="M10.5388 9.99356L10.131 9.7445L10.1166 13.9674L10.0986 13.971L10.077 13.9747L10.0554 13.9782H10.0301H10.0083L9.98305 13.9747L9.96143 13.971L9.93621 13.9674L9.45968 8.27912L9.83149 8.52818L9.90021 3.98387L10.5388 9.99356Z" fill="currentColor"/>
<path d="M4.83165 9.23367H8.53125L8.53484 9.22286L8.54206 9.21205L8.54565 9.19764L8.55647 9.18323L8.56393 9.16883L8.57475 9.15802L8.58553 9.14361L8.59993 9.12895L8.61437 9.11814L8.62515 9.10373L8.63956 9.09292L8.654 9.0857L8.66478 9.08211L8.672 9.07492L8.67918 9.0713H8.6864L8.69362 9.0677H8.70106L8.70828 9.06411H8.71546L9.27487 9.06048L9.3145 9.49355H4.86768L4.83165 9.23367Z" fill="currentColor"/>
<path d="M4.94355 9.88445H8.37605L8.37964 9.87364L8.38327 9.85923L8.39045 9.84845L8.39767 9.83402L8.40845 9.81961L8.41927 9.80136L8.43008 9.78695L8.44474 9.77255L8.45555 9.75811L8.46995 9.7437L8.48436 9.7293L8.4988 9.71848L8.50599 9.71489L8.5132 9.7077L8.52039 9.70408L8.5312 9.70048L8.53842 9.69689H8.54561H8.55283L8.56002 9.6933H9.33967L9.37595 10.1083H4.99758L4.94355 9.88445Z" fill="currentColor"/>
<path d="M4.97701 7.3212H8.27236L8.27595 7.31039L8.27957 7.29958L8.28676 7.28492L8.29398 7.26692L8.30504 7.25248L8.31582 7.23448L8.32664 7.22008L8.34104 7.20208L8.35185 7.18764L8.36626 7.17323L8.38067 7.15858L8.3951 7.14417L8.40229 7.14058L8.40951 7.13695L8.4167 7.13336L8.42392 7.12976L8.43498 7.12617L8.44217 7.12255H8.44939L8.45657 7.11895H9.60779L9.59698 7.57748H4.91935L4.97701 7.3212Z" fill="currentColor"/>
<path d="M5.18564 6.7021H8.31864L8.32223 6.69129L8.32945 6.67689L8.33664 6.66248L8.34386 6.64445L8.35464 6.62979L8.36545 6.61179L8.37627 6.59376L8.38708 6.57217L8.40148 6.55776L8.41589 6.53973L8.4303 6.52532L8.44498 6.51092L8.45217 6.50704L8.45939 6.49985L8.46658 6.49626L8.4738 6.49264L8.48098 6.48904L8.4918 6.48545H8.49902L8.5062 6.48185H9.61805L9.61417 6.94398H5.09173L5.18564 6.7021Z" fill="currentColor"/>
<path d="M5.49674 6.04083H8.55743L8.56102 6.03002L8.56487 6.01561L8.57209 6.0048L8.5829 5.9904L8.59009 5.97212L8.6009 5.95771L8.6153 5.93971L8.62612 5.92168L8.64052 5.90727L8.65134 5.89287L8.66574 5.87846L8.68015 5.86765L8.68737 5.86405L8.69843 5.85687L8.70562 5.85324L8.71284 5.8494L8.72002 5.84577H8.72724L8.73446 5.84218H8.74165L9.62602 5.83858V6.28271H5.37399L5.49674 6.04083Z" fill="currentColor"/>
<path d="M5.13105 10.5294H8.1992L8.21002 10.5042L8.22442 10.4754L8.23524 10.4571L8.24602 10.4391L8.25683 10.4175L8.26764 10.3995L8.28205 10.3815L8.29645 10.3635L8.31114 10.3455L8.32555 10.3311L8.33274 10.3236L8.33995 10.32L8.34714 10.3128L8.35436 10.3092L8.36158 10.3056L8.36877 10.302H8.37958H8.38677L9.4047 10.2984L9.43711 10.7425H5.21777L5.13105 10.5294Z" fill="currentColor"/>
<path d="M5.40524 11.1526H8.07971L8.0833 11.1418L8.09052 11.1274L8.09774 11.1127L8.10493 11.0983L8.11574 11.0803L8.12655 11.0623L8.13737 11.0479L8.14815 11.0298L8.16255 11.0118L8.17724 10.9974L8.19165 10.9827L8.20605 10.9683L8.21327 10.9611L8.22046 10.9575L8.22768 10.9539L8.23487 10.9503L8.24209 10.9467L8.24927 10.9431H8.26009L8.2673 10.9395H9.46199L9.49465 11.3726H5.5388L5.40524 11.1526Z" fill="currentColor"/>
<path d="M5.78427 11.775H7.88493L7.88852 11.7642L7.89574 11.7534L7.90293 11.739L7.9104 11.7246L7.91762 11.7101L7.92843 11.6921L7.94284 11.6777L7.95362 11.6597L7.96806 11.645L7.98246 11.6306L7.99324 11.6162L8.01127 11.6018L8.01846 11.5982L8.02568 11.5946L8.03287 11.5874L8.04034 11.5838L8.04756 11.5802H8.05474L8.06196 11.5766H8.07277H9.52374L9.56337 11.9989H5.95768L5.78427 11.775Z" fill="currentColor"/>
<path d="M6.35859 12.4262H7.75888L7.76606 12.401L7.78434 12.3686L7.79153 12.347L7.80234 12.329L7.81316 12.3074L7.82756 12.2855L7.83838 12.2675L7.85278 12.2459L7.86719 12.2279L7.88159 12.2135L7.88881 12.2062L7.89959 12.199L7.90706 12.1954L7.91428 12.1918L7.92147 12.1882L7.92869 12.1846L7.93588 12.181H7.94309L9.58525 12.1774L9.62153 12.6465H6.59685H6.58966L6.58219 12.6429L6.575 12.6393L6.56419 12.6321L6.54256 12.6213L6.52094 12.6069L6.49572 12.5889L6.47413 12.5709L6.44866 12.549L6.42703 12.531L6.40541 12.5094L6.38741 12.4914L6.36941 12.4733L6.35859 12.4589L6.355 12.4517L6.35138 12.4445L6.34778 12.437V12.4334V12.4299L6.35138 12.4262H6.355H6.35859Z" fill="currentColor"/>
<path d="M7.03384 13.014H7.59324L7.59684 13.0032L7.60043 12.9924L7.60765 12.978L7.61846 12.9633L7.62565 12.9453L7.63646 12.9273L7.64752 12.9129L7.66193 12.8949L7.67274 12.8769L7.68715 12.8625L7.70155 12.8481L7.71596 12.8337L7.72318 12.8298L7.73399 12.8226L7.74118 12.819L7.7484 12.8154L7.75559 12.8118H7.7628L7.76999 12.8082H7.77746L9.63627 12.8046L9.67227 13.2379H7.35496L7.34055 13.2307L7.32255 13.2232L7.30093 13.2088L7.27571 13.1944L7.2469 13.1764L7.2178 13.1584L7.1854 13.1403L7.15659 13.1187L7.12777 13.1007L7.10227 13.0788L7.07709 13.0608L7.05905 13.0464L7.04105 13.032L7.03384 13.0248L7.03024 13.0176V13.014H7.03384Z" fill="currentColor"/>
<path d="M4.80645 8.87346V8.61355H8.67198L8.6792 8.60277L8.6828 8.58833L8.68998 8.57393L8.69745 8.55593L8.70826 8.53793L8.71908 8.5199L8.72989 8.5019L8.7407 8.48749L8.75511 8.46921L8.76951 8.4548L8.78392 8.4368L8.79833 8.42599L8.80551 8.41877L8.81273 8.41518L8.81995 8.40799L8.82739 8.40436L8.8382 8.40077H8.84542L8.85261 8.39718H8.85983H9.20976L9.25686 8.87346H4.80645Z" fill="currentColor"/>
<path d="M4.85401 7.96835H8.49595L8.49954 7.95729L8.50317 7.94288L8.51035 7.92847L8.52117 7.91407L8.52838 7.89607L8.53917 7.88166L8.54998 7.86363L8.56467 7.84922L8.57545 7.83122L8.58985 7.81653L8.60429 7.80213L8.6187 7.79135L8.62589 7.78772L8.6331 7.78053L8.64392 7.77691L8.6511 7.77332L8.65832 7.76972H8.66551L8.67273 7.76613H8.67992H9.58592L9.58951 8.22078H4.82157L4.85401 7.96835Z" fill="currentColor"/>
<path d="M7.78831 13.4012H9.70112L9.74074 13.9606H9.67953L9.61443 13.957L9.54959 13.9498L9.48446 13.9426L9.41965 13.9354L9.35093 13.9282L9.28609 13.9174L9.2174 13.9066L9.14893 13.8921L9.08384 13.8811L9.0154 13.8667L8.94671 13.8486L8.87824 13.8342L8.80956 13.8162L8.74471 13.7982L8.67962 13.7802L8.61478 13.7586L8.54609 13.7403L8.48484 13.7187L8.41974 13.6971L8.35849 13.6755L8.29699 13.6503L8.23937 13.6286L8.18171 13.6032L8.12384 13.578L8.06981 13.5564L8.01912 13.5311L7.96868 13.5059L7.91824 13.4805L7.87474 13.4552L7.82793 13.43L7.78831 13.4012Z" fill="currentColor"/>
<path d="M5.9432 5.38833H8.90276L8.90998 5.37033L8.91717 5.3523L8.92798 5.33789L8.9352 5.32324L8.94601 5.30524L8.9532 5.29442L8.96426 5.28002L8.97507 5.2692L8.98589 5.2548L8.9967 5.24399L9.0111 5.23317L9.02551 5.22599L9.03632 5.21517L9.05073 5.20795L9.06514 5.20077L9.07954 5.19355L9.64279 5.20077V5.65183H6.30035L6.28232 5.66983L6.26432 5.68424L6.24992 5.69864L6.2391 5.71667L6.2247 5.73133L6.21388 5.74933L6.19948 5.76736L6.18482 5.78895L5.66532 5.79617L5.6761 5.76736L5.69054 5.74214L5.70132 5.71305L5.71573 5.68783L5.73017 5.66261L5.74817 5.63742L5.76257 5.6122L5.78057 5.5867L5.79885 5.55789L5.81685 5.5363L5.83489 5.51108L5.85289 5.48586L5.87451 5.46064L5.8961 5.43517L5.92132 5.40995L5.9432 5.38833Z" fill="currentColor"/>
<path d="M6.51712 4.75456H9.11234V4.73653V4.71493L9.11593 4.6969L9.11953 4.6789L9.12674 4.65703L9.13393 4.63903L9.14115 4.621L9.14834 4.603L9.15915 4.585L9.16996 4.56696L9.18078 4.54896L9.19518 4.53456L9.20959 4.51987L9.22424 4.50546L9.23865 4.49465L9.25306 4.48387L9.65731 4.48746V4.99643H6.90334L6.78781 5.13356L6.16331 5.12996L6.20318 5.07953L6.24281 5.02884L6.28606 4.982L6.32593 4.93518L6.34756 4.91331L6.37274 4.88809L6.39437 4.86646L6.41599 4.84125L6.44121 4.81965L6.46668 4.79803L6.4919 4.77615L6.51712 4.75456Z" fill="currentColor"/>
<path d="M6.82762 4.48859L6.8675 4.45977L6.90353 4.43455L6.93956 4.40574L6.97559 4.38027L7.01187 4.35146L7.0515 4.32624L7.0839 4.30102L7.12018 4.2758L7.15621 4.25034L7.19584 4.22512L7.23187 4.1999L7.26812 4.17468L7.30775 4.15305L7.3474 4.13118L7.38728 4.10959L7.4269 4.08796L9.45165 4.09155L9.45887 4.05193L9.46606 4.0123L9.47328 3.96884L9.48046 3.92921L9.49153 3.88599L9.50234 3.84249L9.51315 3.79927L9.52396 3.75605L9.53478 3.71255L9.54556 3.66571L9.56 3.62249L9.57078 3.58262L9.58521 3.5394L9.59962 3.49615L9.61403 3.45627L9.62868 3.41665L9.67912 3.41305V4.30462L7.95387 4.31184L7.62887 4.4994L6.82762 4.48859Z" fill="currentColor"/>
<path d="M15.1691 9.23393H11.4695L11.4659 9.22312L11.4584 9.20871L11.4548 9.1979L11.444 9.1835L11.4368 9.16909L11.426 9.15109L11.4152 9.13643L11.4007 9.122L11.39 9.10759L11.3756 9.09681L11.3611 9.08237L11.3467 9.07159L11.3359 9.06796L11.3285 9.06437L11.3212 9.06078L11.3141 9.05718L11.3068 9.05356L11.2996 9.04996H11.2924H11.2852L10.6391 9.04637L10.6862 9.49381H15.1328L15.1691 9.23393Z" fill="currentColor"/>
<path d="M15.0574 9.88386H11.6249L11.6213 9.87305L11.6177 9.85864L11.6105 9.84786L11.6033 9.82983L11.5922 9.81542L11.5814 9.80077L11.5706 9.78273L11.5562 9.76833L11.5454 9.75392L11.531 9.73592L11.5166 9.72511L11.5022 9.7143L11.4949 9.70711L11.4878 9.70348L11.4805 9.6963H11.4697L11.4625 9.69267L11.4551 9.68908H11.4479H11.4407L10.7117 9.68548L10.7549 10.1077H15.0031L15.0574 9.88386Z" fill="currentColor"/>
<path d="M15.0245 7.32234H11.7291L11.7255 7.31153L11.7216 7.30072L11.7144 7.28606L11.7072 7.26806L11.6964 7.25365L11.6856 7.23562L11.6748 7.21762L11.6604 7.19959L11.6496 7.18518L11.6352 7.17078L11.6208 7.15612L11.6064 7.14172L11.5992 7.13812L11.5917 7.1309L11.5845 7.12731L11.5773 7.12368L11.5665 7.12009H11.5593L11.5521 7.1165H11.5449L10.4405 7.1129L10.4837 7.57862H15.0821L15.0245 7.32234Z" fill="currentColor"/>
<path d="M14.8151 6.7021H11.6822L11.6786 6.69129L11.6714 6.67689L11.6641 6.66248L11.657 6.64445L11.6461 6.62979L11.6353 6.61179L11.6245 6.59017L11.6137 6.57576L11.5993 6.55776L11.5846 6.53973L11.5702 6.52532L11.5558 6.51092L11.5486 6.50345L11.5414 6.49985L11.5342 6.49626L11.527 6.49264L11.5198 6.48904L11.5126 6.48545L11.5018 6.48185H11.4946H10.3972L10.4191 6.94398H14.9091L14.8151 6.7021Z" fill="currentColor"/>
<path d="M14.5044 6.04083H11.4435L11.4399 6.03002L11.4327 6.01921L11.4291 6.0048L11.4183 5.9904L11.4111 5.97212L11.4003 5.95412L11.3895 5.93971L11.3751 5.92168L11.3607 5.90727L11.3499 5.89287L11.3354 5.87846L11.3208 5.86765L11.31 5.86046L11.3028 5.85687L11.2956 5.85324L11.2884 5.8494L11.2812 5.84577L11.2739 5.84218H11.2668H11.2595L10.3175 5.83858L10.3608 6.28271H14.6272L14.5044 6.04083Z" fill="currentColor"/>
<path d="M14.8689 10.531H11.801L11.7903 10.5058L11.7759 10.477L11.765 10.4587L11.7542 10.4371L11.7434 10.4191L11.7326 10.3975L11.7179 10.3795L11.7035 10.3615L11.6891 10.3471L11.6747 10.3288L11.6675 10.3252L11.6603 10.318L11.6531 10.3144L11.6459 10.3108L11.6387 10.3036H11.6315L11.6207 10.3H11.6135L10.3933 10.2964L10.3609 10.7441H14.7825L14.8689 10.531Z" fill="currentColor"/>
<path d="M14.5954 11.1524H11.9209L11.9173 11.1416L11.9101 11.1272L11.9029 11.1126L11.8957 11.0946L11.8849 11.0765L11.8741 11.0585L11.8633 11.0405L11.8522 11.0189L11.8378 11.0009L11.8234 10.9826L11.809 10.9682L11.7946 10.9538L11.7873 10.9466L11.7802 10.9394L11.7729 10.9358L11.7658 10.9322L11.7585 10.9286L11.7513 10.925L11.7405 10.9214H11.7333H10.4699L10.4375 11.3724H14.4618L14.5954 11.1524Z" fill="currentColor"/>
<path d="M14.2163 11.7766H12.1157L12.1121 11.7658L12.1049 11.755L12.0976 11.7406L12.0905 11.7262L12.0832 11.7118L12.0725 11.6937L12.058 11.6757L12.0472 11.6613L12.0328 11.643L12.0184 11.6286L12.0076 11.6142L11.9896 11.6034L11.9821 11.5998L11.9749 11.5926L11.9677 11.589L11.9605 11.5854L11.9533 11.5818L11.9461 11.5782H11.9389H11.9281L10.4483 11.5746L10.4123 12.0004H14.0432L14.2163 11.7766Z" fill="currentColor"/>
<path d="M13.642 12.4267H12.2414L12.2342 12.4015L12.2162 12.369L12.209 12.3474L12.1982 12.3294L12.1874 12.3078L12.173 12.2859L12.1622 12.2679L12.1478 12.2499L12.1333 12.2319L12.1187 12.2139L12.1115 12.2103L12.1007 12.203L12.0935 12.1959L12.0863 12.1922L12.0791 12.1886L12.0719 12.185H12.0647L12.0574 12.1815H10.4153L10.379 12.6469H13.4037H13.4109L13.4181 12.6433L13.4253 12.6397L13.4361 12.6361L13.458 12.6217L13.4796 12.6073L13.5048 12.5893L13.5264 12.5713L13.5517 12.553L13.5735 12.5314L13.5951 12.5098L13.6131 12.4918L13.6312 12.4737L13.642 12.4593L13.6456 12.4521L13.6492 12.4449L13.6528 12.4375V12.4339V12.4303H13.6492L13.6456 12.4267H13.642Z" fill="currentColor"/>
<path d="M12.9671 13.014H12.4077L12.4041 13.0032L12.4005 12.9924L12.3933 12.978L12.3822 12.9633L12.375 12.9453L12.3642 12.9273L12.3534 12.9129L12.339 12.8949L12.3282 12.8769L12.3138 12.8625L12.2994 12.8481L12.2849 12.8337L12.2778 12.8298L12.2669 12.8226L12.2598 12.819L12.2525 12.8154L12.2451 12.8118L12.2379 12.8082H12.2307H12.2235L10.3647 12.8046L10.3286 13.2379H12.6457L12.6604 13.2307L12.6784 13.2232L12.7 13.2088L12.7252 13.1944L12.754 13.1764L12.7831 13.1584L12.8155 13.1403L12.8443 13.1187L12.8732 13.1007L12.8984 13.0788L12.9238 13.0608L12.9419 13.0464L12.9599 13.032L12.9671 13.0248L12.9707 13.0212V13.0176V13.014H12.9671Z" fill="currentColor"/>
<path d="M15.1941 8.61487H11.3283L11.3211 8.60406L11.3175 8.58965L11.3103 8.57524L11.3031 8.56084L11.2923 8.54284L11.2815 8.52481L11.2707 8.5104L11.2599 8.4924L11.2455 8.47771L11.2311 8.45971L11.2167 8.4489L11.2023 8.43449L11.1948 8.4309L11.1876 8.42368L11.1804 8.42009L11.1732 8.41649L11.1624 8.4129H11.1552L11.148 8.40927H11.1408H10.5706L10.6066 8.87474H15.1941V8.61487Z" fill="currentColor"/>
<path d="M15.1465 7.96666H11.5048L11.5012 7.95559L11.4976 7.94119L11.4904 7.92678L11.4796 7.90875L11.4724 7.89075L11.4616 7.87272L11.4505 7.85472L11.4361 7.83672L11.4253 7.82203L11.4109 7.80403L11.3965 7.78962L11.3821 7.77522L11.3748 7.77162L11.3677 7.76441L11.3568 7.76081L11.3497 7.75719L11.3424 7.75359L11.3352 7.75H11.3278H11.3206H10.5121L10.5484 8.21906H15.1792L15.1465 7.96666Z" fill="currentColor"/>
<path d="M12.4006 13.4032H10.3L10.2601 13.959H10.3216L10.3864 13.9554L10.4551 13.9482L10.5236 13.9446L10.5959 13.9374L10.6643 13.9266L10.7402 13.9194L10.8125 13.905L10.8882 13.8942L10.9641 13.8831L11.0361 13.8687L11.1156 13.8507L11.1913 13.8363L11.2672 13.8183L11.3395 13.8003L11.4151 13.7822L11.491 13.7642L11.5631 13.7423L11.6354 13.7207L11.7075 13.6991L11.7761 13.6775L11.8446 13.6559L11.9133 13.6307L11.9745 13.6088L12.0396 13.5836L12.0973 13.5584L12.1552 13.5332L12.2128 13.5079L12.2635 13.4825L12.3103 13.4537L12.3571 13.4284L12.4006 13.4032Z" fill="currentColor"/>
<path d="M14.0569 5.38716H11.0973V5.37275L11.1009 5.36194V5.34753V5.33672L11.0973 5.32594L11.0937 5.31485L11.0901 5.30407L11.0865 5.28966L11.0793 5.27885L11.0721 5.26803L11.0646 5.25722L11.0575 5.24641L11.0466 5.2356L11.0358 5.22482L11.0214 5.214L11.0106 5.20319L10.249 5.1996L10.2997 5.65425H13.566L13.5842 5.66866L13.6022 5.68307L13.6166 5.69747L13.6275 5.7155L13.6419 5.73016L13.6526 5.74816L13.6671 5.76619L13.6815 5.78778L14.3348 5.795L14.324 5.76619L14.3096 5.74097L14.2988 5.71188L14.2844 5.68666L14.27 5.66147L14.2519 5.63625L14.2375 5.61103L14.2192 5.58557L14.2012 5.56035L14.1832 5.53513L14.1652 5.50991L14.1472 5.48469L14.1256 5.45947L14.104 5.434L14.0785 5.40878L14.0569 5.38716Z" fill="currentColor"/>
<path d="M13.4833 4.755H10.8917V4.73697V4.72256L10.8881 4.70456V4.68653L10.8845 4.67212L10.8773 4.65387L10.8737 4.63584L10.8664 4.62143L10.8556 4.60343L10.8484 4.58903L10.8376 4.571L10.8268 4.553L10.8124 4.53859L10.7978 4.52031L10.7833 4.5059L10.7689 4.4879H10.1915L10.2239 4.99684H12.9635L13.079 5.134L13.8371 5.1304L13.7972 5.07997L13.7576 5.03287L13.7143 4.98243L13.6745 4.93562L13.6528 4.91375L13.6276 4.88853L13.606 4.8669L13.5844 4.84531L13.5589 4.82009L13.5337 4.79847L13.5085 4.77659L13.4833 4.755Z" fill="currentColor"/>
<path d="M11.8047 4.31184L10.1119 4.30462V3.41305L10.1626 3.41665L10.177 3.45627L10.1914 3.49615L10.2058 3.5394L10.2202 3.58262L10.231 3.62249L10.2454 3.66934L10.2562 3.71255L10.2706 3.75605L10.2817 3.79927L10.2889 3.84249L10.2997 3.88599L10.3105 3.92921L10.3177 3.97243L10.3249 4.0123L10.3357 4.05193L10.3393 4.09155L12.5736 4.08796L12.6132 4.10959L12.6531 4.13118L12.6927 4.15305L12.7323 4.17827L12.7683 4.1999L12.8046 4.22512L12.8442 4.25034L12.8803 4.2758L12.9166 4.30102L12.949 4.32624L12.985 4.35146L13.0246 4.38027L13.0609 4.40574L13.0969 4.43455L13.133 4.45977L13.1726 4.48859L12.1261 4.4994L11.8047 4.31184Z" fill="currentColor"/>
<path d="M6.61103 15.1566V15.3985H6.42706V16.4777H6.06247V15.3985H5.52468L5.49947 15.4165L5.47784 15.4345L5.46703 15.4418L5.45625 15.4489L5.44903 15.4562L5.44184 15.4633L5.43103 15.4742L5.42022 15.485L5.4094 15.4994L5.40222 15.5102L5.395 15.5246L5.38778 15.539L5.38059 15.5534L5.37337 15.5678L5.36978 15.5822L5.36618 15.5966L5.36259 15.611L5.35897 15.6255L5.35537 15.6399V15.723L5.35897 15.741L5.36259 15.759L5.36618 15.7734L5.36978 15.7878L5.37337 15.8022L5.38059 15.8166L5.38778 15.831L5.395 15.8455L5.40581 15.8599L5.41662 15.8707L5.4274 15.8851L5.43822 15.8959L5.44903 15.9067L5.46343 15.9175L5.47784 15.9283L5.49225 15.9391L5.50668 15.9499L5.52109 15.9607L5.5355 15.9679L5.5499 15.9751L5.5679 15.9823L5.58593 15.9896L5.60393 15.9932L5.62193 15.9968L5.63997 16.0003L5.65797 16.004L5.67597 16.0076H5.7735L5.7879 16.004H5.80231L5.81672 16.0003L5.83112 15.9968L5.84556 15.9932L5.85997 15.9896L5.87437 15.9859L5.88878 15.9788L5.90318 15.9715L5.91759 15.9643L5.932 15.9571L5.9464 15.9499L5.96081 15.9427L5.96803 15.9355L5.97884 15.9283L5.98962 15.9211L6.00043 15.9139L6.02206 15.8959L6.04728 15.8707V16.0765L5.91012 16.1413L5.88853 16.1486L5.8669 16.1558L5.84528 16.163L5.82368 16.1702L5.80206 16.1774L5.78043 16.181L5.75884 16.1846L5.73722 16.1882L5.71559 16.1918L5.694 16.1954L5.66878 16.199H5.4884L5.45959 16.1954L5.43437 16.1918L5.40915 16.1882L5.38393 16.1846L5.35872 16.1774L5.3335 16.1702L5.31187 16.163L5.29028 16.1558L5.26865 16.145L5.24706 16.1342H5.23625L5.21822 16.1233L5.20022 16.1125L5.18222 16.0981L5.16418 16.0801L5.14618 16.0621L5.12815 16.0441L5.11375 16.0261L5.09934 16.0081L5.08853 15.9865L5.07775 15.9648L5.06693 15.9432L5.05612 15.9216L5.0489 15.8964L5.04172 15.8712L5.0345 15.846L5.0309 15.8172L5.02731 15.7883V15.6764L5.0309 15.6584L5.0345 15.6404L5.03812 15.626L5.04172 15.6116L5.04531 15.5972L5.05253 15.5828L5.05972 15.5683L5.06693 15.5539L5.07412 15.5395L5.08134 15.5251L5.08853 15.5107L5.09934 15.4963L5.11015 15.4819L5.12097 15.4675L5.13178 15.4567L5.14259 15.4458L5.15337 15.435L5.16418 15.4243L5.175 15.4134L5.1894 15.4026L5.20743 15.3918H4.9254V15.1499H6.61103V15.1572V15.1566ZM7.33278 15.3985H7.14881V16.4777H6.78059V15.3985H6.54593V15.1566H7.33278V15.3985ZM8.48784 16.1818L8.36512 16.2286L8.3435 16.2358L8.32187 16.243L8.30028 16.2502L8.27865 16.2538L8.25703 16.2574L8.23543 16.261L8.21381 16.2646L8.19218 16.2682L8.17059 16.2718L8.14897 16.2754L8.12737 16.279H8.05147H8.00462H7.8855L7.85665 16.2754L7.82784 16.2718L7.79903 16.2682L7.77381 16.2646L7.74859 16.261L7.72337 16.2538L7.69815 16.2466L7.67656 16.2394L7.65493 16.2322L7.63331 16.225L7.61172 16.2142L7.59009 16.2034L7.5685 16.189L7.54687 16.1746L7.52887 16.1602L7.51084 16.1457L7.49643 16.1313L7.48203 16.1133L7.46762 16.0953L7.45681 16.0773L7.446 16.0593L7.43518 16.0413L7.428 16.0197L7.42078 15.998L7.41718 15.9764L7.41359 15.9548L7.40997 15.9296V15.8609L7.41359 15.8429L7.41718 15.8249L7.42078 15.8068L7.428 15.7888L7.43518 15.7708L7.446 15.7564L7.45681 15.7384L7.46762 15.724L7.48203 15.7096L7.49643 15.6952L7.51084 15.6808L7.52887 15.67L7.54687 15.6592L7.56487 15.6483L7.5865 15.6376L7.60812 15.6268L7.62972 15.6159L7.65134 15.6087L7.67656 15.6015L7.70178 15.5943L7.727 15.5871L7.75581 15.5799L7.78462 15.5763L7.81343 15.5727L7.84225 15.5691L7.87109 15.5655L7.9035 15.5619H8.04784L8.09109 15.5655L8.13431 15.5691L8.17753 15.5727L8.22075 15.5799L8.264 15.5871L8.30722 15.5979L8.35043 15.6087L8.36847 15.6123L8.38647 15.6159L8.40447 15.6195L8.4225 15.6268L8.4405 15.6339L8.45853 15.6412L8.47653 15.6483L8.49453 15.6556V15.8359L8.40422 15.7927L8.37181 15.7819L8.33937 15.7711L8.30697 15.7639L8.27453 15.7567L8.24212 15.7531L8.20968 15.7495H7.98943L7.96784 15.7531L7.94622 15.7567L7.92822 15.7603L7.91018 15.7639L7.89218 15.7675L7.87778 15.7711L7.86337 15.7747L7.84893 15.7783L7.83815 15.7819L7.82734 15.7891L7.81653 15.7963L7.80572 15.8035L7.79853 15.8107L7.79131 15.8179L7.78412 15.8251L7.7769 15.8323L7.76968 15.8395L7.76609 15.8468L7.7625 15.8539L7.7589 15.8648L7.75528 15.872L7.75168 15.8792V15.9479L7.75528 15.9587L7.7589 15.9695L7.7625 15.9803L7.76609 15.9911L7.77331 16.0019L7.7805 16.0127L7.78772 16.0235L7.7949 16.0307L7.80572 16.0415L7.81653 16.0487L7.82734 16.0559L7.83815 16.0631L7.84893 16.0703L7.86337 16.0775L7.88497 16.0848L7.90659 16.092L7.93181 16.0992L7.95703 16.1028L7.98584 16.1064L8.01465 16.11H8.1734L8.19143 16.1064L8.20943 16.1028L8.22743 16.0992L8.24547 16.0956L8.26347 16.092L8.2815 16.0883L8.2995 16.0848L8.3175 16.0775L8.33553 16.0703L8.35353 16.0631L8.37153 16.0559L8.39315 16.0487L8.41115 16.0415L8.42197 16.0343L8.42918 16.0307L8.43637 16.0271L8.45078 16.0199L8.46881 16.0091L8.49403 15.9947V16.1823H8.48681L8.48784 16.1818ZM9.04003 15.1566V15.3985H8.85606V16.4777H8.48784V15.3985H7.29678V15.1566H9.04003ZM10.491 15.3985H10.1048L10.1552 15.4672L10.166 15.4888L10.1768 15.5104L10.1876 15.5321L10.1948 15.5573L10.1984 15.5681L10.202 15.5789L10.2057 15.5897V15.716L10.202 15.7304L10.1984 15.7448L10.1948 15.7593L10.1912 15.7737L10.1876 15.7845L10.184 15.7953L10.1804 15.8061L10.1768 15.8169L10.1696 15.8277L10.1624 15.8385L10.1552 15.8493L10.148 15.8601L10.1408 15.8709L10.1336 15.8818L10.1264 15.8925L10.1192 15.9033L10.1084 15.9178L10.0976 15.9286L10.0867 15.9358L10.076 15.943L10.0652 15.9502L10.0543 15.9574L10.0435 15.9646L10.0327 15.9718L10.0219 15.979L10.0111 15.9862L10.0003 15.9934L9.98231 16.0006L9.96428 16.0078L9.94628 16.015L9.92825 16.0222L9.91025 16.0294L9.89225 16.0366L9.87422 16.0403L9.85622 16.0438L9.83822 16.0474L9.82018 16.051L9.80218 16.0547L9.78415 16.0583L9.76256 16.0618H9.66503L9.68665 16.1087L9.73347 16.1954L9.74068 16.2062L9.7515 16.2134L9.76231 16.2206L9.77309 16.2278L9.7839 16.235L9.79472 16.2386L9.80553 16.2422L9.81634 16.2458H10.2893V16.4841H9.81993L9.7224 16.4769L9.71159 16.4733L9.69718 16.4697L9.6864 16.4661L9.67559 16.4625L9.66478 16.4589L9.65397 16.4553L9.64315 16.4517L9.63234 16.4481L9.62156 16.4445L9.61075 16.4373L9.59993 16.4301L9.58912 16.4228L9.57831 16.4157L9.56753 16.4084L9.56031 16.4013L9.55309 16.394L9.53509 16.376L9.51709 16.3544L9.49906 16.3328L9.48106 16.3076L9.45943 16.2788L9.43784 16.2499L9.41622 16.2175L9.391 16.1815L9.31868 16.0624H9.08043V15.8205H9.67609L9.6905 15.8169L9.70131 15.8133L9.71212 15.8097L9.73012 15.8061L9.74453 15.7989L9.75897 15.7917L9.77337 15.7845L9.78415 15.7773L9.79497 15.7701L9.80578 15.7593L9.81659 15.7484L9.82378 15.7377L9.831 15.7268L9.83822 15.716L9.84181 15.7016L9.8454 15.6872L9.849 15.6728V15.5897L9.8454 15.5753L9.84181 15.5609L9.83822 15.5465L9.83459 15.5321L9.831 15.5177L9.82378 15.5068L9.81659 15.496L9.80937 15.4852L9.80218 15.4744L9.79137 15.4636L9.78056 15.4528L9.76975 15.442L9.75897 15.4312L9.75175 15.4276L9.74093 15.424L9.73012 15.4204L9.71931 15.4168L9.69412 15.4096L9.66528 15.3988H8.97956V15.1569H10.4846V15.3988H10.4918L10.491 15.3985ZM12.2018 15.1566H11.8951V15.1386L11.8915 15.1206L11.8879 15.1026L11.8807 15.0846L11.8735 15.0666L11.8663 15.0486L11.8555 15.0306L11.8447 15.0125L11.8303 14.9945L11.8159 14.9765L11.7979 14.9585L11.7798 14.9405L11.7618 14.9225L11.7402 14.9045L11.7186 14.8865L11.6934 14.8685L11.6718 14.8504L11.6502 14.836L11.6286 14.8216L11.6033 14.8072L11.5781 14.7964L11.5529 14.7856L11.5277 14.7748L11.5025 14.764L11.4772 14.7568L11.452 14.7496L11.4232 14.7424L11.3944 14.7388L11.3656 14.7352L11.3368 14.7316H11.1888L11.1708 14.7352L11.1564 14.7388L11.142 14.7424L11.1276 14.746L11.1132 14.7496L11.0987 14.7568L11.0843 14.764L11.0735 14.7712L11.0627 14.7784L11.0519 14.7856L11.0411 14.7928L11.0303 14.8L11.0231 14.8072L11.0159 14.818L11.0087 14.8288L11.0015 14.8396L10.9943 14.8504L10.9871 14.8613L10.9763 14.8721L10.9727 14.8829L10.9691 14.8937L10.9655 14.9045L10.9619 14.9189L10.9583 14.9333V14.9765L10.9691 15.0777L10.9727 15.0884L10.9763 15.0993L10.9799 15.1101L10.9835 15.1173L10.9871 15.1245L10.9943 15.1353L11.0015 15.1461L11.0123 15.1605H11.2182V15.4024H11.0342V16.4815H10.6696V15.4024H10.4349V15.1605H10.6732L10.6624 15.1353L10.6552 15.1101L10.648 15.0848L10.6407 15.0596L10.6372 15.0344L10.6335 15.0092L10.6299 14.984V14.9336L10.6335 14.9083L10.6372 14.8831L10.6407 14.8579L10.648 14.8327L10.6552 14.8111L10.6624 14.7895L10.6696 14.7678L10.6804 14.7462L10.6912 14.7282L10.7056 14.7102L10.72 14.6922L10.7344 14.6742L10.7524 14.6562L10.7704 14.6418L10.7884 14.6273L10.8101 14.6129L10.8317 14.5985L10.8533 14.5877L10.8749 14.5769L10.9001 14.5661L10.9253 14.5553L10.9506 14.5481L10.9758 14.5409L11.0046 14.5337L11.0334 14.5265L11.0622 14.5229L11.0947 14.5193L11.1271 14.5157L11.1595 14.5121H11.2714L11.311 14.5157L11.3507 14.5193L11.3903 14.5229L11.4299 14.5301L11.4659 14.5373L11.502 14.5445L11.538 14.5553L11.574 14.5661L11.61 14.5769L11.6461 14.5913L11.6785 14.6058L11.7109 14.6238L11.7433 14.6418L11.7757 14.6598L11.8082 14.6814L11.8298 14.6958L11.8514 14.7102L11.873 14.7282L11.891 14.7462L11.909 14.7643L11.927 14.7823L11.9451 14.8003L11.9631 14.8183L11.9811 14.8399L11.9991 14.8615L12.0171 14.8831L12.0351 14.9047L12.0531 14.9263L12.0711 14.948L12.0891 14.9732L12.1072 14.9984L12.2011 15.1572L12.2018 15.1566ZM12.2127 15.9147V15.7595H11.7832L11.7652 15.7631L11.7472 15.7667L11.7292 15.7703L11.7147 15.7739L11.7003 15.7811L11.6895 15.7883L11.6823 15.7955L11.6751 15.7991L11.6679 15.8063L11.6607 15.8099L11.6571 15.8172L11.6535 15.8243L11.6499 15.8316L11.6463 15.8388L11.6427 15.846L11.6391 15.8532L11.6355 15.8604V15.8676L11.6319 15.8748V15.936L11.6355 15.9468L11.6391 15.954L11.6427 15.9613L11.6463 15.9684L11.6499 15.9757L11.6535 15.9828L11.6607 15.9901L11.6679 15.9973L11.6751 16.0045L11.6823 16.0081L11.6895 16.0117L11.6967 16.0153L11.7076 16.0189L11.7256 16.0261L11.7472 16.0333L11.7724 16.0369L11.8012 16.0405L11.83 16.0441L11.8624 16.0477H11.9888L12.0176 16.0441L12.0428 16.0405L12.068 16.0333L12.0932 16.0261L12.1041 16.0225L12.1149 16.0189L12.1257 16.0153L12.1365 16.0117L12.1545 16.0009L12.1725 15.9901L12.1869 15.9793L12.1977 15.9684L12.2013 15.9648L12.2049 15.9613L12.2085 15.954L12.2121 15.9504L12.2157 15.9432V15.9144H12.2121L12.2127 15.9147ZM13.4326 15.1566V15.3985H13.2486V16.4777H12.884V15.3985H12.5628V15.9183L12.5592 15.9327L12.5557 15.9471L12.552 15.9615L12.5448 15.9759L12.5376 15.9903L12.5304 16.0047L12.5232 16.0191L12.516 16.0335L12.5052 16.048L12.4944 16.0624L12.4836 16.0768L12.4692 16.0876L12.4548 16.0984L12.4404 16.1092L12.4187 16.1236L12.3935 16.138L12.3683 16.1524L12.3467 16.1704L12.3179 16.1813L12.2891 16.1921L12.2602 16.2028L12.2278 16.2101L12.1954 16.2173L12.163 16.2245L12.127 16.2317L12.0909 16.2353L12.0549 16.2389L12.0153 16.2425H11.8241L11.7881 16.2389L11.7557 16.2353L11.7232 16.2317L11.6944 16.2281L11.6656 16.2245L11.6368 16.2209L11.608 16.2137L11.5827 16.2065L11.5575 16.1993L11.5323 16.1921L11.5107 16.1848L11.4891 16.174L11.4711 16.1632L11.4495 16.1524L11.4278 16.138L11.4098 16.1236L11.3918 16.1092L11.381 16.102L11.3738 16.0948L11.3666 16.0876L11.3594 16.0804L11.3522 16.0732L11.345 16.066L11.3378 16.0588L11.3306 16.048L11.3234 16.0408L11.3162 16.0299L11.3126 16.0228L11.309 16.0119L11.3054 16.0011L11.3018 15.9903L11.2982 15.9795L11.2946 15.9687L11.291 15.9471L11.2874 15.9255L11.2837 15.9003V15.8462L11.2874 15.8318L11.291 15.8174L11.2946 15.803L11.2982 15.7886L11.3018 15.7742L11.309 15.7634L11.3162 15.7526L11.3234 15.7418L11.3306 15.7309L11.3378 15.7202L11.3486 15.7093L11.3594 15.6985L11.3702 15.6877L11.381 15.6769L11.3954 15.6697L11.4098 15.6625L11.4242 15.6553L11.4387 15.6481L11.4531 15.6409L11.4711 15.6337L11.4891 15.6301L11.5071 15.6265L11.5251 15.6229L11.5431 15.6193L11.5612 15.6157L11.5827 15.6121L11.6044 15.6085H12.2144V15.399H11.1821V15.1572H13.4343L13.4326 15.1566ZM13.0355 16.189L12.5374 16.586L12.2739 16.4164L13.0391 15.9798V16.1892L13.0355 16.189ZM15.1542 15.3985H14.7427V15.7775H14.0099L13.9919 15.7811L13.9739 15.7847L13.9595 15.7883L13.9451 15.7919H13.9379L13.9307 15.7955L13.9235 15.7991L13.9163 15.8028L13.9127 15.8063L13.9091 15.8099L13.9055 15.8136L13.9019 15.8172L13.8983 15.8208L13.8947 15.828L13.8911 15.8352L13.8875 15.8424V15.9075L13.8911 15.9111L13.8947 15.9147L13.8983 15.9183L13.9019 15.9219L13.9055 15.9255L13.9091 15.9291L13.9127 15.9327L13.9163 15.9363L13.9235 15.9399H13.9307L13.9379 15.9435L14.0895 15.9543H14.6705L14.6957 15.9579L14.7209 15.9615L14.7461 15.9651L14.7677 15.9687L14.7893 15.9723L14.8073 15.9795L14.8254 15.9867L14.8434 15.9939L14.8614 16.0011L14.8758 16.0083L14.8902 16.0191L14.901 16.0263L14.9118 16.0335L14.9226 16.0443L14.9298 16.0516L14.937 16.0624L14.9442 16.0732L14.9514 16.084L14.9587 16.0948L14.9622 16.1056L14.9658 16.12L14.9694 16.1308L14.9731 16.1452L14.9767 16.1596L14.9802 16.174V16.2716L14.9767 16.2824L14.9731 16.2932L14.9694 16.304L14.9658 16.3148L14.9622 16.3256L14.9587 16.3364L14.9514 16.3472L14.9442 16.358L14.937 16.3688L14.9298 16.3796L14.9226 16.3904L14.9154 16.3976L14.9082 16.4084L14.8974 16.4193L14.8866 16.4265L14.8758 16.4337L14.865 16.4409L14.8542 16.4481L14.8434 16.4553L14.8326 16.4625L14.8217 16.4697L14.8073 16.4769L14.7929 16.4841L14.7785 16.4913L14.7497 16.5021L14.7173 16.5129L14.6921 16.5201L14.6668 16.5273L14.6417 16.5345L14.6128 16.5417L14.584 16.5453L14.5552 16.5489L14.5264 16.5525L14.4939 16.5561L14.4615 16.5598L14.4291 16.5633L14.3931 16.5669L14.3571 16.5706H14.0828L14.0251 16.5669L13.9711 16.5633L13.9171 16.5598L13.8666 16.5525L13.8198 16.5453L13.773 16.5381L13.7297 16.5309L13.6865 16.5201L13.6685 16.5129L13.6505 16.5057L13.6325 16.4985L13.6145 16.4913L13.5965 16.4841L13.5784 16.4769L13.5604 16.4697L13.5424 16.4625L13.528 16.4553L13.5136 16.4481L13.4992 16.4409L13.4848 16.4337L13.3909 16.3506L13.6363 16.2026L13.6399 16.2098L13.6472 16.217L13.6543 16.2242L13.6616 16.2314L13.6724 16.2386L13.6832 16.2458L13.694 16.253L13.7084 16.2638L13.73 16.2783L13.7552 16.2927L13.7804 16.3071L13.8092 16.3179L13.8381 16.3287L13.8669 16.3395L13.8993 16.3467L13.9317 16.3539L13.9677 16.3611L14.0038 16.3683L14.0398 16.3755L14.0758 16.3791L14.1154 16.3827L14.1551 16.3863H14.2778L14.3138 16.3827L14.3462 16.3791L14.3787 16.3755L14.4111 16.3683L14.4435 16.3611L14.4759 16.3503L14.5047 16.3395L14.5192 16.3359L14.5336 16.3287L14.548 16.3215L14.5588 16.3143L14.5696 16.3071L14.5804 16.2999L14.5912 16.2927L14.5984 16.2854L14.6056 16.2783L14.6128 16.271L14.62 16.2603L14.6236 16.253L14.6272 16.2422L14.6308 16.2314V16.1882L14.6272 16.1774L14.6236 16.1702L14.6164 16.1594L14.6092 16.1522L14.602 16.145L14.5912 16.1378L14.5804 16.1306L14.5696 16.1233L14.5588 16.1198L14.548 16.1162L14.5336 16.1125L14.5192 16.1089H13.8802L13.8587 16.1053L13.8406 16.1017L13.8226 16.0981L13.8046 16.0945L13.7866 16.0909L13.7686 16.0873L13.7506 16.0837L13.7326 16.0765L13.7182 16.0693L13.7037 16.0621L13.6893 16.0549L13.6713 16.0441L13.6533 16.0333L13.6389 16.0225L13.6245 16.0117L13.6101 16.0009L13.5993 15.9865L13.5885 15.9721L13.5813 15.9576L13.5705 15.9432L13.5632 15.9288L13.5561 15.9144L13.5525 15.9L13.5488 15.882L13.5452 15.864V15.7991L13.5488 15.7847L13.5525 15.7703L13.5561 15.7559L13.5632 15.7415L13.5705 15.7271L13.5813 15.7163L13.5921 15.7055L13.6029 15.6947L13.6137 15.6839L13.6281 15.6731L13.6425 15.6623L13.6569 15.6514L13.6749 15.6406L13.6929 15.6298L13.711 15.6226L13.7254 15.6154L13.7434 15.6082L13.7614 15.601L13.7794 15.5974L13.7974 15.5938L13.8154 15.5902L13.8334 15.5866L13.8514 15.583L13.8695 15.5794L13.8875 15.5758H14.4288V15.3736H13.3893V15.1317H15.1614V15.3988L15.1542 15.3985Z" fill="currentColor"/>
</g>
<defs>
<clipPath id="clip0_3396_54282">
<rect width="19.375" height="19.375" fill="currentColor" transform="scale(1.03226)"/>
</clipPath>
</defs>
</svg>
