<svg width="24" height="24" viewBox="0 0 24 24" fill="none" xmlns="http://www.w3.org/2000/svg">
<g clip-path="url(#clip0_6032_3399)">
<path d="M8.06448 21.9405L9.33194 21.2023L9.35547 12.583L8.09095 13.3211L8.06448 21.9405Z" fill="currentColor" stroke="currentColor" stroke-width="0.075"/>
<path d="M8.09095 13.321L9.35547 12.5829L8.0733 11.8447L6.80878 12.5799L8.09095 13.321Z" fill="currentColor" stroke="currentColor" stroke-width="0.075"/>
<path d="M6.80865 12.5801L6.78219 21.1994L8.06435 21.9405L8.09082 13.3211L6.80865 12.5801Z" fill="currentColor" stroke="currentColor" stroke-width="0.075"/>
<path d="M11.1721 12.9562L2.5939 7.97168L2.60861 13.1209L11.1868 18.1055L11.1721 12.9562Z" fill="currentColor" stroke="currentColor" stroke-width="0.075"/>
<path d="M13.566 8.13961C13.5249 8.1749 13.4837 8.21019 13.4455 8.24548C13.3808 8.30135 13.319 8.35723 13.2573 8.41604C13.2161 8.45721 13.1749 8.49838 13.1338 8.53955C13.0749 8.59837 13.0161 8.66012 12.9602 8.72188C12.925 8.76305 12.8897 8.80128 12.8514 8.84245C12.7603 8.94832 12.6691 9.06006 12.5838 9.17181C12.5662 9.19534 12.5485 9.21592 12.5309 9.23945C12.4368 9.3659 12.3486 9.4953 12.2603 9.62763C12.2398 9.66292 12.2192 9.69527 12.1957 9.73056C12.1339 9.83054 12.0721 9.93347 12.0133 10.0393C11.9869 10.0864 11.9604 10.1334 11.9369 10.1805C11.8839 10.2775 11.8369 10.3775 11.7898 10.4746C11.7692 10.5216 11.7457 10.5657 11.7251 10.6128C11.6693 10.7363 11.6193 10.8598 11.5693 10.9833C11.5605 11.0039 11.5516 11.0274 11.5428 11.048C11.4899 11.195 11.4399 11.3391 11.3987 11.4862C11.3869 11.5274 11.3752 11.5715 11.3664 11.6126C11.337 11.7185 11.3105 11.8244 11.2899 11.9302C11.2781 11.9802 11.2693 12.0302 11.2605 12.0802C11.2429 12.1831 11.2252 12.2861 11.2134 12.3861C11.2076 12.4302 11.2017 12.4772 11.1958 12.5213C11.1811 12.6654 11.1723 12.8066 11.1752 12.9477L2.59705 7.96317C2.59705 7.82201 2.60587 7.68085 2.61764 7.53676C2.62058 7.49265 2.6294 7.44853 2.63528 7.40148C2.64704 7.29856 2.66175 7.19857 2.68233 7.09564C2.69116 7.04565 2.69998 6.99566 2.71174 6.94567C2.73527 6.8398 2.76173 6.73393 2.7882 6.62513C2.79996 6.58395 2.80879 6.54278 2.82055 6.50161C2.86466 6.35458 2.91171 6.20754 2.96465 6.06344C2.97347 6.04286 2.98229 6.02227 2.99111 6.00169C3.03817 5.87523 3.0911 5.75172 3.14697 5.62821C3.16756 5.58116 3.19108 5.53411 3.21167 5.49C3.25872 5.39001 3.30871 5.29297 3.35871 5.19592C3.38517 5.14887 3.4087 5.10182 3.43516 5.05477C3.49398 4.9489 3.55574 4.84891 3.61749 4.74599C3.63808 4.7107 3.65866 4.67835 3.67925 4.64306C3.76453 4.51073 3.85569 4.38133 3.94979 4.25488C3.95274 4.249 3.95862 4.24312 3.96156 4.23724C3.97332 4.21959 3.98802 4.20489 4.00273 4.18725C4.08801 4.07256 4.17917 3.96375 4.27034 3.85494C4.28504 3.8373 4.29975 3.81671 4.31739 3.79613C4.33797 3.7726 4.35856 3.75496 4.3762 3.73143C4.43208 3.66967 4.49089 3.60792 4.54971 3.5491C4.59088 3.50793 4.63205 3.46676 4.67322 3.42559C4.73498 3.36678 4.79967 3.3109 4.86143 3.25503C4.9026 3.21974 4.94083 3.18151 4.982 3.14916C5.05258 3.09035 5.12609 3.03447 5.19667 2.98154C5.23196 2.95507 5.26725 2.92566 5.30254 2.90214C5.41135 2.82568 5.5231 2.75216 5.63484 2.68746C6.48472 2.19636 7.2552 2.15225 7.811 2.47573L16.3892 7.4603C15.8334 7.13682 15.0629 7.18387 14.213 7.67203C14.1013 7.73673 13.9895 7.81025 13.8807 7.88671C13.8454 7.91317 13.8101 7.93964 13.7748 7.96611C13.7013 8.01904 13.6307 8.07491 13.5572 8.13373L13.566 8.13961Z" fill="currentColor" stroke="currentColor" stroke-width="0.075"/>
<path d="M14.2218 7.67758C15.9098 6.70125 17.2831 7.48643 17.289 9.42732L17.3037 14.5766L11.187 18.1084L11.1723 12.9592C11.1664 11.0183 12.5309 8.65391 14.2218 7.67758Z" fill="currentColor" stroke="currentColor" stroke-width="0.075"/>
<path d="M16.8979 14.3415L16.8832 9.42753C16.8803 8.32181 16.398 7.66309 15.5923 7.66309C15.2423 7.66309 14.8365 7.78954 14.4248 8.02774C12.8515 8.93643 11.5752 11.1479 11.5781 12.9564L11.5899 17.4058L16.895 14.3415H16.8979Z" fill="currentColor" stroke="currentColor" stroke-width="0.075"/>
<path d="M11.1865 18.1031L17.2945 14.5771L21.7409 17.1621C23.4171 18.1355 23.4083 19.7146 21.7203 20.688C20.0352 21.6614 17.3092 21.6614 15.6329 20.688L11.1865 18.1031Z" fill="currentColor" stroke="currentColor" stroke-width="0.075"/>
<path d="M18.6737 21.0206C19.7559 21.0206 20.7675 20.7794 21.5262 20.3442C22.2173 19.9443 22.5996 19.4384 22.5996 18.9179C22.5996 18.4004 22.2261 17.8975 21.5439 17.5034L17.2945 15.0332L11.9747 18.1033L15.8329 20.3442C16.5828 20.7794 17.5915 21.0206 18.6737 21.0206Z" fill="currentColor" stroke="currentColor" stroke-width="0.075"/>
<path d="M16.8154 14.3575L11.8209 11.4443" stroke="currentColor" stroke-width="0.075"/>
<mask id="mask0_6032_3399" style="mask-type:alpha" maskUnits="userSpaceOnUse" x="11" y="7" width="11" height="14">
<path d="M21.6433 17.4634V16.6973C21.6404 15.5915 16.444 7.7207 15.6382 7.7207C15.2882 7.7207 14.8824 7.84716 14.4707 8.08536C12.8974 8.99405 11.6211 11.2055 11.624 13.014L11.6358 17.4634L16.9434 20.4085L21.6433 17.4634Z" fill="currentColor"/>
</mask>
<g mask="url(#mask0_6032_3399)">
<path d="M20.9686 16.4364C20.9628 16.4452 20.954 16.4525 20.9423 16.4598L16.7908 18.8722L16.7878 19.706L20.9394 17.2936C20.9394 17.2936 20.9394 17.2936 20.9409 17.2936C20.9467 17.2907 20.9526 17.2863 20.9569 17.2819C20.9599 17.279 20.9628 17.2761 20.9642 17.2732C20.9642 17.2732 20.9642 17.2717 20.9657 17.2703C20.9657 17.2703 20.9672 17.2673 20.9686 17.2659C20.9686 17.263 20.9715 17.2615 20.9715 17.2586C20.9715 17.2557 20.973 17.2542 20.973 17.2513C20.973 17.2484 20.973 17.2469 20.973 17.244L20.9759 16.4102C20.9759 16.4189 20.973 16.4277 20.9672 16.4364H20.9686Z" fill="currentColor" stroke="currentColor" stroke-width="0.075"/>
<path d="M15.0531 13.7771C14.2938 13.7523 13.5198 13.91 12.9415 14.2459C12.3633 14.5818 12.0931 15.0315 12.1384 15.4711C12.1457 15.5426 11.9865 15.5894 11.9004 15.5397L9.70118 14.2693C9.65299 14.2415 9.65299 14.1962 9.70118 14.1685L12.7984 12.3694C12.8466 12.3417 12.924 12.3417 12.9737 12.3694L15.1728 13.6399C15.259 13.6895 15.1787 13.783 15.056 13.7786L15.0531 13.7771Z" fill="currentColor" stroke="currentColor" stroke-width="0.075"/>
<path d="M16.6404 14.3644C17.6042 14.9208 17.6057 15.8247 16.6448 16.384C15.6825 16.9433 14.1214 16.9447 13.1576 16.3884C12.1924 15.8305 12.1909 14.9281 13.1533 14.3688C14.1156 13.8095 15.6766 13.8081 16.6404 14.3644Z" fill="currentColor" stroke="currentColor" stroke-width="0.075"/>
<path d="M20.5191 16.3607C20.5673 16.3884 20.5673 16.4337 20.5191 16.4615L16.7896 18.6285C16.7414 18.6563 16.664 18.6563 16.6143 18.6285L9.06617 14.271C9.01798 14.2433 9.01798 14.198 9.06617 14.1703L12.7957 12.0032C12.8439 11.9755 12.9213 11.9755 12.971 12.0032L20.5191 16.3607ZM13.1579 16.3899C14.1217 16.9463 15.6827 16.9448 16.645 16.3855C17.6059 15.8262 17.6044 14.9223 16.6406 14.366C15.6754 13.8081 14.1144 13.8111 13.1535 14.3703C12.1926 14.9296 12.1941 15.8335 13.1579 16.3899ZM11.8991 15.54C11.9853 15.5897 12.1459 15.5429 12.1371 15.4714C12.0933 15.0318 12.3606 14.5835 12.9403 14.2462C13.52 13.9089 14.2925 13.7526 15.0519 13.7775C15.1745 13.7818 15.2563 13.6899 15.1687 13.6387L12.9695 12.3683C12.9213 12.3406 12.8425 12.3406 12.7943 12.3683L9.69701 14.1674C9.64882 14.1951 9.64882 14.2404 9.69701 14.2681L11.8962 15.5386M16.7896 18.262L19.8868 16.4629C19.935 16.4352 19.935 16.3899 19.8868 16.3622L17.8994 15.2144C17.8118 15.1633 17.6526 15.2115 17.6599 15.2816C17.7037 15.7211 17.4365 16.1694 16.8568 16.5067C16.277 16.8441 15.5031 17.0003 14.7437 16.9755C14.6211 16.9711 14.5393 17.0631 14.6269 17.1142L16.6143 18.262C16.6625 18.2897 16.7414 18.2897 16.7896 18.262Z" fill="currentColor"/>
<path d="M11.8991 15.54C11.9853 15.5897 12.1459 15.5429 12.1371 15.4714C12.0933 15.0318 12.3606 14.5835 12.9403 14.2462C13.52 13.9089 14.2925 13.7526 15.0519 13.7775C15.1745 13.7818 15.2563 13.6899 15.1687 13.6387L12.9695 12.3683C12.9213 12.3406 12.8425 12.3406 12.7943 12.3683L9.69701 14.1674C9.64882 14.1951 9.64882 14.2404 9.69701 14.2681L11.8962 15.5386M20.5191 16.3607C20.5673 16.3884 20.5673 16.4337 20.5191 16.4615L16.7896 18.6285C16.7414 18.6563 16.664 18.6563 16.6143 18.6285L9.06617 14.271C9.01798 14.2433 9.01798 14.198 9.06617 14.1703L12.7957 12.0032C12.8439 11.9755 12.9213 11.9755 12.971 12.0032L20.5191 16.3607ZM13.1579 16.3899C14.1217 16.9463 15.6827 16.9448 16.645 16.3855C17.6059 15.8262 17.6044 14.9223 16.6406 14.366C15.6754 13.8081 14.1144 13.8111 13.1535 14.3703C12.1926 14.9296 12.1941 15.8335 13.1579 16.3899ZM16.7896 18.262L19.8868 16.4629C19.935 16.4352 19.935 16.3899 19.8868 16.3622L17.8994 15.2144C17.8118 15.1633 17.6526 15.2115 17.6599 15.2816C17.7037 15.7211 17.4365 16.1694 16.8568 16.5067C16.277 16.8441 15.5031 17.0003 14.7437 16.9755C14.6211 16.9711 14.5393 17.0631 14.6269 17.1142L16.6143 18.262C16.6625 18.2897 16.7414 18.2897 16.7896 18.262Z" stroke="currentColor" stroke-width="0.075"/>
<path d="M19.8848 16.3617C19.933 16.3895 19.933 16.4347 19.8848 16.4625L16.7875 18.2615C16.7393 18.2893 16.6619 18.2893 16.6123 18.2615L14.6248 17.1138C14.5387 17.0641 14.619 16.9707 14.7417 16.975C15.501 16.9999 16.275 16.8422 16.8547 16.5063C17.4344 16.1704 17.7017 15.7221 17.6578 15.2811C17.6505 15.2096 17.8097 15.1628 17.8973 15.2139L19.8848 16.3617Z" fill="currentColor" stroke="currentColor" stroke-width="0.075"/>
<path d="M20.9406 16.3604C20.9888 16.3882 20.9888 16.4334 20.9406 16.4612L16.789 18.8736C16.7393 18.9028 16.6619 18.9028 16.6138 18.8736L8.6421 14.2708C8.59391 14.243 8.59391 14.1977 8.6421 14.1685L12.7937 11.7562C12.8419 11.7284 12.9193 11.7284 12.9689 11.7562L20.9406 16.359V16.3604ZM16.789 18.6297L20.5185 16.4626C20.5667 16.4349 20.5667 16.3896 20.5185 16.3619L12.9704 12.0044C12.9222 11.9767 12.8433 11.9767 12.7951 12.0044L9.06558 14.1715C9.01739 14.1992 9.01739 14.2445 9.06558 14.2722L16.6138 18.6297C16.6619 18.6574 16.7408 18.6574 16.789 18.6297Z" fill="currentColor" stroke="currentColor" stroke-width="0.075"/>
<path d="M16.7514 18.8882C16.7514 18.8882 16.747 18.8882 16.7455 18.8897C16.7324 18.8926 16.7178 18.8941 16.7032 18.8941C16.7032 18.8941 16.7032 18.8941 16.7017 18.8941C16.6871 18.8941 16.6711 18.8926 16.6565 18.8897C16.6565 18.8897 16.6565 18.8897 16.655 18.8897C16.6404 18.8868 16.6273 18.8809 16.6156 18.8736L8.64392 14.2708C8.61909 14.2562 8.60741 14.2387 8.60741 14.2197L8.60449 15.0535C8.60449 15.0725 8.61617 15.0901 8.641 15.1047L16.6127 19.7075C16.6127 19.7075 16.6243 19.7133 16.6302 19.7162C16.6346 19.7177 16.6404 19.7191 16.6448 19.7206C16.6477 19.7206 16.6492 19.7206 16.6521 19.7221C16.6521 19.7221 16.6521 19.7221 16.6535 19.7221C16.6535 19.7221 16.6565 19.7221 16.6579 19.7221C16.6623 19.7221 16.6667 19.7235 16.6696 19.7235C16.674 19.7235 16.6769 19.7235 16.6813 19.7235C16.6857 19.7235 16.6901 19.7235 16.693 19.7235C16.6944 19.7235 16.6959 19.7235 16.6974 19.7235C16.6974 19.7235 16.6974 19.7235 16.6988 19.7235C16.7003 19.7235 16.7032 19.7235 16.7047 19.7235C16.709 19.7235 16.7134 19.7235 16.7178 19.7235C16.7236 19.7235 16.728 19.7235 16.7339 19.7206C16.7368 19.7206 16.7382 19.7206 16.7412 19.7191C16.7426 19.7191 16.7455 19.7191 16.747 19.7177C16.7499 19.7177 16.7543 19.7162 16.7572 19.7148C16.7674 19.7118 16.7762 19.7075 16.785 19.7031L16.7879 18.8693C16.7762 18.8766 16.7631 18.8809 16.7499 18.8839L16.7514 18.8882Z" fill="currentColor" stroke="currentColor" stroke-width="0.075"/>
<path d="M13.4932 15.1413L13.672 15.2454L13.734 15.2099C13.8291 15.1551 13.92 15.1142 14.0054 15.0883C14.0939 15.0612 14.1794 15.0492 14.2631 15.0528C14.3456 15.0546 14.4274 15.0721 14.5093 15.1046L13.9675 15.417L14.1463 15.5211L14.6905 15.2069C14.7579 15.2545 14.7928 15.302 14.7964 15.3496C14.8001 15.3977 14.7766 15.4465 14.726 15.4971C14.6772 15.5464 14.6032 15.6 14.5045 15.6572L14.4425 15.6927L14.5653 15.7643L16.0166 15.9931L16.3026 15.8282L14.8873 15.6265C15.0168 15.5284 15.089 15.4315 15.104 15.3363C15.1197 15.2388 15.0661 15.1473 14.9433 15.0606L15.3081 14.8499L15.1293 14.7458L14.7591 14.9595C14.6863 14.9258 14.6122 14.9035 14.5352 14.8915C14.4581 14.8794 14.3811 14.8758 14.3028 14.88L14.8332 14.5748L14.6544 14.4707L13.4932 15.1413Z" fill="currentColor" stroke="currentColor" stroke-width="0.075"/>
</g>
<circle cx="19.7995" cy="4.05" r="1.8" fill="currentColor"/>
</g>
<defs>
<clipPath id="clip0_6032_3399">
<rect width="24" height="24" fill="currentColor"/>
</clipPath>
</defs>
</svg>
