<svg width="24" height="24" viewBox="0 0 24 24" fill="none" xmlns="http://www.w3.org/2000/svg">
<g clip-path="url(#clip0_4018_69180)">
<g clip-path="url(#clip1_4018_69180)">
<path d="M15.9353 21.9395L14.6678 21.2014L14.6443 12.582L15.9088 13.3202L15.9353 21.9395Z" fill="currentColor" stroke="currentColor" stroke-width="0.12"/>
<path d="M15.9088 13.32L14.6442 12.5819L15.9264 11.8438L17.1909 12.5789L15.9088 13.32Z" fill="currentColor" stroke="currentColor" stroke-width="0.12"/>
<path d="M17.191 12.5791L17.2175 21.1984L15.9353 21.9395L15.9088 13.3202L17.191 12.5791Z" fill="currentColor" stroke="currentColor" stroke-width="0.12"/>
<path d="M12.8269 12.9553L21.4051 7.9707L21.3904 13.12L12.8122 18.1045L12.8269 12.9553Z" fill="currentColor" stroke="currentColor" stroke-width="0.12"/>
<path d="M10.4331 8.13766C10.4743 8.17295 10.5155 8.20824 10.5537 8.24352C10.6184 8.2994 10.6801 8.35527 10.7419 8.41409C10.7831 8.45526 10.8242 8.49643 10.8654 8.5376C10.9242 8.59641 10.983 8.65817 11.0389 8.71993C11.0742 8.7611 11.1095 8.79933 11.1477 8.8405C11.2389 8.94636 11.3301 9.05811 11.4153 9.16986C11.433 9.19339 11.4506 9.21397 11.4683 9.2375C11.5624 9.36395 11.6506 9.49334 11.7388 9.62568C11.7594 9.66096 11.78 9.69331 11.8035 9.7286C11.8653 9.82859 11.927 9.93151 11.9858 10.0374C12.0123 10.0844 12.0388 10.1315 12.0623 10.1785C12.1152 10.2756 12.1623 10.3756 12.2093 10.4726C12.2299 10.5197 12.2534 10.5638 12.274 10.6108C12.3299 10.7343 12.3799 10.8578 12.4299 10.9814C12.4387 11.0019 12.4475 11.0255 12.4564 11.0461C12.5093 11.1931 12.5593 11.3372 12.6005 11.4842C12.6122 11.5254 12.624 11.5695 12.6328 11.6107C12.6622 11.7165 12.6887 11.8224 12.7093 11.9283C12.721 11.9783 12.7298 12.0283 12.7387 12.0783C12.7563 12.1812 12.774 12.2841 12.7857 12.3841C12.7916 12.4282 12.7975 12.4753 12.8034 12.5194C12.8181 12.6635 12.8269 12.8046 12.824 12.9458L21.4021 7.96121C21.4021 7.82006 21.3933 7.6789 21.3815 7.5348C21.3786 7.49069 21.3698 7.44658 21.3639 7.39953C21.3521 7.2966 21.3374 7.19662 21.3168 7.09369C21.308 7.0437 21.2992 6.99371 21.2874 6.94371C21.2639 6.83785 21.2374 6.73198 21.211 6.62317C21.1992 6.582 21.1904 6.54083 21.1786 6.49966C21.1345 6.35262 21.0875 6.20559 21.0345 6.06149C21.0257 6.0409 21.0169 6.02032 21.0081 5.99973C20.961 5.87328 20.9081 5.74977 20.8522 5.62626C20.8316 5.57921 20.8081 5.53215 20.7875 5.48804C20.7404 5.38806 20.6905 5.29101 20.6405 5.19397C20.614 5.14692 20.5905 5.09986 20.564 5.05281C20.5052 4.94695 20.4434 4.84696 20.3817 4.74403C20.3611 4.70875 20.3405 4.6764 20.3199 4.64111C20.2346 4.50877 20.1435 4.37938 20.0494 4.25293C20.0464 4.24705 20.0405 4.24117 20.0376 4.23528C20.0258 4.21764 20.0111 4.20294 19.9964 4.18529C19.9112 4.0706 19.82 3.9618 19.7288 3.85299C19.7141 3.83534 19.6994 3.81476 19.6818 3.79417C19.6612 3.77065 19.6406 3.753 19.623 3.72948C19.5671 3.66772 19.5083 3.60596 19.4495 3.54715C19.4083 3.50598 19.3671 3.46481 19.3259 3.42364C19.2642 3.36482 19.1995 3.30895 19.1377 3.25308C19.0966 3.21779 19.0583 3.17956 19.0172 3.14721C18.9466 3.08839 18.8731 3.03252 18.8025 2.97959C18.7672 2.95312 18.7319 2.92371 18.6966 2.90019C18.5878 2.82373 18.4761 2.75021 18.3643 2.68551C17.5144 2.19441 16.744 2.15029 16.1882 2.47378L7.61 7.45834C8.16581 7.13486 8.93628 7.18191 9.78616 7.67008C9.89791 7.73478 10.0097 7.80829 10.1185 7.88475C10.1538 7.91122 10.189 7.93769 10.2243 7.96415C10.2978 8.01709 10.3684 8.07296 10.4419 8.13178L10.4331 8.13766Z" fill="currentColor" stroke="currentColor" stroke-width="0.12"/>
<path d="M9.77741 7.6766C8.08942 6.70027 6.71609 7.48545 6.71021 9.42635L6.6955 14.5756L12.8123 18.1074L12.827 12.9582C12.8328 11.0173 11.4683 8.65293 9.77741 7.6766Z" fill="currentColor" stroke="currentColor" stroke-width="0.12"/>
<path d="M7.10119 14.3405L7.1159 9.42656C7.11884 8.32084 7.60112 7.66211 8.40689 7.66211C8.75683 7.66211 9.16266 7.78856 9.57436 8.02676C11.1477 8.93545 12.4239 11.1469 12.421 12.9555L12.4092 17.4048L7.10413 14.3405H7.10119Z" fill="currentColor" stroke="currentColor" stroke-width="0.12"/>
<path d="M12.8121 18.1012L6.70418 14.5752L2.25777 17.1601C0.581541 18.1335 0.590363 19.7127 2.27835 20.6861C3.9634 21.6595 6.68947 21.6595 8.3657 20.6861L12.8121 18.1012Z" fill="currentColor" stroke="currentColor" stroke-width="0.12"/>
<path d="M5.32505 21.0176C4.24285 21.0176 3.23123 20.7765 2.47252 20.3413C1.78144 19.9413 1.39915 19.4355 1.39915 18.915C1.39915 18.3974 1.77262 17.8946 2.45488 17.5005L6.70426 15.0303L12.0241 18.1004L8.16581 20.3413C7.41592 20.7765 6.40724 21.0176 5.32505 21.0176Z" fill="currentColor" stroke="currentColor" stroke-width="0.12"/>
<path d="M7.18419 14.3565L12.1787 11.4434" stroke="currentColor" stroke-width="0.12"/>
<mask id="mask0_4018_69180" style="mask-type:alpha" maskUnits="userSpaceOnUse" x="2" y="7" width="11" height="14">
<path d="M2.35602 17.4624V16.6963C2.35896 15.5906 7.55538 7.71973 8.36114 7.71973C8.71109 7.71973 9.11691 7.84618 9.52862 8.08438C11.1019 8.99307 12.3782 11.2045 12.3753 13.0131L12.3635 17.4624L7.05592 20.4076L2.35602 17.4624Z" fill="currentColor"/>
</mask>
<g mask="url(#mask0_4018_69180)">
<path d="M3.03014 16.4355C3.03598 16.4442 3.04474 16.4515 3.05642 16.4588L7.20799 18.8712L7.21091 19.705L3.05934 17.2926C3.05934 17.2926 3.05934 17.2926 3.05788 17.2926C3.05204 17.2897 3.0462 17.2853 3.04182 17.281C3.0389 17.278 3.03598 17.2751 3.03452 17.2722C3.03452 17.2722 3.03452 17.2707 3.03306 17.2693C3.03306 17.2693 3.0316 17.2664 3.03014 17.2649C3.03014 17.262 3.02722 17.2605 3.02722 17.2576C3.02722 17.2547 3.02576 17.2532 3.02576 17.2503C3.02576 17.2474 3.02576 17.2459 3.02576 17.243L3.02284 16.4092C3.02284 16.4179 3.02576 16.4267 3.0316 16.4355H3.03014Z" fill="currentColor" stroke="currentColor" stroke-width="0.06"/>
<path d="M8.94604 13.7771C9.70538 13.7523 10.4793 13.91 11.0576 14.2459C11.6359 14.5818 11.906 15.0315 11.8608 15.4711C11.8535 15.5426 12.0126 15.5894 12.0988 15.5397L14.298 14.2693C14.3461 14.2415 14.3461 14.1962 14.298 14.1685L11.2007 12.3694C11.1525 12.3417 11.0751 12.3417 11.0255 12.3694L8.82629 13.6399C8.74014 13.6895 8.82045 13.783 8.94312 13.7786L8.94604 13.7771Z" fill="currentColor" stroke="currentColor" stroke-width="0.06"/>
<path d="M7.3588 14.3634C6.39501 14.9198 6.39355 15.8237 7.35441 16.383C8.31674 16.9423 9.87778 16.9438 10.8416 16.3874C11.8068 15.8296 11.8083 14.9271 10.8459 14.3678C9.88362 13.8085 8.32258 13.8071 7.3588 14.3634Z" fill="currentColor" stroke="currentColor" stroke-width="0.06"/>
<path d="M3.48009 16.3597C3.4319 16.3875 3.4319 16.4327 3.48009 16.4605L7.20964 18.6275C7.25783 18.6553 7.33522 18.6553 7.38487 18.6275L14.9331 14.2701C14.9812 14.2423 14.9812 14.1971 14.9331 14.1693L11.2035 12.0023C11.1553 11.9745 11.0779 11.9745 11.0283 12.0023L3.48009 16.3597ZM10.8414 16.3889C9.87757 16.9453 8.31653 16.9438 7.35421 16.3845C6.39334 15.8253 6.3948 14.9213 7.35859 14.365C8.32383 13.8072 9.88487 13.8101 10.8457 14.3694C11.8066 14.9287 11.8051 15.8326 10.8414 16.3889ZM12.1001 15.539C12.014 15.5887 11.8533 15.542 11.8621 15.4704C11.9059 15.0309 11.6387 14.5826 11.0589 14.2452C10.4792 13.9079 9.70671 13.7517 8.94737 13.7765C8.82471 13.7809 8.74293 13.6889 8.83055 13.6378L11.0297 12.3673C11.0779 12.3396 11.1568 12.3396 11.205 12.3673L14.3022 14.1664C14.3504 14.1941 14.3504 14.2394 14.3022 14.2671L12.103 15.5376M7.20964 18.261L4.11239 16.4619C4.0642 16.4342 4.0642 16.3889 4.11239 16.3612L6.09983 15.2134C6.18744 15.1623 6.34661 15.2105 6.33931 15.2806C6.2955 15.7201 6.56273 16.1684 7.14247 16.5058C7.7222 16.8431 8.49614 16.9993 9.25549 16.9745C9.37815 16.9701 9.45993 17.0621 9.37231 17.1132L7.38487 18.261C7.33668 18.2888 7.25783 18.2888 7.20964 18.261Z" fill="currentColor"/>
<path d="M12.1001 15.539C12.014 15.5887 11.8533 15.542 11.8621 15.4704C11.9059 15.0309 11.6387 14.5826 11.0589 14.2452C10.4792 13.9079 9.70671 13.7517 8.94737 13.7765C8.82471 13.7809 8.74293 13.6889 8.83055 13.6378L11.0297 12.3673C11.0779 12.3396 11.1568 12.3396 11.205 12.3673L14.3022 14.1664C14.3504 14.1941 14.3504 14.2394 14.3022 14.2671L12.103 15.5376M3.48009 16.3597C3.4319 16.3875 3.4319 16.4327 3.48009 16.4605L7.20964 18.6275C7.25783 18.6553 7.33522 18.6553 7.38487 18.6275L14.9331 14.2701C14.9812 14.2423 14.9812 14.1971 14.9331 14.1693L11.2035 12.0023C11.1553 11.9745 11.0779 11.9745 11.0283 12.0023L3.48009 16.3597ZM10.8414 16.3889C9.87757 16.9453 8.31653 16.9438 7.35421 16.3845C6.39334 15.8253 6.3948 14.9213 7.35859 14.365C8.32383 13.8072 9.88487 13.8101 10.8457 14.3694C11.8066 14.9287 11.8051 15.8326 10.8414 16.3889ZM7.20964 18.261L4.11239 16.4619C4.0642 16.4342 4.0642 16.3889 4.11239 16.3612L6.09983 15.2134C6.18744 15.1623 6.34661 15.2105 6.33931 15.2806C6.2955 15.7201 6.56273 16.1684 7.14247 16.5058C7.7222 16.8431 8.49614 16.9993 9.25549 16.9745C9.37815 16.9701 9.45993 17.0621 9.37231 17.1132L7.38487 18.261C7.33668 18.2888 7.25783 18.2888 7.20964 18.261Z" stroke="currentColor" stroke-width="0.06"/>
<path d="M4.11426 16.3607C4.06607 16.3885 4.06607 16.4338 4.11426 16.4615L7.21151 18.2606C7.2597 18.2883 7.33709 18.2883 7.38674 18.2606L9.37418 17.1128C9.46034 17.0631 9.38002 16.9697 9.25736 16.9741C8.49801 16.9989 7.72407 16.8412 7.14434 16.5053C6.56461 16.1695 6.29738 15.7211 6.34118 15.2801C6.34849 15.2086 6.18931 15.1619 6.1017 15.213L4.11426 16.3607Z" fill="currentColor" stroke="currentColor" stroke-width="0.06"/>
<path d="M3.05847 16.3594C3.01028 16.3872 3.01028 16.4325 3.05847 16.4602L7.21005 18.8726C7.2597 18.9018 7.33709 18.9018 7.38528 18.8726L15.3569 14.2698C15.4051 14.242 15.4051 14.1968 15.3569 14.1676L11.2054 11.7552C11.1572 11.7274 11.0798 11.7274 11.0301 11.7552L3.05847 16.358V16.3594ZM7.21005 18.6287L3.48049 16.4617C3.4323 16.4339 3.4323 16.3886 3.48049 16.3609L11.0287 12.0034C11.0769 11.9757 11.1557 11.9757 11.2039 12.0034L14.9335 14.1705C14.9816 14.1982 14.9816 14.2435 14.9335 14.2712L7.38528 18.6287C7.33709 18.6565 7.25823 18.6565 7.21005 18.6287Z" fill="currentColor" stroke="currentColor" stroke-width="0.06"/>
<path d="M7.2476 18.8873C7.2476 18.8873 7.25198 18.8873 7.25344 18.8887C7.26659 18.8916 7.28119 18.8931 7.29579 18.8931C7.29579 18.8931 7.29579 18.8931 7.29725 18.8931C7.31185 18.8931 7.32792 18.8916 7.34252 18.8887C7.34252 18.8887 7.34252 18.8887 7.34398 18.8887C7.35858 18.8858 7.37173 18.88 7.38341 18.8727L15.3551 14.2699C15.3799 14.2553 15.3916 14.2377 15.3916 14.2188L15.3945 15.0526C15.3945 15.0716 15.3828 15.0891 15.358 15.1037L7.38633 19.7065C7.38633 19.7065 7.37465 19.7123 7.3688 19.7152C7.36442 19.7167 7.35858 19.7182 7.3542 19.7196C7.35128 19.7196 7.34982 19.7196 7.3469 19.7211C7.3469 19.7211 7.3469 19.7211 7.34544 19.7211C7.34544 19.7211 7.34252 19.7211 7.34106 19.7211C7.33668 19.7211 7.3323 19.7225 7.32938 19.7225C7.325 19.7225 7.32207 19.7225 7.31769 19.7225C7.31331 19.7225 7.30893 19.7225 7.30601 19.7225C7.30455 19.7225 7.30309 19.7225 7.30163 19.7225C7.30163 19.7225 7.30163 19.7225 7.30017 19.7225C7.29871 19.7225 7.29579 19.7225 7.29433 19.7225C7.28995 19.7225 7.28557 19.7225 7.28119 19.7225C7.27535 19.7225 7.27097 19.7225 7.26513 19.7196C7.26221 19.7196 7.26074 19.7196 7.25782 19.7182C7.25636 19.7182 7.25344 19.7182 7.25198 19.7167C7.24906 19.7167 7.24468 19.7152 7.24176 19.7138C7.23154 19.7109 7.22278 19.7065 7.21402 19.7021L7.21109 18.8683C7.22278 18.8756 7.23592 18.88 7.24906 18.8829L7.2476 18.8873Z" fill="currentColor" stroke="currentColor" stroke-width="0.06"/>
<path d="M7.69627 15.1403L7.87506 15.2445L7.93706 15.209C8.03218 15.1542 8.12307 15.1132 8.20855 15.0874C8.29704 15.0603 8.38252 15.0482 8.4662 15.0518C8.54867 15.0536 8.63054 15.0711 8.71241 15.1036L8.17063 15.416L8.34942 15.5202L8.8936 15.2059C8.96102 15.2535 8.99594 15.3011 8.99955 15.3486C9.00316 15.3968 8.97968 15.4455 8.92912 15.4961C8.88036 15.5455 8.80631 15.599 8.70759 15.6562L8.64559 15.6917L8.76839 15.7634L10.2198 15.9921L10.5057 15.8272L9.09045 15.6255C9.21987 15.5274 9.29211 15.4305 9.30716 15.3354C9.32281 15.2378 9.26923 15.1463 9.14643 15.0597L9.51123 14.849L9.33244 14.7448L8.96223 14.9585C8.88939 14.9248 8.81534 14.9025 8.73829 14.8905C8.66124 14.8785 8.58419 14.8749 8.50593 14.8791L9.03627 14.5739L8.85748 14.4697L7.69627 15.1403Z" fill="currentColor" stroke="currentColor" stroke-width="0.06"/>
</g>
</g>
</g>
<defs>
<clipPath id="clip0_4018_69180">
<rect width="24" height="24" fill="currentColor"/>
</clipPath>
<clipPath id="clip1_4018_69180">
<rect width="24" height="24" fill="currentColor"/>
</clipPath>
</defs>
</svg>
