<svg width="24" height="24" viewBox="0 0 24 24" fill="none" xmlns="http://www.w3.org/2000/svg">
<g clip-path="url(#clip0_2275_37350)">
<path d="M9.36127 20.999C10.0664 21.6214 10.9927 21.999 12.0071 21.999C13.0215 21.999 13.9478 21.6214 14.6529 20.999M13.0071 2.08292C12.6788 2.02743 12.3444 1.99902 12.0071 1.99902C10.4158 1.99902 8.88968 2.63116 7.76446 3.75638C6.63924 4.8816 6.0071 6.40772 6.0071 7.99902C6.0071 11.0892 5.22757 13.205 4.35676 14.6044C3.62223 15.7849 3.25496 16.3751 3.26842 16.5398C3.28334 16.7221 3.32196 16.7916 3.46887 16.9006C3.60156 16.999 4.19969 16.999 5.39595 16.999H18.6182C19.8145 16.999 20.4126 16.999 20.5452 16.9006C20.6922 16.7916 20.7308 16.7221 20.7457 16.5398C20.7592 16.3751 20.3919 15.7848 19.6573 14.6042C19.1652 13.8134 18.7023 12.7938 18.3928 11.499" stroke="currentColor" stroke-width="1.75" stroke-linecap="round" stroke-linejoin="round"/>
<path d="M12.1751 9.42314C12.1965 9.23061 12.2072 9.13434 12.2363 9.04436C12.2622 8.96453 12.2987 8.88856 12.3449 8.81851C12.3969 8.73955 12.4654 8.67106 12.6024 8.53408L18.7517 2.38477C19.266 1.87044 20.0999 1.87044 20.6143 2.38477C21.1286 2.8991 21.1286 3.73298 20.6143 4.24731L14.4649 10.3966C14.328 10.5336 14.2595 10.6021 14.1805 10.6542C14.1105 10.7004 14.0345 10.7369 13.9547 10.7627C13.8647 10.7918 13.7684 10.8025 13.5759 10.8239L12 10.999L12.1751 9.42314Z" stroke="currentColor" stroke-width="1.75" stroke-linecap="round" stroke-linejoin="round"/>
</g>
<defs>
<clipPath id="clip0_2275_37350">
<rect width="24" height="24" fill="currentColor"/>
</clipPath>
</defs>
</svg>
