<svg width="24" height="24" viewBox="0 0 24 24" fill="none" xmlns="http://www.w3.org/2000/svg">
<g clip-path="url(#clip0_7129_10504)">
<path d="M9.36127 20.999C10.0664 21.6214 10.9927 21.999 12.0071 21.999C13.0215 21.999 13.9478 21.6214 14.6529 20.999M13.0071 2.08292C12.6788 2.02743 12.3444 1.99902 12.0071 1.99902C10.4158 1.99902 8.88968 2.63116 7.76446 3.75638C6.63924 4.8816 6.0071 6.40772 6.0071 7.99902C6.0071 11.0892 5.22757 13.205 4.35676 14.6044C3.62223 15.7849 3.25496 16.3751 3.26842 16.5398C3.28334 16.7221 3.32196 16.7916 3.46887 16.9006C3.60156 16.999 4.19969 16.999 5.39595 16.999H18.6182C19.8145 16.999 20.4126 16.999 20.5452 16.9006C20.6922 16.7916 20.7308 16.7221 20.7457 16.5398C20.7592 16.3751 20.3919 15.7848 19.6573 14.6042C19.1652 13.8134 18.7023 12.7938 18.3928 11.499" stroke="#5E6063" stroke-width="1.75" stroke-linecap="round" stroke-linejoin="round"/>
<path d="M12.375 7.20913L14.1346 8.96868C14.2288 9.0629 14.3815 9.0629 14.4758 8.96868L20.8194 2.625" stroke="#5E6063" stroke-width="1.75" stroke-linecap="round"/>
</g>
<defs>
<clipPath id="clip0_7129_10504">
<rect width="24" height="24" fill="white"/>
</clipPath>
</defs>
</svg>
