<svg width="24" height="24" viewBox="0 0 24 24" fill="none" xmlns="http://www.w3.org/2000/svg">
<g clip-path="url(#clip0_3396_64200)">
<rect width="24" height="24" rx="12" fill="#FFFDFD"/>
<path d="M16.6606 5.12445C16.9233 5.34586 17.1629 5.57794 17.3961 5.83013C17.4861 5.92463 17.5761 6.01913 17.6689 6.1165C18.5631 7.21103 18.8202 8.60503 18.7052 9.97559C18.5209 11.3105 18.063 12.4104 16.9871 13.2824C16.835 13.3839 16.6802 13.4814 16.5234 13.5756C16.3844 13.6631 16.3844 13.6631 16.2426 13.7524C15.2927 14.2928 14.4345 14.3616 13.3598 14.4483C13.3598 13.7283 13.3598 13.0083 13.3598 12.2665C13.5825 12.1877 13.8053 12.109 14.0348 12.0279C14.7519 11.7491 15.1991 11.4957 15.5211 10.7801C15.7724 10.0075 15.7609 9.26193 15.4325 8.5165C15.1368 7.98732 14.7781 7.71448 14.2325 7.4665C14.1483 7.42712 14.064 7.38775 13.9772 7.34718C13.1339 7.05989 12.2384 7.15904 11.4439 7.53468C10.9375 7.82317 10.6147 8.06413 10.3052 8.55741C10.2629 8.62027 10.2206 8.68312 10.177 8.74789C9.66046 9.65842 9.71921 10.9009 9.96518 11.8902C10.3322 12.8466 10.8372 13.5527 11.7711 13.9983C12.2654 14.209 12.7154 14.3145 13.2507 14.4483C13.2507 16.3563 13.2507 18.2643 13.2507 20.2301C12.4625 20.1426 11.8128 20.0272 11.0689 19.7938C10.9396 19.7541 10.9396 19.7541 10.8076 19.7137C9.55539 19.2734 8.32118 18.4067 7.46887 17.3938C7.38857 17.2988 7.30828 17.2039 7.22555 17.1061C5.81176 15.3324 5.18365 13.3437 5.27773 11.0871C5.28591 10.8777 5.28843 10.668 5.29003 10.4584C5.32954 9.17373 6.08888 8.09234 6.68302 6.97261C6.75502 6.97261 6.63105 6.92104 6.70523 6.92104C6.72998 6.86029 6.75473 6.79954 6.78023 6.73695C6.96503 6.41136 7.1979 6.19815 7.46887 5.93922C7.52399 5.87932 7.57912 5.81941 7.63591 5.75769C9.87999 3.35483 14.1086 3.11559 16.6606 5.12445Z" fill="url(#paint0_linear_3396_64200)"/>
</g>
<defs>
<linearGradient id="paint0_linear_3396_64200" x1="13.4445" y1="4.35871" x2="11.9998" y2="20.2301" gradientUnits="userSpaceOnUse">
<stop stop-color="#02BEE3"/>
<stop offset="1" stop-color="#066FA9"/>
</linearGradient>
<clipPath id="clip0_3396_64200">
<rect width="24" height="24" fill="white"/>
</clipPath>
</defs>
</svg>
