<svg width="24" height="24" viewBox="0 0 24 24" fill="none" xmlns="http://www.w3.org/2000/svg">
<g clip-path="url(#clip0_4017_2700)">
<path d="M12.2847 4.2708L12.355 4.28485C12.485 4.28485 12.6115 4.33404 12.7169 4.42189C12.8399 4.51676 12.9242 4.65731 12.9488 4.8084L13.2369 6.49148L13.5918 6.30174L13.3037 4.61866C13.2756 4.46757 13.1913 4.32702 13.0718 4.23215C12.9664 4.1443 12.8399 4.09511 12.7099 4.09511L12.6396 4.08105L8.69366 4.57298C8.62689 4.58001 8.56716 4.60109 8.51094 4.6292L8.15605 4.81894C8.21227 4.79083 8.27201 4.76975 8.33877 4.76272L12.2847 4.2708Z" fill="#017AFF" stroke="black" stroke-width="0.12"/>
<path d="M7.42807 7.24998L7.78296 7.06023L7.48078 5.32796C7.37537 4.73062 7.64944 4.17545 8.12028 3.91895L7.76539 4.10869C7.29455 4.36519 7.02048 4.92036 7.12589 5.5177L7.42807 7.24998Z" fill="#017AFF" stroke="black" stroke-width="0.12"/>
<path d="M21.2126 18.2172L6.21595 20.0725C5.55888 20.1533 4.92992 19.6579 4.80694 18.9657L2.99736 8.64228C2.90249 8.09765 3.14845 7.59519 3.57713 7.36328L2.40003 7.99927C1.97135 8.23118 1.72539 8.73364 1.82026 9.27827L3.62632 19.6017C3.74579 20.2939 4.37826 20.7893 5.03533 20.7085L20.032 18.8532C20.1761 18.8357 20.3061 18.7935 20.4255 18.7302L21.6026 18.0943C21.4832 18.1575 21.3532 18.1997 21.2091 18.2172H21.2126Z" fill="#017AFF" stroke="black" stroke-width="0.12"/>
<path d="M22.1826 16.8143L20.3765 6.49093C20.2535 5.79872 19.621 5.30329 18.964 5.3841L14.3012 5.96036L14.0482 4.51621C13.9147 3.75372 13.219 3.20558 12.4916 3.29342L8.54922 3.78535C7.82539 3.87319 7.344 4.56891 7.47753 5.3314L7.73052 6.77555L3.96729 7.23936C3.31022 7.32018 2.87452 7.94914 2.9975 8.64134L4.80357 18.9647C4.92303 19.6569 5.55551 20.1524 6.21258 20.0716L21.2092 18.2163C21.8698 18.1355 22.302 17.5065 22.179 16.8143H22.1826ZM8.24352 5.21193C8.1873 4.89218 8.3911 4.60756 8.68977 4.56891L12.6357 4.07699L12.706 4.09104C12.836 4.09104 12.9625 4.14024 13.0679 4.22808C13.1909 4.32295 13.2752 4.4635 13.2998 4.61459L13.5458 6.0482L8.49651 6.67365L8.24001 5.20841L8.24352 5.21193Z" fill="#E8F4FD" stroke="black" stroke-width="0.12"/>
<path d="M12.6484 12.6113L17.9513 11.5117C18.3201 12.6894 18.3223 13.952 17.8745 15.1092C17.6563 15.6722 17.3485 16.1663 16.9722 16.5845L12.6484 12.6113Z" fill="#017AFF" stroke="black" stroke-width="0.06"/>
<path d="M16.9719 16.5841L16.8538 16.7101L12.53 12.7369L12.6486 12.6113L16.9719 16.5841Z" fill="#017AFF" stroke="black" stroke-width="0.06"/>
<mask id="mask0_4017_2700" style="mask-type:luminance" maskUnits="userSpaceOnUse" x="9" y="16" width="7" height="3">
<path d="M15.416 17.7195L15.2979 17.8455C15.1561 17.9103 15.0109 17.9684 14.8625 18.0197C13.5683 18.4679 12.0457 18.4004 10.6027 17.7106C10.2677 17.5502 9.95139 17.3634 9.65594 17.1543L9.77412 17.0283C10.0696 17.2374 10.3855 17.4242 10.7209 17.5846C12.1639 18.2744 13.686 18.3419 14.9806 17.8937C15.129 17.8424 15.2743 17.7843 15.416 17.7195Z" fill="white" stroke="white" stroke-width="0.06"/>
</mask>
<g mask="url(#mask0_4017_2700)">
<path d="M15.4157 17.7205L15.2975 17.8465C15.1558 17.9112 15.0105 17.9693 14.8621 18.0207C13.5679 18.4688 12.0454 18.4014 10.6024 17.7115C10.2674 17.5511 9.95106 17.3644 9.65561 17.1553L9.77379 17.0293C10.0692 17.2384 10.3851 17.4251 10.7206 17.5855C12.1636 18.2754 13.6857 18.3428 14.9803 17.8947C15.1287 17.8433 15.274 17.7853 15.4157 17.7205Z" fill="#017AFF" stroke="black" stroke-width="0.06"/>
</g>
<path d="M12.6491 12.6108L15.4174 17.7202C15.2757 17.785 15.1304 17.8431 14.982 17.8945C13.6878 18.3426 12.1653 18.2751 10.7222 17.5853C10.3873 17.4249 10.0709 17.2381 9.77548 17.029L12.6491 12.6104V12.6108Z" fill="#017AFF" stroke="black" stroke-width="0.06"/>
<path d="M9.7745 17.0296L9.65633 17.1556L12.5295 12.7369L12.6481 12.6113L9.7745 17.0296Z" fill="#017AFF" stroke="black" stroke-width="0.06"/>
<path d="M12.6482 12.6113L12.5296 12.7369L8.61279 16.2338L8.73097 16.1079L12.6482 12.6113Z" fill="#017AFF" stroke="black" stroke-width="0.06"/>
<mask id="mask1_4017_2700" style="mask-type:luminance" maskUnits="userSpaceOnUse" x="6" y="8" width="3" height="9">
<path d="M8.27436 8.68849L8.39254 8.5625C7.98469 8.99588 7.65281 9.51549 7.42178 10.1119C6.64207 12.1251 7.22674 14.46 8.73108 16.1064L8.6129 16.2324C7.10901 14.586 6.52389 12.2516 7.30361 10.2384C7.53463 9.64148 7.86651 9.12232 8.27436 8.68894V8.68849Z" fill="white" stroke="white" stroke-width="0.06"/>
</mask>
<g mask="url(#mask1_4017_2700)">
<path d="M8.73085 16.1064L8.61267 16.2324C7.10879 14.5856 6.52367 12.2511 7.30338 10.2379C7.53441 9.64103 7.86628 9.12187 8.27413 8.68849L8.39231 8.5625C7.98446 8.99588 7.65258 9.51549 7.42156 10.1119C6.64185 12.1251 7.22652 14.46 8.73085 16.1064Z" fill="#017AFF" stroke="black" stroke-width="0.06"/>
</g>
<path d="M10.3162 7.32686C11.5842 6.88768 13.0703 6.94397 14.4871 7.59449L12.6491 12.611L8.73233 16.1075C7.228 14.4607 6.64288 12.1262 7.42304 10.113C7.95484 8.73915 9.02156 7.77543 10.3162 7.32686Z" fill="#017AFF" stroke="black" stroke-width="0.06"/>
</g>
<defs>
<clipPath id="clip0_4017_2700">
<rect width="24" height="24" fill="white"/>
</clipPath>
</defs>
</svg>
