<svg width="24" height="24" viewBox="0 0 24 24" fill="none" xmlns="http://www.w3.org/2000/svg">
<g clip-path="url(#clip0_3396_60238)">
<g filter="url(#filter0_d_3396_60238)">
<g clip-path="url(#clip1_3396_60238)">
<path d="M0 12C0 5.37258 5.37258 0 12 0C18.6274 0 24 5.37258 24 12C24 18.6274 18.6274 24 12 24C5.37258 24 0 18.6274 0 12Z" fill="#FBED21"/>
<path fill-rule="evenodd" clip-rule="evenodd" d="M9.27432 19.6591C9.21817 19.611 9.08182 19.5148 9.08984 19.3543C9.08984 19.2741 9.146 19.2019 9.1941 19.1538C9.25026 19.1057 9.33047 19.0977 9.41067 19.0977C9.51495 19.0977 9.60319 19.1458 9.67536 19.242C9.75558 19.3383 9.82778 19.4666 9.85184 19.6672H10.0604L10.1326 19.8356H9.8839V21.135L9.67536 21.0307V19.8276H9.41869V21.119L9.20212 21.0307V20.5655C9.18608 20.5815 9.16202 20.5896 9.15402 20.5896C9.13798 20.5976 9.12995 20.6056 9.10589 20.6056C9.05776 20.6217 9.01765 20.6217 8.98556 20.6217C8.92139 20.6217 8.79306 20.5815 8.70482 20.5094C8.60056 20.4292 8.55243 20.3409 8.55243 20.2607V19.8276H8.34389L8.26367 19.6591H9.27432ZM10.5497 20.8944L10.3732 21.0708L10.1967 20.8863L10.3732 20.7099L10.5497 20.8944ZM9.20212 19.8276H8.76098V20.2768C8.76098 20.4211 8.80911 20.4853 8.90537 20.4853C8.94545 20.4853 8.99358 20.4773 9.04974 20.4532C9.0738 20.4452 9.09787 20.4292 9.12995 20.4211C9.15402 20.4051 9.18608 20.389 9.20212 20.373V19.8276ZM9.39465 19.6672H9.77162C9.75558 19.5228 9.69943 19.4345 9.63528 19.3624C9.5711 19.2902 9.49891 19.2661 9.42671 19.2661C9.33047 19.2741 9.25026 19.3303 9.27432 19.4987C9.29037 19.5709 9.34652 19.6351 9.39465 19.6672ZM12.3865 19.8276C12.5629 20.0682 12.4827 20.1404 12.3784 20.2286C12.3624 20.2607 12.3143 20.2527 12.3143 20.2687C12.2822 20.2206 12.2421 20.1965 12.1859 20.2126C12.0897 20.2286 12.0175 20.3409 12.0336 20.3971C12.0496 20.4372 12.0897 20.5094 12.1699 20.6136C12.2421 20.7019 12.4426 20.9104 12.6752 21.1751L12.7314 21.0468L12.5228 20.8222C12.4426 20.734 12.3945 20.6858 12.3865 20.6778C12.3624 20.6537 12.3383 20.6217 12.3062 20.5815V20.5735C12.3062 20.5655 12.3143 20.5655 12.3223 20.5575C12.3303 20.5495 12.3544 20.5415 12.3865 20.5174C12.4105 20.5014 12.4266 20.4853 12.4506 20.4612L12.5068 20.3971C12.5469 20.4452 12.603 20.4853 12.6512 20.5094C12.7073 20.5334 12.7635 20.5495 12.8196 20.5495C12.8356 20.5495 12.8356 20.5495 12.8677 20.5334C12.8998 20.5254 12.9239 20.5174 12.9479 20.5094C12.972 20.5014 12.9881 20.4933 12.9961 20.4933V21.0307L13.2207 21.127V19.8276H13.3891L13.3089 19.6591H10.6619L10.7422 19.8276H10.9186V20.5174C10.9186 20.5976 10.9427 20.6698 11.0069 20.7019L11.8009 21.1591C11.8491 21.1912 11.8731 21.2152 11.8731 21.2393C11.8731 21.2553 11.8651 21.2633 11.8571 21.2874C11.8491 21.3034 11.833 21.3195 11.825 21.3355L11.9614 21.4639C12.0175 21.3756 12.0496 21.3195 12.0496 21.2874C12.0496 21.2553 12.0336 21.2313 12.0175 21.2072C12.0015 21.1831 11.9614 21.151 11.9052 21.119L11.1913 20.6537C11.1833 20.6457 11.1753 20.6377 11.1673 20.6136C11.1592 20.5896 11.1592 20.5735 11.1592 20.5495V19.8276H11.5443V20.4452C11.5443 20.4773 11.5202 20.5014 11.4641 20.5014L11.3117 20.4933L11.456 20.6297L11.5523 20.6537C11.5603 20.6537 11.5683 20.6537 11.5844 20.6618C11.5924 20.6618 11.6004 20.6618 11.6164 20.6618H11.6485C11.7127 20.6618 11.7689 20.6217 11.7689 20.5495V19.8276H12.3865ZM12.5228 19.8276C12.603 19.988 12.6271 20.1645 12.5469 20.3168L12.6351 20.365C12.6832 20.389 12.7394 20.3971 12.7875 20.3971C12.8035 20.3971 12.8196 20.3971 12.8437 20.3971C12.8597 20.3971 12.8517 20.381 12.8838 20.365C12.9399 20.3409 12.98 20.3249 13.0121 20.2928V19.8276H12.5228ZM15.0414 19.6672C14.9933 19.619 14.9532 19.5148 14.9371 19.4506C14.9211 19.3784 14.9451 19.234 15.0254 19.1779C15.0815 19.1297 15.1617 19.0977 15.2419 19.0977C15.3462 19.0977 15.4344 19.1458 15.5066 19.242C15.5788 19.3383 15.635 19.4586 15.659 19.6591H15.8676L15.9558 19.8276H15.7232V21.127L15.4906 21.0307V19.8276H15.2018V21.127L14.9933 21.0307V20.6698C14.9451 20.7259 14.9051 20.742 14.865 20.766C14.7928 20.8061 14.6805 20.8302 14.5842 20.8302C14.52 20.8302 14.4559 20.8222 14.4078 20.8061C14.3516 20.7821 14.2874 20.75 14.2393 20.7019C14.1511 20.6136 14.103 20.4853 14.103 20.381C14.103 20.3088 14.1431 20.2046 14.2072 20.1404C14.2874 20.0522 14.4559 19.996 14.5842 20.004C14.6644 20.0121 14.7687 20.0281 14.8409 20.0762C14.9051 20.1163 14.9371 20.1324 14.9933 20.2126V19.8276H14.0388L13.9586 19.6591L15.0414 19.6672ZM14.7847 20.5655C14.8248 20.5495 14.8329 20.5334 14.8569 20.5014C14.881 20.4693 14.897 20.4292 14.897 20.3971C14.897 20.3168 14.873 20.2607 14.8248 20.2126C14.7847 20.1805 14.7366 20.1564 14.6885 20.1564H14.6083C14.5922 20.1564 14.5762 20.1564 14.5361 20.1725L14.7847 20.5655ZM14.4318 20.2447C14.4078 20.2607 14.3917 20.2768 14.3596 20.3249C14.3275 20.373 14.3115 20.4131 14.3115 20.4532C14.3115 20.5174 14.3275 20.5896 14.3757 20.6217C14.4158 20.6457 14.4719 20.6698 14.5361 20.6698C14.5682 20.6698 14.6003 20.6698 14.6083 20.6618L14.6885 20.6217L14.4318 20.2447ZM15.1457 19.6672H15.5949C15.5788 19.5228 15.5387 19.4426 15.4745 19.3704C15.4104 19.2982 15.3382 19.2501 15.266 19.2581C15.0895 19.2822 15.0414 19.5228 15.1457 19.6672ZM13.8704 20.8944L13.7019 21.0708L13.5254 20.8863L13.6939 20.7099L13.8704 20.8944Z" fill="#B31F31"/>
<path fill-rule="evenodd" clip-rule="evenodd" d="M13.0347 15.4169H12.9545L12.8823 15.4329L12.8102 15.4489C12.77 15.465 12.738 15.473 12.7059 15.489C12.6738 15.5051 12.6417 15.5211 12.6096 15.5452C12.5775 15.5692 12.5535 15.5853 12.5214 15.6174C12.4973 15.6414 12.4733 15.6735 12.4492 15.6976C12.4251 15.7297 12.4091 15.7537 12.385 15.7858C12.369 15.8179 12.353 15.85 12.3369 15.8821C12.3209 15.9222 12.3128 15.9543 12.2968 15.9864L12.2808 16.0585L12.2727 16.1387V16.219L12.2808 16.2992L12.2968 16.3713C12.3048 16.4115 12.3209 16.4435 12.3369 16.4756C12.353 16.5077 12.369 16.5398 12.385 16.5719C12.4091 16.604 12.4251 16.636 12.4492 16.6601C12.4733 16.6842 12.4973 16.7162 12.5214 16.7403C12.5535 16.7644 12.5775 16.7884 12.6096 16.8125C12.6417 16.8366 12.6738 16.8526 12.7059 16.8687C12.738 16.8847 12.7781 16.8927 12.8102 16.9088L12.8823 16.9248L12.9545 16.9409H13.0347H13.1149L13.1871 16.9248C13.2272 16.9168 13.2593 16.9088 13.2994 16.8927C13.3395 16.8767 13.3716 16.8606 13.4037 16.8446C13.4358 16.8285 13.4679 16.8045 13.5 16.7884C13.532 16.7644 13.5561 16.7403 13.5882 16.7162C13.6122 16.6842 13.6363 16.6601 13.6604 16.628C13.6844 16.5959 13.7005 16.5638 13.7165 16.5318C13.7326 16.4997 13.7486 16.4596 13.7646 16.4275C13.7807 16.3874 13.7887 16.3553 13.7967 16.3152L13.8128 16.235V16.1548V16.0746L13.7967 16.0024C13.7887 15.9623 13.7807 15.9302 13.7646 15.8901C13.7486 15.858 13.7326 15.8179 13.7165 15.7858C13.7005 15.7537 13.6764 15.7217 13.6604 15.6896C13.6363 15.6575 13.6122 15.6334 13.5882 15.6094C13.5561 15.5853 13.532 15.5612 13.5 15.5372C13.4679 15.5131 13.4358 15.4971 13.4037 15.473C13.3716 15.457 13.3315 15.4409 13.2994 15.4249C13.2673 15.4088 13.2272 15.4008 13.1871 15.3928L13.1149 15.3767L13.0347 15.4169ZM8.05371 10.0909L8.06976 9.88237L8.08577 9.74603L8.10984 9.60965L8.1339 9.47331L8.16599 9.34496L8.2061 9.21663L8.24621 9.08828L8.29434 8.95996L8.34245 8.83161L8.3986 8.71131L8.45475 8.59098L8.51893 8.4787L8.5911 8.3664L8.66329 8.25412L8.74351 8.14181L8.8237 8.03755L8.90392 7.93327L8.99216 7.83703L9.08038 7.74077L9.17664 7.64451L9.27288 7.55629L9.37716 7.46805L9.48145 7.38786L9.59372 7.30764L9.70603 7.23544L9.81831 7.16325L9.93062 7.0991L10.0509 7.03492L10.1712 6.97877L10.2996 6.92262L10.4279 6.87451L10.6044 6.81034V6.04032H10.6525L10.7648 6.0323L10.8771 6.01625L10.9894 6.00021L11.0937 5.97614L11.1979 5.94408L11.3022 5.91199L11.3985 5.87188L11.4947 5.83178L11.615 5.79167L11.7113 5.74353L11.7995 5.68741L11.8877 5.63125L11.976 5.56708L12.0642 5.5029L12.1444 5.43073L12.2246 5.35854L12.3048 5.28634L12.377 5.21417L12.4492 5.13395L12.5214 5.05373L12.5936 4.97354L12.6577 4.8853L12.7861 4.71687L12.8984 4.54039L13.0027 4.36393L13.0909 4.18748L13.131 4.09924L13.2914 3.88267L13.4438 3.68215L13.524 3.58589L13.6042 3.49768L13.6764 3.40943L13.7566 3.32924L13.8368 3.25705L13.917 3.18485L13.9973 3.12067L14.0774 3.05652L14.1577 3.00037L14.2379 2.94422L14.3181 2.89609L14.4063 2.856L14.4946 2.8159L14.5828 2.77579L14.671 2.7437L14.7673 2.71161L14.8635 2.67952L14.9678 2.65546L15.0721 2.63139L15.1844 2.61538L15.2966 2.59933L15.417 2.58329L15.5453 2.56724L15.802 2.5512C15.9223 2.54318 16.0426 2.54318 16.1629 2.53516V4.34789L16.0827 4.33184L16.0025 4.32382L15.9223 4.3158H15.8421H15.7699L15.6977 4.32382L15.6255 4.34789L15.5533 4.36393L15.4811 4.37997L15.417 4.40404L15.3448 4.42811L15.2806 4.45217L15.2164 4.48426L15.1603 4.51635L15.1041 4.54841L15.04 4.58852L14.9838 4.62863L14.8796 4.71687L14.7833 4.8131L14.6871 4.90937L14.6068 5.01362L14.5266 5.12593L14.4545 5.23824L14.3983 5.35854C14.286 5.55906 14.1817 5.75958 14.0694 5.96013C14.0293 6.02427 13.9892 6.08845 13.9411 6.16065C13.909 6.20875 13.8689 6.25688 13.8368 6.29699C13.7967 6.34512 13.7566 6.39325 13.7165 6.43336L13.6363 6.52158C13.5882 6.56169 13.5401 6.6018 13.4919 6.6419L13.3876 6.71408L13.2754 6.78627L13.2112 6.81836L13.0267 6.91462L13.2673 7.0269L13.3796 7.08305L13.4919 7.14723L13.6042 7.21138L13.7165 7.2916L13.8208 7.36379L13.9251 7.44399L14.0213 7.5242L14.1176 7.61245L14.2138 7.70066L14.302 7.7889L14.3903 7.88514L14.4785 7.9814L14.5587 8.07766L14.6389 8.18192L14.7111 8.2862L14.7833 8.39848L14.8475 8.51079L14.9116 8.62307L14.9678 8.7434L15.0239 8.8637L15.0721 8.98403L15.1202 9.10433L15.1603 9.23268L15.2004 9.361L15.2325 9.48935L15.2646 9.61768L15.2886 9.74603L15.3047 9.88237L15.3207 10.0187L15.3287 10.1551V10.2914V10.4358L15.3207 10.5722L15.3047 10.7085L15.2886 10.8449L15.2646 10.9813L15.2325 11.1176L15.2004 11.2459L15.1603 11.3743L15.1202 11.5026L15.0721 11.631L15.0239 11.7513L14.9678 11.8716L14.9116 11.9919L14.8475 12.1042L14.7753 12.2165L14.7031 12.3288L14.6309 12.433L14.5507 12.5373L14.4705 12.6416L14.3823 12.7378L14.294 12.8341L14.1978 12.9303L14.1015 13.0186L14.0053 13.1068L13.901 13.187L13.7967 13.2672L13.6844 13.3394L13.5721 13.4116L13.4598 13.4758L13.3395 13.5399L13.2192 13.5961L12.8262 13.7645L13.2433 13.7886L13.3636 13.7966L13.4839 13.8127L13.5962 13.8367L13.7085 13.8688L13.8208 13.9009L13.9331 13.941L14.0373 13.9891L14.1416 14.0373L14.2379 14.0934L14.3341 14.1495L14.4304 14.2137L14.5186 14.2859L14.6068 14.3581L14.6871 14.4303L14.7673 14.5105L14.8475 14.5907L14.9197 14.6789L14.9918 14.7672L15.056 14.8634L15.1202 14.9597L15.1763 15.0559L15.2244 15.1602L15.2726 15.2645L15.3127 15.3687L15.3528 15.481L15.3849 15.5933L15.4089 15.7056L15.433 15.8179L15.4491 15.9382L15.4571 16.0585V16.1789V16.2992L15.4491 16.4195L15.433 16.5398L15.4089 16.6601L15.3849 16.7724L15.3528 16.8847L15.3127 16.997L15.2726 17.1093L15.2244 17.2135L15.1683 17.3178L15.1122 17.4221L15.048 17.5183L14.9838 17.6146L14.9116 17.7028L14.8394 17.7911L14.7592 17.8793L14.671 17.9595L14.5828 18.0397L14.4946 18.1119L14.3983 18.1841L14.302 18.2483L14.2058 18.3044L14.1015 18.3606L13.9973 18.4087L13.885 18.4488L13.7727 18.4889L13.6604 18.521L13.5481 18.545L13.4278 18.5691L13.3075 18.5851L13.1871 18.5932H13.0668H12.9465L12.8262 18.5851L12.7059 18.5691L12.5936 18.545L12.4813 18.521L12.369 18.4889L12.2567 18.4488L12.1524 18.4087L12.0482 18.3606L11.9439 18.3124L11.8476 18.2563L11.7514 18.2001L11.6551 18.136L11.5669 18.0638L11.4787 17.9916L11.3904 17.9114L11.3102 17.8312L11.238 17.7429L11.1659 17.6547L11.0937 17.5665L11.0295 17.4702L10.9733 17.374L10.9172 17.2777L10.8691 17.1735L10.8209 17.0692L10.7808 16.9649L10.7487 16.8526L10.7167 16.7403L10.6926 16.628L10.6766 16.5157L10.6605 16.3954L10.6525 16.243V10.0909H12.2888V12.1042L12.4492 12.04L12.5775 11.9758L12.6978 11.9037L12.8182 11.8235L12.9305 11.7352L13.0347 11.639L13.131 11.5347L13.2192 11.4224L13.2994 11.3101L13.3716 11.1898L13.4358 11.0615L13.4919 10.9251L13.516 10.8609L13.5561 10.7246L13.5721 10.6524L13.5882 10.5802L13.5962 10.508L13.6042 10.4358V10.3636V10.2914V10.1952L13.5962 10.0989L13.5801 10.0027L13.5641 9.90644L13.5401 9.81819L13.516 9.72998L13.4839 9.64174L13.4518 9.5535L13.4117 9.47331L13.3716 9.39309L13.3235 9.31287L13.2754 9.23268L13.2192 9.16048L13.1631 9.08828L13.1069 9.01611L13.0428 8.95194L12.9786 8.88776L12.9064 8.83161L12.8342 8.77548L12.762 8.71933L12.6818 8.6712L12.6016 8.62307L12.5214 8.58299L12.4412 8.54288L12.353 8.51079L12.2647 8.4787L12.1765 8.45464L12.0883 8.43057L11.992 8.41453L11.8957 8.39848L11.7995 8.39046H11.7032H11.615L11.5268 8.39848L11.4385 8.40651L11.3503 8.42255L11.2621 8.43859L11.1819 8.46266L11.1017 8.48672L11.0215 8.51079L10.9412 8.54288L10.8691 8.57496L10.7969 8.61505L10.7247 8.65516L10.6525 8.70329L10.5803 8.75142L10.5161 8.79955L10.452 8.85568L10.3878 8.91183L10.3317 8.96798L10.2755 9.03216L10.2194 9.09631L10.1712 9.16048L10.1071 9.2407L10.0589 9.31287L10.0188 9.38507L9.97875 9.45726L9.94666 9.52946L9.91457 9.60965L9.88249 9.68987L9.85842 9.77009L9.83436 9.85028L9.81831 9.93852L9.80227 10.0267V18.6172H8.05371V10.0909Z" fill="#B31F31"/>
</g>
</g>
</g>
<defs>
<filter id="filter0_d_3396_60238" x="-6" y="-5" width="36" height="36" filterUnits="userSpaceOnUse" color-interpolation-filters="sRGB">
<feFlood flood-opacity="0" result="BackgroundImageFix"/>
<feColorMatrix in="SourceAlpha" type="matrix" values="0 0 0 0 0 0 0 0 0 0 0 0 0 0 0 0 0 0 127 0" result="hardAlpha"/>
<feOffset dy="1"/>
<feGaussianBlur stdDeviation="3"/>
<feComposite in2="hardAlpha" operator="out"/>
<feColorMatrix type="matrix" values="0 0 0 0 0 0 0 0 0 0 0 0 0 0 0 0 0 0 0.08 0"/>
<feBlend mode="normal" in2="BackgroundImageFix" result="effect1_dropShadow_3396_60238"/>
<feBlend mode="normal" in="SourceGraphic" in2="effect1_dropShadow_3396_60238" result="shape"/>
</filter>
<clipPath id="clip0_3396_60238">
<rect width="24" height="24" fill="white"/>
</clipPath>
<clipPath id="clip1_3396_60238">
<path d="M0 12C0 5.37258 5.37258 0 12 0C18.6274 0 24 5.37258 24 12C24 18.6274 18.6274 24 12 24C5.37258 24 0 18.6274 0 12Z" fill="white"/>
</clipPath>
</defs>
</svg>
