<svg width="24" height="24" viewBox="0 0 24 24" fill="none" xmlns="http://www.w3.org/2000/svg">
<g clip-path="url(#clip0_3396_60615)">
<g filter="url(#filter0_d_3396_60615)">
<g clip-path="url(#clip1_3396_60615)">
<path d="M0 12C0 5.37258 5.37258 0 12 0C18.6274 0 24 5.37258 24 12C24 18.6274 18.6274 24 12 24C5.37258 24 0 18.6274 0 12Z" fill="white"/>
<path d="M21.0116 13.1068C21.0909 12.6394 21.1415 12.1602 21.1415 11.6734C21.1415 11.2406 21.0976 10.8162 21.0386 10.3995H17.6302C18.0917 9.94304 19.1699 8.85472 20.2464 7.78073C19.8591 6.9725 19.3538 6.22924 18.7573 5.5813L13.5781 10.7648C13.3292 11.0103 13.1934 11.3157 13.1934 11.6734C13.1934 12.0227 13.3292 12.3728 13.5789 12.6158L18.7404 17.7832C19.3411 17.1361 19.8448 16.3937 20.2346 15.5863C19.218 14.5781 18.0706 13.5438 17.6302 13.1068H21.0116Z" fill="#00295B"/>
<path d="M11.0844 11.6734C11.0844 11.3157 10.9469 11.0103 10.6938 10.7648L5.51199 5.5813C4.91383 6.2343 4.41016 6.9725 4.02292 7.78073C5.10113 8.85978 6.18186 9.93882 6.6425 10.4003H3.22904C3.17082 10.8162 3.12695 11.2406 3.12695 11.6734C3.12695 12.1602 3.17842 12.6402 3.2535 13.1068H6.6425C6.20548 13.5446 5.05135 14.5748 4.03473 15.5863C4.42704 16.3937 4.92817 17.1344 5.53055 17.7832L10.6938 12.6166C10.9435 12.3728 11.0844 12.0227 11.0844 11.6734Z" fill="#00295B"/>
<path d="M12.1339 12.7459C11.7829 12.7459 11.4531 12.8817 11.2059 13.1314L6.04688 18.2913C6.69228 18.8903 7.43217 19.3973 8.2404 19.7854C9.31185 18.7131 10.3833 17.645 10.838 17.1878V20.5742C11.2607 20.6383 11.6918 20.6797 12.1339 20.6797C12.6165 20.6797 13.0847 20.6291 13.5428 20.559V17.1878C13.9824 17.6214 15.015 18.7739 16.0215 19.7854C16.8331 19.3982 17.5688 18.8903 18.2201 18.2913L13.0535 13.1348C12.8088 12.8817 12.4866 12.7459 12.1339 12.7459Z" fill="#00295B"/>
<path d="M12.134 10.6445C12.4951 10.6445 12.8292 10.5011 13.0764 10.2438L18.2489 5.07551C17.5874 4.46386 16.8349 3.94922 16.0098 3.55186C15.2547 4.31031 14.1436 5.50072 13.5303 6.11237V4.63006C13.5303 3.88173 12.8975 3.27935 12.1382 3.27935C11.3789 3.27935 10.8246 3.8716 10.8162 4.6115V6.11237C10.1126 5.41466 8.9652 4.26475 8.25821 3.55186C7.4348 3.94922 6.68056 4.46386 6.0166 5.07551L11.1908 10.2497C11.4422 10.5011 11.7763 10.6445 12.134 10.6445Z" fill="#C60751"/>
</g>
</g>
</g>
<defs>
<filter id="filter0_d_3396_60615" x="-6" y="-5" width="36" height="36" filterUnits="userSpaceOnUse" color-interpolation-filters="sRGB">
<feFlood flood-opacity="0" result="BackgroundImageFix"/>
<feColorMatrix in="SourceAlpha" type="matrix" values="0 0 0 0 0 0 0 0 0 0 0 0 0 0 0 0 0 0 127 0" result="hardAlpha"/>
<feOffset dy="1"/>
<feGaussianBlur stdDeviation="3"/>
<feComposite in2="hardAlpha" operator="out"/>
<feColorMatrix type="matrix" values="0 0 0 0 0 0 0 0 0 0 0 0 0 0 0 0 0 0 0.08 0"/>
<feBlend mode="normal" in2="BackgroundImageFix" result="effect1_dropShadow_3396_60615"/>
<feBlend mode="normal" in="SourceGraphic" in2="effect1_dropShadow_3396_60615" result="shape"/>
</filter>
<clipPath id="clip0_3396_60615">
<rect width="24" height="24" fill="white"/>
</clipPath>
<clipPath id="clip1_3396_60615">
<path d="M0 12C0 5.37258 5.37258 0 12 0C18.6274 0 24 5.37258 24 12C24 18.6274 18.6274 24 12 24C5.37258 24 0 18.6274 0 12Z" fill="white"/>
</clipPath>
</defs>
</svg>
