<svg width="16" height="16" viewBox="0 0 16 16" fill="none" xmlns="http://www.w3.org/2000/svg">
<g clip-path="url(#clip0_1565_33022)">
<path d="M4.66667 7.99967H8V11.333M2.00667 7.99967H2M5.34 11.333H5.33333M8.00667 13.9997H8M14.0067 7.99967H14M2 11.333H3M10.3333 7.99967H11.6667M2 13.9997H5.33333M8 1.33301V5.33301M11.7333 13.9997H12.9333C13.3067 13.9997 13.4934 13.9997 13.636 13.927C13.7614 13.8631 13.8634 13.7611 13.9273 13.6357C14 13.4931 14 13.3064 14 12.933V11.733C14 11.3596 14 11.173 13.9273 11.0303C13.8634 10.9049 13.7614 10.8029 13.636 10.739C13.4934 10.6663 13.3067 10.6663 12.9333 10.6663H11.7333C11.36 10.6663 11.1733 10.6663 11.0307 10.739C10.9052 10.8029 10.8032 10.9049 10.7393 11.0303C10.6667 11.173 10.6667 11.3596 10.6667 11.733V12.933C10.6667 13.3064 10.6667 13.4931 10.7393 13.6357C10.8032 13.7611 10.9052 13.8631 11.0307 13.927C11.1733 13.9997 11.36 13.9997 11.7333 13.9997ZM11.7333 5.33301H12.9333C13.3067 5.33301 13.4934 5.33301 13.636 5.26035C13.7614 5.19643 13.8634 5.09444 13.9273 4.969C14 4.82639 14 4.63971 14 4.26634V3.06634C14 2.69297 14 2.50629 13.9273 2.36368C13.8634 2.23824 13.7614 2.13625 13.636 2.07234C13.4934 1.99967 13.3067 1.99967 12.9333 1.99967H11.7333C11.36 1.99967 11.1733 1.99967 11.0307 2.07234C10.9052 2.13625 10.8032 2.23824 10.7393 2.36368C10.6667 2.50629 10.6667 2.69297 10.6667 3.06634V4.26634C10.6667 4.63971 10.6667 4.82639 10.7393 4.969C10.8032 5.09444 10.9052 5.19643 11.0307 5.26035C11.1733 5.33301 11.36 5.33301 11.7333 5.33301ZM3.06667 5.33301H4.26667C4.64004 5.33301 4.82672 5.33301 4.96933 5.26035C5.09477 5.19643 5.19676 5.09444 5.26067 4.969C5.33333 4.82639 5.33333 4.63971 5.33333 4.26634V3.06634C5.33333 2.69297 5.33333 2.50629 5.26067 2.36368C5.19676 2.23824 5.09477 2.13625 4.96933 2.07234C4.82672 1.99967 4.64004 1.99967 4.26667 1.99967H3.06667C2.6933 1.99967 2.50661 1.99967 2.36401 2.07234C2.23856 2.13625 2.13658 2.23824 2.07266 2.36368C2 2.50629 2 2.69297 2 3.06634V4.26634C2 4.63971 2 4.82639 2.07266 4.969C2.13658 5.09444 2.23856 5.19643 2.36401 5.26035C2.50661 5.33301 2.6933 5.33301 3.06667 5.33301Z" stroke="currentColor" stroke-width="1.17" stroke-linecap="round" stroke-linejoin="round"/>
</g>
<defs>
<clipPath id="clip0_1565_33022">
<rect width="16" height="16" fill="currentColor"/>
</clipPath>
</defs>
</svg>
