<svg width="24" height="24" viewBox="0 0 24 24" fill="none" xmlns="http://www.w3.org/2000/svg">
<g clip-path="url(#clip0_3396_51094)">
<g filter="url(#filter0_d_3396_51094)">
<path d="M11.6251 23.25C18.0455 23.25 23.2502 18.0453 23.2502 11.625C23.2502 5.2047 18.0455 0 11.6251 0C5.20475 0 0 5.2047 0 11.625C0 18.0453 5.20475 23.25 11.6251 23.25Z" fill="white"/>
<mask id="mask0_3396_51094" style="mask-type:luminance" maskUnits="userSpaceOnUse" x="2" y="10" width="19" height="4">
<path d="M20.2492 10.125H2.99902V13.125H20.2492V10.125Z" fill="white"/>
</mask>
<g mask="url(#mask0_3396_51094)">
<path d="M7.65499 10.9854C7.70123 10.9854 7.74083 11.0208 7.74083 11.0667V12.6188C7.74083 12.6625 7.69902 12.6979 7.65499 12.6979H7.43265C7.3908 12.6979 7.34899 12.6667 7.34899 12.6229V12.4792C7.23671 12.6354 7.04299 12.7437 6.76121 12.7437C6.29013 12.7437 5.99954 12.4479 5.99954 12.0083V11.0625C5.99954 11.0187 6.04135 10.9833 6.08538 10.9833H6.30772C6.35395 10.9833 6.39138 11.0187 6.39138 11.0625V11.9479C6.39138 12.2333 6.54989 12.4229 6.8625 12.4229C7.16846 12.4229 7.34899 12.2271 7.34899 11.9521V11.0625C7.34899 11.0187 7.3908 10.9833 7.43265 10.9833H7.65499M4.37491 10.125C3.6132 10.125 2.99902 10.6854 2.99902 11.4333C2.99902 12.1833 3.6132 12.7417 4.37491 12.7417C4.50478 12.7417 4.63025 12.725 4.74913 12.6937L4.89883 13.0583C4.91424 13.0979 4.94507 13.1229 5.00008 13.1229H5.23783C5.2951 13.1229 5.33691 13.0875 5.31051 13.0188L5.11678 12.5417C5.4976 12.3146 5.75076 11.9125 5.75076 11.4312C5.75076 10.6854 5.13658 10.125 4.37491 10.125ZM4.97368 12.1938L4.79975 11.7667C4.78434 11.7312 4.75355 11.6979 4.68751 11.6979H4.46075C4.40352 11.6979 4.3595 11.7333 4.3859 11.8021L4.61484 12.3625C4.53999 12.3813 4.45854 12.3896 4.37491 12.3896C3.81796 12.3896 3.42169 11.975 3.42169 11.4333C3.42169 10.8916 3.81796 10.4771 4.37491 10.4771C4.93187 10.4771 5.3281 10.8916 5.3281 11.4333C5.3281 11.75 5.19381 12.0209 4.97368 12.1938ZM20.2426 12.6104C20.2624 12.6542 20.2382 12.6958 20.1831 12.6958H19.9344C19.8882 12.6958 19.8507 12.675 19.8353 12.6312L19.3752 11.4604L18.9085 12.6312C18.8887 12.6771 18.8557 12.6958 18.8095 12.6958H18.5871C18.5409 12.6958 18.5079 12.6771 18.4881 12.6312L18.017 11.4541L17.5525 12.6312C17.5327 12.675 17.4996 12.6958 17.4534 12.6958H17.2201C17.1738 12.6958 17.1408 12.675 17.121 12.6312L16.6609 11.4541L16.1854 12.6312C16.1656 12.6771 16.1326 12.6958 16.0863 12.6958H15.864C15.8178 12.6958 15.7847 12.6771 15.7649 12.6312L15.3005 11.4541L14.8359 12.6312C14.8205 12.675 14.7831 12.6958 14.7369 12.6958H14.4947C14.4375 12.6958 14.4155 12.6521 14.4353 12.6104L15.0649 11.0521C15.0847 11.0062 15.1177 10.9833 15.1639 10.9833H15.4347C15.4809 10.9833 15.514 11.0041 15.5338 11.0521L15.9873 12.1896L16.4364 11.0521C16.4562 11.0062 16.4892 10.9833 16.5354 10.9833H16.8018C16.848 10.9833 16.8811 11.0041 16.9009 11.0521L17.3455 12.1896L17.7902 11.0521C17.81 11.0062 17.8431 10.9833 17.8893 10.9833H18.1579C18.2041 10.9833 18.2371 11.0041 18.2569 11.0521L18.7082 12.1896L19.1485 11.0521C19.1683 11.0062 19.2013 10.9833 19.2476 10.9833H19.5183C19.5645 10.9833 19.5976 11.0041 19.6174 11.0521L20.2426 12.6104ZM9.81014 10.9854H9.5878C9.5416 10.9854 9.50196 11.0208 9.50196 11.0667V11.2083C9.38968 11.0479 9.16956 10.9334 8.90979 10.9334C8.41887 10.9334 7.99838 11.3 7.99838 11.8354C7.99838 12.3771 8.42109 12.7417 8.90758 12.7417C9.17173 12.7417 9.3853 12.6271 9.50417 12.4667V12.6167C9.50417 12.6604 9.54599 12.6958 9.59001 12.6958H9.81235C9.85859 12.6958 9.89601 12.6604 9.89601 12.6167V11.0667C9.8938 11.0208 9.85638 10.9854 9.81014 10.9854ZM8.9516 12.4C8.62801 12.4 8.39686 12.15 8.39686 11.8396C8.39686 11.525 8.6258 11.2833 8.9516 11.2833C9.27302 11.2833 9.50635 11.525 9.50635 11.8396C9.50417 12.1521 9.27081 12.4 8.9516 12.4ZM12.4628 12.4542C12.5112 12.5104 12.4694 12.5542 12.443 12.5729C12.2889 12.6833 12.0842 12.7437 11.8619 12.7437C11.3005 12.7437 10.9263 12.3542 10.9263 11.8417C10.9263 11.3292 11.3005 10.9354 11.8619 10.9354C12.0842 10.9354 12.2867 10.9958 12.443 11.1063C12.4694 11.125 12.5069 11.1625 12.4628 11.225L12.3572 11.3646C12.3153 11.4187 12.2669 11.4042 12.2251 11.3791C12.126 11.3229 12.0093 11.275 11.8751 11.275C11.547 11.275 11.3291 11.525 11.3291 11.8417C11.3291 12.1583 11.547 12.4062 11.8751 12.4062C12.0116 12.4062 12.1194 12.3562 12.2185 12.3021C12.2603 12.2812 12.3043 12.2625 12.3506 12.3208L12.4628 12.4542ZM13.5107 10.9375C12.9824 10.9375 12.5619 11.3292 12.5619 11.8396C12.5619 12.3542 12.9846 12.7417 13.5107 12.7417C14.0391 12.7417 14.4595 12.3521 14.4595 11.8396C14.4617 11.3313 14.0391 10.9375 13.5107 10.9375ZM13.5107 12.3979C13.1871 12.3979 12.956 12.1521 12.956 11.8417C12.956 11.5271 13.1849 11.2854 13.5107 11.2854C13.8343 11.2854 14.0655 11.5271 14.0655 11.8417C14.0655 12.1521 13.8365 12.3979 13.5107 12.3979ZM10.5894 10.1708C10.6379 10.1708 10.6731 10.2104 10.6731 10.2521V12.6146C10.6731 12.6584 10.6401 12.6958 10.5894 12.6958H10.3671C10.3209 12.6958 10.2813 12.6563 10.2813 12.6146V10.2541C10.2813 10.2104 10.3231 10.1729 10.3671 10.1729H10.5894" fill="#3253DC"/>
</g>
</g>
</g>
<defs>
<filter id="filter0_d_3396_51094" x="-7.36253" y="-6.13545" width="37.9751" height="37.9751" filterUnits="userSpaceOnUse" color-interpolation-filters="sRGB">
<feFlood flood-opacity="0" result="BackgroundImageFix"/>
<feColorMatrix in="SourceAlpha" type="matrix" values="0 0 0 0 0 0 0 0 0 0 0 0 0 0 0 0 0 0 127 0" result="hardAlpha"/>
<feOffset dy="1.22708"/>
<feGaussianBlur stdDeviation="3.68127"/>
<feComposite in2="hardAlpha" operator="out"/>
<feColorMatrix type="matrix" values="0 0 0 0 0 0 0 0 0 0 0 0 0 0 0 0 0 0 0.08 0"/>
<feBlend mode="normal" in2="BackgroundImageFix" result="effect1_dropShadow_3396_51094"/>
<feBlend mode="normal" in="SourceGraphic" in2="effect1_dropShadow_3396_51094" result="shape"/>
</filter>
<clipPath id="clip0_3396_51094">
<rect width="24" height="23.25" fill="white"/>
</clipPath>
</defs>
</svg>
