<svg width="24" height="24" viewBox="0 0 24 24" fill="none" xmlns="http://www.w3.org/2000/svg">
<g clip-path="url(#clip0_3396_59577)">
<g filter="url(#filter0_d_3396_59577)">
<path d="M0 12C0 5.37258 5.37258 0 12 0C18.6274 0 24 5.37258 24 12C24 18.6274 18.6274 24 12 24C5.37258 24 0 18.6274 0 12Z" fill="currentColor"/>
<path d="M5.37919 15.2109C4.85559 16.2632 5.02264 17.7693 6.12794 18.8595C7.38501 20.1002 9.35007 20.8471 12.0252 20.8471C14.7094 20.8471 16.6735 20.0767 17.8755 18.8595C19.0562 17.6658 19.1 16.1126 18.6182 15.1751C18.4226 14.796 18.1587 14.4456 17.7991 14.1136C18.0681 14.3892 18.2871 14.6904 18.4491 15.007C18.4552 15.0183 18.4603 15.0337 18.4664 15.045C18.4898 15.0921 18.5133 15.1423 18.5336 15.1914C18.6335 15.424 18.6997 15.6617 18.7323 15.9035C18.8056 16.4384 18.7088 16.965 18.4368 17.4824C18.2698 17.797 18.0395 18.1084 17.738 18.4056C16.5135 19.6135 14.4252 20.3584 12.0048 20.3584C9.73005 20.3584 7.75377 19.7027 6.50486 18.6238C6.42336 18.5531 6.34392 18.4793 6.27055 18.4066C5.20093 17.3502 5.00432 16.1423 5.53913 15.045C5.55034 15.0214 5.56255 14.9978 5.57376 14.9742C5.73776 14.6628 5.95679 14.3687 6.21963 14.0982C6.22268 14.0952 6.22776 14.09 6.23084 14.0859C5.89466 14.422 5.62471 14.7161 5.37919 15.2109Z" fill="url(#paint0_linear_3396_59577)"/>
<path d="M15.8041 12.8207C14.6692 12.3474 13.348 12.1035 12.0064 12.1035C10.6647 12.1035 9.34247 12.3474 8.20865 12.8207C6.96584 13.3381 6.0042 14.1086 5.54477 15.0471C5.00996 16.1434 5.20554 17.3524 6.2762 18.4078C7.50169 19.6167 9.58899 20.3606 12.0094 20.3606C14.4298 20.3606 16.5182 19.6167 17.7426 18.4078C18.8123 17.3524 19.0089 16.1434 18.471 15.0471C18.0055 14.1086 17.0469 13.3392 15.8041 12.8207Z" fill="currentColor"/>
<path d="M12.2411 15.1815C12.2411 15.1815 12.1331 15.2112 12.0129 15.2429C12.021 15.5257 12.0302 15.8136 12.0394 16.1015C12.2289 15.8044 12.3633 15.496 12.4428 15.1784C12.4163 15.1753 12.3868 15.1753 12.3613 15.1753C12.3205 15.1753 12.2788 15.1784 12.2411 15.1815ZM12.0047 14.9991C12.0047 15.0339 12.0078 15.0698 12.0078 15.1046C12.0404 15.0575 12.072 15.0165 12.1046 14.9776C12.0934 14.9714 12.0811 14.9663 12.0699 14.9601C12.0485 14.9755 12.0282 14.9868 12.0047 14.9991ZM12.0047 14.9253C10.7354 14.9458 9.73305 15.0052 8.48515 15.1107C9.58128 15.1138 10.4319 15.1548 11.5463 15.2429C10.7538 15.7337 9.97958 16.2573 9.22473 16.8044C10.0081 16.3597 10.8068 15.9396 11.6166 15.5482C11.5963 15.4571 11.5759 15.3659 11.5555 15.2747L11.5494 15.2419C11.7012 15.1476 11.856 15.0534 12.0078 14.9591C12.0047 14.9489 12.0047 14.9376 12.0047 14.9253C12.0047 14.9222 12.0047 14.9222 12.0047 14.9253C12.0047 14.9222 12.0047 14.9222 12.0047 14.9253ZM12.0047 14.9253C12.0159 14.9315 12.0251 14.9366 12.0363 14.9438C12.0251 14.9499 12.0129 14.9581 12.0047 14.9642C12.0108 14.9612 12.0129 14.9581 12.019 14.955L12.0394 14.9438C12.0506 14.9376 12.0628 14.9284 12.074 14.9232C12.0485 14.9222 12.0282 14.9222 12.0047 14.9253ZM12.072 14.9222C12.1015 14.9222 12.128 14.9222 12.1565 14.9222C12.1911 14.8843 12.2268 14.8454 12.2676 14.8075C12.2003 14.8464 12.1361 14.8843 12.072 14.9222ZM12.508 14.3608C12.508 14.3638 12.511 14.369 12.511 14.372C12.51 14.37 12.51 14.3638 12.508 14.3608ZM11.0777 14.6784C11.2356 14.661 11.3966 14.6435 11.5545 14.6282C10.9147 14.2696 10.2597 13.9345 9.5894 13.6374C10.1018 13.9612 10.5948 14.3106 11.0777 14.6784ZM11.5545 14.6282C11.7236 14.7224 11.8937 14.8187 12.0628 14.9192C12.0659 14.9222 12.0689 14.9222 12.071 14.9253C12.071 14.2962 12.071 13.6671 12.071 13.0339C11.8815 13.5585 11.7124 14.0934 11.5545 14.6282ZM12.0628 12.7143C10.3432 12.7143 7.59278 13.3055 7.15981 15.2993C7.08647 15.6343 7.09258 15.9407 7.15981 16.2193C7.40533 17.1015 8.27937 17.707 9.27668 18.0892C10.3269 17.7163 11.145 17.1753 11.6971 16.5482C11.6421 16.2982 11.5861 16.0482 11.528 15.7952C10.5103 16.2777 9.58635 16.7388 8.57785 17.2767C9.29095 16.5646 9.96633 15.9509 10.7324 15.2983C9.64442 15.2275 8.60433 15.2132 7.49293 15.1978C8.58295 14.9591 9.66274 14.7747 10.7701 14.6333C10.2495 14.2214 9.74017 13.8393 9.18194 13.4806L9.09739 13.4274C9.93679 13.6415 10.7324 13.8976 11.5443 14.1978C11.7052 13.7153 11.8743 13.2358 12.0679 12.7655C12.0659 12.7491 12.0659 12.7317 12.0628 12.7143ZM8.20704 12.8198C6.99682 13.3259 6.0525 14.0667 5.57881 14.9755C5.5676 14.9991 5.55538 15.0226 5.54417 15.0462C5.00631 16.1425 5.20494 17.3515 6.2756 18.4068C6.35199 18.4806 6.42738 18.5544 6.50988 18.624C7.41654 18.5708 8.23761 18.4212 8.95679 18.1978C7.99515 17.7859 7.18223 17.163 6.97138 16.2777C6.8868 15.9694 6.87458 15.6251 6.96017 15.2481C7.41858 13.1866 10.2638 12.5719 12.0475 12.5719C12.0506 12.5719 12.0557 12.5719 12.0587 12.5719C12.0587 12.4069 12.0761 12.2481 12.0964 12.1016C12.0648 12.1016 12.0353 12.1016 12.0027 12.1016C10.6631 12.1026 9.34086 12.3464 8.20704 12.8198Z" fill="url(#paint1_linear_3396_59577)"/>
<path fill-rule="evenodd" clip-rule="evenodd" d="M9.09955 13.427C9.93896 13.6411 10.7335 13.8972 11.5464 14.1974C11.7074 13.7118 11.8765 13.2302 12.0731 12.76C12.2687 13.2333 12.4388 13.7128 12.5998 14.1974C13.4096 13.8972 14.193 13.6503 15.0324 13.4392C14.4416 13.8122 13.921 14.1954 13.375 14.6267C14.4833 14.7681 15.5214 14.9536 16.6114 15.1913C15.5234 15.1677 14.4976 15.2056 13.4127 15.2763C14.1788 15.929 14.8338 16.5611 15.5469 17.2732C14.5699 16.7118 13.6552 16.2415 12.6375 15.7589C12.4419 16.6144 12.2544 17.473 12.0731 18.3316C11.8948 17.473 11.7278 16.6554 11.5322 15.7999C10.5145 16.2824 9.59054 16.7435 8.58204 17.2814C9.29513 16.5693 9.97051 15.9556 10.7366 15.303C9.64863 15.2323 8.60852 15.2179 7.49712 15.2025C8.58815 14.9648 9.66696 14.7794 10.7743 14.638C10.2252 14.2005 9.68733 13.8009 9.09955 13.427ZM12.0731 14.9239C12.0731 14.2948 12.0731 13.6657 12.0731 13.0335C11.8826 13.5602 11.7135 14.0919 11.5556 14.6278C11.7288 14.7241 11.9009 14.8245 12.0731 14.9239ZM9.58852 13.636C10.2608 13.9331 10.9128 14.2681 11.5536 14.6267C11.3957 14.6411 11.2347 14.6595 11.0768 14.677C10.594 14.3122 10.0999 13.9628 9.58852 13.636ZM12.0731 14.9239C13.3679 14.9269 14.6606 14.9915 15.9472 15.1206C14.8154 14.9146 13.7193 14.7589 12.5876 14.6267C12.4123 14.7241 12.2432 14.8214 12.0731 14.9239ZM14.5526 13.636C13.8803 13.9331 13.2253 14.2681 12.5855 14.6267C12.559 14.5386 12.5325 14.4505 12.5071 14.3624C13.1784 14.0919 13.863 13.848 14.5526 13.636ZM12.0028 14.9239C12.0293 15.8357 12.0639 16.806 12.07 17.6882C12.2392 16.8706 12.4154 16.056 12.6018 15.2415C12.4266 15.1329 12.1811 15.0273 12.0028 14.9239ZM14.9234 16.806C14.1696 16.2589 13.3974 15.7353 12.6049 15.2415C12.7658 15.2302 12.9298 15.2148 13.0898 15.2066C13.7193 15.7179 14.3305 16.2528 14.9234 16.806ZM12.0731 14.9239C10.7722 14.9413 9.75456 15.0007 8.48628 15.1124C9.58241 15.1154 10.433 15.1564 11.5474 15.2446C11.7196 15.136 11.8948 15.0294 12.0731 14.9239ZM9.2228 16.806C9.9797 16.2589 10.7519 15.7353 11.5444 15.2446C11.5678 15.347 11.5913 15.4474 11.6147 15.5499C10.8018 15.9413 10.0062 16.3624 9.2228 16.806ZM12.1994 20.1123C12.1994 19.7568 12.1994 19.4033 12.1964 19.0509C12.1587 19.0242 12.1088 18.9976 12.0711 18.9709C12.0334 18.9976 11.9774 19.0242 11.9397 19.0509C11.9397 19.4033 11.9397 19.7599 11.9397 20.1123C11.9804 20.139 12.0334 20.1687 12.0711 20.1974C12.1088 20.1707 12.1617 20.141 12.1994 20.1123ZM5.93344 17.5437C5.91306 17.5816 5.89269 17.6226 5.87232 17.6646C5.91001 17.679 5.9864 17.7025 6.01899 17.7179C6.38776 17.5212 6.75247 17.3214 7.11512 17.1298C7.12939 17.0734 7.13855 17.0417 7.15281 17.0007C7.11512 16.9915 7.0764 16.9802 7.04176 16.971C6.66994 17.1564 6.30117 17.347 5.93344 17.5437ZM5.66144 15.3644C5.6268 15.3911 5.59421 15.4177 5.55957 15.4464L5.61559 15.5232C5.96093 15.473 6.30526 15.432 6.6506 15.3972C6.68319 15.3644 6.72088 15.3296 6.75247 15.2999L6.69134 15.2384C6.34805 15.2733 6.00577 15.3142 5.66144 15.3644ZM6.98675 13.6073C6.95211 13.6216 6.91649 13.637 6.88185 13.6514L6.89102 13.7302C7.14567 13.7651 7.39934 13.8091 7.65094 13.8593C7.68353 13.8388 7.72736 13.8122 7.75895 13.7978L7.74468 13.7302C7.49305 13.6841 7.23837 13.6431 6.98675 13.6073ZM14.7492 12.5233C14.6148 12.6083 14.4833 12.6964 14.3519 12.7825L14.3896 12.8266C14.4243 12.8266 14.4569 12.8266 14.4915 12.8266C14.6199 12.7354 14.7492 12.6473 14.8837 12.5622L14.846 12.5243C14.8134 12.5233 14.7808 12.5233 14.7492 12.5233ZM11.9804 12.1544C11.9804 12.26 11.9804 12.3634 11.9774 12.4659L12.0538 12.4925L12.1302 12.4659C12.1302 12.3634 12.1271 12.2569 12.1271 12.1544L12.0538 12.1309L11.9804 12.1544ZM9.20142 12.5704C9.33588 12.6554 9.46423 12.7436 9.59362 12.8378C9.62621 12.8378 9.67511 12.8286 9.7077 12.8286L9.74539 12.7845C9.61704 12.6933 9.48561 12.6083 9.35115 12.5233C9.31856 12.5233 9.28698 12.5233 9.25439 12.5233L9.20142 12.5704ZM8.39153 19.4638C8.64927 19.1523 8.9121 18.8429 9.17186 18.5376C9.15759 18.5079 9.13416 18.4556 9.12195 18.4228C9.06898 18.432 9.00481 18.4433 8.95285 18.4556C8.68696 18.7609 8.42619 19.0703 8.16947 19.3787C8.18068 19.4166 8.20716 19.4525 8.21938 19.4904C8.27134 19.475 8.33857 19.475 8.39153 19.4638ZM18.1232 17.5437C17.7574 17.347 17.3866 17.1554 17.0148 16.9699C16.9802 16.9792 16.9415 16.9904 16.9038 16.9997C16.918 17.0406 16.9272 17.0734 16.9415 17.1288C17.3041 17.3204 17.6698 17.5202 18.0376 17.7169C18.0702 17.7025 18.1455 17.679 18.1843 17.6636C18.1639 17.6236 18.1435 17.5827 18.1232 17.5437ZM18.3952 15.3644C18.0529 15.3142 17.7085 15.2733 17.3663 15.2384L17.3051 15.2999C17.3377 15.3296 17.3754 15.3644 17.407 15.3972C17.7523 15.432 18.0967 15.4741 18.442 15.5232L18.498 15.4464C18.4624 15.4167 18.4298 15.3901 18.3952 15.3644ZM17.0729 13.6073C16.8182 13.6421 16.5645 13.6841 16.3099 13.7313L16.2987 13.7989C16.3312 13.8132 16.3751 13.8399 16.4067 13.8603C16.6583 13.8101 16.9129 13.7661 17.1666 13.7313L17.1778 13.6524C17.1421 13.637 17.1075 13.6227 17.0729 13.6073ZM15.665 19.4638C15.7088 19.4699 15.7852 19.4812 15.8372 19.4904C15.8545 19.4556 15.8698 19.4166 15.8871 19.3787C15.6294 19.0703 15.3696 18.7609 15.1037 18.4556C15.0507 18.4443 14.9866 18.432 14.9346 18.4228C14.9234 18.4556 14.9 18.5079 14.8847 18.5376C15.1475 18.8429 15.4073 19.1523 15.665 19.4638Z" fill="currentColor"/>
<path fill-rule="evenodd" clip-rule="evenodd" d="M12.0451 14.9382L12.0716 14.9207V14.9587C11.8964 15.0642 11.7232 15.1677 11.5511 15.2732L11.5449 15.2404C11.7028 15.1431 11.8607 15.0468 12.0186 14.9525L12.0451 14.9382ZM12.586 14.6257C12.5596 14.5375 12.5331 14.4494 12.5076 14.3613V14.3931C12.531 14.473 12.5545 14.5519 12.5779 14.6308L12.586 14.6257Z" fill="currentColor"/>
<path fill-rule="evenodd" clip-rule="evenodd" d="M12.0722 12.7906C12.2678 13.2639 12.4379 13.7434 12.5989 14.2281C13.3823 13.9371 14.1371 13.7014 14.947 13.4904L15.0315 13.4371C14.1921 13.6523 13.4118 13.8961 12.5989 14.1953C12.4379 13.7096 12.2688 13.2312 12.0722 12.7578C11.8766 13.2312 11.7065 13.7107 11.5455 14.1953C10.7357 13.8951 9.93803 13.64 9.09863 13.4248L9.18318 13.4781C9.99304 13.6902 10.7622 13.9371 11.5455 14.2281C11.7065 13.7424 11.8756 13.2639 12.0722 12.7906Z" fill="currentColor"/>
<path fill-rule="evenodd" clip-rule="evenodd" d="M5.92925 17.6042L5.89458 17.6688L5.87116 17.6595C5.89153 17.6186 5.9119 17.5807 5.93228 17.5386C6.30104 17.3419 6.6688 17.1503 7.04062 16.9649C7.07832 16.9741 7.11399 16.9854 7.15168 16.9946L7.13128 17.0592C7.10174 17.0499 7.061 17.0448 7.03146 17.0356C6.66065 17.2221 6.29802 17.4075 5.92925 17.6042ZM5.67457 15.4116C6.01685 15.3614 6.353 15.3204 6.70038 15.2825L6.73502 15.3173L6.7554 15.2969L6.69427 15.2354C6.34894 15.2702 6.00766 15.3153 5.66232 15.3645C5.62973 15.3942 5.59509 15.4208 5.5625 15.4465L5.58593 15.4792L5.67457 15.4116ZM6.99172 13.6678C7.24335 13.7026 7.75778 13.8061 7.76389 13.803L7.74966 13.7354C7.49497 13.6852 7.24335 13.6442 6.9897 13.6094C6.95507 13.6237 6.91939 13.6391 6.88475 13.6534L6.89089 13.7067L6.99172 13.6678Z" fill="currentColor"/>
<path fill-rule="evenodd" clip-rule="evenodd" d="M12.602 15.2405C13.3976 15.7313 14.1688 16.2579 14.9206 16.8051V16.8522C13.9263 16.1319 13.1399 15.6145 12.599 15.2794C12.4115 16.094 12.2394 16.9024 12.0703 17.72V17.6872C12.2373 16.8788 12.4187 16.0428 12.602 15.2405ZM13.4445 15.3051L13.4098 15.2754V15.3256C14.1494 15.9547 14.7403 16.5192 15.4269 17.2046L15.544 17.2723C14.8207 16.5489 14.1749 15.928 13.4445 15.3051ZM13.3701 14.6268V14.6647C14.4224 14.8 15.3871 14.968 16.4252 15.1883C16.4782 15.1883 16.5535 15.1913 16.6065 15.1913C15.5165 14.9537 14.4785 14.7682 13.3701 14.6268ZM12.0723 14.9209H12.1253H12.0723L12.0988 14.9383L12.1314 14.9557C13.4088 14.9588 14.6781 15.0233 15.9464 15.1524V15.1176C14.6598 14.9885 13.3671 14.9239 12.0723 14.9209ZM12.5868 14.6258L12.6336 14.6319C13.2591 14.2846 13.8998 13.9588 14.5548 13.6678V13.635C13.8815 13.9321 13.2265 14.2672 12.5868 14.6258ZM14.8462 12.5776L14.8523 12.5838L14.8849 12.5633L14.8472 12.5254C14.8146 12.5254 14.783 12.5254 14.7505 12.5254C14.616 12.6104 14.4846 12.6955 14.3562 12.7867L14.3857 12.8194C14.5059 12.7375 14.6282 12.6545 14.7515 12.5787C14.782 12.5776 14.8136 12.5776 14.8462 12.5776ZM9.11705 18.4659L9.16393 18.554L9.17817 18.5397C9.17206 18.5253 9.14353 18.4546 9.12826 18.4249C9.07529 18.4362 9.01112 18.4485 8.95916 18.4577C8.69635 18.763 8.43248 19.0694 8.17578 19.3809L8.19616 19.4249C8.36323 19.2282 8.71978 18.7958 8.97954 18.4956C9.01723 18.4803 9.07325 18.4751 9.11705 18.4659ZM18.1295 17.6042L18.1641 17.6688L18.1875 17.6596C18.1672 17.6186 18.1468 17.5807 18.1264 17.5387C17.7576 17.3419 17.3899 17.1503 17.0181 16.9649C16.9804 16.9741 16.9416 16.9854 16.907 16.9946L16.9274 17.0592L17.0272 17.0356C17.396 17.2221 17.7607 17.4075 18.1295 17.6042ZM18.3852 15.4116L18.4728 15.4792L18.4962 15.4465C18.4636 15.4198 18.429 15.3932 18.3964 15.3645C18.051 15.3143 17.7098 15.2702 17.3644 15.2354L17.3033 15.2969L17.3237 15.3174L17.3583 15.2825C17.7036 15.3204 18.0398 15.3614 18.3852 15.4116ZM17.1698 13.7057L17.176 13.6524C17.1413 13.6381 17.1057 13.6227 17.071 13.6084C16.8164 13.6432 16.5627 13.6852 16.3111 13.7344L16.2968 13.802C16.3029 13.8051 16.8174 13.7016 17.069 13.6668L17.1698 13.7057ZM14.943 18.4659C14.9837 18.4751 15.0428 18.4803 15.0805 18.4987C15.3403 18.7989 15.6999 19.2282 15.8669 19.4249L15.8843 19.3809C15.6265 19.0694 15.3637 18.763 15.1009 18.4577C15.0479 18.4485 14.9837 18.4372 14.9318 18.4249C14.9175 18.4546 14.888 18.5253 14.8819 18.5397L14.8961 18.554L14.943 18.4659ZM12.1752 19.0878L12.1986 20.1114L12.1956 19.0499C12.1579 19.0233 12.1079 18.9966 12.0703 18.971C12.0326 18.9977 11.9766 19.0243 11.9389 19.0499V20.1114L11.9623 19.0878C11.9949 19.0673 12.0387 19.0468 12.0672 19.0264L12.1752 19.0878Z" fill="currentColor"/>
<path fill-rule="evenodd" clip-rule="evenodd" d="M10.7312 15.3473C9.98856 15.9764 9.38041 16.5297 8.69077 17.2141L8.57971 17.2786C9.2816 16.5788 9.97737 15.9436 10.7312 15.3002V15.3473ZM11.5543 14.6291L11.5044 14.6352C11.3607 14.6495 11.2181 14.6649 11.0745 14.6823C10.5916 14.3145 10.0976 13.9651 9.58619 13.6383V13.6762C10.0976 14.003 10.5916 14.3524 11.0745 14.7202C11.2324 14.7028 11.3933 14.6854 11.5513 14.67C11.7061 14.7551 11.8528 14.8381 12.0076 14.9293H12.0687C11.9017 14.8258 11.7234 14.7233 11.5543 14.6291ZM9.22252 16.8514C10.0059 16.4077 10.8046 15.9866 11.6144 15.5963V15.5522C10.8015 15.9436 10.0059 16.3637 9.22252 16.8073V16.8514ZM10.7353 14.6383C9.63915 14.7797 8.57158 14.9651 7.49277 15.1967C7.54574 15.1967 7.60991 15.1998 7.66492 15.1998C8.70298 14.9795 9.71759 14.8053 10.7699 14.67V14.6321L10.7353 14.6383ZM11.5451 15.2438C10.5244 15.1557 9.50979 15.1055 8.487 15.1116V15.1444C9.49553 15.1352 10.499 15.1854 11.5044 15.2735L11.5451 15.2438ZM9.35392 12.5686C9.4772 12.6455 9.59636 12.7336 9.71658 12.8156L9.74612 12.7828C9.61777 12.6916 9.48637 12.6035 9.35188 12.5215C9.31929 12.5215 9.2877 12.5215 9.25511 12.5215L9.20212 12.5686L9.23474 12.5891L9.25817 12.5686C9.28975 12.5686 9.32133 12.5686 9.35392 12.5686ZM6.95796 15.252C6.38748 17.8186 10.2005 18.7776 12.0484 18.7776C13.8963 18.7776 17.7083 17.8186 17.1357 15.252C16.6743 13.1905 13.829 12.5758 12.0453 12.5758C10.2616 12.5758 7.41638 13.1875 6.95796 15.252ZM7.14438 15.2377C6.60957 17.7048 10.2697 18.6167 12.0474 18.6167C13.825 18.6167 17.4852 17.7048 16.9503 15.2377C16.5184 13.2438 13.7669 12.6526 12.0474 12.6526C10.3288 12.6526 7.57732 13.2438 7.14438 15.2377Z" fill="currentColor"/>
<path fill-rule="evenodd" clip-rule="evenodd" d="M6.97515 15.3164C7.43457 13.2519 10.1616 12.6289 12.0625 12.6289C13.9603 12.6289 16.6904 13.2519 17.1499 15.3164C17.7234 17.883 13.9104 18.8389 12.0625 18.8389C10.2146 18.8389 6.40161 17.883 6.97515 15.3164ZM7.16156 15.301C7.59451 13.3072 10.345 12.716 12.0646 12.716C13.781 12.716 16.5346 13.3072 16.9675 15.301C17.5023 17.7682 13.8422 18.6801 12.0646 18.6801C10.2869 18.6801 6.62675 17.7651 7.16156 15.301Z" fill="currentColor"/>
<path d="M12.0098 15.1087C12.0098 15.1528 12.0128 15.1999 12.0128 15.244C12.132 15.2122 12.241 15.1825 12.241 15.1825C12.2787 15.1763 12.3174 15.1763 12.3582 15.1763C12.3846 15.1763 12.4132 15.1763 12.4397 15.1794C12.4427 15.1712 12.4427 15.1651 12.4458 15.1558C12.3347 15.0975 12.2115 15.038 12.1035 14.9827C12.075 15.0206 12.0424 15.0616 12.0098 15.1087ZM12.2644 14.8085C12.2257 14.8464 12.1881 14.8854 12.1534 14.9233C12.2644 14.9233 12.3755 14.9263 12.4865 14.9263C12.4977 14.8413 12.5069 14.7522 12.5099 14.6641C12.4315 14.7153 12.349 14.7624 12.2644 14.8085Z" fill="url(#paint2_linear_3396_59577)"/>
<path d="M14.1871 13.6999C14.1637 13.6937 14.1433 13.6876 14.126 13.6855C14.4214 13.5974 14.7219 13.5154 15.0296 13.4355L14.945 13.4888C14.945 13.4888 14.945 13.4888 14.942 13.4888C14.6873 13.5595 14.4356 13.6292 14.1871 13.6999Z" fill="currentColor"/>
<path d="M17.4251 17.1767C17.3579 17.144 17.2967 17.1122 17.2438 17.0856C17.3049 17.1153 17.364 17.145 17.4251 17.1767ZM13.6722 15.5016C13.5958 15.437 13.5205 15.3694 13.4471 15.3079L13.4125 15.2782V15.3284C13.4685 15.3786 13.5235 15.4257 13.5795 15.4729C13.6081 15.4811 13.6396 15.4903 13.6722 15.5016ZM16.6081 15.1901C16.2159 15.105 15.8309 15.0282 15.4499 14.9544C15.459 14.9657 15.4672 14.9811 15.4763 14.9954C15.7891 15.0538 16.1049 15.1194 16.4268 15.187C16.4798 15.187 16.5551 15.1901 16.6081 15.1901ZM14.3833 15.0292C14.3191 15.0118 14.2427 14.9944 14.1612 14.9821C13.495 14.9442 12.8247 14.9257 12.1584 14.9237C12.1472 14.935 12.1381 14.9442 12.1289 14.9565L12.132 14.9595C12.8827 14.9616 13.6345 14.9852 14.3833 15.0292ZM15.9439 15.1563V15.1214C15.8095 15.1102 15.6719 15.0948 15.5344 15.0835C15.5436 15.0958 15.5517 15.1102 15.5609 15.1214C15.6893 15.1296 15.8156 15.144 15.9439 15.1563ZM14.3751 13.7465C14.4332 13.7198 14.4923 13.6932 14.5503 13.6675V13.6348C14.477 13.6675 14.4016 13.6993 14.3283 13.7352C14.3487 13.7403 14.3639 13.7434 14.3751 13.7465Z" fill="currentColor"/>
<path d="M18.3804 17.591C18.2134 17.5347 17.761 17.341 17.4269 17.1761C17.3658 17.1433 17.3067 17.1146 17.2456 17.0849C17.1549 17.0377 17.0877 16.9968 17.0551 16.9671C17.0551 16.9671 16.994 16.9343 16.9033 16.8851C17.1376 16.5142 17.2537 16.0849 17.1987 15.588L17.3036 15.6115L18.137 15.7376L18.7247 15.8615C18.7278 15.8759 18.7278 15.8882 18.7308 15.9025C18.7451 16.0142 18.7543 16.1259 18.7543 16.2375C18.7543 16.6556 18.6524 17.0726 18.4354 17.4814C18.4191 17.5203 18.4008 17.5562 18.3804 17.591ZM14.328 13.7366C14.4045 13.7017 14.4768 13.6658 14.5501 13.6341C14.4564 13.6638 14.3657 13.6925 14.272 13.7222C14.2924 13.7283 14.3107 13.7335 14.328 13.7366ZM14.1559 14.9804C14.0887 14.9712 14.0122 14.963 13.9307 14.9568C13.1301 14.8861 12.8224 14.7775 12.744 14.7509C12.6003 14.7007 12.5983 14.674 12.5127 14.6628C12.5097 14.7509 12.5015 14.839 12.4893 14.924C13.0445 14.9332 13.5997 14.9517 14.1559 14.9804ZM15.9447 15.1187C15.799 15.0921 15.6523 15.0654 15.5087 15.0419C15.5179 15.0531 15.526 15.0685 15.5352 15.0798C15.6697 15.0921 15.8072 15.1044 15.9447 15.1187ZM12.5005 15.1802C12.4832 15.171 12.4659 15.1628 12.4475 15.1505C12.4445 15.1597 12.4445 15.1648 12.4414 15.174C12.4628 15.1781 12.4801 15.1781 12.5005 15.1802ZM13.2992 15.3748C13.2289 15.3185 13.1586 15.2632 13.0913 15.2048C12.9864 15.2109 12.8835 15.216 12.7816 15.2253C12.8866 15.2488 12.9569 15.2693 12.9569 15.2693C13.0618 15.2929 13.2085 15.3421 13.2992 15.3748ZM16.6812 16.7713C16.9176 16.4097 17.0378 15.9896 16.9879 15.5039C16.8676 15.4363 16.7393 15.3359 16.666 15.2242C16.5518 15.0449 16.2717 14.7335 16.1158 14.5388C15.9019 14.2714 15.417 14.0245 15.3467 13.9128C15.2764 13.8011 15.1593 13.6075 15.1277 13.5306C15.0951 13.4568 15.0279 13.3984 14.9148 13.3984C14.9087 13.3984 14.9005 13.3984 14.8944 13.3984C14.7661 13.4077 14.7569 13.4517 14.6489 13.4568C14.6347 13.4568 14.6194 13.4568 14.6051 13.4568C14.5033 13.4568 14.3892 13.4394 14.3892 13.4394C14.3219 13.4282 14.2781 13.4189 14.2313 13.4189C14.1671 13.5306 14.0642 13.5982 13.8156 13.5982L13.7718 13.5921C13.7953 13.6454 14.0112 13.6771 14.0611 13.6771C14.0642 13.6771 14.0642 13.6771 14.0672 13.6771H14.0703C14.0815 13.6771 14.0999 13.6802 14.1233 13.6863C14.4187 13.5982 14.7192 13.5163 15.0269 13.4363L14.9423 13.4896C14.9393 13.4896 14.9393 13.4896 14.9393 13.4896C14.7956 13.5808 14.6561 13.6751 14.5185 13.7693C14.542 13.7806 14.5746 13.796 14.6184 13.8226C14.8873 13.9753 15.2846 14.4015 15.3641 14.7724C15.3753 14.8257 15.4079 14.8872 15.4486 14.9517C15.8316 15.0224 16.2177 15.1013 16.6089 15.1873C16.5559 15.1873 16.4806 15.1843 16.4276 15.1843C16.2727 15.1812 16.1179 15.1812 15.9631 15.1812C15.8428 15.1812 15.7288 15.1843 15.6126 15.1843C15.7002 15.3021 15.7817 15.4169 15.8 15.5019C15.4466 15.4783 15.0044 15.2929 14.8119 15.2048C14.3505 15.2191 13.888 15.2458 13.4112 15.2755C13.4988 15.3523 13.5864 15.4281 13.671 15.5019C14.0306 15.6197 14.6123 15.8257 14.8028 15.964C14.9872 16.0992 15.9376 16.4548 16.1882 16.5429C16.3043 16.5828 16.5029 16.6802 16.6812 16.7713ZM18.5679 15.2806C18.5567 15.2509 18.5475 15.2222 18.5302 15.1986C18.5098 15.1484 18.4864 15.1013 18.4629 15.0521C18.4629 15.049 18.4599 15.049 18.4599 15.046V15.0429C18.4599 15.0398 18.4599 15.0398 18.4599 15.0398C18.4537 15.0306 18.4507 15.0193 18.4456 15.0101C18.4161 14.9486 18.3814 14.8861 18.3458 14.8277C18.3346 14.8247 18.1909 14.7837 17.8283 14.7837C17.7936 14.7837 17.7549 14.7837 17.7172 14.7837C17.7142 14.7837 17.7142 14.7837 17.7111 14.7837C17.6327 14.7837 17.5441 14.8042 17.5441 14.8042L17.3159 14.9394C17.2863 14.9865 17.3892 15.048 17.3892 15.048C17.3892 15.048 17.6755 15.0654 17.6755 15.1423C17.8863 15.257 18.3366 15.2693 18.5679 15.2806ZM15.632 17.7068C15.7196 17.6566 15.8041 17.6013 15.8897 17.5449C15.8398 17.5357 15.7695 17.5275 15.6758 17.5275C15.5943 17.5275 15.5994 17.6125 15.632 17.7068ZM17.6347 18.507C17.6694 18.4742 17.702 18.4424 17.7397 18.4127C17.8711 18.2836 17.9852 18.1535 18.0901 18.0213C17.5838 18.0101 16.8646 18.0008 16.3186 17.716C16.3013 17.6597 16.2605 17.631 16.2167 17.6136C16.068 17.7283 15.907 17.8308 15.7339 17.9281C15.7481 17.9517 15.7573 17.9691 15.7573 17.9691C15.9243 18.0808 16.5233 18.2519 16.6486 18.2693C16.7739 18.2836 17.1926 18.4107 17.1926 18.4107C17.1926 18.4107 17.4096 18.4394 17.6347 18.507Z" fill="currentColor"/>
<path d="M16.725 16.7946C16.7107 16.7884 16.6954 16.7802 16.6812 16.7741C16.9175 16.4124 17.0377 15.9944 16.9909 15.5098C16.9939 15.5128 16.997 15.5128 17 15.5159C17.0642 16.0005 16.9532 16.4268 16.725 16.7946ZM15.6543 17.769C15.7623 17.7044 15.8652 17.6399 15.964 17.5692C15.9467 17.563 15.9202 17.5548 15.8876 17.5487C15.8061 17.605 15.7185 17.6573 15.6299 17.7105C15.6401 17.728 15.6462 17.7485 15.6543 17.769Z" fill="currentColor"/>
<path d="M14.5202 13.7727C14.459 13.7461 14.4499 13.7615 14.3765 13.7492H14.3735C14.4315 13.7225 14.4906 13.6959 14.5517 13.6703V13.6375C14.458 13.6672 14.3643 13.6959 14.2736 13.7256C14.2441 13.7195 14.2156 13.7112 14.186 13.7051C14.4346 13.6313 14.6862 13.5637 14.9429 13.4961C14.7983 13.5842 14.6577 13.6785 14.5202 13.7727ZM12.2658 14.8076C12.2861 14.7901 12.3035 14.7697 12.3269 14.7492C12.3595 14.7195 12.3799 14.6877 12.3972 14.658L12.4705 14.661C12.4879 14.661 12.5031 14.6641 12.5174 14.6641C12.4298 14.7133 12.3483 14.7604 12.2658 14.8076ZM16.4272 15.1867C16.2723 15.1836 16.1175 15.1836 15.9626 15.1836C15.8455 15.1836 15.7283 15.1836 15.6142 15.1867C15.5969 15.1631 15.5816 15.1426 15.5643 15.119C15.6927 15.1303 15.819 15.1426 15.9474 15.1539V15.119C15.8098 15.1047 15.6723 15.0924 15.5378 15.0811C15.6754 15.0924 15.8129 15.1077 15.9474 15.119C15.8007 15.0924 15.655 15.0658 15.5083 15.0422C15.4971 15.0278 15.4879 15.0094 15.4757 14.9951C15.7894 15.0545 16.1052 15.119 16.4272 15.1867ZM16.6075 15.1897C16.2153 15.1047 15.8302 15.0248 15.4472 14.9541C15.8332 15.0278 16.2163 15.1047 16.6075 15.1897ZM11.79 15.2983C11.8573 15.2809 11.9154 15.2481 11.948 15.1959C11.9683 15.1631 11.9887 15.1344 12.006 15.1078C12.006 15.1549 12.0091 15.1989 12.0091 15.243C11.9357 15.2635 11.8512 15.284 11.79 15.2983ZM13.6726 15.5012C13.5962 15.4366 13.5239 15.3721 13.4475 15.3075L13.4128 15.2779V15.3281C13.4689 15.3752 13.5239 15.4254 13.5799 15.4725C13.4597 15.4346 13.3812 15.408 13.3812 15.408C13.3812 15.408 13.3486 15.3967 13.3028 15.3783C13.2325 15.3198 13.1653 15.2635 13.095 15.2082C12.9931 15.2143 12.8872 15.2225 12.7853 15.2287C12.7069 15.2112 12.607 15.1938 12.5041 15.1846C12.4868 15.1754 12.4695 15.1672 12.4512 15.1549C12.3401 15.0965 12.2169 15.0371 12.1089 14.9817C12.115 14.9725 12.1232 14.9643 12.1293 14.9582L12.1323 14.9613C12.8841 14.9643 13.6349 14.9879 14.3837 15.0319C14.5446 15.076 14.6353 15.1231 14.6353 15.1231L14.7137 15.161C14.7137 15.161 14.7514 15.1785 14.8135 15.2082C14.3521 15.2225 13.8865 15.2492 13.4128 15.2789C13.5005 15.3516 13.585 15.4254 13.6726 15.5012ZM16.9008 16.8844C17.1352 16.5135 17.2513 16.0842 17.1993 15.5873H17.1963C17.1433 15.576 17.0761 15.5493 17.0037 15.5104C17.0649 16.0012 16.9538 16.4274 16.7256 16.7922C16.7898 16.825 16.8509 16.8577 16.9008 16.8844ZM18.4666 15.0463C18.4666 15.0432 18.4635 15.0432 18.4635 15.0401C18.4666 15.0432 18.4666 15.0463 18.4666 15.0463ZM15.7324 17.9253C15.9015 17.828 16.0655 17.7256 16.2173 17.6108C16.1796 17.5965 16.1389 17.5934 16.1032 17.5934C16.0594 17.5934 16.0248 17.5995 16.0248 17.5995C16.0248 17.5995 16.0136 17.5852 15.9687 17.5667C15.8689 17.6375 15.764 17.702 15.656 17.7665C15.6794 17.828 15.712 17.8874 15.7324 17.9253Z" fill="currentColor"/>
<path d="M14.4812 9.59579L14.3091 9.43389C14.2979 9.38061 14.3559 9.30788 14.3702 9.21669L14.3172 9.19619C14.2765 9.04045 14.2408 8.75767 14.3172 8.60809C14.3519 8.53433 14.3957 8.43801 14.3732 8.35195C14.2327 7.87244 13.9576 7.45544 13.7651 7.00258C13.7121 6.87861 13.7213 6.79047 13.7121 6.66446C13.5634 6.49643 13.3871 6.062 13.3056 5.79358C13.1304 6.2372 13.0133 6.74952 13.0133 6.86732C13.0133 7.36733 13.5196 7.61118 13.3433 8.44314C13.3087 8.60501 13.2496 8.82529 13.1916 9.05479C13.2965 9.6337 13.2965 10.0548 13.4513 10.7279C13.6673 10.9421 13.8456 11.2187 13.9423 11.5691C14.0004 11.7863 14.1817 12.2956 14.416 12.3693C14.5597 12.4164 13.9281 12.5343 13.7498 12.3079C13.5776 12.0906 13.2792 11.9165 13.1386 11.687C13.0275 11.5046 12.8523 11.1101 12.7413 10.9257L12.6068 11.6378C12.7912 12.399 12.6802 12.5671 12.5162 13.1849C12.4459 13.4523 11.9111 12.2023 11.908 12.106C11.908 11.8355 11.8907 11.7351 11.8296 11.4943C11.7185 11.274 11.7297 10.9626 11.745 10.7238C11.7715 10.3273 11.7684 9.58041 11.7827 9.38268C11.6482 9.04762 11.2998 8.44415 11.2652 8.10604C11.2122 7.57635 11.2998 7.04152 11.2275 6.51181C11.1368 6.77613 11.0401 7.11119 10.8353 7.31508C10.5287 7.61835 10.2475 7.95338 9.97248 8.28841C9.87266 8.42675 9.96127 8.4913 9.80543 8.71158C9.65362 8.9257 9.73512 8.82941 9.70353 9.03535C9.69742 9.07017 9.68013 9.0999 9.66892 9.1122C9.58743 9.1798 9.50185 9.23821 9.38571 9.19109C9.16057 9.07631 9.14325 8.9083 9.12798 8.69416C9.09844 8.28228 9.40303 8.26177 9.57518 8.01179C9.91136 7.52102 10.0835 6.69724 10.4462 6.32738C10.4696 6.25359 10.5542 5.98927 10.7151 5.59787C10.7212 5.11018 10.8404 4.67475 11.3406 4.47494C11.5454 4.39297 11.8143 4.37249 11.8235 4.08662C11.8235 4.05177 11.8174 3.96571 11.797 3.93397C11.7155 3.86634 11.6564 3.86634 11.6156 3.81922C11.5341 3.71369 11.4669 3.04259 11.4751 2.99852C11.5922 2.42782 11.8642 2.24032 12.2065 2.25466C12.613 2.27517 12.9349 2.47189 12.9165 3.01903C12.9022 3.4606 12.4489 4.0272 13.1274 4.24236C13.3871 4.32433 13.434 4.269 13.6591 4.49237C13.9077 4.74543 13.9688 5.19216 14.0096 5.60709L14.2643 6.20135C14.7318 6.99232 14.5627 7.24233 14.7318 8.04457C14.7756 8.25359 14.852 8.43597 14.8694 8.89189C14.8877 9.10194 14.7176 9.58758 14.4812 9.59579Z" fill="currentColor"/>
<path d="M11.6688 3.01641C11.6718 3.05126 11.6892 3.59327 11.7686 3.70802C11.9234 3.82585 12.0111 3.78999 12.0029 4.08199C11.9948 4.32583 11.8389 4.47031 11.6291 4.54612C11.2868 4.66599 11.1116 4.7367 10.9975 5.09325C10.9628 5.20492 10.9302 5.36679 10.9302 5.6045V5.61988C10.8335 5.86372 10.7082 6.14342 10.6348 6.40469C10.2141 6.83092 10.0032 7.79505 9.57638 8.20385C9.29317 8.47436 9.20762 8.49176 9.31049 8.9098C9.3217 8.95079 9.45616 9.06041 9.4857 9.07784L9.61713 8.99587C9.6375 8.78376 9.60898 8.80222 9.74344 8.60755C9.86671 8.42825 9.80761 8.33398 9.91559 8.17825C10.1845 7.84013 10.4392 7.49896 10.7397 7.19055C10.9414 6.98461 11.2165 6.2879 11.2807 6.04405C11.2919 6.0092 11.3122 5.99077 11.3214 6.02049C11.3622 6.48462 11.4294 6.87294 11.4121 7.33194C11.3774 8.29403 11.4039 8.19362 11.8012 9.09014C11.8328 8.72843 11.9204 8.20489 12.1282 8.02867C11.8827 8.9641 11.8674 10.2991 11.842 10.7069C11.8267 10.9159 11.7717 11.2448 11.8715 11.4364C11.9031 11.5655 11.9061 11.7622 11.9092 11.9129C11.9092 12.004 11.9153 13.5532 11.9153 13.5532L11.7727 14.2735C11.7228 14.4825 11.4538 14.8298 11.2582 14.9384C11.1971 14.9733 11.0474 15.0532 11.0474 15.1208C11.0474 15.2356 11.7747 15.4476 11.9418 15.1884C12.0671 14.9948 12.17 14.8882 12.3187 14.7438C12.5469 14.5235 12.2922 14.294 12.3248 13.9968C12.3778 13.4763 12.5999 13.0235 12.6732 12.5296C12.717 12.2325 12.7079 11.9712 12.5764 11.6321L12.6732 10.6915C12.7812 10.8534 12.881 11.1126 12.9829 11.3268C13.1642 11.709 13.1673 11.7448 13.4831 12.0593C13.588 12.1649 13.699 12.2889 13.7785 12.418C13.9272 12.6536 14.0271 12.8882 14.0148 13.171C13.9069 13.3677 13.86 13.3565 13.7194 13.4763C13.7255 13.4825 13.6807 13.5911 13.8131 13.5911C14.2868 13.5911 14.2288 13.3411 14.406 13.0214C14.5232 12.8124 14.8532 12.4948 14.4906 12.3862C14.3765 12.3513 14.2685 12.2827 14.2013 12.171C13.9496 11.7479 13.9384 11.7571 13.807 11.3657C13.7276 11.128 13.5646 10.9364 13.3741 10.7838C13.2569 10.5163 13.2101 10.3278 13.1724 10.043C13.1225 9.65775 13.0878 9.38418 13.0206 8.99074C13.205 8.25305 13.3017 8.09627 12.9859 7.3883C12.9126 7.2264 12.8719 7.05327 12.8719 6.85859C12.8719 6.62293 13.0002 6.09426 13.1255 5.81761C13.1693 5.70594 13.2304 5.60041 13.316 5.56763C13.3924 5.85347 13.6552 6.44159 13.807 6.58503C13.8152 6.69978 13.8131 6.81761 13.8569 6.92622C14.0495 7.39035 14.3245 7.81144 14.462 8.30221C14.5089 8.47025 14.4468 8.55222 14.3978 8.68747C14.3826 8.75202 14.3806 8.94054 14.4091 9.08193L14.4763 9.11675C14.4651 9.15774 14.4355 9.27865 14.4121 9.3309C14.4213 9.39853 14.5028 9.43439 14.5028 9.43439C14.6077 9.41083 14.7605 9.02556 14.7544 8.87291C14.7371 8.40262 14.6403 8.19054 14.6108 8.05223C14.4559 7.25509 14.5435 7.03481 14.1024 6.26126L13.8508 5.63218C13.8192 5.31149 13.6929 4.57685 13.2834 4.44467C13.2131 4.42419 13.1459 4.41803 13.041 4.38629C12.5061 4.21313 12.5061 3.79817 12.6518 3.3453C12.7832 2.94264 12.7985 2.4693 12.2107 2.4191C12.1934 2.41602 12.1761 2.41602 12.1578 2.41602C11.8471 2.42523 11.7442 2.70188 11.6688 3.01641Z" fill="url(#paint3_linear_3396_59577)"/>
</g>
</g>
<defs>
<filter id="filter0_d_3396_59577" x="-6" y="-5" width="36" height="36" filterUnits="userSpaceOnUse" color-interpolation-filters="sRGB">
<feFlood flood-opacity="0" result="BackgroundImageFix"/>
<feColorMatrix in="SourceAlpha" type="matrix" values="0 0 0 0 0 0 0 0 0 0 0 0 0 0 0 0 0 0 127 0" result="hardAlpha"/>
<feOffset dy="1"/>
<feGaussianBlur stdDeviation="3"/>
<feComposite in2="hardAlpha" operator="out"/>
<feColorMatrix type="matrix" values="0 0 0 0 0 0 0 0 0 0 0 0 0 0 0 0 0 0 0.08 0"/>
<feBlend mode="normal" in2="BackgroundImageFix" result="effect1_dropShadow_3396_59577"/>
<feBlend mode="normal" in="SourceGraphic" in2="effect1_dropShadow_3396_59577" result="shape"/>
</filter>
<linearGradient id="paint0_linear_3396_59577" x1="5.09471" y1="17.4668" x2="23.5114" y2="17.4668" gradientUnits="userSpaceOnUse">
<stop stop-color="#C95222"/>
<stop offset="0.0022" stop-color="#C95222"/>
<stop offset="0.0061" stop-color="#C95222"/>
<stop offset="0.0099" stop-color="#C85222"/>
<stop offset="0.0138" stop-color="#C85222"/>
<stop offset="0.0177" stop-color="#C85122"/>
<stop offset="0.0216" stop-color="#C75122"/>
<stop offset="0.0255" stop-color="#C75122"/>
<stop offset="0.0294" stop-color="#C65122"/>
<stop offset="0.0333" stop-color="#C65123"/>
<stop offset="0.0372" stop-color="#C65123"/>
<stop offset="0.0411" stop-color="#C55123"/>
<stop offset="0.045" stop-color="#C55023"/>
<stop offset="0.0489" stop-color="#C55023"/>
<stop offset="0.0527" stop-color="#C45023"/>
<stop offset="0.0566" stop-color="#C45023"/>
<stop offset="0.0605" stop-color="#C45023"/>
<stop offset="0.0644" stop-color="#C35023"/>
<stop offset="0.0683" stop-color="#C35023"/>
<stop offset="0.0722" stop-color="#C34F23"/>
<stop offset="0.0761" stop-color="#C24F23"/>
<stop offset="0.08" stop-color="#C24F23"/>
<stop offset="0.0838" stop-color="#C14F23"/>
<stop offset="0.0877" stop-color="#C14F23"/>
<stop offset="0.0916" stop-color="#C14F24"/>
<stop offset="0.0955" stop-color="#C04F24"/>
<stop offset="0.0994" stop-color="#C04E24"/>
<stop offset="0.1033" stop-color="#C04E24"/>
<stop offset="0.1072" stop-color="#BF4E24"/>
<stop offset="0.1111" stop-color="#BF4E24"/>
<stop offset="0.115" stop-color="#BF4E24"/>
<stop offset="0.1189" stop-color="#BE4E24"/>
<stop offset="0.1227" stop-color="#BE4E24"/>
<stop offset="0.1266" stop-color="#BE4E24"/>
<stop offset="0.1305" stop-color="#BD4D24"/>
<stop offset="0.1344" stop-color="#BD4D24"/>
<stop offset="0.1383" stop-color="#BC4D24"/>
<stop offset="0.1422" stop-color="#BC4D24"/>
<stop offset="0.1461" stop-color="#BC4D24"/>
<stop offset="0.15" stop-color="#BB4D25"/>
<stop offset="0.1539" stop-color="#BB4D25"/>
<stop offset="0.1577" stop-color="#BB4C25"/>
<stop offset="0.1616" stop-color="#BA4C25"/>
<stop offset="0.1655" stop-color="#BA4C25"/>
<stop offset="0.1694" stop-color="#BA4C25"/>
<stop offset="0.1733" stop-color="#B94C25"/>
<stop offset="0.1772" stop-color="#B94C25"/>
<stop offset="0.1811" stop-color="#B84C25"/>
<stop offset="0.185" stop-color="#B84B25"/>
<stop offset="0.1889" stop-color="#B84B25"/>
<stop offset="0.1928" stop-color="#B74B25"/>
<stop offset="0.1966" stop-color="#B74B25"/>
<stop offset="0.2005" stop-color="#B74B25"/>
<stop offset="0.2044" stop-color="#B64B25"/>
<stop offset="0.2083" stop-color="#B64B26"/>
<stop offset="0.2122" stop-color="#B64A26"/>
<stop offset="0.2161" stop-color="#B54A26"/>
<stop offset="0.22" stop-color="#B54A26"/>
<stop offset="0.2239" stop-color="#B54A26"/>
<stop offset="0.2278" stop-color="#B44A26"/>
<stop offset="0.2316" stop-color="#B44A26"/>
<stop offset="0.2355" stop-color="#B34A26"/>
<stop offset="0.2394" stop-color="#B34926"/>
<stop offset="0.2433" stop-color="#B34926"/>
<stop offset="0.2472" stop-color="#B24926"/>
<stop offset="0.2511" stop-color="#B24926"/>
<stop offset="0.255" stop-color="#B24926"/>
<stop offset="0.2589" stop-color="#B14926"/>
<stop offset="0.2628" stop-color="#B14926"/>
<stop offset="0.2666" stop-color="#B14827"/>
<stop offset="0.2705" stop-color="#B04827"/>
<stop offset="0.2744" stop-color="#B04827"/>
<stop offset="0.2783" stop-color="#AF4827"/>
<stop offset="0.2822" stop-color="#AF4827"/>
<stop offset="0.2861" stop-color="#AF4827"/>
<stop offset="0.29" stop-color="#AE4827"/>
<stop offset="0.2939" stop-color="#AE4727"/>
<stop offset="0.2978" stop-color="#AE4727"/>
<stop offset="0.3016" stop-color="#AD4727"/>
<stop offset="0.3055" stop-color="#AD4727"/>
<stop offset="0.3094" stop-color="#AD4727"/>
<stop offset="0.3133" stop-color="#AC4727"/>
<stop offset="0.3172" stop-color="#AC4727"/>
<stop offset="0.3211" stop-color="#AC4627"/>
<stop offset="0.325" stop-color="#AB4628"/>
<stop offset="0.3289" stop-color="#AB4628"/>
<stop offset="0.3328" stop-color="#AA4628"/>
<stop offset="0.3367" stop-color="#AA4628"/>
<stop offset="0.3405" stop-color="#AA4628"/>
<stop offset="0.3444" stop-color="#A94628"/>
<stop offset="0.3483" stop-color="#A94528"/>
<stop offset="0.3522" stop-color="#A94528"/>
<stop offset="0.3561" stop-color="#A84528"/>
<stop offset="0.36" stop-color="#A84528"/>
<stop offset="0.3639" stop-color="#A84528"/>
<stop offset="0.3678" stop-color="#A74528"/>
<stop offset="0.3717" stop-color="#A74528"/>
<stop offset="0.3755" stop-color="#A74528"/>
<stop offset="0.3794" stop-color="#A64428"/>
<stop offset="0.3833" stop-color="#A64429"/>
<stop offset="0.3872" stop-color="#A54429"/>
<stop offset="0.3911" stop-color="#A54429"/>
<stop offset="0.395" stop-color="#A54429"/>
<stop offset="0.3989" stop-color="#A44429"/>
<stop offset="0.4028" stop-color="#A44429"/>
<stop offset="0.4067" stop-color="#A44329"/>
<stop offset="0.4105" stop-color="#A34329"/>
<stop offset="0.4144" stop-color="#A34329"/>
<stop offset="0.4183" stop-color="#A34329"/>
<stop offset="0.4222" stop-color="#A24329"/>
<stop offset="0.4261" stop-color="#A24329"/>
<stop offset="0.43" stop-color="#A14329"/>
<stop offset="0.4339" stop-color="#A14229"/>
<stop offset="0.4378" stop-color="#A14229"/>
<stop offset="0.4417" stop-color="#A0422A"/>
<stop offset="0.4455" stop-color="#A0422A"/>
<stop offset="0.4494" stop-color="#A0422A"/>
<stop offset="0.4533" stop-color="#9F422A"/>
<stop offset="0.4572" stop-color="#9F422A"/>
<stop offset="0.4611" stop-color="#9F412A"/>
<stop offset="0.465" stop-color="#9E412A"/>
<stop offset="0.4689" stop-color="#9E412A"/>
<stop offset="0.4728" stop-color="#9E412A"/>
<stop offset="0.4767" stop-color="#9D412A"/>
<stop offset="0.4805" stop-color="#9D412A"/>
<stop offset="0.4844" stop-color="#9C412A"/>
<stop offset="0.4883" stop-color="#9C402A"/>
<stop offset="0.4922" stop-color="#9C402A"/>
<stop offset="0.4961" stop-color="#9B402A"/>
<stop offset="0.5" stop-color="#9B402A"/>
<stop offset="0.5039" stop-color="#9B402B"/>
<stop offset="0.5078" stop-color="#9A402B"/>
<stop offset="0.5117" stop-color="#9A402B"/>
<stop offset="0.5156" stop-color="#9A3F2B"/>
<stop offset="0.5195" stop-color="#993F2B"/>
<stop offset="0.5233" stop-color="#993F2B"/>
<stop offset="0.5272" stop-color="#983F2B"/>
<stop offset="0.5311" stop-color="#983F2B"/>
<stop offset="0.535" stop-color="#983F2B"/>
<stop offset="0.5389" stop-color="#973F2B"/>
<stop offset="0.5428" stop-color="#973E2B"/>
<stop offset="0.5467" stop-color="#973E2B"/>
<stop offset="0.5506" stop-color="#963E2B"/>
<stop offset="0.5544" stop-color="#963E2B"/>
<stop offset="0.5583" stop-color="#963E2B"/>
<stop offset="0.5622" stop-color="#953E2C"/>
<stop offset="0.5661" stop-color="#953E2C"/>
<stop offset="0.57" stop-color="#953D2C"/>
<stop offset="0.5739" stop-color="#943D2C"/>
<stop offset="0.5778" stop-color="#943D2C"/>
<stop offset="0.5817" stop-color="#933D2C"/>
<stop offset="0.5856" stop-color="#933D2C"/>
<stop offset="0.5895" stop-color="#933D2C"/>
<stop offset="0.5933" stop-color="#923D2C"/>
<stop offset="0.5972" stop-color="#923C2C"/>
<stop offset="0.6011" stop-color="#923C2C"/>
<stop offset="0.605" stop-color="#913C2C"/>
<stop offset="0.6089" stop-color="#913C2C"/>
<stop offset="0.6128" stop-color="#913C2C"/>
<stop offset="0.6167" stop-color="#903C2C"/>
<stop offset="0.6206" stop-color="#903C2D"/>
<stop offset="0.6245" stop-color="#903B2D"/>
<stop offset="0.6284" stop-color="#8F3B2D"/>
<stop offset="0.6322" stop-color="#8F3B2D"/>
<stop offset="0.6361" stop-color="#8E3B2D"/>
<stop offset="0.64" stop-color="#8E3B2D"/>
<stop offset="0.6439" stop-color="#8E3B2D"/>
<stop offset="0.6478" stop-color="#8D3B2D"/>
<stop offset="0.6517" stop-color="#8D3B2D"/>
<stop offset="0.6556" stop-color="#8D3A2D"/>
<stop offset="0.6595" stop-color="#8C3A2D"/>
<stop offset="0.6633" stop-color="#8C3A2D"/>
<stop offset="0.6672" stop-color="#8C3A2D"/>
<stop offset="0.6711" stop-color="#8B3A2D"/>
<stop offset="0.675" stop-color="#8B3A2D"/>
<stop offset="0.6789" stop-color="#8A3A2E"/>
<stop offset="0.6828" stop-color="#8A392E"/>
<stop offset="0.6867" stop-color="#8A392E"/>
<stop offset="0.6906" stop-color="#89392E"/>
<stop offset="0.6945" stop-color="#89392E"/>
<stop offset="0.6984" stop-color="#89392E"/>
<stop offset="0.7022" stop-color="#88392E"/>
<stop offset="0.7061" stop-color="#88392E"/>
<stop offset="0.71" stop-color="#88382E"/>
<stop offset="0.7139" stop-color="#87382E"/>
<stop offset="0.7178" stop-color="#87382E"/>
<stop offset="0.7217" stop-color="#87382E"/>
<stop offset="0.7256" stop-color="#86382E"/>
<stop offset="0.7295" stop-color="#86382E"/>
<stop offset="0.7334" stop-color="#85382E"/>
<stop offset="0.7372" stop-color="#85372F"/>
<stop offset="0.7411" stop-color="#85372F"/>
<stop offset="0.745" stop-color="#84372F"/>
<stop offset="0.7489" stop-color="#84372F"/>
<stop offset="0.7528" stop-color="#84372F"/>
<stop offset="0.7567" stop-color="#83372F"/>
<stop offset="0.7606" stop-color="#83372F"/>
<stop offset="0.7645" stop-color="#83362F"/>
<stop offset="0.7684" stop-color="#82362F"/>
<stop offset="0.7722" stop-color="#82362F"/>
<stop offset="0.7761" stop-color="#81362F"/>
<stop offset="0.78" stop-color="#81362F"/>
<stop offset="0.7839" stop-color="#81362F"/>
<stop offset="0.7878" stop-color="#80362F"/>
<stop offset="0.7917" stop-color="#80352F"/>
<stop offset="0.7956" stop-color="#803530"/>
<stop offset="0.7995" stop-color="#7F3530"/>
<stop offset="0.8034" stop-color="#7F3530"/>
<stop offset="0.8073" stop-color="#7F3530"/>
<stop offset="0.8111" stop-color="#7E3530"/>
<stop offset="0.815" stop-color="#7E3530"/>
<stop offset="0.8189" stop-color="#7E3430"/>
<stop offset="0.8228" stop-color="#7D3430"/>
<stop offset="0.8267" stop-color="#7D3430"/>
<stop offset="0.8306" stop-color="#7C3430"/>
<stop offset="0.8345" stop-color="#7C3430"/>
<stop offset="0.8384" stop-color="#7C3430"/>
<stop offset="0.8422" stop-color="#7B3430"/>
<stop offset="0.8461" stop-color="#7B3330"/>
<stop offset="0.85" stop-color="#7B3330"/>
<stop offset="0.8539" stop-color="#7A3331"/>
<stop offset="0.8578" stop-color="#7A3331"/>
<stop offset="0.8617" stop-color="#7A3331"/>
<stop offset="0.8656" stop-color="#793331"/>
<stop offset="0.8695" stop-color="#793331"/>
<stop offset="0.8734" stop-color="#783231"/>
<stop offset="0.8773" stop-color="#783231"/>
<stop offset="0.8812" stop-color="#783231"/>
<stop offset="0.885" stop-color="#773231"/>
<stop offset="0.8889" stop-color="#773231"/>
<stop offset="0.8928" stop-color="#773231"/>
<stop offset="0.8967" stop-color="#763231"/>
<stop offset="0.9006" stop-color="#763231"/>
<stop offset="0.9045" stop-color="#763131"/>
<stop offset="0.9084" stop-color="#753131"/>
<stop offset="0.9123" stop-color="#753132"/>
<stop offset="0.9161" stop-color="#753132"/>
<stop offset="0.92" stop-color="#743132"/>
<stop offset="0.9239" stop-color="#743132"/>
<stop offset="0.9278" stop-color="#733132"/>
<stop offset="0.9317" stop-color="#733032"/>
<stop offset="0.9356" stop-color="#733032"/>
<stop offset="0.9395" stop-color="#723032"/>
<stop offset="0.9434" stop-color="#723032"/>
<stop offset="0.9473" stop-color="#723032"/>
<stop offset="0.9512" stop-color="#713032"/>
<stop offset="0.955" stop-color="#713032"/>
<stop offset="0.9589" stop-color="#712F32"/>
<stop offset="0.9628" stop-color="#702F32"/>
<stop offset="0.9667" stop-color="#702F32"/>
<stop offset="0.9706" stop-color="#702F33"/>
<stop offset="0.9745" stop-color="#6F2F33"/>
<stop offset="0.9784" stop-color="#6F2F33"/>
<stop offset="0.9823" stop-color="#6E2F33"/>
<stop offset="0.9862" stop-color="#6E2E33"/>
<stop offset="1" stop-color="#6D2E33"/>
</linearGradient>
<linearGradient id="paint1_linear_3396_59577" x1="3.95045" y1="16.2563" x2="15.3391" y2="14.2597" gradientUnits="userSpaceOnUse">
<stop stop-color="#FDDB63"/>
<stop offset="0.0035" stop-color="#FDDB63"/>
<stop offset="0.0112" stop-color="#FDDA62"/>
<stop offset="0.019" stop-color="#FDD962"/>
<stop offset="0.0267" stop-color="#FDD861"/>
<stop offset="0.0345" stop-color="#FDD761"/>
<stop offset="0.0422" stop-color="#FDD660"/>
<stop offset="0.05" stop-color="#FDD65F"/>
<stop offset="0.0578" stop-color="#FCD55F"/>
<stop offset="0.0655" stop-color="#FCD45E"/>
<stop offset="0.0733" stop-color="#FCD35E"/>
<stop offset="0.081" stop-color="#FCD25D"/>
<stop offset="0.0888" stop-color="#FCD15C"/>
<stop offset="0.0966" stop-color="#FCD05C"/>
<stop offset="0.1043" stop-color="#FCCF5B"/>
<stop offset="0.1121" stop-color="#FCCE5B"/>
<stop offset="0.1198" stop-color="#FCCD5A"/>
<stop offset="0.1276" stop-color="#FCCC5A"/>
<stop offset="0.1354" stop-color="#FCCC59"/>
<stop offset="0.1431" stop-color="#FCCB58"/>
<stop offset="0.1509" stop-color="#FCCA58"/>
<stop offset="0.1586" stop-color="#FBC957"/>
<stop offset="0.1664" stop-color="#FBC857"/>
<stop offset="0.1741" stop-color="#FBC756"/>
<stop offset="0.1819" stop-color="#FBC655"/>
<stop offset="0.1897" stop-color="#FBC555"/>
<stop offset="0.1974" stop-color="#FBC454"/>
<stop offset="0.2052" stop-color="#FBC354"/>
<stop offset="0.2129" stop-color="#FBC353"/>
<stop offset="0.2207" stop-color="#FBC252"/>
<stop offset="0.2285" stop-color="#FBC152"/>
<stop offset="0.2362" stop-color="#FBC051"/>
<stop offset="0.244" stop-color="#FBBF51"/>
<stop offset="0.2517" stop-color="#FBBE50"/>
<stop offset="0.2595" stop-color="#FABD4F"/>
<stop offset="0.2672" stop-color="#FABC4F"/>
<stop offset="0.275" stop-color="#FABB4E"/>
<stop offset="0.2828" stop-color="#FABA4E"/>
<stop offset="0.2905" stop-color="#FAB94D"/>
<stop offset="0.2983" stop-color="#FAB94C"/>
<stop offset="0.306" stop-color="#FAB84C"/>
<stop offset="0.3138" stop-color="#FAB74B"/>
<stop offset="0.3216" stop-color="#FAB64B"/>
<stop offset="0.3293" stop-color="#FAB54A"/>
<stop offset="0.3371" stop-color="#FAB449"/>
<stop offset="0.3448" stop-color="#FAB349"/>
<stop offset="0.3526" stop-color="#F9B248"/>
<stop offset="0.3604" stop-color="#F9B148"/>
<stop offset="0.3681" stop-color="#F9B047"/>
<stop offset="0.3759" stop-color="#F9AF47"/>
<stop offset="0.3836" stop-color="#F9AF46"/>
<stop offset="0.3914" stop-color="#F9AE45"/>
<stop offset="0.3991" stop-color="#F9AD45"/>
<stop offset="0.4069" stop-color="#F9AC44"/>
<stop offset="0.4147" stop-color="#F9AB44"/>
<stop offset="0.4224" stop-color="#F9AA43"/>
<stop offset="0.4302" stop-color="#F9A942"/>
<stop offset="0.4379" stop-color="#F9A842"/>
<stop offset="0.4457" stop-color="#F9A741"/>
<stop offset="0.4535" stop-color="#F8A641"/>
<stop offset="0.4612" stop-color="#F8A640"/>
<stop offset="0.469" stop-color="#F8A53F"/>
<stop offset="0.4767" stop-color="#F8A43F"/>
<stop offset="0.4845" stop-color="#F8A33E"/>
<stop offset="0.4922" stop-color="#F8A23E"/>
<stop offset="0.5" stop-color="#F8A13D"/>
<stop offset="0.5078" stop-color="#F8A03C"/>
<stop offset="0.5155" stop-color="#F89F3C"/>
<stop offset="0.5233" stop-color="#F89E3B"/>
<stop offset="0.531" stop-color="#F89D3B"/>
<stop offset="0.5388" stop-color="#F89C3A"/>
<stop offset="0.5465" stop-color="#F89C39"/>
<stop offset="0.5543" stop-color="#F79B39"/>
<stop offset="0.5621" stop-color="#F79A38"/>
<stop offset="0.5698" stop-color="#F79938"/>
<stop offset="0.5776" stop-color="#F79837"/>
<stop offset="0.5853" stop-color="#F79736"/>
<stop offset="0.5931" stop-color="#F79636"/>
<stop offset="0.6009" stop-color="#F79535"/>
<stop offset="0.6086" stop-color="#F79435"/>
<stop offset="0.6164" stop-color="#F79334"/>
<stop offset="0.6241" stop-color="#F79234"/>
<stop offset="0.6319" stop-color="#F79233"/>
<stop offset="0.6396" stop-color="#F79132"/>
<stop offset="0.6474" stop-color="#F79032"/>
<stop offset="0.6552" stop-color="#F68F31"/>
<stop offset="0.6629" stop-color="#F68E31"/>
<stop offset="0.6707" stop-color="#F68D30"/>
<stop offset="0.6784" stop-color="#F68C2F"/>
<stop offset="0.6862" stop-color="#F68B2F"/>
<stop offset="0.694" stop-color="#F68A2E"/>
<stop offset="0.7017" stop-color="#F6892E"/>
<stop offset="0.7095" stop-color="#F6892D"/>
<stop offset="0.7172" stop-color="#F6882C"/>
<stop offset="0.725" stop-color="#F6872C"/>
<stop offset="0.7328" stop-color="#F6862B"/>
<stop offset="0.7405" stop-color="#F6852B"/>
<stop offset="0.7483" stop-color="#F5842A"/>
<stop offset="0.756" stop-color="#F58329"/>
<stop offset="0.7638" stop-color="#F58229"/>
<stop offset="0.7715" stop-color="#F58128"/>
<stop offset="0.7793" stop-color="#F58028"/>
<stop offset="0.7871" stop-color="#F57F27"/>
<stop offset="0.7948" stop-color="#F57F26"/>
<stop offset="0.8026" stop-color="#F57E26"/>
<stop offset="0.8103" stop-color="#F57D25"/>
<stop offset="0.8181" stop-color="#F57C25"/>
<stop offset="0.8259" stop-color="#F57B24"/>
<stop offset="0.8336" stop-color="#F57A23"/>
<stop offset="0.8414" stop-color="#F57923"/>
<stop offset="0.8491" stop-color="#F47822"/>
<stop offset="0.8569" stop-color="#F47722"/>
<stop offset="0.8647" stop-color="#F47621"/>
<stop offset="0.8724" stop-color="#F47521"/>
<stop offset="0.8802" stop-color="#F47520"/>
<stop offset="0.8879" stop-color="#F4741F"/>
<stop offset="0.8957" stop-color="#F4731F"/>
<stop offset="0.9034" stop-color="#F4721E"/>
<stop offset="0.9112" stop-color="#F4711E"/>
<stop offset="0.919" stop-color="#F4701D"/>
<stop offset="0.9267" stop-color="#F46F1C"/>
<stop offset="0.9345" stop-color="#F46E1C"/>
<stop offset="0.9422" stop-color="#F46D1B"/>
<stop offset="0.95" stop-color="#F36C1B"/>
<stop offset="0.9578" stop-color="#F36C1A"/>
<stop offset="0.9655" stop-color="#F36B19"/>
<stop offset="0.9733" stop-color="#F36A19"/>
<stop offset="0.981" stop-color="#F36918"/>
<stop offset="0.9888" stop-color="#F36818"/>
<stop offset="0.9965" stop-color="#F36717"/>
<stop offset="1" stop-color="#F36717"/>
</linearGradient>
<linearGradient id="paint2_linear_3396_59577" x1="3.9798" y1="16.4253" x2="15.3685" y2="14.4287" gradientUnits="userSpaceOnUse">
<stop stop-color="#996F5B"/>
<stop offset="0.0035" stop-color="#996F5B"/>
<stop offset="0.0112" stop-color="#996F5B"/>
<stop offset="0.019" stop-color="#996E5A"/>
<stop offset="0.0267" stop-color="#996E5A"/>
<stop offset="0.0345" stop-color="#996D5A"/>
<stop offset="0.0422" stop-color="#996D5A"/>
<stop offset="0.05" stop-color="#996D59"/>
<stop offset="0.0578" stop-color="#996C59"/>
<stop offset="0.0655" stop-color="#996C59"/>
<stop offset="0.0733" stop-color="#996C59"/>
<stop offset="0.081" stop-color="#996B58"/>
<stop offset="0.0888" stop-color="#996B58"/>
<stop offset="0.0966" stop-color="#996A58"/>
<stop offset="0.1043" stop-color="#996A58"/>
<stop offset="0.1121" stop-color="#996A57"/>
<stop offset="0.1198" stop-color="#996957"/>
<stop offset="0.1276" stop-color="#996957"/>
<stop offset="0.1354" stop-color="#996956"/>
<stop offset="0.1431" stop-color="#996856"/>
<stop offset="0.1509" stop-color="#996856"/>
<stop offset="0.1586" stop-color="#996756"/>
<stop offset="0.1664" stop-color="#996755"/>
<stop offset="0.1741" stop-color="#9A6755"/>
<stop offset="0.1819" stop-color="#9A6655"/>
<stop offset="0.1897" stop-color="#9A6655"/>
<stop offset="0.1974" stop-color="#9A6654"/>
<stop offset="0.2052" stop-color="#9A6554"/>
<stop offset="0.2129" stop-color="#9A6554"/>
<stop offset="0.2207" stop-color="#9A6454"/>
<stop offset="0.2285" stop-color="#9A6453"/>
<stop offset="0.2362" stop-color="#9A6453"/>
<stop offset="0.244" stop-color="#9A6353"/>
<stop offset="0.2517" stop-color="#9A6352"/>
<stop offset="0.2595" stop-color="#9A6352"/>
<stop offset="0.2672" stop-color="#9A6252"/>
<stop offset="0.275" stop-color="#9A6252"/>
<stop offset="0.2828" stop-color="#9A6151"/>
<stop offset="0.2905" stop-color="#9A6151"/>
<stop offset="0.2983" stop-color="#9A6151"/>
<stop offset="0.306" stop-color="#9A6051"/>
<stop offset="0.3138" stop-color="#9A6050"/>
<stop offset="0.3216" stop-color="#9A6050"/>
<stop offset="0.3293" stop-color="#9A5F50"/>
<stop offset="0.3371" stop-color="#9A5F50"/>
<stop offset="0.3448" stop-color="#9A5E4F"/>
<stop offset="0.3526" stop-color="#9A5E4F"/>
<stop offset="0.3604" stop-color="#9A5E4F"/>
<stop offset="0.3681" stop-color="#9A5D4F"/>
<stop offset="0.3759" stop-color="#9A5D4E"/>
<stop offset="0.3836" stop-color="#9A5D4E"/>
<stop offset="0.3914" stop-color="#9A5C4E"/>
<stop offset="0.3991" stop-color="#9A5C4D"/>
<stop offset="0.4069" stop-color="#9A5B4D"/>
<stop offset="0.4147" stop-color="#9A5B4D"/>
<stop offset="0.4224" stop-color="#9A5B4D"/>
<stop offset="0.4302" stop-color="#9A5A4C"/>
<stop offset="0.4379" stop-color="#9A5A4C"/>
<stop offset="0.4457" stop-color="#9A5A4C"/>
<stop offset="0.4535" stop-color="#9A594C"/>
<stop offset="0.4612" stop-color="#9A594B"/>
<stop offset="0.469" stop-color="#9A584B"/>
<stop offset="0.4767" stop-color="#9A584B"/>
<stop offset="0.4845" stop-color="#9A584B"/>
<stop offset="0.4922" stop-color="#9A574A"/>
<stop offset="0.5" stop-color="#9A574A"/>
<stop offset="0.5078" stop-color="#9B574A"/>
<stop offset="0.5155" stop-color="#9B5649"/>
<stop offset="0.5233" stop-color="#9B5649"/>
<stop offset="0.531" stop-color="#9B5549"/>
<stop offset="0.5388" stop-color="#9B5549"/>
<stop offset="0.5465" stop-color="#9B5548"/>
<stop offset="0.5543" stop-color="#9B5448"/>
<stop offset="0.5621" stop-color="#9B5448"/>
<stop offset="0.5698" stop-color="#9B5448"/>
<stop offset="0.5776" stop-color="#9B5347"/>
<stop offset="0.5853" stop-color="#9B5347"/>
<stop offset="0.5931" stop-color="#9B5247"/>
<stop offset="0.6009" stop-color="#9B5247"/>
<stop offset="0.6086" stop-color="#9B5246"/>
<stop offset="0.6164" stop-color="#9B5146"/>
<stop offset="0.6241" stop-color="#9B5146"/>
<stop offset="0.6319" stop-color="#9B5145"/>
<stop offset="0.6396" stop-color="#9B5045"/>
<stop offset="0.6474" stop-color="#9B5045"/>
<stop offset="0.6552" stop-color="#9B4F45"/>
<stop offset="0.6629" stop-color="#9B4F44"/>
<stop offset="0.6707" stop-color="#9B4F44"/>
<stop offset="0.6784" stop-color="#9B4E44"/>
<stop offset="0.6862" stop-color="#9B4E44"/>
<stop offset="0.694" stop-color="#9B4E43"/>
<stop offset="0.7017" stop-color="#9B4D43"/>
<stop offset="0.7095" stop-color="#9B4D43"/>
<stop offset="0.7172" stop-color="#9B4C43"/>
<stop offset="0.725" stop-color="#9B4C42"/>
<stop offset="0.7328" stop-color="#9B4C42"/>
<stop offset="0.7405" stop-color="#9B4B42"/>
<stop offset="0.7483" stop-color="#9B4B41"/>
<stop offset="0.756" stop-color="#9B4B41"/>
<stop offset="0.7638" stop-color="#9B4A41"/>
<stop offset="0.7715" stop-color="#9B4A41"/>
<stop offset="0.7793" stop-color="#9B4A40"/>
<stop offset="0.7871" stop-color="#9B4940"/>
<stop offset="0.7948" stop-color="#9B4940"/>
<stop offset="0.8026" stop-color="#9B4840"/>
<stop offset="0.8103" stop-color="#9B483F"/>
<stop offset="0.8181" stop-color="#9B483F"/>
<stop offset="0.8259" stop-color="#9B473F"/>
<stop offset="0.8336" stop-color="#9C473F"/>
<stop offset="0.8414" stop-color="#9C473E"/>
<stop offset="0.8491" stop-color="#9C463E"/>
<stop offset="0.8569" stop-color="#9C463E"/>
<stop offset="0.8647" stop-color="#9C453E"/>
<stop offset="0.8724" stop-color="#9C453D"/>
<stop offset="0.8802" stop-color="#9C453D"/>
<stop offset="0.8879" stop-color="#9C443D"/>
<stop offset="0.8957" stop-color="#9C443C"/>
<stop offset="0.9034" stop-color="#9C443C"/>
<stop offset="0.9112" stop-color="#9C433C"/>
<stop offset="0.919" stop-color="#9C433C"/>
<stop offset="0.9267" stop-color="#9C423B"/>
<stop offset="0.9345" stop-color="#9C423B"/>
<stop offset="0.9422" stop-color="#9C423B"/>
<stop offset="0.95" stop-color="#9C413B"/>
<stop offset="0.9578" stop-color="#9C413A"/>
<stop offset="0.9655" stop-color="#9C413A"/>
<stop offset="0.9733" stop-color="#9C403A"/>
<stop offset="0.981" stop-color="#9C403A"/>
<stop offset="0.9888" stop-color="#9C3F39"/>
<stop offset="0.9965" stop-color="#9C3F39"/>
<stop offset="1" stop-color="#9C3F39"/>
</linearGradient>
<linearGradient id="paint3_linear_3396_59577" x1="9.78036" y1="6.80053" x2="16.4083" y2="13.3904" gradientUnits="userSpaceOnUse">
<stop stop-color="#2C3696"/>
<stop offset="0.0043" stop-color="#2C3696"/>
<stop offset="0.012" stop-color="#2C3696"/>
<stop offset="0.0198" stop-color="#2C3696"/>
<stop offset="0.0275" stop-color="#2C3695"/>
<stop offset="0.0353" stop-color="#2C3695"/>
<stop offset="0.043" stop-color="#2C3695"/>
<stop offset="0.0507" stop-color="#2C3595"/>
<stop offset="0.0585" stop-color="#2C3594"/>
<stop offset="0.0662" stop-color="#2B3594"/>
<stop offset="0.074" stop-color="#2B3594"/>
<stop offset="0.0817" stop-color="#2B3594"/>
<stop offset="0.0895" stop-color="#2B3593"/>
<stop offset="0.0972" stop-color="#2B3593"/>
<stop offset="0.105" stop-color="#2B3593"/>
<stop offset="0.1127" stop-color="#2B3593"/>
<stop offset="0.1205" stop-color="#2B3592"/>
<stop offset="0.1282" stop-color="#2B3592"/>
<stop offset="0.1359" stop-color="#2B3592"/>
<stop offset="0.1437" stop-color="#2B3492"/>
<stop offset="0.1514" stop-color="#2B3492"/>
<stop offset="0.1592" stop-color="#2B3491"/>
<stop offset="0.1669" stop-color="#2B3491"/>
<stop offset="0.1747" stop-color="#2A3491"/>
<stop offset="0.1824" stop-color="#2A3491"/>
<stop offset="0.1902" stop-color="#2A3490"/>
<stop offset="0.1979" stop-color="#2A3490"/>
<stop offset="0.2057" stop-color="#2A3490"/>
<stop offset="0.2134" stop-color="#2A3490"/>
<stop offset="0.2212" stop-color="#2A348F"/>
<stop offset="0.2289" stop-color="#2A348F"/>
<stop offset="0.2367" stop-color="#2A338F"/>
<stop offset="0.2444" stop-color="#2A338F"/>
<stop offset="0.2521" stop-color="#2A338F"/>
<stop offset="0.2599" stop-color="#2A338E"/>
<stop offset="0.2676" stop-color="#2A338E"/>
<stop offset="0.2754" stop-color="#2A338E"/>
<stop offset="0.2831" stop-color="#29338E"/>
<stop offset="0.2909" stop-color="#29338D"/>
<stop offset="0.2986" stop-color="#29338D"/>
<stop offset="0.3064" stop-color="#29338D"/>
<stop offset="0.3141" stop-color="#29338D"/>
<stop offset="0.3219" stop-color="#29328C"/>
<stop offset="0.3296" stop-color="#29328C"/>
<stop offset="0.3373" stop-color="#29328C"/>
<stop offset="0.3451" stop-color="#29328C"/>
<stop offset="0.3528" stop-color="#29328B"/>
<stop offset="0.3606" stop-color="#29328B"/>
<stop offset="0.3683" stop-color="#29328B"/>
<stop offset="0.3761" stop-color="#29328B"/>
<stop offset="0.3838" stop-color="#29328B"/>
<stop offset="0.3916" stop-color="#28328A"/>
<stop offset="0.3993" stop-color="#28328A"/>
<stop offset="0.4071" stop-color="#28328A"/>
<stop offset="0.4148" stop-color="#28318A"/>
<stop offset="0.4225" stop-color="#283189"/>
<stop offset="0.4303" stop-color="#283189"/>
<stop offset="0.438" stop-color="#283189"/>
<stop offset="0.4458" stop-color="#283189"/>
<stop offset="0.4535" stop-color="#283188"/>
<stop offset="0.4613" stop-color="#283188"/>
<stop offset="0.469" stop-color="#283188"/>
<stop offset="0.4768" stop-color="#283188"/>
<stop offset="0.4845" stop-color="#283187"/>
<stop offset="0.4922" stop-color="#283187"/>
<stop offset="0.5" stop-color="#273087"/>
<stop offset="0.5077" stop-color="#273087"/>
<stop offset="0.5155" stop-color="#273087"/>
<stop offset="0.5232" stop-color="#273086"/>
<stop offset="0.531" stop-color="#273086"/>
<stop offset="0.5387" stop-color="#273086"/>
<stop offset="0.5465" stop-color="#273086"/>
<stop offset="0.5542" stop-color="#273085"/>
<stop offset="0.562" stop-color="#273085"/>
<stop offset="0.5697" stop-color="#273085"/>
<stop offset="0.5775" stop-color="#273085"/>
<stop offset="0.5852" stop-color="#273084"/>
<stop offset="0.5929" stop-color="#272F84"/>
<stop offset="0.6007" stop-color="#272F84"/>
<stop offset="0.6084" stop-color="#272F84"/>
<stop offset="0.6162" stop-color="#262F83"/>
<stop offset="0.6239" stop-color="#262F83"/>
<stop offset="0.6317" stop-color="#262F83"/>
<stop offset="0.6394" stop-color="#262F83"/>
<stop offset="0.6472" stop-color="#262F83"/>
<stop offset="0.6549" stop-color="#262F82"/>
<stop offset="0.6627" stop-color="#262F82"/>
<stop offset="0.6704" stop-color="#262F82"/>
<stop offset="0.6781" stop-color="#262F82"/>
<stop offset="0.6859" stop-color="#262E81"/>
<stop offset="0.6936" stop-color="#262E81"/>
<stop offset="0.7014" stop-color="#262E81"/>
<stop offset="0.7091" stop-color="#262E81"/>
<stop offset="0.7169" stop-color="#262E80"/>
<stop offset="0.7246" stop-color="#252E80"/>
<stop offset="0.7324" stop-color="#252E80"/>
<stop offset="0.7401" stop-color="#252E80"/>
<stop offset="0.7479" stop-color="#252E80"/>
<stop offset="0.7556" stop-color="#252E7F"/>
<stop offset="0.7634" stop-color="#252E7F"/>
<stop offset="0.7711" stop-color="#252D7F"/>
<stop offset="0.7788" stop-color="#252D7F"/>
<stop offset="0.7866" stop-color="#252D7E"/>
<stop offset="0.7943" stop-color="#252D7E"/>
<stop offset="0.8021" stop-color="#252D7E"/>
<stop offset="0.8098" stop-color="#252D7E"/>
<stop offset="0.8176" stop-color="#252D7D"/>
<stop offset="0.8253" stop-color="#252D7D"/>
<stop offset="0.8331" stop-color="#242D7D"/>
<stop offset="0.8408" stop-color="#242D7D"/>
<stop offset="0.8486" stop-color="#242D7C"/>
<stop offset="0.8563" stop-color="#242D7C"/>
<stop offset="0.864" stop-color="#242C7C"/>
<stop offset="0.8718" stop-color="#242C7C"/>
<stop offset="0.8795" stop-color="#242C7C"/>
<stop offset="0.8873" stop-color="#242C7B"/>
<stop offset="0.895" stop-color="#242C7B"/>
<stop offset="0.9028" stop-color="#242C7B"/>
<stop offset="0.9105" stop-color="#242C7B"/>
<stop offset="0.9183" stop-color="#242C7A"/>
<stop offset="0.926" stop-color="#242C7A"/>
<stop offset="0.9338" stop-color="#242C7A"/>
<stop offset="0.9415" stop-color="#232C7A"/>
<stop offset="0.9492" stop-color="#232C79"/>
<stop offset="0.957" stop-color="#232B79"/>
<stop offset="0.9647" stop-color="#232B79"/>
<stop offset="0.9725" stop-color="#232B79"/>
<stop offset="0.9802" stop-color="#232B78"/>
<stop offset="0.988" stop-color="#232B78"/>
<stop offset="0.9957" stop-color="#232B78"/>
<stop offset="1" stop-color="#232B78"/>
</linearGradient>
<clipPath id="clip0_3396_59577">
<rect width="24" height="24" fill="currentColor"/>
</clipPath>
</defs>
</svg>
