<svg width="24" height="24" viewBox="0 0 24 24" fill="none" xmlns="http://www.w3.org/2000/svg">
<g clip-path="url(#clip0_4017_2751)">
<g clip-path="url(#clip1_4017_2751)">
<g clip-path="url(#clip2_4017_2751)">
<path d="M12.0205 21.3697L12.0008 14.609L21.4723 9.48438V15.8693L12.0205 21.3697Z" fill="#E8F4FD" stroke="black" stroke-width="0.12"/>
<path d="M12.0207 21.1177L2.78553 15.5401V8.42547L6.99783 7.7998L12.0207 14.6031V21.1177Z" fill="#E8F4FD" stroke="black" stroke-width="0.12"/>
<path d="M12.0207 21.0157V21.3947L2.53496 15.7007V15.379L2.78412 15.2324V15.5234L12.0207 21.0157Z" fill="#017AFF" stroke="black" stroke-width="0.12"/>
<path d="M12.0207 21.0153V21.3944L21.722 15.7413V15.4115L21.4877 15.3467V15.5468L12.0207 21.0153Z" fill="#017AFF" stroke="black" stroke-width="0.12"/>
<path d="M11.4717 3.18319L1.80817 8.70824L7.22492 8.24878L16.8983 2.63184L11.4717 3.18319Z" fill="#017AFF" stroke="black" stroke-width="0.12"/>
<path d="M7.1214 8.23718L12.4298 14.8699L22.2 9.37599L16.8456 2.60547L7.1214 8.23718Z" fill="#017AFF" stroke="black" stroke-width="0.12"/>
<path d="M1.79998 8.70333L7.14452 8.2373L12.43 14.8421L11.8983 14.5155L7.01325 8.50642L2.48261 8.89532L1.79998 8.70333Z" fill="#017AFF" stroke="black" stroke-width="0.12"/>
<path d="M12.4299 9.16226V7.25684L10.8798 7.58773V10.035L12.4299 9.16226Z" fill="#E8F4FD" stroke="black" stroke-width="0.12"/>
<path d="M10.8802 10.0352L9.54994 8.35625V7.33691L10.8802 7.58786V10.0352Z" fill="#E8F4FD" stroke="black" stroke-width="0.12"/>
<path d="M9.54965 7.33691L11.0975 6.4375L12.43 7.25697L10.8799 8.1053L9.54965 7.33691Z" fill="#E8F4FD" stroke="black" stroke-width="0.12"/>
<path d="M11.866 7.24334L11.0621 6.78809L10.1404 7.3344L10.8977 7.78743L11.866 7.24334Z" fill="#017AFF" stroke="black" stroke-width="0.12"/>
<path d="M11.0621 6.78809V7.69638L11.866 7.24334L11.0621 6.78809Z" fill="#017AFF" stroke="black" stroke-width="0.12"/>
<path d="M15.86 13.6353V17.9692L19.1104 16.0994V11.7695L15.86 13.6353Z" fill="#017AFF" stroke="black" stroke-width="0.12"/>
<path d="M16.1593 17.3973V13.8619L18.8114 12.3418V15.8732L16.1593 17.3973Z" fill="#017AFF" stroke="black" stroke-width="0.12"/>
<path d="M18.5223 15.7034L18.5264 12.5197L18.8114 12.3418V15.8732L16.1593 17.3973V17.0577L18.5223 15.7034Z" fill="#E8F4FD" stroke="black" stroke-width="0.12"/>
<path d="M5.48752 17.1399V10.4424L8.32276 12.1495V18.7716L5.48752 17.1399Z" fill="#017AFF" stroke="black" stroke-width="0.12"/>
<path d="M5.70752 16.9916L5.71941 10.8096L8.11251 12.2292V18.3795L5.70752 16.9916Z" fill="#E8F4FD" stroke="black" stroke-width="0.12"/>
<path d="M5.82459 14.2763C5.82459 14.3417 5.87812 14.3973 5.94157 14.3973C6.00501 14.3973 6.05855 14.3477 6.05855 14.2842C6.05855 14.2208 6.007 14.1673 5.94157 14.1633C5.87812 14.1593 5.82459 14.2109 5.82459 14.2763Z" fill="#017AFF" stroke="black" stroke-width="0.06"/>
</g>
</g>
</g>
<defs>
<clipPath id="clip0_4017_2751">
<rect width="24" height="24" fill="white"/>
</clipPath>
<clipPath id="clip1_4017_2751">
<rect width="24" height="24" fill="white"/>
</clipPath>
<clipPath id="clip2_4017_2751">
<rect width="24" height="24" fill="white"/>
</clipPath>
</defs>
</svg>
