<svg width="24" height="24" viewBox="0 0 24 24" fill="none" xmlns="http://www.w3.org/2000/svg">
<g clip-path="url(#clip0_5895_1772)">
<path d="M17.9985 7.64987L17.4366 7.63946L17.2515 5.6875L17.8133 5.69791L17.9985 7.64987Z" fill="#EBF7FF" stroke="black" stroke-width="0.075"/>
<path d="M18.3311 16.7421L17.7693 16.731L16.8745 12.0234L17.4364 12.0345L18.3311 16.7421Z" fill="#EBF7FF" stroke="black" stroke-width="0.075"/>
<path d="M16.3021 18.1423L15.7402 18.1313L17.5545 17.9238L18.1163 17.9342L16.3021 18.1423Z" fill="#EBF7FF" stroke="black" stroke-width="0.075"/>
<mask id="mask0_5895_1772" style="mask-type:luminance" maskUnits="userSpaceOnUse" x="15" y="7" width="4" height="6">
<path d="M18.3963 12.3765L17.8345 12.3655C17.8224 10.5433 17.0602 8.71623 15.7646 7.5L16.3265 7.51102C17.622 8.72725 18.3842 10.555 18.3963 12.3765Z" fill="white" stroke="white" stroke-width="0.075"/>
</mask>
<g mask="url(#mask0_5895_1772)">
<path d="M18.3968 12.3765L17.8349 12.3655C17.8229 10.5433 17.0607 8.71623 15.7651 7.5L16.327 7.51102C17.6225 8.72725 18.3847 10.555 18.3968 12.3765Z" fill="#EBF7FF" stroke="black" stroke-width="0.075"/>
</g>
<path d="M17.8126 5.69727C19.7701 7.54028 20.8253 10.3626 20.6104 13.1593L21.6744 13.5357L18.3307 16.7413L17.4359 12.0337L18.396 12.374C18.3839 10.5518 17.6217 8.72468 16.3262 7.50845L17.9977 7.64923L17.8126 5.69727Z" fill="#017AFF" stroke="black" stroke-width="0.075"/>
<path d="M13.389 3.03247L12.8271 3.02206L13.1823 1.875L13.7435 1.88602L13.389 3.03247Z" fill="#EBF7FF" stroke="black" stroke-width="0.075"/>
<path d="M12.3299 6.45525L11.7681 6.44423L12.0877 5.40918L12.6495 5.4202L12.3299 6.45525Z" fill="#EBF7FF" stroke="black" stroke-width="0.075"/>
<path d="M15.9776 16.8464C16.1419 16.6873 16.2947 16.5184 16.4399 16.3421L15.8781 16.3311C14.7975 17.663 13.1171 18.5591 11.3491 18.5799C13.0981 18.6974 14.7588 18.0578 15.977 16.8464H15.9776Z" fill="#EBF7FF" stroke="black" stroke-width="0.075"/>
<mask id="mask1_5895_1772" style="mask-type:luminance" maskUnits="userSpaceOnUse" x="10" y="20" width="2" height="2">
<path d="M11.6581 21.0039C11.3588 20.9972 10.9035 20.9959 10.6099 20.9678L11.1717 20.9788C11.334 20.9923 11.4964 21.0008 11.6581 21.0039Z" fill="white" stroke="white" stroke-width="0.075"/>
</mask>
<g mask="url(#mask1_5895_1772)">
<path d="M11.6595 21.0029C11.3602 20.9962 10.9049 20.995 10.6113 20.9668L11.1732 20.9778C11.3355 20.9913 11.4978 20.9998 11.6595 21.0029Z" fill="#EBF7FF" stroke="black" stroke-width="0.075"/>
</g>
<path d="M8.12078 7.66958L7.55957 7.65856L7.69781 5.8584L8.25902 5.86942L8.12078 7.66958Z" fill="#EBF7FF" stroke="black" stroke-width="0.075"/>
<path d="M16.4403 16.3418L16.3027 18.142L18.117 17.9339C16.3947 20.0352 13.8347 21.1902 11.1732 20.9784L10.8188 22.1249L7.85547 18.5398L12.2322 17.5562L11.912 18.5906C13.6717 18.557 15.2957 17.7331 16.441 16.3418H16.4403Z" fill="#017AFF" stroke="black" stroke-width="0.075"/>
<path d="M10.8175 22.1253L10.2563 22.1149L7.29297 18.5293L7.85481 18.5403L10.8175 22.1253Z" fill="#EBF7FF" stroke="black" stroke-width="0.075"/>
<path d="M7.85481 18.5396L7.29297 18.5286L11.6697 17.5449L12.2316 17.5559L7.85481 18.5396Z" fill="#EBF7FF" stroke="black" stroke-width="0.075"/>
<path d="M8.23439 16.5024L7.67255 16.492L6.00098 16.3506L6.56282 16.3616L8.23439 16.5024Z" fill="#EBF7FF" stroke="black" stroke-width="0.075"/>
<path d="M13.7432 1.88574L16.7065 5.47138L12.3297 6.45502L12.6493 5.41997C10.8896 5.45486 9.26622 6.2769 8.12034 7.66941L8.25859 5.86924L6.44434 6.07674C8.16664 3.97543 10.7266 2.82041 13.3881 3.0328L13.7432 1.88574Z" fill="#017AFF" stroke="black" stroke-width="0.075"/>
<path d="M6.92898 5.53232C8.44836 3.94945 10.652 2.95847 12.9012 3.00744C12.3343 2.99275 11.7211 2.98112 11.1631 3.06498C9.08249 3.34409 7.17122 4.47463 5.8833 6.06546L6.44514 6.07647C6.5986 5.88795 6.75967 5.70616 6.92898 5.53171V5.53232Z" fill="#EBF7FF" stroke="black" stroke-width="0.075"/>
<path d="M7.12431 11.9767L6.56247 11.9663L5.60303 11.626L6.16487 11.637L7.12431 11.9767Z" fill="#EBF7FF" stroke="black" stroke-width="0.075"/>
<mask id="mask2_5895_1772" style="mask-type:luminance" maskUnits="userSpaceOnUse" x="3" y="10" width="4" height="9">
<path d="M6.74749 18.3148L6.18565 18.3038C4.22809 16.4614 3.1729 13.6391 3.38787 10.8418L3.94971 10.8528C3.73474 13.6501 4.78993 16.4724 6.74749 18.3148Z" fill="white" stroke="white" stroke-width="0.075"/>
</mask>
<g mask="url(#mask2_5895_1772)">
<path d="M6.74749 18.3148L6.18565 18.3038C4.22809 16.4614 3.1729 13.6391 3.38787 10.8418L3.94971 10.8528C3.73474 13.6501 4.78993 16.4724 6.74749 18.3148Z" fill="#EBF7FF" stroke="black" stroke-width="0.075"/>
</g>
<path d="M3.94984 10.851L3.38863 10.8399L2.3252 10.4629L2.88704 10.4739L3.94984 10.851Z" fill="#EBF7FF" stroke="black" stroke-width="0.075"/>
<path d="M2.88704 10.4747L2.3252 10.4637L5.66834 7.25879L6.23018 7.2692L2.88704 10.4747Z" fill="#EBF7FF" stroke="black" stroke-width="0.075"/>
<path d="M6.23084 7.26917L7.12559 11.9768L6.16615 11.6371C6.1763 13.4587 6.94043 15.2858 8.23532 16.5026L6.56375 16.3612L6.74892 18.3132C4.79136 16.4708 3.73616 13.6484 3.95113 10.8511L2.8877 10.4741L6.23084 7.26855V7.26917Z" fill="#017AFF" stroke="black" stroke-width="0.075"/>
<path d="M13.0285 9.89177L12.4673 9.88136L13.7641 9.70508L14.3259 9.7161L13.0285 9.89177Z" fill="#EBF7FF" stroke="black" stroke-width="0.075"/>
<mask id="mask3_5895_1772" style="mask-type:luminance" maskUnits="userSpaceOnUse" x="10" y="9" width="3" height="2">
<path d="M10.2868 9.07227C11.0832 9.07839 11.8683 9.03432 12.1549 10.0106L11.5931 9.99959C11.3914 9.29384 10.8733 9.08328 10.2861 9.07227H10.2868Z" fill="white" stroke="white" stroke-width="0.075"/>
</mask>
<g mask="url(#mask3_5895_1772)">
<path d="M12.1559 10.0106L11.5941 9.99959C11.3924 9.29384 10.8743 9.08328 10.2871 9.07227C11.0836 9.07839 11.8686 9.03432 12.1553 10.0106" fill="#EBF7FF"/>
<path d="M12.1559 10.0106L11.5941 9.99959C11.3924 9.29384 10.8743 9.08328 10.2871 9.07227C11.0836 9.07839 11.8686 9.03432 12.1553 10.0106" stroke="black" stroke-width="0.075"/>
</g>
<path d="M12.7671 15.7773L12.2059 15.7663L9.95215 12.5234L10.514 12.5345L12.7671 15.7773Z" fill="#EBF7FF" stroke="black" stroke-width="0.075"/>
<path d="M10.5134 12.5341L9.95156 12.5231L9.89893 12.0566L10.4608 12.0677L10.5134 12.5341Z" fill="#EBF7FF" stroke="black" stroke-width="0.075"/>
<path d="M12.1418 11.2548C12.223 11.0767 12.2484 10.8808 12.2408 10.6868L11.6789 10.6758C11.7328 11.7029 10.7696 11.9655 9.89893 12.0573L10.4608 12.0683C11.0803 11.9918 11.8552 11.8663 12.1418 11.2548Z" fill="#EBF7FF" stroke="black" stroke-width="0.075"/>
<path d="M10.3339 10.9454L9.77204 10.9344L9.69531 10.2568L10.2572 10.2679L10.3339 10.9454Z" fill="#EBF7FF" stroke="black" stroke-width="0.075"/>
<path d="M10.2572 10.2681L9.69531 10.2571L11.5926 10L12.1545 10.0104L10.2572 10.2681Z" fill="#EBF7FF" stroke="black" stroke-width="0.075"/>
<path d="M10.054 8.46742L9.49219 8.45641L13.5614 7.9043L14.1232 7.91531L10.054 8.46742Z" fill="#EBF7FF" stroke="black" stroke-width="0.075"/>
<path d="M10.1308 9.14625L9.56892 9.13523L9.49219 8.45703L10.054 8.46805L10.1308 9.14625Z" fill="#EBF7FF" stroke="black" stroke-width="0.075"/>
<path d="M14.1238 7.91565L14.2005 8.59385L12.3431 8.84603C12.6951 9.09148 12.931 9.43119 13.0305 9.89271L14.328 9.71643L14.4047 10.394L13.1269 10.5672C13.1561 11.6708 12.4826 12.2762 11.5156 12.5602L13.7699 15.6415L12.768 15.7774L10.5149 12.5345L10.4623 12.0681C11.2981 11.9708 12.2854 11.7565 12.2423 10.6866L10.3355 10.9455L10.2587 10.2679L12.1561 10.0108C11.8764 9.0217 10.9613 9.0064 10.1319 9.14535L10.0552 8.46715L14.1244 7.91504L14.1238 7.91565Z" fill="#017AFF" stroke="black" stroke-width="0.075"/>
</g>
<defs>
<clipPath id="clip0_5895_1772">
<rect width="24" height="24" fill="white"/>
</clipPath>
</defs>
</svg>
