<svg width="24" height="24" viewBox="0 0 24 24" fill="none" xmlns="http://www.w3.org/2000/svg">
<g clip-path="url(#clip0_6027_5028)">
<path d="M18.4534 16.7566H17.7818C17.4772 16.3973 17.0711 16.0537 16.5478 15.7569C14.0019 14.2887 9.83925 14.2887 7.29327 15.7569C6.77783 16.0537 6.36391 16.3973 6.05933 16.7566H5.40331V18.1702H5.41112C5.28616 19.2245 5.91094 20.2944 7.30108 21.0989C9.84706 22.5671 14.0097 22.5671 16.5556 21.0989C17.938 20.3023 18.5627 19.2245 18.4456 18.1702H18.469V16.7566H18.4534Z" fill="#017AFF" stroke="black" stroke-width="0.075"/>
<path d="M18.4222 16.7566H17.7818C17.4772 16.3973 17.0711 16.0537 16.5478 15.7569C14.0018 14.2887 9.83925 14.2887 7.29327 15.7569C6.77783 16.0537 6.36391 16.3973 6.05933 16.7566H5.40331L5.41112 18.1702C5.28616 19.2245 5.91094 20.2944 7.30108 21.0989C9.84706 22.5671 14.0097 22.5671 16.5556 21.0989C17.938 20.3023 18.5627 19.2245 18.4456 18.1702L18.4222 16.7566Z" stroke="black" stroke-width="0.075" stroke-miterlimit="10"/>
<path d="M16.5395 13.8834C13.9935 12.4152 9.83095 12.4152 7.28497 13.8834C4.73899 15.3517 4.73899 17.7571 7.28497 19.2253C9.83095 20.6936 13.9935 20.6936 16.5395 19.2253C19.0855 17.7571 19.0855 15.3517 16.5395 13.8834Z" fill="#EBF7FF" stroke="black" stroke-width="0.075"/>
<path d="M16.5395 13.8834C13.9935 12.4152 9.83095 12.4152 7.28497 13.8834C4.73899 15.3517 4.73899 17.7571 7.28497 19.2253C9.83095 20.6936 13.9935 20.6936 16.5395 19.2253C19.0855 17.7571 19.0855 15.3517 16.5395 13.8834Z" stroke="black" stroke-width="0.075" stroke-miterlimit="10"/>
<path d="M15.5638 14.3278C13.5567 13.172 10.2766 13.172 8.26949 14.3278C6.26238 15.4837 6.26238 17.3815 8.26949 18.5373C10.2766 19.6932 13.5567 19.6932 15.5638 18.5373C17.5709 17.3815 17.5709 15.4915 15.5638 14.3278Z" fill="#EBF7FF" stroke="black" stroke-width="0.075"/>
<path d="M15.5638 14.3278C13.5567 13.172 10.2766 13.172 8.26949 14.3278C6.26238 15.4837 6.26238 17.3815 8.26949 18.5373C10.2766 19.6932 13.5567 19.6932 15.5638 18.5373C17.5709 17.3815 17.5709 15.4915 15.5638 14.3278Z" stroke="black" stroke-width="0.075" stroke-miterlimit="10"/>
<path d="M11.9155 20.7803V21.8424" stroke="black" stroke-width="0.075" stroke-miterlimit="10"/>
<path d="M13.1504 20.7104V21.7726" stroke="black" stroke-width="0.075" stroke-miterlimit="10"/>
<path d="M14.3843 20.4912V21.5533" stroke="black" stroke-width="0.075" stroke-miterlimit="10"/>
<path d="M15.6182 20.1245V21.1866" stroke="black" stroke-width="0.075" stroke-miterlimit="10"/>
<path d="M16.8516 19.5366V20.5988" stroke="black" stroke-width="0.075" stroke-miterlimit="10"/>
<path d="M17.7969 18.6094V19.6715" stroke="black" stroke-width="0.075" stroke-miterlimit="10"/>
<path d="M10.7212 20.7104V21.7726" stroke="black" stroke-width="0.075" stroke-miterlimit="10"/>
<path d="M9.47998 20.4912V21.5533" stroke="black" stroke-width="0.075" stroke-miterlimit="10"/>
<path d="M8.24561 20.1245V21.1866" stroke="black" stroke-width="0.075" stroke-miterlimit="10"/>
<path d="M7.01221 19.5366V20.5988" stroke="black" stroke-width="0.075" stroke-miterlimit="10"/>
<path d="M6.06689 18.6094V19.6715" stroke="black" stroke-width="0.075" stroke-miterlimit="10"/>
<path d="M18.4681 14.1663H17.7964C17.4918 13.807 17.0857 13.4634 16.5625 13.1666C14.0165 11.6984 9.8539 11.6984 7.30792 13.1666C6.79248 13.4634 6.37856 13.807 6.07398 14.1663H5.41796V15.5798H5.42577C5.30081 16.6342 5.92559 17.7041 7.31573 18.5085C9.86171 19.9768 14.0243 19.9768 16.5703 18.5085C17.9526 17.7119 18.5774 16.6342 18.4602 15.5798H18.4837V14.1663H18.4681Z" fill="#017AFF" stroke="black" stroke-width="0.075"/>
<path d="M18.4368 14.1663H17.7964C17.4918 13.807 17.0857 13.4634 16.5625 13.1666C14.0165 11.6984 9.8539 11.6984 7.30792 13.1666C6.79248 13.4634 6.37856 13.807 6.07398 14.1663H5.41796L5.42577 15.5798C5.30081 16.6342 5.92559 17.7041 7.31573 18.5085C9.86171 19.9768 14.0243 19.9768 16.5703 18.5085C17.9526 17.7119 18.5774 16.6342 18.4602 15.5798L18.4368 14.1663Z" stroke="black" stroke-width="0.075" stroke-miterlimit="10"/>
<path d="M16.563 11.2921C14.017 9.82386 9.85439 9.82386 7.30841 11.2921C4.76243 12.7603 4.76243 15.1658 7.30841 16.634C9.85439 18.1023 14.017 18.1023 16.563 16.634C19.1089 15.1658 19.1089 12.7603 16.563 11.2921Z" fill="#EBF7FF" stroke="black" stroke-width="0.075"/>
<path d="M16.563 11.2921C14.017 9.82386 9.85439 9.82386 7.30841 11.2921C4.76243 12.7603 4.76243 15.1658 7.30841 16.634C9.85439 18.1023 14.017 18.1023 16.563 16.634C19.1089 15.1658 19.1089 12.7603 16.563 11.2921Z" stroke="black" stroke-width="0.075" stroke-miterlimit="10"/>
<path d="M15.5868 11.738C13.5796 10.5821 10.2995 10.5821 8.29244 11.738C6.28533 12.8938 6.28533 14.7916 8.29244 15.9475C10.2995 17.1033 13.5796 17.1033 15.5868 15.9475C17.5939 14.7916 17.5939 12.8938 15.5868 11.738Z" fill="#017AFF" stroke="black" stroke-width="0.075"/>
<path d="M15.5868 11.738C13.5796 10.5821 10.2995 10.5821 8.29244 11.738C6.28533 12.8938 6.28533 14.7916 8.29244 15.9475C10.2995 17.1033 13.5796 17.1033 15.5868 15.9475C17.5939 14.7916 17.5939 12.8938 15.5868 11.738Z" stroke="black" stroke-width="0.075" stroke-miterlimit="10"/>
<path d="M11.939 18.188V19.2501" stroke="black" stroke-width="0.075" stroke-miterlimit="10"/>
<path d="M13.1738 18.1191V19.1813" stroke="black" stroke-width="0.075" stroke-miterlimit="10"/>
<path d="M14.4072 17.8989V18.9611" stroke="black" stroke-width="0.075" stroke-miterlimit="10"/>
<path d="M15.6411 17.5322V18.5944" stroke="black" stroke-width="0.075" stroke-miterlimit="10"/>
<path d="M16.875 16.9463V18.0084" stroke="black" stroke-width="0.075" stroke-miterlimit="10"/>
<path d="M17.8208 16.0093V17.0714" stroke="black" stroke-width="0.075" stroke-miterlimit="10"/>
<path d="M10.7363 18.1191V19.1813" stroke="black" stroke-width="0.075" stroke-miterlimit="10"/>
<path d="M9.50293 17.8989V18.9611" stroke="black" stroke-width="0.075" stroke-miterlimit="10"/>
<path d="M8.26904 17.5322V18.5944" stroke="black" stroke-width="0.075" stroke-miterlimit="10"/>
<path d="M7.03564 16.9463V18.0084" stroke="black" stroke-width="0.075" stroke-miterlimit="10"/>
<path d="M6.08984 16.0093V17.0714" stroke="black" stroke-width="0.075" stroke-miterlimit="10"/>
<path d="M15.858 9.27285C15.673 9.22822 12.9566 8.69258 12.9694 8.7691C12.8036 7.43003 13.2245 6.4034 14.3467 5.57445C15.2331 4.92404 16.2979 4.55419 17.2544 4.00581C18.1152 3.50844 18.9378 2.78789 19.2311 1.85691C19.2566 1.78039 19.3714 1.78039 19.3905 1.86328L19.7476 3.1641C20.0409 4.24812 20.3406 5.35764 20.245 6.47992C20.1494 7.59581 19.5818 8.7436 18.5616 9.21546C17.7135 9.60443 16.7443 9.48966 15.858 9.27285Z" stroke="black" stroke-width="0.075" stroke-miterlimit="10"/>
<path d="M8.8502 4.39619C8.00213 3.94984 7.04565 3.7968 6.12105 3.54173C5.32399 3.32493 4.51417 3.06987 3.92754 2.52149C3.85102 2.45134 3.72349 2.50873 3.73624 2.61713C3.79363 3.12726 3.74899 3.61825 3.74899 4.15388C3.74899 5.08486 3.88927 6.02859 4.29099 6.87029C4.68634 7.712 5.35587 8.44531 6.21033 8.80877C7.0584 9.17223 10.9353 9.36353 11.4008 9.01282C11.8599 8.66848 11.4582 7.57172 11.2669 7.08072C10.8078 5.90106 9.98522 4.99559 8.8502 4.39619Z" stroke="black" stroke-width="0.075" stroke-miterlimit="10"/>
<path d="M8.8502 4.39619C8.00213 3.94984 7.04565 3.7968 6.12105 3.54173C5.32399 3.32493 4.51417 3.06987 3.92754 2.52149C3.85102 2.45134 3.72349 2.50873 3.73624 2.61713C3.79363 3.12726 3.74899 3.61825 3.74899 4.15388C3.74899 5.08486 3.88927 6.02859 4.29099 6.8703C4.68634 7.712 5.35587 8.44531 6.21033 8.80877C7.0584 9.17223 10.9353 9.36353 11.4008 9.01282C11.8599 8.66848 11.4582 7.57172 11.2669 7.08072C10.8078 5.90106 9.98522 4.99559 8.8502 4.39619Z" fill="#017AFF" stroke="black" stroke-width="0.075"/>
<path d="M15.858 9.27285C15.673 9.22822 12.9566 8.69258 12.9694 8.7691C12.8036 7.43003 13.2245 6.4034 14.3467 5.57445C15.2331 4.92404 16.2979 4.55419 17.2544 4.00581C18.1152 3.50844 18.9378 2.78789 19.2311 1.85691C19.2566 1.78039 19.3714 1.78039 19.3905 1.86328L19.7476 3.1641C20.0409 4.24812 20.3406 5.35764 20.245 6.47992C20.1493 7.59581 19.5818 8.7436 18.5616 9.21546C17.7135 9.60443 16.7443 9.48966 15.858 9.27285Z" fill="#017AFF" stroke="black" stroke-width="0.075"/>
<path fill-rule="evenodd" clip-rule="evenodd" d="M5.00255 4.42169C5.04398 4.34995 5.13572 4.32538 5.20746 4.36681L9.40318 6.78989C9.40319 6.78989 9.4032 6.7899 9.40321 6.7899C11.1841 7.81789 12.2775 9.71668 12.2775 11.7724V14.0033C12.2775 14.0862 12.2103 14.1533 12.1275 14.1533C12.0446 14.1533 11.9775 14.0862 11.9775 14.0033V11.7724C11.9775 9.82357 10.9411 8.02396 9.25321 7.04971L9.25318 7.04969L5.05743 4.6266C4.98569 4.58517 4.96112 4.49343 5.00255 4.42169Z" fill="#EBF7FF" stroke="black" stroke-width="0.075" stroke-miterlimit="10" stroke-linecap="round"/>
<path fill-rule="evenodd" clip-rule="evenodd" d="M18.9582 4.47087C19.0005 4.54209 18.9771 4.63413 18.9059 4.67644L14.7739 7.13142L14.7737 7.13154C13.2253 8.04818 12.2775 9.71432 12.2775 11.5171V14.0024C12.2775 14.0853 12.2104 14.1524 12.1275 14.1524C12.0447 14.1524 11.9775 14.0853 11.9775 14.0024V11.5171C11.9775 9.60866 12.981 7.84421 14.6209 6.87338L18.7526 4.41853C18.8239 4.37621 18.9159 4.39965 18.9582 4.47087Z" fill="#EBF7FF" stroke="black" stroke-width="0.075" stroke-miterlimit="10" stroke-linecap="round"/>
<circle cx="21.2995" cy="3.675" r="1.8" fill="#DF3C27"/>
<circle cx="20.707" cy="17.8481" r="2.84477" fill="#017AFE" stroke="white" stroke-width="0.310458"/>
<path d="M20.5813 16.3956C20.5631 16.3957 20.545 16.3966 20.5268 16.3982C20.5203 16.3988 20.5137 16.3994 20.5072 16.4002C20.4994 16.4011 20.4917 16.402 20.4841 16.4031L20.4733 16.4049C20.1451 16.4592 19.8948 16.7441 19.8948 17.0877C19.8948 17.3334 20.0229 17.549 20.2158 17.6718C20.2183 17.6739 20.2213 17.6759 20.2244 17.6778L20.2249 17.678L20.1795 17.6924C20.1105 17.7159 20.0437 17.7455 19.9799 17.7807L19.9326 17.8081C19.9278 17.811 19.923 17.8141 19.9183 17.8171C19.8817 17.84 19.8463 17.8648 19.8123 17.8914L19.8074 17.8952C19.5157 18.1256 19.3284 18.4823 19.3284 18.8829C19.3284 18.9371 19.3319 18.9911 19.3388 19.0448H21.8442V18.8835C21.8442 18.3141 21.466 17.833 20.947 17.6778C21.1455 17.5563 21.2779 17.3375 21.2779 17.0877C21.2779 16.7215 20.9934 16.4219 20.6334 16.3973C20.6288 16.397 20.6243 16.3966 20.6196 16.3964C20.6086 16.3958 20.5975 16.3955 20.5863 16.3955L20.5813 16.3956ZM20.5856 17.7823C21.1938 17.7823 21.6869 18.2753 21.6869 18.8835C21.6869 18.8848 21.6868 18.8861 21.6868 18.8874H19.4845C19.4845 18.8861 19.4844 18.8848 19.4844 18.8835C19.4844 18.2753 19.9774 17.7823 20.5856 17.7823ZM20.5857 16.5528C20.8811 16.5528 21.1205 16.7923 21.1205 17.0877C21.1205 17.3831 20.8811 17.6226 20.5857 17.6226C20.2902 17.6226 20.0508 17.3831 20.0508 17.0877C20.0508 16.7923 20.2902 16.5528 20.5857 16.5528Z" fill="white" stroke="white" stroke-width="0.0204708"/>
<path d="M19.7077 16.6343C19.3949 16.6343 19.1414 16.8878 19.1414 17.2006C19.1414 17.395 19.2393 17.5665 19.3885 17.6684C18.9892 17.8007 18.7007 18.1764 18.699 18.62H18.6989V18.7773H19.1748C19.1787 18.7245 19.1856 18.672 19.1953 18.62H18.8485C18.8506 18.1482 19.2336 17.7665 19.7058 17.7665L19.6952 17.7666L19.7074 17.767C19.7097 17.767 19.7119 17.7669 19.7142 17.7668L19.721 17.7666C19.79 17.7132 19.8638 17.6663 19.9414 17.6265C19.9245 17.6067 19.9085 17.5862 19.8934 17.565C19.836 17.5944 19.7723 17.6097 19.7078 17.6097C19.4819 17.6097 19.2987 17.4265 19.2987 17.2006C19.2987 16.9747 19.4819 16.7916 19.7078 16.7916C19.7331 16.7917 19.7584 16.7941 19.7833 16.7989C19.8008 16.7481 19.823 16.6991 19.8498 16.6526C19.8273 16.6467 19.8046 16.6423 19.7816 16.6392L19.7783 16.6388C19.7684 16.6376 19.7584 16.6366 19.7483 16.6359C19.7463 16.6357 19.7442 16.6355 19.7421 16.6354C19.7308 16.6347 19.7193 16.6343 19.7077 16.6343Z" fill="#FFFFFE" stroke="#1FD896" stroke-width="0.0204708"/>
<path d="M21.4264 16.6338C21.7391 16.6338 21.9925 16.8874 21.9925 17.2001C21.9925 17.3945 21.8946 17.566 21.7455 17.6679C22.1446 17.8002 22.4329 18.176 22.4346 18.6195H22.4347V18.7768H21.9591C21.9552 18.724 21.9483 18.6715 21.9386 18.6195H22.2852C22.2831 18.1478 21.9003 17.766 21.4284 17.766L21.439 17.7662L21.4268 17.7665C21.4245 17.7665 21.4222 17.7664 21.42 17.7663L21.4132 17.7661C21.3442 17.7127 21.2704 17.6658 21.1929 17.626C21.2098 17.6062 21.2258 17.5857 21.2408 17.5645C21.2983 17.5939 21.3619 17.6092 21.4264 17.6092C21.6522 17.6092 21.8352 17.426 21.8352 17.2001C21.8352 16.9742 21.6522 16.7911 21.4264 16.7911C21.4011 16.7912 21.3758 16.7936 21.3509 16.7984C21.3334 16.7476 21.3112 16.6986 21.2845 16.6521C21.3069 16.6463 21.3296 16.6418 21.3526 16.6388L21.3559 16.6383C21.3658 16.6371 21.3758 16.6361 21.3859 16.6354C21.3879 16.6353 21.39 16.635 21.392 16.6349C21.4034 16.6342 21.4149 16.6338 21.4264 16.6338Z" fill="#FFFFFE" stroke="#1FD896" stroke-width="0.0204708"/>
</g>
<defs>
<clipPath id="clip0_6027_5028">
<rect width="24" height="24" fill="white"/>
</clipPath>
</defs>
</svg>
