<svg width="24" height="24" viewBox="0 0 24 24" fill="none" xmlns="http://www.w3.org/2000/svg">
<g clip-path="url(#clip0_4017_3034)">
<g clip-path="url(#clip1_4017_3034)">
<path d="M18.4539 16.7566H17.7823C17.4777 16.3973 17.0716 16.0537 16.5483 15.7569C14.0023 14.2887 9.83975 14.2887 7.29377 15.7569C6.77832 16.0537 6.36441 16.3973 6.05983 16.7566H5.40381V18.1702H5.41161C5.28666 19.2245 5.91144 20.2944 7.30158 21.0989C9.84756 22.5671 14.0102 22.5671 16.5561 21.0989C17.9385 20.3023 18.5632 19.2245 18.4461 18.1702H18.4695V16.7566H18.4539Z" fill="#017AFF" stroke="black" stroke-width="0.12"/>
<path d="M18.4227 16.7566H17.7823C17.4777 16.3973 17.0716 16.0537 16.5483 15.7569C14.0023 14.2887 9.83975 14.2887 7.29377 15.7569C6.77832 16.0537 6.36441 16.3973 6.05983 16.7566H5.40381L5.41161 18.1702C5.28666 19.2245 5.91144 20.2944 7.30158 21.0989C9.84755 22.5671 14.0102 22.5671 16.5561 21.0989C17.9385 20.3023 18.5632 19.2245 18.4461 18.1702L18.4227 16.7566Z" stroke="black" stroke-width="0.12" stroke-miterlimit="10"/>
<path d="M16.5403 13.8834C13.9944 12.4152 9.83176 12.4152 7.28578 13.8834C4.7398 15.3517 4.7398 17.7571 7.28578 19.2253C9.83176 20.6936 13.9944 20.6936 16.5403 19.2253C19.0863 17.7571 19.0863 15.3517 16.5403 13.8834Z" fill="#E8F4FD" stroke="black" stroke-width="0.12"/>
<path d="M16.5403 13.8834C13.9944 12.4152 9.83176 12.4152 7.28578 13.8834C4.7398 15.3517 4.7398 17.7571 7.28578 19.2253C9.83176 20.6936 13.9944 20.6936 16.5403 19.2253C19.0863 17.7571 19.0863 15.3517 16.5403 13.8834Z" stroke="black" stroke-width="0.12" stroke-miterlimit="10"/>
<path d="M15.5643 14.3283C13.5572 13.1725 10.2771 13.1725 8.27004 14.3283C6.26293 15.4842 6.26293 17.382 8.27004 18.5378C10.2771 19.6937 13.5572 19.6937 15.5643 18.5378C17.5715 17.382 17.5715 15.492 15.5643 14.3283Z" fill="#E8F4FD" stroke="black" stroke-width="0.12"/>
<path d="M15.5643 14.3283C13.5572 13.1725 10.2771 13.1725 8.27004 14.3283C6.26293 15.4842 6.26293 17.382 8.27004 18.5378C10.2771 19.6937 13.5572 19.6937 15.5643 18.5378C17.5715 17.382 17.5715 15.492 15.5643 14.3283Z" stroke="black" stroke-width="0.12" stroke-miterlimit="10"/>
<path d="M11.9167 20.7798V21.8419" stroke="black" stroke-width="0.12" stroke-miterlimit="10"/>
<path d="M13.1513 20.7104V21.7726" stroke="black" stroke-width="0.12" stroke-miterlimit="10"/>
<path d="M14.3849 20.4912V21.5533" stroke="black" stroke-width="0.12" stroke-miterlimit="10"/>
<path d="M15.6191 20.1245V21.1866" stroke="black" stroke-width="0.12" stroke-miterlimit="10"/>
<path d="M16.8527 19.5366V20.5988" stroke="black" stroke-width="0.12" stroke-miterlimit="10"/>
<path d="M17.7977 18.6094V19.6715" stroke="black" stroke-width="0.12" stroke-miterlimit="10"/>
<path d="M10.7217 20.7104V21.7726" stroke="black" stroke-width="0.12" stroke-miterlimit="10"/>
<path d="M9.48064 20.4912V21.5533" stroke="black" stroke-width="0.12" stroke-miterlimit="10"/>
<path d="M8.24641 20.1245V21.1866" stroke="black" stroke-width="0.12" stroke-miterlimit="10"/>
<path d="M7.0128 19.5366V20.5988" stroke="black" stroke-width="0.12" stroke-miterlimit="10"/>
<path d="M6.06744 18.6094V19.6715" stroke="black" stroke-width="0.12" stroke-miterlimit="10"/>
<path d="M18.4688 14.1663H17.7971C17.4925 13.807 17.0864 13.4634 16.5632 13.1666C14.0172 11.6984 9.8546 11.6984 7.30862 13.1666C6.79318 13.4634 6.37926 13.807 6.07468 14.1663H5.41866V15.5798H5.42647C5.30151 16.6342 5.92629 17.7041 7.31643 18.5085C9.86241 19.9768 14.025 19.9768 16.571 18.5085C17.9533 17.7119 18.5781 16.6342 18.4609 15.5798H18.4844V14.1663H18.4688Z" fill="#017AFF" stroke="black" stroke-width="0.12"/>
<path d="M18.4375 14.1663H17.7971C17.4925 13.807 17.0864 13.4634 16.5632 13.1666C14.0172 11.6984 9.8546 11.6984 7.30862 13.1666C6.79318 13.4634 6.37926 13.807 6.07468 14.1663H5.41866L5.42647 15.5798C5.30151 16.6342 5.92629 17.7041 7.31643 18.5085C9.86241 19.9768 14.025 19.9768 16.571 18.5085C17.9533 17.7119 18.5781 16.6342 18.4609 15.5798L18.4375 14.1663Z" stroke="black" stroke-width="0.12" stroke-miterlimit="10"/>
<path d="M16.5637 11.2921C14.0177 9.82386 9.85511 9.82386 7.30913 11.2921C4.76315 12.7603 4.76315 15.1658 7.30913 16.634C9.85511 18.1023 14.0177 18.1023 16.5637 16.634C19.1097 15.1658 19.1097 12.7603 16.5637 11.2921Z" fill="#E8F4FD" stroke="black" stroke-width="0.12"/>
<path d="M16.5637 11.2921C14.0177 9.82386 9.85511 9.82386 7.30913 11.2921C4.76315 12.7603 4.76315 15.1658 7.30913 16.634C9.85511 18.1023 14.0177 18.1023 16.5637 16.634C19.1097 15.1658 19.1097 12.7603 16.5637 11.2921Z" stroke="black" stroke-width="0.12" stroke-miterlimit="10"/>
<path d="M15.5876 11.738C13.5805 10.5821 10.3004 10.5821 8.29329 11.738C6.28619 12.8938 6.28619 14.7916 8.29329 15.9475C10.3004 17.1033 13.5805 17.1033 15.5876 15.9475C17.5947 14.7916 17.5947 12.8938 15.5876 11.738Z" fill="#017AFF" stroke="black" stroke-width="0.12"/>
<path d="M15.5876 11.738C13.5805 10.5821 10.3004 10.5821 8.29329 11.738C6.28619 12.8938 6.28619 14.7916 8.29329 15.9475C10.3004 17.1033 13.5805 17.1033 15.5876 15.9475C17.5947 14.7916 17.5947 12.8938 15.5876 11.738Z" stroke="black" stroke-width="0.12" stroke-miterlimit="10"/>
<path d="M11.9397 18.188V19.2501" stroke="black" stroke-width="0.12" stroke-miterlimit="10"/>
<path d="M13.1745 18.1191V19.1813" stroke="black" stroke-width="0.12" stroke-miterlimit="10"/>
<path d="M14.4078 17.8989V18.9611" stroke="black" stroke-width="0.12" stroke-miterlimit="10"/>
<path d="M15.642 17.5322V18.5944" stroke="black" stroke-width="0.12" stroke-miterlimit="10"/>
<path d="M16.8756 16.9463V18.0084" stroke="black" stroke-width="0.12" stroke-miterlimit="10"/>
<path d="M17.8213 16.0093V17.0714" stroke="black" stroke-width="0.12" stroke-miterlimit="10"/>
<path d="M10.7369 18.1191V19.1813" stroke="black" stroke-width="0.12" stroke-miterlimit="10"/>
<path d="M9.50358 17.8989V18.9611" stroke="black" stroke-width="0.12" stroke-miterlimit="10"/>
<path d="M8.26935 17.5322V18.5944" stroke="black" stroke-width="0.12" stroke-miterlimit="10"/>
<path d="M7.03606 16.9463V18.0084" stroke="black" stroke-width="0.12" stroke-miterlimit="10"/>
<path d="M6.0907 16.0093V17.0714" stroke="black" stroke-width="0.12" stroke-miterlimit="10"/>
<path d="M15.8588 9.27285C15.6739 9.22822 12.9575 8.69258 12.9703 8.7691C12.8045 7.43003 13.2253 6.4034 14.3476 5.57445C15.2339 4.92404 16.2988 4.55419 17.2553 4.00581C18.1161 3.50844 18.9387 2.78789 19.232 1.85691C19.2575 1.78039 19.3723 1.78039 19.3914 1.86328L19.7485 3.1641C20.0418 4.24812 20.3415 5.35764 20.2459 6.47992C20.1502 7.59581 19.5827 8.7436 18.5625 9.21546C17.7144 9.60443 16.7452 9.48966 15.8588 9.27285Z" stroke="black" stroke-width="0.12" stroke-miterlimit="10"/>
<path d="M8.85101 4.39571C8.00293 3.94935 7.04646 3.79631 6.12186 3.54125C5.3248 3.32444 4.51498 3.06938 3.92834 2.521C3.85183 2.45085 3.7243 2.50824 3.73705 2.61665C3.79444 3.12677 3.7498 3.61776 3.7498 4.15339C3.7498 5.08437 3.89008 6.0281 4.2918 6.86981C4.68715 7.71151 5.35668 8.44482 6.21114 8.80828C7.05921 9.17175 10.9361 9.36304 11.4016 9.01233C11.8607 8.66799 11.459 7.57123 11.2677 7.08024C10.8086 5.90057 9.98603 4.9951 8.85101 4.39571Z" stroke="black" stroke-width="0.12" stroke-miterlimit="10"/>
<path d="M8.85101 4.39571C8.00293 3.94935 7.04646 3.79631 6.12186 3.54125C5.3248 3.32444 4.51498 3.06938 3.92834 2.521C3.85183 2.45085 3.7243 2.50824 3.73705 2.61665C3.79444 3.12677 3.7498 3.61776 3.7498 4.15339C3.7498 5.08437 3.89008 6.0281 4.2918 6.86981C4.68715 7.71151 5.35668 8.44482 6.21114 8.80828C7.05921 9.17175 10.9361 9.36304 11.4016 9.01233C11.8607 8.66799 11.459 7.57123 11.2677 7.08024C10.8086 5.90057 9.98603 4.9951 8.85101 4.39571Z" fill="#E8F4FD" stroke="black" stroke-width="0.12"/>
<path d="M15.8588 9.27285C15.6739 9.22822 12.9575 8.69258 12.9703 8.7691C12.8045 7.43003 13.2253 6.4034 14.3476 5.57445C15.2339 4.92404 16.2988 4.55419 17.2553 4.00581C18.1161 3.50844 18.9387 2.78789 19.232 1.85691C19.2575 1.78039 19.3723 1.78039 19.3914 1.86328L19.7485 3.1641C20.0418 4.24812 20.3415 5.35764 20.2459 6.47992C20.1502 7.59581 19.5827 8.7436 18.5625 9.21546C17.7144 9.60443 16.7452 9.48966 15.8588 9.27285Z" fill="#E8F4FD" stroke="black" stroke-width="0.12"/>
<path d="M12.1285 14.0037V11.7727C12.1285 9.77048 11.0637 7.92128 9.32925 6.92016L5.1335 4.49707" stroke="black" stroke-width="0.12" stroke-miterlimit="10"/>
<path d="M12.1286 14.0028V11.5174C12.1286 9.66185 13.1042 7.94656 14.6983 7.00283L18.8303 4.54785" stroke="black" stroke-width="0.12" stroke-miterlimit="10"/>
<circle cx="19.9526" cy="19.2" r="4.2" fill="#283964"/>
<path d="M20.4606 16.9504C20.4303 16.9506 20.4001 16.952 20.3699 16.9547C20.359 16.9557 20.3481 16.9567 20.3372 16.958C20.3244 16.9595 20.3116 16.961 20.2989 16.9629L20.2808 16.9659C19.7352 17.0561 19.3189 17.5299 19.3189 18.1011C19.3189 18.5097 19.5319 18.8682 19.8527 19.0725C19.857 19.0759 19.8619 19.0793 19.867 19.0824L19.8679 19.0827L19.7925 19.1066C19.6777 19.1458 19.5666 19.195 19.4605 19.2534L19.3818 19.299C19.3738 19.3039 19.366 19.309 19.358 19.314C19.2972 19.3521 19.2383 19.3934 19.1817 19.4376L19.1737 19.4438C18.6886 19.827 18.3772 20.4201 18.3772 21.0863C18.3772 21.1763 18.383 21.2662 18.3945 21.3554H22.5605V21.0873C22.5605 20.1403 21.9315 19.3405 21.0686 19.0824C21.3986 18.8804 21.6188 18.5166 21.6188 18.1011C21.6188 17.4922 21.1457 16.994 20.5472 16.9532C20.5395 16.9527 20.5319 16.952 20.5243 16.9516C20.5059 16.9507 20.4874 16.9502 20.4688 16.9502L20.4606 16.9504ZM20.4677 19.2561C21.479 19.2561 22.2989 20.0759 22.2989 21.0872C22.2989 21.0894 22.2987 21.0916 22.2987 21.0938H18.6368C18.6368 21.0916 18.6366 21.0894 18.6366 21.0872C18.6366 20.0759 19.4564 19.2561 20.4677 19.2561ZM20.4678 17.2117C20.959 17.2117 21.3572 17.6099 21.3572 18.1011C21.3572 18.5924 20.959 18.9906 20.4678 18.9906C19.9765 18.9906 19.5783 18.5924 19.5783 18.1011C19.5783 17.6099 19.9765 17.2117 20.4678 17.2117Z" fill="white" stroke="white" stroke-width="0.03"/>
<path d="M19.0082 17.3472C18.4881 17.3472 18.0665 17.7688 18.0665 18.2889C18.0665 18.6121 18.2293 18.8972 18.4775 19.0668C17.8134 19.2867 17.3338 19.9115 17.331 20.649H17.3308V20.9106H18.1221C18.1286 20.8228 18.14 20.7355 18.1562 20.649H17.5795C17.583 19.8646 18.2198 19.2298 19.005 19.2298L18.9874 19.2301L19.0077 19.2306C19.0115 19.2306 19.0152 19.2305 19.019 19.2304L19.0303 19.23C19.145 19.1412 19.2677 19.0633 19.3968 18.9971C19.3687 18.9642 19.342 18.93 19.317 18.8947C19.2214 18.9437 19.1156 18.9691 19.0083 18.969C18.6326 18.969 18.3281 18.6645 18.3281 18.2889C18.3281 17.9133 18.6326 17.6088 19.0083 17.6088C19.0504 17.6089 19.0925 17.6129 19.134 17.6209C19.163 17.5364 19.1999 17.455 19.2444 17.3776C19.2071 17.3679 19.1693 17.3605 19.1311 17.3554L19.1255 17.3547C19.1091 17.3526 19.0924 17.3511 19.0757 17.3498C19.0723 17.3496 19.0689 17.3493 19.0654 17.3491C19.0465 17.3479 19.0274 17.3472 19.0082 17.3472Z" fill="#1FD896" stroke="#1FD896" stroke-width="0.03"/>
</g>
</g>
<defs>
<clipPath id="clip0_4017_3034">
<rect width="24" height="24" fill="white"/>
</clipPath>
<clipPath id="clip1_4017_3034">
<rect width="24" height="24" fill="white"/>
</clipPath>
</defs>
</svg>
