<svg width="24" height="24" viewBox="0 0 24 24" fill="none" xmlns="http://www.w3.org/2000/svg">
<g clip-path="url(#clip0_3323_37363)">
<g filter="url(#filter0_d_3323_37363)">
<path d="M0 12C0 5.37258 5.37258 0 12 0C18.6274 0 24 5.37258 24 12C24 18.6274 18.6274 24 12 24C5.37258 24 0 18.6274 0 12Z" fill="#FBFAF8"/>
<path fill-rule="evenodd" clip-rule="evenodd" d="M15.9684 10.8007H16.9726V12.3962L17.8413 10.8007H18.7629L16.9048 14.0262C16.9048 14.0262 16.7323 14.2968 16.5184 14.4399C16.3427 14.5576 16.1265 14.5523 16.0605 14.5571C15.6934 14.5539 15.2507 14.5529 15.2507 14.5529L15.4643 13.784L15.8098 13.7834C15.8098 13.7834 15.968 13.7673 16.0291 13.6893C16.0873 13.6149 16.1171 13.5406 16.1171 13.4316C16.1171 13.2682 15.9684 10.8007 15.9684 10.8007V10.8007ZM5.53381 11.1194C5.39405 11.4432 4.96069 11.4064 4.96069 11.4064L4.45611 11.404L4.6403 10.7183C4.6403 10.7183 5.0917 10.7199 5.3131 10.7199C5.55009 10.7199 5.62412 10.9103 5.53389 11.1193L5.53381 11.1194ZM6.6806 10.6521C6.7665 9.97167 6.16773 9.79988 5.52035 9.79988H3.81915L2.81494 13.4598H3.89592L4.23342 12.2172L4.83979 12.2221C4.83979 12.2221 5.09003 12.2076 5.09497 12.4426C5.10022 12.6933 4.90918 13.1536 4.9215 13.4598H6.032L6.02956 13.3624C6.02956 13.3624 5.93728 13.3379 5.94755 13.2082C5.95181 13.1543 6.01138 12.9835 6.08937 12.7533C6.13638 12.6518 6.20729 12.411 6.20075 12.215C6.19261 11.9702 6.039 11.8566 5.81752 11.7772C6.50789 11.6153 6.68045 10.6522 6.68052 10.6522L6.6806 10.6521ZM6.92589 10.8007H7.91184L7.50579 12.3629C7.50579 12.3629 7.40452 12.7113 7.73038 12.7382C7.98784 12.7595 8.17942 12.4523 8.24219 12.2442C8.32466 11.9709 8.64512 10.8007 8.64512 10.8007H9.66089L8.88797 13.4597H8.00108L8.11003 13.0799C8.11003 13.0799 7.65757 13.6316 6.98531 13.5654C6.38776 13.5068 6.33625 13.0733 6.4398 12.5326C6.49062 12.2671 6.92589 10.8007 6.92589 10.8007ZM11.9897 11.1277C11.849 11.5202 11.4614 11.4739 11.4614 11.4739L10.9321 11.4741L11.1411 10.6965C11.1411 10.6965 11.4761 10.6983 11.6973 10.6983C11.9682 10.6983 12.0665 10.9134 11.9897 11.1277V11.1277ZM13.1012 10.7644C13.1871 10.0839 12.6685 9.7998 12.021 9.7998H10.3199L9.31578 13.4597H10.3968L10.7007 12.3314L11.562 12.3366C11.562 12.3366 12.8957 12.3931 13.1012 10.7644H13.1012ZM14.01 12.918C13.8411 12.9609 13.6363 12.9841 13.5956 12.8307C13.4841 12.4102 14.4686 12.2871 14.4686 12.2871C14.4753 12.6702 14.1395 12.885 14.0099 12.918H14.01ZM15.4993 12.1484C15.6292 11.706 15.7933 11.2872 15.6612 11.0551C15.4588 10.6998 15.093 10.6686 14.5578 10.6686C13.9666 10.6686 13.2367 10.7809 12.9988 11.5671H13.983C13.983 11.5671 14.0727 11.271 14.4422 11.2896C14.7692 11.3062 14.7513 11.5311 14.6308 11.6555C14.4194 11.8735 13.8357 11.7526 13.1893 11.9769C12.6244 12.1729 12.4268 12.9156 12.5495 13.212C12.6684 13.4995 12.8899 13.536 13.1887 13.5654C13.6685 13.6126 14.0365 13.345 14.2077 13.188C14.2077 13.3624 14.2123 13.4597 14.2123 13.4597H15.2481L15.2455 13.3623C15.2455 13.3623 15.1533 13.3378 15.1635 13.2081C15.171 13.1132 15.3499 12.6564 15.4992 12.1484H15.4993Z" fill="#382A8D"/>
<path fill-rule="evenodd" clip-rule="evenodd" d="M20.051 10.1855L18.8916 14.2187L21.0618 12.2021L20.051 10.1855Z" fill="#1D8546"/>
<path fill-rule="evenodd" clip-rule="evenodd" d="M19.3079 10.1855L18.1484 14.2187L20.3187 12.2021L19.3079 10.1855Z" fill="#EC6B00"/>
<path fill-rule="evenodd" clip-rule="evenodd" d="M21.4666 9.45378C21.2463 9.45378 21.0669 9.6331 21.0669 9.85351C21.0669 10.0738 21.2462 10.2532 21.4666 10.2532C21.687 10.2532 21.8663 10.0738 21.8663 9.85351C21.8663 9.63303 21.687 9.45378 21.4666 9.45378ZM21.4605 10.0175V9.70591H21.5226L21.5963 9.92648C21.6031 9.94702 21.608 9.96239 21.6113 9.97258C21.6148 9.96125 21.6203 9.94458 21.6279 9.9226L21.7024 9.70591H21.7578V10.0175H21.7181V9.75666L21.6276 10.0175H21.5904L21.5003 9.75225V10.0175H21.4605ZM21.2535 10.0175V9.74274H21.1509V9.70599H21.3978V9.74274H21.2948V10.0175H21.2535ZM21.4666 10.2927C21.2243 10.2927 21.0273 10.0957 21.0273 9.85344C21.0273 9.61119 21.2244 9.41406 21.4666 9.41406C21.7088 9.41406 21.9059 9.61119 21.9059 9.85344C21.9059 10.0956 21.7088 10.2927 21.4666 10.2927Z" fill="black"/>
</g>
</g>
<defs>
<filter id="filter0_d_3323_37363" x="-6" y="-5" width="36" height="36" filterUnits="userSpaceOnUse" color-interpolation-filters="sRGB">
<feFlood flood-opacity="0" result="BackgroundImageFix"/>
<feColorMatrix in="SourceAlpha" type="matrix" values="0 0 0 0 0 0 0 0 0 0 0 0 0 0 0 0 0 0 127 0" result="hardAlpha"/>
<feOffset dy="1"/>
<feGaussianBlur stdDeviation="3"/>
<feComposite in2="hardAlpha" operator="out"/>
<feColorMatrix type="matrix" values="0 0 0 0 0 0 0 0 0 0 0 0 0 0 0 0 0 0 0.08 0"/>
<feBlend mode="normal" in2="BackgroundImageFix" result="effect1_dropShadow_3323_37363"/>
<feBlend mode="normal" in="SourceGraphic" in2="effect1_dropShadow_3323_37363" result="shape"/>
</filter>
<clipPath id="clip0_3323_37363">
<rect width="24" height="24" fill="white"/>
</clipPath>
</defs>
</svg>
