<svg width="24" height="24" viewBox="0 0 24 24" fill="none" xmlns="http://www.w3.org/2000/svg">
<g clip-path="url(#clip0_2457_7419)">
<path d="M5.22293 11.1609C4.36149 11.1609 3.69934 10.9535 3.23647 10.5389C2.76075 10.1307 2.50842 9.57459 2.47949 8.87065H3.65112C3.68005 9.27244 3.83273 9.58263 4.10916 9.8012C4.37274 10.0166 4.744 10.1242 5.22293 10.1242C6.23867 10.1242 6.74653 9.79638 6.74653 9.14065C6.74653 8.88029 6.65975 8.67297 6.48617 8.51868C6.30938 8.37082 6.03938 8.25832 5.67616 8.18117L4.66846 7.9642C4.03845 7.82599 3.55148 7.60259 3.20754 7.29401C2.87325 6.99187 2.7061 6.56275 2.7061 6.00667C2.7061 5.42487 2.93271 4.95558 3.38594 4.59879C3.84237 4.24842 4.45792 4.07324 5.23258 4.07324C5.99438 4.07324 6.61635 4.27092 7.0985 4.66629C7.57101 5.06165 7.81209 5.57755 7.82173 6.21399H6.64528C6.62599 5.8797 6.49742 5.61291 6.25956 5.41362C6.02491 5.21755 5.67616 5.11951 5.21329 5.11951C4.33899 5.11951 3.90184 5.41523 3.90184 6.00667C3.90184 6.43096 4.23774 6.71865 4.90954 6.86972L5.84491 7.0674C7.23993 7.35348 7.93745 8.03653 7.93745 9.11655C7.93745 9.74977 7.70762 10.248 7.24797 10.6112C6.7851 10.9777 6.11009 11.1609 5.22293 11.1609Z" fill="currentColor"/>
<path d="M15.1649 7.14455V7.24098C14.7631 8.23421 14.3292 9.03779 13.8631 9.65173L15.0974 10.9777V11.0741H13.704L13.1206 10.4328C12.5227 10.9182 11.8718 11.1609 11.1679 11.1609C10.5346 11.1609 10.0011 10.9873 9.56712 10.6401C9.12675 10.2962 8.90657 9.82531 8.90657 9.22744C8.90657 8.82243 9.02068 8.46725 9.2489 8.16189C9.46747 7.87581 9.80659 7.59616 10.2662 7.32294L10.247 7.30366C9.99302 7.03365 9.8098 6.7765 9.6973 6.53221C9.57837 6.29757 9.5189 6.04042 9.5189 5.76077C9.5189 5.28505 9.68926 4.88647 10.03 4.56504C10.3675 4.24682 10.8127 4.08289 11.3655 4.07324H11.3848C11.9538 4.07324 12.4102 4.23074 12.7541 4.54575C13.0981 4.8704 13.27 5.26898 13.27 5.74149C13.27 6.09828 13.1575 6.41811 12.9325 6.70097C12.6915 7.00312 12.3427 7.28276 11.8863 7.53991L13.1399 8.87065C13.4581 8.42064 13.749 7.84527 14.0126 7.14455H15.1649ZM11.3559 5.04237C11.1277 5.05201 10.9493 5.12112 10.8207 5.24969C10.6825 5.38791 10.6134 5.55827 10.6134 5.76077C10.6134 6.05649 10.7982 6.38918 11.1679 6.75883L11.2161 6.81668C11.5504 6.63025 11.7898 6.45989 11.9345 6.3056C12.0791 6.15131 12.1515 5.97292 12.1515 5.77042C12.1515 5.55505 12.0872 5.37827 11.9586 5.24005C11.8172 5.10826 11.6227 5.04237 11.3752 5.04237H11.3559ZM11.1679 10.1339C11.6114 10.1339 12.0293 9.9796 12.4215 9.67102L10.9316 8.05099C10.6166 8.24064 10.3916 8.42868 10.2566 8.61511C10.1312 8.78547 10.0686 8.98958 10.0686 9.22744C10.0686 9.4878 10.1746 9.70477 10.3868 9.87835C10.5957 10.0487 10.8561 10.1339 11.1679 10.1339Z" fill="currentColor"/>
<path d="M16.433 11.0741V4.16003H19.2391C19.9366 4.16003 20.4927 4.36735 20.9073 4.782C21.3155 5.19987 21.5197 5.73345 21.5197 6.38275C21.5197 7.05133 21.3123 7.59777 20.8977 8.02206C20.4862 8.44314 19.9334 8.65368 19.2391 8.65368H17.5901V11.0741H16.433ZM17.5901 7.60741H19.0414C19.4528 7.60741 19.7727 7.50295 20.0009 7.29401C20.2227 7.09151 20.3336 6.78775 20.3336 6.38275C20.3336 6.00988 20.2178 5.71738 19.9864 5.50523C19.7614 5.29951 19.4464 5.19666 19.0414 5.19666H17.5901V7.60741Z" fill="currentColor"/>
<path d="M5.13925 19.9262C4.40018 19.9262 3.80426 19.7198 3.3515 19.307C2.88875 18.8942 2.65737 18.3815 2.65737 17.7689H3.83089C3.84088 18.0752 3.96073 18.3382 4.19044 18.5579C4.42015 18.7777 4.73642 18.8875 5.13925 18.8875C5.59201 18.8875 5.92659 18.7544 6.14298 18.488C6.35938 18.2317 6.46757 17.8938 6.46757 17.4743C6.46757 17.0748 6.35938 16.7469 6.14298 16.4906C5.91327 16.2309 5.58202 16.101 5.14923 16.101C4.6432 16.101 4.23871 16.3091 3.93576 16.7253H2.76723L3.04189 12.6754H7.22662V13.729H4.02565L3.89082 15.6117H3.93576C4.272 15.2854 4.73476 15.1223 5.32401 15.1223C6.03978 15.1223 6.60573 15.3403 7.02187 15.7765C7.44468 16.2192 7.65608 16.7785 7.65608 17.4543C7.65608 18.2001 7.43802 18.796 7.0019 19.2421C6.56578 19.6982 5.9449 19.9262 5.13925 19.9262Z" fill="currentColor"/>
<path d="M11.3964 19.9262C10.4908 19.9262 9.83001 19.5966 9.41386 18.9375C8.9844 18.2716 8.76967 17.3711 8.76967 16.2359C8.76967 15.1073 8.9844 14.2101 9.41386 13.5443C9.83001 12.8851 10.4908 12.5555 11.3964 12.5555C12.2986 12.5555 12.9627 12.8851 13.3889 13.5443C13.8117 14.2134 14.0231 15.1106 14.0231 16.2359C14.0231 17.3678 13.8117 18.2683 13.3889 18.9375C12.9627 19.5966 12.2986 19.9262 11.3964 19.9262ZM10.2828 18.1984C10.4958 18.6578 10.867 18.8875 11.3964 18.8875C11.9257 18.8875 12.2969 18.6578 12.51 18.1984C12.723 17.7423 12.8296 17.0881 12.8296 16.2359C12.8296 15.3903 12.723 14.7394 12.51 14.2833C12.2969 13.8272 11.9257 13.5992 11.3964 13.5992C10.8737 13.5992 10.5058 13.8272 10.2928 14.2833C10.073 14.7527 9.96317 15.4036 9.96317 16.2359C9.96317 17.0881 10.0697 17.7423 10.2828 18.1984Z" fill="currentColor"/>
<path d="M17.8183 19.9262C16.9128 19.9262 16.2519 19.5966 15.8358 18.9375C15.4063 18.2716 15.1916 17.3711 15.1916 16.2359C15.1916 15.1073 15.4063 14.2101 15.8358 13.5443C16.2519 12.8851 16.9128 12.5555 17.8183 12.5555C18.7205 12.5555 19.3846 12.8851 19.8108 13.5443C20.2336 14.2134 20.445 15.1106 20.445 16.2359C20.445 17.3678 20.2336 18.2683 19.8108 18.9375C19.3846 19.5966 18.7205 19.9262 17.8183 19.9262ZM16.7047 18.1984C16.9177 18.6578 17.2889 18.8875 17.8183 18.8875C18.3476 18.8875 18.7188 18.6578 18.9319 18.1984C19.1449 17.7423 19.2515 17.0881 19.2515 16.2359C19.2515 15.3903 19.1449 14.7394 18.9319 14.2833C18.7188 13.8272 18.3476 13.5992 17.8183 13.5992C17.2956 13.5992 16.9277 13.8272 16.7147 14.2833C16.4949 14.7527 16.3851 15.4036 16.3851 16.2359C16.3851 17.0881 16.4916 17.7423 16.7047 18.1984Z" fill="currentColor"/>
</g>
<defs>
<clipPath id="clip0_2457_7419">
<rect width="24" height="24" fill="currentColor"/>
</clipPath>
</defs>
</svg>
