<svg width="308" height="48" viewBox="0 0 308 48" fill="none" xmlns="http://www.w3.org/2000/svg">
<g clip-path="url(#clip0_3396_57086)">
<path d="M43.1467 10.0371C44.2716 11.5111 45.224 13.1125 45.9845 14.8092L24.4121 30.9254L15.3965 25.1978V18.3072L24.4121 24.0348L43.1467 10.0371Z" fill="#21A038"/>
<path d="M6.19579 24.7106C6.19579 24.4014 6.20323 24.0943 6.21811 23.7889L0.754366 23.5176C0.735769 23.9134 0.724616 24.313 0.724616 24.7162C0.722291 27.8672 1.33384 30.9875 2.5242 33.8983C3.71455 36.8092 5.46027 39.4532 7.66122 41.6786L11.5368 37.7528C9.84258 36.0427 8.49856 34.0101 7.58196 31.7719C6.66537 29.5337 6.19429 27.1339 6.19579 24.7106Z" fill="url(#paint0_linear_3396_57086)"/>
<path d="M24.4086 6.25394C24.7135 6.25394 25.0166 6.26526 25.3179 6.28033L25.5912 0.741178C25.1996 0.722331 24.8053 0.712908 24.4086 0.712908C21.298 0.709064 18.2174 1.32795 15.3436 2.53403C12.4697 3.74011 9.85929 5.50964 7.66211 7.74099L11.5377 11.6687C13.2251 9.95114 15.2309 8.58854 17.4398 7.65928C19.6487 6.73003 22.0169 6.25242 24.4086 6.25394Z" fill="url(#paint1_linear_3396_57086)"/>
<path d="M24.4072 43.1687C24.1023 43.1687 23.7991 43.1687 23.496 43.1442L23.2227 48.6814C23.6156 48.7015 24.0105 48.7117 24.4072 48.7117C27.5165 48.7149 30.5956 48.0956 33.4679 46.8892C36.3402 45.6828 38.949 43.913 41.1445 41.6817L37.2763 37.7559C35.5886 39.4725 33.583 40.8344 31.3745 41.7633C29.1661 42.6922 26.7983 43.1699 24.4072 43.1687Z" fill="url(#paint2_linear_3396_57086)"/>
<path d="M34.6734 9.47486L39.2779 6.03527C35.0693 2.58147 29.8159 0.70135 24.4004 0.710974V6.25389C28.0675 6.24929 31.6495 7.37241 34.6734 9.47486Z" fill="url(#paint3_linear_3396_57086)"/>
<path d="M48.0898 24.7111C48.0927 23.2691 47.9683 21.8297 47.7178 20.4102L42.6205 24.2173C42.6205 24.3813 42.6205 24.5452 42.6205 24.7111C42.6218 27.2899 42.0884 29.8402 41.055 32.1967C40.0214 34.5532 38.5108 36.6633 36.6211 38.3902L40.2977 42.5084C42.7545 40.2607 44.7177 37.5149 46.06 34.449C47.4024 31.383 48.0939 28.0653 48.0898 24.7111Z" fill="#21A038"/>
<path d="M24.4086 43.168C21.8639 43.1689 19.3473 42.6281 17.0218 41.5807C14.6964 40.5334 12.6139 39.0027 10.9092 37.0879L6.84766 40.8121C9.06525 43.3023 11.7745 45.2922 14.7998 46.653C17.8251 48.0136 21.0987 48.7148 24.4086 48.7108V43.168Z" fill="url(#paint4_linear_3396_57086)"/>
<path d="M12.1951 11.0321L8.52041 6.91406C6.06297 9.16134 4.09906 11.907 2.75605 14.973C1.41305 18.039 0.720948 21.3568 0.724624 24.7113H6.19581C6.19468 22.1327 6.72815 19.5823 7.76163 17.2258C8.79512 14.8694 10.3056 12.7592 12.1951 11.0321Z" fill="url(#paint5_linear_3396_57086)"/>
<path d="M137.39 14.4357L144.167 9.43359H121.488V39.4918H144.167V34.4897H127.959V26.7903H141.785V21.7882H127.959V14.4357H137.39Z" fill="#21A038"/>
<path d="M106.229 21.1428H98.3559V14.4333H110.922L117.694 9.41602H91.8887V39.4742H105.396C112.97 39.4742 117.316 36.035 117.316 30.0371C117.316 24.2991 113.379 21.1428 106.229 21.1428ZM105.105 34.4705H98.3559V26.1418H105.105C109.201 26.1418 111.122 27.5376 111.122 30.3063C111.122 33.0748 109.078 34.4705 105.105 34.4705Z" fill="#21A038"/>
<path d="M160.837 9.42969H148.492V39.4878H154.962V30.9728H160.837C168.713 30.9728 173.585 26.8203 173.585 20.1852C173.585 13.5503 168.713 9.42969 160.837 9.42969ZM160.7 25.967H154.962V14.4356H160.7C164.843 14.4356 167.129 16.4845 167.129 20.2036C167.129 23.9226 164.843 25.967 160.7 25.967Z" fill="#21A038"/>
<path d="M82.1788 32.3935C80.5073 33.3004 78.6347 33.77 76.7341 33.7589C71.0456 33.7589 66.9189 29.6897 66.9189 24.0864C66.9189 18.4829 71.0456 14.4049 76.7341 14.4049C78.7855 14.37 80.7944 14.9933 82.4672 16.1838L86.9932 12.844L86.6871 12.6261C84.0469 10.3002 80.5192 9.06836 76.4813 9.06836C72.1016 9.06836 68.1303 10.5448 65.2948 13.2309C63.8611 14.6139 62.7273 16.2782 61.9638 18.1199C61.2004 19.9616 60.8237 21.9411 60.8576 23.9351C60.8272 25.9493 61.2021 27.9491 61.9599 29.815C62.7178 31.6809 63.8429 33.3745 65.2682 34.7951C68.1169 37.5878 72.0794 39.1265 76.428 39.1265C80.9718 39.1265 84.9433 37.5388 87.6323 34.6483L83.581 31.6243L82.1788 32.3935Z" fill="#21A038"/>
<path d="M199.242 21.1428H191.372V14.4333H208.285V9.41602H184.9V39.4742H198.391C205.963 39.4742 210.31 36.035 210.31 30.0371C210.328 24.2991 206.392 21.1428 199.242 21.1428ZM198.118 34.4705H191.372V26.1418H198.118C202.214 26.1418 204.133 27.5376 204.133 30.3063C204.133 33.0748 202.108 34.4705 198.118 34.4705Z" fill="#21A038"/>
<path d="M283.872 39.4313H277.312V9.37305H283.872V21.9977H287.443L297.084 9.37305H304.518L293.082 23.6721L306.361 39.4313H297.658L287.897 27.6096H283.872V39.4313Z" fill="#21A038"/>
<path d="M234.141 33.7192H220.265L217.912 39.5562H210.932L223.947 9.49805H230.926L243.73 39.5562H236.494L234.141 33.7192ZM231.968 28.273L227.244 16.599L222.494 28.273H231.968Z" fill="#21A038"/>
<path d="M252.561 9.49805V22.0498H266.135V9.49805H272.898V39.5562H266.135V27.7122H252.561V39.5562H245.797V9.49805H252.561Z" fill="#21A038"/>
</g>
<defs>
<linearGradient id="paint0_linear_3396_57086" x1="8.76774" y1="40.987" x2="2.64649" y2="23.5267" gradientUnits="userSpaceOnUse">
<stop offset="0.14" stop-color="#F1E813"/>
<stop offset="0.3" stop-color="#E6E418"/>
<stop offset="0.58" stop-color="#C9DA26"/>
<stop offset="0.89" stop-color="#A2CC39"/>
</linearGradient>
<linearGradient id="paint1_linear_3396_57086" x1="9.22423" y1="8.72104" x2="24.6722" y2="2.91221" gradientUnits="userSpaceOnUse">
<stop offset="0.06" stop-color="#0FA7DF"/>
<stop offset="0.54" stop-color="#0098F8"/>
<stop offset="0.92" stop-color="#0290EA"/>
</linearGradient>
<linearGradient id="paint2_linear_3396_57086" x1="22.8619" y1="45.3662" x2="40.2945" y2="41.4803" gradientUnits="userSpaceOnUse">
<stop offset="0.12" stop-color="#A2CC39"/>
<stop offset="0.28" stop-color="#86C239"/>
<stop offset="0.87" stop-color="#219F38"/>
</linearGradient>
<linearGradient id="paint3_linear_3396_57086" x1="23.2624" y1="2.56741" x2="38.1814" y2="7.11025" gradientUnits="userSpaceOnUse">
<stop offset="0.06" stop-color="#0290EA"/>
<stop offset="0.79" stop-color="#0C89CA"/>
</linearGradient>
<linearGradient id="paint4_linear_3396_57086" x1="8.22009" y1="40.1373" x2="24.4742" y2="46.1314" gradientUnits="userSpaceOnUse">
<stop offset="0.13" stop-color="#F1E813"/>
<stop offset="0.3" stop-color="#EAE616"/>
<stop offset="0.53" stop-color="#D8DF1F"/>
<stop offset="0.8" stop-color="#BAD52D"/>
<stop offset="0.98" stop-color="#A2CC39"/>
</linearGradient>
<linearGradient id="paint5_linear_3396_57086" x1="2.76283" y1="25.3823" x2="9.41914" y2="8.29674" gradientUnits="userSpaceOnUse">
<stop offset="0.07" stop-color="#A2CC39"/>
<stop offset="0.26" stop-color="#81C45E"/>
<stop offset="0.92" stop-color="#0FA7DF"/>
</linearGradient>
<clipPath id="clip0_3396_57086">
<rect width="308" height="48" fill="white"/>
</clipPath>
</defs>
</svg>
