<svg width="138" height="48" viewBox="0 0 138 48" fill="none" xmlns="http://www.w3.org/2000/svg">
<g clip-path="url(#clip0_3396_56372)">
<g clip-path="url(#clip1_3396_56372)">
<path fill-rule="evenodd" clip-rule="evenodd" d="M47.4336 23.7481C47.4232 19.1273 46.0632 14.6101 43.5207 10.7516C40.9782 6.89316 37.3639 3.86145 33.1219 2.02902C28.8799 0.196591 24.195 -0.356741 19.6428 0.437014C15.0907 1.23077 10.8695 3.33704 7.49804 6.49701C4.12656 9.65699 1.75164 13.733 0.665045 18.2243C-0.421547 22.7156 -0.172468 27.4265 1.38169 31.7781C2.93585 36.1298 5.72738 39.9326 9.41328 42.7195C13.0992 45.5063 17.5189 47.1557 22.1294 47.465V29.0973C20.8285 28.7269 19.7054 27.8986 18.9671 26.7652C18.2288 25.6318 17.9252 24.2698 18.1122 22.9301C18.2993 21.5905 18.9643 20.3636 19.9847 19.4758C21.0052 18.5879 22.3122 18.0989 23.6648 18.0989C25.0174 18.0989 26.3245 18.5879 27.3449 19.4758C28.3653 20.3636 29.0304 21.5905 29.2174 22.9301C29.4044 24.2698 29.1008 25.6318 28.3625 26.7652C27.6242 27.8986 26.5011 28.7269 25.2002 29.0973V47.465C31.2239 47.0725 36.8728 44.4032 41.0007 39.9988C45.1287 35.5944 47.4267 29.7846 47.4284 23.7481H47.4336Z" fill="#00B6F0"/>
<path fill-rule="evenodd" clip-rule="evenodd" d="M81.0383 13.8603L85.3509 5.23767C77.1881 -2.39515 61.6809 -2.05741 56.6252 8.87482C55.2769 11.7871 55.3262 15.0138 56.6096 18.4068C57.2305 20.0435 58.3477 22.0855 60.1195 23.5481C61.0262 24.2963 64.5048 26.0214 67.3184 27.297C69.9528 28.4895 73.5769 29.3468 75.2396 31.698C77.1413 34.3868 75.9671 37.707 71.5557 38.3124C69.0851 38.6501 65.4063 37.6239 59.9246 33.1996L54.126 40.7882C72.5715 56.8696 89.5882 42.7887 85.6003 30.2743C84.5871 27.097 82.501 24.6523 79.9186 22.7869C75.9255 19.9006 71.7558 19.1186 68.9707 17.9053C63.754 15.6321 64.4919 9.23075 71.7246 9.62304C76.3022 9.86985 77.7727 11.1818 81.0383 13.8733V13.8603Z" fill="#271E79" stroke="black" stroke-width="0.0416863" stroke-miterlimit="22.93"/>
<path fill-rule="evenodd" clip-rule="evenodd" d="M90.3857 0.0131836H108.265C114.277 0.0131836 121.325 5.2351 121.325 11.4728C121.325 12.9121 121.424 13.9928 121.325 15.6659C121.13 18.9757 118.077 22.6804 116.111 22.6804C119.171 22.6804 122.232 27.0684 122.982 30.1028C124.801 37.4784 120.933 47.9794 108.265 47.9794H90.3857V0.0131836ZM99.9748 8.76833H106.989C109.626 8.76833 111.783 11.0052 111.783 13.7434V14.4553C111.783 16.7934 109.935 18.7159 107.675 18.7159H104.789V27.588H108.166C111.224 27.588 113.723 30.186 113.723 33.3529C113.723 36.5224 111.224 39.1178 108.166 39.1178H99.9748V8.76833Z" fill="#271E79" stroke="black" stroke-width="0.0416863" stroke-miterlimit="22.93"/>
<path fill-rule="evenodd" clip-rule="evenodd" d="M127.763 0.0131836H137.874V47.9872H127.763V0.0131836Z" fill="#271E79" stroke="black" stroke-width="0.0416863" stroke-miterlimit="22.93"/>
</g>
</g>
<defs>
<clipPath id="clip0_3396_56372">
<rect width="137.887" height="48" fill="white"/>
</clipPath>
<clipPath id="clip1_3396_56372">
<rect width="137.887" height="48" fill="white"/>
</clipPath>
</defs>
</svg>
