<svg width="24" height="24" viewBox="0 0 24 24" fill="none" xmlns="http://www.w3.org/2000/svg">
<g clip-path="url(#clip0_1577_3443)">
<path d="M13.9873 13.2695L13.9873 15.1162" stroke="#5E6063" stroke-width="1.75"/>
<path d="M13.9873 16.9902L13.9873 18.8369" stroke="#5E6063" stroke-width="1.75"/>
<path d="M17.7202 18.8371V16.3965C17.7202 16.1203 17.4963 15.8965 17.2202 15.8965H14.8911" stroke="#5E6063" stroke-width="1.75"/>
<path d="M13.8892 7.43652C13.8892 7.16038 14.113 6.93652 14.3892 6.93652H17.1692C17.4454 6.93652 17.6692 7.16038 17.6692 7.43652V10.2166C17.6692 10.4927 17.4454 10.7166 17.1692 10.7166H14.3892C14.113 10.7166 13.8892 10.4927 13.8892 10.2166V7.43652Z" stroke="#5E6063" stroke-width="1.75"/>
<path d="M6.43604 7.43652C6.43604 7.16038 6.65989 6.93652 6.93604 6.93652H9.71485C9.99099 6.93652 10.2149 7.16038 10.2149 7.43652V10.2153C10.2149 10.4915 9.99099 10.7153 9.71485 10.7153H6.93604C6.65989 10.7153 6.43604 10.4915 6.43604 10.2153V7.43652Z" stroke="#5E6063" stroke-width="1.75"/>
<path d="M6.43652 14.7471C6.43652 14.4709 6.66038 14.2471 6.93652 14.2471H9.71658C9.99272 14.2471 10.2166 14.4709 10.2166 14.7471V17.5271C10.2166 17.8033 9.99272 18.0271 9.71658 18.0271H6.93652C6.66038 18.0271 6.43652 17.8033 6.43652 17.5271V14.7471Z" stroke="#5E6063" stroke-width="1.75"/>
<path d="M2.63867 8.41549V3.5C2.63867 3.22386 2.86253 3 3.13867 3H7.90772" stroke="#5E6063" stroke-width="1.75"/>
<path d="M2.63867 16.1363V21.0518C2.63867 21.3279 2.86253 21.5518 3.13867 21.5518H7.90772" stroke="#5E6063" stroke-width="1.75"/>
<path d="M21.1411 8.41549V3.5C21.1411 3.22386 20.9173 3 20.6411 3H15.8721" stroke="#5E6063" stroke-width="1.75"/>
<line x1="2" y1="10.6719" x2="21.6333" y2="10.6719" stroke="#5E6063" stroke-width="1.75"/>
<path d="M21.1411 16.1363V21.0518C21.1411 21.3279 20.9173 21.5518 20.6411 21.5518H15.8721" stroke="#5E6063" stroke-width="1.75"/>
</g>
<defs>
<clipPath id="clip0_1577_3443">
<rect width="24" height="24" fill="white"/>
</clipPath>
</defs>
</svg>
