<svg width="169" height="24" viewBox="0 0 169 24" fill="none" xmlns="http://www.w3.org/2000/svg">
<path d="M15.4671 19.3062C15.8483 18.3791 16.0324 17.3809 16.0066 16.3795C16.0421 14.9064 15.5349 13.4689 14.582 12.3415C13.5192 11.1721 11.7005 10.1998 9.18076 9.46001C8.69297 9.33402 8.21811 9.16281 7.75939 8.95283C7.36205 8.75901 7.00671 8.49412 6.70628 8.17108C6.39294 7.81574 6.22819 7.35379 6.2508 6.87893C6.26048 6.18762 6.64814 5.55447 7.26191 5.23466C8.51853 4.68226 9.94959 4.68226 11.203 5.23466C11.7618 5.43817 12.2981 5.69014 12.8117 5.98734L14.9276 1.77168C13.9811 1.18698 12.9635 0.737959 11.8943 0.431072C10.7927 0.146798 9.66209 0.001431 8.52499 0.001431C7.44281 -0.0179513 6.36709 0.15972 5.34952 0.524753C4.44501 0.876866 3.62126 1.41634 2.93319 2.10118C2.24189 2.79249 1.69272 3.61623 1.32446 4.52074C0.959425 5.45109 0.778523 6.44605 0.784984 7.44424C0.843131 9.04006 1.51828 10.5486 2.66184 11.6599C3.75371 12.6161 5.03294 13.3332 6.41878 13.7597C7.07778 14.0116 7.80785 14.2377 8.27302 14.4154C8.75112 14.5963 9.20984 14.8257 9.63625 15.1067C9.94313 15.3264 10.1919 15.6139 10.3631 15.9499C10.5117 16.2697 10.5666 16.6218 10.5214 16.9707C10.4729 17.5004 10.2177 17.9915 9.81392 18.3371C9.15169 18.8184 8.33763 19.0413 7.52357 18.967C6.56092 18.9412 5.61441 18.7151 4.74221 18.3016C3.97984 17.9365 3.24008 17.5263 2.52616 17.0708L0 21.4124C1.99315 23.0502 4.48378 23.958 7.0584 23.9838C8.3344 23.9838 9.60394 23.7835 10.8153 23.3862C11.8588 23.0373 12.8246 22.4978 13.6645 21.7936C14.4334 21.0991 15.0471 20.2527 15.4671 19.3062Z" fill="#EB0F19"/>
<path d="M29.1056 17.9496C27.8361 19.5325 25.5264 19.7877 23.9435 18.5214C22.3606 17.2519 22.1022 14.9389 23.3685 13.356C24.638 11.7699 26.9477 11.5147 28.5306 12.781C28.7406 12.949 28.9344 13.1396 29.1056 13.3463L32.3974 10.0416C30.8242 8.30369 28.5856 7.31519 26.2403 7.31842C21.6499 7.30227 17.6895 10.5811 17.6895 15.6399C17.6895 20.6955 21.6919 23.984 26.2823 23.984C28.6308 23.984 30.8694 22.9923 32.4491 21.2543L29.1056 17.9496Z" fill="#EB0F19"/>
<path d="M40.9391 7.30177C36.3326 7.2953 32.595 11.0296 32.5918 15.6394C32.5885 20.2524 36.3229 23.99 40.9294 23.9932C45.536 23.9932 49.2703 20.2556 49.2703 15.6459C49.2703 11.0393 45.5424 7.305 40.9391 7.30177ZM40.9391 19.322C38.9104 19.3091 37.2759 17.6519 37.2856 15.62C37.2952 13.5913 38.946 11.9503 40.9747 11.9535C43.0033 11.96 44.6476 13.6075 44.6476 15.6394C44.6476 16.6182 44.2567 17.5615 43.559 18.2528C42.8644 18.9441 41.9212 19.3285 40.9391 19.322Z" fill="#EB0F19"/>
<path d="M59.8945 7.69625H57.6203V2.77637H52.6326V7.69625H50.3584V12.2156H52.6326V23.5865H57.6203V12.2156H59.8945V7.69625Z" fill="#EB0F19"/>
<path d="M64.6695 0.000988103C63.5453 -0.00224219 62.5278 0.672909 62.0949 1.71309C61.662 2.75005 61.8979 3.94852 62.6925 4.74643C63.4872 5.54433 64.6857 5.78338 65.7226 5.35374C66.7628 4.9241 67.4412 3.90976 67.4412 2.78235C67.4412 1.25115 66.204 0.00421849 64.6695 0.000988103Z" fill="#EB0F19"/>
<path d="M62.1748 7.69629H67.1561V23.5801H62.1748V7.69629Z" fill="#EB0F19"/>
<path d="M86.6389 23.6056V7.69592H81.7868V9.38218L81.3314 8.98807C80.2007 7.90266 78.6889 7.29535 77.1222 7.30181C72.8322 7.30181 69.2109 11.1201 69.2109 15.6394C69.2109 20.1555 72.8419 23.9835 77.1222 23.9835C78.6889 23.9868 80.2007 23.3827 81.3314 22.2973L81.7868 21.8999V23.5862L86.6389 23.6056ZM77.9298 19.3899C75.8558 19.377 74.1857 17.6843 74.1987 15.6104C74.2083 13.5365 75.8946 11.8631 77.9685 11.8696C80.0424 11.8793 81.7158 13.5655 81.7125 15.6394C81.7093 16.6376 81.3087 17.5971 80.5981 18.3013C79.8906 19.0055 78.9279 19.3964 77.9298 19.3899Z" fill="#EB0F19"/>
<path d="M94.0785 23.6055V21.9193L94.5243 22.3134C95.6582 23.3988 97.1668 24.0029 98.7368 23.9996C103.023 23.9996 106.645 20.1813 106.645 15.6556C106.645 11.1298 103.023 7.31793 98.7368 7.31793C97.1668 7.31469 95.6582 7.91878 94.5243 9.00419L94.0785 9.40153V0.398438H89.2168V23.6055H94.0785ZM94.1787 15.6556C94.1691 14.1308 95.0767 12.7547 96.4819 12.1635C97.8839 11.5723 99.5024 11.8889 100.585 12.9614C101.663 14.0339 101.99 15.6556 101.408 17.064C100.83 18.4692 99.4571 19.3899 97.9356 19.3899C95.8649 19.3899 94.1851 17.7101 94.1787 15.6394V15.6556Z" fill="#EB0F19"/>
<path d="M125.769 23.6055V7.69588H120.917V9.38214L120.461 8.98803C119.327 7.90262 117.819 7.29854 116.249 7.30177C111.962 7.30177 108.341 11.1201 108.341 15.6394C108.341 20.1555 111.972 23.9835 116.249 23.9835C117.819 23.9868 119.327 23.3826 120.461 22.2972L120.917 21.8999V23.5862L125.769 23.6055ZM117.092 19.3899C115.015 19.3931 113.329 17.7133 113.325 15.6362C113.322 13.559 115.005 11.8728 117.082 11.8695C119.156 11.8695 120.839 13.5526 120.839 15.6297C120.839 17.7036 119.163 19.3834 117.092 19.3899Z" fill="#EB0F19"/>
<path d="M136.106 11.9799C137.74 11.9863 139.065 13.3108 139.068 14.9486V23.606H144.049V14.3316C144.049 10.1159 141.613 7.37012 137.763 7.37012C136.18 7.37012 134.513 8.06142 133.14 10.2872V7.75776H128.152V23.606H133.098V14.9486C133.098 14.1539 133.418 13.3948 133.983 12.8359C134.549 12.2803 135.311 11.9702 136.106 11.9799Z" fill="#EB0F19"/>
<path d="M162.201 23.5862L156.086 15.6459L161.772 7.69588H155.951L151.376 14.1308V0.398438H146.398V23.5862H151.376V17.0382L156.396 23.5862H162.201Z" fill="#EB0F19"/>
<path d="M165.715 18.0332C164.588 18.0268 163.57 18.6987 163.134 19.7357C162.698 20.7726 162.931 21.9711 163.722 22.7722C164.514 23.5734 165.709 23.8156 166.752 23.3892C167.793 22.9596 168.474 21.9485 168.477 20.8211C168.481 19.2899 167.247 18.0429 165.715 18.0332ZM165.715 23.0307C164.814 23.0339 164 22.4944 163.654 21.6642C163.305 20.8308 163.496 19.8746 164.129 19.235C164.766 18.5953 165.722 18.4047 166.555 18.7504C167.385 19.0928 167.928 19.9036 167.928 20.8049C167.931 21.3961 167.699 21.9614 167.282 22.3781C166.869 22.7948 166.303 23.0307 165.715 23.0307Z" fill="#EB0F19"/>
<path d="M165.706 21.2703H165.26V22.3234H164.721V19.29H165.874C166.433 19.29 166.885 19.7423 166.885 20.3012C166.875 20.6823 166.649 21.0248 166.304 21.1863L166.943 22.3234H166.287L165.706 21.2703ZM165.26 20.7631H165.9C166.155 20.7631 166.362 20.5564 166.362 20.3012C166.362 20.0427 166.155 19.836 165.9 19.836H165.26V20.7631Z" fill="#EB0F19"/>
</svg>
