<svg width="24" height="24" viewBox="0 0 24 24" fill="none" xmlns="http://www.w3.org/2000/svg">
<g clip-path="url(#clip0_2773_22651)">
<mask id="path-1-inside-1_2773_22651" fill="currentColor">
<path d="M2.45631 4.13585L5.30853 11.2356C5.38467 11.4251 5.56843 11.5493 5.77268 11.5492L11.6546 11.547C11.7943 11.547 11.9071 11.6609 11.9058 11.8006C11.9044 11.9383 11.7923 12.0492 11.6545 12.0492L5.76901 12.0456C5.56464 12.0455 5.38077 12.1698 5.30467 12.3594L2.45568 19.4598C2.28894 19.8754 2.71054 20.2838 3.12059 20.1039L21.0156 12.2534C21.4145 12.0784 21.4144 11.5125 21.0155 11.3376L3.12105 3.49154C2.71092 3.31171 2.28937 3.7203 2.45631 4.13585Z"/>
</mask>
<path d="M5.30853 11.2356L14.5877 7.50779L14.5877 7.50779L5.30853 11.2356ZM2.45631 4.13585L11.7355 0.408057V0.408056L2.45631 4.13585ZM3.12105 3.49154L-0.894551 12.6499H-0.89455L3.12105 3.49154ZM21.0155 11.3376L25.0311 2.17929L25.0311 2.17929L21.0155 11.3376ZM21.0156 12.2534L16.9982 3.09586L16.9982 3.09587L21.0156 12.2534ZM3.12059 20.1039L7.13797 29.2614L7.13798 29.2614L3.12059 20.1039ZM2.45568 19.4598L-6.8251 15.736L-6.8251 15.736L2.45568 19.4598ZM5.30467 12.3594L14.5855 16.0833L14.5855 16.0833L5.30467 12.3594ZM5.76901 12.0456L5.77505 2.04562L5.77503 2.04562L5.76901 12.0456ZM11.6545 12.0492L11.6485 22.0492H11.6485L11.6545 12.0492ZM11.6546 11.547L11.6509 1.54701H11.6509L11.6546 11.547ZM5.77268 11.5492L5.77637 21.5492H5.77638L5.77268 11.5492ZM11.9058 11.8006L1.90624 11.7024L1.90624 11.7025L11.9058 11.8006ZM14.5877 7.50779L11.7355 0.408057L-6.82289 7.86364L-3.97067 14.9634L14.5877 7.50779ZM-0.89455 12.6499L16.9999 20.4959L25.0311 2.17929L7.13665 -5.66679L-0.89455 12.6499ZM16.9982 3.09587L-0.8968 10.9463L7.13798 29.2614L25.033 21.411L16.9982 3.09587ZM11.7365 23.1837L14.5855 16.0833L-3.97611 8.63557L-6.8251 15.736L11.7365 23.1837ZM5.76297 22.0456L11.6485 22.0492L11.6606 2.04917L5.77505 2.04562L5.76297 22.0456ZM11.6509 1.54701L5.76897 1.54919L5.77638 21.5492L11.6583 21.547L11.6509 1.54701ZM21.9053 11.8987C21.9613 6.19664 17.3532 1.54491 11.6509 1.54701L11.6583 21.547C6.23532 21.549 1.85299 17.1251 1.90624 11.7024L21.9053 11.8987ZM11.6485 22.0492C17.2732 22.0526 21.8501 17.5231 21.9053 11.8986L1.90624 11.7025C1.95871 6.35351 6.31146 2.04595 11.6606 2.04917L11.6485 22.0492ZM14.5855 16.0833C13.1395 19.687 9.64592 22.048 5.76299 22.0456L5.77503 2.04562C1.48337 2.04303 -2.37793 4.6525 -3.97611 8.63557L14.5855 16.0833ZM-0.896792 10.9463C6.89403 7.52854 14.9046 15.2879 11.7365 23.1837L-6.8251 15.736C-10.3267 24.4629 -1.47295 33.039 7.13797 29.2614L-0.896792 10.9463ZM16.9999 20.4959C9.42061 17.1727 9.41924 6.42072 16.9982 3.09586L25.033 21.411C33.4097 17.7361 33.4082 5.85237 25.0311 2.17929L16.9999 20.4959ZM11.7355 0.408056C14.9073 8.30336 6.89802 16.0666 -0.894551 12.6499L7.13665 -5.66679C-1.47619 -9.44321 -10.3286 -0.862756 -6.82289 7.86364L11.7355 0.408056ZM-3.97067 14.9634C-2.37175 18.9434 1.48719 21.5508 5.77637 21.5492L5.76899 1.54919C9.64967 1.54776 13.1411 3.90681 14.5877 7.50779L-3.97067 14.9634Z" fill="currentColor" mask="url(#path-1-inside-1_2773_22651)"/>
</g>
<defs>
<clipPath id="clip0_2773_22651">
<rect width="24" height="24" fill="currentColor"/>
</clipPath>
</defs>
</svg>
