<svg width="284" height="48" viewBox="0 0 284 48" fill="none" xmlns="http://www.w3.org/2000/svg">
<mask id="mask0_3396_57234" style="mask-type:luminance" maskUnits="userSpaceOnUse" x="0" y="0" width="48" height="48">
<path d="M22.9324 0.343741C9.86727 0.934462 -0.243504 12.0013 0.344732 25.0742C0.938293 38.1353 12.0115 48.2458 25.0755 47.6621C38.1441 47.0643 48.2581 35.9965 47.667 22.9289C47.0902 10.233 36.6194 0.319246 24.0293 0.316406C23.6651 0.316406 23.3026 0.326346 22.9324 0.343741Z" fill="white"/>
</mask>
<g mask="url(#mask0_3396_57234)">
<path d="M48.2571 0.316406H-0.244141V48.2458H48.2571V0.316406Z" fill="url(#paint0_radial_3396_57234)"/>
</g>
<mask id="mask1_3396_57234" style="mask-type:luminance" maskUnits="userSpaceOnUse" x="0" y="0" width="49" height="48">
<path d="M18.5932 44.3463C15.9421 44.0858 12.7769 43.2519 10.0196 40.8627C7.4817 38.6741 5.91082 35.662 5.14722 33.0083C4.36834 30.2993 4.03819 27.1327 5.33075 27.3801C5.72409 27.4561 6.41208 29.1985 7.15865 30.4683C7.93184 31.7779 8.55203 32.5014 9.1392 32.9458C9.40332 33.1461 10.3075 31.1339 11.6285 29.988C12.3949 29.3536 13.226 29.1388 13.3676 31.0249C13.5274 33.3353 13.1095 36.0865 13.7908 36.0865C14.4131 36.0865 15.8377 35.613 18.966 35.3442C20.1382 35.2455 20.8091 35.4685 19.6895 37.0418C19.1282 37.8328 18.3831 38.9486 16.6113 40.2205C19.2674 42.708 22.4514 42.4052 22.5121 43.4663C22.5472 44.0723 21.3576 44.4074 19.8002 44.4074C19.415 44.4078 19.0121 44.3882 18.5932 44.3463ZM27.5343 21.9902C25.1011 21.4832 24.6034 19.2741 24.6034 19.2741C24.4046 18.4959 24.3531 17.5115 24.5182 16.2605C24.8441 13.6366 25.558 12.4122 26.3653 10.377C27.4452 7.64778 24.8121 6.05134 25.2431 5.0506C25.8328 3.69343 27.7146 5.41696 29.8212 5.54689C31.6246 5.6438 32.7137 5.55896 34.1185 5.74427C35.9886 5.98922 38.2216 6.62431 39.2177 7.79262C40.1293 8.86224 38.7338 10.164 37.0632 9.35001C35.8367 8.75112 34.2942 9.11642 35.2019 10.3951C36.2857 11.6089 36.8069 11.6412 37.9216 11.9312C40.9785 12.7374 41.042 15.6715 38.9706 17.1827C36.6198 18.9063 34.2285 18.1902 33.2778 14.8128C32.7993 13.123 31.6111 12.2642 30.3853 12.7474C29.1751 13.2224 29.8929 15.4425 30.8177 17.5001C32.413 21.5805 29.1804 22.0132 27.9422 22.0132C27.7522 22.0136 27.6049 21.9994 27.5343 21.9902ZM25.7799 45.1131C25.7525 44.5693 26.5474 44.4361 26.5474 44.4361C33.6477 43.0328 31.5713 38.3795 29.0611 36.0038C28.0022 35.0091 18.1196 26.477 18.1196 26.477C8.69864 18.3642 9.45231 12.0331 9.45231 12.0331C9.91523 4.23551 16.7316 2.30502 21.8944 2.75516C22.5004 2.80664 22.8383 3.1698 22.7261 3.67674C22.6164 4.22699 21.8163 4.26356 21.8163 4.26356C20.1726 4.36402 18.699 4.52768 17.5861 5.28348C13.4294 8.08017 14.647 12.8418 20.1968 18.1423C20.8958 18.809 21.6377 19.5123 22.4042 20.2283C22.4042 20.2283 23.5132 21.2099 25.7358 23.3175C30.0015 27.246 32.3353 29.3632 32.3353 29.3632C39.8585 35.6272 37.2801 41.3533 34.416 43.341C32.2217 44.8618 29.7963 45.5743 26.6102 45.7457C26.5832 45.7497 26.5548 45.7511 26.5264 45.7511C26.2353 45.7511 25.7976 45.5743 25.7799 45.1131ZM22.9136 0.0244951C9.67419 0.621606 -0.573265 11.8457 0.0249109 25.0851C0.624862 38.3252 11.8454 48.573 25.088 47.9752C38.327 47.3788 48.5787 36.16 47.9795 22.9167C47.4022 10.0401 36.7746 0.00142 24.0127 0C23.6477 0 23.281 0.00781002 22.9136 0.0244951Z" fill="white"/>
</mask>
<g mask="url(#mask1_3396_57234)">
<path d="M48.5778 0H-0.574219V48.573H48.5778V0Z" fill="url(#paint1_radial_3396_57234)"/>
</g>
<path d="M61.0829 31.1443C63.0013 32.6789 66.0366 33.6374 68.1467 33.6374C70.7357 33.6374 72.3023 32.5181 72.3023 30.3778C72.3023 28.7147 71.631 27.6585 69.5206 26.607C67.0892 25.3595 65.1104 24.591 63.2555 23.0261C61.5941 21.5568 60.4123 19.7651 60.4123 17.1129C60.4123 13.4056 63.4784 10.8184 68.5958 10.8184C71.4063 10.8184 73.771 11.2646 75.977 12.2242V16.1544C75.977 16.7298 75.432 16.9208 74.9847 16.5378C73.1969 15.0361 71.3406 14.3329 69.2316 14.3329C66.9635 14.3329 65.6848 15.3879 65.6848 17.1129C65.6848 18.3593 66.1303 19.2234 66.9635 19.894C68.5613 21.2036 70.5433 22.1621 72.302 22.9952C75.6248 24.5604 77.5748 26.4125 77.5748 30.3132C77.5748 35.1718 73.4497 37.1846 68.2099 37.1846C64.3422 37.1846 59.4524 35.3326 60.0932 33.7329L61.0829 31.1443Z" fill="#717271"/>
<path d="M80.4214 11.1562H85.8845V20.0739C87.226 18.9233 88.9212 18.2204 90.9351 18.2204C94.9626 18.2204 97.6148 20.5538 97.6148 23.9416V36.7887H92.5965V24.6118C92.5965 22.7893 91.6689 21.9596 89.6873 21.9596C88.378 21.9596 87.1629 22.534 85.8841 23.4609V36.7884H80.8673V14.3523C80.8673 13.265 80.7061 12.7232 80.0653 12.0512C79.6848 11.5716 79.9414 11.1562 80.4214 11.1562Z" fill="#717271"/>
<path d="M107.043 18.8257V36.7887H102.026V21.9902C102.026 20.9671 101.802 20.425 101.227 19.7544C100.843 19.2734 101.1 18.8257 101.548 18.8257H107.043ZM107.237 13.1368C107.237 14.8628 105.958 16.1746 104.2 16.1746C102.443 16.1746 101.164 14.8628 101.164 13.1368C101.164 11.4119 102.443 10.1016 104.2 10.1016C105.958 10.1019 107.237 11.4119 107.237 13.1368Z" fill="#717271"/>
<path d="M111.135 18.8258H116.473V20.5845C117.784 19.3058 119.382 18.2188 121.618 18.2188C125.421 18.2188 128.332 20.3601 128.332 24.2907V36.7892H123.312V24.7387C123.312 22.7244 122.419 21.8298 120.403 21.8298C118.998 21.8298 117.784 22.4056 116.632 23.4291V36.7885H111.614V22.0542C111.614 20.9668 111.424 20.424 110.818 19.7531C110.402 19.2735 110.657 18.8258 111.135 18.8258Z" fill="#717271"/>
<path d="M132.134 11.1562H137.6V20.0739C138.941 18.9233 140.635 18.2204 142.648 18.2204C146.677 18.2204 149.329 20.5538 149.329 23.9416V36.7887H144.312V24.6118C144.312 22.7893 143.385 21.9596 141.4 21.9596C140.093 21.9596 138.877 22.534 137.6 23.4609V36.7884H132.581V14.3523C132.581 13.265 132.421 12.7232 131.781 12.0512C131.399 11.5716 131.656 11.1562 132.134 11.1562Z" fill="#717271"/>
<path d="M160.71 21.6076C158.759 21.6076 156.712 22.5025 155.276 23.4295C154.573 23.9069 154.155 23.6524 154.155 22.9172V19.5607C156.041 18.731 158.887 18.2188 161.028 18.2188C165.981 18.2188 168.826 20.1368 168.826 24.099V36.7881H163.902V34.8388C162.498 36.5648 160.485 37.3639 158.344 37.3639C154.764 37.3639 152.302 35.0635 152.302 31.6736C152.302 27.84 154.956 25.4427 160.581 25.4427H163.809V24.099C163.809 22.3417 162.691 21.6076 160.71 21.6076ZM163.809 28.7655H160.548C158.088 28.7655 157.13 29.8851 157.13 31.5792C157.13 32.9854 157.961 33.9439 159.431 33.9439C161.155 33.9439 162.691 33.144 163.809 31.8657L163.809 28.7655Z" fill="#717271"/>
<path d="M172.536 18.8258H177.872V20.5845C179.184 19.3058 180.782 18.2188 183.018 18.2188C186.821 18.2188 189.731 20.3601 189.731 24.2907V36.7892H184.71V24.7387C184.71 22.7244 183.816 21.8298 181.801 21.8298C180.395 21.8298 179.184 22.4056 178.031 23.4291V36.7885H173.014V22.0542C173.014 20.9668 172.823 20.424 172.216 19.7531C171.8 19.2735 172.055 18.8258 172.536 18.8258Z" fill="#717271"/>
<path d="M203.539 11.8594H212.33C217.572 11.8594 220.895 14.256 220.895 18.1244C220.895 20.5537 219.937 22.3418 218.082 23.4612C220.67 24.452 222.236 26.337 222.236 29.6609C222.236 34.3604 218.435 36.7886 212.713 36.7886H204.019V15.0892C204.019 14.0007 203.827 13.4576 203.218 12.787C202.836 12.307 203.092 11.8594 203.539 11.8594ZM209.229 22.0245H211.977C214.373 22.0245 215.684 21.1281 215.684 18.7315C215.684 16.3036 214.373 15.4069 211.882 15.4069H209.229V22.0245H209.229ZM216.868 29.3748C216.868 26.7211 215.396 25.572 212.393 25.572H209.229V33.2414H212.425C215.429 33.2414 216.868 32.0582 216.868 29.3748Z" fill="#717271"/>
<path d="M232.72 21.6076C230.771 21.6076 228.725 22.5025 227.286 23.4295C226.584 23.9069 226.167 23.6524 226.167 22.9172V19.5607C228.053 18.731 230.898 18.2188 233.039 18.2188C237.992 18.2188 240.837 20.1368 240.837 24.099V36.7881H235.916V34.8388C234.51 36.5648 232.497 37.3639 230.354 37.3639C226.776 37.3639 224.315 35.0635 224.315 31.6736C224.315 27.84 226.967 25.4427 232.591 25.4427H235.82V24.099C235.82 22.3417 234.702 21.6076 232.72 21.6076ZM235.82 28.7655H232.56C230.1 28.7655 229.14 29.8851 229.14 31.5792C229.14 32.9854 229.971 33.9439 231.442 33.9439C233.166 33.9439 234.702 33.144 235.82 31.8657L235.82 28.7655Z" fill="#717271"/>
<path d="M244.547 18.8258H249.882V20.5845C251.194 19.3058 252.793 18.2188 255.029 18.2188C258.832 18.2188 261.741 20.3601 261.741 24.2907V36.7892H256.724V24.7387C256.724 22.7244 255.83 21.8298 253.814 21.8298C252.409 21.8298 251.194 22.4056 250.043 23.4291V36.7885H245.025V22.0542C245.025 20.9668 244.834 20.424 244.228 19.7531C243.811 19.2735 244.068 18.8258 244.547 18.8258Z" fill="#717271"/>
<path d="M265.994 36.7884V14.3516C265.994 13.2653 265.834 12.7214 265.191 12.0512C264.809 11.5712 265.066 11.1562 265.546 11.1562H271.011V25.8582L277.371 18.8268H283.123L276.253 26.4976L283.955 36.788H278.425L272.896 29.2766C272.322 28.4778 272.066 28.3507 271.458 28.3507H271.01V36.7884H265.994Z" fill="#717271"/>
<defs>
<radialGradient id="paint0_radial_3396_57234" cx="0" cy="0" r="1" gradientUnits="userSpaceOnUse" gradientTransform="translate(26.9493 16.3394) scale(22.4714 22.4699)">
<stop stop-color="white"/>
<stop offset="0.3372" stop-color="#E9D2B2"/>
<stop offset="0.6542" stop-color="#DAB37C"/>
<stop offset="0.8826" stop-color="#D1A25D"/>
<stop offset="1" stop-color="#CE9B51"/>
</radialGradient>
<radialGradient id="paint1_radial_3396_57234" cx="0" cy="0" r="1" gradientUnits="userSpaceOnUse" gradientTransform="translate(27.826 17.6116) scale(50.2629 50.2597)">
<stop stop-color="#1ABFF1"/>
<stop offset="0.1013" stop-color="#15ABE2"/>
<stop offset="0.2191" stop-color="#1197D4"/>
<stop offset="0.2228" stop-color="#1196D3"/>
<stop offset="0.2823" stop-color="#1184C7"/>
<stop offset="0.3449" stop-color="#1077BD"/>
<stop offset="0.4111" stop-color="#0F6EB7"/>
<stop offset="0.4834" stop-color="#0E69B4"/>
<stop offset="0.573" stop-color="#0E67B2"/>
<stop offset="1" stop-color="#0E67B2"/>
</radialGradient>
</defs>
</svg>
