<svg width="16" height="16" viewBox="0 0 16 16" fill="none" xmlns="http://www.w3.org/2000/svg">
<g clip-path="url(#clip0_2457_7405)">
<path d="M10.3926 6.2V4.4C10.3926 3.07452 9.31809 2 7.99261 2C6.66712 2 5.5926 3.07452 5.5926 4.4V6.2M2.94781 7.01118L2.58781 10.8512C2.48545 11.943 2.43427 12.4889 2.61543 12.9106C2.77458 13.281 3.05348 13.5872 3.40742 13.7803C3.81032 14 4.35862 14 5.45523 14H10.53C11.6266 14 12.1749 14 12.5778 13.7803C12.9317 13.5872 13.2106 13.281 13.3698 12.9106C13.5509 12.4889 13.4998 11.943 13.3974 10.8512L13.0374 7.01118C12.951 6.08921 12.9078 5.62822 12.7004 5.2797C12.5178 4.97275 12.248 4.72707 11.9254 4.57391C11.559 4.4 11.096 4.4 10.17 4.4L5.81523 4.4C4.88922 4.4 4.42621 4.4 4.05986 4.57391C3.7372 4.72707 3.46741 4.97275 3.2848 5.2797C3.07746 5.62822 3.03424 6.08921 2.94781 7.01118Z" stroke="#5E6063" stroke-width="1.25" stroke-linecap="round" stroke-linejoin="round"/>
</g>
<defs>
<clipPath id="clip0_2457_7405">
<rect width="16" height="16" fill="white"/>
</clipPath>
</defs>
</svg>
