<svg width="12" height="12" viewBox="0 0 12 12" fill="none" xmlns="http://www.w3.org/2000/svg">
<g clip-path="url(#clip0_2457_7407)">
<path d="M7.7947 4.65V3.3C7.7947 2.30589 6.98881 1.5 5.9947 1.5C5.00059 1.5 4.1947 2.30589 4.1947 3.3V4.65M2.2111 5.25838L1.9411 8.13838C1.86433 8.95725 1.82595 9.36668 1.96182 9.68292C2.08118 9.96073 2.29035 10.1904 2.55581 10.3352C2.85798 10.5 3.26921 10.5 4.09167 10.5H7.89773C8.72018 10.5 9.13141 10.5 9.43359 10.3352C9.69904 10.1904 9.90821 9.96073 10.0276 9.68292C10.1635 9.36668 10.1251 8.95725 10.0483 8.13838L9.7783 5.25839C9.71347 4.56691 9.68106 4.22117 9.52555 3.95977C9.3886 3.72956 9.18625 3.5453 8.94426 3.43043C8.66949 3.3 8.32224 3.3 7.62773 3.3L4.36167 3.3C3.66716 3.3 3.3199 3.3 3.04514 3.43043C2.80315 3.5453 2.6008 3.72956 2.46384 3.95977C2.30834 4.22117 2.27593 4.56691 2.2111 5.25838Z" stroke="currentColor" stroke-linecap="round" stroke-linejoin="round"/>
</g>
<defs>
<clipPath id="clip0_2457_7407">
<rect width="12" height="12" fill="currentColor"/>
</clipPath>
</defs>
</svg>
