<svg width="24" height="24" viewBox="0 0 24 24" fill="none" xmlns="http://www.w3.org/2000/svg">
<g clip-path="url(#clip0_6032_1798)">
<path d="M14.7221 9.08393C14.9728 9.22813 14.9745 9.4616 14.7256 9.6058L8.98319 12.9431C8.73427 13.0873 8.33256 13.0873 8.08192 12.9431L1.99277 9.42727C1.74213 9.28306 1.74041 9.04959 1.98933 8.90539L7.73171 5.56811C7.98064 5.42391 8.38235 5.42391 8.63298 5.56811L14.7221 9.08393Z" fill="#017AFF" stroke="black" stroke-width="0.075"/>
<path d="M14.9005 9.41127C14.9005 9.41127 14.9005 9.41642 14.8988 9.41813C14.8919 9.43874 14.8816 9.45762 14.8679 9.4765C14.8661 9.47994 14.8627 9.48337 14.861 9.4868C14.8473 9.50569 14.8301 9.52457 14.8112 9.54174C14.7975 9.55375 14.782 9.56405 14.7666 9.57436C14.7528 9.58294 14.7425 9.59324 14.7271 9.60182L8.98471 12.9391C8.94694 12.9614 8.90402 12.9786 8.85939 12.994C8.84394 12.9992 8.82677 13.0043 8.81132 13.0095C8.79072 13.0146 8.77012 13.0215 8.7478 13.0249C8.72205 13.0301 8.6963 13.0352 8.66883 13.0387C8.66368 13.0387 8.65682 13.0404 8.65166 13.0404C8.61561 13.0438 8.57956 13.0455 8.54351 13.0455C8.53836 13.0455 8.53321 13.0455 8.52635 13.0455C8.49029 13.0455 8.45596 13.0438 8.41991 13.0404C8.41476 13.0404 8.40961 13.0404 8.40446 13.0387C8.37013 13.0352 8.33579 13.0284 8.30146 13.0215C8.29459 13.0215 8.28944 13.0181 8.28257 13.0163C8.25167 13.0095 8.22249 12.9992 8.1933 12.9889C8.18815 12.9872 8.183 12.9854 8.17785 12.9837C8.14352 12.97 8.1109 12.9545 8.08 12.9374L1.99256 9.42672C1.86724 9.35462 1.80373 9.25848 1.80373 9.16406L1.80029 10.5632C1.80029 10.6576 1.86381 10.7537 1.98913 10.8258L8.07829 14.3416C8.10747 14.3588 8.13837 14.3725 8.17099 14.3863C8.17099 14.3863 8.17442 14.3863 8.17614 14.3863C8.18129 14.388 8.18644 14.3897 8.19159 14.3914C8.21047 14.3983 8.22936 14.4052 8.24824 14.4103C8.25854 14.4137 8.26884 14.4155 8.27914 14.4172C8.28601 14.4172 8.29116 14.4206 8.29802 14.4223C8.30317 14.4223 8.31004 14.4258 8.31519 14.4258C8.33579 14.4309 8.35639 14.4343 8.37871 14.4361C8.38558 14.4361 8.39416 14.4361 8.40103 14.4378C8.40618 14.4378 8.41133 14.4378 8.41648 14.4395C8.42506 14.4395 8.43193 14.4412 8.44051 14.4429C8.46111 14.4446 8.48171 14.4464 8.50403 14.4464C8.51089 14.4464 8.51605 14.4464 8.52291 14.4464C8.52806 14.4464 8.53321 14.4464 8.54008 14.4464C8.55038 14.4464 8.55896 14.4464 8.56926 14.4464C8.5933 14.4464 8.61561 14.4446 8.63965 14.4412C8.64136 14.4412 8.6448 14.4412 8.64651 14.4412C8.65338 14.4412 8.65853 14.4395 8.66368 14.4395C8.68257 14.4378 8.70145 14.4343 8.71862 14.4309C8.7272 14.4309 8.73407 14.4275 8.74093 14.4258C8.76325 14.4206 8.78385 14.4155 8.80445 14.4103C8.81647 14.4069 8.82677 14.4052 8.83879 14.4017C8.84394 14.4017 8.84737 14.3966 8.85252 14.3949C8.89715 14.3794 8.94007 14.3622 8.97784 14.3399L14.7202 11.0027C14.7202 11.0027 14.7254 10.9992 14.7288 10.9975C14.7408 10.9906 14.7494 10.9821 14.7597 10.9735C14.7752 10.9632 14.7923 10.9512 14.8043 10.9409C14.8043 10.9409 14.8078 10.9391 14.8078 10.9374C14.8232 10.9237 14.8352 10.91 14.8473 10.8945C14.8507 10.8911 14.8524 10.8876 14.8541 10.8842C14.8558 10.8808 14.8593 10.8773 14.861 10.8739C14.8644 10.8688 14.8696 10.8619 14.873 10.8567C14.8799 10.8447 14.885 10.8327 14.8902 10.8207C14.8902 10.819 14.8902 10.8173 14.8902 10.8155C14.8902 10.8138 14.8902 10.8104 14.8919 10.8087C14.8936 10.8001 14.897 10.7932 14.8988 10.7846C14.9005 10.7726 14.9022 10.7606 14.9022 10.7486C14.9022 10.7469 14.9022 10.7451 14.9022 10.7434L14.9056 9.34432C14.9056 9.36663 14.9022 9.38723 14.8953 9.40955L14.9005 9.41127Z" fill="#EBF7FF" stroke="black" stroke-width="0.075"/>
<path d="M5.98098 9.39258L7.14852 10.0707L6.95197 10.1847L5.78442 9.50462L5.98098 9.39258Z" fill="#EBF7FF"/>
<path d="M5.09624 9.88491C5.22597 9.81022 5.36356 9.76894 5.51097 9.76108C5.65839 9.75322 5.78615 9.78073 5.89426 9.84167L5.69574 9.95567C5.63677 9.92422 5.56994 9.91046 5.49525 9.91439C5.42252 9.91832 5.34783 9.94388 5.26921 9.98712C5.12179 10.0716 5.09624 10.1424 5.19648 10.2014C5.26921 10.2426 5.37338 10.2387 5.51294 10.1876L5.7036 10.1168C5.98664 10.0087 6.22054 10.0068 6.40334 10.1129C6.51144 10.1758 6.55665 10.2466 6.53896 10.3272C6.52324 10.4097 6.43872 10.4923 6.28934 10.5788C6.13995 10.6652 5.99647 10.7065 5.84905 10.7104C5.69967 10.7163 5.56404 10.6869 5.44021 10.62L5.63874 10.506C5.71146 10.5414 5.78812 10.5591 5.8746 10.5532C5.95519 10.5493 6.03381 10.5237 6.11637 10.4765C6.28737 10.3783 6.31882 10.2957 6.20875 10.2308C6.16354 10.2053 6.1144 10.1935 6.05937 10.1955C6.00433 10.1974 5.9375 10.2132 5.86477 10.2407L5.65839 10.3173C5.52866 10.3645 5.40876 10.3901 5.29869 10.394C5.19059 10.396 5.09034 10.3704 4.996 10.3173C4.90165 10.2643 4.85644 10.1955 4.87413 10.1149C4.89182 10.0363 4.96651 9.95763 5.09624 9.88294V9.88491Z" fill="#EBF7FF"/>
<path d="M7.96207 8.24609L7.97976 8.25592L8.70899 9.16794L8.48688 9.2957L6.91247 8.87311L6.89478 8.86131L7.11099 8.73748L8.35126 9.09128L8.35715 9.08735L7.7439 8.37189L7.96207 8.24609Z" fill="#EBF7FF"/>
<path d="M10.4953 7.59744L11.2422 7.68392L11.2579 7.69375L11.0358 7.82151L10.3125 7.72716L10.0786 7.86279L10.5208 8.11831L10.3262 8.23035L9.15674 7.55223L9.65009 7.26722C9.76803 7.20236 9.89579 7.16895 10.0334 7.16895C10.171 7.16895 10.2909 7.19843 10.3931 7.2574C10.4776 7.30653 10.5267 7.36157 10.5425 7.42054C10.5621 7.4795 10.5444 7.53847 10.4933 7.59744H10.4953ZM10.1906 7.59547C10.2555 7.55813 10.285 7.52078 10.283 7.48344C10.283 7.44412 10.2516 7.40874 10.1946 7.37533C10.1376 7.34191 10.0766 7.32619 10.0098 7.32422C9.94296 7.32422 9.8781 7.34191 9.8152 7.37729L9.52823 7.5424L9.90169 7.76058L10.1887 7.59547" fill="#EBF7FF"/>
<path d="M8.92881 7.6875L9.10375 7.78971L8.51212 8.13172L8.81285 8.30469L9.35338 7.99413L9.53028 8.09634L8.99171 8.40886L9.32979 8.60542L9.92142 8.26341L10.0964 8.36562L9.31013 8.81966L8.14062 8.14154L8.92881 7.6875Z" fill="#EBF7FF"/>
<path d="M6.46412 9.11133L7.45673 9.68724L8.00709 9.36882L8.18399 9.47103L7.43904 9.90345L6.26953 9.22337L6.46412 9.11133Z" fill="#EBF7FF"/>
<mask id="mask0_6032_1798" style="mask-type:alpha" maskUnits="userSpaceOnUse" x="1" y="5" width="14" height="8">
<path d="M14.616 9.08646C14.8625 9.22827 14.8642 9.45788 14.6194 9.5997L8.97205 12.8817C8.72725 13.0236 8.33219 13.0236 8.08569 12.8817L2.09731 9.42411C1.85081 9.2823 1.84913 9.05269 2.09393 8.91087L7.74128 5.62882C7.98608 5.48701 8.38115 5.48701 8.62764 5.62882L14.616 9.08646Z" fill="#304F94"/>
</mask>
<g mask="url(#mask0_6032_1798)">
<g opacity="0.5">
<path d="M7.91448 3.84003L8.65774 1.84637L14.1706 15.9832L13.4273 17.9769L7.91448 3.84003Z" fill="#EBF7FF"/>
<path d="M8.81107 1.43028L9.21285 0.352567L14.7246 14.4707L14.3228 15.5484L8.81107 1.43028Z" fill="#EBF7FF"/>
</g>
</g>
<path d="M22.0127 13.1796C22.2633 13.3238 22.265 13.5573 22.0161 13.7015L16.2737 17.0388C16.0248 17.183 15.6231 17.183 15.3724 17.0388L9.2833 13.523C9.03266 13.3788 9.03094 13.1453 9.27986 13.0011L15.0222 9.66382C15.2712 9.51961 15.6729 9.51961 15.9235 9.66382L22.0127 13.1796Z" fill="#017AFF" stroke="black" stroke-width="0.075"/>
<path d="M22.191 13.507C22.191 13.507 22.191 13.5121 22.1893 13.5138C22.1824 13.5344 22.1721 13.5533 22.1584 13.5722C22.1567 13.5756 22.1532 13.5791 22.1515 13.5825C22.1378 13.6014 22.1206 13.6203 22.1017 13.6374C22.088 13.6495 22.0725 13.6598 22.0571 13.6701C22.0434 13.6786 22.0331 13.6889 22.0176 13.6975L16.2752 17.0348C16.2375 17.0571 16.1945 17.0743 16.1499 17.0897C16.1345 17.0949 16.1173 17.1 16.1018 17.1052C16.0812 17.1103 16.0606 17.1172 16.0383 17.1206C16.0126 17.1258 15.9868 17.1309 15.9594 17.1344C15.9542 17.1344 15.9473 17.1361 15.9422 17.1361C15.9061 17.1395 15.8701 17.1412 15.834 17.1412C15.8289 17.1412 15.8237 17.1412 15.8169 17.1412C15.7808 17.1412 15.7465 17.1395 15.7104 17.1361C15.7053 17.1361 15.7001 17.1361 15.695 17.1344C15.6607 17.1309 15.6263 17.1241 15.592 17.1172C15.5851 17.1172 15.58 17.1138 15.5731 17.1121C15.5422 17.1052 15.513 17.0949 15.4838 17.0846C15.4787 17.0829 15.4735 17.0812 15.4684 17.0794C15.434 17.0657 15.4014 17.0503 15.3705 17.0331L9.28309 13.5224C9.15777 13.4503 9.09425 13.3542 9.09425 13.2598L9.09082 14.6589C9.09082 14.7533 9.15434 14.8494 9.27966 14.9215L15.3688 18.4373C15.398 18.4545 15.4289 18.4683 15.4615 18.482C15.4615 18.482 15.4649 18.482 15.4667 18.482C15.4718 18.4837 15.477 18.4854 15.4821 18.4871C15.501 18.494 15.5199 18.5009 15.5388 18.506C15.5491 18.5095 15.5594 18.5112 15.5697 18.5129C15.5765 18.5129 15.5817 18.5163 15.5886 18.518C15.5937 18.518 15.6006 18.5215 15.6057 18.5215C15.6263 18.5266 15.6469 18.5301 15.6692 18.5318C15.6761 18.5318 15.6847 18.5318 15.6916 18.5335C15.6967 18.5335 15.7019 18.5335 15.707 18.5352C15.7156 18.5352 15.7225 18.5369 15.731 18.5386C15.7516 18.5404 15.7722 18.5421 15.7946 18.5421C15.8014 18.5421 15.8066 18.5421 15.8134 18.5421C15.8186 18.5421 15.8237 18.5421 15.8306 18.5421C15.8409 18.5421 15.8495 18.5421 15.8598 18.5421C15.8838 18.5421 15.9061 18.5404 15.9302 18.5369C15.9319 18.5369 15.9353 18.5369 15.937 18.5369C15.9439 18.5369 15.9491 18.5352 15.9542 18.5352C15.9731 18.5335 15.992 18.5301 16.0091 18.5266C16.0177 18.5266 16.0246 18.5232 16.0315 18.5215C16.0538 18.5163 16.0744 18.5112 16.095 18.506C16.107 18.5026 16.1173 18.5009 16.1293 18.4974C16.1345 18.4974 16.1379 18.4923 16.143 18.4906C16.1877 18.4751 16.2306 18.458 16.2684 18.4356L22.0107 15.0984C22.0107 15.0984 22.0159 15.0949 22.0193 15.0932C22.0313 15.0863 22.0399 15.0778 22.0502 15.0692C22.0657 15.0589 22.0828 15.0469 22.0949 15.0366C22.0949 15.0366 22.0983 15.0348 22.0983 15.0331C22.1137 15.0194 22.1258 15.0057 22.1378 14.9902C22.1412 14.9868 22.1429 14.9833 22.1446 14.9799C22.1464 14.9765 22.1498 14.973 22.1515 14.9696C22.155 14.9645 22.1601 14.9576 22.1635 14.9524C22.1704 14.9404 22.1756 14.9284 22.1807 14.9164C22.1807 14.9147 22.1807 14.913 22.1807 14.9112C22.1807 14.9095 22.1807 14.9061 22.1824 14.9044C22.1841 14.8958 22.1876 14.8889 22.1893 14.8803C22.191 14.8683 22.1927 14.8563 22.1927 14.8443C22.1927 14.8426 22.1927 14.8409 22.1927 14.8391L22.1961 13.44C22.1961 13.4623 22.1927 13.4829 22.1859 13.5053L22.191 13.507Z" fill="#EBF7FF" stroke="black" stroke-width="0.075"/>
<path d="M13.812 13.8037L14.9796 14.4818L14.783 14.5958L13.6155 13.9157L13.812 13.8037Z" fill="#EBF7FF"/>
<path d="M12.9273 14.297C13.057 14.2223 13.1946 14.1811 13.342 14.1732C13.4894 14.1653 13.6172 14.1928 13.7253 14.2538L13.5268 14.3678C13.4678 14.3363 13.401 14.3226 13.3263 14.3265C13.2536 14.3304 13.1789 14.356 13.1003 14.3992C12.9528 14.4837 12.9273 14.5545 13.0275 14.6135C13.1003 14.6548 13.2044 14.6508 13.344 14.5997L13.5347 14.529C13.8177 14.4208 14.0516 14.4189 14.2344 14.525C14.3425 14.5879 14.3877 14.6587 14.37 14.7393C14.3543 14.8218 14.2698 14.9044 14.1204 14.9909C13.971 15.0773 13.8275 15.1186 13.6801 15.1226C13.5307 15.1285 13.3951 15.099 13.2713 15.0321L13.4698 14.9181C13.5425 14.9535 13.6192 14.9712 13.7057 14.9653C13.7862 14.9614 13.8649 14.9358 13.9474 14.8887C14.1184 14.7904 14.1499 14.7078 14.0398 14.643C13.9946 14.6174 13.9455 14.6056 13.8904 14.6076C13.8354 14.6095 13.7686 14.6253 13.6958 14.6528L13.4894 14.7294C13.3597 14.7766 13.2398 14.8022 13.1297 14.8061C13.0216 14.8081 12.9214 14.7825 12.8271 14.7294C12.7327 14.6764 12.6875 14.6076 12.7052 14.527C12.7229 14.4484 12.7976 14.3697 12.9273 14.2951V14.297Z" fill="#EBF7FF"/>
<path d="M15.7931 12.6572L15.8108 12.6671L16.54 13.5791L16.3179 13.7068L14.7435 13.2842L14.7258 13.2724L14.942 13.1486L16.1823 13.5024L16.1882 13.4985L15.575 12.783L15.7931 12.6572Z" fill="#EBF7FF"/>
<path d="M18.3263 12.0086L19.0733 12.0951L19.089 12.1049L18.8669 12.2326L18.1435 12.1383L17.9096 12.2739L18.3519 12.5294L18.1573 12.6415L16.9878 11.9634L17.4811 11.6784C17.5991 11.6135 17.7268 11.5801 17.8644 11.5801C18.002 11.5801 18.1219 11.6096 18.2241 11.6685C18.3086 11.7177 18.3578 11.7727 18.3735 11.8317C18.3932 11.8906 18.3755 11.9496 18.3244 12.0086H18.3263ZM18.0217 12.0066C18.0865 11.9693 18.116 11.9319 18.1141 11.8946C18.1141 11.8553 18.0826 11.8199 18.0256 11.7865C17.9686 11.753 17.9077 11.7373 17.8408 11.7354C17.774 11.7354 17.7092 11.753 17.6463 11.7884L17.3593 11.9535L17.7327 12.1717L18.0197 12.0066" fill="#EBF7FF"/>
<path d="M16.7599 12.0986L16.9348 12.2008L16.3432 12.5428L16.6439 12.7158L17.1844 12.4053L17.3613 12.5075L16.8228 12.82L17.1608 13.0165L17.7525 12.6745L17.9274 12.7768L17.1412 13.2308L15.9717 12.5527L16.7599 12.0986Z" fill="#EBF7FF"/>
<path d="M14.2952 13.5225L15.2878 14.0984L15.8381 13.7799L16.015 13.8822L15.2701 14.3146L14.1006 13.6345L14.2952 13.5225Z" fill="#EBF7FF"/>
<mask id="mask1_6032_1798" style="mask-type:alpha" maskUnits="userSpaceOnUse" x="9" y="9" width="14" height="9">
<path d="M21.9066 13.1822C22.153 13.324 22.1547 13.5536 21.9099 13.6954L16.2626 16.9774C16.0178 17.1193 15.6227 17.1193 15.3762 16.9774L9.38783 13.5198C9.14134 13.378 9.13965 13.1484 9.38446 13.0066L15.0318 9.72453C15.2766 9.58271 15.6717 9.58271 15.9182 9.72453L21.9066 13.1822Z" fill="#304F94"/>
</mask>
<g mask="url(#mask1_6032_1798)">
<g opacity="0.5">
<path d="M15.205 7.93573L15.9483 5.94207L21.4611 20.0789L20.7178 22.0726L15.205 7.93573Z" fill="#EBF7FF"/>
<path d="M16.1016 5.52598L16.5034 4.44827L22.0151 18.5664L21.6133 19.6441L16.1016 5.52598Z" fill="#EBF7FF"/>
</g>
</g>
<path d="M18.3027 9.081C18.5533 9.2252 18.5551 9.45867 18.3061 9.60287L12.5638 12.9402C12.3148 13.0844 11.9131 13.0844 11.6625 12.9402L5.57333 9.42434C5.3227 9.28013 5.32098 9.04666 5.5699 8.90246L11.3123 5.56518C11.5612 5.42098 11.9629 5.42098 12.2136 5.56518L18.3027 9.081Z" fill="#017AFF" stroke="black" stroke-width="0.075"/>
<path d="M18.4813 9.40932C18.4813 9.40932 18.4813 9.41447 18.4796 9.41618C18.4727 9.43678 18.4624 9.45567 18.4487 9.47455C18.4469 9.47798 18.4435 9.48142 18.4418 9.48485C18.4281 9.50373 18.4109 9.52262 18.392 9.53978C18.3783 9.5518 18.3628 9.5621 18.3474 9.5724C18.3336 9.58099 18.3233 9.59129 18.3079 9.59987L12.5655 12.9371C12.5277 12.9595 12.4848 12.9766 12.4402 12.9921C12.4247 12.9972 12.4076 13.0024 12.3921 13.0075C12.3715 13.0127 12.3509 13.0195 12.3286 13.023C12.3029 13.0281 12.2771 13.0333 12.2496 13.0367C12.2445 13.0367 12.2376 13.0384 12.2325 13.0384C12.1964 13.0419 12.1604 13.0436 12.1243 13.0436C12.1192 13.0436 12.114 13.0436 12.1072 13.0436C12.0711 13.0436 12.0368 13.0419 12.0007 13.0384C11.9956 13.0384 11.9904 13.0384 11.9853 13.0367C11.9509 13.0333 11.9166 13.0264 11.8823 13.0195C11.8754 13.0195 11.8703 13.0161 11.8634 13.0144C11.8325 13.0075 11.8033 12.9972 11.7741 12.9869C11.769 12.9852 11.7638 12.9835 11.7587 12.9818C11.7243 12.968 11.6917 12.9526 11.6608 12.9354L5.57337 9.42477C5.44806 9.35266 5.38454 9.25653 5.38454 9.16211L5.3811 10.5612C5.3811 10.6556 5.44462 10.7518 5.56994 10.8239L11.6591 14.3397C11.6883 14.3569 11.7192 14.3706 11.7518 14.3843C11.7518 14.3843 11.7552 14.3843 11.7569 14.3843C11.7621 14.386 11.7672 14.3878 11.7724 14.3895C11.7913 14.3963 11.8102 14.4032 11.8291 14.4084C11.8394 14.4118 11.8497 14.4135 11.86 14.4152C11.8668 14.4152 11.872 14.4187 11.8788 14.4204C11.884 14.4204 11.8909 14.4238 11.896 14.4238C11.9166 14.429 11.9372 14.4324 11.9595 14.4341C11.9664 14.4341 11.975 14.4341 11.9818 14.4358C11.987 14.4358 11.9921 14.4358 11.9973 14.4375C12.0059 14.4375 12.0127 14.4393 12.0213 14.441C12.0419 14.4427 12.0625 14.4444 12.0848 14.4444C12.0917 14.4444 12.0969 14.4444 12.1037 14.4444C12.1089 14.4444 12.114 14.4444 12.1209 14.4444C12.1312 14.4444 12.1398 14.4444 12.1501 14.4444C12.1741 14.4444 12.1964 14.4427 12.2205 14.4393C12.2222 14.4393 12.2256 14.4393 12.2273 14.4393C12.2342 14.4393 12.2393 14.4375 12.2445 14.4375C12.2634 14.4358 12.2823 14.4324 12.2994 14.429C12.308 14.429 12.3149 14.4255 12.3217 14.4238C12.3441 14.4187 12.3647 14.4135 12.3853 14.4084C12.3973 14.4049 12.4076 14.4032 12.4196 14.3998C12.4247 14.3998 12.4282 14.3946 12.4333 14.3929C12.478 14.3775 12.5209 14.3603 12.5586 14.338L18.301 11.0007C18.301 11.0007 18.3062 10.9973 18.3096 10.9956C18.3216 10.9887 18.3302 10.9801 18.3405 10.9715C18.356 10.9612 18.3731 10.9492 18.3851 10.9389C18.3851 10.9389 18.3886 10.9372 18.3886 10.9355C18.404 10.9217 18.416 10.908 18.4281 10.8925C18.4315 10.8891 18.4332 10.8857 18.4349 10.8822C18.4366 10.8788 18.4401 10.8754 18.4418 10.8719C18.4452 10.8668 18.4504 10.8599 18.4538 10.8548C18.4607 10.8428 18.4658 10.8307 18.471 10.8187C18.471 10.817 18.471 10.8153 18.471 10.8136C18.471 10.8119 18.471 10.8084 18.4727 10.8067C18.4744 10.7981 18.4779 10.7913 18.4796 10.7827C18.4813 10.7707 18.483 10.7586 18.483 10.7466C18.483 10.7449 18.483 10.7432 18.483 10.7415L18.4864 9.34236C18.4864 9.36468 18.483 9.38528 18.4761 9.4076L18.4813 9.40932Z" fill="#EBF7FF" stroke="black" stroke-width="0.075"/>
<path d="M9.56277 9.38867L10.7303 10.0668L10.5338 10.1808L9.36621 9.50071L9.56277 9.38867Z" fill="#EBF7FF"/>
<path d="M8.67803 9.88198C8.80775 9.80729 8.94534 9.76601 9.09276 9.75815C9.24018 9.75029 9.36794 9.7778 9.47605 9.83874L9.27752 9.95274C9.21856 9.92129 9.15173 9.90753 9.07704 9.91146C9.00431 9.91539 8.92962 9.94095 8.851 9.98419C8.70358 10.0687 8.67803 10.1395 8.77827 10.1984C8.851 10.2397 8.95517 10.2358 9.09473 10.1847L9.28539 10.1139C9.56843 10.0058 9.80233 10.0038 9.98513 10.11C10.0932 10.1729 10.1384 10.2436 10.1207 10.3242C10.105 10.4068 10.0205 10.4893 9.87112 10.5758C9.72174 10.6623 9.57825 10.7036 9.43084 10.7075C9.28145 10.7134 9.14583 10.6839 9.022 10.6171L9.22052 10.5031C9.29325 10.5385 9.3699 10.5562 9.45639 10.5503C9.53698 10.5463 9.6156 10.5208 9.69815 10.4736C9.86916 10.3753 9.90061 10.2928 9.79053 10.2279C9.74533 10.2024 9.69619 10.1906 9.64115 10.1925C9.58612 10.1945 9.51929 10.2102 9.44656 10.2377L9.24018 10.3144C9.11045 10.3616 8.99055 10.3871 8.88048 10.3911C8.77237 10.393 8.67213 10.3675 8.57778 10.3144C8.48344 10.2613 8.43823 10.1925 8.45592 10.1119C8.47361 10.0333 8.5483 9.95471 8.67803 9.88001V9.88198Z" fill="#EBF7FF"/>
<path d="M11.5439 8.24316L11.5616 8.25299L12.2908 9.16501L12.0687 9.29277L10.4943 8.87018L10.4766 8.85838L10.6928 8.73455L11.933 9.08836L11.9389 9.08442L11.3257 8.36896L11.5439 8.24316Z" fill="#EBF7FF"/>
<path d="M14.0773 7.59451L14.8242 7.68099L14.84 7.69082L14.6178 7.81858L13.8945 7.72423L13.6606 7.85986L14.1029 8.11538L13.9083 8.22742L12.7388 7.5493L13.2321 7.26429C13.3501 7.19943 13.4778 7.16602 13.6154 7.16602C13.753 7.16602 13.8729 7.1955 13.9751 7.25447C14.0596 7.3036 14.1088 7.35864 14.1245 7.41761C14.1441 7.47657 14.1265 7.53554 14.0754 7.59451H14.0773ZM13.7727 7.59254C13.8375 7.5552 13.867 7.51785 13.865 7.48051C13.865 7.44119 13.8336 7.40581 13.7766 7.3724C13.7196 7.33898 13.6587 7.32326 13.5918 7.32129C13.525 7.32129 13.4601 7.33898 13.3972 7.37437L13.1103 7.53947L13.4837 7.75765L13.7707 7.59254" fill="#EBF7FF"/>
<path d="M12.5106 7.68457L12.6855 7.78678L12.0939 8.12879L12.3946 8.30176L12.9352 7.9912L13.1121 8.09341L12.5735 8.40593L12.9116 8.60249L13.5032 8.26048L13.6781 8.36269L12.8919 8.81673L11.7224 8.13861L12.5106 7.68457Z" fill="#EBF7FF"/>
<path d="M10.0462 9.10742L11.0388 9.68333L11.5891 9.36491L11.766 9.46712L11.0211 9.89954L9.85156 9.21946L10.0462 9.10742Z" fill="#EBF7FF"/>
<mask id="mask2_6032_1798" style="mask-type:alpha" maskUnits="userSpaceOnUse" x="5" y="5" width="14" height="8">
<path d="M18.1978 9.08353C18.4443 9.22534 18.446 9.45495 18.2012 9.59677L12.5538 12.8788C12.309 13.0206 11.914 13.0206 11.6675 12.8788L5.67909 9.42119C5.4326 9.27937 5.43091 9.04976 5.67572 8.90794L11.3231 5.62589C11.5679 5.48408 11.9629 5.48408 12.2094 5.62589L18.1978 9.08353Z" fill="#304F94"/>
</mask>
<g mask="url(#mask2_6032_1798)">
<g opacity="0.5">
<path d="M11.4965 3.8371L12.2398 1.84344L17.7526 15.9803L17.0093 17.974L11.4965 3.8371Z" fill="#EBF7FF"/>
<path d="M12.3933 1.42735L12.7951 0.349637L18.3068 14.4678L17.905 15.5455L12.3933 1.42735Z" fill="#EBF7FF"/>
</g>
</g>
<circle cx="20.9255" cy="4.425" r="1.8" fill="#DF3C27"/>
</g>
<defs>
<clipPath id="clip0_6032_1798">
<rect width="24" height="24" fill="white"/>
</clipPath>
</defs>
</svg>
