<svg width="24" height="24" viewBox="0 0 24 24" fill="none" xmlns="http://www.w3.org/2000/svg">
<g clip-path="url(#clip0_4017_2635)">
<path d="M14.7218 9.09369C14.9725 9.2379 14.9742 9.47137 14.7253 9.61557L8.98289 12.9528C8.73397 13.097 8.33226 13.097 8.08162 12.9528L1.99247 9.43703C1.74183 9.29283 1.74011 9.05936 1.98904 8.91515L7.73142 5.57788C7.98034 5.43368 8.38205 5.43368 8.63269 5.57788L14.7218 9.09369Z" fill="currentColor" stroke="currentColor" stroke-width="0.12"/>
<path d="M14.9003 9.42103C14.9003 9.42103 14.9003 9.42618 14.8986 9.4279C14.8917 9.4485 14.8814 9.46738 14.8677 9.48627C14.866 9.4897 14.8625 9.49314 14.8608 9.49657C14.8471 9.51545 14.8299 9.53434 14.811 9.5515C14.7973 9.56352 14.7819 9.57382 14.7664 9.58412C14.7527 9.5927 14.7424 9.603 14.7269 9.61159L8.98454 12.9489C8.94677 12.9712 8.90385 12.9883 8.85922 13.0038C8.84377 13.0089 8.8266 13.0141 8.81115 13.0192C8.79055 13.0244 8.76995 13.0313 8.74763 13.0347C8.72188 13.0398 8.69613 13.045 8.66866 13.0484C8.66351 13.0484 8.65665 13.0501 8.6515 13.0501C8.61545 13.0536 8.5794 13.0553 8.54334 13.0553C8.53819 13.0553 8.53304 13.0553 8.52618 13.0553C8.49013 13.0553 8.45579 13.0536 8.41974 13.0501C8.41459 13.0501 8.40944 13.0501 8.40429 13.0484C8.36996 13.045 8.33562 13.0381 8.30129 13.0313C8.29442 13.0313 8.28927 13.0278 8.28241 13.0261C8.2515 13.0192 8.22232 13.0089 8.19314 12.9986C8.18799 12.9969 8.18284 12.9952 8.17769 12.9935C8.14335 12.9798 8.11073 12.9643 8.07983 12.9471L1.9924 9.43648C1.86708 9.36438 1.80356 9.26825 1.80356 9.17383L1.80013 10.5729C1.80013 10.6674 1.86364 10.7635 1.98896 10.8356L8.07812 14.3514C8.1073 14.3686 8.1382 14.3823 8.17082 14.396C8.17082 14.396 8.17425 14.396 8.17597 14.396C8.18112 14.3978 8.18627 14.3995 8.19142 14.4012C8.2103 14.4081 8.22919 14.4149 8.24807 14.4201C8.25837 14.4235 8.26867 14.4252 8.27897 14.4269C8.28584 14.4269 8.29099 14.4304 8.29786 14.4321C8.30301 14.4321 8.30987 14.4355 8.31502 14.4355C8.33562 14.4407 8.35622 14.4441 8.37854 14.4458C8.38541 14.4458 8.39399 14.4458 8.40086 14.4475C8.40601 14.4475 8.41116 14.4475 8.41631 14.4493C8.42489 14.4493 8.43176 14.451 8.44034 14.4527C8.46094 14.4544 8.48154 14.4561 8.50386 14.4561C8.51073 14.4561 8.51588 14.4561 8.52274 14.4561C8.52789 14.4561 8.53304 14.4561 8.53991 14.4561C8.55021 14.4561 8.55879 14.4561 8.5691 14.4561C8.59313 14.4561 8.61545 14.4544 8.63948 14.451C8.6412 14.451 8.64463 14.451 8.64635 14.451C8.65321 14.451 8.65836 14.4493 8.66351 14.4493C8.6824 14.4475 8.70128 14.4441 8.71845 14.4407C8.72703 14.4407 8.7339 14.4372 8.74077 14.4355C8.76308 14.4304 8.78368 14.4252 8.80428 14.4201C8.8163 14.4166 8.8266 14.4149 8.83862 14.4115C8.84377 14.4115 8.8472 14.4063 8.85235 14.4046C8.89699 14.3892 8.9399 14.372 8.97767 14.3497L14.72 11.0124C14.72 11.0124 14.7252 11.009 14.7286 11.0073C14.7407 11.0004 14.7492 10.9918 14.7595 10.9832C14.775 10.9729 14.7922 10.9609 14.8042 10.9506C14.8042 10.9506 14.8076 10.9489 14.8076 10.9472C14.8231 10.9335 14.8351 10.9197 14.8471 10.9043C14.8505 10.9008 14.8522 10.8974 14.854 10.894C14.8557 10.8905 14.8591 10.8871 14.8608 10.8837C14.8643 10.8785 14.8694 10.8716 14.8728 10.8665C14.8797 10.8545 14.8849 10.8425 14.89 10.8304C14.89 10.8287 14.89 10.827 14.89 10.8253C14.89 10.8236 14.89 10.8201 14.8917 10.8184C14.8934 10.8098 14.8969 10.803 14.8986 10.7944C14.9003 10.7824 14.902 10.7704 14.902 10.7583C14.902 10.7566 14.902 10.7549 14.902 10.7532L14.9055 9.35408C14.9055 9.3764 14.902 9.397 14.8952 9.41932L14.9003 9.42103Z" fill="currentColor" stroke="currentColor" stroke-width="0.12"/>
<path d="M6.85759 7.52982C6.97432 7.59677 7.03613 7.66715 7.04643 7.74097C7.05673 7.81651 7.01552 7.88003 6.92111 7.93668L6.78377 7.85771C6.84214 7.82166 6.86789 7.77874 6.86274 7.73582C6.85587 7.6929 6.81124 7.64655 6.73055 7.6002C6.57605 7.51093 6.44215 7.49892 6.32884 7.56587C6.24816 7.61222 6.25674 7.67917 6.35288 7.76501L6.4679 7.86629C6.63098 8.00878 6.63098 8.12895 6.4679 8.22337C6.37176 8.28002 6.26017 8.30234 6.13314 8.29204C6.0061 8.28173 5.87907 8.24225 5.75375 8.16843C5.62843 8.09461 5.55633 8.01908 5.54774 7.94526C5.53572 7.86973 5.58036 7.80106 5.68164 7.73754L5.81898 7.81651C5.75546 7.85771 5.728 7.90406 5.7383 7.95213C5.74688 8.0002 5.79323 8.04826 5.87563 8.09633C6.05245 8.19762 6.20181 8.21307 6.32713 8.13925C6.37691 8.11006 6.39751 8.07916 6.39408 8.04311C6.38721 8.00878 6.35974 7.97101 6.30996 7.92466L6.18636 7.81307C6.11254 7.74784 6.07305 7.68604 6.07305 7.6311C6.07305 7.57617 6.11082 7.52467 6.18979 7.48003C6.28077 7.42682 6.38549 7.4045 6.50395 7.41137C6.6224 7.41823 6.74085 7.45772 6.8593 7.52467L6.85759 7.52982Z" fill="currentColor"/>
<path d="M8.06453 8.24229L7.11347 8.79507L7.63535 9.09549L7.51175 9.1676L6.85596 8.7882L7.93062 8.16504L8.06453 8.24229Z" fill="currentColor"/>
<path d="M10.4644 10.361L10.327 10.7764L10.3116 10.785L10.1639 10.7009L10.3047 10.2906L10.0421 10.1395L9.61803 10.3867L9.48241 10.3095L10.5571 9.68457L10.9845 9.93178C11.0927 9.99358 11.1442 10.0588 11.1459 10.1309C11.1459 10.2013 11.0996 10.2631 11.0068 10.318C10.9279 10.3644 10.842 10.3901 10.7476 10.397C10.6515 10.4039 10.5571 10.3936 10.4644 10.3627V10.361ZM10.1674 10.0657L10.4524 10.2305C10.521 10.27 10.5914 10.2889 10.6635 10.2889C10.7339 10.2889 10.8026 10.27 10.8661 10.2339C10.9296 10.1979 10.9605 10.1567 10.9622 10.1155C10.9605 10.0743 10.9262 10.0331 10.8575 9.99529L10.5725 9.83049L10.1691 10.0657" fill="currentColor"/>
<path d="M10.3134 9.54038L10.1898 9.61077L9.63015 9.28803L9.29367 9.48373L9.80525 9.779L9.68165 9.8511L9.17007 9.55411L8.79926 9.77042L9.36062 10.0932L9.23702 10.1635L8.54347 9.76355L9.61813 9.13867L10.3134 9.54038Z" fill="currentColor"/>
<path d="M9.41731 9.0217L9.40014 9.032L7.94437 9.41655L7.80704 9.33758L8.46969 8.49468L8.48514 8.48438L8.62591 8.56506L8.05596 9.27234L8.06111 9.27749L9.27654 8.94102L9.41731 9.0217Z" fill="currentColor"/>
<path d="M7.62154 7.9862L6.54688 8.60936L6.41126 8.53211L7.48764 7.90723L7.62154 7.9862Z" fill="currentColor"/>
<mask id="mask0_4017_2635" style="mask-type:alpha" maskUnits="userSpaceOnUse" x="1" y="5" width="14" height="8">
<path d="M14.6166 9.09622C14.8631 9.23804 14.8648 9.46765 14.62 9.60946L8.97264 12.8915C8.72784 13.0333 8.33278 13.0333 8.08629 12.8915L2.0979 9.43388C1.85141 9.29206 1.84972 9.06246 2.09452 8.92064L7.74187 5.63859C7.98668 5.49677 8.38174 5.49677 8.62823 5.63859L14.6166 9.09622Z" fill="currentColor"/>
</mask>
<g mask="url(#mask0_4017_2635)">
<g opacity="0.5">
<path d="M7.91503 3.84882L8.65829 1.85516L14.1711 15.992L13.4279 17.9857L7.91503 3.84882Z" fill="currentColor"/>
<path d="M8.81164 1.43907L9.21343 0.361356L14.7251 14.4795L14.3233 15.5572L8.81164 1.43907Z" fill="currentColor"/>
</g>
</g>
<path d="M22.0111 13.1689C22.2617 13.3131 22.2634 13.5466 22.0145 13.6908L16.2721 17.028C16.0232 17.1722 15.6215 17.1722 15.3709 17.028L9.28172 13.5122C9.03108 13.368 9.02937 13.1346 9.27829 12.9903L15.0207 9.65307C15.2696 9.50887 15.6713 9.50887 15.9219 9.65307L22.0111 13.1689Z" fill="currentColor" stroke="currentColor" stroke-width="0.12"/>
<path d="M22.1896 13.4972C22.1896 13.4972 22.1896 13.5024 22.1878 13.5041C22.181 13.5247 22.1707 13.5436 22.1569 13.5624C22.1552 13.5659 22.1518 13.5693 22.1501 13.5727C22.1363 13.5916 22.1192 13.6105 22.1003 13.6277C22.0866 13.6397 22.0711 13.65 22.0557 13.6603C22.0419 13.6689 22.0316 13.6792 22.0162 13.6878L16.2738 17.025C16.236 17.0474 16.1931 17.0645 16.1485 17.08C16.133 17.0851 16.1159 17.0903 16.1004 17.0954C16.0798 17.1006 16.0592 17.1074 16.0369 17.1109C16.0111 17.116 15.9854 17.1212 15.9579 17.1246C15.9528 17.1246 15.9459 17.1263 15.9408 17.1263C15.9047 17.1298 15.8686 17.1315 15.8326 17.1315C15.8274 17.1315 15.8223 17.1315 15.8154 17.1315C15.7794 17.1315 15.745 17.1298 15.709 17.1263C15.7038 17.1263 15.6987 17.1263 15.6935 17.1246C15.6592 17.1212 15.6249 17.1143 15.5905 17.1074C15.5837 17.1074 15.5785 17.104 15.5717 17.1023C15.5408 17.0954 15.5116 17.0851 15.4824 17.0748C15.4772 17.0731 15.4721 17.0714 15.4669 17.0697C15.4326 17.0559 15.4 17.0405 15.3691 17.0233L9.28165 13.5127C9.15633 13.4406 9.09281 13.3444 9.09281 13.25L9.08938 14.6491C9.08938 14.7435 9.1529 14.8397 9.27822 14.9118L15.3674 18.4276C15.3966 18.4448 15.4275 18.4585 15.4601 18.4722C15.4601 18.4722 15.4635 18.4722 15.4652 18.4722C15.4704 18.4739 15.4755 18.4757 15.4807 18.4774C15.4996 18.4842 15.5184 18.4911 15.5373 18.4963C15.5476 18.4997 15.5579 18.5014 15.5682 18.5031C15.5751 18.5031 15.5802 18.5066 15.5871 18.5083C15.5923 18.5083 15.5991 18.5117 15.6043 18.5117C15.6249 18.5169 15.6455 18.5203 15.6678 18.522C15.6747 18.522 15.6832 18.522 15.6901 18.5237C15.6953 18.5237 15.7004 18.5237 15.7056 18.5254C15.7141 18.5254 15.721 18.5272 15.7296 18.5289C15.7502 18.5306 15.7708 18.5323 15.7931 18.5323C15.8 18.5323 15.8051 18.5323 15.812 18.5323C15.8171 18.5323 15.8223 18.5323 15.8292 18.5323C15.8395 18.5323 15.848 18.5323 15.8583 18.5323C15.8824 18.5323 15.9047 18.5306 15.9287 18.5272C15.9304 18.5272 15.9339 18.5272 15.9356 18.5272C15.9425 18.5272 15.9476 18.5254 15.9528 18.5254C15.9717 18.5237 15.9905 18.5203 16.0077 18.5169C16.0163 18.5169 16.0232 18.5134 16.03 18.5117C16.0523 18.5066 16.0729 18.5014 16.0935 18.4963C16.1056 18.4928 16.1159 18.4911 16.1279 18.4877C16.133 18.4877 16.1365 18.4825 16.1416 18.4808C16.1862 18.4654 16.2292 18.4482 16.2669 18.4259L22.0093 15.0886C22.0093 15.0886 22.0145 15.0852 22.0179 15.0834C22.0299 15.0766 22.0385 15.068 22.0488 15.0594C22.0642 15.0491 22.0814 15.0371 22.0934 15.0268C22.0934 15.0268 22.0969 15.0251 22.0969 15.0234C22.1123 15.0096 22.1243 14.9959 22.1363 14.9804C22.1398 14.977 22.1415 14.9736 22.1432 14.9701C22.1449 14.9667 22.1484 14.9633 22.1501 14.9598C22.1535 14.9547 22.1587 14.9478 22.1621 14.9427C22.169 14.9307 22.1741 14.9186 22.1793 14.9066C22.1793 14.9049 22.1793 14.9032 22.1793 14.9015C22.1793 14.8998 22.1793 14.8963 22.181 14.8946C22.1827 14.886 22.1861 14.8792 22.1878 14.8706C22.1896 14.8586 22.1913 14.8465 22.1913 14.8345C22.1913 14.8328 22.1913 14.8311 22.1913 14.8294L22.1947 13.4303C22.1947 13.4526 22.1913 13.4732 22.1844 13.4955L22.1896 13.4972Z" fill="currentColor" stroke="currentColor" stroke-width="0.12"/>
<path d="M14.1468 11.605C14.2636 11.672 14.3254 11.7423 14.3357 11.8162C14.346 11.8917 14.3048 11.9552 14.2104 12.0119L14.073 11.9329C14.1314 11.8969 14.1571 11.8539 14.152 11.811C14.1451 11.7681 14.1005 11.7217 14.0198 11.6754C13.8653 11.5861 13.7314 11.5741 13.6181 11.6411C13.5374 11.6874 13.546 11.7544 13.6421 11.8402L13.7571 11.9415C13.9202 12.084 13.9202 12.2041 13.7571 12.2986C13.661 12.3552 13.5494 12.3775 13.4224 12.3672C13.2953 12.3569 13.1683 12.3174 13.043 12.2436C12.9177 12.1698 12.8456 12.0943 12.837 12.0205C12.825 11.9449 12.8696 11.8763 12.9709 11.8127L13.1082 11.8917C13.0447 11.9329 13.0172 11.9793 13.0275 12.0273C13.0361 12.0754 13.0825 12.1235 13.1649 12.1715C13.3417 12.2728 13.4911 12.2883 13.6164 12.2144C13.6662 12.1853 13.6868 12.1544 13.6833 12.1183C13.6765 12.084 13.649 12.0462 13.5992 11.9999L13.4756 11.8883C13.4018 11.823 13.3623 11.7612 13.3623 11.7063C13.3623 11.6514 13.4001 11.5999 13.479 11.5552C13.57 11.502 13.6747 11.4797 13.7932 11.4866C13.9116 11.4934 14.0301 11.5329 14.1486 11.5999L14.1468 11.605Z" fill="currentColor"/>
<path d="M15.3537 12.3175L14.4027 12.8703L14.9245 13.1707L14.8009 13.2428L14.1452 12.8634L15.2198 12.2402L15.3537 12.3175Z" fill="currentColor"/>
<path d="M17.7536 14.4361L17.6162 14.8516L17.6008 14.8602L17.4531 14.7761L17.5939 14.3658L17.3313 14.2147L16.9072 14.4619L16.7716 14.3846L17.8463 13.7598L18.2737 14.007C18.3819 14.0688 18.4334 14.134 18.4351 14.2061C18.4351 14.2765 18.3887 14.3383 18.296 14.3932C18.2171 14.4396 18.1312 14.4653 18.0368 14.4722C17.9407 14.4791 17.8463 14.4688 17.7536 14.4379V14.4361ZM17.4566 14.1409L17.7415 14.3057C17.8102 14.3452 17.8806 14.364 17.9527 14.364C18.0231 14.364 18.0918 14.3452 18.1553 14.3091C18.2188 14.2731 18.2497 14.2319 18.2514 14.1907C18.2497 14.1495 18.2154 14.1083 18.1467 14.0705L17.8617 13.9057L17.4583 14.1409" fill="currentColor"/>
<path d="M17.6026 13.6146L17.479 13.685L16.9193 13.3622L16.5829 13.5579L17.0944 13.8532L16.9708 13.9253L16.4593 13.6283L16.0885 13.8446L16.6498 14.1674L16.5262 14.2378L15.8327 13.8378L16.9073 13.2129L17.6026 13.6146Z" fill="currentColor"/>
<path d="M16.7065 13.0969L16.6893 13.1072L15.2336 13.4917L15.0962 13.4128L15.7589 12.5699L15.7743 12.5596L15.9151 12.6403L15.3452 13.3475L15.3503 13.3527L16.5657 13.0162L16.7065 13.0969Z" fill="currentColor"/>
<path d="M14.9107 12.0614L13.8361 12.6846L13.7005 12.6073L14.7768 11.9824L14.9107 12.0614Z" fill="currentColor"/>
<mask id="mask1_4017_2635" style="mask-type:alpha" maskUnits="userSpaceOnUse" x="9" y="9" width="14" height="9">
<path d="M21.9059 13.1714C22.1524 13.3132 22.154 13.5428 21.9092 13.6847L16.2619 16.9667C16.0171 17.1085 15.622 17.1085 15.3755 16.9667L9.38715 13.5091C9.14065 13.3673 9.13897 13.1377 9.38377 12.9958L15.0311 9.71378C15.2759 9.57197 15.671 9.57197 15.9175 9.71378L21.9059 13.1714Z" fill="currentColor"/>
</mask>
<g mask="url(#mask1_4017_2635)">
<g opacity="0.5">
<path d="M15.2042 7.92401L15.9474 5.93035L21.4603 20.0672L20.717 22.0609L15.2042 7.92401Z" fill="currentColor"/>
<path d="M16.1008 5.51426L16.5026 4.43655L22.0143 18.5547L21.6125 19.6324L16.1008 5.51426Z" fill="currentColor"/>
</g>
</g>
<path d="M18.3063 9.09369C18.5569 9.2379 18.5586 9.47137 18.3097 9.61557L12.5673 12.9528C12.3184 13.097 11.9167 13.097 11.6661 12.9528L5.57691 9.43703C5.32627 9.29283 5.32456 9.05936 5.57348 8.91515L11.3159 5.57788C11.5648 5.43368 11.9665 5.43368 12.2171 5.57788L18.3063 9.09369Z" fill="currentColor" stroke="currentColor" stroke-width="0.12"/>
<path d="M18.4847 9.42103C18.4847 9.42103 18.4847 9.42618 18.483 9.4279C18.4762 9.4485 18.4659 9.46738 18.4521 9.48627C18.4504 9.4897 18.447 9.49314 18.4453 9.49657C18.4315 9.51545 18.4144 9.53434 18.3955 9.5515C18.3817 9.56352 18.3663 9.57382 18.3508 9.58412C18.3371 9.5927 18.3268 9.603 18.3114 9.61159L12.569 12.9489C12.5312 12.9712 12.4883 12.9883 12.4437 13.0038C12.4282 13.0089 12.411 13.0141 12.3956 13.0192C12.375 13.0244 12.3544 13.0313 12.3321 13.0347C12.3063 13.0398 12.2806 13.045 12.2531 13.0484C12.248 13.0484 12.2411 13.0501 12.2359 13.0501C12.1999 13.0536 12.1638 13.0553 12.1278 13.0553C12.1226 13.0553 12.1175 13.0553 12.1106 13.0553C12.0746 13.0553 12.0402 13.0536 12.0042 13.0501C11.999 13.0501 11.9939 13.0501 11.9887 13.0484C11.9544 13.045 11.9201 13.0381 11.8857 13.0313C11.8789 13.0313 11.8737 13.0278 11.8668 13.0261C11.8359 13.0192 11.8068 13.0089 11.7776 12.9986C11.7724 12.9969 11.7673 12.9952 11.7621 12.9935C11.7278 12.9798 11.6952 12.9643 11.6643 12.9471L5.57684 9.43648C5.45152 9.36438 5.388 9.26825 5.388 9.17383L5.38457 10.5729C5.38457 10.6674 5.44809 10.7635 5.5734 10.8356L11.6626 14.3514C11.6917 14.3686 11.7226 14.3823 11.7553 14.396C11.7553 14.396 11.7587 14.396 11.7604 14.396C11.7656 14.3978 11.7707 14.3995 11.7759 14.4012C11.7947 14.4081 11.8136 14.4149 11.8325 14.4201C11.8428 14.4235 11.8531 14.4252 11.8634 14.4269C11.8703 14.4269 11.8754 14.4304 11.8823 14.4321C11.8874 14.4321 11.8943 14.4355 11.8995 14.4355C11.9201 14.4407 11.9407 14.4441 11.963 14.4458C11.9698 14.4458 11.9784 14.4458 11.9853 14.4475C11.9905 14.4475 11.9956 14.4475 12.0008 14.4493C12.0093 14.4493 12.0162 14.451 12.0248 14.4527C12.0454 14.4544 12.066 14.4561 12.0883 14.4561C12.0952 14.4561 12.1003 14.4561 12.1072 14.4561C12.1123 14.4561 12.1175 14.4561 12.1244 14.4561C12.1347 14.4561 12.1432 14.4561 12.1535 14.4561C12.1776 14.4561 12.1999 14.4544 12.2239 14.451C12.2256 14.451 12.2291 14.451 12.2308 14.451C12.2377 14.451 12.2428 14.4493 12.248 14.4493C12.2668 14.4475 12.2857 14.4441 12.3029 14.4407C12.3115 14.4407 12.3183 14.4372 12.3252 14.4355C12.3475 14.4304 12.3681 14.4252 12.3887 14.4201C12.4007 14.4166 12.411 14.4149 12.4231 14.4115C12.4282 14.4115 12.4316 14.4063 12.4368 14.4046C12.4814 14.3892 12.5243 14.372 12.5621 14.3497L18.3045 11.0124C18.3045 11.0124 18.3096 11.009 18.3131 11.0073C18.3251 11.0004 18.3337 10.9918 18.344 10.9832C18.3594 10.9729 18.3766 10.9609 18.3886 10.9506C18.3886 10.9506 18.392 10.9489 18.392 10.9472C18.4075 10.9335 18.4195 10.9197 18.4315 10.9043C18.435 10.9008 18.4367 10.8974 18.4384 10.894C18.4401 10.8905 18.4435 10.8871 18.4453 10.8837C18.4487 10.8785 18.4538 10.8716 18.4573 10.8665C18.4641 10.8545 18.4693 10.8425 18.4744 10.8304C18.4744 10.8287 18.4744 10.827 18.4744 10.8253C18.4744 10.8236 18.4744 10.8201 18.4762 10.8184C18.4779 10.8098 18.4813 10.803 18.483 10.7944C18.4847 10.7824 18.4865 10.7704 18.4865 10.7583C18.4865 10.7566 18.4865 10.7549 18.4865 10.7532L18.4899 9.35408C18.4899 9.3764 18.4865 9.397 18.4796 9.41932L18.4847 9.42103Z" fill="currentColor" stroke="currentColor" stroke-width="0.12"/>
<path d="M10.442 7.52982C10.5588 7.59677 10.6206 7.66715 10.6309 7.74097C10.6412 7.81651 10.6 7.88003 10.5055 7.93668L10.3682 7.85771C10.4266 7.82166 10.4523 7.77874 10.4472 7.73582C10.4403 7.6929 10.3957 7.64655 10.315 7.6002C10.1605 7.51093 10.0266 7.49892 9.91328 7.56587C9.83259 7.61222 9.84118 7.67917 9.93731 7.76501L10.0523 7.86629C10.2154 8.00878 10.2154 8.12895 10.0523 8.22337C9.95619 8.28002 9.84461 8.30234 9.71757 8.29204C9.59054 8.28173 9.4635 8.24225 9.33818 8.16843C9.21286 8.09461 9.14076 8.01908 9.13218 7.94526C9.12016 7.86973 9.16479 7.80106 9.26608 7.73754L9.40342 7.81651C9.3399 7.85771 9.31243 7.90406 9.32273 7.95213C9.33131 8.0002 9.37766 8.04826 9.46007 8.09633C9.63689 8.19762 9.78624 8.21307 9.91156 8.13925C9.96134 8.11006 9.98195 8.07916 9.97851 8.04311C9.97165 8.00878 9.94418 7.97101 9.89439 7.92466L9.77079 7.81307C9.69697 7.74784 9.65749 7.68604 9.65749 7.6311C9.65749 7.57617 9.69526 7.52467 9.77422 7.48003C9.86521 7.42682 9.96993 7.4045 10.0884 7.41137C10.2068 7.41823 10.3253 7.45772 10.4437 7.52467L10.442 7.52982Z" fill="currentColor"/>
<path d="M11.6488 8.24229L10.6977 8.79507L11.2196 9.09549L11.096 9.1676L10.4402 8.7882L11.5149 8.16504L11.6488 8.24229Z" fill="currentColor"/>
<path d="M14.0486 10.361L13.9113 10.7764L13.8959 10.785L13.7482 10.7009L13.889 10.2906L13.6263 10.1395L13.2023 10.3867L13.0667 10.3095L14.1413 9.68457L14.5688 9.93178C14.677 9.99358 14.7285 10.0588 14.7302 10.1309C14.7302 10.2013 14.6838 10.2631 14.5911 10.318C14.5122 10.3644 14.4263 10.3901 14.3319 10.397C14.2358 10.4039 14.1413 10.3936 14.0486 10.3627V10.361ZM13.7517 10.0657L14.0366 10.2305C14.1053 10.27 14.1757 10.2889 14.2478 10.2889C14.3182 10.2889 14.3868 10.27 14.4504 10.2339C14.5139 10.1979 14.5448 10.1567 14.5465 10.1155C14.5448 10.0743 14.5104 10.0331 14.4418 9.99529L14.1568 9.83049L13.7534 10.0657" fill="currentColor"/>
<path d="M13.8977 9.54038L13.7741 9.61077L13.2144 9.28803L12.8779 9.48373L13.3895 9.779L13.2659 9.8511L12.7543 9.55411L12.3835 9.77042L12.9449 10.0932L12.8213 10.1635L12.1277 9.76355L13.2024 9.13867L13.8977 9.54038Z" fill="currentColor"/>
<path d="M13.0016 9.0217L12.9844 9.032L11.5286 9.41655L11.3913 9.33758L12.054 8.49468L12.0694 8.48438L12.2102 8.56506L11.6402 9.27234L11.6454 9.27749L12.8608 8.94102L13.0016 9.0217Z" fill="currentColor"/>
<path d="M11.2058 7.9862L10.1312 8.60936L9.99554 8.53211L11.0719 7.90723L11.2058 7.9862Z" fill="currentColor"/>
<mask id="mask2_4017_2635" style="mask-type:alpha" maskUnits="userSpaceOnUse" x="5" y="5" width="14" height="8">
<path d="M18.2011 9.09622C18.4475 9.23804 18.4492 9.46765 18.2044 9.60946L12.5571 12.8915C12.3123 13.0333 11.9172 13.0333 11.6707 12.8915L5.68234 9.43388C5.43584 9.29206 5.43416 9.06246 5.67896 8.92064L11.3263 5.63859C11.5711 5.49677 11.9662 5.49677 12.2127 5.63859L18.2011 9.09622Z" fill="currentColor"/>
</mask>
<g mask="url(#mask2_4017_2635)">
<g opacity="0.5">
<path d="M11.4997 3.84882L12.243 1.85516L17.7558 15.992L17.0126 17.9857L11.4997 3.84882Z" fill="currentColor"/>
<path d="M12.3963 1.43907L12.7981 0.361356L18.3098 14.4795L17.908 15.5572L12.3963 1.43907Z" fill="currentColor"/>
</g>
</g>
</g>
<defs>
<clipPath id="clip0_4017_2635">
<rect width="24" height="24" fill="currentColor" transform="matrix(-1 0 0 1 24 0)"/>
</clipPath>
</defs>
</svg>
