<svg width="24" height="24" viewBox="0 0 24 24" fill="none" xmlns="http://www.w3.org/2000/svg">
<g clip-path="url(#clip0_2220_10351)">
<path d="M11.418 13.5072V2.55273M20.2461 14.3073V17.7738H20.244C20.2454 17.7974 20.2461 17.8211 20.2461 17.8449C20.2461 19.5925 16.4416 21.0092 11.7485 21.0092C7.05547 21.0092 3.25098 19.5925 3.25098 17.8449C3.25098 17.8211 3.25168 17.7974 3.25308 17.7738H3.25098V14.3073M11.2901 8.90291C11.6856 7.53376 11.1712 4.78632 5.95018 4.7498C6.11761 6.77311 7.42 10.4364 11.2901 8.90291ZM11.8681 7.20472C11.4726 5.83557 11.987 3.08813 17.208 3.05161C17.0406 5.07492 15.7382 8.73817 11.8681 7.20472ZM20.2461 14.1369C20.2461 15.8845 16.4416 17.3012 11.7485 17.3012C7.05547 17.3012 3.25098 15.8845 3.25098 14.1369C3.25098 12.3893 7.05547 10.9725 11.7485 10.9725C16.4416 10.9725 20.2461 12.3893 20.2461 14.1369Z" stroke="#223466" stroke-width="1.75" stroke-linecap="round" stroke-linejoin="round"/>
</g>
<defs>
<clipPath id="clip0_2220_10351">
<rect width="24" height="24" fill="white"/>
</clipPath>
</defs>
</svg>
