<svg width="24" height="24" viewBox="0 0 24 24" fill="none" xmlns="http://www.w3.org/2000/svg">
<g clip-path="url(#clip0_3396_61319)">
<g filter="url(#filter0_d_3396_61319)">
<g clip-path="url(#clip1_3396_61319)">
<path d="M0 12C0 5.37258 5.37258 0 12 0C18.6274 0 24 5.37258 24 12C24 18.6274 18.6274 24 12 24C5.37258 24 0 18.6274 0 12Z" fill="currentColor"/>
<path fill-rule="evenodd" clip-rule="evenodd" d="M16.073 2.37891C15.7714 4.36106 14.0648 5.88149 11.9984 5.88149C9.93209 5.88149 8.22549 4.36113 7.92387 2.37906V7.92583C8.96664 6.88306 10.4072 6.23809 11.9984 6.23809C13.5896 6.23809 15.0302 6.88306 16.073 7.92583V2.37891ZM16.073 7.92583C17.1157 8.96859 17.7607 10.4092 17.7607 12.0004C17.7607 13.5916 17.1157 15.0321 16.073 16.0749H21.6199C19.6377 15.7734 18.1173 14.0667 18.1173 12.0004C18.1173 9.93404 19.6376 8.22744 21.6197 7.92583H16.073ZM16.073 16.0749C15.0302 17.1177 13.5896 17.7626 11.9984 17.7626C10.4072 17.7626 8.96664 17.1177 7.92387 16.0749V21.6218C8.23832 19.6547 9.9427 18.1515 11.9984 18.1515C14.0541 18.1515 15.7585 19.6547 16.073 21.6218V16.0749ZM7.92387 16.0749C6.88111 15.0321 6.23614 13.5916 6.23614 12.0004C6.23614 10.4092 6.88111 8.96859 7.92387 7.92583H2.37695C4.34409 8.24027 5.84729 9.94465 5.84729 12.0004C5.84729 14.0561 4.34409 15.7605 2.37695 16.0749H7.92387Z" fill="currentColor"/>
<path fill-rule="evenodd" clip-rule="evenodd" d="M9.20117 9.75128C9.20117 9.29753 9.56901 8.92969 10.0228 8.92969C10.4765 8.92969 10.8444 9.29753 10.8444 9.75128C10.8444 10.205 10.4765 10.5729 10.0228 10.5729C9.56901 10.5729 9.20117 10.205 9.20117 9.75128Z" fill="currentColor"/>
<path fill-rule="evenodd" clip-rule="evenodd" d="M13.1543 9.75128C13.1543 9.29753 13.5221 8.92969 13.9759 8.92969C14.4296 8.92969 14.7975 9.29753 14.7975 9.75128C14.7975 10.205 14.4296 10.5729 13.9759 10.5729C13.5221 10.5729 13.1543 10.205 13.1543 9.75128Z" fill="currentColor"/>
<path fill-rule="evenodd" clip-rule="evenodd" d="M9.20117 14.2513C9.20117 13.7975 9.56901 13.4297 10.0228 13.4297C10.4765 13.4297 10.8444 13.7975 10.8444 14.2513C10.8444 14.705 10.4765 15.0729 10.0228 15.0729C9.56901 15.0729 9.20117 14.705 9.20117 14.2513Z" fill="currentColor"/>
<path fill-rule="evenodd" clip-rule="evenodd" d="M13.1543 14.2513C13.1543 13.7975 13.5221 13.4297 13.9759 13.4297C14.4296 13.4297 14.7975 13.7975 14.7975 14.2513C14.7975 14.705 14.4296 15.0729 13.9759 15.0729C13.5221 15.0729 13.1543 14.705 13.1543 14.2513Z" fill="currentColor"/>
<path fill-rule="evenodd" clip-rule="evenodd" d="M11.9984 7.32422L11.1122 11.2223L7.32324 11.9994L11.1122 12.7766L11.9984 16.6746L12.8847 12.7766L16.6736 11.9994L12.8847 11.2223L11.9984 7.32422ZM11.9984 8.52637L12.6568 11.4221L15.4715 11.9994L12.6568 12.5768L11.9984 15.4725L11.3401 12.5768L8.5254 11.9994L11.3401 11.4221L11.9984 8.52637Z" fill="currentColor"/>
</g>
</g>
</g>
<defs>
<filter id="filter0_d_3396_61319" x="-6" y="-5" width="36" height="36" filterUnits="userSpaceOnUse" color-interpolation-filters="sRGB">
<feFlood flood-opacity="0" result="BackgroundImageFix"/>
<feColorMatrix in="SourceAlpha" type="matrix" values="0 0 0 0 0 0 0 0 0 0 0 0 0 0 0 0 0 0 127 0" result="hardAlpha"/>
<feOffset dy="1"/>
<feGaussianBlur stdDeviation="3"/>
<feComposite in2="hardAlpha" operator="out"/>
<feColorMatrix type="matrix" values="0 0 0 0 0 0 0 0 0 0 0 0 0 0 0 0 0 0 0.08 0"/>
<feBlend mode="normal" in2="BackgroundImageFix" result="effect1_dropShadow_3396_61319"/>
<feBlend mode="normal" in="SourceGraphic" in2="effect1_dropShadow_3396_61319" result="shape"/>
</filter>
<clipPath id="clip0_3396_61319">
<rect width="24" height="24" fill="currentColor"/>
</clipPath>
<clipPath id="clip1_3396_61319">
<path d="M0 12C0 5.37258 5.37258 0 12 0C18.6274 0 24 5.37258 24 12C24 18.6274 18.6274 24 12 24C5.37258 24 0 18.6274 0 12Z" fill="currentColor"/>
</clipPath>
</defs>
</svg>
