<svg width="64" height="64" viewBox="0 0 64 64" fill="none" xmlns="http://www.w3.org/2000/svg">
<g clip-path="url(#clip0_3396_56506)">
<g filter="url(#filter0_d_3396_56506)">
<path d="M0 32C0 14.3269 14.3269 0 32 0C49.6731 0 64 14.3269 64 32C64 49.6731 49.6731 64 32 64C14.3269 64 0 49.6731 0 32Z" fill="currentColor"/>
<path d="M24.0459 8.51598C24.7594 7.71752 25.9224 7.62935 26.9311 7.59961C27.7118 7.65448 28.5018 7.69345 29.2617 7.88904C29.5072 7.99429 29.8709 8.08807 29.8825 8.40961C29.6323 8.91983 29.0208 9.05027 28.569 9.32704C26.9022 10.3018 25.195 11.2478 23.7239 12.504C23.7459 11.9354 23.6603 11.3702 23.6904 10.8016C23.7066 10.0386 23.4808 9.1451 24.0459 8.51598Z" fill="currentColor"/>
<path d="M31.3283 9.32856C32.7413 8.54829 34.473 9.04242 35.7389 9.87537C36.076 10.0836 36.3713 10.5526 36.0702 10.9106C35.6533 11.3899 35.0348 11.6555 34.4289 11.8179C30.5626 12.9081 26.9199 14.7465 23.7405 17.1741C23.7347 16.562 23.7323 15.95 23.7416 15.3379C25.9273 12.9493 28.6062 11.072 31.3283 9.32856Z" fill="currentColor"/>
<path d="M37.6786 11.4411C38.4708 11.1551 39.3558 11.4845 39.9846 11.9822C40.4399 12.3357 40.9483 12.6206 41.3768 13.0085C41.6826 13.2899 41.9247 13.7691 41.6572 14.1548C41.2287 14.7645 40.4444 14.9349 39.7692 15.1466C34.1122 16.985 28.5202 19.2844 23.6994 22.7943C23.6589 22.1913 23.6577 21.5861 23.5859 20.9856C26.2001 18.0364 29.5219 15.8055 32.9505 13.8814C34.4968 13.013 36.0917 12.2329 37.6786 11.4411Z" fill="currentColor"/>
<path d="M42.4702 15.2826C43.164 15.0034 44.0617 14.9794 44.6466 15.4999C45.1273 15.9804 45.6369 16.4334 46.1234 16.907C46.4327 17.2594 46.7767 17.7479 46.5693 18.2306C46.3193 18.8163 45.6671 19.0817 45.1099 19.3037C40.3506 20.7429 35.6018 22.2896 31.1193 24.4471C28.5026 25.7033 25.9847 27.1756 23.6902 28.9443C23.6935 28.3975 23.6646 27.8517 23.6553 27.3049C26.0622 24.3568 29.2232 22.1145 32.4905 20.1822C35.6886 18.3073 39.058 16.7354 42.4702 15.2826Z" fill="currentColor"/>
<path d="M46.1159 20.1471C46.6523 19.907 47.2291 19.614 47.8361 19.756C48.5797 19.923 49.0893 20.5545 49.4218 21.194C49.8294 21.9707 50.4967 22.695 50.4665 23.6228C50.4665 24.3137 49.922 24.8594 49.3464 25.1774C48.1499 25.8294 46.7739 26.0159 45.4431 26.2172C37.6654 27.5375 30.1493 30.5438 23.7638 35.144C23.7696 34.5159 23.6909 33.8902 23.6885 33.2632C26.2239 30.5874 29.2469 28.4069 32.4068 26.5079C36.7387 23.9259 41.3764 21.8792 46.1159 20.1471Z" fill="currentColor"/>
<path d="M40.2273 28.8789C40.3026 29.4966 40.262 30.1212 40.3177 30.7413C37.5969 33.6252 34.3085 35.9292 30.8836 37.9268C26.7868 40.2891 22.4386 42.2054 17.9908 43.8265C17.5091 44.0186 17.0376 44.3102 16.4967 44.2783C15.6326 44.3 14.9771 43.5826 14.618 42.877C14.1849 42.0634 13.4794 41.2935 13.542 40.3166C13.5779 39.6211 14.1524 39.1073 14.7326 38.7973C15.8875 38.1968 17.1974 38.0034 18.4717 37.8089C26.276 36.5037 33.8221 33.4938 40.2273 28.8789Z" fill="currentColor"/>
<path d="M32.9065 39.5582C35.5022 38.3046 38.0122 36.8516 40.2859 35.083C40.2778 35.631 40.3612 36.1882 40.3345 36.7281C38.4534 39.0424 36.0745 40.9071 33.5877 42.5487C29.9067 44.9454 25.9233 46.8456 21.8902 48.5846C21.1756 48.9449 20.264 49.0924 19.5436 48.6658C19.1244 48.3135 18.7478 47.913 18.3401 47.5469C18.0123 47.2541 17.6846 46.9417 17.4819 46.5482C17.2919 46.1673 17.3776 45.6822 17.6951 45.3939C18.2406 44.8837 18.9818 44.6675 19.6873 44.4685C24.1871 43.099 28.665 41.5958 32.9065 39.5582Z" fill="currentColor"/>
<path d="M24.5956 48.7554C30.1182 46.9262 35.5828 44.6679 40.2912 41.2256C40.304 41.8308 40.4291 42.436 40.3897 43.04C38.775 44.9047 36.8257 46.463 34.7849 47.8494C32.276 49.5425 29.5993 50.9749 26.8739 52.2916C26.5066 52.5135 26.1001 52.7171 25.6565 52.6954C25.0809 52.6394 24.5133 52.4346 24.0638 52.0697C23.545 51.6554 22.9345 51.3454 22.4887 50.8479C22.1748 50.5332 22.1574 49.9715 22.4991 49.6707C23.0609 49.1193 23.8798 49.0106 24.5956 48.7554Z" fill="currentColor"/>
<path d="M29.4806 52.2223C33.3944 51.1377 37.0731 49.273 40.2919 46.8271C40.2815 47.4358 40.2954 48.0456 40.2815 48.6541C38.4225 50.7202 36.1558 52.3778 33.8508 53.9235C33.2242 54.3055 32.6519 54.8237 31.9118 54.977C31.0154 55.2116 30.061 55.0262 29.2316 54.6521C28.7486 54.4382 28.218 54.2163 27.9053 53.7735C27.6981 53.4932 27.8521 53.1203 28.1011 52.9246C28.4984 52.5907 28.9814 52.3607 29.4806 52.2223Z" fill="currentColor"/>
<path d="M37.6272 53.3949C38.548 52.8115 39.4781 52.2268 40.2947 51.5039C40.2774 52.5323 40.3203 53.5608 40.3375 54.588C40.297 55.3293 39.6808 55.9014 39.0056 56.1347C38.0315 56.4724 36.9762 56.4241 35.9639 56.3327C35.4021 56.2446 34.7917 56.2423 34.3041 55.9175C34.135 55.8339 34.1639 55.6382 34.1582 55.485C34.3215 55.3317 34.4836 55.1715 34.6887 55.0731C35.7022 54.5731 36.6623 53.9783 37.6272 53.3949Z" fill="currentColor"/>
</g>
</g>
<defs>
<filter id="filter0_d_3396_56506" x="-6" y="-5" width="76" height="76" filterUnits="userSpaceOnUse" color-interpolation-filters="sRGB">
<feFlood flood-opacity="0" result="BackgroundImageFix"/>
<feColorMatrix in="SourceAlpha" type="matrix" values="0 0 0 0 0 0 0 0 0 0 0 0 0 0 0 0 0 0 127 0" result="hardAlpha"/>
<feOffset dy="1"/>
<feGaussianBlur stdDeviation="3"/>
<feComposite in2="hardAlpha" operator="out"/>
<feColorMatrix type="matrix" values="0 0 0 0 0 0 0 0 0 0 0 0 0 0 0 0 0 0 0.08 0"/>
<feBlend mode="normal" in2="BackgroundImageFix" result="effect1_dropShadow_3396_56506"/>
<feBlend mode="normal" in="SourceGraphic" in2="effect1_dropShadow_3396_56506" result="shape"/>
</filter>
<clipPath id="clip0_3396_56506">
<rect width="64" height="64" fill="currentColor"/>
</clipPath>
</defs>
</svg>
