<svg width="16" height="16" viewBox="0 0 16 16" fill="none" xmlns="http://www.w3.org/2000/svg">
<g clip-path="url(#clip0_2440_778)">
<g clip-path="url(#clip1_2440_778)">
<g clip-path="url(#clip2_2440_778)">
<path d="M12.333 10.6667C13.6217 10.6667 14.6663 8.72657 14.6663 6.33333C14.6663 3.9401 13.6217 2 12.333 2M12.333 10.6667C11.0443 10.6667 9.99967 8.72657 9.99967 6.33333C9.99967 3.9401 11.0443 2 12.333 2M12.333 10.6667L3.6287 9.08407C3.01038 8.97164 2.70121 8.91543 2.45122 8.79263C1.94265 8.54282 1.56391 8.08901 1.4091 7.54395C1.33301 7.27603 1.33301 6.9618 1.33301 6.33333C1.33301 5.70487 1.33301 5.39063 1.4091 5.12271C1.56391 4.57766 1.94265 4.12385 2.45122 3.87403C2.70121 3.75124 3.01038 3.69502 3.6287 3.5826L12.333 2M3.33301 9.33333L3.59558 13.0093C3.62051 13.3584 3.63298 13.533 3.70892 13.6653C3.77579 13.7817 3.87627 13.8753 3.9972 13.9337C4.13456 14 4.30955 14 4.65953 14H5.84781C6.2479 14 6.44795 14 6.59602 13.9202C6.72612 13.8501 6.82923 13.7387 6.88916 13.6037C6.95736 13.4499 6.94202 13.2504 6.91133 12.8515L6.66634 9.66667" stroke="currentColor" stroke-width="1.25" stroke-linecap="round" stroke-linejoin="round"/>
</g>
</g>
</g>
<defs>
<clipPath id="clip0_2440_778">
<rect width="16" height="16" fill="currentColor"/>
</clipPath>
<clipPath id="clip1_2440_778">
<rect width="16" height="16" fill="currentColor"/>
</clipPath>
<clipPath id="clip2_2440_778">
<rect width="16" height="16" fill="currentColor"/>
</clipPath>
</defs>
</svg>
