<svg width="24" height="24" viewBox="0 0 24 24" fill="none" xmlns="http://www.w3.org/2000/svg">
<g clip-path="url(#clip0_6027_4400)">
<ellipse cx="12.0196" cy="8.5233" rx="3.04698" ry="1.72887" fill="currentColor"/>
<path d="M18.2511 16.8432C18.2687 17.0014 18.295 17.2124 18.3038 17.3706C18.3126 17.5464 18.3214 17.7925 18.3038 17.9419C18.2863 18.1968 18.2511 18.5396 18.1984 18.7857C18.1632 18.979 18.0929 19.2515 18.0138 19.4361C17.961 19.5503 17.9083 19.6997 17.8556 19.8052C17.7765 19.9546 17.671 20.1568 17.5831 20.2974C17.3722 20.6402 17.1173 20.9127 17.0382 21.0006C16.9239 21.1236 16.713 21.3258 16.4053 21.5631C16.1329 21.774 15.834 21.9498 15.7022 22.0201C15.3242 22.2223 15.0781 22.319 14.9727 22.3629C14.8672 22.4069 14.7266 22.4596 14.6123 22.4948C14.498 22.5299 14.3574 22.5826 14.2432 22.609C14.1377 22.6442 13.9883 22.6793 13.874 22.7057C13.3994 22.8112 12.8984 22.8727 12.3974 22.8903C11.6767 22.9166 11.0878 22.8375 10.9208 22.8112C10.7362 22.776 10.4901 22.7409 10.1737 22.6618C9.89244 22.5914 9.70786 22.5387 9.4266 22.4332C9.30355 22.3893 9.14534 22.3278 9.03108 22.275C8.91682 22.2311 8.77619 22.1608 8.67072 22.108C8.5213 22.0289 8.32793 21.9234 8.1873 21.8268C7.98515 21.6949 7.73026 21.5016 7.54568 21.3521C7.42263 21.2555 7.27321 21.106 7.16774 20.9918C7.04469 20.8599 6.88648 20.6841 6.7898 20.5347C6.65796 20.3414 6.49096 20.0689 6.38549 19.858C6.28881 19.6646 6.19213 19.3921 6.12181 19.1812C6.06908 19.0405 6.02513 18.8296 5.99876 18.6802C5.95481 18.4253 5.93723 18.0825 5.91966 17.8276C5.91087 17.687 5.91966 17.5112 5.92845 17.3794C5.93724 17.1508 5.98118 16.852 6.01634 16.6235C6.04271 16.4741 6.08665 16.2719 6.12181 16.1225C6.17455 15.9115 6.26244 15.6303 6.33275 15.4281C6.38549 15.2875 6.4646 15.1117 6.51733 14.9711C6.59644 14.7865 6.72828 14.5404 6.82496 14.3558C6.89527 14.2328 6.99196 14.0746 7.07106 13.9515C7.17653 13.7845 7.33474 13.5736 7.449 13.4154C7.52811 13.3099 7.64237 13.1693 7.73026 13.0638C7.85331 12.9144 8.02031 12.7386 8.15215 12.6068C8.2752 12.4837 8.45099 12.3167 8.58283 12.2024C8.82893 11.9827 9.19808 11.7015 9.40902 11.5696C9.57602 11.4641 9.80454 11.3147 9.98033 11.218C10.0946 11.1565 10.2528 11.0686 10.3758 11.0159C10.6044 10.9104 10.7098 10.8577 10.9559 10.7698C11.1845 10.6907 11.3339 10.6467 11.5009 10.6028C11.8788 10.5061 12.3183 10.5061 12.705 10.6028C12.9951 10.6731 13.2939 10.7786 13.584 10.9016C13.6982 10.9456 13.8476 11.0159 13.9531 11.0686C14.3193 11.2721 14.6861 11.4722 15.0254 11.719C15.166 11.8157 15.333 11.9476 15.4649 12.053C15.5967 12.1585 15.7725 12.3167 15.8956 12.431L16.1944 12.7298C16.3262 12.8616 16.4844 13.055 16.6075 13.1956C16.6954 13.3011 16.8096 13.4505 16.8887 13.556C17.0118 13.7142 17.1612 13.9339 17.2579 14.1097C17.3282 14.2328 17.4337 14.391 17.4952 14.5228C17.5919 14.7074 17.7149 14.9623 17.794 15.1557C17.9171 15.4369 18.0314 15.8237 18.1105 16.1137C18.1632 16.3246 18.2247 16.6235 18.2511 16.8432Z" fill="currentColor" stroke="currentColor" stroke-width="0.075" stroke-linecap="round" stroke-linejoin="round"/>
<path d="M12.3122 22.8823C12.8083 22.8649 13.3043 22.804 13.7743 22.6996C13.8874 22.6735 14.0354 22.6386 14.1398 22.6038C14.253 22.5777 14.3922 22.5255 14.5053 22.4907C14.6185 22.4559 14.7577 22.4037 14.8622 22.3601C14.9666 22.3166 15.2103 22.2209 15.5845 22.0207C15.7151 21.9511 16.011 21.777 16.2808 21.5682C16.5854 21.3332 16.7942 21.133 16.9074 21.0112C16.9857 20.9241 17.2381 20.6544 17.447 20.3236C13.783 23.2566 10.6064 21.9859 9.32704 20.3585C7.56903 18.1218 9.56203 12.9783 10.9371 12.5344C12.7473 12.9696 14.1833 12.0645 13.4958 11.2899C13.374 11.1507 13.2173 10.9853 13.0258 10.8025C12.8866 10.759 12.7473 10.7155 12.6081 10.6807C12.2252 10.585 11.79 10.585 11.4158 10.6807C11.2504 10.7242 11.1025 10.7677 10.8762 10.846C10.6325 10.9331 10.5281 10.9853 10.3018 11.0897C10.1799 11.1419 10.0233 11.229 9.91015 11.2899C9.73609 11.3856 9.50981 11.5336 9.34445 11.638C9.13558 11.7686 8.77005 12.0471 8.52637 12.2646C8.39582 12.3778 8.22176 12.5431 8.09992 12.665C7.96937 12.7955 7.80401 12.9696 7.68217 13.1175C7.59514 13.222 7.482 13.3612 7.40367 13.4657C7.29054 13.6223 7.13388 13.8312 7.02944 13.9965C6.95112 14.1184 6.85538 14.275 6.78576 14.3969C6.69003 14.5796 6.55948 14.8233 6.48115 15.0061C6.42894 15.1453 6.35061 15.3194 6.29839 15.4586C6.22877 15.6588 6.14174 15.9373 6.08952 16.1462C6.0547 16.2941 6.01119 16.4943 5.98508 16.6423C5.95027 16.8685 5.90675 17.1644 5.89805 17.3907C5.88935 17.5213 5.88064 17.6953 5.88935 17.8346C5.90675 18.087 5.92416 18.4264 5.96768 18.6788C5.99378 18.8267 6.0373 19.0356 6.08952 19.1748C6.15914 19.3837 6.25487 19.6535 6.35061 19.845C6.45504 20.0538 6.6204 20.3236 6.75095 20.5151C6.84668 20.6631 7.00334 20.8371 7.12518 20.9677C7.22961 21.0808 7.37757 21.2288 7.49941 21.3245C7.68217 21.4724 7.93456 21.6639 8.13473 21.7945C8.27398 21.8902 8.46544 21.9946 8.6134 22.0729C8.71783 22.1252 8.85708 22.1948 8.97022 22.2383C9.08336 22.2905 9.24001 22.3514 9.36186 22.395C9.64035 22.4994 9.82312 22.5516 10.1016 22.6212C10.4149 22.6996 10.6586 22.7344 10.8414 22.7692C11.0154 22.8301 11.6072 22.9084 12.3122 22.8823Z" fill="currentColor" stroke="currentColor" stroke-width="0.075" stroke-linecap="round" stroke-linejoin="round"/>
<path d="M14.6906 15.0647L14.7589 15.4063L13.6532 15.5824C13.8789 15.7076 14.0648 15.9115 14.1668 16.2184L14.8977 16.1014L14.966 16.4431L14.2419 16.5588C14.3133 17.266 13.8564 17.7961 13.0053 17.9592C13.6366 18.4288 14.3444 19.034 15.0465 19.6463L14.4035 19.7495C13.7544 19.1911 13.148 18.6761 12.3817 18.0937L12.2988 17.6708L12.667 17.6129C13.3911 17.4971 13.7192 17.1293 13.6732 16.6507L12.1455 16.8945L12.0772 16.5529L13.5847 16.3127C13.4122 15.9326 13.0186 15.7905 12.4344 15.8832L11.9583 15.9585L11.8701 15.5161L14.6906 15.0647Z" fill="currentColor" stroke="currentColor" stroke-width="0.075" stroke-miterlimit="10"/>
<path d="M10.3194 11.0772C10.0821 10.8663 9.86234 10.6202 9.80081 10.5411C9.26466 9.91702 8.95703 9.29298 8.86914 9.11719C9.00977 9.40724 9.27345 9.68849 9.66018 9.91702C10.9083 10.6729 12.9738 10.6905 14.2834 9.96096C14.7228 9.71486 15.0217 9.41603 15.1711 9.09082C14.9777 9.49513 14.7492 9.83791 14.6877 9.9346C14.5207 10.1807 14.4504 10.2686 14.3361 10.418C14.2482 10.5235 14.1076 10.6905 14.0461 10.752C13.8527 10.9542 13.3341 11.4903 12.6398 11.7452C12.2706 11.877 11.8048 11.877 11.4356 11.7452C11.0135 11.581 10.6649 11.3734 10.3194 11.0772Z" fill="currentColor" stroke="currentColor" stroke-width="0.075" stroke-linecap="round" stroke-linejoin="round"/>
<path d="M9.85271 7.19533C10.0724 7.07228 10.3713 6.92286 10.9162 6.79981C11.2766 6.72071 11.6897 6.67676 12.094 6.67676C12.6565 6.68555 13.096 6.78223 13.2542 6.81739C13.3245 6.83497 13.4124 6.86133 13.4827 6.87891C13.6058 6.92286 13.7727 6.9756 13.8958 7.02833C13.9134 7.03712 14.0804 7.10744 14.3089 7.23928C14.2737 7.2217 14.2298 7.21291 14.1683 7.24806C13.0344 6.57129 11.1711 6.54492 9.99333 7.20412C8.81556 7.86332 8.78041 8.94441 9.90544 9.62119C11.0393 10.298 12.9026 10.3243 14.0804 9.66513C15.2581 9.00593 15.2933 7.92484 14.1683 7.24806C14.2298 7.21291 14.2737 7.2217 14.3089 7.23928C14.3528 7.26564 14.4056 7.3008 14.4495 7.32717C14.5286 7.37991 14.6253 7.45901 14.7044 7.52053C14.7747 7.58206 14.8626 7.66995 14.9154 7.74027C14.9329 7.76664 15.1263 7.97758 15.2318 8.26763C15.4691 8.89167 15.1527 9.56845 14.3001 10.0431C12.9993 10.7726 10.9338 10.7462 9.67692 9.99913C8.89467 9.53329 8.6222 8.88288 8.84193 8.294C8.92983 8.07426 9.05288 7.87211 9.22866 7.67874C9.46597 7.41506 9.76481 7.24807 9.85271 7.19533Z" fill="currentColor"/>
<path d="M14.3089 7.23928C14.0804 7.10744 13.9134 7.03712 13.8958 7.02833C13.7727 6.9756 13.6058 6.92286 13.4827 6.87891C13.4124 6.86133 13.3245 6.83497 13.2542 6.81739C13.096 6.78223 12.6565 6.68555 12.094 6.67676C11.6897 6.67676 11.2766 6.72071 10.9162 6.79981C10.3713 6.92286 10.0724 7.07228 9.85271 7.19533C9.76481 7.24807 9.46597 7.41506 9.22866 7.67874C9.05288 7.87211 8.92983 8.07426 8.84193 8.294C8.6222 8.88288 8.89467 9.53329 9.67692 9.99913C10.9338 10.7462 12.9993 10.7726 14.3001 10.0431C15.1527 9.56845 15.4691 8.89167 15.2318 8.26763C15.1263 7.97758 14.9329 7.76664 14.9154 7.74027C14.8626 7.66995 14.7747 7.58206 14.7044 7.52053C14.6253 7.45901 14.5286 7.37991 14.4495 7.32717C14.4056 7.3008 14.3528 7.26564 14.3089 7.23928ZM14.3089 7.23928C14.2737 7.2217 14.2298 7.21291 14.1683 7.24806M14.1683 7.24806C13.0344 6.57129 11.1711 6.54492 9.99333 7.20412C8.81556 7.86332 8.78041 8.94441 9.90544 9.62119C11.0393 10.298 12.9026 10.3243 14.0804 9.66513C15.2581 9.00593 15.2933 7.92484 14.1683 7.24806Z" stroke="currentColor" stroke-width="0.075" stroke-linecap="round" stroke-linejoin="round"/>
<mask id="mask0_6027_4400" style="mask-type:luminance" maskUnits="userSpaceOnUse" x="12" y="3" width="4" height="5">
<path d="M12.6367 7.05205L12.0877 6.51403C13.0664 5.50817 14.0398 4.50748 15.0352 3.48446L15.5842 4.02248C14.5888 5.0455 13.6153 6.0462 12.6367 7.05205Z" fill="currentColor" stroke="currentColor" stroke-width="0.075"/>
</mask>
<g mask="url(#mask0_6027_4400)">
<path d="M12.6367 7.05254L12.0877 6.51452C13.0664 5.50866 14.0398 4.50797 15.0352 3.48495L15.5842 4.02297C14.5888 5.04599 13.6153 6.04668 12.6367 7.05254Z" fill="currentColor" stroke="currentColor" stroke-width="0.075"/>
</g>
<mask id="mask1_6027_4400" style="mask-type:luminance" maskUnits="userSpaceOnUse" x="14" y="2" width="4" height="2">
<path d="M14.9005 3.42886L14.3515 2.89084C15.2838 2.62841 16.1323 2.38943 16.9934 2.14653L17.5424 2.68456C16.6814 2.92684 15.8321 3.16628 14.9005 3.42886Z" fill="currentColor" stroke="currentColor" stroke-width="0.075"/>
</mask>
<g mask="url(#mask1_6027_4400)">
<path d="M14.9005 3.42886L14.3515 2.89084C15.2838 2.62841 16.1323 2.38943 16.9934 2.14653L17.5424 2.68456C16.6814 2.92684 15.8321 3.16628 14.9005 3.42886Z" fill="currentColor" stroke="currentColor" stroke-width="0.075"/>
</g>
<mask id="mask2_6027_4400" style="mask-type:luminance" maskUnits="userSpaceOnUse" x="10" y="5" width="3" height="3">
<path d="M11.5377 6.11029L10.9888 5.57227C11.3681 5.89715 11.7362 6.21268 12.0883 6.51442L12.6372 7.05244C12.2851 6.7507 11.917 6.43517 11.5377 6.11029Z" fill="currentColor" stroke="currentColor" stroke-width="0.075"/>
</mask>
<g mask="url(#mask2_6027_4400)">
<path d="M11.5377 6.11029L10.9888 5.57227C11.3681 5.89715 11.7362 6.21268 12.0883 6.51442L12.6372 7.05244C12.2851 6.7507 11.917 6.43517 11.5377 6.11029Z" fill="currentColor" stroke="currentColor" stroke-width="0.075"/>
</g>
<mask id="mask3_6027_4400" style="mask-type:luminance" maskUnits="userSpaceOnUse" x="5" y="5" width="7" height="7">
<path d="M6.45099 10.9747L5.90206 10.4366C7.60328 8.8094 9.28582 7.19948 10.9872 5.57163L11.5361 6.10965C9.83476 7.7375 8.15222 9.34743 6.45099 10.9747Z" fill="currentColor" stroke="currentColor" stroke-width="0.075"/>
</mask>
<g mask="url(#mask3_6027_4400)">
<path d="M6.45051 10.9747L5.90157 10.4366C7.60279 8.8094 9.28533 7.19948 10.9867 5.57163L11.5356 6.10965C9.83427 7.7375 8.15173 9.34743 6.45051 10.9747Z" fill="currentColor" stroke="currentColor" stroke-width="0.075"/>
</g>
<mask id="mask4_6027_4400" style="mask-type:luminance" maskUnits="userSpaceOnUse" x="5" y="10" width="3" height="2">
<path d="M6.98302 11.6053L6.43409 11.0673C6.25516 10.855 6.08504 10.6515 5.90186 10.4355L6.45079 10.9736C6.63382 11.1901 6.8041 11.393 6.98302 11.6053Z" fill="currentColor" stroke="currentColor" stroke-width="0.075"/>
</mask>
<g mask="url(#mask4_6027_4400)">
<path d="M6.98254 11.6053L6.4336 11.0673C6.25467 10.855 6.08455 10.6515 5.90137 10.4355L6.4503 10.9736C6.63333 11.1901 6.80361 11.393 6.98254 11.6053Z" fill="currentColor" stroke="currentColor" stroke-width="0.075"/>
</g>
<path d="M17.5429 2.68487C17.3285 3.53802 17.1156 4.38508 16.8898 5.28271C16.67 5.03993 16.4719 4.82148 16.2651 4.5937C14.9152 5.98265 13.6211 7.31509 12.3201 8.65483C11.9114 8.30497 11.5283 7.97717 11.133 7.6385C9.74998 8.96128 8.37658 10.2742 6.98311 11.6073C6.80403 11.3956 6.6333 11.1919 6.45088 10.9755C8.1521 9.3483 9.83464 7.73837 11.536 6.11052C11.9153 6.43541 12.2834 6.75094 12.6355 7.05268C13.6142 6.04682 14.5876 5.04612 15.583 4.0231C15.388 3.85347 15.1648 3.65978 14.9009 3.42978C15.8331 3.16735 16.6816 2.92837 17.5428 2.68548L17.5429 2.68487Z" fill="currentColor" stroke="currentColor" stroke-width="0.075"/>
<circle cx="20.925" cy="3.3" r="1.8" fill="currentColor"/>
<circle cx="20.627" cy="17.8481" r="2.84477" fill="currentColor" stroke="currentColor" stroke-width="0.310458"/>
<path d="M20.5013 16.3956C20.4831 16.3957 20.4649 16.3966 20.4468 16.3982C20.4402 16.3988 20.4336 16.3994 20.4271 16.4002C20.4194 16.4011 20.4117 16.402 20.404 16.4031L20.3932 16.4049C20.065 16.4592 19.8147 16.7441 19.8147 17.0877C19.8147 17.3334 19.9428 17.549 20.1357 17.6718C20.1383 17.6739 20.1412 17.6759 20.1443 17.6778L20.1448 17.678L20.0995 17.6924C20.0304 17.7159 19.9636 17.7455 19.8998 17.7807L19.8525 17.8081C19.8477 17.811 19.843 17.8141 19.8382 17.8171C19.8016 17.84 19.7662 17.8648 19.7322 17.8914L19.7273 17.8952C19.4356 18.1256 19.2483 18.4823 19.2483 18.8829C19.2483 18.9371 19.2518 18.9911 19.2587 19.0448H21.7642V18.8835C21.7642 18.3141 21.3859 17.833 20.8669 17.6778C21.0654 17.5563 21.1978 17.3375 21.1978 17.0877C21.1978 16.7215 20.9133 16.4219 20.5533 16.3973C20.5488 16.397 20.5442 16.3966 20.5396 16.3964C20.5285 16.3958 20.5174 16.3955 20.5062 16.3955L20.5013 16.3956ZM20.5056 17.7823C21.1138 17.7823 21.6068 18.2753 21.6068 18.8835C21.6068 18.8848 21.6067 18.8861 21.6067 18.8874H19.4044C19.4044 18.8861 19.4043 18.8848 19.4043 18.8835C19.4043 18.2753 19.8974 17.7823 20.5056 17.7823ZM20.5056 16.5528C20.801 16.5528 21.0405 16.7923 21.0405 17.0877C21.0405 17.3831 20.801 17.6226 20.5056 17.6226C20.2102 17.6226 19.9707 17.3831 19.9707 17.0877C19.9707 16.7923 20.2102 16.5528 20.5056 16.5528Z" fill="currentColor" stroke="currentColor" stroke-width="0.0204708"/>
<path d="M19.6276 16.6343C19.3149 16.6343 19.0613 16.8878 19.0613 17.2006C19.0613 17.395 19.1592 17.5665 19.3085 17.6684C18.9091 17.8007 18.6207 18.1764 18.619 18.62H18.6189V18.7773H19.0948C19.0986 18.7245 19.1055 18.672 19.1153 18.62H18.7684C18.7705 18.1482 19.1535 17.7665 19.6257 17.7665L19.6151 17.7666L19.6273 17.767C19.6296 17.767 19.6319 17.7669 19.6341 17.7668L19.6409 17.7666C19.7099 17.7132 19.7837 17.6663 19.8613 17.6265C19.8444 17.6067 19.8284 17.5862 19.8133 17.565C19.7559 17.5944 19.6922 17.6097 19.6277 17.6097C19.4018 17.6097 19.2186 17.4265 19.2186 17.2006C19.2186 16.9747 19.4018 16.7916 19.6277 16.7916C19.653 16.7917 19.6784 16.7941 19.7033 16.7989C19.7207 16.7481 19.7429 16.6991 19.7697 16.6526C19.7473 16.6467 19.7245 16.6423 19.7016 16.6392L19.6982 16.6388C19.6883 16.6376 19.6783 16.6366 19.6682 16.6359C19.6662 16.6357 19.6641 16.6355 19.6621 16.6354C19.6507 16.6347 19.6392 16.6343 19.6276 16.6343Z" fill="currentColor" stroke="currentColor" stroke-width="0.0204708"/>
<path d="M21.3464 16.6338C21.659 16.6338 21.9124 16.8874 21.9124 17.2001C21.9124 17.3945 21.8145 17.566 21.6654 17.6679C22.0645 17.8002 22.3528 18.176 22.3545 18.6195H22.3546V18.7768H21.879C21.8751 18.724 21.8682 18.6715 21.8585 18.6195H22.2052C22.203 18.1478 21.8203 17.766 21.3483 17.766L21.3589 17.7662L21.3467 17.7665C21.3444 17.7665 21.3421 17.7664 21.3399 17.7663L21.3331 17.7661C21.2641 17.7127 21.1904 17.6658 21.1128 17.626C21.1297 17.6062 21.1457 17.5857 21.1608 17.5645C21.2182 17.5939 21.2818 17.6092 21.3463 17.6092C21.5721 17.6092 21.7552 17.426 21.7552 17.2001C21.7552 16.9742 21.5721 16.7911 21.3463 16.7911C21.321 16.7912 21.2957 16.7936 21.2708 16.7984C21.2533 16.7476 21.2311 16.6986 21.2044 16.6521C21.2268 16.6463 21.2495 16.6418 21.2725 16.6388L21.2759 16.6383C21.2857 16.6371 21.2957 16.6361 21.3058 16.6354C21.3078 16.6353 21.3099 16.635 21.312 16.6349C21.3233 16.6342 21.3348 16.6338 21.3464 16.6338Z" fill="currentColor" stroke="currentColor" stroke-width="0.0204708"/>
</g>
<defs>
<clipPath id="clip0_6027_4400">
<rect width="24" height="24" fill="currentColor"/>
</clipPath>
</defs>
</svg>
