<svg width="32" height="32" viewBox="0 0 32 32" fill="none" xmlns="http://www.w3.org/2000/svg">
<g clip-path="url(#clip0_4017_3005)">
<ellipse cx="14.8486" cy="5.49707" rx="5.10996" ry="2.89941" fill="currentColor"/>
<path d="M25.2988 19.45C25.3282 19.7153 25.3725 20.0691 25.3872 20.3344C25.4019 20.6292 25.4167 21.0419 25.3872 21.2925C25.3577 21.72 25.2988 22.2948 25.2103 22.7076C25.1514 23.0318 25.0334 23.4888 24.9008 23.7983C24.8123 23.99 24.7239 24.2405 24.6354 24.4174C24.5028 24.668 24.3259 25.007 24.1785 25.2429C23.8247 25.8177 23.3973 26.2747 23.2646 26.4221C23.073 26.6285 22.7192 26.9675 22.2033 27.3655C21.7464 27.7192 21.2452 28.014 21.0241 28.132C20.3903 28.471 19.9775 28.6331 19.8007 28.7068C19.6238 28.7805 19.3879 28.869 19.1963 28.9279C19.0047 28.9869 18.7688 29.0753 18.5772 29.1196C18.4003 29.1785 18.1497 29.2375 17.9581 29.2817C17.1622 29.4586 16.322 29.5618 15.4818 29.5912C14.2731 29.6355 13.2855 29.5028 13.0054 29.4586C12.6959 29.3996 12.2831 29.3407 11.7525 29.208C11.2808 29.0901 10.9713 29.0016 10.4996 28.8247C10.2932 28.751 10.0279 28.6479 9.83626 28.5594C9.64466 28.4857 9.40884 28.3678 9.23197 28.2794L9.23191 28.2794C8.98132 28.1467 8.65704 27.9698 8.42119 27.8077C8.08217 27.5866 7.6547 27.2623 7.34516 27.0117C7.13879 26.8496 6.88821 26.599 6.71133 26.4074C6.50496 26.1862 6.23964 25.8914 6.0775 25.6409C5.8564 25.3166 5.57633 24.8596 5.39945 24.5059C5.2373 24.1816 5.07516 23.7246 4.95724 23.3709C4.8688 23.135 4.7951 22.7813 4.75088 22.5307C4.67718 22.1032 4.64769 21.5283 4.61821 21.1009C4.60347 20.865 4.61822 20.5702 4.63296 20.3491C4.6477 19.9659 4.7214 19.4647 4.78036 19.0815C4.82458 18.8309 4.89828 18.4918 4.95724 18.2413C5.04568 17.8875 5.19308 17.4158 5.311 17.0768C5.39945 16.8409 5.53211 16.5461 5.62055 16.3103C5.75321 16.0007 5.97432 15.588 6.13646 15.2785C6.25438 15.0721 6.41652 14.8068 6.54919 14.6004C6.72607 14.3204 6.99139 13.9666 7.18302 13.7013C7.31568 13.5244 7.5073 13.2885 7.6547 13.1117C7.86107 12.8611 8.14113 12.5663 8.36223 12.3452C8.5686 12.1388 8.8634 11.8587 9.0845 11.6671C9.49723 11.2986 10.1163 10.8269 10.4701 10.6058C10.7501 10.4289 11.1334 10.1784 11.4282 10.0162C11.6198 9.91303 11.8851 9.76563 12.0915 9.67719C12.4748 9.50031 12.6516 9.41186 13.0644 9.26446C13.4476 9.1318 13.6982 9.0581 13.9783 8.9844C14.6121 8.82226 15.3491 8.82226 15.9977 8.9844C16.4841 9.10232 16.9853 9.2792 17.4717 9.48557C17.6633 9.55927 17.9139 9.67719 18.0908 9.76563C18.7049 10.1068 19.32 10.4425 19.8891 10.8564C20.1249 11.0186 20.405 11.2397 20.6261 11.4165C20.8472 11.5934 21.142 11.8587 21.3484 12.0504L21.8495 12.5515C22.0706 12.7726 22.336 13.0969 22.5423 13.3328C22.6897 13.5096 22.8814 13.7602 23.014 13.9371C23.2204 14.2024 23.471 14.5709 23.6331 14.8658C23.751 15.0721 23.9279 15.3374 24.0311 15.5585C24.1932 15.8681 24.3996 16.2956 24.5323 16.6198C24.7386 17.0915 24.9303 17.7401 25.0629 18.2265C25.1514 18.5803 25.2545 19.0815 25.2988 19.45Z" fill="currentColor" stroke="currentColor" stroke-width="0.16" stroke-linecap="round" stroke-linejoin="round"/>
<path d="M15.34 29.5774C16.172 29.5482 17.0039 29.4461 17.7921 29.2709C17.9818 29.2271 18.2299 29.1687 18.4051 29.1104C18.5948 29.0666 18.8283 28.979 19.0181 28.9206C19.2078 28.8622 19.4414 28.7747 19.6165 28.7017C19.7916 28.6287 20.2003 28.4682 20.8279 28.1325C21.0469 28.0157 21.5431 27.7238 21.9956 27.3735C22.5064 26.9794 22.8567 26.6437 23.0464 26.4394C23.1778 26.2934 23.6011 25.841 23.9514 25.2864C17.8067 30.205 12.4793 28.0741 10.3338 25.3447C7.38548 21.5937 10.7278 12.9678 13.0339 12.2234C16.0698 12.9532 18.478 11.4352 17.325 10.1362C17.1207 9.90271 16.858 9.62539 16.5368 9.31889C16.3033 9.24591 16.0698 9.17294 15.8363 9.11455C15.1941 8.954 14.4643 8.954 13.8367 9.11455C13.5594 9.18753 13.3112 9.26051 12.9318 9.39187C12.5231 9.53782 12.3479 9.62539 11.9685 9.80054C11.7641 9.88811 11.5014 10.0341 11.3117 10.1362C11.0198 10.2968 10.6403 10.5449 10.363 10.7201C10.0127 10.939 9.39965 11.406 8.99098 11.7709C8.77205 11.9607 8.48014 12.238 8.2758 12.4423C8.05687 12.6613 7.77956 12.9532 7.57522 13.2013C7.42926 13.3764 7.23952 13.61 7.10816 13.7851C6.91842 14.0478 6.6557 14.3981 6.48056 14.6754C6.3492 14.8798 6.18865 15.1425 6.07188 15.3468C5.91133 15.6533 5.6924 16.062 5.56104 16.3685C5.47347 16.602 5.34211 16.8939 5.25454 17.1275C5.13777 17.4632 4.99182 17.9302 4.90424 18.2805C4.84586 18.5286 4.77288 18.8643 4.7291 19.1125C4.67071 19.4919 4.59774 19.9882 4.58314 20.3677C4.56855 20.5866 4.55395 20.8785 4.56855 21.112C4.59774 21.5353 4.62693 22.1045 4.69991 22.5278C4.74369 22.7759 4.81667 23.1262 4.90424 23.3597C5.02101 23.71 5.18156 24.1625 5.34211 24.4836C5.51725 24.8339 5.79457 25.2863 6.0135 25.6074C6.17405 25.8556 6.43677 26.1475 6.64111 26.3664C6.81625 26.5562 7.06437 26.8043 7.26871 26.9648C7.57522 27.213 7.99849 27.5341 8.33418 27.753C8.56771 27.9135 8.88881 28.0887 9.13694 28.22C9.31208 28.3076 9.54561 28.4244 9.73535 28.4974C9.92509 28.5849 10.1878 28.6871 10.3921 28.7601C10.8592 28.9352 11.1657 29.0228 11.6328 29.1396C12.1582 29.2709 12.5669 29.3293 12.8734 29.3877C13.1653 29.4899 14.1578 29.6212 15.34 29.5774Z" fill="currentColor" stroke="currentColor" stroke-width="0.16" stroke-linecap="round" stroke-linejoin="round"/>
<path d="M19.3298 16.4676L19.4443 17.0405L17.59 17.3358C17.9684 17.5457 18.2802 17.8877 18.4513 18.4024L19.677 18.2062L19.7916 18.7791L18.5772 18.9733C18.697 20.1593 17.9307 21.0483 16.5033 21.3218C17.5621 22.1093 18.7491 23.1243 19.9266 24.1512L18.8482 24.3243C17.7597 23.3877 16.7426 22.5241 15.4576 21.5474L15.3186 20.8382L15.936 20.741C17.1504 20.5469 17.7007 19.93 17.6235 19.1274L15.0614 19.5362L14.9469 18.9633L17.4751 18.5606C17.1858 17.923 16.5257 17.6848 15.546 17.8402L14.7474 17.9665L14.5996 17.2246L19.3298 16.4676Z" fill="currentColor" stroke="currentColor" stroke-width="0.16" stroke-miterlimit="10"/>
<path d="M11.9965 9.781C11.5985 9.42723 11.23 9.01451 11.1268 8.88184C10.2277 7.83529 9.71175 6.78873 9.56435 6.49393C9.80019 6.98036 10.2424 7.45204 10.891 7.83529C12.9841 9.10295 16.448 9.13243 18.6443 7.90899C19.3813 7.49626 19.8825 6.9951 20.1331 6.44971C19.8088 7.12776 19.4256 7.70263 19.3224 7.86477C19.0423 8.2775 18.9244 8.4249 18.7328 8.67548C18.5854 8.85237 18.3495 9.13243 18.2463 9.23561C17.9221 9.57464 17.0524 10.4738 15.8879 10.9013C15.2688 11.1224 14.4876 11.1224 13.8685 10.9013C13.1605 10.6259 12.576 10.2777 11.9965 9.781Z" fill="currentColor" stroke="currentColor" stroke-width="0.16" stroke-linecap="round" stroke-linejoin="round"/>
<path d="M11.215 3.26958C11.5835 3.06321 12.0847 2.81263 12.9986 2.60627C13.6029 2.4736 14.2957 2.3999 14.9738 2.3999C15.9171 2.41464 16.6541 2.57679 16.9195 2.63575C17.0374 2.66523 17.1848 2.70945 17.3027 2.73893C17.5091 2.81263 17.7892 2.90107 17.9955 2.98951C18.025 3.00425 18.3051 3.12217 18.6883 3.34328C18.6293 3.3138 18.5556 3.29906 18.4525 3.35802C16.551 2.22302 13.426 2.1788 11.4508 3.28432C9.47566 4.38983 9.4167 6.20288 11.3034 7.33788C13.2049 8.47288 16.3299 8.5171 18.3051 7.41158C20.2802 6.30606 20.3392 4.49302 18.4525 3.35802C18.5556 3.29906 18.6293 3.3138 18.6883 3.34328C18.762 3.3875 18.8504 3.44646 18.9241 3.49068C19.0568 3.57912 19.2189 3.71178 19.3516 3.81497C19.4695 3.91815 19.6169 4.06555 19.7054 4.18347C19.7349 4.22769 20.0591 4.58146 20.236 5.06788C20.634 6.11444 20.1034 7.24944 18.6736 8.04541C16.492 9.26885 13.0281 9.22463 10.9202 7.97171C9.60832 7.19048 9.15137 6.0997 9.51988 5.11211C9.66728 4.7436 9.87364 4.40458 10.1684 4.08029C10.5664 3.63808 11.0676 3.35802 11.215 3.26958Z" fill="currentColor"/>
<path d="M18.6883 3.34328C18.3051 3.12217 18.025 3.00425 17.9955 2.98951C17.7892 2.90107 17.5091 2.81263 17.3027 2.73893C17.1848 2.70945 17.0374 2.66523 16.9195 2.63575C16.6541 2.57679 15.9171 2.41464 14.9738 2.3999C14.2957 2.3999 13.6029 2.4736 12.9986 2.60627C12.0847 2.81263 11.5835 3.06321 11.215 3.26958C11.0676 3.35802 10.5664 3.63808 10.1684 4.08029C9.87364 4.40458 9.66728 4.7436 9.51988 5.11211C9.15137 6.0997 9.60832 7.19048 10.9202 7.97171C13.0281 9.22463 16.492 9.26885 18.6736 8.04541C20.1034 7.24944 20.634 6.11444 20.236 5.06788C20.0591 4.58146 19.7349 4.22769 19.7054 4.18347C19.6169 4.06555 19.4695 3.91815 19.3516 3.81497C19.2189 3.71178 19.0568 3.57912 18.9241 3.49068C18.8504 3.44646 18.762 3.3875 18.6883 3.34328ZM18.6883 3.34328C18.6293 3.3138 18.5556 3.29906 18.4525 3.35802M18.4525 3.35802C16.551 2.22302 13.426 2.1788 11.4508 3.28432C9.47566 4.38983 9.4167 6.20288 11.3034 7.33788C13.2049 8.47288 16.3299 8.5171 18.3051 7.41158C20.2802 6.30606 20.3392 4.49302 18.4525 3.35802Z" stroke="currentColor" stroke-width="0.16" stroke-linecap="round" stroke-linejoin="round"/>
<circle cx="26.1582" cy="25.6" r="5.6" fill="currentColor"/>
<path d="M26.8354 22.6004C26.7951 22.6006 26.7548 22.6025 26.7146 22.6062C26.7001 22.6074 26.6855 22.6088 26.671 22.6105C26.6539 22.6124 26.6368 22.6145 26.6198 22.617L26.5958 22.621C25.8682 22.7413 25.3132 23.373 25.3132 24.1347C25.3132 24.6794 25.5973 25.1574 26.025 25.4298C26.0306 25.4344 26.0373 25.4389 26.0441 25.443L26.0452 25.4434L25.9446 25.4753C25.7916 25.5276 25.6435 25.5931 25.502 25.6711L25.3971 25.7319C25.3864 25.7384 25.376 25.7452 25.3654 25.7518C25.2842 25.8027 25.2058 25.8577 25.1303 25.9166L25.1196 25.925C24.4728 26.4358 24.0576 27.2267 24.0576 28.1149C24.0576 28.2349 24.0653 28.3547 24.0806 28.4737H29.6354V28.1162C29.6354 26.8536 28.7967 25.7872 27.6462 25.443C28.0862 25.1737 28.3797 24.6886 28.3797 24.1347C28.3797 23.3228 27.749 22.6585 26.9509 22.6041C26.9407 22.6034 26.9306 22.6025 26.9204 22.602C26.8958 22.6008 26.8712 22.6001 26.8465 22.6001L26.8354 22.6004ZM26.845 25.6746C28.1934 25.6746 29.2865 26.7677 29.2865 28.1162C29.2865 28.1191 29.2863 28.122 29.2863 28.1249H24.4037C24.4037 28.122 24.4035 28.1191 24.4035 28.1162C24.4035 26.7677 25.4966 25.6746 26.845 25.6746ZM26.845 22.9488C27.5 22.9488 28.0309 23.4797 28.0309 24.1347C28.0309 24.7897 27.5 25.3206 26.845 25.3206C26.1901 25.3206 25.6591 24.7897 25.6591 24.1347C25.6591 23.4797 26.1901 22.9488 26.845 22.9488Z" fill="currentColor" stroke="currentColor" stroke-width="0.04"/>
<path d="M24.899 23.1294C24.2055 23.1294 23.6433 23.6916 23.6433 24.385C23.6433 24.816 23.8605 25.1961 24.1913 25.4222C23.3059 25.7155 22.6664 26.5485 22.6626 27.5318H22.6624V27.8806H23.7175C23.7261 27.7635 23.7413 27.6471 23.763 27.5318H22.994C22.9987 26.486 23.8478 25.6396 24.8947 25.6396L24.8712 25.6399L24.8982 25.6406C24.9033 25.6406 24.9083 25.6405 24.9134 25.6403L24.9284 25.6398C25.0814 25.5215 25.245 25.4175 25.4171 25.3292C25.3796 25.2854 25.3441 25.2399 25.3106 25.1928C25.1833 25.2581 25.0422 25.292 24.899 25.2919C24.3982 25.2919 23.9922 24.8859 23.9922 24.385C23.9922 23.8842 24.3982 23.4782 24.899 23.4782C24.9553 23.4784 25.0114 23.4838 25.0666 23.4943C25.1053 23.3818 25.1546 23.2731 25.2139 23.1699C25.1642 23.157 25.1137 23.1472 25.0628 23.1404L25.0554 23.1395C25.0334 23.1367 25.0113 23.1346 24.989 23.133C24.9844 23.1326 24.9799 23.1322 24.9753 23.1319C24.95 23.1303 24.9246 23.1294 24.899 23.1294Z" fill="currentColor" stroke="currentColor" stroke-width="0.04"/>
</g>
<defs>
<clipPath id="clip0_4017_3005">
<rect width="32" height="32" fill="currentColor"/>
</clipPath>
</defs>
</svg>
