<svg width="24" height="24" viewBox="0 0 24 24" fill="none" xmlns="http://www.w3.org/2000/svg">
<g clip-path="url(#clip0_3054_75634)">
<rect x="0.600586" y="0.600586" width="22.8" height="22.8" rx="11.4" fill="currentColor"/>
<path d="M23.4006 12.0006C23.4006 18.2987 18.2987 23.4006 12.0006 23.4006C5.70246 23.4006 0.600586 18.2987 0.600586 12.0006C0.600586 5.71038 5.70246 0.600586 12.0006 0.600586C18.2995 0.600586 23.4006 5.71038 23.4006 12.0006Z" fill="currentColor"/>
<path d="M18.3624 11.0928C18.4679 10.9901 18.5426 10.8599 18.5779 10.717C18.6133 10.5741 18.6079 10.4241 18.5623 10.2841C18.5168 10.1441 18.433 10.0196 18.3204 9.9248C18.2077 9.82997 18.0708 9.76859 17.9251 9.7476L14.8869 9.30634C14.7605 9.2879 14.6405 9.23904 14.5371 9.16398C14.4338 9.08891 14.3502 8.98987 14.2936 8.87537L12.9357 6.12242C12.8706 5.99042 12.7699 5.87926 12.645 5.80154C12.52 5.72381 12.3758 5.68262 12.2286 5.68262C12.0815 5.68262 11.9373 5.72381 11.8123 5.80154C11.6873 5.87926 11.5866 5.99042 11.5216 6.12242L10.1629 8.87537C10.1064 8.98995 10.0229 9.08906 9.91949 9.16414C9.81611 9.23923 9.69601 9.28803 9.56957 9.30634L6.53142 9.7476C6.38586 9.76887 6.24914 9.8304 6.1367 9.92526C6.02426 10.0201 5.94058 10.1445 5.8951 10.2844C5.84962 10.4243 5.84416 10.5741 5.87932 10.717C5.91449 10.8598 5.98888 10.99 6.09411 11.0928L8.29251 13.2357C8.38416 13.3249 8.45268 13.4351 8.49216 13.5567C8.53164 13.6783 8.54089 13.8077 8.51909 13.9337L8.00019 16.9592C7.97527 17.1042 7.99144 17.2532 8.04686 17.3895C8.10228 17.5258 8.19474 17.6439 8.31377 17.7304C8.43281 17.8168 8.57367 17.8683 8.72042 17.8788C8.86717 17.8894 9.01395 17.8587 9.14415 17.7902L11.8615 16.3618C11.9746 16.3025 12.1005 16.2715 12.2282 16.2715C12.356 16.2715 12.4819 16.3025 12.595 16.3618L15.3123 17.7902C15.4425 17.8587 15.5893 17.8894 15.7361 17.8788C15.8828 17.8683 16.0237 17.8168 16.1427 17.7304C16.2618 17.6439 16.3542 17.5258 16.4096 17.3895C16.4651 17.2532 16.4812 17.1042 16.4563 16.9592L15.9374 13.9337C15.916 13.8077 15.9254 13.6784 15.9648 13.5568C16.0043 13.4353 16.0726 13.3251 16.164 13.2357L18.3624 11.0928Z" fill="currentColor"/>
</g>
<defs>
<clipPath id="clip0_3054_75634">
<rect width="24" height="24" fill="currentColor"/>
</clipPath>
</defs>
</svg>
