<svg width="24" height="24" viewBox="0 0 24 24" fill="none" xmlns="http://www.w3.org/2000/svg">
<g clip-path="url(#clip0_6032_3405)">
<path d="M18.3446 2.15672C18.6516 2.1237 18.9058 2.335 18.9091 2.62883L19.2756 20.1762C19.2822 20.4701 19.0379 20.7342 18.7309 20.7639L5.09241 22.1968C4.78537 22.2298 4.53116 22.0185 4.52786 21.7246L4.15809 4.17723C4.15149 3.8834 4.3958 3.61928 4.70284 3.58956L18.3446 2.15672Z" fill="currentColor" stroke="currentColor" stroke-width="0.075"/>
<path d="M17.4959 19.0694C17.585 19.0595 17.6577 19.1222 17.661 19.2081C17.6643 19.2939 17.5916 19.3665 17.5025 19.3764L5.87466 20.598C5.78552 20.6079 5.71288 20.5452 5.70958 20.4626C5.70628 20.3801 5.77891 20.3008 5.86805 20.2909L17.4959 19.0694Z" fill="currentColor"/>
<path d="M17.367 12.9161C17.4561 12.9062 17.5288 12.9656 17.5321 13.0515C17.5354 13.1373 17.4627 13.2133 17.3736 13.2232L5.74575 14.4447C5.65661 14.4546 5.58398 14.3919 5.58067 14.306C5.57737 14.2202 5.65001 14.1476 5.73915 14.1377L17.367 12.9161Z" fill="currentColor"/>
<path d="M17.2979 9.58799C17.387 9.57809 17.4597 9.63751 17.463 9.72335C17.4663 9.80919 17.3936 9.88513 17.3045 9.89503L5.67666 11.1166C5.58752 11.1265 5.51488 11.0638 5.51158 10.9779C5.50828 10.8921 5.58091 10.8194 5.67005 10.8095L17.2979 9.58799Z" fill="currentColor"/>
<path d="M17.2615 7.92095C17.3507 7.91105 17.4233 7.97377 17.4266 8.05961C17.4299 8.14545 17.3573 8.21808 17.2681 8.22799L5.64028 9.44954C5.55114 9.45945 5.47851 9.39672 5.47521 9.31418C5.4719 9.23164 5.54454 9.15241 5.63368 9.1425L17.2615 7.92095Z" fill="currentColor"/>
<path d="M17.2254 6.25694C17.3145 6.24703 17.3872 6.30646 17.3905 6.3923C17.3938 6.47814 17.3211 6.55407 17.232 6.56398L5.60415 7.78553C5.51501 7.79543 5.44237 7.7327 5.43907 7.64686C5.43577 7.56103 5.5084 7.48839 5.59754 7.47849L17.2254 6.25694Z" fill="currentColor"/>
<path d="M17.3309 11.252C17.42 11.2421 17.4926 11.3048 17.4959 11.3907C17.4992 11.4765 17.4266 11.5491 17.3375 11.559L5.70962 12.7806C5.62048 12.7905 5.54784 12.7278 5.54454 12.6452C5.54124 12.5627 5.61387 12.4835 5.70301 12.4736L17.3309 11.252Z" fill="currentColor"/>
<path d="M17.1924 4.5899C17.2816 4.57999 17.3542 4.64272 17.3575 4.72856C17.3608 4.8144 17.2882 4.88703 17.199 4.89694L5.57119 6.11849C5.48205 6.12839 5.40942 6.06566 5.40611 5.98313C5.40281 5.90059 5.47545 5.82135 5.56459 5.81145L17.1924 4.5899Z" fill="currentColor"/>
<path d="M18.5822 2.18608C18.6086 2.19598 18.635 2.20589 18.6581 2.21909C18.6878 2.2356 18.7176 2.25211 18.7407 2.27192C18.7737 2.30163 18.8034 2.33465 18.8298 2.37096L18.602 2.021C18.602 2.021 18.5921 2.0078 18.5888 2.0012C18.5789 1.98799 18.569 1.97478 18.5558 1.96158C18.5426 1.94837 18.5294 1.93517 18.5129 1.92196C18.4964 1.90545 18.4765 1.89225 18.4567 1.88234C18.4468 1.87574 18.4369 1.87574 18.4303 1.86914C18.4072 1.85593 18.3808 1.84603 18.3544 1.83612C18.3346 1.82952 18.3148 1.82292 18.295 1.81631C18.2652 1.80971 18.2355 1.80641 18.2058 1.80641C18.1893 1.80641 18.1761 1.7998 18.1596 1.7998C18.1464 1.7998 18.1299 1.7998 18.1167 1.7998L4.47492 3.23925C4.47492 3.23925 4.45181 3.23925 4.44191 3.24256C4.4221 3.24586 4.39899 3.24916 4.37918 3.25576C4.37588 3.25576 4.37258 3.25576 4.36927 3.25906C4.36597 3.25906 4.36267 3.25906 4.35607 3.26236C4.34616 3.26236 4.33626 3.26897 4.32635 3.27227C4.30985 3.27887 4.29334 3.28548 4.27683 3.29208C4.27353 3.29208 4.26693 3.29538 4.26363 3.29868C4.26032 3.29868 4.25702 3.30198 4.25372 3.30528C4.24712 3.30859 4.23721 3.31189 4.23061 3.31849C4.2141 3.32839 4.2009 3.3383 4.18439 3.3482C4.18109 3.35151 4.17449 3.35481 4.17118 3.35811C4.16788 3.35811 4.16458 3.36471 4.16128 3.36801C4.15468 3.37462 4.14807 3.37792 4.14147 3.38122C4.12496 3.39442 4.10846 3.40763 4.09525 3.42414C4.09525 3.42414 4.09195 3.42744 4.08865 3.43074C4.08535 3.43734 4.07874 3.44065 4.07544 3.44725C4.06554 3.46045 4.05563 3.47036 4.04573 3.48356C4.04573 3.48687 4.04243 3.49347 4.03912 3.49677C4.00941 3.53969 3.983 3.58591 3.96319 3.63873C3.96319 3.64864 3.95659 3.65524 3.95659 3.66515C3.94008 3.71797 3.93018 3.77079 3.93018 3.83022L4.29664 21.3776C4.29664 21.4734 4.32635 21.5592 4.37258 21.6319L4.60038 21.9818C4.55416 21.9092 4.52444 21.8233 4.52444 21.7276L4.15798 4.17688C4.15798 4.12075 4.16788 4.06463 4.18439 4.0118C4.18439 4.0019 4.18769 3.9953 4.19099 3.98539C4.2075 3.93587 4.23391 3.88965 4.26693 3.84343C4.28013 3.82692 4.29004 3.81041 4.30324 3.7939C4.30655 3.7873 4.31315 3.784 4.31645 3.7774C4.33956 3.75429 4.36267 3.73118 4.38578 3.71467C4.38908 3.71467 4.39238 3.70807 4.39569 3.70476C4.4221 3.68496 4.44851 3.66845 4.47822 3.65194C4.48152 3.65194 4.48483 3.64864 4.48813 3.64534C4.51784 3.63213 4.54755 3.61893 4.58057 3.60902C4.58387 3.60902 4.58717 3.60902 4.59047 3.60572C4.62349 3.59582 4.65981 3.58921 4.69612 3.58261L18.3445 2.15637C18.3742 2.15637 18.4039 2.15637 18.4336 2.15637C18.4633 2.15637 18.4931 2.15967 18.5228 2.16627C18.5426 2.16957 18.5624 2.17617 18.5822 2.18608Z" fill="currentColor" stroke="currentColor" stroke-width="0.075"/>
<path d="M3.86036 18.5879C3.88596 18.6167 3.90836 18.6487 3.93076 18.6807L3.78357 18.4567C3.78357 18.4567 3.76757 18.4343 3.75797 18.4215C3.74197 18.4023 3.72917 18.3831 3.71317 18.3639C3.70677 18.3575 3.70357 18.3511 3.69717 18.3479C3.67157 18.3223 3.64597 18.2967 3.62037 18.2711C3.62037 18.2711 3.61717 18.2711 3.61397 18.2679C3.60117 18.2583 3.58517 18.2487 3.57238 18.2359C3.54998 18.2199 3.53078 18.2039 3.50838 18.1879C3.50198 18.1847 3.49558 18.1783 3.48918 18.1751C3.44758 18.1495 3.40278 18.1303 3.35799 18.1111C3.34199 18.1047 3.32599 18.1015 3.31319 18.0951C3.28119 18.0855 3.24919 18.0727 3.21719 18.0663C3.19799 18.0631 3.17879 18.0599 3.15959 18.0567C3.1276 18.0503 3.0956 18.0471 3.0636 18.0439C3.0412 18.0439 3.022 18.0439 2.9996 18.0439C2.9836 18.0439 2.9644 18.0439 2.9484 18.0439C2.92281 18.0439 2.89401 18.0439 2.86841 18.0503C2.84601 18.0503 2.82361 18.0567 2.80441 18.0599C2.76601 18.0663 2.72762 18.0759 2.68922 18.0855C2.68282 18.0855 2.67642 18.0887 2.66682 18.0919C2.66042 18.0919 2.65402 18.0951 2.64442 18.0983C2.62522 18.1047 2.60602 18.1111 2.58682 18.1175C2.55482 18.1303 2.52602 18.1431 2.49403 18.1559C2.48443 18.1591 2.47803 18.1655 2.47163 18.1687C2.46523 18.1719 2.45883 18.1751 2.45243 18.1783C2.43643 18.1847 2.42363 18.1943 2.40763 18.2007C2.37883 18.2167 2.35003 18.2359 2.32443 18.2551C2.31483 18.2615 2.30523 18.2679 2.29884 18.2743C2.29244 18.2807 2.28604 18.2839 2.27644 18.2903C2.26364 18.2999 2.25084 18.3095 2.24124 18.3191C2.21244 18.3447 2.18364 18.3703 2.15484 18.3991C2.15164 18.4023 2.14844 18.4087 2.14524 18.4119C2.13564 18.4215 2.12924 18.4311 2.11964 18.4407C2.10044 18.4631 2.07805 18.4855 2.06205 18.5079C2.05245 18.5207 2.04605 18.5367 2.03645 18.5495C2.02365 18.5687 2.01085 18.5911 1.99805 18.6135C1.97885 18.6487 1.95965 18.6839 1.94365 18.7191C1.93405 18.7415 1.92445 18.7639 1.91485 18.7863C1.89885 18.8247 1.88925 18.8663 1.87965 18.9079C1.87326 18.9271 1.86686 18.9463 1.86366 18.9687C1.85406 19.0327 1.84766 19.0935 1.84766 19.1607C1.85086 19.3399 1.90525 19.5031 1.99485 19.6375L2.14204 19.8615C2.05245 19.7239 2.00125 19.5639 1.99485 19.3847C1.99485 19.3207 2.00125 19.2567 2.01085 19.1927C2.01405 19.1735 2.02045 19.1511 2.02685 19.1319C2.03645 19.0903 2.04925 19.0487 2.06205 19.0103C2.07165 18.9879 2.08125 18.9655 2.09084 18.9431C2.10684 18.9079 2.12604 18.8727 2.14524 18.8375C2.15804 18.8151 2.17084 18.7959 2.18364 18.7735C2.20924 18.7351 2.23804 18.6999 2.26684 18.6647C2.27644 18.6551 2.28284 18.6455 2.29244 18.6359C2.33403 18.5911 2.37883 18.5527 2.42683 18.5143C2.43323 18.5079 2.43963 18.5047 2.44923 18.4983C2.49723 18.4631 2.54842 18.4279 2.60282 18.4023C2.60922 18.3991 2.61562 18.3959 2.62202 18.3927C2.67642 18.3639 2.73401 18.3415 2.79481 18.3223C2.80121 18.3223 2.80761 18.3191 2.81721 18.3159C2.88121 18.2967 2.9484 18.2839 3.0188 18.2743C3.0636 18.2711 3.1084 18.2711 3.15 18.2711C3.17239 18.2711 3.19159 18.2711 3.21399 18.2711C3.24599 18.2711 3.27799 18.2775 3.30999 18.2839C3.32919 18.2871 3.34839 18.2903 3.36759 18.2935C3.39958 18.2999 3.43478 18.3127 3.46358 18.3223C3.47958 18.3287 3.49558 18.3319 3.50838 18.3383C3.55318 18.3575 3.59797 18.3767 3.63957 18.4023C3.66837 18.4183 3.69397 18.4407 3.72277 18.4599C3.73557 18.4695 3.75157 18.4791 3.76437 18.4919C3.79957 18.5207 3.83476 18.5559 3.86356 18.5911L3.86036 18.5879Z" fill="currentColor" stroke="currentColor" stroke-width="0.075"/>
<path d="M13.9304 13.5553C14.164 13.5297 14.3784 13.5809 14.5544 13.6865C14.6407 13.7377 14.7143 13.7985 14.7783 13.8721C14.9095 14.0257 14.9895 14.2209 14.9959 14.4417C15.0087 14.9921 14.548 15.4912 13.972 15.552C13.396 15.6128 12.9192 15.2129 12.9096 14.6625C12.9032 14.3521 13.0472 14.0577 13.2776 13.8497C13.3576 13.7793 13.4472 13.7185 13.5432 13.6705C13.6616 13.6097 13.7928 13.5713 13.9304 13.5585V13.5553Z" fill="currentColor" stroke="currentColor" stroke-width="0.075"/>
<path d="M14.7783 13.8711C14.8039 13.8999 14.8295 13.9319 14.8487 13.9671L14.7015 13.7431C14.7015 13.7431 14.6855 13.7207 14.6759 13.7079C14.6599 13.6887 14.6439 13.6663 14.6279 13.6471C14.6247 13.6407 14.6183 13.6375 14.6151 13.6311C14.5895 13.6055 14.5639 13.5799 14.5383 13.5543C14.5383 13.5543 14.5351 13.5511 14.5319 13.5479C14.5191 13.5351 14.5031 13.5255 14.4871 13.5159C14.4679 13.4999 14.4487 13.4839 14.4263 13.4711C14.4199 13.4679 14.4103 13.4615 14.4039 13.4583C14.3623 13.4327 14.3175 13.4135 14.2727 13.3943C14.2567 13.3879 14.2407 13.3847 14.2279 13.3783C14.1959 13.3687 14.1639 13.3559 14.1319 13.3495C14.1127 13.3463 14.0935 13.3431 14.0743 13.3399C14.0423 13.3335 14.0103 13.3303 13.9783 13.3271C13.9559 13.3271 13.9367 13.3271 13.9143 13.3271C13.8983 13.3271 13.8791 13.3271 13.8631 13.3271C13.8375 13.3271 13.8087 13.3271 13.7799 13.3335C13.7575 13.3335 13.7351 13.3399 13.7159 13.3431C13.6775 13.3495 13.6391 13.3591 13.6007 13.3687C13.5943 13.3687 13.5911 13.3719 13.5847 13.3751C13.5783 13.3751 13.5719 13.3783 13.5655 13.3815C13.5431 13.3879 13.5207 13.3943 13.5015 13.4039C13.4695 13.4167 13.4407 13.4295 13.4087 13.4423C13.4023 13.4423 13.3959 13.4487 13.3895 13.4519C13.3671 13.4647 13.3447 13.4743 13.3191 13.4903C13.2999 13.5031 13.2807 13.5159 13.2615 13.5287C13.2551 13.5319 13.2487 13.5351 13.2455 13.5383C13.2455 13.5383 13.2391 13.5415 13.2359 13.5447C13.2071 13.5639 13.1783 13.5863 13.1527 13.6087C13.1431 13.6183 13.1335 13.6247 13.1239 13.6343C13.1047 13.6535 13.0856 13.6695 13.0664 13.6887C13.0312 13.7239 13.0024 13.7591 12.9736 13.7975C12.9704 13.8039 12.9672 13.8071 12.964 13.8135C12.9256 13.8647 12.8968 13.9191 12.868 13.9735C12.8584 13.9927 12.852 14.0119 12.8424 14.0311C12.8232 14.0791 12.8072 14.1239 12.7944 14.1751C12.788 14.1943 12.7848 14.2135 12.7784 14.2359C12.7656 14.3031 12.756 14.3735 12.7592 14.4439C12.7624 14.6231 12.8168 14.7863 12.9064 14.9239L13.0536 15.1479C12.964 15.0103 12.9128 14.8471 12.9064 14.6679C12.9064 14.5975 12.9128 14.5271 12.9256 14.4599C12.9288 14.4407 12.9352 14.4215 12.9416 14.3991C12.9544 14.3511 12.9704 14.3031 12.9896 14.2551C12.9992 14.2359 13.0056 14.2167 13.0152 14.1975C13.044 14.1399 13.076 14.0855 13.1111 14.0343C13.1143 14.0279 13.1175 14.0247 13.1207 14.0183C13.1655 13.9575 13.2167 13.8999 13.2743 13.8487C13.3127 13.8135 13.3543 13.7815 13.3959 13.7527C13.4023 13.7495 13.4087 13.7463 13.4151 13.7399C13.4567 13.7143 13.4983 13.6887 13.5431 13.6663C13.5975 13.6375 13.6583 13.6151 13.7191 13.5991C13.7255 13.5991 13.7319 13.5959 13.7383 13.5927C13.8023 13.5735 13.8663 13.5607 13.9335 13.5543C13.9783 13.5511 14.0231 13.5511 14.0679 13.5511C14.0903 13.5511 14.1127 13.5511 14.1319 13.5511C14.1639 13.5511 14.1959 13.5575 14.2279 13.5639C14.2471 13.5671 14.2663 13.5703 14.2855 13.5735C14.3175 13.5799 14.3495 13.5927 14.3815 13.6023C14.3975 13.6087 14.4135 13.6119 14.4263 13.6183C14.4711 13.6375 14.5159 13.6567 14.5575 13.6823C14.5863 13.6983 14.6119 13.7207 14.6375 13.7399C14.6535 13.7495 14.6663 13.7623 14.6823 13.7719C14.7175 13.8007 14.7495 13.8327 14.7815 13.8679L14.7783 13.8711Z" fill="currentColor" stroke="currentColor" stroke-width="0.075"/>
<path d="M12.0027 11.9793C12.0955 11.9249 12.1819 11.8641 12.2651 11.7969L13.5322 13.6464C13.4362 13.6944 13.3466 13.7552 13.2667 13.8256L11.9995 11.9761L12.0027 11.9793Z" fill="currentColor" stroke="currentColor" stroke-width="0.075"/>
<path d="M20.3393 7.4209C20.4097 7.4881 20.4897 7.54569 20.5793 7.58729L14.7748 13.8718C14.7108 13.7982 14.634 13.7342 14.5508 13.6862L20.3393 7.4209Z" fill="currentColor" stroke="currentColor" stroke-width="0.075"/>
<path d="M14.5539 13.6859L14.4067 13.4619L20.1921 7.19336L20.3393 7.42055L14.5539 13.6859Z" fill="currentColor" stroke="currentColor" stroke-width="0.075"/>
<path d="M3.01271 18.2682C3.2431 18.2426 3.46069 18.2938 3.63668 18.3994C3.72308 18.4506 3.79668 18.5146 3.86067 18.5882C3.99187 18.7418 4.07186 18.937 4.07826 19.161C4.09106 19.7114 3.63028 20.2105 3.05751 20.2713C2.48474 20.3321 2.00476 19.9353 1.99196 19.3818C1.97916 18.8282 2.43994 18.3322 3.01591 18.2714L3.01271 18.2682Z" fill="currentColor" stroke="currentColor" stroke-width="0.075"/>
<path d="M3.63621 18.3997L3.48901 18.1757L5.61051 15.875L5.75771 16.1022L3.63621 18.3997Z" fill="currentColor" stroke="currentColor" stroke-width="0.075"/>
<path d="M5.75773 16.1016C5.82173 16.1752 5.89852 16.2392 5.98172 16.2904L3.86022 18.5878C3.79622 18.5142 3.72263 18.4503 3.63623 18.3991L5.75773 16.1016Z" fill="currentColor" stroke="currentColor" stroke-width="0.075"/>
<mask id="mask0_6032_3405" style="mask-type:luminance" maskUnits="userSpaceOnUse" x="11" y="11" width="2" height="2">
<path d="M11.8589 11.7752C11.9517 11.7208 12.0381 11.66 12.1213 11.5928L12.2685 11.8168C12.1853 11.884 12.0989 11.9448 12.0061 11.9992C11.9613 11.932 11.9037 11.8424 11.8589 11.7752Z" fill="currentColor" stroke="currentColor" stroke-width="0.075"/>
</mask>
<g mask="url(#mask0_6032_3405)">
<path d="M12.0091 11.9998L11.8584 11.7754L12.0091 11.9998Z" fill="currentColor" stroke="currentColor" stroke-width="0.075"/>
<path d="M12.0085 11.9997L11.8613 11.7757C11.9125 11.7469 11.9637 11.7149 12.0117 11.6797L12.1589 11.9037C12.1109 11.9389 12.0597 11.9709 12.0085 11.9997Z" fill="currentColor" stroke="currentColor" stroke-width="0.075"/>
<path d="M12.1594 11.9032L12.0122 11.6792C12.0506 11.6536 12.089 11.6248 12.1242 11.5928L12.2714 11.8168C12.2362 11.8456 12.1978 11.8744 12.1594 11.9032Z" fill="currentColor" stroke="currentColor" stroke-width="0.075"/>
</g>
<path d="M20.0966 6.5408C20.1062 6.49921 20.119 6.45761 20.1318 6.41921C20.1414 6.39681 20.151 6.37441 20.1606 6.35201C20.1766 6.31681 20.1958 6.28162 20.215 6.24642C20.2278 6.22402 20.2406 6.20482 20.2534 6.18242C20.279 6.14402 20.3078 6.10882 20.3366 6.07363C20.3462 6.06403 20.3526 6.05443 20.3622 6.04483C20.4038 6.00003 20.4486 5.96163 20.4966 5.92323C20.503 5.91683 20.5094 5.91363 20.519 5.90723C20.567 5.87204 20.6182 5.83684 20.6726 5.81124C20.679 5.80804 20.6854 5.80484 20.6918 5.80164C20.7462 5.77284 20.8038 5.75044 20.8646 5.73124C20.871 5.73124 20.8774 5.72804 20.887 5.72484C20.951 5.70564 21.0182 5.69284 21.0886 5.68324C21.127 5.68004 21.1622 5.68004 21.2006 5.68004C21.2294 5.68004 21.2582 5.68004 21.2838 5.68324C21.303 5.68324 21.3254 5.68324 21.3446 5.68964C21.3734 5.69284 21.399 5.69924 21.4278 5.70564C21.447 5.70884 21.4662 5.71204 21.4822 5.71844C21.511 5.72804 21.5366 5.73764 21.5654 5.74724C21.5814 5.75364 21.5974 5.75684 21.6134 5.76644C21.6421 5.77924 21.6709 5.79524 21.6997 5.81124C21.7093 5.81764 21.7221 5.82084 21.7317 5.82724C21.7701 5.84964 21.8053 5.87843 21.8373 5.90723C21.8661 5.93283 21.8949 5.96163 21.9205 5.99043C21.9269 5.99683 21.9301 6.00323 21.9365 6.00963C21.9589 6.03523 21.9813 6.06403 22.0005 6.09282L21.8533 5.86884C21.8533 5.86884 21.8373 5.84644 21.8277 5.83364C21.8149 5.81764 21.8021 5.80164 21.7893 5.78564C21.7829 5.77924 21.7797 5.77284 21.7733 5.76644C21.7733 5.76644 21.7701 5.76324 21.7669 5.76004C21.7413 5.73444 21.7157 5.70884 21.6901 5.68324C21.6581 5.65445 21.6197 5.62885 21.5846 5.60325C21.575 5.59685 21.5654 5.59365 21.5558 5.58725C21.527 5.57125 21.4982 5.55525 21.4694 5.54245C21.4534 5.53605 21.4374 5.52965 21.4214 5.52325C21.3958 5.51365 21.367 5.50405 21.3414 5.49445C21.3222 5.48805 21.303 5.48485 21.2838 5.48165C21.2582 5.47525 21.2294 5.46885 21.2006 5.46565C21.1814 5.46565 21.159 5.46245 21.1398 5.45925C21.111 5.45925 21.0854 5.45605 21.0566 5.45605C21.047 5.45605 21.0374 5.45605 21.0278 5.45605C21.0022 5.45605 20.9734 5.45605 20.9446 5.46245C20.9222 5.46245 20.8998 5.46885 20.8806 5.47205C20.8422 5.47845 20.8038 5.48805 20.7654 5.49765C20.759 5.49765 20.7526 5.50085 20.743 5.50405C20.7366 5.50405 20.7302 5.50725 20.7206 5.51045C20.7014 5.51685 20.6822 5.52325 20.663 5.52965C20.631 5.54245 20.6022 5.55525 20.5702 5.56805C20.5606 5.57125 20.5542 5.57765 20.5478 5.58085C20.5414 5.58405 20.535 5.58725 20.5286 5.59045C20.5126 5.59685 20.4998 5.60645 20.4838 5.61285C20.455 5.62885 20.4262 5.64805 20.4006 5.66724C20.391 5.67364 20.3814 5.68004 20.375 5.68644C20.3686 5.69284 20.3622 5.69604 20.3526 5.70244C20.3398 5.71204 20.327 5.72164 20.3174 5.73124C20.2886 5.75684 20.2598 5.78244 20.231 5.81124C20.2278 5.81444 20.2246 5.82084 20.2214 5.82404C20.2118 5.83364 20.2054 5.84324 20.1958 5.85284C20.1766 5.87524 20.1542 5.89763 20.1382 5.92003C20.1286 5.93283 20.1222 5.94883 20.1126 5.96163C20.0998 5.98083 20.087 6.00323 20.0742 6.02563C20.055 6.06083 20.0358 6.09602 20.0198 6.13122C20.0102 6.15362 20.0006 6.17602 19.991 6.19842C19.975 6.23682 19.9654 6.27842 19.9558 6.32001C19.9494 6.33921 19.943 6.35841 19.9398 6.38081C19.9302 6.44481 19.9238 6.50561 19.9238 6.5728C19.927 6.75199 19.9814 6.91199 20.0678 7.04638L20.215 7.27037C20.1254 7.13598 20.0742 6.97278 20.071 6.79679C20.071 6.7328 20.0774 6.6688 20.087 6.6048C20.0902 6.5856 20.0966 6.5632 20.103 6.544L20.0966 6.5408Z" fill="currentColor" stroke="currentColor" stroke-width="0.075"/>
<path d="M7.41212 14.7425C7.43772 14.7713 7.46332 14.8033 7.48572 14.8385L7.33852 14.6145C7.33852 14.6145 7.32252 14.5921 7.31292 14.5793C7.29693 14.5569 7.28093 14.5377 7.26493 14.5185C7.26173 14.5121 7.25533 14.5089 7.25213 14.5025C7.22653 14.4769 7.20093 14.4513 7.17533 14.4257C7.17533 14.4257 7.16893 14.4225 7.16893 14.4193C7.15613 14.4065 7.14013 14.3969 7.12413 14.3873C7.10493 14.3713 7.08574 14.3585 7.06654 14.3425C7.06014 14.3361 7.05054 14.3329 7.04414 14.3265C7.00254 14.3009 6.95774 14.2817 6.91294 14.2625C6.89694 14.2561 6.88094 14.2529 6.86815 14.2465C6.83615 14.2369 6.80415 14.2241 6.77215 14.2177C6.75295 14.2145 6.73375 14.2113 6.71455 14.2081C6.68255 14.2017 6.65376 14.1985 6.62176 14.1953C6.59936 14.1953 6.58016 14.1953 6.55776 14.1953C6.54176 14.1953 6.52576 14.1953 6.50656 14.1953C6.48096 14.1953 6.45216 14.1953 6.42337 14.2017C6.40097 14.2017 6.38177 14.2081 6.35937 14.2113C6.32097 14.2177 6.28257 14.2273 6.24417 14.2369C6.23778 14.2369 6.23138 14.2401 6.22178 14.2433C6.21538 14.2433 6.20578 14.2465 6.19938 14.2497C6.18018 14.2561 6.16098 14.2625 6.14178 14.2689C6.10978 14.2817 6.08098 14.2945 6.04898 14.3073C6.03938 14.3105 6.03298 14.3169 6.02338 14.3201C6.01699 14.3233 6.01059 14.3265 6.00419 14.3297C5.99139 14.3361 5.97539 14.3457 5.96259 14.3521C5.93379 14.3681 5.90499 14.3873 5.87939 14.4065C5.86979 14.4129 5.86019 14.4193 5.85379 14.4257C5.84739 14.4321 5.84099 14.4353 5.83139 14.4417C5.81859 14.4513 5.8058 14.4609 5.7962 14.4705C5.7674 14.4961 5.7354 14.5217 5.7098 14.5505C5.7066 14.5537 5.7034 14.5601 5.7002 14.5633C5.6906 14.5729 5.6842 14.5825 5.6746 14.5921C5.6554 14.6145 5.633 14.6369 5.6138 14.6625C5.6042 14.6753 5.5978 14.6881 5.58821 14.7041C5.57541 14.7233 5.56261 14.7457 5.54981 14.7649C5.53061 14.8001 5.51141 14.8353 5.49541 14.8705C5.48581 14.8929 5.47621 14.9121 5.46661 14.9345C5.45061 14.9729 5.44101 15.0145 5.43141 15.0561C5.42821 15.0753 5.42181 15.0945 5.41541 15.1169C5.40581 15.1777 5.39941 15.2417 5.39941 15.3057C5.40261 15.4849 5.45701 15.6512 5.54661 15.7856L5.6938 16.0096C5.6042 15.872 5.54981 15.7088 5.54661 15.5297C5.54661 15.4657 5.55301 15.4017 5.56261 15.3409C5.56581 15.3217 5.57221 15.3025 5.57861 15.2801C5.58821 15.2385 5.601 15.1969 5.6138 15.1585C5.6234 15.1361 5.633 15.1137 5.6426 15.0945C5.6586 15.0593 5.6778 15.0241 5.697 14.9889C5.7098 14.9665 5.7226 14.9473 5.7354 14.9281C5.761 14.8897 5.7898 14.8545 5.82179 14.8193C5.83139 14.8097 5.83779 14.8001 5.84739 14.7905C5.88899 14.7457 5.93379 14.7073 5.98179 14.6689C5.98819 14.6625 5.99459 14.6593 6.00419 14.6529C6.05218 14.6177 6.10338 14.5857 6.15778 14.5569C6.16418 14.5537 6.17058 14.5505 6.17698 14.5473C6.23138 14.5185 6.28897 14.4961 6.34977 14.4769C6.35617 14.4769 6.36257 14.4705 6.37217 14.4705C6.43617 14.4513 6.50336 14.4385 6.57376 14.4289C6.61856 14.4257 6.66336 14.4257 6.70815 14.4257C6.73055 14.4257 6.74975 14.4257 6.77215 14.4257C6.80415 14.4257 6.83615 14.4321 6.86815 14.4385C6.88734 14.4417 6.90654 14.4449 6.92574 14.4481C6.95774 14.4545 6.98974 14.4673 7.02174 14.4769C7.03774 14.4833 7.05374 14.4865 7.06654 14.4929C7.11133 14.5121 7.15613 14.5313 7.19773 14.5569C7.22653 14.5729 7.25213 14.5953 7.28093 14.6145C7.29693 14.6241 7.31292 14.6369 7.32572 14.6465C7.36092 14.6753 7.39292 14.7073 7.42492 14.7425H7.41212Z" fill="currentColor" stroke="currentColor" stroke-width="0.075"/>
<path d="M9.75134 11.7754C9.81853 11.8458 9.89533 11.9098 9.97533 11.9674L7.41225 14.7417C7.34825 14.6681 7.27145 14.6041 7.18506 14.5561L9.75134 11.7754Z" fill="currentColor" stroke="currentColor" stroke-width="0.075"/>
<mask id="mask1_6032_3405" style="mask-type:luminance" maskUnits="userSpaceOnUse" x="9" y="11" width="2" height="1">
<path d="M9.604 11.5488C9.6712 11.6192 9.748 11.6832 9.82799 11.7408L9.97519 11.9648C9.89519 11.9072 9.81839 11.8432 9.7512 11.7728C9.7064 11.7056 9.6488 11.616 9.604 11.5488Z" fill="currentColor" stroke="currentColor" stroke-width="0.075"/>
</mask>
<g mask="url(#mask1_6032_3405)">
<path d="M9.7512 11.7757L9.604 11.5518C9.636 11.5838 9.668 11.6158 9.7032 11.6446L9.85039 11.8685C9.81519 11.8397 9.7832 11.8077 9.7512 11.7757Z" fill="currentColor" stroke="currentColor" stroke-width="0.075"/>
<path d="M9.85056 11.8685L9.70337 11.6445C9.74177 11.6797 9.78337 11.7117 9.82816 11.7405L9.97536 11.9645C9.93376 11.9357 9.89216 11.9005 9.85056 11.8685Z" fill="currentColor" stroke="currentColor" stroke-width="0.075"/>
</g>
<path d="M7.18528 14.5535L7.03809 14.3295L9.60437 11.5488L9.75156 11.776L7.18528 14.5535Z" fill="currentColor" stroke="currentColor" stroke-width="0.075"/>
<mask id="mask2_6032_3405" style="mask-type:luminance" maskUnits="userSpaceOnUse" x="11" y="9" width="2" height="1">
<path d="M12.0752 9.57219C12.104 9.61699 12.1424 9.67458 12.1712 9.71938C11.9056 9.3386 11.5697 9.13381 11.1089 9.07621C11.5185 9.07301 11.8737 9.265 12.0752 9.57219Z" fill="currentColor" stroke="currentColor" stroke-width="0.075"/>
</mask>
<g mask="url(#mask2_6032_3405)">
<path d="M11.2292 9.30353L11.082 9.07954C11.3284 9.07314 11.5588 9.13714 11.7476 9.25553L11.8948 9.47952C11.706 9.36113 11.4788 9.29713 11.2292 9.30353Z" fill="currentColor" stroke="currentColor" stroke-width="0.075"/>
<path d="M11.895 9.47985L11.7478 9.25586C11.7958 9.28466 11.8374 9.31666 11.879 9.35505L12.0262 9.57904C11.9846 9.54385 11.9398 9.51185 11.895 9.47985Z" fill="currentColor" stroke="currentColor" stroke-width="0.075"/>
<path d="M12.0261 9.57555L11.8789 9.35156C11.9109 9.38036 11.9429 9.40916 11.9717 9.44116L12.1189 9.66515C12.0901 9.63315 12.0581 9.60435 12.0261 9.57555Z" fill="currentColor" stroke="currentColor" stroke-width="0.075"/>
<path d="M12.1184 9.66833L11.9712 9.44434C11.9968 9.47313 12.0224 9.50193 12.0448 9.53393L12.192 9.75792C12.1696 9.72592 12.144 9.69712 12.1184 9.66833Z" fill="currentColor" stroke="currentColor" stroke-width="0.075"/>
<path d="M12.1927 9.75864L12.0452 9.53418C12.0452 9.53418 12.0644 9.56304 12.074 9.57586L12.2215 9.80032C12.2215 9.80032 12.2023 9.77146 12.1927 9.75864Z" fill="currentColor" stroke="currentColor" stroke-width="0.075"/>
</g>
<mask id="mask3_6032_3405" style="mask-type:luminance" maskUnits="userSpaceOnUse" x="9" y="9" width="2" height="3">
<path d="M10.2051 9.43679C10.1027 9.54239 9.86272 9.78878 9.81473 10.2176C9.76353 10.6463 9.94272 10.9407 10.0163 11.0655L9.94592 10.9567C9.84032 10.7967 9.77953 10.6047 9.77313 10.3935C9.76673 10.0256 9.93312 9.67998 10.2051 9.43359V9.43679Z" fill="currentColor" stroke="currentColor" stroke-width="0.075"/>
</mask>
<g mask="url(#mask3_6032_3405)">
<path d="M10.0937 11.1828L9.94653 10.9588C9.84093 10.7988 9.78014 10.6068 9.77374 10.3956C9.76734 10.1172 9.86333 9.85165 10.0297 9.63086L10.1769 9.85485C10.0105 10.0756 9.91453 10.3412 9.92093 10.6196C9.92413 10.8308 9.98813 11.0228 10.0937 11.1828Z" fill="currentColor" stroke="currentColor" stroke-width="0.075"/>
<path d="M10.1765 9.85518L10.0293 9.63119C10.0645 9.5864 10.0997 9.5416 10.1413 9.5L10.2885 9.72399C10.2469 9.76559 10.2117 9.81039 10.1765 9.85518Z" fill="currentColor" stroke="currentColor" stroke-width="0.075"/>
<path d="M10.289 9.72428L10.1418 9.50029C10.1738 9.46829 10.209 9.4331 10.2442 9.4043L10.3914 9.62829C10.3562 9.65709 10.321 9.68908 10.289 9.72428Z" fill="currentColor" stroke="currentColor" stroke-width="0.075"/>
</g>
<mask id="mask4_6032_3405" style="mask-type:luminance" maskUnits="userSpaceOnUse" x="10" y="9" width="3" height="3">
<path d="M12.0739 9.57129L12.2211 9.79528C12.3266 9.95527 12.3874 10.1473 12.3938 10.3585C12.4066 11.008 11.8627 11.5968 11.1843 11.6704L11.0371 11.4464C11.7187 11.376 12.2627 10.7872 12.2467 10.1345C12.2435 9.92327 12.1795 9.73128 12.0739 9.57129Z" fill="currentColor" stroke="currentColor" stroke-width="0.075"/>
</mask>
<g mask="url(#mask4_6032_3405)">
<path d="M11.1812 11.6735L11.0337 11.4491C11.0593 11.4491 11.085 11.4427 11.1106 11.4395L11.2581 11.6639C11.2325 11.6671 11.2068 11.6703 11.1812 11.6735Z" fill="currentColor" stroke="currentColor" stroke-width="0.075"/>
<path d="M11.2579 11.6645L11.1104 11.44C11.1552 11.4336 11.2033 11.424 11.2482 11.4111L11.3957 11.6356C11.3508 11.6484 11.306 11.658 11.2579 11.6645Z" fill="currentColor" stroke="currentColor" stroke-width="0.075"/>
<path d="M11.3951 11.6321L11.2476 11.4076C11.2892 11.398 11.3277 11.3852 11.3662 11.3691L11.5137 11.5936C11.4752 11.6096 11.4367 11.6193 11.3951 11.6321Z" fill="currentColor" stroke="currentColor" stroke-width="0.075"/>
<path d="M11.5137 11.5975L11.3662 11.373C11.4047 11.3602 11.44 11.3442 11.4752 11.3281L11.6227 11.5526C11.5875 11.5686 11.5522 11.5846 11.5137 11.5975Z" fill="currentColor" stroke="currentColor" stroke-width="0.075"/>
<path d="M11.6226 11.5495L11.4751 11.325C11.5104 11.309 11.5456 11.2897 11.5777 11.2705L11.7252 11.495C11.6931 11.5142 11.6579 11.5334 11.6226 11.5495Z" fill="currentColor" stroke="currentColor" stroke-width="0.075"/>
<path d="M11.7251 11.4946L11.5776 11.2702C11.6129 11.2509 11.645 11.2285 11.677 11.2061L11.8245 11.4305C11.7925 11.453 11.7604 11.4754 11.7251 11.4946Z" fill="currentColor" stroke="currentColor" stroke-width="0.075"/>
<path d="M11.824 11.4307L11.6768 11.2067C11.712 11.1811 11.744 11.1555 11.776 11.1299L11.9231 11.3539C11.8911 11.3795 11.8591 11.4051 11.824 11.4307Z" fill="currentColor" stroke="currentColor" stroke-width="0.075"/>
<path d="M11.9228 11.3532L11.7756 11.1292C11.8108 11.1004 11.846 11.0684 11.878 11.0332L12.0252 11.2572C11.9932 11.2892 11.958 11.3244 11.9228 11.3532Z" fill="currentColor" stroke="currentColor" stroke-width="0.075"/>
<path d="M12.0256 11.2575L11.8784 11.0335C11.92 10.9919 11.9552 10.9471 11.9904 10.9023L12.1376 11.1263C12.1024 11.1711 12.0672 11.2159 12.0256 11.2575Z" fill="currentColor" stroke="currentColor" stroke-width="0.075"/>
<path d="M12.1374 11.1261L11.9902 10.9022C12.1566 10.6814 12.2526 10.4158 12.2462 10.1374C12.243 9.9262 12.179 9.73421 12.0734 9.57422L12.2206 9.79821C12.3262 9.9582 12.387 10.1502 12.3934 10.3614C12.3998 10.6398 12.3038 10.9054 12.1374 11.1261Z" fill="currentColor" stroke="currentColor" stroke-width="0.075"/>
</g>
<mask id="mask5_6032_3405" style="mask-type:luminance" maskUnits="userSpaceOnUse" x="9" y="10" width="3" height="2">
<path d="M10.093 11.184L9.9458 10.96C10.1666 11.2959 10.573 11.4975 11.0337 11.4463L11.1809 11.6703C10.7202 11.7183 10.3138 11.5199 10.093 11.184Z" fill="currentColor" stroke="currentColor" stroke-width="0.075"/>
</mask>
<g mask="url(#mask5_6032_3405)">
<path d="M10.0931 11.1844L9.94556 10.96C9.94556 10.96 9.9648 10.9888 9.97442 11.0016L10.1219 11.2261C10.1219 11.2261 10.1027 11.1972 10.0931 11.1844Z" fill="currentColor" stroke="currentColor" stroke-width="0.075"/>
<path d="M10.1213 11.2289L9.97412 11.0049C9.99652 11.0369 10.0221 11.0657 10.0477 11.0945L10.1949 11.3185C10.1693 11.2897 10.1437 11.2609 10.1213 11.2289Z" fill="currentColor" stroke="currentColor" stroke-width="0.075"/>
<path d="M10.1953 11.3187L10.0481 11.0947C10.0769 11.1267 10.1089 11.1555 10.1409 11.1843L10.2881 11.4083C10.2561 11.3795 10.2241 11.3507 10.1953 11.3187Z" fill="currentColor" stroke="currentColor" stroke-width="0.075"/>
<path d="M10.2878 11.4076L10.1406 11.1836C10.1822 11.2188 10.227 11.2508 10.2718 11.2828L10.419 11.5068C10.371 11.478 10.3294 11.446 10.2878 11.4076Z" fill="currentColor" stroke="currentColor" stroke-width="0.075"/>
<path d="M10.4226 11.5043L10.2754 11.2803C10.4642 11.3987 10.6914 11.4627 10.941 11.4563L11.0882 11.6803C10.8418 11.6867 10.6114 11.6227 10.4226 11.5043Z" fill="currentColor" stroke="currentColor" stroke-width="0.075"/>
<path d="M11.0848 11.6801L10.9373 11.4556C10.9693 11.4556 11.0014 11.4556 11.0335 11.4492L11.181 11.6737C11.1489 11.6769 11.1168 11.6801 11.0848 11.6801Z" fill="currentColor" stroke="currentColor" stroke-width="0.075"/>
</g>
<mask id="mask6_6032_3405" style="mask-type:luminance" maskUnits="userSpaceOnUse" x="10" y="9" width="3" height="1">
<path d="M11.1074 9.07812C11.2098 9.08452 11.469 9.13252 11.6994 9.27332C11.9746 9.43971 12.0962 9.6157 12.1698 9.72129L12.221 9.79809C12.0002 9.46211 11.5938 9.26372 11.133 9.31171L10.9858 9.08772C11.0274 9.08452 11.0658 9.08132 11.1074 9.08132V9.07812Z" fill="currentColor" stroke="currentColor" stroke-width="0.075"/>
</mask>
<g mask="url(#mask6_6032_3405)">
<path d="M11.1331 9.30997L10.9856 9.08551C11.0177 9.08231 11.0497 9.0791 11.0818 9.0791L11.2293 9.30356C11.1972 9.30356 11.1652 9.30356 11.1331 9.30997Z" fill="currentColor" stroke="currentColor" stroke-width="0.075"/>
<path d="M11.2282 9.30255L11.0811 9.07856C11.3274 9.07216 11.5578 9.13616 11.7466 9.25455L11.8938 9.47854C11.705 9.36015 11.4778 9.29615 11.2282 9.30255Z" fill="currentColor" stroke="currentColor" stroke-width="0.075"/>
<path d="M11.8943 9.47887L11.7471 9.25488C11.7951 9.28368 11.8367 9.31568 11.8783 9.35408L12.0255 9.57807C11.9839 9.54287 11.9391 9.51087 11.8943 9.47887Z" fill="currentColor" stroke="currentColor" stroke-width="0.075"/>
<path d="M12.0251 9.57458L11.8779 9.35059C11.9099 9.37938 11.9419 9.40818 11.9707 9.44018L12.1179 9.66417C12.0891 9.63217 12.0571 9.60337 12.0251 9.57458Z" fill="currentColor" stroke="currentColor" stroke-width="0.075"/>
<path d="M12.1184 9.66735L11.9712 9.44336C11.9968 9.47216 12.0224 9.50096 12.0448 9.53296L12.192 9.75694C12.1696 9.72495 12.144 9.69615 12.1184 9.66735Z" fill="currentColor" stroke="currentColor" stroke-width="0.075"/>
<path d="M12.1922 9.75766L12.0447 9.5332C12.0447 9.5332 12.0639 9.56206 12.0735 9.57489L12.221 9.79935C12.221 9.79935 12.2018 9.77049 12.1922 9.75766Z" fill="currentColor" stroke="currentColor" stroke-width="0.075"/>
</g>
<mask id="mask7_6032_3405" style="mask-type:luminance" maskUnits="userSpaceOnUse" x="9" y="9" width="3" height="3">
<path d="M10.2053 9.43694C10.4165 9.24495 10.6853 9.11696 10.9829 9.08496C11.0276 9.15216 11.0692 9.21935 11.114 9.28335L11.13 9.30895C10.4485 9.37935 9.9045 9.96812 9.9205 10.6209C9.9237 10.8321 9.9877 11.0241 10.0933 11.1841C9.9781 11.0081 9.9237 10.9281 9.8757 10.7777C9.79891 10.5473 9.80531 10.3649 9.80531 10.3297C9.81491 10.1665 9.8405 9.78573 10.2053 9.43374V9.43694Z" fill="currentColor" stroke="currentColor" stroke-width="0.075"/>
</mask>
<g mask="url(#mask7_6032_3405)">
<path d="M10.0937 11.1838L9.94653 10.9598C9.84093 10.7998 9.78014 10.6078 9.77374 10.3966C9.76734 10.1182 9.86333 9.85263 10.0297 9.63184L10.1769 9.85583C10.0105 10.0766 9.91453 10.3422 9.92093 10.6206C9.92413 10.8318 9.98813 11.0238 10.0937 11.1838Z" fill="currentColor" stroke="currentColor" stroke-width="0.075"/>
<path d="M10.1767 9.85616L10.0295 9.63217C10.0647 9.58737 10.0999 9.54257 10.1415 9.50098L10.2887 9.72497C10.2471 9.76656 10.2119 9.81136 10.1767 9.85616Z" fill="currentColor" stroke="currentColor" stroke-width="0.075"/>
<path d="M10.2888 9.72526L10.1416 9.50127C10.1736 9.46927 10.2088 9.43407 10.244 9.40527L10.3912 9.62926C10.356 9.65806 10.3208 9.69006 10.2888 9.72526Z" fill="currentColor" stroke="currentColor" stroke-width="0.075"/>
<path d="M10.3908 9.62891L10.2437 9.40492C10.2757 9.37932 10.3076 9.35372 10.3428 9.32812L10.49 9.55211C10.4548 9.57771 10.4228 9.60331 10.3908 9.62891Z" fill="currentColor" stroke="currentColor" stroke-width="0.075"/>
<path d="M10.4937 9.55226L10.3462 9.3278C10.3783 9.30536 10.4103 9.28291 10.4456 9.26367L10.5931 9.48813C10.5578 9.50737 10.5258 9.52982 10.4937 9.55226Z" fill="currentColor" stroke="currentColor" stroke-width="0.075"/>
<path d="M10.5931 9.48893L10.4456 9.26447C10.4776 9.24523 10.5129 9.22599 10.5482 9.20996L10.6957 9.43442C10.6604 9.45045 10.6251 9.46969 10.5931 9.48893Z" fill="currentColor" stroke="currentColor" stroke-width="0.075"/>
<path d="M10.6956 9.43439L10.5481 9.20993C10.5834 9.1939 10.6186 9.17787 10.6571 9.16504L10.8046 9.3895C10.7661 9.40232 10.7309 9.41836 10.6956 9.43439Z" fill="currentColor" stroke="currentColor" stroke-width="0.075"/>
<path d="M10.8042 9.38989L10.6567 9.16543C10.6952 9.1494 10.7337 9.13978 10.7754 9.12695L10.9229 9.35141C10.8812 9.36103 10.8427 9.37386 10.8042 9.38989Z" fill="currentColor" stroke="currentColor" stroke-width="0.075"/>
<path d="M10.9226 9.35097L10.7751 9.12652C10.82 9.11369 10.8649 9.10407 10.913 9.09766L11.0605 9.32211C11.0156 9.32853 10.9675 9.33815 10.9226 9.35097Z" fill="currentColor" stroke="currentColor" stroke-width="0.075"/>
<path d="M11.0567 9.32197L10.9092 9.09751C10.9348 9.0943 10.9605 9.0911 10.9861 9.08789L11.1336 9.31235C11.108 9.31235 11.0823 9.31876 11.0567 9.32197Z" fill="currentColor" stroke="currentColor" stroke-width="0.075"/>
</g>
<path d="M11.1336 9.30873C11.8152 9.23834 12.3815 9.70871 12.3943 10.3615C12.4071 11.0143 11.8632 11.5998 11.1848 11.6734C10.5064 11.747 9.93685 11.2734 9.92405 10.6207C9.91125 9.9679 10.4552 9.38233 11.1336 9.30873Z" fill="currentColor" stroke="currentColor" stroke-width="0.075"/>
<path d="M9.32578 10.3617C9.34178 10.2753 9.36098 10.1889 9.38978 10.1025C9.39618 10.0865 9.39938 10.0705 9.40578 10.0545C9.43458 9.96813 9.46977 9.88493 9.51457 9.80494C9.51777 9.79534 9.52417 9.78894 9.53057 9.77934C9.57217 9.70254 9.62017 9.62894 9.67137 9.55535C9.67777 9.54575 9.68417 9.53615 9.69056 9.52655C9.73536 9.46575 9.78656 9.40816 9.83776 9.35376C9.85376 9.33776 9.86976 9.32176 9.88896 9.30256C9.91775 9.27376 9.94975 9.24496 9.97855 9.21616C10.001 9.19697 10.0233 9.18097 10.0425 9.16177C10.0681 9.14257 10.0937 9.12017 10.1193 9.10097C10.1449 9.08177 10.1705 9.06577 10.1961 9.04657C10.2185 9.03057 10.2441 9.01457 10.2697 9.00177C10.2985 8.98578 10.3273 8.96978 10.3561 8.95378C10.3785 8.94098 10.4041 8.92818 10.4297 8.91538C10.4585 8.89938 10.4905 8.88658 10.5193 8.87378C10.5449 8.86418 10.5705 8.85138 10.5961 8.84178C10.6249 8.82898 10.6569 8.81938 10.6857 8.80978C10.7145 8.80018 10.7433 8.79058 10.7721 8.78098C10.7977 8.77458 10.8265 8.76819 10.8553 8.75859C10.8937 8.74899 10.9321 8.73939 10.9705 8.73299C11.0185 8.72339 11.0697 8.71379 11.1209 8.71059C11.1881 8.70419 11.2521 8.70419 11.3161 8.70419C11.3673 8.70419 11.4185 8.70419 11.4665 8.71059C11.5049 8.71059 11.5401 8.71699 11.5753 8.72019C11.6265 8.72659 11.6745 8.73619 11.7225 8.74899C11.7577 8.75539 11.7897 8.76179 11.8217 8.77139C11.8729 8.78418 11.9177 8.80338 11.9657 8.82258C11.9945 8.83218 12.0233 8.84178 12.0521 8.85458C12.1065 8.87698 12.1544 8.90578 12.2056 8.93458C12.2248 8.94738 12.2472 8.95378 12.2664 8.96658C12.3336 9.00817 12.3976 9.05617 12.4584 9.10737C12.5128 9.15217 12.564 9.20336 12.6088 9.25776C12.6184 9.27056 12.628 9.28336 12.6376 9.29296C12.6792 9.34096 12.7176 9.39216 12.7528 9.44335L12.6056 9.21936C12.5928 9.19697 12.5768 9.17777 12.5608 9.15537C12.5384 9.12337 12.5128 9.09777 12.4904 9.06897C12.4808 9.05617 12.4712 9.04337 12.4616 9.03377C12.4616 9.03057 12.4552 9.02737 12.452 9.02417C12.4072 8.97618 12.3624 8.93138 12.3112 8.88658C12.2504 8.83538 12.1864 8.78738 12.1193 8.74579C12.1193 8.74579 12.1161 8.74579 12.1129 8.74259C12.0969 8.73299 12.0745 8.72339 12.0585 8.71379C12.0073 8.68499 11.9593 8.65619 11.9049 8.63379C11.8761 8.62099 11.8473 8.61139 11.8185 8.60179C11.7705 8.58259 11.7225 8.56659 11.6745 8.5506C11.6425 8.541 11.6073 8.5346 11.5721 8.5282C11.5241 8.5186 11.4761 8.5058 11.4249 8.4994C11.3897 8.493 11.3513 8.493 11.3161 8.4898C11.2649 8.4866 11.2169 8.4834 11.1657 8.4834C11.1497 8.4834 11.1305 8.4834 11.1145 8.4834C11.0665 8.4834 11.0185 8.4866 10.9705 8.493C10.9321 8.4962 10.8937 8.5026 10.8553 8.509C10.8425 8.509 10.8329 8.5154 10.8201 8.5154C10.7817 8.5218 10.7433 8.5314 10.7049 8.541C10.6857 8.5442 10.6665 8.5474 10.6505 8.5538C10.6409 8.5538 10.6313 8.56019 10.6249 8.56339C10.5961 8.57299 10.5673 8.58259 10.5385 8.59219C10.5193 8.59859 10.4969 8.60499 10.4745 8.61139C10.4649 8.61459 10.4553 8.62099 10.4457 8.62419C10.4201 8.63379 10.3945 8.64659 10.3689 8.65619C10.3497 8.66579 10.3305 8.67219 10.3081 8.68179C10.2985 8.68819 10.2889 8.69459 10.2761 8.69779C10.2505 8.71059 10.2281 8.72339 10.2057 8.73619C10.1897 8.74579 10.1705 8.75219 10.1545 8.76179C10.1417 8.76819 10.1321 8.77778 10.1193 8.78418C10.0937 8.80018 10.0713 8.81298 10.0489 8.82898C10.0329 8.83858 10.0201 8.84818 10.0042 8.85778C9.99135 8.86418 9.98175 8.87378 9.97215 8.88338C9.94655 8.90258 9.92095 8.92178 9.89536 8.94418C9.88256 8.95378 9.86656 8.96338 9.85376 8.97618C9.84416 8.98258 9.83776 8.99217 9.82816 8.99857C9.79616 9.02737 9.76736 9.05297 9.73856 9.08497C9.72576 9.09777 9.71296 9.10737 9.70016 9.12017C9.69696 9.12337 9.69056 9.12977 9.68737 9.13617C9.63617 9.19057 9.58497 9.24816 9.54017 9.30896C9.54017 9.30896 9.53377 9.31536 9.53377 9.31856C9.53057 9.32496 9.52737 9.33136 9.52097 9.33776C9.46978 9.40816 9.42178 9.48495 9.38018 9.56175C9.37698 9.57135 9.37058 9.57775 9.36418 9.58735C9.32258 9.66734 9.28738 9.75054 9.25539 9.83374C9.24899 9.84973 9.24259 9.86573 9.23939 9.88173C9.21059 9.96493 9.19139 10.0513 9.17539 10.1409C9.17539 10.1569 9.17219 10.1697 9.16899 10.1857C9.15619 10.2785 9.14659 10.3713 9.14979 10.4673C9.15619 10.7841 9.24899 11.0753 9.40898 11.3153L9.55617 11.5393C9.39618 11.2961 9.30338 11.0081 9.29698 10.6913C9.29698 10.5953 9.30338 10.5025 9.31618 10.4097C9.31618 10.3937 9.31938 10.3809 9.32258 10.3649L9.32578 10.3617Z" fill="currentColor" stroke="currentColor" stroke-width="0.075"/>
<path d="M11.1208 8.71706C12.1448 8.60826 12.9959 9.31863 13.0151 10.2978C13.0279 10.8898 12.7336 11.4497 12.2728 11.8209C12.1896 11.8881 12.1032 11.9489 12.0104 12.0033C11.7672 12.1441 11.4888 12.2401 11.1976 12.2721C10.7336 12.3201 10.3081 12.2017 9.97848 11.9681C9.89848 11.9105 9.82169 11.8465 9.75449 11.7761C9.4825 11.4977 9.31291 11.1201 9.30331 10.6882C9.28411 9.70901 10.0969 8.82585 11.124 8.71706H11.1208ZM11.1816 11.6737C11.8632 11.6033 12.4072 11.0146 12.3912 10.3618C12.3752 9.70901 11.812 9.23863 11.1304 9.30903C10.4489 9.37943 9.90488 9.9682 9.92088 10.621C9.93688 11.2737 10.5001 11.7441 11.1816 11.6737Z" fill="currentColor" stroke="currentColor" stroke-width="0.075"/>
<path d="M6.56371 14.4255C6.7941 14.3999 7.01169 14.4511 7.18768 14.5535C7.27408 14.6047 7.35088 14.6655 7.41487 14.7391C7.54607 14.8894 7.62606 15.0878 7.63246 15.3054C7.64526 15.859 7.18448 16.355 6.60851 16.4158C6.37812 16.4414 6.16053 16.3902 5.98454 16.2846C5.89814 16.2334 5.82455 16.1694 5.76055 16.0958C5.62936 15.9422 5.54936 15.7438 5.54616 15.523C5.53336 14.9758 5.99094 14.4863 6.56371 14.4255Z" fill="currentColor" stroke="currentColor" stroke-width="0.075"/>
<path d="M21.0887 5.67994C21.6646 5.61914 22.1414 6.01912 22.151 6.5695C22.1606 7.11987 21.7062 7.61585 21.1303 7.67664C20.9287 7.69904 20.7431 7.66384 20.5799 7.58705C20.4903 7.54545 20.4071 7.48785 20.3399 7.42066C20.1735 7.26066 20.0711 7.04307 20.0647 6.79028C20.0519 6.23991 20.5127 5.74073 21.0887 5.67994Z" fill="currentColor" stroke="currentColor" stroke-width="0.075"/>
<path d="M14.9326 19.1483C15.2922 18.9845 15.7275 18.8434 15.9368 18.4801C16.0078 18.3571 16.0397 18.2058 15.9978 18.0701C15.9868 18.0344 15.9688 17.9985 15.9375 17.9787C15.9062 17.959 15.8573 17.9629 15.8382 17.994C15.8177 18.0277 15.8382 18.0728 15.8655 18.1013C15.9554 18.1982 16.1053 18.2382 16.1802 18.3496C16.3971 18.6739 15.799 19.0028 15.5635 19.0602C15.4809 19.0802 15.391 19.0909 15.3142 19.056C15.2373 19.021 15.1833 18.9244 15.2206 18.8483C15.2461 18.7965 15.3074 18.7682 15.3651 18.771C15.4264 18.7742 15.4813 18.8059 15.5339 18.8369C15.8168 19.0008 16.0983 19.0231 16.3831 18.8527C16.5025 18.7814 16.6309 18.6992 16.6763 18.5668C16.6859 18.5396 16.6881 18.5032 16.6636 18.488C16.6408 18.4737 16.6117 18.4885 16.5894 18.5022C16.5315 18.5381 16.4663 18.5886 16.4712 18.6569C16.4739 18.6906 16.4947 18.7209 16.5175 18.7457C16.6031 18.8395 16.73 18.8934 16.8567 18.8889" stroke="currentColor" stroke-width="0.075" stroke-miterlimit="10"/>
<circle cx="19.0498" cy="2.55" r="1.8" fill="currentColor"/>
</g>
<defs>
<clipPath id="clip0_6032_3405">
<rect width="24" height="24" fill="currentColor"/>
</clipPath>
</defs>
</svg>
