<svg width="24" height="24" viewBox="0 0 24 24" fill="none" xmlns="http://www.w3.org/2000/svg">
<g clip-path="url(#clip0_3396_63876)">
<rect width="24" height="24" rx="12" fill="white"/>
<path d="M16.5915 6.35024C16.6658 6.35051 16.74 6.35077 16.8165 6.35105C17.0524 6.35209 17.2883 6.35444 17.5243 6.35683C17.6847 6.35777 17.8452 6.35863 18.0056 6.3594C18.3979 6.3613 18.7902 6.36497 19.1825 6.36855C19.1825 7.17293 19.1825 7.9773 19.1825 8.80605C18.9884 8.81064 18.7943 8.81524 18.5943 8.81997C18.4066 8.82518 18.2189 8.8304 18.0312 8.83581C17.9006 8.8394 17.77 8.84267 17.6394 8.8456C17.4518 8.84988 17.2643 8.85541 17.0767 8.86098C16.9074 8.8654 16.9074 8.8654 16.7346 8.86991C16.4519 8.87254 16.4519 8.87254 16.2762 9.0873C16.2762 9.24199 16.2762 9.39668 16.2762 9.55605C17.2353 9.58699 18.1943 9.61793 19.1825 9.6498C19.1825 10.3923 19.1825 11.1348 19.1825 11.8998C17.7439 11.9462 17.7439 11.9462 16.2762 11.9936C16.2453 13.8807 16.2143 15.7679 16.1825 17.7123C15.3781 17.7123 14.5737 17.7123 13.745 17.7123C13.714 15.8251 13.6831 13.9379 13.6512 11.9936C12.7115 11.9916 11.7717 11.9897 10.8035 11.9877C10.5067 11.9868 10.2098 11.986 9.904 11.9851C9.66991 11.9848 9.43582 11.9846 9.20174 11.9844C9.07922 11.9839 8.9567 11.9834 8.83047 11.9829C8.71439 11.9829 8.5983 11.9829 8.4787 11.9829C8.37753 11.9827 8.27635 11.9825 8.17211 11.9823C7.93332 11.9773 7.93332 11.9773 7.74495 12.0873C7.74495 12.1801 7.74495 12.2729 7.74495 12.3686C8.04543 12.5188 8.37336 12.481 8.70369 12.4854C8.86202 12.4885 9.02034 12.4916 9.17867 12.4947C9.42798 12.4991 9.67729 12.5033 9.92661 12.507C10.1674 12.5108 10.4082 12.5156 10.649 12.5205C10.7225 12.5213 10.7959 12.5221 10.8716 12.5229C11.7097 12.5414 12.3815 12.709 12.995 13.3061C13.5748 14.0205 13.7232 14.6454 13.6512 15.5561C13.5165 16.305 13.12 16.8391 12.5207 17.2974C11.9618 17.6661 11.5 17.7241 10.8307 17.7229C10.7657 17.723 10.7007 17.723 10.6338 17.723C10.4202 17.7229 10.2067 17.7222 9.99312 17.7215C9.84456 17.7213 9.69599 17.7211 9.54743 17.7211C9.15734 17.7207 8.76726 17.7198 8.37718 17.7187C7.97876 17.7178 7.58033 17.7174 7.1819 17.7169C6.40083 17.7159 5.61977 17.7142 4.8387 17.7123C4.8387 16.9389 4.8387 16.1654 4.8387 15.3686C6.78777 15.3376 8.73683 15.3067 10.745 15.2748C10.745 15.1511 10.745 15.0273 10.745 14.8998C10.6301 14.8989 10.5152 14.8981 10.3969 14.8971C9.96757 14.8934 9.5383 14.8872 9.10902 14.8803C8.92382 14.8777 8.7386 14.8757 8.55339 14.8744C8.28593 14.8724 8.0186 14.868 7.75118 14.8632C7.6694 14.8631 7.58763 14.863 7.50338 14.8628C6.74925 14.8451 6.03092 14.6065 5.49495 14.0561C4.91765 13.1993 4.75566 12.5639 4.8387 11.5248C4.92166 11.2376 5.0406 11.0171 5.2137 10.7748C5.28331 10.6762 5.35292 10.5776 5.42464 10.476C6.00595 9.88145 6.55356 9.6404 7.38247 9.63055C7.45018 9.62963 7.51789 9.6287 7.58764 9.62774C7.81134 9.62478 8.03504 9.62246 8.25875 9.62014C8.41389 9.61821 8.56902 9.61624 8.72416 9.61424C9.13243 9.60906 9.5407 9.60443 9.94898 9.59991C10.3656 9.5952 10.7822 9.58998 11.1989 9.5848C12.0163 9.57472 12.8338 9.56521 13.6512 9.55605C13.6687 9.44651 13.6862 9.33697 13.7043 9.22411C13.7284 9.07901 13.7526 8.93392 13.7768 8.78884C13.7939 8.68078 13.7939 8.68078 13.8114 8.57054C13.9038 8.02459 14.042 7.64519 14.4012 7.2123C14.4631 7.2123 14.525 7.2123 14.5887 7.2123C14.5887 7.15043 14.5887 7.08855 14.5887 7.0248C14.7363 6.91054 14.7363 6.91054 14.9344 6.79043C14.9986 6.75079 15.0627 6.71115 15.1289 6.67031C15.6238 6.40079 16.031 6.34265 16.5915 6.35024Z" fill="#02529C"/>
<path d="M12.7841 6.47953C13.4265 6.99699 13.4265 6.99699 13.5096 7.47562C13.5334 8.01875 13.5052 8.44745 13.1401 8.86796C12.7884 9.17166 12.4137 9.28786 11.958 9.30961C11.4492 9.26115 11.1584 9.13995 10.8154 8.75882C10.4694 8.26456 10.3995 7.99431 10.4638 7.39945C10.6349 6.90538 10.8925 6.66468 11.3076 6.3682C11.7952 6.20202 12.3182 6.27834 12.7841 6.47953Z" fill="#05549D"/>
</g>
<defs>
<clipPath id="clip0_3396_63876">
<rect width="24" height="24" fill="white"/>
</clipPath>
</defs>
</svg>
