<svg width="24" height="24" viewBox="0 0 24 24" fill="none" xmlns="http://www.w3.org/2000/svg">
<g clip-path="url(#clip0_3396_50853)">
<g filter="url(#filter0_d_3396_50853)">
<mask id="mask0_3396_50853" style="mask-type:luminance" maskUnits="userSpaceOnUse" x="0" y="0" width="24" height="24">
<path d="M23.9998 12C23.9998 5.37258 18.6272 0 11.9999 0C5.37253 0 0 5.37258 0 12C0 18.6274 5.37253 24 11.9999 24C18.6272 24 23.9998 18.6274 23.9998 12Z" fill="white"/>
</mask>
<g mask="url(#mask0_3396_50853)">
<path d="M23.9988 12.0005C23.9988 5.37309 18.6262 0.000504032 11.9989 0.000504032C5.37153 0.000504032 -0.00100806 5.37309 -0.00100806 12.0005C-0.00100806 18.6279 5.37153 24.0005 11.9989 24.0005C18.6262 24.0005 23.9988 18.6279 23.9988 12.0005Z" fill="#F0851D"/>
<path d="M12.0098 19.6418C12.0002 19.6348 11.9897 19.6253 11.9784 19.6158C11.7988 19.3876 10.6876 17.9611 9.55543 16.1313C9.21553 15.5486 8.99519 15.0937 9.03789 14.976C9.14864 14.6702 11.1226 14.5026 11.7303 14.78C11.9152 14.8642 11.9104 14.9752 11.9104 15.0405C11.9104 15.3203 11.8971 16.0715 11.8971 16.0715C11.8971 16.2267 12.0199 16.3526 12.1718 16.3522C12.3236 16.3522 12.4461 16.2254 12.4456 16.0699L12.4428 14.1989C12.4428 14.0362 12.2692 13.9958 12.237 13.9892C11.9196 13.9871 11.2756 13.9855 10.5837 13.9855C9.05721 13.9855 8.71567 14.0498 8.45709 13.8757C7.89527 13.4992 6.97658 10.9617 6.95521 9.53354C6.92502 7.51928 8.08901 5.77541 9.72901 4.91153C10.4137 4.55823 11.187 4.35887 12.0046 4.35887C14.6 4.35887 16.7378 6.36647 17.0222 8.94988C17.0222 8.95197 17.0222 8.95483 17.0226 8.95692C17.075 9.58139 13.7163 9.71389 13.0522 9.5323C12.9503 9.50463 12.9245 9.39732 12.9245 9.35149C12.9241 8.87683 12.9209 7.54034 12.9209 7.54034C12.9205 7.38473 12.7972 7.25927 12.6454 7.25927C12.494 7.25927 12.3711 7.38597 12.3711 7.54158L12.3772 10.0032C12.382 10.1584 12.5089 10.2001 12.5439 10.2076C12.9217 10.2076 13.8049 10.2071 14.6278 10.2071C15.7398 10.2071 16.207 10.3392 16.5179 10.5815C16.7246 10.7429 16.8043 11.052 16.7346 11.454C16.1107 15.0285 12.1597 19.4577 12.0111 19.6422L12.0098 19.6418Z" fill="white"/>
</g>
</g>
</g>
<defs>
<filter id="filter0_d_3396_50853" x="-6.93747" y="-5.78072" width="37.8739" height="37.8744" filterUnits="userSpaceOnUse" color-interpolation-filters="sRGB">
<feFlood flood-opacity="0" result="BackgroundImageFix"/>
<feColorMatrix in="SourceAlpha" type="matrix" values="0 0 0 0 0 0 0 0 0 0 0 0 0 0 0 0 0 0 127 0" result="hardAlpha"/>
<feOffset dy="1.12011"/>
<feGaussianBlur stdDeviation="3.36034"/>
<feComposite in2="hardAlpha" operator="out"/>
<feColorMatrix type="matrix" values="0 0 0 0 0 0 0 0 0 0 0 0 0 0 0 0 0 0 0.08 0"/>
<feBlend mode="normal" in2="BackgroundImageFix" result="effect1_dropShadow_3396_50853"/>
<feBlend mode="normal" in="SourceGraphic" in2="effect1_dropShadow_3396_50853" result="shape"/>
</filter>
<clipPath id="clip0_3396_50853">
<rect width="23.2498" height="23.25" fill="white" transform="scale(1.03226)"/>
</clipPath>
</defs>
</svg>
