<svg width="64" height="64" viewBox="0 0 64 64" fill="none" xmlns="http://www.w3.org/2000/svg">
<g clip-path="url(#clip0_3396_56708)">
<g filter="url(#filter0_d_3396_56708)">
<path d="M0 32C0 14.3269 14.3269 0 32 0C49.6731 0 64 14.3269 64 32C64 49.6731 49.6731 64 32 64C14.3269 64 0 49.6731 0 32Z" fill="currentColor"/>
<path fill-rule="evenodd" clip-rule="evenodd" d="M42.7612 40.279C42.6684 40.279 42.6201 40.2404 42.6201 40.1622V23.8635C42.6201 23.7701 42.6684 23.7236 42.7612 23.7236H50.69C56.8554 23.7236 57.039 30.4133 53.7517 31.7331C55.07 32.2976 56.2074 33.4723 56.2346 35.5286C56.2346 36.9877 55.7666 38.144 54.8297 38.9981C53.9078 39.8519 52.8159 40.279 51.5513 40.279H42.7612ZM45.564 26.5423V30.4133H50.7072C53.7833 30.2006 53.743 26.4785 50.4095 26.5423H45.564ZM45.564 33.2384V37.4418H50.9419C54.1263 37.3357 53.777 33.1676 50.9419 33.2384H45.564Z" fill="currentColor"/>
<path fill-rule="evenodd" clip-rule="evenodd" d="M13.1945 40.279C13.1009 40.279 13.054 40.2404 13.054 40.1622V26.5491H7.90911C7.81549 26.5491 7.76855 26.5026 7.76855 26.4094V23.8635C7.76855 23.7701 7.81549 23.7236 7.90911 23.7236H21.2966C21.3906 23.7236 21.4375 23.7701 21.4375 23.8635V26.4094C21.4375 26.5026 21.3906 26.5491 21.2966 26.5491H16.1766V40.1622C16.1766 40.2404 16.1296 40.279 16.0362 40.279H13.1945Z" fill="currentColor"/>
<path fill-rule="evenodd" clip-rule="evenodd" d="M21.1284 40.1618C21.0853 40.251 21.0302 40.2806 20.9636 40.2806H17.8655C17.7998 40.2806 17.7461 40.2273 17.7461 40.1618L24.2623 23.8288C24.2712 23.7952 24.3191 23.7258 24.3835 23.7258L27.5255 23.71C27.592 23.71 27.6455 23.7637 27.6455 23.8288L21.1284 40.1618Z" fill="currentColor"/>
<path fill-rule="evenodd" clip-rule="evenodd" d="M30.8437 40.1719C30.8716 40.2362 30.9316 40.2907 30.9971 40.2907H34.1075C34.1728 40.2907 34.2486 40.2362 34.2269 40.1719L27.6752 23.8288C27.643 23.7353 27.5794 23.71 27.514 23.71H24.4127C24.3465 23.71 24.2813 23.7464 24.2656 23.8117L30.8437 40.1719Z" fill="currentColor"/>
<path fill-rule="evenodd" clip-rule="evenodd" d="M37.7085 40.1438C37.7323 40.2073 37.7839 40.2628 37.8504 40.2628H40.9712C41.0372 40.2628 41.1062 40.2097 41.0913 40.1438L34.5566 23.8288C34.5186 23.7588 34.4965 23.7216 34.4312 23.7216L31.2936 23.71C31.2273 23.71 31.1729 23.7637 31.1729 23.8288L37.7085 40.1438Z" fill="currentColor"/>
<path fill-rule="evenodd" clip-rule="evenodd" d="M29.7223 27.6543C29.7809 27.7903 30.9716 30.8167 31.2599 31.5528C31.2925 31.6282 31.3739 31.6516 31.4231 31.5475C31.47 31.4451 34.5394 23.8012 34.5394 23.8012C34.5236 23.7473 34.4649 23.71 34.4036 23.71H31.2599C31.2153 23.7117 31.1616 23.7683 31.1399 23.8288L29.7095 27.3971C29.7095 27.3971 29.6568 27.4992 29.7223 27.6545" fill="currentColor"/>
</g>
</g>
<defs>
<filter id="filter0_d_3396_56708" x="-6" y="-5" width="76" height="76" filterUnits="userSpaceOnUse" color-interpolation-filters="sRGB">
<feFlood flood-opacity="0" result="BackgroundImageFix"/>
<feColorMatrix in="SourceAlpha" type="matrix" values="0 0 0 0 0 0 0 0 0 0 0 0 0 0 0 0 0 0 127 0" result="hardAlpha"/>
<feOffset dy="1"/>
<feGaussianBlur stdDeviation="3"/>
<feComposite in2="hardAlpha" operator="out"/>
<feColorMatrix type="matrix" values="0 0 0 0 0 0 0 0 0 0 0 0 0 0 0 0 0 0 0.08 0"/>
<feBlend mode="normal" in2="BackgroundImageFix" result="effect1_dropShadow_3396_56708"/>
<feBlend mode="normal" in="SourceGraphic" in2="effect1_dropShadow_3396_56708" result="shape"/>
</filter>
<clipPath id="clip0_3396_56708">
<rect width="64" height="64" fill="currentColor"/>
</clipPath>
</defs>
</svg>
