<svg width="24" height="24" viewBox="0 0 24 24" fill="none" xmlns="http://www.w3.org/2000/svg">
<g clip-path="url(#clip0_3396_73704)">
<g clip-path="url(#clip1_3396_73704)">
<circle cx="12" cy="12" r="12" fill="currentColor"/>
<path d="M5.05957 7.38482V8.32417H5.97207V10.5966H7.26704V8.32417H8.15274V7.38482H5.05957ZM9.05407 7.38482L7.82843 10.5966H9.06746L9.72059 8.68878L10.3871 10.5966H11.6395L10.4005 7.38482H9.05407ZM11.3533 7.38482V8.32417H12.268V10.5966H13.5608V8.32417H14.4487V7.38482H11.3533ZM15.3366 7.38482L14.1222 10.5966H15.3612L16.0143 8.68878L16.6808 10.5966H17.9355L16.6943 7.38477L15.3366 7.38482Z" fill="currentColor"/>
<path d="M17.2351 13.5713C16.8967 13.5713 16.5699 13.5986 16.3427 13.6272V16.8233H16.9242V15.4993H17.2217C17.293 15.4993 17.3641 15.5004 17.4207 15.5284C17.6171 15.5871 17.7169 15.7288 17.7875 16.0607C17.8727 16.4633 17.9609 16.7367 18.0023 16.8233H18.5971C18.5398 16.6941 18.4541 16.3344 18.3534 15.9332C18.2688 15.6159 18.142 15.3833 17.9016 15.298V15.2846C18.2126 15.1847 18.4853 14.8971 18.4853 14.4794C18.4853 14.2051 18.3823 13.9733 18.2124 13.8286C18.0299 13.6703 17.7751 13.585 17.4207 13.5714L17.2351 13.5713ZM20.2768 13.5713C19.5828 13.5713 19.1429 13.9732 19.1429 14.4883C19.1429 14.9598 19.4834 15.2447 20.0062 15.4299C20.4179 15.5722 20.5743 15.7152 20.5743 15.9578C20.5743 16.215 20.3625 16.4006 19.9928 16.4006C19.6958 16.4006 19.414 16.3006 19.2301 16.1881L19.1026 16.6712C19.2725 16.7859 19.6263 16.8859 19.9659 16.8859C20.7872 16.8859 21.167 16.4296 21.167 15.9153C21.167 15.4585 20.9013 15.1748 20.3484 14.9602C19.9249 14.8012 19.7378 14.6872 19.7378 14.4436C19.7378 14.2444 19.8936 14.0433 20.2611 14.0433C20.5582 14.0433 20.7876 14.145 20.9008 14.1998L21.0417 13.7301C20.8705 13.6466 20.6172 13.5713 20.2768 13.5713ZM8.61311 13.5758C7.72827 13.5884 7.11906 14.2795 7.11906 15.2555C7.11906 16.1893 7.69174 16.8793 8.58849 16.8793H8.61305C9.48536 16.8659 10.1228 16.2544 10.1228 15.2018C10.1228 14.2788 9.57496 13.5758 8.63767 13.5758H8.61311ZM14.3231 13.5758C13.4368 13.5884 12.8268 14.2795 12.8268 15.2555C12.8268 16.1893 13.3981 16.8793 14.2962 16.8793H14.3231C15.1926 16.8659 15.8283 16.2544 15.8283 15.2018C15.8283 14.2788 15.2844 13.5758 14.35 13.5758H14.3231ZM3.36607 13.6183L3.16699 16.83H3.71494L3.78204 15.5485C3.79853 15.0969 3.81553 14.5811 3.83128 14.1663H3.84691C3.93011 14.565 4.04742 15.0142 4.18015 15.4143L4.59617 16.7964H5.04575L5.52882 15.3986C5.66165 14.9992 5.79386 14.565 5.91129 14.1662C5.91129 14.5989 5.94301 15.0977 5.96053 15.5149L6.01195 16.83H6.59568L6.41229 13.6183H5.64511L5.19559 14.8976C5.07959 15.281 4.9641 15.6792 4.88022 16.0294H4.86235C4.78048 15.6638 4.68051 15.2821 4.56485 14.9155L4.14665 13.6183H3.36607ZM10.2771 13.6272V14.1215H11.2008V16.8256H11.7845V14.1215H12.6948V13.6272H10.2771ZM17.2932 14.0186H17.4207C17.7177 14.0599 17.9016 14.2181 17.9016 14.5375C17.9016 14.8087 17.7178 15.0112 17.4207 15.0542C17.3641 15.0542 17.3208 15.0676 17.2642 15.0676H16.9242V14.0477C16.9801 14.0327 17.1101 14.0186 17.2932 14.0186ZM8.61305 14.0433C9.19879 14.0433 9.49652 14.617 9.49652 15.2152C9.49652 15.8904 9.1855 16.4096 8.61305 16.4096C8.05463 16.4096 7.72741 15.8765 7.72741 15.2399C7.72741 14.6034 8.02801 14.0433 8.61305 14.0433ZM14.3231 14.0433C14.9066 14.0433 15.2042 14.617 15.2042 15.2152C15.2042 15.8904 14.8934 16.4096 14.3231 16.4096C13.7618 16.4096 13.4374 15.8765 13.4374 15.2399C13.4374 14.6034 13.7366 14.0433 14.3231 14.0433Z" fill="currentColor"/>
</g>
</g>
<defs>
<clipPath id="clip0_3396_73704">
<rect width="24" height="24" fill="currentColor"/>
</clipPath>
<clipPath id="clip1_3396_73704">
<rect width="24" height="24" fill="currentColor"/>
</clipPath>
</defs>
</svg>
