<svg width="16" height="16" viewBox="0 0 16 16" fill="none" xmlns="http://www.w3.org/2000/svg">
<g clip-path="url(#clip0_3396_71975)">
<path d="M15.5 7.75C15.5 3.46979 12.0302 0 7.75 0C3.46979 0 0 3.46979 0 7.75C0 12.0302 3.46979 15.5 7.75 15.5C12.0302 15.5 15.5 12.0302 15.5 7.75Z" fill="currentColor"/>
<path d="M8.81618 7.05862C8.91563 6.99684 9.03485 6.97216 9.1517 6.96884C9.28678 6.96729 9.42525 6.98524 9.54762 7.04343C9.52497 7.11832 9.50198 7.19299 9.47898 7.26772C9.38048 7.2188 9.2695 7.19483 9.15905 7.19538C9.09328 7.19701 9.02427 7.21057 8.97192 7.25135C8.9236 7.2887 8.89775 7.35259 8.91133 7.41158C8.91953 7.46215 8.95727 7.50265 9.00002 7.52999C9.0996 7.59439 9.2182 7.62105 9.3238 7.67392C9.4042 7.71279 9.48108 7.7637 9.53493 7.83456C9.60178 7.92182 9.62107 8.03672 9.60475 8.1426C9.59095 8.23977 9.53992 8.33173 9.46262 8.3953C9.38962 8.45674 9.29752 8.49365 9.20337 8.51216C9.0938 8.53359 8.98035 8.53507 8.86995 8.51855C8.77423 8.5047 8.67937 8.47946 8.59365 8.43517C8.6118 8.35725 8.63568 8.28055 8.65643 8.20322C8.77163 8.26614 8.90385 8.29884 9.03588 8.30039C9.11405 8.2991 9.1986 8.28506 9.25817 8.23197C9.30603 8.19089 9.32552 8.12546 9.3166 8.06513C9.31087 8.01281 9.2772 7.96726 9.2346 7.93638C9.14647 7.87099 9.0361 7.84709 8.9368 7.80286C8.83302 7.7566 8.7314 7.69284 8.6711 7.59616C8.6192 7.5148 8.6084 7.4142 8.62603 7.32144C8.64708 7.21268 8.71995 7.11684 8.81618 7.05862ZM1.58594 6.9855C2.09181 6.98516 2.59767 6.9855 3.10355 6.98531C3.1034 7.1345 3.10347 7.28368 3.10355 7.43282C2.95832 7.43316 2.81317 7.43282 2.668 7.43304C2.668 7.79078 2.66793 8.14858 2.66808 8.50639C2.45739 8.50617 2.24662 8.50647 2.03592 8.50617C2.03636 8.14851 2.03585 7.79085 2.03621 7.43316C1.88619 7.43268 1.73617 7.43316 1.58608 7.4329C1.58601 7.28376 1.58637 7.13464 1.58594 6.9855ZM3.54142 6.98495C3.76117 6.98594 3.98095 6.98524 4.20073 6.98524C4.404 7.49245 4.6076 7.99952 4.81117 8.50661C4.606 8.50596 4.40075 8.50632 4.19555 8.50646C4.0877 8.20681 3.98102 7.90671 3.87398 7.60676C3.86815 7.61374 3.86467 7.62195 3.86192 7.6304C3.75937 7.92238 3.65588 8.21405 3.55345 8.5061C3.35068 8.50661 3.14797 8.50617 2.94517 8.50632C3.14295 7.99882 3.34183 7.49168 3.54142 6.98495ZM4.6658 6.98495C5.1716 6.98594 5.6774 6.98509 6.1832 6.98536C6.18332 7.13457 6.18325 7.28376 6.18325 7.43297C6.0381 7.43304 5.89295 7.4329 5.7478 7.43297C5.74773 7.79078 5.74792 8.14858 5.74773 8.50632C5.53702 8.50654 5.3264 8.50584 5.1157 8.50666C5.11397 8.14885 5.1155 7.79092 5.11497 7.43304C4.96497 7.4329 4.81502 7.43304 4.665 7.4329C4.6655 7.28364 4.6639 7.13428 4.6658 6.98495ZM6.6196 6.98516C6.8393 6.98558 7.059 6.98536 7.27868 6.98531C7.48263 7.49223 7.68608 7.99937 7.88928 8.50661C7.68403 8.50591 7.47878 8.50654 7.27353 8.50632C7.1659 8.20533 7.05892 7.90419 6.9507 7.6034C6.84285 7.9039 6.73835 8.20552 6.63128 8.50639C6.42858 8.50647 6.22587 8.50596 6.02315 8.50661C6.22165 7.9993 6.41995 7.49201 6.6196 6.98516ZM9.63813 6.99233C10.0328 6.99241 10.4274 6.9926 10.822 6.99219C10.8229 7.06974 10.8221 7.14728 10.8224 7.22483C10.6721 7.22471 10.5218 7.22527 10.3715 7.22457C10.3702 7.65183 10.3715 8.07913 10.3709 8.50639C10.2755 8.50603 10.1802 8.50673 10.0848 8.50603C10.0854 8.07898 10.085 7.65198 10.0849 7.22498C9.936 7.22478 9.787 7.22491 9.63805 7.22491C9.63797 7.14736 9.63778 7.06981 9.63813 6.99233ZM11.002 6.9919C11.3057 6.9933 11.6094 6.99149 11.913 6.99282C11.9122 7.0684 11.9126 7.14392 11.9128 7.21951C11.7049 7.21958 11.4971 7.22006 11.2893 7.21921C11.2873 7.34895 11.2892 7.47867 11.2883 7.60839C11.485 7.60964 11.6818 7.60768 11.8786 7.60938C11.8767 7.68482 11.8801 7.76041 11.8769 7.83585C11.6808 7.83408 11.4846 7.83548 11.2885 7.83515C11.2882 7.98215 11.2888 8.12923 11.2882 8.27627C11.5079 8.27726 11.7276 8.27634 11.9473 8.27675C11.9478 8.35282 11.9463 8.42897 11.9481 8.50513C11.6326 8.50809 11.317 8.50525 11.0014 8.50654C11.0006 8.10414 11.0013 7.70175 11.0011 7.29938C11.0016 7.19686 10.9998 7.09434 11.002 6.9919ZM12.2414 6.99359C12.5455 6.99093 12.8498 6.99289 13.154 6.9926C13.1534 7.06826 13.1536 7.14385 13.1539 7.21951C12.946 7.21958 12.7381 7.21999 12.5303 7.21929C12.5284 7.34895 12.5303 7.47867 12.5293 7.60831C12.726 7.60945 12.9226 7.60817 13.1194 7.60894C13.1194 7.68405 13.1187 7.75905 13.1198 7.83415C12.9231 7.83633 12.7263 7.83444 12.5296 7.83515C12.5294 7.98223 12.5297 8.12931 12.5294 8.27641C12.7491 8.27711 12.9688 8.27641 13.1884 8.27675C13.1888 8.35297 13.1877 8.42918 13.189 8.5054C12.8737 8.5078 12.5583 8.50513 12.243 8.50673C12.2405 8.0024 12.2437 7.49792 12.2414 6.99359ZM13.4838 6.99204C13.5795 6.99296 13.6751 6.99197 13.7708 6.99255C13.7704 7.4196 13.7707 7.84667 13.7707 8.27372C13.985 8.27394 14.1993 8.2738 14.4136 8.2738C14.4136 8.35134 14.4137 8.42884 14.4135 8.50639C14.1037 8.50654 13.7939 8.50584 13.484 8.50673C13.4826 8.00184 13.483 7.49696 13.4838 6.99204Z" fill="currentColor"/>
</g>
<defs>
<clipPath id="clip0_3396_71975">
<rect width="16" height="15.5" fill="currentColor"/>
</clipPath>
</defs>
</svg>
