<svg width="24" height="24" viewBox="0 0 24 24" fill="none" xmlns="http://www.w3.org/2000/svg">
<g clip-path="url(#clip0_3396_50808)">
<path d="M24 12C24 5.37258 18.6274 0 12 0C5.37258 0 0 5.37258 0 12C0 18.6274 5.37258 24 12 24C18.6274 24 24 18.6274 24 12Z" fill="currentColor"/>
<path fill-rule="evenodd" clip-rule="evenodd" d="M20.4587 10.0363C20.2442 9.61451 19.9617 9.21022 19.6102 8.83106C18.8205 7.97865 17.7061 7.26933 16.3874 6.78011C15.0579 6.2871 13.5414 6.02621 12.0004 6.02621C10.4593 6.02621 8.94281 6.2871 7.61396 6.78011C6.29456 7.26937 5.18021 7.97872 4.39042 8.83106C4.0392 9.21015 3.75577 9.61504 3.54133 10.0371C5.2581 9.62194 8.19476 9.0738 10.9215 9.01586C11.1845 9.0102 11.3656 9.09442 11.4848 9.24555C11.6301 9.4296 11.6192 10.0856 11.6156 10.3791L11.5381 17.9648C11.6917 17.9699 11.8459 17.9732 12.0004 17.9732C12.1561 17.9732 12.3112 17.9706 12.4648 17.9656L12.3873 10.379C12.3832 10.0856 12.372 9.42952 12.5177 9.24551C12.6373 9.09442 12.8177 9.0102 13.0807 9.01578C15.8063 9.07327 18.7423 9.62152 20.4587 10.0363Z" fill="currentColor"/>
<path fill-rule="evenodd" clip-rule="evenodd" d="M20.8253 11.0231C18.3127 10.4551 16.6347 10.35 14.979 10.2581C13.5358 10.1779 13.517 10.6933 13.661 11.6781C13.6705 11.7382 13.6821 11.814 13.6958 11.9004C14.1799 14.7675 14.7827 17.2349 14.8863 17.6536C18.4047 16.8494 20.942 14.6196 20.942 12.0002C20.942 11.6703 20.9022 11.3435 20.8253 11.0231Z" fill="currentColor"/>
<path fill-rule="evenodd" clip-rule="evenodd" d="M10.3412 11.6781C10.4854 10.6933 10.4669 10.1779 9.02387 10.2581C7.36765 10.35 5.68926 10.455 3.17561 11.0234C3.09884 11.3438 3.05847 11.6702 3.05847 12.0001C3.05847 13.1322 3.51903 14.2277 4.39052 15.1689C5.18027 16.0213 6.29466 16.7306 7.61402 17.2202C8.09155 17.397 8.59547 17.5419 9.11455 17.6578C9.21197 17.2655 9.82862 14.7468 10.318 11.8284C10.327 11.7725 10.3354 11.7209 10.3412 11.6781Z" fill="currentColor"/>
</g>
<defs>
<clipPath id="clip0_3396_50808">
<rect width="23.25" height="23.25" fill="currentColor" transform="scale(1.03226)"/>
</clipPath>
</defs>
</svg>
