<svg width="24" height="24" viewBox="0 0 24 24" fill="none" xmlns="http://www.w3.org/2000/svg">
<g clip-path="url(#clip0_3396_64273)">
<circle cx="12" cy="12" r="12" fill="white"/>
<path d="M8.15653 9.46529C8.16517 9.4652 8.1738 9.4651 8.1827 9.46501C8.21153 9.46477 8.24033 9.46501 8.26916 9.46526C8.28987 9.46519 8.31058 9.46509 8.33129 9.46496C8.38746 9.46472 8.44361 9.46489 8.49978 9.46515C8.55856 9.46537 8.61735 9.46526 8.67613 9.46519C8.77483 9.46513 8.87352 9.46534 8.97222 9.46571C9.08634 9.46615 9.20046 9.46615 9.31459 9.46591C9.42437 9.4657 9.53416 9.46579 9.64394 9.46602C9.69067 9.46611 9.73739 9.4661 9.78412 9.466C9.83913 9.4659 9.89413 9.46606 9.94913 9.46643C9.96933 9.46652 9.98952 9.46652 10.0097 9.46642C10.0373 9.46631 10.0648 9.46655 10.0924 9.46682C10.1078 9.46686 10.1232 9.4669 10.1391 9.46693C10.187 9.47521 10.2025 9.48988 10.2322 9.52749C10.2449 9.55494 10.2449 9.55494 10.2532 9.58376C10.2579 9.59945 10.2579 9.59945 10.2628 9.61546C10.266 9.62634 10.2692 9.63722 10.2725 9.64843C10.28 9.67057 10.2876 9.69268 10.2952 9.71478C10.3128 9.76606 10.3128 9.76606 10.3128 9.79624C10.3254 9.79973 10.3254 9.79973 10.3382 9.80328C10.3752 9.82912 10.3778 9.85408 10.3856 9.89713C10.3879 9.91122 10.3879 9.91122 10.3901 9.92558C10.3918 9.93508 10.3935 9.94457 10.3952 9.95435C10.3993 9.97776 10.4031 10.0012 10.4069 10.0247C10.4158 10.0247 10.4246 10.0247 10.4338 10.0247C10.4374 10.0405 10.4374 10.0405 10.4412 10.0566C10.4446 10.0701 10.4479 10.0837 10.4514 10.0978C10.4547 10.1113 10.458 10.1249 10.4613 10.1389C10.4677 10.1555 10.4677 10.1555 10.4741 10.1725C10.4874 10.1769 10.5007 10.1814 10.5144 10.1859C10.5439 10.2302 10.5498 10.26 10.5598 10.3119C10.5932 10.4829 10.5932 10.4829 10.6647 10.6403C10.6947 10.693 10.6983 10.7307 10.7025 10.7906C10.7158 10.7906 10.7291 10.7906 10.7429 10.7906C10.8226 11.001 10.8226 11.001 10.8462 11.0737C10.8667 11.1368 10.89 11.1971 10.9243 11.2543C10.9439 11.287 10.959 11.3201 10.9736 11.3554C10.9908 11.3964 11.0096 11.4367 11.0281 11.4771C11.0385 11.5029 11.0385 11.5029 11.0385 11.5297C11.0518 11.5297 11.0651 11.5297 11.0788 11.5297C11.0973 11.5708 11.1088 11.6101 11.1174 11.654C11.1291 11.7095 11.1485 11.7571 11.1728 11.8082C11.191 11.8494 11.2035 11.8917 11.2158 11.9349C11.2261 11.9646 11.2261 11.9646 11.2669 11.9866C11.2669 11.9999 11.2669 12.0132 11.2669 12.0269C11.2758 12.0269 11.2847 12.0269 11.2938 12.0269C11.2972 12.0384 11.3006 12.05 11.3041 12.0618C11.3395 12.2026 11.3395 12.2026 11.4147 12.3226C11.4296 12.3601 11.4422 12.3981 11.4551 12.4364C11.4665 12.472 11.4665 12.472 11.4954 12.4973C11.503 12.5329 11.5053 12.5684 11.5088 12.6048C11.5221 12.6092 11.5354 12.6136 11.5491 12.6182C11.5536 12.6404 11.558 12.6625 11.5626 12.6854C11.5714 12.6854 11.5803 12.6854 11.5894 12.6854C11.5898 12.6932 11.5901 12.701 11.5905 12.709C11.596 12.7852 11.6136 12.823 11.6566 12.887C11.6687 12.9313 11.6767 12.9759 11.6835 13.0213C11.6924 13.0213 11.7012 13.0213 11.7104 13.0213C11.7414 13.1066 11.7399 13.1865 11.7373 13.2766C11.7461 13.2766 11.755 13.2766 11.7641 13.2766C11.7943 13.3426 11.8156 13.4073 11.8334 13.4777C11.8372 13.4867 11.8409 13.4958 11.8448 13.5051C11.8581 13.5095 11.8714 13.514 11.8851 13.5185C11.8895 13.5451 11.8939 13.5717 11.8985 13.5992C11.9074 13.5992 11.9162 13.5992 11.9254 13.5992C11.9288 13.6099 11.9288 13.6099 11.9323 13.6209C11.9629 13.715 11.9956 13.8085 12.0413 13.8965C12.0724 13.9614 12.0866 14.0239 12.0866 14.0964C12.0955 14.0964 12.1044 14.0964 12.1135 14.0964C12.1458 14.1609 12.1486 14.2271 12.1538 14.2979C12.1716 14.2979 12.1893 14.2979 12.2076 14.2979C12.2167 14.3211 12.2256 14.3444 12.2345 14.3676C12.2394 14.3806 12.2444 14.3935 12.2496 14.4068C12.261 14.4447 12.2636 14.4737 12.2613 14.5129C12.2251 14.5311 12.197 14.5281 12.1564 14.5281C12.1398 14.5281 12.1232 14.5282 12.1061 14.5282C12.0875 14.5282 12.069 14.5281 12.0505 14.5281C12.0311 14.5281 12.0117 14.5281 11.9922 14.5282C11.9394 14.5282 11.8866 14.5282 11.8337 14.5282C11.7785 14.5281 11.7233 14.5282 11.6681 14.5282C11.5754 14.5282 11.4827 14.5282 11.3899 14.5281C11.2826 14.528 11.1753 14.5281 11.068 14.5281C10.976 14.5282 10.884 14.5282 10.792 14.5282C10.737 14.5282 10.6819 14.5282 10.6269 14.5282C10.5752 14.5282 10.5235 14.5282 10.4718 14.5281C10.4528 14.5281 10.4338 14.5281 10.4148 14.5282C10.3889 14.5282 10.363 14.5281 10.3371 14.5281C10.3226 14.5281 10.3081 14.5281 10.2932 14.5281C10.2591 14.5264 10.2591 14.5264 10.2322 14.5129C10.2259 14.4903 10.2196 14.4677 10.2138 14.445C10.2051 14.4146 10.2051 14.4146 10.1785 14.3752C10.1535 14.3345 10.1463 14.2998 10.1398 14.2526C10.1292 14.1842 10.1065 14.1439 10.0662 14.0886C9.99399 13.9821 9.95355 13.8564 9.91181 13.7357C9.89562 13.6914 9.87661 13.6505 9.85464 13.6088C9.82437 13.5512 9.80179 13.4914 9.78205 13.4295C9.77058 13.3938 9.76 13.3677 9.74005 13.3354C9.72158 13.3035 9.72158 13.3035 9.7157 13.2582C9.70832 13.2106 9.69454 13.1814 9.66935 13.1409C9.64694 13.1027 9.63036 13.0623 9.61313 13.0215C9.60001 12.9913 9.60001 12.9913 9.57376 12.9541C9.56937 12.9288 9.56582 12.9033 9.56284 12.8777C9.55258 12.8099 9.53563 12.7668 9.49628 12.7115C9.47229 12.6737 9.46081 12.6338 9.44846 12.5911C9.43937 12.5607 9.43937 12.5607 9.41251 12.5241C9.40798 12.4834 9.40657 12.4429 9.405 12.402C9.39837 12.3583 9.38671 12.3424 9.35875 12.3091C9.34833 12.289 9.33852 12.2685 9.32936 12.2478C9.32473 12.2375 9.32011 12.2273 9.31534 12.2167C9.305 12.1882 9.305 12.1882 9.305 12.1479C9.29613 12.1479 9.28727 12.1479 9.27813 12.1479C9.27472 12.136 9.2713 12.1242 9.26779 12.112C9.26316 12.0964 9.25854 12.0808 9.25377 12.0647C9.24925 12.0493 9.24473 12.0339 9.24007 12.018C9.22637 11.9737 9.22637 11.9737 9.20375 11.9398C9.17919 11.8976 9.17153 11.8589 9.16223 11.8111C9.159 11.7949 9.15578 11.7786 9.15246 11.7619C9.14959 11.7474 9.14671 11.7328 9.14375 11.7179C9.13943 11.6999 9.13503 11.682 9.13031 11.6641C9.09927 11.6685 9.06823 11.673 9.03625 11.6775C9.0146 11.7266 9.00334 11.7723 8.99593 11.8254C8.98706 11.8254 8.97819 11.8254 8.96906 11.8254C8.94621 11.8802 8.94011 11.9288 8.93714 11.9875C8.93254 12.0556 8.92079 12.0831 8.87499 12.1344C8.86649 12.1653 8.86085 12.1957 8.85604 12.2273C8.84812 12.2554 8.84812 12.2554 8.8288 12.2739C8.79838 12.3055 8.79306 12.3385 8.78177 12.3805C8.7626 12.4466 8.7414 12.4953 8.7003 12.551C8.68635 12.5821 8.67286 12.6135 8.65999 12.6451C8.65541 12.6531 8.65084 12.6612 8.64613 12.6695C8.62386 12.7197 8.62245 12.7738 8.61642 12.828C8.60641 12.8727 8.59031 12.9049 8.5665 12.9438C8.51141 13.0373 8.47485 13.1485 8.45086 13.254C8.43322 13.3314 8.4015 13.3951 8.36435 13.4648C8.33119 13.5339 8.30422 13.6033 8.28079 13.6763C8.25761 13.7434 8.22691 13.8073 8.1947 13.8704C8.16887 13.9233 8.15242 13.9763 8.13843 14.0334C8.12494 14.0752 8.11064 14.1058 8.08888 14.1434C8.05962 14.194 8.04267 14.2409 8.02841 14.2979C8.00433 14.3784 7.98165 14.4522 7.9209 14.5129C7.88762 14.5163 7.88762 14.5163 7.84481 14.5163C7.82863 14.5163 7.81244 14.5164 7.79576 14.5164C7.77773 14.5163 7.7597 14.5163 7.74167 14.5162C7.72275 14.5162 7.70384 14.5162 7.68493 14.5163C7.63348 14.5163 7.58204 14.5162 7.53059 14.5161C7.47685 14.516 7.42311 14.516 7.36936 14.516C7.27911 14.516 7.18886 14.5159 7.09861 14.5157C6.99413 14.5155 6.88965 14.5154 6.78516 14.5154C6.68481 14.5154 6.58447 14.5154 6.48412 14.5153C6.44133 14.5152 6.39855 14.5152 6.35577 14.5152C6.30544 14.5152 6.25511 14.5151 6.20478 14.5149C6.18626 14.5149 6.16774 14.5149 6.14922 14.5149C6.12404 14.5149 6.09886 14.5148 6.07368 14.5147C6.05956 14.5147 6.04543 14.5147 6.03088 14.5147C5.99929 14.5129 5.99929 14.5129 5.98585 14.4995C5.98313 14.4736 5.98313 14.4736 5.9825 14.4415C5.98215 14.4311 5.9818 14.4206 5.98145 14.4098C5.98691 14.3711 6.00286 14.3559 6.02617 14.3248C6.03613 14.2937 6.04501 14.2623 6.05304 14.2307C6.06817 14.1712 6.08196 14.1306 6.12023 14.0829C6.12609 14.0581 6.13191 14.0333 6.1375 14.0085C6.17026 13.8957 6.23222 13.7912 6.28894 13.689C6.33666 13.6003 6.3755 13.5097 6.40579 13.4137C6.4203 13.3712 6.4388 13.3308 6.45744 13.29C6.47151 13.259 6.48402 13.2276 6.49649 13.196C6.50314 13.1808 6.5098 13.1655 6.51665 13.1498C6.53675 13.1039 6.53675 13.1039 6.5494 13.0633C6.56507 13.0172 6.58461 12.9739 6.60473 12.9297C6.61892 12.8981 6.61892 12.8981 6.63255 12.855C6.64431 12.8198 6.64431 12.8198 6.67118 12.7794C6.68005 12.7794 6.68892 12.7794 6.69806 12.7794C6.7005 12.7654 6.7005 12.7654 6.70299 12.751C6.70525 12.7388 6.7075 12.7265 6.70982 12.7139C6.712 12.7018 6.71418 12.6896 6.71643 12.6771C6.72494 12.6451 6.72494 12.6451 6.75181 12.6182C6.75799 12.5931 6.75799 12.5931 6.76189 12.5644C6.77508 12.4983 6.80472 12.4508 6.84068 12.3944C6.86448 12.3541 6.87508 12.3141 6.88619 12.2688C6.89561 12.2461 6.90506 12.2234 6.91501 12.2009C6.95169 12.1174 6.98227 12.0341 7.00713 11.9463C7.02616 11.8927 7.0386 11.8581 7.08776 11.8254C7.09951 11.797 7.09951 11.797 7.10708 11.764C7.12316 11.7054 7.14414 11.6523 7.1697 11.5972C7.18323 11.5682 7.18323 11.5682 7.19526 11.5289C7.20967 11.4866 7.22841 11.4488 7.24885 11.4091C7.26176 11.3833 7.27322 11.3573 7.28429 11.3307C7.30276 11.2878 7.30276 11.2878 7.32964 11.2475C7.33466 11.2242 7.33877 11.2006 7.34224 11.177C7.3527 11.114 7.36884 11.0629 7.39683 11.0057C7.4057 11.0057 7.41457 11.0057 7.4237 11.0057C7.42591 10.9942 7.42591 10.9942 7.42817 10.9825C7.43883 10.9306 7.45048 10.8849 7.47158 10.836C7.49311 10.7913 7.49311 10.7913 7.49677 10.7419C7.50567 10.6886 7.52401 10.6705 7.55808 10.6294C7.56935 10.6013 7.57878 10.5733 7.58753 10.5444C7.59112 10.5369 7.5947 10.5295 7.5984 10.5219C7.6117 10.5175 7.625 10.513 7.63871 10.5085C7.65158 10.4749 7.65158 10.4749 7.65971 10.4354C7.67634 10.3633 7.67634 10.3633 7.7059 10.3338C7.71265 10.3079 7.71931 10.282 7.72533 10.256C7.73717 10.2087 7.75415 10.1635 7.77141 10.1179C7.77468 10.1089 7.77796 10.0999 7.78133 10.0907C7.79835 10.0453 7.81703 10.0033 7.84159 9.96144C7.86261 9.92504 7.87661 9.89496 7.88815 9.85504C7.89919 9.81915 7.90827 9.79505 7.9293 9.76349C7.95786 9.71028 7.95786 9.65425 7.96122 9.59468C7.97009 9.59468 7.97896 9.59468 7.98809 9.59468C7.98893 9.58719 7.98976 9.57971 7.99061 9.572C8.01937 9.49015 8.0746 9.46534 8.15653 9.46529Z" fill="#0171B8"/>
<path d="M18.8842 9.49913C18.9193 9.49912 18.9545 9.49911 18.9896 9.49909C19.0631 9.49907 19.1366 9.4991 19.2101 9.49916C19.2942 9.49924 19.3783 9.49921 19.4623 9.49914C19.5442 9.49907 19.626 9.49908 19.7078 9.49912C19.7422 9.49913 19.7765 9.49912 19.8109 9.49908C19.9047 9.49902 19.9984 9.49936 20.0922 9.50046C20.1221 9.50077 20.1519 9.50095 20.1818 9.50102C20.2249 9.50118 20.268 9.50187 20.3112 9.50271C20.3304 9.50264 20.3304 9.50264 20.3501 9.50258C20.3839 9.50354 20.4131 9.50502 20.4455 9.51435C20.4791 9.55455 20.4791 9.55455 20.4993 9.59498C20.5081 9.59941 20.517 9.60385 20.5262 9.60842C20.5391 9.63382 20.5391 9.63382 20.5522 9.66553C20.5668 9.70005 20.5806 9.73048 20.6009 9.76211C20.6201 9.79641 20.6292 9.82596 20.6395 9.86374C20.6554 9.92029 20.6771 9.95253 20.7143 9.99812C20.7256 10.0335 20.733 10.0693 20.7412 10.1056C20.75 10.1189 20.7589 10.1322 20.768 10.1459C20.7728 10.1716 20.7766 10.1973 20.7798 10.2232C20.7906 10.2953 20.8098 10.3404 20.8487 10.4013C20.8487 10.4146 20.8487 10.4279 20.8487 10.4416C20.862 10.4416 20.8753 10.4416 20.889 10.4416C20.8945 10.4565 20.9001 10.4715 20.9058 10.4869C20.9095 10.4966 20.9132 10.5064 20.917 10.5164C20.9255 10.5391 20.9339 10.5619 20.942 10.5847C20.9464 10.5965 20.9508 10.6083 20.9553 10.6205C20.9593 10.6315 20.9633 10.6425 20.9675 10.6539C20.9811 10.6852 20.9811 10.6852 21.0108 10.703C21.0463 10.7314 21.0458 10.7524 21.0511 10.7968C21.0579 10.8535 21.0695 10.8806 21.104 10.9253C21.1114 10.9548 21.1114 10.9548 21.1157 10.9866C21.1317 11.0771 21.1714 11.1547 21.2125 11.2362C21.2484 11.3108 21.268 11.3866 21.2856 11.4673C21.2982 11.5225 21.3159 11.563 21.3459 11.6107C21.3616 11.646 21.3752 11.682 21.3887 11.7182C21.3942 11.7322 21.3942 11.7322 21.3998 11.7466C21.4187 11.7969 21.4312 11.839 21.4265 11.8929C21.4348 11.8953 21.4431 11.8978 21.4517 11.9004C21.4873 11.9245 21.4893 11.9446 21.4986 11.9852C21.509 12.0202 21.5251 12.0497 21.5424 12.0818C21.5692 12.1332 21.5821 12.1697 21.5743 12.2288C21.5876 12.2332 21.6009 12.2377 21.6146 12.2422C21.6451 12.3032 21.6654 12.3664 21.6852 12.4315C21.6943 12.4599 21.6943 12.4599 21.7221 12.4841C21.7366 12.5238 21.7487 12.5641 21.7611 12.6045C21.7756 12.6445 21.794 12.6764 21.8162 12.7126C21.8233 12.7316 21.8298 12.751 21.8355 12.7705C21.8513 12.8203 21.8712 12.8647 21.8953 12.9109C21.9261 12.9731 21.9514 13.0379 21.9774 13.1023C21.9825 13.1141 21.9876 13.126 21.9929 13.1382C22.0043 13.1694 22.0043 13.1694 22.0043 13.2098C22.0176 13.2142 22.0309 13.2186 22.0446 13.2232C22.0586 13.2652 22.059 13.2959 22.0597 13.3399C22.0654 13.4194 22.0876 13.4532 22.1434 13.5079C22.1769 13.5447 22.1821 13.5783 22.1924 13.6263C22.2013 13.6396 22.2102 13.6529 22.2193 13.6666C22.2252 13.6887 22.231 13.7107 22.2369 13.7327C22.2479 13.7658 22.2629 13.7953 22.279 13.8262C22.3109 13.8882 22.3332 13.9496 22.3537 14.016C22.3632 14.0446 22.3727 14.0732 22.3823 14.1017C22.3951 14.1403 22.408 14.179 22.4209 14.2176C22.4298 14.2176 22.4386 14.2176 22.4478 14.2176C22.4658 14.2573 22.4754 14.29 22.4814 14.3335C22.485 14.3805 22.485 14.3805 22.515 14.4192C22.5175 14.4679 22.5175 14.4679 22.515 14.5132C22.4911 14.5371 22.4564 14.5285 22.4242 14.5286C22.4074 14.5286 22.3905 14.5287 22.3732 14.5288C22.3544 14.5288 22.3356 14.5288 22.3168 14.5288C22.2972 14.5289 22.2775 14.529 22.2578 14.529C22.2043 14.5292 22.1507 14.5293 22.0972 14.5294C22.0637 14.5294 22.0303 14.5295 21.9969 14.5295C21.8924 14.5297 21.7879 14.5298 21.6834 14.5299C21.5626 14.5299 21.4418 14.5302 21.321 14.5306C21.2277 14.5309 21.1345 14.531 21.0412 14.531C20.9854 14.531 20.9297 14.5311 20.8739 14.5313C20.8215 14.5316 20.7691 14.5316 20.7166 14.5315C20.6974 14.5315 20.6781 14.5315 20.6588 14.5317C20.6326 14.5318 20.6063 14.5317 20.58 14.5316C20.5653 14.5316 20.5506 14.5316 20.5355 14.5317C20.4993 14.5267 20.4993 14.5267 20.4748 14.5085C20.4519 14.4765 20.4463 14.4449 20.438 14.4066C20.4271 14.357 20.4145 14.3165 20.3918 14.2714C20.3872 14.2502 20.3834 14.2289 20.38 14.2075C20.3694 14.1502 20.3517 14.1056 20.3237 14.0547C20.3111 14.0295 20.3111 14.0295 20.2977 13.9799C20.2873 13.9347 20.2873 13.9347 20.2574 13.9035C20.225 13.8609 20.2207 13.8274 20.2112 13.7757C20.205 13.7443 20.205 13.7443 20.1768 13.7154C20.1412 13.6686 20.1375 13.6262 20.1296 13.5688C20.1228 13.531 20.1128 13.4996 20.0961 13.4651C20.0873 13.4606 20.0784 13.4562 20.0693 13.4516C20.0578 13.4138 20.0495 13.3756 20.0408 13.337C20.0369 13.3261 20.033 13.3151 20.029 13.3038C20.0156 13.2994 20.0023 13.295 19.9886 13.2904C19.9744 13.2552 19.9744 13.2552 19.9618 13.2114C19.9462 13.1577 19.935 13.1269 19.8946 13.0888C19.8837 13.0622 19.8837 13.0622 19.8753 13.0325C19.8622 12.9899 19.8471 12.9524 19.8257 12.9133C19.7975 12.8598 19.7914 12.8129 19.7871 12.7529C19.7782 12.7529 19.7693 12.7529 19.7602 12.7529C19.707 12.61 19.707 12.61 19.6913 12.5513C19.6812 12.5091 19.6812 12.5091 19.6527 12.4707C19.6501 12.4444 19.6485 12.4181 19.6477 12.3917C19.6433 12.3248 19.6351 12.2903 19.5855 12.2422C19.5683 12.1907 19.5678 12.1417 19.565 12.0876C19.5629 12.0766 19.5608 12.0655 19.5586 12.0541C19.5453 12.0452 19.532 12.0364 19.5183 12.0272C19.5025 11.9936 19.489 11.9612 19.4763 11.9264C19.4728 11.9168 19.4692 11.9072 19.4655 11.8973C19.4393 11.8237 19.4267 11.7562 19.4243 11.6778C19.3888 11.6734 19.3533 11.669 19.3167 11.6644C19.3109 11.676 19.3109 11.676 19.305 11.6879C19.2958 11.7064 19.2863 11.7247 19.2763 11.7428C19.2616 11.7749 19.256 11.8035 19.2504 11.8383C19.2403 11.8924 19.2245 11.9265 19.1958 11.9735C19.1805 12.0223 19.1678 12.0716 19.1555 12.1213C19.1466 12.1213 19.1378 12.1213 19.1286 12.1213C19.1263 12.1322 19.124 12.143 19.1217 12.1542C19.0943 12.2751 19.0943 12.2751 19.0606 12.317C19.025 12.3618 19.0236 12.4037 19.0151 12.4594C19.0038 12.5172 18.9796 12.566 18.9539 12.6185C18.9441 12.6409 18.9343 12.6633 18.9245 12.6857C18.9018 12.7378 18.9018 12.7378 18.8867 12.7529C18.8837 12.7797 18.8807 12.8065 18.8784 12.8334C18.8733 12.8604 18.8733 12.8604 18.8464 12.9007C18.8405 12.9224 18.8347 12.9441 18.8288 12.9658C18.8036 13.0446 18.7666 13.121 18.723 13.1913C18.6983 13.2372 18.6898 13.2733 18.6801 13.3237C18.6666 13.3785 18.6434 13.4289 18.621 13.4806C18.6077 13.5116 18.5952 13.5426 18.5835 13.5743C18.5681 13.6161 18.5525 13.6578 18.5365 13.6994C18.5322 13.7107 18.5279 13.7221 18.5234 13.7338C18.5105 13.7607 18.5105 13.7607 18.4836 13.7742C18.4723 13.8074 18.4723 13.8074 18.4634 13.8464C18.452 13.8933 18.4435 13.9216 18.4164 13.9623C18.4072 14.005 18.3996 14.0475 18.3927 14.0906C18.3834 14.1426 18.3744 14.169 18.3358 14.2042C18.3247 14.2371 18.3247 14.2371 18.3173 14.2739C18.2991 14.3463 18.2704 14.3987 18.2283 14.4595C18.2229 14.4709 18.2175 14.4823 18.212 14.4941C18.188 14.5267 18.188 14.5267 18.1526 14.535C18.1383 14.5349 18.124 14.5349 18.1092 14.5348C18.0928 14.535 18.0764 14.5351 18.0594 14.5352C18.0412 14.535 18.023 14.5347 18.0047 14.5345C17.9856 14.5345 17.9664 14.5345 17.9472 14.5346C17.8951 14.5347 17.843 14.5343 17.7909 14.5339C17.7364 14.5336 17.6819 14.5336 17.6275 14.5335C17.536 14.5334 17.4446 14.533 17.3532 14.5325C17.2241 14.5317 17.095 14.5314 16.9659 14.5312C16.8766 14.531 16.7873 14.5308 16.698 14.5305C16.6764 14.5304 16.6547 14.5303 16.633 14.5302C16.5712 14.5301 16.5094 14.5298 16.4476 14.5294C16.4288 14.5293 16.4101 14.5292 16.3913 14.5292C16.3658 14.5291 16.3403 14.5289 16.3148 14.5287C16.2933 14.5286 16.2933 14.5286 16.2715 14.5285C16.2395 14.5267 16.2395 14.5267 16.226 14.5132C16.214 14.4227 16.2348 14.362 16.2798 14.2848C16.287 14.2698 16.2942 14.2549 16.3016 14.2394C16.3201 14.2042 16.3201 14.2042 16.347 14.1773C16.353 14.1508 16.3589 14.1243 16.3637 14.0976C16.3739 14.0698 16.3739 14.0698 16.3995 14.0443C16.4324 14.0112 16.445 13.9821 16.462 13.9388C16.4677 13.9245 16.4734 13.9101 16.4793 13.8954C16.5024 13.8348 16.5024 13.8348 16.5251 13.774C16.5412 13.731 16.5586 13.6885 16.5758 13.6459C16.5877 13.6158 16.5989 13.5855 16.6099 13.5549C16.6267 13.5118 16.6458 13.4777 16.6695 13.4382C16.681 13.414 16.6922 13.3897 16.7031 13.3651C16.7207 13.3256 16.7385 13.2868 16.7585 13.2484C16.7793 13.2049 16.7934 13.1611 16.8073 13.1151C16.8173 13.0888 16.8173 13.0888 16.8442 13.0619C16.852 13.0325 16.8569 13.0031 16.8622 12.9731C16.8727 12.935 16.8905 12.9073 16.9114 12.8738C16.9232 12.8494 16.9347 12.8247 16.9458 12.7999C16.9541 12.7814 16.9541 12.7814 16.9627 12.7625C16.9679 12.7505 16.9732 12.7384 16.9786 12.726C16.9834 12.7154 16.9883 12.7047 16.9933 12.6938C17.0136 12.6354 17.0168 12.5746 17.0234 12.5134C17.033 12.4676 17.0404 12.4608 17.0726 12.4304C17.0823 12.3951 17.0823 12.3951 17.0869 12.3565C17.0939 12.307 17.0981 12.2846 17.1264 12.2422C17.1352 12.2422 17.1441 12.2422 17.1533 12.2422C17.1547 12.234 17.1562 12.2257 17.1577 12.2172C17.1598 12.2063 17.162 12.1955 17.1642 12.1843C17.1672 12.1681 17.1672 12.1681 17.1703 12.1517C17.1813 12.1177 17.1943 12.1045 17.2204 12.081C17.2415 12.04 17.2478 12.0089 17.2524 11.9626C17.2579 11.9106 17.2746 11.8733 17.2996 11.8278C17.3221 11.784 17.3379 11.7377 17.3545 11.6913C17.3683 11.6644 17.3683 11.6644 17.4086 11.651C17.4184 11.6235 17.4184 11.6235 17.4229 11.5913C17.4327 11.5328 17.4327 11.5328 17.4623 11.5032C17.4672 11.4776 17.4709 11.4517 17.4741 11.4259C17.4845 11.3569 17.5021 11.3183 17.543 11.2613C17.55 11.2391 17.5564 11.2166 17.5623 11.1941C17.5797 11.1309 17.6065 11.0955 17.6505 11.0463C17.6748 11.007 17.6963 10.9663 17.7176 10.9253C17.7225 10.9161 17.7274 10.9069 17.7324 10.8975C17.772 10.8208 17.807 10.7459 17.8184 10.6599C17.8251 10.6163 17.8251 10.6163 17.844 10.5915C17.8695 10.557 17.8797 10.5253 17.8923 10.4844C17.9118 10.4233 17.9332 10.3656 17.9595 10.3072C17.9659 10.2922 17.9723 10.2773 17.9788 10.2618C18.0033 10.2051 18.0284 10.1486 18.0536 10.0922C18.0625 10.0922 18.0713 10.0922 18.0805 10.0922C18.0825 10.0805 18.0825 10.0805 18.0847 10.0687C18.0939 10.0384 18.0939 10.0384 18.1124 10.0141C18.137 9.98335 18.137 9.98335 18.1544 9.93681C18.1745 9.89061 18.1745 9.89061 18.1938 9.87355C18.225 9.83908 18.235 9.79811 18.2484 9.75455C18.2513 9.74557 18.2542 9.73659 18.2572 9.72733C18.2629 9.70941 18.2686 9.69148 18.2742 9.67353C18.319 9.53115 18.319 9.53115 18.3358 9.51435C18.516 9.48902 18.7028 9.49896 18.8842 9.49913Z" fill="#0171B8"/>
<path d="M11.8449 9.49739C11.8621 9.49732 11.8794 9.49725 11.8971 9.49718C11.9164 9.49724 11.9358 9.4973 11.9551 9.49736C11.9755 9.49733 11.9959 9.49729 12.0162 9.49724C12.0725 9.49712 12.1287 9.49718 12.1849 9.49726C12.2454 9.49732 12.306 9.49723 12.3665 9.49716C12.4852 9.49704 12.6039 9.49706 12.7227 9.49714C12.8191 9.4972 12.9156 9.49721 13.012 9.49718C13.0326 9.49717 13.0326 9.49717 13.0535 9.49717C13.0814 9.49716 13.1092 9.49715 13.1371 9.49714C13.3984 9.49706 13.6597 9.49715 13.9211 9.4973C14.1455 9.49742 14.3699 9.4974 14.5942 9.49727C14.8546 9.49713 15.1149 9.49707 15.3752 9.49715C15.403 9.49716 15.4307 9.49717 15.4585 9.49718C15.4721 9.49718 15.4858 9.49719 15.4999 9.49719C15.5962 9.49722 15.6926 9.49718 15.7889 9.49711C15.9063 9.49704 16.0237 9.49706 16.1411 9.4972C16.2011 9.49727 16.261 9.4973 16.3209 9.49721C16.3758 9.49713 16.4306 9.49717 16.4854 9.49732C16.5053 9.49735 16.5252 9.49733 16.545 9.49727C16.572 9.49719 16.5989 9.49729 16.6258 9.49739C16.6483 9.4974 16.6483 9.4974 16.6713 9.49741C16.7091 9.50073 16.7313 9.50805 16.7634 9.52765C16.7643 9.69644 16.765 9.86523 16.7655 10.034C16.7657 10.1124 16.7659 10.1908 16.7664 10.2692C16.7668 10.3448 16.7671 10.4204 16.7672 10.496C16.7673 10.5249 16.7674 10.5538 16.7676 10.5826C16.7679 10.623 16.768 10.6634 16.7679 10.7038C16.7682 10.7218 16.7682 10.7218 16.7684 10.74C16.7681 10.8037 16.765 10.8468 16.723 10.8983C16.6922 10.9137 16.6749 10.9135 16.6407 10.9136C16.629 10.9137 16.6174 10.9138 16.6054 10.9138C16.5927 10.9138 16.5799 10.9139 16.5667 10.9139C16.5465 10.914 16.5465 10.914 16.526 10.9141C16.4967 10.9142 16.4675 10.9143 16.4382 10.9144C16.392 10.9146 16.3457 10.9148 16.2995 10.9151C16.168 10.916 16.0365 10.9167 15.905 10.9171C15.8246 10.9174 15.7443 10.9179 15.6639 10.9185C15.6332 10.9187 15.6025 10.9188 15.5718 10.9188C15.529 10.9189 15.4861 10.9192 15.4433 10.9196C15.4305 10.9196 15.4178 10.9195 15.4046 10.9195C15.393 10.9196 15.3813 10.9198 15.3693 10.9199C15.3592 10.92 15.349 10.92 15.3386 10.9201C15.304 10.9268 15.2936 10.9381 15.2718 10.9655C15.2657 10.9937 15.2657 10.9937 15.2667 11.0254C15.2666 11.0377 15.2664 11.05 15.2663 11.0627C15.2664 11.0763 15.2665 11.0899 15.2666 11.1038C15.2665 11.1182 15.2664 11.1326 15.2664 11.1474C15.2662 11.1959 15.2663 11.2444 15.2664 11.2928C15.2663 11.3275 15.2662 11.3621 15.2661 11.3968C15.2659 11.4715 15.2658 11.5462 15.2658 11.621C15.2659 11.729 15.2656 11.8371 15.2654 11.9452C15.2649 12.1205 15.2646 12.2959 15.2645 12.4713C15.2644 12.487 15.2644 12.487 15.2644 12.5031C15.2644 12.5456 15.2643 12.5882 15.2643 12.6307C15.2642 12.7479 15.264 12.865 15.2639 12.9822C15.2639 12.9927 15.2638 13.0032 15.2638 13.014C15.2636 13.1887 15.2632 13.3634 15.2628 13.5381C15.2626 13.646 15.2624 13.7538 15.2624 13.8617C15.2624 13.9442 15.2623 14.0268 15.2621 14.1093C15.262 14.1433 15.262 14.1772 15.262 14.2111C15.2621 14.2573 15.262 14.3034 15.2618 14.3496C15.2618 14.3632 15.2619 14.3768 15.262 14.3908C15.2619 14.4031 15.2618 14.4154 15.2617 14.428C15.2617 14.4387 15.2617 14.4494 15.2617 14.4604C15.2583 14.4862 15.2583 14.4862 15.2314 14.5131C15.197 14.5164 15.197 14.5164 15.1525 14.5164C15.1356 14.5165 15.1188 14.5165 15.1015 14.5166C15.0827 14.5165 15.064 14.5164 15.0452 14.5164C15.0256 14.5164 15.0059 14.5164 14.9862 14.5164C14.9327 14.5165 14.8792 14.5164 14.8257 14.5163C14.7698 14.5161 14.7139 14.5162 14.658 14.5162C14.5641 14.5162 14.4701 14.516 14.3762 14.5159C14.2675 14.5156 14.1589 14.5156 14.0502 14.5156C13.9458 14.5156 13.8413 14.5155 13.7369 14.5154C13.6924 14.5154 13.6479 14.5153 13.6035 14.5153C13.5511 14.5153 13.4987 14.5152 13.4463 14.5151C13.4271 14.5151 13.4078 14.515 13.3886 14.5151C13.3623 14.5151 13.3361 14.515 13.3099 14.5149C13.2952 14.5149 13.2805 14.5148 13.2654 14.5148C13.2292 14.5131 13.2292 14.5131 13.1889 14.4997C13.1744 14.4617 13.1737 14.4249 13.1736 14.3846C13.1736 14.3722 13.1735 14.3599 13.1734 14.3472C13.1734 14.3338 13.1734 14.3203 13.1734 14.3064C13.1734 14.292 13.1733 14.2777 13.1732 14.2629C13.1731 14.2146 13.173 14.1663 13.1729 14.1181C13.1728 14.0835 13.1727 14.049 13.1726 14.0144C13.1723 13.94 13.1721 13.8655 13.172 13.7911C13.1717 13.6834 13.1714 13.5758 13.171 13.4681C13.1705 13.2935 13.1699 13.1188 13.1694 12.9441C13.1694 12.9284 13.1694 12.9284 13.1694 12.9124C13.1691 12.8276 13.1689 12.7427 13.1686 12.6579C13.1684 12.5836 13.1682 12.5094 13.168 12.4352C13.168 12.4195 13.168 12.4195 13.1679 12.4035C13.1675 12.2294 13.1669 12.0553 13.1664 11.8813C13.166 11.7738 13.1657 11.6664 13.1655 11.559C13.1653 11.4767 13.165 11.3945 13.1647 11.3123C13.1646 11.2785 13.1645 11.2447 13.1645 11.2109C13.1644 11.1649 13.1642 11.119 13.1641 11.073C13.164 11.0595 13.164 11.0459 13.164 11.0319C13.164 11.0197 13.1639 11.0075 13.1638 10.9949C13.1638 10.9843 13.1638 10.9737 13.1638 10.9627C13.1646 10.9383 13.1646 10.9383 13.1486 10.9252C13.1063 10.9239 13.0642 10.9234 13.0219 10.9235C13.0086 10.9235 12.9953 10.9234 12.9816 10.9234C12.9526 10.9234 12.9236 10.9233 12.8946 10.9233C12.833 10.9233 12.7715 10.923 12.71 10.9227C12.5952 10.9222 12.4805 10.9218 12.3658 10.9218C12.2862 10.9218 12.2065 10.9215 12.1269 10.921C12.0965 10.9208 12.066 10.9208 12.0356 10.9209C11.9931 10.9211 11.9506 10.9208 11.9081 10.9204C11.8955 10.9205 11.8828 10.9207 11.8698 10.9208C11.7862 10.9195 11.7862 10.9195 11.7499 10.8856C11.7328 10.8285 11.7321 10.7759 11.7326 10.7165C11.7326 10.7037 11.7325 10.6908 11.7325 10.6777C11.7323 10.6354 11.7325 10.5931 11.7327 10.5509C11.7327 10.5215 11.7327 10.4921 11.7327 10.4628C11.7327 10.4013 11.7328 10.3398 11.7331 10.2783C11.7334 10.1994 11.7334 10.1204 11.7333 10.0415C11.7333 9.98089 11.7334 9.92029 11.7335 9.85969C11.7335 9.83057 11.7336 9.80145 11.7335 9.77233C11.7335 9.73172 11.7337 9.69113 11.7339 9.65053C11.7339 9.63841 11.7338 9.6263 11.7338 9.61382C11.7347 9.51578 11.7476 9.49742 11.8449 9.49739Z" fill="#0171B8"/>
<path d="M1.59171 9.51249C1.60898 9.51244 1.62624 9.5124 1.64402 9.51236C1.66336 9.51238 1.6827 9.5124 1.70204 9.51242C1.72244 9.51239 1.74284 9.51236 1.76324 9.51233C1.81951 9.51224 1.87578 9.51225 1.93205 9.51226C1.99266 9.51226 2.05326 9.51219 2.11386 9.51213C2.23267 9.51201 2.35147 9.51198 2.47028 9.51197C2.56679 9.51196 2.66331 9.51194 2.75983 9.51189C3.03318 9.51178 3.30654 9.51171 3.5799 9.51172C3.60202 9.51172 3.60202 9.51172 3.62459 9.51173C3.63936 9.51173 3.65412 9.51173 3.66934 9.51173C3.9088 9.51173 4.14827 9.5116 4.38773 9.51141C4.63334 9.51122 4.87894 9.51113 5.12454 9.51114C5.26254 9.51114 5.40054 9.51111 5.53854 9.51096C5.65601 9.51084 5.77348 9.51081 5.89095 9.5109C5.95093 9.51095 6.01092 9.51095 6.07091 9.51083C6.12574 9.51073 6.18058 9.51074 6.23542 9.51086C6.25533 9.51088 6.27524 9.51086 6.29516 9.51078C6.32208 9.51069 6.349 9.51077 6.37592 9.51087C6.39091 9.51087 6.40591 9.51087 6.42136 9.51086C6.45638 9.51422 6.45638 9.51422 6.48325 9.54109C6.486 9.58265 6.48706 9.62302 6.48695 9.6646C6.48705 9.68381 6.48705 9.68381 6.48715 9.70341C6.48734 9.74589 6.48733 9.78836 6.4873 9.83084C6.48735 9.86027 6.48741 9.88969 6.48747 9.91911C6.48757 9.98084 6.48757 10.0426 6.4875 10.1043C6.48742 10.1836 6.48765 10.2628 6.48796 10.3421C6.48816 10.4028 6.48817 10.4636 6.48813 10.5244C6.48813 10.5536 6.4882 10.5829 6.48834 10.6121C6.4885 10.6529 6.48841 10.6937 6.48826 10.7345C6.48836 10.7467 6.48846 10.7588 6.48857 10.7714C6.48828 10.805 6.48828 10.805 6.48325 10.858C6.44151 10.8858 6.43267 10.8882 6.3854 10.8883C6.37366 10.8883 6.36193 10.8884 6.34983 10.8885C6.33699 10.8884 6.32416 10.8884 6.31093 10.8883C6.29738 10.8884 6.28383 10.8884 6.26987 10.8885C6.24041 10.8885 6.21096 10.8886 6.1815 10.8886C6.13492 10.8886 6.08833 10.8887 6.04174 10.889C5.90927 10.8896 5.77681 10.8899 5.64434 10.89C5.56335 10.8901 5.48236 10.8904 5.40137 10.8909C5.37047 10.891 5.33957 10.891 5.30867 10.891C5.2655 10.8909 5.22233 10.8911 5.17916 10.8914C5.15994 10.8912 5.15994 10.8912 5.14033 10.8911C5.12856 10.8912 5.11679 10.8914 5.10465 10.8915C5.09445 10.8915 5.08425 10.8915 5.07373 10.8916C5.03005 10.902 5.01685 10.9144 4.99165 10.9521C4.9836 10.9988 4.98443 11.0452 4.98486 11.0925C4.98474 11.1142 4.98474 11.1142 4.98461 11.1363C4.9844 11.1849 4.98458 11.2336 4.98474 11.2822C4.98467 11.3169 4.98457 11.3517 4.98445 11.3865C4.98423 11.4615 4.9842 11.5365 4.9843 11.6114C4.98444 11.7199 4.98426 11.8283 4.984 11.9367C4.98358 12.1127 4.98338 12.2886 4.98333 12.4646C4.98333 12.4751 4.98333 12.4857 4.98333 12.4965C4.98332 12.5071 4.98332 12.5176 4.98332 12.5285C4.98328 12.678 4.98319 12.8276 4.98303 12.9772C4.98302 12.993 4.98302 12.993 4.983 13.0091C4.98281 13.1844 4.98252 13.3597 4.98217 13.5351C4.98197 13.6433 4.98187 13.7515 4.98192 13.8597C4.98195 13.9425 4.98185 14.0253 4.9817 14.1081C4.98167 14.1422 4.98168 14.1762 4.98174 14.2103C4.98181 14.2566 4.98172 14.3029 4.9816 14.3492C4.98169 14.3696 4.98169 14.3696 4.98179 14.3905C4.98172 14.4028 4.98165 14.4152 4.98158 14.4279C4.98158 14.4386 4.98158 14.4493 4.98158 14.4603C4.97822 14.4862 4.97822 14.4862 4.95134 14.5131C4.9173 14.5165 4.9173 14.5165 4.87339 14.5166C4.84849 14.5167 4.84849 14.5167 4.82308 14.5169C4.80459 14.5169 4.78609 14.5168 4.7676 14.5168C4.7482 14.5168 4.7288 14.5169 4.7094 14.517C4.65662 14.5172 4.60384 14.5172 4.55106 14.5171C4.50704 14.5171 4.46303 14.5172 4.41901 14.5173C4.3152 14.5174 4.21138 14.5174 4.10756 14.5173C4.00036 14.5173 3.89316 14.5174 3.78596 14.5177C3.69401 14.5179 3.60206 14.518 3.51011 14.518C3.45516 14.518 3.4002 14.518 3.34525 14.5182C3.29357 14.5183 3.2419 14.5183 3.19023 14.5181C3.17124 14.5181 3.15225 14.5182 3.13326 14.5183C3.10739 14.5184 3.08151 14.5183 3.05564 14.5181C3.04114 14.5181 3.02665 14.5181 3.01171 14.5181C2.96998 14.5122 2.96098 14.5055 2.93566 14.4728C2.93059 14.4453 2.93059 14.4453 2.93053 14.4132C2.93041 14.4009 2.93029 14.3886 2.93017 14.376C2.93024 14.3625 2.93032 14.349 2.9304 14.3351C2.93032 14.3207 2.93024 14.3064 2.93015 14.2916C2.92993 14.2434 2.93 14.1951 2.93007 14.1469C2.92997 14.1124 2.92985 14.0779 2.92972 14.0434C2.92946 13.969 2.92934 13.8946 2.92932 13.8202C2.9293 13.7126 2.92903 13.605 2.92871 13.4974C2.9282 13.3228 2.92785 13.1481 2.92762 12.9735C2.92739 12.8039 2.92712 12.6344 2.92677 12.4648C2.92674 12.4544 2.92672 12.4439 2.9267 12.4332C2.92646 12.3192 2.9262 12.2052 2.92592 12.0913C2.92589 12.0813 2.92587 12.0712 2.92584 12.0609C2.92574 12.0209 2.92564 11.9809 2.92554 11.9409C2.92524 11.8236 2.925 11.7064 2.92487 11.5891C2.92477 11.5069 2.92462 11.4247 2.92444 11.3425C2.92438 11.3087 2.92434 11.2749 2.92432 11.2411C2.9243 11.1952 2.9242 11.1492 2.92408 11.1032C2.92409 11.0897 2.92411 11.0762 2.92412 11.0623C2.92407 11.05 2.92403 11.0378 2.92398 11.0251C2.92396 11.0145 2.92395 11.0039 2.92393 10.993C2.92323 10.9628 2.92323 10.9628 2.90879 10.9252C2.87146 10.9009 2.84162 10.8949 2.79756 10.8946C2.78049 10.8943 2.78049 10.8943 2.76307 10.8941C2.7507 10.8941 2.73833 10.8941 2.72558 10.894C2.71246 10.8939 2.69935 10.8938 2.68584 10.8936C2.6425 10.8932 2.59917 10.893 2.55583 10.8927C2.52578 10.8925 2.49573 10.8922 2.46568 10.892C2.38659 10.8913 2.30751 10.8907 2.22842 10.8902C2.14771 10.8897 2.06701 10.889 1.9863 10.8883C1.82795 10.887 1.6696 10.8859 1.51125 10.8849C1.51125 10.876 1.51125 10.8671 1.51125 10.858C1.50238 10.858 1.49351 10.858 1.48438 10.858C1.48438 10.419 1.48438 9.97997 1.48438 9.52765C1.52121 9.50923 1.55045 9.51251 1.59171 9.51249Z" fill="#0171B8"/>
<path d="M4.96513 10.8574C4.99174 10.8641 4.99174 10.8641 5.01888 10.8709C5.00797 10.879 4.99706 10.8872 4.98581 10.8956C4.94293 10.939 4.94358 10.9794 4.94279 11.0384C4.94295 11.0518 4.94312 11.0653 4.94328 11.0791C4.94314 11.1006 4.94314 11.1006 4.943 11.1226C4.94277 11.1708 4.94301 11.219 4.94326 11.2672C4.94319 11.3017 4.94309 11.3362 4.94296 11.3708C4.94273 11.4451 4.94275 11.5195 4.94292 11.5939C4.94317 11.7014 4.94303 11.809 4.94278 11.9165C4.94239 12.091 4.94228 12.2656 4.94236 12.4401C4.94244 12.6096 4.94245 12.7791 4.94233 12.9485C4.94233 12.959 4.94232 12.9694 4.94231 12.9802C4.94223 13.0941 4.94211 13.2081 4.94194 13.322C4.94193 13.332 4.94191 13.342 4.9419 13.3523C4.94184 13.3923 4.94178 13.4323 4.94171 13.4723C4.94152 13.5895 4.94144 13.7067 4.94156 13.8239C4.94164 13.9061 4.94159 13.9882 4.9415 14.0703C4.94148 14.1041 4.94151 14.1379 4.94159 14.1717C4.9417 14.2176 4.94164 14.2635 4.94154 14.3094C4.94165 14.3297 4.94165 14.3297 4.94176 14.3504C4.94167 14.3687 4.94167 14.3687 4.94158 14.3874C4.94159 14.398 4.9416 14.4086 4.9416 14.4196C4.93825 14.4453 4.93825 14.4453 4.91138 14.4722C4.87764 14.4757 4.87764 14.4757 4.83417 14.4759C4.80953 14.4762 4.80953 14.4762 4.78438 14.4764C4.76608 14.4764 4.74777 14.4765 4.72946 14.4765C4.71026 14.4766 4.69106 14.4767 4.67186 14.4769C4.61964 14.4773 4.56742 14.4775 4.5152 14.4776C4.46066 14.4779 4.40612 14.4782 4.35158 14.4786C4.24826 14.4792 4.14494 14.4797 4.04162 14.4801C3.92401 14.4806 3.8064 14.4813 3.6888 14.482C3.44683 14.4834 3.20486 14.4846 2.96289 14.4856C2.96733 14.4723 2.97176 14.459 2.97633 14.4453C3.6149 14.4409 4.25346 14.4365 4.91138 14.4319C4.91188 14.1784 4.91238 13.9248 4.9129 13.6636C4.91331 13.5034 4.91372 13.3432 4.91419 13.183C4.91443 13.0989 4.91467 13.0148 4.91491 12.9306C4.91494 12.9201 4.91496 12.9095 4.915 12.8987C4.91547 12.7283 4.9158 12.558 4.91609 12.3877C4.91638 12.2129 4.91682 12.0382 4.91741 11.8634C4.91777 11.7555 4.918 11.6477 4.91809 11.5398C4.91817 11.4572 4.91846 11.3745 4.91883 11.2919C4.91895 11.2579 4.91899 11.224 4.91897 11.19C4.91895 11.1438 4.91917 11.0975 4.91946 11.0513C4.91936 11.031 4.91936 11.031 4.91926 11.0103C4.91939 10.9979 4.91952 10.9855 4.91965 10.9728C4.91967 10.9621 4.9197 10.9514 4.91972 10.9404C4.92605 10.9041 4.94133 10.885 4.96513 10.8574Z" fill="#297BB8"/>
</g>
<defs>
<clipPath id="clip0_3396_64273">
<rect width="24" height="24" fill="white"/>
</clipPath>
</defs>
</svg>
