<svg width="24" height="24" viewBox="0 0 24 24" fill="none" xmlns="http://www.w3.org/2000/svg">
<g clip-path="url(#clip0_2275_37460)">
<path d="M8.99561 1.99902V3.99902M14.9956 1.99902V3.99902M8.99561 19.999V21.999M14.9956 19.999V21.999M19.9956 8.99902H21.9956M19.9956 13.999H21.9956M1.99561 8.99902H3.99561M1.99561 13.999H3.99561M8.79561 19.999H15.1956C16.8758 19.999 17.7158 19.999 18.3576 19.672C18.9221 19.3844 19.381 18.9255 19.6686 18.361C19.9956 17.7193 19.9956 16.8792 19.9956 15.199V8.79902C19.9956 7.11887 19.9956 6.27879 19.6686 5.63705C19.381 5.07257 18.9221 4.61362 18.3576 4.326C17.7158 3.99902 16.8758 3.99902 15.1956 3.99902H8.79561C7.11545 3.99902 6.27537 3.99902 5.63363 4.326C5.06915 4.61362 4.61021 5.07257 4.32259 5.63705C3.99561 6.27879 3.99561 7.11887 3.99561 8.79902V15.199C3.99561 16.8792 3.99561 17.7193 4.32259 18.361C4.61021 18.9255 5.06915 19.3844 5.63363 19.672C6.27537 19.999 7.11545 19.999 8.79561 19.999ZM10.5956 14.999H13.3956C13.9557 14.999 14.2357 14.999 14.4496 14.89C14.6378 14.7942 14.7907 14.6412 14.8866 14.453C14.9956 14.2391 14.9956 13.9591 14.9956 13.399V10.599C14.9956 10.039 14.9956 9.75894 14.8866 9.54503C14.7907 9.35687 14.6378 9.20389 14.4496 9.10802C14.2357 8.99902 13.9557 8.99902 13.3956 8.99902H10.5956C10.0356 8.99902 9.75553 8.99902 9.54162 9.10802C9.35345 9.20389 9.20047 9.35687 9.1046 9.54503C8.99561 9.75894 8.99561 10.039 8.99561 10.599V13.399C8.99561 13.9591 8.99561 14.2391 9.1046 14.453C9.20047 14.6412 9.35345 14.7942 9.54162 14.89C9.75553 14.999 10.0356 14.999 10.5956 14.999Z" stroke="#5E6063" stroke-width="1.75" stroke-linecap="round" stroke-linejoin="round"/>
</g>
<defs>
<clipPath id="clip0_2275_37460">
<rect width="24" height="24" fill="white"/>
</clipPath>
</defs>
</svg>
