<svg width="24" height="24" viewBox="0 0 24 24" fill="none" xmlns="http://www.w3.org/2000/svg">
<g clip-path="url(#clip0_2457_7532)">
<path d="M21.5016 10.6302L21.0521 7.03461C20.8758 5.62434 20.7877 4.91919 20.4558 4.38781C20.1634 3.91964 19.741 3.54675 19.2402 3.31468C18.6717 3.05127 17.9611 3.05127 16.5399 3.05127H7.5159C6.09465 3.05127 5.38403 3.05127 4.81559 3.31468C4.31477 3.54675 3.89236 3.91964 3.59996 4.38781C3.26808 4.91919 3.17994 5.62433 3.00365 7.03461L2.5542 10.6302M5.86999 14.4197H18.1858M5.86999 14.4197C4.03873 14.4197 2.5542 12.9352 2.5542 11.1039C2.5542 9.27264 4.03873 7.78811 5.86999 7.78811H18.1858C20.017 7.78811 21.5016 9.27264 21.5016 11.1039C21.5016 12.9352 20.017 14.4197 18.1858 14.4197M5.86999 14.4197C4.03873 14.4197 2.5542 15.9042 2.5542 17.7355C2.5542 19.5667 4.03873 21.0513 5.86999 21.0513H18.1858C20.017 21.0513 21.5016 19.5667 21.5016 17.7355C21.5016 15.9042 20.017 14.4197 18.1858 14.4197M6.34367 11.1039H6.35315M6.34367 17.7355H6.35315M12.0279 11.1039H17.7121M12.0279 17.7355H17.7121" stroke="#5E6063" stroke-width="1.75" stroke-linecap="round" stroke-linejoin="round"/>
</g>
<defs>
<clipPath id="clip0_2457_7532">
<rect width="24" height="24" fill="white"/>
</clipPath>
</defs>
</svg>
