<svg width="20" height="20" viewBox="0 0 20 20" fill="none" xmlns="http://www.w3.org/2000/svg">
<g clip-path="url(#clip0_3396_53453)">
<path d="M20 10C20 4.47715 15.5228 0 10 0C4.47715 0 0 4.47715 0 10C0 15.5228 4.47715 20 10 20C15.5228 20 20 15.5228 20 10Z" fill="white"/>
<path fill-rule="evenodd" clip-rule="evenodd" d="M4.74373 7.99408L3.06048 7.99395V8.38836L3.67398 8.38851V9.68267H4.12932L4.12917 8.38836L4.74373 8.38845V7.99408Z" fill="#656262"/>
<mask id="mask0_3396_53453" style="mask-type:luminance" maskUnits="userSpaceOnUse" x="1" y="5" width="18" height="10">
<path d="M1.8629 5.93145H18.1378V14.0689H1.8629V5.93145Z" fill="white"/>
</mask>
<g mask="url(#mask0_3396_53453)">
<path fill-rule="evenodd" clip-rule="evenodd" d="M9.32351 10.8572C9.32351 10.7094 9.20323 10.5907 9.05548 10.5907H9.05242H8.46314C8.41139 10.5907 8.38551 10.6166 8.35808 10.6578C8.35655 10.6592 8.18145 10.912 8.18145 10.912H8.75245C8.81948 10.9151 8.87276 10.9699 8.87276 11.0384V11.8288H9.32351V10.8602V10.8572Z" fill="#E51635"/>
<path fill-rule="evenodd" clip-rule="evenodd" d="M7.72984 10.1391H8.18056V11.8279H7.72984V10.1391Z" fill="#E51635"/>
<path fill-rule="evenodd" clip-rule="evenodd" d="M11.6455 10.5907H10.3649V11.8287H10.8187V10.912H11.3333C11.4035 10.912 11.4613 10.9684 11.4613 11.0384V11.8287H11.9136V10.8572C11.9136 10.7094 11.7932 10.5907 11.6455 10.5907Z" fill="#E51635"/>
<path fill-rule="evenodd" clip-rule="evenodd" d="M5.22579 10.1391H3.06048V11.8279H3.5097V10.5335H3.99085C4.03654 10.5335 4.0731 10.5716 4.0731 10.6173V11.8279H4.52385V10.6173C4.52385 10.57 4.56191 10.5335 4.60757 10.5335H4.6091H4.96238C5.03091 10.5335 5.08723 10.5883 5.08723 10.6569V11.8279H5.53648V10.4497C5.53648 10.2777 5.39788 10.1391 5.22579 10.1391Z" fill="#E51635"/>
<path fill-rule="evenodd" clip-rule="evenodd" d="M9.61895 10.9931V11.8291H10.0697V11.0814V10.6048C10.0697 10.6048 9.86105 10.7342 9.71336 10.8271C9.65698 10.8636 9.61895 10.9246 9.61895 10.9931Z" fill="#E51635"/>
<path fill-rule="evenodd" clip-rule="evenodd" d="M9.61895 10.1371H10.0697V10.4492L9.61895 10.7476V10.1371Z" fill="#E51635"/>
<path fill-rule="evenodd" clip-rule="evenodd" d="M14.3249 10.5907C14.2122 10.5907 14.1391 10.6775 14.1391 10.7704V11.8287H14.5929V11.0399C14.5929 10.9699 14.6431 10.9104 14.7147 10.9104H15.0512C15.0999 10.9075 15.1411 10.8785 15.167 10.8404C15.1685 10.8389 15.3435 10.5907 15.3435 10.5907H14.3249Z" fill="#E51635"/>
<path fill-rule="evenodd" clip-rule="evenodd" d="M13.3898 10.1391V10.5898V11.5187H12.7366C12.6909 11.5187 12.6589 11.4791 12.6589 11.4456V11.0375H12.6604C12.6604 10.9675 12.7167 10.9111 12.7868 10.9111H13.1172C13.1659 10.9111 13.2162 10.8822 13.2375 10.8487L13.3898 10.5898H12.4732C12.3269 10.5898 12.2067 10.7086 12.2067 10.8563V10.8593V11.6055C12.2067 11.7486 12.3208 11.8279 12.4259 11.8279H13.8421V10.1391H13.3898Z" fill="#E51635"/>
<path fill-rule="evenodd" clip-rule="evenodd" d="M16.6663 10.5907H15.6247C15.5729 10.5907 15.5258 10.615 15.4968 10.6547L15.3217 10.912H16.3709C16.4363 10.9151 16.4896 10.9714 16.4896 11.0384L16.488 11.5302H15.7024V11.3886C15.7024 11.3613 15.7252 11.3384 15.7526 11.3384H16.3024V11.1557C16.3024 11.1115 16.2749 11.0871 16.2368 11.0871H15.4754C15.381 11.0871 15.3065 11.1617 15.3065 11.2546V11.7039C15.3065 11.7069 15.3065 11.7084 15.308 11.7115C15.3186 11.7784 15.3765 11.8287 15.4465 11.8287H16.9328V10.8572C16.9328 10.7094 16.814 10.5907 16.6663 10.5907Z" fill="#E51635"/>
<path fill-rule="evenodd" clip-rule="evenodd" d="M7.18236 10.5907H6.1408C6.09055 10.5907 6.04183 10.615 6.01442 10.6547L5.83777 10.912H6.88696C6.95246 10.9151 7.00574 10.9714 7.00574 11.0384V11.5302H6.21846V11.3886C6.21846 11.3613 6.2413 11.3384 6.26871 11.3384H6.81839V11.1557C6.81839 11.1115 6.79102 11.0871 6.75292 11.0871H5.99155C5.89714 11.0871 5.82258 11.1617 5.82258 11.2546V11.7039C5.82258 11.7069 5.82258 11.7084 5.82408 11.7115C5.83474 11.7784 5.89258 11.8287 5.96264 11.8287H7.44886V10.8572C7.44886 10.7094 7.33011 10.5907 7.18236 10.5907Z" fill="#E51635"/>
<path fill-rule="evenodd" clip-rule="evenodd" d="M10.0701 8.73313C10.0701 8.58544 9.94976 8.46666 9.80207 8.46666H9.79898H9.19419C9.14235 8.46666 9.11647 8.49253 9.08907 8.53363C9.08757 8.53516 8.91241 8.78794 8.91241 8.78794H9.49901C9.56601 8.79103 9.61932 8.84585 9.61932 8.91431V9.70466H10.0701V8.73619V8.73313ZM8.46169 8.01594H8.91241V9.70466H8.46169V8.01594Z" fill="#656262"/>
<path fill-rule="evenodd" clip-rule="evenodd" d="M7.21058 9.25706H7.21211C7.21211 9.3271 7.26874 9.38344 7.33914 9.38344L8.1813 9.38341V9.70475H7.02386C6.87695 9.70475 6.75605 9.58594 6.75605 9.43825V9.43522V8.52203V8.71213C6.75605 8.56444 6.87695 8.44563 7.02386 8.44563H8.17858L8.10752 8.62222C8.09249 8.65947 8.08467 8.69113 8.05049 8.71516C8.02608 8.73238 8.00542 8.74435 7.97402 8.74435H7.33914C7.26874 8.74435 7.21211 8.80069 7.21211 8.87075H7.21058V9.25706Z" fill="#656262"/>
<path fill-rule="evenodd" clip-rule="evenodd" d="M5.18784 9.68961H6.15215C6.2024 9.68961 6.25112 9.66521 6.27856 9.62568L6.45518 9.3683H5.48325C5.41781 9.36527 5.36446 9.30889 5.36446 9.24189V8.75008H6.0745V8.89168C6.0745 8.91908 6.05165 8.94193 6.02421 8.94193H5.55184V9.12468C5.55184 9.1688 5.57925 9.19318 5.61728 9.19318H6.30137C6.39578 9.19318 6.4704 9.11861 6.4704 9.02571V8.57646C6.4704 8.57343 6.4704 8.57193 6.46887 8.56886C6.45821 8.50186 6.40034 8.45161 6.33034 8.45161H5.0864H4.92137V8.60974V9.42311C4.92137 9.57083 5.04015 9.68961 5.18784 9.68961Z" fill="#656262"/>
</g>
</g>
<defs>
<clipPath id="clip0_3396_53453">
<rect width="19.375" height="19.375" fill="white" transform="scale(1.03226)"/>
</clipPath>
</defs>
</svg>
