<svg width="24" height="24" viewBox="0 0 24 24" fill="none" xmlns="http://www.w3.org/2000/svg">
<g clip-path="url(#clip0_6020_2042)">
<path d="M10.9962 3.39081C11.0957 3.38443 11.1929 3.35832 11.2821 3.31401C11.3714 3.2697 11.4509 3.20807 11.5161 3.13272C11.5813 3.05736 11.6309 2.96979 11.6619 2.87509C11.6929 2.7804 11.7048 2.68048 11.6968 2.58115C11.6888 2.48182 11.6612 2.38507 11.6155 2.29654C11.5697 2.208 11.5068 2.12946 11.4304 2.06547C11.3541 2.00148 11.2657 1.95333 11.1705 1.92382C11.0753 1.89431 10.9752 1.88404 10.8761 1.8936C5.72345 2.30421 1.66846 6.61658 1.66846 11.8763C1.66846 17.4075 6.15208 21.8911 11.6832 21.8911C16.94 21.8911 21.2504 17.8412 21.665 12.6915C21.6746 12.5924 21.6643 12.4923 21.6348 12.3971C21.6053 12.3019 21.5571 12.2135 21.4931 12.1372C21.4291 12.0608 21.3506 11.9979 21.2621 11.9522C21.1735 11.9064 21.0768 11.8788 20.9774 11.8708C20.8781 11.8628 20.7782 11.8747 20.6835 11.9057C20.5888 11.9367 20.5012 11.9863 20.4259 12.0515C20.3505 12.1167 20.2889 12.1962 20.2446 12.2855C20.2003 12.3748 20.1742 12.4719 20.1678 12.5714C20.035 14.1906 19.4416 15.7381 18.4576 17.031C17.4737 18.3238 16.1403 19.3081 14.6149 19.8676C13.0896 20.427 11.436 20.5383 9.84947 20.1882C8.26293 19.8381 6.80971 19.0413 5.66144 17.8919C4.51316 16.7425 3.7178 15.2885 3.36928 13.7016C3.02076 12.1148 3.13364 10.4613 3.6946 8.93648C4.25555 7.41169 5.24115 6.07927 6.53498 5.0966C7.82881 4.11392 9.37684 3.52202 10.9962 3.39081ZM17.3887 4.53951C17.4553 4.46675 17.5357 4.40785 17.6251 4.36615C17.7146 4.32446 17.8113 4.3008 17.9099 4.29652C18.0085 4.29224 18.107 4.30743 18.1997 4.34122C18.2924 4.37501 18.3775 4.42673 18.4502 4.49344C18.6652 4.68973 18.8709 4.8957 19.0672 5.11135C19.1935 5.25936 19.2575 5.45064 19.2456 5.64489C19.2337 5.83914 19.1469 6.0212 19.0035 6.15271C18.86 6.28422 18.6711 6.35492 18.4766 6.34991C18.282 6.3449 18.097 6.26457 17.9605 6.12585C17.7926 5.94344 17.6172 5.76803 17.4347 5.60008C17.362 5.53341 17.3031 5.45307 17.2614 5.36363C17.2197 5.2742 17.196 5.17742 17.1918 5.07884C17.1875 4.98025 17.2027 4.88179 17.2365 4.78908C17.2702 4.69637 17.322 4.61222 17.3887 4.53951ZM10.9321 5.86747C11.1136 5.86748 11.289 5.93321 11.4258 6.05251C11.5626 6.17181 11.6516 6.33661 11.6762 6.51643L11.6832 6.61858V11.8763H14.9381C15.1284 11.8764 15.3115 11.9487 15.4506 12.0786C15.5897 12.2085 15.6742 12.3864 15.6872 12.5763C15.7002 12.7661 15.6406 12.9538 15.5205 13.1015C15.4004 13.2491 15.2287 13.3456 15.0402 13.3716L14.9381 13.3786H10.9321C10.7505 13.3785 10.575 13.3127 10.4382 13.1931C10.3014 13.0736 10.2125 12.9086 10.188 12.7286L10.181 12.6275V6.61858C10.181 6.41937 10.2602 6.22833 10.401 6.08747C10.5419 5.9466 10.7329 5.86747 10.9321 5.86747ZM13.4669 2.75287C13.4935 2.65783 13.5385 2.56895 13.5995 2.49133C13.6605 2.41371 13.7361 2.34887 13.8221 2.3005C13.9082 2.25214 14.0029 2.22121 14.1009 2.20947C14.1989 2.19773 14.2982 2.20542 14.3933 2.2321C14.7585 2.33514 15.1176 2.45885 15.4688 2.60265C15.563 2.63789 15.6491 2.69166 15.722 2.76078C15.795 2.8299 15.8533 2.91296 15.8936 3.00504C15.9339 3.09712 15.9553 3.19635 15.9565 3.29685C15.9578 3.39735 15.9388 3.49707 15.9008 3.59012C15.8628 3.68316 15.8065 3.76763 15.7353 3.83852C15.664 3.90941 15.5793 3.96528 15.486 4.00282C15.3928 4.04036 15.293 4.05881 15.1925 4.05707C15.092 4.05533 14.9929 4.03344 14.901 3.9927C14.6046 3.87119 14.3001 3.7667 13.9877 3.67924C13.8926 3.65265 13.8037 3.60758 13.7261 3.54663C13.6485 3.48567 13.5837 3.41001 13.5353 3.32398C13.4869 3.23795 13.456 3.14323 13.4443 3.04523C13.4325 2.94724 13.4402 2.84789 13.4669 2.75287ZM20.9559 8.08575C20.9186 7.99441 20.8636 7.91132 20.7942 7.84123C20.7247 7.77114 20.6421 7.71541 20.5511 7.67724C20.4601 7.63906 20.3625 7.61919 20.2638 7.61874C20.1651 7.61829 20.0673 7.63729 19.976 7.67464C19.8847 7.71199 19.8016 7.76697 19.7315 7.83643C19.6614 7.90589 19.6057 7.98847 19.5675 8.07947C19.5293 8.17047 19.5094 8.26809 19.509 8.36677C19.5085 8.46545 19.5275 8.56325 19.5649 8.65459C19.6884 8.95339 19.7938 9.2594 19.8804 9.57094C19.9055 9.66759 19.9496 9.75826 20.0102 9.83766C20.0707 9.91705 20.1465 9.98358 20.2331 10.0333C20.3197 10.0831 20.4153 10.1151 20.5144 10.1274C20.6135 10.1398 20.714 10.1323 20.8102 10.1053C20.9063 10.0783 20.9961 10.0325 21.0743 9.97039C21.1526 9.9083 21.2176 9.83124 21.2657 9.74372C21.3137 9.6562 21.3439 9.55997 21.3543 9.46066C21.3648 9.36135 21.3553 9.26095 21.3265 9.16534C21.2236 8.79872 21.0999 8.43827 20.9559 8.08575Z" fill="#5E6063"/>
</g>
<defs>
<clipPath id="clip0_6020_2042">
<rect width="24" height="24" fill="white"/>
</clipPath>
</defs>
</svg>
