<svg width="24" height="24" viewBox="0 0 24 24" fill="none" xmlns="http://www.w3.org/2000/svg">
<g clip-path="url(#clip0_6027_4751)">
<path d="M15.3224 19.3232L15.2799 20.3847C15.2799 20.8517 14.9827 21.3188 14.3458 21.6585C13.1145 22.3803 11.119 22.3803 9.84522 21.6585C9.20834 21.3188 8.91113 20.8093 8.91113 20.3422L8.95359 19.2808C8.95359 19.7478 9.2508 20.2149 9.88768 20.597C11.119 21.3188 13.1145 21.3188 14.3883 20.597C14.9827 20.2573 15.3224 19.7903 15.3224 19.3232Z" fill="currentColor" stroke="currentColor" stroke-width="0.075"/>
<path d="M15.3227 19.3232L15.2803 20.3847C15.2803 20.3847 15.2803 20.3847 15.2803 20.4272L15.3227 19.3232Z" fill="currentColor" stroke="currentColor" stroke-width="0.075"/>
<path d="M14.388 18.0067C15.6193 18.7285 15.6193 19.8749 14.388 20.5967C13.1567 21.3185 11.1611 21.3185 9.88734 20.5967C8.65604 19.8749 8.65604 18.7285 9.88734 18.0067C11.1186 17.2849 13.1142 17.2849 14.388 18.0067Z" fill="currentColor" stroke="currentColor" stroke-width="0.075"/>
<path d="M12.902 14.7373V19.4927C12.902 19.6201 12.8171 19.7474 12.6897 19.8324C12.3925 20.0022 11.883 20.0022 11.5433 19.8324C11.3735 19.7474 11.2886 19.6201 11.2886 19.4927V14.7373C11.2886 14.8647 11.3735 14.9921 11.5433 15.077C12.0104 15.3317 12.902 15.1194 12.902 14.7373Z" fill="currentColor" stroke="currentColor" stroke-width="0.075"/>
<path d="M12.902 14.7373V19.4927C12.8595 19.153 12.8595 20.8938 12.902 14.7373Z" fill="currentColor" stroke="currentColor" stroke-width="0.075"/>
<path d="M12.6476 15.0347C12.3504 15.2045 11.8409 15.2045 11.5012 15.0347C11.204 14.8649 11.204 14.5677 11.5012 14.3978C12.2655 13.9732 13.4119 14.6101 12.6476 15.0347Z" fill="currentColor" stroke="currentColor" stroke-width="0.075"/>
<path d="M7.67969 12.9119L8.95345 12.1476C9.03837 12.1052 9.16574 12.1052 9.29312 12.1901C9.37804 12.2325 9.46295 12.3175 9.50541 12.4024C11.2038 14.4404 14.2183 16.5209 16.4686 15.2047C15.7044 15.4594 14.2608 17.455 10.949 15.5443C10.0149 14.9924 9.08083 14.2281 8.18919 13.1666C8.10427 13.0817 8.06182 12.9968 7.9769 12.9543C7.89198 12.8694 7.7646 12.8694 7.67969 12.9119ZM13.6664 3.40112C14.9401 2.72178 14.9401 2.46703 15.2798 2.67932L14.006 3.44358C13.8787 3.35866 13.7513 3.35866 13.6664 3.40112Z" fill="currentColor" stroke="currentColor" stroke-width="0.075"/>
<path d="M17.1478 16.3509L15.8741 17.1152C19.4831 14.9923 17.7847 7.85919 14.2606 3.65577C14.1757 3.57085 14.1333 3.5284 14.0483 3.48594L15.3221 2.72168C15.407 2.76414 15.4919 2.8066 15.5344 2.89151C19.3132 7.34968 20.587 14.3554 17.1478 16.3509Z" fill="currentColor" stroke="currentColor" stroke-width="0.075"/>
<path d="M14.0063 3.44394L15.3226 2.67969L14.0063 3.44394Z" fill="currentColor" stroke="currentColor" stroke-width="0.075"/>
<path d="M14.2183 3.5709C14.2183 3.61336 14.2183 3.61336 14.2183 3.5709V3.5709Z" fill="currentColor"/>
<path d="M14.2183 3.5709L15.492 2.80664M14.2183 3.5709C14.2183 3.61336 14.2183 3.61336 14.2183 3.5709Z" stroke="currentColor" stroke-width="0.075"/>
<path d="M14.2181 3.61352C19.6104 9.98233 18.8036 18.6864 12.9868 17.4126C12.3075 17.2852 11.6281 16.988 10.9488 16.6059C9.84484 15.969 8.74092 15.0349 7.76437 13.8461C7.55207 13.5913 7.46715 13.2092 7.55207 12.9969C7.63699 12.8695 7.80682 12.8695 7.97666 12.9544C8.06158 12.9969 8.14649 13.0818 8.18895 13.1667C9.08059 14.1857 10.0147 14.9925 10.9488 15.5444C17.1477 19.1534 19.1008 10.7466 13.751 4.37778C13.2415 3.69844 13.6661 2.97664 14.2181 3.61352Z" fill="currentColor" stroke="currentColor" stroke-width="0.075"/>
<path d="M19.0162 9.21794C18.8463 13.0392 15.6619 16.0538 11.7982 15.9689C7.93445 15.884 4.83496 12.742 4.83496 8.87827C4.83496 4.03798 9.59034 0.641279 14.1759 2.16979C17.148 3.1888 19.1436 6.03354 19.0162 9.21794Z" fill="currentColor" stroke="currentColor" stroke-width="0.075"/>
<path d="M16.0017 10.7886C15.9593 10.7462 15.9168 10.7462 15.8744 10.7886C15.7894 10.8311 15.6621 10.7462 15.5771 10.7886C15.5771 10.7886 15.5347 10.8311 15.5347 10.7886C15.4073 10.5339 15.4922 10.7462 15.4073 10.7037C15.3648 10.6613 15.195 10.6188 15.1526 10.6613C15.1101 10.6613 15.0676 10.7886 15.0252 10.7886C14.9827 10.8311 14.9827 10.7886 14.9827 10.7886C15.0252 10.7462 15.0676 10.7886 15.0676 10.6613C15.0676 10.5764 14.8553 10.6613 14.7704 10.7037C14.7704 10.6188 15.0252 10.4914 14.8978 10.3641C14.7704 10.2791 14.8978 10.1518 14.6855 10.0668C14.2185 9.85455 14.1335 9.98193 14.0486 9.98193C14.0062 9.98193 13.9637 9.89701 13.9212 9.89701C13.8788 9.89701 13.8788 9.89701 13.8788 9.85455C13.8788 9.81209 13.6665 9.64226 13.624 9.68472C13.5816 9.68472 13.5816 9.5998 13.5816 9.5998C13.5816 9.5998 13.4542 9.55734 13.4117 9.51488L13.4542 9.47242C13.4542 9.42996 13.3693 9.47242 13.2419 9.47242C13.1145 9.55734 13.0296 9.47242 12.9022 9.47242C12.7749 9.47242 12.7749 9.51488 12.7324 9.42996C12.6899 9.38751 12.6475 9.42996 12.5626 9.38751V9.34505C12.5201 9.34505 12.4777 9.34505 12.5201 9.38751C12.4777 9.38751 12.3927 9.47242 12.3927 9.47242C12.3927 9.51488 12.4352 9.55734 12.4352 9.5998C12.4352 9.64226 12.3927 9.68472 12.3503 9.64226C12.3078 9.5998 12.3503 9.51488 12.3503 9.47242V9.42996C12.3503 9.38751 12.3927 9.34505 12.3927 9.30259C12.3503 9.30259 12.3078 9.34505 12.2654 9.38751C12.138 9.34505 11.8832 9.47242 11.8408 9.51488C11.7983 9.55734 11.7983 9.5998 11.7134 9.76963C11.6285 9.85455 11.6285 9.5998 11.2888 9.68472C11.2039 9.72718 11.0765 9.72718 11.0341 9.5998C10.9491 9.42996 10.9067 9.55734 10.8642 9.34505C10.8642 9.09029 11.0765 8.79308 10.3123 8.83554C10.3972 8.28358 10.6095 8.28358 10.567 8.19866C10.5246 8.11374 10.2698 8.11374 10.1849 8.19866C10.0575 8.28358 10.1 8.41095 10.0575 8.45341C9.97259 8.53833 9.93013 8.41095 9.84521 8.45341C9.76029 8.49587 9.71783 8.49587 9.63292 8.41095C9.50554 8.28358 9.37816 8.07129 9.46308 7.94391C9.50554 7.85899 9.42062 7.81653 9.46308 7.73162C9.46308 7.6467 9.548 7.56178 9.548 7.47686C9.548 7.4344 9.548 7.39195 9.59046 7.34949C9.67538 7.26457 9.76029 7.26457 9.80275 7.22211L9.84521 7.17965C9.88767 7.13719 9.93013 7.17965 9.97259 7.13719H10.015C10.1 7.13719 10.1849 7.26457 10.2698 7.26457C10.3123 7.26457 10.3972 7.22211 10.3972 7.17965C10.3972 7.13719 10.3547 7.13719 10.3972 7.13719C10.5246 7.09473 10.6095 7.09473 10.7368 7.13719C10.7793 7.13719 10.8218 7.17965 10.8642 7.17965C11.119 7.13719 10.9916 7.22211 11.119 7.60424C11.2039 7.81653 11.3313 7.73162 11.3313 7.68916C11.3313 7.60424 11.2888 7.68916 11.3313 7.51932C11.3737 7.30703 10.9916 7.13719 11.5011 6.83998C11.6285 6.75506 11.7983 6.67015 11.9257 6.54277C11.8832 6.37294 11.9681 6.24556 11.9681 6.2031C11.9681 6.16064 11.9681 6.16064 11.9681 6.11818L12.0106 6.07572C12.0531 6.03327 12.0106 5.90589 12.1804 5.90589C12.2229 5.90589 12.3503 5.90589 12.3927 5.86343C12.3927 5.82097 12.3503 5.82097 12.3078 5.77851C12.2654 5.73605 12.3078 5.6936 12.3503 5.65114C12.4352 5.60868 12.4352 5.65114 12.5626 5.52376C12.605 5.4813 12.7749 5.35393 12.8173 5.39638C12.7749 5.43884 12.7324 5.43884 12.7324 5.4813C12.605 5.56622 12.6899 5.65114 12.7749 5.60868C12.8598 5.56622 12.9022 5.4813 12.9872 5.43884C13.0296 5.39638 13.1995 5.39638 13.157 5.31147C13.0721 5.35393 12.9872 5.35393 12.9022 5.35393C12.8598 5.22655 12.7749 5.14163 12.6899 5.09917C12.6899 5.05671 12.7324 5.05672 12.7749 5.01426C12.8598 4.84442 12.4777 4.9718 12.3927 5.01426C12.3503 5.01426 12.3927 4.9718 12.4352 4.9718C12.605 4.92934 12.4777 4.84442 12.6475 4.80196C12.7749 4.80196 12.9872 4.84442 13.2419 4.67459C13.1145 5.35393 13.1995 5.01426 13.4967 5.05672C13.4967 5.09917 13.4967 5.09917 13.5391 5.09917C13.5816 5.09917 13.5816 5.09917 13.624 5.09917C13.9212 5.05671 13.5816 4.9718 13.5816 4.88688C13.5391 4.7595 13.5391 4.84442 13.4542 4.84442C13.4117 4.84442 13.3693 4.80196 13.3693 4.7595C13.3693 4.71704 13.4117 4.67459 13.3693 4.63213C13.3693 4.63213 13.3268 4.63213 13.3268 4.58967C13.2844 4.54721 13.3268 4.50475 13.2844 4.50475C13.2419 4.46229 13.1995 4.50475 13.157 4.46229C13.1145 4.41983 13.157 4.41983 13.0721 4.37737C12.9872 4.37737 12.9447 4.33492 12.9022 4.29246C12.7749 4.29246 12.8173 4.16508 12.7749 4.12262L12.605 3.91033C12.4777 3.78295 12.5626 4.0377 12.4352 4.0377C12.3927 4.0377 12.3503 4.0377 12.3078 3.99525C12.3503 3.82541 12.0106 3.69804 11.8408 3.69804C11.7559 3.69804 11.7559 3.74049 11.7559 3.78295C11.7559 3.91033 11.6709 3.95279 11.6709 3.99525C11.6709 4.0377 11.6709 4.0377 11.7134 4.0377C11.9257 4.33492 11.586 4.25 11.586 4.37737C11.586 4.41983 11.586 4.41983 11.586 4.46229C11.7134 4.7595 11.4162 4.80196 11.3737 4.58967C11.3737 4.50475 11.3737 4.41983 11.3737 4.37737C11.1614 4.37737 10.9916 4.16508 10.7368 4.16508C10.7793 4.12262 10.7793 4.0377 10.6944 3.99525H10.6519C10.6519 3.78295 10.8642 3.74049 10.9067 3.74049C10.9491 3.74049 10.9916 3.69804 11.2463 3.5282C11.2888 3.57066 11.2463 3.65558 11.2888 3.69804C11.3313 3.74049 11.4162 3.61312 11.5011 3.65558L11.5436 3.69804C11.586 3.69804 11.6709 3.57066 11.4586 3.57066C11.4162 3.5282 11.4586 3.48574 11.5011 3.44328C11.586 3.35837 11.5436 3.35837 11.5436 3.27345C11.5436 3.18853 11.6709 3.10361 11.8408 3.27345C11.9257 3.40082 11.8408 3.40082 11.8408 3.44328C11.8408 3.48574 11.8832 3.48574 11.7983 3.5282C11.7983 3.5282 11.7559 3.57066 11.7983 3.57066C11.8832 3.5282 11.9681 3.65558 12.0531 3.61312C12.0531 3.69804 12.2654 3.74049 12.3503 3.74049C12.3078 3.69804 12.2654 3.65558 12.2229 3.61312C12.2654 3.61312 12.3503 3.61312 12.3927 3.65558C12.5626 3.74049 12.4777 3.48574 12.2229 3.40082C12.3078 3.35837 12.3503 3.40082 12.4352 3.44328C12.4352 3.40082 12.4777 3.31591 12.5201 3.31591C12.4352 3.31591 12.2654 3.23099 12.138 3.10361C12.138 3.0187 11.9681 2.97624 11.7559 2.84886C11.7134 2.72148 11.8408 2.67903 11.9681 2.63657C12.138 2.59411 12.138 2.67903 12.1804 2.67903C12.2229 2.72148 12.2654 2.67903 12.3078 2.67903C12.3503 2.67903 12.3927 2.67903 12.7749 2.93378C12.7324 3.0187 12.9872 2.93378 12.9872 3.10361C12.9872 3.14607 12.9447 3.14607 12.9447 3.18853C12.9447 3.40082 13.709 3.78295 13.7939 3.74049C13.8363 3.69804 13.7514 3.69804 13.7514 3.65558C13.709 3.65558 13.7514 3.65558 13.6665 3.5282C13.5391 3.40082 13.5816 3.31591 13.6665 3.31591H13.709C13.7939 3.27345 13.709 3.18853 13.709 3.10361C13.709 3.06115 13.7514 3.06115 13.7939 3.06115C13.8363 3.0187 13.8363 2.93378 13.7939 2.89132C13.7514 2.93378 13.6665 2.89132 13.624 2.84886C13.6665 2.84886 13.6665 2.84886 13.709 2.84886C13.709 2.76394 13.5816 2.8064 13.5391 2.76394C13.4967 2.72148 13.5391 2.67903 13.4542 2.67903C13.2844 2.67903 13.2419 2.55165 13.1995 2.50919C13.157 2.46673 13.0721 2.46673 12.9022 2.38181C12.8173 2.2969 12.7324 2.38181 12.6899 2.33936C12.6475 2.33936 12.6475 2.33936 12.605 2.33936C12.5201 2.38181 12.3927 2.33936 12.3503 2.38181C12.3078 2.42427 12.3503 2.42427 12.3078 2.42427C12.2654 2.42427 12.2229 2.46673 12.0531 2.55165C12.0531 2.50919 12.0531 2.46673 12.0955 2.46673C12.0531 2.46673 11.7983 2.42427 11.586 2.55165C11.5436 2.59411 11.4586 2.55165 11.5011 2.63657C11.5011 2.67903 11.5011 2.67903 11.4586 2.63657C11.3737 2.55165 10.7793 2.67903 10.6944 2.67903C10.6944 2.76394 10.7368 2.8064 10.7793 2.84886C10.8218 2.89132 10.8642 2.97624 10.6944 2.84886C10.6519 2.8064 10.6519 2.76394 10.567 2.76394V2.72148C10.4396 2.76394 10.2698 2.76394 10.2273 2.8064C10.1849 2.84886 10.2698 2.93378 10.3972 2.84886V2.89132C10.3972 2.93378 10.4821 2.97624 10.4396 2.97624C10.4396 3.0187 10.3972 2.97624 10.3547 2.97624L10.3123 3.0187C10.3123 3.06115 10.3123 3.06115 10.3123 3.10361C10.1424 3.0187 10.0575 2.89132 10.015 2.93378C10.015 2.89132 10.015 2.89132 10.015 2.84886C9.46308 2.8064 9.80275 2.8064 9.63292 2.72148C9.59046 2.72148 9.59046 2.63657 9.63292 2.59411C9.76029 2.46673 9.33571 2.46673 9.08095 2.67903C9.08095 2.67903 9.08095 2.67903 9.03849 2.67903C8.74128 2.67903 8.99604 2.84886 8.78374 2.84886C8.65637 2.84886 8.35915 2.97624 8.3167 3.18853C8.3167 3.27345 8.3167 3.23099 7.93457 3.35837C8.61391 3.44328 8.27424 3.10361 8.52899 3.31591C8.57145 3.31591 8.57145 3.31591 8.61391 3.31591C8.69882 3.44328 8.74128 3.57066 8.61391 3.61312C8.69882 3.78295 8.48653 4.0377 8.48653 4.12262C8.44407 4.33492 8.44407 4.20754 8.40161 4.33492C8.35916 4.41983 8.52899 4.71704 8.40161 4.67459C8.35916 4.67459 8.35915 4.67459 8.3167 4.71705C8.3167 4.7595 8.27424 4.7595 8.27424 4.80196C8.27424 4.84442 8.27424 4.84442 8.23178 4.88688C8.18932 4.92934 8.18932 4.88688 8.14686 4.9718C7.80719 5.52376 7.97703 5.35393 7.89211 5.4813C7.89211 5.52376 7.76473 5.73605 7.72227 5.73605C7.67982 5.77851 7.67982 6.03327 7.72227 6.16064C7.76473 6.28802 7.89211 6.37294 7.89211 6.58523C7.89211 7.05228 8.01949 6.96736 7.89211 7.05228C7.84965 7.05228 7.89211 7.09473 7.89211 7.13719C7.93457 7.13719 7.93457 7.17965 7.97703 7.17965C8.06194 7.26457 7.93457 7.26457 8.1044 7.51932C8.14686 7.56178 8.14686 7.6467 8.18932 7.68916C8.23178 7.6467 8.23178 7.51932 8.18932 7.47686C8.1044 7.39195 8.23178 7.30703 8.14686 7.17965C8.1044 7.09473 8.1044 7.09473 8.1044 7.00982C8.1044 6.83998 7.89211 6.79752 8.1044 6.54277C8.1044 6.62769 8.18932 6.62769 8.18932 6.79752C8.27424 7.34949 8.48653 7.47686 8.52899 7.68916C8.65637 8.1562 8.27424 7.98637 8.78374 8.3685C9.46308 8.92046 9.42062 8.70817 9.548 8.70817C9.76029 8.70817 10.0575 9.26013 10.3972 9.0903C10.3972 9.21767 10.5246 9.30259 10.567 9.42996C10.567 9.47242 10.567 9.51488 10.6095 9.51488C10.6519 9.55734 10.6944 9.51488 10.6944 9.47242C10.9491 9.68472 10.8218 9.64226 10.9067 9.68472C11.2463 9.81209 11.1614 9.76963 11.2039 9.85455C11.2039 9.85455 11.2463 9.89701 11.2888 9.85455L11.2463 9.81209C11.2463 9.76963 11.2463 9.76963 11.2888 9.76963C11.3313 9.76963 11.4162 9.55734 11.5011 9.72718C11.6709 10.1518 11.586 10.0668 11.6285 10.2367C11.7134 10.4065 11.5011 10.3216 11.4162 10.5339C11.3737 10.6188 11.3313 10.6188 11.2888 10.6188C11.2463 10.6613 11.2888 10.7886 11.2039 10.7886C11.2463 10.8736 11.0765 10.8736 11.2463 11.0434C11.3737 11.1708 11.119 11.0859 11.119 11.3406C11.119 11.5529 11.3313 11.5529 11.4162 11.6803C11.5436 11.935 11.5436 12.0199 11.6285 12.1473C11.7134 12.2322 11.6709 12.2322 11.6709 12.3172C11.7134 12.5719 12.3503 12.5719 12.3927 12.9116C12.3927 12.9965 12.3927 13.1663 12.3927 13.2513C12.2654 13.3362 12.3503 13.4635 12.3078 13.5485C12.2654 13.6334 12.2654 13.5909 12.2654 13.7183C12.2654 13.8032 12.1804 13.9306 12.2229 14.0155C12.2229 14.058 12.2229 14.1004 12.2229 14.1429C12.2229 14.1853 12.0531 14.4826 12.0106 14.5675C11.9257 14.8647 12.1804 14.7373 11.9257 15.0345C11.8832 15.0345 11.8408 15.2468 11.9257 15.3742C12.0531 15.5865 12.2229 15.5865 12.2654 15.6289C12.3078 15.5865 12.3078 15.5865 12.3503 15.5865C12.3927 15.5865 12.4777 15.5865 12.5201 15.5865C12.5201 15.5865 12.5201 15.544 12.4777 15.544C12.3927 15.5016 12.4352 15.5865 12.3503 15.4166C12.3927 15.3742 12.4352 15.4166 12.4777 15.3317C12.4777 15.3317 12.605 15.2893 12.6475 15.2044C12.605 15.2044 12.5201 15.1619 12.5201 15.1194C12.5201 15.0345 12.6899 15.1194 12.7324 15.0345C12.7749 14.9921 12.7749 14.9496 12.8598 14.9496C12.8598 14.9496 12.8598 14.9496 12.8173 14.9071V14.8647C12.7749 14.8647 12.7749 14.8222 12.8173 14.7798C12.8598 14.7798 12.9022 14.7798 12.9022 14.7798C12.9872 14.7798 13.0721 14.6948 13.0721 14.6524C13.0721 14.525 13.4967 14.6524 13.624 14.3976H13.5816C13.6665 14.3127 13.4967 14.3127 13.4967 14.2703C13.8788 14.1853 13.4967 14.6524 14.6006 13.6334C14.6855 13.5485 14.6006 13.4635 14.6855 13.4211C14.643 13.2088 15.3224 13.039 15.4498 12.9116C16.0866 12.1898 15.6196 12.4021 16.1291 11.6378C16.2565 11.468 16.3414 11.3406 16.3414 11.1283C16.4263 11.0009 16.3414 11.0009 16.0017 10.7886Z" fill="currentColor"/>
<path d="M19.0161 9.21809C19.0161 9.17564 18.9737 8.96334 18.9737 8.92088H19.0161C19.0161 8.79351 18.9737 8.66613 18.8887 8.58121C18.8038 8.62367 18.7614 8.75105 18.7189 8.83597C18.634 8.92088 18.5491 8.92088 18.4642 9.04826C18.4642 9.04826 18.4642 9.09072 18.4217 9.09072C18.3792 9.13318 18.3368 9.09072 18.2943 9.04826C18.2519 8.96334 18.2943 8.79351 18.1669 8.79351C18.082 8.79351 18.0396 8.83597 17.9971 8.70859C17.9547 8.58121 17.9122 8.4963 17.8697 8.41138C17.7848 8.32646 17.6999 8.24154 17.6999 8.11417C17.6999 8.07171 17.6999 7.98679 17.6999 7.94433C17.6999 7.51975 17.4876 7.30745 17.4451 7.22253C17.4451 7.18008 17.4451 7.13762 17.4451 7.09516C17.4451 6.16107 17.615 6.58565 17.4027 5.8214C17.3602 5.69402 17.3602 5.52418 17.2329 5.43927C17.0206 5.31189 17.1479 5.39681 17.063 5.26943C17.0206 5.22697 16.9781 5.18451 16.8932 5.14206C16.8083 4.97222 16.7658 4.80239 16.6809 4.63255C16.8083 4.67501 16.9356 4.50517 16.7658 4.33534C16.6809 4.20796 16.6384 4.25042 16.5535 4.25042C16.4686 4.25042 16.4686 4.20796 16.1289 3.656C16.2138 3.78338 16.2138 3.91075 16.2138 4.08059C16.1289 3.95321 16.0016 3.86829 15.9166 3.74092C15.8742 3.82583 15.9166 3.95321 16.0016 3.99567C15.8317 4.12305 15.7468 3.78338 15.7043 3.74092C15.577 3.57108 15.3222 3.48616 15.3222 3.31633C15.5345 3.40125 15.7468 3.52862 16.0016 3.656C16.1289 3.48616 15.7893 3.31633 15.7468 3.23141C15.6194 3.01912 15.6619 3.23141 15.4071 3.14649C14.7278 2.84928 14.7702 2.46715 14.3457 2.59453C14.2607 2.33978 14.2607 2.25486 14.2607 2.2124C17.1479 3.18895 19.1435 6.03369 19.0161 9.21809Z" fill="currentColor"/>
<path d="M13.6665 3.40161C14.9403 2.72227 14.9403 2.46752 15.2799 2.67981L14.0062 3.44407C13.8788 3.35915 13.7514 3.35915 13.6665 3.40161ZM15.5347 2.89211C15.4498 2.80719 15.4073 2.76473 15.3224 2.72227L14.0486 3.48653C14.1335 3.52899 14.2185 3.57145 14.2609 3.65636C17.8699 7.90224 19.2711 14.5683 16.214 16.9035V16.9459L17.1906 16.394C20.7571 14.2286 19.0588 7.09552 15.5347 2.89211Z" fill="currentColor" stroke="currentColor" stroke-width="0.075"/>
<path d="M14.0068 3.44394L15.3231 2.67969L14.0068 3.44394Z" fill="currentColor" stroke="currentColor" stroke-width="0.075"/>
<path d="M14.2188 3.5709C14.2188 3.61336 14.2188 3.61336 14.2188 3.5709V3.5709Z" fill="currentColor"/>
<path d="M14.2188 3.5709L15.4925 2.80664M14.2188 3.5709C14.2188 3.61336 14.2188 3.61336 14.2188 3.5709Z" stroke="currentColor" stroke-width="0.075"/>
<path d="M14.2186 3.61365C13.6667 2.93431 13.2421 3.65611 13.7941 4.33545C16.3416 7.35002 18.2522 12.9546 15.7896 15.4596C16.0868 15.8842 16.2142 16.3513 16.1717 16.8608C19.2712 14.568 17.8276 7.90199 14.2186 3.61365Z" fill="currentColor" stroke="currentColor" stroke-width="0.075"/>
<path d="M16.4929 4.04663C16.1108 3.66451 15.6862 4.25893 15.3466 4.47122C15.1343 4.5986 15.1767 4.93827 15.5164 5.1081C15.7711 5.23548 15.941 4.93827 16.4505 4.64106C16.6203 4.47122 16.6628 4.21647 16.4929 4.04663Z" fill="currentColor" stroke="currentColor" stroke-width="0.075"/>
<circle cx="21.675" cy="3.3" r="1.8" fill="currentColor"/>
<circle cx="20.6797" cy="17.8477" r="2.84477" fill="currentColor" stroke="currentColor" stroke-width="0.310458"/>
<path d="M20.5535 16.3956C20.5353 16.3957 20.5171 16.3966 20.499 16.3982C20.4924 16.3988 20.4859 16.3994 20.4793 16.4002C20.4716 16.4011 20.4639 16.402 20.4563 16.4031L20.4454 16.4049C20.1173 16.4592 19.8669 16.7441 19.8669 17.0877C19.8669 17.3334 19.995 17.549 20.1879 17.6718C20.1905 17.6739 20.1935 17.6759 20.1966 17.6778L20.1971 17.678L20.1517 17.6924C20.0827 17.7159 20.0159 17.7455 19.9521 17.7807L19.9048 17.8081C19.8999 17.811 19.8952 17.8141 19.8904 17.8171C19.8538 17.84 19.8185 17.8648 19.7844 17.8914L19.7796 17.8952C19.4878 18.1256 19.3006 18.4823 19.3006 18.8829C19.3006 18.9371 19.304 18.9911 19.311 19.0448H21.8164V18.8835C21.8164 18.3141 21.4381 17.833 20.9192 17.6778C21.1177 17.5563 21.25 17.3375 21.25 17.0877C21.25 16.7215 20.9656 16.4219 20.6056 16.3973C20.601 16.397 20.5964 16.3966 20.5918 16.3964C20.5807 16.3958 20.5696 16.3955 20.5585 16.3955L20.5535 16.3956ZM20.5578 17.7823C21.166 17.7823 21.6591 18.2753 21.6591 18.8835C21.6591 18.8848 21.659 18.8861 21.659 18.8874H19.4567C19.4567 18.8861 19.4566 18.8848 19.4566 18.8835C19.4566 18.2753 19.9496 17.7823 20.5578 17.7823ZM20.5578 16.5528C20.8532 16.5528 21.0927 16.7923 21.0927 17.0877C21.0927 17.3831 20.8532 17.6226 20.5578 17.6226C20.2624 17.6226 20.0229 17.3831 20.0229 17.0877C20.0229 16.7923 20.2624 16.5528 20.5578 16.5528Z" fill="currentColor" stroke="currentColor" stroke-width="0.0204708"/>
<path d="M19.6799 16.6338C19.3671 16.6338 19.1135 16.8874 19.1135 17.2001C19.1135 17.3945 19.2115 17.566 19.3607 17.6679C18.9613 17.8002 18.6729 18.176 18.6712 18.6195H18.6711V18.7768H19.147C19.1509 18.724 19.1577 18.6715 19.1675 18.6195H18.8207C18.8228 18.1478 19.2057 17.766 19.678 17.766L19.6674 17.7662L19.6796 17.7665C19.6818 17.7665 19.6841 17.7664 19.6864 17.7663L19.6932 17.7661C19.7622 17.7127 19.836 17.6658 19.9136 17.626C19.8967 17.6062 19.8806 17.5857 19.8656 17.5645C19.8081 17.5939 19.7445 17.6092 19.6799 17.6092C19.454 17.6092 19.2709 17.426 19.2709 17.2001C19.2709 16.9742 19.454 16.7911 19.6799 16.7911C19.7053 16.7912 19.7306 16.7936 19.7555 16.7984C19.773 16.7476 19.7952 16.6986 19.8219 16.6521C19.7995 16.6463 19.7768 16.6418 19.7538 16.6388L19.7504 16.6383C19.7405 16.6371 19.7305 16.6361 19.7205 16.6354C19.7184 16.6353 19.7164 16.635 19.7143 16.6349C19.7029 16.6342 19.6915 16.6338 19.6799 16.6338Z" fill="currentColor" stroke="currentColor" stroke-width="0.0204708"/>
<path d="M21.3986 16.6338C21.7112 16.6338 21.9647 16.8874 21.9647 17.2001C21.9647 17.3945 21.8668 17.566 21.7176 17.6679C22.1168 17.8002 22.4051 18.176 22.4068 18.6195H22.4069V18.7768H21.9312C21.9273 18.724 21.9205 18.6715 21.9107 18.6195H22.2574C22.2553 18.1478 21.8725 17.766 21.4005 17.766L21.4111 17.7662L21.3989 17.7665C21.3967 17.7665 21.3944 17.7664 21.3921 17.7663L21.3853 17.7661C21.3164 17.7127 21.2426 17.6658 21.165 17.626C21.1819 17.6062 21.198 17.5857 21.213 17.5645C21.2704 17.5939 21.3341 17.6092 21.3986 17.6092C21.6244 17.6092 21.8074 17.426 21.8074 17.2001C21.8074 16.9742 21.6244 16.7911 21.3986 16.7911C21.3732 16.7912 21.3479 16.7936 21.323 16.7984C21.3056 16.7476 21.2834 16.6986 21.2566 16.6521C21.2791 16.6463 21.3018 16.6418 21.3247 16.6388L21.3281 16.6383C21.338 16.6371 21.348 16.6361 21.358 16.6354C21.3601 16.6353 21.3621 16.635 21.3642 16.6349C21.3756 16.6342 21.387 16.6338 21.3986 16.6338Z" fill="currentColor" stroke="currentColor" stroke-width="0.0204708"/>
</g>
<defs>
<clipPath id="clip0_6027_4751">
<rect width="24" height="24" fill="currentColor"/>
</clipPath>
</defs>
</svg>
