<svg width="16" height="16" viewBox="0 0 16 16" fill="none" xmlns="http://www.w3.org/2000/svg">
<g clip-path="url(#clip0_3396_55901)">
<path d="M15.5 7.75C15.5 3.46979 12.0302 0 7.75 0C3.46979 0 0 3.46979 0 7.75C0 12.0302 3.46979 15.5 7.75 15.5C12.0302 15.5 15.5 12.0302 15.5 7.75Z" fill="#EF3A43"/>
<path fill-rule="evenodd" clip-rule="evenodd" d="M10.2261 9.17799L9.94737 8.98175C9.94737 8.98175 9.9216 9.00674 9.87127 9.00674V6.89913L9.89705 6.87416C10.4532 6.40911 10.8584 6.26162 11.2377 6.28659C11.4649 6.28659 11.6171 6.31158 11.6171 6.31158L11.87 6.01778L11.9204 6.50782L12.8056 7.39036L12.6288 7.5866L12.0726 7.56282L12.0468 7.4403C12.0468 7.4403 11.8197 7.26902 11.541 7.26902C11.2881 7.24405 11.1113 7.41651 11.1113 7.58779C11.1113 7.75906 11.39 7.98028 11.6675 8.12658C12.0468 8.3478 12.7049 8.81287 12.9566 8.98414C13.4367 9.30289 13.9683 9.76793 14.0186 9.91543L13.2095 9.81671L13.3102 9.67041C13.3102 9.67041 12.8044 9.18039 11.9192 8.98414C10.6803 8.73912 10.2248 9.18039 10.2248 9.18039M9.87127 6.50901C9.89705 6.48404 9.94737 6.46023 9.97195 6.43527C10.2248 6.28777 10.6042 6.04278 11.0843 6.06775C11.5398 6.06775 11.5901 6.14149 11.5901 6.14149L11.8172 5.94525C11.8172 5.94525 11.3875 5.55273 10.8314 5.55273C10.4262 5.55273 10.0984 5.62648 9.87005 5.72401V6.50782L9.87127 6.50901ZM9.87127 9.00793C9.66867 9.05668 9.16285 9.15421 8.6828 9.10546C7.72147 9.00793 7.34207 8.76291 7.34207 8.76291C7.34207 8.76291 7.03882 9.00793 6.40652 9.05668C5.77425 9.10546 5.24262 9.03171 5.24262 9.03171C5.24262 9.03171 5.06582 9.20298 4.71222 9.39923V8.61541C4.78712 8.61541 4.9897 8.56666 5.1665 8.41917C5.34452 8.29667 5.59622 7.90416 5.77425 7.63535C5.95227 7.36657 6.20395 7.1703 6.55877 7.14533C6.93815 7.09656 7.19107 7.26783 7.4182 7.36536C7.64535 7.43911 7.84792 7.58541 8.32797 7.58541C8.8338 7.58541 9.3151 7.34039 9.87127 6.89913V9.00674V9.00793ZM9.87127 5.7252C9.59257 5.82272 9.44155 5.94525 9.44155 5.94525L9.568 6.09272C9.568 6.09272 9.08672 6.33774 8.80925 6.55779H9.16285C9.16285 6.55779 8.88415 6.92531 8.63122 7.07278C8.32797 7.1953 7.92282 7.1953 7.92282 7.1953C7.92282 7.1953 8.50477 7.39154 8.98482 7.09777C9.38875 6.87772 9.64167 6.6565 9.87005 6.5102V5.72282L9.87127 5.7252ZM4.71222 7.56282C5.19227 7.53782 5.69812 6.99903 6.40652 6.97406C6.40652 6.97406 6.10205 6.87653 5.74845 6.90031C5.36907 6.92531 5.34452 7.07159 4.96515 7.04781C4.88902 7.04781 4.8129 6.99903 4.71222 6.97406V7.56282ZM4.71222 9.40042C4.43352 9.57169 4.05415 9.74297 3.5741 9.86546C2.71467 10.0855 1.98047 9.79172 1.98047 9.79172L2.76377 9.59547L2.78957 9.74178C2.78957 9.74178 3.42185 9.693 3.95347 9.37426C4.30707 9.12924 4.71222 8.63922 4.71222 8.63922V8.61423V9.39804V9.40042ZM4.71222 6.97525V7.564C4.30707 7.564 4.1045 7.07396 3.67477 7.00024C3.77667 7.00024 3.9277 6.92649 3.9277 6.92649C3.82702 6.82897 3.67477 6.68147 3.04247 6.73025C3.67477 6.21642 4.2555 6.75522 4.711 6.97525" fill="white"/>
</g>
<defs>
<clipPath id="clip0_3396_55901">
<rect width="16" height="15.5" fill="white"/>
</clipPath>
</defs>
</svg>
