<svg width="24" height="24" viewBox="0 0 24 24" fill="none" xmlns="http://www.w3.org/2000/svg">
<g clip-path="url(#clip0_3396_48707)">
<g filter="url(#filter0_d_3396_48707)">
<path d="M0.375 12C0.375 5.57969 5.57969 0.375 12 0.375C18.4203 0.375 23.625 5.57969 23.625 12C23.625 18.4203 18.4203 23.625 12 23.625C5.57969 23.625 0.375 18.4203 0.375 12Z" fill="currentColor"/>
</g>
<g clip-path="url(#clip1_3396_48707)">
<path d="M4.36745 13.2845C4.44035 13.4783 4.54127 13.644 4.67024 13.7817C4.79921 13.9193 4.952 14.0246 5.12861 14.0976C5.30524 14.1707 5.49728 14.2072 5.70475 14.2072C5.90662 14.2072 6.09585 14.1692 6.27248 14.0934C6.44911 14.0176 6.6033 13.9108 6.73506 13.7732C6.86682 13.6356 6.96916 13.4713 7.04205 13.2803C7.11495 13.0893 7.15139 12.8759 7.15139 12.64V9H8.0345V14.8981H7.1598V14.3504C6.96355 14.5582 6.73225 14.7183 6.46591 14.8307C6.19956 14.943 5.91222 14.9992 5.60383 14.9992C5.28982 14.9992 4.99685 14.9444 4.7249 14.8349C4.45297 14.7253 4.21745 14.5695 4.01841 14.3672C3.81938 14.165 3.66236 13.9221 3.54742 13.6384C3.43247 13.3547 3.375 13.0388 3.375 12.6905V9H4.25812V12.64C4.25812 12.8759 4.29455 13.0907 4.36745 13.2845ZM9.55675 9V11.1486C9.753 10.952 9.9801 10.7961 10.238 10.681C10.4959 10.5658 10.7763 10.5082 11.0791 10.5082C11.3931 10.5082 11.6874 10.5672 11.9622 10.6851C12.2369 10.8031 12.4752 10.9632 12.6771 11.1654C12.879 11.3677 13.0388 11.6064 13.1565 11.8816C13.2743 12.1569 13.3331 12.449 13.3331 12.7579C13.3331 13.0668 13.2743 13.3575 13.1565 13.63C13.0388 13.9024 12.879 14.1397 12.6771 14.3419C12.4752 14.5442 12.2369 14.7043 11.9622 14.8222C11.6874 14.9402 11.3931 14.9992 11.0791 14.9992C10.7763 14.9992 10.4945 14.9416 10.2338 14.8264C9.97309 14.7113 9.74459 14.5554 9.54834 14.3588V14.898H8.70729V9H9.55675ZM9.65347 13.3393C9.72916 13.5191 9.83431 13.6763 9.96888 13.8111C10.1035 13.946 10.2604 14.0527 10.4399 14.1313C10.6193 14.21 10.8127 14.2493 11.0202 14.2493C11.2221 14.2493 11.4127 14.21 11.5921 14.1313C11.7716 14.0527 11.9271 13.946 12.0589 13.8111C12.1907 13.6764 12.2958 13.5191 12.3743 13.3393C12.4528 13.1595 12.4921 12.9658 12.4921 12.7579C12.4921 12.5501 12.4528 12.3549 12.3743 12.1723C12.2958 11.9898 12.1907 11.8311 12.0589 11.6963C11.9272 11.5615 11.7716 11.4561 11.5921 11.3803C11.4127 11.3045 11.2221 11.2665 11.0202 11.2665C10.8184 11.2665 10.6277 11.3045 10.4483 11.3803C10.2689 11.4561 10.1119 11.5615 9.97729 11.6963C9.84274 11.8311 9.73619 11.9898 9.6577 12.1723C9.5792 12.3549 9.53995 12.5501 9.53995 12.7579C9.53993 12.9658 9.57778 13.1595 9.65347 13.3393ZM13.8125 11.8901C13.9246 11.6204 14.0788 11.3831 14.275 11.1781C14.4713 10.9731 14.704 10.8116 14.9731 10.6936C15.2423 10.5757 15.5338 10.5167 15.8478 10.5167C16.1562 10.5167 16.4422 10.5729 16.7057 10.6852C16.9692 10.7975 17.1963 10.9534 17.387 11.1528C17.5776 11.3522 17.7262 11.5882 17.8327 11.8606C17.9393 12.133 17.9925 12.4293 17.9925 12.7495V13.0276H14.5021C14.5302 13.2017 14.5862 13.3632 14.6703 13.512C14.7545 13.6609 14.8596 13.7901 14.9857 13.8996C15.1119 14.0092 15.2549 14.0949 15.4147 14.1566C15.5745 14.2184 15.7441 14.2493 15.9235 14.2493C16.4338 14.2493 16.8459 14.0387 17.1599 13.6174L17.7739 14.0723C17.5608 14.3588 17.2973 14.5835 16.9833 14.7464C16.6693 14.9093 16.316 14.9908 15.9235 14.9908C15.6039 14.9908 15.3054 14.9346 15.0278 14.8222C14.7503 14.7099 14.5092 14.5526 14.3045 14.3504C14.0998 14.1482 13.9386 13.9108 13.8209 13.6384C13.7032 13.366 13.6443 13.0697 13.6443 12.7495C13.6442 12.4462 13.7003 12.1597 13.8125 11.8901ZM14.9942 11.5572C14.7558 11.7566 14.5975 12.0221 14.519 12.3535H17.1347C17.0618 12.0221 16.9062 11.7566 16.6679 11.5572C16.4296 11.3578 16.1506 11.2581 15.831 11.2581C15.5114 11.2581 15.2325 11.3578 14.9942 11.5572ZM19.5821 11.6541C19.4027 11.8507 19.313 12.1175 19.313 12.4546V14.8981H18.4635V10.6009H19.3045V11.1317C19.4111 10.9576 19.5498 10.82 19.7209 10.7189C19.8919 10.6177 20.0951 10.5672 20.3306 10.5672H20.625V11.3592H20.2718C19.9914 11.3592 19.7615 11.4575 19.5821 11.6541Z" fill="currentColor"/>
</g>
</g>
<defs>
<filter id="filter0_d_3396_48707" x="-5.825" y="-4.825" width="35.65" height="35.65" filterUnits="userSpaceOnUse" color-interpolation-filters="sRGB">
<feFlood flood-opacity="0" result="BackgroundImageFix"/>
<feColorMatrix in="SourceAlpha" type="matrix" values="0 0 0 0 0 0 0 0 0 0 0 0 0 0 0 0 0 0 127 0" result="hardAlpha"/>
<feOffset dy="1"/>
<feGaussianBlur stdDeviation="3.1"/>
<feComposite in2="hardAlpha" operator="out"/>
<feColorMatrix type="matrix" values="0 0 0 0 0 0 0 0 0 0 0 0 0 0 0 0 0 0 0.08 0"/>
<feBlend mode="normal" in2="BackgroundImageFix" result="effect1_dropShadow_3396_48707"/>
<feBlend mode="normal" in="SourceGraphic" in2="effect1_dropShadow_3396_48707" result="shape"/>
</filter>
<clipPath id="clip0_3396_48707">
<rect width="24" height="24" fill="currentColor"/>
</clipPath>
<clipPath id="clip1_3396_48707">
<rect width="17.25" height="6" fill="currentColor" transform="translate(3.375 9)"/>
</clipPath>
</defs>
</svg>
