<svg width="64" height="64" viewBox="0 0 64 64" fill="none" xmlns="http://www.w3.org/2000/svg">
<g clip-path="url(#clip0_3396_56446)">
<g filter="url(#filter0_d_3396_56446)">
<path d="M0 32C0 14.3269 14.3269 0 32 0C49.6731 0 64 14.3269 64 32C64 49.6731 49.6731 64 32 64C14.3269 64 0 49.6731 0 32Z" fill="currentColor"/>
<path d="M26.6509 30.8938C26.6509 27.9264 29.0478 25.5215 32.0031 25.5215C34.9603 25.5215 37.3559 27.9264 37.3559 30.8938C37.3559 33.862 34.9603 36.2682 32.0031 36.2682C29.0478 36.2682 26.6509 33.862 26.6509 30.8938ZM45.8459 46.0452H38.9809V38.2971L44.8339 32.1695L32.8719 19.1406V22.4271L40.482 31.3662L32.9265 39.1503V53.1621H45.8853L52.8881 46.1333V18.053L45.8459 10.8369H18.1727L11.1201 18.1022V46.1819L18.073 53.1621H31.1349L31.1328 39.1503L23.576 31.3662L31.1868 22.4271V19.1406L19.2241 32.1695L25.0757 38.2971V46.0452H18.21V17.9538H45.7968L45.8459 46.0452Z" fill="currentColor"/>
<path d="M26.6509 30.8938C26.6509 27.925 29.0478 25.5201 32.0031 25.5201C34.9603 25.5201 37.3559 27.925 37.3559 30.8938C37.3559 33.8606 34.9603 36.2682 32.0031 36.2682C29.0478 36.2682 26.6509 33.8606 26.6509 30.8938ZM45.8459 46.0452H38.9809V38.2971L44.8339 32.1695L32.8719 19.1406V22.4271L40.482 31.3662L32.9265 39.1489V53.1621H45.8853L52.8881 46.1333V18.053L45.8459 10.8369H18.1727L11.1201 18.1022V46.1819L18.073 53.1621H31.1349L31.1321 39.1489L23.5753 31.3662L31.1861 22.4271V19.1406L19.2234 32.1695L25.0751 38.2971V46.0452H18.2093V17.9538H45.7968L45.8459 46.0452Z" fill="currentColor"/>
</g>
</g>
<defs>
<filter id="filter0_d_3396_56446" x="-6" y="-5" width="76" height="76" filterUnits="userSpaceOnUse" color-interpolation-filters="sRGB">
<feFlood flood-opacity="0" result="BackgroundImageFix"/>
<feColorMatrix in="SourceAlpha" type="matrix" values="0 0 0 0 0 0 0 0 0 0 0 0 0 0 0 0 0 0 127 0" result="hardAlpha"/>
<feOffset dy="1"/>
<feGaussianBlur stdDeviation="3"/>
<feComposite in2="hardAlpha" operator="out"/>
<feColorMatrix type="matrix" values="0 0 0 0 0 0 0 0 0 0 0 0 0 0 0 0 0 0 0.08 0"/>
<feBlend mode="normal" in2="BackgroundImageFix" result="effect1_dropShadow_3396_56446"/>
<feBlend mode="normal" in="SourceGraphic" in2="effect1_dropShadow_3396_56446" result="shape"/>
</filter>
<clipPath id="clip0_3396_56446">
<rect width="64" height="64" fill="currentColor"/>
</clipPath>
</defs>
</svg>
