<svg width="423" height="40" viewBox="0 0 423 40" fill="none" xmlns="http://www.w3.org/2000/svg">
<path d="M33.5249 6.57471C33.6458 1.09382 35.8231 0.0250054 35.8231 0.0250054C35.8231 0.0250054 31.1136 -0.133631 30.0745 0.348227C25.2718 2.10513 24.5083 7.50274 24.5044 10.9828C24.5083 10.4712 24.4627 0.736887 13.9907 0.0567327C13.6675 0.0369031 0.000976562 0.0269883 0.000976562 0.0269883C0.000976562 0.0269883 2.19809 1.08787 2.30517 6.5767V23.1423C2.65021 19.4461 4.30598 15.0479 8.29767 10.0013C11.7143 14.3182 13.4196 18.1552 14.0562 21.4945C16.4853 19.4659 19.8405 17.7566 24.4687 16.7374C24.4687 16.7374 24.9942 23.063 22.3886 28.885C25.3253 28.1215 28.8233 27.9788 32.9419 28.879C33.2591 27.7805 33.4594 26.6284 33.5229 25.4505L33.5249 6.57471Z" fill="currentColor"/>
<path d="M7.87305 36.4744C7.73425 33.147 8.17843 26.397 14.0579 21.4952C13.4214 18.1559 11.714 14.3189 8.29939 10.002C4.30571 15.0486 2.64994 19.4468 2.30491 23.143C2.30491 23.143 1.30153 31.061 7.87305 36.4744Z" fill="currentColor"/>
<path d="M24.4697 16.7354C19.8415 17.7546 16.4863 19.4659 14.0572 21.4925C8.17771 26.3943 7.73353 33.1443 7.87233 36.4717C8.03295 36.6304 10.3272 38.1275 10.3272 38.1275C12.1377 35.1947 15.9132 30.5546 22.3896 28.8829C24.9932 23.063 24.4697 16.7354 24.4697 16.7354Z" fill="currentColor"/>
<path d="M22.3905 28.8835C15.9141 30.5552 12.1386 35.1953 10.3281 38.1281C10.3361 38.134 10.346 38.14 10.3579 38.1459C14.185 40.2697 18.1787 39.9881 18.1787 39.9881C25.1864 39.9821 31.0996 35.2905 32.9438 28.8776C28.8271 27.9773 25.3272 28.124 22.3905 28.8835Z" fill="currentColor"/>
<path d="M67.6196 9.20215V9.84859C69.1108 10.15 69.3844 11.1831 69.3844 13.2335V35.4605C69.2972 37.1995 68.1748 38.655 66.6162 39.234V39.9856C66.7154 39.9915 66.8165 39.9935 66.9137 39.9935C67.7842 39.9935 68.615 39.8388 69.3844 39.5473C72.0158 38.5697 73.8996 36.0692 73.975 33.1186V13.2335C73.975 11.1831 74.2526 10.15 75.7418 9.84859V9.20215H67.6196Z" fill="currentColor"/>
<path d="M79.2983 9.20215V9.84859C80.7895 10.15 81.0671 11.1831 81.0671 13.2335V35.4605C80.9758 37.1995 79.8555 38.655 78.2969 39.234V39.9856C78.396 39.9915 78.4932 39.9935 78.5943 39.9935C79.4628 39.9935 80.2977 39.8388 81.0671 39.5473C83.6965 38.5697 85.5783 36.0692 85.6576 33.1186V13.2335C85.6576 11.1831 85.9332 10.15 87.4224 9.84859V9.20215H79.2983Z" fill="currentColor"/>
<path d="M114.396 9.20605V9.8525C115.407 10.138 115.728 10.721 115.728 11.4151C115.728 12.3015 115.373 13.2295 114.982 14.2983L111.782 23.0868L106.733 10.4712C106.408 9.72757 105.667 9.20605 104.8 9.20605H100.114V9.84853C101.607 10.023 102.309 11.0938 103.164 13.2672L109.934 30.2928H110.681L117.199 13.2672C117.919 11.3556 118.576 10.1956 119.744 9.84853V9.20605H114.396Z" fill="currentColor"/>
<path d="M121.502 21.2268L124.292 13.6698L127.269 21.2268H121.502ZM134.727 28.3C134.392 27.7666 133.658 25.9899 133.658 25.9899L127.084 9.20215H124.334L117.935 26.2675C117.239 28.1116 116.599 29.2796 115.498 29.6504V30.2929H120.136V29.6504C119.22 29.4382 119.02 29.0555 119.02 28.4567C119.02 27.7131 119.337 27.0091 119.621 26.2675L120.862 23.1166L128.02 23.1126L130.344 29.0059C130.689 29.7753 131.445 30.2512 132.306 30.2929H136.819V29.6504C135.907 29.5612 135.28 29.1586 134.727 28.3Z" fill="currentColor"/>
<path d="M97.7451 26.7543C97.7451 24.0119 97.7451 11.4836 97.7451 11.436C97.6677 10.1927 96.6406 9.20715 95.3774 9.19922H95.3715H95.3655H91.2311V9.84566C92.7262 10.1471 93.0019 11.1782 93.0019 13.2286V26.6592C92.9503 28.428 92.5894 29.3699 91.1914 29.6495V30.288H99.5516V29.6495C98.1734 29.3718 97.8066 28.4597 97.7451 26.7543Z" fill="currentColor"/>
<path d="M158.97 26.2665V16.2308C158.97 11.5014 156.813 9.2012 152.363 9.2012C149.535 9.2012 147.132 10.1947 144.98 12.2788L144.974 11.3606C144.901 10.159 143.908 9.20318 142.686 9.19922H142.682H142.678H138.679V9.84566C140.051 10.1153 140.362 11.0136 140.386 12.7983V26.2645C140.386 28.3129 140.11 29.348 138.621 29.6475V30.288H146.747V29.6475C145.252 29.348 144.978 28.3129 144.978 26.2645V14.4917C146.745 12.477 148.689 11.4876 150.664 11.4876C153.38 11.4876 154.372 13.0759 154.372 16.5044V26.2665C154.372 28.3149 154.098 29.35 152.605 29.6495V30.29H160.733V29.6495C159.248 29.35 158.97 28.3149 158.97 26.2665Z" fill="currentColor"/>
<path d="M43.7717 13.2295V23.2653C43.7717 27.9986 45.9232 30.2929 50.3789 30.2929C53.2026 30.2929 55.606 29.3014 57.7634 27.2193L57.7654 28.1315C57.8368 29.3351 58.8283 30.2909 60.0517 30.2929H60.0557H60.0597H64.0593V29.6583C62.693 29.3827 62.3797 28.4805 62.354 26.6918V13.2295C62.354 11.1811 62.6276 10.15 64.1188 9.84859V9.20215H55.9926V9.84859C57.4838 10.146 57.7654 11.1811 57.7654 13.2295V25.0043C55.9946 27.019 54.0513 28.0065 52.0763 28.0065C49.3557 28.0065 48.3682 26.4142 48.3682 22.9916V13.2295C48.3682 11.1811 48.6438 10.15 50.135 9.84859V9.20215H42.0068V9.84859C43.496 10.146 43.7717 11.1811 43.7717 13.2295Z" fill="currentColor"/>
<path d="M177.001 18.783C177.714 19.0209 178.327 19.3005 178.835 19.6119C179.346 19.9271 179.759 20.3039 180.072 20.7461C180.385 21.1943 180.612 21.7078 180.752 22.2928C180.895 22.8758 180.965 23.5718 180.965 24.369V24.9876C180.965 25.9196 180.842 26.7426 180.592 27.4584C180.342 28.1703 179.931 28.7731 179.358 29.257C178.783 29.7487 178.04 30.1176 177.131 30.3654C176.221 30.6113 175.117 30.7402 173.818 30.7402C173.294 30.7402 172.614 30.6827 171.77 30.5756C170.925 30.4685 170.025 30.3059 169.075 30.0898L169.14 27.5853C170.025 27.7995 170.879 27.9641 171.688 28.0731C172.499 28.1862 173.187 28.2337 173.751 28.2337C175.422 28.2337 176.58 27.9799 177.231 27.4703C177.879 26.9647 178.202 26.2072 178.202 25.2137V24.1409C178.202 23.3795 178.04 22.8044 177.716 22.4039C177.391 22.0013 176.794 21.6583 175.93 21.3747L172.583 20.2702C171.827 20.0322 171.192 19.7626 170.683 19.4611C170.173 19.1558 169.767 18.7909 169.463 18.3547C169.162 17.9204 168.938 17.4088 168.799 16.8258C168.658 16.2428 168.589 15.5468 168.589 14.7496V14.3927C168.589 12.5486 169.081 11.1307 170.066 10.1492C171.052 9.16365 172.67 8.67188 174.924 8.67188C175.486 8.67188 176.186 8.71748 177.02 8.81663C177.855 8.9138 178.672 9.03674 179.473 9.18943L179.408 11.6265C178.648 11.4778 177.877 11.3489 177.086 11.2537C176.297 11.1545 175.573 11.1069 174.924 11.1069C173.624 11.1069 172.702 11.3627 172.162 11.8704C171.619 12.378 171.351 13.1335 171.351 14.129V14.9757C171.351 15.3644 171.383 15.6935 171.448 15.9652C171.512 16.2388 171.643 16.4808 171.837 16.6929C172.031 16.913 172.301 17.0994 172.648 17.264C172.995 17.4266 173.437 17.5972 173.981 17.7677L177.001 18.783Z" fill="currentColor"/>
<path d="M198.381 30.3495L198.219 12.8678L193.701 28.1385H190.287L185.774 12.8678L185.613 30.3495H182.912L183.108 9.06445H187.201L192.012 25.6697L196.789 9.06445H200.884L201.076 30.3495H198.381Z" fill="currentColor"/>
<path d="M207.445 22.9392H213.88L210.695 11.5967L207.445 22.9392ZM214.595 25.408H206.763L205.367 30.3475H202.539L209.039 9.06445H212.45L218.984 30.3475H215.991L214.595 25.408Z" fill="currentColor"/>
<path d="M220.605 30.3495V9.06445H223.368V27.9125H231.815V30.3495H220.605Z" fill="currentColor"/>
<path d="M233.767 30.3495V9.06445H236.527V27.9125H244.976V30.3495H233.767Z" fill="currentColor"/>
<path d="M254.602 11.5689V18.2951H260.969V20.7639H254.602V30.3495H251.84V9.06445H263.05V11.5689H254.602Z" fill="currentColor"/>
<path d="M266.299 9.06445H269.063V30.3475H266.299V9.06445Z" fill="currentColor"/>
<path d="M282.384 30.3495L275.366 12.38V30.3495H272.638V9.06445H277.056L283.943 27.036V9.06445H286.673V30.3495H282.384Z" fill="currentColor"/>
<path d="M293.204 22.9392H299.636L296.454 11.5967L293.204 22.9392ZM300.352 25.408H292.522L291.126 30.3475H288.298L294.796 9.06445H298.209L304.739 30.3475H301.75L300.352 25.408Z" fill="currentColor"/>
<path d="M316.113 30.3495L309.096 12.38V30.3495H306.365V9.06445H310.785L317.668 27.036V9.06445H320.403V30.3495H316.113Z" fill="currentColor"/>
<path d="M330.733 8.67871C331.473 8.67871 332.224 8.73622 332.994 8.85519C333.761 8.97615 334.505 9.0872 335.218 9.19626L335.151 11.6333C334.614 11.5203 333.939 11.4112 333.136 11.2922C332.337 11.1713 331.534 11.1138 330.733 11.1138C329.238 11.1138 328.173 11.4092 327.534 12.0061C326.896 12.599 326.577 13.6163 326.577 15.046V24.3381C326.577 25.746 326.896 26.7474 327.534 27.3443C328.173 27.9392 329.238 28.2366 330.733 28.2366C331.534 28.2366 332.337 28.1791 333.136 28.0562C333.937 27.9372 334.612 27.8261 335.151 27.7151L335.218 30.2196C334.505 30.3286 333.761 30.4417 332.994 30.5606C332.224 30.6796 331.473 30.7431 330.733 30.7431C329.454 30.7431 328.373 30.6082 327.487 30.3346C326.597 30.0649 325.879 29.6525 325.339 29.0992C324.8 28.5479 324.407 27.8599 324.169 27.0369C323.931 26.214 323.814 25.2602 323.814 24.1755V15.2403C323.814 13.0313 324.33 11.3874 325.369 10.3028C326.412 9.21609 328.201 8.67871 330.733 8.67871Z" fill="currentColor"/>
<path d="M338.143 30.3495V9.06445H349.358V11.5689H340.909V18.2971H348.706V20.7619H340.909V27.847H349.358V30.3495H338.143Z" fill="currentColor"/>
<path d="M360.92 28.1375C361.357 28.1851 361.71 28.2129 361.993 28.2347C362.277 28.2585 362.531 28.2783 362.759 28.2981C362.989 28.3219 363.199 28.3319 363.391 28.3319H364.107C365.834 28.3319 367.083 28.0027 367.843 27.3424C368.602 26.682 368.979 25.8016 368.979 24.6931V24.011C368.979 22.9283 368.61 22.0994 367.873 21.5244C367.133 20.9533 365.943 20.6618 364.299 20.6618H360.918V28.1375H360.92ZM360.92 18.425H364.107C365.426 18.425 366.421 18.1097 367.095 17.4791C367.768 16.8545 368.101 15.9701 368.101 14.8497V14.2965C368.101 13.2574 367.748 12.4563 367.048 11.8931C366.344 11.33 365.144 11.0464 363.457 11.0464C362.677 11.0464 361.835 11.0801 360.92 11.1436V18.425ZM358.16 8.80568C358.918 8.76007 359.77 8.73033 360.708 8.70852C361.652 8.6867 362.709 8.6748 363.879 8.6748C366.219 8.6748 367.966 9.15666 369.126 10.1204C370.286 11.0841 370.867 12.3334 370.867 13.8761V14.588C370.867 15.6707 370.625 16.6146 370.151 17.4137C369.675 18.2188 368.914 18.8494 367.877 19.3015C369.092 19.5593 370.04 20.1125 370.724 20.9553C371.402 21.802 371.745 22.8648 371.745 24.1399V24.8538C371.745 25.7025 371.595 26.4818 371.291 27.2095C370.986 27.9333 370.526 28.5599 369.911 29.0775C369.292 29.601 368.501 30.0055 367.54 30.297C366.574 30.5865 365.432 30.7372 364.111 30.7372H362.778C362.39 30.7372 361.983 30.7213 361.559 30.7015C361.137 30.6777 360.659 30.6579 360.127 30.6361C359.598 30.6142 358.941 30.5825 358.164 30.5389V8.80568H358.16Z" fill="currentColor"/>
<path d="M376.808 22.9392H383.239L380.058 11.5967L376.808 22.9392ZM383.959 25.408H376.128L374.73 30.3475H371.898L378.401 9.06445H381.813L388.347 30.3475H385.355L383.959 25.408Z" fill="currentColor"/>
<path d="M399.72 30.3495L392.7 12.38V30.3495H389.97V9.06445H394.392L401.279 27.036V9.06445H404.011V30.3495H399.72Z" fill="currentColor"/>
<path d="M407.584 30.3495V9.06445H410.344V19.3342L418.272 9.06445H421.36L413.204 19.3679L422.206 30.3495H418.663L410.344 19.82V30.3495H407.584Z" fill="currentColor"/>
</svg>
