<svg width="64" height="64" viewBox="0 0 64 64" fill="none" xmlns="http://www.w3.org/2000/svg">
<g clip-path="url(#clip0_3396_56479)">
<g filter="url(#filter0_d_3396_56479)">
<path d="M0 32C0 14.3269 14.3269 0 32 0C49.6731 0 64 14.3269 64 32C64 49.6731 49.6731 64 32 64C14.3269 64 0 49.6731 0 32Z" fill="#F8F8F8"/>
<path d="M36.461 27.4473C35.9133 29.3191 36.0693 28.6168 35.2589 31.6869C34.5266 34.6024 33.7663 37.4893 33.1927 39.4138C33.0089 39.7784 32.7982 40.1458 32.5132 40.5085C32.1725 40.9507 31.7789 41.393 31.3362 41.7835C28.8494 43.9431 25.1374 45.22 21.9238 44.7249C21.6602 44.6953 21.3455 44.6445 20.9826 44.5417C18.9655 44.0726 17.6335 43.0817 16.8751 41.8372C16.0647 40.5085 15.8549 38.7653 16.1418 36.8906C16.1696 36.6316 16.2476 36.2929 16.3497 35.9025C17.5796 30.9559 18.8355 26.0409 20.0664 21.123C20.562 18.6266 15.2776 17.9734 14.1544 21.2257L10.7542 34.5506C10.6791 34.9652 10.5733 35.4851 10.4925 36.0301C9.9959 39.2047 10.4665 42.2276 11.9331 44.7249C13.4749 47.2982 16.0127 49.2273 19.6459 50.0814C20.0385 50.1868 20.5101 50.2655 21.0578 50.3441C25.893 51.0723 31.4652 49.2495 35.103 46.0499C35.8317 45.3985 36.5139 44.6953 37.0895 43.9431C37.664 43.1612 38.1606 42.3285 38.5551 41.443V41.418L38.6582 41.133C39.2337 39.2566 40.019 36.1884 40.8284 33.0914C41.5859 30.1518 41.8736 29.1368 42.4482 27.2104C42.9996 24.5835 37.8729 23.4639 36.461 27.4473Z" fill="#ED1D24"/>
<path d="M27.4949 36.5273C28.0658 34.6823 27.9117 35.38 28.696 32.2859C29.4562 29.3981 30.2137 26.4807 30.7586 24.582C30.9451 24.2194 31.1809 23.8289 31.4659 23.4911C31.8075 23.0211 32.1992 22.6066 32.642 22.2171C35.1287 20.0306 38.8686 18.7796 42.058 19.2497C42.3198 19.3006 42.6336 19.3524 42.9983 19.431C45.0136 19.927 46.3725 20.8902 47.1328 22.1643C47.9143 23.4911 48.1548 25.2103 47.8633 27.1053C47.8104 27.3681 47.7602 27.6789 47.6545 28.0962C46.3447 33.3 45.0396 38.476 43.7595 43.6825C43.4161 46.7794 48.9094 47.0903 49.6938 43.6039L53.2248 29.449C53.3278 29.0067 53.4337 28.5136 53.5117 27.9417C53.9813 24.7912 53.5386 21.7748 52.046 19.2765C50.5329 16.6996 47.9951 14.7732 44.3592 13.9155C43.9674 13.8377 43.4931 13.7323 42.9213 13.6536C38.0843 12.9273 32.5148 14.7732 28.8789 17.9497C28.1205 18.5992 27.4661 19.3006 26.8887 20.0556C26.315 20.8097 25.8166 21.6674 25.4537 22.5548L25.3209 22.8656C24.7732 24.7134 23.961 27.8104 23.1767 30.8813C22.3923 33.8477 22.1324 34.8628 21.555 36.7606C21.504 40.3256 26.8628 40.0138 27.4949 36.5273Z" fill="#006CB7"/>
</g>
</g>
<defs>
<filter id="filter0_d_3396_56479" x="-6" y="-5" width="76" height="76" filterUnits="userSpaceOnUse" color-interpolation-filters="sRGB">
<feFlood flood-opacity="0" result="BackgroundImageFix"/>
<feColorMatrix in="SourceAlpha" type="matrix" values="0 0 0 0 0 0 0 0 0 0 0 0 0 0 0 0 0 0 127 0" result="hardAlpha"/>
<feOffset dy="1"/>
<feGaussianBlur stdDeviation="3"/>
<feComposite in2="hardAlpha" operator="out"/>
<feColorMatrix type="matrix" values="0 0 0 0 0 0 0 0 0 0 0 0 0 0 0 0 0 0 0.08 0"/>
<feBlend mode="normal" in2="BackgroundImageFix" result="effect1_dropShadow_3396_56479"/>
<feBlend mode="normal" in="SourceGraphic" in2="effect1_dropShadow_3396_56479" result="shape"/>
</filter>
<clipPath id="clip0_3396_56479">
<rect width="64" height="64" fill="white"/>
</clipPath>
</defs>
</svg>
