<svg width="24" height="24" viewBox="0 0 24 24" fill="none" xmlns="http://www.w3.org/2000/svg">
<g clip-path="url(#clip0_3396_59177)">
<g filter="url(#filter0_d_3396_59177)">
<g clip-path="url(#clip1_3396_59177)">
<path d="M0 12C0 5.37258 5.37258 0 12 0C18.6274 0 24 5.37258 24 12C24 18.6274 18.6274 24 12 24C5.37258 24 0 18.6274 0 12Z" fill="#059B4E"/>
<path fill-rule="evenodd" clip-rule="evenodd" d="M12.0001 3.11328C17.1576 3.11328 21.3644 7.10525 21.3644 11.9994C21.3644 16.8936 17.1576 20.8856 12.0001 20.8856C6.84178 20.8856 2.63574 16.8936 2.63574 11.9994C2.63574 7.10525 6.84178 3.11328 12.0001 3.11328Z" fill="white"/>
<path d="M11.9854 3.91992C16.6716 3.91992 20.494 7.5456 20.494 11.9912C20.494 16.4365 16.6716 20.0622 11.9854 20.0622C7.29869 20.0622 3.47656 16.4365 3.47656 11.9912C3.47656 7.5456 7.29869 3.91992 11.9854 3.91992Z" stroke="#059B4E" stroke-width="1.75" stroke-miterlimit="2.613"/>
<path fill-rule="evenodd" clip-rule="evenodd" d="M11.1973 3.17383C11.3173 3.17359 11.4146 3.26021 11.4144 3.36662C11.4141 3.47306 11.3167 3.56018 11.1966 3.56042C11.0769 3.56005 10.9788 3.47375 10.9795 3.3676C10.9793 3.26087 11.0772 3.17404 11.1973 3.17383Z" fill="#059B4E"/>
<path fill-rule="evenodd" clip-rule="evenodd" d="M9.54679 3.44288C9.6647 3.42296 9.77762 3.49199 9.79778 3.59652C9.81794 3.70104 9.7382 3.80309 9.62032 3.82299C9.50243 3.84288 9.39031 3.7743 9.36933 3.66935C9.34917 3.56483 9.42891 3.46277 9.54679 3.44288Z" fill="#059B4E"/>
<path fill-rule="evenodd" clip-rule="evenodd" d="M7.98236 4.00413C8.09459 3.96442 8.21831 4.01271 8.258 4.11206C8.29721 4.2119 8.23763 4.32522 8.12489 4.36543C8.01309 4.40554 7.88894 4.35688 7.85018 4.25741C7.8105 4.15806 7.87013 4.04384 7.98236 4.00413Z" fill="#059B4E"/>
<path fill-rule="evenodd" clip-rule="evenodd" d="M6.54476 4.81819C6.64753 4.75965 6.77846 4.78616 6.83581 4.87788C6.89307 4.96872 6.85565 5.09091 6.7524 5.14919C6.64966 5.20773 6.5187 5.18122 6.46146 5.09038C6.40411 4.99866 6.44154 4.87647 6.54476 4.81819Z" fill="#059B4E"/>
<path fill-rule="evenodd" clip-rule="evenodd" d="M5.28428 5.84284C5.37494 5.76782 5.50852 5.77175 5.58141 5.85173C5.65541 5.93198 5.6411 6.05813 5.551 6.13327C5.46018 6.20895 5.32678 6.20433 5.25334 6.12421C5.17968 6.04479 5.19365 5.91785 5.28428 5.84284Z" fill="#059B4E"/>
<path fill-rule="evenodd" clip-rule="evenodd" d="M4.22501 7.08889C4.29939 6.99964 4.43196 6.98144 4.5194 7.04745C4.60741 7.11418 4.61702 7.24059 4.54265 7.32984C4.46766 7.41906 4.33509 7.43726 4.24764 7.37125C4.16023 7.30455 4.15003 7.17811 4.22501 7.08889Z" fill="#059B4E"/>
<path fill-rule="evenodd" clip-rule="evenodd" d="M3.44553 8.47713C3.50179 8.37675 3.62905 8.33635 3.72736 8.38724C3.82622 8.43785 3.86054 8.56107 3.80394 8.66084C3.74672 8.7609 3.62039 8.80162 3.52211 8.75073C3.42322 8.70012 3.38831 8.57722 3.44553 8.47713Z" fill="#059B4E"/>
<path fill-rule="evenodd" clip-rule="evenodd" d="M2.91188 9.98748C2.9492 9.87918 3.06668 9.81769 3.17283 9.85073C3.279 9.8838 3.33579 9.99916 3.29847 10.1075C3.26115 10.2151 3.14441 10.2767 3.03752 10.2436C2.93135 10.2111 2.87453 10.0958 2.91188 9.98748Z" fill="#059B4E"/>
<path fill-rule="evenodd" clip-rule="evenodd" d="M2.69448 11.5514C2.71095 11.4388 2.81454 11.3587 2.92586 11.3727C3.03663 11.3872 3.11377 11.491 3.09825 11.6035C3.08178 11.7161 2.97766 11.7967 2.86687 11.7822C2.7561 11.7677 2.67846 11.6644 2.69448 11.5514Z" fill="#059B4E"/>
<path fill-rule="evenodd" clip-rule="evenodd" d="M2.76981 13.1443C2.76397 13.0307 2.85098 12.9341 2.96236 12.9299C3.07408 12.9249 3.17021 13.0142 3.1755 13.1279C3.18081 13.2417 3.09432 13.3381 2.9826 13.3431C2.87072 13.3474 2.7751 13.258 2.76981 13.1443Z" fill="#059B4E"/>
<path fill-rule="evenodd" clip-rule="evenodd" d="M3.12799 14.6803C3.101 14.5693 3.169 14.4598 3.27796 14.4362C3.38689 14.4125 3.49824 14.4837 3.52446 14.5946C3.55145 14.7055 3.48345 14.8151 3.37449 14.8392C3.26553 14.8628 3.1542 14.7912 3.12799 14.6803Z" fill="#059B4E"/>
<path fill-rule="evenodd" clip-rule="evenodd" d="M3.7716 16.1377C3.72434 16.0329 3.7699 15.9137 3.87325 15.8721C3.97602 15.8299 4.0988 15.8819 4.14608 15.9867C4.19283 16.0915 4.14725 16.2108 4.04392 16.2523C3.94109 16.2939 3.81888 16.2425 3.7716 16.1377Z" fill="#059B4E"/>
<path fill-rule="evenodd" clip-rule="evenodd" d="M4.69229 17.4667C4.62588 17.3714 4.64907 17.2464 4.74206 17.1881C4.8358 17.1297 4.96569 17.1594 5.03207 17.2547C5.09774 17.3494 5.07526 17.4745 4.98227 17.5333C4.88853 17.5917 4.75792 17.562 4.69229 17.4667Z" fill="#059B4E"/>
<path fill-rule="evenodd" clip-rule="evenodd" d="M5.83175 18.6143C5.7489 18.532 5.74733 18.4046 5.82811 18.3314C5.90889 18.2582 6.04274 18.2661 6.12561 18.3484C6.20846 18.4308 6.21003 18.5581 6.12925 18.6313C6.04847 18.7045 5.91462 18.6966 5.83175 18.6143Z" fill="#059B4E"/>
<path fill-rule="evenodd" clip-rule="evenodd" d="M7.18924 19.5513C7.09269 19.4844 7.06732 19.3599 7.13386 19.2733C7.20008 19.1874 7.33284 19.172 7.42939 19.2389C7.52597 19.3057 7.55086 19.43 7.48512 19.5162C7.4189 19.6021 7.2858 19.6181 7.18924 19.5513Z" fill="#059B4E"/>
<path fill-rule="evenodd" clip-rule="evenodd" d="M8.68461 20.2529C8.57682 20.2033 8.52893 20.0849 8.57767 19.9893C8.62646 19.893 8.75404 19.855 8.86184 19.9045C8.96963 19.9541 9.01823 20.0726 8.96878 20.1682C8.91998 20.2644 8.7924 20.3024 8.68461 20.2529Z" fill="#059B4E"/>
<path fill-rule="evenodd" clip-rule="evenodd" d="M10.2962 20.6772C10.1806 20.6468 10.1107 20.5377 10.1408 20.4359C10.1704 20.3335 10.289 20.2745 10.4045 20.3049C10.5205 20.3357 10.59 20.4443 10.5603 20.5467C10.5303 20.6485 10.4117 20.7075 10.2962 20.6772Z" fill="#059B4E"/>
<path fill-rule="evenodd" clip-rule="evenodd" d="M11.959 20.8271C11.8399 20.8163 11.7506 20.7211 11.7605 20.6155C11.7703 20.5093 11.8762 20.4316 11.9953 20.4424C12.1144 20.4533 12.2037 20.5484 12.1938 20.654C12.1835 20.7597 12.0781 20.838 11.959 20.8271Z" fill="#059B4E"/>
<path fill-rule="evenodd" clip-rule="evenodd" d="M13.6293 20.6826C13.5103 20.692 13.4048 20.6134 13.3944 20.5075C13.384 20.4016 13.4733 20.3071 13.5923 20.2978C13.7117 20.2876 13.8172 20.3662 13.8278 20.4726C13.8382 20.5785 13.7487 20.6725 13.6293 20.6826Z" fill="#059B4E"/>
<path fill-rule="evenodd" clip-rule="evenodd" d="M15.2347 20.2746C15.1192 20.3047 15.0008 20.2456 14.9706 20.1429C14.941 20.0406 15.0112 19.9327 15.1268 19.9025C15.2428 19.872 15.3607 19.9315 15.3903 20.0338C15.4205 20.1366 15.3503 20.2444 15.2347 20.2746Z" fill="#059B4E"/>
<path fill-rule="evenodd" clip-rule="evenodd" d="M16.7483 19.5966C16.64 19.6453 16.5127 19.6072 16.4641 19.5111C16.4157 19.415 16.464 19.2966 16.5717 19.248C16.6798 19.1987 16.8074 19.2374 16.8558 19.3335C16.905 19.4293 16.8559 19.548 16.7483 19.5966Z" fill="#059B4E"/>
<path fill-rule="evenodd" clip-rule="evenodd" d="M18.0899 18.6742C17.9923 18.741 17.8595 18.7251 17.7945 18.6391C17.7282 18.5529 17.7544 18.428 17.8514 18.3617C17.949 18.2949 18.0817 18.3108 18.1472 18.3963C18.2126 18.4827 18.1874 18.6074 18.0899 18.6742Z" fill="#059B4E"/>
<path fill-rule="evenodd" clip-rule="evenodd" d="M19.257 17.5289C19.1734 17.6113 19.0399 17.6185 18.9592 17.5453C18.8789 17.4714 18.8812 17.3441 18.9639 17.2622C19.0475 17.1798 19.181 17.1726 19.2617 17.2458C19.342 17.3197 19.3405 17.4466 19.257 17.5289Z" fill="#059B4E"/>
<path fill-rule="evenodd" clip-rule="evenodd" d="M20.195 16.2155C20.1286 16.3103 19.9984 16.34 19.905 16.2817C19.8123 16.2229 19.7904 16.0972 19.8568 16.0023C19.9232 15.9074 20.0534 15.8778 20.1468 15.9361C20.2399 15.9951 20.2614 16.1206 20.195 16.2155Z" fill="#059B4E"/>
<path fill-rule="evenodd" clip-rule="evenodd" d="M20.8372 14.7573C20.7896 14.8622 20.6669 14.9136 20.5641 14.8714C20.4613 14.8293 20.4168 14.7105 20.4644 14.6056C20.5119 14.5006 20.6346 14.4492 20.737 14.4912C20.84 14.5327 20.8847 14.6524 20.8372 14.7573Z" fill="#059B4E"/>
<path fill-rule="evenodd" clip-rule="evenodd" d="M21.2335 13.2182C21.2063 13.3291 21.0955 13.4002 20.9864 13.3759C20.8772 13.3516 20.8099 13.242 20.8371 13.1311C20.8637 13.0206 20.9745 12.9494 21.0842 12.9734C21.1933 12.9977 21.2606 13.1074 21.2335 13.2182Z" fill="#059B4E"/>
<path fill-rule="evenodd" clip-rule="evenodd" d="M21.3112 11.6298C21.3052 11.7432 21.2093 11.8319 21.0976 11.8274C20.9859 11.8228 20.8995 11.7258 20.9056 11.6124C20.911 11.4983 21.0077 11.4097 21.1193 11.4142C21.231 11.4188 21.3173 11.5158 21.3112 11.6298Z" fill="#059B4E"/>
<path fill-rule="evenodd" clip-rule="evenodd" d="M21.0889 10.0655C21.1044 10.1783 21.0267 10.2822 20.915 10.2965C20.8049 10.3107 20.7016 10.2305 20.6854 10.1174C20.6708 10.0042 20.7483 9.90088 20.8593 9.88635C20.9701 9.87237 21.0734 9.95262 21.0889 10.0655Z" fill="#059B4E"/>
<path fill-rule="evenodd" clip-rule="evenodd" d="M20.5977 8.55042C20.634 8.65884 20.5772 8.77389 20.4709 8.80576C20.3644 8.83854 20.2472 8.77665 20.2103 8.66867C20.1736 8.55979 20.2308 8.4452 20.3368 8.41288C20.4437 8.38055 20.5608 8.44244 20.5977 8.55042Z" fill="#059B4E"/>
<path fill-rule="evenodd" clip-rule="evenodd" d="M19.8031 7.15161C19.8592 7.25196 19.8248 7.37508 19.7259 7.42497C19.6271 7.47488 19.5007 7.43405 19.4439 7.3337C19.3878 7.23337 19.4222 7.11025 19.5211 7.06034C19.62 7.01046 19.7463 7.05126 19.8031 7.15161Z" fill="#059B4E"/>
<path fill-rule="evenodd" clip-rule="evenodd" d="M18.7737 5.90975C18.8481 5.99921 18.8371 6.1257 18.7494 6.19139C18.6618 6.25708 18.5292 6.23891 18.4548 6.14945C18.3805 6.06001 18.3908 5.93349 18.4791 5.86781C18.5668 5.80143 18.6993 5.82028 18.7737 5.90975Z" fill="#059B4E"/>
<path fill-rule="evenodd" clip-rule="evenodd" d="M17.525 4.86673C17.6153 4.94206 17.6285 5.06831 17.5548 5.14834C17.4807 5.22779 17.3471 5.2314 17.2573 5.15663C17.167 5.08127 17.1534 4.95444 17.2275 4.87499C17.3012 4.79495 17.4347 4.79137 17.525 4.86673Z" fill="#059B4E"/>
<path fill-rule="evenodd" clip-rule="evenodd" d="M16.0942 4.04505C16.1971 4.10386 16.2335 4.22594 16.1761 4.31729C16.1183 4.40808 15.9874 4.4344 15.8845 4.37559C15.7816 4.31679 15.7452 4.1947 15.8025 4.10336C15.8604 4.01256 15.9913 3.98624 16.0942 4.04505Z" fill="#059B4E"/>
<path fill-rule="evenodd" clip-rule="evenodd" d="M14.543 3.47514C14.6549 3.51546 14.7139 3.62976 14.6746 3.72908C14.6345 3.82842 14.511 3.87684 14.399 3.83594C14.2863 3.79564 14.2274 3.68193 14.2674 3.58261C14.3067 3.48329 14.431 3.43484 14.543 3.47514Z" fill="#059B4E"/>
<path d="M11.9846 3.25391C11.9851 3.61593 11.5712 3.94222 11.1748 3.94185C10.7785 3.94148 10.4452 3.67657 10.3633 3.34544" stroke="#06974C" stroke-width="1.75" stroke-miterlimit="2.613" stroke-linecap="round" stroke-linejoin="round"/>
<path d="M10.2967 3.35547C10.3654 3.71202 10.0197 4.10352 9.62978 4.1703C9.23998 4.23703 8.86255 4.03244 8.71973 3.72001" stroke="#06974C" stroke-width="1.75" stroke-miterlimit="2.613" stroke-linecap="round" stroke-linejoin="round"/>
<path d="M8.79788 3.77148C8.93208 4.11106 8.666 4.55505 8.29511 4.68678C7.9243 4.81855 7.51462 4.68077 7.31543 4.39756" stroke="#06974C" stroke-width="1.75" stroke-miterlimit="2.613" stroke-linecap="round" stroke-linejoin="round"/>
<path d="M7.29758 4.4707C7.49356 4.7821 7.31527 5.26444 6.9754 5.45689C6.63556 5.64947 6.20687 5.58333 5.95801 5.33813" stroke="#06974C" stroke-width="1.75" stroke-miterlimit="2.613" stroke-linecap="round" stroke-linejoin="round"/>
<path d="M5.93924 5.39648C6.19026 5.66989 6.10545 6.17492 5.80747 6.42206C5.5096 6.66917 5.07583 6.67688 4.78516 6.47768" stroke="#06974C" stroke-width="1.75" stroke-miterlimit="2.613" stroke-linecap="round" stroke-linejoin="round"/>
<path d="M4.76503 6.50586C5.06301 6.73238 5.07884 7.25266 4.83234 7.54653C4.58589 7.84025 4.16097 7.92159 3.83789 7.77464" stroke="#06974C" stroke-width="1.75" stroke-miterlimit="2.613" stroke-linecap="round" stroke-linejoin="round"/>
<path d="M3.8568 7.82227C4.19234 7.9949 4.29952 8.49661 4.11236 8.82752C3.9251 9.15873 3.52265 9.3107 3.17773 9.22089" stroke="#06974C" stroke-width="1.75" stroke-miterlimit="2.613" stroke-linecap="round" stroke-linejoin="round"/>
<path d="M3.19686 9.24023C3.5589 9.35315 3.75847 9.82907 3.63657 10.1867C3.51476 10.5444 3.14793 10.7622 2.79199 10.7326" stroke="#06974C" stroke-width="1.75" stroke-miterlimit="2.613" stroke-linecap="round" stroke-linejoin="round"/>
<path d="M2.85543 10.7988C3.23227 10.8487 3.5175 11.2832 3.46485 11.6562C3.41236 12.029 3.09274 12.3056 2.7373 12.3367" stroke="#06974C" stroke-width="1.75" stroke-miterlimit="2.613" stroke-linecap="round" stroke-linejoin="round"/>
<path d="M2.80762 12.3481C3.18714 12.333 3.54866 12.7122 3.56693 13.0883C3.58489 13.4643 3.32285 13.7913 2.97945 13.8823" stroke="#06974C" stroke-width="1.75" stroke-miterlimit="2.613" stroke-linecap="round" stroke-linejoin="round"/>
<path d="M2.99805 13.9404C3.36923 13.8604 3.79622 14.1715 3.88409 14.5384C3.97207 14.9053 3.77481 15.2718 3.45362 15.4204" stroke="#06974C" stroke-width="1.75" stroke-miterlimit="2.613" stroke-linecap="round" stroke-linejoin="round"/>
<path d="M3.5127 15.4331C3.86303 15.2908 4.34105 15.524 4.49615 15.8703C4.65116 16.2164 4.52528 16.611 4.23682 16.8123" stroke="#06974C" stroke-width="1.75" stroke-miterlimit="2.613" stroke-linecap="round" stroke-linejoin="round"/>
<path d="M4.35645 16.7432C4.67461 16.5435 5.18891 16.6916 5.40646 17.0058C5.62382 17.3201 5.57383 17.7299 5.32778 17.9771" stroke="#06974C" stroke-width="1.75" stroke-miterlimit="2.613" stroke-linecap="round" stroke-linejoin="round"/>
<path d="M5.375 17.962C5.65069 17.7116 6.18537 17.7701 6.45851 18.0424C6.73157 18.3145 6.75923 18.7261 6.56314 19.0109" stroke="#06974C" stroke-width="1.75" stroke-miterlimit="2.613" stroke-linecap="round" stroke-linejoin="round"/>
<path d="M6.60645 19.0045C6.831 18.7115 7.36821 18.6785 7.68828 18.8999C8.00852 19.1213 8.11307 19.5215 7.9737 19.8349" stroke="#06974C" stroke-width="1.75" stroke-miterlimit="2.613" stroke-linecap="round" stroke-linejoin="round"/>
<path d="M7.98828 19.8342C8.15419 19.5083 8.67705 19.3851 9.03381 19.5486C9.3907 19.7121 9.56915 20.0879 9.49068 20.4195" stroke="#06974C" stroke-width="1.75" stroke-miterlimit="2.613" stroke-linecap="round" stroke-linejoin="round"/>
<path d="M9.52148 20.4434C9.62332 20.095 10.1147 19.8856 10.4967 19.9862C10.8789 20.0868 11.1253 20.426 11.1108 20.7652" stroke="#06974C" stroke-width="1.75" stroke-miterlimit="2.613" stroke-linecap="round" stroke-linejoin="round"/>
<path d="M11.1445 20.7033C11.179 20.3432 11.6227 20.054 12.0175 20.0888C12.4123 20.1233 12.7187 20.4157 12.7682 20.7521" stroke="#06974C" stroke-width="1.75" stroke-miterlimit="2.613" stroke-linecap="round" stroke-linejoin="round"/>
<path d="M12.7658 20.6625C12.7319 20.3016 13.1138 19.9419 13.5086 19.9093C13.9035 19.8766 14.2599 20.1131 14.372 20.4361" stroke="#06974C" stroke-width="1.75" stroke-miterlimit="2.613" stroke-linecap="round" stroke-linejoin="round"/>
<path d="M14.4413 20.4111C14.3401 20.0615 14.6481 19.6426 15.0302 19.5436C15.4123 19.4448 15.8072 19.6171 15.9782 19.9164" stroke="#06974C" stroke-width="1.75" stroke-miterlimit="2.613" stroke-linecap="round" stroke-linejoin="round"/>
<path d="M15.9694 19.8597C15.8043 19.5327 16.0282 19.0679 16.3852 18.9057C16.7425 18.7436 17.1628 18.8464 17.3873 19.1123" stroke="#06974C" stroke-width="1.75" stroke-miterlimit="2.613" stroke-linecap="round" stroke-linejoin="round"/>
<path d="M17.4011 19.0957C17.1775 18.8017 17.3104 18.3063 17.631 18.0861C17.9515 17.8659 18.3843 17.896 18.6547 18.1194" stroke="#06974C" stroke-width="1.75" stroke-miterlimit="2.613" stroke-linecap="round" stroke-linejoin="round"/>
<path d="M18.6524 18.0157C18.3773 17.7643 18.4151 17.2541 18.689 16.9828C18.9629 16.7118 19.3937 16.6678 19.7016 16.8421" stroke="#06974C" stroke-width="1.75" stroke-miterlimit="2.613" stroke-linecap="round" stroke-linejoin="round"/>
<path d="M19.6669 16.8129C19.3494 16.6121 19.2909 16.1033 19.5091 15.79C19.7274 15.4766 20.1428 15.3604 20.4781 15.4794" stroke="#06974C" stroke-width="1.75" stroke-miterlimit="2.613" stroke-linecap="round" stroke-linejoin="round"/>
<path d="M20.4531 15.4948C20.103 15.3509 19.95 14.8601 20.1058 14.5144C20.2615 14.1689 20.648 13.9842 20.9999 14.0445" stroke="#06974C" stroke-width="1.75" stroke-miterlimit="2.613" stroke-linecap="round" stroke-linejoin="round"/>
<path d="M21.0238 13.933C20.653 13.8505 20.4105 13.3932 20.4986 13.0266C20.587 12.66 20.9321 12.4122 21.2894 12.4121" stroke="#06974C" stroke-width="1.75" stroke-miterlimit="2.613" stroke-linecap="round" stroke-linejoin="round"/>
<path d="M21.1658 12.4466C20.7863 12.4284 20.4623 12.0193 20.4802 11.6433C20.4981 11.2675 20.7907 10.9649 21.1414 10.9043" stroke="#06974C" stroke-width="1.75" stroke-miterlimit="2.613" stroke-linecap="round" stroke-linejoin="round"/>
<path d="M21.1707 10.8579C20.794 10.9049 20.399 10.5574 20.3463 10.1844C20.2937 9.81133 20.525 9.4636 20.8587 9.34375" stroke="#06974C" stroke-width="1.75" stroke-miterlimit="2.613" stroke-linecap="round" stroke-linejoin="round"/>
<path d="M20.7926 9.34454C20.43 9.45568 19.976 9.1815 19.8548 8.82347C19.7334 8.46517 19.8965 8.0833 20.2029 7.9082" stroke="#06974C" stroke-width="1.75" stroke-miterlimit="2.613" stroke-linecap="round" stroke-linejoin="round"/>
<path d="M20.149 7.86406C19.813 8.03531 19.3152 7.84297 19.129 7.51104C18.9425 7.17906 19.0316 6.77545 19.3003 6.55078" stroke="#06974C" stroke-width="1.75" stroke-miterlimit="2.613" stroke-linecap="round" stroke-linejoin="round"/>
<path d="M19.2148 6.5503C18.9163 6.77568 18.3899 6.67121 18.1442 6.37636C17.8984 6.08157 17.9103 5.66908 18.1327 5.40234" stroke="#06974C" stroke-width="1.75" stroke-miterlimit="2.613" stroke-linecap="round" stroke-linejoin="round"/>
<path d="M18.0678 5.40453C17.8161 5.6769 17.2783 5.66317 16.9809 5.41484C16.6834 5.16661 16.6178 4.75895 16.7867 4.45898" stroke="#059B4E" stroke-width="1.75" stroke-miterlimit="2.613" stroke-linecap="round" stroke-linejoin="round"/>
<path d="M16.7552 4.50005C16.5585 4.81046 16.0263 4.88797 15.6867 4.69417C15.3472 4.50034 15.2061 4.11061 15.3159 3.78711" stroke="#059B4E" stroke-width="1.75" stroke-miterlimit="2.613" stroke-linecap="round" stroke-linejoin="round"/>
<path d="M15.2854 3.73119C15.1502 4.06946 14.6408 4.23572 14.2702 4.10251C13.8992 3.96938 13.6868 3.61014 13.7341 3.27344" stroke="#059B4E" stroke-width="1.75" stroke-miterlimit="2.613" stroke-linecap="round" stroke-linejoin="round"/>
<path d="M13.6749 3.38396C13.6058 3.73945 13.1361 3.98863 12.7462 3.92007C12.3563 3.85162 12.0794 3.53441 12.0625 3.19531" stroke="#059B4E" stroke-width="1.75" stroke-miterlimit="2.613" stroke-linecap="round" stroke-linejoin="round"/>
<path fill-rule="evenodd" clip-rule="evenodd" d="M12.8989 3.1835C13.0166 3.2047 13.0965 3.3072 13.0763 3.41149C13.0562 3.51644 12.9436 3.58409 12.8261 3.56356C12.7079 3.54249 12.628 3.44002 12.6488 3.33557C12.6683 3.23078 12.7807 3.16244 12.8989 3.1835Z" fill="#059B4E"/>
<path d="M11.9743 4.51758C16.3169 4.51758 19.8585 7.87885 19.8585 12.0001C19.8585 16.1212 16.3169 19.4823 11.9743 19.4823C7.63158 19.4823 4.08984 16.1212 4.08984 12.0001C4.08984 7.87885 7.63158 4.51758 11.9743 4.51758Z" stroke="#059B4E" stroke-width="1.75" stroke-miterlimit="2.613"/>
<path d="M11.9749 7.01172C14.8708 7.01172 17.2328 9.25325 17.2328 12.0015C17.2328 14.7498 14.8708 16.9913 11.9749 16.9913C9.07873 16.9913 6.7168 14.7498 6.7168 12.0015C6.7168 9.25325 9.07873 7.01172 11.9749 7.01172Z" stroke="#059B4E" stroke-width="1.75" stroke-miterlimit="2.613"/>
<path fill-rule="evenodd" clip-rule="evenodd" d="M5.49743 11.6934C5.70512 11.6934 5.87377 11.8541 5.87377 12.0512C5.87377 12.2476 5.70512 12.4083 5.49743 12.4083C5.28974 12.4083 5.12109 12.2476 5.12109 12.0512C5.12109 11.8541 5.28974 11.6934 5.49743 11.6934Z" fill="#059B4E"/>
<path fill-rule="evenodd" clip-rule="evenodd" d="M18.4943 11.873C18.7012 11.873 18.8706 12.0338 18.8706 12.2309C18.8706 12.4272 18.7012 12.588 18.4943 12.588C18.2866 12.588 18.1172 12.4272 18.1172 12.2309C18.1172 12.0338 18.2866 11.873 18.4943 11.873Z" fill="#059B4E"/>
<path d="M6.08234 13.2637L6.15451 13.4733L5.56166 13.6557C5.46813 13.6851 5.40773 13.706 5.38196 13.72C5.33997 13.7424 5.31125 13.7752 5.29579 13.8172C5.28031 13.8591 5.28254 13.9101 5.30241 13.9681C5.32305 14.0275 5.35102 14.0688 5.38712 14.0911C5.42319 14.1135 5.46075 14.1219 5.49979 14.1163C5.53956 14.1114 5.60217 14.0946 5.68908 14.0681L6.29444 13.8815L6.36589 14.0911L5.79142 14.2679C5.65959 14.3085 5.56535 14.3315 5.50715 14.3371C5.44898 14.3427 5.39668 14.3357 5.34807 14.3169C5.30095 14.298 5.25749 14.2665 5.21773 14.2225C5.17796 14.1785 5.14407 14.1149 5.1161 14.0324C5.08221 13.9339 5.06821 13.8549 5.07485 13.7962C5.08146 13.7375 5.09915 13.6872 5.12712 13.646C5.15586 13.604 5.18973 13.5719 5.22878 13.5495C5.28621 13.5167 5.37681 13.4817 5.49905 13.4433L6.08234 13.2637ZM5.39596 14.7257L6.42111 14.2302L6.52349 14.421L6.05288 15.1499L6.73708 14.8194L6.83501 15.0018L5.81058 15.4973L5.70454 15.3002L6.16261 14.5852L5.49464 14.9081L5.39596 14.7257ZM5.94979 15.6741L6.92487 15.0954L7.0486 15.282L6.07277 15.8607L5.94979 15.6741ZM6.41891 16.301L7.15097 15.7181L6.93151 15.47L7.08101 15.3512L7.66799 16.0158L7.51921 16.1339L7.30047 15.8865L6.56843 16.4694L6.41891 16.301ZM7.02209 16.9237L7.77697 16.0997L8.41992 16.6308L8.29252 16.7706L7.82412 16.3841L7.65694 16.5665L8.09219 16.9258L7.96551 17.0648L7.52952 16.7049L7.32477 16.9292L7.80938 17.329L7.68198 17.4681L7.02209 16.9237ZM8.47222 16.693L8.83971 16.8943C8.92221 16.939 8.98185 16.9796 9.01794 17.0159C9.06655 17.0641 9.09896 17.1207 9.11516 17.185C9.13137 17.2493 9.13211 17.3178 9.11737 17.3905C9.10191 17.4625 9.06801 17.5429 9.01354 17.6316C8.96639 17.7092 8.91557 17.7707 8.86107 17.8161C8.79405 17.8706 8.72483 17.907 8.65266 17.9245C8.59815 17.9377 8.53629 17.937 8.46558 17.9224C8.4133 17.9119 8.34995 17.8853 8.27558 17.8448L7.89703 17.6379L8.47222 16.693ZM8.57605 16.9628L8.1953 17.5883L8.3448 17.6708C8.40151 17.7015 8.4435 17.7211 8.47222 17.7281C8.50978 17.7386 8.54439 17.7406 8.57754 17.7337C8.60994 17.7267 8.64602 17.7057 8.68578 17.6715C8.72483 17.6365 8.7668 17.5827 8.81174 17.5093C8.85591 17.4359 8.88242 17.3765 8.89347 17.3297C8.90378 17.2829 8.90306 17.2423 8.89201 17.2074C8.88096 17.1718 8.85886 17.1403 8.82571 17.1116C8.80141 17.09 8.74839 17.0571 8.66591 17.0124L8.57605 16.9628ZM9.6955 17.3039L10.1308 17.4457C10.2162 17.4737 10.2795 17.4981 10.3193 17.5191C10.3591 17.5394 10.3915 17.5659 10.4173 17.5988C10.443 17.6309 10.46 17.6687 10.4695 17.712C10.4784 17.7546 10.4754 17.7994 10.4592 17.8434C10.4416 17.8916 10.4114 17.9321 10.3694 17.9629C10.3274 17.9943 10.2795 18.0125 10.225 18.0174C10.2847 18.0572 10.3244 18.1055 10.3436 18.1607C10.3635 18.2166 10.3628 18.2746 10.3407 18.334C10.3237 18.3808 10.2957 18.4227 10.2567 18.4598C10.2177 18.4961 10.1735 18.5213 10.1241 18.5353C10.0748 18.5485 10.0196 18.5485 9.95842 18.536C9.92086 18.5276 9.83174 18.501 9.69181 18.4563L9.32137 18.3354L9.6955 17.3039ZM9.8531 17.5471L9.76693 17.7861L9.91055 17.8329C9.99598 17.8608 10.0497 17.8769 10.0711 17.8811C10.1101 17.8895 10.144 17.8867 10.1735 17.8734C10.2022 17.8602 10.2221 17.8364 10.2346 17.8035C10.2464 17.7714 10.2464 17.742 10.2353 17.7162C10.2236 17.6903 10.2007 17.6694 10.1654 17.6533C10.1448 17.6435 10.0829 17.6218 9.97906 17.5883L9.8531 17.5471ZM9.70435 17.9573L9.60418 18.2334L9.80744 18.2997C9.88625 18.3256 9.93706 18.3403 9.9599 18.3431C9.99526 18.348 10.0262 18.3424 10.0549 18.3277C10.0829 18.3123 10.1042 18.2865 10.1175 18.2501C10.1285 18.2194 10.13 18.19 10.1219 18.1635C10.1146 18.1362 10.0969 18.1131 10.0711 18.0936C10.0446 18.074 9.98126 18.0481 9.88184 18.0153L9.70435 17.9573ZM11.4586 18.84L11.2097 18.798L11.1559 18.5374L10.7037 18.4619L10.5645 18.6904L10.3222 18.6499L10.963 17.6491L11.2045 17.6896L11.4586 18.84ZM11.1162 18.3445L11.0344 17.9195L10.8076 18.2927L11.1162 18.3445ZM11.698 18.8442L11.6575 17.7532L11.8836 17.7455L12.3807 18.4584L12.3542 17.7302L12.5692 17.7232L12.6098 18.8134L12.377 18.8218L11.8873 18.1257L11.913 18.8372L11.698 18.8442ZM12.9213 18.7827L12.7217 17.7078L12.95 17.6694L13.0391 18.1467L13.4118 17.5918L13.7196 17.5408L13.3705 18.0307L13.9428 18.6114L13.6467 18.6611L13.2416 18.2089L13.0892 18.4192L13.1496 18.7442L12.9213 18.7827ZM14.2005 17.9657C14.1512 17.8643 14.1254 17.7735 14.1239 17.691C14.1225 17.6302 14.1328 17.5708 14.1541 17.5121C14.1755 17.4541 14.2057 17.4045 14.2447 17.364C14.297 17.3087 14.3655 17.2626 14.4502 17.2249C14.6041 17.1571 14.7492 17.148 14.8862 17.1976C15.0225 17.2472 15.13 17.3521 15.2095 17.5135C15.2876 17.6736 15.303 17.8182 15.2559 17.9489C15.2088 18.0796 15.1086 18.1789 14.9562 18.2466C14.8008 18.3151 14.6557 18.3249 14.5202 18.276C14.3847 18.2264 14.2779 18.1229 14.2005 17.9657ZM14.4141 17.8629C14.4693 17.9748 14.5386 18.0474 14.6211 18.0817C14.7043 18.1152 14.7875 18.1131 14.8715 18.0761C14.9554 18.0391 15.0099 17.9803 15.0357 17.8986C15.0607 17.8175 15.046 17.7197 14.9893 17.6051C14.9333 17.4918 14.8656 17.4192 14.786 17.3863C14.7065 17.3535 14.6233 17.3563 14.5364 17.3947C14.4495 17.4331 14.3935 17.4926 14.3685 17.5722C14.3434 17.6526 14.3581 17.749 14.4141 17.8629ZM15.6779 17.872L15.0519 16.9565L15.7133 16.5491L15.8193 16.7042L15.3524 16.9915L15.5004 17.2081L15.9033 16.96L16.0093 17.1145L15.6065 17.3632L15.8731 17.7518L15.6779 17.872ZM16.8445 17.0376L16.0454 16.2528L16.2126 16.0997L17.0117 16.8845L16.8445 17.0376ZM17.3011 16.6399L16.3952 15.9683L16.5344 15.7992L17.4293 15.8956L16.8239 15.447L16.9564 15.2855L17.863 15.9571L17.7194 16.1318L16.843 16.0403L17.4337 16.4785L17.3011 16.6399ZM17.0529 15.1737L17.2584 14.8215C17.3048 14.7418 17.3468 14.6845 17.3836 14.6495C17.4337 14.6027 17.4926 14.5713 17.5603 14.5545C17.6281 14.5377 17.7003 14.5363 17.7769 14.5489C17.8535 14.5622 17.9389 14.5936 18.0332 14.6425C18.1157 14.6866 18.1812 14.7341 18.2298 14.7851C18.2887 14.8473 18.3285 14.9123 18.3476 14.9801C18.3624 15.0318 18.3631 15.0912 18.3491 15.1576C18.3381 15.2079 18.3123 15.2687 18.2703 15.34L18.0589 15.7027L17.0529 15.1737ZM17.3357 15.0702L18.0015 15.4204L18.0855 15.2764C18.1171 15.2226 18.137 15.1828 18.1444 15.1548C18.1539 15.1199 18.1554 15.0863 18.1481 15.0556C18.1407 15.0241 18.1179 14.9906 18.0803 14.9536C18.0427 14.9172 17.9853 14.8781 17.9072 14.8368C17.8299 14.7963 17.7666 14.7718 17.7172 14.7628C17.6679 14.7537 17.6244 14.755 17.5876 14.7662C17.5508 14.7774 17.5176 14.7991 17.4882 14.8305C17.4661 14.8543 17.4322 14.9046 17.3865 14.9836L17.3357 15.0702ZM18.5811 14.7586L17.5301 14.3148L17.6244 14.1135L18.6754 14.5573L18.5811 14.7586ZM19.0591 13.3741L18.9899 13.6047L18.7107 13.6278L18.5841 14.0471L18.8094 14.2023L18.7417 14.4266L17.7592 13.7172L17.8269 13.4936L19.0591 13.3741ZM18.5045 13.6452L18.0508 13.6781L18.4176 13.9318L18.5045 13.6452Z" fill="#059B4E"/>
<path fill-rule="evenodd" clip-rule="evenodd" d="M5.45953 10.4915C5.74675 10.5208 5.99051 10.4307 6.05458 10.2734C6.08332 10.2014 6.08112 10.1113 6.04871 10.0197L6.14298 10.054L6.23797 10.0882L6.43682 9.95472L6.21587 9.87437L5.54275 9.62907C5.65099 9.36209 5.7357 9.20624 5.92719 8.87777L6.18346 9.01266L5.96475 9.38655C5.94119 9.42778 5.95665 9.48018 6.0001 9.50255C6.04943 9.52842 6.11645 9.53751 6.18936 9.52701C6.26153 9.51793 6.31383 9.49418 6.33519 9.45923C6.34698 9.43827 6.32488 9.40472 6.28732 9.38514L6.25861 9.36976C6.22471 9.35231 6.20705 9.32086 6.22105 9.30128L6.34108 9.09582L6.5576 9.20972L6.646 9.25655L6.86325 9.15033L6.65556 9.04129L6.02587 8.71003C6.1378 8.51716 6.09068 8.56678 6.23797 8.36759L6.8279 8.76037L6.91112 8.81487L7.13796 8.73101L6.94427 8.6024L6.3536 8.21034L6.46997 8.0524C6.59075 7.90075 6.71668 7.75468 6.84925 7.6135L6.93247 7.68549L6.76678 7.86022C6.70048 7.9301 6.70342 8.03563 6.77193 8.09434C6.82715 8.14186 6.91406 8.1677 7.01495 8.16701C7.11512 8.16632 7.19834 8.13976 7.24254 8.09362C7.28599 8.04751 7.29186 7.97762 7.33681 7.9301C7.34563 7.9203 7.36478 7.9224 7.37731 7.93568C7.45538 8.00278 7.43179 8.14954 7.32355 8.26346C7.26389 8.25576 7.20864 8.27255 7.17403 8.30888C7.14091 8.34384 7.14752 8.40114 7.18949 8.43678C7.26315 8.49968 7.40528 8.46544 7.50471 8.3606L7.78901 8.46053L7.81477 8.35292L7.5327 8.29911C7.63874 8.13907 7.63508 7.95457 7.5246 7.86022C7.48779 7.82877 7.42298 7.8106 7.33975 7.8085C7.258 7.8085 7.19539 7.82667 7.16521 7.85533C7.10335 7.9203 7.0783 8.01117 7.0179 8.07476C7.00613 8.08735 6.97813 8.08106 6.95383 8.06289C6.90301 8.01954 6.89637 7.95037 6.93688 7.90495L7.18508 7.64217L6.98477 7.47094C7.16962 7.28572 7.35816 7.11732 7.55481 6.98732L7.61446 7.05232C7.65274 7.09354 7.64759 7.15995 7.60267 7.20258C7.46864 7.33327 7.43033 7.50377 7.51796 7.59884C7.58426 7.67083 7.69474 7.70995 7.81623 7.70645C7.9444 7.70228 8.06592 7.65893 8.15796 7.58065C8.23087 7.51984 8.28392 7.40525 8.30968 7.25709L8.1285 7.22213C8.08874 7.37449 8.01582 7.49679 7.9186 7.57996C7.85748 7.63029 7.76837 7.62748 7.71904 7.57366C7.64684 7.49469 7.69545 7.33045 7.83467 7.19557C7.88253 7.15644 7.8921 7.09145 7.85382 7.05232L7.69104 6.87549C7.94735 6.62809 8.23236 6.4953 8.54535 6.3171L8.6087 6.41774L8.31925 6.58267C8.25003 6.62251 8.22721 6.70778 8.26918 6.77347C8.30379 6.82797 8.3767 6.8769 8.47761 6.91183C8.5748 6.94538 8.65951 6.94957 8.70592 6.92373C8.78104 6.88038 8.82744 6.80422 8.90476 6.76018C8.93202 6.7448 8.96294 6.749 8.97619 6.76927C9.01819 6.83496 8.94307 6.95027 8.81049 7.02576C8.68677 7.09633 8.51222 7.10332 8.33694 7.04671L8.31189 7.11033C8.58365 7.19977 8.83775 7.19488 9.01303 7.09705C9.15812 7.01457 9.21849 6.85801 9.14632 6.74759C9.11907 6.70496 9.05646 6.66862 8.96883 6.64626C8.88412 6.62461 8.81195 6.62599 8.76924 6.65045C8.68823 6.69659 8.62636 6.76927 8.54535 6.81538C8.51222 6.83427 8.47538 6.83286 8.46436 6.8119C8.43195 6.76018 8.45697 6.68889 8.52179 6.65396L8.85026 6.46667L8.69928 6.22904L8.865 6.12003C8.93053 6.08786 8.99683 6.05713 9.06385 6.02778L8.92538 5.90896C8.46582 6.11862 8.02687 6.3779 7.62549 6.67561C7.37216 6.58827 7.30807 6.56099 7.244 6.54354C7.09302 6.49251 6.94573 6.5016 6.84925 6.56381C6.82641 6.57847 6.808 6.59805 6.79254 6.62179L6.97593 6.72175C6.99359 6.69659 7.01569 6.67423 7.04295 6.65885C7.09817 6.62251 7.16373 6.60992 7.22118 6.62461L7.55701 6.72664H7.55775C7.13722 7.04602 6.75572 7.40942 6.42061 7.80919L6.29173 7.96854C5.78282 8.6143 5.42638 9.28941 5.18554 10.0351C5.11706 10.2776 5.0574 10.5152 5.00879 10.7535L5.17156 10.7696C5.20984 10.5788 5.25699 10.3908 5.31221 10.2063C5.34611 10.193 5.38218 10.1909 5.40723 10.2021C5.4897 10.2322 5.51401 10.3629 5.45953 10.4915ZM9.62134 5.80763C9.62649 5.80553 9.63167 5.80343 9.63683 5.80202L9.63903 5.80343L10.3667 5.60565L10.4381 5.84187C10.321 5.78037 10.1892 5.7629 10.0728 5.79644C9.89974 5.84396 9.79663 6.00541 9.84303 6.15984C9.86513 6.23393 9.9292 6.29824 10.0183 6.33667C10.1089 6.37442 10.2091 6.37999 10.3011 6.35763C10.4182 6.32549 10.5066 6.27027 10.5471 6.20179L10.5655 6.26328L10.5935 6.35553L10.8255 6.42613L10.7599 6.21018L10.5618 5.55252L10.5898 5.54484C10.7069 5.52179 10.8248 5.50152 10.9433 5.48404C11.1451 5.45679 11.3484 5.43511 11.5487 5.42813L11.573 5.75312C11.4559 5.63919 11.3432 5.5756 11.2666 5.58118C11.1046 5.59167 10.9824 5.70908 10.9927 5.84537C10.9978 5.91526 11.0464 5.99351 11.126 6.0634C11.2062 6.13328 11.2924 6.17034 11.3661 6.16335C11.4316 6.15915 11.5119 6.11511 11.5944 6.04103L11.6003 6.1263L11.6076 6.22205L11.819 6.33736L11.8028 6.11302L11.7888 5.92084C11.8543 5.83488 11.9405 5.78247 12.0259 5.77687C12.0694 5.77408 12.1055 5.80972 12.1114 5.85653C12.1151 5.91034 12.0745 6.00469 11.998 6.15355L12.1858 6.25908C12.2528 6.15565 12.2852 6.04244 12.2749 5.93202C12.2697 5.86144 12.23 5.78664 12.1644 5.71816C12.0981 5.65178 12.0259 5.61614 11.97 5.61962C11.9 5.6245 11.8315 5.64828 11.7711 5.68671L11.749 5.41625C11.942 5.40366 12.1386 5.40717 12.3353 5.41556L12.3316 5.39248L12.3087 5.25133C12.1968 5.24641 12.0849 5.24641 11.9729 5.24432C11.6548 5.24572 11.341 5.26668 11.0339 5.30652L10.7666 5.34637C10.7312 5.35195 10.6127 5.37083 10.5979 5.37293L10.4308 5.41065C10.1693 5.46656 9.91374 5.53645 9.66334 5.61893L9.48069 5.66854L9.49174 5.67832C9.49025 5.67904 9.48879 5.67973 9.48731 5.68042L9.62134 5.80763ZM19.0394 11.0603L18.8457 11.1505L19.0394 11.0603ZM19.0394 11.0603C18.9606 10.4663 18.8288 10.0064 18.5961 9.46972L18.5475 9.35999C18.5276 9.31666 18.5077 9.27334 18.4871 9.23071L18.4878 9.2293C18.2875 8.88614 18.1284 8.55908 17.8927 8.23201L17.8935 8.22922L17.8581 8.18377C17.8412 8.16072 17.8242 8.13766 17.8073 8.1153C17.8309 8.06427 17.8714 8.01747 17.9229 7.9811C18.0128 7.91682 18.1593 7.95595 18.247 8.06987C18.3692 8.22362 18.4119 8.47663 18.3678 8.77293L18.4223 8.78762C18.5121 8.41861 18.4753 8.09434 18.3206 7.89655C18.2013 7.74629 17.9973 7.70228 17.8611 7.79732C17.7999 7.84133 17.7572 7.92312 17.7388 8.02583C17.4921 7.70716 17.2144 7.42759 16.9154 7.14877L16.8595 7.32068C16.9891 7.44507 17.1165 7.57507 17.2468 7.71274L17.1629 7.78404L16.9972 7.60931C16.9309 7.53942 16.8197 7.53103 16.7512 7.58976C16.6959 7.63728 16.6599 7.71694 16.6496 7.81198C16.64 7.90633 16.6591 7.98812 16.7026 8.03354C16.7468 8.07965 16.819 8.09293 16.8646 8.13976C16.8734 8.14954 16.869 8.1677 16.8543 8.17751C16.7755 8.24458 16.6245 8.20686 16.5162 8.09293C16.5302 8.03702 16.5192 7.98392 16.4838 7.94686C16.4514 7.91262 16.3903 7.91263 16.3491 7.94827C16.2747 8.01117 16.296 8.14815 16.3955 8.25297L16.2614 8.51156L16.3712 8.5472L16.4573 8.28652C16.6135 8.40323 16.8079 8.41861 16.9184 8.32426C16.9545 8.29281 16.9802 8.23411 16.9913 8.15583C17.0001 8.07896 16.9876 8.01747 16.9603 7.98602C16.8985 7.92102 16.8064 7.88747 16.746 7.82388C16.7342 7.81129 16.7438 7.78613 16.7652 7.76446C16.816 7.72183 16.8889 7.72183 16.9331 7.76515L17.182 8.02724L17.3823 7.85602C17.4626 7.93988 17.4987 8.01465 17.5738 8.10972L16.9979 8.52133L16.9169 8.57934L16.9309 8.81068L17.1202 8.6751L17.6954 8.26346L17.8647 8.51506L18.1962 9.08183L18.0872 9.13915L17.9237 8.8582C17.8846 8.7911 17.7955 8.76664 17.7248 8.80438C17.6659 8.83583 17.6121 8.90293 17.5723 8.99728C17.5326 9.08884 17.5252 9.1685 17.5517 9.21323C17.5944 9.28591 17.6725 9.33274 17.7167 9.40751C17.7314 9.43338 17.7263 9.46342 17.7042 9.47461C17.6335 9.51235 17.5157 9.43755 17.4398 9.30827C17.3698 9.18877 17.3683 9.02384 17.4346 8.85889L17.3683 8.83304C17.2645 9.08812 17.2616 9.32923 17.358 9.49835C17.4398 9.63884 17.6025 9.70174 17.7219 9.63674C17.7668 9.61297 17.808 9.55498 17.8345 9.47251C17.8596 9.39285 17.8611 9.32365 17.8368 9.28312C17.7911 9.20415 17.7167 9.14334 17.6711 9.06507C17.6519 9.03292 17.6549 8.99728 17.6777 8.98819C17.7329 8.95884 17.8073 8.9854 17.8419 9.0483L18.0275 9.36628L18.2831 9.2314L18.4186 9.50465L18.5077 9.76533C18.4907 9.79819 18.4635 9.82194 18.4348 9.82823C18.3516 9.8541 18.2455 9.76812 18.2028 9.63464C17.9597 9.7835 17.8301 9.99945 17.8854 10.1595C17.9104 10.2329 17.9715 10.3014 18.0584 10.3538L17.962 10.3838L17.8655 10.4132L17.7992 10.6361L18.0245 10.5662L18.7102 10.3552L18.7861 10.7011L18.0768 10.8192L17.9767 10.836L17.8787 11.0478L18.1115 11.0086L18.8214 10.8905L18.8457 11.1505L19.0394 11.0603ZM16.3815 6.69797C16.3741 6.6924 16.3675 6.68751 16.3601 6.6819L15.5279 6.15007C15.3835 6.0711 15.2363 5.99702 15.086 5.92713L15.0588 5.91316V5.91454C14.8989 5.84117 14.7362 5.77408 14.5712 5.71187L14.5336 5.6958V5.6979C14.3554 5.63221 14.1735 5.5735 13.9887 5.52107V5.53645L13.9732 5.53156L13.9931 5.64477L13.996 5.71259C14.0314 5.72167 13.9931 5.64129 14.0071 5.72026L14.136 5.75801L14.0535 6.01309C13.9923 6.05083 13.929 6.06411 13.8767 6.05152C13.7839 6.02427 13.7176 5.98931 13.6852 5.95088C13.7589 5.92782 13.8163 5.87262 13.8384 5.80553C13.859 5.73984 13.8391 5.65595 13.7824 5.57698C13.7235 5.49522 13.6455 5.43652 13.5645 5.41275C13.4798 5.38828 13.3774 5.39947 13.2728 5.44L13.3266 5.60145C13.4407 5.55393 13.549 5.54065 13.6322 5.56652C13.7037 5.58748 13.7471 5.64969 13.7287 5.70698C13.7 5.79435 13.6256 5.85095 13.5578 5.83557C13.5136 5.80484 13.4341 5.79573 13.3428 5.80691L13.3693 5.98233C13.4378 5.99561 13.521 5.99282 13.6072 5.97324C13.627 6.00751 13.63 6.04873 13.6175 6.08786C13.5843 6.19201 13.4709 6.25072 13.3634 6.21927C13.2271 6.18011 13.1233 6.03614 13.0946 5.84675L13.0165 5.86912C13.057 6.14656 13.1984 6.35763 13.384 6.41075C13.5887 6.47084 13.7751 6.27236 13.7059 6.069C13.7626 6.15007 13.8296 6.20527 13.8922 6.22344C13.9283 6.23393 13.9607 6.23672 13.985 6.22763L13.9253 6.41214L13.8959 6.5037L14.0498 6.68331L14.119 6.46805L14.3297 5.81392L14.7362 5.96905L14.4431 6.59385L14.4018 6.6819L14.5314 6.87759L14.6287 6.67213L14.9218 6.04733C15.0875 6.11721 15.0492 6.10183 15.1773 6.16683L15.0079 6.46874C14.991 6.52256 14.9998 6.60224 15.0323 6.69869C15.0661 6.79304 15.1111 6.85942 15.1582 6.88319C15.2164 6.91255 15.2856 6.92091 15.3489 6.90694L15.2967 7.00129L15.2488 7.08656L15.3644 7.29064L15.4756 7.09144L15.5809 6.90275C15.7474 6.8706 15.874 6.87201 15.9389 6.90205C15.9668 6.91603 15.9772 6.94748 15.9617 6.97404C15.9006 7.08377 15.7908 7.16133 15.6642 7.1872L15.7695 7.38568C15.8954 7.31159 15.9845 7.22984 16.028 7.15294C16.0582 7.09774 16.0611 7.01178 16.0338 6.91393C16.0073 6.81538 15.9632 6.7448 15.9138 6.71965C15.8497 6.68751 15.7709 6.6819 15.6921 6.70496L15.8107 6.4932C16.0007 6.61133 16.1731 6.73362 16.3351 6.86152L16.3815 6.69797ZM10.5913 5.36802L10.3711 5.06473C10.2996 4.96267 10.1943 4.90676 10.0986 4.91935C10.0426 4.92774 9.99768 4.94312 9.96676 4.96267L10.1059 5.11504C10.114 5.09477 10.1501 5.07801 10.201 5.06821C10.2518 5.06053 10.3239 5.10805 10.3814 5.19262L10.5228 5.35545L10.5 5.35893C10.2105 5.19262 10.0294 5.10526 9.92479 5.12064C9.87323 5.12832 9.83639 5.14019 9.81727 5.15836L9.93581 5.32469C9.95791 5.30652 10.0051 5.29045 10.0765 5.28206C10.1767 5.26668 10.3195 5.30931 10.4764 5.39809C10.5456 5.38202 10.539 5.37992 10.5913 5.36802ZM5.85132 10.2678C5.82187 10.3419 5.75926 10.3943 5.68855 10.4034C5.66719 10.402 5.65027 10.3845 5.65394 10.3678C5.6834 10.2252 5.66353 10.1057 5.61051 10.0882C5.56851 10.0735 5.4816 10.0854 5.34536 10.1176L5.47058 9.80866L5.82776 9.93865C5.87563 10.0707 5.88373 10.1882 5.85132 10.2678ZM6.8279 10.2783C6.89345 10.1259 6.83895 9.96243 6.70637 9.9093C6.65187 9.88834 6.57675 9.89392 6.49722 9.92537C6.41766 9.95751 6.36098 10.0051 6.3396 10.0568C6.31458 10.1141 6.32047 10.1924 6.35729 10.2713L6.52298 10.1958C6.48176 10.1343 6.46702 10.0707 6.48396 10.0316C6.50017 9.99388 6.53552 9.97289 6.5657 9.98198C6.67471 10.0232 6.72037 10.1546 6.67102 10.2762C6.5981 10.4488 6.42284 10.5795 6.20556 10.6277L6.2262 10.6934C6.52078 10.6285 6.74762 10.474 6.8279 10.2783ZM10.1663 6.26049C10.0824 6.28355 9.99696 6.25072 9.98076 6.18851C9.95791 6.11511 9.98296 6.03476 10.047 5.98164L10.3011 6.20179C10.2665 6.22694 10.2209 6.2479 10.1663 6.26049ZM10.3814 6.15775L10.1251 5.93133C10.1501 5.91385 10.1899 5.89637 10.24 5.8845C10.3505 5.85446 10.4558 5.88591 10.4786 5.95298C10.4992 6.02076 10.4609 6.10255 10.3814 6.15775ZM10.6134 5.14718L10.7445 4.97595L10.564 4.85156L10.433 5.02278L10.6134 5.14718ZM11.2983 6.00751C11.2423 6.01099 11.1937 5.97115 11.19 5.91805C11.1834 5.83068 11.2549 5.75519 11.3469 5.74682C11.4257 5.74122 11.5141 5.77408 11.5907 5.83767L11.4625 5.94251C11.4294 5.97954 11.3697 6.00259 11.2983 6.00751ZM14.8283 5.67205C14.9601 5.72794 15.1184 5.6958 15.2237 5.59305L15.1405 5.45328C15.0485 5.52877 14.9402 5.55534 14.8621 5.52248C14.7649 5.48125 14.7089 5.3855 14.7244 5.28905L14.6537 5.28278C14.6235 5.45679 14.6935 5.61752 14.8283 5.67205ZM14.7487 7.06908L14.9328 7.01808L14.8496 6.85384L14.6655 6.90484L14.7487 7.06908ZM15.1626 6.71614C15.1346 6.70217 15.1265 6.66652 15.1449 6.63438L15.3563 6.25698L15.6347 6.39747L15.455 6.71824C15.3025 6.73572 15.2046 6.73713 15.1626 6.71614ZM17.6475 7.56319L17.8824 7.60511L17.8957 7.37869L17.66 7.33606L17.6475 7.56319ZM18.0466 10.0428C18.0201 9.96731 18.0341 9.88903 18.0835 9.84011C18.1004 9.82823 18.1255 9.83174 18.1336 9.84709C18.2057 9.97571 18.3 10.0568 18.353 10.0379C18.3957 10.0246 18.4554 9.96381 18.5394 9.85689L18.6469 10.1721L18.2831 10.2846C18.1586 10.2105 18.0739 10.1238 18.0466 10.0428Z" fill="#059B4E"/>
<path fill-rule="evenodd" clip-rule="evenodd" d="M10.4727 5.39697L10.483 5.40255L10.5971 5.3753L10.5846 5.36133L10.4727 5.39697Z" fill="#04795F"/>
<path fill-rule="evenodd" clip-rule="evenodd" d="M11.9999 7.39648C14.6711 7.39648 16.8496 9.46374 16.8496 11.9993C16.8496 14.5341 14.6711 16.602 11.9999 16.602C9.32865 16.602 7.14941 14.5341 7.14941 11.9993C7.14941 9.46374 9.32865 7.39648 11.9999 7.39648ZM13.869 12.2991C13.869 12.2991 14.1577 12.2991 14.2844 12.2005C14.4111 12.102 14.7336 11.8721 14.8139 11.7847C14.8949 11.6974 15.1019 11.5659 15.1829 11.5331C15.2632 11.501 15.4245 11.4353 15.4937 11.4241C15.5629 11.4129 15.6786 11.4241 15.6786 11.4241C15.7529 11.4646 15.8258 11.6282 15.7014 11.6428C15.6093 11.654 15.4362 11.6317 15.2521 11.7414C15.0673 11.8504 14.9752 11.8944 14.8721 12.0035C14.7683 12.1125 14.5488 12.3096 14.4457 12.3864C14.3418 12.4626 14.1577 12.5283 14.0657 12.5283C13.9729 12.5283 13.7424 12.5066 13.7888 12.3969C13.8351 12.2879 13.869 12.2991 13.869 12.2991ZM9.7455 9.46865C9.7455 9.46865 10.3884 10.1843 10.5232 10.3639C10.6587 10.5442 10.7751 10.779 10.8016 10.9335C10.8289 11.0872 11.0999 11.6526 11.0999 11.6526L11.2892 11.9098C11.3414 11.9014 11.3886 11.9371 11.4409 11.9287C11.5624 11.9629 11.5506 11.9965 11.5101 12.0307C11.4357 12.1272 11.4276 12.2362 11.446 12.3172C11.4637 12.3983 11.6294 12.6513 11.6839 12.8051C11.7384 12.9595 11.8577 12.963 11.8577 12.963C11.8577 12.963 11.9446 12.826 11.7576 12.4284C11.6905 12.2851 11.7472 12.2641 11.7789 12.2159C11.8606 12.0908 12.0161 12.1698 12.0271 12.2103C12.044 12.2739 12.0779 12.717 12.2399 12.717C12.4027 12.717 12.7783 12.3983 12.9683 12.3466C13.1576 12.2949 13.4286 12.2949 13.5096 12.4235C13.5906 12.5521 13.7453 12.6765 13.7453 12.8568C13.7453 13.0364 13.6525 13.2139 13.4824 13.4515C13.3123 13.6891 13.2113 13.9484 13.0759 14.1965L12.9138 14.5564C12.9138 14.5564 12.7783 14.5306 12.8328 14.2993C12.8866 14.0679 12.9411 13.9142 13.0493 13.7856C13.1576 13.657 13.2622 13.4131 13.4014 13.1433C13.5398 12.8735 13.4551 12.7065 13.4551 12.7065C13.4551 12.7065 13.2386 12.5521 13.1031 12.6038C12.9683 12.6548 12.5618 12.8861 12.3725 13.0147C12.1825 13.1433 12.1015 13.2202 12.0742 13.5284C12.0477 13.8373 12.0742 14.6082 12.1015 14.7878C12.1287 14.9674 12.2098 15.5328 12.2098 15.5328L12.318 15.9444C12.318 15.9444 12.2908 16.2267 12.1825 16.124C12.0742 16.0213 12.0477 15.5845 11.9932 15.4559C11.9387 15.3273 11.9196 15.1582 11.9468 14.9527C11.9733 14.7472 11.8849 14.5564 11.8849 14.5564C11.8849 14.5564 11.6949 14.4278 11.6412 14.6333C11.5874 14.8395 11.5874 15.096 11.5602 15.3014C11.5329 15.5076 11.5057 15.9185 11.5057 15.9185C11.5057 15.9185 11.6058 16.0506 11.4247 16.073C11.3341 16.0835 11.2722 16.045 11.2612 15.9682C11.2494 15.892 11.2545 15.7774 11.2273 15.6362C11.1735 15.3531 10.8561 14.1965 10.7751 13.94C10.6933 13.6828 10.2058 12.5262 10.1248 12.3725C10.0438 12.218 9.66448 11.6275 9.55622 11.4989C9.44795 11.3703 9.36693 11.2158 9.20418 11.2675C9.04143 11.3186 8.8794 11.6275 8.79764 11.9867C8.71663 12.3466 8.71663 12.8861 8.74388 13.0406C8.77113 13.1943 8.8212 13.5689 8.8212 13.5689C8.8212 13.5689 8.63561 13.6828 8.55388 12.9889C8.47286 12.2949 8.39185 11.7812 8.52737 11.4472C8.66287 11.1131 8.78218 10.8964 8.96042 10.7532C9.13863 10.6106 9.18134 10.5959 9.39347 10.8818C9.60631 11.1683 10.0165 11.6785 10.1248 11.9357C10.2331 12.1922 10.6123 12.8093 10.6933 12.963C10.7751 13.1175 10.8826 13.4774 10.8826 13.4774C10.8826 13.4774 11.1036 12.949 11.1036 12.5891C11.1036 12.2299 10.9371 12.0125 10.8016 11.6785C10.6661 11.3444 10.4304 10.7601 10.3494 10.6064C10.2684 10.452 10.0165 10.0599 10.0165 10.0599L9.77275 9.69996L9.7455 9.46865ZM13.6996 10.3723L13.5899 10.359L13.4809 10.3807L13.3874 10.4268L13.3115 10.489L13.2614 10.568L13.26 10.6672L13.3395 10.7399L13.4603 10.763L13.5199 10.7595L13.573 10.7448L13.6201 10.7224L13.6606 10.6945L13.696 10.6637L13.7262 10.6316L13.7519 10.5994L13.7726 10.568L13.7851 10.5456L13.7954 10.5211L13.8013 10.4918L13.7991 10.4596L13.7851 10.4268L13.76 10.4016L13.7335 10.3849L13.6996 10.3723ZM14.8213 13.7772L14.8375 13.8904L14.892 13.9917L14.9678 14.0721L15.0577 14.1294L15.1571 14.1574L15.2632 14.1315L15.3199 14.0351L15.3118 13.9107L15.2912 13.8534L15.261 13.8051L15.2234 13.7646L15.1814 13.7325L15.138 13.7052L15.0938 13.6843L15.0511 13.6682L15.0106 13.6563L14.9826 13.65L14.9531 13.6472L14.9207 13.6486L14.8868 13.6598L14.8567 13.6822L14.8368 13.7122L14.8265 13.7422L14.8213 13.7772ZM14.0185 12.8435L13.9618 12.9378L13.9397 13.0448L13.9478 13.1482L13.9802 13.2404L14.0392 13.3173L14.1371 13.3586L14.2409 13.3159L14.3124 13.216L14.3315 13.1615L14.3389 13.1084L14.3352 13.0567L14.3234 13.0084L14.3072 12.9637L14.2866 12.9239L14.2638 12.8875L14.2409 12.8568L14.224 12.8365L14.2034 12.8177L14.1769 12.8002L14.1437 12.7897L14.1062 12.789L14.0715 12.8009L14.0443 12.819L14.0185 12.8435ZM14.347 12.8114L14.4192 12.8868L14.5098 12.9351L14.604 12.9574L14.6961 12.9546L14.7823 12.9218L14.8397 12.8442L14.8228 12.7457L14.7498 12.6583L14.7057 12.6254L14.6585 12.6045L14.6107 12.5933L14.5643 12.5898L14.5208 12.5926L14.4796 12.5989L14.442 12.6094L14.4096 12.6206L14.3868 12.6311L14.3639 12.645L14.3426 12.6653L14.3249 12.6932L14.3183 12.7254L14.3212 12.7569L14.3315 12.7834L14.347 12.8114ZM11.98 11.1313L11.8467 11.1299L11.7185 11.1662L11.6095 11.2277L11.5248 11.3053L11.4718 11.3989L11.4821 11.5093L11.5837 11.5764L11.7303 11.5869L11.7988 11.5764L11.8592 11.5548L11.9129 11.5247L11.9594 11.4898L11.9999 11.4514L12.033 11.4122L12.061 11.3724L12.0831 11.3353L12.0963 11.3081L12.1059 11.2794L12.1103 11.2466L12.1029 11.2102L12.0816 11.1767L12.0514 11.1536L12.0183 11.1403L11.98 11.1313ZM11.7804 8.66075L11.7539 8.76419L11.7583 8.87041L11.7855 8.96614L11.8312 9.04793L11.9012 9.11152L12.0057 9.1248L12.0853 9.05213L12.1214 8.93961L12.1258 8.88438L12.1206 8.83267L12.1074 8.78515L12.0882 8.74251L12.0654 8.70339L12.0404 8.66984L12.0138 8.63977L11.9881 8.61602L11.9689 8.59995L11.9446 8.58526L11.9152 8.57477L11.8776 8.5727L11.84 8.58526L11.8128 8.60763L11.7959 8.6314L11.7804 8.66075ZM13.3984 10.8706L13.3005 10.8587L13.204 10.8783L13.1208 10.9188L13.053 10.974L13.0073 11.046L13.0059 11.1382L13.0803 11.2061L13.1885 11.227L13.2423 11.2235L13.2902 11.2102L13.3321 11.1907L13.3682 11.1655L13.3999 11.1382L13.4264 11.1103L13.4492 11.0816L13.4669 11.0544L13.4787 11.0341L13.4883 11.0111L13.4942 10.9838L13.492 10.953L13.478 10.9223L13.4551 10.8978L13.4293 10.8825L13.3984 10.8706ZM13.0869 11.3486L12.9897 11.3367L12.8925 11.3556L12.8085 11.3961L12.7415 11.452L12.6958 11.524L12.6943 11.6163L12.7687 11.6841L12.877 11.705L12.9308 11.7008L12.9786 11.6883L13.0206 11.668L13.0567 11.6435L13.0884 11.6163L13.1149 11.5876L13.1377 11.559L13.1554 11.5317L13.1672 11.5114L13.1767 11.4884L13.1826 11.4611L13.1797 11.4304L13.1664 11.3996L13.1429 11.3752L13.1178 11.3598L13.0869 11.3486ZM14.7462 13.2188L14.8257 13.2957L14.9251 13.3439L15.029 13.3656L15.1284 13.3635L15.2205 13.3313L15.2838 13.2523L15.2647 13.1482L15.1829 13.0588L15.1343 13.0259L15.0835 13.0056L15.0319 12.9945L14.9818 12.991L14.934 12.9938L14.8898 13.0007L14.8486 13.0105L14.8132 13.0224L14.7881 13.0322L14.7646 13.0455L14.741 13.0651L14.7211 13.0944L14.713 13.1293L14.7167 13.1622L14.7285 13.1901L14.7462 13.2188ZM12.3659 10.9076L12.3335 11.0027L12.3349 11.1019L12.3622 11.1928L12.4093 11.2703L12.4786 11.329L12.5772 11.3493L12.6642 11.2913L12.7091 11.1886L12.7164 11.1348L12.7113 11.0851L12.698 11.0404L12.6782 10.9992L12.6546 10.9628L12.6288 10.93L12.6023 10.902L12.575 10.8783L12.5559 10.8629L12.533 10.8496L12.5058 10.8384L12.4719 10.8342L12.4366 10.8412L12.4064 10.8587L12.385 10.8804L12.3659 10.9076ZM12.9418 10.2101L12.8549 10.2751L12.7952 10.3639L12.7636 10.4596L12.7569 10.554L12.7812 10.6441L12.8549 10.7147L12.9654 10.7119L13.067 10.6462L13.106 10.6036L13.1326 10.5575L13.1488 10.51L13.1561 10.4624L13.1583 10.4177L13.1554 10.3744L13.1488 10.3338L13.1399 10.2982L13.1318 10.2737L13.1208 10.25L13.1031 10.2255L13.0766 10.2038L13.042 10.1906L13.0066 10.1899L12.9749 10.1969L12.9418 10.2101ZM12.4174 9.42812L12.2974 9.4232L12.1803 9.45186L12.0801 9.50427L12.0006 9.57137L11.949 9.65594L11.9549 9.76076L12.0485 9.82648L12.181 9.84045L12.2436 9.83205L12.2996 9.81388L12.3489 9.78873L12.3924 9.75869L12.4292 9.72514L12.4609 9.69087L12.4874 9.65594L12.5087 9.62309L12.522 9.59862L12.5316 9.57278L12.5367 9.54202L12.5308 9.50709L12.5117 9.47354L12.483 9.45117L12.4535 9.4372L12.4174 9.42812ZM12.8991 14.8968L12.8335 14.9646L12.7938 15.0491L12.779 15.1358L12.7849 15.219L12.8151 15.2965L12.8903 15.3552L12.9919 15.3392L13.0707 15.2679L13.0987 15.2253L13.1149 15.1819L13.1237 15.1386L13.1245 15.0967L13.1208 15.0568L13.1134 15.0198L13.1031 14.9848L13.0913 14.9555L13.0832 14.9352L13.07 14.9143L13.0515 14.8933L13.0243 14.8751L12.9897 14.866L12.9543 14.8695L12.9263 14.88L12.8991 14.8968ZM11.4747 9.29743L11.4681 9.42182L11.4968 9.54202L11.5499 9.64686L11.6206 9.73003L11.7112 9.78663L11.8253 9.78174L11.896 9.6867L11.9122 9.55251L11.9048 9.48892L11.8872 9.4316L11.8614 9.37988L11.8305 9.33446L11.7951 9.29533L11.759 9.26178L11.7215 9.23312L11.6861 9.21076L11.6611 9.19678L11.6323 9.1856L11.5985 9.18L11.5587 9.18491L11.5234 9.20518L11.499 9.23312L11.4851 9.26247L11.4747 9.29743ZM14.0951 9.91732L13.9817 9.90335L13.869 9.9264L13.7718 9.97323L13.6945 10.0375L13.6422 10.1186L13.6407 10.2199L13.7217 10.2947L13.8469 10.3185L13.9081 10.3143L13.9618 10.2996L14.0104 10.2766L14.0531 10.2479L14.09 10.2157L14.1209 10.1829L14.1474 10.1493L14.1688 10.1172L14.182 10.0934L14.1924 10.0683L14.199 10.0389L14.196 10.0054L14.182 9.97254L14.157 9.94736L14.129 9.92991L14.0951 9.91732ZM12.1435 11.4912L12.0875 11.5799L12.0654 11.682L12.072 11.7805L12.1015 11.87L12.1575 11.9448L12.2517 11.9853L12.3534 11.9454L12.4226 11.8504L12.4425 11.798L12.4491 11.747L12.4469 11.6974L12.4366 11.6512L12.4211 11.6093L12.402 11.5701L12.3813 11.5352L12.36 11.5059L12.343 11.4863L12.3239 11.4674L12.2989 11.4506L12.2657 11.4395L12.2289 11.4388L12.195 11.4499L12.1685 11.4674L12.1435 11.4912ZM14.3669 9.46026L14.2594 9.44698L14.1541 9.46793L14.0627 9.51198L13.9898 9.57278L13.9397 9.65034L13.9383 9.74751L14.0163 9.81877L14.1349 9.84183L14.1924 9.83766L14.2439 9.82366L14.2895 9.80201L14.3293 9.77545L14.3639 9.74541L14.3934 9.71396L14.4185 9.68251L14.4383 9.65244L14.4508 9.63079L14.4604 9.60632L14.4663 9.57766L14.4641 9.54552L14.4501 9.51267L14.4258 9.4882L14.3986 9.47213L14.3669 9.46026ZM15.4112 13.8848L15.4215 13.9561L15.4561 14.0204L15.5033 14.0707L15.56 14.1071L15.6285 14.1259L15.7095 14.1064L15.7522 14.0337L15.7471 13.9519L15.7338 13.9128L15.7132 13.8806L15.6889 13.8548L15.6623 13.8345L15.6351 13.8177L15.6086 13.8051L15.5821 13.7947L15.5578 13.7877L15.5394 13.7835L15.518 13.7814L15.493 13.7828L15.465 13.7919L15.4399 13.8101L15.423 13.8352L15.4149 13.8583L15.4112 13.8848ZM15.177 13.5598L15.2455 13.6367L15.3339 13.687L15.4267 13.7094L15.5173 13.7066L15.602 13.6724L15.6565 13.5941L15.6402 13.4969L15.571 13.4089L15.5276 13.3753L15.4819 13.3537L15.4348 13.3418L15.3891 13.3383L15.3464 13.3404L15.3059 13.3481L15.2698 13.3579L15.2374 13.3704L15.2153 13.3809L15.1932 13.3949L15.1726 13.4152L15.1564 13.4431L15.1498 13.4753L15.1527 13.5053L15.1623 13.5319L15.177 13.5598ZM11.0491 10.4645L11.0174 10.5917L11.0262 10.7217L11.066 10.8398L11.1286 10.9377L11.2155 11.009L11.3333 11.0243L11.4269 10.944L11.4711 10.807L11.4747 10.7392L11.4659 10.677L11.4475 10.619L11.421 10.5673L11.3893 10.5204L11.3554 10.4792L11.3194 10.4436L11.2847 10.4135L11.2604 10.3953L11.2324 10.38L11.1986 10.3688L11.1588 10.3674L11.119 10.3793L11.0888 10.403L11.0675 10.4303L11.0491 10.4645ZM12.5264 8.18133L12.4093 8.2505L12.3165 8.34625L12.2539 8.45248L12.2201 8.56011L12.2237 8.66702L12.2944 8.75579L12.4204 8.75648L12.5529 8.6887L12.606 8.64468L12.6472 8.59645L12.6782 8.54473L12.7002 8.49232L12.715 8.43991L12.7238 8.38958L12.7275 8.34275V8.30011L12.7245 8.27076L12.7172 8.24141L12.7024 8.20996L12.6752 8.18202L12.6369 8.16526L12.5979 8.16316L12.5632 8.16874L12.5264 8.18133ZM12.4513 15.7201L12.3909 15.7774L12.3541 15.8507L12.3401 15.9255L12.3453 15.9989L12.3755 16.0681L12.4462 16.1191L12.5389 16.1051L12.6119 16.0451L12.6384 16.0073L12.6546 15.9689L12.662 15.9304L12.6627 15.8941L12.6597 15.8591L12.6524 15.8277L12.6435 15.7983L12.6332 15.7732L12.6244 15.755L12.6119 15.7361L12.5942 15.7166L12.5684 15.7012L12.5353 15.6928L12.5029 15.6963L12.4778 15.7047L12.4513 15.7201ZM11.9763 10.5365L11.8467 10.5687L11.7333 10.6351L11.6449 10.721L11.5837 10.8161L11.5587 10.9202L11.5985 11.0236L11.7148 11.0642L11.8592 11.0383L11.9225 11.0111L11.9748 10.9754L12.019 10.9335L12.0543 10.8888L12.0823 10.8412L12.1044 10.7951L12.1206 10.7497L12.1317 10.7084L12.1368 10.6798L12.1383 10.6497L12.1331 10.6162L12.1162 10.5827L12.0867 10.5561L12.0514 10.5414L12.0168 10.5358L11.9763 10.5365ZM13.6046 9.03255L13.5443 9.14087L13.5214 9.26526L13.5281 9.38758L13.5597 9.49869L13.6157 9.59095L13.7166 9.64965L13.8322 9.60632L13.9073 9.49102L13.928 9.42881L13.9353 9.36732L13.9324 9.3079L13.9213 9.25129L13.9051 9.19747L13.8852 9.14786L13.8624 9.10243L13.8396 9.06331L13.8226 9.03813L13.8027 9.01507L13.7777 8.9934L13.7431 8.97732L13.7019 8.97244L13.6621 8.98503L13.6319 9.00458L13.6046 9.03255ZM12.2341 9.91732L12.1258 9.93129L12.0256 9.97602L11.9446 10.0382L11.8849 10.1116L11.8525 10.1976L11.8768 10.294L11.9756 10.3401L12.0978 10.3311L12.1538 10.3143L12.2009 10.2891L12.2414 10.2584L12.2753 10.2248L12.3025 10.1885L12.3254 10.1528L12.3423 10.1172L12.3556 10.0843L12.3629 10.0606L12.3674 10.0347L12.3666 10.0047L12.3548 9.97254L12.3305 9.94457L12.2996 9.92781L12.2687 9.91942L12.2341 9.91732ZM13.2327 9.64197L13.1569 9.74889L13.1208 9.87469L13.1193 9.99839L13.1473 10.1123L13.2055 10.2074L13.3093 10.2633L13.4293 10.2241L13.5207 10.1123L13.5494 10.0501L13.5619 9.9879L13.5627 9.92709L13.5546 9.86911L13.5406 9.81458L13.5207 9.76358L13.4986 9.71813L13.475 9.67831L13.4573 9.65175L13.4367 9.62869L13.4095 9.60702L13.3741 9.59164L13.3329 9.58816L13.2946 9.59862L13.2629 9.6161L13.2327 9.64197ZM14.3824 13.3096L14.3514 13.4145L14.358 13.5235L14.3934 13.6214L14.4494 13.7038L14.5267 13.7639L14.632 13.7807L14.7211 13.715L14.7638 13.6018L14.769 13.5438L14.7609 13.4899L14.744 13.441L14.7204 13.3977L14.6931 13.3586L14.6622 13.3243L14.6313 13.2943L14.6004 13.2698L14.5783 13.2544L14.5539 13.2404L14.5237 13.2307L14.4891 13.2279L14.4523 13.2363L14.4221 13.2558L14.4008 13.2796L14.3824 13.3096ZM14.445 8.80541L14.3374 8.80472L14.2351 8.83827L14.1504 8.89278L14.0855 8.96197L14.0465 9.04442L14.0583 9.14156L14.1452 9.20308L14.2652 9.21145L14.322 9.20098L14.3713 9.18071L14.4133 9.15346L14.4494 9.1227L14.4796 9.08846L14.5046 9.0542L14.5252 9.01996L14.5414 8.98713L14.5503 8.96404L14.5569 8.93961L14.5598 8.91025L14.5532 8.8788L14.5348 8.84805L14.5075 8.82637L14.4781 8.81309L14.445 8.80541ZM12.7459 11.914L12.62 11.9294L12.5065 11.9832L12.416 12.0601L12.3519 12.1495L12.3202 12.2488L12.3475 12.3536L12.4528 12.4095L12.5927 12.4025L12.6561 12.3815L12.7098 12.3522L12.754 12.3145L12.7916 12.2725L12.821 12.2285L12.8446 12.1845L12.8638 12.1411L12.877 12.1006L12.8844 12.0727L12.888 12.0433L12.8866 12.0119L12.8741 11.979L12.8505 11.949L12.8188 11.9294L12.7849 11.9189L12.7459 11.914ZM12.4948 8.99411L12.4005 8.98224L12.3069 9.0032L12.2274 9.04511L12.1648 9.10174L12.1228 9.17373V9.26388L12.1936 9.33167L12.2996 9.35263L12.3519 9.34843L12.3983 9.33446L12.4388 9.31278L12.4734 9.28763L12.5021 9.26038L12.5272 9.23102L12.5478 9.20236L12.5647 9.17511L12.575 9.15415L12.5831 9.13248L12.5883 9.10522L12.5853 9.07587L12.5736 9.04583L12.5507 9.02137L12.5257 9.00599L12.4948 8.99411ZM11.2715 9.83346L11.242 9.95018L11.2508 10.0704L11.2877 10.178L11.3444 10.2682L11.4254 10.3345L11.5366 10.3492L11.6257 10.273L11.6662 10.1466L11.6706 10.0843L11.6625 10.0263L11.6449 9.97323L11.6206 9.925L11.5918 9.88236L11.5602 9.84464L11.5278 9.81179L11.4954 9.78522L11.4733 9.76846L11.4467 9.75377L11.4143 9.74259L11.3761 9.74121L11.3385 9.75308L11.309 9.77545L11.2892 9.80129L11.2715 9.83346ZM11.5396 13.2153C11.6095 13.3677 11.586 13.4564 11.6088 13.5878C11.6316 13.7185 11.6316 13.8722 11.6088 14.0253C11.586 14.1783 11.4932 14.2007 11.4467 14.3538C11.4011 14.5075 11.3083 14.5075 11.3083 14.5075C11.3083 14.5075 11.1242 14.2007 11.1242 13.9379C11.1242 13.6752 11.1242 13.3467 11.1242 13.3467C11.2074 13.0588 11.2958 12.6856 11.5396 13.2153Z" fill="#059B4E"/>
</g>
</g>
</g>
<defs>
<filter id="filter0_d_3396_59177" x="-6" y="-5" width="36" height="36" filterUnits="userSpaceOnUse" color-interpolation-filters="sRGB">
<feFlood flood-opacity="0" result="BackgroundImageFix"/>
<feColorMatrix in="SourceAlpha" type="matrix" values="0 0 0 0 0 0 0 0 0 0 0 0 0 0 0 0 0 0 127 0" result="hardAlpha"/>
<feOffset dy="1"/>
<feGaussianBlur stdDeviation="3"/>
<feComposite in2="hardAlpha" operator="out"/>
<feColorMatrix type="matrix" values="0 0 0 0 0 0 0 0 0 0 0 0 0 0 0 0 0 0 0.08 0"/>
<feBlend mode="normal" in2="BackgroundImageFix" result="effect1_dropShadow_3396_59177"/>
<feBlend mode="normal" in="SourceGraphic" in2="effect1_dropShadow_3396_59177" result="shape"/>
</filter>
<clipPath id="clip0_3396_59177">
<rect width="24" height="24" fill="white"/>
</clipPath>
<clipPath id="clip1_3396_59177">
<path d="M0 12C0 5.37258 5.37258 0 12 0C18.6274 0 24 5.37258 24 12C24 18.6274 18.6274 24 12 24C5.37258 24 0 18.6274 0 12Z" fill="white"/>
</clipPath>
</defs>
</svg>
