<svg width="20" height="20" viewBox="0 0 20 20" fill="none" xmlns="http://www.w3.org/2000/svg">
<g clip-path="url(#clip0_3396_55862)">
<path d="M20 10C20 4.47715 15.5228 0 10 0C4.47715 0 0 4.47715 0 10C0 15.5228 4.47715 20 10 20C15.5228 20 20 15.5228 20 10Z" fill="currentColor"/>
<path d="M6.78891 3.90323C6.79678 3.93863 6.80466 3.97407 6.8086 4.00976C6.85975 4.37638 6.98206 4.73538 7.16341 5.05869C7.37228 5.44132 7.65625 5.77644 7.97563 6.06829C8.38972 6.45091 8.86288 6.76241 9.33606 7.06998C9.4741 7.16079 9.61213 7.25132 9.74228 7.35391C9.82128 7.41691 9.9 7.4841 9.95119 7.57463C9.95906 7.59035 9.97481 7.62579 9.94331 7.62973C9.88822 7.62579 9.84069 7.59429 9.78953 7.57857C9.53313 7.47594 9.26885 7.38935 9.00094 7.31823C8.74847 7.24738 8.48841 7.19985 8.23988 7.11326C8.08216 7.05423 7.93231 6.97916 7.80216 6.86869C7.4631 6.58866 7.16341 6.25354 6.95422 5.86304C6.75322 5.49644 6.64272 5.07838 6.6506 4.66032C6.65453 4.39998 6.69813 4.14388 6.78891 3.90323Z" fill="currentColor"/>
<path d="M4.2769 5.0023C4.45824 5.35708 4.71859 5.67283 5.01827 5.93286C5.37309 6.24042 5.79506 6.46536 6.23281 6.64273C6.94268 6.9267 7.69587 7.08442 8.43327 7.2697C8.91431 7.38805 9.40349 7.50642 9.85699 7.71136C9.99109 7.77433 10.1252 7.84545 10.2475 7.92811C10.1806 7.84123 10.1173 7.74286 10.1016 7.63236C10.0976 7.58514 10.0976 7.54155 10.1016 7.49433C10.137 7.54942 10.1685 7.61661 10.2317 7.64417C10.2632 7.65598 10.2947 7.62842 10.3026 7.60086C10.3183 7.55758 10.3105 7.51008 10.2868 7.4707C10.2317 7.37202 10.1331 7.30511 10.0858 7.20642C10.1527 7.2143 10.2278 7.21823 10.2908 7.18283C10.4091 7.12377 10.4721 6.98967 10.4839 6.85952C10.4918 6.78867 10.4761 6.72145 10.4603 6.65455C10.4446 6.60339 10.4131 6.5598 10.3973 6.51258C10.4803 6.5362 10.5551 6.59158 10.5983 6.66636C10.6259 6.71361 10.6377 6.76505 10.6535 6.82014C10.6535 6.7372 10.6574 6.65061 10.6928 6.57555C10.7125 6.52439 10.7479 6.4808 10.7836 6.44145C10.8112 6.48867 10.8309 6.54408 10.8744 6.57948C10.9059 6.60705 10.9534 6.61098 10.9889 6.5913C11.2335 6.46508 11.4935 6.36245 11.7578 6.28767C11.8129 6.27192 11.8683 6.26011 11.9234 6.24042C11.9942 6.20895 12.026 6.13389 12.0929 6.09845C12.1598 6.05911 12.2427 6.05911 12.3096 6.09058C12.3569 6.11027 12.4083 6.14177 12.428 6.1932C12.4359 6.24042 12.4005 6.28402 12.4005 6.33123C12.3926 6.38242 12.4437 6.41811 12.4437 6.4693C12.4437 6.52045 12.4241 6.56402 12.4044 6.61127C12.3847 6.65848 12.3611 6.70995 12.3175 6.73748C12.2821 6.76111 12.2425 6.76898 12.207 6.78473C12.0847 6.83195 11.9664 6.89127 11.868 6.97392C11.7339 7.08836 11.6273 7.23033 11.5368 7.38017C11.5053 7.43527 11.4777 7.49461 11.4263 7.53395C11.3555 7.59302 11.2607 7.60902 11.1699 7.59302C11.1542 7.59302 11.1384 7.5812 11.1266 7.59692C11.1187 7.61661 11.1424 7.62448 11.1542 7.63236C11.2568 7.65205 11.3631 7.65992 11.4657 7.65205C11.5407 7.81764 11.6785 7.93992 11.8008 8.07011C11.9585 8.23567 12.1162 8.40914 12.2188 8.61833C12.3136 8.81145 12.349 9.03636 12.3057 9.24527C12.2781 9.39511 12.2188 9.53314 12.148 9.66333C12.1913 9.6712 12.2467 9.66333 12.2664 9.62002C12.3333 9.48592 12.3808 9.34002 12.4005 9.19017C12.4083 9.11117 12.4044 9.02852 12.4005 8.94952C12.5346 9.0403 12.6923 9.1033 12.8579 9.11508C13.193 9.14264 13.5124 9.02823 13.8281 8.92589C13.9386 8.89045 14.0569 8.83508 14.1711 8.8747C14.3406 8.92589 14.4944 9.00489 14.66 9.06786C14.8571 9.14686 15.0623 9.21377 15.2712 9.26495C15.3184 9.27673 15.3659 9.28067 15.4053 9.31217C15.4328 9.3358 15.4053 9.37514 15.4092 9.40692C15.4013 9.46595 15.4368 9.51348 15.4762 9.55283C15.5591 9.63183 15.6575 9.70267 15.7246 9.79742C15.7443 9.82498 15.764 9.88036 15.7207 9.89611C15.6378 9.91186 15.5551 9.88823 15.4722 9.87248C15.3066 9.83314 15.1371 9.78955 14.9794 9.72658C14.94 9.70689 14.8925 9.69114 14.8689 9.65152C14.8649 9.56858 14.9676 9.51739 14.9479 9.43473C14.9242 9.37964 14.8689 9.35573 14.8177 9.33608C14.6246 9.2613 14.4272 9.20589 14.2341 9.13898C14.175 9.1193 14.1157 9.0957 14.0527 9.09177C13.9976 9.08783 13.9619 9.13505 13.9186 9.15867C13.8911 9.17836 13.8517 9.19017 13.8317 9.22558C13.8868 9.30852 13.9619 9.37542 14.0328 9.44233C14.2813 9.66727 14.5771 9.84464 14.8807 9.98664C14.92 10.0063 14.9676 10.0142 14.9951 10.0535C14.9951 10.0929 14.9597 10.1283 14.9754 10.1719C14.999 10.2467 15.0702 10.2942 15.1292 10.3414C15.2001 10.4005 15.283 10.4598 15.3341 10.5385C15.3538 10.5621 15.3538 10.6054 15.3223 10.6175C15.2712 10.6333 15.2158 10.6254 15.1607 10.6215C14.9636 10.5939 14.7662 10.5545 14.5771 10.4913C14.5337 10.4755 14.4862 10.4637 14.4547 10.4283C14.4351 10.3929 14.4587 10.3575 14.4626 10.3217C14.4902 10.227 14.4508 10.1286 14.3996 10.0496C14.301 9.89977 14.159 9.78533 14.0131 9.68692C13.8829 9.60398 13.7449 9.52133 13.595 9.48592C13.5121 9.45836 13.4334 9.51348 13.3622 9.55283C13.1691 9.67514 12.9836 9.8053 12.7825 9.91942C12.3566 10.168 11.8874 10.3532 11.3985 10.428C11.3276 10.4398 11.2565 10.4635 11.1935 10.4949C10.7676 10.692 10.2944 10.7592 9.82915 10.7435C9.71865 10.7356 9.60846 10.7356 9.49796 10.7198C9.34418 10.7041 9.1904 10.6765 9.03662 10.6529C8.93399 10.645 8.82381 10.6333 8.72906 10.6844C8.58709 10.7634 8.48446 10.8894 8.36637 10.9959C8.04699 11.2838 7.65256 11.473 7.24631 11.5992C7.04531 11.6622 6.83612 11.7137 6.65087 11.8242C6.54037 11.8911 6.4459 11.9858 6.38265 12.1002C6.34724 12.1632 6.31968 12.2304 6.2879 12.2973C6.18924 12.5062 6.07509 12.7115 5.92918 12.8928C6.14987 12.8259 6.35509 12.7036 6.50496 12.5301C6.62724 12.3921 6.7099 12.2225 6.77709 12.053C6.80859 11.978 6.82827 11.8914 6.88759 11.832C6.94268 11.773 7.02562 11.753 7.1004 11.7334C7.52634 11.611 7.9444 11.4415 8.29131 11.1655C8.39787 11.0825 8.49627 10.988 8.59102 10.8933C8.65793 10.8303 8.72906 10.7671 8.81593 10.7435C8.93821 10.7198 9.06446 10.7435 9.18674 10.7631C9.10774 10.9012 8.99752 11.0195 8.88312 11.1258C8.59521 11.394 8.23649 11.5675 7.87746 11.7213C7.66465 11.8121 7.44762 11.8947 7.25446 12.017C7.14399 12.0879 7.04559 12.1747 6.97052 12.2813C6.75768 12.581 6.49343 12.8492 6.18587 13.0541C5.76387 13.3342 5.28284 13.5155 4.78606 13.6102C4.75849 13.6181 4.71915 13.5984 4.72309 13.563C4.71915 13.5236 4.75456 13.504 4.78606 13.4922C5.00281 13.3935 5.17656 13.2082 5.28677 12.9993C5.30646 12.9639 5.31824 12.9203 5.34974 12.8888C5.41665 12.8455 5.49959 12.877 5.57043 12.8692C5.66124 12.8692 5.73209 12.8101 5.78721 12.7429C5.85806 12.656 5.90949 12.5576 5.94887 12.455C6.0079 12.3052 6.05146 12.1475 6.06721 11.9858C6.07509 11.9029 6.10265 11.8124 6.17377 11.7609C6.25277 11.7058 6.34331 11.674 6.43018 11.6386C6.62724 11.5557 6.81674 11.4337 6.95871 11.272C7.07706 11.1418 7.16365 10.992 7.23087 10.8303C7.30987 10.6569 7.36102 10.4755 7.43974 10.3018C7.45943 10.2506 7.4909 10.207 7.50271 10.152C7.43974 10.1913 7.40009 10.2585 7.34893 10.3097C7.20302 10.4674 7.02956 10.6251 6.81252 10.6605C6.55218 10.7078 6.30393 10.5658 6.04359 10.5857C5.96065 10.5897 5.87406 10.6172 5.81868 10.6805C5.76359 10.7395 5.73181 10.8225 5.73574 10.9054C5.73574 10.9762 5.78299 11.0434 5.85018 11.0631C5.91315 11.0789 5.98034 11.067 6.03543 11.0355C6.07481 11.0159 6.09843 10.9765 6.13412 10.9487C6.12624 11.0395 6.07509 11.1221 6.00002 11.1694C5.86593 11.2523 5.66884 11.2445 5.55834 11.1261C5.4754 11.0353 5.46756 10.8933 5.52687 10.787C5.5859 10.6765 5.70821 10.6136 5.81474 10.5582C5.88165 10.5228 5.95671 10.4913 6.01577 10.4438C5.83837 10.4595 5.65309 10.5067 5.51112 10.6172C5.35734 10.7356 5.26652 10.9287 5.26652 11.1219C5.26259 11.2914 5.33343 11.4649 5.45968 11.5793C5.54656 11.6583 5.66462 11.7016 5.77906 11.7016C5.90134 11.6976 6.01971 11.6504 6.10631 11.5635C6.12596 11.5399 6.14565 11.5163 6.16927 11.4966C6.12202 11.6189 6.02337 11.7255 5.90106 11.7727C5.71577 11.8517 5.49874 11.8318 5.3174 11.7491C5.12821 11.6622 4.96656 11.4927 4.9269 11.2838C4.88756 11.1221 4.9269 10.9565 4.98202 10.8067C4.87546 10.854 4.76524 10.8857 4.65084 10.8896C4.58393 10.8857 4.50887 10.8739 4.46162 10.8227C4.41046 10.7676 4.42227 10.6768 4.45768 10.6139C4.50493 10.5349 4.56818 10.4601 4.6469 10.4128C4.63509 10.4561 4.61934 10.4997 4.63115 10.543C4.65084 10.6181 4.7259 10.6574 4.79674 10.6653C4.88362 10.6732 4.97021 10.6377 5.0374 10.5863C5.13609 10.5073 5.21087 10.405 5.28593 10.3063C5.37674 10.1919 5.47512 10.0735 5.60137 9.9987C5.71187 9.93573 5.84596 9.91186 5.97218 9.9197C6.01943 9.9197 6.07087 9.93545 6.11024 9.90005C6.09843 9.87248 6.07481 9.84886 6.04331 9.84492C5.93677 9.82133 5.83049 9.86461 5.71999 9.86067C5.62527 9.85673 5.53081 9.83705 5.45181 9.77773C5.35706 9.70689 5.30984 9.56886 5.35312 9.45836C5.38462 9.37542 5.46756 9.3282 5.55412 9.31245C5.62499 9.30458 5.70399 9.30458 5.76696 9.34395C5.70399 9.34395 5.63677 9.34002 5.58168 9.37542C5.53052 9.40298 5.50662 9.46623 5.52265 9.52133C5.54234 9.60427 5.6174 9.65939 5.69612 9.68298C5.90499 9.74992 6.12596 9.67514 6.33881 9.71448C6.59127 9.74598 6.81196 9.88008 7.05656 9.93124C7.24181 9.97455 7.43524 9.95092 7.60871 9.8722C7.82152 9.77745 8.00315 9.62761 8.21202 9.51739C8.39731 9.4148 8.6104 9.36361 8.81537 9.3282C9.0639 9.29277 9.31215 9.29277 9.56065 9.30458C9.64752 9.30458 9.74987 9.28883 9.80524 9.21377C9.86431 9.13477 9.83674 9.02064 9.76984 8.95345C9.67902 8.86264 9.54493 8.83114 9.41896 8.83508C9.23371 8.84295 9.05237 8.89805 8.87862 8.9613C8.43302 9.11902 8.01102 9.36755 7.54181 9.4502C7.38802 9.4817 7.22637 9.4817 7.06865 9.47383C6.89124 9.45414 6.71384 9.40298 6.56006 9.31217C6.33121 9.18595 6.13806 9.00067 5.98427 8.79152C6.15381 8.8823 6.33909 8.94923 6.53249 8.9807C6.8204 9.02795 7.11221 9.00039 7.39615 8.94136C7.87718 8.83873 8.34249 8.66133 8.83168 8.59048C9.09987 8.55505 9.3799 8.5472 9.64387 8.61411C9.78587 8.65345 9.93571 8.7167 10.0305 8.83902C10.0619 8.87836 10.0737 8.92589 10.0974 8.96917C10.1013 8.84689 10.0383 8.73245 9.95146 8.65373C9.77799 8.48814 9.54915 8.40127 9.32056 8.35011C8.9579 8.27111 8.58315 8.26323 8.21259 8.27927C8.06274 8.27927 7.9129 8.29108 7.76306 8.29895C7.43187 8.30683 7.10068 8.33042 6.76921 8.30683C6.56034 8.29895 6.35118 8.27139 6.15015 8.22389C5.79927 8.14489 5.45996 7.98323 5.19596 7.73498C4.86084 7.42742 4.63987 7.01723 4.4979 6.5913C4.4664 6.49655 4.4349 6.40602 4.41496 6.30736C4.63171 6.61886 4.91959 6.87523 5.2314 7.09202C5.63368 7.36808 6.09506 7.56123 6.56821 7.67958C7.19515 7.8373 7.84599 7.87273 8.48868 7.92811C8.61884 7.93992 8.75296 7.95567 8.88312 7.97142C9.15918 8.01077 9.43921 8.05436 9.69534 8.16455C9.88846 8.24355 10.074 8.36558 10.2 8.53539C10.3144 8.69311 10.3734 8.89017 10.3734 9.08361C10.4167 8.90227 10.3971 8.70098 10.3065 8.53539C10.2078 8.34617 10.0344 8.21208 9.84912 8.11733C9.49824 7.94386 9.10774 7.87667 8.72512 7.83339C8.12965 7.77827 7.52634 7.73864 6.93874 7.62842C6.55612 7.55758 6.17771 7.45495 5.82262 7.2933C5.44787 7.12377 5.10487 6.88705 4.82881 6.58342C4.5724 6.30736 4.38318 5.9683 4.30418 5.59745C4.26877 5.45548 4.26484 5.30564 4.25302 5.15973C4.26484 5.08495 4.27271 5.04136 4.27662 5.00202M11.1145 6.89886C11.1696 6.83589 11.2447 6.79233 11.3195 6.75295C11.3945 6.71361 11.4654 6.64245 11.4615 6.55586C11.2998 6.59917 11.1657 6.7372 11.1145 6.89886ZM11.1578 8.56686C11.347 8.61017 11.5244 8.69705 11.6585 8.83902C11.8281 9.00461 11.9228 9.24133 11.9189 9.47777C11.9189 9.54073 11.9031 9.60005 11.8952 9.66305C11.9228 9.65911 11.9504 9.67092 11.9742 9.65517C12.0097 9.54467 12.0097 9.42239 11.9979 9.30823C11.9703 9.13083 11.8874 8.96524 11.7572 8.83902C11.6034 8.67736 11.3825 8.58655 11.1578 8.56686Z" fill="currentColor"/>
<path d="M6.58044 5.34677C6.70666 5.75696 6.91947 6.13931 7.19557 6.46684C7.35329 6.65606 7.53069 6.82949 7.71622 6.99143C7.61363 6.97177 7.51522 6.94027 7.4126 6.91637C7.27457 6.87702 7.13654 6.8534 7.00241 6.80196C6.92341 6.77046 6.85257 6.71902 6.80141 6.65212C6.68304 6.4944 6.63582 6.29731 6.60432 6.10781C6.57285 5.85537 6.56863 5.59924 6.58044 5.34677Z" fill="currentColor"/>
<path d="M5.27419 7.89315C5.41222 8.02724 5.57782 8.13774 5.75522 8.21252C6.02344 8.32693 6.31132 8.37811 6.59919 8.40171C6.69788 8.41352 6.80022 8.40958 6.89891 8.41746C7.07238 8.42533 7.24582 8.41352 7.41957 8.41352C7.90847 8.39383 8.4016 8.33846 8.89051 8.35449C9.07579 8.3663 9.26132 8.38205 9.43872 8.44924C9.37969 8.45318 9.32035 8.44136 9.26132 8.4453C8.83147 8.44136 8.40947 8.54399 7.99535 8.6463C7.64054 8.73318 7.28154 8.82765 6.91494 8.83552C6.74541 8.83946 6.57588 8.82765 6.41029 8.78436C6.10272 8.71349 5.81482 8.54761 5.58991 8.32693C5.45582 8.20465 5.34504 8.05874 5.27419 7.89315Z" fill="currentColor"/>
<path d="M10.5825 11.777C11.1308 11.781 11.6787 11.7455 12.2269 11.7849C12.7001 11.8203 13.1893 11.9151 13.5992 12.1675C13.7372 12.2544 13.8595 12.3685 13.9382 12.5105C14.0172 12.6525 14.0487 12.826 14.013 12.9876C13.9618 13.2322 13.7802 13.4332 13.5595 13.5398C13.3939 13.6227 13.2087 13.666 13.031 13.7211C13.2677 13.7841 13.5002 13.8631 13.7094 13.9893C13.8828 14.0919 14.0366 14.2339 14.1274 14.4113C14.23 14.6005 14.2576 14.8333 14.1943 15.0382C14.1392 15.2353 14.0091 15.4048 13.8514 15.5311C13.7015 15.6494 13.532 15.7321 13.3546 15.7953C13.0667 15.9019 12.767 15.9531 12.4634 15.9885C12.1676 16.02 11.8718 16.0318 11.5761 16.0278H9.75823C9.76217 15.9252 9.78182 15.819 9.7897 15.7163C9.5451 15.8583 9.2772 15.9452 9.00504 16.0042C8.60667 16.0911 8.19676 16.1147 7.79051 16.0832C7.49082 16.0557 7.19114 15.9964 6.91504 15.8704C6.74945 15.7953 6.59173 15.6891 6.46945 15.555C6.25664 15.3261 6.15007 15.0225 6.11857 14.7149C6.09498 14.5336 6.10676 14.3522 6.10282 14.1706V13.2083C6.28417 13.1096 6.44976 12.9834 6.60354 12.8456C6.74157 12.7194 6.87176 12.5814 6.98223 12.4315C7.06517 12.3171 7.15176 12.1987 7.2662 12.1161C7.40423 12.0174 7.56195 11.9544 7.71573 11.8833C7.8026 11.8439 7.8892 11.8082 7.97607 11.7767C7.86557 11.9659 7.79473 12.1791 7.77114 12.3958C7.75145 12.5496 7.75539 12.7034 7.75539 12.8571C7.75932 13.2358 7.75539 13.6182 7.75539 13.9969C7.75145 14.2297 7.75145 14.4701 7.82623 14.695C7.87345 14.8487 7.96426 14.9946 8.10229 15.0855C8.27576 15.2038 8.48495 15.2471 8.68989 15.2511C8.87123 15.2511 9.05651 15.2196 9.21845 15.1327C9.32892 15.0736 9.42338 14.9789 9.4827 14.8684C9.5617 14.7225 9.58926 14.553 9.5932 14.3874V12.7155C9.5932 12.5223 9.5932 12.3328 9.56957 12.1436C9.55382 12.0174 9.51842 11.8951 9.4827 11.7728C9.85354 11.7767 10.2201 11.7767 10.5828 11.7767M11.2612 12.4866C11.2533 12.8178 11.2573 13.1532 11.2573 13.4844C11.474 13.4844 11.6911 13.4726 11.896 13.4014C12.0262 13.3542 12.1564 13.2791 12.2233 13.1568C12.2823 13.0582 12.2941 12.9361 12.2469 12.8296C12.1957 12.7073 12.0852 12.6286 11.9629 12.5811C11.7462 12.4903 11.4976 12.4863 11.2609 12.4863M11.257 14.1583V15.2823C11.4898 15.2783 11.7262 15.2665 11.9511 15.1993C12.0734 15.16 12.1957 15.1085 12.2902 15.0219C12.3846 14.9353 12.4518 14.8052 12.44 14.6711C12.4321 14.5566 12.3649 14.4504 12.2744 14.3792C12.1718 14.3002 12.0456 14.257 11.9196 14.2215C11.7068 14.1704 11.4819 14.1586 11.2573 14.1586L11.257 14.1583Z" fill="currentColor"/>
</g>
<defs>
<clipPath id="clip0_3396_55862">
<rect width="19.375" height="19.375" fill="currentColor" transform="scale(1.03226)"/>
</clipPath>
</defs>
</svg>
