<svg width="24" height="24" viewBox="0 0 24 24" fill="none" xmlns="http://www.w3.org/2000/svg">
<g clip-path="url(#clip0_6029_10841)">
<path d="M12.0912 2.747C17.6919 2.11933 22.327 5.95172 22.4416 11.305C22.5563 16.6583 18.1083 21.5046 12.5076 22.1322C6.90688 22.7599 2.26576 18.9215 2.15109 13.5742C2.03642 8.22701 6.48441 3.37466 12.0912 2.747Z" fill="#EBF7FF" stroke="black" stroke-width="0.075"/>
<path d="M2.21145 12.3555C2.23559 12.1503 2.25973 11.939 2.29594 11.7338C2.31405 11.6192 2.33819 11.5105 2.36233 11.4019C2.40458 11.2088 2.44683 11.0217 2.50114 10.8285C2.53132 10.7199 2.5615 10.6113 2.59771 10.5026C2.65806 10.3095 2.72445 10.1164 2.79687 9.92326C2.83308 9.82669 2.86326 9.73617 2.90551 9.6396C3.00811 9.38612 3.12277 9.13868 3.24348 8.89727C3.25555 8.86709 3.26762 8.83691 3.28573 8.80674C3.42454 8.53515 3.58145 8.2696 3.73837 8.01612C3.78665 7.93766 3.84097 7.8592 3.89529 7.78074C4.01599 7.59969 4.14273 7.41259 4.27551 7.23757C4.32379 7.17118 4.37811 7.10479 4.42639 7.04444C4.57727 6.85131 4.73419 6.67026 4.89714 6.48316C4.93335 6.44092 4.9756 6.39263 5.01181 6.35039C5.09027 6.26589 5.17476 6.18744 5.25322 6.10898C5.42824 5.93395 5.60327 5.75893 5.79036 5.58995C5.91106 5.48735 6.03177 5.38475 6.15247 5.28215C6.29128 5.16748 6.42406 5.05884 6.56891 4.95021C6.71375 4.84157 6.8586 4.74501 7.00345 4.64241C7.13019 4.55792 7.25089 4.47342 7.37763 4.39496C7.54058 4.29237 7.70957 4.1958 7.87856 4.10527C7.99323 4.03888 8.1079 3.9725 8.2286 3.91214C8.40966 3.81558 8.60279 3.73712 8.78988 3.65263C8.90455 3.60435 9.01319 3.54399 9.12785 3.50175C9.30288 3.42932 9.48394 3.36897 9.66499 3.30862C9.8038 3.26034 9.94261 3.20602 10.0875 3.15774C10.2021 3.12153 10.3168 3.09738 10.4375 3.06721C10.6668 3.00686 10.8962 2.94047 11.1376 2.89219C11.4514 2.8258 11.7713 2.77752 12.0972 2.73527C12.2964 2.71113 12.4955 2.69906 12.6947 2.68699C12.8033 2.68095 12.9059 2.68095 13.0146 2.67492C13.1353 2.67492 13.256 2.66888 13.3706 2.67492C13.4793 2.67492 13.5819 2.67492 13.6845 2.68095C13.7991 2.68095 13.9198 2.69302 14.0345 2.69906C14.1371 2.70509 14.2397 2.71716 14.3423 2.72923C14.457 2.7413 14.5717 2.75338 14.6863 2.77148C14.7889 2.78355 14.8915 2.80166 14.9881 2.81976C15.0847 2.83787 15.1752 2.85597 15.2717 2.87408C15.5554 2.93443 15.8391 3.00082 16.1167 3.07928C16.2193 3.10946 16.3219 3.14567 16.4305 3.18188C16.5271 3.21205 16.6236 3.24223 16.7142 3.27844C16.8168 3.31465 16.9194 3.36294 17.022 3.40518C17.1125 3.44139 17.203 3.47761 17.2936 3.51985C17.3962 3.56813 17.4927 3.61642 17.5953 3.6647C17.6798 3.70695 17.7703 3.74919 17.8548 3.79144C17.9514 3.84576 18.048 3.90007 18.1445 3.96043C18.223 4.00871 18.3075 4.05096 18.3859 4.09924C18.4523 4.14148 18.5187 4.18977 18.5791 4.23201C18.6877 4.30444 18.7963 4.37686 18.905 4.45532C18.9774 4.50963 19.0438 4.56395 19.1102 4.61827C19.2067 4.69069 19.3033 4.76915 19.3999 4.84761C19.43 4.87175 19.4602 4.90193 19.4904 4.9321C19.7077 5.1192 19.9189 5.32439 20.1181 5.53563C20.1482 5.5658 20.1724 5.59598 20.2026 5.62012C20.3836 5.81928 20.5586 6.03052 20.7155 6.24175C20.8121 6.36849 20.9026 6.49523 20.9932 6.62197L20.4077 5.7529C20.3353 5.64426 20.2569 5.53563 20.1784 5.42699C20.1603 5.40889 20.1422 5.39078 20.1301 5.36664C19.9672 5.14937 19.7982 4.94417 19.6171 4.74501C19.6111 4.73294 19.599 4.7269 19.593 4.71483C19.5749 4.69673 19.5507 4.67862 19.5326 4.65448C19.3335 4.44325 19.1283 4.24408 18.905 4.05096C18.8869 4.03285 18.8688 4.01474 18.8507 3.99664C18.8386 3.98457 18.8265 3.97853 18.8144 3.96646C18.7239 3.888 18.6213 3.81558 18.5247 3.73712C18.4584 3.6828 18.392 3.62849 18.3196 3.57417C18.2109 3.49571 18.1023 3.42329 17.9936 3.35087C17.9333 3.30862 17.879 3.26637 17.8126 3.23016C17.8126 3.23016 17.8005 3.22413 17.7945 3.21809C17.716 3.16981 17.6315 3.12153 17.5531 3.07928C17.4565 3.02496 17.3599 2.96461 17.2634 2.91029C17.1789 2.86804 17.0944 2.8258 17.0039 2.78355C16.9013 2.73527 16.8047 2.68095 16.7021 2.63871C16.6116 2.59646 16.521 2.56628 16.4305 2.52404C16.3279 2.48179 16.2253 2.43954 16.1227 2.39729C16.0322 2.36108 15.9356 2.33091 15.8391 2.30073C15.7425 2.27055 15.6459 2.23434 15.5494 2.20417C15.5433 2.20417 15.5373 2.20417 15.5252 2.20417C15.2476 2.11967 14.97 2.05329 14.6803 1.99897C14.6501 1.99293 14.6199 1.98086 14.5837 1.97483C14.5234 1.96276 14.457 1.95672 14.3966 1.94465C14.294 1.92655 14.1975 1.90844 14.0949 1.89637C13.9802 1.87826 13.8655 1.86619 13.7509 1.85412C13.6483 1.84205 13.5457 1.83602 13.4431 1.82395C13.3284 1.81791 13.2077 1.81188 13.093 1.80584C12.9904 1.80584 12.8818 1.7998 12.7792 1.7998C12.6585 1.7998 12.5438 1.7998 12.4231 1.7998C12.3145 1.7998 12.2119 1.7998 12.1032 1.81188C12.067 1.81188 12.0308 1.81188 11.9946 1.81188C11.8317 1.82395 11.6687 1.83602 11.4997 1.85412C11.1979 1.89033 10.9022 1.93258 10.6125 1.99293C10.5884 1.99293 10.5642 2.005 10.5401 2.01104C10.3047 2.05932 10.0754 2.11967 9.84002 2.18606C9.73742 2.21624 9.62878 2.23434 9.52618 2.26452C9.51411 2.26452 9.50204 2.27055 9.48997 2.27659C9.34512 2.31884 9.20631 2.37315 9.0675 2.42747C8.90455 2.48179 8.73556 2.53611 8.57865 2.60249C8.56054 2.60853 8.54847 2.61456 8.53036 2.6206C8.41569 2.66888 8.30706 2.7232 8.19239 2.77148C8.02944 2.8439 7.86649 2.91029 7.70353 2.98875C7.67939 3.00082 7.65525 3.01893 7.63111 3.031C7.51041 3.09135 7.40177 3.15774 7.28107 3.22413C7.14829 3.29655 7.00948 3.36897 6.8767 3.44743C6.84049 3.46554 6.81032 3.48968 6.78014 3.51382C6.6534 3.59228 6.5327 3.67677 6.40595 3.76126C6.29732 3.83369 6.18265 3.90611 6.07402 3.98457C6.0378 4.00871 6.00763 4.03888 5.97142 4.06906C5.82657 4.1777 5.69379 4.28633 5.55498 4.401C5.46445 4.47946 5.36186 4.54585 5.27133 4.6243C5.24115 4.64845 5.21701 4.67862 5.18683 4.70276C4.99974 4.87175 4.82472 5.04677 4.64969 5.22179C4.58331 5.28818 4.51088 5.34854 4.45053 5.41492C4.43243 5.43303 4.42036 5.45113 4.40828 5.46321C4.36604 5.50545 4.32983 5.55373 4.29361 5.59598C4.13066 5.77704 3.97375 5.96413 3.82286 6.15726C3.77458 6.22365 3.72027 6.284 3.67198 6.35039C3.63577 6.39867 3.59352 6.45299 3.55731 6.50127C3.46678 6.62801 3.38229 6.76079 3.2978 6.89356C3.24348 6.97202 3.18916 7.04444 3.14088 7.12894C2.97793 7.38845 2.82705 7.654 2.68824 7.92559C2.67617 7.95577 2.6641 7.97991 2.64599 8.01008C2.52528 8.25149 2.41061 8.50497 2.30802 8.75242C2.2718 8.84295 2.23559 8.93951 2.19938 9.03608C2.12696 9.22921 2.06057 9.42233 2.00022 9.61546C1.96401 9.7241 1.93383 9.83273 1.90969 9.94137C1.85537 10.1285 1.81312 10.3216 1.77088 10.5147C1.74674 10.6233 1.7226 10.738 1.70449 10.8467C1.66828 11.0519 1.64414 11.2631 1.62 11.4683C1.60793 11.5648 1.59585 11.6614 1.58982 11.764C1.56568 12.0718 1.55361 12.3796 1.55964 12.6874C1.59585 14.4437 2.12092 16.043 3.01414 17.3647L3.59956 18.2338C2.71238 16.906 2.18731 15.3127 2.14506 13.5565C2.13903 13.2487 2.14506 12.9349 2.17524 12.6331C2.18127 12.5365 2.19938 12.44 2.20542 12.3374L2.21145 12.3555Z" fill="#017AFF" stroke="black" stroke-width="0.075"/>
<path d="M12.1211 4.12916C16.9259 3.59025 20.8995 6.87566 20.9969 11.4661C21.0943 16.0566 17.283 20.2121 12.4782 20.7445C7.67346 21.2769 3.69981 17.998 3.60241 13.414C3.50502 8.82353 7.31635 4.66807 12.1211 4.12916Z" fill="#017AFF" stroke="black" stroke-width="0.075"/>
<path d="M12.0844 17.9024L12.012 17.7938L11.9939 16.8281L12.0663 16.9368L12.0844 17.9024Z" fill="#EBF7FF" stroke="black" stroke-width="0.075"/>
<path d="M14.3234 14.6856C14.3234 14.6856 14.3354 14.6434 14.3415 14.6192C14.3717 14.5166 14.3837 14.408 14.3837 14.2873C14.3837 14.0881 14.3354 13.9191 14.2449 13.7864L14.1725 13.6777C14.263 13.8165 14.3113 13.9855 14.3113 14.1787C14.3113 14.2994 14.2932 14.408 14.2691 14.5106C14.2691 14.5347 14.257 14.5528 14.2509 14.577C14.2208 14.6736 14.1725 14.7641 14.1121 14.8486C14.0759 14.8969 14.0397 14.9451 13.9914 14.9874C13.9854 14.9934 13.9794 14.9995 13.9673 15.0055C13.919 15.0538 13.8587 15.096 13.7983 15.1383C13.7923 15.1383 13.7802 15.1503 13.7742 15.1564C13.7078 15.1986 13.6414 15.2348 13.5629 15.271C13.5509 15.271 13.5388 15.2831 13.5267 15.2831C13.4603 15.3133 13.3939 15.3374 13.3215 15.3616C13.2853 15.3736 13.2551 15.3857 13.2189 15.3978C13.1344 15.4219 13.0499 15.4461 12.9534 15.4702L13.0258 15.5788C13.0922 15.5668 13.1525 15.5487 13.2129 15.5306C13.237 15.5245 13.2612 15.5125 13.2853 15.5064C13.3215 15.4943 13.3577 15.4823 13.3879 15.4702C13.412 15.4642 13.4362 15.4581 13.4603 15.4461C13.5086 15.428 13.5509 15.4099 13.5931 15.3917C13.6052 15.3917 13.6172 15.3797 13.6293 15.3797C13.6293 15.3797 13.6354 15.3797 13.6414 15.3797C13.6897 15.3555 13.738 15.3314 13.7802 15.3073C13.7983 15.2952 13.8224 15.2831 13.8406 15.271C13.8466 15.271 13.8587 15.259 13.8647 15.2529C13.8707 15.2529 13.8828 15.2409 13.8888 15.2348C13.925 15.2107 13.9552 15.1865 13.9854 15.1624C14.0035 15.1503 14.0156 15.1383 14.0276 15.1202C14.0337 15.1141 14.0397 15.1081 14.0518 15.1021C14.0578 15.096 14.0699 15.09 14.0759 15.0779C14.1061 15.0477 14.1363 15.0115 14.1665 14.9753C14.1665 14.9753 14.1665 14.9632 14.1725 14.9632C14.2328 14.8788 14.2811 14.7882 14.3113 14.6917L14.3234 14.6856Z" fill="#EBF7FF" stroke="black" stroke-width="0.075"/>
<path d="M11.517 15.5903C11.517 15.5903 11.5713 15.6024 11.5954 15.6084C11.7343 15.6446 11.8791 15.6687 12.036 15.6687L11.9636 15.5601C11.8067 15.5601 11.6618 15.536 11.523 15.4998C11.4989 15.4937 11.4687 15.4877 11.4446 15.4816C11.3178 15.4454 11.1971 15.3911 11.0824 15.3247C11.0221 15.2885 10.9617 15.2463 10.9014 15.204C10.8109 15.1256 10.7324 15.0411 10.666 14.9385L10.7384 15.0471C10.7384 15.0471 10.7626 15.0773 10.7747 15.0954C10.7988 15.1316 10.829 15.1618 10.8591 15.198C10.8893 15.2342 10.9255 15.2644 10.9617 15.2946C10.9678 15.2946 10.9738 15.3066 10.9798 15.3127C11.0281 15.3549 11.0824 15.3911 11.1307 15.4213C11.1368 15.4213 11.1488 15.4273 11.1549 15.4334C11.2635 15.4998 11.3842 15.5541 11.517 15.5903Z" fill="#EBF7FF" stroke="black" stroke-width="0.075"/>
<path d="M12.0357 15.6754L11.9694 15.5668L11.915 13.0742L11.9875 13.1768L12.0357 15.6754Z" fill="#EBF7FF" stroke="black" stroke-width="0.075"/>
<path d="M9.0546 14.5227L8.98218 14.4141C9.01839 14.921 9.15117 15.3556 9.39258 15.7116L9.465 15.8203C9.22962 15.4582 9.09081 15.0236 9.0546 14.5227Z" fill="#EBF7FF" stroke="black" stroke-width="0.075"/>
<path d="M9.0546 14.5222L8.98218 14.4196L10.4487 14.2627L10.5151 14.3713L9.0546 14.5222Z" fill="#EBF7FF" stroke="black" stroke-width="0.075"/>
<path d="M13.8225 12.0237C13.9251 12.0418 14.0277 12.066 14.1243 12.0901C14.1725 12.1022 14.2148 12.1143 14.2631 12.1263C14.3596 12.1565 14.4502 12.1867 14.5347 12.2229C14.5648 12.235 14.601 12.247 14.6373 12.2651C14.7519 12.3134 14.8606 12.3738 14.9571 12.4341C14.9813 12.4522 15.0054 12.4703 15.0295 12.4884C15.0899 12.5307 15.1503 12.5729 15.2046 12.6152C15.271 12.6695 15.3313 12.7299 15.3917 12.7902C15.3917 12.7902 15.3917 12.7902 15.3977 12.7962C15.458 12.8626 15.5124 12.9351 15.5606 13.0075L15.4882 12.8988C15.4882 12.8988 15.458 12.8506 15.4399 12.8264C15.4037 12.7781 15.3675 12.7299 15.3253 12.6876C15.3253 12.6876 15.3253 12.6876 15.3192 12.6816C15.271 12.6273 15.2166 12.5729 15.1563 12.5247C15.1563 12.5247 15.1442 12.5186 15.1382 12.5126C15.0839 12.4703 15.0235 12.4281 14.9632 12.3858C14.939 12.3677 14.9209 12.3557 14.8968 12.3376H14.8907C14.7942 12.2772 14.6855 12.2229 14.5709 12.1686C14.5407 12.1565 14.5045 12.1444 14.4683 12.1263C14.3838 12.0901 14.2932 12.0599 14.1967 12.0298C14.1544 12.0177 14.1062 12.0056 14.0579 11.9936C13.9613 11.9694 13.8587 11.9453 13.7561 11.9272C13.7078 11.9151 13.6656 11.9091 13.6173 11.903C13.4664 11.8789 13.3095 11.8547 13.1405 11.8366L12.8931 11.8125L12.9655 11.9211L13.2129 11.9453C13.3819 11.9634 13.5388 11.9815 13.6897 12.0117C13.738 12.0177 13.7802 12.0298 13.8285 12.0358L13.8225 12.0237Z" fill="#EBF7FF" stroke="black" stroke-width="0.075"/>
<path d="M13.9972 10.1887L13.9248 10.0801C14.0334 10.2491 14.0998 10.4543 14.1179 10.6957L14.1904 10.8043C14.1723 10.5569 14.1119 10.3517 13.9972 10.1887Z" fill="#EBF7FF" stroke="black" stroke-width="0.075"/>
<path d="M11.1909 11.589C11.2573 11.6252 11.3358 11.6615 11.4203 11.6916C11.4565 11.7037 11.4927 11.7158 11.5289 11.7278C11.6557 11.7641 11.7945 11.7942 11.9574 11.8123L11.885 11.7037C11.722 11.6856 11.5832 11.6554 11.4565 11.6192C11.4142 11.6071 11.3841 11.5951 11.3479 11.583C11.2634 11.5528 11.1849 11.5226 11.1185 11.4804C11.0702 11.4563 11.022 11.4321 10.9857 11.4019C10.9797 11.3959 10.9676 11.3899 10.9616 11.3838C10.9013 11.3295 10.8469 11.2752 10.8047 11.2148L10.8771 11.3235C10.8771 11.3235 10.8892 11.3416 10.8952 11.3537C10.9133 11.3778 10.9254 11.3959 10.9435 11.414C10.9676 11.4381 10.9857 11.4623 11.0159 11.4804C11.0159 11.4804 11.028 11.4864 11.034 11.4925C11.0401 11.4985 11.0521 11.5045 11.0582 11.5106C11.0823 11.5287 11.1065 11.5468 11.1306 11.5649C11.1487 11.577 11.1728 11.583 11.1909 11.589Z" fill="#EBF7FF" stroke="black" stroke-width="0.075"/>
<path d="M11.9577 11.8128L11.8853 11.7102L11.843 9.6582L11.9154 9.7608L11.9577 11.8128Z" fill="#EBF7FF" stroke="black" stroke-width="0.075"/>
<path d="M13.9248 8.54178C13.9851 8.55988 14.0394 8.57799 14.0998 8.59609C14.1964 8.62627 14.2869 8.66248 14.3774 8.70473C14.4317 8.72887 14.486 8.75905 14.5343 8.78922C14.649 8.85561 14.7637 8.922 14.8723 9.00649C14.9568 9.07891 15.0413 9.15737 15.1137 9.23583C15.1137 9.23583 15.1137 9.23583 15.1197 9.24187C15.1922 9.32032 15.2525 9.40482 15.3129 9.48931L15.2405 9.38068C15.2405 9.38068 15.2042 9.32636 15.1861 9.30222C15.1439 9.24187 15.0956 9.18755 15.0473 9.13323C15.0473 9.13323 15.0473 9.13323 15.0473 9.1272C14.987 9.06081 14.9206 8.99442 14.8482 8.93407C14.8361 8.922 14.824 8.90993 14.8059 8.89786C14.7335 8.8375 14.655 8.78319 14.5766 8.7349C14.5464 8.7168 14.5041 8.69869 14.474 8.68059C14.4197 8.65041 14.3714 8.62627 14.311 8.59609C14.2205 8.55385 14.13 8.51764 14.0334 8.48746C13.9791 8.46935 13.9187 8.44521 13.8584 8.43314C13.7497 8.40297 13.6411 8.37882 13.5264 8.36072C13.4721 8.34865 13.4178 8.33658 13.3635 8.33054C13.1885 8.3064 13.0074 8.29433 12.8203 8.30037L12.8927 8.409C13.0859 8.409 13.2609 8.42107 13.4359 8.43918C13.4902 8.44521 13.5445 8.45728 13.5989 8.46935C13.7135 8.48746 13.8282 8.5116 13.9308 8.54178H13.9248Z" fill="#EBF7FF" stroke="black" stroke-width="0.075"/>
<path d="M9.32603 10.5268C9.34414 10.4302 9.37431 10.3397 9.40449 10.2491C9.4226 10.2069 9.4407 10.1586 9.45881 10.1164C9.49502 10.0319 9.5433 9.94737 9.59762 9.86891C9.62176 9.8327 9.6459 9.79045 9.67004 9.75424C9.7485 9.63957 9.83903 9.53094 9.94766 9.42834C10.0623 9.31367 10.1951 9.21107 10.3279 9.1145C10.3339 9.10847 10.346 9.10243 10.3581 9.0964C10.4908 9.00587 10.6357 8.92138 10.7866 8.84895C10.7866 8.84895 10.7986 8.84895 10.8047 8.84292C10.9435 8.77653 11.0883 8.72221 11.2452 8.67393C11.2815 8.66186 11.3177 8.64979 11.3599 8.63772C11.5289 8.58944 11.7039 8.54719 11.891 8.51098L11.8186 8.40234C11.6617 8.43252 11.5108 8.4627 11.3599 8.50494C11.3358 8.51098 11.3116 8.52305 11.2815 8.52908C11.2452 8.54115 11.203 8.55322 11.1668 8.5653C11.1125 8.5834 11.0521 8.60151 10.9978 8.61961C10.9073 8.65582 10.8167 8.69204 10.7322 8.73428C10.7322 8.73428 10.7202 8.73428 10.7141 8.74032C10.6296 8.78256 10.5452 8.82481 10.4667 8.87309C10.4063 8.90931 10.346 8.94552 10.2917 8.98776C10.2796 8.9938 10.2736 8.99983 10.2615 9.00587C10.2615 9.00587 10.2494 9.0119 10.2434 9.01794C10.171 9.06622 10.0985 9.12054 10.0322 9.18089C9.97784 9.22314 9.92956 9.27142 9.88128 9.3197C9.86317 9.33781 9.8511 9.34988 9.83299 9.36798C9.76057 9.44644 9.69418 9.5249 9.63383 9.60336C9.62176 9.62147 9.61572 9.63354 9.60365 9.65164C9.57951 9.68785 9.55537 9.7301 9.53123 9.76631C9.48295 9.84477 9.43467 9.92926 9.39242 10.0198C9.37431 10.062 9.35621 10.1103 9.3381 10.1526C9.30189 10.2431 9.27775 10.3336 9.25964 10.4302C9.24757 10.4724 9.2355 10.5147 9.22947 10.5569C9.20533 10.6957 9.19326 10.8346 9.19929 10.9794C9.21136 11.42 9.30793 11.7821 9.49502 12.0657L9.56744 12.1744C9.38035 11.8847 9.28379 11.5226 9.27172 11.088C9.27172 10.9432 9.28379 10.7983 9.30189 10.6656C9.30793 10.6233 9.32 10.5811 9.33207 10.5388L9.32603 10.5268Z" fill="#EBF7FF" stroke="black" stroke-width="0.075"/>
<path d="M11.8852 8.51115L11.8188 8.40855L11.7947 7.4248L11.8671 7.53344L11.8852 8.51115Z" fill="#EBF7FF" stroke="black" stroke-width="0.075"/>
<path d="M13.2068 11.9273C14.951 12.0902 15.8442 12.8084 15.8683 14.1C15.8804 14.788 15.651 15.3674 15.1743 15.8502C14.6914 16.333 13.9914 16.6529 13.0619 16.8158L13.08 17.7936L12.0842 17.8962L12.0661 16.9305C11.1367 16.9486 10.4124 16.7434 9.91152 16.3149C9.39852 15.8864 9.10883 15.2829 9.06055 14.5164L10.5271 14.3655C10.5754 14.7699 10.7263 15.0898 10.9918 15.307C11.2695 15.5364 11.6255 15.6631 12.048 15.6691L11.9937 13.1705L11.7704 13.1464C10.9858 13.0619 10.3702 12.8627 9.92962 12.5368C9.50716 12.217 9.28989 11.7281 9.27178 11.0642C9.25368 10.4004 9.48301 9.86926 9.95376 9.41058C10.4305 8.94587 11.0763 8.63807 11.8911 8.49926L11.873 7.52154L12.8688 7.41895L12.8869 8.39666C13.7017 8.39666 14.3655 8.58978 14.8665 9.00018C15.3614 9.41058 15.6269 9.95375 15.651 10.6418L14.1845 10.7987C14.1302 10.0926 13.7137 9.71838 12.911 9.66406L12.9593 11.8911L13.2068 11.9152V11.9273ZM13.0378 15.5786C13.9491 15.3794 14.4017 14.9509 14.3897 14.2871C14.3836 13.9732 14.275 13.7379 14.0517 13.5809C13.8284 13.4301 13.4844 13.3275 13.0257 13.2852H12.9895L13.0378 15.5846M11.9575 11.8126L11.9152 9.76062C11.1367 9.93565 10.7444 10.3219 10.7565 10.9194C10.7685 11.4203 11.1729 11.716 11.9575 11.8126Z" fill="#EBF7FF"/>
<path d="M13.0378 15.5786C13.9491 15.3794 14.4017 14.9509 14.3897 14.2871C14.3836 13.9732 14.275 13.7379 14.0517 13.5809C13.8284 13.4301 13.4844 13.3275 13.0257 13.2852H12.9895L13.0378 15.5846M13.2068 11.9273C14.951 12.0902 15.8442 12.8084 15.8683 14.1C15.8804 14.788 15.651 15.3674 15.1743 15.8502C14.6914 16.333 13.9914 16.6529 13.0619 16.8158L13.08 17.7936L12.0842 17.8962L12.0661 16.9305C11.1367 16.9486 10.4124 16.7434 9.91152 16.3149C9.39852 15.8864 9.10883 15.2829 9.06055 14.5164L10.5271 14.3655C10.5754 14.7699 10.7263 15.0898 10.9918 15.307C11.2695 15.5364 11.6255 15.6631 12.048 15.6691L11.9937 13.1705L11.7704 13.1464C10.9858 13.0619 10.3702 12.8627 9.92962 12.5368C9.50716 12.217 9.28989 11.7281 9.27178 11.0642C9.25368 10.4004 9.48301 9.86926 9.95376 9.41058C10.4305 8.94587 11.0763 8.63807 11.8911 8.49926L11.873 7.52154L12.8688 7.41895L12.8869 8.39666C13.7017 8.39666 14.3655 8.58978 14.8665 9.00018C15.3614 9.41058 15.6269 9.95375 15.651 10.6418L14.1845 10.7987C14.1302 10.0926 13.7137 9.71838 12.911 9.66406L12.9593 11.8911L13.2068 11.9152V11.9273ZM11.9575 11.8126L11.9152 9.76062C11.1367 9.93565 10.7444 10.3219 10.7565 10.9194C10.7685 11.4203 11.1729 11.716 11.9575 11.8126Z" stroke="black" stroke-width="0.075"/>
<path d="M11.8671 7.5335L11.7947 7.42487L12.7965 7.32227L12.8629 7.4309L11.8671 7.5335Z" fill="#EBF7FF" stroke="black" stroke-width="0.075"/>
<circle cx="22.0505" cy="2.55" r="1.8" fill="#DF3C27"/>
</g>
<defs>
<clipPath id="clip0_6029_10841">
<rect width="24" height="24" fill="white"/>
</clipPath>
</defs>
</svg>
