<svg width="24" height="24" viewBox="0 0 24 24" fill="none" xmlns="http://www.w3.org/2000/svg">
<g clip-path="url(#clip0_3323_37335)">
<g filter="url(#filter0_d_3323_37335)">
<path d="M0 12C0 5.37258 5.37258 0 12 0C18.6274 0 24 5.37258 24 12C24 18.6274 18.6274 24 12 24C5.37258 24 0 18.6274 0 12Z" fill="#FBFAF8"/>
<path fill-rule="evenodd" clip-rule="evenodd" d="M15.8923 9.91468C15.6323 9.81741 15.2248 9.71289 14.7157 9.71289C13.4186 9.71289 12.5045 10.3641 12.4969 11.2968C12.4898 11.987 13.1492 12.3713 13.6473 12.6013C14.1581 12.8362 14.3301 12.9864 14.3275 13.1964C14.3242 13.5182 13.9196 13.6651 13.5423 13.6651C13.0167 13.6651 12.7377 13.5927 12.3065 13.4134L12.1371 13.337L11.9529 14.4117C12.2599 14.5454 12.8265 14.6618 13.4153 14.6677C14.7955 14.6677 15.6915 14.0242 15.7015 13.0278C15.7063 12.4817 15.3567 12.0661 14.5995 11.7239C14.1403 11.5016 13.8594 11.3532 13.8625 11.1284C13.8625 10.9293 14.1 10.7155 14.6139 10.7155C15.0438 10.7088 15.3544 10.8023 15.5966 10.8997L15.7145 10.9548L15.8923 9.91468ZM9.81853 14.5963L10.6394 9.79642H11.9521L11.1308 14.5963H9.81853ZM18.2446 9.80109H19.2591L20.3216 14.5975H19.1032C19.1032 14.5975 18.983 14.0464 18.9437 13.8785C18.8422 13.8785 18.4181 13.8779 18.0195 13.8774L17.2623 13.8766C17.2113 14.0063 16.986 14.5975 16.986 14.5975H15.6071L17.5568 10.1991C17.6952 9.88632 17.9301 9.80109 18.2446 9.80109ZM17.6399 12.8951C17.7486 12.6186 18.1632 11.5531 18.1632 11.5531C18.1594 11.5593 18.1849 11.4933 18.2197 11.4032L18.2198 11.403L18.2198 11.4029C18.2564 11.3083 18.3032 11.1872 18.3371 11.0951L18.4257 11.5089L18.73 12.8951H17.6399ZM7.43228 13.0732L8.71736 9.80005H10.1079L8.04126 14.5906L6.65207 14.5925L5.47705 10.3943C6.31038 10.8101 7.05607 11.641 7.29518 12.408L7.43228 13.0732Z" fill="#1A1F71"/>
<path fill-rule="evenodd" clip-rule="evenodd" d="M6.23989 9.79688H4.12264L4.10596 9.89662C5.75305 10.2943 6.84293 11.2543 7.29526 12.4081L6.83488 10.202C6.7555 9.89796 6.52483 9.80738 6.23989 9.79688Z" fill="#F9A51A"/>
</g>
</g>
<defs>
<filter id="filter0_d_3323_37335" x="-6" y="-5" width="36" height="36" filterUnits="userSpaceOnUse" color-interpolation-filters="sRGB">
<feFlood flood-opacity="0" result="BackgroundImageFix"/>
<feColorMatrix in="SourceAlpha" type="matrix" values="0 0 0 0 0 0 0 0 0 0 0 0 0 0 0 0 0 0 127 0" result="hardAlpha"/>
<feOffset dy="1"/>
<feGaussianBlur stdDeviation="3"/>
<feComposite in2="hardAlpha" operator="out"/>
<feColorMatrix type="matrix" values="0 0 0 0 0 0 0 0 0 0 0 0 0 0 0 0 0 0 0.08 0"/>
<feBlend mode="normal" in2="BackgroundImageFix" result="effect1_dropShadow_3323_37335"/>
<feBlend mode="normal" in="SourceGraphic" in2="effect1_dropShadow_3323_37335" result="shape"/>
</filter>
<clipPath id="clip0_3323_37335">
<rect width="24" height="24" fill="white"/>
</clipPath>
</defs>
</svg>
