<svg width="24" height="24" viewBox="0 0 24 24" fill="none" xmlns="http://www.w3.org/2000/svg">
<g clip-path="url(#clip0_3396_51459)">
<g filter="url(#filter0_d_3396_51459)">
<path d="M11.625 23.2498C18.0453 23.2498 23.25 18.0451 23.25 11.6249C23.25 5.20465 18.0453 0 11.625 0C5.2047 0 0 5.20465 0 11.6249C0 18.0451 5.2047 23.2498 11.625 23.2498Z" fill="currentColor"/>
<mask id="mask0_3396_51459" style="mask-type:luminance" maskUnits="userSpaceOnUse" x="2" y="10" width="19" height="4">
<path d="M20.625 10.1245H2.625V13.1245H20.625V10.1245Z" fill="currentColor"/>
</mask>
<g mask="url(#mask0_3396_51459)">
<path d="M10.3512 12.8983L9.56231 10.4998C9.55196 10.4657 9.53809 10.4241 9.53809 10.3825C9.53809 10.2804 9.6177 10.1782 9.73533 10.1782C9.83568 10.1782 9.90142 10.2501 9.93255 10.3523L10.5865 12.4216L11.244 10.3485C11.2751 10.2501 11.334 10.1782 11.4343 10.1782H11.455C11.5623 10.1782 11.6246 10.2501 11.6557 10.3485L12.3097 12.4216L12.9741 10.3447C12.9983 10.2577 13.0537 10.1782 13.1609 10.1782C13.2717 10.1782 13.3512 10.2728 13.3512 10.3749C13.3512 10.4128 13.3374 10.4582 13.327 10.4922L12.5346 12.8983C12.4931 13.0231 12.4135 13.0912 12.3236 13.0912H12.3097C12.2094 13.0912 12.1333 13.0269 12.0987 12.8983L11.4516 10.8592L10.7976 12.8983C10.763 13.0231 10.6869 13.0912 10.5865 13.0912H10.5762C10.4724 13.0874 10.3893 13.0231 10.3512 12.8983Z" fill="currentColor"/>
<path d="M16.0952 10.3894C16.0952 10.2722 16.1818 10.1738 16.2856 10.1738C16.3963 10.1738 16.4828 10.2684 16.4828 10.3894V10.8775C16.6731 10.4046 17.0987 10.1814 17.379 10.1814C17.4967 10.1814 17.5693 10.2759 17.5693 10.397C17.5693 10.5143 17.5001 10.5937 17.3963 10.6126C16.8946 10.677 16.4794 11.0931 16.4794 11.9102V12.8749C16.4794 12.9922 16.3997 13.0906 16.289 13.0906C16.1783 13.0906 16.0918 12.996 16.0918 12.8749L16.0952 10.3894Z" fill="currentColor"/>
<path d="M18.8187 13.1177C18.1198 13.1177 17.5488 12.5237 17.5488 11.6536V11.6423C17.5488 10.8327 18.0679 10.1782 18.7703 10.1782C19.5246 10.1782 19.9537 10.8592 19.9537 11.6044C19.9537 11.7179 19.8706 11.8012 19.7772 11.8012H17.9364C17.9917 12.4102 18.3793 12.7545 18.8326 12.7545C19.1475 12.7545 19.3793 12.6183 19.5661 12.4291C19.5973 12.4027 19.6319 12.38 19.6734 12.38C19.7668 12.38 19.8395 12.4632 19.8395 12.5615C19.8395 12.6107 19.8187 12.6599 19.7806 12.6977C19.5384 12.9512 19.2547 13.1177 18.8187 13.1177ZM19.573 11.4909C19.535 10.9802 19.2685 10.5338 18.7599 10.5338C18.317 10.5338 17.9814 10.9424 17.9329 11.4909H19.573Z" fill="currentColor"/>
<path d="M13.3623 12.2399V12.2285C13.3623 11.6308 13.8122 11.313 14.4696 11.313C14.8017 11.313 15.0371 11.3622 15.2689 11.4341V11.3357C15.2689 10.825 14.9817 10.564 14.4972 10.564C14.2377 10.564 14.0855 10.6018 13.8952 10.6926C13.871 10.7039 13.8467 10.7077 13.826 10.7077C13.736 10.7077 13.6564 10.6245 13.6564 10.5261C13.6564 10.4391 13.691 10.3862 13.7637 10.3521C14.0198 10.231 14.2101 10.1895 14.5422 10.1895C14.909 10.1895 15.1893 10.2916 15.3796 10.5034C15.5561 10.6964 15.6461 10.9688 15.6461 11.3319V12.8981C15.6461 13.0192 15.5665 13.1062 15.4592 13.1062C15.3485 13.1062 15.2758 13.0192 15.2758 12.9095V12.6409C15.0959 12.8981 14.7948 13.1289 14.3381 13.1289C13.8502 13.1251 13.3623 12.8225 13.3623 12.2399ZM15.2723 12.0204V11.7481C15.082 11.6875 14.826 11.627 14.5111 11.627C14.0267 11.627 13.7533 11.8578 13.7533 12.2134V12.2247C13.7533 12.5804 14.0544 12.7884 14.4038 12.7884C14.8814 12.7884 15.2723 12.4706 15.2723 12.0204Z" fill="currentColor"/>
<path d="M3.33446 10.3632C3.24794 10.1589 3.04034 10.0681 2.84309 10.1627C2.64588 10.2573 2.57321 10.4956 2.66317 10.6999L3.48671 12.6558C3.61473 12.9622 3.75314 13.1211 4.00919 13.1211C4.28253 13.1211 4.40366 12.9471 4.53168 12.6558C4.53168 12.6558 5.24793 10.9458 5.25832 10.9269C5.26526 10.908 5.28948 10.855 5.36212 10.855C5.42441 10.855 5.47631 10.908 5.47631 10.9799V12.652C5.47631 12.9092 5.60782 13.1211 5.85693 13.1211C6.10953 13.1211 6.24449 12.9092 6.24449 12.652V11.2825C6.24449 11.0177 6.41748 10.8475 6.65279 10.8475C6.88807 10.8475 7.04381 11.0252 7.04381 11.2825V12.652C7.04381 12.9092 7.17528 13.1211 7.42443 13.1211C7.67699 13.1211 7.81196 12.9092 7.81196 12.652V11.2825C7.81196 11.0177 7.98498 10.8475 8.22026 10.8475C8.45557 10.8475 8.61127 11.0252 8.61127 11.2825V12.652C8.61127 12.9092 8.74274 13.1211 8.99189 13.1211C9.24449 13.1211 9.37942 12.9092 9.37942 12.652V11.0933C9.37942 10.5221 8.95728 10.1211 8.45208 10.1211C7.94692 10.1211 7.62858 10.5032 7.62858 10.5032C7.45901 10.2649 7.22718 10.1211 6.83617 10.1211C6.42097 10.1211 6.05763 10.5032 6.05763 10.5032C5.88809 10.2649 5.60088 10.1211 5.36561 10.1211C4.99882 10.1211 4.70816 10.2989 4.52823 10.7415L4.00226 12.0959L3.33446 10.3632Z" fill="currentColor"/>
<path d="M19.9844 10.5372C19.9844 10.3443 20.1262 10.1816 20.3062 10.1816C20.4861 10.1816 20.628 10.3405 20.628 10.5335C20.628 10.7264 20.4861 10.8853 20.3062 10.8853C20.1228 10.8853 19.9844 10.7264 19.9844 10.5372ZM20.5622 10.5335C20.5622 10.3746 20.4515 10.246 20.3027 10.246C20.1574 10.246 20.0432 10.3784 20.0432 10.5335C20.0432 10.6886 20.1539 10.821 20.3027 10.821C20.4515 10.821 20.5622 10.6886 20.5622 10.5335Z" fill="currentColor"/>
<path d="M20.1855 10.3899C20.1855 10.3672 20.1994 10.3521 20.2202 10.3521H20.3274C20.369 10.3521 20.4001 10.3634 20.4174 10.3861C20.4347 10.405 20.4451 10.4315 20.4451 10.4617C20.4451 10.5147 20.4209 10.5488 20.3828 10.5639L20.4312 10.6282C20.4381 10.6358 20.4416 10.6471 20.4416 10.6585C20.4416 10.6774 20.4243 10.6925 20.4105 10.6925C20.3966 10.6925 20.3862 10.6849 20.3759 10.6736L20.3101 10.5828H20.2548V10.6585C20.2548 10.6811 20.2409 10.6963 20.2202 10.6963C20.1994 10.6963 20.1855 10.6811 20.1855 10.6585V10.3899ZM20.324 10.5185C20.3586 10.5185 20.3759 10.4996 20.3759 10.4693C20.3759 10.4391 20.3551 10.4202 20.324 10.4202H20.2548V10.5185H20.324Z" fill="currentColor"/>
</g>
</g>
</g>
<defs>
<filter id="filter0_d_3396_51459" x="-7.36246" y="-6.13539" width="37.9749" height="37.9749" filterUnits="userSpaceOnUse" color-interpolation-filters="sRGB">
<feFlood flood-opacity="0" result="BackgroundImageFix"/>
<feColorMatrix in="SourceAlpha" type="matrix" values="0 0 0 0 0 0 0 0 0 0 0 0 0 0 0 0 0 0 127 0" result="hardAlpha"/>
<feOffset dy="1.22707"/>
<feGaussianBlur stdDeviation="3.68123"/>
<feComposite in2="hardAlpha" operator="out"/>
<feColorMatrix type="matrix" values="0 0 0 0 0 0 0 0 0 0 0 0 0 0 0 0 0 0 0.08 0"/>
<feBlend mode="normal" in2="BackgroundImageFix" result="effect1_dropShadow_3396_51459"/>
<feBlend mode="normal" in="SourceGraphic" in2="effect1_dropShadow_3396_51459" result="shape"/>
</filter>
<clipPath id="clip0_3396_51459">
<rect width="24" height="23.2498" fill="currentColor"/>
</clipPath>
</defs>
</svg>
