<svg width="24" height="24" viewBox="0 0 24 24" fill="none" xmlns="http://www.w3.org/2000/svg">
<g clip-path="url(#clip0_3396_49439)">
<g filter="url(#filter0_d_3396_49439)">
<path d="M0.375 12C0.375 5.57969 5.57969 0.375 12 0.375C18.4203 0.375 23.625 5.57969 23.625 12C23.625 18.4203 18.4203 23.625 12 23.625C5.57969 23.625 0.375 18.4203 0.375 12Z" fill="#ED303B"/>
<path fill-rule="evenodd" clip-rule="evenodd" d="M14.4137 15.471H17.1061V7.91895H14.4137V15.471ZM10.8412 7.91895L9.09899 14.956L7.35545 7.91895H4.66309L6.5336 15.471H11.6637L13.5342 7.91895H10.8412Z" fill="white"/>
<path fill-rule="evenodd" clip-rule="evenodd" d="M17.2252 17.8102C17.2252 18.618 16.5692 19.273 15.7597 19.273C14.9503 19.273 14.2939 18.618 14.2939 17.8102C14.2939 17.0023 14.9503 16.3477 15.7597 16.3477C16.5692 16.3477 17.2252 17.0023 17.2252 17.8102Z" fill="#FFD300"/>
<mask id="mask0_3396_49439" style="mask-type:luminance" maskUnits="userSpaceOnUse" x="4" y="7" width="16" height="13">
<path d="M4.66406 19.2733H19.3344V7.77539H4.66406V19.2733Z" fill="#ED303B"/>
</mask>
<g mask="url(#mask0_3396_49439)">
<text fill="#ED303B" style="white-space: pre" xml:space="preserve" font-family="Inter" font-size="2.875" letter-spacing="0em"><tspan x="17.4766" y="10.0259">T</tspan><tspan x="17.4766" y="13.0259">M</tspan></text>
</g>
</g>
</g>
<defs>
<filter id="filter0_d_3396_49439" x="-5.625" y="-4.625" width="35.25" height="35.25" filterUnits="userSpaceOnUse" color-interpolation-filters="sRGB">
<feFlood flood-opacity="0" result="BackgroundImageFix"/>
<feColorMatrix in="SourceAlpha" type="matrix" values="0 0 0 0 0 0 0 0 0 0 0 0 0 0 0 0 0 0 127 0" result="hardAlpha"/>
<feOffset dy="1"/>
<feGaussianBlur stdDeviation="3"/>
<feComposite in2="hardAlpha" operator="out"/>
<feColorMatrix type="matrix" values="0 0 0 0 0 0 0 0 0 0 0 0 0 0 0 0 0 0 0.08 0"/>
<feBlend mode="normal" in2="BackgroundImageFix" result="effect1_dropShadow_3396_49439"/>
<feBlend mode="normal" in="SourceGraphic" in2="effect1_dropShadow_3396_49439" result="shape"/>
</filter>
<clipPath id="clip0_3396_49439">
<rect width="24" height="24" fill="white"/>
</clipPath>
</defs>
</svg>
