<svg width="24" height="24" viewBox="0 0 24 24" fill="none" xmlns="http://www.w3.org/2000/svg">
<g clip-path="url(#clip0_4021_2132)">
<path d="M13.6233 10.1553C13.6976 10.1989 13.6976 10.2708 13.6251 10.3125C13.5527 10.3561 13.4301 10.3561 13.3576 10.3125C13.2852 10.2708 13.2852 10.1989 13.3576 10.1553C13.4301 10.1136 13.5508 10.1136 13.6233 10.1553Z" fill="currentColor"/>
<path d="M12.5963 10.877L12.5721 19.6307C12.5721 19.6592 12.5535 19.6876 12.5182 19.7103C12.4458 19.7539 12.325 19.752 12.2526 19.7103C12.2154 19.6895 12.1968 19.6611 12.1968 19.6307L12.221 10.877C12.221 10.9054 12.2396 10.9338 12.2767 10.9565C12.351 11.0001 12.4699 11.0001 12.5424 10.9565C12.5795 10.9357 12.5963 10.9073 12.5963 10.8788V10.877Z" fill="currentColor" stroke="currentColor" stroke-width="0.0864"/>
<path d="M12.5402 10.7974C12.6146 10.841 12.6146 10.9129 12.5402 10.9565C12.4678 11.0001 12.347 10.9982 12.2746 10.9565C12.2021 10.9148 12.2003 10.8428 12.2746 10.7993C12.347 10.7557 12.4696 10.7557 12.5402 10.7993V10.7974Z" fill="currentColor" stroke="currentColor" stroke-width="0.0864"/>
<path d="M11.5016 9.70117L11.4774 18.455V18.4569L11.5016 9.70307V9.70117Z" fill="currentColor" stroke="currentColor" stroke-width="0.0864"/>
<path d="M11.5014 9.70404L11.4773 18.4578C11.4773 18.5185 11.3937 18.5658 11.2897 18.5658C11.2395 18.5658 11.193 18.5525 11.1577 18.5336C11.1243 18.5128 11.102 18.4862 11.1002 18.4559L11.1243 9.70215C11.1243 9.73246 11.1466 9.76087 11.1819 9.77982C11.2153 9.80065 11.2636 9.81202 11.3138 9.81202C11.4178 9.81202 11.5014 9.76277 11.5014 9.70404Z" fill="currentColor" stroke="currentColor" stroke-width="0.0864"/>
<path d="M11.446 9.62302C11.4794 9.64386 11.5017 9.67038 11.4999 9.70069C11.5017 9.76131 11.4163 9.81246 11.3122 9.81246C11.2621 9.81246 11.2156 9.7992 11.1803 9.78026C11.1469 9.75942 11.1246 9.7329 11.1227 9.70259C11.1227 9.64197 11.2082 9.59082 11.3104 9.59082C11.3624 9.59082 11.4107 9.60408 11.4441 9.62302H11.446Z" fill="currentColor" stroke="currentColor" stroke-width="0.0864"/>
<path d="M11.1077 19.366L11.1319 10.6122C11.1319 10.6426 11.1523 10.6691 11.1858 10.6899C11.2192 10.7108 11.2675 10.7221 11.3195 10.7221C11.4217 10.7221 11.5053 10.671 11.5071 10.6104L11.483 19.3641C11.483 19.4248 11.3994 19.474 11.2954 19.4759C11.2433 19.4759 11.195 19.4626 11.1616 19.4437C11.1282 19.4229 11.1077 19.3963 11.1077 19.366Z" fill="currentColor" stroke="currentColor" stroke-width="0.0864"/>
<path d="M11.4514 10.5303C11.4849 10.5511 11.5072 10.5777 11.5072 10.6099C11.5072 10.6705 11.4236 10.7197 11.3195 10.7216C11.2675 10.7216 11.2192 10.7084 11.1858 10.6894C11.1523 10.6705 11.13 10.6421 11.1319 10.6118C11.1319 10.5493 11.2155 10.5 11.3195 10.5C11.3715 10.5 11.418 10.5114 11.4514 10.5322V10.5303Z" fill="currentColor" stroke="currentColor" stroke-width="0.0864"/>
<path d="M9.33204 10.2344L9.30789 18.9882C9.30789 19.0166 9.28931 19.045 9.25401 19.0677C9.18156 19.1113 9.0608 19.1094 8.98835 19.0677C8.95119 19.045 8.93262 19.0166 8.93262 18.9882L8.95677 10.2344C8.95677 10.2628 8.97535 10.2912 9.0125 10.3139C9.08681 10.3575 9.20571 10.3575 9.27816 10.3139C9.31532 10.2931 9.33204 10.2647 9.33204 10.2363V10.2344Z" fill="currentColor" stroke="currentColor" stroke-width="0.0864"/>
<path d="M9.27659 10.1548C9.3509 10.1984 9.3509 10.2704 9.27659 10.3139C9.20414 10.3575 9.08339 10.3556 9.01093 10.3139C8.93662 10.2704 8.93662 10.2003 9.01093 10.1567C9.08339 10.1131 9.20414 10.1131 9.27659 10.1567V10.1548Z" fill="currentColor" stroke="currentColor" stroke-width="0.0864"/>
<path d="M10.4226 10.877L10.3984 19.6307C10.3984 19.6592 10.3798 19.6876 10.3445 19.7103C10.2721 19.7539 10.1513 19.752 10.0789 19.7103C10.0417 19.6876 10.0231 19.6592 10.0231 19.6307L10.0473 10.877C10.0473 10.9054 10.0659 10.9338 10.103 10.9565C10.1773 11.0001 10.2962 11.0001 10.3687 10.9565C10.4058 10.9357 10.4226 10.9073 10.4226 10.8788V10.877Z" fill="currentColor" stroke="currentColor" stroke-width="0.0864"/>
<path d="M10.3669 10.7974C10.4412 10.841 10.4412 10.9129 10.3669 10.9565C10.2944 11.0001 10.1737 10.9982 10.1012 10.9565C10.0269 10.9129 10.0269 10.8428 10.1012 10.7993C10.1737 10.7557 10.2944 10.7557 10.3669 10.7993V10.7974Z" fill="currentColor" stroke="currentColor" stroke-width="0.0864"/>
<path d="M8.43589 11.5166L8.41174 20.2704L8.43589 11.5166Z" fill="currentColor" stroke="currentColor" stroke-width="0.0864"/>
<path d="M8.38249 11.4394C8.41593 11.4602 8.43822 11.4867 8.43636 11.517C8.43636 11.5796 8.35276 11.6288 8.24873 11.6288C8.19671 11.6288 8.15027 11.6174 8.11683 11.5966C8.08339 11.5758 8.0611 11.5492 8.0611 11.517C8.0611 11.4564 8.1447 11.4072 8.24873 11.4053C8.30075 11.4053 8.34905 11.4185 8.38249 11.4375V11.4394Z" fill="currentColor" stroke="currentColor" stroke-width="0.0864"/>
<path d="M8.43647 11.5166L8.41232 20.2704C8.41232 20.3329 8.32872 20.3822 8.22468 20.3822C8.17266 20.3822 8.12622 20.3708 8.09278 20.35C8.05934 20.3291 8.03705 20.3026 8.03705 20.2704L8.0612 11.5166C8.0612 11.5469 8.08349 11.5753 8.11693 11.5962C8.15037 11.617 8.19867 11.6284 8.24883 11.6284C8.35287 11.6284 8.43647 11.5791 8.43647 11.5166Z" fill="currentColor" stroke="currentColor" stroke-width="0.0864"/>
<path d="M9.9189 11.4404C9.95234 11.4612 9.97463 11.4878 9.97463 11.52C9.97463 11.5806 9.89103 11.6298 9.787 11.6317C9.73498 11.6317 9.68854 11.6185 9.6551 11.5976C9.62166 11.5768 9.59937 11.5503 9.59937 11.52C9.59937 11.4575 9.68296 11.4082 9.787 11.4082C9.83902 11.4082 9.88546 11.4196 9.9189 11.4404Z" fill="currentColor" stroke="currentColor" stroke-width="0.0864"/>
<path d="M9.97582 11.5195L9.95167 20.2733C9.95167 20.3339 9.86807 20.3832 9.76404 20.3851L9.78819 11.6313C9.89037 11.6313 9.97582 11.5802 9.97582 11.5195Z" fill="currentColor" stroke="currentColor" stroke-width="0.0864"/>
<path d="M9.78722 11.6293L9.76307 20.3831C9.71106 20.3831 9.66461 20.3699 9.63117 20.349C9.59773 20.3282 9.57544 20.3017 9.57544 20.2714L9.59959 11.5176C9.59959 11.5479 9.62188 11.5744 9.65532 11.5952C9.68876 11.6161 9.73706 11.6275 9.78722 11.6293Z" fill="currentColor" stroke="currentColor" stroke-width="0.0864"/>
<path d="M9.34498 12.8037L9.32082 21.5574C9.32082 21.5859 9.30225 21.6124 9.26695 21.6351C9.1945 21.6787 9.07374 21.6768 9.00129 21.6351C8.96413 21.6143 8.94556 21.5859 8.94556 21.5555L8.96971 12.8018C8.96971 12.8302 8.98829 12.8586 9.02544 12.8813C9.09975 12.9249 9.21865 12.9249 9.2911 12.8813C9.3264 12.8605 9.34498 12.8321 9.34498 12.8037Z" fill="currentColor" stroke="currentColor" stroke-width="0.0864"/>
<path d="M9.28845 12.7244C9.36276 12.7679 9.36461 12.838 9.2903 12.8816C9.21785 12.9252 9.0971 12.9233 9.02464 12.8816C8.95219 12.8399 8.95033 12.7679 9.02464 12.7244C9.0971 12.6808 9.21785 12.6827 9.2903 12.7244H9.28845Z" fill="currentColor" stroke="currentColor" stroke-width="0.0864"/>
<path d="M10.4279 12.1611L10.4037 20.9149C10.4037 20.9433 10.3851 20.9698 10.3498 20.9925C10.2774 21.0361 10.1566 21.0342 10.0842 20.9925C10.047 20.9717 10.0284 20.9433 10.0284 20.913L10.0526 12.1592C10.0526 12.1876 10.0712 12.216 10.1083 12.2387C10.1826 12.2823 10.3015 12.2823 10.374 12.2387C10.4093 12.2179 10.4279 12.1895 10.4279 12.1611Z" fill="currentColor" stroke="currentColor" stroke-width="0.0864"/>
<path d="M10.3711 12.0818C10.4454 12.1253 10.4473 12.1954 10.3729 12.239C10.3005 12.2826 10.1797 12.2807 10.1073 12.239C10.0348 12.1973 10.033 12.1253 10.1073 12.0818C10.1797 12.0382 10.3005 12.0401 10.3729 12.0818H10.3711Z" fill="currentColor" stroke="currentColor" stroke-width="0.0864"/>
<path d="M11.5125 11.5186L11.4884 20.2723C11.4884 20.3008 11.4698 20.3292 11.4345 20.3519C11.362 20.3955 11.2413 20.3936 11.1688 20.3519C11.1317 20.3311 11.1131 20.3027 11.1131 20.2723L11.1372 11.5186C11.1372 11.547 11.1558 11.5754 11.193 11.5981C11.2673 11.6417 11.3862 11.6417 11.4586 11.5981C11.4958 11.5773 11.5125 11.5489 11.5125 11.5186Z" fill="currentColor" stroke="currentColor" stroke-width="0.0864"/>
<path d="M11.4565 11.439C11.5308 11.4826 11.5308 11.5545 11.4565 11.5981C11.384 11.6417 11.2633 11.6398 11.1908 11.5981C11.1184 11.5564 11.1165 11.4845 11.1908 11.4409C11.2633 11.3973 11.3859 11.3973 11.4565 11.4409V11.439Z" fill="currentColor" stroke="currentColor" stroke-width="0.0864"/>
<path d="M11.5169 12.4277L11.4928 21.1815C11.4928 21.2421 11.4092 21.2894 11.3051 21.2894C11.2531 21.2894 11.2067 21.2762 11.1732 21.2572C11.1398 21.2364 11.1175 21.2099 11.1175 21.1796L11.1416 12.4258C11.1416 12.4561 11.1639 12.4845 11.1974 12.5034C11.2308 12.5224 11.2773 12.5357 11.3293 12.5357C11.4333 12.5357 11.5169 12.4864 11.5169 12.4277Z" fill="currentColor" stroke="currentColor" stroke-width="0.0864"/>
<path d="M11.4608 12.3467C11.4942 12.3676 11.5165 12.3941 11.5165 12.4263C11.5184 12.4869 11.4329 12.538 11.3289 12.538C11.2769 12.538 11.2304 12.5248 11.197 12.5058C11.1635 12.4869 11.1412 12.4585 11.1412 12.4282C11.1412 12.3657 11.2248 12.3164 11.3289 12.3164C11.3809 12.3164 11.4273 12.3297 11.4626 12.3486L11.4608 12.3467Z" fill="currentColor" stroke="currentColor" stroke-width="0.0864"/>
<path d="M11.1229 22.0906L11.147 13.3369C11.147 13.3672 11.1675 13.3937 11.2009 13.4145C11.2343 13.4354 11.2826 13.4467 11.3346 13.4467C11.4368 13.4467 11.5204 13.3975 11.5223 13.335L11.4981 22.0887C11.4981 22.1494 11.4145 22.1986 11.3105 22.2005C11.2585 22.2005 11.2102 22.1873 11.1767 22.1683C11.1433 22.1494 11.1229 22.121 11.1229 22.0906Z" fill="currentColor" stroke="currentColor" stroke-width="0.0864"/>
<path d="M11.4676 13.2569C11.501 13.2777 11.5233 13.3042 11.5233 13.3364C11.5233 13.3971 11.4397 13.4463 11.3357 13.4482C11.2837 13.4482 11.2354 13.4349 11.2019 13.416C11.1685 13.3952 11.1462 13.3686 11.1481 13.3383C11.1481 13.2758 11.2317 13.2266 11.3357 13.2266C11.3877 13.2266 11.4342 13.2379 11.4676 13.2588V13.2569Z" fill="currentColor" stroke="currentColor" stroke-width="0.0864"/>
<path d="M13.6939 12.8018L13.6698 21.5555C13.6698 21.584 13.6512 21.6124 13.6141 21.6351C13.5416 21.6787 13.4227 21.6787 13.3484 21.6351C13.3112 21.6124 13.2927 21.584 13.2927 21.5555L13.3168 12.8018C13.3168 12.8302 13.3354 12.8605 13.3725 12.8813C13.4469 12.9249 13.5639 12.9249 13.6382 12.8813C13.6754 12.8586 13.6939 12.8302 13.6939 12.8018Z" fill="currentColor" stroke="currentColor" stroke-width="0.0864"/>
<path d="M13.6402 12.7241C13.7145 12.7677 13.7127 12.8377 13.6402 12.8813C13.5677 12.9249 13.4489 12.9249 13.3745 12.8813C13.3002 12.8377 13.2984 12.7677 13.3727 12.7241C13.4451 12.6805 13.5677 12.6805 13.6402 12.7241Z" fill="currentColor" stroke="currentColor" stroke-width="0.0864"/>
<path d="M12.9953 11.4404C13.0287 11.4612 13.051 11.4878 13.051 11.52C13.051 11.5825 12.9674 11.6317 12.8634 11.6317C12.8114 11.6317 12.7649 11.6185 12.7296 11.5995C12.6962 11.5787 12.6739 11.5522 12.6739 11.52C12.6739 11.4575 12.7575 11.4082 12.8615 11.4082C12.9135 11.4082 12.96 11.4196 12.9953 11.4404Z" fill="currentColor" stroke="currentColor" stroke-width="0.0864"/>
<path d="M13.0497 11.5176L13.0255 20.2714C13.0255 20.3339 12.9419 20.3831 12.8379 20.3831C12.7859 20.3831 12.7394 20.3718 12.7041 20.3509C12.6688 20.3301 12.6484 20.3036 12.6484 20.2714L12.6725 11.5176C12.6725 11.5479 12.693 11.5763 12.7283 11.5971C12.7617 11.618 12.81 11.6293 12.862 11.6293C12.9661 11.6293 13.0497 11.5801 13.0497 11.5176Z" fill="currentColor" stroke="currentColor" stroke-width="0.0864"/>
<path d="M12.6034 12.1592L12.5793 20.913C12.5793 20.9414 12.5607 20.9698 12.5235 20.9925C12.4511 21.0361 12.3322 21.0361 12.2579 20.9925C12.2207 20.9698 12.2021 20.9414 12.2021 20.913L12.2263 12.1592C12.2263 12.1876 12.2449 12.2179 12.282 12.2387C12.3563 12.2823 12.4734 12.2823 12.5477 12.2387C12.5848 12.216 12.6034 12.1876 12.6034 12.1592Z" fill="currentColor" stroke="currentColor" stroke-width="0.0864"/>
<path d="M12.55 12.0815C12.6243 12.1251 12.6224 12.1952 12.55 12.2387C12.4775 12.2823 12.3586 12.2823 12.2843 12.2387C12.21 12.1952 12.2082 12.1251 12.2825 12.0815C12.3549 12.0379 12.4775 12.0379 12.55 12.0815Z" fill="currentColor" stroke="currentColor" stroke-width="0.0864"/>
<path d="M14.5316 11.4404C14.565 11.4612 14.5873 11.4878 14.5873 11.52C14.5873 11.5806 14.5037 11.6298 14.3997 11.6317C14.3477 11.6317 14.3012 11.6185 14.2678 11.5976C14.2343 11.5768 14.212 11.5503 14.212 11.52C14.212 11.4575 14.2956 11.4082 14.3997 11.4082C14.4517 11.4082 14.4981 11.4196 14.5316 11.4404Z" fill="currentColor" stroke="currentColor" stroke-width="0.0864"/>
<path d="M14.5885 11.5195L14.5643 20.2733C14.5643 20.3339 14.4807 20.3832 14.3767 20.3851L14.4009 11.6313C14.503 11.6313 14.5885 11.5802 14.5885 11.5195Z" fill="currentColor" stroke="currentColor" stroke-width="0.0864"/>
<path d="M14.4 11.6293L14.3759 20.3831C14.3238 20.3831 14.2774 20.3699 14.244 20.349C14.2105 20.3282 14.1882 20.3017 14.1882 20.2714L14.2124 11.5176C14.2124 11.5479 14.2347 11.5744 14.2681 11.5952C14.3016 11.6161 14.3499 11.6275 14.4 11.6293Z" fill="currentColor" stroke="currentColor" stroke-width="0.0864"/>
<path d="M14.7165 2.18228L15.2664 1.85645C15.4169 1.76742 15.6231 1.78068 15.8534 1.91518L15.3035 2.241C15.075 2.1065 14.867 2.09324 14.7165 2.18228Z" fill="currentColor" stroke="currentColor" stroke-width="0.0864"/>
<path d="M16.4343 3.906L15.8844 4.23183C16.0331 4.14469 16.1241 3.95715 16.1259 3.69194C16.1259 3.15773 15.76 2.50797 15.3048 2.24087L15.8547 1.91504C16.3099 2.18214 16.6777 2.8319 16.6758 3.36611C16.6758 3.63132 16.5829 3.81886 16.4343 3.906Z" fill="currentColor" stroke="currentColor" stroke-width="0.0864"/>
<path d="M15.3027 2.24083C15.7579 2.50793 16.1257 3.15959 16.1239 3.6919C16.1239 4.22611 15.7523 4.44207 15.2972 4.17307C14.842 3.90407 14.4742 3.25431 14.476 2.7201C14.476 2.1859 14.8476 1.97183 15.3027 2.23894V2.24083Z" fill="currentColor" stroke="currentColor" stroke-width="0.0864"/>
<path d="M15.3024 11.1016V12.5697C15.3024 13.1702 14.916 13.7707 14.1357 14.2329C12.5752 15.1498 10.0505 15.1498 8.49558 14.2329C7.71532 13.7707 7.32334 13.1702 7.32705 12.5697V11.1016H15.3006H15.3024Z" fill="currentColor" stroke="currentColor" stroke-width="0.0864"/>
<path d="M11.313 13.4079C13.5158 13.4079 15.3016 12.3563 15.3016 11.059C15.3016 9.76164 13.5158 8.70996 11.313 8.70996C9.1101 8.70996 7.32434 9.76164 7.32434 11.059C7.32434 12.3563 9.1101 13.4079 11.313 13.4079Z" fill="currentColor" stroke="currentColor" stroke-width="0.0864"/>
<path d="M12.8918 9.75098V10.9141C12.8918 11.1528 12.7376 11.3896 12.4292 11.5733C11.8106 11.9371 10.8111 11.9371 10.1943 11.5733C9.88596 11.3896 9.72991 11.1528 9.73177 10.9141V9.75098H12.89H12.8918Z" fill="currentColor" stroke="currentColor" stroke-width="0.0864"/>
<path d="M12.4292 10.3941C11.8124 10.7578 10.811 10.7578 10.1943 10.3941C9.5775 10.0304 9.5775 9.44125 10.1943 9.07943C10.811 8.71571 11.8124 8.71571 12.4292 9.07943C13.0459 9.44314 13.0459 10.0323 12.4292 10.3941Z" fill="currentColor" stroke="currentColor" stroke-width="0.0864"/>
<path d="M12.4285 8.85059V9.67273C12.4285 9.84133 12.3208 10.0099 12.1016 10.1387C11.665 10.3964 10.9572 10.3964 10.5225 10.1387C10.3033 10.0099 10.1937 9.84133 10.1955 9.67273V8.85059H12.4285Z" fill="currentColor" stroke="currentColor" stroke-width="0.0864"/>
<path d="M12.102 9.30304C11.6654 9.56067 10.9576 9.56067 10.5229 9.30304C10.0864 9.04541 10.0864 8.63054 10.5229 8.37291C10.9595 8.11528 11.6673 8.11528 12.102 8.37291C12.5386 8.63054 12.5386 9.04541 12.102 9.30304Z" fill="currentColor" stroke="currentColor" stroke-width="0.0864"/>
<path d="M15.3176 3.79426L12.4269 5.49728C12.1093 5.68293 11.8213 6.1944 11.8213 6.56948V8.61538C11.8213 8.90332 11.591 9.14011 11.3067 9.14011C11.0225 9.14011 10.7921 8.90521 10.7921 8.61538V6.56948C10.7921 5.81742 11.2733 4.96686 11.9123 4.58989L14.803 2.88687C15.0501 2.74289 15.3622 2.83003 15.5034 3.08009C15.5183 3.10661 15.5313 3.13503 15.5424 3.16344C15.6279 3.39645 15.5368 3.66544 15.3158 3.79426H15.3176Z" fill="currentColor" stroke="currentColor" stroke-width="0.0864"/>
<path d="M15.5443 3.1635C15.5053 3.27527 15.4291 3.37567 15.3176 3.44197L12.4269 5.14499C12.1093 5.33064 11.8213 5.84211 11.8213 6.21719V8.26309C11.8213 8.55103 11.591 8.78782 11.3067 8.78782C11.0225 8.78782 10.7921 8.55292 10.7921 8.26309V6.57143C10.7921 5.81938 11.2733 4.96881 11.9123 4.59184L14.803 2.88882C15.0501 2.74485 15.3622 2.83199 15.5034 3.08204C15.5183 3.10856 15.5313 3.13698 15.5424 3.16539L15.5443 3.1635Z" fill="currentColor" stroke="currentColor" stroke-width="0.0864"/>
</g>
<defs>
<clipPath id="clip0_4021_2132">
<rect width="24" height="24" fill="currentColor"/>
</clipPath>
</defs>
</svg>
