<svg width="16" height="16" viewBox="0 0 16 16" fill="none" xmlns="http://www.w3.org/2000/svg">
<g clip-path="url(#clip0_3396_52604)">
<path d="M15.5 7.75C15.5 3.46979 12.0302 0 7.75 0C3.46979 0 0 3.46979 0 7.75C0 12.0302 3.46979 15.5 7.75 15.5C12.0302 15.5 15.5 12.0302 15.5 7.75Z" fill="currentColor"/>
<path d="M6.29055 5.54834V6.13378H6.42878C6.6032 6.13378 6.68233 6.05161 6.68233 5.82167V5.78566H6.88535V6.69432H6.68233V6.65553C6.68233 6.42743 6.6032 6.34063 6.42878 6.34063H6.29055V6.99536H6.8701C7.13415 6.99536 7.22948 6.82636 7.26093 6.50317H7.4716V7.20406H5.568V6.99536H5.7291C5.82918 6.99536 5.88258 6.96858 5.88258 6.79958V5.70717C5.88258 5.58528 5.82538 5.54834 5.69098 5.54834H5.63188C5.49365 5.54834 5.42788 5.57973 5.37928 5.71916L4.85405 7.20406H4.45465L4.15055 6.2363H4.14485L3.8074 7.20406H3.40323L2.858 5.64807C2.83415 5.57142 2.79318 5.54834 2.6826 5.54834H2.64258V5.34057H3.4833V5.54834H3.3613C3.29743 5.54834 3.2717 5.58528 3.2717 5.62221C3.2717 5.64992 3.28218 5.68501 3.29743 5.72378L3.66158 6.76357H3.66728L4.01425 5.78566L3.96563 5.65268C3.93608 5.56958 3.87795 5.54834 3.7931 5.54834H3.72448V5.34057H4.59285V5.54834H4.43938C4.38028 5.54834 4.3574 5.57326 4.3574 5.6102C4.3574 5.63882 4.3717 5.67854 4.38125 5.70533L4.69963 6.74511H4.70533L5.07518 5.72933C5.08663 5.69608 5.0971 5.66837 5.0971 5.63328C5.0971 5.58896 5.07518 5.54834 4.97318 5.54834H4.83305V5.34057H7.47158V5.97774H7.2552C7.21135 5.70809 7.18658 5.54834 6.80053 5.54834H6.29055ZM9.4524 7.20406V6.50317H9.2303C9.20075 6.8236 9.14068 6.99536 8.83948 6.99536H8.40195V5.67762C8.40195 5.57418 8.44578 5.54834 8.57353 5.54834H8.73653V5.34057H7.67368V5.54834H7.84145C7.95773 5.54834 7.99683 5.58528 7.99683 5.67023V6.87069C7.99683 6.96858 7.94153 6.99536 7.85955 6.99536H7.67368V7.20406H9.4524ZM11.4265 7.20406V6.50317H11.2035C11.1739 6.8236 11.112 6.99536 10.8146 6.99536H10.3761V5.67762C10.3761 5.57418 10.4199 5.54834 10.5477 5.54834H10.7097V5.34057H9.6459V5.54834H9.81463C9.93188 5.54834 9.97095 5.58528 9.97095 5.67023V6.87069C9.97095 6.96858 9.9147 6.99536 9.83368 6.99536H9.6459V7.20406H11.4265ZM12.8907 5.48092C12.8726 5.46338 12.6953 5.28516 12.3493 5.28516C11.9861 5.28516 11.6191 5.46338 11.6191 5.84567C11.6191 6.19195 11.9041 6.34989 12.232 6.41821C12.3407 6.44037 12.4055 6.45238 12.5046 6.4727C12.7506 6.52349 12.9145 6.59551 12.9145 6.7608C12.9145 6.88638 12.7773 7.0212 12.5056 7.0212C12.1262 7.0212 11.9012 6.81622 11.8545 6.50317H11.6315V7.20406H11.8288L11.8927 7.0369C11.9394 7.07662 12.1243 7.25947 12.476 7.25947C12.924 7.25947 13.2624 7.06647 13.2624 6.68507C13.2624 6.31571 12.9469 6.15689 12.5618 6.08207C12.4932 6.06546 12.4303 6.05529 12.3597 6.03959C12.1205 5.98973 11.967 5.93247 11.967 5.76626C11.967 5.62221 12.1243 5.5234 12.3607 5.5234C12.7162 5.5234 12.8535 5.74226 12.9269 5.97774H13.1433V5.34057H12.987L12.8907 5.48092ZM4.0619 10.1092V9.89955H3.91703C3.78263 9.89955 3.73305 9.86078 3.73305 9.7555V9.24761H3.8522C4.03235 9.24761 4.11053 9.32334 4.11053 9.52094V9.58282H4.3126V8.72495H4.11053V8.76188C4.11053 8.90688 4.0562 9.03984 3.86935 9.03984H3.73305V8.45253H4.11148C4.53758 8.45253 4.58238 8.66031 4.61098 8.88101H4.81878V8.24476H2.9981V8.45253H3.19065C3.2774 8.45253 3.32603 8.49039 3.32603 8.55781V9.76197C3.32603 9.84046 3.28218 9.89955 3.17923 9.89955H2.9981V10.1092H4.0619ZM12.1176 8.18843C11.4866 8.18843 11.0691 8.61598 11.0691 9.1765C11.0691 9.7361 11.4866 10.1674 12.1176 10.1674C12.7467 10.1674 13.1652 9.7361 13.1652 9.1765C13.1652 8.61598 12.7467 8.18843 12.1176 8.18843ZM12.1176 8.40821C12.5733 8.40821 12.7096 8.77481 12.7096 9.1765C12.7096 9.5782 12.5733 9.94574 12.1176 9.94574C11.6591 9.94574 11.5238 9.5782 11.5238 9.1765C11.5238 8.77481 11.6591 8.40821 12.1176 8.40821ZM10.3427 8.39712C10.3008 8.36111 10.1206 8.18843 9.76505 8.18843C9.19598 8.18843 8.83853 8.6086 8.83853 9.1765C8.83853 9.74903 9.2017 10.1674 9.76505 10.1674C10.1273 10.1674 10.3237 10.0067 10.3685 9.96698L10.4762 10.1092H10.6735V9.46277C10.6735 9.35289 10.7154 9.32334 10.8279 9.32334H10.8813V9.11465H9.99288V9.32334H10.1244C10.2197 9.32334 10.2779 9.3649 10.2779 9.45538V9.56437C10.2779 9.77766 10.1425 9.92634 9.84798 9.92634C9.47908 9.92634 9.29415 9.60498 9.29415 9.1765C9.29415 8.75449 9.47908 8.43129 9.83655 8.43129C10.2093 8.43129 10.336 8.76742 10.3789 8.88101H10.6172V8.24476H10.4142L10.3427 8.39712ZM8.74225 9.67146V9.72227C8.74225 10.0436 8.584 10.1674 8.3438 10.1674C8.0626 10.1674 7.96823 10.0362 7.96823 9.78229V9.68532C7.96823 9.3649 7.82715 9.23562 7.50495 9.23562H7.35245V9.7989C7.35245 9.87371 7.3877 9.89955 7.4716 9.89955H7.6832V10.1092H5.7615V9.89955H5.97503C6.03413 9.89955 6.05605 9.8857 6.05605 9.85247C6.05605 9.83491 6.05035 9.80629 6.0389 9.77582C6.0284 9.7509 5.93785 9.5108 5.93785 9.5108H5.25153C5.25153 9.5108 5.1667 9.73242 5.1524 9.76936C5.14285 9.79706 5.13525 9.82014 5.13525 9.84693C5.13525 9.88665 5.16955 9.89955 5.22675 9.89955H5.43075V10.1092H4.52518V9.89955C4.67865 9.89955 4.77588 9.87831 4.83023 9.74811L5.4441 8.24476H5.813L6.44213 9.74811C6.49455 9.88018 6.59368 9.89955 6.74715 9.89955H6.82533C6.90825 9.89955 6.94543 9.87371 6.94543 9.7989V8.55411C6.94543 8.47932 6.91588 8.45253 6.82533 8.45253H6.62323V8.24476H7.8872C8.30663 8.24476 8.50395 8.43684 8.50395 8.72773C8.50395 9.08878 8.13313 9.15989 7.95965 9.16912V9.17374C8.16268 9.18852 8.33428 9.26977 8.33428 9.55696V9.66594C8.33428 9.85707 8.3762 9.89955 8.4458 9.89955C8.51443 9.89955 8.55065 9.84693 8.55065 9.72227V9.67146H8.74225ZM5.85873 9.30394L5.59945 8.62521H5.5909L5.33163 9.30394H5.85873ZM8.09978 8.73972C8.09978 8.57629 7.9787 8.45253 7.7099 8.45253H7.35245V9.02785H7.7099C7.95773 9.02785 8.09978 8.91981 8.09978 8.73972Z" fill="currentColor"/>
</g>
<defs>
<clipPath id="clip0_3396_52604">
<rect width="16" height="15.5" fill="currentColor"/>
</clipPath>
</defs>
</svg>
