<svg width="212" height="40" viewBox="0 0 212 40" fill="none" xmlns="http://www.w3.org/2000/svg">
<path d="M0 0C1.12867 0.476522 1.86957 3.3913 1.86957 3.3913L8.86957 27.7391C9.67651 30.7861 12.2296 32.3913 15.087 32.3913H30.4348C29.3357 32.1948 28.1304 28.9565 28.1304 28.9565L20.3478 4.73913C19.2278 1.04 17.3391 0 14.4783 0H0ZM64.9565 0C62.0887 0 60.2331 1.04 59.1304 4.73913L51.3044 28.9565C51.3044 28.9565 50.1113 32.1948 49 32.3913H64.3478C67.2191 32.3913 69.7478 30.7861 70.5652 27.7391L77.5652 3.3913C77.5652 3.3913 78.3287 0.476522 79.4783 0H64.9565ZM31.2174 0.173913V32.3913H48.3044V0.173913H31.2174Z" fill="currentColor"/>
<path d="M132.13 7.26074L125.391 7.91292V11.4781H122.652V15.0434H125.391V26.0434C125.391 27.7738 125.718 29.0712 126.304 29.9564C126.925 30.8677 127.8 31.5686 129 32.0868C130.198 32.626 131.9 32.8694 134.087 32.8694C135.013 32.8694 136.266 32.706 137.869 32.3042V28.826C137.08 28.9807 136.401 29.0868 135.826 29.0868C134.612 29.0868 133.671 28.8347 133.043 28.3042C132.419 27.7825 132.13 26.7651 132.13 25.2607V15.0434H137.434V11.4781H132.13V7.26074ZM88.8691 10.9999C86.2865 10.9999 84.1039 11.4781 82.3474 12.4347C80.5804 13.386 79.2726 14.6868 78.3474 16.3477C77.4222 18.0103 76.9561 19.8399 76.9561 21.7825C76.9561 23.8903 77.4865 25.8729 78.5648 27.6521C79.6483 29.4468 81.2291 30.7494 83.2604 31.6086C85.2761 32.4625 87.6239 32.8694 90.3039 32.8694C93.1508 32.8694 96.13 32.4938 99.3039 31.6955V27.7825C96.5039 28.6155 93.9717 29.0434 91.7387 29.0434C89.9961 29.0434 88.643 28.7807 87.6082 28.3042C86.5769 27.8277 85.7334 27.1999 85.13 26.3912C84.5248 25.5825 84.1595 24.459 83.9995 23.0434H99.3908C99.3318 18.4138 98.3787 15.2712 96.4778 13.5651C94.5926 11.866 92.0448 10.9999 88.8691 10.9999ZM112.347 10.9999C108.88 10.9999 106.3 11.5877 104.608 12.7825C102.914 13.9512 102.087 15.459 102.086 17.2607C102.086 18.7773 102.605 19.9755 103.739 20.9129C104.848 21.8781 106.61 22.7755 108.956 23.5651L111.217 24.3042C112.368 24.6747 113.203 25.0921 113.782 25.4781C114.335 25.8938 114.608 26.3964 114.608 26.9999C114.608 27.6799 114.226 28.2016 113.478 28.6521C112.735 29.0973 111.716 29.3477 110.478 29.3477C108.121 29.3477 105.293 28.7547 101.956 27.6086V31.739C105.02 32.4973 108.026 32.8694 110.956 32.8694C114.396 32.8694 117.013 32.1981 118.826 30.8694C120.626 29.546 121.521 28.0242 121.521 26.2607C121.521 24.9199 121.024 23.7564 120.043 22.7825C119.041 21.8173 116.954 20.826 113.739 19.7825L111.782 19.1303C110.615 18.7686 109.815 18.419 109.391 18.0434C108.935 17.6538 108.695 17.1842 108.695 16.6955C108.695 16.059 109.038 15.5651 109.739 15.1738C110.427 14.7755 111.478 14.5651 112.869 14.5651C114.657 14.5651 116.902 14.9268 119.608 15.652V11.739C116.801 11.2399 114.382 10.9999 112.347 10.9999ZM155.869 10.9999C154.034 10.9999 152.422 11.386 151.087 12.1303C149.749 12.892 148.674 13.9773 147.826 15.4781V11.4781H141.087V39.9999H147.826V30.2173C148.732 30.9825 149.537 31.5512 150.217 31.8694C150.911 32.2016 151.589 32.4747 152.347 32.6521C153.09 32.8242 153.944 32.8694 154.826 32.8694C158.149 32.8694 160.711 31.7634 162.565 29.5651C164.414 27.3773 165.347 24.6677 165.347 21.3912C165.347 18.2834 164.527 15.7738 162.869 13.8694C161.215 11.9634 158.874 10.9999 155.869 10.9999ZM177.956 10.9999C174.937 10.9999 171.914 11.499 168.869 12.4781V16.3912C171.54 15.1494 174.177 14.5216 176.739 14.5216C178.038 14.5216 179.114 14.739 179.956 15.1738C180.813 15.6225 181.217 16.4955 181.217 17.7825V19.652H179.434C174.94 19.652 171.706 20.3286 169.695 21.6955C167.704 23.0799 166.695 24.8155 166.695 26.8694C166.695 28.5512 167.367 29.9512 168.695 31.1303C170.038 32.2868 171.82 32.8694 174.043 32.8694C174.906 32.8694 175.706 32.7773 176.478 32.6086C177.241 32.4312 177.991 32.2173 178.695 31.8694C179.401 31.5181 180.276 30.9634 181.26 30.1738H181.521C181.994 31.2868 182.716 31.9999 183.608 32.3477C184.504 32.7042 185.573 32.8694 186.826 32.8694C187.923 32.8694 189.182 32.7181 190.608 32.3477L190.521 29.1738C190.147 29.2155 189.817 29.2173 189.565 29.2173C189.149 29.2173 188.727 29.0851 188.304 28.826C187.888 28.5825 187.695 27.9251 187.695 26.7825V17.5216C187.695 15.7703 187.247 14.4834 186.391 13.6086C185.52 12.7303 184.363 12.0764 182.913 11.652C181.459 11.2347 179.789 10.9999 177.956 10.9999ZM204.521 10.9999C200.186 10.9999 196.843 12.0242 194.608 14.0434C192.363 16.0625 191.26 18.699 191.26 21.9129C191.26 24.9929 192.311 27.6138 194.434 29.739C196.551 31.8347 199.735 32.8694 203.956 32.8694C206.333 32.8694 208.899 32.586 211.652 31.9564V28.0434C209.56 28.7216 207.54 29.0868 205.565 29.0868C204.201 29.0868 202.961 28.7964 201.869 28.2607C200.78 27.7199 199.946 26.8729 199.347 25.6955C198.732 24.5199 198.434 23.2381 198.434 21.8694C198.434 20.1094 198.947 18.4729 200 16.9999C201.052 15.5216 202.718 14.826 205 14.826C206.61 14.826 208.775 15.1947 211.478 15.9564V11.826C208.853 11.2642 206.539 10.9999 204.521 10.9999ZM88.6517 14.5651C89.8464 14.5651 90.8204 14.9634 91.5648 15.7825C92.3178 16.5981 92.6952 17.9407 92.6952 19.826H83.9126C84.123 18.099 84.6465 16.812 85.4778 15.9129C86.3143 15.0155 87.3682 14.5651 88.6517 14.5651ZM153.391 15.4781C154.93 15.4781 156.088 16.0799 156.913 17.2173C157.747 18.3512 158.173 19.9112 158.173 21.8694C158.173 23.7877 157.739 25.4625 156.869 26.9564C156 28.4381 154.702 29.1738 152.913 29.1738C152.074 29.1738 151.24 29.0155 150.434 28.6955C149.622 28.3668 148.754 27.7564 147.826 26.8694V18.652C148.645 17.6694 149.513 16.906 150.478 16.3477C151.452 15.779 152.44 15.4781 153.391 15.4781ZM179.652 22.9129H181.217V27.1303C180.398 27.7599 179.591 28.2068 178.782 28.5216C177.975 28.8503 177.172 29.0434 176.391 29.0434C175.521 29.0434 174.784 28.7703 174.13 28.2607C173.502 27.7494 173.173 27.1094 173.173 26.3042C173.173 25.3286 173.721 24.5147 174.782 23.8694C175.85 23.2277 177.467 22.9129 179.652 22.9129Z" fill="currentColor"/>
</svg>
