<svg width="20" height="20" viewBox="0 0 20 20" fill="none" xmlns="http://www.w3.org/2000/svg">
<g clip-path="url(#clip0_3396_72704)">
<path d="M20 10C20 4.47715 15.5228 0 10 0C4.47715 0 0 4.47715 0 10C0 15.5228 4.47715 20 10 20C15.5228 20 20 15.5228 20 10Z" fill="currentColor"/>
<path d="M15.889 8.76489C15.97 9.07526 16.2862 9.26151 16.5986 9.17614C16.9071 9.09467 17.0922 8.77651 17.0074 8.46223C16.9264 8.15186 16.6102 7.96561 16.2978 8.05098C15.9931 8.13632 15.808 8.45448 15.889 8.76489Z" fill="currentColor"/>
<path d="M15.1059 9.38526C15.3142 9.32708 15.4414 9.10979 15.3836 8.90026C15.3257 8.69076 15.1098 8.56273 14.9015 8.62092C14.6933 8.67911 14.566 8.89639 14.6239 9.10592C14.6779 9.31542 14.8938 9.43958 15.1059 9.38526Z" fill="currentColor"/>
<path d="M13.9498 9.58708C14.104 9.54439 14.1966 9.38533 14.1542 9.23014C14.1118 9.07492 13.9536 8.98179 13.7994 9.02448C13.6451 9.06717 13.5526 9.22623 13.595 9.38145C13.6374 9.53664 13.7955 9.62976 13.9498 9.58708Z" fill="currentColor"/>
<path d="M13.0493 9.72295C13.1457 9.69579 13.2036 9.59491 13.1805 9.49791C13.1573 9.40091 13.0532 9.34273 12.9568 9.36601C12.8604 9.39317 12.8025 9.49404 12.8256 9.59104C12.8488 9.68804 12.9491 9.74623 13.0493 9.72295Z" fill="currentColor"/>
<path d="M15.462 7.58528C15.6085 7.83747 15.9286 7.92672 16.1793 7.77928C16.43 7.63185 16.5187 7.30982 16.3721 7.05763C16.2256 6.80544 15.9055 6.71619 15.6548 6.86363C15.4041 7.01107 15.3154 7.3331 15.462 7.58528Z" fill="currentColor"/>
<path d="M14.3002 8.25531C14.4004 8.43378 14.6241 8.49197 14.8015 8.39109C14.9789 8.29022 15.0368 8.06519 14.9365 7.88672C14.8362 7.70822 14.6125 7.65003 14.4352 7.75091C14.2616 7.85178 14.1999 8.07681 14.3002 8.25531Z" fill="currentColor"/>
<path d="M13.475 8.43068C13.3478 8.5044 13.3053 8.66346 13.3786 8.79153C13.4519 8.91956 13.61 8.96225 13.7373 8.88853C13.8645 8.81481 13.9069 8.65571 13.8337 8.52768C13.7643 8.40353 13.6023 8.36084 13.475 8.43068Z" fill="currentColor"/>
<path d="M12.7384 8.9653C12.6574 9.01187 12.6266 9.11661 12.6728 9.19808C12.7191 9.27955 12.8232 9.31061 12.9042 9.26405C12.9852 9.21749 13.0161 9.11274 12.9698 9.03124C12.9235 8.94977 12.8194 8.91874 12.7384 8.9653Z" fill="currentColor"/>
<path d="M15.4038 6.54881C15.5889 6.36259 15.5889 6.06381 15.4038 5.87759C15.2187 5.69134 14.9217 5.69134 14.7366 5.87759C14.5515 6.06381 14.5515 6.36259 14.7366 6.54881C14.9179 6.73506 15.2187 6.73506 15.4038 6.54881Z" fill="currentColor"/>
<path d="M14.2496 7.03331C14.1146 6.8975 13.8987 6.8975 13.7676 7.03331C13.6326 7.16909 13.6326 7.38637 13.7676 7.51828C13.9025 7.65409 14.1185 7.65409 14.2496 7.51828C14.3846 7.3825 14.3846 7.16522 14.2496 7.03331Z" fill="currentColor"/>
<path d="M13.015 7.93829C12.9224 8.03142 12.9224 8.18273 13.015 8.27585C13.1075 8.36898 13.2579 8.36898 13.3505 8.27585C13.443 8.18273 13.443 8.03142 13.3505 7.9422C13.2579 7.8452 13.1075 7.8452 13.015 7.93829Z" fill="currentColor"/>
<path d="M12.4334 8.86031C12.4951 8.92237 12.5953 8.92237 12.6571 8.86031C12.7187 8.79822 12.7187 8.69734 12.6571 8.63528C12.5953 8.57319 12.4951 8.57319 12.4334 8.63528C12.3717 8.69734 12.3717 8.79822 12.4334 8.86031Z" fill="currentColor"/>
<path d="M13.7407 5.74963C13.9528 5.87382 14.2266 5.8001 14.35 5.5867C14.4734 5.37329 14.4001 5.09782 14.188 4.97367C13.9759 4.84951 13.7021 4.92323 13.5787 5.13664C13.4514 5.35001 13.5247 5.62548 13.7407 5.74963Z" fill="currentColor"/>
<path d="M12.9421 6.50628C12.8534 6.65762 12.9073 6.85159 13.0577 6.94084C13.2081 7.03009 13.401 6.97575 13.4897 6.82444C13.5784 6.67312 13.5244 6.47912 13.374 6.3899C13.2197 6.30065 13.0269 6.35497 12.9421 6.50628Z" fill="currentColor"/>
<path d="M12.7347 7.49996C12.6345 7.44174 12.5072 7.47667 12.4494 7.57755C12.3915 7.67842 12.4262 7.80646 12.5265 7.86464C12.6268 7.92286 12.754 7.88792 12.8119 7.78705C12.8697 7.68617 12.835 7.55814 12.7347 7.49996Z" fill="currentColor"/>
<path d="M12.2475 8.34531C12.1781 8.3065 12.0894 8.32978 12.0509 8.39962C12.0123 8.46947 12.0354 8.55869 12.1048 8.5975C12.1743 8.63628 12.2629 8.613 12.3015 8.54319C12.3401 8.47334 12.3169 8.38409 12.2475 8.34531Z" fill="currentColor"/>
<path d="M12.568 5.23375C12.7916 5.29585 13.023 5.16003 13.0809 4.935C13.1426 4.70997 13.0076 4.47719 12.7839 4.41897C12.5603 4.36078 12.3289 4.49269 12.271 4.71772C12.2093 4.94275 12.3443 5.17556 12.568 5.23375Z" fill="currentColor"/>
<path d="M12.2134 6.56086C12.3676 6.60354 12.5257 6.51042 12.5682 6.35523C12.6106 6.20001 12.518 6.04095 12.3638 5.99826C12.2095 5.95561 12.0514 6.0487 12.009 6.20392C11.9704 6.35911 12.0591 6.51817 12.2134 6.56086Z" fill="currentColor"/>
<path d="M11.9355 7.60837C12.0396 7.63552 12.1476 7.57346 12.1746 7.46868C12.2016 7.36393 12.1399 7.2553 12.0358 7.22815C11.9316 7.20099 11.8236 7.26305 11.7966 7.3678C11.7697 7.46868 11.8314 7.57734 11.9355 7.60837Z" fill="currentColor"/>
<path d="M11.6276 8.25908C11.6084 8.32892 11.6508 8.40264 11.7202 8.42204C11.7896 8.44145 11.8629 8.39876 11.8822 8.32892C11.9015 8.25908 11.859 8.18536 11.7896 8.16598C11.7163 8.14658 11.6431 8.18926 11.6276 8.25908Z" fill="currentColor"/>
<path d="M11.2956 5.03945C11.5116 5.03945 11.6889 4.86098 11.6889 4.6437C11.6889 4.42645 11.5116 4.24798 11.2956 4.24798C11.0796 4.24798 10.9022 4.42645 10.9022 4.6437C10.9022 4.86486 11.0796 5.03945 11.2956 5.03945Z" fill="currentColor"/>
<path d="M11.2965 5.88508C11.15 5.88508 11.0343 6.00149 11.0343 6.14892C11.0343 6.29636 11.15 6.41274 11.2965 6.41274C11.4431 6.41274 11.5587 6.29636 11.5587 6.14892C11.5587 6.00536 11.4431 5.88508 11.2965 5.88508Z" fill="currentColor"/>
<path d="M11.4811 7.32332C11.4811 7.22244 11.4001 7.1371 11.296 7.1371C11.1919 7.1371 11.1109 7.21857 11.1109 7.32332C11.1109 7.42807 11.1919 7.50957 11.296 7.50957C11.4001 7.50957 11.4811 7.42419 11.4811 7.32332Z" fill="currentColor"/>
<path d="M11.297 8.11694C11.2314 8.11694 11.1774 8.17125 11.1774 8.23719C11.1774 8.30315 11.2314 8.35747 11.297 8.35747C11.3625 8.35747 11.4165 8.30315 11.4165 8.23719C11.4165 8.17125 11.3625 8.11694 11.297 8.11694Z" fill="currentColor"/>
<path d="M10.0119 5.18693C10.2085 5.13262 10.3242 4.93084 10.2702 4.73296C10.2163 4.53509 10.0157 4.41871 9.81904 4.47302C9.62235 4.52734 9.50667 4.72909 9.56064 4.92696C9.61464 5.12096 9.81904 5.23737 10.0119 5.18693Z" fill="currentColor"/>
<path d="M10.0769 6.34399C10.1116 6.47205 10.2389 6.54577 10.3661 6.51083C10.4934 6.47593 10.5667 6.3479 10.532 6.21983C10.4973 6.0918 10.37 6.01808 10.2427 6.05302C10.1193 6.08793 10.0422 6.21983 10.0769 6.34399Z" fill="currentColor"/>
<path d="M10.4431 7.46448C10.4663 7.55761 10.5627 7.61192 10.6514 7.58477C10.7439 7.56148 10.7979 7.46448 10.7709 7.37527C10.7478 7.28214 10.6514 7.22783 10.5627 7.25498C10.4701 7.27827 10.42 7.37139 10.4431 7.46448Z" fill="currentColor"/>
<path d="M10.7406 8.32558C10.756 8.38377 10.8138 8.4148 10.8678 8.3993C10.9257 8.38376 10.9565 8.32558 10.9411 8.27123C10.9257 8.21305 10.8678 8.18202 10.8138 8.19752C10.7599 8.21305 10.7251 8.26736 10.7406 8.32558Z" fill="currentColor"/>
<path d="M8.80415 5.66412C8.96615 5.57099 9.02399 5.35762 8.93143 5.19465C8.83887 5.03171 8.62677 4.97349 8.4648 5.06662C8.3028 5.15974 8.24496 5.37312 8.33752 5.53609C8.43393 5.70293 8.64218 5.75724 8.80415 5.66412Z" fill="currentColor"/>
<path d="M9.48777 6.85055C9.58805 6.79236 9.62277 6.66433 9.56492 6.56345C9.50705 6.46255 9.3798 6.42764 9.27952 6.48583C9.17927 6.54405 9.14455 6.67208 9.20239 6.77295C9.25639 6.87383 9.38752 6.90877 9.48777 6.85055Z" fill="currentColor"/>
<path d="M10.0424 7.82482C10.1195 7.78214 10.1427 7.68514 10.1002 7.60754C10.0578 7.52995 9.96143 7.50667 9.88431 7.54936C9.80715 7.59204 9.78403 7.68904 9.82643 7.76664C9.87271 7.84036 9.96915 7.86751 10.0424 7.82482Z" fill="currentColor"/>
<path d="M10.4973 8.43081C10.4703 8.38812 10.4163 8.37262 10.37 8.3959C10.3276 8.42306 10.3122 8.47737 10.3354 8.52393C10.3623 8.56659 10.4163 8.58212 10.4588 8.55884C10.5089 8.53168 10.5243 8.47349 10.4973 8.43081Z" fill="currentColor"/>
<path d="M7.75159 6.44439C7.875 6.32023 7.875 6.11848 7.75159 5.99433C7.62819 5.87017 7.42765 5.87017 7.30425 5.99433C7.18084 6.11848 7.18084 6.32023 7.30425 6.44439C7.4315 6.56855 7.63206 6.56855 7.75159 6.44439Z" fill="currentColor"/>
<path d="M8.71959 7.15408C8.6463 7.08036 8.53062 7.08036 8.46121 7.15408C8.38793 7.2278 8.38793 7.3442 8.46121 7.41405C8.53449 7.48777 8.65018 7.48777 8.71959 7.41405C8.78902 7.34033 8.78902 7.22392 8.71959 7.15408Z" fill="currentColor"/>
<path d="M9.51795 8.01141C9.46008 7.95319 9.37139 7.95319 9.31354 8.01141C9.2557 8.06959 9.2557 8.15884 9.31354 8.21703C9.37139 8.27522 9.46008 8.27522 9.51795 8.21703C9.57192 8.15884 9.57192 8.06959 9.51795 8.01141Z" fill="currentColor"/>
<path d="M10.1111 8.70289C10.0803 8.67183 10.0302 8.67573 10.0032 8.70677C9.97229 8.7378 9.97617 8.78823 10.007 8.81539C10.0379 8.84255 10.0841 8.84255 10.115 8.81539C10.142 8.78436 10.142 8.73392 10.1111 8.70289Z" fill="currentColor"/>
<path d="M6.53209 7.57401C6.6709 7.65551 6.84831 7.60507 6.92543 7.46926C7.00643 7.32957 6.95631 7.1511 6.82131 7.07351C6.68249 6.99204 6.50509 7.04248 6.42796 7.17826C6.34696 7.31407 6.39324 7.49254 6.53209 7.57401Z" fill="currentColor"/>
<path d="M8.06071 7.94567C7.98359 7.90301 7.89103 7.93017 7.84475 8.00389C7.80234 8.08148 7.82934 8.17461 7.90259 8.22114C7.97971 8.26383 8.07228 8.24055 8.11856 8.16295C8.161 8.08536 8.134 7.98836 8.06071 7.94567Z" fill="currentColor"/>
<path d="M9.05933 8.55338C8.99761 8.51848 8.91665 8.53788 8.88193 8.60382C8.84721 8.66591 8.86649 8.74738 8.93205 8.78232C8.99377 8.81723 9.07474 8.79782 9.10946 8.73576C9.14418 8.67366 9.12102 8.5922 9.05933 8.55338Z" fill="currentColor"/>
<path d="M16.6325 9.36492C16.2854 9.36492 16 9.64814 16 10.0012C16 10.3504 16.2815 10.6375 16.6325 10.6375C16.9796 10.6375 17.2611 10.3543 17.2649 10.0051C17.2611 9.65204 16.9796 9.36492 16.6325 9.36492Z" fill="currentColor"/>
<path d="M15.5879 10.0023C15.5879 9.75014 15.3874 9.54839 15.1367 9.54839C14.886 9.54839 14.6855 9.75014 14.6855 10.0023C14.6855 10.2545 14.886 10.4563 15.1367 10.4563C15.3835 10.4563 15.5879 10.2545 15.5879 10.0023Z" fill="currentColor"/>
<path d="M13.9678 9.69153C13.7981 9.69153 13.6593 9.83122 13.6593 10.0019C13.6593 10.1726 13.7981 10.3123 13.9678 10.3123C14.1375 10.3123 14.2763 10.1726 14.2763 10.0019C14.2763 9.83122 14.1375 9.69153 13.9678 9.69153Z" fill="currentColor"/>
<path d="M13.262 10.0022C13.262 9.88965 13.1733 9.8004 13.0614 9.8004C12.9496 9.8004 12.8609 9.88965 12.8609 10.0022C12.8609 10.1147 12.9496 10.2039 13.0614 10.2039C13.1733 10.2039 13.262 10.1147 13.262 10.0022Z" fill="currentColor"/>
<path d="M16.5981 10.8252C16.2896 10.7398 15.9734 10.926 15.8886 11.2364C15.8037 11.5468 15.9888 11.865 16.2973 11.9503C16.6059 12.0357 16.9221 11.8495 17.0069 11.5391V11.5352C17.0879 11.2287 16.9028 10.9105 16.5981 10.8252Z" fill="currentColor"/>
<path d="M14.9018 11.3792C15.11 11.4374 15.326 11.3094 15.3838 11.0999C15.4417 10.8903 15.3144 10.6731 15.1062 10.6149C14.8979 10.5567 14.682 10.6847 14.6241 10.8942C14.5663 11.1037 14.6897 11.321 14.9018 11.3792Z" fill="currentColor"/>
<path d="M13.7991 10.9762C13.9533 11.0189 14.1115 10.9258 14.1539 10.7706C14.1963 10.6153 14.1037 10.4563 13.9495 10.4136C13.7952 10.3709 13.6371 10.464 13.5947 10.6192C13.5561 10.7744 13.6448 10.9335 13.7991 10.9762Z" fill="currentColor"/>
<path d="M12.9543 10.6378C13.0507 10.665 13.1509 10.6068 13.1779 10.5059C13.2049 10.4089 13.1471 10.308 13.0468 10.2809C12.9504 10.2537 12.8502 10.3119 12.8232 10.4128C12.7962 10.5059 12.854 10.6106 12.9543 10.6378Z" fill="currentColor"/>
<path d="M16.1793 12.2205C15.9286 12.073 15.6085 12.1623 15.462 12.4145C15.3154 12.6667 15.4041 12.9887 15.6548 13.1361C15.9055 13.2836 16.2256 13.1944 16.3721 12.9422C16.5148 12.69 16.43 12.3679 16.1793 12.2205Z" fill="currentColor"/>
<path d="M14.9414 12.1142C15.0416 11.9357 14.9838 11.7107 14.8064 11.6098C14.629 11.5089 14.4053 11.5671 14.3051 11.7456C14.2048 11.9241 14.2626 12.1491 14.44 12.25C14.6136 12.3508 14.8372 12.2887 14.9414 12.1142Z" fill="currentColor"/>
<path d="M13.8337 11.4715C13.9069 11.3435 13.8645 11.1844 13.7373 11.1107C13.61 11.0369 13.4519 11.0796 13.3786 11.2077C13.3053 11.3357 13.3478 11.4948 13.475 11.5685C13.6023 11.6384 13.7604 11.5957 13.8337 11.4715Z" fill="currentColor"/>
<path d="M12.9735 10.9691C13.0197 10.8876 12.9927 10.7828 12.9117 10.7324C12.8308 10.6858 12.7267 10.713 12.6765 10.7945C12.6264 10.8759 12.6572 10.9807 12.7382 11.0311H12.7421C12.8231 11.0777 12.9272 11.0505 12.9735 10.9691Z" fill="currentColor"/>
<path d="M14.7326 13.4513C14.5475 13.6375 14.5475 13.9363 14.7326 14.1225C14.9177 14.3087 15.2147 14.3087 15.3997 14.1225C15.5849 13.9363 15.5849 13.6375 15.3997 13.4513C15.2185 13.2689 14.9177 13.2689 14.7326 13.4513Z" fill="currentColor"/>
<path d="M14.2496 12.9659C14.3846 12.8301 14.3846 12.6128 14.2496 12.4809C14.1146 12.3451 13.8987 12.3451 13.7676 12.4809C13.6326 12.6167 13.6326 12.834 13.7676 12.9659C13.8987 13.1017 14.1146 13.1017 14.2496 12.9659Z" fill="currentColor"/>
<path d="M13.3505 12.0626C13.443 11.9695 13.443 11.8182 13.3505 11.7251C13.2579 11.632 13.1075 11.632 13.015 11.7251C12.9224 11.8182 12.9224 11.9695 13.015 12.0587C13.1075 12.1557 13.2579 12.1557 13.3505 12.0626Z" fill="currentColor"/>
<path d="M12.4334 11.3603C12.4951 11.4224 12.5953 11.4224 12.6571 11.3603C12.7187 11.2982 12.7187 11.1974 12.6571 11.1353C12.5953 11.0732 12.4951 11.0732 12.4334 11.1353C12.3717 11.1974 12.3717 11.2982 12.4334 11.3603Z" fill="currentColor"/>
<path d="M13.7401 14.2499C13.528 14.374 13.4547 14.6495 13.5781 14.8629C13.7016 15.0763 13.9754 15.15 14.1875 15.0258C14.3996 14.9017 14.4728 14.6262 14.3494 14.4128C14.226 14.1994 13.9522 14.1257 13.7401 14.2499Z" fill="currentColor"/>
<path d="M13.4857 13.1797C13.3969 13.0284 13.208 12.974 13.0537 13.0633C12.9033 13.1525 12.8493 13.3426 12.938 13.4978C13.0267 13.6491 13.2157 13.7035 13.3699 13.6142C13.5203 13.525 13.5743 13.331 13.4857 13.1797Z" fill="currentColor"/>
<path d="M12.7337 12.4997C12.834 12.4415 12.8687 12.3135 12.8109 12.2126C12.753 12.1118 12.6258 12.0768 12.5255 12.135C12.4252 12.1932 12.3905 12.3213 12.4484 12.4221C12.5062 12.523 12.6335 12.5579 12.7337 12.4997Z" fill="currentColor"/>
<path d="M12.1048 11.4017C12.0354 11.4406 12.0123 11.5298 12.0509 11.5996C12.0894 11.6695 12.1781 11.6927 12.2475 11.6539C12.3169 11.6152 12.3401 11.5259 12.3015 11.4561C12.2629 11.3862 12.1743 11.363 12.1048 11.4017Z" fill="currentColor"/>
<path d="M12.568 14.7671C12.3443 14.8291 12.2093 15.058 12.271 15.2831C12.3327 15.5081 12.5603 15.6439 12.7839 15.5818C13.0076 15.5198 13.1426 15.2909 13.0809 15.0658C13.023 14.8408 12.7916 14.705 12.568 14.7671Z" fill="currentColor"/>
<path d="M12.3638 13.9984C12.518 13.9557 12.6106 13.7966 12.5682 13.6414C12.5257 13.4862 12.3676 13.3931 12.2134 13.4358C12.0591 13.4785 11.9704 13.6375 12.009 13.7927C12.0514 13.9518 12.2095 14.0411 12.3638 13.9984Z" fill="currentColor"/>
<path d="M12.1746 12.5311C12.1476 12.4264 12.0396 12.3643 11.9355 12.3915C11.8314 12.4186 11.7697 12.5272 11.7966 12.632C11.8236 12.7368 11.9316 12.7988 12.0358 12.7717C12.1437 12.7484 12.2055 12.6398 12.1746 12.5311Z" fill="currentColor"/>
<path d="M11.8781 11.6704C11.8589 11.6005 11.7856 11.5579 11.7162 11.5773C11.6467 11.5967 11.6043 11.6704 11.6236 11.7402C11.6429 11.8101 11.7123 11.8527 11.7856 11.8334C11.855 11.8139 11.8974 11.7402 11.8781 11.6704Z" fill="currentColor"/>
<path d="M11.2956 14.9597C11.0796 14.9597 10.9022 15.1381 10.9022 15.3554C10.9022 15.5727 11.0796 15.7512 11.2956 15.7512C11.5116 15.7512 11.6889 15.5766 11.6889 15.3554C11.6889 15.1381 11.5154 14.9597 11.2956 14.9597Z" fill="currentColor"/>
<path d="M11.0343 13.8505C11.0343 13.998 11.15 14.1144 11.2965 14.1144C11.4431 14.1144 11.5587 13.998 11.5587 13.8505C11.5587 13.7031 11.4431 13.5867 11.2965 13.5867C11.1538 13.5867 11.0343 13.7031 11.0343 13.8505Z" fill="currentColor"/>
<path d="M11.296 12.8563C11.3963 12.8563 11.4811 12.7749 11.4811 12.6701C11.4811 12.5654 11.4001 12.4839 11.296 12.4839C11.1957 12.4839 11.1109 12.5654 11.1109 12.6701C11.1147 12.7749 11.1957 12.8563 11.296 12.8563Z" fill="currentColor"/>
<path d="M11.296 11.6431C11.2304 11.6431 11.1764 11.6975 11.1764 11.7634C11.1764 11.8294 11.2304 11.8837 11.296 11.8837C11.3615 11.8837 11.4155 11.8294 11.4155 11.7634C11.4155 11.6975 11.3615 11.6431 11.296 11.6431Z" fill="currentColor"/>
<path d="M10.0106 14.8115C9.81391 14.7572 9.61338 14.8774 9.55938 15.0714C9.50538 15.2693 9.62494 15.4711 9.81775 15.5254C10.0144 15.5797 10.215 15.4594 10.269 15.2654C10.323 15.0676 10.2073 14.8658 10.0106 14.8115Z" fill="currentColor"/>
<path d="M10.3661 13.4862C10.2389 13.4513 10.1116 13.5289 10.0769 13.6531C10.0422 13.7811 10.1193 13.9091 10.2427 13.944C10.37 13.979 10.4973 13.9014 10.532 13.7772C10.5667 13.6531 10.4934 13.5211 10.3661 13.4862Z" fill="currentColor"/>
<path d="M10.6511 12.4167C10.5586 12.3934 10.466 12.4477 10.4429 12.537C10.4197 12.6301 10.4737 12.7232 10.5624 12.7465C10.655 12.7697 10.7475 12.7154 10.7707 12.6262C10.7977 12.537 10.7437 12.4438 10.6511 12.4167Z" fill="currentColor"/>
<path d="M10.9439 11.7273C10.9593 11.669 10.9246 11.6109 10.8706 11.5992C10.8166 11.5876 10.7549 11.6186 10.7433 11.6729C10.7318 11.7273 10.7626 11.7893 10.8166 11.801C10.8706 11.8165 10.9285 11.7855 10.9439 11.7273Z" fill="currentColor"/>
<path d="M8.80512 14.3357C8.64315 14.2426 8.4349 14.2969 8.3385 14.4599C8.24593 14.6228 8.2999 14.8323 8.4619 14.9293C8.62387 15.0225 8.83212 14.9682 8.92853 14.8052C9.02493 14.6423 8.96709 14.4327 8.80512 14.3357Z" fill="currentColor"/>
<path d="M9.48777 13.1491C9.38752 13.0909 9.26024 13.1259 9.20239 13.2267C9.14455 13.3276 9.17927 13.4556 9.27952 13.5139C9.3798 13.572 9.50705 13.5371 9.56492 13.4363C9.62277 13.3354 9.58805 13.2073 9.48777 13.1491Z" fill="currentColor"/>
<path d="M9.88831 12.4498C9.96543 12.4925 10.0619 12.4692 10.1043 12.3916C10.1467 12.314 10.1236 12.217 10.0464 12.1744C9.96931 12.1317 9.8729 12.1549 9.83047 12.2326C9.78806 12.3102 9.81118 12.4072 9.88831 12.4498Z" fill="currentColor"/>
<path d="M10.4663 11.4408C10.4239 11.4136 10.366 11.4291 10.3429 11.4757C10.3159 11.5184 10.3314 11.5766 10.3776 11.5998C10.42 11.627 10.4779 11.6115 10.501 11.5649C10.5242 11.5261 10.5087 11.4679 10.4663 11.4408Z" fill="currentColor"/>
<path d="M7.30828 13.5568C7.18487 13.681 7.18487 13.8827 7.30828 14.0069C7.43169 14.1311 7.63222 14.1311 7.75566 14.0069C7.87906 13.8827 7.87906 13.681 7.75566 13.5568C7.63222 13.4327 7.43169 13.4327 7.30828 13.5568Z" fill="currentColor"/>
<path d="M8.4602 12.5855C8.38692 12.6592 8.38692 12.7756 8.4602 12.8455C8.53348 12.9192 8.64917 12.9192 8.71858 12.8455C8.78802 12.7717 8.79186 12.6554 8.71858 12.5855C8.64917 12.5118 8.52961 12.5118 8.4602 12.5855Z" fill="currentColor"/>
<path d="M9.31354 11.7815C9.2557 11.8397 9.2557 11.929 9.31354 11.9872C9.37139 12.0454 9.46008 12.0454 9.51795 11.9872C9.57579 11.929 9.57579 11.8397 9.51795 11.7815C9.46008 11.7234 9.36754 11.7234 9.31354 11.7815Z" fill="currentColor"/>
<path d="M10.1111 11.1847C10.0803 11.1537 10.0302 11.1576 10.0032 11.1886C9.97229 11.2196 9.97617 11.2701 10.007 11.2973C10.0379 11.3244 10.0841 11.3244 10.115 11.2973C10.142 11.2662 10.142 11.2158 10.1111 11.1847Z" fill="currentColor"/>
<path d="M6.54015 12.4191C6.40131 12.5006 6.35503 12.6752 6.43603 12.8149C6.517 12.9546 6.69056 13.0011 6.82937 12.9196C6.96822 12.8381 7.0145 12.6636 6.9335 12.5239C6.85637 12.3842 6.67897 12.3376 6.54015 12.4191Z" fill="currentColor"/>
<path d="M7.90259 11.7783C7.82934 11.821 7.80234 11.918 7.84475 11.9956C7.88718 12.0693 7.98359 12.0965 8.06071 12.0538C8.134 12.0111 8.161 11.9141 8.11856 11.8366C8.07615 11.7628 7.97971 11.7357 7.90259 11.7783Z" fill="currentColor"/>
<path d="M8.92703 11.2165C8.86531 11.2515 8.84219 11.3329 8.88075 11.395C8.91547 11.4571 8.99644 11.4804 9.05816 11.4416C9.11984 11.4067 9.143 11.3252 9.10444 11.2631C9.06972 11.201 8.98875 11.1778 8.92703 11.2165Z" fill="currentColor"/>
<path d="M5.95403 9.0788H6.41681V10.8713H5.95403V9.0788ZM6.23556 8.27952C6.09287 8.24074 5.94634 8.32608 5.90775 8.46964C5.86918 8.6132 5.95403 8.76064 6.09671 8.79946C6.23943 8.83824 6.38596 8.75289 6.42453 8.60933C6.46309 8.46577 6.37825 8.31445 6.23556 8.27952ZM7.84759 10.9101C7.73575 10.9101 7.6239 10.8907 7.51978 10.8441C7.42721 10.8015 7.34625 10.7355 7.28453 10.654V11.7675H6.83331V9.0788H7.28068V9.32711C7.33853 9.23786 7.4195 9.16802 7.5159 9.11758C7.61618 9.06714 7.72803 9.03999 7.84371 9.03999C7.95556 9.03999 8.06353 9.06327 8.16765 9.10595C8.27178 9.14864 8.36434 9.21458 8.44146 9.29217C8.52246 9.37755 8.58803 9.47842 8.63043 9.58705C8.68059 9.71121 8.70371 9.83927 8.69987 9.97117C8.70371 10.1031 8.67671 10.235 8.62659 10.3592C8.58031 10.4678 8.51475 10.5687 8.43378 10.654C8.28337 10.817 8.0674 10.9101 7.84759 10.9101ZM7.75503 10.4755C7.82059 10.4755 7.88615 10.4639 7.94784 10.4368C8.00568 10.4096 8.05968 10.3747 8.10596 10.3281C8.15225 10.2815 8.18693 10.2272 8.21009 10.169C8.26021 10.041 8.26021 9.90133 8.21009 9.7733C8.18693 9.71511 8.14837 9.66077 8.10596 9.6142C8.05968 9.56767 8.00568 9.53274 7.94784 9.50558C7.88615 9.47842 7.82059 9.46677 7.75503 9.46677C7.6239 9.46677 7.49662 9.52111 7.40021 9.6142C7.35393 9.66077 7.31925 9.71511 7.29609 9.7733C7.24596 9.90133 7.24596 10.041 7.29609 10.1652C7.31925 10.2234 7.35393 10.2777 7.40021 10.3242C7.49662 10.4251 7.6239 10.4794 7.75503 10.4755ZM9.03153 9.0788H9.47887V9.35427C9.51743 9.25727 9.583 9.1758 9.67168 9.12149C9.76425 9.07102 9.86453 9.04386 9.9725 9.04777C10.0303 9.04777 10.0843 9.05552 10.1383 9.06714C10.1846 9.0788 10.2309 9.0943 10.2733 9.11758L10.1075 9.56767C10.0766 9.54827 10.0419 9.53274 10.0072 9.52111C9.96093 9.50945 9.91465 9.5017 9.86837 9.5017C9.76425 9.49783 9.664 9.53274 9.58684 9.5987C9.51743 9.66464 9.48271 9.7733 9.48271 9.92074V10.8674H9.03153V9.0788ZM11.2798 10.9101C11.1526 10.9101 11.0253 10.8868 10.9058 10.8364C10.7939 10.7898 10.6937 10.72 10.605 10.6346C10.4314 10.46 10.335 10.2234 10.335 9.97505C10.335 9.85089 10.3582 9.72674 10.4044 9.61033C10.4507 9.49783 10.5163 9.39695 10.6011 9.31158C10.9752 8.94686 11.5691 8.94686 11.9432 9.31158C12.1167 9.48617 12.217 9.72286 12.217 9.97117C12.217 10.0953 12.1938 10.2195 12.1437 10.332C12.0974 10.4445 12.028 10.5454 11.947 10.6308C11.8622 10.7161 11.7619 10.786 11.6462 10.8325C11.5344 10.883 11.4071 10.9101 11.2798 10.9101ZM11.2837 10.4755C11.3493 10.4755 11.4148 10.4639 11.4765 10.4368C11.5344 10.4096 11.5845 10.3747 11.6308 10.332C11.6771 10.2855 11.7118 10.2311 11.7349 10.1729C11.7851 10.0449 11.7851 9.90521 11.7349 9.78105C11.7118 9.72286 11.6771 9.66855 11.6308 9.62199C11.5845 9.57542 11.5344 9.54049 11.4765 9.51724C11.3531 9.46289 11.2143 9.46289 11.0947 9.51724C11.0369 9.54439 10.9867 9.5793 10.9405 9.62199C10.8942 9.66855 10.8595 9.72286 10.8363 9.78105C10.7862 9.90908 10.7862 10.0488 10.8363 10.1729C10.8595 10.2311 10.8942 10.2855 10.9405 10.332C10.9867 10.3785 11.0369 10.4135 11.0947 10.4368C11.1526 10.46 11.2182 10.4755 11.2837 10.4755ZM2.73387 9.0788H3.19665L3.55531 10.2234L3.97953 9.0788H4.38059L4.79709 10.2234L5.17118 9.0788H5.63396L5.0285 10.8713H4.6004L4.17618 9.70345L3.74812 10.8713H3.31234L2.73387 9.0788Z" fill="currentColor"/>
</g>
<defs>
<clipPath id="clip0_3396_72704">
<rect width="19.375" height="19.375" fill="currentColor" transform="scale(1.03226)"/>
</clipPath>
</defs>
</svg>
