<svg width="112" height="40" viewBox="0 0 112 40" fill="none" xmlns="http://www.w3.org/2000/svg">
<path d="M81.4633 14.3115C81.7042 14.3918 81.8745 14.5846 82.0431 14.7645C84.4236 17.2702 86.8201 19.7583 89.1957 22.2672C89.2005 19.7567 89.1893 17.2461 89.2005 14.7356C89.8446 14.734 90.4871 14.7452 91.1312 14.7243C91.1922 14.9508 91.2179 15.1821 91.2115 15.4166C91.1987 19.2346 91.2163 23.0526 91.2035 26.8707C91.1553 26.8931 91.0605 26.9365 91.014 26.959C88.4552 24.3569 85.9784 21.6729 83.4245 19.0676C83.4004 21.5701 83.4534 24.0758 83.3988 26.5799C82.7499 26.551 82.101 26.5655 81.4537 26.5687C81.4553 22.4824 81.4376 18.3962 81.4633 14.3115Z" fill="currentColor"/>
<path d="M30.4516 14.6181C31.9502 14.072 33.5629 14.4639 35.023 14.9345C35.0406 15.8645 35.031 16.7929 35.031 17.723C34.1347 17.1768 33.1646 16.6307 32.09 16.6002C31.5471 16.5649 30.8805 16.8974 30.8709 17.5061C30.8339 17.951 31.1889 18.2916 31.5262 18.5196C32.8272 19.334 34.3403 19.9074 35.341 21.1217C36.5585 22.789 35.9128 25.4538 34.0721 26.3918C32.3743 27.2929 30.352 26.9251 28.6013 26.3805C28.5001 25.3333 28.4342 24.2844 28.3924 23.2339C29.406 23.8668 30.5287 24.4579 31.7559 24.437C32.2779 24.4017 32.8931 24.2427 33.1501 23.7367C33.4183 23.2821 33.2144 22.6814 32.8144 22.3762C31.6676 21.4591 30.1834 21.0125 29.1747 19.9171C28.5209 19.2344 28.1901 18.2659 28.2816 17.3262C28.3491 16.0814 29.2871 15.0004 30.4516 14.6181Z" fill="currentColor"/>
<path d="M73.1142 15.6755C73.3503 15.208 73.5174 14.7037 73.8338 14.2812C75.7372 18.3579 77.5715 22.4666 79.4363 26.5625C78.7248 26.5673 78.0116 26.5561 77.3 26.5737C76.966 25.8782 76.6576 25.1715 76.3508 24.4648C74.5711 24.4551 72.7914 24.4616 71.0116 24.4616C70.6968 25.1667 70.3884 25.875 70.0463 26.5689C69.354 26.5593 68.6633 26.5657 67.9727 26.5625C69.7042 22.9437 71.3939 19.3023 73.1142 15.6755ZM73.5913 18.639C72.9841 20.0059 72.4075 21.3872 71.7778 22.7429C73.0516 22.8007 74.3301 22.7557 75.6055 22.7638C74.9935 21.3182 74.3574 19.8822 73.7471 18.435C73.7085 18.4864 73.6298 18.5876 73.5913 18.639Z" fill="currentColor"/>
<path d="M5.85059 14.7372C6.95728 14.7308 8.06237 14.7484 9.16746 14.7275C10.03 15.9611 10.809 17.2493 11.6603 18.4909C12.5502 17.23 13.4481 15.9724 14.3684 14.734C15.3418 14.7436 16.3152 14.7291 17.2886 14.742C15.814 16.8108 14.2255 18.8042 12.7879 20.8939C12.7622 22.7812 12.7815 24.6717 12.7799 26.5607C11.8563 26.5671 10.9327 26.5639 10.0091 26.5623C9.99466 24.6878 10.0396 22.8085 9.98824 20.9356C8.63579 18.854 7.19821 16.8253 5.85059 14.7372Z" fill="currentColor"/>
<path d="M18.499 26.5659C18.5054 22.6226 18.491 18.6777 18.5071 14.7344C20.9052 14.7408 23.3033 14.736 25.7014 14.7376C25.7078 15.5423 25.6933 16.3486 25.7126 17.1534C24.214 17.2128 22.7057 17.1004 21.2039 17.2048C21.2071 17.9147 21.2023 18.6247 21.2103 19.333C22.4953 19.3282 23.7819 19.317 25.0669 19.341C25.0508 20.1393 25.0621 20.9393 25.0605 21.7408C23.7739 21.7392 22.4889 21.7408 21.2039 21.7375C21.2087 22.515 21.2055 23.294 21.2055 24.0714C22.7218 24.073 24.2381 24.0586 25.7544 24.0762C25.7576 24.9066 25.764 25.7371 25.7512 26.5691C23.3338 26.5611 20.9164 26.5643 18.499 26.5659Z" fill="currentColor"/>
<path d="M58.9824 14.7352C60.4778 14.7689 61.978 14.6597 63.467 14.8187C64.4307 14.9311 65.4796 15.315 65.9839 16.2033C66.522 17.1847 66.53 18.5323 65.7896 19.4157C65.4667 19.8157 64.9881 20.0293 64.5399 20.2558C65.4009 20.4919 66.167 21.1167 66.4433 21.9825C66.7694 23.0474 66.6794 24.3099 65.992 25.2174C65.2274 26.194 63.9247 26.4703 62.7522 26.5458C61.4929 26.5811 60.2352 26.5554 58.9775 26.5651C58.9872 22.6218 58.9743 18.6785 58.9824 14.7352ZM60.9484 16.3173C60.9548 17.4288 60.9516 18.5419 60.9516 19.6551C61.8318 19.631 62.8052 19.79 63.5955 19.3033C64.5351 18.7764 64.6459 17.1349 63.6517 16.6096C62.818 16.1904 61.8479 16.343 60.9484 16.3173ZM60.95 21.234C60.9548 22.4611 60.9516 23.6899 60.9532 24.9171C61.8511 24.8849 62.8116 25.0488 63.6565 24.6617C64.7841 24.1461 64.9351 22.3471 63.9408 21.6323C63.0654 21.0268 61.9442 21.2886 60.95 21.234Z" fill="currentColor"/>
<path d="M94.9334 26.5668C94.9382 22.6219 94.9045 18.6754 94.9495 14.7305C95.6113 14.7401 96.273 14.7369 96.9348 14.7337C96.9621 16.5005 96.9348 18.2674 96.9444 20.0342C98.6101 18.2674 100.271 16.4973 101.945 14.7385C102.73 14.7337 103.517 14.7369 104.304 14.7353C102.537 16.6403 100.746 18.5244 98.9651 20.4181C100.938 22.4581 102.887 24.5205 104.863 26.5555C103.985 26.5732 103.108 26.5572 102.229 26.5684C100.473 24.7196 98.7113 22.8773 96.9476 21.0381C96.938 22.8789 96.9509 24.7196 96.9428 26.562C96.273 26.5668 95.6032 26.5604 94.9334 26.5668Z" fill="currentColor"/>
<path d="M59.413 2.27282C59.9881 1.51789 60.5165 0.724411 61.1333 0C55.1132 10.6397 49.1364 21.3067 43.1291 31.9544C41.632 34.64 40.0981 37.3063 38.6172 40C38.487 39.9309 38.3698 39.8442 38.267 39.7398C36.1532 37.5858 34.0281 35.4447 31.9111 33.294C33.4146 33.2779 34.9164 33.2924 36.4198 33.2859C44.0848 22.9498 51.7497 12.6121 59.413 2.27282Z" fill="currentColor"/>
<path d="M0.000252538 8.80679C17.966 8.7811 35.9301 8.8084 53.8958 8.79395C47.9206 16.6854 41.9872 24.6089 35.9847 32.4794C23.9942 32.4698 12.0036 32.473 0.0131024 32.4843C-0.0142035 24.5912 0.0114962 16.6998 0.000252538 8.80679ZM30.4512 14.6181C29.2867 15.0004 28.3486 16.0814 28.2812 17.3263C28.1896 18.2659 28.5205 19.2345 29.1742 19.9171C30.183 21.0126 31.6671 21.4591 32.814 22.3762C33.2139 22.6814 33.4179 23.2822 33.1497 23.7367C32.8927 24.2427 32.2775 24.4017 31.7555 24.437C30.5283 24.4579 29.4055 23.8668 28.392 23.234C28.4338 24.2844 28.4996 25.3333 28.6008 26.3806C30.3516 26.9251 32.3739 27.2929 34.0717 26.3918C35.9124 25.4538 36.5581 22.789 35.3406 21.1218C34.3399 19.9075 32.8268 19.334 31.5258 18.5197C31.1885 18.2916 30.8335 17.9511 30.8704 17.5061C30.8801 16.8974 31.5467 16.5649 32.0896 16.6002C33.1641 16.6308 34.1343 17.1769 35.0306 17.723C35.0306 16.793 35.0402 15.8646 35.0225 14.9346C33.5625 14.4639 31.9498 14.072 30.4512 14.6181ZM5.85015 14.737C7.19778 16.8251 8.63536 18.8538 9.9878 20.9355C10.0392 22.8083 9.99423 24.6876 10.0087 26.5621C10.9323 26.5637 11.8559 26.5669 12.7794 26.5605C12.781 24.6715 12.7618 22.781 12.7875 20.8937C14.225 18.804 15.8136 16.8106 17.2881 14.7418C16.3148 14.729 15.3414 14.7434 14.368 14.7338C13.4476 15.9722 12.5497 17.2299 11.6599 18.4908C10.8086 17.2492 10.0296 15.961 9.16702 14.7274C8.06193 14.7482 6.95684 14.7306 5.85015 14.737ZM18.4992 26.5653C20.9166 26.5637 23.334 26.5605 25.7514 26.5685C25.7642 25.7365 25.7578 24.9061 25.7546 24.0756C24.2383 24.058 22.722 24.0724 21.2057 24.0708C21.2057 23.2934 21.2089 22.5144 21.2041 21.737C22.4891 21.7402 23.7741 21.7386 25.0607 21.7402C25.0623 20.9387 25.0511 20.1388 25.0671 19.3405C23.7821 19.3164 22.4955 19.3276 21.2106 19.3324C21.2025 18.6241 21.2073 17.9141 21.2041 17.2042C22.706 17.0998 24.2142 17.2122 25.7128 17.1528C25.6935 16.3481 25.708 15.5417 25.7016 14.737C23.3035 14.7354 20.9054 14.7402 18.5073 14.7338C18.4912 18.6771 18.5057 22.622 18.4992 26.5653Z" fill="currentColor"/>
<path d="M52.916 15.6813C54.2122 13.3925 55.4217 11.0522 56.7565 8.789C74.8972 8.80024 93.0396 8.80827 111.18 8.78418C111.238 16.682 111.196 24.5831 111.201 32.4825C88.6884 32.4681 66.177 32.4793 43.6641 32.4777C46.7271 26.8671 49.8384 21.2839 52.916 15.6813ZM81.4635 14.3112C81.4378 18.3959 81.4555 22.4821 81.4539 26.5684C82.1012 26.5652 82.7501 26.5507 83.399 26.5796C83.4536 24.0755 83.4006 21.5698 83.4247 19.0673C85.9786 21.6726 88.4555 24.3566 91.0142 26.9587C91.0608 26.9362 91.1555 26.8928 91.2037 26.8704C91.2166 23.0523 91.1989 19.2343 91.2117 15.4163C91.2182 15.1818 91.1925 14.9505 91.1314 14.724C90.4873 14.7449 89.8448 14.7337 89.2007 14.7353C89.1895 17.2458 89.2007 19.7564 89.1959 22.2669C86.8203 19.758 84.4238 17.2699 82.0434 14.7642C81.8747 14.5843 81.7045 14.3915 81.4635 14.3112ZM73.1143 15.6749C71.3941 19.3018 69.7043 22.9431 67.9728 26.562C68.6635 26.5652 69.3541 26.5587 70.0464 26.5684C70.3886 25.8745 70.6969 25.1661 71.0118 24.461C72.7915 24.461 74.5712 24.4546 76.3509 24.4642C76.6577 25.171 76.9661 25.8777 77.3002 26.5732C78.0117 26.5555 78.7249 26.5668 79.4365 26.562C77.5716 22.4661 75.7373 18.3573 73.8339 14.2807C73.5175 14.7031 73.3504 15.2075 73.1143 15.6749ZM58.9827 14.7353C58.9747 18.6786 58.9875 22.6219 58.9779 26.5652C60.2356 26.5555 61.4932 26.5812 62.7525 26.5459C63.9251 26.4704 65.2277 26.1941 65.9923 25.2175C66.6798 24.31 66.7697 23.0475 66.4436 21.9826C66.1674 21.1168 65.4012 20.492 64.5403 20.2559C64.9884 20.0294 65.4671 19.8158 65.7899 19.4158C66.5304 18.5324 66.5224 17.1848 65.9843 16.2034C65.4799 15.3151 64.431 14.9312 63.4673 14.8188C61.9783 14.6598 60.4781 14.769 58.9827 14.7353ZM94.9334 26.5668C95.6032 26.5604 96.273 26.5668 96.9428 26.562C96.9508 24.7196 96.938 22.8789 96.9476 21.0381C98.7112 22.8773 100.473 24.7196 102.229 26.5684C103.108 26.5571 103.984 26.5732 104.863 26.5555C102.887 24.5204 100.937 22.458 98.965 20.4181C100.746 18.5244 102.537 16.6403 104.304 14.7353C103.517 14.7369 102.73 14.7337 101.945 14.7385C100.271 16.4973 98.61 18.2674 96.9444 20.0342C96.9347 18.2674 96.9621 16.5005 96.9347 14.7337C96.273 14.7369 95.6112 14.7401 94.9494 14.7305C94.9045 18.6754 94.9382 22.6219 94.9334 26.5668Z" fill="currentColor"/>
<path d="M60.9482 16.3173C61.8477 16.343 62.8179 16.1904 63.6515 16.6097C64.6458 17.1349 64.535 18.7765 63.5953 19.3033C62.805 19.79 61.8317 19.631 60.9515 19.6551C60.9515 18.542 60.9547 17.4289 60.9482 16.3173Z" fill="currentColor"/>
<path d="M73.5918 18.6386C73.6303 18.5872 73.709 18.486 73.7476 18.4346C74.3579 19.8818 74.994 21.3178 75.606 22.7634C74.3306 22.7553 73.0521 22.8003 71.7783 22.7425C72.408 21.3868 72.9846 20.0055 73.5918 18.6386Z" fill="currentColor"/>
<path d="M60.9502 21.2346C61.9445 21.2892 63.0656 21.0274 63.941 21.6329C64.9353 22.3477 64.7843 24.1467 63.6567 24.6623C62.8118 25.0494 61.8513 24.8856 60.9534 24.9177C60.9518 23.6905 60.955 22.4618 60.9502 21.2346Z" fill="currentColor"/>
</svg>
