<svg width="16" height="16" viewBox="0 0 16 16" fill="none" xmlns="http://www.w3.org/2000/svg">
<g clip-path="url(#clip0_3396_63395)">
<g filter="url(#filter0_d_3396_63395)">
<g clip-path="url(#clip1_3396_63395)">
<path d="M0.25 8C0.25 3.71979 3.71979 0.25 8 0.25C12.2802 0.25 15.75 3.71979 15.75 8C15.75 12.2802 12.2802 15.75 8 15.75C3.71979 15.75 0.25 12.2802 0.25 8Z" fill="currentColor"/>
<path fill-rule="evenodd" clip-rule="evenodd" d="M9.47867 6.99742C9.47847 6.9686 9.48391 6.94003 9.49487 6.91337C9.50582 6.88671 9.52189 6.86249 9.54232 6.84215C9.56269 6.8218 9.58695 6.80572 9.61357 6.79486C9.64025 6.784 9.66882 6.77857 9.69759 6.77888H9.85171V6.45733C9.84687 6.42356 9.84936 6.38914 9.85904 6.35641C9.86865 6.32368 9.88519 6.29341 9.90757 6.26764C9.92988 6.24187 9.95751 6.2212 9.9885 6.20704C10.0195 6.19288 10.0532 6.18555 10.0873 6.18555C10.1214 6.18555 10.1551 6.19288 10.1861 6.20704C10.2171 6.2212 10.2447 6.24187 10.267 6.26764C10.2894 6.29341 10.306 6.32368 10.3156 6.35641C10.3252 6.38914 10.3277 6.42356 10.3229 6.45733V6.77888H10.8238C10.8526 6.77857 10.8812 6.784 10.9079 6.79486C10.9345 6.80572 10.9587 6.8218 10.9791 6.84215C10.9995 6.86249 11.0156 6.88671 11.0266 6.91337C11.0375 6.94003 11.043 6.9686 11.0428 6.99742C11.0424 7.05538 11.0192 7.11088 10.9782 7.15181C10.9372 7.19274 10.8817 7.2158 10.8238 7.21595H10.3229V7.99005C10.3229 8.36758 10.5329 8.56051 10.8238 8.56051C10.8823 8.56051 10.9385 8.58379 10.9799 8.62522C11.0213 8.66664 11.0445 8.72284 11.0445 8.78143C11.0445 8.84002 11.0213 8.89621 10.9799 8.93764C10.9385 8.97907 10.8823 9.00234 10.8238 9.00234C10.2711 9.00234 9.85171 8.61231 9.85171 7.99005V7.21595H9.69759C9.63972 7.2158 9.5842 7.19274 9.5432 7.15181C9.50219 7.11088 9.479 7.05538 9.47867 6.99742ZM4.61354 7.89491C4.61525 7.67855 4.67803 7.46713 4.79458 7.28525C4.91113 7.10336 5.07665 6.9585 5.27189 6.86751C5.46712 6.77651 5.68404 6.74313 5.8974 6.77125C6.11077 6.79937 6.3118 6.88783 6.47712 7.02635C6.50268 7.04862 6.52342 7.07592 6.53805 7.10658C6.55269 7.13724 6.56091 7.17059 6.5622 7.20458C6.56251 7.26861 6.53791 7.33022 6.49366 7.37627L5.83898 8.15988C5.81997 8.18468 5.79539 8.20461 5.76726 8.21804C5.73912 8.23146 5.70822 8.23799 5.67709 8.23711C5.64837 8.23866 5.61963 8.23425 5.59267 8.22417C5.56571 8.21408 5.5411 8.19852 5.52038 8.17846C5.49965 8.1584 5.48325 8.13427 5.47219 8.10757C5.46114 8.08086 5.45566 8.05216 5.45611 8.02323C5.45471 7.99744 5.45849 7.97164 5.46721 7.94735C5.47595 7.92305 5.48945 7.90077 5.50692 7.88184L6.02215 7.27468C5.93778 7.22269 5.84043 7.19591 5.74149 7.19745C5.37575 7.19745 5.08623 7.50578 5.08623 7.89491C5.08623 8.28404 5.37161 8.59238 5.74149 8.59238C5.82582 8.59322 5.90941 8.5765 5.987 8.54328C6.06459 8.51005 6.13449 8.46103 6.19232 8.3993C6.2013 8.392 6.20992 8.38477 6.21832 8.37772L6.21839 8.37767C6.27352 8.33141 6.31937 8.29295 6.39675 8.29295C6.42689 8.29164 6.45696 8.29657 6.48512 8.30742C6.51329 8.31827 6.53894 8.33482 6.56048 8.35604C6.58203 8.37725 6.59901 8.40269 6.61038 8.43077C6.62176 8.45885 6.62728 8.48899 6.6266 8.5193C6.62225 8.57705 6.59801 8.63146 6.55806 8.67317C6.4559 8.78869 6.32992 8.88043 6.18889 8.94199C6.04787 9.00355 5.89519 9.03346 5.74149 9.02963C5.59268 9.03196 5.44492 9.00419 5.30698 8.94799C5.16905 8.89177 5.04375 8.80827 4.93854 8.70243C4.83333 8.59659 4.75034 8.47056 4.69451 8.33184C4.63869 8.19313 4.61115 8.04454 4.61354 7.89491ZM3.70123 7.23724H2.75618C2.69846 7.23693 2.64319 7.21373 2.60238 7.17268C2.56156 7.13164 2.5385 7.07605 2.53818 7.018C2.53787 6.98912 2.54329 6.96046 2.55413 6.93372C2.56497 6.90697 2.58102 6.88268 2.60133 6.86226C2.62163 6.84184 2.64579 6.8257 2.67238 6.8148C2.69898 6.80389 2.72747 6.79844 2.75618 6.79876H4.17168C4.2004 6.79844 4.22889 6.80389 4.25548 6.8148C4.28208 6.8257 4.30623 6.84184 4.32654 6.86226C4.34684 6.88268 4.36289 6.90697 4.37374 6.93372C4.38458 6.96046 4.39 6.98912 4.38968 7.018C4.38748 7.07647 4.36302 7.13186 4.32137 7.17272L3.17079 8.55388H4.17168C4.2004 8.55356 4.22889 8.55901 4.25548 8.56991C4.28208 8.58082 4.30623 8.59695 4.32654 8.61738C4.34684 8.6378 4.36289 8.6621 4.37374 8.68884C4.38458 8.71558 4.39 8.74424 4.38968 8.77312C4.38937 8.83117 4.3663 8.88675 4.32548 8.9278C4.28467 8.96884 4.22941 8.99205 4.17168 8.99236H2.70629C2.64794 8.99173 2.59223 8.96786 2.55136 8.92597C2.5105 8.88409 2.48781 8.82762 2.48829 8.76894C2.48981 8.71096 2.51267 8.65561 2.55244 8.61362L3.70123 7.23724ZM7.53187 9.61045V8.76968C7.72797 8.9425 7.98047 9.03707 8.24146 9.03543C8.85724 9.03543 9.3234 8.53371 9.3234 7.89852C9.3234 7.26332 8.85724 6.7616 8.24146 6.7616C7.97959 6.75924 7.72637 6.85557 7.53187 7.03153V7.00174C7.5238 6.94492 7.49557 6.89293 7.45238 6.85533C7.40918 6.81772 7.35391 6.79701 7.29672 6.79701C7.23953 6.79701 7.18426 6.81772 7.14106 6.85533C7.09786 6.89293 7.06964 6.94492 7.06157 7.00174V9.61045C7.06964 9.66726 7.09786 9.71925 7.14106 9.75686C7.18426 9.79446 7.23953 9.81517 7.29672 9.81517C7.35391 9.81517 7.40918 9.79446 7.45238 9.75686C7.49557 9.71925 7.5238 9.66726 7.53187 9.61045ZM8.1904 7.19897C8.55797 7.19897 8.84893 7.49929 8.84893 7.89852C8.84893 8.29775 8.55797 8.59807 8.1904 8.59807C7.82283 8.59807 7.53187 8.29775 7.53187 7.89852V7.86813C7.54493 7.48677 7.82283 7.19897 8.1904 7.19897ZM11.4405 7.2656C11.3163 7.4521 11.2499 7.67137 11.2499 7.89567C11.2473 8.04533 11.2747 8.19401 11.3307 8.3328C11.3865 8.4716 11.4697 8.59768 11.5752 8.70352C11.6808 8.80938 11.8065 8.89281 11.9449 8.94887C12.0833 9.00492 12.2315 9.03244 12.3808 9.02978C12.6044 9.02978 12.823 8.96326 13.009 8.83865C13.195 8.71403 13.3399 8.5369 13.4255 8.32967C13.5111 8.12244 13.5335 7.89441 13.4899 7.67442C13.4463 7.45442 13.3385 7.25234 13.1803 7.09373C13.0223 6.93512 12.8207 6.82711 12.6014 6.78335C12.382 6.73959 12.1546 6.76205 11.948 6.84789C11.7414 6.93373 11.5648 7.07909 11.4405 7.2656ZM12.3808 7.19785C12.7559 7.19785 13.0381 7.5105 13.0381 7.89567C13.0381 8.27668 12.7565 8.59349 12.3808 8.59349C12.005 8.59349 11.7235 8.28084 11.7235 7.89567C11.7235 7.5105 12.0056 7.19785 12.3808 7.19785Z" fill="url(#paint0_linear_3396_63395)"/>
</g>
</g>
</g>
<defs>
<filter id="filter0_d_3396_63395" x="-5.75" y="-4.75" width="27.5" height="27.5" filterUnits="userSpaceOnUse" color-interpolation-filters="sRGB">
<feFlood flood-opacity="0" result="BackgroundImageFix"/>
<feColorMatrix in="SourceAlpha" type="matrix" values="0 0 0 0 0 0 0 0 0 0 0 0 0 0 0 0 0 0 127 0" result="hardAlpha"/>
<feOffset dy="1"/>
<feGaussianBlur stdDeviation="3"/>
<feComposite in2="hardAlpha" operator="out"/>
<feColorMatrix type="matrix" values="0 0 0 0 0 0 0 0 0 0 0 0 0 0 0 0 0 0 0.08 0"/>
<feBlend mode="normal" in2="BackgroundImageFix" result="effect1_dropShadow_3396_63395"/>
<feBlend mode="normal" in="SourceGraphic" in2="effect1_dropShadow_3396_63395" result="shape"/>
</filter>
<linearGradient id="paint0_linear_3396_63395" x1="7.10707" y1="6.83048" x2="7.66013" y2="10.0689" gradientUnits="userSpaceOnUse">
<stop stop-color="#FF3269"/>
<stop offset="1" stop-color="#FF794D"/>
</linearGradient>
<clipPath id="clip0_3396_63395">
<rect width="16" height="16" fill="currentColor"/>
</clipPath>
<clipPath id="clip1_3396_63395">
<path d="M0.25 8C0.25 3.71979 3.71979 0.25 8 0.25C12.2802 0.25 15.75 3.71979 15.75 8C15.75 12.2802 12.2802 15.75 8 15.75C3.71979 15.75 0.25 12.2802 0.25 8Z" fill="currentColor"/>
</clipPath>
</defs>
</svg>
