<svg width="16" height="16" viewBox="0 0 16 16" fill="none" xmlns="http://www.w3.org/2000/svg">
<g clip-path="url(#clip0_3396_62858)">
<g clip-path="url(#clip1_3396_62858)">
<g filter="url(#filter0_d_3396_62858)">
<g clip-path="url(#clip2_3396_62858)">
<path d="M0.25 8C0.25 3.71979 3.71979 0.25 8 0.25C12.2802 0.25 15.75 3.71979 15.75 8C15.75 12.2802 12.2802 15.75 8 15.75C3.71979 15.75 0.25 12.2802 0.25 8Z" fill="currentColor"/>
<path d="M4.29598 7.44891L4.28639 7.75718L3.48239 8.63112C3.81824 8.63112 4.03119 8.62784 4.15399 8.62102C4.1184 8.78687 4.08946 8.92246 4.0603 9.12574C3.8988 9.1121 3.64701 9.10869 3.3951 9.10869C3.11428 9.10869 2.86885 9.11206 2.67188 9.12574L2.67844 8.81398L3.48239 7.94354C3.13044 7.94354 3.00124 7.94686 2.85602 7.95027C2.8882 7.79443 2.91083 7.62176 2.93342 7.44891C3.18849 7.45906 3.28858 7.46238 3.62118 7.46238C3.92795 7.46243 4.10221 7.45906 4.29598 7.44891ZM5.20982 7.35735C4.6866 7.35735 4.28639 7.82482 4.28639 8.38394C4.28639 8.80392 4.5285 9.12574 4.99989 9.12574C5.52623 9.12574 5.92337 8.65819 5.92337 8.09579C5.92341 7.67934 5.68761 7.35735 5.20982 7.35735ZM5.05155 8.67643C4.93527 8.67643 4.86754 8.57128 4.86754 8.36467C4.86754 8.05641 4.99346 7.80918 5.14853 7.80918C5.26144 7.80918 5.32926 7.91088 5.32926 8.12077C5.32921 8.42563 5.20662 8.67643 5.05155 8.67643ZM12.6052 7.33417C12.0752 7.33417 11.6697 7.80782 11.6697 8.37396C11.6697 8.79966 11.915 9.12574 12.3925 9.12574C12.9257 9.12574 13.3281 8.65205 13.3281 8.08237C13.3282 7.66029 13.0895 7.33417 12.6052 7.33417ZM12.4349 8.67464C12.3185 8.67464 12.2509 8.56949 12.2509 8.36288C12.2509 8.05462 12.3768 7.80743 12.5318 7.80743C12.6447 7.80743 12.7127 7.90905 12.7127 8.11898C12.7126 8.42396 12.5899 8.67464 12.4349 8.67464ZM8.63876 7.96719C8.68079 7.67934 8.6582 7.41844 8.33859 7.41844C8.10607 7.41844 7.85424 7.61494 7.67667 7.94354C7.71546 7.67244 7.69278 7.41844 7.37637 7.41844C7.13746 7.41844 6.87915 7.62504 6.70149 7.96719C6.74671 7.74362 6.73708 7.48949 6.72412 7.43532C6.54011 7.46584 6.37873 7.48271 6.15265 7.48949C6.15913 7.64537 6.14941 7.84848 6.12034 8.04174L6.04608 8.54979C6.01701 8.74975 5.9847 8.98009 5.95239 9.12579H6.55298C6.55626 9.0376 6.5789 8.89877 6.59501 8.77681L6.64667 8.42797C6.68862 8.20086 6.86939 7.93339 7.00822 7.93339C7.08895 7.93339 7.0858 8.01127 7.06316 8.15692L7.00502 8.54975C6.97587 8.74971 6.94368 8.98005 6.91133 9.12574H7.51836C7.52164 9.03755 7.54099 8.89872 7.5571 8.77677L7.60872 8.42793C7.65075 8.20082 7.83165 7.93335 7.9704 7.93335C8.05121 7.93335 8.04802 8.00777 8.03497 8.10948L7.88996 9.1257H8.44396L8.63876 7.96719ZM11.5394 8.59391L11.4749 8.99369C11.3747 9.04787 11.1874 9.12583 10.9711 9.12583C10.603 9.12583 10.5288 8.92933 10.5869 8.51267L10.6805 7.84192H10.4994L10.5505 7.40774L10.7483 7.39819L10.8226 7.08315L11.3811 6.87305L11.3102 7.39815H11.6944C11.6816 7.45232 11.6362 7.75053 11.6235 7.84187H11.2487L11.1648 8.46181C11.1422 8.62102 11.1552 8.67865 11.2648 8.67865C11.3457 8.67856 11.4651 8.63112 11.5394 8.59391ZM9.4208 8.80985C9.62408 8.78466 9.76398 8.58871 9.79761 8.39319L9.80328 8.3408C9.71594 8.32128 9.58968 8.3064 9.46727 8.32136C9.35069 8.33556 9.25367 8.38402 9.2015 8.45418C9.16215 8.50457 9.14238 8.56484 9.15116 8.63671C9.16441 8.74433 9.28347 8.8266 9.4208 8.80985ZM9.24779 9.11948C8.96088 9.15473 8.77192 9.04083 8.71519 8.7818C8.67959 8.6188 8.729 8.43313 8.8154 8.32235C8.93113 8.17746 9.1197 8.08445 9.34983 8.05636C9.53504 8.03339 9.69109 8.04473 9.83704 8.07235L9.84309 8.04733C9.84727 8.0073 9.85149 7.96736 9.84565 7.91954C9.83052 7.79673 9.73367 7.72359 9.49455 7.753C9.33321 7.77282 9.17972 7.83109 9.06054 7.89741L8.9446 7.54708C9.10614 7.45433 9.30976 7.38374 9.5428 7.35514C9.98793 7.30053 10.3007 7.44248 10.3408 7.76881C10.3514 7.8556 10.3527 7.94758 10.3417 8.03104C10.2846 8.43453 10.2479 8.73815 10.2319 8.94165C10.2293 8.97315 10.2295 9.02728 10.2323 9.10401L9.67992 9.10349C9.69169 9.0717 9.70222 9.02856 9.71159 8.97447C9.71782 8.93888 9.72225 8.89399 9.72502 8.8396C9.60827 8.99979 9.44779 9.09493 9.24779 9.11948Z" fill="currentColor"/>
</g>
</g>
</g>
</g>
<defs>
<filter id="filter0_d_3396_62858" x="-5.5625" y="-4.59375" width="27.125" height="27.125" filterUnits="userSpaceOnUse" color-interpolation-filters="sRGB">
<feFlood flood-opacity="0" result="BackgroundImageFix"/>
<feColorMatrix in="SourceAlpha" type="matrix" values="0 0 0 0 0 0 0 0 0 0 0 0 0 0 0 0 0 0 127 0" result="hardAlpha"/>
<feOffset dy="0.96875"/>
<feGaussianBlur stdDeviation="2.90625"/>
<feComposite in2="hardAlpha" operator="out"/>
<feColorMatrix type="matrix" values="0 0 0 0 0 0 0 0 0 0 0 0 0 0 0 0 0 0 0.08 0"/>
<feBlend mode="normal" in2="BackgroundImageFix" result="effect1_dropShadow_3396_62858"/>
<feBlend mode="normal" in="SourceGraphic" in2="effect1_dropShadow_3396_62858" result="shape"/>
</filter>
<clipPath id="clip0_3396_62858">
<rect width="16" height="16" fill="currentColor"/>
</clipPath>
<clipPath id="clip1_3396_62858">
<rect width="16" height="16" fill="currentColor"/>
</clipPath>
<clipPath id="clip2_3396_62858">
<path d="M0.25 8C0.25 3.71979 3.71979 0.25 8 0.25C12.2802 0.25 15.75 3.71979 15.75 8C15.75 12.2802 12.2802 15.75 8 15.75C3.71979 15.75 0.25 12.2802 0.25 8Z" fill="currentColor"/>
</clipPath>
</defs>
</svg>
