<svg width="375" height="110" viewBox="0 0 375 110" fill="none" xmlns="http://www.w3.org/2000/svg">
<rect x="16" width="285" height="50" rx="25" fill="#089959"/>
<text fill="#FFFFFE" style="white-space: pre" xml:space="preserve" font-family="Basier Circle" font-size="16" letter-spacing="0px"><tspan x="132.883" y="30.6953">Button</tspan></text>
<rect x="309.7" y="0.7" width="48.6" height="48.6" rx="24.3" stroke="#089958" stroke-width="1.4"/>
<g clip-path="url(#clip0_1625_48882)">
<path d="M334 19C334.552 19 335 18.5523 335 18C335 17.4477 334.552 17 334 17C333.448 17 333 17.4477 333 18C333 18.5523 333.448 19 334 19Z" stroke="#089958" stroke-width="1.75" stroke-linecap="round" stroke-linejoin="round"/>
<path d="M334 26C334.552 26 335 25.5523 335 25C335 24.4477 334.552 24 334 24C333.448 24 333 24.4477 333 25C333 25.5523 333.448 26 334 26Z" stroke="#089958" stroke-width="1.75" stroke-linecap="round" stroke-linejoin="round"/>
<path d="M334 33C334.552 33 335 32.5523 335 32C335 31.4477 334.552 31 334 31C333.448 31 333 31.4477 333 32C333 32.5523 333.448 33 334 33Z" stroke="#089958" stroke-width="1.75" stroke-linecap="round" stroke-linejoin="round"/>
<path d="M341 19C341.552 19 342 18.5523 342 18C342 17.4477 341.552 17 341 17C340.448 17 340 17.4477 340 18C340 18.5523 340.448 19 341 19Z" stroke="#089958" stroke-width="1.75" stroke-linecap="round" stroke-linejoin="round"/>
<path d="M341 26C341.552 26 342 25.5523 342 25C342 24.4477 341.552 24 341 24C340.448 24 340 24.4477 340 25C340 25.5523 340.448 26 341 26Z" stroke="#089958" stroke-width="1.75" stroke-linecap="round" stroke-linejoin="round"/>
<path d="M341 33C341.552 33 342 32.5523 342 32C342 31.4477 341.552 31 341 31C340.448 31 340 31.4477 340 32C340 32.5523 340.448 33 341 33Z" stroke="#089958" stroke-width="1.75" stroke-linecap="round" stroke-linejoin="round"/>
<path d="M327 19C327.552 19 328 18.5523 328 18C328 17.4477 327.552 17 327 17C326.448 17 326 17.4477 326 18C326 18.5523 326.448 19 327 19Z" stroke="#089958" stroke-width="1.75" stroke-linecap="round" stroke-linejoin="round"/>
<path d="M327 26C327.552 26 328 25.5523 328 25C328 24.4477 327.552 24 327 24C326.448 24 326 24.4477 326 25C326 25.5523 326.448 26 327 26Z" stroke="#089958" stroke-width="1.75" stroke-linecap="round" stroke-linejoin="round"/>
<path d="M327 33C327.552 33 328 32.5523 328 32C328 31.4477 327.552 31 327 31C326.448 31 326 31.4477 326 32C326 32.5523 326.448 33 327 33Z" stroke="#089958" stroke-width="1.75" stroke-linecap="round" stroke-linejoin="round"/>
</g>
<path d="M0 62H375V90C375 101.046 366.046 110 355 110H20C8.95431 110 0 101.046 0 90V62Z" fill="#F9F9F9"/>
<g clip-path="url(#clip1_1625_48882)">
<g clip-path="url(#clip2_1625_48882)">
<path d="M129.047 76.5599H128.132C125.905 76.5599 124.125 75.4271 122.193 74.0575C122.138 74.0207 122.073 74.001 122.007 74.001C121.941 74.001 121.876 74.0207 121.821 74.0575C119.882 75.4271 118.103 76.5599 115.876 76.5599H114.961C114.876 76.5599 114.794 76.5937 114.734 76.6537C114.674 76.7137 114.641 76.7951 114.641 76.8799V77.1615C114.641 80.0415 114.602 86.7615 121.86 89.9615C121.907 89.9863 121.96 89.9994 122.013 89.9999C122.081 89.9995 122.146 89.977 122.199 89.9359C129.399 86.7487 129.361 80.0351 129.361 77.1615V76.8799C129.361 76.8382 129.354 76.7967 129.339 76.758C129.323 76.7192 129.3 76.6838 129.271 76.654C129.242 76.6242 129.207 76.6006 129.169 76.5844C129.13 76.5682 129.089 76.5599 129.047 76.5599ZM121.476 84.6943C121.356 84.8135 121.194 84.8804 121.025 84.8804C120.856 84.8804 120.693 84.8135 120.573 84.6943L118.346 82.4799L119.249 81.5711L121.041 83.3375L125.405 78.9855L126.308 79.8943L121.476 84.6943Z" fill="#089958"/>
<g clip-path="url(#clip3_1625_48882)">
<g clip-path="url(#clip4_1625_48882)">
<path d="M129.047 76.5599H128.132C125.905 76.5599 124.125 75.4271 122.193 74.0575C122.138 74.0207 122.073 74.001 122.007 74.001C121.941 74.001 121.876 74.0207 121.821 74.0575C119.882 75.4271 118.103 76.5599 115.876 76.5599H114.961C114.876 76.5599 114.794 76.5937 114.734 76.6537C114.674 76.7137 114.641 76.7951 114.641 76.8799V77.1615C114.641 80.0415 114.602 86.7615 121.86 89.9615C121.907 89.9863 121.96 89.9994 122.013 89.9999C122.081 89.9995 122.146 89.977 122.199 89.9359C129.399 86.7487 129.361 80.0351 129.361 77.1615V76.8799C129.361 76.8382 129.354 76.7967 129.339 76.758C129.323 76.7192 129.3 76.6838 129.271 76.654C129.242 76.6242 129.207 76.6006 129.169 76.5844C129.13 76.5682 129.089 76.5599 129.047 76.5599ZM121.476 84.6943C121.356 84.8135 121.194 84.8804 121.025 84.8804C120.856 84.8804 120.693 84.8135 120.573 84.6943L118.346 82.4799L119.249 81.5711L121.041 83.3375L125.405 78.9855L126.308 79.8943L121.476 84.6943Z" fill="#089958"/>
</g>
</g>
</g>
</g>
<text fill="#393B3E" style="white-space: pre" xml:space="preserve" font-family="Basier Circle" font-size="12" letter-spacing="0px"><tspan x="138" y="86.2891">100% safe and secure</tspan></text>
<defs>
<clipPath id="clip0_1625_48882">
<rect width="24" height="24" fill="white" transform="translate(322 13)"/>
</clipPath>
<clipPath id="clip1_1625_48882">
<rect width="16" height="16" fill="white" transform="translate(114 74)"/>
</clipPath>
<clipPath id="clip2_1625_48882">
<rect width="16" height="16" fill="white" transform="translate(114 74)"/>
</clipPath>
<clipPath id="clip3_1625_48882">
<rect width="16" height="16" fill="white" transform="translate(114 74)"/>
</clipPath>
<clipPath id="clip4_1625_48882">
<rect width="16" height="16" fill="white" transform="translate(114 74)"/>
</clipPath>
</defs>
</svg>
