<svg width="375" height="142" viewBox="0 0 375 142" fill="none" xmlns="http://www.w3.org/2000/svg">
<rect x="18.5013" y="2.49996" width="15" height="15" rx="2.5" fill="#089959" stroke="#089959" stroke-width="1.66667"/>
<path d="M22.668 10L24.8733 12.2054C25.0361 12.3681 25.2999 12.3681 25.4626 12.2054L30.168 7.5" stroke="#FFFFFE" stroke-width="1.66667" stroke-linecap="round"/>
<text fill="#5E6063" style="white-space: pre" xml:space="preserve" font-family="Basier Circle" font-size="12" letter-spacing="0px"><tspan x="40" y="14.2891">I agree to Insta Plus TnC and authorize sharing details</tspan></text>
<rect x="16" y="32" width="343" height="50" rx="25" fill="#089959"/>
<text fill="#FFFFFE" style="white-space: pre" xml:space="preserve" font-family="Basier Circle" font-size="16" letter-spacing="0px"><tspan x="161.883" y="62.6953">Button</tspan></text>
<path d="M0 94H375V122C375 133.046 366.046 142 355 142H20C8.95431 142 0 133.046 0 122V94Z" fill="#F9F9F9"/>
<g clip-path="url(#clip0_1625_49207)">
<g clip-path="url(#clip1_1625_49207)">
<path d="M129.047 108.56H128.132C125.905 108.56 124.125 107.427 122.193 106.058C122.138 106.021 122.073 106.001 122.007 106.001C121.941 106.001 121.876 106.021 121.821 106.058C119.882 107.427 118.103 108.56 115.876 108.56H114.961C114.876 108.56 114.794 108.594 114.734 108.654C114.674 108.714 114.641 108.795 114.641 108.88V109.162C114.641 112.042 114.602 118.762 121.86 121.962C121.907 121.986 121.96 121.999 122.013 122C122.081 121.999 122.146 121.977 122.199 121.936C129.399 118.749 129.361 112.035 129.361 109.162V108.88C129.361 108.838 129.354 108.797 129.339 108.758C129.323 108.719 129.3 108.684 129.271 108.654C129.242 108.624 129.207 108.601 129.169 108.584C129.13 108.568 129.089 108.56 129.047 108.56ZM121.476 116.694C121.356 116.814 121.194 116.88 121.025 116.88C120.856 116.88 120.693 116.814 120.573 116.694L118.346 114.48L119.249 113.571L121.041 115.338L125.405 110.986L126.308 111.894L121.476 116.694Z" fill="#089958"/>
<g clip-path="url(#clip2_1625_49207)">
<g clip-path="url(#clip3_1625_49207)">
<path d="M129.047 108.56H128.132C125.905 108.56 124.125 107.427 122.193 106.058C122.138 106.021 122.073 106.001 122.007 106.001C121.941 106.001 121.876 106.021 121.821 106.058C119.882 107.427 118.103 108.56 115.876 108.56H114.961C114.876 108.56 114.794 108.594 114.734 108.654C114.674 108.714 114.641 108.795 114.641 108.88V109.162C114.641 112.042 114.602 118.762 121.86 121.962C121.907 121.986 121.96 121.999 122.013 122C122.081 121.999 122.146 121.977 122.199 121.936C129.399 118.749 129.361 112.035 129.361 109.162V108.88C129.361 108.838 129.354 108.797 129.339 108.758C129.323 108.719 129.3 108.684 129.271 108.654C129.242 108.624 129.207 108.601 129.169 108.584C129.13 108.568 129.089 108.56 129.047 108.56ZM121.476 116.694C121.356 116.814 121.194 116.88 121.025 116.88C120.856 116.88 120.693 116.814 120.573 116.694L118.346 114.48L119.249 113.571L121.041 115.338L125.405 110.986L126.308 111.894L121.476 116.694Z" fill="#089958"/>
</g>
</g>
</g>
</g>
<text fill="#393B3E" style="white-space: pre" xml:space="preserve" font-family="Basier Circle" font-size="12" letter-spacing="0px"><tspan x="138" y="118.289">100% safe and secure</tspan></text>
<defs>
<clipPath id="clip0_1625_49207">
<rect width="16" height="16" fill="white" transform="translate(114 106)"/>
</clipPath>
<clipPath id="clip1_1625_49207">
<rect width="16" height="16" fill="white" transform="translate(114 106)"/>
</clipPath>
<clipPath id="clip2_1625_49207">
<rect width="16" height="16" fill="white" transform="translate(114 106)"/>
</clipPath>
<clipPath id="clip3_1625_49207">
<rect width="16" height="16" fill="white" transform="translate(114 106)"/>
</clipPath>
</defs>
</svg>
