<svg width="375" height="148" viewBox="0 0 375 148" fill="none" xmlns="http://www.w3.org/2000/svg">
<rect x="16" width="343" height="50" rx="25" fill="#089959"/>
<text fill="#FFFFFE" style="white-space: pre" xml:space="preserve" font-family="Basier Circle" font-size="16" letter-spacing="0px"><tspan x="161.883" y="30.6953">Button</tspan></text>
<text fill="#089958" style="white-space: pre" xml:space="preserve" font-family="Basier Circle" font-size="16" letter-spacing="0px"><tspan x="161.883" y="80.6953">Button</tspan></text>
<path d="M0 100H375V128C375 139.046 366.046 148 355 148H20C8.95431 148 0 139.046 0 128V100Z" fill="#F9F9F9"/>
<g clip-path="url(#clip0_1625_48872)">
<g clip-path="url(#clip1_1625_48872)">
<path d="M129.047 114.56H128.132C125.905 114.56 124.125 113.427 122.193 112.058C122.138 112.021 122.073 112.001 122.007 112.001C121.941 112.001 121.876 112.021 121.821 112.058C119.882 113.427 118.103 114.56 115.876 114.56H114.961C114.876 114.56 114.794 114.594 114.734 114.654C114.674 114.714 114.641 114.795 114.641 114.88V115.162C114.641 118.042 114.602 124.762 121.86 127.962C121.907 127.986 121.96 127.999 122.013 128C122.081 127.999 122.146 127.977 122.199 127.936C129.399 124.749 129.361 118.035 129.361 115.162V114.88C129.361 114.838 129.354 114.797 129.339 114.758C129.323 114.719 129.3 114.684 129.271 114.654C129.242 114.624 129.207 114.601 129.169 114.584C129.13 114.568 129.089 114.56 129.047 114.56ZM121.476 122.694C121.356 122.814 121.194 122.88 121.025 122.88C120.856 122.88 120.693 122.814 120.573 122.694L118.346 120.48L119.249 119.571L121.041 121.338L125.405 116.986L126.308 117.894L121.476 122.694Z" fill="#089958"/>
<g clip-path="url(#clip2_1625_48872)">
<g clip-path="url(#clip3_1625_48872)">
<path d="M129.047 114.56H128.132C125.905 114.56 124.125 113.427 122.193 112.058C122.138 112.021 122.073 112.001 122.007 112.001C121.941 112.001 121.876 112.021 121.821 112.058C119.882 113.427 118.103 114.56 115.876 114.56H114.961C114.876 114.56 114.794 114.594 114.734 114.654C114.674 114.714 114.641 114.795 114.641 114.88V115.162C114.641 118.042 114.602 124.762 121.86 127.962C121.907 127.986 121.96 127.999 122.013 128C122.081 127.999 122.146 127.977 122.199 127.936C129.399 124.749 129.361 118.035 129.361 115.162V114.88C129.361 114.838 129.354 114.797 129.339 114.758C129.323 114.719 129.3 114.684 129.271 114.654C129.242 114.624 129.207 114.601 129.169 114.584C129.13 114.568 129.089 114.56 129.047 114.56ZM121.476 122.694C121.356 122.814 121.194 122.88 121.025 122.88C120.856 122.88 120.693 122.814 120.573 122.694L118.346 120.48L119.249 119.571L121.041 121.338L125.405 116.986L126.308 117.894L121.476 122.694Z" fill="#089958"/>
</g>
</g>
</g>
</g>
<text fill="#393B3E" style="white-space: pre" xml:space="preserve" font-family="Basier Circle" font-size="12" letter-spacing="0px"><tspan x="138" y="124.289">100% safe and secure</tspan></text>
<defs>
<clipPath id="clip0_1625_48872">
<rect width="16" height="16" fill="white" transform="translate(114 112)"/>
</clipPath>
<clipPath id="clip1_1625_48872">
<rect width="16" height="16" fill="white" transform="translate(114 112)"/>
</clipPath>
<clipPath id="clip2_1625_48872">
<rect width="16" height="16" fill="white" transform="translate(114 112)"/>
</clipPath>
<clipPath id="clip3_1625_48872">
<rect width="16" height="16" fill="white" transform="translate(114 112)"/>
</clipPath>
</defs>
</svg>
