<svg width="375" height="122" viewBox="0 0 375 122" fill="none" xmlns="http://www.w3.org/2000/svg">
<path d="M0 0H375V102C375 113.046 366.046 122 355 122H20C8.95431 122 0 113.046 0 102V0Z" fill="white"/>
<rect x="16" y="12" width="285" height="50" rx="25" fill="#089959"/>
<text fill="#FFFFFE" style="white-space: pre" xml:space="preserve" font-family="Basier Circle" font-size="16" letter-spacing="0px"><tspan x="132.883" y="42.6953">Button</tspan></text>
<rect x="309.7" y="12.7" width="48.6" height="48.6" rx="24.3" stroke="#089958" stroke-width="1.4"/>
<g clip-path="url(#clip0_1625_47536)">
<path d="M334 31C334.552 31 335 30.5523 335 30C335 29.4477 334.552 29 334 29C333.448 29 333 29.4477 333 30C333 30.5523 333.448 31 334 31Z" stroke="#089958" stroke-width="1.75" stroke-linecap="round" stroke-linejoin="round"/>
<path d="M334 38C334.552 38 335 37.5523 335 37C335 36.4477 334.552 36 334 36C333.448 36 333 36.4477 333 37C333 37.5523 333.448 38 334 38Z" stroke="#089958" stroke-width="1.75" stroke-linecap="round" stroke-linejoin="round"/>
<path d="M334 45C334.552 45 335 44.5523 335 44C335 43.4477 334.552 43 334 43C333.448 43 333 43.4477 333 44C333 44.5523 333.448 45 334 45Z" stroke="#089958" stroke-width="1.75" stroke-linecap="round" stroke-linejoin="round"/>
<path d="M341 31C341.552 31 342 30.5523 342 30C342 29.4477 341.552 29 341 29C340.448 29 340 29.4477 340 30C340 30.5523 340.448 31 341 31Z" stroke="#089958" stroke-width="1.75" stroke-linecap="round" stroke-linejoin="round"/>
<path d="M341 38C341.552 38 342 37.5523 342 37C342 36.4477 341.552 36 341 36C340.448 36 340 36.4477 340 37C340 37.5523 340.448 38 341 38Z" stroke="#089958" stroke-width="1.75" stroke-linecap="round" stroke-linejoin="round"/>
<path d="M341 45C341.552 45 342 44.5523 342 44C342 43.4477 341.552 43 341 43C340.448 43 340 43.4477 340 44C340 44.5523 340.448 45 341 45Z" stroke="#089958" stroke-width="1.75" stroke-linecap="round" stroke-linejoin="round"/>
<path d="M327 31C327.552 31 328 30.5523 328 30C328 29.4477 327.552 29 327 29C326.448 29 326 29.4477 326 30C326 30.5523 326.448 31 327 31Z" stroke="#089958" stroke-width="1.75" stroke-linecap="round" stroke-linejoin="round"/>
<path d="M327 38C327.552 38 328 37.5523 328 37C328 36.4477 327.552 36 327 36C326.448 36 326 36.4477 326 37C326 37.5523 326.448 38 327 38Z" stroke="#089958" stroke-width="1.75" stroke-linecap="round" stroke-linejoin="round"/>
<path d="M327 45C327.552 45 328 44.5523 328 44C328 43.4477 327.552 43 327 43C326.448 43 326 43.4477 326 44C326 44.5523 326.448 45 327 45Z" stroke="#089958" stroke-width="1.75" stroke-linecap="round" stroke-linejoin="round"/>
</g>
<path d="M0 74H375V102C375 113.046 366.046 122 355 122H20C8.95431 122 0 113.046 0 102V74Z" fill="#F9F9F9"/>
<g clip-path="url(#clip1_1625_47536)">
<g clip-path="url(#clip2_1625_47536)">
<path d="M129.047 88.5599H128.132C125.905 88.5599 124.125 87.4271 122.193 86.0575C122.138 86.0207 122.073 86.001 122.007 86.001C121.941 86.001 121.876 86.0207 121.821 86.0575C119.882 87.4271 118.103 88.5599 115.876 88.5599H114.961C114.876 88.5599 114.794 88.5937 114.734 88.6537C114.674 88.7137 114.641 88.7951 114.641 88.8799V89.1615C114.641 92.0415 114.602 98.7615 121.86 101.962C121.907 101.986 121.96 101.999 122.013 102C122.081 101.999 122.146 101.977 122.199 101.936C129.399 98.7487 129.361 92.0351 129.361 89.1615V88.8799C129.361 88.8382 129.354 88.7967 129.339 88.758C129.323 88.7192 129.3 88.6838 129.271 88.654C129.242 88.6242 129.207 88.6006 129.169 88.5844C129.13 88.5682 129.089 88.5599 129.047 88.5599ZM121.476 96.6943C121.356 96.8135 121.194 96.8804 121.025 96.8804C120.856 96.8804 120.693 96.8135 120.573 96.6943L118.346 94.4799L119.249 93.5711L121.041 95.3375L125.405 90.9855L126.308 91.8943L121.476 96.6943Z" fill="#089958"/>
<g clip-path="url(#clip3_1625_47536)">
<g clip-path="url(#clip4_1625_47536)">
<path d="M129.047 88.5599H128.132C125.905 88.5599 124.125 87.4271 122.193 86.0575C122.138 86.0207 122.073 86.001 122.007 86.001C121.941 86.001 121.876 86.0207 121.821 86.0575C119.882 87.4271 118.103 88.5599 115.876 88.5599H114.961C114.876 88.5599 114.794 88.5937 114.734 88.6537C114.674 88.7137 114.641 88.7951 114.641 88.8799V89.1615C114.641 92.0415 114.602 98.7615 121.86 101.962C121.907 101.986 121.96 101.999 122.013 102C122.081 101.999 122.146 101.977 122.199 101.936C129.399 98.7487 129.361 92.0351 129.361 89.1615V88.8799C129.361 88.8382 129.354 88.7967 129.339 88.758C129.323 88.7192 129.3 88.6838 129.271 88.654C129.242 88.6242 129.207 88.6006 129.169 88.5844C129.13 88.5682 129.089 88.5599 129.047 88.5599ZM121.476 96.6943C121.356 96.8135 121.194 96.8804 121.025 96.8804C120.856 96.8804 120.693 96.8135 120.573 96.6943L118.346 94.4799L119.249 93.5711L121.041 95.3375L125.405 90.9855L126.308 91.8943L121.476 96.6943Z" fill="#089958"/>
</g>
</g>
</g>
</g>
<text fill="#393B3E" style="white-space: pre" xml:space="preserve" font-family="Basier Circle" font-size="12" letter-spacing="0px"><tspan x="138" y="98.2891">100% safe and secure</tspan></text>
<defs>
<clipPath id="clip0_1625_47536">
<rect width="24" height="24" fill="white" transform="translate(322 25)"/>
</clipPath>
<clipPath id="clip1_1625_47536">
<rect width="16" height="16" fill="white" transform="translate(114 86)"/>
</clipPath>
<clipPath id="clip2_1625_47536">
<rect width="16" height="16" fill="white" transform="translate(114 86)"/>
</clipPath>
<clipPath id="clip3_1625_47536">
<rect width="16" height="16" fill="white" transform="translate(114 86)"/>
</clipPath>
<clipPath id="clip4_1625_47536">
<rect width="16" height="16" fill="white" transform="translate(114 86)"/>
</clipPath>
</defs>
</svg>
