<svg width="375" height="154" viewBox="0 0 375 154" fill="none" xmlns="http://www.w3.org/2000/svg">
<path d="M0 0H375V134C375 145.046 366.046 154 355 154H20C8.95431 154 0 145.046 0 134V0Z" fill="white"/>
<rect x="18.5013" y="14.5001" width="15" height="15" rx="2.5" fill="#089959" stroke="#089959" stroke-width="1.66667"/>
<path d="M22.668 22L24.8733 24.2054C25.0361 24.3681 25.2999 24.3681 25.4626 24.2054L30.168 19.5" stroke="#FFFFFE" stroke-width="1.66667" stroke-linecap="round"/>
<text fill="#5E6063" style="white-space: pre" xml:space="preserve" font-family="Basier Circle" font-size="12" letter-spacing="0px"><tspan x="40" y="26.2891">I agree to Insta Plus TnC and authorize sharing details</tspan></text>
<rect x="16" y="44" width="109" height="50" rx="25" fill="#017AFF"/>
<text fill="#FFFFFE" style="white-space: pre" xml:space="preserve" font-family="Basier Circle" font-size="16" letter-spacing="0px"><tspan x="57.9141" y="74.6953">SIP</tspan></text>
<rect x="134" y="45" width="107" height="48" rx="24" fill="#DD2624"/>
<rect x="134" y="45" width="107" height="48" rx="24" stroke="#DD2625" stroke-width="2"/>
<text fill="#FFFFFE" style="white-space: pre" xml:space="preserve" font-family="Basier Circle" font-size="16" letter-spacing="0px"><tspan x="174.016" y="74.6953">Sell</tspan></text>
<rect x="250" y="44" width="109" height="50" rx="25" fill="#089959"/>
<text fill="#FFFFFE" style="white-space: pre" xml:space="preserve" font-family="Basier Circle" font-size="16" letter-spacing="0px"><tspan x="290.195" y="74.6953">Buy</tspan></text>
<path d="M0 106H375V134C375 145.046 366.046 154 355 154H20C8.95431 154 0 145.046 0 134V106Z" fill="#F9F9F9"/>
<g clip-path="url(#clip0_3675_38578)">
<g clip-path="url(#clip1_3675_38578)">
<path d="M129.047 120.56H128.132C125.905 120.56 124.125 119.427 122.193 118.058C122.138 118.021 122.073 118.001 122.007 118.001C121.941 118.001 121.876 118.021 121.821 118.058C119.882 119.427 118.103 120.56 115.876 120.56H114.961C114.876 120.56 114.794 120.594 114.734 120.654C114.674 120.714 114.641 120.795 114.641 120.88V121.162C114.641 124.042 114.602 130.762 121.86 133.962C121.907 133.986 121.96 133.999 122.013 134C122.081 133.999 122.146 133.977 122.199 133.936C129.399 130.749 129.361 124.035 129.361 121.162V120.88C129.361 120.838 129.354 120.797 129.339 120.758C129.323 120.719 129.3 120.684 129.271 120.654C129.242 120.624 129.207 120.601 129.169 120.584C129.13 120.568 129.089 120.56 129.047 120.56ZM121.476 128.694C121.356 128.814 121.194 128.88 121.025 128.88C120.856 128.88 120.693 128.814 120.573 128.694L118.346 126.48L119.249 125.571L121.041 127.338L125.405 122.986L126.308 123.894L121.476 128.694Z" fill="#089958"/>
<g clip-path="url(#clip2_3675_38578)">
<g clip-path="url(#clip3_3675_38578)">
<path d="M129.047 120.56H128.132C125.905 120.56 124.125 119.427 122.193 118.058C122.138 118.021 122.073 118.001 122.007 118.001C121.941 118.001 121.876 118.021 121.821 118.058C119.882 119.427 118.103 120.56 115.876 120.56H114.961C114.876 120.56 114.794 120.594 114.734 120.654C114.674 120.714 114.641 120.795 114.641 120.88V121.162C114.641 124.042 114.602 130.762 121.86 133.962C121.907 133.986 121.96 133.999 122.013 134C122.081 133.999 122.146 133.977 122.199 133.936C129.399 130.749 129.361 124.035 129.361 121.162V120.88C129.361 120.838 129.354 120.797 129.339 120.758C129.323 120.719 129.3 120.684 129.271 120.654C129.242 120.624 129.207 120.601 129.169 120.584C129.13 120.568 129.089 120.56 129.047 120.56ZM121.476 128.694C121.356 128.814 121.194 128.88 121.025 128.88C120.856 128.88 120.693 128.814 120.573 128.694L118.346 126.48L119.249 125.571L121.041 127.338L125.405 122.986L126.308 123.894L121.476 128.694Z" fill="#089958"/>
</g>
</g>
</g>
</g>
<text fill="#393B3E" style="white-space: pre" xml:space="preserve" font-family="Basier Circle" font-size="12" letter-spacing="0px"><tspan x="138" y="130.289">100% safe and secure</tspan></text>
<defs>
<clipPath id="clip0_3675_38578">
<rect width="16" height="16" fill="white" transform="translate(114 118)"/>
</clipPath>
<clipPath id="clip1_3675_38578">
<rect width="16" height="16" fill="white" transform="translate(114 118)"/>
</clipPath>
<clipPath id="clip2_3675_38578">
<rect width="16" height="16" fill="white" transform="translate(114 118)"/>
</clipPath>
<clipPath id="clip3_3675_38578">
<rect width="16" height="16" fill="white" transform="translate(114 118)"/>
</clipPath>
</defs>
</svg>
