<svg width="375" height="160" viewBox="0 0 375 160" fill="none" xmlns="http://www.w3.org/2000/svg">
<path d="M0 0H375V140C375 151.046 366.046 160 355 160H20C8.95431 160 0 151.046 0 140V0Z" fill="white"/>
<rect x="16" y="12" width="343" height="50" rx="25" fill="#089959"/>
<text fill="#FFFFFE" style="white-space: pre" xml:space="preserve" font-family="Basier Circle" font-size="16" letter-spacing="0px"><tspan x="161.883" y="42.6953">Button</tspan></text>
<text fill="#089958" style="white-space: pre" xml:space="preserve" font-family="Basier Circle" font-size="16" letter-spacing="0px"><tspan x="161.883" y="92.6953">Button</tspan></text>
<path d="M0 112H375V140C375 151.046 366.046 160 355 160H20C8.95431 160 0 151.046 0 140V112Z" fill="#F9F9F9"/>
<g clip-path="url(#clip0_1625_47531)">
<g clip-path="url(#clip1_1625_47531)">
<path d="M129.047 126.56H128.132C125.905 126.56 124.125 125.427 122.193 124.058C122.138 124.021 122.073 124.001 122.007 124.001C121.941 124.001 121.876 124.021 121.821 124.058C119.882 125.427 118.103 126.56 115.876 126.56H114.961C114.876 126.56 114.794 126.594 114.734 126.654C114.674 126.714 114.641 126.795 114.641 126.88V127.162C114.641 130.042 114.602 136.762 121.86 139.962C121.907 139.986 121.96 139.999 122.013 140C122.081 139.999 122.146 139.977 122.199 139.936C129.399 136.749 129.361 130.035 129.361 127.162V126.88C129.361 126.838 129.354 126.797 129.339 126.758C129.323 126.719 129.3 126.684 129.271 126.654C129.242 126.624 129.207 126.601 129.169 126.584C129.13 126.568 129.089 126.56 129.047 126.56ZM121.476 134.694C121.356 134.814 121.194 134.88 121.025 134.88C120.856 134.88 120.693 134.814 120.573 134.694L118.346 132.48L119.249 131.571L121.041 133.338L125.405 128.986L126.308 129.894L121.476 134.694Z" fill="#089958"/>
<g clip-path="url(#clip2_1625_47531)">
<g clip-path="url(#clip3_1625_47531)">
<path d="M129.047 126.56H128.132C125.905 126.56 124.125 125.427 122.193 124.058C122.138 124.021 122.073 124.001 122.007 124.001C121.941 124.001 121.876 124.021 121.821 124.058C119.882 125.427 118.103 126.56 115.876 126.56H114.961C114.876 126.56 114.794 126.594 114.734 126.654C114.674 126.714 114.641 126.795 114.641 126.88V127.162C114.641 130.042 114.602 136.762 121.86 139.962C121.907 139.986 121.96 139.999 122.013 140C122.081 139.999 122.146 139.977 122.199 139.936C129.399 136.749 129.361 130.035 129.361 127.162V126.88C129.361 126.838 129.354 126.797 129.339 126.758C129.323 126.719 129.3 126.684 129.271 126.654C129.242 126.624 129.207 126.601 129.169 126.584C129.13 126.568 129.089 126.56 129.047 126.56ZM121.476 134.694C121.356 134.814 121.194 134.88 121.025 134.88C120.856 134.88 120.693 134.814 120.573 134.694L118.346 132.48L119.249 131.571L121.041 133.338L125.405 128.986L126.308 129.894L121.476 134.694Z" fill="#089958"/>
</g>
</g>
</g>
</g>
<text fill="#393B3E" style="white-space: pre" xml:space="preserve" font-family="Basier Circle" font-size="12" letter-spacing="0px"><tspan x="138" y="136.289">100% safe and secure</tspan></text>
<defs>
<clipPath id="clip0_1625_47531">
<rect width="16" height="16" fill="white" transform="translate(114 124)"/>
</clipPath>
<clipPath id="clip1_1625_47531">
<rect width="16" height="16" fill="white" transform="translate(114 124)"/>
</clipPath>
<clipPath id="clip2_1625_47531">
<rect width="16" height="16" fill="white" transform="translate(114 124)"/>
</clipPath>
<clipPath id="clip3_1625_47531">
<rect width="16" height="16" fill="white" transform="translate(114 124)"/>
</clipPath>
</defs>
</svg>
