<svg width="399" height="98" viewBox="0 0 399 98" fill="none" xmlns="http://www.w3.org/2000/svg">
<g filter="url(#filter0_ddd_1660_5505)">
<g clip-path="url(#clip0_1660_5505)">
<rect width="375" height="73.0141" transform="translate(12 11)" fill="white"/>
<g clip-path="url(#clip1_1660_5505)">
<path d="M49.4141 22.0498H59.585C59.6858 22.0498 59.7673 22.1316 59.7676 22.2324V23.3809C59.7674 23.4817 59.6859 23.5635 59.585 23.5635H55.6191C55.4848 23.5636 55.3867 23.6523 55.3447 23.7598C55.3029 23.8669 55.3132 24.0009 55.4014 24.0986C55.5875 24.305 55.7524 24.53 55.8955 24.7734C56.1184 25.1526 56.2694 25.5905 56.3486 26.0879C56.3709 26.2275 56.4898 26.3358 56.6338 26.3359H59.585C59.6859 26.3359 59.7676 26.4176 59.7676 26.5186V27.666C59.7676 27.767 59.686 27.8496 59.585 27.8496H56.6895C56.5434 27.8496 56.4235 27.9601 56.4043 28.1025C56.2537 29.2181 55.7876 30.0941 55.0078 30.7344C54.2661 31.3409 53.2963 31.7485 52.0967 31.9551C51.8973 31.9897 51.7885 32.2159 51.8965 32.3906L56.3955 39.6709C56.4708 39.7927 56.3834 39.9502 56.2402 39.9502H54.1709C54.1059 39.9501 54.0454 39.9155 54.0127 39.8594L49.2568 31.71C49.2406 31.6821 49.2315 31.6504 49.2314 31.6182V30.8047C49.2314 30.7038 49.3133 30.6213 49.4141 30.6211H49.7471C50.6575 30.6211 51.4247 30.5368 52.0469 30.3672L52.0459 30.3662C52.6865 30.1963 53.1931 29.9164 53.5605 29.5215C53.8812 29.1768 54.0868 28.7227 54.1807 28.1631C54.2089 27.9944 54.0747 27.8497 53.9082 27.8496H49.4141C49.3133 27.8494 49.2314 27.7669 49.2314 27.666V26.5186C49.2315 26.4177 49.3133 26.3362 49.4141 26.3359H53.8584C54.0347 26.3357 54.1726 26.1735 54.126 25.998C54.0084 25.5571 53.8234 25.1797 53.5703 24.8682L53.457 24.7393C53.0902 24.3282 52.594 24.0297 51.9707 23.8428C51.3651 23.6561 50.6235 23.5635 49.7471 23.5635H49.4141C49.3134 23.5632 49.2316 23.4816 49.2314 23.3809V22.2324C49.2317 22.1318 49.3134 22.05 49.4141 22.0498Z" fill="#88898A" stroke="white" stroke-width="0.1"/>
</g>
<text fill="#5E6063" style="white-space: pre" xml:space="preserve" font-family="Basier Circle" font-size="12" letter-spacing="0px"><tspan x="26.082" y="60.7891">INDstocks</tspan></text>
<g clip-path="url(#clip2_1660_5505)">
<path d="M128.436 21.6211H129.36C129.464 21.6211 129.549 21.7056 129.549 21.8096V23.0928C129.549 23.242 129.662 23.3647 129.809 23.3828C130.942 23.5228 131.877 23.9199 132.615 24.5723L132.761 24.7061C133.478 25.4146 133.869 26.3075 133.936 27.3867C133.942 27.4891 133.858 27.575 133.753 27.5752H132.392C132.291 27.5752 132.206 27.4945 132.195 27.3896C132.135 26.7774 131.907 26.2508 131.512 25.8125L131.511 25.8115C131.109 25.3853 130.562 25.1087 129.875 24.9795C129.701 24.9471 129.549 25.0852 129.549 25.2578V29.5859C129.549 29.7243 129.647 29.8431 129.783 29.8691L130.123 29.9346C131.489 30.2163 132.506 30.7058 133.183 31.3984C133.858 32.0899 134.197 32.9883 134.197 34.0986C134.197 35.2856 133.789 36.2399 132.974 36.9658C132.187 37.668 131.135 38.0847 129.815 38.2129C129.666 38.2274 129.549 38.3522 129.549 38.5039V39.7617C129.549 39.8656 129.464 39.9502 129.36 39.9502H128.436C128.332 39.9501 128.247 39.8656 128.247 39.7617V38.5049C128.247 38.3528 128.129 38.2286 127.979 38.2148C126.55 38.0858 125.457 37.6407 124.693 36.8857C123.928 36.1287 123.503 35.1556 123.42 33.9629C123.413 33.8589 123.497 33.7705 123.604 33.7705H124.98C125.079 33.7705 125.162 33.8467 125.175 33.9473C125.267 34.6856 125.547 35.2845 126.015 35.7402C126.49 36.2037 127.128 36.4987 127.925 36.6279C128.097 36.6559 128.247 36.5197 128.247 36.3486V31.5439C128.247 31.4062 128.149 31.2881 128.014 31.2617L127.682 31.1963C126.418 30.9247 125.474 30.4681 124.845 29.8301V29.8291L124.729 29.71C124.172 29.1 123.892 28.2945 123.892 27.2881C123.892 26.1341 124.264 25.2139 125.005 24.5225L125.004 24.5215C125.719 23.8729 126.71 23.4846 127.981 23.3584C128.13 23.3436 128.247 23.2195 128.247 23.0684V21.8096C128.247 21.7056 128.332 21.6212 128.436 21.6211ZM129.791 31.6572C129.667 31.6294 129.549 31.7242 129.549 31.8516V36.3545C129.549 36.5233 129.695 36.6579 129.865 36.6357C130.706 36.5261 131.343 36.2617 131.771 35.8369C132.199 35.4109 132.411 34.8291 132.411 34.0986C132.411 33.4187 132.189 32.879 131.739 32.4863L131.738 32.4854L131.562 32.3516C131.189 32.0927 130.701 31.8861 130.101 31.7305L129.791 31.6572ZM127.929 24.9492C127.183 25.0588 126.615 25.3071 126.235 25.6992C125.855 26.0922 125.667 26.6239 125.667 27.2881C125.667 27.8475 125.878 28.3151 126.298 28.6875C126.716 29.0583 127.341 29.333 128.164 29.5146C128.169 29.5157 128.174 29.5166 128.179 29.5166C128.216 29.5166 128.247 29.4858 128.247 29.4482V25.2295C128.247 25.0598 128.1 24.9243 127.929 24.9492Z" fill="#88898A" stroke="white" stroke-width="0.1"/>
</g>
<text fill="#5E6063" style="white-space: pre" xml:space="preserve" font-family="Basier Circle" font-size="12" letter-spacing="0px"><tspan x="99.8945" y="60.7891">US Stocks</tspan></text>
<path d="M202.796 32.9389C203.106 33.2138 203.58 33.1855 203.855 32.8756C204.13 32.5658 204.102 32.0917 203.792 31.8168L203.294 32.3779L202.796 32.9389ZM199.5 29.0121L199.998 28.451C199.714 28.1991 199.286 28.1991 199.002 28.451L199.5 29.0121ZM195.209 31.8168C194.899 32.0917 194.871 32.5658 195.145 32.8756C195.42 33.1855 195.894 33.2138 196.204 32.9389L195.706 32.3779L195.209 31.8168ZM202.796 29.2726C203.106 29.5474 203.58 29.5191 203.855 29.2093C204.13 28.8994 204.102 28.4254 203.792 28.1505L203.294 28.7115L202.796 29.2726ZM199.5 25.3457L199.998 24.7847C199.714 24.5327 199.286 24.5327 199.002 24.7847L199.5 25.3457ZM195.209 28.1505C194.899 28.4254 194.871 28.8994 195.145 29.2093C195.42 29.5191 195.894 29.5474 196.204 29.2726L195.706 28.7115L195.209 28.1505ZM202.796 36.8238C203.106 37.0987 203.58 37.0704 203.855 36.7605C204.13 36.4507 204.102 35.9766 203.792 35.7017L203.294 36.2628L202.796 36.8238ZM199.5 32.897L199.998 32.3359C199.714 32.084 199.286 32.084 199.002 32.3359L199.5 32.897ZM195.209 35.7017C194.899 35.9766 194.871 36.4507 195.145 36.7605C195.42 37.0704 195.894 37.0987 196.204 36.8238L195.706 36.2628L195.209 35.7017ZM209.786 30.9967H209.036C209.036 36.2631 204.767 40.5324 199.501 40.5324V41.2824V42.0324C205.595 42.0324 210.536 37.0915 210.536 30.9967H209.786ZM199.501 41.2824V40.5324C194.234 40.5324 189.965 36.2631 189.965 30.9967H189.215H188.465C188.465 37.0915 193.406 42.0324 199.501 42.0324V41.2824ZM189.215 30.9967H189.965C189.965 25.7302 194.234 21.4609 199.501 21.4609V20.7109V19.9609C193.406 19.9609 188.465 24.9018 188.465 30.9967H189.215ZM199.501 20.7109V21.4609C204.767 21.4609 209.036 25.7302 209.036 30.9967H209.786H210.536C210.536 24.9018 205.595 19.9609 199.501 19.9609V20.7109ZM203.294 32.3779L203.792 31.8168L199.998 28.451L199.5 29.0121L199.002 29.5731L202.796 32.9389L203.294 32.3779ZM199.5 29.0121L199.002 28.451L195.209 31.8168L195.706 32.3779L196.204 32.9389L199.998 29.5731L199.5 29.0121ZM203.294 28.7115L203.792 28.1505L199.998 24.7847L199.5 25.3457L199.002 25.9067L202.796 29.2726L203.294 28.7115ZM199.5 25.3457L199.002 24.7847L195.209 28.1505L195.706 28.7115L196.204 29.2726L199.998 25.9067L199.5 25.3457ZM203.294 36.2628L203.792 35.7017L199.998 32.3359L199.5 32.897L199.002 33.458L202.796 36.8238L203.294 36.2628ZM199.5 32.897L199.002 32.3359L195.209 35.7017L195.706 36.2628L196.204 36.8238L199.998 33.458L199.5 32.897Z" fill="#089958"/>
<text fill="#089958" style="white-space: pre" xml:space="preserve" font-family="Basier Circle" font-size="12" letter-spacing="0px"><tspan x="178.775" y="60.7715">My IND</tspan></text>
<g clip-path="url(#clip3_1660_5505)">
<g clip-path="url(#clip4_1660_5505)">
<g clip-path="url(#clip5_1660_5505)">
<path d="M269.162 34.3276L269.162 39.8269" stroke="#88898A" stroke-width="1.5" stroke-linecap="round"/>
<path d="M273.598 32.7554L273.598 39.8259" stroke="#88898A" stroke-width="1.5" stroke-linecap="round"/>
<path d="M282.471 28.8281L282.471 39.8267" stroke="#88898A" stroke-width="1.5" stroke-linecap="round"/>
<path d="M278.031 31.1831L278.031 39.8248" stroke="#88898A" stroke-width="1.5" stroke-linecap="round"/>
<path d="M267.392 30.7888L273.095 26.9505L274.488 28.4325L281.583 23.3272" stroke="#88898A" stroke-width="1.5" stroke-linecap="round" stroke-linejoin="round"/>
<path d="M279.027 21.625L282.957 22.3652L283.141 25.5927" stroke="#88898A" stroke-width="1.5" stroke-linecap="round" stroke-linejoin="round"/>
</g>
</g>
</g>
<text fill="#5E6063" style="white-space: pre" xml:space="preserve" font-family="Basier Circle" font-size="12" letter-spacing="0px"><tspan x="260.984" y="60.7891">Fund</tspan></text>
<g clip-path="url(#clip6_1660_5505)">
<path d="M339 31C339 27.134 342.134 24 346 24M350.5 26.5L346 31M356 31C356 36.5228 351.523 41 346 41C340.477 41 336 36.5228 336 31C336 25.4772 340.477 21 346 21C351.523 21 356 25.4772 356 31ZM347 31C347 31.5523 346.552 32 346 32C345.448 32 345 31.5523 345 31C345 30.4477 345.448 30 346 30C346.552 30 347 30.4477 347 31Z" stroke="#88898A" stroke-width="1.5" stroke-linecap="round" stroke-linejoin="round"/>
</g>
<text fill="#5E6063" style="white-space: pre" xml:space="preserve" font-family="Basier Circle" font-size="12" letter-spacing="0px"><tspan x="328.879" y="60.7891">Credit</tspan></text>
<path d="M171.164 11H227.164C227.164 12.1046 226.269 13 225.164 13H173.164C172.059 13 171.164 12.1046 171.164 11Z" fill="#089958"/>
</g>
</g>
<defs>
<filter id="filter0_ddd_1660_5505" x="0" y="0" width="399" height="97.0142" filterUnits="userSpaceOnUse" color-interpolation-filters="sRGB">
<feFlood flood-opacity="0" result="BackgroundImageFix"/>
<feColorMatrix in="SourceAlpha" type="matrix" values="0 0 0 0 0 0 0 0 0 0 0 0 0 0 0 0 0 0 127 0" result="hardAlpha"/>
<feOffset dy="1"/>
<feGaussianBlur stdDeviation="6"/>
<feColorMatrix type="matrix" values="0 0 0 0 0 0 0 0 0 0 0 0 0 0 0 0 0 0 0.12 0"/>
<feBlend mode="normal" in2="BackgroundImageFix" result="effect1_dropShadow_1660_5505"/>
<feColorMatrix in="SourceAlpha" type="matrix" values="0 0 0 0 0 0 0 0 0 0 0 0 0 0 0 0 0 0 127 0" result="hardAlpha"/>
<feOffset dy="4"/>
<feGaussianBlur stdDeviation="4"/>
<feColorMatrix type="matrix" values="0 0 0 0 0 0 0 0 0 0 0 0 0 0 0 0 0 0 0.02 0"/>
<feBlend mode="normal" in2="effect1_dropShadow_1660_5505" result="effect2_dropShadow_1660_5505"/>
<feColorMatrix in="SourceAlpha" type="matrix" values="0 0 0 0 0 0 0 0 0 0 0 0 0 0 0 0 0 0 127 0" result="hardAlpha"/>
<feOffset dy="1"/>
<feGaussianBlur stdDeviation="2"/>
<feColorMatrix type="matrix" values="0 0 0 0 0 0 0 0 0 0 0 0 0 0 0 0 0 0 0.01 0"/>
<feBlend mode="normal" in2="effect2_dropShadow_1660_5505" result="effect3_dropShadow_1660_5505"/>
<feBlend mode="normal" in="SourceGraphic" in2="effect3_dropShadow_1660_5505" result="shape"/>
</filter>
<clipPath id="clip0_1660_5505">
<rect width="375" height="73.0141" fill="white" transform="translate(12 11)"/>
</clipPath>
<clipPath id="clip1_1660_5505">
<rect width="24" height="24" fill="white" transform="translate(42.5 19)"/>
</clipPath>
<clipPath id="clip2_1660_5505">
<rect width="24" height="24" fill="white" transform="translate(116.5 19)"/>
</clipPath>
<clipPath id="clip3_1660_5505">
<rect width="21.4286" height="21.4286" fill="white" transform="translate(264.715 20.2856)"/>
</clipPath>
<clipPath id="clip4_1660_5505">
<rect width="21.4286" height="21.4286" fill="white" transform="translate(264.715 20.2856)"/>
</clipPath>
<clipPath id="clip5_1660_5505">
<rect width="21.4286" height="21.4286" fill="white" transform="translate(264.715 20.2856)"/>
</clipPath>
<clipPath id="clip6_1660_5505">
<rect width="24" height="24" fill="white" transform="translate(334 19)"/>
</clipPath>
</defs>
</svg>
