<svg width="368" height="204" viewBox="0 0 368 204" fill="none" xmlns="http://www.w3.org/2000/svg">
<rect x="0.5" y="0.5" width="366.781" height="95" rx="11.5" stroke="#EFEFEF"/>
<text fill="#393B3E" style="white-space: pre" xml:space="preserve" font-family="Basier Circle" font-size="14" letter-spacing="0px"><tspan x="16" y="34.9834">Avoid Late fees</tspan></text>
<text fill="#5E6063" style="white-space: pre" xml:space="preserve" font-family="Basier Circle" font-size="13" letter-spacing="0px"><tspan x="16" y="55.1465">Bills will be auto detected and autopaid in </tspan><tspan x="16" y="71.1465">5 days before due date</tspan></text>
<ellipse cx="320.481" cy="78.0496" rx="14.7841" ry="2.01788" fill="black"/>
<path d="M309.52 35.1485C309.503 32.7842 308.325 30.42 306.291 29.1673C305.811 28.8541 304.721 28.4086 304.192 28.1616C307.888 29.776 309.092 34.5706 307.447 38.0685C305.965 41.6413 301.514 43.9746 297.871 42.2764L299.221 42.8807C304.311 45.117 309.692 40.3842 309.525 35.1485H309.52Z" fill="#C6990C" stroke="black" stroke-width="0.0941176"/>
<path d="M301.465 27.6015C305.404 27.5574 308.403 30.9273 308.161 35.1309C307.918 39.3344 304.531 42.7882 300.592 42.8323C296.657 42.8764 293.658 39.5065 293.9 35.2985C294.143 31.0905 297.531 27.6456 301.465 27.6015Z" fill="#FFEFBD" stroke="black" stroke-width="0.0941176"/>
<path d="M301.406 28.5917C304.833 28.5533 307.442 31.4851 307.231 35.1422C307.02 38.7993 304.073 41.804 300.646 41.8424C297.223 41.8808 294.613 38.949 294.824 35.288C295.036 31.6271 297.983 28.6301 301.406 28.5917Z" fill="#FFC40D" stroke="black" stroke-width="0.0941176"/>
<path opacity="0.6" d="M302.09 38.5135L299.376 36.414L299.227 36.0178L299.413 35.9164C299.711 35.7535 299.95 35.5868 300.13 35.4161C300.316 35.2424 300.442 35.0542 300.508 34.8517C300.574 34.6491 300.573 34.4216 300.505 34.1693L298.867 35.0636L298.651 34.4874L300.28 33.5977C300.157 33.3972 300.01 33.2602 299.84 33.1867C299.668 33.1072 299.468 33.0897 299.24 33.1343C299.018 33.1759 298.764 33.275 298.477 33.4318L298.291 33.5332L298.074 32.957L301.57 31.0485L301.787 31.6247L300.191 32.4959C300.363 32.5393 300.521 32.6159 300.664 32.7259C300.807 32.8358 300.93 32.9897 301.031 33.1874L302.146 32.5789L302.363 33.1551L301.265 33.7544C301.391 34.214 301.362 34.6421 301.179 35.0388C300.999 35.4264 300.697 35.7761 300.271 36.088L302.952 38.0433L302.09 38.5135Z" fill="black"/>
<path d="M305.622 40.8838L304.607 28.3774L308.23 29.6329V39.1455L305.622 40.8838Z" fill="black"/>
<path d="M330.023 18.5674L335.267 67.9243L312.103 68.3328L306.859 18.9759L330.023 18.5674Z" fill="#B8FFE6" stroke="black" stroke-width="0.188235" stroke-linejoin="round"/>
<path d="M308.248 20.2078L328.903 19.8433L333.884 66.6928L313.229 67.051L308.248 20.2078Z" fill="#1FD896" stroke="black" stroke-width="0.188235" stroke-linejoin="round"/>
<path d="M335.265 67.9243L332.693 69.7908L309.529 70.1992L312.101 68.3328L335.265 67.9243Z" fill="#139164" stroke="black" stroke-width="0.188235" stroke-linejoin="round"/>
<path d="M312.1 68.3325L309.528 70.199L304.285 20.842L306.857 18.9756L312.1 68.3325Z" fill="#139164" stroke="black" stroke-width="0.188235" stroke-linejoin="round"/>
<path d="M325.37 37.3428L321.927 37.5579C322.561 37.961 323.044 38.5691 323.233 39.4536L325.506 39.3104L325.574 40.2731L323.324 40.4161C323.255 42.3992 321.66 43.7537 318.993 43.9983C320.73 45.4549 322.645 47.311 324.544 49.1883L322.545 49.3154C320.791 47.6058 319.145 46.0219 317.048 44.2164L316.963 43.0219L318.111 42.9502C320.361 42.8071 321.51 41.8636 321.561 40.5275L316.802 40.8225L316.734 39.8598L321.424 39.5653C321.051 38.4642 319.907 37.9735 318.09 38.0922L316.608 38.1875L316.515 36.9367L325.295 36.3872L325.363 37.3499L325.37 37.3428Z" fill="#045739" stroke="black" stroke-width="0.188235"/>
<path d="M330.546 24.6167L307.588 25.0482L308.193 30.9169L331.236 30.4854L330.546 24.6167Z" fill="#FFC40D" stroke="black" stroke-width="0.188235" stroke-linejoin="round"/>
<path d="M304.959 26.7844L307.53 25.1216L308.163 30.9116L305.605 32.6517L304.959 26.7844Z" fill="#BF9000" stroke="black" stroke-width="0.188235" stroke-linejoin="round"/>
<mask id="mask0_3744_7327" style="mask-type:alpha" maskUnits="userSpaceOnUse" x="306" y="18" width="30" height="51">
<path d="M330.023 18.5669L335.267 67.9238L312.103 68.3323L306.859 18.9754L330.023 18.5669Z" fill="#B8FFE6" stroke="black" stroke-width="0.188235" stroke-linejoin="round"/>
</mask>
<g mask="url(#mask0_3744_7327)">
<path d="M334.5 52.8837C337.778 54.3012 339.694 58.3297 338.781 61.8767C337.869 65.4237 334.474 67.1537 331.195 65.7362C327.917 64.3188 326.005 60.2917 326.915 56.7395C327.825 53.1873 331.222 51.4625 334.5 52.8837Z" fill="black" stroke="black" stroke-width="0.0941176"/>
</g>
<path d="M334.53 64.9519C328.803 62.6423 327.146 52.852 333.485 50.1861L331.704 50.8859C329.901 51.5921 328.459 53.1927 327.888 55.4259C326.292 61.0363 331.746 68.0051 337.559 65.8102L339.34 65.1103C337.887 65.6801 336.199 65.6716 334.534 64.9535L334.53 64.9519Z" fill="#C6990C" stroke="black" stroke-width="0.0941176"/>
<path d="M337.786 50.3565C341.513 51.9678 343.691 56.5474 342.654 60.5796C341.616 64.6118 337.757 66.5784 334.03 64.967C330.303 63.3557 328.129 58.7777 329.164 54.7396C330.199 50.7015 334.061 48.7408 337.786 50.3565Z" fill="#FFEFBD" stroke="black" stroke-width="0.0941176"/>
<path d="M337.562 51.2348C340.841 52.6522 342.756 56.6808 341.844 60.2278C340.931 63.7748 337.536 65.5048 334.258 64.0873C330.979 62.6699 329.067 58.6428 329.978 55.0905C330.888 51.5383 334.285 49.8136 337.562 51.2348Z" fill="#FFC40D" stroke="black" stroke-width="0.0941176"/>
<path opacity="0.6" d="M338.964 60.5491L335.515 59.676L335.209 59.3611L335.344 59.1879C335.56 58.9097 335.719 58.6522 335.819 58.4155C335.924 58.1736 335.966 57.9426 335.945 57.7227C335.924 57.5027 335.829 57.2868 335.66 57.075L334.473 58.6026L334.029 58.1447L335.21 56.6249C335.01 56.4852 334.814 56.4155 334.621 56.4161C334.425 56.4118 334.227 56.4779 334.03 56.6145C333.836 56.7457 333.635 56.9452 333.427 57.2129L333.292 57.3862L332.848 56.9282L335.381 53.6682L335.826 54.1262L334.669 55.6144C334.851 55.5843 335.033 55.5919 335.214 55.6372C335.396 55.6825 335.576 55.7781 335.754 55.9241L336.562 54.8847L337.006 55.3426L336.211 56.3663C336.52 56.7513 336.67 57.1702 336.66 57.623C336.65 58.0658 336.507 58.5234 336.231 58.9959L339.588 59.7459L338.964 60.5491Z" fill="black"/>
<rect x="0.5" y="108.5" width="366.781" height="95" rx="11.5" stroke="#EFEFEF"/>
<text fill="#393B3E" style="white-space: pre" xml:space="preserve" font-family="Basier Circle" font-size="14" letter-spacing="0px"><tspan x="16" y="142.983">Avoid Late fees</tspan></text>
<text fill="#5E6063" style="white-space: pre" xml:space="preserve" font-family="Basier Circle" font-size="13" letter-spacing="0px"><tspan x="16" y="163.146">Bills will be auto detected and autopaid in </tspan><tspan x="16" y="179.146">5 days before due date</tspan></text>
<ellipse cx="320.481" cy="186.05" rx="14.7841" ry="2.01788" fill="black"/>
<path d="M309.52 143.148C309.503 140.784 308.325 138.42 306.291 137.167C305.811 136.854 304.721 136.409 304.192 136.162C307.888 137.776 309.092 142.571 307.447 146.068C305.965 149.641 301.514 151.975 297.871 150.276L299.221 150.881C304.311 153.117 309.692 148.384 309.525 143.148H309.52Z" fill="#C6990C" stroke="black" stroke-width="0.0941176"/>
<path d="M301.465 135.602C305.404 135.557 308.403 138.927 308.161 143.131C307.918 147.334 304.531 150.788 300.592 150.832C296.657 150.876 293.658 147.506 293.9 143.298C294.143 139.091 297.531 135.646 301.465 135.602Z" fill="#FFEFBD" stroke="black" stroke-width="0.0941176"/>
<path d="M301.406 136.592C304.833 136.553 307.442 139.485 307.231 143.142C307.02 146.799 304.073 149.804 300.646 149.842C297.223 149.881 294.613 146.949 294.824 143.288C295.036 139.627 297.983 136.63 301.406 136.592Z" fill="#FFC40D" stroke="black" stroke-width="0.0941176"/>
<path opacity="0.6" d="M302.09 146.513L299.376 144.414L299.227 144.018L299.413 143.916C299.711 143.754 299.95 143.587 300.13 143.416C300.316 143.242 300.442 143.054 300.508 142.852C300.574 142.649 300.573 142.422 300.505 142.169L298.867 143.064L298.651 142.487L300.28 141.598C300.157 141.397 300.01 141.26 299.84 141.187C299.668 141.107 299.468 141.09 299.24 141.134C299.018 141.176 298.764 141.275 298.477 141.432L298.291 141.533L298.074 140.957L301.57 139.049L301.787 139.625L300.191 140.496C300.363 140.539 300.521 140.616 300.664 140.726C300.807 140.836 300.93 140.99 301.031 141.187L302.146 140.579L302.363 141.155L301.265 141.754C301.391 142.214 301.362 142.642 301.179 143.039C300.999 143.426 300.697 143.776 300.271 144.088L302.952 146.043L302.09 146.513Z" fill="black"/>
<path d="M305.622 148.884L304.607 136.377L308.23 137.633V147.145L305.622 148.884Z" fill="black"/>
<path d="M330.023 126.567L335.267 175.924L312.103 176.333L306.859 126.976L330.023 126.567Z" fill="#B8FFE6" stroke="black" stroke-width="0.188235" stroke-linejoin="round"/>
<path d="M308.248 128.208L328.903 127.843L333.884 174.693L313.229 175.051L308.248 128.208Z" fill="#1FD896" stroke="black" stroke-width="0.188235" stroke-linejoin="round"/>
<path d="M335.265 175.924L332.693 177.791L309.529 178.199L312.101 176.333L335.265 175.924Z" fill="#139164" stroke="black" stroke-width="0.188235" stroke-linejoin="round"/>
<path d="M312.1 176.333L309.528 178.199L304.285 128.842L306.857 126.976L312.1 176.333Z" fill="#139164" stroke="black" stroke-width="0.188235" stroke-linejoin="round"/>
<path d="M325.37 145.343L321.927 145.558C322.561 145.961 323.044 146.569 323.233 147.454L325.506 147.31L325.574 148.273L323.324 148.416C323.255 150.399 321.66 151.754 318.993 151.998C320.73 153.455 322.645 155.311 324.544 157.188L322.545 157.315C320.791 155.606 319.145 154.022 317.048 152.216L316.963 151.022L318.111 150.95C320.361 150.807 321.51 149.864 321.561 148.527L316.802 148.822L316.734 147.86L321.424 147.565C321.051 146.464 319.907 145.973 318.09 146.092L316.608 146.187L316.515 144.937L325.295 144.387L325.363 145.35L325.37 145.343Z" fill="#045739" stroke="black" stroke-width="0.188235"/>
<path d="M330.546 132.617L307.588 133.048L308.193 138.917L331.236 138.485L330.546 132.617Z" fill="#FFC40D" stroke="black" stroke-width="0.188235" stroke-linejoin="round"/>
<path d="M304.959 134.784L307.53 133.122L308.163 138.912L305.605 140.652L304.959 134.784Z" fill="#BF9000" stroke="black" stroke-width="0.188235" stroke-linejoin="round"/>
<mask id="mask1_3744_7327" style="mask-type:alpha" maskUnits="userSpaceOnUse" x="306" y="126" width="30" height="51">
<path d="M330.023 126.567L335.267 175.924L312.103 176.332L306.859 126.975L330.023 126.567Z" fill="#B8FFE6" stroke="black" stroke-width="0.188235" stroke-linejoin="round"/>
</mask>
<g mask="url(#mask1_3744_7327)">
<path d="M334.5 160.884C337.778 162.301 339.694 166.33 338.781 169.877C337.869 173.424 334.474 175.154 331.195 173.736C327.917 172.319 326.005 168.292 326.915 164.739C327.825 161.187 331.222 159.462 334.5 160.884Z" fill="black" stroke="black" stroke-width="0.0941176"/>
</g>
<path d="M334.53 172.952C328.803 170.642 327.146 160.852 333.485 158.186L331.704 158.886C329.901 159.592 328.459 161.193 327.888 163.426C326.292 169.036 331.746 176.005 337.559 173.81L339.34 173.11C337.887 173.68 336.199 173.672 334.534 172.953L334.53 172.952Z" fill="#C6990C" stroke="black" stroke-width="0.0941176"/>
<path d="M337.786 158.356C341.513 159.968 343.691 164.547 342.654 168.58C341.616 172.612 337.757 174.578 334.03 172.967C330.303 171.356 328.129 166.778 329.164 162.74C330.199 158.702 334.061 156.741 337.786 158.356Z" fill="#FFEFBD" stroke="black" stroke-width="0.0941176"/>
<path d="M337.562 159.235C340.841 160.652 342.756 164.681 341.844 168.228C340.931 171.775 337.536 173.505 334.258 172.087C330.979 170.67 329.067 166.643 329.978 163.091C330.888 159.538 334.285 157.814 337.562 159.235Z" fill="#FFC40D" stroke="black" stroke-width="0.0941176"/>
<path opacity="0.6" d="M338.964 168.549L335.515 167.676L335.209 167.361L335.344 167.188C335.56 166.91 335.719 166.652 335.819 166.416C335.924 166.174 335.966 165.943 335.945 165.723C335.924 165.503 335.829 165.287 335.66 165.075L334.473 166.603L334.029 166.145L335.21 164.625C335.01 164.485 334.814 164.416 334.621 164.416C334.425 164.412 334.227 164.478 334.03 164.614C333.836 164.746 333.635 164.945 333.427 165.213L333.292 165.386L332.848 164.928L335.381 161.668L335.826 162.126L334.669 163.614C334.851 163.584 335.033 163.592 335.214 163.637C335.396 163.682 335.576 163.778 335.754 163.924L336.562 162.885L337.006 163.343L336.211 164.366C336.52 164.751 336.67 165.17 336.66 165.623C336.65 166.066 336.507 166.523 336.231 166.996L339.588 167.746L338.964 168.549Z" fill="black"/>
</svg>
