<svg width="80" height="24" viewBox="0 0 80 24" fill="none" xmlns="http://www.w3.org/2000/svg">
<path d="M1.35405 7.60432C0.615931 7.60432 0 8.219 0 8.95985V18.927C0 19.6525 0.615931 20.2674 1.35405 20.2674C2.09218 20.2674 2.69263 19.6528 2.69263 18.927V8.95985C2.69263 8.219 2.0919 7.60432 1.35405 7.60432Z" fill="#FFFFFE"/>
<path d="M26.428 11.4792C26.1123 10.7233 25.6288 10.0583 25.0333 9.46356C24.4378 8.90416 23.7354 8.43562 22.9514 8.11323C22.1521 7.79083 21.2971 7.62936 20.4064 7.62936H17.79C17.7137 7.60911 17.6424 7.60911 17.5661 7.60911C16.7873 7.60911 16.1562 8.21887 16.1562 8.97969V18.9066C16.1562 19.6625 16.7517 20.2419 17.5103 20.2772H20.4064C21.2971 20.2772 22.1521 20.0957 22.9514 19.7733C23.7301 19.4509 24.4376 18.9974 25.0333 18.438C25.6288 17.8234 26.1123 17.1783 26.428 16.4024C26.7639 15.6265 26.9267 14.8151 26.9267 13.9535C26.9267 13.1018 26.7639 12.2554 26.428 11.4795V11.4792ZM23.1145 16.5283C22.3816 17.2388 21.4143 17.6017 20.3558 17.6017H18.8491V10.2698H20.3558C21.4146 10.2698 22.3816 10.668 23.1145 11.3632C23.8473 12.0534 24.2344 12.9656 24.2344 13.9481C24.2344 14.9306 23.8476 15.8375 23.1145 16.528V16.5283Z" fill="#FFFFFE"/>
<path d="M18.3183 4.32907L14.3429 0.393567C14.0681 0.121531 13.7016 -0.00956151 13.3402 0.000564604C12.9789 -0.00956151 12.6124 0.116331 12.3376 0.393567L8.36221 4.32907C7.8328 4.85316 7.8328 5.69965 8.36221 6.22375C8.89161 6.74784 9.74667 6.74784 10.2761 6.22375L12.0727 4.44511V15.1429L7.28294 8.28482C7.04381 7.87157 6.60094 7.59953 6.092 7.59953C5.33867 7.59953 4.71776 8.21421 4.71776 8.95506V18.912C4.71776 19.6529 5.33867 20.2676 6.092 20.2676C6.84532 20.2676 7.46623 19.6529 7.46623 18.912V12.7444L12.3323 19.6731C12.3323 19.6882 12.3323 19.7085 12.3528 19.7287C12.6276 20.0714 13.0146 20.2731 13.4522 20.2731C14.2055 20.2731 14.8112 19.6584 14.8112 18.9175V4.65146L16.4044 6.22867C16.9338 6.75277 17.7889 6.75277 18.3183 6.22867C18.8477 5.70458 18.8477 4.85289 18.3183 4.32907Z" fill="#FFFFFE"/>
<path d="M76.2563 10.4384V8.21963H75.5379V7.93312H77.2676V8.21963H76.5475V10.4384H76.2563Z" fill="#FFFFFE"/>
<path d="M77.7142 10.4384V7.93312H78.0556L78.8371 9.46177H78.85L79.6331 7.93312H79.9665V10.4384H79.6914V8.43102H79.6784L78.8565 10.0086H78.8241L78.0022 8.42054H77.9892V10.4384H77.7142Z" fill="#FFFFFE"/>
<path d="M72.6219 20.1045C72.156 20.1045 71.7784 19.7306 71.7784 19.2694V8.82755C71.7784 8.36635 72.156 7.99247 72.6219 7.99247H73.1503C73.6162 7.99247 73.9938 8.36635 73.9938 8.82755V19.2694C73.9938 19.7306 73.6162 20.1045 73.1503 20.1045H72.6219Z" fill="#1FD8AD"/>
<path d="M65.3309 20.2518C63.413 20.2518 62.3218 19.1061 62.3218 17.6002C62.3218 16.0617 63.3965 14.9651 65.7938 14.9651C66.1976 14.9651 66.6217 15.0054 66.9871 15.0637C67.3484 15.1213 67.7117 14.8527 67.7117 14.4904C67.7117 13.803 67.2818 13.2465 66.2237 13.2465C65.7345 13.2465 65.3607 13.3836 65.1169 13.6022C64.7716 13.9119 64.4076 14.3431 63.9418 14.3431H63.5456C63.0798 14.3431 62.6873 13.9612 62.8187 13.5187C63.1752 12.3183 64.345 11.446 66.2733 11.446C68.588 11.446 69.9272 12.7391 69.9272 14.474V19.2694C69.9272 19.7306 69.5495 20.1045 69.0836 20.1045H68.4137C68.1506 20.1045 67.9249 19.9187 67.877 19.6625L67.8019 19.261C67.7975 19.2376 67.7769 19.2206 67.7529 19.2206C67.7374 19.2206 67.7227 19.2278 67.7132 19.2399C67.2319 19.8511 66.4271 20.2518 65.3309 20.2518ZM65.86 18.5168C67.0173 18.5168 67.7117 17.7966 67.7117 16.9455C67.7117 16.8371 67.6444 16.7391 67.5404 16.7051C67.0352 16.5401 66.5287 16.4872 66.0088 16.4872C65.0333 16.4872 64.5208 16.8964 64.5208 17.502C64.5208 18.0913 64.9672 18.5168 65.86 18.5168Z" fill="#1FD8AD"/>
<path d="M57.7439 20.2518C56.5188 20.2518 55.8101 19.7565 55.3787 19.2079C55.3688 19.1953 55.3536 19.1879 55.3375 19.1879C55.3137 19.1879 55.2929 19.2039 55.2871 19.2268L55.1812 19.6462C55.1132 19.9155 54.8687 20.1045 54.5883 20.1045H53.925C53.4592 20.1045 53.0815 19.7306 53.0815 19.2694V8.82755C53.0815 8.36635 53.4592 7.99247 53.925 7.99247H54.4534C54.9193 7.99247 55.297 8.36635 55.297 8.82755V12.4661C55.297 12.4903 55.3168 12.5099 55.3412 12.5099C55.355 12.5099 55.3679 12.5036 55.3764 12.4928C55.8076 11.9431 56.5166 11.446 57.7439 11.446C59.9759 11.446 61.2655 13.3119 61.2655 15.8489C61.2655 18.4514 59.9263 20.2518 57.7439 20.2518ZM57.1156 18.3204C58.521 18.3204 59.017 17.1747 59.017 15.8489C59.017 14.5068 58.5375 13.3774 57.1156 13.3774C55.7103 13.3774 55.2143 14.5231 55.2143 15.8489C55.2143 17.1747 55.7434 18.3204 57.1156 18.3204Z" fill="#1FD8AD"/>
<path d="M47.372 20.2518C44.5944 20.2518 43.189 18.3859 43.189 15.8653C43.189 13.3447 44.6274 11.446 47.372 11.446C50.1 11.446 51.5384 13.3447 51.5384 15.8653C51.5384 18.3695 50.133 20.2518 47.372 20.2518ZM47.372 18.3204C48.612 18.3204 49.2898 17.4857 49.2898 15.8653C49.2898 14.2285 48.612 13.3774 47.372 13.3774C46.1154 13.3774 45.4541 14.2449 45.4541 15.8653C45.4541 17.4857 46.132 18.3204 47.372 18.3204Z" fill="#1FD8AD"/>
<path d="M40.4271 20.1045C39.9612 20.1045 39.5836 19.7306 39.5836 19.2694V8.82755C39.5836 8.36635 39.9612 7.99247 40.4271 7.99247H40.9555C41.4214 7.99247 41.799 8.36635 41.799 8.82755V19.2694C41.799 19.7306 41.4214 20.1045 40.9555 20.1045H40.4271Z" fill="#1FD8AD"/>
<path d="M33.6296 24C31.7194 24 30.3539 23.1396 29.9308 21.7837C29.7907 21.3347 30.1855 20.9392 30.6603 20.9392H31.1982C31.6308 20.9392 31.9772 21.2981 32.27 21.6133C32.5512 21.9159 33.0132 22.1177 33.6296 22.1177C34.9026 22.1177 35.5144 21.4139 35.5144 20.4973V19.2317C35.5144 19.2075 35.4945 19.1879 35.4701 19.1879C35.4563 19.1879 35.4434 19.1942 35.4349 19.205C35.0037 19.7547 34.2949 20.2518 33.084 20.2518C30.8354 20.2518 29.5458 18.3859 29.5458 15.8653C29.5458 13.2465 30.885 11.446 33.084 11.446C34.2927 11.446 35.0012 11.9413 35.4326 12.4899C35.4425 12.5025 35.4577 12.5099 35.4739 12.5099C35.4977 12.5099 35.5184 12.4939 35.5242 12.471L35.6301 12.0516C35.6981 11.7823 35.9426 11.5933 36.223 11.5933H36.8863C37.3522 11.5933 37.7298 11.9672 37.7298 12.4284V20.53C37.7298 22.6087 36.0434 24 33.6296 24ZM33.6957 18.3204C35.101 18.3204 35.597 17.191 35.597 15.8653C35.597 14.5231 35.0845 13.3774 33.6957 13.3774C32.3069 13.3774 31.7944 14.5231 31.7944 15.8653C31.7944 17.191 32.2738 18.3204 33.6957 18.3204Z" fill="#1FD8AD"/>
</svg>
