<svg width="409" height="106" viewBox="0 0 409 106" fill="none" xmlns="http://www.w3.org/2000/svg">
<g filter="url(#filter0_d_6995_46643)">
<rect width="375" height="72" transform="translate(17 21)" fill="white"/>
<rect width="24" height="24" transform="translate(41.5 32)" fill="white"/>
<path d="M53.5 40L49.5 44M49.5 44L53.5 48M49.5 44H57.5M63.5 44C63.5 49.5228 59.0228 54 53.5 54C47.9772 54 43.5 49.5228 43.5 44C43.5 38.4772 47.9772 34 53.5 34C59.0228 34 63.5 38.4772 63.5 44Z" stroke="#223466" stroke-width="1.71429" stroke-linecap="round" stroke-linejoin="round"/>
<text fill="#223466" style="white-space: pre" xml:space="preserve" font-family="Basier Circle" font-size="12" letter-spacing="0px"><tspan x="36.9531" y="71.7715">Home</tspan></text>
<line x1="86.5" y1="32" x2="86.5" y2="74" stroke="#88898A"/>
<text fill="#017AFE" style="white-space: pre" xml:space="preserve" font-family="Basier Circle" font-size="12" letter-spacing="0px"><tspan x="101.795" y="71.7715">INDstocks</tspan></text>
<path d="M120 21H140C140 22.6569 138.657 24 137 24H123C121.343 24 120 22.6569 120 21Z" fill="#017AFE"/>
<path d="M130.171 54C130.088 54 130.012 53.956 129.97 53.8845L125.213 45.7351C125.193 45.6994 125.182 45.6589 125.182 45.6177V44.8043C125.182 44.6757 125.286 44.5714 125.415 44.5714H125.747C126.655 44.5714 127.417 44.4874 128.033 44.3193C128.667 44.1513 129.164 43.8739 129.524 43.4874C129.836 43.1512 130.039 42.707 130.132 42.1547C130.154 42.0186 130.046 41.8992 129.908 41.8992H125.415C125.286 41.8992 125.182 41.7949 125.182 41.6663V40.5186C125.182 40.39 125.286 40.2857 125.415 40.2857H129.858C130.004 40.2857 130.115 40.1521 130.077 40.0108C129.945 39.5136 129.726 39.101 129.421 38.7731C129.061 38.3697 128.573 38.0756 127.956 37.8908C127.357 37.7059 126.62 37.6134 125.747 37.6134H125.415C125.286 37.6134 125.182 37.5092 125.182 37.3806V36.2329C125.182 36.1043 125.286 36 125.415 36H135.585C135.714 36 135.818 36.1043 135.818 36.2329V37.3806C135.818 37.5092 135.714 37.6134 135.585 37.6134H131.619C131.4 37.6134 131.292 37.902 131.439 38.065C131.627 38.2739 131.794 38.5016 131.939 38.7479C132.165 39.1332 132.318 39.5774 132.398 40.0803C132.417 40.197 132.516 40.2857 132.634 40.2857H135.585C135.714 40.2857 135.818 40.39 135.818 40.5186V41.6663C135.818 41.7949 135.714 41.8992 135.585 41.8992H132.689C132.569 41.8992 132.47 41.9903 132.454 42.109C132.302 43.2358 131.83 44.1238 131.039 44.7731C130.289 45.3863 129.311 45.7968 128.106 46.0045C127.939 46.0331 127.851 46.2206 127.939 46.364L132.438 53.6447C132.534 53.7999 132.423 54 132.24 54H130.171Z" fill="#017AFE"/>
<path d="M195.5 43V47M207.5 41V45M206.5 36C208.949 36 210.273 36.3748 210.932 36.6654C211.02 36.7042 211.064 36.7235 211.19 36.8444C211.266 36.9168 211.405 37.1294 211.441 37.2281C211.5 37.3927 211.5 37.4827 211.5 37.6627V48.4111C211.5 49.3199 211.5 49.7743 211.364 50.0079C211.225 50.2454 211.091 50.3559 210.832 50.4472C210.577 50.5369 210.062 50.438 209.032 50.2401C208.311 50.1017 207.457 50 206.5 50C203.5 50 200.5 52 196.5 52C194.051 52 192.727 51.6252 192.068 51.3346C191.98 51.2958 191.936 51.2765 191.81 51.1556C191.734 51.0832 191.595 50.8706 191.559 50.7719C191.5 50.6073 191.5 50.5173 191.5 50.3373L191.5 39.5889C191.5 38.6801 191.5 38.2257 191.636 37.9921C191.775 37.7546 191.909 37.6441 192.168 37.5528C192.423 37.4631 192.938 37.562 193.968 37.7598C194.689 37.8983 195.543 38 196.5 38C199.5 38 202.5 36 206.5 36ZM204 44C204 45.3807 202.881 46.5 201.5 46.5C200.119 46.5 199 45.3807 199 44C199 42.6193 200.119 41.5 201.5 41.5C202.881 41.5 204 42.6193 204 44Z" stroke="#88898A" stroke-width="1.37143" stroke-linecap="round" stroke-linejoin="round"/>
<text fill="#5E6063" style="white-space: pre" xml:space="preserve" font-family="Basier Circle" font-size="12" letter-spacing="0px"><tspan x="189.43" y="71.7891">F&#38;O</tspan></text>
<path d="M271.5 43H266.7C265.58 43 265.02 43 264.592 43.218C264.216 43.4097 263.91 43.7157 263.718 44.092C263.5 44.5198 263.5 45.0799 263.5 46.2V53M281.5 53V38.2C281.5 37.0799 281.5 36.5198 281.282 36.092C281.09 35.7157 280.784 35.4097 280.408 35.218C279.98 35 279.42 35 278.3 35H274.7C273.58 35 273.02 35 272.592 35.218C272.216 35.4097 271.91 35.7157 271.718 36.092C271.5 36.5198 271.5 37.0799 271.5 38.2V53M282.5 53H262.5M275 39H278M275 43H278M275 47H278" stroke="#88898A" stroke-width="1.37143" stroke-linecap="round" stroke-linejoin="round"/>
<text fill="#5E6063" style="white-space: pre" xml:space="preserve" font-family="Basier Circle" font-size="12" letter-spacing="0px"><tspan x="259.369" y="71.7891">IPOs</tspan></text>
<path fill-rule="evenodd" clip-rule="evenodd" d="M347.754 33.175C347.474 33.175 347.334 33.175 347.227 33.2295C347.133 33.2775 347.056 33.354 347.008 33.4481C346.954 33.555 346.954 33.695 346.954 33.975V36.1326C346.954 36.4126 346.954 36.5526 346.899 36.6596C346.851 36.7537 346.775 36.8301 346.681 36.8781C346.574 36.9326 346.434 36.9326 346.154 36.9326H343.996C343.716 36.9326 343.576 36.9326 343.469 36.9871C343.375 37.035 343.299 37.1115 343.251 37.2056C343.196 37.3125 343.196 37.4526 343.196 37.7326V37.7826C343.196 38.0626 343.196 38.2026 343.251 38.3096C343.299 38.4037 343.375 38.4801 343.469 38.5281C343.576 38.5826 343.716 38.5826 343.996 38.5826H346.154C346.434 38.5826 346.574 38.5826 346.681 38.6371C346.775 38.685 346.851 38.7615 346.899 38.8556C346.954 38.9625 346.954 39.1026 346.954 39.3826V41.5401C346.954 41.8201 346.954 41.9602 347.008 42.0671C347.056 42.1612 347.133 42.2377 347.227 42.2856C347.334 42.3401 347.474 42.3401 347.754 42.3401H347.804C348.084 42.3401 348.224 42.3401 348.331 42.2856C348.425 42.2377 348.501 42.1612 348.549 42.0671C348.604 41.9602 348.604 41.8201 348.604 41.5401V39.3826C348.604 39.1026 348.604 38.9625 348.658 38.8556C348.706 38.7615 348.783 38.685 348.877 38.6371C348.984 38.5826 349.124 38.5826 349.404 38.5826H351.561C351.841 38.5826 351.981 38.5826 352.088 38.5281C352.182 38.4801 352.259 38.4037 352.307 38.3096C352.361 38.2026 352.361 38.0626 352.361 37.7826V37.7326C352.361 37.4526 352.361 37.3125 352.307 37.2056C352.259 37.1115 352.182 37.035 352.088 36.9871C351.981 36.9326 351.841 36.9326 351.561 36.9326H349.404C349.124 36.9326 348.984 36.9326 348.877 36.8781C348.783 36.8301 348.706 36.7537 348.658 36.6596C348.604 36.5526 348.604 36.4126 348.604 36.1326V33.975C348.604 33.695 348.604 33.555 348.549 33.4481C348.501 33.354 348.425 33.2775 348.331 33.2295C348.224 33.175 348.084 33.175 347.804 33.175H347.754ZM341.139 39.4376C340.859 39.4376 340.719 39.4376 340.612 39.4921C340.518 39.54 340.442 39.6165 340.394 39.7106C340.339 39.8176 340.339 39.9576 340.339 40.2376V52.8127C340.339 53.0927 340.339 53.2328 340.394 53.3397C340.442 53.4338 340.518 53.5103 340.612 53.5582C340.719 53.6127 340.859 53.6127 341.139 53.6127H341.189C341.469 53.6127 341.609 53.6127 341.716 53.5582C341.81 53.5103 341.887 53.4338 341.935 53.3397C341.989 53.2328 341.989 53.0927 341.989 52.8127V40.2376C341.989 39.9576 341.989 39.8176 341.935 39.7106C341.887 39.6165 341.81 39.54 341.716 39.4921C341.609 39.4376 341.469 39.4376 341.189 39.4376H341.139ZM351.125 44.4476C350.845 44.4476 350.705 44.4476 350.598 44.5021C350.504 44.5501 350.427 44.6266 350.379 44.7207C350.325 44.8276 350.325 44.9676 350.325 45.2477V52.8127C350.325 53.0927 350.325 53.2328 350.379 53.3397C350.427 53.4338 350.504 53.5103 350.598 53.5582C350.705 53.6127 350.845 53.6127 351.125 53.6127H351.175C351.455 53.6127 351.595 53.6127 351.702 53.5582C351.796 53.5103 351.872 53.4338 351.92 53.3397C351.975 53.2328 351.975 53.0927 351.975 52.8127V45.2477C351.975 44.9676 351.975 44.8276 351.92 44.7207C351.872 44.6266 351.796 44.5501 351.702 44.5021C351.595 44.4476 351.455 44.4476 351.175 44.4476H351.125ZM336.129 44.4476C335.849 44.4476 335.709 44.4476 335.602 44.5021C335.508 44.5501 335.432 44.6266 335.384 44.7207C335.329 44.8276 335.329 44.9676 335.329 45.2477V52.8127C335.329 53.0927 335.329 53.2328 335.384 53.3397C335.432 53.4338 335.508 53.5103 335.602 53.5582C335.709 53.6127 335.849 53.6127 336.129 53.6127H336.179C336.459 53.6127 336.599 53.6127 336.706 53.5582C336.8 53.5103 336.877 53.4338 336.925 53.3397C336.979 53.2328 336.979 53.0927 336.979 52.8127V45.2477C336.979 44.9676 336.979 44.8276 336.925 44.7207C336.877 44.6266 336.8 44.5501 336.706 44.5021C336.599 44.4476 336.459 44.4476 336.179 44.4476H336.129ZM346.149 46.9527C345.869 46.9527 345.729 46.9527 345.622 47.0072C345.528 47.0551 345.452 47.1316 345.404 47.2257C345.349 47.3326 345.349 47.4726 345.349 47.7527V52.8127C345.349 53.0927 345.349 53.2328 345.404 53.3397C345.452 53.4338 345.528 53.5103 345.622 53.5582C345.729 53.6127 345.869 53.6127 346.149 53.6127H346.199C346.479 53.6127 346.619 53.6127 346.726 53.5582C346.82 53.5103 346.897 53.4338 346.945 53.3397C346.999 53.2328 346.999 53.0927 346.999 52.8127V47.7527C346.999 47.4726 346.999 47.3326 346.945 47.2257C346.897 47.1316 346.82 47.0551 346.726 47.0072C346.619 46.9527 346.479 46.9527 346.199 46.9527H346.149Z" fill="#88898A"/>
<text fill="#5E6063" style="white-space: pre" xml:space="preserve" font-family="Basier Circle" font-size="12" letter-spacing="0px"><tspan x="322.242" y="71.7891">Brokers</tspan></text>
</g>
<defs>
<filter id="filter0_d_6995_46643" x="0" y="0" width="409" height="106" filterUnits="userSpaceOnUse" color-interpolation-filters="sRGB">
<feFlood flood-opacity="0" result="BackgroundImageFix"/>
<feColorMatrix in="SourceAlpha" type="matrix" values="0 0 0 0 0 0 0 0 0 0 0 0 0 0 0 0 0 0 127 0" result="hardAlpha"/>
<feOffset dy="-4"/>
<feGaussianBlur stdDeviation="8.5"/>
<feColorMatrix type="matrix" values="0 0 0 0 0 0 0 0 0 0 0 0 0 0 0 0 0 0 0.12 0"/>
<feBlend mode="normal" in2="BackgroundImageFix" result="effect1_dropShadow_6995_46643"/>
<feBlend mode="normal" in="SourceGraphic" in2="effect1_dropShadow_6995_46643" result="shape"/>
</filter>
</defs>
</svg>
