<svg width="399" height="96" viewBox="0 0 399 96" fill="none" xmlns="http://www.w3.org/2000/svg">
<g filter="url(#filter0_ddd_6995_46642)">
<rect width="375" height="72" transform="translate(12 11)" fill="white"/>
<rect width="24" height="24" transform="translate(36.8691 22)" fill="white"/>
<path d="M48.8691 30L44.8691 34M44.8691 34L48.8691 38M44.8691 34H52.8691M58.8691 34C58.8691 39.5228 54.392 44 48.8691 44C43.3463 44 38.8691 39.5228 38.8691 34C38.8691 28.4772 43.3463 24 48.8691 24C54.392 24 58.8691 28.4772 58.8691 34Z" stroke="#223466" stroke-width="1.71429" stroke-linecap="round" stroke-linejoin="round"/>
<text fill="#223466" style="white-space: pre" xml:space="preserve" font-family="Basier Circle" font-size="12" letter-spacing="0px"><tspan x="32.3223" y="61.7715">Home</tspan></text>
<line x1="81.8691" y1="22" x2="81.8691" y2="64" stroke="#88898A"/>
<path d="M133.715 42.9389C134.765 42.9389 135.29 42.9389 135.691 42.7476C136.043 42.5792 136.33 42.3107 136.51 41.9804C136.714 41.6049 136.714 41.1133 136.714 40.1301V33.4593C136.714 32.4761 136.714 31.9845 136.51 31.609C136.33 31.2787 136.043 31.0101 135.691 30.8418C135.29 30.6505 134.765 30.6505 133.715 30.6505L120.971 30.6505C119.922 30.6505 119.397 30.6505 118.996 30.8418C118.643 31.0101 118.357 31.2787 118.177 31.609C117.973 31.9845 117.973 32.4761 117.973 33.4593L117.973 40.1301C117.973 41.1133 117.973 41.6049 118.177 41.9804C118.357 42.3107 118.643 42.5792 118.996 42.7476C119.397 42.9389 119.922 42.9389 120.971 42.9389L133.715 42.9389Z" stroke="#88898A" stroke-width="1.37143" stroke-linecap="round" stroke-linejoin="round"/>
<path d="M130.766 39.2954C131.816 39.2954 132.341 39.2954 132.742 39.1049C133.094 38.9373 133.381 38.67 133.561 38.3411C133.765 37.9672 133.765 37.4778 133.765 36.499V29.8575C133.765 28.8787 133.765 28.3893 133.561 28.0154C133.381 27.6865 133.094 27.4192 132.742 27.2516C132.341 27.0611 131.816 27.0611 130.766 27.0611L118.022 27.0611C116.972 27.0611 116.448 27.0611 116.047 27.2516C115.694 27.4192 115.407 27.6865 115.228 28.0154C115.023 28.3893 115.023 28.8787 115.023 29.8575L115.023 36.499C115.023 37.4778 115.023 37.9672 115.228 38.3411C115.407 38.67 115.694 38.9373 116.047 39.1049C116.448 39.2954 116.972 39.2954 118.022 39.2954L130.766 39.2954Z" fill="white" stroke="#88898A" stroke-width="1.37143" stroke-linecap="round" stroke-linejoin="round"/>
<path fill-rule="evenodd" clip-rule="evenodd" d="M119.561 30.6505V35.7049H117.973V30.6505H119.561ZM130.806 30.6505V35.7049H129.218V30.6505H130.806Z" fill="#88898A"/>
<path d="M124.395 35.2021C125.534 35.2021 126.457 34.2957 126.457 33.1776C126.457 32.0595 125.534 31.1531 124.395 31.1531C123.256 31.1531 122.332 32.0595 122.332 33.1776C122.332 34.2957 123.256 35.2021 124.395 35.2021Z" stroke="#88898A" stroke-width="1.37143" stroke-linecap="round" stroke-linejoin="round"/>
<text fill="#5E6063" style="white-space: pre" xml:space="preserve" font-family="Basier Circle" font-size="12" letter-spacing="0px"><tspan x="97.7734" y="61.7891">InstaCash</tspan></text>
<text fill="#5E6063" style="white-space: pre" xml:space="preserve" font-family="Basier Circle" font-size="12" letter-spacing="0px"><tspan x="171" y="61.7891">InstaPlus</tspan></text>
<g clip-path="url(#clip0_6995_46642)">
<path d="M193.964 28.8145L194.947 28.6031C194.947 28.3267 194.19 28.099 194.464 28.099H194.947C194.657 27.9364 194.061 27.5137 193.642 26.7495C193.303 26.1316 193.223 25.5625 193.207 25.2373C193.223 25.1072 193.32 24.8145 193.594 24.5544C193.868 24.2942 194.174 24.2129 194.303 24.1967C194.673 24.1967 195.318 24.2292 196.027 24.5544C196.72 24.8633 197.172 25.2861 197.413 25.5462C197.736 25.2861 198.332 24.8633 199.186 24.6357C199.879 24.4568 200.459 24.4731 200.846 24.5219C200.927 24.5381 201.185 24.6194 201.394 24.8796C201.604 25.1397 201.636 25.4162 201.636 25.5137C201.62 25.8064 201.523 26.3592 201.169 26.9446C200.782 27.595 200.25 27.9527 199.992 28.099H200.298C200.572 28.099 199.992 28.3267 199.992 28.6031V29.0259C199.992 29.3023 200.572 29.5299 200.298 29.5299H200.185C201.072 30.1153 202.845 31.4648 204.054 33.9038C204.94 35.6924 205.149 37.3347 205.198 38.3265C205.23 38.6517 205.407 40.3265 204.247 41.8224C202.925 43.546 200.964 43.5912 200.653 43.6598C199.766 43.8549 198.622 44.0013 197.3 43.985C195.818 43.9525 194.561 43.7248 193.626 43.4647C193.287 43.4159 191.611 43.0907 190.467 41.5135C189.5 40.1639 189.532 38.733 189.564 38.3265C189.742 37.2209 190.145 35.3672 191.321 33.3835C192.481 31.4323 193.868 30.1966 194.754 29.5299H194.464C194.19 29.5299 194.861 29.3023 194.861 29.0259L193.964 28.8145ZM193.964 28.8145H200.697" stroke="#88898A" stroke-width="1.75" stroke-linecap="round" stroke-linejoin="round"/>
<path d="M197.764 41.3116C197.685 41.3116 197.611 41.2692 197.571 41.2003L195.275 37.2667C195.255 37.2324 195.244 37.1934 195.244 37.1537V36.8923C195.244 36.7684 195.345 36.668 195.468 36.668H195.523C195.97 36.668 196.345 36.6267 196.649 36.5439C196.961 36.4611 197.205 36.3245 197.383 36.1342C197.513 35.9934 197.605 35.8143 197.658 35.5967C197.689 35.4675 197.583 35.352 197.451 35.352H195.468C195.345 35.352 195.244 35.2516 195.244 35.1277V34.7816C195.244 34.6578 195.345 34.5573 195.468 34.5573H197.415C197.555 34.5573 197.663 34.4281 197.616 34.2951C197.55 34.106 197.455 33.9451 197.332 33.8124C197.155 33.6137 196.914 33.4689 196.611 33.3778C196.315 33.2868 195.953 33.2413 195.523 33.2413H195.468C195.345 33.2413 195.244 33.1409 195.244 33.017V32.6709C195.244 32.5471 195.345 32.4467 195.468 32.4467H200.258C200.382 32.4467 200.482 32.5471 200.482 32.6709V33.017C200.482 33.1409 200.382 33.2413 200.258 33.2413H198.724C198.513 33.2413 198.398 33.5317 198.515 33.708C198.534 33.7381 198.554 33.7687 198.572 33.8C198.669 33.9649 198.739 34.1516 198.781 34.3602C198.804 34.4717 198.898 34.5573 199.012 34.5573H200.258C200.382 34.5573 200.482 34.6578 200.482 34.7816V35.1277C200.482 35.2516 200.382 35.352 200.258 35.352H199.041C198.926 35.352 198.83 35.4399 198.81 35.5536C198.722 36.0621 198.495 36.4667 198.129 36.7674C197.795 37.0408 197.368 37.2323 196.85 37.342C196.691 37.3757 196.606 37.5564 196.691 37.6945L198.715 40.9694C198.807 41.1188 198.7 41.3116 198.524 41.3116H197.764Z" fill="#88898A"/>
</g>
<path d="M278.239 31.9257H257.496M257.496 30.0588L257.496 37.9411C257.496 39.1028 257.496 39.6837 257.722 40.1274C257.921 40.5177 258.238 40.835 258.629 41.0339C259.072 41.26 259.653 41.26 260.815 41.26L274.92 41.26C276.082 41.26 276.663 41.26 277.106 41.0339C277.497 40.835 277.814 40.5177 278.013 40.1274C278.239 39.6837 278.239 39.1028 278.239 37.9411V30.0588C278.239 28.8971 278.239 28.3163 278.013 27.8726C277.814 27.4823 277.497 27.1649 277.106 26.9661C276.663 26.74 276.082 26.74 274.92 26.74L260.815 26.74C259.653 26.74 259.072 26.74 258.629 26.9661C258.238 27.1649 257.921 27.4823 257.722 27.8726C257.496 28.3163 257.496 28.8971 257.496 30.0588Z" stroke="#88898A" stroke-width="1.37143" stroke-linecap="round" stroke-linejoin="round"/>
<path fill-rule="evenodd" clip-rule="evenodd" d="M260.914 36.0759C260.914 35.941 260.914 35.8735 260.925 35.8174C260.971 35.587 261.151 35.4069 261.382 35.3611C261.438 35.3499 261.505 35.3499 261.64 35.3499H266.826C266.961 35.3499 267.028 35.3499 267.084 35.3611C267.315 35.4069 267.495 35.587 267.541 35.8174C267.552 35.8735 267.552 35.941 267.552 36.0759C267.552 36.2109 267.552 36.2783 267.541 36.3344C267.495 36.5648 267.315 36.7449 267.084 36.7908C267.028 36.8019 266.961 36.8019 266.826 36.8019H261.64C261.505 36.8019 261.438 36.8019 261.382 36.7908C261.151 36.7449 260.971 36.5648 260.925 36.3344C260.914 36.2783 260.914 36.2109 260.914 36.0759Z" fill="#88898A"/>
<text fill="#5E6063" style="white-space: pre" xml:space="preserve" font-family="Basier Circle" font-size="12" letter-spacing="0px"><tspan x="235.654" y="61.7891">Credit Card</tspan></text>
<path d="M328.869 11H348.869C348.869 12.6569 347.526 14 345.869 14H331.869C330.212 14 328.869 12.6569 328.869 11Z" fill="#017AFE"/>
<path d="M332.58 32C332.58 28.5265 335.396 25.7107 338.869 25.7107M342.913 27.9569L338.869 32M347.854 32C347.854 36.9621 343.832 40.9847 338.869 40.9847C333.907 40.9847 329.885 36.9621 329.885 32C329.885 27.0379 333.907 23.0153 338.869 23.0153C343.832 23.0153 347.854 27.0379 347.854 32ZM339.768 32C339.768 32.4962 339.366 32.8985 338.869 32.8985C338.373 32.8985 337.971 32.4962 337.971 32C337.971 31.5038 338.373 31.1015 338.869 31.1015C339.366 31.1015 339.768 31.5038 339.768 32Z" stroke="#017AFE" stroke-width="1.37143" stroke-linecap="round" stroke-linejoin="round"/>
<text fill="#017AFE" style="white-space: pre" xml:space="preserve" font-family="Basier Circle" font-size="12" letter-spacing="0px"><tspan x="321.613" y="61.7715">Credit </tspan><tspan x="323.541" y="76.7715">score</tspan></text>
</g>
<defs>
<filter id="filter0_ddd_6995_46642" x="0" y="0" width="399" height="96" filterUnits="userSpaceOnUse" color-interpolation-filters="sRGB">
<feFlood flood-opacity="0" result="BackgroundImageFix"/>
<feColorMatrix in="SourceAlpha" type="matrix" values="0 0 0 0 0 0 0 0 0 0 0 0 0 0 0 0 0 0 127 0" result="hardAlpha"/>
<feOffset dy="1"/>
<feGaussianBlur stdDeviation="6"/>
<feColorMatrix type="matrix" values="0 0 0 0 0 0 0 0 0 0 0 0 0 0 0 0 0 0 0.12 0"/>
<feBlend mode="normal" in2="BackgroundImageFix" result="effect1_dropShadow_6995_46642"/>
<feColorMatrix in="SourceAlpha" type="matrix" values="0 0 0 0 0 0 0 0 0 0 0 0 0 0 0 0 0 0 127 0" result="hardAlpha"/>
<feOffset dy="4"/>
<feGaussianBlur stdDeviation="4"/>
<feColorMatrix type="matrix" values="0 0 0 0 0 0 0 0 0 0 0 0 0 0 0 0 0 0 0.02 0"/>
<feBlend mode="normal" in2="effect1_dropShadow_6995_46642" result="effect2_dropShadow_6995_46642"/>
<feColorMatrix in="SourceAlpha" type="matrix" values="0 0 0 0 0 0 0 0 0 0 0 0 0 0 0 0 0 0 127 0" result="hardAlpha"/>
<feOffset dy="1"/>
<feGaussianBlur stdDeviation="2"/>
<feColorMatrix type="matrix" values="0 0 0 0 0 0 0 0 0 0 0 0 0 0 0 0 0 0 0.01 0"/>
<feBlend mode="normal" in2="effect2_dropShadow_6995_46642" result="effect3_dropShadow_6995_46642"/>
<feBlend mode="normal" in="SourceGraphic" in2="effect3_dropShadow_6995_46642" result="shape"/>
</filter>
<clipPath id="clip0_6995_46642">
<rect width="24" height="24" fill="white" transform="translate(185.369 22)"/>
</clipPath>
</defs>
</svg>
