<svg width="343" height="16" viewBox="0 0 343 16" fill="none" xmlns="http://www.w3.org/2000/svg">
<text fill="#393B3E" style="white-space: pre" xml:space="preserve" font-family="Basier Circle" font-size="12" letter-spacing="0px"><tspan x="113" y="12.2891">Placeholder Text</tspan></text>
<g clip-path="url(#clip0_1437_29039)">
<g clip-path="url(#clip1_1437_29039)">
<path d="M229.047 2.55994H228.132C225.905 2.55994 224.125 1.42714 222.193 0.0575367C222.138 0.0206669 222.073 0.000976563 222.007 0.000976562C221.941 0.000976563 221.876 0.0206669 221.821 0.0575367C219.882 1.42714 218.103 2.55994 215.876 2.55994H214.961C214.876 2.55994 214.794 2.59365 214.734 2.65366C214.674 2.71367 214.641 2.79507 214.641 2.87994V3.16154C214.641 6.04154 214.602 12.7615 221.86 15.9615C221.907 15.9863 221.96 15.9994 222.013 15.9999C222.081 15.9995 222.146 15.977 222.199 15.9359C229.399 12.7487 229.361 6.03514 229.361 3.16154V2.87994C229.361 2.83822 229.354 2.79675 229.339 2.75796C229.323 2.71917 229.3 2.68384 229.271 2.65404C229.242 2.62424 229.207 2.60056 229.169 2.5844C229.13 2.56825 229.089 2.55993 229.047 2.55994ZM221.476 10.6943C221.356 10.8135 221.194 10.8804 221.025 10.8804C220.856 10.8804 220.693 10.8135 220.573 10.6943L218.346 8.47994L219.249 7.57114L221.041 9.33754L225.405 4.98554L226.308 5.89434L221.476 10.6943Z" fill="#089958"/>
<g clip-path="url(#clip2_1437_29039)">
<g clip-path="url(#clip3_1437_29039)">
<path d="M229.047 2.55994H228.132C225.905 2.55994 224.125 1.42714 222.193 0.0575367C222.138 0.0206669 222.073 0.000976563 222.007 0.000976562C221.941 0.000976563 221.876 0.0206669 221.821 0.0575367C219.882 1.42714 218.103 2.55994 215.876 2.55994H214.961C214.876 2.55994 214.794 2.59365 214.734 2.65366C214.674 2.71367 214.641 2.79507 214.641 2.87994V3.16154C214.641 6.04154 214.602 12.7615 221.86 15.9615C221.907 15.9863 221.96 15.9994 222.013 15.9999C222.081 15.9995 222.146 15.977 222.199 15.9359C229.399 12.7487 229.361 6.03514 229.361 3.16154V2.87994C229.361 2.83822 229.354 2.79675 229.339 2.75796C229.323 2.71917 229.3 2.68384 229.271 2.65404C229.242 2.62424 229.207 2.60056 229.169 2.5844C229.13 2.56825 229.089 2.55993 229.047 2.55994ZM221.476 10.6943C221.356 10.8135 221.194 10.8804 221.025 10.8804C220.856 10.8804 220.693 10.8135 220.573 10.6943L218.346 8.47994L219.249 7.57114L221.041 9.33754L225.405 4.98554L226.308 5.89434L221.476 10.6943Z" fill="#089958"/>
</g>
</g>
</g>
</g>
<defs>
<clipPath id="clip0_1437_29039">
<rect width="16" height="16" fill="white" transform="translate(214)"/>
</clipPath>
<clipPath id="clip1_1437_29039">
<rect width="16" height="16" fill="white" transform="translate(214)"/>
</clipPath>
<clipPath id="clip2_1437_29039">
<rect width="16" height="16" fill="white" transform="translate(214)"/>
</clipPath>
<clipPath id="clip3_1437_29039">
<rect width="16" height="16" fill="white" transform="translate(214)"/>
</clipPath>
</defs>
</svg>
