<svg width="375" height="192" viewBox="0 0 375 192" fill="none" xmlns="http://www.w3.org/2000/svg">
<path d="M0 0H375V172C375 183.046 366.046 192 355 192H20C8.95431 192 0 183.046 0 172V0Z" fill="white"/>
<rect x="18.5013" y="14.4998" width="15" height="15" rx="2.5" fill="#089959" stroke="#089959" stroke-width="1.66667"/>
<path d="M22.668 22L24.8733 24.2054C25.0361 24.3681 25.2999 24.3681 25.4626 24.2054L30.168 19.5" stroke="#FFFFFE" stroke-width="1.66667" stroke-linecap="round"/>
<text fill="#5E6063" style="white-space: pre" xml:space="preserve" font-family="Basier Circle" font-size="12" letter-spacing="0px"><tspan x="40" y="26.2891">I agree to Insta Plus TnC and authorize sharing details</tspan></text>
<rect x="16" y="44" width="343" height="50" rx="25" fill="#089959"/>
<text fill="#FFFFFE" style="white-space: pre" xml:space="preserve" font-family="Basier Circle" font-size="16" letter-spacing="0px"><tspan x="161.883" y="74.6953">Button</tspan></text>
<text fill="#089958" style="white-space: pre" xml:space="preserve" font-family="Basier Circle" font-size="16" letter-spacing="0px"><tspan x="161.883" y="124.695">Button</tspan></text>
<path d="M0 144H375V172C375 183.046 366.046 192 355 192H20C8.95431 192 0 183.046 0 172V144Z" fill="#F9F9F9"/>
<g clip-path="url(#clip0_1625_49709)">
<g clip-path="url(#clip1_1625_49709)">
<path d="M129.047 158.56H128.132C125.905 158.56 124.125 157.427 122.193 156.058C122.138 156.021 122.073 156.001 122.007 156.001C121.941 156.001 121.876 156.021 121.821 156.058C119.882 157.427 118.103 158.56 115.876 158.56H114.961C114.876 158.56 114.794 158.594 114.734 158.654C114.674 158.714 114.641 158.795 114.641 158.88V159.162C114.641 162.042 114.602 168.762 121.86 171.962C121.907 171.986 121.96 171.999 122.013 172C122.081 171.999 122.146 171.977 122.199 171.936C129.399 168.749 129.361 162.035 129.361 159.162V158.88C129.361 158.838 129.354 158.797 129.339 158.758C129.323 158.719 129.3 158.684 129.271 158.654C129.242 158.624 129.207 158.601 129.169 158.584C129.13 158.568 129.089 158.56 129.047 158.56ZM121.476 166.694C121.356 166.814 121.194 166.88 121.025 166.88C120.856 166.88 120.693 166.814 120.573 166.694L118.346 164.48L119.249 163.571L121.041 165.338L125.405 160.986L126.308 161.894L121.476 166.694Z" fill="#089958"/>
<g clip-path="url(#clip2_1625_49709)">
<g clip-path="url(#clip3_1625_49709)">
<path d="M129.047 158.56H128.132C125.905 158.56 124.125 157.427 122.193 156.058C122.138 156.021 122.073 156.001 122.007 156.001C121.941 156.001 121.876 156.021 121.821 156.058C119.882 157.427 118.103 158.56 115.876 158.56H114.961C114.876 158.56 114.794 158.594 114.734 158.654C114.674 158.714 114.641 158.795 114.641 158.88V159.162C114.641 162.042 114.602 168.762 121.86 171.962C121.907 171.986 121.96 171.999 122.013 172C122.081 171.999 122.146 171.977 122.199 171.936C129.399 168.749 129.361 162.035 129.361 159.162V158.88C129.361 158.838 129.354 158.797 129.339 158.758C129.323 158.719 129.3 158.684 129.271 158.654C129.242 158.624 129.207 158.601 129.169 158.584C129.13 158.568 129.089 158.56 129.047 158.56ZM121.476 166.694C121.356 166.814 121.194 166.88 121.025 166.88C120.856 166.88 120.693 166.814 120.573 166.694L118.346 164.48L119.249 163.571L121.041 165.338L125.405 160.986L126.308 161.894L121.476 166.694Z" fill="#089958"/>
</g>
</g>
</g>
</g>
<text fill="#393B3E" style="white-space: pre" xml:space="preserve" font-family="Basier Circle" font-size="12" letter-spacing="0px"><tspan x="138" y="168.289">100% safe and secure</tspan></text>
<defs>
<clipPath id="clip0_1625_49709">
<rect width="16" height="16" fill="white" transform="translate(114 156)"/>
</clipPath>
<clipPath id="clip1_1625_49709">
<rect width="16" height="16" fill="white" transform="translate(114 156)"/>
</clipPath>
<clipPath id="clip2_1625_49709">
<rect width="16" height="16" fill="white" transform="translate(114 156)"/>
</clipPath>
<clipPath id="clip3_1625_49709">
<rect width="16" height="16" fill="white" transform="translate(114 156)"/>
</clipPath>
</defs>
</svg>
