<svg width="375" height="48" viewBox="0 0 375 48" fill="none" xmlns="http://www.w3.org/2000/svg">
<path d="M0 0H375V28C375 39.0457 366.046 48 355 48H20C8.95431 48 0 39.0457 0 28V0Z" fill="#F9F9F9"/>
<g clip-path="url(#clip0_4494_66845)">
<g clip-path="url(#clip1_4494_66845)">
<path d="M129.047 14.5599H128.132C125.905 14.5599 124.125 13.4271 122.193 12.0575C122.138 12.0207 122.073 12.001 122.007 12.001C121.941 12.001 121.876 12.0207 121.821 12.0575C119.882 13.4271 118.103 14.5599 115.876 14.5599H114.961C114.876 14.5599 114.794 14.5937 114.734 14.6537C114.674 14.7137 114.641 14.7951 114.641 14.8799V15.1615C114.641 18.0415 114.602 24.7615 121.86 27.9615C121.907 27.9863 121.96 27.9994 122.013 27.9999C122.081 27.9995 122.146 27.977 122.199 27.9359C129.399 24.7487 129.361 18.0351 129.361 15.1615V14.8799C129.361 14.8382 129.354 14.7967 129.339 14.758C129.323 14.7192 129.3 14.6838 129.271 14.654C129.242 14.6242 129.207 14.6006 129.169 14.5844C129.13 14.5682 129.089 14.5599 129.047 14.5599ZM121.476 22.6943C121.356 22.8135 121.194 22.8804 121.025 22.8804C120.856 22.8804 120.693 22.8135 120.573 22.6943L118.346 20.4799L119.249 19.5711L121.041 21.3375L125.405 16.9855L126.308 17.8943L121.476 22.6943Z" fill="#089958"/>
<g clip-path="url(#clip2_4494_66845)">
<g clip-path="url(#clip3_4494_66845)">
<path d="M129.047 14.5599H128.132C125.905 14.5599 124.125 13.4271 122.193 12.0575C122.138 12.0207 122.073 12.001 122.007 12.001C121.941 12.001 121.876 12.0207 121.821 12.0575C119.882 13.4271 118.103 14.5599 115.876 14.5599H114.961C114.876 14.5599 114.794 14.5937 114.734 14.6537C114.674 14.7137 114.641 14.7951 114.641 14.8799V15.1615C114.641 18.0415 114.602 24.7615 121.86 27.9615C121.907 27.9863 121.96 27.9994 122.013 27.9999C122.081 27.9995 122.146 27.977 122.199 27.9359C129.399 24.7487 129.361 18.0351 129.361 15.1615V14.8799C129.361 14.8382 129.354 14.7967 129.339 14.758C129.323 14.7192 129.3 14.6838 129.271 14.654C129.242 14.6242 129.207 14.6006 129.169 14.5844C129.13 14.5682 129.089 14.5599 129.047 14.5599ZM121.476 22.6943C121.356 22.8135 121.194 22.8804 121.025 22.8804C120.856 22.8804 120.693 22.8135 120.573 22.6943L118.346 20.4799L119.249 19.5711L121.041 21.3375L125.405 16.9855L126.308 17.8943L121.476 22.6943Z" fill="#089958"/>
</g>
</g>
</g>
</g>
<text fill="#393B3E" style="white-space: pre" xml:space="preserve" font-family="Basier Circle" font-size="12" letter-spacing="0px"><tspan x="138" y="24.2891">100% safe and secure</tspan></text>
<defs>
<clipPath id="clip0_4494_66845">
<rect width="16" height="16" fill="white" transform="translate(114 12)"/>
</clipPath>
<clipPath id="clip1_4494_66845">
<rect width="16" height="16" fill="white" transform="translate(114 12)"/>
</clipPath>
<clipPath id="clip2_4494_66845">
<rect width="16" height="16" fill="white" transform="translate(114 12)"/>
</clipPath>
<clipPath id="clip3_4494_66845">
<rect width="16" height="16" fill="white" transform="translate(114 12)"/>
</clipPath>
</defs>
</svg>
