<svg width="375" height="162" viewBox="0 0 375 162" fill="none" xmlns="http://www.w3.org/2000/svg">
<g clip-path="url(#clip0_3719_169227)">
<path d="M69.3327 57.3335V42.1335C69.3327 37.6531 69.3327 35.4129 68.4607 33.7016C67.6937 32.1963 66.4699 30.9724 64.9646 30.2054C63.2533 29.3335 61.0131 29.3335 56.5327 29.3335H39.466C34.9856 29.3335 32.7454 29.3335 31.0341 30.2054C29.5288 30.9724 28.305 32.1963 27.538 33.7016C26.666 35.4129 26.666 37.6531 26.666 42.1335V69.8668C26.666 74.3472 26.666 76.5875 27.538 78.2987C28.305 79.804 29.5288 81.0279 31.0341 81.7949C32.7454 82.6668 34.9855 82.6668 39.4656 82.6668H49.3327M53.3327 53.3335H37.3327M42.666 64.0002H37.3327M58.666 42.6668H37.3327M71.9993 74.6668L63.9993 82.6668L55.9993 74.6668M63.9993 82.6668V66.6668" stroke="#017AFE" stroke-width="3.5" stroke-linecap="round" stroke-linejoin="round"/>
</g>
<text fill="#223466" style="white-space: pre" xml:space="preserve" font-family="Basier Circle" font-size="20" letter-spacing="0px"><tspan x="16" y="131.619">Heading</tspan></text>
<text fill="#5E6063" style="white-space: pre" xml:space="preserve" font-family="Basier Circle" font-size="14" letter-spacing="0px"><tspan x="16" y="158.504">Subtitle</tspan></text>
<defs>
<clipPath id="clip0_3719_169227">
<rect width="64" height="64" fill="white" transform="translate(16 24)"/>
</clipPath>
</defs>
</svg>
