<svg width="375" height="162" viewBox="0 0 375 162" fill="none" xmlns="http://www.w3.org/2000/svg">
<g clip-path="url(#clip0_3719_169213)">
<path d="M69.3327 57.3335V42.1335C69.3327 37.6531 69.3327 35.4129 68.4607 33.7016C67.6937 32.1963 66.4699 30.9724 64.9646 30.2054C63.2533 29.3335 61.0131 29.3335 56.5327 29.3335H39.466C34.9856 29.3335 32.7454 29.3335 31.0341 30.2054C29.5288 30.9724 28.305 32.1963 27.538 33.7016C26.666 35.4129 26.666 37.6531 26.666 42.1335V69.8668C26.666 74.3472 26.666 76.5875 27.538 78.2987C28.305 79.804 29.5288 81.0279 31.0341 81.7949C32.7454 82.6668 34.9855 82.6668 39.4656 82.6668H49.3327M53.3327 53.3335H37.3327M42.666 64.0002H37.3327M58.666 42.6668H37.3327M71.9993 74.6668L63.9993 82.6668L55.9993 74.6668M63.9993 82.6668V66.6668" stroke="#017AFE" stroke-width="3.5" stroke-linecap="round" stroke-linejoin="round"/>
</g>
<circle cx="347" cy="36" r="12" fill="#F5F7F9"/>
<path d="M348.058 36.0001L351.283 32.7826C351.424 32.6414 351.504 32.4499 351.504 32.2501C351.504 32.0504 351.424 31.8589 351.283 31.7176C351.142 31.5764 350.95 31.4971 350.75 31.4971C350.551 31.4971 350.359 31.5764 350.218 31.7176L347 34.9426L343.783 31.7176C343.642 31.5764 343.45 31.4971 343.25 31.4971C343.051 31.4971 342.859 31.5764 342.718 31.7176C342.577 31.8589 342.497 32.0504 342.497 32.2501C342.497 32.4499 342.577 32.6414 342.718 32.7826L345.943 36.0001L342.718 39.2176C342.648 39.2874 342.592 39.3703 342.554 39.4617C342.516 39.5531 342.496 39.6511 342.496 39.7501C342.496 39.8491 342.516 39.9472 342.554 40.0386C342.592 40.13 342.648 40.2129 342.718 40.2826C342.788 40.3529 342.871 40.4087 342.962 40.4468C343.053 40.4849 343.151 40.5045 343.25 40.5045C343.349 40.5045 343.447 40.4849 343.539 40.4468C343.63 40.4087 343.713 40.3529 343.783 40.2826L347 37.0576L350.218 40.2826C350.288 40.3529 350.371 40.4087 350.462 40.4468C350.553 40.4849 350.651 40.5045 350.75 40.5045C350.849 40.5045 350.947 40.4849 351.039 40.4468C351.13 40.4087 351.213 40.3529 351.283 40.2826C351.353 40.2129 351.409 40.13 351.447 40.0386C351.485 39.9472 351.505 39.8491 351.505 39.7501C351.505 39.6511 351.485 39.5531 351.447 39.4617C351.409 39.3703 351.353 39.2874 351.283 39.2176L348.058 36.0001Z" fill="#88898A"/>
<text fill="#223466" style="white-space: pre" xml:space="preserve" font-family="Basier Circle" font-size="20" letter-spacing="0px"><tspan x="16" y="131.619">Heading</tspan></text>
<text fill="#5E6063" style="white-space: pre" xml:space="preserve" font-family="Basier Circle" font-size="14" letter-spacing="0px"><tspan x="16" y="158.504">Subtitle</tspan></text>
<defs>
<clipPath id="clip0_3719_169213">
<rect width="64" height="64" fill="white" transform="translate(16 24)"/>
</clipPath>
</defs>
</svg>
