<svg width="32" height="16" viewBox="0 0 32 16" fill="none" xmlns="http://www.w3.org/2000/svg">
<g clip-path="url(#clip0_3055_7563)">
<g clip-path="url(#clip1_3055_7563)">
<g clip-path="url(#clip2_3055_7563)">
<path d="M0.70753 4.07861C0.321841 4.07861 0 4.40395 0 4.79607V10.0714C0 10.4554 0.321841 10.7809 0.70753 10.7809C1.09322 10.7809 1.40697 10.4556 1.40697 10.0714V4.79607C1.40697 4.40395 1.09308 4.07861 0.70753 4.07861Z" fill="#121313"/>
<path d="M13.8087 6.12892C13.6437 5.72884 13.3911 5.37685 13.0799 5.06208C12.7688 4.76601 12.4017 4.51802 11.9921 4.34738C11.5744 4.17675 11.1277 4.09129 10.6622 4.09129H9.29512C9.25525 4.08057 9.21799 4.08057 9.17812 4.08057C8.77119 4.08057 8.44141 4.4033 8.44141 4.80598V10.0601C8.44141 10.4601 8.75256 10.7668 9.14894 10.7855H10.6622C11.1277 10.7855 11.5744 10.6894 11.9921 10.5188C12.399 10.3482 12.7686 10.1081 13.0799 9.81207C13.3911 9.48673 13.6437 9.14532 13.8087 8.73466C13.9842 8.32401 14.0693 7.89452 14.0693 7.43852C14.0693 6.98775 13.9842 6.53972 13.8087 6.12906V6.12892ZM12.0773 8.80129C11.6943 9.17733 11.1889 9.3694 10.6358 9.3694H9.84852V5.48882H10.6358C11.189 5.48882 11.6943 5.69958 12.0773 6.0675C12.4602 6.43282 12.6625 6.91561 12.6625 7.43563C12.6625 7.95565 12.4604 8.43569 12.0773 8.80115V8.80129Z" fill="#121313"/>
<path d="M9.5715 2.34645L7.49426 0.263482C7.35068 0.119499 7.15913 0.0501151 6.97033 0.0554746C6.78153 0.0501151 6.58999 0.116747 6.4464 0.263482L4.36917 2.34645C4.09254 2.62384 4.09254 3.07187 4.36917 3.34926C4.64579 3.62665 5.09259 3.62665 5.36921 3.34926L6.30801 2.40787V8.06999L3.80522 4.44014C3.68027 4.22142 3.44886 4.07743 3.18292 4.07743C2.78929 4.07743 2.46484 4.40277 2.46484 4.79488V10.0649C2.46484 10.457 2.78929 10.7823 3.18292 10.7823C3.57655 10.7823 3.901 10.457 3.901 10.0649V6.8005L6.44366 10.4677C6.44366 10.4757 6.44366 10.4864 6.45435 10.4971C6.59793 10.6785 6.80017 10.7852 7.02883 10.7852C7.42247 10.7852 7.73897 10.4599 7.73897 10.0678V2.51709L8.57145 3.35187C8.84808 3.62926 9.29487 3.62926 9.5715 3.35187C9.84812 3.07448 9.84812 2.6237 9.5715 2.34645Z" fill="#121313"/>
<path d="M13.212 14.5082C13.212 14.2313 13.0428 14.0049 12.744 14.0049C12.4664 14.0049 12.268 14.2233 12.268 14.5082C12.268 14.7931 12.4664 15.0088 12.744 15.0088C13.0428 15.0088 13.212 14.7851 13.212 14.5082ZM12.1094 15.0514V13.1981C12.1094 13.1129 12.1702 13.0996 12.1993 13.0996C12.2284 13.0996 12.2892 13.1129 12.2892 13.1981V14.1008H12.2945C12.4002 13.9384 12.5853 13.8532 12.7625 13.8532C13.1486 13.8532 13.4024 14.1407 13.4024 14.5082C13.4024 14.8757 13.1486 15.1632 12.7625 15.1632C12.5853 15.1632 12.4002 15.078 12.2945 14.9209H12.2892V15.0514C12.2892 15.1366 12.2284 15.1499 12.1993 15.1499C12.1702 15.1499 12.1094 15.1366 12.1094 15.0514Z" fill="#121313"/>
<path d="M14.7662 13.9996L14.1818 15.4535C14.1051 15.6452 14.0072 15.7704 13.7931 15.7704C13.7613 15.7704 13.7164 15.7677 13.6873 15.7597C13.6423 15.7464 13.6212 15.7171 13.6212 15.6798C13.6212 15.6372 13.6529 15.6026 13.6979 15.6026C13.7111 15.6026 13.7243 15.6053 13.7402 15.6079C13.7613 15.6106 13.7719 15.6106 13.7851 15.6106C13.9041 15.6106 13.9676 15.5307 14.0205 15.3896L14.1209 15.1286L13.6291 14.0049C13.6212 13.9836 13.6185 13.9677 13.6185 13.9544C13.6185 13.9038 13.6608 13.8665 13.7111 13.8665C13.7402 13.8665 13.7772 13.8771 13.801 13.9384L14.2135 14.9369H14.2188L14.5969 13.9384C14.6181 13.8798 14.6551 13.8665 14.6842 13.8665C14.7371 13.8665 14.7767 13.9038 14.7767 13.9517C14.7767 13.9623 14.7741 13.9783 14.7662 13.9996Z" fill="#121313"/>
<path d="M16.0414 13.4112V14.9662C16.0414 15.126 15.9304 15.1553 15.8749 15.1553C15.8193 15.1553 15.7083 15.126 15.7083 14.9662V13.4112C15.7083 13.2514 15.8193 13.2221 15.8749 13.2221C15.9304 13.2221 16.0414 13.2514 16.0414 13.4112Z" fill="#121313"/>
<path d="M17.663 15.0008L16.793 13.7919H16.7877V14.9662C16.7877 15.126 16.6767 15.1553 16.6212 15.1553C16.5656 15.1553 16.4546 15.126 16.4546 14.9662V13.4671C16.4546 13.2594 16.5974 13.2221 16.6635 13.2221C16.7375 13.2221 16.8089 13.254 16.8962 13.3765L17.7661 14.5828H17.7714V13.4112C17.7714 13.2514 17.8825 13.2221 17.938 13.2221C17.9935 13.2221 18.1046 13.2514 18.1046 13.4112V14.9103C18.1046 15.118 17.9618 15.1553 17.8957 15.1553C17.819 15.1553 17.7529 15.1233 17.663 15.0008Z" fill="#121313"/>
<path d="M19.1816 15.1313H18.7162C18.5813 15.1313 18.5178 15.0674 18.5178 14.9316V13.4458C18.5178 13.31 18.5813 13.2461 18.7162 13.2461H19.1816C19.6708 13.2461 20.2155 13.4804 20.2155 14.1887C20.2155 14.849 19.6708 15.1313 19.1816 15.1313ZM18.851 13.5336V14.8384H19.1287C19.4724 14.8384 19.8585 14.6973 19.8585 14.1887C19.8585 13.6481 19.4724 13.5336 19.1287 13.5336H18.851Z" fill="#121313"/>
<path d="M20.5213 14.9769V13.997C20.5213 13.8532 20.6245 13.8292 20.6721 13.8292C20.7197 13.8292 20.8228 13.8532 20.8228 13.997V14.0582H20.8281C20.8836 13.9331 21.0185 13.8159 21.2221 13.8159C21.4178 13.8159 21.5473 13.9144 21.6187 14.0582C21.7034 13.9038 21.8461 13.8159 22.0365 13.8159C22.3671 13.8159 22.5046 14.0715 22.5046 14.3325V14.9769C22.5046 15.1286 22.3988 15.1553 22.3459 15.1553C22.293 15.1553 22.1873 15.1286 22.1873 14.9769V14.423C22.1873 14.2712 22.1529 14.0822 21.9493 14.0822C21.7509 14.0822 21.669 14.2686 21.669 14.4337V14.9769C21.669 15.1286 21.5632 15.1553 21.5103 15.1553C21.4574 15.1553 21.3517 15.1286 21.3517 14.9769V14.3591C21.3517 14.202 21.2776 14.0822 21.1163 14.0822C20.9259 14.0822 20.8387 14.2579 20.8387 14.4283V14.9769C20.8387 15.1286 20.7329 15.1553 20.68 15.1553C20.6271 15.1553 20.5213 15.1286 20.5213 14.9769Z" fill="#121313"/>
<path d="M24.1801 14.4869C24.1801 14.889 23.8734 15.1686 23.49 15.1686C23.1065 15.1686 22.7998 14.889 22.7998 14.4869C22.7998 14.0848 23.1065 13.8159 23.49 13.8159C23.8734 13.8159 24.1801 14.0848 24.1801 14.4869ZM23.8575 14.4869C23.8575 14.2872 23.7412 14.0768 23.49 14.0768C23.2388 14.0768 23.1224 14.2872 23.1224 14.4869C23.1224 14.6866 23.2388 14.9023 23.49 14.9023C23.7412 14.9023 23.8575 14.6866 23.8575 14.4869Z" fill="#121313"/>
<path d="M24.4878 14.9769V13.997C24.4878 13.8532 24.5909 13.8292 24.6385 13.8292C24.6861 13.8292 24.7892 13.8532 24.7892 13.997V14.0582H24.7945C24.8501 13.9304 25.0008 13.8159 25.1885 13.8159C25.5191 13.8159 25.6566 14.0715 25.6566 14.3325V14.9769C25.6566 15.1286 25.5508 15.1553 25.4979 15.1553C25.445 15.1553 25.3393 15.1286 25.3393 14.9769V14.423C25.3393 14.2712 25.3049 14.0822 25.1013 14.0822C24.9003 14.0822 24.8051 14.2579 24.8051 14.4283V14.9769C24.8051 15.1286 24.6993 15.1553 24.6465 15.1553C24.5936 15.1553 24.4878 15.1286 24.4878 14.9769Z" fill="#121313"/>
<path d="M27.0687 14.5934H26.2701C26.2834 14.7745 26.4473 14.9076 26.6324 14.9076C26.7646 14.9076 26.844 14.865 26.9233 14.7985C26.9682 14.7612 26.9973 14.7532 27.0317 14.7532C27.1031 14.7532 27.1586 14.8038 27.1586 14.881C27.1586 14.9076 27.148 14.9556 27.1057 14.9955C26.9815 15.1153 26.8387 15.1686 26.6351 15.1686C26.2437 15.1686 25.9528 14.9156 25.9528 14.5002C25.9528 14.0875 26.2411 13.8159 26.6245 13.8159C26.9312 13.8159 27.1798 13.9916 27.23 14.3671C27.2327 14.3937 27.2353 14.4124 27.2353 14.4337C27.2353 14.5455 27.1745 14.5934 27.0687 14.5934ZM26.2701 14.3644H26.9206C26.9206 14.1993 26.8281 14.0555 26.6218 14.0555C26.4341 14.0555 26.2834 14.186 26.2701 14.3644Z" fill="#121313"/>
<path d="M28.6559 14.0609L28.1112 15.4056C28.016 15.6399 27.9023 15.7704 27.6299 15.7704C27.495 15.7704 27.4554 15.6905 27.4554 15.6266C27.4554 15.5627 27.4977 15.5067 27.5611 15.4961C27.577 15.4934 27.5902 15.4934 27.6114 15.4934C27.696 15.4934 27.778 15.4402 27.8361 15.2937L27.8996 15.1313L27.421 14.0715C27.4051 14.0342 27.3998 13.9996 27.3998 13.9783C27.3998 13.8958 27.4659 13.8292 27.5585 13.8292C27.614 13.8292 27.6748 13.8532 27.7172 13.9544L28.0609 14.7825H28.0662L28.3624 13.9623C28.402 13.8532 28.4655 13.8292 28.5184 13.8292C28.6083 13.8292 28.6744 13.8878 28.6744 13.973C28.6744 13.9916 28.6717 14.0183 28.6559 14.0609Z" fill="#121313"/>
<path d="M25.2579 7.19294C25.1095 6.84171 25.3674 6.45288 25.7487 6.45288C25.9663 6.45288 26.1621 6.58525 26.2431 6.78723L27.287 9.38851C27.2889 9.39335 27.2936 9.39653 27.2989 9.39653C27.3043 9.39653 27.3091 9.39314 27.3109 9.38807L28.2446 6.78984C28.3173 6.58769 28.5089 6.45288 28.7238 6.45288C29.0818 6.45288 29.328 6.81259 29.1984 7.14632L27.4665 11.6065C27.3901 11.8068 27.3049 11.9807 27.2109 12.128C27.1227 12.2812 27.0169 12.4079 26.8935 12.5081C26.7701 12.6142 26.6232 12.6908 26.4528 12.738C26.2882 12.791 26.0884 12.8175 25.8533 12.8175C25.713 12.8175 25.5742 12.8084 25.4369 12.7902C25.2089 12.7598 25.066 12.5404 25.0975 12.3126L25.1381 12.0197C25.1569 11.8841 25.2959 11.8006 25.4302 11.8275C25.5242 11.851 25.6182 11.8628 25.7123 11.8628C25.8415 11.8628 25.9503 11.851 26.0384 11.8275C26.1266 11.8039 26.2 11.7656 26.2588 11.7126C26.3235 11.6654 26.3764 11.6006 26.4175 11.5181C26.4586 11.4415 26.5027 11.3472 26.5497 11.2352C26.6321 11.0304 26.6733 10.928 26.6848 10.8216C26.6913 10.762 26.6908 10.7018 26.6833 10.6422C26.67 10.5361 26.627 10.4344 26.5411 10.231L25.2579 7.19294Z" fill="#121313"/>
<path d="M23.4267 10.1302C23.4267 10.1208 23.4191 10.1132 23.4097 10.1132C23.4038 10.1132 23.3984 10.1162 23.3952 10.1211C23.2432 10.3587 23.051 10.5328 22.8185 10.6435C22.5834 10.7496 22.3248 10.8027 22.0427 10.8027C21.8488 10.8027 21.6578 10.7761 21.4697 10.7231C21.2875 10.6701 21.123 10.5905 20.976 10.4844C20.835 10.3784 20.7204 10.2458 20.6322 10.0866C20.5441 9.92752 20.5 9.74189 20.5 9.52973C20.5 9.2999 20.5411 9.10542 20.6234 8.94631C20.7057 8.7813 20.8144 8.64575 20.9496 8.53968C21.0906 8.42771 21.2522 8.33931 21.4344 8.27448C21.6166 8.20966 21.8047 8.16251 21.9986 8.13305C22.1984 8.09769 22.3983 8.07706 22.5981 8.07117C22.7979 8.05938 22.986 8.05349 23.1623 8.05349H23.3118C23.3753 8.05349 23.4267 8.00204 23.4267 7.93857C23.4267 7.67338 23.3356 7.47596 23.1534 7.34631C22.9713 7.21076 22.7391 7.14299 22.457 7.14299C22.2337 7.14299 22.0251 7.18424 21.8311 7.26675C21.766 7.29249 21.7038 7.32155 21.6446 7.35394C21.4534 7.45859 21.2054 7.46135 21.0514 7.307C20.8971 7.15228 20.8934 6.89813 21.0719 6.77197C21.2318 6.6589 21.4055 6.57042 21.5931 6.50653C21.9105 6.40045 22.2366 6.34741 22.5716 6.34741C22.8714 6.34741 23.1241 6.38277 23.3298 6.45349C23.5354 6.51831 23.7059 6.60377 23.841 6.70984C23.9762 6.81592 24.0791 6.93968 24.1496 7.08111C24.226 7.21666 24.2789 7.35515 24.3083 7.49658C24.3435 7.63802 24.3641 7.77651 24.37 7.91205C24.3758 8.0417 24.3788 8.15662 24.3788 8.2568V10.2206C24.3788 10.4835 24.1657 10.6966 23.9028 10.6966H23.7184C23.5573 10.6966 23.4267 10.566 23.4267 10.4049V10.1302ZM23.365 9.01642C23.365 8.8947 23.2663 8.79603 23.1446 8.79603C22.9977 8.79603 22.8331 8.80192 22.651 8.81371C22.4688 8.8255 22.2954 8.85496 22.1309 8.90211C21.9722 8.94336 21.837 9.00819 21.7253 9.09658C21.6137 9.17909 21.5579 9.29695 21.5579 9.45017C21.5579 9.55036 21.5784 9.63581 21.6196 9.70653C21.6666 9.77135 21.7253 9.82734 21.7959 9.87448C21.8664 9.92163 21.9457 9.95699 22.0339 9.98056C22.122 9.99824 22.2102 10.0071 22.2983 10.0071C22.6627 10.0071 22.9301 9.92163 23.1006 9.75073C23.2769 9.57393 23.365 9.33526 23.365 9.0347V9.01642Z" fill="#121313"/>
<path d="M15.2305 6.95597C15.2305 6.67846 15.4554 6.45349 15.7329 6.45349H15.9172C16.093 6.45349 16.2354 6.59597 16.2354 6.77172V7.07873C16.2354 7.08493 16.2405 7.08995 16.2466 7.08995C16.2506 7.08995 16.2543 7.08784 16.2563 7.08442C16.4088 6.82797 16.6134 6.64123 16.8701 6.52421C17.1287 6.40634 17.4079 6.34741 17.7076 6.34741C18.0308 6.34741 18.3217 6.40634 18.5803 6.52421C18.8389 6.63618 19.0593 6.79235 19.2415 6.99272C19.4237 7.19308 19.5618 7.42881 19.6558 7.6999C19.7498 7.97099 19.7969 8.2627 19.7969 8.57504C19.7969 8.88738 19.7469 9.17909 19.647 9.45018C19.5471 9.72126 19.406 9.95699 19.2239 10.1574C19.0475 10.3577 18.833 10.5168 18.5803 10.6347C18.3276 10.7467 18.0514 10.8027 17.7517 10.8027C17.5519 10.8027 17.3756 10.782 17.2228 10.7408C17.07 10.6995 16.9348 10.6465 16.8172 10.5817C16.6997 10.5168 16.5998 10.4491 16.5175 10.3784C16.438 10.3043 16.3722 10.233 16.3201 10.1644C16.3167 10.16 16.3115 10.1574 16.3059 10.1574C16.2962 10.1574 16.2883 10.1652 16.2883 10.175V12.1831C16.2883 12.4752 16.0515 12.7121 15.7594 12.7121C15.4673 12.7121 15.2305 12.4752 15.2305 12.1831V6.95597ZM18.739 8.57504C18.739 8.41003 18.7096 8.25091 18.6509 8.09769C18.598 7.94447 18.5157 7.80892 18.404 7.69106C18.2982 7.5732 18.1689 7.4789 18.0161 7.40819C17.8633 7.33747 17.69 7.30211 17.496 7.30211C17.3021 7.30211 17.1287 7.33747 16.9759 7.40819C16.8231 7.4789 16.6909 7.5732 16.5792 7.69106C16.4734 7.80892 16.3912 7.94447 16.3324 8.09769C16.2795 8.25091 16.2531 8.41003 16.2531 8.57504C16.2531 8.74005 16.2795 8.89916 16.3324 9.05239C16.3912 9.20561 16.4734 9.34115 16.5792 9.45902C16.6909 9.57688 16.8231 9.67117 16.9759 9.74189C17.1287 9.81261 17.3021 9.84797 17.496 9.84797C17.69 9.84797 17.8633 9.81261 18.0161 9.74189C18.1689 9.67117 18.2982 9.57688 18.404 9.45902C18.5157 9.34115 18.598 9.20561 18.6509 9.05239C18.7096 8.89916 18.739 8.74005 18.739 8.57504Z" fill="#121313"/>
<path d="M29.9926 7.15898V5.98465H29.6172V5.83301H30.521V5.98465H30.1448V7.15898H29.9926Z" fill="#121313"/>
<path d="M30.7543 7.15898V5.83301H30.9327L31.3411 6.64209H31.3479L31.7571 5.83301H31.9312V7.15898H31.7875V6.09654H31.7807L31.3512 6.93151H31.3343L30.9048 6.09099H30.8981V7.15898H30.7543Z" fill="#121313"/>
</g>
</g>
</g>
<defs>
<clipPath id="clip0_3055_7563">
<rect width="32" height="16" fill="white"/>
</clipPath>
<clipPath id="clip1_3055_7563">
<rect width="32" height="16" fill="white"/>
</clipPath>
<clipPath id="clip2_3055_7563">
<rect width="32" height="16" fill="white"/>
</clipPath>
</defs>
</svg>
