<svg width="57" height="20" viewBox="0 0 57 20" fill="none" xmlns="http://www.w3.org/2000/svg">
<g clip-path="url(#clip0_3184_73288)">
<g clip-path="url(#clip1_3184_73288)">
<path d="M0.893809 5.02527C0.406575 5.02527 0 5.43513 0 5.92911V12.575C0 13.0588 0.406575 13.4688 0.893809 13.4688C1.38104 13.4688 1.7774 13.059 1.7774 12.575V5.92911C1.7774 5.43513 1.38086 5.02527 0.893809 5.02527Z" fill="#FFFFFE"/>
<path d="M17.4445 7.61677C17.2361 7.11275 16.9169 6.66931 16.5238 6.27277C16.1307 5.89977 15.6671 5.58736 15.1495 5.37239C14.622 5.15742 14.0575 5.04976 13.4696 5.04976H11.7425C11.6922 5.03625 11.6451 5.03625 11.5947 5.03625C11.0807 5.03625 10.6641 5.44283 10.6641 5.95014V12.5692C10.6641 13.0732 11.0571 13.4596 11.5579 13.4831H13.4696C14.0575 13.4831 14.622 13.3621 15.1495 13.1471C15.6636 12.9322 16.1306 12.6298 16.5238 12.2568C16.9169 11.8469 17.2361 11.4168 17.4445 10.8995C17.6662 10.3821 17.7737 9.84107 17.7737 9.26661C17.7737 8.69872 17.6662 8.13429 17.4445 7.61695V7.61677ZM15.2572 10.9834C14.7734 11.4572 14.1349 11.6991 13.4362 11.6991H12.4416V6.81037H13.4362C14.1351 6.81037 14.7734 7.07588 15.2572 7.53939C15.741 7.99962 15.9964 8.60784 15.9964 9.26296C15.9964 9.91808 15.7411 10.5228 15.2572 10.9832V10.9834Z" fill="#FFFFFE"/>
<path d="M12.091 2.84358L9.46684 0.219455C9.28545 0.0380658 9.04348 -0.0493442 8.80497 -0.0425923C8.56646 -0.0493442 8.32449 0.0345986 8.1431 0.219455L5.51897 2.84358C5.16952 3.19304 5.16952 3.75746 5.51897 4.10692C5.86843 4.45638 6.43286 4.45638 6.78231 4.10692L7.96828 2.92095V10.0541L4.80655 5.48121C4.64871 5.20566 4.35637 5.02427 4.02041 5.02427C3.52314 5.02427 3.11328 5.43413 3.11328 5.92811V12.5673C3.11328 13.0612 3.52314 13.4711 4.02041 13.4711C4.51768 13.4711 4.92754 13.0612 4.92754 12.5673V8.45479L8.13963 13.0748C8.13963 13.0848 8.13963 13.0983 8.15314 13.1118C8.33453 13.3403 8.59 13.4748 8.87888 13.4748C9.37615 13.4748 9.77597 13.0649 9.77597 12.5709V3.05855L10.8276 4.11021C11.1771 4.45966 11.7415 4.45966 12.091 4.11021C12.4404 3.76075 12.4404 3.19286 12.091 2.84358Z" fill="#FFFFFE"/>
<path d="M50.3375 6.9113V5.43189H49.8633V5.24084H51.005V5.43189H50.5298V6.9113H50.3375Z" fill="#FFFFFE"/>
<path d="M51.2998 6.9113V5.24084H51.5252L52.0411 6.26012H52.0496L52.5666 5.24084H52.7866V6.9113H52.605V5.57284H52.5965L52.0539 6.62473H52.0325L51.4899 5.56585H51.4814V6.9113H51.2998Z" fill="#FFFFFE"/>
<path d="M47.9384 13.3604C47.6308 13.3604 47.3815 13.1111 47.3815 12.8036V5.84112C47.3815 5.5336 47.6308 5.2843 47.9384 5.2843H48.2871C48.5947 5.2843 48.844 5.5336 48.844 5.84112V12.8036C48.844 13.1111 48.5947 13.3604 48.2871 13.3604H47.9384Z" fill="#1FD8AD"/>
<path d="M43.1256 13.4586C41.8596 13.4586 41.1393 12.6946 41.1393 11.6906C41.1393 10.6647 41.8487 9.9335 43.4312 9.9335C43.6977 9.9335 43.9776 9.9604 44.2188 9.99926C44.4573 10.0377 44.6971 9.85861 44.6971 9.61701C44.6971 9.15863 44.4134 8.78757 43.7149 8.78757C43.392 8.78757 43.1452 8.87898 42.9843 9.02478C42.7564 9.23126 42.5161 9.51878 42.2086 9.51878H41.9471C41.6396 9.51878 41.3806 9.26415 41.4673 8.96912C41.7026 8.16869 42.4748 7.58707 43.7477 7.58707C45.2756 7.58707 46.1596 8.44925 46.1596 9.60609V12.8036C46.1596 13.1111 45.9103 13.3604 45.6028 13.3604H45.1605C44.9869 13.3604 44.8379 13.2365 44.8063 13.0657L44.7567 12.798C44.7538 12.7824 44.7402 12.771 44.7243 12.771C44.7141 12.771 44.7044 12.7758 44.6981 12.7839C44.3804 13.1914 43.8492 13.4586 43.1256 13.4586ZM43.4748 12.3018C44.2388 12.3018 44.6971 11.8216 44.6971 11.2541C44.6971 11.1818 44.6527 11.1164 44.584 11.0937C44.2506 10.9837 43.9162 10.9485 43.573 10.9485C42.9291 10.9485 42.5908 11.2213 42.5908 11.6251C42.5908 12.018 42.8855 12.3018 43.4748 12.3018Z" fill="#1FD8AD"/>
<path d="M38.1174 13.4586C37.3087 13.4586 36.8409 13.1284 36.5561 12.7626C36.5496 12.7542 36.5396 12.7492 36.5289 12.7492C36.5132 12.7492 36.4995 12.7599 36.4957 12.7752L36.4258 13.0548C36.3809 13.2344 36.2195 13.3604 36.0344 13.3604H35.5966C35.2891 13.3604 35.0398 13.1111 35.0398 12.8036V5.84112C35.0398 5.5336 35.2891 5.2843 35.5966 5.2843H35.9454C36.2529 5.2843 36.5022 5.5336 36.5022 5.84112V8.26724C36.5022 8.28338 36.5153 8.29646 36.5314 8.29646C36.5405 8.29646 36.549 8.29226 36.5546 8.28507C36.8392 7.9185 37.3073 7.58708 38.1174 7.58708C39.5907 7.58708 40.442 8.83123 40.442 10.5228C40.442 12.2581 39.558 13.4586 38.1174 13.4586ZM37.7027 12.1708C38.6303 12.1708 38.9578 11.4068 38.9578 10.5228C38.9578 9.62792 38.6413 8.87488 37.7027 8.87488C36.775 8.87488 36.4476 9.63884 36.4476 10.5228C36.4476 11.4068 36.7969 12.1708 37.7027 12.1708Z" fill="#1FD8AD"/>
<path d="M31.2709 13.4586C29.4374 13.4586 28.5098 12.2144 28.5098 10.5338C28.5098 8.85305 29.4593 7.58707 31.2709 7.58707C33.0717 7.58707 34.0212 8.85305 34.0212 10.5338C34.0212 12.2035 33.0935 13.4586 31.2709 13.4586ZM31.2709 12.1708C32.0894 12.1708 32.5369 11.6142 32.5369 10.5338C32.5369 9.44239 32.0894 8.87488 31.2709 8.87488C30.4415 8.87488 30.0049 9.4533 30.0049 10.5338C30.0049 11.6142 30.4524 12.1708 31.2709 12.1708Z" fill="#1FD8AD"/>
<path d="M26.6866 13.3604C26.3791 13.3604 26.1298 13.1111 26.1298 12.8036V5.84112C26.1298 5.5336 26.3791 5.2843 26.6866 5.2843H27.0354C27.3429 5.2843 27.5922 5.5336 27.5922 5.84112V12.8036C27.5922 13.1111 27.3429 13.3604 27.0354 13.3604H26.6866Z" fill="#1FD8AD"/>
<path d="M22.1996 15.9578C20.9387 15.9578 20.0373 15.3841 19.758 14.4801C19.6655 14.1807 19.9262 13.917 20.2395 13.917H20.5947C20.8802 13.917 21.1088 14.1563 21.3021 14.3664C21.4877 14.5682 21.7927 14.7028 22.1996 14.7028C23.0399 14.7028 23.4437 14.2335 23.4437 13.6223V12.7784C23.4437 12.7623 23.4306 12.7492 23.4145 12.7492C23.4054 12.7492 23.3969 12.7534 23.3913 12.7606C23.1067 13.1272 22.6388 13.4586 21.8394 13.4586C20.3552 13.4586 19.5039 12.2144 19.5039 10.5338C19.5039 8.78757 20.3879 7.58707 21.8394 7.58707C22.6373 7.58707 23.105 7.91732 23.3898 8.28311C23.3963 8.29153 23.4063 8.29646 23.417 8.29646C23.4327 8.29646 23.4464 8.28577 23.4502 8.27052L23.5201 7.99088C23.565 7.81129 23.7264 7.6853 23.9115 7.6853H24.3493C24.6569 7.6853 24.9061 7.93459 24.9061 8.24211V13.6441C24.9061 15.0302 23.793 15.9578 22.1996 15.9578ZM22.2432 12.1708C23.1709 12.1708 23.4983 11.4178 23.4983 10.5338C23.4983 9.63883 23.16 8.87488 22.2432 8.87488C21.3265 8.87488 20.9882 9.63883 20.9882 10.5338C20.9882 11.4178 21.3047 12.1708 22.2432 12.1708Z" fill="#1FD8AD"/>
</g>
</g>
<defs>
<clipPath id="clip0_3184_73288">
<rect width="56.4286" height="20" fill="white"/>
</clipPath>
<clipPath id="clip1_3184_73288">
<rect width="56.4286" height="20" fill="white"/>
</clipPath>
</defs>
</svg>
