<svg width="61" height="20" viewBox="0 0 61 20" fill="none" xmlns="http://www.w3.org/2000/svg">
<g clip-path="url(#clip0_3184_73300)">
<g clip-path="url(#clip1_3184_73300)">
<g clip-path="url(#clip2_3184_73300)">
<path d="M1.07267 5.37402C0.551817 5.37402 0.117188 5.81216 0.117188 6.34024V13.4447C0.117188 13.9619 0.551817 14.4002 1.07267 14.4002C1.59352 14.4002 2.01723 13.962 2.01723 13.4447V6.34024C2.01723 5.81216 1.59333 5.37402 1.07267 5.37402Z" fill="#FFFFFE"/>
<path d="M18.7639 8.13503C18.5411 7.59623 18.1999 7.1222 17.7797 6.6983C17.3595 6.29956 16.8638 5.96559 16.3106 5.73579C15.7466 5.50599 15.1433 5.3909 14.5147 5.3909H12.6685C12.6147 5.37646 12.5644 5.37646 12.5105 5.37646C11.961 5.37646 11.5156 5.81109 11.5156 6.3534V13.4292C11.5156 13.968 11.9358 14.381 12.4711 14.4061H14.5147C15.1433 14.4061 15.7466 14.2768 16.3106 14.047C16.8601 13.8172 17.3593 13.494 17.7797 13.0952C18.1999 12.6571 18.5411 12.1973 18.7639 11.6443C19.0009 11.0912 19.1158 10.5128 19.1158 9.89872C19.1158 9.29164 19.0009 8.68827 18.7639 8.13523V8.13503ZM16.4257 11.734C15.9085 12.2404 15.226 12.4991 14.479 12.4991H13.4159V7.27299H14.479C15.2262 7.27299 15.9085 7.55683 16.4257 8.05232C16.9428 8.5443 17.2159 9.19449 17.2159 9.89481C17.2159 10.5951 16.943 11.2416 16.4257 11.7338V11.734Z" fill="#FFFFFE"/>
<path d="M13.0425 3.03885L10.2373 0.233657C10.0434 0.039751 9.78469 -0.0536904 9.52973 -0.0464726C9.27477 -0.0536904 9.0161 0.0360446 8.82219 0.233657L6.017 3.03885C5.64343 3.41242 5.64343 4.01579 6.017 4.38936C6.39057 4.76293 6.99394 4.76293 7.36751 4.38936L8.63531 3.12156V10.7469L5.25542 5.85848C5.08668 5.56391 4.77417 5.37001 4.41504 5.37001C3.88345 5.37001 3.44531 5.80815 3.44531 6.33622V13.4335C3.44531 13.9615 3.88345 14.3997 4.41504 14.3997C4.94662 14.3997 5.38476 13.9615 5.38476 13.4335V9.03724L8.81848 13.976C8.81848 13.9867 8.81848 14.0011 8.83292 14.0156C9.02682 14.2598 9.29993 14.4036 9.60874 14.4036C10.1403 14.4036 10.5677 13.9654 10.5677 13.4374V3.26865L11.692 4.39287C12.0655 4.76644 12.6689 4.76644 13.0425 4.39287C13.416 4.0193 13.416 3.41222 13.0425 3.03885Z" fill="#FFFFFE"/>
<path d="M24.5503 9.43749C24.216 9.16745 23.8816 9.06457 23.5087 9.06457C23.0201 9.06457 22.5185 9.2446 22.5185 9.73326C22.5185 10.2091 22.9943 10.3248 23.8559 10.5305C24.7689 10.7492 25.8491 11.1607 25.8491 12.3823C25.8491 13.8868 24.6275 14.4398 23.2773 14.4398C22.5957 14.4398 21.8241 14.2469 21.3355 13.874C21.0654 13.6682 20.9883 13.4368 20.9883 13.2567C20.9883 12.8967 21.2583 12.6009 21.6313 12.6009C21.7984 12.6009 21.9527 12.6523 22.1585 12.8067C22.5185 13.0896 22.9043 13.2439 23.3416 13.2439C23.7916 13.2439 24.3446 13.0638 24.3446 12.5109C24.3446 11.9965 23.8559 11.8551 22.9172 11.6364C22.0042 11.4178 21.0912 11.0449 21.0912 9.87471C21.0912 8.49876 22.3257 7.90722 23.5473 7.90722C24.1646 7.90722 24.8204 8.06154 25.2576 8.38302C25.5534 8.60163 25.6305 8.80738 25.6305 8.98741C25.6305 9.33462 25.3862 9.61752 25.0004 9.61752C24.859 9.61752 24.7175 9.56609 24.5503 9.43749Z" fill="#1FD8AD"/>
<path d="M30.1356 14.2212C29.9299 14.3241 29.6598 14.3884 29.3769 14.3884C27.7438 14.3884 27.3837 13.3853 27.3837 12.2023V9.32176H26.8822C26.2907 9.32176 26.1878 8.91026 26.1878 8.70451C26.1878 8.49876 26.2907 8.08726 26.8822 8.08726H27.3837V7.01993C27.3837 6.31266 27.8852 6.18407 28.1424 6.18407C28.3996 6.18407 28.9011 6.31266 28.9011 7.01993V8.08726H29.8656C30.4571 8.08726 30.56 8.49876 30.56 8.70451C30.56 8.91026 30.4571 9.32176 29.8656 9.32176H28.9011V12.1894C28.9011 12.7938 29.1069 13.1153 29.4927 13.1153C29.557 13.1153 29.647 13.1024 29.737 13.0896C29.8399 13.0767 29.8656 13.0767 29.917 13.0767C30.3028 13.0767 30.5086 13.3596 30.5086 13.6554C30.5086 13.8997 30.3671 14.1055 30.1356 14.2212Z" fill="#1FD8AD"/>
<path d="M37.9136 11.1478C37.9136 13.0896 36.4219 14.4398 34.5573 14.4398C32.6926 14.4398 31.2009 13.0896 31.2009 11.1478C31.2009 9.20602 32.6926 7.90722 34.5573 7.90722C36.4219 7.90722 37.9136 9.20602 37.9136 11.1478ZM36.3447 11.1478C36.3447 10.1833 35.7789 9.16745 34.5573 9.16745C33.3356 9.16745 32.7698 10.1833 32.7698 11.1478C32.7698 12.1122 33.3356 13.1539 34.5573 13.1539C35.7789 13.1539 36.3447 12.1122 36.3447 11.1478Z" fill="#1FD8AD"/>
<path d="M43.2676 12.8838C43.4605 12.7552 43.6276 12.6909 43.7691 12.6909C44.1677 12.6909 44.3992 12.9867 44.3992 13.3082C44.3992 13.5268 44.3349 13.7454 43.9877 13.9897C43.5505 14.2983 42.8689 14.4398 42.3417 14.4398C40.5028 14.4398 39.0497 13.231 39.0497 11.1735C39.0497 9.16745 40.5414 7.90722 42.3546 7.90722C42.9461 7.90722 43.5376 8.04868 43.9748 8.34444C44.3349 8.58877 44.4121 8.8331 44.4121 9.01313C44.4121 9.36034 44.1549 9.68182 43.7434 9.68182C43.6019 9.68182 43.4605 9.64324 43.229 9.47607C43.0233 9.32176 42.7275 9.19316 42.3546 9.19316C41.2229 9.19316 40.6571 10.2091 40.6571 11.1735C40.6571 12.138 41.1972 13.141 42.3546 13.141C42.6889 13.141 42.9975 13.0638 43.2676 12.8838Z" fill="#1FD8AD"/>
<path d="M50.8029 12.9517C51.0215 13.1832 51.073 13.4018 51.073 13.5433C51.073 13.9676 50.7515 14.3148 50.3143 14.3148C50.0571 14.3148 49.8513 14.212 49.5813 13.9162L46.9322 11.0357H47.2576V13.4533C47.2576 14.1862 46.7432 14.3148 46.486 14.3148C46.2417 14.3148 45.7145 14.1862 45.7145 13.4533V7.04298C45.7145 6.30999 46.2417 6.1814 46.486 6.1814C46.7432 6.1814 47.2576 6.30999 47.2576 7.04298V10.6242H46.9322L49.4398 8.16805C49.6584 7.94944 49.877 7.85943 50.0828 7.85943C50.5072 7.85943 50.8029 8.18091 50.8029 8.56669C50.8029 8.74672 50.7386 8.96533 50.4814 9.1968L48.6683 10.8042L50.8029 12.9517Z" fill="#1FD8AD"/>
<path d="M55.4264 9.43749C55.0921 9.16745 54.7577 9.06457 54.3848 9.06457C53.8962 9.06457 53.3946 9.2446 53.3946 9.73326C53.3946 10.2091 53.8704 10.3248 54.732 10.5305C55.645 10.7492 56.7252 11.1607 56.7252 12.3823C56.7252 13.8868 55.5036 14.4398 54.1534 14.4398C53.4718 14.4398 52.7002 14.2469 52.2116 13.874C51.9415 13.6682 51.8644 13.4368 51.8644 13.2567C51.8644 12.8967 52.1344 12.6009 52.5073 12.6009C52.6745 12.6009 52.8288 12.6523 53.0346 12.8067C53.3946 13.0896 53.7804 13.2439 54.2176 13.2439C54.6677 13.2439 55.2207 13.0638 55.2207 12.5109C55.2207 11.9965 54.732 11.8551 53.7933 11.6364C52.8803 11.4178 51.9673 11.0449 51.9673 9.87471C51.9673 8.49876 53.2018 7.90722 54.4234 7.90722C55.0406 7.90722 55.6965 8.06154 56.1337 8.38302C56.4295 8.60163 56.5066 8.80738 56.5066 8.98741C56.5066 9.33462 56.2623 9.61752 55.8765 9.61752C55.7351 9.61752 55.5936 9.56609 55.4264 9.43749Z" fill="#1FD8AD"/>
<path d="M58.214 9.77448V8.19299H57.707V7.98877H58.9276V8.19299H58.4195V9.77448H58.214Z" fill="#FFFFFE"/>
<path d="M59.2427 9.77448V7.98877H59.4836L60.0351 9.07838H60.0442L60.5968 7.98877H60.832V9.77448H60.6379V8.34367H60.6288L60.0488 9.46815H60.0259L59.4459 8.3362H59.4368V9.77448H59.2427Z" fill="#FFFFFE"/>
<path d="M35.8211 18.3428C35.8211 17.9699 35.5926 17.665 35.1891 17.665C34.8141 17.665 34.5463 17.9591 34.5463 18.3428C34.5463 18.7265 34.8141 19.017 35.1891 19.017C35.5926 19.017 35.8211 18.7157 35.8211 18.3428ZM34.332 19.0743V16.5785C34.332 16.4637 34.4142 16.4458 34.4534 16.4458C34.4927 16.4458 34.5749 16.4637 34.5749 16.5785V17.7941H34.582C34.7248 17.5754 34.9748 17.4606 35.2141 17.4606C35.7354 17.4606 36.0782 17.8479 36.0782 18.3428C36.0782 18.8377 35.7354 19.225 35.2141 19.225C34.9748 19.225 34.7248 19.1102 34.582 18.8986H34.5749V19.0743C34.5749 19.1891 34.4927 19.207 34.4534 19.207C34.4142 19.207 34.332 19.1891 34.332 19.0743Z" fill="#FFFFFE"/>
<path d="M37.9199 17.6579L37.1307 19.6158C37.0271 19.874 36.895 20.0426 36.6057 20.0426C36.5629 20.0426 36.5022 20.039 36.4629 20.0282C36.4022 20.0103 36.3736 19.9709 36.3736 19.9206C36.3736 19.8633 36.4165 19.8167 36.4772 19.8167C36.495 19.8167 36.5129 19.8202 36.5343 19.8238C36.5629 19.8274 36.5772 19.8274 36.595 19.8274C36.7557 19.8274 36.8414 19.7198 36.9128 19.5298L37.0485 19.1783L36.3843 17.665C36.3736 17.6364 36.3701 17.6148 36.3701 17.5969C36.3701 17.5288 36.4272 17.4786 36.495 17.4786C36.5343 17.4786 36.5843 17.4929 36.6165 17.5754L37.1735 18.9201H37.1807L37.6913 17.5754C37.7199 17.4965 37.7699 17.4786 37.8092 17.4786C37.8806 17.4786 37.9342 17.5288 37.9342 17.5933C37.9342 17.6077 37.9306 17.6292 37.9199 17.6579Z" fill="#FFFFFE"/>
<path d="M39.6421 16.8654V18.9596C39.6421 19.1748 39.4921 19.2142 39.4171 19.2142C39.3421 19.2142 39.1921 19.1748 39.1921 18.9596V16.8654C39.1921 16.6502 39.3421 16.6108 39.4171 16.6108C39.4921 16.6108 39.6421 16.6502 39.6421 16.8654Z" fill="#FFFFFE"/>
<path d="M41.8319 19.0062L40.6571 17.3782H40.6499V18.9596C40.6499 19.1748 40.4999 19.2142 40.4249 19.2142C40.35 19.2142 40.2 19.1748 40.2 18.9596V16.9407C40.2 16.661 40.3928 16.6108 40.4821 16.6108C40.5821 16.6108 40.6785 16.6538 40.7963 16.8187L41.9712 18.4432H41.9783V16.8654C41.9783 16.6502 42.1283 16.6108 42.2033 16.6108C42.2783 16.6108 42.4283 16.6502 42.4283 16.8654V18.8843C42.4283 19.164 42.2354 19.2142 42.1462 19.2142C42.0426 19.2142 41.9533 19.1712 41.8319 19.0062Z" fill="#FFFFFE"/>
<path d="M43.8826 19.1819H43.2541C43.072 19.1819 42.9863 19.0959 42.9863 18.913V16.912C42.9863 16.7291 43.072 16.643 43.2541 16.643H43.8826C44.5433 16.643 45.2789 16.9586 45.2789 17.9125C45.2789 18.8018 44.5433 19.1819 43.8826 19.1819ZM43.4363 17.0303V18.7875H43.8112C44.2754 18.7875 44.7968 18.5974 44.7968 17.9125C44.7968 17.1845 44.2754 17.0303 43.8112 17.0303H43.4363Z" fill="#FFFFFE"/>
<path d="M45.6919 18.9739V17.6543C45.6919 17.4606 45.8312 17.4284 45.8955 17.4284C45.9598 17.4284 46.099 17.4606 46.099 17.6543V17.7368H46.1062C46.1812 17.5682 46.3633 17.4104 46.6383 17.4104C46.9025 17.4104 47.0775 17.5431 47.1739 17.7368C47.2882 17.5288 47.481 17.4104 47.7381 17.4104C48.1845 17.4104 48.3702 17.7547 48.3702 18.1061V18.9739C48.3702 19.1783 48.2273 19.2142 48.1559 19.2142C48.0845 19.2142 47.9417 19.1783 47.9417 18.9739V18.228C47.9417 18.0236 47.8952 17.769 47.6203 17.769C47.3525 17.769 47.2418 18.0201 47.2418 18.2424V18.9739C47.2418 19.1783 47.0989 19.2142 47.0275 19.2142C46.9561 19.2142 46.8132 19.1783 46.8132 18.9739V18.142C46.8132 17.9304 46.7133 17.769 46.4954 17.769C46.2383 17.769 46.1205 18.0057 46.1205 18.2352V18.9739C46.1205 19.1783 45.9776 19.2142 45.9062 19.2142C45.8348 19.2142 45.6919 19.1783 45.6919 18.9739Z" fill="#FFFFFE"/>
<path d="M50.6329 18.3141C50.6329 18.8556 50.2187 19.2321 49.7009 19.2321C49.1831 19.2321 48.7689 18.8556 48.7689 18.3141C48.7689 17.7726 49.1831 17.4104 49.7009 17.4104C50.2187 17.4104 50.6329 17.7726 50.6329 18.3141ZM50.1973 18.3141C50.1973 18.0452 50.0402 17.7619 49.7009 17.7619C49.3617 17.7619 49.2045 18.0452 49.2045 18.3141C49.2045 18.5831 49.3617 18.8735 49.7009 18.8735C50.0402 18.8735 50.1973 18.5831 50.1973 18.3141Z" fill="#FFFFFE"/>
<path d="M51.0484 18.9739V17.6543C51.0484 17.4606 51.1877 17.4284 51.252 17.4284C51.3163 17.4284 51.4555 17.4606 51.4555 17.6543V17.7368H51.4627C51.5377 17.5646 51.7412 17.4104 51.9947 17.4104C52.4411 17.4104 52.6268 17.7547 52.6268 18.1061V18.9739C52.6268 19.1783 52.484 19.2142 52.4125 19.2142C52.3411 19.2142 52.1983 19.1783 52.1983 18.9739V18.228C52.1983 18.0236 52.1519 17.769 51.8769 17.769C51.6055 17.769 51.4769 18.0057 51.4769 18.2352V18.9739C51.4769 19.1783 51.3341 19.2142 51.2627 19.2142C51.1913 19.2142 51.0484 19.1783 51.0484 18.9739Z" fill="#FFFFFE"/>
<path d="M54.5338 18.4576H53.4554C53.4732 18.7014 53.6946 18.8807 53.9446 18.8807C54.1232 18.8807 54.2303 18.8233 54.3374 18.7337C54.3981 18.6835 54.4374 18.6727 54.4838 18.6727C54.5802 18.6727 54.6552 18.7408 54.6552 18.8448C54.6552 18.8807 54.641 18.9453 54.5838 18.999C54.416 19.1604 54.2231 19.2321 53.9482 19.2321C53.4197 19.2321 53.0269 18.8915 53.0269 18.332C53.0269 17.7762 53.4161 17.4104 53.9339 17.4104C54.3481 17.4104 54.6838 17.6471 54.7516 18.1527C54.7552 18.1886 54.7588 18.2137 54.7588 18.2424C54.7588 18.393 54.6767 18.4576 54.5338 18.4576ZM53.4554 18.1492H54.3338C54.3338 17.9268 54.2089 17.7332 53.9303 17.7332C53.6768 17.7332 53.4732 17.9089 53.4554 18.1492Z" fill="#FFFFFE"/>
<path d="M56.6772 17.7404L55.9416 19.5513C55.813 19.8669 55.6595 20.0426 55.2917 20.0426C55.1095 20.0426 55.056 19.935 55.056 19.8489C55.056 19.7629 55.1131 19.6876 55.1988 19.6732C55.2202 19.6696 55.2381 19.6696 55.2667 19.6696C55.3809 19.6696 55.4916 19.5979 55.5702 19.4007L55.6559 19.1819L55.0095 17.7547C54.9881 17.7045 54.981 17.6579 54.981 17.6292C54.981 17.518 55.0702 17.4284 55.1952 17.4284C55.2702 17.4284 55.3524 17.4606 55.4095 17.5969L55.8737 18.7122H55.8809L56.2808 17.6077C56.3344 17.4606 56.4201 17.4284 56.4915 17.4284C56.6129 17.4284 56.7022 17.5073 56.7022 17.622C56.7022 17.6471 56.6986 17.683 56.6772 17.7404Z" fill="#FFFFFE"/>
</g>
</g>
</g>
<defs>
<clipPath id="clip0_3184_73300">
<rect width="60.9524" height="20" fill="white"/>
</clipPath>
<clipPath id="clip1_3184_73300">
<rect width="60.9524" height="20" fill="white"/>
</clipPath>
<clipPath id="clip2_3184_73300">
<rect width="60.9524" height="20" fill="white"/>
</clipPath>
</defs>
</svg>
