<svg width="60" height="20" viewBox="0 0 60 20" fill="none" xmlns="http://www.w3.org/2000/svg">
<g clip-path="url(#clip0_3055_7570)">
<g clip-path="url(#clip1_3055_7570)">
<g clip-path="url(#clip2_3055_7570)">
<path d="M0.944241 5.43823C0.429516 5.43823 0 5.87122 0 6.39308V13.414C0 13.925 0.429516 14.3582 0.944241 14.3582C1.45897 14.3582 1.87769 13.9252 1.87769 13.414V6.39308C1.87769 5.87122 1.45877 5.43823 0.944241 5.43823Z" fill="#FFFFFE"/>
<path d="M18.4286 8.16777C18.2084 7.6353 17.8713 7.16685 17.456 6.74793C17.0408 6.35389 16.5509 6.02385 16.0042 5.79675C15.4468 5.56966 14.8506 5.45592 14.2294 5.45592H12.405C12.3518 5.44165 12.302 5.44165 12.2488 5.44165C11.7057 5.44165 11.2656 5.87117 11.2656 6.4071V13.3996C11.2656 13.9321 11.6809 14.3402 12.2099 14.3651H14.2294C14.8506 14.3651 15.4468 14.2373 16.0042 14.0102C16.5472 13.7831 17.0406 13.4636 17.456 13.0696C17.8713 12.6366 18.2084 12.1822 18.4286 11.6357C18.6628 11.0892 18.7764 10.5176 18.7764 9.9107C18.7764 9.31076 18.6628 8.71449 18.4286 8.16796V8.16777ZM16.1179 11.7244C15.6069 12.2248 14.9323 12.4805 14.1942 12.4805H13.1435V7.31587H14.1942C14.9325 7.31587 15.6069 7.59636 16.1179 8.08603C16.629 8.57222 16.8989 9.21476 16.8989 9.90684C16.8989 10.5989 16.6292 11.2378 16.1179 11.7242V11.7244Z" fill="#FFFFFE"/>
<path d="M12.7733 3.13145L10.0011 0.359262C9.80949 0.167638 9.55386 0.0752961 9.3019 0.082429C9.04993 0.0752961 8.79431 0.163975 8.60268 0.359262L5.83049 3.13145C5.46132 3.50063 5.46132 4.0969 5.83049 4.46607C6.19967 4.83525 6.79594 4.83525 7.16512 4.46607L8.418 3.21319V10.7488L5.07788 5.91791C4.91112 5.62681 4.60229 5.43518 4.24738 5.43518C3.72205 5.43518 3.28906 5.86817 3.28906 6.39003V13.4038C3.28906 13.9256 3.72205 14.3586 4.24738 14.3586C4.7727 14.3586 5.20569 13.9256 5.20569 13.4038V9.05927L8.59902 13.9399C8.59902 13.9505 8.59902 13.9648 8.61329 13.979C8.80491 14.2204 9.0748 14.3625 9.37998 14.3625C9.9053 14.3625 10.3277 13.9295 10.3277 13.4076V3.35855L11.4387 4.46954C11.8079 4.83872 12.4041 4.83872 12.7733 4.46954C13.1425 4.10037 13.1425 3.50043 12.7733 3.13145Z" fill="#FFFFFE"/>
<path d="M24.1491 9.45558C23.8186 9.18871 23.4882 9.08705 23.1197 9.08705C22.6368 9.08705 22.1412 9.26496 22.1412 9.74787C22.1412 10.2181 22.6114 10.3324 23.4628 10.5358C24.3651 10.7518 25.4326 11.1585 25.4326 12.3657C25.4326 13.8526 24.2253 14.399 22.8909 14.399C22.2174 14.399 21.4549 14.2084 20.972 13.8399C20.7052 13.6365 20.6289 13.4078 20.6289 13.2299C20.6289 12.8741 20.8958 12.5818 21.2643 12.5818C21.4295 12.5818 21.582 12.6326 21.7853 12.7851C22.1412 13.0647 22.5224 13.2172 22.9545 13.2172C23.3993 13.2172 23.9457 13.0393 23.9457 12.4928C23.9457 11.9845 23.4628 11.8447 22.5351 11.6287C21.6328 11.4126 20.7306 11.0441 20.7306 9.88766C20.7306 8.52789 21.9505 7.94332 23.1578 7.94332C23.7678 7.94332 24.4159 8.09581 24.848 8.41352C25.1403 8.62955 25.2165 8.83288 25.2165 9.0108C25.2165 9.35392 24.9751 9.6335 24.5938 9.6335C24.454 9.6335 24.3143 9.58266 24.1491 9.45558Z" fill="#FFFFFE"/>
<path d="M29.6686 14.183C29.4653 14.2847 29.1984 14.3482 28.9189 14.3482C27.3049 14.3482 26.9491 13.357 26.9491 12.1878V9.34121H26.4535C25.8689 9.34121 25.7672 8.93455 25.7672 8.73122C25.7672 8.52789 25.8689 8.12123 26.4535 8.12123H26.9491V7.06646C26.9491 6.36751 27.4447 6.24043 27.6989 6.24043C27.953 6.24043 28.4487 6.36751 28.4487 7.06646V8.12123H29.4018C29.9863 8.12123 30.088 8.52789 30.088 8.73122C30.088 8.93455 29.9863 9.34121 29.4018 9.34121H28.4487V12.1751C28.4487 12.7724 28.652 13.0901 29.0332 13.0901C29.0968 13.0901 29.1857 13.0774 29.2747 13.0647C29.3764 13.052 29.4018 13.052 29.4526 13.052C29.8338 13.052 30.0372 13.3316 30.0372 13.6238C30.0372 13.8653 29.8974 14.0686 29.6686 14.183Z" fill="#FFFFFE"/>
<path d="M37.3551 11.1458C37.3551 13.0647 35.8809 14.399 34.0382 14.399C32.1956 14.399 30.7214 13.0647 30.7214 11.1458C30.7214 9.22684 32.1956 7.94332 34.0382 7.94332C35.8809 7.94332 37.3551 9.22684 37.3551 11.1458ZM35.8047 11.1458C35.8047 10.1927 35.2455 9.18871 34.0382 9.18871C32.831 9.18871 32.2718 10.1927 32.2718 11.1458C32.2718 12.0989 32.831 13.1282 34.0382 13.1282C35.2455 13.1282 35.8047 12.0989 35.8047 11.1458Z" fill="#FFFFFE"/>
<path d="M42.6461 12.8614C42.8367 12.7343 43.0019 12.6707 43.1417 12.6707C43.5357 12.6707 43.7644 12.963 43.7644 13.2807C43.7644 13.4968 43.7009 13.7128 43.3577 13.9543C42.9257 14.2592 42.2521 14.399 41.7311 14.399C39.9139 14.399 38.4778 13.2045 38.4778 11.1712C38.4778 9.18871 39.952 7.94332 41.7438 7.94332C42.3284 7.94332 42.913 8.08311 43.345 8.37539C43.7009 8.61685 43.7771 8.8583 43.7771 9.03621C43.7771 9.37933 43.523 9.69704 43.1163 9.69704C42.9765 9.69704 42.8367 9.65891 42.608 9.49371C42.4046 9.34121 42.1124 9.21413 41.7438 9.21413C40.6255 9.21413 40.0663 10.2181 40.0663 11.1712C40.0663 12.1243 40.6001 13.1155 41.7438 13.1155C42.0742 13.1155 42.3792 13.0393 42.6461 12.8614Z" fill="#FFFFFE"/>
<path d="M50.0928 12.9285C50.3088 13.1572 50.3597 13.3733 50.3597 13.5131C50.3597 13.9324 50.042 14.2756 49.6099 14.2756C49.3557 14.2756 49.1524 14.1739 48.8855 13.8816L46.2676 11.035H46.5892V13.4241C46.5892 14.1485 46.0809 14.2756 45.8267 14.2756C45.5852 14.2756 45.0642 14.1485 45.0642 13.4241V7.08924C45.0642 6.36487 45.5852 6.23779 45.8267 6.23779C46.0809 6.23779 46.5892 6.36487 46.5892 7.08924V10.6283H46.2676L48.7457 8.20108C48.9618 7.98504 49.1778 7.89608 49.3811 7.89608C49.8005 7.89608 50.0928 8.21378 50.0928 8.59503C50.0928 8.77294 50.0292 8.98898 49.7751 9.21772L47.9832 10.8062L50.0928 12.9285Z" fill="#FFFFFE"/>
<path d="M54.6619 9.45558C54.3315 9.18871 54.0011 9.08705 53.6325 9.08705C53.1496 9.08705 52.654 9.26496 52.654 9.74787C52.654 10.2181 53.1242 10.3324 53.9757 10.5358C54.8779 10.7518 55.9454 11.1585 55.9454 12.3657C55.9454 13.8526 54.7381 14.399 53.4038 14.399C52.7303 14.399 51.9678 14.2084 51.4849 13.8399C51.218 13.6365 51.1418 13.4078 51.1418 13.2299C51.1418 12.8741 51.4086 12.5818 51.7772 12.5818C51.9424 12.5818 52.0949 12.6326 52.2982 12.7851C52.654 13.0647 53.0353 13.2172 53.4673 13.2172C53.9121 13.2172 54.4586 13.0393 54.4586 12.4928C54.4586 11.9845 53.9757 11.8447 53.048 11.6287C52.1457 11.4126 51.2434 11.0441 51.2434 9.88766C51.2434 8.52789 52.4634 7.94332 53.6707 7.94332C54.2807 7.94332 54.9288 8.09581 55.3608 8.41352C55.6531 8.62955 55.7294 8.83288 55.7294 9.0108C55.7294 9.35392 55.4879 9.6335 55.1067 9.6335C54.9669 9.6335 54.8271 9.58266 54.6619 9.45558Z" fill="#FFFFFE"/>
<path d="M57.4111 9.7879V8.22501H56.9102V8.02319H58.1163V8.22501H57.6142V9.7879H57.4111Z" fill="#FFFFFE"/>
<path d="M58.4278 9.7879V8.02319H58.6658L59.2108 9.09998H59.2198L59.766 8.02319H59.9984V9.7879H59.8066V8.37392H59.7975L59.2244 9.48517H59.2018L58.6286 8.36654H58.6196V9.7879H58.4278Z" fill="#FFFFFE"/>
<path d="M35.2841 18.2543C35.2841 17.8858 35.0582 17.5845 34.6595 17.5845C34.2889 17.5845 34.0242 17.8751 34.0242 18.2543C34.0242 18.6335 34.2889 18.9206 34.6595 18.9206C35.0582 18.9206 35.2841 18.6229 35.2841 18.2543ZM33.8125 18.9773V16.5108C33.8125 16.3974 33.8937 16.3796 33.9325 16.3796C33.9713 16.3796 34.0525 16.3974 34.0525 16.5108V17.7121H34.0595C34.2007 17.4959 34.4477 17.3825 34.6842 17.3825C35.1994 17.3825 35.5382 17.7653 35.5382 18.2543C35.5382 18.7434 35.1994 19.1261 34.6842 19.1261C34.4477 19.1261 34.2007 19.0127 34.0595 18.8036H34.0525V18.9773C34.0525 19.0907 33.9713 19.1084 33.9325 19.1084C33.8937 19.1084 33.8125 19.0907 33.8125 18.9773Z" fill="#FFFFFE"/>
<path d="M37.3581 17.5775L36.5782 19.5124C36.4759 19.7675 36.3453 19.9341 36.0595 19.9341C36.0171 19.9341 35.9571 19.9306 35.9183 19.9199C35.8583 19.9022 35.8301 19.8632 35.8301 19.8136C35.8301 19.7569 35.8724 19.7108 35.9324 19.7108C35.9501 19.7108 35.9677 19.7144 35.9889 19.7179C36.0171 19.7215 36.0312 19.7215 36.0489 19.7215C36.2077 19.7215 36.2924 19.6152 36.363 19.4273L36.4971 19.08L35.8407 17.5845C35.8301 17.5562 35.8266 17.5349 35.8266 17.5172C35.8266 17.4499 35.883 17.4003 35.9501 17.4003C35.9889 17.4003 36.0383 17.4144 36.0701 17.4959L36.6206 18.8249H36.6276L37.1323 17.4959C37.1605 17.418 37.2099 17.4003 37.2487 17.4003C37.3193 17.4003 37.3722 17.4499 37.3722 17.5137C37.3722 17.5278 37.3687 17.5491 37.3581 17.5775Z" fill="#FFFFFE"/>
<path d="M39.0601 16.7943V18.8639C39.0601 19.0765 38.9119 19.1155 38.8378 19.1155C38.7636 19.1155 38.6154 19.0765 38.6154 18.8639V16.7943C38.6154 16.5816 38.7636 16.5427 38.8378 16.5427C38.9119 16.5427 39.0601 16.5816 39.0601 16.7943Z" fill="#FFFFFE"/>
<path d="M41.2241 18.9099L40.0631 17.301H40.0561V18.8639C40.0561 19.0765 39.9078 19.1155 39.8337 19.1155C39.7596 19.1155 39.6114 19.0765 39.6114 18.8639V16.8687C39.6114 16.5923 39.802 16.5427 39.8902 16.5427C39.989 16.5427 40.0843 16.5852 40.2007 16.7482L41.3618 18.3535H41.3688V16.7943C41.3688 16.5816 41.517 16.5427 41.5912 16.5427C41.6653 16.5427 41.8135 16.5816 41.8135 16.7943V18.7894C41.8135 19.0659 41.6229 19.1155 41.5347 19.1155C41.4324 19.1155 41.3441 19.0729 41.2241 18.9099Z" fill="#FFFFFE"/>
<path d="M43.2507 19.0836H42.6296C42.4497 19.0836 42.365 18.9985 42.365 18.8178V16.8403C42.365 16.6596 42.4497 16.5745 42.6296 16.5745H43.2507C43.9036 16.5745 44.6306 16.8864 44.6306 17.8291C44.6306 18.7079 43.9036 19.0836 43.2507 19.0836ZM42.8096 16.9573V18.6938H43.1802C43.6389 18.6938 44.1542 18.5059 44.1542 17.8291C44.1542 17.1097 43.6389 16.9573 43.1802 16.9573H42.8096Z" fill="#FFFFFE"/>
<path d="M45.0388 18.878V17.5739C45.0388 17.3825 45.1764 17.3506 45.2399 17.3506C45.3034 17.3506 45.4411 17.3825 45.4411 17.5739V17.6554H45.4481C45.5222 17.4889 45.7022 17.3329 45.9739 17.3329C46.2351 17.3329 46.408 17.464 46.5033 17.6554C46.6162 17.4499 46.8068 17.3329 47.0609 17.3329C47.502 17.3329 47.6855 17.6731 47.6855 18.0204V18.878C47.6855 19.08 47.5443 19.1155 47.4738 19.1155C47.4032 19.1155 47.262 19.08 47.262 18.878V18.1409C47.262 17.9389 47.2161 17.6873 46.9444 17.6873C46.6797 17.6873 46.5703 17.9354 46.5703 18.1551V18.878C46.5703 19.08 46.4292 19.1155 46.3586 19.1155C46.288 19.1155 46.1469 19.08 46.1469 18.878V18.0559C46.1469 17.8468 46.0481 17.6873 45.8328 17.6873C45.5787 17.6873 45.4622 17.9212 45.4622 18.148V18.878C45.4622 19.08 45.3211 19.1155 45.2505 19.1155C45.1799 19.1155 45.0388 19.08 45.0388 18.878Z" fill="#FFFFFE"/>
<path d="M49.9216 18.226C49.9216 18.7611 49.5123 19.1332 49.0006 19.1332C48.4889 19.1332 48.0795 18.7611 48.0795 18.226C48.0795 17.6909 48.4889 17.3329 49.0006 17.3329C49.5123 17.3329 49.9216 17.6909 49.9216 18.226ZM49.4911 18.226C49.4911 17.9602 49.3358 17.6802 49.0006 17.6802C48.6653 17.6802 48.51 17.9602 48.51 18.226C48.51 18.4918 48.6653 18.7788 49.0006 18.7788C49.3358 18.7788 49.4911 18.4918 49.4911 18.226Z" fill="#FFFFFE"/>
<path d="M50.3322 18.878V17.5739C50.3322 17.3825 50.4699 17.3506 50.5334 17.3506C50.5969 17.3506 50.7345 17.3825 50.7345 17.5739V17.6554H50.7416C50.8157 17.4853 51.0169 17.3329 51.2674 17.3329C51.7085 17.3329 51.892 17.6731 51.892 18.0204V18.878C51.892 19.08 51.7509 19.1155 51.6803 19.1155C51.6097 19.1155 51.4686 19.08 51.4686 18.878V18.1409C51.4686 17.9389 51.4227 17.6873 51.151 17.6873C50.8828 17.6873 50.7557 17.9212 50.7557 18.148V18.878C50.7557 19.08 50.6145 19.1155 50.544 19.1155C50.4734 19.1155 50.3322 19.08 50.3322 18.878Z" fill="#FFFFFE"/>
<path d="M53.7766 18.3677H52.7109C52.7285 18.6087 52.9473 18.7859 53.1943 18.7859C53.3708 18.7859 53.4767 18.7292 53.5825 18.6406C53.6425 18.591 53.6813 18.5804 53.7272 18.5804C53.8225 18.5804 53.8966 18.6477 53.8966 18.7505C53.8966 18.7859 53.8825 18.8497 53.826 18.9028C53.6602 19.0623 53.4696 19.1332 53.1979 19.1332C52.6756 19.1332 52.2874 18.7965 52.2874 18.2437C52.2874 17.6944 52.6721 17.3329 53.1838 17.3329C53.5931 17.3329 53.9248 17.5668 53.9919 18.0665C53.9954 18.1019 53.9989 18.1267 53.9989 18.1551C53.9989 18.3039 53.9178 18.3677 53.7766 18.3677ZM52.7109 18.063H53.579C53.579 17.8432 53.4555 17.6519 53.1802 17.6519C52.9297 17.6519 52.7285 17.8255 52.7109 18.063Z" fill="#FFFFFE"/>
<path d="M55.8948 17.659L55.1678 19.4486C55.0408 19.7604 54.889 19.9341 54.5255 19.9341C54.3456 19.9341 54.2926 19.8278 54.2926 19.7427C54.2926 19.6577 54.3491 19.5833 54.4338 19.5691C54.455 19.5655 54.4726 19.5655 54.5008 19.5655C54.6138 19.5655 54.7232 19.4947 54.8008 19.2997L54.8855 19.0836L54.2467 17.6731C54.2256 17.6235 54.2185 17.5775 54.2185 17.5491C54.2185 17.4392 54.3067 17.3506 54.4303 17.3506C54.5044 17.3506 54.5855 17.3825 54.642 17.5172L55.1008 18.6193H55.1078L55.5031 17.5278C55.556 17.3825 55.6407 17.3506 55.7113 17.3506C55.8313 17.3506 55.9195 17.4286 55.9195 17.542C55.9195 17.5668 55.916 17.6023 55.8948 17.659Z" fill="#FFFFFE"/>
</g>
</g>
</g>
<defs>
<clipPath id="clip0_3055_7570">
<rect width="60" height="20" fill="white"/>
</clipPath>
<clipPath id="clip1_3055_7570">
<rect width="60" height="20" fill="white"/>
</clipPath>
<clipPath id="clip2_3055_7570">
<rect width="60" height="20" fill="white"/>
</clipPath>
</defs>
</svg>
