<svg width="49" height="20" viewBox="0 0 49 20" fill="none" xmlns="http://www.w3.org/2000/svg">
<g clip-path="url(#clip0_3055_7573)">
<g clip-path="url(#clip1_3055_7573)">
<g clip-path="url(#clip2_3055_7573)">
<path d="M0.883494 5.02417C0.401884 5.02417 0 5.43084 0 5.92099V12.5152C0 12.9952 0.401884 13.402 0.883494 13.402C1.36511 13.402 1.75689 12.9954 1.75689 12.5152V5.92099C1.75689 5.43084 1.36492 5.02417 0.883494 5.02417Z" fill="#121313"/>
<path d="M17.2451 7.58778C17.0391 7.08768 16.7236 6.64769 16.3351 6.25424C15.9466 5.88414 15.4882 5.57416 14.9767 5.36087C14.4552 5.14757 13.8973 5.04074 13.3161 5.04074H11.609C11.5592 5.02734 11.5127 5.02734 11.4629 5.02734C10.9548 5.02734 10.543 5.43076 10.543 5.93412V12.5017C10.543 13.0018 10.9315 13.3851 11.4265 13.4085H13.3161C13.8973 13.4085 14.4552 13.2884 14.9767 13.0751C15.4848 12.8618 15.9464 12.5618 16.3351 12.1917C16.7236 11.785 17.0391 11.3583 17.2451 10.845C17.4643 10.3316 17.5705 9.79478 17.5705 9.22479C17.5705 8.66132 17.4643 8.10128 17.2451 7.58796V7.58778ZM15.0831 10.9283C14.6049 11.3983 13.9738 11.6384 13.2831 11.6384H12.3V6.78766H13.2831C13.9739 6.78766 14.6049 7.05111 15.0831 7.51101C15.5613 7.96766 15.8138 8.57115 15.8138 9.22117C15.8138 9.87119 15.5615 10.4712 15.0831 10.9281V10.9283Z" fill="#121313"/>
<path d="M11.9522 2.85726L9.35837 0.253547C9.17907 0.0735683 8.93989 -0.0131618 8.70413 -0.0064624C8.46838 -0.0131618 8.2292 0.0701281 8.0499 0.253547L5.45606 2.85726C5.11063 3.204 5.11063 3.76403 5.45606 4.11077C5.80148 4.45751 6.35939 4.45751 6.70482 4.11077L7.8771 2.93403V10.0117L4.75186 5.47437C4.59583 5.20097 4.30686 5.02099 3.97479 5.02099C3.48326 5.02099 3.07812 5.42766 3.07812 5.9178V12.5053C3.07812 12.9955 3.48326 13.4021 3.97479 13.4021C4.46632 13.4021 4.87145 12.9955 4.87145 12.5053V8.42483L8.04647 13.0089C8.04647 13.0188 8.04647 13.0322 8.05982 13.0456C8.23912 13.2723 8.49165 13.4057 8.77719 13.4057C9.26872 13.4057 9.66393 12.9991 9.66393 12.5089V3.07056L10.7035 4.11403C11.0489 4.46077 11.6068 4.46077 11.9522 4.11403C12.2976 3.76729 12.2976 3.20382 11.9522 2.85726Z" fill="#121313"/>
<path d="M26.5775 16.7849C26.5775 16.4388 26.3653 16.1558 25.9908 16.1558C25.6428 16.1558 25.3942 16.4288 25.3942 16.7849C25.3942 17.1411 25.6428 17.4107 25.9908 17.4107C26.3653 17.4107 26.5775 17.1311 26.5775 16.7849ZM25.1953 17.4639V15.1473C25.1953 15.0408 25.2715 15.0242 25.308 15.0242C25.3445 15.0242 25.4207 15.0408 25.4207 15.1473V16.2757H25.4273C25.5599 16.0726 25.7919 15.9661 26.014 15.9661C26.4979 15.9661 26.8161 16.3256 26.8161 16.7849C26.8161 17.2442 26.4979 17.6037 26.014 17.6037C25.7919 17.6037 25.5599 17.4972 25.4273 17.3008H25.4207V17.4639C25.4207 17.5704 25.3445 17.5871 25.308 17.5871C25.2715 17.5871 25.1953 17.5704 25.1953 17.4639Z" fill="#121313"/>
<path d="M28.5255 16.1492L27.793 17.9665C27.6968 18.2062 27.5742 18.3626 27.3057 18.3626C27.2659 18.3626 27.2096 18.3593 27.1731 18.3493C27.1168 18.3327 27.0903 18.296 27.0903 18.2494C27.0903 18.1962 27.1301 18.1529 27.1864 18.1529C27.203 18.1529 27.2195 18.1562 27.2394 18.1596C27.2659 18.1629 27.2792 18.1629 27.2958 18.1629C27.4449 18.1629 27.5245 18.063 27.5908 17.8866L27.7167 17.5605L27.1002 16.1558C27.0903 16.1292 27.087 16.1092 27.087 16.0926C27.087 16.0294 27.14 15.9828 27.203 15.9828C27.2394 15.9828 27.2858 15.9961 27.3157 16.0726L27.8327 17.3208H27.8394L28.3133 16.0726C28.3398 15.9994 28.3862 15.9828 28.4227 15.9828C28.489 15.9828 28.5387 16.0294 28.5387 16.0893C28.5387 16.1026 28.5354 16.1226 28.5255 16.1492Z" fill="#121313"/>
<path d="M30.124 15.4136V17.3574C30.124 17.5571 29.9848 17.5937 29.9152 17.5937C29.8456 17.5937 29.7064 17.5571 29.7064 17.3574V15.4136C29.7064 15.2139 29.8456 15.1773 29.9152 15.1773C29.9848 15.1773 30.124 15.2139 30.124 15.4136Z" fill="#121313"/>
<path d="M32.1565 17.4007L31.0661 15.8896H31.0594V17.3574C31.0594 17.5571 30.9202 17.5937 30.8506 17.5937C30.781 17.5937 30.6418 17.5571 30.6418 17.3574V15.4835C30.6418 15.2239 30.8208 15.1773 30.9036 15.1773C30.9964 15.1773 31.0859 15.2172 31.1953 15.3703L32.2858 16.8781H32.2924V15.4136C32.2924 15.2139 32.4316 15.1773 32.5012 15.1773C32.5708 15.1773 32.71 15.2139 32.71 15.4136V17.2875C32.71 17.5471 32.5311 17.5937 32.4482 17.5937C32.3521 17.5937 32.2692 17.5538 32.1565 17.4007Z" fill="#121313"/>
<path d="M34.06 17.5638H33.4766C33.3076 17.5638 33.228 17.4839 33.228 17.3141V15.4569C33.228 15.2871 33.3076 15.2072 33.4766 15.2072H34.06C34.6731 15.2072 35.3559 15.5001 35.3559 16.3855C35.3559 17.211 34.6731 17.5638 34.06 17.5638ZM33.6456 15.5667V17.1977H33.9937C34.4246 17.1977 34.9085 17.0212 34.9085 16.3855C34.9085 15.7098 34.4246 15.5667 33.9937 15.5667H33.6456Z" fill="#121313"/>
<path d="M35.7393 17.3707V16.1459C35.7393 15.9661 35.8686 15.9362 35.9283 15.9362C35.9879 15.9362 36.1172 15.9661 36.1172 16.1459V16.2224H36.1238C36.1934 16.066 36.3625 15.9195 36.6177 15.9195C36.8629 15.9195 37.0254 16.0427 37.1148 16.2224C37.2209 16.0294 37.3999 15.9195 37.6385 15.9195C38.0529 15.9195 38.2252 16.2391 38.2252 16.5652V17.3707C38.2252 17.5605 38.0926 17.5937 38.0263 17.5937C37.96 17.5937 37.8275 17.5605 37.8275 17.3707V16.6784C37.8275 16.4887 37.7844 16.2524 37.5292 16.2524C37.2806 16.2524 37.1778 16.4854 37.1778 16.6917V17.3707C37.1778 17.5605 37.0452 17.5937 36.979 17.5937C36.9127 17.5937 36.7801 17.5605 36.7801 17.3707V16.5985C36.7801 16.4021 36.6873 16.2524 36.4851 16.2524C36.2464 16.2524 36.1371 16.472 36.1371 16.6851V17.3707C36.1371 17.5605 36.0045 17.5937 35.9382 17.5937C35.8719 17.5937 35.7393 17.5605 35.7393 17.3707Z" fill="#121313"/>
<path d="M40.3254 16.7583C40.3254 17.2609 39.941 17.6104 39.4604 17.6104C38.9797 17.6104 38.5953 17.2609 38.5953 16.7583C38.5953 16.2557 38.9797 15.9195 39.4604 15.9195C39.941 15.9195 40.3254 16.2557 40.3254 16.7583ZM39.9211 16.7583C39.9211 16.5087 39.7752 16.2457 39.4604 16.2457C39.1455 16.2457 38.9996 16.5087 38.9996 16.7583C38.9996 17.0079 39.1455 17.2775 39.4604 17.2775C39.7752 17.2775 39.9211 17.0079 39.9211 16.7583Z" fill="#121313"/>
<path d="M40.7111 17.3707V16.1459C40.7111 15.9661 40.8404 15.9362 40.9 15.9362C40.9597 15.9362 41.0889 15.9661 41.0889 16.1459V16.2224H41.0956C41.1652 16.0626 41.3541 15.9195 41.5894 15.9195C42.0037 15.9195 42.1761 16.2391 42.1761 16.5652V17.3707C42.1761 17.5605 42.0435 17.5937 41.9772 17.5937C41.9109 17.5937 41.7784 17.5605 41.7784 17.3707V16.6784C41.7784 16.4887 41.7353 16.2524 41.48 16.2524C41.2281 16.2524 41.1088 16.472 41.1088 16.6851V17.3707C41.1088 17.5605 40.9762 17.5937 40.91 17.5937C40.8437 17.5937 40.7111 17.5605 40.7111 17.3707Z" fill="#121313"/>
<path d="M43.9461 16.8914H42.9452C42.9617 17.1178 43.1672 17.2842 43.3993 17.2842C43.565 17.2842 43.6644 17.2309 43.7638 17.1477C43.8202 17.1011 43.8567 17.0911 43.8997 17.0911C43.9892 17.0911 44.0588 17.1544 44.0588 17.2509C44.0588 17.2842 44.0456 17.3441 43.9925 17.394C43.8368 17.5438 43.6578 17.6104 43.4026 17.6104C42.912 17.6104 42.5474 17.2942 42.5474 16.7749C42.5474 16.259 42.9087 15.9195 43.3893 15.9195C43.7738 15.9195 44.0854 16.1392 44.1483 16.6085C44.1516 16.6418 44.155 16.6651 44.155 16.6917C44.155 16.8315 44.0787 16.8914 43.9461 16.8914ZM42.9452 16.6052H43.7605C43.7605 16.3988 43.6445 16.2191 43.386 16.2191C43.1507 16.2191 42.9617 16.3822 42.9452 16.6052Z" fill="#121313"/>
<path d="M45.9356 16.2257L45.2528 17.9066C45.1335 18.1995 44.9909 18.3626 44.6495 18.3626C44.4805 18.3626 44.4308 18.2628 44.4308 18.1829C44.4308 18.103 44.4838 18.0331 44.5634 18.0198C44.5833 18.0165 44.5998 18.0164 44.6263 18.0164C44.7324 18.0164 44.8352 17.9499 44.9081 17.7668L44.9876 17.5638L44.3877 16.2391C44.3678 16.1925 44.3612 16.1492 44.3612 16.1226C44.3612 16.0194 44.444 15.9362 44.5601 15.9362C44.6297 15.9362 44.7059 15.9661 44.7589 16.0926L45.1898 17.1278H45.1964L45.5677 16.1026C45.6174 15.9661 45.6969 15.9362 45.7632 15.9362C45.8759 15.9362 45.9588 16.0094 45.9588 16.1159C45.9588 16.1392 45.9555 16.1725 45.9356 16.2257Z" fill="#121313"/>
<path d="M45.994 8.17333V6.70543H45.5234V6.51587H46.6563V6.70543H46.1847V8.17333H45.994Z" fill="#121313"/>
<path d="M46.9488 8.17333V6.51587H47.1724L47.6843 7.52722H47.6928L48.2057 6.51587H48.424V8.17333H48.2438V6.84528H48.2354L47.697 7.88899H47.6758L47.1374 6.83835H47.129V8.17333H46.9488Z" fill="#121313"/>
<path d="M44.6872 13.4189C43.5518 13.4189 43.1079 12.7892 43.1079 11.8705V9.16089C43.1079 9.07252 43.0362 9.00089 42.9479 9.00089H42.3905C42.3021 9.00089 42.2305 8.92925 42.2305 8.84089V8.15962C42.2305 8.07125 42.3021 7.99962 42.3905 7.99962H42.9995C43.0879 7.99962 43.1595 7.92798 43.1595 7.83962V6.9955C43.1595 6.92391 43.2071 6.86102 43.276 6.84154L44.1693 6.58887C44.1774 6.5866 44.1857 6.58545 44.194 6.58545C44.2441 6.58545 44.2846 6.62604 44.2846 6.6761V7.83962C44.2846 7.92798 44.3563 7.99962 44.4446 7.99962H45.415C45.5033 7.99962 45.575 8.07125 45.575 8.15962V8.84089C45.575 8.92925 45.5033 9.00089 45.415 9.00089H44.4446C44.3563 9.00089 44.2846 9.07252 44.2846 9.16089V11.6641C44.2846 12.1699 44.5014 12.3866 44.9763 12.3866C45.1861 12.3866 45.3476 12.3576 45.4795 12.3183C45.488 12.3157 45.4969 12.3144 45.5059 12.3144C45.5554 12.3144 45.5956 12.3545 45.5956 12.4041V13.1877C45.5956 13.2577 45.5502 13.3198 45.482 13.3356C45.2975 13.3784 45.0126 13.4189 44.6872 13.4189Z" fill="#121313"/>
<path d="M40.6715 7.18411C40.176 7.18411 39.918 6.89508 39.918 6.4409C39.918 5.98671 40.176 5.70801 40.6715 5.70801C41.1567 5.70801 41.4251 5.98671 41.4251 6.4409C41.4251 6.89508 41.1567 7.18411 40.6715 7.18411ZM40.2431 13.3259C40.1548 13.3259 40.0831 13.2543 40.0831 13.1659V8.15957C40.0831 8.07121 40.1548 7.99957 40.2431 7.99957H41.0999C41.1883 7.99957 41.2599 8.07121 41.2599 8.15957V13.1659C41.2599 13.2543 41.1883 13.3259 41.0999 13.3259H40.2431Z" fill="#121313"/>
<path d="M35.9342 13.4187C34.5613 13.4187 33.7252 12.3245 33.7148 10.6523C33.7252 9.07299 34.4994 7.90657 35.9342 7.90657C36.7007 7.90657 37.1839 8.23039 37.4539 8.62755C37.459 8.63498 37.4673 8.63946 37.4763 8.63946C37.4912 8.63946 37.5032 8.62741 37.5032 8.61256V5.84726C37.5032 5.75889 37.5748 5.68726 37.6632 5.68726H38.52C38.6083 5.68726 38.68 5.75889 38.68 5.84726V13.1658C38.68 13.2542 38.6083 13.3258 38.52 13.3258H37.7673C37.6916 13.3258 37.6263 13.2727 37.6107 13.1986L37.5083 12.7102C37.5053 12.696 37.4928 12.6858 37.4783 12.6858C37.4681 12.6858 37.4585 12.6909 37.4528 12.6994C37.1826 13.0958 36.6997 13.4187 35.9342 13.4187ZM36.2232 12.3762C37.1626 12.3762 37.5445 11.5813 37.5445 10.6523C37.5445 9.73363 37.1729 8.94913 36.2232 8.94913C35.2529 8.94913 34.9123 9.73363 34.9123 10.6523C34.9123 11.5917 35.2632 12.3762 36.2232 12.3762Z" fill="#121313"/>
<path d="M30.5187 13.4189C28.8981 13.4189 28 12.2112 28 10.6628C28 9.1351 28.8155 7.90674 30.498 7.90674C32.0567 7.90674 32.9032 9.03188 32.9032 10.4977V10.8331C32.9032 10.9215 32.8316 10.9931 32.7432 10.9931H29.3781C29.2897 10.9931 29.2174 11.0649 29.2234 11.1531C29.2756 11.9128 29.7073 12.4279 30.5187 12.4279C31.1103 12.4279 31.4883 12.1887 31.645 11.8191C31.6729 11.7534 31.7344 11.7054 31.8058 11.7054H32.6453C32.7431 11.7054 32.8185 11.7925 32.7944 11.8873C32.5709 12.767 31.7078 13.4189 30.5187 13.4189ZM29.2431 9.9903C29.231 10.0807 29.3045 10.157 29.3957 10.157H31.5331C31.6224 10.157 31.6952 10.0837 31.6861 9.99485C31.6226 9.37261 31.24 8.90801 30.498 8.90801C29.7113 8.90801 29.325 9.378 29.2431 9.9903Z" fill="#121313"/>
<path d="M24.5975 13.3256C24.5091 13.3256 24.4375 13.254 24.4375 13.1656V8.15926C24.4375 8.07089 24.5091 7.99926 24.5975 7.99926H25.2868C25.3677 7.99926 25.4358 8.05961 25.4456 8.13989L25.5289 8.8225C25.5305 8.83574 25.5417 8.84569 25.555 8.84569C25.5659 8.84569 25.5756 8.83904 25.5797 8.82903C25.7999 8.29107 26.2921 7.927 26.9562 7.927H27.2297C27.3181 7.927 27.3897 7.99864 27.3897 8.087V8.86117C27.3897 8.94954 27.3181 9.02117 27.2297 9.02117H26.9355C26.0375 9.02117 25.573 9.64052 25.573 10.7244V13.1656C25.573 13.254 25.5013 13.3256 25.413 13.3256H24.5975Z" fill="#121313"/>
<path d="M20.9925 13.4189C19.3512 13.4189 18.4531 12.3144 18.4531 10.6628C18.4531 9.02156 19.3305 7.90674 20.9615 7.90674C22.3834 7.90674 23.1253 8.70794 23.2579 9.77045C23.2693 9.86207 23.1957 9.94025 23.1033 9.94025H22.2438C22.1607 9.94025 22.0927 9.87629 22.0764 9.79487C21.9731 9.27885 21.567 8.9493 20.9615 8.9493C20.0531 8.9493 19.6505 9.63058 19.6505 10.6628C19.6505 11.7157 20.0531 12.3866 20.9615 12.3866C21.5783 12.3866 21.977 12.0639 22.0855 11.5387C22.1021 11.4583 22.1697 11.3957 22.2518 11.3957H23.1109C23.2043 11.3957 23.2782 11.4755 23.2655 11.568C23.1158 12.6542 22.3759 13.4189 20.9925 13.4189Z" fill="#121313"/>
</g>
</g>
</g>
<defs>
<clipPath id="clip0_3055_7573">
<rect width="48.9503" height="20" fill="white"/>
</clipPath>
<clipPath id="clip1_3055_7573">
<rect width="48.9503" height="20" fill="white"/>
</clipPath>
<clipPath id="clip2_3055_7573">
<rect width="48.9503" height="20" fill="white"/>
</clipPath>
</defs>
</svg>
