<svg width="59" height="17" viewBox="0 0 59 17" fill="none" xmlns="http://www.w3.org/2000/svg">
<g clip-path="url(#clip0_3200_74592)">
<path d="M28.2763 9.96405V12.7139C28.2763 13.0934 27.9659 13.4017 27.5821 13.4017C27.1989 13.4017 26.8878 13.0942 26.8878 12.7139V10.3532C26.8878 9.69996 26.7378 8.88635 25.8468 8.88635C24.9796 8.88635 24.621 9.68819 24.621 10.3988V12.7131C24.621 13.0927 24.3106 13.4009 23.9267 13.4009C23.5436 13.4009 23.2325 13.0934 23.2325 12.7131V10.0781C23.2325 9.40203 22.9088 8.88635 22.2034 8.88635C21.3711 8.88635 20.9894 9.64258 20.9894 10.376V12.7131C20.9894 13.0927 20.6791 13.4009 20.2952 13.4009C19.9121 13.4009 19.6009 13.0934 19.6009 12.7131V8.55384C19.6009 8.19338 19.8957 7.9006 20.2603 7.9006C20.6241 7.9006 20.9196 8.19264 20.9196 8.55384V8.78336H20.9426C21.1854 8.24488 21.775 7.74097 22.666 7.74097C23.5221 7.74097 24.0886 8.16469 24.4005 8.78336C24.7702 8.11908 25.3954 7.74097 26.2278 7.74097C27.6749 7.7417 28.2763 8.84148 28.2763 9.96405Z" fill="#FFFFFE"/>
<path d="M32.5912 7.74097C34.2685 7.74097 35.6095 8.89812 35.6095 10.6283C35.6095 12.3585 34.2678 13.5613 32.5912 13.5613C30.9146 13.5613 29.5729 12.3585 29.5729 10.6283C29.5729 8.89812 30.9139 7.74097 32.5912 7.74097ZM32.5912 12.4152C33.6901 12.4152 34.1987 11.4868 34.1987 10.6276C34.1987 9.76837 33.6901 8.86281 32.5912 8.86281C31.4923 8.86281 30.9837 9.76763 30.9837 10.6276C30.9837 11.4875 31.4923 12.4152 32.5912 12.4152Z" fill="#FFFFFE"/>
<path d="M37.5414 7.90133H37.6773C38.004 7.90133 38.2683 8.16322 38.2683 8.4869V8.78336H38.2914C38.5342 8.2331 39.1935 7.74097 40.0147 7.74097C41.4603 7.74097 42.0618 8.84074 42.0618 9.96405V12.8161C42.0618 13.1398 41.7974 13.4017 41.4707 13.4017H41.2651C40.9384 13.4017 40.674 13.1398 40.674 12.8161V10.3539C40.674 9.70069 40.5233 8.88708 39.6331 8.88708C38.7539 8.88708 38.3381 9.64331 38.3381 10.3767V12.8161C38.3381 13.1398 38.0738 13.4017 37.7471 13.4017H37.5414C37.2147 13.4017 36.9504 13.1398 36.9504 12.8161V8.48763C36.9504 8.16322 37.2155 7.90133 37.5414 7.90133Z" fill="#FFFFFE"/>
<path d="M48.6111 11.0859H44.7456C44.8035 11.8649 45.5208 12.438 46.3301 12.438C46.8254 12.438 47.2033 12.2975 47.4921 12.0591C47.7015 11.8855 48.0104 11.8958 48.2235 12.065C48.5153 12.2967 48.5249 12.7411 48.2331 12.9728C47.7386 13.3649 47.1112 13.5613 46.3412 13.5613C44.6298 13.5613 43.3579 12.4726 43.3579 10.6857C43.3579 8.90988 44.6186 7.74097 46.2952 7.74097C47.8448 7.74097 48.9779 8.73775 48.9779 10.7203V10.7232C48.9779 10.9226 48.8138 11.0859 48.6111 11.0859ZM47.5901 10.1001C47.5901 9.38952 47.1855 8.77085 46.2833 8.77085C45.4621 8.77085 44.8028 9.33214 44.7449 10.1001H47.5901Z" fill="#FFFFFE"/>
<path d="M50.5463 7.90189C50.8351 7.90189 51.0942 8.07845 51.1974 8.34548L52.5755 11.9008H52.5985L53.8214 8.34768C53.9127 8.08139 54.1659 7.90263 54.4496 7.90263C54.9166 7.90263 55.2374 8.36755 55.0681 8.79863L52.7953 14.5822C52.4018 15.579 51.9162 16.152 50.6903 16.152C50.6524 16.152 50.6146 16.1513 50.5767 16.1498C50.2478 16.1388 49.9938 15.86 50.025 15.5356L50.031 15.4752C50.0592 15.1825 50.3079 14.9596 50.6049 14.9596H50.6094C51.1989 14.9596 51.3615 14.6734 51.5924 14.1003L51.8701 13.4015L49.9055 8.86557C49.708 8.40948 50.0451 7.90189 50.5463 7.90189Z" fill="#FFFFFE"/>
<path fill-rule="evenodd" clip-rule="evenodd" d="M57.532 8.1474C56.8049 8.1474 56.2154 8.73142 56.2154 9.45185C56.2154 10.1723 56.8049 10.7563 57.532 10.7563C58.2592 10.7563 58.8487 10.1723 58.8487 9.45185C58.8487 8.73142 58.2592 8.1474 57.532 8.1474ZM56.0664 9.45185C56.0664 8.64987 56.7226 7.99973 57.532 7.99973C58.3415 7.99973 58.9977 8.64987 58.9977 9.45185C58.9977 10.2538 58.3415 10.904 57.532 10.904C56.7226 10.904 56.0664 10.2538 56.0664 9.45185Z" fill="#FFFFFE"/>
<path fill-rule="evenodd" clip-rule="evenodd" d="M57.1082 8.67603C57.1315 8.65295 57.1631 8.63998 57.1961 8.63998H57.7265C57.9862 8.63998 58.1973 8.84917 58.1973 9.10643C58.1973 9.29887 58.0791 9.46398 57.9111 9.53516L58.1537 10.0916C58.1604 10.1061 58.1642 10.1219 58.1648 10.1379C58.1655 10.1543 58.1628 10.1708 58.1569 10.1862C58.151 10.2016 58.142 10.2157 58.1306 10.2276C58.1191 10.2395 58.1053 10.249 58.09 10.2556C58.0747 10.2621 58.0583 10.2656 58.0416 10.2657C58.025 10.2658 58.0085 10.2626 57.9931 10.2563C57.9778 10.25 57.9638 10.2407 57.9522 10.2289C57.9408 10.2175 57.9319 10.204 57.9258 10.1892L57.6569 9.57269H57.3203V10.1413C57.3203 10.174 57.3072 10.2053 57.2839 10.2283C57.2606 10.2514 57.229 10.2644 57.1961 10.2644C57.1631 10.2644 57.1315 10.2514 57.1082 10.2283C57.0849 10.2053 57.0718 10.174 57.0718 10.1413V8.76304C57.0718 8.73041 57.0849 8.6991 57.1082 8.67603ZM57.7288 9.3266C57.7869 9.32594 57.8425 9.30279 57.8836 9.26205C57.9253 9.22078 57.9488 9.16481 57.9489 9.10643C57.9488 9.04804 57.9253 8.99205 57.8836 8.95075C57.842 8.90944 57.7854 8.8862 57.7265 8.88611H57.3203V9.32657H57.7265C57.7273 9.32657 57.7281 9.32658 57.7288 9.3266Z" fill="#FFFFFE"/>
<path d="M0.903621 5.06917C0.409859 5.06917 0 5.47966 0 5.974V12.6241C0 13.1067 0.409859 13.5172 0.903621 13.5172C1.39738 13.5172 1.79536 13.1067 1.79536 12.6241V5.974C1.79462 5.47966 1.39738 5.06917 0.903621 5.06917Z" fill="#FFFFFE"/>
<path d="M17.6183 7.65272C17.4081 7.14807 17.0859 6.70301 16.6894 6.30651C16.2929 5.93428 15.8229 5.62163 15.3032 5.40536C14.7708 5.18908 14.2013 5.08094 13.6073 5.08094H11.8617C11.8119 5.06917 11.7629 5.06917 11.7132 5.06917C11.1934 5.06917 10.7724 5.47745 10.7724 5.98283V12.6043C10.7724 13.1089 11.1689 13.4936 11.6761 13.5179H13.6073C14.2013 13.5179 14.7708 13.398 15.3032 13.1817C15.8229 12.9655 16.2937 12.6653 16.6894 12.2924C17.0859 11.8841 17.4074 11.4508 17.6183 10.9344C17.841 10.418 17.9524 9.87654 17.9524 9.2998C17.9524 8.7341 17.841 8.16913 17.6183 7.65272ZM15.4108 11.0219C14.9215 11.4949 14.2785 11.7377 13.5709 11.7377H12.5671V6.84646H13.5709C14.2785 6.84646 14.9223 7.1135 15.4108 7.57474C15.9001 8.03598 16.157 8.64288 16.157 9.29833C16.157 9.95451 15.8994 10.5614 15.4108 11.0219Z" fill="#FFFFFE"/>
<path d="M12.2115 2.88567L9.56226 0.260934C9.37812 0.0784969 9.13458 -0.00757058 8.89401 0.000521386C8.65345 -0.00757058 8.40991 0.0784969 8.22577 0.260934L5.57653 2.88567C5.22384 3.2351 5.22384 3.80154 5.57653 4.15023C5.92922 4.49965 6.50094 4.49965 6.85288 4.15023L8.04979 2.96439V10.1022L4.85556 5.52807C4.69667 5.25073 4.40264 5.06977 4.06035 5.06977C3.55842 5.06977 3.14262 5.48025 3.14262 5.9746V12.6122C3.14262 13.1073 3.55842 13.517 4.06035 13.517C4.57416 13.517 4.97808 13.1066 4.97808 12.6122V8.49708L8.22131 13.1191C8.22131 13.1308 8.22131 13.1433 8.23393 13.1551C8.41733 13.3846 8.67423 13.517 8.96826 13.517C9.47019 13.517 9.87411 13.1066 9.87411 12.6122V3.09827L10.9359 4.15023C11.2886 4.49965 11.8603 4.49965 12.2122 4.15023C12.5642 3.8008 12.5642 3.23436 12.2115 2.88567Z" fill="#FFFFFE"/>
</g>
<defs>
<clipPath id="clip0_3200_74592">
<rect width="58.4489" height="16.0012" fill="white" transform="scale(1.00942)"/>
</clipPath>
</defs>
</svg>
