<svg width="24" height="24" viewBox="0 0 24 24" fill="none" xmlns="http://www.w3.org/2000/svg">
<g clip-path="url(#clip0_1659_11433)">
<g filter="url(#filter0_d_1659_11433)">
<g clip-path="url(#clip1_1659_11433)">
<path d="M0 12C0 5.37258 5.37258 0 12 0C18.6274 0 24 5.37258 24 12C24 18.6274 18.6274 24 12 24C5.37258 24 0 18.6274 0 12Z" fill="#9C1D26"/>
<path d="M18.6406 5.3595H5.35938V18.6406H18.6406V5.3595Z" fill="white"/>
<path d="M17.6361 6.55591H6.36719V17.8828H17.6361V6.55591Z" fill="#9C1D26"/>
<path d="M16.4662 7.59302H7.65234V9.82647H16.4662V7.59302Z" fill="white"/>
<path d="M13.1258 10.9033H7.65234V12.9773H13.1258V10.9033Z" fill="white"/>
<path d="M9.98661 14.1736H7.65234V16.3672H9.98661V14.1736Z" fill="white"/>
</g>
</g>
</g>
<defs>
<filter id="filter0_d_1659_11433" x="-6" y="-5" width="36" height="36" filterUnits="userSpaceOnUse" color-interpolation-filters="sRGB">
<feFlood flood-opacity="0" result="BackgroundImageFix"/>
<feColorMatrix in="SourceAlpha" type="matrix" values="0 0 0 0 0 0 0 0 0 0 0 0 0 0 0 0 0 0 127 0" result="hardAlpha"/>
<feOffset dy="1"/>
<feGaussianBlur stdDeviation="3"/>
<feComposite in2="hardAlpha" operator="out"/>
<feColorMatrix type="matrix" values="0 0 0 0 0 0 0 0 0 0 0 0 0 0 0 0 0 0 0.08 0"/>
<feBlend mode="normal" in2="BackgroundImageFix" result="effect1_dropShadow_1659_11433"/>
<feBlend mode="normal" in="SourceGraphic" in2="effect1_dropShadow_1659_11433" result="shape"/>
</filter>
<clipPath id="clip0_1659_11433">
<rect width="24" height="24" fill="white"/>
</clipPath>
<clipPath id="clip1_1659_11433">
<path d="M0 12C0 5.37258 5.37258 0 12 0C18.6274 0 24 5.37258 24 12C24 18.6274 18.6274 24 12 24C5.37258 24 0 18.6274 0 12Z" fill="white"/>
</clipPath>
</defs>
</svg>
