<svg width="12" height="12" viewBox="0 0 12 12" fill="none" xmlns="http://www.w3.org/2000/svg">
<g clip-path="url(#clip0_1659_11434)">
<g filter="url(#filter0_d_1659_11434)">
<g clip-path="url(#clip1_1659_11434)">
<path d="M0 6C0 2.68629 2.68629 0 6 0C9.31371 0 12 2.68629 12 6C12 9.31371 9.31371 12 6 12C2.68629 12 0 9.31371 0 6Z" fill="#9C1D26"/>
<path d="M9.32029 2.67969H2.67969V9.32025H9.32029V2.67969Z" fill="white"/>
<path d="M8.81804 3.27795H3.18359V8.94139H8.81804V3.27795Z" fill="#9C1D26"/>
<path d="M8.23505 3.79639H3.82812V4.91311H8.23505V3.79639Z" fill="white"/>
<path d="M6.56486 5.45154H3.82812V6.48851H6.56486V5.45154Z" fill="white"/>
<path d="M4.99526 7.08679H3.82812V8.18358H4.99526V7.08679Z" fill="white"/>
</g>
</g>
</g>
<defs>
<filter id="filter0_d_1659_11434" x="-6" y="-5" width="24" height="24" filterUnits="userSpaceOnUse" color-interpolation-filters="sRGB">
<feFlood flood-opacity="0" result="BackgroundImageFix"/>
<feColorMatrix in="SourceAlpha" type="matrix" values="0 0 0 0 0 0 0 0 0 0 0 0 0 0 0 0 0 0 127 0" result="hardAlpha"/>
<feOffset dy="1"/>
<feGaussianBlur stdDeviation="3"/>
<feComposite in2="hardAlpha" operator="out"/>
<feColorMatrix type="matrix" values="0 0 0 0 0 0 0 0 0 0 0 0 0 0 0 0 0 0 0.08 0"/>
<feBlend mode="normal" in2="BackgroundImageFix" result="effect1_dropShadow_1659_11434"/>
<feBlend mode="normal" in="SourceGraphic" in2="effect1_dropShadow_1659_11434" result="shape"/>
</filter>
<clipPath id="clip0_1659_11434">
<rect width="12" height="12" fill="white"/>
</clipPath>
<clipPath id="clip1_1659_11434">
<path d="M0 6C0 2.68629 2.68629 0 6 0C9.31371 0 12 2.68629 12 6C12 9.31371 9.31371 12 6 12C2.68629 12 0 9.31371 0 6Z" fill="white"/>
</clipPath>
</defs>
</svg>
