<svg width="128" height="146" viewBox="0 0 128 146" fill="none" xmlns="http://www.w3.org/2000/svg">
<path opacity="0.2" d="M81.5165 129.581C104.586 128.939 123.176 124.402 123.038 119.448C122.899 114.495 104.084 110.999 81.0142 111.641C57.9447 112.282 39.3548 116.82 39.488 121.773C39.6264 126.727 58.4418 130.223 81.5114 129.581H81.5165Z" fill="black" stroke="#231F20" stroke-width="0.212729" stroke-miterlimit="10"/>
<path d="M67.3335 37.9543C73.2277 32.9751 74.9191 25.2754 71.1161 20.7634C67.3079 16.2513 59.4455 16.6312 53.5512 21.6103C47.657 26.5895 45.9656 34.2892 49.7687 38.8013C53.5717 43.3133 61.4393 42.9335 67.3335 37.9543Z" fill="#FEDD19" stroke="#010101" stroke-width="0.212729" stroke-linecap="round" stroke-linejoin="round"/>
<path d="M101.658 110.017V113.657C101.658 117.707 98.5727 121.757 92.4068 124.847C80.0647 131.027 60.0602 131.027 47.7233 124.847C46.7597 124.364 45.873 123.861 45.0632 123.338C43.418 122.27 42.0802 121.13 41.05 119.934C39.3279 117.938 38.4668 115.797 38.4668 113.657V110.017H101.658Z" fill="#0157B5" stroke="#231F20" stroke-width="0.212729" stroke-miterlimit="10"/>
<path d="M70.065 125.777C87.5163 125.777 101.663 118.691 101.663 109.951C101.663 101.211 87.5163 94.1256 70.065 94.1256C52.6138 94.1256 38.4668 101.211 38.4668 109.951C38.4668 118.691 52.6138 125.777 70.065 125.777Z" fill="#017AFF" stroke="#010101" stroke-width="0.212729" stroke-linecap="round" stroke-linejoin="round"/>
<path d="M80.0147 75.8531C88.8099 84.6308 94.2583 96.7759 94.2583 110.194C94.2583 113.294 91.8954 116.395 87.1749 118.761C77.7236 123.494 62.4038 123.494 52.9576 118.761C51.9991 118.279 51.133 117.765 50.3693 117.231C48.3652 115.83 47.0275 114.259 46.3663 112.637C46.0332 111.831 45.8691 111.015 45.8691 110.194C45.8691 104.342 46.9045 98.7316 48.806 93.5368C49.4621 91.7402 50.2206 90.0001 51.0766 88.3113C53.4189 83.6812 56.4788 79.4823 60.1178 75.8531C51.3175 67.0806 45.8691 54.9355 45.8691 41.5175H94.2583C94.2583 54.9355 88.8099 67.0806 80.0147 75.8531Z" fill="white" stroke="#010101" stroke-width="0.212729" stroke-linecap="round" stroke-linejoin="round"/>
<g style="mix-blend-mode:multiply">
<path d="M94.4858 110.192H94.0297C94.0297 97.2717 88.9914 85.1318 79.8476 76.0153L79.6836 75.8562L79.8476 75.697C88.9914 66.5806 94.0297 54.4407 94.0297 41.5205H94.4858C94.4858 48.1115 93.1942 54.5023 90.6418 60.5183C88.2072 66.2572 84.7424 71.4211 80.3294 75.8562C84.7373 80.2963 88.2072 85.4552 90.6418 91.194C93.1891 97.2101 94.4858 103.601 94.4858 110.192Z" fill="url(#paint0_linear_2510_97116)"/>
</g>
<g style="mix-blend-mode:multiply">
<path d="M46.1017 110.192H45.6455C45.6455 103.601 46.9371 97.2101 49.4896 91.194C51.9242 85.4552 55.3889 80.2912 59.8019 75.8562C55.3941 71.416 51.9242 66.2572 49.4896 60.5183C46.9422 54.5023 45.6455 48.1115 45.6455 41.5205H46.1017C46.1017 54.4407 51.14 66.5806 60.2837 75.697L60.4477 75.8562L60.2837 76.0153C51.14 85.1318 46.1017 97.2717 46.1017 110.192Z" fill="url(#paint1_linear_2510_97116)"/>
</g>
<g style="mix-blend-mode:multiply">
<path d="M70.0682 122.533C63.8356 122.533 57.6031 121.347 52.857 118.97C48.2082 116.64 45.6455 113.524 45.6455 110.198H46.1017C46.1017 113.344 48.5721 116.317 53.062 118.565C62.4415 123.262 77.6999 123.262 87.0743 118.565C91.5642 116.317 94.0346 113.344 94.0346 110.198H94.4908C94.4908 113.524 91.9281 116.64 87.2793 118.97C82.5332 121.347 76.3007 122.533 70.0682 122.533Z" fill="url(#paint2_linear_2510_97116)"/>
</g>
<path opacity="0.47" d="M70.061 119.56C64.0181 119.56 58.375 118.406 54.1824 116.301C50.6459 114.53 48.6162 112.302 48.6162 110.192C48.6162 102.026 50.7945 94.0128 54.9102 87.0163C58.6364 80.6871 63.8541 75.3229 70.0661 71.4269C76.273 75.3229 81.4958 80.6871 85.222 87.0163C89.3377 94.0128 91.516 102.026 91.516 110.192C91.516 112.302 89.4864 114.53 85.9498 116.301C81.7521 118.4 76.1141 119.56 70.0712 119.56H70.061Z" fill="#017AFF"/>
<path opacity="0.47" d="M70.0661 80.2812C63.8593 76.3851 58.6364 71.021 54.9103 64.6918C51.2558 58.4858 49.1339 51.4739 48.6982 44.267H91.4289C90.9984 51.4739 88.8713 58.4858 85.2169 64.6918C81.4907 71.021 76.273 76.3851 70.061 80.2812H70.0661Z" fill="#017AFF"/>
<path d="M85.3337 102.575C81.2539 100.532 75.903 96.816 70.552 96.816C65.2011 96.816 59.8553 100.532 55.7703 102.575C50.7884 105.07 48.851 108.515 49.9529 111.748C50.6859 113.299 52.4388 114.833 55.0169 116.122C59.1223 118.18 64.6373 119.31 70.552 119.31C76.4668 119.31 81.9817 118.175 86.0872 116.122C88.6601 114.833 90.4182 113.299 91.1511 111.748C92.2531 108.515 90.3157 105.075 85.3337 102.575Z" fill="#00386B" stroke="#231F20" stroke-width="0.212729" stroke-miterlimit="10"/>
<g style="mix-blend-mode:screen">
<path d="M70.5532 119.786C64.4745 119.786 58.8006 118.621 54.5722 116.501C51.9018 115.167 50.0772 113.58 49.293 111.922L49.703 111.727C50.4308 113.267 52.2298 114.817 54.772 116.09C58.939 118.175 64.5411 119.324 70.5481 119.324C76.5551 119.324 82.1623 118.175 86.3242 116.09C88.8664 114.817 90.6654 113.267 91.3932 111.727L91.8032 111.922C91.019 113.58 89.1944 115.161 86.5241 116.501C82.2956 118.616 76.6217 119.786 70.543 119.786H70.5532Z" fill="url(#paint3_linear_2510_97116)"/>
</g>
<path d="M70.069 78.2847C70.069 78.2847 70.0383 78.2847 70.0229 78.2847C70.0075 78.2847 69.9973 78.2795 69.9819 78.2744C69.9665 78.2693 69.9563 78.2641 69.9409 78.2539C69.9306 78.2436 69.9153 78.2333 69.905 78.2231C69.8948 78.2128 69.8845 78.2025 69.8794 78.1871C69.8691 78.1769 69.864 78.1615 69.8589 78.1461C69.8538 78.1307 69.8486 78.1204 69.8486 78.105C69.8486 78.0896 69.8486 78.0742 69.8486 78.0588C69.8486 77.9972 69.8743 77.9407 69.9153 77.8997C69.9255 77.8894 69.9358 77.8791 69.9511 77.874C69.9614 77.8637 69.9768 77.8586 69.9921 77.8535C70.0075 77.8483 70.0178 77.8432 70.0331 77.8432C70.0639 77.8381 70.0947 77.8381 70.1203 77.8432C70.1357 77.8432 70.151 77.8483 70.1613 77.8535C70.1767 77.8586 70.1869 77.8637 70.2023 77.874C70.2125 77.8843 70.2279 77.8894 70.2382 77.8997C70.2792 77.9407 70.3048 78.0023 70.3048 78.0588C70.3048 78.0742 70.3048 78.0896 70.3048 78.105C70.3048 78.1204 70.2997 78.1358 70.2945 78.1461C70.2894 78.1615 70.2843 78.1717 70.274 78.1871C70.2638 78.1974 70.2535 78.2128 70.2484 78.2231C70.2382 78.2333 70.2279 78.2436 70.2125 78.2539C70.2023 78.2641 70.1869 78.2693 70.1715 78.2744C70.1562 78.2795 70.1459 78.2847 70.1305 78.2847C70.1152 78.2847 70.0998 78.2847 70.0844 78.2847H70.069Z" fill="#5C81EF"/>
<path d="M69.833 96.9579C69.833 96.8347 69.9355 96.732 70.0585 96.732C70.1815 96.732 70.284 96.8347 70.284 96.9579C70.284 97.0811 70.1815 97.1837 70.0585 97.1837C69.9355 97.1837 69.833 97.0811 69.833 96.9579ZM69.833 96.0596C69.833 95.9364 69.9355 95.8337 70.0585 95.8337C70.1815 95.8337 70.284 95.9364 70.284 96.0596C70.284 96.1828 70.1815 96.2854 70.0585 96.2854C69.9355 96.2854 69.833 96.1828 69.833 96.0596ZM69.833 95.1613C69.833 95.0381 69.9355 94.9354 70.0585 94.9354C70.1815 94.9354 70.284 95.0381 70.284 95.1613C70.284 95.2845 70.1815 95.3871 70.0585 95.3871C69.9355 95.3871 69.833 95.2845 69.833 95.1613ZM69.833 94.263C69.833 94.1398 69.9355 94.0371 70.0585 94.0371C70.1815 94.0371 70.284 94.1398 70.284 94.263C70.284 94.3862 70.1815 94.4888 70.0585 94.4888C69.9355 94.4888 69.833 94.3862 69.833 94.263ZM69.833 93.3647C69.833 93.2415 69.9355 93.1388 70.0585 93.1388C70.1815 93.1388 70.284 93.2415 70.284 93.3647C70.284 93.4879 70.1815 93.5905 70.0585 93.5905C69.9355 93.5905 69.833 93.4879 69.833 93.3647ZM69.833 92.4664C69.833 92.3432 69.9355 92.2405 70.0585 92.2405C70.1815 92.2405 70.284 92.3432 70.284 92.4664C70.284 92.5896 70.1815 92.6922 70.0585 92.6922C69.9355 92.6922 69.833 92.5896 69.833 92.4664ZM69.833 91.5681C69.833 91.4449 69.9355 91.3422 70.0585 91.3422C70.1815 91.3422 70.284 91.4449 70.284 91.5681C70.284 91.6913 70.1815 91.7939 70.0585 91.7939C69.9355 91.7939 69.833 91.6913 69.833 91.5681ZM69.833 90.6698C69.833 90.5466 69.9355 90.4439 70.0585 90.4439C70.1815 90.4439 70.284 90.5466 70.284 90.6698C70.284 90.793 70.1815 90.8956 70.0585 90.8956C69.9355 90.8956 69.833 90.793 69.833 90.6698ZM69.833 89.7715C69.833 89.6483 69.9355 89.5456 70.0585 89.5456C70.1815 89.5456 70.284 89.6483 70.284 89.7715C70.284 89.8947 70.1815 89.9973 70.0585 89.9973C69.9355 89.9973 69.833 89.8947 69.833 89.7715ZM69.833 88.8732C69.833 88.75 69.9355 88.6473 70.0585 88.6473C70.1815 88.6473 70.284 88.75 70.284 88.8732C70.284 88.9964 70.1815 89.099 70.0585 89.099C69.9355 89.099 69.833 88.9964 69.833 88.8732ZM69.833 87.9749C69.833 87.8517 69.9355 87.749 70.0585 87.749C70.1815 87.749 70.284 87.8517 70.284 87.9749C70.284 88.0981 70.1815 88.2007 70.0585 88.2007C69.9355 88.2007 69.833 88.0981 69.833 87.9749ZM69.833 87.0766C69.833 86.9534 69.9355 86.8507 70.0585 86.8507C70.1815 86.8507 70.284 86.9534 70.284 87.0766C70.284 87.1998 70.1815 87.3024 70.0585 87.3024C69.9355 87.3024 69.833 87.1998 69.833 87.0766ZM69.833 86.1783C69.833 86.0551 69.9355 85.9524 70.0585 85.9524C70.1815 85.9524 70.284 86.0551 70.284 86.1783C70.284 86.3015 70.1815 86.4041 70.0585 86.4041C69.9355 86.4041 69.833 86.3015 69.833 86.1783ZM69.833 85.28C69.833 85.1568 69.9355 85.0541 70.0585 85.0541C70.1815 85.0541 70.284 85.1568 70.284 85.28C70.284 85.4032 70.1815 85.5058 70.0585 85.5058C69.9355 85.5058 69.833 85.4032 69.833 85.28ZM69.833 84.3817C69.833 84.2585 69.9355 84.1558 70.0585 84.1558C70.1815 84.1558 70.284 84.2585 70.284 84.3817C70.284 84.5049 70.1815 84.6075 70.0585 84.6075C69.9355 84.6075 69.833 84.5049 69.833 84.3817ZM69.833 83.4834C69.833 83.3602 69.9355 83.2575 70.0585 83.2575C70.1815 83.2575 70.284 83.3602 70.284 83.4834C70.284 83.6066 70.1815 83.7092 70.0585 83.7092C69.9355 83.7092 69.833 83.6066 69.833 83.4834ZM69.833 82.5851C69.833 82.4619 69.9355 82.3592 70.0585 82.3592C70.1815 82.3592 70.284 82.4619 70.284 82.5851C70.284 82.7082 70.1815 82.8109 70.0585 82.8109C69.9355 82.8109 69.833 82.7082 69.833 82.5851ZM69.833 81.6868C69.833 81.5636 69.9355 81.4609 70.0585 81.4609C70.1815 81.4609 70.284 81.5636 70.284 81.6868C70.284 81.8099 70.1815 81.9126 70.0585 81.9126C69.9355 81.9126 69.833 81.8099 69.833 81.6868ZM69.833 80.7885C69.833 80.6601 69.9355 80.5626 70.0585 80.5626C70.1815 80.5626 70.284 80.6653 70.284 80.7885C70.284 80.9117 70.1815 81.0143 70.0585 81.0143C69.9355 81.0143 69.833 80.9117 69.833 80.7885ZM69.833 79.8902C69.833 79.767 69.9355 79.6643 70.0585 79.6643C70.1815 79.6643 70.284 79.767 70.284 79.8902C70.284 80.0133 70.1815 80.116 70.0585 80.116C69.9355 80.116 69.833 80.0133 69.833 79.8902ZM69.833 78.9919C69.833 78.8687 69.9355 78.766 70.0585 78.766C70.1815 78.766 70.284 78.8687 70.284 78.9919C70.284 79.115 70.1815 79.2177 70.0585 79.2177C69.9355 79.2177 69.833 79.115 69.833 78.9919Z" fill="#5C81EF"/>
<path d="M70.0681 98.0834C70.0681 98.0834 70.0373 98.0834 70.0219 98.0834C70.0065 98.0834 69.9912 98.0782 69.9809 98.0731C69.9655 98.068 69.9553 98.0628 69.9399 98.0526C69.9297 98.0423 69.9143 98.032 69.904 98.0269C69.8938 98.0166 69.8835 98.0064 69.8784 97.991C69.8682 97.9807 69.863 97.9653 69.8579 97.9499C69.8528 97.9345 69.8477 97.9191 69.8477 97.9088C69.8477 97.8934 69.8477 97.878 69.8477 97.8626C69.8477 97.8472 69.8477 97.8318 69.8477 97.8164C69.8477 97.801 69.8528 97.7856 69.8579 97.7754C69.863 97.76 69.8682 97.7497 69.8784 97.7343C69.8887 97.724 69.8989 97.7086 69.904 97.6984C69.9143 97.6881 69.9245 97.6779 69.9399 97.6727C69.9502 97.6625 69.9655 97.6573 69.9809 97.6522C69.9963 97.647 70.0065 97.6419 70.0219 97.6419C70.0527 97.6368 70.0834 97.6368 70.1091 97.6419C70.1244 97.6419 70.1398 97.647 70.1501 97.6522C70.1654 97.6573 70.1757 97.6625 70.1911 97.6727C70.2013 97.683 70.2167 97.6932 70.2269 97.6984C70.2372 97.7086 70.2474 97.7189 70.2526 97.7343C70.2628 97.7446 70.2679 97.76 70.2731 97.7754C70.2782 97.7908 70.2833 97.8062 70.2833 97.8164C70.2833 97.8318 70.2833 97.8472 70.2833 97.8626C70.2833 97.878 70.2833 97.8934 70.2833 97.9088C70.2833 97.9242 70.2782 97.9396 70.2731 97.9499C70.2679 97.9653 70.2628 97.9756 70.2526 97.991C70.2423 98.0012 70.2321 98.0166 70.2269 98.0269C70.2167 98.0372 70.2064 98.0474 70.1911 98.0526C70.1808 98.0628 70.1654 98.068 70.1501 98.0731C70.1347 98.0782 70.1244 98.0834 70.1091 98.0834C70.0937 98.0834 70.0783 98.0834 70.0629 98.0834H70.0681Z" fill="#5C81EF"/>
<path d="M70.066 80.2814C75.8321 76.6625 80.7423 71.7757 84.4018 66.0266H55.7354C59.3898 71.7757 64.2999 76.6625 70.0712 80.2814H70.066Z" fill="#005CA0" stroke="#231F20" stroke-width="0.212729" stroke-miterlimit="10"/>
<path d="M70.0649 71.6991C78.2513 71.6991 84.8876 68.3759 84.8876 64.2765C84.8876 60.1772 78.2513 56.854 70.0649 56.854C61.8786 56.854 55.2422 60.1772 55.2422 64.2765C55.2422 68.3759 61.8786 71.6991 70.0649 71.6991Z" fill="#00386B" stroke="#231F20" stroke-width="0.212729" stroke-miterlimit="10"/>
<g style="mix-blend-mode:screen" opacity="0.39">
<path d="M69.944 80.4767C68.9651 79.8608 67.9964 79.2037 67.0687 78.5159C62.0406 74.7995 57.8839 70.1899 54.7164 64.8104C51.0671 58.6095 48.9093 51.5104 48.4736 44.2829L48.9247 44.2572C49.3552 51.4128 51.4925 58.4401 55.1059 64.5794C58.2427 69.9024 62.3533 74.4709 67.3352 78.1514C68.2578 78.8341 69.2162 79.486 70.1849 80.0917L69.944 80.4767Z" fill="white"/>
</g>
<g opacity="0.15" style="mix-blend-mode:screen">
<path d="M85.2181 87.016C82.7477 82.8222 79.6211 79.0545 75.9872 75.8514C79.6211 72.6534 82.7477 68.8857 85.2181 64.6868C88.8725 58.4808 90.9945 51.4689 91.4301 44.262H83.4498C82.7425 49.6364 81.6508 54.8106 80.1952 59.6101C78.5448 65.041 72.4968 76.1286 70.0674 80.2762C58.8376 98.2935 84.2545 106.958 84.3878 117.004C84.926 116.783 85.4488 116.547 85.9459 116.296C89.4825 114.525 91.5121 112.297 91.5121 110.187C91.5121 102.02 89.3338 94.0074 85.2181 87.0109V87.016Z" fill="white"/>
</g>
<g style="mix-blend-mode:screen">
<path opacity="0.39" d="M83.1213 111.349C82.9982 111.349 82.8957 111.246 82.8957 111.123C82.8957 102.982 81.5119 94.9943 78.8928 88.0286C78.1342 86.0062 77.2629 84.0556 76.3044 82.2333C76.2481 82.1204 76.2891 81.9869 76.4018 81.9253C76.5146 81.8689 76.6478 81.9099 76.7093 82.0229C77.6729 83.8605 78.5494 85.8265 79.3182 87.8695C81.9578 94.8865 83.3519 102.93 83.3519 111.123C83.3519 111.246 83.2494 111.349 83.1264 111.349H83.1213Z" fill="white"/>
</g>
<path opacity="0.47" d="M70.066 80.283C51.9835 64.2779 55.9352 48.0212 72.5057 41.5175H45.874C45.874 54.9355 51.3223 67.0806 60.1227 75.8583C63.4081 78.2246 66.7755 79.7287 70.0712 80.283H70.066Z" fill="#C4DCF5"/>
<path opacity="0.3" d="M54.9102 87.0161C50.7945 94.0126 48.6162 102.025 48.6162 110.192C48.6162 112.302 50.6459 114.53 54.1824 116.301C54.6796 116.552 55.2024 116.788 55.7406 117.009C52.7678 97.3492 58.0009 80.5278 64.5102 78.4078L62.46 77.4171C59.5385 80.2609 56.986 83.4845 54.9051 87.0161H54.9102Z" fill="url(#paint4_linear_2510_97116)" style="mix-blend-mode:multiply"/>
<path d="M100.161 36.2913C100.161 36.0655 99.992 35.8396 99.6486 35.6651C98.9618 35.3212 97.8496 35.3212 97.1628 35.6651C96.8194 35.8396 96.6451 36.0655 96.6503 36.2913V109.67C96.6503 109.896 96.8194 110.121 97.1628 110.291C97.8496 110.635 98.9618 110.635 99.6486 110.291C99.992 110.121 100.161 109.896 100.161 109.67V36.2913ZM43.9506 32.9137C43.2638 32.5698 42.1516 32.5698 41.4648 32.9137C41.1214 33.0882 40.9471 33.3141 40.9523 33.5399V109.67C40.9523 109.896 41.1214 110.121 41.4648 110.291C42.1516 110.635 43.2638 110.635 43.9506 110.291C44.294 110.121 44.4632 109.896 44.4632 109.67V33.5399C44.4632 33.3141 44.294 33.0882 43.9506 32.9137Z" fill="black"/>
<path d="M94.2583 41.5688V41.5175H45.8691C45.8691 45.778 46.4227 49.9102 47.458 53.8473C63.557 58.0359 80.23 55.4745 93.2434 46.1476C93.8944 44.7257 94.2531 43.1703 94.2583 41.5688Z" fill="url(#paint5_linear_2510_97116)" style="mix-blend-mode:multiply"/>
<path d="M38.4668 31.7883V35.4226C38.4668 39.4727 41.5523 43.5227 47.7233 46.6129C60.0602 52.7932 80.0699 52.7932 92.4068 46.6129C98.5778 43.5227 101.663 39.4727 101.663 35.4226V31.7883H38.4719H38.4668Z" fill="#0157B5" stroke="#231F20" stroke-width="0.212729" stroke-miterlimit="10"/>
<path d="M70.065 47.5424C87.5163 47.5424 101.663 40.4571 101.663 31.7169C101.663 22.9767 87.5163 15.8914 70.065 15.8914C52.6138 15.8914 38.4668 22.9767 38.4668 31.7169C38.4668 40.4571 52.6138 47.5424 70.065 47.5424Z" fill="#017AFF" stroke="#010101" stroke-width="0.212729" stroke-linecap="round" stroke-linejoin="round"/>
<g style="mix-blend-mode:multiply">
<path d="M70.0712 51.5619C61.5989 51.5619 53.6237 49.909 47.627 46.901L47.832 46.4955C60.0971 52.6399 80.0504 52.6399 92.3155 46.4955L92.5205 46.901C86.5238 49.9039 78.5486 51.5619 70.0763 51.5619H70.0712Z" fill="url(#paint6_linear_2510_97116)"/>
</g>
<path d="M73.336 111.711C58.9387 106.183 55.6841 85.753 47.5962 97.3436C46.4737 101.435 45.874 105.747 45.874 110.192C45.874 113.292 48.2368 116.393 52.9625 118.759C62.4086 123.492 77.7285 123.492 87.1798 118.759C91.9055 116.393 94.2683 113.292 94.2683 110.192C94.2683 108.857 94.2119 107.533 94.1043 106.229C91.521 114.042 82.4388 115.207 73.3412 111.711H73.336Z" fill="url(#paint7_linear_2510_97116)" style="mix-blend-mode:multiply"/>
<path opacity="0.2" d="M54.497 106.808C54.2919 107.902 54.0306 108.975 53.7077 110.017C52.9183 112.614 51.7805 115.037 50.3659 117.229C48.8744 119.554 47.0754 121.613 45.0611 123.337C43.4158 122.27 42.0781 121.13 41.0479 119.934C43.1493 117.855 44.9586 115.391 46.3629 112.635C46.7935 111.788 47.1881 110.915 47.5366 110.017C48.1927 108.338 48.7052 106.572 49.0435 104.74C49.5612 101.953 49.6483 99.2268 49.3562 96.6448C49.2332 95.5823 49.0486 94.5402 48.8026 93.5341C49.4587 91.7375 50.2172 89.9974 51.0732 88.3086C53.067 91.2704 54.3688 94.8328 54.8096 98.7186C55.1018 101.301 55.0146 104.026 54.497 106.808Z" fill="#141125" stroke="#231F20" stroke-width="0.212729" stroke-linejoin="round"/>
<mask id="mask0_2510_97116" style="mask-type:luminance" maskUnits="userSpaceOnUse" x="7" y="85" width="17" height="39">
<path d="M21.501 87.9844C19.7071 87.2915 17.9132 86.5985 16.1193 85.9055C12.2547 89.2575 9.33837 94.1494 8.29791 99.7907C6.48864 109.554 10.876 118.373 18.3899 121.273L23.7716 123.352C16.2577 120.452 11.8703 111.633 13.6796 101.87C14.7252 96.2283 17.6364 91.3364 21.501 87.9844Z" fill="white"/>
</mask>
<g mask="url(#mask0_2510_97116)">
<path d="M18.3934 121.273L23.7751 123.352C18.0449 121.14 14.1342 115.488 13.4012 108.599L8.01953 106.521C8.75247 113.409 12.6632 119.061 18.3934 121.273Z" fill="#151226" stroke="#231F20" stroke-width="0.212729" stroke-linejoin="round"/>
<path d="M8.01422 106.52L13.3959 108.599C13.1653 106.454 13.2473 104.19 13.6778 101.87C15.769 90.5665 25.3638 82.2713 35.1072 83.339C36.4296 83.4827 37.6904 83.7959 38.8693 84.2527L33.4876 82.1738C32.3087 81.7169 31.0479 81.4089 29.7255 81.2601C19.9821 80.1924 10.3873 88.4927 8.29612 99.7908C7.86559 102.111 7.78871 104.375 8.01422 106.52Z" fill="#151226" stroke="#231F20" stroke-width="0.212729" stroke-linejoin="round"/>
</g>
<path d="M21.503 87.986C19.7091 87.2931 17.9152 86.6001 16.1213 85.9071C12.2567 89.2591 9.34033 94.151 8.29987 99.7923C6.49059 109.556 10.878 118.374 18.3918 121.275L23.7735 123.353C16.2596 120.453 11.8723 111.634 13.6816 101.871C14.7271 96.2299 17.6384 91.338 21.503 87.986Z" stroke="#231F20" stroke-width="0.212729" stroke-linejoin="round"/>
<mask id="mask1_2510_97116" style="mask-type:luminance" maskUnits="userSpaceOnUse" x="10" y="98" width="7" height="5">
<path d="M16.6863 101.004C16.7631 101.014 16.8349 101.029 16.9015 101.055L11.5198 98.9759C11.4532 98.9503 11.3814 98.9297 11.3046 98.9246C13.0985 99.6176 14.8924 100.311 16.6811 101.004C14.8872 100.311 13.0933 99.6176 11.3046 98.9246C10.7408 98.863 10.1923 99.3455 10.0693 99.9923C11.8632 100.685 13.6571 101.378 15.451 102.071C15.5689 101.424 16.1225 100.942 16.6863 101.004Z" fill="white"/>
</mask>
<g mask="url(#mask1_2510_97116)">
<path d="M10.0653 100.377L15.447 102.456C15.4316 102.333 15.4367 102.2 15.4624 102.066C15.5802 101.419 16.1338 100.937 16.6976 100.999C16.7745 101.009 16.8462 101.024 16.9129 101.05L11.5312 98.9709C11.4645 98.9453 11.3928 98.9247 11.3159 98.9196C10.7521 98.858 10.2037 99.3405 10.0807 99.9873C10.055 100.121 10.0499 100.254 10.0653 100.377Z" fill="#858585" stroke="#231F20" stroke-width="0.212729" stroke-linejoin="round"/>
</g>
<path d="M11.3026 98.9246C11.3795 98.9297 11.4512 98.9503 11.5179 98.9759L16.8996 101.055C16.8329 101.029 16.7612 101.014 16.6843 101.004C16.1205 100.942 15.567 101.424 15.4491 102.071C13.6552 101.378 11.8613 100.685 10.0674 99.9923C10.1904 99.3455 10.7388 98.863 11.3026 98.9246ZM11.3026 98.9246C13.0965 99.6176 14.8904 100.311 16.6792 101.004C14.8853 100.311 13.0914 99.6176 11.3026 98.9246Z" stroke="#231F20" stroke-width="0.212729" stroke-linejoin="round"/>
<mask id="mask2_2510_97116" style="mask-type:luminance" maskUnits="userSpaceOnUse" x="10" y="98" width="8" height="6">
<path d="M10.6621 101.231L16.0438 103.31C16.1104 103.336 16.1822 103.356 16.2591 103.361C16.8229 103.423 17.3713 102.945 17.4943 102.294C17.5968 101.734 17.3457 101.226 16.9151 101.056L11.5334 98.9775C11.964 99.1469 12.2202 99.6551 12.1126 100.215C11.9896 100.867 11.4412 101.344 10.8774 101.282C10.8005 101.272 10.7287 101.257 10.6621 101.231Z" fill="white"/>
</mask>
<g mask="url(#mask2_2510_97116)">
<path d="M10.6631 101.231L16.0448 103.31C16.1114 103.335 16.1832 103.356 16.26 103.361C16.8238 103.423 17.3723 102.945 17.4953 102.293C17.5209 102.16 17.526 102.032 17.5107 101.908L12.129 99.8295C12.1443 99.9527 12.1392 100.081 12.1136 100.214C11.9906 100.866 11.4422 101.344 10.8784 101.282C10.8015 101.272 10.7297 101.256 10.6631 101.231Z" fill="#151226" stroke="#231F20" stroke-width="0.212729" stroke-linejoin="round"/>
<path d="M12.1299 99.829L17.5116 101.908C17.4706 101.513 17.2451 101.184 16.912 101.056L11.5303 98.9769C11.8583 99.1053 12.0838 99.4286 12.1299 99.829Z" fill="#151226" stroke="#231F20" stroke-width="0.212729" stroke-linejoin="round"/>
</g>
<path d="M10.6572 101.231L16.0389 103.31C16.1056 103.336 16.1773 103.356 16.2542 103.361C16.818 103.423 17.3664 102.946 17.4894 102.294C17.5919 101.734 17.3408 101.226 16.9102 101.057L11.5285 98.9778C11.9591 99.1472 12.2154 99.6554 12.1077 100.215C11.9847 100.867 11.4363 101.344 10.8725 101.283C10.7956 101.272 10.7239 101.257 10.6572 101.231Z" stroke="#231F20" stroke-width="0.212729" stroke-linejoin="round"/>
<path d="M12.0305 100.458C12.2698 99.8369 12.0421 99.1701 11.5218 98.9691C11.0015 98.7681 10.3857 99.1091 10.1463 99.7307C9.90694 100.352 10.1347 101.019 10.655 101.22C11.1753 101.421 11.7911 101.08 12.0305 100.458Z" fill="#151226" stroke="#231F20" stroke-width="0.212729" stroke-linejoin="round"/>
<path d="M22.494 89.8189C20.7001 89.1259 18.9062 88.433 17.1123 87.74" stroke="#231F20" stroke-width="0.212729" stroke-linejoin="round"/>
<mask id="mask3_2510_97116" style="mask-type:luminance" maskUnits="userSpaceOnUse" x="16" y="87" width="7" height="4">
<path d="M22.3582 90.546C22.2249 90.3253 22.2813 90.0019 22.4914 89.8171C20.6975 89.1241 18.9036 88.4311 17.1097 87.7382C16.8996 87.923 16.8381 88.2463 16.9765 88.4671C18.591 89.0882 20.7437 89.9198 22.3582 90.546Z" fill="white"/>
</mask>
<g mask="url(#mask3_2510_97116)">
<path d="M16.9709 88.4686L22.3526 90.5476C22.3167 90.486 22.2911 90.4141 22.286 90.3422L16.9043 88.2633C16.9145 88.3352 16.935 88.407 16.9709 88.4686Z" fill="#8A8A8A" stroke="#231F20" stroke-width="0.212729" stroke-linejoin="round"/>
<path d="M16.9017 88.2637L22.2834 90.3426C22.2629 90.1578 22.3347 89.9525 22.4884 89.8191C22.5961 89.7267 22.7191 89.6907 22.8318 89.7061C22.8626 89.7061 22.8985 89.7164 22.9292 89.7318L17.5475 87.6529C17.5168 87.6426 17.486 87.6323 17.4501 87.6272C17.3374 87.6169 17.2144 87.6529 17.1067 87.7401C16.9581 87.8736 16.8812 88.0789 16.9017 88.2637Z" fill="#858585" stroke="#231F20" stroke-width="0.212729" stroke-linejoin="round"/>
</g>
<path d="M22.3504 90.5479C22.2171 90.3272 22.2735 90.0038 22.4836 89.819C20.6897 89.1261 18.8958 88.4331 17.1019 87.7401C16.8918 87.9249 16.8303 88.2483 16.9687 88.469C18.5832 89.0901 20.7359 89.9217 22.3504 90.5479Z" stroke="#231F20" stroke-width="0.212729" stroke-linejoin="round"/>
<mask id="mask4_2510_97116" style="mask-type:luminance" maskUnits="userSpaceOnUse" x="17" y="87" width="6" height="3">
<path d="M22.4911 89.8176C22.5987 89.7252 22.7217 89.6893 22.8345 89.7047C21.0406 89.0117 19.2467 88.3187 17.4528 87.6257C17.34 87.6155 17.217 87.6514 17.1094 87.7387C18.9033 88.4316 20.6972 89.1246 22.4911 89.8176Z" fill="white"/>
</mask>
<g mask="url(#mask4_2510_97116)">
<path d="M16.9076 88.2627L22.2893 90.3417C22.2688 90.1569 22.3405 89.9515 22.4943 89.8181C22.6019 89.7257 22.7249 89.6897 22.8377 89.7051C22.8684 89.7051 22.9043 89.7154 22.9351 89.7308L17.5534 87.6519C17.5226 87.6416 17.4919 87.6313 17.456 87.6262C17.3432 87.6159 17.2202 87.6519 17.1126 87.7391C16.9639 87.8726 16.8871 88.0779 16.9076 88.2627Z" fill="#858585" stroke="#231F20" stroke-width="0.212729" stroke-linejoin="round"/>
</g>
<path d="M22.494 89.8181C22.6016 89.7257 22.7246 89.6897 22.8374 89.7051C21.0435 89.0122 19.2496 88.3192 17.4557 87.6262C17.3429 87.6159 17.2199 87.6519 17.1123 87.7391C18.9062 88.4321 20.7001 89.1251 22.494 89.8181Z" stroke="#231F20" stroke-width="0.212729" stroke-linejoin="round"/>
<mask id="mask5_2510_97116" style="mask-type:luminance" maskUnits="userSpaceOnUse" x="17" y="87" width="6" height="3">
<path d="M22.8329 89.7051C22.8636 89.7051 22.8995 89.7154 22.9303 89.7308L17.5486 87.6519C17.5178 87.6416 17.487 87.6314 17.4512 87.6262C19.2451 88.3192 21.039 89.0122 22.8329 89.7051Z" fill="white"/>
</mask>
<g mask="url(#mask5_2510_97116)">
<path d="M16.9076 88.2614L22.2893 90.3403C22.2688 90.1555 22.3405 89.9502 22.4943 89.8167C22.6019 89.7243 22.7249 89.6884 22.8377 89.7038C22.8684 89.7038 22.9043 89.7141 22.9351 89.7295L17.5534 87.6505C17.5226 87.6403 17.4919 87.63 17.456 87.6249C17.3432 87.6146 17.2202 87.6505 17.1126 87.7378C16.9639 87.8713 16.8871 88.0766 16.9076 88.2614Z" fill="#858585" stroke="#231F20" stroke-width="0.212729" stroke-linejoin="round"/>
</g>
<path d="M22.826 89.7053C22.8568 89.7053 22.8927 89.7155 22.9234 89.7309L17.5417 87.652C17.511 87.6417 17.4802 87.6315 17.4443 87.6263C19.2382 88.3193 21.0321 89.0123 22.826 89.7053Z" stroke="#231F20" stroke-width="0.212729" stroke-linejoin="round"/>
<mask id="mask6_2510_97116" style="mask-type:luminance" maskUnits="userSpaceOnUse" x="17" y="87" width="7" height="3">
<path d="M22.91 89.7254L17.5283 87.6465C17.6052 87.6773 17.6718 87.7286 17.718 87.8056L23.0997 89.8845C23.0484 89.8075 22.9818 89.7511 22.91 89.7254Z" fill="white"/>
</mask>
<g mask="url(#mask6_2510_97116)">
<path d="M17.716 87.8131L23.0977 89.892C23.0464 89.815 22.9798 89.7585 22.9081 89.7329L17.5264 87.6539C17.6032 87.6847 17.6699 87.7361 17.716 87.8131Z" fill="#937D6B" stroke="#231F20" stroke-width="0.212729" stroke-linejoin="round"/>
</g>
<path d="M22.9217 89.7261L17.54 87.6472C17.6169 87.678 17.6836 87.7294 17.7297 87.8064L23.1114 89.8853C23.0601 89.8083 22.9935 89.7518 22.9217 89.7261Z" stroke="#231F20" stroke-width="0.212729" stroke-linejoin="round"/>
<path d="M17.5557 89.4076L22.9323 91.4814L22.3531 90.5472L16.9766 88.4683L17.5557 89.4076Z" fill="#8F8F8F" stroke="#231F20" stroke-width="0.212729" stroke-linejoin="round"/>
<mask id="mask7_2510_97116" style="mask-type:luminance" maskUnits="userSpaceOnUse" x="17" y="89" width="7" height="3">
<path d="M17.7375 89.5665L23.1192 91.6454C23.0423 91.6146 22.9757 91.5633 22.9295 91.4811L17.5479 89.4022C17.594 89.4844 17.6606 89.5357 17.7375 89.5665Z" fill="white"/>
</mask>
<g mask="url(#mask7_2510_97116)">
<path d="M17.7365 89.5646L23.1182 91.6436C23.0413 91.6128 22.9747 91.5614 22.9286 91.4793L17.5469 89.4004C17.593 89.4825 17.6596 89.5338 17.7365 89.5646Z" fill="#8A8A8A" stroke="#231F20" stroke-width="0.212729" stroke-linejoin="round"/>
</g>
<path d="M17.7453 89.5664L23.127 91.6453C23.0501 91.6145 22.9835 91.5632 22.9374 91.481L17.5557 89.4021C17.6018 89.4842 17.6684 89.5356 17.7453 89.5664Z" stroke="#231F20" stroke-width="0.212729" stroke-linejoin="round"/>
<path d="M18.3104 88.7458L23.6921 90.8247L23.1129 89.8905L17.7363 87.8115L18.3104 88.7458Z" fill="#98806E" stroke="#231F20" stroke-width="0.212729" stroke-linejoin="round"/>
<mask id="mask8_2510_97116" style="mask-type:luminance" maskUnits="userSpaceOnUse" x="17" y="89" width="7" height="3">
<path d="M17.7256 89.5674L23.1073 91.6463C23.138 91.6566 23.1688 91.6668 23.2047 91.672C23.3174 91.6822 23.4404 91.6463 23.5429 91.5539L18.1612 89.475C18.0587 89.5674 17.9357 89.6033 17.823 89.593C17.7922 89.593 17.7563 89.5828 17.7256 89.5674Z" fill="white"/>
</mask>
<g mask="url(#mask8_2510_97116)">
<path d="M17.7236 89.5675L23.1053 91.6464C23.1361 91.6567 23.1668 91.667 23.2027 91.6721C23.3155 91.6824 23.4385 91.6464 23.541 91.554L18.1593 89.4751C18.0568 89.5675 17.9338 89.6034 17.821 89.5932C17.7903 89.5932 17.7544 89.5829 17.7236 89.5675Z" fill="#907968" stroke="#231F20" stroke-width="0.212729" stroke-linejoin="round"/>
</g>
<path d="M17.7393 89.5665L23.121 91.6454C23.1517 91.6557 23.1825 91.666 23.2183 91.6711C23.3311 91.6814 23.4541 91.6454 23.5566 91.553L18.1749 89.4741C18.0724 89.5665 17.9494 89.6024 17.8366 89.5922C17.8059 89.5922 17.77 89.5819 17.7393 89.5665Z" stroke="#231F20" stroke-width="0.212729" stroke-linejoin="round"/>
<mask id="mask9_2510_97116" style="mask-type:luminance" maskUnits="userSpaceOnUse" x="18" y="88" width="6" height="4">
<path d="M18.1689 89.4734L23.5506 91.5523C23.7608 91.3727 23.8223 91.0442 23.6839 90.8286L18.3022 88.7496C18.4406 88.9704 18.3791 89.2937 18.1689 89.4734Z" fill="white"/>
</mask>
<g mask="url(#mask9_2510_97116)">
<path d="M18.167 89.4728L23.5487 91.5517C23.6973 91.4234 23.7742 91.2181 23.7537 91.0333L18.372 88.9543C18.3925 89.1391 18.3156 89.3445 18.167 89.4728Z" fill="#907968" stroke="#231F20" stroke-width="0.212729" stroke-linejoin="round"/>
<path d="M18.3725 88.9542L23.7542 91.0332C23.744 90.9562 23.7235 90.8843 23.6825 90.8227L18.3008 88.7438C18.3418 88.8054 18.3623 88.8772 18.3725 88.9542Z" fill="#937D6B" stroke="#231F20" stroke-width="0.212729" stroke-linejoin="round"/>
</g>
<path d="M18.1768 89.4743L23.5585 91.5532C23.7686 91.3735 23.8301 91.045 23.6917 90.8294L18.31 88.7505C18.4484 88.9712 18.3869 89.2946 18.1768 89.4743Z" stroke="#231F20" stroke-width="0.212729" stroke-linejoin="round"/>
<mask id="mask10_2510_97116" style="mask-type:luminance" maskUnits="userSpaceOnUse" x="12" y="112" width="6" height="4">
<path d="M17.8576 114.855C16.0637 114.162 14.2699 113.469 12.476 112.776C12.2658 112.956 12.2043 113.284 12.3427 113.5L17.7244 115.579C17.5911 115.358 17.6475 115.035 17.8576 114.855Z" fill="white"/>
</mask>
<g mask="url(#mask10_2510_97116)">
<path d="M12.342 113.501L17.7237 115.58C17.6878 115.518 17.6622 115.446 17.6571 115.374L12.2754 113.295C12.2856 113.367 12.3061 113.439 12.342 113.501Z" fill="#8A8A8A" stroke="#231F20" stroke-width="0.212729" stroke-linejoin="round"/>
<path d="M12.2716 113.295L17.6533 115.374C17.6328 115.189 17.7045 114.984 17.8583 114.855L12.4766 112.776C12.328 112.905 12.2562 113.11 12.2716 113.295Z" fill="#858585" stroke="#231F20" stroke-width="0.212729" stroke-linejoin="round"/>
</g>
<path d="M17.8586 114.855C16.0647 114.162 14.2708 113.469 12.4769 112.776C12.2668 112.955 12.2053 113.284 12.3437 113.499L17.7254 115.578C17.5921 115.358 17.6485 115.034 17.8586 114.855Z" stroke="#231F20" stroke-width="0.212729" stroke-linejoin="round"/>
<mask id="mask11_2510_97116" style="mask-type:luminance" maskUnits="userSpaceOnUse" x="21" y="90" width="6" height="3">
<path d="M26.8201 92.4178L21.4384 90.3389C21.4384 90.3389 21.4179 90.3337 21.4077 90.3337C21.3 90.3235 21.177 90.4467 21.218 90.5955L26.5997 92.6744C26.5536 92.5307 26.6817 92.4024 26.7894 92.4127C26.7996 92.4127 26.8099 92.4127 26.8201 92.4178Z" fill="white"/>
</mask>
<g mask="url(#mask11_2510_97116)">
<path d="M21.2339 90.5914L26.6156 92.6703C26.6156 92.6703 26.6105 92.6446 26.6053 92.6292L21.2236 90.5503C21.2236 90.5503 21.2236 90.576 21.2339 90.5914Z" fill="#8A8A8A" stroke="#231F20" stroke-width="0.212729" stroke-linejoin="round"/>
<path d="M21.225 90.5494L26.6067 92.6284C26.5914 92.5 26.7041 92.3974 26.8015 92.4076C26.8118 92.4076 26.822 92.4076 26.8323 92.4128L21.4506 90.3338C21.4506 90.3338 21.4301 90.3287 21.4198 90.3287C21.3224 90.3184 21.2097 90.4211 21.225 90.5494Z" fill="#858585" stroke="#231F20" stroke-width="0.212729" stroke-linejoin="round"/>
</g>
<path d="M26.8201 92.4197L21.4384 90.3408C21.4384 90.3408 21.4179 90.3357 21.4077 90.3357C21.3 90.3254 21.177 90.4486 21.218 90.5975L26.5997 92.6764C26.5536 92.5327 26.6817 92.4043 26.7894 92.4146C26.7996 92.4146 26.8099 92.4146 26.8201 92.4197Z" stroke="#231F20" stroke-width="0.212729" stroke-linejoin="round"/>
<mask id="mask12_2510_97116" style="mask-type:luminance" maskUnits="userSpaceOnUse" x="12" y="113" width="6" height="3">
<path d="M17.9241 115.741C17.8472 115.71 17.7806 115.658 17.7294 115.576C16.1456 114.966 14.5618 114.355 12.9781 113.739L12.3477 113.497C12.3989 113.58 12.4655 113.631 12.5424 113.662C14.1569 114.283 16.3096 115.114 17.9241 115.741Z" fill="white"/>
</mask>
<g mask="url(#mask12_2510_97116)">
<path d="M12.5444 113.662L17.9261 115.741C17.8492 115.711 17.7826 115.659 17.7313 115.577L12.3496 113.498C12.4009 113.58 12.4675 113.632 12.5444 113.662Z" fill="#8A8A8A" stroke="#231F20" stroke-width="0.212729" stroke-linejoin="round"/>
</g>
<path d="M17.9114 115.742C17.8345 115.711 17.7679 115.66 17.7167 115.578C16.1329 114.967 14.5491 114.356 12.9654 113.74L12.335 113.499C12.3862 113.581 12.4528 113.632 12.5297 113.663C14.1442 114.284 16.2969 115.116 17.9114 115.742Z" stroke="#231F20" stroke-width="0.212729" stroke-linejoin="round"/>
<mask id="mask13_2510_97116" style="mask-type:luminance" maskUnits="userSpaceOnUse" x="21" y="90" width="6" height="3">
<path d="M26.8299 92.4227L21.4482 90.3438C21.479 90.354 21.5046 90.3797 21.52 90.4156L26.9017 92.4945C26.8812 92.4586 26.8556 92.4329 26.8299 92.4227Z" fill="white"/>
</mask>
<g mask="url(#mask13_2510_97116)">
<path d="M21.52 90.4159L26.9017 92.4948C26.8812 92.4589 26.8556 92.4332 26.8299 92.4229L21.4482 90.344C21.479 90.3543 21.5046 90.3799 21.52 90.4159Z" fill="#975F1F" stroke="#231F20" stroke-width="0.212729" stroke-linejoin="round"/>
</g>
<path d="M26.8241 92.4213L21.4424 90.3424C21.4731 90.3527 21.4988 90.3783 21.5141 90.4143L26.8958 92.4932C26.8753 92.4573 26.8497 92.4316 26.8241 92.4213Z" stroke="#231F20" stroke-width="0.212729" stroke-linejoin="round"/>
<path d="M12.4688 112.774L17.8504 114.853L18.7474 114.078L13.3657 111.999L12.4688 112.774Z" fill="#818181" stroke="#231F20" stroke-width="0.212729" stroke-linejoin="round"/>
<mask id="mask14_2510_97116" style="mask-type:luminance" maskUnits="userSpaceOnUse" x="12" y="113" width="7" height="3">
<path d="M12.5342 113.66L17.9159 115.739C17.9466 115.749 17.9774 115.76 18.0081 115.76C18.1209 115.77 18.2439 115.734 18.3515 115.642L12.9698 113.563C12.8673 113.655 12.7392 113.691 12.6264 113.681C12.5957 113.681 12.5649 113.67 12.5342 113.66Z" fill="white"/>
</mask>
<g mask="url(#mask14_2510_97116)">
<path d="M12.5322 113.66L17.9139 115.739C17.9447 115.749 17.9754 115.76 18.0062 115.76C18.1189 115.77 18.242 115.734 18.3496 115.642L12.9679 113.563C12.8654 113.655 12.7372 113.691 12.6245 113.681C12.5937 113.681 12.563 113.67 12.5322 113.66Z" fill="#907968" stroke="#231F20" stroke-width="0.212729" stroke-linejoin="round"/>
</g>
<path d="M12.5332 113.662L17.9149 115.741C17.9457 115.751 17.9764 115.762 18.0072 115.762C18.1199 115.772 18.2429 115.736 18.3506 115.644L12.9689 113.565C12.8664 113.657 12.7382 113.693 12.6255 113.683C12.5947 113.683 12.564 113.672 12.5332 113.662Z" stroke="#231F20" stroke-width="0.212729" stroke-linejoin="round"/>
<mask id="mask15_2510_97116" style="mask-type:luminance" maskUnits="userSpaceOnUse" x="13" y="111" width="7" height="4">
<path d="M19.092 113.961C17.2981 113.268 15.5042 112.575 13.7103 111.882C13.5976 111.872 13.4746 111.908 13.3721 111.995L18.7538 114.074C18.8563 113.981 18.9793 113.945 19.092 113.961Z" fill="white"/>
</mask>
<g mask="url(#mask15_2510_97116)">
<path d="M13.373 112L18.7547 114.079C18.8573 113.987 18.9803 113.951 19.093 113.966C19.1238 113.966 19.1597 113.977 19.1904 113.987L13.8087 111.908C13.778 111.898 13.7472 111.887 13.7113 111.887C13.5986 111.877 13.4756 111.913 13.373 112Z" fill="#858585" stroke="#231F20" stroke-width="0.212729" stroke-linejoin="round"/>
</g>
<path d="M19.0872 113.96C17.2933 113.267 15.4994 112.574 13.7055 111.881C13.5927 111.871 13.4697 111.907 13.3672 111.994L18.7489 114.073C18.8514 113.981 18.9744 113.945 19.0872 113.96Z" stroke="#231F20" stroke-width="0.212729" stroke-linejoin="round"/>
<mask id="mask16_2510_97116" style="mask-type:luminance" maskUnits="userSpaceOnUse" x="13" y="111" width="7" height="3">
<path d="M19.0897 113.957C19.1205 113.957 19.1563 113.967 19.1871 113.978L13.8054 111.899C13.7746 111.888 13.7439 111.878 13.708 111.878C14.605 112.222 15.5019 112.571 16.3989 112.915C16.609 112.997 16.8909 113.105 17.101 113.187C17.4444 113.32 17.7878 113.454 18.1312 113.582C18.326 113.659 18.5874 113.757 18.7822 113.834C18.8744 113.87 18.9923 113.931 19.0897 113.952V113.957Z" fill="white"/>
</mask>
<g mask="url(#mask16_2510_97116)">
<path d="M13.376 111.995L18.7577 114.074C18.8602 113.982 18.9832 113.946 19.096 113.961C19.1267 113.961 19.1626 113.972 19.1933 113.982L13.8116 111.903C13.7809 111.893 13.7501 111.883 13.7143 111.883C13.6015 111.872 13.4785 111.908 13.376 111.995Z" fill="#858585" stroke="#231F20" stroke-width="0.212729" stroke-linejoin="round"/>
</g>
<path d="M19.0917 113.958C19.1224 113.958 19.1583 113.968 19.189 113.979L13.8073 111.9C13.7766 111.89 13.7458 111.879 13.71 111.879C14.6069 112.223 15.5039 112.572 16.4008 112.916C16.611 112.998 16.8928 113.106 17.103 113.188C17.4464 113.322 17.7898 113.455 18.1332 113.583C18.328 113.66 18.5894 113.758 18.7841 113.835C18.8764 113.871 18.9943 113.933 19.0917 113.953V113.958Z" stroke="#231F20" stroke-width="0.212729" stroke-linejoin="round"/>
<path d="M12.9717 113.569L18.3482 115.648L19.2401 114.873L13.8635 112.794L12.9717 113.569Z" fill="#8D7766" stroke="#231F20" stroke-width="0.212729" stroke-linejoin="round"/>
<mask id="mask17_2510_97116" style="mask-type:luminance" maskUnits="userSpaceOnUse" x="13" y="111" width="7" height="4">
<path d="M19.1825 113.983L13.8008 111.905C13.8777 111.935 13.9443 111.987 13.9904 112.064C14.1288 112.284 14.0673 112.608 13.8572 112.793L19.2389 114.872C19.449 114.687 19.5105 114.363 19.3721 114.143C19.326 114.066 19.2594 114.009 19.1825 113.983Z" fill="white"/>
</mask>
<g mask="url(#mask17_2510_97116)">
<path d="M13.8506 112.792L19.2323 114.871C19.386 114.743 19.4578 114.538 19.4373 114.353L14.0556 112.274C14.0761 112.459 13.9992 112.664 13.8506 112.792Z" fill="#907968" stroke="#231F20" stroke-width="0.212729" stroke-linejoin="round"/>
<path d="M14.0612 112.274L19.4429 114.353C19.4326 114.276 19.4121 114.204 19.3711 114.143C19.325 114.066 19.2584 114.009 19.1815 113.983L13.7998 111.905C13.8767 111.935 13.9433 111.987 13.9894 112.064C14.0304 112.125 14.0509 112.197 14.0612 112.274Z" fill="#937D6B" stroke="#231F20" stroke-width="0.212729" stroke-linejoin="round"/>
</g>
<path d="M19.1844 113.985L13.8027 111.906C13.8796 111.937 13.9462 111.989 13.9924 112.065C14.1308 112.286 14.0693 112.61 13.8591 112.794L19.2408 114.873C19.451 114.689 19.5125 114.365 19.3741 114.144C19.3279 114.067 19.2613 114.011 19.1844 113.985Z" stroke="#231F20" stroke-width="0.212729" stroke-linejoin="round"/>
<path d="M13.7112 111.881C13.5984 111.871 13.4754 111.907 13.3729 111.994L12.476 112.769C12.2658 112.949 12.2043 113.277 12.3427 113.493C12.4144 113.606 12.517 113.667 12.6297 113.678C12.7425 113.688 12.8655 113.652 12.9731 113.56L13.8649 112.785C14.0751 112.6 14.1366 112.276 13.9982 112.056C13.9316 111.948 13.8239 111.886 13.7112 111.871V111.881Z" fill="#EEAB99" stroke="black" stroke-width="0.212729" stroke-linecap="round" stroke-linejoin="round"/>
<mask id="mask18_2510_97116" style="mask-type:luminance" maskUnits="userSpaceOnUse" x="27" y="76" width="9" height="3">
<path d="M35.9202 78.883C34.1263 78.19 32.3325 77.497 30.5386 76.804C29.4161 76.6808 28.2936 76.6603 27.1865 76.7373L32.5682 78.8162C33.6804 78.7392 34.8029 78.7649 35.9202 78.883Z" fill="white"/>
</mask>
<g mask="url(#mask18_2510_97116)">
<path d="M27.1885 76.7373L32.5702 78.8162C33.6824 78.7392 34.8049 78.7649 35.9273 78.883C37.0498 79.001 38.0287 79.2063 39.0282 79.4938L33.6465 77.4149C32.6522 77.1274 31.6168 76.9221 30.5456 76.804C29.4232 76.6808 28.3007 76.6603 27.1885 76.7373Z" fill="#935C1E" stroke="#231F20" stroke-width="0.212729" stroke-linejoin="round"/>
</g>
<path d="M35.9271 78.8841C34.1332 78.1911 32.3393 77.4981 30.5454 76.8051C29.4229 76.6819 28.3005 76.6614 27.1934 76.7384L32.5751 78.8173C33.6873 78.7403 34.8097 78.766 35.9271 78.8841Z" stroke="#231F20" stroke-width="0.212729" stroke-linejoin="round"/>
<mask id="mask19_2510_97116" style="mask-type:luminance" maskUnits="userSpaceOnUse" x="30" y="76" width="6" height="3">
<path d="M35.2903 78.646C34.4856 78.3329 33.6809 78.0249 32.8763 77.7118C32.6917 77.6399 32.4457 77.5475 32.2663 77.4757C32.0869 77.4038 31.846 77.3114 31.6667 77.2447C31.4873 77.1779 31.2617 77.0907 31.0875 77.0239C30.9235 76.9623 30.7082 76.8751 30.5391 76.8135C32.1228 77.4243 33.7066 78.0352 35.2903 78.6511V78.646Z" fill="white"/>
</mask>
<g mask="url(#mask19_2510_97116)">
<path d="M27.1826 76.7413L32.5643 78.8203C33.6765 78.7433 34.799 78.7689 35.9215 78.887C37.0439 79.005 38.0229 79.2104 39.0223 79.4978L33.6407 77.4189C32.6463 77.1314 31.611 76.9261 30.5398 76.8081C29.4173 76.6849 28.2948 76.6643 27.1826 76.7413Z" fill="#935C1E" stroke="#231F20" stroke-width="0.212729" stroke-linejoin="round"/>
</g>
<path d="M35.2981 78.6452C34.4935 78.332 33.6888 78.024 32.8841 77.7109C32.6996 77.6391 32.4535 77.5467 32.2741 77.4748C32.0948 77.4029 31.8539 77.3105 31.6745 77.2438C31.4951 77.1771 31.2696 77.0898 31.0953 77.0231C30.9313 76.9615 30.716 76.8742 30.5469 76.8126C32.1306 77.4235 33.7144 78.0343 35.2981 78.6503V78.6452Z" stroke="#231F20" stroke-width="0.212729" stroke-linejoin="round"/>
<mask id="mask20_2510_97116" style="mask-type:luminance" maskUnits="userSpaceOnUse" x="16" y="81" width="23" height="7">
<path d="M35.1008 83.3384C36.4231 83.4821 37.6789 83.7953 38.8628 84.247L33.4812 82.1681C32.3023 81.7112 31.0414 81.4032 29.7191 81.2595C24.8397 80.7256 19.9962 82.5428 16.1162 85.905C17.9101 86.598 19.704 87.2909 21.4979 87.9839C25.3779 84.6166 30.2214 82.8046 35.1008 83.3384Z" fill="white"/>
</mask>
<g mask="url(#mask20_2510_97116)">
<path d="M8.01813 106.52L13.3998 108.599C13.1692 106.454 13.2512 104.19 13.6817 101.87C15.7729 90.5665 25.3677 82.2713 35.1111 83.339C36.4335 83.4827 37.6943 83.7959 38.8732 84.2527L33.4915 82.1738C32.3126 81.7169 31.0518 81.4089 29.7294 81.2601C19.986 80.1924 10.3912 88.4927 8.30003 99.7908C7.86949 102.111 7.79261 104.375 8.01813 106.52Z" fill="#151226" stroke="#231F20" stroke-width="0.212729" stroke-linejoin="round"/>
</g>
<path d="M35.0998 83.3399C36.4222 83.4836 37.6779 83.7967 38.8619 84.2485L33.4802 82.1695C32.3013 81.7127 31.0405 81.4047 29.7181 81.261C24.8387 80.7271 19.9952 82.5442 16.1152 85.9065C17.9091 86.5994 19.703 87.2924 21.4969 87.9854C25.3769 84.618 30.2204 82.806 35.0998 83.3399Z" stroke="#231F20" stroke-width="0.212729" stroke-linejoin="round"/>
<mask id="mask21_2510_97116" style="mask-type:luminance" maskUnits="userSpaceOnUse" x="27" y="83" width="8" height="5">
<path d="M33.3938 86.5524C33.5168 85.9005 34.0652 85.4231 34.629 85.4847L29.2473 83.4057C28.6835 83.3441 28.1351 83.8215 28.0121 84.4734C29.806 85.1664 31.5999 85.8594 33.3887 86.5524C31.5948 85.8594 29.8009 85.1664 28.0121 84.4734C27.9096 85.033 28.1607 85.5411 28.5913 85.7105L33.973 87.7895C33.5424 87.6201 33.2862 87.1119 33.3938 86.5524Z" fill="white"/>
</mask>
<g mask="url(#mask21_2510_97116)">
<path d="M28.5889 85.7125L33.9706 87.7914C33.6426 87.6631 33.4171 87.3397 33.371 86.9393L27.9893 84.8604C28.0303 85.2556 28.2558 85.5841 28.5889 85.7125Z" fill="#8A8A8A" stroke="#231F20" stroke-width="0.212729" stroke-linejoin="round"/>
<path d="M27.992 84.8601L33.3737 86.9391C33.3584 86.8159 33.3635 86.6875 33.3891 86.5541C33.5121 85.9022 34.0606 85.4248 34.6243 85.4864L29.2427 83.4074C28.6789 83.3459 28.1304 83.8232 28.0074 84.4751C27.9818 84.6086 27.9767 84.7369 27.992 84.8601Z" fill="#858585" stroke="#231F20" stroke-width="0.212729" stroke-linejoin="round"/>
</g>
<path d="M28.0141 84.4742C28.1371 83.8223 28.6855 83.3449 29.2493 83.4065L34.631 85.4854C34.0672 85.4238 33.5188 85.9012 33.3958 86.5531C33.2881 87.1126 33.5444 87.6208 33.9749 87.7902L28.5932 85.7113C28.1627 85.5419 27.9115 85.0337 28.0141 84.4742ZM28.0141 84.4742C29.808 85.1671 31.6019 85.8601 33.3906 86.5531C31.5967 85.8601 29.8028 85.1671 28.0141 84.4742Z" stroke="#231F20" stroke-width="0.212729" stroke-linejoin="round"/>
<mask id="mask22_2510_97116" style="mask-type:luminance" maskUnits="userSpaceOnUse" x="29" y="83" width="6" height="3">
<path d="M34.6229 85.4859C34.6998 85.4962 34.7715 85.5116 34.8382 85.5372L29.4565 83.4583C29.3898 83.4327 29.3181 83.4121 29.2412 83.407C30.8557 84.0281 33.0084 84.8597 34.6229 85.4859Z" fill="white"/>
</mask>
<g mask="url(#mask22_2510_97116)">
<path d="M29.2412 83.407L34.6229 85.4859C34.6998 85.4962 34.7715 85.5116 34.8382 85.5372L29.4565 83.4583C29.3898 83.4327 29.3181 83.4121 29.2412 83.407Z" fill="#858585" stroke="#231F20" stroke-width="0.212729" stroke-linejoin="round"/>
</g>
<path d="M34.6278 85.4859C34.7047 85.4962 34.7764 85.5116 34.8431 85.5372L29.4614 83.4583C29.3947 83.4327 29.323 83.4121 29.2461 83.407C30.8606 84.0281 33.0133 84.8597 34.6278 85.4859Z" stroke="#231F20" stroke-width="0.212729" stroke-linejoin="round"/>
<mask id="mask23_2510_97116" style="mask-type:luminance" maskUnits="userSpaceOnUse" x="23" y="119" width="6" height="2">
<path d="M23.6104 119.49C24.7636 119.937 25.9168 120.379 27.0649 120.825C27.1879 120.173 27.7363 119.696 28.3001 119.757C28.3719 119.763 28.4334 119.778 28.5 119.804C28.2796 119.721 28.1002 119.66 27.885 119.598C28.0233 119.65 28.1617 119.706 28.3001 119.757C28.2335 119.732 28.1617 119.706 28.0951 119.68C28.0233 119.655 27.9567 119.624 27.885 119.598C27.7107 119.547 27.4749 119.485 27.2955 119.449C26.9111 119.367 26.4652 119.306 26.1064 119.285C25.0865 119.229 24.3689 119.326 23.6104 119.49Z" fill="white"/>
</mask>
<g mask="url(#mask23_2510_97116)">
<path d="M21.6688 119.135L27.0505 121.214C27.0351 121.091 27.0403 120.958 27.0659 120.824C27.1889 120.172 27.7373 119.695 28.3011 119.757C28.378 119.767 28.4497 119.782 28.5164 119.808L23.1347 117.729C23.068 117.703 22.9963 117.683 22.9194 117.678C22.3556 117.616 21.8072 118.093 21.6842 118.745C21.6586 118.879 21.6534 119.012 21.6688 119.135Z" fill="#858585" stroke="#231F20" stroke-width="0.212729" stroke-linejoin="round"/>
</g>
<path d="M27.8791 119.596C28.0944 119.658 28.2738 119.72 28.4941 119.802C28.4275 119.776 28.366 119.761 28.2943 119.756C27.7305 119.694 27.182 120.171 27.059 120.823C25.9109 120.377 24.7577 119.935 23.6045 119.489C24.3631 119.324 25.0806 119.227 26.1006 119.283C26.4594 119.304 26.9053 119.365 27.2897 119.448C27.4691 119.484 27.7048 119.545 27.8791 119.596ZM28.2943 119.756C28.1559 119.704 28.0175 119.648 27.8791 119.596M28.2943 119.756C28.2276 119.73 28.1559 119.704 28.0892 119.679C28.0175 119.653 27.9509 119.622 27.8791 119.596" stroke="#231F20" stroke-width="0.212729" stroke-linejoin="round"/>
<mask id="mask24_2510_97116" style="mask-type:luminance" maskUnits="userSpaceOnUse" x="28" y="83" width="8" height="5">
<path d="M28.6074 85.7099L33.9891 87.7888C34.0557 87.8145 34.1275 87.835 34.2044 87.8401C34.7682 87.9017 35.3166 87.4192 35.4396 86.7724C35.5421 86.2078 35.291 85.7047 34.8604 85.5353L29.4787 83.4564C29.9093 83.6258 30.1656 84.1289 30.0579 84.6935C29.94 85.3403 29.3865 85.8228 28.8227 85.7612C28.7458 85.7509 28.6741 85.7355 28.6074 85.7099Z" fill="white"/>
</mask>
<g mask="url(#mask24_2510_97116)">
<path d="M28.6104 85.7091L33.992 87.788C34.0587 87.8137 34.1304 87.8342 34.2073 87.8394C34.7711 87.901 35.3195 87.4184 35.4425 86.7717C35.4682 86.6382 35.4733 86.5047 35.4579 86.3815L30.0762 84.3026C30.0916 84.4258 30.0865 84.5593 30.0608 84.6927C29.943 85.3395 29.3894 85.822 28.8256 85.7604C28.7487 85.7502 28.677 85.7348 28.6104 85.7091Z" fill="#151226" stroke="#231F20" stroke-width="0.212729" stroke-linejoin="round"/>
<path d="M30.0721 84.3094L35.4538 86.3883C35.4128 85.993 35.1873 85.6697 34.8592 85.5413L29.4775 83.4624C29.8056 83.5907 30.0311 83.9141 30.0721 84.3094Z" fill="#151226" stroke="#231F20" stroke-width="0.212729" stroke-linejoin="round"/>
</g>
<path d="M28.6055 85.7116L33.9872 87.7905C34.0538 87.8162 34.1256 87.8367 34.2024 87.8418C34.7662 87.9034 35.3147 87.4209 35.4377 86.7741C35.5402 86.2095 35.289 85.7064 34.8585 85.5371L29.4768 83.4581C29.9073 83.6275 30.1636 84.1306 30.056 84.6952C29.9381 85.342 29.3845 85.8245 28.8207 85.7629C28.7439 85.7526 28.6721 85.7372 28.6055 85.7116Z" stroke="#231F20" stroke-width="0.212729" stroke-linejoin="round"/>
<path d="M29.9778 84.9585C30.2173 84.337 29.9896 83.6701 29.4694 83.469C28.9491 83.268 28.3332 83.6089 28.0938 84.2304C27.8543 84.852 28.0819 85.5188 28.6022 85.7199C29.1224 85.9209 29.7383 85.5801 29.9778 84.9585Z" fill="#151226" stroke="#231F20" stroke-width="0.212729" stroke-linejoin="round"/>
<mask id="mask25_2510_97116" style="mask-type:luminance" maskUnits="userSpaceOnUse" x="30" y="76" width="10" height="4">
<path d="M39.0314 79.4929C37.2375 78.7999 35.4436 78.1069 33.6497 77.4139C32.6554 77.1265 31.62 76.9212 30.5488 76.8031C31.333 77.1008 32.107 77.4037 32.886 77.7065C33.742 78.0402 34.603 78.3687 35.459 78.7024C35.6127 78.764 35.7716 78.8204 35.9254 78.882C36.9966 79.0001 38.0268 79.2054 39.0263 79.4929H39.0314Z" fill="white"/>
</mask>
<g mask="url(#mask25_2510_97116)">
<path d="M27.2061 76.7366L32.5877 78.8155C33.7 78.7385 34.8224 78.7642 35.9449 78.8822C37.0674 79.0003 38.0463 79.2056 39.0458 79.4931L33.6641 77.4141C32.6698 77.1267 31.6344 76.9214 30.5632 76.8033C29.4407 76.6801 28.3183 76.6596 27.2061 76.7366Z" fill="#935C1E" stroke="#231F20" stroke-width="0.212729" stroke-linejoin="round"/>
</g>
<path d="M39.0314 79.494C37.2375 78.801 35.4436 78.108 33.6497 77.415C32.6554 77.1276 31.62 76.9223 30.5488 76.8042C31.333 77.1019 32.107 77.4048 32.886 77.7076C33.742 78.0413 34.603 78.3698 35.459 78.7035C35.6127 78.7651 35.7716 78.8215 35.9254 78.8831C36.9966 79.0012 38.0268 79.2065 39.0263 79.494H39.0314Z" stroke="#231F20" stroke-width="0.212729" stroke-linejoin="round"/>
<path d="M24.8 102.185L30.1765 104.258L26.6041 92.6729L21.2275 90.594L24.8 102.185Z" fill="#909090" stroke="#231F20" stroke-width="0.212729" stroke-linejoin="round"/>
<mask id="mask26_2510_97116" style="mask-type:luminance" maskUnits="userSpaceOnUse" x="24" y="102" width="7" height="4">
<path d="M25.4859 103.164L30.8676 105.243C30.4883 105.094 30.2372 104.714 30.1961 104.263L24.8145 102.184C24.8555 102.636 25.1066 103.015 25.4859 103.164Z" fill="white"/>
</mask>
<g mask="url(#mask26_2510_97116)">
<path d="M25.4878 103.165L30.8695 105.244C30.4954 105.1 30.2442 104.726 30.1981 104.284L24.8164 102.205C24.8625 102.652 25.1137 103.021 25.4878 103.165Z" fill="#8A8A8A" stroke="#231F20" stroke-width="0.212729" stroke-linejoin="round"/>
<path d="M24.8154 102.199L30.1971 104.278C30.1971 104.278 30.1971 104.268 30.1971 104.263L24.8154 102.184C24.8154 102.184 24.8154 102.194 24.8154 102.199Z" fill="#858585" stroke="#231F20" stroke-width="0.212729" stroke-linejoin="round"/>
</g>
<path d="M25.4771 103.165L30.8588 105.244C30.4795 105.095 30.2284 104.715 30.1874 104.264L24.8057 102.185C24.8467 102.637 25.0978 103.016 25.4771 103.165Z" stroke="#231F20" stroke-width="0.212729" stroke-linejoin="round"/>
<path d="M26.9422 101.065L32.3239 103.139L26.8961 92.4875L21.5195 90.4137L26.9422 101.065Z" fill="#9C6221" stroke="#231F20" stroke-width="0.212729" stroke-linejoin="round"/>
<mask id="mask27_2510_97116" style="mask-type:luminance" maskUnits="userSpaceOnUse" x="25" y="101" width="8" height="5">
<path d="M25.4668 103.165L30.8485 105.244C30.8997 105.264 30.951 105.28 31.0023 105.29C31.033 105.295 31.0586 105.3 31.0894 105.305C31.6839 105.372 32.2785 104.9 32.4579 104.207C32.5604 103.811 32.4938 103.432 32.3195 103.144L26.9378 101.065C27.1121 101.353 27.1736 101.732 27.0762 102.128C26.8968 102.816 26.3022 103.288 25.7077 103.226C25.6769 103.226 25.6462 103.216 25.6206 103.211C25.5693 103.201 25.5181 103.185 25.4668 103.165Z" fill="white"/>
</mask>
<g mask="url(#mask27_2510_97116)">
<path d="M25.4658 103.165L30.8475 105.244C30.8988 105.264 30.95 105.28 31.0013 105.29C31.032 105.295 31.0577 105.3 31.0884 105.305C31.683 105.372 32.2775 104.9 32.4569 104.207C32.503 104.027 32.5133 103.848 32.4979 103.683L27.1162 101.604C27.1316 101.774 27.1213 101.948 27.0752 102.128C26.8958 102.816 26.3013 103.288 25.7067 103.226C25.676 103.226 25.6452 103.216 25.6196 103.211C25.5683 103.201 25.5171 103.185 25.4658 103.165Z" fill="#935C1E" stroke="#231F20" stroke-width="0.212729" stroke-linejoin="round"/>
<path d="M27.114 101.599L32.4957 103.678C32.4752 103.478 32.4136 103.298 32.3163 103.144L26.9346 101.066C27.0268 101.22 27.0935 101.404 27.114 101.599Z" fill="#975F1F" stroke="#231F20" stroke-width="0.212729" stroke-linejoin="round"/>
</g>
<path d="M25.4717 103.165L30.8534 105.244C30.9046 105.264 30.9559 105.28 31.0071 105.29C31.0379 105.295 31.0635 105.3 31.0943 105.306C31.6888 105.372 32.2834 104.9 32.4628 104.207C32.5653 103.812 32.4986 103.432 32.3244 103.144L26.9427 101.066C27.1169 101.353 27.1784 101.733 27.0811 102.128C26.9017 102.816 26.3071 103.288 25.7126 103.227C25.6818 103.227 25.6511 103.216 25.6254 103.211C25.5742 103.201 25.5229 103.186 25.4717 103.165Z" stroke="#231F20" stroke-width="0.212729" stroke-linejoin="round"/>
<mask id="mask28_2510_97116" style="mask-type:luminance" maskUnits="userSpaceOnUse" x="21" y="118" width="3" height="2">
<path d="M23.6095 119.487C23.5327 119.456 23.4301 119.42 23.3584 119.39C23.1944 119.328 23.0252 119.261 22.8612 119.2C22.7895 119.169 22.6921 119.133 22.6152 119.107C22.3077 118.989 21.995 118.866 21.6875 118.748C22.3282 118.994 22.9689 119.241 23.6095 119.492V119.487Z" fill="white"/>
</mask>
<g mask="url(#mask28_2510_97116)">
<path d="M21.6669 119.133L27.0485 121.212C27.0332 121.089 27.0383 120.956 27.0639 120.822C27.1869 120.17 27.7354 119.693 28.2992 119.754C28.376 119.765 28.4478 119.78 28.5144 119.806L23.1327 117.727C23.0661 117.701 22.9943 117.681 22.9175 117.676C22.3537 117.614 21.8052 118.091 21.6822 118.743C21.6566 118.877 21.6515 119.01 21.6669 119.133Z" fill="#858585" stroke="#231F20" stroke-width="0.212729" stroke-linejoin="round"/>
</g>
<path d="M23.6017 119.488C23.5248 119.458 23.4223 119.422 23.3506 119.391C23.1866 119.329 23.0174 119.263 22.8534 119.201C22.7817 119.17 22.6843 119.134 22.6074 119.109C22.2999 118.991 21.9872 118.867 21.6797 118.749C22.3204 118.996 22.961 119.242 23.6017 119.494V119.488Z" stroke="#231F20" stroke-width="0.212729" stroke-linejoin="round"/>
<mask id="mask29_2510_97116" style="mask-type:luminance" maskUnits="userSpaceOnUse" x="22" y="117" width="7" height="3">
<path d="M28.4817 119.806C28.4817 119.806 28.492 119.806 28.5022 119.811L23.1205 117.732C23.0539 117.706 22.9822 117.686 22.9053 117.681C24.038 118.117 25.1656 118.553 26.2983 118.99C26.8211 119.19 27.3439 119.395 27.8667 119.595C27.8769 119.595 27.8923 119.606 27.9077 119.606C27.9999 119.631 28.0922 119.662 28.1793 119.693C28.2818 119.729 28.3792 119.765 28.4817 119.801V119.806Z" fill="white"/>
</mask>
<g mask="url(#mask29_2510_97116)">
<path d="M21.6503 119.132L27.0319 121.211C27.0166 121.088 27.0217 120.954 27.0473 120.821C27.1703 120.169 27.7188 119.692 28.2826 119.753C28.3594 119.763 28.4312 119.779 28.4978 119.805L23.1161 117.726C23.0495 117.7 22.9777 117.679 22.9009 117.674C22.3371 117.613 21.7886 118.09 21.6656 118.742C21.64 118.875 21.6349 119.009 21.6503 119.132Z" fill="#858585" stroke="#231F20" stroke-width="0.212729" stroke-linejoin="round"/>
</g>
<path d="M28.4837 119.806C28.4837 119.806 28.4939 119.806 28.5042 119.811L23.1225 117.732C23.0559 117.707 22.9841 117.686 22.9072 117.681C24.0399 118.117 25.1675 118.554 26.3003 118.99C26.8231 119.19 27.3458 119.395 27.8686 119.596C27.8789 119.596 27.8943 119.606 27.9096 119.606C28.0019 119.632 28.0942 119.662 28.1813 119.693C28.2838 119.729 28.3812 119.765 28.4837 119.801V119.806Z" stroke="#231F20" stroke-width="0.212729" stroke-linejoin="round"/>
<path d="M23.6321 119.23C23.8716 118.608 23.6439 117.941 23.1237 117.74C22.6034 117.539 21.9875 117.88 21.7481 118.502C21.5086 119.123 21.7362 119.79 22.2565 119.991C22.7767 120.192 23.3926 119.851 23.6321 119.23Z" fill="#151226" stroke="#231F20" stroke-width="0.212729" stroke-linejoin="round"/>
<mask id="mask30_2510_97116" style="mask-type:luminance" maskUnits="userSpaceOnUse" x="22" y="117" width="8" height="6">
<path d="M22.2598 119.985L27.6415 122.063C27.7081 122.089 27.7798 122.11 27.8567 122.115C28.4205 122.176 28.9689 121.699 29.092 121.047C29.1945 120.482 28.9433 119.979 28.5128 119.81L23.1311 117.731C23.5616 117.9 23.8179 118.404 23.7103 118.968C23.5873 119.62 23.0388 120.097 22.475 120.036C22.3982 120.026 22.3264 120.01 22.2598 119.985Z" fill="white"/>
</mask>
<g mask="url(#mask30_2510_97116)">
<path d="M22.2588 119.985L27.6405 122.064C27.7071 122.09 27.7789 122.11 27.8558 122.115C28.4196 122.177 28.968 121.699 29.091 121.048C29.1166 120.914 29.1217 120.781 29.1064 120.657L23.7247 118.578C23.74 118.702 23.7349 118.835 23.7093 118.969C23.5863 119.621 23.0379 120.098 22.4741 120.036C22.3972 120.026 22.3254 120.011 22.2588 119.985Z" fill="#151226" stroke="#231F20" stroke-width="0.212729" stroke-linejoin="round"/>
<path d="M23.7205 118.584L29.1022 120.663C29.0612 120.267 28.8357 119.944 28.5077 119.816L23.126 117.737C23.454 117.865 23.6795 118.189 23.7205 118.584Z" fill="#151226" stroke="#231F20" stroke-width="0.212729" stroke-linejoin="round"/>
</g>
<path d="M22.2627 119.983L27.6444 122.062C27.711 122.087 27.7828 122.108 27.8597 122.113C28.4235 122.174 28.9719 121.697 29.0949 121.045C29.1974 120.48 28.9462 119.977 28.5157 119.808L23.134 117.729C23.5646 117.899 23.8208 118.402 23.7132 118.966C23.5902 119.618 23.0418 120.096 22.478 120.034C22.4011 120.024 22.3293 120.008 22.2627 119.983Z" stroke="#231F20" stroke-width="0.212729" stroke-linejoin="round"/>
<mask id="mask31_2510_97116" style="mask-type:luminance" maskUnits="userSpaceOnUse" x="37" y="90" width="7" height="4">
<path d="M43.0301 93.6878C42.8968 93.4671 42.9532 93.1437 43.1633 92.964C42.2664 92.6201 41.3694 92.2711 40.4725 91.9272C39.7857 91.6602 39.0988 91.3984 38.412 91.1315L37.7816 90.8903C37.5715 91.0699 37.51 91.3984 37.6484 91.614C39.2629 92.2351 41.4155 93.0667 43.0301 93.693V93.6878Z" fill="white"/>
</mask>
<g mask="url(#mask31_2510_97116)">
<path d="M37.6487 91.608L43.0304 93.687C42.9945 93.6254 42.9689 93.5535 42.9637 93.4816L37.582 91.4027C37.5923 91.4746 37.6128 91.5464 37.6487 91.608Z" fill="#8A8A8A" stroke="#231F20" stroke-width="0.212729" stroke-linejoin="round"/>
<path d="M37.5841 91.402L42.9658 93.4809C42.9453 93.2961 43.017 93.0908 43.1708 92.9625L37.7891 90.8835C37.6405 91.0119 37.5687 91.2172 37.5841 91.402Z" fill="#858585" stroke="#231F20" stroke-width="0.212729" stroke-linejoin="round"/>
</g>
<path d="M43.0291 93.6856C42.8958 93.4649 42.9522 93.1415 43.1623 92.9619C42.2654 92.6179 41.3684 92.2689 40.4715 91.925C39.7847 91.658 39.0979 91.3962 38.4111 91.1293L37.7806 90.8881C37.5705 91.0677 37.509 91.3962 37.6474 91.6118C39.2619 92.2329 41.4146 93.0645 43.0291 93.6908V93.6856Z" stroke="#231F20" stroke-width="0.212729" stroke-linejoin="round"/>
<mask id="mask32_2510_97116" style="mask-type:luminance" maskUnits="userSpaceOnUse" x="37" y="91" width="7" height="3">
<path d="M37.8637 91.7689L43.2454 93.8478C43.1685 93.817 43.1019 93.7657 43.0506 93.6835L37.6689 91.6046C37.7202 91.6867 37.7868 91.7381 37.8637 91.7689Z" fill="white"/>
</mask>
<g mask="url(#mask32_2510_97116)">
<path d="M37.8647 91.769L43.2464 93.8479C43.1695 93.8171 43.1029 93.7658 43.0516 93.6837L37.6699 91.6047C37.7212 91.6869 37.7878 91.7382 37.8647 91.769Z" fill="#8A8A8A" stroke="#231F20" stroke-width="0.212729" stroke-linejoin="round"/>
</g>
<path d="M37.8549 91.77L43.2366 93.8489C43.1597 93.8181 43.0931 93.7668 43.0419 93.6846L37.6602 91.6057C37.7114 91.6878 37.778 91.7392 37.8549 91.77Z" stroke="#231F20" stroke-width="0.212729" stroke-linejoin="round"/>
<path d="M37.7939 90.8811L43.1756 92.96L44.0726 92.1849L38.696 90.106L37.7939 90.8811Z" fill="#818181" stroke="#231F20" stroke-width="0.212729" stroke-linejoin="round"/>
<mask id="mask33_2510_97116" style="mask-type:luminance" maskUnits="userSpaceOnUse" x="37" y="91" width="7" height="3">
<path d="M37.8457 91.7687L43.2274 93.8476C43.2582 93.8579 43.2889 93.8681 43.3197 93.8681C43.4324 93.8784 43.5554 93.8425 43.6631 93.7501L38.2814 91.6711C38.1789 91.7635 38.0507 91.7995 37.938 91.7892C37.9072 91.7892 37.8765 91.7789 37.8457 91.7687Z" fill="white"/>
</mask>
<g mask="url(#mask33_2510_97116)">
<path d="M37.8467 91.7678L43.2284 93.8467C43.2591 93.857 43.2899 93.8673 43.3206 93.8673C43.4334 93.8775 43.5564 93.8416 43.664 93.7492L38.2823 91.6703C38.1798 91.7627 38.0517 91.7986 37.9389 91.7883C37.9082 91.7883 37.8774 91.7781 37.8467 91.7678Z" fill="#907968" stroke="#231F20" stroke-width="0.212729" stroke-linejoin="round"/>
</g>
<path d="M37.8447 91.7697L43.2264 93.8486C43.2572 93.8588 43.2879 93.8691 43.3187 93.8691C43.4314 93.8794 43.5544 93.8434 43.6621 93.751L38.2804 91.6721C38.1779 91.7645 38.0497 91.8004 37.937 91.7902C37.9062 91.7902 37.8755 91.7799 37.8447 91.7697Z" stroke="#231F20" stroke-width="0.212729" stroke-linejoin="round"/>
<mask id="mask34_2510_97116" style="mask-type:luminance" maskUnits="userSpaceOnUse" x="38" y="89" width="7" height="4">
<path d="M44.3948 92.0665C42.6009 91.3735 40.807 90.6805 39.0131 89.9875C38.9003 89.9773 38.7773 90.0132 38.6748 90.1005L44.0565 92.1794C44.159 92.087 44.282 92.0511 44.3948 92.0665Z" fill="white"/>
</mask>
<g mask="url(#mask34_2510_97116)">
<path d="M38.6729 90.1068L44.0545 92.1858C44.1571 92.0934 44.2801 92.0574 44.3928 92.0728C44.4236 92.0728 44.4595 92.0831 44.4902 92.0933L39.1085 90.0144C39.0778 90.0042 39.047 89.9939 39.0111 89.9939C38.8984 89.9836 38.7754 90.0196 38.6729 90.1068Z" fill="#858585" stroke="#231F20" stroke-width="0.212729" stroke-linejoin="round"/>
</g>
<path d="M44.4045 92.0665C42.6106 91.3735 40.8167 90.6805 39.0229 89.9875C38.9101 89.9773 38.7871 90.0132 38.6846 90.1005L44.0663 92.1794C44.1688 92.087 44.2918 92.0511 44.4045 92.0665Z" stroke="#231F20" stroke-width="0.212729" stroke-linejoin="round"/>
<mask id="mask35_2510_97116" style="mask-type:luminance" maskUnits="userSpaceOnUse" x="39" y="89" width="6" height="4">
<path d="M44.4198 92.0692C44.4505 92.0692 44.4864 92.0794 44.5172 92.0897L39.1355 90.0108C39.1047 90.0005 39.074 89.9902 39.0381 89.9902C39.935 90.3342 40.832 90.6832 41.7289 91.0271C42.1953 91.2068 42.6566 91.3864 43.123 91.5661C43.3229 91.6431 43.5895 91.7458 43.7894 91.8228C43.979 91.8946 44.2199 92.0178 44.4198 92.064V92.0692Z" fill="white"/>
</mask>
<g mask="url(#mask35_2510_97116)">
<path d="M38.6934 90.1061L44.0751 92.185C44.1776 92.0926 44.3006 92.0567 44.4133 92.0721C44.4441 92.0721 44.48 92.0824 44.5107 92.0926L39.129 90.0137C39.0983 90.0034 39.0675 89.9932 39.0316 89.9932C38.9189 89.9829 38.7959 90.0188 38.6934 90.1061Z" fill="#858585" stroke="#231F20" stroke-width="0.212729" stroke-linejoin="round"/>
</g>
<path d="M44.409 92.0676C44.4398 92.0676 44.4757 92.0778 44.5064 92.0881L39.1247 90.0092C39.094 89.9989 39.0632 89.9886 39.0273 89.9886C39.9243 90.3326 40.8212 90.6816 41.7182 91.0255C42.1846 91.2052 42.6459 91.3849 43.1123 91.5645C43.3122 91.6415 43.5787 91.7442 43.7786 91.8212C43.9683 91.893 44.2091 92.0162 44.409 92.0624V92.0676Z" stroke="#231F20" stroke-width="0.212729" stroke-linejoin="round"/>
<path d="M38.2861 91.6759L43.6627 93.7548L44.5597 92.9797L39.178 90.9008L38.2861 91.6759Z" fill="#8D7766" stroke="#231F20" stroke-width="0.212729" stroke-linejoin="round"/>
<mask id="mask36_2510_97116" style="mask-type:luminance" maskUnits="userSpaceOnUse" x="39" y="90" width="6" height="3">
<path d="M44.493 92.09L39.1113 90.0111C39.1882 90.0419 39.2548 90.0932 39.301 90.1702C39.4394 90.391 39.3779 90.7195 39.1677 90.8991L44.5494 92.9781C44.7595 92.7984 44.8211 92.4699 44.6827 92.2492C44.6365 92.1722 44.5699 92.1157 44.493 92.09Z" fill="white"/>
</mask>
<g mask="url(#mask36_2510_97116)">
<path d="M39.1602 90.898L44.5419 92.9769C44.6905 92.8486 44.7674 92.6432 44.7469 92.4584L39.3652 90.3795C39.3857 90.5643 39.3088 90.7696 39.1602 90.898Z" fill="#907968" stroke="#231F20" stroke-width="0.212729" stroke-linejoin="round"/>
<path d="M39.3708 90.3797L44.7525 92.4586C44.7422 92.3817 44.7217 92.3098 44.6807 92.2482C44.6346 92.1712 44.568 92.1147 44.4911 92.0891L39.1094 90.0101C39.1863 90.0409 39.2529 90.0923 39.299 90.1693C39.34 90.2309 39.3605 90.3027 39.3708 90.3797Z" fill="#937D6B" stroke="#231F20" stroke-width="0.212729" stroke-linejoin="round"/>
</g>
<path d="M44.4969 92.0924L39.1152 90.0134C39.1921 90.0442 39.2587 90.0956 39.3049 90.1726C39.4433 90.3933 39.3818 90.7218 39.1716 90.9015L44.5533 92.9804C44.7635 92.8007 44.825 92.4722 44.6866 92.2515C44.6404 92.1745 44.5738 92.118 44.4969 92.0924Z" stroke="#231F20" stroke-width="0.212729" stroke-linejoin="round"/>
<mask id="mask37_2510_97116" style="mask-type:luminance" maskUnits="userSpaceOnUse" x="33" y="114" width="6" height="3">
<path d="M33.4844 114.201C35.0681 114.812 36.6519 115.422 38.2356 116.038C36.6519 115.428 35.0681 114.817 33.4844 114.201Z" fill="white"/>
</mask>
<g mask="url(#mask37_2510_97116)">
<path d="M33.2826 114.719L38.6643 116.798C38.6438 116.613 38.7155 116.408 38.8693 116.274C38.9769 116.182 39.0999 116.146 39.2127 116.161C39.2434 116.161 39.2793 116.172 39.3101 116.187L33.9284 114.108C33.8976 114.098 33.8669 114.088 33.831 114.083C33.7182 114.072 33.5952 114.108 33.4876 114.195C33.3389 114.329 33.2621 114.529 33.2826 114.719Z" fill="#858585" stroke="#231F20" stroke-width="0.212729" stroke-linejoin="round"/>
</g>
<path d="M33.4824 114.201C35.0662 114.812 36.6499 115.423 38.2337 116.039C36.6499 115.428 35.0662 114.817 33.4824 114.201Z" stroke="#231F20" stroke-width="0.212729" stroke-linejoin="round"/>
<mask id="mask38_2510_97116" style="mask-type:luminance" maskUnits="userSpaceOnUse" x="33" y="114" width="7" height="4">
<path d="M38.8459 116.281C38.9536 116.189 39.0766 116.153 39.1893 116.168C37.3954 115.475 35.6015 114.782 33.8076 114.089C33.6949 114.079 33.5719 114.115 33.4642 114.202C35.2581 114.895 37.052 115.588 38.8408 116.281C37.0469 115.588 35.253 114.895 33.4642 114.202C33.2541 114.387 33.1926 114.71 33.331 114.931L38.7127 117.01C38.5794 116.789 38.6358 116.466 38.8459 116.281Z" fill="white"/>
</mask>
<g mask="url(#mask38_2510_97116)">
<path d="M33.3274 114.933L38.7091 117.012C38.6732 116.95 38.6476 116.878 38.6424 116.807L33.2607 114.728C33.271 114.8 33.2915 114.871 33.3274 114.933Z" fill="#8A8A8A" stroke="#231F20" stroke-width="0.212729" stroke-linejoin="round"/>
<path d="M33.2582 114.722L38.6398 116.801C38.6193 116.616 38.6911 116.411 38.8449 116.277C38.9525 116.185 39.0755 116.149 39.1883 116.164C39.219 116.164 39.2549 116.175 39.2856 116.19L33.904 114.111C33.8732 114.101 33.8424 114.091 33.8066 114.086C33.6938 114.075 33.5708 114.111 33.4632 114.198C33.3145 114.332 33.2376 114.532 33.2582 114.722Z" fill="#858585" stroke="#231F20" stroke-width="0.212729" stroke-linejoin="round"/>
</g>
<path d="M33.472 114.203C33.5797 114.115 33.7027 114.079 33.8154 114.09C35.6093 114.783 37.4032 115.476 39.1971 116.169C39.0844 116.153 38.9614 116.189 38.8537 116.281C38.6436 116.466 38.5872 116.79 38.7205 117.01L33.3388 114.931C33.2004 114.711 33.2619 114.387 33.472 114.203ZM33.472 114.203C35.2659 114.896 37.0598 115.588 38.8486 116.281C37.0547 115.588 35.2608 114.896 33.472 114.203Z" stroke="#231F20" stroke-width="0.212729" stroke-linejoin="round"/>
<mask id="mask39_2510_97116" style="mask-type:luminance" maskUnits="userSpaceOnUse" x="33" y="114" width="7" height="3">
<path d="M39.1922 116.163C39.223 116.163 39.2589 116.173 39.2896 116.189L33.9079 114.11C33.8772 114.1 33.8464 114.089 33.8105 114.084C35.6044 114.777 37.3983 115.47 39.1922 116.163Z" fill="white"/>
</mask>
<g mask="url(#mask39_2510_97116)">
<path d="M33.266 114.722L38.6477 116.801C38.6272 116.616 38.6989 116.411 38.8527 116.277C38.9603 116.185 39.0833 116.149 39.1961 116.164C39.2268 116.164 39.2627 116.175 39.2935 116.19L33.9118 114.111C33.881 114.101 33.8503 114.091 33.8144 114.086C33.7016 114.075 33.5786 114.111 33.471 114.198C33.3223 114.332 33.2455 114.532 33.266 114.722Z" fill="#858585" stroke="#231F20" stroke-width="0.212729" stroke-linejoin="round"/>
</g>
<path d="M39.1922 116.162C39.223 116.162 39.2589 116.172 39.2896 116.188L33.9079 114.109C33.8772 114.098 33.8464 114.088 33.8105 114.083C35.6044 114.776 37.3983 115.469 39.1922 116.162Z" stroke="#231F20" stroke-width="0.212729" stroke-linejoin="round"/>
<mask id="mask40_2510_97116" style="mask-type:luminance" maskUnits="userSpaceOnUse" x="33" y="114" width="7" height="3">
<path d="M39.2811 116.189L33.8994 114.11C33.9763 114.141 34.0429 114.192 34.0891 114.269L39.4708 116.348C39.4195 116.271 39.3529 116.215 39.2811 116.189Z" fill="white"/>
</mask>
<g mask="url(#mask40_2510_97116)">
<path d="M34.1008 114.27L39.4825 116.349C39.4312 116.272 39.3646 116.215 39.2928 116.189L33.9111 114.11C33.988 114.141 34.0546 114.193 34.1008 114.27Z" fill="#937D6B" stroke="#231F20" stroke-width="0.212729" stroke-linejoin="round"/>
</g>
<path d="M39.2889 116.189L33.9072 114.11C33.9841 114.14 34.0507 114.192 34.0969 114.269L39.4786 116.348C39.4273 116.271 39.3607 116.214 39.2889 116.189Z" stroke="#231F20" stroke-width="0.212729" stroke-linejoin="round"/>
<path d="M33.9171 115.863L39.2988 117.942L38.7196 117.008L33.3379 114.929L33.9171 115.863Z" fill="#8F8F8F" stroke="#231F20" stroke-width="0.212729" stroke-linejoin="round"/>
<mask id="mask41_2510_97116" style="mask-type:luminance" maskUnits="userSpaceOnUse" x="33" y="115" width="7" height="3">
<path d="M39.3363 117.991C39.3363 117.991 39.3158 117.96 39.3055 117.944L33.9238 115.865C33.9238 115.865 33.9443 115.896 33.9546 115.912C35.7485 116.605 37.5424 117.298 39.3363 117.991Z" fill="white"/>
</mask>
<g mask="url(#mask41_2510_97116)">
<path d="M34.1135 116.029L39.4952 118.108C39.4183 118.077 39.3517 118.026 39.3055 117.944L33.9238 115.865C33.97 115.947 34.0366 115.998 34.1135 116.029Z" fill="#8A8A8A" stroke="#231F20" stroke-width="0.212729" stroke-linejoin="round"/>
</g>
<path d="M39.3324 117.991C39.3324 117.991 39.3119 117.96 39.3016 117.945L33.9199 115.866C33.9199 115.866 33.9404 115.896 33.9507 115.912C35.7446 116.605 37.5385 117.298 39.3324 117.991Z" stroke="#231F20" stroke-width="0.212729" stroke-linejoin="round"/>
<mask id="mask42_2510_97116" style="mask-type:luminance" maskUnits="userSpaceOnUse" x="33" y="115" width="7" height="4">
<path d="M39.3338 117.991C39.3338 117.991 39.2723 117.966 39.2416 117.955C39.2262 117.95 39.2108 117.945 39.1955 117.935C39.1135 117.904 39.0314 117.873 38.9443 117.837C38.8162 117.786 38.688 117.74 38.5599 117.688C37.0223 117.093 35.4898 116.503 33.9521 115.907C33.9983 115.964 34.0495 116.005 34.111 116.025L39.4927 118.104C39.4312 118.079 39.38 118.043 39.3338 117.986V117.991Z" fill="white"/>
</mask>
<g mask="url(#mask42_2510_97116)">
<path d="M34.1076 116.029L39.4893 118.107C39.4124 118.077 39.3458 118.025 39.2997 117.943L33.918 115.864C33.9641 115.946 34.0307 115.998 34.1076 116.029Z" fill="#8A8A8A" stroke="#231F20" stroke-width="0.212729" stroke-linejoin="round"/>
</g>
<path d="M39.3348 117.99C39.3348 117.99 39.2733 117.964 39.2426 117.954C39.2272 117.949 39.2118 117.943 39.1964 117.933C39.1144 117.902 39.0324 117.872 38.9453 117.836C38.8172 117.784 38.689 117.738 38.5609 117.687C37.0233 117.091 35.4908 116.501 33.9531 115.906C33.9993 115.962 34.0505 116.003 34.112 116.024L39.4937 118.103C39.4322 118.077 39.3809 118.041 39.3348 117.985V117.99Z" stroke="#231F20" stroke-width="0.212729" stroke-linejoin="round"/>
<path d="M34.6817 115.207L40.0583 117.286L39.4842 116.347L34.1025 114.268L34.6817 115.207Z" fill="#98806E" stroke="#231F20" stroke-width="0.212729" stroke-linejoin="round"/>
<mask id="mask43_2510_97116" style="mask-type:luminance" maskUnits="userSpaceOnUse" x="34" y="115" width="6" height="4">
<path d="M34.1084 116.029L39.4901 118.108C39.5208 118.118 39.5516 118.128 39.5823 118.128C39.7002 118.138 39.8181 118.102 39.9258 118.01L34.5441 115.931C34.4416 116.024 34.3185 116.059 34.2007 116.049C34.1699 116.049 34.1392 116.039 34.1084 116.029Z" fill="white"/>
</mask>
<g mask="url(#mask43_2510_97116)">
<path d="M34.1104 116.029L39.492 118.108C39.5228 118.118 39.5536 118.129 39.5843 118.129C39.7022 118.139 39.8201 118.103 39.9277 118.01L34.546 115.932C34.4435 116.024 34.3205 116.06 34.2026 116.05C34.1719 116.05 34.1411 116.039 34.1104 116.029Z" fill="#907968" stroke="#231F20" stroke-width="0.212729" stroke-linejoin="round"/>
</g>
<path d="M34.1094 116.029L39.4911 118.108C39.5218 118.118 39.5526 118.129 39.5833 118.129C39.7012 118.139 39.8191 118.103 39.9267 118.01L34.545 115.932C34.4425 116.024 34.3195 116.06 34.2016 116.05C34.1709 116.05 34.1401 116.039 34.1094 116.029Z" stroke="#231F20" stroke-width="0.212729" stroke-linejoin="round"/>
<mask id="mask44_2510_97116" style="mask-type:luminance" maskUnits="userSpaceOnUse" x="34" y="115" width="7" height="4">
<path d="M34.543 115.934L39.9247 118.013C40.1348 117.833 40.1963 117.505 40.0579 117.289L34.6762 115.21C34.8146 115.431 34.7531 115.754 34.543 115.934Z" fill="white"/>
</mask>
<g mask="url(#mask44_2510_97116)">
<path d="M34.5439 115.935L39.9256 118.014C40.0743 117.885 40.1512 117.68 40.1307 117.495L34.749 115.416C34.7695 115.601 34.6926 115.806 34.5439 115.935Z" fill="#907968" stroke="#231F20" stroke-width="0.212729" stroke-linejoin="round"/>
<path d="M34.7495 115.422L40.1312 117.501C40.1209 117.424 40.1004 117.352 40.0594 117.29L34.6777 115.211C34.7187 115.273 34.7392 115.345 34.7495 115.422Z" fill="#937D6B" stroke="#231F20" stroke-width="0.212729" stroke-linejoin="round"/>
</g>
<path d="M34.5449 115.932L39.9266 118.011C40.1368 117.831 40.1983 117.503 40.0599 117.287L34.6782 115.208C34.8166 115.429 34.7551 115.752 34.5449 115.932Z" stroke="#231F20" stroke-width="0.212729" stroke-linejoin="round"/>
<mask id="mask45_2510_97116" style="mask-type:luminance" maskUnits="userSpaceOnUse" x="39" y="102" width="8" height="4">
<path d="M46.2419 104.238C46.3188 104.248 46.3906 104.264 46.4572 104.289L41.0755 102.211C41.0089 102.185 40.9371 102.164 40.8602 102.159C42.6541 102.852 44.448 103.545 46.2368 104.238C44.4429 103.545 42.649 102.852 40.8602 102.159C40.3016 102.098 39.748 102.58 39.625 103.227C41.4189 103.92 43.2128 104.613 45.0067 105.306C45.1246 104.659 45.6833 104.177 46.2419 104.238Z" fill="white"/>
</mask>
<g mask="url(#mask45_2510_97116)">
<path d="M39.5995 103.612L44.9812 105.691C44.9658 105.568 44.9709 105.44 44.9965 105.306C45.1144 104.659 45.6731 104.177 46.2318 104.238C46.3087 104.249 46.3804 104.264 46.447 104.29L41.0653 102.211C40.9987 102.185 40.927 102.165 40.8501 102.159C40.2914 102.098 39.7379 102.58 39.6148 103.227C39.5892 103.361 39.5841 103.489 39.5995 103.612Z" fill="#858585" stroke="#231F20" stroke-width="0.212729" stroke-linejoin="round"/>
</g>
<path d="M40.8514 102.159C40.9283 102.164 41.0001 102.184 41.0667 102.21L46.4484 104.289C46.3818 104.263 46.31 104.248 46.2331 104.238C45.6745 104.176 45.1158 104.659 44.9979 105.305C43.204 104.612 41.4101 103.919 39.6162 103.226C39.7392 102.58 40.2928 102.097 40.8514 102.159ZM40.8514 102.159C42.6453 102.852 44.4392 103.545 46.228 104.238C44.4341 103.545 42.6402 102.852 40.8514 102.159Z" stroke="#231F20" stroke-width="0.212729" stroke-linejoin="round"/>
<mask id="mask46_2510_97116" style="mask-type:luminance" maskUnits="userSpaceOnUse" x="40" y="102" width="8" height="5">
<path d="M40.2002 104.462L45.5819 106.541C45.6485 106.567 45.7203 106.588 45.7972 106.593C46.361 106.654 46.9145 106.177 47.0324 105.525C47.1349 104.965 46.8837 104.457 46.4481 104.288L41.0664 102.209C41.5021 102.378 41.7532 102.887 41.6507 103.446C41.5277 104.098 40.9741 104.575 40.4155 104.514C40.3386 104.503 40.2668 104.488 40.2002 104.462Z" fill="white"/>
</mask>
<g mask="url(#mask46_2510_97116)">
<path d="M40.2021 104.462L45.5838 106.54C45.6505 106.566 45.7222 106.587 45.7991 106.592C46.3629 106.653 46.9165 106.176 47.0343 105.524C47.06 105.391 47.0651 105.262 47.0497 105.139L41.668 103.06C41.6834 103.183 41.6783 103.312 41.6526 103.445C41.5296 104.097 40.9761 104.574 40.4174 104.513C40.3405 104.503 40.2688 104.487 40.2021 104.462Z" fill="#151226" stroke="#231F20" stroke-width="0.212729" stroke-linejoin="round"/>
<path d="M41.6749 103.066L47.0566 105.145C47.0156 104.75 46.79 104.421 46.4569 104.293L41.0752 102.214C41.4083 102.342 41.6339 102.671 41.6749 103.066Z" fill="#151226" stroke="#231F20" stroke-width="0.212729" stroke-linejoin="round"/>
</g>
<path d="M40.2021 104.463L45.5838 106.542C45.6505 106.568 45.7222 106.588 45.7991 106.593C46.3629 106.655 46.9165 106.177 47.0343 105.525C47.1368 104.966 46.8857 104.458 46.45 104.288L41.0683 102.209C41.504 102.379 41.7552 102.887 41.6526 103.447C41.5296 104.098 40.9761 104.576 40.4174 104.514C40.3405 104.504 40.2688 104.489 40.2021 104.463Z" stroke="#231F20" stroke-width="0.212729" stroke-linejoin="round"/>
<mask id="mask47_2510_97116" style="mask-type:luminance" maskUnits="userSpaceOnUse" x="18" y="82" width="32" height="43">
<path d="M18.3965 121.278L23.7782 123.357C24.957 123.814 26.2179 124.122 27.5402 124.265C37.2837 125.333 46.8785 117.033 48.9696 105.735C50.7789 95.9664 46.3916 87.1528 38.8777 84.2474L33.496 82.1685C41.0099 85.0738 45.3972 93.8874 43.5879 103.656C41.4968 114.954 31.9071 123.254 22.1585 122.187C20.8362 122.043 19.5805 121.73 18.3965 121.278Z" fill="white"/>
</mask>
<g mask="url(#mask47_2510_97116)">
<path d="M18.3975 121.278L23.7792 123.357C24.958 123.814 26.2189 124.122 27.5412 124.265C37.2846 125.333 46.8794 117.033 48.9706 105.735C49.4012 103.415 49.478 101.146 49.2525 99.0001L43.8708 96.9211C44.1015 99.0668 44.0195 101.336 43.5889 103.656C41.4977 114.954 31.9081 123.254 22.1595 122.187C20.8372 122.043 19.5814 121.73 18.3975 121.278Z" fill="#858585" stroke="#231F20" stroke-width="0.212729" stroke-linejoin="round"/>
<path d="M43.869 96.9264L49.2507 99.0053C48.5177 92.1166 44.607 86.4702 38.8768 84.2526L33.4951 82.1737C39.2253 84.3861 43.1309 90.0377 43.869 96.9264Z" fill="#8A8A8A" stroke="#231F20" stroke-width="0.212729" stroke-linejoin="round"/>
</g>
<path d="M18.3945 121.276L23.7762 123.355C24.9551 123.812 26.2159 124.12 27.5383 124.263C37.2817 125.331 46.8765 117.031 48.9677 105.733C50.777 95.9642 46.3896 87.1506 38.8757 84.2452L33.494 82.1663C41.0079 85.0716 45.3953 93.8852 43.586 103.654C41.4948 114.952 31.9052 123.252 22.1566 122.184C20.8342 122.041 19.5785 121.727 18.3945 121.276Z" stroke="#231F20" stroke-width="0.212729" stroke-linejoin="round"/>
<path d="M30.5514 76.8058C31.6226 76.9239 32.6529 77.1292 33.6523 77.4166C43.6982 80.3169 49.7359 91.5533 47.4192 104.073C44.8719 117.83 33.191 127.932 21.3308 126.633C9.46544 125.335 1.91569 113.123 4.46302 99.366C6.76946 86.9078 16.559 77.4474 27.1994 76.7339C28.3116 76.6569 29.4341 76.6826 30.5566 76.8007L30.5514 76.8058ZM22.1509 122.183C31.8943 123.251 41.4891 114.95 43.5803 103.652C45.6714 92.349 39.4697 82.3239 29.7262 81.2562C19.9828 80.1885 10.388 88.4889 8.29684 99.7869C6.20567 111.085 12.4074 121.115 22.1509 122.183Z" fill="#FFC40D" stroke="#231F20" stroke-width="0.212729" stroke-linejoin="round"/>
<path d="M17.4561 87.6257C17.3433 87.6155 17.2203 87.6514 17.1127 87.7387C16.9025 87.9235 16.841 88.252 16.9794 88.4676L17.5586 89.4018C17.6252 89.5147 17.7277 89.5763 17.8456 89.5866C17.9635 89.5969 18.0814 89.5609 18.1839 89.4685C18.394 89.2889 18.4555 88.9604 18.3171 88.7448L17.738 87.8054C17.6713 87.6976 17.5637 87.636 17.4509 87.6206L17.4561 87.6257Z" fill="#EEAB99" stroke="black" stroke-width="0.212729" stroke-linecap="round" stroke-linejoin="round"/>
<path d="M24.8623 74.2543L30.2389 76.3332L32.9707 76.6309L27.5942 74.5571L24.8623 74.2543Z" fill="#151226"/>
<path d="M27.5986 74.557L32.9752 76.6308L39.4281 77.3392L34.0464 75.2603L27.5986 74.557Z" fill="#151226" stroke="#231F20" stroke-width="0.212729" stroke-linejoin="round"/>
<path d="M33.6445 77.4173L39.0262 79.4962L39.426 77.3403L34.0443 75.2614L33.6445 77.4173Z" fill="#B24D31" stroke="black" stroke-width="0.212729" stroke-linecap="round" stroke-linejoin="round"/>
<path d="M27.5973 74.5573L27.1924 76.7388C28.3046 76.6619 29.4271 76.6875 30.5495 76.8056C31.672 76.9236 32.651 77.129 33.6504 77.4164L34.0502 75.2605L27.6024 74.5521L27.5973 74.5573Z" fill="#F16736" stroke="black" stroke-width="0.212729" stroke-linecap="round" stroke-linejoin="round"/>
<path d="M34.0469 75.2615L39.4286 77.3404L42.1604 77.6381L36.7787 75.5643L34.0469 75.2615Z" fill="#151226"/>
<path d="M36.7773 75.5628L42.159 77.6366L42.7126 74.6337L37.3309 72.5548L36.7773 75.5628Z" fill="#C2960D" stroke="#231F20" stroke-width="0.212729" stroke-linejoin="round"/>
<path d="M25.4159 71.252L24.8623 74.2548L27.5942 74.5577L34.0419 75.2609L36.7738 75.5638L37.3273 72.5558L25.4159 71.252Z" fill="#FFC40D" stroke="#231F20" stroke-width="0.212729" stroke-linejoin="round"/>
<path d="M39.0256 89.9878C38.9129 89.9775 38.7899 90.0135 38.6874 90.1007L37.7904 90.8758C37.5803 91.0555 37.5188 91.384 37.6571 91.5996C37.7289 91.7125 37.8314 91.7741 37.9442 91.7844C38.0569 91.7947 38.1799 91.7587 38.2876 91.6663L39.1794 90.8912C39.3895 90.7116 39.451 90.3831 39.3127 90.1623C39.246 90.0545 39.1384 89.9929 39.0256 89.9775V89.9878Z" fill="#EEAB99" stroke="black" stroke-width="0.212729" stroke-linecap="round" stroke-linejoin="round"/>
<path d="M33.8164 114.083C33.7037 114.073 33.5807 114.109 33.473 114.196C33.2629 114.381 33.2014 114.704 33.3398 114.925L33.9189 115.859C33.9856 115.972 34.0881 116.034 34.2008 116.044C34.3136 116.054 34.4366 116.018 34.5442 115.926C34.7544 115.746 34.8159 115.418 34.6775 115.202L34.0983 114.263C34.0317 114.155 33.9241 114.093 33.8113 114.078L33.8164 114.083Z" fill="#EEAB99" stroke="black" stroke-width="0.212729" stroke-linecap="round" stroke-linejoin="round"/>
<path d="M43.5786 103.657C41.4875 114.955 31.8978 123.256 22.1492 122.188C12.4058 121.12 6.20404 111.095 8.29522 99.7919C10.3864 88.4887 19.9812 80.1935 29.7246 81.2612C39.468 82.3289 45.6698 92.354 43.5786 103.657ZM21.2267 90.5933L24.7991 102.184C24.8452 102.692 25.1579 103.113 25.6243 103.211C25.655 103.216 25.6807 103.221 25.7114 103.226C26.306 103.293 26.9005 102.82 27.0799 102.128C27.1824 101.732 27.1158 101.352 26.9415 101.065L21.5188 90.4136C21.4932 90.3623 21.4573 90.3418 21.4163 90.3366C21.3087 90.3264 21.1857 90.4496 21.2267 90.5984M40.4162 104.52C40.98 104.581 41.5336 104.104 41.6515 103.452C41.7694 102.8 41.4106 102.225 40.8519 102.163C40.2932 102.102 39.7397 102.584 39.6167 103.231C39.4937 103.878 39.8576 104.458 40.4162 104.52ZM10.8682 101.286C11.432 101.347 11.9804 100.87 12.1034 100.218C12.2264 99.5661 11.8676 98.9911 11.3038 98.9296C10.74 98.868 10.1916 99.3505 10.0686 99.9972C9.9456 100.644 10.3044 101.224 10.8682 101.286ZM29.2479 83.412C28.6842 83.3504 28.1357 83.8278 28.0127 84.4797C27.8897 85.1316 28.2485 85.7065 28.8123 85.7681C29.3761 85.8297 29.9245 85.3472 30.0475 84.7004C30.1705 84.0537 29.8117 83.4736 29.2479 83.412ZM22.467 120.042C23.0308 120.104 23.5792 119.626 23.7022 118.975C23.8252 118.323 23.4665 117.748 22.9027 117.686C22.3389 117.624 21.7905 118.102 21.6674 118.754C21.5444 119.406 21.9032 119.981 22.467 120.042ZM37.6485 91.6148C37.7203 91.7277 37.8228 91.7893 37.9355 91.7996C38.0483 91.8099 38.1713 91.7739 38.2789 91.6815L39.1708 90.9064C39.3809 90.7268 39.4424 90.3982 39.304 90.1775C39.2374 90.0697 39.1298 90.0081 39.017 89.9927C38.9042 89.9773 38.7812 90.0184 38.6787 90.1057L37.7818 90.8808C37.5716 91.0604 37.5101 91.3889 37.6485 91.6045M16.9623 88.4682L17.5415 89.4024C17.6081 89.5153 17.7106 89.5769 17.8285 89.5872C17.9464 89.5975 18.0643 89.5615 18.1668 89.4691C18.3769 89.2895 18.4384 88.961 18.3 88.7454L17.7209 87.806C17.6542 87.6982 17.5466 87.6366 17.4338 87.6212C17.3211 87.6058 17.1981 87.6469 17.0904 87.7341C16.8803 87.9189 16.8188 88.2475 16.9572 88.463M12.3238 113.492C12.3956 113.605 12.4981 113.667 12.6108 113.677C12.7236 113.687 12.8466 113.651 12.9542 113.559L13.846 112.784C14.0562 112.599 14.1177 112.276 13.9793 112.055C13.9127 111.947 13.805 111.886 13.6923 111.87C13.5795 111.855 13.4565 111.896 13.354 111.983L12.4571 112.758C12.2469 112.938 12.1854 113.266 12.3238 113.482M33.3227 114.909L33.9018 115.843C33.9685 115.956 34.071 116.018 34.1837 116.028C34.2965 116.038 34.4195 116.002 34.5271 115.91C34.7373 115.73 34.7988 115.402 34.6604 115.186L34.0812 114.247C34.0146 114.139 33.907 114.077 33.7942 114.062C33.6814 114.047 33.5584 114.088 33.4508 114.175C33.2407 114.36 33.1791 114.683 33.3175 114.904" fill="#F7F7F7"/>
<path d="M21.2267 90.5933L24.7991 102.184C24.8452 102.692 25.1579 103.113 25.6243 103.211C25.655 103.216 25.6807 103.221 25.7114 103.226C26.306 103.293 26.9005 102.82 27.0799 102.128C27.1824 101.732 27.1158 101.352 26.9415 101.065L21.5188 90.4136C21.4932 90.3623 21.4573 90.3418 21.4163 90.3366C21.3087 90.3264 21.1857 90.4496 21.2267 90.5984M37.6485 91.6148C37.7203 91.7277 37.8228 91.7893 37.9355 91.7996C38.0483 91.8099 38.1713 91.7739 38.2789 91.6815L39.1708 90.9064C39.3809 90.7268 39.4424 90.3982 39.304 90.1775C39.2374 90.0697 39.1298 90.0081 39.017 89.9927C38.9042 89.9773 38.7812 90.0184 38.6787 90.1057L37.7818 90.8808C37.5716 91.0604 37.5101 91.3889 37.6485 91.6045M16.9623 88.4682L17.5415 89.4024C17.6081 89.5153 17.7106 89.5769 17.8285 89.5872C17.9464 89.5975 18.0643 89.5615 18.1668 89.4691C18.3769 89.2895 18.4384 88.961 18.3 88.7454L17.7209 87.806C17.6542 87.6982 17.5466 87.6366 17.4338 87.6212C17.3211 87.6058 17.1981 87.6469 17.0904 87.7341C16.8803 87.9189 16.8188 88.2475 16.9572 88.463M12.3238 113.492C12.3956 113.605 12.4981 113.667 12.6108 113.677C12.7236 113.687 12.8466 113.651 12.9542 113.559L13.846 112.784C14.0562 112.599 14.1177 112.276 13.9793 112.055C13.9127 111.947 13.805 111.886 13.6923 111.87C13.5795 111.855 13.4565 111.896 13.354 111.983L12.4571 112.758C12.2469 112.938 12.1854 113.266 12.3238 113.482M33.3227 114.909L33.9018 115.843C33.9685 115.956 34.071 116.018 34.1837 116.028C34.2965 116.038 34.4195 116.002 34.5271 115.91C34.7373 115.73 34.7988 115.402 34.6604 115.186L34.0812 114.247C34.0146 114.139 33.907 114.077 33.7942 114.062C33.6814 114.047 33.5584 114.088 33.4508 114.175C33.2407 114.36 33.1791 114.683 33.3175 114.904M43.5786 103.657C41.4875 114.955 31.8978 123.256 22.1492 122.188C12.4058 121.12 6.20404 111.095 8.29522 99.7919C10.3864 88.4887 19.9812 80.1935 29.7246 81.2612C39.468 82.3289 45.6698 92.354 43.5786 103.657ZM40.4162 104.52C40.98 104.581 41.5336 104.104 41.6515 103.452C41.7694 102.8 41.4106 102.225 40.8519 102.163C40.2932 102.102 39.7397 102.584 39.6167 103.231C39.4937 103.878 39.8576 104.458 40.4162 104.52ZM10.8682 101.286C11.432 101.347 11.9804 100.87 12.1034 100.218C12.2264 99.5661 11.8676 98.9911 11.3038 98.9295C10.74 98.868 10.1916 99.3505 10.0686 99.9972C9.9456 100.644 10.3044 101.224 10.8682 101.286ZM29.2479 83.412C28.6842 83.3504 28.1357 83.8278 28.0127 84.4797C27.8897 85.1316 28.2485 85.7065 28.8123 85.7681C29.3761 85.8297 29.9245 85.3472 30.0475 84.7004C30.1705 84.0537 29.8117 83.4736 29.2479 83.412ZM22.467 120.042C23.0308 120.104 23.5792 119.626 23.7022 118.975C23.8252 118.323 23.4665 117.748 22.9027 117.686C22.3389 117.624 21.7905 118.102 21.6674 118.754C21.5444 119.406 21.9032 119.981 22.467 120.042Z" stroke="#231F20" stroke-width="0.212729" stroke-linejoin="round"/>
<path d="M21.4096 90.3314C21.302 90.3211 21.179 90.4443 21.22 90.5932L24.7924 102.184C24.8385 102.692 25.1512 103.113 25.6176 103.21C25.6484 103.216 25.674 103.221 25.7047 103.226C26.2993 103.293 26.8938 102.82 27.0732 102.127C27.1757 101.732 27.1091 101.352 26.9348 101.065L21.5121 90.4135C21.4865 90.3622 21.4506 90.3417 21.4096 90.3365V90.3314Z" fill="#F16736" stroke="black" stroke-width="0.212729" stroke-linecap="round" stroke-linejoin="round"/>
<path d="M40.8539 102.158C40.2952 102.096 39.7417 102.579 39.6187 103.225C39.4956 103.872 39.8596 104.452 40.4182 104.514C40.9769 104.575 41.5356 104.098 41.6535 103.446C41.7713 102.794 41.4126 102.219 40.8539 102.158Z" fill="#151226" stroke="#231F20" stroke-width="0.212729" stroke-linejoin="round"/>
<mask id="mask48_2510_97116" style="mask-type:luminance" maskUnits="userSpaceOnUse" x="16" y="77" width="38" height="52">
<path d="M16.7314 125.532L22.1131 127.61C23.5483 128.165 25.0808 128.545 26.6953 128.719C38.5606 130.018 50.2364 119.916 52.7837 106.159C54.9825 94.2655 49.6418 83.532 40.498 80.0004L35.1163 77.9215C44.2652 81.4583 49.6059 92.1917 47.402 104.08C44.8547 117.837 33.1738 127.939 21.3136 126.64C19.7042 126.466 18.1717 126.086 16.7314 125.532Z" fill="white"/>
</mask>
<g mask="url(#mask48_2510_97116)">
<path d="M21.3058 126.64C33.1711 127.939 44.8468 117.837 47.3942 104.08C47.917 101.252 48.0143 98.4899 47.7376 95.8772C46.8406 87.4896 42.0842 80.6163 35.1085 77.9214L40.4902 80.0003C47.4659 82.6952 52.2274 89.5736 53.1193 97.9561C53.396 100.569 53.2987 103.33 52.7759 106.159C50.2285 119.916 38.5477 130.018 26.6875 128.719C25.0781 128.545 23.5456 128.165 22.1053 127.61L16.7236 125.531C18.1588 126.086 19.6913 126.466 21.3058 126.64Z" fill="#C2960D" stroke="#231F20" stroke-width="0.212729" stroke-linejoin="round"/>
</g>
<path d="M16.7402 125.53L22.1219 127.609C23.557 128.163 25.0896 128.543 26.7041 128.718C38.5694 130.016 50.2451 119.914 52.7925 106.158C54.9913 94.264 49.6506 83.5306 40.5068 79.999L35.1251 77.92C44.274 81.4568 49.6147 92.1902 47.4108 104.079C44.8634 117.835 33.1826 127.937 21.3224 126.639C19.713 126.464 18.1805 126.084 16.7402 125.53Z" stroke="#231F20" stroke-width="0.212729" stroke-linejoin="round"/>
<defs>
<linearGradient id="paint0_linear_2510_97116" x1="87.0847" y1="110.192" x2="87.0847" y2="41.5154" gradientUnits="userSpaceOnUse">
<stop stop-color="#3653B3"/>
<stop offset="0.99" stop-color="white"/>
<stop offset="1" stop-color="#F7F8FC"/>
</linearGradient>
<linearGradient id="paint1_linear_2510_97116" x1="53.0415" y1="15.7623" x2="53.0415" y2="15.7623" gradientUnits="userSpaceOnUse">
<stop stop-color="#3653B3"/>
<stop offset="0.99" stop-color="white"/>
<stop offset="1" stop-color="#F7F8FC"/>
</linearGradient>
<linearGradient id="paint2_linear_2510_97116" x1="70.0682" y1="122.533" x2="70.0682" y2="110.193" gradientUnits="userSpaceOnUse">
<stop stop-color="#3653B3"/>
<stop offset="0.99" stop-color="white"/>
<stop offset="1" stop-color="#F7F8FC"/>
</linearGradient>
<linearGradient id="paint3_linear_2510_97116" x1="70.5532" y1="119.786" x2="70.5532" y2="111.732" gradientUnits="userSpaceOnUse">
<stop stop-color="white"/>
<stop offset="1"/>
</linearGradient>
<linearGradient id="paint4_linear_2510_97116" x1="56.5657" y1="83.233" x2="56.5657" y2="113.924" gradientUnits="userSpaceOnUse">
<stop stop-color="#5C75E0"/>
<stop offset="1" stop-color="white"/>
</linearGradient>
<linearGradient id="paint5_linear_2510_97116" x1="89.4045" y1="48.6577" x2="47.0019" y2="48.6577" gradientUnits="userSpaceOnUse">
<stop stop-color="#9FB8FF"/>
<stop offset="1" stop-color="white"/>
</linearGradient>
<linearGradient id="paint6_linear_2510_97116" x1="70.0712" y1="51.5619" x2="70.0712" y2="46.4955" gradientUnits="userSpaceOnUse">
<stop stop-color="#3653B3"/>
<stop offset="0.99" stop-color="white"/>
<stop offset="1" stop-color="#F7F8FC"/>
</linearGradient>
<linearGradient id="paint7_linear_2510_97116" x1="3.84042" y1="108.077" x2="4.35296" y2="108.077" gradientUnits="userSpaceOnUse">
<stop stop-color="#9FB8FF"/>
<stop offset="1" stop-color="white"/>
</linearGradient>
</defs>
</svg>
