<svg width="128" height="146" viewBox="0 0 128 146" fill="none" xmlns="http://www.w3.org/2000/svg">
<g clip-path="url(#clip0_2510_96876)">
<path opacity="0.3" d="M46.378 54.5354C54.5271 59.2674 54.5695 66.944 46.4722 71.6807C38.3773 76.4127 25.2037 76.4174 17.0546 71.6807C8.90555 66.944 8.86317 59.2674 16.9604 54.5354C25.0553 49.8034 38.2243 49.7987 46.378 54.5354Z" fill="black" stroke="black" stroke-width="0.25" stroke-miterlimit="10"/>
<path d="M59.0166 58.4378C57.5474 74.6258 18.7092 74.4259 17.4166 58.3202C13.6964 78.5112 57.4814 79.2967 59.0072 62.2525L59.019 58.4378H59.0143H59.0166Z" fill="#FCD700" stroke="black" stroke-width="0.25" stroke-miterlimit="10"/>
<path d="M52.8761 49.8042C61.0252 54.5362 61.0675 62.2128 52.9703 66.9495C44.8754 71.6815 31.7017 71.6862 23.5527 66.9495C15.4036 62.2128 15.3612 54.5362 23.4585 49.8042C31.5534 45.0722 44.7223 45.0675 52.8761 49.8042Z" fill="#FFDE1D" stroke="black" stroke-width="0.25" stroke-linecap="round" stroke-linejoin="round"/>
<path d="M41.7782 58.1458C40.0876 58.8749 37.9003 58.6867 35.9672 57.7154L35.0536 62.7132L33.3701 61.7348L34.279 56.9275L35.1831 56.3913C35.4068 56.5253 35.6328 56.6665 35.873 56.8052C36.6476 57.2544 37.5212 57.6731 38.5525 57.7154C38.9363 57.7319 39.3436 57.6989 39.7745 57.5931C39.9464 57.5508 40.17 57.4638 40.3843 57.332L36.6453 55.1613L38.2228 54.9519L41.2154 56.69C41.6416 56.015 41.0012 55.4317 40.0688 54.8579L38.6043 54.0135L40.1559 53.8207L46.4519 57.4826L44.9592 57.6801L43.2451 56.69C43.2262 56.8193 43.1862 56.951 43.1226 57.0733C43.0355 57.2356 42.8989 57.405 42.72 57.5649L44.573 58.6397L42.979 58.8373L41.7758 58.1387L41.7805 58.1435L41.7782 58.1458Z" fill="black"/>
<path d="M59.0166 54.5882C57.5474 70.7762 18.7092 70.5763 17.4166 54.4706C13.6964 74.6615 57.4814 75.4471 59.0072 58.4029L59.019 54.5882H59.0143H59.0166Z" fill="#FCD700" stroke="black" stroke-width="0.25" stroke-miterlimit="10"/>
<path d="M52.8761 45.9585C61.0252 50.6905 61.0675 58.367 52.9703 63.1037C44.8754 67.8357 31.7017 67.8404 23.5527 63.1037C15.4036 58.367 15.3612 50.6905 23.4585 45.9585C31.5534 41.2265 44.7223 41.2218 52.8761 45.9585Z" fill="#FFDE1D" stroke="black" stroke-width="0.25" stroke-linecap="round" stroke-linejoin="round"/>
<path d="M41.7782 54.3011C40.0876 55.0301 37.9003 54.842 35.9672 53.8707L35.0536 58.8684L33.3701 57.89L34.279 53.0828L35.1831 52.5466C35.4068 52.6806 35.6328 52.8217 35.873 52.9605C36.6476 53.4097 37.5212 53.8283 38.5525 53.8707C38.9363 53.8871 39.3436 53.8542 39.7745 53.7484C39.9464 53.706 40.17 53.619 40.3843 53.4873L36.6453 51.3165L38.2228 51.1072L41.2154 52.8452C41.6416 52.1703 41.0012 51.5893 40.0688 51.0131L38.6043 50.1688L40.1559 49.976L46.4519 53.6378L44.9592 53.8354L43.2451 52.8452C43.2262 52.9746 43.1862 53.1063 43.1226 53.2286C43.0355 53.3909 42.8989 53.5602 42.72 53.7202L44.573 54.795L42.979 54.9925L41.7758 54.294L41.7805 54.2987L41.7782 54.3011Z" fill="black"/>
<path d="M59.0166 51.2952C57.5474 67.4833 18.7092 67.2833 17.4166 51.1776C13.6964 71.3686 57.4814 72.1541 59.0072 55.11L59.019 51.2952H59.0143H59.0166Z" fill="#FCD700" stroke="black" stroke-width="0.25" stroke-miterlimit="10"/>
<path d="M52.8761 42.6615C61.0252 47.3935 61.0675 55.0701 52.9703 59.8068C44.8754 64.5388 31.7017 64.5435 23.5527 59.8068C15.4036 55.0701 15.3612 47.3935 23.4585 42.6615C31.5534 37.9295 44.7223 37.9248 52.8761 42.6615Z" fill="#FFDE1D" stroke="black" stroke-width="0.25" stroke-linecap="round" stroke-linejoin="round"/>
<path d="M41.7782 51.0033C40.0876 51.7324 37.9003 51.5443 35.9672 50.5729L35.0536 55.5707L33.3701 54.5923L34.279 49.7851L35.1831 49.2488C35.4068 49.3829 35.6328 49.524 35.873 49.6628C36.6476 50.112 37.5212 50.5306 38.5525 50.5729C38.9363 50.5894 39.3436 50.5565 39.7745 50.4506C39.9464 50.4083 40.17 50.3213 40.3843 50.1896L36.6453 48.0188L38.2228 47.8095L41.2154 49.5475C41.6416 48.8725 41.0012 48.2893 40.0688 47.7154L38.6043 46.8711L40.1559 46.6782L46.4519 50.3401L44.9592 50.5377L43.2451 49.5475C43.2262 49.6769 43.1862 49.8086 43.1226 49.9309C43.0355 50.0932 42.8989 50.2625 42.72 50.4224L44.573 51.4972L42.979 51.6948L41.7758 50.9963L41.7805 51.001L41.7782 51.0033Z" fill="black"/>
<path d="M59.0166 47.4474C57.5474 63.6355 18.7092 63.4356 17.4166 47.3298C13.6964 67.5208 57.4814 68.3063 59.0072 51.2622L59.019 47.4474H59.0143H59.0166Z" fill="#FCD700" stroke="black" stroke-width="0.25" stroke-miterlimit="10"/>
<path d="M52.8761 38.8141C61.0252 43.5461 61.0675 51.2226 52.9703 55.9593C44.8754 60.6913 31.7017 60.696 23.5527 55.9593C15.4036 51.2226 15.3612 43.5461 23.4585 38.8141C31.5534 34.0821 44.7223 34.0774 52.8761 38.8141Z" fill="#FFDE1D" stroke="black" stroke-width="0.25" stroke-linecap="round" stroke-linejoin="round"/>
<path d="M41.7782 47.1557C40.0876 47.8848 37.9003 47.6966 35.9672 46.7253L35.0536 51.7231L33.3701 50.7447L34.279 45.9374L35.1831 45.4012C35.4068 45.5352 35.6328 45.6764 35.873 45.8151C36.6476 46.2643 37.5212 46.683 38.5525 46.7253C38.9363 46.7418 39.3436 46.7088 39.7745 46.603C39.9464 46.5607 40.17 46.4736 40.3843 46.3419L36.6453 44.1711L38.2228 43.9618L41.2154 45.6999C41.6416 45.0249 41.0012 44.4416 40.0688 43.8677L38.6043 43.0234L40.1559 42.8306L46.4519 46.4925L44.9592 46.69L43.2451 45.6999C43.2262 45.8292 43.1862 45.9609 43.1226 46.0832C43.0355 46.2455 42.8989 46.4148 42.72 46.5748L44.573 47.6496L42.979 47.8471L41.7758 47.1486L41.7805 47.1533L41.7782 47.1557Z" fill="black"/>
<path d="M59.0166 43.5979C57.5474 59.786 18.7092 59.5861 17.4166 43.4803C13.6964 63.6713 57.4814 64.4568 59.0072 47.4127L59.019 43.5979H59.0143H59.0166Z" fill="#FCD700" stroke="black" stroke-width="0.25" stroke-miterlimit="10"/>
<path d="M52.8761 34.9682C61.0252 39.7002 61.0675 47.3768 52.9703 52.1135C44.8754 56.8455 31.7017 56.8502 23.5527 52.1135C15.4036 47.3768 15.3612 39.7002 23.4585 34.9682C31.5534 30.2362 44.7223 30.2315 52.8761 34.9682Z" fill="#FFDE1D" stroke="black" stroke-width="0.25" stroke-linecap="round" stroke-linejoin="round"/>
<path d="M41.7782 43.311C40.0876 44.0401 37.9003 43.8519 35.9672 42.8806L35.0536 47.8783L33.3701 46.9L34.279 42.0927L35.1831 41.5565C35.4068 41.6905 35.6328 41.8316 35.873 41.9704C36.6476 42.4196 37.5212 42.8382 38.5525 42.8806C38.9363 42.897 39.3436 42.8641 39.7745 42.7583C39.9464 42.7159 40.17 42.6289 40.3843 42.4972L36.6453 40.3264L38.2228 40.1171L41.2154 41.8551C41.6416 41.1802 41.0012 40.5969 40.0688 40.023L38.6043 39.1787L40.1559 38.9858L46.4519 42.6477L44.9592 42.8453L43.2451 41.8551C43.2262 41.9845 43.1862 42.1162 43.1226 42.2385C43.0355 42.4008 42.8989 42.5701 42.72 42.7301L44.573 43.8049L42.979 44.0024L41.7758 43.3039L41.7805 43.3086L41.7782 43.311Z" fill="black"/>
<path d="M59.0166 39.7521C57.5474 55.9402 18.7092 55.7403 17.4166 39.6345C13.6964 59.8255 57.4814 60.611 59.0072 43.5669L59.019 39.7521H59.0143H59.0166Z" fill="#FCD700" stroke="black" stroke-width="0.25" stroke-miterlimit="10"/>
<path d="M52.8761 31.1235C61.0252 35.8555 61.0675 43.5321 52.9703 48.2688C44.8754 53.0008 31.7017 53.0055 23.5527 48.2688C15.4036 43.5321 15.3612 35.8555 23.4585 31.1235C31.5534 26.3915 44.7223 26.3868 52.8761 31.1235Z" fill="#FFDE1D" stroke="black" stroke-width="0.25" stroke-linecap="round" stroke-linejoin="round"/>
<path d="M41.7782 39.4651C40.0876 40.1942 37.9003 40.0061 35.9672 39.0347L35.0536 44.0325L33.3701 43.0541L34.279 38.2469L35.1831 37.7106C35.4068 37.8447 35.6328 37.9858 35.873 38.1246C36.6476 38.5738 37.5212 38.9924 38.5525 39.0347C38.9363 39.0512 39.3436 39.0183 39.7745 38.9124C39.9464 38.8701 40.17 38.7831 40.3843 38.6514L36.6453 36.4806L38.2228 36.2713L41.2154 38.0093C41.6416 37.3343 41.0012 36.7511 40.0688 36.1772L38.6043 35.3329L40.1559 35.14L46.4519 38.8019L44.9592 38.9995L43.2451 38.0093C43.2262 38.1387 43.1862 38.2704 43.1226 38.3927C43.0355 38.555 42.8989 38.7243 42.72 38.8842L44.573 39.959L42.979 40.1566L41.7758 39.4581L41.7805 39.4628L41.7782 39.4651Z" fill="black"/>
<path d="M59.0166 35.9065C57.5474 52.0946 18.7092 51.8947 17.4166 35.7889C13.6964 55.9799 57.4814 56.7654 59.0072 39.7213L59.019 35.9065H59.0143H59.0166Z" fill="#FCD700" stroke="black" stroke-width="0.25" stroke-miterlimit="10"/>
<path d="M52.8761 27.2729C61.0252 32.0049 61.0675 39.6815 52.9703 44.4182C44.8754 49.1502 31.7017 49.1549 23.5527 44.4182C15.4036 39.6815 15.3612 32.0049 23.4585 27.2729C31.5534 22.5409 44.7223 22.5362 52.8761 27.2729Z" fill="#FFDE1D" stroke="black" stroke-width="0.25" stroke-linecap="round" stroke-linejoin="round"/>
<path d="M41.7782 35.6194C40.0876 36.3485 37.9003 36.1604 35.9672 35.1891L35.0536 40.1868L33.3701 39.2084L34.279 34.4012L35.1831 33.8649C35.4068 33.999 35.6328 34.1401 35.873 34.2789C36.6476 34.7281 37.5212 35.1467 38.5525 35.1891C38.9363 35.2055 39.3436 35.1726 39.7745 35.0667C39.9464 35.0244 40.17 34.9374 40.3843 34.8057L36.6453 32.6349L38.2228 32.4256L41.2154 34.1636C41.6416 33.4886 41.0012 32.9054 40.0688 32.3315L38.6043 31.4872L40.1559 31.2943L46.4519 34.9562L44.9592 35.1538L43.2451 34.1636C43.2262 34.293 43.1862 34.4247 43.1226 34.547C43.0355 34.7093 42.8989 34.8786 42.72 35.0385L44.573 36.1133L42.979 36.3109L41.7758 35.6124L41.7805 35.6171L41.7782 35.6194Z" fill="black"/>
<path opacity="0.3" d="M194.133 62.1185C194.133 63.1768 193.734 64.2351 192.935 65.2494C192.226 66.1974 191.161 67.0794 189.809 67.8511L87.7581 126.434C82.5247 129.455 74.586 129.785 70.0622 127.184L15.7994 96.0291C15.0233 95.5881 14.4024 95.081 13.9367 94.5519C13.1162 93.6479 12.7393 92.6336 12.7393 91.6194C12.7393 89.613 14.2028 87.5184 17.0856 85.8427L119.114 27.2818C124.347 24.2832 132.286 23.9525 136.81 26.5762L191.05 57.7088C193.113 58.8773 194.11 60.4869 194.11 62.1185H194.133Z" fill="black" stroke="black" stroke-width="0.25" stroke-miterlimit="10"/>
<path d="M201.499 56.1865C201.499 57.2448 201.1 58.3031 200.301 59.3173C199.592 60.2654 198.527 61.1474 197.175 61.9191L95.1243 120.502C89.8909 123.523 81.9522 123.853 77.4284 121.252L23.1657 90.0971C22.3895 89.6561 21.7686 89.149 21.3029 88.6199C20.4824 87.7159 20.1055 86.7016 20.1055 85.6874C20.1055 83.681 21.569 81.5864 24.4518 79.9107L126.48 21.3498C131.713 18.3512 139.652 18.0204 144.176 20.6442L198.417 51.7767C200.479 52.9453 201.477 54.5549 201.477 56.1865H201.499Z" fill="#017AFF" stroke="black" stroke-width="0.25" stroke-miterlimit="10"/>
<path d="M191.033 58.8102C190.656 59.3835 190.058 59.9127 189.237 60.3977L180.589 65.3807C177.928 66.9021 173.87 67.0564 171.563 65.7555L119.829 36.0562C119.319 35.7695 118.942 35.4388 118.72 35.064C117.744 33.7411 118.387 32.0654 120.494 30.8527L129.142 25.8918C131.825 24.3484 135.883 24.1941 138.19 25.517L189.902 55.1943C191.499 56.1203 191.876 57.5314 191.033 58.7882V58.8102Z" fill="#3B4951" stroke="black" stroke-width="0.25" stroke-miterlimit="10"/>
<path d="M191.033 58.8101C190.656 59.3834 190.057 59.9126 189.237 60.3976L180.589 65.3806C177.928 66.9019 173.87 67.0563 171.563 65.7554L119.828 36.056C119.318 35.7694 118.941 35.4387 118.72 35.0639C119.075 34.4906 119.673 33.9614 120.494 33.4764L129.142 28.5154C131.825 26.972 135.883 26.8177 138.19 28.1406L189.902 57.8179C190.412 58.1046 190.789 58.4353 191.033 58.8101Z" fill="white" stroke="black" stroke-width="0.25" stroke-miterlimit="10"/>
<path d="M101.422 45.4267V41.2816C101.422 41.9872 101.91 42.7148 102.863 43.266V47.4111C101.91 46.8599 101.422 46.1543 101.422 45.4267Z" fill="#F3AE00" stroke="black" stroke-width="0.25" stroke-miterlimit="10"/>
<path d="M107.609 45.9791L107.587 50.1242L102.863 47.4122V43.2671L107.609 45.9791Z" fill="#F3AE00" stroke="black" stroke-width="0.25" stroke-miterlimit="10"/>
<path d="M115.792 44.0381V48.1832C115.792 48.8888 115.304 49.5943 114.373 50.1235C112.51 51.2039 109.472 51.1818 107.587 50.1235V45.9784C109.472 47.0587 112.51 47.0587 114.373 45.9784C115.304 45.4492 115.77 44.7436 115.77 44.0381H115.792Z" fill="#F3AE00" stroke="black" stroke-width="0.25" stroke-miterlimit="10"/>
<path d="M114.35 42.0758C116.235 43.1561 116.257 44.898 114.372 46.0004C112.509 47.0808 109.471 47.0587 107.587 46.0004L102.863 43.2884C100.978 42.2081 100.956 40.4662 102.819 39.3858C104.704 38.3055 107.742 38.3055 109.627 39.3858L114.35 42.0978V42.0758Z" fill="#F6D13A" stroke="black" stroke-width="0.25" stroke-miterlimit="10"/>
<path d="M115.658 53.608V49.4629C115.658 50.1684 116.146 50.896 117.1 51.4473V55.5924C116.146 55.0412 115.658 54.3356 115.658 53.608Z" fill="#F3AE00" stroke="black" stroke-width="0.25" stroke-miterlimit="10"/>
<path d="M121.823 54.16V58.3052L117.077 55.5711L117.099 51.426L121.823 54.16Z" fill="#F3AE00" stroke="black" stroke-width="0.25" stroke-miterlimit="10"/>
<path d="M130.006 52.197V56.3421C130.006 57.0477 129.518 57.7533 128.587 58.2824C126.724 59.3628 123.686 59.3628 121.823 58.2824V54.1373C123.708 55.2177 126.746 55.2177 128.609 54.1373C129.54 53.5861 130.006 52.9026 130.006 52.197Z" fill="#F3AE00" stroke="black" stroke-width="0.25" stroke-miterlimit="10"/>
<path d="M128.586 50.2344C130.471 51.3148 130.471 53.0566 128.586 54.137C126.724 55.2174 123.686 55.2174 121.823 54.137L117.1 51.425C115.215 50.3447 115.192 48.6028 117.055 47.5224C118.94 46.4421 121.978 46.4421 123.863 47.5224L128.586 50.2344Z" fill="#F6D13A" stroke="black" stroke-width="0.25" stroke-miterlimit="10"/>
<path d="M91.7764 51.0282V46.8831C91.7764 47.5886 92.2642 48.3162 93.1956 48.8454V52.9905C92.242 52.4393 91.7764 51.7337 91.7764 51.0282Z" fill="#2C353B" stroke="black" stroke-width="0.25" stroke-miterlimit="10"/>
<path d="M97.9408 51.5571L97.9186 55.7022L93.1953 52.9902V48.8451L97.9408 51.5571Z" fill="#2C353B" stroke="black" stroke-width="0.25" stroke-miterlimit="10"/>
<path d="M106.125 49.6171V53.7622C106.125 54.4677 105.637 55.1733 104.728 55.7025C102.865 56.7828 99.8048 56.7828 97.9199 55.7025V51.5573C99.8048 52.6377 102.865 52.6377 104.728 51.5573C105.659 51.0282 106.125 50.3226 106.125 49.6171Z" fill="#2C353B" stroke="black" stroke-width="0.25" stroke-miterlimit="10"/>
<path d="M104.705 47.6546C106.59 48.735 106.59 50.4988 104.727 51.5792C102.864 52.6596 99.8041 52.6596 97.9192 51.5792L93.1959 48.8672C91.311 47.7869 91.311 46.023 93.1959 44.9426C95.0586 43.8622 98.1188 43.8622 100.004 44.9426L104.727 47.6546H104.705Z" fill="#3B4951" stroke="black" stroke-width="0.25" stroke-miterlimit="10"/>
<path d="M106.013 59.185V55.0399C106.013 55.7455 106.501 56.4731 107.432 57.0022V61.1474C106.478 60.5961 106.013 59.8906 106.013 59.185Z" fill="#2C353B" stroke="black" stroke-width="0.25" stroke-miterlimit="10"/>
<path d="M112.177 59.7374L112.155 63.8825L107.432 61.1705V57.0254L112.177 59.7374Z" fill="#2C353B" stroke="black" stroke-width="0.25" stroke-miterlimit="10"/>
<path d="M120.361 57.7751V61.9203C120.361 62.6258 119.873 63.3314 118.942 63.8605C117.079 64.9409 114.041 64.9409 112.156 63.8605V59.7154C114.041 60.7958 117.079 60.7737 118.942 59.7154C119.873 59.1863 120.339 58.4807 120.339 57.7751H120.361Z" fill="#2C353B" stroke="black" stroke-width="0.25" stroke-miterlimit="10"/>
<path d="M118.941 55.8122C120.826 56.8926 120.804 58.6345 118.941 59.7148C117.078 60.7952 114.04 60.7952 112.156 59.7148L107.432 57.0029C105.547 55.9225 105.547 54.1586 107.432 53.0782C109.295 51.9978 112.355 51.9978 114.24 53.0782L118.963 55.7902L118.941 55.8122Z" fill="#3B4951" stroke="black" stroke-width="0.25" stroke-miterlimit="10"/>
<path d="M120.249 67.3656V63.2205C120.249 63.926 120.737 64.6536 121.668 65.1828V69.3279C120.715 68.7767 120.249 68.0711 120.249 67.3656Z" fill="#2C353B" stroke="black" stroke-width="0.25" stroke-miterlimit="10"/>
<path d="M126.392 67.9164V72.0395L121.646 69.3275L121.669 65.1824L126.392 67.9164Z" fill="#2C353B" stroke="black" stroke-width="0.25" stroke-miterlimit="10"/>
<path d="M134.574 65.9554V70.1006C134.574 70.8061 134.086 71.5117 133.155 72.0408C131.292 73.1212 128.254 73.1212 126.369 72.0408V67.8957C128.254 68.9761 131.292 68.954 133.155 67.8957C134.086 67.3666 134.552 66.661 134.552 65.9554H134.574Z" fill="#2C353B" stroke="black" stroke-width="0.25" stroke-miterlimit="10"/>
<path d="M133.177 63.9924C135.062 65.0728 135.04 66.8146 133.177 67.895C131.315 68.9754 128.277 68.9754 126.392 67.895L121.669 65.183C119.784 64.1027 119.784 62.3388 121.669 61.2584C123.531 60.178 126.591 60.178 128.476 61.2584L133.2 63.9704L133.177 63.9924Z" fill="#3B4951" stroke="black" stroke-width="0.25" stroke-miterlimit="10"/>
<path d="M94.5263 54.7541V58.8992C94.5263 60.0016 93.7723 61.104 92.3087 61.9639C89.3594 63.6617 84.5474 63.6617 81.5981 61.9639C80.1124 61.104 79.3584 59.9796 79.3584 58.8551V54.71C79.3584 55.8344 80.1124 56.9589 81.5981 57.8188C84.5696 59.5165 89.3594 59.5386 92.3087 57.8188C93.7723 56.981 94.5041 55.8785 94.5041 54.7541H94.5263Z" fill="#2C353B" stroke="black" stroke-width="0.25" stroke-miterlimit="10"/>
<path d="M92.2648 51.645C95.2363 53.3427 95.2585 56.1209 92.3092 57.8186C89.3599 59.5163 84.5478 59.5163 81.5985 57.8186C78.6492 56.1209 78.6049 53.3648 81.5542 51.645C84.5035 49.9473 89.3155 49.9473 92.2648 51.645Z" fill="#3B4951" stroke="black" stroke-width="0.25" stroke-miterlimit="10"/>
<path d="M109.007 63.0662V67.2113C109.007 68.3137 108.253 69.4162 106.789 70.2761C103.84 71.9738 99.0279 71.9738 96.0786 70.2761C94.5928 69.4162 93.8389 68.2917 93.8389 67.1672V63.0221C93.8389 64.1466 94.5928 65.271 96.0786 66.1309C99.0279 67.8287 103.84 67.8287 106.789 66.1309C108.253 65.2931 108.985 64.1686 108.985 63.0662H109.007Z" fill="#2C353B" stroke="black" stroke-width="0.25" stroke-miterlimit="10"/>
<path d="M106.789 59.9795C109.738 61.6772 109.782 64.4333 106.833 66.1531C103.884 67.8508 99.0717 67.8508 96.1224 66.1531C93.1509 64.4553 93.1288 61.6993 96.0781 59.9795C99.0274 58.2817 103.817 58.2817 106.789 59.9795Z" fill="#3B4951" stroke="black" stroke-width="0.25" stroke-miterlimit="10"/>
<path d="M123.509 71.4008V75.5459C123.509 76.6483 122.755 77.7508 121.291 78.6107C118.342 80.3084 113.552 80.3084 110.581 78.6107C109.095 77.7508 108.341 76.6263 108.341 75.5018V71.3567C108.341 72.4812 109.095 73.6056 110.581 74.4655C113.552 76.1633 118.342 76.1633 121.291 74.4655C122.755 73.6277 123.487 72.5032 123.487 71.4008H123.509Z" fill="#2C353B" stroke="black" stroke-width="0.25" stroke-miterlimit="10"/>
<path d="M121.269 68.2917C124.241 69.9895 124.263 72.7455 121.314 74.4653C118.364 76.1631 113.574 76.1631 110.603 74.4653C107.631 72.7676 107.609 70.0115 110.559 68.2917C113.508 66.594 118.298 66.594 121.269 68.2917Z" fill="#3B4951" stroke="black" stroke-width="0.25" stroke-miterlimit="10"/>
<path d="M138.013 79.713V83.8582C138.013 84.9606 137.259 86.063 135.795 86.9229C132.846 88.6206 128.056 88.6206 125.084 86.9229C123.599 86.063 122.845 84.9385 122.845 83.8141V79.6689C122.845 80.7934 123.599 81.9179 125.084 82.7778C128.056 84.4755 132.846 84.4755 135.795 82.7778C137.259 81.9399 137.99 80.8155 137.99 79.713H138.013Z" fill="#2C353B" stroke="black" stroke-width="0.25" stroke-miterlimit="10"/>
<path d="M135.773 76.6041C138.745 78.3019 138.767 81.0579 135.817 82.7777C132.868 84.4754 128.078 84.4754 125.107 82.7777C122.135 81.08 122.113 78.3239 125.062 76.6041C128.012 74.9064 132.802 74.9064 135.773 76.6041Z" fill="#3B4951" stroke="black" stroke-width="0.25" stroke-miterlimit="10"/>
<path d="M80.9545 62.5816V66.7267C80.9545 67.8291 80.2005 68.9536 78.7369 69.7914C75.8098 71.4892 70.9756 71.4892 68.0041 69.7914C66.5184 68.9315 65.7644 67.8071 65.7866 66.6826V62.5375C65.7866 63.662 66.5406 64.7864 68.0263 65.6463C70.9978 67.3441 75.8098 67.3441 78.7369 65.6463C80.2005 64.8085 80.9323 63.684 80.9323 62.5816H80.9545Z" fill="#2C353B" stroke="black" stroke-width="0.25" stroke-miterlimit="10"/>
<path d="M78.7154 59.4724C81.6869 61.1701 81.7091 63.9482 78.7598 65.646C75.8327 67.3437 70.9985 67.3437 68.0492 65.646C65.0998 63.9482 65.0777 61.1701 68.0048 59.4724C70.9541 57.7747 75.7661 57.7747 78.7154 59.4724Z" fill="#3B4951" stroke="black" stroke-width="0.25" stroke-miterlimit="10"/>
<path d="M95.4579 70.8927V75.0379C95.4579 76.1403 94.7039 77.2648 93.2404 78.1026C90.3132 79.8003 85.479 79.8003 82.5297 78.1026C81.044 77.2427 80.29 76.1182 80.29 74.9938V70.8486C80.29 71.9731 81.044 73.0976 82.5297 73.9575C85.479 75.6552 90.2911 75.6552 93.2404 73.9575C94.7039 73.1196 95.4357 71.9952 95.4357 70.8927H95.4579Z" fill="#2C353B" stroke="black" stroke-width="0.25" stroke-miterlimit="10"/>
<path d="M93.2173 67.8064C96.1666 69.5041 96.1888 72.2822 93.2173 73.98C90.2902 75.6777 85.456 75.6777 82.5066 73.98C79.5352 72.2822 79.5352 69.5041 82.4623 67.8064C85.4116 66.1086 90.2236 66.0866 93.1729 67.8064H93.2173Z" fill="#3B4951" stroke="black" stroke-width="0.25" stroke-miterlimit="10"/>
<path d="M109.96 79.2272V83.3723C109.96 84.4748 109.206 85.5992 107.742 86.4371C104.815 88.1348 100.003 88.1348 97.0317 86.4371C95.5459 85.5772 94.792 84.4527 94.792 83.3282V79.1831C94.792 80.3076 95.5459 81.4321 97.0317 82.2919C100.003 83.9897 104.793 83.9897 107.742 82.2919C109.206 81.4321 109.96 80.3296 109.96 79.2272Z" fill="#2C353B" stroke="black" stroke-width="0.25" stroke-miterlimit="10"/>
<path d="M107.719 76.1185C110.691 77.8162 110.691 80.5943 107.719 82.2921C104.792 83.9898 99.9801 83.9898 97.0086 82.2921C94.0371 80.5943 94.0371 77.8162 96.9642 76.1185C99.9136 74.4208 104.726 74.3987 107.675 76.1185H107.719Z" fill="#3B4951" stroke="black" stroke-width="0.25" stroke-miterlimit="10"/>
<path d="M124.44 87.5395V91.6846C124.44 92.787 123.686 93.9115 122.223 94.7493C119.296 96.4471 114.484 96.4471 111.512 94.7493C110.026 93.8894 109.272 92.765 109.272 91.6405V87.4954C109.272 88.6198 110.026 89.7443 111.512 90.6042C114.484 92.3019 119.273 92.3019 122.223 90.6042C123.686 89.7443 124.44 88.6419 124.44 87.5395Z" fill="#2C353B" stroke="black" stroke-width="0.25" stroke-miterlimit="10"/>
<path d="M122.223 84.453C125.195 86.1507 125.195 88.9288 122.223 90.6266C119.296 92.3243 114.484 92.3243 111.513 90.6266C108.541 88.9288 108.541 86.1507 111.468 84.453C114.417 82.7552 119.229 82.7332 122.201 84.453H122.223Z" fill="#3B4951" stroke="black" stroke-width="0.25" stroke-miterlimit="10"/>
<path d="M67.3847 70.4308V74.5759C67.3847 75.6784 66.6307 76.7808 65.1671 77.6407C62.2178 79.3384 57.4058 79.3384 54.4565 77.6407C52.9708 76.7808 52.2168 75.6563 52.2168 74.5318V70.3867C52.2168 71.5112 52.9708 72.6357 54.4565 73.4956C57.428 75.1933 62.2178 75.2153 65.1893 73.4956C66.6529 72.6577 67.3847 71.5553 67.3847 70.4308Z" fill="#2C353B" stroke="black" stroke-width="0.25" stroke-miterlimit="10"/>
<path d="M65.1454 67.3216C68.1169 69.0194 68.1391 71.7975 65.1897 73.4952C62.2404 75.193 57.4284 75.193 54.4569 73.4952C51.5076 71.7975 51.4633 69.0414 54.4126 67.3216C57.3619 65.6239 62.1739 65.6239 65.1232 67.3216H65.1454Z" fill="#3B4951" stroke="black" stroke-width="0.25" stroke-miterlimit="10"/>
<path d="M81.8856 78.7431V82.8882C81.8856 83.9906 81.1317 85.093 79.6681 85.9529C76.7188 87.6507 71.9068 87.6507 68.9575 85.9529C67.4717 85.093 66.7178 83.9686 66.7178 82.8441V78.699C66.7178 79.8234 67.4717 80.9479 68.9575 81.8078C71.9068 83.5056 76.7188 83.5056 79.6681 81.8078C81.1317 80.97 81.8635 79.8455 81.8635 78.7431H81.8856Z" fill="#2C353B" stroke="black" stroke-width="0.25" stroke-miterlimit="10"/>
<path d="M79.6461 75.6564C82.5954 77.3541 82.6398 80.1102 79.6905 81.8299C76.7412 83.5277 71.9292 83.5277 68.9798 81.8299C66.0084 80.1322 65.9862 77.3761 68.9355 75.6564C71.8848 73.9586 76.6747 73.9586 79.6461 75.6564Z" fill="#3B4951" stroke="black" stroke-width="0.25" stroke-miterlimit="10"/>
<path d="M96.3886 87.0775V91.2227C96.3886 92.3251 95.6346 93.4275 94.171 94.2874C91.2217 95.9852 86.4319 95.9852 83.4604 94.2874C81.9747 93.4275 81.2207 92.303 81.2207 91.1786V87.0334C81.2207 88.1579 81.9747 89.2824 83.4604 90.1423C86.4319 91.84 91.2217 91.84 94.171 90.1423C95.6346 89.3044 96.3664 88.18 96.3664 87.0775H96.3886Z" fill="#2C353B" stroke="black" stroke-width="0.25" stroke-miterlimit="10"/>
<path d="M94.1491 83.9685C97.1205 85.6662 97.1427 88.4223 94.1934 90.1421C91.2441 91.8619 86.4543 91.8398 83.4828 90.1421C80.5113 88.4443 80.4891 85.6883 83.4384 83.9685C86.3877 82.2708 91.1776 82.2708 94.1491 83.9685Z" fill="#3B4951" stroke="black" stroke-width="0.25" stroke-miterlimit="10"/>
<path d="M53.8122 78.2582V82.4033C53.8122 83.5058 53.0582 84.6302 51.5947 85.4681C48.6675 87.1658 43.8333 87.1658 40.884 85.4681C39.3983 84.6082 38.6443 83.4837 38.6665 82.3592V78.2141C38.6665 79.3386 39.4204 80.4631 40.9062 81.323C43.8777 83.0207 48.6897 83.0207 51.6168 81.323C53.0804 80.4851 53.8122 79.3606 53.8122 78.2582Z" fill="#2C353B" stroke="black" stroke-width="0.25" stroke-miterlimit="10"/>
<path d="M51.5953 75.149C54.5668 76.8468 54.589 79.6249 51.6397 81.3226C48.7125 83.0204 43.8783 83.0204 40.929 81.3226C37.9797 79.6249 37.9576 76.8468 40.8847 75.149C43.834 73.4513 48.646 73.4513 51.5953 75.149Z" fill="#3B4951" stroke="black" stroke-width="0.25" stroke-miterlimit="10"/>
<path d="M68.3143 86.5695V90.7146C68.3143 91.817 67.5604 92.9415 66.0968 93.7794C63.1697 95.4771 58.3355 95.4771 55.3862 93.7794C53.9004 92.9195 53.1465 91.795 53.1465 90.6705V86.5254C53.1465 87.6499 53.9004 88.7743 55.3862 89.6342C58.3355 91.332 63.1475 91.332 66.0968 89.6342C67.5604 88.7964 68.2922 87.6719 68.2922 86.5695H68.3143Z" fill="#2C353B" stroke="black" stroke-width="0.25" stroke-miterlimit="10"/>
<path d="M66.0972 83.4831C69.0465 85.1809 69.0686 87.959 66.0972 89.6567C63.17 91.3544 58.3358 91.3544 55.3865 89.6567C52.415 87.959 52.415 85.1809 55.3422 83.4831C58.2915 81.7854 63.1035 81.7633 66.0528 83.4831H66.0972Z" fill="#3B4951" stroke="black" stroke-width="0.25" stroke-miterlimit="10"/>
<path d="M82.8182 94.9041V99.0492C82.8182 100.152 82.0643 101.276 80.6007 102.114C77.6736 103.812 72.8616 103.812 69.8901 102.114C68.4043 101.254 67.6504 100.13 67.6504 99.0051V94.86C67.6504 95.9845 68.4043 97.1089 69.8901 97.9688C72.8616 99.6666 77.6514 99.6666 80.6007 97.9688C82.0643 97.1089 82.8182 96.0065 82.8182 94.9041Z" fill="#2C353B" stroke="black" stroke-width="0.25" stroke-miterlimit="10"/>
<path d="M80.6011 91.7954C83.5726 93.4931 83.5726 96.2712 80.6011 97.969C77.6739 99.6667 72.8619 99.6667 69.8904 97.969C66.919 96.2712 66.919 93.4931 69.8461 91.7954C72.7954 90.0976 77.6074 90.0756 80.5567 91.7954H80.6011Z" fill="#3B4951" stroke="black" stroke-width="0.25" stroke-miterlimit="10"/>
<path d="M110.891 95.3895V99.5346C110.891 100.637 110.137 101.739 108.674 102.599V98.4543C110.16 97.6164 110.891 96.492 110.891 95.3895Z" fill="#2C353B" stroke="black" stroke-width="0.25" stroke-miterlimit="10"/>
<path d="M108.673 98.4546V102.6L95.1016 110.427L95.1237 106.282L108.673 98.4546Z" fill="#2C353B" stroke="black" stroke-width="0.25" stroke-miterlimit="10"/>
<path d="M82.1738 107.318V103.173C82.1738 104.298 82.9278 105.422 84.4135 106.282C87.385 107.98 92.1749 107.98 95.1242 106.282V110.427C92.1527 112.125 87.385 112.125 84.4135 110.427C82.9278 109.567 82.1738 108.443 82.1738 107.318Z" fill="#2C353B" stroke="black" stroke-width="0.25" stroke-miterlimit="10"/>
<path d="M108.651 92.2807C111.622 93.9785 111.644 96.7346 108.695 98.4543L95.1461 106.282C92.1968 107.979 87.4069 107.979 84.4355 106.282C81.4861 104.584 81.4418 101.828 84.3911 100.108L97.9402 92.2807C100.889 90.583 105.702 90.583 108.651 92.2807Z" fill="#3B4951" stroke="black" stroke-width="0.25" stroke-miterlimit="10"/>
<path d="M201.499 56.1864V62.2497C201.499 64.2562 200.035 66.3508 197.153 68.0265L95.1021 126.609C89.8688 129.608 81.93 129.939 77.4063 127.315L23.1657 96.1824C21.1255 95.0139 20.1055 93.4043 20.1055 91.7727V85.7094C20.1055 86.7236 20.5046 87.7379 21.3029 88.6418C21.7686 89.171 22.3895 89.6781 23.1657 90.1191L77.4063 121.252C81.93 123.853 89.8688 123.545 95.1021 120.502L197.153 61.919C198.527 61.1253 199.57 60.2654 200.279 59.3173C201.1 58.3031 201.477 57.2447 201.477 56.1864H201.499Z" fill="#0257B5" stroke="black" stroke-width="0.25" stroke-miterlimit="10"/>
</g>
<defs>
<clipPath id="clip0_2510_96876">
<rect width="128" height="146" rx="10" fill="white"/>
</clipPath>
</defs>
</svg>
