<svg width="128" height="146" viewBox="0 0 128 146" fill="none" xmlns="http://www.w3.org/2000/svg">
<g clip-path="url(#clip0_2510_97001)">
<g clip-path="url(#clip1_2510_97001)">
<g opacity="0.3">
<mask id="path-2-outside-1_2510_97001" maskUnits="userSpaceOnUse" x="10.8008" y="65.3397" width="98" height="58" fill="black">
<rect fill="white" x="10.8008" y="65.3397" width="98" height="58"/>
<path d="M39.4006 66.3397L108.379 106.659L80.8076 122.84L11.8008 82.4539L39.4006 66.3397Z"/>
</mask>
<path d="M39.4006 66.3397L108.379 106.659L80.8076 122.84L11.8008 82.4539L39.4006 66.3397Z" fill="black"/>
<path d="M39.4006 66.3397L39.5266 66.1242C39.4488 66.0788 39.3526 66.0787 39.2748 66.1242L39.4006 66.3397ZM108.379 106.659L108.505 106.874C108.581 106.829 108.628 106.747 108.628 106.659C108.628 106.57 108.581 106.488 108.505 106.443L108.379 106.659ZM80.8076 122.84L80.6816 123.056C80.7595 123.101 80.8561 123.101 80.934 123.055L80.8076 122.84ZM11.8008 82.4539L11.6749 82.2384C11.5983 82.2831 11.5512 82.3651 11.5512 82.4538C11.5511 82.5425 11.5982 82.6246 11.6747 82.6694L11.8008 82.4539ZM39.2747 66.5552L108.253 106.874L108.505 106.443L39.5266 66.1242L39.2747 66.5552ZM108.252 106.444L80.6813 122.625L80.934 123.055L108.505 106.874L108.252 106.444ZM80.9337 122.625L11.9269 82.2385L11.6747 82.6694L80.6816 123.056L80.9337 122.625ZM11.9266 82.6695L39.5265 66.5553L39.2748 66.1242L11.6749 82.2384L11.9266 82.6695Z" fill="black" mask="url(#path-2-outside-1_2510_97001)"/>
</g>
<g opacity="0.3">
<path d="M85.947 48.0594C91.8079 51.467 91.8389 56.994 86.0146 60.4044C80.1932 63.8119 70.719 63.8148 64.8582 60.4044C58.9973 56.994 58.9663 51.467 64.7906 48.0594C70.612 44.6519 80.0834 44.649 85.947 48.0594Z" fill="black" stroke="black" stroke-width="0.105941" stroke-linecap="round" stroke-linejoin="round"/>
<path d="M104.807 66.6425C110.668 70.0501 110.699 75.5771 104.875 78.9875C99.0536 82.3951 89.5794 82.3979 83.7185 78.9875C77.8577 75.5771 77.8267 70.0501 83.6509 66.6425C89.4723 63.235 98.9437 63.2322 104.807 66.6425Z" fill="black" stroke="black" stroke-width="0.105941" stroke-linecap="round" stroke-linejoin="round"/>
</g>
<path d="M83.8714 54.8667C82.8153 66.5222 54.8826 66.3775 53.9532 54.7816C51.2777 69.3198 82.7674 69.8844 83.8658 57.6132L83.8742 54.8667H83.8714Z" fill="#FCD700" stroke="black" stroke-width="0.105941" stroke-miterlimit="10"/>
<path d="M79.4549 48.651C85.3157 52.0585 85.3467 57.5855 79.5225 60.9959C73.701 64.4035 64.2268 64.4063 58.366 60.9959C52.5051 57.5855 52.4741 52.0585 58.2984 48.651C64.1198 45.2434 73.5912 45.2406 79.4549 48.651Z" fill="#FFDE1D" stroke="black" stroke-width="0.105941" stroke-linecap="round" stroke-linejoin="round"/>
<path d="M71.4745 54.6579C70.2578 55.1828 68.6863 55.0466 67.295 54.3486L66.6388 57.9463L65.4277 57.2426L66.0811 53.7812L66.7317 53.3953C66.8922 53.4918 67.0556 53.5939 67.2274 53.6932C67.785 54.0167 68.4131 54.3174 69.1538 54.3486C69.4298 54.36 69.7227 54.3373 70.0325 54.2607C70.1564 54.2295 70.3169 54.167 70.4718 54.0734L67.7822 52.5101L68.9172 52.3597L71.0689 53.6109C71.3759 53.1258 70.914 52.7059 70.2437 52.2916L69.1904 51.6844L70.3057 51.5454L74.8344 54.1812L73.7613 54.3231L72.5278 53.6109C72.5137 53.7046 72.4855 53.7982 72.4405 53.8862C72.3785 54.0025 72.2799 54.1245 72.1504 54.2408L73.4825 55.0154L72.3363 55.1573L71.4716 54.6551L71.4745 54.6579Z" fill="black"/>
<path d="M83.8714 52.0988C82.8153 63.7543 54.8826 63.6096 53.9532 52.0137C51.2777 66.5518 82.7674 67.1165 83.8658 54.8453L83.8742 52.0988H83.8714Z" fill="#FCD700" stroke="black" stroke-width="0.105941" stroke-miterlimit="10"/>
<path d="M79.4549 45.8846C85.3157 49.2922 85.3467 54.8192 79.5225 58.2296C73.701 61.6371 64.2268 61.64 58.366 58.2296C52.5051 54.8192 52.4741 49.2922 58.2984 45.8846C64.1198 42.4771 73.5912 42.4742 79.4549 45.8846Z" fill="#FFDE1D" stroke="black" stroke-width="0.105941" stroke-linecap="round" stroke-linejoin="round"/>
<path d="M71.4745 51.8906C70.2578 52.4155 68.6863 52.2793 67.295 51.5813L66.6388 55.179L65.4277 54.4753L66.0811 51.0138L66.7317 50.628C66.8922 50.7244 67.0556 50.8266 67.2274 50.9259C67.785 51.2493 68.4131 51.5501 69.1538 51.5813C69.4298 51.5926 69.7227 51.5699 70.0325 51.4933C70.1564 51.4621 70.3169 51.3997 70.4718 51.3061L67.7822 49.7427L68.9172 49.5924L71.0689 50.8436C71.3759 50.3584 70.914 49.9385 70.2437 49.5243L69.1904 48.9171L70.3057 48.7781L74.8344 51.4139L73.7613 51.5558L72.5278 50.8436C72.5137 50.9372 72.4855 51.0309 72.4405 51.1188C72.3785 51.2352 72.2799 51.3572 72.1504 51.4735L73.4825 52.2481L72.3363 52.3899L71.4716 51.8877L71.4745 51.8906Z" fill="black"/>
<path d="M83.8714 49.725C82.8153 61.3805 54.8826 61.2358 53.9532 49.6399C51.2777 64.1781 82.7674 64.7427 83.8658 52.4715L83.8742 49.725H83.8714Z" fill="#FCD700" stroke="black" stroke-width="0.105941" stroke-miterlimit="10"/>
<path d="M79.4549 43.5099C85.3157 46.9174 85.3467 52.4444 79.5225 55.8548C73.701 59.2624 64.2268 59.2652 58.366 55.8548C52.5051 52.4444 52.4741 46.9174 58.2984 43.5099C64.1198 40.1023 73.5912 40.0995 79.4549 43.5099Z" fill="#FFDE1D" stroke="black" stroke-width="0.105941" stroke-linecap="round" stroke-linejoin="round"/>
<path d="M71.4745 49.5157C70.2578 50.0406 68.6863 49.9044 67.295 49.2064L66.6388 52.8041L65.4277 52.1004L66.0811 48.639L66.7317 48.2531C66.8922 48.3496 67.0556 48.4517 67.2274 48.551C67.785 48.8745 68.4131 49.1752 69.1538 49.2064C69.4298 49.2178 69.7227 49.1951 70.0325 49.1185C70.1564 49.0873 70.3169 49.0248 70.4718 48.9312L67.7822 47.3679L68.9172 47.2175L71.0689 48.4687C71.3759 47.9836 70.914 47.5636 70.2437 47.1494L69.1904 46.5422L70.3057 46.4032L74.8344 49.039L73.7613 49.1809L72.5278 48.4687C72.5137 48.5624 72.4855 48.656 72.4405 48.7439C72.3785 48.8603 72.2799 48.9823 72.1504 49.0986L73.4825 49.8732L72.3363 50.015L71.4716 49.5128L71.4745 49.5157Z" fill="black"/>
<path d="M83.8714 46.9543C82.8153 58.6098 54.8826 58.4651 53.9532 46.8691C51.2777 61.4073 82.7674 61.9719 83.8658 49.7007L83.8742 46.9543H83.8714Z" fill="#FCD700" stroke="black" stroke-width="0.105941" stroke-miterlimit="10"/>
<path d="M79.4549 40.7374C85.3157 44.145 85.3467 49.672 79.5225 53.0824C73.701 56.4899 64.2268 56.4928 58.366 53.0824C52.5051 49.672 52.4741 44.145 58.2984 40.7374C64.1198 37.3298 73.5912 37.327 79.4549 40.7374Z" fill="#FFDE1D" stroke="black" stroke-width="0.105941" stroke-linecap="round" stroke-linejoin="round"/>
<path d="M71.4745 46.7449C70.2578 47.2698 68.6863 47.1336 67.295 46.4357L66.6388 50.0333L65.4277 49.3297L66.0811 45.8682L66.7317 45.4823C66.8922 45.5788 67.0556 45.681 67.2274 45.7803C67.785 46.1037 68.4131 46.4045 69.1538 46.4357C69.4298 46.447 69.7227 46.4243 70.0325 46.3477C70.1564 46.3165 70.3169 46.2541 70.4718 46.1605L67.7822 44.5971L68.9172 44.4467L71.0689 45.698C71.3759 45.2128 70.914 44.7929 70.2437 44.3786L69.1904 43.7715L70.3057 43.6324L74.8344 46.2683L73.7613 46.4101L72.5278 45.698C72.5137 45.7916 72.4855 45.8852 72.4405 45.9732C72.3785 46.0895 72.2799 46.2115 72.1504 46.3279L73.4825 47.1024L72.3363 47.2443L71.4716 46.7421L71.4745 46.7449Z" fill="black"/>
<path d="M85.1702 44.3466C84.1141 56.0021 56.1815 55.8574 55.2521 44.2615C52.5765 58.7996 84.0662 59.3643 85.1646 47.0931L85.1731 44.3466H85.1702Z" fill="#FCD700" stroke="black" stroke-width="0.105941" stroke-miterlimit="10"/>
<path d="M80.7537 38.1339C86.6145 41.5414 86.6455 47.0684 80.8213 50.4788C74.9999 53.8864 65.5256 53.8892 59.6648 50.4788C53.804 47.0684 53.773 41.5414 59.5972 38.1339C65.4186 34.7263 74.89 34.7235 80.7537 38.1339Z" fill="#FFDE1D" stroke="black" stroke-width="0.105941" stroke-linecap="round" stroke-linejoin="round"/>
<path d="M72.7733 44.1393C71.5566 44.6642 69.9851 44.528 68.5938 43.8301L67.9376 47.4277L66.7266 46.7241L67.38 43.2626L68.0305 42.8768C68.1911 42.9732 68.3544 43.0754 68.5262 43.1747C69.0839 43.4981 69.7119 43.7989 70.4526 43.8301C70.7286 43.8414 71.0215 43.8187 71.3313 43.7421C71.4552 43.7109 71.6158 43.6485 71.7707 43.5549L69.081 41.9915L70.216 41.8412L72.3677 43.0924C72.6747 42.6072 72.2128 42.1873 71.5425 41.7731L70.4892 41.1659L71.6045 41.0269L76.1332 43.6627L75.0602 43.8045L73.8266 43.0924C73.8125 43.186 73.7844 43.2796 73.7393 43.3676C73.6773 43.4839 73.5788 43.6059 73.4492 43.7223L74.7813 44.4968L73.6351 44.6387L72.7705 44.1365L72.7733 44.1393Z" fill="black"/>
<path d="M86.7513 39.6635C85.6952 51.319 57.7625 51.1743 56.8331 39.5784C54.1576 54.1165 85.6473 54.6812 86.7457 42.41L86.7541 39.6635H86.7513Z" fill="#FCD700" stroke="black" stroke-width="0.105941" stroke-miterlimit="10"/>
<path d="M82.3347 33.4493C88.1956 36.8569 88.2266 42.3839 82.4023 45.7943C76.5809 49.2018 67.1067 49.2047 61.2459 45.7943C55.385 42.3839 55.354 36.8569 61.1783 33.4493C66.9997 30.0418 76.4711 30.0389 82.3347 33.4493Z" fill="#FFDE1D" stroke="black" stroke-width="0.105941" stroke-linecap="round" stroke-linejoin="round"/>
<path d="M74.3543 39.4562C73.1377 39.9811 71.5661 39.8449 70.1749 39.147L69.5187 42.7446L68.3076 42.041L68.961 38.5795L69.6116 38.1936C69.7721 38.2901 69.9355 38.3923 70.1073 38.4916C70.6649 38.815 71.293 39.1158 72.0337 39.147C72.3097 39.1583 72.6026 39.1356 72.9124 39.059C73.0363 39.0278 73.1968 38.9654 73.3517 38.8718L70.6621 37.3084L71.7971 37.158L73.9488 38.4093C74.2558 37.9241 73.7939 37.5042 73.1236 37.09L72.0703 36.4828L73.1855 36.3438L77.7143 38.9796L76.6412 39.1214L75.4077 38.4093C75.3936 38.5029 75.3654 38.5965 75.3203 38.6845C75.2584 38.8008 75.1598 38.9228 75.0303 39.0392L76.3624 39.8137L75.2161 39.9556L74.3515 39.4534L74.3543 39.4562Z" fill="black"/>
<path d="M90.3636 36.857C89.3075 48.5125 61.3748 48.3678 60.4454 36.7719C57.7699 51.31 89.2596 51.8746 90.358 39.6034L90.3664 36.857H90.3636Z" fill="#FCD700" stroke="black" stroke-width="0.105941" stroke-miterlimit="10"/>
<path d="M85.947 30.6422C91.8079 34.0497 91.8389 39.5767 86.0146 42.9871C80.1932 46.3947 70.719 46.3975 64.8582 42.9871C58.9973 39.5767 58.9663 34.0497 64.7906 30.6422C70.612 27.2346 80.0834 27.2318 85.947 30.6422Z" fill="#FFDE1D" stroke="black" stroke-width="0.105941" stroke-linecap="round" stroke-linejoin="round"/>
<path d="M77.9676 36.6481C76.751 37.173 75.1794 37.0368 73.7881 36.3389L73.1319 39.9365L71.9209 39.2329L72.5743 35.7714L73.2249 35.3855C73.3854 35.482 73.5488 35.5842 73.7206 35.6835C74.2782 36.0069 74.9062 36.3077 75.6469 36.3389C75.9229 36.3502 76.2158 36.3275 76.5256 36.2509C76.6496 36.2197 76.8101 36.1573 76.965 36.0637L74.2754 34.5003L75.4104 34.3499L77.5621 35.6012C77.869 35.116 77.4072 34.6961 76.7369 34.2818L75.6836 33.6747L76.7988 33.5356L81.3275 36.1715L80.2545 36.3133L79.0209 35.6012C79.0069 35.6948 78.9787 35.7884 78.9336 35.8764C78.8717 35.9927 78.7731 36.1147 78.6435 36.2311L79.9757 37.0056L78.8294 37.1475L77.9648 36.6453L77.9676 36.6481Z" fill="black"/>
<path d="M108.298 64.7261C107.242 76.3816 79.3094 76.2369 78.38 64.641C75.7045 79.1792 107.194 79.7438 108.293 67.4726L108.301 64.7261H108.298Z" fill="#FCD700" stroke="black" stroke-width="0.105941" stroke-miterlimit="10"/>
<path d="M103.882 58.5103C109.742 61.9179 109.773 67.4449 103.949 70.8553C98.1278 74.2629 88.6536 74.2657 82.7927 70.8553C76.9319 67.4449 76.9009 61.9179 82.7251 58.5103C88.5465 55.1028 98.018 55.0999 103.882 58.5103Z" fill="#FFDE1D" stroke="black" stroke-width="0.105941" stroke-linecap="round" stroke-linejoin="round"/>
<path d="M95.9012 64.5168C94.6845 65.0417 93.113 64.9055 91.7217 64.2075L91.0655 67.8052L89.8545 67.1015L90.5079 63.6401L91.1585 63.2542C91.319 63.3507 91.4823 63.4528 91.6541 63.5521C92.2118 63.8756 92.8398 64.1763 93.5805 64.2075C93.8565 64.2189 94.1494 64.1962 94.4592 64.1196C94.5832 64.0884 94.7437 64.0259 94.8986 63.9323L92.209 62.369L93.344 62.2186L95.4957 63.4698C95.8026 62.9847 95.3408 62.5647 94.6705 62.1505L93.6171 61.5433L94.7324 61.4043L99.2611 64.0401L98.1881 64.182L96.9545 63.4698C96.9404 63.5635 96.9123 63.6571 96.8672 63.745C96.8053 63.8614 96.7067 63.9834 96.5771 64.0997L97.9093 64.8743L96.763 65.0161L95.8984 64.5139L95.9012 64.5168Z" fill="black"/>
<path d="M108.298 61.9539C107.242 73.6094 79.3094 73.4647 78.38 61.8688C75.7045 76.4069 107.194 76.9716 108.293 64.7004L108.301 61.9539H108.298Z" fill="#FCD700" stroke="black" stroke-width="0.105941" stroke-miterlimit="10"/>
<path d="M103.882 55.7396C109.742 59.1472 109.773 64.6742 103.949 68.0846C98.1278 71.4921 88.6536 71.4949 82.7927 68.0846C76.9319 64.6742 76.9009 59.1472 82.7251 55.7396C88.5465 52.332 98.018 52.3292 103.882 55.7396Z" fill="#FFDE1D" stroke="black" stroke-width="0.105941" stroke-linecap="round" stroke-linejoin="round"/>
<path d="M95.9012 61.7455C94.6845 62.2704 93.113 62.1342 91.7217 61.4363L91.0655 65.0339L89.8545 64.3303L90.5079 60.8688L91.1585 60.483C91.319 60.5794 91.4823 60.6816 91.6541 60.7809C92.2118 61.1043 92.8398 61.4051 93.5805 61.4363C93.8565 61.4476 94.1494 61.4249 94.4592 61.3483C94.5832 61.3171 94.7437 61.2547 94.8986 61.1611L92.209 59.5977L93.344 59.4474L95.4957 60.6986C95.8026 60.2134 95.3408 59.7935 94.6705 59.3793L93.6171 58.7721L94.7324 58.6331L99.2611 61.2689L98.1881 61.4107L96.9545 60.6986C96.9404 60.7922 96.9123 60.8858 96.8672 60.9738C96.8053 61.0901 96.7067 61.2121 96.5771 61.3285L97.9093 62.103L96.763 62.2449L95.8984 61.7427L95.9012 61.7455Z" fill="black"/>
<path d="M108.298 59.5796C107.242 71.2351 79.3094 71.0904 78.38 59.4945C75.7045 74.0327 107.194 74.5973 108.293 62.3261L108.301 59.5796H108.298Z" fill="#FCD700" stroke="black" stroke-width="0.105941" stroke-miterlimit="10"/>
<path d="M103.882 53.3639C109.742 56.7714 109.773 62.2984 103.949 65.7088C98.1278 69.1164 88.6536 69.1192 82.7927 65.7088C76.9319 62.2984 76.9009 56.7714 82.7251 53.3639C88.5465 49.9563 98.018 49.9535 103.882 53.3639Z" fill="#FFDE1D" stroke="black" stroke-width="0.105941" stroke-linecap="round" stroke-linejoin="round"/>
<path d="M95.9012 59.3698C94.6845 59.8947 93.113 59.7585 91.7217 59.0605L91.0655 62.6582L89.8545 61.9546L90.5079 58.4931L91.1585 58.1072C91.319 58.2037 91.4823 58.3058 91.6541 58.4051C92.2118 58.7286 92.8398 59.0293 93.5805 59.0605C93.8565 59.0719 94.1494 59.0492 94.4592 58.9726C94.5832 58.9414 94.7437 58.879 94.8986 58.7853L92.209 57.222L93.344 57.0716L95.4957 58.3229C95.8026 57.8377 95.3408 57.4178 94.6705 57.0035L93.6171 56.3964L94.7324 56.2573L99.2611 58.8931L98.1881 59.035L96.9545 58.3229C96.9404 58.4165 96.9123 58.5101 96.8672 58.5981C96.8053 58.7144 96.7067 58.8364 96.5771 58.9527L97.9093 59.7273L96.763 59.8692L95.8984 59.367L95.9012 59.3698Z" fill="black"/>
<path d="M108.298 56.8099C107.242 68.4654 79.3094 68.3207 78.38 56.7247C75.7045 71.2629 107.194 71.8275 108.293 59.5563L108.301 56.8099H108.298Z" fill="#FCD700" stroke="black" stroke-width="0.105941" stroke-miterlimit="10"/>
<path d="M103.882 50.5936C109.742 54.0012 109.773 59.5282 103.949 62.9386C98.1278 66.3461 88.6536 66.349 82.7927 62.9386C76.9319 59.5282 76.9009 54.0012 82.7251 50.5936C88.5465 47.186 98.018 47.1832 103.882 50.5936Z" fill="#FFDE1D" stroke="black" stroke-width="0.105941" stroke-linecap="round" stroke-linejoin="round"/>
<path d="M95.9012 56.6016C94.6845 57.1265 93.113 56.9903 91.7217 56.2924L91.0655 59.89L89.8545 59.1864L90.5079 55.7249L91.1585 55.339C91.319 55.4355 91.4823 55.5376 91.6541 55.6369C92.2118 55.9604 92.8398 56.2611 93.5805 56.2924C93.8565 56.3037 94.1494 56.281 94.4592 56.2044C94.5832 56.1732 94.7437 56.1108 94.8986 56.0171L92.209 54.4538L93.344 54.3034L95.4957 55.5547C95.8026 55.0695 95.3408 54.6496 94.6705 54.2353L93.6171 53.6282L94.7324 53.4891L99.2611 56.125L98.1881 56.2668L96.9545 55.5547C96.9404 55.6483 96.9123 55.7419 96.8672 55.8299C96.8053 55.9462 96.7067 56.0682 96.5771 56.1845L97.9093 56.9591L96.763 57.101L95.8984 56.5988L95.9012 56.6016Z" fill="black"/>
<path d="M109.224 55.4396C108.168 67.0951 80.2352 66.9504 79.3058 55.3545C76.6302 69.8927 108.12 70.4573 109.218 58.1861L109.227 55.4396H109.224Z" fill="#FCD700" stroke="black" stroke-width="0.105941" stroke-miterlimit="10"/>
<path d="M104.807 49.2259C110.668 52.6335 110.699 58.1605 104.875 61.5709C99.0536 64.9784 89.5794 64.9813 83.7185 61.5709C77.8577 58.1605 77.8267 52.6335 83.6509 49.2259C89.4723 45.8184 98.9437 45.8155 104.807 49.2259Z" fill="#FFDE1D" stroke="black" stroke-width="0.105941" stroke-linecap="round" stroke-linejoin="round"/>
<path d="M96.828 55.2308C95.6113 55.7557 94.0398 55.6195 92.6485 54.9215L91.9923 58.5192L90.7812 57.8155L91.4346 54.3541L92.0852 53.9682C92.2458 54.0647 92.4091 54.1668 92.5809 54.2661C93.1385 54.5895 93.7666 54.8903 94.5073 54.9215C94.7833 54.9329 95.0762 54.9102 95.386 54.8336C95.5099 54.8023 95.6704 54.7399 95.8253 54.6463L93.1357 53.083L94.2707 52.9326L96.4224 54.1838C96.7294 53.6986 96.2675 53.2787 95.5972 52.8645L94.5439 52.2573L95.6592 52.1183L100.188 54.7541L99.1149 54.896L97.8813 54.1838C97.8672 54.2774 97.839 54.3711 97.794 54.459C97.732 54.5754 97.6334 54.6974 97.5039 54.8137L98.836 55.5883L97.6898 55.7301L96.8252 55.2279L96.828 55.2308Z" fill="black"/>
<path d="M78.6621 117.62C78.6621 117.665 78.6868 117.706 78.7256 117.728C78.7643 117.75 78.8121 117.75 78.8506 117.727L106.422 101.6C106.46 101.578 106.483 101.536 106.483 101.492V93.4285C106.483 93.3838 106.46 93.3423 106.421 93.3201C106.382 93.2978 106.334 93.2984 106.295 93.321L78.7246 109.489C78.6864 109.511 78.6621 109.552 78.6621 109.596V117.62Z" fill="#19BA7C" stroke="black" stroke-width="0.249604" stroke-miterlimit="10" stroke-linejoin="round"/>
<path d="M9.84375 69.1019C9.80515 69.0793 9.75657 69.0787 9.71777 69.101C9.67913 69.1232 9.65527 69.1647 9.65527 69.2094V77.2865C9.65527 77.3308 9.67948 77.3715 9.71777 77.3939L78.7246 117.727C78.7631 117.749 78.811 117.749 78.8496 117.727C78.888 117.705 78.912 117.664 78.9121 117.62V109.595C78.912 109.551 78.8886 109.51 78.8506 109.488L71.9326 105.436L58.125 97.3588L9.84375 69.1019Z" fill="#19BA7C" stroke="black" stroke-width="0.249604" stroke-miterlimit="10" stroke-linejoin="round"/>
<path d="M58.125 97.3466C58.0864 97.324 58.0388 97.3234 58 97.3456C57.9612 97.3678 57.9375 97.4093 57.9375 97.454V105.517C57.9375 105.562 57.9607 105.603 57.999 105.626L71.8066 113.689C71.8452 113.712 71.893 113.713 71.9316 113.69C71.9703 113.668 71.994 113.626 71.9941 113.582V105.531C71.9941 105.487 71.9706 105.446 71.9326 105.424L58.125 97.3466Z" fill="#B78B0D" stroke="black" stroke-width="0.249604" stroke-miterlimit="10" stroke-linejoin="round"/>
<path d="M37.4434 52.9888C37.4045 52.966 37.3563 52.9661 37.3174 52.9888L9.71777 69.103C9.67948 69.1254 9.6553 69.1661 9.65527 69.2104C9.65529 69.2548 9.67953 69.2955 9.71777 69.3179L78.7246 109.705C78.7635 109.727 78.8118 109.727 78.8506 109.705L106.422 93.5229C106.46 93.5005 106.483 93.4596 106.483 93.4155C106.483 93.3712 106.459 93.3295 106.421 93.3071L37.4434 52.9888Z" fill="#1FD896" stroke="black" stroke-width="0.249604" stroke-miterlimit="10" stroke-linejoin="round"/>
<path d="M85.7266 81.219C85.6877 81.1963 85.6395 81.1963 85.6006 81.219L58 97.3596C57.962 97.382 57.9386 97.423 57.9385 97.467C57.9385 97.5113 57.9619 97.553 58 97.5754L71.8076 105.653C71.8465 105.675 71.8947 105.675 71.9336 105.653L99.5195 89.4983C99.5577 89.4759 99.5811 89.4342 99.5811 89.3899C99.5809 89.3458 99.5575 89.3048 99.5195 89.2825L85.7266 81.219Z" fill="#FFC40D" stroke="black" stroke-width="0.249604" stroke-miterlimit="10" stroke-linejoin="round"/>
<path d="M81.2109 110.889C81.2109 110.934 81.2356 110.976 81.2744 110.998C81.3131 111.02 81.3609 111.019 81.3994 110.997L108.971 94.8699C109.009 94.8475 109.032 94.8057 109.032 94.7615V86.698C109.032 86.6534 109.008 86.6119 108.97 86.5896C108.931 86.5674 108.882 86.5679 108.844 86.5906L81.2734 102.759C81.2352 102.781 81.2109 102.822 81.2109 102.866V110.889Z" fill="#19BA7C" stroke="black" stroke-width="0.249604" stroke-miterlimit="10" stroke-linejoin="round"/>
<path d="M12.3926 62.3715C12.354 62.3489 12.3054 62.3482 12.2666 62.3705C12.228 62.3928 12.2041 62.4343 12.2041 62.4789V70.556C12.2041 70.6004 12.2283 70.6411 12.2666 70.6635L81.2734 110.996C81.312 111.019 81.3598 111.019 81.3984 110.996C81.4368 110.974 81.4608 110.933 81.4609 110.889V102.865C81.4608 102.821 81.4374 102.78 81.3994 102.757L74.4814 98.7054L60.6738 90.6283L12.3926 62.3715Z" fill="#19BA7C" stroke="black" stroke-width="0.249604" stroke-miterlimit="10" stroke-linejoin="round"/>
<path d="M60.6738 90.6161C60.6353 90.5935 60.5876 90.5929 60.5488 90.6151C60.51 90.6374 60.4863 90.6788 60.4863 90.7235V98.787C60.4863 98.8314 60.5095 98.873 60.5479 98.8954L74.3555 106.959C74.394 106.981 74.4418 106.982 74.4805 106.96C74.5191 106.938 74.5429 106.896 74.543 106.851V98.8007C74.5429 98.7565 74.5194 98.7157 74.4814 98.6932L60.6738 90.6161Z" fill="#B78B0D" stroke="black" stroke-width="0.249604" stroke-miterlimit="10" stroke-linejoin="round"/>
<path d="M39.9922 46.2583C39.9533 46.2356 39.9051 46.2356 39.8662 46.2583L12.2666 62.3726C12.2283 62.3949 12.2041 62.4356 12.2041 62.48C12.2041 62.5243 12.2284 62.565 12.2666 62.5874L81.2734 102.974C81.3123 102.997 81.3606 102.997 81.3994 102.974L108.971 86.7925C109.009 86.7701 109.032 86.7291 109.032 86.6851C109.032 86.6407 109.008 86.599 108.97 86.5767L39.9922 46.2583Z" fill="#1FD896" stroke="black" stroke-width="0.249604" stroke-miterlimit="10" stroke-linejoin="round"/>
<path d="M88.2754 74.4885C88.2365 74.4658 88.1883 74.4658 88.1494 74.4885L60.5488 90.6292C60.5108 90.6515 60.4875 90.6925 60.4873 90.7366C60.4873 90.7808 60.5107 90.8226 60.5488 90.845L74.3564 98.9221C74.3953 98.9448 74.4435 98.9448 74.4824 98.9221L102.068 82.7678C102.107 82.7454 102.13 82.7037 102.13 82.6594C102.13 82.6153 102.106 82.5744 102.068 82.552L88.2754 74.4885Z" fill="#FFC40D" stroke="black" stroke-width="0.249604" stroke-miterlimit="10" stroke-linejoin="round"/>
<path d="M39.6506 68.4026L40.904 69.133L45.0687 66.7211C44.9121 67.4812 45.2106 68.271 46.2121 69.029L43.4617 70.6214L44.7152 71.3517L47.4422 69.7721C50.2498 71.1161 53.9275 70.8825 57.258 69.0714C57.3194 71.3942 57.7323 74.1288 58.196 76.8614L60.6182 75.4601C60.2307 72.9462 59.8898 70.6086 59.7564 67.7721L58.2023 66.8676L56.8134 67.6723C54.0863 69.2519 51.4926 69.4409 49.5871 68.5343L55.3419 65.203L54.0884 64.4727L48.4098 67.7615C47.3088 66.7105 47.9207 65.5109 50.1143 64.2412L51.9076 63.203L50.2773 62.2518L39.6506 68.4048V68.4026Z" fill="black"/>
<path d="M78.6553 102.222C78.6553 102.267 78.68 102.308 78.7188 102.33C78.7575 102.353 78.8053 102.352 78.8438 102.329L106.415 86.2025C106.453 86.1801 106.477 86.1384 106.477 86.0941V78.0306C106.477 77.986 106.453 77.9445 106.414 77.9222C106.375 77.9 106.327 77.9006 106.288 77.9232L78.7178 94.0912C78.6796 94.1136 78.6553 94.1543 78.6553 94.1986V102.222Z" fill="#19BA7C" stroke="black" stroke-width="0.249604" stroke-miterlimit="10" stroke-linejoin="round"/>
<path d="M9.83691 53.7041C9.79832 53.6815 9.74973 53.6809 9.71094 53.7031C9.6723 53.7254 9.64844 53.7669 9.64844 53.8115V61.8887C9.64844 61.933 9.67265 61.9737 9.71094 61.9961L78.7178 102.329C78.7563 102.351 78.8041 102.351 78.8428 102.329C78.8812 102.307 78.9051 102.266 78.9053 102.222V94.1973C78.9051 94.1532 78.8817 94.1122 78.8438 94.0898L71.9258 90.0381L58.1182 81.9609L9.83691 53.7041Z" fill="#19BA7C" stroke="black" stroke-width="0.249604" stroke-miterlimit="10" stroke-linejoin="round"/>
<path d="M58.1182 81.9487C58.0796 81.9262 58.0319 81.9256 57.9932 81.9478C57.9544 81.97 57.9307 82.0114 57.9307 82.0562V90.1196C57.9307 90.164 57.9539 90.2057 57.9922 90.228L71.7998 98.2915C71.8383 98.3139 71.8861 98.3147 71.9248 98.2925C71.9634 98.2703 71.9872 98.2286 71.9873 98.1841V90.1333C71.9873 90.0892 71.9638 90.0483 71.9258 90.0259L58.1182 81.9487Z" fill="#B78B0D" stroke="black" stroke-width="0.249604" stroke-miterlimit="10" stroke-linejoin="round"/>
<path d="M37.4365 37.5912C37.3976 37.5685 37.3494 37.5685 37.3105 37.5912L9.71094 53.7054C9.67264 53.7278 9.64846 53.7685 9.64844 53.8129C9.64845 53.8572 9.67269 53.8979 9.71094 53.9203L78.7178 94.307C78.7567 94.3296 78.8049 94.3298 78.8438 94.307L106.415 78.1254C106.453 78.103 106.476 78.062 106.477 78.0179C106.477 77.9736 106.452 77.9319 106.414 77.9095L37.4365 37.5912Z" fill="#1FD896" stroke="black" stroke-width="0.249604" stroke-miterlimit="10" stroke-linejoin="round"/>
<path d="M58.6513 64.9241L46.3907 63.0011L45.3513 62.4011L45.871 62.101C46.7057 61.6192 47.3278 61.1691 47.7373 60.7509C48.1625 60.3236 48.3593 59.9099 48.3278 59.5098C48.2963 59.1098 47.9971 58.7097 47.4301 58.3097L42.8472 60.9554L41.3353 60.0826L45.8946 57.4505C45.2017 57.1777 44.5087 57.0323 43.8158 57.0141C43.1071 56.9868 42.3826 57.0868 41.6424 57.3141C40.918 57.5323 40.1541 57.8733 39.3509 58.337L38.8312 58.637L37.3193 57.7642L47.0994 52.118L48.6113 52.9909L44.1465 55.5684C44.808 55.5321 45.4615 55.5639 46.1072 55.6639C46.7529 55.7639 47.3829 55.9549 47.9971 56.2367L51.1154 54.4365L52.6273 55.3093L49.5563 57.0823C50.5957 57.8096 51.0524 58.5824 50.9264 59.4007C50.8004 60.2008 50.1941 61.0145 49.1074 61.8419L61.0608 63.533L58.6513 64.9241Z" fill="black"/>
<path d="M85.7197 65.8212C85.6808 65.7984 85.6327 65.7984 85.5938 65.8212L57.9932 81.9618C57.9552 81.9841 57.9318 82.0252 57.9316 82.0692C57.9316 82.1135 57.955 82.1552 57.9932 82.1776L71.8008 90.2548C71.8397 90.2775 71.8879 90.2775 71.9268 90.2548L99.5127 74.1005C99.5509 74.078 99.5742 74.0363 99.5742 73.9921C99.5741 73.948 99.5507 73.907 99.5127 73.8846L85.7197 65.8212Z" fill="#FFC40D" stroke="black" stroke-width="0.249604" stroke-miterlimit="10" stroke-linejoin="round"/>
<mask id="mask0_2510_97001" style="mask-type:luminance" maskUnits="userSpaceOnUse" x="12" y="113" width="5" height="1">
<path d="M16.0022 113.876L12.9668 113.491C13.0792 113.503 13.1916 113.515 13.3107 113.515L16.3461 113.9C16.2271 113.9 16.1147 113.894 16.0022 113.876Z" fill="white"/>
</mask>
<g mask="url(#mask0_2510_97001)">
<path d="M13.3107 113.515L16.3461 113.9C16.2271 113.9 16.1147 113.894 16.0022 113.876L12.9668 113.491C13.0792 113.503 13.1916 113.515 13.3107 113.515Z" fill="#858585"/>
</g>
<path d="M60.8057 113.57L62.9785 113.846H16.3457L14.1777 113.57H60.8057Z" fill="#ECC94B" stroke="black" stroke-width="0.109709"/>
<path d="M41.1201 64.9158C41.525 64.9661 41.9263 65.0203 42.248 65.073C42.4089 65.0993 42.5496 65.1251 42.6602 65.1501C42.7162 65.1629 42.7633 65.1749 42.8008 65.1863L42.8848 65.2185L42.8916 65.2214C43.0792 65.2921 43.2604 65.3862 43.4219 65.4978L43.4355 65.5076H43.4404C43.7965 65.7596 44.0713 66.0913 44.2637 66.4646L66.3584 109.576C66.5712 110.009 66.6798 110.48 66.6699 110.952H66.6582L66.6562 111.005C66.6303 111.731 66.3254 112.446 65.7988 112.996C65.3368 113.477 64.6753 113.803 63.9756 113.842L63.835 113.845L61.2939 113.522C62.2189 113.356 62.9303 112.762 63.3408 112.01C63.8209 111.129 63.8923 110.028 63.4131 109.14H63.4141L41.3193 66.0291C41.1041 65.619 40.8207 65.2806 40.4424 65.0164C40.3094 64.9233 40.1725 64.848 40.0293 64.7849C40.3534 64.8229 40.7388 64.8683 41.1201 64.9158Z" fill="#EDC808" stroke="black" stroke-width="0.109709"/>
<path d="M38.9434 64.6592C39.8564 64.6592 40.7502 65.1299 41.2363 66.0732L63.3301 109.185C64.2978 111.082 62.8995 113.455 60.8135 113.455H13.3115C11.2379 113.455 10.0102 111.088 11.1357 109.188H11.1367L36.5439 66.0762C37.1026 65.1306 38.0368 64.6593 38.9434 64.6592Z" fill="#FFD600" stroke="black" stroke-width="0.109709"/>
<path d="M35.8223 103.034C35.8223 101.849 36.9333 100.772 38.3882 100.772C39.7637 100.772 40.8747 101.855 40.8747 103.034C40.8747 104.327 39.7637 105.404 38.3882 105.404C36.9333 105.404 35.8223 104.327 35.8223 103.034ZM36.2058 81.0482H40.6895L39.7306 97.7029H37.1251L36.2058 81.0482Z" fill="black"/>
<mask id="mask1_2510_97001" style="mask-type:alpha" maskUnits="userSpaceOnUse" x="10" y="64" width="54" height="50">
<path d="M38.9437 64.6045C39.8761 64.6045 40.7887 65.0858 41.2847 66.0485L63.3793 109.159C64.3646 111.091 62.9428 113.51 60.8134 113.51H13.3111C11.1882 113.51 9.94495 111.091 11.089 109.159L36.4968 66.0485C37.0655 65.0858 38.0178 64.6045 38.9437 64.6045Z" fill="#FFF500"/>
</mask>
<g mask="url(#mask1_2510_97001)">
<rect opacity="0.57" x="24.2324" y="76.6071" width="10.4996" height="54.0947" transform="rotate(-36.2676 24.2324 76.6071)" fill="url(#paint0_linear_2510_97001)"/>
<rect opacity="0.57" x="17.0518" y="81.5802" width="5.79582" height="54.0947" transform="rotate(-36.2676 17.0518 81.5802)" fill="url(#paint1_linear_2510_97001)"/>
</g>
</g>
</g>
<defs>
<linearGradient id="paint0_linear_2510_97001" x1="29.4822" y1="76.6071" x2="29.4822" y2="130.702" gradientUnits="userSpaceOnUse">
<stop stop-color="white"/>
<stop offset="1" stop-color="white" stop-opacity="0"/>
</linearGradient>
<linearGradient id="paint1_linear_2510_97001" x1="19.9497" y1="81.5802" x2="19.9497" y2="135.675" gradientUnits="userSpaceOnUse">
<stop stop-color="white"/>
<stop offset="1" stop-color="white" stop-opacity="0"/>
</linearGradient>
<clipPath id="clip0_2510_97001">
<rect width="128" height="146" rx="10" fill="white"/>
</clipPath>
<clipPath id="clip1_2510_97001">
<rect width="125" height="124" fill="white" transform="translate(-3 11)"/>
</clipPath>
</defs>
</svg>
