<svg width="147" height="146" viewBox="0 0 147 146" fill="none" xmlns="http://www.w3.org/2000/svg">
<g opacity="0.49">
<path d="M0.118688 86.95C0.151632 75.2766 8.37272 64.7529 21.5886 57.1684C34.8074 49.5824 53.0448 44.9223 73.1681 44.9779C93.2916 45.0335 111.503 49.7942 124.679 57.4533C137.852 65.1106 146.013 75.6797 145.98 87.3531C145.947 99.0264 137.726 109.549 124.511 117.134C111.292 124.72 93.0536 129.381 72.9301 129.325C52.8066 129.27 34.596 124.508 21.4201 116.849C8.24734 109.192 0.0857886 98.6234 0.118688 86.95Z" stroke="black" stroke-width="0.236329" stroke-miterlimit="10"/>
<path d="M13.1504 86.9849C13.1773 77.3886 19.934 68.742 30.7874 62.5124C41.6439 56.2811 56.6209 52.4535 73.1457 52.4995C89.6705 52.5455 104.627 56.4564 115.448 62.7482C126.266 69.0381 132.975 77.7223 132.948 87.3185C132.921 96.9148 126.164 105.561 115.311 111.791C104.454 118.022 89.4764 121.85 72.9516 121.804C56.4268 121.758 41.4715 117.847 30.65 111.555C19.8317 105.265 13.1236 96.5812 13.1504 86.9849Z" stroke="black" stroke-width="0.236329" stroke-miterlimit="10"/>
<path d="M26.1762 87.0204C26.1975 79.5027 31.4907 72.7335 39.9829 67.8596C48.4783 62.9837 60.1965 59.99 73.1241 60.026C86.0517 60.062 97.7529 63.1209 106.221 68.044C114.686 72.9652 119.941 79.7637 119.92 87.2815C119.899 94.7994 114.606 101.569 106.113 106.443C97.6179 111.319 85.8997 114.313 72.9721 114.277C60.0446 114.241 48.3433 111.182 39.8753 106.259C31.4104 101.338 26.1552 94.5383 26.1762 87.0204Z" stroke="black" stroke-width="0.236329" stroke-miterlimit="10"/>
<path d="M39.2088 87.0569C39.2241 81.6176 43.0532 76.7262 49.1832 73.2076C55.3165 69.6873 63.7745 67.5266 73.1034 67.5526C82.4323 67.5785 90.8782 69.7863 96.9916 73.3408C103.102 76.8934 106.904 81.806 106.888 87.2453C106.873 92.6847 103.044 97.5761 96.9139 101.095C90.7806 104.615 82.3226 106.776 72.9937 106.75C63.6648 106.724 55.219 104.516 49.1055 100.961C42.9953 97.4088 39.1936 92.4962 39.2088 87.0569Z" stroke="black" stroke-width="0.236329" stroke-miterlimit="10"/>
</g>
<path d="M106.928 124.185C108.236 124.938 108.247 126.161 106.945 126.909C105.647 127.662 103.529 127.662 102.226 126.909C100.918 126.155 100.913 124.938 102.21 124.185C103.507 123.432 105.62 123.432 106.928 124.185Z" fill="#017AFF"/>
<path d="M76.589 113.416C77.2459 113.792 77.2513 114.404 76.6 114.78C75.9487 115.157 74.8923 115.157 74.2355 114.78C73.5787 114.404 73.5787 113.792 74.23 113.416C74.8813 113.039 75.9377 113.039 76.589 113.416Z" fill="#017AFF"/>
<path d="M126.315 103.848C127.437 104.492 127.442 105.54 126.331 106.184C125.22 106.828 123.408 106.828 122.286 106.184C121.164 105.54 121.159 104.498 122.275 103.848C123.387 103.204 125.198 103.204 126.315 103.848Z" fill="#017AFF"/>
<path d="M75.5433 58.9641C76.6654 59.6082 76.6708 60.6562 75.5597 61.3002C74.4486 61.9443 72.6369 61.9443 71.5149 61.3002C70.3928 60.6562 70.3874 59.6136 71.5039 58.9641C72.6205 58.3146 74.4267 58.32 75.5433 58.9641Z" fill="#3D3D3D"/>
<path d="M80.5403 51.9826C81.1643 52.3428 81.1697 52.9214 80.5512 53.2816C79.9327 53.6419 78.9256 53.6419 78.3017 53.2816C77.6777 52.9214 77.6777 52.3428 78.2962 51.9826C78.9147 51.6223 79.9218 51.6223 80.5458 51.9826H80.5403Z" fill="#3D3D3D"/>
<path d="M20.8314 57.5462C21.9535 58.1902 21.9589 59.2382 20.8478 59.8823C19.7367 60.5264 17.925 60.5264 16.803 59.8823C15.6809 59.2382 15.6755 58.1957 16.792 57.5462C17.9031 56.9021 19.7148 56.9021 20.8314 57.5462Z" fill="#017AFF"/>
<path d="M120.075 89.5539C120.612 89.865 120.617 90.3617 120.081 90.6728C119.55 90.984 118.68 90.9785 118.143 90.6728C117.607 90.3672 117.601 89.865 118.138 89.5539C118.669 89.2428 119.539 89.2428 120.075 89.5539Z" fill="#017AFF"/>
<path d="M38.6147 123.171C39.3098 123.569 39.3153 124.219 38.6256 124.623C37.936 125.021 36.8139 125.021 36.1188 124.623C35.4237 124.224 35.4182 123.575 36.1133 123.176C36.8085 122.778 37.925 122.778 38.6202 123.176L38.6147 123.171Z" fill="#017AFF"/>
<path d="M49.2842 116.472C49.2842 116.488 49.2764 116.503 49.2637 116.511C49.2509 116.52 49.2349 116.521 49.2207 116.515L46.3584 115.356C45.0343 114.819 44.1604 113.54 44.1445 112.11L43.3799 43.5369V43.5359C43.3955 42.3852 43.8702 41.2734 44.5459 40.3611C44.9364 39.8367 45.4316 39.3633 45.9902 39.03L45.9912 39.0291L73.5635 23.156H73.5645C73.8979 22.9742 74.2352 22.8361 74.6162 22.8044V22.8054C74.7506 22.7896 74.8887 22.8001 75.0146 22.821H75.0166C75.169 22.8525 75.3246 22.9002 75.46 22.9812H75.459L79.959 25.5876C79.981 25.6004 79.9892 25.6291 79.9766 25.6511C79.9639 25.6732 79.9352 25.6804 79.9131 25.6677C79.5407 25.4549 79.0903 25.463 78.6748 25.5994C78.6702 25.6009 78.665 25.6023 78.6602 25.6023H78.6572C78.4703 25.668 78.2947 25.7386 78.1045 25.8484L50.5322 41.7214H50.5312C50.3694 41.8122 50.2114 41.9283 50.0518 42.0515C48.9857 42.9256 48.2379 44.1994 48.0176 45.5583C48.0102 45.6063 48.004 45.6512 48.0146 45.7263C48.0256 45.8035 48.0548 45.9137 48.1201 46.0906C48.2509 46.4448 48.5251 47.0575 49.083 48.1882C49.0861 48.1945 49.0878 48.2018 49.0879 48.2087L49.2842 116.472Z" fill="#0157B5" stroke="black" stroke-width="0.0924009" stroke-linecap="round" stroke-linejoin="round"/>
<path d="M78.0693 25.7667C78.7933 25.3497 79.4599 25.3033 79.9492 25.5822C80.4386 25.8611 80.7347 26.4563 80.7373 27.2853L80.9336 95.549C80.9336 96.3807 80.6418 97.299 80.1719 98.1124C79.702 98.9258 79.0513 99.6386 78.3271 100.056L50.7549 115.929C50.0312 116.346 49.3644 116.393 48.875 116.115C48.3854 115.837 48.0895 115.242 48.0869 114.41L47.8906 46.1466C47.8906 45.3175 48.1816 44.399 48.6514 43.5851C49.1213 42.7711 49.7728 42.0569 50.4971 41.6398L78.0693 25.7667Z" fill="#017AFF" stroke="black" stroke-width="0.0924009" stroke-linecap="round" stroke-linejoin="round"/>
<path d="M51.15 107.848C50.6643 107.848 50.3492 107.456 50.3492 106.843L50.1787 46.3739C50.1787 45.5135 50.7832 44.4625 51.5375 44.0298L77.1158 29.3054C77.338 29.1766 77.5498 29.1147 77.7461 29.1147C78.2318 29.1147 78.5417 29.5114 78.5469 30.1194L78.7174 90.5832C78.7174 91.4436 78.1129 92.4946 77.3587 92.9273L51.7803 107.652C51.5633 107.781 51.3515 107.842 51.15 107.842V107.848Z" fill="black"/>
<path d="M77.7407 29.181C78.1747 29.181 78.4744 29.5262 78.4744 30.1238L78.6448 90.5877C78.6448 91.4274 78.0559 92.4527 77.3223 92.8751L51.7439 107.6C51.5321 107.723 51.3254 107.78 51.1498 107.78C50.7158 107.78 50.4161 107.435 50.411 106.842L50.2405 46.3784C50.2405 45.5335 50.8294 44.5134 51.5631 44.0909L77.1414 29.3665C77.3584 29.2428 77.5599 29.1862 77.7407 29.1862M77.7407 29.0574C77.5289 29.0574 77.3068 29.1243 77.0795 29.2583L51.5011 43.9827C50.721 44.4309 50.1113 45.4871 50.1113 46.3835L50.2818 106.847C50.2818 107.496 50.6228 107.914 51.1498 107.914C51.3564 107.914 51.5786 107.847 51.811 107.713L77.3894 92.9885C78.1695 92.5403 78.7792 91.4841 78.7792 90.5877L78.6087 30.1238C78.6087 29.4747 78.2677 29.0574 77.7459 29.0574H77.7407Z" fill="black"/>
<path d="M66.0986 100.718C66.7038 100.371 67.2636 100.332 67.6748 100.567C68.0858 100.801 68.3329 101.299 68.333 101.989C68.3356 102.682 68.0929 103.449 67.7012 104.127C67.3094 104.806 66.7655 105.402 66.1602 105.75C65.5553 106.097 64.996 106.135 64.585 105.9C64.1736 105.665 63.9268 105.165 63.9268 104.472C63.9243 103.782 64.1661 103.017 64.5576 102.339C64.9493 101.661 65.4933 101.066 66.0986 100.718Z" fill="white" stroke="black" stroke-width="0.0924009" stroke-miterlimit="10"/>
<path d="M72.0049 53.5465L72.0498 53.5553C72.0468 53.5703 72.0415 53.5856 72.0391 53.5944C72.0362 53.6045 72.0352 53.6121 72.0352 53.6188V53.6285L71.9893 53.6188L72.0342 53.6285C72.0239 53.6746 72.0132 53.7212 72.0029 53.7672V53.7692C71.9823 53.8461 71.9609 53.9248 71.9346 54.0035L71.9326 54.0104C71.9292 54.0172 71.9259 54.0255 71.9219 54.0377C71.9188 54.0469 71.9135 54.0582 71.9082 54.0699C71.906 54.0767 71.9036 54.0831 71.9014 54.0875L71.8965 54.0973C71.8943 54.1017 71.8955 54.1005 71.8955 54.0973V54.108L71.8906 54.1178C71.8769 54.1453 71.8679 54.1735 71.8574 54.2047L71.8564 54.2076C71.8313 54.2678 71.8044 54.3383 71.7725 54.402C71.7476 54.461 71.7175 54.5164 71.6895 54.5719V54.5944L71.6826 54.6061C71.6677 54.6308 71.6538 54.6556 71.6396 54.6813C71.6255 54.7069 71.6107 54.7338 71.5947 54.7604C71.5631 54.818 71.5259 54.8754 71.4902 54.9313V54.9323C71.4593 54.9785 71.4284 55.0247 71.3975 55.0709L71.3916 55.0787L71.3896 55.0817L71.3867 55.0885L71.3809 55.0934C71.3825 55.0918 71.3824 55.0917 71.3809 55.0944L71.3799 55.0963L71.376 55.1041L71.375 55.1031L71.251 55.274L71.1104 55.4508C71.0993 55.4645 71.0882 55.4766 71.0781 55.4879C71.0677 55.4996 71.0583 55.5113 71.0488 55.5231L71.0459 55.527L71.0449 55.526C71.0419 55.529 71.0388 55.5337 71.0332 55.5406C71.0285 55.5465 71.0218 55.5549 71.0146 55.5621C70.9886 55.5881 70.969 55.6071 70.9502 55.6305L70.9482 55.6334C70.8858 55.7008 70.8176 55.7674 70.75 55.8297C70.7185 55.8611 70.687 55.887 70.6572 55.9117L70.6582 55.9127C70.6443 55.9266 70.63 55.9393 70.6172 55.9508C70.6042 55.9624 70.5919 55.9731 70.5801 55.985L70.5771 55.9879C70.5627 56 70.5478 56.0137 70.5322 56.028L70.4844 56.0699C70.4153 56.1282 70.3394 56.1774 70.2695 56.2272L70.2686 56.2262C70.2229 56.2616 70.1764 56.2991 70.1289 56.3307H70.1279C70.0557 56.377 69.982 56.4241 69.9062 56.4684L69.6738 56.5914L62.1621 60.2018C62.0475 60.2589 61.9329 60.3058 61.8232 60.3424L61.8242 60.3434C61.8029 60.3525 61.7816 60.3582 61.7627 60.3629C61.7442 60.3675 61.7295 60.3694 61.7139 60.3737L61.7148 60.3746C61.6876 60.3855 61.6536 60.3971 61.624 60.403L61.623 60.402C61.5948 60.4114 61.5635 60.4218 61.5312 60.4274L61.5322 60.4283L61.3174 60.4645C61.2824 60.4702 61.2479 60.4703 61.2178 60.4703H60.9648C60.9129 60.4652 60.8658 60.4599 60.8193 60.4547L60.8115 60.4537L60.8037 60.4498H60.7637V60.4489C60.7513 60.4464 60.7378 60.4436 60.7236 60.441C60.7096 60.4385 60.6949 60.4359 60.6816 60.4332H60.6787C60.6378 60.423 60.5939 60.4116 60.5498 60.3951C60.5072 60.3792 60.4695 60.3628 60.4268 60.3414H60.4209L60.4111 60.3365L59.8242 60.0455C59.8224 60.0447 59.8202 60.0445 59.8184 60.0436L59.8193 60.0426H59.8174L59.8574 59.9596C59.9632 60.0098 60.0729 60.0492 60.1914 60.069H60.2129L60.2051 60.1139L60.2129 60.0699C60.3285 60.09 60.4535 60.0994 60.583 60.0895H60.6191C60.7383 60.0796 60.8683 60.055 60.999 60.0201L61.0449 60.0065C61.0596 60.0025 61.0711 59.9987 61.0811 59.9948L61.084 59.9938C61.2233 59.9475 61.3707 59.8965 61.5176 59.8258L69.0283 56.2145C69.1815 56.1381 69.3297 56.0515 69.4727 55.9547H69.4736C69.5184 55.9249 69.5637 55.8903 69.6104 55.8541V55.8531C69.7138 55.7758 69.8161 55.6992 69.9131 55.6178C69.9261 55.605 69.9392 55.5934 69.9512 55.5826C69.9641 55.571 69.9764 55.5603 69.9883 55.5485L69.9902 55.5465C70.1126 55.4398 70.2299 55.3228 70.3369 55.2008L70.3389 55.1979H70.3398C70.3427 55.1949 70.3463 55.1908 70.3516 55.1842C70.3563 55.1783 70.3628 55.1691 70.3701 55.1617C70.487 55.0298 70.5995 54.8879 70.7012 54.7408L70.7061 54.734L70.708 54.7311L70.71 54.7262H70.7109C70.8122 54.5747 70.9067 54.4238 70.9873 54.2692V54.2614L70.9922 54.2506C71.0739 54.0978 71.1452 53.9401 71.2012 53.7828C71.2033 53.7766 71.2059 53.7713 71.208 53.7672C71.2091 53.7651 71.2101 53.7629 71.2109 53.7614C71.2118 53.7596 71.2133 53.7586 71.2139 53.7574C71.216 53.7531 71.2148 53.7543 71.2148 53.7574V53.7496L71.2168 53.7418C71.2677 53.5998 71.3083 53.4525 71.3389 53.3102C71.3419 53.2952 71.3472 53.2798 71.3496 53.2711C71.3524 53.2611 71.3535 53.2542 71.3535 53.2477V53.2379L71.4004 53.2477L71.3545 53.2379C71.3849 53.0863 71.4004 52.9348 71.4004 52.7887C71.4003 52.1686 71.143 51.7385 70.7334 51.5367L70.7744 51.4547L71.3691 51.7477H71.3682C71.4808 51.8012 71.5832 51.8712 71.6699 51.9576C71.9336 52.2153 72.0869 52.5989 72.0869 53.0826C72.0869 53.2029 72.0772 53.323 72.0596 53.4469L72.0742 53.4547L72.0645 53.4908C72.0619 53.501 72.0567 53.5177 72.0547 53.525C72.0516 53.536 72.0508 53.5429 72.0508 53.5465V53.5553L72.0049 53.5465Z" fill="#999999" stroke="black" stroke-width="0.0924009" stroke-miterlimit="10"/>
<path d="M69.8633 51.0104C70.2295 50.9485 70.6251 50.9632 70.9707 51.1276C71.0512 51.1664 71.1642 51.2233 71.2764 51.2799C71.3889 51.3367 71.5014 51.3929 71.5811 51.4313L71.5605 51.4733L71.541 51.5143L71.54 51.5133C71.1823 51.3421 70.7641 51.3339 70.3711 51.4205L70.4268 51.4489L70.251 51.4576C70.2389 51.4583 70.2121 51.4646 70.168 51.4791C70.1254 51.4932 70.0708 51.5136 70.0059 51.5397C69.8761 51.5918 69.7057 51.6654 69.5088 51.7545C69.1151 51.9326 68.6145 52.1707 68.1123 52.4127C67.1095 52.896 66.0957 53.398 65.916 53.4733L62.1621 55.276L62.1602 55.277V55.276C61.3435 55.6262 60.3631 56.6193 59.8398 57.693C59.5785 58.2291 59.434 58.7809 59.4775 59.2789C59.5209 59.7748 59.7507 60.2204 60.2461 60.5485L60.2002 60.6285L59.9004 60.4791H59.8994C59.4796 60.3311 59.1972 60.0815 59.0244 59.7721C58.8513 59.462 58.7902 59.0946 58.8076 58.7145C58.8424 57.9555 59.1893 57.1338 59.6045 56.5817C60.094 55.8759 60.7507 55.279 61.5225 54.8942L61.5234 54.8932L65.2793 53.0905L65.2812 53.0895C65.5611 52.9743 66.563 52.4646 67.5684 51.9772C68.0699 51.734 68.5717 51.4964 68.9824 51.318C69.1876 51.2289 69.3712 51.1547 69.5205 51.1012C69.6679 51.0484 69.7873 51.0137 69.8633 51.0094V51.0104Z" fill="#999999" stroke="black" stroke-width="0.0924009" stroke-miterlimit="10"/>
<path d="M69.6289 51.5795C70.3806 51.2177 71.0708 51.181 71.5752 51.4261C72.082 51.6725 72.3894 52.1976 72.3867 52.9301C72.3866 53.6607 72.0788 54.4654 71.5859 55.1761C71.0926 55.8875 70.4114 56.5094 69.6592 56.8715L62.1475 60.4828C61.3957 60.8446 60.7056 60.8813 60.2012 60.6361C59.6944 60.3897 59.387 59.8646 59.3896 59.1322C59.3898 58.4016 59.6976 57.5969 60.1904 56.8861C60.6837 56.1749 61.365 55.5529 62.1172 55.1908L69.6289 51.5795ZM71.3213 51.8168C70.9055 51.6144 70.3224 51.6384 69.6689 51.9515L62.1572 55.5629C61.5045 55.8757 60.9115 56.4172 60.4814 57.0394C60.051 57.6622 59.7861 58.3619 59.7861 58.9886C59.7862 59.6137 60.0476 60.0443 60.4609 60.2455C60.8767 60.4478 61.4589 60.4238 62.1123 60.1107L69.624 56.4994C70.2769 56.1866 70.8706 55.6452 71.3008 55.0228C71.7312 54.4001 71.9951 53.7004 71.9951 53.0736C71.995 52.4487 71.7345 52.018 71.3213 51.8168Z" fill="white" stroke="black" stroke-width="0.0924009" stroke-miterlimit="10"/>
<path opacity="0.23" d="M78.7276 47.2241V60.6399L50.3181 83.9063L50.1631 71.3767L78.7276 47.2241Z" fill="white"/>
<path opacity="0.23" d="M78.6453 66.8733V74.8177L50.2409 98.0841L50.0859 91.0207L78.6453 66.8733Z" fill="white"/>
<path opacity="0.7" d="M90.5162 124.211L89.5656 125.314C89.3797 125.53 89.2092 125.664 89.0542 125.715L88.6977 125.654L88.6667 125.643L88.3774 125.597L54.5381 119.765L54.6621 103.062L70.9928 93.1497L71.1581 117.462L71.7419 118.152L72.4703 118.74L73.5656 119.203C73.5656 119.203 73.7671 119.342 73.9944 119.203C74.2217 119.064 75.1 118.987 75.1 118.987L75.379 118.977L85.8976 122.604L88.3464 123.449L90.5162 124.201V124.211Z" fill="black"/>
<path d="M73.043 89.8002C73.1205 89.7566 73.2305 89.6943 73.3701 89.6146C73.6494 89.4554 74.0489 89.2263 74.5508 88.9379C75.5545 88.3611 76.969 87.5464 78.6572 86.5726C82.0343 84.6249 86.5068 82.0415 90.9805 79.4603C95.4542 76.8792 99.9292 74.3001 103.31 72.3588C105 71.3881 106.417 70.5763 107.423 70.0043C107.926 69.7184 108.327 69.4919 108.607 69.3353C108.747 69.2573 108.858 69.1969 108.937 69.1547C108.976 69.1335 109.008 69.1167 109.031 69.1049C109.051 69.0951 109.068 69.0863 109.079 69.0824C109.273 69.0091 109.476 68.962 109.685 68.9672C109.858 68.9672 110.031 69.0149 110.183 69.101L112.115 70.2191L112.069 70.2992C111.761 70.1233 111.373 70.1555 111.045 70.2865C111.028 70.2934 110.977 70.3193 110.892 70.3656C110.807 70.4113 110.691 70.4758 110.545 70.557C110.254 70.7195 109.845 70.9502 109.336 71.2396C108.317 71.8186 106.896 72.6322 105.208 73.6019C101.831 75.5415 97.3815 78.1069 92.9355 80.6722C88.4899 83.2375 84.0468 85.803 80.6807 87.7445C77.339 89.6719 75.055 90.985 74.8867 91.0707L74.8877 91.0717C74.2357 91.4628 73.7296 92.084 73.3916 92.7582C73.1919 93.1615 73.0441 93.5994 72.9932 94.0463C72.9828 94.1596 72.9727 94.2707 72.9727 94.3812L73.0449 119.786C73.045 120.383 73.258 120.797 73.5898 120.987L73.5674 121.027L73.5439 121.067L71.6123 119.949V119.95C71.2417 119.738 71.0205 119.29 71.0205 118.667L70.9482 93.2631C70.9482 92.9647 70.9949 92.6667 71.0732 92.3802L71.0742 92.3793C71.3661 91.3764 71.9965 90.4225 72.9072 89.8744L72.9121 89.8715C72.9212 89.8673 72.9644 89.8443 73.043 89.8002Z" fill="#5B3814" stroke="#231F20" stroke-width="0.0924009" stroke-miterlimit="10"/>
<path d="M110.684 70.3549C111.229 70.0409 111.735 70.0031 112.107 70.2142C112.48 70.4255 112.703 70.8768 112.706 71.5023L112.778 96.9066L112.769 97.1439C112.722 97.7037 112.515 98.2995 112.206 98.8344C111.853 99.4454 111.363 99.9812 110.817 100.295L74.9736 120.935C74.4282 121.249 73.9231 121.284 73.5508 121.073C73.1782 120.861 72.9548 120.41 72.9521 119.786L72.8799 94.3822C72.8799 93.7565 73.0995 93.0656 73.4531 92.4545C73.8067 91.8434 74.2966 91.3076 74.8398 90.9935L110.684 70.3549Z" fill="#44280F" stroke="#231F20" stroke-width="0.0924009" stroke-miterlimit="10"/>
<path d="M105.605 75.6121C106.055 75.3523 106.476 75.3202 106.786 75.4958C107.097 75.6717 107.282 76.0467 107.282 76.5642L107.344 97.5017C107.344 98.0192 107.163 98.5906 106.871 99.0955C106.579 99.6003 106.175 100.043 105.725 100.303L76.1777 117.315C75.7278 117.575 75.3084 117.606 74.998 117.429C74.6874 117.253 74.502 116.878 74.502 116.363L74.4404 95.4255C74.4405 94.9082 74.6216 94.3376 74.9131 93.8328C75.2047 93.3278 75.6092 92.8838 76.0596 92.6238L105.605 75.6121Z" fill="#714C24" stroke="black" stroke-width="0.0924009" stroke-miterlimit="10"/>
<path d="M96.3428 84.8134C96.6608 84.631 96.959 84.6064 97.1816 84.7323C97.4045 84.8586 97.5354 85.1268 97.5381 85.4921L97.5791 100.134C97.5791 100.499 97.4525 100.901 97.248 101.255C97.0691 101.565 96.8291 101.842 96.5586 102.031L96.4404 102.106L75.7852 113.997C75.4672 114.179 75.1689 114.204 74.9463 114.078C74.7235 113.952 74.5925 113.683 74.5898 113.318L74.5488 98.6766V98.6757C74.5489 98.3103 74.6769 97.9096 74.8818 97.5555C75.087 97.2013 75.3717 96.8892 75.6875 96.704L96.3428 84.8134Z" fill="#895C30" stroke="black" stroke-width="0.0924009" stroke-miterlimit="10"/>
<path d="M92.0381 94.8101C92.2944 94.661 92.538 94.6403 92.7207 94.7446C92.9033 94.849 93.009 95.0692 93.0117 95.3647V95.3657L93.043 107.112C93.043 107.405 92.9408 107.729 92.7764 108.014C92.6119 108.299 92.3828 108.551 92.126 108.698L75.5576 118.239C75.3014 118.385 75.0585 118.406 74.876 118.302C74.6933 118.199 74.5867 117.98 74.584 117.684L74.5537 105.937C74.5538 105.641 74.6559 105.317 74.8203 105.033C74.9848 104.748 75.2141 104.499 75.4707 104.352L92.0381 94.8101Z" fill="#9E6A3B" stroke="black" stroke-width="0.0924009" stroke-miterlimit="10"/>
<path d="M95.6387 69.8136C96.4478 71.5338 96.6474 73.602 96.5449 75.839C96.4424 78.0762 96.037 80.4878 95.6328 82.8956C95.2284 85.3048 94.8255 87.7108 94.7246 89.9415C94.6237 92.1724 94.8254 94.2234 95.6279 95.924L95.6465 95.962L95.6094 95.9835L83.9746 102.681L83.9307 102.706L83.9102 102.66C83.0983 100.94 82.8972 98.872 82.999 96.6349C83.1009 94.3976 83.506 91.9861 83.9102 89.5782C84.3145 87.1691 84.7181 84.763 84.8184 82.5323C84.9186 80.3018 84.7151 78.2513 83.9102 76.5509L83.8916 76.5118L83.9287 76.4904C87.8085 74.2596 91.6986 72.0238 95.5732 69.7931L95.6172 69.7677L95.6387 69.8136Z" fill="#1FD896" stroke="black" stroke-width="0.0924009" stroke-miterlimit="10"/>
<path d="M92.9148 83.8599C92.8528 84.1896 92.8011 84.509 92.7494 84.8284C92.5428 85.1273 92.3258 85.4055 92.1192 85.694C91.9125 85.9722 91.7058 86.2607 91.4992 86.5492C91.2925 86.8274 91.0859 87.1262 90.8792 87.425C90.6623 87.7342 90.4453 88.0433 90.2283 88.373C90.063 88.4554 89.9183 88.5379 89.7633 88.6203C89.784 88.4348 89.8253 88.2494 89.846 88.0742C89.8873 87.8063 89.908 87.5796 89.908 87.3941C89.8976 87.2087 89.8666 87.0644 89.815 86.9614C89.7737 86.8583 89.7013 86.7965 89.6083 86.7759C89.5153 86.745 89.412 86.7553 89.288 86.8068C89.1537 87.559 89.0297 88.3009 88.916 89.0479C88.792 89.1097 88.6681 89.1716 88.5441 89.2334C88.6681 88.5018 88.792 87.7599 88.916 87.0335C88.8024 87.1159 88.6991 87.2293 88.6061 87.3529C88.5131 87.4766 88.4201 87.6105 88.3477 87.7651C88.2754 87.9196 88.2134 88.0948 88.1514 88.2803C88.0998 88.4554 88.0584 88.6615 88.0274 88.8779C87.9861 89.1046 87.9448 89.3313 87.9034 89.5683C87.7485 89.6404 87.5935 89.7228 87.4385 89.8053C87.6555 88.4451 87.9034 87.0696 88.1101 85.7094C88.2341 85.6373 88.3581 85.5755 88.4821 85.5137C88.3891 86.0495 88.3064 86.5853 88.2134 87.1211L88.3891 86.8532C88.4511 86.7604 88.5131 86.678 88.5854 86.6059C88.6474 86.5131 88.7301 86.441 88.8024 86.3792C88.885 86.3071 88.9677 86.2349 89.0504 86.1834C89.1124 85.8228 89.1744 85.4621 89.226 85.1118C89.35 85.05 89.474 84.9778 89.598 84.916C89.536 85.2664 89.4843 85.627 89.4223 85.9773C89.6083 85.8949 89.7633 85.8743 89.908 85.9052C90.0423 85.9361 90.1456 86.0185 90.2283 86.1319C90.3006 86.2658 90.3523 86.441 90.3729 86.6677C90.3936 86.8841 90.3833 87.1623 90.3316 87.4714C90.5176 87.2035 90.7139 86.9253 90.9206 86.6265C91.1169 86.338 91.3339 86.0392 91.5509 85.7403C91.7678 85.4312 91.9952 85.1221 92.2225 84.813C92.4498 84.5039 92.6771 84.1844 92.9148 83.865V83.8599Z" fill="black"/>
<path d="M80.4697 94.2377C81.3014 93.7218 82.2397 93.4359 83.2266 93.6635H83.2275C83.4105 93.7091 83.6867 93.8543 83.9521 94.0062L84.6436 94.4095L84.6221 94.4496L84.5996 94.4906L84.4805 94.4301C83.8814 94.1466 83.2352 94.161 82.6113 94.3441C81.9456 94.5396 81.3074 94.9254 80.7861 95.3402C78.9349 96.8684 77.6457 99.1307 77.3682 101.519L77.3672 101.52C77.2752 102.19 77.346 102.908 77.5547 103.515C77.7637 104.123 78.1092 104.614 78.5615 104.841L78.5645 104.843L78.5205 104.924C78.5195 104.924 78.5186 104.923 78.5176 104.922L77.5771 104.376C76.7888 103.917 76.3048 102.951 76.3047 101.591V101.59C76.3307 99.6302 77.1619 97.7453 78.3389 96.2045L78.3398 96.2035C78.9098 95.5008 79.6383 94.7535 80.4697 94.2377Z" fill="#FCD700" stroke="black" stroke-width="0.0924009" stroke-miterlimit="10"/>
<path d="M78.5085 97.8861C79.3512 96.4399 80.4553 95.3258 81.5616 94.6947C82.6667 94.0644 83.783 93.911 84.6396 94.4072C85.4961 94.9035 85.916 95.9471 85.914 97.2168C85.9119 98.4877 85.488 99.9961 84.6454 101.442C83.8027 102.888 82.6986 104.002 81.5923 104.634C80.4871 105.264 79.3705 105.416 78.514 104.92C77.6576 104.423 77.238 103.381 77.2399 102.111C77.2419 100.84 77.6659 99.3322 78.5085 97.8861Z" fill="#FFDE1D" stroke="black" stroke-width="0.0924009" stroke-miterlimit="10"/>
<path d="M82.9633 97.5135V97.8381L82.0385 98.3739C82.2038 98.4255 82.3226 98.5749 82.3536 98.8479L82.9684 98.4976V98.8222L82.364 99.1725C82.3071 99.8629 81.8577 100.543 81.1344 100.981C81.5735 101.249 82.054 101.63 82.5293 102.022L81.992 102.331C81.5529 101.98 81.1396 101.656 80.6074 101.316V100.919L80.9174 100.739C81.527 100.388 81.8473 99.9144 81.8887 99.4455L80.6074 100.182V99.8577L81.8732 99.1313C81.7905 98.8015 81.496 98.7861 81.0052 99.0695L80.6074 99.3013V98.884L82.9736 97.5239L82.9633 97.5135Z" fill="black"/>
<path d="M103.872 89.843L103.842 89.8547L91.2051 94.4036L91.1582 94.4202L91.1445 94.3723C90.6483 92.5367 90.8148 90.4656 91.3096 88.2815C91.8044 86.0972 92.6294 83.7947 93.4521 81.4954C94.2754 79.1947 95.0971 76.8966 95.5898 74.718C96.0825 72.5395 96.2447 70.4849 95.7529 68.6692L95.7422 68.6282L95.7822 68.6135C97.8874 67.8562 99.9964 67.0977 102.105 66.3391C104.215 65.5805 106.323 64.821 108.429 64.0637L108.477 64.0471L108.489 64.0959C108.983 65.9315 108.815 68.0027 108.319 70.1868C107.824 72.3709 107 74.673 106.177 76.9719C105.353 79.2722 104.531 81.5695 104.038 83.7473C103.545 85.9253 103.382 87.9796 103.871 89.7942L103.874 89.8059H103.872V89.843Z" fill="#1FD896" stroke="black" stroke-width="0.0924009" stroke-miterlimit="10"/>
<path d="M103.329 77.4446C103.21 77.7589 103.102 78.0628 102.999 78.3668C102.74 78.6244 102.482 78.8614 102.229 79.1087C101.976 79.3457 101.723 79.593 101.469 79.8403C101.216 80.0772 100.963 80.3348 100.705 80.5924C100.436 80.8604 100.167 81.1231 99.8988 81.4116C99.7231 81.4631 99.563 81.5198 99.3977 81.5713C99.4493 81.391 99.5217 81.2158 99.5733 81.051C99.6612 80.7934 99.7232 80.577 99.7541 80.3915C99.7748 80.206 99.7696 80.0618 99.7386 79.9484C99.718 79.8403 99.656 79.7681 99.5682 79.7321C99.4803 79.6857 99.377 79.6754 99.2479 79.7063C98.9844 80.4224 98.7312 81.1283 98.4884 81.8495C98.3541 81.8908 98.2249 81.9268 98.0906 81.968C98.3437 81.2725 98.5917 80.5615 98.8449 79.866C98.7209 79.9278 98.5969 80.0206 98.4832 80.1236C98.3696 80.2267 98.2559 80.3452 98.1578 80.4843C98.0596 80.6234 97.9666 80.7831 97.8736 80.9582C97.791 81.1231 97.7135 81.3189 97.6463 81.525C97.5636 81.7413 97.4861 81.9577 97.4035 82.1793C97.2382 82.2256 97.0728 82.2772 96.9023 82.3287C97.357 81.0304 97.8426 79.7166 98.2869 78.4183C98.4212 78.3668 98.5556 78.3307 98.6847 78.2895C98.4987 78.7996 98.3231 79.3096 98.1371 79.8248L98.3592 79.593C98.4367 79.5105 98.5142 79.4436 98.5969 79.3869C98.6744 79.3045 98.7674 79.2478 98.85 79.2014C98.943 79.1447 99.036 79.0881 99.129 79.052C99.253 78.7068 99.377 78.3668 99.4907 78.0319C99.625 77.9907 99.7593 77.9443 99.8885 77.9031C99.7645 78.238 99.6508 78.5832 99.5268 78.9129C99.7231 78.8665 99.8781 78.8717 100.018 78.9284C100.142 78.9799 100.229 79.0829 100.291 79.2066C100.338 79.3508 100.359 79.5311 100.338 79.7578C100.322 79.9742 100.26 80.2473 100.157 80.5409C100.39 80.3091 100.627 80.0721 100.886 79.8145C101.128 79.5672 101.397 79.3096 101.661 79.052C101.929 78.7841 102.208 78.5213 102.482 78.2586C102.761 77.9958 103.04 77.7228 103.329 77.4497V77.4446Z" fill="black"/>
<path d="M92.0381 94.8099C92.2944 94.6608 92.538 94.6402 92.7207 94.7445C92.9033 94.8489 93.009 95.0691 93.0117 95.3646V95.3656L93.043 107.112C93.043 107.405 92.9408 107.729 92.7764 108.014C92.6119 108.299 92.3828 108.551 92.126 108.698L75.5576 118.239C75.3014 118.385 75.0585 118.406 74.876 118.302C74.6933 118.198 74.5867 117.98 74.584 117.684L74.5537 105.937C74.5538 105.641 74.6559 105.317 74.8203 105.033C74.9848 104.748 75.2141 104.499 75.4707 104.352L92.0381 94.8099Z" fill="#9E6A3B" stroke="black" stroke-width="0.0924009" stroke-miterlimit="10"/>
<path d="M110.528 69.874H110.529L112.983 70.5957L112.971 70.6396L112.958 70.6846L112.957 70.6836H112.955C112.847 70.6553 112.74 70.678 112.64 70.7295C112.573 70.7637 112.511 70.8116 112.452 70.8613H112.485L112.361 70.9463L112.348 70.9619C112.335 70.9754 112.318 70.9948 112.295 71.0205C112.249 71.0725 112.182 71.1494 112.097 71.248C111.926 71.4454 111.678 71.7326 111.365 72.0967C110.739 72.8252 109.851 73.8624 108.787 75.1045C106.66 77.5889 103.833 80.895 101.006 84.2021C98.1789 87.5094 95.3524 90.818 93.2246 93.3057C92.1607 94.5495 91.2713 95.5883 90.6445 96.3193C90.3313 96.6847 90.0835 96.9731 89.9121 97.1719C89.8264 97.2713 89.759 97.3484 89.7129 97.4014C89.6899 97.4277 89.6719 97.4485 89.6592 97.4629C89.6531 97.4697 89.6483 97.4754 89.6445 97.4795C89.6425 97.4817 89.6385 97.4846 89.6357 97.4873C89.1316 98.1132 88.8305 98.8836 88.625 99.6572C88.5017 100.129 88.4199 100.619 88.4199 101.104L88.3936 126.349C88.4039 126.556 88.4098 126.798 88.4648 127.013C88.5199 127.227 88.6225 127.406 88.8213 127.496L88.7891 127.583L86.335 126.861H86.334C86.1608 126.804 86.0497 126.65 85.9854 126.495V126.494C85.8737 126.213 85.8477 125.923 85.8477 125.627V125.622L85.8545 125.277C85.8564 125.074 85.8583 124.788 85.8594 124.432C85.8614 123.719 85.8618 122.723 85.8613 121.538C85.8604 119.168 85.8554 116.041 85.8516 112.912C85.8477 109.784 85.8448 106.653 85.8477 104.274C85.8491 103.085 85.8515 102.084 85.8564 101.365C85.8589 101.006 85.8626 100.716 85.8662 100.51C85.868 100.407 85.87 100.324 85.8721 100.263C85.8741 100.204 85.876 100.162 85.8789 100.144C85.9728 98.9328 86.3467 97.6777 87.1074 96.7061L87.1123 96.7002L87.1152 96.6982C87.1181 96.695 87.1223 96.69 87.1279 96.6836C87.1393 96.6706 87.1559 96.6512 87.1777 96.626C87.2219 96.575 87.287 96.4993 87.3711 96.4014C87.5394 96.2056 87.7851 95.9195 88.0967 95.5557C88.7199 94.8281 89.6077 93.7902 90.6719 92.5459C92.8002 90.0573 95.6338 86.7423 98.4668 83.4287C101.3 80.115 104.133 76.8022 106.259 74.3193C107.321 73.0781 108.208 72.0445 108.829 71.3213C109.14 70.9599 109.384 70.6757 109.551 70.4824C109.634 70.3858 109.699 70.3115 109.743 70.2617C109.765 70.2369 109.782 70.2178 109.793 70.2051C109.799 70.1989 109.803 70.194 109.807 70.1904C109.808 70.1887 109.81 70.1862 109.812 70.1846C109.813 70.1836 109.815 70.1818 109.816 70.1807V70.1797C109.909 70.0876 110.016 69.9929 110.145 69.9287H110.146C110.259 69.875 110.395 69.8392 110.528 69.874Z" fill="#5B3814" stroke="#231F20" stroke-width="0.0924009" stroke-miterlimit="10"/>
<path d="M112.867 70.5476C113.061 70.5478 113.214 70.671 113.315 70.8855C113.416 71.0991 113.471 71.4097 113.471 71.8044V71.8347L113.445 97.075L113.437 97.3113C113.403 97.8728 113.273 98.4966 113.078 99.0779C112.856 99.7417 112.548 100.355 112.204 100.758L90.5469 126.059L89.5967 127.162C89.4088 127.38 89.2313 127.521 89.0645 127.577L89.0605 127.579C88.9723 127.598 88.8745 127.609 88.7871 127.58C88.7803 127.58 88.7741 127.581 88.7695 127.58C88.768 127.579 88.767 127.578 88.7656 127.577L88.6943 127.543C88.6734 127.53 88.654 127.515 88.6367 127.499C88.5876 127.466 88.5457 127.419 88.5127 127.363C88.5095 127.361 88.5049 127.36 88.502 127.357C88.4985 127.354 88.4972 127.349 88.4951 127.345L88.4941 127.346C88.4679 127.305 88.4458 127.265 88.4287 127.219C88.4129 127.177 88.3962 127.131 88.3809 127.085V127.083C88.3491 126.972 88.3224 126.845 88.3066 126.693V126.673C88.302 126.644 88.2991 126.616 88.2979 126.588L88.2959 126.503C88.2862 126.445 88.2861 126.391 88.2861 126.338V125.266L88.3115 101.094C88.3115 100.911 88.3275 100.717 88.3535 100.52C88.3632 100.433 88.3693 100.343 88.3945 100.249C88.4051 100.154 88.4212 100.064 88.4424 99.9792C88.4839 99.7625 88.5356 99.5448 88.6084 99.3269C88.6346 99.2231 88.6661 99.1297 88.7021 99.032C88.7329 98.9451 88.764 98.8531 88.7949 98.7605L88.7969 98.7517H88.7979C88.8094 98.7309 88.8205 98.7075 88.832 98.6814C88.8434 98.6556 88.8556 98.6264 88.8691 98.5994C88.8992 98.5243 88.9303 98.4467 88.9717 98.3689C88.9979 98.3114 89.0297 98.2488 89.0605 98.1873V98.1863C89.0841 98.1419 89.1083 98.1002 89.1309 98.0603C89.1535 98.0203 89.175 97.9821 89.1953 97.9441C89.1991 97.9344 89.2032 97.927 89.2061 97.9236C89.2072 97.9222 89.2093 97.9204 89.21 97.9197L89.2119 97.9158C89.268 97.8242 89.3216 97.7343 89.3799 97.655C89.4421 97.5671 89.505 97.4838 89.5674 97.406L89.5684 97.405L89.6455 97.3171L89.8418 97.0906C89.9453 96.9667 90.0905 96.7966 90.2559 96.6111L91.7012 94.9216L93.1533 93.2224L94.4189 91.7429L95.8037 90.1208V90.1199L96.7852 88.9822L101.466 83.4998L102.525 82.2683L104.592 79.8474L105.087 79.2654H105.088L107.454 76.5037L111.52 71.7585L112.17 70.9958C112.171 70.9947 112.172 70.9937 112.174 70.9919C112.177 70.9878 112.182 70.9816 112.187 70.9753C112.196 70.9634 112.21 70.9472 112.22 70.9373L112.354 70.8025L112.355 70.8015C112.54 70.6336 112.711 70.5476 112.867 70.5476Z" fill="#714C24" stroke="#231F20" stroke-width="0.0924009" stroke-miterlimit="10"/>
<path d="M92.1943 107.083L92.1934 107.085L92.9268 107.296L92.9053 107.386C92.8862 107.382 92.8576 107.381 92.8271 107.381C92.8007 107.386 92.7709 107.394 92.7412 107.411L92.7363 107.414V107.413C92.7109 107.424 92.6841 107.443 92.6553 107.466V107.473L92.6318 107.496L92.6299 107.499C92.5902 107.534 92.5549 107.568 92.5146 107.613L85.5195 115.67V115.671C85.4809 115.714 85.4405 115.767 85.4004 115.827C85.3898 115.846 85.3788 115.867 85.3672 115.886C85.3556 115.905 85.344 115.924 85.334 115.942C85.3237 115.96 85.313 115.977 85.3027 115.995C85.2929 116.012 85.2823 116.029 85.2725 116.046L85.2734 116.047C85.2634 116.067 85.2526 116.088 85.2422 116.11C85.2319 116.132 85.2216 116.155 85.2109 116.176C85.1903 116.217 85.1705 116.258 85.1504 116.303L85.1494 116.305C85.1479 116.308 85.1454 116.312 85.1426 116.319C85.1407 116.324 85.1375 116.33 85.1348 116.336L85.1357 116.337C85.1047 116.415 85.074 116.491 85.0488 116.571L85.0459 116.578V116.586L85.043 116.593C85.0131 116.677 84.9878 116.762 84.9678 116.846V116.867L84.9658 116.866C84.9457 116.952 84.9263 117.041 84.9111 117.126V117.142C84.8959 117.233 84.8853 117.32 84.875 117.407V117.417C84.865 117.507 84.8652 117.592 84.8652 117.675L84.9219 122.368V122.482C84.9269 122.545 84.9363 122.609 84.9463 122.664H84.9443C84.9483 122.676 84.9499 122.686 84.9502 122.694H84.9521C84.962 122.744 84.976 122.791 84.9941 122.827C84.9956 122.83 84.9969 122.831 85 122.836C85.0012 122.838 85.003 122.842 85.0049 122.847V122.848L85.0352 122.899C85.0454 122.913 85.056 122.926 85.0664 122.937L85.0781 122.949C85.0996 122.971 85.1243 122.987 85.1514 122.994L85.126 123.083L84.3926 122.871C84.3466 122.858 84.3144 122.832 84.2842 122.807H84.2832L84.2793 122.803L84.2754 122.8L84.2734 122.797L84.2695 122.793C84.2397 122.763 84.211 122.723 84.1885 122.678V122.677C84.1861 122.673 84.1832 122.67 84.1816 122.667C84.1801 122.664 84.1786 122.658 84.1768 122.651L84.1758 122.652C84.1599 122.61 84.1438 122.562 84.1279 122.504L84.1299 122.503C84.1249 122.49 84.1222 122.478 84.1221 122.469C84.1123 122.416 84.0957 122.348 84.0957 122.271V122.163L84.0391 117.47V117.318L84.0439 117.222V117.179H84.0459C84.0492 117.165 84.0488 117.15 84.0488 117.129C84.0488 117.109 84.0522 117.09 84.0547 117.075C84.0574 117.059 84.0596 117.047 84.0596 117.036V117.027L84.1055 117.036L84.0605 117.027C84.062 117.02 84.0637 117.012 84.0654 117.005C84.0672 116.998 84.0689 116.991 84.0703 116.984C84.0733 116.971 84.0752 116.959 84.0752 116.948V116.905L84.0771 116.898C84.0818 116.884 84.0849 116.869 84.085 116.861V116.854L84.0879 116.847C84.0971 116.819 84.1014 116.796 84.1064 116.766V116.765C84.1094 116.75 84.1145 116.734 84.1182 116.72C84.1219 116.705 84.1248 116.692 84.127 116.679L84.1289 116.671L84.1328 116.659C84.1339 116.656 84.1352 116.654 84.1357 116.652C84.1368 116.649 84.1367 116.647 84.1367 116.645V116.618L84.1416 116.609C84.143 116.606 84.1443 116.602 84.1455 116.598C84.1461 116.596 84.1473 116.594 84.1475 116.593V116.586L84.1494 116.578C84.1539 116.565 84.1572 116.551 84.1611 116.535C84.1649 116.52 84.17 116.503 84.1758 116.485C84.1862 116.449 84.196 116.418 84.2061 116.388C84.2083 116.381 84.2117 116.376 84.2139 116.371L84.2188 116.361C84.221 116.357 84.2197 116.358 84.2197 116.361V116.351L84.2246 116.341V116.333L84.2275 116.326C84.2295 116.32 84.2316 116.315 84.2334 116.311C84.2355 116.306 84.2369 116.303 84.2383 116.3C84.2409 116.294 84.2403 116.293 84.2402 116.294V116.281L84.2861 116.294L84.2422 116.281C84.2532 116.243 84.2692 116.2 84.2852 116.163C84.2953 116.138 84.3053 116.112 84.3154 116.087L84.3174 116.083L84.3232 116.068C84.3256 116.063 84.3294 116.054 84.333 116.047C84.3356 116.042 84.3379 116.037 84.3398 116.034C84.3419 116.031 84.3428 116.03 84.3438 116.028V116.027L84.3477 116.019C84.3637 115.981 84.3791 115.949 84.3945 115.918C84.4154 115.871 84.4367 115.83 84.457 115.789C84.4779 115.748 84.5001 115.713 84.5186 115.681C84.5399 115.638 84.5623 115.6 84.5898 115.562C84.5913 115.559 84.5925 115.557 84.5938 115.555C84.5947 115.553 84.5958 115.552 84.5967 115.551V115.55L84.6035 115.538C84.6307 115.495 84.6631 115.452 84.6953 115.414C84.6999 115.407 84.7048 115.401 84.708 115.398C84.7108 115.394 84.714 115.392 84.7158 115.39C84.7168 115.389 84.7172 115.387 84.7178 115.387L84.7188 115.386L91.7119 107.33C91.7289 107.308 91.746 107.291 91.7607 107.276L91.7656 107.272C91.7727 107.266 91.7799 107.26 91.7891 107.251C91.7966 107.244 91.8061 107.234 91.8174 107.225L91.8213 107.219C91.8231 107.217 91.827 107.212 91.832 107.208C91.8327 107.208 91.834 107.207 91.835 107.206C91.8365 107.205 91.8386 107.203 91.8398 107.202L91.8428 107.199C91.8478 107.193 91.8526 107.188 91.8564 107.185C91.8591 107.182 91.8621 107.18 91.8633 107.179L91.8701 107.172L91.8955 107.21L91.8711 107.173C91.8865 107.163 91.9016 107.152 91.917 107.142C91.9256 107.136 91.9265 107.136 91.9375 107.128C91.9456 107.122 91.956 107.115 91.9697 107.11C91.9743 107.109 91.9783 107.107 91.9873 107.103C91.9911 107.101 91.9965 107.099 92.002 107.097C92.0063 107.095 92.013 107.094 92.0205 107.094C92.0329 107.089 92.0473 107.083 92.0615 107.083H92.1943Z" fill="#5B3814" stroke="#231F20" stroke-width="0.0924009" stroke-miterlimit="10"/>
<path d="M92.7402 107.308C92.8351 107.27 92.9269 107.273 93.0059 107.322C93.0829 107.369 93.1413 107.455 93.1807 107.569C93.2202 107.683 93.2425 107.829 93.2451 108.003L93.3018 112.697C93.307 113.046 93.232 113.45 93.1074 113.823C92.983 114.195 92.8076 114.54 92.6084 114.768L85.6133 122.826C85.5152 122.939 85.4176 123.016 85.3242 123.053C85.2293 123.091 85.1375 123.087 85.0586 123.038C84.9816 122.991 84.9232 122.906 84.8838 122.792C84.8442 122.679 84.822 122.532 84.8193 122.358L84.7627 117.664C84.7574 117.316 84.8325 116.911 84.957 116.538C85.0815 116.166 85.2569 115.821 85.4561 115.593L92.4512 107.536C92.5494 107.422 92.6468 107.345 92.7402 107.308Z" fill="#714C24" stroke="#231F20" stroke-width="0.0924009" stroke-miterlimit="10"/>
<path d="M86.9676 115.999C87.4481 115.34 87.851 115.608 87.8614 116.597C87.8717 117.586 87.4946 118.926 87.0141 119.585C86.5336 120.245 86.1307 119.977 86.1203 118.988C86.11 117.998 86.4871 116.659 86.9676 115.999ZM87.0141 119.529C87.4791 118.89 87.851 117.591 87.8355 116.633C87.8252 115.675 87.4326 115.417 86.9676 116.056C86.5026 116.695 86.1307 117.993 86.1462 118.951C86.1617 119.91 86.5491 120.167 87.0141 119.529Z" fill="#191617"/>
<path d="M87.2773 115.697C87.3909 115.64 87.5019 115.641 87.5967 115.704C87.6879 115.764 87.7566 115.879 87.8037 116.032C87.8511 116.186 87.8779 116.386 87.8818 116.628C87.8897 117.113 87.8004 117.682 87.6504 118.209C87.5004 118.736 87.2887 119.227 87.0518 119.552C86.9337 119.714 86.8174 119.825 86.7061 119.88C86.5924 119.937 86.4816 119.937 86.3867 119.874C86.2954 119.813 86.2268 119.699 86.1797 119.545C86.1323 119.391 86.1045 119.191 86.1006 118.949C86.0954 118.464 86.1855 117.895 86.335 117.368C86.4842 116.841 86.6937 116.35 86.9307 116.025C87.0489 115.863 87.1659 115.752 87.2773 115.697Z" fill="#FFC40D" stroke="black" stroke-width="0.0924009" stroke-miterlimit="10"/>
<path d="M68.7969 53.3513L68.8066 53.3708L68.7988 53.3904L68.5459 54.0291L68.5088 54.1228L68.333 53.7859L68.3232 53.7673L68.3311 53.7478L68.584 53.1091L68.6211 53.0144L68.7969 53.3513Z" fill="#818181" stroke="black" stroke-width="0.0924009" stroke-miterlimit="10"/>
<path d="M68.6699 53.1423L68.417 53.782L68.4082 53.8044L68.3838 53.8093L65.9971 54.3142L65.9131 54.3328L65.9443 54.2527L66.1973 53.614L66.207 53.5906L66.2305 53.5857L68.6182 53.0808L68.7021 53.0623L68.6699 53.1423Z" fill="#9B9B9B" stroke="black" stroke-width="0.0924009" stroke-miterlimit="10"/>
<path d="M68.7998 53.3907L68.5469 54.0304L68.5371 54.0529L68.5127 54.0577L67.5781 54.254L67.4932 54.2716L67.5254 54.1915L67.7842 53.5529L67.793 53.5294L67.8174 53.5245L68.7471 53.3292L68.8311 53.3116L68.7998 53.3907Z" fill="black" stroke="black" stroke-width="0.0924009" stroke-miterlimit="10"/>
<path d="M69.1943 54.1052L69.2041 54.1248L69.1963 54.1443L68.9434 54.783L68.9062 54.8767L68.7305 54.5398L68.7207 54.5212L68.7285 54.5017L68.9814 53.863L69.0186 53.7683L69.1943 54.1052Z" fill="#828282" stroke="black" stroke-width="0.0924009" stroke-miterlimit="10"/>
<path d="M69.0693 53.8962L68.8164 54.5359L68.8066 54.5583L68.7822 54.5632L68.1631 54.6921L68.0791 54.7097L68.1104 54.6306L68.3633 53.991L68.373 53.9685L68.3975 53.9636L69.0166 53.8347L69.1006 53.8171L69.0693 53.8962Z" fill="#9B9B9B" stroke="black" stroke-width="0.0924009" stroke-miterlimit="10"/>
<mask id="mask0_2510_97729" style="mask-type:luminance" maskUnits="userSpaceOnUse" x="67" y="53" width="2" height="2">
<path d="M68.4053 54.0124L68.1522 54.6512C68.1108 54.5946 68.0695 54.5379 68.0178 54.4915C67.8887 54.3627 67.7337 54.27 67.5684 54.2133L67.8215 53.5745C67.9868 53.6311 68.1418 53.7239 68.271 53.8527C68.3175 53.899 68.364 53.9506 68.4053 54.0124Z" fill="white"/>
</mask>
<g mask="url(#mask0_2510_97729)">
<path d="M67.9561 53.5781C68.0784 53.6365 68.2012 53.7172 68.3037 53.8193C68.3514 53.8669 68.4007 53.921 68.4443 53.9863L68.458 54.0059L68.4492 54.0283L68.1953 54.668L68.165 54.7451L68.1152 54.6777C68.0734 54.6204 68.0347 54.5679 67.9873 54.5254L67.9854 54.5234C67.8918 54.4302 67.778 54.3556 67.6631 54.3008L67.624 54.2822L67.6396 54.2422L67.8926 53.6035L67.9111 53.5576L67.9561 53.5781Z" fill="#858585" stroke="black" stroke-width="0.0924009" stroke-miterlimit="10"/>
<path d="M67.8408 53.5303C67.8583 53.5377 67.877 53.5459 67.8965 53.5537C67.9157 53.5614 67.9355 53.5692 67.9541 53.5771L67.9961 53.5947L67.9795 53.6367L67.7256 54.2754L67.708 54.3193L67.665 54.3008C67.6288 54.2853 67.5929 54.2699 67.5527 54.2549L67.5088 54.2393L67.5264 54.1953L67.7793 53.5566L67.7969 53.5117L67.8408 53.5303Z" fill="#8A8A8A" stroke="black" stroke-width="0.0924009" stroke-miterlimit="10"/>
</g>
<path d="M67.8369 53.5278C68.0083 53.5866 68.1694 53.683 68.3037 53.8169C68.3513 53.8644 68.3998 53.9187 68.4434 53.9839L68.457 54.0044L68.4482 54.0269L68.1953 54.6655L68.1641 54.7437L68.1152 54.6753C68.0734 54.618 68.0347 54.5655 67.9873 54.5229L67.9854 54.522C67.8615 54.3985 67.7127 54.3089 67.5537 54.2544L67.5078 54.2388L67.5254 54.1938L67.7783 53.5552L67.7949 53.5142L67.8369 53.5278Z" stroke="black" stroke-width="0.0924009" stroke-miterlimit="10"/>
<path d="M69.1982 54.1427L68.9453 54.7823L68.9355 54.8048L68.9111 54.8097L68.2969 54.9386L68.2129 54.9562L68.2441 54.8771L68.4971 54.2374L68.5068 54.215L68.5312 54.2101L69.1455 54.0812L69.2295 54.0636L69.1982 54.1427Z" fill="black" stroke="black" stroke-width="0.0924009" stroke-miterlimit="10"/>
<mask id="mask1_2510_97729" style="mask-type:luminance" maskUnits="userSpaceOnUse" x="66" y="53" width="2" height="2">
<path d="M67.9129 54.1152L67.6597 54.7541C67.6597 54.7541 67.6339 54.7232 67.6184 54.7077C67.3859 54.4759 67.0243 54.414 66.5645 54.5068L66.8176 53.8679C67.2826 53.77 67.639 53.837 67.8715 54.0689C67.887 54.0843 67.9025 54.0998 67.9129 54.1152Z" fill="white"/>
</mask>
<g mask="url(#mask1_2510_97729)">
<path d="M67.6689 53.8713C67.756 53.9093 67.8385 53.9637 67.9053 54.0354L67.9521 54.0881L67.9658 54.1086L67.957 54.1311L67.7041 54.7698L67.6758 54.842L67.626 54.7825H67.625L67.624 54.7815C67.6233 54.7807 67.6223 54.779 67.6211 54.7776C67.6185 54.7746 67.6152 54.7703 67.6113 54.7659C67.603 54.7562 67.5934 54.7459 67.5869 54.7395C67.5294 54.6821 67.4563 54.6336 67.377 54.594L67.3389 54.5745L67.3545 54.5354L67.6074 53.8967L67.625 53.8518L67.6689 53.8713Z" fill="black" stroke="black" stroke-width="0.0924009" stroke-miterlimit="10"/>
<path d="M67.3848 53.7909C67.4865 53.8069 67.5778 53.8343 67.6641 53.8719L67.7051 53.8895L67.6885 53.9315L67.4355 54.5702L67.418 54.6141L67.374 54.5956C67.2952 54.5612 67.2115 54.5362 67.1172 54.5214L67.0596 54.5126L67.0811 54.4589L67.334 53.8202L67.3477 53.785L67.3848 53.7909Z" fill="black" stroke="black" stroke-width="0.0924009" stroke-miterlimit="10"/>
<path d="M67.3838 53.7915L67.4414 53.8013L67.4199 53.855L67.167 54.4937L67.1533 54.5269L67.1182 54.522C66.9588 54.5021 66.7723 54.5118 66.5693 54.5522L66.4863 54.5688L66.5176 54.4907L66.7705 53.8511L66.7803 53.8286L66.8037 53.8237C67.0194 53.7765 67.2115 53.7647 67.3838 53.7915Z" fill="black" stroke="black" stroke-width="0.0924009" stroke-miterlimit="10"/>
</g>
<path d="M66.8105 53.8197C67.2833 53.7202 67.6592 53.7862 67.9072 54.0336C67.9218 54.0481 67.9407 54.0673 67.9541 54.0873L67.9678 54.1068L67.959 54.1293L67.7061 54.7679L67.6768 54.8402L67.627 54.7806L67.626 54.7797C67.6253 54.7788 67.6243 54.7772 67.623 54.7758C67.6205 54.7728 67.6172 54.7685 67.6133 54.764C67.6049 54.7544 67.5953 54.7441 67.5889 54.7377C67.3722 54.5216 67.029 54.4579 66.5762 54.5492L66.4932 54.5658L66.5244 54.4867L66.7773 53.848L66.7871 53.8256L66.8105 53.8197Z" stroke="black" stroke-width="0.0924009" stroke-miterlimit="10"/>
<mask id="mask2_2510_97729" style="mask-type:luminance" maskUnits="userSpaceOnUse" x="68" y="54" width="1" height="2">
<path d="M68.5648 54.7939L68.3117 55.4328C68.3737 55.2731 68.3685 55.0876 68.291 54.8867L68.5442 54.2478C68.6268 54.4487 68.632 54.6291 68.5648 54.7939Z" fill="white"/>
</mask>
<g mask="url(#mask2_2510_97729)">
<path d="M68.5859 54.229C68.6615 54.4128 68.676 54.5835 68.6299 54.7427L68.6064 54.8101L68.3535 55.4487L68.2676 55.4146C68.3245 55.2677 68.3213 55.0943 68.2471 54.9019L68.2402 54.8853L68.2471 54.8687L68.5 54.23L68.542 54.1235L68.5859 54.229Z" fill="#858585" stroke="black" stroke-width="0.0924009" stroke-miterlimit="10"/>
</g>
<path d="M68.5879 54.2358C68.6635 54.4196 68.678 54.5904 68.6318 54.7495L68.6084 54.8169L68.3555 55.4556L68.2695 55.4214C68.3264 55.2746 68.3232 55.1011 68.249 54.9087L68.2422 54.8921L68.249 54.8755L68.502 54.2368L68.5439 54.1304L68.5879 54.2358Z" stroke="black" stroke-width="0.0924009" stroke-miterlimit="10"/>
<path d="M66.8574 53.8822L66.6045 54.5219L66.5947 54.5443L66.5713 54.5492L66.168 54.6371L66.083 54.6556L66.1152 54.5746L66.3682 53.9359L66.3779 53.9135L66.4014 53.9076L66.8047 53.8207L66.8896 53.8021L66.8574 53.8822Z" fill="black" stroke="black" stroke-width="0.0924009" stroke-miterlimit="10"/>
<path d="M66.2812 53.609L66.4521 53.9283L66.4619 53.9469L66.4541 53.9674L66.2012 54.6061L66.1641 54.6989L66.1172 54.611L65.9463 54.2906L65.9365 54.2721L65.9443 54.2526L66.1973 53.6139L66.2344 53.5211L66.2812 53.609Z" fill="black" stroke="black" stroke-width="0.0924009" stroke-miterlimit="10"/>
<mask id="mask3_2510_97729" style="mask-type:luminance" maskUnits="userSpaceOnUse" x="67" y="54" width="2" height="2">
<path d="M68.0772 54.7018L67.8241 55.3406C67.8654 55.2376 67.8603 55.1191 67.8086 54.9954L68.0617 54.3566C68.1134 54.4802 68.1186 54.5987 68.0772 54.7018Z" fill="white"/>
</mask>
<g mask="url(#mask3_2510_97729)">
<path d="M68.1035 54.3385C68.1449 54.4377 68.1596 54.5364 68.1445 54.6285L68.1191 54.7184L67.8662 55.3571L67.8232 55.3405L67.7803 55.3229C67.8162 55.2333 67.8126 55.1272 67.7646 55.0123L67.7578 54.9957L67.7646 54.9781L68.0176 54.3395L68.0596 54.234L68.1035 54.3385Z" fill="black" stroke="black" stroke-width="0.0924009" stroke-miterlimit="10"/>
</g>
<path d="M68.1025 54.3389C68.144 54.4381 68.1586 54.5367 68.1436 54.6289L68.1182 54.7188L67.8652 55.3574L67.8223 55.3408L67.7793 55.3232C67.8152 55.2337 67.8117 55.1275 67.7637 55.0127L67.7568 54.9961L67.7637 54.9785L68.0166 54.3398L68.0586 54.2344L68.1025 54.3389Z" stroke="black" stroke-width="0.0924009" stroke-miterlimit="10"/>
<path d="M67.957 54.1305L67.7041 54.7701L67.6953 54.7926L67.6709 54.7975L66.3896 55.066L66.3047 55.0836L66.3369 55.0035L66.5957 54.3649L66.6045 54.3414L66.6289 54.3365L67.9043 54.069L67.9893 54.0514L67.957 54.1305Z" fill="#9B9B9B" stroke="black" stroke-width="0.0924009" stroke-miterlimit="10"/>
<path d="M68.1025 54.3706L67.8496 55.0103L67.8398 55.0327L67.8154 55.0376L66.5244 55.311L66.4404 55.3286L66.4717 55.2485L66.7246 54.6099L66.7344 54.5874L66.7578 54.5815L68.0498 54.3091L68.1338 54.2905L68.1025 54.3706Z" fill="black" stroke="black" stroke-width="0.0924009" stroke-miterlimit="10"/>
<path d="M66.6787 54.3573L66.8086 54.6044L66.8184 54.6239L66.8105 54.6434L66.5576 55.2821L66.5205 55.3739L66.4736 55.287L66.3389 55.0399L66.3291 55.0204L66.3369 54.9999L66.5957 54.3612L66.6328 54.2684L66.6787 54.3573Z" fill="black" stroke="black" stroke-width="0.0924009" stroke-miterlimit="10"/>
<mask id="mask4_2510_97729" style="mask-type:luminance" maskUnits="userSpaceOnUse" x="67" y="54" width="2" height="2">
<path d="M68.0737 54.708L67.8205 55.3469C67.743 55.5375 67.5157 55.6869 67.123 55.7693L67.3762 55.1305C67.7688 55.048 67.9962 54.8986 68.0737 54.708Z" fill="white"/>
</mask>
<g mask="url(#mask4_2510_97729)">
<path d="M68.1172 54.7207C68.1168 54.7221 68.1156 54.7233 68.1152 54.7246L67.8623 55.3643V55.3652C67.8454 55.4045 67.8226 55.4429 67.8008 55.4756L67.5596 55.8369L67.7197 55.4326L67.9727 54.7939L67.9756 54.7871L67.9805 54.7812C67.9972 54.7612 68.0093 54.7385 68.0186 54.7168L68.0293 54.6914L68.1172 54.7207Z" fill="#8A8A8A" stroke="black" stroke-width="0.0924009" stroke-miterlimit="10"/>
<path d="M68.0537 54.8286L67.8008 55.4683L67.7959 55.481L67.793 55.479C67.6746 55.6305 67.4512 55.7481 67.127 55.8159L67.043 55.8335L67.0742 55.7534L67.3271 55.1147L67.3369 55.0913L67.3613 55.0864C67.677 55.0204 67.876 54.9101 67.9746 54.7837L68.1729 54.5298L68.0537 54.8286Z" fill="#8F8F8F" stroke="black" stroke-width="0.0924009" stroke-miterlimit="10"/>
</g>
<path d="M68.1172 54.7217L67.8643 55.3613C67.7778 55.5741 67.5303 55.7282 67.1338 55.8115L67.0498 55.8291L67.0811 55.749L67.334 55.1104L67.3438 55.0879L67.3682 55.082C67.7564 55.0004 67.9638 54.8559 68.0322 54.6875L68.1172 54.7217Z" stroke="black" stroke-width="0.0924009" stroke-miterlimit="10"/>
<mask id="mask5_2510_97729" style="mask-type:luminance" maskUnits="userSpaceOnUse" x="67" y="54" width="2" height="2">
<path d="M68.5648 54.7987L68.3117 55.4376C68.2083 55.6952 67.9294 55.8909 67.4902 55.9991L67.7434 55.3603C68.1825 55.2521 68.4615 55.0563 68.5648 54.7987Z" fill="white"/>
</mask>
<g mask="url(#mask5_2510_97729)">
<path d="M68.5645 54.7987L68.6074 54.8153L68.3545 55.455L68.3535 55.454C68.3309 55.5157 68.298 55.5719 68.2598 55.621L68.0625 55.8739L68.1807 55.5751L68.4336 54.9364L68.4385 54.9237L68.459 54.9393L68.4404 54.9247C68.4735 54.8822 68.5022 54.8291 68.5215 54.7811L68.5645 54.7987Z" fill="black" stroke="black" stroke-width="0.0924009" stroke-miterlimit="10"/>
<path d="M68.5195 54.9689L68.2666 55.6085L68.2617 55.6202L68.2607 55.6193C68.1126 55.8108 67.8531 55.9592 67.501 56.0431L67.415 56.0636L67.4473 55.9816L67.7002 55.3419L67.709 55.3195L67.7324 55.3146C68.0725 55.2336 68.3096 55.093 68.4404 54.924L68.6406 54.6661L68.5195 54.9689Z" fill="black" stroke="black" stroke-width="0.0924009" stroke-miterlimit="10"/>
</g>
<path d="M68.5645 54.8016L68.6074 54.8182L68.3545 55.4579C68.243 55.7356 67.9461 55.9371 67.501 56.0468L67.4141 56.0682L67.4473 55.9852L67.7002 55.3466L67.709 55.3241L67.7324 55.3182C68.1654 55.2115 68.4263 55.0214 68.5215 54.7841L68.5645 54.8016Z" stroke="black" stroke-width="0.0924009" stroke-miterlimit="10"/>
<path d="M67.4209 55.1433L67.1621 55.782L67.1533 55.8044L67.1289 55.8093L66.8193 55.8767L66.7354 55.8953L66.7666 55.8142L67.0195 55.1707L67.0293 55.1472L67.0537 55.1423L67.3691 55.0808L67.4531 55.0642L67.4209 55.1433Z" fill="#9B9B9B" stroke="black" stroke-width="0.0924009" stroke-miterlimit="10"/>
<mask id="mask6_2510_97729" style="mask-type:luminance" maskUnits="userSpaceOnUse" x="67" y="55" width="3" height="3">
<path d="M69.8874 56.4781L69.6342 57.1169C68.8903 56.7099 68.1412 56.3081 67.4902 55.999L67.7434 55.3601C68.3943 55.6641 69.1435 56.0711 69.8874 56.4781Z" fill="white"/>
</mask>
<g mask="url(#mask6_2510_97729)">
<path d="M67.7627 55.3188C68.4151 55.6235 69.1656 56.0312 69.9092 56.438L69.9453 56.4575L69.9307 56.4956L69.6768 57.1343L69.6582 57.1831L69.6123 57.1577C68.8685 56.7508 68.1203 56.35 67.4707 56.0415L67.4316 56.0229L67.4473 55.9829L67.7002 55.3442L67.7188 55.2983L67.7627 55.3188Z" fill="#858585" stroke="black" stroke-width="0.0924009" stroke-miterlimit="10"/>
</g>
<path d="M67.7627 55.3197C68.4151 55.6243 69.1656 56.0321 69.9092 56.4388L69.9453 56.4584L69.9307 56.4965L69.6768 57.1351L69.6582 57.184L69.6123 57.1586C68.8685 56.7516 68.1203 56.3508 67.4707 56.0424L67.4316 56.0238L67.4473 55.9838L67.7002 55.3451L67.7188 55.2992L67.7627 55.3197Z" stroke="black" stroke-width="0.0924009" stroke-miterlimit="10"/>
<path d="M67.1035 55.1672L67.2637 55.4768L67.2734 55.4954L67.2656 55.5149L67.0127 56.1536L66.9756 56.2473L66.9287 56.1584L66.7686 55.8547L66.7588 55.8352L66.7666 55.8157L67.0195 55.1721L67.0566 55.0774L67.1035 55.1672Z" fill="black" stroke="black" stroke-width="0.0924009" stroke-miterlimit="10"/>
<path d="M63.0791 53.1073C63.0771 53.1083 63.0743 53.1083 63.0723 53.1093C63.0698 53.1101 63.0673 53.112 63.0645 53.1132C63.0582 53.1159 63.0524 53.1187 63.0469 53.121C63.0408 53.1243 63.0365 53.1274 63.0342 53.1298L63.0205 53.1434H63.002C63.0002 53.1445 62.9978 53.1452 62.9961 53.1464L62.9248 53.1942V53.0692L62.9561 53.0585H62.958C62.9588 53.0582 62.9598 53.0578 62.9609 53.0575C62.9633 53.0568 62.9668 53.0554 62.9707 53.0546C62.9716 53.0544 62.9726 53.0548 62.9736 53.0546C62.9821 53.0503 62.9895 53.045 62.9971 53.0419C63.0059 53.0383 63.0135 53.036 63.0205 53.0331C63.0301 53.0289 63.0381 53.0243 63.0439 53.0223L63.0791 53.1073Z" fill="#FFDE1D" stroke="black" stroke-width="0.0924009" stroke-miterlimit="10"/>
<path d="M68.7383 50.2665C68.8754 50.226 69.0065 50.1753 69.1318 50.1053L69.1396 50.1005V50.1014L69.1807 50.0809L69.1963 50.076L69.2109 50.0819C70.1379 50.4172 71.0182 50.9145 71.7705 51.5721L72.085 51.8641C73.2702 53.0487 73.8397 54.4316 73.7979 55.7108C73.7561 56.9832 73.1091 58.1478 71.8711 58.9081V58.9198L71.8486 58.9335C70.592 59.6899 68.9775 59.892 67.3828 59.6112C65.7876 59.3302 64.2073 58.5652 63.0195 57.3807C62.0317 56.3955 61.4893 55.2781 61.3535 54.1952L61.3506 54.1757L61.3643 54.16C61.3768 54.145 61.388 54.131 61.3994 54.1171C61.411 54.1029 61.4235 54.0878 61.4365 54.0721C61.4436 54.0608 61.4506 54.0505 61.457 54.0409C61.4648 54.0293 61.4715 54.0184 61.4785 54.0067L61.4834 53.9989L61.5449 53.9325C61.5661 53.9106 61.5889 53.8896 61.6143 53.87V53.869C61.6342 53.8541 61.6534 53.8396 61.6729 53.8241L61.7334 53.7762C61.7493 53.7632 61.7655 53.7521 61.7803 53.7411C61.7958 53.7294 61.8098 53.7179 61.8242 53.7059L61.833 53.6991C61.918 53.6567 61.99 53.5912 62.043 53.5145L62.0479 53.5077L62.0801 53.5399L62.0488 53.5077L62.0498 53.5067C62.05 53.5063 62.05 53.5056 62.0508 53.5038L62.0674 53.4706L62.0928 53.4686C62.212 53.4587 62.3295 53.4296 62.4307 53.3719L62.4336 53.37C62.521 53.3276 62.6042 53.2754 62.6895 53.2206C62.7742 53.1662 62.8613 53.109 62.9541 53.0614L62.9639 53.0565H62.9756C62.973 53.0565 62.9696 53.0572 62.9756 53.0555C62.9795 53.0544 62.985 53.0535 62.9912 53.0526C63.0676 53.0221 63.1321 52.9949 63.1865 52.9452C63.1912 52.9403 63.1964 52.9329 63.2041 52.9227C63.2113 52.9132 63.221 52.9 63.2314 52.8895L63.2432 52.8788L63.2578 52.8768L63.3662 52.8612C63.4479 52.8422 63.5275 52.7908 63.6035 52.7352L63.6094 52.7313L63.6162 52.7294C63.6529 52.7172 63.6713 52.7145 63.6982 52.701C63.7193 52.6882 63.7413 52.6764 63.7607 52.6659C63.782 52.6543 63.8009 52.6438 63.8164 52.6327L63.8281 52.6239H63.8428C63.841 52.624 63.8418 52.6245 63.8535 52.62C63.8637 52.6161 63.8791 52.609 63.9014 52.6014C64.0553 52.54 64.1948 52.4794 64.3418 52.3934C64.5695 52.2593 64.8021 52.1295 65.0352 52.0106C65.492 51.7673 65.9231 51.5863 66.3574 51.411L66.7266 51.2499C67.0878 51.0774 67.4309 50.8757 67.7891 50.6815H67.79C68.0309 50.5589 68.2777 50.4229 68.5342 50.329L68.541 50.326H68.5498C68.548 50.326 68.5492 50.3259 68.5547 50.3241C68.5596 50.3224 68.5664 50.3197 68.5752 50.3153L68.584 50.3114L68.7383 50.2665Z" fill="#FFDE1D" stroke="black" stroke-width="0.0924009" stroke-miterlimit="10"/>
<path d="M68.6268 53.1257L68.7559 53.373L67.8208 53.5688C67.9862 53.6255 68.1412 53.7182 68.2703 53.847C68.3168 53.8934 68.3633 53.9449 68.4046 54.0067L69.0246 53.8779L69.1538 54.1252L68.539 54.254C68.7456 54.7692 68.4563 55.1865 67.7434 55.3617C68.3943 55.6657 69.1434 56.0727 69.8874 56.4797L69.3397 56.593C68.6526 56.2221 68.012 55.8769 67.2215 55.4957L67.0614 55.1917L67.3765 55.1247C67.9913 54.9959 68.2032 54.7022 68.0585 54.3571L66.7669 54.6301L66.6378 54.3828L67.9138 54.1149C67.9138 54.1149 67.888 54.084 67.8725 54.0685C67.64 53.8367 67.2784 53.7749 66.8186 53.8676L66.4156 53.9501L66.2451 53.6306L68.632 53.1257H68.6268Z" fill="black"/>
<path d="M61.4619 54.16C61.6152 55.5688 62.4796 56.8377 63.6553 57.7968C64.7574 58.6957 66.1291 59.319 67.4336 59.5282L67.6934 59.5643L67.6943 59.5653C68.7876 59.7317 70.0067 59.6296 71.0625 59.2118C72.0518 58.8202 72.8961 58.1519 73.3633 57.1669L73.4521 56.9657L73.5371 57.0009C73.4633 57.1811 73.3765 57.4109 73.2832 57.6317C73.1896 57.8532 73.0854 58.0722 72.9746 58.2382L72.9756 58.2391C71.82 60.0538 69.436 60.5846 67.4277 60.2948C65.8635 60.0951 64.3058 59.3711 63.126 58.33C61.9461 57.2887 61.1405 55.9268 61.0908 54.4501L61.0898 54.4257L61.1084 54.411C61.2129 54.3316 61.2982 54.2422 61.3789 54.1366L61.4492 54.0448L61.4619 54.16Z" fill="#C99709" stroke="black" stroke-width="0.0924009" stroke-miterlimit="10"/>
<path d="M56.6631 39.3309L58.4824 40.3876C58.4964 40.3959 58.5049 40.4113 58.5049 40.4276C58.5047 40.4439 58.4965 40.4595 58.4824 40.4677L54.4473 42.7909C54.4329 42.7991 54.4147 42.7992 54.4004 42.7909L52.582 41.7343C52.5679 41.7259 52.5595 41.7106 52.5596 41.6942C52.5597 41.6779 52.5679 41.6624 52.582 41.6542L56.6172 39.3309L56.6406 39.3251C56.6484 39.3251 56.6561 39.327 56.6631 39.3309Z" fill="#C99709" stroke="black" stroke-width="0.0924009" stroke-linejoin="round"/>
<path d="M46.4092 51.6301L48.2275 52.6868C48.243 52.6959 48.2517 52.7128 48.25 52.7307C47.7385 57.5942 47.2322 62.4326 46.7725 67.2649C46.7708 67.2803 46.7618 67.2939 46.748 67.301C46.734 67.3082 46.7167 67.308 46.7031 67.3L44.8848 66.2434C44.8694 66.2343 44.8606 66.2173 44.8623 66.1995C45.317 61.3666 45.8284 56.5286 46.3398 51.6653L46.3477 51.6438C46.352 51.6376 46.3583 51.6327 46.3652 51.6292C46.3792 51.6222 46.3957 51.6223 46.4092 51.6301Z" fill="#C99709" stroke="black" stroke-width="0.0924009" stroke-linejoin="round"/>
<path d="M54.2363 27.8523L56.0547 28.9089C56.075 28.9209 56.083 28.9461 56.0732 28.9675C52.0229 37.7002 47.9723 46.4386 43.8857 55.2537C43.8802 55.2653 43.8697 55.2742 43.8574 55.2781C43.8451 55.2818 43.8314 55.2806 43.8203 55.2742L42.002 54.2175C41.9815 54.2055 41.9734 54.1795 41.9834 54.158C46.0699 45.343 50.1206 36.6105 54.1709 27.8728L54.1826 27.8572C54.1873 27.8532 54.1932 27.8503 54.1992 27.8484C54.2115 27.8446 54.2252 27.8458 54.2363 27.8523Z" fill="#C99709" stroke="black" stroke-width="0.0924009" stroke-linejoin="round"/>
<path d="M46.7184 67.3137C46.6874 67.3034 46.6667 67.2776 46.6719 67.2467C46.832 65.5517 46.9973 63.8567 47.1678 62.1565C47.421 59.6424 47.6845 57.1179 47.9479 54.5934L48.1339 52.8417C46.7339 53.6506 45.3493 54.4492 43.8821 55.2889C43.8717 55.2941 43.8614 55.2992 43.8511 55.2992C43.8356 55.2992 43.8201 55.2941 43.8097 55.2838C43.7891 55.2632 43.7839 55.2374 43.7942 55.2116C44.0939 54.5625 49.7406 42.3935 49.7406 42.3935C51.8227 37.9009 53.9047 33.4136 55.9867 28.9313C55.997 28.9107 56.0229 28.8953 56.0435 28.8953C56.0487 28.8953 56.0539 28.8953 56.059 28.8953C56.09 28.9056 56.1107 28.9313 56.1055 28.9622C55.8421 31.3991 55.5424 33.9957 55.1704 37.1281C54.9793 38.7407 54.783 40.3584 54.5866 41.9813L54.5092 42.6356L56.493 41.4867L57.2473 41.054C57.6399 40.8324 58.0326 40.6057 58.4304 40.3739C58.4407 40.3688 58.451 40.3636 58.4614 40.3636C58.4769 40.3636 58.4924 40.3688 58.5027 40.3791C58.5234 40.3997 58.5285 40.4254 58.5182 40.4512C57.9551 41.734 57.3971 43.0169 56.834 44.2997L56.0952 45.9947C54.1733 50.3842 52.2618 54.7583 50.3554 59.1272C49.1672 61.8474 47.9789 64.5625 46.7907 67.2776C46.7804 67.3034 46.7545 67.3188 46.7339 67.3188C46.7287 67.3188 46.7235 67.3188 46.7184 67.3188V67.3137Z" fill="#FFDE1D"/>
<path d="M56.0378 28.9462C55.7433 31.6613 55.4282 34.3815 55.1027 37.1121C54.8806 38.9823 54.6532 40.8627 54.4259 42.7484C55.1285 42.3414 55.8208 41.9447 56.5234 41.5377C57.1589 41.1719 57.8047 40.8061 58.4608 40.4248C57.6497 42.2744 56.8438 44.124 56.0378 45.9684C54.1159 50.3579 52.2044 54.7319 50.298 59.1008C49.1098 61.8211 47.9215 64.5362 46.7333 67.2513C46.8934 65.5562 47.0588 63.8612 47.2293 62.1611C47.5031 59.4151 47.7924 56.6639 48.0817 53.9024C48.123 53.5109 48.1644 53.1142 48.2057 52.7175C46.7695 53.547 45.3487 54.3661 43.8453 55.2265C44.145 54.5774 44.4446 53.9282 44.7443 53.2842C46.4336 49.6469 48.1127 46.025 49.7917 42.4083C51.8738 37.9158 53.9558 33.4284 56.0378 28.9462ZM56.0378 28.8174C55.9861 28.8174 55.9396 28.8431 55.919 28.8947C53.837 33.3769 51.7549 37.8643 49.6729 42.3568L47.5134 47.0142C46.5525 49.0853 45.5915 51.1564 44.6254 53.2327C44.3361 53.8612 44.0416 54.4898 43.7523 55.1235L43.7265 55.175C43.7007 55.2265 43.7162 55.2883 43.7575 55.3244C43.7833 55.345 43.8143 55.3605 43.8453 55.3605C43.866 55.3605 43.8918 55.3553 43.9073 55.345C45.3332 54.531 46.6868 53.7479 48.0507 52.9648L47.9525 53.8973L47.8905 54.464C47.6271 56.9885 47.3532 59.5954 47.1001 62.1559C46.9296 63.8561 46.7643 65.5511 46.6041 67.2461C46.599 67.3079 46.6403 67.3646 46.7023 67.3852C46.7126 67.3852 46.723 67.3852 46.7333 67.3852C46.785 67.3852 46.8314 67.3543 46.8521 67.3079C48.0404 64.5928 49.2286 61.8777 50.4169 59.1575C52.3232 54.7886 54.2348 50.4145 56.1566 46.025L56.8799 44.3764C57.4482 43.0781 58.0113 41.7798 58.5796 40.4815C58.6003 40.43 58.59 40.3733 58.5486 40.3321C58.5228 40.3115 58.4918 40.3012 58.4608 40.3012C58.4401 40.3012 58.4143 40.3063 58.3936 40.3166C57.9907 40.5536 57.5877 40.7803 57.1899 41.007L56.4563 41.4295C56.105 41.6355 55.7537 41.8365 55.4024 42.0374C55.1285 42.1971 54.8547 42.3517 54.5809 42.5114L54.6429 42.0168C54.8392 40.3836 55.0355 38.7556 55.2267 37.1327C55.5987 33.9951 55.8983 31.3985 56.1618 28.9668C56.167 28.905 56.1308 28.8431 56.0688 28.8277C56.0585 28.8277 56.0481 28.8277 56.0326 28.8277L56.0378 28.8174Z" fill="black"/>
<path opacity="0.69" d="M56.0371 45.9691C54.1152 50.3586 52.2037 54.7327 50.2973 59.1015L47.2285 62.1618C47.5023 59.4158 47.7916 56.6647 48.081 53.9032L56.0371 45.9691Z" fill="white"/>
<path opacity="0.69" d="M56.5223 41.5388L44.7432 53.2854C46.4325 49.6481 48.1116 46.0262 49.7906 42.4095L55.1016 37.1133C54.8795 38.9835 54.6521 40.8639 54.4248 42.7496C55.1274 42.3426 55.8197 41.9459 56.5223 41.5388Z" fill="white"/>
<mask id="mask7_2510_97729" style="mask-type:luminance" maskUnits="userSpaceOnUse" x="71" y="69" width="9" height="13">
<path d="M79.8848 80.6232L79.4911 80.7881C78.9465 81.0124 78.3625 81.1575 77.7392 81.197C74.4978 81.4279 71.5845 78.8557 71.2433 75.4524C70.9612 72.6956 72.4441 70.2421 74.7406 69.2857L75.1343 69.1208C72.8378 70.0772 71.3549 72.5307 71.6304 75.2876C71.9782 78.6908 74.8849 81.2696 78.1329 81.0388C78.7497 80.9926 79.3402 80.8541 79.8848 80.6298V80.6232Z" fill="white"/>
</mask>
<g mask="url(#mask7_2510_97729)">
<path d="M79.8848 80.6232L79.4911 80.7881C78.9465 81.0124 78.3625 81.1575 77.7392 81.197C74.4978 81.4279 71.5845 78.8557 71.2433 75.4524C70.9612 72.6956 72.4441 70.2421 74.7406 69.2857L75.1343 69.1208C72.8378 70.0772 71.3549 72.5307 71.6304 75.2876C71.9782 78.6908 74.8849 81.2696 78.1329 81.0388C78.7497 80.9926 79.3402 80.8541 79.8848 80.6298" fill="#C99709"/>
<path d="M79.8848 80.6232L79.4911 80.7881C78.9465 81.0124 78.3625 81.1575 77.7392 81.197C74.4978 81.4279 71.5845 78.8557 71.2433 75.4524C70.9612 72.6956 72.4441 70.2421 74.7406 69.2857L75.1343 69.1208C72.8378 70.0772 71.3549 72.5307 71.6304 75.2876C71.9782 78.6908 74.8849 81.2696 78.1329 81.0388C78.7497 80.9926 79.3402 80.8541 79.8848 80.6298" stroke="black" stroke-width="0.0924009" stroke-miterlimit="10"/>
</g>
<path d="M79.8839 80.6211C82.8732 79.3752 84.2344 75.7903 82.9241 72.614C81.6139 69.4376 78.1285 67.8726 75.1392 69.1185C72.1499 70.3643 70.7887 73.9492 72.0989 77.1256C73.4091 80.3019 76.8946 81.8669 79.8839 80.6211Z" fill="#FFDE1D" stroke="black" stroke-width="0.0924009" stroke-miterlimit="10"/>
<path d="M78.6513 73.1775L77.6183 73.464C77.8434 73.5551 78.0289 73.7244 78.148 73.9978L78.8301 73.809L78.9162 74.115L78.2408 74.3038C78.3533 74.9484 77.9626 75.4888 77.168 75.7362C77.7971 76.1008 78.5123 76.5826 79.2142 77.0709L78.6116 77.2336C77.956 76.7909 77.3468 76.3807 76.5853 75.925L76.4793 75.5409L76.8237 75.4432C77.4991 75.2544 77.7838 74.8833 77.711 74.4406L76.2807 74.8312L76.1946 74.5252L77.605 74.1411C77.413 73.809 77.0356 73.7179 76.4859 73.8676L76.0423 73.9913L75.9297 73.5877L78.5719 72.865L78.6579 73.171L78.6513 73.1775Z" fill="black"/>
</svg>
