<svg width="12" height="12" viewBox="0 0 12 12" fill="none" xmlns="http://www.w3.org/2000/svg">
<g clip-path="url(#clip0_3210_79606)">
<g clip-path="url(#clip1_3210_79606)">
<path d="M0 6C0 9.31371 2.68629 12 6 12C9.31371 12 12 9.31371 12 6C12 2.68629 9.31371 0 6 0C2.68629 0 0 2.68629 0 6Z" fill="white"/>
<path d="M3.6804 3.98291C3.53308 3.98291 3.41016 4.10686 3.41016 4.25625V6.26607C3.41016 6.41236 3.53308 6.53637 3.6804 6.53637C3.82771 6.53637 3.94755 6.41242 3.94755 6.26607V4.25625C3.94755 4.10686 3.82765 3.98291 3.6804 3.98291Z" fill="#191C1F"/>
<path d="M8.68284 4.7633C8.61983 4.61087 8.52334 4.47677 8.40449 4.35685C8.28565 4.24405 8.14545 4.14957 7.98898 4.08456C7.82947 4.01955 7.65882 3.98699 7.48105 3.98699H6.95889C6.94366 3.98291 6.92943 3.98291 6.9142 3.98291C6.75877 3.98291 6.63281 4.10586 6.63281 4.25928V6.26099C6.63281 6.41341 6.75166 6.53024 6.90305 6.53736H7.48105C7.65882 6.53736 7.82947 6.50077 7.98898 6.43576C8.1444 6.37075 8.28559 6.27931 8.40449 6.16651C8.52334 6.04256 8.61983 5.91249 8.68284 5.75604C8.74988 5.59958 8.78238 5.43596 8.78238 5.26223C8.78238 5.09049 8.74988 4.9198 8.68284 4.76335V4.7633ZM8.02153 5.78142C7.87527 5.92469 7.68221 5.99786 7.47095 5.99786H7.17026V4.51943H7.47095C7.68227 4.51943 7.87527 4.59972 8.02153 4.7399C8.1678 4.87908 8.24504 5.06301 8.24504 5.26113C8.24504 5.45925 8.16785 5.64213 8.02153 5.78137V5.78142Z" fill="#191C1F"/>
<path d="M7.06594 3.31922L6.27254 2.52565C6.2177 2.4708 6.14454 2.44436 6.07243 2.4464C6.00032 2.44436 5.92716 2.46975 5.87231 2.52565L5.07892 3.31922C4.97326 3.42491 4.97326 3.5956 5.07892 3.70128C5.18457 3.80696 5.35523 3.80696 5.46088 3.70128L5.81946 3.34262V5.49979L4.86352 4.11688C4.81579 4.03355 4.72741 3.9787 4.62583 3.9787C4.47548 3.9787 4.35156 4.10265 4.35156 4.25203V6.25981C4.35156 6.4092 4.47548 6.53315 4.62583 6.53315C4.77618 6.53315 4.9001 6.4092 4.9001 6.25981V5.01614L5.87126 6.41328C5.87126 6.41632 5.87126 6.4204 5.87535 6.42449C5.93019 6.49358 6.00743 6.53425 6.09477 6.53425C6.24512 6.53425 6.36601 6.4103 6.36601 6.26091V3.38423L6.68397 3.70227C6.78963 3.80795 6.96028 3.80795 7.06594 3.70227C7.1716 3.59659 7.1716 3.42485 7.06594 3.31922Z" fill="#191C1F"/>
<path d="M3.6804 3.98291C3.53308 3.98291 3.41016 4.10686 3.41016 4.25625V6.26607C3.41016 6.41236 3.53308 6.53637 3.6804 6.53637C3.82771 6.53637 3.94755 6.41242 3.94755 6.26607V4.25625C3.94755 4.10686 3.82765 3.98291 3.6804 3.98291Z" fill="#191C1F"/>
<path d="M8.68284 4.7633C8.61983 4.61087 8.52334 4.47677 8.40449 4.35685C8.28565 4.24405 8.14545 4.14957 7.98898 4.08456C7.82947 4.01955 7.65882 3.98699 7.48105 3.98699H6.95889C6.94366 3.98291 6.92943 3.98291 6.9142 3.98291C6.75877 3.98291 6.63281 4.10586 6.63281 4.25928V6.26099C6.63281 6.41341 6.75166 6.53024 6.90305 6.53736H7.48105C7.65882 6.53736 7.82947 6.50077 7.98898 6.43576C8.1444 6.37075 8.28559 6.27931 8.40449 6.16651C8.52334 6.04256 8.61983 5.91249 8.68284 5.75604C8.74988 5.59958 8.78238 5.43596 8.78238 5.26223C8.78238 5.09049 8.74988 4.9198 8.68284 4.76335V4.7633ZM8.02153 5.78142C7.87527 5.92469 7.68221 5.99786 7.47095 5.99786H7.17026V4.51943H7.47095C7.68227 4.51943 7.87527 4.59972 8.02153 4.7399C8.1678 4.87908 8.24504 5.06301 8.24504 5.26113C8.24504 5.45925 8.16785 5.64213 8.02153 5.78137V5.78142Z" fill="#191C1F"/>
<path d="M7.06594 3.31922L6.27254 2.52565C6.2177 2.4708 6.14454 2.44436 6.07243 2.4464C6.00032 2.44436 5.92716 2.46975 5.87231 2.52565L5.07892 3.31922C4.97326 3.42491 4.97326 3.5956 5.07892 3.70128C5.18457 3.80696 5.35523 3.80696 5.46088 3.70128L5.81946 3.34262V5.49979L4.86352 4.11688C4.81579 4.03355 4.72741 3.9787 4.62583 3.9787C4.47548 3.9787 4.35156 4.10265 4.35156 4.25203V6.25981C4.35156 6.4092 4.47548 6.53315 4.62583 6.53315C4.77618 6.53315 4.9001 6.4092 4.9001 6.25981V5.01614L5.87126 6.41328C5.87126 6.41632 5.87126 6.4204 5.87535 6.42449C5.93019 6.49358 6.00743 6.53425 6.09477 6.53425C6.24512 6.53425 6.36601 6.4103 6.36601 6.26091V3.38423L6.68397 3.70227C6.78963 3.80795 6.96028 3.80795 7.06594 3.70227C7.1716 3.59659 7.1716 3.42485 7.06594 3.31922Z" fill="#191C1F"/>
<path d="M3.86614 9.18555C3.86614 9.10031 3.81354 9.03064 3.72068 9.03064C3.63439 9.03064 3.57275 9.09785 3.57275 9.18555C3.57275 9.27326 3.63439 9.33965 3.72068 9.33965C3.81354 9.33965 3.86614 9.2708 3.86614 9.18555ZM3.52344 9.35277V8.78228C3.52344 8.75605 3.54234 8.75195 3.55138 8.75195C3.56042 8.75195 3.57932 8.75605 3.57932 8.78228V9.06015H3.58097C3.61384 9.01015 3.67137 8.98392 3.72643 8.98392C3.84642 8.98392 3.92531 9.07244 3.92531 9.18555C3.92531 9.29867 3.84642 9.38719 3.72643 9.38719C3.67137 9.38719 3.61384 9.36096 3.58097 9.3126H3.57932V9.35277C3.57932 9.37899 3.56042 9.38309 3.55138 9.38309C3.54234 9.38309 3.52344 9.37899 3.52344 9.35277Z" fill="#191C1F"/>
<path d="M4.34915 9.029L4.16752 9.47653C4.14369 9.53555 4.11328 9.57407 4.04671 9.57407C4.03685 9.57407 4.02288 9.57326 4.01384 9.5708C3.99987 9.5667 3.9933 9.55768 3.9933 9.54621C3.9933 9.53309 4.00316 9.52244 4.01713 9.52244C4.02124 9.52244 4.02535 9.52326 4.03028 9.52408C4.03685 9.52489 4.04014 9.52489 4.04425 9.52489C4.08123 9.52489 4.10096 9.50031 4.11739 9.45686L4.14862 9.37654L3.99576 9.03064C3.9933 9.02408 3.99247 9.01916 3.99247 9.01506C3.99247 8.99949 4.00562 8.98802 4.02124 8.98802C4.03028 8.98802 4.04178 8.99129 4.04918 9.01015L4.17739 9.31752H4.17903L4.29655 9.01015C4.30313 8.99211 4.31463 8.98802 4.32367 8.98802C4.34011 8.98802 4.35244 8.99949 4.35244 9.01425C4.35244 9.01752 4.35161 9.02244 4.34915 9.029Z" fill="#191C1F"/>
<path d="M4.7455 8.84785V9.32654C4.7455 9.37572 4.71099 9.38473 4.69373 9.38473C4.67647 9.38473 4.64195 9.37572 4.64195 9.32654V8.84785C4.64195 8.79867 4.67647 8.78966 4.69373 8.78966C4.71099 8.78966 4.7455 8.79867 4.7455 8.84785Z" fill="#191C1F"/>
<path d="M5.24947 9.33719L4.97909 8.96507H4.97745V9.32654C4.97745 9.37572 4.94293 9.38473 4.92567 9.38473C4.90841 9.38473 4.8739 9.37572 4.8739 9.32654V8.86507C4.8739 8.80113 4.91828 8.78966 4.93882 8.78966C4.96183 8.78966 4.98402 8.79949 5.01114 8.8372L5.28153 9.20851H5.28317V8.84785C5.28317 8.79867 5.31769 8.78966 5.33494 8.78966C5.3522 8.78966 5.38672 8.79867 5.38672 8.84785V9.30932C5.38672 9.37326 5.34234 9.38473 5.3218 9.38473C5.29796 9.38473 5.27742 9.3749 5.24947 9.33719Z" fill="#191C1F"/>
<path d="M5.72143 9.37736H5.57679C5.53488 9.37736 5.51515 9.35768 5.51515 9.31588V8.85851C5.51515 8.81671 5.53488 8.79703 5.57679 8.79703H5.72143C5.87347 8.79703 6.04277 8.86916 6.04277 9.0872C6.04277 9.29047 5.87347 9.37736 5.72143 9.37736ZM5.6187 8.88556V9.28719H5.70499C5.81183 9.28719 5.93182 9.24375 5.93182 9.0872C5.93182 8.9208 5.81183 8.88556 5.70499 8.88556H5.6187Z" fill="#191C1F"/>
<path d="M6.13783 9.32982V9.02818C6.13783 8.98392 6.16988 8.97654 6.18468 8.97654C6.19947 8.97654 6.23152 8.98392 6.23152 9.02818V9.04703H6.23316C6.25042 9.00851 6.29234 8.97244 6.35562 8.97244C6.41643 8.97244 6.4567 9.00277 6.47889 9.04703C6.50519 8.99949 6.54957 8.97244 6.60874 8.97244C6.71147 8.97244 6.75421 9.05113 6.75421 9.13146V9.32982C6.75421 9.37654 6.72133 9.38473 6.7049 9.38473C6.68846 9.38473 6.65559 9.37654 6.65559 9.32982V9.15933C6.65559 9.1126 6.6449 9.05441 6.58162 9.05441C6.51998 9.05441 6.49451 9.11178 6.49451 9.1626V9.32982C6.49451 9.37654 6.46163 9.38473 6.4452 9.38473C6.42876 9.38473 6.39589 9.37654 6.39589 9.32982V9.13965C6.39589 9.09129 6.37288 9.05441 6.32274 9.05441C6.26357 9.05441 6.23645 9.10851 6.23645 9.16096V9.32982C6.23645 9.37654 6.20358 9.38473 6.18714 9.38473C6.1707 9.38473 6.13783 9.37654 6.13783 9.32982Z" fill="#191C1F"/>
<path d="M7.27496 9.179C7.27496 9.30277 7.17963 9.38883 7.06046 9.38883C6.9413 9.38883 6.84596 9.30277 6.84596 9.179C6.84596 9.05523 6.9413 8.97244 7.06046 8.97244C7.17963 8.97244 7.27496 9.05523 7.27496 9.179ZM7.1747 9.179C7.1747 9.11752 7.13854 9.05277 7.06046 9.05277C6.98239 9.05277 6.94623 9.11752 6.94623 9.179C6.94623 9.24047 6.98239 9.30686 7.06046 9.30686C7.13854 9.30686 7.1747 9.24047 7.1747 9.179Z" fill="#191C1F"/>
<path d="M7.37058 9.32982V9.02818C7.37058 8.98392 7.40263 8.97654 7.41743 8.97654C7.43222 8.97654 7.46427 8.98392 7.46427 9.02818V9.04703H7.46591C7.48317 9.00769 7.53002 8.97244 7.58837 8.97244C7.6911 8.97244 7.73383 9.05113 7.73383 9.13146V9.32982C7.73383 9.37654 7.70096 9.38473 7.68452 9.38473C7.66809 9.38473 7.63521 9.37654 7.63521 9.32982V9.15933C7.63521 9.1126 7.62453 9.05441 7.56125 9.05441C7.49879 9.05441 7.4692 9.10851 7.4692 9.16096V9.32982C7.4692 9.37654 7.43633 9.38473 7.41989 9.38473C7.40345 9.38473 7.37058 9.37654 7.37058 9.32982Z" fill="#191C1F"/>
<path d="M8.17272 9.21178H7.92452C7.92863 9.26752 7.97959 9.3085 8.03711 9.3085C8.07821 9.3085 8.10286 9.29539 8.12752 9.2749C8.14149 9.26342 8.15053 9.26096 8.16121 9.26096C8.1834 9.26096 8.20066 9.27654 8.20066 9.30031C8.20066 9.3085 8.19737 9.32326 8.18422 9.33555C8.1456 9.37244 8.10122 9.38883 8.03794 9.38883C7.9163 9.38883 7.8259 9.31096 7.8259 9.1831C7.8259 9.05605 7.91548 8.97244 8.03465 8.97244C8.12998 8.97244 8.20723 9.02654 8.22285 9.14211C8.22367 9.15031 8.22449 9.15605 8.22449 9.1626C8.22449 9.19703 8.20559 9.21178 8.17272 9.21178ZM7.92452 9.14129H8.12669C8.12669 9.09047 8.09793 9.04621 8.03383 9.04621C7.97548 9.04621 7.92863 9.08638 7.92452 9.14129Z" fill="#191C1F"/>
<path d="M8.666 9.04785L8.4967 9.46178C8.46711 9.53391 8.43177 9.57407 8.34713 9.57407C8.30521 9.57407 8.29288 9.54948 8.29288 9.52981C8.29288 9.51014 8.30603 9.49293 8.32576 9.48965C8.33069 9.48883 8.3348 9.48883 8.34137 9.48883C8.36767 9.48883 8.39315 9.47244 8.41123 9.42736L8.43095 9.37736L8.2822 9.05113C8.27727 9.03965 8.27563 9.029 8.27563 9.02244C8.27563 8.99703 8.29617 8.97654 8.32494 8.97654C8.34219 8.97654 8.3611 8.98392 8.37425 9.01506L8.48108 9.26998H8.48273L8.57477 9.01752C8.5871 8.98392 8.60682 8.97654 8.62326 8.97654C8.6512 8.97654 8.67175 8.99457 8.67175 9.0208C8.67175 9.02654 8.67093 9.03474 8.666 9.04785Z" fill="#191C1F"/>
<path d="M8.21128 8.22846C8.02155 8.22846 7.94739 8.12325 7.94739 7.96975V7.52026C7.94739 7.50369 7.93396 7.49026 7.91739 7.49026H7.83078C7.81421 7.49026 7.80078 7.47683 7.80078 7.46026V7.35296C7.80078 7.33639 7.81421 7.32296 7.83078 7.32296H7.92601C7.94258 7.32296 7.95601 7.30953 7.95601 7.29296V7.15766C7.95601 7.14423 7.96493 7.13244 7.97785 7.12879L8.12474 7.08724C8.12608 7.08686 8.12747 7.08667 8.12887 7.08667C8.13723 7.08667 8.14401 7.09345 8.14401 7.10182V7.29296C8.14401 7.30953 8.15744 7.32296 8.17401 7.32296H8.32961C8.34618 7.32296 8.35961 7.33639 8.35961 7.35296V7.46026C8.35961 7.47683 8.34618 7.49026 8.32961 7.49026H8.17401C8.15744 7.49026 8.14401 7.50369 8.14401 7.52026V7.93525C8.14401 8.01976 8.18023 8.05598 8.25957 8.05598C8.29464 8.05598 8.32162 8.05113 8.34365 8.04456C8.34509 8.04414 8.34657 8.04391 8.34807 8.04391C8.35635 8.04391 8.36306 8.05062 8.36306 8.0589V8.18743C8.36306 8.20055 8.35455 8.21221 8.34174 8.21509C8.31087 8.22203 8.26429 8.22846 8.21128 8.22846Z" fill="#191C1F"/>
<path d="M7.53997 7.18609C7.45718 7.18609 7.41406 7.1378 7.41406 7.06191C7.41406 6.98602 7.45718 6.93945 7.53997 6.93945C7.62104 6.93945 7.66588 6.98602 7.66588 7.06191C7.66588 7.1378 7.62104 7.18609 7.53997 7.18609ZM7.47166 8.21232C7.45509 8.21232 7.44166 8.19889 7.44166 8.18232V7.35235C7.44166 7.33578 7.45509 7.32235 7.47166 7.32235H7.60828C7.62485 7.32235 7.63828 7.33578 7.63828 7.35235V8.18232C7.63828 8.19889 7.62485 8.21232 7.60828 8.21232H7.47166Z" fill="#191C1F"/>
<path d="M6.74973 8.22837C6.52034 8.22837 6.38063 8.04554 6.37891 7.76613C6.38063 7.50224 6.50999 7.30735 6.74973 7.30735C6.87781 7.30735 6.95855 7.36145 7.00366 7.42781C7.00451 7.42906 7.0059 7.4298 7.00741 7.4298C7.00989 7.4298 7.0119 7.42779 7.0119 7.42531V6.96652C7.0119 6.94995 7.02533 6.93652 7.0419 6.93652H7.17852C7.19509 6.93652 7.20852 6.94995 7.20852 6.96652V8.18284C7.20852 8.19941 7.19509 8.21284 7.17852 8.21284H7.05868C7.04449 8.21284 7.03224 8.20289 7.02932 8.189L7.01275 8.10998C7.01226 8.10761 7.01016 8.10591 7.00774 8.10591C7.00603 8.10591 7.00444 8.10676 7.00347 8.10818C6.95833 8.17441 6.87764 8.22837 6.74973 8.22837ZM6.79803 8.05417C6.95498 8.05417 7.0188 7.92136 7.0188 7.76613C7.0188 7.61263 6.95671 7.48155 6.79803 7.48155C6.6359 7.48155 6.57898 7.61263 6.57898 7.76613C6.57898 7.92308 6.63762 8.05417 6.79803 8.05417Z" fill="#191C1F"/>
<path d="M5.84272 8.22815C5.57193 8.22815 5.42188 8.02635 5.42188 7.76764C5.42188 7.51237 5.55813 7.30713 5.83927 7.30713C6.09971 7.30713 6.24114 7.49513 6.24114 7.74004V7.79283C6.24114 7.8094 6.22771 7.82283 6.21114 7.82283H5.6554C5.63883 7.82283 5.62525 7.83631 5.62654 7.85283C5.63626 7.97797 5.70832 8.06257 5.84272 8.06257C5.94036 8.06257 6.00318 8.02358 6.02994 7.96311C6.03536 7.95086 6.04686 7.94184 6.06025 7.94184H6.19427C6.2126 7.94184 6.22674 7.9582 6.22201 7.97591C6.18321 8.12104 6.03974 8.22815 5.84272 8.22815ZM5.63005 7.6519C5.62759 7.66881 5.6414 7.68313 5.6585 7.68313H6.0089C6.02564 7.68313 6.03932 7.66938 6.03743 7.65274C6.02581 7.55043 5.96194 7.47443 5.83927 7.47443C5.70927 7.47443 5.64469 7.55124 5.63005 7.6519Z" fill="#191C1F"/>
<path d="M4.85813 8.21284C4.84156 8.21284 4.82812 8.19941 4.82812 8.18284V7.35286C4.82812 7.3363 4.84156 7.32286 4.85812 7.32286H4.96714C4.9823 7.32286 4.99508 7.33418 4.99692 7.34923L5.01048 7.46042C5.01075 7.46263 5.01263 7.46429 5.01486 7.46429C5.01666 7.46429 5.01829 7.46318 5.01897 7.46151C5.05576 7.37162 5.138 7.31079 5.24897 7.31079H5.29141C5.30798 7.31079 5.32141 7.32422 5.32141 7.34079V7.46362C5.32141 7.48018 5.30798 7.49362 5.29141 7.49362H5.24552C5.09547 7.49362 5.01785 7.5971 5.01785 7.7782V8.18284C5.01785 8.19941 5.00442 8.21284 4.98785 8.21284H4.85813Z" fill="#191C1F"/>
<path d="M4.25242 8.22815C3.97818 8.22815 3.82812 8.0436 3.82812 7.76764C3.82812 7.4934 3.97473 7.30713 4.24725 7.30713C4.4833 7.30713 4.60718 7.43927 4.6305 7.61509C4.63278 7.63225 4.61896 7.64691 4.60165 7.64691H4.4645C4.44893 7.64691 4.4362 7.63492 4.43293 7.6197C4.41473 7.53515 4.34728 7.48133 4.24725 7.48133C4.09547 7.48133 4.0282 7.59516 4.0282 7.76764C4.0282 7.94356 4.09547 8.05567 4.24725 8.05567C4.34918 8.05567 4.41546 8.00292 4.43444 7.91686C4.43775 7.90183 4.45041 7.8901 4.4658 7.8901H4.60286C4.62036 7.8901 4.63424 7.90506 4.63172 7.92238C4.60562 8.10201 4.48209 8.22815 4.25242 8.22815Z" fill="#191C1F"/>
</g>
</g>
<defs>
<clipPath id="clip0_3210_79606">
<rect width="12" height="12" fill="white"/>
</clipPath>
<clipPath id="clip1_3210_79606">
<rect width="12" height="12" fill="white"/>
</clipPath>
</defs>
</svg>
