<svg width="64" height="64" viewBox="0 0 64 64" fill="none" xmlns="http://www.w3.org/2000/svg">
<g clip-path="url(#clip0_3210_79593)">
<g clip-path="url(#clip1_3210_79593)">
<path d="M0 32C0 49.6731 14.3269 64 32 64C49.6731 64 64 49.6731 64 32C64 14.3269 49.6731 0 32 0C14.3269 0 0 14.3269 0 32Z" fill="white"/>
<path d="M16.9969 23.4113C16.0319 23.4113 15.2266 24.2233 15.2266 25.2019V38.3685C15.2266 39.3269 16.0319 40.1393 16.9969 40.1393C17.962 40.1393 18.7471 39.3273 18.7471 38.3685V25.2019C18.7471 24.2233 17.9617 23.4113 16.9969 23.4113Z" fill="#191C1F"/>
<path d="M49.7816 28.5237C49.3688 27.5251 48.7366 26.6466 47.9581 25.861C47.1795 25.122 46.2611 24.5031 45.236 24.0772C44.191 23.6513 43.0731 23.438 41.9085 23.438H38.4877C38.388 23.4113 38.2947 23.4113 38.195 23.4113C37.1768 23.4113 36.3516 24.2167 36.3516 25.2218V38.3353C36.3516 39.3338 37.1301 40.0992 38.1219 40.1458H41.9085C43.0731 40.1458 44.191 39.9061 45.236 39.4802C46.2542 39.0543 47.1792 38.4553 47.9581 37.7163C48.7366 36.9043 49.3688 36.0522 49.7816 35.0273C50.2208 34.0023 50.4336 32.9304 50.4336 31.7923C50.4336 30.6672 50.2208 29.549 49.7816 28.524V28.5237ZM45.4493 35.1936C44.491 36.1321 43.2263 36.6115 41.8423 36.6115H39.8724V26.9261H41.8423C43.2267 26.9261 44.491 27.4521 45.4493 28.3704C46.4075 29.2822 46.9135 30.4871 46.9135 31.785C46.9135 33.0829 46.4078 34.281 45.4493 35.1932V35.1936Z" fill="#191C1F"/>
<path d="M39.1768 19.0625L33.9791 13.8637C33.6198 13.5043 33.1406 13.3311 32.6682 13.3445C32.1957 13.3311 31.7165 13.4974 31.3572 13.8637L26.1595 19.0625C25.4673 19.7548 25.4673 20.873 26.1595 21.5654C26.8517 22.2577 27.9697 22.2577 28.6618 21.5654L31.0109 19.2158V33.3477L24.7484 24.288C24.4358 23.7421 23.8567 23.3828 23.1913 23.3828C22.2063 23.3828 21.3945 24.1948 21.3945 25.1734V38.3267C21.3945 39.3053 22.2063 40.1173 23.1913 40.1173C24.1762 40.1173 24.9881 39.3053 24.9881 38.3267V30.1792L31.3503 39.3321C31.3503 39.352 31.3503 39.3787 31.3771 39.4055C31.7363 39.8581 32.2424 40.1246 32.8145 40.1246C33.7995 40.1246 34.5914 39.3126 34.5914 38.3339V19.4884L36.6745 21.5719C37.3666 22.2642 38.4846 22.2642 39.1768 21.5719C39.869 20.8795 39.869 19.7544 39.1768 19.0625Z" fill="#191C1F"/>
<path d="M16.9969 23.4113C16.0319 23.4113 15.2266 24.2233 15.2266 25.2019V38.3685C15.2266 39.3269 16.0319 40.1393 16.9969 40.1393C17.962 40.1393 18.7471 39.3273 18.7471 38.3685V25.2019C18.7471 24.2233 17.9617 23.4113 16.9969 23.4113Z" fill="#191C1F"/>
<path d="M49.7816 28.5237C49.3688 27.5251 48.7366 26.6466 47.9581 25.861C47.1795 25.122 46.2611 24.5031 45.236 24.0772C44.191 23.6513 43.0731 23.438 41.9085 23.438H38.4877C38.388 23.4113 38.2947 23.4113 38.195 23.4113C37.1768 23.4113 36.3516 24.2167 36.3516 25.2218V38.3353C36.3516 39.3338 37.1301 40.0992 38.1219 40.1458H41.9085C43.0731 40.1458 44.191 39.9061 45.236 39.4802C46.2542 39.0543 47.1792 38.4553 47.9581 37.7163C48.7366 36.9043 49.3688 36.0522 49.7816 35.0273C50.2208 34.0023 50.4336 32.9304 50.4336 31.7923C50.4336 30.6672 50.2208 29.549 49.7816 28.524V28.5237ZM45.4493 35.1936C44.491 36.1321 43.2263 36.6115 41.8423 36.6115H39.8724V26.9261H41.8423C43.2267 26.9261 44.491 27.4521 45.4493 28.3704C46.4075 29.2822 46.9135 30.4871 46.9135 31.785C46.9135 33.0829 46.4078 34.281 45.4493 35.1932V35.1936Z" fill="#191C1F"/>
<path d="M39.1768 19.0625L33.9791 13.8637C33.6198 13.5043 33.1406 13.3311 32.6682 13.3445C32.1957 13.3311 31.7165 13.4974 31.3572 13.8637L26.1595 19.0625C25.4673 19.7548 25.4673 20.873 26.1595 21.5654C26.8517 22.2577 27.9697 22.2577 28.6618 21.5654L31.0109 19.2158V33.3477L24.7484 24.288C24.4358 23.7421 23.8567 23.3828 23.1913 23.3828C22.2063 23.3828 21.3945 24.1948 21.3945 25.1734V38.3267C21.3945 39.3053 22.2063 40.1173 23.1913 40.1173C24.1762 40.1173 24.9881 39.3053 24.9881 38.3267V30.1792L31.3503 39.3321C31.3503 39.352 31.3503 39.3787 31.3771 39.4055C31.7363 39.8581 32.2424 40.1246 32.8145 40.1246C33.7995 40.1246 34.5914 39.3126 34.5914 38.3339V19.4884L36.6745 21.5719C37.3666 22.2642 38.4846 22.2642 39.1768 21.5719C39.869 20.8795 39.869 19.7544 39.1768 19.0625Z" fill="#191C1F"/>
<path d="M45.4529 51.1066C44.3174 51.1066 43.8735 50.4769 43.8735 49.5583V46.8486C43.8735 46.7603 43.8019 46.6886 43.7135 46.6886H43.1561C43.0677 46.6886 42.9961 46.617 42.9961 46.5286V45.8474C42.9961 45.759 43.0677 45.6874 43.1561 45.6874H43.7651C43.8535 45.6874 43.9251 45.6157 43.9251 45.5274V44.6832C43.9251 44.6116 43.9727 44.5488 44.0416 44.5293L44.935 44.2766C44.943 44.2743 44.9513 44.2732 44.9596 44.2732C45.0097 44.2732 45.0503 44.3138 45.0503 44.3638V45.5274C45.0503 45.6157 45.1219 45.6874 45.2103 45.6874H46.1806C46.269 45.6874 46.3406 45.759 46.3406 45.8474V46.5286C46.3406 46.617 46.269 46.6886 46.1806 46.6886H45.2103C45.1219 46.6886 45.0503 46.7603 45.0503 46.8486V49.3518C45.0503 49.8576 45.267 50.0744 45.7419 50.0744C45.9518 50.0744 46.1132 50.0453 46.2451 50.006C46.2537 50.0035 46.2626 50.0021 46.2715 50.0021C46.3211 50.0021 46.3612 50.0423 46.3612 50.0918V50.8754C46.3612 50.9454 46.3158 51.0076 46.2477 51.0234C46.0631 51.0662 45.7782 51.1066 45.4529 51.1066Z" fill="#191C1F"/>
<path d="M41.4371 44.8719C40.9417 44.8719 40.6836 44.5828 40.6836 44.1286C40.6836 43.6745 40.9417 43.3958 41.4371 43.3958C41.9223 43.3958 42.1907 43.6745 42.1907 44.1286C42.1907 44.5828 41.9223 44.8719 41.4371 44.8719ZM41.0088 51.0137C40.9204 51.0137 40.8488 50.942 40.8488 50.8537V45.8473C40.8488 45.759 40.9204 45.6873 41.0088 45.6873H41.8655C41.9539 45.6873 42.0255 45.759 42.0255 45.8473V50.8537C42.0255 50.942 41.9539 51.0137 41.8655 51.0137H41.0088Z" fill="#191C1F"/>
<path d="M36.6998 51.1065C35.3269 51.1065 34.4908 50.0123 34.4805 48.3401C34.4908 46.7607 35.265 45.5943 36.6998 45.5943C37.4663 45.5943 37.9495 45.9181 38.2195 46.3153C38.2246 46.3227 38.2329 46.3272 38.2419 46.3272C38.2568 46.3272 38.2688 46.3152 38.2688 46.3003V43.535C38.2688 43.4466 38.3405 43.375 38.4288 43.375H39.2856C39.374 43.375 39.4456 43.4466 39.4456 43.535V50.8536C39.4456 50.9419 39.374 51.0136 39.2856 51.0136H38.533C38.4572 51.0136 38.3919 50.9605 38.3764 50.8864L38.2739 50.3979C38.271 50.3837 38.2584 50.3736 38.2439 50.3736C38.2337 50.3736 38.2242 50.3787 38.2184 50.3871C37.9482 50.7835 37.4653 51.1065 36.6998 51.1065ZM36.9888 50.0639C37.9282 50.0639 38.3101 49.2691 38.3101 48.3401C38.3101 47.4214 37.9385 46.6369 36.9888 46.6369C36.0185 46.6369 35.6779 47.4214 35.6779 48.3401C35.6779 49.2794 36.0288 50.0639 36.9888 50.0639Z" fill="#191C1F"/>
<path d="M31.2843 51.1066C29.6637 51.1066 28.7656 49.8989 28.7656 48.3506C28.7656 46.8228 29.5811 45.5945 31.2637 45.5945C32.8224 45.5945 33.6688 46.7196 33.6688 48.1854V48.5209C33.6688 48.6092 33.5972 48.6809 33.5088 48.6809H30.1437C30.0553 48.6809 29.983 48.7526 29.9891 48.8408C30.0412 49.6005 30.473 50.1157 31.2843 50.1157C31.8759 50.1157 32.254 49.8765 32.4107 49.5069C32.4385 49.4411 32.5 49.3931 32.5714 49.3931H33.411C33.5087 49.3931 33.5841 49.4803 33.56 49.575C33.3365 50.4548 32.4734 51.1066 31.2843 51.1066ZM30.0087 47.678C29.9966 47.7684 30.0702 47.8448 30.1613 47.8448H32.2987C32.388 47.8448 32.4608 47.7714 32.4518 47.6826C32.3882 47.0604 32.0057 46.5958 31.2637 46.5958C30.477 46.5958 30.0906 47.0657 30.0087 47.678Z" fill="#191C1F"/>
<path d="M25.3631 51.0133C25.2748 51.0133 25.2031 50.9417 25.2031 50.8533V45.847C25.2031 45.7586 25.2748 45.687 25.3631 45.687H26.0524C26.1333 45.687 26.2014 45.7474 26.2112 45.8276L26.2945 46.5102C26.2961 46.5235 26.3073 46.5334 26.3207 46.5334C26.3315 46.5334 26.3412 46.5268 26.3453 46.5168C26.5655 45.9788 27.0577 45.6147 27.7218 45.6147H27.9954C28.0837 45.6147 28.1554 45.6864 28.1554 45.7747V46.5489C28.1554 46.6373 28.0837 46.7089 27.9954 46.7089H27.7012C26.8031 46.7089 26.3386 47.3283 26.3386 48.4121V50.8533C26.3386 50.9417 26.267 51.0133 26.1786 51.0133H25.3631Z" fill="#191C1F"/>
<path d="M21.7581 51.1066C20.1168 51.1066 19.2188 50.0021 19.2188 48.3506C19.2188 46.7093 20.0962 45.5945 21.7271 45.5945C23.1491 45.5945 23.8909 46.3957 24.0235 47.4582C24.0349 47.5498 23.9613 47.628 23.869 47.628H23.0094C22.9264 47.628 22.8583 47.564 22.842 47.4826C22.7387 46.9666 22.3327 46.637 21.7271 46.637C20.8187 46.637 20.4162 47.3183 20.4162 48.3506C20.4162 49.4034 20.8187 50.0744 21.7271 50.0744C22.3439 50.0744 22.7426 49.7516 22.8511 49.2264C22.8677 49.146 22.9354 49.0834 23.0175 49.0834H23.8766C23.9699 49.0834 24.0438 49.1633 24.0311 49.2557C23.8814 50.3419 23.1415 51.1066 21.7581 51.1066Z" fill="#191C1F"/>
</g>
</g>
<defs>
<clipPath id="clip0_3210_79593">
<rect width="64" height="64" fill="white"/>
</clipPath>
<clipPath id="clip1_3210_79593">
<rect width="64" height="64" fill="white"/>
</clipPath>
</defs>
</svg>
