<svg width="40" height="40" viewBox="0 0 40 40" fill="none" xmlns="http://www.w3.org/2000/svg">
<g clip-path="url(#clip0_3210_79594)">
<g clip-path="url(#clip1_3210_79594)">
<path d="M0 20C0 31.0457 8.95431 40 20 40C31.0457 40 40 31.0457 40 20C40 8.95431 31.0457 0 20 0C8.95431 0 0 8.95431 0 20Z" fill="white"/>
<path d="M10.6221 14.6313C10.0189 14.6313 9.51562 15.1388 9.51562 15.7505V23.9796C9.51562 24.5787 10.0189 25.0864 10.6221 25.0864C11.2253 25.0864 11.716 24.5789 11.716 23.9796V15.7505C11.716 15.1388 11.2251 14.6313 10.6221 14.6313Z" fill="#191C1F"/>
<path d="M31.1125 17.8266C30.8545 17.2025 30.4594 16.6534 29.9728 16.1624C29.4862 15.7006 28.9122 15.3137 28.2715 15.0476C27.6184 14.7814 26.9197 14.6481 26.1918 14.6481H24.0539C23.9915 14.6313 23.9332 14.6313 23.8709 14.6313C23.2345 14.6313 22.7188 15.1348 22.7188 15.7629V23.9589C22.7188 24.5829 23.2054 25.0613 23.8252 25.0904H26.1918C26.9197 25.0904 27.6184 24.9406 28.2715 24.6745C28.9079 24.4083 29.486 24.0339 29.9728 23.572C30.4594 23.0645 30.8545 22.5319 31.1125 21.8913C31.387 21.2508 31.5201 20.5808 31.5201 19.8695C31.5201 19.1663 31.387 18.4674 31.1125 17.8268V17.8266ZM28.4048 21.9953C27.8059 22.5819 27.0155 22.8815 26.1505 22.8815H24.9193V16.8281H26.1505C27.0157 16.8281 27.8059 17.1569 28.4048 17.7308C29.0037 18.3007 29.32 19.0538 29.32 19.865C29.32 20.6761 29.0039 21.425 28.4048 21.9951V21.9953Z" fill="#191C1F"/>
<path d="M24.485 11.914L21.2365 8.66478C21.0119 8.44018 20.7124 8.33195 20.4171 8.34031C20.1218 8.33195 19.8223 8.43589 19.5977 8.66478L16.3492 11.914C15.9166 12.3468 15.9166 13.0456 16.3492 13.4783C16.7818 13.9111 17.4806 13.9111 17.9132 13.4783L19.3813 12.0099V20.8423L15.4673 15.18C15.2719 14.8388 14.91 14.6142 14.4941 14.6142C13.8785 14.6142 13.3711 15.1217 13.3711 15.7334V23.9542C13.3711 24.5658 13.8785 25.0733 14.4941 25.0733C15.1097 25.0733 15.6171 24.5658 15.6171 23.9542V18.862L19.5935 24.5825C19.5935 24.595 19.5935 24.6117 19.6102 24.6284C19.8347 24.9113 20.151 25.0778 20.5086 25.0778C21.1242 25.0778 21.6192 24.5703 21.6192 23.9587V12.1802L22.9211 13.4824C23.3537 13.9151 24.0524 13.9151 24.485 13.4824C24.9176 13.0497 24.9176 12.3465 24.485 11.914Z" fill="#191C1F"/>
<path d="M10.6221 14.6313C10.0189 14.6313 9.51562 15.1388 9.51562 15.7505V23.9796C9.51562 24.5787 10.0189 25.0864 10.6221 25.0864C11.2253 25.0864 11.716 24.5789 11.716 23.9796V15.7505C11.716 15.1388 11.2251 14.6313 10.6221 14.6313Z" fill="#191C1F"/>
<path d="M31.1125 17.8266C30.8545 17.2025 30.4594 16.6534 29.9728 16.1624C29.4862 15.7006 28.9122 15.3137 28.2715 15.0476C27.6184 14.7814 26.9197 14.6481 26.1918 14.6481H24.0539C23.9915 14.6313 23.9332 14.6313 23.8709 14.6313C23.2345 14.6313 22.7188 15.1348 22.7188 15.7629V23.9589C22.7188 24.5829 23.2054 25.0613 23.8252 25.0904H26.1918C26.9197 25.0904 27.6184 24.9406 28.2715 24.6745C28.9079 24.4083 29.486 24.0339 29.9728 23.572C30.4594 23.0645 30.8545 22.5319 31.1125 21.8913C31.387 21.2508 31.5201 20.5808 31.5201 19.8695C31.5201 19.1663 31.387 18.4674 31.1125 17.8268V17.8266ZM28.4048 21.9953C27.8059 22.5819 27.0155 22.8815 26.1505 22.8815H24.9193V16.8281H26.1505C27.0157 16.8281 27.8059 17.1569 28.4048 17.7308C29.0037 18.3007 29.32 19.0538 29.32 19.865C29.32 20.6761 29.0039 21.425 28.4048 21.9951V21.9953Z" fill="#191C1F"/>
<path d="M24.485 11.914L21.2365 8.66478C21.0119 8.44018 20.7124 8.33195 20.4171 8.34031C20.1218 8.33195 19.8223 8.43589 19.5977 8.66478L16.3492 11.914C15.9166 12.3468 15.9166 13.0456 16.3492 13.4783C16.7818 13.9111 17.4806 13.9111 17.9132 13.4783L19.3813 12.0099V20.8423L15.4673 15.18C15.2719 14.8388 14.91 14.6142 14.4941 14.6142C13.8785 14.6142 13.3711 15.1217 13.3711 15.7334V23.9542C13.3711 24.5658 13.8785 25.0733 14.4941 25.0733C15.1097 25.0733 15.6171 24.5658 15.6171 23.9542V18.862L19.5935 24.5825C19.5935 24.595 19.5935 24.6117 19.6102 24.6284C19.8347 24.9113 20.151 25.0778 20.5086 25.0778C21.1242 25.0778 21.6192 24.5703 21.6192 23.9587V12.1802L22.9211 13.4824C23.3537 13.9151 24.0524 13.9151 24.485 13.4824C24.9176 13.0497 24.9176 12.3465 24.485 11.914Z" fill="#191C1F"/>
<path d="M28.4066 31.9418C27.6969 31.9418 27.4195 31.5482 27.4195 30.9741V29.2805C27.4195 29.2253 27.3747 29.1805 27.3195 29.1805H26.9711C26.9159 29.1805 26.8711 29.1358 26.8711 29.0805V28.6548C26.8711 28.5995 26.9159 28.5548 26.9711 28.5548H27.3517C27.407 28.5548 27.4517 28.51 27.4517 28.4548V27.9272C27.4517 27.8824 27.4815 27.8431 27.5245 27.831L28.0829 27.673C28.0879 27.6716 28.0931 27.6709 28.0983 27.6709C28.1296 27.6709 28.155 27.6963 28.155 27.7276V28.4548C28.155 28.51 28.1997 28.5548 28.255 28.5548H28.8614C28.9166 28.5548 28.9614 28.5995 28.9614 28.6548V29.0805C28.9614 29.1358 28.9166 29.1805 28.8614 29.1805H28.255C28.1997 29.1805 28.155 29.2253 28.155 29.2805V30.845C28.155 31.1612 28.2904 31.2966 28.5872 31.2966C28.7184 31.2966 28.8193 31.2785 28.9017 31.2539C28.9071 31.2523 28.9126 31.2515 28.9182 31.2515C28.9492 31.2515 28.9743 31.2766 28.9743 31.3076V31.7973C28.9743 31.841 28.9459 31.8799 28.9033 31.8898C28.788 31.9165 28.6099 31.9418 28.4066 31.9418Z" fill="#191C1F"/>
<path d="M25.9007 28.0441C25.591 28.0441 25.4297 27.8635 25.4297 27.5796C25.4297 27.2958 25.591 27.1216 25.9007 27.1216C26.2039 27.1216 26.3716 27.2958 26.3716 27.5796C26.3716 27.8635 26.2039 28.0441 25.9007 28.0441ZM25.6329 31.8828C25.5777 31.8828 25.5329 31.838 25.5329 31.7828V28.6538C25.5329 28.5986 25.5777 28.5538 25.6329 28.5538H26.1684C26.2236 28.5538 26.2684 28.5986 26.2684 28.6538V31.7828C26.2684 31.838 26.2236 31.8828 26.1684 31.8828H25.6329Z" fill="#191C1F"/>
<path d="M22.9379 31.9415C22.0798 31.9415 21.5572 31.2577 21.5508 30.2125C21.5572 29.2255 22.0411 28.4964 22.9379 28.4964C23.417 28.4964 23.719 28.6988 23.8877 28.9471C23.8908 28.9517 23.8961 28.9545 23.9017 28.9545C23.911 28.9545 23.9185 28.947 23.9185 28.9377V27.2094C23.9185 27.1541 23.9633 27.1094 24.0185 27.1094H24.554C24.6092 27.1094 24.654 27.1541 24.654 27.2094V31.7835C24.654 31.8387 24.6092 31.8835 24.554 31.8835H24.0836C24.0363 31.8835 23.9954 31.8503 23.9857 31.804L23.9217 31.4987C23.9198 31.4898 23.912 31.4835 23.903 31.4835C23.8965 31.4835 23.8906 31.4867 23.887 31.492C23.7181 31.7397 23.4163 31.9415 22.9379 31.9415ZM23.1185 31.2899C23.7056 31.2899 23.9443 30.7932 23.9443 30.2125C23.9443 29.6384 23.7121 29.148 23.1185 29.148C22.5121 29.148 22.2992 29.6384 22.2992 30.2125C22.2992 30.7996 22.5185 31.2899 23.1185 31.2899Z" fill="#191C1F"/>
<path d="M19.5507 31.9412C18.5378 31.9412 17.9766 31.1864 17.9766 30.2186C17.9766 29.2638 18.4862 28.4961 19.5378 28.4961C20.512 28.4961 21.0411 29.1993 21.0411 30.1154V30.3251C21.0411 30.3803 20.9963 30.4251 20.9411 30.4251H18.8378C18.7826 30.4251 18.7374 30.4699 18.7412 30.525C18.7738 30.9999 19.0436 31.3218 19.5507 31.3218C19.9205 31.3218 20.1568 31.1723 20.2547 30.9413C20.2721 30.9002 20.3106 30.8702 20.3552 30.8702H20.8799C20.941 30.8702 20.9881 30.9247 20.9731 30.9839C20.8334 31.5338 20.2939 31.9412 19.5507 31.9412ZM18.7535 29.7983C18.7459 29.8548 18.7919 29.9025 18.8489 29.9025H20.1847C20.2405 29.9025 20.2861 29.8567 20.2804 29.8012C20.2407 29.4123 20.0016 29.1219 19.5378 29.1219C19.0461 29.1219 18.8047 29.4156 18.7535 29.7983Z" fill="#191C1F"/>
<path d="M15.8539 31.8824C15.7987 31.8824 15.7539 31.8377 15.7539 31.7824V28.6535C15.7539 28.5982 15.7987 28.5535 15.8539 28.5535H16.2847C16.3353 28.5535 16.3779 28.5912 16.384 28.6414L16.436 29.068C16.437 29.0763 16.444 29.0825 16.4524 29.0825C16.4591 29.0825 16.4652 29.0783 16.4678 29.0721C16.6054 28.7358 16.913 28.5083 17.3281 28.5083H17.4991C17.5543 28.5083 17.5991 28.5531 17.5991 28.6083V29.0922C17.5991 29.1474 17.5543 29.1922 17.4991 29.1922H17.3152C16.7539 29.1922 16.4636 29.5792 16.4636 30.2567V31.7824C16.4636 31.8377 16.4188 31.8824 16.3636 31.8824H15.8539Z" fill="#191C1F"/>
<path d="M13.5988 31.9412C12.573 31.9412 12.0117 31.2509 12.0117 30.2186C12.0117 29.1929 12.5601 28.4961 13.5794 28.4961C14.4682 28.4961 14.9318 28.9968 15.0147 29.6609C15.0218 29.7182 14.9758 29.767 14.9181 29.767H14.3809C14.329 29.767 14.2864 29.7271 14.2763 29.6762C14.2117 29.3537 13.9579 29.1477 13.5794 29.1477C13.0117 29.1477 12.7601 29.5735 12.7601 30.2186C12.7601 30.8767 13.0117 31.296 13.5794 31.296C13.965 31.296 14.2142 31.0943 14.2819 30.766C14.2923 30.7158 14.3346 30.6767 14.3859 30.6767H14.9228C14.9812 30.6767 15.0274 30.7266 15.0194 30.7844C14.9259 31.4633 14.4634 31.9412 13.5988 31.9412Z" fill="#191C1F"/>
</g>
</g>
<defs>
<clipPath id="clip0_3210_79594">
<rect width="40" height="40" fill="white"/>
</clipPath>
<clipPath id="clip1_3210_79594">
<rect width="40" height="40" fill="white"/>
</clipPath>
</defs>
</svg>
