<svg width="16" height="16" viewBox="0 0 16 16" fill="none" xmlns="http://www.w3.org/2000/svg">
<g clip-path="url(#clip0_3210_79603)">
<g clip-path="url(#clip1_3210_79603)">
<path d="M0 8C0 12.4183 3.58172 16 8 16C12.4183 16 16 12.4183 16 8C16 3.58172 12.4183 0 8 0C3.58172 0 0 3.58172 0 8Z" fill="white"/>
<path d="M4.90329 5.31836C4.70687 5.31836 4.54297 5.48362 4.54297 5.68281V8.36257C4.54297 8.55763 4.70687 8.72297 4.90329 8.72297C5.09971 8.72297 5.25949 8.5577 5.25949 8.36257V5.68281C5.25949 5.48362 5.09963 5.31836 4.90329 5.31836Z" fill="#191C1F"/>
<path d="M11.5771 6.35887C11.4931 6.15564 11.3644 5.97684 11.206 5.81695C11.0475 5.66655 10.8606 5.54057 10.652 5.4539C10.4393 5.36722 10.2118 5.3238 9.97474 5.3238H9.27852C9.25821 5.31836 9.23923 5.31836 9.21893 5.31836C9.0117 5.31836 8.84375 5.4823 8.84375 5.68685V8.3558C8.84375 8.55903 9.00221 8.7148 9.20407 8.72429H9.97474C10.2118 8.72429 10.4393 8.67551 10.652 8.58883C10.8592 8.50215 11.0475 8.38023 11.206 8.22983C11.3644 8.06456 11.4931 7.89113 11.5771 7.68253C11.6665 7.47393 11.7098 7.25576 11.7098 7.02412C11.7098 6.79514 11.6665 6.56755 11.5771 6.35895V6.35887ZM10.6954 7.71638C10.5004 7.90739 10.243 8.00496 9.96127 8.00496H9.56034V6.03372H9.96127C10.243 6.03372 10.5004 6.14078 10.6954 6.32767C10.8904 6.51325 10.9934 6.75849 10.9934 7.02265C10.9934 7.28681 10.8905 7.53066 10.6954 7.7163V7.71638Z" fill="#191C1F"/>
<path d="M9.41604 4.43345L8.35818 3.37535C8.28506 3.30221 8.18751 3.26696 8.09136 3.26968C7.99521 3.26696 7.89767 3.30081 7.82454 3.37535L6.76668 4.43345C6.6258 4.57435 6.6258 4.80194 6.76668 4.94285C6.90756 5.08376 7.13509 5.08376 7.27597 4.94285L7.75407 4.46464V7.34087L6.47948 5.49699C6.41585 5.38588 6.298 5.31274 6.16257 5.31274C5.9621 5.31274 5.79688 5.47801 5.79688 5.67719V8.35423C5.79688 8.55341 5.9621 8.71868 6.16257 8.71868C6.36303 8.71868 6.52826 8.55341 6.52826 8.35423V6.696L7.82314 8.55886C7.82314 8.5629 7.82314 8.56835 7.82859 8.57379C7.90171 8.66592 8.0047 8.72015 8.12116 8.72015C8.32162 8.72015 8.4828 8.55488 8.4828 8.3557V4.52012L8.90675 4.94417C9.04763 5.08508 9.27517 5.08508 9.41604 4.94417C9.55692 4.80327 9.55692 4.57428 9.41604 4.43345Z" fill="#191C1F"/>
<path d="M4.90329 5.31836C4.70687 5.31836 4.54297 5.48362 4.54297 5.68281V8.36257C4.54297 8.55763 4.70687 8.72297 4.90329 8.72297C5.09971 8.72297 5.25949 8.5577 5.25949 8.36257V5.68281C5.25949 5.48362 5.09963 5.31836 4.90329 5.31836Z" fill="#191C1F"/>
<path d="M11.5771 6.35887C11.4931 6.15564 11.3644 5.97684 11.206 5.81695C11.0475 5.66655 10.8606 5.54057 10.652 5.4539C10.4393 5.36722 10.2118 5.3238 9.97474 5.3238H9.27852C9.25821 5.31836 9.23923 5.31836 9.21893 5.31836C9.0117 5.31836 8.84375 5.4823 8.84375 5.68685V8.3558C8.84375 8.55903 9.00221 8.7148 9.20407 8.72429H9.97474C10.2118 8.72429 10.4393 8.67551 10.652 8.58883C10.8592 8.50215 11.0475 8.38023 11.206 8.22983C11.3644 8.06456 11.4931 7.89113 11.5771 7.68253C11.6665 7.47393 11.7098 7.25576 11.7098 7.02412C11.7098 6.79514 11.6665 6.56755 11.5771 6.35895V6.35887ZM10.6954 7.71638C10.5004 7.90739 10.243 8.00496 9.96127 8.00496H9.56034V6.03372H9.96127C10.243 6.03372 10.5004 6.14078 10.6954 6.32767C10.8904 6.51325 10.9934 6.75849 10.9934 7.02265C10.9934 7.28681 10.8905 7.53066 10.6954 7.7163V7.71638Z" fill="#191C1F"/>
<path d="M9.41604 4.43345L8.35818 3.37535C8.28506 3.30221 8.18751 3.26696 8.09136 3.26968C7.99521 3.26696 7.89767 3.30081 7.82454 3.37535L6.76668 4.43345C6.6258 4.57435 6.6258 4.80194 6.76668 4.94285C6.90756 5.08376 7.13509 5.08376 7.27597 4.94285L7.75407 4.46464V7.34087L6.47948 5.49699C6.41585 5.38588 6.298 5.31274 6.16257 5.31274C5.9621 5.31274 5.79688 5.47801 5.79688 5.67719V8.35423C5.79688 8.55341 5.9621 8.71868 6.16257 8.71868C6.36303 8.71868 6.52826 8.55341 6.52826 8.35423V6.696L7.82314 8.55886C7.82314 8.5629 7.82314 8.56835 7.82859 8.57379C7.90171 8.66592 8.0047 8.72015 8.12116 8.72015C8.32162 8.72015 8.4828 8.55488 8.4828 8.3557V4.52012L8.90675 4.94417C9.04763 5.08508 9.27517 5.08508 9.41604 4.94417C9.55692 4.80327 9.55692 4.57428 9.41604 4.43345Z" fill="#191C1F"/>
<path d="M5.14835 12.25C5.14835 12.1364 5.07822 12.0435 4.95439 12.0435C4.83934 12.0435 4.75715 12.1331 4.75715 12.25C4.75715 12.3669 4.83934 12.4555 4.95439 12.4555C5.07822 12.4555 5.14835 12.3637 5.14835 12.25ZM4.69141 12.473V11.7123C4.69141 11.6773 4.71661 11.6719 4.72866 11.6719C4.74072 11.6719 4.76592 11.6773 4.76592 11.7123V12.0828H4.76811C4.81194 12.0161 4.88865 11.9812 4.96206 11.9812C5.12205 11.9812 5.22724 12.0992 5.22724 12.25C5.22724 12.4008 5.12205 12.5189 4.96206 12.5189C4.88865 12.5189 4.81194 12.4839 4.76811 12.4194H4.76592V12.473C4.76592 12.5079 4.74072 12.5134 4.72866 12.5134C4.71661 12.5134 4.69141 12.5079 4.69141 12.473Z" fill="#191C1F"/>
<path d="M5.79236 12.0413L5.55019 12.638C5.51841 12.7167 5.47787 12.768 5.38911 12.768C5.37596 12.768 5.35733 12.7669 5.34528 12.7637C5.32665 12.7582 5.31788 12.7462 5.31788 12.7309C5.31788 12.7134 5.33103 12.6992 5.34966 12.6992C5.35514 12.6992 5.36062 12.7003 5.36719 12.7014C5.37596 12.7025 5.38034 12.7025 5.38582 12.7025C5.43513 12.7025 5.46143 12.6697 5.48335 12.6118L5.52499 12.5047L5.32117 12.0435C5.31788 12.0347 5.31679 12.0282 5.31679 12.0227C5.31679 12.0019 5.33432 11.9866 5.35514 11.9866C5.36719 11.9866 5.38253 11.991 5.3924 12.0161L5.56334 12.426H5.56553L5.72223 12.0161C5.73099 11.9921 5.74633 11.9866 5.75839 11.9866C5.7803 11.9866 5.79674 12.0019 5.79674 12.0216C5.79674 12.026 5.79564 12.0325 5.79236 12.0413Z" fill="#191C1F"/>
<path d="M6.32083 11.7997V12.438C6.32083 12.5036 6.27481 12.5156 6.25179 12.5156C6.22878 12.5156 6.18276 12.5036 6.18276 12.438V11.7997C6.18276 11.7342 6.22878 11.7221 6.25179 11.7221C6.27481 11.7221 6.32083 11.7342 6.32083 11.7997Z" fill="#191C1F"/>
<path d="M6.99279 12.4522L6.63228 11.956H6.63009V12.438C6.63009 12.5036 6.58406 12.5156 6.56105 12.5156C6.53804 12.5156 6.49202 12.5036 6.49202 12.438V11.8227C6.49202 11.7374 6.55119 11.7221 6.57858 11.7221C6.60927 11.7221 6.63885 11.7353 6.67501 11.7855L7.03552 12.2806H7.03772V11.7997C7.03772 11.7342 7.08374 11.7221 7.10675 11.7221C7.12976 11.7221 7.17578 11.7342 7.17578 11.7997V12.415C7.17578 12.5003 7.11661 12.5156 7.08922 12.5156C7.05744 12.5156 7.03005 12.5025 6.99279 12.4522Z" fill="#191C1F"/>
<path d="M7.62206 12.5057H7.42921C7.37332 12.5057 7.34702 12.4795 7.34702 12.4238V11.8139C7.34702 11.7582 7.37332 11.732 7.42921 11.732H7.62206C7.82478 11.732 8.05051 11.8282 8.05051 12.1189C8.05051 12.3899 7.82478 12.5057 7.62206 12.5057ZM7.48509 11.85V12.3855H7.60015C7.7426 12.3855 7.90258 12.3276 7.90258 12.1189C7.90258 11.897 7.7426 11.85 7.60015 11.85H7.48509Z" fill="#191C1F"/>
<path d="M8.17726 12.4424V12.0402C8.17726 11.9812 8.22 11.9713 8.23972 11.9713C8.25945 11.9713 8.30218 11.9812 8.30218 12.0402V12.0653H8.30437C8.32739 12.0139 8.38327 11.9659 8.46765 11.9659C8.54873 11.9659 8.60243 12.0063 8.63201 12.0653C8.66708 12.0019 8.72625 11.9659 8.80515 11.9659C8.94212 11.9659 8.9991 12.0708 8.9991 12.1779V12.4424C8.9991 12.5047 8.95527 12.5156 8.93335 12.5156C8.91144 12.5156 8.8676 12.5047 8.8676 12.4424V12.215C8.8676 12.1527 8.85336 12.0751 8.76898 12.0751C8.6868 12.0751 8.65283 12.1517 8.65283 12.2194V12.4424C8.65283 12.5047 8.609 12.5156 8.58709 12.5156C8.56517 12.5156 8.52134 12.5047 8.52134 12.4424V12.1888C8.52134 12.1243 8.49066 12.0751 8.42381 12.0751C8.34492 12.0751 8.30876 12.1473 8.30876 12.2172V12.4424C8.30876 12.5047 8.26493 12.5156 8.24301 12.5156C8.2211 12.5156 8.17726 12.5047 8.17726 12.4424Z" fill="#191C1F"/>
<path d="M9.69344 12.2413C9.69344 12.4063 9.56633 12.521 9.40744 12.521C9.24855 12.521 9.12144 12.4063 9.12144 12.2413C9.12144 12.0762 9.24855 11.9659 9.40744 11.9659C9.56633 11.9659 9.69344 12.0762 9.69344 12.2413ZM9.55975 12.2413C9.55975 12.1593 9.51154 12.073 9.40744 12.073C9.30334 12.073 9.25513 12.1593 9.25513 12.2413C9.25513 12.3232 9.30334 12.4118 9.40744 12.4118C9.51154 12.4118 9.55975 12.3232 9.55975 12.2413Z" fill="#191C1F"/>
<path d="M9.82093 12.4424V12.0402C9.82093 11.9812 9.86367 11.9713 9.88339 11.9713C9.90311 11.9713 9.94585 11.9812 9.94585 12.0402V12.0653H9.94804C9.97105 12.0129 10.0335 11.9659 10.1113 11.9659C10.2483 11.9659 10.3053 12.0708 10.3053 12.1779V12.4424C10.3053 12.5047 10.2614 12.5156 10.2395 12.5156C10.2176 12.5156 10.1738 12.5047 10.1738 12.4424V12.215C10.1738 12.1527 10.1595 12.0751 10.0752 12.0751C9.99187 12.0751 9.95243 12.1473 9.95243 12.2172V12.4424C9.95243 12.5047 9.90859 12.5156 9.88668 12.5156C9.86476 12.5156 9.82093 12.5047 9.82093 12.4424Z" fill="#191C1F"/>
<path d="M10.8904 12.285H10.5595C10.565 12.3593 10.6329 12.4139 10.7096 12.4139C10.7644 12.4139 10.7973 12.3965 10.8302 12.3691C10.8488 12.3538 10.8609 12.3506 10.8751 12.3506C10.9047 12.3506 10.9277 12.3713 10.9277 12.403C10.9277 12.4139 10.9233 12.4336 10.9058 12.45C10.8543 12.4992 10.7951 12.521 10.7107 12.521C10.5486 12.521 10.428 12.4172 10.428 12.2467C10.428 12.0773 10.5475 11.9659 10.7064 11.9659C10.8335 11.9659 10.9365 12.038 10.9573 12.1921C10.9584 12.203 10.9595 12.2107 10.9595 12.2194C10.9595 12.2653 10.9343 12.285 10.8904 12.285ZM10.5595 12.191H10.8291C10.8291 12.1232 10.7907 12.0642 10.7053 12.0642C10.6275 12.0642 10.565 12.1178 10.5595 12.191Z" fill="#191C1F"/>
<path d="M11.5482 12.0664L11.3224 12.6183C11.283 12.7145 11.2359 12.768 11.123 12.768C11.0671 12.768 11.0507 12.7353 11.0507 12.709C11.0507 12.6828 11.0682 12.6598 11.0945 12.6555C11.1011 12.6544 11.1066 12.6544 11.1153 12.6544C11.1504 12.6544 11.1844 12.6325 11.2085 12.5724L11.2348 12.5057L11.0364 12.0708C11.0298 12.0555 11.0277 12.0413 11.0277 12.0325C11.0277 11.9986 11.0551 11.9713 11.0934 11.9713C11.1164 11.9713 11.1416 11.9812 11.1592 12.0227L11.3016 12.3626H11.3038L11.4265 12.026C11.443 11.9812 11.4693 11.9713 11.4912 11.9713C11.5284 11.9713 11.5558 11.9954 11.5558 12.0303C11.5558 12.038 11.5547 12.0489 11.5482 12.0664Z" fill="#191C1F"/>
<path d="M10.9458 10.9726C10.6928 10.9726 10.5939 10.8323 10.5939 10.6276V10.0283C10.5939 10.0062 10.576 9.98832 10.5539 9.98832H10.4384C10.4163 9.98832 10.3984 9.97041 10.3984 9.94832V9.80525C10.3984 9.78316 10.4163 9.76525 10.4384 9.76525H10.5654C10.5875 9.76525 10.6054 9.74734 10.6054 9.72525V9.54484C10.6054 9.52694 10.6173 9.51122 10.6345 9.50635L10.8304 9.45096C10.8322 9.45045 10.834 9.4502 10.8359 9.4502C10.847 9.4502 10.8561 9.45924 10.8561 9.47039V9.72525C10.8561 9.74734 10.874 9.76525 10.8961 9.76525H11.1035C11.1256 9.76525 11.1435 9.78316 11.1435 9.80525V9.94832C11.1435 9.97041 11.1256 9.98832 11.1035 9.98832H10.8961C10.874 9.98832 10.8561 10.0062 10.8561 10.0283V10.5816C10.8561 10.6943 10.9044 10.7426 11.0102 10.7426C11.0569 10.7426 11.0929 10.7361 11.1223 10.7274C11.1242 10.7268 11.1262 10.7265 11.1282 10.7265C11.1392 10.7265 11.1481 10.7355 11.1481 10.7465V10.9179C11.1481 10.9354 11.1368 10.9509 11.1197 10.9548C11.0786 10.964 11.0164 10.9726 10.9458 10.9726Z" fill="#191C1F"/>
<path d="M10.0507 9.58276C9.94031 9.58276 9.88281 9.51837 9.88281 9.41718C9.88281 9.316 9.94031 9.25391 10.0507 9.25391C10.1588 9.25391 10.2186 9.316 10.2186 9.41718C10.2186 9.51837 10.1588 9.58276 10.0507 9.58276ZM9.95961 10.9511C9.93752 10.9511 9.91961 10.9332 9.91961 10.9111V9.80443C9.91961 9.78234 9.93752 9.76443 9.95961 9.76443H10.1418C10.1639 9.76443 10.1818 9.78234 10.1818 9.80443V10.9111C10.1818 10.9332 10.1639 10.9511 10.1418 10.9511H9.95961Z" fill="#191C1F"/>
<path d="M8.99444 10.9725C8.68858 10.9725 8.5023 10.7287 8.5 10.3561C8.5023 10.0043 8.67478 9.74443 8.99444 9.74443C9.16521 9.74443 9.27286 9.81657 9.33301 9.90505C9.33413 9.90671 9.336 9.90771 9.338 9.90771C9.34131 9.90771 9.34399 9.90502 9.34399 9.90171V9.29C9.34399 9.26791 9.3619 9.25 9.38399 9.25H9.56616C9.58825 9.25 9.60616 9.26791 9.60616 9.29V10.9118C9.60616 10.9339 9.58825 10.9518 9.56616 10.9518H9.40637C9.38744 10.9518 9.37111 10.9385 9.36722 10.92L9.34513 10.8146C9.34447 10.8114 9.34168 10.8092 9.33845 10.8092C9.33616 10.8092 9.33404 10.8103 9.33275 10.8122C9.27256 10.9005 9.16497 10.9725 8.99444 10.9725ZM9.05883 10.7402C9.2681 10.7402 9.35319 10.5631 9.35319 10.3561C9.35319 10.1515 9.2704 9.9767 9.05883 9.9767C8.84266 9.9767 8.76677 10.1515 8.76677 10.3561C8.76677 10.5654 8.84496 10.7402 9.05883 10.7402Z" fill="#191C1F"/>
<path d="M7.78769 10.9722C7.42664 10.9722 7.22656 10.7031 7.22656 10.3582C7.22656 10.0178 7.40824 9.74414 7.78309 9.74414C8.13035 9.74414 8.31892 9.99481 8.31892 10.3214V10.3917C8.31892 10.4138 8.30101 10.4317 8.27892 10.4317H7.53793C7.51584 10.4317 7.49773 10.4497 7.49944 10.4717C7.51241 10.6386 7.60849 10.7514 7.78769 10.7514C7.91788 10.7514 8.00164 10.6994 8.03732 10.6188C8.04454 10.6025 8.05987 10.5904 8.07773 10.5904H8.25643C8.28086 10.5904 8.29972 10.6122 8.29341 10.6358C8.24168 10.8294 8.05039 10.9722 7.78769 10.9722ZM7.50413 10.2038C7.50085 10.2264 7.51926 10.2455 7.54206 10.2455H8.00926C8.03159 10.2455 8.04983 10.2271 8.04731 10.205C8.03181 10.0685 7.94665 9.96721 7.78309 9.96721C7.60975 9.96721 7.52365 10.0696 7.50413 10.2038Z" fill="#191C1F"/>
<path d="M6.47359 10.9518C6.4515 10.9518 6.43359 10.9338 6.43359 10.9118V9.80512C6.43359 9.78303 6.4515 9.76512 6.47359 9.76512H6.61895C6.63917 9.76512 6.65621 9.78021 6.65865 9.80028L6.67673 9.94853C6.67709 9.95148 6.6796 9.95369 6.68257 9.95369C6.68498 9.95369 6.68714 9.95221 6.68806 9.94998C6.73711 9.83013 6.84676 9.74902 6.99472 9.74902H7.05131C7.0734 9.74902 7.09131 9.76693 7.09131 9.78902V9.95279C7.09131 9.97488 7.0734 9.99279 7.05131 9.99279H6.99012C6.79005 9.99279 6.68656 10.1308 6.68656 10.3722V10.9118C6.68656 10.9338 6.66865 10.9518 6.64656 10.9518H6.47359Z" fill="#191C1F"/>
<path d="M5.66729 10.9722C5.30164 10.9722 5.10156 10.7261 5.10156 10.3582C5.10156 9.99251 5.29704 9.74414 5.66039 9.74414C5.97513 9.74414 6.14031 9.92033 6.1714 10.1548C6.17443 10.1776 6.156 10.1972 6.13292 10.1972H5.95006C5.9293 10.1972 5.91233 10.1812 5.90796 10.1609C5.88371 10.0482 5.79377 9.97641 5.66039 9.97641C5.45802 9.97641 5.36833 10.1282 5.36833 10.3582C5.36833 10.5927 5.45802 10.7422 5.66039 10.7422C5.7963 10.7422 5.88468 10.6719 5.90998 10.5571C5.9144 10.5371 5.93127 10.5214 5.9518 10.5214H6.13454C6.15787 10.5214 6.17638 10.5414 6.17302 10.5645C6.13822 10.804 5.97351 10.9722 5.66729 10.9722Z" fill="#191C1F"/>
</g>
</g>
<defs>
<clipPath id="clip0_3210_79603">
<rect width="16" height="16" fill="white"/>
</clipPath>
<clipPath id="clip1_3210_79603">
<rect width="16" height="16" fill="white"/>
</clipPath>
</defs>
</svg>
