<svg width="32" height="32" viewBox="0 0 32 32" fill="none" xmlns="http://www.w3.org/2000/svg">
<g clip-path="url(#clip0_3210_79602)">
<g clip-path="url(#clip1_3210_79602)">
<path d="M0 16C0 24.8366 7.16344 32 16 32C24.8366 32 32 24.8366 32 16C32 7.16344 24.8366 0 16 0C7.16344 0 0 7.16344 0 16Z" fill="white"/>
<path d="M8.49847 11.7051C8.01594 11.7051 7.61328 12.1111 7.61328 12.6004V19.1837C7.61328 19.6629 8.01594 20.0691 8.49847 20.0691C8.98101 20.0691 9.37354 19.6631 9.37354 19.1837V12.6004C9.37354 12.1111 8.98083 11.7051 8.49847 11.7051Z" fill="#191C1F"/>
<path d="M24.8908 14.2613C24.6844 13.762 24.3683 13.3227 23.979 12.9299C23.5898 12.5605 23.1305 12.251 22.618 12.038C22.0955 11.8251 21.5365 11.7185 20.9542 11.7185H19.2439C19.194 11.7051 19.1474 11.7051 19.0975 11.7051C18.5884 11.7051 18.1758 12.1078 18.1758 12.6104V19.1671C18.1758 19.6664 18.5651 20.049 19.061 20.0724H20.9542C21.5365 20.0724 22.0955 19.9525 22.618 19.7396C23.1271 19.5266 23.5896 19.2271 23.979 18.8576C24.3683 18.4516 24.6844 18.0255 24.8908 17.5131C25.1104 17.0006 25.2168 16.4646 25.2168 15.8956C25.2168 15.333 25.1104 14.7739 24.8908 14.2615V14.2613ZM22.7246 17.5962C22.2455 18.0655 21.6132 18.3052 20.9212 18.3052H19.9362V13.4625H20.9212C21.6133 13.4625 22.2455 13.7255 22.7246 14.1846C23.2037 14.6405 23.4567 15.243 23.4567 15.892C23.4567 16.5409 23.2039 17.14 22.7246 17.596V17.5962Z" fill="#191C1F"/>
<path d="M19.5903 9.53124L16.9915 6.93183C16.8119 6.75215 16.5722 6.66556 16.336 6.67225C16.0998 6.66556 15.8602 6.74871 15.6805 6.93183L13.0817 9.53124C12.7356 9.8774 12.7356 10.4365 13.0817 10.7827C13.4278 11.1288 13.9868 11.1288 14.3329 10.7827L15.5074 9.60788V16.6738L12.3762 12.144C12.2198 11.8711 11.9303 11.6914 11.5976 11.6914C11.1051 11.6914 10.6992 12.0974 10.6992 12.5867V19.1633C10.6992 19.6527 11.1051 20.0587 11.5976 20.0587C12.0901 20.0587 12.496 19.6527 12.496 19.1633V15.0896L15.6771 19.666C15.6771 19.676 15.6771 19.6894 15.6905 19.7027C15.8701 19.9291 16.1231 20.0623 16.4092 20.0623C16.9017 20.0623 17.2977 19.6563 17.2977 19.1669V9.74418L18.3392 10.7859C18.6853 11.1321 19.2443 11.1321 19.5903 10.7859C19.9364 10.4398 19.9364 9.87722 19.5903 9.53124Z" fill="#191C1F"/>
<path d="M8.49847 11.7051C8.01594 11.7051 7.61328 12.1111 7.61328 12.6004V19.1837C7.61328 19.6629 8.01594 20.0691 8.49847 20.0691C8.98101 20.0691 9.37354 19.6631 9.37354 19.1837V12.6004C9.37354 12.1111 8.98083 11.7051 8.49847 11.7051Z" fill="#191C1F"/>
<path d="M24.8908 14.2613C24.6844 13.762 24.3683 13.3227 23.979 12.9299C23.5898 12.5605 23.1305 12.251 22.618 12.038C22.0955 11.8251 21.5365 11.7185 20.9542 11.7185H19.2439C19.194 11.7051 19.1474 11.7051 19.0975 11.7051C18.5884 11.7051 18.1758 12.1078 18.1758 12.6104V19.1671C18.1758 19.6664 18.5651 20.049 19.061 20.0724H20.9542C21.5365 20.0724 22.0955 19.9525 22.618 19.7396C23.1271 19.5266 23.5896 19.2271 23.979 18.8576C24.3683 18.4516 24.6844 18.0255 24.8908 17.5131C25.1104 17.0006 25.2168 16.4646 25.2168 15.8956C25.2168 15.333 25.1104 14.7739 24.8908 14.2615V14.2613ZM22.7246 17.5962C22.2455 18.0655 21.6132 18.3052 20.9212 18.3052H19.9362V13.4625H20.9212C21.6133 13.4625 22.2455 13.7255 22.7246 14.1846C23.2037 14.6405 23.4567 15.243 23.4567 15.892C23.4567 16.5409 23.2039 17.14 22.7246 17.596V17.5962Z" fill="#191C1F"/>
<path d="M19.5903 9.53124L16.9915 6.93183C16.8119 6.75215 16.5722 6.66556 16.336 6.67225C16.0998 6.66556 15.8602 6.74871 15.6805 6.93183L13.0817 9.53124C12.7356 9.8774 12.7356 10.4365 13.0817 10.7827C13.4278 11.1288 13.9868 11.1288 14.3329 10.7827L15.5074 9.60788V16.6738L12.3762 12.144C12.2198 11.8711 11.9303 11.6914 11.5976 11.6914C11.1051 11.6914 10.6992 12.0974 10.6992 12.5867V19.1633C10.6992 19.6527 11.1051 20.0587 11.5976 20.0587C12.0901 20.0587 12.496 19.6527 12.496 19.1633V15.0896L15.6771 19.666C15.6771 19.676 15.6771 19.6894 15.6905 19.7027C15.8701 19.9291 16.1231 20.0623 16.4092 20.0623C16.9017 20.0623 17.2977 19.6563 17.2977 19.1669V9.74418L18.3392 10.7859C18.6853 11.1321 19.2443 11.1321 19.5903 10.7859C19.9364 10.4398 19.9364 9.87722 19.5903 9.53124Z" fill="#191C1F"/>
<path d="M22.7284 25.5534C22.1606 25.5534 21.9387 25.2386 21.9387 24.7792V23.4244C21.9387 23.3803 21.9029 23.3444 21.8587 23.3444H21.58C21.5358 23.3444 21.5 23.3086 21.5 23.2644V22.9238C21.5 22.8796 21.5358 22.8438 21.58 22.8438H21.8845C21.9287 22.8438 21.9645 22.808 21.9645 22.7638V22.3417C21.9645 22.3059 21.9883 22.2745 22.0227 22.2648L22.4694 22.1384C22.4734 22.1373 22.4776 22.1367 22.4818 22.1367C22.5068 22.1367 22.5271 22.157 22.5271 22.182V22.7638C22.5271 22.808 22.5629 22.8438 22.6071 22.8438H23.0922C23.1364 22.8438 23.1722 22.8796 23.1722 22.9238V23.2644C23.1722 23.3086 23.1364 23.3444 23.0922 23.3444H22.6071C22.5629 23.3444 22.5271 23.3803 22.5271 23.4244V24.676C22.5271 24.9289 22.6355 25.0373 22.8729 25.0373C22.9778 25.0373 23.0586 25.0228 23.1245 25.0031C23.1288 25.0019 23.1332 25.0012 23.1377 25.0012C23.1625 25.0012 23.1826 25.0213 23.1826 25.046V25.4378C23.1826 25.4728 23.1599 25.5039 23.1258 25.5118C23.0335 25.5332 22.8911 25.5534 22.7284 25.5534Z" fill="#191C1F"/>
<path d="M20.7205 22.4353C20.4728 22.4353 20.3438 22.2908 20.3438 22.0637C20.3438 21.8366 20.4728 21.6973 20.7205 21.6973C20.9631 21.6973 21.0973 21.8366 21.0973 22.0637C21.0973 22.2908 20.9631 22.4353 20.7205 22.4353ZM20.5063 25.5062C20.4621 25.5062 20.4263 25.4704 20.4263 25.4262V22.923C20.4263 22.8789 20.4621 22.843 20.5063 22.843H20.9347C20.9789 22.843 21.0147 22.8789 21.0147 22.923V25.4262C21.0147 25.4704 20.9789 25.5062 20.9347 25.5062H20.5063Z" fill="#191C1F"/>
<path d="M18.3519 25.5532C17.6654 25.5532 17.2473 25.0061 17.2422 24.17C17.2473 23.3804 17.6344 22.7972 18.3519 22.7972C18.7351 22.7972 18.9767 22.9591 19.1117 23.1576C19.1142 23.1614 19.1184 23.1636 19.1229 23.1636C19.1303 23.1636 19.1364 23.1576 19.1364 23.1502V21.7675C19.1364 21.7233 19.1722 21.6875 19.2164 21.6875H19.6448C19.6889 21.6875 19.7248 21.7233 19.7248 21.7675V25.4268C19.7248 25.471 19.6889 25.5068 19.6448 25.5068H19.2684C19.2306 25.5068 19.1979 25.4802 19.1901 25.4432L19.1389 25.199C19.1374 25.1919 19.1312 25.1868 19.1239 25.1868C19.1188 25.1868 19.114 25.1893 19.1111 25.1936C18.9761 25.3918 18.7346 25.5532 18.3519 25.5532ZM18.4964 25.0319C18.966 25.0319 19.157 24.6345 19.157 24.17C19.157 23.7107 18.9712 23.3184 18.4964 23.3184C18.0112 23.3184 17.8409 23.7107 17.8409 24.17C17.8409 24.6397 18.0164 25.0319 18.4964 25.0319Z" fill="#191C1F"/>
<path d="M15.6422 25.5529C14.8318 25.5529 14.3828 24.9491 14.3828 24.1749C14.3828 23.4111 14.7906 22.7969 15.6318 22.7969C16.4112 22.7969 16.8344 23.3594 16.8344 24.0923V24.2601C16.8344 24.3043 16.7986 24.3401 16.7544 24.3401H15.0718C15.0277 24.3401 14.9915 24.376 14.9945 24.42C15.0206 24.7999 15.2365 25.0575 15.6422 25.0575C15.938 25.0575 16.127 24.9379 16.2053 24.7531C16.2193 24.7202 16.25 24.6962 16.2857 24.6962H16.7055C16.7544 24.6962 16.792 24.7398 16.78 24.7871C16.6683 25.227 16.2367 25.5529 15.6422 25.5529ZM15.0044 23.8387C14.9983 23.8838 15.0351 23.922 15.0807 23.922H16.1494C16.194 23.922 16.2304 23.8853 16.2259 23.8409C16.1941 23.5298 16.0028 23.2975 15.6318 23.2975C15.2385 23.2975 15.0453 23.5325 15.0044 23.8387Z" fill="#191C1F"/>
<path d="M12.6816 25.5059C12.6374 25.5059 12.6016 25.4701 12.6016 25.4259V22.9228C12.6016 22.8786 12.6374 22.8428 12.6816 22.8428H13.0262C13.0666 22.8428 13.1007 22.8729 13.1056 22.9131L13.1472 23.2544C13.148 23.261 13.1537 23.266 13.1603 23.266C13.1657 23.266 13.1706 23.2627 13.1727 23.2577C13.2827 22.9887 13.5288 22.8066 13.8609 22.8066H13.9977C14.0419 22.8066 14.0777 22.8425 14.0777 22.8866V23.2737C14.0777 23.3179 14.0419 23.3537 13.9977 23.3537H13.8506C13.4016 23.3537 13.1693 23.6634 13.1693 24.2053V25.4259C13.1693 25.4701 13.1335 25.5059 13.0893 25.5059H12.6816Z" fill="#191C1F"/>
<path d="M10.879 25.5529C10.0584 25.5529 9.60938 25.0007 9.60938 24.1749C9.60938 23.3543 10.0481 22.7969 10.8636 22.7969C11.5745 22.7969 11.9455 23.1975 12.0117 23.7287C12.0175 23.7745 11.9806 23.8136 11.9345 23.8136H11.5047C11.4632 23.8136 11.4292 23.7817 11.421 23.7409C11.3694 23.4829 11.1663 23.3182 10.8636 23.3182C10.4094 23.3182 10.2081 23.6588 10.2081 24.1749C10.2081 24.7014 10.4094 25.0368 10.8636 25.0368C11.172 25.0368 11.3713 24.8755 11.4256 24.6128C11.4339 24.5726 11.4677 24.5414 11.5087 24.5414H11.9383C11.9849 24.5414 12.0219 24.5813 12.0155 24.6275C11.9407 25.1706 11.5707 25.5529 10.879 25.5529Z" fill="#191C1F"/>
</g>
</g>
<defs>
<clipPath id="clip0_3210_79602">
<rect width="32" height="32" fill="white"/>
</clipPath>
<clipPath id="clip1_3210_79602">
<rect width="32" height="32" fill="white"/>
</clipPath>
</defs>
</svg>
