<svg width="64" height="64" viewBox="0 0 64 64" fill="none" xmlns="http://www.w3.org/2000/svg">
<g clip-path="url(#clip0_3210_79601)">
<g clip-path="url(#clip1_3210_79601)">
<path d="M0 32C0 49.6731 14.3269 64 32 64C49.6731 64 64 49.6731 64 32C64 14.3269 49.6731 0 32 0C14.3269 0 0 14.3269 0 32Z" fill="white"/>
<path d="M19.621 21.275C18.8353 21.275 18.1797 21.9361 18.1797 22.7328V33.4519C18.1797 34.2321 18.8353 34.8935 19.621 34.8935C20.4066 34.8935 21.0458 34.2324 21.0458 33.4519V22.7328C21.0458 21.9361 20.4063 21.275 19.621 21.275Z" fill="#191C1F"/>
<path d="M46.3085 25.4371C45.9724 24.6242 45.4578 23.9089 44.824 23.2694C44.1901 22.6678 43.4424 22.1639 42.6079 21.8172C41.7572 21.4705 40.847 21.2968 39.8989 21.2968H37.1141C37.0329 21.275 36.9569 21.275 36.8757 21.275C36.0468 21.275 35.375 21.9308 35.375 22.749V33.4248C35.375 34.2377 36.0088 34.8608 36.8163 34.8988H39.8989C40.847 34.8988 41.7572 34.7036 42.6079 34.3569C43.4368 34.0102 44.1898 33.5225 44.824 32.9209C45.4578 32.2598 45.9724 31.5661 46.3085 30.7317C46.666 29.8973 46.8393 29.0246 46.8393 28.0981C46.8393 27.1821 46.666 26.2718 46.3085 25.4374V25.4371ZM42.7815 30.8671C42.0014 31.6312 40.9718 32.0214 39.8451 32.0214H38.2414V24.1365H39.8451C40.9721 24.1365 42.0014 24.5647 42.7815 25.3123C43.5616 26.0546 43.9735 27.0356 43.9735 28.0922C43.9735 29.1488 43.5619 30.1242 42.7815 30.8668V30.8671Z" fill="#191C1F"/>
<path d="M37.6798 17.7338L33.4483 13.5014C33.1559 13.2088 32.7657 13.0678 32.3811 13.0787C31.9965 13.0678 31.6063 13.2032 31.3138 13.5014L27.0823 17.7338C26.5188 18.2974 26.5188 19.2078 27.0823 19.7714C27.6459 20.335 28.556 20.335 29.1195 19.7714L31.0319 17.8586V29.3635L25.9336 21.988C25.679 21.5435 25.2076 21.251 24.6659 21.251C23.864 21.251 23.2031 21.912 23.2031 22.7088V33.4169C23.2031 34.2136 23.864 34.8747 24.6659 34.8747C25.4677 34.8747 26.1287 34.2136 26.1287 33.4169V26.784L31.3082 34.2354C31.3082 34.2516 31.3082 34.2734 31.33 34.2952C31.6225 34.6637 32.0344 34.8806 32.5002 34.8806C33.3021 34.8806 33.9468 34.2195 33.9468 33.4228V18.0805L35.6426 19.7767C36.2061 20.3403 37.1163 20.3403 37.6798 19.7767C38.2433 19.2131 38.2433 18.2971 37.6798 17.7338Z" fill="#191C1F"/>
<path d="M19.621 21.275C18.8353 21.275 18.1797 21.9361 18.1797 22.7328V33.4519C18.1797 34.2321 18.8353 34.8935 19.621 34.8935C20.4066 34.8935 21.0458 34.2324 21.0458 33.4519V22.7328C21.0458 21.9361 20.4063 21.275 19.621 21.275Z" fill="#191C1F"/>
<path d="M46.3085 25.4371C45.9724 24.6242 45.4578 23.9089 44.824 23.2694C44.1901 22.6678 43.4424 22.1639 42.6079 21.8172C41.7572 21.4705 40.847 21.2968 39.8989 21.2968H37.1141C37.0329 21.275 36.9569 21.275 36.8757 21.275C36.0468 21.275 35.375 21.9308 35.375 22.749V33.4248C35.375 34.2377 36.0088 34.8608 36.8163 34.8988H39.8989C40.847 34.8988 41.7572 34.7036 42.6079 34.3569C43.4368 34.0102 44.1898 33.5225 44.824 32.9209C45.4578 32.2598 45.9724 31.5661 46.3085 30.7317C46.666 29.8973 46.8393 29.0246 46.8393 28.0981C46.8393 27.1821 46.666 26.2718 46.3085 25.4374V25.4371ZM42.7815 30.8671C42.0014 31.6312 40.9718 32.0214 39.8451 32.0214H38.2414V24.1365H39.8451C40.9721 24.1365 42.0014 24.5647 42.7815 25.3123C43.5616 26.0546 43.9735 27.0356 43.9735 28.0922C43.9735 29.1488 43.5619 30.1242 42.7815 30.8668V30.8671Z" fill="#191C1F"/>
<path d="M37.6798 17.7338L33.4483 13.5014C33.1559 13.2088 32.7657 13.0678 32.3811 13.0787C31.9965 13.0678 31.6063 13.2032 31.3138 13.5014L27.0823 17.7338C26.5188 18.2974 26.5188 19.2078 27.0823 19.7714C27.6459 20.335 28.556 20.335 29.1195 19.7714L31.0319 17.8586V29.3635L25.9336 21.988C25.679 21.5435 25.2076 21.251 24.6659 21.251C23.864 21.251 23.2031 21.912 23.2031 22.7088V33.4169C23.2031 34.2136 23.864 34.8747 24.6659 34.8747C25.4677 34.8747 26.1287 34.2136 26.1287 33.4169V26.784L31.3082 34.2354C31.3082 34.2516 31.3082 34.2734 31.33 34.2952C31.6225 34.6637 32.0344 34.8806 32.5002 34.8806C33.3021 34.8806 33.9468 34.2195 33.9468 33.4228V18.0805L35.6426 19.7767C36.2061 20.3403 37.1163 20.3403 37.6798 19.7767C38.2433 19.2131 38.2433 18.2971 37.6798 17.7338Z" fill="#191C1F"/>
<path d="M20.6051 49.0004C20.6051 48.5458 20.3246 48.1742 19.8293 48.1742C19.3691 48.1742 19.0403 48.5327 19.0403 49.0004C19.0403 49.4682 19.3691 49.8223 19.8293 49.8223C20.3246 49.8223 20.6051 49.455 20.6051 49.0004ZM18.7773 49.8922V46.8496C18.7773 46.7097 18.8782 46.6879 18.9264 46.6879C18.9746 46.6879 19.0754 46.7097 19.0754 46.8496V48.3316H19.0842C19.2595 48.0649 19.5663 47.925 19.86 47.925C20.4999 47.925 20.9207 48.3971 20.9207 49.0004C20.9207 49.6037 20.4999 50.0758 19.86 50.0758C19.5663 50.0758 19.2595 49.9359 19.0842 49.678H19.0754V49.8922C19.0754 50.0321 18.9746 50.0539 18.9264 50.0539C18.8782 50.0539 18.7773 50.0321 18.7773 49.8922Z" fill="#191C1F"/>
<path d="M23.1811 48.1654L22.2125 50.5523C22.0854 50.8671 21.9232 51.0725 21.5682 51.0725C21.5156 51.0725 21.441 51.0681 21.3928 51.055C21.3183 51.0332 21.2833 50.9851 21.2833 50.9239C21.2833 50.8539 21.3358 50.7971 21.4104 50.7971C21.4323 50.7971 21.4542 50.8015 21.4805 50.8059C21.5156 50.8102 21.5331 50.8102 21.555 50.8102C21.7522 50.8102 21.8574 50.6791 21.9451 50.4474L22.1117 50.019L21.2964 48.1742C21.2833 48.1392 21.2789 48.113 21.2789 48.0911C21.2789 48.0081 21.349 47.9469 21.4323 47.9469C21.4805 47.9469 21.5419 47.9644 21.5813 48.0649L22.2651 49.7042H22.2738L22.9006 48.0649C22.9357 47.9687 22.997 47.9469 23.0453 47.9469C23.1329 47.9469 23.1987 48.0081 23.1987 48.0868C23.1987 48.1042 23.1943 48.1305 23.1811 48.1654Z" fill="#191C1F"/>
<path d="M25.295 47.1993V49.7523C25.295 50.0146 25.1109 50.0627 25.0189 50.0627C24.9269 50.0627 24.7428 50.0146 24.7428 49.7523V47.1993C24.7428 46.937 24.9269 46.889 25.0189 46.889C25.1109 46.889 25.295 46.937 25.295 47.1993Z" fill="#191C1F"/>
<path d="M27.9829 49.8091L26.5408 47.8245H26.5321V49.7523C26.5321 50.0146 26.348 50.0627 26.2559 50.0627C26.1639 50.0627 25.9798 50.0146 25.9798 49.7523V47.2911C25.9798 46.9502 26.2165 46.889 26.3261 46.889C26.4488 46.889 26.5671 46.9414 26.7118 47.1425L28.1538 49.1228H28.1626V47.1993C28.1626 46.937 28.3467 46.889 28.4387 46.889C28.5308 46.889 28.7149 46.937 28.7149 47.1993V49.6605C28.7149 50.0015 28.4782 50.0627 28.3686 50.0627C28.2415 50.0627 28.1319 50.0102 27.9829 49.8091Z" fill="#191C1F"/>
<path d="M30.5 50.0233H29.7285C29.505 50.0233 29.3998 49.9184 29.3998 49.6955V47.2562C29.3998 47.0332 29.505 46.9283 29.7285 46.9283H30.5C31.3109 46.9283 32.2138 47.313 32.2138 48.4758C32.2138 49.56 31.3109 50.0233 30.5 50.0233ZM29.9521 47.4004V49.5425H30.4123C30.9821 49.5425 31.6221 49.3108 31.6221 48.4758C31.6221 47.5884 30.9821 47.4004 30.4123 47.4004H29.9521Z" fill="#191C1F"/>
<path d="M32.7208 49.7698V48.1611C32.7208 47.925 32.8917 47.8857 32.9706 47.8857C33.0495 47.8857 33.2205 47.925 33.2205 48.1611V48.2616H33.2292C33.3213 48.0562 33.5448 47.8638 33.8823 47.8638C34.2067 47.8638 34.4214 48.0256 34.5398 48.2616C34.68 48.0081 34.9167 47.8638 35.2323 47.8638C35.7802 47.8638 36.0081 48.2835 36.0081 48.7119V49.7698C36.0081 50.019 35.8328 50.0627 35.7451 50.0627C35.6575 50.0627 35.4821 50.019 35.4821 49.7698V48.8605C35.4821 48.6113 35.4252 48.301 35.0877 48.301C34.7589 48.301 34.623 48.607 34.623 48.878V49.7698C34.623 50.019 34.4477 50.0627 34.3601 50.0627C34.2724 50.0627 34.0971 50.019 34.0971 49.7698V48.7556C34.0971 48.4977 33.9743 48.301 33.707 48.301C33.3914 48.301 33.2468 48.5895 33.2468 48.8693V49.7698C33.2468 50.019 33.0714 50.0627 32.9838 50.0627C32.8961 50.0627 32.7208 50.019 32.7208 49.7698Z" fill="#191C1F"/>
<path d="M38.7855 48.9654C38.7855 49.6255 38.277 50.0845 37.6415 50.0845C37.0059 50.0845 36.4975 49.6255 36.4975 48.9654C36.4975 48.3053 37.0059 47.8638 37.6415 47.8638C38.277 47.8638 38.7855 48.3053 38.7855 48.9654ZM38.2507 48.9654C38.2507 48.6376 38.0579 48.2922 37.6415 48.2922C37.2251 48.2922 37.0322 48.6376 37.0322 48.9654C37.0322 49.2933 37.2251 49.6474 37.6415 49.6474C38.0579 49.6474 38.2507 49.2933 38.2507 48.9654Z" fill="#191C1F"/>
<path d="M39.2954 49.7698V48.1611C39.2954 47.925 39.4664 47.8857 39.5453 47.8857C39.6242 47.8857 39.7951 47.925 39.7951 48.1611V48.2616H39.8039C39.8959 48.0518 40.1458 47.8638 40.457 47.8638C41.0049 47.8638 41.2328 48.2835 41.2328 48.7119V49.7698C41.2328 50.019 41.0575 50.0627 40.9698 50.0627C40.8821 50.0627 40.7068 50.019 40.7068 49.7698V48.8605C40.7068 48.6113 40.6498 48.301 40.3123 48.301C39.9792 48.301 39.8214 48.5895 39.8214 48.8693V49.7698C39.8214 50.019 39.6461 50.0627 39.5584 50.0627C39.4708 50.0627 39.2954 50.019 39.2954 49.7698Z" fill="#191C1F"/>
<path d="M43.5735 49.1403H42.2498C42.2717 49.4376 42.5435 49.6561 42.8503 49.6561C43.0694 49.6561 43.2009 49.5862 43.3324 49.4769C43.4069 49.4157 43.4552 49.4026 43.5121 49.4026C43.6305 49.4026 43.7225 49.4856 43.7225 49.6124C43.7225 49.6561 43.705 49.7348 43.6349 49.8004C43.4289 49.9971 43.1922 50.0845 42.8547 50.0845C42.206 50.0845 41.7238 49.6693 41.7238 48.9873C41.7238 48.3097 42.2016 47.8638 42.8371 47.8638C43.3456 47.8638 43.7576 48.1523 43.8409 48.7687C43.8453 48.8124 43.8496 48.843 43.8496 48.878C43.8496 49.0616 43.7488 49.1403 43.5735 49.1403ZM42.2498 48.7643H43.328C43.328 48.4933 43.1746 48.2572 42.8328 48.2572C42.5216 48.2572 42.2717 48.4715 42.2498 48.7643Z" fill="#191C1F"/>
<path d="M46.2043 48.266L45.3014 50.4736C45.1436 50.8583 44.9551 51.0725 44.5037 51.0725C44.2801 51.0725 44.2144 50.9414 44.2144 50.8365C44.2144 50.7315 44.2845 50.6397 44.3897 50.6222C44.416 50.6179 44.4379 50.6179 44.473 50.6179C44.6133 50.6179 44.7491 50.5304 44.8456 50.29L44.9508 50.0233L44.1574 48.2835C44.1311 48.2223 44.1223 48.1654 44.1223 48.1305C44.1223 47.995 44.2319 47.8857 44.3853 47.8857C44.4774 47.8857 44.5782 47.925 44.6483 48.0911L45.2181 49.4507H45.2269L45.7178 48.1042C45.7835 47.925 45.8887 47.8857 45.9764 47.8857C46.1254 47.8857 46.235 47.9818 46.235 48.1217C46.235 48.1523 46.2306 48.196 46.2043 48.266Z" fill="#191C1F"/>
<path d="M43.7948 43.8902C42.7829 43.8902 42.3874 43.3291 42.3874 42.5104V40.1132C42.3874 40.0248 42.3157 39.9532 42.2274 39.9532H41.7655C41.6771 39.9532 41.6055 39.8815 41.6055 39.7932V39.2209C41.6055 39.1325 41.6771 39.0609 41.7655 39.0609H42.2734C42.3617 39.0609 42.4334 38.9892 42.4334 38.9009V38.1792C42.4334 38.1077 42.4809 38.0448 42.5498 38.0253L43.3333 37.8037C43.3404 37.8017 43.3478 37.8007 43.3553 37.8007C43.3999 37.8007 43.436 37.8368 43.436 37.8814V38.9009C43.436 38.9892 43.5077 39.0609 43.596 39.0609H44.4259C44.5143 39.0609 44.5859 39.1325 44.5859 39.2209V39.7932C44.5859 39.8815 44.5143 39.9532 44.4259 39.9532H43.596C43.5077 39.9532 43.436 40.0248 43.436 40.1132V42.3264C43.436 42.7772 43.6292 42.9703 44.0524 42.9703C44.2394 42.9703 44.3833 42.9445 44.5008 42.9094C44.5084 42.9071 44.5163 42.9059 44.5243 42.9059C44.5685 42.9059 44.6043 42.9417 44.6043 42.9859V43.6714C44.6043 43.7414 44.5589 43.8035 44.4906 43.8189C44.326 43.8559 44.0775 43.8902 43.7948 43.8902Z" fill="#191C1F"/>
<path d="M40.2145 38.3329C39.7729 38.3329 39.543 38.0753 39.543 37.6706C39.543 37.2658 39.7729 37.0175 40.2145 37.0175C40.6468 37.0175 40.886 37.2658 40.886 37.6706C40.886 38.0753 40.6468 38.3329 40.2145 38.3329ZM39.8502 43.8061C39.7618 43.8061 39.6902 43.7345 39.6902 43.6461V39.2196C39.6902 39.1312 39.7618 39.0596 39.8502 39.0596H40.5788C40.6672 39.0596 40.7388 39.1312 40.7388 39.2196V43.6461C40.7388 43.7345 40.6672 43.8061 40.5788 43.8061H39.8502Z" fill="#191C1F"/>
<path d="M35.9934 43.8898C34.7699 43.8898 34.0248 42.9148 34.0156 41.4246C34.0248 40.0172 34.7147 38.9777 35.9934 38.9777C36.6765 38.9777 37.1071 39.2663 37.3477 39.6202C37.3522 39.6268 37.3596 39.6308 37.3676 39.6308C37.3809 39.6308 37.3916 39.6201 37.3916 39.6069V37.16C37.3916 37.0716 37.4632 37 37.5516 37H38.2803C38.3686 37 38.4403 37.0716 38.4403 37.16V43.647C38.4403 43.7354 38.3686 43.807 38.2803 43.807H37.6411C37.5654 43.807 37.5 43.754 37.4845 43.6799L37.3961 43.2584C37.3935 43.2458 37.3823 43.2367 37.3694 43.2367C37.3603 43.2367 37.3518 43.2413 37.3466 43.2488C37.1059 43.6021 36.6755 43.8898 35.9934 43.8898ZM36.2509 42.9608C37.088 42.9608 37.4284 42.2525 37.4284 41.4246C37.4284 40.6059 37.0972 39.9068 36.2509 39.9068C35.3862 39.9068 35.0827 40.6059 35.0827 41.4246C35.0827 42.2617 35.3954 42.9608 36.2509 42.9608Z" fill="#191C1F"/>
<path d="M31.1664 43.8893C29.7222 43.8893 28.9219 42.813 28.9219 41.4332C28.9219 40.0718 29.6486 38.9772 31.148 38.9772C32.537 38.9772 33.2913 39.9798 33.2913 41.286V41.5676C33.2913 41.656 33.2197 41.7276 33.1313 41.7276H30.1673C30.079 41.7276 30.0066 41.7995 30.0134 41.8876C30.0653 42.555 30.4496 43.0062 31.1664 43.0062C31.6871 43.0062 32.0222 42.7982 32.1649 42.4757C32.1938 42.4104 32.2551 42.3623 32.3265 42.3623H33.0413C33.1391 42.3623 33.2145 42.4495 33.1893 42.544C32.9823 43.318 32.2172 43.8893 31.1664 43.8893ZM30.0321 40.8159C30.019 40.9062 30.0927 40.9825 30.1839 40.9825H32.0527C32.142 40.9825 32.2149 40.9092 32.2049 40.8204C32.1429 40.2748 31.8022 39.8694 31.148 39.8694C30.4546 39.8694 30.1102 40.2791 30.0321 40.8159Z" fill="#191C1F"/>
<path d="M25.91 43.8055C25.8216 43.8055 25.75 43.7339 25.75 43.6455V39.219C25.75 39.1307 25.8216 39.059 25.91 39.059H26.4914C26.5723 39.059 26.6404 39.1194 26.6502 39.1997L26.7226 39.7926C26.724 39.8044 26.734 39.8133 26.7459 39.8133C26.7555 39.8133 26.7642 39.8074 26.7679 39.7985C26.9641 39.3191 27.4027 38.9946 27.9945 38.9946H28.2209C28.3092 38.9946 28.3809 39.0663 28.3809 39.1546V39.8097C28.3809 39.8981 28.3092 39.9697 28.2209 39.9697H27.9761C27.1758 39.9697 26.7619 40.5216 26.7619 41.4875V43.6455C26.7619 43.7339 26.6902 43.8055 26.6019 43.8055H25.91Z" fill="#191C1F"/>
<path d="M22.677 43.8893C21.2144 43.8893 20.4141 42.905 20.4141 41.4332C20.4141 39.9706 21.196 38.9772 22.6494 38.9772C23.9083 38.9772 24.569 39.6819 24.6934 40.6196C24.7055 40.7112 24.6318 40.7893 24.5395 40.7893H23.808C23.725 40.7893 23.6571 40.7254 23.6397 40.6442C23.5426 40.1933 23.1829 39.9062 22.6494 39.9062C21.8399 39.9062 21.4811 40.5134 21.4811 41.4332C21.4811 42.3715 21.8399 42.9694 22.6494 42.9694C23.193 42.9694 23.5465 42.6881 23.6477 42.2291C23.6654 42.1489 23.7329 42.0863 23.815 42.0863H24.546C24.6393 42.0863 24.7133 42.1661 24.6999 42.2585C24.5607 43.2166 23.9019 43.8893 22.677 43.8893Z" fill="#191C1F"/>
</g>
</g>
<defs>
<clipPath id="clip0_3210_79601">
<rect width="64" height="64" fill="white"/>
</clipPath>
<clipPath id="clip1_3210_79601">
<rect width="64" height="64" fill="white"/>
</clipPath>
</defs>
</svg>
