<svg width="16" height="16" viewBox="0 0 16 16" fill="none" xmlns="http://www.w3.org/2000/svg">
<g clip-path="url(#clip0_3210_79597)">
<g clip-path="url(#clip1_3210_79597)">
<path d="M0 8C0 12.4183 3.58172 16 8 16C12.4183 16 16 12.4183 16 8C16 3.58172 12.4183 0 8 0C3.58172 0 0 3.58172 0 8Z" fill="white"/>
<path d="M4.25119 5.85254C4.00992 5.85254 3.80859 6.05554 3.80859 6.30021V9.59186C3.80859 9.83146 4.00992 10.0346 4.25119 10.0346C4.49246 10.0346 4.68872 9.83155 4.68872 9.59186V6.30021C4.68872 6.05554 4.49237 5.85254 4.25119 5.85254Z" fill="#191C1F"/>
<path d="M12.4474 7.13064C12.3442 6.881 12.1861 6.66137 11.9915 6.46497C11.7968 6.28023 11.5672 6.12549 11.311 6.01902C11.0497 5.91255 10.7702 5.85923 10.4791 5.85923H9.62389C9.59895 5.85254 9.57563 5.85254 9.55069 5.85254C9.29614 5.85254 9.08984 6.05391 9.08984 6.30518V9.58354C9.08984 9.83318 9.28448 10.0245 9.53244 10.0362H10.4791C10.7702 10.0362 11.0497 9.97625 11.311 9.86978C11.5655 9.76331 11.7967 9.61355 11.9915 9.4288C12.1861 9.22581 12.3442 9.01277 12.4474 8.75654C12.5571 8.5003 12.6104 8.23232 12.6104 7.94779C12.6104 7.66652 12.5571 7.38697 12.4474 7.13073V7.13064ZM11.3643 8.79811C11.1247 9.03275 10.8085 9.1526 10.4625 9.1526H9.97006V6.73124H10.4625C10.8086 6.73124 11.1247 6.86275 11.3643 7.09232C11.6038 7.32027 11.7303 7.62151 11.7303 7.94599C11.7303 8.27046 11.6039 8.56999 11.3643 8.79802V8.79811Z" fill="#191C1F"/>
<path d="M9.79712 4.76562L8.49771 3.46591C8.40789 3.37607 8.28807 3.33278 8.16997 3.33612C8.05186 3.33278 7.93204 3.37436 7.84222 3.46591L6.54281 4.76562C6.36977 4.9387 6.36977 5.21825 6.54281 5.39134C6.71586 5.56442 6.99535 5.56442 7.16839 5.39134L7.75566 4.80394V8.33691L6.19004 6.07201C6.11187 5.93553 5.96711 5.84569 5.80075 5.84569C5.55452 5.84569 5.35156 6.04869 5.35156 6.29336V9.58166C5.35156 9.82633 5.55452 10.0293 5.80075 10.0293C6.04699 10.0293 6.24995 9.82633 6.24995 9.58166V7.5448L7.84051 9.83302C7.84051 9.83799 7.84051 9.84468 7.84719 9.85137C7.93701 9.96453 8.06352 10.0311 8.20656 10.0311C8.4528 10.0311 8.65079 9.82814 8.65079 9.58347V4.87209L9.17155 5.39296C9.34459 5.56605 9.62408 5.56605 9.79712 5.39296C9.97017 5.21988 9.97017 4.93861 9.79712 4.76562Z" fill="#191C1F"/>
<path d="M4.25119 5.85254C4.00992 5.85254 3.80859 6.05554 3.80859 6.30021V9.59186C3.80859 9.83146 4.00992 10.0346 4.25119 10.0346C4.49246 10.0346 4.68872 9.83155 4.68872 9.59186V6.30021C4.68872 6.05554 4.49237 5.85254 4.25119 5.85254Z" fill="#191C1F"/>
<path d="M12.4474 7.13064C12.3442 6.881 12.1861 6.66137 11.9915 6.46497C11.7968 6.28023 11.5672 6.12549 11.311 6.01902C11.0497 5.91255 10.7702 5.85923 10.4791 5.85923H9.62389C9.59895 5.85254 9.57563 5.85254 9.55069 5.85254C9.29614 5.85254 9.08984 6.05391 9.08984 6.30518V9.58354C9.08984 9.83318 9.28448 10.0245 9.53244 10.0362H10.4791C10.7702 10.0362 11.0497 9.97625 11.311 9.86978C11.5655 9.76331 11.7967 9.61355 11.9915 9.4288C12.1861 9.22581 12.3442 9.01277 12.4474 8.75654C12.5571 8.5003 12.6104 8.23232 12.6104 7.94779C12.6104 7.66652 12.5571 7.38697 12.4474 7.13073V7.13064ZM11.3643 8.79811C11.1247 9.03275 10.8085 9.1526 10.4625 9.1526H9.97006V6.73124H10.4625C10.8086 6.73124 11.1247 6.86275 11.3643 7.09232C11.6038 7.32027 11.7303 7.62151 11.7303 7.94599C11.7303 8.27046 11.6039 8.56999 11.3643 8.79802V8.79811Z" fill="#191C1F"/>
<path d="M9.79712 4.76562L8.49771 3.46591C8.40789 3.37607 8.28807 3.33278 8.16997 3.33612C8.05186 3.33278 7.93204 3.37436 7.84222 3.46591L6.54281 4.76562C6.36977 4.9387 6.36977 5.21825 6.54281 5.39134C6.71586 5.56442 6.99535 5.56442 7.16839 5.39134L7.75566 4.80394V8.33691L6.19004 6.07201C6.11187 5.93553 5.96711 5.84569 5.80075 5.84569C5.55452 5.84569 5.35156 6.04869 5.35156 6.29336V9.58166C5.35156 9.82633 5.55452 10.0293 5.80075 10.0293C6.04699 10.0293 6.24995 9.82633 6.24995 9.58166V7.5448L7.84051 9.83302C7.84051 9.83799 7.84051 9.84468 7.84719 9.85137C7.93701 9.96453 8.06352 10.0311 8.20656 10.0311C8.4528 10.0311 8.65079 9.82814 8.65079 9.58347V4.87209L9.17155 5.39296C9.34459 5.56605 9.62408 5.56605 9.79712 5.39296C9.97017 5.21988 9.97017 4.93861 9.79712 4.76562Z" fill="#191C1F"/>
<path d="M11.3642 12.7767C11.0803 12.7767 10.9694 12.6193 10.9694 12.3896V11.7122C10.9694 11.6901 10.9514 11.6722 10.9294 11.6722H10.79C10.7679 11.6722 10.75 11.6543 10.75 11.6322V11.4619C10.75 11.4398 10.7679 11.4219 10.79 11.4219H10.9423C10.9643 11.4219 10.9823 11.404 10.9823 11.3819V11.1709C10.9823 11.153 10.9941 11.1373 11.0114 11.1324L11.2347 11.0692C11.2367 11.0686 11.2388 11.0684 11.2409 11.0684C11.2534 11.0684 11.2635 11.0785 11.2635 11.091V11.3819C11.2635 11.404 11.2815 11.4219 11.3035 11.4219H11.5461C11.5682 11.4219 11.5861 11.4398 11.5861 11.4619V11.6322C11.5861 11.6543 11.5682 11.6722 11.5461 11.6722H11.3035C11.2815 11.6722 11.2635 11.6901 11.2635 11.7122V12.338C11.2635 12.4645 11.3177 12.5187 11.4364 12.5187C11.4889 12.5187 11.5293 12.5114 11.5623 12.5016C11.5644 12.5009 11.5666 12.5006 11.5689 12.5006C11.5812 12.5006 11.5913 12.5106 11.5913 12.523V12.7189C11.5913 12.7364 11.5799 12.752 11.5629 12.7559C11.5168 12.7666 11.4455 12.7767 11.3642 12.7767Z" fill="#191C1F"/>
<path d="M10.3603 11.2177C10.2364 11.2177 10.1719 11.1454 10.1719 11.0319C10.1719 10.9183 10.2364 10.8486 10.3603 10.8486C10.4816 10.8486 10.5486 10.9183 10.5486 11.0319C10.5486 11.1454 10.4816 11.2177 10.3603 11.2177ZM10.2532 12.7531C10.2311 12.7531 10.2132 12.7352 10.2132 12.7131V11.4615C10.2132 11.4394 10.2311 11.4215 10.2532 11.4215H10.4674C10.4894 11.4215 10.5074 11.4394 10.5074 11.4615V12.7131C10.5074 12.7352 10.4894 12.7531 10.4674 12.7531H10.2532Z" fill="#191C1F"/>
<path d="M9.17593 12.7766C8.8327 12.7766 8.62367 12.5031 8.62109 12.085C8.62367 11.6902 8.81722 11.3986 9.17593 11.3986C9.36756 11.3986 9.48836 11.4795 9.55586 11.5788C9.55712 11.5807 9.55921 11.5818 9.56146 11.5818C9.56517 11.5818 9.56818 11.5788 9.56818 11.5751V10.8838C9.56818 10.8617 9.58609 10.8438 9.60818 10.8438H9.82238C9.84447 10.8438 9.86238 10.8617 9.86238 10.8838V12.7134C9.86238 12.7355 9.84447 12.7534 9.82238 12.7534H9.63421C9.61529 12.7534 9.59895 12.7401 9.59507 12.7216L9.56946 12.5995C9.56872 12.5959 9.56559 12.5934 9.56196 12.5934C9.5594 12.5934 9.55702 12.5947 9.55557 12.5968C9.48803 12.6959 9.3673 12.7766 9.17593 12.7766ZM9.24819 12.516C9.48302 12.516 9.57851 12.3173 9.57851 12.085C9.57851 11.8553 9.4856 11.6592 9.24819 11.6592C9.00561 11.6592 8.92045 11.8553 8.92045 12.085C8.92045 12.3198 9.00819 12.516 9.24819 12.516Z" fill="#191C1F"/>
<path d="M7.82108 12.7765C7.41592 12.7765 7.19141 12.4745 7.19141 12.0875C7.19141 11.7055 7.39528 11.3984 7.81592 11.3984C8.20559 11.3984 8.4172 11.6797 8.4172 12.0462V12.13C8.4172 12.1521 8.3993 12.17 8.3772 12.17H7.53592C7.51383 12.17 7.49575 12.188 7.49726 12.21C7.5103 12.3999 7.61824 12.5287 7.82108 12.5287C7.96898 12.5287 8.06349 12.4689 8.10266 12.3765C8.10964 12.3601 8.125 12.3481 8.14286 12.3481H8.35274C8.37718 12.3481 8.39602 12.3699 8.39001 12.3936C8.33413 12.6135 8.11835 12.7765 7.82108 12.7765ZM7.50218 11.9193C7.49915 11.9419 7.51754 11.961 7.54033 11.961H8.07468C8.097 11.961 8.11521 11.9427 8.11294 11.9205C8.09706 11.7649 8.00141 11.6488 7.81592 11.6488C7.61924 11.6488 7.52265 11.7663 7.50218 11.9193Z" fill="#191C1F"/>
<path d="M6.34078 12.753C6.31869 12.753 6.30078 12.7351 6.30078 12.713V11.4614C6.30078 11.4393 6.31869 11.4214 6.34078 11.4214H6.5131C6.53332 11.4214 6.55036 11.4365 6.55281 11.4565L6.57362 11.6272C6.57402 11.6305 6.57683 11.633 6.58017 11.633C6.58287 11.633 6.5853 11.6313 6.58633 11.6288C6.64137 11.4943 6.76442 11.4033 6.93045 11.4033H6.99884C7.02093 11.4033 7.03884 11.4212 7.03884 11.4433V11.6369C7.03884 11.659 7.02093 11.6769 6.99884 11.6769H6.92529C6.70078 11.6769 6.58465 11.8317 6.58465 12.1027V12.713C6.58465 12.7351 6.56674 12.753 6.54465 12.753H6.34078Z" fill="#191C1F"/>
<path d="M5.43952 12.7765C5.0292 12.7765 4.80469 12.5004 4.80469 12.0875C4.80469 11.6771 5.02404 11.3984 5.43178 11.3984C5.78727 11.3984 5.97273 11.5987 6.00587 11.8644C6.00873 11.8873 5.99032 11.9068 5.96724 11.9068H5.75235C5.73159 11.9068 5.71458 11.8908 5.7105 11.8705C5.68468 11.7415 5.58317 11.6591 5.43178 11.6591C5.20468 11.6591 5.10404 11.8294 5.10404 12.0875C5.10404 12.3507 5.20468 12.5184 5.43178 12.5184C5.58598 12.5184 5.68566 12.4377 5.71278 12.3064C5.71693 12.2863 5.73384 12.2707 5.75437 12.2707H5.96914C5.99247 12.2707 6.01096 12.2906 6.00777 12.3138C5.97036 12.5853 5.78537 12.7765 5.43952 12.7765Z" fill="#191C1F"/>
</g>
</g>
<defs>
<clipPath id="clip0_3210_79597">
<rect width="16" height="16" fill="white"/>
</clipPath>
<clipPath id="clip1_3210_79597">
<rect width="16" height="16" fill="white"/>
</clipPath>
</defs>
</svg>
