<svg width="12" height="12" viewBox="0 0 12 12" fill="none" xmlns="http://www.w3.org/2000/svg">
<g clip-path="url(#clip0_3210_79595)">
<g clip-path="url(#clip1_3210_79595)">
<path d="M0 6C0 9.31371 2.68629 12 6 12C9.31371 12 12 9.31371 12 6C12 2.68629 9.31371 0 6 0C2.68629 0 0 2.68629 0 6Z" fill="white"/>
<path d="M3.18742 4.40112C3.00646 4.40112 2.85547 4.55337 2.85547 4.73687V7.20561C2.85547 7.38531 3.00646 7.53763 3.18742 7.53763C3.36837 7.53763 3.51557 7.38538 3.51557 7.20561V4.73687C3.51557 4.55337 3.3683 4.40112 3.18742 4.40112Z" fill="#191C1F"/>
<path d="M9.33454 5.3597C9.25714 5.17247 9.13861 5.00775 8.99263 4.86045C8.84665 4.72189 8.67444 4.60584 8.48224 4.52599C8.28631 4.44613 8.07669 4.40614 7.85833 4.40614H7.21694C7.19823 4.40112 7.18075 4.40112 7.16204 4.40112C6.97113 4.40112 6.81641 4.55215 6.81641 4.7406V7.19937C6.81641 7.3866 6.96239 7.53011 7.14835 7.53885H7.85833C8.07669 7.53885 8.28631 7.49391 8.48224 7.41406C8.67315 7.3342 8.84658 7.22188 8.99263 7.08332C9.13861 6.93107 9.25714 6.7713 9.33454 6.57912C9.41688 6.38695 9.4568 6.18596 9.4568 5.97256C9.4568 5.76161 9.41688 5.55194 9.33454 5.35977V5.3597ZM8.52222 6.6103C8.34256 6.78628 8.10543 6.87617 7.84593 6.87617H7.47657V5.06015H7.84593C8.10549 5.06015 8.34256 5.15878 8.52222 5.33096C8.70189 5.50192 8.79677 5.72785 8.79677 5.97121C8.79677 6.21456 8.70195 6.43921 8.52222 6.61024V6.6103Z" fill="#191C1F"/>
<path d="M7.34589 3.58593L6.37133 2.61115C6.30397 2.54377 6.2141 2.5113 6.12552 2.51381C6.03694 2.5113 5.94708 2.54249 5.87971 2.61115L4.90516 3.58593C4.77537 3.71574 4.77537 3.92541 4.90516 4.05522C5.03494 4.18503 5.24456 4.18503 5.37434 4.05522L5.81479 3.61467V6.2644L4.64057 4.56573C4.58195 4.46337 4.47338 4.39599 4.34861 4.39599C4.16393 4.39599 4.01172 4.54824 4.01172 4.73174V7.19797C4.01172 7.38147 4.16393 7.53372 4.34861 7.53372C4.53329 7.53372 4.68551 7.38147 4.68551 7.19797V5.67032L5.87843 7.38648C5.87843 7.39021 5.87843 7.39523 5.88344 7.40024C5.95081 7.48511 6.04569 7.53507 6.15297 7.53507C6.33765 7.53507 6.48614 7.38282 6.48614 7.19932V3.66579L6.87671 4.05644C7.00649 4.18625 7.21611 4.18625 7.34589 4.05644C7.47567 3.92663 7.47567 3.71568 7.34589 3.58593Z" fill="#191C1F"/>
<path d="M3.18742 4.40112C3.00646 4.40112 2.85547 4.55337 2.85547 4.73687V7.20561C2.85547 7.38531 3.00646 7.53763 3.18742 7.53763C3.36837 7.53763 3.51557 7.38538 3.51557 7.20561V4.73687C3.51557 4.55337 3.3683 4.40112 3.18742 4.40112Z" fill="#191C1F"/>
<path d="M9.33454 5.3597C9.25714 5.17247 9.13861 5.00775 8.99263 4.86045C8.84665 4.72189 8.67444 4.60584 8.48224 4.52599C8.28631 4.44613 8.07669 4.40614 7.85833 4.40614H7.21694C7.19823 4.40112 7.18075 4.40112 7.16204 4.40112C6.97113 4.40112 6.81641 4.55215 6.81641 4.7406V7.19937C6.81641 7.3866 6.96239 7.53011 7.14835 7.53885H7.85833C8.07669 7.53885 8.28631 7.49391 8.48224 7.41406C8.67315 7.3342 8.84658 7.22188 8.99263 7.08332C9.13861 6.93107 9.25714 6.7713 9.33454 6.57912C9.41688 6.38695 9.4568 6.18596 9.4568 5.97256C9.4568 5.76161 9.41688 5.55194 9.33454 5.35977V5.3597ZM8.52222 6.6103C8.34256 6.78628 8.10543 6.87617 7.84593 6.87617H7.47657V5.06015H7.84593C8.10549 5.06015 8.34256 5.15878 8.52222 5.33096C8.70189 5.50192 8.79677 5.72785 8.79677 5.97121C8.79677 6.21456 8.70195 6.43921 8.52222 6.61024V6.6103Z" fill="#191C1F"/>
<path d="M7.34589 3.58593L6.37133 2.61115C6.30397 2.54377 6.2141 2.5113 6.12552 2.51381C6.03694 2.5113 5.94708 2.54249 5.87971 2.61115L4.90516 3.58593C4.77537 3.71574 4.77537 3.92541 4.90516 4.05522C5.03494 4.18503 5.24456 4.18503 5.37434 4.05522L5.81479 3.61467V6.2644L4.64057 4.56573C4.58195 4.46337 4.47338 4.39599 4.34861 4.39599C4.16393 4.39599 4.01172 4.54824 4.01172 4.73174V7.19797C4.01172 7.38147 4.16393 7.53372 4.34861 7.53372C4.53329 7.53372 4.68551 7.38147 4.68551 7.19797V5.67032L5.87843 7.38648C5.87843 7.39021 5.87843 7.39523 5.88344 7.40024C5.95081 7.48511 6.04569 7.53507 6.15297 7.53507C6.33765 7.53507 6.48614 7.38282 6.48614 7.19932V3.66579L6.87671 4.05644C7.00649 4.18625 7.21611 4.18625 7.34589 4.05644C7.47567 3.92663 7.47567 3.71568 7.34589 3.58593Z" fill="#191C1F"/>
<path d="M8.52314 9.58449C8.31024 9.58449 8.22702 9.46643 8.22702 9.29417V8.78612C8.22702 8.76955 8.21358 8.75612 8.19702 8.75612H8.0925C8.07593 8.75612 8.0625 8.74269 8.0625 8.72612V8.59838C8.0625 8.58181 8.07593 8.56838 8.0925 8.56838H8.20669C8.22326 8.56838 8.23669 8.55495 8.23669 8.53838V8.38011C8.23669 8.36668 8.24561 8.35489 8.25853 8.35124L8.42604 8.30386C8.42754 8.30344 8.4291 8.30322 8.43066 8.30322C8.44005 8.30322 8.44766 8.31083 8.44766 8.32022V8.53838C8.44766 8.55495 8.46109 8.56838 8.47766 8.56838H8.65959C8.67616 8.56838 8.68959 8.58181 8.68959 8.59838V8.72612C8.68959 8.74269 8.67616 8.75612 8.65959 8.75612H8.47766C8.46109 8.75612 8.44766 8.76955 8.44766 8.78612V9.25546C8.44766 9.3503 8.4883 9.39094 8.57734 9.39094C8.61669 9.39094 8.64697 9.3855 8.67169 9.37813C8.6733 9.37765 8.67496 9.3774 8.67664 9.3774C8.68593 9.3774 8.69346 9.38493 8.69346 9.39422V9.54114C8.69346 9.55426 8.68495 9.56592 8.67217 9.56888C8.63757 9.5769 8.58415 9.58449 8.52314 9.58449Z" fill="#191C1F"/>
<path d="M7.7702 8.4152C7.67729 8.4152 7.62891 8.361 7.62891 8.27584C7.62891 8.19068 7.67729 8.13843 7.7702 8.13843C7.86116 8.13843 7.91149 8.19068 7.91149 8.27584C7.91149 8.361 7.86116 8.4152 7.7702 8.4152ZM7.68987 9.56679C7.67331 9.56679 7.65987 9.55335 7.65987 9.53679V8.5981C7.65987 8.58153 7.67331 8.5681 7.68987 8.5681H7.85052C7.86709 8.5681 7.88052 8.58153 7.88052 8.5981V9.53679C7.88052 9.55335 7.86709 9.56679 7.85052 9.56679H7.68987Z" fill="#191C1F"/>
<path d="M6.88488 9.58441C6.62746 9.58441 6.47069 9.37926 6.46875 9.06571C6.47069 8.76959 6.61585 8.55089 6.88488 8.55089C7.0286 8.55089 7.1192 8.6116 7.16982 8.68607C7.17077 8.68746 7.17234 8.6883 7.17402 8.6883C7.17681 8.6883 7.17907 8.68605 7.17907 8.68326V8.16477C7.17907 8.1482 7.1925 8.13477 7.20907 8.13477H7.36971C7.38628 8.13477 7.39971 8.1482 7.39971 8.16477V9.537C7.39971 9.55356 7.38628 9.567 7.36971 9.567H7.22859C7.21439 9.567 7.20214 9.55705 7.19923 9.54315L7.18003 9.45157C7.17947 9.4489 7.17712 9.447 7.1744 9.447C7.17248 9.447 7.17069 9.44795 7.16961 9.44954C7.11895 9.52387 7.0284 9.58441 6.88488 9.58441ZM6.93907 9.38893C7.1152 9.38893 7.18681 9.2399 7.18681 9.06571C7.18681 8.89346 7.11713 8.74637 6.93907 8.74637C6.75714 8.74637 6.69326 8.89346 6.69326 9.06571C6.69326 9.24184 6.75907 9.38893 6.93907 9.38893Z" fill="#191C1F"/>
<path d="M5.86679 9.58431C5.56292 9.58431 5.39453 9.35786 5.39453 9.06755C5.39453 8.7811 5.54743 8.55078 5.86292 8.55078C6.15517 8.55078 6.31388 8.76174 6.31388 9.03658V9.09948C6.31388 9.11605 6.30045 9.12948 6.28388 9.12948H5.65292C5.63635 9.12948 5.62279 9.14294 5.62392 9.15947C5.6337 9.30191 5.71466 9.39851 5.86679 9.39851C5.97771 9.39851 6.0486 9.35366 6.07798 9.28436C6.0832 9.27203 6.09473 9.26303 6.10812 9.26303H6.26553C6.28386 9.26303 6.29799 9.27937 6.29348 9.29713C6.25158 9.46209 6.08974 9.58431 5.86679 9.58431ZM5.62761 8.94145C5.62534 8.95839 5.63913 8.97271 5.65623 8.97271H6.05699C6.07373 8.97271 6.08738 8.95896 6.08568 8.9423C6.07377 8.82563 6.00204 8.73852 5.86292 8.73852C5.71541 8.73852 5.64296 8.82664 5.62761 8.94145Z" fill="#191C1F"/>
<path d="M4.75656 9.56668C4.73999 9.56668 4.72656 9.55325 4.72656 9.53668V8.59799C4.72656 8.58142 4.73999 8.56799 4.75656 8.56799H4.8858C4.90097 8.56799 4.91375 8.57931 4.91558 8.59436L4.93119 8.72235C4.93149 8.72483 4.9336 8.7267 4.9361 8.7267C4.93813 8.7267 4.93995 8.72545 4.94072 8.72357C4.98201 8.62271 5.07429 8.55444 5.19882 8.55444H5.25011C5.26668 8.55444 5.28011 8.56787 5.28011 8.58444V8.7296C5.28011 8.74617 5.26668 8.7596 5.25011 8.7596H5.19495C5.02656 8.7596 4.93946 8.87573 4.93946 9.07895V9.53668C4.93946 9.55325 4.92603 9.56668 4.90946 9.56668H4.75656Z" fill="#191C1F"/>
<path d="M4.08159 9.58431C3.77385 9.58431 3.60547 9.37722 3.60547 9.06755C3.60547 8.75981 3.76998 8.55078 4.07579 8.55078C4.3424 8.55078 4.4815 8.70101 4.50636 8.90023C4.5085 8.91741 4.49469 8.93206 4.47738 8.93206H4.31621C4.30065 8.93206 4.28788 8.92007 4.28483 8.90481C4.26547 8.80805 4.18933 8.74626 4.07579 8.74626C3.90547 8.74626 3.82998 8.874 3.82998 9.06755C3.82998 9.26496 3.90547 9.39076 4.07579 9.39076C4.19144 9.39076 4.2662 9.33025 4.28654 9.23177C4.28965 9.21669 4.30234 9.20496 4.31773 9.20496H4.47881C4.49631 9.20496 4.51017 9.21993 4.50778 9.23727C4.47972 9.44093 4.34098 9.58431 4.08159 9.58431Z" fill="#191C1F"/>
</g>
</g>
<defs>
<clipPath id="clip0_3210_79595">
<rect width="12" height="12" fill="white"/>
</clipPath>
<clipPath id="clip1_3210_79595">
<rect width="12" height="12" fill="white"/>
</clipPath>
</defs>
</svg>
