<svg width="40" height="40" viewBox="0 0 40 40" fill="none" xmlns="http://www.w3.org/2000/svg">
<g clip-path="url(#clip0_3210_79596)">
<g clip-path="url(#clip1_3210_79596)">
<path d="M0 20C0 31.0457 8.95431 40 20 40C31.0457 40 40 31.0457 40 20C40 8.95431 31.0457 0 20 0C8.95431 0 0 8.95431 0 20Z" fill="white"/>
<path d="M12.2641 13.3076C11.773 13.3076 11.3633 13.7208 11.3633 14.2187V20.9181C11.3633 21.4058 11.773 21.8191 12.2641 21.8191C12.7551 21.8191 13.1546 21.406 13.1546 20.9181V14.2187C13.1546 13.7208 12.7549 13.3076 12.2641 13.3076Z" fill="#191C1F"/>
<path d="M28.9428 15.9089C28.7328 15.4008 28.4111 14.9538 28.015 14.5541C27.6188 14.1781 27.1515 13.8632 26.6299 13.6465C26.0982 13.4298 25.5294 13.3212 24.9368 13.3212H23.1963C23.1455 13.3076 23.0981 13.3076 23.0473 13.3076C22.5292 13.3076 22.1094 13.7175 22.1094 14.2289V20.9012C22.1094 21.4093 22.5055 21.7987 23.0102 21.8224H24.9368C25.5294 21.8224 26.0982 21.7005 26.6299 21.4838C27.148 21.2671 27.6186 20.9623 28.015 20.5863C28.4111 20.1731 28.7328 19.7395 28.9428 19.218C29.1663 18.6965 29.2746 18.1511 29.2746 17.572C29.2746 16.9996 29.1663 16.4306 28.9428 15.9091V15.9089ZM26.7384 19.3027C26.2509 19.7802 25.6074 20.0241 24.9032 20.0241H23.9009V15.096H24.9032C25.6076 15.096 26.2509 15.3637 26.7384 15.8309C27.226 16.2948 27.4835 16.908 27.4835 17.5683C27.4835 18.2287 27.2262 18.8384 26.7384 19.3025V19.3027Z" fill="#191C1F"/>
<path d="M23.5518 11.0953L20.9072 8.45008C20.7244 8.26723 20.4805 8.17912 20.2401 8.18593C19.9997 8.17912 19.7559 8.26374 19.5731 8.45008L16.9284 11.0953C16.5762 11.4476 16.5762 12.0166 16.9284 12.3688C17.2806 12.7211 17.8494 12.7211 18.2016 12.3688L19.3969 11.1733V18.3639L16.2104 13.7542C16.0513 13.4764 15.7567 13.2936 15.4181 13.2936C14.917 13.2936 14.5039 13.7067 14.5039 14.2047V20.8973C14.5039 21.3952 14.917 21.8084 15.4181 21.8084C15.9193 21.8084 16.3324 21.3952 16.3324 20.8973V16.7517L19.5696 21.4089C19.5696 21.419 19.5696 21.4326 19.5832 21.4462C19.766 21.6765 20.0235 21.8121 20.3146 21.8121C20.8158 21.8121 21.2187 21.3989 21.2187 20.901V11.312L22.2786 12.3722C22.6308 12.7244 23.1996 12.7244 23.5518 12.3722C23.904 12.0199 23.904 11.4474 23.5518 11.0953Z" fill="#191C1F"/>
<path d="M12.2641 13.3076C11.773 13.3076 11.3633 13.7208 11.3633 14.2187V20.9181C11.3633 21.4058 11.773 21.8191 12.2641 21.8191C12.7551 21.8191 13.1546 21.406 13.1546 20.9181V14.2187C13.1546 13.7208 12.7549 13.3076 12.2641 13.3076Z" fill="#191C1F"/>
<path d="M28.9428 15.9089C28.7328 15.4008 28.4111 14.9538 28.015 14.5541C27.6188 14.1781 27.1515 13.8632 26.6299 13.6465C26.0982 13.4298 25.5294 13.3212 24.9368 13.3212H23.1963C23.1455 13.3076 23.0981 13.3076 23.0473 13.3076C22.5292 13.3076 22.1094 13.7175 22.1094 14.2289V20.9012C22.1094 21.4093 22.5055 21.7987 23.0102 21.8224H24.9368C25.5294 21.8224 26.0982 21.7005 26.6299 21.4838C27.148 21.2671 27.6186 20.9623 28.015 20.5863C28.4111 20.1731 28.7328 19.7395 28.9428 19.218C29.1663 18.6965 29.2746 18.1511 29.2746 17.572C29.2746 16.9996 29.1663 16.4306 28.9428 15.9091V15.9089ZM26.7384 19.3027C26.2509 19.7802 25.6074 20.0241 24.9032 20.0241H23.9009V15.096H24.9032C25.6076 15.096 26.2509 15.3637 26.7384 15.8309C27.226 16.2948 27.4835 16.908 27.4835 17.5683C27.4835 18.2287 27.2262 18.8384 26.7384 19.3025V19.3027Z" fill="#191C1F"/>
<path d="M23.5518 11.0953L20.9072 8.45008C20.7244 8.26723 20.4805 8.17912 20.2401 8.18593C19.9997 8.17912 19.7559 8.26374 19.5731 8.45008L16.9284 11.0953C16.5762 11.4476 16.5762 12.0166 16.9284 12.3688C17.2806 12.7211 17.8494 12.7211 18.2016 12.3688L19.3969 11.1733V18.3639L16.2104 13.7542C16.0513 13.4764 15.7567 13.2936 15.4181 13.2936C14.917 13.2936 14.5039 13.7067 14.5039 14.2047V20.8973C14.5039 21.3952 14.917 21.8084 15.4181 21.8084C15.9193 21.8084 16.3324 21.3952 16.3324 20.8973V16.7517L19.5696 21.4089C19.5696 21.419 19.5696 21.4326 19.5832 21.4462C19.766 21.6765 20.0235 21.8121 20.3146 21.8121C20.8158 21.8121 21.2187 21.3989 21.2187 20.901V11.312L22.2786 12.3722C22.6308 12.7244 23.1996 12.7244 23.5518 12.3722C23.904 12.0199 23.904 11.4474 23.5518 11.0953Z" fill="#191C1F"/>
<path d="M12.8806 30.6289C12.8806 30.3448 12.7053 30.1125 12.3957 30.1125C12.1081 30.1125 11.9026 30.3366 11.9026 30.6289C11.9026 30.9213 12.1081 31.1426 12.3957 31.1426C12.7053 31.1426 12.8806 30.9131 12.8806 30.6289ZM11.7383 31.1863V29.2847C11.7383 29.1973 11.8013 29.1836 11.8314 29.1836C11.8616 29.1836 11.9246 29.1973 11.9246 29.2847V30.2109H11.93C12.0396 30.0442 12.2314 29.9568 12.4149 29.9568C12.8149 29.9568 13.0779 30.2519 13.0779 30.6289C13.0779 31.006 12.8149 31.3011 12.4149 31.3011C12.2314 31.3011 12.0396 31.2136 11.93 31.0524H11.9246V31.1863C11.9246 31.2737 11.8616 31.2874 11.8314 31.2874C11.8013 31.2874 11.7383 31.2737 11.7383 31.1863Z" fill="#191C1F"/>
<path d="M14.4907 30.1071L13.8852 31.5989C13.8058 31.7956 13.7044 31.924 13.4825 31.924C13.4497 31.924 13.4031 31.9213 13.373 31.9131C13.3264 31.8994 13.3045 31.8694 13.3045 31.8311C13.3045 31.7874 13.3373 31.7519 13.3839 31.7519C13.3976 31.7519 13.4113 31.7546 13.4277 31.7573C13.4497 31.7601 13.4606 31.7601 13.4743 31.7601C13.5976 31.7601 13.6633 31.6781 13.7181 31.5333L13.8222 31.2655L13.3127 30.1125C13.3045 30.0907 13.3017 30.0743 13.3017 30.0606C13.3017 30.0087 13.3456 29.9705 13.3976 29.9705C13.4277 29.9705 13.4661 29.9814 13.4908 30.0442L13.9181 31.0688H13.9236L14.3153 30.0442C14.3372 29.9841 14.3756 29.9705 14.4057 29.9705C14.4605 29.9705 14.5016 30.0087 14.5016 30.0579C14.5016 30.0688 14.4989 30.0852 14.4907 30.1071Z" fill="#191C1F"/>
<path d="M15.8118 29.5033V31.0989C15.8118 31.2628 15.6968 31.2929 15.6393 31.2929C15.5817 31.2929 15.4667 31.2628 15.4667 31.0989V29.5033C15.4667 29.3393 15.5817 29.3093 15.6393 29.3093C15.6968 29.3093 15.8118 29.3393 15.8118 29.5033Z" fill="#191C1F"/>
<path d="M17.4917 31.1344L16.5905 29.894H16.585V31.0989C16.585 31.2628 16.4699 31.2929 16.4124 31.2929C16.3549 31.2929 16.2398 31.2628 16.2398 31.0989V29.5606C16.2398 29.3475 16.3877 29.3093 16.4562 29.3093C16.5329 29.3093 16.6069 29.3421 16.6973 29.4677L17.5986 30.7054H17.6041V29.5033C17.6041 29.3393 17.7191 29.3093 17.7766 29.3093C17.8342 29.3093 17.9492 29.3393 17.9492 29.5033V31.0415C17.9492 31.2546 17.8013 31.2929 17.7328 31.2929C17.6534 31.2929 17.5849 31.2601 17.4917 31.1344Z" fill="#191C1F"/>
<path d="M19.0649 31.2683H18.5828C18.4431 31.2683 18.3773 31.2027 18.3773 31.0634V29.5388C18.3773 29.3994 18.4431 29.3339 18.5828 29.3339H19.0649C19.5717 29.3339 20.1361 29.5743 20.1361 30.3011C20.1361 30.9787 19.5717 31.2683 19.0649 31.2683ZM18.7225 29.6289V30.9677H19.0101C19.3663 30.9677 19.7662 30.8229 19.7662 30.3011C19.7662 29.7464 19.3663 29.6289 19.0101 29.6289H18.7225Z" fill="#191C1F"/>
<path d="M20.4529 31.1098V30.1043C20.4529 29.9568 20.5598 29.9322 20.6091 29.9322C20.6584 29.9322 20.7652 29.9568 20.7652 30.1043V30.1672H20.7707C20.8282 30.0388 20.9679 29.9186 21.1789 29.9186C21.3816 29.9186 21.5158 30.0196 21.5898 30.1672C21.6775 30.0087 21.8254 29.9186 22.0226 29.9186C22.3651 29.9186 22.5075 30.1808 22.5075 30.4486V31.1098C22.5075 31.2655 22.3979 31.2929 22.3431 31.2929C22.2884 31.2929 22.1788 31.2655 22.1788 31.1098V30.5415C22.1788 30.3858 22.1432 30.1918 21.9322 30.1918C21.7268 30.1918 21.6418 30.383 21.6418 30.5524V31.1098C21.6418 31.2655 21.5323 31.2929 21.4775 31.2929C21.4227 31.2929 21.3131 31.2655 21.3131 31.1098V30.4759C21.3131 30.3147 21.2364 30.1918 21.0693 30.1918C20.8721 30.1918 20.7817 30.3721 20.7817 30.547V31.1098C20.7817 31.2655 20.6721 31.2929 20.6173 31.2929C20.5625 31.2929 20.4529 31.2655 20.4529 31.1098Z" fill="#191C1F"/>
<path d="M24.2434 30.6071C24.2434 31.0196 23.9256 31.3065 23.5284 31.3065C23.1311 31.3065 22.8134 31.0196 22.8134 30.6071C22.8134 30.1945 23.1311 29.9186 23.5284 29.9186C23.9256 29.9186 24.2434 30.1945 24.2434 30.6071ZM23.9091 30.6071C23.9091 30.4022 23.7886 30.1863 23.5284 30.1863C23.2681 30.1863 23.1476 30.4022 23.1476 30.6071C23.1476 30.812 23.2681 31.0333 23.5284 31.0333C23.7886 31.0333 23.9091 30.812 23.9091 30.6071Z" fill="#191C1F"/>
<path d="M24.5621 31.1098V30.1043C24.5621 29.9568 24.6689 29.9322 24.7182 29.9322C24.7676 29.9322 24.8744 29.9568 24.8744 30.1043V30.1672H24.8799C24.9374 30.036 25.0935 29.9186 25.288 29.9186C25.6305 29.9186 25.7729 30.1808 25.7729 30.4486V31.1098C25.7729 31.2655 25.6634 31.2929 25.6086 31.2929C25.5538 31.2929 25.4442 31.2655 25.4442 31.1098V30.5415C25.4442 30.3858 25.4086 30.1918 25.1976 30.1918C24.9894 30.1918 24.8908 30.3721 24.8908 30.547V31.1098C24.8908 31.2655 24.7813 31.2929 24.7265 31.2929C24.6717 31.2929 24.5621 31.2655 24.5621 31.1098Z" fill="#191C1F"/>
<path d="M27.2359 30.7164H26.4086C26.4223 30.9022 26.5921 31.0388 26.7839 31.0388C26.9208 31.0388 27.003 30.995 27.0852 30.9267C27.1318 30.8885 27.1619 30.8803 27.1975 30.8803C27.2715 30.8803 27.329 30.9322 27.329 31.0114C27.329 31.0388 27.3181 31.0879 27.2742 31.1289C27.1455 31.2519 26.9975 31.3065 26.7866 31.3065C26.3812 31.3065 26.0798 31.047 26.0798 30.6207C26.0798 30.1972 26.3784 29.9186 26.7757 29.9186C27.0934 29.9186 27.3509 30.0989 27.403 30.4841C27.4057 30.5114 27.4085 30.5306 27.4085 30.5524C27.4085 30.6672 27.3455 30.7164 27.2359 30.7164ZM26.4086 30.4814H27.0825C27.0825 30.312 26.9866 30.1645 26.7729 30.1645C26.5784 30.1645 26.4223 30.2983 26.4086 30.4814Z" fill="#191C1F"/>
<path d="M28.8801 30.1699L28.3158 31.5497C28.2172 31.7901 28.0994 31.924 27.8172 31.924C27.6775 31.924 27.6364 31.842 27.6364 31.7765C27.6364 31.7109 27.6803 31.6535 27.746 31.6426C27.7625 31.6398 27.7761 31.6398 27.7981 31.6398C27.8857 31.6398 27.9706 31.5852 28.0309 31.4349L28.0967 31.2683L27.6008 30.1808C27.5844 30.1426 27.5789 30.1071 27.5789 30.0852C27.5789 30.0005 27.6474 29.9322 27.7433 29.9322C27.8008 29.9322 27.8638 29.9568 27.9076 30.0606L28.2638 30.9103H28.2693L28.5761 30.0688C28.6172 29.9568 28.6829 29.9322 28.7377 29.9322C28.8308 29.9322 28.8993 29.9923 28.8993 30.0798C28.8993 30.0989 28.8966 30.1262 28.8801 30.1699Z" fill="#191C1F"/>
<path d="M27.3722 27.4334C26.7398 27.4334 26.4926 27.0827 26.4926 26.571V25.0728C26.4926 25.0175 26.4478 24.9728 26.3926 24.9728H26.1039C26.0487 24.9728 26.0039 24.928 26.0039 24.8728V24.5151C26.0039 24.4599 26.0487 24.4151 26.1039 24.4151H26.4213C26.4766 24.4151 26.5213 24.3703 26.5213 24.3151V23.8641C26.5213 23.8193 26.5511 23.78 26.5941 23.7678L27.0838 23.6293C27.0882 23.6281 27.0929 23.6274 27.0975 23.6274C27.1254 23.6274 27.148 23.65 27.148 23.6779V24.3151C27.148 24.3703 27.1928 24.4151 27.248 24.4151H27.7667C27.8219 24.4151 27.8667 24.4599 27.8667 24.5151V24.8728C27.8667 24.928 27.8219 24.9728 27.7667 24.9728H27.248C27.1928 24.9728 27.148 25.0175 27.148 25.0728V26.456C27.148 26.7378 27.2687 26.8585 27.5332 26.8585C27.6501 26.8585 27.74 26.8423 27.8135 26.8204C27.8183 26.819 27.8232 26.8182 27.8282 26.8182C27.8558 26.8182 27.8782 26.8406 27.8782 26.8682V27.2966C27.8782 27.3404 27.8498 27.3792 27.8071 27.3888C27.7042 27.412 27.5489 27.4334 27.3722 27.4334Z" fill="#191C1F"/>
<path d="M25.1384 23.9589C24.8625 23.9589 24.7188 23.7979 24.7188 23.5449C24.7188 23.2919 24.8625 23.1367 25.1384 23.1367C25.4087 23.1367 25.5581 23.2919 25.5581 23.5449C25.5581 23.7979 25.4087 23.9589 25.1384 23.9589ZM24.9107 27.3796C24.8555 27.3796 24.8107 27.3348 24.8107 27.2796V24.513C24.8107 24.4578 24.8555 24.413 24.9107 24.413H25.3662C25.4214 24.413 25.4662 24.4578 25.4662 24.513V27.2796C25.4662 27.3348 25.4214 27.3796 25.3662 27.3796H24.9107Z" fill="#191C1F"/>
<path d="M22.4978 27.4331C21.7332 27.4331 21.2675 26.8237 21.2617 25.8923C21.2675 25.0127 21.6987 24.363 22.4978 24.363C22.9247 24.363 23.1939 24.5434 23.3442 24.7646C23.3471 24.7687 23.3517 24.7712 23.3567 24.7712C23.365 24.7712 23.3717 24.7645 23.3717 24.7562V23.227C23.3717 23.1717 23.4165 23.127 23.4717 23.127H23.9271C23.9823 23.127 24.0271 23.1717 24.0271 23.227V27.2814C24.0271 27.3366 23.9823 27.3814 23.9271 27.3814H23.5276C23.4803 27.3814 23.4395 27.3482 23.4298 27.3019L23.3745 27.0385C23.3729 27.0306 23.3659 27.0249 23.3578 27.0249C23.3521 27.0249 23.3468 27.0277 23.3436 27.0325C23.1931 27.2532 22.9242 27.4331 22.4978 27.4331ZM22.6588 26.8524C23.182 26.8524 23.3947 26.4097 23.3947 25.8923C23.3947 25.3806 23.1877 24.9437 22.6588 24.9437C22.1184 24.9437 21.9286 25.3806 21.9286 25.8923C21.9286 26.4155 22.1241 26.8524 22.6588 26.8524Z" fill="#191C1F"/>
<path d="M19.4809 27.4324C18.5783 27.4324 18.0781 26.7597 18.0781 25.8973C18.0781 25.0465 18.5323 24.3623 19.4694 24.3623C20.3376 24.3623 20.809 24.989 20.809 25.8054V25.9813C20.809 26.0365 20.7643 26.0813 20.709 26.0813H18.8565C18.8013 26.0813 18.7561 26.1262 18.7603 26.1813C18.7927 26.5984 19.0329 26.8804 19.4809 26.8804C19.8064 26.8804 20.0158 26.7505 20.105 26.5489C20.1231 26.5081 20.1614 26.478 20.206 26.478H20.6528C20.7139 26.478 20.761 26.5325 20.7452 26.5916C20.6159 27.0753 20.1377 27.4324 19.4809 27.4324ZM18.772 25.5115C18.7638 25.5679 18.8099 25.6156 18.8669 25.6156H20.0349C20.0907 25.6156 20.1363 25.5698 20.13 25.5143C20.0913 25.1733 19.8783 24.92 19.4694 24.92C19.0361 24.92 18.8209 25.176 18.772 25.5115Z" fill="#191C1F"/>
<path d="M16.1937 27.3813C16.1385 27.3813 16.0938 27.3366 16.0938 27.2813V24.5148C16.0938 24.4595 16.1385 24.4148 16.1937 24.4148H16.5571C16.6077 24.4148 16.6503 24.4525 16.6564 24.5027L16.7016 24.8733C16.7025 24.8806 16.7088 24.8862 16.7162 24.8862C16.7222 24.8862 16.7276 24.8825 16.7299 24.8769C16.8525 24.5773 17.1267 24.3745 17.4966 24.3745H17.638C17.6933 24.3745 17.738 24.4193 17.738 24.4745V24.8839C17.738 24.9392 17.6933 24.9839 17.638 24.9839H17.4851C16.9849 24.9839 16.7262 25.3289 16.7262 25.9325V27.2813C16.7262 27.3366 16.6814 27.3813 16.6262 27.3813H16.1937Z" fill="#191C1F"/>
<path d="M14.176 27.4324C13.2619 27.4324 12.7617 26.8172 12.7617 25.8973C12.7617 24.9832 13.2504 24.3623 14.1588 24.3623C14.9456 24.3623 15.3586 24.8028 15.4363 25.3889C15.4439 25.4461 15.3978 25.4949 15.3401 25.4949H14.883C14.8311 25.4949 14.7886 25.4549 14.7777 25.4042C14.7171 25.1224 14.4922 24.943 14.1588 24.943C13.6529 24.943 13.4286 25.3224 13.4286 25.8973C13.4286 26.4838 13.6529 26.8575 14.1588 26.8575C14.4986 26.8575 14.7195 26.6816 14.7828 26.3947C14.7938 26.3446 14.836 26.3055 14.8873 26.3055H15.3442C15.4025 26.3055 15.4488 26.3554 15.4404 26.4131C15.3534 27.0119 14.9416 27.4324 14.176 27.4324Z" fill="#191C1F"/>
</g>
</g>
<defs>
<clipPath id="clip0_3210_79596">
<rect width="40" height="40" fill="white"/>
</clipPath>
<clipPath id="clip1_3210_79596">
<rect width="40" height="40" fill="white"/>
</clipPath>
</defs>
</svg>
