<svg width="20" height="20" viewBox="0 0 20 20" fill="none" xmlns="http://www.w3.org/2000/svg">
<g clip-path="url(#clip0_3210_79598)">
<g clip-path="url(#clip1_3210_79598)">
<path d="M0 10C0 15.5228 4.47715 20 10 20C15.5228 20 20 15.5228 20 10C20 4.47715 15.5228 0 10 0C4.47715 0 0 4.47715 0 10Z" fill="white"/>
<path d="M6.13009 6.65381C5.88457 6.65381 5.67969 6.86039 5.67969 7.10937V10.4591C5.67969 10.7029 5.88457 10.9096 6.13009 10.9096C6.37561 10.9096 6.57534 10.703 6.57534 10.4591V7.10937C6.57534 6.86039 6.37552 6.65381 6.13009 6.65381Z" fill="#191C1F"/>
<path d="M14.4714 7.95445C14.3664 7.70041 14.2056 7.47691 14.0075 7.27704C13.8094 7.08904 13.5758 6.93158 13.315 6.82323C13.0491 6.71488 12.7647 6.66061 12.4684 6.66061H11.5981C11.5728 6.65381 11.549 6.65381 11.5237 6.65381C11.2646 6.65381 11.0547 6.85873 11.0547 7.11443V10.4506C11.0547 10.7046 11.2528 10.8994 11.5051 10.9112H12.4684C12.7647 10.9112 13.0491 10.8502 13.315 10.7419C13.574 10.6335 13.8093 10.4811 14.0075 10.2931C14.2056 10.0866 14.3664 9.86977 14.4714 9.60902C14.5831 9.34827 14.6373 9.07555 14.6373 8.78601C14.6373 8.49978 14.5831 8.2153 14.4714 7.95454V7.95445ZM13.3692 9.65133C13.1254 9.8901 12.8037 10.0121 12.4516 10.0121H11.9504V7.54801H12.4516C12.8038 7.54801 13.1254 7.68183 13.3692 7.91545C13.613 8.14742 13.7417 8.45398 13.7417 8.78417C13.7417 9.11437 13.6131 9.41918 13.3692 9.65124V9.65133Z" fill="#191C1F"/>
<path d="M11.774 5.54767L10.4516 4.22504C10.3602 4.13362 10.2383 4.08956 10.1181 4.09296C9.99792 4.08956 9.87599 4.13187 9.78458 4.22504L8.46226 5.54767C8.28616 5.7238 8.28616 6.00829 8.46226 6.18442C8.63835 6.36056 8.92277 6.36056 9.09887 6.18442L9.69649 5.58666V9.18194L8.10326 6.8771C8.02372 6.73821 7.8764 6.64679 7.70711 6.64679C7.45653 6.64679 7.25 6.85337 7.25 7.10235V10.4486C7.25 10.6976 7.45653 10.9042 7.70711 10.9042C7.95769 10.9042 8.16423 10.6976 8.16423 10.4486V8.37586L9.78284 10.7044C9.78284 10.7095 9.78284 10.7163 9.78964 10.7231C9.88105 10.8383 10.0098 10.906 10.1554 10.906C10.4059 10.906 10.6074 10.6995 10.6074 10.4505V5.65601L11.1373 6.18608C11.3134 6.36221 11.5979 6.36221 11.774 6.18608C11.9501 6.00994 11.9501 5.72371 11.774 5.54767Z" fill="#191C1F"/>
<path d="M6.13009 6.65381C5.88457 6.65381 5.67969 6.86039 5.67969 7.10937V10.4591C5.67969 10.7029 5.88457 10.9096 6.13009 10.9096C6.37561 10.9096 6.57534 10.703 6.57534 10.4591V7.10937C6.57534 6.86039 6.37552 6.65381 6.13009 6.65381Z" fill="#191C1F"/>
<path d="M14.4714 7.95445C14.3664 7.70041 14.2056 7.47691 14.0075 7.27704C13.8094 7.08904 13.5758 6.93158 13.315 6.82323C13.0491 6.71488 12.7647 6.66061 12.4684 6.66061H11.5981C11.5728 6.65381 11.549 6.65381 11.5237 6.65381C11.2646 6.65381 11.0547 6.85873 11.0547 7.11443V10.4506C11.0547 10.7046 11.2528 10.8994 11.5051 10.9112H12.4684C12.7647 10.9112 13.0491 10.8502 13.315 10.7419C13.574 10.6335 13.8093 10.4811 14.0075 10.2931C14.2056 10.0866 14.3664 9.86977 14.4714 9.60902C14.5831 9.34827 14.6373 9.07555 14.6373 8.78601C14.6373 8.49978 14.5831 8.2153 14.4714 7.95454V7.95445ZM13.3692 9.65133C13.1254 9.8901 12.8037 10.0121 12.4516 10.0121H11.9504V7.54801H12.4516C12.8038 7.54801 13.1254 7.68183 13.3692 7.91545C13.613 8.14742 13.7417 8.45398 13.7417 8.78417C13.7417 9.11437 13.6131 9.41918 13.3692 9.65124V9.65133Z" fill="#191C1F"/>
<path d="M11.774 5.54767L10.4516 4.22504C10.3602 4.13362 10.2383 4.08956 10.1181 4.09296C9.99792 4.08956 9.87599 4.13187 9.78458 4.22504L8.46226 5.54767C8.28616 5.7238 8.28616 6.00829 8.46226 6.18442C8.63835 6.36056 8.92277 6.36056 9.09887 6.18442L9.69649 5.58666V9.18194L8.10326 6.8771C8.02372 6.73821 7.8764 6.64679 7.70711 6.64679C7.45653 6.64679 7.25 6.85337 7.25 7.10235V10.4486C7.25 10.6976 7.45653 10.9042 7.70711 10.9042C7.95769 10.9042 8.16423 10.6976 8.16423 10.4486V8.37586L9.78284 10.7044C9.78284 10.7095 9.78284 10.7163 9.78964 10.7231C9.88105 10.8383 10.0098 10.906 10.1554 10.906C10.4059 10.906 10.6074 10.6995 10.6074 10.4505V5.65601L11.1373 6.18608C11.3134 6.36221 11.5979 6.36221 11.774 6.18608C11.9501 6.00994 11.9501 5.72371 11.774 5.54767Z" fill="#191C1F"/>
<path d="M6.43836 15.3145C6.43836 15.1724 6.3507 15.0563 6.19592 15.0563C6.0521 15.0563 5.94937 15.1683 5.94937 15.3145C5.94937 15.4606 6.0521 15.5713 6.19592 15.5713C6.3507 15.5713 6.43836 15.4565 6.43836 15.3145ZM5.86719 15.5932V14.6423C5.86719 14.5986 5.89869 14.5918 5.91376 14.5918C5.92883 14.5918 5.96033 14.5986 5.96033 14.6423V15.1055H5.96307C6.01786 15.0221 6.11374 14.9784 6.20551 14.9784C6.40549 14.9784 6.53698 15.1259 6.53698 15.3145C6.53698 15.503 6.40549 15.6505 6.20551 15.6505C6.11374 15.6505 6.01786 15.6068 5.96307 15.5262H5.96033V15.5932C5.96033 15.6369 5.92883 15.6437 5.91376 15.6437C5.89869 15.6437 5.86719 15.6369 5.86719 15.5932Z" fill="#191C1F"/>
<path d="M7.24337 15.0535L6.94066 15.7994C6.90094 15.8978 6.85026 15.962 6.73932 15.962C6.72288 15.962 6.69959 15.9606 6.68453 15.9565C6.66124 15.9497 6.65028 15.9347 6.65028 15.9156C6.65028 15.8937 6.66672 15.8759 6.69001 15.8759C6.69685 15.8759 6.7037 15.8773 6.71192 15.8787C6.72288 15.88 6.72836 15.88 6.73521 15.88C6.79684 15.88 6.82972 15.8391 6.85711 15.7666L6.90916 15.6328L6.65439 15.0563C6.65028 15.0453 6.64891 15.0371 6.64891 15.0303C6.64891 15.0044 6.67083 14.9852 6.69685 14.9852C6.71192 14.9852 6.7311 14.9907 6.74342 15.0221L6.9571 15.5344H6.95984L7.15571 15.0221C7.16667 14.9921 7.18585 14.9852 7.20091 14.9852C7.22831 14.9852 7.24885 15.0044 7.24885 15.029C7.24885 15.0344 7.24748 15.0426 7.24337 15.0535Z" fill="#191C1F"/>
<path d="M7.90396 14.7516V15.5494C7.90396 15.6314 7.84644 15.6464 7.81767 15.6464C7.78891 15.6464 7.73138 15.6314 7.73138 15.5494V14.7516C7.73138 14.6697 7.78891 14.6546 7.81767 14.6546C7.84644 14.6546 7.90396 14.6697 7.90396 14.7516Z" fill="#191C1F"/>
<path d="M8.74392 15.5672L8.29328 14.947H8.29054V15.5494C8.29054 15.6314 8.23301 15.6464 8.20424 15.6464C8.17548 15.6464 8.11795 15.6314 8.11795 15.5494V14.7803C8.11795 14.6738 8.19192 14.6546 8.22616 14.6546C8.26451 14.6546 8.3015 14.671 8.3467 14.7339L8.79733 15.3527H8.80007V14.7516C8.80007 14.6697 8.8576 14.6546 8.88637 14.6546C8.91513 14.6546 8.97266 14.6697 8.97266 14.7516V15.5207C8.97266 15.6273 8.89869 15.6464 8.86445 15.6464C8.82473 15.6464 8.79049 15.63 8.74392 15.5672Z" fill="#191C1F"/>
<path d="M9.53051 15.6341H9.28944C9.21958 15.6341 9.18671 15.6013 9.18671 15.5317V14.7694C9.18671 14.6997 9.21958 14.6669 9.28944 14.6669H9.53051C9.78391 14.6669 10.0661 14.7871 10.0661 15.1505C10.0661 15.4893 9.78391 15.6341 9.53051 15.6341ZM9.3593 14.8145V15.4839H9.50312C9.68118 15.4839 9.88116 15.4115 9.88116 15.1505C9.88116 14.8732 9.68118 14.8145 9.50312 14.8145H9.3593Z" fill="#191C1F"/>
<path d="M10.2245 15.5549V15.0522C10.2245 14.9784 10.2779 14.9661 10.3026 14.9661C10.3272 14.9661 10.3807 14.9784 10.3807 15.0522V15.0836H10.3834C10.4122 15.0194 10.482 14.9593 10.5875 14.9593C10.6888 14.9593 10.756 15.0098 10.7929 15.0836C10.8368 15.0044 10.9107 14.9593 11.0094 14.9593C11.1806 14.9593 11.2518 15.0904 11.2518 15.2243V15.5549C11.2518 15.6328 11.197 15.6464 11.1696 15.6464C11.1422 15.6464 11.0874 15.6328 11.0874 15.5549V15.2708C11.0874 15.1929 11.0696 15.0959 10.9642 15.0959C10.8614 15.0959 10.819 15.1915 10.819 15.2762V15.5549C10.819 15.6328 10.7642 15.6464 10.7368 15.6464C10.7094 15.6464 10.6546 15.6328 10.6546 15.5549V15.238C10.6546 15.1574 10.6163 15.0959 10.5327 15.0959C10.4341 15.0959 10.3889 15.1861 10.3889 15.2735V15.5549C10.3889 15.6328 10.3341 15.6464 10.3067 15.6464C10.2793 15.6464 10.2245 15.6328 10.2245 15.5549Z" fill="#191C1F"/>
<path d="M12.1197 15.3035C12.1197 15.5098 11.9608 15.6533 11.7622 15.6533C11.5636 15.6533 11.4047 15.5098 11.4047 15.3035C11.4047 15.0973 11.5636 14.9593 11.7622 14.9593C11.9608 14.9593 12.1197 15.0973 12.1197 15.3035ZM11.9526 15.3035C11.9526 15.2011 11.8924 15.0932 11.7622 15.0932C11.6321 15.0932 11.5718 15.2011 11.5718 15.3035C11.5718 15.406 11.6321 15.5166 11.7622 15.5166C11.8924 15.5166 11.9526 15.406 11.9526 15.3035Z" fill="#191C1F"/>
<path d="M12.2791 15.5549V15.0522C12.2791 14.9784 12.3325 14.9661 12.3572 14.9661C12.3818 14.9661 12.4352 14.9784 12.4352 15.0522V15.0836H12.438C12.4667 15.018 12.5448 14.9593 12.6421 14.9593C12.8133 14.9593 12.8845 15.0904 12.8845 15.2243V15.5549C12.8845 15.6328 12.8297 15.6464 12.8023 15.6464C12.7749 15.6464 12.7201 15.6328 12.7201 15.5549V15.2708C12.7201 15.1929 12.7023 15.0959 12.5969 15.0959C12.4928 15.0959 12.4435 15.1861 12.4435 15.2735V15.5549C12.4435 15.6328 12.3887 15.6464 12.3613 15.6464C12.3339 15.6464 12.2791 15.6328 12.2791 15.5549Z" fill="#191C1F"/>
<path d="M13.616 15.3582H13.2023C13.2092 15.4511 13.2941 15.5194 13.39 15.5194C13.4585 15.5194 13.4996 15.4975 13.5407 15.4634C13.5639 15.4442 13.579 15.4401 13.5968 15.4401C13.6338 15.4401 13.6626 15.4661 13.6626 15.5057C13.6626 15.5194 13.6571 15.544 13.6352 15.5645C13.5708 15.6259 13.4968 15.6533 13.3914 15.6533C13.1886 15.6533 13.038 15.5235 13.038 15.3104C13.038 15.0986 13.1873 14.9593 13.3859 14.9593C13.5448 14.9593 13.6735 15.0494 13.6995 15.2421C13.7009 15.2557 13.7023 15.2653 13.7023 15.2762C13.7023 15.3336 13.6708 15.3582 13.616 15.3582ZM13.2023 15.2407H13.5393C13.5393 15.156 13.4913 15.0822 13.3845 15.0822C13.2873 15.0822 13.2092 15.1492 13.2023 15.2407Z" fill="#191C1F"/>
<path d="M14.4381 15.085L14.156 15.7748C14.1066 15.8951 14.0477 15.962 13.9067 15.962C13.8368 15.962 13.8163 15.921 13.8163 15.8882C13.8163 15.8554 13.8382 15.8268 13.8711 15.8213C13.8793 15.8199 13.8861 15.8199 13.8971 15.8199C13.9409 15.8199 13.9834 15.7926 14.0135 15.7175L14.0464 15.6341L13.7985 15.0904C13.7902 15.0713 13.7875 15.0535 13.7875 15.0426C13.7875 15.0003 13.8217 14.9661 13.8697 14.9661C13.8984 14.9661 13.93 14.9784 13.9519 15.0303L14.1299 15.4552H14.1327L14.2861 15.0344C14.3066 14.9784 14.3395 14.9661 14.3669 14.9661C14.4135 14.9661 14.4477 14.9962 14.4477 15.0399C14.4477 15.0494 14.4463 15.0631 14.4381 15.085Z" fill="#191C1F"/>
<path d="M13.6842 13.7167C13.368 13.7167 13.2443 13.5414 13.2443 13.2855V12.5364C13.2443 12.5088 13.222 12.4864 13.1943 12.4864H13.05C13.0224 12.4864 13 12.464 13 12.4364V12.2575C13 12.2299 13.0224 12.2075 13.05 12.2075H13.2087C13.2363 12.2075 13.2587 12.1852 13.2587 12.1575V11.932C13.2587 11.9097 13.2736 11.89 13.2951 11.8839L13.5399 11.8147C13.5422 11.814 13.5445 11.8137 13.5468 11.8137C13.5607 11.8137 13.5721 11.825 13.5721 11.839V12.1575C13.5721 12.1852 13.5944 12.2075 13.6221 12.2075H13.8814C13.909 12.2075 13.9314 12.2299 13.9314 12.2575V12.4364C13.9314 12.464 13.909 12.4864 13.8814 12.4864H13.6221C13.5944 12.4864 13.5721 12.5088 13.5721 12.5364V13.228C13.5721 13.3689 13.6324 13.4292 13.7647 13.4292C13.8231 13.4292 13.8681 13.4212 13.9048 13.4102C13.9072 13.4095 13.9097 13.4091 13.9121 13.4091C13.9259 13.4091 13.9371 13.4203 13.9371 13.4341V13.6483C13.9371 13.6702 13.9229 13.6896 13.9016 13.6944C13.8502 13.706 13.7725 13.7167 13.6842 13.7167Z" fill="#191C1F"/>
<path d="M12.5653 11.9794C12.4273 11.9794 12.3555 11.8989 12.3555 11.7725C12.3555 11.646 12.4273 11.5684 12.5653 11.5684C12.7004 11.5684 12.7752 11.646 12.7752 11.7725C12.7752 11.8989 12.7004 11.9794 12.5653 11.9794ZM12.4515 13.6898C12.4238 13.6898 12.4015 13.6674 12.4015 13.6398V12.2565C12.4015 12.2289 12.4238 12.2065 12.4515 12.2065H12.6792C12.7068 12.2065 12.7292 12.2289 12.7292 12.2565V13.6398C12.7292 13.6674 12.7068 13.6898 12.6792 13.6898H12.4515Z" fill="#191C1F"/>
<path d="M11.247 13.7165C10.8646 13.7165 10.6318 13.4118 10.6289 12.9462C10.6318 12.5063 10.8474 12.1815 11.247 12.1815C11.4604 12.1815 11.595 12.2717 11.6702 12.3823C11.6716 12.3844 11.6739 12.3856 11.6764 12.3856C11.6805 12.3856 11.6839 12.3823 11.6839 12.3781V11.6135C11.6839 11.5859 11.7063 11.5635 11.7339 11.5635H11.9616C11.9892 11.5635 12.0116 11.5859 12.0116 11.6135V13.6407C12.0116 13.6683 11.9892 13.6907 11.9616 13.6907H11.7619C11.7382 13.6907 11.7178 13.6741 11.7129 13.6509L11.6853 13.5192C11.6845 13.5153 11.681 13.5125 11.677 13.5125C11.6741 13.5125 11.6715 13.5139 11.6698 13.5162C11.5946 13.6266 11.4601 13.7165 11.247 13.7165ZM11.3274 13.4262C11.589 13.4262 11.6954 13.2049 11.6954 12.9462C11.6954 12.6903 11.5919 12.4718 11.3274 12.4718C11.0572 12.4718 10.9624 12.6903 10.9624 12.9462C10.9624 13.2077 11.0601 13.4262 11.3274 13.4262Z" fill="#191C1F"/>
<path d="M9.74047 13.7162C9.28916 13.7162 9.03906 13.3799 9.03906 12.9487C9.03906 12.5232 9.26616 12.1812 9.73472 12.1812C10.1688 12.1812 10.4045 12.4945 10.4045 12.9027V12.9907C10.4045 13.0183 10.3821 13.0407 10.3545 13.0407H9.42827C9.40065 13.0407 9.37803 13.0631 9.38017 13.0907C9.39637 13.2992 9.51647 13.4402 9.74047 13.4402C9.90321 13.4402 10.0079 13.3752 10.0525 13.2745C10.0615 13.254 10.0807 13.239 10.103 13.239H10.3264C10.3569 13.239 10.3805 13.2663 10.3726 13.2958C10.308 13.5377 10.0688 13.7162 9.74047 13.7162ZM9.38602 12.7558C9.38192 12.784 9.40494 12.8078 9.43343 12.8078H10.0174C10.0453 12.8078 10.0681 12.7849 10.065 12.7572C10.0456 12.5867 9.93917 12.46 9.73472 12.46C9.51805 12.46 9.41043 12.588 9.38602 12.7558Z" fill="#191C1F"/>
<path d="M8.09687 13.6907C8.06926 13.6907 8.04688 13.6683 8.04688 13.6407V12.2574C8.04688 12.2298 8.06926 12.2074 8.09687 12.2074H8.27857C8.30384 12.2074 8.32514 12.2262 8.3282 12.2513L8.3508 12.4366C8.35125 12.4403 8.35438 12.4431 8.35809 12.4431C8.36111 12.4431 8.36381 12.4412 8.36495 12.4385C8.42627 12.2886 8.56334 12.1873 8.74828 12.1873H8.81902C8.84663 12.1873 8.86902 12.2096 8.86902 12.2373V12.442C8.86902 12.4696 8.84663 12.492 8.81902 12.492H8.74254C8.49244 12.492 8.36308 12.6644 8.36308 12.9663V13.6407C8.36308 13.6683 8.3407 13.6907 8.31308 13.6907H8.09687Z" fill="#191C1F"/>
<path d="M7.08607 13.7162C6.629 13.7162 6.37891 13.4086 6.37891 12.9487C6.37891 12.4916 6.62325 12.1812 7.07744 12.1812C7.47087 12.1812 7.67734 12.4014 7.7162 12.6944C7.71999 12.723 7.69696 12.7474 7.66811 12.7474H7.43953C7.41358 12.7474 7.39237 12.7275 7.38691 12.7021C7.35659 12.5612 7.24416 12.4715 7.07744 12.4715C6.82447 12.4715 6.71236 12.6612 6.71236 12.9487C6.71236 13.2419 6.82447 13.4287 7.07744 13.4287C7.24733 13.4287 7.3578 13.3408 7.38943 13.1974C7.39495 13.1723 7.41604 13.1528 7.4417 13.1528H7.67013C7.6993 13.1528 7.72243 13.1777 7.71823 13.2066C7.67473 13.506 7.46885 13.7162 7.08607 13.7162Z" fill="#191C1F"/>
</g>
</g>
<defs>
<clipPath id="clip0_3210_79598">
<rect width="20" height="20" fill="white"/>
</clipPath>
<clipPath id="clip1_3210_79598">
<rect width="20" height="20" fill="white"/>
</clipPath>
</defs>
</svg>
