<svg width="24" height="24" viewBox="0 0 24 24" fill="none" xmlns="http://www.w3.org/2000/svg">
<g clip-path="url(#clip0_3210_79599)">
<g clip-path="url(#clip1_3210_79599)">
<path d="M0 12C0 18.6274 5.37258 24 12 24C18.6274 24 24 18.6274 24 12C24 5.37258 18.6274 0 12 0C5.37258 0 0 5.37258 0 12Z" fill="white"/>
<path d="M6.37483 8.77881C6.01293 8.77881 5.71094 9.08331 5.71094 9.45031V14.3878C5.71094 14.7472 6.01293 15.0518 6.37483 15.0518C6.73673 15.0518 7.03113 14.7473 7.03113 14.3878V9.45031C7.03113 9.08331 6.7366 8.77881 6.37483 8.77881Z" fill="#191C1F"/>
<path d="M18.6691 10.696C18.5143 10.3215 18.2772 9.99206 17.9853 9.69746C17.6933 9.42035 17.3489 9.18824 16.9645 9.02854C16.5726 8.86883 16.1534 8.78884 15.7167 8.78884H14.4339C14.3965 8.77881 14.3615 8.77881 14.3241 8.77881C13.9423 8.77881 13.6328 9.08087 13.6328 9.45776V14.3753C13.6328 14.7498 13.9248 15.0368 14.2967 15.0543H15.7167C16.1534 15.0543 16.5726 14.9644 16.9645 14.8047C17.3463 14.645 17.6932 14.4203 17.9853 14.1432C18.2772 13.8387 18.5143 13.5192 18.6691 13.1348C18.8338 12.7505 18.9136 12.3485 18.9136 11.9217C18.9136 11.4998 18.8338 11.0805 18.6691 10.6961V10.696ZM17.0444 13.1972C16.6851 13.5491 16.2109 13.7289 15.6919 13.7289H14.9531V10.0969H15.6919C16.211 10.0969 16.6851 10.2941 17.0444 10.6385C17.4038 10.9804 17.5935 11.4323 17.5935 11.919C17.5935 12.4057 17.4039 12.855 17.0444 13.197V13.1972Z" fill="#191C1F"/>
<path d="M14.6918 7.14843L12.7427 5.19887C12.6079 5.06411 12.4282 4.99917 12.251 5.00419C12.0739 4.99917 11.8942 5.06153 11.7594 5.19887L9.81031 7.14843C9.55074 7.40805 9.55074 7.82738 9.81031 8.08701C10.0699 8.34663 10.4891 8.34663 10.7487 8.08701L11.6296 7.20591V12.5054L9.28115 9.10802C9.1639 8.9033 8.94676 8.76854 8.69723 8.76854C8.32787 8.76854 8.02344 9.07304 8.02344 9.44004V14.3725C8.02344 14.7395 8.32787 15.044 8.69723 15.044C9.06658 15.044 9.37101 14.7395 9.37101 14.3725V11.3172L11.7569 14.7495C11.7569 14.757 11.7569 14.767 11.7669 14.7771C11.9016 14.9468 12.0914 15.0467 12.3059 15.0467C12.6753 15.0467 12.9723 14.7422 12.9723 14.3752V7.30813L13.7534 8.08945C14.013 8.34907 14.4322 8.34907 14.6918 8.08945C14.9513 7.82982 14.9513 7.40792 14.6918 7.14843Z" fill="#191C1F"/>
<path d="M6.37483 8.77881C6.01293 8.77881 5.71094 9.08331 5.71094 9.45031V14.3878C5.71094 14.7472 6.01293 15.0518 6.37483 15.0518C6.73673 15.0518 7.03113 14.7473 7.03113 14.3878V9.45031C7.03113 9.08331 6.7366 8.77881 6.37483 8.77881Z" fill="#191C1F"/>
<path d="M18.6691 10.696C18.5143 10.3215 18.2772 9.99206 17.9853 9.69746C17.6933 9.42035 17.3489 9.18824 16.9645 9.02854C16.5726 8.86883 16.1534 8.78884 15.7167 8.78884H14.4339C14.3965 8.77881 14.3615 8.77881 14.3241 8.77881C13.9423 8.77881 13.6328 9.08087 13.6328 9.45776V14.3753C13.6328 14.7498 13.9248 15.0368 14.2967 15.0543H15.7167C16.1534 15.0543 16.5726 14.9644 16.9645 14.8047C17.3463 14.645 17.6932 14.4203 17.9853 14.1432C18.2772 13.8387 18.5143 13.5192 18.6691 13.1348C18.8338 12.7505 18.9136 12.3485 18.9136 11.9217C18.9136 11.4998 18.8338 11.0805 18.6691 10.6961V10.696ZM17.0444 13.1972C16.6851 13.5491 16.2109 13.7289 15.6919 13.7289H14.9531V10.0969H15.6919C16.211 10.0969 16.6851 10.2941 17.0444 10.6385C17.4038 10.9804 17.5935 11.4323 17.5935 11.919C17.5935 12.4057 17.4039 12.855 17.0444 13.197V13.1972Z" fill="#191C1F"/>
<path d="M14.6918 7.14843L12.7427 5.19887C12.6079 5.06411 12.4282 4.99917 12.251 5.00419C12.0739 4.99917 11.8942 5.06153 11.7594 5.19887L9.81031 7.14843C9.55074 7.40805 9.55074 7.82738 9.81031 8.08701C10.0699 8.34663 10.4891 8.34663 10.7487 8.08701L11.6296 7.20591V12.5054L9.28115 9.10802C9.1639 8.9033 8.94676 8.76854 8.69723 8.76854C8.32787 8.76854 8.02344 9.07304 8.02344 9.44004V14.3725C8.02344 14.7395 8.32787 15.044 8.69723 15.044C9.06658 15.044 9.37101 14.7395 9.37101 14.3725V11.3172L11.7569 14.7495C11.7569 14.757 11.7569 14.767 11.7669 14.7771C11.9016 14.9468 12.0914 15.0467 12.3059 15.0467C12.6753 15.0467 12.9723 14.7422 12.9723 14.3752V7.30813L13.7534 8.08945C14.013 8.34907 14.4322 8.34907 14.6918 8.08945C14.9513 7.82982 14.9513 7.40792 14.6918 7.14843Z" fill="#191C1F"/>
<path d="M17.0463 19.1651C16.6205 19.1651 16.454 18.9289 16.454 18.5844V17.5683C16.454 17.5352 16.4272 17.5083 16.394 17.5083H16.185C16.1519 17.5083 16.125 17.4815 16.125 17.4483V17.1929C16.125 17.1597 16.1519 17.1329 16.185 17.1329H16.4134C16.4465 17.1329 16.4734 17.106 16.4734 17.0729V16.7563C16.4734 16.7295 16.4912 16.7059 16.5171 16.6986L16.8521 16.6038C16.8551 16.603 16.8582 16.6025 16.8613 16.6025C16.8801 16.6025 16.8953 16.6178 16.8953 16.6365V17.0729C16.8953 17.106 16.9222 17.1329 16.9553 17.1329H17.3192C17.3523 17.1329 17.3792 17.1597 17.3792 17.1929V17.4483C17.3792 17.4815 17.3523 17.5083 17.3192 17.5083H16.9553C16.9222 17.5083 16.8953 17.5352 16.8953 17.5683V18.507C16.8953 18.6967 16.9766 18.778 17.1547 18.778C17.2334 18.778 17.2939 18.7671 17.3434 18.7524C17.3466 18.7514 17.3499 18.7509 17.3533 18.7509C17.3719 18.7509 17.3869 18.7659 17.3869 18.7845V19.0784C17.3869 19.1046 17.3699 19.1279 17.3443 19.1339C17.2751 19.1499 17.1683 19.1651 17.0463 19.1651Z" fill="#191C1F"/>
<path d="M15.5404 16.8265C15.3546 16.8265 15.2578 16.7181 15.2578 16.5478C15.2578 16.3775 15.3546 16.2729 15.5404 16.2729C15.7223 16.2729 15.823 16.3775 15.823 16.5478C15.823 16.7181 15.7223 16.8265 15.5404 16.8265ZM15.3797 19.1297C15.3466 19.1297 15.3197 19.1028 15.3197 19.0697V17.1923C15.3197 17.1591 15.3466 17.1323 15.3797 17.1323H15.701C15.7342 17.1323 15.761 17.1591 15.761 17.1923V19.0697C15.761 19.1028 15.7342 19.1297 15.701 19.1297H15.3797Z" fill="#191C1F"/>
<path d="M13.7619 19.1649C13.2471 19.1649 12.9336 18.7546 12.9297 18.1275C12.9336 17.5353 13.2239 17.0979 13.7619 17.0979C14.0494 17.0979 14.2306 17.2193 14.3318 17.3682C14.3337 17.371 14.3369 17.3727 14.3402 17.3727C14.3458 17.3727 14.3503 17.3682 14.3503 17.3626V16.3256C14.3503 16.2925 14.3772 16.2656 14.4103 16.2656H14.7316C14.7647 16.2656 14.7916 16.2925 14.7916 16.3256V19.0701C14.7916 19.1032 14.7647 19.1301 14.7316 19.1301H14.4494C14.421 19.1301 14.3965 19.1102 14.3906 19.0824L14.3522 18.8992C14.3511 18.8939 14.3464 18.8901 14.341 18.8901C14.3371 18.8901 14.3336 18.892 14.3314 18.8952C14.2301 19.0438 14.049 19.1649 13.7619 19.1649ZM13.8703 18.774C14.2226 18.774 14.3658 18.4759 14.3658 18.1275C14.3658 17.783 14.2265 17.4888 13.8703 17.4888C13.5065 17.4888 13.3787 17.783 13.3787 18.1275C13.3787 18.4798 13.5103 18.774 13.8703 18.774Z" fill="#191C1F"/>
<path d="M11.7297 19.1647C11.1219 19.1647 10.7852 18.7118 10.7852 18.1312C10.7852 17.5583 11.091 17.0977 11.7219 17.0977C12.3064 17.0977 12.6239 17.5196 12.6239 18.0692V18.1951C12.6239 18.2282 12.597 18.2551 12.5639 18.2551H11.3019C11.2688 18.2551 11.2417 18.282 11.2439 18.315C11.2635 18.5999 11.4254 18.7931 11.7297 18.7931C11.9515 18.7931 12.0933 18.7034 12.152 18.5648C12.1625 18.5401 12.1856 18.5221 12.2123 18.5221H12.5272C12.5638 18.5221 12.5921 18.5548 12.5831 18.5904C12.4992 18.9203 12.1756 19.1647 11.7297 19.1647ZM11.2513 17.879C11.2468 17.9129 11.2744 17.9415 11.3085 17.9415H12.1101C12.1435 17.9415 12.1709 17.914 12.1675 17.8807C12.1436 17.6474 12.0002 17.4731 11.7219 17.4731C11.4269 17.4731 11.282 17.6494 11.2513 17.879Z" fill="#191C1F"/>
<path d="M9.51313 19.1295C9.47999 19.1295 9.45312 19.1026 9.45312 19.0695V17.1921C9.45312 17.1589 9.47999 17.1321 9.51312 17.1321H9.77161C9.80194 17.1321 9.8275 17.1547 9.83117 17.1848L9.86238 17.4408C9.86299 17.4458 9.8672 17.4495 9.87221 17.4495C9.87626 17.4495 9.87991 17.447 9.88145 17.4432C9.96401 17.2415 10.1486 17.105 10.3976 17.105H10.5002C10.5334 17.105 10.5602 17.1318 10.5602 17.165V17.4553C10.5602 17.4884 10.5334 17.5153 10.5002 17.5153H10.3899C10.0531 17.5153 9.87893 17.7475 9.87893 18.154V19.0695C9.87893 19.1026 9.85207 19.1295 9.81893 19.1295H9.51313Z" fill="#191C1F"/>
<path d="M8.15928 19.1647C7.5438 19.1647 7.20703 18.7505 7.20703 18.1312C7.20703 17.5157 7.53606 17.0977 8.14767 17.0977C8.6809 17.0977 8.9591 17.3981 9.00881 17.7965C9.01309 17.8309 8.98548 17.8602 8.95086 17.8602H8.62852C8.59738 17.8602 8.57186 17.8362 8.56575 17.8057C8.52703 17.6122 8.37475 17.4886 8.14767 17.4886C7.80703 17.4886 7.65606 17.7441 7.65606 18.1312C7.65606 18.526 7.80703 18.7776 8.14767 18.7776C8.37897 18.7776 8.52849 18.6566 8.56917 18.4596C8.57539 18.4295 8.60077 18.406 8.63155 18.406H8.95371C8.98871 18.406 9.01644 18.436 9.01166 18.4706C8.95554 18.878 8.67806 19.1647 8.15928 19.1647Z" fill="#191C1F"/>
</g>
</g>
<defs>
<clipPath id="clip0_3210_79599">
<rect width="24" height="24" fill="white"/>
</clipPath>
<clipPath id="clip1_3210_79599">
<rect width="24" height="24" fill="white"/>
</clipPath>
</defs>
</svg>
