<svg width="32" height="32" viewBox="0 0 32 32" fill="none" xmlns="http://www.w3.org/2000/svg">
<g clip-path="url(#clip0_3210_79600)">
<g clip-path="url(#clip1_3210_79600)">
<path d="M0 16C0 24.8366 7.16344 32 16 32C24.8366 32 32 24.8366 32 16C32 7.16344 24.8366 0 16 0C7.16344 0 0 7.16344 0 16Z" fill="white"/>
<path d="M9.81048 10.6367C9.41765 10.6367 9.08984 10.9672 9.08984 11.3656V16.7251C9.08984 17.1153 9.41765 17.4459 9.81048 17.4459C10.2033 17.4459 10.5229 17.1154 10.5229 16.7251V11.3656C10.5229 10.9672 10.2032 10.6367 9.81048 10.6367Z" fill="#191C1F"/>
<path d="M23.1542 12.7177C22.9862 12.3113 22.7289 11.9537 22.412 11.6339C22.0951 11.3331 21.7212 11.0811 21.3039 10.9078C20.8786 10.7344 20.4235 10.6476 19.9495 10.6476H18.557C18.5164 10.6367 18.4785 10.6367 18.4379 10.6367C18.0234 10.6367 17.6875 10.9646 17.6875 11.3737V16.7116C17.6875 17.1181 18.0044 17.4296 18.4081 17.4486H19.9495C20.4235 17.4486 20.8786 17.351 21.3039 17.1777C21.7184 17.0043 22.0949 16.7605 22.412 16.4597C22.7289 16.1291 22.9862 15.7823 23.1542 15.3651C23.333 14.9479 23.4197 14.5115 23.4197 14.0482C23.4197 13.5903 23.333 13.1351 23.1542 12.7179V12.7177ZM21.3908 15.4328C21.0007 15.8148 20.4859 16.0099 19.9225 16.0099H19.1207V12.0674H19.9225C20.4861 12.0674 21.0007 12.2816 21.3908 12.6553C21.7808 13.0265 21.9868 13.517 21.9868 14.0453C21.9868 14.5736 21.7809 15.0613 21.3908 15.4326V15.4328Z" fill="#191C1F"/>
<path d="M18.8399 8.86689L16.7242 6.75069C16.5779 6.60441 16.3828 6.53392 16.1905 6.53937C15.9982 6.53392 15.8031 6.60162 15.6569 6.75069L13.5412 8.86689C13.2594 9.14871 13.2594 9.60388 13.5412 9.8857C13.8229 10.1675 14.278 10.1675 14.5598 9.8857L15.5159 8.92929V14.6817L12.9668 10.994C12.8395 10.7718 12.6038 10.6255 12.3329 10.6255C11.932 10.6255 11.6016 10.956 11.6016 11.3544V16.7085C11.6016 17.1068 11.932 17.4374 12.3329 17.4374C12.7339 17.4374 13.0643 17.1068 13.0643 16.7085V13.392L15.6541 17.1177C15.6541 17.1258 15.6541 17.1367 15.665 17.1476C15.8112 17.3318 16.0172 17.4403 16.2501 17.4403C16.6511 17.4403 16.9734 17.1098 16.9734 16.7114V9.04025L17.8213 9.88835C18.1031 10.1702 18.5581 10.1702 18.8399 9.88835C19.1217 9.60653 19.1217 9.14856 18.8399 8.86689Z" fill="#191C1F"/>
<path d="M9.81048 10.6367C9.41765 10.6367 9.08984 10.9672 9.08984 11.3656V16.7251C9.08984 17.1153 9.41765 17.4459 9.81048 17.4459C10.2033 17.4459 10.5229 17.1154 10.5229 16.7251V11.3656C10.5229 10.9672 10.2032 10.6367 9.81048 10.6367Z" fill="#191C1F"/>
<path d="M23.1542 12.7177C22.9862 12.3113 22.7289 11.9537 22.412 11.6339C22.0951 11.3331 21.7212 11.0811 21.3039 10.9078C20.8786 10.7344 20.4235 10.6476 19.9495 10.6476H18.557C18.5164 10.6367 18.4785 10.6367 18.4379 10.6367C18.0234 10.6367 17.6875 10.9646 17.6875 11.3737V16.7116C17.6875 17.1181 18.0044 17.4296 18.4081 17.4486H19.9495C20.4235 17.4486 20.8786 17.351 21.3039 17.1777C21.7184 17.0043 22.0949 16.7605 22.412 16.4597C22.7289 16.1291 22.9862 15.7823 23.1542 15.3651C23.333 14.9479 23.4197 14.5115 23.4197 14.0482C23.4197 13.5903 23.333 13.1351 23.1542 12.7179V12.7177ZM21.3908 15.4328C21.0007 15.8148 20.4859 16.0099 19.9225 16.0099H19.1207V12.0674H19.9225C20.4861 12.0674 21.0007 12.2816 21.3908 12.6553C21.7808 13.0265 21.9868 13.517 21.9868 14.0453C21.9868 14.5736 21.7809 15.0613 21.3908 15.4326V15.4328Z" fill="#191C1F"/>
<path d="M18.8399 8.86689L16.7242 6.75069C16.5779 6.60441 16.3828 6.53392 16.1905 6.53937C15.9982 6.53392 15.8031 6.60162 15.6569 6.75069L13.5412 8.86689C13.2594 9.14871 13.2594 9.60388 13.5412 9.8857C13.8229 10.1675 14.278 10.1675 14.5598 9.8857L15.5159 8.92929V14.6817L12.9668 10.994C12.8395 10.7718 12.6038 10.6255 12.3329 10.6255C11.932 10.6255 11.6016 10.956 11.6016 11.3544V16.7085C11.6016 17.1068 11.932 17.4374 12.3329 17.4374C12.7339 17.4374 13.0643 17.1068 13.0643 16.7085V13.392L15.6541 17.1177C15.6541 17.1258 15.6541 17.1367 15.665 17.1476C15.8112 17.3318 16.0172 17.4403 16.2501 17.4403C16.6511 17.4403 16.9734 17.1098 16.9734 16.7114V9.04025L17.8213 9.88835C18.1031 10.1702 18.5581 10.1702 18.8399 9.88835C19.1217 9.60653 19.1217 9.14856 18.8399 8.86689Z" fill="#191C1F"/>
<path d="M10.3045 24.5C10.3045 24.2727 10.1642 24.0869 9.9166 24.0869C9.68649 24.0869 9.52212 24.2661 9.52212 24.5C9.52212 24.7339 9.68649 24.9109 9.9166 24.9109C10.1642 24.9109 10.3045 24.7273 10.3045 24.5ZM9.39062 24.9459V23.4246C9.39062 23.3547 9.44103 23.3438 9.46514 23.3438C9.48925 23.3438 9.53965 23.3547 9.53965 23.4246V24.1656H9.54403C9.6317 24.0323 9.78511 23.9623 9.93194 23.9623C10.2519 23.9623 10.4623 24.1984 10.4623 24.5C10.4623 24.8017 10.2519 25.0377 9.93194 25.0377C9.78511 25.0377 9.6317 24.9678 9.54403 24.8388H9.53965V24.9459C9.53965 25.0159 9.48925 25.0268 9.46514 25.0268C9.44103 25.0268 9.39062 25.0159 9.39062 24.9459Z" fill="#191C1F"/>
<path d="M11.5925 24.0825L11.1082 25.276C11.0446 25.4333 10.9635 25.5361 10.786 25.5361C10.7597 25.5361 10.7225 25.5339 10.6984 25.5273C10.6611 25.5164 10.6436 25.4924 10.6436 25.4618C10.6436 25.4268 10.6699 25.3984 10.7071 25.3984C10.7181 25.3984 10.729 25.4006 10.7422 25.4027C10.7597 25.4049 10.7685 25.4049 10.7795 25.4049C10.8781 25.4049 10.9307 25.3394 10.9745 25.2235L11.0578 25.0093L10.6502 24.0869C10.6436 24.0694 10.6414 24.0563 10.6414 24.0454C10.6414 24.0039 10.6765 23.9733 10.7181 23.9733C10.7422 23.9733 10.7729 23.982 10.7926 24.0323L11.1345 24.8519H11.1389L11.4523 24.0323C11.4698 23.9842 11.5005 23.9733 11.5246 23.9733C11.5684 23.9733 11.6013 24.0039 11.6013 24.0432C11.6013 24.0519 11.5991 24.0651 11.5925 24.0825Z" fill="#191C1F"/>
<path d="M12.6495 23.5995V24.876C12.6495 25.0071 12.5574 25.0312 12.5114 25.0312C12.4654 25.0312 12.3733 25.0071 12.3733 24.876V23.5995C12.3733 23.4683 12.4654 23.4443 12.5114 23.4443C12.5574 23.4443 12.6495 23.4683 12.6495 23.5995Z" fill="#191C1F"/>
<path d="M13.9934 24.9044L13.2724 23.912H13.268V24.876C13.268 25.0071 13.1759 25.0312 13.1299 25.0312C13.0839 25.0312 12.9918 25.0071 12.9918 24.876V23.6454C12.9918 23.4749 13.1102 23.4443 13.165 23.4443C13.2263 23.4443 13.2855 23.4705 13.3578 23.5711L14.0789 24.5612H14.0832V23.5995C14.0832 23.4683 14.1753 23.4443 14.2213 23.4443C14.2673 23.4443 14.3594 23.4683 14.3594 23.5995V24.8301C14.3594 25.0006 14.241 25.0312 14.1862 25.0312C14.1227 25.0312 14.0679 25.0049 13.9934 24.9044Z" fill="#191C1F"/>
<path d="M15.2519 25.0115H14.8662C14.7545 25.0115 14.7019 24.959 14.7019 24.8476V23.6279C14.7019 23.5164 14.7545 23.464 14.8662 23.464H15.2519C15.6574 23.464 16.1088 23.6563 16.1088 24.2377C16.1088 24.7798 15.6574 25.0115 15.2519 25.0115ZM14.978 23.7V24.7711H15.2081C15.493 24.7711 15.813 24.6552 15.813 24.2377C15.813 23.794 15.493 23.7 15.2081 23.7H14.978Z" fill="#191C1F"/>
<path d="M16.3623 24.8847V24.0804C16.3623 23.9623 16.4478 23.9427 16.4873 23.9427C16.5267 23.9427 16.6122 23.9623 16.6122 24.0804V24.1306H16.6166C16.6626 24.0279 16.7744 23.9317 16.9431 23.9317C17.1053 23.9317 17.2127 24.0126 17.2718 24.1306C17.342 24.0039 17.4603 23.9317 17.6181 23.9317C17.892 23.9317 18.006 24.1416 18.006 24.3558V24.8847C18.006 25.0093 17.9183 25.0312 17.8745 25.0312C17.8307 25.0312 17.743 25.0093 17.743 24.8847V24.4301C17.743 24.3055 17.7145 24.1503 17.5458 24.1503C17.3814 24.1503 17.3135 24.3033 17.3135 24.4388V24.8847C17.3135 25.0093 17.2258 25.0312 17.182 25.0312C17.1382 25.0312 17.0505 25.0093 17.0505 24.8847V24.3776C17.0505 24.2487 16.9891 24.1503 16.8554 24.1503C16.6976 24.1503 16.6253 24.2946 16.6253 24.4344V24.8847C16.6253 25.0093 16.5377 25.0312 16.4938 25.0312C16.45 25.0312 16.3623 25.0093 16.3623 24.8847Z" fill="#191C1F"/>
<path d="M19.3947 24.4825C19.3947 24.8126 19.1405 25.0421 18.8227 25.0421C18.5049 25.0421 18.2507 24.8126 18.2507 24.4825C18.2507 24.1525 18.5049 23.9317 18.8227 23.9317C19.1405 23.9317 19.3947 24.1525 19.3947 24.4825ZM19.1273 24.4825C19.1273 24.3186 19.0309 24.1459 18.8227 24.1459C18.6145 24.1459 18.5181 24.3186 18.5181 24.4825C18.5181 24.6465 18.6145 24.8235 18.8227 24.8235C19.0309 24.8235 19.1273 24.6465 19.1273 24.4825Z" fill="#191C1F"/>
<path d="M19.6497 24.8847V24.0804C19.6497 23.9623 19.7351 23.9427 19.7746 23.9427C19.814 23.9427 19.8995 23.9623 19.8995 24.0804V24.1306H19.9039C19.9499 24.0257 20.0748 23.9317 20.2304 23.9317C20.5044 23.9317 20.6183 24.1416 20.6183 24.3558V24.8847C20.6183 25.0093 20.5307 25.0312 20.4869 25.0312C20.443 25.0312 20.3554 25.0093 20.3554 24.8847V24.4301C20.3554 24.3055 20.3269 24.1503 20.1581 24.1503C19.9916 24.1503 19.9127 24.2946 19.9127 24.4344V24.8847C19.9127 25.0093 19.825 25.0312 19.7812 25.0312C19.7373 25.0312 19.6497 25.0093 19.6497 24.8847Z" fill="#191C1F"/>
<path d="M21.7887 24.57H21.1269C21.1378 24.7186 21.2737 24.8279 21.4271 24.8279C21.5367 24.8279 21.6024 24.7929 21.6682 24.7383C21.7054 24.7077 21.7295 24.7011 21.758 24.7011C21.8172 24.7011 21.8632 24.7426 21.8632 24.806C21.8632 24.8279 21.8544 24.8672 21.8194 24.9C21.7164 24.9984 21.598 25.0421 21.4293 25.0421C21.1049 25.0421 20.8639 24.8344 20.8639 24.4935C20.8639 24.1547 21.1027 23.9317 21.4205 23.9317C21.6747 23.9317 21.8807 24.076 21.9224 24.3842C21.9246 24.406 21.9268 24.4213 21.9268 24.4388C21.9268 24.5306 21.8764 24.57 21.7887 24.57ZM21.1269 24.382H21.666C21.666 24.2465 21.5893 24.1284 21.4183 24.1284C21.2627 24.1284 21.1378 24.2355 21.1269 24.382Z" fill="#191C1F"/>
<path d="M23.1041 24.1328L22.6527 25.2366C22.5738 25.429 22.4795 25.5361 22.2538 25.5361C22.142 25.5361 22.1091 25.4705 22.1091 25.418C22.1091 25.3656 22.1442 25.3197 22.1968 25.3109C22.21 25.3088 22.2209 25.3088 22.2385 25.3088C22.3086 25.3088 22.3765 25.265 22.4247 25.1448L22.4773 25.0115L22.0807 24.1416C22.0675 24.111 22.0631 24.0825 22.0631 24.0651C22.0631 23.9973 22.1179 23.9427 22.1946 23.9427C22.2406 23.9427 22.291 23.9623 22.3261 24.0454L22.611 24.7252H22.6154L22.8609 24.0519C22.8937 23.9623 22.9463 23.9427 22.9902 23.9427C23.0647 23.9427 23.1195 23.9907 23.1195 24.0607C23.1195 24.076 23.1173 24.0978 23.1041 24.1328Z" fill="#191C1F"/>
<path d="M21.8954 21.9452C21.3895 21.9452 21.1917 21.6646 21.1917 21.2553V20.0566C21.1917 20.0125 21.1559 19.9766 21.1117 19.9766H20.8808C20.8366 19.9766 20.8008 19.9408 20.8008 19.8966V19.6105C20.8008 19.5663 20.8366 19.5305 20.8808 19.5305H21.1347C21.1789 19.5305 21.2147 19.4947 21.2147 19.4505V19.0897C21.2147 19.0539 21.2385 19.0224 21.273 19.0127L21.6647 18.9019C21.6683 18.9009 21.672 18.9004 21.6757 18.9004C21.698 18.9004 21.7161 18.9185 21.7161 18.9408V19.4505C21.7161 19.4947 21.7519 19.5305 21.7961 19.5305H22.211C22.2552 19.5305 22.291 19.5663 22.291 19.6105V19.8966C22.291 19.9408 22.2552 19.9766 22.211 19.9766H21.7961C21.7519 19.9766 21.7161 20.0125 21.7161 20.0566V21.1633C21.7161 21.3886 21.8127 21.4852 22.0242 21.4852C22.1177 21.4852 22.1897 21.4723 22.2484 21.4548C22.2523 21.4536 22.2562 21.453 22.2602 21.453C22.2823 21.453 22.3002 21.4709 22.3002 21.493V21.8358C22.3002 21.8707 22.2775 21.9018 22.2434 21.9095C22.161 21.928 22.0368 21.9452 21.8954 21.9452Z" fill="#191C1F"/>
<path d="M20.1092 19.1655C19.8884 19.1655 19.7734 19.0367 19.7734 18.8344C19.7734 18.632 19.8884 18.5078 20.1092 18.5078C20.3254 18.5078 20.445 18.632 20.445 18.8344C20.445 19.0367 20.3254 19.1655 20.1092 19.1655ZM19.927 21.9021C19.8828 21.9021 19.847 21.8663 19.847 21.8221V19.6089C19.847 19.5647 19.8828 19.5289 19.927 19.5289H20.2914C20.3355 19.5289 20.3714 19.5647 20.3714 19.6089V21.8221C20.3714 21.8663 20.3355 21.9021 20.2914 21.9021H19.927Z" fill="#191C1F"/>
<path d="M17.9967 21.9449C17.385 21.9449 17.0124 21.4574 17.0078 20.7123C17.0124 20.0086 17.3574 19.4889 17.9967 19.4889C18.3382 19.4889 18.5535 19.6331 18.6738 19.8101C18.6761 19.8134 18.6798 19.8154 18.6838 19.8154C18.6904 19.8154 18.6958 19.81 18.6958 19.8034V18.58C18.6958 18.5358 18.7316 18.5 18.7758 18.5H19.1401C19.1843 18.5 19.2201 18.5358 19.2201 18.58V21.8235C19.2201 21.8677 19.1843 21.9035 19.1401 21.9035H18.8206C18.7827 21.9035 18.75 21.877 18.7423 21.8399L18.6981 21.6292C18.6967 21.6229 18.6912 21.6184 18.6847 21.6184C18.6801 21.6184 18.6759 21.6206 18.6733 21.6244C18.5529 21.801 18.3378 21.9449 17.9967 21.9449ZM18.1255 21.4804C18.544 21.4804 18.7142 21.1262 18.7142 20.7123C18.7142 20.3029 18.5486 19.9534 18.1255 19.9534C17.6931 19.9534 17.5413 20.3029 17.5413 20.7123C17.5413 21.1308 17.6977 21.4804 18.1255 21.4804Z" fill="#191C1F"/>
<path d="M15.5832 21.9443C14.8611 21.9443 14.4609 21.4062 14.4609 20.7163C14.4609 20.0356 14.8243 19.4883 15.574 19.4883C16.2685 19.4883 16.6457 19.9896 16.6457 20.6427V20.7835C16.6457 20.8277 16.6098 20.8635 16.5657 20.8635H15.0837C15.0395 20.8635 15.0033 20.8994 15.0067 20.9435C15.0326 21.2772 15.2248 21.5028 15.5832 21.5028C15.8436 21.5028 16.0111 21.3988 16.0824 21.2376C16.0969 21.2049 16.1276 21.1808 16.1633 21.1808H16.5207C16.5695 21.1808 16.6073 21.2245 16.5946 21.2717C16.4912 21.6587 16.1086 21.9443 15.5832 21.9443ZM15.0161 20.4077C15.0095 20.4528 15.0463 20.4909 15.0919 20.4909H16.0263C16.071 20.4909 16.1075 20.4543 16.1024 20.4099C16.0714 20.1371 15.9011 19.9344 15.574 19.9344C15.2273 19.9344 15.0551 20.1392 15.0161 20.4077Z" fill="#191C1F"/>
<path d="M12.955 21.9035C12.9108 21.9035 12.875 21.8677 12.875 21.8235V19.6102C12.875 19.5661 12.9108 19.5302 12.955 19.5302H13.2457C13.2861 19.5302 13.3202 19.5604 13.3251 19.6006L13.3613 19.8971C13.362 19.903 13.367 19.9074 13.3729 19.9074C13.3778 19.9074 13.3821 19.9044 13.3839 19.9C13.482 19.6603 13.7013 19.498 13.9973 19.498H14.1104C14.1546 19.498 14.1904 19.5339 14.1904 19.578V19.9056C14.1904 19.9498 14.1546 19.9856 14.1104 19.9856H13.9881C13.5879 19.9856 13.3809 20.2615 13.3809 20.7445V21.8235C13.3809 21.8677 13.3451 21.9035 13.3009 21.9035H12.955Z" fill="#191C1F"/>
<path d="M11.3385 21.9443C10.6072 21.9443 10.207 21.4522 10.207 20.7163C10.207 19.985 10.598 19.4883 11.3247 19.4883C11.9542 19.4883 12.2845 19.8407 12.3467 20.3095C12.3528 20.3553 12.3159 20.3944 12.2698 20.3944H11.904C11.8625 20.3944 11.8286 20.3624 11.8198 20.3218C11.7713 20.0963 11.5914 19.9528 11.3247 19.9528C10.9199 19.9528 10.7406 20.2564 10.7406 20.7163C10.7406 21.1854 10.9199 21.4844 11.3247 21.4844C11.5965 21.4844 11.7733 21.3437 11.8239 21.1142C11.8327 21.0741 11.8665 21.0429 11.9075 21.0429H12.273C12.3197 21.0429 12.3567 21.0828 12.35 21.1289C12.2803 21.608 11.9509 21.9443 11.3385 21.9443Z" fill="#191C1F"/>
</g>
</g>
<defs>
<clipPath id="clip0_3210_79600">
<rect width="32" height="32" fill="white"/>
</clipPath>
<clipPath id="clip1_3210_79600">
<rect width="32" height="32" fill="white"/>
</clipPath>
</defs>
</svg>
