<svg width="32" height="32" viewBox="0 0 32 32" fill="none" xmlns="http://www.w3.org/2000/svg">
<g clip-path="url(#clip0_3207_77512)">
<g clip-path="url(#clip1_3207_77512)">
<path d="M0 16C0 24.8366 7.16344 32 16 32C24.8366 32 32 24.8366 32 16C32 7.16344 24.8366 0 16 0C7.16344 0 0 7.16344 0 16Z" fill="white"/>
<path d="M9.82354 10.3184C9.44275 10.3184 9.125 10.6388 9.125 11.0249V16.2201C9.125 16.5982 9.44275 16.9188 9.82354 16.9188C10.2043 16.9188 10.5141 16.5984 10.5141 16.2201V11.0249C10.5141 10.6388 10.2042 10.3184 9.82354 10.3184Z" fill="#191C1F"/>
<path d="M22.7601 12.3356C22.5972 11.9416 22.3477 11.5949 22.0405 11.285C21.7333 10.9934 21.371 10.7492 20.9665 10.5811C20.5542 10.4131 20.1131 10.3289 19.6535 10.3289H18.3038C18.2644 10.3184 18.2277 10.3184 18.1883 10.3184C17.7865 10.3184 17.4609 10.6362 17.4609 11.0328V16.207C17.4609 16.601 17.7681 16.9029 18.1595 16.9213H19.6535C20.1131 16.9213 20.5542 16.8268 20.9665 16.6587C21.3682 16.4907 21.7332 16.2543 22.0405 15.9627C22.3477 15.6423 22.5972 15.3061 22.7601 14.9017C22.9333 14.4973 23.0173 14.0743 23.0173 13.6253C23.0173 13.1813 22.9333 12.7401 22.7601 12.3357V12.3356ZM21.0506 14.9673C20.6726 15.3376 20.1735 15.5268 19.6274 15.5268H18.8502V11.7052H19.6274C20.1737 11.7052 20.6726 11.9128 21.0506 12.2751C21.4287 12.6349 21.6284 13.1103 21.6284 13.6224C21.6284 14.1345 21.4289 14.6073 21.0506 14.9672V14.9673Z" fill="#191C1F"/>
<path d="M18.575 8.6041L16.5241 6.5528C16.3824 6.411 16.1933 6.34267 16.0068 6.34795C15.8204 6.34267 15.6313 6.40829 15.4896 6.5528L13.4387 8.6041C13.1656 8.87728 13.1656 9.3185 13.4387 9.59167C13.7118 9.86485 14.153 9.86485 14.4261 9.59167L15.3529 8.66459V14.2406L12.8819 10.666C12.7586 10.4506 12.5301 10.3088 12.2675 10.3088C11.8789 10.3088 11.5586 10.6292 11.5586 11.0153V16.2052C11.5586 16.5914 11.8789 16.9118 12.2675 16.9118C12.6562 16.9118 12.9765 16.5914 12.9765 16.2052V12.9905L15.4869 16.6019C15.4869 16.6098 15.4869 16.6203 15.4974 16.6309C15.6392 16.8095 15.8388 16.9146 16.0646 16.9146C16.4532 16.9146 16.7657 16.5942 16.7657 16.2081V8.77215L17.5876 9.59424C17.8607 9.86741 18.3019 9.86741 18.575 9.59424C18.8481 9.32106 18.8481 8.87714 18.575 8.6041Z" fill="#191C1F"/>
<path d="M9.82354 10.3184C9.44275 10.3184 9.125 10.6388 9.125 11.0249V16.2201C9.125 16.5982 9.44275 16.9188 9.82354 16.9188C10.2043 16.9188 10.5141 16.5984 10.5141 16.2201V11.0249C10.5141 10.6388 10.2042 10.3184 9.82354 10.3184Z" fill="#191C1F"/>
<path d="M22.7601 12.3356C22.5972 11.9416 22.3477 11.5949 22.0405 11.285C21.7333 10.9934 21.371 10.7492 20.9665 10.5811C20.5542 10.4131 20.1131 10.3289 19.6535 10.3289H18.3038C18.2644 10.3184 18.2277 10.3184 18.1883 10.3184C17.7865 10.3184 17.4609 10.6362 17.4609 11.0328V16.207C17.4609 16.601 17.7681 16.9029 18.1595 16.9213H19.6535C20.1131 16.9213 20.5542 16.8268 20.9665 16.6587C21.3682 16.4907 21.7332 16.2543 22.0405 15.9627C22.3477 15.6423 22.5972 15.3061 22.7601 14.9017C22.9333 14.4973 23.0173 14.0743 23.0173 13.6253C23.0173 13.1813 22.9333 12.7401 22.7601 12.3357V12.3356ZM21.0506 14.9673C20.6726 15.3376 20.1735 15.5268 19.6274 15.5268H18.8502V11.7052H19.6274C20.1737 11.7052 20.6726 11.9128 21.0506 12.2751C21.4287 12.6349 21.6284 13.1103 21.6284 13.6224C21.6284 14.1345 21.4289 14.6073 21.0506 14.9672V14.9673Z" fill="#191C1F"/>
<path d="M18.575 8.6041L16.5241 6.5528C16.3824 6.411 16.1933 6.34267 16.0068 6.34795C15.8204 6.34267 15.6313 6.40829 15.4896 6.5528L13.4387 8.6041C13.1656 8.87728 13.1656 9.3185 13.4387 9.59167C13.7118 9.86485 14.153 9.86485 14.4261 9.59167L15.3529 8.66459V14.2406L12.8819 10.666C12.7586 10.4506 12.5301 10.3088 12.2675 10.3088C11.8789 10.3088 11.5586 10.6292 11.5586 11.0153V16.2052C11.5586 16.5914 11.8789 16.9118 12.2675 16.9118C12.6562 16.9118 12.9765 16.5914 12.9765 16.2052V12.9905L15.4869 16.6019C15.4869 16.6098 15.4869 16.6203 15.4974 16.6309C15.6392 16.8095 15.8388 16.9146 16.0646 16.9146C16.4532 16.9146 16.7657 16.5942 16.7657 16.2081V8.77215L17.5876 9.59424C17.8607 9.86741 18.3019 9.86741 18.575 9.59424C18.8481 9.32106 18.8481 8.87714 18.575 8.6041Z" fill="#191C1F"/>
<path d="M22.0117 18.0383C22.0117 17.8704 22.1478 17.7344 22.3156 17.7344C22.4835 17.7344 22.6195 17.8704 22.6195 18.0383V21.06C22.6195 21.2278 22.4835 21.3639 22.3156 21.3639C22.1478 21.3639 22.0117 21.2278 22.0117 21.06V18.0383Z" fill="#191C1F"/>
<path d="M20.9277 21.0821C20.9277 21.0769 20.9234 21.0726 20.9181 21.0726C20.9146 21.0726 20.9114 21.0744 20.9097 21.0774C20.8488 21.1833 20.7518 21.2712 20.6187 21.3411C20.4837 21.4086 20.33 21.4424 20.1578 21.4424C20.0599 21.4424 19.9569 21.4289 19.8488 21.4019C19.7442 21.3782 19.6462 21.3377 19.5551 21.2803C19.4673 21.2195 19.393 21.1418 19.3322 21.0472C19.2748 20.9493 19.2461 20.8294 19.2461 20.6875C19.2461 20.5051 19.2967 20.3599 19.398 20.2518C19.5027 20.1438 19.6361 20.061 19.7982 20.0036C19.9603 19.9462 20.1392 19.909 20.3351 19.8921C20.513 19.874 20.6869 19.864 20.8568 19.8621C20.8903 19.8617 20.9176 19.8345 20.9176 19.8009C20.9176 19.649 20.8618 19.5375 20.7504 19.4666C20.6424 19.3923 20.5124 19.3551 20.3604 19.3551C20.2321 19.3551 20.1088 19.3821 19.9907 19.4362C19.9601 19.4502 19.9309 19.4649 19.9031 19.4805C19.7819 19.5482 19.6199 19.5431 19.53 19.4373C19.4477 19.3404 19.4553 19.1936 19.5614 19.1235C19.6535 19.0627 19.7526 19.0133 19.859 18.9752C20.0413 18.911 20.2253 18.8789 20.4111 18.8789C20.6272 18.8789 20.8044 18.9093 20.9429 18.9701C21.0847 19.0309 21.1961 19.1103 21.2772 19.2082C21.3582 19.3062 21.4139 19.4159 21.4443 19.5375C21.4781 19.6591 21.495 19.7807 21.495 19.9023V21.098C21.495 21.2546 21.368 21.3816 21.2113 21.3816H21.0822C20.9969 21.3816 20.9277 21.3124 20.9277 21.2271V21.0821ZM20.9176 20.3582C20.9176 20.3107 20.879 20.2721 20.8314 20.2721H20.7808C20.6829 20.2721 20.5799 20.2772 20.4718 20.2873C20.3638 20.2941 20.2642 20.3126 20.173 20.343C20.0818 20.3701 20.0058 20.4106 19.9451 20.4646C19.8843 20.5153 19.8539 20.5862 19.8539 20.6774C19.8539 20.7348 19.8657 20.7838 19.8894 20.8243C19.9164 20.8615 19.9501 20.8919 19.9907 20.9155C20.0312 20.9392 20.0768 20.956 20.1274 20.9662C20.1781 20.9763 20.2287 20.9814 20.2794 20.9814C20.4887 20.9814 20.6474 20.9256 20.7555 20.8142C20.8635 20.7027 20.9176 20.5507 20.9176 20.3582Z" fill="#191C1F"/>
<path d="M16.718 17.7344C16.8858 17.7344 17.0219 17.8704 17.0219 18.0383V19.231C17.0219 19.2366 17.0264 19.2411 17.032 19.2411C17.0352 19.2411 17.0382 19.2396 17.0401 19.2371C17.07 19.1978 17.1079 19.1569 17.1536 19.1145C17.2008 19.0706 17.2565 19.0301 17.3207 18.9929C17.3882 18.9558 17.4659 18.9254 17.5537 18.9017C17.6415 18.8747 17.7411 18.8612 17.8525 18.8612C18.0247 18.8612 18.1834 18.895 18.3286 18.9625C18.4738 19.0267 18.5988 19.1162 18.7035 19.231C18.8081 19.3458 18.8892 19.4809 18.9466 19.6363C19.004 19.7917 19.0327 19.9589 19.0327 20.1379C19.0327 20.3169 19.004 20.4857 18.9466 20.6445C18.8926 20.7998 18.8132 20.9366 18.7085 21.0548C18.6072 21.1697 18.4823 21.2625 18.3337 21.3335C18.1885 21.401 18.0231 21.4348 17.8373 21.4348C17.6651 21.4348 17.503 21.3976 17.3511 21.3233C17.2036 21.2496 17.0878 21.1426 17.0035 21.0023C17.0023 21.0003 17.0002 20.9991 16.9979 20.9991C16.9944 20.9991 16.9915 21.002 16.9915 21.0056V21.1815C16.9915 21.2822 16.9098 21.3639 16.8091 21.3639H16.7028C16.5433 21.3639 16.4141 21.2346 16.4141 21.0752V18.0383C16.4141 17.8704 16.5501 17.7344 16.718 17.7344ZM18.4148 20.1379C18.4148 20.0433 18.3996 19.9504 18.3692 19.8592C18.3422 19.7647 18.2999 19.6802 18.2425 19.6059C18.1851 19.5316 18.1125 19.4725 18.0247 19.4286C17.937 19.3813 17.834 19.3577 17.7158 19.3577C17.6043 19.3577 17.5047 19.3813 17.4169 19.4286C17.3291 19.4759 17.2532 19.5367 17.189 19.611C17.1282 19.6853 17.081 19.7697 17.0472 19.8643C17.0168 19.9589 17.0016 20.0534 17.0016 20.148C17.0016 20.2426 17.0168 20.3371 17.0472 20.4317C17.081 20.5229 17.1282 20.6056 17.189 20.6799C17.2532 20.7542 17.3291 20.815 17.4169 20.8623C17.5047 20.9062 17.6043 20.9282 17.7158 20.9282C17.834 20.9282 17.937 20.9045 18.0247 20.8573C18.1125 20.81 18.1851 20.7492 18.2425 20.6749C18.2999 20.6006 18.3422 20.5161 18.3692 20.4216C18.3996 20.327 18.4148 20.2324 18.4148 20.1379Z" fill="#191C1F"/>
<path d="M13.3711 20.1556C13.3711 19.9631 13.4049 19.7891 13.4724 19.6338C13.5433 19.475 13.6379 19.3399 13.756 19.2285C13.8742 19.117 14.0144 19.0309 14.1764 18.9701C14.3385 18.9093 14.5107 18.8789 14.6931 18.8789C14.8754 18.8789 15.0476 18.9093 15.2097 18.9701C15.3718 19.0309 15.5119 19.117 15.6301 19.2285C15.7483 19.3399 15.8411 19.475 15.9087 19.6338C15.9796 19.7891 16.015 19.9631 16.015 20.1556C16.015 20.3481 15.9796 20.5237 15.9087 20.6825C15.8411 20.8412 15.7483 20.978 15.6301 21.0928C15.5119 21.2043 15.3718 21.2921 15.2097 21.3563C15.0476 21.4204 14.8754 21.4525 14.6931 21.4525C14.5107 21.4525 14.3385 21.4204 14.1764 21.3563C14.0144 21.2921 13.8742 21.2043 13.756 21.0928C13.6379 20.978 13.5433 20.8412 13.4724 20.6825C13.4049 20.5237 13.3711 20.3481 13.3711 20.1556ZM13.989 20.1556C13.989 20.2502 14.0025 20.3447 14.0295 20.4393C14.0599 20.5339 14.1038 20.6183 14.1612 20.6926C14.2186 20.7669 14.2912 20.8277 14.379 20.875C14.4668 20.9223 14.5715 20.9459 14.6931 20.9459C14.8146 20.9459 14.9193 20.9223 15.0071 20.875C15.0949 20.8277 15.1675 20.7669 15.2249 20.6926C15.2823 20.6183 15.3245 20.5339 15.3515 20.4393C15.3819 20.3447 15.3971 20.2502 15.3971 20.1556C15.3971 20.061 15.3819 19.9681 15.3515 19.8769C15.3245 19.7824 15.2823 19.6979 15.2249 19.6236C15.1675 19.5493 15.0949 19.4902 15.0071 19.4463C14.9193 19.399 14.8146 19.3754 14.6931 19.3754C14.5715 19.3754 14.4668 19.399 14.379 19.4463C14.2912 19.4902 14.2186 19.5493 14.1612 19.6236C14.1038 19.6979 14.0599 19.7824 14.0295 19.8769C14.0025 19.9681 13.989 20.061 13.989 20.1556Z" fill="#191C1F"/>
<path d="M12.3672 18.0383C12.3672 17.8704 12.5032 17.7344 12.6711 17.7344C12.8389 17.7344 12.975 17.8704 12.975 18.0383V21.06C12.975 21.2278 12.8389 21.3639 12.6711 21.3639C12.5032 21.3639 12.3672 21.2278 12.3672 21.06V18.0383Z" fill="#191C1F"/>
<path d="M11.5397 18.9498C11.6991 18.9498 11.8284 19.0791 11.8284 19.2385V21.1638C11.8284 21.3833 11.8014 21.5809 11.7474 21.7565C11.6933 21.9355 11.6089 22.0858 11.4941 22.2074C11.3827 22.3323 11.2409 22.4286 11.0686 22.4962C10.8964 22.5637 10.6921 22.5975 10.4558 22.5975C10.3579 22.5975 10.2532 22.589 10.1417 22.5721C10.0337 22.5553 9.92564 22.5299 9.81758 22.4962C9.71291 22.4624 9.6116 22.4202 9.51368 22.3695C9.49968 22.3623 9.48588 22.3549 9.47229 22.3474C9.34067 22.2745 9.32056 22.1025 9.41018 21.9817C9.51108 21.8457 9.70762 21.8319 9.85634 21.9129C9.90251 21.9381 9.95037 21.9603 9.99992 21.9794C10.1485 22.0402 10.2988 22.0706 10.4507 22.0706C10.5959 22.0706 10.7175 22.0486 10.8154 22.0047C10.9167 21.9642 10.996 21.9068 11.0535 21.8325C11.1142 21.7582 11.1564 21.6704 11.1801 21.569C11.2071 21.4677 11.2206 21.3563 11.2206 21.2347V21.0641C11.2206 21.0604 11.2176 21.0574 11.2139 21.0574C11.2117 21.0574 11.2097 21.0584 11.2084 21.0601C11.1209 21.177 11.0085 21.2673 10.8711 21.3309C10.736 21.3917 10.5841 21.4221 10.4153 21.4221C10.2329 21.4221 10.0675 21.3884 9.91888 21.3208C9.77031 21.2533 9.64368 21.1621 9.53901 21.0472C9.43771 20.9324 9.35835 20.799 9.30095 20.647C9.24355 20.4916 9.21484 20.3278 9.21484 20.1556C9.21484 19.98 9.24186 19.8145 9.29588 19.6591C9.35329 19.5037 9.43264 19.3686 9.53394 19.2538C9.63862 19.139 9.76356 19.0478 9.90875 18.9802C10.0573 18.9127 10.2228 18.8789 10.4051 18.8789C10.5773 18.8789 10.7377 18.9144 10.8863 18.9853C11.0338 19.0557 11.1514 19.1644 11.239 19.3114C11.2401 19.3134 11.2423 19.3146 11.2445 19.3146C11.2481 19.3146 11.251 19.3117 11.251 19.3081V19.1322C11.251 19.0315 11.3326 18.9498 11.4334 18.9498H11.5397ZM10.5318 19.3754C10.4203 19.3754 10.3207 19.3957 10.2329 19.4362C10.1485 19.4767 10.0759 19.5324 10.0151 19.6034C9.95772 19.6709 9.91213 19.752 9.87836 19.8465C9.84797 19.9411 9.83278 20.0424 9.83278 20.1505C9.83278 20.2485 9.84797 20.343 9.87836 20.4342C9.91213 20.5254 9.95772 20.6082 10.0151 20.6825C10.0759 20.7534 10.1485 20.8108 10.2329 20.8547C10.3207 20.8986 10.4186 20.9206 10.5267 20.9206C10.6381 20.9206 10.7377 20.9003 10.8255 20.8598C10.9167 20.8159 10.9927 20.7585 11.0535 20.6875C11.1176 20.6166 11.1666 20.5355 11.2003 20.4444C11.2341 20.3498 11.251 20.2518 11.251 20.1505C11.251 20.0458 11.2341 19.9462 11.2003 19.8516C11.1666 19.757 11.1176 19.6743 11.0535 19.6034C10.9927 19.5324 10.9184 19.4767 10.8306 19.4362C10.7428 19.3957 10.6432 19.3754 10.5318 19.3754Z" fill="#191C1F"/>
<path d="M10.2999 24.3318C10.2999 24.1114 10.164 23.9313 9.92391 23.9313C9.70085 23.9313 9.54152 24.105 9.54152 24.3318C9.54152 24.5585 9.70085 24.7301 9.92391 24.7301C10.164 24.7301 10.2999 24.5521 10.2999 24.3318ZM9.41406 24.764V23.2893C9.41406 23.2215 9.46292 23.2109 9.48629 23.2109C9.50966 23.2109 9.55852 23.2215 9.55852 23.2893V24.0076H9.56277C9.64774 23.8783 9.79645 23.8105 9.93878 23.8105C10.2489 23.8105 10.4529 24.0394 10.4529 24.3318C10.4529 24.6241 10.2489 24.853 9.93878 24.853C9.79645 24.853 9.64774 24.7852 9.56277 24.6602H9.55852V24.764C9.55852 24.8318 9.50966 24.8424 9.48629 24.8424C9.46292 24.8424 9.41406 24.8318 9.41406 24.764Z" fill="#191C1F"/>
<path d="M11.5484 23.9271L11.079 25.0839C11.0174 25.2365 10.9388 25.336 10.7667 25.336C10.7412 25.336 10.7051 25.3339 10.6817 25.3276C10.6456 25.317 10.6286 25.2937 10.6286 25.264C10.6286 25.2301 10.6541 25.2026 10.6902 25.2026C10.7008 25.2026 10.7114 25.2047 10.7242 25.2068C10.7412 25.2089 10.7497 25.2089 10.7603 25.2089C10.8559 25.2089 10.9069 25.1453 10.9494 25.0331L11.0301 24.8254L10.635 23.9313C10.6286 23.9144 10.6265 23.9016 10.6265 23.8911C10.6265 23.8508 10.6605 23.8211 10.7008 23.8211C10.7242 23.8211 10.7539 23.8296 10.7731 23.8783L11.1045 24.6729H11.1087L11.4125 23.8783C11.4295 23.8317 11.4592 23.8211 11.4826 23.8211C11.5251 23.8211 11.5569 23.8508 11.5569 23.8889C11.5569 23.8974 11.5548 23.9101 11.5484 23.9271Z" fill="#191C1F"/>
<path d="M12.573 23.4588V24.6962C12.573 24.8233 12.4838 24.8466 12.4391 24.8466C12.3945 24.8466 12.3053 24.8233 12.3053 24.6962V23.4588C12.3053 23.3317 12.3945 23.3084 12.4391 23.3084C12.4838 23.3084 12.573 23.3317 12.573 23.4588Z" fill="#191C1F"/>
<path d="M13.8757 24.7237L13.1768 23.7618H13.1725V24.6962C13.1725 24.8233 13.0833 24.8466 13.0387 24.8466C12.9941 24.8466 12.9049 24.8233 12.9049 24.6962V23.5033C12.9049 23.3381 13.0196 23.3084 13.0727 23.3084C13.1322 23.3084 13.1895 23.3338 13.2596 23.4313L13.9585 24.3911H13.9628V23.4588C13.9628 23.3317 14.052 23.3084 14.0966 23.3084C14.1412 23.3084 14.2305 23.3317 14.2305 23.4588V24.6517C14.2305 24.8169 14.1157 24.8466 14.0626 24.8466C14.001 24.8466 13.9479 24.8212 13.8757 24.7237Z" fill="#191C1F"/>
<path d="M15.0956 24.8275H14.7218C14.6134 24.8275 14.5624 24.7767 14.5624 24.6686V23.4864C14.5624 23.3783 14.6134 23.3275 14.7218 23.3275H15.0956C15.4887 23.3275 15.9263 23.5139 15.9263 24.0775C15.9263 24.603 15.4887 24.8275 15.0956 24.8275ZM14.8301 23.5563V24.5945H15.0532C15.3293 24.5945 15.6395 24.4822 15.6395 24.0775C15.6395 23.6474 15.3293 23.5563 15.0532 23.5563H14.8301Z" fill="#191C1F"/>
<path d="M16.172 24.7047V23.925C16.172 23.8105 16.2548 23.7915 16.2931 23.7915C16.3313 23.7915 16.4142 23.8105 16.4142 23.925V23.9737H16.4184C16.463 23.8741 16.5714 23.7809 16.735 23.7809C16.8922 23.7809 16.9962 23.8593 17.0536 23.9737C17.1216 23.8508 17.2363 23.7809 17.3893 23.7809C17.6548 23.7809 17.7653 23.9843 17.7653 24.1919V24.7047C17.7653 24.8254 17.6803 24.8466 17.6378 24.8466C17.5953 24.8466 17.5103 24.8254 17.5103 24.7047V24.264C17.5103 24.1432 17.4827 23.9928 17.3192 23.9928C17.1598 23.9928 17.094 24.1411 17.094 24.2724V24.7047C17.094 24.8254 17.009 24.8466 16.9665 24.8466C16.924 24.8466 16.839 24.8254 16.839 24.7047V24.2131C16.839 24.0881 16.7796 23.9928 16.65 23.9928C16.497 23.9928 16.4269 24.1326 16.4269 24.2682V24.7047C16.4269 24.8254 16.3419 24.8466 16.2995 24.8466C16.257 24.8466 16.172 24.8254 16.172 24.7047Z" fill="#191C1F"/>
<path d="M19.1114 24.3148C19.1114 24.6347 18.8649 24.8572 18.5569 24.8572C18.2489 24.8572 18.0024 24.6347 18.0024 24.3148C18.0024 23.9949 18.2489 23.7809 18.5569 23.7809C18.8649 23.7809 19.1114 23.9949 19.1114 24.3148ZM18.8522 24.3148C18.8522 24.1559 18.7587 23.9885 18.5569 23.9885C18.3551 23.9885 18.2616 24.1559 18.2616 24.3148C18.2616 24.4737 18.3551 24.6453 18.5569 24.6453C18.7587 24.6453 18.8522 24.4737 18.8522 24.3148Z" fill="#191C1F"/>
<path d="M19.3585 24.7047V23.925C19.3585 23.8105 19.4414 23.7915 19.4796 23.7915C19.5179 23.7915 19.6007 23.8105 19.6007 23.925V23.9737H19.605C19.6496 23.872 19.7707 23.7809 19.9215 23.7809C20.187 23.7809 20.2975 23.9843 20.2975 24.1919V24.7047C20.2975 24.8254 20.2125 24.8466 20.17 24.8466C20.1275 24.8466 20.0426 24.8254 20.0426 24.7047V24.264C20.0426 24.1432 20.015 23.9928 19.8514 23.9928C19.6899 23.9928 19.6135 24.1326 19.6135 24.2682V24.7047C19.6135 24.8254 19.5285 24.8466 19.486 24.8466C19.4435 24.8466 19.3585 24.8254 19.3585 24.7047Z" fill="#191C1F"/>
<path d="M21.432 24.3996H20.7904C20.801 24.5436 20.9327 24.6496 21.0814 24.6496C21.1877 24.6496 21.2514 24.6157 21.3151 24.5627C21.3512 24.533 21.3746 24.5267 21.4022 24.5267C21.4596 24.5267 21.5042 24.5669 21.5042 24.6284C21.5042 24.6496 21.4957 24.6877 21.4617 24.7195C21.3619 24.8148 21.2471 24.8572 21.0836 24.8572C20.7692 24.8572 20.5355 24.6559 20.5355 24.3254C20.5355 23.997 20.767 23.7809 21.0751 23.7809C21.3215 23.7809 21.5212 23.9207 21.5616 24.2195C21.5637 24.2406 21.5658 24.2555 21.5658 24.2724C21.5658 24.3614 21.5169 24.3996 21.432 24.3996ZM20.7904 24.2173H21.313C21.313 24.086 21.2387 23.9716 21.073 23.9716C20.9221 23.9716 20.801 24.0754 20.7904 24.2173Z" fill="#191C1F"/>
<path d="M22.707 23.9758L22.2694 25.0458C22.193 25.2322 22.1016 25.336 21.8828 25.336C21.7745 25.336 21.7426 25.2725 21.7426 25.2216C21.7426 25.1708 21.7766 25.1263 21.8276 25.1178C21.8403 25.1157 21.8509 25.1157 21.8679 25.1157C21.9359 25.1157 22.0018 25.0733 22.0485 24.9568L22.0995 24.8275L21.715 23.9843C21.7022 23.9546 21.698 23.9271 21.698 23.9101C21.698 23.8444 21.7511 23.7915 21.8254 23.7915C21.87 23.7915 21.9189 23.8105 21.9529 23.8911L22.2291 24.55H22.2333L22.4712 23.8974C22.5031 23.8105 22.5541 23.7915 22.5966 23.7915C22.6688 23.7915 22.7219 23.8381 22.7219 23.9059C22.7219 23.9207 22.7198 23.9419 22.707 23.9758Z" fill="#191C1F"/>
</g>
</g>
<defs>
<clipPath id="clip0_3207_77512">
<rect width="32" height="32" fill="white"/>
</clipPath>
<clipPath id="clip1_3207_77512">
<rect width="32" height="32" fill="white"/>
</clipPath>
</defs>
</svg>
