<svg width="24" height="24" viewBox="0 0 24 24" fill="none" xmlns="http://www.w3.org/2000/svg">
<g clip-path="url(#clip0_3207_77520)">
<g clip-path="url(#clip1_3207_77520)">
<path d="M0 12C0 18.6274 5.37258 24 12 24C18.6274 24 24 18.6274 24 12C24 5.37258 18.6274 0 12 0C5.37258 0 0 5.37258 0 12Z" fill="white"/>
<path d="M6.51923 7.77441C6.18508 7.77441 5.90625 8.05556 5.90625 8.39441V12.9532C5.90625 13.285 6.18508 13.5663 6.51923 13.5663C6.85337 13.5663 7.12519 13.2852 7.12519 12.9532V8.39441C7.12519 8.05556 6.85325 7.77441 6.51923 7.77441Z" fill="#191C1F"/>
<path d="M17.8688 9.54453C17.7258 9.19879 17.5069 8.89462 17.2374 8.62261C16.9678 8.36675 16.6498 8.15245 16.2949 8.00499C15.9331 7.85753 15.546 7.78368 15.1428 7.78368H13.9584C13.9238 7.77441 13.8915 7.77441 13.857 7.77441C13.5045 7.77441 13.2188 8.05331 13.2188 8.4013V12.9417C13.2188 13.2874 13.4883 13.5524 13.8317 13.5686H15.1428C15.546 13.5686 15.9331 13.4856 16.2949 13.3381C16.6474 13.1907 16.9677 12.9832 17.2374 12.7274C17.5069 12.4462 17.7258 12.1512 17.8688 11.7963C18.0208 11.4415 18.0945 11.0703 18.0945 10.6762C18.0945 10.2867 18.0208 9.89953 17.8688 9.54466V9.54453ZM16.3687 11.8539C16.037 12.1789 15.5991 12.3448 15.1199 12.3448H14.4378V8.99138H15.1199C15.5992 8.99138 16.037 9.17351 16.3687 9.49146C16.7005 9.80715 16.8757 10.2244 16.8757 10.6737C16.8757 11.1231 16.7006 11.538 16.3687 11.8538V11.8539Z" fill="#191C1F"/>
<path d="M14.1999 6.27985L12.4002 4.47982C12.2759 4.35539 12.1099 4.29543 11.9463 4.30006C11.7828 4.29543 11.6168 4.35301 11.4924 4.47982L9.6928 6.27985C9.45314 6.51956 9.45314 6.90673 9.6928 7.14644C9.93245 7.38616 10.3195 7.38616 10.5592 7.14644L11.3725 6.33292V11.2259L9.20422 8.08915C9.09596 7.90013 8.89548 7.77571 8.66508 7.77571C8.32405 7.77571 8.04297 8.05685 8.04297 8.3957V12.9499C8.04297 13.2887 8.32405 13.5699 8.66508 13.5699C9.00611 13.5699 9.28719 13.2887 9.28719 12.9499V10.1289L11.49 13.298C11.49 13.3049 11.49 13.3141 11.4993 13.3234C11.6237 13.4801 11.7989 13.5724 11.997 13.5724C12.338 13.5724 12.6122 13.2912 12.6122 12.9524V6.42731L13.3335 7.1487C13.5731 7.38841 13.9602 7.38841 14.1999 7.1487C14.4395 6.90898 14.4395 6.51944 14.1999 6.27985Z" fill="#191C1F"/>
<path d="M6.51923 7.77441C6.18508 7.77441 5.90625 8.05556 5.90625 8.39441V12.9532C5.90625 13.285 6.18508 13.5663 6.51923 13.5663C6.85337 13.5663 7.12519 13.2852 7.12519 12.9532V8.39441C7.12519 8.05556 6.85325 7.77441 6.51923 7.77441Z" fill="#191C1F"/>
<path d="M17.8688 9.54453C17.7258 9.19879 17.5069 8.89462 17.2374 8.62261C16.9678 8.36675 16.6498 8.15245 16.2949 8.00499C15.9331 7.85753 15.546 7.78368 15.1428 7.78368H13.9584C13.9238 7.77441 13.8915 7.77441 13.857 7.77441C13.5045 7.77441 13.2188 8.05331 13.2188 8.4013V12.9417C13.2188 13.2874 13.4883 13.5524 13.8317 13.5686H15.1428C15.546 13.5686 15.9331 13.4856 16.2949 13.3381C16.6474 13.1907 16.9677 12.9832 17.2374 12.7274C17.5069 12.4462 17.7258 12.1512 17.8688 11.7963C18.0208 11.4415 18.0945 11.0703 18.0945 10.6762C18.0945 10.2867 18.0208 9.89953 17.8688 9.54466V9.54453ZM16.3687 11.8539C16.037 12.1789 15.5991 12.3448 15.1199 12.3448H14.4378V8.99138H15.1199C15.5992 8.99138 16.037 9.17351 16.3687 9.49146C16.7005 9.80715 16.8757 10.2244 16.8757 10.6737C16.8757 11.1231 16.7006 11.538 16.3687 11.8538V11.8539Z" fill="#191C1F"/>
<path d="M14.1999 6.27985L12.4002 4.47982C12.2759 4.35539 12.1099 4.29543 11.9463 4.30006C11.7828 4.29543 11.6168 4.35301 11.4924 4.47982L9.6928 6.27985C9.45314 6.51956 9.45314 6.90673 9.6928 7.14644C9.93245 7.38616 10.3195 7.38616 10.5592 7.14644L11.3725 6.33292V11.2259L9.20422 8.08915C9.09596 7.90013 8.89548 7.77571 8.66508 7.77571C8.32405 7.77571 8.04297 8.05685 8.04297 8.3957V12.9499C8.04297 13.2887 8.32405 13.5699 8.66508 13.5699C9.00611 13.5699 9.28719 13.2887 9.28719 12.9499V10.1289L11.49 13.298C11.49 13.3049 11.49 13.3141 11.4993 13.3234C11.6237 13.4801 11.7989 13.5724 11.997 13.5724C12.338 13.5724 12.6122 13.2912 12.6122 12.9524V6.42731L13.3335 7.1487C13.5731 7.38841 13.9602 7.38841 14.1999 7.1487C14.4395 6.90898 14.4395 6.51944 14.1999 6.27985Z" fill="#191C1F"/>
<path d="M17.2148 14.5723C17.2148 14.4251 17.3342 14.3057 17.4815 14.3057C17.6288 14.3057 17.7482 14.4251 17.7482 14.5723V17.2239C17.7482 17.3712 17.6288 17.4906 17.4815 17.4906C17.3342 17.4906 17.2148 17.3712 17.2148 17.2239V14.5723Z" fill="#191C1F"/>
<path d="M16.2608 17.2219C16.2608 17.2173 16.257 17.2135 16.2523 17.2135C16.2493 17.2135 16.2465 17.2152 16.245 17.2178C16.1915 17.3107 16.1064 17.3878 15.9896 17.4491C15.8711 17.5084 15.7363 17.538 15.5852 17.538C15.4993 17.538 15.4089 17.5262 15.3141 17.5025C15.2222 17.4817 15.1363 17.4462 15.0563 17.3958C14.9792 17.3424 14.914 17.2743 14.8607 17.1913C14.8103 17.1053 14.7852 17.0001 14.7852 16.8757C14.7852 16.7156 14.8296 16.5882 14.9185 16.4933C15.0103 16.3985 15.1274 16.3259 15.2696 16.2755C15.4118 16.2251 15.5689 16.1925 15.7407 16.1777C15.8969 16.1618 16.0495 16.153 16.1985 16.1513C16.228 16.151 16.2519 16.1271 16.2519 16.0977C16.2519 15.9643 16.203 15.8665 16.1052 15.8043C16.0104 15.7391 15.8963 15.7065 15.763 15.7065C15.6504 15.7065 15.5422 15.7302 15.4385 15.7776C15.4117 15.7898 15.3861 15.8028 15.3616 15.8164C15.2553 15.8758 15.1132 15.8714 15.0343 15.7786C14.9621 15.6935 14.9687 15.5647 15.0619 15.5032C15.1426 15.4499 15.2296 15.4065 15.323 15.373C15.483 15.3167 15.6444 15.2886 15.8074 15.2886C15.997 15.2886 16.1526 15.3152 16.2741 15.3686C16.3985 15.4219 16.4963 15.4916 16.5674 15.5775C16.6386 15.6635 16.6874 15.7598 16.7141 15.8665C16.7437 15.9732 16.7586 16.0799 16.7586 16.1866V17.2358C16.7586 17.3733 16.6471 17.4847 16.5097 17.4847H16.3964C16.3215 17.4847 16.2608 17.424 16.2608 17.3491V17.2219ZM16.2519 16.5867C16.2519 16.5449 16.218 16.5111 16.1763 16.5111H16.1319C16.0459 16.5111 15.9556 16.5156 15.8607 16.5244C15.7659 16.5304 15.6785 16.5467 15.5985 16.5734C15.5185 16.5971 15.4518 16.6326 15.3985 16.68C15.3452 16.7245 15.3185 16.7867 15.3185 16.8668C15.3185 16.9171 15.3289 16.9601 15.3496 16.9957C15.3733 17.0283 15.403 17.055 15.4385 17.0757C15.4741 17.0964 15.5141 17.1113 15.5585 17.1202C15.603 17.1291 15.6474 17.1335 15.6919 17.1335C15.8756 17.1335 16.0148 17.0846 16.1096 16.9868C16.2045 16.889 16.2519 16.7556 16.2519 16.5867Z" fill="#191C1F"/>
<path d="M12.5675 14.3057C12.7147 14.3057 12.8341 14.4251 12.8341 14.5723V15.619C12.8341 15.6239 12.8381 15.6279 12.843 15.6279C12.8458 15.6279 12.8485 15.6265 12.8501 15.6243C12.8764 15.5898 12.9096 15.554 12.9497 15.5167C12.9912 15.4782 13.0401 15.4426 13.0964 15.41C13.1556 15.3774 13.2238 15.3508 13.3008 15.33C13.3779 15.3063 13.4653 15.2944 13.563 15.2944C13.7142 15.2944 13.8534 15.3241 13.9808 15.3834C14.1083 15.4397 14.2179 15.5182 14.3097 15.619C14.4016 15.7197 14.4727 15.8383 14.5231 15.9746C14.5735 16.111 14.5986 16.2577 14.5986 16.4147C14.5986 16.5718 14.5735 16.72 14.5231 16.8593C14.4757 16.9956 14.406 17.1157 14.3142 17.2194C14.2253 17.3202 14.1157 17.4017 13.9853 17.4639C13.8579 17.5232 13.7127 17.5528 13.5497 17.5528C13.3986 17.5528 13.2564 17.5202 13.123 17.455C12.9936 17.3903 12.892 17.2964 12.818 17.1733C12.817 17.1715 12.8151 17.1705 12.8131 17.1705C12.81 17.1705 12.8075 17.173 12.8075 17.1762V17.3305C12.8075 17.4189 12.7358 17.4906 12.6474 17.4906H12.5541C12.4142 17.4906 12.3008 17.3771 12.3008 17.2372V14.5723C12.3008 14.4251 12.4202 14.3057 12.5675 14.3057ZM14.0564 16.4147C14.0564 16.3317 14.0431 16.2502 14.0164 16.1702C13.9927 16.0872 13.9557 16.0131 13.9053 15.9479C13.8549 15.8827 13.7912 15.8309 13.7142 15.7924C13.6371 15.7509 13.5467 15.7301 13.443 15.7301C13.3453 15.7301 13.2579 15.7509 13.1808 15.7924C13.1038 15.8338 13.0371 15.8872 12.9808 15.9524C12.9275 16.0176 12.886 16.0917 12.8564 16.1747C12.8297 16.2577 12.8164 16.3406 12.8164 16.4236C12.8164 16.5066 12.8297 16.5896 12.8564 16.6726C12.886 16.7526 12.9275 16.8252 12.9808 16.8904C13.0371 16.9556 13.1038 17.009 13.1808 17.0505C13.2579 17.089 13.3453 17.1082 13.443 17.1082C13.5467 17.1082 13.6371 17.0875 13.7142 17.046C13.7912 17.0045 13.8549 16.9512 13.9053 16.886C13.9557 16.8208 13.9927 16.7467 14.0164 16.6637C14.0431 16.5807 14.0564 16.4977 14.0564 16.4147Z" fill="#191C1F"/>
<path d="M9.62891 16.4089C9.62891 16.2399 9.65854 16.0873 9.7178 15.951C9.78002 15.8117 9.86299 15.6931 9.9667 15.5953C10.0704 15.4975 10.1934 15.4219 10.3356 15.3686C10.4778 15.3152 10.6289 15.2886 10.7889 15.2886C10.949 15.2886 11.1001 15.3152 11.2423 15.3686C11.3845 15.4219 11.5075 15.4975 11.6112 15.5953C11.7149 15.6931 11.7964 15.8117 11.8556 15.951C11.9179 16.0873 11.949 16.2399 11.949 16.4089C11.949 16.5778 11.9179 16.7319 11.8556 16.8712C11.7964 17.0105 11.7149 17.1305 11.6112 17.2313C11.5075 17.3291 11.3845 17.4062 11.2423 17.4625C11.1001 17.5188 10.949 17.5469 10.7889 17.5469C10.6289 17.5469 10.4778 17.5188 10.3356 17.4625C10.1934 17.4062 10.0704 17.3291 9.9667 17.2313C9.86299 17.1305 9.78002 17.0105 9.7178 16.8712C9.65854 16.7319 9.62891 16.5778 9.62891 16.4089ZM10.1711 16.4089C10.1711 16.4918 10.183 16.5748 10.2067 16.6578C10.2334 16.7408 10.2719 16.8149 10.3223 16.8801C10.3726 16.9453 10.4363 16.9986 10.5134 17.0401C10.5904 17.0816 10.6823 17.1024 10.7889 17.1024C10.8956 17.1024 10.9875 17.0816 11.0645 17.0401C11.1416 16.9986 11.2053 16.9453 11.2556 16.8801C11.306 16.8149 11.343 16.7408 11.3667 16.6578C11.3934 16.5748 11.4067 16.4918 11.4067 16.4089C11.4067 16.3259 11.3934 16.2444 11.3667 16.1644C11.343 16.0814 11.306 16.0073 11.2556 15.9421C11.2053 15.8769 11.1416 15.825 11.0645 15.7865C10.9875 15.745 10.8956 15.7242 10.7889 15.7242C10.6823 15.7242 10.5904 15.745 10.5134 15.7865C10.4363 15.825 10.3726 15.8769 10.3223 15.9421C10.2719 16.0073 10.2334 16.0814 10.2067 16.1644C10.183 16.2444 10.1711 16.3259 10.1711 16.4089Z" fill="#191C1F"/>
<path d="M8.75 14.5723C8.75 14.4251 8.86939 14.3057 9.01668 14.3057C9.16396 14.3057 9.28335 14.4251 9.28335 14.5723V17.2239C9.28335 17.3712 9.16396 17.4906 9.01668 17.4906C8.86939 17.4906 8.75 17.3712 8.75 17.2239V14.5723Z" fill="#191C1F"/>
<path d="M8.02444 15.3508C8.16436 15.3508 8.27779 15.4642 8.27779 15.6042V17.2935C8.27779 17.4862 8.25408 17.6596 8.20667 17.8137C8.15926 17.9707 8.08519 18.1026 7.98444 18.2093C7.88666 18.319 7.76221 18.4035 7.6111 18.4627C7.45998 18.522 7.28072 18.5516 7.0733 18.5516C6.98737 18.5516 6.89552 18.5442 6.79774 18.5294C6.70292 18.5146 6.6081 18.4924 6.51328 18.4627C6.42143 18.4331 6.33253 18.396 6.24661 18.3516C6.23432 18.3452 6.22221 18.3388 6.21029 18.3322C6.09479 18.2682 6.07714 18.1173 6.15578 18.0113C6.24432 17.8919 6.41679 17.8798 6.54729 17.951C6.58781 17.973 6.62981 17.9925 6.67329 18.0093C6.80366 18.0626 6.93552 18.0893 7.06886 18.0893C7.19627 18.0893 7.30294 18.07 7.38887 18.0315C7.47776 17.9959 7.54739 17.9456 7.59776 17.8804C7.6511 17.8152 7.68814 17.7381 7.70888 17.6492C7.73258 17.5603 7.74443 17.4625 7.74443 17.3558V17.2061C7.74443 17.2028 7.74179 17.2002 7.73852 17.2002C7.73665 17.2002 7.73489 17.2011 7.73377 17.2026C7.65698 17.3051 7.55831 17.3844 7.43776 17.4402C7.31924 17.4936 7.1859 17.5203 7.03774 17.5203C6.87774 17.5203 6.73255 17.4906 6.60217 17.4314C6.4718 17.3721 6.36068 17.2921 6.26883 17.1913C6.17994 17.0905 6.11031 16.9735 6.05993 16.8401C6.00956 16.7038 5.98438 16.56 5.98438 16.4089C5.98438 16.2548 6.00808 16.1095 6.05549 15.9732C6.10586 15.8369 6.17549 15.7183 6.26438 15.6175C6.35624 15.5168 6.46587 15.4368 6.59328 15.3775C6.72366 15.3182 6.86885 15.2886 7.02885 15.2886C7.17997 15.2886 7.32072 15.3197 7.45109 15.3819C7.58054 15.4437 7.68369 15.5391 7.76056 15.6681C7.76159 15.6698 7.76344 15.6709 7.76544 15.6709C7.76857 15.6709 7.7711 15.6684 7.7711 15.6652V15.5109C7.7711 15.4225 7.84276 15.3508 7.93114 15.3508H8.02444ZM7.13997 15.7242C7.04219 15.7242 6.95478 15.742 6.87774 15.7776C6.80366 15.8132 6.73996 15.8621 6.68662 15.9243C6.63625 15.9836 6.59625 16.0547 6.56662 16.1377C6.53995 16.2207 6.52662 16.3096 6.52662 16.4044C6.52662 16.4904 6.53995 16.5734 6.56662 16.6534C6.59625 16.7334 6.63625 16.806 6.68662 16.8712C6.73996 16.9334 6.80366 16.9838 6.87774 17.0224C6.95478 17.0609 7.04071 17.0801 7.13553 17.0801C7.23331 17.0801 7.32072 17.0624 7.39776 17.0268C7.47776 16.9883 7.54443 16.9379 7.59776 16.8757C7.65406 16.8134 7.69703 16.7423 7.72666 16.6623C7.75629 16.5793 7.7711 16.4933 7.7711 16.4044C7.7711 16.3125 7.75629 16.2251 7.72666 16.1421C7.69703 16.0591 7.65406 15.9865 7.59776 15.9243C7.54443 15.8621 7.47924 15.8132 7.4022 15.7776C7.32516 15.742 7.23775 15.7242 7.13997 15.7242Z" fill="#191C1F"/>
</g>
</g>
<defs>
<clipPath id="clip0_3207_77520">
<rect width="24" height="24" fill="white"/>
</clipPath>
<clipPath id="clip1_3207_77520">
<rect width="24" height="24" fill="white"/>
</clipPath>
</defs>
</svg>
