<svg width="16" height="16" viewBox="0 0 16 16" fill="none" xmlns="http://www.w3.org/2000/svg">
<g clip-path="url(#clip0_3207_77515)">
<g clip-path="url(#clip1_3207_77515)">
<path d="M0 8C0 12.4183 3.58172 16 8 16C12.4183 16 16 12.4183 16 8C16 3.58172 12.4183 0 8 0C3.58172 0 0 3.58172 0 8Z" fill="white"/>
<path d="M4.91177 5.15918C4.72138 5.15918 4.5625 5.31938 4.5625 5.51245V8.11004C4.5625 8.29912 4.72138 8.45939 4.91177 8.45939C5.10217 8.45939 5.25705 8.29919 5.25705 8.11004V5.51245C5.25705 5.31938 5.1021 5.15918 4.91177 5.15918Z" fill="#191C1F"/>
<path d="M11.38 6.16779C11.2986 5.97079 11.1739 5.79747 11.0203 5.64248C10.8667 5.49669 10.6855 5.37458 10.4832 5.29056C10.2771 5.20654 10.0565 5.16446 9.82677 5.16446H9.1519C9.13222 5.15918 9.11383 5.15918 9.09414 5.15918C8.89327 5.15918 8.73047 5.31809 8.73047 5.51638V8.10348C8.73047 8.30048 8.88407 8.45147 9.07974 8.46067H9.82677C10.0565 8.46067 10.2771 8.41339 10.4832 8.32936C10.6841 8.24534 10.8666 8.12716 11.0203 7.98137C11.1739 7.82117 11.2986 7.65306 11.38 7.45085C11.4667 7.24865 11.5087 7.03717 11.5087 6.81264C11.5087 6.59067 11.4667 6.37006 11.38 6.16786V6.16779ZM10.5253 7.48366C10.3363 7.66882 10.0868 7.7634 9.81372 7.7634H9.42509V5.8526H9.81372C10.0868 5.8526 10.3363 5.95638 10.5253 6.13755C10.7144 6.31743 10.8142 6.55515 10.8142 6.81121C10.8142 7.06727 10.7144 7.30364 10.5253 7.48359V7.48366Z" fill="#191C1F"/>
<path d="M9.28944 4.30205L8.26402 3.2764C8.19313 3.2055 8.09858 3.17134 8.00538 3.17398C7.91218 3.17134 7.81762 3.20415 7.74674 3.2764L6.72132 4.30205C6.58476 4.43864 6.58476 4.65925 6.72132 4.79584C6.85787 4.93242 7.07843 4.93242 7.21499 4.79584L7.67843 4.33229V7.12032L6.44293 5.33298C6.38124 5.22528 6.26701 5.15439 6.13573 5.15439C5.94141 5.15439 5.78125 5.31458 5.78125 5.50766V8.10261C5.78125 8.29568 5.94141 8.45588 6.13573 8.45588C6.33004 8.45588 6.4902 8.29568 6.4902 8.10261V6.49523L7.74539 8.30096C7.74539 8.30489 7.74539 8.31016 7.75066 8.31544C7.82154 8.40474 7.92138 8.45731 8.03426 8.45731C8.22858 8.45731 8.38481 8.29711 8.38481 8.10403V4.38607L8.79577 4.79712C8.93232 4.93371 9.15288 4.93371 9.28944 4.79712C9.426 4.66053 9.426 4.43857 9.28944 4.30205Z" fill="#191C1F"/>
<path d="M4.91177 5.15918C4.72138 5.15918 4.5625 5.31938 4.5625 5.51245V8.11004C4.5625 8.29912 4.72138 8.45939 4.91177 8.45939C5.10217 8.45939 5.25705 8.29919 5.25705 8.11004V5.51245C5.25705 5.31938 5.1021 5.15918 4.91177 5.15918Z" fill="#191C1F"/>
<path d="M11.38 6.16779C11.2986 5.97079 11.1739 5.79747 11.0203 5.64248C10.8667 5.49669 10.6855 5.37458 10.4832 5.29056C10.2771 5.20654 10.0565 5.16446 9.82677 5.16446H9.1519C9.13222 5.15918 9.11383 5.15918 9.09414 5.15918C8.89327 5.15918 8.73047 5.31809 8.73047 5.51638V8.10348C8.73047 8.30048 8.88407 8.45147 9.07974 8.46067H9.82677C10.0565 8.46067 10.2771 8.41339 10.4832 8.32936C10.6841 8.24534 10.8666 8.12716 11.0203 7.98137C11.1739 7.82117 11.2986 7.65306 11.38 7.45085C11.4667 7.24865 11.5087 7.03717 11.5087 6.81264C11.5087 6.59067 11.4667 6.37006 11.38 6.16786V6.16779ZM10.5253 7.48366C10.3363 7.66882 10.0868 7.7634 9.81372 7.7634H9.42509V5.8526H9.81372C10.0868 5.8526 10.3363 5.95638 10.5253 6.13755C10.7144 6.31743 10.8142 6.55515 10.8142 6.81121C10.8142 7.06727 10.7144 7.30364 10.5253 7.48359V7.48366Z" fill="#191C1F"/>
<path d="M9.28944 4.30205L8.26402 3.2764C8.19313 3.2055 8.09858 3.17134 8.00538 3.17398C7.91218 3.17134 7.81762 3.20415 7.74674 3.2764L6.72132 4.30205C6.58476 4.43864 6.58476 4.65925 6.72132 4.79584C6.85787 4.93242 7.07843 4.93242 7.21499 4.79584L7.67843 4.33229V7.12032L6.44293 5.33298C6.38124 5.22528 6.26701 5.15439 6.13573 5.15439C5.94141 5.15439 5.78125 5.31458 5.78125 5.50766V8.10261C5.78125 8.29568 5.94141 8.45588 6.13573 8.45588C6.33004 8.45588 6.4902 8.29568 6.4902 8.10261V6.49523L7.74539 8.30096C7.74539 8.30489 7.74539 8.31016 7.75066 8.31544C7.82154 8.40474 7.92138 8.45731 8.03426 8.45731C8.22858 8.45731 8.38481 8.29711 8.38481 8.10403V4.38607L8.79577 4.79712C8.93232 4.93371 9.15288 4.93371 9.28944 4.79712C9.426 4.66053 9.426 4.43857 9.28944 4.30205Z" fill="#191C1F"/>
<path d="M11.0078 9.01914C11.0078 8.93522 11.0758 8.86719 11.1598 8.86719C11.2437 8.86719 11.3117 8.93522 11.3117 9.01914V10.53C11.3117 10.6139 11.2437 10.6819 11.1598 10.6819C11.0758 10.6819 11.0078 10.6139 11.0078 10.53V9.01914Z" fill="#191C1F"/>
<path d="M10.4658 10.5411C10.4658 10.5384 10.4636 10.5363 10.461 10.5363C10.4593 10.5363 10.4577 10.5372 10.4568 10.5387C10.4263 10.5917 10.3778 10.6356 10.3113 10.6705C10.2438 10.7043 10.167 10.7212 10.0809 10.7212C10.0319 10.7212 9.9804 10.7144 9.92637 10.7009C9.87403 10.6891 9.82507 10.6688 9.77948 10.6401C9.73559 10.6097 9.69844 10.5709 9.66805 10.5236C9.63935 10.4746 9.625 10.4147 9.625 10.3438C9.625 10.2526 9.65033 10.18 9.70098 10.1259C9.75331 10.0719 9.82 10.0305 9.90104 10.0018C9.98209 9.97309 10.0716 9.95451 10.1695 9.94607C10.2585 9.93702 10.3454 9.93201 10.4303 9.93105C10.4471 9.93085 10.4607 9.91726 10.4607 9.90047C10.4607 9.82448 10.4329 9.76875 10.3772 9.73329C10.3231 9.69614 10.2581 9.67756 10.1822 9.67756C10.118 9.67756 10.0564 9.69107 9.99728 9.71809C9.982 9.72508 9.96741 9.73246 9.95348 9.74023C9.89288 9.77408 9.81191 9.77156 9.76698 9.71865C9.72582 9.67018 9.72961 9.59681 9.78267 9.56176C9.82868 9.53137 9.87827 9.50665 9.93143 9.48758C10.0226 9.4555 10.1146 9.43945 10.2075 9.43945C10.3155 9.43945 10.4042 9.45465 10.4734 9.48505C10.5443 9.51545 10.6 9.55513 10.6405 9.6041C10.6811 9.65308 10.7089 9.70796 10.7241 9.76875C10.741 9.82955 10.7494 9.89034 10.7494 9.95114V10.549C10.7494 10.6273 10.6859 10.6908 10.6076 10.6908H10.5431C10.5004 10.6908 10.4658 10.6562 10.4658 10.6135V10.5411ZM10.4607 10.1791C10.4607 10.1553 10.4415 10.1361 10.4177 10.1361H10.3924C10.3434 10.1361 10.2919 10.1386 10.2379 10.1437C10.1838 10.147 10.134 10.1563 10.0885 10.1715C10.0429 10.185 10.0049 10.2053 9.97449 10.2323C9.9441 10.2576 9.9289 10.2931 9.9289 10.3387C9.9289 10.3674 9.93481 10.3919 9.94663 10.4122C9.96014 10.4307 9.97702 10.4459 9.99728 10.4578C10.0175 10.4696 10.0403 10.478 10.0657 10.4831C10.091 10.4882 10.1163 10.4907 10.1416 10.4907C10.2463 10.4907 10.3257 10.4628 10.3797 10.4071C10.4337 10.3514 10.4607 10.2754 10.4607 10.1791Z" fill="#191C1F"/>
<path d="M8.35898 8.86719C8.4429 8.86719 8.51093 8.93522 8.51093 9.01914V9.61551C8.51093 9.61831 8.5132 9.62057 8.516 9.62057C8.51759 9.62057 8.51909 9.61982 8.52006 9.61855C8.53502 9.59891 8.55393 9.57847 8.57678 9.55725C8.60042 9.53529 8.62827 9.51503 8.66035 9.49645C8.69412 9.47788 8.73295 9.46268 8.77685 9.45086C8.82074 9.43735 8.87055 9.43059 8.92627 9.43059C9.01237 9.43059 9.09172 9.44748 9.16432 9.48125C9.23692 9.51334 9.29939 9.55809 9.35173 9.61551C9.40407 9.67292 9.44459 9.74047 9.47329 9.81815C9.50199 9.89584 9.51634 9.97943 9.51634 10.0689C9.51634 10.1584 9.50199 10.2429 9.47329 10.3222C9.44628 10.3999 9.4066 10.4683 9.35426 10.5274C9.30361 10.5848 9.24114 10.6313 9.16686 10.6667C9.09426 10.7005 9.01153 10.7174 8.91867 10.7174C8.83256 10.7174 8.75152 10.6988 8.67555 10.6617C8.60181 10.6248 8.54388 10.5713 8.50175 10.5011C8.50116 10.5002 8.50011 10.4996 8.49897 10.4996C8.49718 10.4996 8.49574 10.501 8.49574 10.5028V10.5907C8.49574 10.6411 8.45491 10.6819 8.40455 10.6819H8.35138C8.27166 10.6819 8.20703 10.6173 8.20703 10.5376V9.01914C8.20703 8.93522 8.27506 8.86719 8.35898 8.86719ZM9.20738 10.0689C9.20738 10.0216 9.19978 9.97521 9.18458 9.92961C9.17108 9.88233 9.14997 9.84011 9.12127 9.80296C9.09257 9.7658 9.05627 9.73625 9.01237 9.7143C8.96848 9.69065 8.91698 9.67883 8.85789 9.67883C8.80217 9.67883 8.75237 9.69065 8.70847 9.7143C8.66457 9.73794 8.62659 9.76834 8.59451 9.80549C8.56412 9.84264 8.54048 9.88486 8.5236 9.93214C8.5084 9.97943 8.5008 10.0267 8.5008 10.074C8.5008 10.1213 8.5084 10.1686 8.5236 10.2158C8.54048 10.2614 8.56412 10.3028 8.59451 10.34C8.62659 10.3771 8.66457 10.4075 8.70847 10.4312C8.75237 10.4531 8.80217 10.4641 8.85789 10.4641C8.91698 10.4641 8.96848 10.4523 9.01237 10.4286C9.05627 10.405 9.09257 10.3746 9.12127 10.3374C9.14997 10.3003 9.17108 10.2581 9.18458 10.2108C9.19978 10.1635 9.20738 10.1162 9.20738 10.0689Z" fill="#191C1F"/>
<path d="M6.6875 10.0778C6.6875 9.98153 6.70438 9.89456 6.73815 9.81688C6.77361 9.73751 6.82088 9.66996 6.87997 9.61424C6.93906 9.55851 7.00913 9.51545 7.09017 9.48505C7.17121 9.45465 7.25732 9.43945 7.34849 9.43945C7.43966 9.43945 7.52576 9.45465 7.6068 9.48505C7.68784 9.51545 7.75791 9.55851 7.817 9.61424C7.8761 9.66996 7.92252 9.73751 7.95629 9.81688C7.99175 9.89456 8.00947 9.98153 8.00947 10.0778C8.00947 10.174 7.99175 10.2619 7.95629 10.3412C7.92252 10.4206 7.8761 10.489 7.817 10.5464C7.75791 10.6021 7.68784 10.646 7.6068 10.6781C7.52576 10.7102 7.43966 10.7263 7.34849 10.7263C7.25732 10.7263 7.17121 10.7102 7.09017 10.6781C7.00913 10.646 6.93906 10.6021 6.87997 10.5464C6.82088 10.489 6.77361 10.4206 6.73815 10.3412C6.70438 10.2619 6.6875 10.174 6.6875 10.0778ZM6.99647 10.0778C6.99647 10.1251 7.00322 10.1724 7.01673 10.2196C7.03192 10.2669 7.05387 10.3091 7.08257 10.3463C7.11127 10.3835 7.14757 10.4138 7.19147 10.4375C7.23537 10.4611 7.28771 10.473 7.34849 10.473C7.40927 10.473 7.46161 10.4611 7.5055 10.4375C7.5494 10.4138 7.5857 10.3835 7.6144 10.3463C7.6431 10.3091 7.66421 10.2669 7.67771 10.2196C7.69291 10.1724 7.70051 10.1251 7.70051 10.0778C7.70051 10.0305 7.69291 9.98407 7.67771 9.93847C7.66421 9.89119 7.6431 9.84897 7.6144 9.81182C7.5857 9.77467 7.5494 9.74511 7.5055 9.72316C7.46161 9.69952 7.40927 9.6877 7.34849 9.6877C7.28771 9.6877 7.23537 9.69952 7.19147 9.72316C7.14757 9.74511 7.11127 9.77467 7.08257 9.81182C7.05387 9.84897 7.03192 9.89119 7.01673 9.93847C7.00322 9.98407 6.99647 10.0305 6.99647 10.0778Z" fill="#191C1F"/>
<path d="M6.18359 9.01914C6.18359 8.93522 6.25162 8.86719 6.33554 8.86719C6.41947 8.86719 6.4875 8.93522 6.4875 9.01914V10.53C6.4875 10.6139 6.41947 10.6819 6.33554 10.6819C6.25162 10.6819 6.18359 10.6139 6.18359 10.53V9.01914Z" fill="#191C1F"/>
<path d="M5.7718 9.47492C5.85153 9.47492 5.91615 9.53955 5.91615 9.61927V10.5819C5.91615 10.6916 5.90265 10.7904 5.87563 10.8782C5.84862 10.9677 5.80641 11.0429 5.74901 11.1037C5.69329 11.1662 5.62238 11.2143 5.53628 11.2481C5.45017 11.2819 5.34803 11.2987 5.22984 11.2987C5.18088 11.2987 5.12854 11.2945 5.07283 11.2861C5.0188 11.2776 4.96477 11.265 4.91074 11.2481C4.85841 11.2312 4.80776 11.2101 4.75879 11.1848C4.75179 11.1811 4.74489 11.1774 4.7381 11.1737C4.67229 11.1373 4.66223 11.0513 4.70704 10.9909C4.75749 10.9228 4.85576 10.916 4.93012 10.9565C4.95321 10.9691 4.97714 10.9801 5.00192 10.9897C5.0762 11.0201 5.15133 11.0353 5.22731 11.0353C5.29991 11.0353 5.36069 11.0243 5.40965 11.0024C5.4603 10.9821 5.49998 10.9534 5.52868 10.9162C5.55907 10.8791 5.58017 10.8352 5.59199 10.7845C5.6055 10.7339 5.61225 10.6781 5.61225 10.6173V10.5321C5.61225 10.5302 5.61074 10.5287 5.60888 10.5287C5.60782 10.5287 5.60681 10.5292 5.60617 10.53C5.56242 10.5885 5.5062 10.6336 5.43751 10.6655C5.36997 10.6959 5.294 10.7111 5.20958 10.7111C5.11841 10.7111 5.03568 10.6942 4.9614 10.6604C4.88711 10.6266 4.82379 10.581 4.77146 10.5236C4.72081 10.4662 4.68113 10.3995 4.65243 10.3235C4.62373 10.2458 4.60938 10.1639 4.60938 10.0778C4.60938 9.98998 4.62288 9.90723 4.6499 9.82955C4.6786 9.75187 4.71827 9.68432 4.76892 9.6269C4.82126 9.56948 4.88373 9.52389 4.95633 9.49011C5.03062 9.45634 5.11335 9.43945 5.20452 9.43945C5.29062 9.43945 5.37082 9.45718 5.44511 9.49265C5.51886 9.52786 5.57764 9.58221 5.62144 9.65571C5.62202 9.65669 5.62308 9.6573 5.62422 9.6573C5.626 9.6573 5.62745 9.65585 5.62745 9.65407V9.56611C5.62745 9.51574 5.66828 9.47492 5.71864 9.47492H5.7718ZM5.26783 9.6877C5.21211 9.6877 5.16231 9.69783 5.11841 9.71809C5.0762 9.73836 5.0399 9.76622 5.00951 9.80168C4.98081 9.83546 4.95802 9.87599 4.94113 9.92327C4.92594 9.97056 4.91834 10.0212 4.91834 10.0753C4.91834 10.1242 4.92594 10.1715 4.94113 10.2171C4.95802 10.2627 4.98081 10.3041 5.00951 10.3412C5.0399 10.3767 5.0762 10.4054 5.11841 10.4274C5.16231 10.4493 5.21127 10.4603 5.2653 10.4603C5.32101 10.4603 5.37082 10.4502 5.41472 10.4299C5.4603 10.4079 5.49829 10.3792 5.52868 10.3438C5.56076 10.3083 5.58524 10.2678 5.60212 10.2222C5.61901 10.1749 5.62745 10.1259 5.62745 10.0753C5.62745 10.0229 5.61901 9.97309 5.60212 9.92581C5.58524 9.87852 5.56076 9.83715 5.52868 9.80168C5.49829 9.76622 5.46115 9.73836 5.41725 9.71809C5.37335 9.69783 5.32355 9.6877 5.26783 9.6877Z" fill="#191C1F"/>
<path d="M5.14996 12.1659C5.14996 12.0557 5.08198 11.9657 4.96195 11.9657C4.85043 11.9657 4.77076 12.0525 4.77076 12.1659C4.77076 12.2792 4.85043 12.365 4.96195 12.365C5.08198 12.365 5.14996 12.2761 5.14996 12.1659ZM4.70703 12.382V11.6447C4.70703 11.6108 4.73146 11.6055 4.74315 11.6055C4.75483 11.6055 4.77926 11.6108 4.77926 11.6447V12.0038H4.78138C4.82387 11.9392 4.89822 11.9053 4.96939 11.9053C5.12447 11.9053 5.22644 12.0197 5.22644 12.1659C5.22644 12.3121 5.12447 12.4265 4.96939 12.4265C4.89822 12.4265 4.82387 12.3926 4.78138 12.3301H4.77926V12.382C4.77926 12.4159 4.75483 12.4212 4.74315 12.4212C4.73146 12.4212 4.70703 12.4159 4.70703 12.382Z" fill="#191C1F"/>
<path d="M5.77422 11.9635L5.53948 12.542C5.50868 12.6182 5.46938 12.668 5.38334 12.668C5.37059 12.668 5.35254 12.667 5.34085 12.6638C5.3228 12.6585 5.3143 12.6468 5.3143 12.632C5.3143 12.615 5.32704 12.6013 5.3451 12.6013C5.35041 12.6013 5.35572 12.6023 5.3621 12.6034C5.37059 12.6045 5.37484 12.6045 5.38015 12.6045C5.42795 12.6045 5.45344 12.5727 5.47469 12.5165L5.51505 12.4127L5.31748 11.9657C5.3143 11.9572 5.31324 11.9508 5.31324 11.9455C5.31324 11.9254 5.33023 11.9106 5.35041 11.9106C5.3621 11.9106 5.37697 11.9148 5.38653 11.9392L5.55223 12.3364H5.55435L5.70624 11.9392C5.71474 11.9159 5.72961 11.9106 5.74129 11.9106C5.76254 11.9106 5.77847 11.9254 5.77847 11.9445C5.77847 11.9487 5.77741 11.9551 5.77422 11.9635Z" fill="#191C1F"/>
<path d="M6.28649 11.7294V12.3481C6.28649 12.4117 6.24188 12.4233 6.21957 12.4233C6.19727 12.4233 6.15265 12.4117 6.15265 12.3481V11.7294C6.15265 11.6659 6.19727 11.6542 6.21957 11.6542C6.24188 11.6542 6.28649 11.6659 6.28649 11.7294Z" fill="#191C1F"/>
<path d="M6.93784 12.3619L6.58839 11.8809H6.58626V12.3481C6.58626 12.4117 6.54165 12.4233 6.51935 12.4233C6.49704 12.4233 6.45243 12.4117 6.45243 12.3481V11.7517C6.45243 11.669 6.50979 11.6542 6.53634 11.6542C6.56608 11.6542 6.59476 11.6669 6.62981 11.7156L6.97927 12.1955H6.98139V11.7294C6.98139 11.6659 7.026 11.6542 7.04831 11.6542C7.07062 11.6542 7.11523 11.6659 7.11523 11.7294V12.3258C7.11523 12.4085 7.05787 12.4233 7.03132 12.4233C7.00051 12.4233 6.97396 12.4106 6.93784 12.3619Z" fill="#191C1F"/>
<path d="M7.54782 12.4138H7.36088C7.30671 12.4138 7.28122 12.3883 7.28122 12.3343V11.7432C7.28122 11.6892 7.30671 11.6637 7.36088 11.6637H7.54782C7.74433 11.6637 7.96314 11.757 7.96314 12.0388C7.96314 12.3015 7.74433 12.4138 7.54782 12.4138ZM7.41505 11.7781V12.2972H7.52658C7.66466 12.2972 7.81974 12.2411 7.81974 12.0388C7.81974 11.8237 7.66466 11.7781 7.52658 11.7781H7.41505Z" fill="#191C1F"/>
<path d="M8.086 12.3523V11.9625C8.086 11.9053 8.12742 11.8957 8.14654 11.8957C8.16566 11.8957 8.20709 11.9053 8.20709 11.9625V11.9868H8.20921C8.23152 11.9371 8.28569 11.8904 8.36748 11.8904C8.44608 11.8904 8.49812 11.9296 8.5268 11.9868C8.56079 11.9254 8.61815 11.8904 8.69463 11.8904C8.8274 11.8904 8.88263 11.9921 8.88263 12.096V12.3523C8.88263 12.4127 8.84015 12.4233 8.8189 12.4233C8.79766 12.4233 8.75517 12.4127 8.75517 12.3523V12.132C8.75517 12.0716 8.74136 11.9964 8.65958 11.9964C8.57991 11.9964 8.54698 12.0705 8.54698 12.1362V12.3523C8.54698 12.4127 8.5045 12.4233 8.48325 12.4233C8.46201 12.4233 8.41952 12.4127 8.41952 12.3523V12.1066C8.41952 12.044 8.38978 11.9964 8.32499 11.9964C8.24851 11.9964 8.21346 12.0663 8.21346 12.1341V12.3523C8.21346 12.4127 8.17097 12.4233 8.14973 12.4233C8.12849 12.4233 8.086 12.4127 8.086 12.3523Z" fill="#191C1F"/>
<path d="M9.55568 12.1574C9.55568 12.3174 9.43247 12.4286 9.27845 12.4286C9.12444 12.4286 9.00122 12.3174 9.00122 12.1574C9.00122 11.9974 9.12444 11.8904 9.27845 11.8904C9.43247 11.8904 9.55568 11.9974 9.55568 12.1574ZM9.42609 12.1574C9.42609 12.0779 9.37936 11.9943 9.27845 11.9943C9.17754 11.9943 9.13081 12.0779 9.13081 12.1574C9.13081 12.2369 9.17754 12.3227 9.27845 12.3227C9.37936 12.3227 9.42609 12.2369 9.42609 12.1574Z" fill="#191C1F"/>
<path d="M9.67927 12.3523V11.9625C9.67927 11.9053 9.72069 11.8957 9.73981 11.8957C9.75893 11.8957 9.80035 11.9053 9.80035 11.9625V11.9868H9.80248C9.82478 11.936 9.88533 11.8904 9.96074 11.8904C10.0935 11.8904 10.1487 11.9921 10.1487 12.096V12.3523C10.1487 12.4127 10.1063 12.4233 10.085 12.4233C10.0638 12.4233 10.0213 12.4127 10.0213 12.3523V12.132C10.0213 12.0716 10.0075 11.9964 9.92569 11.9964C9.84496 11.9964 9.80673 12.0663 9.80673 12.1341V12.3523C9.80673 12.4127 9.76424 12.4233 9.743 12.4233C9.72175 12.4233 9.67927 12.4127 9.67927 12.3523Z" fill="#191C1F"/>
<path d="M10.716 12.1998H10.3952C10.4005 12.2718 10.4664 12.3248 10.5407 12.3248C10.5938 12.3248 10.6257 12.3078 10.6576 12.2813C10.6756 12.2665 10.6873 12.2633 10.7011 12.2633C10.7298 12.2633 10.7521 12.2835 10.7521 12.3142C10.7521 12.3248 10.7478 12.3439 10.7309 12.3597C10.6809 12.4074 10.6236 12.4286 10.5418 12.4286C10.3846 12.4286 10.2677 12.328 10.2677 12.1627C10.2677 11.9985 10.3835 11.8904 10.5375 11.8904C10.6608 11.8904 10.7606 11.9604 10.7808 12.1097C10.7818 12.1203 10.7829 12.1277 10.7829 12.1362C10.7829 12.1807 10.7585 12.1998 10.716 12.1998ZM10.3952 12.1087H10.6565C10.6565 12.043 10.6193 11.9858 10.5365 11.9858C10.4611 11.9858 10.4005 12.0377 10.3952 12.1087Z" fill="#191C1F"/>
<path d="M11.3535 11.9879L11.1347 12.5229C11.0965 12.6161 11.0508 12.668 10.9414 12.668C10.8872 12.668 10.8713 12.6362 10.8713 12.6108C10.8713 12.5854 10.8883 12.5631 10.9138 12.5589C10.9202 12.5578 10.9255 12.5578 10.934 12.5578C10.968 12.5578 11.0009 12.5367 11.0242 12.4784L11.0497 12.4138L10.8575 11.9921C10.8511 11.9773 10.849 11.9635 10.849 11.9551C10.849 11.9222 10.8755 11.8957 10.9127 11.8957C10.935 11.8957 10.9595 11.9053 10.9764 11.9455L11.1145 12.275H11.1167L11.2356 11.9487C11.2516 11.9053 11.277 11.8957 11.2983 11.8957C11.3344 11.8957 11.361 11.919 11.361 11.9529C11.361 11.9604 11.3599 11.971 11.3535 11.9879Z" fill="#191C1F"/>
</g>
</g>
<defs>
<clipPath id="clip0_3207_77515">
<rect width="16" height="16" fill="white"/>
</clipPath>
<clipPath id="clip1_3207_77515">
<rect width="16" height="16" fill="white"/>
</clipPath>
</defs>
</svg>
