<svg width="16" height="16" viewBox="0 0 16 16" fill="none" xmlns="http://www.w3.org/2000/svg">
<g clip-path="url(#clip0_3207_77522)">
<g clip-path="url(#clip1_3207_77522)">
<path d="M0 8C0 12.4183 3.58172 16 8 16C12.4183 16 16 12.4183 16 8C16 3.58172 12.4183 0 8 0C3.58172 0 0 3.58172 0 8Z" fill="white"/>
<path d="M4.34615 5.19336C4.12339 5.19336 3.9375 5.38079 3.9375 5.60669V8.64589C3.9375 8.86711 4.12339 9.05463 4.34615 9.05463C4.56891 9.05463 4.75013 8.8672 4.75013 8.64589V5.60669C4.75013 5.38079 4.56883 5.19336 4.34615 5.19336Z" fill="#191C1F"/>
<path d="M11.9125 6.37344C11.8172 6.14295 11.6713 5.94016 11.4916 5.75882C11.3119 5.58825 11.0999 5.44538 10.8633 5.34708C10.6221 5.24877 10.364 5.19953 10.0952 5.19953H9.30558C9.28256 5.19336 9.26103 5.19336 9.238 5.19336C9.00298 5.19336 8.8125 5.37929 8.8125 5.61128V8.63821C8.8125 8.8687 8.99221 9.04536 9.22115 9.05613H10.0952C10.364 9.05613 10.6221 9.0008 10.8633 8.9025C11.0983 8.80419 11.3118 8.66591 11.4916 8.49534C11.6713 8.30791 11.8172 8.11122 11.9125 7.87463C12.0139 7.63805 12.063 7.39062 12.063 7.12792C12.063 6.86822 12.0139 6.6101 11.9125 6.37352V6.37344ZM10.9125 7.91302C10.6913 8.12966 10.3994 8.24031 10.0799 8.24031H9.62521V6.00467H10.0799C10.3995 6.00467 10.6913 6.12609 10.9125 6.33805C11.1337 6.54852 11.2505 6.82666 11.2505 7.12625C11.2505 7.42583 11.1337 7.70239 10.9125 7.91294V7.91302Z" fill="#191C1F"/>
<path d="M9.46789 4.19698L8.26813 2.99696C8.1852 2.91401 8.07457 2.87404 7.96553 2.87713C7.85648 2.87404 7.74585 2.91242 7.66292 2.99696L6.46317 4.19698C6.30339 4.35679 6.30339 4.6149 6.46317 4.77471C6.62294 4.93452 6.88099 4.93452 7.04077 4.77471L7.58299 4.23237V7.49437L6.13745 5.40318C6.06528 5.27717 5.93162 5.19422 5.77802 5.19422C5.55067 5.19422 5.36328 5.38165 5.36328 5.60755V8.64366C5.36328 8.86956 5.55067 9.05699 5.77802 9.05699C6.00537 9.05699 6.19276 8.86956 6.19276 8.64366V6.76301L7.66133 8.87573C7.66133 8.88032 7.66133 8.8865 7.66751 8.89267C7.75044 8.99716 7.86724 9.05866 7.99932 9.05866C8.22667 9.05866 8.40947 8.87123 8.40947 8.64533V4.29529L8.89029 4.77621C9.05006 4.93602 9.30811 4.93602 9.46789 4.77621C9.62766 4.61641 9.62766 4.35671 9.46789 4.19698Z" fill="#191C1F"/>
<path d="M4.34615 5.19336C4.12339 5.19336 3.9375 5.38079 3.9375 5.60669V8.64589C3.9375 8.86711 4.12339 9.05463 4.34615 9.05463C4.56891 9.05463 4.75013 8.8672 4.75013 8.64589V5.60669C4.75013 5.38079 4.56883 5.19336 4.34615 5.19336Z" fill="#191C1F"/>
<path d="M11.9125 6.37344C11.8172 6.14295 11.6713 5.94016 11.4916 5.75882C11.3119 5.58825 11.0999 5.44538 10.8633 5.34708C10.6221 5.24877 10.364 5.19953 10.0952 5.19953H9.30558C9.28256 5.19336 9.26103 5.19336 9.238 5.19336C9.00298 5.19336 8.8125 5.37929 8.8125 5.61128V8.63821C8.8125 8.8687 8.99221 9.04536 9.22115 9.05613H10.0952C10.364 9.05613 10.6221 9.0008 10.8633 8.9025C11.0983 8.80419 11.3118 8.66591 11.4916 8.49534C11.6713 8.30791 11.8172 8.11122 11.9125 7.87463C12.0139 7.63805 12.063 7.39062 12.063 7.12792C12.063 6.86822 12.0139 6.6101 11.9125 6.37352V6.37344ZM10.9125 7.91302C10.6913 8.12966 10.3994 8.24031 10.0799 8.24031H9.62521V6.00467H10.0799C10.3995 6.00467 10.6913 6.12609 10.9125 6.33805C11.1337 6.54852 11.2505 6.82666 11.2505 7.12625C11.2505 7.42583 11.1337 7.70239 10.9125 7.91294V7.91302Z" fill="#191C1F"/>
<path d="M9.46789 4.19698L8.26813 2.99696C8.1852 2.91401 8.07457 2.87404 7.96553 2.87713C7.85648 2.87404 7.74585 2.91242 7.66292 2.99696L6.46317 4.19698C6.30339 4.35679 6.30339 4.6149 6.46317 4.77471C6.62294 4.93452 6.88099 4.93452 7.04077 4.77471L7.58299 4.23237V7.49437L6.13745 5.40318C6.06528 5.27717 5.93162 5.19422 5.77802 5.19422C5.55067 5.19422 5.36328 5.38165 5.36328 5.60755V8.64366C5.36328 8.86956 5.55067 9.05699 5.77802 9.05699C6.00537 9.05699 6.19276 8.86956 6.19276 8.64366V6.76301L7.66133 8.87573C7.66133 8.88032 7.66133 8.8865 7.66751 8.89267C7.75044 8.99716 7.86724 9.05866 7.99932 9.05866C8.22667 9.05866 8.40947 8.87123 8.40947 8.64533V4.29529L8.89029 4.77621C9.05006 4.93602 9.30811 4.93602 9.46789 4.77621C9.62766 4.61641 9.62766 4.35671 9.46789 4.19698Z" fill="#191C1F"/>
<path d="M11.4766 9.71489C11.4766 9.61671 11.5562 9.53711 11.6543 9.53711C11.7525 9.53711 11.8321 9.61671 11.8321 9.71489V11.4826C11.8321 11.5808 11.7525 11.6604 11.6543 11.6604C11.5562 11.6604 11.4766 11.5808 11.4766 11.4826V9.71489Z" fill="#191C1F"/>
<path d="M10.8431 11.4813C10.8431 11.4782 10.8406 11.4757 10.8375 11.4757C10.8355 11.4757 10.8336 11.4768 10.8326 11.4785C10.7969 11.5405 10.7402 11.5919 10.6624 11.6328C10.5834 11.6723 10.4935 11.692 10.3927 11.692C10.3354 11.692 10.2752 11.6841 10.212 11.6683C10.1507 11.6545 10.0935 11.6308 10.0401 11.5972C9.98876 11.5616 9.9453 11.5162 9.90975 11.4609C9.87617 11.4036 9.85938 11.3334 9.85938 11.2504C9.85938 11.1437 9.88901 11.0588 9.94827 10.9956C10.0095 10.9323 10.0875 10.8839 10.1823 10.8503C10.2772 10.8167 10.3819 10.795 10.4964 10.7851C10.6005 10.7745 10.7023 10.7687 10.8016 10.7675C10.8213 10.7673 10.8372 10.7514 10.8372 10.7318C10.8372 10.6429 10.8046 10.5777 10.7394 10.5362C10.6762 10.4927 10.6001 10.471 10.5112 10.471C10.4362 10.471 10.3641 10.4868 10.2949 10.5184C10.2771 10.5266 10.26 10.5352 10.2437 10.5443C10.1728 10.5839 10.0781 10.5809 10.0255 10.519C9.97734 10.4623 9.98177 10.3765 10.0438 10.3355C10.0977 10.2999 10.1557 10.271 10.2179 10.2487C10.3246 10.2112 10.4322 10.1924 10.5409 10.1924C10.6673 10.1924 10.771 10.2102 10.852 10.2457C10.935 10.2813 11.0002 10.3277 11.0476 10.385C11.095 10.4423 11.1276 10.5065 11.1453 10.5777C11.1651 10.6488 11.175 10.7199 11.175 10.7911V11.4905C11.175 11.5822 11.1007 11.6565 11.009 11.6565H10.9335C10.8836 11.6565 10.8431 11.616 10.8431 11.5661V11.4813ZM10.8372 11.0578C10.8372 11.03 10.8146 11.0074 10.7868 11.0074H10.7572C10.6999 11.0074 10.6396 11.0104 10.5764 11.0163C10.5132 11.0203 10.455 11.0311 10.4016 11.0489C10.3483 11.0647 10.3038 11.0884 10.2683 11.12C10.2327 11.1497 10.2149 11.1912 10.2149 11.2445C10.2149 11.2781 10.2219 11.3067 10.2357 11.3305C10.2515 11.3522 10.2712 11.37 10.2949 11.3838C10.3187 11.3976 10.3453 11.4075 10.3749 11.4134C10.4046 11.4194 10.4342 11.4223 10.4638 11.4223C10.5863 11.4223 10.6792 11.3897 10.7424 11.3245C10.8056 11.2593 10.8372 11.1704 10.8372 11.0578Z" fill="#191C1F"/>
<path d="M8.38091 9.53711C8.4791 9.53711 8.55869 9.61671 8.55869 9.71489V10.4126C8.55869 10.4159 8.56135 10.4186 8.56462 10.4186C8.56648 10.4186 8.56824 10.4177 8.56937 10.4162C8.58687 10.3932 8.60899 10.3693 8.63573 10.3445C8.66339 10.3188 8.69598 10.2951 8.73351 10.2734C8.77302 10.2516 8.81845 10.2338 8.86981 10.22C8.92117 10.2042 8.97945 10.1963 9.04464 10.1963C9.14538 10.1963 9.23822 10.2161 9.32316 10.2556C9.4081 10.2931 9.48119 10.3455 9.54243 10.4126C9.60367 10.4798 9.65108 10.5589 9.68466 10.6497C9.71824 10.7406 9.73503 10.8384 9.73503 10.9432C9.73503 11.0479 9.71824 11.1467 9.68466 11.2395C9.65305 11.3304 9.60663 11.4104 9.54539 11.4796C9.48613 11.5468 9.41304 11.6011 9.32613 11.6426C9.24118 11.6821 9.14439 11.7019 9.03575 11.7019C8.935 11.7019 8.84018 11.6801 8.75129 11.6367C8.66502 11.5935 8.59724 11.5309 8.54794 11.4488C8.54726 11.4477 8.54602 11.447 8.54469 11.447C8.54261 11.447 8.54091 11.4487 8.54091 11.4508V11.5537C8.54091 11.6126 8.49315 11.6604 8.43422 11.6604H8.37202C8.27874 11.6604 8.20312 11.5848 8.20312 11.4915V9.71489C8.20312 9.61671 8.28272 9.53711 8.38091 9.53711ZM9.37354 10.9432C9.37354 10.8878 9.36465 10.8335 9.34687 10.7802C9.33106 10.7248 9.30637 10.6754 9.27279 10.632C9.23921 10.5885 9.19674 10.5539 9.14538 10.5282C9.09402 10.5006 9.03377 10.4867 8.96463 10.4867C8.89944 10.4867 8.84117 10.5006 8.78981 10.5282C8.73845 10.5559 8.69401 10.5915 8.65647 10.6349C8.62092 10.6784 8.59326 10.7278 8.57351 10.7831C8.55573 10.8384 8.54684 10.8938 8.54684 10.9491C8.54684 11.0044 8.55573 11.0597 8.57351 11.1151C8.59326 11.1684 8.62092 11.2168 8.65647 11.2603C8.69401 11.3037 8.73845 11.3393 8.78981 11.367C8.84117 11.3927 8.89944 11.4055 8.96463 11.4055C9.03377 11.4055 9.09402 11.3917 9.14538 11.364C9.19674 11.3363 9.23921 11.3008 9.27279 11.2573C9.30637 11.2138 9.33106 11.1644 9.34687 11.1091C9.36465 11.0538 9.37354 10.9985 9.37354 10.9432Z" fill="#191C1F"/>
<path d="M6.42188 10.9392C6.42188 10.8266 6.44163 10.7249 6.48114 10.634C6.52262 10.5411 6.57793 10.4621 6.64707 10.3969C6.71621 10.3317 6.79818 10.2813 6.893 10.2457C6.98782 10.2102 7.08856 10.1924 7.19523 10.1924C7.30191 10.1924 7.40265 10.2102 7.49747 10.2457C7.59229 10.2813 7.67426 10.3317 7.7434 10.3969C7.81254 10.4621 7.86686 10.5411 7.90637 10.634C7.94785 10.7249 7.96859 10.8266 7.96859 10.9392C7.96859 11.0519 7.94785 11.1546 7.90637 11.2475C7.86686 11.3403 7.81254 11.4204 7.7434 11.4875C7.67426 11.5527 7.59229 11.6041 7.49747 11.6416C7.40265 11.6792 7.30191 11.698 7.19523 11.698C7.08856 11.698 6.98782 11.6792 6.893 11.6416C6.79818 11.6041 6.71621 11.5527 6.64707 11.4875C6.57793 11.4204 6.52262 11.3403 6.48114 11.2475C6.44163 11.1546 6.42188 11.0519 6.42188 10.9392ZM6.78337 10.9392C6.78337 10.9946 6.79127 11.0499 6.80707 11.1052C6.82485 11.1605 6.85053 11.2099 6.88411 11.2534C6.91769 11.2969 6.96017 11.3324 7.01152 11.3601C7.06288 11.3878 7.12412 11.4016 7.19523 11.4016C7.26635 11.4016 7.32758 11.3878 7.37894 11.3601C7.4303 11.3324 7.47278 11.2969 7.50636 11.2534C7.53994 11.2099 7.56463 11.1605 7.58043 11.1052C7.59821 11.0499 7.6071 10.9946 7.6071 10.9392C7.6071 10.8839 7.59821 10.8296 7.58043 10.7762C7.56463 10.7209 7.53994 10.6715 7.50636 10.6281C7.47278 10.5846 7.4303 10.55 7.37894 10.5243C7.32758 10.4967 7.26635 10.4828 7.19523 10.4828C7.12412 10.4828 7.06288 10.4967 7.01152 10.5243C6.96017 10.55 6.91769 10.5846 6.88411 10.6281C6.85053 10.6715 6.82485 10.7209 6.80707 10.7762C6.79127 10.8296 6.78337 10.8839 6.78337 10.9392Z" fill="#191C1F"/>
<path d="M5.83594 9.71489C5.83594 9.61671 5.91553 9.53711 6.01372 9.53711C6.11191 9.53711 6.19151 9.61671 6.19151 9.71489V11.4826C6.19151 11.5808 6.11191 11.6604 6.01372 11.6604C5.91553 11.6604 5.83594 11.5808 5.83594 11.4826V9.71489Z" fill="#191C1F"/>
<path d="M5.35223 10.2339C5.44551 10.2339 5.52113 10.3095 5.52113 10.4028V11.529C5.52113 11.6575 5.50533 11.773 5.47372 11.8758C5.44211 11.9805 5.39273 12.0684 5.32557 12.1396C5.26038 12.2127 5.17741 12.269 5.07667 12.3085C4.97592 12.348 4.85641 12.3678 4.71814 12.3678C4.66085 12.3678 4.59962 12.3628 4.53443 12.3529C4.47122 12.3431 4.408 12.3282 4.34479 12.3085C4.28356 12.2887 4.22429 12.264 4.16701 12.2344C4.15882 12.2302 4.15074 12.2258 4.1428 12.2214C4.0658 12.1788 4.05403 12.0782 4.10646 12.0075C4.16549 11.928 4.28046 11.9199 4.36747 11.9673C4.39448 11.982 4.42247 11.995 4.45146 12.0062C4.53838 12.0418 4.62628 12.0595 4.71518 12.0595C4.80012 12.0595 4.87123 12.0467 4.92852 12.021C4.98778 11.9973 5.0342 11.9637 5.06778 11.9202C5.10334 11.8768 5.12803 11.8254 5.14186 11.7661C5.15766 11.7068 5.16556 11.6416 5.16556 11.5705V11.4707C5.16556 11.4686 5.1638 11.4668 5.16162 11.4668C5.16037 11.4668 5.1592 11.4674 5.15845 11.4684C5.10726 11.5368 5.04148 11.5896 4.96111 11.6268C4.88209 11.6624 4.7932 11.6802 4.69443 11.6802C4.58776 11.6802 4.49097 11.6604 4.40405 11.6209C4.31714 11.5814 4.24306 11.528 4.18182 11.4609C4.12256 11.3937 4.07614 11.3156 4.04256 11.2267C4.00898 11.1358 3.99219 11.04 3.99219 10.9392C3.99219 10.8365 4.00799 10.7397 4.0396 10.6488C4.07318 10.5579 4.1196 10.4789 4.17886 10.4117C4.2401 10.3445 4.31319 10.2912 4.39813 10.2517C4.48504 10.2121 4.58184 10.1924 4.68851 10.1924C4.78925 10.1924 4.88308 10.2131 4.97 10.2546C5.0563 10.2958 5.12507 10.3594 5.17631 10.4454C5.17699 10.4466 5.17823 10.4473 5.17957 10.4473C5.18165 10.4473 5.18334 10.4456 5.18334 10.4435V10.3406C5.18334 10.2816 5.23111 10.2339 5.29003 10.2339H5.35223ZM4.76258 10.4828C4.6974 10.4828 4.63912 10.4947 4.58776 10.5184C4.53838 10.5421 4.49591 10.5747 4.46035 10.6162C4.42677 10.6557 4.4001 10.7031 4.38035 10.7585C4.36257 10.8138 4.35368 10.8731 4.35368 10.9363C4.35368 10.9936 4.36257 11.0489 4.38035 11.1022C4.4001 11.1556 4.42677 11.204 4.46035 11.2475C4.49591 11.289 4.53838 11.3226 4.58776 11.3482C4.63912 11.3739 4.69641 11.3868 4.75962 11.3868C4.82481 11.3868 4.88308 11.3749 4.93444 11.3512C4.98778 11.3255 5.03222 11.2919 5.06778 11.2504C5.10531 11.2089 5.13395 11.1615 5.15371 11.1082C5.17346 11.0529 5.18334 10.9956 5.18334 10.9363C5.18334 10.875 5.17346 10.8167 5.15371 10.7614C5.13395 10.7061 5.10531 10.6577 5.06778 10.6162C5.03222 10.5747 4.98876 10.5421 4.9374 10.5184C4.88605 10.4947 4.82777 10.4828 4.76258 10.4828Z" fill="#191C1F"/>
</g>
</g>
<defs>
<clipPath id="clip0_3207_77522">
<rect width="16" height="16" fill="white"/>
</clipPath>
<clipPath id="clip1_3207_77522">
<rect width="16" height="16" fill="white"/>
</clipPath>
</defs>
</svg>
