<svg width="24" height="24" viewBox="0 0 24 24" fill="none" xmlns="http://www.w3.org/2000/svg">
<g clip-path="url(#clip0_3207_77513)">
<g clip-path="url(#clip1_3207_77513)">
<path d="M0 12C0 18.6274 5.37258 24 12 24C18.6274 24 24 18.6274 24 12C24 5.37258 18.6274 0 12 0C5.37258 0 0 5.37258 0 12Z" fill="white"/>
<path d="M7.36766 7.729C7.08206 7.729 6.84375 7.9693 6.84375 8.25891V12.1553C6.84375 12.4389 7.08206 12.6793 7.36766 12.6793C7.65325 12.6793 7.88557 12.439 7.88557 12.1553V8.25891C7.88557 7.9693 7.65314 7.729 7.36766 7.729Z" fill="#191C1F"/>
<path d="M17.0681 9.24192C16.9459 8.94642 16.7589 8.68644 16.5285 8.45395C16.2981 8.23527 16.0263 8.05211 15.7229 7.92607C15.4137 7.80004 15.0828 7.73692 14.7382 7.73692H13.7259C13.6964 7.729 13.6688 7.729 13.6393 7.729C13.3379 7.729 13.0938 7.96737 13.0938 8.2648V12.1455C13.0938 12.441 13.3241 12.6674 13.6177 12.6812H14.7382C15.0828 12.6812 15.4137 12.6103 15.7229 12.4843C16.0242 12.3582 16.2979 12.181 16.5285 11.9623C16.7589 11.722 16.9459 11.4698 17.0681 11.1665C17.198 10.8632 17.261 10.546 17.261 10.2092C17.261 9.87624 17.198 9.54533 17.0681 9.24202V9.24192ZM15.786 11.2157C15.5025 11.4935 15.1282 11.6353 14.7186 11.6353H14.1357V8.76914H14.7186C15.1283 8.76914 15.5025 8.9248 15.786 9.19655C16.0696 9.46638 16.2193 9.82296 16.2193 10.2071C16.2193 10.5911 16.0697 10.9457 15.786 11.2156V11.2157Z" fill="#191C1F"/>
<path d="M13.9303 6.44331L12.3921 4.90483C12.2858 4.79849 12.144 4.74724 12.0042 4.7512C11.8644 4.74724 11.7225 4.79645 11.6162 4.90483L10.0781 6.44331C9.87323 6.64819 9.87323 6.97911 10.0781 7.18399C10.2829 7.38887 10.6137 7.38887 10.8186 7.18399L11.5137 6.48868V10.6707L9.66048 7.98971C9.56796 7.82816 9.3966 7.72181 9.19968 7.72181C8.90821 7.72181 8.66797 7.96211 8.66797 8.25172V12.1441C8.66797 12.4338 8.90821 12.6741 9.19968 12.6741C9.49116 12.6741 9.7314 12.4338 9.7314 12.1441V9.73307L11.6142 12.4417C11.6142 12.4476 11.6142 12.4555 11.6221 12.4634C11.7284 12.5973 11.8782 12.6762 12.0475 12.6762C12.339 12.6762 12.5733 12.4359 12.5733 12.1463V6.56934L13.1897 7.18591C13.3946 7.39079 13.7254 7.39079 13.9303 7.18591C14.1351 6.98103 14.1351 6.64809 13.9303 6.44331Z" fill="#191C1F"/>
<path d="M7.36766 7.729C7.08206 7.729 6.84375 7.9693 6.84375 8.25891V12.1553C6.84375 12.4389 7.08206 12.6793 7.36766 12.6793C7.65325 12.6793 7.88557 12.439 7.88557 12.1553V8.25891C7.88557 7.9693 7.65314 7.729 7.36766 7.729Z" fill="#191C1F"/>
<path d="M17.0681 9.24192C16.9459 8.94642 16.7589 8.68644 16.5285 8.45395C16.2981 8.23527 16.0263 8.05211 15.7229 7.92607C15.4137 7.80004 15.0828 7.73692 14.7382 7.73692H13.7259C13.6964 7.729 13.6688 7.729 13.6393 7.729C13.3379 7.729 13.0938 7.96737 13.0938 8.2648V12.1455C13.0938 12.441 13.3241 12.6674 13.6177 12.6812H14.7382C15.0828 12.6812 15.4137 12.6103 15.7229 12.4843C16.0242 12.3582 16.2979 12.181 16.5285 11.9623C16.7589 11.722 16.9459 11.4698 17.0681 11.1665C17.198 10.8632 17.261 10.546 17.261 10.2092C17.261 9.87624 17.198 9.54533 17.0681 9.24202V9.24192ZM15.786 11.2157C15.5025 11.4935 15.1282 11.6353 14.7186 11.6353H14.1357V8.76914H14.7186C15.1283 8.76914 15.5025 8.9248 15.786 9.19655C16.0696 9.46638 16.2193 9.82296 16.2193 10.2071C16.2193 10.5911 16.0697 10.9457 15.786 11.2156V11.2157Z" fill="#191C1F"/>
<path d="M13.9303 6.44331L12.3921 4.90483C12.2858 4.79849 12.144 4.74724 12.0042 4.7512C11.8644 4.74724 11.7225 4.79645 11.6162 4.90483L10.0781 6.44331C9.87323 6.64819 9.87323 6.97911 10.0781 7.18399C10.2829 7.38887 10.6137 7.38887 10.8186 7.18399L11.5137 6.48868V10.6707L9.66048 7.98971C9.56796 7.82816 9.3966 7.72181 9.19968 7.72181C8.90821 7.72181 8.66797 7.96211 8.66797 8.25172V12.1441C8.66797 12.4338 8.90821 12.6741 9.19968 12.6741C9.49116 12.6741 9.7314 12.4338 9.7314 12.1441V9.73307L11.6142 12.4417C11.6142 12.4476 11.6142 12.4555 11.6221 12.4634C11.7284 12.5973 11.8782 12.6762 12.0475 12.6762C12.339 12.6762 12.5733 12.4359 12.5733 12.1463V6.56934L13.1897 7.18591C13.3946 7.39079 13.7254 7.39079 13.9303 7.18591C14.1351 6.98103 14.1351 6.64809 13.9303 6.44331Z" fill="#191C1F"/>
<path d="M16.5117 13.5228C16.5117 13.397 16.6138 13.2949 16.7396 13.2949C16.8655 13.2949 16.9676 13.397 16.9676 13.5228V15.7891C16.9676 15.915 16.8655 16.017 16.7396 16.017C16.6138 16.017 16.5117 15.915 16.5117 15.7891V13.5228Z" fill="#191C1F"/>
<path d="M15.6987 15.8058C15.6987 15.8018 15.6955 15.7986 15.6915 15.7986C15.6889 15.7986 15.6865 15.8 15.6852 15.8022C15.6395 15.8816 15.5667 15.9475 15.467 15.9999C15.3657 16.0506 15.2504 16.0759 15.1213 16.0759C15.0478 16.0759 14.9706 16.0658 14.8896 16.0455C14.811 16.0278 14.7376 15.9974 14.6692 15.9543C14.6034 15.9087 14.5477 15.8505 14.5021 15.7796C14.459 15.7061 14.4375 15.6162 14.4375 15.5098C14.4375 15.373 14.4755 15.2641 14.5515 15.183C14.63 15.102 14.73 15.0399 14.8516 14.9968C14.9731 14.9538 15.1074 14.9259 15.2542 14.9132C15.3877 14.8997 15.5181 14.8922 15.6455 14.8907C15.6707 14.8904 15.6911 14.87 15.6911 14.8449C15.6911 14.7309 15.6493 14.6473 15.5657 14.5941C15.4847 14.5383 15.3872 14.5105 15.2732 14.5105C15.177 14.5105 15.0846 14.5308 14.9959 14.5713C14.973 14.5818 14.9511 14.5928 14.9302 14.6045C14.8393 14.6553 14.7179 14.6515 14.6505 14.5721C14.5887 14.4994 14.5944 14.3893 14.674 14.3368C14.743 14.2912 14.8174 14.2541 14.8972 14.2255C15.0339 14.1774 15.1719 14.1533 15.3112 14.1533C15.4733 14.1533 15.6063 14.1761 15.7101 14.2217C15.8165 14.2673 15.9 14.3268 15.9608 14.4003C16.0216 14.4738 16.0634 14.5561 16.0862 14.6473C16.1115 14.7385 16.1242 14.8297 16.1242 14.9208V15.8176C16.1242 15.9351 16.0289 16.0303 15.9114 16.0303H15.8146C15.7506 16.0303 15.6987 15.9785 15.6987 15.9144V15.8058ZM15.6911 15.2628C15.6911 15.2271 15.6622 15.1982 15.6265 15.1982H15.5885C15.5151 15.1982 15.4378 15.202 15.3568 15.2096C15.2758 15.2147 15.2011 15.2286 15.1327 15.2514C15.0643 15.2717 15.0073 15.3021 14.9617 15.3426C14.9161 15.3806 14.8934 15.4338 14.8934 15.5022C14.8934 15.5453 14.9022 15.582 14.9199 15.6124C14.9402 15.6402 14.9655 15.663 14.9959 15.6808C15.0263 15.6985 15.0605 15.7112 15.0985 15.7188C15.1365 15.7264 15.1745 15.7302 15.2125 15.7302C15.3695 15.7302 15.4885 15.6884 15.5695 15.6048C15.6506 15.5212 15.6911 15.4072 15.6911 15.2628Z" fill="#191C1F"/>
<path d="M12.5404 13.2949C12.6663 13.2949 12.7684 13.397 12.7684 13.5228V14.4174C12.7684 14.4216 12.7718 14.425 12.776 14.425C12.7783 14.425 12.7806 14.4239 12.782 14.422C12.8045 14.3925 12.8328 14.3618 12.8671 14.33C12.9026 14.2971 12.9444 14.2667 12.9925 14.2388C13.0431 14.211 13.1014 14.1882 13.1672 14.1704C13.2331 14.1502 13.3078 14.14 13.3914 14.14C13.5205 14.14 13.6395 14.1654 13.7484 14.216C13.8573 14.2641 13.951 14.3313 14.0295 14.4174C14.1081 14.5035 14.1688 14.6048 14.2119 14.7214C14.2549 14.8379 14.2765 14.9633 14.2765 15.0975C14.2765 15.2318 14.2549 15.3584 14.2119 15.4775C14.1714 15.594 14.1119 15.6966 14.0333 15.7853C13.9574 15.8714 13.8637 15.9411 13.7522 15.9942C13.6433 16.0449 13.5192 16.0702 13.38 16.0702C13.2508 16.0702 13.1292 16.0424 13.0153 15.9866C12.9047 15.9313 12.8178 15.8511 12.7546 15.7458C12.7537 15.7444 12.7521 15.7435 12.7504 15.7435C12.7477 15.7435 12.7456 15.7456 12.7456 15.7483V15.8803C12.7456 15.9558 12.6843 16.017 12.6088 16.017H12.529C12.4094 16.017 12.3125 15.9201 12.3125 15.8005V13.5228C12.3125 13.397 12.4145 13.2949 12.5404 13.2949ZM13.813 15.0975C13.813 15.0266 13.8016 14.9569 13.7788 14.8886C13.7586 14.8176 13.7269 14.7543 13.6839 14.6986C13.6408 14.6428 13.5864 14.5985 13.5205 14.5656C13.4547 14.5301 13.3774 14.5124 13.2888 14.5124C13.2052 14.5124 13.1305 14.5301 13.0647 14.5656C12.9988 14.601 12.9418 14.6466 12.8937 14.7024C12.8481 14.7581 12.8127 14.8214 12.7873 14.8924C12.7646 14.9633 12.7532 15.0342 12.7532 15.1051C12.7532 15.1761 12.7646 15.247 12.7873 15.3179C12.8127 15.3863 12.8481 15.4484 12.8937 15.5041C12.9418 15.5598 12.9988 15.6054 13.0647 15.6409C13.1305 15.6738 13.2052 15.6903 13.2888 15.6903C13.3774 15.6903 13.4547 15.6725 13.5205 15.6371C13.5864 15.6016 13.6408 15.556 13.6839 15.5003C13.7269 15.4446 13.7586 15.3812 13.7788 15.3103C13.8016 15.2394 13.813 15.1685 13.813 15.0975Z" fill="#191C1F"/>
<path d="M10.0312 15.1108C10.0312 14.9664 10.0566 14.836 10.1072 14.7195C10.1604 14.6004 10.2313 14.4991 10.32 14.4155C10.4086 14.3319 10.5137 14.2673 10.6353 14.2217C10.7568 14.1761 10.886 14.1533 11.0227 14.1533C11.1595 14.1533 11.2886 14.1761 11.4102 14.2217C11.5318 14.2673 11.6369 14.3319 11.7255 14.4155C11.8141 14.4991 11.8838 14.6004 11.9344 14.7195C11.9876 14.836 12.0142 14.9664 12.0142 15.1108C12.0142 15.2552 11.9876 15.3869 11.9344 15.506C11.8838 15.625 11.8141 15.7276 11.7255 15.8138C11.6369 15.8974 11.5318 15.9632 11.4102 16.0113C11.2886 16.0595 11.1595 16.0835 11.0227 16.0835C10.886 16.0835 10.7568 16.0595 10.6353 16.0113C10.5137 15.9632 10.4086 15.8974 10.32 15.8138C10.2313 15.7276 10.1604 15.625 10.1072 15.506C10.0566 15.3869 10.0312 15.2552 10.0312 15.1108ZM10.4947 15.1108C10.4947 15.1818 10.5048 15.2527 10.5251 15.3236C10.5479 15.3945 10.5808 15.4579 10.6239 15.5136C10.6669 15.5693 10.7214 15.6149 10.7872 15.6504C10.8531 15.6858 10.9316 15.7036 11.0227 15.7036C11.1139 15.7036 11.1924 15.6858 11.2583 15.6504C11.3241 15.6149 11.3786 15.5693 11.4216 15.5136C11.4647 15.4579 11.4963 15.3945 11.5166 15.3236C11.5394 15.2527 11.5508 15.1818 11.5508 15.1108C11.5508 15.0399 11.5394 14.9702 11.5166 14.9018C11.4963 14.8309 11.4647 14.7676 11.4216 14.7119C11.3786 14.6561 11.3241 14.6118 11.2583 14.5789C11.1924 14.5434 11.1139 14.5257 11.0227 14.5257C10.9316 14.5257 10.8531 14.5434 10.7872 14.5789C10.7214 14.6118 10.6669 14.6561 10.6239 14.7119C10.5808 14.7676 10.5479 14.8309 10.5251 14.9018C10.5048 14.9702 10.4947 15.0399 10.4947 15.1108Z" fill="#191C1F"/>
<path d="M9.27734 13.5228C9.27734 13.397 9.37939 13.2949 9.50527 13.2949C9.63115 13.2949 9.7332 13.397 9.7332 13.5228V15.7891C9.7332 15.915 9.63115 16.017 9.50527 16.017C9.37939 16.017 9.27734 15.915 9.27734 15.7891V13.5228Z" fill="#191C1F"/>
<path d="M8.6577 14.2065C8.77729 14.2065 8.87423 14.3035 8.87423 14.423V15.867C8.87423 16.0316 8.85397 16.1798 8.81345 16.3115C8.77293 16.4458 8.70962 16.5585 8.62351 16.6497C8.53994 16.7434 8.43357 16.8156 8.30442 16.8663C8.17526 16.9169 8.02204 16.9422 7.84476 16.9422C7.77132 16.9422 7.69281 16.9359 7.60924 16.9233C7.5282 16.9106 7.44716 16.8916 7.36612 16.8663C7.28761 16.8409 7.21163 16.8093 7.13819 16.7713C7.12769 16.7658 7.11734 16.7603 7.10715 16.7547C7.00844 16.7 6.99335 16.571 7.06056 16.4804C7.13624 16.3784 7.28365 16.3681 7.39519 16.4288C7.42981 16.4477 7.46571 16.4643 7.50287 16.4787C7.6143 16.5243 7.727 16.5471 7.84096 16.5471C7.94986 16.5471 8.04103 16.5306 8.11448 16.4977C8.19045 16.4673 8.24997 16.4242 8.29302 16.3685C8.3386 16.3128 8.37026 16.2469 8.38799 16.1709C8.40825 16.0949 8.41838 16.0113 8.41838 15.9201V15.7922C8.41838 15.7894 8.41612 15.7872 8.41332 15.7872C8.41172 15.7872 8.41022 15.7879 8.40926 15.7892C8.34363 15.8769 8.2593 15.9446 8.15626 15.9923C8.05496 16.0379 7.941 16.0607 7.81437 16.0607C7.67762 16.0607 7.55352 16.0354 7.44209 15.9847C7.33066 15.9341 7.23569 15.8657 7.15718 15.7796C7.08121 15.6934 7.02169 15.5934 6.97864 15.4794C6.93559 15.3629 6.91406 15.24 6.91406 15.1108C6.91406 14.9791 6.93432 14.855 6.97484 14.7385C7.0179 14.6219 7.07741 14.5206 7.15339 14.4345C7.23189 14.3484 7.3256 14.28 7.4345 14.2293C7.54593 14.1787 7.67002 14.1533 7.80678 14.1533C7.93593 14.1533 8.05623 14.1799 8.16766 14.2331C8.2783 14.2859 8.36646 14.3675 8.43216 14.4777C8.43304 14.4792 8.43462 14.4801 8.43633 14.4801C8.43901 14.4801 8.44117 14.4779 8.44117 14.4753V14.3433C8.44117 14.2678 8.50241 14.2065 8.57796 14.2065H8.6577ZM7.90174 14.5257C7.81817 14.5257 7.74346 14.5409 7.67762 14.5713C7.6143 14.6017 7.55985 14.6435 7.51427 14.6967C7.47122 14.7473 7.43703 14.8081 7.4117 14.879C7.38891 14.95 7.37751 15.026 7.37751 15.107C7.37751 15.1805 7.38891 15.2514 7.4117 15.3198C7.43703 15.3882 7.47122 15.4503 7.51427 15.506C7.55985 15.5592 7.6143 15.6022 7.67762 15.6352C7.74346 15.6681 7.81691 15.6846 7.89795 15.6846C7.98152 15.6846 8.05623 15.6694 8.12207 15.639C8.19045 15.606 8.24743 15.563 8.29302 15.5098C8.34114 15.4566 8.37786 15.3958 8.40318 15.3274C8.42851 15.2565 8.44117 15.183 8.44117 15.107C8.44117 15.0285 8.42851 14.9538 8.40318 14.8828C8.37786 14.8119 8.34114 14.7499 8.29302 14.6967C8.24743 14.6435 8.19172 14.6017 8.12587 14.5713C8.06003 14.5409 7.98532 14.5257 7.90174 14.5257Z" fill="#191C1F"/>
<path d="M7.72689 18.2469C7.72689 18.0816 7.62492 17.9465 7.44488 17.9465C7.27759 17.9465 7.1581 18.0768 7.1581 18.2469C7.1581 18.4169 7.27759 18.5456 7.44488 18.5456C7.62492 18.5456 7.72689 18.4121 7.72689 18.2469ZM7.0625 18.571V17.465C7.0625 17.4142 7.09915 17.4062 7.11667 17.4062C7.1342 17.4062 7.17084 17.4142 7.17084 17.465V18.0037H7.17403C7.23776 17.9068 7.34929 17.856 7.45604 17.856C7.68865 17.856 7.84161 18.0276 7.84161 18.2469C7.84161 18.4662 7.68865 18.6378 7.45604 18.6378C7.34929 18.6378 7.23776 18.5869 7.17403 18.4932H7.17084V18.571C7.17084 18.6219 7.1342 18.6298 7.11667 18.6298C7.09915 18.6298 7.0625 18.6219 7.0625 18.571Z" fill="#191C1F"/>
<path d="M8.66328 17.9434L8.31117 18.811C8.26497 18.9254 8.20602 19.0001 8.07696 19.0001C8.05784 19.0001 8.03076 18.9985 8.01323 18.9937C7.98615 18.9858 7.9734 18.9683 7.9734 18.946C7.9734 18.9206 7.99252 18.9 8.0196 18.9C8.02757 18.9 8.03554 18.9016 8.0451 18.9031C8.05784 18.9047 8.06422 18.9047 8.07218 18.9047C8.14388 18.9047 8.18212 18.8571 8.21398 18.7728L8.27453 18.6171L7.97818 17.9465C7.9734 17.9338 7.97181 17.9243 7.97181 17.9163C7.97181 17.8861 7.9973 17.8639 8.02757 17.8639C8.0451 17.8639 8.0674 17.8703 8.08174 17.9068L8.33029 18.5027H8.33348L8.56132 17.9068C8.57406 17.8718 8.59637 17.8639 8.61389 17.8639C8.64576 17.8639 8.66966 17.8861 8.66966 17.9147C8.66966 17.9211 8.66806 17.9306 8.66328 17.9434Z" fill="#191C1F"/>
<path d="M9.43169 17.5922V18.5202C9.43169 18.6155 9.36477 18.633 9.33131 18.633C9.29785 18.633 9.23094 18.6155 9.23094 18.5202V17.5922C9.23094 17.4968 9.29785 17.4793 9.33131 17.4793C9.36477 17.4793 9.43169 17.4968 9.43169 17.5922Z" fill="#191C1F"/>
<path d="M10.4087 18.5408L9.88453 17.8194H9.88135V18.5202C9.88135 18.6155 9.81443 18.633 9.78097 18.633C9.74751 18.633 9.6806 18.6155 9.6806 18.5202V17.6255C9.6806 17.5016 9.76663 17.4793 9.80646 17.4793C9.85108 17.4793 9.89409 17.4984 9.94667 17.5715L10.4709 18.2914H10.474V17.5922C10.474 17.4968 10.541 17.4793 10.5744 17.4793C10.6079 17.4793 10.6748 17.4968 10.6748 17.5922V18.4868C10.6748 18.6108 10.5888 18.633 10.5489 18.633C10.5027 18.633 10.4629 18.6139 10.4087 18.5408Z" fill="#191C1F"/>
<path d="M11.3237 18.6187H11.0433C10.962 18.6187 10.9238 18.5806 10.9238 18.4995V17.6128C10.9238 17.5318 10.962 17.4936 11.0433 17.4936H11.3237C11.6184 17.4936 11.9467 17.6335 11.9467 18.0562C11.9467 18.4503 11.6184 18.6187 11.3237 18.6187ZM11.1245 17.6653V18.4439H11.2918C11.4989 18.4439 11.7316 18.3597 11.7316 18.0562C11.7316 17.7336 11.4989 17.6653 11.2918 17.6653H11.1245Z" fill="#191C1F"/>
<path d="M12.131 18.5265V17.9418C12.131 17.856 12.1931 17.8417 12.2218 17.8417C12.2504 17.8417 12.3126 17.856 12.3126 17.9418V17.9783H12.3158C12.3492 17.9036 12.4305 17.8337 12.5532 17.8337C12.6711 17.8337 12.7491 17.8925 12.7922 17.9783C12.8431 17.8861 12.9292 17.8337 13.0439 17.8337C13.2431 17.8337 13.3259 17.9863 13.3259 18.142V18.5265C13.3259 18.6171 13.2622 18.633 13.2303 18.633C13.1984 18.633 13.1347 18.6171 13.1347 18.5265V18.196C13.1347 18.1054 13.114 17.9926 12.9913 17.9926C12.8718 17.9926 12.8224 18.1038 12.8224 18.2024V18.5265C12.8224 18.6171 12.7587 18.633 12.7268 18.633C12.695 18.633 12.6312 18.6171 12.6312 18.5265V18.1579C12.6312 18.0641 12.5866 17.9926 12.4894 17.9926C12.3747 17.9926 12.3221 18.0975 12.3221 18.1992V18.5265C12.3221 18.6171 12.2584 18.633 12.2265 18.633C12.1947 18.633 12.131 18.6171 12.131 18.5265Z" fill="#191C1F"/>
<path d="M14.3355 18.2341C14.3355 18.4741 14.1507 18.6409 13.9196 18.6409C13.6886 18.6409 13.5038 18.4741 13.5038 18.2341C13.5038 17.9942 13.6886 17.8337 13.9196 17.8337C14.1507 17.8337 14.3355 17.9942 14.3355 18.2341ZM14.1411 18.2341C14.1411 18.115 14.071 17.9894 13.9196 17.9894C13.7683 17.9894 13.6982 18.115 13.6982 18.2341C13.6982 18.3533 13.7683 18.482 13.9196 18.482C14.071 18.482 14.1411 18.3533 14.1411 18.2341Z" fill="#191C1F"/>
<path d="M14.5209 18.5265V17.9418C14.5209 17.856 14.583 17.8417 14.6117 17.8417C14.6403 17.8417 14.7025 17.856 14.7025 17.9418V17.9783H14.7057C14.7391 17.902 14.8299 17.8337 14.9431 17.8337C15.1422 17.8337 15.2251 17.9863 15.2251 18.142V18.5265C15.2251 18.6171 15.1613 18.633 15.1295 18.633C15.0976 18.633 15.0339 18.6171 15.0339 18.5265V18.196C15.0339 18.1054 15.0132 17.9926 14.8905 17.9926C14.7694 17.9926 14.712 18.0975 14.712 18.1992V18.5265C14.712 18.6171 14.6483 18.633 14.6164 18.633C14.5846 18.633 14.5209 18.6171 14.5209 18.5265Z" fill="#191C1F"/>
<path d="M16.0759 18.2977H15.5948C15.6027 18.4058 15.7015 18.4852 15.813 18.4852C15.8927 18.4852 15.9405 18.4598 15.9883 18.4201C16.0154 18.3978 16.0329 18.3931 16.0536 18.3931C16.0966 18.3931 16.1301 18.4232 16.1301 18.4693C16.1301 18.4852 16.1237 18.5138 16.0982 18.5377C16.0234 18.6092 15.9373 18.6409 15.8146 18.6409C15.5788 18.6409 15.4036 18.49 15.4036 18.2421C15.4036 17.9958 15.5772 17.8337 15.8083 17.8337C15.9931 17.8337 16.1428 17.9386 16.1731 18.1626C16.1747 18.1785 16.1763 18.1897 16.1763 18.2024C16.1763 18.2691 16.1397 18.2977 16.0759 18.2977ZM15.5948 18.1611H15.9867C15.9867 18.0625 15.9309 17.9767 15.8067 17.9767C15.6935 17.9767 15.6027 18.0546 15.5948 18.1611Z" fill="#191C1F"/>
<path d="M17.0322 17.9799L16.704 18.7824C16.6467 18.9222 16.5782 19.0001 16.414 19.0001C16.3328 19.0001 16.3089 18.9524 16.3089 18.9143C16.3089 18.8761 16.3344 18.8428 16.3726 18.8364C16.3822 18.8348 16.3902 18.8348 16.4029 18.8348C16.4539 18.8348 16.5033 18.803 16.5383 18.7156L16.5766 18.6187L16.2882 17.9863C16.2786 17.964 16.2754 17.9434 16.2754 17.9306C16.2754 17.8814 16.3153 17.8417 16.371 17.8417C16.4045 17.8417 16.4411 17.856 16.4666 17.9163L16.6738 18.4105H16.6769L16.8554 17.9211C16.8793 17.856 16.9175 17.8417 16.9494 17.8417C17.0036 17.8417 17.0434 17.8766 17.0434 17.9275C17.0434 17.9386 17.0418 17.9545 17.0322 17.9799Z" fill="#191C1F"/>
</g>
</g>
<defs>
<clipPath id="clip0_3207_77513">
<rect width="24" height="24" fill="white"/>
</clipPath>
<clipPath id="clip1_3207_77513">
<rect width="24" height="24" fill="white"/>
</clipPath>
</defs>
</svg>
