<svg width="20" height="20" viewBox="0 0 20 20" fill="none" xmlns="http://www.w3.org/2000/svg">
<g clip-path="url(#clip0_3207_77521)">
<g clip-path="url(#clip1_3207_77521)">
<path d="M0 10C0 15.5228 4.47715 20 10 20C15.5228 20 20 15.5228 20 10C20 4.47715 15.5228 0 10 0C4.47715 0 0 4.47715 0 10Z" fill="white"/>
<path d="M5.43269 6.48389C5.15423 6.48389 4.92188 6.71818 4.92188 7.00055V10.7995C4.92188 11.0761 5.15423 11.3105 5.43269 11.3105C5.71114 11.3105 5.93766 11.0762 5.93766 10.7995V7.00055C5.93766 6.71818 5.71104 6.48389 5.43269 6.48389Z" fill="#191C1F"/>
<path d="M14.8906 7.95898C14.7715 7.67087 14.5891 7.41739 14.3645 7.19071C14.1398 6.9775 13.8748 6.79891 13.5791 6.67603C13.2776 6.55315 12.955 6.49161 12.619 6.49161H11.632C11.6032 6.48389 11.5763 6.48389 11.5475 6.48389C11.2537 6.48389 11.0156 6.7163 11.0156 7.00629V10.7899C11.0156 11.0781 11.2403 11.2989 11.5264 11.3123H12.619C12.955 11.3123 13.2776 11.2432 13.5791 11.1203C13.8729 10.9974 14.1397 10.8246 14.3645 10.6114C14.5891 10.3771 14.7715 10.1312 14.8906 9.83548C15.0173 9.53975 15.0788 9.23046 15.0788 8.90208C15.0788 8.57746 15.0173 8.25482 14.8906 7.95909V7.95898ZM13.6406 9.88346C13.3641 10.1543 12.9992 10.2926 12.5999 10.2926H12.0315V7.49802H12.5999C12.9993 7.49802 13.3641 7.6498 13.6406 7.91475C13.9171 8.17783 14.0631 8.52551 14.0631 8.9C14.0631 9.27448 13.9172 9.62018 13.6406 9.88336V9.88346Z" fill="#191C1F"/>
<path d="M11.8339 5.23842L10.3342 3.73839C10.2305 3.6347 10.0922 3.58473 9.95593 3.58859C9.81962 3.58473 9.68134 3.63272 9.57767 3.73839L8.07798 5.23842C7.87827 5.43818 7.87827 5.76082 8.07798 5.96058C8.2777 6.16034 8.60026 6.16034 8.79998 5.96058L9.47776 5.28264V9.36015L7.67083 6.74616C7.58062 6.58865 7.41355 6.48496 7.22155 6.48496C6.93736 6.48496 6.70312 6.71925 6.70312 7.00163V10.7968C6.70312 11.0791 6.93736 11.3134 7.22155 11.3134C7.50574 11.3134 7.73998 11.0791 7.73998 10.7968V8.44595L9.57569 11.0869C9.57569 11.0926 9.57569 11.1003 9.58341 11.108C9.68707 11.2386 9.83308 11.3155 9.99817 11.3155C10.2824 11.3155 10.5109 11.0812 10.5109 10.7988V5.3613L11.1119 5.96246C11.3116 6.16222 11.6342 6.16222 11.8339 5.96246C12.0336 5.7627 12.0336 5.43807 11.8339 5.23842Z" fill="#191C1F"/>
<path d="M5.43269 6.48389C5.15423 6.48389 4.92188 6.71818 4.92188 7.00055V10.7995C4.92188 11.0761 5.15423 11.3105 5.43269 11.3105C5.71114 11.3105 5.93766 11.0762 5.93766 10.7995V7.00055C5.93766 6.71818 5.71104 6.48389 5.43269 6.48389Z" fill="#191C1F"/>
<path d="M14.8906 7.95898C14.7715 7.67087 14.5891 7.41739 14.3645 7.19071C14.1398 6.9775 13.8748 6.79891 13.5791 6.67603C13.2776 6.55315 12.955 6.49161 12.619 6.49161H11.632C11.6032 6.48389 11.5763 6.48389 11.5475 6.48389C11.2537 6.48389 11.0156 6.7163 11.0156 7.00629V10.7899C11.0156 11.0781 11.2403 11.2989 11.5264 11.3123H12.619C12.955 11.3123 13.2776 11.2432 13.5791 11.1203C13.8729 10.9974 14.1397 10.8246 14.3645 10.6114C14.5891 10.3771 14.7715 10.1312 14.8906 9.83548C15.0173 9.53975 15.0788 9.23046 15.0788 8.90208C15.0788 8.57746 15.0173 8.25482 14.8906 7.95909V7.95898ZM13.6406 9.88346C13.3641 10.1543 12.9992 10.2926 12.5999 10.2926H12.0315V7.49802H12.5999C12.9993 7.49802 13.3641 7.6498 13.6406 7.91475C13.9171 8.17783 14.0631 8.52551 14.0631 8.9C14.0631 9.27448 13.9172 9.62018 13.6406 9.88336V9.88346Z" fill="#191C1F"/>
<path d="M11.8339 5.23842L10.3342 3.73839C10.2305 3.6347 10.0922 3.58473 9.95593 3.58859C9.81962 3.58473 9.68134 3.63272 9.57767 3.73839L8.07798 5.23842C7.87827 5.43818 7.87827 5.76082 8.07798 5.96058C8.2777 6.16034 8.60026 6.16034 8.79998 5.96058L9.47776 5.28264V9.36015L7.67083 6.74616C7.58062 6.58865 7.41355 6.48496 7.22155 6.48496C6.93736 6.48496 6.70312 6.71925 6.70312 7.00163V10.7968C6.70312 11.0791 6.93736 11.3134 7.22155 11.3134C7.50574 11.3134 7.73998 11.0791 7.73998 10.7968V8.44595L9.57569 11.0869C9.57569 11.0926 9.57569 11.1003 9.58341 11.108C9.68707 11.2386 9.83308 11.3155 9.99817 11.3155C10.2824 11.3155 10.5109 11.0812 10.5109 10.7988V5.3613L11.1119 5.96246C11.3116 6.16222 11.6342 6.16222 11.8339 5.96246C12.0336 5.7627 12.0336 5.43807 11.8339 5.23842Z" fill="#191C1F"/>
<path d="M14.3438 12.1436C14.3438 12.0209 14.4432 11.9214 14.566 11.9214C14.6887 11.9214 14.7882 12.0209 14.7882 12.1436V14.3532C14.7882 14.476 14.6887 14.5755 14.566 14.5755C14.4432 14.5755 14.3438 14.476 14.3438 14.3532V12.1436Z" fill="#191C1F"/>
<path d="M13.5539 14.3516C13.5539 14.3477 13.5508 14.3446 13.5469 14.3446C13.5443 14.3446 13.542 14.346 13.5408 14.3482C13.4962 14.4256 13.4252 14.4899 13.328 14.5409C13.2292 14.5903 13.1168 14.615 12.9909 14.615C12.9193 14.615 12.844 14.6052 12.765 14.5854C12.6884 14.5681 12.6168 14.5385 12.5502 14.4965C12.486 14.452 12.4316 14.3952 12.3872 14.3261C12.3452 14.2545 12.3242 14.1668 12.3242 14.063C12.3242 13.9297 12.3613 13.8235 12.4353 13.7444C12.5119 13.6654 12.6094 13.6049 12.7279 13.5629C12.8465 13.5209 12.9773 13.4938 13.1205 13.4814C13.2507 13.4682 13.3778 13.4609 13.502 13.4594C13.5266 13.4592 13.5465 13.4393 13.5465 13.4147C13.5465 13.3036 13.5057 13.2221 13.4243 13.1702C13.3452 13.1159 13.2502 13.0887 13.1391 13.0887C13.0452 13.0887 12.9551 13.1085 12.8687 13.148C12.8463 13.1582 12.825 13.169 12.8046 13.1804C12.716 13.2299 12.5976 13.2262 12.5319 13.1488C12.4717 13.0779 12.4772 12.9706 12.5548 12.9194C12.6221 12.8749 12.6946 12.8387 12.7724 12.8109C12.9057 12.7639 13.0403 12.7405 13.1761 12.7405C13.3341 12.7405 13.4638 12.7627 13.565 12.8072C13.6687 12.8516 13.7502 12.9097 13.8095 12.9813C13.8687 13.0529 13.9095 13.1332 13.9317 13.2221C13.9564 13.311 13.9687 13.3999 13.9687 13.4888V14.3632C13.9687 14.4777 13.8759 14.5706 13.7613 14.5706H13.6669C13.6045 14.5706 13.5539 14.52 13.5539 14.4576V14.3516ZM13.5465 13.8222C13.5465 13.7875 13.5183 13.7593 13.4835 13.7593H13.4465C13.3749 13.7593 13.2996 13.763 13.2205 13.7704C13.1415 13.7753 13.0687 13.7889 13.002 13.8111C12.9354 13.8309 12.8798 13.8605 12.8353 13.9C12.7909 13.9371 12.7687 13.9889 12.7687 14.0556C12.7687 14.0976 12.7773 14.1334 12.7946 14.1631C12.8144 14.1902 12.8391 14.2125 12.8687 14.2298C12.8983 14.247 12.9316 14.2594 12.9687 14.2668C13.0057 14.2742 13.0428 14.2779 13.0798 14.2779C13.2329 14.2779 13.3489 14.2372 13.428 14.1557C13.507 14.0742 13.5465 13.963 13.5465 13.8222Z" fill="#191C1F"/>
<path d="M10.4722 11.9214C10.595 11.9214 10.6945 12.0209 10.6945 12.1436V13.0158C10.6945 13.0199 10.6978 13.0232 10.7019 13.0232C10.7042 13.0232 10.7064 13.0221 10.7078 13.0203C10.7297 12.9915 10.7573 12.9616 10.7908 12.9306C10.8253 12.8985 10.8661 12.8689 10.913 12.8417C10.9624 12.8145 11.0192 12.7923 11.0834 12.775C11.1476 12.7552 11.2204 12.7454 11.3019 12.7454C11.4278 12.7454 11.5439 12.7701 11.65 12.8195C11.7562 12.8664 11.8476 12.9318 11.9241 13.0158C12.0007 13.0998 12.0599 13.1986 12.1019 13.3122C12.1439 13.4258 12.1649 13.548 12.1649 13.6789C12.1649 13.8098 12.1439 13.9333 12.1019 14.0494C12.0624 14.163 12.0044 14.263 11.9278 14.3495C11.8538 14.4335 11.7624 14.5014 11.6538 14.5532C11.5476 14.6026 11.4266 14.6273 11.2908 14.6273C11.1648 14.6273 11.0463 14.6002 10.9352 14.5458C10.8274 14.4919 10.7426 14.4136 10.681 14.311C10.6802 14.3096 10.6786 14.3087 10.677 14.3087C10.6744 14.3087 10.6722 14.3109 10.6722 14.3135V14.4421C10.6722 14.5158 10.6125 14.5755 10.5389 14.5755H10.4611C10.3445 14.5755 10.25 14.481 10.25 14.3644V12.1436C10.25 12.0209 10.3495 11.9214 10.4722 11.9214ZM11.713 13.6789C11.713 13.6098 11.7019 13.5419 11.6797 13.4752C11.6599 13.406 11.6291 13.3443 11.5871 13.29C11.5451 13.2356 11.492 13.1924 11.4278 13.1603C11.3636 13.1257 11.2883 13.1084 11.2019 13.1084C11.1204 13.1084 11.0476 13.1257 10.9834 13.1603C10.9192 13.1949 10.8636 13.2393 10.8167 13.2937C10.7722 13.348 10.7377 13.4097 10.713 13.4789C10.6908 13.548 10.6796 13.6172 10.6796 13.6864C10.6796 13.7555 10.6908 13.8247 10.713 13.8938C10.7377 13.9605 10.7722 14.021 10.8167 14.0753C10.8636 14.1297 10.9192 14.1741 10.9834 14.2087C11.0476 14.2408 11.1204 14.2569 11.2019 14.2569C11.2883 14.2569 11.3636 14.2396 11.4278 14.205C11.492 14.1704 11.5451 14.126 11.5871 14.0716C11.6291 14.0173 11.6599 13.9556 11.6797 13.8864C11.7019 13.8173 11.713 13.7481 11.713 13.6789Z" fill="#191C1F"/>
<path d="M8.02734 13.6741C8.02734 13.5333 8.05204 13.4061 8.10142 13.2925C8.15327 13.1764 8.22241 13.0776 8.30883 12.9961C8.39526 12.9146 8.49773 12.8516 8.61625 12.8072C8.73478 12.7627 8.86071 12.7405 8.99404 12.7405C9.12738 12.7405 9.25331 12.7627 9.37183 12.8072C9.49036 12.8516 9.59283 12.9146 9.67925 12.9961C9.76567 13.0776 9.83358 13.1764 9.88296 13.2925C9.93482 13.4061 9.96074 13.5333 9.96074 13.6741C9.96074 13.8148 9.93482 13.9433 9.88296 14.0593C9.83358 14.1754 9.76567 14.2754 9.67925 14.3594C9.59283 14.4409 9.49036 14.5051 9.37183 14.5521C9.25331 14.599 9.12738 14.6224 8.99404 14.6224C8.86071 14.6224 8.73478 14.599 8.61625 14.5521C8.49773 14.5051 8.39526 14.4409 8.30883 14.3594C8.22241 14.2754 8.15327 14.1754 8.10142 14.0593C8.05204 13.9433 8.02734 13.8148 8.02734 13.6741ZM8.47921 13.6741C8.47921 13.7432 8.48909 13.8124 8.50884 13.8815C8.53106 13.9507 8.56316 14.0124 8.60514 14.0667C8.64712 14.1211 8.70021 14.1655 8.76441 14.2001C8.82861 14.2347 8.90515 14.252 8.99404 14.252C9.08294 14.252 9.15948 14.2347 9.22368 14.2001C9.28788 14.1655 9.34097 14.1211 9.38295 14.0667C9.42492 14.0124 9.45579 13.9507 9.47554 13.8815C9.49776 13.8124 9.50888 13.7432 9.50888 13.6741C9.50888 13.6049 9.49776 13.537 9.47554 13.4703C9.45579 13.4011 9.42492 13.3394 9.38295 13.2851C9.34097 13.2307 9.28788 13.1875 9.22368 13.1554C9.15948 13.1208 9.08294 13.1035 8.99404 13.1035C8.90515 13.1035 8.82861 13.1208 8.76441 13.1554C8.70021 13.1875 8.64712 13.2307 8.60514 13.2851C8.56316 13.3394 8.53106 13.4011 8.50884 13.4703C8.48909 13.537 8.47921 13.6049 8.47921 13.6741Z" fill="#191C1F"/>
<path d="M7.29297 12.1436C7.29297 12.0209 7.39246 11.9214 7.5152 11.9214C7.63793 11.9214 7.73743 12.0209 7.73743 12.1436V14.3532C7.73743 14.476 7.63793 14.5755 7.5152 14.5755C7.39246 14.5755 7.29297 14.476 7.29297 14.3532V12.1436Z" fill="#191C1F"/>
<path d="M6.68834 12.7923C6.80494 12.7923 6.89946 12.8869 6.89946 13.0035V14.4113C6.89946 14.5718 6.8797 14.7163 6.8402 14.8447C6.80069 14.9756 6.73896 15.0855 6.655 15.1744C6.57352 15.2658 6.46981 15.3362 6.34388 15.3856C6.21795 15.435 6.06856 15.4597 5.89572 15.4597C5.82411 15.4597 5.74757 15.4535 5.66608 15.4412C5.58707 15.4288 5.50805 15.4103 5.42904 15.3856C5.35249 15.3609 5.27841 15.33 5.20681 15.293C5.19657 15.2877 5.18648 15.2823 5.17654 15.2768C5.0803 15.2235 5.06559 15.0978 5.13112 15.0094C5.20491 14.9099 5.34863 14.8999 5.45738 14.9591C5.49114 14.9775 5.52614 14.9937 5.56237 15.0077C5.67102 15.0522 5.7809 15.0744 5.89202 15.0744C5.99819 15.0744 6.08708 15.0584 6.15869 15.0263C6.23277 14.9966 6.29079 14.9546 6.33277 14.9003C6.37722 14.846 6.40808 14.7817 6.42537 14.7077C6.44512 14.6336 6.455 14.5521 6.455 14.4631V14.3384C6.455 14.3357 6.45279 14.3335 6.45007 14.3335C6.44851 14.3335 6.44704 14.3342 6.44611 14.3355C6.38212 14.4209 6.29989 14.487 6.19943 14.5335C6.10066 14.578 5.98955 14.6002 5.86609 14.6002C5.73275 14.6002 5.61176 14.5755 5.50311 14.5261C5.39447 14.4767 5.30187 14.41 5.22533 14.3261C5.15125 14.2421 5.09322 14.1445 5.05125 14.0334C5.00927 13.9198 4.98828 13.8 4.98828 13.6741C4.98828 13.5456 5.00804 13.4246 5.04754 13.311C5.08952 13.1974 5.14755 13.0986 5.22162 13.0146C5.29817 12.9307 5.38953 12.864 5.49571 12.8146C5.60435 12.7652 5.72534 12.7405 5.85868 12.7405C5.98461 12.7405 6.1019 12.7664 6.21054 12.8183C6.31842 12.8698 6.40438 12.9493 6.46844 13.0568C6.46929 13.0582 6.47084 13.0591 6.4725 13.0591C6.47511 13.0591 6.47722 13.057 6.47722 13.0544V12.9257C6.47722 12.8521 6.53693 12.7923 6.61059 12.7923H6.68834ZM5.95128 13.1035C5.86979 13.1035 5.79695 13.1184 5.73275 13.148C5.67102 13.1776 5.61793 13.2184 5.57349 13.2702C5.53151 13.3196 5.49818 13.3789 5.47348 13.4481C5.45126 13.5172 5.44015 13.5913 5.44015 13.6703C5.44015 13.742 5.45126 13.8111 5.47348 13.8778C5.49818 13.9445 5.53151 14.005 5.57349 14.0593C5.61793 14.1112 5.67102 14.1532 5.73275 14.1853C5.79695 14.2174 5.86856 14.2335 5.94757 14.2335C6.02906 14.2335 6.1019 14.2186 6.1661 14.189C6.23277 14.1569 6.28833 14.1149 6.33277 14.063C6.37969 14.0112 6.41549 13.9519 6.44018 13.8852C6.46487 13.8161 6.47722 13.7444 6.47722 13.6703C6.47722 13.5938 6.46487 13.5209 6.44018 13.4518C6.41549 13.3826 6.37969 13.3221 6.33277 13.2702C6.28833 13.2184 6.234 13.1776 6.1698 13.148C6.1056 13.1184 6.03276 13.1035 5.95128 13.1035Z" fill="#191C1F"/>
</g>
</g>
<defs>
<clipPath id="clip0_3207_77521">
<rect width="20" height="20" fill="white"/>
</clipPath>
<clipPath id="clip1_3207_77521">
<rect width="20" height="20" fill="white"/>
</clipPath>
</defs>
</svg>
