<svg width="12" height="12" viewBox="0 0 12 12" fill="none" xmlns="http://www.w3.org/2000/svg">
<g clip-path="url(#clip0_3207_77516)">
<g clip-path="url(#clip1_3207_77516)">
<path d="M0 6C0 9.31371 2.68629 12 6 12C9.31371 12 12 9.31371 12 6C12 2.68629 9.31371 0 6 0C2.68629 0 0 2.68629 0 6Z" fill="white"/>
<path d="M3.68383 3.87427C3.54103 3.87427 3.42188 3.99441 3.42188 4.13922V6.08741C3.42188 6.22922 3.54103 6.34943 3.68383 6.34943C3.82662 6.34943 3.94279 6.22928 3.94279 6.08741V4.13922C3.94279 3.99441 3.82657 3.87427 3.68383 3.87427Z" fill="#191C1F"/>
<path d="M8.53404 4.63072C8.47297 4.48297 8.37943 4.35298 8.26423 4.23674C8.14903 4.1274 8.01313 4.03582 7.86146 3.9728C7.70684 3.90979 7.54142 3.87823 7.3691 3.87823H6.86295C6.84819 3.87427 6.83439 3.87427 6.81963 3.87427C6.66897 3.87427 6.54688 3.99345 6.54688 4.14216V6.08249C6.54688 6.23024 6.66207 6.34349 6.80883 6.35039H7.3691C7.54142 6.35039 7.70684 6.31492 7.86146 6.25191C8.01211 6.18889 8.14897 6.10025 8.26423 5.99091C8.37943 5.87076 8.47297 5.74468 8.53404 5.59302C8.59902 5.44137 8.63052 5.28276 8.63052 5.11436C8.63052 4.94789 8.59902 4.78243 8.53404 4.63078V4.63072ZM7.89301 5.61763C7.75123 5.7565 7.5641 5.82743 7.35932 5.82743H7.06784V4.39433H7.35932C7.56415 4.39433 7.75123 4.47217 7.89301 4.60804C8.03479 4.74295 8.10967 4.92125 8.10967 5.11329C8.10967 5.30533 8.03484 5.48261 7.89301 5.61758V5.61763Z" fill="#191C1F"/>
<path d="M6.96708 3.23142L6.19801 2.46218C6.14485 2.40901 6.07393 2.38338 6.00403 2.38536C5.93413 2.38338 5.86322 2.40799 5.81006 2.46218L5.04099 3.23142C4.93857 3.33386 4.93857 3.49932 5.04099 3.60176C5.14341 3.7042 5.30882 3.7042 5.41124 3.60176L5.75882 3.2541V5.34512L4.83219 4.00462C4.78593 3.92385 4.70026 3.87067 4.6018 3.87067C4.45606 3.87067 4.33594 3.99082 4.33594 4.13563V6.08184C4.33594 6.22665 4.45606 6.34679 4.6018 6.34679C4.74753 6.34679 4.86765 6.22665 4.86765 6.08184V4.8763L5.80904 6.2306C5.80904 6.23355 5.80904 6.23751 5.813 6.24146C5.86616 6.30844 5.94103 6.34786 6.02569 6.34786C6.17143 6.34786 6.28861 6.22772 6.28861 6.08291V3.29444L6.59683 3.60272C6.69924 3.70516 6.86466 3.70516 6.96708 3.60272C7.0695 3.50028 7.0695 3.33381 6.96708 3.23142Z" fill="#191C1F"/>
<path d="M3.68383 3.87427C3.54103 3.87427 3.42188 3.99441 3.42188 4.13922V6.08741C3.42188 6.22922 3.54103 6.34943 3.68383 6.34943C3.82662 6.34943 3.94279 6.22928 3.94279 6.08741V4.13922C3.94279 3.99441 3.82657 3.87427 3.68383 3.87427Z" fill="#191C1F"/>
<path d="M8.53404 4.63072C8.47297 4.48297 8.37943 4.35298 8.26423 4.23674C8.14903 4.1274 8.01313 4.03582 7.86146 3.9728C7.70684 3.90979 7.54142 3.87823 7.3691 3.87823H6.86295C6.84819 3.87427 6.83439 3.87427 6.81963 3.87427C6.66897 3.87427 6.54688 3.99345 6.54688 4.14216V6.08249C6.54688 6.23024 6.66207 6.34349 6.80883 6.35039H7.3691C7.54142 6.35039 7.70684 6.31492 7.86146 6.25191C8.01211 6.18889 8.14897 6.10025 8.26423 5.99091C8.37943 5.87076 8.47297 5.74468 8.53404 5.59302C8.59902 5.44137 8.63052 5.28276 8.63052 5.11436C8.63052 4.94789 8.59902 4.78243 8.53404 4.63078V4.63072ZM7.89301 5.61763C7.75123 5.7565 7.5641 5.82743 7.35932 5.82743H7.06784V4.39433H7.35932C7.56415 4.39433 7.75123 4.47217 7.89301 4.60804C8.03479 4.74295 8.10967 4.92125 8.10967 5.11329C8.10967 5.30533 8.03484 5.48261 7.89301 5.61758V5.61763Z" fill="#191C1F"/>
<path d="M6.96708 3.23142L6.19801 2.46218C6.14485 2.40901 6.07393 2.38338 6.00403 2.38536C5.93413 2.38338 5.86322 2.40799 5.81006 2.46218L5.04099 3.23142C4.93857 3.33386 4.93857 3.49932 5.04099 3.60176C5.14341 3.7042 5.30882 3.7042 5.41124 3.60176L5.75882 3.2541V5.34512L4.83219 4.00462C4.78593 3.92385 4.70026 3.87067 4.6018 3.87067C4.45606 3.87067 4.33594 3.99082 4.33594 4.13563V6.08184C4.33594 6.22665 4.45606 6.34679 4.6018 6.34679C4.74753 6.34679 4.86765 6.22665 4.86765 6.08184V4.8763L5.80904 6.2306C5.80904 6.23355 5.80904 6.23751 5.813 6.24146C5.86616 6.30844 5.94103 6.34786 6.02569 6.34786C6.17143 6.34786 6.28861 6.22772 6.28861 6.08291V3.29444L6.59683 3.60272C6.69924 3.70516 6.86466 3.70516 6.96708 3.60272C7.0695 3.50028 7.0695 3.33381 6.96708 3.23142Z" fill="#191C1F"/>
<path d="M8.25391 6.76533C8.25391 6.70239 8.30493 6.65137 8.36787 6.65137C8.43081 6.65137 8.48183 6.70239 8.48183 6.76533V7.89847C8.48183 7.96141 8.43081 8.01243 8.36787 8.01243C8.30493 8.01243 8.25391 7.96141 8.25391 7.89847V6.76533Z" fill="#191C1F"/>
<path d="M7.84935 7.90678C7.84935 7.9048 7.84774 7.90319 7.84575 7.90319C7.84445 7.90319 7.84326 7.90389 7.84261 7.90501C7.81975 7.94473 7.78337 7.97768 7.73348 8.00388C7.68283 8.02921 7.62522 8.04187 7.56064 8.04187C7.52392 8.04187 7.4853 8.03681 7.44478 8.02667C7.40552 8.01781 7.3688 8.00261 7.33461 7.98108C7.30169 7.95828 7.27383 7.92915 7.25104 7.89369C7.22951 7.85696 7.21875 7.812 7.21875 7.7588C7.21875 7.69041 7.23774 7.63595 7.27573 7.59542C7.31499 7.55489 7.365 7.52386 7.42578 7.50233C7.48656 7.48079 7.55368 7.46686 7.62712 7.46053C7.69385 7.45374 7.75906 7.44999 7.82275 7.44926C7.83534 7.44912 7.84555 7.43892 7.84555 7.42633C7.84555 7.36934 7.82466 7.32754 7.78287 7.30094C7.74235 7.27308 7.6936 7.25915 7.63662 7.25915C7.5885 7.25915 7.54228 7.26928 7.49796 7.28955C7.4865 7.29478 7.47555 7.30032 7.46511 7.30615C7.41966 7.33153 7.35893 7.32964 7.32523 7.28996C7.29437 7.25361 7.29721 7.19858 7.337 7.1723C7.37151 7.14951 7.4087 7.13096 7.44858 7.11666C7.51695 7.0926 7.58597 7.08057 7.65561 7.08057C7.73665 7.08057 7.80313 7.09197 7.85505 7.11476C7.90823 7.13756 7.95001 7.16732 7.9804 7.20405C8.0108 7.24078 8.03169 7.28195 8.04308 7.32754C8.05575 7.37314 8.06208 7.41873 8.06208 7.46433V7.91271C8.06208 7.97145 8.01446 8.01908 7.95571 8.01908H7.90729C7.87529 8.01908 7.84935 7.99313 7.84935 7.96113V7.90678ZM7.84555 7.63531C7.84555 7.61748 7.83109 7.60302 7.81325 7.60302H7.79426C7.75754 7.60302 7.71892 7.60492 7.6784 7.60872C7.63788 7.61125 7.60053 7.61821 7.56634 7.62961C7.53215 7.63975 7.50366 7.65494 7.48087 7.67521C7.45807 7.69421 7.44668 7.7208 7.44668 7.755C7.44668 7.77653 7.45111 7.7949 7.45997 7.8101C7.4701 7.82403 7.48277 7.83543 7.49796 7.84429C7.51316 7.85316 7.53025 7.85949 7.54924 7.86329C7.56824 7.86709 7.58723 7.86899 7.60623 7.86899C7.68473 7.86899 7.74425 7.84809 7.78477 7.8063C7.82529 7.7645 7.84555 7.70751 7.84555 7.63531Z" fill="#191C1F"/>
<path d="M6.27021 6.65137C6.33315 6.65137 6.38418 6.70239 6.38418 6.76533V7.21261C6.38418 7.21471 6.38588 7.21641 6.38798 7.21641C6.38917 7.21641 6.3903 7.21584 6.39102 7.21489C6.40224 7.20016 6.41642 7.18483 6.43356 7.16891C6.45129 7.15245 6.47218 7.13725 6.49624 7.12332C6.52157 7.10938 6.55069 7.09798 6.58361 7.08912C6.61654 7.07899 6.65389 7.07392 6.69568 7.07392C6.76026 7.07392 6.81977 7.08659 6.87422 7.11192C6.92867 7.13598 6.97552 7.16954 7.01477 7.21261C7.05403 7.25567 7.08442 7.30633 7.10594 7.36459C7.12747 7.42285 7.13823 7.48555 7.13823 7.55267C7.13823 7.6198 7.12747 7.68313 7.10594 7.74266C7.08568 7.80092 7.05593 7.85221 7.01667 7.89654C6.97869 7.9396 6.93183 7.97443 6.87612 8.00103C6.82167 8.02636 6.75962 8.03903 6.68998 8.03903C6.6254 8.03903 6.56462 8.02509 6.50764 7.99723C6.45234 7.96957 6.40889 7.92944 6.37729 7.87683C6.37685 7.87609 6.37606 7.87564 6.3752 7.87564C6.37386 7.87564 6.37278 7.87673 6.37278 7.87806V7.94404C6.37278 7.98181 6.34216 8.01243 6.30439 8.01243H6.26452C6.20472 8.01243 6.15625 7.96396 6.15625 7.90416V6.76533C6.15625 6.70239 6.20727 6.65137 6.27021 6.65137ZM6.90651 7.55267C6.90651 7.51721 6.90081 7.48238 6.88941 7.44818C6.87928 7.41272 6.86346 7.38106 6.84193 7.35319C6.8204 7.32533 6.79318 7.30316 6.76026 7.2867C6.72733 7.26897 6.68871 7.2601 6.64439 7.2601C6.60261 7.2601 6.56525 7.26897 6.53233 7.2867C6.49941 7.30443 6.47092 7.32723 6.44686 7.35509C6.42406 7.38296 6.40634 7.41462 6.39367 7.45008C6.38228 7.48555 6.37658 7.52101 6.37658 7.55647C6.37658 7.59194 6.38228 7.6274 6.39367 7.66286C6.40634 7.69706 6.42406 7.72809 6.44686 7.75595C6.47092 7.78382 6.49941 7.80662 6.53233 7.82435C6.56525 7.84081 6.60261 7.84904 6.64439 7.84904C6.68871 7.84904 6.72733 7.84018 6.76026 7.82245C6.79318 7.80472 6.8204 7.78192 6.84193 7.75405C6.86346 7.72619 6.87928 7.69453 6.88941 7.65906C6.90081 7.6236 6.90651 7.58814 6.90651 7.55267Z" fill="#191C1F"/>
<path d="M5.01562 7.55932C5.01562 7.48713 5.02829 7.4219 5.05361 7.36364C5.0802 7.30411 5.11566 7.25345 5.15998 7.21165C5.2043 7.16986 5.25685 7.13756 5.31763 7.11476C5.37841 7.09197 5.44299 7.08057 5.51137 7.08057C5.57974 7.08057 5.64432 7.09197 5.7051 7.11476C5.76588 7.13756 5.81843 7.16986 5.86275 7.21165C5.90707 7.25345 5.94189 7.30411 5.96722 7.36364C5.99381 7.4219 6.00711 7.48713 6.00711 7.55932C6.00711 7.63151 5.99381 7.69737 5.96722 7.7569C5.94189 7.81643 5.90707 7.86772 5.86275 7.91079C5.81843 7.95258 5.76588 7.98551 5.7051 8.00958C5.64432 8.03364 5.57974 8.04567 5.51137 8.04567C5.44299 8.04567 5.37841 8.03364 5.31763 8.00958C5.25685 7.98551 5.2043 7.95258 5.15998 7.91079C5.11566 7.86772 5.0802 7.81643 5.05361 7.7569C5.02829 7.69737 5.01562 7.63151 5.01562 7.55932ZM5.24735 7.55932C5.24735 7.59478 5.25242 7.63025 5.26255 7.66571C5.27394 7.70117 5.2904 7.73284 5.31193 7.7607C5.33346 7.78856 5.36068 7.81136 5.3936 7.82909C5.42653 7.84683 5.46578 7.85569 5.51137 7.85569C5.55695 7.85569 5.5962 7.84683 5.62913 7.82909C5.66205 7.81136 5.68928 7.78856 5.7108 7.7607C5.73233 7.73284 5.74816 7.70117 5.75829 7.66571C5.76968 7.63025 5.77538 7.59478 5.77538 7.55932C5.77538 7.52386 5.76968 7.48903 5.75829 7.45483C5.74816 7.41937 5.73233 7.3877 5.7108 7.35984C5.68928 7.33198 5.66205 7.30981 5.62913 7.29335C5.5962 7.27561 5.55695 7.26675 5.51137 7.26675C5.46578 7.26675 5.42653 7.27561 5.3936 7.29335C5.36068 7.30981 5.33346 7.33198 5.31193 7.35984C5.2904 7.3877 5.27394 7.41937 5.26255 7.45483C5.25242 7.48903 5.24735 7.52386 5.24735 7.55932Z" fill="#191C1F"/>
<path d="M4.64062 6.76533C4.64062 6.70239 4.69165 6.65137 4.75459 6.65137C4.81753 6.65137 4.86855 6.70239 4.86855 6.76533V7.89847C4.86855 7.96141 4.81753 8.01243 4.75459 8.01243C4.69165 8.01243 4.64062 7.96141 4.64062 7.89847V6.76533Z" fill="#191C1F"/>
<path d="M4.32885 7.10716C4.38864 7.10716 4.43712 7.15564 4.43712 7.21543V7.93738C4.43712 8.01971 4.42699 8.0938 4.40673 8.15966C4.38647 8.22679 4.35481 8.28315 4.31176 8.32875C4.26997 8.37561 4.21679 8.4117 4.15221 8.43703C4.08763 8.46237 4.01102 8.47503 3.92238 8.47503C3.88566 8.47503 3.84641 8.47186 3.80462 8.46553C3.7641 8.4592 3.72358 8.4497 3.68306 8.43703C3.6438 8.42437 3.60582 8.40854 3.5691 8.38954C3.56384 8.38682 3.55867 8.38405 3.55357 8.38123C3.50422 8.35392 3.49667 8.28943 3.53028 8.24412C3.56812 8.19311 3.64182 8.18794 3.69759 8.21833C3.71491 8.22776 3.73285 8.23607 3.75144 8.24325C3.80715 8.26605 3.8635 8.27745 3.92048 8.27745C3.97493 8.27745 4.02052 8.26922 4.05724 8.25275C4.09523 8.23755 4.12498 8.21602 4.14651 8.18816C4.1693 8.1603 4.18513 8.12736 4.19399 8.08937C4.20412 8.05137 4.20919 8.00958 4.20919 7.96398V7.90001C4.20919 7.89862 4.20806 7.89749 4.20666 7.89749C4.20586 7.89749 4.20511 7.89787 4.20463 7.89851C4.17182 7.94234 4.12965 7.9762 4.07813 8.00008C4.02748 8.02288 3.9705 8.03427 3.90719 8.03427C3.83881 8.03427 3.77676 8.02161 3.72105 7.99628C3.66533 7.97095 3.61785 7.93675 3.57859 7.89369C3.5406 7.85063 3.51085 7.8006 3.48932 7.7436C3.46779 7.68534 3.45703 7.62391 3.45703 7.55932C3.45703 7.49346 3.46716 7.4314 3.48742 7.37314C3.50895 7.31488 3.5387 7.26422 3.57669 7.22115C3.61595 7.17809 3.6628 7.14389 3.71725 7.11856C3.77296 7.09323 3.83501 7.08057 3.90339 7.08057C3.96797 7.08057 4.02811 7.09387 4.08383 7.12046C4.13915 7.14687 4.18323 7.18764 4.21608 7.24276C4.21652 7.2435 4.21731 7.24395 4.21817 7.24395C4.2195 7.24395 4.22059 7.24287 4.22059 7.24153V7.17556C4.22059 7.13778 4.25121 7.10716 4.28898 7.10716H4.32885ZM3.95087 7.26675C3.90909 7.26675 3.87173 7.27435 3.83881 7.28955C3.80715 7.30474 3.77993 7.32564 3.75713 7.35224C3.73561 7.37757 3.71851 7.40797 3.70585 7.44343C3.69445 7.47889 3.68876 7.51689 3.68876 7.55742C3.68876 7.59415 3.69445 7.62961 3.70585 7.66381C3.71851 7.69801 3.73561 7.72904 3.75713 7.7569C3.77993 7.7835 3.80715 7.80503 3.83881 7.82149C3.87173 7.83796 3.90845 7.84619 3.94897 7.84619C3.99076 7.84619 4.02811 7.83859 4.06104 7.82339C4.09523 7.80693 4.12372 7.7854 4.14651 7.7588C4.17057 7.7322 4.18893 7.70181 4.20159 7.66761C4.21425 7.63215 4.22059 7.59542 4.22059 7.55742C4.22059 7.51816 4.21425 7.48079 4.20159 7.44533C4.18893 7.40987 4.17057 7.37884 4.14651 7.35224C4.12372 7.32564 4.09586 7.30474 4.06294 7.28955C4.03001 7.27435 3.99266 7.26675 3.95087 7.26675Z" fill="#191C1F"/>
<path d="M3.86345 9.12538C3.86345 9.04275 3.81246 8.97522 3.72244 8.97522C3.6388 8.97522 3.57905 9.04037 3.57905 9.12538C3.57905 9.2104 3.6388 9.27476 3.72244 9.27476C3.81246 9.27476 3.86345 9.20801 3.86345 9.12538ZM3.53125 9.28747V8.73448C3.53125 8.70905 3.54957 8.70508 3.55834 8.70508C3.5671 8.70508 3.58542 8.70905 3.58542 8.73448V9.00382H3.58701C3.61888 8.95535 3.67464 8.92993 3.72802 8.92993C3.84433 8.92993 3.9208 9.01574 3.9208 9.12538C3.9208 9.23503 3.84433 9.32084 3.72802 9.32084C3.67464 9.32084 3.61888 9.29541 3.58701 9.24854H3.58542V9.28747C3.58542 9.31289 3.5671 9.31687 3.55834 9.31687C3.54957 9.31687 3.53125 9.31289 3.53125 9.28747Z" fill="#191C1F"/>
<path d="M4.33164 8.97363L4.15559 9.40744C4.13248 9.46465 4.10301 9.50199 4.03848 9.50199C4.02892 9.50199 4.01538 9.5012 4.00662 9.49881C3.99307 9.49484 3.9867 9.4861 3.9867 9.47498C3.9867 9.46226 3.99626 9.45193 4.0098 9.45193C4.01379 9.45193 4.01777 9.45273 4.02255 9.45352C4.02892 9.45432 4.03211 9.45432 4.03609 9.45432C4.07194 9.45432 4.09106 9.43048 4.10699 9.38837L4.13726 9.31051L3.98909 8.97522C3.9867 8.96886 3.9859 8.96409 3.9859 8.96012C3.9859 8.94503 3.99865 8.9339 4.01379 8.9339C4.02255 8.9339 4.0337 8.93708 4.04087 8.95535L4.16515 9.2533H4.16674L4.28066 8.95535C4.28703 8.93787 4.29818 8.9339 4.30695 8.9339C4.32288 8.9339 4.33483 8.94503 4.33483 8.95933C4.33483 8.96251 4.33403 8.96727 4.33164 8.97363Z" fill="#191C1F"/>
<path d="M4.71584 8.79804V9.26204C4.71584 9.30971 4.68238 9.31845 4.66566 9.31845C4.64893 9.31845 4.61547 9.30971 4.61547 9.26204V8.79804C4.61547 8.75037 4.64893 8.74163 4.66566 8.74163C4.68238 8.74163 4.71584 8.75037 4.71584 8.79804Z" fill="#191C1F"/>
<path d="M5.20436 9.27237L4.94227 8.91166H4.94067V9.26204C4.94067 9.30971 4.90722 9.31845 4.89049 9.31845C4.87376 9.31845 4.8403 9.30971 4.8403 9.26204V8.81472C4.8403 8.75275 4.88332 8.74163 4.90323 8.74163C4.92554 8.74163 4.94705 8.75116 4.97334 8.78771L5.23543 9.14763H5.23702V8.79804C5.23702 8.75037 5.27048 8.74163 5.28721 8.74163C5.30394 8.74163 5.3374 8.75037 5.3374 8.79804V9.24536C5.3374 9.30733 5.29438 9.31845 5.27446 9.31845C5.25136 9.31845 5.23145 9.30892 5.20436 9.27237Z" fill="#191C1F"/>
<path d="M5.66184 9.3113H5.52164C5.48101 9.3113 5.46189 9.29223 5.46189 9.25171V8.80837C5.46189 8.76785 5.48101 8.74878 5.52164 8.74878H5.66184C5.80922 8.74878 5.97333 8.8187 5.97333 9.03004C5.97333 9.22708 5.80922 9.3113 5.66184 9.3113ZM5.56227 8.83459V9.22391H5.64591C5.74947 9.22391 5.86578 9.1818 5.86578 9.03004C5.86578 8.86875 5.74947 8.83459 5.64591 8.83459H5.56227Z" fill="#191C1F"/>
<path d="M6.06548 9.26522V8.97283C6.06548 8.92993 6.09654 8.92278 6.11088 8.92278C6.12522 8.92278 6.15629 8.92993 6.15629 8.97283V8.99111H6.15789C6.17462 8.95377 6.21524 8.91881 6.27658 8.91881C6.33554 8.91881 6.37457 8.9482 6.39608 8.99111C6.42157 8.94503 6.46459 8.91881 6.52195 8.91881C6.62153 8.91881 6.66295 8.99508 6.66295 9.07294V9.26522C6.66295 9.31051 6.63109 9.31845 6.61515 9.31845C6.59922 9.31845 6.56736 9.31051 6.56736 9.26522V9.09996C6.56736 9.05467 6.557 8.99826 6.49566 8.99826C6.43591 8.99826 6.41122 9.05388 6.41122 9.10314V9.26522C6.41122 9.31051 6.37935 9.31845 6.36342 9.31845C6.34748 9.31845 6.31562 9.31051 6.31562 9.26522V9.08089C6.31562 9.03401 6.29331 8.99826 6.24472 8.99826C6.18736 8.99826 6.16107 9.0507 6.16107 9.10155V9.26522C6.16107 9.31051 6.12921 9.31845 6.11327 9.31845C6.09734 9.31845 6.06548 9.31051 6.06548 9.26522Z" fill="#191C1F"/>
<path d="M7.16774 9.11903C7.16774 9.239 7.07533 9.32243 6.95982 9.32243C6.8443 9.32243 6.75189 9.239 6.75189 9.11903C6.75189 8.99905 6.8443 8.91881 6.95982 8.91881C7.07533 8.91881 7.16774 8.99905 7.16774 9.11903ZM7.07055 9.11903C7.07055 9.05944 7.0355 8.99667 6.95982 8.99667C6.88414 8.99667 6.84908 9.05944 6.84908 9.11903C6.84908 9.17862 6.88414 9.24297 6.95982 9.24297C7.0355 9.24297 7.07055 9.17862 7.07055 9.11903Z" fill="#191C1F"/>
<path d="M7.26043 9.26522V8.97283C7.26043 8.92993 7.29149 8.92278 7.30583 8.92278C7.32017 8.92278 7.35124 8.92993 7.35124 8.97283V8.99111H7.35284C7.36956 8.95297 7.41497 8.91881 7.47153 8.91881C7.57111 8.91881 7.61254 8.99508 7.61254 9.07294V9.26522C7.61254 9.31051 7.58067 9.31845 7.56474 9.31845C7.54881 9.31845 7.51694 9.31051 7.51694 9.26522V9.09996C7.51694 9.05467 7.50659 8.99826 7.44524 8.99826C7.3847 8.99826 7.35602 9.0507 7.35602 9.10155V9.26522C7.35602 9.31051 7.32416 9.31845 7.30822 9.31845C7.29229 9.31845 7.26043 9.31051 7.26043 9.26522Z" fill="#191C1F"/>
<path d="M8.03796 9.15081H7.79738C7.80136 9.20484 7.85076 9.24456 7.90652 9.24456C7.94635 9.24456 7.97025 9.23185 7.99415 9.21199C8.00769 9.20086 8.01646 9.19848 8.02681 9.19848C8.04832 9.19848 8.06505 9.21358 8.06505 9.23662C8.06505 9.24456 8.06186 9.25886 8.04912 9.27078C8.01168 9.30654 7.96866 9.32243 7.90732 9.32243C7.78941 9.32243 7.70179 9.24695 7.70179 9.123C7.70179 8.99985 7.78862 8.91881 7.90413 8.91881C7.99654 8.91881 8.07142 8.97125 8.08656 9.08327C8.08736 9.09122 8.08815 9.09678 8.08815 9.10314C8.08815 9.13651 8.06983 9.15081 8.03796 9.15081ZM7.79738 9.08248H7.99335C7.99335 9.03322 7.96547 8.99031 7.90333 8.99031C7.84677 8.99031 7.80136 9.02925 7.79738 9.08248Z" fill="#191C1F"/>
<path d="M8.51612 8.9919L8.35201 9.39314C8.32333 9.46306 8.28908 9.50199 8.20702 9.50199C8.1664 9.50199 8.15445 9.47815 8.15445 9.45909C8.15445 9.44002 8.16719 9.42333 8.18631 9.42015C8.19109 9.41936 8.19508 9.41936 8.20145 9.41936C8.22694 9.41936 8.25164 9.40347 8.26916 9.35977L8.28828 9.3113L8.14409 8.99508C8.13931 8.98396 8.13772 8.97363 8.13772 8.96727C8.13772 8.94264 8.15763 8.92278 8.18552 8.92278C8.20224 8.92278 8.22057 8.92993 8.23331 8.96012L8.33688 9.20722H8.33847L8.42769 8.96251C8.43964 8.92993 8.45876 8.92278 8.47469 8.92278C8.50178 8.92278 8.5217 8.94026 8.5217 8.96568C8.5217 8.97125 8.5209 8.97919 8.51612 8.9919Z" fill="#191C1F"/>
</g>
</g>
<defs>
<clipPath id="clip0_3207_77516">
<rect width="12" height="12" fill="white"/>
</clipPath>
<clipPath id="clip1_3207_77516">
<rect width="12" height="12" fill="white"/>
</clipPath>
</defs>
</svg>
