<svg width="40" height="40" viewBox="0 0 40 40" fill="none" xmlns="http://www.w3.org/2000/svg">
<g clip-path="url(#clip0_3207_77511)">
<g clip-path="url(#clip1_3207_77511)">
<path d="M0 20C0 31.0457 8.9543 40 20 40C31.0457 40 40 31.0457 40 20C40 8.9543 31.0457 0 20 0C8.9543 0 0 8.9543 0 20Z" fill="white"/>
<path d="M12.2794 12.8882C11.8034 12.8882 11.4062 13.2887 11.4062 13.7714V20.2653C11.4062 20.738 11.8034 21.1387 12.2794 21.1387C12.7554 21.1387 13.1426 20.7382 13.1426 20.2653V13.7714C13.1426 13.2887 12.7552 12.8882 12.2794 12.8882Z" fill="#191C1F"/>
<path d="M28.4481 15.4097C28.2445 14.9172 27.9327 14.4839 27.5487 14.0964C27.1647 13.732 26.7117 13.4267 26.2062 13.2166C25.6908 13.0066 25.1394 12.9014 24.565 12.9014H22.8778C22.8286 12.8882 22.7826 12.8882 22.7334 12.8882C22.2312 12.8882 21.8242 13.2855 21.8242 13.7812V20.2489C21.8242 20.7414 22.2082 21.1189 22.6974 21.1419H24.565C25.1394 21.1419 25.6908 21.0237 26.2062 20.8136C26.7084 20.6036 27.1646 20.3081 27.5487 19.9437C27.9327 19.5432 28.2445 19.1229 28.4481 18.6174C28.6647 18.1119 28.7697 17.5832 28.7697 17.0218C28.7697 16.4669 28.6647 15.9154 28.4481 15.4099V15.4097ZM26.3113 18.6994C25.8387 19.1623 25.215 19.3987 24.5324 19.3987H23.5608V14.6217H24.5324C25.2151 14.6217 25.8387 14.8812 26.3113 15.3341C26.7839 15.7838 27.0335 16.3781 27.0335 17.0183C27.0335 17.6584 26.7841 18.2493 26.3113 18.6992V18.6994Z" fill="#191C1F"/>
<path d="M23.2197 10.7454L20.6561 8.18123C20.4789 8.00399 20.2425 7.91857 20.0095 7.92517C19.7765 7.91857 19.5401 8.0006 19.3629 8.18123L16.7994 10.7454C16.458 11.0868 16.458 11.6384 16.7994 11.9798C17.1408 12.3213 17.6922 12.3213 18.0336 11.9798L19.1922 10.821V17.791L16.1034 13.3227C15.9492 13.0534 15.6636 12.8762 15.3354 12.8762C14.8496 12.8762 14.4492 13.2767 14.4492 13.7594V20.2468C14.4492 20.7294 14.8496 21.1299 15.3354 21.1299C15.8212 21.1299 16.2216 20.7294 16.2216 20.2468V16.2283L19.3596 20.7426C19.3596 20.7524 19.3596 20.7656 19.3727 20.7788C19.55 21.0021 19.7995 21.1335 20.0817 21.1335C20.5675 21.1335 20.9581 20.733 20.9581 20.2503V10.9554L21.9855 11.983C22.3269 12.3245 22.8783 12.3245 23.2197 11.983C23.5611 11.6416 23.5611 11.0867 23.2197 10.7454Z" fill="#191C1F"/>
<path d="M12.2794 12.8882C11.8034 12.8882 11.4062 13.2887 11.4062 13.7714V20.2653C11.4062 20.738 11.8034 21.1387 12.2794 21.1387C12.7554 21.1387 13.1426 20.7382 13.1426 20.2653V13.7714C13.1426 13.2887 12.7552 12.8882 12.2794 12.8882Z" fill="#191C1F"/>
<path d="M28.4481 15.4097C28.2445 14.9172 27.9327 14.4839 27.5487 14.0964C27.1647 13.732 26.7117 13.4267 26.2062 13.2166C25.6908 13.0066 25.1394 12.9014 24.565 12.9014H22.8778C22.8286 12.8882 22.7826 12.8882 22.7334 12.8882C22.2312 12.8882 21.8242 13.2855 21.8242 13.7812V20.2489C21.8242 20.7414 22.2082 21.1189 22.6974 21.1419H24.565C25.1394 21.1419 25.6908 21.0237 26.2062 20.8136C26.7084 20.6036 27.1646 20.3081 27.5487 19.9437C27.9327 19.5432 28.2445 19.1229 28.4481 18.6174C28.6647 18.1119 28.7697 17.5832 28.7697 17.0218C28.7697 16.4669 28.6647 15.9154 28.4481 15.4099V15.4097ZM26.3113 18.6994C25.8387 19.1623 25.215 19.3987 24.5324 19.3987H23.5608V14.6217H24.5324C25.2151 14.6217 25.8387 14.8812 26.3113 15.3341C26.7839 15.7838 27.0335 16.3781 27.0335 17.0183C27.0335 17.6584 26.7841 18.2493 26.3113 18.6992V18.6994Z" fill="#191C1F"/>
<path d="M23.2197 10.7454L20.6561 8.18123C20.4789 8.00399 20.2425 7.91857 20.0095 7.92517C19.7765 7.91857 19.5401 8.0006 19.3629 8.18123L16.7994 10.7454C16.458 11.0868 16.458 11.6384 16.7994 11.9798C17.1408 12.3213 17.6922 12.3213 18.0336 11.9798L19.1922 10.821V17.791L16.1034 13.3227C15.9492 13.0534 15.6636 12.8762 15.3354 12.8762C14.8496 12.8762 14.4492 13.2767 14.4492 13.7594V20.2468C14.4492 20.7294 14.8496 21.1299 15.3354 21.1299C15.8212 21.1299 16.2216 20.7294 16.2216 20.2468V16.2283L19.3596 20.7426C19.3596 20.7524 19.3596 20.7656 19.3727 20.7788C19.55 21.0021 19.7995 21.1335 20.0817 21.1335C20.5675 21.1335 20.9581 20.733 20.9581 20.2503V10.9554L21.9855 11.983C22.3269 12.3245 22.8783 12.3245 23.2197 11.983C23.5611 11.6416 23.5611 11.0867 23.2197 10.7454Z" fill="#191C1F"/>
<path d="M27.5156 22.542C27.5156 22.3322 27.6857 22.1621 27.8955 22.1621C28.1053 22.1621 28.2754 22.3322 28.2754 22.542V26.3191C28.2754 26.5289 28.1053 26.699 27.8955 26.699C27.6857 26.699 27.5156 26.5289 27.5156 26.3191V22.542Z" fill="#191C1F"/>
<path d="M26.1606 26.3468C26.1606 26.3402 26.1552 26.3348 26.1486 26.3348C26.1443 26.3348 26.1403 26.3372 26.1381 26.3409C26.0619 26.4733 25.9407 26.5832 25.7744 26.6705C25.6055 26.7549 25.4135 26.7971 25.1982 26.7971C25.0758 26.7971 24.9471 26.7802 24.812 26.7465C24.6812 26.7169 24.5588 26.6663 24.4448 26.5945C24.3351 26.5185 24.2422 26.4214 24.1662 26.3032C24.0945 26.1807 24.0586 26.0309 24.0586 25.8536C24.0586 25.6256 24.1219 25.444 24.2485 25.3089C24.3794 25.1738 24.5461 25.0704 24.7487 24.9986C24.9513 24.9269 25.175 24.8804 25.4198 24.8593C25.6422 24.8367 25.8596 24.8242 26.0719 24.8218C26.1139 24.8213 26.1479 24.7873 26.1479 24.7453C26.1479 24.5553 26.0783 24.416 25.939 24.3274C25.8039 24.2345 25.6414 24.188 25.4515 24.188C25.2911 24.188 25.137 24.2218 24.9893 24.2894C24.9511 24.3068 24.9146 24.3253 24.8798 24.3447C24.7283 24.4293 24.5259 24.423 24.4135 24.2908C24.3106 24.1696 24.3201 23.9862 24.4528 23.8985C24.5678 23.8226 24.6918 23.7608 24.8247 23.7131C25.0526 23.6329 25.2826 23.5928 25.5148 23.5928C25.7849 23.5928 26.0065 23.6308 26.1796 23.7068C26.3569 23.7828 26.4961 23.882 26.5974 24.0044C26.6987 24.1268 26.7684 24.264 26.8064 24.416C26.8486 24.568 26.8697 24.72 26.8697 24.872V26.3666C26.8697 26.5624 26.711 26.7211 26.5151 26.7211H26.3537C26.2471 26.7211 26.1606 26.6347 26.1606 26.528V26.3468ZM26.1479 25.4419C26.1479 25.3825 26.0997 25.3343 26.0403 25.3343H25.977C25.8546 25.3343 25.7258 25.3406 25.5908 25.3533C25.4557 25.3617 25.3312 25.3849 25.2172 25.4229C25.1033 25.4567 25.0083 25.5074 24.9323 25.5749C24.8563 25.6382 24.8183 25.7269 24.8183 25.8409C24.8183 25.9127 24.8331 25.9739 24.8627 26.0245C24.8964 26.071 24.9386 26.109 24.9893 26.1385C25.0399 26.1681 25.0969 26.1892 25.1602 26.2019C25.2236 26.2145 25.2869 26.2209 25.3502 26.2209C25.6119 26.2209 25.8103 26.1512 25.9453 26.0119C26.0804 25.8726 26.1479 25.6826 26.1479 25.4419Z" fill="#191C1F"/>
<path d="M20.8955 22.1621C21.1053 22.1621 21.2754 22.3322 21.2754 22.542V24.0329C21.2754 24.0399 21.281 24.0456 21.288 24.0456C21.292 24.0456 21.2958 24.0437 21.2982 24.0405C21.3356 23.9914 21.3829 23.9403 21.44 23.8873C21.4991 23.8324 21.5687 23.7817 21.6489 23.7353C21.7333 23.6888 21.8304 23.6508 21.9402 23.6213C22.0499 23.5875 22.1744 23.5706 22.3137 23.5706C22.529 23.5706 22.7274 23.6128 22.9089 23.6973C23.0904 23.7775 23.2465 23.8894 23.3774 24.0329C23.5082 24.1764 23.6095 24.3453 23.6813 24.5395C23.753 24.7337 23.7889 24.9427 23.7889 25.1665C23.7889 25.3902 23.753 25.6013 23.6813 25.7997C23.6137 25.9939 23.5145 26.1649 23.3837 26.3127C23.2571 26.4562 23.1009 26.5723 22.9152 26.661C22.7337 26.7454 22.5269 26.7876 22.2947 26.7876C22.0795 26.7876 21.8769 26.7412 21.6869 26.6483C21.5026 26.5561 21.3577 26.4223 21.2524 26.247C21.2509 26.2445 21.2483 26.243 21.2455 26.243C21.241 26.243 21.2374 26.2466 21.2374 26.2511V26.471C21.2374 26.5969 21.1353 26.699 21.0094 26.699H20.8765C20.6772 26.699 20.5156 26.5374 20.5156 26.3381V22.542C20.5156 22.3322 20.6857 22.1621 20.8955 22.1621ZM23.0165 25.1665C23.0165 25.0483 22.9975 24.9322 22.9595 24.8182C22.9257 24.7 22.873 24.5944 22.8012 24.5015C22.7295 24.4086 22.6387 24.3348 22.529 24.2799C22.4192 24.2208 22.2905 24.1912 22.1428 24.1912C22.0035 24.1912 21.879 24.2208 21.7692 24.2799C21.6595 24.339 21.5645 24.415 21.4843 24.5079C21.4083 24.6007 21.3492 24.7063 21.307 24.8245C21.269 24.9427 21.2501 25.0609 21.2501 25.1791C21.2501 25.2973 21.269 25.4156 21.307 25.5338C21.3492 25.6478 21.4083 25.7512 21.4843 25.8441C21.5645 25.9369 21.6595 26.0129 21.7692 26.072C21.879 26.1269 22.0035 26.1544 22.1428 26.1544C22.2905 26.1544 22.4192 26.1248 22.529 26.0657C22.6387 26.0066 22.7295 25.9306 22.8012 25.8377C22.873 25.7449 22.9257 25.6393 22.9595 25.5211C22.9975 25.4029 23.0165 25.2847 23.0165 25.1665Z" fill="#191C1F"/>
<path d="M16.7109 25.1886C16.7109 24.948 16.7531 24.7306 16.8376 24.5363C16.9262 24.3379 17.0444 24.1691 17.1921 24.0297C17.3398 23.8904 17.515 23.7828 17.7176 23.7068C17.9202 23.6308 18.1355 23.5928 18.3634 23.5928C18.5913 23.5928 18.8066 23.6308 19.0092 23.7068C19.2118 23.7828 19.387 23.8904 19.5347 24.0297C19.6824 24.1691 19.7985 24.3379 19.8829 24.5363C19.9716 24.7306 20.0159 24.948 20.0159 25.1886C20.0159 25.4293 19.9716 25.6488 19.8829 25.8472C19.7985 26.0456 19.6824 26.2166 19.5347 26.3602C19.387 26.4995 19.2118 26.6093 19.0092 26.6895C18.8066 26.7697 18.5913 26.8098 18.3634 26.8098C18.1355 26.8098 17.9202 26.7697 17.7176 26.6895C17.515 26.6093 17.3398 26.4995 17.1921 26.3602C17.0444 26.2166 16.9262 26.0456 16.8376 25.8472C16.7531 25.6488 16.7109 25.4293 16.7109 25.1886ZM17.4834 25.1886C17.4834 25.3068 17.5002 25.425 17.534 25.5433C17.572 25.6615 17.6269 25.767 17.6986 25.8599C17.7704 25.9528 17.8611 26.0288 17.9709 26.0879C18.0806 26.147 18.2115 26.1765 18.3634 26.1765C18.5154 26.1765 18.6462 26.147 18.7559 26.0879C18.8657 26.0288 18.9564 25.9528 19.0282 25.8599C19.0999 25.767 19.1527 25.6615 19.1865 25.5433C19.2245 25.425 19.2435 25.3068 19.2435 25.1886C19.2435 25.0704 19.2245 24.9543 19.1865 24.8403C19.1527 24.7221 19.0999 24.6166 19.0282 24.5237C18.9564 24.4308 18.8657 24.3569 18.7559 24.302C18.6462 24.2429 18.5154 24.2134 18.3634 24.2134C18.2115 24.2134 18.0806 24.2429 17.9709 24.302C17.8611 24.3569 17.7704 24.4308 17.6986 24.5237C17.6269 24.6166 17.572 24.7221 17.534 24.8403C17.5002 24.9543 17.4834 25.0704 17.4834 25.1886Z" fill="#191C1F"/>
<path d="M15.4609 22.542C15.4609 22.3322 15.631 22.1621 15.8408 22.1621C16.0506 22.1621 16.2207 22.3322 16.2207 22.542V26.3191C16.2207 26.5289 16.0506 26.699 15.8408 26.699C15.631 26.699 15.4609 26.5289 15.4609 26.3191V22.542Z" fill="#191C1F"/>
<path d="M14.4256 23.6814C14.6249 23.6814 14.7865 23.843 14.7865 24.0423V26.4488C14.7865 26.7232 14.7527 26.9702 14.6852 27.1898C14.6176 27.4135 14.5121 27.6014 14.3686 27.7534C14.2293 27.9096 14.052 28.0299 13.8368 28.1143C13.6215 28.1988 13.3662 28.241 13.0707 28.241C12.9483 28.241 12.8174 28.2304 12.6782 28.2093C12.5431 28.1882 12.408 28.1566 12.273 28.1143C12.1421 28.0721 12.0155 28.0193 11.8931 27.956C11.8756 27.947 11.8583 27.9377 11.8413 27.9283C11.6768 27.8373 11.6517 27.6223 11.7637 27.4713C11.8898 27.3012 12.1355 27.284 12.3214 27.3853C12.3791 27.4168 12.4389 27.4445 12.5009 27.4684C12.6866 27.5444 12.8744 27.5824 13.0644 27.5824C13.2459 27.5824 13.3978 27.5549 13.5202 27.5001C13.6468 27.4494 13.746 27.3776 13.8178 27.2847C13.8938 27.1919 13.9465 27.0821 13.9761 26.9554C14.0098 26.8288 14.0267 26.6895 14.0267 26.5375V26.3243C14.0267 26.3196 14.023 26.3158 14.0183 26.3158C14.0156 26.3158 14.0131 26.3171 14.0115 26.3192C13.9021 26.4654 13.7616 26.5782 13.5899 26.6578C13.421 26.7338 13.2311 26.7718 13.02 26.7718C12.7921 26.7718 12.5853 26.7296 12.3996 26.6451C12.2139 26.5607 12.0556 26.4467 11.9247 26.3032C11.7981 26.1596 11.6989 25.9929 11.6272 25.8029C11.5554 25.6087 11.5195 25.4039 11.5195 25.1886C11.5195 24.9691 11.5533 24.7622 11.6208 24.568C11.6926 24.3738 11.7918 24.2049 11.9184 24.0614C12.0492 23.9179 12.2054 23.8039 12.3869 23.7194C12.5726 23.635 12.7795 23.5928 13.0074 23.5928C13.2226 23.5928 13.4231 23.6371 13.6089 23.7258C13.7933 23.8138 13.9402 23.9497 14.0497 24.1334C14.0512 24.1359 14.0538 24.1374 14.0567 24.1374C14.0611 24.1374 14.0647 24.1338 14.0647 24.1293V23.9094C14.0647 23.7835 14.1668 23.6814 14.2927 23.6814H14.4256ZM13.1657 24.2134C13.0264 24.2134 12.9019 24.2387 12.7921 24.2894C12.6866 24.34 12.5959 24.4097 12.5199 24.4984C12.4481 24.5828 12.3911 24.6841 12.3489 24.8023C12.3109 24.9205 12.2919 25.0472 12.2919 25.1823C12.2919 25.3047 12.3109 25.4229 12.3489 25.5369C12.3911 25.6509 12.4481 25.7543 12.5199 25.8472C12.5959 25.9359 12.6866 26.0077 12.7921 26.0625C12.9019 26.1174 13.0243 26.1449 13.1593 26.1449C13.2986 26.1449 13.4231 26.1195 13.5329 26.0689C13.6468 26.014 13.7418 25.9422 13.8178 25.8536C13.898 25.7649 13.9592 25.6636 14.0014 25.5496C14.0436 25.4314 14.0647 25.3089 14.0647 25.1823C14.0647 25.0514 14.0436 24.9269 14.0014 24.8087C13.9592 24.6904 13.898 24.587 13.8178 24.4984C13.7418 24.4097 13.649 24.34 13.5392 24.2894C13.4295 24.2387 13.305 24.2134 13.1657 24.2134Z" fill="#191C1F"/>
<path d="M12.8769 30.4127C12.8769 30.1373 12.7069 29.9122 12.4068 29.9122C12.128 29.9122 11.9289 30.1294 11.9289 30.4127C11.9289 30.6961 12.128 30.9106 12.4068 30.9106C12.7069 30.9106 12.8769 30.6882 12.8769 30.4127ZM11.7695 30.953V29.1097C11.7695 29.025 11.8306 29.0117 11.8598 29.0117C11.889 29.0117 11.9501 29.025 11.9501 29.1097V30.0075H11.9554C12.0616 29.846 12.2475 29.7612 12.4254 29.7612C12.8131 29.7612 13.068 30.0473 13.068 30.4127C13.068 30.7782 12.8131 31.0643 12.4254 31.0643C12.2475 31.0643 12.0616 30.9795 11.9554 30.8232H11.9501V30.953C11.9501 31.0378 11.889 31.051 11.8598 31.051C11.8306 31.051 11.7695 31.0378 11.7695 30.953Z" fill="#191C1F"/>
<path d="M14.4375 29.9069L13.8507 31.3529C13.7736 31.5436 13.6754 31.6681 13.4603 31.6681C13.4284 31.6681 13.3833 31.6654 13.3541 31.6575C13.3089 31.6443 13.2877 31.6151 13.2877 31.578C13.2877 31.5357 13.3196 31.5012 13.3647 31.5012C13.378 31.5012 13.3913 31.5039 13.4072 31.5065C13.4284 31.5092 13.4391 31.5092 13.4523 31.5092C13.5718 31.5092 13.6356 31.4297 13.6887 31.2894L13.7896 31.0298L13.2957 29.9122C13.2877 29.891 13.285 29.8751 13.285 29.8619C13.285 29.8115 13.3275 29.7745 13.378 29.7745C13.4072 29.7745 13.4444 29.7851 13.4683 29.846L13.8825 30.8391H13.8878L14.2676 29.846C14.2888 29.7877 14.326 29.7745 14.3552 29.7745C14.4083 29.7745 14.4481 29.8115 14.4481 29.8592C14.4481 29.8698 14.4455 29.8857 14.4375 29.9069Z" fill="#191C1F"/>
<path d="M15.7182 29.3216V30.8683C15.7182 31.0272 15.6066 31.0563 15.5509 31.0563C15.4951 31.0563 15.3836 31.0272 15.3836 30.8683V29.3216C15.3836 29.1627 15.4951 29.1335 15.5509 29.1335C15.6066 29.1335 15.7182 29.1627 15.7182 29.3216Z" fill="#191C1F"/>
<path d="M17.3466 30.9027L16.4729 29.7003H16.4676V30.8683C16.4676 31.0272 16.3561 31.0563 16.3003 31.0563C16.2446 31.0563 16.133 31.0272 16.133 30.8683V29.3772C16.133 29.1706 16.2764 29.1335 16.3428 29.1335C16.4172 29.1335 16.4889 29.1653 16.5765 29.2872L17.4501 30.4869H17.4554V29.3216C17.4554 29.1627 17.567 29.1335 17.6227 29.1335C17.6785 29.1335 17.79 29.1627 17.79 29.3216V30.8126C17.79 31.0192 17.6466 31.0563 17.5802 31.0563C17.5032 31.0563 17.4368 31.0245 17.3466 30.9027Z" fill="#191C1F"/>
<path d="M18.8715 31.0325H18.4042C18.2687 31.0325 18.205 30.9689 18.205 30.8338V29.356C18.205 29.2209 18.2687 29.1574 18.4042 29.1574H18.8715C19.3628 29.1574 19.9098 29.3904 19.9098 30.0949C19.9098 30.7517 19.3628 31.0325 18.8715 31.0325ZM18.5396 29.4434V30.7411H18.8184C19.1636 30.7411 19.5513 30.6008 19.5513 30.0949C19.5513 29.5573 19.1636 29.4434 18.8184 29.4434H18.5396Z" fill="#191C1F"/>
<path d="M20.217 30.8789V29.9042C20.217 29.7612 20.3205 29.7374 20.3683 29.7374C20.4161 29.7374 20.5197 29.7612 20.5197 29.9042V29.9652H20.525C20.5807 29.8407 20.7162 29.7241 20.9206 29.7241C21.1171 29.7241 21.2473 29.8221 21.319 29.9652C21.4039 29.8115 21.5473 29.7241 21.7385 29.7241C22.0705 29.7241 22.2085 29.9784 22.2085 30.2379V30.8789C22.2085 31.0298 22.1023 31.0563 22.0492 31.0563C21.9961 31.0563 21.8899 31.0298 21.8899 30.8789V30.328C21.8899 30.177 21.8554 29.989 21.6509 29.989C21.4517 29.989 21.3694 30.1744 21.3694 30.3386V30.8789C21.3694 31.0298 21.2632 31.0563 21.2101 31.0563C21.157 31.0563 21.0508 31.0298 21.0508 30.8789V30.2644C21.0508 30.1082 20.9764 29.989 20.8144 29.989C20.6232 29.989 20.5356 30.1638 20.5356 30.3333V30.8789C20.5356 31.0298 20.4294 31.0563 20.3763 31.0563C20.3232 31.0563 20.217 31.0298 20.217 30.8789Z" fill="#191C1F"/>
<path d="M23.8912 30.3915C23.8912 30.7915 23.5831 31.0695 23.1981 31.0695C22.813 31.0695 22.505 30.7915 22.505 30.3915C22.505 29.9916 22.813 29.7241 23.1981 29.7241C23.5831 29.7241 23.8912 29.9916 23.8912 30.3915ZM23.5672 30.3915C23.5672 30.1929 23.4503 29.9837 23.1981 29.9837C22.9458 29.9837 22.829 30.1929 22.829 30.3915C22.829 30.5902 22.9458 30.8047 23.1981 30.8047C23.4503 30.8047 23.5672 30.5902 23.5672 30.3915Z" fill="#191C1F"/>
<path d="M24.2001 30.8789V29.9042C24.2001 29.7612 24.3037 29.7374 24.3515 29.7374C24.3993 29.7374 24.5028 29.7612 24.5028 29.9042V29.9652H24.5081C24.5639 29.838 24.7153 29.7241 24.9038 29.7241C25.2357 29.7241 25.3738 29.9784 25.3738 30.2379V30.8789C25.3738 31.0298 25.2676 31.0563 25.2145 31.0563C25.1614 31.0563 25.0552 31.0298 25.0552 30.8789V30.328C25.0552 30.177 25.0206 29.989 24.8162 29.989C24.6144 29.989 24.5188 30.1638 24.5188 30.3333V30.8789C24.5188 31.0298 24.4126 31.0563 24.3594 31.0563C24.3063 31.0563 24.2001 31.0298 24.2001 30.8789Z" fill="#191C1F"/>
<path d="M26.7919 30.4975H25.99C26.0032 30.6776 26.1679 30.81 26.3538 30.81C26.4865 30.81 26.5662 30.7676 26.6459 30.7014C26.691 30.6643 26.7202 30.6564 26.7547 30.6564C26.8264 30.6564 26.8822 30.7067 26.8822 30.7835C26.8822 30.81 26.8716 30.8577 26.8291 30.8974C26.7043 31.0166 26.5609 31.0695 26.3564 31.0695C25.9634 31.0695 25.6713 30.8179 25.6713 30.4048C25.6713 29.9943 25.9608 29.7241 26.3458 29.7241C26.6538 29.7241 26.9034 29.8989 26.9539 30.2724C26.9566 30.2989 26.9592 30.3174 26.9592 30.3386C26.9592 30.4498 26.8981 30.4975 26.7919 30.4975ZM25.99 30.2697H26.6432C26.6432 30.1055 26.5503 29.9625 26.3431 29.9625C26.1546 29.9625 26.0032 30.0923 25.99 30.2697Z" fill="#191C1F"/>
<path d="M28.3858 29.9678L27.8387 31.3053C27.7431 31.5383 27.629 31.6681 27.3554 31.6681C27.22 31.6681 27.1802 31.5886 27.1802 31.5251C27.1802 31.4615 27.2227 31.4059 27.2864 31.3953C27.3023 31.3927 27.3156 31.3927 27.3369 31.3927C27.4218 31.3927 27.5042 31.3397 27.5626 31.194L27.6263 31.0325L27.1457 29.9784C27.1297 29.9413 27.1244 29.9069 27.1244 29.8857C27.1244 29.8036 27.1908 29.7374 27.2838 29.7374C27.3395 29.7374 27.4006 29.7612 27.4431 29.8619L27.7883 30.6855H27.7936L28.091 29.8698C28.1308 29.7612 28.1946 29.7374 28.2477 29.7374C28.338 29.7374 28.4043 29.7957 28.4043 29.8804C28.4043 29.8989 28.4017 29.9254 28.3858 29.9678Z" fill="#191C1F"/>
</g>
</g>
<defs>
<clipPath id="clip0_3207_77511">
<rect width="40" height="40" fill="white"/>
</clipPath>
<clipPath id="clip1_3207_77511">
<rect width="40" height="40" fill="white"/>
</clipPath>
</defs>
</svg>
