<svg width="64" height="64" viewBox="0 0 64 64" fill="none" xmlns="http://www.w3.org/2000/svg">
<g clip-path="url(#clip0_3207_77510)">
<g clip-path="url(#clip1_3207_77510)">
<path d="M0 32C0 49.6731 14.3269 64 32 64C49.6731 64 64 49.6731 64 32C64 14.3269 49.6731 0 32 0C14.3269 0 0 14.3269 0 32Z" fill="white"/>
<path d="M19.6471 20.6157C18.8855 20.6157 18.25 21.2564 18.25 22.0288V32.4191C18.25 33.1754 18.8855 33.8165 19.6471 33.8165C20.4087 33.8165 21.0282 33.1757 21.0282 32.4191V22.0288C21.0282 21.2564 20.4084 20.6157 19.6471 20.6157Z" fill="#191C1F"/>
<path d="M45.5162 24.6501C45.1905 23.8621 44.6916 23.1688 44.0772 22.5489C43.4628 21.9657 42.738 21.4773 41.9291 21.1412C41.1045 20.8051 40.2222 20.6368 39.3032 20.6368H36.6037C36.525 20.6157 36.4514 20.6157 36.3727 20.6157C35.5692 20.6157 34.918 21.2513 34.918 22.0444V32.3929C34.918 33.1809 35.5324 33.7848 36.3151 33.8216H39.3032C40.2222 33.8216 41.1045 33.6325 41.9291 33.2964C42.7326 32.9603 43.4625 32.4876 44.0772 31.9044C44.6916 31.2636 45.1905 30.5912 45.5162 29.7824C45.8628 28.9735 46.0308 28.1276 46.0308 27.2295C46.0308 26.3416 45.8628 25.4592 45.5162 24.6504V24.6501ZM42.0974 29.9136C41.3412 30.6542 40.3432 31.0325 39.251 31.0325H37.6965V23.3894H39.251C40.3434 23.3894 41.3412 23.8045 42.0974 24.5291C42.8535 25.2487 43.2528 26.1996 43.2528 27.2238C43.2528 28.248 42.8538 29.1935 42.0974 29.9133V29.9136Z" fill="#191C1F"/>
<path d="M37.1499 17.1876L33.0483 13.085C32.7647 12.8014 32.3865 12.6648 32.0137 12.6753C31.6409 12.6648 31.2627 12.796 30.9791 13.085L26.8775 17.1876C26.3312 17.734 26.3312 18.6164 26.8775 19.1628C27.4237 19.7091 28.3059 19.7091 28.8521 19.1628L30.7059 17.3086V28.4607L25.7639 21.3114C25.5172 20.8806 25.0602 20.597 24.5351 20.597C23.7578 20.597 23.1172 21.2378 23.1172 22.0101V32.3899C23.1172 33.1622 23.7578 33.803 24.5351 33.803C25.3124 33.803 25.953 33.1622 25.953 32.3899V25.9603L30.9737 33.1833C30.9737 33.199 30.9737 33.2201 30.9948 33.2412C31.2784 33.5984 31.6777 33.8087 32.1292 33.8087C32.9065 33.8087 33.5314 33.1679 33.5314 32.3956V17.5237L35.1753 19.1679C35.7215 19.7143 36.6037 19.7143 37.1499 19.1679C37.6962 18.6216 37.6962 17.7337 37.1499 17.1876Z" fill="#191C1F"/>
<path d="M19.6471 20.6157C18.8855 20.6157 18.25 21.2564 18.25 22.0288V32.4191C18.25 33.1754 18.8855 33.8165 19.6471 33.8165C20.4087 33.8165 21.0282 33.1757 21.0282 32.4191V22.0288C21.0282 21.2564 20.4084 20.6157 19.6471 20.6157Z" fill="#191C1F"/>
<path d="M45.5162 24.6501C45.1905 23.8621 44.6916 23.1688 44.0772 22.5489C43.4628 21.9657 42.738 21.4773 41.9291 21.1412C41.1045 20.8051 40.2222 20.6368 39.3032 20.6368H36.6037C36.525 20.6157 36.4514 20.6157 36.3727 20.6157C35.5692 20.6157 34.918 21.2513 34.918 22.0444V32.3929C34.918 33.1809 35.5324 33.7848 36.3151 33.8216H39.3032C40.2222 33.8216 41.1045 33.6325 41.9291 33.2964C42.7326 32.9603 43.4625 32.4876 44.0772 31.9044C44.6916 31.2636 45.1905 30.5912 45.5162 29.7824C45.8628 28.9735 46.0308 28.1276 46.0308 27.2295C46.0308 26.3416 45.8628 25.4592 45.5162 24.6504V24.6501ZM42.0974 29.9136C41.3412 30.6542 40.3432 31.0325 39.251 31.0325H37.6965V23.3894H39.251C40.3434 23.3894 41.3412 23.8045 42.0974 24.5291C42.8535 25.2487 43.2528 26.1996 43.2528 27.2238C43.2528 28.248 42.8538 29.1935 42.0974 29.9133V29.9136Z" fill="#191C1F"/>
<path d="M37.1499 17.1876L33.0483 13.085C32.7647 12.8014 32.3865 12.6648 32.0137 12.6753C31.6409 12.6648 31.2627 12.796 30.9791 13.085L26.8775 17.1876C26.3312 17.734 26.3312 18.6164 26.8775 19.1628C27.4237 19.7091 28.3059 19.7091 28.8521 19.1628L30.7059 17.3086V28.4607L25.7639 21.3114C25.5172 20.8806 25.0602 20.597 24.5351 20.597C23.7578 20.597 23.1172 21.2378 23.1172 22.0101V32.3899C23.1172 33.1622 23.7578 33.803 24.5351 33.803C25.3124 33.803 25.953 33.1622 25.953 32.3899V25.9603L30.9737 33.1833C30.9737 33.199 30.9737 33.2201 30.9948 33.2412C31.2784 33.5984 31.6777 33.8087 32.1292 33.8087C32.9065 33.8087 33.5314 33.1679 33.5314 32.3956V17.5237L35.1753 19.1679C35.7215 19.7143 36.6037 19.7143 37.1499 19.1679C37.6962 18.6216 37.6962 17.7337 37.1499 17.1876Z" fill="#191C1F"/>
<path d="M44.0273 36.062C44.0273 35.7263 44.2995 35.4542 44.6351 35.4542C44.9708 35.4542 45.243 35.7263 45.243 36.062V42.1054C45.243 42.4411 44.9708 42.7132 44.6351 42.7132C44.2995 42.7132 44.0273 42.4411 44.0273 42.1054V36.062Z" fill="#191C1F"/>
<path d="M41.8554 42.1516C41.8554 42.141 41.8468 42.1324 41.8362 42.1324C41.8293 42.1324 41.8229 42.1362 41.8194 42.1422C41.6975 42.354 41.5035 42.5297 41.2374 42.6694C40.9673 42.8045 40.66 42.8721 40.3156 42.8721C40.1198 42.8721 39.9138 42.8451 39.6977 42.791C39.4883 42.7437 39.2925 42.6627 39.1101 42.5479C38.9345 42.4263 38.786 42.2709 38.6644 42.0818C38.5496 41.8859 38.4922 41.6461 38.4922 41.3624C38.4922 40.9976 38.5935 40.7071 38.7961 40.491C39.0054 40.2748 39.2722 40.1093 39.5964 39.9945C39.9205 39.8797 40.2785 39.8054 40.6702 39.7716C41.026 39.7354 41.3738 39.7154 41.7135 39.7115C41.7807 39.7107 41.8351 39.6564 41.8351 39.5892C41.8351 39.2852 41.7237 39.0623 41.5008 38.9205C41.2847 38.7719 41.0247 38.6976 40.7208 38.6976C40.4642 38.6976 40.2177 38.7516 39.9813 38.8597C39.9202 38.8876 39.8618 38.9171 39.8061 38.9482C39.5637 39.0836 39.2398 39.0735 39.0601 38.8619C38.8955 38.668 38.9106 38.3745 39.1229 38.2344C39.3069 38.1128 39.5053 38.0139 39.7179 37.9376C40.0826 37.8093 40.4507 37.7451 40.8221 37.7451C41.2543 37.7451 41.6089 37.8059 41.8858 37.9275C42.1694 38.0491 42.3923 38.2078 42.5543 38.4037C42.7164 38.5996 42.8279 38.8191 42.8886 39.0623C42.9562 39.3055 42.9899 39.5487 42.9899 39.7919V42.1832C42.9899 42.4965 42.736 42.7505 42.4227 42.7505H42.1644C41.9937 42.7505 41.8554 42.6121 41.8554 42.4415V42.1516ZM41.8351 40.7038C41.8351 40.6086 41.758 40.5315 41.6629 40.5315H41.5616C41.3658 40.5315 41.1598 40.5416 40.9437 40.5619C40.7276 40.5754 40.5283 40.6126 40.346 40.6734C40.1636 40.7274 40.0117 40.8085 39.8901 40.9165C39.7686 41.0179 39.7078 41.1597 39.7078 41.3421C39.7078 41.4569 39.7314 41.5549 39.7787 41.6359C39.8327 41.7102 39.9003 41.771 39.9813 41.8183C40.0624 41.8656 40.1535 41.8994 40.2548 41.9196C40.3561 41.9399 40.4574 41.95 40.5587 41.95C40.9774 41.95 41.2948 41.8386 41.5109 41.6157C41.7271 41.3928 41.8351 41.0888 41.8351 40.7038Z" fill="#191C1F"/>
<path d="M33.4359 35.4542C33.7716 35.4542 34.0437 35.7263 34.0437 36.062V38.4475C34.0437 38.4587 34.0528 38.4678 34.064 38.4678C34.0704 38.4678 34.0764 38.4648 34.0802 38.4597C34.1401 38.3811 34.2157 38.2994 34.3071 38.2145C34.4017 38.1266 34.5131 38.0456 34.6414 37.9713C34.7765 37.897 34.9318 37.8362 35.1074 37.7889C35.283 37.7349 35.4822 37.7078 35.7051 37.7078C36.0495 37.7078 36.3669 37.7754 36.6573 37.9105C36.9477 38.0388 37.1976 38.2178 37.4069 38.4475C37.6163 38.6772 37.7784 38.9474 37.8932 39.2581C38.008 39.5688 38.0654 39.9032 38.0654 40.2612C38.0654 40.6192 38.008 40.9569 37.8932 41.2744C37.7851 41.5852 37.6264 41.8587 37.417 42.0951C37.2144 42.3248 36.9646 42.5106 36.6674 42.6524C36.377 42.7875 36.0461 42.8551 35.6747 42.8551C35.3303 42.8551 35.0061 42.7808 34.7022 42.6322C34.4072 42.4847 34.1755 42.2706 34.007 41.99C34.0046 41.9861 34.0004 41.9837 33.9959 41.9837C33.9887 41.9837 33.983 41.9895 33.983 41.9966V42.3485C33.983 42.5499 33.8196 42.7132 33.6182 42.7132H33.4055C33.0866 42.7132 32.8281 42.4547 32.8281 42.1358V36.062C32.8281 35.7263 33.1002 35.4542 33.4359 35.4542ZM36.8295 40.2612C36.8295 40.0721 36.7991 39.8863 36.7383 39.7039C36.6843 39.5148 36.5999 39.3459 36.4851 39.1973C36.3703 39.0487 36.2251 38.9305 36.0495 38.8427C35.8739 38.7481 35.6679 38.7008 35.4316 38.7008C35.2087 38.7008 35.0095 38.7481 34.8339 38.8427C34.6583 38.9372 34.5063 39.0588 34.378 39.2074C34.2565 39.356 34.1619 39.5249 34.0944 39.714C34.0336 39.9032 34.0032 40.0923 34.0032 40.2815C34.0032 40.4706 34.0336 40.6597 34.0944 40.8489C34.1619 41.0312 34.2565 41.1967 34.378 41.3454C34.5063 41.494 34.6583 41.6155 34.8339 41.7101C35.0095 41.7979 35.2087 41.8418 35.4316 41.8418C35.6679 41.8418 35.8739 41.7946 36.0495 41.7C36.2251 41.6054 36.3703 41.4838 36.4851 41.3352C36.5999 41.1866 36.6843 41.0177 36.7383 40.8286C36.7991 40.6395 36.8295 40.4503 36.8295 40.2612Z" fill="#191C1F"/>
<path d="M26.7422 40.2985C26.7422 39.9134 26.8097 39.5656 26.9448 39.2548C27.0866 38.9374 27.2757 38.6672 27.5121 38.4442C27.7484 38.2213 28.0287 38.0491 28.3529 37.9275C28.677 37.8059 29.0215 37.7451 29.3861 37.7451C29.7508 37.7451 30.0952 37.8059 30.4194 37.9275C30.7436 38.0491 31.0238 38.2213 31.2602 38.4442C31.4966 38.6672 31.6823 38.9374 31.8174 39.2548C31.9592 39.5656 32.0301 39.9134 32.0301 40.2985C32.0301 40.6835 31.9592 41.0348 31.8174 41.3522C31.6823 41.6697 31.4966 41.9433 31.2602 42.173C31.0238 42.3959 30.7436 42.5715 30.4194 42.6998C30.0952 42.8282 29.7508 42.8924 29.3861 42.8924C29.0215 42.8924 28.677 42.8282 28.3529 42.6998C28.0287 42.5715 27.7484 42.3959 27.5121 42.173C27.2757 41.9433 27.0866 41.6697 26.9448 41.3522C26.8097 41.0348 26.7422 40.6835 26.7422 40.2985ZM27.9781 40.2985C27.9781 40.4876 28.0051 40.6767 28.0591 40.8659C28.1199 41.055 28.2077 41.2239 28.3225 41.3725C28.4373 41.5211 28.5825 41.6427 28.7581 41.7373C28.9337 41.8318 29.143 41.8791 29.3861 41.8791C29.6293 41.8791 29.8386 41.8318 30.0142 41.7373C30.1898 41.6427 30.335 41.5211 30.4498 41.3725C30.5646 41.2239 30.649 41.055 30.703 40.8659C30.7638 40.6767 30.7942 40.4876 30.7942 40.2985C30.7942 40.1093 30.7638 39.9236 30.703 39.7412C30.649 39.5521 30.5646 39.3832 30.4498 39.2346C30.335 39.086 30.1898 38.9678 30.0142 38.8799C29.8386 38.7854 29.6293 38.7381 29.3861 38.7381C29.143 38.7381 28.9337 38.7854 28.7581 38.8799C28.5825 38.9678 28.4373 39.086 28.3225 39.2346C28.2077 39.3832 28.1199 39.5521 28.0591 39.7412C28.0051 39.9236 27.9781 40.1093 27.9781 40.2985Z" fill="#191C1F"/>
<path d="M24.7383 36.062C24.7383 35.7263 25.0104 35.4542 25.3461 35.4542C25.6818 35.4542 25.9539 35.7263 25.9539 36.062V42.1054C25.9539 42.4411 25.6818 42.7132 25.3461 42.7132C25.0104 42.7132 24.7383 42.4411 24.7383 42.1054V36.062Z" fill="#191C1F"/>
<path d="M23.0833 37.887C23.4022 37.887 23.6607 38.1455 23.6607 38.4644V42.3148C23.6607 42.7539 23.6067 43.149 23.4986 43.5003C23.3906 43.8583 23.2217 44.1589 22.9921 44.4021C22.7693 44.652 22.4856 44.8445 22.1412 44.9796C21.7968 45.1147 21.3882 45.1823 20.9155 45.1823C20.7196 45.1823 20.5103 45.1654 20.2874 45.1316C20.0713 45.0978 19.8552 45.0472 19.6391 44.9796C19.4297 44.9121 19.2271 44.8276 19.0313 44.7263C19.0033 44.7118 18.9757 44.6971 18.9485 44.682C18.6853 44.5363 18.645 44.1924 18.8243 43.9507C19.0261 43.6787 19.4192 43.6511 19.7166 43.8132C19.8089 43.8635 19.9047 43.9078 20.0038 43.9461C20.3009 44.0677 20.6014 44.1285 20.9053 44.1285C21.1957 44.1285 21.4388 44.0846 21.6347 43.9968C21.8373 43.9157 21.996 43.8009 22.1108 43.6523C22.2324 43.5037 22.3168 43.328 22.3641 43.1254C22.4181 42.9227 22.4451 42.6998 22.4451 42.4567V42.1155C22.4451 42.1081 22.4391 42.102 22.4316 42.102C22.4274 42.102 22.4233 42.1041 22.4208 42.1075C22.2458 42.3412 22.0209 42.5218 21.7461 42.6492C21.476 42.7708 21.1721 42.8316 20.8344 42.8316C20.4697 42.8316 20.1388 42.764 19.8417 42.6289C19.5445 42.4938 19.2913 42.3114 19.0819 42.0818C18.8793 41.8521 18.7206 41.5853 18.6058 41.2813C18.491 40.9706 18.4336 40.643 18.4336 40.2985C18.4336 39.9472 18.4876 39.6162 18.5957 39.3055C18.7105 38.9948 18.8692 38.7246 19.0718 38.4949C19.2811 38.2652 19.531 38.0829 19.8214 37.9478C20.1186 37.8127 20.4495 37.7451 20.8142 37.7451C21.1586 37.7451 21.4794 37.816 21.7765 37.9579C22.0715 38.0987 22.3067 38.3162 22.4819 38.6102C22.4842 38.6141 22.4884 38.6165 22.493 38.6165C22.5001 38.6165 22.5059 38.6107 22.5059 38.6036V38.2517C22.5059 38.0503 22.6692 37.887 22.8706 37.887H23.0833ZM21.0674 38.7381C20.8446 38.7381 20.6453 38.7786 20.4697 38.8597C20.3009 38.9407 20.1557 39.0522 20.0341 39.194C19.9193 39.3291 19.8282 39.4913 19.7606 39.6804C19.6999 39.8695 19.6695 40.0722 19.6695 40.2883C19.6695 40.4842 19.6999 40.6734 19.7606 40.8557C19.8282 41.0381 19.9193 41.2036 20.0341 41.3522C20.1557 41.4941 20.3009 41.6089 20.4697 41.6967C20.6453 41.7845 20.8412 41.8285 21.0573 41.8285C21.2801 41.8285 21.4794 41.7879 21.655 41.7069C21.8373 41.6191 21.9892 41.5042 22.1108 41.3624C22.2391 41.2205 22.337 41.0584 22.4046 40.876C22.4721 40.6869 22.5059 40.491 22.5059 40.2883C22.5059 40.0789 22.4721 39.8797 22.4046 39.6905C22.337 39.5014 22.2391 39.3359 22.1108 39.194C21.9892 39.0522 21.8407 38.9407 21.6651 38.8597C21.4895 38.7786 21.2903 38.7381 21.0674 38.7381Z" fill="#191C1F"/>
<path d="M20.6037 48.6589C20.6037 48.2182 20.3318 47.858 19.8517 47.858C19.4056 47.858 19.087 48.2055 19.087 48.6589C19.087 49.1123 19.4056 49.4555 19.8517 49.4555C20.3318 49.4555 20.6037 49.0996 20.6037 48.6589ZM18.832 49.5233V46.574C18.832 46.4384 18.9298 46.4172 18.9765 46.4172C19.0232 46.4172 19.1209 46.4384 19.1209 46.574V48.0105H19.1294C19.2994 47.752 19.5968 47.6164 19.8815 47.6164C20.5018 47.6164 20.9097 48.0741 20.9097 48.6589C20.9097 49.2436 20.5018 49.7013 19.8815 49.7013C19.5968 49.7013 19.2994 49.5657 19.1294 49.3157H19.1209V49.5233C19.1209 49.6589 19.0232 49.6801 18.9765 49.6801C18.9298 49.6801 18.832 49.6589 18.832 49.5233Z" fill="#191C1F"/>
<path d="M23.1008 47.8495L22.1618 50.1632C22.0386 50.4683 21.8814 50.6674 21.5373 50.6674C21.4863 50.6674 21.4141 50.6632 21.3673 50.6505C21.2951 50.6293 21.2611 50.5827 21.2611 50.5234C21.2611 50.4556 21.3121 50.4005 21.3843 50.4005C21.4056 50.4005 21.4268 50.4047 21.4523 50.4089C21.4863 50.4132 21.5033 50.4132 21.5245 50.4132C21.7157 50.4132 21.8177 50.2861 21.9027 50.0615L22.0641 49.6462L21.2738 47.858C21.2611 47.8241 21.2568 47.7987 21.2568 47.7775C21.2568 47.697 21.3248 47.6376 21.4056 47.6376C21.4523 47.6376 21.5118 47.6546 21.55 47.752L22.2128 49.3411H22.2213L22.8289 47.752C22.8629 47.6588 22.9223 47.6376 22.9691 47.6376C23.0541 47.6376 23.1178 47.697 23.1178 47.7732C23.1178 47.7902 23.1135 47.8156 23.1008 47.8495Z" fill="#191C1F"/>
<path d="M25.1499 46.913V49.3877C25.1499 49.642 24.9714 49.6886 24.8822 49.6886C24.793 49.6886 24.6145 49.642 24.6145 49.3877V46.913C24.6145 46.6588 24.793 46.6122 24.8822 46.6122C24.9714 46.6122 25.1499 46.6588 25.1499 46.913Z" fill="#191C1F"/>
<path d="M27.7553 49.4428L26.3575 47.519H26.349V49.3877C26.349 49.642 26.1705 49.6886 26.0813 49.6886C25.9921 49.6886 25.8136 49.642 25.8136 49.3877V47.002C25.8136 46.6715 26.0431 46.6122 26.1493 46.6122C26.2682 46.6122 26.3829 46.663 26.5232 46.8579L27.921 48.7775H27.9295V46.913C27.9295 46.6588 28.1079 46.6122 28.1971 46.6122C28.2864 46.6122 28.4648 46.6588 28.4648 46.913V49.2987C28.4648 49.6293 28.2354 49.6886 28.1292 49.6886C28.006 49.6886 27.8997 49.6377 27.7553 49.4428Z" fill="#191C1F"/>
<path d="M30.1952 49.6504H29.4474C29.2307 49.6504 29.1288 49.5487 29.1288 49.3326V46.9681C29.1288 46.752 29.2307 46.6503 29.4474 46.6503H30.1952C30.9812 46.6503 31.8564 47.0232 31.8564 48.1504C31.8564 49.2013 30.9812 49.6504 30.1952 49.6504ZM29.6641 47.1079V49.1843H30.1102C30.6626 49.1843 31.2829 48.9597 31.2829 48.1504C31.2829 47.2902 30.6626 47.1079 30.1102 47.1079H29.6641Z" fill="#191C1F"/>
<path d="M32.3479 49.4047V47.8453C32.3479 47.6164 32.5136 47.5783 32.5901 47.5783C32.6666 47.5783 32.8323 47.6164 32.8323 47.8453V47.9427H32.8408C32.93 47.7436 33.1467 47.5571 33.4738 47.5571C33.7882 47.5571 33.9964 47.7139 34.1111 47.9427C34.2471 47.697 34.4765 47.5571 34.7824 47.5571C35.3135 47.5571 35.5344 47.9639 35.5344 48.3792V49.4047C35.5344 49.6462 35.3645 49.6886 35.2795 49.6886C35.1945 49.6886 35.0246 49.6462 35.0246 49.4047V48.5233C35.0246 48.2817 34.9694 47.9809 34.6422 47.9809C34.3236 47.9809 34.1918 48.2775 34.1918 48.5402V49.4047C34.1918 49.6462 34.0219 49.6886 33.9369 49.6886C33.8519 49.6886 33.682 49.6462 33.682 49.4047V48.4216C33.682 48.1716 33.563 47.9809 33.3039 47.9809C32.998 47.9809 32.8577 48.2605 32.8577 48.5317V49.4047C32.8577 49.6462 32.6878 49.6886 32.6028 49.6886C32.5179 49.6886 32.3479 49.6462 32.3479 49.4047Z" fill="#191C1F"/>
<path d="M38.2266 48.625C38.2266 49.2648 37.7338 49.7098 37.1177 49.7098C36.5016 49.7098 36.0088 49.2648 36.0088 48.625C36.0088 47.9851 36.5016 47.5571 37.1177 47.5571C37.7338 47.5571 38.2266 47.9851 38.2266 48.625ZM37.7083 48.625C37.7083 48.3072 37.5213 47.9724 37.1177 47.9724C36.7141 47.9724 36.5271 48.3072 36.5271 48.625C36.5271 48.9428 36.7141 49.286 37.1177 49.286C37.5213 49.286 37.7083 48.9428 37.7083 48.625Z" fill="#191C1F"/>
<path d="M38.721 49.4047V47.8453C38.721 47.6164 38.8867 47.5783 38.9631 47.5783C39.0396 47.5783 39.2053 47.6164 39.2053 47.8453V47.9427H39.2138C39.303 47.7393 39.5452 47.5571 39.8469 47.5571C40.378 47.5571 40.5989 47.9639 40.5989 48.3792V49.4047C40.5989 49.6462 40.4289 49.6886 40.344 49.6886C40.259 49.6886 40.0891 49.6462 40.0891 49.4047V48.5233C40.0891 48.2817 40.0338 47.9809 39.7067 47.9809C39.3838 47.9809 39.2308 48.2605 39.2308 48.5317V49.4047C39.2308 49.6462 39.0609 49.6886 38.9759 49.6886C38.8909 49.6886 38.721 49.6462 38.721 49.4047Z" fill="#191C1F"/>
<path d="M42.8678 48.7945H41.5847C41.606 49.0826 41.8694 49.2945 42.1668 49.2945C42.3792 49.2945 42.5067 49.2267 42.6342 49.1208C42.7064 49.0614 42.7531 49.0487 42.8084 49.0487C42.9231 49.0487 43.0123 49.1292 43.0123 49.2521C43.0123 49.2945 42.9953 49.3708 42.9273 49.4343C42.7276 49.625 42.4982 49.7098 42.1711 49.7098C41.5422 49.7098 41.0749 49.3072 41.0749 48.6462C41.0749 47.9893 41.538 47.5571 42.1541 47.5571C42.6469 47.5571 43.0463 47.8368 43.127 48.4343C43.1313 48.4767 43.1355 48.5063 43.1355 48.5402C43.1355 48.7182 43.0378 48.7945 42.8678 48.7945ZM41.5847 48.43H42.6299C42.6299 48.1673 42.4812 47.9385 42.1498 47.9385C41.8482 47.9385 41.606 48.1461 41.5847 48.43Z" fill="#191C1F"/>
<path d="M45.418 47.947L44.5428 50.0869C44.3898 50.4598 44.2071 50.6674 43.7695 50.6674C43.5528 50.6674 43.4891 50.5403 43.4891 50.4386C43.4891 50.3369 43.5571 50.2479 43.659 50.231C43.6845 50.2267 43.7058 50.2267 43.7398 50.2267C43.8757 50.2267 44.0074 50.142 44.1009 49.9089L44.2029 49.6504L43.4338 47.9639C43.4084 47.9046 43.3999 47.8495 43.3999 47.8156C43.3999 47.6842 43.5061 47.5783 43.6548 47.5783C43.744 47.5783 43.8417 47.6164 43.9097 47.7775L44.462 49.0953H44.4705L44.9464 47.7902C45.0101 47.6164 45.1121 47.5783 45.1971 47.5783C45.3415 47.5783 45.4477 47.6715 45.4477 47.8071C45.4477 47.8368 45.4435 47.8792 45.418 47.947Z" fill="#191C1F"/>
</g>
</g>
<defs>
<clipPath id="clip0_3207_77510">
<rect width="64" height="64" fill="white"/>
</clipPath>
<clipPath id="clip1_3207_77510">
<rect width="64" height="64" fill="white"/>
</clipPath>
</defs>
</svg>
