<svg width="32" height="32" viewBox="0 0 32 32" fill="none" xmlns="http://www.w3.org/2000/svg">
<g clip-path="url(#clip0_3207_77519)">
<g clip-path="url(#clip1_3207_77519)">
<path d="M0 16C0 24.8366 7.16344 32 16 32C24.8366 32 32 24.8366 32 16C32 7.16344 24.8366 0 16 0C7.16344 0 0 7.16344 0 16Z" fill="white"/>
<path d="M8.6923 10.3711C8.24677 10.3711 7.875 10.746 7.875 11.1978V17.2761C7.875 17.7186 8.24677 18.0936 8.6923 18.0936C9.13783 18.0936 9.50026 17.7188 9.50026 17.2761V11.1978C9.50026 10.746 9.13766 10.3711 8.6923 10.3711Z" fill="#191C1F"/>
<path d="M23.825 12.7312C23.6344 12.2703 23.3426 11.8647 22.9832 11.502C22.6237 11.1609 22.1997 10.8751 21.7265 10.6785C21.2441 10.4819 20.728 10.3834 20.1904 10.3834H18.6112C18.5651 10.3711 18.5221 10.3711 18.476 10.3711C18.006 10.3711 17.625 10.743 17.625 11.2069V17.2608C17.625 17.7218 17.9844 18.0751 18.4423 18.0966H20.1904C20.728 18.0966 21.2441 17.986 21.7265 17.7894C22.1966 17.5928 22.6236 17.3162 22.9832 16.9751C23.3426 16.6002 23.6344 16.2068 23.825 15.7336C24.0277 15.2605 24.126 14.7656 24.126 14.2402C24.126 13.7208 24.0277 13.2046 23.825 12.7314V12.7312ZM21.825 15.8104C21.3826 16.2437 20.7988 16.465 20.1598 16.465H19.2504V11.9937H20.1598C20.7989 11.9937 21.3826 12.2366 21.825 12.6605C22.2673 13.0814 22.5009 13.6377 22.5009 14.2369C22.5009 14.836 22.2675 15.3892 21.825 15.8102V15.8104Z" fill="#191C1F"/>
<path d="M18.9319 8.37834L16.5324 5.9783C16.3665 5.8124 16.1452 5.73245 15.9271 5.73863C15.7091 5.73245 15.4878 5.80922 15.3219 5.9783L12.9224 8.37834C12.6029 8.69796 12.6029 9.21418 12.9224 9.5338C13.242 9.85342 13.7581 9.85342 14.0776 9.5338L15.1621 8.44911V14.9731L12.271 10.7907C12.1267 10.5387 11.8593 10.3728 11.5521 10.3728C11.0974 10.3728 10.7227 10.7477 10.7227 11.1995V17.2717C10.7227 17.7235 11.0974 18.0984 11.5521 18.0984C12.0068 18.0984 12.3816 17.7235 12.3816 17.2717V13.5104L15.3188 17.7358C15.3188 17.745 15.3188 17.7574 15.3311 17.7697C15.497 17.9787 15.7306 18.1017 15.9947 18.1017C16.4494 18.1017 16.815 17.7268 16.815 17.275V8.57495L17.7767 9.5368C18.0962 9.85642 18.6123 9.85642 18.9319 9.5368C19.2514 9.21719 19.2514 8.69779 18.9319 8.37834Z" fill="#191C1F"/>
<path d="M8.6923 10.3711C8.24677 10.3711 7.875 10.746 7.875 11.1978V17.2761C7.875 17.7186 8.24677 18.0936 8.6923 18.0936C9.13783 18.0936 9.50026 17.7188 9.50026 17.2761V11.1978C9.50026 10.746 9.13766 10.3711 8.6923 10.3711Z" fill="#191C1F"/>
<path d="M23.825 12.7312C23.6344 12.2703 23.3426 11.8647 22.9832 11.502C22.6237 11.1609 22.1997 10.8751 21.7265 10.6785C21.2441 10.4819 20.728 10.3834 20.1904 10.3834H18.6112C18.5651 10.3711 18.5221 10.3711 18.476 10.3711C18.006 10.3711 17.625 10.743 17.625 11.2069V17.2608C17.625 17.7218 17.9844 18.0751 18.4423 18.0966H20.1904C20.728 18.0966 21.2441 17.986 21.7265 17.7894C22.1966 17.5928 22.6236 17.3162 22.9832 16.9751C23.3426 16.6002 23.6344 16.2068 23.825 15.7336C24.0277 15.2605 24.126 14.7656 24.126 14.2402C24.126 13.7208 24.0277 13.2046 23.825 12.7314V12.7312ZM21.825 15.8104C21.3826 16.2437 20.7988 16.465 20.1598 16.465H19.2504V11.9937H20.1598C20.7989 11.9937 21.3826 12.2366 21.825 12.6605C22.2673 13.0814 22.5009 13.6377 22.5009 14.2369C22.5009 14.836 22.2675 15.3892 21.825 15.8102V15.8104Z" fill="#191C1F"/>
<path d="M18.9319 8.37834L16.5324 5.9783C16.3665 5.8124 16.1452 5.73245 15.9271 5.73863C15.7091 5.73245 15.4878 5.80922 15.3219 5.9783L12.9224 8.37834C12.6029 8.69796 12.6029 9.21418 12.9224 9.5338C13.242 9.85342 13.7581 9.85342 14.0776 9.5338L15.1621 8.44911V14.9731L12.271 10.7907C12.1267 10.5387 11.8593 10.3728 11.5521 10.3728C11.0974 10.3728 10.7227 10.7477 10.7227 11.1995V17.2717C10.7227 17.7235 11.0974 18.0984 11.5521 18.0984C12.0068 18.0984 12.3816 17.7235 12.3816 17.2717V13.5104L15.3188 17.7358C15.3188 17.745 15.3188 17.7574 15.3311 17.7697C15.497 17.9787 15.7306 18.1017 15.9947 18.1017C16.4494 18.1017 16.815 17.7268 16.815 17.275V8.57495L17.7767 9.5368C18.0962 9.85642 18.6123 9.85642 18.9319 9.5368C19.2514 9.21719 19.2514 8.69779 18.9319 8.37834Z" fill="#191C1F"/>
<path d="M22.9531 19.4298C22.9531 19.2334 23.1123 19.0742 23.3087 19.0742C23.5051 19.0742 23.6643 19.2334 23.6643 19.4298V22.9652C23.6643 23.1616 23.5051 23.3208 23.3087 23.3208C23.1123 23.3208 22.9531 23.1616 22.9531 22.9652V19.4298Z" fill="#191C1F"/>
<path d="M21.6823 22.9626C21.6823 22.9564 21.6773 22.9514 21.6711 22.9514C21.667 22.9514 21.6633 22.9535 21.6613 22.9571C21.59 23.081 21.4765 23.1838 21.3208 23.2655C21.1628 23.3445 20.983 23.3841 20.7815 23.3841C20.667 23.3841 20.5465 23.3683 20.4201 23.3366C20.2976 23.309 20.183 23.2616 20.0763 23.1944C19.9736 23.1233 19.8867 23.0324 19.8156 22.9217C19.7484 22.8071 19.7148 22.6668 19.7148 22.5009C19.7148 22.2875 19.7741 22.1176 19.8926 21.9911C20.0151 21.8647 20.1712 21.7678 20.3608 21.7007C20.5504 21.6335 20.7598 21.59 20.989 21.5703C21.1971 21.5491 21.4006 21.5374 21.5993 21.5351C21.6386 21.5347 21.6705 21.5028 21.6705 21.4636C21.6705 21.2857 21.6053 21.1553 21.4749 21.0724C21.3485 20.9854 21.1964 20.9419 21.0186 20.9419C20.8685 20.9419 20.7243 20.9736 20.586 21.0368C20.5502 21.0531 20.5161 21.0704 20.4835 21.0886C20.3417 21.1678 20.1522 21.1619 20.0471 21.0381C19.9508 20.9247 19.9596 20.753 20.0838 20.671C20.1915 20.5999 20.3075 20.542 20.4319 20.4974C20.6452 20.4223 20.8606 20.3848 21.0779 20.3848C21.3307 20.3848 21.5381 20.4203 21.7001 20.4915C21.866 20.5626 21.9964 20.6555 22.0912 20.7701C22.186 20.8846 22.2512 21.0131 22.2868 21.1553C22.3263 21.2976 22.346 21.4399 22.346 21.5821V22.9811C22.346 23.1644 22.1975 23.3129 22.0142 23.3129H21.8631C21.7633 23.3129 21.6823 23.232 21.6823 23.1321V22.9626ZM21.6705 22.1156C21.6705 22.0599 21.6254 22.0148 21.5697 22.0148H21.5105C21.3959 22.0148 21.2754 22.0207 21.149 22.0326C21.0225 22.0405 20.906 22.0622 20.7993 22.0978C20.6927 22.1294 20.6038 22.1768 20.5326 22.2401C20.4615 22.2993 20.426 22.3823 20.426 22.489C20.426 22.5562 20.4398 22.6135 20.4675 22.6609C20.4991 22.7044 20.5386 22.7399 20.586 22.7676C20.6334 22.7953 20.6867 22.815 20.746 22.8269C20.8053 22.8387 20.8645 22.8447 20.9238 22.8447C21.1687 22.8447 21.3544 22.7795 21.4808 22.6491C21.6073 22.5187 21.6705 22.3408 21.6705 22.1156Z" fill="#191C1F"/>
<path d="M16.7579 19.0742C16.9543 19.0742 17.1135 19.2334 17.1135 19.4298V20.8253C17.1135 20.8318 17.1188 20.8372 17.1253 20.8372C17.1291 20.8372 17.1326 20.8354 17.1348 20.8324C17.1698 20.7865 17.2141 20.7386 17.2676 20.689C17.3229 20.6376 17.3881 20.5902 17.4631 20.5467C17.5421 20.5032 17.633 20.4677 17.7357 20.44C17.8384 20.4084 17.955 20.3926 18.0854 20.3926C18.2869 20.3926 18.4725 20.4321 18.6424 20.5111C18.8123 20.5862 18.9585 20.6909 19.081 20.8253C19.2034 20.9597 19.2982 21.1177 19.3654 21.2995C19.4326 21.4813 19.4662 21.6769 19.4662 21.8863C19.4662 22.0957 19.4326 22.2933 19.3654 22.4791C19.3022 22.6608 19.2094 22.8209 19.0869 22.9592C18.9684 23.0935 18.8222 23.2022 18.6483 23.2852C18.4785 23.3642 18.2849 23.4037 18.0676 23.4037C17.8661 23.4037 17.6765 23.3603 17.4987 23.2733C17.3261 23.187 17.1906 23.0618 17.092 22.8977C17.0906 22.8954 17.0881 22.894 17.0855 22.894C17.0813 22.894 17.0779 22.8974 17.0779 22.9015V23.1074C17.0779 23.2252 16.9824 23.3208 16.8645 23.3208H16.7401C16.5536 23.3208 16.4023 23.1695 16.4023 22.983V19.4298C16.4023 19.2334 16.5615 19.0742 16.7579 19.0742ZM18.7432 21.8863C18.7432 21.7757 18.7254 21.667 18.6898 21.5603C18.6582 21.4497 18.6088 21.3509 18.5417 21.2639C18.4745 21.177 18.3896 21.1078 18.2869 21.0565C18.1841 21.0011 18.0636 20.9735 17.9254 20.9735C17.795 20.9735 17.6784 21.0011 17.5757 21.0565C17.473 21.1118 17.3841 21.1829 17.309 21.2699C17.2379 21.3568 17.1826 21.4556 17.1431 21.5662C17.1076 21.6769 17.0898 21.7875 17.0898 21.8982C17.0898 22.0088 17.1076 22.1195 17.1431 22.2301C17.1826 22.3368 17.2379 22.4336 17.309 22.5205C17.3841 22.6075 17.473 22.6786 17.5757 22.7339C17.6784 22.7853 17.795 22.811 17.9254 22.811C18.0636 22.811 18.1841 22.7833 18.2869 22.728C18.3896 22.6727 18.4745 22.6016 18.5417 22.5146C18.6088 22.4277 18.6582 22.3289 18.6898 22.2182C18.7254 22.1076 18.7432 21.997 18.7432 21.8863Z" fill="#191C1F"/>
<path d="M12.8398 21.8785C12.8398 21.6532 12.8794 21.4497 12.9584 21.268C13.0413 21.0822 13.152 20.9242 13.2902 20.7938C13.4285 20.6634 13.5925 20.5626 13.7821 20.4915C13.9717 20.4203 14.1732 20.3848 14.3866 20.3848C14.5999 20.3848 14.8014 20.4203 14.991 20.4915C15.1807 20.5626 15.3446 20.6634 15.4829 20.7938C15.6212 20.9242 15.7298 21.0822 15.8088 21.268C15.8918 21.4497 15.9333 21.6532 15.9333 21.8785C15.9333 22.1037 15.8918 22.3092 15.8088 22.4949C15.7298 22.6807 15.6212 22.8407 15.4829 22.9751C15.3446 23.1055 15.1807 23.2082 14.991 23.2833C14.8014 23.3584 14.5999 23.3959 14.3866 23.3959C14.1732 23.3959 13.9717 23.3584 13.7821 23.2833C13.5925 23.2082 13.4285 23.1055 13.2902 22.9751C13.152 22.8407 13.0413 22.6807 12.9584 22.4949C12.8794 22.3092 12.8398 22.1037 12.8398 21.8785ZM13.5628 21.8785C13.5628 21.9891 13.5786 22.0998 13.6102 22.2104C13.6458 22.3211 13.6972 22.4199 13.7643 22.5068C13.8315 22.5937 13.9164 22.6649 14.0191 22.7202C14.1219 22.7755 14.2443 22.8032 14.3866 22.8032C14.5288 22.8032 14.6513 22.7755 14.754 22.7202C14.8567 22.6649 14.9416 22.5937 15.0088 22.5068C15.076 22.4199 15.1254 22.3211 15.157 22.2104C15.1925 22.0998 15.2103 21.9891 15.2103 21.8785C15.2103 21.7678 15.1925 21.6592 15.157 21.5525C15.1254 21.4418 15.076 21.343 15.0088 21.2561C14.9416 21.1692 14.8567 21.1 14.754 21.0486C14.6513 20.9933 14.5288 20.9657 14.3866 20.9657C14.2443 20.9657 14.1219 20.9933 14.0191 21.0486C13.9164 21.1 13.8315 21.1692 13.7643 21.2561C13.6972 21.343 13.6458 21.4418 13.6102 21.5525C13.5786 21.6592 13.5628 21.7678 13.5628 21.8785Z" fill="#191C1F"/>
<path d="M11.668 19.4298C11.668 19.2334 11.8272 19.0742 12.0235 19.0742C12.2199 19.0742 12.3791 19.2334 12.3791 19.4298V22.9652C12.3791 23.1616 12.2199 23.3208 12.0235 23.3208C11.8272 23.3208 11.668 23.1616 11.668 22.9652V19.4298Z" fill="#191C1F"/>
<path d="M10.7006 20.4677C10.8871 20.4677 11.0384 20.619 11.0384 20.8055V23.058C11.0384 23.3149 11.0067 23.5461 10.9435 23.7516C10.8803 23.961 10.7816 24.1368 10.6472 24.2791C10.5169 24.4253 10.3509 24.5379 10.1494 24.617C9.94794 24.696 9.70892 24.7355 9.43237 24.7355C9.3178 24.7355 9.19532 24.7256 9.06495 24.7059C8.93853 24.6861 8.8121 24.6565 8.68568 24.617C8.5632 24.5775 8.44468 24.5281 8.33011 24.4688C8.31373 24.4603 8.29758 24.4517 8.28168 24.4429C8.12769 24.3576 8.10415 24.1564 8.20901 24.0151C8.32707 23.8559 8.55702 23.8398 8.73102 23.9346C8.78505 23.964 8.84104 23.99 8.89902 24.0124C9.07285 24.0835 9.24866 24.1191 9.42644 24.1191C9.59633 24.1191 9.73855 24.0934 9.85313 24.042C9.97165 23.9946 10.0645 23.9274 10.1317 23.8405C10.2028 23.7535 10.2522 23.6508 10.2798 23.5322C10.3114 23.4137 10.3272 23.2833 10.3272 23.141V22.9415C10.3272 22.9371 10.3237 22.9336 10.3193 22.9336C10.3168 22.9336 10.3145 22.9348 10.313 22.9368C10.2106 23.0735 10.079 23.1792 9.91831 23.2537C9.76028 23.3248 9.5825 23.3604 9.38496 23.3604C9.17162 23.3604 8.97803 23.3208 8.8042 23.2418C8.63037 23.1628 8.48221 23.0561 8.35974 22.9217C8.24122 22.7874 8.14838 22.6313 8.08121 22.4534C8.01405 22.2717 7.98047 22.08 7.98047 21.8785C7.98047 21.673 8.01207 21.4794 8.07529 21.2976C8.14245 21.1158 8.23529 20.9578 8.35381 20.8234C8.47629 20.689 8.62247 20.5823 8.79235 20.5033C8.96618 20.4243 9.15977 20.3848 9.37311 20.3848C9.5746 20.3848 9.76226 20.4263 9.93609 20.5092C10.1087 20.5916 10.2462 20.7188 10.3487 20.8908C10.3501 20.8931 10.3526 20.8945 10.3552 20.8945C10.3594 20.8945 10.3628 20.8911 10.3628 20.887V20.6811C10.3628 20.5633 10.4583 20.4677 10.5762 20.4677H10.7006ZM9.52126 20.9657C9.39089 20.9657 9.27434 20.9894 9.17162 21.0368C9.07285 21.0842 8.98791 21.1494 8.9168 21.2324C8.84963 21.3114 8.7963 21.4063 8.75679 21.5169C8.72123 21.6276 8.70346 21.7461 8.70346 21.8726C8.70346 21.9872 8.72123 22.0978 8.75679 22.2045C8.7963 22.3112 8.84963 22.408 8.9168 22.4949C8.98791 22.5779 9.07285 22.6451 9.17162 22.6965C9.27434 22.7478 9.38891 22.7735 9.51534 22.7735C9.64571 22.7735 9.76226 22.7498 9.86498 22.7024C9.97165 22.651 10.0605 22.5839 10.1317 22.5009C10.2067 22.4179 10.264 22.323 10.3035 22.2164C10.343 22.1057 10.3628 21.9911 10.3628 21.8726C10.3628 21.7501 10.343 21.6335 10.3035 21.5228C10.264 21.4122 10.2067 21.3154 10.1317 21.2324C10.0605 21.1494 9.97362 21.0842 9.8709 21.0368C9.76818 20.9894 9.65164 20.9657 9.52126 20.9657Z" fill="#191C1F"/>
</g>
</g>
<defs>
<clipPath id="clip0_3207_77519">
<rect width="32" height="32" fill="white"/>
</clipPath>
<clipPath id="clip1_3207_77519">
<rect width="32" height="32" fill="white"/>
</clipPath>
</defs>
</svg>
