<svg width="12" height="12" viewBox="0 0 12 12" fill="none" xmlns="http://www.w3.org/2000/svg">
<g clip-path="url(#clip0_3207_77523)">
<g clip-path="url(#clip1_3207_77523)">
<path d="M0 6C0 9.31371 2.68629 12 6 12C9.31371 12 12 9.31371 12 6C12 2.68629 9.31371 0 6 0C2.68629 0 0 2.68629 0 6Z" fill="white"/>
<path d="M3.25961 3.88721C3.09254 3.88721 2.95312 4.02778 2.95312 4.19721V6.4766C2.95312 6.64252 3.09254 6.78316 3.25961 6.78316C3.42669 6.78316 3.5626 6.64259 3.5626 6.4766V4.19721C3.5626 4.02778 3.42662 3.88721 3.25961 3.88721Z" fill="#191C1F"/>
<path d="M8.93438 4.77227C8.86292 4.5994 8.75347 4.44731 8.61869 4.3113C8.48391 4.18337 8.3249 4.07622 8.14744 4.00249C7.96654 3.92877 7.773 3.89184 7.57139 3.89184H6.97919C6.96192 3.88721 6.94577 3.88721 6.9285 3.88721C6.75223 3.88721 6.60938 4.02665 6.60938 4.20065V6.47084C6.60938 6.64371 6.74416 6.77621 6.91586 6.78428H7.57139C7.773 6.78428 7.96654 6.74279 8.14744 6.66906C8.32372 6.59533 8.48384 6.49162 8.61869 6.36369C8.75347 6.22312 8.86292 6.0756 8.93438 5.89816C9.0104 5.72073 9.04726 5.53515 9.04726 5.33812C9.04726 5.14335 9.0104 4.94976 8.93438 4.77233V4.77227ZM8.18436 5.92695C8.01848 6.08943 7.79953 6.17242 7.55994 6.17242H7.21891V4.49569H7.55994C7.7996 4.49569 8.01848 4.58675 8.18436 4.74573C8.35025 4.90358 8.43785 5.11218 8.43785 5.33687C8.43785 5.56156 8.35031 5.76898 8.18436 5.92689V5.92695Z" fill="#191C1F"/>
<path d="M7.09799 3.13992L6.19817 2.23991C6.13597 2.1777 6.053 2.14772 5.97121 2.15003C5.88943 2.14772 5.80646 2.17651 5.74426 2.23991L4.84444 3.13992C4.72462 3.25978 4.72462 3.45337 4.84444 3.57322C4.96427 3.69308 5.15782 3.69308 5.27764 3.57322L5.68431 3.16646V5.61297L4.60016 4.04457C4.54603 3.95007 4.44579 3.88785 4.33059 3.88785C4.16007 3.88785 4.01953 4.02843 4.01953 4.19785V6.47493C4.01953 6.64436 4.16007 6.78493 4.33059 6.78493C4.5011 6.78493 4.64164 6.64436 4.64164 6.47493V5.06445L5.74307 6.64899C5.74307 6.65243 5.74307 6.65706 5.7477 6.66169C5.8099 6.74005 5.8975 6.78618 5.99656 6.78618C6.16707 6.78618 6.30417 6.64561 6.30417 6.47618V3.21365L6.66479 3.57435C6.78461 3.6942 6.97816 3.6942 7.09799 3.57435C7.21781 3.45449 7.21781 3.25972 7.09799 3.13992Z" fill="#191C1F"/>
<path d="M3.25961 3.88721C3.09254 3.88721 2.95312 4.02778 2.95312 4.19721V6.4766C2.95312 6.64252 3.09254 6.78316 3.25961 6.78316C3.42669 6.78316 3.5626 6.64259 3.5626 6.4766V4.19721C3.5626 4.02778 3.42662 3.88721 3.25961 3.88721Z" fill="#191C1F"/>
<path d="M8.93438 4.77227C8.86292 4.5994 8.75347 4.44731 8.61869 4.3113C8.48391 4.18337 8.3249 4.07622 8.14744 4.00249C7.96654 3.92877 7.773 3.89184 7.57139 3.89184H6.97919C6.96192 3.88721 6.94577 3.88721 6.9285 3.88721C6.75223 3.88721 6.60938 4.02665 6.60938 4.20065V6.47084C6.60938 6.64371 6.74416 6.77621 6.91586 6.78428H7.57139C7.773 6.78428 7.96654 6.74279 8.14744 6.66906C8.32372 6.59533 8.48384 6.49162 8.61869 6.36369C8.75347 6.22312 8.86292 6.0756 8.93438 5.89816C9.0104 5.72073 9.04726 5.53515 9.04726 5.33812C9.04726 5.14335 9.0104 4.94976 8.93438 4.77233V4.77227ZM8.18436 5.92695C8.01848 6.08943 7.79953 6.17242 7.55994 6.17242H7.21891V4.49569H7.55994C7.7996 4.49569 8.01848 4.58675 8.18436 4.74573C8.35025 4.90358 8.43785 5.11218 8.43785 5.33687C8.43785 5.56156 8.35031 5.76898 8.18436 5.92689V5.92695Z" fill="#191C1F"/>
<path d="M7.09799 3.13992L6.19817 2.23991C6.13597 2.1777 6.053 2.14772 5.97121 2.15003C5.88943 2.14772 5.80646 2.17651 5.74426 2.23991L4.84444 3.13992C4.72462 3.25978 4.72462 3.45337 4.84444 3.57322C4.96427 3.69308 5.15782 3.69308 5.27764 3.57322L5.68431 3.16646V5.61297L4.60016 4.04457C4.54603 3.95007 4.44579 3.88785 4.33059 3.88785C4.16007 3.88785 4.01953 4.02843 4.01953 4.19785V6.47493C4.01953 6.64436 4.16007 6.78493 4.33059 6.78493C4.5011 6.78493 4.64164 6.64436 4.64164 6.47493V5.06445L5.74307 6.64899C5.74307 6.65243 5.74307 6.65706 5.7477 6.66169C5.8099 6.74005 5.8975 6.78618 5.99656 6.78618C6.16707 6.78618 6.30417 6.64561 6.30417 6.47618V3.21365L6.66479 3.57435C6.78461 3.6942 6.97816 3.6942 7.09799 3.57435C7.21781 3.45449 7.21781 3.25972 7.09799 3.13992Z" fill="#191C1F"/>
<path d="M8.60547 7.28617C8.60547 7.21253 8.66517 7.15283 8.73881 7.15283C8.81245 7.15283 8.87214 7.21253 8.87214 7.28617V8.61195C8.87214 8.68559 8.81245 8.74528 8.73881 8.74528C8.66517 8.74528 8.60547 8.68559 8.60547 8.61195V7.28617Z" fill="#191C1F"/>
<path d="M8.13233 8.61097C8.13233 8.60864 8.13045 8.60676 8.12813 8.60676C8.12661 8.60676 8.12521 8.60758 8.12445 8.6089C8.0977 8.65536 8.05514 8.69392 7.99677 8.72457C7.93751 8.7542 7.8701 8.76902 7.79454 8.76902C7.75158 8.76902 7.70639 8.7631 7.65898 8.75124C7.61306 8.74087 7.57009 8.72308 7.53009 8.69789C7.49157 8.67122 7.45898 8.63714 7.43231 8.59564C7.40712 8.55267 7.39453 8.50006 7.39453 8.43783C7.39453 8.35781 7.41675 8.29408 7.4612 8.24667C7.50713 8.19925 7.56565 8.16294 7.63676 8.13775C7.70788 8.11256 7.7864 8.09626 7.87233 8.08885C7.9504 8.08091 8.02669 8.07651 8.10122 8.07566C8.11595 8.07549 8.12789 8.06357 8.12789 8.04884C8.12789 7.98215 8.10344 7.93325 8.05455 7.90213C8.00714 7.86953 7.95011 7.85323 7.88344 7.85323C7.82714 7.85323 7.77306 7.86509 7.72121 7.88879C7.7078 7.89492 7.69499 7.9014 7.68278 7.90822C7.6296 7.93792 7.55854 7.93571 7.51912 7.88928C7.483 7.84675 7.48633 7.78236 7.53288 7.75161C7.57326 7.72495 7.61678 7.70325 7.66343 7.68652C7.74343 7.65836 7.82418 7.64429 7.90566 7.64429C8.00048 7.64429 8.07826 7.65762 8.139 7.6843C8.20123 7.71097 8.25012 7.74579 8.28567 7.78877C8.32123 7.83174 8.34567 7.8799 8.35901 7.93325C8.37382 7.9866 8.38123 8.03995 8.38123 8.09329V8.6179C8.38123 8.68663 8.32551 8.74235 8.25678 8.74235H8.20013C8.16269 8.74235 8.13233 8.712 8.13233 8.67455V8.61097ZM8.12789 8.29334C8.12789 8.27247 8.11097 8.25556 8.0901 8.25556H8.06789C8.02492 8.25556 7.97974 8.25778 7.93233 8.26222C7.88492 8.26519 7.84121 8.27334 7.80121 8.28668C7.76121 8.29853 7.72788 8.31631 7.70121 8.34002C7.67454 8.36225 7.66121 8.39337 7.66121 8.43338C7.66121 8.45857 7.66639 8.48006 7.67676 8.49784C7.68862 8.51414 7.70343 8.52748 7.72121 8.53785C7.73899 8.54822 7.75899 8.55563 7.78121 8.56008C7.80343 8.56453 7.82566 8.56675 7.84788 8.56675C7.93974 8.56675 8.00937 8.5423 8.05678 8.4934C8.10419 8.44449 8.12789 8.37781 8.12789 8.29334Z" fill="#191C1F"/>
<path d="M6.28178 7.15283C6.35542 7.15283 6.41511 7.21253 6.41511 7.28617V7.80949C6.41511 7.81194 6.4171 7.81393 6.41956 7.81393C6.42096 7.81393 6.42227 7.81327 6.42312 7.81216C6.43625 7.79492 6.45284 7.77699 6.47289 7.75836C6.49363 7.7391 6.51808 7.72132 6.54623 7.70501C6.57586 7.68871 6.60993 7.67538 6.64845 7.665C6.68697 7.65315 6.73068 7.64722 6.77957 7.64722C6.85513 7.64722 6.92476 7.66204 6.98847 7.69168C7.05217 7.71983 7.10699 7.7591 7.15292 7.80949C7.19884 7.85987 7.2344 7.91914 7.25959 7.98731C7.28477 8.05548 7.29737 8.12883 7.29737 8.20737C7.29737 8.28591 7.28477 8.36 7.25959 8.42965C7.23588 8.49781 7.20107 8.55783 7.15514 8.60969C7.11069 8.66008 7.05588 8.70083 6.99069 8.73195C6.92698 8.76158 6.85439 8.7764 6.7729 8.7764C6.69734 8.7764 6.62623 8.7601 6.55956 8.7275C6.49486 8.69514 6.44402 8.64818 6.40705 8.58663C6.40654 8.58577 6.40561 8.58524 6.40461 8.58524C6.40305 8.58524 6.40178 8.58651 6.40178 8.58808V8.66526C6.40178 8.70946 6.36595 8.74528 6.32176 8.74528H6.27511C6.20515 8.74528 6.14844 8.68857 6.14844 8.61861V7.28617C6.14844 7.21253 6.20813 7.15283 6.28178 7.15283ZM7.02625 8.20737C7.02625 8.16587 7.01958 8.12512 7.00624 8.08511C6.99439 8.04362 6.97587 8.00657 6.95069 7.97397C6.9255 7.94137 6.89365 7.91544 6.85513 7.89618C6.81661 7.87543 6.77142 7.86506 6.71957 7.86506C6.67068 7.86506 6.62697 7.87543 6.58845 7.89618C6.54993 7.91692 6.5166 7.94359 6.48845 7.9762C6.46178 8.0088 6.44104 8.04584 6.42622 8.08734C6.41289 8.12883 6.40622 8.17032 6.40622 8.21181C6.40622 8.2533 6.41289 8.2948 6.42622 8.33629C6.44104 8.3763 6.46178 8.41261 6.48845 8.44521C6.5166 8.47781 6.54993 8.50448 6.58845 8.52523C6.62697 8.54449 6.67068 8.55412 6.71957 8.55412C6.77142 8.55412 6.81661 8.54375 6.85513 8.523C6.89365 8.50226 6.9255 8.47558 6.95069 8.44298C6.97587 8.41038 6.99439 8.37334 7.00624 8.33184C7.01958 8.29035 7.02625 8.24886 7.02625 8.20737Z" fill="#191C1F"/>
<path d="M4.81641 8.20443C4.81641 8.11997 4.83122 8.04365 4.86085 7.97548C4.89196 7.90584 4.93345 7.84656 4.9853 7.79766C5.03715 7.74876 5.09864 7.71097 5.16975 7.6843C5.24087 7.65762 5.31642 7.64429 5.39643 7.64429C5.47643 7.64429 5.55199 7.65762 5.6231 7.6843C5.69421 7.71097 5.7557 7.74876 5.80755 7.79766C5.8594 7.84656 5.90015 7.90584 5.92978 7.97548C5.96089 8.04365 5.97645 8.11997 5.97645 8.20443C5.97645 8.2889 5.96089 8.36596 5.92978 8.4356C5.90015 8.50525 5.8594 8.56527 5.80755 8.61565C5.7557 8.66455 5.69421 8.70308 5.6231 8.73124C5.55199 8.75939 5.47643 8.77347 5.39643 8.77347C5.31642 8.77347 5.24087 8.75939 5.16975 8.73124C5.09864 8.70308 5.03715 8.66455 4.9853 8.61565C4.93345 8.56527 4.89196 8.50525 4.86085 8.4356C4.83122 8.36596 4.81641 8.2889 4.81641 8.20443ZM5.08753 8.20443C5.08753 8.24592 5.09345 8.28742 5.1053 8.32891C5.11864 8.3704 5.1379 8.40745 5.16308 8.44005C5.18827 8.47265 5.22012 8.49932 5.25864 8.52007C5.29716 8.54082 5.34309 8.55119 5.39643 8.55119C5.44976 8.55119 5.49569 8.54082 5.53421 8.52007C5.57273 8.49932 5.60458 8.47265 5.62977 8.44005C5.65495 8.40745 5.67347 8.3704 5.68532 8.32891C5.69866 8.28742 5.70533 8.24592 5.70533 8.20443C5.70533 8.16294 5.69866 8.12219 5.68532 8.08218C5.67347 8.04069 5.65495 8.00364 5.62977 7.97104C5.60458 7.93844 5.57273 7.9125 5.53421 7.89324C5.49569 7.87249 5.44976 7.86212 5.39643 7.86212C5.34309 7.86212 5.29716 7.87249 5.25864 7.89324C5.22012 7.9125 5.18827 7.93844 5.16308 7.97104C5.1379 8.00364 5.11864 8.04069 5.1053 8.08218C5.09345 8.12219 5.08753 8.16294 5.08753 8.20443Z" fill="#191C1F"/>
<path d="M4.375 7.28617C4.375 7.21253 4.4347 7.15283 4.50834 7.15283C4.58198 7.15283 4.64168 7.21253 4.64168 7.28617V8.61195C4.64168 8.68559 4.58198 8.74528 4.50834 8.74528C4.4347 8.74528 4.375 8.68559 4.375 8.61195V7.28617Z" fill="#191C1F"/>
<path d="M4.01222 7.67541C4.08218 7.67541 4.13889 7.73212 4.13889 7.80208V8.64677C4.13889 8.74309 4.12704 8.82978 4.10334 8.90684C4.07963 8.98537 4.04259 9.05132 3.99222 9.10466C3.94333 9.15949 3.88111 9.20173 3.80555 9.23136C3.72999 9.261 3.64036 9.27582 3.53665 9.27582C3.49369 9.27582 3.44776 9.27212 3.39887 9.26471C3.35146 9.2573 3.30405 9.24618 3.25664 9.23136C3.21071 9.21655 3.16627 9.19802 3.1233 9.17579C3.11716 9.17262 3.11111 9.16938 3.10514 9.16608C3.0474 9.13412 3.03857 9.05866 3.07789 9.00565C3.12216 8.94597 3.2084 8.93992 3.27365 8.97548C3.2939 8.98652 3.3149 8.99624 3.33664 9.00464C3.40183 9.03131 3.46776 9.04465 3.53443 9.04465C3.59813 9.04465 3.65147 9.03502 3.69443 9.01575C3.73888 8.99797 3.7737 8.97278 3.79888 8.94018C3.82555 8.90758 3.84407 8.86905 3.85444 8.82459C3.86629 8.78014 3.87222 8.73123 3.87222 8.67789V8.60305C3.87222 8.60141 3.87089 8.60009 3.86926 8.60009C3.86832 8.60009 3.86744 8.60053 3.86688 8.60128C3.82849 8.65257 3.77915 8.69218 3.71888 8.72012C3.65962 8.74679 3.59295 8.76013 3.51887 8.76013C3.43887 8.76013 3.36627 8.74531 3.30109 8.71568C3.2359 8.68604 3.18034 8.64603 3.13441 8.59564C3.08997 8.54526 3.05515 8.48673 3.02997 8.42004C3.00478 8.35188 2.99219 8.28001 2.99219 8.20443C2.99219 8.12738 3.00404 8.05476 3.02774 7.9866C3.05293 7.91843 3.08775 7.85916 3.13219 7.80877C3.17812 7.75839 3.23294 7.71838 3.29664 7.68874C3.36183 7.65911 3.43442 7.64429 3.51443 7.64429C3.58999 7.64429 3.66036 7.65985 3.72555 7.69097C3.79027 7.72186 3.84185 7.76956 3.88028 7.83406C3.88079 7.83492 3.88172 7.83545 3.88272 7.83545C3.88428 7.83545 3.88555 7.83418 3.88555 7.83262V7.75543C3.88555 7.71123 3.92138 7.67541 3.96557 7.67541H4.01222ZM3.56998 7.86212C3.52109 7.86212 3.47739 7.87101 3.43887 7.88879C3.40183 7.90658 3.36998 7.93103 3.34331 7.96215C3.31812 7.99178 3.29812 8.02735 3.28331 8.06884C3.26997 8.11033 3.26331 8.15479 3.26331 8.20221C3.26331 8.24518 3.26997 8.28668 3.28331 8.32669C3.29812 8.3667 3.31812 8.403 3.34331 8.4356C3.36998 8.46672 3.40183 8.49191 3.43887 8.51118C3.47739 8.53044 3.52035 8.54007 3.56776 8.54007C3.61665 8.54007 3.66036 8.53118 3.69888 8.5134C3.73888 8.49414 3.77221 8.46894 3.79888 8.43783C3.82703 8.40671 3.84851 8.37114 3.86333 8.33113C3.87814 8.28964 3.88555 8.24667 3.88555 8.20221C3.88555 8.15627 3.87814 8.11256 3.86333 8.07106C3.84851 8.02957 3.82703 7.99327 3.79888 7.96215C3.77221 7.93103 3.73962 7.90658 3.7011 7.88879C3.66258 7.87101 3.61888 7.86212 3.56998 7.86212Z" fill="#191C1F"/>
</g>
</g>
<defs>
<clipPath id="clip0_3207_77523">
<rect width="12" height="12" fill="white"/>
</clipPath>
<clipPath id="clip1_3207_77523">
<rect width="12" height="12" fill="white"/>
</clipPath>
</defs>
</svg>
