<svg width="409" height="106" viewBox="0 0 409 106" fill="none" xmlns="http://www.w3.org/2000/svg">
<g filter="url(#filter0_d_1528_6029)">
<rect width="375" height="72" transform="translate(17 21)" fill="white"/>
<rect width="24" height="24" transform="translate(41.5 32)" fill="white"/>
<path d="M53.5 48L49.5 44L53.5 40M49.5 44H57.5M63.5 44C63.5 49.5228 59.0228 54 53.5 54C47.9772 54 43.5 49.5228 43.5 44C43.5 38.4772 47.9772 34 53.5 34C59.0228 34 63.5 38.4772 63.5 44Z" stroke="#223466" stroke-width="1.71429" stroke-linecap="round" stroke-linejoin="round"/>
<text fill="#223466" style="white-space: pre" xml:space="preserve" font-family="Basier Circle" font-size="12" letter-spacing="0px"><tspan x="36.9531" y="71.7715">Home</tspan></text>
<line x1="86.5" y1="32" x2="86.5" y2="74" stroke="#88898A"/>
<text fill="#017AFE" style="white-space: pre" xml:space="preserve" font-family="Basier Circle" font-size="12" letter-spacing="0px"><tspan x="101.795" y="71.7715">INDstocks</tspan></text>
<path d="M120 21H140C140 22.6569 138.657 24 137 24H123C121.343 24 120 22.6569 120 21Z" fill="#017AFE"/>
<path d="M130.171 54C130.088 54 130.012 53.956 129.97 53.8845L125.213 45.7351C125.193 45.6994 125.182 45.6589 125.182 45.6177V44.8043C125.182 44.6757 125.286 44.5714 125.415 44.5714H125.747C126.655 44.5714 127.417 44.4874 128.033 44.3193C128.667 44.1513 129.164 43.8739 129.524 43.4874C129.836 43.1512 130.039 42.707 130.132 42.1547C130.154 42.0186 130.046 41.8992 129.908 41.8992H125.415C125.286 41.8992 125.182 41.7949 125.182 41.6663V40.5186C125.182 40.39 125.286 40.2857 125.415 40.2857H129.858C130.004 40.2857 130.115 40.1521 130.077 40.0108C129.945 39.5136 129.726 39.101 129.421 38.7731C129.061 38.3697 128.573 38.0756 127.956 37.8908C127.357 37.7059 126.62 37.6134 125.747 37.6134H125.415C125.286 37.6134 125.182 37.5092 125.182 37.3806V36.2329C125.182 36.1043 125.286 36 125.415 36H135.585C135.714 36 135.818 36.1043 135.818 36.2329V37.3806C135.818 37.5092 135.714 37.6134 135.585 37.6134H131.619C131.4 37.6134 131.292 37.902 131.439 38.065C131.627 38.2739 131.794 38.5016 131.939 38.7479C132.165 39.1332 132.318 39.5774 132.398 40.0803C132.417 40.197 132.516 40.2857 132.634 40.2857H135.585C135.714 40.2857 135.818 40.39 135.818 40.5186V41.6663C135.818 41.7949 135.714 41.8992 135.585 41.8992H132.689C132.569 41.8992 132.47 41.9903 132.454 42.109C132.302 43.2358 131.83 44.1238 131.039 44.7731C130.289 45.3863 129.311 45.7968 128.106 46.0045C127.939 46.0331 127.851 46.2206 127.939 46.364L132.438 53.6447C132.534 53.7999 132.423 54 132.24 54H130.171Z" fill="#017AFE"/>
<path d="M195.5 43V47M207.5 41V45M206.5 36C208.949 36 210.273 36.3748 210.932 36.6654C211.02 36.7042 211.064 36.7235 211.19 36.8444C211.266 36.9168 211.405 37.1294 211.441 37.2281C211.5 37.3927 211.5 37.4827 211.5 37.6627V48.4111C211.5 49.3199 211.5 49.7743 211.364 50.0079C211.225 50.2454 211.091 50.3559 210.832 50.4472C210.577 50.5369 210.062 50.438 209.032 50.2401C208.311 50.1017 207.457 50 206.5 50C203.5 50 200.5 52 196.5 52C194.051 52 192.727 51.6252 192.068 51.3346C191.98 51.2958 191.936 51.2765 191.81 51.1556C191.734 51.0832 191.595 50.8706 191.559 50.7719C191.5 50.6073 191.5 50.5173 191.5 50.3373L191.5 39.5889C191.5 38.6801 191.5 38.2257 191.636 37.9921C191.775 37.7546 191.909 37.6441 192.168 37.5528C192.423 37.4631 192.938 37.562 193.968 37.7598C194.689 37.8983 195.543 38 196.5 38C199.5 38 202.5 36 206.5 36ZM204 44C204 45.3807 202.881 46.5 201.5 46.5C200.119 46.5 199 45.3807 199 44C199 42.6193 200.119 41.5 201.5 41.5C202.881 41.5 204 42.6193 204 44Z" stroke="#88898A" stroke-width="1.37143" stroke-linecap="round" stroke-linejoin="round"/>
<text fill="#5E6063" style="white-space: pre" xml:space="preserve" font-family="Basier Circle" font-size="12" letter-spacing="0px"><tspan x="189.43" y="71.7891">F&#38;O</tspan></text>
<path d="M271.5 43H266.7C265.58 43 265.02 43 264.592 43.218C264.216 43.4097 263.91 43.7157 263.718 44.092C263.5 44.5198 263.5 45.0799 263.5 46.2V53M281.5 53V38.2C281.5 37.0799 281.5 36.5198 281.282 36.092C281.09 35.7157 280.784 35.4097 280.408 35.218C279.98 35 279.42 35 278.3 35H274.7C273.58 35 273.02 35 272.592 35.218C272.216 35.4097 271.91 35.7157 271.718 36.092C271.5 36.5198 271.5 37.0799 271.5 38.2V53M282.5 53H262.5M275 39H278M275 43H278M275 47H278" stroke="#88898A" stroke-width="1.37143" stroke-linecap="round" stroke-linejoin="round"/>
<text fill="#5E6063" style="white-space: pre" xml:space="preserve" font-family="Basier Circle" font-size="12" letter-spacing="0px"><tspan x="259.369" y="71.7891">IPOs</tspan></text>
<path d="M336.5 38.8C336.5 37.1198 336.5 36.2798 336.827 35.638C337.115 35.0735 337.574 34.6146 338.138 34.327C338.78 34 339.62 34 341.3 34H345.7C347.38 34 348.22 34 348.862 34.327C349.426 34.6146 349.885 35.0735 350.173 35.638C350.5 36.2798 350.5 37.1198 350.5 38.8V52L343.5 48L336.5 52V38.8Z" stroke="#88898A" stroke-width="1.5" stroke-linecap="round" stroke-linejoin="round"/>
<text fill="#5E6063" style="white-space: pre" xml:space="preserve" font-family="Basier Circle" font-size="12" letter-spacing="0px"><tspan x="317.443" y="70.7891">Watchlist</tspan></text>
</g>
<defs>
<filter id="filter0_d_1528_6029" x="0" y="0" width="409" height="106" filterUnits="userSpaceOnUse" color-interpolation-filters="sRGB">
<feFlood flood-opacity="0" result="BackgroundImageFix"/>
<feColorMatrix in="SourceAlpha" type="matrix" values="0 0 0 0 0 0 0 0 0 0 0 0 0 0 0 0 0 0 127 0" result="hardAlpha"/>
<feOffset dy="-4"/>
<feGaussianBlur stdDeviation="8.5"/>
<feColorMatrix type="matrix" values="0 0 0 0 0 0 0 0 0 0 0 0 0 0 0 0 0 0 0.12 0"/>
<feBlend mode="normal" in2="BackgroundImageFix" result="effect1_dropShadow_1528_6029"/>
<feBlend mode="normal" in="SourceGraphic" in2="effect1_dropShadow_1528_6029" result="shape"/>
</filter>
</defs>
</svg>
