<svg width="409" height="106" viewBox="0 0 409 106" fill="none" xmlns="http://www.w3.org/2000/svg">
<g filter="url(#filter0_d_1528_5771)">
<rect width="375" height="72" transform="translate(17 21)" fill="white"/>
<rect width="24" height="24" transform="translate(41.5 32)" fill="white"/>
<path d="M53.5 48L49.5 44L53.5 40M49.5 44H57.5M63.5 44C63.5 49.5228 59.0228 54 53.5 54C47.9772 54 43.5 49.5228 43.5 44C43.5 38.4772 47.9772 34 53.5 34C59.0228 34 63.5 38.4772 63.5 44Z" stroke="#223466" stroke-width="1.71429" stroke-linecap="round" stroke-linejoin="round"/>
<text fill="#223466" style="white-space: pre" xml:space="preserve" font-family="Basier Circle" font-size="12" letter-spacing="0px"><tspan x="36.9531" y="71.7715">Home</tspan></text>
<line x1="86.5" y1="32" x2="86.5" y2="74" stroke="#88898A"/>
<path d="M130.171 53C130.088 53 130.012 52.956 129.97 52.8845L125.213 44.7351C125.193 44.6994 125.182 44.6589 125.182 44.6177V43.8043C125.182 43.6757 125.286 43.5714 125.415 43.5714H125.747C126.655 43.5714 127.417 43.4874 128.033 43.3193C128.667 43.1513 129.164 42.8739 129.524 42.4874C129.836 42.1512 130.039 41.707 130.132 41.1547C130.154 41.0186 130.046 40.8992 129.908 40.8992H125.415C125.286 40.8992 125.182 40.7949 125.182 40.6663V39.5186C125.182 39.39 125.286 39.2857 125.415 39.2857H129.858C130.004 39.2857 130.115 39.1521 130.077 39.0108C129.945 38.5136 129.726 38.101 129.421 37.7731C129.061 37.3697 128.573 37.0756 127.956 36.8908C127.357 36.7059 126.62 36.6134 125.747 36.6134H125.415C125.286 36.6134 125.182 36.5092 125.182 36.3806V35.2329C125.182 35.1043 125.286 35 125.415 35H135.585C135.714 35 135.818 35.1043 135.818 35.2329V36.3806C135.818 36.5092 135.714 36.6134 135.585 36.6134H131.619C131.4 36.6134 131.292 36.902 131.439 37.065C131.627 37.2739 131.794 37.5016 131.939 37.7479C132.165 38.1332 132.318 38.5774 132.398 39.0803C132.417 39.197 132.516 39.2857 132.634 39.2857H135.585C135.714 39.2857 135.818 39.39 135.818 39.5186V40.6663C135.818 40.7949 135.714 40.8992 135.585 40.8992H132.689C132.569 40.8992 132.47 40.9903 132.454 41.109C132.302 42.2358 131.83 43.1238 131.039 43.7731C130.289 44.3863 129.311 44.7968 128.106 45.0045C127.939 45.0331 127.851 45.2206 127.939 45.364L132.438 52.6447C132.534 52.7999 132.423 53 132.24 53H130.171Z" fill="#88898A"/>
<text fill="#5E6063" style="white-space: pre" xml:space="preserve" font-family="Basier Circle" font-size="12" letter-spacing="0px"><tspan x="102.082" y="71.7891">INDstocks</tspan></text>
<path d="M195.5 43V47M207.5 41V45M206.5 36C208.949 36 210.273 36.3748 210.932 36.6654C211.02 36.7042 211.064 36.7235 211.19 36.8444C211.266 36.9168 211.405 37.1294 211.441 37.2281C211.5 37.3927 211.5 37.4827 211.5 37.6627V48.4111C211.5 49.3199 211.5 49.7743 211.364 50.0079C211.225 50.2454 211.091 50.3559 210.832 50.4472C210.577 50.5369 210.062 50.438 209.032 50.2401C208.311 50.1017 207.457 50 206.5 50C203.5 50 200.5 52 196.5 52C194.051 52 192.727 51.6252 192.068 51.3346C191.98 51.2958 191.936 51.2765 191.81 51.1556C191.734 51.0832 191.595 50.8706 191.559 50.7719C191.5 50.6073 191.5 50.5173 191.5 50.3373L191.5 39.5889C191.5 38.6801 191.5 38.2257 191.636 37.9921C191.775 37.7546 191.909 37.6441 192.168 37.5528C192.423 37.4631 192.938 37.562 193.968 37.7598C194.689 37.8983 195.543 38 196.5 38C199.5 38 202.5 36 206.5 36ZM204 44C204 45.3807 202.881 46.5 201.5 46.5C200.119 46.5 199 45.3807 199 44C199 42.6193 200.119 41.5 201.5 41.5C202.881 41.5 204 42.6193 204 44Z" stroke="#88898A" stroke-width="1.37143" stroke-linecap="round" stroke-linejoin="round"/>
<text fill="#5E6063" style="white-space: pre" xml:space="preserve" font-family="Basier Circle" font-size="12" letter-spacing="0px"><tspan x="189.43" y="71.7891">F&#38;O</tspan></text>
<path d="M271.5 43H266.7C265.58 43 265.02 43 264.592 43.218C264.216 43.4097 263.91 43.7157 263.718 44.092C263.5 44.5198 263.5 45.0799 263.5 46.2V53M281.5 53V38.2C281.5 37.0799 281.5 36.5198 281.282 36.092C281.09 35.7157 280.784 35.4097 280.408 35.218C279.98 35 279.42 35 278.3 35H274.7C273.58 35 273.02 35 272.592 35.218C272.216 35.4097 271.91 35.7157 271.718 36.092C271.5 36.5198 271.5 37.0799 271.5 38.2V53M282.5 53H262.5M275 39H278M275 43H278M275 47H278" stroke="#017AFE" stroke-width="1.5" stroke-linecap="round" stroke-linejoin="round"/>
<text fill="#017AFE" style="white-space: pre" xml:space="preserve" font-family="Basier Circle" font-size="12" letter-spacing="0px"><tspan x="259.346" y="71.7715">IPOs</tspan></text>
<path d="M263 21H283C283 22.6569 281.657 24 280 24H266C264.343 24 263 22.6569 263 21Z" fill="#017AFE"/>
<path d="M343.5 37V53M343.5 37H339.964C339.443 37 338.944 36.7893 338.575 36.4142C338.207 36.0391 338 35.5304 338 35C338 34.4696 338.207 33.9609 338.575 33.5858C338.944 33.2107 339.443 33 339.964 33C342.714 33 343.5 37 343.5 37ZM343.5 37H347.036C347.557 37 348.056 36.7893 348.425 36.4142C348.793 36.0391 349 35.5304 349 35C349 34.4696 348.793 33.9609 348.425 33.5858C348.056 33.2107 347.557 33 347.036 33C344.286 33 343.5 37 343.5 37ZM351.5 42V49.8C351.5 50.9201 351.5 51.4802 351.282 51.908C351.09 52.2843 350.784 52.5903 350.408 52.782C349.98 53 349.42 53 348.3 53L338.7 53C337.58 53 337.02 53 336.592 52.782C336.216 52.5903 335.91 52.2843 335.718 51.908C335.5 51.4802 335.5 50.9201 335.5 49.8V42M333.5 38.6L333.5 40.4C333.5 40.9601 333.5 41.2401 333.609 41.454C333.705 41.6422 333.858 41.7951 334.046 41.891C334.26 42 334.54 42 335.1 42L351.9 42C352.46 42 352.74 42 352.954 41.891C353.142 41.7951 353.295 41.6422 353.391 41.454C353.5 41.2401 353.5 40.9601 353.5 40.4V38.6C353.5 38.0399 353.5 37.7599 353.391 37.546C353.295 37.3578 353.142 37.2049 352.954 37.109C352.74 37 352.46 37 351.9 37L335.1 37C334.54 37 334.26 37 334.046 37.109C333.858 37.2049 333.705 37.3578 333.609 37.546C333.5 37.7599 333.5 38.0399 333.5 38.6Z" stroke="#88898A" stroke-width="1.37" stroke-linecap="round" stroke-linejoin="round"/>
<text fill="#5E6063" style="white-space: pre" xml:space="preserve" font-family="Basier Circle" font-size="12" letter-spacing="0px"><tspan x="319.623" y="70.7891">Rewards</tspan></text>
</g>
<defs>
<filter id="filter0_d_1528_5771" x="0" y="0" width="409" height="106" filterUnits="userSpaceOnUse" color-interpolation-filters="sRGB">
<feFlood flood-opacity="0" result="BackgroundImageFix"/>
<feColorMatrix in="SourceAlpha" type="matrix" values="0 0 0 0 0 0 0 0 0 0 0 0 0 0 0 0 0 0 127 0" result="hardAlpha"/>
<feOffset dy="-4"/>
<feGaussianBlur stdDeviation="8.5"/>
<feColorMatrix type="matrix" values="0 0 0 0 0 0 0 0 0 0 0 0 0 0 0 0 0 0 0.12 0"/>
<feBlend mode="normal" in2="BackgroundImageFix" result="effect1_dropShadow_1528_5771"/>
<feBlend mode="normal" in="SourceGraphic" in2="effect1_dropShadow_1528_5771" result="shape"/>
</filter>
</defs>
</svg>
