<svg width="36" height="36" viewBox="0 0 36 36" fill="none" xmlns="http://www.w3.org/2000/svg">
<g clip-path="url(#clip0_4921_9663)">
<rect width="36" height="36" rx="18" fill="#0080CC"/>
<circle cx="18" cy="18" r="18" fill="#3D2C82"/>
<path fill-rule="evenodd" clip-rule="evenodd" d="M16.1599 19.3159H12.7216V16.7249L10.6875 19.3159V17.0743L12.7216 14.2932V5.625H15.5382L19.6571 12.4704L21.0263 10.7125V6.99373H19.0416V5.625H22.3547V8.89414L24.8638 5.625V7.89193L22.3547 11.2216V19.3159H19.0416L15.5382 13.6709V11.0327L19.813 17.9365H21.0263V12.9779L19.6571 14.8396L14.7556 6.99373H14.1538V17.9365H16.1599V19.3159Z" fill="white"/>
<path fill-rule="evenodd" clip-rule="evenodd" d="M16 20.5972H17.115V21.9129H16V20.5972Z" fill="#3C2F7F"/>
<path fill-rule="evenodd" clip-rule="evenodd" d="M14.0332 20.5972H15.9446V21.9129H14.0332V20.5972Z" fill="#E31E27"/>
<path fill-rule="evenodd" clip-rule="evenodd" d="M15.9434 20.5972H18.6512V21.9129H15.9434V20.5972Z" fill="#E96F24"/>
<path fill-rule="evenodd" clip-rule="evenodd" d="M18.6523 20.5972H22.1566V21.9129H18.6523V20.5972Z" fill="#F1B517"/>
<path d="M7.57422 30.2816V26.2579H8.48816L10.1321 29.0515H10.1551V26.2579H10.9368V30.2816H10.0172L8.3732 27.5053H8.35021V30.2816H7.57422Z" fill="white"/>
<path d="M13.0186 30.3333C12.0932 30.3333 11.5758 29.6551 11.5758 28.7928C11.5758 27.9421 12.0472 27.2409 13.0071 27.2409C13.8981 27.2409 14.3981 27.8847 14.3981 28.7009V28.9998H12.3633C12.3691 29.4079 12.576 29.6953 13.0186 29.6953C13.3635 29.6953 13.5474 29.5344 13.6049 29.3504H14.3579C14.2774 29.8907 13.7888 30.3333 13.0186 30.3333ZM12.3691 28.4882H13.6107C13.5992 28.1491 13.4095 27.8847 13.0071 27.8847C12.576 27.8847 12.3863 28.1491 12.3691 28.4882Z" fill="white"/>
<path d="M14.5653 30.2816V30.2241L15.5138 28.7814L14.5998 27.3501V27.2926H15.4275L16.0311 28.2985H16.0541L16.6576 27.2926H17.4854V27.3501L16.5657 28.7756L17.5141 30.2241V30.2816H16.6749L16.0541 29.2527H16.0311L15.4045 30.2816H14.5653Z" fill="white"/>
<path d="M19.1696 30.3333C18.5086 30.3333 18.2327 29.954 18.2327 29.4251V27.9479H17.7441V27.2926H18.2614V26.6661L18.9455 26.5051H19.0029V27.2926H19.7215V27.9479H19.0029V29.2584C19.0029 29.5401 19.1237 29.6608 19.3881 29.6608C19.4973 29.6608 19.5892 29.6436 19.6755 29.6148H19.7329V30.2586C19.641 30.2874 19.4226 30.3333 19.1696 30.3333Z" fill="white"/>
<path d="M23.3377 30.3333C22.4755 30.3333 21.8949 29.7758 21.8949 29.1032H22.6709C22.6939 29.3792 22.8951 29.6493 23.3377 29.6493C23.8263 29.6493 24.016 29.2929 24.016 28.9308C24.016 28.5917 23.8206 28.2525 23.3377 28.2525C23.0503 28.2525 22.8606 28.3732 22.7112 28.5629H21.9582L22.1134 26.2579H24.5276V26.9477H22.7514L22.6767 27.8617H22.6997C22.8779 27.7065 23.1365 27.6145 23.4584 27.6145C24.2689 27.6145 24.7977 28.1778 24.7977 28.9308C24.7977 29.7355 24.2804 30.3333 23.3377 30.3333Z" fill="white"/>
<path d="M26.8541 30.3333C25.7735 30.3333 25.3309 29.4596 25.3309 28.2583C25.3309 27.0627 25.7735 26.189 26.8541 26.189C27.9347 26.189 28.3774 27.0627 28.3774 28.2583C28.3774 29.4596 27.9347 30.3333 26.8541 30.3333ZM26.8541 29.6493C27.4174 29.6493 27.5899 29.1377 27.5899 28.2583C27.5899 27.3846 27.4117 26.873 26.8541 26.873C26.2965 26.873 26.1184 27.3846 26.1184 28.2583C26.1184 29.1377 26.2908 29.6493 26.8541 29.6493Z" fill="white"/>
</g>
<defs>
<clipPath id="clip0_4921_9663">
<rect width="36" height="36" rx="18" fill="white"/>
</clipPath>
</defs>
</svg>
