<svg width="36" height="36" viewBox="0 0 36 36" fill="none" xmlns="http://www.w3.org/2000/svg">
<g clip-path="url(#clip0_4921_9923)">
<rect width="36" height="36" rx="18" fill="#0080CC"/>
<circle cx="18" cy="18" r="18" fill="#393E54"/>
<path fill-rule="evenodd" clip-rule="evenodd" d="M16.1599 19.3159H12.7216V16.7249L10.6875 19.3159V17.0743L12.7216 14.2932V5.625H15.5382L19.6571 12.4704L21.0263 10.7125V6.99373H19.0416V5.625H22.3547V8.89414L24.8638 5.625V7.89193L22.3547 11.2216V19.3159H19.0416L15.5382 13.6709V11.0327L19.813 17.9365H21.0263V12.9779L19.6571 14.8396L14.7556 6.99373H14.1538V17.9365H16.1599V19.3159Z" fill="white"/>
<path fill-rule="evenodd" clip-rule="evenodd" d="M16 20.5969H17.115V21.9126H16V20.5969Z" fill="#3C2F7F"/>
<path fill-rule="evenodd" clip-rule="evenodd" d="M14.0332 20.5969H15.9446V21.9126H14.0332V20.5969Z" fill="#E31E27"/>
<path fill-rule="evenodd" clip-rule="evenodd" d="M15.9434 20.5969H18.6512V21.9126H15.9434V20.5969Z" fill="#E96F24"/>
<path fill-rule="evenodd" clip-rule="evenodd" d="M18.6523 20.5969H22.1566V21.9126H18.6523V20.5969Z" fill="#F1B517"/>
<path d="M12.3078 31.6797V26.4072H12.2703L10.7598 27.5518H10.666V26.3322L12.2984 25.1126H13.5743V31.6797H12.3078Z" fill="white"/>
<path d="M17.2126 31.7642C15.4488 31.7642 14.7264 30.3381 14.7264 28.3774C14.7264 26.426 15.4488 25 17.2126 25C18.9763 25 19.6987 26.426 19.6987 28.3774C19.6987 30.3381 18.9763 31.7642 17.2126 31.7642ZM17.2126 30.6477C18.132 30.6477 18.4134 29.8128 18.4134 28.3774C18.4134 26.9514 18.1226 26.1164 17.2126 26.1164C16.3025 26.1164 16.0117 26.9514 16.0117 28.3774C16.0117 29.8128 16.2932 30.6477 17.2126 30.6477Z" fill="white"/>
<path d="M23.1036 31.7642C21.3398 31.7642 20.6174 30.3381 20.6174 28.3774C20.6174 26.426 21.3398 25 23.1036 25C24.8673 25 25.5897 26.426 25.5897 28.3774C25.5897 30.3381 24.8673 31.7642 23.1036 31.7642ZM23.1036 30.6477C24.023 30.6477 24.3044 29.8128 24.3044 28.3774C24.3044 26.9514 24.0136 26.1164 23.1036 26.1164C22.1935 26.1164 21.9027 26.9514 21.9027 28.3774C21.9027 29.8128 22.1842 30.6477 23.1036 30.6477Z" fill="white"/>
</g>
<defs>
<clipPath id="clip0_4921_9923">
<rect width="36" height="36" rx="18" fill="white"/>
</clipPath>
</defs>
</svg>
