<svg width="409" height="106" viewBox="0 0 409 106" fill="none" xmlns="http://www.w3.org/2000/svg">
<g filter="url(#filter0_d_1528_5555)">
<rect width="375" height="72" transform="translate(17 21)" fill="white"/>
<rect width="24" height="24" transform="translate(41.5 32)" fill="white"/>
<path d="M53.5 48L49.5 44L53.5 40M49.5 44H57.5M63.5 44C63.5 49.5228 59.0228 54 53.5 54C47.9772 54 43.5 49.5228 43.5 44C43.5 38.4772 47.9772 34 53.5 34C59.0228 34 63.5 38.4772 63.5 44Z" stroke="#223466" stroke-width="1.71429" stroke-linecap="round" stroke-linejoin="round"/>
<text fill="#223466" style="white-space: pre" xml:space="preserve" font-family="Basier Circle" font-size="12" letter-spacing="0px"><tspan x="36.9531" y="71.7715">Home</tspan></text>
<line x1="86.5" y1="32" x2="86.5" y2="74" stroke="#88898A"/>
<text fill="#017AFE" style="white-space: pre" xml:space="preserve" font-family="Basier Circle" font-size="12" letter-spacing="0px"><tspan x="101.795" y="72.0215">INDstocks</tspan></text>
<path d="M120 21.25H140C140 22.9069 138.657 24.25 137 24.25H123C121.343 24.25 120 22.9069 120 21.25Z" fill="#017AFE"/>
<path d="M130.171 54.25C130.088 54.25 130.012 54.206 129.97 54.1345L125.213 45.9851C125.193 45.9494 125.182 45.9089 125.182 45.8677V45.0543C125.182 44.9257 125.286 44.8214 125.415 44.8214H125.747C126.655 44.8214 127.417 44.7374 128.033 44.5693C128.667 44.4013 129.164 44.1239 129.524 43.7374C129.836 43.4012 130.039 42.957 130.132 42.4047C130.154 42.2686 130.046 42.1492 129.908 42.1492H125.415C125.286 42.1492 125.182 42.0449 125.182 41.9163V40.7686C125.182 40.64 125.286 40.5357 125.415 40.5357H129.858C130.004 40.5357 130.115 40.4021 130.077 40.2608C129.945 39.7636 129.726 39.351 129.421 39.0231C129.061 38.6197 128.573 38.3256 127.956 38.1408C127.357 37.9559 126.62 37.8634 125.747 37.8634H125.415C125.286 37.8634 125.182 37.7592 125.182 37.6306V36.4829C125.182 36.3543 125.286 36.25 125.415 36.25H135.585C135.714 36.25 135.818 36.3543 135.818 36.4829V37.6306C135.818 37.7592 135.714 37.8634 135.585 37.8634H131.619C131.4 37.8634 131.292 38.152 131.439 38.315C131.627 38.5239 131.794 38.7516 131.939 38.9979C132.165 39.3832 132.318 39.8274 132.398 40.3303C132.417 40.447 132.516 40.5357 132.634 40.5357H135.585C135.714 40.5357 135.818 40.64 135.818 40.7686V41.9163C135.818 42.0449 135.714 42.1492 135.585 42.1492H132.689C132.569 42.1492 132.47 42.2403 132.454 42.359C132.302 43.4858 131.83 44.3738 131.039 45.0231C130.289 45.6363 129.311 46.0468 128.106 46.2545C127.939 46.2831 127.851 46.4706 127.939 46.614L132.438 53.8947C132.534 54.0499 132.423 54.25 132.24 54.25H130.171Z" fill="#017AFE"/>
<path d="M195.5 43.25V47.25M207.5 41.25V45.25M206.5 36.25C208.949 36.25 210.273 36.6248 210.932 36.9154C211.02 36.9542 211.064 36.9735 211.19 37.0944C211.266 37.1668 211.405 37.3794 211.441 37.4781C211.5 37.6427 211.5 37.7327 211.5 37.9127V48.6611C211.5 49.5699 211.5 50.0243 211.364 50.2579C211.225 50.4954 211.091 50.6059 210.832 50.6972C210.577 50.7869 210.062 50.688 209.032 50.4901C208.311 50.3517 207.457 50.25 206.5 50.25C203.5 50.25 200.5 52.25 196.5 52.25C194.051 52.25 192.727 51.8752 192.068 51.5846C191.98 51.5458 191.936 51.5265 191.81 51.4056C191.734 51.3332 191.595 51.1206 191.559 51.0219C191.5 50.8573 191.5 50.7673 191.5 50.5873L191.5 39.8389C191.5 38.9301 191.5 38.4757 191.636 38.2421C191.775 38.0046 191.909 37.8941 192.168 37.8028C192.423 37.7131 192.938 37.812 193.968 38.0098C194.689 38.1483 195.543 38.25 196.5 38.25C199.5 38.25 202.5 36.25 206.5 36.25ZM204 44.25C204 45.6307 202.881 46.75 201.5 46.75C200.119 46.75 199 45.6307 199 44.25C199 42.8693 200.119 41.75 201.5 41.75C202.881 41.75 204 42.8693 204 44.25Z" stroke="#88898A" stroke-width="1.37143" stroke-linecap="round" stroke-linejoin="round"/>
<text fill="#5E6063" style="white-space: pre" xml:space="preserve" font-family="Basier Circle" font-size="12" letter-spacing="0px"><tspan x="189.43" y="72.0391">F&#38;O</tspan></text>
<path d="M271.5 43.25H266.7C265.58 43.25 265.02 43.25 264.592 43.468C264.216 43.6597 263.91 43.9657 263.718 44.342C263.5 44.7698 263.5 45.3299 263.5 46.45V53.25M281.5 53.25V38.45C281.5 37.3299 281.5 36.7698 281.282 36.342C281.09 35.9657 280.784 35.6597 280.408 35.468C279.98 35.25 279.42 35.25 278.3 35.25H274.7C273.58 35.25 273.02 35.25 272.592 35.468C272.216 35.6597 271.91 35.9657 271.718 36.342C271.5 36.7698 271.5 37.3299 271.5 38.45V53.25M282.5 53.25H262.5M275 39.25H278M275 43.25H278M275 47.25H278" stroke="#88898A" stroke-width="1.37143" stroke-linecap="round" stroke-linejoin="round"/>
<text fill="#5E6063" style="white-space: pre" xml:space="preserve" font-family="Basier Circle" font-size="12" letter-spacing="0px"><tspan x="259.369" y="72.0391">IPOs</tspan></text>
<mask id="path-11-inside-1_1528_5555" fill="white">
<rect x="334.5" y="34.5" width="8" height="8" rx="0.84375"/>
</mask>
<rect x="334.5" y="34.5" width="8" height="8" rx="0.84375" stroke="#88898A" stroke-width="2.8125" mask="url(#path-11-inside-1_1528_5555)"/>
<mask id="path-12-inside-2_1528_5555" fill="white">
<rect x="344.5" y="34.5" width="8" height="8" rx="0.84375"/>
</mask>
<rect x="344.5" y="34.5" width="8" height="8" rx="0.84375" stroke="#88898A" stroke-width="2.8125" mask="url(#path-12-inside-2_1528_5555)"/>
<mask id="path-13-inside-3_1528_5555" fill="white">
<rect x="334.5" y="44.5" width="8" height="8" rx="0.84375"/>
</mask>
<rect x="334.5" y="44.5" width="8" height="8" rx="0.84375" stroke="#88898A" stroke-width="2.8125" mask="url(#path-13-inside-3_1528_5555)"/>
<rect x="344.5" y="44.5" width="8" height="8" rx="0.84375" fill="#88898A"/>
<text fill="#5E6063" style="white-space: pre" xml:space="preserve" font-family="Basier Circle" font-size="12" letter-spacing="0px"><tspan x="329.326" y="71.2891">More</tspan></text>
</g>
<defs>
<filter id="filter0_d_1528_5555" x="0" y="0" width="409" height="106" filterUnits="userSpaceOnUse" color-interpolation-filters="sRGB">
<feFlood flood-opacity="0" result="BackgroundImageFix"/>
<feColorMatrix in="SourceAlpha" type="matrix" values="0 0 0 0 0 0 0 0 0 0 0 0 0 0 0 0 0 0 127 0" result="hardAlpha"/>
<feOffset dy="-4"/>
<feGaussianBlur stdDeviation="8.5"/>
<feColorMatrix type="matrix" values="0 0 0 0 0 0 0 0 0 0 0 0 0 0 0 0 0 0 0.12 0"/>
<feBlend mode="normal" in2="BackgroundImageFix" result="effect1_dropShadow_1528_5555"/>
<feBlend mode="normal" in="SourceGraphic" in2="effect1_dropShadow_1528_5555" result="shape"/>
</filter>
</defs>
</svg>
