<svg width="36" height="36" viewBox="0 0 36 36" fill="none" xmlns="http://www.w3.org/2000/svg">
<rect width="36" height="36" rx="18" fill="#393E54"/>
<g clip-path="url(#clip0_4921_9777)">
<path d="M18.7715 26.479V8.74986C18.7714 8.61036 18.7335 8.47349 18.6617 8.35385C18.59 8.23422 18.4871 8.13629 18.364 8.07053C18.241 8.00476 18.1024 7.97361 17.9631 7.98041C17.8238 7.9872 17.6889 8.03168 17.5728 8.10911L9.86451 13.2477C9.75878 13.3182 9.67213 13.4138 9.61228 13.5259C9.55244 13.6381 9.52124 13.7633 9.52149 13.8904V26.479" stroke="white" stroke-width="1.54167" stroke-linecap="round" stroke-linejoin="round"/>
<path d="M18.7715 14.1465H25.709C25.9134 14.1465 26.1095 14.2277 26.254 14.3723C26.3986 14.5168 26.4798 14.7129 26.4798 14.9173V26.4798" stroke="white" stroke-width="1.54167" stroke-linecap="round" stroke-linejoin="round"/>
<path d="M7.20898 26.4795H28.7923" stroke="white" stroke-width="1.54167" stroke-linecap="round" stroke-linejoin="round"/>
<path d="M15.6875 16.459V18.0007" stroke="white" stroke-width="1.54167" stroke-linecap="round" stroke-linejoin="round"/>
<path d="M12.6035 16.459V18.0007" stroke="white" stroke-width="1.54167" stroke-linecap="round" stroke-linejoin="round"/>
<path d="M12.6035 21.8545V23.3962" stroke="white" stroke-width="1.54167" stroke-linecap="round" stroke-linejoin="round"/>
<path d="M15.6875 21.8545V23.3962" stroke="white" stroke-width="1.54167" stroke-linecap="round" stroke-linejoin="round"/>
</g>
<circle cx="26" cy="24.6675" r="5.66667" fill="#191C1F" stroke="#F5F7F9" stroke-width="0.666667"/>
<path fill-rule="evenodd" clip-rule="evenodd" d="M25.6216 26.9216H24.2874V25.9161L23.498 26.9216V26.0517L24.2874 24.9726V21.6089H25.3803L26.9787 24.2652L27.51 23.5831V22.14H26.7398V21.6089H28.0255V22.8775L28.9991 21.6089V22.4886L28.0255 23.7806V26.9216H26.7398L25.3803 24.7311V23.7073L27.0392 26.3863H27.51V24.4621L26.9787 25.1846L25.0767 22.14H24.8431V26.3863H25.6216V26.9216Z" fill="white"/>
<path fill-rule="evenodd" clip-rule="evenodd" d="M25.5586 27.4189H25.9913V27.9295H25.5586V27.4189Z" fill="#3C2F7F"/>
<path fill-rule="evenodd" clip-rule="evenodd" d="M24.7969 27.4189H25.5386V27.9295H24.7969V27.4189Z" fill="#E31E27"/>
<path fill-rule="evenodd" clip-rule="evenodd" d="M24.2793 27.4189H24.7967V27.9295H24.2793V27.4189Z" fill="#3D2C82"/>
<path fill-rule="evenodd" clip-rule="evenodd" d="M25.5371 27.4189H26.5879V27.9295H25.5371V27.4189Z" fill="#E96F24"/>
<path fill-rule="evenodd" clip-rule="evenodd" d="M26.5879 27.4189H27.9477V27.9295H26.5879V27.4189Z" fill="#F1B517"/>
<defs>
<clipPath id="clip0_4921_9777">
<rect width="24.6667" height="24.6667" fill="white" transform="translate(5.66602 5.6665)"/>
</clipPath>
</defs>
</svg>
