<svg width="36" height="36" viewBox="0 0 36 36" fill="none" xmlns="http://www.w3.org/2000/svg">
<rect width="36" height="36" rx="18" fill="#2D544B"/>
<path d="M10.2917 24.167L25.7083 24.167C26.5598 24.167 27.25 23.4768 27.25 22.6253V11.8337C27.25 10.9822 26.5598 10.292 25.7083 10.292L10.2917 10.292C9.44023 10.292 8.75 10.9822 8.75 11.8337V22.6253C8.75 23.4768 9.44023 24.167 10.2917 24.167Z" stroke="#F5F7F9" stroke-width="1.54167" stroke-linecap="round" stroke-linejoin="round"/>
<path d="M21.0827 27.2505H14.916" stroke="#F5F7F9" stroke-width="1.54167" stroke-linecap="round" stroke-linejoin="round"/>
<path d="M8.75 20.313H27.25" stroke="#F5F7F9" stroke-width="1.54167" stroke-linecap="round" stroke-linejoin="round"/>
<path d="M18 24.167V27.2503" stroke="#F5F7F9" stroke-width="1.54167" stroke-linecap="round" stroke-linejoin="round"/>
<circle cx="26" cy="24.6675" r="5.66667" fill="#191C1F" stroke="#F5F7F9" stroke-width="0.666667"/>
<path fill-rule="evenodd" clip-rule="evenodd" d="M25.6216 26.9216H24.2874V25.9161L23.498 26.9216V26.0517L24.2874 24.9726V21.6089H25.3803L26.9787 24.2652L27.51 23.5831V22.14H26.7398V21.6089H28.0255V22.8775L28.9991 21.6089V22.4886L28.0255 23.7806V26.9216H26.7398L25.3803 24.7311V23.7073L27.0392 26.3863H27.51V24.4621L26.9787 25.1846L25.0767 22.14H24.8431V26.3863H25.6216V26.9216Z" fill="white"/>
<path fill-rule="evenodd" clip-rule="evenodd" d="M25.5586 27.4189H25.9913V27.9295H25.5586V27.4189Z" fill="#3C2F7F"/>
<path fill-rule="evenodd" clip-rule="evenodd" d="M24.7969 27.4189H25.5386V27.9295H24.7969V27.4189Z" fill="#E31E27"/>
<path fill-rule="evenodd" clip-rule="evenodd" d="M24.2793 27.4189H24.7967V27.9295H24.2793V27.4189Z" fill="#3D2C82"/>
<path fill-rule="evenodd" clip-rule="evenodd" d="M25.5371 27.4189H26.5879V27.9295H25.5371V27.4189Z" fill="#E96F24"/>
<path fill-rule="evenodd" clip-rule="evenodd" d="M26.5879 27.4189H27.9477V27.9295H26.5879V27.4189Z" fill="#F1B517"/>
</svg>
