<svg width="36" height="36" viewBox="0 0 36 36" fill="none" xmlns="http://www.w3.org/2000/svg">
<circle cx="18" cy="18" r="18" fill="#3D2C82"/>
<path d="M21.0845 31.656C20.5626 31.656 20.1147 31.5239 19.7407 31.2598C19.3689 30.9936 19.0826 30.6102 18.8819 30.1094C18.6833 29.6066 18.584 29.0013 18.584 28.2935C18.5861 27.5857 18.6865 26.9835 18.8851 26.487C19.0858 25.9884 19.3721 25.6081 19.7439 25.3461C20.1179 25.0841 20.5647 24.9531 21.0845 24.9531C21.6042 24.9531 22.0511 25.0841 22.4251 25.3461C22.799 25.6081 23.0853 25.9884 23.2839 26.487C23.4846 26.9856 23.585 27.5878 23.585 28.2935C23.585 29.0034 23.4846 29.6097 23.2839 30.1126C23.0853 30.6133 22.799 30.9957 22.4251 31.2598C22.0532 31.5239 21.6064 31.656 21.0845 31.656ZM21.0845 30.664C21.4901 30.664 21.8102 30.4644 22.0448 30.0651C22.2814 29.6636 22.3997 29.0731 22.3997 28.2935C22.3997 27.7779 22.3458 27.3448 22.2381 26.9941C22.1303 26.6434 21.9782 26.3793 21.7817 26.2018C21.5852 26.0222 21.3528 25.9324 21.0845 25.9324C20.6809 25.9324 20.3619 26.1331 20.1274 26.5346C19.8929 26.9339 19.7745 27.5202 19.7724 28.2935C19.7703 28.8111 19.8221 29.2463 19.9277 29.5992C20.0355 29.952 20.1876 30.2182 20.3841 30.3978C20.5806 30.5753 20.814 30.664 21.0845 30.664Z" fill="white"/>
<path d="M15.7406 31.5793C15.3181 31.5793 14.9399 31.5 14.6061 31.3416C14.2722 31.181 14.0071 30.9613 13.8106 30.6824C13.6162 30.4035 13.5127 30.0845 13.5 29.7253H14.6409C14.662 29.9915 14.7772 30.2091 14.9864 30.3781C15.1955 30.5451 15.4469 30.6285 15.7406 30.6285C15.9709 30.6285 16.1759 30.5757 16.3555 30.47C16.535 30.3644 16.6766 30.2176 16.7801 30.0295C16.8837 29.8415 16.9344 29.627 16.9323 29.3862C16.9344 29.1411 16.8826 28.9235 16.777 28.7333C16.6713 28.5432 16.5266 28.3942 16.3428 28.2865C16.159 28.1766 15.9477 28.1217 15.7089 28.1217C15.5146 28.1196 15.3233 28.1555 15.1353 28.2294C14.9473 28.3034 14.7983 28.4006 14.6885 28.521L13.6268 28.3467L13.9659 25H17.7309V25.9825H14.9388L14.7518 27.7033H14.7899C14.9103 27.5618 15.0804 27.4445 15.3001 27.3516C15.5198 27.2565 15.7607 27.2089 16.0227 27.2089C16.4157 27.2089 16.7664 27.3019 17.0749 27.4878C17.3833 27.6716 17.6263 27.9252 17.8038 28.2484C17.9813 28.5717 18.07 28.9414 18.07 29.3577C18.07 29.7866 17.9707 30.169 17.7721 30.5049C17.5756 30.8387 17.302 31.1018 16.9513 31.294C16.6027 31.4842 16.1991 31.5793 15.7406 31.5793Z" fill="white"/>
<path fill-rule="evenodd" clip-rule="evenodd" d="M16.1599 19.3159H12.7216V16.7249L10.6875 19.3159V17.0743L12.7216 14.2932V5.625H15.5382L19.6571 12.4704L21.0263 10.7125V6.99373H19.0416V5.625H22.3547V8.89414L24.8638 5.625V7.89193L22.3547 11.2216V19.3159H19.0416L15.5382 13.6709V11.0327L19.813 17.9365H21.0263V12.9779L19.6571 14.8396L14.7556 6.99373H14.1538V17.9365H16.1599V19.3159Z" fill="white"/>
<path fill-rule="evenodd" clip-rule="evenodd" d="M16 20.5972H17.115V21.9129H16V20.5972Z" fill="#3C2F7F"/>
<path fill-rule="evenodd" clip-rule="evenodd" d="M14.0332 20.5972H15.9446V21.9129H14.0332V20.5972Z" fill="#E31E27"/>
<path fill-rule="evenodd" clip-rule="evenodd" d="M12.6992 20.5972H14.0326V21.9129H12.6992V20.5972Z" fill="#3D2C82"/>
<path fill-rule="evenodd" clip-rule="evenodd" d="M15.9434 20.5972H18.6512V21.9129H15.9434V20.5972Z" fill="#E96F24"/>
<path fill-rule="evenodd" clip-rule="evenodd" d="M18.6523 20.5972H22.1566V21.9129H18.6523V20.5972Z" fill="#F1B517"/>
</svg>
