<svg width="409" height="106" viewBox="0 0 409 106" fill="none" xmlns="http://www.w3.org/2000/svg">
<g filter="url(#filter0_d_2275_33617)">
<rect width="375" height="72" transform="translate(17 21)" fill="white"/>
<rect width="24" height="24" transform="translate(41.5 32)" fill="white"/>
<path d="M53.5 48L49.5 44L53.5 40M49.5 44H57.5M63.5 44C63.5 49.5228 59.0228 54 53.5 54C47.9772 54 43.5 49.5228 43.5 44C43.5 38.4772 47.9772 34 53.5 34C59.0228 34 63.5 38.4772 63.5 44Z" stroke="#223466" stroke-width="1.71429" stroke-linecap="round" stroke-linejoin="round"/>
<text fill="#223466" style="white-space: pre" xml:space="preserve" font-family="Basier Circle" font-size="12" letter-spacing="0px"><tspan x="36.9531" y="71.7715">Home</tspan></text>
<line x1="86.5" y1="32" x2="86.5" y2="74" stroke="#88898A"/>
<path d="M130.171 53C130.088 53 130.012 52.956 129.97 52.8845L125.213 44.7351C125.193 44.6994 125.182 44.6589 125.182 44.6177V43.8043C125.182 43.6757 125.286 43.5714 125.415 43.5714H125.747C126.655 43.5714 127.417 43.4874 128.033 43.3193C128.667 43.1513 129.164 42.8739 129.524 42.4874C129.836 42.1512 130.039 41.707 130.132 41.1547C130.154 41.0186 130.046 40.8992 129.908 40.8992H125.415C125.286 40.8992 125.182 40.7949 125.182 40.6663V39.5186C125.182 39.39 125.286 39.2857 125.415 39.2857H129.858C130.004 39.2857 130.115 39.1521 130.077 39.0108C129.945 38.5136 129.726 38.101 129.421 37.7731C129.061 37.3697 128.573 37.0756 127.956 36.8908C127.357 36.7059 126.62 36.6134 125.747 36.6134H125.415C125.286 36.6134 125.182 36.5092 125.182 36.3806V35.2329C125.182 35.1043 125.286 35 125.415 35H135.585C135.714 35 135.818 35.1043 135.818 35.2329V36.3806C135.818 36.5092 135.714 36.6134 135.585 36.6134H131.619C131.4 36.6134 131.292 36.902 131.439 37.065C131.627 37.2739 131.794 37.5016 131.939 37.7479C132.165 38.1332 132.318 38.5774 132.398 39.0803C132.417 39.197 132.516 39.2857 132.634 39.2857H135.585C135.714 39.2857 135.818 39.39 135.818 39.5186V40.6663C135.818 40.7949 135.714 40.8992 135.585 40.8992H132.689C132.569 40.8992 132.47 40.9903 132.454 41.109C132.302 42.2358 131.83 43.1238 131.039 43.7731C130.289 44.3863 129.311 44.7968 128.106 45.0045C127.939 45.0331 127.851 45.2206 127.939 45.364L132.438 52.6447C132.534 52.7999 132.423 53 132.24 53H130.171Z" fill="#88898A"/>
<text fill="#5E6063" style="white-space: pre" xml:space="preserve" font-family="Basier Circle" font-size="12" letter-spacing="0px"><tspan x="102.082" y="71.7891">INDstocks</tspan></text>
<path d="M195.5 43V47M207.5 41V45M206.5 36C208.949 36 210.273 36.3748 210.932 36.6654C211.02 36.7042 211.064 36.7235 211.19 36.8444C211.266 36.9168 211.405 37.1294 211.441 37.2281C211.5 37.3927 211.5 37.4827 211.5 37.6627V48.4111C211.5 49.3199 211.5 49.7743 211.364 50.0079C211.225 50.2454 211.091 50.3559 210.832 50.4472C210.577 50.5369 210.062 50.438 209.032 50.2401C208.311 50.1017 207.457 50 206.5 50C203.5 50 200.5 52 196.5 52C194.051 52 192.727 51.6252 192.068 51.3346C191.98 51.2958 191.936 51.2765 191.81 51.1556C191.734 51.0832 191.595 50.8706 191.559 50.7719C191.5 50.6073 191.5 50.5173 191.5 50.3373L191.5 39.5889C191.5 38.6801 191.5 38.2257 191.636 37.9921C191.775 37.7546 191.909 37.6441 192.168 37.5528C192.423 37.4631 192.938 37.562 193.968 37.7598C194.689 37.8983 195.543 38 196.5 38C199.5 38 202.5 36 206.5 36ZM204 44C204 45.3807 202.881 46.5 201.5 46.5C200.119 46.5 199 45.3807 199 44C199 42.6193 200.119 41.5 201.5 41.5C202.881 41.5 204 42.6193 204 44Z" stroke="#88898A" stroke-width="1.37143" stroke-linecap="round" stroke-linejoin="round"/>
<text fill="#5E6063" style="white-space: pre" xml:space="preserve" font-family="Basier Circle" font-size="12" letter-spacing="0px"><tspan x="189.43" y="71.7891">F&#38;O</tspan></text>
<g clip-path="url(#clip0_2275_33617)">
<path d="M276.734 38.202C276.734 38.1319 276.734 38.0969 276.748 38.0702C276.76 38.0467 276.779 38.0276 276.803 38.0156C276.829 38.002 276.864 38.002 276.934 38.002H278.034C278.104 38.002 278.139 38.002 278.166 38.0156C278.19 38.0276 278.209 38.0467 278.221 38.0702C278.234 38.0969 278.234 38.1319 278.234 38.202V40.752H279.234L277.484 42.502L275.734 40.752H276.734V38.202Z" stroke="#017AFE" stroke-width="0.8" stroke-linecap="round" stroke-linejoin="round"/>
<path d="M268.176 51.4738C268.176 51.5438 268.176 51.5788 268.162 51.6056C268.15 51.6291 268.131 51.6482 268.108 51.6602C268.081 51.6738 268.046 51.6738 267.976 51.6738L266.876 51.6738C266.806 51.6738 266.771 51.6738 266.744 51.6602C266.721 51.6482 266.701 51.6291 266.689 51.6056C266.676 51.5788 266.676 51.5438 266.676 51.4738L266.676 48.9238L265.676 48.9238L267.426 47.1738L269.176 48.9238L268.176 48.9238L268.176 51.4738Z" stroke="#017AFE" stroke-width="0.8" stroke-linecap="round" stroke-linejoin="round"/>
<path d="M262.797 44.7041H264.497M264.497 44.7041V35.2152C264.497 35.16 264.541 35.1152 264.597 35.1152H266.705C266.76 35.1152 266.805 35.16 266.805 35.2152V38.8773C266.805 38.9326 266.85 38.9773 266.905 38.9773H269.265C269.32 38.9773 269.365 39.0221 269.365 39.0773V41.6893C269.365 41.7445 269.41 41.7893 269.465 41.7893H271.447C271.503 41.7893 271.547 41.8341 271.547 41.8894L271.544 44.7041M264.497 44.7041H271.544M271.544 44.7041L273.66 44.7229M273.66 44.7229L280.97 44.7166H282.462M280.97 44.7166V53.752C280.97 53.8072 280.925 53.852 280.87 53.852H278.646C278.591 53.852 278.546 53.8072 278.546 53.752V50.8356C278.546 50.7804 278.502 50.7356 278.446 50.7356H276.3C276.244 50.7356 276.2 50.6909 276.2 50.6356V48.4118C276.2 48.3566 276.155 48.3118 276.1 48.3118H273.76C273.705 48.3118 273.66 48.267 273.66 48.2118V44.7229M266.807 38.5723V44.3887M269.364 41.5684V44.627M276.194 44.9004V48.7793M278.552 44.8652V51.2949" stroke="#017AFE" stroke-width="1.1" stroke-linecap="round"/>
</g>
<text fill="#017AFE" style="white-space: pre" xml:space="preserve" font-family="Basier Circle" font-size="12" letter-spacing="0px"><tspan x="246.9" y="71.7715">Positions</tspan></text>
<path d="M263 21H283C283 22.6569 281.657 24 280 24H266C264.343 24 263 22.6569 263 21Z" fill="#017AFE"/>
<path d="M336.5 38.8C336.5 37.1198 336.5 36.2798 336.827 35.638C337.115 35.0735 337.574 34.6146 338.138 34.327C338.78 34 339.62 34 341.3 34H345.7C347.38 34 348.22 34 348.862 34.327C349.426 34.6146 349.885 35.0735 350.173 35.638C350.5 36.2798 350.5 37.1198 350.5 38.8V52L343.5 48L336.5 52V38.8Z" stroke="#88898A" stroke-width="1.5" stroke-linecap="round" stroke-linejoin="round"/>
<text fill="#5E6063" style="white-space: pre" xml:space="preserve" font-family="Basier Circle" font-size="12" letter-spacing="0px"><tspan x="317.443" y="70.7891">Watchlist</tspan></text>
</g>
<defs>
<filter id="filter0_d_2275_33617" x="0" y="0" width="409" height="106" filterUnits="userSpaceOnUse" color-interpolation-filters="sRGB">
<feFlood flood-opacity="0" result="BackgroundImageFix"/>
<feColorMatrix in="SourceAlpha" type="matrix" values="0 0 0 0 0 0 0 0 0 0 0 0 0 0 0 0 0 0 127 0" result="hardAlpha"/>
<feOffset dy="-4"/>
<feGaussianBlur stdDeviation="8.5"/>
<feColorMatrix type="matrix" values="0 0 0 0 0 0 0 0 0 0 0 0 0 0 0 0 0 0 0.12 0"/>
<feBlend mode="normal" in2="BackgroundImageFix" result="effect1_dropShadow_2275_33617"/>
<feBlend mode="normal" in="SourceGraphic" in2="effect1_dropShadow_2275_33617" result="shape"/>
</filter>
<clipPath id="clip0_2275_33617">
<rect width="24" height="24" fill="white" transform="translate(260.5 32)"/>
</clipPath>
</defs>
</svg>
