<svg width="36" height="36" viewBox="0 0 36 36" fill="none" xmlns="http://www.w3.org/2000/svg">
<g clip-path="url(#clip0_4921_9672)">
<rect width="36" height="36" rx="18" fill="#0080CC"/>
<circle cx="18" cy="18" r="18" fill="#3D2C82"/>
<path fill-rule="evenodd" clip-rule="evenodd" d="M16.1599 19.3159H12.7216V16.7249L10.6875 19.3159V17.0743L12.7216 14.2932V5.625H15.5382L19.6571 12.4704L21.0263 10.7125V6.99373H19.0416V5.625H22.3547V8.89414L24.8638 5.625V7.89193L22.3547 11.2216V19.3159H19.0416L15.5382 13.6709V11.0327L19.813 17.9365H21.0263V12.9779L19.6571 14.8396L14.7556 6.99373H14.1538V17.9365H16.1599V19.3159Z" fill="white"/>
<path fill-rule="evenodd" clip-rule="evenodd" d="M16 20.5972H17.115V21.9129H16V20.5972Z" fill="#3C2F7F"/>
<path fill-rule="evenodd" clip-rule="evenodd" d="M14.0332 20.5972H15.9446V21.9129H14.0332V20.5972Z" fill="#E31E27"/>
<path fill-rule="evenodd" clip-rule="evenodd" d="M15.9434 20.5972H18.6512V21.9129H15.9434V20.5972Z" fill="#E96F24"/>
<path fill-rule="evenodd" clip-rule="evenodd" d="M18.6523 20.5972H22.1566V21.9129H18.6523V20.5972Z" fill="#F1B517"/>
<path d="M12.0208 31.7642C10.6136 31.7642 9.66602 30.8541 9.66602 29.7565H10.9325C10.9701 30.2068 11.2984 30.6477 12.0208 30.6477C12.8182 30.6477 13.1278 30.0661 13.1278 29.475C13.1278 28.9215 12.8089 28.368 12.0208 28.368C11.5517 28.368 11.2421 28.565 10.9982 28.8746H9.76921L10.0225 25.1126H13.9628V26.2384H11.0639L10.9419 27.7301H10.9794C11.2703 27.4767 11.6924 27.3266 12.2178 27.3266C13.5406 27.3266 14.4037 28.246 14.4037 29.475C14.4037 30.7885 13.5594 31.7642 12.0208 31.7642Z" fill="white"/>
<path d="M17.76 31.7642C15.9963 31.7642 15.2739 30.3381 15.2739 28.3774C15.2739 26.426 15.9963 25 17.76 25C19.5238 25 20.2461 26.426 20.2461 28.3774C20.2461 30.3381 19.5238 31.7642 17.76 31.7642ZM17.76 30.6477C18.6794 30.6477 18.9609 29.8128 18.9609 28.3774C18.9609 26.9514 18.67 26.1164 17.76 26.1164C16.85 26.1164 16.5592 26.9514 16.5592 28.3774C16.5592 29.8128 16.8406 30.6477 17.76 30.6477Z" fill="white"/>
<path d="M23.651 31.7642C21.8873 31.7642 21.1649 30.3381 21.1649 28.3774C21.1649 26.426 21.8873 25 23.651 25C25.4148 25 26.1371 26.426 26.1371 28.3774C26.1371 30.3381 25.4148 31.7642 23.651 31.7642ZM23.651 30.6477C24.5704 30.6477 24.8519 29.8128 24.8519 28.3774C24.8519 26.9514 24.561 26.1164 23.651 26.1164C22.741 26.1164 22.4502 26.9514 22.4502 28.3774C22.4502 29.8128 22.7316 30.6477 23.651 30.6477Z" fill="white"/>
</g>
<defs>
<clipPath id="clip0_4921_9672">
<rect width="36" height="36" rx="18" fill="white"/>
</clipPath>
</defs>
</svg>
