<svg width="409" height="106" viewBox="0 0 409 106" fill="none" xmlns="http://www.w3.org/2000/svg">
<g filter="url(#filter0_d_1528_5834)">
<rect width="375" height="72" transform="translate(17 21)" fill="white"/>
<rect width="24" height="24" transform="translate(41.5 32)" fill="white"/>
<path d="M53.5 40L49.5 44M49.5 44L53.5 48M49.5 44H57.5M63.5 44C63.5 49.5228 59.0228 54 53.5 54C47.9772 54 43.5 49.5228 43.5 44C43.5 38.4772 47.9772 34 53.5 34C59.0228 34 63.5 38.4772 63.5 44Z" stroke="#223466" stroke-width="1.71429" stroke-linecap="round" stroke-linejoin="round"/>
<text fill="#223466" style="white-space: pre" xml:space="preserve" font-family="Basier Circle" font-size="12" letter-spacing="0px"><tspan x="36.9531" y="71.7715">Home</tspan></text>
<line x1="86.5" y1="32" x2="86.5" y2="74" stroke="#88898A"/>
<text fill="#5E6063" style="white-space: pre" xml:space="preserve" font-family="Basier Circle" font-size="12" letter-spacing="0px"><tspan x="102.082" y="73.2891">INDstocks</tspan></text>
<path d="M130.171 54.5C130.088 54.5 130.012 54.456 129.97 54.3845L125.213 46.2351C125.193 46.1994 125.182 46.1589 125.182 46.1177V45.3043C125.182 45.1757 125.286 45.0714 125.415 45.0714H125.747C126.655 45.0714 127.417 44.9874 128.033 44.8193C128.667 44.6513 129.164 44.3739 129.524 43.9874C129.836 43.6512 130.039 43.207 130.132 42.6547C130.154 42.5186 130.046 42.3992 129.908 42.3992H125.415C125.286 42.3992 125.182 42.2949 125.182 42.1663V41.0186C125.182 40.89 125.286 40.7857 125.415 40.7857H129.858C130.004 40.7857 130.115 40.6521 130.077 40.5108C129.945 40.0136 129.726 39.601 129.421 39.2731C129.061 38.8697 128.573 38.5756 127.956 38.3908C127.357 38.2059 126.62 38.1134 125.747 38.1134H125.415C125.286 38.1134 125.182 38.0092 125.182 37.8806V36.7329C125.182 36.6043 125.286 36.5 125.415 36.5H135.585C135.714 36.5 135.818 36.6043 135.818 36.7329V37.8806C135.818 38.0092 135.714 38.1134 135.585 38.1134H131.619C131.4 38.1134 131.292 38.402 131.439 38.565C131.627 38.7739 131.794 39.0016 131.939 39.2479C132.165 39.6332 132.318 40.0774 132.398 40.5803C132.417 40.697 132.516 40.7857 132.634 40.7857H135.585C135.714 40.7857 135.818 40.89 135.818 41.0186V42.1663C135.818 42.2949 135.714 42.3992 135.585 42.3992H132.689C132.569 42.3992 132.47 42.4903 132.454 42.609C132.302 43.7358 131.83 44.6238 131.039 45.2731C130.289 45.8863 129.311 46.2968 128.106 46.5045C127.939 46.5331 127.851 46.7206 127.939 46.864L132.438 54.1447C132.534 54.2999 132.423 54.5 132.24 54.5H130.171Z" fill="#88898A"/>
<path d="M195.5 44.5V48.5M207.5 42.5V46.5M206.5 37.5C208.949 37.5 210.273 37.8748 210.932 38.1654C211.02 38.2042 211.064 38.2235 211.19 38.3444C211.266 38.4168 211.405 38.6294 211.441 38.7281C211.5 38.8927 211.5 38.9827 211.5 39.1627V49.9111C211.5 50.8199 211.5 51.2743 211.364 51.5079C211.225 51.7454 211.091 51.8559 210.832 51.9472C210.577 52.0369 210.062 51.938 209.032 51.7401C208.311 51.6017 207.457 51.5 206.5 51.5C203.5 51.5 200.5 53.5 196.5 53.5C194.051 53.5 192.727 53.1252 192.068 52.8346C191.98 52.7958 191.936 52.7765 191.81 52.6556C191.734 52.5832 191.595 52.3706 191.559 52.2719C191.5 52.1073 191.5 52.0173 191.5 51.8373L191.5 41.0889C191.5 40.1801 191.5 39.7257 191.636 39.4921C191.775 39.2546 191.909 39.1441 192.168 39.0528C192.423 38.9631 192.938 39.062 193.968 39.2598C194.689 39.3983 195.543 39.5 196.5 39.5C199.5 39.5 202.5 37.5 206.5 37.5ZM204 45.5C204 46.8807 202.881 48 201.5 48C200.119 48 199 46.8807 199 45.5C199 44.1193 200.119 43 201.5 43C202.881 43 204 44.1193 204 45.5Z" stroke="#88898A" stroke-width="1.37143" stroke-linecap="round" stroke-linejoin="round"/>
<text fill="#5E6063" style="white-space: pre" xml:space="preserve" font-family="Basier Circle" font-size="12" letter-spacing="0px"><tspan x="189.43" y="73.2891">F&#38;O</tspan></text>
<path d="M271.5 44.5H266.7C265.58 44.5 265.02 44.5 264.592 44.718C264.216 44.9097 263.91 45.2157 263.718 45.592C263.5 46.0198 263.5 46.5799 263.5 47.7V54.5M281.5 54.5V39.7C281.5 38.5799 281.5 38.0198 281.282 37.592C281.09 37.2157 280.784 36.9097 280.408 36.718C279.98 36.5 279.42 36.5 278.3 36.5H274.7C273.58 36.5 273.02 36.5 272.592 36.718C272.216 36.9097 271.91 37.2157 271.718 37.592C271.5 38.0198 271.5 38.5799 271.5 39.7V54.5M282.5 54.5H262.5M275 40.5H278M275 44.5H278M275 48.5H278" stroke="#88898A" stroke-width="1.37143" stroke-linecap="round" stroke-linejoin="round"/>
<text fill="#5E6063" style="white-space: pre" xml:space="preserve" font-family="Basier Circle" font-size="12" letter-spacing="0px"><tspan x="259.369" y="73.2891">IPOs</tspan></text>
<path d="M333.5 21H353.5C353.5 22.6569 352.157 24 350.5 24H336.5C334.843 24 333.5 22.6569 333.5 21Z" fill="#017AFE"/>
<path d="M343.5 40V56M343.5 40H339.964C339.443 40 338.944 39.7893 338.575 39.4142C338.207 39.0391 338 38.5304 338 38C338 37.4696 338.207 36.9609 338.575 36.5858C338.944 36.2107 339.443 36 339.964 36C342.714 36 343.5 40 343.5 40ZM343.5 40H347.036C347.557 40 348.056 39.7893 348.425 39.4142C348.793 39.0391 349 38.5304 349 38C349 37.4696 348.793 36.9609 348.425 36.5858C348.056 36.2107 347.557 36 347.036 36C344.286 36 343.5 40 343.5 40ZM351.5 45V52.8C351.5 53.9201 351.5 54.4802 351.282 54.908C351.09 55.2843 350.784 55.5903 350.408 55.782C349.98 56 349.42 56 348.3 56L338.7 56C337.58 56 337.02 56 336.592 55.782C336.216 55.5903 335.91 55.2843 335.718 54.908C335.5 54.4802 335.5 53.9201 335.5 52.8V45M333.5 41.6L333.5 43.4C333.5 43.9601 333.5 44.2401 333.609 44.454C333.705 44.6422 333.858 44.7951 334.046 44.891C334.26 45 334.54 45 335.1 45L351.9 45C352.46 45 352.74 45 352.954 44.891C353.142 44.7951 353.295 44.6422 353.391 44.454C353.5 44.2401 353.5 43.9601 353.5 43.4V41.6C353.5 41.0399 353.5 40.7599 353.391 40.546C353.295 40.3578 353.142 40.2049 352.954 40.109C352.74 40 352.46 40 351.9 40L335.1 40C334.54 40 334.26 40 334.046 40.109C333.858 40.2049 333.705 40.3578 333.609 40.546C333.5 40.7599 333.5 41.0399 333.5 41.6Z" stroke="#017AFE" stroke-width="1.37" stroke-linecap="round" stroke-linejoin="round"/>
<text fill="#017AFE" style="white-space: pre" xml:space="preserve" font-family="Basier Circle" font-size="12" letter-spacing="0px"><tspan x="319.395" y="73.7715">Rewards</tspan></text>
</g>
<defs>
<filter id="filter0_d_1528_5834" x="0" y="0" width="409" height="106" filterUnits="userSpaceOnUse" color-interpolation-filters="sRGB">
<feFlood flood-opacity="0" result="BackgroundImageFix"/>
<feColorMatrix in="SourceAlpha" type="matrix" values="0 0 0 0 0 0 0 0 0 0 0 0 0 0 0 0 0 0 127 0" result="hardAlpha"/>
<feOffset dy="-4"/>
<feGaussianBlur stdDeviation="8.5"/>
<feColorMatrix type="matrix" values="0 0 0 0 0 0 0 0 0 0 0 0 0 0 0 0 0 0 0.12 0"/>
<feBlend mode="normal" in2="BackgroundImageFix" result="effect1_dropShadow_1528_5834"/>
<feBlend mode="normal" in="SourceGraphic" in2="effect1_dropShadow_1528_5834" result="shape"/>
</filter>
</defs>
</svg>
