<svg width="12" height="12" viewBox="0 0 12 12" fill="none" xmlns="http://www.w3.org/2000/svg">
<g clip-path="url(#clip0_3200_74256)">
<path d="M0 6C0 9.31371 2.68629 12 6 12C9.31371 12 12 9.31371 12 6C12 2.68629 9.31371 0 6 0C2.68629 0 0 2.68629 0 6Z" fill="white"/>
<path d="M3.00758 4.21582C2.82828 4.21582 2.67969 4.36617 2.67969 4.54734V6.9832C2.67969 7.16004 2.8284 7.31039 3.00758 7.31039C3.18688 7.31039 3.33113 7.16004 3.33113 6.9832V4.54746C3.33113 4.36617 3.18676 4.21582 3.00758 4.21582Z" fill="#191C1F"/>
<path d="M9.07457 5.16223C8.99816 4.9773 8.88133 4.81453 8.73754 4.66922C8.59375 4.53281 8.42301 4.41832 8.23434 4.3391C8.04109 4.25988 7.83449 4.22027 7.61875 4.22027H6.98523C6.9673 4.21582 6.94926 4.21582 6.93133 4.21582C6.74266 4.21582 6.58984 4.36547 6.58984 4.55039V6.97582C6.58984 7.16074 6.73363 7.3016 6.91785 7.31039H7.61875C7.83437 7.31039 8.04109 7.26633 8.23434 7.18711C8.42301 7.10789 8.59375 6.99785 8.73754 6.86133C8.88133 6.71168 8.99816 6.55324 9.07457 6.36387C9.15543 6.17461 9.19586 5.97644 9.19586 5.76516C9.19586 5.55844 9.15543 5.3516 9.07457 5.16223ZM8.27348 6.39668C8.09605 6.57 7.8625 6.65894 7.60562 6.65894H7.24141V4.86738H7.60562C7.8625 4.86738 8.09594 4.96523 8.27348 5.1341C8.45102 5.30297 8.5443 5.52527 8.5443 5.76539C8.5443 6.00539 8.4509 6.22769 8.27348 6.39668Z" fill="#191C1F"/>
<path d="M7.11188 3.41538L6.15047 2.45398C6.08367 2.38718 5.99531 2.35566 5.90789 2.35859C5.82047 2.35566 5.73211 2.3873 5.66531 2.45398L4.70391 3.41538C4.57594 3.54335 4.57594 3.75077 4.70391 3.87874C4.83188 4.00671 5.0393 4.00671 5.16727 3.87874L5.60156 3.44444V6.05913L4.44223 4.3837C4.38445 4.28198 4.27793 4.21566 4.15348 4.21566C3.97137 4.21566 3.82031 4.36601 3.82031 4.54718V6.9787C3.82031 7.15999 3.97137 7.31023 4.15348 7.31023C4.34004 7.31023 4.48664 7.15987 4.48664 6.9787V5.4712L5.66379 7.16433C5.66379 7.16878 5.66379 7.17312 5.66824 7.17757C5.73492 7.26159 5.8282 7.31023 5.93473 7.31023C6.11684 7.31023 6.26344 7.15987 6.26344 6.9787V3.49355L6.64863 3.87874C6.7766 4.00671 6.98402 4.00671 7.11199 3.87874C7.23996 3.75077 7.23984 3.54335 7.11188 3.41538Z" fill="#191C1F"/>
<path d="M4.26588 8.39119V8.91136C4.26588 8.98322 4.20762 9.04134 4.1359 9.04134C4.06405 9.04134 4.00592 8.98309 4.00592 8.91136V8.46485C4.00592 8.34135 3.9777 8.18742 3.81082 8.18742C3.64822 8.18742 3.58103 8.33915 3.58103 8.47353V8.91136C3.58103 8.98322 3.52277 9.04134 3.45105 9.04134C3.3792 9.04134 3.32107 8.98309 3.32107 8.91136V8.41281C3.32107 8.2849 3.26035 8.18742 3.12817 8.18742C2.97217 8.18742 2.90058 8.33047 2.90058 8.46913V8.91124C2.90058 8.98309 2.84233 9.04121 2.7706 9.04121C2.69875 9.04121 2.64062 8.98296 2.64062 8.91124V8.1245C2.64062 8.05628 2.6959 8.001 2.76413 8.001C2.83236 8.001 2.88764 8.05628 2.88764 8.1245V8.16787H2.89191C2.93748 8.06599 3.04791 7.9707 3.21478 7.9707C3.37519 7.9707 3.48134 8.05084 3.53986 8.16787C3.60925 8.04217 3.72628 7.9707 3.88228 7.9707C4.15312 7.9707 4.26588 8.17888 4.26588 8.39119Z" fill="#191C1F"/>
<path d="M5.07343 7.9707C5.38776 7.9707 5.63904 8.18962 5.63904 8.5169C5.63904 8.84417 5.38763 9.07177 5.07343 9.07177C4.75923 9.07177 4.50781 8.84417 4.50781 8.5169C4.50781 8.18962 4.75923 7.9707 5.07343 7.9707ZM5.07343 8.85505C5.27927 8.85505 5.37468 8.6795 5.37468 8.5169C5.37468 8.35429 5.27927 8.18315 5.07343 8.18315C4.86758 8.18315 4.77217 8.35442 4.77217 8.5169C4.77217 8.6795 4.86758 8.85505 5.07343 8.85505Z" fill="#191C1F"/>
<path d="M6.00183 8.001H6.02734C6.08857 8.001 6.13815 8.05058 6.13815 8.11182V8.16787H6.14243C6.188 8.06379 6.3115 7.9707 6.4653 7.9707C6.73626 7.9707 6.84889 8.17875 6.84889 8.39119V8.93066C6.84889 8.99189 6.79931 9.04147 6.73807 9.04147H6.6995C6.63826 9.04147 6.58868 8.99189 6.58868 8.93066V8.46486C6.58868 8.34135 6.56045 8.18742 6.39358 8.18742C6.22891 8.18742 6.15084 8.33047 6.15084 8.46913V8.93053C6.15084 8.99176 6.10126 9.04134 6.04002 9.04134H6.00144C5.94021 9.04134 5.89062 8.99176 5.89062 8.93053V8.11182C5.89101 8.05058 5.9406 8.001 6.00183 8.001Z" fill="#191C1F"/>
<path d="M8.07804 8.60351H7.35358C7.36445 8.75083 7.49883 8.85932 7.65056 8.85932C7.74338 8.85932 7.8142 8.83278 7.86844 8.7876C7.9078 8.75485 7.96554 8.75666 8.00554 8.78864C8.0603 8.83239 8.06199 8.91654 8.00736 8.9603C7.91479 9.03448 7.79711 9.07164 7.65289 9.07164C7.33209 9.07164 7.09375 8.8658 7.09375 8.52764C7.09375 8.19169 7.33002 7.9707 7.64422 7.9707C7.9346 7.9707 8.14704 8.1592 8.14704 8.53425V8.53476C8.14691 8.5727 8.1161 8.60351 8.07804 8.60351ZM7.88683 8.41708C7.88683 8.2827 7.81096 8.16567 7.64189 8.16567C7.48796 8.16567 7.36445 8.27183 7.35358 8.41708H7.88683Z" fill="#191C1F"/>
<path d="M8.43947 8.00073C8.49358 8.00073 8.54213 8.03413 8.56155 8.08462L8.81969 8.75717H8.8241L9.05324 8.08501C9.07046 8.03465 9.11771 8.00073 9.17092 8.00073C9.25844 8.00073 9.31851 8.08864 9.28679 8.1702L8.86086 9.26427C8.7872 9.45276 8.69619 9.56125 8.4664 9.56125C8.4594 9.56125 8.45228 9.56112 8.44516 9.56086C8.38354 9.55879 8.3359 9.5061 8.34185 9.44474L8.34289 9.43335C8.3482 9.37794 8.3948 9.33573 8.45034 9.33586H8.45125C8.56181 9.33586 8.5921 9.28162 8.63547 9.17326L8.68752 9.04108L8.31933 8.18314C8.2823 8.09666 8.34561 8.00073 8.43947 8.00073Z" fill="#191C1F"/>
</g>
<defs>
<clipPath id="clip0_3200_74256">
<rect width="12" height="12" fill="white"/>
</clipPath>
</defs>
</svg>
