<svg width="32" height="32" viewBox="0 0 32 32" fill="none" xmlns="http://www.w3.org/2000/svg">
<g clip-path="url(#clip0_3200_74258)">
<path d="M0 16C0 24.8366 7.16344 32 16 32C24.8366 32 32 24.8366 32 16C32 7.16344 24.8366 0 16 0C7.16344 0 0 7.16344 0 16Z" fill="white"/>
<path d="M8.02281 11.2547C7.54469 11.2547 7.14844 11.6556 7.14844 12.1388V18.6344C7.14844 19.1059 7.545 19.5069 8.02281 19.5069C8.50094 19.5069 8.88563 19.1059 8.88563 18.6344V12.1391C8.88563 11.6556 8.50063 11.2547 8.02281 11.2547Z" fill="#191C1F"/>
<path d="M24.1962 13.7784C23.9925 13.2853 23.6809 12.8513 23.2975 12.4638C22.9141 12.1 22.4587 11.7947 21.9556 11.5835C21.4403 11.3722 20.8894 11.2666 20.3141 11.2666H18.6247C18.5769 11.2547 18.5288 11.2547 18.4809 11.2547C17.9778 11.2547 17.5703 11.6538 17.5703 12.1469V18.6147C17.5703 19.1078 17.9537 19.4834 18.445 19.5069H20.3141C20.8891 19.5069 21.4403 19.3894 21.9556 19.1781C22.4587 18.9669 22.9141 18.6734 23.2975 18.3094C23.6809 17.9103 23.9925 17.4878 24.1962 16.9828C24.4119 16.4781 24.5197 15.9497 24.5197 15.3863C24.5197 14.835 24.4119 14.2834 24.1962 13.7784ZM22.06 17.0703C21.5869 17.5325 20.9641 17.7697 20.2791 17.7697H19.3078V12.9922H20.2791C20.9641 12.9922 21.5866 13.2531 22.06 13.7034C22.5334 14.1538 22.7822 14.7466 22.7822 15.3869C22.7822 16.0269 22.5331 16.6197 22.06 17.0703Z" fill="#191C1F"/>
<path d="M18.965 9.12957L16.4013 6.56582C16.2231 6.38769 15.9875 6.30363 15.7544 6.31144C15.5213 6.30363 15.2856 6.388 15.1075 6.56582L12.5438 9.12957C12.2025 9.47082 12.2025 10.0239 12.5438 10.3652C12.885 10.7064 13.4381 10.7064 13.7794 10.3652L14.9375 9.20707V16.1796L11.8459 11.7118C11.6919 11.4405 11.4078 11.2636 11.0759 11.2636C10.5903 11.2636 10.1875 11.6646 10.1875 12.1477V18.6318C10.1875 19.1152 10.5903 19.5158 11.0759 19.5158C11.5734 19.5158 11.9644 19.1149 11.9644 18.6318V14.6118L15.1034 19.1268C15.1034 19.1386 15.1034 19.1502 15.1153 19.1621C15.2931 19.3861 15.5419 19.5158 15.8259 19.5158C16.3116 19.5158 16.7025 19.1149 16.7025 18.6318V9.338L17.7297 10.3652C18.0709 10.7064 18.6241 10.7064 18.9653 10.3652C19.3066 10.0239 19.3063 9.47082 18.965 9.12957Z" fill="#191C1F"/>
<path d="M11.377 22.3924V23.7795C11.377 23.9711 11.2216 24.1261 11.0304 24.1261C10.8388 24.1261 10.6838 23.9708 10.6838 23.7795V22.5888C10.6838 22.2595 10.6085 21.849 10.1635 21.849C9.72988 21.849 9.55071 22.2536 9.55071 22.612V23.7795C9.55071 23.9711 9.39536 24.1261 9.2041 24.1261C9.0125 24.1261 8.85749 23.9708 8.85749 23.7795V22.45C8.85749 22.109 8.69558 21.849 8.3431 21.849C7.9271 21.849 7.73619 22.2305 7.73619 22.6002V23.7792C7.73619 23.9708 7.58084 24.1258 7.38958 24.1258C7.19798 24.1258 7.04297 23.9704 7.04297 23.7792V21.6812C7.04297 21.4993 7.19038 21.3519 7.37232 21.3519C7.55425 21.3519 7.70166 21.4993 7.70166 21.6812V21.7969H7.71306C7.83458 21.5252 8.12906 21.2711 8.57406 21.2711C9.0018 21.2711 9.28488 21.4848 9.44093 21.7969C9.62597 21.4617 9.93806 21.2711 10.3541 21.2711C11.0763 21.2711 11.377 21.8262 11.377 22.3924Z" fill="#191C1F"/>
<path d="M13.5317 21.2711C14.37 21.2711 15.04 21.8549 15.04 22.7276C15.04 23.6003 14.3696 24.2073 13.5317 24.2073C12.6939 24.2073 12.0234 23.6003 12.0234 22.7276C12.0234 21.8549 12.6939 21.2711 13.5317 21.2711ZM13.5317 23.6293C14.0807 23.6293 14.3351 23.1612 14.3351 22.7276C14.3351 22.294 14.0807 21.8376 13.5317 21.8376C12.9828 21.8376 12.7284 22.2943 12.7284 22.7276C12.7284 23.1612 12.9828 23.6293 13.5317 23.6293Z" fill="#191C1F"/>
<path d="M16.0075 21.3519H16.0755C16.2388 21.3519 16.371 21.4841 16.371 21.6474V21.7969H16.3824C16.5039 21.5193 16.8333 21.2711 17.2434 21.2711C17.966 21.2711 18.2663 21.8259 18.2663 22.3924V23.831C18.2663 23.9943 18.1341 24.1265 17.9708 24.1265H17.8679C17.7046 24.1265 17.5724 23.9943 17.5724 23.831V22.5888C17.5724 22.2595 17.4971 21.849 17.0522 21.849C16.613 21.849 16.4048 22.2305 16.4048 22.6002V23.8306C16.4048 23.9939 16.2726 24.1261 16.1093 24.1261H16.0065C15.8432 24.1261 15.7109 23.9939 15.7109 23.8306V21.6474C15.712 21.4841 15.8442 21.3519 16.0075 21.3519Z" fill="#191C1F"/>
<path d="M21.5388 22.9586H19.6069C19.6359 23.3514 19.9943 23.6407 20.3989 23.6407C20.6464 23.6407 20.8353 23.57 20.9799 23.4495C21.0849 23.3621 21.2388 23.367 21.3455 23.4522C21.4915 23.5689 21.496 23.7933 21.3503 23.91C21.1035 24.1078 20.7897 24.2069 20.4051 24.2069C19.5496 24.2069 18.9141 23.658 18.9141 22.7563C18.9141 21.8604 19.5441 21.2711 20.382 21.2711C21.1563 21.2711 21.7228 21.7737 21.7228 22.7739V22.7753C21.7225 22.8764 21.6403 22.9586 21.5388 22.9586ZM21.0289 22.4614C21.0289 22.1031 20.8266 21.791 20.3758 21.791C19.9653 21.791 19.6359 22.0741 19.6069 22.4614H21.0289Z" fill="#191C1F"/>
<path d="M22.5052 21.3586C22.6496 21.3586 22.779 21.4476 22.8308 21.5823L23.5192 23.3758H23.5309L24.142 21.5833C24.1879 21.449 24.3139 21.3586 24.4558 21.3586C24.6892 21.3586 24.8494 21.593 24.7648 21.8105L23.629 24.728C23.4325 25.2307 23.1898 25.52 22.5771 25.52C22.5584 25.52 22.5394 25.5196 22.5204 25.5189C22.3561 25.5134 22.2291 25.3729 22.2449 25.2093L22.2477 25.1789C22.2619 25.0311 22.3861 24.9186 22.5342 24.9189H22.5367C22.8315 24.9189 22.9123 24.7743 23.0279 24.4853L23.1667 24.1328L22.1849 21.845C22.0861 21.6144 22.255 21.3586 22.5052 21.3586Z" fill="#191C1F"/>
</g>
<defs>
<clipPath id="clip0_3200_74258">
<rect width="32" height="32" fill="white"/>
</clipPath>
</defs>
</svg>
