<svg width="40" height="40" viewBox="0 0 40 40" fill="none" xmlns="http://www.w3.org/2000/svg">
<g clip-path="url(#clip0_3200_74253)">
<path d="M0 20C0 31.0457 8.9543 40 20 40C31.0457 40 40 31.0457 40 20C40 8.9543 31.0457 0 20 0C8.9543 0 0 8.9543 0 20Z" fill="#191C1F"/>
<path d="M10.0305 14.0723C9.43281 14.0723 8.9375 14.5734 8.9375 15.1773V23.2969C8.9375 23.8863 9.4332 24.3875 10.0305 24.3875C10.6281 24.3875 11.109 23.8863 11.109 23.2969V15.1777C11.109 14.5734 10.6277 14.0723 10.0305 14.0723Z" fill="white"/>
<path d="M30.2473 17.227C29.9926 16.6105 29.6031 16.068 29.1238 15.5836C28.6445 15.1289 28.0754 14.7473 27.4465 14.4832C26.8023 14.2191 26.1137 14.0871 25.3945 14.0871H23.2828C23.223 14.0723 23.1629 14.0723 23.1031 14.0723C22.4742 14.0723 21.9648 14.5711 21.9648 15.1875V23.2723C21.9648 23.8887 22.4441 24.3582 23.0582 24.3875H25.3945C26.1133 24.3875 26.8023 24.2406 27.4465 23.9766C28.0754 23.7125 28.6445 23.3457 29.1238 22.8906C29.6031 22.3918 29.9926 21.8637 30.2473 21.2324C30.5168 20.6016 30.6516 19.941 30.6516 19.2367C30.6516 18.5477 30.5168 17.8582 30.2473 17.227ZM27.577 21.3418C26.9855 21.9195 26.207 22.216 25.3508 22.216H24.1367V16.2441H25.3508C26.207 16.2441 26.9852 16.5703 27.577 17.1332C28.1687 17.6961 28.4797 18.4371 28.4797 19.2375C28.4797 20.0375 28.1684 20.7785 27.577 21.3418Z" fill="white"/>
<path d="M23.7102 11.4139L20.5055 8.20922C20.2828 7.98656 19.9883 7.88148 19.6969 7.89125C19.4055 7.88148 19.1109 7.98695 18.8883 8.20922L15.6836 11.4139C15.257 11.8405 15.257 12.5319 15.6836 12.9584C16.1102 13.385 16.8016 13.385 17.2281 12.9584L18.6758 11.5108V20.2264L14.8113 14.6416C14.6188 14.3026 14.2637 14.0815 13.8488 14.0815C13.2418 14.0815 12.7383 14.5827 12.7383 15.1866V23.2916C12.7383 23.8959 13.2418 24.3967 13.8488 24.3967C14.4707 24.3967 14.9594 23.8955 14.9594 23.2916V18.2666L18.8832 23.9104C18.8832 23.9252 18.8832 23.9397 18.898 23.9545C19.1203 24.2346 19.4312 24.3967 19.7863 24.3967C20.3934 24.3967 20.882 23.8955 20.882 23.2916V11.6745L22.166 12.9584C22.5926 13.385 23.284 13.385 23.7105 12.9584C24.1371 12.5319 24.1367 11.8405 23.7102 11.4139Z" fill="white"/>
<path d="M14.2222 27.9954V29.7293C14.2222 29.9688 14.028 30.1626 13.7889 30.1626C13.5494 30.1626 13.3557 29.9684 13.3557 29.7293V28.2409C13.3557 27.8292 13.2616 27.3161 12.7053 27.3161C12.1633 27.3161 11.9394 27.8219 11.9394 28.2698V29.7293C11.9394 29.9688 11.7452 30.1626 11.5061 30.1626C11.2666 30.1626 11.0728 29.9684 11.0728 29.7293V28.0674C11.0728 27.6411 10.8705 27.3161 10.4299 27.3161C9.90985 27.3161 9.67121 27.793 9.67121 28.2552V29.7289C9.67121 29.9684 9.47702 30.1621 9.23795 30.1621C8.99845 30.1621 8.80469 29.9679 8.80469 29.7289V27.1064C8.80469 26.879 8.98895 26.6947 9.21637 26.6947C9.44379 26.6947 9.62806 26.879 9.62806 27.1064V27.251H9.6423C9.7942 26.9114 10.1623 26.5938 10.7185 26.5938C11.2532 26.5938 11.6071 26.8609 11.8021 27.251C12.0334 26.832 12.4235 26.5938 12.9435 26.5938C13.8463 26.5937 14.2222 27.2877 14.2222 27.9954Z" fill="white"/>
<path d="M16.9166 26.5938C17.9644 26.5938 18.802 27.3235 18.802 28.4144C18.802 29.5053 17.964 30.264 16.9166 30.264C15.8693 30.264 15.0312 29.5053 15.0312 28.4144C15.0312 27.3235 15.8693 26.5938 16.9166 26.5938ZM16.9166 29.5416C17.6028 29.5416 17.9208 28.9564 17.9208 28.4144C17.9208 27.8724 17.6028 27.3019 16.9166 27.3019C16.2305 27.3019 15.9124 27.8728 15.9124 28.4144C15.9124 28.9564 16.2305 29.5416 16.9166 29.5416Z" fill="white"/>
<path d="M20.0113 26.6947H20.0963C20.3004 26.6947 20.4657 26.86 20.4657 27.0641V27.251H20.48C20.6319 26.904 21.0435 26.5938 21.5562 26.5938C22.4594 26.5938 22.8349 27.2872 22.8349 27.9954V29.7936C22.8349 29.9977 22.6696 30.163 22.4655 30.163H22.3369C22.1327 30.163 21.9675 29.9977 21.9675 29.7936V28.2409C21.9675 27.8292 21.8734 27.3161 21.3171 27.3161C20.7682 27.3161 20.508 27.793 20.508 28.2552V29.7932C20.508 29.9973 20.3427 30.1626 20.1386 30.1626H20.01C19.8059 30.1626 19.6406 29.9973 19.6406 29.7932V27.0641C19.6419 26.86 19.8072 26.6947 20.0113 26.6947Z" fill="white"/>
<path d="M26.9255 28.7031H24.5106C24.5469 29.1942 24.9948 29.5558 25.5006 29.5558C25.81 29.5558 26.046 29.4674 26.2268 29.3167C26.358 29.2076 26.5505 29.2136 26.6838 29.3202C26.8664 29.4661 26.872 29.7466 26.6899 29.8924C26.3813 30.1397 25.9891 30.2635 25.5083 30.2635C24.439 30.2635 23.6445 29.5774 23.6445 28.4502C23.6445 27.3304 24.4321 26.5938 25.4794 26.5938C26.4474 26.5938 27.1555 27.2221 27.1555 28.4722V28.474C27.1551 28.6004 27.0524 28.7031 26.9255 28.7031ZM26.2881 28.0817C26.2881 27.6338 26.0352 27.2436 25.4717 27.2436C24.9586 27.2436 24.5469 27.5975 24.5106 28.0817H26.2881Z" fill="white"/>
<path d="M28.1316 26.7012C28.3119 26.7012 28.4738 26.8125 28.5385 26.9808L29.399 29.2226H29.4137L30.1775 26.9821C30.2349 26.8142 30.3924 26.7012 30.5697 26.7012C30.8615 26.7012 31.0617 26.9942 30.956 27.2661L29.5362 30.913C29.2907 31.5413 28.9873 31.9029 28.2213 31.9029C28.198 31.9029 28.1743 31.9025 28.1505 31.9016C27.9451 31.8947 27.7863 31.7191 27.8062 31.5145L27.8096 31.4765C27.8273 31.2919 27.9827 31.1512 28.1678 31.1516H28.1708C28.5394 31.1516 28.6403 30.9708 28.7849 30.6096L28.9584 30.169L27.7311 27.3092C27.6077 27.0209 27.8187 26.7012 28.1316 26.7012Z" fill="white"/>
</g>
<defs>
<clipPath id="clip0_3200_74253">
<rect width="40" height="40" fill="white"/>
</clipPath>
</defs>
</svg>
