<svg width="24" height="24" viewBox="0 0 24 24" fill="none" xmlns="http://www.w3.org/2000/svg">
<g clip-path="url(#clip0_3200_74255)">
<path d="M0 12C0 18.6274 5.37258 24 12 24C18.6274 24 24 18.6274 24 12C24 5.37258 18.6274 0 12 0C5.37258 0 0 5.37258 0 12Z" fill="#191C1F"/>
<path d="M6.01906 8.43518C5.66047 8.43518 5.36328 8.73588 5.36328 9.09823V13.9699C5.36328 14.3236 5.6607 14.6243 6.01906 14.6243C6.37766 14.6243 6.66617 14.3236 6.66617 13.9699V9.09846C6.66617 8.73588 6.37742 8.43518 6.01906 8.43518Z" fill="white"/>
<path d="M18.1491 10.328C17.9963 9.95815 17.7627 9.6326 17.4751 9.34198C17.1875 9.06916 16.846 8.84018 16.4687 8.68174C16.0822 8.52331 15.669 8.44409 15.2375 8.44409H13.9705C13.9346 8.43518 13.8985 8.43518 13.8627 8.43518C13.4853 8.43518 13.1797 8.73448 13.1797 9.10432V13.9552C13.1797 14.325 13.4673 14.6067 13.8357 14.6243H15.2375C15.6687 14.6243 16.0822 14.5362 16.4687 14.3778C16.846 14.2193 17.1875 13.9992 17.4751 13.7262C17.7627 13.4269 17.9963 13.11 18.1491 12.7313C18.3109 12.3528 18.3917 11.9564 18.3917 11.5339C18.3917 11.1204 18.3109 10.7067 18.1491 10.328ZM16.547 12.7969C16.1921 13.1435 15.725 13.3214 15.2112 13.3214H14.4828V9.73831H15.2112C15.725 9.73831 16.1919 9.93401 16.547 10.2717C16.902 10.6095 17.0886 11.0541 17.0886 11.5343C17.0886 12.0143 16.9018 12.4589 16.547 12.7969Z" fill="white"/>
<path d="M14.2277 6.84132L12.3048 4.91851C12.1713 4.78492 11.9945 4.72187 11.8197 4.72773C11.6448 4.72187 11.4681 4.78515 11.3345 4.91851L9.41172 6.84132C9.15578 7.09726 9.15578 7.5121 9.41172 7.76804C9.66766 8.02398 10.0825 8.02398 10.3384 7.76804L11.207 6.89945V12.1288L8.88836 8.77796C8.77281 8.57453 8.55977 8.44187 8.31086 8.44187C7.94664 8.44187 7.64453 8.74257 7.64453 9.10492V13.968C7.64453 14.3305 7.94664 14.631 8.31086 14.631C8.68398 14.631 8.97719 14.3303 8.97719 13.968V10.953L11.3315 14.3392C11.3315 14.3481 11.3315 14.3568 11.3404 14.3657C11.4737 14.5337 11.6603 14.631 11.8734 14.631C12.2376 14.631 12.5308 14.3303 12.5308 13.968V6.99765L13.3012 7.76804C13.5571 8.02398 13.972 8.02398 14.2279 7.76804C14.4838 7.5121 14.4836 7.09726 14.2277 6.84132Z" fill="white"/>
<path d="M8.53175 16.7894V17.8298C8.53175 17.9735 8.41524 18.0897 8.27179 18.0897C8.12809 18.0897 8.01184 17.9732 8.01184 17.8298V16.9368C8.01184 16.6897 7.95539 16.3819 7.62164 16.3819C7.29644 16.3819 7.16206 16.6853 7.16206 16.9541V17.8298C7.16206 17.9735 7.04554 18.0897 6.9021 18.0897C6.7584 18.0897 6.64214 17.9732 6.64214 17.8298V16.8327C6.64214 16.5769 6.52071 16.3819 6.25635 16.3819C5.94435 16.3819 5.80116 16.668 5.80116 16.9453V17.8295C5.80116 17.9732 5.68465 18.0895 5.54121 18.0895C5.39751 18.0895 5.28125 17.973 5.28125 17.8295V16.2561C5.28125 16.1196 5.39181 16.009 5.52826 16.009C5.66471 16.009 5.77527 16.1196 5.77527 16.2561V16.3428H5.78382C5.87496 16.139 6.09582 15.9485 6.42957 15.9485C6.75037 15.9485 6.96269 16.1087 7.07972 16.3428C7.2185 16.0914 7.45257 15.9485 7.76457 15.9485C8.30623 15.9485 8.53175 16.3648 8.53175 16.7894Z" fill="white"/>
<path d="M10.1469 15.9485C10.7755 15.9485 11.2781 16.3863 11.2781 17.0408C11.2781 17.6954 10.7753 18.1506 10.1469 18.1506C9.51845 18.1506 9.01562 17.6954 9.01562 17.0408C9.01562 16.3863 9.51845 15.9485 10.1469 15.9485ZM10.1469 17.7171C10.5585 17.7171 10.7494 17.3661 10.7494 17.0408C10.7494 16.7156 10.5585 16.3733 10.1469 16.3733C9.73517 16.3733 9.54434 16.7159 9.54434 17.0408C9.54434 17.3661 9.73517 17.7171 10.1469 17.7171Z" fill="white"/>
<path d="M12.0037 16.009H12.0547C12.1771 16.009 12.2763 16.1082 12.2763 16.2307V16.3428H12.2849C12.376 16.1346 12.623 15.9485 12.9306 15.9485C13.4725 15.9485 13.6978 16.3645 13.6978 16.7894V17.8684C13.6978 17.9908 13.5986 18.09 13.4761 18.09H13.399C13.2765 18.09 13.1774 17.9908 13.1774 17.8684V16.9368C13.1774 16.6897 13.1209 16.3819 12.7872 16.3819C12.4578 16.3819 12.3017 16.668 12.3017 16.9453V17.8681C12.3017 17.9906 12.2025 18.0897 12.08 18.0897H12.0029C11.8804 18.0897 11.7812 17.9906 11.7812 17.8681V16.2307C11.782 16.1082 11.8812 16.009 12.0037 16.009Z" fill="white"/>
<path d="M16.1522 17.2141H14.7032C14.725 17.5087 14.9938 17.7257 15.2972 17.7257C15.4829 17.7257 15.6245 17.6726 15.733 17.5823C15.8117 17.5167 15.9272 17.5204 16.0072 17.5843C16.1167 17.6718 16.1201 17.8401 16.0108 17.9277C15.8257 18.076 15.5903 18.1503 15.3019 18.1503C14.6603 18.1503 14.1836 17.7386 14.1836 17.0623C14.1836 16.3904 14.6561 15.9485 15.2845 15.9485C15.8653 15.9485 16.2902 16.3254 16.2902 17.0755V17.0766C16.2899 17.1524 16.2283 17.2141 16.1522 17.2141ZM15.7697 16.8412C15.7697 16.5725 15.618 16.3384 15.2799 16.3384C14.972 16.3384 14.725 16.5507 14.7032 16.8412H15.7697Z" fill="white"/>
<path d="M16.8789 16.0141C16.9872 16.0141 17.0843 16.0809 17.1231 16.1818L17.6394 17.5269H17.6482L18.1065 16.1826C18.1409 16.0819 18.2354 16.0141 18.3418 16.0141C18.5169 16.0141 18.637 16.1899 18.5736 16.353L17.7217 18.5411C17.5744 18.9181 17.3924 19.1351 16.9328 19.1351C16.9188 19.1351 16.9046 19.1349 16.8903 19.1343C16.7671 19.1302 16.6718 19.0248 16.6837 18.9021L16.6858 18.8793C16.6964 18.7685 16.7896 18.6841 16.9007 18.6843H16.9025C17.1236 18.6843 17.1842 18.5758 17.2709 18.3591L17.375 18.0948L16.6387 16.3789C16.5646 16.2059 16.6912 16.0141 16.8789 16.0141Z" fill="white"/>
</g>
<defs>
<clipPath id="clip0_3200_74255">
<rect width="24" height="24" fill="white"/>
</clipPath>
</defs>
</svg>
