<svg width="20" height="20" viewBox="0 0 20 20" fill="none" xmlns="http://www.w3.org/2000/svg">
<g clip-path="url(#clip0_3200_74259)">
<path d="M0 10C0 15.5228 4.47715 20 10 20C15.5228 20 20 15.5228 20 10C20 4.47715 15.5228 0 10 0C4.47715 0 0 4.47715 0 10Z" fill="white"/>
<path d="M5.01523 7.02051C4.71641 7.02051 4.46875 7.27109 4.46875 7.57305V11.6328C4.46875 11.9275 4.7166 12.1781 5.01523 12.1781C5.31406 12.1781 5.55449 11.9275 5.55449 11.6328V7.57324C5.55449 7.27109 5.31387 7.02051 5.01523 7.02051Z" fill="#191C1F"/>
<path d="M15.1256 8.59785C14.9982 8.28965 14.8035 8.01836 14.5639 7.77617C14.3242 7.54883 14.0396 7.35801 13.7252 7.22598C13.4031 7.09395 13.0588 7.02793 12.6992 7.02793H11.6434C11.6135 7.02051 11.5834 7.02051 11.5535 7.02051C11.2391 7.02051 10.9844 7.26992 10.9844 7.57813V11.6205C10.9844 11.9287 11.224 12.1635 11.5311 12.1781H12.6992C13.0586 12.1781 13.4031 12.1047 13.7252 11.9727C14.0396 11.8406 14.3242 11.6572 14.5639 11.4297C14.8035 11.1803 14.9982 10.9162 15.1256 10.6006C15.2604 10.2852 15.3277 9.95488 15.3277 9.60273C15.3277 9.2582 15.2604 8.91348 15.1256 8.59785ZM13.7904 10.6553C13.4947 10.9441 13.1055 11.0924 12.6773 11.0924H12.0703V8.10645H12.6773C13.1055 8.10645 13.4945 8.26953 13.7904 8.55098C14.0863 8.83242 14.2418 9.20293 14.2418 9.60312C14.2418 10.0031 14.0861 10.3736 13.7904 10.6553Z" fill="#191C1F"/>
<path d="M11.8531 5.69133L10.2508 4.08898C10.1395 3.97766 9.99219 3.92512 9.84648 3.93C9.70078 3.92512 9.55352 3.97785 9.44219 4.08898L7.83984 5.69133C7.62656 5.90461 7.62656 6.25031 7.83984 6.46359C8.05313 6.67687 8.39883 6.67687 8.61211 6.46359L9.33594 5.73976V10.0976L7.40371 7.30519C7.30742 7.13566 7.12988 7.02512 6.92246 7.02512C6.61895 7.02512 6.36719 7.2757 6.36719 7.57766V11.6302C6.36719 11.9323 6.61895 12.1827 6.92246 12.1827C7.2334 12.1827 7.47773 11.9321 7.47773 11.6302V9.11769L9.43965 11.9396C9.43965 11.947 9.43965 11.9542 9.44707 11.9616C9.5582 12.1017 9.71367 12.1827 9.89121 12.1827C10.1947 12.1827 10.4391 11.9321 10.4391 11.6302V5.8216L11.0811 6.46359C11.2943 6.67687 11.64 6.67687 11.8533 6.46359C12.0666 6.25031 12.0664 5.90461 11.8531 5.69133Z" fill="#191C1F"/>
<path d="M7.1111 13.9899V14.8568C7.1111 14.9766 7.014 15.0735 6.89446 15.0735C6.77471 15.0735 6.67783 14.9764 6.67783 14.8568V14.1126C6.67783 13.9068 6.6308 13.6503 6.35267 13.6503C6.08167 13.6503 5.96968 13.9031 5.96968 14.1271V14.8568C5.96968 14.9766 5.87259 15.0735 5.75305 15.0735C5.6333 15.0735 5.53642 14.9764 5.53642 14.8568V14.0259C5.53642 13.8127 5.43523 13.6503 5.21493 13.6503C4.95493 13.6503 4.83561 13.8887 4.83561 14.1198V14.8566C4.83561 14.9764 4.73851 15.0732 4.61897 15.0732C4.49922 15.0732 4.40234 14.9762 4.40234 14.8566V13.5454C4.40234 13.4317 4.49448 13.3396 4.60819 13.3396C4.7219 13.3396 4.81403 13.4317 4.81403 13.5454V13.6177H4.82115C4.8971 13.4479 5.08115 13.2891 5.35927 13.2891C5.62661 13.2891 5.80354 13.4226 5.90107 13.6177C6.01672 13.4082 6.21177 13.2891 6.47177 13.2891C6.92316 13.2891 7.1111 13.636 7.1111 13.9899Z" fill="#191C1F"/>
<path d="M8.45832 13.2891C8.9822 13.2891 9.40101 13.6539 9.40101 14.1994C9.40101 14.7448 8.98198 15.1242 8.45832 15.1242C7.93465 15.1242 7.51562 14.7448 7.51562 14.1994C7.51562 13.6539 7.93465 13.2891 8.45832 13.2891ZM8.45832 14.763C8.80139 14.763 8.96041 14.4704 8.96041 14.1994C8.96041 13.9284 8.80139 13.6431 8.45832 13.6431C8.11524 13.6431 7.95622 13.9286 7.95622 14.1994C7.95622 14.4704 8.11524 14.763 8.45832 14.763Z" fill="#191C1F"/>
<path d="M10.0057 13.3396H10.0482C10.1502 13.3396 10.2329 13.4222 10.2329 13.5243V13.6177H10.24C10.3159 13.4442 10.5218 13.2891 10.7781 13.2891C11.2297 13.2891 11.4174 13.6358 11.4174 13.9899V14.889C11.4174 14.991 11.3348 15.0737 11.2327 15.0737H11.1684C11.0664 15.0737 10.9837 14.991 10.9837 14.889V14.1127C10.9837 13.9068 10.9367 13.6503 10.6586 13.6503C10.3841 13.6503 10.254 13.8887 10.254 14.1198V14.8888C10.254 14.9908 10.1714 15.0735 10.0693 15.0735H10.005C9.90295 15.0735 9.82031 14.9908 9.82031 14.8888V13.5243C9.82096 13.4222 9.9036 13.3396 10.0057 13.3396Z" fill="#191C1F"/>
<path d="M13.4608 14.3437H12.2534C12.2715 14.5893 12.4955 14.7701 12.7483 14.7701C12.903 14.7701 13.0211 14.7259 13.1115 14.6506C13.1771 14.596 13.2733 14.599 13.34 14.6523C13.4312 14.7252 13.434 14.8655 13.343 14.9384C13.1887 15.062 12.9926 15.124 12.7522 15.124C12.2175 15.124 11.8203 14.7809 11.8203 14.2173C11.8203 13.6574 12.2141 13.2891 12.7378 13.2891C13.2217 13.2891 13.5758 13.6032 13.5758 14.2283V14.2292C13.5756 14.2924 13.5242 14.3437 13.4608 14.3437ZM13.1421 14.033C13.1421 13.8091 13.0157 13.614 12.7339 13.614C12.4773 13.614 12.2715 13.7909 12.2534 14.033H13.1421Z" fill="#191C1F"/>
<path d="M14.0658 13.3428C14.156 13.3428 14.2369 13.3984 14.2692 13.4826L14.6995 14.6035H14.7068L15.0887 13.4832C15.1174 13.3993 15.1962 13.3428 15.2849 13.3428C15.4307 13.3428 15.5308 13.4893 15.478 13.6252L14.7681 15.4487C14.6453 15.7628 14.4936 15.9436 14.1107 15.9436C14.099 15.9436 14.0871 15.9434 14.0753 15.943C13.9726 15.9395 13.8932 15.8517 13.9031 15.7494L13.9048 15.7305C13.9137 15.6381 13.9913 15.5678 14.0839 15.568H14.0854C14.2697 15.568 14.3202 15.4776 14.3925 15.297L14.4792 15.0767L13.8655 13.6468C13.8038 13.5027 13.9093 13.3428 14.0658 13.3428Z" fill="#191C1F"/>
</g>
<defs>
<clipPath id="clip0_3200_74259">
<rect width="20" height="20" fill="white"/>
</clipPath>
</defs>
</svg>
