<svg width="64" height="64" viewBox="0 0 64 64" fill="none" xmlns="http://www.w3.org/2000/svg">
<g clip-path="url(#clip0_3210_79608)">
<g clip-path="url(#clip1_3210_79608)">
<path d="M0 32C0 49.6731 14.3269 64 32 64C49.6731 64 64 49.6731 64 32C64 14.3269 49.6731 0 32 0C14.3269 0 0 14.3269 0 32Z" fill="white"/>
<path d="M16.9969 23.4113C16.0319 23.4113 15.2266 24.2233 15.2266 25.2019V38.3685C15.2266 39.3269 16.0319 40.1393 16.9969 40.1393C17.962 40.1393 18.7471 39.3273 18.7471 38.3685V25.2019C18.7471 24.2233 17.9617 23.4113 16.9969 23.4113Z" fill="#191C1F"/>
<path d="M49.7816 28.5237C49.3688 27.5251 48.7366 26.6466 47.9581 25.861C47.1795 25.122 46.2611 24.5031 45.236 24.0772C44.191 23.6513 43.0731 23.438 41.9085 23.438H38.4877C38.388 23.4113 38.2947 23.4113 38.195 23.4113C37.1768 23.4113 36.3516 24.2167 36.3516 25.2218V38.3353C36.3516 39.3338 37.1301 40.0992 38.1219 40.1458H41.9085C43.0731 40.1458 44.191 39.9061 45.236 39.4802C46.2542 39.0543 47.1792 38.4553 47.9581 37.7163C48.7366 36.9043 49.3688 36.0522 49.7816 35.0273C50.2208 34.0023 50.4336 32.9304 50.4336 31.7923C50.4336 30.6672 50.2208 29.549 49.7816 28.524V28.5237ZM45.4493 35.1936C44.491 36.1321 43.2263 36.6115 41.8423 36.6115H39.8724V26.9261H41.8423C43.2267 26.9261 44.491 27.4521 45.4493 28.3704C46.4075 29.2822 46.9135 30.4871 46.9135 31.785C46.9135 33.0829 46.4078 34.281 45.4493 35.1932V35.1936Z" fill="#191C1F"/>
<path d="M39.1768 19.0625L33.9791 13.8637C33.6198 13.5043 33.1406 13.3311 32.6682 13.3445C32.1957 13.3311 31.7165 13.4974 31.3572 13.8637L26.1595 19.0625C25.4673 19.7548 25.4673 20.873 26.1595 21.5654C26.8517 22.2577 27.9697 22.2577 28.6618 21.5654L31.0109 19.2158V33.3477L24.7484 24.288C24.4358 23.7421 23.8567 23.3828 23.1913 23.3828C22.2063 23.3828 21.3945 24.1948 21.3945 25.1734V38.3267C21.3945 39.3053 22.2063 40.1173 23.1913 40.1173C24.1762 40.1173 24.9881 39.3053 24.9881 38.3267V30.1792L31.3503 39.3321C31.3503 39.352 31.3503 39.3787 31.3771 39.4055C31.7363 39.8581 32.2424 40.1246 32.8145 40.1246C33.7995 40.1246 34.5914 39.3126 34.5914 38.3339V19.4884L36.6745 21.5719C37.3666 22.2642 38.4846 22.2642 39.1768 21.5719C39.869 20.8795 39.869 19.7544 39.1768 19.0625Z" fill="#191C1F"/>
<path d="M16.9969 23.4113C16.0319 23.4113 15.2266 24.2233 15.2266 25.2019V38.3685C15.2266 39.3269 16.0319 40.1393 16.9969 40.1393C17.962 40.1393 18.7471 39.3273 18.7471 38.3685V25.2019C18.7471 24.2233 17.9617 23.4113 16.9969 23.4113Z" fill="#191C1F"/>
<path d="M49.7816 28.5237C49.3688 27.5251 48.7366 26.6466 47.9581 25.861C47.1795 25.122 46.2611 24.5031 45.236 24.0772C44.191 23.6513 43.0731 23.438 41.9085 23.438H38.4877C38.388 23.4113 38.2947 23.4113 38.195 23.4113C37.1768 23.4113 36.3516 24.2167 36.3516 25.2218V38.3353C36.3516 39.3338 37.1301 40.0992 38.1219 40.1458H41.9085C43.0731 40.1458 44.191 39.9061 45.236 39.4802C46.2542 39.0543 47.1792 38.4553 47.9581 37.7163C48.7366 36.9043 49.3688 36.0522 49.7816 35.0273C50.2208 34.0023 50.4336 32.9304 50.4336 31.7923C50.4336 30.6672 50.2208 29.549 49.7816 28.524V28.5237ZM45.4493 35.1936C44.491 36.1321 43.2263 36.6115 41.8423 36.6115H39.8724V26.9261H41.8423C43.2267 26.9261 44.491 27.4521 45.4493 28.3704C46.4075 29.2822 46.9135 30.4871 46.9135 31.785C46.9135 33.0829 46.4078 34.281 45.4493 35.1932V35.1936Z" fill="#191C1F"/>
<path d="M39.1768 19.0625L33.9791 13.8637C33.6198 13.5043 33.1406 13.3311 32.6682 13.3445C32.1957 13.3311 31.7165 13.4974 31.3572 13.8637L26.1595 19.0625C25.4673 19.7548 25.4673 20.873 26.1595 21.5654C26.8517 22.2577 27.9697 22.2577 28.6618 21.5654L31.0109 19.2158V33.3477L24.7484 24.288C24.4358 23.7421 23.8567 23.3828 23.1913 23.3828C22.2063 23.3828 21.3945 24.1948 21.3945 25.1734V38.3267C21.3945 39.3053 22.2063 40.1173 23.1913 40.1173C24.1762 40.1173 24.9881 39.3053 24.9881 38.3267V30.1792L31.3503 39.3321C31.3503 39.352 31.3503 39.3787 31.3771 39.4055C31.7363 39.8581 32.2424 40.1246 32.8145 40.1246C33.7995 40.1246 34.5914 39.3126 34.5914 38.3339V19.4884L36.6745 21.5719C37.3666 22.2642 38.4846 22.2642 39.1768 21.5719C39.869 20.8795 39.869 19.7544 39.1768 19.0625Z" fill="#191C1F"/>
<path d="M36.2455 44.2673C36.0678 43.8466 36.3767 43.3809 36.8334 43.3809C37.0941 43.3809 37.3285 43.5394 37.4256 43.7813L38.676 46.8972C38.6783 46.903 38.684 46.9068 38.6902 46.9068C38.6967 46.9068 38.7024 46.9028 38.7046 46.8967L39.823 43.7845C39.9101 43.5423 40.1397 43.3809 40.397 43.3809C40.8258 43.3809 41.1207 43.8117 40.9655 44.2115L38.891 49.5539C38.7995 49.7939 38.6975 50.0022 38.5848 50.1786C38.4792 50.3622 38.3525 50.5139 38.2047 50.6339C38.0569 50.761 37.8809 50.8528 37.6767 50.9092C37.4796 50.9728 37.2403 51.0045 36.9587 51.0045C36.7906 51.0045 36.6244 50.9936 36.46 50.9717C36.1868 50.9354 36.0156 50.6726 36.0534 50.3997L36.102 50.0489C36.1245 49.8865 36.2911 49.7864 36.4519 49.8186C36.5645 49.8469 36.6771 49.861 36.7897 49.861C36.9446 49.861 37.0748 49.8469 37.1804 49.8186C37.286 49.7904 37.374 49.7445 37.4444 49.681C37.5219 49.6245 37.5852 49.5469 37.6345 49.448C37.6838 49.3563 37.7366 49.2433 37.7929 49.1092L37.7976 49.0974C37.9151 48.8054 37.9739 48.6594 37.9726 48.5062C37.9713 48.353 37.91 48.208 37.7875 47.918L36.2455 44.2673Z" fill="#191C1F"/>
<path d="M34.0525 47.785C34.0525 47.7737 34.0434 47.7646 34.0321 47.7646C34.0251 47.7646 34.0186 47.7682 34.0148 47.7741C33.8327 48.0586 33.6024 48.2672 33.324 48.3999C33.0424 48.5269 32.7326 48.5905 32.3947 48.5905C32.1624 48.5905 31.9337 48.5587 31.7084 48.4952C31.4902 48.4316 31.2931 48.3363 31.1171 48.2093C30.9481 48.0822 30.8109 47.9234 30.7053 47.7328C30.5997 47.5422 30.5469 47.3199 30.5469 47.0657C30.5469 46.7904 30.5962 46.5575 30.6947 46.3669C30.7933 46.1693 30.9235 46.0069 31.0854 45.8798C31.2543 45.7457 31.4479 45.6398 31.6662 45.5622C31.8844 45.4845 32.1096 45.4281 32.3419 45.3928C32.5813 45.3504 32.8206 45.3257 33.06 45.3186C33.2993 45.3045 33.5246 45.2975 33.7358 45.2975H33.9149C33.9909 45.2975 34.0525 45.2358 34.0525 45.1598C34.0525 44.8422 33.9434 44.6057 33.7252 44.4504C33.507 44.288 33.2289 44.2069 32.891 44.2069C32.6235 44.2069 32.3736 44.2563 32.1413 44.3551C32.0633 44.3859 31.9888 44.4207 31.9179 44.4595C31.6889 44.5849 31.3918 44.5882 31.2074 44.4033C31.0226 44.218 31.0182 43.9136 31.2319 43.7624C31.4234 43.627 31.6315 43.521 31.8562 43.4445C32.2364 43.3174 32.627 43.2539 33.0283 43.2539C33.3873 43.2539 33.69 43.2963 33.9364 43.381C34.1828 43.4586 34.3869 43.561 34.5488 43.688C34.7107 43.8151 34.8339 43.9633 34.9184 44.1327C35.0099 44.2951 35.0733 44.461 35.1085 44.6304C35.1507 44.7998 35.1753 44.9657 35.1824 45.1281C35.1894 45.2834 35.1929 45.421 35.1929 45.541V47.8932C35.1929 48.2081 34.9377 48.4634 34.6227 48.4634H34.402C34.209 48.4634 34.0525 48.307 34.0525 48.114V47.785ZM33.9786 46.4509C33.9786 46.3051 33.8604 46.1869 33.7147 46.1869C33.5387 46.1869 33.3416 46.194 33.1233 46.2081C32.9051 46.2222 32.6974 46.2575 32.5003 46.314C32.3103 46.3634 32.1484 46.441 32.0146 46.5469C31.8809 46.6457 31.814 46.7869 31.814 46.9704C31.814 47.0904 31.8386 47.1928 31.8879 47.2775C31.9442 47.3552 32.0146 47.4222 32.0991 47.4787C32.1836 47.5352 32.2786 47.5775 32.3842 47.6057C32.4898 47.6269 32.5954 47.6375 32.701 47.6375C33.1374 47.6375 33.4577 47.5352 33.6619 47.3304C33.873 47.1187 33.9786 46.8328 33.9786 46.4728V46.4509Z" fill="#191C1F"/>
<path d="M24.2344 43.9828C24.2344 43.6504 24.5038 43.381 24.8363 43.381H25.0569C25.2675 43.381 25.4381 43.5516 25.4381 43.7622V44.1299C25.4381 44.1373 25.4441 44.1433 25.4516 44.1433C25.4563 44.1433 25.4607 44.1408 25.4632 44.1367C25.6458 43.8295 25.8909 43.6058 26.1984 43.4657C26.5081 43.3245 26.8425 43.2539 27.2015 43.2539C27.5887 43.2539 27.9372 43.3245 28.2469 43.4657C28.5566 43.5998 28.8206 43.7869 29.0388 44.0269C29.2571 44.2669 29.4225 44.5492 29.5351 44.8739C29.6478 45.1986 29.7041 45.5481 29.7041 45.9222C29.7041 46.2963 29.6442 46.6457 29.5246 46.9704C29.4049 47.2952 29.2359 47.5775 29.0177 47.8175C28.8065 48.0575 28.5496 48.2481 28.2469 48.3893C27.9442 48.5234 27.6133 48.5905 27.2543 48.5905C27.015 48.5905 26.8038 48.5658 26.6208 48.5164C26.4377 48.4669 26.2758 48.4034 26.135 48.3258C25.9943 48.2481 25.8746 48.1669 25.776 48.0822C25.6807 47.9935 25.6019 47.9081 25.5395 47.826C25.5355 47.8207 25.5292 47.8175 25.5226 47.8175C25.5109 47.8175 25.5015 47.827 25.5015 47.8386V50.244C25.5015 50.5939 25.2178 50.8776 24.8679 50.8776C24.518 50.8776 24.2344 50.5939 24.2344 50.244V43.9828ZM28.437 45.9222C28.437 45.7245 28.4018 45.5339 28.3314 45.3504C28.268 45.1669 28.1695 45.0045 28.0357 44.8633C27.909 44.7222 27.7541 44.6092 27.5711 44.5245C27.3881 44.4398 27.1804 44.3975 26.9481 44.3975C26.7158 44.3975 26.5081 44.4398 26.3251 44.5245C26.1421 44.6092 25.9837 44.7222 25.8499 44.8633C25.7232 45.0045 25.6247 45.1669 25.5543 45.3504C25.4909 45.5339 25.4592 45.7245 25.4592 45.9222C25.4592 46.1198 25.4909 46.3104 25.5543 46.494C25.6247 46.6775 25.7232 46.8399 25.8499 46.981C25.9837 47.1222 26.1421 47.2352 26.3251 47.3199C26.5081 47.4046 26.7158 47.4469 26.9481 47.4469C27.1804 47.4469 27.3881 47.4046 27.5711 47.3199C27.7541 47.2352 27.909 47.1222 28.0357 46.981C28.1695 46.8399 28.268 46.6775 28.3314 46.494C28.4018 46.3104 28.437 46.1198 28.437 45.9222Z" fill="#191C1F"/>
</g>
</g>
<defs>
<clipPath id="clip0_3210_79608">
<rect width="64" height="64" fill="white"/>
</clipPath>
<clipPath id="clip1_3210_79608">
<rect width="64" height="64" fill="white"/>
</clipPath>
</defs>
</svg>
