<svg width="24" height="24" viewBox="0 0 24 24" fill="none" xmlns="http://www.w3.org/2000/svg">
<g clip-path="url(#clip0_3210_79615)">
<g clip-path="url(#clip1_3210_79615)">
<path d="M0 12C0 18.6274 5.37258 24 12 24C18.6274 24 24 18.6274 24 12C24 5.37258 18.6274 0 12 0C5.37258 0 0 5.37258 0 12Z" fill="white"/>
<path d="M6.37483 8.77881C6.01293 8.77881 5.71094 9.08331 5.71094 9.45031V14.3878C5.71094 14.7472 6.01293 15.0518 6.37483 15.0518C6.73673 15.0518 7.03113 14.7473 7.03113 14.3878V9.45031C7.03113 9.08331 6.7366 8.77881 6.37483 8.77881Z" fill="#191C1F"/>
<path d="M18.6691 10.696C18.5143 10.3215 18.2772 9.99206 17.9853 9.69746C17.6933 9.42035 17.3489 9.18824 16.9645 9.02854C16.5726 8.86883 16.1534 8.78884 15.7167 8.78884H14.4339C14.3965 8.77881 14.3615 8.77881 14.3241 8.77881C13.9423 8.77881 13.6328 9.08087 13.6328 9.45776V14.3753C13.6328 14.7498 13.9248 15.0368 14.2967 15.0543H15.7167C16.1534 15.0543 16.5726 14.9644 16.9645 14.8047C17.3463 14.645 17.6932 14.4203 17.9853 14.1432C18.2772 13.8387 18.5143 13.5192 18.6691 13.1348C18.8338 12.7505 18.9136 12.3485 18.9136 11.9217C18.9136 11.4998 18.8338 11.0805 18.6691 10.6961V10.696ZM17.0444 13.1972C16.6851 13.5491 16.2109 13.7289 15.6919 13.7289H14.9531V10.0969H15.6919C16.211 10.0969 16.6851 10.2941 17.0444 10.6385C17.4038 10.9804 17.5935 11.4323 17.5935 11.919C17.5935 12.4057 17.4039 12.855 17.0444 13.197V13.1972Z" fill="#191C1F"/>
<path d="M14.6918 7.14843L12.7427 5.19887C12.6079 5.06411 12.4282 4.99917 12.251 5.00419C12.0739 4.99917 11.8942 5.06153 11.7594 5.19887L9.81031 7.14843C9.55074 7.40805 9.55074 7.82738 9.81031 8.08701C10.0699 8.34663 10.4891 8.34663 10.7487 8.08701L11.6296 7.20591V12.5054L9.28115 9.10802C9.1639 8.9033 8.94676 8.76854 8.69723 8.76854C8.32787 8.76854 8.02344 9.07304 8.02344 9.44004V14.3725C8.02344 14.7395 8.32787 15.044 8.69723 15.044C9.06658 15.044 9.37101 14.7395 9.37101 14.3725V11.3172L11.7569 14.7495C11.7569 14.757 11.7569 14.767 11.7669 14.7771C11.9016 14.9468 12.0914 15.0467 12.3059 15.0467C12.6753 15.0467 12.9723 14.7422 12.9723 14.3752V7.30813L13.7534 8.08945C14.013 8.34907 14.4322 8.34907 14.6918 8.08945C14.9513 7.82982 14.9513 7.40792 14.6918 7.14843Z" fill="#191C1F"/>
<path d="M6.37483 8.77881C6.01293 8.77881 5.71094 9.08331 5.71094 9.45031V14.3878C5.71094 14.7472 6.01293 15.0518 6.37483 15.0518C6.73673 15.0518 7.03113 14.7473 7.03113 14.3878V9.45031C7.03113 9.08331 6.7366 8.77881 6.37483 8.77881Z" fill="#191C1F"/>
<path d="M18.6691 10.696C18.5143 10.3215 18.2772 9.99206 17.9853 9.69746C17.6933 9.42035 17.3489 9.18824 16.9645 9.02854C16.5726 8.86883 16.1534 8.78884 15.7167 8.78884H14.4339C14.3965 8.77881 14.3615 8.77881 14.3241 8.77881C13.9423 8.77881 13.6328 9.08087 13.6328 9.45776V14.3753C13.6328 14.7498 13.9248 15.0368 14.2967 15.0543H15.7167C16.1534 15.0543 16.5726 14.9644 16.9645 14.8047C17.3463 14.645 17.6932 14.4203 17.9853 14.1432C18.2772 13.8387 18.5143 13.5192 18.6691 13.1348C18.8338 12.7505 18.9136 12.3485 18.9136 11.9217C18.9136 11.4998 18.8338 11.0805 18.6691 10.6961V10.696ZM17.0444 13.1972C16.6851 13.5491 16.2109 13.7289 15.6919 13.7289H14.9531V10.0969H15.6919C16.211 10.0969 16.6851 10.2941 17.0444 10.6385C17.4038 10.9804 17.5935 11.4323 17.5935 11.919C17.5935 12.4057 17.4039 12.855 17.0444 13.197V13.1972Z" fill="#191C1F"/>
<path d="M14.6918 7.14843L12.7427 5.19887C12.6079 5.06411 12.4282 4.99917 12.251 5.00419C12.0739 4.99917 11.8942 5.06153 11.7594 5.19887L9.81031 7.14843C9.55074 7.40805 9.55074 7.82738 9.81031 8.08701C10.0699 8.34663 10.4891 8.34663 10.7487 8.08701L11.6296 7.20591V12.5054L9.28115 9.10802C9.1639 8.9033 8.94676 8.76854 8.69723 8.76854C8.32787 8.76854 8.02344 9.07304 8.02344 9.44004V14.3725C8.02344 14.7395 8.32787 15.044 8.69723 15.044C9.06658 15.044 9.37101 14.7395 9.37101 14.3725V11.3172L11.7569 14.7495C11.7569 14.757 11.7569 14.767 11.7669 14.7771C11.9016 14.9468 12.0914 15.0467 12.3059 15.0467C12.6753 15.0467 12.9723 14.7422 12.9723 14.3752V7.30813L13.7534 8.08945C14.013 8.34907 14.4322 8.34907 14.6918 8.08945C14.9513 7.82982 14.9513 7.40792 14.6918 7.14843Z" fill="#191C1F"/>
<path d="M13.5935 16.601C13.5269 16.4432 13.6427 16.2686 13.814 16.2686C13.9117 16.2686 13.9997 16.328 14.0361 16.4187L14.505 17.5872C14.5058 17.5894 14.5079 17.5908 14.5103 17.5908C14.5127 17.5908 14.5149 17.5893 14.5157 17.587L14.9351 16.4199C14.9677 16.3291 15.0538 16.2686 15.1503 16.2686C15.3111 16.2686 15.4217 16.4301 15.3635 16.58L14.5856 18.5834C14.5513 18.6735 14.513 18.7515 14.4708 18.8177C14.4312 18.8865 14.3837 18.9435 14.3282 18.9885C14.2728 19.0361 14.2068 19.0705 14.1302 19.0917C14.0563 19.1155 13.9666 19.1274 13.861 19.1274C13.798 19.1274 13.7356 19.1233 13.674 19.1151C13.5715 19.1015 13.5073 19.0029 13.5215 18.9006L13.5397 18.7691C13.5482 18.7082 13.6106 18.6706 13.6709 18.6827C13.7131 18.6933 13.7554 18.6986 13.7976 18.6986C13.8557 18.6986 13.9045 18.6933 13.9441 18.6827C13.9837 18.6721 14.0167 18.6549 14.0431 18.6311C14.0722 18.6099 14.0959 18.5808 14.1144 18.5437C14.1329 18.5093 14.1527 18.467 14.1738 18.4167L14.1756 18.4123C14.2196 18.3028 14.2417 18.248 14.2412 18.1906C14.2407 18.1331 14.2177 18.0787 14.1718 17.97L13.5935 16.601Z" fill="#191C1F"/>
<path d="M12.7717 17.9208C12.7717 17.9166 12.7682 17.9132 12.764 17.9132C12.7614 17.9132 12.7589 17.9145 12.7575 17.9167C12.6892 18.0235 12.6029 18.1017 12.4984 18.1514C12.3928 18.1991 12.2767 18.2229 12.15 18.2229C12.0629 18.2229 11.9771 18.211 11.8926 18.1872C11.8108 18.1633 11.7369 18.1276 11.6709 18.0799C11.6075 18.0323 11.556 17.9727 11.5164 17.9013C11.4768 17.8298 11.457 17.7464 11.457 17.6511C11.457 17.5479 11.4755 17.4605 11.5125 17.3891C11.5494 17.3149 11.5983 17.2541 11.659 17.2064C11.7223 17.1561 11.7949 17.1164 11.8768 17.0873C11.9586 17.0582 12.0431 17.037 12.1302 17.0238C12.2199 17.0079 12.3097 16.9986 12.3994 16.996C12.4892 16.9907 12.5737 16.988 12.6529 16.988H12.72C12.7485 16.988 12.7717 16.9649 12.7717 16.9364C12.7717 16.8173 12.7307 16.7286 12.6489 16.6704C12.5671 16.6095 12.4628 16.579 12.3361 16.579C12.2358 16.579 12.1421 16.5976 12.0549 16.6346C12.0257 16.6462 11.9978 16.6592 11.9712 16.6738C11.8853 16.7208 11.7739 16.722 11.7047 16.6527C11.6354 16.5832 11.6338 16.4691 11.7139 16.4124C11.7857 16.3616 11.8638 16.3219 11.948 16.2932C12.0906 16.2455 12.2371 16.2217 12.3876 16.2217C12.5222 16.2217 12.6357 16.2376 12.7281 16.2693C12.8205 16.2984 12.897 16.3368 12.9578 16.3845C13.0185 16.4321 13.0647 16.4877 13.0964 16.5512C13.1307 16.6121 13.1544 16.6743 13.1676 16.7379C13.1835 16.8014 13.1927 16.8636 13.1953 16.9245C13.198 16.9827 13.1993 17.0343 13.1993 17.0793V17.9614C13.1993 18.0795 13.1036 18.1752 12.9855 18.1752H12.9027C12.8303 18.1752 12.7717 18.1166 12.7717 18.0442V17.9208ZM12.7439 17.4205C12.7439 17.3659 12.6996 17.3216 12.6449 17.3216C12.579 17.3216 12.505 17.3242 12.4232 17.3295C12.3414 17.3348 12.2635 17.348 12.1896 17.3692C12.1183 17.3877 12.0576 17.4168 12.0074 17.4566C11.9573 17.4936 11.9322 17.5466 11.9322 17.6154C11.9322 17.6604 11.9414 17.6988 11.9599 17.7305C11.981 17.7596 12.0074 17.7848 12.0391 17.806C12.0708 17.8271 12.1064 17.843 12.146 17.8536C12.1856 17.8616 12.2252 17.8655 12.2648 17.8655C12.4285 17.8655 12.5486 17.8271 12.6251 17.7504C12.7043 17.671 12.7439 17.5638 12.7439 17.4288V17.4205Z" fill="#191C1F"/>
<path d="M9.08984 16.495C9.08984 16.3704 9.19089 16.2693 9.31555 16.2693H9.39831C9.47725 16.2693 9.54125 16.3333 9.54125 16.4123V16.5502C9.54125 16.553 9.54351 16.5552 9.54629 16.5552C9.54808 16.5552 9.54973 16.5543 9.55064 16.5527C9.61912 16.4375 9.71103 16.3537 9.82635 16.3011C9.9425 16.2482 10.0679 16.2217 10.2025 16.2217C10.3477 16.2217 10.4784 16.2482 10.5945 16.3011C10.7107 16.3514 10.8097 16.4215 10.8915 16.5115C10.9734 16.6015 11.0354 16.7074 11.0776 16.8292C11.1199 16.951 11.141 17.082 11.141 17.2223C11.141 17.3626 11.1185 17.4936 11.0737 17.6154C11.0288 17.7371 10.9654 17.843 10.8836 17.933C10.8044 18.023 10.708 18.0945 10.5945 18.1475C10.481 18.1977 10.357 18.2229 10.2223 18.2229C10.1326 18.2229 10.0534 18.2136 9.98474 18.1951C9.91611 18.1766 9.85539 18.1527 9.80259 18.1236C9.7498 18.0945 9.70492 18.0641 9.66796 18.0323C9.63223 17.999 9.60267 17.967 9.57928 17.9362C9.57777 17.9342 9.57542 17.933 9.57293 17.933C9.56855 17.933 9.56501 17.9366 9.56501 17.9409V18.843C9.56501 18.9742 9.45864 19.0806 9.32743 19.0806C9.19621 19.0806 9.08984 18.9742 9.08984 18.843V16.495ZM10.6658 17.2223C10.6658 17.1482 10.6526 17.0767 10.6262 17.0079C10.6025 16.939 10.5655 16.8782 10.5153 16.8252C10.4678 16.7723 10.4098 16.7299 10.3411 16.6982C10.2725 16.6664 10.1946 16.6505 10.1075 16.6505C10.0204 16.6505 9.9425 16.6664 9.87387 16.6982C9.80523 16.7299 9.74584 16.7723 9.69568 16.8252C9.64816 16.8782 9.61121 16.939 9.58481 17.0079C9.56105 17.0767 9.54917 17.1482 9.54917 17.2223C9.54917 17.2964 9.56105 17.3679 9.58481 17.4367C9.61121 17.5055 9.64816 17.5664 9.69568 17.6194C9.74584 17.6723 9.80523 17.7146 9.87387 17.7464C9.9425 17.7782 10.0204 17.7941 10.1075 17.7941C10.1946 17.7941 10.2725 17.7782 10.3411 17.7464C10.4098 17.7146 10.4678 17.6723 10.5153 17.6194C10.5655 17.5664 10.6025 17.5055 10.6262 17.4367C10.6526 17.3679 10.6658 17.2964 10.6658 17.2223Z" fill="#191C1F"/>
</g>
</g>
<defs>
<clipPath id="clip0_3210_79615">
<rect width="24" height="24" fill="white"/>
</clipPath>
<clipPath id="clip1_3210_79615">
<rect width="24" height="24" fill="white"/>
</clipPath>
</defs>
</svg>
