<svg width="32" height="32" viewBox="0 0 32 32" fill="none" xmlns="http://www.w3.org/2000/svg">
<g clip-path="url(#clip0_3210_79609)">
<g clip-path="url(#clip1_3210_79609)">
<path d="M0 16C0 24.8366 7.16344 32 16 32C24.8366 32 32 24.8366 32 16C32 7.16344 24.8366 0 16 0C7.16344 0 0 7.16344 0 16Z" fill="white"/>
<path d="M8.49847 11.7051C8.01594 11.7051 7.61328 12.1111 7.61328 12.6004V19.1837C7.61328 19.6629 8.01594 20.0691 8.49847 20.0691C8.98101 20.0691 9.37354 19.6631 9.37354 19.1837V12.6004C9.37354 12.1111 8.98083 11.7051 8.49847 11.7051Z" fill="#191C1F"/>
<path d="M24.8908 14.2613C24.6844 13.762 24.3683 13.3227 23.979 12.9299C23.5898 12.5605 23.1305 12.251 22.618 12.038C22.0955 11.8251 21.5365 11.7185 20.9542 11.7185H19.2439C19.194 11.7051 19.1474 11.7051 19.0975 11.7051C18.5884 11.7051 18.1758 12.1078 18.1758 12.6104V19.1671C18.1758 19.6664 18.5651 20.049 19.061 20.0724H20.9542C21.5365 20.0724 22.0955 19.9525 22.618 19.7396C23.1271 19.5266 23.5896 19.2271 23.979 18.8576C24.3683 18.4516 24.6844 18.0255 24.8908 17.5131C25.1104 17.0006 25.2168 16.4646 25.2168 15.8956C25.2168 15.333 25.1104 14.7739 24.8908 14.2615V14.2613ZM22.7246 17.5962C22.2455 18.0655 21.6132 18.3052 20.9212 18.3052H19.9362V13.4625H20.9212C21.6133 13.4625 22.2455 13.7255 22.7246 14.1846C23.2037 14.6405 23.4567 15.243 23.4567 15.892C23.4567 16.5409 23.2039 17.14 22.7246 17.596V17.5962Z" fill="#191C1F"/>
<path d="M19.5903 9.53124L16.9915 6.93183C16.8119 6.75215 16.5722 6.66556 16.336 6.67225C16.0998 6.66556 15.8602 6.74871 15.6805 6.93183L13.0817 9.53124C12.7356 9.8774 12.7356 10.4365 13.0817 10.7827C13.4278 11.1288 13.9868 11.1288 14.3329 10.7827L15.5074 9.60788V16.6738L12.3762 12.144C12.2198 11.8711 11.9303 11.6914 11.5976 11.6914C11.1051 11.6914 10.6992 12.0974 10.6992 12.5867V19.1633C10.6992 19.6527 11.1051 20.0587 11.5976 20.0587C12.0901 20.0587 12.496 19.6527 12.496 19.1633V15.0896L15.6771 19.666C15.6771 19.676 15.6771 19.6894 15.6905 19.7027C15.8701 19.9291 16.1231 20.0623 16.4092 20.0623C16.9017 20.0623 17.2977 19.6563 17.2977 19.1669V9.74418L18.3392 10.7859C18.6853 11.1321 19.2443 11.1321 19.5903 10.7859C19.9364 10.4398 19.9364 9.87722 19.5903 9.53124Z" fill="#191C1F"/>
<path d="M8.49847 11.7051C8.01594 11.7051 7.61328 12.1111 7.61328 12.6004V19.1837C7.61328 19.6629 8.01594 20.0691 8.49847 20.0691C8.98101 20.0691 9.37354 19.6631 9.37354 19.1837V12.6004C9.37354 12.1111 8.98083 11.7051 8.49847 11.7051Z" fill="#191C1F"/>
<path d="M24.8908 14.2613C24.6844 13.762 24.3683 13.3227 23.979 12.9299C23.5898 12.5605 23.1305 12.251 22.618 12.038C22.0955 11.8251 21.5365 11.7185 20.9542 11.7185H19.2439C19.194 11.7051 19.1474 11.7051 19.0975 11.7051C18.5884 11.7051 18.1758 12.1078 18.1758 12.6104V19.1671C18.1758 19.6664 18.5651 20.049 19.061 20.0724H20.9542C21.5365 20.0724 22.0955 19.9525 22.618 19.7396C23.1271 19.5266 23.5896 19.2271 23.979 18.8576C24.3683 18.4516 24.6844 18.0255 24.8908 17.5131C25.1104 17.0006 25.2168 16.4646 25.2168 15.8956C25.2168 15.333 25.1104 14.7739 24.8908 14.2615V14.2613ZM22.7246 17.5962C22.2455 18.0655 21.6132 18.3052 20.9212 18.3052H19.9362V13.4625H20.9212C21.6133 13.4625 22.2455 13.7255 22.7246 14.1846C23.2037 14.6405 23.4567 15.243 23.4567 15.892C23.4567 16.5409 23.2039 17.14 22.7246 17.596V17.5962Z" fill="#191C1F"/>
<path d="M19.5903 9.53124L16.9915 6.93183C16.8119 6.75215 16.5722 6.66556 16.336 6.67225C16.0998 6.66556 15.8602 6.74871 15.6805 6.93183L13.0817 9.53124C12.7356 9.8774 12.7356 10.4365 13.0817 10.7827C13.4278 11.1288 13.9868 11.1288 14.3329 10.7827L15.5074 9.60788V16.6738L12.3762 12.144C12.2198 11.8711 11.9303 11.6914 11.5976 11.6914C11.1051 11.6914 10.6992 12.0974 10.6992 12.5867V19.1633C10.6992 19.6527 11.1051 20.0587 11.5976 20.0587C12.0901 20.0587 12.496 19.6527 12.496 19.1633V15.0896L15.6771 19.666C15.6771 19.676 15.6771 19.6894 15.6905 19.7027C15.8701 19.9291 16.1231 20.0623 16.4092 20.0623C16.9017 20.0623 17.2977 19.6563 17.2977 19.1669V9.74418L18.3392 10.7859C18.6853 11.1321 19.2443 11.1321 19.5903 10.7859C19.9364 10.4398 19.9364 9.87722 19.5903 9.53124Z" fill="#191C1F"/>
<path d="M18.1208 22.1346C18.032 21.9243 18.1864 21.6914 18.4147 21.6914C18.5451 21.6914 18.6623 21.7707 18.7109 21.8917L19.336 23.4496C19.3372 23.4525 19.34 23.4544 19.3432 23.4544C19.3464 23.4544 19.3493 23.4524 19.3504 23.4493L19.9096 21.8932C19.9531 21.7721 20.0679 21.6914 20.1965 21.6914C20.4109 21.6914 20.5584 21.9068 20.4808 22.1067L19.4436 24.7779C19.3978 24.8979 19.3468 25.0021 19.2905 25.0903C19.2377 25.1821 19.1743 25.2579 19.1004 25.3179C19.0265 25.3815 18.9385 25.4274 18.8364 25.4556C18.7379 25.4874 18.6182 25.5032 18.4774 25.5032C18.3934 25.5032 18.3102 25.4978 18.228 25.4868C18.0915 25.4687 18.0059 25.3373 18.0248 25.2008L18.049 25.0254C18.0603 24.9442 18.1436 24.8942 18.224 24.9103C18.2803 24.9244 18.3366 24.9315 18.3929 24.9315C18.4704 24.9315 18.5355 24.9244 18.5883 24.9103C18.6411 24.8962 18.6851 24.8732 18.7203 24.8415C18.759 24.8132 18.7907 24.7744 18.8153 24.725C18.8399 24.6791 18.8663 24.6226 18.8945 24.5556L18.8969 24.5497C18.9556 24.4037 18.985 24.3307 18.9843 24.2541C18.9837 24.1775 18.9531 24.105 18.8918 23.96L18.1208 22.1346Z" fill="#191C1F"/>
<path d="M17.0263 23.8945C17.0263 23.8888 17.0217 23.8842 17.0161 23.8842C17.0126 23.8842 17.0093 23.886 17.0074 23.889C16.9164 24.0313 16.8012 24.1356 16.662 24.2019C16.5212 24.2654 16.3663 24.2972 16.1974 24.2972C16.0812 24.2972 15.9668 24.2813 15.8542 24.2495C15.7451 24.2178 15.6465 24.1701 15.5585 24.1066C15.4741 24.0431 15.4054 23.9637 15.3526 23.8684C15.2998 23.7731 15.2734 23.6619 15.2734 23.5348C15.2734 23.3972 15.2981 23.2807 15.3474 23.1854C15.3966 23.0866 15.4617 23.0054 15.5427 22.9419C15.6272 22.8748 15.724 22.8219 15.8331 22.783C15.9422 22.7442 16.0548 22.716 16.171 22.6983C16.2906 22.6772 16.4103 22.6648 16.53 22.6613C16.6497 22.6542 16.7623 22.6507 16.8679 22.6507H16.9574C16.9955 22.6507 17.0263 22.6199 17.0263 22.5819C17.0263 22.423 16.9717 22.3048 16.8626 22.2272C16.7535 22.146 16.6145 22.1054 16.4455 22.1054C16.3118 22.1054 16.1868 22.1301 16.0707 22.1795C16.0316 22.1949 15.9944 22.2123 15.959 22.2317C15.8444 22.2944 15.6959 22.2961 15.6037 22.2036C15.5113 22.1109 15.5091 21.9587 15.6159 21.8832C15.7117 21.8155 15.8158 21.7625 15.9281 21.7242C16.1182 21.6607 16.3135 21.6289 16.5142 21.6289C16.6937 21.6289 16.845 21.6501 16.9682 21.6924C17.0914 21.7313 17.1935 21.7824 17.2744 21.846C17.3554 21.9095 17.417 21.9836 17.4592 22.0683C17.505 22.1495 17.5366 22.2324 17.5542 22.3172C17.5754 22.4019 17.5877 22.4848 17.5912 22.566C17.5947 22.6436 17.5965 22.7125 17.5965 22.7725V23.9486C17.5965 24.106 17.4688 24.2337 17.3114 24.2337H17.201C17.1045 24.2337 17.0263 24.1554 17.0263 24.0589V23.8945ZM16.9893 23.2274C16.9893 23.1545 16.9302 23.0954 16.8573 23.0954C16.7693 23.0954 16.6708 23.0989 16.5617 23.106C16.4526 23.1131 16.3487 23.1307 16.2502 23.1589C16.1551 23.1836 16.0742 23.2225 16.0073 23.2754C15.9404 23.3248 15.907 23.3954 15.907 23.4872C15.907 23.5472 15.9193 23.5984 15.944 23.6407C15.9721 23.6795 16.0073 23.7131 16.0495 23.7413C16.0918 23.7695 16.1393 23.7907 16.1921 23.8048C16.2449 23.8154 16.2977 23.8207 16.3505 23.8207C16.5687 23.8207 16.7289 23.7695 16.8309 23.6672C16.9365 23.5613 16.9893 23.4183 16.9893 23.2383V23.2274Z" fill="#191C1F"/>
<path d="M12.1172 21.9934C12.1172 21.8272 12.2519 21.6924 12.4181 21.6924H12.5285C12.6337 21.6924 12.7191 21.7778 12.7191 21.883V22.0669C12.7191 22.0706 12.7221 22.0736 12.7258 22.0736C12.7282 22.0736 12.7304 22.0724 12.7316 22.0703C12.8229 21.9167 12.9454 21.8049 13.0992 21.7348C13.2541 21.6642 13.4213 21.6289 13.6008 21.6289C13.7943 21.6289 13.9686 21.6642 14.1234 21.7348C14.2783 21.8019 14.4103 21.8954 14.5194 22.0154C14.6285 22.1354 14.7112 22.2766 14.7676 22.4389C14.8239 22.6013 14.852 22.776 14.852 22.963C14.852 23.1501 14.8221 23.3248 14.7623 23.4872C14.7024 23.6495 14.618 23.7907 14.5089 23.9107C14.4033 24.0307 14.2748 24.126 14.1234 24.1966C13.9721 24.2637 13.8067 24.2972 13.6272 24.2972C13.5075 24.2972 13.4019 24.2848 13.3104 24.2601C13.2189 24.2354 13.1379 24.2037 13.0675 24.1648C12.9971 24.126 12.9373 24.0854 12.888 24.0431C12.8404 23.9987 12.801 23.956 12.7698 23.9149C12.7678 23.9123 12.7646 23.9107 12.7613 23.9107C12.7555 23.9107 12.7507 23.9154 12.7507 23.9213V25.124C12.7507 25.2989 12.6089 25.4407 12.434 25.4407C12.259 25.4407 12.1172 25.2989 12.1172 25.124V21.9934ZM14.2185 22.963C14.2185 22.8642 14.2009 22.7689 14.1657 22.6772C14.134 22.5854 14.0847 22.5042 14.0179 22.4336C13.9545 22.363 13.8771 22.3066 13.7856 22.2642C13.694 22.2219 13.5902 22.2007 13.4741 22.2007C13.3579 22.2007 13.2541 22.2219 13.1626 22.2642C13.071 22.3066 12.9918 22.363 12.925 22.4336C12.8616 22.5042 12.8123 22.5854 12.7771 22.6772C12.7455 22.7689 12.7296 22.8642 12.7296 22.963C12.7296 23.0619 12.7455 23.1572 12.7771 23.2489C12.8123 23.3407 12.8616 23.4219 12.925 23.4925C12.9918 23.5631 13.071 23.6195 13.1626 23.6619C13.2541 23.7042 13.3579 23.7254 13.4741 23.7254C13.5902 23.7254 13.694 23.7042 13.7856 23.6619C13.8771 23.6195 13.9545 23.5631 14.0179 23.4925C14.0847 23.4219 14.134 23.3407 14.1657 23.2489C14.2009 23.1572 14.2185 23.0619 14.2185 22.963Z" fill="#191C1F"/>
</g>
</g>
<defs>
<clipPath id="clip0_3210_79609">
<rect width="32" height="32" fill="white"/>
</clipPath>
<clipPath id="clip1_3210_79609">
<rect width="32" height="32" fill="white"/>
</clipPath>
</defs>
</svg>
