<svg width="64" height="64" viewBox="0 0 64 64" fill="none" xmlns="http://www.w3.org/2000/svg">
<g clip-path="url(#clip0_3210_79611)">
<g clip-path="url(#clip1_3210_79611)">
<path d="M0 32C0 49.6731 14.3269 64 32 64C49.6731 64 64 49.6731 64 32C64 14.3269 49.6731 0 32 0C14.3269 0 0 14.3269 0 32Z" fill="white"/>
<path d="M19.621 21.275C18.8353 21.275 18.1797 21.9361 18.1797 22.7328V33.4519C18.1797 34.2321 18.8353 34.8935 19.621 34.8935C20.4066 34.8935 21.0458 34.2324 21.0458 33.4519V22.7328C21.0458 21.9361 20.4063 21.275 19.621 21.275Z" fill="#191C1F"/>
<path d="M46.3085 25.4371C45.9724 24.6242 45.4578 23.9089 44.824 23.2694C44.1901 22.6678 43.4424 22.1639 42.6079 21.8172C41.7572 21.4705 40.847 21.2968 39.8989 21.2968H37.1141C37.0329 21.275 36.9569 21.275 36.8757 21.275C36.0468 21.275 35.375 21.9308 35.375 22.749V33.4248C35.375 34.2377 36.0088 34.8608 36.8163 34.8988H39.8989C40.847 34.8988 41.7572 34.7036 42.6079 34.3569C43.4368 34.0102 44.1898 33.5225 44.824 32.9209C45.4578 32.2598 45.9724 31.5661 46.3085 30.7317C46.666 29.8973 46.8393 29.0246 46.8393 28.0981C46.8393 27.1821 46.666 26.2718 46.3085 25.4374V25.4371ZM42.7815 30.8671C42.0014 31.6312 40.9718 32.0214 39.8451 32.0214H38.2414V24.1365H39.8451C40.9721 24.1365 42.0014 24.5647 42.7815 25.3123C43.5616 26.0546 43.9735 27.0356 43.9735 28.0922C43.9735 29.1488 43.5619 30.1242 42.7815 30.8668V30.8671Z" fill="#191C1F"/>
<path d="M37.6798 17.7338L33.4483 13.5014C33.1559 13.2088 32.7657 13.0678 32.3811 13.0787C31.9965 13.0678 31.6063 13.2032 31.3138 13.5014L27.0823 17.7338C26.5188 18.2974 26.5188 19.2078 27.0823 19.7714C27.6459 20.335 28.556 20.335 29.1195 19.7714L31.0319 17.8586V29.3635L25.9336 21.988C25.679 21.5435 25.2076 21.251 24.6659 21.251C23.864 21.251 23.2031 21.912 23.2031 22.7088V33.4169C23.2031 34.2136 23.864 34.8747 24.6659 34.8747C25.4677 34.8747 26.1287 34.2136 26.1287 33.4169V26.784L31.3082 34.2354C31.3082 34.2516 31.3082 34.2734 31.33 34.2952C31.6225 34.6637 32.0344 34.8806 32.5002 34.8806C33.3021 34.8806 33.9468 34.2195 33.9468 33.4228V18.0805L35.6426 19.7767C36.2061 20.3403 37.1163 20.3403 37.6798 19.7767C38.2433 19.2131 38.2433 18.2971 37.6798 17.7338Z" fill="#191C1F"/>
<path d="M19.621 21.275C18.8353 21.275 18.1797 21.9361 18.1797 22.7328V33.4519C18.1797 34.2321 18.8353 34.8935 19.621 34.8935C20.4066 34.8935 21.0458 34.2324 21.0458 33.4519V22.7328C21.0458 21.9361 20.4063 21.275 19.621 21.275Z" fill="#191C1F"/>
<path d="M46.3085 25.4371C45.9724 24.6242 45.4578 23.9089 44.824 23.2694C44.1901 22.6678 43.4424 22.1639 42.6079 21.8172C41.7572 21.4705 40.847 21.2968 39.8989 21.2968H37.1141C37.0329 21.275 36.9569 21.275 36.8757 21.275C36.0468 21.275 35.375 21.9308 35.375 22.749V33.4248C35.375 34.2377 36.0088 34.8608 36.8163 34.8988H39.8989C40.847 34.8988 41.7572 34.7036 42.6079 34.3569C43.4368 34.0102 44.1898 33.5225 44.824 32.9209C45.4578 32.2598 45.9724 31.5661 46.3085 30.7317C46.666 29.8973 46.8393 29.0246 46.8393 28.0981C46.8393 27.1821 46.666 26.2718 46.3085 25.4374V25.4371ZM42.7815 30.8671C42.0014 31.6312 40.9718 32.0214 39.8451 32.0214H38.2414V24.1365H39.8451C40.9721 24.1365 42.0014 24.5647 42.7815 25.3123C43.5616 26.0546 43.9735 27.0356 43.9735 28.0922C43.9735 29.1488 43.5619 30.1242 42.7815 30.8668V30.8671Z" fill="#191C1F"/>
<path d="M37.6798 17.7338L33.4483 13.5014C33.1559 13.2088 32.7657 13.0678 32.3811 13.0787C31.9965 13.0678 31.6063 13.2032 31.3138 13.5014L27.0823 17.7338C26.5188 18.2974 26.5188 19.2078 27.0823 19.7714C27.6459 20.335 28.556 20.335 29.1195 19.7714L31.0319 17.8586V29.3635L25.9336 21.988C25.679 21.5435 25.2076 21.251 24.6659 21.251C23.864 21.251 23.2031 21.912 23.2031 22.7088V33.4169C23.2031 34.2136 23.864 34.8747 24.6659 34.8747C25.4677 34.8747 26.1287 34.2136 26.1287 33.4169V26.784L31.3082 34.2354C31.3082 34.2516 31.3082 34.2734 31.33 34.2952C31.6225 34.6637 32.0344 34.8806 32.5002 34.8806C33.3021 34.8806 33.9468 34.2195 33.9468 33.4228V18.0805L35.6426 19.7767C36.2061 20.3403 37.1163 20.3403 37.6798 19.7767C38.2433 19.2131 38.2433 18.2971 37.6798 17.7338Z" fill="#191C1F"/>
<path d="M20.6051 49.0004C20.6051 48.5458 20.3246 48.1742 19.8293 48.1742C19.3691 48.1742 19.0403 48.5327 19.0403 49.0004C19.0403 49.4682 19.3691 49.8223 19.8293 49.8223C20.3246 49.8223 20.6051 49.455 20.6051 49.0004ZM18.7773 49.8922V46.8496C18.7773 46.7097 18.8782 46.6879 18.9264 46.6879C18.9746 46.6879 19.0754 46.7097 19.0754 46.8496V48.3316H19.0842C19.2595 48.0649 19.5663 47.925 19.86 47.925C20.4999 47.925 20.9207 48.3971 20.9207 49.0004C20.9207 49.6037 20.4999 50.0758 19.86 50.0758C19.5663 50.0758 19.2595 49.9359 19.0842 49.678H19.0754V49.8922C19.0754 50.0321 18.9746 50.0539 18.9264 50.0539C18.8782 50.0539 18.7773 50.0321 18.7773 49.8922Z" fill="#191C1F"/>
<path d="M23.1811 48.1654L22.2125 50.5523C22.0854 50.8671 21.9232 51.0725 21.5682 51.0725C21.5156 51.0725 21.441 51.0681 21.3928 51.055C21.3183 51.0332 21.2833 50.9851 21.2833 50.9239C21.2833 50.8539 21.3358 50.7971 21.4104 50.7971C21.4323 50.7971 21.4542 50.8015 21.4805 50.8059C21.5156 50.8102 21.5331 50.8102 21.555 50.8102C21.7522 50.8102 21.8574 50.6791 21.9451 50.4474L22.1117 50.019L21.2964 48.1742C21.2833 48.1392 21.2789 48.113 21.2789 48.0911C21.2789 48.0081 21.349 47.9469 21.4323 47.9469C21.4805 47.9469 21.5419 47.9644 21.5813 48.0649L22.2651 49.7042H22.2738L22.9006 48.0649C22.9357 47.9687 22.997 47.9469 23.0453 47.9469C23.1329 47.9469 23.1987 48.0081 23.1987 48.0868C23.1987 48.1042 23.1943 48.1305 23.1811 48.1654Z" fill="#191C1F"/>
<path d="M25.295 47.1993V49.7523C25.295 50.0146 25.1109 50.0627 25.0189 50.0627C24.9269 50.0627 24.7428 50.0146 24.7428 49.7523V47.1993C24.7428 46.937 24.9269 46.889 25.0189 46.889C25.1109 46.889 25.295 46.937 25.295 47.1993Z" fill="#191C1F"/>
<path d="M27.9829 49.8091L26.5408 47.8245H26.5321V49.7523C26.5321 50.0146 26.348 50.0627 26.2559 50.0627C26.1639 50.0627 25.9798 50.0146 25.9798 49.7523V47.2911C25.9798 46.9502 26.2165 46.889 26.3261 46.889C26.4488 46.889 26.5671 46.9414 26.7118 47.1425L28.1538 49.1228H28.1626V47.1993C28.1626 46.937 28.3467 46.889 28.4387 46.889C28.5308 46.889 28.7149 46.937 28.7149 47.1993V49.6605C28.7149 50.0015 28.4782 50.0627 28.3686 50.0627C28.2415 50.0627 28.1319 50.0102 27.9829 49.8091Z" fill="#191C1F"/>
<path d="M30.5 50.0233H29.7285C29.505 50.0233 29.3998 49.9184 29.3998 49.6955V47.2562C29.3998 47.0332 29.505 46.9283 29.7285 46.9283H30.5C31.3109 46.9283 32.2138 47.313 32.2138 48.4758C32.2138 49.56 31.3109 50.0233 30.5 50.0233ZM29.9521 47.4004V49.5425H30.4123C30.9821 49.5425 31.6221 49.3108 31.6221 48.4758C31.6221 47.5884 30.9821 47.4004 30.4123 47.4004H29.9521Z" fill="#191C1F"/>
<path d="M32.7208 49.7698V48.1611C32.7208 47.925 32.8917 47.8857 32.9706 47.8857C33.0495 47.8857 33.2205 47.925 33.2205 48.1611V48.2616H33.2292C33.3213 48.0562 33.5448 47.8638 33.8823 47.8638C34.2067 47.8638 34.4214 48.0256 34.5398 48.2616C34.68 48.0081 34.9167 47.8638 35.2323 47.8638C35.7802 47.8638 36.0081 48.2835 36.0081 48.7119V49.7698C36.0081 50.019 35.8328 50.0627 35.7451 50.0627C35.6575 50.0627 35.4821 50.019 35.4821 49.7698V48.8605C35.4821 48.6113 35.4252 48.301 35.0877 48.301C34.7589 48.301 34.623 48.607 34.623 48.878V49.7698C34.623 50.019 34.4477 50.0627 34.3601 50.0627C34.2724 50.0627 34.0971 50.019 34.0971 49.7698V48.7556C34.0971 48.4977 33.9743 48.301 33.707 48.301C33.3914 48.301 33.2468 48.5895 33.2468 48.8693V49.7698C33.2468 50.019 33.0714 50.0627 32.9838 50.0627C32.8961 50.0627 32.7208 50.019 32.7208 49.7698Z" fill="#191C1F"/>
<path d="M38.7855 48.9654C38.7855 49.6255 38.277 50.0845 37.6415 50.0845C37.0059 50.0845 36.4975 49.6255 36.4975 48.9654C36.4975 48.3053 37.0059 47.8638 37.6415 47.8638C38.277 47.8638 38.7855 48.3053 38.7855 48.9654ZM38.2507 48.9654C38.2507 48.6376 38.0579 48.2922 37.6415 48.2922C37.2251 48.2922 37.0322 48.6376 37.0322 48.9654C37.0322 49.2933 37.2251 49.6474 37.6415 49.6474C38.0579 49.6474 38.2507 49.2933 38.2507 48.9654Z" fill="#191C1F"/>
<path d="M39.2954 49.7698V48.1611C39.2954 47.925 39.4664 47.8857 39.5453 47.8857C39.6242 47.8857 39.7951 47.925 39.7951 48.1611V48.2616H39.8039C39.8959 48.0518 40.1458 47.8638 40.457 47.8638C41.0049 47.8638 41.2328 48.2835 41.2328 48.7119V49.7698C41.2328 50.019 41.0575 50.0627 40.9698 50.0627C40.8821 50.0627 40.7068 50.019 40.7068 49.7698V48.8605C40.7068 48.6113 40.6498 48.301 40.3123 48.301C39.9792 48.301 39.8214 48.5895 39.8214 48.8693V49.7698C39.8214 50.019 39.6461 50.0627 39.5584 50.0627C39.4708 50.0627 39.2954 50.019 39.2954 49.7698Z" fill="#191C1F"/>
<path d="M43.5735 49.1403H42.2498C42.2717 49.4376 42.5435 49.6561 42.8503 49.6561C43.0694 49.6561 43.2009 49.5862 43.3324 49.4769C43.4069 49.4157 43.4552 49.4026 43.5121 49.4026C43.6305 49.4026 43.7225 49.4856 43.7225 49.6124C43.7225 49.6561 43.705 49.7348 43.6349 49.8004C43.4289 49.9971 43.1922 50.0845 42.8547 50.0845C42.206 50.0845 41.7238 49.6693 41.7238 48.9873C41.7238 48.3097 42.2016 47.8638 42.8371 47.8638C43.3456 47.8638 43.7576 48.1523 43.8409 48.7687C43.8453 48.8124 43.8496 48.843 43.8496 48.878C43.8496 49.0616 43.7488 49.1403 43.5735 49.1403ZM42.2498 48.7643H43.328C43.328 48.4933 43.1746 48.2572 42.8328 48.2572C42.5216 48.2572 42.2717 48.4715 42.2498 48.7643Z" fill="#191C1F"/>
<path d="M46.2043 48.266L45.3014 50.4736C45.1436 50.8583 44.9551 51.0725 44.5037 51.0725C44.2801 51.0725 44.2144 50.9414 44.2144 50.8365C44.2144 50.7315 44.2845 50.6397 44.3897 50.6222C44.416 50.6179 44.4379 50.6179 44.473 50.6179C44.6133 50.6179 44.7491 50.5304 44.8456 50.29L44.9508 50.0233L44.1574 48.2835C44.1311 48.2223 44.1223 48.1654 44.1223 48.1305C44.1223 47.995 44.2319 47.8857 44.3853 47.8857C44.4774 47.8857 44.5782 47.925 44.6483 48.0911L45.2181 49.4507H45.2269L45.7178 48.1042C45.7835 47.925 45.8887 47.8857 45.9764 47.8857C46.1254 47.8857 46.235 47.9818 46.235 48.1217C46.235 48.1523 46.2306 48.196 46.2043 48.266Z" fill="#191C1F"/>
<path d="M36.7855 38.1413C36.6296 37.7721 36.9006 37.3635 37.3013 37.3635C37.53 37.3635 37.7357 37.5026 37.8209 37.7149L38.9179 40.4486C38.92 40.4537 38.9249 40.457 38.9304 40.457C38.9361 40.457 38.9411 40.4535 38.943 40.4481L39.9243 37.7176C40.0006 37.5052 40.2021 37.3635 40.4278 37.3635C40.8041 37.3635 41.0628 37.7415 40.9266 38.0923L39.1066 42.7795C39.0263 42.9901 38.9368 43.1728 38.8379 43.3276C38.7453 43.4886 38.6341 43.6218 38.5044 43.727C38.3747 43.8385 38.2203 43.919 38.0412 43.9686C37.8683 44.0243 37.6583 44.0522 37.4112 44.0522C37.2638 44.0522 37.1179 44.0426 36.9737 44.0234C36.7341 43.9916 36.5838 43.761 36.617 43.5215L36.6596 43.2138C36.6794 43.0713 36.8255 42.9834 36.9666 43.0117C37.0654 43.0365 37.1642 43.0489 37.263 43.0489C37.3989 43.0489 37.5132 43.0365 37.6058 43.0117C37.6984 42.987 37.7756 42.9467 37.8374 42.891C37.9053 42.8414 37.9609 42.7733 38.0042 42.6866C38.0474 42.6061 38.0937 42.507 38.1431 42.3893C38.2358 42.1591 38.2821 42.044 38.2909 41.9239C38.2941 41.8816 38.2937 41.8391 38.2899 41.7968C38.2789 41.6769 38.2307 41.5626 38.1341 41.334L36.7855 38.1413Z" fill="#191C1F"/>
<path d="M34.8648 41.2293C34.8648 41.2194 34.8568 41.2114 34.8469 41.2114C34.8407 41.2114 34.835 41.2145 34.8317 41.2197C34.6719 41.4694 34.4699 41.6524 34.2256 41.7688C33.9785 41.8802 33.7068 41.936 33.4103 41.936C33.2065 41.936 33.0058 41.9081 32.8081 41.8524C32.6167 41.7966 32.4437 41.713 32.2893 41.6015C32.1411 41.4901 32.0207 41.3507 31.928 41.1835C31.8354 41.0163 31.7891 40.8212 31.7891 40.5982C31.7891 40.3567 31.8323 40.1523 31.9188 39.9851C32.0052 39.8117 32.1195 39.6693 32.2615 39.5578C32.4098 39.4401 32.5796 39.3472 32.7711 39.2791C32.9625 39.211 33.1602 39.1614 33.364 39.1304C33.574 39.0933 33.784 39.0716 33.9939 39.0654C34.2039 39.053 34.4016 39.0468 34.5869 39.0468H34.744C34.8107 39.0468 34.8648 38.9928 34.8648 38.9261C34.8648 38.6474 34.7691 38.4399 34.5776 38.3037C34.3861 38.1612 34.1422 38.09 33.8457 38.09C33.611 38.09 33.3918 38.1333 33.188 38.22C33.1195 38.2471 33.0541 38.2776 32.9919 38.3117C32.791 38.4217 32.5303 38.4246 32.3686 38.2623C32.2064 38.0997 32.2025 37.8327 32.39 37.7001C32.5581 37.5813 32.7407 37.4883 32.9378 37.4211C33.2713 37.3096 33.6141 37.2539 33.9662 37.2539C34.2811 37.2539 34.5467 37.2911 34.7629 37.3654C34.979 37.4335 35.1581 37.5233 35.3002 37.6348C35.4423 37.7463 35.5503 37.8763 35.6244 38.025C35.7047 38.1674 35.7603 38.3129 35.7912 38.4616C35.8283 38.6102 35.8499 38.7558 35.8561 38.8982C35.8622 39.0345 35.8653 39.1552 35.8653 39.2605V41.3242C35.8653 41.6005 35.6413 41.8245 35.365 41.8245H35.1713C35.002 41.8245 34.8648 41.6872 34.8648 41.5179V41.2293ZM34.7999 40.0588C34.7999 39.9309 34.6962 39.8272 34.5683 39.8272C34.4139 39.8272 34.241 39.8334 34.0495 39.8458C33.8581 39.8581 33.6759 39.8891 33.5029 39.9387C33.3362 39.982 33.1941 40.0501 33.0768 40.143C32.9594 40.2297 32.9008 40.3536 32.9008 40.5146C32.9008 40.6199 32.9224 40.7097 32.9656 40.784C33.015 40.8522 33.0768 40.911 33.1509 40.9605C33.225 41.0101 33.3084 41.0472 33.401 41.072C33.4937 41.0906 33.5863 41.0999 33.679 41.0999C34.0619 41.0999 34.3429 41.0101 34.522 40.8305C34.7073 40.6447 34.7999 40.3939 34.7999 40.078V40.0588Z" fill="#191C1F"/>
<path d="M26.25 37.8934C26.25 37.6018 26.4864 37.3654 26.7781 37.3654H26.9717C27.1564 37.3654 27.3061 37.5151 27.3061 37.6998V38.0225C27.3061 38.029 27.3114 38.0343 27.3179 38.0343C27.3221 38.0343 27.326 38.032 27.3281 38.0284C27.4883 37.7589 27.7033 37.5627 27.9731 37.4397C28.2449 37.3158 28.5383 37.2539 28.8532 37.2539C29.1929 37.2539 29.4987 37.3158 29.7704 37.4397C30.0422 37.5574 30.2738 37.7215 30.4652 37.9321C30.6567 38.1426 30.8018 38.3904 30.9006 38.6752C30.9995 38.9601 31.0489 39.2667 31.0489 39.5949C31.0489 39.9232 30.9964 40.2297 30.8914 40.5146C30.7864 40.7995 30.6382 41.0472 30.4467 41.2578C30.2614 41.4684 30.036 41.6356 29.7704 41.7595C29.5048 41.8771 29.2145 41.936 28.8996 41.936C28.6896 41.936 28.5043 41.9143 28.3437 41.8709C28.1831 41.8276 28.0411 41.7719 27.9176 41.7037C27.794 41.6356 27.689 41.5644 27.6026 41.4901C27.519 41.4122 27.4498 41.3373 27.3951 41.2652C27.3915 41.2606 27.3861 41.2578 27.3802 41.2578C27.37 41.2578 27.3617 41.2661 27.3617 41.2763V43.3867C27.3617 43.6937 27.1128 43.9426 26.8059 43.9426C26.4989 43.9426 26.25 43.6937 26.25 43.3867V37.8934ZM29.9372 39.5949C29.9372 39.4215 29.9063 39.2543 29.8445 39.0933C29.7889 38.9323 29.7025 38.7898 29.5851 38.666C29.4739 38.5421 29.3381 38.443 29.1775 38.3687C29.0169 38.2944 28.8347 38.2572 28.6309 38.2572C28.4271 38.2572 28.2449 38.2944 28.0843 38.3687C27.9237 38.443 27.7848 38.5421 27.6674 38.666C27.5563 38.7898 27.4698 38.9323 27.408 39.0933C27.3524 39.2543 27.3246 39.4215 27.3246 39.5949C27.3246 39.7683 27.3524 39.9356 27.408 40.0966C27.4698 40.2576 27.5563 40.4001 27.6674 40.5239C27.7848 40.6478 27.9237 40.7469 28.0843 40.8212C28.2449 40.8955 28.4271 40.9327 28.6309 40.9327C28.8347 40.9327 29.0169 40.8955 29.1775 40.8212C29.3381 40.7469 29.4739 40.6478 29.5851 40.5239C29.7025 40.4001 29.7889 40.2576 29.8445 40.0966C29.9063 39.9356 29.9372 39.7683 29.9372 39.5949Z" fill="#191C1F"/>
</g>
</g>
<defs>
<clipPath id="clip0_3210_79611">
<rect width="64" height="64" fill="white"/>
</clipPath>
<clipPath id="clip1_3210_79611">
<rect width="64" height="64" fill="white"/>
</clipPath>
</defs>
</svg>
