<svg width="32" height="32" viewBox="0 0 32 32" fill="none" xmlns="http://www.w3.org/2000/svg">
<g clip-path="url(#clip0_3210_79616)">
<g clip-path="url(#clip1_3210_79616)">
<path d="M0 16C0 24.8366 7.16344 32 16 32C24.8366 32 32 24.8366 32 16C32 7.16344 24.8366 0 16 0C7.16344 0 0 7.16344 0 16Z" fill="white"/>
<path d="M9.81048 10.6367C9.41765 10.6367 9.08984 10.9672 9.08984 11.3656V16.7251C9.08984 17.1153 9.41765 17.4459 9.81048 17.4459C10.2033 17.4459 10.5229 17.1154 10.5229 16.7251V11.3656C10.5229 10.9672 10.2032 10.6367 9.81048 10.6367Z" fill="#191C1F"/>
<path d="M23.1542 12.7177C22.9862 12.3113 22.7289 11.9537 22.412 11.6339C22.0951 11.3331 21.7212 11.0811 21.3039 10.9078C20.8786 10.7344 20.4235 10.6476 19.9495 10.6476H18.557C18.5164 10.6367 18.4785 10.6367 18.4379 10.6367C18.0234 10.6367 17.6875 10.9646 17.6875 11.3737V16.7116C17.6875 17.1181 18.0044 17.4296 18.4081 17.4486H19.9495C20.4235 17.4486 20.8786 17.351 21.3039 17.1777C21.7184 17.0043 22.0949 16.7605 22.412 16.4597C22.7289 16.1291 22.9862 15.7823 23.1542 15.3651C23.333 14.9479 23.4197 14.5115 23.4197 14.0482C23.4197 13.5903 23.333 13.1351 23.1542 12.7179V12.7177ZM21.3908 15.4328C21.0007 15.8148 20.4859 16.0099 19.9225 16.0099H19.1207V12.0674H19.9225C20.4861 12.0674 21.0007 12.2816 21.3908 12.6553C21.7808 13.0265 21.9868 13.517 21.9868 14.0453C21.9868 14.5736 21.7809 15.0613 21.3908 15.4326V15.4328Z" fill="#191C1F"/>
<path d="M18.8399 8.86689L16.7242 6.75069C16.5779 6.60441 16.3828 6.53392 16.1905 6.53937C15.9982 6.53392 15.8031 6.60162 15.6569 6.75069L13.5412 8.86689C13.2594 9.14871 13.2594 9.60388 13.5412 9.8857C13.8229 10.1675 14.278 10.1675 14.5598 9.8857L15.5159 8.92929V14.6817L12.9668 10.994C12.8395 10.7718 12.6038 10.6255 12.3329 10.6255C11.932 10.6255 11.6016 10.956 11.6016 11.3544V16.7085C11.6016 17.1068 11.932 17.4374 12.3329 17.4374C12.7339 17.4374 13.0643 17.1068 13.0643 16.7085V13.392L15.6541 17.1177C15.6541 17.1258 15.6541 17.1367 15.665 17.1476C15.8112 17.3318 16.0172 17.4403 16.2501 17.4403C16.6511 17.4403 16.9734 17.1098 16.9734 16.7114V9.04025L17.8213 9.88835C18.1031 10.1702 18.5581 10.1702 18.8399 9.88835C19.1217 9.60653 19.1217 9.14856 18.8399 8.86689Z" fill="#191C1F"/>
<path d="M9.81048 10.6367C9.41765 10.6367 9.08984 10.9672 9.08984 11.3656V16.7251C9.08984 17.1153 9.41765 17.4459 9.81048 17.4459C10.2033 17.4459 10.5229 17.1154 10.5229 16.7251V11.3656C10.5229 10.9672 10.2032 10.6367 9.81048 10.6367Z" fill="#191C1F"/>
<path d="M23.1542 12.7177C22.9862 12.3113 22.7289 11.9537 22.412 11.6339C22.0951 11.3331 21.7212 11.0811 21.3039 10.9078C20.8786 10.7344 20.4235 10.6476 19.9495 10.6476H18.557C18.5164 10.6367 18.4785 10.6367 18.4379 10.6367C18.0234 10.6367 17.6875 10.9646 17.6875 11.3737V16.7116C17.6875 17.1181 18.0044 17.4296 18.4081 17.4486H19.9495C20.4235 17.4486 20.8786 17.351 21.3039 17.1777C21.7184 17.0043 22.0949 16.7605 22.412 16.4597C22.7289 16.1291 22.9862 15.7823 23.1542 15.3651C23.333 14.9479 23.4197 14.5115 23.4197 14.0482C23.4197 13.5903 23.333 13.1351 23.1542 12.7179V12.7177ZM21.3908 15.4328C21.0007 15.8148 20.4859 16.0099 19.9225 16.0099H19.1207V12.0674H19.9225C20.4861 12.0674 21.0007 12.2816 21.3908 12.6553C21.7808 13.0265 21.9868 13.517 21.9868 14.0453C21.9868 14.5736 21.7809 15.0613 21.3908 15.4326V15.4328Z" fill="#191C1F"/>
<path d="M18.8399 8.86689L16.7242 6.75069C16.5779 6.60441 16.3828 6.53392 16.1905 6.53937C15.9982 6.53392 15.8031 6.60162 15.6569 6.75069L13.5412 8.86689C13.2594 9.14871 13.2594 9.60388 13.5412 9.8857C13.8229 10.1675 14.278 10.1675 14.5598 9.8857L15.5159 8.92929V14.6817L12.9668 10.994C12.8395 10.7718 12.6038 10.6255 12.3329 10.6255C11.932 10.6255 11.6016 10.956 11.6016 11.3544V16.7085C11.6016 17.1068 11.932 17.4374 12.3329 17.4374C12.7339 17.4374 13.0643 17.1068 13.0643 16.7085V13.392L15.6541 17.1177C15.6541 17.1258 15.6541 17.1367 15.665 17.1476C15.8112 17.3318 16.0172 17.4403 16.2501 17.4403C16.6511 17.4403 16.9734 17.1098 16.9734 16.7114V9.04025L17.8213 9.88835C18.1031 10.1702 18.5581 10.1702 18.8399 9.88835C19.1217 9.60653 19.1217 9.14856 18.8399 8.86689Z" fill="#191C1F"/>
<path d="M10.3045 24.5C10.3045 24.2727 10.1642 24.0869 9.9166 24.0869C9.68649 24.0869 9.52212 24.2661 9.52212 24.5C9.52212 24.7339 9.68649 24.9109 9.9166 24.9109C10.1642 24.9109 10.3045 24.7273 10.3045 24.5ZM9.39062 24.9459V23.4246C9.39062 23.3547 9.44103 23.3438 9.46514 23.3438C9.48925 23.3438 9.53965 23.3547 9.53965 23.4246V24.1656H9.54403C9.6317 24.0323 9.78511 23.9623 9.93194 23.9623C10.2519 23.9623 10.4623 24.1984 10.4623 24.5C10.4623 24.8017 10.2519 25.0377 9.93194 25.0377C9.78511 25.0377 9.6317 24.9678 9.54403 24.8388H9.53965V24.9459C9.53965 25.0159 9.48925 25.0268 9.46514 25.0268C9.44103 25.0268 9.39062 25.0159 9.39062 24.9459Z" fill="#191C1F"/>
<path d="M11.5925 24.0825L11.1082 25.276C11.0446 25.4333 10.9635 25.5361 10.786 25.5361C10.7597 25.5361 10.7225 25.5339 10.6984 25.5273C10.6611 25.5164 10.6436 25.4924 10.6436 25.4618C10.6436 25.4268 10.6699 25.3984 10.7071 25.3984C10.7181 25.3984 10.729 25.4006 10.7422 25.4027C10.7597 25.4049 10.7685 25.4049 10.7795 25.4049C10.8781 25.4049 10.9307 25.3394 10.9745 25.2235L11.0578 25.0093L10.6502 24.0869C10.6436 24.0694 10.6414 24.0563 10.6414 24.0454C10.6414 24.0039 10.6765 23.9733 10.7181 23.9733C10.7422 23.9733 10.7729 23.982 10.7926 24.0323L11.1345 24.8519H11.1389L11.4523 24.0323C11.4698 23.9842 11.5005 23.9733 11.5246 23.9733C11.5684 23.9733 11.6013 24.0039 11.6013 24.0432C11.6013 24.0519 11.5991 24.0651 11.5925 24.0825Z" fill="#191C1F"/>
<path d="M12.6495 23.5995V24.876C12.6495 25.0071 12.5574 25.0312 12.5114 25.0312C12.4654 25.0312 12.3733 25.0071 12.3733 24.876V23.5995C12.3733 23.4683 12.4654 23.4443 12.5114 23.4443C12.5574 23.4443 12.6495 23.4683 12.6495 23.5995Z" fill="#191C1F"/>
<path d="M13.9934 24.9044L13.2724 23.912H13.268V24.876C13.268 25.0071 13.1759 25.0312 13.1299 25.0312C13.0839 25.0312 12.9918 25.0071 12.9918 24.876V23.6454C12.9918 23.4749 13.1102 23.4443 13.165 23.4443C13.2263 23.4443 13.2855 23.4705 13.3578 23.5711L14.0789 24.5612H14.0832V23.5995C14.0832 23.4683 14.1753 23.4443 14.2213 23.4443C14.2673 23.4443 14.3594 23.4683 14.3594 23.5995V24.8301C14.3594 25.0006 14.241 25.0312 14.1862 25.0312C14.1227 25.0312 14.0679 25.0049 13.9934 24.9044Z" fill="#191C1F"/>
<path d="M15.2519 25.0115H14.8662C14.7545 25.0115 14.7019 24.959 14.7019 24.8476V23.6279C14.7019 23.5164 14.7545 23.464 14.8662 23.464H15.2519C15.6574 23.464 16.1088 23.6563 16.1088 24.2377C16.1088 24.7798 15.6574 25.0115 15.2519 25.0115ZM14.978 23.7V24.7711H15.2081C15.493 24.7711 15.813 24.6552 15.813 24.2377C15.813 23.794 15.493 23.7 15.2081 23.7H14.978Z" fill="#191C1F"/>
<path d="M16.3623 24.8847V24.0804C16.3623 23.9623 16.4478 23.9427 16.4873 23.9427C16.5267 23.9427 16.6122 23.9623 16.6122 24.0804V24.1306H16.6166C16.6626 24.0279 16.7744 23.9317 16.9431 23.9317C17.1053 23.9317 17.2127 24.0126 17.2718 24.1306C17.342 24.0039 17.4603 23.9317 17.6181 23.9317C17.892 23.9317 18.006 24.1416 18.006 24.3558V24.8847C18.006 25.0093 17.9183 25.0312 17.8745 25.0312C17.8307 25.0312 17.743 25.0093 17.743 24.8847V24.4301C17.743 24.3055 17.7145 24.1503 17.5458 24.1503C17.3814 24.1503 17.3135 24.3033 17.3135 24.4388V24.8847C17.3135 25.0093 17.2258 25.0312 17.182 25.0312C17.1382 25.0312 17.0505 25.0093 17.0505 24.8847V24.3776C17.0505 24.2487 16.9891 24.1503 16.8554 24.1503C16.6976 24.1503 16.6253 24.2946 16.6253 24.4344V24.8847C16.6253 25.0093 16.5377 25.0312 16.4938 25.0312C16.45 25.0312 16.3623 25.0093 16.3623 24.8847Z" fill="#191C1F"/>
<path d="M19.3947 24.4825C19.3947 24.8126 19.1405 25.0421 18.8227 25.0421C18.5049 25.0421 18.2507 24.8126 18.2507 24.4825C18.2507 24.1525 18.5049 23.9317 18.8227 23.9317C19.1405 23.9317 19.3947 24.1525 19.3947 24.4825ZM19.1273 24.4825C19.1273 24.3186 19.0309 24.1459 18.8227 24.1459C18.6145 24.1459 18.5181 24.3186 18.5181 24.4825C18.5181 24.6465 18.6145 24.8235 18.8227 24.8235C19.0309 24.8235 19.1273 24.6465 19.1273 24.4825Z" fill="#191C1F"/>
<path d="M19.6497 24.8847V24.0804C19.6497 23.9623 19.7351 23.9427 19.7746 23.9427C19.814 23.9427 19.8995 23.9623 19.8995 24.0804V24.1306H19.9039C19.9499 24.0257 20.0748 23.9317 20.2304 23.9317C20.5044 23.9317 20.6183 24.1416 20.6183 24.3558V24.8847C20.6183 25.0093 20.5307 25.0312 20.4869 25.0312C20.443 25.0312 20.3554 25.0093 20.3554 24.8847V24.4301C20.3554 24.3055 20.3269 24.1503 20.1581 24.1503C19.9916 24.1503 19.9127 24.2946 19.9127 24.4344V24.8847C19.9127 25.0093 19.825 25.0312 19.7812 25.0312C19.7373 25.0312 19.6497 25.0093 19.6497 24.8847Z" fill="#191C1F"/>
<path d="M21.7887 24.57H21.1269C21.1378 24.7186 21.2737 24.8279 21.4271 24.8279C21.5367 24.8279 21.6024 24.7929 21.6682 24.7383C21.7054 24.7077 21.7295 24.7011 21.758 24.7011C21.8172 24.7011 21.8632 24.7426 21.8632 24.806C21.8632 24.8279 21.8544 24.8672 21.8194 24.9C21.7164 24.9984 21.598 25.0421 21.4293 25.0421C21.1049 25.0421 20.8639 24.8344 20.8639 24.4935C20.8639 24.1547 21.1027 23.9317 21.4205 23.9317C21.6747 23.9317 21.8807 24.076 21.9224 24.3842C21.9246 24.406 21.9268 24.4213 21.9268 24.4388C21.9268 24.5306 21.8764 24.57 21.7887 24.57ZM21.1269 24.382H21.666C21.666 24.2465 21.5893 24.1284 21.4183 24.1284C21.2627 24.1284 21.1378 24.2355 21.1269 24.382Z" fill="#191C1F"/>
<path d="M23.1041 24.1328L22.6527 25.2366C22.5738 25.429 22.4795 25.5361 22.2538 25.5361C22.142 25.5361 22.1091 25.4705 22.1091 25.418C22.1091 25.3656 22.1442 25.3197 22.1968 25.3109C22.21 25.3088 22.2209 25.3088 22.2385 25.3088C22.3086 25.3088 22.3765 25.265 22.4247 25.1448L22.4773 25.0115L22.0807 24.1416C22.0675 24.111 22.0631 24.0825 22.0631 24.0651C22.0631 23.9973 22.1179 23.9427 22.1946 23.9427C22.2406 23.9427 22.291 23.9623 22.3261 24.0454L22.611 24.7252H22.6154L22.8609 24.0519C22.8937 23.9623 22.9463 23.9427 22.9902 23.9427C23.0647 23.9427 23.1195 23.9907 23.1195 24.0607C23.1195 24.076 23.1173 24.0978 23.1041 24.1328Z" fill="#191C1F"/>
<path d="M18.3947 19.0725C18.3168 18.8879 18.4523 18.6836 18.6526 18.6836C18.767 18.6836 18.8698 18.7531 18.9124 18.8593L19.4609 20.2261C19.4619 20.2287 19.4644 20.2303 19.4672 20.2303C19.47 20.2303 19.4725 20.2286 19.4735 20.2259L19.9641 18.8606C20.0023 18.7544 20.103 18.6836 20.2159 18.6836C20.404 18.6836 20.5333 18.8726 20.4653 19.048L19.5553 21.3916C19.5151 21.4969 19.4703 21.5882 19.4209 21.6656C19.3746 21.7461 19.319 21.8127 19.2542 21.8654C19.1893 21.9211 19.1121 21.9613 19.0226 21.9861C18.9361 22.014 18.8311 22.0279 18.7076 22.0279C18.6339 22.0279 18.5609 22.0231 18.4888 22.0135C18.369 21.9976 18.2939 21.8823 18.3105 21.7626L18.3318 21.6087C18.3416 21.5375 18.4147 21.4936 18.4852 21.5077C18.5346 21.5201 18.5841 21.5263 18.6335 21.5263C18.7014 21.5263 18.7585 21.5201 18.8048 21.5077C18.8512 21.4953 18.8898 21.4752 18.9207 21.4473C18.9546 21.4225 18.9824 21.3885 19.004 21.3451C19.0256 21.3049 19.0488 21.2553 19.0735 21.1965C19.1198 21.0814 19.143 21.0238 19.1474 20.9638C19.149 20.9426 19.1488 20.9214 19.1469 20.9002C19.1414 20.8403 19.1173 20.7831 19.069 20.6688L18.3947 19.0725Z" fill="#191C1F"/>
<path d="M17.4324 20.6166C17.4324 20.6116 17.4284 20.6076 17.4234 20.6076C17.4204 20.6076 17.4175 20.6092 17.4158 20.6118C17.336 20.7366 17.2349 20.8281 17.1128 20.8863C16.9893 20.9421 16.8534 20.9699 16.7052 20.9699C16.6032 20.9699 16.5029 20.956 16.4041 20.9281C16.3083 20.9003 16.2219 20.8585 16.1447 20.8027C16.0706 20.747 16.0103 20.6773 15.964 20.5937C15.9177 20.5101 15.8945 20.4125 15.8945 20.3011C15.8945 20.1803 15.9161 20.0781 15.9594 19.9945C16.0026 19.9078 16.0597 19.8366 16.1308 19.7808C16.2049 19.722 16.2898 19.6756 16.3855 19.6415C16.4813 19.6074 16.5801 19.5827 16.682 19.5672C16.787 19.5486 16.892 19.5378 16.997 19.5347C17.102 19.5285 17.2008 19.5254 17.2934 19.5254H17.372C17.4054 19.5254 17.4324 19.4983 17.4324 19.465C17.4324 19.3256 17.3845 19.2219 17.2888 19.1538C17.1931 19.0826 17.0711 19.0469 16.9229 19.0469C16.8055 19.0469 16.6959 19.0686 16.594 19.112C16.5597 19.1255 16.5271 19.1408 16.496 19.1578C16.3955 19.2128 16.2652 19.2142 16.1843 19.1331C16.1032 19.0518 16.1013 18.9183 16.195 18.852C16.279 18.7926 16.3703 18.7461 16.4689 18.7125C16.6357 18.6568 16.8071 18.6289 16.9831 18.6289C17.1406 18.6289 17.2734 18.6475 17.3814 18.6846C17.4895 18.7187 17.5791 18.7636 17.6501 18.8193C17.7211 18.8751 17.7752 18.9401 17.8122 19.0144C17.8524 19.0857 17.8802 19.1584 17.8956 19.2327C17.9141 19.3071 17.9249 19.3798 17.928 19.4511C17.9311 19.5192 17.9327 19.5796 17.9327 19.6322V20.6641C17.9327 20.8022 17.8207 20.9142 17.6825 20.9142H17.5857C17.501 20.9142 17.4324 20.8456 17.4324 20.7609V20.6166ZM17.4 20.0313C17.4 19.9674 17.3481 19.9155 17.2842 19.9155C17.207 19.9155 17.1205 19.9186 17.0248 19.9248C16.929 19.931 16.8379 19.9465 16.7515 19.9713C16.6681 19.993 16.5971 20.027 16.5384 20.0735C16.4797 20.1168 16.4504 20.1788 16.4504 20.2593C16.4504 20.3119 16.4612 20.3568 16.4828 20.394C16.5075 20.428 16.5384 20.4574 16.5755 20.4822C16.6125 20.507 16.6542 20.5256 16.7005 20.538C16.7468 20.5473 16.7932 20.5519 16.8395 20.5519C17.0309 20.5519 17.1714 20.507 17.261 20.4172C17.3536 20.3243 17.4 20.1989 17.4 20.041V20.0313Z" fill="#191C1F"/>
<path d="M13.125 18.9487C13.125 18.8029 13.2432 18.6846 13.389 18.6846H13.4858C13.5782 18.6846 13.6531 18.7595 13.6531 18.8519V19.0132C13.6531 19.0164 13.6557 19.0191 13.659 19.0191C13.661 19.0191 13.663 19.018 13.664 19.0162C13.7442 18.8814 13.8517 18.7833 13.9866 18.7218C14.1224 18.6599 14.2691 18.6289 14.4266 18.6289C14.5965 18.6289 14.7493 18.6599 14.8852 18.7218C15.0211 18.7806 15.1369 18.8627 15.2326 18.968C15.3283 19.0733 15.4009 19.1971 15.4503 19.3396C15.4997 19.482 15.5244 19.6353 15.5244 19.7994C15.5244 19.9635 15.4982 20.1168 15.4457 20.2593C15.3932 20.4017 15.3191 20.5256 15.2233 20.6309C15.1307 20.7361 15.018 20.8198 14.8852 20.8817C14.7524 20.9405 14.6073 20.9699 14.4498 20.9699C14.3448 20.9699 14.2521 20.9591 14.1719 20.9374C14.0916 20.9157 14.0205 20.8879 13.9588 20.8538C13.897 20.8198 13.8445 20.7841 13.8013 20.747C13.7595 20.7081 13.7249 20.6706 13.6975 20.6346C13.6958 20.6322 13.693 20.6309 13.6901 20.6309C13.685 20.6309 13.6809 20.635 13.6809 20.6401V21.6953C13.6809 21.8488 13.5564 21.9732 13.4029 21.9732C13.2494 21.9732 13.125 21.8488 13.125 21.6953V18.9487ZM14.9686 19.7994C14.9686 19.7127 14.9531 19.6291 14.9223 19.5486C14.8945 19.4681 14.8512 19.3969 14.7926 19.3349C14.737 19.273 14.669 19.2235 14.5887 19.1863C14.5085 19.1491 14.4174 19.1306 14.3155 19.1306C14.2135 19.1306 14.1224 19.1491 14.0422 19.1863C13.9619 19.2235 13.8924 19.273 13.8337 19.3349C13.7781 19.3969 13.7349 19.4681 13.704 19.5486C13.6762 19.6291 13.6623 19.7127 13.6623 19.7994C13.6623 19.8861 13.6762 19.9697 13.704 20.0502C13.7349 20.1308 13.7781 20.202 13.8337 20.2639C13.8924 20.3258 13.9619 20.3754 14.0422 20.4125C14.1224 20.4497 14.2135 20.4683 14.3155 20.4683C14.4174 20.4683 14.5085 20.4497 14.5887 20.4125C14.669 20.3754 14.737 20.3258 14.7926 20.2639C14.8512 20.202 14.8945 20.1308 14.9223 20.0502C14.9531 19.9697 14.9686 19.8861 14.9686 19.7994Z" fill="#191C1F"/>
</g>
</g>
<defs>
<clipPath id="clip0_3210_79616">
<rect width="32" height="32" fill="white"/>
</clipPath>
<clipPath id="clip1_3210_79616">
<rect width="32" height="32" fill="white"/>
</clipPath>
</defs>
</svg>
