<svg width="20" height="20" viewBox="0 0 20 20" fill="none" xmlns="http://www.w3.org/2000/svg">
<g clip-path="url(#clip0_3210_79614)">
<g clip-path="url(#clip1_3210_79614)">
<path d="M0 10C0 15.5228 4.47715 20 10 20C15.5228 20 20 15.5228 20 10C20 4.47715 15.5228 0 10 0C4.47715 0 0 4.47715 0 10Z" fill="white"/>
<path d="M6.13009 6.65381C5.88457 6.65381 5.67969 6.86039 5.67969 7.10937V10.4591C5.67969 10.7029 5.88457 10.9096 6.13009 10.9096C6.37561 10.9096 6.57534 10.703 6.57534 10.4591V7.10937C6.57534 6.86039 6.37552 6.65381 6.13009 6.65381Z" fill="#191C1F"/>
<path d="M14.4714 7.95445C14.3664 7.70041 14.2056 7.47691 14.0075 7.27704C13.8094 7.08904 13.5758 6.93158 13.315 6.82323C13.0491 6.71488 12.7647 6.66061 12.4684 6.66061H11.5981C11.5728 6.65381 11.549 6.65381 11.5237 6.65381C11.2646 6.65381 11.0547 6.85873 11.0547 7.11443V10.4506C11.0547 10.7046 11.2528 10.8994 11.5051 10.9112H12.4684C12.7647 10.9112 13.0491 10.8502 13.315 10.7419C13.574 10.6335 13.8093 10.4811 14.0075 10.2931C14.2056 10.0866 14.3664 9.86977 14.4714 9.60902C14.5831 9.34827 14.6373 9.07555 14.6373 8.78601C14.6373 8.49978 14.5831 8.2153 14.4714 7.95454V7.95445ZM13.3692 9.65133C13.1254 9.8901 12.8037 10.0121 12.4516 10.0121H11.9504V7.54801H12.4516C12.8038 7.54801 13.1254 7.68183 13.3692 7.91545C13.613 8.14742 13.7417 8.45398 13.7417 8.78417C13.7417 9.11437 13.6131 9.41918 13.3692 9.65124V9.65133Z" fill="#191C1F"/>
<path d="M11.774 5.54767L10.4516 4.22504C10.3602 4.13362 10.2383 4.08956 10.1181 4.09296C9.99792 4.08956 9.87599 4.13187 9.78458 4.22504L8.46226 5.54767C8.28616 5.7238 8.28616 6.00829 8.46226 6.18442C8.63835 6.36056 8.92277 6.36056 9.09887 6.18442L9.69649 5.58666V9.18194L8.10326 6.8771C8.02372 6.73821 7.8764 6.64679 7.70711 6.64679C7.45653 6.64679 7.25 6.85337 7.25 7.10235V10.4486C7.25 10.6976 7.45653 10.9042 7.70711 10.9042C7.95769 10.9042 8.16423 10.6976 8.16423 10.4486V8.37586L9.78284 10.7044C9.78284 10.7095 9.78284 10.7163 9.78964 10.7231C9.88105 10.8383 10.0098 10.906 10.1554 10.906C10.4059 10.906 10.6074 10.6995 10.6074 10.4505V5.65601L11.1373 6.18608C11.3134 6.36221 11.5979 6.36221 11.774 6.18608C11.9501 6.00994 11.9501 5.72371 11.774 5.54767Z" fill="#191C1F"/>
<path d="M6.13009 6.65381C5.88457 6.65381 5.67969 6.86039 5.67969 7.10937V10.4591C5.67969 10.7029 5.88457 10.9096 6.13009 10.9096C6.37561 10.9096 6.57534 10.703 6.57534 10.4591V7.10937C6.57534 6.86039 6.37552 6.65381 6.13009 6.65381Z" fill="#191C1F"/>
<path d="M14.4714 7.95445C14.3664 7.70041 14.2056 7.47691 14.0075 7.27704C13.8094 7.08904 13.5758 6.93158 13.315 6.82323C13.0491 6.71488 12.7647 6.66061 12.4684 6.66061H11.5981C11.5728 6.65381 11.549 6.65381 11.5237 6.65381C11.2646 6.65381 11.0547 6.85873 11.0547 7.11443V10.4506C11.0547 10.7046 11.2528 10.8994 11.5051 10.9112H12.4684C12.7647 10.9112 13.0491 10.8502 13.315 10.7419C13.574 10.6335 13.8093 10.4811 14.0075 10.2931C14.2056 10.0866 14.3664 9.86977 14.4714 9.60902C14.5831 9.34827 14.6373 9.07555 14.6373 8.78601C14.6373 8.49978 14.5831 8.2153 14.4714 7.95454V7.95445ZM13.3692 9.65133C13.1254 9.8901 12.8037 10.0121 12.4516 10.0121H11.9504V7.54801H12.4516C12.8038 7.54801 13.1254 7.68183 13.3692 7.91545C13.613 8.14742 13.7417 8.45398 13.7417 8.78417C13.7417 9.11437 13.6131 9.41918 13.3692 9.65124V9.65133Z" fill="#191C1F"/>
<path d="M11.774 5.54767L10.4516 4.22504C10.3602 4.13362 10.2383 4.08956 10.1181 4.09296C9.99792 4.08956 9.87599 4.13187 9.78458 4.22504L8.46226 5.54767C8.28616 5.7238 8.28616 6.00829 8.46226 6.18442C8.63835 6.36056 8.92277 6.36056 9.09887 6.18442L9.69649 5.58666V9.18194L8.10326 6.8771C8.02372 6.73821 7.8764 6.64679 7.70711 6.64679C7.45653 6.64679 7.25 6.85337 7.25 7.10235V10.4486C7.25 10.6976 7.45653 10.9042 7.70711 10.9042C7.95769 10.9042 8.16423 10.6976 8.16423 10.4486V8.37586L9.78284 10.7044C9.78284 10.7095 9.78284 10.7163 9.78964 10.7231C9.88105 10.8383 10.0098 10.906 10.1554 10.906C10.4059 10.906 10.6074 10.6995 10.6074 10.4505V5.65601L11.1373 6.18608C11.3134 6.36221 11.5979 6.36221 11.774 6.18608C11.9501 6.00994 11.9501 5.72371 11.774 5.54767Z" fill="#191C1F"/>
<path d="M6.43836 15.3145C6.43836 15.1724 6.3507 15.0563 6.19592 15.0563C6.0521 15.0563 5.94937 15.1683 5.94937 15.3145C5.94937 15.4606 6.0521 15.5713 6.19592 15.5713C6.3507 15.5713 6.43836 15.4565 6.43836 15.3145ZM5.86719 15.5932V14.6423C5.86719 14.5986 5.89869 14.5918 5.91376 14.5918C5.92883 14.5918 5.96033 14.5986 5.96033 14.6423V15.1055H5.96307C6.01786 15.0221 6.11374 14.9784 6.20551 14.9784C6.40549 14.9784 6.53698 15.1259 6.53698 15.3145C6.53698 15.503 6.40549 15.6505 6.20551 15.6505C6.11374 15.6505 6.01786 15.6068 5.96307 15.5262H5.96033V15.5932C5.96033 15.6369 5.92883 15.6437 5.91376 15.6437C5.89869 15.6437 5.86719 15.6369 5.86719 15.5932Z" fill="#191C1F"/>
<path d="M7.24337 15.0535L6.94066 15.7994C6.90094 15.8978 6.85026 15.962 6.73932 15.962C6.72288 15.962 6.69959 15.9606 6.68453 15.9565C6.66124 15.9497 6.65028 15.9347 6.65028 15.9156C6.65028 15.8937 6.66672 15.8759 6.69001 15.8759C6.69685 15.8759 6.7037 15.8773 6.71192 15.8787C6.72288 15.88 6.72836 15.88 6.73521 15.88C6.79684 15.88 6.82972 15.8391 6.85711 15.7666L6.90916 15.6328L6.65439 15.0563C6.65028 15.0453 6.64891 15.0371 6.64891 15.0303C6.64891 15.0044 6.67083 14.9852 6.69685 14.9852C6.71192 14.9852 6.7311 14.9907 6.74342 15.0221L6.9571 15.5344H6.95984L7.15571 15.0221C7.16667 14.9921 7.18585 14.9852 7.20091 14.9852C7.22831 14.9852 7.24885 15.0044 7.24885 15.029C7.24885 15.0344 7.24748 15.0426 7.24337 15.0535Z" fill="#191C1F"/>
<path d="M7.90396 14.7516V15.5494C7.90396 15.6314 7.84644 15.6464 7.81767 15.6464C7.78891 15.6464 7.73138 15.6314 7.73138 15.5494V14.7516C7.73138 14.6697 7.78891 14.6546 7.81767 14.6546C7.84644 14.6546 7.90396 14.6697 7.90396 14.7516Z" fill="#191C1F"/>
<path d="M8.74392 15.5672L8.29328 14.947H8.29054V15.5494C8.29054 15.6314 8.23301 15.6464 8.20424 15.6464C8.17548 15.6464 8.11795 15.6314 8.11795 15.5494V14.7803C8.11795 14.6738 8.19192 14.6546 8.22616 14.6546C8.26451 14.6546 8.3015 14.671 8.3467 14.7339L8.79733 15.3527H8.80007V14.7516C8.80007 14.6697 8.8576 14.6546 8.88637 14.6546C8.91513 14.6546 8.97266 14.6697 8.97266 14.7516V15.5207C8.97266 15.6273 8.89869 15.6464 8.86445 15.6464C8.82473 15.6464 8.79049 15.63 8.74392 15.5672Z" fill="#191C1F"/>
<path d="M9.53051 15.6341H9.28944C9.21958 15.6341 9.18671 15.6013 9.18671 15.5317V14.7694C9.18671 14.6997 9.21958 14.6669 9.28944 14.6669H9.53051C9.78391 14.6669 10.0661 14.7871 10.0661 15.1505C10.0661 15.4893 9.78391 15.6341 9.53051 15.6341ZM9.3593 14.8145V15.4839H9.50312C9.68118 15.4839 9.88116 15.4115 9.88116 15.1505C9.88116 14.8732 9.68118 14.8145 9.50312 14.8145H9.3593Z" fill="#191C1F"/>
<path d="M10.2245 15.5549V15.0522C10.2245 14.9784 10.2779 14.9661 10.3026 14.9661C10.3272 14.9661 10.3807 14.9784 10.3807 15.0522V15.0836H10.3834C10.4122 15.0194 10.482 14.9593 10.5875 14.9593C10.6888 14.9593 10.756 15.0098 10.7929 15.0836C10.8368 15.0044 10.9107 14.9593 11.0094 14.9593C11.1806 14.9593 11.2518 15.0904 11.2518 15.2243V15.5549C11.2518 15.6328 11.197 15.6464 11.1696 15.6464C11.1422 15.6464 11.0874 15.6328 11.0874 15.5549V15.2708C11.0874 15.1929 11.0696 15.0959 10.9642 15.0959C10.8614 15.0959 10.819 15.1915 10.819 15.2762V15.5549C10.819 15.6328 10.7642 15.6464 10.7368 15.6464C10.7094 15.6464 10.6546 15.6328 10.6546 15.5549V15.238C10.6546 15.1574 10.6163 15.0959 10.5327 15.0959C10.4341 15.0959 10.3889 15.1861 10.3889 15.2735V15.5549C10.3889 15.6328 10.3341 15.6464 10.3067 15.6464C10.2793 15.6464 10.2245 15.6328 10.2245 15.5549Z" fill="#191C1F"/>
<path d="M12.1197 15.3035C12.1197 15.5098 11.9608 15.6533 11.7622 15.6533C11.5636 15.6533 11.4047 15.5098 11.4047 15.3035C11.4047 15.0973 11.5636 14.9593 11.7622 14.9593C11.9608 14.9593 12.1197 15.0973 12.1197 15.3035ZM11.9526 15.3035C11.9526 15.2011 11.8924 15.0932 11.7622 15.0932C11.6321 15.0932 11.5718 15.2011 11.5718 15.3035C11.5718 15.406 11.6321 15.5166 11.7622 15.5166C11.8924 15.5166 11.9526 15.406 11.9526 15.3035Z" fill="#191C1F"/>
<path d="M12.2791 15.5549V15.0522C12.2791 14.9784 12.3325 14.9661 12.3572 14.9661C12.3818 14.9661 12.4352 14.9784 12.4352 15.0522V15.0836H12.438C12.4667 15.018 12.5448 14.9593 12.6421 14.9593C12.8133 14.9593 12.8845 15.0904 12.8845 15.2243V15.5549C12.8845 15.6328 12.8297 15.6464 12.8023 15.6464C12.7749 15.6464 12.7201 15.6328 12.7201 15.5549V15.2708C12.7201 15.1929 12.7023 15.0959 12.5969 15.0959C12.4928 15.0959 12.4435 15.1861 12.4435 15.2735V15.5549C12.4435 15.6328 12.3887 15.6464 12.3613 15.6464C12.3339 15.6464 12.2791 15.6328 12.2791 15.5549Z" fill="#191C1F"/>
<path d="M13.616 15.3582H13.2023C13.2092 15.4511 13.2941 15.5194 13.39 15.5194C13.4585 15.5194 13.4996 15.4975 13.5407 15.4634C13.5639 15.4442 13.579 15.4401 13.5968 15.4401C13.6338 15.4401 13.6626 15.4661 13.6626 15.5057C13.6626 15.5194 13.6571 15.544 13.6352 15.5645C13.5708 15.6259 13.4968 15.6533 13.3914 15.6533C13.1886 15.6533 13.038 15.5235 13.038 15.3104C13.038 15.0986 13.1873 14.9593 13.3859 14.9593C13.5448 14.9593 13.6735 15.0494 13.6995 15.2421C13.7009 15.2557 13.7023 15.2653 13.7023 15.2762C13.7023 15.3336 13.6708 15.3582 13.616 15.3582ZM13.2023 15.2407H13.5393C13.5393 15.156 13.4913 15.0822 13.3845 15.0822C13.2873 15.0822 13.2092 15.1492 13.2023 15.2407Z" fill="#191C1F"/>
<path d="M14.4381 15.085L14.156 15.7748C14.1066 15.8951 14.0477 15.962 13.9067 15.962C13.8368 15.962 13.8163 15.921 13.8163 15.8882C13.8163 15.8554 13.8382 15.8268 13.8711 15.8213C13.8793 15.8199 13.8861 15.8199 13.8971 15.8199C13.9409 15.8199 13.9834 15.7926 14.0135 15.7175L14.0464 15.6341L13.7985 15.0904C13.7902 15.0713 13.7875 15.0535 13.7875 15.0426C13.7875 15.0003 13.8217 14.9661 13.8697 14.9661C13.8984 14.9661 13.93 14.9784 13.9519 15.0303L14.1299 15.4552H14.1327L14.2861 15.0344C14.3066 14.9784 14.3395 14.9661 14.3669 14.9661C14.4135 14.9661 14.4477 14.9962 14.4477 15.0399C14.4477 15.0494 14.4463 15.0631 14.4381 15.085Z" fill="#191C1F"/>
<path d="M11.4972 11.9213C11.4485 11.8059 11.5331 11.6782 11.6584 11.6782C11.7298 11.6782 11.7941 11.7217 11.8207 11.788L12.1636 12.6423C12.1642 12.6439 12.1657 12.6449 12.1675 12.6449C12.1692 12.6449 12.1708 12.6438 12.1714 12.6422L12.4781 11.7889C12.5019 11.7225 12.5649 11.6782 12.6354 11.6782C12.753 11.6782 12.8338 11.7964 12.7913 11.906L12.2225 13.3707C12.1974 13.4365 12.1694 13.4936 12.1386 13.542C12.1096 13.5923 12.0749 13.6339 12.0343 13.6668C11.9938 13.7017 11.9456 13.7268 11.8896 13.7423C11.8355 13.7597 11.7699 13.7684 11.6927 13.7684C11.6466 13.7684 11.6011 13.7654 11.556 13.7594C11.4811 13.7495 11.4342 13.6774 11.4445 13.6026L11.4578 13.5064C11.464 13.4619 11.5097 13.4344 11.5538 13.4433C11.5846 13.451 11.6155 13.4549 11.6464 13.4549C11.6889 13.4549 11.7246 13.451 11.7535 13.4433C11.7825 13.4355 11.8066 13.423 11.8259 13.4055C11.8471 13.3901 11.8645 13.3688 11.878 13.3417C11.8915 13.3165 11.906 13.2856 11.9214 13.2488C11.9504 13.1768 11.9649 13.1409 11.9676 13.1034C11.9686 13.0901 11.9685 13.0768 11.9673 13.0636C11.9639 13.0261 11.9488 12.9904 11.9186 12.919L11.4972 11.9213Z" fill="#191C1F"/>
<path d="M10.8948 12.8863C10.8948 12.8833 10.8922 12.8807 10.8892 12.8807C10.8872 12.8807 10.8854 12.8817 10.8844 12.8834C10.8345 12.9614 10.7713 13.0186 10.695 13.0549C10.6178 13.0898 10.5329 13.1072 10.4402 13.1072C10.3765 13.1072 10.3138 13.0985 10.2521 13.0811C10.1922 13.0636 10.1382 13.0375 10.0899 13.0027C10.0436 12.9678 10.006 12.9243 9.97702 12.872C9.94807 12.8198 9.93359 12.7588 9.93359 12.6891C9.93359 12.6137 9.9471 12.5498 9.97412 12.4975C10.0011 12.4434 10.0369 12.3988 10.0812 12.364C10.1276 12.3272 10.1806 12.2982 10.2405 12.2769C10.3003 12.2556 10.3621 12.2401 10.4258 12.2305C10.4914 12.2188 10.557 12.2121 10.6226 12.2101C10.6882 12.2063 10.75 12.2043 10.8079 12.2043H10.857C10.8779 12.2043 10.8948 12.1874 10.8948 12.1666C10.8948 12.0795 10.8648 12.0147 10.805 11.9721C10.7452 11.9276 10.6689 11.9053 10.5763 11.9053C10.503 11.9053 10.4344 11.9189 10.3707 11.946C10.3494 11.9544 10.3289 11.964 10.3095 11.9746C10.2467 12.009 10.1652 12.0099 10.1147 11.9592C10.064 11.9084 10.0628 11.8249 10.1214 11.7835C10.1739 11.7463 10.231 11.7173 10.2926 11.6963C10.3968 11.6615 10.5039 11.644 10.6139 11.644C10.7124 11.644 10.7954 11.6557 10.8629 11.6789C10.9305 11.7002 10.9864 11.7282 11.0308 11.7631C11.0752 11.7979 11.109 11.8385 11.1322 11.885C11.1572 11.9295 11.1746 11.975 11.1843 12.0214C11.1958 12.0679 11.2026 12.1134 11.2045 12.1579C11.2065 12.2005 11.2074 12.2382 11.2074 12.2711V12.916C11.2074 13.0024 11.1374 13.0724 11.0511 13.0724H10.9906C10.9376 13.0724 10.8948 13.0295 10.8948 12.9765V12.8863ZM10.8745 12.5206C10.8745 12.4806 10.8421 12.4482 10.8021 12.4482C10.7539 12.4482 10.6998 12.4501 10.64 12.454C10.5802 12.4579 10.5232 12.4675 10.4692 12.483C10.4171 12.4966 10.3727 12.5179 10.336 12.5469C10.2993 12.574 10.281 12.6127 10.281 12.663C10.281 12.6959 10.2878 12.724 10.3013 12.7472C10.3167 12.7685 10.336 12.7869 10.3592 12.8024C10.3823 12.8178 10.4084 12.8295 10.4373 12.8372C10.4663 12.843 10.4952 12.8459 10.5242 12.8459C10.6439 12.8459 10.7317 12.8178 10.7876 12.7617C10.8455 12.7037 10.8745 12.6253 10.8745 12.5266V12.5206Z" fill="#191C1F"/>
<path d="M8.20312 11.8439C8.20312 11.7528 8.27701 11.6789 8.36814 11.6789H8.42865C8.48637 11.6789 8.53316 11.7257 8.53316 11.7834V11.8842C8.53316 11.8863 8.53481 11.8879 8.53685 11.8879C8.53815 11.8879 8.53936 11.8872 8.54003 11.8861C8.5901 11.8019 8.65729 11.7405 8.74161 11.7021C8.82653 11.6634 8.91821 11.644 9.01664 11.644C9.12279 11.644 9.21833 11.6634 9.30325 11.7021C9.38817 11.7389 9.46055 11.7902 9.52038 11.856C9.58021 11.9218 9.62557 11.9992 9.65645 12.0882C9.68733 12.1772 9.70277 12.273 9.70277 12.3756C9.70277 12.4782 9.68636 12.574 9.65355 12.663C9.62074 12.752 9.57442 12.8295 9.51459 12.8953C9.45669 12.9611 9.38624 13.0133 9.30325 13.052C9.22026 13.0888 9.12955 13.1072 9.03111 13.1072C8.96549 13.1072 8.90759 13.1004 8.85741 13.0869C8.80723 13.0733 8.76284 13.0559 8.72424 13.0346C8.68564 13.0133 8.65283 12.9911 8.6258 12.9678C8.59968 12.9435 8.57807 12.9201 8.56096 12.8976C8.55986 12.8961 8.55814 12.8953 8.55632 12.8953C8.55312 12.8953 8.55053 12.8979 8.55053 12.9011V13.5605C8.55053 13.6565 8.47276 13.7343 8.37683 13.7343C8.28089 13.7343 8.20312 13.6565 8.20312 13.5605V11.8439ZM9.35536 12.3756C9.35536 12.3214 9.34571 12.2692 9.32641 12.2188C9.30904 12.1685 9.28202 12.124 9.24535 12.0853C9.21061 12.0466 9.16815 12.0156 9.11797 11.9924C9.06779 11.9692 9.01085 11.9576 8.94716 11.9576C8.88347 11.9576 8.82653 11.9692 8.77635 11.9924C8.72617 12.0156 8.68274 12.0466 8.64607 12.0853C8.61133 12.124 8.58431 12.1685 8.56501 12.2188C8.54764 12.2692 8.53895 12.3214 8.53895 12.3756C8.53895 12.4298 8.54764 12.4821 8.56501 12.5324C8.58431 12.5827 8.61133 12.6272 8.64607 12.6659C8.68274 12.7046 8.72617 12.7356 8.77635 12.7588C8.82653 12.782 8.88347 12.7937 8.94716 12.7937C9.01085 12.7937 9.06779 12.782 9.11797 12.7588C9.16815 12.7356 9.21061 12.7046 9.24535 12.6659C9.28202 12.6272 9.30904 12.5827 9.32641 12.5324C9.34571 12.4821 9.35536 12.4298 9.35536 12.3756Z" fill="#191C1F"/>
</g>
</g>
<defs>
<clipPath id="clip0_3210_79614">
<rect width="20" height="20" fill="white"/>
</clipPath>
<clipPath id="clip1_3210_79614">
<rect width="20" height="20" fill="white"/>
</clipPath>
</defs>
</svg>
