<svg width="20" height="20" viewBox="0 0 20 20" fill="none" xmlns="http://www.w3.org/2000/svg">
<g clip-path="url(#clip0_3210_79619)">
<g clip-path="url(#clip1_3210_79619)">
<path d="M0 10C0 15.5228 4.47715 20 10 20C15.5228 20 20 15.5228 20 10C20 4.47715 15.5228 0 10 0C4.47715 0 0 4.47715 0 10Z" fill="white"/>
<path d="M5.31106 7.30396C5.00947 7.30396 4.75781 7.55771 4.75781 7.86354V11.9781C4.75781 12.2776 5.00947 12.5315 5.31106 12.5315C5.61264 12.5315 5.85798 12.2777 5.85798 11.9781V7.86354C5.85798 7.55771 5.61253 7.30396 5.31106 7.30396Z" fill="#191C1F"/>
<path d="M15.5563 8.90158C15.4273 8.58954 15.2297 8.315 14.9864 8.0695C14.7431 7.83857 14.4561 7.64515 14.1358 7.51206C13.8092 7.37897 13.4599 7.31232 13.0959 7.31232H12.0269C11.9958 7.30395 11.9666 7.30396 11.9354 7.30396C11.6172 7.30396 11.3594 7.55567 11.3594 7.86975V11.9677C11.3594 12.2798 11.6027 12.5189 11.9126 12.5335H13.0959C13.4599 12.5335 13.8092 12.4586 14.1358 12.3255C14.4539 12.1924 14.743 12.0052 14.9864 11.7743C15.2297 11.5205 15.4273 11.2542 15.5563 10.934C15.6935 10.6137 15.76 10.2787 15.76 9.92302C15.76 9.57143 15.6935 9.22199 15.5563 8.9017V8.90158ZM14.2024 10.9859C13.903 11.2792 13.5077 11.429 13.0752 11.429H12.4597V8.40233H13.0752C13.5079 8.40233 13.903 8.56672 14.2024 8.85368C14.5018 9.13861 14.66 9.51517 14.66 9.92076C14.66 10.3264 14.502 10.7008 14.2024 10.9858V10.9859Z" fill="#191C1F"/>
<path d="M12.2445 5.9453L10.6202 4.32067C10.5079 4.20837 10.3581 4.15426 10.2105 4.15844C10.0629 4.15426 9.9131 4.20623 9.80083 4.32067L8.17656 5.9453C7.96026 6.16166 7.96026 6.5111 8.17656 6.72745C8.39287 6.94381 8.74223 6.94381 8.95853 6.72745L9.69262 5.99321V10.4094L7.73559 7.57829C7.63789 7.4077 7.45694 7.2954 7.24899 7.2954C6.94119 7.2954 6.6875 7.54915 6.6875 7.85498V11.9654C6.6875 12.2712 6.94119 12.5249 7.24899 12.5249C7.55679 12.5249 7.81048 12.2712 7.81048 11.9654V9.41928L9.79868 12.2796C9.79868 12.2858 9.79868 12.2941 9.80704 12.3025C9.91931 12.4439 10.0774 12.5272 10.2563 12.5272C10.564 12.5272 10.8115 12.2735 10.8115 11.9676V6.07839L11.4625 6.72949C11.6788 6.94584 12.0281 6.94584 12.2445 6.72949C12.4608 6.51313 12.4608 6.16154 12.2445 5.9453Z" fill="#191C1F"/>
<path d="M5.31106 7.30396C5.00947 7.30396 4.75781 7.55771 4.75781 7.86354V11.9781C4.75781 12.2776 5.00947 12.5315 5.31106 12.5315C5.61264 12.5315 5.85798 12.2777 5.85798 11.9781V7.86354C5.85798 7.55771 5.61253 7.30396 5.31106 7.30396Z" fill="#191C1F"/>
<path d="M15.5563 8.90158C15.4273 8.58954 15.2297 8.315 14.9864 8.0695C14.7431 7.83857 14.4561 7.64515 14.1358 7.51206C13.8092 7.37897 13.4599 7.31232 13.0959 7.31232H12.0269C11.9958 7.30395 11.9666 7.30396 11.9354 7.30396C11.6172 7.30396 11.3594 7.55567 11.3594 7.86975V11.9677C11.3594 12.2798 11.6027 12.5189 11.9126 12.5335H13.0959C13.4599 12.5335 13.8092 12.4586 14.1358 12.3255C14.4539 12.1924 14.743 12.0052 14.9864 11.7743C15.2297 11.5205 15.4273 11.2542 15.5563 10.934C15.6935 10.6137 15.76 10.2787 15.76 9.92302C15.76 9.57143 15.6935 9.22199 15.5563 8.9017V8.90158ZM14.2024 10.9859C13.903 11.2792 13.5077 11.429 13.0752 11.429H12.4597V8.40233H13.0752C13.5079 8.40233 13.903 8.56672 14.2024 8.85368C14.5018 9.13861 14.66 9.51517 14.66 9.92076C14.66 10.3264 14.502 10.7008 14.2024 10.9858V10.9859Z" fill="#191C1F"/>
<path d="M12.2445 5.9453L10.6202 4.32067C10.5079 4.20837 10.3581 4.15426 10.2105 4.15844C10.0629 4.15426 9.9131 4.20623 9.80083 4.32067L8.17656 5.9453C7.96026 6.16166 7.96026 6.5111 8.17656 6.72745C8.39287 6.94381 8.74223 6.94381 8.95853 6.72745L9.69262 5.99321V10.4094L7.73559 7.57829C7.63789 7.4077 7.45694 7.2954 7.24899 7.2954C6.94119 7.2954 6.6875 7.54915 6.6875 7.85498V11.9654C6.6875 12.2712 6.94119 12.5249 7.24899 12.5249C7.55679 12.5249 7.81048 12.2712 7.81048 11.9654V9.41928L9.79868 12.2796C9.79868 12.2858 9.79868 12.2941 9.80704 12.3025C9.91931 12.4439 10.0774 12.5272 10.2563 12.5272C10.564 12.5272 10.8115 12.2735 10.8115 11.9676V6.07839L11.4625 6.72949C11.6788 6.94584 12.0281 6.94584 12.2445 6.72949C12.4608 6.51313 12.4608 6.16154 12.2445 5.9453Z" fill="#191C1F"/>
<path d="M11.3279 13.8322C11.2724 13.7007 11.3689 13.5552 11.5117 13.5552C11.5931 13.5552 11.6664 13.6047 11.6967 13.6803L12.0875 14.654C12.0882 14.6558 12.09 14.657 12.0919 14.657C12.0939 14.657 12.0957 14.6558 12.0964 14.6539L12.4459 13.6813C12.4731 13.6056 12.5449 13.5552 12.6253 13.5552C12.7593 13.5552 12.8514 13.6898 12.8029 13.8147L12.1547 15.4843C12.1261 15.5593 12.0942 15.6243 12.059 15.6795C12.026 15.7368 11.9864 15.7843 11.9402 15.8218C11.894 15.8615 11.839 15.8901 11.7752 15.9078C11.7136 15.9276 11.6388 15.9376 11.5508 15.9376C11.4983 15.9376 11.4463 15.9342 11.395 15.9273C11.3096 15.916 11.2561 15.8338 11.2679 15.7486L11.2831 15.6389C11.2901 15.5882 11.3422 15.5569 11.3924 15.567C11.4276 15.5758 11.4628 15.5802 11.498 15.5802C11.5464 15.5802 11.5871 15.5758 11.6201 15.567C11.6531 15.5582 11.6806 15.5438 11.7026 15.524C11.7268 15.5063 11.7466 15.482 11.762 15.4512C11.7774 15.4225 11.7939 15.3872 11.8115 15.3453L11.813 15.3416C11.8497 15.2504 11.8681 15.2047 11.8676 15.1568C11.8672 15.109 11.8481 15.0637 11.8098 14.973L11.3279 13.8322Z" fill="#191C1F"/>
<path d="M10.6424 14.9321C10.6424 14.9286 10.6395 14.9257 10.636 14.9257C10.6338 14.9257 10.6318 14.9268 10.6306 14.9287C10.5737 15.0176 10.5017 15.0828 10.4147 15.1242C10.3267 15.1639 10.2299 15.1838 10.1243 15.1838C10.0517 15.1838 9.98024 15.1739 9.90985 15.154C9.84165 15.1342 9.78006 15.1044 9.72506 15.0647C9.67227 15.025 9.62937 14.9753 9.59637 14.9158C9.56337 14.8562 9.54688 14.7867 9.54688 14.7073C9.54688 14.6213 9.56227 14.5485 9.59307 14.4889C9.62387 14.4272 9.66457 14.3764 9.71516 14.3367C9.76796 14.2948 9.82846 14.2617 9.89665 14.2374C9.96485 14.2132 10.0352 14.1955 10.1078 14.1845C10.1826 14.1713 10.2574 14.1636 10.3322 14.1613C10.407 14.1569 10.4774 14.1547 10.5434 14.1547H10.5994C10.6231 14.1547 10.6424 14.1355 10.6424 14.1117C10.6424 14.0124 10.6083 13.9385 10.5401 13.89C10.4719 13.8393 10.385 13.8139 10.2794 13.8139C10.1958 13.8139 10.1177 13.8294 10.0451 13.8602C10.0208 13.8699 9.99748 13.8808 9.97532 13.8929C9.90375 13.932 9.8109 13.9331 9.75329 13.8753C9.69553 13.8174 9.69415 13.7223 9.76093 13.675C9.82078 13.6327 9.88582 13.5996 9.95605 13.5757C10.0748 13.536 10.1969 13.5161 10.3223 13.5161C10.4345 13.5161 10.5291 13.5293 10.6061 13.5558C10.6831 13.5801 10.7469 13.6121 10.7975 13.6518C10.8481 13.6915 10.8866 13.7378 10.913 13.7908C10.9416 13.8415 10.9614 13.8933 10.9724 13.9463C10.9856 13.9992 10.9933 14.051 10.9955 14.1018C10.9977 14.1503 10.9988 14.1933 10.9988 14.2308V14.9659C10.9988 15.0643 10.919 15.1441 10.8206 15.1441H10.7516C10.6913 15.1441 10.6424 15.0952 10.6424 15.0349V14.9321ZM10.6193 14.5152C10.6193 14.4696 10.5824 14.4327 10.5368 14.4327C10.4818 14.4327 10.4202 14.4349 10.352 14.4393C10.2838 14.4437 10.2189 14.4547 10.1573 14.4724C10.0979 14.4878 10.0473 14.5121 10.0055 14.5452C9.96375 14.5761 9.94285 14.6202 9.94285 14.6775C9.94285 14.715 9.95055 14.747 9.96595 14.7735C9.98354 14.7978 10.0055 14.8187 10.0319 14.8364C10.0583 14.854 10.088 14.8672 10.121 14.8761C10.154 14.8827 10.187 14.886 10.22 14.886C10.3564 14.886 10.4565 14.854 10.5203 14.79C10.5863 14.7239 10.6193 14.6345 10.6193 14.522V14.5152Z" fill="#191C1F"/>
<path d="M7.57422 13.7439C7.57422 13.64 7.65843 13.5558 7.76231 13.5558H7.83127C7.89706 13.5558 7.95039 13.6092 7.95039 13.6749V13.7899C7.95039 13.7922 7.95227 13.7941 7.95459 13.7941C7.95608 13.7941 7.95746 13.7933 7.95822 13.792C8.01529 13.696 8.09187 13.6261 8.18798 13.5823C8.28477 13.5382 8.38926 13.5161 8.50145 13.5161C8.62245 13.5161 8.73134 13.5382 8.82813 13.5823C8.92492 13.6242 9.00742 13.6827 9.07561 13.7577C9.14381 13.8327 9.1955 13.9209 9.2307 14.0224C9.2659 14.1238 9.2835 14.233 9.2835 14.35C9.2835 14.4669 9.2648 14.5761 9.2274 14.6775C9.19001 14.779 9.13721 14.8672 9.06901 14.9422C9.00302 15.0172 8.92272 15.0768 8.82813 15.1209C8.73354 15.1628 8.63014 15.1838 8.51795 15.1838C8.44316 15.1838 8.37716 15.1761 8.31997 15.1606C8.26277 15.1452 8.21217 15.1253 8.16818 15.1011C8.12418 15.0768 8.08678 15.0514 8.05598 15.025C8.02621 14.9972 8.00157 14.9705 7.98208 14.9449C7.98082 14.9432 7.97887 14.9422 7.97679 14.9422C7.97314 14.9422 7.97019 14.9452 7.97019 14.9488V15.7005C7.97019 15.8099 7.88155 15.8985 7.7722 15.8985C7.66286 15.8985 7.57422 15.8099 7.57422 15.7005V13.7439ZM8.88753 14.35C8.88753 14.2882 8.87653 14.2286 8.85453 14.1713C8.83473 14.1139 8.80393 14.0632 8.76214 14.0191C8.72254 13.9749 8.67414 13.9397 8.61695 13.9132C8.55975 13.8867 8.49485 13.8735 8.42226 13.8735C8.34966 13.8735 8.28477 13.8867 8.22757 13.9132C8.17038 13.9397 8.12088 13.9749 8.07908 14.0191C8.03949 14.0632 8.00869 14.1139 7.98669 14.1713C7.96689 14.2286 7.95699 14.2882 7.95699 14.35C7.95699 14.4117 7.96689 14.4713 7.98669 14.5286C8.00869 14.586 8.03949 14.6367 8.07908 14.6808C8.12088 14.725 8.17038 14.7603 8.22757 14.7867C8.28477 14.8132 8.34966 14.8264 8.42226 14.8264C8.49485 14.8264 8.55975 14.8132 8.61695 14.7867C8.67414 14.7603 8.72254 14.725 8.76214 14.6808C8.80393 14.6367 8.83473 14.586 8.85453 14.5286C8.87653 14.4713 8.88753 14.4117 8.88753 14.35Z" fill="#191C1F"/>
</g>
</g>
<defs>
<clipPath id="clip0_3210_79619">
<rect width="20" height="20" fill="white"/>
</clipPath>
<clipPath id="clip1_3210_79619">
<rect width="20" height="20" fill="white"/>
</clipPath>
</defs>
</svg>
