<svg width="24" height="24" viewBox="0 0 24 24" fill="none" xmlns="http://www.w3.org/2000/svg">
<g clip-path="url(#clip0_3210_79620)">
<g clip-path="url(#clip1_3210_79620)">
<path d="M0 12C0 18.6274 5.37258 24 12 24C18.6274 24 24 18.6274 24 12C24 5.37258 18.6274 0 12 0C5.37258 0 0 5.37258 0 12Z" fill="white"/>
<path d="M7.35689 7.96582C7.06226 7.96582 6.81641 8.21372 6.81641 8.51249V12.5321C6.81641 12.8247 7.06226 13.0727 7.35689 13.0727C7.65151 13.0727 7.89119 12.8248 7.89119 12.5321V8.51249C7.89119 8.21372 7.6514 7.96582 7.35689 7.96582Z" fill="#191C1F"/>
<path d="M17.3657 9.52659C17.2397 9.22174 17.0467 8.95354 16.809 8.7137C16.5713 8.4881 16.2909 8.29914 15.978 8.16913C15.6589 8.03911 15.3176 7.97399 14.9621 7.97399H13.9178C13.8873 7.96582 13.8589 7.96582 13.8284 7.96582C13.5175 7.96582 13.2656 8.21173 13.2656 8.51856V12.522C13.2656 12.8268 13.5033 13.0605 13.8061 13.0747H14.9621C15.3176 13.0747 15.6589 13.0015 15.978 12.8715C16.2888 12.7415 16.5712 12.5586 16.809 12.333C17.0467 12.0851 17.2397 11.825 17.3657 11.5121C17.4998 11.1992 17.5648 10.8719 17.5648 10.5245C17.5648 10.181 17.4998 9.83961 17.3657 9.5267V9.52659ZM16.0431 11.5628C15.7505 11.8494 15.3644 11.9957 14.9419 11.9957H14.3405V9.03886H14.9419C15.3645 9.03886 15.7505 9.19945 16.0431 9.47979C16.3356 9.75815 16.4901 10.126 16.4901 10.5223C16.4901 10.9185 16.3357 11.2843 16.0431 11.5627V11.5628Z" fill="#191C1F"/>
<path d="M14.128 6.63845L12.5412 5.0513C12.4315 4.94159 12.2852 4.88872 12.1409 4.89281C11.9967 4.88872 11.8504 4.93949 11.7407 5.0513L10.1539 6.63845C9.94261 6.84981 9.94261 7.19119 10.1539 7.40255C10.3652 7.61392 10.7065 7.61392 10.9179 7.40255L11.635 6.68525V10.9996L9.72313 8.23377C9.62768 8.06711 9.4509 7.9574 9.24775 7.9574C8.94706 7.9574 8.69922 8.20529 8.69922 8.50407V12.5196C8.69922 12.8184 8.94706 13.0663 9.24775 13.0663C9.54845 13.0663 9.79629 12.8184 9.79629 12.5196V10.0323L11.7386 12.8266C11.7386 12.8326 11.7386 12.8408 11.7468 12.849C11.8565 12.9872 12.011 13.0685 12.1856 13.0685C12.4863 13.0685 12.7281 12.8206 12.7281 12.5218V6.76847L13.364 7.40454C13.5754 7.6159 13.9167 7.6159 14.128 7.40454C14.3393 7.19318 14.3393 6.8497 14.128 6.63845Z" fill="#191C1F"/>
<path d="M7.35689 7.96582C7.06226 7.96582 6.81641 8.21372 6.81641 8.51249V12.5321C6.81641 12.8247 7.06226 13.0727 7.35689 13.0727C7.65151 13.0727 7.89119 12.8248 7.89119 12.5321V8.51249C7.89119 8.21372 7.6514 7.96582 7.35689 7.96582Z" fill="#191C1F"/>
<path d="M17.3657 9.52659C17.2397 9.22174 17.0467 8.95354 16.809 8.7137C16.5713 8.4881 16.2909 8.29914 15.978 8.16913C15.6589 8.03911 15.3176 7.97399 14.9621 7.97399H13.9178C13.8873 7.96582 13.8589 7.96582 13.8284 7.96582C13.5175 7.96582 13.2656 8.21173 13.2656 8.51856V12.522C13.2656 12.8268 13.5033 13.0605 13.8061 13.0747H14.9621C15.3176 13.0747 15.6589 13.0015 15.978 12.8715C16.2888 12.7415 16.5712 12.5586 16.809 12.333C17.0467 12.0851 17.2397 11.825 17.3657 11.5121C17.4998 11.1992 17.5648 10.8719 17.5648 10.5245C17.5648 10.181 17.4998 9.83961 17.3657 9.5267V9.52659ZM16.0431 11.5628C15.7505 11.8494 15.3644 11.9957 14.9419 11.9957H14.3405V9.03886H14.9419C15.3645 9.03886 15.7505 9.19945 16.0431 9.47979C16.3356 9.75815 16.4901 10.126 16.4901 10.5223C16.4901 10.9185 16.3357 11.2843 16.0431 11.5627V11.5628Z" fill="#191C1F"/>
<path d="M14.128 6.63845L12.5412 5.0513C12.4315 4.94159 12.2852 4.88872 12.1409 4.89281C11.9967 4.88872 11.8504 4.93949 11.7407 5.0513L10.1539 6.63845C9.94261 6.84981 9.94261 7.19119 10.1539 7.40255C10.3652 7.61392 10.7065 7.61392 10.9179 7.40255L11.635 6.68525V10.9996L9.72313 8.23377C9.62768 8.06711 9.4509 7.9574 9.24775 7.9574C8.94706 7.9574 8.69922 8.20529 8.69922 8.50407V12.5196C8.69922 12.8184 8.94706 13.0663 9.24775 13.0663C9.54845 13.0663 9.79629 12.8184 9.79629 12.5196V10.0323L11.7386 12.8266C11.7386 12.8326 11.7386 12.8408 11.7468 12.849C11.8565 12.9872 12.011 13.0685 12.1856 13.0685C12.4863 13.0685 12.7281 12.8206 12.7281 12.5218V6.76847L13.364 7.40454C13.5754 7.6159 13.9167 7.6159 14.128 7.40454C14.3393 7.19318 14.3393 6.8497 14.128 6.63845Z" fill="#191C1F"/>
<path d="M7.72447 18.3711C7.72447 18.2006 7.61928 18.0613 7.43354 18.0613C7.26096 18.0613 7.13768 18.1957 7.13768 18.3711C7.13768 18.5465 7.26096 18.6793 7.43354 18.6793C7.61928 18.6793 7.72447 18.5416 7.72447 18.3711ZM7.03906 18.7055V17.5646C7.03906 17.5121 7.07687 17.5039 7.09495 17.5039C7.11303 17.5039 7.15083 17.5121 7.15083 17.5646V18.1203H7.15412C7.21987 18.0203 7.33492 17.9678 7.44505 17.9678C7.68502 17.9678 7.84282 18.1449 7.84282 18.3711C7.84282 18.5973 7.68502 18.7744 7.44505 18.7744C7.33492 18.7744 7.21987 18.7219 7.15412 18.6252H7.15083V18.7055C7.15083 18.758 7.11303 18.7662 7.09495 18.7662C7.07687 18.7662 7.03906 18.758 7.03906 18.7055Z" fill="#191C1F"/>
<path d="M8.69049 18.058L8.32724 18.9531C8.27957 19.0711 8.21875 19.1481 8.08562 19.1481C8.06589 19.1481 8.03795 19.1465 8.01987 19.1416C7.99193 19.1334 7.97878 19.1154 7.97878 19.0924C7.97878 19.0662 7.9985 19.0449 8.02644 19.0449C8.03466 19.0449 8.04288 19.0465 8.05274 19.0482C8.06589 19.0498 8.07247 19.0498 8.08069 19.0498C8.15465 19.0498 8.1941 19.0006 8.22697 18.9137L8.28943 18.7531L7.98371 18.0613C7.97878 18.0482 7.97713 18.0383 7.97713 18.0301C7.97713 17.999 8.00343 17.976 8.03466 17.976C8.05274 17.976 8.07575 17.9826 8.09055 18.0203L8.34696 18.635H8.35025L8.58529 18.0203C8.59844 17.9842 8.62145 17.976 8.63953 17.976C8.67241 17.976 8.69706 17.999 8.69706 18.0285C8.69706 18.035 8.69542 18.0449 8.69049 18.058Z" fill="#191C1F"/>
<path d="M9.4832 17.6957V18.6531C9.4832 18.7514 9.41416 18.7695 9.37964 18.7695C9.34513 18.7695 9.27609 18.7514 9.27609 18.6531V17.6957C9.27609 17.5973 9.34513 17.5793 9.37964 17.5793C9.41416 17.5793 9.4832 17.5973 9.4832 17.6957Z" fill="#191C1F"/>
<path d="M10.4911 18.6744L9.95037 17.9301H9.94708V18.6531C9.94708 18.7514 9.87805 18.7695 9.84353 18.7695C9.80901 18.7695 9.73998 18.7514 9.73998 18.6531V17.7301C9.73998 17.6023 9.82874 17.5793 9.86983 17.5793C9.91585 17.5793 9.96023 17.599 10.0145 17.6744L10.5552 18.417H10.5585V17.6957C10.5585 17.5973 10.6276 17.5793 10.6621 17.5793C10.6966 17.5793 10.7656 17.5973 10.7656 17.6957V18.6186C10.7656 18.7465 10.6769 18.7695 10.6358 18.7695C10.5881 18.7695 10.547 18.7498 10.4911 18.6744Z" fill="#191C1F"/>
<path d="M11.4351 18.7547H11.1458C11.0619 18.7547 11.0225 18.7154 11.0225 18.6318V17.717C11.0225 17.6334 11.0619 17.5941 11.1458 17.5941H11.4351C11.7391 17.5941 12.0777 17.7383 12.0777 18.1744C12.0777 18.5809 11.7391 18.7547 11.4351 18.7547ZM11.2296 17.7711V18.5744H11.4022C11.6159 18.5744 11.8558 18.4875 11.8558 18.1744C11.8558 17.8416 11.6159 17.7711 11.4022 17.7711H11.2296Z" fill="#191C1F"/>
<path d="M12.2678 18.6596V18.0564C12.2678 17.9678 12.332 17.9531 12.3615 17.9531C12.3911 17.9531 12.4552 17.9678 12.4552 18.0564V18.0941H12.4585C12.493 18.017 12.5769 17.9449 12.7034 17.9449C12.8251 17.9449 12.9056 18.0055 12.95 18.0941C13.0026 17.999 13.0913 17.9449 13.2097 17.9449C13.4151 17.9449 13.5006 18.1023 13.5006 18.2629V18.6596C13.5006 18.7531 13.4349 18.7695 13.402 18.7695C13.3691 18.7695 13.3034 18.7531 13.3034 18.6596V18.3187C13.3034 18.2252 13.282 18.1088 13.1554 18.1088C13.0322 18.1088 12.9812 18.2236 12.9812 18.3252V18.6596C12.9812 18.7531 12.9155 18.7695 12.8826 18.7695C12.8497 18.7695 12.784 18.7531 12.784 18.6596V18.2793C12.784 18.1826 12.7379 18.1088 12.6377 18.1088C12.5193 18.1088 12.4651 18.217 12.4651 18.3219V18.6596C12.4651 18.7531 12.3993 18.7695 12.3665 18.7695C12.3336 18.7695 12.2678 18.7531 12.2678 18.6596Z" fill="#191C1F"/>
<path d="M14.5421 18.358C14.5421 18.6055 14.3514 18.7777 14.1131 18.7777C13.8748 18.7777 13.6841 18.6055 13.6841 18.358C13.6841 18.1105 13.8748 17.9449 14.1131 17.9449C14.3514 17.9449 14.5421 18.1105 14.5421 18.358ZM14.3416 18.358C14.3416 18.235 14.2693 18.1055 14.1131 18.1055C13.957 18.1055 13.8846 18.235 13.8846 18.358C13.8846 18.4809 13.957 18.6137 14.1131 18.6137C14.2693 18.6137 14.3416 18.4809 14.3416 18.358Z" fill="#191C1F"/>
<path d="M14.7334 18.6596V18.0564C14.7334 17.9678 14.7975 17.9531 14.827 17.9531C14.8566 17.9531 14.9207 17.9678 14.9207 18.0564V18.0941H14.924C14.9585 18.0154 15.0522 17.9449 15.1689 17.9449C15.3744 17.9449 15.4599 18.1023 15.4599 18.2629V18.6596C15.4599 18.7531 15.3941 18.7695 15.3612 18.7695C15.3284 18.7695 15.2626 18.7531 15.2626 18.6596V18.3187C15.2626 18.2252 15.2412 18.1088 15.1147 18.1088C14.9898 18.1088 14.9306 18.217 14.9306 18.3219V18.6596C14.9306 18.7531 14.8648 18.7695 14.832 18.7695C14.7991 18.7695 14.7334 18.7531 14.7334 18.6596Z" fill="#191C1F"/>
<path d="M16.3376 18.4236H15.8412C15.8495 18.535 15.9514 18.617 16.0664 18.617C16.1486 18.617 16.1979 18.5908 16.2472 18.5498C16.2752 18.5268 16.2932 18.5219 16.3146 18.5219C16.359 18.5219 16.3935 18.5531 16.3935 18.6006C16.3935 18.617 16.3869 18.6465 16.3606 18.6711C16.2834 18.7449 16.1946 18.7777 16.0681 18.7777C15.8248 18.7777 15.644 18.6219 15.644 18.3662C15.644 18.1121 15.8232 17.9449 16.0615 17.9449C16.2522 17.9449 16.4067 18.0531 16.4379 18.2842C16.4395 18.3006 16.4412 18.3121 16.4412 18.3252C16.4412 18.3941 16.4034 18.4236 16.3376 18.4236ZM15.8412 18.2826H16.2456C16.2456 18.1809 16.188 18.0924 16.0598 18.0924C15.9431 18.0924 15.8495 18.1728 15.8412 18.2826Z" fill="#191C1F"/>
<path d="M17.3242 18.0957L16.9856 18.9236C16.9264 19.0678 16.8557 19.1481 16.6864 19.1481C16.6026 19.1481 16.578 19.099 16.578 19.0596C16.578 19.0203 16.6043 18.9859 16.6437 18.9793C16.6536 18.9777 16.6618 18.9777 16.6749 18.9777C16.7275 18.9777 16.7785 18.9449 16.8146 18.8547L16.8541 18.7547L16.5566 18.1023C16.5467 18.0793 16.5434 18.058 16.5434 18.0449C16.5434 17.9941 16.5845 17.9531 16.6421 17.9531C16.6766 17.9531 16.7144 17.9678 16.7407 18.0301L16.9544 18.54H16.9576L17.1417 18.035C17.1664 17.9678 17.2058 17.9531 17.2387 17.9531C17.2946 17.9531 17.3357 17.9891 17.3357 18.0416C17.3357 18.0531 17.334 18.0695 17.3242 18.0957Z" fill="#191C1F"/>
<path d="M13.7951 14.3024C13.7366 14.164 13.8382 14.0107 13.9885 14.0107C14.0742 14.0107 14.1514 14.0629 14.1833 14.1425L14.5947 15.1676C14.5955 15.1696 14.5973 15.1708 14.5994 15.1708C14.6015 15.1708 14.6034 15.1695 14.6041 15.1675L14.9721 14.1435C15.0007 14.0639 15.0763 14.0107 15.1609 14.0107C15.302 14.0107 15.399 14.1525 15.348 14.284L14.6655 16.0417C14.6354 16.1207 14.6018 16.1892 14.5647 16.2473C14.53 16.3076 14.4883 16.3576 14.4396 16.3971C14.391 16.4389 14.3331 16.4691 14.2659 16.4876C14.2011 16.5085 14.1223 16.519 14.0297 16.519C13.9744 16.519 13.9197 16.5154 13.8656 16.5082C13.7758 16.4963 13.7194 16.4098 13.7319 16.32L13.7478 16.2046C13.7552 16.1511 13.8101 16.1182 13.8629 16.1288C13.9 16.1381 13.9371 16.1428 13.9741 16.1428C14.0251 16.1428 14.0679 16.1381 14.1027 16.1288C14.1374 16.1195 14.1664 16.1044 14.1895 16.0835C14.215 16.065 14.2358 16.0394 14.252 16.0069C14.2683 15.9767 14.2856 15.9395 14.3042 15.8954C14.3389 15.8091 14.3563 15.7659 14.3596 15.7209C14.3608 15.705 14.3606 15.6891 14.3592 15.6732C14.3551 15.6282 14.337 15.5854 14.3008 15.4997L13.7951 14.3024Z" fill="#191C1F"/>
<path d="M13.0753 15.4605C13.0753 15.4568 13.0723 15.4538 13.0685 15.4538C13.0662 15.4538 13.0641 15.455 13.0629 15.4569C13.0029 15.5505 12.9272 15.6192 12.8356 15.6628C12.7429 15.7046 12.641 15.7255 12.5298 15.7255C12.4534 15.7255 12.3781 15.715 12.304 15.6941C12.2322 15.6732 12.1674 15.6419 12.1095 15.6001C12.0539 15.5583 12.0087 15.506 11.974 15.4433C11.9392 15.3806 11.9219 15.3075 11.9219 15.2239C11.9219 15.1333 11.9381 15.0566 11.9705 14.9939C12.0029 14.9289 12.0458 14.8755 12.0991 14.8337C12.1546 14.7896 12.2183 14.7547 12.2901 14.7292C12.3619 14.7036 12.436 14.685 12.5125 14.6734C12.5912 14.6595 12.67 14.6514 12.7487 14.649C12.8275 14.6444 12.9016 14.6421 12.971 14.6421H13.03C13.055 14.6421 13.0753 14.6218 13.0753 14.5968C13.0753 14.4923 13.0394 14.4145 12.9676 14.3634C12.8958 14.31 12.8043 14.2833 12.6931 14.2833C12.6051 14.2833 12.5229 14.2995 12.4465 14.332C12.4208 14.3422 12.3963 14.3536 12.373 14.3664C12.2976 14.4076 12.1999 14.4087 12.1392 14.3479C12.0784 14.2869 12.0769 14.1868 12.1472 14.137C12.2103 14.0925 12.2787 14.0576 12.3527 14.0324C12.4777 13.9906 12.6063 13.9697 12.7383 13.9697C12.8564 13.9697 12.956 13.9837 13.0371 14.0115C13.1181 14.0371 13.1853 14.0708 13.2386 14.1126C13.2918 14.1544 13.3324 14.2031 13.3601 14.2589C13.3903 14.3123 13.4111 14.3669 13.4227 14.4226C13.4366 14.4783 13.4447 14.5329 13.447 14.5863C13.4493 14.6374 13.4505 14.6827 13.4505 14.7222V15.4961C13.4505 15.5997 13.3665 15.6837 13.2629 15.6837H13.1902C13.1267 15.6837 13.0753 15.6322 13.0753 15.5687V15.4605ZM13.051 15.0216C13.051 14.9736 13.0121 14.9347 12.9641 14.9347C12.9062 14.9347 12.8413 14.937 12.7696 14.9417C12.6978 14.9463 12.6294 14.9579 12.5646 14.9765C12.502 14.9928 12.4488 15.0183 12.4048 15.0532C12.3608 15.0857 12.3388 15.1321 12.3388 15.1925C12.3388 15.232 12.3469 15.2657 12.3631 15.2935C12.3816 15.3191 12.4048 15.3411 12.4326 15.3597C12.4604 15.3783 12.4916 15.3922 12.5264 15.4015C12.5611 15.4085 12.5958 15.412 12.6306 15.412C12.7742 15.412 12.8796 15.3783 12.9467 15.3109C13.0162 15.2413 13.051 15.1472 13.051 15.0288V15.0216Z" fill="#191C1F"/>
<path d="M9.84375 14.2096C9.84375 14.1002 9.93241 14.0115 10.0418 14.0115H10.1144C10.1836 14.0115 10.2398 14.0677 10.2398 14.1369V14.2579C10.2398 14.2604 10.2418 14.2624 10.2442 14.2624C10.2458 14.2624 10.2472 14.2615 10.248 14.2602C10.3081 14.1591 10.3887 14.0855 10.4899 14.0394C10.5918 13.993 10.7018 13.9697 10.82 13.9697C10.9473 13.9697 11.062 13.993 11.1639 14.0394C11.2658 14.0835 11.3527 14.1451 11.4245 14.224C11.4963 14.303 11.5507 14.3959 11.5877 14.5027C11.6248 14.6096 11.6433 14.7245 11.6433 14.8476C11.6433 14.9707 11.6236 15.0857 11.5843 15.1925C11.5449 15.2993 11.4893 15.3922 11.4175 15.4712C11.348 15.5502 11.2635 15.6129 11.1639 15.6593C11.0643 15.7034 10.9555 15.7255 10.8373 15.7255C10.7586 15.7255 10.6891 15.7174 10.6289 15.7011C10.5687 15.6849 10.5154 15.664 10.4691 15.6384C10.4228 15.6129 10.3834 15.5862 10.351 15.5583C10.3196 15.5291 10.2937 15.501 10.2732 15.474C10.2718 15.4722 10.2698 15.4712 10.2676 15.4712C10.2637 15.4712 10.2606 15.4743 10.2606 15.4781V16.2695C10.2606 16.3847 10.1673 16.478 10.0522 16.478C9.93707 16.478 9.84375 16.3847 9.84375 16.2695V14.2096ZM11.2264 14.8476C11.2264 14.7826 11.2149 14.7199 11.1917 14.6595C11.1708 14.5991 11.1384 14.5457 11.0944 14.4992C11.0527 14.4528 11.0018 14.4156 10.9416 14.3878C10.8813 14.3599 10.813 14.346 10.7366 14.346C10.6602 14.346 10.5918 14.3599 10.5316 14.3878C10.4714 14.4156 10.4193 14.4528 10.3753 14.4992C10.3336 14.5457 10.3012 14.5991 10.278 14.6595C10.2572 14.7199 10.2467 14.7826 10.2467 14.8476C10.2467 14.9126 10.2572 14.9753 10.278 15.0357C10.3012 15.0961 10.3336 15.1495 10.3753 15.196C10.4193 15.2424 10.4714 15.2796 10.5316 15.3075C10.5918 15.3353 10.6602 15.3493 10.7366 15.3493C10.813 15.3493 10.8813 15.3353 10.9416 15.3075C11.0018 15.2796 11.0527 15.2424 11.0944 15.196C11.1384 15.1495 11.1708 15.0961 11.1917 15.0357C11.2149 14.9753 11.2264 14.9126 11.2264 14.8476Z" fill="#191C1F"/>
</g>
</g>
<defs>
<clipPath id="clip0_3210_79620">
<rect width="24" height="24" fill="white"/>
</clipPath>
<clipPath id="clip1_3210_79620">
<rect width="24" height="24" fill="white"/>
</clipPath>
</defs>
</svg>
