<svg width="40" height="40" viewBox="0 0 40 40" fill="none" xmlns="http://www.w3.org/2000/svg">
<g clip-path="url(#clip0_3210_79612)">
<g clip-path="url(#clip1_3210_79612)">
<path d="M0 20C0 31.0457 8.95431 40 20 40C31.0457 40 40 31.0457 40 20C40 8.95431 31.0457 0 20 0C8.95431 0 0 8.95431 0 20Z" fill="white"/>
<path d="M12.2641 13.3076C11.773 13.3076 11.3633 13.7208 11.3633 14.2187V20.9181C11.3633 21.4058 11.773 21.8191 12.2641 21.8191C12.7551 21.8191 13.1546 21.406 13.1546 20.9181V14.2187C13.1546 13.7208 12.7549 13.3076 12.2641 13.3076Z" fill="#191C1F"/>
<path d="M28.9428 15.9089C28.7328 15.4008 28.4111 14.9538 28.015 14.5541C27.6188 14.1781 27.1515 13.8632 26.6299 13.6465C26.0982 13.4298 25.5294 13.3212 24.9368 13.3212H23.1963C23.1455 13.3076 23.0981 13.3076 23.0473 13.3076C22.5292 13.3076 22.1094 13.7175 22.1094 14.2289V20.9012C22.1094 21.4093 22.5055 21.7987 23.0102 21.8224H24.9368C25.5294 21.8224 26.0982 21.7005 26.6299 21.4838C27.148 21.2671 27.6186 20.9623 28.015 20.5863C28.4111 20.1731 28.7328 19.7395 28.9428 19.218C29.1663 18.6965 29.2746 18.1511 29.2746 17.572C29.2746 16.9996 29.1663 16.4306 28.9428 15.9091V15.9089ZM26.7384 19.3027C26.2509 19.7802 25.6074 20.0241 24.9032 20.0241H23.9009V15.096H24.9032C25.6076 15.096 26.2509 15.3637 26.7384 15.8309C27.226 16.2948 27.4835 16.908 27.4835 17.5683C27.4835 18.2287 27.2262 18.8384 26.7384 19.3025V19.3027Z" fill="#191C1F"/>
<path d="M23.5518 11.0953L20.9072 8.45008C20.7244 8.26723 20.4805 8.17912 20.2401 8.18593C19.9997 8.17912 19.7559 8.26374 19.5731 8.45008L16.9284 11.0953C16.5762 11.4476 16.5762 12.0166 16.9284 12.3688C17.2806 12.7211 17.8494 12.7211 18.2016 12.3688L19.3969 11.1733V18.3639L16.2104 13.7542C16.0513 13.4764 15.7567 13.2936 15.4181 13.2936C14.917 13.2936 14.5039 13.7067 14.5039 14.2047V20.8973C14.5039 21.3952 14.917 21.8084 15.4181 21.8084C15.9193 21.8084 16.3324 21.3952 16.3324 20.8973V16.7517L19.5696 21.4089C19.5696 21.419 19.5696 21.4326 19.5832 21.4462C19.766 21.6765 20.0235 21.8121 20.3146 21.8121C20.8158 21.8121 21.2187 21.3989 21.2187 20.901V11.312L22.2786 12.3722C22.6308 12.7244 23.1996 12.7244 23.5518 12.3722C23.904 12.0199 23.904 11.4474 23.5518 11.0953Z" fill="#191C1F"/>
<path d="M12.2641 13.3076C11.773 13.3076 11.3633 13.7208 11.3633 14.2187V20.9181C11.3633 21.4058 11.773 21.8191 12.2641 21.8191C12.7551 21.8191 13.1546 21.406 13.1546 20.9181V14.2187C13.1546 13.7208 12.7549 13.3076 12.2641 13.3076Z" fill="#191C1F"/>
<path d="M28.9428 15.9089C28.7328 15.4008 28.4111 14.9538 28.015 14.5541C27.6188 14.1781 27.1515 13.8632 26.6299 13.6465C26.0982 13.4298 25.5294 13.3212 24.9368 13.3212H23.1963C23.1455 13.3076 23.0981 13.3076 23.0473 13.3076C22.5292 13.3076 22.1094 13.7175 22.1094 14.2289V20.9012C22.1094 21.4093 22.5055 21.7987 23.0102 21.8224H24.9368C25.5294 21.8224 26.0982 21.7005 26.6299 21.4838C27.148 21.2671 27.6186 20.9623 28.015 20.5863C28.4111 20.1731 28.7328 19.7395 28.9428 19.218C29.1663 18.6965 29.2746 18.1511 29.2746 17.572C29.2746 16.9996 29.1663 16.4306 28.9428 15.9091V15.9089ZM26.7384 19.3027C26.2509 19.7802 25.6074 20.0241 24.9032 20.0241H23.9009V15.096H24.9032C25.6076 15.096 26.2509 15.3637 26.7384 15.8309C27.226 16.2948 27.4835 16.908 27.4835 17.5683C27.4835 18.2287 27.2262 18.8384 26.7384 19.3025V19.3027Z" fill="#191C1F"/>
<path d="M23.5518 11.0953L20.9072 8.45008C20.7244 8.26723 20.4805 8.17912 20.2401 8.18593C19.9997 8.17912 19.7559 8.26374 19.5731 8.45008L16.9284 11.0953C16.5762 11.4476 16.5762 12.0166 16.9284 12.3688C17.2806 12.7211 17.8494 12.7211 18.2016 12.3688L19.3969 11.1733V18.3639L16.2104 13.7542C16.0513 13.4764 15.7567 13.2936 15.4181 13.2936C14.917 13.2936 14.5039 13.7067 14.5039 14.2047V20.8973C14.5039 21.3952 14.917 21.8084 15.4181 21.8084C15.9193 21.8084 16.3324 21.3952 16.3324 20.8973V16.7517L19.5696 21.4089C19.5696 21.419 19.5696 21.4326 19.5832 21.4462C19.766 21.6765 20.0235 21.8121 20.3146 21.8121C20.8158 21.8121 21.2187 21.3989 21.2187 20.901V11.312L22.2786 12.3722C22.6308 12.7244 23.1996 12.7244 23.5518 12.3722C23.904 12.0199 23.904 11.4474 23.5518 11.0953Z" fill="#191C1F"/>
<path d="M12.8806 30.6289C12.8806 30.3448 12.7053 30.1125 12.3957 30.1125C12.1081 30.1125 11.9026 30.3366 11.9026 30.6289C11.9026 30.9213 12.1081 31.1426 12.3957 31.1426C12.7053 31.1426 12.8806 30.9131 12.8806 30.6289ZM11.7383 31.1863V29.2847C11.7383 29.1973 11.8013 29.1836 11.8314 29.1836C11.8616 29.1836 11.9246 29.1973 11.9246 29.2847V30.2109H11.93C12.0396 30.0442 12.2314 29.9568 12.4149 29.9568C12.8149 29.9568 13.0779 30.2519 13.0779 30.6289C13.0779 31.006 12.8149 31.3011 12.4149 31.3011C12.2314 31.3011 12.0396 31.2136 11.93 31.0524H11.9246V31.1863C11.9246 31.2737 11.8616 31.2874 11.8314 31.2874C11.8013 31.2874 11.7383 31.2737 11.7383 31.1863Z" fill="#191C1F"/>
<path d="M14.4907 30.1071L13.8852 31.5989C13.8058 31.7956 13.7044 31.924 13.4825 31.924C13.4497 31.924 13.4031 31.9213 13.373 31.9131C13.3264 31.8994 13.3045 31.8694 13.3045 31.8311C13.3045 31.7874 13.3373 31.7519 13.3839 31.7519C13.3976 31.7519 13.4113 31.7546 13.4277 31.7573C13.4497 31.7601 13.4606 31.7601 13.4743 31.7601C13.5976 31.7601 13.6633 31.6781 13.7181 31.5333L13.8222 31.2655L13.3127 30.1125C13.3045 30.0907 13.3017 30.0743 13.3017 30.0606C13.3017 30.0087 13.3456 29.9705 13.3976 29.9705C13.4277 29.9705 13.4661 29.9814 13.4908 30.0442L13.9181 31.0688H13.9236L14.3153 30.0442C14.3372 29.9841 14.3756 29.9705 14.4057 29.9705C14.4605 29.9705 14.5016 30.0087 14.5016 30.0579C14.5016 30.0688 14.4989 30.0852 14.4907 30.1071Z" fill="#191C1F"/>
<path d="M15.8118 29.5033V31.0989C15.8118 31.2628 15.6968 31.2929 15.6393 31.2929C15.5817 31.2929 15.4667 31.2628 15.4667 31.0989V29.5033C15.4667 29.3393 15.5817 29.3093 15.6393 29.3093C15.6968 29.3093 15.8118 29.3393 15.8118 29.5033Z" fill="#191C1F"/>
<path d="M17.4917 31.1344L16.5905 29.894H16.585V31.0989C16.585 31.2628 16.4699 31.2929 16.4124 31.2929C16.3549 31.2929 16.2398 31.2628 16.2398 31.0989V29.5606C16.2398 29.3475 16.3877 29.3093 16.4562 29.3093C16.5329 29.3093 16.6069 29.3421 16.6973 29.4677L17.5986 30.7054H17.6041V29.5033C17.6041 29.3393 17.7191 29.3093 17.7766 29.3093C17.8342 29.3093 17.9492 29.3393 17.9492 29.5033V31.0415C17.9492 31.2546 17.8013 31.2929 17.7328 31.2929C17.6534 31.2929 17.5849 31.2601 17.4917 31.1344Z" fill="#191C1F"/>
<path d="M19.0649 31.2683H18.5828C18.4431 31.2683 18.3773 31.2027 18.3773 31.0634V29.5388C18.3773 29.3994 18.4431 29.3339 18.5828 29.3339H19.0649C19.5717 29.3339 20.1361 29.5743 20.1361 30.3011C20.1361 30.9787 19.5717 31.2683 19.0649 31.2683ZM18.7225 29.6289V30.9677H19.0101C19.3663 30.9677 19.7662 30.8229 19.7662 30.3011C19.7662 29.7464 19.3663 29.6289 19.0101 29.6289H18.7225Z" fill="#191C1F"/>
<path d="M20.4529 31.1098V30.1043C20.4529 29.9568 20.5598 29.9322 20.6091 29.9322C20.6584 29.9322 20.7652 29.9568 20.7652 30.1043V30.1672H20.7707C20.8282 30.0388 20.9679 29.9186 21.1789 29.9186C21.3816 29.9186 21.5158 30.0196 21.5898 30.1672C21.6775 30.0087 21.8254 29.9186 22.0226 29.9186C22.3651 29.9186 22.5075 30.1808 22.5075 30.4486V31.1098C22.5075 31.2655 22.3979 31.2929 22.3431 31.2929C22.2884 31.2929 22.1788 31.2655 22.1788 31.1098V30.5415C22.1788 30.3858 22.1432 30.1918 21.9322 30.1918C21.7268 30.1918 21.6418 30.383 21.6418 30.5524V31.1098C21.6418 31.2655 21.5323 31.2929 21.4775 31.2929C21.4227 31.2929 21.3131 31.2655 21.3131 31.1098V30.4759C21.3131 30.3147 21.2364 30.1918 21.0693 30.1918C20.8721 30.1918 20.7817 30.3721 20.7817 30.547V31.1098C20.7817 31.2655 20.6721 31.2929 20.6173 31.2929C20.5625 31.2929 20.4529 31.2655 20.4529 31.1098Z" fill="#191C1F"/>
<path d="M24.2434 30.6071C24.2434 31.0196 23.9256 31.3065 23.5284 31.3065C23.1311 31.3065 22.8134 31.0196 22.8134 30.6071C22.8134 30.1945 23.1311 29.9186 23.5284 29.9186C23.9256 29.9186 24.2434 30.1945 24.2434 30.6071ZM23.9091 30.6071C23.9091 30.4022 23.7886 30.1863 23.5284 30.1863C23.2681 30.1863 23.1476 30.4022 23.1476 30.6071C23.1476 30.812 23.2681 31.0333 23.5284 31.0333C23.7886 31.0333 23.9091 30.812 23.9091 30.6071Z" fill="#191C1F"/>
<path d="M24.5621 31.1098V30.1043C24.5621 29.9568 24.6689 29.9322 24.7182 29.9322C24.7676 29.9322 24.8744 29.9568 24.8744 30.1043V30.1672H24.8799C24.9374 30.036 25.0935 29.9186 25.288 29.9186C25.6305 29.9186 25.7729 30.1808 25.7729 30.4486V31.1098C25.7729 31.2655 25.6634 31.2929 25.6086 31.2929C25.5538 31.2929 25.4442 31.2655 25.4442 31.1098V30.5415C25.4442 30.3858 25.4086 30.1918 25.1976 30.1918C24.9894 30.1918 24.8908 30.3721 24.8908 30.547V31.1098C24.8908 31.2655 24.7813 31.2929 24.7265 31.2929C24.6717 31.2929 24.5621 31.2655 24.5621 31.1098Z" fill="#191C1F"/>
<path d="M27.2359 30.7164H26.4086C26.4223 30.9022 26.5921 31.0388 26.7839 31.0388C26.9208 31.0388 27.003 30.995 27.0852 30.9267C27.1318 30.8885 27.1619 30.8803 27.1975 30.8803C27.2715 30.8803 27.329 30.9322 27.329 31.0114C27.329 31.0388 27.3181 31.0879 27.2742 31.1289C27.1455 31.2519 26.9975 31.3065 26.7866 31.3065C26.3812 31.3065 26.0798 31.047 26.0798 30.6207C26.0798 30.1972 26.3784 29.9186 26.7757 29.9186C27.0934 29.9186 27.3509 30.0989 27.403 30.4841C27.4057 30.5114 27.4085 30.5306 27.4085 30.5524C27.4085 30.6672 27.3455 30.7164 27.2359 30.7164ZM26.4086 30.4814H27.0825C27.0825 30.312 26.9866 30.1645 26.7729 30.1645C26.5784 30.1645 26.4223 30.2983 26.4086 30.4814Z" fill="#191C1F"/>
<path d="M28.8801 30.1699L28.3158 31.5497C28.2172 31.7901 28.0994 31.924 27.8172 31.924C27.6775 31.924 27.6364 31.842 27.6364 31.7765C27.6364 31.7109 27.6803 31.6535 27.746 31.6426C27.7625 31.6398 27.7761 31.6398 27.7981 31.6398C27.8857 31.6398 27.9706 31.5852 28.0309 31.4349L28.0967 31.2683L27.6008 30.1808C27.5844 30.1426 27.5789 30.1071 27.5789 30.0852C27.5789 30.0005 27.6474 29.9322 27.7433 29.9322C27.8008 29.9322 27.8638 29.9568 27.9076 30.0606L28.2638 30.9103H28.2693L28.5761 30.0688C28.6172 29.9568 28.6829 29.9322 28.7377 29.9322C28.8308 29.9322 28.8993 29.9923 28.8993 30.0798C28.8993 30.0989 28.8966 30.1262 28.8801 30.1699Z" fill="#191C1F"/>
<path d="M22.9905 23.8386C22.893 23.6079 23.0624 23.3525 23.3128 23.3525C23.4558 23.3525 23.5843 23.4395 23.6376 23.5721L24.3232 25.2807C24.3245 25.2839 24.3276 25.286 24.331 25.286C24.3346 25.286 24.3377 25.2838 24.3389 25.2804L24.9522 23.5739C24.9999 23.4411 25.1258 23.3525 25.2669 23.3525C25.502 23.3525 25.6638 23.5888 25.5786 23.808L24.4411 26.7375C24.391 26.8691 24.335 26.9833 24.2732 27.0801C24.2153 27.1807 24.1458 27.2639 24.0648 27.3297C23.9837 27.3994 23.8872 27.4497 23.7753 27.4807C23.6672 27.5155 23.5359 27.533 23.3815 27.533C23.2894 27.533 23.1982 27.527 23.1081 27.515C22.9583 27.4951 22.8644 27.3509 22.8851 27.2013L22.9118 27.0089C22.9241 26.9199 23.0155 26.865 23.1036 26.8827C23.1654 26.8982 23.2271 26.9059 23.2889 26.9059C23.3738 26.9059 23.4452 26.8982 23.5031 26.8827C23.561 26.8672 23.6093 26.842 23.6479 26.8072C23.6903 26.7762 23.7251 26.7336 23.7521 26.6795C23.7791 26.6291 23.8081 26.5672 23.839 26.4937C23.8969 26.3498 23.9258 26.2778 23.9314 26.2028C23.9333 26.1763 23.9331 26.1497 23.9307 26.1233C23.9238 26.0484 23.8937 25.977 23.8333 25.8341L22.9905 23.8386Z" fill="#191C1F"/>
<path d="M21.7895 25.7688C21.7895 25.7626 21.7845 25.7576 21.7783 25.7576C21.7745 25.7576 21.7709 25.7596 21.7688 25.7628C21.669 25.9188 21.5427 26.0332 21.39 26.106C21.2356 26.1756 21.0657 26.2105 20.8805 26.2105C20.7531 26.2105 20.6276 26.1931 20.5041 26.1582C20.3844 26.1234 20.2764 26.0711 20.1799 26.0014C20.0872 25.9318 20.0119 25.8447 19.954 25.7402C19.8961 25.6357 19.8672 25.5137 19.8672 25.3744C19.8672 25.2234 19.8942 25.0957 19.9482 24.9912C20.0023 24.8828 20.0737 24.7938 20.1625 24.7241C20.2551 24.6506 20.3613 24.5925 20.4809 24.5499C20.6006 24.5073 20.7241 24.4764 20.8515 24.457C20.9828 24.4338 21.114 24.4202 21.2452 24.4164C21.3765 24.4086 21.5 24.4048 21.6158 24.4048H21.714C21.7557 24.4048 21.7895 24.371 21.7895 24.3293C21.7895 24.1551 21.7297 24.0254 21.61 23.9403C21.4904 23.8512 21.3379 23.8067 21.1526 23.8067C21.0059 23.8067 20.8689 23.8338 20.7415 23.888C20.6987 23.9049 20.6579 23.924 20.619 23.9453C20.4934 24.014 20.3305 24.0158 20.2294 23.9145C20.128 23.8128 20.1256 23.6459 20.2428 23.563C20.3478 23.4888 20.4619 23.4307 20.5852 23.3887C20.7936 23.319 21.0078 23.2842 21.2279 23.2842C21.4247 23.2842 21.5907 23.3074 21.7258 23.3539C21.8609 23.3964 21.9729 23.4526 22.0616 23.5222C22.1504 23.5919 22.218 23.6732 22.2643 23.7661C22.3145 23.8551 22.3492 23.9461 22.3685 24.039C22.3917 24.1319 22.4052 24.2228 22.4091 24.3119C22.4129 24.397 22.4148 24.4725 22.4148 24.5383V25.8281C22.4148 26.0008 22.2749 26.1408 22.1022 26.1408H21.9811C21.8753 26.1408 21.7895 26.055 21.7895 25.9492V25.7688ZM21.749 25.0372C21.749 24.9573 21.6842 24.8925 21.6042 24.8925C21.5077 24.8925 21.3996 24.8963 21.28 24.9041C21.1603 24.9118 21.0464 24.9312 20.9384 24.9622C20.8341 24.9892 20.7454 25.0318 20.672 25.0899C20.5987 25.1441 20.562 25.2215 20.562 25.3221C20.562 25.3879 20.5755 25.4441 20.6025 25.4905C20.6334 25.5331 20.672 25.5699 20.7183 25.6008C20.7647 25.6318 20.8168 25.655 20.8747 25.6705C20.9326 25.6821 20.9905 25.6879 21.0484 25.6879C21.2877 25.6879 21.4633 25.6318 21.5753 25.5195C21.6911 25.4034 21.749 25.2467 21.749 25.0492V25.0372Z" fill="#191C1F"/>
<path d="M16.4062 23.6839C16.4062 23.5016 16.554 23.3539 16.7363 23.3539H16.8573C16.9727 23.3539 17.0663 23.4474 17.0663 23.5629V23.7645C17.0663 23.7686 17.0696 23.7719 17.0737 23.7719C17.0763 23.7719 17.0787 23.7705 17.0801 23.7683C17.1802 23.5998 17.3146 23.4772 17.4832 23.4003C17.6531 23.3229 17.8364 23.2842 18.0333 23.2842C18.2456 23.2842 18.4367 23.3229 18.6065 23.4003C18.7763 23.4738 18.9211 23.5764 19.0408 23.708C19.1604 23.8396 19.2511 23.9945 19.3129 24.1725C19.3747 24.3506 19.4055 24.5422 19.4055 24.7473C19.4055 24.9525 19.3727 25.1441 19.3071 25.3221C19.2415 25.5002 19.1488 25.655 19.0292 25.7866C18.9134 25.9182 18.7725 26.0227 18.6065 26.1002C18.4405 26.1737 18.2591 26.2105 18.0622 26.2105C17.931 26.2105 17.8152 26.1969 17.7148 26.1698C17.6145 26.1427 17.5257 26.1079 17.4485 26.0653C17.3713 26.0227 17.3057 25.9782 17.2516 25.9318C17.1994 25.8831 17.1561 25.8363 17.1219 25.7913C17.1197 25.7883 17.1163 25.7866 17.1126 25.7866C17.1062 25.7866 17.1011 25.7918 17.1011 25.7982V27.1172C17.1011 27.3091 16.9455 27.4646 16.7537 27.4646C16.5618 27.4646 16.4062 27.3091 16.4062 27.1172V23.6839ZM18.7107 24.7473C18.7107 24.6389 18.6914 24.5344 18.6528 24.4338C18.6181 24.3332 18.564 24.2441 18.4907 24.1667C18.4212 24.0893 18.3363 24.0274 18.2359 23.9809C18.1356 23.9345 18.0217 23.9112 17.8943 23.9112C17.7669 23.9112 17.6531 23.9345 17.5527 23.9809C17.4523 24.0274 17.3655 24.0893 17.2921 24.1667C17.2227 24.2441 17.1686 24.3332 17.13 24.4338C17.0953 24.5344 17.0779 24.6389 17.0779 24.7473C17.0779 24.8557 17.0953 24.9602 17.13 25.0609C17.1686 25.1615 17.2227 25.2505 17.2921 25.3279C17.3655 25.4054 17.4523 25.4673 17.5527 25.5137C17.6531 25.5602 17.7669 25.5834 17.8943 25.5834C18.0217 25.5834 18.1356 25.5602 18.2359 25.5137C18.3363 25.4673 18.4212 25.4054 18.4907 25.3279C18.564 25.2505 18.6181 25.1615 18.6528 25.0609C18.6914 24.9602 18.7107 24.8557 18.7107 24.7473Z" fill="#191C1F"/>
</g>
</g>
<defs>
<clipPath id="clip0_3210_79612">
<rect width="40" height="40" fill="white"/>
</clipPath>
<clipPath id="clip1_3210_79612">
<rect width="40" height="40" fill="white"/>
</clipPath>
</defs>
</svg>
