<svg width="12" height="12" viewBox="0 0 12 12" fill="none" xmlns="http://www.w3.org/2000/svg">
<g clip-path="url(#clip0_3210_79617)">
<g clip-path="url(#clip1_3210_79617)">
<path d="M0 6C0 9.31371 2.68629 12 6 12C9.31371 12 12 9.31371 12 6C12 2.68629 9.31371 0 6 0C2.68629 0 0 2.68629 0 6Z" fill="white"/>
<path d="M3.18742 4.40112C3.00646 4.40112 2.85547 4.55337 2.85547 4.73687V7.20561C2.85547 7.38531 3.00646 7.53763 3.18742 7.53763C3.36837 7.53763 3.51557 7.38538 3.51557 7.20561V4.73687C3.51557 4.55337 3.3683 4.40112 3.18742 4.40112Z" fill="#191C1F"/>
<path d="M9.33454 5.3597C9.25714 5.17247 9.13861 5.00775 8.99263 4.86045C8.84665 4.72189 8.67444 4.60584 8.48224 4.52599C8.28631 4.44613 8.07669 4.40614 7.85833 4.40614H7.21694C7.19823 4.40112 7.18075 4.40112 7.16204 4.40112C6.97113 4.40112 6.81641 4.55215 6.81641 4.7406V7.19937C6.81641 7.3866 6.96239 7.53011 7.14835 7.53885H7.85833C8.07669 7.53885 8.28631 7.49391 8.48224 7.41406C8.67315 7.3342 8.84658 7.22188 8.99263 7.08332C9.13861 6.93107 9.25714 6.7713 9.33454 6.57912C9.41688 6.38695 9.4568 6.18596 9.4568 5.97256C9.4568 5.76161 9.41688 5.55194 9.33454 5.35977V5.3597ZM8.52222 6.6103C8.34256 6.78628 8.10543 6.87617 7.84593 6.87617H7.47657V5.06015H7.84593C8.10549 5.06015 8.34256 5.15878 8.52222 5.33096C8.70189 5.50192 8.79677 5.72785 8.79677 5.97121C8.79677 6.21456 8.70195 6.43921 8.52222 6.61024V6.6103Z" fill="#191C1F"/>
<path d="M7.34589 3.58593L6.37133 2.61115C6.30397 2.54377 6.2141 2.5113 6.12552 2.51381C6.03694 2.5113 5.94708 2.54249 5.87971 2.61115L4.90516 3.58593C4.77537 3.71574 4.77537 3.92541 4.90516 4.05522C5.03494 4.18503 5.24456 4.18503 5.37434 4.05522L5.81479 3.61467V6.2644L4.64057 4.56573C4.58195 4.46337 4.47338 4.39599 4.34861 4.39599C4.16393 4.39599 4.01172 4.54824 4.01172 4.73174V7.19797C4.01172 7.38147 4.16393 7.53372 4.34861 7.53372C4.53329 7.53372 4.68551 7.38147 4.68551 7.19797V5.67032L5.87843 7.38648C5.87843 7.39021 5.87843 7.39523 5.88344 7.40024C5.95081 7.48511 6.04569 7.53507 6.15297 7.53507C6.33765 7.53507 6.48614 7.38282 6.48614 7.19932V3.66579L6.87671 4.05644C7.00649 4.18625 7.21611 4.18625 7.34589 4.05644C7.47567 3.92663 7.47567 3.71568 7.34589 3.58593Z" fill="#191C1F"/>
<path d="M3.18742 4.40112C3.00646 4.40112 2.85547 4.55337 2.85547 4.73687V7.20561C2.85547 7.38531 3.00646 7.53763 3.18742 7.53763C3.36837 7.53763 3.51557 7.38538 3.51557 7.20561V4.73687C3.51557 4.55337 3.3683 4.40112 3.18742 4.40112Z" fill="#191C1F"/>
<path d="M9.33454 5.3597C9.25714 5.17247 9.13861 5.00775 8.99263 4.86045C8.84665 4.72189 8.67444 4.60584 8.48224 4.52599C8.28631 4.44613 8.07669 4.40614 7.85833 4.40614H7.21694C7.19823 4.40112 7.18075 4.40112 7.16204 4.40112C6.97113 4.40112 6.81641 4.55215 6.81641 4.7406V7.19937C6.81641 7.3866 6.96239 7.53011 7.14835 7.53885H7.85833C8.07669 7.53885 8.28631 7.49391 8.48224 7.41406C8.67315 7.3342 8.84658 7.22188 8.99263 7.08332C9.13861 6.93107 9.25714 6.7713 9.33454 6.57912C9.41688 6.38695 9.4568 6.18596 9.4568 5.97256C9.4568 5.76161 9.41688 5.55194 9.33454 5.35977V5.3597ZM8.52222 6.6103C8.34256 6.78628 8.10543 6.87617 7.84593 6.87617H7.47657V5.06015H7.84593C8.10549 5.06015 8.34256 5.15878 8.52222 5.33096C8.70189 5.50192 8.79677 5.72785 8.79677 5.97121C8.79677 6.21456 8.70195 6.43921 8.52222 6.61024V6.6103Z" fill="#191C1F"/>
<path d="M7.34589 3.58593L6.37133 2.61115C6.30397 2.54377 6.2141 2.5113 6.12552 2.51381C6.03694 2.5113 5.94708 2.54249 5.87971 2.61115L4.90516 3.58593C4.77537 3.71574 4.77537 3.92541 4.90516 4.05522C5.03494 4.18503 5.24456 4.18503 5.37434 4.05522L5.81479 3.61467V6.2644L4.64057 4.56573C4.58195 4.46337 4.47338 4.39599 4.34861 4.39599C4.16393 4.39599 4.01172 4.54824 4.01172 4.73174V7.19797C4.01172 7.38147 4.16393 7.53372 4.34861 7.53372C4.53329 7.53372 4.68551 7.38147 4.68551 7.19797V5.67032L5.87843 7.38648C5.87843 7.39021 5.87843 7.39523 5.88344 7.40024C5.95081 7.48511 6.04569 7.53507 6.15297 7.53507C6.33765 7.53507 6.48614 7.38282 6.48614 7.19932V3.66579L6.87671 4.05644C7.00649 4.18625 7.21611 4.18625 7.34589 4.05644C7.47567 3.92663 7.47567 3.71568 7.34589 3.58593Z" fill="#191C1F"/>
<path d="M6.79677 8.30244C6.76345 8.22356 6.82136 8.13623 6.90699 8.13623C6.95587 8.13623 6.99983 8.16596 7.01804 8.21132L7.25248 8.79554C7.25292 8.79663 7.25397 8.79735 7.25515 8.79735C7.25636 8.79735 7.25744 8.79659 7.25785 8.79545L7.46755 8.21191C7.48387 8.16651 7.52692 8.13623 7.57516 8.13623C7.65557 8.13623 7.71086 8.21702 7.68176 8.29197L7.2928 9.29368C7.27564 9.33868 7.25651 9.37772 7.23539 9.41081C7.21559 9.44522 7.19183 9.47368 7.16411 9.49618C7.13639 9.52001 7.1034 9.53721 7.06512 9.5478C7.02816 9.55971 6.98328 9.56567 6.93049 9.56567C6.89898 9.56567 6.86781 9.56362 6.83698 9.55952C6.78577 9.55271 6.75366 9.50343 6.76075 9.45226L6.76986 9.38649C6.77408 9.35604 6.80531 9.33727 6.83545 9.34331C6.85657 9.34861 6.87769 9.35125 6.89881 9.35125C6.92785 9.35125 6.95227 9.34861 6.97207 9.34331C6.99186 9.33802 7.00836 9.32941 7.02156 9.3175C7.03608 9.30691 7.04796 9.29235 7.0572 9.27382C7.06644 9.25662 7.07634 9.23544 7.0869 9.21029L7.08778 9.20809C7.10982 9.15334 7.12083 9.12596 7.12059 9.09723C7.12034 9.0685 7.10886 9.04132 7.0859 8.98695L6.79677 8.30244Z" fill="#191C1F"/>
<path d="M6.38388 8.96237C6.38388 8.96026 6.38216 8.95854 6.38005 8.95854C6.37873 8.95854 6.37751 8.95922 6.3768 8.96033C6.34266 9.01368 6.29948 9.05279 6.24727 9.07766C6.19447 9.10149 6.13639 9.1134 6.07304 9.1134C6.02948 9.1134 5.98658 9.10744 5.94435 9.09553C5.90343 9.08362 5.86647 9.06575 5.83347 9.04193C5.8018 9.0181 5.77606 8.98832 5.75626 8.95259C5.73646 8.91685 5.72656 8.87516 5.72656 8.82751C5.72656 8.77589 5.7358 8.73222 5.75428 8.69648C5.77276 8.65942 5.79718 8.62898 5.82754 8.60515C5.85921 8.58001 5.89551 8.56015 5.93643 8.54559C5.97734 8.53104 6.01958 8.52045 6.06314 8.51383C6.10802 8.50589 6.15289 8.50126 6.19777 8.49993C6.24265 8.49729 6.28488 8.49596 6.32448 8.49596H6.35807C6.37232 8.49596 6.38388 8.48441 6.38388 8.47015C6.38388 8.41059 6.36342 8.36625 6.3225 8.33714C6.28158 8.30669 6.22945 8.29147 6.16609 8.29147C6.11594 8.29147 6.06908 8.30074 6.02552 8.31927C6.01089 8.32505 5.99692 8.33158 5.98363 8.33885C5.94069 8.36235 5.88498 8.36297 5.85041 8.32831C5.81576 8.29356 5.81493 8.23648 5.855 8.20814C5.89091 8.18275 5.92993 8.16288 5.97207 8.14853C6.04334 8.1247 6.1166 8.11279 6.19183 8.11279C6.25915 8.11279 6.3159 8.12073 6.3621 8.13662C6.40829 8.15118 6.44657 8.17037 6.47693 8.19419C6.50729 8.21802 6.53039 8.24581 6.54622 8.27758C6.56338 8.30802 6.57526 8.33912 6.58186 8.37089C6.58978 8.40265 6.5944 8.43375 6.59572 8.4642C6.59704 8.49331 6.5977 8.51912 6.5977 8.54162V8.98266C6.5977 9.04171 6.54983 9.08958 6.49079 9.08958H6.44939C6.41321 9.08958 6.38388 9.06024 6.38388 9.02406V8.96237ZM6.37002 8.71223C6.37002 8.68489 6.34786 8.66273 6.32052 8.66273C6.28752 8.66273 6.25057 8.66405 6.20965 8.6667C6.16873 8.66935 6.12979 8.67596 6.09284 8.68655C6.0572 8.69582 6.02684 8.71038 6.00176 8.73023C5.97668 8.74876 5.96415 8.77523 5.96415 8.80964C5.96415 8.83214 5.96877 8.85134 5.978 8.86722C5.98856 8.88178 6.00176 8.89435 6.0176 8.90494C6.03344 8.91553 6.05126 8.92347 6.07106 8.92876C6.09086 8.93273 6.11066 8.93472 6.13045 8.93472C6.21229 8.93472 6.27234 8.91553 6.31062 8.87714C6.35022 8.83744 6.37002 8.78383 6.37002 8.71633V8.71223Z" fill="#191C1F"/>
<path d="M4.54297 8.24947C4.54297 8.18714 4.59349 8.13662 4.65582 8.13662H4.6972C4.73667 8.13662 4.76867 8.16862 4.76867 8.20809V8.27704C4.76867 8.27843 4.7698 8.27956 4.77119 8.27956C4.77208 8.27956 4.77291 8.27909 4.77337 8.27832C4.80761 8.22072 4.85356 8.17878 4.91122 8.1525C4.9693 8.12603 5.03199 8.11279 5.09931 8.11279C5.1719 8.11279 5.23724 8.12603 5.29532 8.1525C5.35339 8.17765 5.40289 8.21272 5.44381 8.25772C5.48472 8.30272 5.51574 8.35566 5.53686 8.41655C5.55798 8.47743 5.56854 8.54295 5.56854 8.6131C5.56854 8.68324 5.55732 8.74876 5.53488 8.80964C5.51244 8.87053 5.48076 8.92347 5.43985 8.96847C5.40025 9.01347 5.35207 9.04921 5.29532 9.07568C5.23856 9.10083 5.17652 9.1134 5.10921 9.1134C5.06433 9.1134 5.02473 9.10877 4.99042 9.0995C4.9561 9.09024 4.92574 9.07833 4.89934 9.06377C4.87295 9.04921 4.85051 9.03399 4.83203 9.0181C4.81416 9.00147 4.79938 8.98545 4.78768 8.97005C4.78693 8.96906 4.78576 8.96847 4.78451 8.96847C4.78232 8.96847 4.78055 8.97024 4.78055 8.97243V9.42344C4.78055 9.48905 4.72737 9.54223 4.66176 9.54223C4.59615 9.54223 4.54297 9.48905 4.54297 9.42344V8.24947ZM5.33095 8.6131C5.33095 8.57604 5.32435 8.5403 5.31115 8.50589C5.29928 8.47148 5.2808 8.44103 5.25572 8.41456C5.23196 8.38809 5.20292 8.36692 5.1686 8.35103C5.13429 8.33515 5.09535 8.32721 5.05179 8.32721C5.00824 8.32721 4.9693 8.33515 4.93498 8.35103C4.90066 8.36692 4.87097 8.38809 4.84589 8.41456C4.82213 8.44103 4.80365 8.47148 4.79045 8.50589C4.77857 8.5403 4.77263 8.57604 4.77263 8.6131C4.77263 8.65016 4.77857 8.68589 4.79045 8.7203C4.80365 8.75472 4.82213 8.78516 4.84589 8.81163C4.87097 8.8381 4.90066 8.85928 4.93498 8.87516C4.9693 8.89104 5.00824 8.89898 5.05179 8.89898C5.09535 8.89898 5.13429 8.89104 5.1686 8.87516C5.20292 8.85928 5.23196 8.8381 5.25572 8.81163C5.2808 8.78516 5.29928 8.75472 5.31115 8.7203C5.32435 8.68589 5.33095 8.65016 5.33095 8.6131Z" fill="#191C1F"/>
</g>
</g>
<defs>
<clipPath id="clip0_3210_79617">
<rect width="12" height="12" fill="white"/>
</clipPath>
<clipPath id="clip1_3210_79617">
<rect width="12" height="12" fill="white"/>
</clipPath>
</defs>
</svg>
