<svg width="16" height="16" viewBox="0 0 16 16" fill="none" xmlns="http://www.w3.org/2000/svg">
<g clip-path="url(#clip0_3210_79610)">
<g clip-path="url(#clip1_3210_79610)">
<path d="M0 8C0 12.4183 3.58172 16 8 16C12.4183 16 16 12.4183 16 8C16 3.58172 12.4183 0 8 0C3.58172 0 0 3.58172 0 8Z" fill="white"/>
<path d="M4.25119 5.85254C4.00992 5.85254 3.80859 6.05554 3.80859 6.30021V9.59186C3.80859 9.83146 4.00992 10.0346 4.25119 10.0346C4.49246 10.0346 4.68872 9.83155 4.68872 9.59186V6.30021C4.68872 6.05554 4.49237 5.85254 4.25119 5.85254Z" fill="#191C1F"/>
<path d="M12.4474 7.13064C12.3442 6.881 12.1861 6.66137 11.9915 6.46497C11.7968 6.28023 11.5672 6.12549 11.311 6.01902C11.0497 5.91255 10.7702 5.85923 10.4791 5.85923H9.62389C9.59895 5.85254 9.57563 5.85254 9.55069 5.85254C9.29614 5.85254 9.08984 6.05391 9.08984 6.30518V9.58354C9.08984 9.83318 9.28448 10.0245 9.53244 10.0362H10.4791C10.7702 10.0362 11.0497 9.97625 11.311 9.86978C11.5655 9.76331 11.7967 9.61355 11.9915 9.4288C12.1861 9.22581 12.3442 9.01277 12.4474 8.75654C12.5571 8.5003 12.6104 8.23232 12.6104 7.94779C12.6104 7.66652 12.5571 7.38697 12.4474 7.13073V7.13064ZM11.3643 8.79811C11.1247 9.03275 10.8085 9.1526 10.4625 9.1526H9.97006V6.73124H10.4625C10.8086 6.73124 11.1247 6.86275 11.3643 7.09232C11.6038 7.32027 11.7303 7.62151 11.7303 7.94599C11.7303 8.27046 11.6039 8.56999 11.3643 8.79802V8.79811Z" fill="#191C1F"/>
<path d="M9.79712 4.76562L8.49771 3.46591C8.40789 3.37607 8.28807 3.33278 8.16997 3.33612C8.05186 3.33278 7.93204 3.37436 7.84222 3.46591L6.54281 4.76562C6.36977 4.9387 6.36977 5.21825 6.54281 5.39134C6.71586 5.56442 6.99535 5.56442 7.16839 5.39134L7.75566 4.80394V8.33691L6.19004 6.07201C6.11187 5.93553 5.96711 5.84569 5.80075 5.84569C5.55452 5.84569 5.35156 6.04869 5.35156 6.29336V9.58166C5.35156 9.82633 5.55452 10.0293 5.80075 10.0293C6.04699 10.0293 6.24995 9.82633 6.24995 9.58166V7.5448L7.84051 9.83302C7.84051 9.83799 7.84051 9.84468 7.84719 9.85137C7.93701 9.96453 8.06352 10.0311 8.20656 10.0311C8.4528 10.0311 8.65079 9.82814 8.65079 9.58347V4.87209L9.17155 5.39296C9.34459 5.56605 9.62408 5.56605 9.79712 5.39296C9.97017 5.21988 9.97017 4.93861 9.79712 4.76562Z" fill="#191C1F"/>
<path d="M4.25119 5.85254C4.00992 5.85254 3.80859 6.05554 3.80859 6.30021V9.59186C3.80859 9.83146 4.00992 10.0346 4.25119 10.0346C4.49246 10.0346 4.68872 9.83155 4.68872 9.59186V6.30021C4.68872 6.05554 4.49237 5.85254 4.25119 5.85254Z" fill="#191C1F"/>
<path d="M12.4474 7.13064C12.3442 6.881 12.1861 6.66137 11.9915 6.46497C11.7968 6.28023 11.5672 6.12549 11.311 6.01902C11.0497 5.91255 10.7702 5.85923 10.4791 5.85923H9.62389C9.59895 5.85254 9.57563 5.85254 9.55069 5.85254C9.29614 5.85254 9.08984 6.05391 9.08984 6.30518V9.58354C9.08984 9.83318 9.28448 10.0245 9.53244 10.0362H10.4791C10.7702 10.0362 11.0497 9.97625 11.311 9.86978C11.5655 9.76331 11.7967 9.61355 11.9915 9.4288C12.1861 9.22581 12.3442 9.01277 12.4474 8.75654C12.5571 8.5003 12.6104 8.23232 12.6104 7.94779C12.6104 7.66652 12.5571 7.38697 12.4474 7.13073V7.13064ZM11.3643 8.79811C11.1247 9.03275 10.8085 9.1526 10.4625 9.1526H9.97006V6.73124H10.4625C10.8086 6.73124 11.1247 6.86275 11.3643 7.09232C11.6038 7.32027 11.7303 7.62151 11.7303 7.94599C11.7303 8.27046 11.6039 8.56999 11.3643 8.79802V8.79811Z" fill="#191C1F"/>
<path d="M9.79712 4.76562L8.49771 3.46591C8.40789 3.37607 8.28807 3.33278 8.16997 3.33612C8.05186 3.33278 7.93204 3.37436 7.84222 3.46591L6.54281 4.76562C6.36977 4.9387 6.36977 5.21825 6.54281 5.39134C6.71586 5.56442 6.99535 5.56442 7.16839 5.39134L7.75566 4.80394V8.33691L6.19004 6.07201C6.11187 5.93553 5.96711 5.84569 5.80075 5.84569C5.55452 5.84569 5.35156 6.04869 5.35156 6.29336V9.58166C5.35156 9.82633 5.55452 10.0293 5.80075 10.0293C6.04699 10.0293 6.24995 9.82633 6.24995 9.58166V7.5448L7.84051 9.83302C7.84051 9.83799 7.84051 9.84468 7.84719 9.85137C7.93701 9.96453 8.06352 10.0311 8.20656 10.0311C8.4528 10.0311 8.65079 9.82814 8.65079 9.58347V4.87209L9.17155 5.39296C9.34459 5.56605 9.62408 5.56605 9.79712 5.39296C9.97017 5.21988 9.97017 4.93861 9.79712 4.76562Z" fill="#191C1F"/>
<path d="M9.06626 11.0673C9.02184 10.9621 9.09905 10.8457 9.21323 10.8457C9.2784 10.8457 9.33702 10.8853 9.36129 10.9458L9.67388 11.7248C9.67447 11.7262 9.67587 11.7272 9.67744 11.7272C9.67905 11.7272 9.68049 11.7262 9.68104 11.7247L9.96064 10.9466C9.9824 10.8861 10.0398 10.8457 10.1041 10.8457C10.2113 10.8457 10.2851 10.9534 10.2463 11.0534L9.72764 12.389C9.70476 12.449 9.67925 12.501 9.65109 12.5451C9.62469 12.591 9.59301 12.629 9.55606 12.659C9.5191 12.6907 9.4751 12.7137 9.42406 12.7278C9.37479 12.7437 9.31495 12.7516 9.24456 12.7516C9.20254 12.7516 9.16098 12.7489 9.11987 12.7434C9.05159 12.7343 9.00879 12.6686 9.01824 12.6004L9.03038 12.5127C9.03601 12.4721 9.07765 12.4471 9.11785 12.4551C9.146 12.4622 9.17416 12.4657 9.20232 12.4657C9.24104 12.4657 9.27359 12.4622 9.29999 12.4551C9.32639 12.4481 9.34839 12.4366 9.36599 12.4207C9.38535 12.4066 9.40119 12.3872 9.41351 12.3625C9.42582 12.3396 9.43902 12.3113 9.4531 12.2778L9.45428 12.2748C9.48366 12.2018 9.49835 12.1653 9.49802 12.127C9.4977 12.0887 9.48239 12.0525 9.45177 11.98L9.06626 11.0673Z" fill="#191C1F"/>
<path d="M8.51704 11.9472C8.51704 11.9444 8.51476 11.9421 8.51194 11.9421C8.51019 11.9421 8.50855 11.943 8.50761 11.9445C8.46209 12.0156 8.40452 12.0678 8.3349 12.1009C8.2645 12.1327 8.18707 12.1486 8.10259 12.1486C8.04452 12.1486 7.98732 12.1407 7.931 12.1248C7.87645 12.1089 7.82717 12.0851 7.78317 12.0533C7.74094 12.0215 7.70662 11.9818 7.68022 11.9342C7.65382 11.8865 7.64062 11.8309 7.64062 11.7674C7.64062 11.6986 7.65294 11.6404 7.67758 11.5927C7.70222 11.5433 7.73478 11.5027 7.77526 11.4709C7.81749 11.4374 7.86589 11.4109 7.92045 11.3915C7.975 11.3721 8.03132 11.358 8.08939 11.3492C8.14923 11.3386 8.20906 11.3324 8.2689 11.3306C8.32874 11.3271 8.38505 11.3253 8.43785 11.3253H8.48263C8.50164 11.3253 8.51704 11.3099 8.51704 11.2909C8.51704 11.2115 8.48977 11.1524 8.43521 11.1136C8.38065 11.073 8.31114 11.0527 8.22666 11.0527C8.15979 11.0527 8.09731 11.065 8.03924 11.0898C8.01973 11.0975 8.00111 11.1062 7.98338 11.1159C7.92612 11.1472 7.85185 11.148 7.80576 11.1018C7.75955 11.0555 7.75844 10.9794 7.81187 10.9416C7.85975 10.9077 7.91178 10.8812 7.96796 10.8621C8.063 10.8303 8.16067 10.8145 8.26098 10.8145C8.35074 10.8145 8.42641 10.825 8.48801 10.8462C8.5496 10.8656 8.60064 10.8912 8.64111 10.923C8.68159 10.9547 8.71239 10.9918 8.73351 11.0342C8.75639 11.0748 8.77223 11.1162 8.78102 11.1586C8.79158 11.2009 8.79774 11.2424 8.7995 11.283C8.80126 11.3218 8.80214 11.3562 8.80214 11.3862V11.9743C8.80214 12.053 8.73832 12.1168 8.65959 12.1168H8.6044C8.55615 12.1168 8.51704 12.0777 8.51704 12.0295V11.9472ZM8.49856 11.6137C8.49856 11.5772 8.46902 11.5477 8.43257 11.5477C8.38857 11.5477 8.3393 11.5495 8.28474 11.553C8.23018 11.5565 8.17827 11.5653 8.12899 11.5795C8.08147 11.5918 8.041 11.6112 8.00756 11.6377C7.97412 11.6624 7.9574 11.6977 7.9574 11.7436C7.9574 11.7736 7.96356 11.7992 7.97588 11.8204C7.98996 11.8398 8.00756 11.8565 8.02868 11.8706C8.0498 11.8848 8.07355 11.8954 8.09995 11.9024C8.12635 11.9077 8.15275 11.9104 8.17915 11.9104C8.28826 11.9104 8.36833 11.8848 8.41937 11.8336C8.47217 11.7806 8.49856 11.7092 8.49856 11.6192V11.6137Z" fill="#191C1F"/>
<path d="M6.0625 10.9967C6.0625 10.9136 6.12987 10.8462 6.21297 10.8462H6.26814C6.32077 10.8462 6.36344 10.8889 6.36344 10.9415V11.0335C6.36344 11.0353 6.36494 11.0368 6.3668 11.0368C6.36799 11.0368 6.36909 11.0362 6.3697 11.0352C6.41535 10.9584 6.47662 10.9024 6.55351 10.8674C6.63094 10.8321 6.71453 10.8145 6.80429 10.8145C6.90108 10.8145 6.98819 10.8321 7.06563 10.8674C7.14306 10.9009 7.20906 10.9477 7.26362 11.0077C7.31817 11.0677 7.35953 11.1383 7.38769 11.2195C7.41584 11.3006 7.42992 11.388 7.42992 11.4815C7.42992 11.5751 7.41496 11.6624 7.38505 11.7436C7.35513 11.8248 7.31289 11.8954 7.25834 11.9554C7.20554 12.0154 7.1413 12.063 7.06563 12.0983C6.98995 12.1318 6.90724 12.1486 6.81749 12.1486C6.75765 12.1486 6.70485 12.1424 6.6591 12.1301C6.61334 12.1177 6.57286 12.1018 6.53767 12.0824C6.50247 12.063 6.47255 12.0427 6.44791 12.0215C6.42409 11.9994 6.40438 11.978 6.38879 11.9575C6.38778 11.9561 6.38622 11.9554 6.38455 11.9554C6.38164 11.9554 6.37928 11.9577 6.37928 11.9606V12.562C6.37928 12.6495 6.30836 12.7204 6.22089 12.7204C6.13341 12.7204 6.0625 12.6495 6.0625 12.562V10.9967ZM7.11315 11.4815C7.11315 11.4321 7.10435 11.3845 7.08675 11.3386C7.07091 11.2927 7.04627 11.2521 7.01283 11.2168C6.98116 11.1815 6.94244 11.1533 6.89668 11.1321C6.85092 11.1109 6.79901 11.1003 6.74093 11.1003C6.68286 11.1003 6.63094 11.1109 6.58518 11.1321C6.53943 11.1533 6.49983 11.1815 6.46639 11.2168C6.43471 11.2521 6.41008 11.2927 6.39248 11.3386C6.37664 11.3845 6.36872 11.4321 6.36872 11.4815C6.36872 11.5309 6.37664 11.5786 6.39248 11.6245C6.41008 11.6704 6.43471 11.7109 6.46639 11.7462C6.49983 11.7815 6.53943 11.8098 6.58518 11.8309C6.63094 11.8521 6.68286 11.8627 6.74093 11.8627C6.79901 11.8627 6.85092 11.8521 6.89668 11.8309C6.94244 11.8098 6.98116 11.7815 7.01283 11.7462C7.04627 11.7109 7.07091 11.6704 7.08675 11.6245C7.10435 11.5786 7.11315 11.5309 7.11315 11.4815Z" fill="#191C1F"/>
</g>
</g>
<defs>
<clipPath id="clip0_3210_79610">
<rect width="16" height="16" fill="white"/>
</clipPath>
<clipPath id="clip1_3210_79610">
<rect width="16" height="16" fill="white"/>
</clipPath>
</defs>
</svg>
