<svg width="16" height="16" viewBox="0 0 16 16" fill="none" xmlns="http://www.w3.org/2000/svg">
<g clip-path="url(#clip0_3210_79618)">
<g clip-path="url(#clip1_3210_79618)">
<path d="M0 8C0 12.4183 3.58172 16 8 16C12.4183 16 16 12.4183 16 8C16 3.58172 12.4183 0 8 0C3.58172 0 0 3.58172 0 8Z" fill="white"/>
<path d="M4.90329 5.31836C4.70687 5.31836 4.54297 5.48362 4.54297 5.68281V8.36257C4.54297 8.55763 4.70687 8.72297 4.90329 8.72297C5.09971 8.72297 5.25949 8.5577 5.25949 8.36257V5.68281C5.25949 5.48362 5.09963 5.31836 4.90329 5.31836Z" fill="#191C1F"/>
<path d="M11.5771 6.35887C11.4931 6.15564 11.3644 5.97684 11.206 5.81695C11.0475 5.66655 10.8606 5.54057 10.652 5.4539C10.4393 5.36722 10.2118 5.3238 9.97474 5.3238H9.27852C9.25821 5.31836 9.23923 5.31836 9.21893 5.31836C9.0117 5.31836 8.84375 5.4823 8.84375 5.68685V8.3558C8.84375 8.55903 9.00221 8.7148 9.20407 8.72429H9.97474C10.2118 8.72429 10.4393 8.67551 10.652 8.58883C10.8592 8.50215 11.0475 8.38023 11.206 8.22983C11.3644 8.06456 11.4931 7.89113 11.5771 7.68253C11.6665 7.47393 11.7098 7.25576 11.7098 7.02412C11.7098 6.79514 11.6665 6.56755 11.5771 6.35895V6.35887ZM10.6954 7.71638C10.5004 7.90739 10.243 8.00496 9.96127 8.00496H9.56034V6.03372H9.96127C10.243 6.03372 10.5004 6.14078 10.6954 6.32767C10.8904 6.51325 10.9934 6.75849 10.9934 7.02265C10.9934 7.28681 10.8905 7.53066 10.6954 7.7163V7.71638Z" fill="#191C1F"/>
<path d="M9.41604 4.43345L8.35818 3.37535C8.28506 3.30221 8.18751 3.26696 8.09136 3.26968C7.99521 3.26696 7.89767 3.30081 7.82454 3.37535L6.76668 4.43345C6.6258 4.57435 6.6258 4.80194 6.76668 4.94285C6.90756 5.08376 7.13509 5.08376 7.27597 4.94285L7.75407 4.46464V7.34087L6.47948 5.49699C6.41585 5.38588 6.298 5.31274 6.16257 5.31274C5.9621 5.31274 5.79688 5.47801 5.79688 5.67719V8.35423C5.79688 8.55341 5.9621 8.71868 6.16257 8.71868C6.36303 8.71868 6.52826 8.55341 6.52826 8.35423V6.696L7.82314 8.55886C7.82314 8.5629 7.82314 8.56835 7.82859 8.57379C7.90171 8.66592 8.0047 8.72015 8.12116 8.72015C8.32162 8.72015 8.4828 8.55488 8.4828 8.3557V4.52012L8.90675 4.94417C9.04763 5.08508 9.27517 5.08508 9.41604 4.94417C9.55692 4.80327 9.55692 4.57428 9.41604 4.43345Z" fill="#191C1F"/>
<path d="M4.90329 5.31836C4.70687 5.31836 4.54297 5.48362 4.54297 5.68281V8.36257C4.54297 8.55763 4.70687 8.72297 4.90329 8.72297C5.09971 8.72297 5.25949 8.5577 5.25949 8.36257V5.68281C5.25949 5.48362 5.09963 5.31836 4.90329 5.31836Z" fill="#191C1F"/>
<path d="M11.5771 6.35887C11.4931 6.15564 11.3644 5.97684 11.206 5.81695C11.0475 5.66655 10.8606 5.54057 10.652 5.4539C10.4393 5.36722 10.2118 5.3238 9.97474 5.3238H9.27852C9.25821 5.31836 9.23923 5.31836 9.21893 5.31836C9.0117 5.31836 8.84375 5.4823 8.84375 5.68685V8.3558C8.84375 8.55903 9.00221 8.7148 9.20407 8.72429H9.97474C10.2118 8.72429 10.4393 8.67551 10.652 8.58883C10.8592 8.50215 11.0475 8.38023 11.206 8.22983C11.3644 8.06456 11.4931 7.89113 11.5771 7.68253C11.6665 7.47393 11.7098 7.25576 11.7098 7.02412C11.7098 6.79514 11.6665 6.56755 11.5771 6.35895V6.35887ZM10.6954 7.71638C10.5004 7.90739 10.243 8.00496 9.96127 8.00496H9.56034V6.03372H9.96127C10.243 6.03372 10.5004 6.14078 10.6954 6.32767C10.8904 6.51325 10.9934 6.75849 10.9934 7.02265C10.9934 7.28681 10.8905 7.53066 10.6954 7.7163V7.71638Z" fill="#191C1F"/>
<path d="M9.41604 4.43345L8.35818 3.37535C8.28506 3.30221 8.18751 3.26696 8.09136 3.26968C7.99521 3.26696 7.89767 3.30081 7.82454 3.37535L6.76668 4.43345C6.6258 4.57435 6.6258 4.80194 6.76668 4.94285C6.90756 5.08376 7.13509 5.08376 7.27597 4.94285L7.75407 4.46464V7.34087L6.47948 5.49699C6.41585 5.38588 6.298 5.31274 6.16257 5.31274C5.9621 5.31274 5.79688 5.47801 5.79688 5.67719V8.35423C5.79688 8.55341 5.9621 8.71868 6.16257 8.71868C6.36303 8.71868 6.52826 8.55341 6.52826 8.35423V6.696L7.82314 8.55886C7.82314 8.5629 7.82314 8.56835 7.82859 8.57379C7.90171 8.66592 8.0047 8.72015 8.12116 8.72015C8.32162 8.72015 8.4828 8.55488 8.4828 8.3557V4.52012L8.90675 4.94417C9.04763 5.08508 9.27517 5.08508 9.41604 4.94417C9.55692 4.80327 9.55692 4.57428 9.41604 4.43345Z" fill="#191C1F"/>
<path d="M5.14835 12.25C5.14835 12.1364 5.07822 12.0435 4.95439 12.0435C4.83934 12.0435 4.75715 12.1331 4.75715 12.25C4.75715 12.3669 4.83934 12.4555 4.95439 12.4555C5.07822 12.4555 5.14835 12.3637 5.14835 12.25ZM4.69141 12.473V11.7123C4.69141 11.6773 4.71661 11.6719 4.72866 11.6719C4.74072 11.6719 4.76592 11.6773 4.76592 11.7123V12.0828H4.76811C4.81194 12.0161 4.88865 11.9812 4.96206 11.9812C5.12205 11.9812 5.22724 12.0992 5.22724 12.25C5.22724 12.4008 5.12205 12.5189 4.96206 12.5189C4.88865 12.5189 4.81194 12.4839 4.76811 12.4194H4.76592V12.473C4.76592 12.5079 4.74072 12.5134 4.72866 12.5134C4.71661 12.5134 4.69141 12.5079 4.69141 12.473Z" fill="#191C1F"/>
<path d="M5.79236 12.0413L5.55019 12.638C5.51841 12.7167 5.47787 12.768 5.38911 12.768C5.37596 12.768 5.35733 12.7669 5.34528 12.7637C5.32665 12.7582 5.31788 12.7462 5.31788 12.7309C5.31788 12.7134 5.33103 12.6992 5.34966 12.6992C5.35514 12.6992 5.36062 12.7003 5.36719 12.7014C5.37596 12.7025 5.38034 12.7025 5.38582 12.7025C5.43513 12.7025 5.46143 12.6697 5.48335 12.6118L5.52499 12.5047L5.32117 12.0435C5.31788 12.0347 5.31679 12.0282 5.31679 12.0227C5.31679 12.0019 5.33432 11.9866 5.35514 11.9866C5.36719 11.9866 5.38253 11.991 5.3924 12.0161L5.56334 12.426H5.56553L5.72223 12.0161C5.73099 11.9921 5.74633 11.9866 5.75839 11.9866C5.7803 11.9866 5.79674 12.0019 5.79674 12.0216C5.79674 12.026 5.79564 12.0325 5.79236 12.0413Z" fill="#191C1F"/>
<path d="M6.32083 11.7997V12.438C6.32083 12.5036 6.27481 12.5156 6.25179 12.5156C6.22878 12.5156 6.18276 12.5036 6.18276 12.438V11.7997C6.18276 11.7342 6.22878 11.7221 6.25179 11.7221C6.27481 11.7221 6.32083 11.7342 6.32083 11.7997Z" fill="#191C1F"/>
<path d="M6.99279 12.4522L6.63228 11.956H6.63009V12.438C6.63009 12.5036 6.58406 12.5156 6.56105 12.5156C6.53804 12.5156 6.49202 12.5036 6.49202 12.438V11.8227C6.49202 11.7374 6.55119 11.7221 6.57858 11.7221C6.60927 11.7221 6.63885 11.7353 6.67501 11.7855L7.03552 12.2806H7.03772V11.7997C7.03772 11.7342 7.08374 11.7221 7.10675 11.7221C7.12976 11.7221 7.17578 11.7342 7.17578 11.7997V12.415C7.17578 12.5003 7.11661 12.5156 7.08922 12.5156C7.05744 12.5156 7.03005 12.5025 6.99279 12.4522Z" fill="#191C1F"/>
<path d="M7.62206 12.5057H7.42921C7.37332 12.5057 7.34702 12.4795 7.34702 12.4238V11.8139C7.34702 11.7582 7.37332 11.732 7.42921 11.732H7.62206C7.82478 11.732 8.05051 11.8282 8.05051 12.1189C8.05051 12.3899 7.82478 12.5057 7.62206 12.5057ZM7.48509 11.85V12.3855H7.60015C7.7426 12.3855 7.90258 12.3276 7.90258 12.1189C7.90258 11.897 7.7426 11.85 7.60015 11.85H7.48509Z" fill="#191C1F"/>
<path d="M8.17726 12.4424V12.0402C8.17726 11.9812 8.22 11.9713 8.23972 11.9713C8.25945 11.9713 8.30218 11.9812 8.30218 12.0402V12.0653H8.30437C8.32739 12.0139 8.38327 11.9659 8.46765 11.9659C8.54873 11.9659 8.60243 12.0063 8.63201 12.0653C8.66708 12.0019 8.72625 11.9659 8.80515 11.9659C8.94212 11.9659 8.9991 12.0708 8.9991 12.1779V12.4424C8.9991 12.5047 8.95527 12.5156 8.93335 12.5156C8.91144 12.5156 8.8676 12.5047 8.8676 12.4424V12.215C8.8676 12.1527 8.85336 12.0751 8.76898 12.0751C8.6868 12.0751 8.65283 12.1517 8.65283 12.2194V12.4424C8.65283 12.5047 8.609 12.5156 8.58709 12.5156C8.56517 12.5156 8.52134 12.5047 8.52134 12.4424V12.1888C8.52134 12.1243 8.49066 12.0751 8.42381 12.0751C8.34492 12.0751 8.30876 12.1473 8.30876 12.2172V12.4424C8.30876 12.5047 8.26493 12.5156 8.24301 12.5156C8.2211 12.5156 8.17726 12.5047 8.17726 12.4424Z" fill="#191C1F"/>
<path d="M9.69344 12.2413C9.69344 12.4063 9.56633 12.521 9.40744 12.521C9.24855 12.521 9.12144 12.4063 9.12144 12.2413C9.12144 12.0762 9.24855 11.9659 9.40744 11.9659C9.56633 11.9659 9.69344 12.0762 9.69344 12.2413ZM9.55975 12.2413C9.55975 12.1593 9.51154 12.073 9.40744 12.073C9.30334 12.073 9.25513 12.1593 9.25513 12.2413C9.25513 12.3232 9.30334 12.4118 9.40744 12.4118C9.51154 12.4118 9.55975 12.3232 9.55975 12.2413Z" fill="#191C1F"/>
<path d="M9.82093 12.4424V12.0402C9.82093 11.9812 9.86367 11.9713 9.88339 11.9713C9.90311 11.9713 9.94585 11.9812 9.94585 12.0402V12.0653H9.94804C9.97105 12.0129 10.0335 11.9659 10.1113 11.9659C10.2483 11.9659 10.3053 12.0708 10.3053 12.1779V12.4424C10.3053 12.5047 10.2614 12.5156 10.2395 12.5156C10.2176 12.5156 10.1738 12.5047 10.1738 12.4424V12.215C10.1738 12.1527 10.1595 12.0751 10.0752 12.0751C9.99187 12.0751 9.95243 12.1473 9.95243 12.2172V12.4424C9.95243 12.5047 9.90859 12.5156 9.88668 12.5156C9.86476 12.5156 9.82093 12.5047 9.82093 12.4424Z" fill="#191C1F"/>
<path d="M10.8904 12.285H10.5595C10.565 12.3593 10.6329 12.4139 10.7096 12.4139C10.7644 12.4139 10.7973 12.3965 10.8302 12.3691C10.8488 12.3538 10.8609 12.3506 10.8751 12.3506C10.9047 12.3506 10.9277 12.3713 10.9277 12.403C10.9277 12.4139 10.9233 12.4336 10.9058 12.45C10.8543 12.4992 10.7951 12.521 10.7107 12.521C10.5486 12.521 10.428 12.4172 10.428 12.2467C10.428 12.0773 10.5475 11.9659 10.7064 11.9659C10.8335 11.9659 10.9365 12.038 10.9573 12.1921C10.9584 12.203 10.9595 12.2107 10.9595 12.2194C10.9595 12.2653 10.9343 12.285 10.8904 12.285ZM10.5595 12.191H10.8291C10.8291 12.1232 10.7907 12.0642 10.7053 12.0642C10.6275 12.0642 10.565 12.1178 10.5595 12.191Z" fill="#191C1F"/>
<path d="M11.5482 12.0664L11.3224 12.6183C11.283 12.7145 11.2359 12.768 11.123 12.768C11.0671 12.768 11.0507 12.7353 11.0507 12.709C11.0507 12.6828 11.0682 12.6598 11.0945 12.6555C11.1011 12.6544 11.1066 12.6544 11.1153 12.6544C11.1504 12.6544 11.1844 12.6325 11.2085 12.5724L11.2348 12.5057L11.0364 12.0708C11.0298 12.0555 11.0277 12.0413 11.0277 12.0325C11.0277 11.9986 11.0551 11.9713 11.0934 11.9713C11.1164 11.9713 11.1416 11.9812 11.1592 12.0227L11.3016 12.3626H11.3038L11.4265 12.026C11.443 11.9812 11.4693 11.9713 11.4912 11.9713C11.5284 11.9713 11.5558 11.9954 11.5558 12.0303C11.5558 12.038 11.5547 12.0489 11.5482 12.0664Z" fill="#191C1F"/>
<path d="M9.19541 9.53623C9.15643 9.44395 9.22418 9.3418 9.32435 9.3418C9.38153 9.3418 9.43296 9.37657 9.45425 9.42964L9.72851 10.1131C9.72902 10.1143 9.73025 10.1152 9.73162 10.1152C9.73304 10.1152 9.7343 10.1143 9.73478 10.113L9.9801 9.43032C9.99918 9.37721 10.0495 9.3418 10.106 9.3418C10.2 9.3418 10.2647 9.4363 10.2307 9.52398L9.77567 10.6958C9.7556 10.7484 9.73321 10.7941 9.70851 10.8328C9.68535 10.8731 9.65755 10.9064 9.62513 10.9327C9.5927 10.9605 9.5541 10.9807 9.50933 10.9931C9.46609 11.007 9.4136 11.014 9.35183 11.014C9.31497 11.014 9.27851 11.0116 9.24244 11.0068C9.18254 10.9988 9.14498 10.9412 9.15327 10.8813L9.16393 10.8044C9.16886 10.7687 9.2054 10.7468 9.24066 10.7538C9.26537 10.76 9.29007 10.7631 9.31478 10.7631C9.34875 10.7631 9.37731 10.76 9.40047 10.7538C9.42363 10.7477 9.44293 10.7376 9.45837 10.7237C9.47536 10.7113 9.48925 10.6942 9.50006 10.6726C9.51087 10.6524 9.52245 10.6277 9.5348 10.5982C9.55796 10.5407 9.56954 10.5119 9.57176 10.4819C9.57254 10.4713 9.57245 10.4607 9.57149 10.4501C9.56876 10.4201 9.55669 10.3916 9.53255 10.3344L9.19541 9.53623Z" fill="#191C1F"/>
<path d="M8.71424 10.3083C8.71424 10.3058 8.71224 10.3038 8.70976 10.3038C8.70823 10.3038 8.70679 10.3046 8.70597 10.3059C8.66603 10.3683 8.61552 10.4141 8.55443 10.4432C8.49267 10.471 8.42474 10.485 8.35062 10.485C8.29967 10.485 8.24949 10.478 8.20008 10.4641C8.15221 10.4501 8.10898 10.4292 8.07038 10.4014C8.03332 10.3735 8.00321 10.3387 7.98005 10.2969C7.95689 10.255 7.94531 10.2063 7.94531 10.1505C7.94531 10.0902 7.95612 10.0391 7.97774 9.99725C7.99935 9.9539 8.02792 9.91829 8.06343 9.89042C8.10049 9.861 8.14295 9.83778 8.19081 9.82075C8.23868 9.80372 8.28809 9.79133 8.33904 9.78359C8.39154 9.7743 8.44404 9.76888 8.49653 9.76733C8.54903 9.76423 8.59844 9.76269 8.64476 9.76269H8.68405C8.70073 9.76269 8.71424 9.74917 8.71424 9.73249C8.71424 9.66282 8.69031 9.61095 8.64244 9.57689C8.59458 9.54128 8.53359 9.52347 8.45948 9.52347C8.4008 9.52347 8.34599 9.53431 8.29504 9.55599C8.27792 9.56275 8.26158 9.57039 8.24603 9.5789C8.1958 9.60639 8.13063 9.60712 8.09019 9.56656C8.04965 9.52591 8.04868 9.45914 8.09556 9.42599C8.13756 9.39629 8.18321 9.37304 8.2325 9.35626C8.31588 9.32839 8.40158 9.31445 8.48959 9.31445C8.56833 9.31445 8.63472 9.32374 8.68877 9.34232C8.74281 9.35935 8.78758 9.3818 8.8231 9.40967C8.85861 9.43754 8.88563 9.47006 8.90416 9.50722C8.92423 9.54283 8.93813 9.57921 8.94585 9.61637C8.95511 9.65353 8.96052 9.68992 8.96206 9.72553C8.9636 9.75959 8.96438 9.78978 8.96438 9.8161V10.332C8.96438 10.4011 8.90838 10.4571 8.83931 10.4571H8.79088C8.74856 10.4571 8.71424 10.4228 8.71424 10.3805V10.3083ZM8.69803 10.0157C8.69803 9.9837 8.67211 9.95777 8.64013 9.95777C8.60153 9.95777 8.55829 9.95932 8.51043 9.96242C8.46256 9.96551 8.41702 9.97326 8.37378 9.98564C8.33209 9.99648 8.29658 10.0135 8.26724 10.0367C8.23791 10.0584 8.22324 10.0894 8.22324 10.1296C8.22324 10.156 8.22864 10.1784 8.23945 10.197C8.2518 10.214 8.26724 10.2287 8.28577 10.2411C8.3043 10.2535 8.32515 10.2628 8.34831 10.269C8.37147 10.2736 8.39463 10.2759 8.41779 10.2759C8.51352 10.2759 8.58377 10.2535 8.62855 10.2086C8.67487 10.1621 8.69803 10.0994 8.69803 10.0205V10.0157Z" fill="#191C1F"/>
<path d="M6.5625 9.47434C6.5625 9.40143 6.62161 9.34232 6.69452 9.34232H6.74292C6.7891 9.34232 6.82653 9.37976 6.82653 9.42593V9.50659C6.82653 9.50822 6.82785 9.50954 6.82948 9.50954C6.83052 9.50954 6.83149 9.50898 6.83202 9.50809C6.87208 9.44071 6.92583 9.39165 6.99329 9.3609C7.06122 9.32994 7.13457 9.31445 7.21331 9.31445C7.29823 9.31445 7.37466 9.32994 7.4426 9.3609C7.51054 9.39032 7.56844 9.43135 7.6163 9.48399C7.66417 9.53663 7.70045 9.59857 7.72516 9.66979C7.74986 9.74101 7.76222 9.81765 7.76222 9.89971C7.76222 9.98177 7.74909 10.0584 7.72284 10.1296C7.69659 10.2009 7.65954 10.2628 7.61167 10.3154C7.56535 10.3681 7.50899 10.4099 7.4426 10.4408C7.37621 10.4703 7.30364 10.485 7.22489 10.485C7.17239 10.485 7.12607 10.4796 7.08593 10.4687C7.04578 10.4579 7.01027 10.4439 6.97939 10.4269C6.94851 10.4099 6.92226 10.3921 6.90064 10.3735C6.87974 10.354 6.86245 10.3353 6.84877 10.3173C6.84789 10.3161 6.84652 10.3154 6.84506 10.3154C6.8425 10.3154 6.84043 10.3175 6.84043 10.3201V10.8477C6.84043 10.9244 6.77821 10.9866 6.70146 10.9866C6.62472 10.9866 6.5625 10.9244 6.5625 10.8477V9.47434ZM7.48429 9.89971C7.48429 9.85636 7.47657 9.81455 7.46113 9.7743C7.44723 9.73404 7.42562 9.69843 7.39628 9.66747C7.36849 9.6365 7.33452 9.61173 7.29437 9.59315C7.25423 9.57457 7.20868 9.56528 7.15773 9.56528C7.10677 9.56528 7.06122 9.57457 7.02108 9.59315C6.98093 9.61173 6.94619 9.6365 6.91686 9.66747C6.88906 9.69843 6.86745 9.73404 6.85201 9.7743C6.83811 9.81455 6.83116 9.85636 6.83116 9.89971C6.83116 9.94306 6.83811 9.98487 6.85201 10.0251C6.86745 10.0654 6.88906 10.101 6.91686 10.132C6.94619 10.1629 6.98093 10.1877 7.02108 10.2063C7.06122 10.2249 7.10677 10.2341 7.15773 10.2341C7.20868 10.2341 7.25423 10.2249 7.29437 10.2063C7.33452 10.1877 7.36849 10.1629 7.39628 10.132C7.42562 10.101 7.44723 10.0654 7.46113 10.0251C7.47657 9.98487 7.48429 9.94306 7.48429 9.89971Z" fill="#191C1F"/>
</g>
</g>
<defs>
<clipPath id="clip0_3210_79618">
<rect width="16" height="16" fill="white"/>
</clipPath>
<clipPath id="clip1_3210_79618">
<rect width="16" height="16" fill="white"/>
</clipPath>
</defs>
</svg>
