<svg width="32" height="32" viewBox="0 0 32 32" fill="none" xmlns="http://www.w3.org/2000/svg">
<g clip-path="url(#clip0_1661_24728)">
<g filter="url(#filter0_d_1661_24728)">
<path d="M0 16C0 7.16344 7.16344 0 16 0C24.8366 0 32 7.16344 32 16C32 24.8366 24.8366 32 16 32C7.16344 32 0 24.8366 0 16Z" fill="#853A93"/>
<path fill-rule="evenodd" clip-rule="evenodd" d="M22.9619 19.8371L21.464 17.3591L19.9948 19.8371H22.9619ZM22.9591 12.1518H19.9765L21.4629 14.5802L22.9591 12.1518ZM15.9762 8.29484L14.4985 10.7595H17.4661L15.9762 8.29484ZM9.02523 12.1518L10.5001 14.5952L11.9673 12.1518H9.02523ZM9.02362 19.8579L11.9699 19.8394L10.5005 17.3833L9.02362 19.8579ZM6.50391 10.7595H12.8339L15.8115 5.81002L15.9996 5.49707L16.188 5.81002L19.1653 10.7595H25.4952L25.3067 11.071L22.3299 15.9883L25.3075 20.941L25.4947 21.2524H19.1652L16.188 26.1904L15.9996 26.5026L15.8115 26.1904L12.834 21.2524H6.50451L6.69157 20.941L9.66913 15.9883L6.69238 11.071L6.50391 10.7595ZM13.6624 12.1983L11.2638 15.9896L13.6624 19.8139H18.3368L20.7353 15.9896L18.3368 12.1983H13.6624ZM15.9973 23.6965L17.4664 21.2524H14.5015L15.9973 23.6965ZM15.8277 14.3754C16.295 14.3754 16.72 14.5582 17.028 14.8531V14.8523C17.3355 15.1463 17.5265 15.5526 17.5265 16.0003C17.5265 16.4471 17.3355 16.8531 17.028 17.1474V17.1482C16.7207 17.4422 16.2955 17.6249 15.8277 17.6249C15.3599 17.6249 14.935 17.4422 14.6276 17.1482H14.6284C14.3201 16.8535 14.129 16.447 14.129 16.0002C14.129 15.5538 14.3197 15.1476 14.6275 14.853C14.6277 14.8527 14.6283 14.8522 14.6283 14.8522L14.6275 14.853C14.6277 14.8527 14.6283 14.8522 14.6283 14.8522C14.9363 14.5578 15.3608 14.3754 15.8275 14.3754" fill="white"/>
</g>
</g>
<defs>
<filter id="filter0_d_1661_24728" x="-6" y="-5" width="44" height="44" filterUnits="userSpaceOnUse" color-interpolation-filters="sRGB">
<feFlood flood-opacity="0" result="BackgroundImageFix"/>
<feColorMatrix in="SourceAlpha" type="matrix" values="0 0 0 0 0 0 0 0 0 0 0 0 0 0 0 0 0 0 127 0" result="hardAlpha"/>
<feOffset dy="1"/>
<feGaussianBlur stdDeviation="3"/>
<feComposite in2="hardAlpha" operator="out"/>
<feColorMatrix type="matrix" values="0 0 0 0 0 0 0 0 0 0 0 0 0 0 0 0 0 0 0.08 0"/>
<feBlend mode="normal" in2="BackgroundImageFix" result="effect1_dropShadow_1661_24728"/>
<feBlend mode="normal" in="SourceGraphic" in2="effect1_dropShadow_1661_24728" result="shape"/>
</filter>
<clipPath id="clip0_1661_24728">
<rect width="32" height="32" fill="white"/>
</clipPath>
</defs>
</svg>
