<svg width="20" height="20" viewBox="0 0 20 20" fill="none" xmlns="http://www.w3.org/2000/svg">
<g clip-path="url(#clip0_1661_24727)">
<g filter="url(#filter0_d_1661_24727)">
<g clip-path="url(#clip1_1661_24727)">
<path d="M0 10C0 4.47715 4.47715 0 10 0C15.5228 0 20 4.47715 20 10C20 15.5228 15.5228 20 10 20C4.47715 20 0 15.5228 0 10Z" fill="#853A93"/>
<path fill-rule="evenodd" clip-rule="evenodd" d="M14.3527 12.398L13.4165 10.8493L12.4982 12.398H14.3527ZM14.3509 7.59477H12.4868L13.4158 9.11247L14.3509 7.59477ZM9.98657 5.18415L9.06301 6.72459H10.9178L9.98657 5.18415ZM5.64224 7.59477L6.56402 9.12188L7.48105 7.59477H5.64224ZM5.64123 12.4111L7.48263 12.3995L6.56427 10.8644L5.64123 12.4111ZM4.06641 6.72459H8.02268L9.88363 3.63114L10.0012 3.43555L10.1189 3.63114L11.9798 6.72459H15.936L15.8182 6.91923L13.9576 9.99258L15.8187 13.088L15.9357 13.2826H11.9797L10.1189 16.3689L10.0012 16.564L9.88363 16.3689L8.02273 13.2826H4.06678L4.1837 13.088L6.04467 9.99258L4.1842 6.91923L4.06641 6.72459ZM8.54044 7.62381L7.04133 9.99336L8.54044 12.3835H11.4619L12.961 9.99336L11.4619 7.62381H8.54044ZM9.99979 14.8102L10.918 13.2826H9.06492L9.99979 14.8102ZM9.89375 8.9845C10.1859 8.9845 10.4515 9.09877 10.644 9.28309V9.28257C10.8362 9.46631 10.9555 9.72027 10.9555 10C10.9555 10.2793 10.8362 10.5331 10.644 10.717V10.7175C10.4519 10.9013 10.1862 11.0155 9.89375 11.0155C9.60142 11.0155 9.33585 10.9013 9.14372 10.7175H9.14423C8.95154 10.5333 8.83208 10.2793 8.83208 9.99998C8.83208 9.72099 8.95127 9.46716 9.14367 9.28302C9.1438 9.28284 9.14417 9.28252 9.14417 9.28252L9.14367 9.28302C9.1438 9.28284 9.14417 9.28252 9.14417 9.28252C9.33662 9.0985 9.602 8.9845 9.89363 8.9845" fill="white"/>
</g>
</g>
</g>
<defs>
<filter id="filter0_d_1661_24727" x="-6" y="-5" width="32" height="32" filterUnits="userSpaceOnUse" color-interpolation-filters="sRGB">
<feFlood flood-opacity="0" result="BackgroundImageFix"/>
<feColorMatrix in="SourceAlpha" type="matrix" values="0 0 0 0 0 0 0 0 0 0 0 0 0 0 0 0 0 0 127 0" result="hardAlpha"/>
<feOffset dy="1"/>
<feGaussianBlur stdDeviation="3"/>
<feComposite in2="hardAlpha" operator="out"/>
<feColorMatrix type="matrix" values="0 0 0 0 0 0 0 0 0 0 0 0 0 0 0 0 0 0 0.08 0"/>
<feBlend mode="normal" in2="BackgroundImageFix" result="effect1_dropShadow_1661_24727"/>
<feBlend mode="normal" in="SourceGraphic" in2="effect1_dropShadow_1661_24727" result="shape"/>
</filter>
<clipPath id="clip0_1661_24727">
<rect width="20" height="20" fill="white"/>
</clipPath>
<clipPath id="clip1_1661_24727">
<path d="M0 10C0 4.47715 4.47715 0 10 0C15.5228 0 20 4.47715 20 10C20 15.5228 15.5228 20 10 20C4.47715 20 0 15.5228 0 10Z" fill="white"/>
</clipPath>
</defs>
</svg>
