<svg width="16" height="16" viewBox="0 0 16 16" fill="none" xmlns="http://www.w3.org/2000/svg">
<g clip-path="url(#clip0_1661_24729)">
<g filter="url(#filter0_d_1661_24729)">
<g clip-path="url(#clip1_1661_24729)">
<path d="M0 8C0 3.58172 3.58172 0 8 0C12.4183 0 16 3.58172 16 8C16 12.4183 12.4183 16 8 16C3.58172 16 0 12.4183 0 8Z" fill="#853A93"/>
<path fill-rule="evenodd" clip-rule="evenodd" d="M11.4829 9.91853L10.734 8.67954L9.99936 9.91853H11.4829ZM11.4815 6.07591H9.9902L10.7334 7.29008L11.4815 6.07591ZM7.99004 4.14742L7.25119 5.37977H8.735L7.99004 4.14742ZM4.51457 6.07591L5.25199 7.2976L5.98562 6.07591H4.51457ZM4.51376 9.92895L5.98689 9.91971L5.2522 8.69164L4.51376 9.92895ZM3.25391 5.37977H6.41892L7.90768 2.90501L8.00178 2.74854L8.09593 2.90501L9.58459 5.37977H12.7496L12.6553 5.53548L11.1669 7.99417L12.6557 10.4705L12.7493 10.6262H9.58455L8.09593 13.0952L8.00178 13.2513L7.90768 13.0952L6.41897 10.6262H3.25421L3.34774 10.4705L4.83652 7.99417L3.34814 5.53548L3.25391 5.37977ZM6.83314 6.09915L5.63385 7.99478L6.83314 9.90694H9.17033L10.3696 7.99478L9.17033 6.09915H6.83314ZM8.00061 11.8483L8.73514 10.6262H7.25271L8.00061 11.8483ZM7.91578 7.1877C8.14946 7.1877 8.36195 7.27911 8.51597 7.42657V7.42615C8.66971 7.57315 8.76519 7.77631 8.76519 8.00014C8.76519 8.22354 8.66971 8.42655 8.51597 8.5737V8.57412C8.36231 8.72112 8.14971 8.81246 7.91578 8.81246C7.68192 8.81246 7.46946 8.72112 7.31576 8.57412H7.31616C7.16202 8.42675 7.06644 8.2235 7.06644 8.00008C7.06644 7.77689 7.1618 7.57382 7.31572 7.42651C7.31582 7.42637 7.31612 7.42611 7.31612 7.42611L7.31572 7.42651C7.31582 7.42637 7.31612 7.42611 7.31612 7.42611C7.47008 7.2789 7.68238 7.1877 7.91568 7.1877" fill="white"/>
</g>
</g>
</g>
<defs>
<filter id="filter0_d_1661_24729" x="-6" y="-5" width="28" height="28" filterUnits="userSpaceOnUse" color-interpolation-filters="sRGB">
<feFlood flood-opacity="0" result="BackgroundImageFix"/>
<feColorMatrix in="SourceAlpha" type="matrix" values="0 0 0 0 0 0 0 0 0 0 0 0 0 0 0 0 0 0 127 0" result="hardAlpha"/>
<feOffset dy="1"/>
<feGaussianBlur stdDeviation="3"/>
<feComposite in2="hardAlpha" operator="out"/>
<feColorMatrix type="matrix" values="0 0 0 0 0 0 0 0 0 0 0 0 0 0 0 0 0 0 0.08 0"/>
<feBlend mode="normal" in2="BackgroundImageFix" result="effect1_dropShadow_1661_24729"/>
<feBlend mode="normal" in="SourceGraphic" in2="effect1_dropShadow_1661_24729" result="shape"/>
</filter>
<clipPath id="clip0_1661_24729">
<rect width="16" height="16" fill="white"/>
</clipPath>
<clipPath id="clip1_1661_24729">
<path d="M0 8C0 3.58172 3.58172 0 8 0C12.4183 0 16 3.58172 16 8C16 12.4183 12.4183 16 8 16C3.58172 16 0 12.4183 0 8Z" fill="white"/>
</clipPath>
</defs>
</svg>
