<svg width="12" height="12" viewBox="0 0 12 12" fill="none" xmlns="http://www.w3.org/2000/svg">
<g clip-path="url(#clip0_1661_24730)">
<g filter="url(#filter0_d_1661_24730)">
<g clip-path="url(#clip1_1661_24730)">
<path d="M0 6C0 2.68629 2.68629 0 6 0C9.31371 0 12 2.68629 12 6C12 9.31371 9.31371 12 6 12C2.68629 12 0 9.31371 0 6Z" fill="#853A93"/>
<path fill-rule="evenodd" clip-rule="evenodd" d="M8.60926 7.43902L8.04753 6.50977L7.49659 7.43902H8.60926ZM8.60819 4.55706H7.48972L8.04711 5.46768L8.60819 4.55706ZM5.9896 3.11069L5.43546 4.03495H6.54832L5.9896 3.11069ZM3.383 4.55706L3.93607 5.47332L4.48629 4.55706H3.383ZM3.38239 7.44683L4.48723 7.43991L3.93622 6.51885L3.38239 7.44683ZM2.4375 4.03495H4.81126L5.92783 2.17888L5.9984 2.06152L6.06902 2.17888L7.18551 4.03495H9.55924L9.48855 4.15173L8.37224 5.99575L9.48886 7.85301L9.55905 7.96978H7.18548L6.06902 9.82152L5.9984 9.93861L5.92783 9.82152L4.8113 7.96978H2.43773L2.50788 7.85301L3.62446 5.99575L2.50818 4.15173L2.4375 4.03495ZM5.12192 4.57448L4.22246 5.99621L5.12192 7.43032H6.87482L7.77429 5.99621L6.87482 4.57448H5.12192ZM5.99753 8.88632L6.54843 7.96978H5.43661L5.99753 8.88632ZM5.93391 5.39089C6.10917 5.39089 6.26853 5.45946 6.38405 5.57005V5.56974C6.49935 5.67998 6.57096 5.83236 6.57096 6.00022C6.57096 6.16778 6.49935 6.32003 6.38405 6.4304V6.43071C6.2688 6.54096 6.10935 6.60947 5.93391 6.60947C5.75851 6.60947 5.59917 6.54096 5.48389 6.43071H5.48419C5.36858 6.32018 5.2969 6.16775 5.2969 6.00018C5.2969 5.83279 5.36842 5.68049 5.48386 5.57001C5.48393 5.5699 5.48416 5.5697 5.48416 5.5697L5.48386 5.57001C5.48393 5.5699 5.48416 5.5697 5.48416 5.5697C5.59963 5.4593 5.75885 5.39089 5.93383 5.39089" fill="white"/>
</g>
</g>
</g>
<defs>
<filter id="filter0_d_1661_24730" x="-6" y="-5" width="24" height="24" filterUnits="userSpaceOnUse" color-interpolation-filters="sRGB">
<feFlood flood-opacity="0" result="BackgroundImageFix"/>
<feColorMatrix in="SourceAlpha" type="matrix" values="0 0 0 0 0 0 0 0 0 0 0 0 0 0 0 0 0 0 127 0" result="hardAlpha"/>
<feOffset dy="1"/>
<feGaussianBlur stdDeviation="3"/>
<feComposite in2="hardAlpha" operator="out"/>
<feColorMatrix type="matrix" values="0 0 0 0 0 0 0 0 0 0 0 0 0 0 0 0 0 0 0.08 0"/>
<feBlend mode="normal" in2="BackgroundImageFix" result="effect1_dropShadow_1661_24730"/>
<feBlend mode="normal" in="SourceGraphic" in2="effect1_dropShadow_1661_24730" result="shape"/>
</filter>
<clipPath id="clip0_1661_24730">
<rect width="12" height="12" fill="white"/>
</clipPath>
<clipPath id="clip1_1661_24730">
<path d="M0 6C0 2.68629 2.68629 0 6 0C9.31371 0 12 2.68629 12 6C12 9.31371 9.31371 12 6 12C2.68629 12 0 9.31371 0 6Z" fill="white"/>
</clipPath>
</defs>
</svg>
