<svg width="24" height="34" viewBox="0 0 24 34" fill="none" xmlns="http://www.w3.org/2000/svg">
<rect width="24" height="24" rx="12" fill="#191C1F"/>
<path d="M6.98338 9.34286C6.67634 9.34286 6.42188 9.59338 6.42188 9.89525V13.9539C6.42188 14.2486 6.67654 14.4991 6.98338 14.4991C7.29042 14.4991 7.53746 14.2486 7.53746 13.9539V9.89545C7.53746 9.59338 7.29022 9.34286 6.98338 9.34286Z" fill="white"/>
<path d="M17.3708 10.9198C17.2399 10.6117 17.0398 10.3404 16.7936 10.0983C16.5474 9.87104 16.255 9.68027 15.9319 9.54828C15.601 9.41628 15.2472 9.35028 14.8777 9.35028H13.7928C13.7621 9.34287 13.7312 9.34286 13.7005 9.34286C13.3774 9.34286 13.1157 9.59221 13.1157 9.90033V13.9416C13.1157 14.2497 13.362 14.4844 13.6774 14.4991H14.8777C15.247 14.4991 15.601 14.4257 15.9319 14.2937C16.255 14.1617 16.5474 13.9783 16.7936 13.7508C17.0398 13.5015 17.2399 13.2375 17.3708 12.922C17.5092 12.6066 17.5785 12.2764 17.5785 11.9244C17.5785 11.5799 17.5092 11.2353 17.3708 10.9198ZM15.9989 12.9766C15.6951 13.2654 15.2951 13.4136 14.8552 13.4136H14.2315V10.4285H14.8552C15.2951 10.4285 15.6949 10.5915 15.9989 10.8729C16.3029 11.1543 16.4627 11.5247 16.4627 11.9248C16.4627 12.3247 16.3027 12.6951 15.9989 12.9766Z" fill="white"/>
<path d="M14.0107 8.00945L12.3644 6.40754C12.25 6.29625 12.0987 6.24372 11.9489 6.2486C11.7992 6.24372 11.6479 6.29644 11.5335 6.40754L9.88716 8.00945C9.66801 8.22267 9.66801 8.56828 9.88716 8.7815C10.1063 8.99473 10.4615 8.99473 10.6806 8.7815L11.4244 8.05787V12.4145L9.43904 9.62287C9.3401 9.45339 9.15768 9.34287 8.94456 9.34287C8.6327 9.34287 8.37402 9.59339 8.37402 9.89526V13.9467C8.37402 14.2488 8.6327 14.4991 8.94456 14.4991C9.26404 14.4991 9.51509 14.2486 9.51509 13.9467V11.4349L11.5309 14.256C11.5309 14.2634 11.5309 14.2706 11.5386 14.278C11.6527 14.418 11.8125 14.4991 11.9949 14.4991C12.3068 14.4991 12.5578 14.2486 12.5578 13.9467V8.13969L13.2175 8.7815C13.4366 8.99473 13.7918 8.99473 14.0109 8.7815C14.2301 8.56828 14.2299 8.22267 14.0107 8.00945Z" fill="white"/>
<path d="M9.26007 15.9864V16.7709C9.26007 16.8793 9.16976 16.967 9.05858 16.967C8.94721 16.967 8.8571 16.8791 8.8571 16.7709V16.0975C8.8571 15.9112 8.81335 15.679 8.55467 15.679C8.30262 15.679 8.19847 15.9079 8.19847 16.1106V16.7709C8.19847 16.8793 8.10816 16.967 7.99698 16.967C7.88561 16.967 7.7955 16.8791 7.7955 16.7709V16.019C7.7955 15.8261 7.70138 15.679 7.49649 15.679C7.25467 15.679 7.14369 15.8948 7.14369 16.1039V16.7707C7.14369 16.8791 7.05338 16.9668 6.94221 16.9668C6.83083 16.9668 6.74072 16.8789 6.74072 16.7707V15.5841C6.74072 15.4812 6.82641 15.3979 6.93217 15.3979C7.03793 15.3979 7.12362 15.4812 7.12362 15.5841V15.6496H7.13024C7.20088 15.4959 7.37206 15.3522 7.63074 15.3522C7.87938 15.3522 8.04394 15.473 8.13465 15.6496C8.24221 15.46 8.42363 15.3522 8.66545 15.3522C9.08527 15.3522 9.26007 15.6661 9.26007 15.9864Z" fill="white"/>
<path d="M10.513 15.3522C11.0003 15.3522 11.3898 15.6824 11.3898 16.176C11.3898 16.6696 11.0001 17.0129 10.513 17.0129C10.026 17.0129 9.63623 16.6696 9.63623 16.176C9.63623 15.6824 10.026 15.3522 10.513 15.3522ZM10.513 16.686C10.8321 16.686 10.98 16.4212 10.98 16.176C10.98 15.9307 10.8321 15.6726 10.513 15.6726C10.1939 15.6726 10.046 15.9309 10.046 16.176C10.046 16.4212 10.1939 16.686 10.513 16.686Z" fill="white"/>
<path d="M11.9512 15.3981H11.9907C12.0856 15.3981 12.1625 15.4729 12.1625 15.5652V15.6498H12.1691C12.2398 15.4928 12.4312 15.3524 12.6696 15.3524C13.0897 15.3524 13.2642 15.6662 13.2642 15.9866V16.8002C13.2642 16.8926 13.1874 16.9674 13.0925 16.9674H13.0327C12.9377 16.9674 12.8609 16.8926 12.8609 16.8002V16.0977C12.8609 15.9114 12.8171 15.6793 12.5585 15.6793C12.3032 15.6793 12.1822 15.895 12.1822 16.1041V16.8C12.1822 16.8924 12.1053 16.9672 12.0104 16.9672H11.9506C11.8557 16.9672 11.7788 16.8924 11.7788 16.8V15.5652C11.7794 15.4729 11.8563 15.3981 11.9512 15.3981Z" fill="white"/>
<path d="M15.1669 16.3068H14.0439C14.0607 16.529 14.269 16.6926 14.5042 16.6926C14.6481 16.6926 14.7579 16.6526 14.842 16.5845C14.903 16.5351 14.9925 16.5378 15.0545 16.586C15.1394 16.652 15.142 16.7789 15.0573 16.8449C14.9138 16.9568 14.7314 17.0129 14.5079 17.0129C14.0106 17.0129 13.6411 16.7024 13.6411 16.1924C13.6411 15.6857 14.0074 15.3524 14.4944 15.3524C14.9445 15.3524 15.2739 15.6367 15.2739 16.2023V16.2031C15.2737 16.2603 15.2259 16.3068 15.1669 16.3068ZM14.8705 16.0256C14.8705 15.823 14.7529 15.6464 14.4908 15.6464C14.2522 15.6464 14.0607 15.8066 14.0439 16.0256H14.8705Z" fill="white"/>
<path d="M15.7288 15.398C15.8126 15.398 15.8879 15.4484 15.918 15.5246L16.3181 16.5389H16.325L16.6802 15.5252C16.7069 15.4492 16.7801 15.398 16.8626 15.398C16.9983 15.398 17.0914 15.5306 17.0422 15.6536L16.382 17.3038C16.2678 17.5881 16.1267 17.7517 15.7705 17.7517C15.7597 17.7517 15.7486 17.7515 15.7376 17.7511C15.6421 17.748 15.5682 17.6685 15.5774 17.576L15.579 17.5588C15.5873 17.4752 15.6595 17.4116 15.7456 17.4117H15.747C15.9184 17.4117 15.9654 17.3299 16.0326 17.1665L16.1133 16.9671L15.5425 15.6732C15.4851 15.5427 15.5833 15.398 15.7288 15.398Z" fill="white"/>
<rect x="11" y="24" width="2" height="10" rx="1" fill="#EFEFEF"/>
</svg>
