<svg width="343" height="192" viewBox="0 0 343 192" fill="none" xmlns="http://www.w3.org/2000/svg">
<rect x="0.5" y="0.5" width="342" height="55" rx="11.5" stroke="#EFEFEF"/>
<text fill="#223466" style="white-space: pre" xml:space="preserve" font-family="Basier Circle" font-size="15" letter-spacing="0px"><tspan x="16" y="33.3394">Heading</tspan></text>
<g clip-path="url(#clip0_3744_7046)">
<path fill-rule="evenodd" clip-rule="evenodd" d="M311.355 23.8389L316.069 28.0054L311.355 32.1718C310.882 32.5906 310.882 33.2671 311.355 33.6859C311.829 34.1047 312.595 34.1047 313.068 33.6859L318.645 28.757C319.118 28.3383 319.118 27.6617 318.645 27.243L313.068 22.3141C312.595 21.8953 311.829 21.8953 311.355 22.3141C310.894 22.7329 310.882 23.4201 311.355 23.8389Z" fill="#88898A"/>
</g>
<rect x="0.5" y="68.5" width="342" height="55" rx="11.5" stroke="#EFEFEF"/>
<text fill="#223466" style="white-space: pre" xml:space="preserve" font-family="Basier Circle" font-size="15" letter-spacing="0px"><tspan x="16" y="101.339">Heading</tspan></text>
<g clip-path="url(#clip1_3744_7046)">
<path fill-rule="evenodd" clip-rule="evenodd" d="M311.355 91.8389L316.069 96.0054L311.355 100.172C310.882 100.591 310.882 101.267 311.355 101.686C311.829 102.105 312.595 102.105 313.068 101.686L318.645 96.757C319.118 96.3383 319.118 95.6617 318.645 95.243L313.068 90.3141C312.595 89.8953 311.829 89.8953 311.355 90.3141C310.894 90.7329 310.882 91.4201 311.355 91.8389Z" fill="#88898A"/>
</g>
<rect x="0.5" y="136.5" width="342" height="55" rx="11.5" stroke="#EFEFEF"/>
<text fill="#223466" style="white-space: pre" xml:space="preserve" font-family="Basier Circle" font-size="15" letter-spacing="0px"><tspan x="16" y="169.339">Heading</tspan></text>
<g clip-path="url(#clip2_3744_7046)">
<path fill-rule="evenodd" clip-rule="evenodd" d="M311.355 159.839L316.069 164.005L311.355 168.172C310.882 168.591 310.882 169.267 311.355 169.686C311.829 170.105 312.595 170.105 313.068 169.686L318.645 164.757C319.118 164.338 319.118 163.662 318.645 163.243L313.068 158.314C312.595 157.895 311.829 157.895 311.355 158.314C310.894 158.733 310.882 159.42 311.355 159.839Z" fill="#88898A"/>
</g>
<defs>
<clipPath id="clip0_3744_7046">
<rect width="24" height="24" fill="white" transform="translate(303 16)"/>
</clipPath>
<clipPath id="clip1_3744_7046">
<rect width="24" height="24" fill="white" transform="translate(303 84)"/>
</clipPath>
<clipPath id="clip2_3744_7046">
<rect width="24" height="24" fill="white" transform="translate(303 152)"/>
</clipPath>
</defs>
</svg>
