<svg width="311" height="88" viewBox="0 0 311 88" fill="none" xmlns="http://www.w3.org/2000/svg">
<path d="M0 0.5H311" stroke="#EFEFEF"/>
<g clip-path="url(#clip0_840_11079)">
<path d="M4 58.2422C2.79401 57.435 2 56.0602 2 54.5C2 52.1564 3.79151 50.2313 6.07974 50.0194C6.54781 47.1721 9.02024 45 12 45C14.9798 45 17.4522 47.1721 17.9203 50.0194C20.2085 50.2313 22 52.1564 22 54.5C22 56.0602 21.206 57.435 20 58.2422M16 59L12 63L8 59M12 63V54" stroke="#5E6063" stroke-width="1.75" stroke-linecap="round" stroke-linejoin="round"/>
</g>
<text fill="#5E6063" style="white-space: pre" xml:space="preserve" font-family="Basier Circle" font-size="12" letter-spacing="0px"><tspan x="36" y="32.2891">Overline </tspan></text>
<text fill="#223466" style="white-space: pre" xml:space="preserve" font-family="Basier Circle" font-size="15" letter-spacing="0px"><tspan x="36" y="58.3394">Heading</tspan></text>
<text fill="#5E6063" style="white-space: pre" xml:space="preserve" font-family="Basier Circle" font-size="14" letter-spacing="0px"><tspan x="36" y="84.0039">Subtext</tspan></text>
<text fill="#223466" style="white-space: pre" xml:space="preserve" font-family="Basier Circle" font-size="15" letter-spacing="0px"><tspan x="234.863" y="47.8394">Text 1</tspan></text>
<text fill="#5E6063" style="white-space: pre" xml:space="preserve" font-family="Basier Circle" font-size="12" letter-spacing="0px"><tspan x="241.801" y="71.7891">Text 2</tspan></text>
<g clip-path="url(#clip1_840_11079)">
<path fill-rule="evenodd" clip-rule="evenodd" d="M295.355 49.8389L300.069 54.0054L295.355 58.1718C294.882 58.5906 294.882 59.2671 295.355 59.6859C295.829 60.1047 296.595 60.1047 297.068 59.6859L302.645 54.757C303.118 54.3383 303.118 53.6617 302.645 53.243L297.068 48.3141C296.595 47.8953 295.829 47.8953 295.355 48.3141C294.894 48.7329 294.882 49.4201 295.355 49.8389Z" fill="#88898A"/>
</g>
<defs>
<clipPath id="clip0_840_11079">
<rect width="24" height="24" fill="white" transform="translate(0 42)"/>
</clipPath>
<clipPath id="clip1_840_11079">
<rect width="24" height="24" fill="white" transform="translate(287 42)"/>
</clipPath>
</defs>
</svg>
