<svg width="343" height="54" viewBox="0 0 343 54" fill="none" xmlns="http://www.w3.org/2000/svg">
<rect x="1" y="1" width="45.1667" height="52" rx="7" fill="white"/>
<rect x="1" y="1" width="45.1667" height="52" rx="7" stroke="#089958" stroke-width="2"/>
<text fill="#121313" style="white-space: pre" xml:space="preserve" font-family="Basier Circle" font-size="16" letter-spacing="0px"><tspan x="19.0286" y="32.6953">2</tspan></text>
<rect x="60.1665" y="1" width="45.1667" height="52" rx="7" fill="white"/>
<rect x="60.1665" y="1" width="45.1667" height="52" rx="7" stroke="#089958" stroke-width="2"/>
<text fill="#121313" style="white-space: pre" xml:space="preserve" font-family="Basier Circle" font-size="16" letter-spacing="0px"><tspan x="78.0467" y="32.6953">4</tspan></text>
<rect x="119.333" y="1" width="45.1667" height="52" rx="7" fill="white"/>
<rect x="119.333" y="1" width="45.1667" height="52" rx="7" stroke="#089958" stroke-width="2"/>
<text fill="#121313" style="white-space: pre" xml:space="preserve" font-family="Basier Circle" font-size="16" letter-spacing="0px"><tspan x="137.589" y="32.6953">7</tspan></text>
<rect x="178.5" y="1" width="45.1667" height="52" rx="7" fill="white"/>
<rect x="178.5" y="1" width="45.1667" height="52" rx="7" stroke="#089958" stroke-width="2"/>
<text fill="#121313" style="white-space: pre" xml:space="preserve" font-family="Basier Circle" font-size="16" letter-spacing="0px"><tspan x="196.38" y="32.6953">4</tspan></text>
<rect x="237.667" y="1" width="45.1667" height="52" rx="7" fill="white"/>
<rect x="237.667" y="1" width="45.1667" height="52" rx="7" stroke="#089958" stroke-width="2"/>
<text fill="#121313" style="white-space: pre" xml:space="preserve" font-family="Basier Circle" font-size="16" letter-spacing="0px"><tspan x="255.695" y="32.6953">2</tspan></text>
<rect x="296.833" y="1" width="45.1667" height="52" rx="7" fill="white"/>
<rect x="296.833" y="1" width="45.1667" height="52" rx="7" stroke="#089958" stroke-width="2"/>
<text fill="#121313" style="white-space: pre" xml:space="preserve" font-family="Basier Circle" font-size="16" letter-spacing="0px"><tspan x="314.597" y="32.6953">3</tspan></text>
</svg>
