<svg width="343" height="44" viewBox="0 0 343 44" fill="none" xmlns="http://www.w3.org/2000/svg">
<rect width="343" height="44" rx="22" fill="white"/>
<path d="M26.6977 28.3945C28.4055 28.3941 30.0642 27.8224 31.4096 26.7704L35.6394 31L37 29.6395L32.7701 25.4099C33.8228 24.0645 34.3949 22.4055 34.3953 20.6972C34.3953 16.4532 30.9419 13 26.6977 13C22.4534 13 19 16.4532 19 20.6972C19 24.9413 22.4534 28.3945 26.6977 28.3945ZM26.6977 14.9243C29.8816 14.9243 32.4709 17.5135 32.4709 20.6972C32.4709 23.881 29.8816 26.4702 26.6977 26.4702C23.5137 26.4702 20.9244 23.881 20.9244 20.6972C20.9244 17.5135 23.5137 14.9243 26.6977 14.9243Z" fill="#88898A"/>
<text fill="#5E6063" style="white-space: pre" xml:space="preserve" font-family="Basier Circle" font-size="16" letter-spacing="0px"><tspan x="44" y="27.7188">Search</tspan></text>
<g clip-path="url(#clip0_1583_11035)">
<text fill="#5E6063" style="white-space: pre" xml:space="preserve" font-family="Basier Circle" font-size="16" letter-spacing="0px"><tspan x="104" y="26.2188">&#x201c;Text 1&#x201d;&#x2028;</tspan><tspan x="104" y="46.2188">Text 2&#x2028;</tspan><tspan x="104" y="66.2188">Text 3</tspan></text>
</g>
<defs>
<clipPath id="clip0_1583_11035">
<rect width="223" height="19" fill="white" transform="translate(104 12.5)"/>
</clipPath>
</defs>
</svg>
