<svg width="376" height="352" viewBox="0 0 376 352" fill="none" xmlns="http://www.w3.org/2000/svg">
<rect width="375.463" height="352" rx="20" fill="white"/>
<text fill="#121313" style="white-space: pre" xml:space="preserve" font-family="Basier Circle" font-size="20" letter-spacing="0px"><tspan x="16" y="43.6191">Heading</tspan></text>
<circle cx="347" cy="36.5" r="12" fill="#F5F7F9"/>
<path d="M348.058 36.5001L351.283 33.2826C351.424 33.1414 351.504 32.9499 351.504 32.7501C351.504 32.5504 351.424 32.3589 351.283 32.2176C351.142 32.0764 350.95 31.9971 350.75 31.9971C350.551 31.9971 350.359 32.0764 350.218 32.2176L347 35.4426L343.783 32.2176C343.642 32.0764 343.45 31.9971 343.25 31.9971C343.051 31.9971 342.859 32.0764 342.718 32.2176C342.577 32.3589 342.497 32.5504 342.497 32.7501C342.497 32.9499 342.577 33.1414 342.718 33.2826L345.943 36.5001L342.718 39.7176C342.648 39.7874 342.592 39.8703 342.554 39.9617C342.516 40.0531 342.496 40.1511 342.496 40.2501C342.496 40.3491 342.516 40.4472 342.554 40.5386C342.592 40.63 342.648 40.7129 342.718 40.7826C342.788 40.8529 342.871 40.9087 342.962 40.9468C343.053 40.9849 343.151 41.0045 343.25 41.0045C343.349 41.0045 343.447 40.9849 343.539 40.9468C343.63 40.9087 343.713 40.8529 343.783 40.7826L347 37.5576L350.218 40.7826C350.288 40.8529 350.371 40.9087 350.462 40.9468C350.553 40.9849 350.651 41.0045 350.75 41.0045C350.849 41.0045 350.947 40.9849 351.039 40.9468C351.13 40.9087 351.213 40.8529 351.283 40.7826C351.353 40.7129 351.409 40.63 351.447 40.5386C351.485 40.4472 351.505 40.3491 351.505 40.2501C351.505 40.1511 351.485 40.0531 351.447 39.9617C351.409 39.8703 351.353 39.7874 351.283 39.7176L348.058 36.5001Z" fill="#88898A"/>
<text fill="#5E6063" style="white-space: pre" xml:space="preserve" font-family="Basier Circle" font-size="14" letter-spacing="0px"><tspan x="16" y="66.5039">Subtitle</tspan></text>
<rect x="16.7314" y="90.5" width="342" height="47" rx="11.5" stroke="#EFEFEF"/>
<g clip-path="url(#clip0_3913_5489)">
<g filter="url(#filter0_d_3913_5489)">
<g clip-path="url(#clip1_3913_5489)">
<path d="M32.2314 114C32.2314 107.373 37.604 102 44.2314 102C50.8589 102 56.2314 107.373 56.2314 114C56.2314 120.627 50.8589 126 44.2314 126C37.604 126 32.2314 120.627 32.2314 114Z" fill="#AE285D"/>
<path d="M52.2005 119.316H47.2433L44.2334 114.125H49.1899L52.2005 119.316Z" fill="white"/>
<path d="M44.2154 105.656L46.7011 109.883L41.2104 119.317H36.2627L44.2154 105.656Z" fill="white"/>
</g>
</g>
</g>
<text fill="#223466" style="white-space: pre" xml:space="preserve" font-family="Basier Circle" font-size="15" letter-spacing="0px"><tspan x="68.2314" y="119.339">Heading</tspan></text>
<path fill-rule="evenodd" clip-rule="evenodd" d="M338.356 110.21L330.036 118.62C329.786 118.873 329.457 119 329.131 119C328.802 119 328.476 118.873 328.225 118.62L324.607 114.962C324.106 114.456 324.106 113.637 324.607 113.132C325.107 112.626 325.917 112.626 326.417 113.132L329.131 115.876L336.547 108.379C337.046 107.874 337.856 107.874 338.356 108.379C338.857 108.885 338.857 109.704 338.356 110.21Z" fill="#88898A"/>
<rect x="16.7314" y="146.5" width="342" height="47" rx="11.5" stroke="#EFEFEF"/>
<g clip-path="url(#clip2_3913_5489)">
<g filter="url(#filter1_d_3913_5489)">
<g clip-path="url(#clip3_3913_5489)">
<path d="M32.2314 170C32.2314 163.373 37.604 158 44.2314 158C50.8589 158 56.2314 163.373 56.2314 170C56.2314 176.627 50.8589 182 44.2314 182C37.604 182 32.2314 176.627 32.2314 170Z" fill="#9C1D26"/>
<path d="M50.872 163.359H37.5908V176.641H50.872V163.359Z" fill="white"/>
<path d="M49.8656 164.556H38.5967V175.883H49.8656V164.556Z" fill="#9C1D26"/>
<path d="M48.6986 165.593H39.8848V167.826H48.6986V165.593Z" fill="white"/>
<path d="M45.3582 168.903H39.8848V170.977H45.3582V168.903Z" fill="white"/>
<path d="M42.219 172.173H39.8848V174.367H42.219V172.173Z" fill="white"/>
</g>
</g>
</g>
<text fill="#223466" style="white-space: pre" xml:space="preserve" font-family="Basier Circle" font-size="15" letter-spacing="0px"><tspan x="68.2314" y="175.339">Heading</tspan></text>
<path fill-rule="evenodd" clip-rule="evenodd" d="M338.356 166.21L330.036 174.62C329.786 174.873 329.457 175 329.131 175C328.802 175 328.476 174.873 328.225 174.62L324.607 170.962C324.106 170.456 324.106 169.637 324.607 169.132C325.107 168.626 325.917 168.626 326.417 169.132L329.131 171.876L336.547 164.379C337.046 163.874 337.856 163.874 338.356 164.379C338.857 164.885 338.857 165.704 338.356 166.21Z" fill="#88898A"/>
<rect x="16.7314" y="202.5" width="342" height="47" rx="11.5" stroke="#EFEFEF"/>
<g clip-path="url(#clip4_3913_5489)">
<g filter="url(#filter2_d_3913_5489)">
<g clip-path="url(#clip5_3913_5489)">
<path d="M32.2314 226C32.2314 219.373 37.604 214 44.2314 214C50.8589 214 56.2314 219.373 56.2314 226C56.2314 232.627 50.8589 238 44.2314 238C37.604 238 32.2314 232.627 32.2314 226Z" fill="white"/>
<path d="M34.3633 228.571H54.1005V224.28H34.3633V228.571Z" fill="white"/>
<path d="M34.5049 228.433H53.9601V224.418H34.5049V228.433Z" fill="#2B61AB"/>
<path fill-rule="evenodd" clip-rule="evenodd" d="M36.2568 227.431H36.7419V226.46L37.5308 225.426H37.0134L36.543 226.06L36.1151 225.426H35.5254L36.2568 226.48V227.431Z" fill="white"/>
<path fill-rule="evenodd" clip-rule="evenodd" d="M37.7412 227.431H39.0121V227.009H38.2147V226.612H38.8881V226.202H38.2147V225.839H39.0006V225.426H37.7412V227.431Z" fill="white"/>
<path fill-rule="evenodd" clip-rule="evenodd" d="M39.4665 226.865L39.5068 227.4C39.6093 227.431 39.7051 227.455 39.7956 227.472C39.8856 227.488 39.9703 227.496 40.0493 227.496C40.2842 227.492 40.4668 227.43 40.5971 227.311C40.7274 227.19 40.7933 227.034 40.7954 226.842C40.7927 226.686 40.7452 226.561 40.6526 226.468C40.56 226.375 40.4381 226.29 40.2869 226.213L40.0467 226.083C39.9991 226.057 39.9635 226.029 39.9405 225.998C39.917 225.968 39.9049 225.935 39.9049 225.902C39.9061 225.851 39.9253 225.812 39.9646 225.783C40.0033 225.755 40.0577 225.74 40.1278 225.74C40.1833 225.74 40.2544 225.754 40.3408 225.785C40.4271 225.815 40.5244 225.863 40.6338 225.93V225.46C40.537 225.427 40.4454 225.402 40.3596 225.385C40.2743 225.367 40.1927 225.358 40.1163 225.358C39.9112 225.361 39.7495 225.414 39.6308 225.516C39.512 225.618 39.4518 225.749 39.4492 225.91C39.4488 226.029 39.4812 226.135 39.546 226.229C39.6109 226.323 39.7103 226.408 39.8448 226.482L39.9834 226.559C40.0886 226.616 40.1717 226.665 40.2319 226.708C40.2926 226.752 40.323 226.807 40.3245 226.873C40.3241 226.93 40.2989 226.976 40.2502 227.013C40.2016 227.049 40.133 227.068 40.0441 227.069C39.9468 227.069 39.8521 227.05 39.759 227.014C39.6669 226.977 39.569 226.928 39.4665 226.865Z" fill="white"/>
<path fill-rule="evenodd" clip-rule="evenodd" d="M48.752 227.431H49.0988V226.156L50.4194 227.496H50.4571V225.426H50.1076V226.7L48.7896 225.36H48.752V227.431Z" fill="white"/>
<path fill-rule="evenodd" clip-rule="evenodd" d="M51.1094 227.431H51.4646V226.494L52.3865 227.431H52.849L51.8173 226.389L52.7507 225.426H52.3347L51.4646 226.321V225.426H51.1094V227.431Z" fill="white"/>
<path fill-rule="evenodd" clip-rule="evenodd" d="M45.7683 222.057L41.2834 229.943L39.7441 228.434H40.8052L45.7683 222.057Z" fill="white"/>
<path fill-rule="evenodd" clip-rule="evenodd" d="M45.2072 222.904L41.2528 229.718L40.084 228.572H40.8756L45.2072 222.904Z" fill="#D71C23"/>
<path fill-rule="evenodd" clip-rule="evenodd" d="M47.0619 226.788L47.3999 226.04L47.7322 226.788H47.0619ZM46.7611 227.431L46.9285 227.074H47.8593L48.0241 227.431H48.4024L47.4318 225.36H47.4025L46.3975 227.431H46.7611Z" fill="white"/>
<path fill-rule="evenodd" clip-rule="evenodd" d="M45.1697 226.259V225.692H45.3665C45.4994 225.691 45.5988 225.712 45.6642 225.755C45.7301 225.798 45.7625 225.867 45.7625 225.961C45.7622 226.053 45.7285 226.125 45.6626 226.178C45.5972 226.231 45.503 226.257 45.3806 226.259H45.1697ZM45.1701 227.15L45.1697 226.525H45.4214C45.5475 226.525 45.6427 226.553 45.7076 226.605C45.773 226.659 45.8055 226.734 45.806 226.831C45.8056 226.933 45.7719 227.013 45.706 227.068C45.6401 227.123 45.5475 227.15 45.4256 227.151L45.1701 227.15ZM44.8232 227.431V225.426H45.4338C45.6007 225.426 45.8069 225.452 45.944 225.557C46.0575 225.643 46.1145 225.769 46.1145 225.935C46.1149 226.036 46.0884 226.123 46.035 226.194C45.9821 226.265 45.9005 226.321 45.7912 226.36C45.9089 226.39 45.9999 226.447 46.0638 226.53C46.1276 226.614 46.16 226.719 46.1605 226.845C46.1605 227.041 46.0957 227.188 45.9654 227.286C45.8351 227.383 45.6394 227.431 45.3779 227.431L44.8238 227.431L44.8232 227.431Z" fill="white"/>
</g>
</g>
</g>
<text fill="#223466" style="white-space: pre" xml:space="preserve" font-family="Basier Circle" font-size="15" letter-spacing="0px"><tspan x="68.2314" y="231.339">Heading</tspan></text>
<path fill-rule="evenodd" clip-rule="evenodd" d="M338.356 222.21L330.036 230.62C329.786 230.873 329.457 231 329.131 231C328.802 231 328.476 230.873 328.225 230.62L324.607 226.962C324.106 226.456 324.106 225.637 324.607 225.132C325.107 224.626 325.917 224.626 326.417 225.132L329.131 227.876L336.547 220.379C337.046 219.874 337.856 219.874 338.356 220.379C338.857 220.885 338.857 221.704 338.356 222.21Z" fill="#88898A"/>
<rect x="16" y="270" width="343.463" height="50" rx="25" fill="#089959"/>
<text fill="#FFFFFE" style="white-space: pre" xml:space="preserve" font-family="Basier Circle" font-size="16" letter-spacing="0px"><tspan x="162.114" y="300.695">Button</tspan></text>
<defs>
<filter id="filter0_d_3913_5489" x="26.2314" y="97" width="36" height="36" filterUnits="userSpaceOnUse" color-interpolation-filters="sRGB">
<feFlood flood-opacity="0" result="BackgroundImageFix"/>
<feColorMatrix in="SourceAlpha" type="matrix" values="0 0 0 0 0 0 0 0 0 0 0 0 0 0 0 0 0 0 127 0" result="hardAlpha"/>
<feOffset dy="1"/>
<feGaussianBlur stdDeviation="3"/>
<feComposite in2="hardAlpha" operator="out"/>
<feColorMatrix type="matrix" values="0 0 0 0 0 0 0 0 0 0 0 0 0 0 0 0 0 0 0.08 0"/>
<feBlend mode="normal" in2="BackgroundImageFix" result="effect1_dropShadow_3913_5489"/>
<feBlend mode="normal" in="SourceGraphic" in2="effect1_dropShadow_3913_5489" result="shape"/>
</filter>
<filter id="filter1_d_3913_5489" x="26.2314" y="153" width="36" height="36" filterUnits="userSpaceOnUse" color-interpolation-filters="sRGB">
<feFlood flood-opacity="0" result="BackgroundImageFix"/>
<feColorMatrix in="SourceAlpha" type="matrix" values="0 0 0 0 0 0 0 0 0 0 0 0 0 0 0 0 0 0 127 0" result="hardAlpha"/>
<feOffset dy="1"/>
<feGaussianBlur stdDeviation="3"/>
<feComposite in2="hardAlpha" operator="out"/>
<feColorMatrix type="matrix" values="0 0 0 0 0 0 0 0 0 0 0 0 0 0 0 0 0 0 0.08 0"/>
<feBlend mode="normal" in2="BackgroundImageFix" result="effect1_dropShadow_3913_5489"/>
<feBlend mode="normal" in="SourceGraphic" in2="effect1_dropShadow_3913_5489" result="shape"/>
</filter>
<filter id="filter2_d_3913_5489" x="26.2314" y="209" width="36" height="36" filterUnits="userSpaceOnUse" color-interpolation-filters="sRGB">
<feFlood flood-opacity="0" result="BackgroundImageFix"/>
<feColorMatrix in="SourceAlpha" type="matrix" values="0 0 0 0 0 0 0 0 0 0 0 0 0 0 0 0 0 0 127 0" result="hardAlpha"/>
<feOffset dy="1"/>
<feGaussianBlur stdDeviation="3"/>
<feComposite in2="hardAlpha" operator="out"/>
<feColorMatrix type="matrix" values="0 0 0 0 0 0 0 0 0 0 0 0 0 0 0 0 0 0 0.08 0"/>
<feBlend mode="normal" in2="BackgroundImageFix" result="effect1_dropShadow_3913_5489"/>
<feBlend mode="normal" in="SourceGraphic" in2="effect1_dropShadow_3913_5489" result="shape"/>
</filter>
<clipPath id="clip0_3913_5489">
<rect width="24" height="24" fill="white" transform="translate(32.2314 102)"/>
</clipPath>
<clipPath id="clip1_3913_5489">
<path d="M32.2314 114C32.2314 107.373 37.604 102 44.2314 102C50.8589 102 56.2314 107.373 56.2314 114C56.2314 120.627 50.8589 126 44.2314 126C37.604 126 32.2314 120.627 32.2314 114Z" fill="white"/>
</clipPath>
<clipPath id="clip2_3913_5489">
<rect width="24" height="24" fill="white" transform="translate(32.2314 158)"/>
</clipPath>
<clipPath id="clip3_3913_5489">
<path d="M32.2314 170C32.2314 163.373 37.604 158 44.2314 158C50.8589 158 56.2314 163.373 56.2314 170C56.2314 176.627 50.8589 182 44.2314 182C37.604 182 32.2314 176.627 32.2314 170Z" fill="white"/>
</clipPath>
<clipPath id="clip4_3913_5489">
<rect width="24" height="24" fill="white" transform="translate(32.2314 214)"/>
</clipPath>
<clipPath id="clip5_3913_5489">
<path d="M32.2314 226C32.2314 219.373 37.604 214 44.2314 214C50.8589 214 56.2314 219.373 56.2314 226C56.2314 232.627 50.8589 238 44.2314 238C37.604 238 32.2314 232.627 32.2314 226Z" fill="white"/>
</clipPath>
</defs>
</svg>
