<svg width="343" height="216" viewBox="0 0 343 216" fill="none" xmlns="http://www.w3.org/2000/svg">
<rect x="0.5" y="0.5" width="342" height="47" rx="11.5" stroke="#017AFE"/>
<g clip-path="url(#clip0_3904_38149)">
<g filter="url(#filter0_d_3904_38149)">
<g clip-path="url(#clip1_3904_38149)">
<path d="M16 24C16 17.3726 21.3726 12 28 12C34.6274 12 40 17.3726 40 24C40 30.6274 34.6274 36 28 36C21.3726 36 16 30.6274 16 24Z" fill="#AE285D"/>
<path d="M35.969 29.3162H31.0119L28.002 24.1255H32.9584L35.969 29.3162Z" fill="white"/>
<path d="M27.9839 15.6558L30.4696 19.8832L24.9789 29.3165H20.0312L27.9839 15.6558Z" fill="white"/>
</g>
</g>
</g>
<text fill="#223466" style="white-space: pre" xml:space="preserve" font-family="Basier Circle" font-size="15" letter-spacing="0px"><tspan x="52" y="29.3394">Heading</tspan></text>
<path fill-rule="evenodd" clip-rule="evenodd" d="M322.125 20.2097L313.804 28.6204C313.555 28.8727 313.225 29 312.899 29C312.571 29 312.244 28.8727 311.994 28.6204L308.375 24.9625C307.875 24.4563 307.875 23.6375 308.375 23.1319C308.875 22.6263 309.685 22.6263 310.186 23.1319L312.899 25.876L320.315 18.3788C320.815 17.8737 321.624 17.8737 322.125 18.3788C322.625 18.8853 322.625 19.704 322.125 20.2097Z" fill="#089958"/>
<rect x="0.5" y="56.5" width="342" height="47" rx="11.5" stroke="#EFEFEF"/>
<g clip-path="url(#clip2_3904_38149)">
<g filter="url(#filter1_d_3904_38149)">
<g clip-path="url(#clip3_3904_38149)">
<path d="M16 80C16 73.3726 21.3726 68 28 68C34.6274 68 40 73.3726 40 80C40 86.6274 34.6274 92 28 92C21.3726 92 16 86.6274 16 80Z" fill="#9C1D26"/>
<path d="M34.6406 73.3594H21.3594V86.6405H34.6406V73.3594Z" fill="white"/>
<path d="M33.6341 74.5557H22.3652V85.8825H33.6341V74.5557Z" fill="#9C1D26"/>
<path d="M32.4681 75.5928H23.6543V77.8262H32.4681V75.5928Z" fill="white"/>
<path d="M29.1278 78.9033H23.6543V80.9773H29.1278V78.9033Z" fill="white"/>
<path d="M25.9886 82.1733H23.6543V84.3669H25.9886V82.1733Z" fill="white"/>
</g>
</g>
</g>
<text fill="#223466" style="white-space: pre" xml:space="preserve" font-family="Basier Circle" font-size="15" letter-spacing="0px"><tspan x="52" y="85.3394">Heading</tspan></text>
<path fill-rule="evenodd" clip-rule="evenodd" d="M322.125 76.2097L313.804 84.6204C313.555 84.8727 313.225 85 312.899 85C312.571 85 312.244 84.8727 311.994 84.6204L308.375 80.9625C307.875 80.4563 307.875 79.6375 308.375 79.1319C308.875 78.6263 309.685 78.6263 310.186 79.1319L312.899 81.876L320.315 74.3788C320.815 73.8737 321.624 73.8737 322.125 74.3788C322.625 74.8853 322.625 75.704 322.125 76.2097Z" fill="#88898A"/>
<rect x="0.5" y="112.5" width="342" height="47" rx="11.5" stroke="#EFEFEF"/>
<g clip-path="url(#clip4_3904_38149)">
<g filter="url(#filter2_d_3904_38149)">
<g clip-path="url(#clip5_3904_38149)">
<path d="M16 136C16 129.373 21.3726 124 28 124C34.6274 124 40 129.373 40 136C40 142.627 34.6274 148 28 148C21.3726 148 16 142.627 16 136Z" fill="white"/>
<path d="M18.1309 138.571H37.8681V134.28H18.1309V138.571Z" fill="white"/>
<path d="M18.2715 138.433H37.7267V134.418H18.2715V138.433Z" fill="#2B61AB"/>
<path fill-rule="evenodd" clip-rule="evenodd" d="M20.0244 137.431H20.5094V136.46L21.2984 135.426H20.781L20.3106 136.06L19.8826 135.426H19.293L20.0244 136.48V137.431Z" fill="white"/>
<path fill-rule="evenodd" clip-rule="evenodd" d="M21.5098 137.431H22.7806V137.009H21.9833V136.612H22.6566V136.202H21.9833V135.839H22.7691V135.426H21.5098V137.431Z" fill="white"/>
<path fill-rule="evenodd" clip-rule="evenodd" d="M23.234 136.865L23.2744 137.4C23.3769 137.431 23.4726 137.455 23.5632 137.472C23.6532 137.488 23.7379 137.496 23.8169 137.496C24.0518 137.492 24.2344 137.43 24.3647 137.311C24.495 137.19 24.5609 137.034 24.563 136.842C24.5603 136.686 24.5128 136.561 24.4202 136.468C24.3275 136.375 24.2056 136.29 24.0544 136.213L23.8143 136.083C23.7667 136.057 23.7311 136.029 23.7081 135.998C23.6845 135.968 23.6725 135.935 23.6725 135.902C23.6736 135.851 23.6929 135.812 23.7321 135.783C23.7709 135.755 23.8253 135.74 23.8954 135.74C23.9508 135.74 24.022 135.754 24.1083 135.785C24.1947 135.815 24.292 135.863 24.4013 135.93V135.46C24.3045 135.427 24.213 135.402 24.1272 135.385C24.0419 135.367 23.9603 135.358 23.8839 135.358C23.6788 135.361 23.5171 135.414 23.3983 135.516C23.2796 135.618 23.2194 135.749 23.2168 135.91C23.2164 136.029 23.2487 136.135 23.3136 136.229C23.3785 136.323 23.4779 136.408 23.6123 136.482L23.751 136.559C23.8562 136.616 23.9393 136.665 23.9995 136.708C24.0602 136.752 24.0905 136.807 24.0921 136.873C24.0917 136.93 24.0665 136.976 24.0178 137.013C23.9692 137.049 23.9006 137.068 23.8117 137.069C23.7144 137.069 23.6197 137.05 23.5265 137.014C23.4344 136.977 23.3366 136.928 23.234 136.865Z" fill="white"/>
<path fill-rule="evenodd" clip-rule="evenodd" d="M32.5195 137.431H32.8664V136.156L34.187 137.496H34.2247V135.426H33.8751V136.7L32.5572 135.36H32.5195V137.431Z" fill="white"/>
<path fill-rule="evenodd" clip-rule="evenodd" d="M34.877 137.431H35.2322V136.494L36.1541 137.431H36.6166L35.5848 136.389L36.5182 135.426H36.1023L35.2322 136.321V135.426H34.877V137.431Z" fill="white"/>
<path fill-rule="evenodd" clip-rule="evenodd" d="M29.5358 132.057L25.051 139.943L23.5117 138.434H24.5728L29.5358 132.057Z" fill="white"/>
<path fill-rule="evenodd" clip-rule="evenodd" d="M28.9747 132.904L25.0204 139.718L23.8516 138.572H24.6432L28.9747 132.904Z" fill="#D71C23"/>
<path fill-rule="evenodd" clip-rule="evenodd" d="M30.8285 136.788L31.1665 136.04L31.4988 136.788H30.8285ZM30.5277 137.431L30.6951 137.074H31.6259L31.7907 137.431H32.169L31.1984 135.36H31.1691L30.1641 137.431H30.5277Z" fill="white"/>
<path fill-rule="evenodd" clip-rule="evenodd" d="M28.9364 136.259V135.692H29.1331C29.266 135.691 29.3654 135.712 29.4308 135.755C29.4967 135.798 29.5291 135.867 29.5291 135.961C29.5288 136.053 29.4951 136.125 29.4292 136.178C29.3638 136.231 29.2696 136.257 29.1472 136.259H28.9364ZM28.9367 137.15L28.9364 136.525H29.188C29.3141 136.525 29.4093 136.553 29.4742 136.605C29.5396 136.659 29.5721 136.734 29.5726 136.831C29.5722 136.933 29.5385 137.013 29.4726 137.068C29.4067 137.123 29.3141 137.15 29.1922 137.151L28.9367 137.15ZM28.5898 137.431V135.426H29.2004C29.3673 135.426 29.5735 135.452 29.7106 135.557C29.8241 135.643 29.8811 135.769 29.8811 135.935C29.8815 136.036 29.855 136.123 29.8016 136.194C29.7487 136.265 29.6671 136.321 29.5578 136.36C29.6755 136.39 29.7665 136.447 29.8304 136.53C29.8942 136.614 29.9266 136.719 29.9271 136.845C29.9271 137.041 29.8623 137.188 29.732 137.286C29.6017 137.383 29.406 137.431 29.1445 137.431L28.5904 137.431L28.5898 137.431Z" fill="white"/>
</g>
</g>
</g>
<text fill="#223466" style="white-space: pre" xml:space="preserve" font-family="Basier Circle" font-size="15" letter-spacing="0px"><tspan x="52" y="141.339">Heading</tspan></text>
<path fill-rule="evenodd" clip-rule="evenodd" d="M322.125 132.21L313.804 140.62C313.555 140.873 313.225 141 312.899 141C312.571 141 312.244 140.873 311.994 140.62L308.375 136.962C307.875 136.456 307.875 135.637 308.375 135.132C308.875 134.626 309.685 134.626 310.186 135.132L312.899 137.876L320.315 130.379C320.815 129.874 321.624 129.874 322.125 130.379C322.625 130.885 322.625 131.704 322.125 132.21Z" fill="#88898A"/>
<rect x="0.5" y="168.5" width="342" height="47" rx="11.5" stroke="#EFEFEF"/>
<g clip-path="url(#clip6_3904_38149)">
<g filter="url(#filter3_d_3904_38149)">
<g clip-path="url(#clip7_3904_38149)">
<path d="M16 192C16 185.373 21.3726 180 28 180C34.6274 180 40 185.373 40 192C40 198.627 34.6274 204 28 204C21.3726 204 16 198.627 16 192Z" fill="#FEFEFE"/>
<path d="M24.7443 187.403C28.4563 183.718 32.9596 182.762 34.7618 185.274C36.5639 187.785 34.9801 192.861 31.268 196.546C27.5559 200.258 23.0526 201.213 21.2232 198.674C19.4497 196.137 21.0336 191.087 24.7443 187.403Z" fill="#F06321"/>
<path d="M27.2009 185.437C26.7917 185.737 26.3824 186.092 25.9731 186.475C22.7249 189.695 21.3593 194.116 22.9705 196.328C24.6348 198.538 28.6197 197.719 31.9498 194.471C33.7519 192.725 34.9525 190.704 35.4436 188.822C35.58 187.43 35.389 186.201 34.7615 185.273C33.3427 183.309 30.2855 183.471 27.2009 185.437Z" fill="#AE282E"/>
<path d="M31.8952 185.846V185.928C31.868 186.392 31.5951 186.965 31.104 187.456C30.3673 188.166 29.385 188.439 28.9744 188.031C28.5106 187.594 28.7848 186.638 29.5215 185.874C30.2854 185.137 31.2677 184.892 31.677 185.328C31.8134 185.465 31.8952 185.628 31.8952 185.846ZM29.0576 198.374C27.3101 199.684 25.5093 200.34 23.7617 200.067C24.4984 200.094 25.1 199.275 25.5911 198.183C26.0823 197.065 26.3551 196.028 26.6007 195.044C26.9554 193.489 26.9827 192.397 26.7917 192.152C26.4915 191.769 25.8367 191.852 25.0714 192.288C24.6894 192.507 24.1983 192.37 24.7726 191.661C25.3729 190.951 27.692 189.258 28.5106 188.986C29.4396 188.74 30.4764 189.095 30.1217 190.104C29.8748 190.841 26.6552 199.247 29.0576 198.374Z" fill="white"/>
</g>
</g>
</g>
<text fill="#223466" style="white-space: pre" xml:space="preserve" font-family="Basier Circle" font-size="15" letter-spacing="0px"><tspan x="52" y="197.339">Heading</tspan></text>
<path fill-rule="evenodd" clip-rule="evenodd" d="M322.125 188.21L313.804 196.62C313.555 196.873 313.225 197 312.899 197C312.571 197 312.244 196.873 311.994 196.62L308.375 192.962C307.875 192.456 307.875 191.637 308.375 191.132C308.875 190.626 309.685 190.626 310.186 191.132L312.899 193.876L320.315 186.379C320.815 185.874 321.624 185.874 322.125 186.379C322.625 186.885 322.625 187.704 322.125 188.21Z" fill="#88898A"/>
<defs>
<filter id="filter0_d_3904_38149" x="10" y="7" width="36" height="36" filterUnits="userSpaceOnUse" color-interpolation-filters="sRGB">
<feFlood flood-opacity="0" result="BackgroundImageFix"/>
<feColorMatrix in="SourceAlpha" type="matrix" values="0 0 0 0 0 0 0 0 0 0 0 0 0 0 0 0 0 0 127 0" result="hardAlpha"/>
<feOffset dy="1"/>
<feGaussianBlur stdDeviation="3"/>
<feComposite in2="hardAlpha" operator="out"/>
<feColorMatrix type="matrix" values="0 0 0 0 0 0 0 0 0 0 0 0 0 0 0 0 0 0 0.08 0"/>
<feBlend mode="normal" in2="BackgroundImageFix" result="effect1_dropShadow_3904_38149"/>
<feBlend mode="normal" in="SourceGraphic" in2="effect1_dropShadow_3904_38149" result="shape"/>
</filter>
<filter id="filter1_d_3904_38149" x="10" y="63" width="36" height="36" filterUnits="userSpaceOnUse" color-interpolation-filters="sRGB">
<feFlood flood-opacity="0" result="BackgroundImageFix"/>
<feColorMatrix in="SourceAlpha" type="matrix" values="0 0 0 0 0 0 0 0 0 0 0 0 0 0 0 0 0 0 127 0" result="hardAlpha"/>
<feOffset dy="1"/>
<feGaussianBlur stdDeviation="3"/>
<feComposite in2="hardAlpha" operator="out"/>
<feColorMatrix type="matrix" values="0 0 0 0 0 0 0 0 0 0 0 0 0 0 0 0 0 0 0.08 0"/>
<feBlend mode="normal" in2="BackgroundImageFix" result="effect1_dropShadow_3904_38149"/>
<feBlend mode="normal" in="SourceGraphic" in2="effect1_dropShadow_3904_38149" result="shape"/>
</filter>
<filter id="filter2_d_3904_38149" x="10" y="119" width="36" height="36" filterUnits="userSpaceOnUse" color-interpolation-filters="sRGB">
<feFlood flood-opacity="0" result="BackgroundImageFix"/>
<feColorMatrix in="SourceAlpha" type="matrix" values="0 0 0 0 0 0 0 0 0 0 0 0 0 0 0 0 0 0 127 0" result="hardAlpha"/>
<feOffset dy="1"/>
<feGaussianBlur stdDeviation="3"/>
<feComposite in2="hardAlpha" operator="out"/>
<feColorMatrix type="matrix" values="0 0 0 0 0 0 0 0 0 0 0 0 0 0 0 0 0 0 0.08 0"/>
<feBlend mode="normal" in2="BackgroundImageFix" result="effect1_dropShadow_3904_38149"/>
<feBlend mode="normal" in="SourceGraphic" in2="effect1_dropShadow_3904_38149" result="shape"/>
</filter>
<filter id="filter3_d_3904_38149" x="10" y="175" width="36" height="36" filterUnits="userSpaceOnUse" color-interpolation-filters="sRGB">
<feFlood flood-opacity="0" result="BackgroundImageFix"/>
<feColorMatrix in="SourceAlpha" type="matrix" values="0 0 0 0 0 0 0 0 0 0 0 0 0 0 0 0 0 0 127 0" result="hardAlpha"/>
<feOffset dy="1"/>
<feGaussianBlur stdDeviation="3"/>
<feComposite in2="hardAlpha" operator="out"/>
<feColorMatrix type="matrix" values="0 0 0 0 0 0 0 0 0 0 0 0 0 0 0 0 0 0 0.08 0"/>
<feBlend mode="normal" in2="BackgroundImageFix" result="effect1_dropShadow_3904_38149"/>
<feBlend mode="normal" in="SourceGraphic" in2="effect1_dropShadow_3904_38149" result="shape"/>
</filter>
<clipPath id="clip0_3904_38149">
<rect width="24" height="24" fill="white" transform="translate(16 12)"/>
</clipPath>
<clipPath id="clip1_3904_38149">
<path d="M16 24C16 17.3726 21.3726 12 28 12C34.6274 12 40 17.3726 40 24C40 30.6274 34.6274 36 28 36C21.3726 36 16 30.6274 16 24Z" fill="white"/>
</clipPath>
<clipPath id="clip2_3904_38149">
<rect width="24" height="24" fill="white" transform="translate(16 68)"/>
</clipPath>
<clipPath id="clip3_3904_38149">
<path d="M16 80C16 73.3726 21.3726 68 28 68C34.6274 68 40 73.3726 40 80C40 86.6274 34.6274 92 28 92C21.3726 92 16 86.6274 16 80Z" fill="white"/>
</clipPath>
<clipPath id="clip4_3904_38149">
<rect width="24" height="24" fill="white" transform="translate(16 124)"/>
</clipPath>
<clipPath id="clip5_3904_38149">
<path d="M16 136C16 129.373 21.3726 124 28 124C34.6274 124 40 129.373 40 136C40 142.627 34.6274 148 28 148C21.3726 148 16 142.627 16 136Z" fill="white"/>
</clipPath>
<clipPath id="clip6_3904_38149">
<rect width="24" height="24" fill="white" transform="translate(16 180)"/>
</clipPath>
<clipPath id="clip7_3904_38149">
<path d="M16 192C16 185.373 21.3726 180 28 180C34.6274 180 40 185.373 40 192C40 198.627 34.6274 204 28 204C21.3726 204 16 198.627 16 192Z" fill="white"/>
</clipPath>
</defs>
</svg>
