<svg width="375" height="44" viewBox="0 0 375 44" fill="none" xmlns="http://www.w3.org/2000/svg">
<g clip-path="url(#clip0_1623_46404)">
<path fill-rule="evenodd" clip-rule="evenodd" d="M338.5 18C337.119 18 336 19.1193 336 20.5V26C336 27.3807 337.119 28.5 338.5 28.5H354.469H355.5C356.881 28.5 358 27.3807 358 26V20.5C358 19.1193 356.881 18 355.5 18H338.5ZM339 19C337.895 19 337 19.8954 337 21V25.5C337 26.6046 337.895 27.5 339 27.5H353.469H355C356.105 27.5 357 26.6046 357 25.5V21C357 19.8954 356.105 19 355 19H339Z" fill="#121313"/>
<path fill-rule="evenodd" clip-rule="evenodd" d="M359 25.3745C359.863 25.1524 360.5 24.3694 360.5 23.4375C360.5 22.5056 359.863 21.7225 359 21.5005V25.3745Z" fill="#121313"/>
<rect x="338" y="20" width="18" height="6.5" rx="1" fill="#393B3E"/>
<path fill-rule="evenodd" clip-rule="evenodd" d="M323.33 19.6094C325.546 19.6095 327.677 20.4609 329.283 21.9877C329.404 22.1056 329.597 22.1041 329.716 21.9844L330.872 20.8177C330.933 20.757 330.966 20.6747 330.966 20.5891C330.965 20.5036 330.931 20.4217 330.87 20.3617C326.655 16.3221 320.005 16.3221 315.79 20.3617C315.729 20.4217 315.694 20.5035 315.693 20.5891C315.693 20.6746 315.726 20.7569 315.787 20.8177L316.943 21.9844C317.062 22.1043 317.255 22.1057 317.376 21.9877C318.982 20.4608 321.114 19.6094 323.33 19.6094ZM323.329 23.4059C324.546 23.4058 325.72 23.8584 326.623 24.6756C326.745 24.7916 326.937 24.789 327.056 24.6699L328.211 23.5032C328.272 23.442 328.305 23.359 328.304 23.2728C328.304 23.1865 328.268 23.1042 328.206 23.0442C325.458 20.4879 321.202 20.4879 318.454 23.0442C318.392 23.1042 318.356 23.1865 318.355 23.2728C318.355 23.3591 318.389 23.4421 318.449 23.5032L319.604 24.6699C319.723 24.789 319.915 24.7916 320.037 24.6756C320.939 23.8589 322.112 23.4064 323.329 23.4059ZM325.548 26.188C325.61 26.1274 325.644 26.044 325.642 25.9575C325.64 25.871 325.603 25.7891 325.539 25.731C324.263 24.6522 322.395 24.6522 321.119 25.731C321.055 25.789 321.018 25.8709 321.016 25.9575C321.014 26.044 321.048 26.1274 321.11 26.188L323.107 28.2037C323.166 28.2629 323.246 28.2963 323.329 28.2963C323.412 28.2963 323.492 28.2629 323.551 28.2037L325.548 26.188Z" fill="#393B3E"/>
<path fill-rule="evenodd" clip-rule="evenodd" d="M294.666 24.3359H295.666C296.218 24.3359 296.666 24.7837 296.666 25.3359V27.3359C296.666 27.8882 296.218 28.3359 295.666 28.3359H294.666C294.114 28.3359 293.666 27.8882 293.666 27.3359V25.3359C293.666 24.7837 294.114 24.3359 294.666 24.3359ZM299.332 22.3359H300.332C300.884 22.3359 301.332 22.7837 301.332 23.3359V27.3359C301.332 27.8882 300.884 28.3359 300.332 28.3359H299.332C298.78 28.3359 298.332 27.8882 298.332 27.3359V23.3359C298.332 22.7837 298.78 22.3359 299.332 22.3359ZM304 20H305C305.552 20 306 20.4477 306 21V27.3333C306 27.8856 305.552 28.3333 305 28.3333H304C303.448 28.3333 303 27.8856 303 27.3333V21C303 20.4477 303.448 20 304 20ZM308.666 17.668H309.666C310.218 17.668 310.666 18.1157 310.666 18.668V27.3346C310.666 27.8869 310.218 28.3346 309.666 28.3346H308.666C308.114 28.3346 307.666 27.8869 307.666 27.3346V18.668C307.666 18.1157 308.114 17.668 308.666 17.668Z" fill="#393B3E"/>
<g clip-path="url(#clip1_1623_46404)">
<text fill="#121313" style="white-space: pre" xml:space="preserve" font-family="Mulish" font-size="15" letter-spacing="-0.3px"><tspan x="32.9153" y="29.1625">9:41</tspan></text>
</g>
<rect opacity="0.9" x="126.5" y="12" width="122" height="20" rx="10" fill="#191C1E"/>
</g>
<defs>
<clipPath id="clip0_1623_46404">
<rect width="375" height="44" fill="white"/>
</clipPath>
<clipPath id="clip1_1623_46404">
<rect width="54" height="18" fill="white" transform="translate(21 14)"/>
</clipPath>
</defs>
</svg>
