<svg width="399" height="96" viewBox="0 0 399 96" fill="none" xmlns="http://www.w3.org/2000/svg">
<g filter="url(#filter0_ddd_6994_54970)">
<rect width="375" height="72" transform="translate(12 11)" fill="white"/>
<path d="M202.796 32.9389C203.106 33.2138 203.58 33.1855 203.855 32.8756C204.13 32.5658 204.102 32.0917 203.792 31.8168L203.294 32.3779L202.796 32.9389ZM199.5 29.0121L199.998 28.451C199.714 28.1991 199.286 28.1991 199.002 28.451L199.5 29.0121ZM195.209 31.8168C194.899 32.0917 194.871 32.5658 195.145 32.8756C195.42 33.1855 195.894 33.2138 196.204 32.9389L195.706 32.3779L195.209 31.8168ZM202.796 29.2726C203.106 29.5474 203.58 29.5191 203.855 29.2093C204.13 28.8994 204.102 28.4254 203.792 28.1505L203.294 28.7115L202.796 29.2726ZM199.5 25.3457L199.998 24.7847C199.714 24.5327 199.286 24.5327 199.002 24.7847L199.5 25.3457ZM195.209 28.1505C194.899 28.4254 194.871 28.8994 195.145 29.2093C195.42 29.5191 195.894 29.5474 196.204 29.2726L195.706 28.7115L195.209 28.1505ZM202.796 36.8238C203.106 37.0987 203.58 37.0704 203.855 36.7605C204.13 36.4507 204.102 35.9766 203.792 35.7017L203.294 36.2628L202.796 36.8238ZM199.5 32.897L199.998 32.3359C199.714 32.084 199.286 32.084 199.002 32.3359L199.5 32.897ZM195.209 35.7017C194.899 35.9766 194.871 36.4507 195.145 36.7605C195.42 37.0704 195.894 37.0987 196.204 36.8238L195.706 36.2628L195.209 35.7017ZM209.786 30.9967H209.036C209.036 36.2631 204.767 40.5324 199.501 40.5324V41.2824V42.0324C205.595 42.0324 210.536 37.0915 210.536 30.9967H209.786ZM199.501 41.2824V40.5324C194.234 40.5324 189.965 36.2631 189.965 30.9967H189.215H188.465C188.465 37.0915 193.406 42.0324 199.501 42.0324V41.2824ZM189.215 30.9967H189.965C189.965 25.7302 194.234 21.4609 199.501 21.4609V20.7109V19.9609C193.406 19.9609 188.465 24.9018 188.465 30.9967H189.215ZM199.501 20.7109V21.4609C204.767 21.4609 209.036 25.7302 209.036 30.9967H209.786H210.536C210.536 24.9018 205.595 19.9609 199.501 19.9609V20.7109ZM203.294 32.3779L203.792 31.8168L199.998 28.451L199.5 29.0121L199.002 29.5731L202.796 32.9389L203.294 32.3779ZM199.5 29.0121L199.002 28.451L195.209 31.8168L195.706 32.3779L196.204 32.9389L199.998 29.5731L199.5 29.0121ZM203.294 28.7115L203.792 28.1505L199.998 24.7847L199.5 25.3457L199.002 25.9067L202.796 29.2726L203.294 28.7115ZM199.5 25.3457L199.002 24.7847L195.209 28.1505L195.706 28.7115L196.204 29.2726L199.998 25.9067L199.5 25.3457ZM203.294 36.2628L203.792 35.7017L199.998 32.3359L199.5 32.897L199.002 33.458L202.796 36.8238L203.294 36.2628ZM199.5 32.897L199.002 32.3359L195.209 35.7017L195.706 36.2628L196.204 36.8238L199.998 33.458L199.5 32.897Z" fill="#88898A"/>
<text fill="#5E6063" style="white-space: pre" xml:space="preserve" font-family="Basier Circle" font-size="12" letter-spacing="0px"><tspan x="169.348" y="60.7891">Dashboard</tspan></text>
<g clip-path="url(#clip0_6994_54970)">
<path d="M49.4141 22.0498H59.585C59.6858 22.0498 59.7673 22.1316 59.7676 22.2324V23.3809C59.7674 23.4817 59.6859 23.5635 59.585 23.5635H55.6191C55.4848 23.5636 55.3867 23.6523 55.3447 23.7598C55.3029 23.8669 55.3132 24.0009 55.4014 24.0986C55.5875 24.305 55.7524 24.53 55.8955 24.7734C56.1184 25.1526 56.2694 25.5905 56.3486 26.0879C56.3709 26.2275 56.4898 26.3358 56.6338 26.3359H59.585C59.6859 26.3359 59.7676 26.4176 59.7676 26.5186V27.666C59.7676 27.767 59.686 27.8496 59.585 27.8496H56.6895C56.5434 27.8496 56.4235 27.9601 56.4043 28.1025C56.2537 29.2181 55.7876 30.0941 55.0078 30.7344C54.2661 31.3409 53.2963 31.7485 52.0967 31.9551C51.8973 31.9897 51.7885 32.2159 51.8965 32.3906L56.3955 39.6709C56.4708 39.7927 56.3834 39.9502 56.2402 39.9502H54.1709C54.1059 39.9501 54.0454 39.9155 54.0127 39.8594L49.2568 31.71C49.2406 31.6821 49.2315 31.6504 49.2314 31.6182V30.8047C49.2314 30.7038 49.3133 30.6213 49.4141 30.6211H49.7471C50.6575 30.6211 51.4247 30.5368 52.0469 30.3672L52.0459 30.3662C52.6865 30.1963 53.1931 29.9164 53.5605 29.5215C53.8812 29.1768 54.0868 28.7227 54.1807 28.1631C54.2089 27.9944 54.0747 27.8497 53.9082 27.8496H49.4141C49.3133 27.8494 49.2314 27.7669 49.2314 27.666V26.5186C49.2315 26.4177 49.3133 26.3362 49.4141 26.3359H53.8584C54.0347 26.3357 54.1726 26.1735 54.126 25.998C54.0084 25.5571 53.8234 25.1797 53.5703 24.8682L53.457 24.7393C53.0902 24.3282 52.594 24.0297 51.9707 23.8428C51.3651 23.6561 50.6235 23.5635 49.7471 23.5635H49.4141C49.3134 23.5632 49.2316 23.4816 49.2314 23.3809V22.2324C49.2317 22.1318 49.3134 22.05 49.4141 22.0498Z" fill="#88898A" stroke="white" stroke-width="0.1"/>
</g>
<text fill="#5E6063" style="white-space: pre" xml:space="preserve" font-family="Basier Circle" font-size="12" letter-spacing="0px"><tspan x="26.082" y="60.7891">INDstocks</tspan></text>
<path d="M318 11H374C374 12.1046 373.105 13 372 13H320C318.895 13 318 12.1046 318 11Z" fill="#017AFE"/>
<g clip-path="url(#clip1_6994_54970)">
<g clip-path="url(#clip2_6994_54970)">
<path d="M352.823 38.3749C353.736 38.3749 354.192 38.3749 354.54 38.2086C354.847 38.0623 355.096 37.8288 355.253 37.5416C355.43 37.2151 355.43 36.7878 355.43 35.933V30.1335C355.43 29.2788 355.43 28.8514 355.253 28.525C355.096 28.2378 354.847 28.0043 354.54 27.858C354.192 27.6917 353.736 27.6917 352.823 27.6917L341.744 27.6917C340.831 27.6917 340.375 27.6917 340.026 27.858C339.72 28.0043 339.471 28.2378 339.314 28.525C339.137 28.8514 339.137 29.2788 339.137 30.1335L339.137 35.933C339.137 36.7878 339.137 37.2151 339.314 37.5416C339.471 37.8288 339.72 38.0623 340.026 38.2086C340.375 38.3749 340.831 38.3749 341.744 38.3749L352.823 38.3749Z" stroke="#017AFE" stroke-width="1.5" stroke-linecap="square" stroke-linejoin="round"/>
<path d="M350.259 35.2073C351.171 35.2073 351.628 35.2073 351.976 35.0417C352.283 34.896 352.532 34.6635 352.688 34.3776C352.866 34.0526 352.866 33.6271 352.866 32.7761V27.0022C352.866 26.1512 352.866 25.7257 352.688 25.4007C352.532 25.1148 352.283 24.8823 351.976 24.7367C351.628 24.571 351.171 24.571 350.259 24.571L339.179 24.571C338.267 24.571 337.81 24.571 337.462 24.7367C337.155 24.8823 336.906 25.1148 336.75 25.4007C336.572 25.7257 336.572 26.1512 336.572 27.0022L336.572 32.7761C336.572 33.6271 336.572 34.0526 336.75 34.3776C336.906 34.6635 337.155 34.896 337.462 35.0417C337.81 35.2073 338.267 35.2073 339.179 35.2073L350.259 35.2073Z" fill="white" stroke="#017AFE" stroke-width="1.5" stroke-linecap="square" stroke-linejoin="round"/>
<path fill-rule="evenodd" clip-rule="evenodd" d="M339.827 27.6917C340.07 27.6917 340.192 27.6917 340.283 27.7384C340.364 27.7795 340.43 27.845 340.471 27.9257C340.517 28.0173 340.517 28.1373 340.517 28.3774V31.4001C340.517 31.6401 340.517 31.7601 340.471 31.8518C340.43 31.9325 340.364 31.998 340.283 32.0391C340.192 32.0858 340.07 32.0858 339.827 32.0858C339.584 32.0858 339.462 32.0858 339.371 32.0391C339.29 31.998 339.225 31.9325 339.183 31.8518C339.137 31.7601 339.137 31.6401 339.137 31.4001V28.3774C339.137 28.1373 339.137 28.0173 339.183 27.9257C339.225 27.845 339.29 27.7795 339.371 27.7384C339.462 27.6917 339.584 27.6917 339.827 27.6917ZM349.603 27.6917C349.846 27.6917 349.968 27.6917 350.06 27.7384C350.14 27.7795 350.206 27.845 350.247 27.9257C350.294 28.0173 350.294 28.1373 350.294 28.3774V31.4001C350.294 31.6401 350.294 31.7601 350.247 31.8518C350.206 31.9325 350.14 31.998 350.06 32.0391C349.968 32.0858 349.846 32.0858 349.603 32.0858C349.36 32.0858 349.238 32.0858 349.147 32.0391C349.066 31.998 349.001 31.9325 348.959 31.8518C348.913 31.7601 348.913 31.6401 348.913 31.4001V28.3774C348.913 28.1373 348.913 28.0173 348.959 27.9257C349.001 27.845 349.066 27.7795 349.147 27.7384C349.238 27.6917 349.36 27.6917 349.603 27.6917Z" fill="#017AFE"/>
<path d="M344.719 31.6485C345.709 31.6485 346.512 30.8605 346.512 29.8885C346.512 28.9164 345.709 28.1284 344.719 28.1284C343.729 28.1284 342.926 28.9164 342.926 29.8885C342.926 30.8605 343.729 31.6485 344.719 31.6485Z" fill="white" stroke="#017AFE" stroke-width="1.5" stroke-linecap="square" stroke-linejoin="round"/>
</g>
</g>
<text fill="#017AFE" style="white-space: pre" xml:space="preserve" font-family="Basier Circle" font-size="12" letter-spacing="0px"><tspan x="318.812" y="60.7715">Instacash</tspan></text>
<g clip-path="url(#clip3_6994_54970)">
<g clip-path="url(#clip4_6994_54970)">
<g clip-path="url(#clip5_6994_54970)">
<g clip-path="url(#clip6_6994_54970)">
<path d="M269.162 34.3274L269.162 39.8267" stroke="#88898A" stroke-width="1.5" stroke-linecap="round"/>
<path d="M273.598 32.7556L273.598 39.8261" stroke="#88898A" stroke-width="1.5" stroke-linecap="round"/>
<path d="M282.471 28.8281L282.471 39.8267" stroke="#88898A" stroke-width="1.5" stroke-linecap="round"/>
<path d="M278.031 31.1833L278.031 39.8251" stroke="#88898A" stroke-width="1.5" stroke-linecap="round"/>
<path d="M267.392 30.7888L273.095 26.9505L274.488 28.4325L281.583 23.3272" stroke="#88898A" stroke-width="1.5" stroke-linecap="round" stroke-linejoin="round"/>
<path d="M279.027 21.625L282.957 22.3652L283.141 25.5932" stroke="#88898A" stroke-width="1.5" stroke-linecap="round" stroke-linejoin="round"/>
</g>
</g>
</g>
</g>
<text fill="#5E6063" style="white-space: pre" xml:space="preserve" font-family="Basier Circle" font-size="12" letter-spacing="0px"><tspan x="255.682" y="60.7891">Mutual </tspan><tspan x="260.984" y="75.7891">Fund</tspan></text>
<g clip-path="url(#clip7_6994_54970)">
<path d="M128.436 21.6213H129.36C129.464 21.6213 129.549 21.7058 129.549 21.8098V23.093C129.549 23.2422 129.662 23.3649 129.809 23.3831C130.942 23.5231 131.877 23.9202 132.615 24.5725L132.761 24.7063C133.478 25.4148 133.869 26.3078 133.936 27.387C133.942 27.4894 133.858 27.5752 133.753 27.5754H132.392C132.291 27.5754 132.206 27.4948 132.195 27.3899C132.135 26.7777 131.907 26.251 131.512 25.8127L131.511 25.8118C131.109 25.3855 130.562 25.109 129.875 24.9797C129.701 24.9473 129.549 25.0855 129.549 25.2581V29.5862C129.549 29.7246 129.647 29.8434 129.783 29.8694L130.123 29.9348C131.489 30.2166 132.506 30.706 133.183 31.3987C133.858 32.0901 134.197 32.9886 134.197 34.0989C134.197 35.2858 133.789 36.2401 132.974 36.9661C132.187 37.6683 131.135 38.085 129.815 38.2131C129.666 38.2276 129.549 38.3525 129.549 38.5042V39.762C129.549 39.8659 129.464 39.9504 129.36 39.9504H128.436C128.332 39.9504 128.247 39.8658 128.247 39.762V38.5051C128.247 38.353 128.129 38.2289 127.979 38.2151C126.55 38.086 125.457 37.6409 124.693 36.886C123.928 36.1289 123.503 35.1559 123.42 33.9631C123.413 33.8592 123.497 33.7708 123.604 33.7708H124.98C125.079 33.7708 125.162 33.847 125.175 33.9475C125.267 34.6859 125.547 35.2848 126.015 35.7405C126.49 36.2039 127.128 36.499 127.925 36.6282C128.097 36.6561 128.247 36.5199 128.247 36.3489V31.5442C128.247 31.4064 128.149 31.2884 128.014 31.262L127.682 31.1965C126.418 30.925 125.474 30.4684 124.845 29.8303V29.8293L124.729 29.7102C124.172 29.1002 123.892 28.2947 123.892 27.2883C123.892 26.1343 124.264 25.2142 125.005 24.5227L125.004 24.5217C125.719 23.8732 126.71 23.4848 127.981 23.3586C128.13 23.3438 128.247 23.2198 128.247 23.0686V21.8098C128.247 21.7059 128.332 21.6214 128.436 21.6213ZM129.791 31.6575C129.667 31.6296 129.549 31.7245 129.549 31.8518V36.3547C129.549 36.5235 129.695 36.6581 129.865 36.636C130.706 36.5263 131.343 36.262 131.771 35.8372C132.199 35.4112 132.411 34.8294 132.411 34.0989C132.411 33.4189 132.189 32.8793 131.739 32.4866L131.738 32.4856L131.562 32.3518C131.189 32.0929 130.701 31.8864 130.101 31.7307L129.791 31.6575ZM127.929 24.9495C127.183 25.0591 126.615 25.3073 126.235 25.6995C125.855 26.0924 125.667 26.6241 125.667 27.2883C125.667 27.8477 125.878 28.3154 126.298 28.6877C126.716 29.0586 127.341 29.3332 128.164 29.5149C128.169 29.5159 128.174 29.5168 128.179 29.5168C128.216 29.5168 128.247 29.4861 128.247 29.4485V25.2297C128.247 25.0601 128.1 24.9246 127.929 24.9495Z" fill="#88898A" stroke="white" stroke-width="0.1"/>
</g>
<text fill="#5E6063" style="white-space: pre" xml:space="preserve" font-family="Basier Circle" font-size="12" letter-spacing="0px"><tspan x="99.8945" y="60.7891">US Stocks</tspan></text>
</g>
<defs>
<filter id="filter0_ddd_6994_54970" x="0" y="0" width="399" height="96" filterUnits="userSpaceOnUse" color-interpolation-filters="sRGB">
<feFlood flood-opacity="0" result="BackgroundImageFix"/>
<feColorMatrix in="SourceAlpha" type="matrix" values="0 0 0 0 0 0 0 0 0 0 0 0 0 0 0 0 0 0 127 0" result="hardAlpha"/>
<feOffset dy="1"/>
<feGaussianBlur stdDeviation="6"/>
<feColorMatrix type="matrix" values="0 0 0 0 0 0 0 0 0 0 0 0 0 0 0 0 0 0 0.12 0"/>
<feBlend mode="normal" in2="BackgroundImageFix" result="effect1_dropShadow_6994_54970"/>
<feColorMatrix in="SourceAlpha" type="matrix" values="0 0 0 0 0 0 0 0 0 0 0 0 0 0 0 0 0 0 127 0" result="hardAlpha"/>
<feOffset dy="4"/>
<feGaussianBlur stdDeviation="4"/>
<feColorMatrix type="matrix" values="0 0 0 0 0 0 0 0 0 0 0 0 0 0 0 0 0 0 0.02 0"/>
<feBlend mode="normal" in2="effect1_dropShadow_6994_54970" result="effect2_dropShadow_6994_54970"/>
<feColorMatrix in="SourceAlpha" type="matrix" values="0 0 0 0 0 0 0 0 0 0 0 0 0 0 0 0 0 0 127 0" result="hardAlpha"/>
<feOffset dy="1"/>
<feGaussianBlur stdDeviation="2"/>
<feColorMatrix type="matrix" values="0 0 0 0 0 0 0 0 0 0 0 0 0 0 0 0 0 0 0.01 0"/>
<feBlend mode="normal" in2="effect2_dropShadow_6994_54970" result="effect3_dropShadow_6994_54970"/>
<feBlend mode="normal" in="SourceGraphic" in2="effect3_dropShadow_6994_54970" result="shape"/>
</filter>
<clipPath id="clip0_6994_54970">
<rect width="24" height="24" fill="white" transform="translate(42.5 19)"/>
</clipPath>
<clipPath id="clip1_6994_54970">
<rect width="24" height="24" fill="white" transform="translate(334 19)"/>
</clipPath>
<clipPath id="clip2_6994_54970">
<rect width="24" height="24" fill="white" transform="translate(334 19)"/>
</clipPath>
<clipPath id="clip3_6994_54970">
<rect width="24" height="24" fill="white" transform="translate(263 19)"/>
</clipPath>
<clipPath id="clip4_6994_54970">
<rect width="21.4286" height="21.4286" fill="white" transform="translate(264.715 20.2856)"/>
</clipPath>
<clipPath id="clip5_6994_54970">
<rect width="21.4286" height="21.4286" fill="white" transform="translate(264.715 20.2856)"/>
</clipPath>
<clipPath id="clip6_6994_54970">
<rect width="21.4286" height="21.4286" fill="white" transform="translate(264.715 20.2856)"/>
</clipPath>
<clipPath id="clip7_6994_54970">
<rect width="24" height="24" fill="white" transform="translate(116.5 19)"/>
</clipPath>
</defs>
</svg>
