<svg width="375" height="40" viewBox="0 0 375 40" fill="none" xmlns="http://www.w3.org/2000/svg">
<g clip-path="url(#clip0_1660_6325)">
<path d="M27.67 5.8701L25.9 4.1001L16 14.0001L25.9 23.9001L27.67 22.1301L19.54 14.0001L27.67 5.8701Z" fill="#FFFFFE"/>
</g>
<g clip-path="url(#clip1_1660_6325)">
<g clip-path="url(#clip2_1660_6325)">
<path d="M161.001 11.7782V16.2226M158.779 14.0004H163.223M166.556 14.0004C166.556 17.0686 164.069 19.5559 161.001 19.5559C157.933 19.5559 155.445 17.0686 155.445 14.0004C155.445 10.9321 157.933 8.44482 161.001 8.44482C164.069 8.44482 166.556 10.9321 166.556 14.0004Z" stroke="#FFFFFE" stroke-linecap="round" stroke-linejoin="round"/>
</g>
</g>
<text fill="white" style="white-space: pre" xml:space="preserve" font-family="Basier Circle" font-size="11" letter-spacing="0px"><tspan x="171.749" y="17.9316">Page title</tspan></text>
<g clip-path="url(#clip3_1660_6325)">
<path d="M344.09 11C344.325 10.3317 344.789 9.76811 345.4 9.40913C346.011 9.05016 346.729 8.91894 347.427 9.03871C348.125 9.15849 348.759 9.52152 349.215 10.0635C349.671 10.6055 349.921 11.2915 349.92 12C349.92 14 346.92 15 346.92 15M347 19H347.01M357 14C357 19.5228 352.523 24 347 24C341.477 24 337 19.5228 337 14C337 8.47715 341.477 4 347 4C352.523 4 357 8.47715 357 14Z" stroke="#FFFFFE" stroke-width="1.75" stroke-linecap="round" stroke-linejoin="round"/>
</g>
<line y1="39.5" x2="375" y2="39.5" stroke="white" stroke-opacity="0.1"/>
<defs>
<clipPath id="clip0_1660_6325">
<rect width="24" height="24" fill="white" transform="translate(16 2)"/>
</clipPath>
<clipPath id="clip1_1660_6325">
<rect width="13.3333" height="13.3333" fill="white" transform="translate(154.334 7.3335)"/>
</clipPath>
<clipPath id="clip2_1660_6325">
<rect width="13.3333" height="13.3333" fill="white" transform="translate(154.334 7.3335)"/>
</clipPath>
<clipPath id="clip3_1660_6325">
<rect width="24" height="24" fill="white" transform="translate(335 2)"/>
</clipPath>
</defs>
</svg>
