<svg width="169" height="14" viewBox="0 0 169 14" fill="none" xmlns="http://www.w3.org/2000/svg">
<text fill="#5E6063" style="white-space: pre" xml:space="preserve" font-family="Basier Circle" font-size="11" letter-spacing="0px"><tspan x="0" y="10.9316">9:30 PM, 23 March</tspan></text>
<text fill="#E5E5E5" style="white-space: pre" xml:space="preserve" font-family="Basier Circle" font-size="11" letter-spacing="0px"><tspan x="102" y="10.9316">|</tspan></text>
<g clip-path="url(#clip0_3043_73502)">
<path d="M116 6.25V4.5M116 8H116.005M113.5 10V11.1678C113.5 11.4342 113.5 11.5674 113.555 11.6358C113.602 11.6953 113.674 11.7299 113.75 11.7298C113.838 11.7297 113.942 11.6465 114.15 11.4801L115.343 10.5259C115.586 10.331 115.708 10.2335 115.844 10.1642C115.964 10.1027 116.092 10.0578 116.225 10.0306C116.374 10 116.53 10 116.842 10H118.1C118.94 10 119.36 10 119.681 9.83651C119.963 9.6927 120.193 9.46323 120.337 9.18099C120.5 8.86012 120.5 8.44008 120.5 7.6V4.9C120.5 4.05992 120.5 3.63988 120.337 3.31901C120.193 3.03677 119.963 2.8073 119.681 2.66349C119.36 2.5 118.94 2.5 118.1 2.5H113.9C113.06 2.5 112.64 2.5 112.319 2.66349C112.037 2.8073 111.807 3.03677 111.663 3.31901C111.5 3.63988 111.5 4.05992 111.5 4.9V8C111.5 8.46499 111.5 8.69748 111.551 8.88823C111.69 9.40587 112.094 9.81019 112.612 9.94889C112.803 10 113.035 10 113.5 10Z" stroke="#FF7734" stroke-linecap="round" stroke-linejoin="round"/>
</g>
<text fill="#5E6063" style="white-space: pre" xml:space="preserve" font-family="Basier Circle" font-size="11" letter-spacing="0px"><tspan x="123" y="10.9316">Disputed</tspan></text>
<defs>
<clipPath id="clip0_3043_73502">
<rect width="12" height="12" fill="white" transform="translate(110 1)"/>
</clipPath>
</defs>
</svg>
