<svg width="101" height="25" viewBox="0 0 101 25" fill="none" xmlns="http://www.w3.org/2000/svg">
<g clip-path="url(#clip0_3080_58201)">
<path d="M0 12.5C0 5.59644 5.59644 0 12.5 0H88.5C95.4036 0 101 5.59644 101 12.5C101 19.4036 95.4036 25 88.5 25H12.5C5.59644 25 0 19.4036 0 12.5Z" fill="#F3F3F2"/>
<text fill="#5E6063" style="white-space: pre" xml:space="preserve" font-family="Basier Circle" font-size="14" letter-spacing="0px"><tspan x="11" y="17.5039">Item</tspan></text>
<g filter="url(#filter0_d_3080_58201)">
<rect x="49" y="1" width="51" height="23" rx="11.5" fill="#089959"/>
<text fill="#FFFFFE" style="white-space: pre" xml:space="preserve" font-family="Basier Circle" font-size="14" letter-spacing="0px"><tspan x="59" y="17.4834">Item</tspan></text>
</g>
</g>
<defs>
<filter id="filter0_d_3080_58201" x="43" y="-4" width="63" height="35" filterUnits="userSpaceOnUse" color-interpolation-filters="sRGB">
<feFlood flood-opacity="0" result="BackgroundImageFix"/>
<feColorMatrix in="SourceAlpha" type="matrix" values="0 0 0 0 0 0 0 0 0 0 0 0 0 0 0 0 0 0 127 0" result="hardAlpha"/>
<feOffset dy="1"/>
<feGaussianBlur stdDeviation="3"/>
<feColorMatrix type="matrix" values="0 0 0 0 0 0 0 0 0 0 0 0 0 0 0 0 0 0 0.08 0"/>
<feBlend mode="normal" in2="BackgroundImageFix" result="effect1_dropShadow_3080_58201"/>
<feBlend mode="normal" in="SourceGraphic" in2="effect1_dropShadow_3080_58201" result="shape"/>
</filter>
<clipPath id="clip0_3080_58201">
<path d="M0 12.5C0 5.59644 5.59644 0 12.5 0H88.5C95.4036 0 101 5.59644 101 12.5C101 19.4036 95.4036 25 88.5 25H12.5C5.59644 25 0 19.4036 0 12.5Z" fill="white"/>
</clipPath>
</defs>
</svg>
