<svg width="117" height="32" viewBox="0 0 117 32" fill="none" xmlns="http://www.w3.org/2000/svg">
<g clip-path="url(#clip0_3080_58203)">
<path d="M0 16C0 7.16344 7.16344 0 16 0H101C109.837 0 117 7.16344 117 16C117 24.8366 109.837 32 101 32H16C7.16344 32 0 24.8366 0 16Z" fill="#F3F3F2"/>
<text fill="#5E6063" style="white-space: pre" xml:space="preserve" font-family="Basier Circle" font-size="15" letter-spacing="0px"><tspan x="14" y="21.3613">Item</tspan></text>
<g filter="url(#filter0_d_3080_58203)">
<rect x="58" y="2" width="57" height="28" rx="14" fill="#089959"/>
<text fill="#FFFFFE" style="white-space: pre" xml:space="preserve" font-family="Basier Circle" font-size="15" letter-spacing="0px"><tspan x="70" y="21.3394">Item</tspan></text>
</g>
</g>
<defs>
<filter id="filter0_d_3080_58203" x="52" y="-3" width="69" height="40" filterUnits="userSpaceOnUse" color-interpolation-filters="sRGB">
<feFlood flood-opacity="0" result="BackgroundImageFix"/>
<feColorMatrix in="SourceAlpha" type="matrix" values="0 0 0 0 0 0 0 0 0 0 0 0 0 0 0 0 0 0 127 0" result="hardAlpha"/>
<feOffset dy="1"/>
<feGaussianBlur stdDeviation="3"/>
<feColorMatrix type="matrix" values="0 0 0 0 0 0 0 0 0 0 0 0 0 0 0 0 0 0 0.08 0"/>
<feBlend mode="normal" in2="BackgroundImageFix" result="effect1_dropShadow_3080_58203"/>
<feBlend mode="normal" in="SourceGraphic" in2="effect1_dropShadow_3080_58203" result="shape"/>
</filter>
<clipPath id="clip0_3080_58203">
<path d="M0 16C0 7.16344 7.16344 0 16 0H101C109.837 0 117 7.16344 117 16C117 24.8366 109.837 32 101 32H16C7.16344 32 0 24.8366 0 16Z" fill="white"/>
</clipPath>
</defs>
</svg>
