<svg width="101" height="24" viewBox="0 0 101 24" fill="none" xmlns="http://www.w3.org/2000/svg">
<g clip-path="url(#clip0_3080_58202)">
<path d="M0 12C0 5.37258 5.37258 0 12 0H89C95.6274 0 101 5.37258 101 12C101 18.6274 95.6274 24 89 24H12C5.37259 24 0 18.6274 0 12Z" fill="#F3F3F2"/>
<g filter="url(#filter0_d_3080_58202)">
<rect x="1" y="1" width="51" height="22" rx="11" fill="#089959"/>
<text fill="#FFFFFE" style="white-space: pre" xml:space="preserve" font-family="Basier Circle" font-size="14" letter-spacing="0px"><tspan x="11" y="16.9834">Item</tspan></text>
</g>
<text fill="#5E6063" style="white-space: pre" xml:space="preserve" font-family="Basier Circle" font-size="14" letter-spacing="0px"><tspan x="60" y="17.0039">Item</tspan></text>
</g>
<defs>
<filter id="filter0_d_3080_58202" x="-5" y="-4" width="63" height="34" filterUnits="userSpaceOnUse" color-interpolation-filters="sRGB">
<feFlood flood-opacity="0" result="BackgroundImageFix"/>
<feColorMatrix in="SourceAlpha" type="matrix" values="0 0 0 0 0 0 0 0 0 0 0 0 0 0 0 0 0 0 127 0" result="hardAlpha"/>
<feOffset dy="1"/>
<feGaussianBlur stdDeviation="3"/>
<feColorMatrix type="matrix" values="0 0 0 0 0 0 0 0 0 0 0 0 0 0 0 0 0 0 0.08 0"/>
<feBlend mode="normal" in2="BackgroundImageFix" result="effect1_dropShadow_3080_58202"/>
<feBlend mode="normal" in="SourceGraphic" in2="effect1_dropShadow_3080_58202" result="shape"/>
</filter>
<clipPath id="clip0_3080_58202">
<path d="M0 12C0 5.37258 5.37258 0 12 0H89C95.6274 0 101 5.37258 101 12C101 18.6274 95.6274 24 89 24H12C5.37259 24 0 18.6274 0 12Z" fill="white"/>
</clipPath>
</defs>
</svg>
