<svg width="120" height="28" viewBox="0 0 120 28" fill="none" xmlns="http://www.w3.org/2000/svg">
<rect y="2" width="120" height="24" rx="12" fill="white" fill-opacity="0.1"/>
<mask id="mask0_2751_41942" style="mask-type:luminance" maskUnits="userSpaceOnUse" x="11" y="8" width="10" height="13">
<path d="M20.4399 20.2463L20.0353 20.4111C19.4757 20.6351 18.8756 20.7801 18.235 20.8196C14.9041 21.0502 11.9103 18.4803 11.5597 15.0801C11.2698 12.3257 12.7936 9.87435 15.1536 8.91886L15.5581 8.75412C13.1982 9.70961 11.6743 12.1609 11.9575 14.9154C12.3149 18.3156 15.3019 20.8921 18.6396 20.6615C19.2734 20.6153 19.8802 20.477 20.4399 20.2529V20.2463Z" fill="white"/>
</mask>
<g mask="url(#mask0_2751_41942)">
<path d="M20.4399 20.2463L20.0353 20.4111C19.4757 20.6351 18.8756 20.7801 18.235 20.8196C14.9041 21.0502 11.9103 18.4803 11.5597 15.0801C11.2698 12.3257 12.7936 9.87435 15.1536 8.91886L15.5581 8.75412C13.1982 9.70961 11.6743 12.1609 11.9575 14.9154C12.3149 18.3156 15.3019 20.8921 18.6396 20.6615C19.2734 20.6153 19.8802 20.477 20.4399 20.2529" fill="#C99709"/>
<path d="M20.4399 20.2463L20.0353 20.4111C19.4757 20.6351 18.8756 20.7801 18.235 20.8196C14.9041 21.0502 11.9103 18.4803 11.5597 15.0801C11.2698 12.3257 12.7936 9.87435 15.1536 8.91886L15.5581 8.75412C13.1982 9.70961 11.6743 12.1609 11.9575 14.9154C12.3149 18.3156 15.3019 20.8921 18.6396 20.6615C19.2734 20.6153 19.8802 20.477 20.4399 20.2529" stroke="black" stroke-width="0.0928048" stroke-miterlimit="10"/>
</g>
<path d="M20.4379 20.2462C23.5098 19.0015 24.9085 15.4198 23.5621 12.2462C22.2157 9.07268 18.634 7.50907 15.5621 8.75381C12.4902 9.99854 11.0915 13.5803 12.4379 16.7538C13.7843 19.9273 17.366 21.491 20.4379 20.2462Z" fill="#FFDE1D" stroke="black" stroke-width="0.0928048" stroke-miterlimit="10"/>
<path d="M19.1708 12.8099L18.1093 13.0961C18.3406 13.1871 18.5312 13.3563 18.6537 13.6295L19.3546 13.4408L19.443 13.7466L18.7489 13.9352C18.8646 14.5792 18.4631 15.1191 17.6465 15.3663C18.293 15.7305 19.0279 16.2119 19.7492 16.6998L19.13 16.8624C18.4563 16.4201 17.8303 16.0102 17.0477 15.5549L16.9388 15.1711L17.2927 15.0735C17.9868 14.8849 18.2794 14.5141 18.2045 14.0718L16.7347 14.4621L16.6462 14.1564L18.0957 13.7726C17.8983 13.4408 17.5104 13.3498 16.9456 13.4994L16.4897 13.623L16.374 13.2197L19.0892 12.4976L19.1776 12.8033L19.1708 12.8099Z" fill="black"/>
<text fill="#FFFFFE" style="white-space: pre" xml:space="preserve" font-family="Basier Circle" font-size="14" letter-spacing="0px"><tspan x="30" y="19.5039">Earned</tspan></text>
<text fill="#FFFFFE" style="white-space: pre" xml:space="preserve" font-family="Basier Circle" font-size="14" letter-spacing="0px"><tspan x="84" y="19.4834">&#x20b9;50</tspan></text>
</svg>
