<svg width="129" height="17" viewBox="0 0 129 17" fill="none" xmlns="http://www.w3.org/2000/svg">
<path d="M0.836883 4.36792C0.380681 4.36792 0 4.72098 0 5.14652V10.8715C0 11.2883 0.380681 11.6415 0.836883 11.6415C1.29308 11.6415 1.6642 11.2884 1.6642 10.8715V5.14652C1.6642 4.72098 1.29291 4.36792 0.836883 4.36792Z" fill="white"/>
<path d="M16.3339 6.59356C16.1388 6.15938 15.8399 5.77739 15.4719 5.4358C15.1039 5.11448 14.6697 4.84536 14.1851 4.66018C13.6912 4.475 13.1627 4.38225 12.6122 4.38225H10.9951C10.948 4.37062 10.9039 4.37062 10.8567 4.37062C10.3754 4.37062 9.98535 4.72086 9.98535 5.15787V10.8598C9.98535 11.294 10.3534 11.6267 10.8222 11.647H12.6122C13.1627 11.647 13.6912 11.5428 14.1851 11.3576C14.6665 11.1724 15.1037 10.912 15.4719 10.5906C15.8399 10.2376 16.1388 9.86706 16.3339 9.42141C16.5415 8.97575 16.6421 8.50965 16.6421 8.01479C16.6421 7.52559 16.5415 7.03938 16.3339 6.59372V6.59356ZM14.2859 9.49372C13.833 9.9018 13.2351 10.1102 12.5809 10.1102H11.6497V5.8989H12.5809C13.2353 5.8989 13.833 6.12763 14.2859 6.52691C14.7389 6.92337 14.9781 7.44731 14.9781 8.01165C14.9781 8.57599 14.7391 9.09695 14.2859 9.49356V9.49372Z" fill="white"/>
<path d="M11.3215 2.48657L8.86454 0.226061C8.6947 0.069806 8.46814 -0.00549204 8.24482 0.000324303C8.0215 -0.00549204 7.79494 0.0668192 7.6251 0.226061L5.16811 2.48657C4.84091 2.78761 4.84091 3.27382 5.16811 3.57486C5.49531 3.87589 6.02378 3.87589 6.35099 3.57486L7.46142 2.55323V8.69796L4.50106 4.75872C4.35327 4.52135 4.07955 4.3651 3.76499 4.3651C3.29939 4.3651 2.91563 4.71816 2.91563 5.1437V10.8629C2.91563 11.2884 3.29939 11.6415 3.76499 11.6415C4.23059 11.6415 4.61434 11.2884 4.61434 10.8629V7.32027L7.62186 11.3001C7.62186 11.3087 7.62186 11.3203 7.6345 11.332C7.80434 11.5288 8.04355 11.6446 8.31402 11.6446C8.77962 11.6446 9.15398 11.2916 9.15398 10.866V2.67175L10.1387 3.57769C10.4659 3.87872 10.9943 3.87872 11.3215 3.57769C11.6487 3.27665 11.6487 2.78745 11.3215 2.48657Z" fill="white"/>
<path d="M47.1305 5.99577V4.72135H46.6865V4.55678H47.7556V4.72135H47.3105V5.99577H47.1305Z" fill="white"/>
<path d="M48.0316 5.99577V4.55678H48.2426L48.7256 5.43482H48.7336L49.2176 4.55678H49.4236V5.99577H49.2536V4.84277H49.2456L48.7376 5.74891H48.7176L48.2096 4.83675H48.2016V5.99577H48.0316Z" fill="white"/>
<path d="M44.8845 11.5479C44.5966 11.5479 44.3632 11.3331 44.3632 11.0682V5.0705C44.3632 4.80559 44.5966 4.59084 44.8845 4.59084H45.2111C45.4991 4.59084 45.7325 4.80559 45.7325 5.0705V11.0682C45.7325 11.3331 45.4991 11.5479 45.2111 11.5479H44.8845Z" fill="#1FD8AD"/>
<path d="M40.3783 11.6325C39.1929 11.6325 38.5185 10.9744 38.5185 10.1094C38.5185 9.22572 39.1827 8.59582 40.6644 8.59582C40.914 8.59582 41.1761 8.61899 41.4019 8.65247C41.6252 8.68558 41.8498 8.53131 41.8498 8.32318C41.8498 7.92833 41.5841 7.60868 40.9301 7.60868C40.6277 7.60868 40.3967 7.68743 40.246 7.81302C40.0326 7.99089 39.8077 8.23857 39.5197 8.23857H39.2749C38.987 8.23857 38.7444 8.01922 38.8256 7.76507C39.0459 7.07556 39.769 6.57453 40.9607 6.57453C42.3913 6.57453 43.219 7.31724 43.219 8.31378V11.0682C43.219 11.3331 42.9856 11.5479 42.6977 11.5479H42.2836C42.121 11.5479 41.9816 11.4411 41.9519 11.294L41.9055 11.0634C41.9028 11.0499 41.8901 11.0402 41.8752 11.0402C41.8656 11.0402 41.8566 11.0443 41.8507 11.0513C41.5532 11.4023 41.0558 11.6325 40.3783 11.6325ZM40.7053 10.6359C41.4206 10.6359 41.8498 10.2223 41.8498 9.73339C41.8498 9.67111 41.8081 9.61481 41.7439 9.5953C41.4316 9.5005 41.1186 9.47015 40.7973 9.47015C40.1944 9.47015 39.8776 9.70519 39.8776 10.053C39.8776 10.3915 40.1535 10.6359 40.7053 10.6359Z" fill="#1FD8AD"/>
<path d="M35.6891 11.6325C34.9319 11.6325 34.4939 11.348 34.2273 11.0329C34.2211 11.0256 34.2118 11.0214 34.2018 11.0214C34.1871 11.0214 34.1742 11.0306 34.1707 11.0437L34.1052 11.2846C34.0632 11.4393 33.9121 11.5479 33.7388 11.5479H33.3288C33.0409 11.5479 32.8075 11.3331 32.8075 11.0682V5.0705C32.8075 4.80559 33.0409 4.59084 33.3288 4.59084H33.6554C33.9433 4.59084 34.1767 4.80559 34.1767 5.0705V7.16045C34.1767 7.17435 34.189 7.18562 34.2041 7.18562C34.2126 7.18562 34.2206 7.182 34.2258 7.17581C34.4923 6.86003 34.9305 6.57453 35.6891 6.57453C37.0686 6.57453 37.8656 7.64629 37.8656 9.1035C37.8656 10.5983 37.0379 11.6325 35.6891 11.6325ZM35.3008 10.5231C36.1694 10.5231 36.4759 9.86501 36.4759 9.1035C36.4759 8.33259 36.1796 7.68389 35.3008 7.68389C34.4322 7.68389 34.1256 8.34199 34.1256 9.1035C34.1256 9.86501 34.4526 10.5231 35.3008 10.5231Z" fill="#1FD8AD"/>
<path d="M29.2786 11.6325C27.5619 11.6325 26.6934 10.5607 26.6934 9.1129C26.6934 7.66509 27.5824 6.57453 29.2786 6.57453C30.9647 6.57453 31.8537 7.66509 31.8537 9.1129C31.8537 10.5513 30.9851 11.6325 29.2786 11.6325ZM29.2786 10.5231C30.045 10.5231 30.464 10.0436 30.464 9.1129C30.464 8.17276 30.045 7.68389 29.2786 7.68389C28.502 7.68389 28.0933 8.18216 28.0933 9.1129C28.0933 10.0436 28.5123 10.5231 29.2786 10.5231Z" fill="#1FD8AD"/>
<path d="M24.9863 11.5479C24.6984 11.5479 24.465 11.3331 24.465 11.0682V5.0705C24.465 4.80559 24.6984 4.59084 24.9863 4.59084H25.3129C25.6008 4.59084 25.8343 4.80559 25.8343 5.0705V11.0682C25.8343 11.3331 25.6008 11.5479 25.3129 11.5479H24.9863Z" fill="#1FD8AD"/>
<path d="M20.785 13.7854C19.6045 13.7854 18.7605 13.2912 18.499 12.5124C18.4124 12.2545 18.6564 12.0273 18.9498 12.0273H19.2824C19.5497 12.0273 19.7638 12.2335 19.9448 12.4145C20.1185 12.5883 20.4041 12.7042 20.785 12.7042C21.5719 12.7042 21.95 12.3 21.95 11.7735V11.0465C21.95 11.0326 21.9377 11.0214 21.9226 11.0214C21.9141 11.0214 21.9061 11.025 21.9009 11.0312C21.6344 11.347 21.1963 11.6325 20.4478 11.6325C19.0581 11.6325 18.2611 10.5607 18.2611 9.1129C18.2611 7.60868 19.0888 6.57453 20.4478 6.57453C21.1949 6.57453 21.6328 6.85902 21.8994 7.17412C21.9056 7.18137 21.9149 7.18562 21.9249 7.18562C21.9396 7.18562 21.9525 7.17641 21.956 7.16328L22.0215 6.92238C22.0635 6.76767 22.2146 6.65914 22.3879 6.65914H22.7979C23.0858 6.65914 23.3192 6.87389 23.3192 7.1388V11.7923C23.3192 12.9863 22.277 13.7854 20.785 13.7854ZM20.8259 10.5231C21.6945 10.5231 22.001 9.87441 22.001 9.1129C22.001 8.34199 21.6843 7.68389 20.8259 7.68389C19.9676 7.68389 19.6508 8.34199 19.6508 9.1129C19.6508 9.87441 19.9471 10.5231 20.8259 10.5231Z" fill="#1FD8AD"/>
<text opacity="0.8" transform="scale(1.00729)" fill="#D7DAE0" style="white-space: pre" xml:space="preserve" font-family="Basier Circle" font-size="12" letter-spacing="1px"><tspan x="53.4533" y="12.3112">PORTFOLIO</tspan></text>
</svg>
